<?xml version="1.0" encoding="UTF-8" standalone="no"?>
<!DOCTYPE svg PUBLIC "-//W3C//DTD SVG 1.1//EN"
 "http://www.w3.org/Graphics/SVG/1.1/DTD/svg11.dtd">
<!-- Generated by graphviz version 2.40.1 (20161225.0304)
 -->
<!-- Title: %3 Pages: 1 -->
<svg width="2451pt" height="2912pt"
 viewBox="0.00 0.00 2450.58 2911.55" xmlns="http://www.w3.org/2000/svg" xmlns:xlink="http://www.w3.org/1999/xlink">
<g id="graph0" class="graph" transform="scale(1 1) rotate(0) translate(4 2907.5482)">
<title>%3</title>
<polygon fill="#ffffff" stroke="transparent" points="-4,4 -4,-2907.5482 2446.579,-2907.5482 2446.579,4 -4,4"/>
<!-- 174 -->
<g id="node1" class="node">
<title>174</title>
<ellipse fill="none" stroke="#000000" cx="1215.4256" cy="-1688.9117" rx="27" ry="18"/>
<text text-anchor="middle" x="1215.4256" y="-1685.2117" font-family="Times,serif" font-size="14.00" fill="#000000">174</text>
</g>
<!-- 209 -->
<g id="node2" class="node">
<title>209</title>
<ellipse fill="none" stroke="#000000" cx="2415.579" cy="-1688.9117" rx="27" ry="18"/>
<text text-anchor="middle" x="2415.579" y="-1685.2117" font-family="Times,serif" font-size="14.00" fill="#000000">209</text>
</g>
<!-- 174&#45;&gt;209 -->
<g id="edge1" class="edge">
<title>174&#45;&gt;209</title>
<path fill="none" stroke="#000000" d="M1242.4606,-1688.9117C1399.7344,-1688.9117 2196.1128,-1688.9117 2378.3811,-1688.9117"/>
<polygon fill="#000000" stroke="#000000" points="2378.5327,-1692.4118 2388.5326,-1688.9117 2378.5326,-1685.4118 2378.5327,-1692.4118"/>
</g>
<!-- 701 -->
<g id="node3" class="node">
<title>701</title>
<ellipse fill="none" stroke="#000000" cx="2333.5384" cy="-2125.0217" rx="27" ry="18"/>
<text text-anchor="middle" x="2333.5384" y="-2121.3217" font-family="Times,serif" font-size="14.00" fill="#000000">701</text>
</g>
<!-- 174&#45;&gt;701 -->
<g id="edge2" class="edge">
<title>174&#45;&gt;701</title>
<path fill="none" stroke="#000000" d="M1238.7789,-1698.0205C1381.224,-1753.5799 2132.5434,-2046.6253 2300.3017,-2112.058"/>
<polygon fill="#000000" stroke="#000000" points="2299.2538,-2115.406 2309.8421,-2115.7791 2301.7975,-2108.8845 2299.2538,-2115.406"/>
</g>
<!-- 1239 -->
<g id="node4" class="node">
<title>1239</title>
<ellipse fill="none" stroke="#000000" cx="2097.5506" cy="-2502.6829" rx="28.6953" ry="18"/>
<text text-anchor="middle" x="2097.5506" y="-2498.9829" font-family="Times,serif" font-size="14.00" fill="#000000">1239</text>
</g>
<!-- 174&#45;&gt;1239 -->
<g id="edge3" class="edge">
<title>174&#45;&gt;1239</title>
<path fill="none" stroke="#000000" d="M1231.4895,-1703.7309C1338.3024,-1802.2671 1945.5258,-2362.4381 2073.7672,-2480.7425"/>
<polygon fill="#000000" stroke="#000000" points="2071.46,-2483.3759 2081.1834,-2487.584 2076.2065,-2478.2308 2071.46,-2483.3759"/>
</g>
<!-- 1273 -->
<g id="node5" class="node">
<title>1273</title>
<ellipse fill="none" stroke="#000000" cx="1738.6695" cy="-2768.9969" rx="28.6953" ry="18"/>
<text text-anchor="middle" x="1738.6695" y="-2765.2969" font-family="Times,serif" font-size="14.00" fill="#000000">1273</text>
</g>
<!-- 174&#45;&gt;1273 -->
<g id="edge4" class="edge">
<title>174&#45;&gt;1273</title>
<path fill="none" stroke="#000000" d="M1223.8564,-1706.3147C1284.3741,-1831.2359 1652.3163,-2590.7457 1725.8768,-2742.5901"/>
<polygon fill="#000000" stroke="#000000" points="1722.7803,-2744.2262 1730.29,-2751.6998 1729.08,-2741.1743 1722.7803,-2744.2262"/>
</g>
<!-- 1299 -->
<g id="node6" class="node">
<title>1299</title>
<ellipse fill="none" stroke="#000000" cx="1307.2364" cy="-2885.5482" rx="28.6953" ry="18"/>
<text text-anchor="middle" x="1307.2364" y="-2881.8482" font-family="Times,serif" font-size="14.00" fill="#000000">1299</text>
</g>
<!-- 174&#45;&gt;1299 -->
<g id="edge5" class="edge">
<title>174&#45;&gt;1299</title>
<path fill="none" stroke="#000000" d="M1216.8309,-1707.2291C1227.2345,-1842.8257 1292.2343,-2690.0154 1305.0454,-2856.9905"/>
<polygon fill="#000000" stroke="#000000" points="1301.5737,-2857.4958 1305.8286,-2867.1987 1308.5532,-2856.9602 1301.5737,-2857.4958"/>
</g>
<!-- 3491 -->
<g id="node10" class="node">
<title>3491</title>
<ellipse fill="none" stroke="#000000" cx="863.073" cy="-2836.1762" rx="28.6953" ry="18"/>
<text text-anchor="middle" x="863.073" y="-2832.4762" font-family="Times,serif" font-size="14.00" fill="#000000">3491</text>
</g>
<!-- 174&#45;&gt;3491 -->
<g id="edge6" class="edge">
<title>174&#45;&gt;3491</title>
<path fill="none" stroke="#000000" d="M1209.8909,-1706.9325C1169.5397,-1838.3165 920.8123,-2648.1763 871.5476,-2808.5827"/>
<polygon fill="#000000" stroke="#000000" points="868.1856,-2807.6082 868.5954,-2818.1951 874.8772,-2809.6634 868.1856,-2807.6082"/>
</g>
<!-- 5511 -->
<g id="node13" class="node">
<title>5511</title>
<ellipse fill="none" stroke="#000000" cx="467.7661" cy="-2627.7267" rx="28.6953" ry="18"/>
<text text-anchor="middle" x="467.7661" y="-2624.0267" font-family="Times,serif" font-size="14.00" fill="#000000">5511</text>
</g>
<!-- 174&#45;&gt;5511 -->
<g id="edge7" class="edge">
<title>174&#45;&gt;5511</title>
<path fill="none" stroke="#000000" d="M1202.7622,-1704.8127C1114.7928,-1815.2735 595.1052,-2467.8306 487.3286,-2603.1626"/>
<polygon fill="#000000" stroke="#000000" points="484.3261,-2601.3146 480.8342,-2611.3175 489.8018,-2605.6754 484.3261,-2601.3146"/>
</g>
<!-- 6453 -->
<g id="node14" class="node">
<title>6453</title>
<ellipse fill="none" stroke="#000000" cx="176.1283" cy="-2289.1028" rx="28.6953" ry="18"/>
<text text-anchor="middle" x="176.1283" y="-2285.4028" font-family="Times,serif" font-size="14.00" fill="#000000">6453</text>
</g>
<!-- 174&#45;&gt;6453 -->
<g id="edge8" class="edge">
<title>174&#45;&gt;6453</title>
<path fill="none" stroke="#000000" d="M1194.6652,-1700.9007C1064.5012,-1776.07 361.3847,-2182.1178 206.3751,-2271.6354"/>
<polygon fill="#000000" stroke="#000000" points="204.2791,-2268.804 197.3698,-2276.8359 207.7798,-2274.8658 204.2791,-2268.804"/>
</g>
<!-- 6461 -->
<g id="node15" class="node">
<title>6461</title>
<ellipse fill="none" stroke="#000000" cx="28.5975" cy="-1867.2576" rx="28.6953" ry="18"/>
<text text-anchor="middle" x="28.5975" y="-1863.5576" font-family="Times,serif" font-size="14.00" fill="#000000">6461</text>
</g>
<!-- 174&#45;&gt;6461 -->
<g id="edge9" class="edge">
<title>174&#45;&gt;6461</title>
<path fill="none" stroke="#000000" d="M1188.9729,-1692.8868C1034.4716,-1716.1038 249.3286,-1834.0881 66.6257,-1861.5431"/>
<polygon fill="#000000" stroke="#000000" points="66.0444,-1858.091 56.6755,-1863.0383 67.0846,-1865.0133 66.0444,-1858.091"/>
</g>
<!-- 7018 -->
<g id="node17" class="node">
<title>7018</title>
<ellipse fill="none" stroke="#000000" cx="45.63" cy="-1420.6833" rx="28.6953" ry="18"/>
<text text-anchor="middle" x="45.63" y="-1416.9833" font-family="Times,serif" font-size="14.00" fill="#000000">7018</text>
</g>
<!-- 174&#45;&gt;7018 -->
<g id="edge10" class="edge">
<title>174&#45;&gt;7018</title>
<path fill="none" stroke="#000000" d="M1189.6294,-1682.9968C1037.8483,-1648.1941 261.6619,-1470.2183 82.5422,-1429.1471"/>
<polygon fill="#000000" stroke="#000000" points="83.0876,-1425.6814 72.5583,-1426.8578 81.5231,-1432.5043 83.0876,-1425.6814"/>
</g>
<!-- 40068 -->
<g id="node26" class="node">
<title>40068</title>
<ellipse fill="none" stroke="#000000" cx="227.0711" cy="-1008.0859" rx="32.4942" ry="18"/>
<text text-anchor="middle" x="227.0711" y="-1004.3859" font-family="Times,serif" font-size="14.00" fill="#000000">40068</text>
</g>
<!-- 174&#45;&gt;40068 -->
<g id="edge11" class="edge">
<title>174&#45;&gt;40068</title>
<path fill="none" stroke="#000000" d="M1196.5644,-1675.9192C1075.2739,-1592.3685 405.403,-1130.9294 256.4334,-1028.3121"/>
<polygon fill="#000000" stroke="#000000" points="257.992,-1025.1357 247.7712,-1022.3452 254.021,-1030.9004 257.992,-1025.1357"/>
</g>
<!-- 2914 -->
<g id="node7" class="node">
<title>2914</title>
<ellipse fill="none" stroke="#000000" cx="2068.8705" cy="-883.8017" rx="28.6953" ry="18"/>
<text text-anchor="middle" x="2068.8705" y="-880.1017" font-family="Times,serif" font-size="14.00" fill="#000000">2914</text>
</g>
<!-- 3257 -->
<g id="node8" class="node">
<title>3257</title>
<ellipse fill="none" stroke="#000000" cx="1869.0948" cy="-1336.2498" rx="28.6953" ry="18"/>
<text text-anchor="middle" x="1869.0948" y="-1332.5498" font-family="Times,serif" font-size="14.00" fill="#000000">3257</text>
</g>
<!-- 3356 -->
<g id="node9" class="node">
<title>3356</title>
<ellipse fill="none" stroke="#000000" cx="2214.6058" cy="-766.8806" rx="28.6953" ry="18"/>
<text text-anchor="middle" x="2214.6058" y="-763.1806" font-family="Times,serif" font-size="14.00" fill="#000000">3356</text>
</g>
<!-- 3549 -->
<g id="node11" class="node">
<title>3549</title>
<ellipse fill="none" stroke="#000000" cx="2201.0615" cy="-899.2842" rx="28.6953" ry="18"/>
<text text-anchor="middle" x="2201.0615" y="-895.5842" font-family="Times,serif" font-size="14.00" fill="#000000">3549</text>
</g>
<!-- 3549&#45;&gt;2914 -->
<g id="edge12" class="edge">
<title>3549&#45;&gt;2914</title>
<path fill="none" stroke="#000000" d="M2172.7032,-895.9628C2153.6229,-893.7281 2128.233,-890.7543 2107.3364,-888.3069"/>
<polygon fill="#000000" stroke="#000000" points="2107.5211,-884.8047 2097.1818,-887.1176 2106.7068,-891.7572 2107.5211,-884.8047"/>
</g>
<!-- 3549&#45;&gt;3356 -->
<g id="edge13" class="edge">
<title>3549&#45;&gt;3356</title>
<path fill="none" stroke="#000000" d="M2202.9163,-881.1517C2205.1832,-858.9914 2209.045,-821.2403 2211.7058,-795.2299"/>
<polygon fill="#000000" stroke="#000000" points="2215.194,-795.5233 2212.7299,-785.219 2208.2303,-794.8109 2215.194,-795.5233"/>
</g>
<!-- 6762 -->
<g id="node16" class="node">
<title>6762</title>
<ellipse fill="none" stroke="#000000" cx="2333.6493" cy="-910.8875" rx="28.6953" ry="18"/>
<text text-anchor="middle" x="2333.6493" y="-907.1875" font-family="Times,serif" font-size="14.00" fill="#000000">6762</text>
</g>
<!-- 3549&#45;&gt;6762 -->
<g id="edge14" class="edge">
<title>3549&#45;&gt;6762</title>
<path fill="none" stroke="#000000" d="M2229.5049,-901.7734C2248.6424,-903.4482 2274.1086,-905.6768 2295.0679,-907.5111"/>
<polygon fill="#000000" stroke="#000000" points="2294.9858,-911.0172 2305.2529,-908.4024 2295.5961,-904.0438 2294.9858,-911.0172"/>
</g>
<!-- 12956 -->
<g id="node22" class="node">
<title>12956</title>
<ellipse fill="none" stroke="#000000" cx="2187.5171" cy="-1031.6878" rx="32.4942" ry="18"/>
<text text-anchor="middle" x="2187.5171" y="-1027.9878" font-family="Times,serif" font-size="14.00" fill="#000000">12956</text>
</g>
<!-- 3549&#45;&gt;12956 -->
<g id="edge15" class="edge">
<title>3549&#45;&gt;12956</title>
<path fill="none" stroke="#000000" d="M2199.2066,-917.4167C2196.9397,-939.577 2193.0779,-977.3281 2190.4171,-1003.3385"/>
<polygon fill="#000000" stroke="#000000" points="2186.9289,-1003.0451 2189.393,-1013.3494 2193.8926,-1003.7575 2186.9289,-1003.0451"/>
</g>
<!-- 4270 -->
<g id="node12" class="node">
<title>4270</title>
<ellipse fill="none" stroke="#000000" cx="1993.4341" cy="-1065.8602" rx="28.6953" ry="18"/>
<text text-anchor="middle" x="1993.4341" y="-1062.1602" font-family="Times,serif" font-size="14.00" fill="#000000">4270</text>
</g>
<!-- 4270&#45;&gt;3549 -->
<g id="edge16" class="edge">
<title>4270&#45;&gt;3549</title>
<path fill="none" stroke="#000000" d="M2011.1363,-1051.658C2047.9113,-1022.1541 2132.7005,-954.1291 2175.4429,-919.8376"/>
<polygon fill="#000000" stroke="#000000" points="2177.7943,-922.4383 2183.4041,-913.4504 2173.4138,-916.9783 2177.7943,-922.4383"/>
</g>
<!-- 7303 -->
<g id="node19" class="node">
<title>7303</title>
<ellipse fill="none" stroke="#000000" cx="1785.8068" cy="-1232.4362" rx="28.6953" ry="18"/>
<text text-anchor="middle" x="1785.8068" y="-1228.7362" font-family="Times,serif" font-size="14.00" fill="#000000">7303</text>
</g>
<!-- 4270&#45;&gt;7303 -->
<g id="edge17" class="edge">
<title>4270&#45;&gt;7303</title>
<path fill="none" stroke="#000000" d="M1975.7319,-1080.0624C1938.957,-1109.5663 1854.1678,-1177.5913 1811.4253,-1211.8828"/>
<polygon fill="#000000" stroke="#000000" points="1809.0739,-1209.2821 1803.4642,-1218.2699 1813.4544,-1214.7421 1809.0739,-1209.2821"/>
</g>
<!-- 7049 -->
<g id="node18" class="node">
<title>7049</title>
<ellipse fill="none" stroke="#000000" cx="1574.5538" cy="-543.7501" rx="28.6953" ry="18"/>
<text text-anchor="middle" x="1574.5538" y="-540.0501" font-family="Times,serif" font-size="14.00" fill="#000000">7049</text>
</g>
<!-- 7049&#45;&gt;174 -->
<g id="edge18" class="edge">
<title>7049&#45;&gt;174</title>
<path fill="none" stroke="#000000" d="M1568.9128,-561.7379C1527.7856,-692.8811 1274.2752,-1501.2563 1224.0632,-1661.3688"/>
<polygon fill="#000000" stroke="#000000" points="1220.707,-1660.3744 1221.0542,-1670.9635 1227.3862,-1662.4691 1220.707,-1660.3744"/>
</g>
<!-- 11058 -->
<g id="node21" class="node">
<title>11058</title>
<ellipse fill="none" stroke="#000000" cx="998.2358" cy="-713.7758" rx="32.4942" ry="18"/>
<text text-anchor="middle" x="998.2358" y="-710.0758" font-family="Times,serif" font-size="14.00" fill="#000000">11058</text>
</g>
<!-- 7049&#45;&gt;11058 -->
<g id="edge19" class="edge">
<title>7049&#45;&gt;11058</title>
<path fill="none" stroke="#000000" d="M1548.2931,-551.4976C1455.9379,-578.7443 1145.7933,-670.2433 1036.6369,-702.4467"/>
<polygon fill="#000000" stroke="#000000" points="1035.6151,-699.0989 1027.0142,-705.2856 1037.5959,-705.8128 1035.6151,-699.0989"/>
</g>
<!-- 22927 -->
<g id="node23" class="node">
<title>22927</title>
<ellipse fill="none" stroke="#000000" cx="1198.5377" cy="-75.0677" rx="32.4942" ry="18"/>
<text text-anchor="middle" x="1198.5377" y="-71.3677" font-family="Times,serif" font-size="14.00" fill="#000000">22927</text>
</g>
<!-- 7049&#45;&gt;22927 -->
<g id="edge20" class="edge">
<title>7049&#45;&gt;22927</title>
<path fill="none" stroke="#000000" d="M1561.6105,-527.617C1505.8025,-458.0555 1285.539,-183.5098 1218.1999,-99.5755"/>
<polygon fill="#000000" stroke="#000000" points="1220.8038,-97.228 1211.8159,-91.6182 1215.3438,-101.6085 1220.8038,-97.228"/>
</g>
<!-- 27986 -->
<g id="node25" class="node">
<title>27986</title>
<ellipse fill="none" stroke="#000000" cx="1865.4801" cy="-18" rx="32.4942" ry="18"/>
<text text-anchor="middle" x="1865.4801" y="-14.3" font-family="Times,serif" font-size="14.00" fill="#000000">27986</text>
</g>
<!-- 7049&#45;&gt;27986 -->
<g id="edge21" class="edge">
<title>7049&#45;&gt;27986</title>
<path fill="none" stroke="#000000" d="M1584.0681,-526.5564C1626.6252,-449.6488 1799.6759,-136.9187 1851.0403,-44.0951"/>
<polygon fill="#000000" stroke="#000000" points="1854.1123,-45.7724 1855.8916,-35.328 1847.9874,-42.3831 1854.1123,-45.7724"/>
</g>
<!-- 7303&#45;&gt;3257 -->
<g id="edge22" class="edge">
<title>7303&#45;&gt;3257</title>
<path fill="none" stroke="#000000" d="M1798.8205,-1248.657C1812.5116,-1265.7222 1834.2049,-1292.7616 1849.8692,-1312.2862"/>
<polygon fill="#000000" stroke="#000000" points="1847.1846,-1314.5331 1856.1724,-1320.1428 1852.6446,-1310.1526 1847.1846,-1314.5331"/>
</g>
<!-- 10481 -->
<g id="node20" class="node">
<title>10481</title>
<ellipse fill="none" stroke="#000000" cx="1702.5188" cy="-1128.6225" rx="32.4942" ry="18"/>
<text text-anchor="middle" x="1702.5188" y="-1124.9225" font-family="Times,serif" font-size="14.00" fill="#000000">10481</text>
</g>
<!-- 7303&#45;&gt;10481 -->
<g id="edge23" class="edge">
<title>7303&#45;&gt;10481</title>
<path fill="none" stroke="#000000" d="M1772.793,-1216.2153C1759.182,-1199.2499 1737.6621,-1172.4266 1722.0198,-1152.9294"/>
<polygon fill="#000000" stroke="#000000" points="1724.7039,-1150.6818 1715.716,-1145.0721 1719.2439,-1155.0623 1724.7039,-1150.6818"/>
</g>
<!-- 27883 -->
<g id="node24" class="node">
<title>27883</title>
<ellipse fill="none" stroke="#000000" cx="1657.8418" cy="-647.5638" rx="32.4942" ry="18"/>
<text text-anchor="middle" x="1657.8418" y="-643.8638" font-family="Times,serif" font-size="14.00" fill="#000000">27883</text>
</g>
<!-- 27883&#45;&gt;4270 -->
<g id="edge24" class="edge">
<title>27883&#45;&gt;4270</title>
<path fill="none" stroke="#000000" d="M1671.2045,-664.2196C1723.205,-729.0352 1912.2188,-964.63 1973.8537,-1041.4544"/>
<polygon fill="#000000" stroke="#000000" points="1971.4093,-1044.0006 1980.3972,-1049.6104 1976.8693,-1039.6201 1971.4093,-1044.0006"/>
</g>
<!-- 27883&#45;&gt;7049 -->
<g id="edge25" class="edge">
<title>27883&#45;&gt;7049</title>
<path fill="none" stroke="#000000" d="M1644.4602,-630.8843C1630.8411,-613.909 1609.5864,-587.4162 1594.0871,-568.0971"/>
<polygon fill="#000000" stroke="#000000" points="1596.6155,-565.6557 1587.6277,-560.0459 1591.1555,-570.0362 1596.6155,-565.6557"/>
</g>
</g>
</svg>
