<?xml version="1.0" encoding="UTF-8" standalone="no"?>
<!DOCTYPE svg PUBLIC "-//W3C//DTD SVG 1.1//EN"
 "http://www.w3.org/Graphics/SVG/1.1/DTD/svg11.dtd">
<!-- Generated by graphviz version 2.40.1 (20161225.0304)
 -->
<!-- Title: %3 Pages: 1 -->
<svg width="566pt" height="403pt"
 viewBox="0.00 0.00 565.97 402.68" xmlns="http://www.w3.org/2000/svg" xmlns:xlink="http://www.w3.org/1999/xlink">
<g id="graph0" class="graph" transform="scale(1 1) rotate(0) translate(4 398.6774)">
<title>%3</title>
<polygon fill="#ffffff" stroke="transparent" points="-4,4 -4,-398.6774 561.9673,-398.6774 561.9673,4 -4,4"/>
<!-- 174 -->
<g id="node1" class="node">
<title>174</title>
<ellipse fill="none" stroke="#000000" cx="441.5145" cy="-263.1287" rx="27" ry="18"/>
<text text-anchor="middle" x="441.5145" y="-259.4287" font-family="Times,serif" font-size="14.00" fill="#000000">174</text>
</g>
<!-- 209 -->
<g id="node2" class="node">
<title>209</title>
<ellipse fill="none" stroke="#000000" cx="518.0521" cy="-234.6983" rx="27" ry="18"/>
<text text-anchor="middle" x="518.0521" y="-230.9983" font-family="Times,serif" font-size="14.00" fill="#000000">209</text>
</g>
<!-- 174&#45;&gt;209 -->
<g id="edge1" class="edge">
<title>174&#45;&gt;209</title>
<path fill="none" stroke="#000000" d="M465.3119,-254.289C471.5035,-251.9891 478.2877,-249.469 484.8677,-247.0248"/>
<polygon fill="#000000" stroke="#000000" points="486.114,-250.2956 494.2694,-243.5325 483.6765,-243.7337 486.114,-250.2956"/>
</g>
<!-- 701 -->
<g id="node3" class="node">
<title>701</title>
<ellipse fill="none" stroke="#000000" cx="401.5313" cy="-199.8397" rx="27" ry="18"/>
<text text-anchor="middle" x="401.5313" y="-196.1397" font-family="Times,serif" font-size="14.00" fill="#000000">701</text>
</g>
<!-- 174&#45;&gt;701 -->
<g id="edge2" class="edge">
<title>174&#45;&gt;701</title>
<path fill="none" stroke="#000000" d="M431.0094,-246.5002C426.9097,-240.0109 422.1172,-232.4249 417.6024,-225.2784"/>
<polygon fill="#000000" stroke="#000000" points="420.4051,-223.1617 412.1051,-216.5768 414.4872,-226.9004 420.4051,-223.1617"/>
</g>
<!-- 1239 -->
<g id="node4" class="node">
<title>1239</title>
<ellipse fill="none" stroke="#000000" cx="421.0444" cy="-338.5924" rx="28.6953" ry="18"/>
<text text-anchor="middle" x="421.0444" y="-334.8924" font-family="Times,serif" font-size="14.00" fill="#000000">1239</text>
</g>
<!-- 174&#45;&gt;1239 -->
<g id="edge3" class="edge">
<title>174&#45;&gt;1239</title>
<path fill="none" stroke="#000000" d="M436.6634,-281.0125C434.2415,-289.9407 431.2575,-300.9415 428.5487,-310.9274"/>
<polygon fill="#000000" stroke="#000000" points="425.1008,-310.2694 425.8607,-320.8369 431.8567,-312.102 425.1008,-310.2694"/>
</g>
<!-- 1273 -->
<g id="node5" class="node">
<title>1273</title>
<ellipse fill="none" stroke="#000000" cx="495.4484" cy="-301.3814" rx="28.6953" ry="18"/>
<text text-anchor="middle" x="495.4484" y="-297.6814" font-family="Times,serif" font-size="14.00" fill="#000000">1273</text>
</g>
<!-- 174&#45;&gt;1273 -->
<g id="edge4" class="edge">
<title>174&#45;&gt;1273</title>
<path fill="none" stroke="#000000" d="M460.0755,-276.2931C462.6141,-278.0936 465.2631,-279.9724 467.9195,-281.8564"/>
<polygon fill="#000000" stroke="#000000" points="466.1213,-284.872 476.3028,-287.8024 470.1709,-279.1623 466.1213,-284.872"/>
</g>
<!-- 1299 -->
<g id="node6" class="node">
<title>1299</title>
<ellipse fill="none" stroke="#000000" cx="394.441" cy="-263.7673" rx="28.6953" ry="18"/>
<text text-anchor="middle" x="394.441" y="-260.0673" font-family="Times,serif" font-size="14.00" fill="#000000">1299</text>
</g>
<!-- 174&#45;&gt;1299 -->
<g id="edge5" class="edge">
<title>174&#45;&gt;1299</title>
<path fill="none" stroke="#000000" d="M414.4044,-263.4965C414.3226,-263.4976 414.2409,-263.4987 414.1593,-263.4998"/>
<polygon fill="#000000" stroke="#000000" points="423.8648,-259.8637 413.9146,-263.5031 423.9626,-266.8631 423.8648,-259.8637"/>
</g>
<!-- 3491 -->
<g id="node10" class="node">
<title>3491</title>
<ellipse fill="none" stroke="#000000" cx="470.0454" cy="-178.8092" rx="28.6953" ry="18"/>
<text text-anchor="middle" x="470.0454" y="-175.1092" font-family="Times,serif" font-size="14.00" fill="#000000">3491</text>
</g>
<!-- 174&#45;&gt;3491 -->
<g id="edge6" class="edge">
<title>174&#45;&gt;3491</title>
<path fill="none" stroke="#000000" d="M447.5652,-245.2467C451.3857,-233.9557 456.3986,-219.1407 460.721,-206.3663"/>
<polygon fill="#000000" stroke="#000000" points="464.1136,-207.2597 464.0035,-196.6654 457.4829,-205.016 464.1136,-207.2597"/>
</g>
<!-- 5511 -->
<g id="node13" class="node">
<title>5511</title>
<ellipse fill="none" stroke="#000000" cx="529.3698" cy="-275.9269" rx="28.6953" ry="18"/>
<text text-anchor="middle" x="529.3698" y="-272.2269" font-family="Times,serif" font-size="14.00" fill="#000000">5511</text>
</g>
<!-- 174&#45;&gt;5511 -->
<g id="edge7" class="edge">
<title>174&#45;&gt;5511</title>
<path fill="none" stroke="#000000" d="M468.3514,-267.0381C475.6495,-268.1012 483.6932,-269.273 491.479,-270.4072"/>
<polygon fill="#000000" stroke="#000000" points="491.0812,-273.8861 501.4813,-271.8643 492.0903,-266.9592 491.0812,-273.8861"/>
</g>
<!-- 6453 -->
<g id="node14" class="node">
<title>6453</title>
<ellipse fill="none" stroke="#000000" cx="498.3229" cy="-338.1252" rx="28.6953" ry="18"/>
<text text-anchor="middle" x="498.3229" y="-334.4252" font-family="Times,serif" font-size="14.00" fill="#000000">6453</text>
</g>
<!-- 174&#45;&gt;6453 -->
<g id="edge8" class="edge">
<title>174&#45;&gt;6453</title>
<path fill="none" stroke="#000000" d="M453.8411,-279.4018C461.3822,-289.3574 471.1778,-302.2892 479.6564,-313.4824"/>
<polygon fill="#000000" stroke="#000000" points="476.9961,-315.7669 485.8242,-321.6249 482.5761,-311.5402 476.9961,-315.7669"/>
</g>
<!-- 6461 -->
<g id="node15" class="node">
<title>6461</title>
<ellipse fill="none" stroke="#000000" cx="456.1263" cy="-354.5895" rx="28.6953" ry="18"/>
<text text-anchor="middle" x="456.1263" y="-350.8895" font-family="Times,serif" font-size="14.00" fill="#000000">6461</text>
</g>
<!-- 174&#45;&gt;6461 -->
<g id="edge9" class="edge">
<title>174&#45;&gt;6461</title>
<path fill="none" stroke="#000000" d="M444.4013,-281.1984C446.4626,-294.101 449.2757,-311.7094 451.6298,-326.4443"/>
<polygon fill="#000000" stroke="#000000" points="448.2116,-327.2347 453.2455,-336.5573 455.124,-326.1304 448.2116,-327.2347"/>
</g>
<!-- 7018 -->
<g id="node17" class="node">
<title>7018</title>
<ellipse fill="none" stroke="#000000" cx="502.5712" cy="-199.2156" rx="28.6953" ry="18"/>
<text text-anchor="middle" x="502.5712" y="-195.5156" font-family="Times,serif" font-size="14.00" fill="#000000">7018</text>
</g>
<!-- 174&#45;&gt;7018 -->
<g id="edge10" class="edge">
<title>174&#45;&gt;7018</title>
<path fill="none" stroke="#000000" d="M456.2946,-247.6571C463.5363,-240.0767 472.4059,-230.7921 480.4357,-222.3867"/>
<polygon fill="#000000" stroke="#000000" points="483.1261,-224.6372 487.503,-214.9887 478.0646,-219.8019 483.1261,-224.6372"/>
</g>
<!-- 40068 -->
<g id="node26" class="node">
<title>40068</title>
<ellipse fill="none" stroke="#000000" cx="432.4979" cy="-175.4501" rx="32.4942" ry="18"/>
<text text-anchor="middle" x="432.4979" y="-171.7501" font-family="Times,serif" font-size="14.00" fill="#000000">40068</text>
</g>
<!-- 174&#45;&gt;40068 -->
<g id="edge11" class="edge">
<title>174&#45;&gt;40068</title>
<path fill="none" stroke="#000000" d="M439.6463,-244.9616C438.4252,-233.088 436.8052,-217.3349 435.4162,-203.8278"/>
<polygon fill="#000000" stroke="#000000" points="438.8685,-203.1834 434.3638,-193.5939 431.9052,-203.8995 438.8685,-203.1834"/>
</g>
<!-- 2914 -->
<g id="node7" class="node">
<title>2914</title>
<ellipse fill="none" stroke="#000000" cx="91.3747" cy="-50.1487" rx="28.6953" ry="18"/>
<text text-anchor="middle" x="91.3747" y="-46.4487" font-family="Times,serif" font-size="14.00" fill="#000000">2914</text>
</g>
<!-- 3257 -->
<g id="node8" class="node">
<title>3257</title>
<ellipse fill="none" stroke="#000000" cx="28.5975" cy="-242.6097" rx="28.6953" ry="18"/>
<text text-anchor="middle" x="28.5975" y="-238.9097" font-family="Times,serif" font-size="14.00" fill="#000000">3257</text>
</g>
<!-- 3356 -->
<g id="node9" class="node">
<title>3356</title>
<ellipse fill="none" stroke="#000000" cx="146.9648" cy="-18" rx="28.6953" ry="18"/>
<text text-anchor="middle" x="146.9648" y="-14.3" font-family="Times,serif" font-size="14.00" fill="#000000">3356</text>
</g>
<!-- 3549 -->
<g id="node11" class="node">
<title>3549</title>
<ellipse fill="none" stroke="#000000" cx="154.6595" cy="-101.7047" rx="28.6953" ry="18"/>
<text text-anchor="middle" x="154.6595" y="-98.0047" font-family="Times,serif" font-size="14.00" fill="#000000">3549</text>
</g>
<!-- 3549&#45;&gt;2914 -->
<g id="edge12" class="edge">
<title>3549&#45;&gt;2914</title>
<path fill="none" stroke="#000000" d="M137.0311,-87.3435C130.8594,-82.3156 123.7963,-76.5615 117.0999,-71.1061"/>
<polygon fill="#000000" stroke="#000000" points="118.8721,-68.0354 108.9085,-64.4329 114.4508,-73.4625 118.8721,-68.0354"/>
</g>
<!-- 3549&#45;&gt;3356 -->
<g id="edge13" class="edge">
<title>3549&#45;&gt;3356</title>
<path fill="none" stroke="#000000" d="M152.9898,-83.542C151.9916,-72.6829 150.7017,-58.6512 149.5717,-46.3586"/>
<polygon fill="#000000" stroke="#000000" points="153.0319,-45.7648 148.6311,-36.1272 146.0613,-46.4057 153.0319,-45.7648"/>
</g>
<!-- 6762 -->
<g id="node16" class="node">
<title>6762</title>
<ellipse fill="none" stroke="#000000" cx="201.0845" cy="-32.2528" rx="28.6953" ry="18"/>
<text text-anchor="middle" x="201.0845" y="-28.5528" font-family="Times,serif" font-size="14.00" fill="#000000">6762</text>
</g>
<!-- 3549&#45;&gt;6762 -->
<g id="edge14" class="edge">
<title>3549&#45;&gt;6762</title>
<path fill="none" stroke="#000000" d="M165.8977,-84.8923C171.4291,-76.6173 178.2097,-66.4735 184.3372,-57.3068"/>
<polygon fill="#000000" stroke="#000000" points="187.3023,-59.169 189.9498,-48.9103 181.4827,-55.2789 187.3023,-59.169"/>
</g>
<!-- 12956 -->
<g id="node22" class="node">
<title>12956</title>
<ellipse fill="none" stroke="#000000" cx="72.2533" cy="-108.0405" rx="32.4942" ry="18"/>
<text text-anchor="middle" x="72.2533" y="-104.3405" font-family="Times,serif" font-size="14.00" fill="#000000">12956</text>
</g>
<!-- 3549&#45;&gt;12956 -->
<g id="edge15" class="edge">
<title>3549&#45;&gt;12956</title>
<path fill="none" stroke="#000000" d="M125.8378,-103.9207C122.1886,-104.2013 118.3965,-104.4928 114.5915,-104.7854"/>
<polygon fill="#000000" stroke="#000000" points="114.2807,-101.2988 104.5785,-105.5552 114.8174,-108.2782 114.2807,-101.2988"/>
</g>
<!-- 4270 -->
<g id="node12" class="node">
<title>4270</title>
<ellipse fill="none" stroke="#000000" cx="182.2256" cy="-188.2765" rx="28.6953" ry="18"/>
<text text-anchor="middle" x="182.2256" y="-184.5765" font-family="Times,serif" font-size="14.00" fill="#000000">4270</text>
</g>
<!-- 4270&#45;&gt;3549 -->
<g id="edge16" class="edge">
<title>4270&#45;&gt;3549</title>
<path fill="none" stroke="#000000" d="M176.5139,-170.3388C172.7438,-158.4989 167.7299,-142.7524 163.4555,-129.3287"/>
<polygon fill="#000000" stroke="#000000" points="166.7331,-128.0861 160.3639,-119.6195 160.063,-130.21 166.7331,-128.0861"/>
</g>
<!-- 7303 -->
<g id="node19" class="node">
<title>7303</title>
<ellipse fill="none" stroke="#000000" cx="109.7996" cy="-243.8475" rx="28.6953" ry="18"/>
<text text-anchor="middle" x="109.7996" y="-240.1475" font-family="Times,serif" font-size="14.00" fill="#000000">7303</text>
</g>
<!-- 4270&#45;&gt;7303 -->
<g id="edge17" class="edge">
<title>4270&#45;&gt;7303</title>
<path fill="none" stroke="#000000" d="M163.9495,-202.2994C155.5435,-208.7491 145.4124,-216.5225 136.1983,-223.5923"/>
<polygon fill="#000000" stroke="#000000" points="133.8731,-220.9649 128.0699,-229.8291 138.1343,-226.5185 133.8731,-220.9649"/>
</g>
<!-- 7049 -->
<g id="node18" class="node">
<title>7049</title>
<ellipse fill="none" stroke="#000000" cx="338.0787" cy="-282.4586" rx="28.6953" ry="18"/>
<text text-anchor="middle" x="338.0787" y="-278.7586" font-family="Times,serif" font-size="14.00" fill="#000000">7049</text>
</g>
<!-- 7049&#45;&gt;174 -->
<g id="edge18" class="edge">
<title>7049&#45;&gt;174</title>
<path fill="none" stroke="#000000" d="M365.526,-277.3293C377.7103,-275.0523 392.2188,-272.341 405.2769,-269.9007"/>
<polygon fill="#000000" stroke="#000000" points="406.1794,-273.2927 415.3663,-268.0152 404.8935,-266.4118 406.1794,-273.2927"/>
</g>
<!-- 11058 -->
<g id="node21" class="node">
<title>11058</title>
<ellipse fill="none" stroke="#000000" cx="278.4574" cy="-313.3524" rx="32.4942" ry="18"/>
<text text-anchor="middle" x="278.4574" y="-309.6524" font-family="Times,serif" font-size="14.00" fill="#000000">11058</text>
</g>
<!-- 7049&#45;&gt;11058 -->
<g id="edge19" class="edge">
<title>7049&#45;&gt;11058</title>
<path fill="none" stroke="#000000" d="M315.8779,-293.9623C314.5122,-294.67 313.1237,-295.3895 311.7249,-296.1143"/>
<polygon fill="#000000" stroke="#000000" points="309.7453,-293.198 302.4768,-300.9064 312.9659,-299.4132 309.7453,-293.198"/>
</g>
<!-- 22927 -->
<g id="node23" class="node">
<title>22927</title>
<ellipse fill="none" stroke="#000000" cx="336.0318" cy="-376.6774" rx="32.4942" ry="18"/>
<text text-anchor="middle" x="336.0318" y="-372.9774" font-family="Times,serif" font-size="14.00" fill="#000000">22927</text>
</g>
<!-- 7049&#45;&gt;22927 -->
<g id="edge20" class="edge">
<title>7049&#45;&gt;22927</title>
<path fill="none" stroke="#000000" d="M337.6841,-300.6249C337.3896,-314.1807 336.9816,-332.9566 336.6448,-348.4605"/>
<polygon fill="#000000" stroke="#000000" points="333.1434,-348.4931 336.4253,-358.5668 340.1417,-348.6452 333.1434,-348.4931"/>
</g>
<!-- 27986 -->
<g id="node25" class="node">
<title>27986</title>
<ellipse fill="none" stroke="#000000" cx="295.9631" cy="-360.362" rx="32.4942" ry="18"/>
<text text-anchor="middle" x="295.9631" y="-356.662" font-family="Times,serif" font-size="14.00" fill="#000000">27986</text>
</g>
<!-- 7049&#45;&gt;27986 -->
<g id="edge21" class="edge">
<title>7049&#45;&gt;27986</title>
<path fill="none" stroke="#000000" d="M328.7319,-299.7479C323.3172,-309.7637 316.3878,-322.5815 310.2969,-333.8481"/>
<polygon fill="#000000" stroke="#000000" points="307.1063,-332.3904 305.4295,-342.8517 313.2641,-335.7194 307.1063,-332.3904"/>
</g>
<!-- 7303&#45;&gt;3257 -->
<g id="edge22" class="edge">
<title>7303&#45;&gt;3257</title>
<path fill="none" stroke="#000000" d="M80.9422,-243.4076C76.6343,-243.342 72.1335,-243.2733 67.6577,-243.2051"/>
<polygon fill="#000000" stroke="#000000" points="67.4142,-239.7011 57.362,-243.0482 67.3075,-246.7003 67.4142,-239.7011"/>
</g>
<!-- 10481 -->
<g id="node20" class="node">
<title>10481</title>
<ellipse fill="none" stroke="#000000" cx="63.4922" cy="-314.1839" rx="32.4942" ry="18"/>
<text text-anchor="middle" x="63.4922" y="-310.4839" font-family="Times,serif" font-size="14.00" fill="#000000">10481</text>
</g>
<!-- 7303&#45;&gt;10481 -->
<g id="edge23" class="edge">
<title>7303&#45;&gt;10481</title>
<path fill="none" stroke="#000000" d="M98.8254,-260.5163C93.3125,-268.8898 86.5117,-279.2195 80.3536,-288.5731"/>
<polygon fill="#000000" stroke="#000000" points="77.285,-286.8692 74.7093,-297.1462 83.1316,-290.7185 77.285,-286.8692"/>
</g>
<!-- 27883 -->
<g id="node24" class="node">
<title>27883</title>
<ellipse fill="none" stroke="#000000" cx="263.0916" cy="-223.9169" rx="32.4942" ry="18"/>
<text text-anchor="middle" x="263.0916" y="-220.2169" font-family="Times,serif" font-size="14.00" fill="#000000">27883</text>
</g>
<!-- 27883&#45;&gt;4270 -->
<g id="edge24" class="edge">
<title>27883&#45;&gt;4270</title>
<path fill="none" stroke="#000000" d="M237.5051,-212.64C230.3474,-209.4854 222.4689,-206.0131 214.9584,-202.703"/>
<polygon fill="#000000" stroke="#000000" points="216.2863,-199.4634 205.724,-198.633 213.4631,-205.8688 216.2863,-199.4634"/>
</g>
<!-- 27883&#45;&gt;7049 -->
<g id="edge25" class="edge">
<title>27883&#45;&gt;7049</title>
<path fill="none" stroke="#000000" d="M282.014,-238.6894C291.0983,-245.7814 302.1284,-254.3925 311.9937,-262.0943"/>
<polygon fill="#000000" stroke="#000000" points="309.9022,-264.9017 319.9384,-268.2966 314.2098,-259.384 309.9022,-264.9017"/>
</g>
</g>
</svg>
