<?xml version="1.0" encoding="UTF-8" standalone="no"?>
<!DOCTYPE svg PUBLIC "-//W3C//DTD SVG 1.1//EN"
 "http://www.w3.org/Graphics/SVG/1.1/DTD/svg11.dtd">
<!-- Generated by graphviz version 2.40.1 (20161225.0304)
 -->
<!-- Title: %3 Pages: 1 -->
<svg width="792pt" height="473pt"
 viewBox="0.00 0.00 792.00 473.00" xmlns="http://www.w3.org/2000/svg" xmlns:xlink="http://www.w3.org/1999/xlink">
<g id="graph0" class="graph" transform="scale(1 1) rotate(0) translate(4 469)">
<title>%3</title>
<polygon fill="#ffffff" stroke="transparent" points="-4,4 -4,-469 788,-469 788,4 -4,4"/>
<!-- 174 -->
<g id="node1" class="node">
<title>174</title>
<ellipse fill="none" stroke="#000000" cx="641.3757" cy="-273.7339" rx="27" ry="18"/>
<text text-anchor="middle" x="641.3757" y="-270.0339" font-family="Times,serif" font-size="14.00" fill="#000000">174</text>
</g>
<!-- 209 -->
<g id="node2" class="node">
<title>209</title>
<ellipse fill="none" stroke="#000000" cx="741.234" cy="-219.3408" rx="27" ry="18"/>
<text text-anchor="middle" x="741.234" y="-215.6408" font-family="Times,serif" font-size="14.00" fill="#000000">209</text>
</g>
<!-- 174&#45;&gt;209 -->
<g id="edge1" class="edge">
<title>174&#45;&gt;209</title>
<path fill="none" stroke="#000000" d="M662.5531,-262.1985C676.7191,-254.4822 695.5693,-244.2145 711.2676,-235.6636"/>
<polygon fill="#000000" stroke="#000000" points="712.9796,-238.7167 720.0871,-230.8596 709.6312,-232.5695 712.9796,-238.7167"/>
</g>
<!-- 701 -->
<g id="node3" class="node">
<title>701</title>
<ellipse fill="none" stroke="#000000" cx="624.7062" cy="-147.6317" rx="27" ry="18"/>
<text text-anchor="middle" x="624.7062" y="-143.9317" font-family="Times,serif" font-size="14.00" fill="#000000">701</text>
</g>
<!-- 174&#45;&gt;701 -->
<g id="edge2" class="edge">
<title>174&#45;&gt;701</title>
<path fill="none" stroke="#000000" d="M638.9874,-255.6665C636.227,-234.7846 631.6509,-200.1671 628.4239,-175.7551"/>
<polygon fill="#000000" stroke="#000000" points="631.8705,-175.1206 627.0901,-165.6656 624.9309,-176.038 631.8705,-175.1206"/>
</g>
<!-- 1239 -->
<g id="node4" class="node">
<title>1239</title>
<ellipse fill="none" stroke="#000000" cx="547.5511" cy="-201.2758" rx="28.6953" ry="18"/>
<text text-anchor="middle" x="547.5511" y="-197.5758" font-family="Times,serif" font-size="14.00" fill="#000000">1239</text>
</g>
<!-- 174&#45;&gt;1239 -->
<g id="edge3" class="edge">
<title>174&#45;&gt;1239</title>
<path fill="none" stroke="#000000" d="M623.728,-260.1051C609.6244,-249.2133 589.6453,-233.784 573.6863,-221.4593"/>
<polygon fill="#000000" stroke="#000000" points="575.8135,-218.6799 565.7596,-215.3378 571.5349,-224.2201 575.8135,-218.6799"/>
</g>
<!-- 1273 -->
<g id="node5" class="node">
<title>1273</title>
<ellipse fill="none" stroke="#000000" cx="639.1928" cy="-349.2811" rx="28.6953" ry="18"/>
<text text-anchor="middle" x="639.1928" y="-345.5811" font-family="Times,serif" font-size="14.00" fill="#000000">1273</text>
</g>
<!-- 174&#45;&gt;1273 -->
<g id="edge4" class="edge">
<title>174&#45;&gt;1273</title>
<path fill="none" stroke="#000000" d="M640.8473,-292.0217C640.5953,-300.7446 640.2881,-311.3765 640.0071,-321.1002"/>
<polygon fill="#000000" stroke="#000000" points="636.5067,-321.0647 639.7164,-331.1616 643.5038,-321.2669 636.5067,-321.0647"/>
</g>
<!-- 1299 -->
<g id="node6" class="node">
<title>1299</title>
<ellipse fill="none" stroke="#000000" cx="713.6488" cy="-367.4818" rx="28.6953" ry="18"/>
<text text-anchor="middle" x="713.6488" y="-363.7818" font-family="Times,serif" font-size="14.00" fill="#000000">1299</text>
</g>
<!-- 174&#45;&gt;1299 -->
<g id="edge5" class="edge">
<title>174&#45;&gt;1299</title>
<path fill="none" stroke="#000000" d="M653.9647,-290.0635C665.192,-304.6268 681.7907,-326.1575 694.6352,-342.8186"/>
<polygon fill="#000000" stroke="#000000" points="692.0841,-345.2419 700.9616,-351.0247 697.6279,-340.968 692.0841,-345.2419"/>
</g>
<!-- 3491 -->
<g id="node10" class="node">
<title>3491</title>
<ellipse fill="none" stroke="#000000" cx="667.2156" cy="-211.4119" rx="28.6953" ry="18"/>
<text text-anchor="middle" x="667.2156" y="-207.7119" font-family="Times,serif" font-size="14.00" fill="#000000">3491</text>
</g>
<!-- 174&#45;&gt;3491 -->
<g id="edge6" class="edge">
<title>174&#45;&gt;3491</title>
<path fill="none" stroke="#000000" d="M648.5736,-256.3737C650.8864,-250.7956 653.5057,-244.4782 656.0345,-238.379"/>
<polygon fill="#000000" stroke="#000000" points="659.2798,-239.69 659.8768,-229.112 652.8136,-237.0089 659.2798,-239.69"/>
</g>
<!-- 5511 -->
<g id="node13" class="node">
<title>5511</title>
<ellipse fill="none" stroke="#000000" cx="755.2787" cy="-270.8415" rx="28.6953" ry="18"/>
<text text-anchor="middle" x="755.2787" y="-267.1415" font-family="Times,serif" font-size="14.00" fill="#000000">5511</text>
</g>
<!-- 174&#45;&gt;5511 -->
<g id="edge7" class="edge">
<title>174&#45;&gt;5511</title>
<path fill="none" stroke="#000000" d="M668.3691,-273.0484C682.724,-272.6839 700.6285,-272.2293 716.45,-271.8275"/>
<polygon fill="#000000" stroke="#000000" points="716.58,-275.3254 726.4879,-271.5726 716.4022,-268.3277 716.58,-275.3254"/>
</g>
<!-- 6453 -->
<g id="node14" class="node">
<title>6453</title>
<ellipse fill="none" stroke="#000000" cx="744.4133" cy="-323.0494" rx="28.6953" ry="18"/>
<text text-anchor="middle" x="744.4133" y="-319.3494" font-family="Times,serif" font-size="14.00" fill="#000000">6453</text>
</g>
<!-- 174&#45;&gt;6453 -->
<g id="edge8" class="edge">
<title>174&#45;&gt;6453</title>
<path fill="none" stroke="#000000" d="M663.4799,-284.3133C677.6809,-291.1102 696.3662,-300.0533 712.2046,-307.6338"/>
<polygon fill="#000000" stroke="#000000" points="711.1017,-310.9861 721.6328,-312.1463 714.1237,-304.672 711.1017,-310.9861"/>
</g>
<!-- 6461 -->
<g id="node15" class="node">
<title>6461</title>
<ellipse fill="none" stroke="#000000" cx="643.6926" cy="-394.5272" rx="28.6953" ry="18"/>
<text text-anchor="middle" x="643.6926" y="-390.8272" font-family="Times,serif" font-size="14.00" fill="#000000">6461</text>
</g>
<!-- 174&#45;&gt;6461 -->
<g id="edge9" class="edge">
<title>174&#45;&gt;6461</title>
<path fill="none" stroke="#000000" d="M641.7226,-291.8179C642.0996,-311.4765 642.7072,-343.1543 643.1481,-366.1368"/>
<polygon fill="#000000" stroke="#000000" points="639.6521,-366.3886 643.3434,-376.3196 646.6509,-366.2543 639.6521,-366.3886"/>
</g>
<!-- 7018 -->
<g id="node17" class="node">
<title>7018</title>
<ellipse fill="none" stroke="#000000" cx="693.175" cy="-166.3747" rx="28.6953" ry="18"/>
<text text-anchor="middle" x="693.175" y="-162.6747" font-family="Times,serif" font-size="14.00" fill="#000000">7018</text>
</g>
<!-- 174&#45;&gt;7018 -->
<g id="edge10" class="edge">
<title>174&#45;&gt;7018</title>
<path fill="none" stroke="#000000" d="M649.6982,-256.4848C657.956,-239.3696 670.7277,-212.899 680.2954,-193.0689"/>
<polygon fill="#000000" stroke="#000000" points="683.5079,-194.4651 684.7012,-183.9377 677.2033,-191.4232 683.5079,-194.4651"/>
</g>
<!-- 40068 -->
<g id="node26" class="node">
<title>40068</title>
<ellipse fill="none" stroke="#000000" cx="532.9973" cy="-254.3856" rx="32.4942" ry="18"/>
<text text-anchor="middle" x="532.9973" y="-250.6856" font-family="Times,serif" font-size="14.00" fill="#000000">40068</text>
</g>
<!-- 174&#45;&gt;40068 -->
<g id="edge11" class="edge">
<title>174&#45;&gt;40068</title>
<path fill="none" stroke="#000000" d="M615.1403,-269.0502C602.8597,-266.8578 587.9414,-264.1945 574.2054,-261.7423"/>
<polygon fill="#000000" stroke="#000000" points="574.4547,-258.2315 563.9952,-259.9195 573.2244,-265.1226 574.4547,-258.2315"/>
</g>
<!-- 2914 -->
<g id="node7" class="node">
<title>2914</title>
<ellipse fill="none" stroke="#000000" cx="138.4602" cy="-18.4973" rx="28.6953" ry="18"/>
<text text-anchor="middle" x="138.4602" y="-14.7973" font-family="Times,serif" font-size="14.00" fill="#000000">2914</text>
</g>
<!-- 3257 -->
<g id="node8" class="node">
<title>3257</title>
<ellipse fill="none" stroke="#000000" cx="86.0537" cy="-399.3474" rx="28.6953" ry="18"/>
<text text-anchor="middle" x="86.0537" y="-395.6474" font-family="Times,serif" font-size="14.00" fill="#000000">3257</text>
</g>
<!-- 3356 -->
<g id="node9" class="node">
<title>3356</title>
<ellipse fill="none" stroke="#000000" cx="59.1182" cy="-146.0793" rx="28.6953" ry="18"/>
<text text-anchor="middle" x="59.1182" y="-142.3793" font-family="Times,serif" font-size="14.00" fill="#000000">3356</text>
</g>
<!-- 3549 -->
<g id="node11" class="node">
<title>3549</title>
<ellipse fill="none" stroke="#000000" cx="167.3961" cy="-126.1287" rx="28.6953" ry="18"/>
<text text-anchor="middle" x="167.3961" y="-122.4287" font-family="Times,serif" font-size="14.00" fill="#000000">3549</text>
</g>
<!-- 3549&#45;&gt;2914 -->
<g id="edge12" class="edge">
<title>3549&#45;&gt;2914</title>
<path fill="none" stroke="#000000" d="M162.6179,-108.3555C158.0733,-91.4512 151.168,-65.766 145.9024,-46.1798"/>
<polygon fill="#000000" stroke="#000000" points="149.2217,-45.0452 143.2454,-36.2968 142.4618,-46.8626 149.2217,-45.0452"/>
</g>
<!-- 3549&#45;&gt;3356 -->
<g id="edge13" class="edge">
<title>3549&#45;&gt;3356</title>
<path fill="none" stroke="#000000" d="M139.7929,-131.2147C126.684,-133.63 110.8175,-136.5535 96.6361,-139.1665"/>
<polygon fill="#000000" stroke="#000000" points="95.8713,-135.7484 86.6711,-141.0026 97.1398,-142.6325 95.8713,-135.7484"/>
</g>
<!-- 6762 -->
<g id="node16" class="node">
<title>6762</title>
<ellipse fill="none" stroke="#000000" cx="223.8048" cy="-30.875" rx="28.6953" ry="18"/>
<text text-anchor="middle" x="223.8048" y="-27.175" font-family="Times,serif" font-size="14.00" fill="#000000">6762</text>
</g>
<!-- 3549&#45;&gt;6762 -->
<g id="edge14" class="edge">
<title>3549&#45;&gt;6762</title>
<path fill="none" stroke="#000000" d="M177.4809,-109.0992C186.144,-94.4703 198.7624,-73.1624 208.6426,-56.4784"/>
<polygon fill="#000000" stroke="#000000" points="211.7234,-58.1449 213.8073,-47.757 205.7002,-54.578 211.7234,-58.1449"/>
</g>
<!-- 12956 -->
<g id="node22" class="node">
<title>12956</title>
<ellipse fill="none" stroke="#000000" cx="64.9577" cy="-73.2097" rx="32.4942" ry="18"/>
<text text-anchor="middle" x="64.9577" y="-69.5097" font-family="Times,serif" font-size="14.00" fill="#000000">12956</text>
</g>
<!-- 3549&#45;&gt;12956 -->
<g id="edge15" class="edge">
<title>3549&#45;&gt;12956</title>
<path fill="none" stroke="#000000" d="M145.1685,-114.646C131.4267,-107.5471 113.5334,-98.3035 98.1346,-90.3486"/>
<polygon fill="#000000" stroke="#000000" points="99.4194,-87.073 88.9285,-85.5928 96.2066,-93.2921 99.4194,-87.073"/>
</g>
<!-- 4270 -->
<g id="node12" class="node">
<title>4270</title>
<ellipse fill="none" stroke="#000000" cx="235.2387" cy="-230.286" rx="28.6953" ry="18"/>
<text text-anchor="middle" x="235.2387" y="-226.586" font-family="Times,serif" font-size="14.00" fill="#000000">4270</text>
</g>
<!-- 4270&#45;&gt;3549 -->
<g id="edge16" class="edge">
<title>4270&#45;&gt;3549</title>
<path fill="none" stroke="#000000" d="M224.3386,-213.5513C213.4093,-196.7718 196.4431,-170.7239 183.8705,-151.4215"/>
<polygon fill="#000000" stroke="#000000" points="186.6598,-149.2909 178.2691,-142.8218 180.7943,-153.1114 186.6598,-149.2909"/>
</g>
<!-- 7303 -->
<g id="node19" class="node">
<title>7303</title>
<ellipse fill="none" stroke="#000000" cx="144.6134" cy="-305.8255" rx="28.6953" ry="18"/>
<text text-anchor="middle" x="144.6134" y="-302.1255" font-family="Times,serif" font-size="14.00" fill="#000000">7303</text>
</g>
<!-- 4270&#45;&gt;7303 -->
<g id="edge17" class="edge">
<title>4270&#45;&gt;7303</title>
<path fill="none" stroke="#000000" d="M217.7652,-244.8508C204.225,-256.1371 185.27,-271.9367 170.0478,-284.6249"/>
<polygon fill="#000000" stroke="#000000" points="167.4737,-282.2141 162.0332,-291.3054 171.9557,-287.5911 167.4737,-282.2141"/>
</g>
<!-- 7049 -->
<g id="node18" class="node">
<title>7049</title>
<ellipse fill="none" stroke="#000000" cx="498.5846" cy="-331.1528" rx="28.6953" ry="18"/>
<text text-anchor="middle" x="498.5846" y="-327.4528" font-family="Times,serif" font-size="14.00" fill="#000000">7049</text>
</g>
<!-- 7049&#45;&gt;174 -->
<g id="edge18" class="edge">
<title>7049&#45;&gt;174</title>
<path fill="none" stroke="#000000" d="M522.8072,-321.4124C546.3724,-311.9364 582.3482,-297.4699 608.4919,-286.957"/>
<polygon fill="#000000" stroke="#000000" points="610.0118,-290.1183 617.984,-283.1401 607.4002,-283.6237 610.0118,-290.1183"/>
</g>
<!-- 11058 -->
<g id="node21" class="node">
<title>11058</title>
<ellipse fill="none" stroke="#000000" cx="531.7279" cy="-447.0698" rx="32.4942" ry="18"/>
<text text-anchor="middle" x="531.7279" y="-443.3698" font-family="Times,serif" font-size="14.00" fill="#000000">11058</text>
</g>
<!-- 7049&#45;&gt;11058 -->
<g id="edge19" class="edge">
<title>7049&#45;&gt;11058</title>
<path fill="none" stroke="#000000" d="M503.6906,-349.0108C509.0517,-367.7608 517.5528,-397.4931 523.79,-419.3072"/>
<polygon fill="#000000" stroke="#000000" points="520.4472,-420.348 526.5615,-429.0005 527.1775,-418.4236 520.4472,-420.348"/>
</g>
<!-- 22927 -->
<g id="node23" class="node">
<title>22927</title>
<ellipse fill="none" stroke="#000000" cx="457.9764" cy="-440.5957" rx="32.4942" ry="18"/>
<text text-anchor="middle" x="457.9764" y="-436.8957" font-family="Times,serif" font-size="14.00" fill="#000000">22927</text>
</g>
<!-- 7049&#45;&gt;22927 -->
<g id="edge20" class="edge">
<title>7049&#45;&gt;22927</title>
<path fill="none" stroke="#000000" d="M492.0602,-348.7367C485.6159,-366.1047 475.665,-392.9232 468.1758,-413.1073"/>
<polygon fill="#000000" stroke="#000000" points="464.8169,-412.0988 464.6195,-422.6918 471.3797,-414.534 464.8169,-412.0988"/>
</g>
<!-- 27986 -->
<g id="node25" class="node">
<title>27986</title>
<ellipse fill="none" stroke="#000000" cx="404.3615" cy="-386.8284" rx="32.4942" ry="18"/>
<text text-anchor="middle" x="404.3615" y="-383.1284" font-family="Times,serif" font-size="14.00" fill="#000000">27986</text>
</g>
<!-- 7049&#45;&gt;27986 -->
<g id="edge21" class="edge">
<title>7049&#45;&gt;27986</title>
<path fill="none" stroke="#000000" d="M477.6735,-343.509C465.3095,-350.8147 449.4155,-360.2064 435.5889,-368.3764"/>
<polygon fill="#000000" stroke="#000000" points="433.688,-365.4342 426.8592,-373.5347 437.2491,-371.4608 433.688,-365.4342"/>
</g>
<!-- 7303&#45;&gt;3257 -->
<g id="edge22" class="edge">
<title>7303&#45;&gt;3257</title>
<path fill="none" stroke="#000000" d="M133.8726,-322.9788C125.0401,-337.0848 112.3839,-357.2971 102.3105,-373.3847"/>
<polygon fill="#000000" stroke="#000000" points="99.067,-371.9697 96.7264,-382.3028 104.9999,-375.6847 99.067,-371.9697"/>
</g>
<!-- 10481 -->
<g id="node20" class="node">
<title>10481</title>
<ellipse fill="none" stroke="#000000" cx="32.9074" cy="-325.0105" rx="32.4942" ry="18"/>
<text text-anchor="middle" x="32.9074" y="-321.3105" font-family="Times,serif" font-size="14.00" fill="#000000">10481</text>
</g>
<!-- 7303&#45;&gt;10481 -->
<g id="edge23" class="edge">
<title>7303&#45;&gt;10481</title>
<path fill="none" stroke="#000000" d="M117.0007,-310.5678C104.1073,-312.7822 88.4894,-315.4645 74.2295,-317.9136"/>
<polygon fill="#000000" stroke="#000000" points="73.4077,-314.5034 64.1445,-319.6456 74.5926,-321.4024 73.4077,-314.5034"/>
</g>
<!-- 27883 -->
<g id="node24" class="node">
<title>27883</title>
<ellipse fill="none" stroke="#000000" cx="376.6801" cy="-278.7303" rx="32.4942" ry="18"/>
<text text-anchor="middle" x="376.6801" y="-275.0303" font-family="Times,serif" font-size="14.00" fill="#000000">27883</text>
</g>
<!-- 27883&#45;&gt;4270 -->
<g id="edge24" class="edge">
<title>27883&#45;&gt;4270</title>
<path fill="none" stroke="#000000" d="M348.7359,-269.1593C326.2343,-261.4524 294.4784,-250.5759 270.2768,-242.2867"/>
<polygon fill="#000000" stroke="#000000" points="271.3423,-238.9521 260.7477,-239.023 269.0741,-245.5745 271.3423,-238.9521"/>
</g>
<!-- 27883&#45;&gt;7049 -->
<g id="edge25" class="edge">
<title>27883&#45;&gt;7049</title>
<path fill="none" stroke="#000000" d="M402.5329,-289.8477C420.912,-297.7513 445.7497,-308.4322 465.5633,-316.9527"/>
<polygon fill="#000000" stroke="#000000" points="464.2668,-320.205 474.8361,-320.9402 467.0322,-313.7744 464.2668,-320.205"/>
</g>
</g>
</svg>
