<?xml version="1.0" encoding="UTF-8" standalone="no"?>
<!DOCTYPE svg PUBLIC "-//W3C//DTD SVG 1.1//EN"
 "http://www.w3.org/Graphics/SVG/1.1/DTD/svg11.dtd">
<!-- Generated by graphviz version 2.40.1 (20161225.0304)
 -->
<!-- Title: %3 Pages: 1 -->
<svg width="1283pt" height="260pt"
 viewBox="0.00 0.00 1283.09 260.00" xmlns="http://www.w3.org/2000/svg" xmlns:xlink="http://www.w3.org/1999/xlink">
<g id="graph0" class="graph" transform="scale(1 1) rotate(0) translate(4 256)">
<title>%3</title>
<polygon fill="#ffffff" stroke="transparent" points="-4,4 -4,-256 1279.0946,-256 1279.0946,4 -4,4"/>
<!-- 174 -->
<g id="node1" class="node">
<title>174</title>
<ellipse fill="none" stroke="#000000" cx="825.5975" cy="-90" rx="27" ry="18"/>
<text text-anchor="middle" x="825.5975" y="-86.3" font-family="Times,serif" font-size="14.00" fill="#000000">174</text>
</g>
<!-- 209 -->
<g id="node2" class="node">
<title>209</title>
<ellipse fill="none" stroke="#000000" cx="492.5975" cy="-18" rx="27" ry="18"/>
<text text-anchor="middle" x="492.5975" y="-14.3" font-family="Times,serif" font-size="14.00" fill="#000000">209</text>
</g>
<!-- 174&#45;&gt;209 -->
<g id="edge1" class="edge">
<title>174&#45;&gt;209</title>
<path fill="none" stroke="#000000" d="M798.7465,-87.6896C745.8784,-82.5844 625.0512,-68.1513 528.5975,-36 526.7082,-35.3702 524.7933,-34.6576 522.8821,-33.8883"/>
<polygon fill="#000000" stroke="#000000" points="524.0483,-30.576 513.4905,-29.6919 521.1926,-36.967 524.0483,-30.576"/>
</g>
<!-- 701 -->
<g id="node3" class="node">
<title>701</title>
<ellipse fill="none" stroke="#000000" cx="564.5975" cy="-18" rx="27" ry="18"/>
<text text-anchor="middle" x="564.5975" y="-14.3" font-family="Times,serif" font-size="14.00" fill="#000000">701</text>
</g>
<!-- 174&#45;&gt;701 -->
<g id="edge2" class="edge">
<title>174&#45;&gt;701</title>
<path fill="none" stroke="#000000" d="M799.0428,-85.6568C756.3623,-78.229 670.2311,-61.3864 600.5975,-36 598.7264,-35.3179 596.8258,-34.5645 594.9254,-33.7643"/>
<polygon fill="#000000" stroke="#000000" points="596.1127,-30.4587 585.5627,-29.4848 593.2027,-36.8252 596.1127,-30.4587"/>
</g>
<!-- 1239 -->
<g id="node4" class="node">
<title>1239</title>
<ellipse fill="none" stroke="#000000" cx="638.5975" cy="-18" rx="28.6953" ry="18"/>
<text text-anchor="middle" x="638.5975" y="-14.3" font-family="Times,serif" font-size="14.00" fill="#000000">1239</text>
</g>
<!-- 174&#45;&gt;1239 -->
<g id="edge3" class="edge">
<title>174&#45;&gt;1239</title>
<path fill="none" stroke="#000000" d="M801.1285,-82.0906C771.1777,-72.2041 719.0782,-54.3407 675.5975,-36 673.9685,-35.3129 672.3086,-34.5904 670.6391,-33.8457"/>
<polygon fill="#000000" stroke="#000000" points="671.6636,-30.4629 661.1191,-29.4315 668.7189,-36.8134 671.6636,-30.4629"/>
</g>
<!-- 1273 -->
<g id="node5" class="node">
<title>1273</title>
<ellipse fill="none" stroke="#000000" cx="713.5975" cy="-18" rx="28.6953" ry="18"/>
<text text-anchor="middle" x="713.5975" y="-14.3" font-family="Times,serif" font-size="14.00" fill="#000000">1273</text>
</g>
<!-- 174&#45;&gt;1273 -->
<g id="edge4" class="edge">
<title>174&#45;&gt;1273</title>
<path fill="none" stroke="#000000" d="M806.0886,-77.4586C788.4,-66.0873 762.1079,-49.1853 742.0725,-36.3053"/>
<polygon fill="#000000" stroke="#000000" points="743.9414,-33.346 733.637,-30.8825 740.1561,-39.2343 743.9414,-33.346"/>
</g>
<!-- 1299 -->
<g id="node6" class="node">
<title>1299</title>
<ellipse fill="none" stroke="#000000" cx="788.5975" cy="-18" rx="28.6953" ry="18"/>
<text text-anchor="middle" x="788.5975" y="-14.3" font-family="Times,serif" font-size="14.00" fill="#000000">1299</text>
</g>
<!-- 174&#45;&gt;1299 -->
<g id="edge5" class="edge">
<title>174&#45;&gt;1299</title>
<path fill="none" stroke="#000000" d="M816.829,-72.937C812.4695,-64.4537 807.1022,-54.0092 802.2222,-44.513"/>
<polygon fill="#000000" stroke="#000000" points="805.2438,-42.7352 797.56,-35.4407 799.0178,-45.9348 805.2438,-42.7352"/>
</g>
<!-- 3491 -->
<g id="node10" class="node">
<title>3491</title>
<ellipse fill="none" stroke="#000000" cx="863.5975" cy="-18" rx="28.6953" ry="18"/>
<text text-anchor="middle" x="863.5975" y="-14.3" font-family="Times,serif" font-size="14.00" fill="#000000">3491</text>
</g>
<!-- 174&#45;&gt;3491 -->
<g id="edge6" class="edge">
<title>174&#45;&gt;3491</title>
<path fill="none" stroke="#000000" d="M834.6029,-72.937C839.0802,-64.4537 844.5926,-54.0092 849.6045,-44.513"/>
<polygon fill="#000000" stroke="#000000" points="852.8204,-45.9182 854.3927,-35.4407 846.6297,-42.6509 852.8204,-45.9182"/>
</g>
<!-- 5511 -->
<g id="node13" class="node">
<title>5511</title>
<ellipse fill="none" stroke="#000000" cx="938.5975" cy="-18" rx="28.6953" ry="18"/>
<text text-anchor="middle" x="938.5975" y="-14.3" font-family="Times,serif" font-size="14.00" fill="#000000">5511</text>
</g>
<!-- 174&#45;&gt;5511 -->
<g id="edge7" class="edge">
<title>174&#45;&gt;5511</title>
<path fill="none" stroke="#000000" d="M845.2806,-77.4586C863.1271,-66.0873 889.6539,-49.1853 909.8682,-36.3053"/>
<polygon fill="#000000" stroke="#000000" points="911.8262,-39.2079 918.379,-30.8825 908.0647,-33.3044 911.8262,-39.2079"/>
</g>
<!-- 6453 -->
<g id="node14" class="node">
<title>6453</title>
<ellipse fill="none" stroke="#000000" cx="1013.5975" cy="-18" rx="28.6953" ry="18"/>
<text text-anchor="middle" x="1013.5975" y="-14.3" font-family="Times,serif" font-size="14.00" fill="#000000">6453</text>
</g>
<!-- 174&#45;&gt;6453 -->
<g id="edge8" class="edge">
<title>174&#45;&gt;6453</title>
<path fill="none" stroke="#000000" d="M847.0413,-78.5764C851.7711,-76.2552 856.8022,-73.9349 861.5975,-72 911.2638,-51.96 926.823,-55.7698 976.5975,-36 978.2406,-35.3474 979.9118,-34.6527 981.5904,-33.9302"/>
<polygon fill="#000000" stroke="#000000" points="983.4859,-36.9132 991.1395,-29.587 980.5877,-30.5413 983.4859,-36.9132"/>
</g>
<!-- 6461 -->
<g id="node15" class="node">
<title>6461</title>
<ellipse fill="none" stroke="#000000" cx="1088.5975" cy="-18" rx="28.6953" ry="18"/>
<text text-anchor="middle" x="1088.5975" y="-14.3" font-family="Times,serif" font-size="14.00" fill="#000000">6461</text>
</g>
<!-- 174&#45;&gt;6461 -->
<g id="edge9" class="edge">
<title>174&#45;&gt;6461</title>
<path fill="none" stroke="#000000" d="M846.4997,-78.3357C851.3485,-75.9743 856.5656,-73.698 861.5975,-72 943.0327,-44.5197 970.0141,-63.0373 1051.5975,-36 1053.4791,-35.3764 1055.3876,-34.6765 1057.295,-33.9242"/>
<polygon fill="#000000" stroke="#000000" points="1058.9195,-37.0344 1066.6934,-29.836 1056.1272,-30.6154 1058.9195,-37.0344"/>
</g>
<!-- 7018 -->
<g id="node17" class="node">
<title>7018</title>
<ellipse fill="none" stroke="#000000" cx="1163.5975" cy="-18" rx="28.6953" ry="18"/>
<text text-anchor="middle" x="1163.5975" y="-14.3" font-family="Times,serif" font-size="14.00" fill="#000000">7018</text>
</g>
<!-- 174&#45;&gt;7018 -->
<g id="edge10" class="edge">
<title>174&#45;&gt;7018</title>
<path fill="none" stroke="#000000" d="M846.4365,-78.14C851.2886,-75.7887 856.523,-73.566 861.5975,-72 975.1717,-36.9501 1012.8344,-70.4322 1126.5975,-36 1128.4948,-35.4258 1130.4155,-34.7645 1132.3323,-34.0418"/>
<polygon fill="#000000" stroke="#000000" points="1133.923,-37.1688 1141.7566,-30.0355 1131.1843,-30.7268 1133.923,-37.1688"/>
</g>
<!-- 40068 -->
<g id="node26" class="node">
<title>40068</title>
<ellipse fill="none" stroke="#000000" cx="1242.5975" cy="-18" rx="32.4942" ry="18"/>
<text text-anchor="middle" x="1242.5975" y="-14.3" font-family="Times,serif" font-size="14.00" fill="#000000">40068</text>
</g>
<!-- 174&#45;&gt;40068 -->
<g id="edge11" class="edge">
<title>174&#45;&gt;40068</title>
<path fill="none" stroke="#000000" d="M846.0207,-78.2141C850.9808,-75.7989 856.3662,-73.5302 861.5975,-72 1007.442,-29.3394 1054.7329,-75.0046 1201.5975,-36 1204.0299,-35.354 1206.5029,-34.5835 1208.9671,-33.7303"/>
<polygon fill="#000000" stroke="#000000" points="1210.256,-36.9846 1218.3249,-30.1185 1207.7353,-30.4542 1210.256,-36.9846"/>
</g>
<!-- 2914 -->
<g id="node7" class="node">
<title>2914</title>
<ellipse fill="none" stroke="#000000" cx="28.5975" cy="-18" rx="28.6953" ry="18"/>
<text text-anchor="middle" x="28.5975" y="-14.3" font-family="Times,serif" font-size="14.00" fill="#000000">2914</text>
</g>
<!-- 3257 -->
<g id="node8" class="node">
<title>3257</title>
<ellipse fill="none" stroke="#000000" cx="336.5975" cy="-18" rx="28.6953" ry="18"/>
<text text-anchor="middle" x="336.5975" y="-14.3" font-family="Times,serif" font-size="14.00" fill="#000000">3257</text>
</g>
<!-- 3356 -->
<g id="node9" class="node">
<title>3356</title>
<ellipse fill="none" stroke="#000000" cx="103.5975" cy="-18" rx="28.6953" ry="18"/>
<text text-anchor="middle" x="103.5975" y="-14.3" font-family="Times,serif" font-size="14.00" fill="#000000">3356</text>
</g>
<!-- 3549 -->
<g id="node11" class="node">
<title>3549</title>
<ellipse fill="none" stroke="#000000" cx="178.5975" cy="-90" rx="28.6953" ry="18"/>
<text text-anchor="middle" x="178.5975" y="-86.3" font-family="Times,serif" font-size="14.00" fill="#000000">3549</text>
</g>
<!-- 3549&#45;&gt;2914 -->
<g id="edge12" class="edge">
<title>3549&#45;&gt;2914</title>
<path fill="none" stroke="#000000" d="M155.634,-79.084C132.7867,-68.2095 96.7379,-51.0151 65.5975,-36 64.0049,-35.2321 62.3745,-34.4445 60.7284,-33.6481"/>
<polygon fill="#000000" stroke="#000000" points="61.8085,-30.282 51.2835,-29.0674 58.7538,-36.5804 61.8085,-30.282"/>
</g>
<!-- 3549&#45;&gt;3356 -->
<g id="edge13" class="edge">
<title>3549&#45;&gt;3356</title>
<path fill="none" stroke="#000000" d="M162.6919,-74.7307C152.2512,-64.7075 138.4226,-51.4321 126.7677,-40.2434"/>
<polygon fill="#000000" stroke="#000000" points="129.1179,-37.6478 119.4801,-33.2473 124.2701,-42.6976 129.1179,-37.6478"/>
</g>
<!-- 6762 -->
<g id="node16" class="node">
<title>6762</title>
<ellipse fill="none" stroke="#000000" cx="178.5975" cy="-18" rx="28.6953" ry="18"/>
<text text-anchor="middle" x="178.5975" y="-14.3" font-family="Times,serif" font-size="14.00" fill="#000000">6762</text>
</g>
<!-- 3549&#45;&gt;6762 -->
<g id="edge14" class="edge">
<title>3549&#45;&gt;6762</title>
<path fill="none" stroke="#000000" d="M178.5975,-71.8314C178.5975,-64.131 178.5975,-54.9743 178.5975,-46.4166"/>
<polygon fill="#000000" stroke="#000000" points="182.0976,-46.4132 178.5975,-36.4133 175.0976,-46.4133 182.0976,-46.4132"/>
</g>
<!-- 12956 -->
<g id="node22" class="node">
<title>12956</title>
<ellipse fill="none" stroke="#000000" cx="257.5975" cy="-18" rx="32.4942" ry="18"/>
<text text-anchor="middle" x="257.5975" y="-14.3" font-family="Times,serif" font-size="14.00" fill="#000000">12956</text>
</g>
<!-- 3549&#45;&gt;12956 -->
<g id="edge15" class="edge">
<title>3549&#45;&gt;12956</title>
<path fill="none" stroke="#000000" d="M194.9663,-75.0816C205.9401,-65.0801 220.5916,-51.7269 232.9644,-40.4504"/>
<polygon fill="#000000" stroke="#000000" points="235.6712,-42.719 240.7045,-33.3961 230.9559,-37.5453 235.6712,-42.719"/>
</g>
<!-- 4270 -->
<g id="node12" class="node">
<title>4270</title>
<ellipse fill="none" stroke="#000000" cx="375.5975" cy="-162" rx="28.6953" ry="18"/>
<text text-anchor="middle" x="375.5975" y="-158.3" font-family="Times,serif" font-size="14.00" fill="#000000">4270</text>
</g>
<!-- 4270&#45;&gt;3549 -->
<g id="edge16" class="edge">
<title>4270&#45;&gt;3549</title>
<path fill="none" stroke="#000000" d="M350.6473,-152.8812C315.7139,-140.1136 252.1053,-116.8658 212.7859,-102.4953"/>
<polygon fill="#000000" stroke="#000000" points="213.9389,-99.1903 203.3451,-99.0448 211.5359,-105.7649 213.9389,-99.1903"/>
</g>
<!-- 7303 -->
<g id="node19" class="node">
<title>7303</title>
<ellipse fill="none" stroke="#000000" cx="375.5975" cy="-90" rx="28.6953" ry="18"/>
<text text-anchor="middle" x="375.5975" y="-86.3" font-family="Times,serif" font-size="14.00" fill="#000000">7303</text>
</g>
<!-- 4270&#45;&gt;7303 -->
<g id="edge17" class="edge">
<title>4270&#45;&gt;7303</title>
<path fill="none" stroke="#000000" d="M375.5975,-143.8314C375.5975,-136.131 375.5975,-126.9743 375.5975,-118.4166"/>
<polygon fill="#000000" stroke="#000000" points="379.0976,-118.4132 375.5975,-108.4133 372.0976,-118.4133 379.0976,-118.4132"/>
</g>
<!-- 7049 -->
<g id="node18" class="node">
<title>7049</title>
<ellipse fill="none" stroke="#000000" cx="902.5975" cy="-162" rx="28.6953" ry="18"/>
<text text-anchor="middle" x="902.5975" y="-158.3" font-family="Times,serif" font-size="14.00" fill="#000000">7049</text>
</g>
<!-- 7049&#45;&gt;174 -->
<g id="edge18" class="edge">
<title>7049&#45;&gt;174</title>
<path fill="none" stroke="#000000" d="M886.2677,-146.7307C875.4037,-136.5721 860.9669,-123.0727 848.9017,-111.791"/>
<polygon fill="#000000" stroke="#000000" points="851.0718,-109.0284 841.377,-104.7549 846.2908,-114.1414 851.0718,-109.0284"/>
</g>
<!-- 11058 -->
<g id="node21" class="node">
<title>11058</title>
<ellipse fill="none" stroke="#000000" cx="902.5975" cy="-90" rx="32.4942" ry="18"/>
<text text-anchor="middle" x="902.5975" y="-86.3" font-family="Times,serif" font-size="14.00" fill="#000000">11058</text>
</g>
<!-- 7049&#45;&gt;11058 -->
<g id="edge19" class="edge">
<title>7049&#45;&gt;11058</title>
<path fill="none" stroke="#000000" d="M902.5975,-143.8314C902.5975,-136.131 902.5975,-126.9743 902.5975,-118.4166"/>
<polygon fill="#000000" stroke="#000000" points="906.0976,-118.4132 902.5975,-108.4133 899.0976,-118.4133 906.0976,-118.4132"/>
</g>
<!-- 22927 -->
<g id="node23" class="node">
<title>22927</title>
<ellipse fill="none" stroke="#000000" cx="985.5975" cy="-90" rx="32.4942" ry="18"/>
<text text-anchor="middle" x="985.5975" y="-86.3" font-family="Times,serif" font-size="14.00" fill="#000000">22927</text>
</g>
<!-- 7049&#45;&gt;22927 -->
<g id="edge20" class="edge">
<title>7049&#45;&gt;22927</title>
<path fill="none" stroke="#000000" d="M919.3938,-147.4297C931.0835,-137.2892 946.8848,-123.5821 960.1185,-112.1023"/>
<polygon fill="#000000" stroke="#000000" points="962.7063,-114.4908 967.9667,-105.2941 958.1193,-109.2031 962.7063,-114.4908"/>
</g>
<!-- 27986 -->
<g id="node25" class="node">
<title>27986</title>
<ellipse fill="none" stroke="#000000" cx="1068.5975" cy="-90" rx="32.4942" ry="18"/>
<text text-anchor="middle" x="1068.5975" y="-86.3" font-family="Times,serif" font-size="14.00" fill="#000000">27986</text>
</g>
<!-- 7049&#45;&gt;27986 -->
<g id="edge21" class="edge">
<title>7049&#45;&gt;27986</title>
<path fill="none" stroke="#000000" d="M926.3812,-151.6842C954.4107,-139.5268 1001.24,-119.2153 1033.4565,-105.2419"/>
<polygon fill="#000000" stroke="#000000" points="1035.1671,-108.315 1042.9486,-101.1248 1032.3816,-101.8931 1035.1671,-108.315"/>
</g>
<!-- 7303&#45;&gt;3257 -->
<g id="edge22" class="edge">
<title>7303&#45;&gt;3257</title>
<path fill="none" stroke="#000000" d="M366.355,-72.937C361.7599,-64.4537 356.1024,-54.0092 350.9587,-44.513"/>
<polygon fill="#000000" stroke="#000000" points="353.8849,-42.5666 346.0445,-35.4407 347.7299,-45.9006 353.8849,-42.5666"/>
</g>
<!-- 10481 -->
<g id="node20" class="node">
<title>10481</title>
<ellipse fill="none" stroke="#000000" cx="415.5975" cy="-18" rx="32.4942" ry="18"/>
<text text-anchor="middle" x="415.5975" y="-14.3" font-family="Times,serif" font-size="14.00" fill="#000000">10481</text>
</g>
<!-- 7303&#45;&gt;10481 -->
<g id="edge23" class="edge">
<title>7303&#45;&gt;10481</title>
<path fill="none" stroke="#000000" d="M385.0769,-72.937C389.8389,-64.3654 395.7134,-53.7914 401.0327,-44.2165"/>
<polygon fill="#000000" stroke="#000000" points="404.1113,-45.882 405.9082,-35.4407 397.9922,-42.4825 404.1113,-45.882"/>
</g>
<!-- 27883 -->
<g id="node24" class="node">
<title>27883</title>
<ellipse fill="none" stroke="#000000" cx="639.5975" cy="-234" rx="32.4942" ry="18"/>
<text text-anchor="middle" x="639.5975" y="-230.3" font-family="Times,serif" font-size="14.00" fill="#000000">27883</text>
</g>
<!-- 27883&#45;&gt;4270 -->
<g id="edge24" class="edge">
<title>27883&#45;&gt;4270</title>
<path fill="none" stroke="#000000" d="M610.3362,-226.0196C561.8805,-212.8045 465.0866,-186.4061 412.1878,-171.9792"/>
<polygon fill="#000000" stroke="#000000" points="412.7892,-168.5154 402.2207,-169.2609 410.9474,-175.2688 412.7892,-168.5154"/>
</g>
<!-- 27883&#45;&gt;7049 -->
<g id="edge25" class="edge">
<title>27883&#45;&gt;7049</title>
<path fill="none" stroke="#000000" d="M668.7479,-226.0196C717.02,-212.8045 813.4473,-186.4061 866.1457,-171.9792"/>
<polygon fill="#000000" stroke="#000000" points="867.3542,-175.2772 876.0751,-169.2609 865.5058,-168.5256 867.3542,-175.2772"/>
</g>
</g>
</svg>
