<?xml version="1.0" encoding="UTF-8" standalone="no"?>
<!DOCTYPE svg PUBLIC "-//W3C//DTD SVG 1.1//EN"
 "http://www.w3.org/Graphics/SVG/1.1/DTD/svg11.dtd">
<!-- Generated by graphviz version 2.40.1 (20161225.0304)
 -->
<!-- Title: %3 Pages: 1 -->
<svg width="567pt" height="585pt"
 viewBox="0.00 0.00 566.89 585.06" xmlns="http://www.w3.org/2000/svg" xmlns:xlink="http://www.w3.org/1999/xlink">
<g id="graph0" class="graph" transform="scale(1 1) rotate(0) translate(4 581.0641)">
<title>%3</title>
<polygon fill="#ffffff" stroke="transparent" points="-4,4 -4,-581.0641 562.8895,-581.0641 562.8895,4 -4,4"/>
<!-- 174 -->
<g id="node1" class="node">
<title>174</title>
<ellipse fill="none" stroke="#000000" cx="120.5943" cy="-204.3923" rx="27" ry="18"/>
<text text-anchor="middle" x="120.5943" y="-200.6923" font-family="Times,serif" font-size="14.00" fill="#000000">174</text>
</g>
<!-- 209 -->
<g id="node2" class="node">
<title>209</title>
<ellipse fill="none" stroke="#000000" cx="182.3024" cy="-559.0641" rx="27" ry="18"/>
<text text-anchor="middle" x="182.3024" y="-555.3641" font-family="Times,serif" font-size="14.00" fill="#000000">209</text>
</g>
<!-- 174&#45;&gt;209 -->
<g id="edge1" class="edge">
<title>174&#45;&gt;209</title>
<path fill="none" stroke="#000000" d="M123.7392,-222.4681C133.7872,-280.2196 165.169,-460.5883 177.3756,-530.7466"/>
<polygon fill="#000000" stroke="#000000" points="174.0014,-531.7727 179.1638,-541.0247 180.8978,-530.5727 174.0014,-531.7727"/>
</g>
<!-- 701 -->
<g id="node3" class="node">
<title>701</title>
<ellipse fill="none" stroke="#000000" cx="109.405" cy="-506.101" rx="27" ry="18"/>
<text text-anchor="middle" x="109.405" y="-502.401" font-family="Times,serif" font-size="14.00" fill="#000000">701</text>
</g>
<!-- 174&#45;&gt;701 -->
<g id="edge2" class="edge">
<title>174&#45;&gt;701</title>
<path fill="none" stroke="#000000" d="M119.9112,-222.8114C118.0223,-273.7441 112.7191,-416.7385 110.453,-477.8404"/>
<polygon fill="#000000" stroke="#000000" points="106.9522,-477.8001 110.0791,-487.923 113.9474,-478.0596 106.9522,-477.8001"/>
</g>
<!-- 1239 -->
<g id="node4" class="node">
<title>1239</title>
<ellipse fill="none" stroke="#000000" cx="56.4418" cy="-433.2035" rx="28.6953" ry="18"/>
<text text-anchor="middle" x="56.4418" y="-429.5035" font-family="Times,serif" font-size="14.00" fill="#000000">1239</text>
</g>
<!-- 174&#45;&gt;1239 -->
<g id="edge3" class="edge">
<title>174&#45;&gt;1239</title>
<path fill="none" stroke="#000000" d="M115.5604,-222.3467C104.4112,-262.1121 77.5707,-357.8435 64.234,-405.4113"/>
<polygon fill="#000000" stroke="#000000" points="60.782,-404.7589 61.4524,-415.3325 67.5221,-406.6487 60.782,-404.7589"/>
</g>
<!-- 1273 -->
<g id="node5" class="node">
<title>1273</title>
<ellipse fill="none" stroke="#000000" cx="28.5975" cy="-347.5074" rx="28.6953" ry="18"/>
<text text-anchor="middle" x="28.5975" y="-343.8074" font-family="Times,serif" font-size="14.00" fill="#000000">1273</text>
</g>
<!-- 174&#45;&gt;1273 -->
<g id="edge4" class="edge">
<title>174&#45;&gt;1273</title>
<path fill="none" stroke="#000000" d="M109.861,-221.0895C93.882,-245.9473 63.7136,-292.8788 44.9695,-322.0381"/>
<polygon fill="#000000" stroke="#000000" points="42.0107,-320.1684 39.5475,-330.4729 47.8991,-323.9535 42.0107,-320.1684"/>
</g>
<!-- 1299 -->
<g id="node6" class="node">
<title>1299</title>
<ellipse fill="none" stroke="#000000" cx="28.5975" cy="-257.4011" rx="28.6953" ry="18"/>
<text text-anchor="middle" x="28.5975" y="-253.7011" font-family="Times,serif" font-size="14.00" fill="#000000">1299</text>
</g>
<!-- 174&#45;&gt;1299 -->
<g id="edge5" class="edge">
<title>174&#45;&gt;1299</title>
<path fill="none" stroke="#000000" d="M99.7188,-216.4208C87.5721,-223.4198 72.0538,-232.3615 58.6141,-240.1054"/>
<polygon fill="#000000" stroke="#000000" points="56.626,-237.2115 49.7088,-245.2367 60.1208,-243.2767 56.626,-237.2115"/>
</g>
<!-- 3491 -->
<g id="node10" class="node">
<title>3491</title>
<ellipse fill="none" stroke="#000000" cx="56.4418" cy="-171.705" rx="28.6953" ry="18"/>
<text text-anchor="middle" x="56.4418" y="-168.005" font-family="Times,serif" font-size="14.00" fill="#000000">3491</text>
</g>
<!-- 174&#45;&gt;3491 -->
<g id="edge6" class="edge">
<title>174&#45;&gt;3491</title>
<path fill="none" stroke="#000000" d="M98.8752,-193.3259C95.3765,-191.5432 91.6937,-189.6667 88.0196,-187.7946"/>
<polygon fill="#000000" stroke="#000000" points="89.5135,-184.6277 79.0145,-183.2063 86.3356,-190.8648 89.5135,-184.6277"/>
</g>
<!-- 5511 -->
<g id="node13" class="node">
<title>5511</title>
<ellipse fill="none" stroke="#000000" cx="109.405" cy="-98.8075" rx="28.6953" ry="18"/>
<text text-anchor="middle" x="109.405" y="-95.1075" font-family="Times,serif" font-size="14.00" fill="#000000">5511</text>
</g>
<!-- 174&#45;&gt;5511 -->
<g id="edge7" class="edge">
<title>174&#45;&gt;5511</title>
<path fill="none" stroke="#000000" d="M118.6453,-186.0008C116.9204,-169.7252 114.3768,-145.723 112.3947,-127.0198"/>
<polygon fill="#000000" stroke="#000000" points="115.8661,-126.5636 111.3317,-116.9882 108.9051,-127.3014 115.8661,-126.5636"/>
</g>
<!-- 6453 -->
<g id="node14" class="node">
<title>6453</title>
<ellipse fill="none" stroke="#000000" cx="182.3024" cy="-45.8444" rx="28.6953" ry="18"/>
<text text-anchor="middle" x="182.3024" y="-42.1444" font-family="Times,serif" font-size="14.00" fill="#000000">6453</text>
</g>
<!-- 174&#45;&gt;6453 -->
<g id="edge8" class="edge">
<title>174&#45;&gt;6453</title>
<path fill="none" stroke="#000000" d="M127.4339,-186.8191C138.1835,-159.2001 159.1106,-105.4315 171.7843,-72.8687"/>
<polygon fill="#000000" stroke="#000000" points="175.0667,-74.0848 175.4322,-63.4963 168.5434,-71.5458 175.0667,-74.0848"/>
</g>
<!-- 6461 -->
<g id="node15" class="node">
<title>6461</title>
<ellipse fill="none" stroke="#000000" cx="267.9986" cy="-18" rx="28.6953" ry="18"/>
<text text-anchor="middle" x="267.9986" y="-14.3" font-family="Times,serif" font-size="14.00" fill="#000000">6461</text>
</g>
<!-- 174&#45;&gt;6461 -->
<g id="edge9" class="edge">
<title>174&#45;&gt;6461</title>
<path fill="none" stroke="#000000" d="M133.4176,-188.1773C159.335,-155.4048 218.0805,-81.1213 248.6692,-42.4419"/>
<polygon fill="#000000" stroke="#000000" points="251.6422,-44.325 255.1,-34.3103 246.1516,-39.9829 251.6422,-44.325"/>
</g>
<!-- 7018 -->
<g id="node17" class="node">
<title>7018</title>
<ellipse fill="none" stroke="#000000" cx="358.1048" cy="-18" rx="28.6953" ry="18"/>
<text text-anchor="middle" x="358.1048" y="-14.3" font-family="Times,serif" font-size="14.00" fill="#000000">7018</text>
</g>
<!-- 174&#45;&gt;7018 -->
<g id="edge10" class="edge">
<title>174&#45;&gt;7018</title>
<path fill="none" stroke="#000000" d="M138.4462,-190.3826C179.9691,-157.7964 283.195,-76.7874 331.8896,-38.573"/>
<polygon fill="#000000" stroke="#000000" points="334.3398,-41.0993 340.0458,-32.1723 330.0182,-35.5926 334.3398,-41.0993"/>
</g>
<!-- 40068 -->
<g id="node26" class="node">
<title>40068</title>
<ellipse fill="none" stroke="#000000" cx="443.801" cy="-45.8444" rx="32.4942" ry="18"/>
<text text-anchor="middle" x="443.801" y="-42.1444" font-family="Times,serif" font-size="14.00" fill="#000000">40068</text>
</g>
<!-- 174&#45;&gt;40068 -->
<g id="edge11" class="edge">
<title>174&#45;&gt;40068</title>
<path fill="none" stroke="#000000" d="M142.5555,-193.6193C197.9425,-166.4494 343.6213,-94.9872 409.9905,-62.43"/>
<polygon fill="#000000" stroke="#000000" points="411.7505,-65.4651 419.1871,-57.9186 408.6676,-59.1805 411.7505,-65.4651"/>
</g>
<!-- 2914 -->
<g id="node7" class="node">
<title>2914</title>
<ellipse fill="none" stroke="#000000" cx="455.2788" cy="-324.9808" rx="28.6953" ry="18"/>
<text text-anchor="middle" x="455.2788" y="-321.2808" font-family="Times,serif" font-size="14.00" fill="#000000">2914</text>
</g>
<!-- 3257 -->
<g id="node8" class="node">
<title>3257</title>
<ellipse fill="none" stroke="#000000" cx="335.5783" cy="-444.6814" rx="28.6953" ry="18"/>
<text text-anchor="middle" x="335.5783" y="-440.9814" font-family="Times,serif" font-size="14.00" fill="#000000">3257</text>
</g>
<!-- 3356 -->
<g id="node9" class="node">
<title>3356</title>
<ellipse fill="none" stroke="#000000" cx="441.3566" cy="-367.8289" rx="28.6953" ry="18"/>
<text text-anchor="middle" x="441.3566" y="-364.1289" font-family="Times,serif" font-size="14.00" fill="#000000">3356</text>
</g>
<!-- 3549 -->
<g id="node11" class="node">
<title>3549</title>
<ellipse fill="none" stroke="#000000" cx="371.3009" cy="-344.7748" rx="28.6953" ry="18"/>
<text text-anchor="middle" x="371.3009" y="-341.0748" font-family="Times,serif" font-size="14.00" fill="#000000">3549</text>
</g>
<!-- 3549&#45;&gt;2914 -->
<g id="edge12" class="edge">
<title>3549&#45;&gt;2914</title>
<path fill="none" stroke="#000000" d="M398.3343,-338.4029C404.7773,-336.8842 411.7608,-335.2382 418.5572,-333.6363"/>
<polygon fill="#000000" stroke="#000000" points="419.3658,-337.0417 428.2961,-331.3408 417.7598,-330.2284 419.3658,-337.0417"/>
</g>
<!-- 3549&#45;&gt;3356 -->
<g id="edge13" class="edge">
<title>3549&#45;&gt;3356</title>
<path fill="none" stroke="#000000" d="M396.9893,-353.2284C399.94,-354.1994 402.9862,-355.2018 406.0353,-356.2052"/>
<polygon fill="#000000" stroke="#000000" points="405.0784,-359.5749 415.6714,-359.3763 407.2666,-352.9257 405.0784,-359.5749"/>
</g>
<!-- 6762 -->
<g id="node16" class="node">
<title>6762</title>
<ellipse fill="none" stroke="#000000" cx="414.8751" cy="-404.2776" rx="28.6953" ry="18"/>
<text text-anchor="middle" x="414.8751" y="-400.5776" font-family="Times,serif" font-size="14.00" fill="#000000">6762</text>
</g>
<!-- 3549&#45;&gt;6762 -->
<g id="edge14" class="edge">
<title>3549&#45;&gt;6762</title>
<path fill="none" stroke="#000000" d="M383.4388,-361.3496C387.5938,-367.0236 392.3356,-373.4988 396.8545,-379.6695"/>
<polygon fill="#000000" stroke="#000000" points="394.0703,-381.7915 402.8023,-387.7916 399.7179,-377.6557 394.0703,-381.7915"/>
</g>
<!-- 12956 -->
<g id="node22" class="node">
<title>12956</title>
<ellipse fill="none" stroke="#000000" cx="378.4263" cy="-430.7592" rx="32.4942" ry="18"/>
<text text-anchor="middle" x="378.4263" y="-427.0592" font-family="Times,serif" font-size="14.00" fill="#000000">12956</text>
</g>
<!-- 3549&#45;&gt;12956 -->
<g id="edge15" class="edge">
<title>3549&#45;&gt;12956</title>
<path fill="none" stroke="#000000" d="M372.812,-363.0099C373.7567,-374.4097 374.9934,-389.3325 376.0655,-402.2704"/>
<polygon fill="#000000" stroke="#000000" points="372.6034,-402.8736 376.9174,-412.5504 379.5795,-402.2955 372.6034,-402.8736"/>
</g>
<!-- 4270 -->
<g id="node12" class="node">
<title>4270</title>
<ellipse fill="none" stroke="#000000" cx="313.0517" cy="-302.4542" rx="28.6953" ry="18"/>
<text text-anchor="middle" x="313.0517" y="-298.7542" font-family="Times,serif" font-size="14.00" fill="#000000">4270</text>
</g>
<!-- 4270&#45;&gt;3549 -->
<g id="edge16" class="edge">
<title>4270&#45;&gt;3549</title>
<path fill="none" stroke="#000000" d="M331.8028,-316.0777C335.6732,-318.8897 339.8247,-321.906 343.9296,-324.8884"/>
<polygon fill="#000000" stroke="#000000" points="342.0377,-327.84 352.1851,-330.8863 346.1522,-322.1769 342.0377,-327.84"/>
</g>
<!-- 7303 -->
<g id="node19" class="node">
<title>7303</title>
<ellipse fill="none" stroke="#000000" cx="313.0517" cy="-374.4542" rx="28.6953" ry="18"/>
<text text-anchor="middle" x="313.0517" y="-370.7542" font-family="Times,serif" font-size="14.00" fill="#000000">7303</text>
</g>
<!-- 4270&#45;&gt;7303 -->
<g id="edge17" class="edge">
<title>4270&#45;&gt;7303</title>
<path fill="none" stroke="#000000" d="M313.0517,-320.6229C313.0517,-328.3233 313.0517,-337.4799 313.0517,-346.0376"/>
<polygon fill="#000000" stroke="#000000" points="309.5518,-346.0409 313.0517,-356.041 316.5518,-346.041 309.5518,-346.0409"/>
</g>
<!-- 7049 -->
<g id="node18" class="node">
<title>7049</title>
<ellipse fill="none" stroke="#000000" cx="228.4106" cy="-185.9558" rx="28.6953" ry="18"/>
<text text-anchor="middle" x="228.4106" y="-182.2558" font-family="Times,serif" font-size="14.00" fill="#000000">7049</text>
</g>
<!-- 7049&#45;&gt;174 -->
<g id="edge18" class="edge">
<title>7049&#45;&gt;174</title>
<path fill="none" stroke="#000000" d="M200.6452,-190.7037C187.2902,-192.9873 171.1107,-195.754 156.8025,-198.2007"/>
<polygon fill="#000000" stroke="#000000" points="156.0487,-194.7787 146.7818,-199.9143 157.2287,-201.6786 156.0487,-194.7787"/>
</g>
<!-- 11058 -->
<g id="node21" class="node">
<title>11058</title>
<ellipse fill="none" stroke="#000000" cx="465.7868" cy="-149.7192" rx="32.4942" ry="18"/>
<text text-anchor="middle" x="465.7868" y="-146.0192" font-family="Times,serif" font-size="14.00" fill="#000000">11058</text>
</g>
<!-- 7049&#45;&gt;11058 -->
<g id="edge19" class="edge">
<title>7049&#45;&gt;11058</title>
<path fill="none" stroke="#000000" d="M256.5729,-181.6567C298.1054,-175.3166 376.0487,-163.4181 424.1829,-156.0702"/>
<polygon fill="#000000" stroke="#000000" points="424.9135,-159.4993 434.2708,-154.5302 423.8571,-152.5795 424.9135,-159.4993"/>
</g>
<!-- 22927 -->
<g id="node23" class="node">
<title>22927</title>
<ellipse fill="none" stroke="#000000" cx="505.5091" cy="-204.3923" rx="32.4942" ry="18"/>
<text text-anchor="middle" x="505.5091" y="-200.6923" font-family="Times,serif" font-size="14.00" fill="#000000">22927</text>
</g>
<!-- 7049&#45;&gt;22927 -->
<g id="edge20" class="edge">
<title>7049&#45;&gt;22927</title>
<path fill="none" stroke="#000000" d="M257.0214,-187.8594C305.9673,-191.116 406.0029,-197.7717 463.0929,-201.5702"/>
<polygon fill="#000000" stroke="#000000" points="463.0208,-205.073 473.2311,-202.2447 463.4855,-198.0885 463.0208,-205.073"/>
</g>
<!-- 27986 -->
<g id="node25" class="node">
<title>27986</title>
<ellipse fill="none" stroke="#000000" cx="526.3924" cy="-268.6644" rx="32.4942" ry="18"/>
<text text-anchor="middle" x="526.3924" y="-264.9644" font-family="Times,serif" font-size="14.00" fill="#000000">27986</text>
</g>
<!-- 7049&#45;&gt;27986 -->
<g id="edge21" class="edge">
<title>7049&#45;&gt;27986</title>
<path fill="none" stroke="#000000" d="M254.5934,-193.2231C307.194,-207.8231 425.9265,-240.7788 487.585,-257.8929"/>
<polygon fill="#000000" stroke="#000000" points="486.7589,-261.2959 497.3307,-260.598 488.6311,-254.5509 486.7589,-261.2959"/>
</g>
<!-- 7303&#45;&gt;3257 -->
<g id="edge22" class="edge">
<title>7303&#45;&gt;3257</title>
<path fill="none" stroke="#000000" d="M318.7361,-392.1755C321.1453,-399.6863 324.0101,-408.6174 326.6876,-416.9644"/>
<polygon fill="#000000" stroke="#000000" points="323.4301,-418.2684 329.8173,-426.7215 330.0956,-416.1303 323.4301,-418.2684"/>
</g>
<!-- 10481 -->
<g id="node20" class="node">
<title>10481</title>
<ellipse fill="none" stroke="#000000" cx="290.5251" cy="-444.6814" rx="32.4942" ry="18"/>
<text text-anchor="middle" x="290.5251" y="-440.9814" font-family="Times,serif" font-size="14.00" fill="#000000">10481</text>
</g>
<!-- 7303&#45;&gt;10481 -->
<g id="edge23" class="edge">
<title>7303&#45;&gt;10481</title>
<path fill="none" stroke="#000000" d="M307.3673,-392.1755C304.9581,-399.6863 302.0933,-408.6174 299.4158,-416.9644"/>
<polygon fill="#000000" stroke="#000000" points="296.0078,-416.1303 296.2861,-426.7215 302.6733,-418.2684 296.0078,-416.1303"/>
</g>
<!-- 27883 -->
<g id="node24" class="node">
<title>27883</title>
<ellipse fill="none" stroke="#000000" cx="270.7312" cy="-244.205" rx="32.4942" ry="18"/>
<text text-anchor="middle" x="270.7312" y="-240.505" font-family="Times,serif" font-size="14.00" fill="#000000">27883</text>
</g>
<!-- 27883&#45;&gt;4270 -->
<g id="edge24" class="edge">
<title>27883&#45;&gt;4270</title>
<path fill="none" stroke="#000000" d="M282.972,-261.0531C286.6887,-266.1687 290.8548,-271.9028 294.8743,-277.4352"/>
<polygon fill="#000000" stroke="#000000" points="292.2751,-279.8122 300.9845,-285.8452 297.9382,-275.6977 292.2751,-279.8122"/>
</g>
<!-- 27883&#45;&gt;7049 -->
<g id="edge25" class="edge">
<title>27883&#45;&gt;7049</title>
<path fill="none" stroke="#000000" d="M258.4903,-227.3569C254.7736,-222.2413 250.6075,-216.5072 246.588,-210.9748"/>
<polygon fill="#000000" stroke="#000000" points="249.1873,-208.5978 240.4778,-202.5649 243.5241,-212.7123 249.1873,-208.5978"/>
</g>
</g>
</svg>
