<?xml version="1.0" encoding="UTF-8" standalone="no"?>
<!DOCTYPE svg PUBLIC "-//W3C//DTD SVG 1.1//EN"
 "http://www.w3.org/Graphics/SVG/1.1/DTD/svg11.dtd">
<!-- Generated by graphviz version 2.40.1 (20161225.0304)
 -->
<!-- Title: %3 Pages: 1 -->
<svg width="1485pt" height="1916pt"
 viewBox="0.00 0.00 1484.64 1916.00" xmlns="http://www.w3.org/2000/svg" xmlns:xlink="http://www.w3.org/1999/xlink">
<g id="graph0" class="graph" transform="scale(1 1) rotate(0) translate(4 1912)">
<title>%3</title>
<polygon fill="#ffffff" stroke="transparent" points="-4,4 -4,-1912 1480.6442,-1912 1480.6442,4 -4,4"/>
<!-- 174 -->
<g id="node1" class="node">
<title>174</title>
<ellipse fill="none" stroke="#000000" cx="395.5975" cy="-1242" rx="27" ry="18"/>
<text text-anchor="middle" x="395.5975" y="-1238.3" font-family="Times,serif" font-size="14.00" fill="#000000">174</text>
</g>
<!-- 3491 -->
<g id="node19" class="node">
<title>3491</title>
<ellipse fill="none" stroke="#000000" cx="394.5975" cy="-1170" rx="28.6953" ry="18"/>
<text text-anchor="middle" x="394.5975" y="-1166.3" font-family="Times,serif" font-size="14.00" fill="#000000">3491</text>
</g>
<!-- 174&#45;&gt;3491 -->
<g id="edge1" class="edge">
<title>174&#45;&gt;3491</title>
<path fill="none" stroke="#000000" d="M395.3451,-1223.8314C395.2382,-1216.131 395.111,-1206.9743 394.9921,-1198.4166"/>
<polygon fill="#000000" stroke="#000000" points="398.4918,-1198.3637 394.8532,-1188.4133 391.4925,-1198.4609 398.4918,-1198.3637"/>
</g>
<!-- 209 -->
<g id="node2" class="node">
<title>209</title>
<ellipse fill="none" stroke="#000000" cx="494.5975" cy="-738" rx="27" ry="18"/>
<text text-anchor="middle" x="494.5975" y="-734.3" font-family="Times,serif" font-size="14.00" fill="#000000">209</text>
</g>
<!-- 3320 -->
<g id="node17" class="node">
<title>3320</title>
<ellipse fill="none" stroke="#000000" cx="494.5975" cy="-666" rx="28.6953" ry="18"/>
<text text-anchor="middle" x="494.5975" y="-662.3" font-family="Times,serif" font-size="14.00" fill="#000000">3320</text>
</g>
<!-- 209&#45;&gt;3320 -->
<g id="edge2" class="edge">
<title>209&#45;&gt;3320</title>
<path fill="none" stroke="#000000" d="M494.5975,-719.8314C494.5975,-712.131 494.5975,-702.9743 494.5975,-694.4166"/>
<polygon fill="#000000" stroke="#000000" points="498.0976,-694.4132 494.5975,-684.4133 491.0976,-694.4133 498.0976,-694.4132"/>
</g>
<!-- 3910 -->
<g id="node23" class="node">
<title>3910</title>
<ellipse fill="none" stroke="#000000" cx="569.5975" cy="-666" rx="28.6953" ry="18"/>
<text text-anchor="middle" x="569.5975" y="-662.3" font-family="Times,serif" font-size="14.00" fill="#000000">3910</text>
</g>
<!-- 209&#45;&gt;3910 -->
<g id="edge3" class="edge">
<title>209&#45;&gt;3910</title>
<path fill="none" stroke="#000000" d="M510.1375,-723.0816C520.6261,-713.0125 534.6534,-699.5463 546.4494,-688.2221"/>
<polygon fill="#000000" stroke="#000000" points="549.0293,-690.5973 553.8193,-681.147 544.1815,-685.5475 549.0293,-690.5973"/>
</g>
<!-- 701 -->
<g id="node3" class="node">
<title>701</title>
<ellipse fill="none" stroke="#000000" cx="394.5975" cy="-882" rx="27" ry="18"/>
<text text-anchor="middle" x="394.5975" y="-878.3" font-family="Times,serif" font-size="14.00" fill="#000000">701</text>
</g>
<!-- 703 -->
<g id="node4" class="node">
<title>703</title>
<ellipse fill="none" stroke="#000000" cx="357.5975" cy="-810" rx="27" ry="18"/>
<text text-anchor="middle" x="357.5975" y="-806.3" font-family="Times,serif" font-size="14.00" fill="#000000">703</text>
</g>
<!-- 701&#45;&gt;703 -->
<g id="edge4" class="edge">
<title>701&#45;&gt;703</title>
<path fill="none" stroke="#000000" d="M385.829,-864.937C381.4695,-856.4537 376.1022,-846.0092 371.2222,-836.513"/>
<polygon fill="#000000" stroke="#000000" points="374.2438,-834.7352 366.56,-827.4407 368.0178,-837.9348 374.2438,-834.7352"/>
</g>
<!-- 1273 -->
<g id="node7" class="node">
<title>1273</title>
<ellipse fill="none" stroke="#000000" cx="473.5975" cy="-810" rx="28.6953" ry="18"/>
<text text-anchor="middle" x="473.5975" y="-806.3" font-family="Times,serif" font-size="14.00" fill="#000000">1273</text>
</g>
<!-- 701&#45;&gt;1273 -->
<g id="edge5" class="edge">
<title>701&#45;&gt;1273</title>
<path fill="none" stroke="#000000" d="M410.5843,-867.4297C421.7853,-857.2212 436.9525,-843.3979 449.5996,-831.8714"/>
<polygon fill="#000000" stroke="#000000" points="452.0573,-834.3671 457.0906,-825.0442 447.342,-829.1935 452.0573,-834.3671"/>
</g>
<!-- 2516 -->
<g id="node10" class="node">
<title>2516</title>
<ellipse fill="none" stroke="#000000" cx="280.5975" cy="-738" rx="28.6953" ry="18"/>
<text text-anchor="middle" x="280.5975" y="-734.3" font-family="Times,serif" font-size="14.00" fill="#000000">2516</text>
</g>
<!-- 703&#45;&gt;2516 -->
<g id="edge6" class="edge">
<title>703&#45;&gt;2516</title>
<path fill="none" stroke="#000000" d="M341.643,-795.0816C330.8748,-785.0125 316.4734,-771.5463 304.3628,-760.2221"/>
<polygon fill="#000000" stroke="#000000" points="306.4911,-757.4205 296.7964,-753.147 301.7102,-762.5335 306.4911,-757.4205"/>
</g>
<!-- 9498 -->
<g id="node44" class="node">
<title>9498</title>
<ellipse fill="none" stroke="#000000" cx="357.5975" cy="-738" rx="28.6953" ry="18"/>
<text text-anchor="middle" x="357.5975" y="-734.3" font-family="Times,serif" font-size="14.00" fill="#000000">9498</text>
</g>
<!-- 703&#45;&gt;9498 -->
<g id="edge7" class="edge">
<title>703&#45;&gt;9498</title>
<path fill="none" stroke="#000000" d="M357.5975,-791.8314C357.5975,-784.131 357.5975,-774.9743 357.5975,-766.4166"/>
<polygon fill="#000000" stroke="#000000" points="361.0976,-766.4132 357.5975,-756.4133 354.0976,-766.4133 361.0976,-766.4132"/>
</g>
<!-- 1221 -->
<g id="node5" class="node">
<title>1221</title>
<ellipse fill="none" stroke="#000000" cx="76.5975" cy="-18" rx="28.6953" ry="18"/>
<text text-anchor="middle" x="76.5975" y="-14.3" font-family="Times,serif" font-size="14.00" fill="#000000">1221</text>
</g>
<!-- 1239 -->
<g id="node6" class="node">
<title>1239</title>
<ellipse fill="none" stroke="#000000" cx="457.5975" cy="-522" rx="28.6953" ry="18"/>
<text text-anchor="middle" x="457.5975" y="-518.3" font-family="Times,serif" font-size="14.00" fill="#000000">1239</text>
</g>
<!-- 5511 -->
<g id="node28" class="node">
<title>5511</title>
<ellipse fill="none" stroke="#000000" cx="417.5975" cy="-450" rx="28.6953" ry="18"/>
<text text-anchor="middle" x="417.5975" y="-446.3" font-family="Times,serif" font-size="14.00" fill="#000000">5511</text>
</g>
<!-- 1239&#45;&gt;5511 -->
<g id="edge8" class="edge">
<title>1239&#45;&gt;5511</title>
<path fill="none" stroke="#000000" d="M448.118,-504.937C443.356,-496.3654 437.4816,-485.7914 432.1622,-476.2165"/>
<polygon fill="#000000" stroke="#000000" points="435.2028,-474.4825 427.2867,-467.4407 429.0837,-477.882 435.2028,-474.4825"/>
</g>
<!-- 17676 -->
<g id="node54" class="node">
<title>17676</title>
<ellipse fill="none" stroke="#000000" cx="496.5975" cy="-450" rx="32.4942" ry="18"/>
<text text-anchor="middle" x="496.5975" y="-446.3" font-family="Times,serif" font-size="14.00" fill="#000000">17676</text>
</g>
<!-- 1239&#45;&gt;17676 -->
<g id="edge9" class="edge">
<title>1239&#45;&gt;17676</title>
<path fill="none" stroke="#000000" d="M466.8399,-504.937C471.435,-496.4537 477.0925,-486.0092 482.2363,-476.513"/>
<polygon fill="#000000" stroke="#000000" points="485.4651,-477.9006 487.1504,-467.4407 479.31,-474.5666 485.4651,-477.9006"/>
</g>
<!-- 1273&#45;&gt;209 -->
<g id="edge10" class="edge">
<title>1273&#45;&gt;209</title>
<path fill="none" stroke="#000000" d="M478.7885,-792.2022C481.1359,-784.1541 483.9636,-774.4588 486.5747,-765.5067"/>
<polygon fill="#000000" stroke="#000000" points="489.9533,-766.4226 489.3934,-755.8425 483.2333,-764.4625 489.9533,-766.4226"/>
</g>
<!-- 1299 -->
<g id="node8" class="node">
<title>1299</title>
<ellipse fill="none" stroke="#000000" cx="394.5975" cy="-1098" rx="28.6953" ry="18"/>
<text text-anchor="middle" x="394.5975" y="-1094.3" font-family="Times,serif" font-size="14.00" fill="#000000">1299</text>
</g>
<!-- 6461 -->
<g id="node31" class="node">
<title>6461</title>
<ellipse fill="none" stroke="#000000" cx="394.5975" cy="-1026" rx="28.6953" ry="18"/>
<text text-anchor="middle" x="394.5975" y="-1022.3" font-family="Times,serif" font-size="14.00" fill="#000000">6461</text>
</g>
<!-- 1299&#45;&gt;6461 -->
<g id="edge11" class="edge">
<title>1299&#45;&gt;6461</title>
<path fill="none" stroke="#000000" d="M394.5975,-1079.8314C394.5975,-1072.131 394.5975,-1062.9743 394.5975,-1054.4166"/>
<polygon fill="#000000" stroke="#000000" points="398.0976,-1054.4132 394.5975,-1044.4133 391.0976,-1054.4133 398.0976,-1054.4132"/>
</g>
<!-- 2497 -->
<g id="node9" class="node">
<title>2497</title>
<ellipse fill="none" stroke="#000000" cx="394.5975" cy="-954" rx="28.6953" ry="18"/>
<text text-anchor="middle" x="394.5975" y="-950.3" font-family="Times,serif" font-size="14.00" fill="#000000">2497</text>
</g>
<!-- 2497&#45;&gt;701 -->
<g id="edge12" class="edge">
<title>2497&#45;&gt;701</title>
<path fill="none" stroke="#000000" d="M394.5975,-935.8314C394.5975,-928.131 394.5975,-918.9743 394.5975,-910.4166"/>
<polygon fill="#000000" stroke="#000000" points="398.0976,-910.4132 394.5975,-900.4133 391.0976,-910.4133 398.0976,-910.4132"/>
</g>
<!-- 32787 -->
<g id="node64" class="node">
<title>32787</title>
<ellipse fill="none" stroke="#000000" cx="257.5975" cy="-666" rx="32.4942" ry="18"/>
<text text-anchor="middle" x="257.5975" y="-662.3" font-family="Times,serif" font-size="14.00" fill="#000000">32787</text>
</g>
<!-- 2516&#45;&gt;32787 -->
<g id="edge13" class="edge">
<title>2516&#45;&gt;32787</title>
<path fill="none" stroke="#000000" d="M274.9121,-720.2022C272.3411,-712.1541 269.244,-702.4588 266.3843,-693.5067"/>
<polygon fill="#000000" stroke="#000000" points="269.6742,-692.3033 263.2972,-683.8425 263.0062,-694.4334 269.6742,-692.3033"/>
</g>
<!-- 2686 -->
<g id="node11" class="node">
<title>2686</title>
<ellipse fill="none" stroke="#000000" cx="472.5975" cy="-1314" rx="28.6953" ry="18"/>
<text text-anchor="middle" x="472.5975" y="-1310.3" font-family="Times,serif" font-size="14.00" fill="#000000">2686</text>
</g>
<!-- 3741 -->
<g id="node22" class="node">
<title>3741</title>
<ellipse fill="none" stroke="#000000" cx="472.5975" cy="-1242" rx="28.6953" ry="18"/>
<text text-anchor="middle" x="472.5975" y="-1238.3" font-family="Times,serif" font-size="14.00" fill="#000000">3741</text>
</g>
<!-- 2686&#45;&gt;3741 -->
<g id="edge14" class="edge">
<title>2686&#45;&gt;3741</title>
<path fill="none" stroke="#000000" d="M472.5975,-1295.8314C472.5975,-1288.131 472.5975,-1278.9743 472.5975,-1270.4166"/>
<polygon fill="#000000" stroke="#000000" points="476.0976,-1270.4132 472.5975,-1260.4133 469.0976,-1270.4133 476.0976,-1270.4132"/>
</g>
<!-- 2687 -->
<g id="node12" class="node">
<title>2687</title>
<ellipse fill="none" stroke="#000000" cx="472.5975" cy="-1386" rx="28.6953" ry="18"/>
<text text-anchor="middle" x="472.5975" y="-1382.3" font-family="Times,serif" font-size="14.00" fill="#000000">2687</text>
</g>
<!-- 2687&#45;&gt;2686 -->
<g id="edge15" class="edge">
<title>2687&#45;&gt;2686</title>
<path fill="none" stroke="#000000" d="M472.5975,-1367.8314C472.5975,-1360.131 472.5975,-1350.9743 472.5975,-1342.4166"/>
<polygon fill="#000000" stroke="#000000" points="476.0976,-1342.4132 472.5975,-1332.4133 469.0976,-1342.4133 476.0976,-1342.4132"/>
</g>
<!-- 9505 -->
<g id="node45" class="node">
<title>9505</title>
<ellipse fill="none" stroke="#000000" cx="547.5975" cy="-1314" rx="28.6953" ry="18"/>
<text text-anchor="middle" x="547.5975" y="-1310.3" font-family="Times,serif" font-size="14.00" fill="#000000">9505</text>
</g>
<!-- 2687&#45;&gt;9505 -->
<g id="edge16" class="edge">
<title>2687&#45;&gt;9505</title>
<path fill="none" stroke="#000000" d="M488.503,-1370.7307C498.9438,-1360.7075 512.7723,-1347.4321 524.4272,-1336.2434"/>
<polygon fill="#000000" stroke="#000000" points="526.9248,-1338.6976 531.7148,-1329.2473 522.077,-1333.6478 526.9248,-1338.6976"/>
</g>
<!-- 2764 -->
<g id="node13" class="node">
<title>2764</title>
<ellipse fill="none" stroke="#000000" cx="257.5975" cy="-594" rx="28.6953" ry="18"/>
<text text-anchor="middle" x="257.5975" y="-590.3" font-family="Times,serif" font-size="14.00" fill="#000000">2764</text>
</g>
<!-- 7545 -->
<g id="node40" class="node">
<title>7545</title>
<ellipse fill="none" stroke="#000000" cx="178.5975" cy="-522" rx="28.6953" ry="18"/>
<text text-anchor="middle" x="178.5975" y="-518.3" font-family="Times,serif" font-size="14.00" fill="#000000">7545</text>
</g>
<!-- 2764&#45;&gt;7545 -->
<g id="edge17" class="edge">
<title>2764&#45;&gt;7545</title>
<path fill="none" stroke="#000000" d="M241.2286,-579.0816C230.0006,-568.8484 214.9226,-555.1064 202.3744,-543.6701"/>
<polygon fill="#000000" stroke="#000000" points="204.6939,-541.0486 194.9453,-536.8993 199.9787,-546.2222 204.6939,-541.0486"/>
</g>
<!-- 38333 -->
<g id="node66" class="node">
<title>38333</title>
<ellipse fill="none" stroke="#000000" cx="257.5975" cy="-522" rx="32.4942" ry="18"/>
<text text-anchor="middle" x="257.5975" y="-518.3" font-family="Times,serif" font-size="14.00" fill="#000000">38333</text>
</g>
<!-- 2764&#45;&gt;38333 -->
<g id="edge18" class="edge">
<title>2764&#45;&gt;38333</title>
<path fill="none" stroke="#000000" d="M257.5975,-575.8314C257.5975,-568.131 257.5975,-558.9743 257.5975,-550.4166"/>
<polygon fill="#000000" stroke="#000000" points="261.0976,-550.4132 257.5975,-540.4133 254.0976,-550.4133 261.0976,-550.4132"/>
</g>
<!-- 38561 -->
<g id="node67" class="node">
<title>38561</title>
<ellipse fill="none" stroke="#000000" cx="340.5975" cy="-522" rx="32.4942" ry="18"/>
<text text-anchor="middle" x="340.5975" y="-518.3" font-family="Times,serif" font-size="14.00" fill="#000000">38561</text>
</g>
<!-- 2764&#45;&gt;38561 -->
<g id="edge19" class="edge">
<title>2764&#45;&gt;38561</title>
<path fill="none" stroke="#000000" d="M274.3938,-579.4297C286.0835,-569.2892 301.8848,-555.5821 315.1185,-544.1023"/>
<polygon fill="#000000" stroke="#000000" points="317.7063,-546.4908 322.9667,-537.2941 313.1193,-541.2031 317.7063,-546.4908"/>
</g>
<!-- 2828 -->
<g id="node14" class="node">
<title>2828</title>
<ellipse fill="none" stroke="#000000" cx="532.5975" cy="-522" rx="28.6953" ry="18"/>
<text text-anchor="middle" x="532.5975" y="-518.3" font-family="Times,serif" font-size="14.00" fill="#000000">2828</text>
</g>
<!-- 2914 -->
<g id="node15" class="node">
<title>2914</title>
<ellipse fill="none" stroke="#000000" cx="397.5975" cy="-1458" rx="28.6953" ry="18"/>
<text text-anchor="middle" x="397.5975" y="-1454.3" font-family="Times,serif" font-size="14.00" fill="#000000">2914</text>
</g>
<!-- 6453 -->
<g id="node30" class="node">
<title>6453</title>
<ellipse fill="none" stroke="#000000" cx="397.5975" cy="-1386" rx="28.6953" ry="18"/>
<text text-anchor="middle" x="397.5975" y="-1382.3" font-family="Times,serif" font-size="14.00" fill="#000000">6453</text>
</g>
<!-- 2914&#45;&gt;6453 -->
<g id="edge20" class="edge">
<title>2914&#45;&gt;6453</title>
<path fill="none" stroke="#000000" d="M397.5975,-1439.8314C397.5975,-1432.131 397.5975,-1422.9743 397.5975,-1414.4166"/>
<polygon fill="#000000" stroke="#000000" points="401.0976,-1414.4132 397.5975,-1404.4133 394.0976,-1414.4133 401.0976,-1414.4132"/>
</g>
<!-- 3257 -->
<g id="node16" class="node">
<title>3257</title>
<ellipse fill="none" stroke="#000000" cx="397.5975" cy="-1314" rx="28.6953" ry="18"/>
<text text-anchor="middle" x="397.5975" y="-1310.3" font-family="Times,serif" font-size="14.00" fill="#000000">3257</text>
</g>
<!-- 3257&#45;&gt;174 -->
<g id="edge21" class="edge">
<title>3257&#45;&gt;174</title>
<path fill="none" stroke="#000000" d="M397.0928,-1295.8314C396.8789,-1288.131 396.6245,-1278.9743 396.3868,-1270.4166"/>
<polygon fill="#000000" stroke="#000000" points="399.8854,-1270.3122 396.1089,-1260.4133 392.8881,-1270.5066 399.8854,-1270.3122"/>
</g>
<!-- 7018 -->
<g id="node37" class="node">
<title>7018</title>
<ellipse fill="none" stroke="#000000" cx="494.5975" cy="-594" rx="28.6953" ry="18"/>
<text text-anchor="middle" x="494.5975" y="-590.3" font-family="Times,serif" font-size="14.00" fill="#000000">7018</text>
</g>
<!-- 3320&#45;&gt;7018 -->
<g id="edge22" class="edge">
<title>3320&#45;&gt;7018</title>
<path fill="none" stroke="#000000" d="M494.5975,-647.8314C494.5975,-640.131 494.5975,-630.9743 494.5975,-622.4166"/>
<polygon fill="#000000" stroke="#000000" points="498.0976,-622.4132 494.5975,-612.4133 491.0976,-622.4133 498.0976,-622.4132"/>
</g>
<!-- 3356 -->
<g id="node18" class="node">
<title>3356</title>
<ellipse fill="none" stroke="#000000" cx="471.5975" cy="-1674" rx="28.6953" ry="18"/>
<text text-anchor="middle" x="471.5975" y="-1670.3" font-family="Times,serif" font-size="14.00" fill="#000000">3356</text>
</g>
<!-- 3549 -->
<g id="node20" class="node">
<title>3549</title>
<ellipse fill="none" stroke="#000000" cx="471.5975" cy="-1602" rx="28.6953" ry="18"/>
<text text-anchor="middle" x="471.5975" y="-1598.3" font-family="Times,serif" font-size="14.00" fill="#000000">3549</text>
</g>
<!-- 3356&#45;&gt;3549 -->
<g id="edge23" class="edge">
<title>3356&#45;&gt;3549</title>
<path fill="none" stroke="#000000" d="M471.5975,-1655.8314C471.5975,-1648.131 471.5975,-1638.9743 471.5975,-1630.4166"/>
<polygon fill="#000000" stroke="#000000" points="475.0976,-1630.4132 471.5975,-1620.4133 468.0976,-1630.4133 475.0976,-1630.4132"/>
</g>
<!-- 3491&#45;&gt;1299 -->
<g id="edge24" class="edge">
<title>3491&#45;&gt;1299</title>
<path fill="none" stroke="#000000" d="M394.5975,-1151.8314C394.5975,-1144.131 394.5975,-1134.9743 394.5975,-1126.4166"/>
<polygon fill="#000000" stroke="#000000" points="398.0976,-1126.4132 394.5975,-1116.4133 391.0976,-1126.4133 398.0976,-1126.4132"/>
</g>
<!-- 6762 -->
<g id="node33" class="node">
<title>6762</title>
<ellipse fill="none" stroke="#000000" cx="432.5975" cy="-1530" rx="28.6953" ry="18"/>
<text text-anchor="middle" x="432.5975" y="-1526.3" font-family="Times,serif" font-size="14.00" fill="#000000">6762</text>
</g>
<!-- 3549&#45;&gt;6762 -->
<g id="edge25" class="edge">
<title>3549&#45;&gt;6762</title>
<path fill="none" stroke="#000000" d="M462.355,-1584.937C457.7599,-1576.4537 452.1024,-1566.0092 446.9587,-1556.513"/>
<polygon fill="#000000" stroke="#000000" points="449.8849,-1554.5666 442.0445,-1547.4407 443.7299,-1557.9006 449.8849,-1554.5666"/>
</g>
<!-- 30070 -->
<g id="node63" class="node">
<title>30070</title>
<ellipse fill="none" stroke="#000000" cx="529.5975" cy="-1530" rx="32.4942" ry="18"/>
<text text-anchor="middle" x="529.5975" y="-1526.3" font-family="Times,serif" font-size="14.00" fill="#000000">30070</text>
</g>
<!-- 3549&#45;&gt;30070 -->
<g id="edge26" class="edge">
<title>3549&#45;&gt;30070</title>
<path fill="none" stroke="#000000" d="M484.7586,-1585.6621C492.1429,-1576.4953 501.5036,-1564.8751 509.7601,-1554.6257"/>
<polygon fill="#000000" stroke="#000000" points="512.5383,-1556.7561 516.0859,-1546.7729 507.087,-1552.3648 512.5383,-1556.7561"/>
</g>
<!-- 3597 -->
<g id="node21" class="node">
<title>3597</title>
<ellipse fill="none" stroke="#000000" cx="433.5975" cy="-1818" rx="28.6953" ry="18"/>
<text text-anchor="middle" x="433.5975" y="-1814.3" font-family="Times,serif" font-size="14.00" fill="#000000">3597</text>
</g>
<!-- 37179 -->
<g id="node65" class="node">
<title>37179</title>
<ellipse fill="none" stroke="#000000" cx="473.5975" cy="-1170" rx="32.4942" ry="18"/>
<text text-anchor="middle" x="473.5975" y="-1166.3" font-family="Times,serif" font-size="14.00" fill="#000000">37179</text>
</g>
<!-- 3741&#45;&gt;37179 -->
<g id="edge27" class="edge">
<title>3741&#45;&gt;37179</title>
<path fill="none" stroke="#000000" d="M472.8498,-1223.8314C472.9568,-1216.131 473.0839,-1206.9743 473.2028,-1198.4166"/>
<polygon fill="#000000" stroke="#000000" points="476.7024,-1198.4609 473.3417,-1188.4133 469.7031,-1198.3637 476.7024,-1198.4609"/>
</g>
<!-- 4637 -->
<g id="node24" class="node">
<title>4637</title>
<ellipse fill="none" stroke="#000000" cx="151.5975" cy="-18" rx="28.6953" ry="18"/>
<text text-anchor="middle" x="151.5975" y="-14.3" font-family="Times,serif" font-size="14.00" fill="#000000">4637</text>
</g>
<!-- 4725 -->
<g id="node25" class="node">
<title>4725</title>
<ellipse fill="none" stroke="#000000" cx="226.5975" cy="-18" rx="28.6953" ry="18"/>
<text text-anchor="middle" x="226.5975" y="-14.3" font-family="Times,serif" font-size="14.00" fill="#000000">4725</text>
</g>
<!-- 4739 -->
<g id="node26" class="node">
<title>4739</title>
<ellipse fill="none" stroke="#000000" cx="103.5975" cy="-450" rx="28.6953" ry="18"/>
<text text-anchor="middle" x="103.5975" y="-446.3" font-family="Times,serif" font-size="14.00" fill="#000000">4739</text>
</g>
<!-- 38880 -->
<g id="node68" class="node">
<title>38880</title>
<ellipse fill="none" stroke="#000000" cx="103.5975" cy="-378" rx="32.4942" ry="18"/>
<text text-anchor="middle" x="103.5975" y="-374.3" font-family="Times,serif" font-size="14.00" fill="#000000">38880</text>
</g>
<!-- 4739&#45;&gt;38880 -->
<g id="edge28" class="edge">
<title>4739&#45;&gt;38880</title>
<path fill="none" stroke="#000000" d="M103.5975,-431.8314C103.5975,-424.131 103.5975,-414.9743 103.5975,-406.4166"/>
<polygon fill="#000000" stroke="#000000" points="107.0976,-406.4132 103.5975,-396.4133 100.0976,-406.4133 107.0976,-406.4132"/>
</g>
<!-- 4826 -->
<g id="node27" class="node">
<title>4826</title>
<ellipse fill="none" stroke="#000000" cx="301.5975" cy="-18" rx="28.6953" ry="18"/>
<text text-anchor="middle" x="301.5975" y="-14.3" font-family="Times,serif" font-size="14.00" fill="#000000">4826</text>
</g>
<!-- 5692 -->
<g id="node29" class="node">
<title>5692</title>
<ellipse fill="none" stroke="#000000" cx="927.5975" cy="-1890" rx="28.6953" ry="18"/>
<text text-anchor="middle" x="927.5975" y="-1886.3" font-family="Times,serif" font-size="14.00" fill="#000000">5692</text>
</g>
<!-- 5692&#45;&gt;3597 -->
<g id="edge29" class="edge">
<title>5692&#45;&gt;3597</title>
<path fill="none" stroke="#000000" d="M899.0129,-1887.8332C812.2338,-1881.0637 552.8067,-1859.3629 471.5975,-1836 469.4315,-1835.3769 467.2352,-1834.6422 465.0474,-1833.832"/>
<polygon fill="#000000" stroke="#000000" points="466.2078,-1830.5239 455.6309,-1829.9077 463.515,-1836.9852 466.2078,-1830.5239"/>
</g>
<!-- 10834 -->
<g id="node48" class="node">
<title>10834</title>
<ellipse fill="none" stroke="#000000" cx="512.5975" cy="-1818" rx="32.4942" ry="18"/>
<text text-anchor="middle" x="512.5975" y="-1814.3" font-family="Times,serif" font-size="14.00" fill="#000000">10834</text>
</g>
<!-- 5692&#45;&gt;10834 -->
<g id="edge30" class="edge">
<title>5692&#45;&gt;10834</title>
<path fill="none" stroke="#000000" d="M898.9984,-1888.4071C835.8035,-1884.3384 679.9382,-1871.2744 554.5975,-1836 552.1252,-1835.3042 549.6065,-1834.4966 547.0926,-1833.6164"/>
<polygon fill="#000000" stroke="#000000" points="548.1197,-1830.2617 537.5296,-1829.946 545.6114,-1836.7969 548.1197,-1830.2617"/>
</g>
<!-- 11008 -->
<g id="node49" class="node">
<title>11008</title>
<ellipse fill="none" stroke="#000000" cx="595.5975" cy="-1818" rx="32.4942" ry="18"/>
<text text-anchor="middle" x="595.5975" y="-1814.3" font-family="Times,serif" font-size="14.00" fill="#000000">11008</text>
</g>
<!-- 5692&#45;&gt;11008 -->
<g id="edge31" class="edge">
<title>5692&#45;&gt;11008</title>
<path fill="none" stroke="#000000" d="M899.1076,-1886.8151C846.5615,-1880.4771 731.2025,-1864.3918 637.5975,-1836 635.1397,-1835.2545 632.6318,-1834.4097 630.1259,-1833.5026"/>
<polygon fill="#000000" stroke="#000000" points="631.168,-1830.1522 620.5799,-1829.7737 628.621,-1836.6724 631.168,-1830.1522"/>
</g>
<!-- 27865 -->
<g id="node60" class="node">
<title>27865</title>
<ellipse fill="none" stroke="#000000" cx="678.5975" cy="-1818" rx="32.4942" ry="18"/>
<text text-anchor="middle" x="678.5975" y="-1814.3" font-family="Times,serif" font-size="14.00" fill="#000000">27865</text>
</g>
<!-- 5692&#45;&gt;27865 -->
<g id="edge32" class="edge">
<title>5692&#45;&gt;27865</title>
<path fill="none" stroke="#000000" d="M900.4202,-1884.2764C860.4864,-1875.5606 783.8418,-1857.6654 720.5975,-1836 718.1677,-1835.1677 715.6808,-1834.258 713.1901,-1833.3038"/>
<polygon fill="#000000" stroke="#000000" points="714.2607,-1829.9618 703.6771,-1829.4727 711.6457,-1836.455 714.2607,-1829.9618"/>
</g>
<!-- 28065 -->
<g id="node61" class="node">
<title>28065</title>
<ellipse fill="none" stroke="#000000" cx="761.5975" cy="-1818" rx="32.4942" ry="18"/>
<text text-anchor="middle" x="761.5975" y="-1814.3" font-family="Times,serif" font-size="14.00" fill="#000000">28065</text>
</g>
<!-- 5692&#45;&gt;28065 -->
<g id="edge33" class="edge">
<title>5692&#45;&gt;28065</title>
<path fill="none" stroke="#000000" d="M903.8137,-1879.6842C875.7843,-1867.5268 828.9549,-1847.2153 796.7384,-1833.2419"/>
<polygon fill="#000000" stroke="#000000" points="797.8133,-1829.8931 787.2463,-1829.1248 795.0278,-1836.315 797.8133,-1829.8931"/>
</g>
<!-- 52317 -->
<g id="node70" class="node">
<title>52317</title>
<ellipse fill="none" stroke="#000000" cx="844.5975" cy="-1818" rx="32.4942" ry="18"/>
<text text-anchor="middle" x="844.5975" y="-1814.3" font-family="Times,serif" font-size="14.00" fill="#000000">52317</text>
</g>
<!-- 5692&#45;&gt;52317 -->
<g id="edge34" class="edge">
<title>5692&#45;&gt;52317</title>
<path fill="none" stroke="#000000" d="M910.8012,-1875.4297C899.1114,-1865.2892 883.3101,-1851.5821 870.0765,-1840.1023"/>
<polygon fill="#000000" stroke="#000000" points="872.0756,-1837.2031 862.2282,-1833.2941 867.4886,-1842.4908 872.0756,-1837.2031"/>
</g>
<!-- 52375 -->
<g id="node72" class="node">
<title>52375</title>
<ellipse fill="none" stroke="#000000" cx="927.5975" cy="-1818" rx="32.4942" ry="18"/>
<text text-anchor="middle" x="927.5975" y="-1814.3" font-family="Times,serif" font-size="14.00" fill="#000000">52375</text>
</g>
<!-- 5692&#45;&gt;52375 -->
<g id="edge35" class="edge">
<title>5692&#45;&gt;52375</title>
<path fill="none" stroke="#000000" d="M927.5975,-1871.8314C927.5975,-1864.131 927.5975,-1854.9743 927.5975,-1846.4166"/>
<polygon fill="#000000" stroke="#000000" points="931.0976,-1846.4132 927.5975,-1836.4133 924.0976,-1846.4133 931.0976,-1846.4132"/>
</g>
<!-- 52376 -->
<g id="node73" class="node">
<title>52376</title>
<ellipse fill="none" stroke="#000000" cx="1010.5975" cy="-1818" rx="32.4942" ry="18"/>
<text text-anchor="middle" x="1010.5975" y="-1814.3" font-family="Times,serif" font-size="14.00" fill="#000000">52376</text>
</g>
<!-- 5692&#45;&gt;52376 -->
<g id="edge36" class="edge">
<title>5692&#45;&gt;52376</title>
<path fill="none" stroke="#000000" d="M944.3938,-1875.4297C956.0835,-1865.2892 971.8848,-1851.5821 985.1185,-1840.1023"/>
<polygon fill="#000000" stroke="#000000" points="987.7063,-1842.4908 992.9667,-1833.2941 983.1193,-1837.2031 987.7063,-1842.4908"/>
</g>
<!-- 52380 -->
<g id="node74" class="node">
<title>52380</title>
<ellipse fill="none" stroke="#000000" cx="1093.5975" cy="-1818" rx="32.4942" ry="18"/>
<text text-anchor="middle" x="1093.5975" y="-1814.3" font-family="Times,serif" font-size="14.00" fill="#000000">52380</text>
</g>
<!-- 5692&#45;&gt;52380 -->
<g id="edge37" class="edge">
<title>5692&#45;&gt;52380</title>
<path fill="none" stroke="#000000" d="M951.3812,-1879.6842C979.4107,-1867.5268 1026.24,-1847.2153 1058.4565,-1833.2419"/>
<polygon fill="#000000" stroke="#000000" points="1060.1671,-1836.315 1067.9486,-1829.1248 1057.3816,-1829.8931 1060.1671,-1836.315"/>
</g>
<!-- 52413 -->
<g id="node75" class="node">
<title>52413</title>
<ellipse fill="none" stroke="#000000" cx="1176.5975" cy="-1818" rx="32.4942" ry="18"/>
<text text-anchor="middle" x="1176.5975" y="-1814.3" font-family="Times,serif" font-size="14.00" fill="#000000">52413</text>
</g>
<!-- 5692&#45;&gt;52413 -->
<g id="edge38" class="edge">
<title>5692&#45;&gt;52413</title>
<path fill="none" stroke="#000000" d="M954.7748,-1884.2764C994.7085,-1875.5606 1071.3531,-1857.6654 1134.5975,-1836 1137.0272,-1835.1677 1139.5141,-1834.258 1142.0048,-1833.3038"/>
<polygon fill="#000000" stroke="#000000" points="1143.5493,-1836.455 1151.5178,-1829.4727 1140.9342,-1829.9618 1143.5493,-1836.455"/>
</g>
<!-- 52431 -->
<g id="node76" class="node">
<title>52431</title>
<ellipse fill="none" stroke="#000000" cx="1259.5975" cy="-1818" rx="32.4942" ry="18"/>
<text text-anchor="middle" x="1259.5975" y="-1814.3" font-family="Times,serif" font-size="14.00" fill="#000000">52431</text>
</g>
<!-- 5692&#45;&gt;52431 -->
<g id="edge39" class="edge">
<title>5692&#45;&gt;52431</title>
<path fill="none" stroke="#000000" d="M956.0873,-1886.8151C1008.6335,-1880.4771 1123.9924,-1864.3918 1217.5975,-1836 1220.0552,-1835.2545 1222.5631,-1834.4097 1225.069,-1833.5026"/>
<polygon fill="#000000" stroke="#000000" points="1226.5739,-1836.6724 1234.615,-1829.7737 1224.0269,-1830.1522 1226.5739,-1836.6724"/>
</g>
<!-- 262230 -->
<g id="node77" class="node">
<title>262230</title>
<ellipse fill="none" stroke="#000000" cx="1347.5975" cy="-1818" rx="37.0935" ry="18"/>
<text text-anchor="middle" x="1347.5975" y="-1814.3" font-family="Times,serif" font-size="14.00" fill="#000000">262230</text>
</g>
<!-- 5692&#45;&gt;262230 -->
<g id="edge40" class="edge">
<title>5692&#45;&gt;262230</title>
<path fill="none" stroke="#000000" d="M956.0975,-1888.0413C1019.0947,-1883.243 1174.5904,-1868.8146 1300.5975,-1836 1303.726,-1835.1853 1306.9321,-1834.23 1310.1278,-1833.1919"/>
<polygon fill="#000000" stroke="#000000" points="1311.3086,-1836.4869 1319.5963,-1829.8866 1309.0015,-1829.878 1311.3086,-1836.4869"/>
</g>
<!-- 264608 -->
<g id="node79" class="node">
<title>264608</title>
<ellipse fill="none" stroke="#000000" cx="1439.5975" cy="-1818" rx="37.0935" ry="18"/>
<text text-anchor="middle" x="1439.5975" y="-1814.3" font-family="Times,serif" font-size="14.00" fill="#000000">264608</text>
</g>
<!-- 5692&#45;&gt;264608 -->
<g id="edge41" class="edge">
<title>5692&#45;&gt;264608</title>
<path fill="none" stroke="#000000" d="M956.4231,-1889.2303C1030.2246,-1886.71 1231.5895,-1876.3639 1393.5975,-1836 1396.4059,-1835.3003 1399.2734,-1834.4722 1402.1355,-1833.5618"/>
<polygon fill="#000000" stroke="#000000" points="1403.4576,-1836.8076 1411.7522,-1830.216 1401.1574,-1830.1963 1403.4576,-1836.8076"/>
</g>
<!-- 6453&#45;&gt;3257 -->
<g id="edge42" class="edge">
<title>6453&#45;&gt;3257</title>
<path fill="none" stroke="#000000" d="M397.5975,-1367.8314C397.5975,-1360.131 397.5975,-1350.9743 397.5975,-1342.4166"/>
<polygon fill="#000000" stroke="#000000" points="401.0976,-1342.4132 397.5975,-1332.4133 394.0976,-1342.4133 401.0976,-1342.4132"/>
</g>
<!-- 6461&#45;&gt;2497 -->
<g id="edge43" class="edge">
<title>6461&#45;&gt;2497</title>
<path fill="none" stroke="#000000" d="M394.5975,-1007.8314C394.5975,-1000.131 394.5975,-990.9743 394.5975,-982.4166"/>
<polygon fill="#000000" stroke="#000000" points="398.0976,-982.4132 394.5975,-972.4133 391.0976,-982.4133 398.0976,-982.4132"/>
</g>
<!-- 6695 -->
<g id="node32" class="node">
<title>6695</title>
<ellipse fill="none" stroke="#000000" cx="28.5975" cy="-306" rx="28.6953" ry="18"/>
<text text-anchor="middle" x="28.5975" y="-302.3" font-family="Times,serif" font-size="14.00" fill="#000000">6695</text>
</g>
<!-- 6762&#45;&gt;2914 -->
<g id="edge44" class="edge">
<title>6762&#45;&gt;2914</title>
<path fill="none" stroke="#000000" d="M424.1249,-1512.5708C419.9978,-1504.0807 414.9482,-1493.6929 410.3663,-1484.2674"/>
<polygon fill="#000000" stroke="#000000" points="413.5117,-1482.7322 405.992,-1475.2687 407.2162,-1485.7926 413.5117,-1482.7322"/>
</g>
<!-- 6904 -->
<g id="node34" class="node">
<title>6904</title>
<ellipse fill="none" stroke="#000000" cx="472.5975" cy="-1458" rx="28.6953" ry="18"/>
<text text-anchor="middle" x="472.5975" y="-1454.3" font-family="Times,serif" font-size="14.00" fill="#000000">6904</text>
</g>
<!-- 6904&#45;&gt;2687 -->
<g id="edge45" class="edge">
<title>6904&#45;&gt;2687</title>
<path fill="none" stroke="#000000" d="M472.5975,-1439.8314C472.5975,-1432.131 472.5975,-1422.9743 472.5975,-1414.4166"/>
<polygon fill="#000000" stroke="#000000" points="476.0976,-1414.4132 472.5975,-1404.4133 469.0976,-1414.4133 476.0976,-1414.4132"/>
</g>
<!-- 6939 -->
<g id="node35" class="node">
<title>6939</title>
<ellipse fill="none" stroke="#000000" cx="496.5975" cy="-378" rx="28.6953" ry="18"/>
<text text-anchor="middle" x="496.5975" y="-374.3" font-family="Times,serif" font-size="14.00" fill="#000000">6939</text>
</g>
<!-- 12266 -->
<g id="node51" class="node">
<title>12266</title>
<ellipse fill="none" stroke="#000000" cx="496.5975" cy="-306" rx="32.4942" ry="18"/>
<text text-anchor="middle" x="496.5975" y="-302.3" font-family="Times,serif" font-size="14.00" fill="#000000">12266</text>
</g>
<!-- 6939&#45;&gt;12266 -->
<g id="edge46" class="edge">
<title>6939&#45;&gt;12266</title>
<path fill="none" stroke="#000000" d="M496.5975,-359.8314C496.5975,-352.131 496.5975,-342.9743 496.5975,-334.4166"/>
<polygon fill="#000000" stroke="#000000" points="500.0976,-334.4132 496.5975,-324.4133 493.0976,-334.4133 500.0976,-334.4132"/>
</g>
<!-- 7016 -->
<g id="node36" class="node">
<title>7016</title>
<ellipse fill="none" stroke="#000000" cx="547.5975" cy="-1458" rx="28.6953" ry="18"/>
<text text-anchor="middle" x="547.5975" y="-1454.3" font-family="Times,serif" font-size="14.00" fill="#000000">7016</text>
</g>
<!-- 7922 -->
<g id="node41" class="node">
<title>7922</title>
<ellipse fill="none" stroke="#000000" cx="547.5975" cy="-1386" rx="28.6953" ry="18"/>
<text text-anchor="middle" x="547.5975" y="-1382.3" font-family="Times,serif" font-size="14.00" fill="#000000">7922</text>
</g>
<!-- 7016&#45;&gt;7922 -->
<g id="edge47" class="edge">
<title>7016&#45;&gt;7922</title>
<path fill="none" stroke="#000000" d="M547.5975,-1439.8314C547.5975,-1432.131 547.5975,-1422.9743 547.5975,-1414.4166"/>
<polygon fill="#000000" stroke="#000000" points="551.0976,-1414.4132 547.5975,-1404.4133 544.0976,-1414.4133 551.0976,-1414.4132"/>
</g>
<!-- 7018&#45;&gt;1239 -->
<g id="edge48" class="edge">
<title>7018&#45;&gt;1239</title>
<path fill="none" stroke="#000000" d="M485.6408,-576.5708C481.2778,-568.0807 475.9396,-557.6929 471.096,-548.2674"/>
<polygon fill="#000000" stroke="#000000" points="474.1554,-546.5633 466.4716,-539.2687 467.9294,-549.7628 474.1554,-546.5633"/>
</g>
<!-- 7018&#45;&gt;2828 -->
<g id="edge49" class="edge">
<title>7018&#45;&gt;2828</title>
<path fill="none" stroke="#000000" d="M503.7962,-576.5708C508.2771,-568.0807 513.7596,-557.6929 518.7341,-548.2674"/>
<polygon fill="#000000" stroke="#000000" points="521.9111,-549.7462 523.4834,-539.2687 515.7204,-546.4789 521.9111,-549.7462"/>
</g>
<!-- 7473 -->
<g id="node38" class="node">
<title>7473</title>
<ellipse fill="none" stroke="#000000" cx="336.5975" cy="-666" rx="28.6953" ry="18"/>
<text text-anchor="middle" x="336.5975" y="-662.3" font-family="Times,serif" font-size="14.00" fill="#000000">7473</text>
</g>
<!-- 7474 -->
<g id="node39" class="node">
<title>7474</title>
<ellipse fill="none" stroke="#000000" cx="376.5975" cy="-18" rx="28.6953" ry="18"/>
<text text-anchor="middle" x="376.5975" y="-14.3" font-family="Times,serif" font-size="14.00" fill="#000000">7474</text>
</g>
<!-- 7545&#45;&gt;4739 -->
<g id="edge50" class="edge">
<title>7545&#45;&gt;4739</title>
<path fill="none" stroke="#000000" d="M162.6919,-506.7307C152.2512,-496.7075 138.4226,-483.4321 126.7677,-472.2434"/>
<polygon fill="#000000" stroke="#000000" points="129.1179,-469.6478 119.4801,-465.2473 124.2701,-474.6976 129.1179,-469.6478"/>
</g>
<!-- 9942 -->
<g id="node46" class="node">
<title>9942</title>
<ellipse fill="none" stroke="#000000" cx="178.5975" cy="-450" rx="28.6953" ry="18"/>
<text text-anchor="middle" x="178.5975" y="-446.3" font-family="Times,serif" font-size="14.00" fill="#000000">9942</text>
</g>
<!-- 7545&#45;&gt;9942 -->
<g id="edge51" class="edge">
<title>7545&#45;&gt;9942</title>
<path fill="none" stroke="#000000" d="M178.5975,-503.8314C178.5975,-496.131 178.5975,-486.9743 178.5975,-478.4166"/>
<polygon fill="#000000" stroke="#000000" points="182.0976,-478.4132 178.5975,-468.4133 175.0976,-478.4133 182.0976,-478.4132"/>
</g>
<!-- 9002 -->
<g id="node42" class="node">
<title>9002</title>
<ellipse fill="none" stroke="#000000" cx="103.5975" cy="-306" rx="28.6953" ry="18"/>
<text text-anchor="middle" x="103.5975" y="-302.3" font-family="Times,serif" font-size="14.00" fill="#000000">9002</text>
</g>
<!-- 9443 -->
<g id="node43" class="node">
<title>9443</title>
<ellipse fill="none" stroke="#000000" cx="178.5975" cy="-306" rx="28.6953" ry="18"/>
<text text-anchor="middle" x="178.5975" y="-302.3" font-family="Times,serif" font-size="14.00" fill="#000000">9443</text>
</g>
<!-- 9498&#45;&gt;7473 -->
<g id="edge52" class="edge">
<title>9498&#45;&gt;7473</title>
<path fill="none" stroke="#000000" d="M352.4065,-720.2022C350.0591,-712.1541 347.2313,-702.4588 344.6202,-693.5067"/>
<polygon fill="#000000" stroke="#000000" points="347.9616,-692.4625 341.8015,-683.8425 341.2416,-694.4226 347.9616,-692.4625"/>
</g>
<!-- 10026 -->
<g id="node47" class="node">
<title>10026</title>
<ellipse fill="none" stroke="#000000" cx="415.5975" cy="-666" rx="32.4942" ry="18"/>
<text text-anchor="middle" x="415.5975" y="-662.3" font-family="Times,serif" font-size="14.00" fill="#000000">10026</text>
</g>
<!-- 9498&#45;&gt;10026 -->
<g id="edge53" class="edge">
<title>9498&#45;&gt;10026</title>
<path fill="none" stroke="#000000" d="M370.7586,-721.6621C378.1429,-712.4953 387.5036,-700.8751 395.7601,-690.6257"/>
<polygon fill="#000000" stroke="#000000" points="398.5383,-692.7561 402.0859,-682.7729 393.087,-688.3648 398.5383,-692.7561"/>
</g>
<!-- 12956 -->
<g id="node52" class="node">
<title>12956</title>
<ellipse fill="none" stroke="#000000" cx="471.5975" cy="-1746" rx="32.4942" ry="18"/>
<text text-anchor="middle" x="471.5975" y="-1742.3" font-family="Times,serif" font-size="14.00" fill="#000000">12956</text>
</g>
<!-- 10834&#45;&gt;12956 -->
<g id="edge54" class="edge">
<title>10834&#45;&gt;12956</title>
<path fill="none" stroke="#000000" d="M502.6725,-1800.5708C497.7875,-1791.9922 491.7992,-1781.4762 486.3877,-1771.9732"/>
<polygon fill="#000000" stroke="#000000" points="489.4209,-1770.2266 481.431,-1763.2687 483.338,-1773.6905 489.4209,-1770.2266"/>
</g>
<!-- 22927 -->
<g id="node59" class="node">
<title>22927</title>
<ellipse fill="none" stroke="#000000" cx="554.5975" cy="-1746" rx="32.4942" ry="18"/>
<text text-anchor="middle" x="554.5975" y="-1742.3" font-family="Times,serif" font-size="14.00" fill="#000000">22927</text>
</g>
<!-- 10834&#45;&gt;22927 -->
<g id="edge55" class="edge">
<title>10834&#45;&gt;22927</title>
<path fill="none" stroke="#000000" d="M522.7645,-1800.5708C527.7687,-1791.9922 533.903,-1781.4762 539.4464,-1771.9732"/>
<polygon fill="#000000" stroke="#000000" points="542.5085,-1773.6701 544.5241,-1763.2687 536.4621,-1770.1429 542.5085,-1773.6701"/>
</g>
<!-- 12189 -->
<g id="node50" class="node">
<title>12189</title>
<ellipse fill="none" stroke="#000000" cx="496.5975" cy="-162" rx="32.4942" ry="18"/>
<text text-anchor="middle" x="496.5975" y="-158.3" font-family="Times,serif" font-size="14.00" fill="#000000">12189</text>
</g>
<!-- 17819 -->
<g id="node55" class="node">
<title>17819</title>
<ellipse fill="none" stroke="#000000" cx="264.5975" cy="-90" rx="32.4942" ry="18"/>
<text text-anchor="middle" x="264.5975" y="-86.3" font-family="Times,serif" font-size="14.00" fill="#000000">17819</text>
</g>
<!-- 12189&#45;&gt;17819 -->
<g id="edge56" class="edge">
<title>12189&#45;&gt;17819</title>
<path fill="none" stroke="#000000" d="M468.1497,-153.1714C426.6665,-140.2973 349.4689,-116.3394 302.9873,-101.9141"/>
<polygon fill="#000000" stroke="#000000" points="303.866,-98.5222 293.2779,-98.9008 301.7911,-105.2076 303.866,-98.5222"/>
</g>
<!-- 28666 -->
<g id="node62" class="node">
<title>28666</title>
<ellipse fill="none" stroke="#000000" cx="496.5975" cy="-90" rx="32.4942" ry="18"/>
<text text-anchor="middle" x="496.5975" y="-86.3" font-family="Times,serif" font-size="14.00" fill="#000000">28666</text>
</g>
<!-- 12189&#45;&gt;28666 -->
<g id="edge57" class="edge">
<title>12189&#45;&gt;28666</title>
<path fill="none" stroke="#000000" d="M496.5975,-143.8314C496.5975,-136.131 496.5975,-126.9743 496.5975,-118.4166"/>
<polygon fill="#000000" stroke="#000000" points="500.0976,-118.4132 496.5975,-108.4133 493.0976,-118.4133 500.0976,-118.4132"/>
</g>
<!-- 38930 -->
<g id="node69" class="node">
<title>38930</title>
<ellipse fill="none" stroke="#000000" cx="579.5975" cy="-90" rx="32.4942" ry="18"/>
<text text-anchor="middle" x="579.5975" y="-86.3" font-family="Times,serif" font-size="14.00" fill="#000000">38930</text>
</g>
<!-- 12189&#45;&gt;38930 -->
<g id="edge58" class="edge">
<title>12189&#45;&gt;38930</title>
<path fill="none" stroke="#000000" d="M514.1996,-146.7307C525.8641,-136.6121 541.3495,-123.179 554.3236,-111.9243"/>
<polygon fill="#000000" stroke="#000000" points="556.7602,-114.444 562.0207,-105.2473 552.1733,-109.1563 556.7602,-114.444"/>
</g>
<!-- 20454 -->
<g id="node58" class="node">
<title>20454</title>
<ellipse fill="none" stroke="#000000" cx="496.5975" cy="-234" rx="32.4942" ry="18"/>
<text text-anchor="middle" x="496.5975" y="-230.3" font-family="Times,serif" font-size="14.00" fill="#000000">20454</text>
</g>
<!-- 12266&#45;&gt;20454 -->
<g id="edge59" class="edge">
<title>12266&#45;&gt;20454</title>
<path fill="none" stroke="#000000" d="M496.5975,-287.8314C496.5975,-280.131 496.5975,-270.9743 496.5975,-262.4166"/>
<polygon fill="#000000" stroke="#000000" points="500.0976,-262.4132 496.5975,-252.4133 493.0976,-262.4133 500.0976,-262.4132"/>
</g>
<!-- 12956&#45;&gt;3356 -->
<g id="edge60" class="edge">
<title>12956&#45;&gt;3356</title>
<path fill="none" stroke="#000000" d="M471.5975,-1727.8314C471.5975,-1720.131 471.5975,-1710.9743 471.5975,-1702.4166"/>
<polygon fill="#000000" stroke="#000000" points="475.0976,-1702.4132 471.5975,-1692.4133 468.0976,-1702.4133 475.0976,-1702.4132"/>
</g>
<!-- 16735 -->
<g id="node53" class="node">
<title>16735</title>
<ellipse fill="none" stroke="#000000" cx="455.5975" cy="-18" rx="32.4942" ry="18"/>
<text text-anchor="middle" x="455.5975" y="-14.3" font-family="Times,serif" font-size="14.00" fill="#000000">16735</text>
</g>
<!-- 17676&#45;&gt;6939 -->
<g id="edge61" class="edge">
<title>17676&#45;&gt;6939</title>
<path fill="none" stroke="#000000" d="M496.5975,-431.8314C496.5975,-424.131 496.5975,-414.9743 496.5975,-406.4166"/>
<polygon fill="#000000" stroke="#000000" points="500.0976,-406.4132 496.5975,-396.4133 493.0976,-406.4133 500.0976,-406.4132"/>
</g>
<!-- 17819&#45;&gt;1221 -->
<g id="edge62" class="edge">
<title>17819&#45;&gt;1221</title>
<path fill="none" stroke="#000000" d="M236.4165,-80.9486C205.8192,-70.8843 155.6862,-53.7012 113.5975,-36 111.9677,-35.3146 110.3073,-34.5935 108.6373,-33.8499"/>
<polygon fill="#000000" stroke="#000000" points="109.6607,-30.4668 99.1158,-29.4392 106.7184,-36.8184 109.6607,-30.4668"/>
</g>
<!-- 17819&#45;&gt;4637 -->
<g id="edge63" class="edge">
<title>17819&#45;&gt;4637</title>
<path fill="none" stroke="#000000" d="M243.077,-76.2879C225.3073,-64.9656 199.9271,-48.7941 180.4059,-36.3558"/>
<polygon fill="#000000" stroke="#000000" points="182.2118,-33.3564 171.8975,-30.9345 178.4502,-39.2599 182.2118,-33.3564"/>
</g>
<!-- 17819&#45;&gt;4725 -->
<g id="edge64" class="edge">
<title>17819&#45;&gt;4725</title>
<path fill="none" stroke="#000000" d="M255.3987,-72.5708C250.9178,-64.0807 245.4354,-53.6929 240.4608,-44.2674"/>
<polygon fill="#000000" stroke="#000000" points="243.4745,-42.4789 235.7115,-35.2687 237.2838,-45.7462 243.4745,-42.4789"/>
</g>
<!-- 17819&#45;&gt;4826 -->
<g id="edge65" class="edge">
<title>17819&#45;&gt;4826</title>
<path fill="none" stroke="#000000" d="M273.5541,-72.5708C277.9171,-64.0807 283.2553,-53.6929 288.0989,-44.2674"/>
<polygon fill="#000000" stroke="#000000" points="291.2655,-45.7628 292.7233,-35.2687 285.0395,-42.5633 291.2655,-45.7628"/>
</g>
<!-- 17819&#45;&gt;7474 -->
<g id="edge66" class="edge">
<title>17819&#45;&gt;7474</title>
<path fill="none" stroke="#000000" d="M285.9274,-76.2879C303.5399,-64.9656 328.6955,-48.7941 348.0439,-36.3558"/>
<polygon fill="#000000" stroke="#000000" points="349.958,-39.2863 356.4771,-30.9345 346.1727,-33.398 349.958,-39.2863"/>
</g>
<!-- 18398 -->
<g id="node56" class="node">
<title>18398</title>
<ellipse fill="none" stroke="#000000" cx="257.5975" cy="-450" rx="32.4942" ry="18"/>
<text text-anchor="middle" x="257.5975" y="-446.3" font-family="Times,serif" font-size="14.00" fill="#000000">18398</text>
</g>
<!-- 18540 -->
<g id="node57" class="node">
<title>18540</title>
<ellipse fill="none" stroke="#000000" cx="626.5975" cy="-1458" rx="32.4942" ry="18"/>
<text text-anchor="middle" x="626.5975" y="-1454.3" font-family="Times,serif" font-size="14.00" fill="#000000">18540</text>
</g>
<!-- 20454&#45;&gt;12189 -->
<g id="edge67" class="edge">
<title>20454&#45;&gt;12189</title>
<path fill="none" stroke="#000000" d="M496.5975,-215.8314C496.5975,-208.131 496.5975,-198.9743 496.5975,-190.4166"/>
<polygon fill="#000000" stroke="#000000" points="500.0976,-190.4132 496.5975,-180.4133 493.0976,-190.4133 500.0976,-190.4132"/>
</g>
<!-- 28666&#45;&gt;16735 -->
<g id="edge68" class="edge">
<title>28666&#45;&gt;16735</title>
<path fill="none" stroke="#000000" d="M486.6725,-72.5708C481.7875,-63.9922 475.7992,-53.4762 470.3877,-43.9732"/>
<polygon fill="#000000" stroke="#000000" points="473.4209,-42.2266 465.431,-35.2687 467.338,-45.6905 473.4209,-42.2266"/>
</g>
<!-- 52320 -->
<g id="node71" class="node">
<title>52320</title>
<ellipse fill="none" stroke="#000000" cx="538.5975" cy="-18" rx="32.4942" ry="18"/>
<text text-anchor="middle" x="538.5975" y="-14.3" font-family="Times,serif" font-size="14.00" fill="#000000">52320</text>
</g>
<!-- 28666&#45;&gt;52320 -->
<g id="edge69" class="edge">
<title>28666&#45;&gt;52320</title>
<path fill="none" stroke="#000000" d="M506.7645,-72.5708C511.7687,-63.9922 517.903,-53.4762 523.4464,-43.9732"/>
<polygon fill="#000000" stroke="#000000" points="526.5085,-45.6701 528.5241,-35.2687 520.4621,-42.1429 526.5085,-45.6701"/>
</g>
<!-- 262287 -->
<g id="node78" class="node">
<title>262287</title>
<ellipse fill="none" stroke="#000000" cx="626.5975" cy="-18" rx="37.0935" ry="18"/>
<text text-anchor="middle" x="626.5975" y="-14.3" font-family="Times,serif" font-size="14.00" fill="#000000">262287</text>
</g>
<!-- 28666&#45;&gt;262287 -->
<g id="edge70" class="edge">
<title>28666&#45;&gt;262287</title>
<path fill="none" stroke="#000000" d="M519.8389,-77.1278C540.1225,-65.8938 569.8143,-49.4491 592.7389,-36.7524"/>
<polygon fill="#000000" stroke="#000000" points="594.7346,-39.6481 601.7867,-31.7413 591.343,-33.5246 594.7346,-39.6481"/>
</g>
<!-- 30070&#45;&gt;6904 -->
<g id="edge71" class="edge">
<title>30070&#45;&gt;6904</title>
<path fill="none" stroke="#000000" d="M516.3772,-1513.3008C509.0074,-1503.9915 499.7021,-1492.2374 491.5674,-1481.9621"/>
<polygon fill="#000000" stroke="#000000" points="494.3051,-1479.7814 485.3539,-1474.1134 488.8168,-1484.1263 494.3051,-1479.7814"/>
</g>
<!-- 30070&#45;&gt;7016 -->
<g id="edge72" class="edge">
<title>30070&#45;&gt;7016</title>
<path fill="none" stroke="#000000" d="M534.1396,-1511.8314C536.1158,-1503.9266 538.4757,-1494.4872 540.6633,-1485.7365"/>
<polygon fill="#000000" stroke="#000000" points="544.0892,-1486.4637 543.1191,-1475.9134 537.2982,-1484.7659 544.0892,-1486.4637"/>
</g>
<!-- 30070&#45;&gt;18540 -->
<g id="edge73" class="edge">
<title>30070&#45;&gt;18540</title>
<path fill="none" stroke="#000000" d="M549.2269,-1515.4297C563.4264,-1504.8899 582.8169,-1490.4969 598.6336,-1478.7567"/>
<polygon fill="#000000" stroke="#000000" points="601.0536,-1481.3192 606.9973,-1472.5486 596.8815,-1475.6984 601.0536,-1481.3192"/>
</g>
<!-- 32787&#45;&gt;2764 -->
<g id="edge74" class="edge">
<title>32787&#45;&gt;2764</title>
<path fill="none" stroke="#000000" d="M257.5975,-647.8314C257.5975,-640.131 257.5975,-630.9743 257.5975,-622.4166"/>
<polygon fill="#000000" stroke="#000000" points="261.0976,-622.4132 257.5975,-612.4133 254.0976,-622.4133 261.0976,-622.4132"/>
</g>
<!-- 38333&#45;&gt;18398 -->
<g id="edge75" class="edge">
<title>38333&#45;&gt;18398</title>
<path fill="none" stroke="#000000" d="M257.5975,-503.8314C257.5975,-496.131 257.5975,-486.9743 257.5975,-478.4166"/>
<polygon fill="#000000" stroke="#000000" points="261.0976,-478.4132 257.5975,-468.4133 254.0976,-478.4133 261.0976,-478.4132"/>
</g>
<!-- 38880&#45;&gt;6695 -->
<g id="edge76" class="edge">
<title>38880&#45;&gt;6695</title>
<path fill="none" stroke="#000000" d="M87.3236,-362.3771C76.8627,-352.3346 63.1159,-339.1377 51.5526,-328.0369"/>
<polygon fill="#000000" stroke="#000000" points="53.9634,-325.4995 44.3256,-321.099 49.1157,-330.5493 53.9634,-325.4995"/>
</g>
<!-- 38880&#45;&gt;9002 -->
<g id="edge77" class="edge">
<title>38880&#45;&gt;9002</title>
<path fill="none" stroke="#000000" d="M103.5975,-359.8314C103.5975,-352.131 103.5975,-342.9743 103.5975,-334.4166"/>
<polygon fill="#000000" stroke="#000000" points="107.0976,-334.4132 103.5975,-324.4133 100.0976,-334.4133 107.0976,-334.4132"/>
</g>
<!-- 38880&#45;&gt;9443 -->
<g id="edge78" class="edge">
<title>38880&#45;&gt;9443</title>
<path fill="none" stroke="#000000" d="M119.8713,-362.3771C130.3322,-352.3346 144.079,-339.1377 155.6423,-328.0369"/>
<polygon fill="#000000" stroke="#000000" points="158.0793,-330.5493 162.8693,-321.099 153.2315,-325.4995 158.0793,-330.5493"/>
</g>
</g>
</svg>
