<?xml version="1.0" encoding="UTF-8" standalone="no"?>
<!DOCTYPE svg PUBLIC "-//W3C//DTD SVG 1.1//EN"
 "http://www.w3.org/Graphics/SVG/1.1/DTD/svg11.dtd">
<!-- Generated by graphviz version 2.40.1 (20161225.0304)
 -->
<!-- Title: %3 Pages: 1 -->
<svg width="2095pt" height="1862pt"
 viewBox="0.00 0.00 2094.57 1862.00" xmlns="http://www.w3.org/2000/svg" xmlns:xlink="http://www.w3.org/1999/xlink">
<g id="graph0" class="graph" transform="scale(1 1) rotate(0) translate(4 1858)">
<title>%3</title>
<polygon fill="#ffffff" stroke="transparent" points="-4,4 -4,-1858 2090.57,-1858 2090.57,4 -4,4"/>
<!-- 174 -->
<g id="node1" class="node">
<title>174</title>
<ellipse fill="none" stroke="#000000" cx="867.86" cy="-811.5722" rx="27" ry="18"/>
<text text-anchor="middle" x="867.86" y="-807.8722" font-family="Times,serif" font-size="14.00" fill="#000000">174</text>
</g>
<!-- 209 -->
<g id="node2" class="node">
<title>209</title>
<ellipse fill="none" stroke="#000000" cx="934.1513" cy="-857.7024" rx="27" ry="18"/>
<text text-anchor="middle" x="934.1513" y="-854.0024" font-family="Times,serif" font-size="14.00" fill="#000000">209</text>
</g>
<!-- 174&#45;&gt;209 -->
<g id="edge1" class="edge">
<title>174&#45;&gt;209</title>
<path fill="none" stroke="#000000" d="M886.6791,-824.6679C892.9233,-829.013 900.0075,-833.9427 906.7625,-838.6433"/>
<polygon fill="#000000" stroke="#000000" points="904.8476,-841.5748 915.055,-844.4138 908.8459,-835.829 904.8476,-841.5748"/>
</g>
<!-- 1299 -->
<g id="node8" class="node">
<title>1299</title>
<ellipse fill="none" stroke="#000000" cx="1002.783" cy="-902.3863" rx="28.6953" ry="18"/>
<text text-anchor="middle" x="1002.783" y="-898.6863" font-family="Times,serif" font-size="14.00" fill="#000000">1299</text>
</g>
<!-- 209&#45;&gt;1299 -->
<g id="edge2" class="edge">
<title>209&#45;&gt;1299</title>
<path fill="none" stroke="#000000" d="M953.6348,-870.3875C959.988,-874.5238 967.1811,-879.207 974.0652,-883.6891"/>
<polygon fill="#000000" stroke="#000000" points="972.2434,-886.6794 982.5335,-889.2025 976.0628,-880.8131 972.2434,-886.6794"/>
</g>
<!-- 701 -->
<g id="node3" class="node">
<title>701</title>
<ellipse fill="none" stroke="#000000" cx="1235.4724" cy="-1019.9395" rx="27" ry="18"/>
<text text-anchor="middle" x="1235.4724" y="-1016.2395" font-family="Times,serif" font-size="14.00" fill="#000000">701</text>
</g>
<!-- 703 -->
<g id="node4" class="node">
<title>703</title>
<ellipse fill="none" stroke="#000000" cx="1315.4848" cy="-973.0307" rx="27" ry="18"/>
<text text-anchor="middle" x="1315.4848" y="-969.3307" font-family="Times,serif" font-size="14.00" fill="#000000">703</text>
</g>
<!-- 701&#45;&gt;703 -->
<g id="edge3" class="edge">
<title>701&#45;&gt;703</title>
<path fill="none" stroke="#000000" d="M1256.0776,-1007.8593C1265.2239,-1002.4971 1276.1552,-996.0884 1286.1329,-990.2388"/>
<polygon fill="#000000" stroke="#000000" points="1288.0929,-993.1469 1294.9494,-985.0699 1284.5525,-987.1082 1288.0929,-993.1469"/>
</g>
<!-- 7018 -->
<g id="node37" class="node">
<title>7018</title>
<ellipse fill="none" stroke="#000000" cx="1224.9693" cy="-1108.4967" rx="28.6953" ry="18"/>
<text text-anchor="middle" x="1224.9693" y="-1104.7967" font-family="Times,serif" font-size="14.00" fill="#000000">7018</text>
</g>
<!-- 701&#45;&gt;7018 -->
<g id="edge4" class="edge">
<title>701&#45;&gt;7018</title>
<path fill="none" stroke="#000000" d="M1233.2962,-1038.2886C1231.8502,-1050.4807 1229.9239,-1066.7226 1228.2882,-1080.5135"/>
<polygon fill="#000000" stroke="#000000" points="1224.8091,-1080.1314 1227.1069,-1090.4741 1231.7604,-1080.9559 1224.8091,-1080.1314"/>
</g>
<!-- 2516 -->
<g id="node10" class="node">
<title>2516</title>
<ellipse fill="none" stroke="#000000" cx="1404.9101" cy="-977.4407" rx="28.6953" ry="18"/>
<text text-anchor="middle" x="1404.9101" y="-973.7407" font-family="Times,serif" font-size="14.00" fill="#000000">2516</text>
</g>
<!-- 703&#45;&gt;2516 -->
<g id="edge5" class="edge">
<title>703&#45;&gt;2516</title>
<path fill="none" stroke="#000000" d="M1342.8012,-974.3778C1350.1583,-974.7406 1358.2599,-975.1401 1366.1135,-975.5274"/>
<polygon fill="#000000" stroke="#000000" points="1366.0514,-979.0285 1376.2117,-976.0254 1366.3963,-972.037 1366.0514,-979.0285"/>
</g>
<!-- 9498 -->
<g id="node44" class="node">
<title>9498</title>
<ellipse fill="none" stroke="#000000" cx="1299.6997" cy="-891.5888" rx="28.6953" ry="18"/>
<text text-anchor="middle" x="1299.6997" y="-887.8888" font-family="Times,serif" font-size="14.00" fill="#000000">9498</text>
</g>
<!-- 703&#45;&gt;9498 -->
<g id="edge6" class="edge">
<title>703&#45;&gt;9498</title>
<path fill="none" stroke="#000000" d="M1311.9815,-954.9561C1309.9788,-944.623 1307.4231,-931.4372 1305.1622,-919.7724"/>
<polygon fill="#000000" stroke="#000000" points="1308.532,-918.7641 1303.1931,-909.6128 1301.6599,-920.0962 1308.532,-918.7641"/>
</g>
<!-- 1221 -->
<g id="node5" class="node">
<title>1221</title>
<ellipse fill="none" stroke="#000000" cx="1609.3287" cy="-757.8508" rx="28.6953" ry="18"/>
<text text-anchor="middle" x="1609.3287" y="-754.1508" font-family="Times,serif" font-size="14.00" fill="#000000">1221</text>
</g>
<!-- 1239 -->
<g id="node6" class="node">
<title>1239</title>
<ellipse fill="none" stroke="#000000" cx="1198.0672" cy="-1360.723" rx="28.6953" ry="18"/>
<text text-anchor="middle" x="1198.0672" y="-1357.023" font-family="Times,serif" font-size="14.00" fill="#000000">1239</text>
</g>
<!-- 5511 -->
<g id="node28" class="node">
<title>5511</title>
<ellipse fill="none" stroke="#000000" cx="1121.6633" cy="-1379.6767" rx="28.6953" ry="18"/>
<text text-anchor="middle" x="1121.6633" y="-1375.9767" font-family="Times,serif" font-size="14.00" fill="#000000">5511</text>
</g>
<!-- 1239&#45;&gt;5511 -->
<g id="edge7" class="edge">
<title>1239&#45;&gt;5511</title>
<path fill="none" stroke="#000000" d="M1171.3448,-1367.3521C1167.1814,-1368.3849 1162.8175,-1369.4675 1158.4775,-1370.5441"/>
<polygon fill="#000000" stroke="#000000" points="1157.3628,-1367.2145 1148.4997,-1373.0193 1159.0483,-1374.0085 1157.3628,-1367.2145"/>
</g>
<!-- 17676 -->
<g id="node55" class="node">
<title>17676</title>
<ellipse fill="none" stroke="#000000" cx="1217.847" cy="-1441.8673" rx="32.4942" ry="18"/>
<text text-anchor="middle" x="1217.847" y="-1438.1673" font-family="Times,serif" font-size="14.00" fill="#000000">17676</text>
</g>
<!-- 1239&#45;&gt;17676 -->
<g id="edge8" class="edge">
<title>1239&#45;&gt;17676</title>
<path fill="none" stroke="#000000" d="M1202.457,-1378.7316C1204.9922,-1389.132 1208.2344,-1402.4329 1211.0887,-1414.142"/>
<polygon fill="#000000" stroke="#000000" points="1207.7007,-1415.0225 1213.4695,-1423.9091 1214.5016,-1413.3647 1207.7007,-1415.0225"/>
</g>
<!-- 1273 -->
<g id="node7" class="node">
<title>1273</title>
<ellipse fill="none" stroke="#000000" cx="1209.5058" cy="-1277.3822" rx="28.6953" ry="18"/>
<text text-anchor="middle" x="1209.5058" y="-1273.6822" font-family="Times,serif" font-size="14.00" fill="#000000">1273</text>
</g>
<!-- 1273&#45;&gt;1239 -->
<g id="edge9" class="edge">
<title>1273&#45;&gt;1239</title>
<path fill="none" stroke="#000000" d="M1207.0238,-1295.4659C1205.5399,-1306.2778 1203.6224,-1320.2485 1201.9426,-1332.4877"/>
<polygon fill="#000000" stroke="#000000" points="1198.4367,-1332.2915 1200.5444,-1342.6746 1205.3717,-1333.2434 1198.4367,-1332.2915"/>
</g>
<!-- 6461 -->
<g id="node31" class="node">
<title>6461</title>
<ellipse fill="none" stroke="#000000" cx="1075.0245" cy="-944.6768" rx="28.6953" ry="18"/>
<text text-anchor="middle" x="1075.0245" y="-940.9768" font-family="Times,serif" font-size="14.00" fill="#000000">6461</text>
</g>
<!-- 1299&#45;&gt;6461 -->
<g id="edge10" class="edge">
<title>1299&#45;&gt;6461</title>
<path fill="none" stroke="#000000" d="M1024.0671,-914.8461C1030.6222,-918.6835 1037.9664,-922.9829 1044.9939,-927.0968"/>
<polygon fill="#000000" stroke="#000000" points="1043.2446,-930.1283 1053.6429,-932.1599 1046.7811,-924.0873 1043.2446,-930.1283"/>
</g>
<!-- 2497 -->
<g id="node9" class="node">
<title>2497</title>
<ellipse fill="none" stroke="#000000" cx="1152.3114" cy="-983.493" rx="28.6953" ry="18"/>
<text text-anchor="middle" x="1152.3114" y="-979.793" font-family="Times,serif" font-size="14.00" fill="#000000">2497</text>
</g>
<!-- 2497&#45;&gt;701 -->
<g id="edge11" class="edge">
<title>2497&#45;&gt;701</title>
<path fill="none" stroke="#000000" d="M1175.9196,-993.8396C1184.4731,-997.5883 1194.283,-1001.8877 1203.4399,-1005.9008"/>
<polygon fill="#000000" stroke="#000000" points="1202.1019,-1009.1357 1212.6658,-1009.9442 1204.9118,-1002.7244 1202.1019,-1009.1357"/>
</g>
<!-- 32787 -->
<g id="node64" class="node">
<title>32787</title>
<ellipse fill="none" stroke="#000000" cx="1495.0101" cy="-964.3413" rx="32.4942" ry="18"/>
<text text-anchor="middle" x="1495.0101" y="-960.6413" font-family="Times,serif" font-size="14.00" fill="#000000">32787</text>
</g>
<!-- 2516&#45;&gt;32787 -->
<g id="edge12" class="edge">
<title>2516&#45;&gt;32787</title>
<path fill="none" stroke="#000000" d="M1432.9244,-973.3677C1439.4495,-972.4191 1446.5338,-971.3891 1453.5042,-970.3757"/>
<polygon fill="#000000" stroke="#000000" points="1454.1644,-973.8166 1463.5568,-968.9142 1453.1572,-966.8894 1454.1644,-973.8166"/>
</g>
<!-- 2686 -->
<g id="node11" class="node">
<title>2686</title>
<ellipse fill="none" stroke="#000000" cx="478.4389" cy="-171.9154" rx="28.6953" ry="18"/>
<text text-anchor="middle" x="478.4389" y="-168.2154" font-family="Times,serif" font-size="14.00" fill="#000000">2686</text>
</g>
<!-- 3741 -->
<g id="node22" class="node">
<title>3741</title>
<ellipse fill="none" stroke="#000000" cx="468.2799" cy="-93.4566" rx="28.6953" ry="18"/>
<text text-anchor="middle" x="468.2799" y="-89.7566" font-family="Times,serif" font-size="14.00" fill="#000000">3741</text>
</g>
<!-- 2686&#45;&gt;3741 -->
<g id="edge13" class="edge">
<title>2686&#45;&gt;3741</title>
<path fill="none" stroke="#000000" d="M476.0827,-153.7181C474.8518,-144.2117 473.318,-132.3659 471.9368,-121.6989"/>
<polygon fill="#000000" stroke="#000000" points="475.3785,-121.0229 470.6233,-111.5551 468.4365,-121.9218 475.3785,-121.0229"/>
</g>
<!-- 2687 -->
<g id="node12" class="node">
<title>2687</title>
<ellipse fill="none" stroke="#000000" cx="508.6083" cy="-251.0221" rx="28.6953" ry="18"/>
<text text-anchor="middle" x="508.6083" y="-247.3221" font-family="Times,serif" font-size="14.00" fill="#000000">2687</text>
</g>
<!-- 2687&#45;&gt;2686 -->
<g id="edge14" class="edge">
<title>2687&#45;&gt;2686</title>
<path fill="none" stroke="#000000" d="M501.9128,-233.4658C498.0459,-223.3265 493.1006,-210.3596 488.7472,-198.9445"/>
<polygon fill="#000000" stroke="#000000" points="491.9495,-197.519 485.1158,-189.4226 485.409,-200.0134 491.9495,-197.519"/>
</g>
<!-- 9505 -->
<g id="node45" class="node">
<title>9505</title>
<ellipse fill="none" stroke="#000000" cx="576.3873" cy="-211.2628" rx="28.6953" ry="18"/>
<text text-anchor="middle" x="576.3873" y="-207.5628" font-family="Times,serif" font-size="14.00" fill="#000000">9505</text>
</g>
<!-- 2687&#45;&gt;9505 -->
<g id="edge15" class="edge">
<title>2687&#45;&gt;9505</title>
<path fill="none" stroke="#000000" d="M529.6825,-238.66C534.987,-235.5484 540.7827,-232.1486 546.4307,-228.8354"/>
<polygon fill="#000000" stroke="#000000" points="548.2382,-231.833 555.0927,-223.7543 544.6963,-225.7951 548.2382,-231.833"/>
</g>
<!-- 2764 -->
<g id="node13" class="node">
<title>2764</title>
<ellipse fill="none" stroke="#000000" cx="1581.723" cy="-930.0096" rx="28.6953" ry="18"/>
<text text-anchor="middle" x="1581.723" y="-926.3096" font-family="Times,serif" font-size="14.00" fill="#000000">2764</text>
</g>
<!-- 7545 -->
<g id="node40" class="node">
<title>7545</title>
<ellipse fill="none" stroke="#000000" cx="1668.4826" cy="-923.3896" rx="28.6953" ry="18"/>
<text text-anchor="middle" x="1668.4826" y="-919.6896" font-family="Times,serif" font-size="14.00" fill="#000000">7545</text>
</g>
<!-- 2764&#45;&gt;7545 -->
<g id="edge16" class="edge">
<title>2764&#45;&gt;7545</title>
<path fill="none" stroke="#000000" d="M1610.1313,-927.8419C1616.4231,-927.3619 1623.1937,-926.8452 1629.8161,-926.3399"/>
<polygon fill="#000000" stroke="#000000" points="1630.3058,-929.8128 1640.0105,-925.5621 1629.7731,-922.8331 1630.3058,-929.8128"/>
</g>
<!-- 38333 -->
<g id="node66" class="node">
<title>38333</title>
<ellipse fill="none" stroke="#000000" cx="1585.2155" cy="-841.8402" rx="32.4942" ry="18"/>
<text text-anchor="middle" x="1585.2155" y="-838.1402" font-family="Times,serif" font-size="14.00" fill="#000000">38333</text>
</g>
<!-- 2764&#45;&gt;38333 -->
<g id="edge17" class="edge">
<title>2764&#45;&gt;38333</title>
<path fill="none" stroke="#000000" d="M1582.4466,-911.7408C1582.9196,-899.8007 1583.5471,-883.9595 1584.0851,-870.3768"/>
<polygon fill="#000000" stroke="#000000" points="1587.5941,-870.2163 1584.4928,-860.0856 1580.5996,-869.9392 1587.5941,-870.2163"/>
</g>
<!-- 38561 -->
<g id="node67" class="node">
<title>38561</title>
<ellipse fill="none" stroke="#000000" cx="1603.8729" cy="-1004.6732" rx="32.4942" ry="18"/>
<text text-anchor="middle" x="1603.8729" y="-1000.9732" font-family="Times,serif" font-size="14.00" fill="#000000">38561</text>
</g>
<!-- 2764&#45;&gt;38561 -->
<g id="edge18" class="edge">
<title>2764&#45;&gt;38561</title>
<path fill="none" stroke="#000000" d="M1586.9722,-947.7038C1589.5738,-956.4733 1592.775,-967.2638 1595.689,-977.0865"/>
<polygon fill="#000000" stroke="#000000" points="1592.385,-978.2556 1598.5846,-986.8472 1599.0959,-976.2647 1592.385,-978.2556"/>
</g>
<!-- 2828 -->
<g id="node14" class="node">
<title>2828</title>
<ellipse fill="none" stroke="#000000" cx="1485.1042" cy="-898.477" rx="28.6953" ry="18"/>
<text text-anchor="middle" x="1485.1042" y="-894.777" font-family="Times,serif" font-size="14.00" fill="#000000">2828</text>
</g>
<!-- 2914 -->
<g id="node15" class="node">
<title>2914</title>
<ellipse fill="none" stroke="#000000" cx="604.1258" cy="-625.0983" rx="28.6953" ry="18"/>
<text text-anchor="middle" x="604.1258" y="-621.3983" font-family="Times,serif" font-size="14.00" fill="#000000">2914</text>
</g>
<!-- 6453 -->
<g id="node30" class="node">
<title>6453</title>
<ellipse fill="none" stroke="#000000" cx="671.6136" cy="-671.7593" rx="28.6953" ry="18"/>
<text text-anchor="middle" x="671.6136" y="-668.0593" font-family="Times,serif" font-size="14.00" fill="#000000">6453</text>
</g>
<!-- 2914&#45;&gt;6453 -->
<g id="edge19" class="edge">
<title>2914&#45;&gt;6453</title>
<path fill="none" stroke="#000000" d="M623.646,-638.5946C629.8869,-642.9095 636.9222,-647.7737 643.6427,-652.4203"/>
<polygon fill="#000000" stroke="#000000" points="641.6874,-655.3235 651.9034,-658.1317 645.6684,-649.5657 641.6874,-655.3235"/>
</g>
<!-- 3257 -->
<g id="node16" class="node">
<title>3257</title>
<ellipse fill="none" stroke="#000000" cx="737.588" cy="-718.1644" rx="28.6953" ry="18"/>
<text text-anchor="middle" x="737.588" y="-714.4644" font-family="Times,serif" font-size="14.00" fill="#000000">3257</text>
</g>
<!-- 3491 -->
<g id="node19" class="node">
<title>3491</title>
<ellipse fill="none" stroke="#000000" cx="802.7047" cy="-764.8437" rx="28.6953" ry="18"/>
<text text-anchor="middle" x="802.7047" y="-761.1437" font-family="Times,serif" font-size="14.00" fill="#000000">3491</text>
</g>
<!-- 3257&#45;&gt;3491 -->
<g id="edge20" class="edge">
<title>3257&#45;&gt;3491</title>
<path fill="none" stroke="#000000" d="M756.773,-731.9173C762.5504,-736.0588 769.0077,-740.6878 775.2133,-745.1363"/>
<polygon fill="#000000" stroke="#000000" points="773.2652,-748.0462 783.4319,-751.0278 777.3436,-742.357 773.2652,-748.0462"/>
</g>
<!-- 3320 -->
<g id="node17" class="node">
<title>3320</title>
<ellipse fill="none" stroke="#000000" cx="1215.1282" cy="-1193.6456" rx="28.6953" ry="18"/>
<text text-anchor="middle" x="1215.1282" y="-1189.9456" font-family="Times,serif" font-size="14.00" fill="#000000">3320</text>
</g>
<!-- 3320&#45;&gt;1273 -->
<g id="edge21" class="edge">
<title>3320&#45;&gt;1273</title>
<path fill="none" stroke="#000000" d="M1213.9082,-1211.8152C1213.1788,-1222.6785 1212.2363,-1236.7155 1211.4106,-1249.0128"/>
<polygon fill="#000000" stroke="#000000" points="1207.9013,-1249.036 1210.7234,-1259.2481 1214.8856,-1249.5051 1207.9013,-1249.036"/>
</g>
<!-- 3356 -->
<g id="node18" class="node">
<title>3356</title>
<ellipse fill="none" stroke="#000000" cx="382.5036" cy="-558.5534" rx="28.6953" ry="18"/>
<text text-anchor="middle" x="382.5036" y="-554.8534" font-family="Times,serif" font-size="14.00" fill="#000000">3356</text>
</g>
<!-- 3549 -->
<g id="node20" class="node">
<title>3549</title>
<ellipse fill="none" stroke="#000000" cx="463.3382" cy="-520.327" rx="28.6953" ry="18"/>
<text text-anchor="middle" x="463.3382" y="-516.627" font-family="Times,serif" font-size="14.00" fill="#000000">3549</text>
</g>
<!-- 3356&#45;&gt;3549 -->
<g id="edge22" class="edge">
<title>3356&#45;&gt;3549</title>
<path fill="none" stroke="#000000" d="M405.4513,-547.7015C413.4723,-543.9084 422.63,-539.5777 431.2578,-535.4977"/>
<polygon fill="#000000" stroke="#000000" points="432.7892,-538.6452 440.3331,-531.206 429.7966,-532.3171 432.7892,-538.6452"/>
</g>
<!-- 3491&#45;&gt;174 -->
<g id="edge23" class="edge">
<title>3491&#45;&gt;174</title>
<path fill="none" stroke="#000000" d="M821.9011,-778.6111C827.8883,-782.905 834.6054,-787.7224 841.0165,-792.3204"/>
<polygon fill="#000000" stroke="#000000" points="839.3061,-795.4008 849.4721,-798.3847 843.3857,-789.7125 839.3061,-795.4008"/>
</g>
<!-- 6762 -->
<g id="node33" class="node">
<title>6762</title>
<ellipse fill="none" stroke="#000000" cx="534.7033" cy="-576.2147" rx="28.6953" ry="18"/>
<text text-anchor="middle" x="534.7033" y="-572.5147" font-family="Times,serif" font-size="14.00" fill="#000000">6762</text>
</g>
<!-- 3549&#45;&gt;6762 -->
<g id="edge24" class="edge">
<title>3549&#45;&gt;6762</title>
<path fill="none" stroke="#000000" d="M481.3466,-534.4298C489.5662,-540.8668 499.4598,-548.6147 508.4832,-555.6811"/>
<polygon fill="#000000" stroke="#000000" points="506.4213,-558.5119 516.4524,-561.922 510.7373,-553.0008 506.4213,-558.5119"/>
</g>
<!-- 30070 -->
<g id="node63" class="node">
<title>30070</title>
<ellipse fill="none" stroke="#000000" cx="476.2142" cy="-427.6588" rx="32.4942" ry="18"/>
<text text-anchor="middle" x="476.2142" y="-423.9588" font-family="Times,serif" font-size="14.00" fill="#000000">30070</text>
</g>
<!-- 3549&#45;&gt;30070 -->
<g id="edge25" class="edge">
<title>3549&#45;&gt;30070</title>
<path fill="none" stroke="#000000" d="M465.8821,-502.0188C467.7103,-488.8609 470.2097,-470.8731 472.2922,-455.8851"/>
<polygon fill="#000000" stroke="#000000" points="475.8098,-456.0002 473.7194,-445.6137 468.8764,-455.0368 475.8098,-456.0002"/>
</g>
<!-- 3597 -->
<g id="node21" class="node">
<title>3597</title>
<ellipse fill="none" stroke="#000000" cx="47.6803" cy="-636.9507" rx="28.6953" ry="18"/>
<text text-anchor="middle" x="47.6803" y="-633.2507" font-family="Times,serif" font-size="14.00" fill="#000000">3597</text>
</g>
<!-- 37179 -->
<g id="node65" class="node">
<title>37179</title>
<ellipse fill="none" stroke="#000000" cx="459.285" cy="-18" rx="32.4942" ry="18"/>
<text text-anchor="middle" x="459.285" y="-14.3" font-family="Times,serif" font-size="14.00" fill="#000000">37179</text>
</g>
<!-- 3741&#45;&gt;37179 -->
<g id="edge26" class="edge">
<title>3741&#45;&gt;37179</title>
<path fill="none" stroke="#000000" d="M466.1025,-75.1906C465.0639,-66.4783 463.7981,-55.8591 462.6403,-46.1471"/>
<polygon fill="#000000" stroke="#000000" points="466.1015,-45.6131 461.4424,-36.0977 459.1508,-46.4417 466.1015,-45.6131"/>
</g>
<!-- 4635 -->
<g id="node23" class="node">
<title>4635</title>
<ellipse fill="none" stroke="#000000" cx="1719.373" cy="-874.7564" rx="28.6953" ry="18"/>
<text text-anchor="middle" x="1719.373" y="-871.0564" font-family="Times,serif" font-size="14.00" fill="#000000">4635</text>
</g>
<!-- 4637 -->
<g id="node24" class="node">
<title>4637</title>
<ellipse fill="none" stroke="#000000" cx="1259.2449" cy="-1834.4669" rx="28.6953" ry="18"/>
<text text-anchor="middle" x="1259.2449" y="-1830.7669" font-family="Times,serif" font-size="14.00" fill="#000000">4637</text>
</g>
<!-- 4739 -->
<g id="node25" class="node">
<title>4739</title>
<ellipse fill="none" stroke="#000000" cx="1743.8177" cy="-966.4156" rx="28.6953" ry="18"/>
<text text-anchor="middle" x="1743.8177" y="-962.7156" font-family="Times,serif" font-size="14.00" fill="#000000">4739</text>
</g>
<!-- 38880 -->
<g id="node68" class="node">
<title>38880</title>
<ellipse fill="none" stroke="#000000" cx="1827.24" cy="-972.7539" rx="32.4942" ry="18"/>
<text text-anchor="middle" x="1827.24" y="-969.0539" font-family="Times,serif" font-size="14.00" fill="#000000">38880</text>
</g>
<!-- 4739&#45;&gt;38880 -->
<g id="edge27" class="edge">
<title>4739&#45;&gt;38880</title>
<path fill="none" stroke="#000000" d="M1772.5269,-968.5969C1776.4447,-968.8945 1780.5325,-969.2051 1784.6318,-969.5166"/>
<polygon fill="#000000" stroke="#000000" points="1784.5189,-973.018 1794.7553,-970.2858 1785.0493,-966.0381 1784.5189,-973.018"/>
</g>
<!-- 4755 -->
<g id="node26" class="node">
<title>4755</title>
<ellipse fill="none" stroke="#000000" cx="1324.5393" cy="-718.3803" rx="28.6953" ry="18"/>
<text text-anchor="middle" x="1324.5393" y="-714.6803" font-family="Times,serif" font-size="14.00" fill="#000000">4755</text>
</g>
<!-- 9583 -->
<g id="node46" class="node">
<title>9583</title>
<ellipse fill="none" stroke="#000000" cx="1353.8209" cy="-642.6465" rx="28.6953" ry="18"/>
<text text-anchor="middle" x="1353.8209" y="-638.9465" font-family="Times,serif" font-size="14.00" fill="#000000">9583</text>
</g>
<!-- 4755&#45;&gt;9583 -->
<g id="edge28" class="edge">
<title>4755&#45;&gt;9583</title>
<path fill="none" stroke="#000000" d="M1331.3307,-700.8151C1334.89,-691.6095 1339.3279,-680.1312 1343.3188,-669.8091"/>
<polygon fill="#000000" stroke="#000000" points="1346.6232,-670.9681 1346.965,-660.3788 1340.0942,-668.4437 1346.6232,-670.9681"/>
</g>
<!-- 4826 -->
<g id="node27" class="node">
<title>4826</title>
<ellipse fill="none" stroke="#000000" cx="1981.0146" cy="-982.2359" rx="28.6953" ry="18"/>
<text text-anchor="middle" x="1981.0146" y="-978.5359" font-family="Times,serif" font-size="14.00" fill="#000000">4826</text>
</g>
<!-- 15412 -->
<g id="node54" class="node">
<title>15412</title>
<ellipse fill="none" stroke="#000000" cx="2054.0729" cy="-986.9841" rx="32.4942" ry="18"/>
<text text-anchor="middle" x="2054.0729" y="-983.2841" font-family="Times,serif" font-size="14.00" fill="#000000">15412</text>
</g>
<!-- 4826&#45;&gt;15412 -->
<g id="edge29" class="edge">
<title>4826&#45;&gt;15412</title>
<path fill="none" stroke="#000000" d="M2009.4701,-984.0853C2010.0961,-984.126 2010.7254,-984.1669 2011.3573,-984.208"/>
<polygon fill="#000000" stroke="#000000" points="2011.4868,-987.7237 2021.6928,-984.8797 2011.9409,-980.7384 2011.4868,-987.7237"/>
</g>
<!-- 5692 -->
<g id="node29" class="node">
<title>5692</title>
<ellipse fill="none" stroke="#000000" cx="116.833" cy="-632.8095" rx="28.6953" ry="18"/>
<text text-anchor="middle" x="116.833" y="-629.1095" font-family="Times,serif" font-size="14.00" fill="#000000">5692</text>
</g>
<!-- 5692&#45;&gt;3597 -->
<g id="edge30" class="edge">
<title>5692&#45;&gt;3597</title>
<path fill="none" stroke="#000000" d="M88.3067,-634.5178C87.823,-634.5468 87.3377,-634.5758 86.8512,-634.605"/>
<polygon fill="#000000" stroke="#000000" points="86.3607,-631.128 76.5878,-635.2196 86.7792,-638.1155 86.3607,-631.128"/>
</g>
<!-- 10834 -->
<g id="node49" class="node">
<title>10834</title>
<ellipse fill="none" stroke="#000000" cx="221.7463" cy="-621.8063" rx="32.4942" ry="18"/>
<text text-anchor="middle" x="221.7463" y="-618.1063" font-family="Times,serif" font-size="14.00" fill="#000000">10834</text>
</g>
<!-- 5692&#45;&gt;10834 -->
<g id="edge31" class="edge">
<title>5692&#45;&gt;10834</title>
<path fill="none" stroke="#000000" d="M145.224,-629.8319C155.7244,-628.7306 167.8672,-627.4571 179.3431,-626.2535"/>
<polygon fill="#000000" stroke="#000000" points="180.0481,-629.6988 189.6285,-625.1748 179.3179,-622.737 180.0481,-629.6988"/>
</g>
<!-- 11008 -->
<g id="node50" class="node">
<title>11008</title>
<ellipse fill="none" stroke="#000000" cx="166.0961" cy="-644.336" rx="32.4942" ry="18"/>
<text text-anchor="middle" x="166.0961" y="-640.636" font-family="Times,serif" font-size="14.00" fill="#000000">11008</text>
</g>
<!-- 5692&#45;&gt;11008 -->
<g id="edge32" class="edge">
<title>5692&#45;&gt;11008</title>
<path fill="none" stroke="#000000" d="M143.7707,-639.1123C143.8157,-639.1228 143.8606,-639.1334 143.9055,-639.1439"/>
<polygon fill="#000000" stroke="#000000" points="133.5036,-640.2996 144.0402,-639.1754 135.1023,-633.4835 133.5036,-640.2996"/>
</g>
<!-- 27865 -->
<g id="node60" class="node">
<title>27865</title>
<ellipse fill="none" stroke="#000000" cx="37.7311" cy="-673.8881" rx="32.4942" ry="18"/>
<text text-anchor="middle" x="37.7311" y="-670.1881" font-family="Times,serif" font-size="14.00" fill="#000000">27865</text>
</g>
<!-- 5692&#45;&gt;27865 -->
<g id="edge33" class="edge">
<title>5692&#45;&gt;27865</title>
<path fill="none" stroke="#000000" d="M94.3771,-644.4711C87.0233,-648.29 78.6932,-652.616 70.7279,-656.7524"/>
<polygon fill="#000000" stroke="#000000" points="68.8868,-653.7647 61.6252,-661.4796 72.113,-659.9769 68.8868,-653.7647"/>
</g>
<!-- 28065 -->
<g id="node61" class="node">
<title>28065</title>
<ellipse fill="none" stroke="#000000" cx="66.2816" cy="-701.7131" rx="32.4942" ry="18"/>
<text text-anchor="middle" x="66.2816" y="-698.0131" font-family="Times,serif" font-size="14.00" fill="#000000">28065</text>
</g>
<!-- 5692&#45;&gt;28065 -->
<g id="edge34" class="edge">
<title>5692&#45;&gt;28065</title>
<path fill="none" stroke="#000000" d="M104.5959,-649.4891C98.6614,-657.5781 91.4064,-667.467 84.8122,-676.4551"/>
<polygon fill="#000000" stroke="#000000" points="81.8505,-674.5752 78.7572,-684.7084 87.4945,-678.7159 81.8505,-674.5752"/>
</g>
<!-- 52317 -->
<g id="node70" class="node">
<title>52317</title>
<ellipse fill="none" stroke="#000000" cx="32.4971" cy="-602.4812" rx="32.4942" ry="18"/>
<text text-anchor="middle" x="32.4971" y="-598.7812" font-family="Times,serif" font-size="14.00" fill="#000000">52317</text>
</g>
<!-- 5692&#45;&gt;52317 -->
<g id="edge35" class="edge">
<title>5692&#45;&gt;52317</title>
<path fill="none" stroke="#000000" d="M91.9856,-623.874C84.8796,-621.3186 76.9794,-618.4776 69.3184,-615.7226"/>
<polygon fill="#000000" stroke="#000000" points="70.4148,-612.3975 59.8203,-612.307 68.0459,-618.9845 70.4148,-612.3975"/>
</g>
<!-- 52375 -->
<g id="node71" class="node">
<title>52375</title>
<ellipse fill="none" stroke="#000000" cx="122.4044" cy="-546.2325" rx="32.4942" ry="18"/>
<text text-anchor="middle" x="122.4044" y="-542.5325" font-family="Times,serif" font-size="14.00" fill="#000000">52375</text>
</g>
<!-- 5692&#45;&gt;52375 -->
<g id="edge36" class="edge">
<title>5692&#45;&gt;52375</title>
<path fill="none" stroke="#000000" d="M118.0145,-614.4488C118.7656,-602.7772 119.7527,-587.4381 120.6006,-574.2619"/>
<polygon fill="#000000" stroke="#000000" points="124.0941,-574.4741 121.2436,-564.2699 117.1086,-574.0245 124.0941,-574.4741"/>
</g>
<!-- 52376 -->
<g id="node72" class="node">
<title>52376</title>
<ellipse fill="none" stroke="#000000" cx="133.76" cy="-723.7757" rx="32.4942" ry="18"/>
<text text-anchor="middle" x="133.76" y="-720.0757" font-family="Times,serif" font-size="14.00" fill="#000000">52376</text>
</g>
<!-- 5692&#45;&gt;52376 -->
<g id="edge37" class="edge">
<title>5692&#45;&gt;52376</title>
<path fill="none" stroke="#000000" d="M120.1772,-650.7815C122.5652,-663.6143 125.824,-681.1275 128.5511,-695.7827"/>
<polygon fill="#000000" stroke="#000000" points="125.1523,-696.6501 130.4227,-705.8411 132.0342,-695.3695 125.1523,-696.6501"/>
</g>
<!-- 52380 -->
<g id="node73" class="node">
<title>52380</title>
<ellipse fill="none" stroke="#000000" cx="96.7301" cy="-720.8918" rx="32.4942" ry="18"/>
<text text-anchor="middle" x="96.7301" y="-717.1918" font-family="Times,serif" font-size="14.00" fill="#000000">52380</text>
</g>
<!-- 5692&#45;&gt;52380 -->
<g id="edge38" class="edge">
<title>5692&#45;&gt;52380</title>
<path fill="none" stroke="#000000" d="M112.7649,-650.6343C110.0038,-662.7319 106.2958,-678.979 103.141,-692.8021"/>
<polygon fill="#000000" stroke="#000000" points="99.674,-692.2631 100.8611,-702.7913 106.4985,-693.8207 99.674,-692.2631"/>
</g>
<!-- 52413 -->
<g id="node74" class="node">
<title>52413</title>
<ellipse fill="none" stroke="#000000" cx="57.6903" cy="-571.4311" rx="32.4942" ry="18"/>
<text text-anchor="middle" x="57.6903" y="-567.7311" font-family="Times,serif" font-size="14.00" fill="#000000">52413</text>
</g>
<!-- 5692&#45;&gt;52413 -->
<g id="edge39" class="edge">
<title>5692&#45;&gt;52413</title>
<path fill="none" stroke="#000000" d="M101.9088,-617.3211C95.3386,-610.5026 87.4778,-602.3446 80.2183,-594.8107"/>
<polygon fill="#000000" stroke="#000000" points="82.6884,-592.33 73.2293,-587.5576 77.6477,-597.1871 82.6884,-592.33"/>
</g>
<!-- 52431 -->
<g id="node75" class="node">
<title>52431</title>
<ellipse fill="none" stroke="#000000" cx="85.2627" cy="-548.147" rx="32.4942" ry="18"/>
<text text-anchor="middle" x="85.2627" y="-544.447" font-family="Times,serif" font-size="14.00" fill="#000000">52431</text>
</g>
<!-- 5692&#45;&gt;52431 -->
<g id="edge40" class="edge">
<title>5692&#45;&gt;52431</title>
<path fill="none" stroke="#000000" d="M110.2916,-615.2674C106.0027,-603.7658 100.3081,-588.4946 95.4344,-575.4246"/>
<polygon fill="#000000" stroke="#000000" points="98.6777,-574.1048 91.9043,-565.9579 92.1189,-576.5506 98.6777,-574.1048"/>
</g>
<!-- 262230 -->
<g id="node76" class="node">
<title>262230</title>
<ellipse fill="none" stroke="#000000" cx="150.7079" cy="-572.3564" rx="37.0935" ry="18"/>
<text text-anchor="middle" x="150.7079" y="-568.6564" font-family="Times,serif" font-size="14.00" fill="#000000">262230</text>
</g>
<!-- 5692&#45;&gt;262230 -->
<g id="edge41" class="edge">
<title>5692&#45;&gt;262230</title>
<path fill="none" stroke="#000000" d="M126.4496,-615.6478C129.4276,-610.3331 132.7796,-604.3512 136.0198,-598.5688"/>
<polygon fill="#000000" stroke="#000000" points="139.1146,-600.2057 140.9497,-589.771 133.0079,-596.7838 139.1146,-600.2057"/>
</g>
<!-- 264608 -->
<g id="node77" class="node">
<title>264608</title>
<ellipse fill="none" stroke="#000000" cx="158.8102" cy="-696.1141" rx="37.0935" ry="18"/>
<text text-anchor="middle" x="158.8102" y="-692.4141" font-family="Times,serif" font-size="14.00" fill="#000000">264608</text>
</g>
<!-- 5692&#45;&gt;264608 -->
<g id="edge42" class="edge">
<title>5692&#45;&gt;264608</title>
<path fill="none" stroke="#000000" d="M127.862,-649.442C132.0978,-655.8299 137.0381,-663.2802 141.7118,-670.3284"/>
<polygon fill="#000000" stroke="#000000" points="138.9726,-672.5308 147.416,-678.9308 144.8065,-668.6623 138.9726,-672.5308"/>
</g>
<!-- 6453&#45;&gt;3257 -->
<g id="edge43" class="edge">
<title>6453&#45;&gt;3257</title>
<path fill="none" stroke="#000000" d="M690.6961,-685.1816C696.6614,-689.3775 703.3693,-694.0956 709.8059,-698.623"/>
<polygon fill="#000000" stroke="#000000" points="708.1269,-701.7211 718.3198,-704.6115 712.1541,-695.9956 708.1269,-701.7211"/>
</g>
<!-- 6461&#45;&gt;2497 -->
<g id="edge44" class="edge">
<title>6461&#45;&gt;2497</title>
<path fill="none" stroke="#000000" d="M1097.3791,-955.9041C1104.6849,-959.5733 1112.9414,-963.7201 1120.7917,-967.6627"/>
<polygon fill="#000000" stroke="#000000" points="1119.2322,-970.7961 1129.7393,-972.1565 1122.3739,-964.5407 1119.2322,-970.7961"/>
</g>
<!-- 6695 -->
<g id="node32" class="node">
<title>6695</title>
<ellipse fill="none" stroke="#000000" cx="1871.4028" cy="-897.6868" rx="28.6953" ry="18"/>
<text text-anchor="middle" x="1871.4028" y="-893.9868" font-family="Times,serif" font-size="14.00" fill="#000000">6695</text>
</g>
<!-- 6762&#45;&gt;2914 -->
<g id="edge45" class="edge">
<title>6762&#45;&gt;2914</title>
<path fill="none" stroke="#000000" d="M554.0413,-589.8315C560.9621,-594.7047 568.9046,-600.2974 576.3947,-605.5716"/>
<polygon fill="#000000" stroke="#000000" points="574.7,-608.6589 584.8914,-611.5545 578.7302,-602.9354 574.7,-608.6589"/>
</g>
<!-- 6904 -->
<g id="node34" class="node">
<title>6904</title>
<ellipse fill="none" stroke="#000000" cx="501.0721" cy="-337.6434" rx="28.6953" ry="18"/>
<text text-anchor="middle" x="501.0721" y="-333.9434" font-family="Times,serif" font-size="14.00" fill="#000000">6904</text>
</g>
<!-- 6904&#45;&gt;2687 -->
<g id="edge46" class="edge">
<title>6904&#45;&gt;2687</title>
<path fill="none" stroke="#000000" d="M502.6704,-319.2733C503.6863,-307.5957 505.0215,-292.2488 506.1685,-279.0658"/>
<polygon fill="#000000" stroke="#000000" points="509.6582,-279.3345 507.0382,-269.0688 502.6846,-278.7278 509.6582,-279.3345"/>
</g>
<!-- 6939 -->
<g id="node35" class="node">
<title>6939</title>
<ellipse fill="none" stroke="#000000" cx="1217.1271" cy="-1522.2276" rx="28.6953" ry="18"/>
<text text-anchor="middle" x="1217.1271" y="-1518.5276" font-family="Times,serif" font-size="14.00" fill="#000000">6939</text>
</g>
<!-- 12266 -->
<g id="node52" class="node">
<title>12266</title>
<ellipse fill="none" stroke="#000000" cx="1216.2735" cy="-1601.1168" rx="32.4942" ry="18"/>
<text text-anchor="middle" x="1216.2735" y="-1597.4168" font-family="Times,serif" font-size="14.00" fill="#000000">12266</text>
</g>
<!-- 6939&#45;&gt;12266 -->
<g id="edge47" class="edge">
<title>6939&#45;&gt;12266</title>
<path fill="none" stroke="#000000" d="M1216.9291,-1540.5246C1216.8257,-1550.0832 1216.6968,-1561.994 1216.5808,-1572.7196"/>
<polygon fill="#000000" stroke="#000000" points="1213.0789,-1572.8816 1216.4704,-1582.9189 1220.0785,-1572.9574 1213.0789,-1572.8816"/>
</g>
<!-- 7016 -->
<g id="node36" class="node">
<title>7016</title>
<ellipse fill="none" stroke="#000000" cx="420.8992" cy="-381.4442" rx="28.6953" ry="18"/>
<text text-anchor="middle" x="420.8992" y="-377.7442" font-family="Times,serif" font-size="14.00" fill="#000000">7016</text>
</g>
<!-- 7922 -->
<g id="node41" class="node">
<title>7922</title>
<ellipse fill="none" stroke="#000000" cx="375.9193" cy="-316.2975" rx="28.6953" ry="18"/>
<text text-anchor="middle" x="375.9193" y="-312.5975" font-family="Times,serif" font-size="14.00" fill="#000000">7922</text>
</g>
<!-- 7016&#45;&gt;7922 -->
<g id="edge48" class="edge">
<title>7016&#45;&gt;7922</title>
<path fill="none" stroke="#000000" d="M409.3157,-364.6673C404.5263,-357.7305 398.8661,-349.5325 393.5795,-341.8757"/>
<polygon fill="#000000" stroke="#000000" points="396.1817,-339.4845 387.6198,-333.2439 390.4214,-343.4617 396.1817,-339.4845"/>
</g>
<!-- 7018&#45;&gt;3320 -->
<g id="edge49" class="edge">
<title>7018&#45;&gt;3320</title>
<path fill="none" stroke="#000000" d="M1222.8823,-1126.5546C1221.5775,-1137.8437 1219.8696,-1152.6215 1218.3888,-1165.4336"/>
<polygon fill="#000000" stroke="#000000" points="1214.8836,-1165.278 1217.2122,-1175.6137 1221.8373,-1166.0817 1214.8836,-1165.278"/>
</g>
<!-- 7473 -->
<g id="node38" class="node">
<title>7473</title>
<ellipse fill="none" stroke="#000000" cx="1339.2806" cy="-848.2624" rx="28.6953" ry="18"/>
<text text-anchor="middle" x="1339.2806" y="-844.5624" font-family="Times,serif" font-size="14.00" fill="#000000">7473</text>
</g>
<!-- 7474 -->
<g id="node39" class="node">
<title>7474</title>
<ellipse fill="none" stroke="#000000" cx="1505.496" cy="-1040.4525" rx="28.6953" ry="18"/>
<text text-anchor="middle" x="1505.496" y="-1036.7525" font-family="Times,serif" font-size="14.00" fill="#000000">7474</text>
</g>
<!-- 7545&#45;&gt;4635 -->
<g id="edge50" class="edge">
<title>7545&#45;&gt;4635</title>
<path fill="none" stroke="#000000" d="M1684.3057,-908.2683C1688.004,-904.7341 1692.0203,-900.8959 1695.9705,-897.1209"/>
<polygon fill="#000000" stroke="#000000" points="1698.5729,-899.4751 1703.3844,-890.0358 1693.7367,-894.4144 1698.5729,-899.4751"/>
</g>
<!-- 7545&#45;&gt;4739 -->
<g id="edge51" class="edge">
<title>7545&#45;&gt;4739</title>
<path fill="none" stroke="#000000" d="M1689.8691,-935.604C1697.3281,-939.8641 1705.8418,-944.7265 1713.8673,-949.31"/>
<polygon fill="#000000" stroke="#000000" points="1712.2191,-952.3993 1722.6385,-954.3195 1715.6907,-946.3208 1712.2191,-952.3993"/>
</g>
<!-- 9942 -->
<g id="node47" class="node">
<title>9942</title>
<ellipse fill="none" stroke="#000000" cx="1690.142" cy="-835.3277" rx="28.6953" ry="18"/>
<text text-anchor="middle" x="1690.142" y="-831.6277" font-family="Times,serif" font-size="14.00" fill="#000000">9942</text>
</g>
<!-- 7545&#45;&gt;9942 -->
<g id="edge52" class="edge">
<title>7545&#45;&gt;9942</title>
<path fill="none" stroke="#000000" d="M1672.8657,-905.569C1675.8602,-893.394 1679.8886,-877.0155 1683.3022,-863.1367"/>
<polygon fill="#000000" stroke="#000000" points="1686.7757,-863.6684 1685.7654,-853.1219 1679.9782,-861.9965 1686.7757,-863.6684"/>
</g>
<!-- 9002 -->
<g id="node42" class="node">
<title>9002</title>
<ellipse fill="none" stroke="#000000" cx="1843.8261" cy="-1055.3687" rx="28.6953" ry="18"/>
<text text-anchor="middle" x="1843.8261" y="-1051.6687" font-family="Times,serif" font-size="14.00" fill="#000000">9002</text>
</g>
<!-- 9443 -->
<g id="node43" class="node">
<title>9443</title>
<ellipse fill="none" stroke="#000000" cx="1905.1075" cy="-982.2308" rx="28.6953" ry="18"/>
<text text-anchor="middle" x="1905.1075" y="-978.5308" font-family="Times,serif" font-size="14.00" fill="#000000">9443</text>
</g>
<!-- 9443&#45;&gt;4826 -->
<g id="edge53" class="edge">
<title>9443&#45;&gt;4826</title>
<path fill="none" stroke="#000000" d="M1933.8047,-982.2327C1936.5441,-982.2329 1939.3521,-982.2331 1942.1666,-982.2333"/>
<polygon fill="#000000" stroke="#000000" points="1942.2765,-985.7332 1952.2768,-982.234 1942.2771,-978.7332 1942.2765,-985.7332"/>
</g>
<!-- 9498&#45;&gt;7473 -->
<g id="edge54" class="edge">
<title>9498&#45;&gt;7473</title>
<path fill="none" stroke="#000000" d="M1313.9893,-875.947C1315.3179,-874.4926 1316.6825,-872.999 1318.0563,-871.4952"/>
<polygon fill="#000000" stroke="#000000" points="1320.7183,-873.7705 1324.879,-864.0268 1315.5502,-869.0491 1320.7183,-873.7705"/>
</g>
<!-- 10026 -->
<g id="node48" class="node">
<title>10026</title>
<ellipse fill="none" stroke="#000000" cx="1298.5649" cy="-799.385" rx="32.4942" ry="18"/>
<text text-anchor="middle" x="1298.5649" y="-795.685" font-family="Times,serif" font-size="14.00" fill="#000000">10026</text>
</g>
<!-- 9498&#45;&gt;10026 -->
<g id="edge55" class="edge">
<title>9498&#45;&gt;10026</title>
<path fill="none" stroke="#000000" d="M1299.4755,-873.3723C1299.3154,-860.3648 1299.0969,-842.6135 1298.9141,-827.7589"/>
<polygon fill="#000000" stroke="#000000" points="1302.4115,-827.5198 1298.7886,-817.5637 1295.4121,-827.606 1302.4115,-827.5198"/>
</g>
<!-- 10026&#45;&gt;4755 -->
<g id="edge56" class="edge">
<title>10026&#45;&gt;4755</title>
<path fill="none" stroke="#000000" d="M1304.3295,-781.4074C1307.6818,-770.9528 1311.9755,-757.5623 1315.7424,-745.8146"/>
<polygon fill="#000000" stroke="#000000" points="1319.1596,-746.62 1318.8802,-736.0289 1312.4939,-744.4826 1319.1596,-746.62"/>
</g>
<!-- 12956 -->
<g id="node53" class="node">
<title>12956</title>
<ellipse fill="none" stroke="#000000" cx="301.6569" cy="-586.404" rx="32.4942" ry="18"/>
<text text-anchor="middle" x="301.6569" y="-582.704" font-family="Times,serif" font-size="14.00" fill="#000000">12956</text>
</g>
<!-- 10834&#45;&gt;12956 -->
<g id="edge57" class="edge">
<title>10834&#45;&gt;12956</title>
<path fill="none" stroke="#000000" d="M247.4704,-610.4099C253.6627,-607.6666 260.3795,-604.6909 266.9078,-601.7987"/>
<polygon fill="#000000" stroke="#000000" points="268.5291,-604.9086 276.2543,-597.658 265.6937,-598.5085 268.5291,-604.9086"/>
</g>
<!-- 22927 -->
<g id="node59" class="node">
<title>22927</title>
<ellipse fill="none" stroke="#000000" cx="258.1149" cy="-698.6555" rx="32.4942" ry="18"/>
<text text-anchor="middle" x="258.1149" y="-694.9555" font-family="Times,serif" font-size="14.00" fill="#000000">22927</text>
</g>
<!-- 10834&#45;&gt;22927 -->
<g id="edge58" class="edge">
<title>10834&#45;&gt;22927</title>
<path fill="none" stroke="#000000" d="M229.9989,-639.2445C234.5699,-648.9034 240.3487,-661.1144 245.4768,-671.9504"/>
<polygon fill="#000000" stroke="#000000" points="242.3278,-673.4785 249.7691,-681.0202 248.655,-670.4841 242.3278,-673.4785"/>
</g>
<!-- 12189 -->
<g id="node51" class="node">
<title>12189</title>
<ellipse fill="none" stroke="#000000" cx="1219.5867" cy="-1763.6045" rx="32.4942" ry="18"/>
<text text-anchor="middle" x="1219.5867" y="-1759.9045" font-family="Times,serif" font-size="14.00" fill="#000000">12189</text>
</g>
<!-- 12189&#45;&gt;4637 -->
<g id="edge59" class="edge">
<title>12189&#45;&gt;4637</title>
<path fill="none" stroke="#000000" d="M1229.3898,-1781.1211C1233.9522,-1789.2733 1239.4756,-1799.1425 1244.5247,-1808.1644"/>
<polygon fill="#000000" stroke="#000000" points="1241.6165,-1810.1348 1249.5545,-1817.1519 1247.725,-1806.7162 1241.6165,-1810.1348"/>
</g>
<!-- 17819 -->
<g id="node56" class="node">
<title>17819</title>
<ellipse fill="none" stroke="#000000" cx="1138.6886" cy="-1786.0737" rx="32.4942" ry="18"/>
<text text-anchor="middle" x="1138.6886" y="-1782.3737" font-family="Times,serif" font-size="14.00" fill="#000000">17819</text>
</g>
<!-- 12189&#45;&gt;17819 -->
<g id="edge60" class="edge">
<title>12189&#45;&gt;17819</title>
<path fill="none" stroke="#000000" d="M1190.3806,-1771.7164C1186.2565,-1772.8619 1181.9629,-1774.0544 1177.6909,-1775.2409"/>
<polygon fill="#000000" stroke="#000000" points="1176.5504,-1771.9251 1167.8518,-1777.9737 1178.4238,-1778.6698 1176.5504,-1771.9251"/>
</g>
<!-- 28666 -->
<g id="node62" class="node">
<title>28666</title>
<ellipse fill="none" stroke="#000000" cx="1182.705" cy="-1836" rx="32.4942" ry="18"/>
<text text-anchor="middle" x="1182.705" y="-1832.3" font-family="Times,serif" font-size="14.00" fill="#000000">28666</text>
</g>
<!-- 12189&#45;&gt;28666 -->
<g id="edge61" class="edge">
<title>12189&#45;&gt;28666</title>
<path fill="none" stroke="#000000" d="M1210.6586,-1781.1294C1206.3096,-1789.6662 1200.9885,-1800.1111 1196.1603,-1809.5883"/>
<polygon fill="#000000" stroke="#000000" points="1192.9716,-1808.1373 1191.5508,-1818.6365 1199.2088,-1811.3149 1192.9716,-1808.1373"/>
</g>
<!-- 38930 -->
<g id="node69" class="node">
<title>38930</title>
<ellipse fill="none" stroke="#000000" cx="1301.5043" cy="-1782.8716" rx="32.4942" ry="18"/>
<text text-anchor="middle" x="1301.5043" y="-1779.1716" font-family="Times,serif" font-size="14.00" fill="#000000">38930</text>
</g>
<!-- 12189&#45;&gt;38930 -->
<g id="edge62" class="edge">
<title>12189&#45;&gt;38930</title>
<path fill="none" stroke="#000000" d="M1249.6246,-1770.6695C1253.5202,-1771.5857 1257.558,-1772.5354 1261.5824,-1773.4819"/>
<polygon fill="#000000" stroke="#000000" points="1260.9342,-1776.9249 1271.47,-1775.8075 1262.5369,-1770.1109 1260.9342,-1776.9249"/>
</g>
<!-- 20454 -->
<g id="node58" class="node">
<title>20454</title>
<ellipse fill="none" stroke="#000000" cx="1217.5701" cy="-1680.3249" rx="32.4942" ry="18"/>
<text text-anchor="middle" x="1217.5701" y="-1676.6249" font-family="Times,serif" font-size="14.00" fill="#000000">20454</text>
</g>
<!-- 12266&#45;&gt;20454 -->
<g id="edge63" class="edge">
<title>12266&#45;&gt;20454</title>
<path fill="none" stroke="#000000" d="M1216.5742,-1619.4878C1216.7313,-1629.085 1216.9271,-1641.044 1217.1034,-1651.8129"/>
<polygon fill="#000000" stroke="#000000" points="1213.6077,-1652.1122 1217.271,-1662.0535 1220.6068,-1651.9975 1213.6077,-1652.1122"/>
</g>
<!-- 12956&#45;&gt;3356 -->
<g id="edge64" class="edge">
<title>12956&#45;&gt;3356</title>
<path fill="none" stroke="#000000" d="M329.4798,-576.8194C335.2735,-574.8236 341.4509,-572.6955 347.4663,-570.6233"/>
<polygon fill="#000000" stroke="#000000" points="349.0257,-573.788 357.3405,-567.2218 346.7458,-567.1697 349.0257,-573.788"/>
</g>
<!-- 17676&#45;&gt;6939 -->
<g id="edge65" class="edge">
<title>17676&#45;&gt;6939</title>
<path fill="none" stroke="#000000" d="M1217.6836,-1460.1023C1217.5943,-1470.0686 1217.4818,-1482.6334 1217.3813,-1493.8512"/>
<polygon fill="#000000" stroke="#000000" points="1213.8796,-1494.0338 1217.2898,-1504.0648 1220.8793,-1494.0966 1213.8796,-1494.0338"/>
</g>
<!-- 18540 -->
<g id="node57" class="node">
<title>18540</title>
<ellipse fill="none" stroke="#000000" cx="543.8594" cy="-416.7899" rx="32.4942" ry="18"/>
<text text-anchor="middle" x="543.8594" y="-413.0899" font-family="Times,serif" font-size="14.00" fill="#000000">18540</text>
</g>
<!-- 20454&#45;&gt;12189 -->
<g id="edge66" class="edge">
<title>20454&#45;&gt;12189</title>
<path fill="none" stroke="#000000" d="M1218.0077,-1698.3953C1218.2693,-1709.1993 1218.6073,-1723.1597 1218.9035,-1735.3899"/>
<polygon fill="#000000" stroke="#000000" points="1215.4088,-1735.657 1219.15,-1745.5693 1222.4068,-1735.4875 1215.4088,-1735.657"/>
</g>
<!-- 30070&#45;&gt;6904 -->
<g id="edge67" class="edge">
<title>30070&#45;&gt;6904</title>
<path fill="none" stroke="#000000" d="M481.2446,-409.4428C484.7378,-396.7931 489.457,-379.7041 493.415,-365.3714"/>
<polygon fill="#000000" stroke="#000000" points="496.8459,-366.096 496.1341,-355.5251 490.0984,-364.2326 496.8459,-366.096"/>
</g>
<!-- 30070&#45;&gt;7016 -->
<g id="edge68" class="edge">
<title>30070&#45;&gt;7016</title>
<path fill="none" stroke="#000000" d="M458.102,-412.5264C454.1851,-409.2539 449.9771,-405.7383 445.8503,-402.2904"/>
<polygon fill="#000000" stroke="#000000" points="448.0304,-399.551 438.1122,-395.8253 443.5422,-404.9229 448.0304,-399.551"/>
</g>
<!-- 30070&#45;&gt;18540 -->
<g id="edge69" class="edge">
<title>30070&#45;&gt;18540</title>
<path fill="none" stroke="#000000" d="M507.6604,-422.6062C507.7639,-422.5895 507.8675,-422.5729 507.971,-422.5563"/>
<polygon fill="#000000" stroke="#000000" points="503.3176,-426.849 512.6356,-421.8068 502.207,-419.9377 503.3176,-426.849"/>
</g>
<!-- 32787&#45;&gt;2764 -->
<g id="edge70" class="edge">
<title>32787&#45;&gt;2764</title>
<path fill="none" stroke="#000000" d="M1521.498,-953.8541C1529.821,-950.5588 1539.1266,-946.8745 1547.8868,-943.4061"/>
<polygon fill="#000000" stroke="#000000" points="1549.4548,-946.5497 1557.4641,-939.6142 1546.8779,-940.0413 1549.4548,-946.5497"/>
</g>
<!-- 32787&#45;&gt;2828 -->
<g id="edge71" class="edge">
<title>32787&#45;&gt;2828</title>
<path fill="none" stroke="#000000" d="M1492.3032,-946.3436C1491.386,-940.2447 1490.3383,-933.2788 1489.3316,-926.5847"/>
<polygon fill="#000000" stroke="#000000" points="1492.7562,-925.8211 1487.8077,-916.4529 1485.834,-926.8623 1492.7562,-925.8211"/>
</g>
<!-- 32787&#45;&gt;7474 -->
<g id="edge72" class="edge">
<title>32787&#45;&gt;7474</title>
<path fill="none" stroke="#000000" d="M1497.4951,-982.3786C1498.7267,-991.3181 1500.2421,-1002.3179 1501.6217,-1012.331"/>
<polygon fill="#000000" stroke="#000000" points="1498.1603,-1012.8522 1502.9925,-1022.2809 1505.0948,-1011.8968 1498.1603,-1012.8522"/>
</g>
<!-- 38333&#45;&gt;1221 -->
<g id="edge73" class="edge">
<title>38333&#45;&gt;1221</title>
<path fill="none" stroke="#000000" d="M1590.3293,-824.0283C1593.5582,-812.7815 1597.7949,-798.0244 1601.4481,-785.3001"/>
<polygon fill="#000000" stroke="#000000" points="1604.8268,-786.2147 1604.2223,-775.6371 1598.0986,-784.283 1604.8268,-786.2147"/>
</g>
<!-- 38880&#45;&gt;6695 -->
<g id="edge74" class="edge">
<title>38880&#45;&gt;6695</title>
<path fill="none" stroke="#000000" d="M1837.4828,-955.3433C1843.0404,-945.8966 1850.0185,-934.0354 1856.1983,-923.5311"/>
<polygon fill="#000000" stroke="#000000" points="1859.3137,-925.138 1861.3678,-914.7442 1853.2803,-921.5885 1859.3137,-925.138"/>
</g>
<!-- 38880&#45;&gt;9002 -->
<g id="edge75" class="edge">
<title>38880&#45;&gt;9002</title>
<path fill="none" stroke="#000000" d="M1830.8389,-990.6801C1832.9907,-1001.3978 1835.7711,-1015.2468 1838.2068,-1027.3793"/>
<polygon fill="#000000" stroke="#000000" points="1834.8342,-1028.3621 1840.2342,-1037.4775 1841.6973,-1026.9842 1834.8342,-1028.3621"/>
</g>
<!-- 38880&#45;&gt;9443 -->
<g id="edge76" class="edge">
<title>38880&#45;&gt;9443</title>
<path fill="none" stroke="#000000" d="M1859.3612,-976.6632C1861.6758,-976.9449 1864.0236,-977.2307 1866.3704,-977.5163"/>
<polygon fill="#000000" stroke="#000000" points="1866.1981,-981.0211 1876.5477,-978.7549 1867.0439,-974.0723 1866.1981,-981.0211"/>
</g>
</g>
</svg>
