<?xml version="1.0" encoding="UTF-8" standalone="no"?>
<!DOCTYPE svg PUBLIC "-//W3C//DTD SVG 1.1//EN"
 "http://www.w3.org/Graphics/SVG/1.1/DTD/svg11.dtd">
<!-- Generated by graphviz version 2.40.1 (20161225.0304)
 -->
<!-- Title: %3 Pages: 1 -->
<svg width="2258pt" height="2443pt"
 viewBox="0.00 0.00 2258.00 2443.00" xmlns="http://www.w3.org/2000/svg" xmlns:xlink="http://www.w3.org/1999/xlink">
<g id="graph0" class="graph" transform="scale(1 1) rotate(0) translate(4 2439)">
<title>%3</title>
<polygon fill="#ffffff" stroke="transparent" points="-4,4 -4,-2439 2254,-2439 2254,4 -4,4"/>
<!-- 174 -->
<g id="node1" class="node">
<title>174</title>
<ellipse fill="none" stroke="#000000" cx="1640.971" cy="-638.565" rx="27" ry="18"/>
<text text-anchor="middle" x="1640.971" y="-634.865" font-family="Times,serif" font-size="14.00" fill="#000000">174</text>
</g>
<!-- 209 -->
<g id="node2" class="node">
<title>209</title>
<ellipse fill="none" stroke="#000000" cx="1752.6929" cy="-589.6226" rx="27" ry="18"/>
<text text-anchor="middle" x="1752.6929" y="-585.9226" font-family="Times,serif" font-size="14.00" fill="#000000">209</text>
</g>
<!-- 174&#45;&gt;209 -->
<g id="edge1" class="edge">
<title>174&#45;&gt;209</title>
<path fill="none" stroke="#000000" d="M1663.5796,-628.6608C1680.0099,-621.4631 1702.4746,-611.6219 1720.7376,-603.6214"/>
<polygon fill="#000000" stroke="#000000" points="1722.3627,-606.7306 1730.1179,-599.5121 1719.5538,-600.3189 1722.3627,-606.7306"/>
</g>
<!-- 1299 -->
<g id="node8" class="node">
<title>1299</title>
<ellipse fill="none" stroke="#000000" cx="1877.312" cy="-596.2556" rx="28.6953" ry="18"/>
<text text-anchor="middle" x="1877.312" y="-592.5556" font-family="Times,serif" font-size="14.00" fill="#000000">1299</text>
</g>
<!-- 209&#45;&gt;1299 -->
<g id="edge2" class="edge">
<title>209&#45;&gt;1299</title>
<path fill="none" stroke="#000000" d="M1779.7333,-591.0619C1796.8869,-591.9749 1819.3578,-593.1709 1838.4115,-594.1851"/>
<polygon fill="#000000" stroke="#000000" points="1838.4179,-597.6903 1848.5898,-594.7268 1838.79,-590.7002 1838.4179,-597.6903"/>
</g>
<!-- 701 -->
<g id="node3" class="node">
<title>701</title>
<ellipse fill="none" stroke="#000000" cx="1794.3113" cy="-910.1922" rx="27" ry="18"/>
<text text-anchor="middle" x="1794.3113" y="-906.4922" font-family="Times,serif" font-size="14.00" fill="#000000">701</text>
</g>
<!-- 703 -->
<g id="node4" class="node">
<title>703</title>
<ellipse fill="none" stroke="#000000" cx="1746.3116" cy="-779.0304" rx="27" ry="18"/>
<text text-anchor="middle" x="1746.3116" y="-775.3304" font-family="Times,serif" font-size="14.00" fill="#000000">703</text>
</g>
<!-- 701&#45;&gt;703 -->
<g id="edge3" class="edge">
<title>701&#45;&gt;703</title>
<path fill="none" stroke="#000000" d="M1787.8378,-892.5032C1779.7503,-870.4036 1765.8244,-832.3503 1756.3496,-806.4598"/>
<polygon fill="#000000" stroke="#000000" points="1759.5593,-805.0461 1752.8358,-796.8581 1752.9857,-807.4519 1759.5593,-805.0461"/>
</g>
<!-- 7018 -->
<g id="node37" class="node">
<title>7018</title>
<ellipse fill="none" stroke="#000000" cx="1786.1903" cy="-1081.7621" rx="28.6953" ry="18"/>
<text text-anchor="middle" x="1786.1903" y="-1078.0621" font-family="Times,serif" font-size="14.00" fill="#000000">7018</text>
</g>
<!-- 701&#45;&gt;7018 -->
<g id="edge4" class="edge">
<title>701&#45;&gt;7018</title>
<path fill="none" stroke="#000000" d="M1793.4575,-928.2289C1792.0441,-958.0911 1789.2072,-1018.0247 1787.5265,-1053.5339"/>
<polygon fill="#000000" stroke="#000000" points="1784.0216,-1053.5552 1787.0448,-1063.7096 1791.0138,-1053.8863 1784.0216,-1053.5552"/>
</g>
<!-- 2516 -->
<g id="node10" class="node">
<title>2516</title>
<ellipse fill="none" stroke="#000000" cx="1614.2914" cy="-684.7539" rx="28.6953" ry="18"/>
<text text-anchor="middle" x="1614.2914" y="-681.0539" font-family="Times,serif" font-size="14.00" fill="#000000">2516</text>
</g>
<!-- 703&#45;&gt;2516 -->
<g id="edge5" class="edge">
<title>703&#45;&gt;2516</title>
<path fill="none" stroke="#000000" d="M1727.6763,-765.7228C1705.1982,-749.671 1667.2295,-722.5573 1641.4824,-704.1711"/>
<polygon fill="#000000" stroke="#000000" points="1643.4314,-701.2622 1633.2594,-698.299 1639.3634,-706.9588 1643.4314,-701.2622"/>
</g>
<!-- 9498 -->
<g id="node44" class="node">
<title>9498</title>
<ellipse fill="none" stroke="#000000" cx="1857.3578" cy="-722.3266" rx="28.6953" ry="18"/>
<text text-anchor="middle" x="1857.3578" y="-718.6266" font-family="Times,serif" font-size="14.00" fill="#000000">9498</text>
</g>
<!-- 703&#45;&gt;9498 -->
<g id="edge6" class="edge">
<title>703&#45;&gt;9498</title>
<path fill="none" stroke="#000000" d="M1767.986,-767.9627C1784.5087,-759.5257 1807.4981,-747.7866 1826.0227,-738.3273"/>
<polygon fill="#000000" stroke="#000000" points="1827.6624,-741.42 1834.9767,-733.7551 1824.4789,-735.1857 1827.6624,-741.42"/>
</g>
<!-- 1221 -->
<g id="node5" class="node">
<title>1221</title>
<ellipse fill="none" stroke="#000000" cx="1183.1004" cy="-473.9917" rx="28.6953" ry="18"/>
<text text-anchor="middle" x="1183.1004" y="-470.2917" font-family="Times,serif" font-size="14.00" fill="#000000">1221</text>
</g>
<!-- 1239 -->
<g id="node6" class="node">
<title>1239</title>
<ellipse fill="none" stroke="#000000" cx="1710.1997" cy="-1562.46" rx="28.6953" ry="18"/>
<text text-anchor="middle" x="1710.1997" y="-1558.76" font-family="Times,serif" font-size="14.00" fill="#000000">1239</text>
</g>
<!-- 5511 -->
<g id="node28" class="node">
<title>5511</title>
<ellipse fill="none" stroke="#000000" cx="1778.7573" cy="-1658.4836" rx="28.6953" ry="18"/>
<text text-anchor="middle" x="1778.7573" y="-1654.7836" font-family="Times,serif" font-size="14.00" fill="#000000">5511</text>
</g>
<!-- 1239&#45;&gt;5511 -->
<g id="edge7" class="edge">
<title>1239&#45;&gt;5511</title>
<path fill="none" stroke="#000000" d="M1722.1415,-1579.186C1732.857,-1594.1944 1748.7303,-1616.4271 1760.945,-1633.5353"/>
<polygon fill="#000000" stroke="#000000" points="1758.2931,-1635.8444 1766.9523,-1641.9493 1763.9901,-1631.7769 1758.2931,-1635.8444"/>
</g>
<!-- 17676 -->
<g id="node55" class="node">
<title>17676</title>
<ellipse fill="none" stroke="#000000" cx="1647.1164" cy="-1724.7732" rx="32.4942" ry="18"/>
<text text-anchor="middle" x="1647.1164" y="-1721.0732" font-family="Times,serif" font-size="14.00" fill="#000000">17676</text>
</g>
<!-- 1239&#45;&gt;17676 -->
<g id="edge8" class="edge">
<title>1239&#45;&gt;17676</title>
<path fill="none" stroke="#000000" d="M1703.3286,-1580.1393C1692.3316,-1608.4346 1670.6975,-1664.0991 1657.7105,-1697.5145"/>
<polygon fill="#000000" stroke="#000000" points="1654.3394,-1696.5269 1653.979,-1707.1156 1660.8639,-1699.0627 1654.3394,-1696.5269"/>
</g>
<!-- 1273 -->
<g id="node7" class="node">
<title>1273</title>
<ellipse fill="none" stroke="#000000" cx="1744.2735" cy="-1413.006" rx="28.6953" ry="18"/>
<text text-anchor="middle" x="1744.2735" y="-1409.306" font-family="Times,serif" font-size="14.00" fill="#000000">1273</text>
</g>
<!-- 1273&#45;&gt;1239 -->
<g id="edge9" class="edge">
<title>1273&#45;&gt;1239</title>
<path fill="none" stroke="#000000" d="M1740.1634,-1431.0336C1734.305,-1456.7297 1723.4995,-1504.1247 1716.591,-1534.4267"/>
<polygon fill="#000000" stroke="#000000" points="1713.1349,-1533.8406 1714.3244,-1544.3684 1719.9597,-1535.3966 1713.1349,-1533.8406"/>
</g>
<!-- 6461 -->
<g id="node31" class="node">
<title>6461</title>
<ellipse fill="none" stroke="#000000" cx="1928.532" cy="-697.0807" rx="28.6953" ry="18"/>
<text text-anchor="middle" x="1928.532" y="-693.3807" font-family="Times,serif" font-size="14.00" fill="#000000">6461</text>
</g>
<!-- 1299&#45;&gt;6461 -->
<g id="edge10" class="edge">
<title>1299&#45;&gt;6461</title>
<path fill="none" stroke="#000000" d="M1886.2338,-613.818C1894.166,-629.4322 1905.8813,-652.4935 1914.9724,-670.3891"/>
<polygon fill="#000000" stroke="#000000" points="1912.0627,-672.3892 1919.7124,-679.7195 1918.3036,-669.2188 1912.0627,-672.3892"/>
</g>
<!-- 2497 -->
<g id="node9" class="node">
<title>2497</title>
<ellipse fill="none" stroke="#000000" cx="1882.1077" cy="-830.9857" rx="28.6953" ry="18"/>
<text text-anchor="middle" x="1882.1077" y="-827.2857" font-family="Times,serif" font-size="14.00" fill="#000000">2497</text>
</g>
<!-- 2497&#45;&gt;701 -->
<g id="edge11" class="edge">
<title>2497&#45;&gt;701</title>
<path fill="none" stroke="#000000" d="M1865.5939,-845.8838C1852.1426,-858.019 1832.9799,-875.3069 1817.91,-888.9024"/>
<polygon fill="#000000" stroke="#000000" points="1815.5349,-886.3312 1810.4544,-895.6285 1820.2239,-891.5287 1815.5349,-886.3312"/>
</g>
<!-- 32787 -->
<g id="node64" class="node">
<title>32787</title>
<ellipse fill="none" stroke="#000000" cx="1490.5489" cy="-608.4294" rx="32.4942" ry="18"/>
<text text-anchor="middle" x="1490.5489" y="-604.7294" font-family="Times,serif" font-size="14.00" fill="#000000">32787</text>
</g>
<!-- 2516&#45;&gt;32787 -->
<g id="edge12" class="edge">
<title>2516&#45;&gt;32787</title>
<path fill="none" stroke="#000000" d="M1593.8578,-672.1504C1573.9808,-659.8902 1543.5435,-641.1165 1520.8483,-627.1181"/>
<polygon fill="#000000" stroke="#000000" points="1522.6111,-624.0932 1512.2625,-621.8224 1518.9363,-630.051 1522.6111,-624.0932"/>
</g>
<!-- 2686 -->
<g id="node11" class="node">
<title>2686</title>
<ellipse fill="none" stroke="#000000" cx="774.7166" cy="-262.1224" rx="28.6953" ry="18"/>
<text text-anchor="middle" x="774.7166" y="-258.4224" font-family="Times,serif" font-size="14.00" fill="#000000">2686</text>
</g>
<!-- 3741 -->
<g id="node22" class="node">
<title>3741</title>
<ellipse fill="none" stroke="#000000" cx="806.4044" cy="-141.1981" rx="28.6953" ry="18"/>
<text text-anchor="middle" x="806.4044" y="-137.4981" font-family="Times,serif" font-size="14.00" fill="#000000">3741</text>
</g>
<!-- 2686&#45;&gt;3741 -->
<g id="edge13" class="edge">
<title>2686&#45;&gt;3741</title>
<path fill="none" stroke="#000000" d="M779.3923,-244.2796C784.5877,-224.4533 793.0429,-192.1872 799.1102,-169.0336"/>
<polygon fill="#000000" stroke="#000000" points="802.5603,-169.6747 801.7096,-159.1141 795.7889,-167.9002 802.5603,-169.6747"/>
</g>
<!-- 2687 -->
<g id="node12" class="node">
<title>2687</title>
<ellipse fill="none" stroke="#000000" cx="762.2903" cy="-406.6119" rx="28.6953" ry="18"/>
<text text-anchor="middle" x="762.2903" y="-402.9119" font-family="Times,serif" font-size="14.00" fill="#000000">2687</text>
</g>
<!-- 2687&#45;&gt;2686 -->
<g id="edge14" class="edge">
<title>2687&#45;&gt;2686</title>
<path fill="none" stroke="#000000" d="M763.839,-388.6043C765.9504,-364.0528 769.7556,-319.8074 772.259,-290.6991"/>
<polygon fill="#000000" stroke="#000000" points="775.7786,-290.62 773.1484,-280.3568 768.8044,-290.0201 775.7786,-290.62"/>
</g>
<!-- 9505 -->
<g id="node45" class="node">
<title>9505</title>
<ellipse fill="none" stroke="#000000" cx="835.2237" cy="-321.315" rx="28.6953" ry="18"/>
<text text-anchor="middle" x="835.2237" y="-317.615" font-family="Times,serif" font-size="14.00" fill="#000000">9505</text>
</g>
<!-- 2687&#45;&gt;9505 -->
<g id="edge15" class="edge">
<title>2687&#45;&gt;9505</title>
<path fill="none" stroke="#000000" d="M776.0085,-390.5682C787.0104,-377.7012 802.6119,-359.455 815.039,-344.9214"/>
<polygon fill="#000000" stroke="#000000" points="817.7283,-347.1618 821.567,-337.2868 812.408,-342.6126 817.7283,-347.1618"/>
</g>
<!-- 2764 -->
<g id="node13" class="node">
<title>2764</title>
<ellipse fill="none" stroke="#000000" cx="1352.8454" cy="-663.7267" rx="28.6953" ry="18"/>
<text text-anchor="middle" x="1352.8454" y="-660.0267" font-family="Times,serif" font-size="14.00" fill="#000000">2764</text>
</g>
<!-- 7545 -->
<g id="node40" class="node">
<title>7545</title>
<ellipse fill="none" stroke="#000000" cx="1318.1787" cy="-822.4869" rx="28.6953" ry="18"/>
<text text-anchor="middle" x="1318.1787" y="-818.7869" font-family="Times,serif" font-size="14.00" fill="#000000">7545</text>
</g>
<!-- 2764&#45;&gt;7545 -->
<g id="edge16" class="edge">
<title>2764&#45;&gt;7545</title>
<path fill="none" stroke="#000000" d="M1348.9361,-681.6299C1342.9283,-709.1434 1331.3767,-762.0454 1324.2667,-794.6065"/>
<polygon fill="#000000" stroke="#000000" points="1320.8409,-793.8891 1322.127,-804.4056 1327.6798,-795.3824 1320.8409,-793.8891"/>
</g>
<!-- 38333 -->
<g id="node66" class="node">
<title>38333</title>
<ellipse fill="none" stroke="#000000" cx="1260.0432" cy="-574.7239" rx="32.4942" ry="18"/>
<text text-anchor="middle" x="1260.0432" y="-571.0239" font-family="Times,serif" font-size="14.00" fill="#000000">38333</text>
</g>
<!-- 2764&#45;&gt;38333 -->
<g id="edge17" class="edge">
<title>2764&#45;&gt;38333</title>
<path fill="none" stroke="#000000" d="M1337.1028,-648.6286C1322.4835,-634.6078 1300.5149,-613.5386 1283.7699,-597.4793"/>
<polygon fill="#000000" stroke="#000000" points="1286.129,-594.8922 1276.4891,-590.4965 1281.2837,-599.9443 1286.129,-594.8922"/>
</g>
<!-- 38561 -->
<g id="node67" class="node">
<title>38561</title>
<ellipse fill="none" stroke="#000000" cx="1339.0278" cy="-551.0993" rx="32.4942" ry="18"/>
<text text-anchor="middle" x="1339.0278" y="-547.3993" font-family="Times,serif" font-size="14.00" fill="#000000">38561</text>
</g>
<!-- 2764&#45;&gt;38561 -->
<g id="edge18" class="edge">
<title>2764&#45;&gt;38561</title>
<path fill="none" stroke="#000000" d="M1350.6254,-645.6312C1348.4296,-627.7335 1345.0375,-600.0839 1342.488,-579.3029"/>
<polygon fill="#000000" stroke="#000000" points="1345.9341,-578.6493 1341.2424,-569.15 1338.9862,-579.5018 1345.9341,-578.6493"/>
</g>
<!-- 2828 -->
<g id="node14" class="node">
<title>2828</title>
<ellipse fill="none" stroke="#000000" cx="1531.0217" cy="-483.9574" rx="28.6953" ry="18"/>
<text text-anchor="middle" x="1531.0217" y="-480.2574" font-family="Times,serif" font-size="14.00" fill="#000000">2828</text>
</g>
<!-- 2914 -->
<g id="node15" class="node">
<title>2914</title>
<ellipse fill="none" stroke="#000000" cx="1088.7475" cy="-861.5407" rx="28.6953" ry="18"/>
<text text-anchor="middle" x="1088.7475" y="-857.8407" font-family="Times,serif" font-size="14.00" fill="#000000">2914</text>
</g>
<!-- 6453 -->
<g id="node30" class="node">
<title>6453</title>
<ellipse fill="none" stroke="#000000" cx="1230.009" cy="-848.3088" rx="28.6953" ry="18"/>
<text text-anchor="middle" x="1230.009" y="-844.6088" font-family="Times,serif" font-size="14.00" fill="#000000">6453</text>
</g>
<!-- 2914&#45;&gt;6453 -->
<g id="edge19" class="edge">
<title>2914&#45;&gt;6453</title>
<path fill="none" stroke="#000000" d="M1117.3339,-858.863C1138.6829,-856.8632 1168.0895,-854.1087 1191.5077,-851.9152"/>
<polygon fill="#000000" stroke="#000000" points="1191.8352,-855.3999 1201.4652,-850.9825 1191.1823,-848.4304 1191.8352,-855.3999"/>
</g>
<!-- 3257 -->
<g id="node16" class="node">
<title>3257</title>
<ellipse fill="none" stroke="#000000" cx="1388.047" cy="-789.1169" rx="28.6953" ry="18"/>
<text text-anchor="middle" x="1388.047" y="-785.4169" font-family="Times,serif" font-size="14.00" fill="#000000">3257</text>
</g>
<!-- 3491 -->
<g id="node19" class="node">
<title>3491</title>
<ellipse fill="none" stroke="#000000" cx="1509.7533" cy="-721.5489" rx="28.6953" ry="18"/>
<text text-anchor="middle" x="1509.7533" y="-717.8489" font-family="Times,serif" font-size="14.00" fill="#000000">3491</text>
</g>
<!-- 3257&#45;&gt;3491 -->
<g id="edge20" class="edge">
<title>3257&#45;&gt;3491</title>
<path fill="none" stroke="#000000" d="M1409.5255,-777.1927C1428.8719,-766.4521 1457.5231,-750.5457 1479.2432,-738.4872"/>
<polygon fill="#000000" stroke="#000000" points="1481.036,-741.4952 1488.0801,-733.5812 1477.6383,-735.3751 1481.036,-741.4952"/>
</g>
<!-- 3320 -->
<g id="node17" class="node">
<title>3320</title>
<ellipse fill="none" stroke="#000000" cx="1772.1254" cy="-1237.3052" rx="28.6953" ry="18"/>
<text text-anchor="middle" x="1772.1254" y="-1233.6052" font-family="Times,serif" font-size="14.00" fill="#000000">3320</text>
</g>
<!-- 3320&#45;&gt;1273 -->
<g id="edge21" class="edge">
<title>3320&#45;&gt;1273</title>
<path fill="none" stroke="#000000" d="M1769.2496,-1255.4465C1764.3794,-1286.1698 1754.4768,-1348.6397 1748.7112,-1385.011"/>
<polygon fill="#000000" stroke="#000000" points="1745.2425,-1384.5387 1747.1336,-1394.9634 1752.1561,-1385.6347 1745.2425,-1384.5387"/>
</g>
<!-- 3356 -->
<g id="node18" class="node">
<title>3356</title>
<ellipse fill="none" stroke="#000000" cx="633.8746" cy="-950.2978" rx="28.6953" ry="18"/>
<text text-anchor="middle" x="633.8746" y="-946.5978" font-family="Times,serif" font-size="14.00" fill="#000000">3356</text>
</g>
<!-- 3549 -->
<g id="node20" class="node">
<title>3549</title>
<ellipse fill="none" stroke="#000000" cx="767.0884" cy="-835.5033" rx="28.6953" ry="18"/>
<text text-anchor="middle" x="767.0884" y="-831.8033" font-family="Times,serif" font-size="14.00" fill="#000000">3549</text>
</g>
<!-- 3356&#45;&gt;3549 -->
<g id="edge22" class="edge">
<title>3356&#45;&gt;3549</title>
<path fill="none" stroke="#000000" d="M650.7462,-935.759C673.8413,-915.8572 715.471,-879.9836 742.1651,-856.9804"/>
<polygon fill="#000000" stroke="#000000" points="744.6424,-859.466 749.933,-850.2866 740.0728,-854.1632 744.6424,-859.466"/>
</g>
<!-- 3491&#45;&gt;174 -->
<g id="edge23" class="edge">
<title>3491&#45;&gt;174</title>
<path fill="none" stroke="#000000" d="M1529.9685,-708.7645C1552.1218,-694.7544 1587.8185,-672.1794 1612.731,-656.4244"/>
<polygon fill="#000000" stroke="#000000" points="1614.7953,-659.2601 1621.3763,-650.957 1611.0538,-653.3439 1614.7953,-659.2601"/>
</g>
<!-- 6762 -->
<g id="node33" class="node">
<title>6762</title>
<ellipse fill="none" stroke="#000000" cx="922.0192" cy="-856.0775" rx="28.6953" ry="18"/>
<text text-anchor="middle" x="922.0192" y="-852.3775" font-family="Times,serif" font-size="14.00" fill="#000000">6762</text>
</g>
<!-- 3549&#45;&gt;6762 -->
<g id="edge24" class="edge">
<title>3549&#45;&gt;6762</title>
<path fill="none" stroke="#000000" d="M795.1452,-839.2291C819.9657,-842.5252 856.4008,-847.3636 883.8657,-851.0108"/>
<polygon fill="#000000" stroke="#000000" points="883.536,-854.4977 893.9098,-852.3447 884.4576,-847.5586 883.536,-854.4977"/>
</g>
<!-- 30070 -->
<g id="node63" class="node">
<title>30070</title>
<ellipse fill="none" stroke="#000000" cx="700.5978" cy="-699.3552" rx="32.4942" ry="18"/>
<text text-anchor="middle" x="700.5978" y="-695.6552" font-family="Times,serif" font-size="14.00" fill="#000000">30070</text>
</g>
<!-- 3549&#45;&gt;30070 -->
<g id="edge25" class="edge">
<title>3549&#45;&gt;30070</title>
<path fill="none" stroke="#000000" d="M758.6673,-818.26C747.289,-794.9614 726.8972,-753.2068 713.5582,-725.8934"/>
<polygon fill="#000000" stroke="#000000" points="716.6939,-724.3383 709.1605,-716.8885 710.4039,-727.4101 716.6939,-724.3383"/>
</g>
<!-- 3597 -->
<g id="node21" class="node">
<title>3597</title>
<ellipse fill="none" stroke="#000000" cx="121.0519" cy="-1302.018" rx="28.6953" ry="18"/>
<text text-anchor="middle" x="121.0519" y="-1298.318" font-family="Times,serif" font-size="14.00" fill="#000000">3597</text>
</g>
<!-- 37179 -->
<g id="node65" class="node">
<title>37179</title>
<ellipse fill="none" stroke="#000000" cx="840.4888" cy="-18.3542" rx="32.4942" ry="18"/>
<text text-anchor="middle" x="840.4888" y="-14.6542" font-family="Times,serif" font-size="14.00" fill="#000000">37179</text>
</g>
<!-- 3741&#45;&gt;37179 -->
<g id="edge26" class="edge">
<title>3741&#45;&gt;37179</title>
<path fill="none" stroke="#000000" d="M811.3605,-123.3355C816.9897,-103.0475 826.2434,-69.6962 832.8089,-46.0332"/>
<polygon fill="#000000" stroke="#000000" points="836.2255,-46.8101 835.5266,-36.2384 829.4804,-44.9385 836.2255,-46.8101"/>
</g>
<!-- 4635 -->
<g id="node23" class="node">
<title>4635</title>
<ellipse fill="none" stroke="#000000" cx="1201.3051" cy="-804.0599" rx="28.6953" ry="18"/>
<text text-anchor="middle" x="1201.3051" y="-800.3599" font-family="Times,serif" font-size="14.00" fill="#000000">4635</text>
</g>
<!-- 4637 -->
<g id="node24" class="node">
<title>4637</title>
<ellipse fill="none" stroke="#000000" cx="1478.2009" cy="-2379.4983" rx="28.6953" ry="18"/>
<text text-anchor="middle" x="1478.2009" y="-2375.7983" font-family="Times,serif" font-size="14.00" fill="#000000">4637</text>
</g>
<!-- 4739 -->
<g id="node25" class="node">
<title>4739</title>
<ellipse fill="none" stroke="#000000" cx="1358.0319" cy="-961.7657" rx="28.6953" ry="18"/>
<text text-anchor="middle" x="1358.0319" y="-958.0657" font-family="Times,serif" font-size="14.00" fill="#000000">4739</text>
</g>
<!-- 38880 -->
<g id="node68" class="node">
<title>38880</title>
<ellipse fill="none" stroke="#000000" cx="1413.3903" cy="-1118.305" rx="32.4942" ry="18"/>
<text text-anchor="middle" x="1413.3903" y="-1114.605" font-family="Times,serif" font-size="14.00" fill="#000000">38880</text>
</g>
<!-- 4739&#45;&gt;38880 -->
<g id="edge27" class="edge">
<title>4739&#45;&gt;38880</title>
<path fill="none" stroke="#000000" d="M1364.2746,-979.4185C1373.8684,-1006.547 1392.3149,-1058.709 1403.6687,-1090.8146"/>
<polygon fill="#000000" stroke="#000000" points="1400.4517,-1092.2157 1407.0855,-1100.4766 1407.0511,-1089.8818 1400.4517,-1092.2157"/>
</g>
<!-- 4755 -->
<g id="node26" class="node">
<title>4755</title>
<ellipse fill="none" stroke="#000000" cx="2119.3812" cy="-588.0131" rx="28.6953" ry="18"/>
<text text-anchor="middle" x="2119.3812" y="-584.3131" font-family="Times,serif" font-size="14.00" fill="#000000">4755</text>
</g>
<!-- 9583 -->
<g id="node46" class="node">
<title>9583</title>
<ellipse fill="none" stroke="#000000" cx="2221.0527" cy="-538.5354" rx="28.6953" ry="18"/>
<text text-anchor="middle" x="2221.0527" y="-534.8354" font-family="Times,serif" font-size="14.00" fill="#000000">9583</text>
</g>
<!-- 4755&#45;&gt;9583 -->
<g id="edge28" class="edge">
<title>4755&#45;&gt;9583</title>
<path fill="none" stroke="#000000" d="M2142.1983,-576.9093C2156.0648,-570.1613 2173.9761,-561.4449 2189.2228,-554.0252"/>
<polygon fill="#000000" stroke="#000000" points="2190.8515,-557.1251 2198.3118,-549.6021 2187.7884,-550.8308 2190.8515,-557.1251"/>
</g>
<!-- 4826 -->
<g id="node27" class="node">
<title>4826</title>
<ellipse fill="none" stroke="#000000" cx="1604.436" cy="-1294.6302" rx="28.6953" ry="18"/>
<text text-anchor="middle" x="1604.436" y="-1290.9302" font-family="Times,serif" font-size="14.00" fill="#000000">4826</text>
</g>
<!-- 15412 -->
<g id="node54" class="node">
<title>15412</title>
<ellipse fill="none" stroke="#000000" cx="1697.996" cy="-1350.5409" rx="32.4942" ry="18"/>
<text text-anchor="middle" x="1697.996" y="-1346.8409" font-family="Times,serif" font-size="14.00" fill="#000000">15412</text>
</g>
<!-- 4826&#45;&gt;15412 -->
<g id="edge29" class="edge">
<title>4826&#45;&gt;15412</title>
<path fill="none" stroke="#000000" d="M1625.2,-1307.0386C1637.4769,-1314.3752 1653.2591,-1323.8065 1666.9884,-1332.011"/>
<polygon fill="#000000" stroke="#000000" points="1665.2772,-1335.0657 1675.6567,-1337.1911 1668.868,-1329.0569 1665.2772,-1335.0657"/>
</g>
<!-- 5692 -->
<g id="node29" class="node">
<title>5692</title>
<ellipse fill="none" stroke="#000000" cx="207.361" cy="-1301.5077" rx="28.6953" ry="18"/>
<text text-anchor="middle" x="207.361" y="-1297.8077" font-family="Times,serif" font-size="14.00" fill="#000000">5692</text>
</g>
<!-- 5692&#45;&gt;3597 -->
<g id="edge30" class="edge">
<title>5692&#45;&gt;3597</title>
<path fill="none" stroke="#000000" d="M178.6213,-1301.6776C172.6525,-1301.7129 166.268,-1301.7507 160.0028,-1301.7877"/>
<polygon fill="#000000" stroke="#000000" points="159.6451,-1298.2897 149.6661,-1301.8488 159.6866,-1305.2895 159.6451,-1298.2897"/>
</g>
<!-- 10834 -->
<g id="node49" class="node">
<title>10834</title>
<ellipse fill="none" stroke="#000000" cx="355.2653" cy="-1187.692" rx="32.4942" ry="18"/>
<text text-anchor="middle" x="355.2653" y="-1183.992" font-family="Times,serif" font-size="14.00" fill="#000000">10834</text>
</g>
<!-- 5692&#45;&gt;10834 -->
<g id="edge31" class="edge">
<title>5692&#45;&gt;10834</title>
<path fill="none" stroke="#000000" d="M225.497,-1287.5517C251.1623,-1267.8016 298.2712,-1231.5503 328.1155,-1208.5844"/>
<polygon fill="#000000" stroke="#000000" points="330.2525,-1211.3563 336.0432,-1202.4839 325.9835,-1205.8087 330.2525,-1211.3563"/>
</g>
<!-- 11008 -->
<g id="node50" class="node">
<title>11008</title>
<ellipse fill="none" stroke="#000000" cx="102.1329" cy="-1363.4745" rx="32.4942" ry="18"/>
<text text-anchor="middle" x="102.1329" y="-1359.7745" font-family="Times,serif" font-size="14.00" fill="#000000">11008</text>
</g>
<!-- 5692&#45;&gt;11008 -->
<g id="edge32" class="edge">
<title>5692&#45;&gt;11008</title>
<path fill="none" stroke="#000000" d="M186.3194,-1313.8987C171.239,-1322.7793 150.6671,-1334.8936 133.6343,-1344.9239"/>
<polygon fill="#000000" stroke="#000000" points="131.4339,-1342.1578 124.593,-1350.2481 134.986,-1348.1897 131.4339,-1342.1578"/>
</g>
<!-- 27865 -->
<g id="node60" class="node">
<title>27865</title>
<ellipse fill="none" stroke="#000000" cx="310.9896" cy="-1338.3694" rx="32.4942" ry="18"/>
<text text-anchor="middle" x="310.9896" y="-1334.6694" font-family="Times,serif" font-size="14.00" fill="#000000">27865</text>
</g>
<!-- 5692&#45;&gt;27865 -->
<g id="edge33" class="edge">
<title>5692&#45;&gt;27865</title>
<path fill="none" stroke="#000000" d="M232.4466,-1310.4309C244.8826,-1314.8545 260.1473,-1320.2843 273.902,-1325.177"/>
<polygon fill="#000000" stroke="#000000" points="272.994,-1328.5688 283.5887,-1328.6226 275.34,-1321.9736 272.994,-1328.5688"/>
</g>
<!-- 28065 -->
<g id="node61" class="node">
<title>28065</title>
<ellipse fill="none" stroke="#000000" cx="263.5913" cy="-1445.239" rx="32.4942" ry="18"/>
<text text-anchor="middle" x="263.5913" y="-1441.539" font-family="Times,serif" font-size="14.00" fill="#000000">28065</text>
</g>
<!-- 5692&#45;&gt;28065 -->
<g id="edge34" class="edge">
<title>5692&#45;&gt;28065</title>
<path fill="none" stroke="#000000" d="M214.2559,-1319.132C223.9098,-1343.8084 241.544,-1388.8835 252.906,-1417.9261"/>
<polygon fill="#000000" stroke="#000000" points="249.7371,-1419.433 256.6399,-1427.4705 256.256,-1416.8826 249.7371,-1419.433"/>
</g>
<!-- 52317 -->
<g id="node70" class="node">
<title>52317</title>
<ellipse fill="none" stroke="#000000" cx="112.4959" cy="-1412.193" rx="32.4942" ry="18"/>
<text text-anchor="middle" x="112.4959" y="-1408.493" font-family="Times,serif" font-size="14.00" fill="#000000">52317</text>
</g>
<!-- 5692&#45;&gt;52317 -->
<g id="edge35" class="edge">
<title>5692&#45;&gt;52317</title>
<path fill="none" stroke="#000000" d="M193.7691,-1317.3662C177.9599,-1335.8119 151.6854,-1366.4681 133.3028,-1387.9163"/>
<polygon fill="#000000" stroke="#000000" points="130.5323,-1385.7704 126.6821,-1395.641 135.8473,-1390.3258 130.5323,-1385.7704"/>
</g>
<!-- 52375 -->
<g id="node71" class="node">
<title>52375</title>
<ellipse fill="none" stroke="#000000" cx="185.605" cy="-1440.4803" rx="32.4942" ry="18"/>
<text text-anchor="middle" x="185.605" y="-1436.7803" font-family="Times,serif" font-size="14.00" fill="#000000">52375</text>
</g>
<!-- 5692&#45;&gt;52375 -->
<g id="edge36" class="edge">
<title>5692&#45;&gt;52375</title>
<path fill="none" stroke="#000000" d="M204.5168,-1319.6759C200.8359,-1343.1888 194.3821,-1384.4142 190.051,-1412.0801"/>
<polygon fill="#000000" stroke="#000000" points="186.5388,-1411.8866 188.4499,-1422.3076 193.4546,-1412.9693 186.5388,-1411.8866"/>
</g>
<!-- 52376 -->
<g id="node72" class="node">
<title>52376</title>
<ellipse fill="none" stroke="#000000" cx="211.5674" cy="-1235.1484" rx="32.4942" ry="18"/>
<text text-anchor="middle" x="211.5674" y="-1231.4484" font-family="Times,serif" font-size="14.00" fill="#000000">52376</text>
</g>
<!-- 5692&#45;&gt;52376 -->
<g id="edge37" class="edge">
<title>5692&#45;&gt;52376</title>
<path fill="none" stroke="#000000" d="M208.5104,-1283.3747C208.8999,-1277.23 209.3448,-1270.2118 209.7723,-1263.4674"/>
<polygon fill="#000000" stroke="#000000" points="213.2797,-1263.4608 210.4194,-1253.2594 206.2937,-1263.0179 213.2797,-1263.4608"/>
</g>
<!-- 52380 -->
<g id="node73" class="node">
<title>52380</title>
<ellipse fill="none" stroke="#000000" cx="181.1367" cy="-1366.3366" rx="32.4942" ry="18"/>
<text text-anchor="middle" x="181.1367" y="-1362.6366" font-family="Times,serif" font-size="14.00" fill="#000000">52380</text>
</g>
<!-- 5692&#45;&gt;52380 -->
<g id="edge38" class="edge">
<title>5692&#45;&gt;52380</title>
<path fill="none" stroke="#000000" d="M200.1951,-1319.2225C197.7089,-1325.3684 194.861,-1332.4088 192.1378,-1339.1408"/>
<polygon fill="#000000" stroke="#000000" points="188.7993,-1338.0604 188.2939,-1348.6432 195.2885,-1340.6855 188.7993,-1338.0604"/>
</g>
<!-- 52413 -->
<g id="node74" class="node">
<title>52413</title>
<ellipse fill="none" stroke="#000000" cx="266.9266" cy="-1383.574" rx="32.4942" ry="18"/>
<text text-anchor="middle" x="266.9266" y="-1379.874" font-family="Times,serif" font-size="14.00" fill="#000000">52413</text>
</g>
<!-- 5692&#45;&gt;52413 -->
<g id="edge39" class="edge">
<title>5692&#45;&gt;52413</title>
<path fill="none" stroke="#000000" d="M219.415,-1318.115C227.8366,-1329.7179 239.2318,-1345.4176 248.7513,-1358.5331"/>
<polygon fill="#000000" stroke="#000000" points="245.9794,-1360.6726 254.6861,-1366.7096 251.6445,-1356.5608 245.9794,-1360.6726"/>
</g>
<!-- 52431 -->
<g id="node75" class="node">
<title>52431</title>
<ellipse fill="none" stroke="#000000" cx="86.7826" cy="-1247.1916" rx="32.4942" ry="18"/>
<text text-anchor="middle" x="86.7826" y="-1243.4916" font-family="Times,serif" font-size="14.00" fill="#000000">52431</text>
</g>
<!-- 5692&#45;&gt;52431 -->
<g id="edge40" class="edge">
<title>5692&#45;&gt;52431</title>
<path fill="none" stroke="#000000" d="M183.826,-1290.9061C166.1565,-1282.9466 141.676,-1271.919 121.7239,-1262.9313"/>
<polygon fill="#000000" stroke="#000000" points="122.8978,-1259.6215 112.3426,-1258.7054 120.0228,-1266.0038 122.8978,-1259.6215"/>
</g>
<!-- 262230 -->
<g id="node76" class="node">
<title>262230</title>
<ellipse fill="none" stroke="#000000" cx="131.3772" cy="-1198.9891" rx="37.0935" ry="18"/>
<text text-anchor="middle" x="131.3772" y="-1195.2891" font-family="Times,serif" font-size="14.00" fill="#000000">262230</text>
</g>
<!-- 5692&#45;&gt;262230 -->
<g id="edge41" class="edge">
<title>5692&#45;&gt;262230</title>
<path fill="none" stroke="#000000" d="M195.1529,-1285.0363C183.0022,-1268.6424 164.1893,-1243.2598 150.1404,-1224.3047"/>
<polygon fill="#000000" stroke="#000000" points="152.8282,-1222.0532 144.0618,-1216.1033 147.2044,-1226.2214 152.8282,-1222.0532"/>
</g>
<!-- 264608 -->
<g id="node77" class="node">
<title>264608</title>
<ellipse fill="none" stroke="#000000" cx="37.1697" cy="-1309.5677" rx="37.0935" ry="18"/>
<text text-anchor="middle" x="37.1697" y="-1305.8677" font-family="Times,serif" font-size="14.00" fill="#000000">264608</text>
</g>
<!-- 5692&#45;&gt;264608 -->
<g id="edge42" class="edge">
<title>5692&#45;&gt;264608</title>
<path fill="none" stroke="#000000" d="M178.4904,-1302.875C152.7856,-1304.0923 114.6918,-1305.8964 84.5296,-1307.3248"/>
<polygon fill="#000000" stroke="#000000" points="84.0481,-1303.8436 74.2249,-1307.8128 84.3793,-1310.8357 84.0481,-1303.8436"/>
</g>
<!-- 6453&#45;&gt;3257 -->
<g id="edge43" class="edge">
<title>6453&#45;&gt;3257</title>
<path fill="none" stroke="#000000" d="M1254.7025,-839.06C1281.2991,-829.0985 1323.8104,-813.1762 1353.6676,-801.9935"/>
<polygon fill="#000000" stroke="#000000" points="1355.1296,-805.1834 1363.2667,-798.3982 1352.6744,-798.6281 1355.1296,-805.1834"/>
</g>
<!-- 6461&#45;&gt;2497 -->
<g id="edge44" class="edge">
<title>6461&#45;&gt;2497</title>
<path fill="none" stroke="#000000" d="M1922.3672,-714.8622C1914.4938,-737.5721 1900.7884,-777.1035 1891.5839,-803.653"/>
<polygon fill="#000000" stroke="#000000" points="1888.2669,-802.5358 1888.298,-813.1306 1894.8807,-804.8288 1888.2669,-802.5358"/>
</g>
<!-- 6695 -->
<g id="node32" class="node">
<title>6695</title>
<ellipse fill="none" stroke="#000000" cx="1346.1017" cy="-1208.3157" rx="28.6953" ry="18"/>
<text text-anchor="middle" x="1346.1017" y="-1204.6157" font-family="Times,serif" font-size="14.00" fill="#000000">6695</text>
</g>
<!-- 6762&#45;&gt;2914 -->
<g id="edge45" class="edge">
<title>6762&#45;&gt;2914</title>
<path fill="none" stroke="#000000" d="M950.6808,-857.0166C978.0819,-857.9145 1019.5999,-859.2749 1049.9525,-860.2695"/>
<polygon fill="#000000" stroke="#000000" points="1050.0721,-863.7752 1060.1814,-860.6046 1050.3015,-856.7789 1050.0721,-863.7752"/>
</g>
<!-- 6904 -->
<g id="node34" class="node">
<title>6904</title>
<ellipse fill="none" stroke="#000000" cx="733.2991" cy="-541.1388" rx="28.6953" ry="18"/>
<text text-anchor="middle" x="733.2991" y="-537.4388" font-family="Times,serif" font-size="14.00" fill="#000000">6904</text>
</g>
<!-- 6904&#45;&gt;2687 -->
<g id="edge46" class="edge">
<title>6904&#45;&gt;2687</title>
<path fill="none" stroke="#000000" d="M737.1489,-523.2747C742.044,-500.5598 750.5491,-461.0939 756.2965,-434.4248"/>
<polygon fill="#000000" stroke="#000000" points="759.7392,-435.0629 758.4245,-424.5499 752.8963,-433.5881 759.7392,-435.0629"/>
</g>
<!-- 6939 -->
<g id="node35" class="node">
<title>6939</title>
<ellipse fill="none" stroke="#000000" cx="1592.4461" cy="-1858.7201" rx="28.6953" ry="18"/>
<text text-anchor="middle" x="1592.4461" y="-1855.0201" font-family="Times,serif" font-size="14.00" fill="#000000">6939</text>
</g>
<!-- 12266 -->
<g id="node52" class="node">
<title>12266</title>
<ellipse fill="none" stroke="#000000" cx="1529.1222" cy="-2007.5008" rx="32.4942" ry="18"/>
<text text-anchor="middle" x="1529.1222" y="-2003.8008" font-family="Times,serif" font-size="14.00" fill="#000000">12266</text>
</g>
<!-- 6939&#45;&gt;12266 -->
<g id="edge47" class="edge">
<title>6939&#45;&gt;12266</title>
<path fill="none" stroke="#000000" d="M1584.9334,-1876.3714C1573.9839,-1902.0974 1553.5477,-1950.1126 1540.6758,-1980.3554"/>
<polygon fill="#000000" stroke="#000000" points="1537.321,-1979.3004 1536.6252,-1989.8724 1543.7619,-1982.0419 1537.321,-1979.3004"/>
</g>
<!-- 7016 -->
<g id="node36" class="node">
<title>7016</title>
<ellipse fill="none" stroke="#000000" cx="576.5602" cy="-647.765" rx="28.6953" ry="18"/>
<text text-anchor="middle" x="576.5602" y="-644.065" font-family="Times,serif" font-size="14.00" fill="#000000">7016</text>
</g>
<!-- 7922 -->
<g id="node41" class="node">
<title>7922</title>
<ellipse fill="none" stroke="#000000" cx="476.8154" cy="-587.9069" rx="28.6953" ry="18"/>
<text text-anchor="middle" x="476.8154" y="-584.2069" font-family="Times,serif" font-size="14.00" fill="#000000">7922</text>
</g>
<!-- 7016&#45;&gt;7922 -->
<g id="edge48" class="edge">
<title>7016&#45;&gt;7922</title>
<path fill="none" stroke="#000000" d="M555.4069,-635.0706C541.1614,-626.5217 522.1735,-615.1268 506.4303,-605.6791"/>
<polygon fill="#000000" stroke="#000000" points="507.9717,-602.5223 497.5962,-600.3777 504.3697,-608.5245 507.9717,-602.5223"/>
</g>
<!-- 7018&#45;&gt;3320 -->
<g id="edge49" class="edge">
<title>7018&#45;&gt;3320</title>
<path fill="none" stroke="#000000" d="M1784.5494,-1099.9092C1782.1145,-1126.8368 1777.5245,-1177.5973 1774.6568,-1209.3107"/>
<polygon fill="#000000" stroke="#000000" points="1771.1708,-1208.999 1773.7559,-1219.2736 1778.1423,-1209.6295 1771.1708,-1208.999"/>
</g>
<!-- 7473 -->
<g id="node38" class="node">
<title>7473</title>
<ellipse fill="none" stroke="#000000" cx="1982.6652" cy="-757.4071" rx="28.6953" ry="18"/>
<text text-anchor="middle" x="1982.6652" y="-753.7071" font-family="Times,serif" font-size="14.00" fill="#000000">7473</text>
</g>
<!-- 7474 -->
<g id="node39" class="node">
<title>7474</title>
<ellipse fill="none" stroke="#000000" cx="1453.6461" cy="-481.8777" rx="28.6953" ry="18"/>
<text text-anchor="middle" x="1453.6461" y="-478.1777" font-family="Times,serif" font-size="14.00" fill="#000000">7474</text>
</g>
<!-- 7545&#45;&gt;4635 -->
<g id="edge50" class="edge">
<title>7545&#45;&gt;4635</title>
<path fill="none" stroke="#000000" d="M1290.1846,-818.0732C1274.8613,-815.6572 1255.6635,-812.6304 1239.0348,-810.0086"/>
<polygon fill="#000000" stroke="#000000" points="1239.4939,-806.5378 1229.0708,-808.4376 1238.4037,-813.4524 1239.4939,-806.5378"/>
</g>
<!-- 7545&#45;&gt;4739 -->
<g id="edge51" class="edge">
<title>7545&#45;&gt;4739</title>
<path fill="none" stroke="#000000" d="M1323.3072,-840.41C1330.0927,-864.1239 1342.1229,-906.1667 1350.0886,-934.0053"/>
<polygon fill="#000000" stroke="#000000" points="1346.8071,-935.2601 1352.9231,-943.9114 1353.537,-933.3343 1346.8071,-935.2601"/>
</g>
<!-- 9942 -->
<g id="node47" class="node">
<title>9942</title>
<ellipse fill="none" stroke="#000000" cx="1230.7799" cy="-743.5679" rx="28.6953" ry="18"/>
<text text-anchor="middle" x="1230.7799" y="-739.8679" font-family="Times,serif" font-size="14.00" fill="#000000">9942</text>
</g>
<!-- 7545&#45;&gt;9942 -->
<g id="edge52" class="edge">
<title>7545&#45;&gt;9942</title>
<path fill="none" stroke="#000000" d="M1301.7397,-807.6428C1288.5556,-795.738 1269.8598,-778.856 1254.9679,-765.4091"/>
<polygon fill="#000000" stroke="#000000" points="1256.9128,-762.4495 1247.1452,-758.3454 1252.2215,-767.6449 1256.9128,-762.4495"/>
</g>
<!-- 9002 -->
<g id="node42" class="node">
<title>9002</title>
<ellipse fill="none" stroke="#000000" cx="1413.1032" cy="-1227.3496" rx="28.6953" ry="18"/>
<text text-anchor="middle" x="1413.1032" y="-1223.6496" font-family="Times,serif" font-size="14.00" fill="#000000">9002</text>
</g>
<!-- 9443 -->
<g id="node43" class="node">
<title>9443</title>
<ellipse fill="none" stroke="#000000" cx="1506.2419" cy="-1206.6871" rx="28.6953" ry="18"/>
<text text-anchor="middle" x="1506.2419" y="-1202.9871" font-family="Times,serif" font-size="14.00" fill="#000000">9443</text>
</g>
<!-- 9443&#45;&gt;4826 -->
<g id="edge53" class="edge">
<title>9443&#45;&gt;4826</title>
<path fill="none" stroke="#000000" d="M1522.8992,-1221.6055C1538.5577,-1235.6293 1562.1845,-1256.7896 1579.9804,-1272.7276"/>
<polygon fill="#000000" stroke="#000000" points="1577.9127,-1275.5743 1587.697,-1279.6387 1582.5828,-1270.3599 1577.9127,-1275.5743"/>
</g>
<!-- 9498&#45;&gt;7473 -->
<g id="edge54" class="edge">
<title>9498&#45;&gt;7473</title>
<path fill="none" stroke="#000000" d="M1883.6263,-729.6806C1901.9216,-734.8025 1926.5512,-741.6977 1946.6716,-747.3305"/>
<polygon fill="#000000" stroke="#000000" points="1945.8579,-750.7372 1956.4312,-750.0628 1947.7451,-743.9964 1945.8579,-750.7372"/>
</g>
<!-- 10026 -->
<g id="node48" class="node">
<title>10026</title>
<ellipse fill="none" stroke="#000000" cx="1996.8846" cy="-649.4285" rx="32.4942" ry="18"/>
<text text-anchor="middle" x="1996.8846" y="-645.7285" font-family="Times,serif" font-size="14.00" fill="#000000">10026</text>
</g>
<!-- 9498&#45;&gt;10026 -->
<g id="edge55" class="edge">
<title>9498&#45;&gt;10026</title>
<path fill="none" stroke="#000000" d="M1879.4662,-710.7757C1902.1872,-698.9047 1937.8265,-680.2844 1963.8852,-666.6696"/>
<polygon fill="#000000" stroke="#000000" points="1965.7681,-669.6348 1973.0106,-661.9019 1962.5266,-663.4306 1965.7681,-669.6348"/>
</g>
<!-- 10026&#45;&gt;4755 -->
<g id="edge56" class="edge">
<title>10026&#45;&gt;4755</title>
<path fill="none" stroke="#000000" d="M2021.086,-637.2948C2040.1928,-627.7153 2067.0045,-614.2729 2087.8001,-603.8467"/>
<polygon fill="#000000" stroke="#000000" points="2089.5115,-606.904 2096.8823,-599.2933 2086.3742,-600.6464 2089.5115,-606.904"/>
</g>
<!-- 12956 -->
<g id="node53" class="node">
<title>12956</title>
<ellipse fill="none" stroke="#000000" cx="506.8165" cy="-1056.6761" rx="32.4942" ry="18"/>
<text text-anchor="middle" x="506.8165" y="-1052.9761" font-family="Times,serif" font-size="14.00" fill="#000000">12956</text>
</g>
<!-- 10834&#45;&gt;12956 -->
<g id="edge57" class="edge">
<title>10834&#45;&gt;12956</title>
<path fill="none" stroke="#000000" d="M372.9468,-1172.4064C399.7536,-1149.2319 450.8023,-1105.1003 481.529,-1078.5372"/>
<polygon fill="#000000" stroke="#000000" points="483.9716,-1081.0521 489.2477,-1071.8643 479.3937,-1075.7566 483.9716,-1081.0521"/>
</g>
<!-- 22927 -->
<g id="node59" class="node">
<title>22927</title>
<ellipse fill="none" stroke="#000000" cx="422.4522" cy="-1275.3187" rx="32.4942" ry="18"/>
<text text-anchor="middle" x="422.4522" y="-1271.6187" font-family="Times,serif" font-size="14.00" fill="#000000">22927</text>
</g>
<!-- 10834&#45;&gt;22927 -->
<g id="edge58" class="edge">
<title>10834&#45;&gt;22927</title>
<path fill="none" stroke="#000000" d="M368.2196,-1204.5873C378.165,-1217.5583 392.0507,-1235.6684 403.2817,-1250.3161"/>
<polygon fill="#000000" stroke="#000000" points="400.6754,-1252.6691 409.5377,-1258.4753 406.2305,-1248.4098 400.6754,-1252.6691"/>
</g>
<!-- 12189 -->
<g id="node51" class="node">
<title>12189</title>
<ellipse fill="none" stroke="#000000" cx="1406.8487" cy="-2290.8851" rx="32.4942" ry="18"/>
<text text-anchor="middle" x="1406.8487" y="-2287.1851" font-family="Times,serif" font-size="14.00" fill="#000000">12189</text>
</g>
<!-- 12189&#45;&gt;4637 -->
<g id="edge59" class="edge">
<title>12189&#45;&gt;4637</title>
<path fill="none" stroke="#000000" d="M1420.2695,-2307.5526C1431.101,-2321.0044 1446.4896,-2340.1156 1458.6843,-2355.2604"/>
<polygon fill="#000000" stroke="#000000" points="1456.0835,-2357.6112 1465.0813,-2363.205 1461.5358,-2353.221 1456.0835,-2357.6112"/>
</g>
<!-- 17819 -->
<g id="node56" class="node">
<title>17819</title>
<ellipse fill="none" stroke="#000000" cx="1311.1178" cy="-2375.7134" rx="32.4942" ry="18"/>
<text text-anchor="middle" x="1311.1178" y="-2372.0134" font-family="Times,serif" font-size="14.00" fill="#000000">17819</text>
</g>
<!-- 12189&#45;&gt;17819 -->
<g id="edge60" class="edge">
<title>12189&#45;&gt;17819</title>
<path fill="none" stroke="#000000" d="M1389.2902,-2306.4439C1374.4462,-2319.5973 1352.9963,-2338.6044 1336.3188,-2353.3825"/>
<polygon fill="#000000" stroke="#000000" points="1333.7282,-2351.0017 1328.565,-2360.2533 1338.3706,-2356.2408 1333.7282,-2351.0017"/>
</g>
<!-- 28666 -->
<g id="node62" class="node">
<title>28666</title>
<ellipse fill="none" stroke="#000000" cx="1403.6207" cy="-2416.885" rx="32.4942" ry="18"/>
<text text-anchor="middle" x="1403.6207" y="-2413.185" font-family="Times,serif" font-size="14.00" fill="#000000">28666</text>
</g>
<!-- 12189&#45;&gt;28666 -->
<g id="edge61" class="edge">
<title>12189&#45;&gt;28666</title>
<path fill="none" stroke="#000000" d="M1406.3862,-2308.9378C1405.8517,-2329.8027 1404.9655,-2364.3923 1404.3406,-2388.7844"/>
<polygon fill="#000000" stroke="#000000" points="1400.8397,-2388.7793 1404.0823,-2398.8657 1407.8374,-2388.9587 1400.8397,-2388.7793"/>
</g>
<!-- 38930 -->
<g id="node69" class="node">
<title>38930</title>
<ellipse fill="none" stroke="#000000" cx="1296.9441" cy="-2322.7765" rx="32.4942" ry="18"/>
<text text-anchor="middle" x="1296.9441" y="-2319.0765" font-family="Times,serif" font-size="14.00" fill="#000000">38930</text>
</g>
<!-- 12189&#45;&gt;38930 -->
<g id="edge62" class="edge">
<title>12189&#45;&gt;38930</title>
<path fill="none" stroke="#000000" d="M1377.9726,-2299.2642C1365.0758,-2303.0065 1349.6845,-2307.4726 1335.7977,-2311.5022"/>
<polygon fill="#000000" stroke="#000000" points="1334.6374,-2308.1945 1326.009,-2314.3427 1336.5882,-2314.9172 1334.6374,-2308.1945"/>
</g>
<!-- 20454 -->
<g id="node58" class="node">
<title>20454</title>
<ellipse fill="none" stroke="#000000" cx="1472.7364" cy="-2139.3472" rx="32.4942" ry="18"/>
<text text-anchor="middle" x="1472.7364" y="-2135.6472" font-family="Times,serif" font-size="14.00" fill="#000000">20454</text>
</g>
<!-- 12266&#45;&gt;20454 -->
<g id="edge63" class="edge">
<title>12266&#45;&gt;20454</title>
<path fill="none" stroke="#000000" d="M1521.5177,-2025.2822C1511.9752,-2047.5954 1495.5134,-2086.0878 1484.3807,-2112.1194"/>
<polygon fill="#000000" stroke="#000000" points="1481.1145,-2110.8557 1480.4004,-2121.4264 1487.5507,-2113.6082 1481.1145,-2110.8557"/>
</g>
<!-- 12956&#45;&gt;3356 -->
<g id="edge64" class="edge">
<title>12956&#45;&gt;3356</title>
<path fill="none" stroke="#000000" d="M524.7513,-1041.6603C546.6304,-1023.3422 583.7587,-992.2569 608.5457,-971.5041"/>
<polygon fill="#000000" stroke="#000000" points="611.0182,-973.9989 616.4388,-964.8957 606.5245,-968.6317 611.0182,-973.9989"/>
</g>
<!-- 17676&#45;&gt;6939 -->
<g id="edge65" class="edge">
<title>17676&#45;&gt;6939</title>
<path fill="none" stroke="#000000" d="M1639.8566,-1742.5603C1630.5332,-1765.4035 1614.2654,-1805.2609 1603.4253,-1831.8202"/>
<polygon fill="#000000" stroke="#000000" points="1600.1006,-1830.7039 1599.5622,-1841.2851 1606.5816,-1833.3492 1600.1006,-1830.7039"/>
</g>
<!-- 18540 -->
<g id="node57" class="node">
<title>18540</title>
<ellipse fill="none" stroke="#000000" cx="636.474" cy="-593.6511" rx="32.4942" ry="18"/>
<text text-anchor="middle" x="636.474" y="-589.9511" font-family="Times,serif" font-size="14.00" fill="#000000">18540</text>
</g>
<!-- 20454&#45;&gt;12189 -->
<g id="edge66" class="edge">
<title>20454&#45;&gt;12189</title>
<path fill="none" stroke="#000000" d="M1465.0493,-2157.0271C1453.5932,-2183.3753 1431.9536,-2233.1452 1418.5323,-2264.0135"/>
<polygon fill="#000000" stroke="#000000" points="1415.2645,-2262.7516 1414.4868,-2273.3178 1421.684,-2265.5427 1415.2645,-2262.7516"/>
</g>
<!-- 30070&#45;&gt;6904 -->
<g id="edge67" class="edge">
<title>30070&#45;&gt;6904</title>
<path fill="none" stroke="#000000" d="M704.349,-681.2058C710.0164,-653.786 720.8078,-601.5745 727.4946,-569.2223"/>
<polygon fill="#000000" stroke="#000000" points="730.9949,-569.578 729.5916,-559.0766 724.1398,-568.1611 730.9949,-569.578"/>
</g>
<!-- 30070&#45;&gt;7016 -->
<g id="edge68" class="edge">
<title>30070&#45;&gt;7016</title>
<path fill="none" stroke="#000000" d="M674.5955,-688.5402C655.7924,-680.7196 630.23,-670.0876 609.9223,-661.6411"/>
<polygon fill="#000000" stroke="#000000" points="611.0051,-658.3008 600.4277,-657.6921 608.3168,-664.7641 611.0051,-658.3008"/>
</g>
<!-- 30070&#45;&gt;18540 -->
<g id="edge69" class="edge">
<title>30070&#45;&gt;18540</title>
<path fill="none" stroke="#000000" d="M690.0091,-681.9003C679.6909,-664.8915 663.8815,-638.8306 652.1144,-619.4333"/>
<polygon fill="#000000" stroke="#000000" points="655.0448,-617.5156 646.8657,-610.7812 649.0599,-621.1463 655.0448,-617.5156"/>
</g>
<!-- 32787&#45;&gt;2764 -->
<g id="edge70" class="edge">
<title>32787&#45;&gt;2764</title>
<path fill="none" stroke="#000000" d="M1463.9983,-619.0913C1441.88,-627.9733 1410.2527,-640.6738 1386.3864,-650.2577"/>
<polygon fill="#000000" stroke="#000000" points="1384.9843,-647.049 1377.0089,-654.0235 1387.5929,-653.5449 1384.9843,-647.049"/>
</g>
<!-- 32787&#45;&gt;2828 -->
<g id="edge71" class="edge">
<title>32787&#45;&gt;2828</title>
<path fill="none" stroke="#000000" d="M1496.3476,-590.5956C1503.0798,-569.8912 1514.2601,-535.5069 1522.1006,-511.3937"/>
<polygon fill="#000000" stroke="#000000" points="1525.4699,-512.3504 1525.2337,-501.7582 1518.813,-510.1858 1525.4699,-512.3504"/>
</g>
<!-- 32787&#45;&gt;7474 -->
<g id="edge72" class="edge">
<title>32787&#45;&gt;7474</title>
<path fill="none" stroke="#000000" d="M1485.3399,-590.566C1479.1858,-569.4618 1468.878,-534.1128 1461.6946,-509.4788"/>
<polygon fill="#000000" stroke="#000000" points="1464.9881,-508.2705 1458.8286,-499.6501 1458.268,-510.2301 1464.9881,-508.2705"/>
</g>
<!-- 38333&#45;&gt;1221 -->
<g id="edge73" class="edge">
<title>38333&#45;&gt;1221</title>
<path fill="none" stroke="#000000" d="M1247.3376,-558.09C1234.9008,-541.8079 1215.8151,-516.8212 1201.6761,-498.3107"/>
<polygon fill="#000000" stroke="#000000" points="1204.4211,-496.1384 1195.5695,-490.316 1198.8582,-500.3875 1204.4211,-496.1384"/>
</g>
<!-- 38880&#45;&gt;6695 -->
<g id="edge74" class="edge">
<title>38880&#45;&gt;6695</title>
<path fill="none" stroke="#000000" d="M1400.7339,-1135.2353C1390.5192,-1148.8993 1376.0071,-1168.3119 1364.5068,-1183.6955"/>
<polygon fill="#000000" stroke="#000000" points="1361.6584,-1181.6604 1358.4741,-1191.7654 1367.2649,-1185.8517 1361.6584,-1181.6604"/>
</g>
<!-- 38880&#45;&gt;9002 -->
<g id="edge75" class="edge">
<title>38880&#45;&gt;9002</title>
<path fill="none" stroke="#000000" d="M1413.3429,-1136.3115C1413.2978,-1153.4377 1413.2293,-1179.4602 1413.1771,-1199.3036"/>
<polygon fill="#000000" stroke="#000000" points="1409.6771,-1199.3071 1413.1507,-1209.3164 1416.6771,-1199.3256 1409.6771,-1199.3071"/>
</g>
<!-- 38880&#45;&gt;9443 -->
<g id="edge76" class="edge">
<title>38880&#45;&gt;9443</title>
<path fill="none" stroke="#000000" d="M1429.9903,-1134.106C1444.6938,-1148.1016 1466.3188,-1168.6857 1482.7877,-1184.362"/>
<polygon fill="#000000" stroke="#000000" points="1480.749,-1187.2535 1490.4054,-1191.6129 1485.5752,-1182.1832 1480.749,-1187.2535"/>
</g>
</g>
</svg>
