<?xml version="1.0" encoding="UTF-8" standalone="no"?>
<!DOCTYPE svg PUBLIC "-//W3C//DTD SVG 1.1//EN"
 "http://www.w3.org/Graphics/SVG/1.1/DTD/svg11.dtd">
<!-- Generated by graphviz version 2.40.1 (20161225.0304)
 -->
<!-- Title: %3 Pages: 1 -->
<svg width="850pt" height="524pt"
 viewBox="0.00 0.00 850.14 523.82" xmlns="http://www.w3.org/2000/svg" xmlns:xlink="http://www.w3.org/1999/xlink">
<g id="graph0" class="graph" transform="scale(1 1) rotate(0) translate(4 519.8247)">
<title>%3</title>
<polygon fill="#ffffff" stroke="transparent" points="-4,4 -4,-519.8247 846.1354,-519.8247 846.1354,4 -4,4"/>
<!-- 174 -->
<g id="node1" class="node">
<title>174</title>
<ellipse fill="none" stroke="#000000" cx="341.3916" cy="-175.2631" rx="27" ry="18"/>
<text text-anchor="middle" x="341.3916" y="-171.5631" font-family="Times,serif" font-size="14.00" fill="#000000">174</text>
</g>
<!-- 209 -->
<g id="node2" class="node">
<title>209</title>
<ellipse fill="none" stroke="#000000" cx="371.5095" cy="-179.1134" rx="27" ry="18"/>
<text text-anchor="middle" x="371.5095" y="-175.4134" font-family="Times,serif" font-size="14.00" fill="#000000">209</text>
</g>
<!-- 174&#45;&gt;209 -->
<g id="edge1" class="edge">
<title>174&#45;&gt;209</title>
<path fill="none" stroke="#000000" d="M368.2864,-178.7013C368.3482,-178.7092 368.4094,-178.7171 368.4698,-178.7248"/>
<polygon fill="#000000" stroke="#000000" points="358.2841,-180.9465 368.6489,-178.7477 359.1751,-174.003 358.2841,-180.9465"/>
</g>
<!-- 1299 -->
<g id="node8" class="node">
<title>1299</title>
<ellipse fill="none" stroke="#000000" cx="401.8922" cy="-184.2117" rx="28.6953" ry="18"/>
<text text-anchor="middle" x="401.8922" y="-180.5117" font-family="Times,serif" font-size="14.00" fill="#000000">1299</text>
</g>
<!-- 209&#45;&gt;1299 -->
<g id="edge2" class="edge">
<title>209&#45;&gt;1299</title>
<path fill="none" stroke="#000000" d="M398.1667,-183.5865C398.2377,-183.5984 398.3079,-183.6102 398.3773,-183.6219"/>
<polygon fill="#000000" stroke="#000000" points="388.1401,-185.4492 398.5829,-183.6564 389.3013,-178.5457 388.1401,-185.4492"/>
</g>
<!-- 701 -->
<g id="node3" class="node">
<title>701</title>
<ellipse fill="none" stroke="#000000" cx="497.5337" cy="-204.1369" rx="27" ry="18"/>
<text text-anchor="middle" x="497.5337" y="-200.4369" font-family="Times,serif" font-size="14.00" fill="#000000">701</text>
</g>
<!-- 703 -->
<g id="node4" class="node">
<title>703</title>
<ellipse fill="none" stroke="#000000" cx="529.8254" cy="-183.2507" rx="27" ry="18"/>
<text text-anchor="middle" x="529.8254" y="-179.5507" font-family="Times,serif" font-size="14.00" fill="#000000">703</text>
</g>
<!-- 701&#45;&gt;703 -->
<g id="edge3" class="edge">
<title>701&#45;&gt;703</title>
<path fill="none" stroke="#000000" d="M517.0629,-191.5055C517.116,-191.4711 517.1691,-191.4368 517.2221,-191.4025"/>
<polygon fill="#000000" stroke="#000000" points="510.8851,-199.6722 517.381,-191.2997 507.0818,-193.7939 510.8851,-199.6722"/>
</g>
<!-- 7018 -->
<g id="node37" class="node">
<title>7018</title>
<ellipse fill="none" stroke="#000000" cx="495.1013" cy="-237.2252" rx="28.6953" ry="18"/>
<text text-anchor="middle" x="495.1013" y="-233.5252" font-family="Times,serif" font-size="14.00" fill="#000000">7018</text>
</g>
<!-- 701&#45;&gt;7018 -->
<g id="edge4" class="edge">
<title>701&#45;&gt;7018</title>
<path fill="none" stroke="#000000" d="M496.2037,-222.23C496.1992,-222.2904 496.1948,-222.3507 496.1904,-222.411"/>
<polygon fill="#000000" stroke="#000000" points="493.4247,-212.3603 496.1771,-222.5918 500.4059,-212.8771 493.4247,-212.3603"/>
</g>
<!-- 2516 -->
<g id="node10" class="node">
<title>2516</title>
<ellipse fill="none" stroke="#000000" cx="567.385" cy="-185.8831" rx="28.6953" ry="18"/>
<text text-anchor="middle" x="567.385" y="-182.1831" font-family="Times,serif" font-size="14.00" fill="#000000">2516</text>
</g>
<!-- 703&#45;&gt;2516 -->
<g id="edge5" class="edge">
<title>703&#45;&gt;2516</title>
<path fill="none" stroke="#000000" d="M556.7224,-185.1358C556.7694,-185.1391 556.8164,-185.1424 556.8632,-185.1457"/>
<polygon fill="#000000" stroke="#000000" points="546.781,-187.9412 557.0036,-185.1555 547.275,-180.9583 546.781,-187.9412"/>
</g>
<!-- 9498 -->
<g id="node44" class="node">
<title>9498</title>
<ellipse fill="none" stroke="#000000" cx="525.4753" cy="-151.8192" rx="28.6953" ry="18"/>
<text text-anchor="middle" x="525.4753" y="-148.1192" font-family="Times,serif" font-size="14.00" fill="#000000">9498</text>
</g>
<!-- 703&#45;&gt;9498 -->
<g id="edge6" class="edge">
<title>703&#45;&gt;9498</title>
<path fill="none" stroke="#000000" d="M527.2949,-164.9669C527.2874,-164.9128 527.28,-164.8589 527.2725,-164.8049"/>
<polygon fill="#000000" stroke="#000000" points="532.0933,-174.0672 527.2501,-164.6433 525.1594,-175.0306 532.0933,-174.0672"/>
</g>
<!-- 1221 -->
<g id="node5" class="node">
<title>1221</title>
<ellipse fill="none" stroke="#000000" cx="665.1443" cy="-140.1474" rx="28.6953" ry="18"/>
<text text-anchor="middle" x="665.1443" y="-136.4474" font-family="Times,serif" font-size="14.00" fill="#000000">1221</text>
</g>
<!-- 1239 -->
<g id="node6" class="node">
<title>1239</title>
<ellipse fill="none" stroke="#000000" cx="489.5398" cy="-332.1927" rx="28.6953" ry="18"/>
<text text-anchor="middle" x="489.5398" y="-328.4927" font-family="Times,serif" font-size="14.00" fill="#000000">1239</text>
</g>
<!-- 5511 -->
<g id="node28" class="node">
<title>5511</title>
<ellipse fill="none" stroke="#000000" cx="470.2753" cy="-336.7015" rx="28.6953" ry="18"/>
<text text-anchor="middle" x="470.2753" y="-333.0015" font-family="Times,serif" font-size="14.00" fill="#000000">5511</text>
</g>
<!-- 1239&#45;&gt;5511 -->
<g id="edge7" class="edge">
<title>1239&#45;&gt;5511</title>
<path fill="none" stroke="#000000" d="M470.3306,-336.6886C470.3215,-336.6907 470.3135,-336.6926 470.3066,-336.6942"/>
<polygon fill="#000000" stroke="#000000" points="479.2149,-330.9677 470.2893,-336.6983 480.8404,-337.7845 479.2149,-330.9677"/>
</g>
<!-- 17676 -->
<g id="node55" class="node">
<title>17676</title>
<ellipse fill="none" stroke="#000000" cx="492.6399" cy="-362.8036" rx="32.4942" ry="18"/>
<text text-anchor="middle" x="492.6399" y="-359.1036" font-family="Times,serif" font-size="14.00" fill="#000000">17676</text>
</g>
<!-- 1239&#45;&gt;17676 -->
<g id="edge8" class="edge">
<title>1239&#45;&gt;17676</title>
<path fill="none" stroke="#000000" d="M491.379,-350.353C491.3842,-350.4045 491.3894,-350.4559 491.3946,-350.5073"/>
<polygon fill="#000000" stroke="#000000" points="486.9146,-341.0669 491.4102,-350.6614 493.879,-340.3575 486.9146,-341.0669"/>
</g>
<!-- 1273 -->
<g id="node7" class="node">
<title>1273</title>
<ellipse fill="none" stroke="#000000" cx="491.2934" cy="-300.6706" rx="28.6953" ry="18"/>
<text text-anchor="middle" x="491.2934" y="-296.9706" font-family="Times,serif" font-size="14.00" fill="#000000">1273</text>
</g>
<!-- 1273&#45;&gt;1239 -->
<g id="edge9" class="edge">
<title>1273&#45;&gt;1239</title>
<path fill="none" stroke="#000000" d="M490.2733,-319.0071C490.2703,-319.0613 490.2673,-319.1155 490.2643,-319.1695"/>
<polygon fill="#000000" stroke="#000000" points="487.3219,-309.1507 490.2552,-319.3317 494.3111,-309.5436 487.3219,-309.1507"/>
</g>
<!-- 6461 -->
<g id="node31" class="node">
<title>6461</title>
<ellipse fill="none" stroke="#000000" cx="432.8009" cy="-190.1667" rx="28.6953" ry="18"/>
<text text-anchor="middle" x="432.8009" y="-186.4667" font-family="Times,serif" font-size="14.00" fill="#000000">6461</text>
</g>
<!-- 1299&#45;&gt;6461 -->
<g id="edge10" class="edge">
<title>1299&#45;&gt;6461</title>
<path fill="none" stroke="#000000" d="M429.4931,-189.5294C429.5566,-189.5416 429.6194,-189.5537 429.6814,-189.5657"/>
<polygon fill="#000000" stroke="#000000" points="419.382,-191.1417 429.8652,-189.6011 420.7094,-184.2681 419.382,-191.1417"/>
</g>
<!-- 2497 -->
<g id="node9" class="node">
<title>2497</title>
<ellipse fill="none" stroke="#000000" cx="464.5725" cy="-196.8496" rx="28.6953" ry="18"/>
<text text-anchor="middle" x="464.5725" y="-193.1496" font-family="Times,serif" font-size="14.00" fill="#000000">2497</text>
</g>
<!-- 2497&#45;&gt;701 -->
<g id="edge11" class="edge">
<title>2497&#45;&gt;701</title>
<path fill="none" stroke="#000000" d="M491.7923,-202.8675C491.8457,-202.8793 491.8988,-202.8911 491.9516,-202.9027"/>
<polygon fill="#000000" stroke="#000000" points="481.5877,-204.1915 492.1093,-202.9376 483.1022,-197.3565 481.5877,-204.1915"/>
</g>
<!-- 32787 -->
<g id="node64" class="node">
<title>32787</title>
<ellipse fill="none" stroke="#000000" cx="606.1665" cy="-187.2574" rx="32.4942" ry="18"/>
<text text-anchor="middle" x="606.1665" y="-183.5574" font-family="Times,serif" font-size="14.00" fill="#000000">32787</text>
</g>
<!-- 2516&#45;&gt;32787 -->
<g id="edge12" class="edge">
<title>2516&#45;&gt;32787</title>
<path fill="none" stroke="#000000" d="M595.9771,-186.8963C596.0225,-186.8979 596.0678,-186.8995 596.113,-186.9011"/>
<polygon fill="#000000" stroke="#000000" points="586.1283,-190.0425 596.2485,-186.9059 586.3812,-183.0468 586.1283,-190.0425"/>
</g>
<!-- 2686 -->
<g id="node11" class="node">
<title>2686</title>
<ellipse fill="none" stroke="#000000" cx="104.4632" cy="-53.8275" rx="28.6953" ry="18"/>
<text text-anchor="middle" x="104.4632" y="-50.1275" font-family="Times,serif" font-size="14.00" fill="#000000">2686</text>
</g>
<!-- 3741 -->
<g id="node22" class="node">
<title>3741</title>
<ellipse fill="none" stroke="#000000" cx="88.5373" cy="-35.0938" rx="28.6953" ry="18"/>
<text text-anchor="middle" x="88.5373" y="-31.3938" font-family="Times,serif" font-size="14.00" fill="#000000">3741</text>
</g>
<!-- 2686&#45;&gt;3741 -->
<g id="edge13" class="edge">
<title>2686&#45;&gt;3741</title>
<path fill="none" stroke="#000000" d="M90.7517,-37.6986C90.7099,-37.6494 90.6684,-37.6007 90.6275,-37.5525"/>
<polygon fill="#000000" stroke="#000000" points="99.6521,-42.7623 90.5061,-37.4097 94.3179,-47.2975 99.6521,-42.7623"/>
</g>
<!-- 2687 -->
<g id="node12" class="node">
<title>2687</title>
<ellipse fill="none" stroke="#000000" cx="122.3339" cy="-74.4137" rx="28.6953" ry="18"/>
<text text-anchor="middle" x="122.3339" y="-70.7137" font-family="Times,serif" font-size="14.00" fill="#000000">2687</text>
</g>
<!-- 2687&#45;&gt;2686 -->
<g id="edge14" class="edge">
<title>2687&#45;&gt;2686</title>
<path fill="none" stroke="#000000" d="M108.608,-58.6021C108.533,-58.5157 108.4587,-58.4301 108.385,-58.3452"/>
<polygon fill="#000000" stroke="#000000" points="117.3658,-63.3505 108.166,-58.093 112.0792,-67.94 117.3658,-63.3505"/>
</g>
<!-- 9505 -->
<g id="node45" class="node">
<title>9505</title>
<ellipse fill="none" stroke="#000000" cx="133.2632" cy="-57.0427" rx="28.6953" ry="18"/>
<text text-anchor="middle" x="133.2632" y="-53.3427" font-family="Times,serif" font-size="14.00" fill="#000000">9505</text>
</g>
<!-- 2687&#45;&gt;9505 -->
<g id="edge15" class="edge">
<title>2687&#45;&gt;9505</title>
<path fill="none" stroke="#000000" d="M132.993,-57.4721C133.0366,-57.4029 133.0752,-57.3415 133.1087,-57.2883"/>
<polygon fill="#000000" stroke="#000000" points="130.8279,-67.4836 133.1934,-57.1536 124.9024,-63.7538 130.8279,-67.4836"/>
</g>
<!-- 2764 -->
<g id="node13" class="node">
<title>2764</title>
<ellipse fill="none" stroke="#000000" cx="646.5852" cy="-183.0959" rx="28.6953" ry="18"/>
<text text-anchor="middle" x="646.5852" y="-179.3959" font-family="Times,serif" font-size="14.00" fill="#000000">2764</text>
</g>
<!-- 7545 -->
<g id="node40" class="node">
<title>7545</title>
<ellipse fill="none" stroke="#000000" cx="683.6311" cy="-193.6031" rx="28.6953" ry="18"/>
<text text-anchor="middle" x="683.6311" y="-189.9031" font-family="Times,serif" font-size="14.00" fill="#000000">7545</text>
</g>
<!-- 2764&#45;&gt;7545 -->
<g id="edge16" class="edge">
<title>2764&#45;&gt;7545</title>
<path fill="none" stroke="#000000" d="M672.7165,-190.5074C672.7644,-190.521 672.8122,-190.5346 672.8599,-190.5481"/>
<polygon fill="#000000" stroke="#000000" points="662.4253,-191.2224 673.0029,-190.5886 664.3388,-184.4878 662.4253,-191.2224"/>
</g>
<!-- 38333 -->
<g id="node66" class="node">
<title>38333</title>
<ellipse fill="none" stroke="#000000" cx="660.0754" cy="-160.7825" rx="32.4942" ry="18"/>
<text text-anchor="middle" x="660.0754" y="-157.0825" font-family="Times,serif" font-size="14.00" fill="#000000">38333</text>
</g>
<!-- 2764&#45;&gt;38333 -->
<g id="edge17" class="edge">
<title>2764&#45;&gt;38333</title>
<path fill="none" stroke="#000000" d="M656.9465,-165.9577C656.9748,-165.9109 657.003,-165.8643 657.0311,-165.8179"/>
<polygon fill="#000000" stroke="#000000" points="654.9337,-176.0496 657.1149,-165.6792 648.9427,-172.4259 654.9337,-176.0496"/>
</g>
<!-- 38561 -->
<g id="node67" class="node">
<title>38561</title>
<ellipse fill="none" stroke="#000000" cx="635.9653" cy="-166.5143" rx="32.4942" ry="18"/>
<text text-anchor="middle" x="635.9653" y="-162.8143" font-family="Times,serif" font-size="14.00" fill="#000000">38561</text>
</g>
<!-- 2764&#45;&gt;38561 -->
<g id="edge18" class="edge">
<title>2764&#45;&gt;38561</title>
<path fill="none" stroke="#000000" d="M635.9958,-166.5618C635.9908,-166.554 635.9864,-166.5471 635.9826,-166.5412"/>
<polygon fill="#000000" stroke="#000000" points="644.3427,-173.0594 635.973,-166.5263 638.4418,-176.8529 644.3427,-173.0594"/>
</g>
<!-- 2828 -->
<g id="node14" class="node">
<title>2828</title>
<ellipse fill="none" stroke="#000000" cx="597.7836" cy="-169.7626" rx="28.6953" ry="18"/>
<text text-anchor="middle" x="597.7836" y="-166.0626" font-family="Times,serif" font-size="14.00" fill="#000000">2828</text>
</g>
<!-- 2914 -->
<g id="node15" class="node">
<title>2914</title>
<ellipse fill="none" stroke="#000000" cx="220.3138" cy="-169.2284" rx="28.6953" ry="18"/>
<text text-anchor="middle" x="220.3138" y="-165.5284" font-family="Times,serif" font-size="14.00" fill="#000000">2914</text>
</g>
<!-- 6453 -->
<g id="node30" class="node">
<title>6453</title>
<ellipse fill="none" stroke="#000000" cx="251.2999" cy="-169.3678" rx="28.6953" ry="18"/>
<text text-anchor="middle" x="251.2999" y="-165.6678" font-family="Times,serif" font-size="14.00" fill="#000000">6453</text>
</g>
<!-- 2914&#45;&gt;6453 -->
<g id="edge19" class="edge">
<title>2914&#45;&gt;6453</title>
<path fill="none" stroke="#000000" d="M249.2668,-169.3586C249.3466,-169.359 249.4243,-169.3593 249.5,-169.3597"/>
<polygon fill="#000000" stroke="#000000" points="239.7034,-172.8111 249.7207,-169.3606 239.7381,-165.8112 239.7034,-172.8111"/>
</g>
<!-- 3257 -->
<g id="node16" class="node">
<title>3257</title>
<ellipse fill="none" stroke="#000000" cx="281.491" cy="-170.3226" rx="28.6953" ry="18"/>
<text text-anchor="middle" x="281.491" y="-166.6226" font-family="Times,serif" font-size="14.00" fill="#000000">3257</text>
</g>
<!-- 3491 -->
<g id="node19" class="node">
<title>3491</title>
<ellipse fill="none" stroke="#000000" cx="311.5333" cy="-172.3543" rx="28.6953" ry="18"/>
<text text-anchor="middle" x="311.5333" y="-168.6543" font-family="Times,serif" font-size="14.00" fill="#000000">3491</text>
</g>
<!-- 3257&#45;&gt;3491 -->
<g id="edge20" class="edge">
<title>3257&#45;&gt;3491</title>
<path fill="none" stroke="#000000" d="M310.2425,-172.267C310.4478,-172.2809 310.6312,-172.2933 310.7907,-172.3041"/>
<polygon fill="#000000" stroke="#000000" points="300.9818,-175.1465 311.196,-172.3315 301.4557,-168.1624 300.9818,-175.1465"/>
</g>
<!-- 3320 -->
<g id="node17" class="node">
<title>3320</title>
<ellipse fill="none" stroke="#000000" cx="492.858" cy="-269.2879" rx="28.6953" ry="18"/>
<text text-anchor="middle" x="492.858" y="-265.5879" font-family="Times,serif" font-size="14.00" fill="#000000">3320</text>
</g>
<!-- 3320&#45;&gt;1273 -->
<g id="edge21" class="edge">
<title>3320&#45;&gt;1273</title>
<path fill="none" stroke="#000000" d="M491.9478,-287.5434C491.9452,-287.5973 491.9425,-287.6512 491.9398,-287.705"/>
<polygon fill="#000000" stroke="#000000" points="488.9399,-277.7025 491.9317,-287.8665 495.9312,-278.0552 488.9399,-277.7025"/>
</g>
<!-- 3356 -->
<g id="node18" class="node">
<title>3356</title>
<ellipse fill="none" stroke="#000000" cx="135.1304" cy="-199.6291" rx="28.6953" ry="18"/>
<text text-anchor="middle" x="135.1304" y="-195.9291" font-family="Times,serif" font-size="14.00" fill="#000000">3356</text>
</g>
<!-- 3549 -->
<g id="node20" class="node">
<title>3549</title>
<ellipse fill="none" stroke="#000000" cx="154.844" cy="-168.5273" rx="28.6953" ry="18"/>
<text text-anchor="middle" x="154.844" y="-164.8273" font-family="Times,serif" font-size="14.00" fill="#000000">3549</text>
</g>
<!-- 3356&#45;&gt;3549 -->
<g id="edge22" class="edge">
<title>3356&#45;&gt;3549</title>
<path fill="none" stroke="#000000" d="M145.91,-182.6222C145.946,-182.5655 145.9819,-182.5088 146.0179,-182.4521"/>
<polygon fill="#000000" stroke="#000000" points="143.7261,-192.6038 146.1256,-182.2822 137.8132,-188.8547 143.7261,-192.6038"/>
</g>
<!-- 3491&#45;&gt;174 -->
<g id="edge23" class="edge">
<title>3491&#45;&gt;174</title>
<path fill="none" stroke="#000000" d="M340.1086,-175.1382C340.3127,-175.158 340.4949,-175.1758 340.6535,-175.1912"/>
<polygon fill="#000000" stroke="#000000" points="330.7632,-177.7421 341.0562,-175.2305 331.4435,-170.7751 330.7632,-177.7421"/>
</g>
<!-- 6762 -->
<g id="node33" class="node">
<title>6762</title>
<ellipse fill="none" stroke="#000000" cx="188.2026" cy="-169.247" rx="28.6953" ry="18"/>
<text text-anchor="middle" x="188.2026" y="-165.547" font-family="Times,serif" font-size="14.00" fill="#000000">6762</text>
</g>
<!-- 3549&#45;&gt;6762 -->
<g id="edge24" class="edge">
<title>3549&#45;&gt;6762</title>
<path fill="none" stroke="#000000" d="M183.5642,-169.1469C183.6519,-169.1488 183.7386,-169.1507 183.8244,-169.1525"/>
<polygon fill="#000000" stroke="#000000" points="174.0042,-172.4377 184.0787,-169.158 174.1579,-165.4393 174.0042,-172.4377"/>
</g>
<!-- 30070 -->
<g id="node63" class="node">
<title>30070</title>
<ellipse fill="none" stroke="#000000" cx="142.155" cy="-134.6435" rx="32.4942" ry="18"/>
<text text-anchor="middle" x="142.155" y="-130.9435" font-family="Times,serif" font-size="14.00" fill="#000000">30070</text>
</g>
<!-- 3549&#45;&gt;30070 -->
<g id="edge25" class="edge">
<title>3549&#45;&gt;30070</title>
<path fill="none" stroke="#000000" d="M148.2022,-150.7915C148.1782,-150.7275 148.1542,-150.6634 148.1302,-150.5994"/>
<polygon fill="#000000" stroke="#000000" points="154.8463,-158.5441 148.0584,-150.4074 148.2907,-161.0012 154.8463,-158.5441"/>
</g>
<!-- 3597 -->
<g id="node21" class="node">
<title>3597</title>
<ellipse fill="none" stroke="#000000" cx="94.9158" cy="-302.3084" rx="28.6953" ry="18"/>
<text text-anchor="middle" x="94.9158" y="-298.6084" font-family="Times,serif" font-size="14.00" fill="#000000">3597</text>
</g>
<!-- 37179 -->
<g id="node65" class="node">
<title>37179</title>
<ellipse fill="none" stroke="#000000" cx="75.3817" cy="-18" rx="32.4942" ry="18"/>
<text text-anchor="middle" x="75.3817" y="-14.3" font-family="Times,serif" font-size="14.00" fill="#000000">37179</text>
</g>
<!-- 3741&#45;&gt;37179 -->
<g id="edge26" class="edge">
<title>3741&#45;&gt;37179</title>
<path fill="none" stroke="#000000" d="M75.947,-18.7345C75.8571,-18.6176 75.7768,-18.5133 75.7069,-18.4225"/>
<polygon fill="#000000" stroke="#000000" points="84.4037,-23.9823 75.5295,-18.192 78.8559,-28.2526 84.4037,-23.9823"/>
</g>
<!-- 4635 -->
<g id="node23" class="node">
<title>4635</title>
<ellipse fill="none" stroke="#000000" cx="696.9192" cy="-210.4911" rx="28.6953" ry="18"/>
<text text-anchor="middle" x="696.9192" y="-206.7911" font-family="Times,serif" font-size="14.00" fill="#000000">4635</text>
</g>
<!-- 4637 -->
<g id="node24" class="node">
<title>4637</title>
<ellipse fill="none" stroke="#000000" cx="465.0188" cy="-485.4777" rx="28.6953" ry="18"/>
<text text-anchor="middle" x="465.0188" y="-481.7777" font-family="Times,serif" font-size="14.00" fill="#000000">4637</text>
</g>
<!-- 4739 -->
<g id="node25" class="node">
<title>4739</title>
<ellipse fill="none" stroke="#000000" cx="718.3604" cy="-189.1315" rx="28.6953" ry="18"/>
<text text-anchor="middle" x="718.3604" y="-185.4315" font-family="Times,serif" font-size="14.00" fill="#000000">4739</text>
</g>
<!-- 38880 -->
<g id="node68" class="node">
<title>38880</title>
<ellipse fill="none" stroke="#000000" cx="751.2963" cy="-188.0926" rx="32.4942" ry="18"/>
<text text-anchor="middle" x="751.2963" y="-184.3926" font-family="Times,serif" font-size="14.00" fill="#000000">38880</text>
</g>
<!-- 4739&#45;&gt;38880 -->
<g id="edge27" class="edge">
<title>4739&#45;&gt;38880</title>
<path fill="none" stroke="#000000" d="M746.9905,-188.2284C747.0723,-188.2259 747.1531,-188.2233 747.233,-188.2208"/>
<polygon fill="#000000" stroke="#000000" points="737.5866,-192.0309 747.4699,-188.2133 737.3631,-185.0344 737.5866,-192.0309"/>
</g>
<!-- 4755 -->
<g id="node26" class="node">
<title>4755</title>
<ellipse fill="none" stroke="#000000" cx="510.0262" cy="-100.1825" rx="28.6953" ry="18"/>
<text text-anchor="middle" x="510.0262" y="-96.4825" font-family="Times,serif" font-size="14.00" fill="#000000">4755</text>
</g>
<!-- 9583 -->
<g id="node46" class="node">
<title>9583</title>
<ellipse fill="none" stroke="#000000" cx="506.5583" cy="-78.8539" rx="28.6953" ry="18"/>
<text text-anchor="middle" x="506.5583" y="-75.1539" font-family="Times,serif" font-size="14.00" fill="#000000">9583</text>
</g>
<!-- 4755&#45;&gt;9583 -->
<g id="edge28" class="edge">
<title>4755&#45;&gt;9583</title>
<path fill="none" stroke="#000000" d="M507.1002,-82.1865C507.09,-82.124 507.08,-82.0622 507.07,-82.001"/>
<polygon fill="#000000" stroke="#000000" points="512.1046,-91.1267 507.0405,-81.8196 505.1953,-92.2533 512.1046,-91.1267"/>
</g>
<!-- 4826 -->
<g id="node27" class="node">
<title>4826</title>
<ellipse fill="none" stroke="#000000" cx="792.4067" cy="-154.1052" rx="28.6953" ry="18"/>
<text text-anchor="middle" x="792.4067" y="-150.4052" font-family="Times,serif" font-size="14.00" fill="#000000">4826</text>
</g>
<!-- 15412 -->
<g id="node54" class="node">
<title>15412</title>
<ellipse fill="none" stroke="#000000" cx="809.6383" cy="-141.4569" rx="32.4942" ry="18"/>
<text text-anchor="middle" x="809.6383" y="-137.7569" font-family="Times,serif" font-size="14.00" fill="#000000">15412</text>
</g>
<!-- 4826&#45;&gt;15412 -->
<g id="edge29" class="edge">
<title>4826&#45;&gt;15412</title>
<path fill="none" stroke="#000000" d="M809.5888,-141.4932C809.597,-141.4872 809.6042,-141.482 809.6103,-141.4774"/>
<polygon fill="#000000" stroke="#000000" points="803.6327,-150.2295 809.6258,-141.4661 799.4759,-144.5795 803.6327,-150.2295"/>
</g>
<!-- 5692 -->
<g id="node29" class="node">
<title>5692</title>
<ellipse fill="none" stroke="#000000" cx="66.0829" cy="-299.0831" rx="28.6953" ry="18"/>
<text text-anchor="middle" x="66.0829" y="-295.3831" font-family="Times,serif" font-size="14.00" fill="#000000">5692</text>
</g>
<!-- 5692&#45;&gt;3597 -->
<g id="edge30" class="edge">
<title>5692&#45;&gt;3597</title>
<path fill="none" stroke="#000000" d="M94.592,-302.2722C94.6448,-302.2781 94.6914,-302.2833 94.7316,-302.2878"/>
<polygon fill="#000000" stroke="#000000" points="84.5028,-304.6571 94.8331,-302.2992 85.2871,-297.7005 84.5028,-304.6571"/>
</g>
<!-- 10834 -->
<g id="node49" class="node">
<title>10834</title>
<ellipse fill="none" stroke="#000000" cx="94.5693" cy="-262.3778" rx="32.4942" ry="18"/>
<text text-anchor="middle" x="94.5693" y="-258.6778" font-family="Times,serif" font-size="14.00" fill="#000000">10834</text>
</g>
<!-- 5692&#45;&gt;10834 -->
<g id="edge31" class="edge">
<title>5692&#45;&gt;10834</title>
<path fill="none" stroke="#000000" d="M78.6604,-282.8768C78.7796,-282.7232 78.899,-282.5693 79.0185,-282.4153"/>
<polygon fill="#000000" stroke="#000000" points="78.1688,-289.2188 81.5349,-279.1729 72.6387,-284.927 78.1688,-289.2188"/>
</g>
<!-- 11008 -->
<g id="node50" class="node">
<title>11008</title>
<ellipse fill="none" stroke="#000000" cx="89.5948" cy="-318.4976" rx="32.4942" ry="18"/>
<text text-anchor="middle" x="89.5948" y="-314.7976" font-family="Times,serif" font-size="14.00" fill="#000000">11008</text>
</g>
<!-- 5692&#45;&gt;11008 -->
<g id="edge32" class="edge">
<title>5692&#45;&gt;11008</title>
<path fill="none" stroke="#000000" d="M83.6618,-313.5985C83.7149,-313.6424 83.7679,-313.6861 83.8206,-313.7296"/>
<polygon fill="#000000" stroke="#000000" points="74.0368,-310.19 83.9781,-313.8597 78.4951,-304.7915 74.0368,-310.19"/>
</g>
<!-- 27865 -->
<g id="node60" class="node">
<title>27865</title>
<ellipse fill="none" stroke="#000000" cx="76.0716" cy="-330.8342" rx="32.4942" ry="18"/>
<text text-anchor="middle" x="76.0716" y="-327.1342" font-family="Times,serif" font-size="14.00" fill="#000000">27865</text>
</g>
<!-- 5692&#45;&gt;27865 -->
<g id="edge33" class="edge">
<title>5692&#45;&gt;27865</title>
<path fill="none" stroke="#000000" d="M71.6613,-316.8153C71.6792,-316.8721 71.6971,-316.9289 71.7149,-316.9856"/>
<polygon fill="#000000" stroke="#000000" points="65.4248,-308.6682 71.7684,-317.1558 72.1023,-306.5647 65.4248,-308.6682"/>
</g>
<!-- 28065 -->
<g id="node61" class="node">
<title>28065</title>
<ellipse fill="none" stroke="#000000" cx="64.9123" cy="-317.6778" rx="32.4942" ry="18"/>
<text text-anchor="middle" x="64.9123" y="-313.9778" font-family="Times,serif" font-size="14.00" fill="#000000">28065</text>
</g>
<!-- 5692&#45;&gt;28065 -->
<g id="edge34" class="edge">
<title>5692&#45;&gt;28065</title>
<path fill="none" stroke="#000000" d="M64.9413,-317.2181C64.9366,-317.2922 64.9325,-317.358 64.9289,-317.4149"/>
<polygon fill="#000000" stroke="#000000" points="62.0615,-307.3566 64.9198,-317.5591 69.0476,-307.8009 62.0615,-307.3566"/>
</g>
<!-- 52317 -->
<g id="node70" class="node">
<title>52317</title>
<ellipse fill="none" stroke="#000000" cx="38.1915" cy="-319.138" rx="32.4942" ry="18"/>
<text text-anchor="middle" x="38.1915" y="-315.438" font-family="Times,serif" font-size="14.00" fill="#000000">52317</text>
</g>
<!-- 5692&#45;&gt;52317 -->
<g id="edge35" class="edge">
<title>5692&#45;&gt;52317</title>
<path fill="none" stroke="#000000" d="M47.0165,-312.7925C46.9399,-312.8476 46.8635,-312.9025 46.7874,-312.9573"/>
<polygon fill="#000000" stroke="#000000" points="52.6358,-304.4396 46.5598,-313.1209 56.7233,-310.1234 52.6358,-304.4396"/>
</g>
<!-- 52375 -->
<g id="node71" class="node">
<title>52375</title>
<ellipse fill="none" stroke="#000000" cx="52.2173" cy="-270.7257" rx="32.4942" ry="18"/>
<text text-anchor="middle" x="52.2173" y="-267.0257" font-family="Times,serif" font-size="14.00" fill="#000000">52375</text>
</g>
<!-- 5692&#45;&gt;52375 -->
<g id="edge36" class="edge">
<title>5692&#45;&gt;52375</title>
<path fill="none" stroke="#000000" d="M57.5385,-281.6084C57.5162,-281.5628 57.4939,-281.5172 57.4717,-281.4717"/>
<polygon fill="#000000" stroke="#000000" points="64.9458,-288.781 57.405,-281.3354 58.6568,-291.8584 64.9458,-288.781"/>
</g>
<!-- 52376 -->
<g id="node72" class="node">
<title>52376</title>
<ellipse fill="none" stroke="#000000" cx="32.4971" cy="-293.1491" rx="32.4942" ry="18"/>
<text text-anchor="middle" x="32.4971" y="-289.4491" font-family="Times,serif" font-size="14.00" fill="#000000">52376</text>
</g>
<!-- 5692&#45;&gt;52376 -->
<g id="edge37" class="edge">
<title>5692&#45;&gt;52376</title>
<path fill="none" stroke="#000000" d="M38.3473,-294.1827C38.2929,-294.1731 38.2388,-294.1636 38.185,-294.1541"/>
<polygon fill="#000000" stroke="#000000" points="48.4826,-292.424 38.0243,-294.1257 47.2611,-299.3173 48.4826,-292.424"/>
</g>
<!-- 52380 -->
<g id="node73" class="node">
<title>52380</title>
<ellipse fill="none" stroke="#000000" cx="71.9354" cy="-275.4124" rx="32.4942" ry="18"/>
<text text-anchor="middle" x="71.9354" y="-271.7124" font-family="Times,serif" font-size="14.00" fill="#000000">52380</text>
</g>
<!-- 5692&#45;&gt;52380 -->
<g id="edge38" class="edge">
<title>5692&#45;&gt;52380</title>
<path fill="none" stroke="#000000" d="M70.578,-280.9024C70.5902,-280.8528 70.6025,-280.8033 70.6146,-280.7541"/>
<polygon fill="#000000" stroke="#000000" points="71.6436,-291.1567 70.651,-280.607 64.848,-289.4731 71.6436,-291.1567"/>
</g>
<!-- 52413 -->
<g id="node74" class="node">
<title>52413</title>
<ellipse fill="none" stroke="#000000" cx="47.4545" cy="-286.2237" rx="32.4942" ry="18"/>
<text text-anchor="middle" x="47.4545" y="-282.5237" font-family="Times,serif" font-size="14.00" fill="#000000">52413</text>
</g>
<!-- 5692&#45;&gt;52413 -->
<g id="edge39" class="edge">
<title>5692&#45;&gt;52413</title>
<path fill="none" stroke="#000000" d="M47.508,-286.2606C47.4992,-286.2545 47.4914,-286.2492 47.4847,-286.2446"/>
<polygon fill="#000000" stroke="#000000" points="57.7021,-289.0518 47.468,-286.233 53.7105,-294.8186 57.7021,-289.0518"/>
</g>
<!-- 52431 -->
<g id="node75" class="node">
<title>52431</title>
<ellipse fill="none" stroke="#000000" cx="46.3353" cy="-306.1071" rx="32.4942" ry="18"/>
<text text-anchor="middle" x="46.3353" y="-302.4071" font-family="Times,serif" font-size="14.00" fill="#000000">52431</text>
</g>
<!-- 5692&#45;&gt;52431 -->
<g id="edge40" class="edge">
<title>5692&#45;&gt;52431</title>
<path fill="none" stroke="#000000" d="M46.392,-306.087C46.3826,-306.0903 46.3744,-306.0932 46.3674,-306.0957"/>
<polygon fill="#000000" stroke="#000000" points="54.5892,-299.417 46.3496,-306.102 56.9597,-306.0143 54.5892,-299.417"/>
</g>
<!-- 262230 -->
<g id="node76" class="node">
<title>262230</title>
<ellipse fill="none" stroke="#000000" cx="54.323" cy="-331.618" rx="37.0935" ry="18"/>
<text text-anchor="middle" x="54.323" y="-327.918" font-family="Times,serif" font-size="14.00" fill="#000000">262230</text>
</g>
<!-- 5692&#45;&gt;262230 -->
<g id="edge41" class="edge">
<title>5692&#45;&gt;262230</title>
<path fill="none" stroke="#000000" d="M59.6524,-316.8737C59.6309,-316.933 59.6095,-316.9923 59.5881,-317.0516"/>
<polygon fill="#000000" stroke="#000000" points="59.6349,-306.6336 59.5238,-317.2294 66.2183,-309.0155 59.6349,-306.6336"/>
</g>
<!-- 264608 -->
<g id="node77" class="node">
<title>264608</title>
<ellipse fill="none" stroke="#000000" cx="86.2396" cy="-287.1712" rx="37.0935" ry="18"/>
<text text-anchor="middle" x="86.2396" y="-283.4712" font-family="Times,serif" font-size="14.00" fill="#000000">264608</text>
</g>
<!-- 5692&#45;&gt;264608 -->
<g id="edge42" class="edge">
<title>5692&#45;&gt;264608</title>
<path fill="none" stroke="#000000" d="M86.1818,-287.2054C86.1913,-287.1997 86.1997,-287.1948 86.2069,-287.1905"/>
<polygon fill="#000000" stroke="#000000" points="79.3982,-295.3062 86.225,-287.1798 75.8206,-289.2753 79.3982,-295.3062"/>
</g>
<!-- 6453&#45;&gt;3257 -->
<g id="edge43" class="edge">
<title>6453&#45;&gt;3257</title>
<path fill="none" stroke="#000000" d="M279.8678,-170.2712C279.9961,-170.2753 280.1177,-170.2791 280.2322,-170.2828"/>
<polygon fill="#000000" stroke="#000000" points="270.9582,-173.4901 281.0642,-170.3091 271.1803,-166.4936 270.9582,-173.4901"/>
</g>
<!-- 6461&#45;&gt;2497 -->
<g id="edge44" class="edge">
<title>6461&#45;&gt;2497</title>
<path fill="none" stroke="#000000" d="M460.1548,-195.9204C460.2383,-195.9379 460.3209,-195.9553 460.4026,-195.9725"/>
<polygon fill="#000000" stroke="#000000" points="450.1373,-197.3869 460.6448,-196.0234 451.5804,-190.5368 450.1373,-197.3869"/>
</g>
<!-- 6695 -->
<g id="node32" class="node">
<title>6695</title>
<ellipse fill="none" stroke="#000000" cx="772.27" cy="-198.0083" rx="28.6953" ry="18"/>
<text text-anchor="middle" x="772.27" y="-194.3083" font-family="Times,serif" font-size="14.00" fill="#000000">6695</text>
</g>
<!-- 6762&#45;&gt;2914 -->
<g id="edge45" class="edge">
<title>6762&#45;&gt;2914</title>
<path fill="none" stroke="#000000" d="M216.8773,-169.2304C216.9433,-169.2304 217.0085,-169.2303 217.073,-169.2303"/>
<polygon fill="#000000" stroke="#000000" points="207.2677,-172.7412 217.2639,-169.2302 207.26,-165.7412 207.2677,-172.7412"/>
</g>
<!-- 6904 -->
<g id="node34" class="node">
<title>6904</title>
<ellipse fill="none" stroke="#000000" cx="132.9478" cy="-103.1542" rx="28.6953" ry="18"/>
<text text-anchor="middle" x="132.9478" y="-99.4542" font-family="Times,serif" font-size="14.00" fill="#000000">6904</text>
</g>
<!-- 6904&#45;&gt;2687 -->
<g id="edge46" class="edge">
<title>6904&#45;&gt;2687</title>
<path fill="none" stroke="#000000" d="M126.4071,-85.4434C126.3901,-85.3972 126.373,-85.351 126.356,-85.3049"/>
<polygon fill="#000000" stroke="#000000" points="133.0571,-93.3339 126.305,-85.1667 126.4903,-95.762 133.0571,-93.3339"/>
</g>
<!-- 6939 -->
<g id="node35" class="node">
<title>6939</title>
<ellipse fill="none" stroke="#000000" cx="493.2117" cy="-390.5654" rx="28.6953" ry="18"/>
<text text-anchor="middle" x="493.2117" y="-386.8654" font-family="Times,serif" font-size="14.00" fill="#000000">6939</text>
</g>
<!-- 12266 -->
<g id="node52" class="node">
<title>12266</title>
<ellipse fill="none" stroke="#000000" cx="492.3983" cy="-418.6072" rx="32.4942" ry="18"/>
<text text-anchor="middle" x="492.3983" y="-414.9072" font-family="Times,serif" font-size="14.00" fill="#000000">12266</text>
</g>
<!-- 6939&#45;&gt;12266 -->
<g id="edge47" class="edge">
<title>6939&#45;&gt;12266</title>
<path fill="none" stroke="#000000" d="M492.6828,-408.7995C492.6803,-408.8832 492.6779,-408.9667 492.6755,-409.0499"/>
<polygon fill="#000000" stroke="#000000" points="489.4636,-399.2003 492.6683,-409.2989 496.4607,-399.406 489.4636,-399.2003"/>
</g>
<!-- 7016 -->
<g id="node36" class="node">
<title>7016</title>
<ellipse fill="none" stroke="#000000" cx="119.1267" cy="-133.4753" rx="28.6953" ry="18"/>
<text text-anchor="middle" x="119.1267" y="-129.7753" font-family="Times,serif" font-size="14.00" fill="#000000">7016</text>
</g>
<!-- 7922 -->
<g id="node41" class="node">
<title>7922</title>
<ellipse fill="none" stroke="#000000" cx="97.7341" cy="-132.7112" rx="28.6953" ry="18"/>
<text text-anchor="middle" x="97.7341" y="-129.0112" font-family="Times,serif" font-size="14.00" fill="#000000">7922</text>
</g>
<!-- 7016&#45;&gt;7922 -->
<g id="edge48" class="edge">
<title>7016&#45;&gt;7922</title>
<path fill="none" stroke="#000000" d="M97.7955,-132.7134C97.7854,-132.713 97.7765,-132.7127 97.7688,-132.7124"/>
<polygon fill="#000000" stroke="#000000" points="107.8857,-129.6208 97.7496,-132.7117 107.6009,-136.6164 107.8857,-129.6208"/>
</g>
<!-- 7018&#45;&gt;3320 -->
<g id="edge49" class="edge">
<title>7018&#45;&gt;3320</title>
<path fill="none" stroke="#000000" d="M493.8224,-255.5043C493.8185,-255.5606 493.8145,-255.6168 493.8106,-255.673"/>
<polygon fill="#000000" stroke="#000000" points="491.0108,-245.6195 493.7988,-255.8414 497.9937,-246.112 491.0108,-245.6195"/>
</g>
<!-- 7473 -->
<g id="node38" class="node">
<title>7473</title>
<ellipse fill="none" stroke="#000000" cx="540.7841" cy="-138.0426" rx="28.6953" ry="18"/>
<text text-anchor="middle" x="540.7841" y="-134.3426" font-family="Times,serif" font-size="14.00" fill="#000000">7473</text>
</g>
<!-- 7474 -->
<g id="node39" class="node">
<title>7474</title>
<ellipse fill="none" stroke="#000000" cx="603.1321" cy="-208.3669" rx="28.6953" ry="18"/>
<text text-anchor="middle" x="603.1321" y="-204.6669" font-family="Times,serif" font-size="14.00" fill="#000000">7474</text>
</g>
<!-- 7545&#45;&gt;4635 -->
<g id="edge50" class="edge">
<title>7545&#45;&gt;4635</title>
<path fill="none" stroke="#000000" d="M696.3483,-209.7654C696.4391,-209.8809 696.5202,-209.9839 696.5908,-210.0736"/>
<polygon fill="#000000" stroke="#000000" points="687.8341,-204.6065 696.77,-210.3014 693.3359,-200.277 687.8341,-204.6065"/>
</g>
<!-- 7545&#45;&gt;4739 -->
<g id="edge51" class="edge">
<title>7545&#45;&gt;4739</title>
<path fill="none" stroke="#000000" d="M711.6643,-189.9937C711.726,-189.9857 711.7874,-189.9778 711.8485,-189.97"/>
<polygon fill="#000000" stroke="#000000" points="702.5614,-194.6996 712.0309,-189.9465 701.6641,-187.7569 702.5614,-194.6996"/>
</g>
<!-- 9942 -->
<g id="node47" class="node">
<title>9942</title>
<ellipse fill="none" stroke="#000000" cx="675.3676" cy="-213.7864" rx="28.6953" ry="18"/>
<text text-anchor="middle" x="675.3676" y="-210.0864" font-family="Times,serif" font-size="14.00" fill="#000000">9942</text>
</g>
<!-- 7545&#45;&gt;9942 -->
<g id="edge52" class="edge">
<title>7545&#45;&gt;9942</title>
<path fill="none" stroke="#000000" d="M676.3809,-211.3116C676.3423,-211.4059 676.3045,-211.4981 676.2677,-211.5881"/>
<polygon fill="#000000" stroke="#000000" points="676.712,-201.2696 676.16,-211.8512 683.1902,-203.9234 676.712,-201.2696"/>
</g>
<!-- 9002 -->
<g id="node42" class="node">
<title>9002</title>
<ellipse fill="none" stroke="#000000" cx="751.4055" cy="-210.2169" rx="28.6953" ry="18"/>
<text text-anchor="middle" x="751.4055" y="-206.5169" font-family="Times,serif" font-size="14.00" fill="#000000">9002</text>
</g>
<!-- 9443 -->
<g id="node43" class="node">
<title>9443</title>
<ellipse fill="none" stroke="#000000" cx="772.6673" cy="-169.3146" rx="28.6953" ry="18"/>
<text text-anchor="middle" x="772.6673" y="-165.6146" font-family="Times,serif" font-size="14.00" fill="#000000">9443</text>
</g>
<!-- 9443&#45;&gt;4826 -->
<g id="edge53" class="edge">
<title>9443&#45;&gt;4826</title>
<path fill="none" stroke="#000000" d="M790.8578,-155.2986C791.0992,-155.1126 791.3168,-154.945 791.5072,-154.7982"/>
<polygon fill="#000000" stroke="#000000" points="786.2092,-163.2995 791.9944,-154.4228 781.9363,-157.7544 786.2092,-163.2995"/>
</g>
<!-- 9498&#45;&gt;7473 -->
<g id="edge54" class="edge">
<title>9498&#45;&gt;7473</title>
<path fill="none" stroke="#000000" d="M540.6121,-138.1974C540.6402,-138.1721 540.6649,-138.1499 540.6863,-138.1306"/>
<polygon fill="#000000" stroke="#000000" points="535.6462,-147.3789 540.7402,-138.0822 530.9605,-142.1731 535.6462,-147.3789"/>
</g>
<!-- 10026 -->
<g id="node48" class="node">
<title>10026</title>
<ellipse fill="none" stroke="#000000" cx="515.4468" cy="-124.8095" rx="32.4942" ry="18"/>
<text text-anchor="middle" x="515.4468" y="-121.1095" font-family="Times,serif" font-size="14.00" fill="#000000">10026</text>
</g>
<!-- 9498&#45;&gt;10026 -->
<g id="edge55" class="edge">
<title>9498&#45;&gt;10026</title>
<path fill="none" stroke="#000000" d="M518.9543,-134.2562C518.9244,-134.1756 518.8945,-134.0952 518.8648,-134.015"/>
<polygon fill="#000000" stroke="#000000" points="525.5402,-141.931 518.7757,-133.7752 518.9778,-144.3693 525.5402,-141.931"/>
</g>
<!-- 10026&#45;&gt;4755 -->
<g id="edge56" class="edge">
<title>10026&#45;&gt;4755</title>
<path fill="none" stroke="#000000" d="M511.5074,-106.912C511.4943,-106.8523 511.4812,-106.7928 511.4682,-106.7336"/>
<polygon fill="#000000" stroke="#000000" points="517.0014,-115.5691 511.4292,-106.5566 510.165,-117.0769 517.0014,-115.5691"/>
</g>
<!-- 12956 -->
<g id="node53" class="node">
<title>12956</title>
<ellipse fill="none" stroke="#000000" cx="114.5068" cy="-229.4424" rx="32.4942" ry="18"/>
<text text-anchor="middle" x="114.5068" y="-225.7424" font-family="Times,serif" font-size="14.00" fill="#000000">12956</text>
</g>
<!-- 10834&#45;&gt;12956 -->
<g id="edge57" class="edge">
<title>10834&#45;&gt;12956</title>
<path fill="none" stroke="#000000" d="M105.0052,-245.1384C105.0429,-245.0762 105.0806,-245.0139 105.1182,-244.9517"/>
<polygon fill="#000000" stroke="#000000" points="103.0448,-255.1337 105.2312,-244.7651 97.0561,-251.5072 103.0448,-255.1337"/>
</g>
<!-- 22927 -->
<g id="node59" class="node">
<title>22927</title>
<ellipse fill="none" stroke="#000000" cx="116.2185" cy="-260.0343" rx="32.4942" ry="18"/>
<text text-anchor="middle" x="116.2185" y="-256.3343" font-family="Times,serif" font-size="14.00" fill="#000000">22927</text>
</g>
<!-- 10834&#45;&gt;22927 -->
<g id="edge58" class="edge">
<title>10834&#45;&gt;22927</title>
<path fill="none" stroke="#000000" d="M116.1564,-260.0411C116.1666,-260.04 116.1756,-260.039 116.1834,-260.0381"/>
<polygon fill="#000000" stroke="#000000" points="106.6532,-264.6374 116.2028,-260.036 105.868,-257.6779 106.6532,-264.6374"/>
</g>
<!-- 12189 -->
<g id="node51" class="node">
<title>12189</title>
<ellipse fill="none" stroke="#000000" cx="484.3876" cy="-473.1716" rx="32.4942" ry="18"/>
<text text-anchor="middle" x="484.3876" y="-469.4716" font-family="Times,serif" font-size="14.00" fill="#000000">12189</text>
</g>
<!-- 12189&#45;&gt;4637 -->
<g id="edge59" class="edge">
<title>12189&#45;&gt;4637</title>
<path fill="none" stroke="#000000" d="M465.0743,-485.4424C465.0652,-485.4483 465.0571,-485.4534 465.0502,-485.4578"/>
<polygon fill="#000000" stroke="#000000" points="471.596,-477.1269 465.0328,-485.4688 475.3656,-483.0405 471.596,-477.1269"/>
</g>
<!-- 17819 -->
<g id="node56" class="node">
<title>17819</title>
<ellipse fill="none" stroke="#000000" cx="487.7692" cy="-497.8247" rx="32.4942" ry="18"/>
<text text-anchor="middle" x="487.7692" y="-494.1247" font-family="Times,serif" font-size="14.00" fill="#000000">17819</text>
</g>
<!-- 12189&#45;&gt;17819 -->
<g id="edge60" class="edge">
<title>12189&#45;&gt;17819</title>
<path fill="none" stroke="#000000" d="M486.8807,-491.3474C486.8886,-491.4051 486.8965,-491.4626 486.9044,-491.5199"/>
<polygon fill="#000000" stroke="#000000" points="482.0963,-482.2611 486.9278,-491.6911 489.0314,-481.3064 482.0963,-482.2611"/>
</g>
<!-- 28666 -->
<g id="node62" class="node">
<title>28666</title>
<ellipse fill="none" stroke="#000000" cx="506.2596" cy="-480.9076" rx="32.4942" ry="18"/>
<text text-anchor="middle" x="506.2596" y="-477.2076" font-family="Times,serif" font-size="14.00" fill="#000000">28666</text>
</g>
<!-- 12189&#45;&gt;28666 -->
<g id="edge61" class="edge">
<title>12189&#45;&gt;28666</title>
<path fill="none" stroke="#000000" d="M506.1968,-480.8854C506.2072,-480.8891 506.2163,-480.8923 506.2241,-480.895"/>
<polygon fill="#000000" stroke="#000000" points="495.6351,-480.8363 506.2437,-480.902 497.9915,-474.235 495.6351,-480.8363"/>
</g>
<!-- 38930 -->
<g id="node69" class="node">
<title>38930</title>
<ellipse fill="none" stroke="#000000" cx="464.8197" cy="-462.9592" rx="32.4942" ry="18"/>
<text text-anchor="middle" x="464.8197" y="-459.2592" font-family="Times,serif" font-size="14.00" fill="#000000">38930</text>
</g>
<!-- 12189&#45;&gt;38930 -->
<g id="edge62" class="edge">
<title>12189&#45;&gt;38930</title>
<path fill="none" stroke="#000000" d="M464.8758,-462.9885C464.8666,-462.9837 464.8585,-462.9794 464.8515,-462.9758"/>
<polygon fill="#000000" stroke="#000000" points="475.3337,-464.5155 464.8339,-462.9666 472.076,-470.7252 475.3337,-464.5155"/>
</g>
<!-- 20454 -->
<g id="node58" class="node">
<title>20454</title>
<ellipse fill="none" stroke="#000000" cx="490.4187" cy="-445.4391" rx="32.4942" ry="18"/>
<text text-anchor="middle" x="490.4187" y="-441.7391" font-family="Times,serif" font-size="14.00" fill="#000000">20454</text>
</g>
<!-- 12266&#45;&gt;20454 -->
<g id="edge63" class="edge">
<title>12266&#45;&gt;20454</title>
<path fill="none" stroke="#000000" d="M491.0669,-436.6533C491.0613,-436.7292 491.0557,-436.8048 491.0502,-436.8801"/>
<polygon fill="#000000" stroke="#000000" points="488.2829,-426.8737 491.0335,-437.1056 495.2639,-427.3916 488.2829,-426.8737"/>
</g>
<!-- 12956&#45;&gt;3356 -->
<g id="edge64" class="edge">
<title>12956&#45;&gt;3356</title>
<path fill="none" stroke="#000000" d="M126.2644,-212.4456C126.3006,-212.3933 126.3368,-212.3411 126.3729,-212.2888"/>
<polygon fill="#000000" stroke="#000000" points="123.6687,-222.3492 126.4812,-212.1322 117.9112,-218.3653 123.6687,-222.3492"/>
</g>
<!-- 17676&#45;&gt;6939 -->
<g id="edge65" class="edge">
<title>17676&#45;&gt;6939</title>
<path fill="none" stroke="#000000" d="M493.0117,-380.8557C493.0134,-380.9385 493.0151,-381.0212 493.0168,-381.1036"/>
<polygon fill="#000000" stroke="#000000" points="489.3127,-371.4256 493.0219,-381.3501 496.3112,-371.2787 489.3127,-371.4256"/>
</g>
<!-- 18540 -->
<g id="node57" class="node">
<title>18540</title>
<ellipse fill="none" stroke="#000000" cx="159.2665" cy="-122.5863" rx="32.4942" ry="18"/>
<text text-anchor="middle" x="159.2665" y="-118.8863" font-family="Times,serif" font-size="14.00" fill="#000000">18540</text>
</g>
<!-- 20454&#45;&gt;12189 -->
<g id="edge66" class="edge">
<title>20454&#45;&gt;12189</title>
<path fill="none" stroke="#000000" d="M486.497,-463.4721C486.479,-463.5549 486.461,-463.6375 486.4431,-463.7198"/>
<polygon fill="#000000" stroke="#000000" points="485.0977,-453.4494 486.3896,-463.966 491.9379,-454.9392 485.0977,-453.4494"/>
</g>
<!-- 30070&#45;&gt;6904 -->
<g id="edge67" class="edge">
<title>30070&#45;&gt;6904</title>
<path fill="none" stroke="#000000" d="M136.9059,-116.6913C136.8897,-116.636 136.8736,-116.5808 136.8575,-116.5256"/>
<polygon fill="#000000" stroke="#000000" points="142.9791,-124.9749 136.8091,-116.3602 136.2603,-126.9423 142.9791,-124.9749"/>
</g>
<!-- 30070&#45;&gt;7016 -->
<g id="edge68" class="edge">
<title>30070&#45;&gt;7016</title>
<path fill="none" stroke="#000000" d="M119.1927,-133.4786C119.1818,-133.4781 119.1722,-133.4776 119.164,-133.4772"/>
<polygon fill="#000000" stroke="#000000" points="129.3239,-130.5329 119.1433,-133.4761 128.9373,-137.5239 129.3239,-130.5329"/>
</g>
<!-- 30070&#45;&gt;18540 -->
<g id="edge69" class="edge">
<title>30070&#45;&gt;18540</title>
<path fill="none" stroke="#000000" d="M159.2174,-122.6208C159.2255,-122.6151 159.2327,-122.6101 159.2388,-122.6058"/>
<polygon fill="#000000" stroke="#000000" points="153.0938,-131.2419 159.2541,-122.595 149.0461,-125.5129 153.0938,-131.2419"/>
</g>
<!-- 32787&#45;&gt;2764 -->
<g id="edge70" class="edge">
<title>32787&#45;&gt;2764</title>
<path fill="none" stroke="#000000" d="M638.4059,-183.9381C638.4809,-183.9303 638.5556,-183.9226 638.6299,-183.915"/>
<polygon fill="#000000" stroke="#000000" points="629.2643,-188.4019 638.8518,-183.8921 628.5445,-181.4387 629.2643,-188.4019"/>
</g>
<!-- 32787&#45;&gt;2828 -->
<g id="edge71" class="edge">
<title>32787&#45;&gt;2828</title>
<path fill="none" stroke="#000000" d="M597.8077,-169.8128C597.8037,-169.8045 597.8002,-169.7972 597.7972,-169.791"/>
<polygon fill="#000000" stroke="#000000" points="605.3016,-177.2753 597.7897,-169.7753 598.985,-180.3228 605.3016,-177.2753"/>
</g>
<!-- 32787&#45;&gt;7474 -->
<g id="edge72" class="edge">
<title>32787&#45;&gt;7474</title>
<path fill="none" stroke="#000000" d="M603.554,-205.4317C603.5461,-205.4872 603.5382,-205.5421 603.5304,-205.5964"/>
<polygon fill="#000000" stroke="#000000" points="601.4709,-195.3592 603.5072,-205.7573 608.3997,-196.3588 601.4709,-195.3592"/>
</g>
<!-- 38333&#45;&gt;1221 -->
<g id="edge73" class="edge">
<title>38333&#45;&gt;1221</title>
<path fill="none" stroke="#000000" d="M664.5227,-142.6776C664.5464,-142.5812 664.5695,-142.487 664.5921,-142.395"/>
<polygon fill="#000000" stroke="#000000" points="665.6689,-152.6732 664.6582,-142.126 658.871,-151.0015 665.6689,-152.6732"/>
</g>
<!-- 38880&#45;&gt;6695 -->
<g id="edge74" class="edge">
<title>38880&#45;&gt;6695</title>
<path fill="none" stroke="#000000" d="M772.2098,-197.9799C772.2198,-197.9846 772.2285,-197.9887 772.236,-197.9922"/>
<polygon fill="#000000" stroke="#000000" points="761.7041,-196.8655 772.2548,-198.0011 764.7152,-190.5338 761.7041,-196.8655"/>
</g>
<!-- 38880&#45;&gt;9002 -->
<g id="edge75" class="edge">
<title>38880&#45;&gt;9002</title>
<path fill="none" stroke="#000000" d="M751.3865,-206.3632C751.3869,-206.4348 751.3872,-206.5058 751.3876,-206.576"/>
<polygon fill="#000000" stroke="#000000" points="747.8345,-196.8034 751.3886,-206.7843 754.8344,-196.7655 747.8345,-196.8034"/>
</g>
<!-- 38880&#45;&gt;9443 -->
<g id="edge76" class="edge">
<title>38880&#45;&gt;9443</title>
<path fill="none" stroke="#000000" d="M768.9448,-172.5854C769.014,-172.5246 769.0825,-172.4644 769.1503,-172.4049"/>
<polygon fill="#000000" stroke="#000000" points="764.1492,-181.4595 769.3516,-172.228 759.5279,-176.2004 764.1492,-181.4595"/>
</g>
</g>
</svg>
