<?xml version="1.0" encoding="UTF-8" standalone="no"?>
<!DOCTYPE svg PUBLIC "-//W3C//DTD SVG 1.1//EN"
 "http://www.w3.org/Graphics/SVG/1.1/DTD/svg11.dtd">
<!-- Generated by graphviz version 2.40.1 (20161225.0304)
 -->
<!-- Title: %3 Pages: 1 -->
<svg width="656pt" height="618pt"
 viewBox="0.00 0.00 655.57 617.79" xmlns="http://www.w3.org/2000/svg" xmlns:xlink="http://www.w3.org/1999/xlink">
<g id="graph0" class="graph" transform="scale(1 1) rotate(0) translate(4 613.7873)">
<title>%3</title>
<polygon fill="#ffffff" stroke="transparent" points="-4,4 -4,-613.7873 651.5731,-613.7873 651.5731,4 -4,4"/>
<!-- 3 -->
<g id="node1" class="node">
<title>3</title>
<ellipse fill="none" stroke="#000000" cx="327.1685" cy="-306.8134" rx="27" ry="18"/>
<text text-anchor="middle" x="327.1685" y="-303.1134" font-family="Times,serif" font-size="14.00" fill="#000000">3</text>
</g>
<!-- 174 -->
<g id="node2" class="node">
<title>174</title>
<ellipse fill="none" stroke="#000000" cx="598.5464" cy="-420.13" rx="27" ry="18"/>
<text text-anchor="middle" x="598.5464" y="-416.43" font-family="Times,serif" font-size="14.00" fill="#000000">174</text>
</g>
<!-- 3&#45;&gt;174 -->
<g id="edge1" class="edge">
<title>3&#45;&gt;174</title>
<path fill="none" stroke="#000000" d="M350.306,-316.4747C398.6729,-336.6708 510.5834,-383.4001 566.1029,-406.5829"/>
<polygon fill="#000000" stroke="#000000" points="564.891,-409.8696 575.4675,-410.4931 567.5883,-403.4102 564.891,-409.8696"/>
</g>
<!-- 293 -->
<g id="node3" class="node">
<title>293</title>
<ellipse fill="none" stroke="#000000" cx="547.2107" cy="-488.5105" rx="27" ry="18"/>
<text text-anchor="middle" x="547.2107" y="-484.8105" font-family="Times,serif" font-size="14.00" fill="#000000">293</text>
</g>
<!-- 3&#45;&gt;293 -->
<g id="edge2" class="edge">
<title>3&#45;&gt;293</title>
<path fill="none" stroke="#000000" d="M344.4348,-321.0709C383.1582,-353.0462 477.0682,-430.5912 522.1911,-467.8509"/>
<polygon fill="#000000" stroke="#000000" points="520.085,-470.6509 530.0245,-474.3193 524.5421,-465.2532 520.085,-470.6509"/>
</g>
<!-- 3356 -->
<g id="node4" class="node">
<title>3356</title>
<ellipse fill="none" stroke="#000000" cx="591.356" cy="-338.0404" rx="28.6953" ry="18"/>
<text text-anchor="middle" x="591.356" y="-334.3404" font-family="Times,serif" font-size="14.00" fill="#000000">3356</text>
</g>
<!-- 3&#45;&gt;3356 -->
<g id="edge3" class="edge">
<title>3&#45;&gt;3356</title>
<path fill="none" stroke="#000000" d="M353.9541,-309.9795C400.9329,-315.5324 498.3403,-327.046 552.6462,-333.4649"/>
<polygon fill="#000000" stroke="#000000" points="552.5632,-336.9794 562.905,-334.6775 553.385,-330.0278 552.5632,-336.9794"/>
</g>
<!-- 6939 -->
<g id="node5" class="node">
<title>6939</title>
<ellipse fill="none" stroke="#000000" cx="477.7324" cy="-360.3486" rx="28.6953" ry="18"/>
<text text-anchor="middle" x="477.7324" y="-356.6486" font-family="Times,serif" font-size="14.00" fill="#000000">6939</text>
</g>
<!-- 3&#45;&gt;6939 -->
<g id="edge4" class="edge">
<title>3&#45;&gt;6939</title>
<path fill="none" stroke="#000000" d="M351.0258,-315.2962C375.8742,-324.1314 415.0406,-338.0576 443.2526,-348.0888"/>
<polygon fill="#000000" stroke="#000000" points="442.1385,-351.4073 452.7332,-351.4598 444.4837,-344.8118 442.1385,-351.4073"/>
</g>
<!-- 7015 -->
<g id="node6" class="node">
<title>7015</title>
<ellipse fill="none" stroke="#000000" cx="373.4019" cy="-427.5339" rx="28.6953" ry="18"/>
<text text-anchor="middle" x="373.4019" y="-423.8339" font-family="Times,serif" font-size="14.00" fill="#000000">7015</text>
</g>
<!-- 3&#45;&gt;7015 -->
<g id="edge5" class="edge">
<title>3&#45;&gt;7015</title>
<path fill="none" stroke="#000000" d="M333.8912,-324.3672C341.5268,-344.3046 354.0789,-377.0794 362.9847,-400.3333"/>
<polygon fill="#000000" stroke="#000000" points="359.826,-401.8721 366.6711,-409.9589 366.363,-399.3685 359.826,-401.8721"/>
</g>
<!-- 7029 -->
<g id="node7" class="node">
<title>7029</title>
<ellipse fill="none" stroke="#000000" cx="342.4603" cy="-591.7873" rx="28.6953" ry="18"/>
<text text-anchor="middle" x="342.4603" y="-588.0873" font-family="Times,serif" font-size="14.00" fill="#000000">7029</text>
</g>
<!-- 3&#45;&gt;7029 -->
<g id="edge6" class="edge">
<title>3&#45;&gt;7029</title>
<path fill="none" stroke="#000000" d="M328.1483,-325.0733C330.7431,-373.429 337.8075,-505.0784 340.9352,-563.3659"/>
<polygon fill="#000000" stroke="#000000" points="337.4577,-563.8814 341.4886,-573.6795 344.4477,-563.5063 337.4577,-563.8814"/>
</g>
<!-- 10578 -->
<g id="node8" class="node">
<title>10578</title>
<ellipse fill="none" stroke="#000000" cx="429.4408" cy="-578.5702" rx="32.4942" ry="18"/>
<text text-anchor="middle" x="429.4408" y="-574.8702" font-family="Times,serif" font-size="14.00" fill="#000000">10578</text>
</g>
<!-- 3&#45;&gt;10578 -->
<g id="edge7" class="edge">
<title>3&#45;&gt;10578</title>
<path fill="none" stroke="#000000" d="M333.8789,-324.6441C351.3242,-370.9996 398.1964,-495.5479 419.1148,-551.132"/>
<polygon fill="#000000" stroke="#000000" points="415.9077,-552.5474 422.7057,-560.6738 422.4592,-550.0818 415.9077,-552.5474"/>
</g>
<!-- 18365 -->
<g id="node9" class="node">
<title>18365</title>
<ellipse fill="none" stroke="#000000" cx="474.6372" cy="-516.617" rx="32.4942" ry="18"/>
<text text-anchor="middle" x="474.6372" y="-512.917" font-family="Times,serif" font-size="14.00" fill="#000000">18365</text>
</g>
<!-- 3&#45;&gt;18365 -->
<g id="edge8" class="edge">
<title>3&#45;&gt;18365</title>
<path fill="none" stroke="#000000" d="M338.7401,-323.2763C364.4034,-359.7874 426.2338,-447.7535 456.8487,-491.3093"/>
<polygon fill="#000000" stroke="#000000" points="454.0958,-493.4792 462.7097,-499.6478 459.8226,-489.4539 454.0958,-493.4792"/>
</g>
<!-- 23248 -->
<g id="node10" class="node">
<title>23248</title>
<ellipse fill="none" stroke="#000000" cx="228.9177" cy="-570.0348" rx="32.4942" ry="18"/>
<text text-anchor="middle" x="228.9177" y="-566.3348" font-family="Times,serif" font-size="14.00" fill="#000000">23248</text>
</g>
<!-- 3&#45;&gt;23248 -->
<g id="edge9" class="edge">
<title>3&#45;&gt;23248</title>
<path fill="none" stroke="#000000" d="M320.5694,-324.4928C303.7949,-369.4329 259.4239,-488.3064 239.2107,-542.459"/>
<polygon fill="#000000" stroke="#000000" points="235.8354,-541.4931 235.6174,-552.0857 242.3934,-543.941 235.8354,-541.4931"/>
</g>
<!-- 27787 -->
<g id="node11" class="node">
<title>27787</title>
<ellipse fill="none" stroke="#000000" cx="290.8555" cy="-500.0947" rx="32.4942" ry="18"/>
<text text-anchor="middle" x="290.8555" y="-496.3947" font-family="Times,serif" font-size="14.00" fill="#000000">27787</text>
</g>
<!-- 3&#45;&gt;27787 -->
<g id="edge10" class="edge">
<title>3&#45;&gt;27787</title>
<path fill="none" stroke="#000000" d="M323.7523,-324.9968C317.3828,-358.8991 303.6568,-431.9578 296.1035,-472.161"/>
<polygon fill="#000000" stroke="#000000" points="292.6429,-471.626 294.2362,-482.1004 299.5225,-472.9186 292.6429,-471.626"/>
</g>
<!-- 32787 -->
<g id="node12" class="node">
<title>32787</title>
<ellipse fill="none" stroke="#000000" cx="189.0706" cy="-431.1996" rx="32.4942" ry="18"/>
<text text-anchor="middle" x="189.0706" y="-427.4996" font-family="Times,serif" font-size="14.00" fill="#000000">32787</text>
</g>
<!-- 3&#45;&gt;32787 -->
<g id="edge11" class="edge">
<title>3&#45;&gt;32787</title>
<path fill="none" stroke="#000000" d="M311.0567,-321.3255C287.1236,-342.8822 241.9854,-383.5387 213.835,-408.894"/>
<polygon fill="#000000" stroke="#000000" points="211.4653,-406.318 206.3774,-415.6112 216.1501,-411.5192 211.4653,-406.318"/>
</g>
<!-- 33480 -->
<g id="node13" class="node">
<title>33480</title>
<ellipse fill="none" stroke="#000000" cx="141.5426" cy="-534.875" rx="32.4942" ry="18"/>
<text text-anchor="middle" x="141.5426" y="-531.175" font-family="Times,serif" font-size="14.00" fill="#000000">33480</text>
</g>
<!-- 3&#45;&gt;33480 -->
<g id="edge12" class="edge">
<title>3&#45;&gt;33480</title>
<path fill="none" stroke="#000000" d="M314.1157,-322.8503C282.1193,-362.1612 199.6199,-463.5207 161.4545,-510.4111"/>
<polygon fill="#000000" stroke="#000000" points="158.6781,-508.2778 155.08,-518.2429 164.1071,-512.6966 158.6781,-508.2778"/>
</g>
<!-- 37642 -->
<g id="node14" class="node">
<title>37642</title>
<ellipse fill="none" stroke="#000000" cx="32.4971" cy="-375.5645" rx="32.4942" ry="18"/>
<text text-anchor="middle" x="32.4971" y="-371.8645" font-family="Times,serif" font-size="14.00" fill="#000000">37642</text>
</g>
<!-- 3&#45;&gt;37642 -->
<g id="edge13" class="edge">
<title>3&#45;&gt;37642</title>
<path fill="none" stroke="#000000" d="M301.5338,-312.7943C250.0699,-324.8016 133.8559,-351.916 72.3732,-366.2608"/>
<polygon fill="#000000" stroke="#000000" points="71.5776,-362.8524 62.6345,-368.533 73.1682,-369.6693 71.5776,-362.8524"/>
</g>
<!-- 43888 -->
<g id="node15" class="node">
<title>43888</title>
<ellipse fill="none" stroke="#000000" cx="55.2566" cy="-288.547" rx="32.4942" ry="18"/>
<text text-anchor="middle" x="55.2566" y="-284.847" font-family="Times,serif" font-size="14.00" fill="#000000">43888</text>
</g>
<!-- 3&#45;&gt;43888 -->
<g id="edge14" class="edge">
<title>3&#45;&gt;43888</title>
<path fill="none" stroke="#000000" d="M300.1025,-304.9952C252.6803,-301.8095 154.2495,-295.1971 97.6971,-291.3981"/>
<polygon fill="#000000" stroke="#000000" points="97.8587,-287.9011 87.6466,-290.7229 97.3895,-294.8854 97.8587,-287.9011"/>
</g>
<!-- 56651 -->
<g id="node16" class="node">
<title>56651</title>
<ellipse fill="none" stroke="#000000" cx="172.8667" cy="-320.6031" rx="32.4942" ry="18"/>
<text text-anchor="middle" x="172.8667" y="-316.9031" font-family="Times,serif" font-size="14.00" fill="#000000">56651</text>
</g>
<!-- 3&#45;&gt;56651 -->
<g id="edge15" class="edge">
<title>3&#45;&gt;56651</title>
<path fill="none" stroke="#000000" d="M300.2912,-309.2154C276.7862,-311.316 242.2542,-314.402 215.0656,-316.8318"/>
<polygon fill="#000000" stroke="#000000" points="214.6919,-313.3512 205.0432,-317.7275 215.3151,-320.3234 214.6919,-313.3512"/>
</g>
<!-- 59362 -->
<g id="node17" class="node">
<title>59362</title>
<ellipse fill="none" stroke="#000000" cx="81.346" cy="-454.1078" rx="32.4942" ry="18"/>
<text text-anchor="middle" x="81.346" y="-450.4078" font-family="Times,serif" font-size="14.00" fill="#000000">59362</text>
</g>
<!-- 3&#45;&gt;59362 -->
<g id="edge16" class="edge">
<title>3&#45;&gt;59362</title>
<path fill="none" stroke="#000000" d="M307.0518,-318.8671C264.1074,-344.599 163.224,-405.0473 112.1407,-435.6559"/>
<polygon fill="#000000" stroke="#000000" points="110.2802,-432.6904 103.5012,-440.8326 113.8782,-438.695 110.2802,-432.6904"/>
</g>
<!-- 131758 -->
<g id="node18" class="node">
<title>131758</title>
<ellipse fill="none" stroke="#000000" cx="466.8525" cy="-231.2331" rx="37.0935" ry="18"/>
<text text-anchor="middle" x="466.8525" y="-227.5331" font-family="Times,serif" font-size="14.00" fill="#000000">131758</text>
</g>
<!-- 3&#45;&gt;131758 -->
<g id="edge17" class="edge">
<title>3&#45;&gt;131758</title>
<path fill="none" stroke="#000000" d="M348.3835,-295.3344C370.7764,-283.218 406.4092,-263.9378 432.7537,-249.6833"/>
<polygon fill="#000000" stroke="#000000" points="434.5183,-252.7081 441.6477,-244.8709 431.187,-246.5515 434.5183,-252.7081"/>
</g>
<!-- 133295 -->
<g id="node19" class="node">
<title>133295</title>
<ellipse fill="none" stroke="#000000" cx="593.8745" cy="-176.7645" rx="37.0935" ry="18"/>
<text text-anchor="middle" x="593.8745" y="-173.0645" font-family="Times,serif" font-size="14.00" fill="#000000">133295</text>
</g>
<!-- 3&#45;&gt;133295 -->
<g id="edge18" class="edge">
<title>3&#45;&gt;133295</title>
<path fill="none" stroke="#000000" d="M348.9942,-296.171C394.9777,-273.7488 502.1893,-221.4712 558.2624,-194.1294"/>
<polygon fill="#000000" stroke="#000000" points="560.0045,-197.1739 567.4589,-189.645 556.9365,-190.882 560.0045,-197.1739"/>
</g>
<!-- 133296 -->
<g id="node20" class="node">
<title>133296</title>
<ellipse fill="none" stroke="#000000" cx="521.0003" cy="-132.1768" rx="37.0935" ry="18"/>
<text text-anchor="middle" x="521.0003" y="-128.4768" font-family="Times,serif" font-size="14.00" fill="#000000">133296</text>
</g>
<!-- 3&#45;&gt;133296 -->
<g id="edge19" class="edge">
<title>3&#45;&gt;133296</title>
<path fill="none" stroke="#000000" d="M343.3611,-292.2244C377.1401,-261.7905 455.3298,-191.344 495.766,-154.9121"/>
<polygon fill="#000000" stroke="#000000" points="498.239,-157.3952 503.3256,-148.1012 493.5534,-152.1946 498.239,-157.3952"/>
</g>
<!-- 133957 -->
<g id="node21" class="node">
<title>133957</title>
<ellipse fill="none" stroke="#000000" cx="610.5264" cy="-260.2424" rx="37.0935" ry="18"/>
<text text-anchor="middle" x="610.5264" y="-256.5424" font-family="Times,serif" font-size="14.00" fill="#000000">133957</text>
</g>
<!-- 3&#45;&gt;133957 -->
<g id="edge20" class="edge">
<title>3&#45;&gt;133957</title>
<path fill="none" stroke="#000000" d="M353.5717,-302.4739C402.0156,-294.512 505.602,-277.4871 565.4048,-267.6583"/>
<polygon fill="#000000" stroke="#000000" points="566.025,-271.1034 575.325,-266.0279 564.8897,-264.1961 566.025,-271.1034"/>
</g>
<!-- 135437 -->
<g id="node22" class="node">
<title>135437</title>
<ellipse fill="none" stroke="#000000" cx="119.6475" cy="-106.3894" rx="37.0935" ry="18"/>
<text text-anchor="middle" x="119.6475" y="-102.6894" font-family="Times,serif" font-size="14.00" fill="#000000">135437</text>
</g>
<!-- 3&#45;&gt;135437 -->
<g id="edge21" class="edge">
<title>3&#45;&gt;135437</title>
<path fill="none" stroke="#000000" d="M311.5707,-291.749C275.6464,-257.0533 186.862,-171.3053 143.8176,-129.733"/>
<polygon fill="#000000" stroke="#000000" points="146.2047,-127.1726 136.5803,-122.7431 141.3418,-132.2077 146.2047,-127.1726"/>
</g>
<!-- 137385 -->
<g id="node23" class="node">
<title>137385</title>
<ellipse fill="none" stroke="#000000" cx="213.2122" cy="-109.8014" rx="37.0935" ry="18"/>
<text text-anchor="middle" x="213.2122" y="-106.1014" font-family="Times,serif" font-size="14.00" fill="#000000">137385</text>
</g>
<!-- 3&#45;&gt;137385 -->
<g id="edge22" class="edge">
<title>3&#45;&gt;137385</title>
<path fill="none" stroke="#000000" d="M317.4527,-290.0163C297.587,-255.6718 252.1934,-177.1936 228.3999,-136.0584"/>
<polygon fill="#000000" stroke="#000000" points="231.4291,-134.3051 223.3924,-127.4013 225.3697,-137.81 231.4291,-134.3051"/>
</g>
<!-- 204008 -->
<g id="node24" class="node">
<title>204008</title>
<ellipse fill="none" stroke="#000000" cx="166.9464" cy="-209.7257" rx="37.0935" ry="18"/>
<text text-anchor="middle" x="166.9464" y="-206.0257" font-family="Times,serif" font-size="14.00" fill="#000000">204008</text>
</g>
<!-- 3&#45;&gt;204008 -->
<g id="edge23" class="edge">
<title>3&#45;&gt;204008</title>
<path fill="none" stroke="#000000" d="M306.8763,-294.5172C279.629,-278.0065 230.9323,-248.4984 198.7806,-229.0159"/>
<polygon fill="#000000" stroke="#000000" points="200.5487,-225.9949 190.1825,-223.8058 196.921,-231.9816 200.5487,-225.9949"/>
</g>
<!-- 263531 -->
<g id="node25" class="node">
<title>263531</title>
<ellipse fill="none" stroke="#000000" cx="49.2287" cy="-192.4382" rx="37.0935" ry="18"/>
<text text-anchor="middle" x="49.2287" y="-188.7382" font-family="Times,serif" font-size="14.00" fill="#000000">263531</text>
</g>
<!-- 3&#45;&gt;263531 -->
<g id="edge24" class="edge">
<title>3&#45;&gt;263531</title>
<path fill="none" stroke="#000000" d="M303.9496,-297.2586C255.9972,-277.5256 145.6303,-232.1085 87.1675,-208.0504"/>
<polygon fill="#000000" stroke="#000000" points="88.4855,-204.8081 77.906,-204.2392 85.8216,-211.2814 88.4855,-204.8081"/>
</g>
<!-- 265636 -->
<g id="node26" class="node">
<title>265636</title>
<ellipse fill="none" stroke="#000000" cx="390.3417" cy="-19.8316" rx="37.0935" ry="18"/>
<text text-anchor="middle" x="390.3417" y="-16.1316" font-family="Times,serif" font-size="14.00" fill="#000000">265636</text>
</g>
<!-- 3&#45;&gt;265636 -->
<g id="edge25" class="edge">
<title>3&#45;&gt;265636</title>
<path fill="none" stroke="#000000" d="M331.1203,-288.8614C341.8006,-240.3432 371.3029,-106.3209 384.1873,-47.7897"/>
<polygon fill="#000000" stroke="#000000" points="387.6597,-48.2954 386.3915,-37.7768 380.8234,-46.7905 387.6597,-48.2954"/>
</g>
<!-- 266177 -->
<g id="node27" class="node">
<title>266177</title>
<ellipse fill="none" stroke="#000000" cx="357.4782" cy="-168.3491" rx="37.0935" ry="18"/>
<text text-anchor="middle" x="357.4782" y="-164.6491" font-family="Times,serif" font-size="14.00" fill="#000000">266177</text>
</g>
<!-- 3&#45;&gt;266177 -->
<g id="edge26" class="edge">
<title>3&#45;&gt;266177</title>
<path fill="none" stroke="#000000" d="M331.0689,-288.9951C336.2011,-265.5495 345.2784,-224.0817 351.3368,-196.4047"/>
<polygon fill="#000000" stroke="#000000" points="354.7771,-197.0559 353.4965,-186.5387 347.939,-195.559 354.7771,-197.0559"/>
</g>
<!-- 266491 -->
<g id="node28" class="node">
<title>266491</title>
<ellipse fill="none" stroke="#000000" cx="478.9541" cy="-59.7086" rx="37.0935" ry="18"/>
<text text-anchor="middle" x="478.9541" y="-56.0086" font-family="Times,serif" font-size="14.00" fill="#000000">266491</text>
</g>
<!-- 3&#45;&gt;266491 -->
<g id="edge27" class="edge">
<title>3&#45;&gt;266491</title>
<path fill="none" stroke="#000000" d="M337.6013,-289.8289C363.6424,-247.4344 431.645,-136.7272 462.8632,-85.9043"/>
<polygon fill="#000000" stroke="#000000" points="465.9942,-87.4942 468.2459,-77.1414 460.0295,-83.8304 465.9942,-87.4942"/>
</g>
<!-- 267360 -->
<g id="node29" class="node">
<title>267360</title>
<ellipse fill="none" stroke="#000000" cx="313.8877" cy="-68.7434" rx="37.0935" ry="18"/>
<text text-anchor="middle" x="313.8877" y="-65.0434" font-family="Times,serif" font-size="14.00" fill="#000000">267360</text>
</g>
<!-- 3&#45;&gt;267360 -->
<g id="edge28" class="edge">
<title>3&#45;&gt;267360</title>
<path fill="none" stroke="#000000" d="M326.1484,-288.5278C323.8445,-247.2279 318.225,-146.4928 315.4671,-97.0545"/>
<polygon fill="#000000" stroke="#000000" points="318.9447,-96.555 314.8931,-86.7655 311.9556,-96.945 318.9447,-96.555"/>
</g>
<!-- 394432 -->
<g id="node30" class="node">
<title>394432</title>
<ellipse fill="none" stroke="#000000" cx="230.3322" cy="-18" rx="37.0935" ry="18"/>
<text text-anchor="middle" x="230.3322" y="-14.3" font-family="Times,serif" font-size="14.00" fill="#000000">394432</text>
</g>
<!-- 3&#45;&gt;394432 -->
<g id="edge29" class="edge">
<title>3&#45;&gt;394432</title>
<path fill="none" stroke="#000000" d="M321.2567,-289.1816C304.9481,-240.5413 259.2313,-104.1913 239.5426,-45.4699"/>
<polygon fill="#000000" stroke="#000000" points="242.7871,-44.1366 236.2896,-35.768 236.1502,-46.3619 242.7871,-44.1366"/>
</g>
</g>
</svg>
