<?xml version="1.0" encoding="UTF-8" standalone="no"?>
<!DOCTYPE svg PUBLIC "-//W3C//DTD SVG 1.1//EN"
 "http://www.w3.org/Graphics/SVG/1.1/DTD/svg11.dtd">
<!-- Generated by graphviz version 2.40.1 (20161225.0304)
 -->
<!-- Title: %3 Pages: 1 -->
<svg width="1353pt" height="1328pt"
 viewBox="0.00 0.00 1352.70 1328.14" xmlns="http://www.w3.org/2000/svg" xmlns:xlink="http://www.w3.org/1999/xlink">
<g id="graph0" class="graph" transform="scale(1 1) rotate(0) translate(4 1324.1378)">
<title>%3</title>
<polygon fill="#ffffff" stroke="transparent" points="-4,4 -4,-1324.1378 1348.705,-1324.1378 1348.705,4 -4,4"/>
<!-- 3 -->
<g id="node1" class="node">
<title>3</title>
<ellipse fill="none" stroke="#000000" cx="675.0474" cy="-660.65" rx="27" ry="18"/>
<text text-anchor="middle" x="675.0474" y="-656.95" font-family="Times,serif" font-size="14.00" fill="#000000">3</text>
</g>
<!-- 174 -->
<g id="node2" class="node">
<title>174</title>
<ellipse fill="none" stroke="#000000" cx="1317.705" cy="-660.65" rx="27" ry="18"/>
<text text-anchor="middle" x="1317.705" y="-656.95" font-family="Times,serif" font-size="14.00" fill="#000000">174</text>
</g>
<!-- 3&#45;&gt;174 -->
<g id="edge1" class="edge">
<title>3&#45;&gt;174</title>
<path fill="none" stroke="#000000" d="M702.2511,-660.65C804.0719,-660.65 1162.8328,-660.65 1280.2212,-660.65"/>
<polygon fill="#000000" stroke="#000000" points="1280.4945,-664.1501 1290.4944,-660.65 1280.4944,-657.1501 1280.4945,-664.1501"/>
</g>
<!-- 293 -->
<g id="node3" class="node">
<title>293</title>
<ellipse fill="none" stroke="#000000" cx="1305.3926" cy="-785.8443" rx="27" ry="18"/>
<text text-anchor="middle" x="1305.3926" y="-782.1443" font-family="Times,serif" font-size="14.00" fill="#000000">293</text>
</g>
<!-- 3&#45;&gt;293 -->
<g id="edge2" class="edge">
<title>3&#45;&gt;293</title>
<path fill="none" stroke="#000000" d="M700.9328,-665.7911C799.8936,-685.446 1154.4713,-755.8695 1269.2573,-778.6674"/>
<polygon fill="#000000" stroke="#000000" points="1268.8012,-782.1451 1279.2915,-780.6603 1270.1649,-775.2792 1268.8012,-782.1451"/>
</g>
<!-- 3356 -->
<g id="node4" class="node">
<title>3356</title>
<ellipse fill="none" stroke="#000000" cx="1268.3151" cy="-907.717" rx="28.6953" ry="18"/>
<text text-anchor="middle" x="1268.3151" y="-904.017" font-family="Times,serif" font-size="14.00" fill="#000000">3356</text>
</g>
<!-- 3&#45;&gt;3356 -->
<g id="edge3" class="edge">
<title>3&#45;&gt;3356</title>
<path fill="none" stroke="#000000" d="M698.3042,-670.3353C790.0241,-708.5322 1126.9205,-848.833 1234.827,-893.7708"/>
<polygon fill="#000000" stroke="#000000" points="1233.672,-897.0812 1244.2491,-897.6947 1236.3632,-890.6191 1233.672,-897.0812"/>
</g>
<!-- 6939 -->
<g id="node5" class="node">
<title>6939</title>
<ellipse fill="none" stroke="#000000" cx="1207.0327" cy="-1021.2056" rx="28.6953" ry="18"/>
<text text-anchor="middle" x="1207.0327" y="-1017.5056" font-family="Times,serif" font-size="14.00" fill="#000000">6939</text>
</g>
<!-- 3&#45;&gt;6939 -->
<g id="edge4" class="edge">
<title>3&#45;&gt;6939</title>
<path fill="none" stroke="#000000" d="M694.2953,-673.6953C774.6886,-728.1823 1083.8631,-937.7268 1179.0061,-1002.2104"/>
<polygon fill="#000000" stroke="#000000" points="1177.2889,-1005.2747 1187.5305,-1007.9879 1181.2162,-999.4802 1177.2889,-1005.2747"/>
</g>
<!-- 7015 -->
<g id="node6" class="node">
<title>7015</title>
<ellipse fill="none" stroke="#000000" cx="1124.323" cy="-1120.1717" rx="28.6953" ry="18"/>
<text text-anchor="middle" x="1124.323" y="-1116.4717" font-family="Times,serif" font-size="14.00" fill="#000000">7015</text>
</g>
<!-- 3&#45;&gt;7015 -->
<g id="edge5" class="edge">
<title>3&#45;&gt;7015</title>
<path fill="none" stroke="#000000" d="M689.9956,-675.9391C756.2232,-743.677 1023.3918,-1016.9387 1102.2847,-1097.6307"/>
<polygon fill="#000000" stroke="#000000" points="1099.8251,-1100.1216 1109.3186,-1104.8251 1104.8303,-1095.2279 1099.8251,-1100.1216"/>
</g>
<!-- 7029 -->
<g id="node7" class="node">
<title>7029</title>
<ellipse fill="none" stroke="#000000" cx="1023.5173" cy="-1200.6291" rx="28.6953" ry="18"/>
<text text-anchor="middle" x="1023.5173" y="-1196.9291" font-family="Times,serif" font-size="14.00" fill="#000000">7029</text>
</g>
<!-- 3&#45;&gt;7029 -->
<g id="edge6" class="edge">
<title>3&#45;&gt;7029</title>
<path fill="none" stroke="#000000" d="M685.8585,-677.4026C736.0548,-755.1854 946.4984,-1081.2828 1007.1146,-1175.2119"/>
<polygon fill="#000000" stroke="#000000" points="1004.297,-1177.3008 1012.6602,-1183.8053 1010.1786,-1173.5052 1004.297,-1177.3008"/>
</g>
<!-- 10578 -->
<g id="node8" class="node">
<title>10578</title>
<ellipse fill="none" stroke="#000000" cx="905.0388" cy="-1260.7439" rx="32.4942" ry="18"/>
<text text-anchor="middle" x="905.0388" y="-1257.0439" font-family="Times,serif" font-size="14.00" fill="#000000">10578</text>
</g>
<!-- 3&#45;&gt;10578 -->
<g id="edge7" class="edge">
<title>3&#45;&gt;10578</title>
<path fill="none" stroke="#000000" d="M681.806,-678.2847C714.3704,-763.2517 855.1353,-1130.5357 894.6743,-1233.7009"/>
<polygon fill="#000000" stroke="#000000" points="891.4327,-1235.0232 898.2798,-1243.1083 897.9691,-1232.518 891.4327,-1235.0232"/>
</g>
<!-- 18365 -->
<g id="node9" class="node">
<title>18365</title>
<ellipse fill="none" stroke="#000000" cx="772.8786" cy="-1295.8175" rx="32.4942" ry="18"/>
<text text-anchor="middle" x="772.8786" y="-1292.1175" font-family="Times,serif" font-size="14.00" fill="#000000">18365</text>
</g>
<!-- 3&#45;&gt;18365 -->
<g id="edge8" class="edge">
<title>3&#45;&gt;18365</title>
<path fill="none" stroke="#000000" d="M677.8177,-678.6362C691.495,-767.4361 751.8303,-1159.1618 768.5627,-1267.7963"/>
<polygon fill="#000000" stroke="#000000" points="765.1043,-1268.3348 770.0858,-1277.6854 772.0227,-1267.2691 765.1043,-1268.3348"/>
</g>
<!-- 23248 -->
<g id="node10" class="node">
<title>23248</title>
<ellipse fill="none" stroke="#000000" cx="636.2898" cy="-1302.1378" rx="32.4942" ry="18"/>
<text text-anchor="middle" x="636.2898" y="-1298.4378" font-family="Times,serif" font-size="14.00" fill="#000000">23248</text>
</g>
<!-- 3&#45;&gt;23248 -->
<g id="edge9" class="edge">
<title>3&#45;&gt;23248</title>
<path fill="none" stroke="#000000" d="M673.9499,-678.8151C668.5309,-768.5067 644.6241,-1164.1934 637.9978,-1273.8673"/>
<polygon fill="#000000" stroke="#000000" points="634.4873,-1273.9381 637.3777,-1284.131 641.4745,-1274.3603 634.4873,-1273.9381"/>
</g>
<!-- 27787 -->
<g id="node11" class="node">
<title>27787</title>
<ellipse fill="none" stroke="#000000" cx="501.4554" cy="-1279.4186" rx="32.4942" ry="18"/>
<text text-anchor="middle" x="501.4554" y="-1275.7186" font-family="Times,serif" font-size="14.00" fill="#000000">27787</text>
</g>
<!-- 3&#45;&gt;27787 -->
<g id="edge10" class="edge">
<title>3&#45;&gt;27787</title>
<path fill="none" stroke="#000000" d="M670.0393,-678.5012C645.6147,-765.5629 538.963,-1145.7229 509.1959,-1251.8278"/>
<polygon fill="#000000" stroke="#000000" points="505.8152,-1250.9212 506.4838,-1261.4949 512.555,-1252.8121 505.8152,-1250.9212"/>
</g>
<!-- 32787 -->
<g id="node12" class="node">
<title>32787</title>
<ellipse fill="none" stroke="#000000" cx="374.4794" cy="-1228.6884" rx="32.4942" ry="18"/>
<text text-anchor="middle" x="374.4794" y="-1224.9884" font-family="Times,serif" font-size="14.00" fill="#000000">32787</text>
</g>
<!-- 3&#45;&gt;32787 -->
<g id="edge11" class="edge">
<title>3&#45;&gt;32787</title>
<path fill="none" stroke="#000000" d="M666.052,-677.6502C623.3246,-758.4 440.7775,-1103.3928 388.5123,-1202.1679"/>
<polygon fill="#000000" stroke="#000000" points="385.3178,-1200.7216 383.7344,-1211.1975 391.5051,-1203.9955 385.3178,-1200.7216"/>
</g>
<!-- 33480 -->
<g id="node13" class="node">
<title>33480</title>
<ellipse fill="none" stroke="#000000" cx="261.1098" cy="-1152.2437" rx="32.4942" ry="18"/>
<text text-anchor="middle" x="261.1098" y="-1148.5437" font-family="Times,serif" font-size="14.00" fill="#000000">33480</text>
</g>
<!-- 3&#45;&gt;33480 -->
<g id="edge12" class="edge">
<title>3&#45;&gt;33480</title>
<path fill="none" stroke="#000000" d="M661.7438,-676.4494C601.5519,-747.9335 354.4813,-1041.3554 281.4995,-1128.0289"/>
<polygon fill="#000000" stroke="#000000" points="278.756,-1125.8531 274.9923,-1135.7569 284.1106,-1130.3618 278.756,-1125.8531"/>
</g>
<!-- 37642 -->
<g id="node14" class="node">
<title>37642</title>
<ellipse fill="none" stroke="#000000" cx="166.4787" cy="-1053.5451" rx="32.4942" ry="18"/>
<text text-anchor="middle" x="166.4787" y="-1049.8451" font-family="Times,serif" font-size="14.00" fill="#000000">37642</text>
</g>
<!-- 3&#45;&gt;37642 -->
<g id="edge13" class="edge">
<title>3&#45;&gt;37642</title>
<path fill="none" stroke="#000000" d="M657.2454,-674.4029C581.3798,-733.013 284.7764,-962.1541 193.4155,-1032.7351"/>
<polygon fill="#000000" stroke="#000000" points="191.2458,-1029.9884 185.472,-1038.8718 195.5254,-1035.5279 191.2458,-1029.9884"/>
</g>
<!-- 43888 -->
<g id="node15" class="node">
<title>43888</title>
<ellipse fill="none" stroke="#000000" cx="94.8699" cy="-937.0606" rx="32.4942" ry="18"/>
<text text-anchor="middle" x="94.8699" y="-933.3606" font-family="Times,serif" font-size="14.00" fill="#000000">43888</text>
</g>
<!-- 3&#45;&gt;43888 -->
<g id="edge14" class="edge">
<title>3&#45;&gt;43888</title>
<path fill="none" stroke="#000000" d="M653.0122,-671.1481C564.7074,-713.2186 236.0412,-869.8032 128.8864,-920.8543"/>
<polygon fill="#000000" stroke="#000000" points="127.3247,-917.7214 119.8023,-925.1822 130.3355,-924.0408 127.3247,-917.7214"/>
</g>
<!-- 56651 -->
<g id="node16" class="node">
<title>56651</title>
<ellipse fill="none" stroke="#000000" cx="49.5252" cy="-808.0633" rx="32.4942" ry="18"/>
<text text-anchor="middle" x="49.5252" y="-804.3633" font-family="Times,serif" font-size="14.00" fill="#000000">56651</text>
</g>
<!-- 3&#45;&gt;56651 -->
<g id="edge15" class="edge">
<title>3&#45;&gt;56651</title>
<path fill="none" stroke="#000000" d="M649.36,-666.7036C552.3965,-689.5544 208.1377,-770.684 89.812,-798.5691"/>
<polygon fill="#000000" stroke="#000000" points="88.6593,-795.2448 79.7288,-800.9453 90.265,-802.0581 88.6593,-795.2448"/>
</g>
<!-- 59362 -->
<g id="node17" class="node">
<title>59362</title>
<ellipse fill="none" stroke="#000000" cx="32.4971" cy="-672.3927" rx="32.4942" ry="18"/>
<text text-anchor="middle" x="32.4971" y="-668.6927" font-family="Times,serif" font-size="14.00" fill="#000000">59362</text>
</g>
<!-- 3&#45;&gt;59362 -->
<g id="edge16" class="edge">
<title>3&#45;&gt;59362</title>
<path fill="none" stroke="#000000" d="M647.8482,-661.147C547.5801,-662.9795 198.1071,-669.3661 75.4492,-671.6077"/>
<polygon fill="#000000" stroke="#000000" points="75.2485,-668.1107 65.3141,-671.793 75.3764,-675.1096 75.2485,-668.1107"/>
</g>
<!-- 131758 -->
<g id="node18" class="node">
<title>131758</title>
<ellipse fill="none" stroke="#000000" cx="45.4535" cy="-531.7302" rx="37.0935" ry="18"/>
<text text-anchor="middle" x="45.4535" y="-528.0302" font-family="Times,serif" font-size="14.00" fill="#000000">131758</text>
</g>
<!-- 3&#45;&gt;131758 -->
<g id="edge17" class="edge">
<title>3&#45;&gt;131758</title>
<path fill="none" stroke="#000000" d="M649.1928,-655.3558C552.6241,-635.5818 212.3565,-565.9064 89.8336,-540.8178"/>
<polygon fill="#000000" stroke="#000000" points="90.1857,-537.3173 79.6869,-538.7401 88.7814,-544.175 90.1857,-537.3173"/>
</g>
<!-- 133295 -->
<g id="node19" class="node">
<title>133295</title>
<ellipse fill="none" stroke="#000000" cx="90.7067" cy="-393.1529" rx="37.0935" ry="18"/>
<text text-anchor="middle" x="90.7067" y="-389.4529" font-family="Times,serif" font-size="14.00" fill="#000000">133295</text>
</g>
<!-- 3&#45;&gt;133295 -->
<g id="edge18" class="edge">
<title>3&#45;&gt;133295</title>
<path fill="none" stroke="#000000" d="M652.4986,-650.3277C563.628,-609.6449 237.1009,-460.1686 127.1322,-409.8276"/>
<polygon fill="#000000" stroke="#000000" points="128.329,-406.5262 117.7796,-405.5462 125.4153,-412.891 128.329,-406.5262"/>
</g>
<!-- 133296 -->
<g id="node20" class="node">
<title>133296</title>
<ellipse fill="none" stroke="#000000" cx="166.0274" cy="-268.3397" rx="37.0935" ry="18"/>
<text text-anchor="middle" x="166.0274" y="-264.6397" font-family="Times,serif" font-size="14.00" fill="#000000">133296</text>
</g>
<!-- 3&#45;&gt;133296 -->
<g id="edge19" class="edge">
<title>3&#45;&gt;133296</title>
<path fill="none" stroke="#000000" d="M657.2296,-646.9175C581.5526,-588.592 286.4289,-361.1352 193.9197,-289.8368"/>
<polygon fill="#000000" stroke="#000000" points="195.9181,-286.9581 185.861,-283.6258 191.645,-292.5025 195.9181,-286.9581"/>
</g>
<!-- 133957 -->
<g id="node21" class="node">
<title>133957</title>
<ellipse fill="none" stroke="#000000" cx="267.5399" cy="-163.713" rx="37.0935" ry="18"/>
<text text-anchor="middle" x="267.5399" y="-160.013" font-family="Times,serif" font-size="14.00" fill="#000000">133957</text>
</g>
<!-- 3&#45;&gt;133957 -->
<g id="edge20" class="edge">
<title>3&#45;&gt;133957</title>
<path fill="none" stroke="#000000" d="M661.9504,-644.6788C602.7595,-572.4982 360.0024,-276.4669 287.8535,-188.4845"/>
<polygon fill="#000000" stroke="#000000" points="290.4632,-186.1472 281.4158,-180.634 285.0504,-190.5859 290.4632,-186.1472"/>
</g>
<!-- 135437 -->
<g id="node22" class="node">
<title>135437</title>
<ellipse fill="none" stroke="#000000" cx="390.0208" cy="-84.6564" rx="37.0935" ry="18"/>
<text text-anchor="middle" x="390.0208" y="-80.9564" font-family="Times,serif" font-size="14.00" fill="#000000">135437</text>
</g>
<!-- 3&#45;&gt;135437 -->
<g id="edge21" class="edge">
<title>3&#45;&gt;135437</title>
<path fill="none" stroke="#000000" d="M666.5171,-643.4116C625.999,-561.531 452.8908,-211.7067 403.3281,-111.5483"/>
<polygon fill="#000000" stroke="#000000" points="406.3694,-109.8026 398.7973,-102.3923 400.0955,-112.9073 406.3694,-109.8026"/>
</g>
<!-- 137385 -->
<g id="node23" class="node">
<title>137385</title>
<ellipse fill="none" stroke="#000000" cx="527.168" cy="-35.2378" rx="37.0935" ry="18"/>
<text text-anchor="middle" x="527.168" y="-31.5378" font-family="Times,serif" font-size="14.00" fill="#000000">137385</text>
</g>
<!-- 3&#45;&gt;137385 -->
<g id="edge22" class="edge">
<title>3&#45;&gt;137385</title>
<path fill="none" stroke="#000000" d="M670.7811,-642.6071C649.9743,-554.6107 559.1199,-170.3689 533.7619,-63.1248"/>
<polygon fill="#000000" stroke="#000000" points="537.1587,-62.2801 531.4515,-53.3539 530.3466,-63.8909 537.1587,-62.2801"/>
</g>
<!-- 204008 -->
<g id="node24" class="node">
<title>204008</title>
<ellipse fill="none" stroke="#000000" cx="671.9243" cy="-18" rx="37.0935" ry="18"/>
<text text-anchor="middle" x="671.9243" y="-14.3" font-family="Times,serif" font-size="14.00" fill="#000000">204008</text>
</g>
<!-- 3&#45;&gt;204008 -->
<g id="edge23" class="edge">
<title>3&#45;&gt;204008</title>
<path fill="none" stroke="#000000" d="M674.959,-642.4519C674.5223,-552.5978 672.5959,-156.1943 672.0619,-46.3217"/>
<polygon fill="#000000" stroke="#000000" points="675.5606,-46.0222 672.0119,-36.0394 668.5607,-46.0563 675.5606,-46.0222"/>
</g>
<!-- 263531 -->
<g id="node25" class="node">
<title>263531</title>
<ellipse fill="none" stroke="#000000" cx="816.8413" cy="-33.83" rx="37.0935" ry="18"/>
<text text-anchor="middle" x="816.8413" y="-30.13" font-family="Times,serif" font-size="14.00" fill="#000000">263531</text>
</g>
<!-- 3&#45;&gt;263531 -->
<g id="edge24" class="edge">
<title>3&#45;&gt;263531</title>
<path fill="none" stroke="#000000" d="M679.1381,-642.5665C699.0887,-554.372 786.2043,-169.2653 810.5187,-61.7799"/>
<polygon fill="#000000" stroke="#000000" points="813.9413,-62.5127 812.734,-51.9869 807.1138,-60.9682 813.9413,-62.5127"/>
</g>
<!-- 265636 -->
<g id="node26" class="node">
<title>265636</title>
<ellipse fill="none" stroke="#000000" cx="954.4623" cy="-81.9134" rx="37.0935" ry="18"/>
<text text-anchor="middle" x="954.4623" y="-78.2134" font-family="Times,serif" font-size="14.00" fill="#000000">265636</text>
</g>
<!-- 3&#45;&gt;265636 -->
<g id="edge25" class="edge">
<title>3&#45;&gt;265636</title>
<path fill="none" stroke="#000000" d="M683.4097,-643.3295C723.174,-560.968 893.2057,-208.7907 941.5778,-108.6003"/>
<polygon fill="#000000" stroke="#000000" points="944.8001,-109.976 945.9961,-99.4489 938.4963,-106.9325 944.8001,-109.976"/>
</g>
<!-- 266177 -->
<g id="node27" class="node">
<title>266177</title>
<ellipse fill="none" stroke="#000000" cx="1077.7058" cy="-159.7758" rx="37.0935" ry="18"/>
<text text-anchor="middle" x="1077.7058" y="-156.0758" font-family="Times,serif" font-size="14.00" fill="#000000">266177</text>
</g>
<!-- 3&#45;&gt;266177 -->
<g id="edge26" class="edge">
<title>3&#45;&gt;266177</title>
<path fill="none" stroke="#000000" d="M687.9885,-644.5523C746.5403,-571.7187 986.8785,-272.7575 1057.8717,-184.4478"/>
<polygon fill="#000000" stroke="#000000" points="1060.6639,-186.5607 1064.2016,-176.5739 1055.2082,-182.1748 1060.6639,-186.5607"/>
</g>
<!-- 266491 -->
<g id="node28" class="node">
<title>266491</title>
<ellipse fill="none" stroke="#000000" cx="1180.2304" cy="-263.4109" rx="37.0935" ry="18"/>
<text text-anchor="middle" x="1180.2304" y="-259.7109" font-family="Times,serif" font-size="14.00" fill="#000000">266491</text>
</g>
<!-- 3&#45;&gt;266491 -->
<g id="edge27" class="edge">
<title>3&#45;&gt;266491</title>
<path fill="none" stroke="#000000" d="M692.7309,-646.7449C767.8374,-587.6867 1060.7364,-357.3723 1152.5483,-285.1781"/>
<polygon fill="#000000" stroke="#000000" points="1154.8489,-287.8216 1160.5463,-278.8891 1150.522,-282.319 1154.8489,-287.8216"/>
</g>
<!-- 267360 -->
<g id="node29" class="node">
<title>267360</title>
<ellipse fill="none" stroke="#000000" cx="1256.7606" cy="-387.4861" rx="37.0935" ry="18"/>
<text text-anchor="middle" x="1256.7606" y="-383.7861" font-family="Times,serif" font-size="14.00" fill="#000000">267360</text>
</g>
<!-- 3&#45;&gt;267360 -->
<g id="edge28" class="edge">
<title>3&#45;&gt;267360</title>
<path fill="none" stroke="#000000" d="M697.1409,-650.2752C785.1758,-608.9353 1111.4744,-455.7104 1220.7991,-404.3731"/>
<polygon fill="#000000" stroke="#000000" points="1222.5283,-407.4279 1230.0923,-400.0092 1219.5529,-401.0917 1222.5283,-407.4279"/>
</g>
<!-- 394432 -->
<g id="node30" class="node">
<title>394432</title>
<ellipse fill="none" stroke="#000000" cx="1303.3585" cy="-525.6171" rx="37.0935" ry="18"/>
<text text-anchor="middle" x="1303.3585" y="-521.9171" font-family="Times,serif" font-size="14.00" fill="#000000">394432</text>
</g>
<!-- 3&#45;&gt;394432 -->
<g id="edge29" class="edge">
<title>3&#45;&gt;394432</title>
<path fill="none" stroke="#000000" d="M700.8493,-655.1048C797.2212,-634.3931 1136.7956,-561.4138 1259.0689,-535.1356"/>
<polygon fill="#000000" stroke="#000000" points="1260.1536,-538.4825 1269.1949,-532.9594 1258.6827,-531.6387 1260.1536,-538.4825"/>
</g>
</g>
</svg>
