<?xml version="1.0" encoding="UTF-8" standalone="no"?>
<!DOCTYPE svg PUBLIC "-//W3C//DTD SVG 1.1//EN"
 "http://www.w3.org/Graphics/SVG/1.1/DTD/svg11.dtd">
<!-- Generated by graphviz version 2.40.1 (20161225.0304)
 -->
<!-- Title: %3 Pages: 1 -->
<svg width="587pt" height="555pt"
 viewBox="0.00 0.00 587.00 555.00" xmlns="http://www.w3.org/2000/svg" xmlns:xlink="http://www.w3.org/1999/xlink">
<g id="graph0" class="graph" transform="scale(1 1) rotate(0) translate(4 551)">
<title>%3</title>
<polygon fill="#ffffff" stroke="transparent" points="-4,4 -4,-551 583,-551 583,4 -4,4"/>
<!-- 3 -->
<g id="node1" class="node">
<title>3</title>
<ellipse fill="none" stroke="#000000" cx="277.8022" cy="-264.8028" rx="27" ry="18"/>
<text text-anchor="middle" x="277.8022" y="-261.1028" font-family="Times,serif" font-size="14.00" fill="#000000">3</text>
</g>
<!-- 174 -->
<g id="node2" class="node">
<title>174</title>
<ellipse fill="none" stroke="#000000" cx="445.4679" cy="-93.7538" rx="27" ry="18"/>
<text text-anchor="middle" x="445.4679" y="-90.0538" font-family="Times,serif" font-size="14.00" fill="#000000">174</text>
</g>
<!-- 3&#45;&gt;174 -->
<g id="edge1" class="edge">
<title>3&#45;&gt;174</title>
<path fill="none" stroke="#000000" d="M292.6814,-249.6233C322.1872,-219.5222 388.2572,-152.119 423.0523,-116.6217"/>
<polygon fill="#000000" stroke="#000000" points="425.8804,-118.7365 430.381,-109.1451 420.8814,-113.8364 425.8804,-118.7365"/>
</g>
<!-- 293 -->
<g id="node3" class="node">
<title>293</title>
<ellipse fill="none" stroke="#000000" cx="125.9116" cy="-326.7358" rx="27" ry="18"/>
<text text-anchor="middle" x="125.9116" y="-323.0358" font-family="Times,serif" font-size="14.00" fill="#000000">293</text>
</g>
<!-- 3&#45;&gt;293 -->
<g id="edge2" class="edge">
<title>3&#45;&gt;293</title>
<path fill="none" stroke="#000000" d="M254.7333,-274.2091C229.0842,-284.6674 187.4608,-301.6393 158.4944,-313.4502"/>
<polygon fill="#000000" stroke="#000000" points="157.136,-310.2243 149.1976,-317.241 159.779,-316.7062 157.136,-310.2243"/>
</g>
<!-- 3356 -->
<g id="node4" class="node">
<title>3356</title>
<ellipse fill="none" stroke="#000000" cx="221.8856" cy="-440.0358" rx="28.6953" ry="18"/>
<text text-anchor="middle" x="221.8856" y="-436.3358" font-family="Times,serif" font-size="14.00" fill="#000000">3356</text>
</g>
<!-- 3&#45;&gt;3356 -->
<g id="edge3" class="edge">
<title>3&#45;&gt;3356</title>
<path fill="none" stroke="#000000" d="M272.1329,-282.5694C262.3785,-313.1379 242.3524,-375.8962 230.7437,-412.2761"/>
<polygon fill="#000000" stroke="#000000" points="227.2756,-411.6314 227.5699,-422.2221 233.9443,-413.7594 227.2756,-411.6314"/>
</g>
<!-- 6939 -->
<g id="node5" class="node">
<title>6939</title>
<ellipse fill="none" stroke="#000000" cx="408.24" cy="-475.7177" rx="28.6953" ry="18"/>
<text text-anchor="middle" x="408.24" y="-472.0177" font-family="Times,serif" font-size="14.00" fill="#000000">6939</text>
</g>
<!-- 3&#45;&gt;6939 -->
<g id="edge4" class="edge">
<title>3&#45;&gt;6939</title>
<path fill="none" stroke="#000000" d="M288.256,-281.7063C311.0575,-318.5758 365.3771,-406.4093 392.4045,-450.112"/>
<polygon fill="#000000" stroke="#000000" points="389.4999,-452.0696 397.7365,-458.7336 395.4534,-448.3877 389.4999,-452.0696"/>
</g>
<!-- 7015 -->
<g id="node6" class="node">
<title>7015</title>
<ellipse fill="none" stroke="#000000" cx="345.5452" cy="-95.1344" rx="28.6953" ry="18"/>
<text text-anchor="middle" x="345.5452" y="-91.4344" font-family="Times,serif" font-size="14.00" fill="#000000">7015</text>
</g>
<!-- 3&#45;&gt;7015 -->
<g id="edge5" class="edge">
<title>3&#45;&gt;7015</title>
<path fill="none" stroke="#000000" d="M284.7967,-247.2844C296.6116,-217.6929 320.6032,-157.604 334.642,-122.4424"/>
<polygon fill="#000000" stroke="#000000" points="338.0296,-123.3967 338.4872,-112.8118 331.5286,-120.8011 338.0296,-123.3967"/>
</g>
<!-- 7029 -->
<g id="node7" class="node">
<title>7029</title>
<ellipse fill="none" stroke="#000000" cx="383.1137" cy="-37.5798" rx="28.6953" ry="18"/>
<text text-anchor="middle" x="383.1137" y="-33.8798" font-family="Times,serif" font-size="14.00" fill="#000000">7029</text>
</g>
<!-- 3&#45;&gt;7029 -->
<g id="edge6" class="edge">
<title>3&#45;&gt;7029</title>
<path fill="none" stroke="#000000" d="M285.8909,-247.3503C304.1919,-207.8635 348.876,-111.4519 370.7041,-64.355"/>
<polygon fill="#000000" stroke="#000000" points="373.9678,-65.6365 374.9974,-55.0918 367.6168,-62.6929 373.9678,-65.6365"/>
</g>
<!-- 10578 -->
<g id="node8" class="node">
<title>10578</title>
<ellipse fill="none" stroke="#000000" cx="431.1408" cy="-158.7659" rx="32.4942" ry="18"/>
<text text-anchor="middle" x="431.1408" y="-155.0659" font-family="Times,serif" font-size="14.00" fill="#000000">10578</text>
</g>
<!-- 3&#45;&gt;10578 -->
<g id="edge7" class="edge">
<title>3&#45;&gt;10578</title>
<path fill="none" stroke="#000000" d="M296.6045,-251.8006C323.0666,-233.5015 371.5166,-199.9973 402.4819,-178.5842"/>
<polygon fill="#000000" stroke="#000000" points="404.485,-181.4544 410.7192,-172.8879 400.5035,-175.6969 404.485,-181.4544"/>
</g>
<!-- 18365 -->
<g id="node9" class="node">
<title>18365</title>
<ellipse fill="none" stroke="#000000" cx="496.9807" cy="-361.5782" rx="32.4942" ry="18"/>
<text text-anchor="middle" x="496.9807" y="-357.8782" font-family="Times,serif" font-size="14.00" fill="#000000">18365</text>
</g>
<!-- 3&#45;&gt;18365 -->
<g id="edge8" class="edge">
<title>3&#45;&gt;18365</title>
<path fill="none" stroke="#000000" d="M300.4326,-274.795C338.8265,-291.7473 416.9631,-326.2475 462.2992,-346.265"/>
<polygon fill="#000000" stroke="#000000" points="460.8878,-349.4678 471.4495,-350.3052 463.7153,-343.0642 460.8878,-349.4678"/>
</g>
<!-- 23248 -->
<g id="node10" class="node">
<title>23248</title>
<ellipse fill="none" stroke="#000000" cx="87.207" cy="-145.2709" rx="32.4942" ry="18"/>
<text text-anchor="middle" x="87.207" y="-141.5709" font-family="Times,serif" font-size="14.00" fill="#000000">23248</text>
</g>
<!-- 3&#45;&gt;23248 -->
<g id="edge9" class="edge">
<title>3&#45;&gt;23248</title>
<path fill="none" stroke="#000000" d="M258.123,-252.461C224.8394,-231.5872 157.2094,-189.173 117.7323,-164.4148"/>
<polygon fill="#000000" stroke="#000000" points="119.1442,-161.169 108.8128,-158.821 115.425,-167.0992 119.1442,-161.169"/>
</g>
<!-- 27787 -->
<g id="node11" class="node">
<title>27787</title>
<ellipse fill="none" stroke="#000000" cx="291.2727" cy="-18.2457" rx="32.4942" ry="18"/>
<text text-anchor="middle" x="291.2727" y="-14.5457" font-family="Times,serif" font-size="14.00" fill="#000000">27787</text>
</g>
<!-- 3&#45;&gt;27787 -->
<g id="edge10" class="edge">
<title>3&#45;&gt;27787</title>
<path fill="none" stroke="#000000" d="M278.7927,-246.6729C281.1184,-204.1048 286.9419,-97.5141 289.7334,-46.4199"/>
<polygon fill="#000000" stroke="#000000" points="293.2299,-46.5783 290.2807,-36.4022 286.2403,-46.1964 293.2299,-46.5783"/>
</g>
<!-- 32787 -->
<g id="node12" class="node">
<title>32787</title>
<ellipse fill="none" stroke="#000000" cx="165.2319" cy="-134.6589" rx="32.4942" ry="18"/>
<text text-anchor="middle" x="165.2319" y="-130.9589" font-family="Times,serif" font-size="14.00" fill="#000000">32787</text>
</g>
<!-- 3&#45;&gt;32787 -->
<g id="edge11" class="edge">
<title>3&#45;&gt;32787</title>
<path fill="none" stroke="#000000" d="M264.2236,-249.1044C244.8274,-226.6803 209.0172,-185.2796 186.1999,-158.9004"/>
<polygon fill="#000000" stroke="#000000" points="188.7576,-156.5072 179.5684,-151.2336 183.4633,-161.0866 188.7576,-156.5072"/>
</g>
<!-- 33480 -->
<g id="node13" class="node">
<title>33480</title>
<ellipse fill="none" stroke="#000000" cx="397.5341" cy="-398.9693" rx="32.4942" ry="18"/>
<text text-anchor="middle" x="397.5341" y="-395.2693" font-family="Times,serif" font-size="14.00" fill="#000000">33480</text>
</g>
<!-- 3&#45;&gt;33480 -->
<g id="edge12" class="edge">
<title>3&#45;&gt;33480</title>
<path fill="none" stroke="#000000" d="M291.7713,-280.456C312.545,-303.7341 351.7456,-347.6607 376.1464,-375.0032"/>
<polygon fill="#000000" stroke="#000000" points="373.6381,-377.4491 382.9078,-382.5797 378.8608,-372.7882 373.6381,-377.4491"/>
</g>
<!-- 37642 -->
<g id="node14" class="node">
<title>37642</title>
<ellipse fill="none" stroke="#000000" cx="520.5939" cy="-227.0363" rx="32.4942" ry="18"/>
<text text-anchor="middle" x="520.5939" y="-223.3363" font-family="Times,serif" font-size="14.00" fill="#000000">37642</text>
</g>
<!-- 3&#45;&gt;37642 -->
<g id="edge13" class="edge">
<title>3&#45;&gt;37642</title>
<path fill="none" stroke="#000000" d="M304.2473,-260.6892C346.3574,-254.139 428.9929,-241.2849 479.057,-233.4974"/>
<polygon fill="#000000" stroke="#000000" points="479.8762,-236.9122 489.2194,-231.9166 478.8002,-229.9953 479.8762,-236.9122"/>
</g>
<!-- 43888 -->
<g id="node15" class="node">
<title>43888</title>
<ellipse fill="none" stroke="#000000" cx="229.8122" cy="-516.1857" rx="32.4942" ry="18"/>
<text text-anchor="middle" x="229.8122" y="-512.4857" font-family="Times,serif" font-size="14.00" fill="#000000">43888</text>
</g>
<!-- 3&#45;&gt;43888 -->
<g id="edge14" class="edge">
<title>3&#45;&gt;43888</title>
<path fill="none" stroke="#000000" d="M274.3508,-282.8816C266.067,-326.2742 245.0138,-436.5562 235.1121,-488.4234"/>
<polygon fill="#000000" stroke="#000000" points="231.6696,-487.7917 233.2323,-498.2706 238.5454,-489.1044 231.6696,-487.7917"/>
</g>
<!-- 56651 -->
<g id="node16" class="node">
<title>56651</title>
<ellipse fill="none" stroke="#000000" cx="441.8648" cy="-270.6562" rx="32.4942" ry="18"/>
<text text-anchor="middle" x="441.8648" y="-266.9562" font-family="Times,serif" font-size="14.00" fill="#000000">56651</text>
</g>
<!-- 3&#45;&gt;56651 -->
<g id="edge15" class="edge">
<title>3&#45;&gt;56651</title>
<path fill="none" stroke="#000000" d="M304.8938,-265.7694C330.539,-266.6843 369.4427,-268.0723 399.2438,-269.1356"/>
<polygon fill="#000000" stroke="#000000" points="399.2501,-272.638 409.3686,-269.4968 399.4997,-265.6424 399.2501,-272.638"/>
</g>
<!-- 59362 -->
<g id="node17" class="node">
<title>59362</title>
<ellipse fill="none" stroke="#000000" cx="126.6164" cy="-421.0066" rx="32.4942" ry="18"/>
<text text-anchor="middle" x="126.6164" y="-417.3066" font-family="Times,serif" font-size="14.00" fill="#000000">59362</text>
</g>
<!-- 3&#45;&gt;59362 -->
<g id="edge16" class="edge">
<title>3&#45;&gt;59362</title>
<path fill="none" stroke="#000000" d="M263.0306,-280.0647C236.4789,-307.4976 180.5384,-365.2949 149.1673,-397.7071"/>
<polygon fill="#000000" stroke="#000000" points="146.5637,-395.3646 142.1239,-404.9843 151.5936,-400.2329 146.5637,-395.3646"/>
</g>
<!-- 131758 -->
<g id="node18" class="node">
<title>131758</title>
<ellipse fill="none" stroke="#000000" cx="143.2971" cy="-492.2327" rx="37.0935" ry="18"/>
<text text-anchor="middle" x="143.2971" y="-488.5327" font-family="Times,serif" font-size="14.00" fill="#000000">131758</text>
</g>
<!-- 3&#45;&gt;131758 -->
<g id="edge17" class="edge">
<title>3&#45;&gt;131758</title>
<path fill="none" stroke="#000000" d="M267.6924,-281.897C244.3808,-321.3138 186.7278,-418.7972 158.8654,-465.9089"/>
<polygon fill="#000000" stroke="#000000" points="155.7871,-464.2384 153.7091,-474.6275 161.8122,-467.8018 155.7871,-464.2384"/>
</g>
<!-- 133295 -->
<g id="node19" class="node">
<title>133295</title>
<ellipse fill="none" stroke="#000000" cx="246.6314" cy="-83.6366" rx="37.0935" ry="18"/>
<text text-anchor="middle" x="246.6314" y="-79.9366" font-family="Times,serif" font-size="14.00" fill="#000000">133295</text>
</g>
<!-- 3&#45;&gt;133295 -->
<g id="edge18" class="edge">
<title>3&#45;&gt;133295</title>
<path fill="none" stroke="#000000" d="M274.6994,-246.7696C269.2614,-215.1636 257.9723,-149.5503 251.4903,-111.877"/>
<polygon fill="#000000" stroke="#000000" points="254.8666,-110.8586 249.7216,-101.5969 247.968,-112.0456 254.8666,-110.8586"/>
</g>
<!-- 133296 -->
<g id="node20" class="node">
<title>133296</title>
<ellipse fill="none" stroke="#000000" cx="37.5027" cy="-309.4076" rx="37.0935" ry="18"/>
<text text-anchor="middle" x="37.5027" y="-305.7076" font-family="Times,serif" font-size="14.00" fill="#000000">133296</text>
</g>
<!-- 3&#45;&gt;133296 -->
<g id="edge19" class="edge">
<title>3&#45;&gt;133296</title>
<path fill="none" stroke="#000000" d="M251.6285,-269.6612C210.8877,-277.2236 131.8207,-291.9002 82.0033,-301.1473"/>
<polygon fill="#000000" stroke="#000000" points="81.3389,-297.7108 72.1457,-302.9771 82.6165,-304.5932 81.3389,-297.7108"/>
</g>
<!-- 133957 -->
<g id="node21" class="node">
<title>133957</title>
<ellipse fill="none" stroke="#000000" cx="198.1977" cy="-29.3489" rx="37.0935" ry="18"/>
<text text-anchor="middle" x="198.1977" y="-25.6489" font-family="Times,serif" font-size="14.00" fill="#000000">133957</text>
</g>
<!-- 3&#45;&gt;133957 -->
<g id="edge20" class="edge">
<title>3&#45;&gt;133957</title>
<path fill="none" stroke="#000000" d="M271.8189,-247.1055C258.0461,-206.3682 224.0187,-105.7222 207.4967,-56.8535"/>
<polygon fill="#000000" stroke="#000000" points="210.7689,-55.6038 204.2504,-47.2515 204.1376,-57.8458 210.7689,-55.6038"/>
</g>
<!-- 135437 -->
<g id="node22" class="node">
<title>135437</title>
<ellipse fill="none" stroke="#000000" cx="110.9122" cy="-75.3359" rx="37.0935" ry="18"/>
<text text-anchor="middle" x="110.9122" y="-71.6359" font-family="Times,serif" font-size="14.00" fill="#000000">135437</text>
</g>
<!-- 3&#45;&gt;135437 -->
<g id="edge21" class="edge">
<title>3&#45;&gt;135437</title>
<path fill="none" stroke="#000000" d="M263.8603,-248.9748C234.7513,-215.928 167.3386,-139.3957 132.5489,-99.8997"/>
<polygon fill="#000000" stroke="#000000" points="134.8822,-97.2534 125.6459,-92.0628 129.6293,-101.8803 134.8822,-97.2534"/>
</g>
<!-- 137385 -->
<g id="node23" class="node">
<title>137385</title>
<ellipse fill="none" stroke="#000000" cx="490.2761" cy="-434.4804" rx="37.0935" ry="18"/>
<text text-anchor="middle" x="490.2761" y="-430.7804" font-family="Times,serif" font-size="14.00" fill="#000000">137385</text>
</g>
<!-- 3&#45;&gt;137385 -->
<g id="edge22" class="edge">
<title>3&#45;&gt;137385</title>
<path fill="none" stroke="#000000" d="M295.1898,-278.6882C332.0615,-308.1333 418.3483,-377.0403 462.7726,-412.5167"/>
<polygon fill="#000000" stroke="#000000" points="460.8177,-415.4345 470.8159,-418.9398 465.1858,-409.9647 460.8177,-415.4345"/>
</g>
<!-- 204008 -->
<g id="node24" class="node">
<title>204008</title>
<ellipse fill="none" stroke="#000000" cx="37.3408" cy="-375.593" rx="37.0935" ry="18"/>
<text text-anchor="middle" x="37.3408" y="-371.893" font-family="Times,serif" font-size="14.00" fill="#000000">204008</text>
</g>
<!-- 3&#45;&gt;204008 -->
<g id="edge23" class="edge">
<title>3&#45;&gt;204008</title>
<path fill="none" stroke="#000000" d="M255.1801,-275.2257C213.4431,-294.4556 124.004,-335.6638 73.6743,-358.8527"/>
<polygon fill="#000000" stroke="#000000" points="72.0714,-355.7375 64.4537,-363.101 75.0007,-362.0951 72.0714,-355.7375"/>
</g>
<!-- 263531 -->
<g id="node25" class="node">
<title>263531</title>
<ellipse fill="none" stroke="#000000" cx="328.869" cy="-529.0754" rx="37.0935" ry="18"/>
<text text-anchor="middle" x="328.869" y="-525.3754" font-family="Times,serif" font-size="14.00" fill="#000000">263531</text>
</g>
<!-- 3&#45;&gt;263531 -->
<g id="edge24" class="edge">
<title>3&#45;&gt;263531</title>
<path fill="none" stroke="#000000" d="M281.3122,-282.9673C290.0794,-328.3377 312.9831,-446.8653 323.4765,-501.1694"/>
<polygon fill="#000000" stroke="#000000" points="320.0681,-501.9789 325.4019,-511.1332 326.941,-500.6507 320.0681,-501.9789"/>
</g>
<!-- 265636 -->
<g id="node26" class="node">
<title>265636</title>
<ellipse fill="none" stroke="#000000" cx="51.7837" cy="-190.121" rx="37.0935" ry="18"/>
<text text-anchor="middle" x="51.7837" y="-186.421" font-family="Times,serif" font-size="14.00" fill="#000000">265636</text>
</g>
<!-- 3&#45;&gt;265636 -->
<g id="edge25" class="edge">
<title>3&#45;&gt;265636</title>
<path fill="none" stroke="#000000" d="M253.184,-256.6684C214.4103,-243.8566 138.7288,-218.8497 91.9856,-203.4047"/>
<polygon fill="#000000" stroke="#000000" points="93.0673,-200.076 82.4741,-200.2618 90.8711,-206.7226 93.0673,-200.076"/>
</g>
<!-- 266177 -->
<g id="node27" class="node">
<title>266177</title>
<ellipse fill="none" stroke="#000000" cx="320.8188" cy="-460.3978" rx="37.0935" ry="18"/>
<text text-anchor="middle" x="320.8188" y="-456.6978" font-family="Times,serif" font-size="14.00" fill="#000000">266177</text>
</g>
<!-- 3&#45;&gt;266177 -->
<g id="edge26" class="edge">
<title>3&#45;&gt;266177</title>
<path fill="none" stroke="#000000" d="M281.772,-282.8533C289.3106,-317.1311 305.7436,-391.8515 314.7003,-432.5774"/>
<polygon fill="#000000" stroke="#000000" points="311.2922,-433.3761 316.8586,-442.3909 318.1289,-431.8725 311.2922,-433.3761"/>
</g>
<!-- 266491 -->
<g id="node28" class="node">
<title>266491</title>
<ellipse fill="none" stroke="#000000" cx="541.7931" cy="-302.2533" rx="37.0935" ry="18"/>
<text text-anchor="middle" x="541.7931" y="-298.5533" font-family="Times,serif" font-size="14.00" fill="#000000">266491</text>
</g>
<!-- 3&#45;&gt;266491 -->
<g id="edge27" class="edge">
<title>3&#45;&gt;266491</title>
<path fill="none" stroke="#000000" d="M304.5678,-268.5998C349.516,-274.9763 440.6619,-287.9066 495.965,-295.752"/>
<polygon fill="#000000" stroke="#000000" points="495.7966,-299.2631 506.1891,-297.2024 496.7798,-292.3325 495.7966,-299.2631"/>
</g>
<!-- 267360 -->
<g id="node29" class="node">
<title>267360</title>
<ellipse fill="none" stroke="#000000" cx="50.9369" cy="-248.0872" rx="37.0935" ry="18"/>
<text text-anchor="middle" x="50.9369" y="-244.3872" font-family="Times,serif" font-size="14.00" fill="#000000">267360</text>
</g>
<!-- 3&#45;&gt;267360 -->
<g id="edge28" class="edge">
<title>3&#45;&gt;267360</title>
<path fill="none" stroke="#000000" d="M250.8869,-262.8197C213.2408,-260.0459 144.2933,-254.9658 98.0357,-251.5575"/>
<polygon fill="#000000" stroke="#000000" points="98.1831,-248.0589 87.9529,-250.8145 97.6687,-255.04 98.1831,-248.0589"/>
</g>
<!-- 394432 -->
<g id="node30" class="node">
<title>394432</title>
<ellipse fill="none" stroke="#000000" cx="520.0261" cy="-150.9412" rx="37.0935" ry="18"/>
<text text-anchor="middle" x="520.0261" y="-147.2412" font-family="Times,serif" font-size="14.00" fill="#000000">394432</text>
</g>
<!-- 3&#45;&gt;394432 -->
<g id="edge29" class="edge">
<title>3&#45;&gt;394432</title>
<path fill="none" stroke="#000000" d="M300.1558,-254.2951C342.1862,-234.5379 433.3166,-191.7005 484.0675,-167.8441"/>
<polygon fill="#000000" stroke="#000000" points="485.7919,-170.901 493.3529,-163.4794 482.814,-164.566 485.7919,-170.901"/>
</g>
</g>
</svg>
