<?xml version="1.0" encoding="UTF-8" standalone="no"?>
<!DOCTYPE svg PUBLIC "-//W3C//DTD SVG 1.1//EN"
 "http://www.w3.org/Graphics/SVG/1.1/DTD/svg11.dtd">
<!-- Generated by graphviz version 2.40.1 (20161225.0304)
 -->
<!-- Title: %3 Pages: 1 -->
<svg width="221pt" height="188pt"
 viewBox="0.00 0.00 221.12 187.79" xmlns="http://www.w3.org/2000/svg" xmlns:xlink="http://www.w3.org/1999/xlink">
<g id="graph0" class="graph" transform="scale(1 1) rotate(0) translate(4 183.7888)">
<title>%3</title>
<polygon fill="#ffffff" stroke="transparent" points="-4,4 -4,-183.7888 217.1218,-183.7888 217.1218,4 -4,4"/>
<!-- 3 -->
<g id="node1" class="node">
<title>3</title>
<ellipse fill="none" stroke="#000000" cx="104.4971" cy="-89.8944" rx="27" ry="18"/>
<text text-anchor="middle" x="104.4971" y="-86.1944" font-family="Times,serif" font-size="14.00" fill="#000000">3</text>
</g>
<!-- 174 -->
<g id="node2" class="node">
<title>174</title>
<ellipse fill="none" stroke="#000000" cx="176.075" cy="-97.679" rx="27" ry="18"/>
<text text-anchor="middle" x="176.075" y="-93.979" font-family="Times,serif" font-size="14.00" fill="#000000">174</text>
</g>
<!-- 3&#45;&gt;174 -->
<g id="edge1" class="edge">
<title>3&#45;&gt;174</title>
<path fill="none" stroke="#000000" d="M131.1501,-92.7931C133.7237,-93.073 136.3649,-93.3602 139.0154,-93.6485"/>
<polygon fill="#000000" stroke="#000000" points="138.8413,-97.1501 149.1611,-94.7519 139.5982,-90.1911 138.8413,-97.1501"/>
</g>
<!-- 293 -->
<g id="node3" class="node">
<title>293</title>
<ellipse fill="none" stroke="#000000" cx="172.7281" cy="-112.8841" rx="27" ry="18"/>
<text text-anchor="middle" x="172.7281" y="-109.1841" font-family="Times,serif" font-size="14.00" fill="#000000">293</text>
</g>
<!-- 3&#45;&gt;293 -->
<g id="edge2" class="edge">
<title>3&#45;&gt;293</title>
<path fill="none" stroke="#000000" d="M128.7449,-98.0644C132.063,-99.1824 135.5173,-100.3463 138.9668,-101.5086"/>
<polygon fill="#000000" stroke="#000000" points="137.9643,-104.8641 148.5584,-104.7404 140.1994,-98.2305 137.9643,-104.8641"/>
</g>
<!-- 3356 -->
<g id="node4" class="node">
<title>3356</title>
<ellipse fill="none" stroke="#000000" cx="166.1908" cy="-127.0143" rx="28.6953" ry="18"/>
<text text-anchor="middle" x="166.1908" y="-123.3143" font-family="Times,serif" font-size="14.00" fill="#000000">3356</text>
</g>
<!-- 3&#45;&gt;3356 -->
<g id="edge3" class="edge">
<title>3&#45;&gt;3356</title>
<path fill="none" stroke="#000000" d="M124.6979,-102.0488C128.5174,-104.3469 132.5851,-106.7944 136.6234,-109.2242"/>
<polygon fill="#000000" stroke="#000000" points="134.9365,-112.2938 145.3095,-114.4504 138.5454,-106.2958 134.9365,-112.2938"/>
</g>
<!-- 6939 -->
<g id="node5" class="node">
<title>6939</title>
<ellipse fill="none" stroke="#000000" cx="156.7688" cy="-139.4088" rx="28.6953" ry="18"/>
<text text-anchor="middle" x="156.7688" y="-135.7088" font-family="Times,serif" font-size="14.00" fill="#000000">6939</text>
</g>
<!-- 3&#45;&gt;6939 -->
<g id="edge4" class="edge">
<title>3&#45;&gt;6939</title>
<path fill="none" stroke="#000000" d="M120.1803,-104.7503C124.3416,-108.6921 128.9261,-113.0347 133.4011,-117.2737"/>
<polygon fill="#000000" stroke="#000000" points="131.0678,-119.8845 140.7348,-124.2205 135.8818,-114.8025 131.0678,-119.8845"/>
</g>
<!-- 7015 -->
<g id="node6" class="node">
<title>7015</title>
<ellipse fill="none" stroke="#000000" cx="144.9026" cy="-149.488" rx="28.6953" ry="18"/>
<text text-anchor="middle" x="144.9026" y="-145.788" font-family="Times,serif" font-size="14.00" fill="#000000">7015</text>
</g>
<!-- 3&#45;&gt;7015 -->
<g id="edge5" class="edge">
<title>3&#45;&gt;7015</title>
<path fill="none" stroke="#000000" d="M115.7523,-106.4945C119.4549,-111.9554 123.6599,-118.1574 127.7011,-124.1177"/>
<polygon fill="#000000" stroke="#000000" points="124.9182,-126.2501 133.427,-132.5628 130.712,-122.3217 124.9182,-126.2501"/>
</g>
<!-- 7029 -->
<g id="node7" class="node">
<title>7029</title>
<ellipse fill="none" stroke="#000000" cx="131.1471" cy="-156.7807" rx="28.6953" ry="18"/>
<text text-anchor="middle" x="131.1471" y="-153.0807" font-family="Times,serif" font-size="14.00" fill="#000000">7029</text>
</g>
<!-- 3&#45;&gt;7029 -->
<g id="edge6" class="edge">
<title>3&#45;&gt;7029</title>
<path fill="none" stroke="#000000" d="M111.4991,-107.468C114.2013,-114.2499 117.355,-122.1654 120.3349,-129.6442"/>
<polygon fill="#000000" stroke="#000000" points="117.1465,-131.098 124.0993,-139.0923 123.6493,-128.507 117.1465,-131.098"/>
</g>
<!-- 10578 -->
<g id="node8" class="node">
<title>10578</title>
<ellipse fill="none" stroke="#000000" cx="116.1454" cy="-160.9459" rx="32.4942" ry="18"/>
<text text-anchor="middle" x="116.1454" y="-157.2459" font-family="Times,serif" font-size="14.00" fill="#000000">10578</text>
</g>
<!-- 3&#45;&gt;10578 -->
<g id="edge7" class="edge">
<title>3&#45;&gt;10578</title>
<path fill="none" stroke="#000000" d="M107.4365,-107.8237C108.6823,-115.4227 110.1636,-124.4586 111.5481,-132.9036"/>
<polygon fill="#000000" stroke="#000000" points="108.0947,-133.4732 113.1665,-142.7752 115.0025,-132.3407 108.0947,-133.4732"/>
</g>
<!-- 18365 -->
<g id="node9" class="node">
<title>18365</title>
<ellipse fill="none" stroke="#000000" cx="100.5991" cy="-161.7888" rx="32.4942" ry="18"/>
<text text-anchor="middle" x="100.5991" y="-158.0888" font-family="Times,serif" font-size="14.00" fill="#000000">18365</text>
</g>
<!-- 3&#45;&gt;18365 -->
<g id="edge8" class="edge">
<title>3&#45;&gt;18365</title>
<path fill="none" stroke="#000000" d="M103.5135,-108.0364C103.0966,-115.7255 102.6009,-124.8687 102.1376,-133.4139"/>
<polygon fill="#000000" stroke="#000000" points="98.6426,-133.2277 101.596,-143.4025 105.6323,-133.6067 98.6426,-133.2277"/>
</g>
<!-- 23248 -->
<g id="node10" class="node">
<title>23248</title>
<ellipse fill="none" stroke="#000000" cx="85.2351" cy="-159.27" rx="32.4942" ry="18"/>
<text text-anchor="middle" x="85.2351" y="-155.57" font-family="Times,serif" font-size="14.00" fill="#000000">23248</text>
</g>
<!-- 3&#45;&gt;23248 -->
<g id="edge9" class="edge">
<title>3&#45;&gt;23248</title>
<path fill="none" stroke="#000000" d="M99.5367,-107.7603C97.5302,-114.9869 95.1669,-123.4987 92.9457,-131.4988"/>
<polygon fill="#000000" stroke="#000000" points="89.5486,-130.6516 90.2457,-141.2235 96.2934,-132.5244 89.5486,-130.6516"/>
</g>
<!-- 27787 -->
<g id="node11" class="node">
<title>27787</title>
<ellipse fill="none" stroke="#000000" cx="70.7717" cy="-153.5073" rx="32.4942" ry="18"/>
<text text-anchor="middle" x="70.7717" y="-149.8073" font-family="Times,serif" font-size="14.00" fill="#000000">27787</text>
</g>
<!-- 3&#45;&gt;27787 -->
<g id="edge10" class="edge">
<title>3&#45;&gt;27787</title>
<path fill="none" stroke="#000000" d="M95.4593,-106.9415C92.1863,-113.1151 88.4079,-120.242 84.8066,-127.0347"/>
<polygon fill="#000000" stroke="#000000" points="81.6615,-125.495 80.0696,-135.9696 87.8461,-128.7739 81.6615,-125.495"/>
</g>
<!-- 32787 -->
<g id="node12" class="node">
<title>32787</title>
<ellipse fill="none" stroke="#000000" cx="57.8853" cy="-144.7701" rx="32.4942" ry="18"/>
<text text-anchor="middle" x="57.8853" y="-141.0701" font-family="Times,serif" font-size="14.00" fill="#000000">32787</text>
</g>
<!-- 3&#45;&gt;32787 -->
<g id="edge11" class="edge">
<title>3&#45;&gt;32787</title>
<path fill="none" stroke="#000000" d="M91.015,-105.7667C87.0626,-110.4199 82.6488,-115.6162 78.3644,-120.6603"/>
<polygon fill="#000000" stroke="#000000" points="75.6293,-118.4738 71.823,-128.3613 80.9645,-123.0055 75.6293,-118.4738"/>
</g>
<!-- 33480 -->
<g id="node13" class="node">
<title>33480</title>
<ellipse fill="none" stroke="#000000" cx="47.1784" cy="-133.4669" rx="32.4942" ry="18"/>
<text text-anchor="middle" x="47.1784" y="-129.7669" font-family="Times,serif" font-size="14.00" fill="#000000">33480</text>
</g>
<!-- 3&#45;&gt;33480 -->
<g id="edge12" class="edge">
<title>3&#45;&gt;33480</title>
<path fill="none" stroke="#000000" d="M86.6753,-103.4422C82.8508,-106.3495 78.7244,-109.4863 74.6309,-112.5981"/>
<polygon fill="#000000" stroke="#000000" points="72.2246,-110.0308 66.3818,-118.8689 76.4609,-115.6035 72.2246,-110.0308"/>
</g>
<!-- 37642 -->
<g id="node14" class="node">
<title>37642</title>
<ellipse fill="none" stroke="#000000" cx="39.1517" cy="-120.1264" rx="32.4942" ry="18"/>
<text text-anchor="middle" x="39.1517" y="-116.4264" font-family="Times,serif" font-size="14.00" fill="#000000">37642</text>
</g>
<!-- 3&#45;&gt;37642 -->
<g id="edge13" class="edge">
<title>3&#45;&gt;37642</title>
<path fill="none" stroke="#000000" d="M82.0089,-100.2986C79.2193,-101.5892 76.3196,-102.9307 73.4031,-104.28"/>
<polygon fill="#000000" stroke="#000000" points="71.7506,-101.1881 64.1444,-108.5635 74.6898,-107.5411 71.7506,-101.1881"/>
</g>
<!-- 43888 -->
<g id="node15" class="node">
<title>43888</title>
<ellipse fill="none" stroke="#000000" cx="34.1804" cy="-105.3723" rx="32.4942" ry="18"/>
<text text-anchor="middle" x="34.1804" y="-101.6723" font-family="Times,serif" font-size="14.00" fill="#000000">43888</text>
</g>
<!-- 3&#45;&gt;43888 -->
<g id="edge14" class="edge">
<title>3&#45;&gt;43888</title>
<path fill="none" stroke="#000000" d="M78.7131,-95.5699C77.4343,-95.8514 76.1377,-96.1368 74.8307,-96.4245"/>
<polygon fill="#000000" stroke="#000000" points="73.7453,-93.0795 64.7315,-98.6475 75.2502,-99.9159 73.7453,-93.0795"/>
</g>
<!-- 56651 -->
<g id="node16" class="node">
<title>56651</title>
<ellipse fill="none" stroke="#000000" cx="32.4971" cy="-89.8944" rx="32.4942" ry="18"/>
<text text-anchor="middle" x="32.4971" y="-86.1944" font-family="Times,serif" font-size="14.00" fill="#000000">56651</text>
</g>
<!-- 3&#45;&gt;56651 -->
<g id="edge15" class="edge">
<title>3&#45;&gt;56651</title>
<path fill="none" stroke="#000000" d="M77.277,-89.8944C76.6548,-89.8944 76.0288,-89.8944 75.3999,-89.8944"/>
<polygon fill="#000000" stroke="#000000" points="75.0839,-86.3945 65.0838,-89.8944 75.0838,-93.3945 75.0839,-86.3945"/>
</g>
<!-- 59362 -->
<g id="node17" class="node">
<title>59362</title>
<ellipse fill="none" stroke="#000000" cx="34.1804" cy="-74.4165" rx="32.4942" ry="18"/>
<text text-anchor="middle" x="34.1804" y="-70.7165" font-family="Times,serif" font-size="14.00" fill="#000000">59362</text>
</g>
<!-- 3&#45;&gt;59362 -->
<g id="edge16" class="edge">
<title>3&#45;&gt;59362</title>
<path fill="none" stroke="#000000" d="M78.7131,-84.2189C77.4343,-83.9374 76.1377,-83.652 74.8307,-83.3643"/>
<polygon fill="#000000" stroke="#000000" points="75.2502,-79.873 64.7315,-81.1413 73.7453,-86.7093 75.2502,-79.873"/>
</g>
<!-- 131758 -->
<g id="node18" class="node">
<title>131758</title>
<ellipse fill="none" stroke="#000000" cx="39.1517" cy="-59.6624" rx="37.0935" ry="18"/>
<text text-anchor="middle" x="39.1517" y="-55.9624" font-family="Times,serif" font-size="14.00" fill="#000000">131758</text>
</g>
<!-- 3&#45;&gt;131758 -->
<g id="edge17" class="edge">
<title>3&#45;&gt;131758</title>
<path fill="none" stroke="#000000" d="M82.0089,-79.4903C79.9692,-78.5466 77.8706,-77.5757 75.7497,-76.5944"/>
<polygon fill="#000000" stroke="#000000" points="76.9658,-73.3007 66.4204,-72.2782 74.0265,-79.6537 76.9658,-73.3007"/>
</g>
<!-- 133295 -->
<g id="node19" class="node">
<title>133295</title>
<ellipse fill="none" stroke="#000000" cx="47.1784" cy="-46.3219" rx="37.0935" ry="18"/>
<text text-anchor="middle" x="47.1784" y="-42.6219" font-family="Times,serif" font-size="14.00" fill="#000000">133295</text>
</g>
<!-- 3&#45;&gt;133295 -->
<g id="edge18" class="edge">
<title>3&#45;&gt;133295</title>
<path fill="none" stroke="#000000" d="M86.6753,-76.3466C83.1035,-73.6314 79.2683,-70.7159 75.4424,-67.8076"/>
<polygon fill="#000000" stroke="#000000" points="77.2671,-64.7982 67.188,-61.5327 73.0308,-70.3709 77.2671,-64.7982"/>
</g>
<!-- 133296 -->
<g id="node20" class="node">
<title>133296</title>
<ellipse fill="none" stroke="#000000" cx="57.8853" cy="-35.0187" rx="37.0935" ry="18"/>
<text text-anchor="middle" x="57.8853" y="-31.3187" font-family="Times,serif" font-size="14.00" fill="#000000">133296</text>
</g>
<!-- 3&#45;&gt;133296 -->
<g id="edge19" class="edge">
<title>3&#45;&gt;133296</title>
<path fill="none" stroke="#000000" d="M91.015,-74.0221C87.2256,-69.5608 83.0121,-64.6003 78.8951,-59.7534"/>
<polygon fill="#000000" stroke="#000000" points="81.2909,-57.1676 72.1494,-51.8118 75.9558,-61.6993 81.2909,-57.1676"/>
</g>
<!-- 133957 -->
<g id="node21" class="node">
<title>133957</title>
<ellipse fill="none" stroke="#000000" cx="70.7717" cy="-26.2815" rx="37.0935" ry="18"/>
<text text-anchor="middle" x="70.7717" y="-22.5815" font-family="Times,serif" font-size="14.00" fill="#000000">133957</text>
</g>
<!-- 3&#45;&gt;133957 -->
<g id="edge20" class="edge">
<title>3&#45;&gt;133957</title>
<path fill="none" stroke="#000000" d="M95.4593,-72.8473C92.1863,-66.6737 88.4079,-59.5468 84.8066,-52.7541"/>
<polygon fill="#000000" stroke="#000000" points="87.8461,-51.0149 80.0696,-43.8193 81.6615,-54.2938 87.8461,-51.0149"/>
</g>
<!-- 135437 -->
<g id="node22" class="node">
<title>135437</title>
<ellipse fill="none" stroke="#000000" cx="85.2351" cy="-20.5188" rx="37.0935" ry="18"/>
<text text-anchor="middle" x="85.2351" y="-16.8188" font-family="Times,serif" font-size="14.00" fill="#000000">135437</text>
</g>
<!-- 3&#45;&gt;135437 -->
<g id="edge21" class="edge">
<title>3&#45;&gt;135437</title>
<path fill="none" stroke="#000000" d="M99.5367,-72.0285C97.5302,-64.8019 95.1669,-56.2901 92.9457,-48.29"/>
<polygon fill="#000000" stroke="#000000" points="96.2934,-47.2645 90.2457,-38.5653 89.5486,-49.1372 96.2934,-47.2645"/>
</g>
<!-- 137385 -->
<g id="node23" class="node">
<title>137385</title>
<ellipse fill="none" stroke="#000000" cx="100.5991" cy="-18" rx="37.0935" ry="18"/>
<text text-anchor="middle" x="100.5991" y="-14.3" font-family="Times,serif" font-size="14.00" fill="#000000">137385</text>
</g>
<!-- 3&#45;&gt;137385 -->
<g id="edge22" class="edge">
<title>3&#45;&gt;137385</title>
<path fill="none" stroke="#000000" d="M103.5135,-71.7524C103.0966,-64.0633 102.6009,-54.9201 102.1376,-46.375"/>
<polygon fill="#000000" stroke="#000000" points="105.6323,-46.1821 101.596,-36.3863 98.6426,-46.5611 105.6323,-46.1821"/>
</g>
<!-- 204008 -->
<g id="node24" class="node">
<title>204008</title>
<ellipse fill="none" stroke="#000000" cx="116.1454" cy="-18.8429" rx="37.0935" ry="18"/>
<text text-anchor="middle" x="116.1454" y="-15.1429" font-family="Times,serif" font-size="14.00" fill="#000000">204008</text>
</g>
<!-- 3&#45;&gt;204008 -->
<g id="edge23" class="edge">
<title>3&#45;&gt;204008</title>
<path fill="none" stroke="#000000" d="M107.4365,-71.9651C108.6823,-64.3661 110.1636,-55.3302 111.5481,-46.8852"/>
<polygon fill="#000000" stroke="#000000" points="115.0025,-47.4481 113.1665,-37.0136 108.0947,-46.3156 115.0025,-47.4481"/>
</g>
<!-- 263531 -->
<g id="node25" class="node">
<title>263531</title>
<ellipse fill="none" stroke="#000000" cx="131.1471" cy="-23.0081" rx="37.0935" ry="18"/>
<text text-anchor="middle" x="131.1471" y="-19.3081" font-family="Times,serif" font-size="14.00" fill="#000000">263531</text>
</g>
<!-- 3&#45;&gt;263531 -->
<g id="edge24" class="edge">
<title>3&#45;&gt;263531</title>
<path fill="none" stroke="#000000" d="M111.4991,-72.3208C114.2013,-65.5389 117.355,-57.6234 120.3349,-50.1446"/>
<polygon fill="#000000" stroke="#000000" points="123.6493,-51.2818 124.0993,-40.6965 117.1465,-48.6908 123.6493,-51.2818"/>
</g>
<!-- 265636 -->
<g id="node26" class="node">
<title>265636</title>
<ellipse fill="none" stroke="#000000" cx="144.9026" cy="-30.3008" rx="37.0935" ry="18"/>
<text text-anchor="middle" x="144.9026" y="-26.6008" font-family="Times,serif" font-size="14.00" fill="#000000">265636</text>
</g>
<!-- 3&#45;&gt;265636 -->
<g id="edge25" class="edge">
<title>3&#45;&gt;265636</title>
<path fill="none" stroke="#000000" d="M115.7523,-73.2943C119.3921,-67.9259 123.5175,-61.8414 127.4955,-55.9744"/>
<polygon fill="#000000" stroke="#000000" points="130.4294,-57.8839 133.1444,-47.6428 124.6356,-53.9556 130.4294,-57.8839"/>
</g>
<!-- 266177 -->
<g id="node27" class="node">
<title>266177</title>
<ellipse fill="none" stroke="#000000" cx="156.7688" cy="-40.38" rx="37.0935" ry="18"/>
<text text-anchor="middle" x="156.7688" y="-36.68" font-family="Times,serif" font-size="14.00" fill="#000000">266177</text>
</g>
<!-- 3&#45;&gt;266177 -->
<g id="edge26" class="edge">
<title>3&#45;&gt;266177</title>
<path fill="none" stroke="#000000" d="M120.1803,-75.0385C124.0145,-71.4065 128.2081,-67.4342 132.3442,-63.5162"/>
<polygon fill="#000000" stroke="#000000" points="134.7842,-66.0259 139.6373,-56.6079 129.9703,-60.9439 134.7842,-66.0259"/>
</g>
<!-- 266491 -->
<g id="node28" class="node">
<title>266491</title>
<ellipse fill="none" stroke="#000000" cx="166.1908" cy="-52.7745" rx="37.0935" ry="18"/>
<text text-anchor="middle" x="166.1908" y="-49.0745" font-family="Times,serif" font-size="14.00" fill="#000000">266491</text>
</g>
<!-- 3&#45;&gt;266491 -->
<g id="edge27" class="edge">
<title>3&#45;&gt;266491</title>
<path fill="none" stroke="#000000" d="M124.6979,-77.74C127.6696,-75.952 130.7915,-74.0736 133.933,-72.1834"/>
<polygon fill="#000000" stroke="#000000" points="135.9655,-75.0453 142.7296,-66.8907 132.3566,-69.0473 135.9655,-75.0453"/>
</g>
<!-- 267360 -->
<g id="node29" class="node">
<title>267360</title>
<ellipse fill="none" stroke="#000000" cx="172.7281" cy="-66.9047" rx="37.0935" ry="18"/>
<text text-anchor="middle" x="172.7281" y="-63.2047" font-family="Times,serif" font-size="14.00" fill="#000000">267360</text>
</g>
<!-- 3&#45;&gt;267360 -->
<g id="edge28" class="edge">
<title>3&#45;&gt;267360</title>
<path fill="none" stroke="#000000" d="M128.7449,-81.7244C129.9515,-81.3178 131.1761,-80.9052 132.4119,-80.4888"/>
<polygon fill="#000000" stroke="#000000" points="133.6345,-83.7703 141.9934,-77.2604 131.3993,-77.1367 133.6345,-83.7703"/>
</g>
<!-- 394432 -->
<g id="node30" class="node">
<title>394432</title>
<ellipse fill="none" stroke="#000000" cx="176.075" cy="-82.1098" rx="37.0935" ry="18"/>
<text text-anchor="middle" x="176.075" y="-78.4098" font-family="Times,serif" font-size="14.00" fill="#000000">394432</text>
</g>
<!-- 3&#45;&gt;394432 -->
<g id="edge29" class="edge">
<title>3&#45;&gt;394432</title>
<path fill="none" stroke="#000000" d="M131.1501,-86.9957C131.2395,-86.986 131.329,-86.9763 131.4186,-86.9665"/>
<polygon fill="#000000" stroke="#000000" points="130.3431,-90.6042 139.906,-86.0435 129.5862,-83.6453 130.3431,-90.6042"/>
</g>
</g>
</svg>
