<?xml version="1.0" encoding="UTF-8" standalone="no"?>
<!DOCTYPE svg PUBLIC "-//W3C//DTD SVG 1.1//EN"
 "http://www.w3.org/Graphics/SVG/1.1/DTD/svg11.dtd">
<!-- Generated by graphviz version 2.40.1 (20161225.0304)
 -->
<!-- Title: %3 Pages: 1 -->
<svg width="277pt" height="242pt"
 viewBox="0.00 0.00 276.99 241.82" xmlns="http://www.w3.org/2000/svg" xmlns:xlink="http://www.w3.org/1999/xlink">
<g id="graph0" class="graph" transform="scale(1 1) rotate(0) translate(4 237.8194)">
<title>%3</title>
<polygon fill="#ffffff" stroke="transparent" points="-4,4 -4,-237.8194 272.9875,-237.8194 272.9875,4 -4,4"/>
<!-- 3 -->
<g id="node1" class="node">
<title>3</title>
<ellipse fill="none" stroke="#000000" cx="134.0499" cy="-116.3468" rx="27" ry="18"/>
<text text-anchor="middle" x="134.0499" y="-112.6468" font-family="Times,serif" font-size="14.00" fill="#000000">3</text>
</g>
<!-- 174 -->
<g id="node2" class="node">
<title>174</title>
<ellipse fill="none" stroke="#000000" cx="206.7429" cy="-104.1337" rx="27" ry="18"/>
<text text-anchor="middle" x="206.7429" y="-100.4337" font-family="Times,serif" font-size="14.00" fill="#000000">174</text>
</g>
<!-- 3&#45;&gt;174 -->
<g id="edge1" class="edge">
<title>3&#45;&gt;174</title>
<path fill="none" stroke="#000000" d="M160.2938,-111.9376C163.5472,-111.391 166.918,-110.8247 170.2899,-110.2581"/>
<polygon fill="#000000" stroke="#000000" points="171.0116,-113.686 180.2934,-108.5775 169.8517,-106.7828 171.0116,-113.686"/>
</g>
<!-- 293 -->
<g id="node3" class="node">
<title>293</title>
<ellipse fill="none" stroke="#000000" cx="109.2333" cy="-19.4795" rx="27" ry="18"/>
<text text-anchor="middle" x="109.2333" y="-15.7795" font-family="Times,serif" font-size="14.00" fill="#000000">293</text>
</g>
<!-- 3&#45;&gt;293 -->
<g id="edge2" class="edge">
<title>3&#45;&gt;293</title>
<path fill="none" stroke="#000000" d="M129.4982,-98.5799C125.8132,-84.1964 120.5579,-63.6831 116.3224,-47.1508"/>
<polygon fill="#000000" stroke="#000000" points="119.7126,-46.2804 113.8402,-37.4619 112.9316,-48.0177 119.7126,-46.2804"/>
</g>
<!-- 3356 -->
<g id="node4" class="node">
<title>3356</title>
<ellipse fill="none" stroke="#000000" cx="82.5215" cy="-204.8101" rx="28.6953" ry="18"/>
<text text-anchor="middle" x="82.5215" y="-201.1101" font-family="Times,serif" font-size="14.00" fill="#000000">3356</text>
</g>
<!-- 3&#45;&gt;3356 -->
<g id="edge3" class="edge">
<title>3&#45;&gt;3356</title>
<path fill="none" stroke="#000000" d="M124.1147,-133.4034C116.5585,-146.3759 106.0365,-164.44 97.4662,-179.1533"/>
<polygon fill="#000000" stroke="#000000" points="94.4352,-177.4032 92.4262,-187.8059 100.4839,-180.9265 94.4352,-177.4032"/>
</g>
<!-- 6939 -->
<g id="node5" class="node">
<title>6939</title>
<ellipse fill="none" stroke="#000000" cx="189.3394" cy="-137.2465" rx="28.6953" ry="18"/>
<text text-anchor="middle" x="189.3394" y="-133.5465" font-family="Times,serif" font-size="14.00" fill="#000000">6939</text>
</g>
<!-- 3&#45;&gt;6939 -->
<g id="edge4" class="edge">
<title>3&#45;&gt;6939</title>
<path fill="none" stroke="#000000" d="M157.8185,-125.3314C157.9575,-125.384 158.0967,-125.4366 158.236,-125.4892"/>
<polygon fill="#000000" stroke="#000000" points="153.9434,-127.6082 164.535,-127.8703 156.4185,-121.0604 153.9434,-127.6082"/>
</g>
<!-- 7015 -->
<g id="node6" class="node">
<title>7015</title>
<ellipse fill="none" stroke="#000000" cx="71.4916" cy="-117.013" rx="28.6953" ry="18"/>
<text text-anchor="middle" x="71.4916" y="-113.313" font-family="Times,serif" font-size="14.00" fill="#000000">7015</text>
</g>
<!-- 3&#45;&gt;7015 -->
<g id="edge5" class="edge">
<title>3&#45;&gt;7015</title>
<path fill="none" stroke="#000000" d="M106.7929,-116.6371C106.6612,-116.6385 106.5294,-116.6399 106.3975,-116.6413"/>
<polygon fill="#000000" stroke="#000000" points="110.398,-113.0983 100.4359,-116.7048 110.4727,-120.0979 110.398,-113.0983"/>
</g>
<!-- 7029 -->
<g id="node7" class="node">
<title>7029</title>
<ellipse fill="none" stroke="#000000" cx="57.405" cy="-50.3215" rx="28.6953" ry="18"/>
<text text-anchor="middle" x="57.405" y="-46.6215" font-family="Times,serif" font-size="14.00" fill="#000000">7029</text>
</g>
<!-- 3&#45;&gt;7029 -->
<g id="edge6" class="edge">
<title>3&#45;&gt;7029</title>
<path fill="none" stroke="#000000" d="M117.4191,-102.0203C107.1168,-93.1454 93.6958,-81.584 82.1588,-71.6455"/>
<polygon fill="#000000" stroke="#000000" points="84.3948,-68.9522 74.534,-65.0772 79.8261,-74.2557 84.3948,-68.9522"/>
</g>
<!-- 10578 -->
<g id="node8" class="node">
<title>10578</title>
<ellipse fill="none" stroke="#000000" cx="213.5489" cy="-62.9409" rx="32.4942" ry="18"/>
<text text-anchor="middle" x="213.5489" y="-59.2409" font-family="Times,serif" font-size="14.00" fill="#000000">10578</text>
</g>
<!-- 3&#45;&gt;10578 -->
<g id="edge7" class="edge">
<title>3&#45;&gt;10578</title>
<path fill="none" stroke="#000000" d="M153.2944,-103.4187C162.6286,-97.1482 174.0402,-89.4821 184.4117,-82.5147"/>
<polygon fill="#000000" stroke="#000000" points="186.4616,-85.3542 192.8107,-76.8724 182.5581,-79.5435 186.4616,-85.3542"/>
</g>
<!-- 18365 -->
<g id="node9" class="node">
<title>18365</title>
<ellipse fill="none" stroke="#000000" cx="86.109" cy="-36.3904" rx="32.4942" ry="18"/>
<text text-anchor="middle" x="86.109" y="-32.6904" font-family="Times,serif" font-size="14.00" fill="#000000">18365</text>
</g>
<!-- 3&#45;&gt;18365 -->
<g id="edge8" class="edge">
<title>3&#45;&gt;18365</title>
<path fill="none" stroke="#000000" d="M123.8829,-99.3901C117.4435,-88.6505 108.9881,-74.5485 101.71,-62.4099"/>
<polygon fill="#000000" stroke="#000000" points="104.5709,-60.375 96.4267,-53.5983 98.5673,-63.9747 104.5709,-60.375"/>
</g>
<!-- 23248 -->
<g id="node10" class="node">
<title>23248</title>
<ellipse fill="none" stroke="#000000" cx="169.915" cy="-27.7153" rx="32.4942" ry="18"/>
<text text-anchor="middle" x="169.915" y="-24.0153" font-family="Times,serif" font-size="14.00" fill="#000000">23248</text>
</g>
<!-- 3&#45;&gt;23248 -->
<g id="edge9" class="edge">
<title>3&#45;&gt;23248</title>
<path fill="none" stroke="#000000" d="M141.1357,-98.8361C146.2112,-86.2932 153.1437,-69.1613 158.9328,-54.8549"/>
<polygon fill="#000000" stroke="#000000" points="162.2145,-56.0757 162.7212,-45.493 155.7256,-53.4499 162.2145,-56.0757"/>
</g>
<!-- 27787 -->
<g id="node11" class="node">
<title>27787</title>
<ellipse fill="none" stroke="#000000" cx="127.3141" cy="-53.3381" rx="32.4942" ry="18"/>
<text text-anchor="middle" x="127.3141" y="-49.6381" font-family="Times,serif" font-size="14.00" fill="#000000">27787</text>
</g>
<!-- 3&#45;&gt;27787 -->
<g id="edge10" class="edge">
<title>3&#45;&gt;27787</title>
<path fill="none" stroke="#000000" d="M132.1016,-98.1221C131.5618,-93.0723 130.9624,-87.4654 130.3755,-81.9756"/>
<polygon fill="#000000" stroke="#000000" points="133.8246,-81.3114 129.2813,-71.7402 126.8642,-82.0556 133.8246,-81.3114"/>
</g>
<!-- 32787 -->
<g id="node12" class="node">
<title>32787</title>
<ellipse fill="none" stroke="#000000" cx="34.6276" cy="-109.0144" rx="32.4942" ry="18"/>
<text text-anchor="middle" x="34.6276" y="-105.3144" font-family="Times,serif" font-size="14.00" fill="#000000">32787</text>
</g>
<!-- 3&#45;&gt;32787 -->
<g id="edge11" class="edge">
<title>3&#45;&gt;32787</title>
<path fill="none" stroke="#000000" d="M107.1448,-114.3626C97.8284,-113.6755 87.1477,-112.8878 76.8986,-112.1319"/>
<polygon fill="#000000" stroke="#000000" points="77.0903,-108.6366 66.86,-111.3915 76.5754,-115.6177 77.0903,-108.6366"/>
</g>
<!-- 33480 -->
<g id="node13" class="node">
<title>33480</title>
<ellipse fill="none" stroke="#000000" cx="234.6264" cy="-127.6505" rx="32.4942" ry="18"/>
<text text-anchor="middle" x="234.6264" y="-123.9505" font-family="Times,serif" font-size="14.00" fill="#000000">33480</text>
</g>
<!-- 3&#45;&gt;33480 -->
<g id="edge12" class="edge">
<title>3&#45;&gt;33480</title>
<path fill="none" stroke="#000000" d="M160.7385,-119.3463C170.4409,-120.4368 181.6589,-121.6976 192.3769,-122.9021"/>
<polygon fill="#000000" stroke="#000000" points="192.1055,-126.3936 202.4338,-124.0324 192.8873,-119.4374 192.1055,-126.3936"/>
</g>
<!-- 37642 -->
<g id="node14" class="node">
<title>37642</title>
<ellipse fill="none" stroke="#000000" cx="224.1505" cy="-157.5034" rx="32.4942" ry="18"/>
<text text-anchor="middle" x="224.1505" y="-153.8034" font-family="Times,serif" font-size="14.00" fill="#000000">37642</text>
</g>
<!-- 3&#45;&gt;37642 -->
<g id="edge13" class="edge">
<title>3&#45;&gt;37642</title>
<path fill="none" stroke="#000000" d="M156.7861,-126.7323C166.705,-131.2631 178.5547,-136.6759 189.5304,-141.6894"/>
<polygon fill="#000000" stroke="#000000" points="188.33,-144.9889 198.8802,-145.9603 191.2385,-138.6217 188.33,-144.9889"/>
</g>
<!-- 43888 -->
<g id="node15" class="node">
<title>43888</title>
<ellipse fill="none" stroke="#000000" cx="147.5769" cy="-215.0652" rx="32.4942" ry="18"/>
<text text-anchor="middle" x="147.5769" y="-211.3652" font-family="Times,serif" font-size="14.00" fill="#000000">43888</text>
</g>
<!-- 3&#45;&gt;43888 -->
<g id="edge14" class="edge">
<title>3&#45;&gt;43888</title>
<path fill="none" stroke="#000000" d="M136.531,-134.4533C138.5331,-149.0647 141.3858,-169.883 143.6906,-186.7031"/>
<polygon fill="#000000" stroke="#000000" points="140.2863,-187.6413 145.1116,-197.0735 147.2215,-186.6909 140.2863,-187.6413"/>
</g>
<!-- 56651 -->
<g id="node16" class="node">
<title>56651</title>
<ellipse fill="none" stroke="#000000" cx="169.063" cy="-69.9645" rx="32.4942" ry="18"/>
<text text-anchor="middle" x="169.063" y="-66.2645" font-family="Times,serif" font-size="14.00" fill="#000000">56651</text>
</g>
<!-- 3&#45;&gt;56651 -->
<g id="edge15" class="edge">
<title>3&#45;&gt;56651</title>
<path fill="none" stroke="#000000" d="M146.2958,-100.1245C147.5086,-98.5179 148.7585,-96.8621 150.0192,-95.1921"/>
<polygon fill="#000000" stroke="#000000" points="153.0579,-96.9759 156.2894,-86.8859 147.471,-92.7585 153.0579,-96.9759"/>
</g>
<!-- 59362 -->
<g id="node17" class="node">
<title>59362</title>
<ellipse fill="none" stroke="#000000" cx="196.8507" cy="-39.4598" rx="32.4942" ry="18"/>
<text text-anchor="middle" x="196.8507" y="-35.7598" font-family="Times,serif" font-size="14.00" fill="#000000">59362</text>
</g>
<!-- 3&#45;&gt;59362 -->
<g id="edge16" class="edge">
<title>3&#45;&gt;59362</title>
<path fill="none" stroke="#000000" d="M147.0623,-100.4158C155.7028,-89.8372 167.2114,-75.7472 176.9872,-63.7787"/>
<polygon fill="#000000" stroke="#000000" points="179.8064,-65.8599 183.4217,-55.901 174.385,-61.4317 179.8064,-65.8599"/>
</g>
<!-- 131758 -->
<g id="node18" class="node">
<title>131758</title>
<ellipse fill="none" stroke="#000000" cx="52.706" cy="-179.76" rx="37.0935" ry="18"/>
<text text-anchor="middle" x="52.706" y="-176.06" font-family="Times,serif" font-size="14.00" fill="#000000">131758</text>
</g>
<!-- 3&#45;&gt;131758 -->
<g id="edge17" class="edge">
<title>3&#45;&gt;131758</title>
<path fill="none" stroke="#000000" d="M116.3995,-130.1065C105.8452,-138.3343 92.2069,-148.9663 80.2598,-158.2799"/>
<polygon fill="#000000" stroke="#000000" points="78.0525,-155.5627 72.3177,-164.4713 82.3562,-161.0834 78.0525,-155.5627"/>
</g>
<!-- 133295 -->
<g id="node19" class="node">
<title>133295</title>
<ellipse fill="none" stroke="#000000" cx="37.0467" cy="-141.7472" rx="37.0935" ry="18"/>
<text text-anchor="middle" x="37.0467" y="-138.0472" font-family="Times,serif" font-size="14.00" fill="#000000">133295</text>
</g>
<!-- 3&#45;&gt;133295 -->
<g id="edge18" class="edge">
<title>3&#45;&gt;133295</title>
<path fill="none" stroke="#000000" d="M108.8167,-122.9542C99.8911,-125.2914 89.5877,-127.9893 79.623,-130.5986"/>
<polygon fill="#000000" stroke="#000000" points="78.622,-127.2426 69.8347,-133.1617 80.3952,-134.0143 78.622,-127.2426"/>
</g>
<!-- 133296 -->
<g id="node20" class="node">
<title>133296</title>
<ellipse fill="none" stroke="#000000" cx="68.8847" cy="-157.1537" rx="37.0935" ry="18"/>
<text text-anchor="middle" x="68.8847" y="-153.4537" font-family="Times,serif" font-size="14.00" fill="#000000">133296</text>
</g>
<!-- 3&#45;&gt;133296 -->
<g id="edge19" class="edge">
<title>3&#45;&gt;133296</title>
<path fill="none" stroke="#000000" d="M114.1441,-128.8119C109.8561,-131.4971 105.2211,-134.3996 100.609,-137.2878"/>
<polygon fill="#000000" stroke="#000000" points="98.4831,-134.4893 91.8653,-142.7631 102.1983,-140.4221 98.4831,-134.4893"/>
</g>
<!-- 133957 -->
<g id="node21" class="node">
<title>133957</title>
<ellipse fill="none" stroke="#000000" cx="134.3061" cy="-163.6409" rx="37.0935" ry="18"/>
<text text-anchor="middle" x="134.3061" y="-159.9409" font-family="Times,serif" font-size="14.00" fill="#000000">133957</text>
</g>
<!-- 3&#45;&gt;133957 -->
<g id="edge20" class="edge">
<title>3&#45;&gt;133957</title>
<path fill="none" stroke="#000000" d="M134.1482,-134.4967C134.1501,-134.8386 134.1519,-135.1821 134.1538,-135.5269"/>
<polygon fill="#000000" stroke="#000000" points="130.6542,-135.6368 134.2085,-145.6177 137.6541,-135.5989 130.6542,-135.6368"/>
</g>
<!-- 135437 -->
<g id="node22" class="node">
<title>135437</title>
<ellipse fill="none" stroke="#000000" cx="44.2216" cy="-80.5304" rx="37.0935" ry="18"/>
<text text-anchor="middle" x="44.2216" y="-76.8304" font-family="Times,serif" font-size="14.00" fill="#000000">135437</text>
</g>
<!-- 3&#45;&gt;135437 -->
<g id="edge21" class="edge">
<title>3&#45;&gt;135437</title>
<path fill="none" stroke="#000000" d="M110.4486,-106.9365C101.8716,-103.5167 91.9448,-99.5586 82.4289,-95.7644"/>
<polygon fill="#000000" stroke="#000000" points="83.7003,-92.5035 73.1151,-92.0508 81.1077,-99.0057 83.7003,-92.5035"/>
</g>
<!-- 137385 -->
<g id="node23" class="node">
<title>137385</title>
<ellipse fill="none" stroke="#000000" cx="170.1179" cy="-182.2641" rx="37.0935" ry="18"/>
<text text-anchor="middle" x="170.1179" y="-178.5641" font-family="Times,serif" font-size="14.00" fill="#000000">137385</text>
</g>
<!-- 3&#45;&gt;137385 -->
<g id="edge22" class="edge">
<title>3&#45;&gt;137385</title>
<path fill="none" stroke="#000000" d="M143.3383,-133.3222C147.0367,-140.0812 151.3825,-148.0235 155.4847,-155.5206"/>
<polygon fill="#000000" stroke="#000000" points="152.6129,-157.5638 160.4835,-164.6563 158.7537,-154.2036 152.6129,-157.5638"/>
</g>
<!-- 204008 -->
<g id="node24" class="node">
<title>204008</title>
<ellipse fill="none" stroke="#000000" cx="183.0567" cy="-207.5421" rx="37.0935" ry="18"/>
<text text-anchor="middle" x="183.0567" y="-203.8421" font-family="Times,serif" font-size="14.00" fill="#000000">204008</text>
</g>
<!-- 3&#45;&gt;204008 -->
<g id="edge23" class="edge">
<title>3&#45;&gt;204008</title>
<path fill="none" stroke="#000000" d="M143.2677,-133.5C150.4316,-146.831 160.4978,-165.5629 168.7128,-180.8499"/>
<polygon fill="#000000" stroke="#000000" points="165.7293,-182.692 173.546,-189.8439 171.8953,-179.3784 165.7293,-182.692"/>
</g>
<!-- 263531 -->
<g id="node25" class="node">
<title>263531</title>
<ellipse fill="none" stroke="#000000" cx="117.3192" cy="-215.8194" rx="37.0935" ry="18"/>
<text text-anchor="middle" x="117.3192" y="-212.1194" font-family="Times,serif" font-size="14.00" fill="#000000">263531</text>
</g>
<!-- 3&#45;&gt;263531 -->
<g id="edge24" class="edge">
<title>3&#45;&gt;263531</title>
<path fill="none" stroke="#000000" d="M130.9812,-134.5916C128.4813,-149.4549 124.9093,-170.6922 122.0447,-187.7238"/>
<polygon fill="#000000" stroke="#000000" points="118.5756,-187.2483 120.3684,-197.6903 125.4787,-188.4094 118.5756,-187.2483"/>
</g>
<!-- 265636 -->
<g id="node26" class="node">
<title>265636</title>
<ellipse fill="none" stroke="#000000" cx="142.5099" cy="-18" rx="37.0935" ry="18"/>
<text text-anchor="middle" x="142.5099" y="-14.3" font-family="Times,serif" font-size="14.00" fill="#000000">265636</text>
</g>
<!-- 3&#45;&gt;265636 -->
<g id="edge25" class="edge">
<title>3&#45;&gt;265636</title>
<path fill="none" stroke="#000000" d="M135.6016,-98.3085C136.846,-83.8431 138.6156,-63.2711 140.0523,-46.57"/>
<polygon fill="#000000" stroke="#000000" points="143.5694,-46.5202 140.9394,-36.257 136.5951,-45.9202 143.5694,-46.5202"/>
</g>
<!-- 266177 -->
<g id="node27" class="node">
<title>266177</title>
<ellipse fill="none" stroke="#000000" cx="208.4452" cy="-182.3928" rx="37.0935" ry="18"/>
<text text-anchor="middle" x="208.4452" y="-178.6928" font-family="Times,serif" font-size="14.00" fill="#000000">266177</text>
</g>
<!-- 3&#45;&gt;266177 -->
<g id="edge26" class="edge">
<title>3&#45;&gt;266177</title>
<path fill="none" stroke="#000000" d="M150.5606,-131.0046C160.0679,-139.4449 172.2188,-150.2321 182.9309,-159.742"/>
<polygon fill="#000000" stroke="#000000" points="180.6164,-162.3675 190.4184,-166.3891 185.2637,-157.1327 180.6164,-162.3675"/>
</g>
<!-- 266491 -->
<g id="node28" class="node">
<title>266491</title>
<ellipse fill="none" stroke="#000000" cx="102.083" cy="-181.424" rx="37.0935" ry="18"/>
<text text-anchor="middle" x="102.083" y="-177.724" font-family="Times,serif" font-size="14.00" fill="#000000">266491</text>
</g>
<!-- 3&#45;&gt;266491 -->
<g id="edge27" class="edge">
<title>3&#45;&gt;266491</title>
<path fill="none" stroke="#000000" d="M125.4834,-133.7863C122.381,-140.102 118.7996,-147.3929 115.3861,-154.342"/>
<polygon fill="#000000" stroke="#000000" points="112.1636,-152.9638 110.8961,-163.4825 118.4466,-156.0501 112.1636,-152.9638"/>
</g>
<!-- 267360 -->
<g id="node29" class="node">
<title>267360</title>
<ellipse fill="none" stroke="#000000" cx="83.512" cy="-74.5369" rx="37.0935" ry="18"/>
<text text-anchor="middle" x="83.512" y="-70.8369" font-family="Times,serif" font-size="14.00" fill="#000000">267360</text>
</g>
<!-- 3&#45;&gt;267360 -->
<g id="edge28" class="edge">
<title>3&#45;&gt;267360</title>
<path fill="none" stroke="#000000" d="M116.9401,-102.1919C114.7387,-100.3707 112.4448,-98.473 110.1358,-96.5627"/>
<polygon fill="#000000" stroke="#000000" points="112.2755,-93.7904 102.3394,-90.1128 107.8135,-99.184 112.2755,-93.7904"/>
</g>
<!-- 394432 -->
<g id="node30" class="node">
<title>394432</title>
<ellipse fill="none" stroke="#000000" cx="231.9407" cy="-88.2945" rx="37.0935" ry="18"/>
<text text-anchor="middle" x="231.9407" y="-84.5945" font-family="Times,serif" font-size="14.00" fill="#000000">394432</text>
</g>
<!-- 3&#45;&gt;394432 -->
<g id="edge29" class="edge">
<title>3&#45;&gt;394432</title>
<path fill="none" stroke="#000000" d="M159.0052,-109.1954C168.4491,-106.4891 179.4761,-103.3292 190.0538,-100.2979"/>
<polygon fill="#000000" stroke="#000000" points="191.3425,-103.5696 199.9913,-97.4502 189.4141,-96.8404 191.3425,-103.5696"/>
</g>
</g>
</svg>
