<?xml version="1.0" encoding="UTF-8" standalone="no"?>
<!DOCTYPE svg PUBLIC "-//W3C//DTD SVG 1.1//EN"
 "http://www.w3.org/Graphics/SVG/1.1/DTD/svg11.dtd">
<!-- Generated by graphviz version 2.40.1 (20161225.0304)
 -->
<!-- Title: %3 Pages: 1 -->
<svg width="1468pt" height="1766pt"
 viewBox="0.00 0.00 1468.00 1766.00" xmlns="http://www.w3.org/2000/svg" xmlns:xlink="http://www.w3.org/1999/xlink">
<g id="graph0" class="graph" transform="scale(1 1) rotate(0) translate(4 1762)">
<title>%3</title>
<polygon fill="#ffffff" stroke="transparent" points="-4,4 -4,-1762 1464,-1762 1464,4 -4,4"/>
<!-- 174 -->
<g id="node1" class="node">
<title>174</title>
<ellipse fill="none" stroke="#000000" cx="394.0793" cy="-195.7585" rx="27" ry="18"/>
<text text-anchor="middle" x="394.0793" y="-192.0585" font-family="Times,serif" font-size="14.00" fill="#000000">174</text>
</g>
<!-- 209 -->
<g id="node2" class="node">
<title>209</title>
<ellipse fill="none" stroke="#000000" cx="417.8222" cy="-252.6781" rx="27" ry="18"/>
<text text-anchor="middle" x="417.8222" y="-248.9781" font-family="Times,serif" font-size="14.00" fill="#000000">209</text>
</g>
<!-- 701 -->
<g id="node3" class="node">
<title>701</title>
<ellipse fill="none" stroke="#000000" cx="610.0408" cy="-31.4529" rx="27" ry="18"/>
<text text-anchor="middle" x="610.0408" y="-27.7529" font-family="Times,serif" font-size="14.00" fill="#000000">701</text>
</g>
<!-- 1239 -->
<g id="node4" class="node">
<title>1239</title>
<ellipse fill="none" stroke="#000000" cx="641.2036" cy="-263.2883" rx="28.6953" ry="18"/>
<text text-anchor="middle" x="641.2036" y="-259.5883" font-family="Times,serif" font-size="14.00" fill="#000000">1239</text>
</g>
<!-- 1273 -->
<g id="node5" class="node">
<title>1273</title>
<ellipse fill="none" stroke="#000000" cx="393.7123" cy="-137.8522" rx="28.6953" ry="18"/>
<text text-anchor="middle" x="393.7123" y="-134.1522" font-family="Times,serif" font-size="14.00" fill="#000000">1273</text>
</g>
<!-- 1299 -->
<g id="node6" class="node">
<title>1299</title>
<ellipse fill="none" stroke="#000000" cx="469.0098" cy="-124.4166" rx="28.6953" ry="18"/>
<text text-anchor="middle" x="469.0098" y="-120.7166" font-family="Times,serif" font-size="14.00" fill="#000000">1299</text>
</g>
<!-- 2497 -->
<g id="node7" class="node">
<title>2497</title>
<ellipse fill="none" stroke="#000000" cx="477.857" cy="-299.7683" rx="28.6953" ry="18"/>
<text text-anchor="middle" x="477.857" y="-296.0683" font-family="Times,serif" font-size="14.00" fill="#000000">2497</text>
</g>
<!-- 2516 -->
<g id="node8" class="node">
<title>2516</title>
<ellipse fill="none" stroke="#000000" cx="1431.7029" cy="-898.4439" rx="28.6953" ry="18"/>
<text text-anchor="middle" x="1431.7029" y="-894.7439" font-family="Times,serif" font-size="14.00" fill="#000000">2516</text>
</g>
<!-- 2686 -->
<g id="node9" class="node">
<title>2686</title>
<ellipse fill="none" stroke="#000000" cx="1430.4826" cy="-827.0072" rx="28.6953" ry="18"/>
<text text-anchor="middle" x="1430.4826" y="-823.3072" font-family="Times,serif" font-size="14.00" fill="#000000">2686</text>
</g>
<!-- 2687 -->
<g id="node10" class="node">
<title>2687</title>
<ellipse fill="none" stroke="#000000" cx="1283.1762" cy="-864.395" rx="28.6953" ry="18"/>
<text text-anchor="middle" x="1283.1762" y="-860.695" font-family="Times,serif" font-size="14.00" fill="#000000">2687</text>
</g>
<!-- 2687&#45;&gt;2516 -->
<g id="edge1" class="edge">
<title>2687&#45;&gt;2516</title>
<path fill="none" stroke="#000000" d="M1310.0732,-870.561C1333.6892,-875.9748 1368.2731,-883.903 1394.5321,-889.9227"/>
<polygon fill="#000000" stroke="#000000" points="1393.9748,-893.3857 1404.504,-892.2087 1395.5389,-886.5627 1393.9748,-893.3857"/>
</g>
<!-- 2687&#45;&gt;2686 -->
<g id="edge2" class="edge">
<title>2687&#45;&gt;2686</title>
<path fill="none" stroke="#000000" d="M1309.8523,-857.6243C1333.2742,-851.6796 1367.574,-842.974 1393.6172,-836.364"/>
<polygon fill="#000000" stroke="#000000" points="1394.6756,-839.7064 1403.5072,-833.8538 1392.9534,-832.9216 1394.6756,-839.7064"/>
</g>
<!-- 7473 -->
<g id="node27" class="node">
<title>7473</title>
<ellipse fill="none" stroke="#000000" cx="1391.2322" cy="-962.4329" rx="28.6953" ry="18"/>
<text text-anchor="middle" x="1391.2322" y="-958.7329" font-family="Times,serif" font-size="14.00" fill="#000000">7473</text>
</g>
<!-- 2687&#45;&gt;7473 -->
<g id="edge3" class="edge">
<title>2687&#45;&gt;7473</title>
<path fill="none" stroke="#000000" d="M1299.5876,-879.2848C1317.5965,-895.6242 1346.6752,-922.0069 1367.2417,-940.6666"/>
<polygon fill="#000000" stroke="#000000" points="1364.9085,-943.2756 1374.6664,-947.4029 1369.6121,-938.0914 1364.9085,-943.2756"/>
</g>
<!-- 9505 -->
<g id="node29" class="node">
<title>9505</title>
<ellipse fill="none" stroke="#000000" cx="1386.5668" cy="-763.4807" rx="28.6953" ry="18"/>
<text text-anchor="middle" x="1386.5668" y="-759.7807" font-family="Times,serif" font-size="14.00" fill="#000000">9505</text>
</g>
<!-- 2687&#45;&gt;9505 -->
<g id="edge4" class="edge">
<title>2687&#45;&gt;9505</title>
<path fill="none" stroke="#000000" d="M1298.879,-849.0683C1316.1342,-832.2263 1344.0105,-805.0177 1363.6937,-785.806"/>
<polygon fill="#000000" stroke="#000000" points="1366.3434,-788.1106 1371.055,-778.621 1361.454,-783.1012 1366.3434,-788.1106"/>
</g>
<!-- 2828 -->
<g id="node11" class="node">
<title>2828</title>
<ellipse fill="none" stroke="#000000" cx="393.4512" cy="-81.2799" rx="28.6953" ry="18"/>
<text text-anchor="middle" x="393.4512" y="-77.5799" font-family="Times,serif" font-size="14.00" fill="#000000">2828</text>
</g>
<!-- 2914 -->
<g id="node12" class="node">
<title>2914</title>
<ellipse fill="none" stroke="#000000" cx="607.1735" cy="-415.9219" rx="28.6953" ry="18"/>
<text text-anchor="middle" x="607.1735" y="-412.2219" font-family="Times,serif" font-size="14.00" fill="#000000">2914</text>
</g>
<!-- 6453 -->
<g id="node21" class="node">
<title>6453</title>
<ellipse fill="none" stroke="#000000" cx="534.0158" cy="-180.2118" rx="28.6953" ry="18"/>
<text text-anchor="middle" x="534.0158" y="-176.5118" font-family="Times,serif" font-size="14.00" fill="#000000">6453</text>
</g>
<!-- 2914&#45;&gt;6453 -->
<g id="edge5" class="edge">
<title>2914&#45;&gt;6453</title>
<path fill="none" stroke="#000000" d="M601.6748,-398.2054C589.0174,-357.4238 557.7457,-256.6682 542.5618,-207.7463"/>
<polygon fill="#000000" stroke="#000000" points="545.8853,-206.647 539.5784,-198.1339 539.1999,-208.722 545.8853,-206.647"/>
</g>
<!-- 3257 -->
<g id="node13" class="node">
<title>3257</title>
<ellipse fill="none" stroke="#000000" cx="677.527" cy="-137.4038" rx="28.6953" ry="18"/>
<text text-anchor="middle" x="677.527" y="-133.7038" font-family="Times,serif" font-size="14.00" fill="#000000">3257</text>
</g>
<!-- 3320 -->
<g id="node14" class="node">
<title>3320</title>
<ellipse fill="none" stroke="#000000" cx="533.4157" cy="-18.1812" rx="28.6953" ry="18"/>
<text text-anchor="middle" x="533.4157" y="-14.4812" font-family="Times,serif" font-size="14.00" fill="#000000">3320</text>
</g>
<!-- 3356 -->
<g id="node15" class="node">
<title>3356</title>
<ellipse fill="none" stroke="#000000" cx="604.3704" cy="-1012.4818" rx="28.6953" ry="18"/>
<text text-anchor="middle" x="604.3704" y="-1008.7818" font-family="Times,serif" font-size="14.00" fill="#000000">3356</text>
</g>
<!-- 3549 -->
<g id="node17" class="node">
<title>3549</title>
<ellipse fill="none" stroke="#000000" cx="725.5858" cy="-834.989" rx="28.6953" ry="18"/>
<text text-anchor="middle" x="725.5858" y="-831.289" font-family="Times,serif" font-size="14.00" fill="#000000">3549</text>
</g>
<!-- 3356&#45;&gt;3549 -->
<g id="edge6" class="edge">
<title>3356&#45;&gt;3549</title>
<path fill="none" stroke="#000000" d="M615.7741,-995.7837C637.0718,-964.5979 683.01,-897.3318 708.1957,-860.4529"/>
<polygon fill="#000000" stroke="#000000" points="711.3748,-862.004 714.1242,-851.7721 705.5942,-858.0562 711.3748,-862.004"/>
</g>
<!-- 3491 -->
<g id="node16" class="node">
<title>3491</title>
<ellipse fill="none" stroke="#000000" cx="468.0682" cy="-36.6902" rx="28.6953" ry="18"/>
<text text-anchor="middle" x="468.0682" y="-32.9902" font-family="Times,serif" font-size="14.00" fill="#000000">3491</text>
</g>
<!-- 6762 -->
<g id="node23" class="node">
<title>6762</title>
<ellipse fill="none" stroke="#000000" cx="664.2887" cy="-622.698" rx="28.6953" ry="18"/>
<text text-anchor="middle" x="664.2887" y="-618.998" font-family="Times,serif" font-size="14.00" fill="#000000">6762</text>
</g>
<!-- 3549&#45;&gt;6762 -->
<g id="edge7" class="edge">
<title>3549&#45;&gt;6762</title>
<path fill="none" stroke="#000000" d="M720.4651,-817.2544C709.7832,-780.2596 685.0578,-694.628 672.2699,-650.3396"/>
<polygon fill="#000000" stroke="#000000" points="675.5747,-649.168 669.4379,-640.5315 668.8495,-651.1099 675.5747,-649.168"/>
</g>
<!-- 30070 -->
<g id="node37" class="node">
<title>30070</title>
<ellipse fill="none" stroke="#000000" cx="908.8693" cy="-878.3042" rx="32.4942" ry="18"/>
<text text-anchor="middle" x="908.8693" y="-874.6042" font-family="Times,serif" font-size="14.00" fill="#000000">30070</text>
</g>
<!-- 3549&#45;&gt;30070 -->
<g id="edge8" class="edge">
<title>3549&#45;&gt;30070</title>
<path fill="none" stroke="#000000" d="M752.6299,-841.3803C783.3537,-848.6412 833.7867,-860.56 869.0171,-868.886"/>
<polygon fill="#000000" stroke="#000000" points="868.4352,-872.3448 878.9721,-871.2387 870.0452,-865.5325 868.4352,-872.3448"/>
</g>
<!-- 3597 -->
<g id="node18" class="node">
<title>3597</title>
<ellipse fill="none" stroke="#000000" cx="174.6625" cy="-1450.4697" rx="28.6953" ry="18"/>
<text text-anchor="middle" x="174.6625" y="-1446.7697" font-family="Times,serif" font-size="14.00" fill="#000000">3597</text>
</g>
<!-- 5511 -->
<g id="node19" class="node">
<title>5511</title>
<ellipse fill="none" stroke="#000000" cx="681.6351" cy="-190.8464" rx="28.6953" ry="18"/>
<text text-anchor="middle" x="681.6351" y="-187.1464" font-family="Times,serif" font-size="14.00" fill="#000000">5511</text>
</g>
<!-- 5692 -->
<g id="node20" class="node">
<title>5692</title>
<ellipse fill="none" stroke="#000000" cx="208.3931" cy="-1566.446" rx="28.6953" ry="18"/>
<text text-anchor="middle" x="208.3931" y="-1562.746" font-family="Times,serif" font-size="14.00" fill="#000000">5692</text>
</g>
<!-- 5692&#45;&gt;3597 -->
<g id="edge9" class="edge">
<title>5692&#45;&gt;3597</title>
<path fill="none" stroke="#000000" d="M203.1967,-1548.5789C197.7406,-1529.8193 189.0888,-1500.0717 182.7411,-1478.2465"/>
<polygon fill="#000000" stroke="#000000" points="186.074,-1477.1729 179.9205,-1468.5482 179.3525,-1479.1278 186.074,-1477.1729"/>
</g>
<!-- 10834 -->
<g id="node30" class="node">
<title>10834</title>
<ellipse fill="none" stroke="#000000" cx="356.7042" cy="-1386.0169" rx="32.4942" ry="18"/>
<text text-anchor="middle" x="356.7042" y="-1382.3169" font-family="Times,serif" font-size="14.00" fill="#000000">10834</text>
</g>
<!-- 5692&#45;&gt;10834 -->
<g id="edge10" class="edge">
<title>5692&#45;&gt;10834</title>
<path fill="none" stroke="#000000" d="M221.5548,-1550.4341C247.5886,-1518.7624 305.8027,-1447.9416 336.6425,-1410.4231"/>
<polygon fill="#000000" stroke="#000000" points="339.498,-1412.461 343.1442,-1402.5133 334.0904,-1408.016 339.498,-1412.461"/>
</g>
<!-- 11008 -->
<g id="node31" class="node">
<title>11008</title>
<ellipse fill="none" stroke="#000000" cx="196.0223" cy="-1740.1282" rx="32.4942" ry="18"/>
<text text-anchor="middle" x="196.0223" y="-1736.4282" font-family="Times,serif" font-size="14.00" fill="#000000">11008</text>
</g>
<!-- 5692&#45;&gt;11008 -->
<g id="edge11" class="edge">
<title>5692&#45;&gt;11008</title>
<path fill="none" stroke="#000000" d="M207.0926,-1584.7048C204.9338,-1615.0136 200.5954,-1675.9231 198.0376,-1711.8336"/>
<polygon fill="#000000" stroke="#000000" points="194.5248,-1711.8907 197.3054,-1722.1141 201.5071,-1712.3881 194.5248,-1711.8907"/>
</g>
<!-- 27865 -->
<g id="node35" class="node">
<title>27865</title>
<ellipse fill="none" stroke="#000000" cx="321.7416" cy="-1670.6744" rx="32.4942" ry="18"/>
<text text-anchor="middle" x="321.7416" y="-1666.9744" font-family="Times,serif" font-size="14.00" fill="#000000">27865</text>
</g>
<!-- 5692&#45;&gt;27865 -->
<g id="edge12" class="edge">
<title>5692&#45;&gt;27865</title>
<path fill="none" stroke="#000000" d="M224.6332,-1581.3794C243.6059,-1598.8256 275.1933,-1627.8714 297.1705,-1648.0803"/>
<polygon fill="#000000" stroke="#000000" points="295.0612,-1650.8956 304.7913,-1655.088 299.7994,-1645.7429 295.0612,-1650.8956"/>
</g>
<!-- 28065 -->
<g id="node36" class="node">
<title>28065</title>
<ellipse fill="none" stroke="#000000" cx="127.4055" cy="-1594.5768" rx="32.4942" ry="18"/>
<text text-anchor="middle" x="127.4055" y="-1590.8768" font-family="Times,serif" font-size="14.00" fill="#000000">28065</text>
</g>
<!-- 5692&#45;&gt;28065 -->
<g id="edge13" class="edge">
<title>5692&#45;&gt;28065</title>
<path fill="none" stroke="#000000" d="M183.2121,-1575.1926C177.3614,-1577.2248 171.0106,-1579.4307 164.7601,-1581.6018"/>
<polygon fill="#000000" stroke="#000000" points="163.4048,-1578.3674 155.1069,-1584.9548 165.7017,-1584.9798 163.4048,-1578.3674"/>
</g>
<!-- 52317 -->
<g id="node38" class="node">
<title>52317</title>
<ellipse fill="none" stroke="#000000" cx="279.6704" cy="-1716.6458" rx="32.4942" ry="18"/>
<text text-anchor="middle" x="279.6704" y="-1712.9458" font-family="Times,serif" font-size="14.00" fill="#000000">52317</text>
</g>
<!-- 5692&#45;&gt;52317 -->
<g id="edge14" class="edge">
<title>5692&#45;&gt;52317</title>
<path fill="none" stroke="#000000" d="M216.709,-1583.9698C229.1022,-1610.0854 252.5119,-1659.4157 267.0311,-1690.0115"/>
<polygon fill="#000000" stroke="#000000" points="263.9582,-1691.6999 271.4075,-1699.2337 270.2822,-1688.6988 263.9582,-1691.6999"/>
</g>
<!-- 52375 -->
<g id="node39" class="node">
<title>52375</title>
<ellipse fill="none" stroke="#000000" cx="80.6101" cy="-1668.9944" rx="32.4942" ry="18"/>
<text text-anchor="middle" x="80.6101" y="-1665.2944" font-family="Times,serif" font-size="14.00" fill="#000000">52375</text>
</g>
<!-- 5692&#45;&gt;52375 -->
<g id="edge15" class="edge">
<title>5692&#45;&gt;52375</title>
<path fill="none" stroke="#000000" d="M190.6255,-1580.7049C169.0613,-1598.0106 132.4873,-1627.3619 107.4745,-1647.4352"/>
<polygon fill="#000000" stroke="#000000" points="105.082,-1644.8675 99.4735,-1653.8561 109.4633,-1650.3268 105.082,-1644.8675"/>
</g>
<!-- 52376 -->
<g id="node40" class="node">
<title>52376</title>
<ellipse fill="none" stroke="#000000" cx="56.5859" cy="-1543.4558" rx="32.4942" ry="18"/>
<text text-anchor="middle" x="56.5859" y="-1539.7558" font-family="Times,serif" font-size="14.00" fill="#000000">52376</text>
</g>
<!-- 5692&#45;&gt;52376 -->
<g id="edge16" class="edge">
<title>5692&#45;&gt;52376</title>
<path fill="none" stroke="#000000" d="M180.5493,-1562.2293C157.5018,-1558.7389 124.4115,-1553.7275 98.2154,-1549.7603"/>
<polygon fill="#000000" stroke="#000000" points="98.5987,-1546.2785 88.1874,-1548.2416 97.5505,-1553.1996 98.5987,-1546.2785"/>
</g>
<!-- 52380 -->
<g id="node41" class="node">
<title>52380</title>
<ellipse fill="none" stroke="#000000" cx="119.2126" cy="-1713.9646" rx="32.4942" ry="18"/>
<text text-anchor="middle" x="119.2126" y="-1710.2646" font-family="Times,serif" font-size="14.00" fill="#000000">52380</text>
</g>
<!-- 5692&#45;&gt;52380 -->
<g id="edge17" class="edge">
<title>5692&#45;&gt;52380</title>
<path fill="none" stroke="#000000" d="M198.163,-1583.3683C182.656,-1609.0192 153.0817,-1657.9398 134.8604,-1688.0807"/>
<polygon fill="#000000" stroke="#000000" points="131.7764,-1686.4168 129.5981,-1696.7853 137.7668,-1690.0383 131.7764,-1686.4168"/>
</g>
<!-- 52413 -->
<g id="node42" class="node">
<title>52413</title>
<ellipse fill="none" stroke="#000000" cx="343.1118" cy="-1601.8378" rx="32.4942" ry="18"/>
<text text-anchor="middle" x="343.1118" y="-1598.1378" font-family="Times,serif" font-size="14.00" fill="#000000">52413</text>
</g>
<!-- 5692&#45;&gt;52413 -->
<g id="edge18" class="edge">
<title>5692&#45;&gt;52413</title>
<path fill="none" stroke="#000000" d="M235.0092,-1573.4383C254.6925,-1578.6093 281.8106,-1585.7334 303.9615,-1591.5527"/>
<polygon fill="#000000" stroke="#000000" points="303.1837,-1594.967 313.7448,-1594.1228 304.9624,-1588.1967 303.1837,-1594.967"/>
</g>
<!-- 52431 -->
<g id="node43" class="node">
<title>52431</title>
<ellipse fill="none" stroke="#000000" cx="93.4356" cy="-1483.3473" rx="32.4942" ry="18"/>
<text text-anchor="middle" x="93.4356" y="-1479.6473" font-family="Times,serif" font-size="14.00" fill="#000000">52431</text>
</g>
<!-- 5692&#45;&gt;52431 -->
<g id="edge19" class="edge">
<title>5692&#45;&gt;52431</title>
<path fill="none" stroke="#000000" d="M189.4102,-1552.724C170.9139,-1539.3536 142.5748,-1518.8683 121.4799,-1503.6195"/>
<polygon fill="#000000" stroke="#000000" points="123.3727,-1500.6691 113.218,-1497.6472 119.2719,-1506.3421 123.3727,-1500.6691"/>
</g>
<!-- 262230 -->
<g id="node44" class="node">
<title>262230</title>
<ellipse fill="none" stroke="#000000" cx="196.9676" cy="-1671.4159" rx="37.0935" ry="18"/>
<text text-anchor="middle" x="196.9676" y="-1667.7159" font-family="Times,serif" font-size="14.00" fill="#000000">262230</text>
</g>
<!-- 5692&#45;&gt;262230 -->
<g id="edge20" class="edge">
<title>5692&#45;&gt;262230</title>
<path fill="none" stroke="#000000" d="M206.403,-1584.7304C204.6417,-1600.9112 202.0444,-1624.7736 200.0205,-1643.3679"/>
<polygon fill="#000000" stroke="#000000" points="196.5376,-1643.021 198.9349,-1653.3411 203.4965,-1643.7785 196.5376,-1643.021"/>
</g>
<!-- 264608 -->
<g id="node45" class="node">
<title>264608</title>
<ellipse fill="none" stroke="#000000" cx="37.403" cy="-1613.2923" rx="37.0935" ry="18"/>
<text text-anchor="middle" x="37.403" y="-1609.5923" font-family="Times,serif" font-size="14.00" fill="#000000">264608</text>
</g>
<!-- 5692&#45;&gt;264608 -->
<g id="edge21" class="edge">
<title>5692&#45;&gt;264608</title>
<path fill="none" stroke="#000000" d="M182.0507,-1573.6631C154.8315,-1581.1203 111.9226,-1592.8761 79.8972,-1601.6501"/>
<polygon fill="#000000" stroke="#000000" points="78.6352,-1598.3668 69.9154,-1604.3848 80.4849,-1605.118 78.6352,-1598.3668"/>
</g>
<!-- 6453&#45;&gt;174 -->
<g id="edge22" class="edge">
<title>6453&#45;&gt;174</title>
<path fill="none" stroke="#000000" d="M505.6976,-183.3579C484.2282,-185.7431 454.5328,-189.0422 431.1683,-191.638"/>
<polygon fill="#000000" stroke="#000000" points="430.4834,-188.1924 420.9311,-192.7753 431.2564,-195.1496 430.4834,-188.1924"/>
</g>
<!-- 6453&#45;&gt;209 -->
<g id="edge23" class="edge">
<title>6453&#45;&gt;209</title>
<path fill="none" stroke="#000000" d="M513.5102,-193.0005C494.8956,-204.6098 467.258,-221.8465 446.4647,-234.8146"/>
<polygon fill="#000000" stroke="#000000" points="444.3676,-231.9976 437.7347,-240.2593 448.0719,-237.9372 444.3676,-231.9976"/>
</g>
<!-- 6453&#45;&gt;701 -->
<g id="edge24" class="edge">
<title>6453&#45;&gt;701</title>
<path fill="none" stroke="#000000" d="M542.8856,-162.8561C556.1043,-136.991 581.0733,-88.1339 596.5596,-57.8317"/>
<polygon fill="#000000" stroke="#000000" points="599.7932,-59.1953 601.2275,-48.698 593.5601,-56.0097 599.7932,-59.1953"/>
</g>
<!-- 6453&#45;&gt;1239 -->
<g id="edge25" class="edge">
<title>6453&#45;&gt;1239</title>
<path fill="none" stroke="#000000" d="M552.1988,-194.3046C569.3685,-207.612 595.3148,-227.7219 614.7702,-242.8009"/>
<polygon fill="#000000" stroke="#000000" points="612.8834,-245.7667 622.9315,-249.1263 617.1716,-240.2339 612.8834,-245.7667"/>
</g>
<!-- 6453&#45;&gt;1273 -->
<g id="edge26" class="edge">
<title>6453&#45;&gt;1273</title>
<path fill="none" stroke="#000000" d="M507.9546,-172.3435C485.8056,-165.6564 453.7952,-155.9921 429.29,-148.5936"/>
<polygon fill="#000000" stroke="#000000" points="430.2188,-145.218 419.634,-145.6783 428.1955,-151.9193 430.2188,-145.218"/>
</g>
<!-- 6453&#45;&gt;1299 -->
<g id="edge27" class="edge">
<title>6453&#45;&gt;1299</title>
<path fill="none" stroke="#000000" d="M516.9363,-165.5522C509.9747,-159.5771 501.7842,-152.5471 494.1627,-146.0055"/>
<polygon fill="#000000" stroke="#000000" points="496.0688,-143.0291 486.201,-139.1719 491.5097,-148.3408 496.0688,-143.0291"/>
</g>
<!-- 6453&#45;&gt;2497 -->
<g id="edge28" class="edge">
<title>6453&#45;&gt;2497</title>
<path fill="none" stroke="#000000" d="M525.8499,-197.5963C516.5334,-217.43 501.1914,-250.0917 490.3654,-273.1393"/>
<polygon fill="#000000" stroke="#000000" points="487.1165,-271.8235 486.0328,-282.3628 493.4524,-274.7997 487.1165,-271.8235"/>
</g>
<!-- 6453&#45;&gt;2828 -->
<g id="edge29" class="edge">
<title>6453&#45;&gt;2828</title>
<path fill="none" stroke="#000000" d="M514.7656,-166.6632C490.6121,-149.6635 449.0122,-120.3848 421.3659,-100.9268"/>
<polygon fill="#000000" stroke="#000000" points="423.1121,-97.8758 412.92,-94.9824 419.0831,-103.6002 423.1121,-97.8758"/>
</g>
<!-- 6453&#45;&gt;3257 -->
<g id="edge30" class="edge">
<title>6453&#45;&gt;3257</title>
<path fill="none" stroke="#000000" d="M560.0046,-172.4596C582.8231,-165.653 616.2392,-155.6854 641.6114,-148.1171"/>
<polygon fill="#000000" stroke="#000000" points="642.6643,-151.4555 651.2466,-145.243 640.6634,-144.7475 642.6643,-151.4555"/>
</g>
<!-- 6453&#45;&gt;3320 -->
<g id="edge31" class="edge">
<title>6453&#45;&gt;3320</title>
<path fill="none" stroke="#000000" d="M533.9482,-161.9398C533.8442,-133.8595 533.6442,-79.8678 533.5211,-46.6359"/>
<polygon fill="#000000" stroke="#000000" points="537.0212,-46.622 533.4841,-36.635 530.0212,-46.648 537.0212,-46.622"/>
</g>
<!-- 6453&#45;&gt;3491 -->
<g id="edge32" class="edge">
<title>6453&#45;&gt;3491</title>
<path fill="none" stroke="#000000" d="M526.061,-162.8997C514.6729,-138.1159 493.6262,-92.312 480.2634,-63.2305"/>
<polygon fill="#000000" stroke="#000000" points="483.4069,-61.6889 476.0512,-54.0636 477.0462,-64.6117 483.4069,-61.6889"/>
</g>
<!-- 6453&#45;&gt;5511 -->
<g id="edge33" class="edge">
<title>6453&#45;&gt;5511</title>
<path fill="none" stroke="#000000" d="M562.4783,-182.2622C585.3793,-183.9121 617.7895,-186.2469 643.0285,-188.0652"/>
<polygon fill="#000000" stroke="#000000" points="642.7829,-191.5564 653.0086,-188.7841 643.2859,-184.5745 642.7829,-191.5564"/>
</g>
<!-- 6461 -->
<g id="node22" class="node">
<title>6461</title>
<ellipse fill="none" stroke="#000000" cx="543.4379" cy="-75.2115" rx="28.6953" ry="18"/>
<text text-anchor="middle" x="543.4379" y="-71.5115" font-family="Times,serif" font-size="14.00" fill="#000000">6461</text>
</g>
<!-- 6453&#45;&gt;6461 -->
<g id="edge34" class="edge">
<title>6453&#45;&gt;6461</title>
<path fill="none" stroke="#000000" d="M535.657,-161.9221C537.1094,-145.7366 539.2513,-121.8673 540.9204,-103.2676"/>
<polygon fill="#000000" stroke="#000000" points="544.4077,-103.5644 541.8155,-93.2916 537.4357,-102.9387 544.4077,-103.5644"/>
</g>
<!-- 7018 -->
<g id="node26" class="node">
<title>7018</title>
<ellipse fill="none" stroke="#000000" cx="650.1724" cy="-78.3677" rx="28.6953" ry="18"/>
<text text-anchor="middle" x="650.1724" y="-74.6677" font-family="Times,serif" font-size="14.00" fill="#000000">7018</text>
</g>
<!-- 6453&#45;&gt;7018 -->
<g id="edge35" class="edge">
<title>6453&#45;&gt;7018</title>
<path fill="none" stroke="#000000" d="M551.1551,-165.1843C570.8268,-147.9365 603.2479,-119.5103 625.6023,-99.9103"/>
<polygon fill="#000000" stroke="#000000" points="628.1287,-102.35 633.3404,-93.1257 623.5139,-97.0866 628.1287,-102.35"/>
</g>
<!-- 6762&#45;&gt;2914 -->
<g id="edge36" class="edge">
<title>6762&#45;&gt;2914</title>
<path fill="none" stroke="#000000" d="M659.32,-604.7097C649.3159,-568.4916 626.6885,-486.5727 614.7989,-443.5284"/>
<polygon fill="#000000" stroke="#000000" points="618.1262,-442.4286 612.09,-433.7214 611.3789,-444.2924 618.1262,-442.4286"/>
</g>
<!-- 6904 -->
<g id="node24" class="node">
<title>6904</title>
<ellipse fill="none" stroke="#000000" cx="1106.0672" cy="-866.2105" rx="28.6953" ry="18"/>
<text text-anchor="middle" x="1106.0672" y="-862.5105" font-family="Times,serif" font-size="14.00" fill="#000000">6904</text>
</g>
<!-- 6904&#45;&gt;2687 -->
<g id="edge37" class="edge">
<title>6904&#45;&gt;2687</title>
<path fill="none" stroke="#000000" d="M1134.917,-865.9148C1164.6352,-865.6102 1211.1455,-865.1334 1244.1397,-864.7952"/>
<polygon fill="#000000" stroke="#000000" points="1244.3752,-868.293 1254.3387,-864.6906 1244.3033,-861.2934 1244.3752,-868.293"/>
</g>
<!-- 7016 -->
<g id="node25" class="node">
<title>7016</title>
<ellipse fill="none" stroke="#000000" cx="1030.4813" cy="-984.4873" rx="28.6953" ry="18"/>
<text text-anchor="middle" x="1030.4813" y="-980.7873" font-family="Times,serif" font-size="14.00" fill="#000000">7016</text>
</g>
<!-- 7922 -->
<g id="node28" class="node">
<title>7922</title>
<ellipse fill="none" stroke="#000000" cx="1117.9696" cy="-1079.6831" rx="28.6953" ry="18"/>
<text text-anchor="middle" x="1117.9696" y="-1075.9831" font-family="Times,serif" font-size="14.00" fill="#000000">7922</text>
</g>
<!-- 7016&#45;&gt;7922 -->
<g id="edge38" class="edge">
<title>7016&#45;&gt;7922</title>
<path fill="none" stroke="#000000" d="M1044.9282,-1000.2069C1058.9854,-1015.5026 1080.513,-1038.9267 1096.5603,-1056.3877"/>
<polygon fill="#000000" stroke="#000000" points="1094.1574,-1058.9456 1103.5012,-1063.9401 1099.3114,-1054.2088 1094.1574,-1058.9456"/>
</g>
<!-- 12956 -->
<g id="node32" class="node">
<title>12956</title>
<ellipse fill="none" stroke="#000000" cx="490.7151" cy="-1184.8816" rx="32.4942" ry="18"/>
<text text-anchor="middle" x="490.7151" y="-1181.1816" font-family="Times,serif" font-size="14.00" fill="#000000">12956</text>
</g>
<!-- 10834&#45;&gt;12956 -->
<g id="edge39" class="edge">
<title>10834&#45;&gt;12956</title>
<path fill="none" stroke="#000000" d="M368.1299,-1368.8682C391.7175,-1333.4657 445.9093,-1252.13 473.6594,-1210.4802"/>
<polygon fill="#000000" stroke="#000000" points="476.6862,-1212.2496 479.3183,-1201.9869 470.8608,-1208.3682 476.6862,-1212.2496"/>
</g>
<!-- 22927 -->
<g id="node34" class="node">
<title>22927</title>
<ellipse fill="none" stroke="#000000" cx="480.4038" cy="-1440.7918" rx="32.4942" ry="18"/>
<text text-anchor="middle" x="480.4038" y="-1437.0918" font-family="Times,serif" font-size="14.00" fill="#000000">22927</text>
</g>
<!-- 10834&#45;&gt;22927 -->
<g id="edge40" class="edge">
<title>10834&#45;&gt;22927</title>
<path fill="none" stroke="#000000" d="M382.3348,-1397.3663C400.6622,-1405.4817 425.5408,-1416.4981 445.6536,-1425.4042"/>
<polygon fill="#000000" stroke="#000000" points="444.2452,-1428.6083 454.806,-1429.4569 447.0794,-1422.2077 444.2452,-1428.6083"/>
</g>
<!-- 12956&#45;&gt;3356 -->
<g id="edge41" class="edge">
<title>12956&#45;&gt;3356</title>
<path fill="none" stroke="#000000" d="M502.0283,-1167.721C522.1635,-1137.1786 564.2992,-1073.2644 587.7389,-1037.7095"/>
<polygon fill="#000000" stroke="#000000" points="590.6886,-1039.5941 593.2706,-1029.3187 584.8443,-1035.7412 590.6886,-1039.5941"/>
</g>
<!-- 18540 -->
<g id="node33" class="node">
<title>18540</title>
<ellipse fill="none" stroke="#000000" cx="929.1056" cy="-1009.5167" rx="32.4942" ry="18"/>
<text text-anchor="middle" x="929.1056" y="-1005.8167" font-family="Times,serif" font-size="14.00" fill="#000000">18540</text>
</g>
<!-- 30070&#45;&gt;6904 -->
<g id="edge42" class="edge">
<title>30070&#45;&gt;6904</title>
<path fill="none" stroke="#000000" d="M941.4325,-876.3072C975.8822,-874.1945 1030.2366,-870.861 1066.9777,-868.6078"/>
<polygon fill="#000000" stroke="#000000" points="1067.5402,-872.08 1077.3072,-867.9743 1067.1117,-865.0931 1067.5402,-872.08"/>
</g>
<!-- 30070&#45;&gt;7016 -->
<g id="edge43" class="edge">
<title>30070&#45;&gt;7016</title>
<path fill="none" stroke="#000000" d="M926.2933,-893.5176C947.1818,-911.756 982.3222,-942.4381 1005.948,-963.0666"/>
<polygon fill="#000000" stroke="#000000" points="1003.6469,-965.7038 1013.4817,-969.6444 1008.2509,-960.4308 1003.6469,-965.7038"/>
</g>
<!-- 30070&#45;&gt;18540 -->
<g id="edge44" class="edge">
<title>30070&#45;&gt;18540</title>
<path fill="none" stroke="#000000" d="M911.6406,-896.2736C915.0275,-918.2345 920.7973,-955.6461 924.7727,-981.4225"/>
<polygon fill="#000000" stroke="#000000" points="921.3193,-981.9936 926.3028,-991.3433 928.2375,-980.9266 921.3193,-981.9936"/>
</g>
</g>
</svg>
