<?xml version="1.0" encoding="UTF-8" standalone="no"?>
<!DOCTYPE svg PUBLIC "-//W3C//DTD SVG 1.1//EN"
 "http://www.w3.org/Graphics/SVG/1.1/DTD/svg11.dtd">
<!-- Generated by graphviz version 2.40.1 (20161225.0304)
 -->
<!-- Title: %3 Pages: 1 -->
<svg width="782pt" height="691pt"
 viewBox="0.00 0.00 781.97 691.27" xmlns="http://www.w3.org/2000/svg" xmlns:xlink="http://www.w3.org/1999/xlink">
<g id="graph0" class="graph" transform="scale(1 1) rotate(0) translate(4 687.266)">
<title>%3</title>
<polygon fill="#ffffff" stroke="transparent" points="-4,4 -4,-687.266 777.9674,-687.266 777.9674,4 -4,4"/>
<!-- 174 -->
<g id="node1" class="node">
<title>174</title>
<ellipse fill="none" stroke="#000000" cx="746.9674" cy="-339.894" rx="27" ry="18"/>
<text text-anchor="middle" x="746.9674" y="-336.194" font-family="Times,serif" font-size="14.00" fill="#000000">174</text>
</g>
<!-- 209 -->
<g id="node2" class="node">
<title>209</title>
<ellipse fill="none" stroke="#000000" cx="734.0149" cy="-407.0975" rx="27" ry="18"/>
<text text-anchor="middle" x="734.0149" y="-403.3975" font-family="Times,serif" font-size="14.00" fill="#000000">209</text>
</g>
<!-- 701 -->
<g id="node3" class="node">
<title>701</title>
<ellipse fill="none" stroke="#000000" cx="708.5782" cy="-470.6353" rx="27" ry="18"/>
<text text-anchor="middle" x="708.5782" y="-466.9353" font-family="Times,serif" font-size="14.00" fill="#000000">701</text>
</g>
<!-- 1239 -->
<g id="node4" class="node">
<title>1239</title>
<ellipse fill="none" stroke="#000000" cx="671.5766" cy="-528.211" rx="28.6953" ry="18"/>
<text text-anchor="middle" x="671.5766" y="-524.511" font-family="Times,serif" font-size="14.00" fill="#000000">1239</text>
</g>
<!-- 1273 -->
<g id="node5" class="node">
<title>1273</title>
<ellipse fill="none" stroke="#000000" cx="624.3473" cy="-577.7436" rx="28.6953" ry="18"/>
<text text-anchor="middle" x="624.3473" y="-574.0436" font-family="Times,serif" font-size="14.00" fill="#000000">1273</text>
</g>
<!-- 1299 -->
<g id="node6" class="node">
<title>1299</title>
<ellipse fill="none" stroke="#000000" cx="568.5975" cy="-617.4429" rx="28.6953" ry="18"/>
<text text-anchor="middle" x="568.5975" y="-613.7429" font-family="Times,serif" font-size="14.00" fill="#000000">1299</text>
</g>
<!-- 2497 -->
<g id="node7" class="node">
<title>2497</title>
<ellipse fill="none" stroke="#000000" cx="506.3419" cy="-645.8741" rx="28.6953" ry="18"/>
<text text-anchor="middle" x="506.3419" y="-642.1741" font-family="Times,serif" font-size="14.00" fill="#000000">2497</text>
</g>
<!-- 2516 -->
<g id="node8" class="node">
<title>2516</title>
<ellipse fill="none" stroke="#000000" cx="54.385" cy="-439.4723" rx="28.6953" ry="18"/>
<text text-anchor="middle" x="54.385" y="-435.7723" font-family="Times,serif" font-size="14.00" fill="#000000">2516</text>
</g>
<!-- 2686 -->
<g id="node9" class="node">
<title>2686</title>
<ellipse fill="none" stroke="#000000" cx="35.1031" cy="-373.8042" rx="28.6953" ry="18"/>
<text text-anchor="middle" x="35.1031" y="-370.1042" font-family="Times,serif" font-size="14.00" fill="#000000">2686</text>
</g>
<!-- 2687 -->
<g id="node10" class="node">
<title>2687</title>
<ellipse fill="none" stroke="#000000" cx="101.9015" cy="-333.0499" rx="28.6953" ry="18"/>
<text text-anchor="middle" x="101.9015" y="-329.3499" font-family="Times,serif" font-size="14.00" fill="#000000">2687</text>
</g>
<!-- 2687&#45;&gt;2516 -->
<g id="edge1" class="edge">
<title>2687&#45;&gt;2516</title>
<path fill="none" stroke="#000000" d="M94.0552,-350.6234C86.5236,-367.4919 75.0436,-393.2034 66.3677,-412.6347"/>
<polygon fill="#000000" stroke="#000000" points="63.1242,-411.3145 62.2431,-421.8727 69.516,-414.1685 63.1242,-411.3145"/>
</g>
<!-- 2687&#45;&gt;2686 -->
<g id="edge2" class="edge">
<title>2687&#45;&gt;2686</title>
<path fill="none" stroke="#000000" d="M81.1323,-345.7215C75.9045,-348.9109 70.1927,-352.3958 64.6263,-355.7919"/>
<polygon fill="#000000" stroke="#000000" points="62.8034,-352.8041 56.0896,-361.0002 66.4492,-358.7797 62.8034,-352.8041"/>
</g>
<!-- 7473 -->
<g id="node27" class="node">
<title>7473</title>
<ellipse fill="none" stroke="#000000" cx="28.5975" cy="-305.6738" rx="28.6953" ry="18"/>
<text text-anchor="middle" x="28.5975" y="-301.9738" font-family="Times,serif" font-size="14.00" fill="#000000">7473</text>
</g>
<!-- 2687&#45;&gt;7473 -->
<g id="edge3" class="edge">
<title>2687&#45;&gt;7473</title>
<path fill="none" stroke="#000000" d="M77.0841,-323.7816C72.5464,-322.087 67.7376,-320.291 62.9799,-318.5143"/>
<polygon fill="#000000" stroke="#000000" points="63.9819,-315.1524 53.3893,-314.9326 61.5328,-321.71 63.9819,-315.1524"/>
</g>
<!-- 9505 -->
<g id="node29" class="node">
<title>9505</title>
<ellipse fill="none" stroke="#000000" cx="35.1031" cy="-237.5433" rx="28.6953" ry="18"/>
<text text-anchor="middle" x="35.1031" y="-233.8433" font-family="Times,serif" font-size="14.00" fill="#000000">9505</text>
</g>
<!-- 2687&#45;&gt;9505 -->
<g id="edge4" class="edge">
<title>2687&#45;&gt;9505</title>
<path fill="none" stroke="#000000" d="M90.2662,-316.414C79.8893,-301.5774 64.548,-279.6429 52.6764,-262.6692"/>
<polygon fill="#000000" stroke="#000000" points="55.4289,-260.4977 46.8293,-254.3091 49.6926,-264.5097 55.4289,-260.4977"/>
</g>
<!-- 2828 -->
<g id="node11" class="node">
<title>2828</title>
<ellipse fill="none" stroke="#000000" cx="439.8308" cy="-662.0095" rx="28.6953" ry="18"/>
<text text-anchor="middle" x="439.8308" y="-658.3095" font-family="Times,serif" font-size="14.00" fill="#000000">2828</text>
</g>
<!-- 2914 -->
<g id="node12" class="node">
<title>2914</title>
<ellipse fill="none" stroke="#000000" cx="439.5214" cy="-515.5851" rx="28.6953" ry="18"/>
<text text-anchor="middle" x="439.5214" y="-511.8851" font-family="Times,serif" font-size="14.00" fill="#000000">2914</text>
</g>
<!-- 6453 -->
<g id="node21" class="node">
<title>6453</title>
<ellipse fill="none" stroke="#000000" cx="456.496" cy="-585.5555" rx="28.6953" ry="18"/>
<text text-anchor="middle" x="456.496" y="-581.8555" font-family="Times,serif" font-size="14.00" fill="#000000">6453</text>
</g>
<!-- 2914&#45;&gt;6453 -->
<g id="edge5" class="edge">
<title>2914&#45;&gt;6453</title>
<path fill="none" stroke="#000000" d="M443.8928,-533.6042C445.661,-540.8927 447.7436,-549.4775 449.7011,-557.5462"/>
<polygon fill="#000000" stroke="#000000" points="446.3215,-558.4613 452.0805,-567.3543 453.1241,-556.811 446.3215,-558.4613"/>
</g>
<!-- 3257 -->
<g id="node13" class="node">
<title>3257</title>
<ellipse fill="none" stroke="#000000" cx="371.468" cy="-665.266" rx="28.6953" ry="18"/>
<text text-anchor="middle" x="371.468" y="-661.566" font-family="Times,serif" font-size="14.00" fill="#000000">3257</text>
</g>
<!-- 3320 -->
<g id="node14" class="node">
<title>3320</title>
<ellipse fill="none" stroke="#000000" cx="303.7242" cy="-655.526" rx="28.6953" ry="18"/>
<text text-anchor="middle" x="303.7242" y="-651.826" font-family="Times,serif" font-size="14.00" fill="#000000">3320</text>
</g>
<!-- 3356 -->
<g id="node15" class="node">
<title>3356</title>
<ellipse fill="none" stroke="#000000" cx="388.5975" cy="-305.6738" rx="28.6953" ry="18"/>
<text text-anchor="middle" x="388.5975" y="-301.9738" font-family="Times,serif" font-size="14.00" fill="#000000">3356</text>
</g>
<!-- 3549 -->
<g id="node17" class="node">
<title>3549</title>
<ellipse fill="none" stroke="#000000" cx="365.0486" cy="-373.7139" rx="28.6953" ry="18"/>
<text text-anchor="middle" x="365.0486" y="-370.0139" font-family="Times,serif" font-size="14.00" fill="#000000">3549</text>
</g>
<!-- 3356&#45;&gt;3549 -->
<g id="edge6" class="edge">
<title>3356&#45;&gt;3549</title>
<path fill="none" stroke="#000000" d="M382.4103,-323.5505C380.0225,-330.4494 377.2357,-338.5014 374.6026,-346.1092"/>
<polygon fill="#000000" stroke="#000000" points="371.2394,-345.1255 371.2762,-355.7203 377.8545,-347.415 371.2394,-345.1255"/>
</g>
<!-- 3491 -->
<g id="node16" class="node">
<title>3491</title>
<ellipse fill="none" stroke="#000000" cx="239.0481" cy="-633.1413" rx="28.6953" ry="18"/>
<text text-anchor="middle" x="239.0481" y="-629.4413" font-family="Times,serif" font-size="14.00" fill="#000000">3491</text>
</g>
<!-- 6762 -->
<g id="node23" class="node">
<title>6762</title>
<ellipse fill="none" stroke="#000000" cx="422.5467" cy="-445.6147" rx="28.6953" ry="18"/>
<text text-anchor="middle" x="422.5467" y="-441.9147" font-family="Times,serif" font-size="14.00" fill="#000000">6762</text>
</g>
<!-- 3549&#45;&gt;6762 -->
<g id="edge7" class="edge">
<title>3549&#45;&gt;6762</title>
<path fill="none" stroke="#000000" d="M378.0958,-390.0293C385.5208,-399.3142 394.9615,-411.1197 403.2311,-421.4607"/>
<polygon fill="#000000" stroke="#000000" points="400.5722,-423.7398 409.5512,-429.3638 406.0391,-419.368 400.5722,-423.7398"/>
</g>
<!-- 30070 -->
<g id="node37" class="node">
<title>30070</title>
<ellipse fill="none" stroke="#000000" cx="245.2495" cy="-291.9857" rx="32.4942" ry="18"/>
<text text-anchor="middle" x="245.2495" y="-288.2857" font-family="Times,serif" font-size="14.00" fill="#000000">30070</text>
</g>
<!-- 3549&#45;&gt;30070 -->
<g id="edge8" class="edge">
<title>3549&#45;&gt;30070</title>
<path fill="none" stroke="#000000" d="M345.5342,-360.4009C326.2186,-347.2237 296.4159,-326.8919 274.314,-311.8138"/>
<polygon fill="#000000" stroke="#000000" points="276.1953,-308.8603 265.962,-306.116 272.2503,-314.6429 276.1953,-308.8603"/>
</g>
<!-- 3597 -->
<g id="node18" class="node">
<title>3597</title>
<ellipse fill="none" stroke="#000000" cx="221.5411" cy="-71.0759" rx="28.6953" ry="18"/>
<text text-anchor="middle" x="221.5411" y="-67.3759" font-family="Times,serif" font-size="14.00" fill="#000000">3597</text>
</g>
<!-- 5511 -->
<g id="node19" class="node">
<title>5511</title>
<ellipse fill="none" stroke="#000000" cx="179.777" cy="-598.9211" rx="28.6953" ry="18"/>
<text text-anchor="middle" x="179.777" y="-595.2211" font-family="Times,serif" font-size="14.00" fill="#000000">5511</text>
</g>
<!-- 5692 -->
<g id="node20" class="node">
<title>5692</title>
<ellipse fill="none" stroke="#000000" cx="478.3271" cy="-109.1933" rx="28.6953" ry="18"/>
<text text-anchor="middle" x="478.3271" y="-105.4933" font-family="Times,serif" font-size="14.00" fill="#000000">5692</text>
</g>
<!-- 5692&#45;&gt;3597 -->
<g id="edge9" class="edge">
<title>5692&#45;&gt;3597</title>
<path fill="none" stroke="#000000" d="M450.3577,-105.0415C404.1463,-98.1819 311.7909,-84.4726 259.6514,-76.733"/>
<polygon fill="#000000" stroke="#000000" points="259.8816,-73.2289 249.476,-75.2226 258.8537,-80.153 259.8816,-73.2289"/>
</g>
<!-- 10834 -->
<g id="node30" class="node">
<title>10834</title>
<ellipse fill="none" stroke="#000000" cx="435.6952" cy="-169.5937" rx="32.4942" ry="18"/>
<text text-anchor="middle" x="435.6952" y="-165.8937" font-family="Times,serif" font-size="14.00" fill="#000000">10834</text>
</g>
<!-- 5692&#45;&gt;10834 -->
<g id="edge10" class="edge">
<title>5692&#45;&gt;10834</title>
<path fill="none" stroke="#000000" d="M466.6778,-125.698C462.61,-131.4612 457.9463,-138.0686 453.4933,-144.3776"/>
<polygon fill="#000000" stroke="#000000" points="450.5343,-142.5003 447.6273,-152.6885 456.2533,-146.5368 450.5343,-142.5003"/>
</g>
<!-- 11008 -->
<g id="node31" class="node">
<title>11008</title>
<ellipse fill="none" stroke="#000000" cx="268.9579" cy="-43.6998" rx="32.4942" ry="18"/>
<text text-anchor="middle" x="268.9579" y="-39.9998" font-family="Times,serif" font-size="14.00" fill="#000000">11008</text>
</g>
<!-- 5692&#45;&gt;11008 -->
<g id="edge11" class="edge">
<title>5692&#45;&gt;11008</title>
<path fill="none" stroke="#000000" d="M452.6543,-101.1625C416.2618,-89.7784 349.4117,-68.8668 307.1764,-55.655"/>
<polygon fill="#000000" stroke="#000000" points="308.1104,-52.28 297.5215,-52.6348 306.0205,-58.9608 308.1104,-52.28"/>
</g>
<!-- 27865 -->
<g id="node35" class="node">
<title>27865</title>
<ellipse fill="none" stroke="#000000" cx="320.6989" cy="-25.7921" rx="32.4942" ry="18"/>
<text text-anchor="middle" x="320.6989" y="-22.0921" font-family="Times,serif" font-size="14.00" fill="#000000">27865</text>
</g>
<!-- 5692&#45;&gt;27865 -->
<g id="edge12" class="edge">
<title>5692&#45;&gt;27865</title>
<path fill="none" stroke="#000000" d="M456.4096,-97.5967C429.6542,-83.4404 384.1674,-59.3733 353.3011,-43.0419"/>
<polygon fill="#000000" stroke="#000000" points="354.7041,-39.8246 344.2282,-38.2415 351.4304,-46.0119 354.7041,-39.8246"/>
</g>
<!-- 28065 -->
<g id="node36" class="node">
<title>28065</title>
<ellipse fill="none" stroke="#000000" cx="374.8939" cy="-18" rx="32.4942" ry="18"/>
<text text-anchor="middle" x="374.8939" y="-14.3" font-family="Times,serif" font-size="14.00" fill="#000000">28065</text>
</g>
<!-- 5692&#45;&gt;28065 -->
<g id="edge13" class="edge">
<title>5692&#45;&gt;28065</title>
<path fill="none" stroke="#000000" d="M461.7088,-94.5415C445.1195,-79.9154 419.4075,-57.246 400.2653,-40.369"/>
<polygon fill="#000000" stroke="#000000" points="402.3251,-37.519 392.5095,-33.531 397.6958,-42.7697 402.3251,-37.519"/>
</g>
<!-- 52317 -->
<g id="node38" class="node">
<title>52317</title>
<ellipse fill="none" stroke="#000000" cx="429.5841" cy="-20.6052" rx="32.4942" ry="18"/>
<text text-anchor="middle" x="429.5841" y="-16.9052" font-family="Times,serif" font-size="14.00" fill="#000000">52317</text>
</g>
<!-- 5692&#45;&gt;52317 -->
<g id="edge14" class="edge">
<title>5692&#45;&gt;52317</title>
<path fill="none" stroke="#000000" d="M468.929,-92.1126C461.894,-79.3269 452.1414,-61.6021 444.1062,-46.9984"/>
<polygon fill="#000000" stroke="#000000" points="447.0069,-45.0098 439.1197,-37.9357 440.874,-48.3843 447.0069,-45.0098"/>
</g>
<!-- 52375 -->
<g id="node39" class="node">
<title>52375</title>
<ellipse fill="none" stroke="#000000" cx="482.793" cy="-33.5136" rx="32.4942" ry="18"/>
<text text-anchor="middle" x="482.793" y="-29.8136" font-family="Times,serif" font-size="14.00" fill="#000000">52375</text>
</g>
<!-- 5692&#45;&gt;52375 -->
<g id="edge15" class="edge">
<title>5692&#45;&gt;52375</title>
<path fill="none" stroke="#000000" d="M479.4082,-90.8733C479.9238,-82.1352 480.5523,-71.4847 481.1271,-61.7439"/>
<polygon fill="#000000" stroke="#000000" points="484.6267,-61.8536 481.7219,-51.6648 477.6388,-61.4412 484.6267,-61.8536"/>
</g>
<!-- 52376 -->
<g id="node40" class="node">
<title>52376</title>
<ellipse fill="none" stroke="#000000" cx="532.5975" cy="-56.2585" rx="32.4942" ry="18"/>
<text text-anchor="middle" x="532.5975" y="-52.5585" font-family="Times,serif" font-size="14.00" fill="#000000">52376</text>
</g>
<!-- 5692&#45;&gt;52376 -->
<g id="edge16" class="edge">
<title>5692&#45;&gt;52376</title>
<path fill="none" stroke="#000000" d="M494.0243,-93.8823C498.7357,-89.2869 504.0102,-84.1422 509.1096,-79.1683"/>
<polygon fill="#000000" stroke="#000000" points="511.6549,-81.5749 516.3697,-72.0869 506.7672,-76.5638 511.6549,-81.5749"/>
</g>
<!-- 52380 -->
<g id="node41" class="node">
<title>52380</title>
<ellipse fill="none" stroke="#000000" cx="577.1974" cy="-88.0179" rx="32.4942" ry="18"/>
<text text-anchor="middle" x="577.1974" y="-84.3179" font-family="Times,serif" font-size="14.00" fill="#000000">52380</text>
</g>
<!-- 5692&#45;&gt;52380 -->
<g id="edge17" class="edge">
<title>5692&#45;&gt;52380</title>
<path fill="none" stroke="#000000" d="M505.6056,-103.351C515.3082,-101.2729 526.4465,-98.8874 537.0021,-96.6267"/>
<polygon fill="#000000" stroke="#000000" points="537.8327,-100.0282 546.8779,-94.5115 536.3667,-93.1835 537.8327,-100.0282"/>
</g>
<!-- 52413 -->
<g id="node42" class="node">
<title>52413</title>
<ellipse fill="none" stroke="#000000" cx="614.9808" cy="-127.644" rx="32.4942" ry="18"/>
<text text-anchor="middle" x="614.9808" y="-123.944" font-family="Times,serif" font-size="14.00" fill="#000000">52413</text>
</g>
<!-- 5692&#45;&gt;52413 -->
<g id="edge18" class="edge">
<title>5692&#45;&gt;52413</title>
<path fill="none" stroke="#000000" d="M506.3108,-112.9716C525.59,-115.5746 551.5455,-119.0791 573.2552,-122.0103"/>
<polygon fill="#000000" stroke="#000000" points="572.8284,-125.4844 583.2069,-123.354 573.7651,-118.5473 572.8284,-125.4844"/>
</g>
<!-- 52431 -->
<g id="node43" class="node">
<title>52431</title>
<ellipse fill="none" stroke="#000000" cx="644.5821" cy="-173.7046" rx="32.4942" ry="18"/>
<text text-anchor="middle" x="644.5821" y="-170.0046" font-family="Times,serif" font-size="14.00" fill="#000000">52431</text>
</g>
<!-- 5692&#45;&gt;52431 -->
<g id="edge19" class="edge">
<title>5692&#45;&gt;52431</title>
<path fill="none" stroke="#000000" d="M502.8586,-118.7121C530.6901,-129.5115 576.3514,-147.2293 608.3026,-159.6272"/>
<polygon fill="#000000" stroke="#000000" points="607.1544,-162.9359 617.7434,-163.2904 609.6867,-156.4099 607.1544,-162.9359"/>
</g>
<!-- 262230 -->
<g id="node44" class="node">
<title>262230</title>
<ellipse fill="none" stroke="#000000" cx="664.9314" cy="-224.5348" rx="37.0935" ry="18"/>
<text text-anchor="middle" x="664.9314" y="-220.8348" font-family="Times,serif" font-size="14.00" fill="#000000">262230</text>
</g>
<!-- 5692&#45;&gt;262230 -->
<g id="edge20" class="edge">
<title>5692&#45;&gt;262230</title>
<path fill="none" stroke="#000000" d="M499.01,-121.9775C531.5142,-142.0687 594.7912,-181.1806 633.117,-204.8701"/>
<polygon fill="#000000" stroke="#000000" points="631.4784,-207.9718 641.8248,-210.2525 635.1588,-202.0175 631.4784,-207.9718"/>
</g>
<!-- 264608 -->
<g id="node45" class="node">
<title>264608</title>
<ellipse fill="none" stroke="#000000" cx="675.2934" cy="-278.2977" rx="37.0935" ry="18"/>
<text text-anchor="middle" x="675.2934" y="-274.5977" font-family="Times,serif" font-size="14.00" fill="#000000">264608</text>
</g>
<!-- 5692&#45;&gt;264608 -->
<g id="edge21" class="edge">
<title>5692&#45;&gt;264608</title>
<path fill="none" stroke="#000000" d="M495.462,-123.9044C530.0337,-153.5857 608.3196,-220.7977 649.2522,-255.9402"/>
<polygon fill="#000000" stroke="#000000" points="647.0494,-258.6619 656.9167,-262.5204 651.6093,-253.3508 647.0494,-258.6619"/>
</g>
<!-- 6453&#45;&gt;174 -->
<g id="edge22" class="edge">
<title>6453&#45;&gt;174</title>
<path fill="none" stroke="#000000" d="M473.7965,-570.924C523.1542,-529.1804 664.782,-409.4009 722.271,-360.7805"/>
<polygon fill="#000000" stroke="#000000" points="724.7461,-363.2711 730.1215,-354.1411 720.2258,-357.9263 724.7461,-363.2711"/>
</g>
<!-- 6453&#45;&gt;209 -->
<g id="edge23" class="edge">
<title>6453&#45;&gt;209</title>
<path fill="none" stroke="#000000" d="M476.9027,-572.4331C525.7551,-541.0186 649.5215,-461.4309 705.6104,-425.363"/>
<polygon fill="#000000" stroke="#000000" points="707.806,-428.1124 714.324,-419.7597 704.0199,-422.2246 707.806,-428.1124"/>
</g>
<!-- 6453&#45;&gt;701 -->
<g id="edge24" class="edge">
<title>6453&#45;&gt;701</title>
<path fill="none" stroke="#000000" d="M479.7595,-574.9501C525.1036,-554.2785 625.3599,-508.5732 676.7893,-485.1274"/>
<polygon fill="#000000" stroke="#000000" points="678.4496,-488.2171 686.0968,-480.8843 675.5459,-481.8478 678.4496,-488.2171"/>
</g>
<!-- 6453&#45;&gt;1239 -->
<g id="edge25" class="edge">
<title>6453&#45;&gt;1239</title>
<path fill="none" stroke="#000000" d="M482.8691,-578.524C521.0852,-568.3349 591.9958,-549.4288 635.17,-537.9177"/>
<polygon fill="#000000" stroke="#000000" points="636.227,-541.2582 644.9878,-535.3001 634.4236,-534.4945 636.227,-541.2582"/>
</g>
<!-- 6453&#45;&gt;1273 -->
<g id="edge26" class="edge">
<title>6453&#45;&gt;1273</title>
<path fill="none" stroke="#000000" d="M485.3507,-584.2126C512.9363,-582.9288 554.734,-580.9835 585.291,-579.5613"/>
<polygon fill="#000000" stroke="#000000" points="585.7624,-583.0433 595.5888,-579.0821 585.4369,-576.0509 585.7624,-583.0433"/>
</g>
<!-- 6453&#45;&gt;1299 -->
<g id="edge27" class="edge">
<title>6453&#45;&gt;1299</title>
<path fill="none" stroke="#000000" d="M482.7788,-593.0317C497.6773,-597.2696 516.5287,-602.6319 532.7659,-607.2506"/>
<polygon fill="#000000" stroke="#000000" points="531.9033,-610.644 542.4793,-610.0136 533.8185,-603.9111 531.9033,-610.644"/>
</g>
<!-- 6453&#45;&gt;2497 -->
<g id="edge28" class="edge">
<title>6453&#45;&gt;2497</title>
<path fill="none" stroke="#000000" d="M469.8538,-601.7198C474.8824,-607.8049 480.7181,-614.8667 486.2279,-621.534"/>
<polygon fill="#000000" stroke="#000000" points="483.8791,-624.1862 492.9473,-629.6652 489.2751,-619.7271 483.8791,-624.1862"/>
</g>
<!-- 6453&#45;&gt;2828 -->
<g id="edge29" class="edge">
<title>6453&#45;&gt;2828</title>
<path fill="none" stroke="#000000" d="M452.5466,-603.6741C450.5749,-612.7194 448.1455,-623.8646 445.9403,-633.9815"/>
<polygon fill="#000000" stroke="#000000" points="442.462,-633.505 443.7519,-644.021 449.3014,-634.9959 442.462,-633.505"/>
</g>
<!-- 6453&#45;&gt;3257 -->
<g id="edge30" class="edge">
<title>6453&#45;&gt;3257</title>
<path fill="none" stroke="#000000" d="M440.5029,-600.5485C427.7577,-612.4966 409.7178,-629.4083 395.2754,-642.9475"/>
<polygon fill="#000000" stroke="#000000" points="392.5803,-640.6766 387.6785,-650.0693 397.3678,-645.7835 392.5803,-640.6766"/>
</g>
<!-- 6453&#45;&gt;3320 -->
<g id="edge31" class="edge">
<title>6453&#45;&gt;3320</title>
<path fill="none" stroke="#000000" d="M433.2933,-596.1825C407.4954,-607.9981 365.6305,-627.1725 336.4961,-640.5163"/>
<polygon fill="#000000" stroke="#000000" points="334.7797,-637.4527 327.1454,-644.7989 337.6946,-643.8169 334.7797,-637.4527"/>
</g>
<!-- 6453&#45;&gt;3491 -->
<g id="edge32" class="edge">
<title>6453&#45;&gt;3491</title>
<path fill="none" stroke="#000000" d="M429.3958,-591.4861C390.7142,-599.9511 319.5488,-615.5247 276.0459,-625.0448"/>
<polygon fill="#000000" stroke="#000000" points="275.168,-621.654 266.1475,-627.2109 276.6646,-628.4922 275.168,-621.654"/>
</g>
<!-- 6453&#45;&gt;5511 -->
<g id="edge33" class="edge">
<title>6453&#45;&gt;5511</title>
<path fill="none" stroke="#000000" d="M427.9245,-586.9355C378.1091,-589.3416 275.3005,-594.3073 218.9063,-597.0312"/>
<polygon fill="#000000" stroke="#000000" points="218.4271,-593.5501 208.6077,-597.5286 218.7649,-600.542 218.4271,-593.5501"/>
</g>
<!-- 6461 -->
<g id="node22" class="node">
<title>6461</title>
<ellipse fill="none" stroke="#000000" cx="128.0532" cy="-554.1022" rx="28.6953" ry="18"/>
<text text-anchor="middle" x="128.0532" y="-550.4022" font-family="Times,serif" font-size="14.00" fill="#000000">6461</text>
</g>
<!-- 6453&#45;&gt;6461 -->
<g id="edge34" class="edge">
<title>6453&#45;&gt;6461</title>
<path fill="none" stroke="#000000" d="M428.2089,-582.8466C369.2764,-577.2029 233.2891,-564.1801 166.4927,-557.7834"/>
<polygon fill="#000000" stroke="#000000" points="166.6769,-554.2851 156.3888,-556.8158 166.0095,-561.2532 166.6769,-554.2851"/>
</g>
<!-- 7018 -->
<g id="node26" class="node">
<title>7018</title>
<ellipse fill="none" stroke="#000000" cx="85.7462" cy="-500.3045" rx="28.6953" ry="18"/>
<text text-anchor="middle" x="85.7462" y="-496.6045" font-family="Times,serif" font-size="14.00" fill="#000000">7018</text>
</g>
<!-- 6453&#45;&gt;7018 -->
<g id="edge35" class="edge">
<title>6453&#45;&gt;7018</title>
<path fill="none" stroke="#000000" d="M429.534,-579.3558C364.2041,-564.3337 197.3424,-525.9652 122.75,-508.8132"/>
<polygon fill="#000000" stroke="#000000" points="123.3873,-505.3685 112.8572,-506.5385 121.8185,-512.1905 123.3873,-505.3685"/>
</g>
<!-- 6762&#45;&gt;2914 -->
<g id="edge36" class="edge">
<title>6762&#45;&gt;2914</title>
<path fill="none" stroke="#000000" d="M426.9181,-463.6338C428.6863,-470.9223 430.769,-479.507 432.7264,-487.5758"/>
<polygon fill="#000000" stroke="#000000" points="429.3468,-488.4909 435.1058,-497.3838 436.1495,-486.8405 429.3468,-488.4909"/>
</g>
<!-- 6904 -->
<g id="node24" class="node">
<title>6904</title>
<ellipse fill="none" stroke="#000000" cx="173.5755" cy="-326.2059" rx="28.6953" ry="18"/>
<text text-anchor="middle" x="173.5755" y="-322.5059" font-family="Times,serif" font-size="14.00" fill="#000000">6904</text>
</g>
<!-- 6904&#45;&gt;2687 -->
<g id="edge37" class="edge">
<title>6904&#45;&gt;2687</title>
<path fill="none" stroke="#000000" d="M145.2481,-328.9108C143.7318,-329.0556 142.1968,-329.2022 140.6545,-329.3495"/>
<polygon fill="#000000" stroke="#000000" points="140.1149,-325.885 130.4929,-330.3198 140.7804,-332.8533 140.1149,-325.885"/>
</g>
<!-- 7016 -->
<g id="node25" class="node">
<title>7016</title>
<ellipse fill="none" stroke="#000000" cx="188.07" cy="-225.3947" rx="28.6953" ry="18"/>
<text text-anchor="middle" x="188.07" y="-221.6947" font-family="Times,serif" font-size="14.00" fill="#000000">7016</text>
</g>
<!-- 7922 -->
<g id="node28" class="node">
<title>7922</title>
<ellipse fill="none" stroke="#000000" cx="121.2275" cy="-198.635" rx="28.6953" ry="18"/>
<text text-anchor="middle" x="121.2275" y="-194.935" font-family="Times,serif" font-size="14.00" fill="#000000">7922</text>
</g>
<!-- 7016&#45;&gt;7922 -->
<g id="edge38" class="edge">
<title>7016&#45;&gt;7922</title>
<path fill="none" stroke="#000000" d="M163.9383,-215.7338C161.0402,-214.5736 158.0409,-213.3729 155.0373,-212.1704"/>
<polygon fill="#000000" stroke="#000000" points="156.1328,-208.839 145.5483,-208.3716 153.5311,-215.3375 156.1328,-208.839"/>
</g>
<!-- 12956 -->
<g id="node32" class="node">
<title>12956</title>
<ellipse fill="none" stroke="#000000" cx="412.1464" cy="-237.6337" rx="32.4942" ry="18"/>
<text text-anchor="middle" x="412.1464" y="-233.9337" font-family="Times,serif" font-size="14.00" fill="#000000">12956</text>
</g>
<!-- 10834&#45;&gt;12956 -->
<g id="edge39" class="edge">
<title>10834&#45;&gt;12956</title>
<path fill="none" stroke="#000000" d="M429.5081,-187.4704C427.1203,-194.3693 424.3335,-202.4213 421.7004,-210.0291"/>
<polygon fill="#000000" stroke="#000000" points="418.3372,-209.0454 418.374,-219.6402 424.9522,-211.3349 418.3372,-209.0454"/>
</g>
<!-- 22927 -->
<g id="node34" class="node">
<title>22927</title>
<ellipse fill="none" stroke="#000000" cx="232.2709" cy="-156.6167" rx="32.4942" ry="18"/>
<text text-anchor="middle" x="232.2709" y="-152.9167" font-family="Times,serif" font-size="14.00" fill="#000000">22927</text>
</g>
<!-- 10834&#45;&gt;22927 -->
<g id="edge40" class="edge">
<title>10834&#45;&gt;22927</title>
<path fill="none" stroke="#000000" d="M403.0116,-167.5087C368.3127,-165.2952 313.3199,-161.787 275.1594,-159.3527"/>
<polygon fill="#000000" stroke="#000000" points="275.076,-155.8403 264.8734,-158.6965 274.6303,-162.8261 275.076,-155.8403"/>
</g>
<!-- 12956&#45;&gt;3356 -->
<g id="edge41" class="edge">
<title>12956&#45;&gt;3356</title>
<path fill="none" stroke="#000000" d="M405.9592,-255.5105C403.5714,-262.4094 400.7846,-270.4614 398.1515,-278.0692"/>
<polygon fill="#000000" stroke="#000000" points="394.7883,-277.0855 394.8251,-287.6802 401.4033,-279.375 394.7883,-277.0855"/>
</g>
<!-- 18540 -->
<g id="node33" class="node">
<title>18540</title>
<ellipse fill="none" stroke="#000000" cx="206.8867" cy="-188.8954" rx="32.4942" ry="18"/>
<text text-anchor="middle" x="206.8867" y="-185.1954" font-family="Times,serif" font-size="14.00" fill="#000000">18540</text>
</g>
<!-- 30070&#45;&gt;6904 -->
<g id="edge42" class="edge">
<title>30070&#45;&gt;6904</title>
<path fill="none" stroke="#000000" d="M220.5834,-303.7624C215.8456,-306.0244 210.8185,-308.4246 205.8815,-310.7816"/>
<polygon fill="#000000" stroke="#000000" points="204.115,-307.7466 196.5987,-315.2136 207.131,-314.0635 204.115,-307.7466"/>
</g>
<!-- 30070&#45;&gt;7016 -->
<g id="edge43" class="edge">
<title>30070&#45;&gt;7016</title>
<path fill="none" stroke="#000000" d="M231.1152,-275.525C224.3294,-267.6223 216.0692,-258.0025 208.6062,-249.3111"/>
<polygon fill="#000000" stroke="#000000" points="211.2117,-246.9728 202.0417,-241.6661 205.9009,-251.533 211.2117,-246.9728"/>
</g>
<!-- 30070&#45;&gt;18540 -->
<g id="edge44" class="edge">
<title>30070&#45;&gt;18540</title>
<path fill="none" stroke="#000000" d="M238.5672,-274.0288C232.6262,-258.0637 223.8516,-234.4843 217.0426,-216.1867"/>
<polygon fill="#000000" stroke="#000000" points="220.2603,-214.798 213.4924,-206.6466 213.6999,-217.2394 220.2603,-214.798"/>
</g>
</g>
</svg>
