<?xml version="1.0" encoding="UTF-8" standalone="no"?>
<!DOCTYPE svg PUBLIC "-//W3C//DTD SVG 1.1//EN"
 "http://www.w3.org/Graphics/SVG/1.1/DTD/svg11.dtd">
<!-- Generated by graphviz version 2.40.1 (20161225.0304)
 -->
<!-- Title: %3 Pages: 1 -->
<svg width="6083pt" height="4432pt"
 viewBox="0.00 0.00 6082.80 4432.06" xmlns="http://www.w3.org/2000/svg" xmlns:xlink="http://www.w3.org/1999/xlink">
<g id="graph0" class="graph" transform="scale(1 1) rotate(0) translate(4 4428.0558)">
<title>%3</title>
<polygon fill="#ffffff" stroke="transparent" points="-4,4 -4,-4428.0558 6078.8012,-4428.0558 6078.8012,4 -4,4"/>
<!-- 174 -->
<g id="node1" class="node">
<title>174</title>
<ellipse fill="none" stroke="#000000" cx="27" cy="-2024.9352" rx="27" ry="18"/>
<text text-anchor="middle" x="27" y="-2021.2352" font-family="Times,serif" font-size="14.00" fill="#000000">174</text>
</g>
<!-- 209 -->
<g id="node2" class="node">
<title>209</title>
<ellipse fill="none" stroke="#000000" cx="2411.842" cy="-850.5215" rx="27" ry="18"/>
<text text-anchor="middle" x="2411.842" y="-846.8215" font-family="Times,serif" font-size="14.00" fill="#000000">209</text>
</g>
<!-- 701 -->
<g id="node3" class="node">
<title>701</title>
<ellipse fill="none" stroke="#000000" cx="2853.7837" cy="-405.5522" rx="27" ry="18"/>
<text text-anchor="middle" x="2853.7837" y="-401.8522" font-family="Times,serif" font-size="14.00" fill="#000000">701</text>
</g>
<!-- 1239 -->
<g id="node4" class="node">
<title>1239</title>
<ellipse fill="none" stroke="#000000" cx="3413.0052" cy="-118.2146" rx="28.6953" ry="18"/>
<text text-anchor="middle" x="3413.0052" y="-114.5146" font-family="Times,serif" font-size="14.00" fill="#000000">1239</text>
</g>
<!-- 1273 -->
<g id="node5" class="node">
<title>1273</title>
<ellipse fill="none" stroke="#000000" cx="4035.2873" cy="-18" rx="28.6953" ry="18"/>
<text text-anchor="middle" x="4035.2873" y="-14.3" font-family="Times,serif" font-size="14.00" fill="#000000">1273</text>
</g>
<!-- 1299 -->
<g id="node6" class="node">
<title>1299</title>
<ellipse fill="none" stroke="#000000" cx="4657.9633" cy="-115.7372" rx="28.6953" ry="18"/>
<text text-anchor="middle" x="4657.9633" y="-112.0372" font-family="Times,serif" font-size="14.00" fill="#000000">1299</text>
</g>
<!-- 2497 -->
<g id="node7" class="node">
<title>2497</title>
<ellipse fill="none" stroke="#000000" cx="5219.6163" cy="-401.786" rx="28.6953" ry="18"/>
<text text-anchor="middle" x="5219.6163" y="-398.086" font-family="Times,serif" font-size="14.00" fill="#000000">2497</text>
</g>
<!-- 2516 -->
<g id="node8" class="node">
<title>2516</title>
<ellipse fill="none" stroke="#000000" cx="2906.9452" cy="-3726.6474" rx="28.6953" ry="18"/>
<text text-anchor="middle" x="2906.9452" y="-3722.9474" font-family="Times,serif" font-size="14.00" fill="#000000">2516</text>
</g>
<!-- 2686 -->
<g id="node9" class="node">
<title>2686</title>
<ellipse fill="none" stroke="#000000" cx="2987.571" cy="-3562.6897" rx="28.6953" ry="18"/>
<text text-anchor="middle" x="2987.571" y="-3558.9897" font-family="Times,serif" font-size="14.00" fill="#000000">2686</text>
</g>
<!-- 2687 -->
<g id="node10" class="node">
<title>2687</title>
<ellipse fill="none" stroke="#000000" cx="3029.237" cy="-3684.9814" rx="28.6953" ry="18"/>
<text text-anchor="middle" x="3029.237" y="-3681.2814" font-family="Times,serif" font-size="14.00" fill="#000000">2687</text>
</g>
<!-- 2687&#45;&gt;2516 -->
<g id="edge1" class="edge">
<title>2687&#45;&gt;2516</title>
<path fill="none" stroke="#000000" d="M3003.8981,-3693.6147C2985.9432,-3699.732 2961.6285,-3708.0163 2941.8409,-3714.7581"/>
<polygon fill="#000000" stroke="#000000" points="2940.5886,-3711.4872 2932.2517,-3718.0253 2942.8462,-3718.1131 2940.5886,-3711.4872"/>
</g>
<!-- 2687&#45;&gt;2686 -->
<g id="edge2" class="edge">
<title>2687&#45;&gt;2686</title>
<path fill="none" stroke="#000000" d="M3023.1784,-3667.1992C3016.2971,-3647.0023 3004.9851,-3613.8009 2996.9591,-3590.2443"/>
<polygon fill="#000000" stroke="#000000" points="3000.175,-3588.8303 2993.6369,-3580.4934 2993.5491,-3591.0879 3000.175,-3588.8303"/>
</g>
<!-- 7473 -->
<g id="node27" class="node">
<title>7473</title>
<ellipse fill="none" stroke="#000000" cx="3151.5288" cy="-3643.3155" rx="28.6953" ry="18"/>
<text text-anchor="middle" x="3151.5288" y="-3639.6155" font-family="Times,serif" font-size="14.00" fill="#000000">7473</text>
</g>
<!-- 2687&#45;&gt;7473 -->
<g id="edge3" class="edge">
<title>2687&#45;&gt;7473</title>
<path fill="none" stroke="#000000" d="M3054.5759,-3676.3482C3072.5308,-3670.2308 3096.8455,-3661.9466 3116.6331,-3655.2048"/>
<polygon fill="#000000" stroke="#000000" points="3117.8854,-3658.4757 3126.2223,-3651.9376 3115.6278,-3651.8498 3117.8854,-3658.4757"/>
</g>
<!-- 9505 -->
<g id="node29" class="node">
<title>9505</title>
<ellipse fill="none" stroke="#000000" cx="3070.903" cy="-3807.2732" rx="28.6953" ry="18"/>
<text text-anchor="middle" x="3070.903" y="-3803.5732" font-family="Times,serif" font-size="14.00" fill="#000000">9505</text>
</g>
<!-- 2687&#45;&gt;9505 -->
<g id="edge4" class="edge">
<title>2687&#45;&gt;9505</title>
<path fill="none" stroke="#000000" d="M3035.2956,-3702.7637C3042.1769,-3722.9606 3053.4889,-3756.162 3061.5149,-3779.7186"/>
<polygon fill="#000000" stroke="#000000" points="3058.299,-3781.1326 3064.8371,-3789.4695 3064.9249,-3778.875 3058.299,-3781.1326"/>
</g>
<!-- 2828 -->
<g id="node11" class="node">
<title>2828</title>
<ellipse fill="none" stroke="#000000" cx="5664.8482" cy="-847.9322" rx="28.6953" ry="18"/>
<text text-anchor="middle" x="5664.8482" y="-844.2322" font-family="Times,serif" font-size="14.00" fill="#000000">2828</text>
</g>
<!-- 2914 -->
<g id="node12" class="node">
<title>2914</title>
<ellipse fill="none" stroke="#000000" cx="3934.516" cy="-2100.5371" rx="28.6953" ry="18"/>
<text text-anchor="middle" x="3934.516" y="-2096.8371" font-family="Times,serif" font-size="14.00" fill="#000000">2914</text>
</g>
<!-- 6453 -->
<g id="node21" class="node">
<title>6453</title>
<ellipse fill="none" stroke="#000000" cx="4039.2809" cy="-2024.9352" rx="28.6953" ry="18"/>
<text text-anchor="middle" x="4039.2809" y="-2021.2352" font-family="Times,serif" font-size="14.00" fill="#000000">6453</text>
</g>
<!-- 2914&#45;&gt;6453 -->
<g id="edge5" class="edge">
<title>2914&#45;&gt;6453</title>
<path fill="none" stroke="#000000" d="M3953.7315,-2086.6705C3969.9762,-2074.9478 3993.4504,-2058.008 4011.7017,-2044.8373"/>
<polygon fill="#000000" stroke="#000000" points="4014.1263,-2047.4038 4020.1873,-2038.7139 4010.03,-2041.7275 4014.1263,-2047.4038"/>
</g>
<!-- 3257 -->
<g id="node13" class="node">
<title>3257</title>
<ellipse fill="none" stroke="#000000" cx="5949.7442" cy="-1410.1708" rx="28.6953" ry="18"/>
<text text-anchor="middle" x="5949.7442" y="-1406.4708" font-family="Times,serif" font-size="14.00" fill="#000000">3257</text>
</g>
<!-- 3320 -->
<g id="node14" class="node">
<title>3320</title>
<ellipse fill="none" stroke="#000000" cx="6046.2037" cy="-2033.046" rx="28.6953" ry="18"/>
<text text-anchor="middle" x="6046.2037" y="-2029.346" font-family="Times,serif" font-size="14.00" fill="#000000">3320</text>
</g>
<!-- 3356 -->
<g id="node15" class="node">
<title>3356</title>
<ellipse fill="none" stroke="#000000" cx="2231.4753" cy="-3170.1858" rx="28.6953" ry="18"/>
<text text-anchor="middle" x="2231.4753" y="-3166.4858" font-family="Times,serif" font-size="14.00" fill="#000000">3356</text>
</g>
<!-- 3549 -->
<g id="node17" class="node">
<title>3549</title>
<ellipse fill="none" stroke="#000000" cx="2307.0771" cy="-3274.9508" rx="28.6953" ry="18"/>
<text text-anchor="middle" x="2307.0771" y="-3271.2508" font-family="Times,serif" font-size="14.00" fill="#000000">3549</text>
</g>
<!-- 3356&#45;&gt;3549 -->
<g id="edge6" class="edge">
<title>3356&#45;&gt;3549</title>
<path fill="none" stroke="#000000" d="M2243.622,-3187.0181C2255.9842,-3204.149 2275.2775,-3230.8846 2289.3465,-3250.3806"/>
<polygon fill="#000000" stroke="#000000" points="2286.5198,-3252.4447 2295.2098,-3258.5056 2292.1961,-3248.3484 2286.5198,-3252.4447"/>
</g>
<!-- 3491 -->
<g id="node16" class="node">
<title>3491</title>
<ellipse fill="none" stroke="#000000" cx="5944.7128" cy="-2655.1212" rx="28.6953" ry="18"/>
<text text-anchor="middle" x="5944.7128" y="-2651.4212" font-family="Times,serif" font-size="14.00" fill="#000000">3491</text>
</g>
<!-- 6762 -->
<g id="node23" class="node">
<title>6762</title>
<ellipse fill="none" stroke="#000000" cx="3829.7511" cy="-2176.1389" rx="28.6953" ry="18"/>
<text text-anchor="middle" x="3829.7511" y="-2172.4389" font-family="Times,serif" font-size="14.00" fill="#000000">6762</text>
</g>
<!-- 3549&#45;&gt;6762 -->
<g id="edge7" class="edge">
<title>3549&#45;&gt;6762</title>
<path fill="none" stroke="#000000" d="M2326.0537,-3261.2566C2486.3444,-3145.5855 3612.6279,-2332.8221 3802.5795,-2195.7468"/>
<polygon fill="#000000" stroke="#000000" points="3804.8485,-2198.4256 3810.9094,-2189.7357 3800.7522,-2192.7493 3804.8485,-2198.4256"/>
</g>
<!-- 30070 -->
<g id="node37" class="node">
<title>30070</title>
<ellipse fill="none" stroke="#000000" cx="2856.483" cy="-4036.2878" rx="32.4942" ry="18"/>
<text text-anchor="middle" x="2856.483" y="-4032.5878" font-family="Times,serif" font-size="14.00" fill="#000000">30070</text>
</g>
<!-- 3549&#45;&gt;30070 -->
<g id="edge8" class="edge">
<title>3549&#45;&gt;30070</title>
<path fill="none" stroke="#000000" d="M2319.0632,-3291.5604C2389.8687,-3389.6788 2753.2539,-3893.2385 2838.5477,-4011.4339"/>
<polygon fill="#000000" stroke="#000000" points="2835.7297,-4013.5101 2844.4197,-4019.5711 2841.4061,-4009.4139 2835.7297,-4013.5101"/>
</g>
<!-- 3597 -->
<g id="node18" class="node">
<title>3597</title>
<ellipse fill="none" stroke="#000000" cx="1762.0024" cy="-2262.45" rx="28.6953" ry="18"/>
<text text-anchor="middle" x="1762.0024" y="-2258.75" font-family="Times,serif" font-size="14.00" fill="#000000">3597</text>
</g>
<!-- 5511 -->
<g id="node19" class="node">
<title>5511</title>
<ellipse fill="none" stroke="#000000" cx="5655.2817" cy="-3215.0387" rx="28.6953" ry="18"/>
<text text-anchor="middle" x="5655.2817" y="-3211.3387" font-family="Times,serif" font-size="14.00" fill="#000000">5511</text>
</g>
<!-- 5692 -->
<g id="node20" class="node">
<title>5692</title>
<ellipse fill="none" stroke="#000000" cx="2008.0734" cy="-2168.7845" rx="28.6953" ry="18"/>
<text text-anchor="middle" x="2008.0734" y="-2165.0845" font-family="Times,serif" font-size="14.00" fill="#000000">5692</text>
</g>
<!-- 5692&#45;&gt;3597 -->
<g id="edge9" class="edge">
<title>5692&#45;&gt;3597</title>
<path fill="none" stroke="#000000" d="M1983.5795,-2178.108C1939.4746,-2194.8963 1846.6141,-2230.2431 1796.243,-2249.4165"/>
<polygon fill="#000000" stroke="#000000" points="1794.8631,-2246.1967 1786.7624,-2253.0253 1797.3534,-2252.7388 1794.8631,-2246.1967"/>
</g>
<!-- 10834 -->
<g id="node30" class="node">
<title>10834</title>
<ellipse fill="none" stroke="#000000" cx="1679.7873" cy="-2405.6866" rx="32.4942" ry="18"/>
<text text-anchor="middle" x="1679.7873" y="-2401.9866" font-family="Times,serif" font-size="14.00" fill="#000000">10834</text>
</g>
<!-- 5692&#45;&gt;10834 -->
<g id="edge10" class="edge">
<title>5692&#45;&gt;10834</title>
<path fill="none" stroke="#000000" d="M1989.0044,-2182.5454C1933.7374,-2222.4278 1773.2619,-2338.2322 1707.9432,-2385.3684"/>
<polygon fill="#000000" stroke="#000000" points="1705.7997,-2382.599 1699.7388,-2391.289 1709.896,-2388.2754 1705.7997,-2382.599"/>
</g>
<!-- 11008 -->
<g id="node31" class="node">
<title>11008</title>
<ellipse fill="none" stroke="#000000" cx="1747.4207" cy="-2131.5778" rx="32.4942" ry="18"/>
<text text-anchor="middle" x="1747.4207" y="-2127.8778" font-family="Times,serif" font-size="14.00" fill="#000000">11008</text>
</g>
<!-- 5692&#45;&gt;11008 -->
<g id="edge11" class="edge">
<title>5692&#45;&gt;11008</title>
<path fill="none" stroke="#000000" d="M1980.179,-2164.8028C1934.3774,-2158.2648 1842.979,-2145.2182 1789.3511,-2137.5631"/>
<polygon fill="#000000" stroke="#000000" points="1789.5481,-2134.0558 1779.1538,-2136.1075 1788.5588,-2140.9856 1789.5481,-2134.0558"/>
</g>
<!-- 27865 -->
<g id="node35" class="node">
<title>27865</title>
<ellipse fill="none" stroke="#000000" cx="1800.4111" cy="-2006.9188" rx="32.4942" ry="18"/>
<text text-anchor="middle" x="1800.4111" y="-2003.2188" font-family="Times,serif" font-size="14.00" fill="#000000">27865</text>
</g>
<!-- 5692&#45;&gt;27865 -->
<g id="edge12" class="edge">
<title>5692&#45;&gt;27865</title>
<path fill="none" stroke="#000000" d="M1990.008,-2154.7032C1953.4664,-2126.2203 1870.6025,-2061.6307 1827.5385,-2028.0638"/>
<polygon fill="#000000" stroke="#000000" points="1829.5207,-2025.1712 1819.4819,-2021.7839 1825.2173,-2030.6921 1829.5207,-2025.1712"/>
</g>
<!-- 28065 -->
<g id="node36" class="node">
<title>28065</title>
<ellipse fill="none" stroke="#000000" cx="1908.3628" cy="-1925.1004" rx="32.4942" ry="18"/>
<text text-anchor="middle" x="1908.3628" y="-1921.4004" font-family="Times,serif" font-size="14.00" fill="#000000">28065</text>
</g>
<!-- 5692&#45;&gt;28065 -->
<g id="edge13" class="edge">
<title>5692&#45;&gt;28065</title>
<path fill="none" stroke="#000000" d="M2000.9024,-2151.2594C1983.6968,-2109.2102 1939.9778,-2002.3649 1919.3959,-1952.0644"/>
<polygon fill="#000000" stroke="#000000" points="1922.6291,-1950.7239 1915.6027,-1942.7942 1916.1505,-1953.3749 1922.6291,-1950.7239"/>
</g>
<!-- 52317 -->
<g id="node38" class="node">
<title>52317</title>
<ellipse fill="none" stroke="#000000" cx="2042.7047" cy="-1907.7772" rx="32.4942" ry="18"/>
<text text-anchor="middle" x="2042.7047" y="-1904.0772" font-family="Times,serif" font-size="14.00" fill="#000000">52317</text>
</g>
<!-- 5692&#45;&gt;52317 -->
<g id="edge14" class="edge">
<title>5692&#45;&gt;52317</title>
<path fill="none" stroke="#000000" d="M2010.4537,-2150.8445C2016.3725,-2106.2358 2031.7923,-1990.0208 2038.9514,-1936.0644"/>
<polygon fill="#000000" stroke="#000000" points="2042.4619,-1936.2164 2040.3077,-1925.8429 2035.5227,-1935.2956 2042.4619,-1936.2164"/>
</g>
<!-- 52375 -->
<g id="node39" class="node">
<title>52375</title>
<ellipse fill="none" stroke="#000000" cx="2167.8808" cy="-1959.5341" rx="32.4942" ry="18"/>
<text text-anchor="middle" x="2167.8808" y="-1955.8341" font-family="Times,serif" font-size="14.00" fill="#000000">52375</text>
</g>
<!-- 5692&#45;&gt;52375 -->
<g id="edge15" class="edge">
<title>5692&#45;&gt;52375</title>
<path fill="none" stroke="#000000" d="M2020.6132,-2152.365C2048.5507,-2115.7839 2116.0404,-2027.4134 2149.0564,-1984.1825"/>
<polygon fill="#000000" stroke="#000000" points="2151.8901,-1986.2387 2155.1781,-1976.1669 2146.3269,-1981.99 2151.8901,-1986.2387"/>
</g>
<!-- 52376 -->
<g id="node40" class="node">
<title>52376</title>
<ellipse fill="none" stroke="#000000" cx="2250.7611" cy="-2066.6727" rx="32.4942" ry="18"/>
<text text-anchor="middle" x="2250.7611" y="-2062.9727" font-family="Times,serif" font-size="14.00" fill="#000000">52376</text>
</g>
<!-- 5692&#45;&gt;52376 -->
<g id="edge16" class="edge">
<title>5692&#45;&gt;52376</title>
<path fill="none" stroke="#000000" d="M2032.2304,-2158.6204C2075.2794,-2140.5073 2165.4246,-2102.5784 2215.4375,-2081.5353"/>
<polygon fill="#000000" stroke="#000000" points="2217.0191,-2084.667 2224.8791,-2077.5627 2214.3043,-2078.2149 2217.0191,-2084.667"/>
</g>
<!-- 52380 -->
<g id="node41" class="node">
<title>52380</title>
<ellipse fill="none" stroke="#000000" cx="2269.4099" cy="-2200.837" rx="32.4942" ry="18"/>
<text text-anchor="middle" x="2269.4099" y="-2197.137" font-family="Times,serif" font-size="14.00" fill="#000000">52380</text>
</g>
<!-- 5692&#45;&gt;52380 -->
<g id="edge17" class="edge">
<title>5692&#45;&gt;52380</title>
<path fill="none" stroke="#000000" d="M2036.2893,-2172.2452C2082.3187,-2177.8906 2173.8027,-2189.1109 2227.462,-2195.6922"/>
<polygon fill="#000000" stroke="#000000" points="2227.3132,-2199.2001 2237.6649,-2196.9435 2228.1654,-2192.2521 2227.3132,-2199.2001"/>
</g>
<!-- 52413 -->
<g id="node42" class="node">
<title>52413</title>
<ellipse fill="none" stroke="#000000" cx="2218.8915" cy="-2326.518" rx="32.4942" ry="18"/>
<text text-anchor="middle" x="2218.8915" y="-2322.818" font-family="Times,serif" font-size="14.00" fill="#000000">52413</text>
</g>
<!-- 5692&#45;&gt;52413 -->
<g id="edge18" class="edge">
<title>5692&#45;&gt;52413</title>
<path fill="none" stroke="#000000" d="M2026.7821,-2182.7823C2064.0046,-2210.6321 2147.5069,-2273.1083 2191.14,-2305.7544"/>
<polygon fill="#000000" stroke="#000000" points="2189.2058,-2308.6785 2199.3095,-2311.8668 2193.3993,-2303.0736 2189.2058,-2308.6785"/>
</g>
<!-- 52431 -->
<g id="node43" class="node">
<title>52431</title>
<ellipse fill="none" stroke="#000000" cx="2112.5765" cy="-2410.4522" rx="32.4942" ry="18"/>
<text text-anchor="middle" x="2112.5765" y="-2406.7522" font-family="Times,serif" font-size="14.00" fill="#000000">52431</text>
</g>
<!-- 5692&#45;&gt;52431 -->
<g id="edge19" class="edge">
<title>5692&#45;&gt;52431</title>
<path fill="none" stroke="#000000" d="M2015.589,-2186.1647C2033.6216,-2227.8659 2079.4419,-2333.8271 2101.013,-2383.7113"/>
<polygon fill="#000000" stroke="#000000" points="2097.8069,-2385.1154 2104.9885,-2392.9048 2104.2319,-2382.337 2097.8069,-2385.1154"/>
</g>
<!-- 262230 -->
<g id="node44" class="node">
<title>262230</title>
<ellipse fill="none" stroke="#000000" cx="1974.0865" cy="-2429.8765" rx="37.0935" ry="18"/>
<text text-anchor="middle" x="1974.0865" y="-2426.1765" font-family="Times,serif" font-size="14.00" fill="#000000">262230</text>
</g>
<!-- 5692&#45;&gt;262230 -->
<g id="edge20" class="edge">
<title>5692&#45;&gt;262230</title>
<path fill="none" stroke="#000000" d="M2005.7373,-2186.7305C1999.9286,-2231.3536 1984.7958,-2347.6062 1977.7699,-2401.5802"/>
<polygon fill="#000000" stroke="#000000" points="1974.2591,-2401.4369 1976.4389,-2411.805 1981.2005,-2402.3405 1974.2591,-2401.4369"/>
</g>
<!-- 264608 -->
<g id="node45" class="node">
<title>264608</title>
<ellipse fill="none" stroke="#000000" cx="1841.6345" cy="-2372.7998" rx="37.0935" ry="18"/>
<text text-anchor="middle" x="1841.6345" y="-2369.0998" font-family="Times,serif" font-size="14.00" fill="#000000">264608</text>
</g>
<!-- 5692&#45;&gt;264608 -->
<g id="edge21" class="edge">
<title>5692&#45;&gt;264608</title>
<path fill="none" stroke="#000000" d="M1994.7343,-2185.1351C1965.6624,-2220.7704 1896.4368,-2305.625 1861.9221,-2347.9319"/>
<polygon fill="#000000" stroke="#000000" points="1859.1136,-2345.8377 1855.5042,-2355.7988 1864.5376,-2350.2627 1859.1136,-2345.8377"/>
</g>
<!-- 6453&#45;&gt;174 -->
<g id="edge22" class="edge">
<title>6453&#45;&gt;174</title>
<path fill="none" stroke="#000000" d="M4010.4148,-2024.9352C3671.0743,-2024.9352 447.1386,-2024.9352 64.1311,-2024.9352"/>
<polygon fill="#000000" stroke="#000000" points="64.1235,-2021.4353 54.1235,-2024.9352 64.1234,-2028.4353 64.1235,-2021.4353"/>
</g>
<!-- 6453&#45;&gt;209 -->
<g id="edge23" class="edge">
<title>6453&#45;&gt;209</title>
<path fill="none" stroke="#000000" d="M4020.4412,-2011.3399C3853.9114,-1891.1664 2634.9523,-1011.5252 2438.5284,-869.7793"/>
<polygon fill="#000000" stroke="#000000" points="2440.3611,-866.7857 2430.2039,-863.772 2436.2648,-872.462 2440.3611,-866.7857"/>
</g>
<!-- 6453&#45;&gt;701 -->
<g id="edge24" class="edge">
<title>6453&#45;&gt;701</title>
<path fill="none" stroke="#000000" d="M4027.1615,-2008.3801C3911.9439,-1850.9936 3011.0006,-620.3097 2871.8162,-430.1845"/>
<polygon fill="#000000" stroke="#000000" points="2874.5014,-427.9273 2865.7703,-421.9259 2868.8532,-432.0623 2874.5014,-427.9273"/>
</g>
<!-- 6453&#45;&gt;1239 -->
<g id="edge25" class="edge">
<title>6453&#45;&gt;1239</title>
<path fill="none" stroke="#000000" d="M4033.481,-2007.277C3975.0929,-1829.5124 3494.0386,-364.924 3422.0143,-145.6432"/>
<polygon fill="#000000" stroke="#000000" points="3425.2543,-144.2912 3418.8084,-135.8827 3418.6038,-146.4756 3425.2543,-144.2912"/>
</g>
<!-- 6453&#45;&gt;1273 -->
<g id="edge26" class="edge">
<title>6453&#45;&gt;1273</title>
<path fill="none" stroke="#000000" d="M4039.2446,-2006.6618C4038.8747,-1820.7821 4035.7982,-274.7274 4035.3434,-46.1835"/>
<polygon fill="#000000" stroke="#000000" points="4038.8431,-46.0197 4035.3232,-36.0267 4031.8432,-46.0337 4038.8431,-46.0197"/>
</g>
<!-- 6453&#45;&gt;1299 -->
<g id="edge27" class="edge">
<title>6453&#45;&gt;1299</title>
<path fill="none" stroke="#000000" d="M4045.0106,-2007.254C4102.6907,-1829.2585 4577.9123,-362.7672 4649.0634,-143.2015"/>
<polygon fill="#000000" stroke="#000000" points="4652.4772,-144.0203 4652.2304,-133.4283 4645.8181,-141.8623 4652.4772,-144.0203"/>
</g>
<!-- 6453&#45;&gt;2497 -->
<g id="edge28" class="edge">
<title>6453&#45;&gt;2497</title>
<path fill="none" stroke="#000000" d="M4051.3476,-2008.3416C4166.0635,-1850.589 5063.0839,-617.043 5201.6623,-426.4755"/>
<polygon fill="#000000" stroke="#000000" points="5204.6312,-428.3438 5207.6819,-418.1977 5198.9699,-424.2269 5204.6312,-428.3438"/>
</g>
<!-- 6453&#45;&gt;2828 -->
<g id="edge29" class="edge">
<title>6453&#45;&gt;2828</title>
<path fill="none" stroke="#000000" d="M4058.099,-2011.3099C4224.3456,-1890.9379 5440.6524,-1010.2627 5637.867,-867.4681"/>
<polygon fill="#000000" stroke="#000000" points="5639.933,-870.2934 5645.9801,-861.5938 5635.8277,-864.6236 5639.933,-870.2934"/>
</g>
<!-- 6453&#45;&gt;3257 -->
<g id="edge30" class="edge">
<title>6453&#45;&gt;3257</title>
<path fill="none" stroke="#000000" d="M4064.8432,-2016.7096C4271.9699,-1950.0587 5674.0009,-1498.9018 5914.6293,-1421.4704"/>
<polygon fill="#000000" stroke="#000000" points="5915.8252,-1424.7624 5924.2723,-1418.3674 5913.6809,-1418.0989 5915.8252,-1424.7624"/>
</g>
<!-- 6453&#45;&gt;3320 -->
<g id="edge31" class="edge">
<title>6453&#45;&gt;3320</title>
<path fill="none" stroke="#000000" d="M4068.037,-2025.0514C4291.615,-2025.955 5750.1801,-2031.8497 6007.465,-2032.8895"/>
<polygon fill="#000000" stroke="#000000" points="6007.451,-2036.3893 6017.4651,-2032.9299 6007.4793,-2029.3894 6007.451,-2036.3893"/>
</g>
<!-- 6453&#45;&gt;3491 -->
<g id="edge32" class="edge">
<title>6453&#45;&gt;3491</title>
<path fill="none" stroke="#000000" d="M4064.7759,-2033.3672C4271.3571,-2101.6901 5669.6957,-2564.1645 5909.6904,-2643.5382"/>
<polygon fill="#000000" stroke="#000000" points="5908.7148,-2646.902 5919.3081,-2646.7191 5910.9129,-2640.256 5908.7148,-2646.902"/>
</g>
<!-- 6453&#45;&gt;5511 -->
<g id="edge33" class="edge">
<title>6453&#45;&gt;5511</title>
<path fill="none" stroke="#000000" d="M4057.9882,-2038.7122C4223.2565,-2160.424 5432.4053,-3050.9014 5628.4594,-3195.2854"/>
<polygon fill="#000000" stroke="#000000" points="5626.3971,-3198.1133 5636.5247,-3201.2251 5630.5481,-3192.4769 5626.3971,-3198.1133"/>
</g>
<!-- 6461 -->
<g id="node22" class="node">
<title>6461</title>
<ellipse fill="none" stroke="#000000" cx="5206.4583" cy="-3657.5718" rx="28.6953" ry="18"/>
<text text-anchor="middle" x="5206.4583" y="-3653.8718" font-family="Times,serif" font-size="14.00" fill="#000000">6461</text>
</g>
<!-- 6453&#45;&gt;6461 -->
<g id="edge34" class="edge">
<title>6453&#45;&gt;6461</title>
<path fill="none" stroke="#000000" d="M4051.0223,-2041.3589C4163.6464,-2198.8964 5051.5162,-3440.8402 5188.6865,-3632.7128"/>
<polygon fill="#000000" stroke="#000000" points="5185.9819,-3634.9479 5194.6449,-3641.0473 5191.6764,-3630.8768 5185.9819,-3634.9479"/>
</g>
<!-- 7018 -->
<g id="node26" class="node">
<title>7018</title>
<ellipse fill="none" stroke="#000000" cx="4642.5116" cy="-3939.0715" rx="28.6953" ry="18"/>
<text text-anchor="middle" x="4642.5116" y="-3935.3715" font-family="Times,serif" font-size="14.00" fill="#000000">7018</text>
</g>
<!-- 6453&#45;&gt;7018 -->
<g id="edge35" class="edge">
<title>6453&#45;&gt;7018</title>
<path fill="none" stroke="#000000" d="M4044.8675,-2042.6622C4101.107,-2221.1181 4564.4599,-3691.4026 4633.834,-3911.5362"/>
<polygon fill="#000000" stroke="#000000" points="4630.578,-3912.8491 4636.9219,-3921.3346 4637.2543,-3910.745 4630.578,-3912.8491"/>
</g>
<!-- 6762&#45;&gt;2914 -->
<g id="edge36" class="edge">
<title>6762&#45;&gt;2914</title>
<path fill="none" stroke="#000000" d="M3848.9666,-2162.2724C3865.2113,-2150.5496 3888.6855,-2133.6099 3906.9367,-2120.4392"/>
<polygon fill="#000000" stroke="#000000" points="3909.3614,-2123.0057 3915.4223,-2114.3157 3905.2651,-2117.3293 3909.3614,-2123.0057"/>
</g>
<!-- 6904 -->
<g id="node24" class="node">
<title>6904</title>
<ellipse fill="none" stroke="#000000" cx="2915.2149" cy="-3916.8527" rx="28.6953" ry="18"/>
<text text-anchor="middle" x="2915.2149" y="-3913.1527" font-family="Times,serif" font-size="14.00" fill="#000000">6904</text>
</g>
<!-- 6904&#45;&gt;2687 -->
<g id="edge37" class="edge">
<title>6904&#45;&gt;2687</title>
<path fill="none" stroke="#000000" d="M2923.7851,-3899.4247C2943.6024,-3859.1248 2992.696,-3759.2899 3016.2388,-3711.4141"/>
<polygon fill="#000000" stroke="#000000" points="3019.4508,-3712.8136 3020.7229,-3702.2954 3013.1693,-3709.7246 3019.4508,-3712.8136"/>
</g>
<!-- 7016 -->
<g id="node25" class="node">
<title>7016</title>
<ellipse fill="none" stroke="#000000" cx="2942.6269" cy="-4284.0276" rx="28.6953" ry="18"/>
<text text-anchor="middle" x="2942.6269" y="-4280.3276" font-family="Times,serif" font-size="14.00" fill="#000000">7016</text>
</g>
<!-- 7922 -->
<g id="node28" class="node">
<title>7922</title>
<ellipse fill="none" stroke="#000000" cx="2985.0585" cy="-4406.0558" rx="28.6953" ry="18"/>
<text text-anchor="middle" x="2985.0585" y="-4402.3558" font-family="Times,serif" font-size="14.00" fill="#000000">7922</text>
</g>
<!-- 7016&#45;&gt;7922 -->
<g id="edge38" class="edge">
<title>7016&#45;&gt;7922</title>
<path fill="none" stroke="#000000" d="M2948.7968,-4301.7715C2955.8045,-4321.9249 2967.3244,-4355.0548 2975.4979,-4378.5606"/>
<polygon fill="#000000" stroke="#000000" points="2972.2909,-4379.9947 2978.8811,-4388.2904 2978.9026,-4377.6956 2972.2909,-4379.9947"/>
</g>
<!-- 12956 -->
<g id="node32" class="node">
<title>12956</title>
<ellipse fill="none" stroke="#000000" cx="2153.5914" cy="-3062.2586" rx="32.4942" ry="18"/>
<text text-anchor="middle" x="2153.5914" y="-3058.5586" font-family="Times,serif" font-size="14.00" fill="#000000">12956</text>
</g>
<!-- 10834&#45;&gt;12956 -->
<g id="edge39" class="edge">
<title>10834&#45;&gt;12956</title>
<path fill="none" stroke="#000000" d="M1691.9755,-2422.5764C1756.5011,-2511.9924 2058.1974,-2930.0668 2135.5061,-3037.1969"/>
<polygon fill="#000000" stroke="#000000" points="2132.7938,-3039.4196 2141.4838,-3045.4806 2138.4702,-3035.3234 2132.7938,-3039.4196"/>
</g>
<!-- 22927 -->
<g id="node34" class="node">
<title>22927</title>
<ellipse fill="none" stroke="#000000" cx="1351.5013" cy="-2642.5886" rx="32.4942" ry="18"/>
<text text-anchor="middle" x="1351.5013" y="-2638.8886" font-family="Times,serif" font-size="14.00" fill="#000000">22927</text>
</g>
<!-- 10834&#45;&gt;22927 -->
<g id="edge40" class="edge">
<title>10834&#45;&gt;22927</title>
<path fill="none" stroke="#000000" d="M1659.7458,-2420.1493C1603.6565,-2460.6251 1444.9593,-2575.1463 1379.8796,-2622.1099"/>
<polygon fill="#000000" stroke="#000000" points="1377.7587,-2619.3243 1371.6977,-2628.0142 1381.8549,-2625.0006 1377.7587,-2619.3243"/>
</g>
<!-- 12956&#45;&gt;3356 -->
<g id="edge41" class="edge">
<title>12956&#45;&gt;3356</title>
<path fill="none" stroke="#000000" d="M2165.7608,-3079.1223C2178.6384,-3096.9674 2199.0867,-3125.3035 2213.7535,-3145.628"/>
<polygon fill="#000000" stroke="#000000" points="2210.9564,-3147.7331 2219.6464,-3153.794 2216.6328,-3143.6368 2210.9564,-3147.7331"/>
</g>
<!-- 18540 -->
<g id="node33" class="node">
<title>18540</title>
<ellipse fill="none" stroke="#000000" cx="2532.6332" cy="-4080.7444" rx="32.4942" ry="18"/>
<text text-anchor="middle" x="2532.6332" y="-4077.0444" font-family="Times,serif" font-size="14.00" fill="#000000">18540</text>
</g>
<!-- 30070&#45;&gt;6904 -->
<g id="edge42" class="edge">
<title>30070&#45;&gt;6904</title>
<path fill="none" stroke="#000000" d="M2865.1491,-4018.6647C2874.9212,-3998.7926 2890.9154,-3966.2673 2902.1921,-3943.3355"/>
<polygon fill="#000000" stroke="#000000" points="2905.4322,-3944.6779 2906.7042,-3934.1597 2899.1506,-3941.589 2905.4322,-3944.6779"/>
</g>
<!-- 30070&#45;&gt;7016 -->
<g id="edge43" class="edge">
<title>30070&#45;&gt;7016</title>
<path fill="none" stroke="#000000" d="M2862.6783,-4054.1046C2877.548,-4096.8683 2915.3395,-4205.5521 2933.1133,-4256.6677"/>
<polygon fill="#000000" stroke="#000000" points="2929.8976,-4258.0764 2936.4878,-4266.3722 2936.5093,-4255.7774 2929.8976,-4258.0764"/>
</g>
<!-- 30070&#45;&gt;18540 -->
<g id="edge44" class="edge">
<title>30070&#45;&gt;18540</title>
<path fill="none" stroke="#000000" d="M2824.8413,-4040.6314C2766.0727,-4048.6989 2640.0909,-4065.9931 2574.4079,-4075.0098"/>
<polygon fill="#000000" stroke="#000000" points="2573.8344,-4071.5556 2564.4034,-4076.3832 2574.7865,-4078.4906 2573.8344,-4071.5556"/>
</g>
</g>
</svg>
