<?xml version="1.0" encoding="UTF-8" standalone="no"?>
<!DOCTYPE svg PUBLIC "-//W3C//DTD SVG 1.1//EN"
 "http://www.w3.org/Graphics/SVG/1.1/DTD/svg11.dtd">
<!-- Generated by graphviz version 2.40.1 (20161225.0304)
 -->
<!-- Title: %3 Pages: 1 -->
<svg width="2138pt" height="620pt"
 viewBox="0.00 0.00 2138.05 620.00" xmlns="http://www.w3.org/2000/svg" xmlns:xlink="http://www.w3.org/1999/xlink">
<g id="graph0" class="graph" transform="scale(1 1) rotate(0) translate(4 616)">
<title>%3</title>
<polygon fill="#ffffff" stroke="transparent" points="-4,4 -4,-616 2134.0467,-616 2134.0467,4 -4,4"/>
<!-- 174 -->
<g id="node1" class="node">
<title>174</title>
<ellipse fill="none" stroke="#000000" cx="27" cy="-18" rx="27" ry="18"/>
<text text-anchor="middle" x="27" y="-14.3" font-family="Times,serif" font-size="14.00" fill="#000000">174</text>
</g>
<!-- 209 -->
<g id="node2" class="node">
<title>209</title>
<ellipse fill="none" stroke="#000000" cx="99" cy="-18" rx="27" ry="18"/>
<text text-anchor="middle" x="99" y="-14.3" font-family="Times,serif" font-size="14.00" fill="#000000">209</text>
</g>
<!-- 701 -->
<g id="node3" class="node">
<title>701</title>
<ellipse fill="none" stroke="#000000" cx="171" cy="-18" rx="27" ry="18"/>
<text text-anchor="middle" x="171" y="-14.3" font-family="Times,serif" font-size="14.00" fill="#000000">701</text>
</g>
<!-- 1239 -->
<g id="node4" class="node">
<title>1239</title>
<ellipse fill="none" stroke="#000000" cx="245" cy="-18" rx="28.6953" ry="18"/>
<text text-anchor="middle" x="245" y="-14.3" font-family="Times,serif" font-size="14.00" fill="#000000">1239</text>
</g>
<!-- 1273 -->
<g id="node5" class="node">
<title>1273</title>
<ellipse fill="none" stroke="#000000" cx="320" cy="-18" rx="28.6953" ry="18"/>
<text text-anchor="middle" x="320" y="-14.3" font-family="Times,serif" font-size="14.00" fill="#000000">1273</text>
</g>
<!-- 1299 -->
<g id="node6" class="node">
<title>1299</title>
<ellipse fill="none" stroke="#000000" cx="395" cy="-18" rx="28.6953" ry="18"/>
<text text-anchor="middle" x="395" y="-14.3" font-family="Times,serif" font-size="14.00" fill="#000000">1299</text>
</g>
<!-- 2497 -->
<g id="node7" class="node">
<title>2497</title>
<ellipse fill="none" stroke="#000000" cx="470" cy="-18" rx="28.6953" ry="18"/>
<text text-anchor="middle" x="470" y="-14.3" font-family="Times,serif" font-size="14.00" fill="#000000">2497</text>
</g>
<!-- 2516 -->
<g id="node8" class="node">
<title>2516</title>
<ellipse fill="none" stroke="#000000" cx="1070" cy="-18" rx="28.6953" ry="18"/>
<text text-anchor="middle" x="1070" y="-14.3" font-family="Times,serif" font-size="14.00" fill="#000000">2516</text>
</g>
<!-- 2686 -->
<g id="node9" class="node">
<title>2686</title>
<ellipse fill="none" stroke="#000000" cx="1145" cy="-18" rx="28.6953" ry="18"/>
<text text-anchor="middle" x="1145" y="-14.3" font-family="Times,serif" font-size="14.00" fill="#000000">2686</text>
</g>
<!-- 2687 -->
<g id="node10" class="node">
<title>2687</title>
<ellipse fill="none" stroke="#000000" cx="1145" cy="-90" rx="28.6953" ry="18"/>
<text text-anchor="middle" x="1145" y="-86.3" font-family="Times,serif" font-size="14.00" fill="#000000">2687</text>
</g>
<!-- 2687&#45;&gt;2516 -->
<g id="edge1" class="edge">
<title>2687&#45;&gt;2516</title>
<path fill="none" stroke="#000000" d="M1129.0944,-74.7307C1118.6537,-64.7075 1104.8251,-51.4321 1093.1702,-40.2434"/>
<polygon fill="#000000" stroke="#000000" points="1095.5204,-37.6478 1085.8826,-33.2473 1090.6727,-42.6976 1095.5204,-37.6478"/>
</g>
<!-- 2687&#45;&gt;2686 -->
<g id="edge2" class="edge">
<title>2687&#45;&gt;2686</title>
<path fill="none" stroke="#000000" d="M1145,-71.8314C1145,-64.131 1145,-54.9743 1145,-46.4166"/>
<polygon fill="#000000" stroke="#000000" points="1148.5001,-46.4132 1145,-36.4133 1141.5001,-46.4133 1148.5001,-46.4132"/>
</g>
<!-- 7473 -->
<g id="node27" class="node">
<title>7473</title>
<ellipse fill="none" stroke="#000000" cx="1220" cy="-18" rx="28.6953" ry="18"/>
<text text-anchor="middle" x="1220" y="-14.3" font-family="Times,serif" font-size="14.00" fill="#000000">7473</text>
</g>
<!-- 2687&#45;&gt;7473 -->
<g id="edge3" class="edge">
<title>2687&#45;&gt;7473</title>
<path fill="none" stroke="#000000" d="M1160.9056,-74.7307C1171.3463,-64.7075 1185.1749,-51.4321 1196.8298,-40.2434"/>
<polygon fill="#000000" stroke="#000000" points="1199.3273,-42.6976 1204.1174,-33.2473 1194.4796,-37.6478 1199.3273,-42.6976"/>
</g>
<!-- 9505 -->
<g id="node29" class="node">
<title>9505</title>
<ellipse fill="none" stroke="#000000" cx="1295" cy="-18" rx="28.6953" ry="18"/>
<text text-anchor="middle" x="1295" y="-14.3" font-family="Times,serif" font-size="14.00" fill="#000000">9505</text>
</g>
<!-- 2687&#45;&gt;9505 -->
<g id="edge4" class="edge">
<title>2687&#45;&gt;9505</title>
<path fill="none" stroke="#000000" d="M1167.6801,-78.9203C1172.4081,-76.6236 1177.3634,-74.2259 1182,-72 1215.6941,-55.8245 1224.3059,-52.1755 1258,-36 1259.5938,-35.2348 1261.2253,-34.4494 1262.8723,-33.6547"/>
<polygon fill="#000000" stroke="#000000" points="1264.8451,-36.5882 1272.3199,-29.0797 1261.7942,-30.2881 1264.8451,-36.5882"/>
</g>
<!-- 2828 -->
<g id="node11" class="node">
<title>2828</title>
<ellipse fill="none" stroke="#000000" cx="545" cy="-18" rx="28.6953" ry="18"/>
<text text-anchor="middle" x="545" y="-14.3" font-family="Times,serif" font-size="14.00" fill="#000000">2828</text>
</g>
<!-- 2914 -->
<g id="node12" class="node">
<title>2914</title>
<ellipse fill="none" stroke="#000000" cx="1051" cy="-162" rx="28.6953" ry="18"/>
<text text-anchor="middle" x="1051" y="-158.3" font-family="Times,serif" font-size="14.00" fill="#000000">2914</text>
</g>
<!-- 6453 -->
<g id="node21" class="node">
<title>6453</title>
<ellipse fill="none" stroke="#000000" cx="545" cy="-90" rx="28.6953" ry="18"/>
<text text-anchor="middle" x="545" y="-86.3" font-family="Times,serif" font-size="14.00" fill="#000000">6453</text>
</g>
<!-- 2914&#45;&gt;6453 -->
<g id="edge5" class="edge">
<title>2914&#45;&gt;6453</title>
<path fill="none" stroke="#000000" d="M1023.0745,-158.0264C937.8178,-145.895 680.7849,-109.3212 583.1698,-95.4313"/>
<polygon fill="#000000" stroke="#000000" points="583.5437,-91.9493 573.1503,-94.0056 582.5575,-98.8795 583.5437,-91.9493"/>
</g>
<!-- 3257 -->
<g id="node13" class="node">
<title>3257</title>
<ellipse fill="none" stroke="#000000" cx="620" cy="-18" rx="28.6953" ry="18"/>
<text text-anchor="middle" x="620" y="-14.3" font-family="Times,serif" font-size="14.00" fill="#000000">3257</text>
</g>
<!-- 3320 -->
<g id="node14" class="node">
<title>3320</title>
<ellipse fill="none" stroke="#000000" cx="695" cy="-18" rx="28.6953" ry="18"/>
<text text-anchor="middle" x="695" y="-14.3" font-family="Times,serif" font-size="14.00" fill="#000000">3320</text>
</g>
<!-- 3356 -->
<g id="node15" class="node">
<title>3356</title>
<ellipse fill="none" stroke="#000000" cx="1125" cy="-378" rx="28.6953" ry="18"/>
<text text-anchor="middle" x="1125" y="-374.3" font-family="Times,serif" font-size="14.00" fill="#000000">3356</text>
</g>
<!-- 3549 -->
<g id="node17" class="node">
<title>3549</title>
<ellipse fill="none" stroke="#000000" cx="1125" cy="-306" rx="28.6953" ry="18"/>
<text text-anchor="middle" x="1125" y="-302.3" font-family="Times,serif" font-size="14.00" fill="#000000">3549</text>
</g>
<!-- 3356&#45;&gt;3549 -->
<g id="edge6" class="edge">
<title>3356&#45;&gt;3549</title>
<path fill="none" stroke="#000000" d="M1125,-359.8314C1125,-352.131 1125,-342.9743 1125,-334.4166"/>
<polygon fill="#000000" stroke="#000000" points="1128.5001,-334.4132 1125,-324.4133 1121.5001,-334.4133 1128.5001,-334.4132"/>
</g>
<!-- 3491 -->
<g id="node16" class="node">
<title>3491</title>
<ellipse fill="none" stroke="#000000" cx="770" cy="-18" rx="28.6953" ry="18"/>
<text text-anchor="middle" x="770" y="-14.3" font-family="Times,serif" font-size="14.00" fill="#000000">3491</text>
</g>
<!-- 6762 -->
<g id="node23" class="node">
<title>6762</title>
<ellipse fill="none" stroke="#000000" cx="1086" cy="-234" rx="28.6953" ry="18"/>
<text text-anchor="middle" x="1086" y="-230.3" font-family="Times,serif" font-size="14.00" fill="#000000">6762</text>
</g>
<!-- 3549&#45;&gt;6762 -->
<g id="edge7" class="edge">
<title>3549&#45;&gt;6762</title>
<path fill="none" stroke="#000000" d="M1115.7575,-288.937C1111.1624,-280.4537 1105.505,-270.0092 1100.3612,-260.513"/>
<polygon fill="#000000" stroke="#000000" points="1103.2874,-258.5666 1095.447,-251.4407 1097.1324,-261.9006 1103.2874,-258.5666"/>
</g>
<!-- 30070 -->
<g id="node37" class="node">
<title>30070</title>
<ellipse fill="none" stroke="#000000" cx="1192" cy="-234" rx="32.4942" ry="18"/>
<text text-anchor="middle" x="1192" y="-230.3" font-family="Times,serif" font-size="14.00" fill="#000000">30070</text>
</g>
<!-- 3549&#45;&gt;30070 -->
<g id="edge8" class="edge">
<title>3549&#45;&gt;30070</title>
<path fill="none" stroke="#000000" d="M1139.538,-290.3771C1148.4573,-280.7921 1160.0506,-268.3337 1170.0698,-257.5667"/>
<polygon fill="#000000" stroke="#000000" points="1172.7764,-259.796 1177.0265,-250.091 1167.6519,-255.0274 1172.7764,-259.796"/>
</g>
<!-- 3597 -->
<g id="node18" class="node">
<title>3597</title>
<ellipse fill="none" stroke="#000000" cx="1087" cy="-522" rx="28.6953" ry="18"/>
<text text-anchor="middle" x="1087" y="-518.3" font-family="Times,serif" font-size="14.00" fill="#000000">3597</text>
</g>
<!-- 5511 -->
<g id="node19" class="node">
<title>5511</title>
<ellipse fill="none" stroke="#000000" cx="845" cy="-18" rx="28.6953" ry="18"/>
<text text-anchor="middle" x="845" y="-14.3" font-family="Times,serif" font-size="14.00" fill="#000000">5511</text>
</g>
<!-- 5692 -->
<g id="node20" class="node">
<title>5692</title>
<ellipse fill="none" stroke="#000000" cx="1581" cy="-594" rx="28.6953" ry="18"/>
<text text-anchor="middle" x="1581" y="-590.3" font-family="Times,serif" font-size="14.00" fill="#000000">5692</text>
</g>
<!-- 5692&#45;&gt;3597 -->
<g id="edge9" class="edge">
<title>5692&#45;&gt;3597</title>
<path fill="none" stroke="#000000" d="M1552.4155,-591.8332C1465.6364,-585.0637 1206.2092,-563.3629 1125,-540 1122.834,-539.3769 1120.6377,-538.6422 1118.45,-537.832"/>
<polygon fill="#000000" stroke="#000000" points="1119.6104,-534.5239 1109.0335,-533.9077 1116.9176,-540.9852 1119.6104,-534.5239"/>
</g>
<!-- 10834 -->
<g id="node30" class="node">
<title>10834</title>
<ellipse fill="none" stroke="#000000" cx="1166" cy="-522" rx="32.4942" ry="18"/>
<text text-anchor="middle" x="1166" y="-518.3" font-family="Times,serif" font-size="14.00" fill="#000000">10834</text>
</g>
<!-- 5692&#45;&gt;10834 -->
<g id="edge10" class="edge">
<title>5692&#45;&gt;10834</title>
<path fill="none" stroke="#000000" d="M1552.4009,-592.4071C1489.206,-588.3384 1333.3407,-575.2744 1208,-540 1205.5277,-539.3042 1203.009,-538.4966 1200.4952,-537.6164"/>
<polygon fill="#000000" stroke="#000000" points="1201.5223,-534.2617 1190.9321,-533.946 1199.0139,-540.7969 1201.5223,-534.2617"/>
</g>
<!-- 11008 -->
<g id="node31" class="node">
<title>11008</title>
<ellipse fill="none" stroke="#000000" cx="1249" cy="-522" rx="32.4942" ry="18"/>
<text text-anchor="middle" x="1249" y="-518.3" font-family="Times,serif" font-size="14.00" fill="#000000">11008</text>
</g>
<!-- 5692&#45;&gt;11008 -->
<g id="edge11" class="edge">
<title>5692&#45;&gt;11008</title>
<path fill="none" stroke="#000000" d="M1552.5102,-590.8151C1499.964,-584.4771 1384.605,-568.3918 1291,-540 1288.5422,-539.2545 1286.0344,-538.4097 1283.5284,-537.5026"/>
<polygon fill="#000000" stroke="#000000" points="1284.5706,-534.1522 1273.9825,-533.7737 1282.0236,-540.6724 1284.5706,-534.1522"/>
</g>
<!-- 27865 -->
<g id="node35" class="node">
<title>27865</title>
<ellipse fill="none" stroke="#000000" cx="1332" cy="-522" rx="32.4942" ry="18"/>
<text text-anchor="middle" x="1332" y="-518.3" font-family="Times,serif" font-size="14.00" fill="#000000">27865</text>
</g>
<!-- 5692&#45;&gt;27865 -->
<g id="edge12" class="edge">
<title>5692&#45;&gt;27865</title>
<path fill="none" stroke="#000000" d="M1553.8227,-588.2764C1513.889,-579.5606 1437.2444,-561.6654 1374,-540 1371.5703,-539.1677 1369.0834,-538.258 1366.5926,-537.3038"/>
<polygon fill="#000000" stroke="#000000" points="1367.6632,-533.9618 1357.0797,-533.4727 1365.0482,-540.455 1367.6632,-533.9618"/>
</g>
<!-- 28065 -->
<g id="node36" class="node">
<title>28065</title>
<ellipse fill="none" stroke="#000000" cx="1415" cy="-522" rx="32.4942" ry="18"/>
<text text-anchor="middle" x="1415" y="-518.3" font-family="Times,serif" font-size="14.00" fill="#000000">28065</text>
</g>
<!-- 5692&#45;&gt;28065 -->
<g id="edge13" class="edge">
<title>5692&#45;&gt;28065</title>
<path fill="none" stroke="#000000" d="M1557.2162,-583.6842C1529.1868,-571.5268 1482.3574,-551.2153 1450.141,-537.2419"/>
<polygon fill="#000000" stroke="#000000" points="1451.2158,-533.8931 1440.6489,-533.1248 1448.4304,-540.315 1451.2158,-533.8931"/>
</g>
<!-- 52317 -->
<g id="node38" class="node">
<title>52317</title>
<ellipse fill="none" stroke="#000000" cx="1498" cy="-522" rx="32.4942" ry="18"/>
<text text-anchor="middle" x="1498" y="-518.3" font-family="Times,serif" font-size="14.00" fill="#000000">52317</text>
</g>
<!-- 5692&#45;&gt;52317 -->
<g id="edge14" class="edge">
<title>5692&#45;&gt;52317</title>
<path fill="none" stroke="#000000" d="M1564.2037,-579.4297C1552.514,-569.2892 1536.7126,-555.5821 1523.479,-544.1023"/>
<polygon fill="#000000" stroke="#000000" points="1525.4781,-541.2031 1515.6307,-537.2941 1520.8912,-546.4908 1525.4781,-541.2031"/>
</g>
<!-- 52375 -->
<g id="node39" class="node">
<title>52375</title>
<ellipse fill="none" stroke="#000000" cx="1581" cy="-522" rx="32.4942" ry="18"/>
<text text-anchor="middle" x="1581" y="-518.3" font-family="Times,serif" font-size="14.00" fill="#000000">52375</text>
</g>
<!-- 5692&#45;&gt;52375 -->
<g id="edge15" class="edge">
<title>5692&#45;&gt;52375</title>
<path fill="none" stroke="#000000" d="M1581,-575.8314C1581,-568.131 1581,-558.9743 1581,-550.4166"/>
<polygon fill="#000000" stroke="#000000" points="1584.5001,-550.4132 1581,-540.4133 1577.5001,-550.4133 1584.5001,-550.4132"/>
</g>
<!-- 52376 -->
<g id="node40" class="node">
<title>52376</title>
<ellipse fill="none" stroke="#000000" cx="1664" cy="-522" rx="32.4942" ry="18"/>
<text text-anchor="middle" x="1664" y="-518.3" font-family="Times,serif" font-size="14.00" fill="#000000">52376</text>
</g>
<!-- 5692&#45;&gt;52376 -->
<g id="edge16" class="edge">
<title>5692&#45;&gt;52376</title>
<path fill="none" stroke="#000000" d="M1597.7963,-579.4297C1609.486,-569.2892 1625.2874,-555.5821 1638.521,-544.1023"/>
<polygon fill="#000000" stroke="#000000" points="1641.1088,-546.4908 1646.3693,-537.2941 1636.5219,-541.2031 1641.1088,-546.4908"/>
</g>
<!-- 52380 -->
<g id="node41" class="node">
<title>52380</title>
<ellipse fill="none" stroke="#000000" cx="1747" cy="-522" rx="32.4942" ry="18"/>
<text text-anchor="middle" x="1747" y="-518.3" font-family="Times,serif" font-size="14.00" fill="#000000">52380</text>
</g>
<!-- 5692&#45;&gt;52380 -->
<g id="edge17" class="edge">
<title>5692&#45;&gt;52380</title>
<path fill="none" stroke="#000000" d="M1604.7838,-583.6842C1632.8132,-571.5268 1679.6426,-551.2153 1711.859,-537.2419"/>
<polygon fill="#000000" stroke="#000000" points="1713.5696,-540.315 1721.3511,-533.1248 1710.7842,-533.8931 1713.5696,-540.315"/>
</g>
<!-- 52413 -->
<g id="node42" class="node">
<title>52413</title>
<ellipse fill="none" stroke="#000000" cx="1830" cy="-522" rx="32.4942" ry="18"/>
<text text-anchor="middle" x="1830" y="-518.3" font-family="Times,serif" font-size="14.00" fill="#000000">52413</text>
</g>
<!-- 5692&#45;&gt;52413 -->
<g id="edge18" class="edge">
<title>5692&#45;&gt;52413</title>
<path fill="none" stroke="#000000" d="M1608.1773,-588.2764C1648.111,-579.5606 1724.7556,-561.6654 1788,-540 1790.4297,-539.1677 1792.9166,-538.258 1795.4074,-537.3038"/>
<polygon fill="#000000" stroke="#000000" points="1796.9518,-540.455 1804.9203,-533.4727 1794.3368,-533.9618 1796.9518,-540.455"/>
</g>
<!-- 52431 -->
<g id="node43" class="node">
<title>52431</title>
<ellipse fill="none" stroke="#000000" cx="1913" cy="-522" rx="32.4942" ry="18"/>
<text text-anchor="middle" x="1913" y="-518.3" font-family="Times,serif" font-size="14.00" fill="#000000">52431</text>
</g>
<!-- 5692&#45;&gt;52431 -->
<g id="edge19" class="edge">
<title>5692&#45;&gt;52431</title>
<path fill="none" stroke="#000000" d="M1609.4898,-590.8151C1662.036,-584.4771 1777.395,-568.3918 1871,-540 1873.4578,-539.2545 1875.9656,-538.4097 1878.4716,-537.5026"/>
<polygon fill="#000000" stroke="#000000" points="1879.9764,-540.6724 1888.0175,-533.7737 1877.4294,-534.1522 1879.9764,-540.6724"/>
</g>
<!-- 262230 -->
<g id="node44" class="node">
<title>262230</title>
<ellipse fill="none" stroke="#000000" cx="2001" cy="-522" rx="37.0935" ry="18"/>
<text text-anchor="middle" x="2001" y="-518.3" font-family="Times,serif" font-size="14.00" fill="#000000">262230</text>
</g>
<!-- 5692&#45;&gt;262230 -->
<g id="edge20" class="edge">
<title>5692&#45;&gt;262230</title>
<path fill="none" stroke="#000000" d="M1609.5,-592.0413C1672.4973,-587.243 1827.9929,-572.8146 1954,-540 1957.1286,-539.1853 1960.3346,-538.23 1963.5303,-537.1919"/>
<polygon fill="#000000" stroke="#000000" points="1964.7111,-540.4869 1972.9989,-533.8866 1962.404,-533.878 1964.7111,-540.4869"/>
</g>
<!-- 264608 -->
<g id="node45" class="node">
<title>264608</title>
<ellipse fill="none" stroke="#000000" cx="2093" cy="-522" rx="37.0935" ry="18"/>
<text text-anchor="middle" x="2093" y="-518.3" font-family="Times,serif" font-size="14.00" fill="#000000">264608</text>
</g>
<!-- 5692&#45;&gt;264608 -->
<g id="edge21" class="edge">
<title>5692&#45;&gt;264608</title>
<path fill="none" stroke="#000000" d="M1609.8256,-593.2303C1683.6272,-590.71 1884.9921,-580.3639 2047,-540 2049.8085,-539.3003 2052.6759,-538.4722 2055.538,-537.5618"/>
<polygon fill="#000000" stroke="#000000" points="2056.8601,-540.8076 2065.1547,-534.216 2054.5599,-534.1963 2056.8601,-540.8076"/>
</g>
<!-- 6453&#45;&gt;174 -->
<g id="edge22" class="edge">
<title>6453&#45;&gt;174</title>
<path fill="none" stroke="#000000" d="M516.3681,-88.1159C426.2151,-81.9765 149.0948,-61.4676 63,-36 61.0903,-35.4351 59.1596,-34.7729 57.2363,-34.042"/>
<polygon fill="#000000" stroke="#000000" points="58.3789,-30.7224 47.8123,-29.9484 55.5899,-37.1429 58.3789,-30.7224"/>
</g>
<!-- 6453&#45;&gt;209 -->
<g id="edge23" class="edge">
<title>6453&#45;&gt;209</title>
<path fill="none" stroke="#000000" d="M516.2254,-89.4692C448.3397,-87.522 273.4926,-78.4315 135,-36 133.0959,-35.4166 131.1695,-34.74 129.2495,-33.9982"/>
<polygon fill="#000000" stroke="#000000" points="130.3985,-30.6806 119.8343,-29.8753 127.5906,-37.0927 130.3985,-30.6806"/>
</g>
<!-- 6453&#45;&gt;701 -->
<g id="edge24" class="edge">
<title>6453&#45;&gt;701</title>
<path fill="none" stroke="#000000" d="M516.2756,-88.3658C457.1062,-84.3628 317.8838,-71.6458 207,-36 205.1041,-35.3905 203.1841,-34.6936 201.2689,-33.9364"/>
<polygon fill="#000000" stroke="#000000" points="202.4275,-30.6216 191.8667,-29.7721 199.5927,-37.022 202.4275,-30.6216"/>
</g>
<!-- 6453&#45;&gt;1239 -->
<g id="edge25" class="edge">
<title>6453&#45;&gt;1239</title>
<path fill="none" stroke="#000000" d="M516.751,-86.5632C467.9151,-80.1042 364.9693,-64.2008 282,-36 280.1232,-35.3621 278.2184,-34.6509 276.314,-33.89"/>
<polygon fill="#000000" stroke="#000000" points="277.4878,-30.5832 266.9235,-29.778 274.6799,-36.9953 277.4878,-30.5832"/>
</g>
<!-- 6453&#45;&gt;1273 -->
<g id="edge26" class="edge">
<title>6453&#45;&gt;1273</title>
<path fill="none" stroke="#000000" d="M518.0598,-83.8212C481.1226,-74.9998 412.9619,-57.4639 357,-36 355.1492,-35.2901 353.2648,-34.5226 351.376,-33.7184"/>
<polygon fill="#000000" stroke="#000000" points="352.5822,-30.4225 342.0287,-29.4871 349.6954,-36.7996 352.5822,-30.4225"/>
</g>
<!-- 6453&#45;&gt;1299 -->
<g id="edge27" class="edge">
<title>6453&#45;&gt;1299</title>
<path fill="none" stroke="#000000" d="M522.0366,-79.084C499.1892,-68.2095 463.1404,-51.0151 432,-36 430.4075,-35.2321 428.777,-34.4445 427.1309,-33.6481"/>
<polygon fill="#000000" stroke="#000000" points="428.211,-30.282 417.686,-29.0674 425.1564,-36.5804 428.211,-30.282"/>
</g>
<!-- 6453&#45;&gt;2497 -->
<g id="edge28" class="edge">
<title>6453&#45;&gt;2497</title>
<path fill="none" stroke="#000000" d="M529.0944,-74.7307C518.6537,-64.7075 504.8251,-51.4321 493.1702,-40.2434"/>
<polygon fill="#000000" stroke="#000000" points="495.5204,-37.6478 485.8826,-33.2473 490.6727,-42.6976 495.5204,-37.6478"/>
</g>
<!-- 6453&#45;&gt;2828 -->
<g id="edge29" class="edge">
<title>6453&#45;&gt;2828</title>
<path fill="none" stroke="#000000" d="M545,-71.8314C545,-64.131 545,-54.9743 545,-46.4166"/>
<polygon fill="#000000" stroke="#000000" points="548.5001,-46.4132 545,-36.4133 541.5001,-46.4133 548.5001,-46.4132"/>
</g>
<!-- 6453&#45;&gt;3257 -->
<g id="edge30" class="edge">
<title>6453&#45;&gt;3257</title>
<path fill="none" stroke="#000000" d="M560.9056,-74.7307C571.3463,-64.7075 585.1749,-51.4321 596.8298,-40.2434"/>
<polygon fill="#000000" stroke="#000000" points="599.3273,-42.6976 604.1174,-33.2473 594.4796,-37.6478 599.3273,-42.6976"/>
</g>
<!-- 6453&#45;&gt;3320 -->
<g id="edge31" class="edge">
<title>6453&#45;&gt;3320</title>
<path fill="none" stroke="#000000" d="M567.9634,-79.084C590.8108,-68.2095 626.8596,-51.0151 658,-36 659.5925,-35.2321 661.223,-34.4445 662.8691,-33.6481"/>
<polygon fill="#000000" stroke="#000000" points="664.8436,-36.5804 672.314,-29.0674 661.789,-30.282 664.8436,-36.5804"/>
</g>
<!-- 6453&#45;&gt;3491 -->
<g id="edge32" class="edge">
<title>6453&#45;&gt;3491</title>
<path fill="none" stroke="#000000" d="M571.9402,-83.8212C608.8774,-74.9998 677.0381,-57.4639 733,-36 734.8508,-35.2901 736.7352,-34.5226 738.624,-33.7184"/>
<polygon fill="#000000" stroke="#000000" points="740.3046,-36.7996 747.9713,-29.4871 737.4178,-30.4225 740.3046,-36.7996"/>
</g>
<!-- 6453&#45;&gt;5511 -->
<g id="edge33" class="edge">
<title>6453&#45;&gt;5511</title>
<path fill="none" stroke="#000000" d="M573.249,-86.5632C622.0849,-80.1042 725.0307,-64.2008 808,-36 809.8768,-35.3621 811.7816,-34.6509 813.686,-33.89"/>
<polygon fill="#000000" stroke="#000000" points="815.3201,-36.9953 823.0765,-29.778 812.5122,-30.5832 815.3201,-36.9953"/>
</g>
<!-- 6461 -->
<g id="node22" class="node">
<title>6461</title>
<ellipse fill="none" stroke="#000000" cx="920" cy="-18" rx="28.6953" ry="18"/>
<text text-anchor="middle" x="920" y="-14.3" font-family="Times,serif" font-size="14.00" fill="#000000">6461</text>
</g>
<!-- 6453&#45;&gt;6461 -->
<g id="edge34" class="edge">
<title>6453&#45;&gt;6461</title>
<path fill="none" stroke="#000000" d="M573.6927,-88.2664C632.8038,-84.0801 771.9242,-71.0427 883,-36 884.8905,-35.4036 886.8058,-34.725 888.7185,-33.989"/>
<polygon fill="#000000" stroke="#000000" points="890.3245,-37.1084 898.1315,-29.9459 887.5618,-30.6766 890.3245,-37.1084"/>
</g>
<!-- 7018 -->
<g id="node26" class="node">
<title>7018</title>
<ellipse fill="none" stroke="#000000" cx="995" cy="-18" rx="28.6953" ry="18"/>
<text text-anchor="middle" x="995" y="-14.3" font-family="Times,serif" font-size="14.00" fill="#000000">7018</text>
</g>
<!-- 6453&#45;&gt;7018 -->
<g id="edge35" class="edge">
<title>6453&#45;&gt;7018</title>
<path fill="none" stroke="#000000" d="M573.7004,-89.4071C641.8328,-87.3251 818.0881,-77.9643 958,-36 959.8987,-35.4305 961.8206,-34.773 963.7382,-34.0532"/>
<polygon fill="#000000" stroke="#000000" points="965.3256,-37.1818 973.1649,-30.0547 962.5921,-30.7375 965.3256,-37.1818"/>
</g>
<!-- 6762&#45;&gt;2914 -->
<g id="edge36" class="edge">
<title>6762&#45;&gt;2914</title>
<path fill="none" stroke="#000000" d="M1077.5275,-216.5708C1073.4003,-208.0807 1068.3507,-197.6929 1063.7689,-188.2674"/>
<polygon fill="#000000" stroke="#000000" points="1066.9143,-186.7322 1059.3945,-179.2687 1060.6187,-189.7926 1066.9143,-186.7322"/>
</g>
<!-- 6904 -->
<g id="node24" class="node">
<title>6904</title>
<ellipse fill="none" stroke="#000000" cx="1145" cy="-162" rx="28.6953" ry="18"/>
<text text-anchor="middle" x="1145" y="-158.3" font-family="Times,serif" font-size="14.00" fill="#000000">6904</text>
</g>
<!-- 6904&#45;&gt;2687 -->
<g id="edge37" class="edge">
<title>6904&#45;&gt;2687</title>
<path fill="none" stroke="#000000" d="M1145,-143.8314C1145,-136.131 1145,-126.9743 1145,-118.4166"/>
<polygon fill="#000000" stroke="#000000" points="1148.5001,-118.4132 1145,-108.4133 1141.5001,-118.4133 1148.5001,-118.4132"/>
</g>
<!-- 7016 -->
<g id="node25" class="node">
<title>7016</title>
<ellipse fill="none" stroke="#000000" cx="1220" cy="-162" rx="28.6953" ry="18"/>
<text text-anchor="middle" x="1220" y="-158.3" font-family="Times,serif" font-size="14.00" fill="#000000">7016</text>
</g>
<!-- 7922 -->
<g id="node28" class="node">
<title>7922</title>
<ellipse fill="none" stroke="#000000" cx="1220" cy="-90" rx="28.6953" ry="18"/>
<text text-anchor="middle" x="1220" y="-86.3" font-family="Times,serif" font-size="14.00" fill="#000000">7922</text>
</g>
<!-- 7016&#45;&gt;7922 -->
<g id="edge38" class="edge">
<title>7016&#45;&gt;7922</title>
<path fill="none" stroke="#000000" d="M1220,-143.8314C1220,-136.131 1220,-126.9743 1220,-118.4166"/>
<polygon fill="#000000" stroke="#000000" points="1223.5001,-118.4132 1220,-108.4133 1216.5001,-118.4133 1223.5001,-118.4132"/>
</g>
<!-- 12956 -->
<g id="node32" class="node">
<title>12956</title>
<ellipse fill="none" stroke="#000000" cx="1125" cy="-450" rx="32.4942" ry="18"/>
<text text-anchor="middle" x="1125" y="-446.3" font-family="Times,serif" font-size="14.00" fill="#000000">12956</text>
</g>
<!-- 10834&#45;&gt;12956 -->
<g id="edge39" class="edge">
<title>10834&#45;&gt;12956</title>
<path fill="none" stroke="#000000" d="M1156.075,-504.5708C1151.19,-495.9922 1145.2017,-485.4762 1139.7903,-475.9732"/>
<polygon fill="#000000" stroke="#000000" points="1142.8234,-474.2266 1134.8336,-467.2687 1136.7405,-477.6905 1142.8234,-474.2266"/>
</g>
<!-- 22927 -->
<g id="node34" class="node">
<title>22927</title>
<ellipse fill="none" stroke="#000000" cx="1208" cy="-450" rx="32.4942" ry="18"/>
<text text-anchor="middle" x="1208" y="-446.3" font-family="Times,serif" font-size="14.00" fill="#000000">22927</text>
</g>
<!-- 10834&#45;&gt;22927 -->
<g id="edge40" class="edge">
<title>10834&#45;&gt;22927</title>
<path fill="none" stroke="#000000" d="M1176.167,-504.5708C1181.1712,-495.9922 1187.3055,-485.4762 1192.849,-475.9732"/>
<polygon fill="#000000" stroke="#000000" points="1195.9111,-477.6701 1197.9266,-467.2687 1189.8646,-474.1429 1195.9111,-477.6701"/>
</g>
<!-- 12956&#45;&gt;3356 -->
<g id="edge41" class="edge">
<title>12956&#45;&gt;3356</title>
<path fill="none" stroke="#000000" d="M1125,-431.8314C1125,-424.131 1125,-414.9743 1125,-406.4166"/>
<polygon fill="#000000" stroke="#000000" points="1128.5001,-406.4132 1125,-396.4133 1121.5001,-406.4133 1128.5001,-406.4132"/>
</g>
<!-- 18540 -->
<g id="node33" class="node">
<title>18540</title>
<ellipse fill="none" stroke="#000000" cx="1299" cy="-162" rx="32.4942" ry="18"/>
<text text-anchor="middle" x="1299" y="-158.3" font-family="Times,serif" font-size="14.00" fill="#000000">18540</text>
</g>
<!-- 30070&#45;&gt;6904 -->
<g id="edge42" class="edge">
<title>30070&#45;&gt;6904</title>
<path fill="none" stroke="#000000" d="M1180.8617,-216.937C1175.1255,-208.1496 1168.0156,-197.2579 1161.6429,-187.4956"/>
<polygon fill="#000000" stroke="#000000" points="1164.4555,-185.4011 1156.0584,-178.9405 1158.5938,-189.2275 1164.4555,-185.4011"/>
</g>
<!-- 30070&#45;&gt;7016 -->
<g id="edge43" class="edge">
<title>30070&#45;&gt;7016</title>
<path fill="none" stroke="#000000" d="M1198.9214,-216.2022C1202.1086,-208.0064 1205.9602,-198.1024 1209.4943,-189.0145"/>
<polygon fill="#000000" stroke="#000000" points="1212.7958,-190.1817 1213.1583,-179.593 1206.2717,-187.6445 1212.7958,-190.1817"/>
</g>
<!-- 30070&#45;&gt;18540 -->
<g id="edge44" class="edge">
<title>30070&#45;&gt;18540</title>
<path fill="none" stroke="#000000" d="M1212.8847,-219.9468C1229.0871,-209.0442 1251.7431,-193.799 1269.7502,-181.6821"/>
<polygon fill="#000000" stroke="#000000" points="1271.8254,-184.5044 1278.168,-176.0178 1267.9174,-178.6968 1271.8254,-184.5044"/>
</g>
</g>
</svg>
