<?xml version="1.0" encoding="UTF-8" standalone="no"?>
<!DOCTYPE svg PUBLIC "-//W3C//DTD SVG 1.1//EN"
 "http://www.w3.org/Graphics/SVG/1.1/DTD/svg11.dtd">
<!-- Generated by graphviz version 2.40.1 (20161225.0304)
 -->
<!-- Title: %3 Pages: 1 -->
<svg width="686pt" height="794pt"
 viewBox="0.00 0.00 685.76 794.36" xmlns="http://www.w3.org/2000/svg" xmlns:xlink="http://www.w3.org/1999/xlink">
<g id="graph0" class="graph" transform="scale(1 1) rotate(0) translate(4 790.3568)">
<title>%3</title>
<polygon fill="#ffffff" stroke="transparent" points="-4,4 -4,-790.3568 681.7614,-790.3568 681.7614,4 -4,4"/>
<!-- 174 -->
<g id="node1" class="node">
<title>174</title>
<ellipse fill="none" stroke="#000000" cx="27" cy="-116.9536" rx="27" ry="18"/>
<text text-anchor="middle" x="27" y="-113.2536" font-family="Times,serif" font-size="14.00" fill="#000000">174</text>
</g>
<!-- 209 -->
<g id="node2" class="node">
<title>209</title>
<ellipse fill="none" stroke="#000000" cx="197.3464" cy="-54.1613" rx="27" ry="18"/>
<text text-anchor="middle" x="197.3464" y="-50.4613" font-family="Times,serif" font-size="14.00" fill="#000000">209</text>
</g>
<!-- 701 -->
<g id="node3" class="node">
<title>701</title>
<ellipse fill="none" stroke="#000000" cx="99.325" cy="-18" rx="27" ry="18"/>
<text text-anchor="middle" x="99.325" y="-14.3" font-family="Times,serif" font-size="14.00" fill="#000000">701</text>
</g>
<!-- 1239 -->
<g id="node4" class="node">
<title>1239</title>
<ellipse fill="none" stroke="#000000" cx="87.7721" cy="-185.8036" rx="28.6953" ry="18"/>
<text text-anchor="middle" x="87.7721" y="-182.1036" font-family="Times,serif" font-size="14.00" fill="#000000">1239</text>
</g>
<!-- 1273 -->
<g id="node5" class="node">
<title>1273</title>
<ellipse fill="none" stroke="#000000" cx="181.7977" cy="-119.235" rx="28.6953" ry="18"/>
<text text-anchor="middle" x="181.7977" y="-115.535" font-family="Times,serif" font-size="14.00" fill="#000000">1273</text>
</g>
<!-- 1299 -->
<g id="node6" class="node">
<title>1299</title>
<ellipse fill="none" stroke="#000000" cx="70.9871" cy="-153.9032" rx="28.6953" ry="18"/>
<text text-anchor="middle" x="70.9871" y="-150.2032" font-family="Times,serif" font-size="14.00" fill="#000000">1299</text>
</g>
<!-- 2497 -->
<g id="node7" class="node">
<title>2497</title>
<ellipse fill="none" stroke="#000000" cx="49.9631" cy="-49.1746" rx="28.6953" ry="18"/>
<text text-anchor="middle" x="49.9631" y="-45.4746" font-family="Times,serif" font-size="14.00" fill="#000000">2497</text>
</g>
<!-- 2516 -->
<g id="node8" class="node">
<title>2516</title>
<ellipse fill="none" stroke="#000000" cx="649.1639" cy="-263.5124" rx="28.6953" ry="18"/>
<text text-anchor="middle" x="649.1639" y="-259.8124" font-family="Times,serif" font-size="14.00" fill="#000000">2516</text>
</g>
<!-- 2686 -->
<g id="node9" class="node">
<title>2686</title>
<ellipse fill="none" stroke="#000000" cx="629.5453" cy="-200.1723" rx="28.6953" ry="18"/>
<text text-anchor="middle" x="629.5453" y="-196.4723" font-family="Times,serif" font-size="14.00" fill="#000000">2686</text>
</g>
<!-- 2687 -->
<g id="node10" class="node">
<title>2687</title>
<ellipse fill="none" stroke="#000000" cx="568.1962" cy="-253.8777" rx="28.6953" ry="18"/>
<text text-anchor="middle" x="568.1962" y="-250.1777" font-family="Times,serif" font-size="14.00" fill="#000000">2687</text>
</g>
<!-- 2687&#45;&gt;2516 -->
<g id="edge1" class="edge">
<title>2687&#45;&gt;2516</title>
<path fill="none" stroke="#000000" d="M596.5148,-257.2475C601.1022,-257.7934 605.9193,-258.3666 610.6988,-258.9353"/>
<polygon fill="#000000" stroke="#000000" points="610.6545,-262.4547 620.9981,-260.1609 611.4817,-255.5037 610.6545,-262.4547"/>
</g>
<!-- 2687&#45;&gt;2686 -->
<g id="edge2" class="edge">
<title>2687&#45;&gt;2686</title>
<path fill="none" stroke="#000000" d="M584.9601,-239.2025C591.182,-233.7559 598.3725,-227.4612 605.1381,-221.5386"/>
<polygon fill="#000000" stroke="#000000" points="607.5828,-224.0501 612.8017,-214.8298 602.972,-218.7831 607.5828,-224.0501"/>
</g>
<!-- 7473 -->
<g id="node27" class="node">
<title>7473</title>
<ellipse fill="none" stroke="#000000" cx="625.7856" cy="-317.4987" rx="28.6953" ry="18"/>
<text text-anchor="middle" x="625.7856" y="-313.7987" font-family="Times,serif" font-size="14.00" fill="#000000">7473</text>
</g>
<!-- 2687&#45;&gt;7473 -->
<g id="edge3" class="edge">
<title>2687&#45;&gt;7473</title>
<path fill="none" stroke="#000000" d="M582.4318,-269.6043C589.0955,-276.9659 597.171,-285.8872 604.5375,-294.0252"/>
<polygon fill="#000000" stroke="#000000" points="602.008,-296.4462 611.3137,-301.5111 607.1976,-291.7485 602.008,-296.4462"/>
</g>
<!-- 9505 -->
<g id="node29" class="node">
<title>9505</title>
<ellipse fill="none" stroke="#000000" cx="579.4883" cy="-170.1158" rx="28.6953" ry="18"/>
<text text-anchor="middle" x="579.4883" y="-166.4158" font-family="Times,serif" font-size="14.00" fill="#000000">9505</text>
</g>
<!-- 2687&#45;&gt;9505 -->
<g id="edge4" class="edge">
<title>2687&#45;&gt;9505</title>
<path fill="none" stroke="#000000" d="M570.6464,-235.7026C572.1114,-224.8361 574.0043,-210.7948 575.6626,-198.4938"/>
<polygon fill="#000000" stroke="#000000" points="579.1754,-198.6334 577.0429,-188.2554 572.2382,-197.6981 579.1754,-198.6334"/>
</g>
<!-- 2828 -->
<g id="node11" class="node">
<title>2828</title>
<ellipse fill="none" stroke="#000000" cx="92.5329" cy="-53.0524" rx="28.6953" ry="18"/>
<text text-anchor="middle" x="92.5329" y="-49.3524" font-family="Times,serif" font-size="14.00" fill="#000000">2828</text>
</g>
<!-- 2914 -->
<g id="node12" class="node">
<title>2914</title>
<ellipse fill="none" stroke="#000000" cx="183.5899" cy="-193.5006" rx="28.6953" ry="18"/>
<text text-anchor="middle" x="183.5899" y="-189.8006" font-family="Times,serif" font-size="14.00" fill="#000000">2914</text>
</g>
<!-- 6453 -->
<g id="node21" class="node">
<title>6453</title>
<ellipse fill="none" stroke="#000000" cx="120.8403" cy="-107.4998" rx="28.6953" ry="18"/>
<text text-anchor="middle" x="120.8403" y="-103.7998" font-family="Times,serif" font-size="14.00" fill="#000000">6453</text>
</g>
<!-- 2914&#45;&gt;6453 -->
<g id="edge5" class="edge">
<title>2914&#45;&gt;6453</title>
<path fill="none" stroke="#000000" d="M171.4912,-176.9188C162.2894,-164.3074 149.4761,-146.7462 139.0395,-132.4424"/>
<polygon fill="#000000" stroke="#000000" points="141.6236,-130.046 132.902,-124.0307 135.9688,-134.1719 141.6236,-130.046"/>
</g>
<!-- 3257 -->
<g id="node13" class="node">
<title>3257</title>
<ellipse fill="none" stroke="#000000" cx="204.2595" cy="-90.5135" rx="28.6953" ry="18"/>
<text text-anchor="middle" x="204.2595" y="-86.8135" font-family="Times,serif" font-size="14.00" fill="#000000">3257</text>
</g>
<!-- 3320 -->
<g id="node14" class="node">
<title>3320</title>
<ellipse fill="none" stroke="#000000" cx="135.2024" cy="-161.2195" rx="28.6953" ry="18"/>
<text text-anchor="middle" x="135.2024" y="-157.5195" font-family="Times,serif" font-size="14.00" fill="#000000">3320</text>
</g>
<!-- 3356 -->
<g id="node15" class="node">
<title>3356</title>
<ellipse fill="none" stroke="#000000" cx="269.2835" cy="-414.8804" rx="28.6953" ry="18"/>
<text text-anchor="middle" x="269.2835" y="-411.1804" font-family="Times,serif" font-size="14.00" fill="#000000">3356</text>
</g>
<!-- 3549 -->
<g id="node17" class="node">
<title>3549</title>
<ellipse fill="none" stroke="#000000" cx="300.7309" cy="-328.9836" rx="28.6953" ry="18"/>
<text text-anchor="middle" x="300.7309" y="-325.2836" font-family="Times,serif" font-size="14.00" fill="#000000">3549</text>
</g>
<!-- 3356&#45;&gt;3549 -->
<g id="edge6" class="edge">
<title>3356&#45;&gt;3549</title>
<path fill="none" stroke="#000000" d="M275.7994,-397.0825C280.1003,-385.335 285.8202,-369.7113 290.6964,-356.3922"/>
<polygon fill="#000000" stroke="#000000" points="294.072,-357.3524 294.2233,-346.7586 287.4987,-354.9458 294.072,-357.3524"/>
</g>
<!-- 3491 -->
<g id="node16" class="node">
<title>3491</title>
<ellipse fill="none" stroke="#000000" cx="168.6452" cy="-38.2285" rx="28.6953" ry="18"/>
<text text-anchor="middle" x="168.6452" y="-34.5285" font-family="Times,serif" font-size="14.00" fill="#000000">3491</text>
</g>
<!-- 6762 -->
<g id="node23" class="node">
<title>6762</title>
<ellipse fill="none" stroke="#000000" cx="239.5888" cy="-261.6499" rx="28.6953" ry="18"/>
<text text-anchor="middle" x="239.5888" y="-257.9499" font-family="Times,serif" font-size="14.00" fill="#000000">6762</text>
</g>
<!-- 3549&#45;&gt;6762 -->
<g id="edge7" class="edge">
<title>3549&#45;&gt;6762</title>
<path fill="none" stroke="#000000" d="M286.2411,-313.0264C278.6266,-304.6408 269.1514,-294.2061 260.7332,-284.9355"/>
<polygon fill="#000000" stroke="#000000" points="263.2883,-282.5429 253.9746,-277.4925 258.106,-287.2487 263.2883,-282.5429"/>
</g>
<!-- 30070 -->
<g id="node37" class="node">
<title>30070</title>
<ellipse fill="none" stroke="#000000" cx="394.7969" cy="-314.3606" rx="32.4942" ry="18"/>
<text text-anchor="middle" x="394.7969" y="-310.6606" font-family="Times,serif" font-size="14.00" fill="#000000">30070</text>
</g>
<!-- 3549&#45;&gt;30070 -->
<g id="edge8" class="edge">
<title>3549&#45;&gt;30070</title>
<path fill="none" stroke="#000000" d="M328.6991,-324.6358C336.4765,-323.4268 345.091,-322.0876 353.4613,-320.7864"/>
<polygon fill="#000000" stroke="#000000" points="354.1337,-324.224 363.4773,-319.2294 353.0583,-317.3071 354.1337,-324.224"/>
</g>
<!-- 3597 -->
<g id="node18" class="node">
<title>3597</title>
<ellipse fill="none" stroke="#000000" cx="121.7081" cy="-724.7141" rx="28.6953" ry="18"/>
<text text-anchor="middle" x="121.7081" y="-721.0141" font-family="Times,serif" font-size="14.00" fill="#000000">3597</text>
</g>
<!-- 5511 -->
<g id="node19" class="node">
<title>5511</title>
<ellipse fill="none" stroke="#000000" cx="36.7345" cy="-157.3038" rx="28.6953" ry="18"/>
<text text-anchor="middle" x="36.7345" y="-153.6038" font-family="Times,serif" font-size="14.00" fill="#000000">5511</text>
</g>
<!-- 5692 -->
<g id="node20" class="node">
<title>5692</title>
<ellipse fill="none" stroke="#000000" cx="205.3459" cy="-681.24" rx="28.6953" ry="18"/>
<text text-anchor="middle" x="205.3459" y="-677.54" font-family="Times,serif" font-size="14.00" fill="#000000">5692</text>
</g>
<!-- 5692&#45;&gt;3597 -->
<g id="edge9" class="edge">
<title>5692&#45;&gt;3597</title>
<path fill="none" stroke="#000000" d="M182.9325,-692.8902C173.6708,-697.7044 162.7774,-703.3667 152.7666,-708.5702"/>
<polygon fill="#000000" stroke="#000000" points="151.1521,-705.4648 143.8933,-713.1824 154.3805,-711.6758 151.1521,-705.4648"/>
</g>
<!-- 10834 -->
<g id="node30" class="node">
<title>10834</title>
<ellipse fill="none" stroke="#000000" cx="207.3709" cy="-578.4353" rx="32.4942" ry="18"/>
<text text-anchor="middle" x="207.3709" y="-574.7353" font-family="Times,serif" font-size="14.00" fill="#000000">10834</text>
</g>
<!-- 5692&#45;&gt;10834 -->
<g id="edge10" class="edge">
<title>5692&#45;&gt;10834</title>
<path fill="none" stroke="#000000" d="M205.7079,-662.8606C206.0146,-647.2912 206.4594,-624.7124 206.8118,-606.8215"/>
<polygon fill="#000000" stroke="#000000" points="210.3143,-606.7226 207.012,-596.6556 203.3157,-606.5847 210.3143,-606.7226"/>
</g>
<!-- 11008 -->
<g id="node31" class="node">
<title>11008</title>
<ellipse fill="none" stroke="#000000" cx="246.8292" cy="-731.3029" rx="32.4942" ry="18"/>
<text text-anchor="middle" x="246.8292" y="-727.6029" font-family="Times,serif" font-size="14.00" fill="#000000">11008</text>
</g>
<!-- 5692&#45;&gt;11008 -->
<g id="edge11" class="edge">
<title>5692&#45;&gt;11008</title>
<path fill="none" stroke="#000000" d="M218.6998,-697.3558C221.2386,-700.4196 223.9472,-703.6885 226.6433,-706.9422"/>
<polygon fill="#000000" stroke="#000000" points="224.14,-709.4067 233.2155,-714.8736 229.5301,-704.9404 224.14,-709.4067"/>
</g>
<!-- 27865 -->
<g id="node35" class="node">
<title>27865</title>
<ellipse fill="none" stroke="#000000" cx="285.556" cy="-735.5289" rx="32.4942" ry="18"/>
<text text-anchor="middle" x="285.556" y="-731.8289" font-family="Times,serif" font-size="14.00" fill="#000000">27865</text>
</g>
<!-- 5692&#45;&gt;27865 -->
<g id="edge12" class="edge">
<title>5692&#45;&gt;27865</title>
<path fill="none" stroke="#000000" d="M225.1731,-694.6597C234.5964,-701.0377 246.0466,-708.7876 256.4323,-715.817"/>
<polygon fill="#000000" stroke="#000000" points="254.5947,-718.7995 264.838,-721.5062 258.5183,-713.0025 254.5947,-718.7995"/>
</g>
<!-- 28065 -->
<g id="node36" class="node">
<title>28065</title>
<ellipse fill="none" stroke="#000000" cx="244.4111" cy="-639.3623" rx="32.4942" ry="18"/>
<text text-anchor="middle" x="244.4111" y="-635.6623" font-family="Times,serif" font-size="14.00" fill="#000000">28065</text>
</g>
<!-- 5692&#45;&gt;28065 -->
<g id="edge13" class="edge">
<title>5692&#45;&gt;28065</title>
<path fill="none" stroke="#000000" d="M219.8923,-665.6463C220.7709,-664.7045 221.6639,-663.7472 222.5635,-662.7828"/>
<polygon fill="#000000" stroke="#000000" points="225.1991,-665.0885 229.4611,-655.3887 220.0804,-660.3136 225.1991,-665.0885"/>
</g>
<!-- 52317 -->
<g id="node38" class="node">
<title>52317</title>
<ellipse fill="none" stroke="#000000" cx="232.7511" cy="-768.3568" rx="32.4942" ry="18"/>
<text text-anchor="middle" x="232.7511" y="-764.6568" font-family="Times,serif" font-size="14.00" fill="#000000">52317</text>
</g>
<!-- 5692&#45;&gt;52317 -->
<g id="edge14" class="edge">
<title>5692&#45;&gt;52317</title>
<path fill="none" stroke="#000000" d="M211.0243,-699.2906C214.7723,-711.205 219.757,-727.0507 224.0064,-740.5589"/>
<polygon fill="#000000" stroke="#000000" points="220.7404,-741.8404 227.08,-750.3292 227.4178,-739.7398 220.7404,-741.8404"/>
</g>
<!-- 52375 -->
<g id="node39" class="node">
<title>52375</title>
<ellipse fill="none" stroke="#000000" cx="140.1443" cy="-684.0046" rx="32.4942" ry="18"/>
<text text-anchor="middle" x="140.1443" y="-680.3046" font-family="Times,serif" font-size="14.00" fill="#000000">52375</text>
</g>
<!-- 5692&#45;&gt;52375 -->
<g id="edge15" class="edge">
<title>5692&#45;&gt;52375</title>
<path fill="none" stroke="#000000" d="M176.5578,-682.4607C176.4042,-682.4672 176.2506,-682.4737 176.0969,-682.4802"/>
<polygon fill="#000000" stroke="#000000" points="182.7012,-678.6967 172.8585,-682.6175 182.9979,-685.6904 182.7012,-678.6967"/>
</g>
<!-- 52376 -->
<g id="node40" class="node">
<title>52376</title>
<ellipse fill="none" stroke="#000000" cx="107.7127" cy="-670.5719" rx="32.4942" ry="18"/>
<text text-anchor="middle" x="107.7127" y="-666.8719" font-family="Times,serif" font-size="14.00" fill="#000000">52376</text>
</g>
<!-- 5692&#45;&gt;52376 -->
<g id="edge16" class="edge">
<title>5692&#45;&gt;52376</title>
<path fill="none" stroke="#000000" d="M177.1063,-678.1543C168.5953,-677.2244 159.0628,-676.1828 149.8534,-675.1765"/>
<polygon fill="#000000" stroke="#000000" points="149.9856,-671.6702 139.6646,-674.0632 149.2252,-678.6288 149.9856,-671.6702"/>
</g>
<!-- 52380 -->
<g id="node41" class="node">
<title>52380</title>
<ellipse fill="none" stroke="#000000" cx="189.4316" cy="-764.2577" rx="32.4942" ry="18"/>
<text text-anchor="middle" x="189.4316" y="-760.5577" font-family="Times,serif" font-size="14.00" fill="#000000">52380</text>
</g>
<!-- 5692&#45;&gt;52380 -->
<g id="edge17" class="edge">
<title>5692&#45;&gt;52380</title>
<path fill="none" stroke="#000000" d="M201.8927,-699.2536C199.8281,-710.0236 197.1604,-723.9402 194.8233,-736.1318"/>
<polygon fill="#000000" stroke="#000000" points="191.3234,-735.7991 192.878,-746.2793 198.1982,-737.1171 191.3234,-735.7991"/>
</g>
<!-- 52413 -->
<g id="node42" class="node">
<title>52413</title>
<ellipse fill="none" stroke="#000000" cx="154.5457" cy="-748.6499" rx="32.4942" ry="18"/>
<text text-anchor="middle" x="154.5457" y="-744.9499" font-family="Times,serif" font-size="14.00" fill="#000000">52413</text>
</g>
<!-- 5692&#45;&gt;52413 -->
<g id="edge18" class="edge">
<title>5692&#45;&gt;52413</title>
<path fill="none" stroke="#000000" d="M193.0486,-697.5581C187.0849,-705.4716 179.7942,-715.1461 173.1676,-723.9394"/>
<polygon fill="#000000" stroke="#000000" points="170.3059,-721.9212 167.0827,-732.0138 175.8963,-726.1341 170.3059,-721.9212"/>
</g>
<!-- 52431 -->
<g id="node43" class="node">
<title>52431</title>
<ellipse fill="none" stroke="#000000" cx="151.572" cy="-637.2171" rx="32.4942" ry="18"/>
<text text-anchor="middle" x="151.572" y="-633.5171" font-family="Times,serif" font-size="14.00" fill="#000000">52431</text>
</g>
<!-- 5692&#45;&gt;52431 -->
<g id="edge19" class="edge">
<title>5692&#45;&gt;52431</title>
<path fill="none" stroke="#000000" d="M187.7383,-666.8253C184.6561,-664.302 181.3885,-661.6269 178.1274,-658.9572"/>
<polygon fill="#000000" stroke="#000000" points="180.0987,-656.0477 170.1438,-652.4212 175.6644,-661.4641 180.0987,-656.0477"/>
</g>
<!-- 262230 -->
<g id="node44" class="node">
<title>262230</title>
<ellipse fill="none" stroke="#000000" cx="296.6783" cy="-694.7477" rx="37.0935" ry="18"/>
<text text-anchor="middle" x="296.6783" y="-691.0477" font-family="Times,serif" font-size="14.00" fill="#000000">262230</text>
</g>
<!-- 5692&#45;&gt;262230 -->
<g id="edge20" class="edge">
<title>5692&#45;&gt;262230</title>
<path fill="none" stroke="#000000" d="M233.2449,-685.3661C238.8908,-686.2011 244.966,-687.0996 251.0406,-687.998"/>
<polygon fill="#000000" stroke="#000000" points="250.7825,-691.4979 261.187,-689.4987 251.8067,-684.5732 250.7825,-691.4979"/>
</g>
<!-- 264608 -->
<g id="node45" class="node">
<title>264608</title>
<ellipse fill="none" stroke="#000000" cx="283.7592" cy="-659.0575" rx="37.0935" ry="18"/>
<text text-anchor="middle" x="283.7592" y="-655.3575" font-family="Times,serif" font-size="14.00" fill="#000000">264608</text>
</g>
<!-- 5692&#45;&gt;264608 -->
<g id="edge21" class="edge">
<title>5692&#45;&gt;264608</title>
<path fill="none" stroke="#000000" d="M231.4564,-673.8535C234.7644,-672.9177 238.2129,-671.9422 241.6916,-670.9581"/>
<polygon fill="#000000" stroke="#000000" points="242.814,-674.278 251.4836,-668.188 240.9085,-667.5423 242.814,-674.278"/>
</g>
<!-- 6453&#45;&gt;174 -->
<g id="edge22" class="edge">
<title>6453&#45;&gt;174</title>
<path fill="none" stroke="#000000" d="M92.4305,-110.3619C83.3981,-111.2718 73.2759,-112.2916 63.7425,-113.252"/>
<polygon fill="#000000" stroke="#000000" points="63.3072,-109.778 53.7084,-114.2629 64.0089,-116.7428 63.3072,-109.778"/>
</g>
<!-- 6453&#45;&gt;209 -->
<g id="edge23" class="edge">
<title>6453&#45;&gt;209</title>
<path fill="none" stroke="#000000" d="M140.1461,-94.0402C149.2531,-87.6909 160.2771,-80.0053 170.2069,-73.0824"/>
<polygon fill="#000000" stroke="#000000" points="172.3743,-75.838 178.5758,-67.2477 168.3709,-70.0958 172.3743,-75.838"/>
</g>
<!-- 6453&#45;&gt;701 -->
<g id="edge24" class="edge">
<title>6453&#45;&gt;701</title>
<path fill="none" stroke="#000000" d="M116.4864,-89.3881C113.4629,-76.8109 109.3783,-59.8197 105.9525,-45.5692"/>
<polygon fill="#000000" stroke="#000000" points="109.3395,-44.6841 103.599,-35.7792 102.5334,-46.3203 109.3395,-44.6841"/>
</g>
<!-- 6453&#45;&gt;1239 -->
<g id="edge25" class="edge">
<title>6453&#45;&gt;1239</title>
<path fill="none" stroke="#000000" d="M113.3366,-125.2681C109.1215,-135.2494 103.7767,-147.9055 99.0653,-159.062"/>
<polygon fill="#000000" stroke="#000000" points="95.7984,-157.8014 95.1322,-168.3753 102.2469,-160.5247 95.7984,-157.8014"/>
</g>
<!-- 6453&#45;&gt;1273 -->
<g id="edge26" class="edge">
<title>6453&#45;&gt;1273</title>
<path fill="none" stroke="#000000" d="M148.4654,-112.818C148.5835,-112.8408 148.7017,-112.8635 148.8199,-112.8863"/>
<polygon fill="#000000" stroke="#000000" points="143.6691,-115.4588 154.1505,-113.9125 144.9925,-108.585 143.6691,-115.4588"/>
</g>
<!-- 6453&#45;&gt;1299 -->
<g id="edge27" class="edge">
<title>6453&#45;&gt;1299</title>
<path fill="none" stroke="#000000" d="M104.7921,-122.4375C101.5667,-125.4397 98.1132,-128.6542 94.6906,-131.84"/>
<polygon fill="#000000" stroke="#000000" points="92.2828,-129.2996 87.3476,-138.6749 97.0521,-134.4235 92.2828,-129.2996"/>
</g>
<!-- 6453&#45;&gt;2497 -->
<g id="edge28" class="edge">
<title>6453&#45;&gt;2497</title>
<path fill="none" stroke="#000000" d="M103.3201,-93.0823C94.9497,-86.1943 84.7695,-77.8169 75.5542,-70.2336"/>
<polygon fill="#000000" stroke="#000000" points="77.7197,-67.483 67.7741,-63.8313 73.2718,-72.8882 77.7197,-67.483"/>
</g>
<!-- 6453&#45;&gt;2828 -->
<g id="edge29" class="edge">
<title>6453&#45;&gt;2828</title>
<path fill="none" stroke="#000000" d="M111.8837,-90.2723C110.0767,-86.7965 108.1384,-83.0684 106.2118,-79.3628"/>
<polygon fill="#000000" stroke="#000000" points="109.2468,-77.6127 101.5285,-70.3547 103.036,-80.8417 109.2468,-77.6127"/>
</g>
<!-- 6453&#45;&gt;3257 -->
<g id="edge30" class="edge">
<title>6453&#45;&gt;3257</title>
<path fill="none" stroke="#000000" d="M148.1549,-101.9378C154.2044,-100.706 160.7143,-99.3804 167.0817,-98.0839"/>
<polygon fill="#000000" stroke="#000000" points="167.7831,-101.513 176.8836,-96.088 166.3863,-94.6537 167.7831,-101.513"/>
</g>
<!-- 6453&#45;&gt;3320 -->
<g id="edge31" class="edge">
<title>6453&#45;&gt;3320</title>
<path fill="none" stroke="#000000" d="M125.6227,-125.3877C126.3178,-127.9877 127.0469,-130.7145 127.7792,-133.4539"/>
<polygon fill="#000000" stroke="#000000" points="124.4279,-134.4699 130.392,-143.2266 131.1903,-132.6618 124.4279,-134.4699"/>
</g>
<!-- 6453&#45;&gt;3491 -->
<g id="edge32" class="edge">
<title>6453&#45;&gt;3491</title>
<path fill="none" stroke="#000000" d="M132.4126,-90.7311C138.1084,-82.4776 145.0905,-72.3602 151.4001,-63.2173"/>
<polygon fill="#000000" stroke="#000000" points="154.3803,-65.0611 157.1795,-54.8427 148.619,-61.0851 154.3803,-65.0611"/>
</g>
<!-- 6453&#45;&gt;5511 -->
<g id="edge33" class="edge">
<title>6453&#45;&gt;5511</title>
<path fill="none" stroke="#000000" d="M99.6169,-120.0674C89.5801,-126.0108 77.4254,-133.2083 66.4879,-139.6851"/>
<polygon fill="#000000" stroke="#000000" points="64.481,-136.8058 57.6598,-144.9127 68.0478,-142.829 64.481,-136.8058"/>
</g>
<!-- 6461 -->
<g id="node22" class="node">
<title>6461</title>
<ellipse fill="none" stroke="#000000" cx="42.1445" cy="-86.2092" rx="28.6953" ry="18"/>
<text text-anchor="middle" x="42.1445" y="-82.5092" font-family="Times,serif" font-size="14.00" fill="#000000">6461</text>
</g>
<!-- 6453&#45;&gt;6461 -->
<g id="edge34" class="edge">
<title>6453&#45;&gt;6461</title>
<path fill="none" stroke="#000000" d="M94.1975,-100.2917C89.1435,-98.9244 83.7762,-97.4723 78.482,-96.04"/>
<polygon fill="#000000" stroke="#000000" points="79.0598,-92.5705 68.4927,-93.3375 77.2316,-99.3276 79.0598,-92.5705"/>
</g>
<!-- 7018 -->
<g id="node26" class="node">
<title>7018</title>
<ellipse fill="none" stroke="#000000" cx="141.7238" cy="-18.7687" rx="28.6953" ry="18"/>
<text text-anchor="middle" x="141.7238" y="-15.0687" font-family="Times,serif" font-size="14.00" fill="#000000">7018</text>
</g>
<!-- 6453&#45;&gt;7018 -->
<g id="edge35" class="edge">
<title>6453&#45;&gt;7018</title>
<path fill="none" stroke="#000000" d="M125.0664,-89.5437C127.9537,-77.2763 131.8377,-60.7732 135.129,-46.789"/>
<polygon fill="#000000" stroke="#000000" points="138.6199,-47.2339 137.504,-36.698 131.8061,-45.6302 138.6199,-47.2339"/>
</g>
<!-- 6762&#45;&gt;2914 -->
<g id="edge36" class="edge">
<title>6762&#45;&gt;2914</title>
<path fill="none" stroke="#000000" d="M226.3178,-245.4995C219.4136,-237.0972 210.8391,-226.6622 203.1873,-217.3501"/>
<polygon fill="#000000" stroke="#000000" points="205.8185,-215.0393 196.7656,-209.5351 200.4102,-219.4834 205.8185,-215.0393"/>
</g>
<!-- 6904 -->
<g id="node24" class="node">
<title>6904</title>
<ellipse fill="none" stroke="#000000" cx="483.6457" cy="-279.6864" rx="28.6953" ry="18"/>
<text text-anchor="middle" x="483.6457" y="-275.9864" font-family="Times,serif" font-size="14.00" fill="#000000">6904</text>
</g>
<!-- 6904&#45;&gt;2687 -->
<g id="edge37" class="edge">
<title>6904&#45;&gt;2687</title>
<path fill="none" stroke="#000000" d="M509.4731,-271.8027C516.7804,-269.5722 524.8646,-267.1045 532.6378,-264.7318"/>
<polygon fill="#000000" stroke="#000000" points="533.6932,-268.0692 542.2357,-261.8021 531.6495,-261.3741 533.6932,-268.0692"/>
</g>
<!-- 7016 -->
<g id="node25" class="node">
<title>7016</title>
<ellipse fill="none" stroke="#000000" cx="443.958" cy="-370.2237" rx="28.6953" ry="18"/>
<text text-anchor="middle" x="443.958" y="-366.5237" font-family="Times,serif" font-size="14.00" fill="#000000">7016</text>
</g>
<!-- 7922 -->
<g id="node28" class="node">
<title>7922</title>
<ellipse fill="none" stroke="#000000" cx="510.4934" cy="-415.9633" rx="28.6953" ry="18"/>
<text text-anchor="middle" x="510.4934" y="-412.2633" font-family="Times,serif" font-size="14.00" fill="#000000">7922</text>
</g>
<!-- 7016&#45;&gt;7922 -->
<g id="edge38" class="edge">
<title>7016&#45;&gt;7922</title>
<path fill="none" stroke="#000000" d="M463.5609,-383.6997C469.4642,-387.7579 476.0622,-392.2936 482.403,-396.6526"/>
<polygon fill="#000000" stroke="#000000" points="480.5772,-399.6447 490.8006,-402.4256 484.5428,-393.8763 480.5772,-399.6447"/>
</g>
<!-- 12956 -->
<g id="node32" class="node">
<title>12956</title>
<ellipse fill="none" stroke="#000000" cx="242.6706" cy="-497.3129" rx="32.4942" ry="18"/>
<text text-anchor="middle" x="242.6706" y="-493.6129" font-family="Times,serif" font-size="14.00" fill="#000000">12956</text>
</g>
<!-- 10834&#45;&gt;12956 -->
<g id="edge39" class="edge">
<title>10834&#45;&gt;12956</title>
<path fill="none" stroke="#000000" d="M215.0304,-560.833C219.7024,-550.0962 225.7669,-536.1593 231.0246,-524.0768"/>
<polygon fill="#000000" stroke="#000000" points="234.2453,-525.447 235.026,-514.8809 227.8266,-522.6539 234.2453,-525.447"/>
</g>
<!-- 22927 -->
<g id="node34" class="node">
<title>22927</title>
<ellipse fill="none" stroke="#000000" cx="125.4022" cy="-551.587" rx="32.4942" ry="18"/>
<text text-anchor="middle" x="125.4022" y="-547.887" font-family="Times,serif" font-size="14.00" fill="#000000">22927</text>
</g>
<!-- 10834&#45;&gt;22927 -->
<g id="edge40" class="edge">
<title>10834&#45;&gt;22927</title>
<path fill="none" stroke="#000000" d="M179.1619,-569.1956C173.9521,-567.4892 168.4362,-565.6825 163.0003,-563.902"/>
<polygon fill="#000000" stroke="#000000" points="163.9782,-560.5394 153.3855,-560.7527 161.7992,-567.1916 163.9782,-560.5394"/>
</g>
<!-- 12956&#45;&gt;3356 -->
<g id="edge41" class="edge">
<title>12956&#45;&gt;3356</title>
<path fill="none" stroke="#000000" d="M248.4452,-479.4263C251.9326,-468.6242 256.4492,-454.6343 260.3855,-442.4417"/>
<polygon fill="#000000" stroke="#000000" points="263.7785,-443.3238 263.5201,-432.7321 257.1171,-441.1732 263.7785,-443.3238"/>
</g>
<!-- 18540 -->
<g id="node33" class="node">
<title>18540</title>
<ellipse fill="none" stroke="#000000" cx="410.4099" cy="-251.0597" rx="32.4942" ry="18"/>
<text text-anchor="middle" x="410.4099" y="-247.3597" font-family="Times,serif" font-size="14.00" fill="#000000">18540</text>
</g>
<!-- 30070&#45;&gt;6904 -->
<g id="edge42" class="edge">
<title>30070&#45;&gt;6904</title>
<path fill="none" stroke="#000000" d="M421.4544,-303.9572C430.3317,-300.4928 440.3422,-296.5861 449.6958,-292.9357"/>
<polygon fill="#000000" stroke="#000000" points="451.0871,-296.1499 459.1303,-289.2538 448.5421,-289.6289 451.0871,-296.1499"/>
</g>
<!-- 30070&#45;&gt;7016 -->
<g id="edge43" class="edge">
<title>30070&#45;&gt;7016</title>
<path fill="none" stroke="#000000" d="M409.2809,-330.8193C413.6958,-335.8359 418.6365,-341.4503 423.3738,-346.8334"/>
<polygon fill="#000000" stroke="#000000" points="420.85,-349.2634 430.0839,-354.4582 426.1049,-344.6389 420.85,-349.2634"/>
</g>
<!-- 30070&#45;&gt;18540 -->
<g id="edge44" class="edge">
<title>30070&#45;&gt;18540</title>
<path fill="none" stroke="#000000" d="M399.2292,-296.3904C400.5364,-291.0904 401.9999,-285.1567 403.4264,-279.3732"/>
<polygon fill="#000000" stroke="#000000" points="406.9157,-279.8418 405.9123,-269.2946 400.1193,-278.1655 406.9157,-279.8418"/>
</g>
</g>
</svg>
