<?xml version="1.0" encoding="UTF-8" standalone="no"?>
<!DOCTYPE svg PUBLIC "-//W3C//DTD SVG 1.1//EN"
 "http://www.w3.org/Graphics/SVG/1.1/DTD/svg11.dtd">
<!-- Generated by graphviz version 2.40.1 (20161225.0304)
 -->
<!-- Title: %3 Pages: 1 -->
<svg width="2258pt" height="2227pt"
 viewBox="0.00 0.00 2258.00 2227.00" xmlns="http://www.w3.org/2000/svg" xmlns:xlink="http://www.w3.org/1999/xlink">
<g id="graph0" class="graph" transform="scale(1 1) rotate(0) translate(4 2223)">
<title>%3</title>
<polygon fill="#ffffff" stroke="transparent" points="-4,4 -4,-2223 2254,-2223 2254,4 -4,4"/>
<!-- 174 -->
<g id="node1" class="node">
<title>174</title>
<ellipse fill="none" stroke="#000000" cx="234.0078" cy="-340.6814" rx="27" ry="18"/>
<text text-anchor="middle" x="234.0078" y="-336.9814" font-family="Times,serif" font-size="14.00" fill="#000000">174</text>
</g>
<!-- 209 -->
<g id="node2" class="node">
<title>209</title>
<ellipse fill="none" stroke="#000000" cx="172.5527" cy="-164.6911" rx="27" ry="18"/>
<text text-anchor="middle" x="172.5527" y="-160.9911" font-family="Times,serif" font-size="14.00" fill="#000000">209</text>
</g>
<!-- 174&#45;&gt;209 -->
<g id="edge1" class="edge">
<title>174&#45;&gt;209</title>
<path fill="none" stroke="#000000" d="M227.777,-322.838C216.9825,-291.9257 194.7428,-228.2374 182.0256,-191.8189"/>
<polygon fill="#000000" stroke="#000000" points="185.3098,-190.6072 178.7086,-182.3201 178.7011,-192.9149 185.3098,-190.6072"/>
</g>
<!-- 701 -->
<g id="node3" class="node">
<title>701</title>
<ellipse fill="none" stroke="#000000" cx="166.4214" cy="-18.1639" rx="27" ry="18"/>
<text text-anchor="middle" x="166.4214" y="-14.4639" font-family="Times,serif" font-size="14.00" fill="#000000">701</text>
</g>
<!-- 209&#45;&gt;701 -->
<g id="edge2" class="edge">
<title>209&#45;&gt;701</title>
<path fill="none" stroke="#000000" d="M171.7885,-146.4296C170.7364,-121.2856 168.832,-75.7727 167.5975,-46.2721"/>
<polygon fill="#000000" stroke="#000000" points="171.091,-46.0402 167.1759,-36.1953 164.0971,-46.3329 171.091,-46.0402"/>
</g>
<!-- 1239 -->
<g id="node6" class="node">
<title>1239</title>
<ellipse fill="none" stroke="#000000" cx="128.2281" cy="-71.1602" rx="28.6953" ry="18"/>
<text text-anchor="middle" x="128.2281" y="-67.4602" font-family="Times,serif" font-size="14.00" fill="#000000">1239</text>
</g>
<!-- 209&#45;&gt;1239 -->
<g id="edge3" class="edge">
<title>209&#45;&gt;1239</title>
<path fill="none" stroke="#000000" d="M164.2155,-147.0987C157.653,-133.2509 148.3978,-113.721 140.9166,-97.9348"/>
<polygon fill="#000000" stroke="#000000" points="143.9731,-96.2115 136.5278,-88.6738 137.6475,-99.2093 143.9731,-96.2115"/>
</g>
<!-- 1273 -->
<g id="node7" class="node">
<title>1273</title>
<ellipse fill="none" stroke="#000000" cx="275.2327" cy="-98.1458" rx="28.6953" ry="18"/>
<text text-anchor="middle" x="275.2327" y="-94.4458" font-family="Times,serif" font-size="14.00" fill="#000000">1273</text>
</g>
<!-- 209&#45;&gt;1273 -->
<g id="edge4" class="edge">
<title>209&#45;&gt;1273</title>
<path fill="none" stroke="#000000" d="M192.3504,-151.8605C207.7345,-141.8903 229.2879,-127.9219 246.5592,-116.7286"/>
<polygon fill="#000000" stroke="#000000" points="248.6571,-119.5398 255.1453,-111.1641 244.85,-113.6656 248.6571,-119.5398"/>
</g>
<!-- 1299 -->
<g id="node8" class="node">
<title>1299</title>
<ellipse fill="none" stroke="#000000" cx="94.6493" cy="-24.0899" rx="28.6953" ry="18"/>
<text text-anchor="middle" x="94.6493" y="-20.3899" font-family="Times,serif" font-size="14.00" fill="#000000">1299</text>
</g>
<!-- 209&#45;&gt;1299 -->
<g id="edge5" class="edge">
<title>209&#45;&gt;1299</title>
<path fill="none" stroke="#000000" d="M163.1557,-147.7313C149.703,-123.4518 124.8407,-78.5799 109.0553,-50.0902"/>
<polygon fill="#000000" stroke="#000000" points="111.9876,-48.1607 104.0796,-41.1099 105.8647,-51.5533 111.9876,-48.1607"/>
</g>
<!-- 2497 -->
<g id="node9" class="node">
<title>2497</title>
<ellipse fill="none" stroke="#000000" cx="64.4562" cy="-240.4405" rx="28.6953" ry="18"/>
<text text-anchor="middle" x="64.4562" y="-236.7405" font-family="Times,serif" font-size="14.00" fill="#000000">2497</text>
</g>
<!-- 209&#45;&gt;2497 -->
<g id="edge6" class="edge">
<title>209&#45;&gt;2497</title>
<path fill="none" stroke="#000000" d="M153.7237,-177.8857C136.7282,-189.7954 111.5033,-207.4719 92.1992,-220.9994"/>
<polygon fill="#000000" stroke="#000000" points="89.9781,-218.282 83.7972,-226.8871 93.9953,-224.0146 89.9781,-218.282"/>
</g>
<!-- 2828 -->
<g id="node14" class="node">
<title>2828</title>
<ellipse fill="none" stroke="#000000" cx="244.1286" cy="-49.2512" rx="28.6953" ry="18"/>
<text text-anchor="middle" x="244.1286" y="-45.5512" font-family="Times,serif" font-size="14.00" fill="#000000">2828</text>
</g>
<!-- 209&#45;&gt;2828 -->
<g id="edge7" class="edge">
<title>209&#45;&gt;2828</title>
<path fill="none" stroke="#000000" d="M183.1139,-147.6576C195.0078,-128.4747 214.4653,-97.0931 228.2052,-74.933"/>
<polygon fill="#000000" stroke="#000000" points="231.229,-76.698 233.524,-66.3547 225.2797,-73.0092 231.229,-76.698"/>
</g>
<!-- 3320 -->
<g id="node17" class="node">
<title>3320</title>
<ellipse fill="none" stroke="#000000" cx="52.4368" cy="-69.5629" rx="28.6953" ry="18"/>
<text text-anchor="middle" x="52.4368" y="-65.8629" font-family="Times,serif" font-size="14.00" fill="#000000">3320</text>
</g>
<!-- 209&#45;&gt;3320 -->
<g id="edge8" class="edge">
<title>209&#45;&gt;3320</title>
<path fill="none" stroke="#000000" d="M155.0868,-150.8587C134.9204,-134.8874 101.5538,-108.4621 78.3582,-90.0919"/>
<polygon fill="#000000" stroke="#000000" points="80.3283,-87.1874 70.316,-83.7226 75.9823,-92.6749 80.3283,-87.1874"/>
</g>
<!-- 5511 -->
<g id="node26" class="node">
<title>5511</title>
<ellipse fill="none" stroke="#000000" cx="279.6012" cy="-171.2762" rx="28.6953" ry="18"/>
<text text-anchor="middle" x="279.6012" y="-167.5762" font-family="Times,serif" font-size="14.00" fill="#000000">5511</text>
</g>
<!-- 209&#45;&gt;5511 -->
<g id="edge9" class="edge">
<title>209&#45;&gt;5511</title>
<path fill="none" stroke="#000000" d="M199.5655,-166.3528C212.1022,-167.124 227.2348,-168.0549 240.9517,-168.8987"/>
<polygon fill="#000000" stroke="#000000" points="240.9026,-172.4022 251.0987,-169.5228 241.3325,-165.4154 240.9026,-172.4022"/>
</g>
<!-- 6461 -->
<g id="node29" class="node">
<title>6461</title>
<ellipse fill="none" stroke="#000000" cx="28.1385" cy="-121.9074" rx="28.6953" ry="18"/>
<text text-anchor="middle" x="28.1385" y="-118.2074" font-family="Times,serif" font-size="14.00" fill="#000000">6461</text>
</g>
<!-- 209&#45;&gt;6461 -->
<g id="edge10" class="edge">
<title>209&#45;&gt;6461</title>
<path fill="none" stroke="#000000" d="M147.727,-157.3363C124.6601,-150.5026 90.0431,-140.247 63.9801,-132.5257"/>
<polygon fill="#000000" stroke="#000000" points="64.6825,-129.0835 54.1002,-129.5987 62.6941,-135.7951 64.6825,-129.0835"/>
</g>
<!-- 7018 -->
<g id="node34" class="node">
<title>7018</title>
<ellipse fill="none" stroke="#000000" cx="28.8258" cy="-181.227" rx="28.6953" ry="18"/>
<text text-anchor="middle" x="28.8258" y="-177.527" font-family="Times,serif" font-size="14.00" fill="#000000">7018</text>
</g>
<!-- 209&#45;&gt;7018 -->
<g id="edge11" class="edge">
<title>209&#45;&gt;7018</title>
<path fill="none" stroke="#000000" d="M145.8556,-167.7627C123.8352,-170.2961 92.3,-173.9243 67.512,-176.7761"/>
<polygon fill="#000000" stroke="#000000" points="66.8835,-173.3252 57.3491,-177.9454 67.6837,-180.2794 66.8835,-173.3252"/>
</g>
<!-- 703 -->
<g id="node4" class="node">
<title>703</title>
<ellipse fill="none" stroke="#000000" cx="1772.3833" cy="-1632.5926" rx="27" ry="18"/>
<text text-anchor="middle" x="1772.3833" y="-1628.8926" font-family="Times,serif" font-size="14.00" fill="#000000">703</text>
</g>
<!-- 9498 -->
<g id="node39" class="node">
<title>9498</title>
<ellipse fill="none" stroke="#000000" cx="1819.9166" cy="-1757.5844" rx="28.6953" ry="18"/>
<text text-anchor="middle" x="1819.9166" y="-1753.8844" font-family="Times,serif" font-size="14.00" fill="#000000">9498</text>
</g>
<!-- 703&#45;&gt;9498 -->
<g id="edge12" class="edge">
<title>703&#45;&gt;9498</title>
<path fill="none" stroke="#000000" d="M1779.0928,-1650.2358C1787.055,-1671.1729 1800.4155,-1706.3051 1809.6732,-1730.6487"/>
<polygon fill="#000000" stroke="#000000" points="1806.4151,-1731.9282 1813.2412,-1740.031 1812.958,-1729.4399 1806.4151,-1731.9282"/>
</g>
<!-- 1221 -->
<g id="node5" class="node">
<title>1221</title>
<ellipse fill="none" stroke="#000000" cx="2147.2583" cy="-1326.0644" rx="28.6953" ry="18"/>
<text text-anchor="middle" x="2147.2583" y="-1322.3644" font-family="Times,serif" font-size="14.00" fill="#000000">1221</text>
</g>
<!-- 2516 -->
<g id="node10" class="node">
<title>2516</title>
<ellipse fill="none" stroke="#000000" cx="1535.0855" cy="-1401.9122" rx="28.6953" ry="18"/>
<text text-anchor="middle" x="1535.0855" y="-1398.2122" font-family="Times,serif" font-size="14.00" fill="#000000">2516</text>
</g>
<!-- 32787 -->
<g id="node51" class="node">
<title>32787</title>
<ellipse fill="none" stroke="#000000" cx="1701.8071" cy="-1475.2201" rx="32.4942" ry="18"/>
<text text-anchor="middle" x="1701.8071" y="-1471.5201" font-family="Times,serif" font-size="14.00" fill="#000000">32787</text>
</g>
<!-- 2516&#45;&gt;32787 -->
<g id="edge13" class="edge">
<title>2516&#45;&gt;32787</title>
<path fill="none" stroke="#000000" d="M1558.619,-1412.26C1586.7643,-1424.6355 1634.1408,-1445.467 1666.6367,-1459.7556"/>
<polygon fill="#000000" stroke="#000000" points="1665.6432,-1463.1421 1676.2062,-1463.9633 1668.4608,-1456.7342 1665.6432,-1463.1421"/>
</g>
<!-- 2686 -->
<g id="node11" class="node">
<title>2686</title>
<ellipse fill="none" stroke="#000000" cx="1453.7805" cy="-1208.8866" rx="28.6953" ry="18"/>
<text text-anchor="middle" x="1453.7805" y="-1205.1866" font-family="Times,serif" font-size="14.00" fill="#000000">2686</text>
</g>
<!-- 3741 -->
<g id="node22" class="node">
<title>3741</title>
<ellipse fill="none" stroke="#000000" cx="1537.5091" cy="-1108.6561" rx="28.6953" ry="18"/>
<text text-anchor="middle" x="1537.5091" y="-1104.9561" font-family="Times,serif" font-size="14.00" fill="#000000">3741</text>
</g>
<!-- 2686&#45;&gt;3741 -->
<g id="edge14" class="edge">
<title>2686&#45;&gt;3741</title>
<path fill="none" stroke="#000000" d="M1467.233,-1192.7829C1480.8435,-1176.4898 1502.0401,-1151.1157 1517.597,-1132.4927"/>
<polygon fill="#000000" stroke="#000000" points="1520.3651,-1134.6383 1524.0901,-1124.7199 1514.9929,-1130.1506 1520.3651,-1134.6383"/>
</g>
<!-- 2687 -->
<g id="node12" class="node">
<title>2687</title>
<ellipse fill="none" stroke="#000000" cx="1336.8083" cy="-1313.957" rx="28.6953" ry="18"/>
<text text-anchor="middle" x="1336.8083" y="-1310.257" font-family="Times,serif" font-size="14.00" fill="#000000">2687</text>
</g>
<!-- 2687&#45;&gt;2516 -->
<g id="edge15" class="edge">
<title>2687&#45;&gt;2516</title>
<path fill="none" stroke="#000000" d="M1360.3319,-1324.392C1395.5854,-1340.0303 1462.2458,-1369.6007 1502.2684,-1387.3547"/>
<polygon fill="#000000" stroke="#000000" points="1501.0323,-1390.6352 1511.5925,-1391.4908 1503.8708,-1384.2365 1501.0323,-1390.6352"/>
</g>
<!-- 2687&#45;&gt;2686 -->
<g id="edge16" class="edge">
<title>2687&#45;&gt;2686</title>
<path fill="none" stroke="#000000" d="M1353.3194,-1299.1258C1373.2615,-1281.2128 1406.9646,-1250.9391 1429.7784,-1230.4466"/>
<polygon fill="#000000" stroke="#000000" points="1432.2528,-1232.9286 1437.3534,-1223.6424 1427.5751,-1227.721 1432.2528,-1232.9286"/>
</g>
<!-- 9505 -->
<g id="node40" class="node">
<title>9505</title>
<ellipse fill="none" stroke="#000000" cx="1357.4446" cy="-1175.7743" rx="28.6953" ry="18"/>
<text text-anchor="middle" x="1357.4446" y="-1172.0743" font-family="Times,serif" font-size="14.00" fill="#000000">9505</text>
</g>
<!-- 2687&#45;&gt;9505 -->
<g id="edge17" class="edge">
<title>2687&#45;&gt;9505</title>
<path fill="none" stroke="#000000" d="M1339.5061,-1295.892C1342.9976,-1272.5128 1349.1192,-1231.5218 1353.2274,-1204.0131"/>
<polygon fill="#000000" stroke="#000000" points="1356.7306,-1204.251 1354.7461,-1193.8437 1349.8073,-1203.2171 1356.7306,-1204.251"/>
</g>
<!-- 2764 -->
<g id="node13" class="node">
<title>2764</title>
<ellipse fill="none" stroke="#000000" cx="1909.9958" cy="-1497.7049" rx="28.6953" ry="18"/>
<text text-anchor="middle" x="1909.9958" y="-1494.0049" font-family="Times,serif" font-size="14.00" fill="#000000">2764</text>
</g>
<!-- 7545 -->
<g id="node37" class="node">
<title>7545</title>
<ellipse fill="none" stroke="#000000" cx="2069.7338" cy="-1566.4065" rx="28.6953" ry="18"/>
<text text-anchor="middle" x="2069.7338" y="-1562.7065" font-family="Times,serif" font-size="14.00" fill="#000000">7545</text>
</g>
<!-- 2764&#45;&gt;7545 -->
<g id="edge18" class="edge">
<title>2764&#45;&gt;7545</title>
<path fill="none" stroke="#000000" d="M1933.9102,-1507.9902C1961.1618,-1519.7108 2005.879,-1538.9432 2036.5078,-1552.1163"/>
<polygon fill="#000000" stroke="#000000" points="2035.3479,-1555.4274 2045.9172,-1556.1632 2038.1137,-1548.9969 2035.3479,-1555.4274"/>
</g>
<!-- 38333 -->
<g id="node53" class="node">
<title>38333</title>
<ellipse fill="none" stroke="#000000" cx="2019.7804" cy="-1406.77" rx="32.4942" ry="18"/>
<text text-anchor="middle" x="2019.7804" y="-1403.07" font-family="Times,serif" font-size="14.00" fill="#000000">38333</text>
</g>
<!-- 2764&#45;&gt;38333 -->
<g id="edge19" class="edge">
<title>2764&#45;&gt;38333</title>
<path fill="none" stroke="#000000" d="M1927.6346,-1483.0946C1945.4276,-1468.3566 1973.1084,-1445.4285 1993.4896,-1428.5467"/>
<polygon fill="#000000" stroke="#000000" points="1995.9846,-1431.0249 2001.4532,-1421.9505 1991.5193,-1425.634 1995.9846,-1431.0249"/>
</g>
<!-- 38561 -->
<g id="node54" class="node">
<title>38561</title>
<ellipse fill="none" stroke="#000000" cx="2024.0711" cy="-1491.5015" rx="32.4942" ry="18"/>
<text text-anchor="middle" x="2024.0711" y="-1487.8015" font-family="Times,serif" font-size="14.00" fill="#000000">38561</text>
</g>
<!-- 2764&#45;&gt;38561 -->
<g id="edge20" class="edge">
<title>2764&#45;&gt;38561</title>
<path fill="none" stroke="#000000" d="M1938.4875,-1496.1555C1951.4448,-1495.4509 1967.0502,-1494.6023 1981.3672,-1493.8237"/>
<polygon fill="#000000" stroke="#000000" points="1981.713,-1497.3102 1991.5081,-1493.2722 1981.3328,-1490.3205 1981.713,-1497.3102"/>
</g>
<!-- 2914 -->
<g id="node15" class="node">
<title>2914</title>
<ellipse fill="none" stroke="#000000" cx="542.5591" cy="-1002.2226" rx="28.6953" ry="18"/>
<text text-anchor="middle" x="542.5591" y="-998.5226" font-family="Times,serif" font-size="14.00" fill="#000000">2914</text>
</g>
<!-- 6453 -->
<g id="node28" class="node">
<title>6453</title>
<ellipse fill="none" stroke="#000000" cx="463.7812" cy="-855.6551" rx="28.6953" ry="18"/>
<text text-anchor="middle" x="463.7812" y="-851.9551" font-family="Times,serif" font-size="14.00" fill="#000000">6453</text>
</g>
<!-- 2914&#45;&gt;6453 -->
<g id="edge21" class="edge">
<title>2914&#45;&gt;6453</title>
<path fill="none" stroke="#000000" d="M533.3681,-985.1226C519.744,-959.7748 494.074,-912.0153 478.0089,-882.1259"/>
<polygon fill="#000000" stroke="#000000" points="480.9751,-880.2517 473.1578,-873.1005 474.8093,-883.5658 480.9751,-880.2517"/>
</g>
<!-- 3257 -->
<g id="node16" class="node">
<title>3257</title>
<ellipse fill="none" stroke="#000000" cx="380.6919" cy="-685.1665" rx="28.6953" ry="18"/>
<text text-anchor="middle" x="380.6919" y="-681.4665" font-family="Times,serif" font-size="14.00" fill="#000000">3257</text>
</g>
<!-- 3491 -->
<g id="node19" class="node">
<title>3491</title>
<ellipse fill="none" stroke="#000000" cx="310.2467" cy="-526.4158" rx="28.6953" ry="18"/>
<text text-anchor="middle" x="310.2467" y="-522.7158" font-family="Times,serif" font-size="14.00" fill="#000000">3491</text>
</g>
<!-- 3257&#45;&gt;3491 -->
<g id="edge22" class="edge">
<title>3257&#45;&gt;3491</title>
<path fill="none" stroke="#000000" d="M372.8839,-667.5709C360.6124,-639.9165 336.7222,-586.0792 322.2541,-553.4747"/>
<polygon fill="#000000" stroke="#000000" points="325.345,-551.8111 318.0897,-544.0902 318.9467,-554.6504 325.345,-551.8111"/>
</g>
<!-- 3356 -->
<g id="node18" class="node">
<title>3356</title>
<ellipse fill="none" stroke="#000000" cx="637.0907" cy="-1483.3296" rx="28.6953" ry="18"/>
<text text-anchor="middle" x="637.0907" y="-1479.6296" font-family="Times,serif" font-size="14.00" fill="#000000">3356</text>
</g>
<!-- 3549 -->
<g id="node20" class="node">
<title>3549</title>
<ellipse fill="none" stroke="#000000" cx="748.1532" cy="-1311.4574" rx="28.6953" ry="18"/>
<text text-anchor="middle" x="748.1532" y="-1307.7574" font-family="Times,serif" font-size="14.00" fill="#000000">3549</text>
</g>
<!-- 3356&#45;&gt;3549 -->
<g id="edge23" class="edge">
<title>3356&#45;&gt;3549</title>
<path fill="none" stroke="#000000" d="M647.9421,-1466.5369C667.5158,-1436.2459 708.8312,-1372.3093 731.8298,-1336.7184"/>
<polygon fill="#000000" stroke="#000000" points="734.7701,-1338.617 737.2578,-1328.3184 728.8907,-1334.8178 734.7701,-1338.617"/>
</g>
<!-- 3491&#45;&gt;174 -->
<g id="edge24" class="edge">
<title>3491&#45;&gt;174</title>
<path fill="none" stroke="#000000" d="M303.0744,-508.9423C289.7358,-476.4467 261.0306,-406.5148 245.1474,-367.8199"/>
<polygon fill="#000000" stroke="#000000" points="248.2519,-366.1656 241.2167,-358.2437 241.7762,-368.8238 248.2519,-366.1656"/>
</g>
<!-- 6762 -->
<g id="node30" class="node">
<title>6762</title>
<ellipse fill="none" stroke="#000000" cx="641.4414" cy="-1168.3859" rx="28.6953" ry="18"/>
<text text-anchor="middle" x="641.4414" y="-1164.6859" font-family="Times,serif" font-size="14.00" fill="#000000">6762</text>
</g>
<!-- 3549&#45;&gt;6762 -->
<g id="edge25" class="edge">
<title>3549&#45;&gt;6762</title>
<path fill="none" stroke="#000000" d="M735.912,-1295.0453C717.2767,-1270.0604 681.6632,-1222.3123 659.8841,-1193.1125"/>
<polygon fill="#000000" stroke="#000000" points="662.6529,-1190.9706 653.8686,-1185.0473 657.0418,-1195.1558 662.6529,-1190.9706"/>
</g>
<!-- 30070 -->
<g id="node50" class="node">
<title>30070</title>
<ellipse fill="none" stroke="#000000" cx="941.9172" cy="-1289.8202" rx="32.4942" ry="18"/>
<text text-anchor="middle" x="941.9172" y="-1286.1202" font-family="Times,serif" font-size="14.00" fill="#000000">30070</text>
</g>
<!-- 3549&#45;&gt;30070 -->
<g id="edge26" class="edge">
<title>3549&#45;&gt;30070</title>
<path fill="none" stroke="#000000" d="M776.3282,-1308.3112C808.7562,-1304.69 862.3429,-1298.7061 899.7452,-1294.5294"/>
<polygon fill="#000000" stroke="#000000" points="900.2846,-1297.991 909.8344,-1293.4028 899.5077,-1291.0343 900.2846,-1297.991"/>
</g>
<!-- 3597 -->
<g id="node21" class="node">
<title>3597</title>
<ellipse fill="none" stroke="#000000" cx="450.261" cy="-2020.3158" rx="28.6953" ry="18"/>
<text text-anchor="middle" x="450.261" y="-2016.6158" font-family="Times,serif" font-size="14.00" fill="#000000">3597</text>
</g>
<!-- 37179 -->
<g id="node52" class="node">
<title>37179</title>
<ellipse fill="none" stroke="#000000" cx="1626.7021" cy="-992.3907" rx="32.4942" ry="18"/>
<text text-anchor="middle" x="1626.7021" y="-988.6907" font-family="Times,serif" font-size="14.00" fill="#000000">37179</text>
</g>
<!-- 3741&#45;&gt;37179 -->
<g id="edge27" class="edge">
<title>3741&#45;&gt;37179</title>
<path fill="none" stroke="#000000" d="M1550.2883,-1091.9981C1565.3232,-1072.3998 1590.425,-1039.6789 1607.7324,-1017.1183"/>
<polygon fill="#000000" stroke="#000000" points="1610.6369,-1019.0824 1613.9467,-1009.0178 1605.0829,-1014.8217 1610.6369,-1019.0824"/>
</g>
<!-- 4635 -->
<g id="node23" class="node">
<title>4635</title>
<ellipse fill="none" stroke="#000000" cx="2211.3881" cy="-1524.6524" rx="28.6953" ry="18"/>
<text text-anchor="middle" x="2211.3881" y="-1520.9524" font-family="Times,serif" font-size="14.00" fill="#000000">4635</text>
</g>
<!-- 4637 -->
<g id="node24" class="node">
<title>4637</title>
<ellipse fill="none" stroke="#000000" cx="1796.9509" cy="-1391.6033" rx="28.6953" ry="18"/>
<text text-anchor="middle" x="1796.9509" y="-1387.9033" font-family="Times,serif" font-size="14.00" fill="#000000">4637</text>
</g>
<!-- 4739 -->
<g id="node25" class="node">
<title>4739</title>
<ellipse fill="none" stroke="#000000" cx="2202.9769" cy="-1633.6642" rx="28.6953" ry="18"/>
<text text-anchor="middle" x="2202.9769" y="-1629.9642" font-family="Times,serif" font-size="14.00" fill="#000000">4739</text>
</g>
<!-- 5692 -->
<g id="node27" class="node">
<title>5692</title>
<ellipse fill="none" stroke="#000000" cx="328.8041" cy="-2035.1077" rx="28.6953" ry="18"/>
<text text-anchor="middle" x="328.8041" y="-2031.4077" font-family="Times,serif" font-size="14.00" fill="#000000">5692</text>
</g>
<!-- 5692&#45;&gt;3597 -->
<g id="edge28" class="edge">
<title>5692&#45;&gt;3597</title>
<path fill="none" stroke="#000000" d="M356.974,-2031.677C373.2593,-2029.6937 393.9797,-2027.1702 411.754,-2025.0055"/>
<polygon fill="#000000" stroke="#000000" points="412.3196,-2028.4626 421.8231,-2023.7792 411.4733,-2021.5139 412.3196,-2028.4626"/>
</g>
<!-- 10834 -->
<g id="node43" class="node">
<title>10834</title>
<ellipse fill="none" stroke="#000000" cx="420.5849" cy="-1844.4508" rx="32.4942" ry="18"/>
<text text-anchor="middle" x="420.5849" y="-1840.7508" font-family="Times,serif" font-size="14.00" fill="#000000">10834</text>
</g>
<!-- 5692&#45;&gt;10834 -->
<g id="edge29" class="edge">
<title>5692&#45;&gt;10834</title>
<path fill="none" stroke="#000000" d="M337.1109,-2017.8519C353.1724,-1984.4873 388.5849,-1910.9246 407.7172,-1871.1811"/>
<polygon fill="#000000" stroke="#000000" points="410.9137,-1872.61 412.0976,-1862.0815 404.6065,-1869.5737 410.9137,-1872.61"/>
</g>
<!-- 11008 -->
<g id="node44" class="node">
<title>11008</title>
<ellipse fill="none" stroke="#000000" cx="189.2403" cy="-2095.2116" rx="32.4942" ry="18"/>
<text text-anchor="middle" x="189.2403" y="-2091.5116" font-family="Times,serif" font-size="14.00" fill="#000000">11008</text>
</g>
<!-- 5692&#45;&gt;11008 -->
<g id="edge30" class="edge">
<title>5692&#45;&gt;11008</title>
<path fill="none" stroke="#000000" d="M305.129,-2045.3035C282.9239,-2054.8663 249.4447,-2069.2842 224.1713,-2080.1684"/>
<polygon fill="#000000" stroke="#000000" points="222.7275,-2076.9793 214.9274,-2084.1493 225.4963,-2083.4085 222.7275,-2076.9793"/>
</g>
<!-- 27865 -->
<g id="node48" class="node">
<title>27865</title>
<ellipse fill="none" stroke="#000000" cx="192.1211" cy="-2047.5558" rx="32.4942" ry="18"/>
<text text-anchor="middle" x="192.1211" y="-2043.8558" font-family="Times,serif" font-size="14.00" fill="#000000">27865</text>
</g>
<!-- 5692&#45;&gt;27865 -->
<g id="edge31" class="edge">
<title>5692&#45;&gt;27865</title>
<path fill="none" stroke="#000000" d="M300.4833,-2037.687C281.3991,-2039.425 255.8862,-2041.7485 234.4101,-2043.7044"/>
<polygon fill="#000000" stroke="#000000" points="233.8787,-2040.2382 224.2373,-2044.6309 234.5136,-2047.2094 233.8787,-2040.2382"/>
</g>
<!-- 28065 -->
<g id="node49" class="node">
<title>28065</title>
<ellipse fill="none" stroke="#000000" cx="215.203" cy="-2147.273" rx="32.4942" ry="18"/>
<text text-anchor="middle" x="215.203" y="-2143.573" font-family="Times,serif" font-size="14.00" fill="#000000">28065</text>
</g>
<!-- 5692&#45;&gt;28065 -->
<g id="edge32" class="edge">
<title>5692&#45;&gt;28065</title>
<path fill="none" stroke="#000000" d="M313.0083,-2050.7038C293.7027,-2069.7655 260.8647,-2102.1884 238.6184,-2124.1536"/>
<polygon fill="#000000" stroke="#000000" points="235.8876,-2121.9312 231.2308,-2131.4478 240.8058,-2126.9123 235.8876,-2121.9312"/>
</g>
<!-- 52317 -->
<g id="node55" class="node">
<title>52317</title>
<ellipse fill="none" stroke="#000000" cx="362.1959" cy="-2144.1191" rx="32.4942" ry="18"/>
<text text-anchor="middle" x="362.1959" y="-2140.4191" font-family="Times,serif" font-size="14.00" fill="#000000">52317</text>
</g>
<!-- 5692&#45;&gt;52317 -->
<g id="edge33" class="edge">
<title>5692&#45;&gt;52317</title>
<path fill="none" stroke="#000000" d="M334.3181,-2053.1088C339.5867,-2070.3087 347.6046,-2096.4842 353.6915,-2116.3555"/>
<polygon fill="#000000" stroke="#000000" points="350.3983,-2117.555 356.6738,-2126.0914 357.0914,-2115.5048 350.3983,-2117.555"/>
</g>
<!-- 52375 -->
<g id="node56" class="node">
<title>52375</title>
<ellipse fill="none" stroke="#000000" cx="251.0919" cy="-1944.7073" rx="32.4942" ry="18"/>
<text text-anchor="middle" x="251.0919" y="-1941.0073" font-family="Times,serif" font-size="14.00" fill="#000000">52375</text>
</g>
<!-- 5692&#45;&gt;52375 -->
<g id="edge34" class="edge">
<title>5692&#45;&gt;52375</title>
<path fill="none" stroke="#000000" d="M314.9107,-2018.9459C302.9396,-2005.0203 285.4865,-1984.7176 271.8567,-1968.8624"/>
<polygon fill="#000000" stroke="#000000" points="274.3,-1966.3355 265.127,-1961.0339 268.9917,-1970.8987 274.3,-1966.3355"/>
</g>
<!-- 52376 -->
<g id="node57" class="node">
<title>52376</title>
<ellipse fill="none" stroke="#000000" cx="203.4065" cy="-1993.1364" rx="32.4942" ry="18"/>
<text text-anchor="middle" x="203.4065" y="-1989.4364" font-family="Times,serif" font-size="14.00" fill="#000000">52376</text>
</g>
<!-- 5692&#45;&gt;52376 -->
<g id="edge35" class="edge">
<title>5692&#45;&gt;52376</title>
<path fill="none" stroke="#000000" d="M303.428,-2026.6142C285.4695,-2020.6034 261.0882,-2012.4428 240.8937,-2005.6836"/>
<polygon fill="#000000" stroke="#000000" points="241.9567,-2002.3486 231.3629,-2002.4936 239.7349,-2008.9867 241.9567,-2002.3486"/>
</g>
<!-- 52380 -->
<g id="node58" class="node">
<title>52380</title>
<ellipse fill="none" stroke="#000000" cx="264.3765" cy="-2100.8496" rx="32.4942" ry="18"/>
<text text-anchor="middle" x="264.3765" y="-2097.1496" font-family="Times,serif" font-size="14.00" fill="#000000">52380</text>
</g>
<!-- 5692&#45;&gt;52380 -->
<g id="edge36" class="edge">
<title>5692&#45;&gt;52380</title>
<path fill="none" stroke="#000000" d="M313.5356,-2050.6876C305.6283,-2058.7563 295.8166,-2068.7681 287.0435,-2077.7202"/>
<polygon fill="#000000" stroke="#000000" points="284.4825,-2075.3329 279.9829,-2084.9248 289.482,-2080.2325 284.4825,-2075.3329"/>
</g>
<!-- 52413 -->
<g id="node59" class="node">
<title>52413</title>
<ellipse fill="none" stroke="#000000" cx="297.4431" cy="-2200.6229" rx="32.4942" ry="18"/>
<text text-anchor="middle" x="297.4431" y="-2196.9229" font-family="Times,serif" font-size="14.00" fill="#000000">52413</text>
</g>
<!-- 5692&#45;&gt;52413 -->
<g id="edge37" class="edge">
<title>5692&#45;&gt;52413</title>
<path fill="none" stroke="#000000" d="M325.3882,-2053.1358C319.9448,-2081.8649 309.2587,-2138.2631 302.7936,-2172.3846"/>
<polygon fill="#000000" stroke="#000000" points="299.2777,-2172.1402 300.8548,-2182.617 306.1553,-2173.4434 299.2777,-2172.1402"/>
</g>
<!-- 52431 -->
<g id="node60" class="node">
<title>52431</title>
<ellipse fill="none" stroke="#000000" cx="377.0302" cy="-2194.881" rx="32.4942" ry="18"/>
<text text-anchor="middle" x="377.0302" y="-2191.181" font-family="Times,serif" font-size="14.00" fill="#000000">52431</text>
</g>
<!-- 5692&#45;&gt;52431 -->
<g id="edge38" class="edge">
<title>5692&#45;&gt;52431</title>
<path fill="none" stroke="#000000" d="M334.1494,-2052.8167C342.5141,-2080.5293 358.7645,-2134.3667 368.6817,-2167.2223"/>
<polygon fill="#000000" stroke="#000000" points="365.4206,-2168.5307 371.661,-2177.0927 372.1219,-2166.5079 365.4206,-2168.5307"/>
</g>
<!-- 262230 -->
<g id="node61" class="node">
<title>262230</title>
<ellipse fill="none" stroke="#000000" cx="450.8977" cy="-2146.0884" rx="37.0935" ry="18"/>
<text text-anchor="middle" x="450.8977" y="-2142.3884" font-family="Times,serif" font-size="14.00" fill="#000000">262230</text>
</g>
<!-- 5692&#45;&gt;262230 -->
<g id="edge39" class="edge">
<title>5692&#45;&gt;262230</title>
<path fill="none" stroke="#000000" d="M345.2702,-2050.0751C365.855,-2068.7863 401.3097,-2101.0139 425.4112,-2122.9216"/>
<polygon fill="#000000" stroke="#000000" points="423.3575,-2125.7848 433.1116,-2129.9212 428.0659,-2120.6049 423.3575,-2125.7848"/>
</g>
<!-- 264608 -->
<g id="node62" class="node">
<title>264608</title>
<ellipse fill="none" stroke="#000000" cx="462.3598" cy="-2091.6344" rx="37.0935" ry="18"/>
<text text-anchor="middle" x="462.3598" y="-2087.9344" font-family="Times,serif" font-size="14.00" fill="#000000">264608</text>
</g>
<!-- 5692&#45;&gt;264608 -->
<g id="edge40" class="edge">
<title>5692&#45;&gt;264608</title>
<path fill="none" stroke="#000000" d="M352.6812,-2045.2136C372.6391,-2053.6607 401.4632,-2065.8603 424.554,-2075.6333"/>
<polygon fill="#000000" stroke="#000000" points="423.4832,-2078.9806 434.0565,-2079.6552 426.2116,-2072.5342 423.4832,-2078.9806"/>
</g>
<!-- 6453&#45;&gt;3257 -->
<g id="edge41" class="edge">
<title>6453&#45;&gt;3257</title>
<path fill="none" stroke="#000000" d="M455.3569,-838.3695C440.8002,-808.501 410.8489,-747.0448 393.6332,-711.7203"/>
<polygon fill="#000000" stroke="#000000" points="396.6658,-709.9538 389.1385,-702.4979 390.3734,-713.0205 396.6658,-709.9538"/>
</g>
<!-- 6762&#45;&gt;2914 -->
<g id="edge42" class="edge">
<title>6762&#45;&gt;2914</title>
<path fill="none" stroke="#000000" d="M631.2317,-1151.2293C613.9119,-1122.1248 578.6653,-1062.8959 558.2111,-1028.5244"/>
<polygon fill="#000000" stroke="#000000" points="560.983,-1026.3383 552.8614,-1019.5347 554.9676,-1029.9181 560.983,-1026.3383"/>
</g>
<!-- 6904 -->
<g id="node31" class="node">
<title>6904</title>
<ellipse fill="none" stroke="#000000" cx="1152.3711" cy="-1304.8116" rx="28.6953" ry="18"/>
<text text-anchor="middle" x="1152.3711" y="-1301.1116" font-family="Times,serif" font-size="14.00" fill="#000000">6904</text>
</g>
<!-- 6904&#45;&gt;2687 -->
<g id="edge43" class="edge">
<title>6904&#45;&gt;2687</title>
<path fill="none" stroke="#000000" d="M1181.1894,-1306.2406C1212.5905,-1307.7976 1263.0002,-1310.2972 1297.8981,-1312.0276"/>
<polygon fill="#000000" stroke="#000000" points="1298.0312,-1315.5384 1308.1923,-1312.5381 1298.3779,-1308.547 1298.0312,-1315.5384"/>
</g>
<!-- 6939 -->
<g id="node32" class="node">
<title>6939</title>
<ellipse fill="none" stroke="#000000" cx="2131.4964" cy="-1695.8205" rx="28.6953" ry="18"/>
<text text-anchor="middle" x="2131.4964" y="-1692.1205" font-family="Times,serif" font-size="14.00" fill="#000000">6939</text>
</g>
<!-- 7016 -->
<g id="node33" class="node">
<title>7016</title>
<ellipse fill="none" stroke="#000000" cx="967.3142" cy="-1149.1829" rx="28.6953" ry="18"/>
<text text-anchor="middle" x="967.3142" y="-1145.4829" font-family="Times,serif" font-size="14.00" fill="#000000">7016</text>
</g>
<!-- 7922 -->
<g id="node38" class="node">
<title>7922</title>
<ellipse fill="none" stroke="#000000" cx="976.6383" cy="-1028.6327" rx="28.6953" ry="18"/>
<text text-anchor="middle" x="976.6383" y="-1024.9327" font-family="Times,serif" font-size="14.00" fill="#000000">7922</text>
</g>
<!-- 7016&#45;&gt;7922 -->
<g id="edge44" class="edge">
<title>7016&#45;&gt;7922</title>
<path fill="none" stroke="#000000" d="M968.7101,-1131.1353C970.2276,-1111.5162 972.6728,-1079.9022 974.4468,-1056.966"/>
<polygon fill="#000000" stroke="#000000" points="977.9512,-1057.0439 975.2329,-1046.8037 970.972,-1056.504 977.9512,-1057.0439"/>
</g>
<!-- 7473 -->
<g id="node35" class="node">
<title>7473</title>
<ellipse fill="none" stroke="#000000" cx="1378.7329" cy="-1052.2802" rx="28.6953" ry="18"/>
<text text-anchor="middle" x="1378.7329" y="-1048.5802" font-family="Times,serif" font-size="14.00" fill="#000000">7473</text>
</g>
<!-- 7474 -->
<g id="node36" class="node">
<title>7474</title>
<ellipse fill="none" stroke="#000000" cx="1679.7235" cy="-1598.0207" rx="28.6953" ry="18"/>
<text text-anchor="middle" x="1679.7235" y="-1594.3207" font-family="Times,serif" font-size="14.00" fill="#000000">7474</text>
</g>
<!-- 7545&#45;&gt;4635 -->
<g id="edge45" class="edge">
<title>7545&#45;&gt;4635</title>
<path fill="none" stroke="#000000" d="M2095.7154,-1558.7481C2118.039,-1552.168 2150.4596,-1542.6117 2175.3014,-1535.2893"/>
<polygon fill="#000000" stroke="#000000" points="2176.4891,-1538.5882 2185.0915,-1532.4036 2174.51,-1531.8738 2176.4891,-1538.5882"/>
</g>
<!-- 7545&#45;&gt;4739 -->
<g id="edge46" class="edge">
<title>7545&#45;&gt;4739</title>
<path fill="none" stroke="#000000" d="M2092.3367,-1577.8158C2113.9672,-1588.7343 2146.8032,-1605.3091 2171.0897,-1617.5683"/>
<polygon fill="#000000" stroke="#000000" points="2169.7588,-1620.8171 2180.2632,-1622.1988 2172.9132,-1614.5681 2169.7588,-1620.8171"/>
</g>
<!-- 7545&#45;&gt;6939 -->
<g id="edge47" class="edge">
<title>7545&#45;&gt;6939</title>
<path fill="none" stroke="#000000" d="M2078.0634,-1583.8598C2088.5159,-1605.7614 2106.5474,-1643.5437 2118.7417,-1669.095"/>
<polygon fill="#000000" stroke="#000000" points="2115.6357,-1670.713 2123.1016,-1678.2303 2121.9531,-1667.6979 2115.6357,-1670.713"/>
</g>
<!-- 9942 -->
<g id="node41" class="node">
<title>9942</title>
<ellipse fill="none" stroke="#000000" cx="2220.9977" cy="-1588.8901" rx="28.6953" ry="18"/>
<text text-anchor="middle" x="2220.9977" y="-1585.1901" font-family="Times,serif" font-size="14.00" fill="#000000">9942</text>
</g>
<!-- 7545&#45;&gt;9942 -->
<g id="edge48" class="edge">
<title>7545&#45;&gt;9942</title>
<path fill="none" stroke="#000000" d="M2097.8309,-1570.5828C2121.8164,-1574.1479 2156.5281,-1579.3074 2182.9925,-1583.2411"/>
<polygon fill="#000000" stroke="#000000" points="2182.6451,-1586.7278 2193.0511,-1584.7361 2183.6743,-1579.8039 2182.6451,-1586.7278"/>
</g>
<!-- 10026 -->
<g id="node42" class="node">
<title>10026</title>
<ellipse fill="none" stroke="#000000" cx="1876.5985" cy="-1894.1828" rx="32.4942" ry="18"/>
<text text-anchor="middle" x="1876.5985" y="-1890.4828" font-family="Times,serif" font-size="14.00" fill="#000000">10026</text>
</g>
<!-- 9498&#45;&gt;10026 -->
<g id="edge49" class="edge">
<title>9498&#45;&gt;10026</title>
<path fill="none" stroke="#000000" d="M1827.2107,-1775.1626C1836.8507,-1798.3942 1853.9334,-1839.562 1865.263,-1866.8654"/>
<polygon fill="#000000" stroke="#000000" points="1862.0869,-1868.3434 1869.1523,-1876.2383 1868.5524,-1865.6605 1862.0869,-1868.3434"/>
</g>
<!-- 9505&#45;&gt;7473 -->
<g id="edge50" class="edge">
<title>9505&#45;&gt;7473</title>
<path fill="none" stroke="#000000" d="M1360.5401,-1157.8172C1364.0402,-1137.5132 1369.7838,-1104.1944 1373.881,-1080.4263"/>
<polygon fill="#000000" stroke="#000000" points="1377.384,-1080.7082 1375.6337,-1070.259 1370.4857,-1079.519 1377.384,-1080.7082"/>
</g>
<!-- 12956 -->
<g id="node45" class="node">
<title>12956</title>
<ellipse fill="none" stroke="#000000" cx="535.2595" cy="-1650.4053" rx="32.4942" ry="18"/>
<text text-anchor="middle" x="535.2595" y="-1646.7053" font-family="Times,serif" font-size="14.00" fill="#000000">12956</text>
</g>
<!-- 10834&#45;&gt;12956 -->
<g id="edge51" class="edge">
<title>10834&#45;&gt;12956</title>
<path fill="none" stroke="#000000" d="M430.7615,-1827.2305C450.9504,-1793.0681 496.1683,-1716.5532 519.9584,-1676.297"/>
<polygon fill="#000000" stroke="#000000" points="523.0312,-1677.9767 525.1057,-1667.5869 517.0048,-1674.4153 523.0312,-1677.9767"/>
</g>
<!-- 22927 -->
<g id="node47" class="node">
<title>22927</title>
<ellipse fill="none" stroke="#000000" cx="314.278" cy="-1766.5596" rx="32.4942" ry="18"/>
<text text-anchor="middle" x="314.278" y="-1762.8596" font-family="Times,serif" font-size="14.00" fill="#000000">22927</text>
</g>
<!-- 10834&#45;&gt;22927 -->
<g id="edge52" class="edge">
<title>10834&#45;&gt;22927</title>
<path fill="none" stroke="#000000" d="M400.5894,-1829.8C384.2561,-1817.8326 360.968,-1800.7694 342.6975,-1787.3826"/>
<polygon fill="#000000" stroke="#000000" points="344.319,-1784.2317 334.1838,-1781.1447 340.1817,-1789.8783 344.319,-1784.2317"/>
</g>
<!-- 12956&#45;&gt;3356 -->
<g id="edge53" class="edge">
<title>12956&#45;&gt;3356</title>
<path fill="none" stroke="#000000" d="M545.7737,-1633.1545C563.7796,-1603.6121 600.5994,-1543.2014 621.5684,-1508.7973"/>
<polygon fill="#000000" stroke="#000000" points="624.5695,-1510.5982 626.7854,-1500.2377 618.5923,-1506.9551 624.5695,-1510.5982"/>
</g>
<!-- 18540 -->
<g id="node46" class="node">
<title>18540</title>
<ellipse fill="none" stroke="#000000" cx="855.4681" cy="-1225.3801" rx="32.4942" ry="18"/>
<text text-anchor="middle" x="855.4681" y="-1221.6801" font-family="Times,serif" font-size="14.00" fill="#000000">18540</text>
</g>
<!-- 30070&#45;&gt;6904 -->
<g id="edge54" class="edge">
<title>30070&#45;&gt;6904</title>
<path fill="none" stroke="#000000" d="M974.3394,-1292.1297C1011.8077,-1294.7987 1073.4311,-1299.1884 1113.4543,-1302.0394"/>
<polygon fill="#000000" stroke="#000000" points="1113.4104,-1305.5451 1123.6338,-1302.7646 1113.9078,-1298.5628 1113.4104,-1305.5451"/>
</g>
<!-- 30070&#45;&gt;7016 -->
<g id="edge55" class="edge">
<title>30070&#45;&gt;7016</title>
<path fill="none" stroke="#000000" d="M945.1854,-1271.7222C949.5095,-1247.7771 957.1759,-1205.3242 962.2522,-1177.2141"/>
<polygon fill="#000000" stroke="#000000" points="965.7256,-1177.6742 964.0585,-1167.2114 958.837,-1176.4302 965.7256,-1177.6742"/>
</g>
<!-- 30070&#45;&gt;18540 -->
<g id="edge56" class="edge">
<title>30070&#45;&gt;18540</title>
<path fill="none" stroke="#000000" d="M922.3006,-1275.1977C910.6948,-1266.5467 895.8137,-1255.4541 883.0407,-1245.933"/>
<polygon fill="#000000" stroke="#000000" points="885.1165,-1243.115 875.0071,-1239.9447 880.933,-1248.7273 885.1165,-1243.115"/>
</g>
<!-- 32787&#45;&gt;703 -->
<g id="edge57" class="edge">
<title>32787&#45;&gt;703</title>
<path fill="none" stroke="#000000" d="M1709.7659,-1492.9668C1722.1152,-1520.5035 1745.9702,-1573.6961 1760.4066,-1605.8866"/>
<polygon fill="#000000" stroke="#000000" points="1757.2757,-1607.4587 1764.5613,-1615.1509 1763.6628,-1604.5942 1757.2757,-1607.4587"/>
</g>
<!-- 32787&#45;&gt;2764 -->
<g id="edge58" class="edge">
<title>32787&#45;&gt;2764</title>
<path fill="none" stroke="#000000" d="M1733.8803,-1478.684C1770.9453,-1482.6871 1831.9055,-1489.2709 1871.4979,-1493.547"/>
<polygon fill="#000000" stroke="#000000" points="1871.2498,-1497.0405 1881.5678,-1494.6346 1872.0015,-1490.0809 1871.2498,-1497.0405"/>
</g>
<!-- 32787&#45;&gt;4637 -->
<g id="edge59" class="edge">
<title>32787&#45;&gt;4637</title>
<path fill="none" stroke="#000000" d="M1719.2579,-1459.8835C1734.1953,-1446.7559 1755.8633,-1427.713 1772.5237,-1413.0711"/>
<polygon fill="#000000" stroke="#000000" points="1775.0478,-1415.5123 1780.2488,-1406.2819 1770.4268,-1410.2543 1775.0478,-1415.5123"/>
</g>
<!-- 32787&#45;&gt;7474 -->
<g id="edge60" class="edge">
<title>32787&#45;&gt;7474</title>
<path fill="none" stroke="#000000" d="M1698.5486,-1493.3397C1694.9279,-1513.4736 1689.0353,-1546.2404 1684.8069,-1569.7533"/>
<polygon fill="#000000" stroke="#000000" points="1681.3207,-1569.3651 1682.9954,-1579.8267 1688.2102,-1570.6041 1681.3207,-1569.3651"/>
</g>
<!-- 38333&#45;&gt;1221 -->
<g id="edge61" class="edge">
<title>38333&#45;&gt;1221</title>
<path fill="none" stroke="#000000" d="M2041.4053,-1393.0794C2062.5693,-1379.6806 2094.946,-1359.183 2118.3193,-1344.3855"/>
<polygon fill="#000000" stroke="#000000" points="2120.2175,-1347.3263 2126.7944,-1339.0199 2116.4731,-1341.4119 2120.2175,-1347.3263"/>
</g>
</g>
</svg>
