<?xml version="1.0" encoding="UTF-8" standalone="no"?>
<!DOCTYPE svg PUBLIC "-//W3C//DTD SVG 1.1//EN"
 "http://www.w3.org/Graphics/SVG/1.1/DTD/svg11.dtd">
<!-- Generated by graphviz version 2.40.1 (20161225.0304)
 -->
<!-- Title: %3 Pages: 1 -->
<svg width="1082pt" height="1300pt"
 viewBox="0.00 0.00 1081.59 1299.67" xmlns="http://www.w3.org/2000/svg" xmlns:xlink="http://www.w3.org/1999/xlink">
<g id="graph0" class="graph" transform="scale(1 1) rotate(0) translate(4 1295.6699)">
<title>%3</title>
<polygon fill="#ffffff" stroke="transparent" points="-4,4 -4,-1295.6699 1077.5862,-1295.6699 1077.5862,4 -4,4"/>
<!-- 174 -->
<g id="node1" class="node">
<title>174</title>
<ellipse fill="none" stroke="#000000" cx="504.0128" cy="-198.8818" rx="27" ry="18"/>
<text text-anchor="middle" x="504.0128" y="-195.1818" font-family="Times,serif" font-size="14.00" fill="#000000">174</text>
</g>
<!-- 209 -->
<g id="node2" class="node">
<title>209</title>
<ellipse fill="none" stroke="#000000" cx="488.605" cy="-102.9414" rx="27" ry="18"/>
<text text-anchor="middle" x="488.605" y="-99.2414" font-family="Times,serif" font-size="14.00" fill="#000000">209</text>
</g>
<!-- 174&#45;&gt;209 -->
<g id="edge1" class="edge">
<title>174&#45;&gt;209</title>
<path fill="none" stroke="#000000" d="M501.1147,-180.8361C498.855,-166.7656 495.6769,-146.9761 493.0895,-130.8651"/>
<polygon fill="#000000" stroke="#000000" points="496.5316,-130.2246 491.4901,-120.9061 489.6201,-131.3346 496.5316,-130.2246"/>
</g>
<!-- 701 -->
<g id="node3" class="node">
<title>701</title>
<ellipse fill="none" stroke="#000000" cx="494.595" cy="-18" rx="27" ry="18"/>
<text text-anchor="middle" x="494.595" y="-14.3" font-family="Times,serif" font-size="14.00" fill="#000000">701</text>
</g>
<!-- 209&#45;&gt;701 -->
<g id="edge2" class="edge">
<title>209&#45;&gt;701</title>
<path fill="none" stroke="#000000" d="M489.8753,-84.9275C490.6695,-73.6659 491.7091,-58.9242 492.6103,-46.1432"/>
<polygon fill="#000000" stroke="#000000" points="496.1143,-46.2094 493.3265,-35.9879 489.1316,-45.7169 496.1143,-46.2094"/>
</g>
<!-- 1239 -->
<g id="node6" class="node">
<title>1239</title>
<ellipse fill="none" stroke="#000000" cx="404.6752" cy="-130.2124" rx="28.6953" ry="18"/>
<text text-anchor="middle" x="404.6752" y="-126.5124" font-family="Times,serif" font-size="14.00" fill="#000000">1239</text>
</g>
<!-- 209&#45;&gt;1239 -->
<g id="edge3" class="edge">
<title>209&#45;&gt;1239</title>
<path fill="none" stroke="#000000" d="M464.3291,-110.8293C456.7569,-113.2897 448.2442,-116.0557 440.0723,-118.711"/>
<polygon fill="#000000" stroke="#000000" points="438.7884,-115.448 430.3594,-121.867 440.9516,-122.1054 438.7884,-115.448"/>
</g>
<!-- 1273 -->
<g id="node7" class="node">
<title>1273</title>
<ellipse fill="none" stroke="#000000" cx="416.6838" cy="-50.3156" rx="28.6953" ry="18"/>
<text text-anchor="middle" x="416.6838" y="-46.6156" font-family="Times,serif" font-size="14.00" fill="#000000">1273</text>
</g>
<!-- 209&#45;&gt;1273 -->
<g id="edge4" class="edge">
<title>209&#45;&gt;1273</title>
<path fill="none" stroke="#000000" d="M470.0835,-89.389C462.0091,-83.4808 452.387,-76.4402 443.5493,-69.9735"/>
<polygon fill="#000000" stroke="#000000" points="445.5296,-67.0856 435.3925,-64.005 441.396,-72.7348 445.5296,-67.0856"/>
</g>
<!-- 1299 -->
<g id="node8" class="node">
<title>1299</title>
<ellipse fill="none" stroke="#000000" cx="577.054" cy="-99.7839" rx="28.6953" ry="18"/>
<text text-anchor="middle" x="577.054" y="-96.0839" font-family="Times,serif" font-size="14.00" fill="#000000">1299</text>
</g>
<!-- 209&#45;&gt;1299 -->
<g id="edge5" class="edge">
<title>209&#45;&gt;1299</title>
<path fill="none" stroke="#000000" d="M515.6232,-101.9769C522.7484,-101.7226 530.5795,-101.443 538.1951,-101.1711"/>
<polygon fill="#000000" stroke="#000000" points="538.4913,-104.6629 548.3601,-100.8083 538.2415,-97.6673 538.4913,-104.6629"/>
</g>
<!-- 2497 -->
<g id="node9" class="node">
<title>2497</title>
<ellipse fill="none" stroke="#000000" cx="454.6145" cy="-32.8593" rx="28.6953" ry="18"/>
<text text-anchor="middle" x="454.6145" y="-29.1593" font-family="Times,serif" font-size="14.00" fill="#000000">2497</text>
</g>
<!-- 209&#45;&gt;2497 -->
<g id="edge6" class="edge">
<title>209&#45;&gt;2497</title>
<path fill="none" stroke="#000000" d="M480.2029,-85.6177C476.3914,-77.7592 471.7975,-68.2874 467.5601,-59.5508"/>
<polygon fill="#000000" stroke="#000000" points="470.6692,-57.9406 463.1561,-50.4705 464.3709,-60.9954 470.6692,-57.9406"/>
</g>
<!-- 2828 -->
<g id="node14" class="node">
<title>2828</title>
<ellipse fill="none" stroke="#000000" cx="548.6764" cy="-132.1057" rx="28.6953" ry="18"/>
<text text-anchor="middle" x="548.6764" y="-128.4057" font-family="Times,serif" font-size="14.00" fill="#000000">2828</text>
</g>
<!-- 209&#45;&gt;2828 -->
<g id="edge7" class="edge">
<title>209&#45;&gt;2828</title>
<path fill="none" stroke="#000000" d="M510.6323,-113.6355C512.6456,-114.613 514.7107,-115.6155 516.7876,-116.6239"/>
<polygon fill="#000000" stroke="#000000" points="515.321,-119.8025 525.8455,-121.0215 518.3783,-113.5054 515.321,-119.8025"/>
</g>
<!-- 3320 -->
<g id="node17" class="node">
<title>3320</title>
<ellipse fill="none" stroke="#000000" cx="567.1564" cy="-59.461" rx="28.6953" ry="18"/>
<text text-anchor="middle" x="567.1564" y="-55.761" font-family="Times,serif" font-size="14.00" fill="#000000">3320</text>
</g>
<!-- 209&#45;&gt;3320 -->
<g id="edge8" class="edge">
<title>209&#45;&gt;3320</title>
<path fill="none" stroke="#000000" d="M509.6554,-91.2895C517.9718,-86.6861 527.6891,-81.3073 536.7434,-76.2955"/>
<polygon fill="#000000" stroke="#000000" points="538.4461,-79.3534 545.5002,-71.4483 535.0561,-73.2291 538.4461,-79.3534"/>
</g>
<!-- 5511 -->
<g id="node26" class="node">
<title>5511</title>
<ellipse fill="none" stroke="#000000" cx="535.6528" cy="-32.9279" rx="28.6953" ry="18"/>
<text text-anchor="middle" x="535.6528" y="-29.2279" font-family="Times,serif" font-size="14.00" fill="#000000">5511</text>
</g>
<!-- 209&#45;&gt;5511 -->
<g id="edge9" class="edge">
<title>209&#45;&gt;5511</title>
<path fill="none" stroke="#000000" d="M499.7547,-86.3492C505.3558,-78.014 512.2652,-67.7318 518.5218,-58.4211"/>
<polygon fill="#000000" stroke="#000000" points="521.5838,-60.1396 524.2563,-49.8874 515.7738,-56.2353 521.5838,-60.1396"/>
</g>
<!-- 6461 -->
<g id="node29" class="node">
<title>6461</title>
<ellipse fill="none" stroke="#000000" cx="399.6701" cy="-89.1472" rx="28.6953" ry="18"/>
<text text-anchor="middle" x="399.6701" y="-85.4472" font-family="Times,serif" font-size="14.00" fill="#000000">6461</text>
</g>
<!-- 209&#45;&gt;6461 -->
<g id="edge10" class="edge">
<title>209&#45;&gt;6461</title>
<path fill="none" stroke="#000000" d="M461.9216,-98.8027C454.2949,-97.6197 445.8325,-96.3072 437.6675,-95.0408"/>
<polygon fill="#000000" stroke="#000000" points="437.9878,-91.5487 427.5695,-93.4745 436.9148,-98.466 437.9878,-91.5487"/>
</g>
<!-- 7018 -->
<g id="node34" class="node">
<title>7018</title>
<ellipse fill="none" stroke="#000000" cx="444.3879" cy="-148.9542" rx="28.6953" ry="18"/>
<text text-anchor="middle" x="444.3879" y="-145.2542" font-family="Times,serif" font-size="14.00" fill="#000000">7018</text>
</g>
<!-- 209&#45;&gt;7018 -->
<g id="edge11" class="edge">
<title>209&#45;&gt;7018</title>
<path fill="none" stroke="#000000" d="M473.8814,-118.263C471.5198,-120.7204 469.0313,-123.31 466.542,-125.9004"/>
<polygon fill="#000000" stroke="#000000" points="463.6034,-123.9071 459.198,-133.5426 468.6507,-128.7574 463.6034,-123.9071"/>
</g>
<!-- 703 -->
<g id="node4" class="node">
<title>703</title>
<ellipse fill="none" stroke="#000000" cx="198.0916" cy="-1022.3959" rx="27" ry="18"/>
<text text-anchor="middle" x="198.0916" y="-1018.6959" font-family="Times,serif" font-size="14.00" fill="#000000">703</text>
</g>
<!-- 9498 -->
<g id="node39" class="node">
<title>9498</title>
<ellipse fill="none" stroke="#000000" cx="113.0527" cy="-1013.962" rx="28.6953" ry="18"/>
<text text-anchor="middle" x="113.0527" y="-1010.262" font-family="Times,serif" font-size="14.00" fill="#000000">9498</text>
</g>
<!-- 703&#45;&gt;9498 -->
<g id="edge12" class="edge">
<title>703&#45;&gt;9498</title>
<path fill="none" stroke="#000000" d="M171.1848,-1019.7274C164.9898,-1019.113 158.2813,-1018.4477 151.6978,-1017.7947"/>
<polygon fill="#000000" stroke="#000000" points="151.8434,-1014.2921 141.5468,-1016.788 151.1525,-1021.2579 151.8434,-1014.2921"/>
</g>
<!-- 1221 -->
<g id="node5" class="node">
<title>1221</title>
<ellipse fill="none" stroke="#000000" cx="414.6512" cy="-1251.026" rx="28.6953" ry="18"/>
<text text-anchor="middle" x="414.6512" y="-1247.326" font-family="Times,serif" font-size="14.00" fill="#000000">1221</text>
</g>
<!-- 2516 -->
<g id="node10" class="node">
<title>2516</title>
<ellipse fill="none" stroke="#000000" cx="343.4454" cy="-950.6251" rx="28.6953" ry="18"/>
<text text-anchor="middle" x="343.4454" y="-946.9251" font-family="Times,serif" font-size="14.00" fill="#000000">2516</text>
</g>
<!-- 32787 -->
<g id="node51" class="node">
<title>32787</title>
<ellipse fill="none" stroke="#000000" cx="293.5506" cy="-1031.3148" rx="32.4942" ry="18"/>
<text text-anchor="middle" x="293.5506" y="-1027.6148" font-family="Times,serif" font-size="14.00" fill="#000000">32787</text>
</g>
<!-- 2516&#45;&gt;32787 -->
<g id="edge13" class="edge">
<title>2516&#45;&gt;32787</title>
<path fill="none" stroke="#000000" d="M332.864,-967.7373C326.0505,-978.7562 317.0682,-993.2823 309.4096,-1005.6678"/>
<polygon fill="#000000" stroke="#000000" points="306.3993,-1003.8812 304.1168,-1014.2273 312.353,-1007.5627 306.3993,-1003.8812"/>
</g>
<!-- 2686 -->
<g id="node11" class="node">
<title>2686</title>
<ellipse fill="none" stroke="#000000" cx="311.2249" cy="-792.9541" rx="28.6953" ry="18"/>
<text text-anchor="middle" x="311.2249" y="-789.2541" font-family="Times,serif" font-size="14.00" fill="#000000">2686</text>
</g>
<!-- 3741 -->
<g id="node22" class="node">
<title>3741</title>
<ellipse fill="none" stroke="#000000" cx="233.2319" cy="-747.3406" rx="28.6953" ry="18"/>
<text text-anchor="middle" x="233.2319" y="-743.6406" font-family="Times,serif" font-size="14.00" fill="#000000">3741</text>
</g>
<!-- 2686&#45;&gt;3741 -->
<g id="edge14" class="edge">
<title>2686&#45;&gt;3741</title>
<path fill="none" stroke="#000000" d="M289.9129,-780.49C281.5916,-775.6234 271.9073,-769.9596 262.9228,-764.7051"/>
<polygon fill="#000000" stroke="#000000" points="264.6471,-761.6589 254.248,-759.6317 261.1132,-767.7014 264.6471,-761.6589"/>
</g>
<!-- 2687 -->
<g id="node12" class="node">
<title>2687</title>
<ellipse fill="none" stroke="#000000" cx="371.8753" cy="-862.8981" rx="28.6953" ry="18"/>
<text text-anchor="middle" x="371.8753" y="-859.1981" font-family="Times,serif" font-size="14.00" fill="#000000">2687</text>
</g>
<!-- 2687&#45;&gt;2516 -->
<g id="edge15" class="edge">
<title>2687&#45;&gt;2516</title>
<path fill="none" stroke="#000000" d="M366.1221,-880.651C362.153,-892.8985 356.8001,-909.4162 352.2917,-923.3278"/>
<polygon fill="#000000" stroke="#000000" points="348.9435,-922.3067 349.1901,-932.8986 355.6026,-924.4647 348.9435,-922.3067"/>
</g>
<!-- 2687&#45;&gt;2686 -->
<g id="edge16" class="edge">
<title>2687&#45;&gt;2686</title>
<path fill="none" stroke="#000000" d="M358.1128,-847.0267C350.2807,-837.9945 340.3224,-826.5103 331.5995,-816.4508"/>
<polygon fill="#000000" stroke="#000000" points="334.1286,-814.0249 324.9329,-808.7627 328.8399,-818.6108 334.1286,-814.0249"/>
</g>
<!-- 9505 -->
<g id="node40" class="node">
<title>9505</title>
<ellipse fill="none" stroke="#000000" cx="308.3966" cy="-845.2231" rx="28.6953" ry="18"/>
<text text-anchor="middle" x="308.3966" y="-841.5231" font-family="Times,serif" font-size="14.00" fill="#000000">9505</text>
</g>
<!-- 2687&#45;&gt;9505 -->
<g id="edge17" class="edge">
<title>2687&#45;&gt;9505</title>
<path fill="none" stroke="#000000" d="M345.6896,-855.6069C345.3566,-855.5142 345.0228,-855.4213 344.6882,-855.3281"/>
<polygon fill="#000000" stroke="#000000" points="345.5046,-851.9224 334.9322,-852.6117 343.6269,-858.6658 345.5046,-851.9224"/>
</g>
<!-- 2764 -->
<g id="node13" class="node">
<title>2764</title>
<ellipse fill="none" stroke="#000000" cx="294.3362" cy="-1122.772" rx="28.6953" ry="18"/>
<text text-anchor="middle" x="294.3362" y="-1119.072" font-family="Times,serif" font-size="14.00" fill="#000000">2764</text>
</g>
<!-- 7545 -->
<g id="node37" class="node">
<title>7545</title>
<ellipse fill="none" stroke="#000000" cx="237.1457" cy="-1193.4909" rx="28.6953" ry="18"/>
<text text-anchor="middle" x="237.1457" y="-1189.7909" font-family="Times,serif" font-size="14.00" fill="#000000">7545</text>
</g>
<!-- 2764&#45;&gt;7545 -->
<g id="edge18" class="edge">
<title>2764&#45;&gt;7545</title>
<path fill="none" stroke="#000000" d="M281.3588,-1138.8192C274.1496,-1147.7337 265.03,-1159.0106 256.9483,-1169.0039"/>
<polygon fill="#000000" stroke="#000000" points="254.0353,-1167.04 250.4686,-1177.0164 259.4782,-1171.4417 254.0353,-1167.04"/>
</g>
<!-- 38333 -->
<g id="node53" class="node">
<title>38333</title>
<ellipse fill="none" stroke="#000000" cx="375.43" cy="-1176.482" rx="32.4942" ry="18"/>
<text text-anchor="middle" x="375.43" y="-1172.782" font-family="Times,serif" font-size="14.00" fill="#000000">38333</text>
</g>
<!-- 2764&#45;&gt;38333 -->
<g id="edge19" class="edge">
<title>2764&#45;&gt;38333</title>
<path fill="none" stroke="#000000" d="M314.3819,-1136.0487C323.909,-1142.3587 335.4853,-1150.0259 345.9854,-1156.9803"/>
<polygon fill="#000000" stroke="#000000" points="344.2138,-1160.005 354.4837,-1162.6089 348.0792,-1154.1689 344.2138,-1160.005"/>
</g>
<!-- 38561 -->
<g id="node54" class="node">
<title>38561</title>
<ellipse fill="none" stroke="#000000" cx="329.0122" cy="-1170.0003" rx="32.4942" ry="18"/>
<text text-anchor="middle" x="329.0122" y="-1166.3003" font-family="Times,serif" font-size="14.00" fill="#000000">38561</text>
</g>
<!-- 2764&#45;&gt;38561 -->
<g id="edge20" class="edge">
<title>2764&#45;&gt;38561</title>
<path fill="none" stroke="#000000" d="M306.4642,-1139.2902C307.7972,-1141.1057 309.1754,-1142.9828 310.5632,-1144.8729"/>
<polygon fill="#000000" stroke="#000000" points="307.8579,-1147.1023 316.5975,-1153.0915 313.5004,-1142.9595 307.8579,-1147.1023"/>
</g>
<!-- 2914 -->
<g id="node15" class="node">
<title>2914</title>
<ellipse fill="none" stroke="#000000" cx="561.0042" cy="-522.3777" rx="28.6953" ry="18"/>
<text text-anchor="middle" x="561.0042" y="-518.6777" font-family="Times,serif" font-size="14.00" fill="#000000">2914</text>
</g>
<!-- 6453 -->
<g id="node28" class="node">
<title>6453</title>
<ellipse fill="none" stroke="#000000" cx="545.029" cy="-440.4935" rx="28.6953" ry="18"/>
<text text-anchor="middle" x="545.029" y="-436.7935" font-family="Times,serif" font-size="14.00" fill="#000000">6453</text>
</g>
<!-- 2914&#45;&gt;6453 -->
<g id="edge21" class="edge">
<title>2914&#45;&gt;6453</title>
<path fill="none" stroke="#000000" d="M557.4588,-504.2049C555.4112,-493.7097 552.7926,-480.2875 550.4874,-468.4716"/>
<polygon fill="#000000" stroke="#000000" points="553.9147,-467.7602 548.5645,-458.6155 547.0442,-469.1006 553.9147,-467.7602"/>
</g>
<!-- 3257 -->
<g id="node16" class="node">
<title>3257</title>
<ellipse fill="none" stroke="#000000" cx="530.1263" cy="-360.4789" rx="28.6953" ry="18"/>
<text text-anchor="middle" x="530.1263" y="-356.7789" font-family="Times,serif" font-size="14.00" fill="#000000">3257</text>
</g>
<!-- 3491 -->
<g id="node19" class="node">
<title>3491</title>
<ellipse fill="none" stroke="#000000" cx="515.9298" cy="-281.0833" rx="28.6953" ry="18"/>
<text text-anchor="middle" x="515.9298" y="-277.3833" font-family="Times,serif" font-size="14.00" fill="#000000">3491</text>
</g>
<!-- 3257&#45;&gt;3491 -->
<g id="edge22" class="edge">
<title>3257&#45;&gt;3491</title>
<path fill="none" stroke="#000000" d="M526.9049,-342.4628C525.1442,-332.6161 522.9245,-320.2022 520.9428,-309.1191"/>
<polygon fill="#000000" stroke="#000000" points="524.344,-308.2559 519.1384,-299.0281 517.4533,-309.4881 524.344,-308.2559"/>
</g>
<!-- 3356 -->
<g id="node18" class="node">
<title>3356</title>
<ellipse fill="none" stroke="#000000" cx="684.5321" cy="-717.2256" rx="28.6953" ry="18"/>
<text text-anchor="middle" x="684.5321" y="-713.5256" font-family="Times,serif" font-size="14.00" fill="#000000">3356</text>
</g>
<!-- 3549 -->
<g id="node20" class="node">
<title>3549</title>
<ellipse fill="none" stroke="#000000" cx="595.5201" cy="-698.1078" rx="28.6953" ry="18"/>
<text text-anchor="middle" x="595.5201" y="-694.4078" font-family="Times,serif" font-size="14.00" fill="#000000">3549</text>
</g>
<!-- 3356&#45;&gt;3549 -->
<g id="edge23" class="edge">
<title>3356&#45;&gt;3549</title>
<path fill="none" stroke="#000000" d="M657.3419,-711.3858C649.5635,-709.7151 640.949,-707.8649 632.6822,-706.0894"/>
<polygon fill="#000000" stroke="#000000" points="633.3625,-702.6558 622.8505,-703.9778 631.8926,-709.4997 633.3625,-702.6558"/>
</g>
<!-- 3491&#45;&gt;174 -->
<g id="edge24" class="edge">
<title>3491&#45;&gt;174</title>
<path fill="none" stroke="#000000" d="M513.285,-262.8401C511.773,-252.4106 509.8436,-239.1019 508.1368,-227.3283"/>
<polygon fill="#000000" stroke="#000000" points="511.5488,-226.4683 506.6502,-217.074 504.6212,-227.4727 511.5488,-226.4683"/>
</g>
<!-- 6762 -->
<g id="node30" class="node">
<title>6762</title>
<ellipse fill="none" stroke="#000000" cx="578.328" cy="-607.4248" rx="28.6953" ry="18"/>
<text text-anchor="middle" x="578.328" y="-603.7248" font-family="Times,serif" font-size="14.00" fill="#000000">6762</text>
</g>
<!-- 3549&#45;&gt;6762 -->
<g id="edge25" class="edge">
<title>3549&#45;&gt;6762</title>
<path fill="none" stroke="#000000" d="M592.1235,-680.1917C589.6981,-667.3988 586.3882,-649.9402 583.6185,-635.3307"/>
<polygon fill="#000000" stroke="#000000" points="587.019,-634.4766 581.7175,-625.3036 580.1415,-635.7806 587.019,-634.4766"/>
</g>
<!-- 30070 -->
<g id="node50" class="node">
<title>30070</title>
<ellipse fill="none" stroke="#000000" cx="523.9179" cy="-762.3463" rx="32.4942" ry="18"/>
<text text-anchor="middle" x="523.9179" y="-758.6463" font-family="Times,serif" font-size="14.00" fill="#000000">30070</text>
</g>
<!-- 3549&#45;&gt;30070 -->
<g id="edge26" class="edge">
<title>3549&#45;&gt;30070</title>
<path fill="none" stroke="#000000" d="M578.9131,-713.0069C570.0464,-720.9617 558.9496,-730.9173 549.0505,-739.7984"/>
<polygon fill="#000000" stroke="#000000" points="546.5399,-737.3486 541.4338,-746.6318 551.2145,-742.559 546.5399,-737.3486"/>
</g>
<!-- 3597 -->
<g id="node21" class="node">
<title>3597</title>
<ellipse fill="none" stroke="#000000" cx="957.3613" cy="-702.086" rx="28.6953" ry="18"/>
<text text-anchor="middle" x="957.3613" y="-698.386" font-family="Times,serif" font-size="14.00" fill="#000000">3597</text>
</g>
<!-- 37179 -->
<g id="node52" class="node">
<title>37179</title>
<ellipse fill="none" stroke="#000000" cx="154.8282" cy="-718.779" rx="32.4942" ry="18"/>
<text text-anchor="middle" x="154.8282" y="-715.079" font-family="Times,serif" font-size="14.00" fill="#000000">37179</text>
</g>
<!-- 3741&#45;&gt;37179 -->
<g id="edge27" class="edge">
<title>3741&#45;&gt;37179</title>
<path fill="none" stroke="#000000" d="M208.4245,-738.3036C203.0788,-736.3562 197.3184,-734.2577 191.6258,-732.184"/>
<polygon fill="#000000" stroke="#000000" points="192.7889,-728.8827 182.1949,-728.7484 190.3929,-735.4599 192.7889,-728.8827"/>
</g>
<!-- 4635 -->
<g id="node23" class="node">
<title>4635</title>
<ellipse fill="none" stroke="#000000" cx="280.1372" cy="-1270.2995" rx="28.6953" ry="18"/>
<text text-anchor="middle" x="280.1372" y="-1266.5995" font-family="Times,serif" font-size="14.00" fill="#000000">4635</text>
</g>
<!-- 4637 -->
<g id="node24" class="node">
<title>4637</title>
<ellipse fill="none" stroke="#000000" cx="355.7144" cy="-1052.148" rx="28.6953" ry="18"/>
<text text-anchor="middle" x="355.7144" y="-1048.448" font-family="Times,serif" font-size="14.00" fill="#000000">4637</text>
</g>
<!-- 4739 -->
<g id="node25" class="node">
<title>4739</title>
<ellipse fill="none" stroke="#000000" cx="223.9959" cy="-1273.6699" rx="28.6953" ry="18"/>
<text text-anchor="middle" x="223.9959" y="-1269.9699" font-family="Times,serif" font-size="14.00" fill="#000000">4739</text>
</g>
<!-- 5692 -->
<g id="node27" class="node">
<title>5692</title>
<ellipse fill="none" stroke="#000000" cx="955.545" cy="-784.1312" rx="28.6953" ry="18"/>
<text text-anchor="middle" x="955.545" y="-780.4312" font-family="Times,serif" font-size="14.00" fill="#000000">5692</text>
</g>
<!-- 5692&#45;&gt;3597 -->
<g id="edge28" class="edge">
<title>5692&#45;&gt;3597</title>
<path fill="none" stroke="#000000" d="M955.9481,-765.9227C956.1786,-755.5131 956.4726,-742.2297 956.7328,-730.4784"/>
<polygon fill="#000000" stroke="#000000" points="960.2371,-730.3187 956.9594,-720.2436 953.2388,-730.1637 960.2371,-730.3187"/>
</g>
<!-- 10834 -->
<g id="node43" class="node">
<title>10834</title>
<ellipse fill="none" stroke="#000000" cx="857.4182" cy="-746.8404" rx="32.4942" ry="18"/>
<text text-anchor="middle" x="857.4182" y="-743.1404" font-family="Times,serif" font-size="14.00" fill="#000000">10834</text>
</g>
<!-- 5692&#45;&gt;10834 -->
<g id="edge29" class="edge">
<title>5692&#45;&gt;10834</title>
<path fill="none" stroke="#000000" d="M931.0366,-774.8174C919.8385,-770.5618 906.3411,-765.4324 893.9785,-760.7343"/>
<polygon fill="#000000" stroke="#000000" points="894.9639,-757.3646 884.3728,-757.0838 892.4771,-763.908 894.9639,-757.3646"/>
</g>
<!-- 11008 -->
<g id="node44" class="node">
<title>11008</title>
<ellipse fill="none" stroke="#000000" cx="1032.3427" cy="-828.5265" rx="32.4942" ry="18"/>
<text text-anchor="middle" x="1032.3427" y="-824.8265" font-family="Times,serif" font-size="14.00" fill="#000000">11008</text>
</g>
<!-- 5692&#45;&gt;11008 -->
<g id="edge30" class="edge">
<title>5692&#45;&gt;11008</title>
<path fill="none" stroke="#000000" d="M976.9374,-796.4978C984.3542,-800.7852 992.8317,-805.6859 1000.8874,-810.3428"/>
<polygon fill="#000000" stroke="#000000" points="999.3151,-813.4766 1009.7243,-815.4512 1002.8185,-807.4163 999.3151,-813.4766"/>
</g>
<!-- 27865 -->
<g id="node48" class="node">
<title>27865</title>
<ellipse fill="none" stroke="#000000" cx="1018.5721" cy="-726.3069" rx="32.4942" ry="18"/>
<text text-anchor="middle" x="1018.5721" y="-722.6069" font-family="Times,serif" font-size="14.00" fill="#000000">27865</text>
</g>
<!-- 5692&#45;&gt;27865 -->
<g id="edge31" class="edge">
<title>5692&#45;&gt;27865</title>
<path fill="none" stroke="#000000" d="M971.776,-769.24C978.5259,-763.0473 986.51,-755.7223 993.9543,-748.8925"/>
<polygon fill="#000000" stroke="#000000" points="996.7338,-751.0923 1001.7363,-741.7529 992.0015,-745.9343 996.7338,-751.0923"/>
</g>
<!-- 28065 -->
<g id="node49" class="node">
<title>28065</title>
<ellipse fill="none" stroke="#000000" cx="1041.0891" cy="-756.8528" rx="32.4942" ry="18"/>
<text text-anchor="middle" x="1041.0891" y="-753.1528" font-family="Times,serif" font-size="14.00" fill="#000000">28065</text>
</g>
<!-- 5692&#45;&gt;28065 -->
<g id="edge32" class="edge">
<title>5692&#45;&gt;28065</title>
<path fill="none" stroke="#000000" d="M981.211,-775.9468C988.1233,-773.7426 995.7492,-771.3109 1003.177,-768.9423"/>
<polygon fill="#000000" stroke="#000000" points="1004.2868,-772.2621 1012.7508,-765.8894 1002.1601,-765.593 1004.2868,-772.2621"/>
</g>
<!-- 52317 -->
<g id="node55" class="node">
<title>52317</title>
<ellipse fill="none" stroke="#000000" cx="1003.607" cy="-853.9656" rx="32.4942" ry="18"/>
<text text-anchor="middle" x="1003.607" y="-850.2656" font-family="Times,serif" font-size="14.00" fill="#000000">52317</text>
</g>
<!-- 5692&#45;&gt;52317 -->
<g id="edge33" class="edge">
<title>5692&#45;&gt;52317</title>
<path fill="none" stroke="#000000" d="M966.935,-800.681C972.6568,-808.9948 979.7153,-819.2508 986.1067,-828.5376"/>
<polygon fill="#000000" stroke="#000000" points="983.4123,-830.7962 991.9649,-837.0495 989.1786,-826.8276 983.4123,-830.7962"/>
</g>
<!-- 52375 -->
<g id="node56" class="node">
<title>52375</title>
<ellipse fill="none" stroke="#000000" cx="994.1074" cy="-699.2889" rx="32.4942" ry="18"/>
<text text-anchor="middle" x="994.1074" y="-695.5889" font-family="Times,serif" font-size="14.00" fill="#000000">52375</text>
</g>
<!-- 5692&#45;&gt;52375 -->
<g id="edge34" class="edge">
<title>5692&#45;&gt;52375</title>
<path fill="none" stroke="#000000" d="M963.5352,-766.5518C968.8608,-754.8347 975.9609,-739.2136 981.9782,-725.9748"/>
<polygon fill="#000000" stroke="#000000" points="985.1759,-727.3978 986.1275,-716.8457 978.8033,-724.5012 985.1759,-727.3978"/>
</g>
<!-- 52376 -->
<g id="node57" class="node">
<title>52376</title>
<ellipse fill="none" stroke="#000000" cx="928.9338" cy="-734.1174" rx="32.4942" ry="18"/>
<text text-anchor="middle" x="928.9338" y="-730.4174" font-family="Times,serif" font-size="14.00" fill="#000000">52376</text>
</g>
<!-- 5692&#45;&gt;52376 -->
<g id="edge35" class="edge">
<title>5692&#45;&gt;52376</title>
<path fill="none" stroke="#000000" d="M946.3869,-766.9193C945.312,-764.899 944.1969,-762.8032 943.0738,-760.6925"/>
<polygon fill="#000000" stroke="#000000" points="945.9862,-758.7149 938.1991,-751.5308 939.8065,-762.003 945.9862,-758.7149"/>
</g>
<!-- 52380 -->
<g id="node58" class="node">
<title>52380</title>
<ellipse fill="none" stroke="#000000" cx="929.9826" cy="-875.4223" rx="32.4942" ry="18"/>
<text text-anchor="middle" x="929.9826" y="-871.7223" font-family="Times,serif" font-size="14.00" fill="#000000">52380</text>
</g>
<!-- 5692&#45;&gt;52380 -->
<g id="edge36" class="edge">
<title>5692&#45;&gt;52380</title>
<path fill="none" stroke="#000000" d="M950.4947,-802.1674C946.8535,-815.1711 941.8715,-832.9635 937.7292,-847.7568"/>
<polygon fill="#000000" stroke="#000000" points="934.3485,-846.8502 935.0224,-857.4236 941.0892,-848.7377 934.3485,-846.8502"/>
</g>
<!-- 52413 -->
<g id="node59" class="node">
<title>52413</title>
<ellipse fill="none" stroke="#000000" cx="1028.6529" cy="-791.6334" rx="32.4942" ry="18"/>
<text text-anchor="middle" x="1028.6529" y="-787.9334" font-family="Times,serif" font-size="14.00" fill="#000000">52413</text>
</g>
<!-- 5692&#45;&gt;52413 -->
<g id="edge37" class="edge">
<title>5692&#45;&gt;52413</title>
<path fill="none" stroke="#000000" d="M984.0198,-787.0533C984.7715,-787.1304 985.528,-787.208 986.288,-787.286"/>
<polygon fill="#000000" stroke="#000000" points="985.9457,-790.7692 996.2508,-788.3084 986.6604,-783.8058 985.9457,-790.7692"/>
</g>
<!-- 52431 -->
<g id="node60" class="node">
<title>52431</title>
<ellipse fill="none" stroke="#000000" cx="896.1703" cy="-815.3008" rx="32.4942" ry="18"/>
<text text-anchor="middle" x="896.1703" y="-811.6008" font-family="Times,serif" font-size="14.00" fill="#000000">52431</text>
</g>
<!-- 5692&#45;&gt;52431 -->
<g id="edge38" class="edge">
<title>5692&#45;&gt;52431</title>
<path fill="none" stroke="#000000" d="M933.4361,-795.7376C932.076,-796.4516 930.6932,-797.1775 929.3002,-797.9088"/>
<polygon fill="#000000" stroke="#000000" points="927.3176,-794.9966 920.0903,-802.7436 930.5713,-801.1944 927.3176,-794.9966"/>
</g>
<!-- 262230 -->
<g id="node61" class="node">
<title>262230</title>
<ellipse fill="none" stroke="#000000" cx="923.7055" cy="-842.1521" rx="37.0935" ry="18"/>
<text text-anchor="middle" x="923.7055" y="-838.4521" font-family="Times,serif" font-size="14.00" fill="#000000">262230</text>
</g>
<!-- 5692&#45;&gt;262230 -->
<g id="edge39" class="edge">
<title>5692&#45;&gt;262230</title>
<path fill="none" stroke="#000000" d="M946.1643,-801.2256C943.7051,-805.7069 940.994,-810.6474 938.3314,-815.4994"/>
<polygon fill="#000000" stroke="#000000" points="935.0927,-814.1261 933.3502,-824.5766 941.2295,-817.4937 935.0927,-814.1261"/>
</g>
<!-- 264608 -->
<g id="node62" class="node">
<title>264608</title>
<ellipse fill="none" stroke="#000000" cx="972.928" cy="-873.488" rx="37.0935" ry="18"/>
<text text-anchor="middle" x="972.928" y="-869.788" font-family="Times,serif" font-size="14.00" fill="#000000">264608</text>
</g>
<!-- 5692&#45;&gt;264608 -->
<g id="edge40" class="edge">
<title>5692&#45;&gt;264608</title>
<path fill="none" stroke="#000000" d="M959.0627,-802.2139C961.466,-814.5679 964.699,-831.1872 967.4386,-845.2701"/>
<polygon fill="#000000" stroke="#000000" points="964.0703,-846.2846 969.4155,-855.4322 970.9415,-844.9479 964.0703,-846.2846"/>
</g>
<!-- 6453&#45;&gt;3257 -->
<g id="edge41" class="edge">
<title>6453&#45;&gt;3257</title>
<path fill="none" stroke="#000000" d="M541.6473,-422.3369C539.7991,-412.4135 537.469,-399.9027 535.3887,-388.7333"/>
<polygon fill="#000000" stroke="#000000" points="538.7665,-387.7536 533.4946,-378.5636 531.8848,-389.0354 538.7665,-387.7536"/>
</g>
<!-- 6762&#45;&gt;2914 -->
<g id="edge42" class="edge">
<title>6762&#45;&gt;2914</title>
<path fill="none" stroke="#000000" d="M574.654,-589.3885C572.3572,-578.1129 569.3507,-563.3528 566.744,-550.5559"/>
<polygon fill="#000000" stroke="#000000" points="570.0985,-549.4882 564.6728,-540.388 563.2393,-550.8854 570.0985,-549.4882"/>
</g>
<!-- 6904 -->
<g id="node31" class="node">
<title>6904</title>
<ellipse fill="none" stroke="#000000" cx="448.174" cy="-817.0448" rx="28.6953" ry="18"/>
<text text-anchor="middle" x="448.174" y="-813.3448" font-family="Times,serif" font-size="14.00" fill="#000000">6904</text>
</g>
<!-- 6904&#45;&gt;2687 -->
<g id="edge43" class="edge">
<title>6904&#45;&gt;2687</title>
<path fill="none" stroke="#000000" d="M427.325,-829.5744C419.3347,-834.3763 410.0598,-839.9503 401.4087,-845.1494"/>
<polygon fill="#000000" stroke="#000000" points="399.4674,-842.2326 392.699,-850.3836 403.0732,-848.2325 399.4674,-842.2326"/>
</g>
<!-- 6939 -->
<g id="node32" class="node">
<title>6939</title>
<ellipse fill="none" stroke="#000000" cx="153.3094" cy="-1187.8261" rx="28.6953" ry="18"/>
<text text-anchor="middle" x="153.3094" y="-1184.1261" font-family="Times,serif" font-size="14.00" fill="#000000">6939</text>
</g>
<!-- 7016 -->
<g id="node33" class="node">
<title>7016</title>
<ellipse fill="none" stroke="#000000" cx="559.2083" cy="-820.1996" rx="28.6953" ry="18"/>
<text text-anchor="middle" x="559.2083" y="-816.4996" font-family="Times,serif" font-size="14.00" fill="#000000">7016</text>
</g>
<!-- 7922 -->
<g id="node38" class="node">
<title>7922</title>
<ellipse fill="none" stroke="#000000" cx="592" cy="-887.9912" rx="28.6953" ry="18"/>
<text text-anchor="middle" x="592" y="-884.2912" font-family="Times,serif" font-size="14.00" fill="#000000">7922</text>
</g>
<!-- 7016&#45;&gt;7922 -->
<g id="edge44" class="edge">
<title>7016&#45;&gt;7922</title>
<path fill="none" stroke="#000000" d="M567.653,-837.6576C571.1067,-844.7976 575.1815,-853.2216 578.9994,-861.1145"/>
<polygon fill="#000000" stroke="#000000" points="575.9647,-862.8787 583.47,-870.3567 582.2662,-859.8305 575.9647,-862.8787"/>
</g>
<!-- 7473 -->
<g id="node35" class="node">
<title>7473</title>
<ellipse fill="none" stroke="#000000" cx="228.6695" cy="-816.9799" rx="28.6953" ry="18"/>
<text text-anchor="middle" x="228.6695" y="-813.2799" font-family="Times,serif" font-size="14.00" fill="#000000">7473</text>
</g>
<!-- 7474 -->
<g id="node36" class="node">
<title>7474</title>
<ellipse fill="none" stroke="#000000" cx="243.9013" cy="-1002.9572" rx="28.6953" ry="18"/>
<text text-anchor="middle" x="243.9013" y="-999.2572" font-family="Times,serif" font-size="14.00" fill="#000000">7474</text>
</g>
<!-- 7545&#45;&gt;4635 -->
<g id="edge45" class="edge">
<title>7545&#45;&gt;4635</title>
<path fill="none" stroke="#000000" d="M246.6869,-1210.5372C252.2528,-1220.4813 259.3867,-1233.2268 265.6356,-1244.391"/>
<polygon fill="#000000" stroke="#000000" points="262.6843,-1246.2842 270.6226,-1253.3008 268.7925,-1242.8652 262.6843,-1246.2842"/>
</g>
<!-- 7545&#45;&gt;4739 -->
<g id="edge46" class="edge">
<title>7545&#45;&gt;4739</title>
<path fill="none" stroke="#000000" d="M234.1618,-1211.6847C232.5309,-1221.6286 230.4749,-1234.165 228.6393,-1245.3574"/>
<polygon fill="#000000" stroke="#000000" points="225.1326,-1245.1134 226.9679,-1255.548 232.0403,-1246.2463 225.1326,-1245.1134"/>
</g>
<!-- 7545&#45;&gt;6939 -->
<g id="edge47" class="edge">
<title>7545&#45;&gt;6939</title>
<path fill="none" stroke="#000000" d="M208.294,-1191.5414C203.0986,-1191.1903 197.6057,-1190.8192 192.1813,-1190.4527"/>
<polygon fill="#000000" stroke="#000000" points="192.1435,-1186.9422 181.9302,-1189.76 191.6715,-1193.9263 192.1435,-1186.9422"/>
</g>
<!-- 9942 -->
<g id="node41" class="node">
<title>9942</title>
<ellipse fill="none" stroke="#000000" cx="171.1561" cy="-1240.1955" rx="28.6953" ry="18"/>
<text text-anchor="middle" x="171.1561" y="-1236.4955" font-family="Times,serif" font-size="14.00" fill="#000000">9942</text>
</g>
<!-- 7545&#45;&gt;9942 -->
<g id="edge48" class="edge">
<title>7545&#45;&gt;9942</title>
<path fill="none" stroke="#000000" d="M218.0587,-1206.9998C212.0921,-1211.2228 205.3827,-1215.9714 198.9446,-1220.528"/>
<polygon fill="#000000" stroke="#000000" points="196.5692,-1217.9212 190.4287,-1226.5552 200.6132,-1223.6349 196.5692,-1217.9212"/>
</g>
<!-- 10026 -->
<g id="node42" class="node">
<title>10026</title>
<ellipse fill="none" stroke="#000000" cx="32.4971" cy="-1016.9534" rx="32.4942" ry="18"/>
<text text-anchor="middle" x="32.4971" y="-1013.2534" font-family="Times,serif" font-size="14.00" fill="#000000">10026</text>
</g>
<!-- 9498&#45;&gt;10026 -->
<g id="edge49" class="edge">
<title>9498&#45;&gt;10026</title>
<path fill="none" stroke="#000000" d="M84.425,-1015.0251C81.4021,-1015.1373 78.2835,-1015.2531 75.1456,-1015.3697"/>
<polygon fill="#000000" stroke="#000000" points="75.0147,-1011.872 65.1515,-1015.7408 75.2745,-1018.8672 75.0147,-1011.872"/>
</g>
<!-- 9505&#45;&gt;7473 -->
<g id="edge50" class="edge">
<title>9505&#45;&gt;7473</title>
<path fill="none" stroke="#000000" d="M283.1704,-836.2867C276.8563,-834.05 269.9732,-831.6117 263.2902,-829.2442"/>
<polygon fill="#000000" stroke="#000000" points="264.3263,-825.8982 253.7315,-825.8581 261.9888,-832.4964 264.3263,-825.8982"/>
</g>
<!-- 12956 -->
<g id="node45" class="node">
<title>12956</title>
<ellipse fill="none" stroke="#000000" cx="769.2718" cy="-738.0539" rx="32.4942" ry="18"/>
<text text-anchor="middle" x="769.2718" y="-734.3539" font-family="Times,serif" font-size="14.00" fill="#000000">12956</text>
</g>
<!-- 10834&#45;&gt;12956 -->
<g id="edge51" class="edge">
<title>10834&#45;&gt;12956</title>
<path fill="none" stroke="#000000" d="M825.346,-743.6434C820.8496,-743.1952 816.1728,-742.729 811.5231,-742.2655"/>
<polygon fill="#000000" stroke="#000000" points="811.7657,-738.7724 801.4679,-741.2632 811.0714,-745.7379 811.7657,-738.7724"/>
</g>
<!-- 22927 -->
<g id="node47" class="node">
<title>22927</title>
<ellipse fill="none" stroke="#000000" cx="862.4226" cy="-662.3565" rx="32.4942" ry="18"/>
<text text-anchor="middle" x="862.4226" y="-658.6565" font-family="Times,serif" font-size="14.00" fill="#000000">22927</text>
</g>
<!-- 10834&#45;&gt;22927 -->
<g id="edge52" class="edge">
<title>10834&#45;&gt;22927</title>
<path fill="none" stroke="#000000" d="M858.5041,-728.5086C859.1644,-717.3619 860.0208,-702.9031 860.7646,-690.3472"/>
<polygon fill="#000000" stroke="#000000" points="864.2585,-690.5517 861.356,-680.3622 857.2708,-690.1377 864.2585,-690.5517"/>
</g>
<!-- 12956&#45;&gt;3356 -->
<g id="edge53" class="edge">
<title>12956&#45;&gt;3356</title>
<path fill="none" stroke="#000000" d="M739.1572,-730.6519C733.3668,-729.2287 727.2424,-727.7234 721.2699,-726.2554"/>
<polygon fill="#000000" stroke="#000000" points="721.9944,-722.8294 711.448,-723.8413 720.3235,-729.6271 721.9944,-722.8294"/>
</g>
<!-- 18540 -->
<g id="node46" class="node">
<title>18540</title>
<ellipse fill="none" stroke="#000000" cx="483.9369" cy="-711.1532" rx="32.4942" ry="18"/>
<text text-anchor="middle" x="483.9369" y="-707.4532" font-family="Times,serif" font-size="14.00" fill="#000000">18540</text>
</g>
<!-- 30070&#45;&gt;6904 -->
<g id="edge54" class="edge">
<title>30070&#45;&gt;6904</title>
<path fill="none" stroke="#000000" d="M504.0171,-776.7177C495.2919,-783.0185 484.91,-790.5158 475.4786,-797.3267"/>
<polygon fill="#000000" stroke="#000000" points="473.2171,-794.6426 467.1591,-803.3347 477.3153,-800.3176 473.2171,-794.6426"/>
</g>
<!-- 30070&#45;&gt;7016 -->
<g id="edge55" class="edge">
<title>30070&#45;&gt;7016</title>
<path fill="none" stroke="#000000" d="M534.5062,-779.7042C537.3486,-784.3638 540.4835,-789.503 543.5384,-794.5111"/>
<polygon fill="#000000" stroke="#000000" points="540.6748,-796.5377 548.8704,-803.2521 546.6507,-792.8923 540.6748,-796.5377"/>
</g>
<!-- 30070&#45;&gt;18540 -->
<g id="edge56" class="edge">
<title>30070&#45;&gt;18540</title>
<path fill="none" stroke="#000000" d="M510.8266,-745.5837C508.3856,-742.4581 505.7881,-739.1322 503.2066,-735.8268"/>
<polygon fill="#000000" stroke="#000000" points="505.8346,-733.5055 496.921,-727.7785 500.3177,-737.8141 505.8346,-733.5055"/>
</g>
<!-- 32787&#45;&gt;703 -->
<g id="edge57" class="edge">
<title>32787&#45;&gt;703</title>
<path fill="none" stroke="#000000" d="M261.4986,-1028.3202C253.1041,-1027.5358 243.9817,-1026.6835 235.3413,-1025.8762"/>
<polygon fill="#000000" stroke="#000000" points="235.4045,-1022.367 225.1223,-1024.9215 234.7533,-1029.3366 235.4045,-1022.367"/>
</g>
<!-- 32787&#45;&gt;2764 -->
<g id="edge58" class="edge">
<title>32787&#45;&gt;2764</title>
<path fill="none" stroke="#000000" d="M293.7058,-1049.3838C293.8167,-1062.286 293.9679,-1079.8936 294.0945,-1094.6279"/>
<polygon fill="#000000" stroke="#000000" points="290.5955,-1094.771 294.1813,-1104.7406 297.5952,-1094.7108 290.5955,-1094.771"/>
</g>
<!-- 32787&#45;&gt;4637 -->
<g id="edge59" class="edge">
<title>32787&#45;&gt;4637</title>
<path fill="none" stroke="#000000" d="M321.3597,-1040.6346C321.4527,-1040.6658 321.5457,-1040.6969 321.6387,-1040.7281"/>
<polygon fill="#000000" stroke="#000000" points="319.6988,-1043.7692 330.2927,-1043.6284 321.9232,-1037.1321 319.6988,-1043.7692"/>
</g>
<!-- 32787&#45;&gt;7474 -->
<g id="edge60" class="edge">
<title>32787&#45;&gt;7474</title>
<path fill="none" stroke="#000000" d="M270.7604,-1018.298C270.6456,-1018.2325 270.5309,-1018.1669 270.416,-1018.1013"/>
<polygon fill="#000000" stroke="#000000" points="275.6691,-1017.0711 265.2498,-1015.1506 272.1973,-1023.1495 275.6691,-1017.0711"/>
</g>
<!-- 38333&#45;&gt;1221 -->
<g id="edge61" class="edge">
<title>38333&#45;&gt;1221</title>
<path fill="none" stroke="#000000" d="M384.5267,-1193.7713C389.3779,-1202.9915 395.4478,-1214.5281 400.8655,-1224.8248"/>
<polygon fill="#000000" stroke="#000000" points="397.85,-1226.6104 405.6038,-1233.8305 404.0449,-1223.351 397.85,-1226.6104"/>
</g>
</g>
</svg>
