<?xml version="1.0" encoding="UTF-8" standalone="no"?>
<!DOCTYPE svg PUBLIC "-//W3C//DTD SVG 1.1//EN"
 "http://www.w3.org/Graphics/SVG/1.1/DTD/svg11.dtd">
<!-- Generated by graphviz version 2.40.1 (20161225.0304)
 -->
<!-- Title: %3 Pages: 1 -->
<svg width="776pt" height="587pt"
 viewBox="0.00 0.00 776.48 587.24" xmlns="http://www.w3.org/2000/svg" xmlns:xlink="http://www.w3.org/1999/xlink">
<g id="graph0" class="graph" transform="scale(1 1) rotate(0) translate(4 583.2352)">
<title>%3</title>
<polygon fill="#ffffff" stroke="transparent" points="-4,4 -4,-583.2352 772.4831,-583.2352 772.4831,4 -4,4"/>
<!-- 174 -->
<g id="node1" class="node">
<title>174</title>
<ellipse fill="none" stroke="#000000" cx="655.0662" cy="-463.0747" rx="27" ry="18"/>
<text text-anchor="middle" x="655.0662" y="-459.3747" font-family="Times,serif" font-size="14.00" fill="#000000">174</text>
</g>
<!-- 209 -->
<g id="node2" class="node">
<title>209</title>
<ellipse fill="none" stroke="#000000" cx="687.906" cy="-513.2493" rx="27" ry="18"/>
<text text-anchor="middle" x="687.906" y="-509.5493" font-family="Times,serif" font-size="14.00" fill="#000000">209</text>
</g>
<!-- 174&#45;&gt;209 -->
<g id="edge1" class="edge">
<title>174&#45;&gt;209</title>
<path fill="none" stroke="#000000" d="M666.0014,-479.7821C667.7005,-482.3781 669.4881,-485.1093 671.279,-487.8455"/>
<polygon fill="#000000" stroke="#000000" points="668.5017,-489.9933 676.9066,-496.4438 674.3587,-486.1598 668.5017,-489.9933"/>
</g>
<!-- 701 -->
<g id="node3" class="node">
<title>701</title>
<ellipse fill="none" stroke="#000000" cx="714.4122" cy="-534.8092" rx="27" ry="18"/>
<text text-anchor="middle" x="714.4122" y="-531.1092" font-family="Times,serif" font-size="14.00" fill="#000000">701</text>
</g>
<!-- 209&#45;&gt;701 -->
<g id="edge2" class="edge">
<title>209&#45;&gt;701</title>
<path fill="none" stroke="#000000" d="M705.1416,-527.2686C705.2207,-527.3329 705.2996,-527.3971 705.3783,-527.4611"/>
<polygon fill="#000000" stroke="#000000" points="695.6462,-524.0567 705.6136,-527.6525 700.0641,-518.6257 695.6462,-524.0567"/>
</g>
<!-- 1239 -->
<g id="node6" class="node">
<title>1239</title>
<ellipse fill="none" stroke="#000000" cx="668.5793" cy="-561.2352" rx="28.6953" ry="18"/>
<text text-anchor="middle" x="668.5793" y="-557.5352" font-family="Times,serif" font-size="14.00" fill="#000000">1239</text>
</g>
<!-- 209&#45;&gt;1239 -->
<g id="edge3" class="edge">
<title>209&#45;&gt;1239</title>
<path fill="none" stroke="#000000" d="M680.8192,-530.845C680.3991,-531.8882 679.9719,-532.9487 679.5412,-534.018"/>
<polygon fill="#000000" stroke="#000000" points="676.1547,-533.0581 675.6653,-543.6416 682.6478,-535.6733 676.1547,-533.0581"/>
</g>
<!-- 1273 -->
<g id="node7" class="node">
<title>1273</title>
<ellipse fill="none" stroke="#000000" cx="680.9597" cy="-537.0133" rx="28.6953" ry="18"/>
<text text-anchor="middle" x="680.9597" y="-533.3133" font-family="Times,serif" font-size="14.00" fill="#000000">1273</text>
</g>
<!-- 209&#45;&gt;1273 -->
<g id="edge4" class="edge">
<title>209&#45;&gt;1273</title>
<path fill="none" stroke="#000000" d="M682.7125,-531.0166C682.6968,-531.0703 682.6812,-531.1239 682.6656,-531.1771"/>
<polygon fill="#000000" stroke="#000000" points="682.0695,-520.7542 682.6191,-531.3363 688.7886,-522.7212 682.0695,-520.7542"/>
</g>
<!-- 1299 -->
<g id="node8" class="node">
<title>1299</title>
<ellipse fill="none" stroke="#000000" cx="704.5105" cy="-558.45" rx="28.6953" ry="18"/>
<text text-anchor="middle" x="704.5105" y="-554.75" font-family="Times,serif" font-size="14.00" fill="#000000">1299</text>
</g>
<!-- 209&#45;&gt;1299 -->
<g id="edge5" class="edge">
<title>209&#45;&gt;1299</title>
<path fill="none" stroke="#000000" d="M694.3733,-530.8545C694.4108,-530.9567 694.4484,-531.0591 694.4861,-531.1617"/>
<polygon fill="#000000" stroke="#000000" points="691.2999,-532.6387 698.0335,-540.8185 697.8706,-530.2249 691.2999,-532.6387"/>
</g>
<!-- 2497 -->
<g id="node9" class="node">
<title>2497</title>
<ellipse fill="none" stroke="#000000" cx="681.4307" cy="-480.1409" rx="28.6953" ry="18"/>
<text text-anchor="middle" x="681.4307" y="-476.4409" font-family="Times,serif" font-size="14.00" fill="#000000">2497</text>
</g>
<!-- 209&#45;&gt;2497 -->
<g id="edge6" class="edge">
<title>209&#45;&gt;2497</title>
<path fill="none" stroke="#000000" d="M684.3652,-495.1452C684.3534,-495.0848 684.3416,-495.0244 684.3298,-494.9641"/>
<polygon fill="#000000" stroke="#000000" points="689.6532,-503.924 684.2944,-494.7832 682.7833,-505.2707 689.6532,-503.924"/>
</g>
<!-- 2828 -->
<g id="node14" class="node">
<title>2828</title>
<ellipse fill="none" stroke="#000000" cx="728.2489" cy="-495.4765" rx="28.6953" ry="18"/>
<text text-anchor="middle" x="728.2489" y="-491.7765" font-family="Times,serif" font-size="14.00" fill="#000000">2828</text>
</g>
<!-- 209&#45;&gt;2828 -->
<g id="edge7" class="edge">
<title>209&#45;&gt;2828</title>
<path fill="none" stroke="#000000" d="M710.4365,-503.3237C710.5087,-503.2919 710.5808,-503.2601 710.6529,-503.2283"/>
<polygon fill="#000000" stroke="#000000" points="703.1294,-510.3702 710.8691,-503.1331 700.3055,-503.964 703.1294,-510.3702"/>
</g>
<!-- 3320 -->
<g id="node17" class="node">
<title>3320</title>
<ellipse fill="none" stroke="#000000" cx="711.6645" cy="-474.3796" rx="28.6953" ry="18"/>
<text text-anchor="middle" x="711.6645" y="-470.6796" font-family="Times,serif" font-size="14.00" fill="#000000">3320</text>
</g>
<!-- 209&#45;&gt;3320 -->
<g id="edge8" class="edge">
<title>209&#45;&gt;3320</title>
<path fill="none" stroke="#000000" d="M698.1196,-496.5394C698.1825,-496.4366 698.2455,-496.3336 698.3085,-496.2305"/>
<polygon fill="#000000" stroke="#000000" points="698.9282,-501.9276 701.1572,-491.5698 692.9555,-498.2768 698.9282,-501.9276"/>
</g>
<!-- 5511 -->
<g id="node26" class="node">
<title>5511</title>
<ellipse fill="none" stroke="#000000" cx="738.1265" cy="-526.4668" rx="28.6953" ry="18"/>
<text text-anchor="middle" x="738.1265" y="-522.7668" font-family="Times,serif" font-size="14.00" fill="#000000">5511</text>
</g>
<!-- 209&#45;&gt;5511 -->
<g id="edge9" class="edge">
<title>209&#45;&gt;5511</title>
<path fill="none" stroke="#000000" d="M713.3105,-519.9355C713.3592,-519.9483 713.4078,-519.9611 713.4565,-519.9739"/>
<polygon fill="#000000" stroke="#000000" points="703.039,-520.847 713.6024,-520.0123 704.8241,-514.0773 703.039,-520.847"/>
</g>
<!-- 6461 -->
<g id="node29" class="node">
<title>6461</title>
<ellipse fill="none" stroke="#000000" cx="646.5813" cy="-503.0786" rx="28.6953" ry="18"/>
<text text-anchor="middle" x="646.5813" y="-499.3786" font-family="Times,serif" font-size="14.00" fill="#000000">6461</text>
</g>
<!-- 209&#45;&gt;6461 -->
<g id="edge10" class="edge">
<title>209&#45;&gt;6461</title>
<path fill="none" stroke="#000000" d="M662.4403,-506.9817C662.3739,-506.9654 662.3075,-506.949 662.2412,-506.9327"/>
<polygon fill="#000000" stroke="#000000" points="672.5907,-505.8788 662.0425,-506.8838 670.9152,-512.676 672.5907,-505.8788"/>
</g>
<!-- 7018 -->
<g id="node34" class="node">
<title>7018</title>
<ellipse fill="none" stroke="#000000" cx="646.7644" cy="-533.6227" rx="28.6953" ry="18"/>
<text text-anchor="middle" x="646.7644" y="-529.9227" font-family="Times,serif" font-size="14.00" fill="#000000">7018</text>
</g>
<!-- 209&#45;&gt;7018 -->
<g id="edge11" class="edge">
<title>209&#45;&gt;7018</title>
<path fill="none" stroke="#000000" d="M665.8899,-524.1517C665.8135,-524.1895 665.7371,-524.2274 665.6607,-524.2652"/>
<polygon fill="#000000" stroke="#000000" points="672.8396,-516.8021 665.4317,-524.3786 675.9475,-523.0753 672.8396,-516.8021"/>
</g>
<!-- 703 -->
<g id="node4" class="node">
<title>703</title>
<ellipse fill="none" stroke="#000000" cx="201.6307" cy="-341.6033" rx="27" ry="18"/>
<text text-anchor="middle" x="201.6307" y="-337.9033" font-family="Times,serif" font-size="14.00" fill="#000000">703</text>
</g>
<!-- 9498 -->
<g id="node39" class="node">
<title>9498</title>
<ellipse fill="none" stroke="#000000" cx="206.1713" cy="-382.1514" rx="28.6953" ry="18"/>
<text text-anchor="middle" x="206.1713" y="-378.4514" font-family="Times,serif" font-size="14.00" fill="#000000">9498</text>
</g>
<!-- 703&#45;&gt;9498 -->
<g id="edge12" class="edge">
<title>703&#45;&gt;9498</title>
<path fill="none" stroke="#000000" d="M203.6885,-359.9791C203.6979,-360.0629 203.7072,-360.1468 203.7166,-360.2307"/>
<polygon fill="#000000" stroke="#000000" points="199.5487,-354.4638 204.1401,-364.0121 206.5053,-353.6846 199.5487,-354.4638"/>
</g>
<!-- 1221 -->
<g id="node5" class="node">
<title>1221</title>
<ellipse fill="none" stroke="#000000" cx="114.949" cy="-200.7157" rx="28.6953" ry="18"/>
<text text-anchor="middle" x="114.949" y="-197.0157" font-family="Times,serif" font-size="14.00" fill="#000000">1221</text>
</g>
<!-- 2516 -->
<g id="node10" class="node">
<title>2516</title>
<ellipse fill="none" stroke="#000000" cx="247.1441" cy="-271.8651" rx="28.6953" ry="18"/>
<text text-anchor="middle" x="247.1441" y="-268.1651" font-family="Times,serif" font-size="14.00" fill="#000000">2516</text>
</g>
<!-- 32787 -->
<g id="node51" class="node">
<title>32787</title>
<ellipse fill="none" stroke="#000000" cx="189.6645" cy="-293.7377" rx="32.4942" ry="18"/>
<text text-anchor="middle" x="189.6645" y="-290.0377" font-family="Times,serif" font-size="14.00" fill="#000000">32787</text>
</g>
<!-- 2516&#45;&gt;32787 -->
<g id="edge13" class="edge">
<title>2516&#45;&gt;32787</title>
<path fill="none" stroke="#000000" d="M222.434,-281.268C222.3123,-281.3143 222.1905,-281.3606 222.0686,-281.407"/>
<polygon fill="#000000" stroke="#000000" points="224.6545,-276.678 216.5531,-283.5058 227.1441,-283.2204 224.6545,-276.678"/>
</g>
<!-- 2686 -->
<g id="node11" class="node">
<title>2686</title>
<ellipse fill="none" stroke="#000000" cx="295.4737" cy="-208.1796" rx="28.6953" ry="18"/>
<text text-anchor="middle" x="295.4737" y="-204.4796" font-family="Times,serif" font-size="14.00" fill="#000000">2686</text>
</g>
<!-- 3741 -->
<g id="node22" class="node">
<title>3741</title>
<ellipse fill="none" stroke="#000000" cx="286.0363" cy="-168.3952" rx="28.6953" ry="18"/>
<text text-anchor="middle" x="286.0363" y="-164.6952" font-family="Times,serif" font-size="14.00" fill="#000000">3741</text>
</g>
<!-- 2686&#45;&gt;3741 -->
<g id="edge14" class="edge">
<title>2686&#45;&gt;3741</title>
<path fill="none" stroke="#000000" d="M291.1968,-190.1499C291.1627,-190.006 291.1285,-189.8619 291.0943,-189.7178"/>
<polygon fill="#000000" stroke="#000000" points="296.089,-195.6084 290.3752,-186.6863 289.278,-197.2243 296.089,-195.6084"/>
</g>
<!-- 2687 -->
<g id="node12" class="node">
<title>2687</title>
<ellipse fill="none" stroke="#000000" cx="305.5655" cy="-252.0985" rx="28.6953" ry="18"/>
<text text-anchor="middle" x="305.5655" y="-248.3985" font-family="Times,serif" font-size="14.00" fill="#000000">2687</text>
</g>
<!-- 2687&#45;&gt;2516 -->
<g id="edge15" class="edge">
<title>2687&#45;&gt;2516</title>
<path fill="none" stroke="#000000" d="M280.111,-260.7109C279.9572,-260.7629 279.8033,-260.815 279.6493,-260.8671"/>
<polygon fill="#000000" stroke="#000000" points="281.0449,-256.6999 272.6942,-263.2203 283.2885,-263.3307 281.0449,-256.6999"/>
</g>
<!-- 2687&#45;&gt;2686 -->
<g id="edge16" class="edge">
<title>2687&#45;&gt;2686</title>
<path fill="none" stroke="#000000" d="M301.4608,-234.235C301.4417,-234.1519 301.4226,-234.0687 301.4034,-233.9854"/>
<polygon fill="#000000" stroke="#000000" points="305.2582,-235.132 299.6075,-226.1699 298.436,-236.6997 305.2582,-235.132"/>
</g>
<!-- 9505 -->
<g id="node40" class="node">
<title>9505</title>
<ellipse fill="none" stroke="#000000" cx="313.6481" cy="-290.652" rx="28.6953" ry="18"/>
<text text-anchor="middle" x="313.6481" y="-286.952" font-family="Times,serif" font-size="14.00" fill="#000000">9505</text>
</g>
<!-- 2687&#45;&gt;9505 -->
<g id="edge17" class="edge">
<title>2687&#45;&gt;9505</title>
<path fill="none" stroke="#000000" d="M309.3229,-270.0209C309.3435,-270.1192 309.3641,-270.2176 309.3847,-270.316"/>
<polygon fill="#000000" stroke="#000000" points="304.3406,-263.3154 309.8184,-272.3844 311.1916,-261.8788 304.3406,-263.3154"/>
</g>
<!-- 2764 -->
<g id="node13" class="node">
<title>2764</title>
<ellipse fill="none" stroke="#000000" cx="126.3984" cy="-277.4736" rx="28.6953" ry="18"/>
<text text-anchor="middle" x="126.3984" y="-273.7736" font-family="Times,serif" font-size="14.00" fill="#000000">2764</text>
</g>
<!-- 7545 -->
<g id="node37" class="node">
<title>7545</title>
<ellipse fill="none" stroke="#000000" cx="67.2422" cy="-273.7715" rx="28.6953" ry="18"/>
<text text-anchor="middle" x="67.2422" y="-270.0715" font-family="Times,serif" font-size="14.00" fill="#000000">7545</text>
</g>
<!-- 2764&#45;&gt;7545 -->
<g id="edge18" class="edge">
<title>2764&#45;&gt;7545</title>
<path fill="none" stroke="#000000" d="M97.86,-275.6876C97.7713,-275.6821 97.6827,-275.6765 97.594,-275.671"/>
<polygon fill="#000000" stroke="#000000" points="105.9312,-272.6864 95.7319,-275.5544 105.4936,-279.6727 105.9312,-272.6864"/>
</g>
<!-- 38333 -->
<g id="node53" class="node">
<title>38333</title>
<ellipse fill="none" stroke="#000000" cx="122.1908" cy="-236.083" rx="32.4942" ry="18"/>
<text text-anchor="middle" x="122.1908" y="-232.383" font-family="Times,serif" font-size="14.00" fill="#000000">38333</text>
</g>
<!-- 2764&#45;&gt;38333 -->
<g id="edge19" class="edge">
<title>2764&#45;&gt;38333</title>
<path fill="none" stroke="#000000" d="M124.5406,-259.1986C124.5302,-259.0957 124.5197,-258.9928 124.5092,-258.8898"/>
<polygon fill="#000000" stroke="#000000" points="128.5303,-263.836 124.0367,-254.2413 121.5662,-264.5441 128.5303,-263.836"/>
</g>
<!-- 38561 -->
<g id="node54" class="node">
<title>38561</title>
<ellipse fill="none" stroke="#000000" cx="111.4319" cy="-309.6075" rx="32.4942" ry="18"/>
<text text-anchor="middle" x="111.4319" y="-305.9075" font-family="Times,serif" font-size="14.00" fill="#000000">38561</text>
</g>
<!-- 2764&#45;&gt;38561 -->
<g id="edge20" class="edge">
<title>2764&#45;&gt;38561</title>
<path fill="none" stroke="#000000" d="M118.2145,-295.0448C118.1872,-295.1035 118.1599,-295.162 118.1326,-295.2206"/>
<polygon fill="#000000" stroke="#000000" points="119.103,-284.8519 118.0509,-295.3961 125.4488,-287.8094 119.103,-284.8519"/>
</g>
<!-- 2914 -->
<g id="node15" class="node">
<title>2914</title>
<ellipse fill="none" stroke="#000000" cx="544.4019" cy="-310.0597" rx="28.6953" ry="18"/>
<text text-anchor="middle" x="544.4019" y="-306.3597" font-family="Times,serif" font-size="14.00" fill="#000000">2914</text>
</g>
<!-- 6453 -->
<g id="node28" class="node">
<title>6453</title>
<ellipse fill="none" stroke="#000000" cx="571.7122" cy="-348.6152" rx="28.6953" ry="18"/>
<text text-anchor="middle" x="571.7122" y="-344.9152" font-family="Times,serif" font-size="14.00" fill="#000000">6453</text>
</g>
<!-- 2914&#45;&gt;6453 -->
<g id="edge21" class="edge">
<title>2914&#45;&gt;6453</title>
<path fill="none" stroke="#000000" d="M556.1424,-326.6344C556.2219,-326.7467 556.3015,-326.8591 556.3812,-326.9716"/>
<polygon fill="#000000" stroke="#000000" points="551.3452,-325.9172 559.9816,-332.0544 557.0574,-321.8711 551.3452,-325.9172"/>
</g>
<!-- 3257 -->
<g id="node16" class="node">
<title>3257</title>
<ellipse fill="none" stroke="#000000" cx="599.0122" cy="-385.9755" rx="28.6953" ry="18"/>
<text text-anchor="middle" x="599.0122" y="-382.2755" font-family="Times,serif" font-size="14.00" fill="#000000">3257</text>
</g>
<!-- 3491 -->
<g id="node19" class="node">
<title>3491</title>
<ellipse fill="none" stroke="#000000" cx="626.2965" cy="-423.5835" rx="28.6953" ry="18"/>
<text text-anchor="middle" x="626.2965" y="-419.8835" font-family="Times,serif" font-size="14.00" fill="#000000">3491</text>
</g>
<!-- 3257&#45;&gt;3491 -->
<g id="edge22" class="edge">
<title>3257&#45;&gt;3491</title>
<path fill="none" stroke="#000000" d="M611.0589,-402.5804C611.1232,-402.6689 611.1874,-402.7576 611.2518,-402.8462"/>
<polygon fill="#000000" stroke="#000000" points="605.4501,-400.8096 614.1554,-406.8485 611.116,-396.699 605.4501,-400.8096"/>
</g>
<!-- 3356 -->
<g id="node18" class="node">
<title>3356</title>
<ellipse fill="none" stroke="#000000" cx="535.5479" cy="-190.6549" rx="28.6953" ry="18"/>
<text text-anchor="middle" x="535.5479" y="-186.9549" font-family="Times,serif" font-size="14.00" fill="#000000">3356</text>
</g>
<!-- 3549 -->
<g id="node20" class="node">
<title>3549</title>
<ellipse fill="none" stroke="#000000" cx="492.1862" cy="-228.9512" rx="28.6953" ry="18"/>
<text text-anchor="middle" x="492.1862" y="-225.2512" font-family="Times,serif" font-size="14.00" fill="#000000">3549</text>
</g>
<!-- 3356&#45;&gt;3549 -->
<g id="edge23" class="edge">
<title>3356&#45;&gt;3549</title>
<path fill="none" stroke="#000000" d="M518.9072,-205.3517C518.1966,-205.9793 517.4785,-206.6135 516.7559,-207.2517"/>
<polygon fill="#000000" stroke="#000000" points="514.1759,-204.8607 508.9975,-214.1038 518.8097,-210.1074 514.1759,-204.8607"/>
</g>
<!-- 3491&#45;&gt;174 -->
<g id="edge24" class="edge">
<title>3491&#45;&gt;174</title>
<path fill="none" stroke="#000000" d="M638.3307,-440.1025C638.4308,-440.2399 638.5311,-440.3775 638.6314,-440.5153"/>
<polygon fill="#000000" stroke="#000000" points="634.4551,-440.7268 643.1724,-446.7485 640.113,-436.6049 634.4551,-440.7268"/>
</g>
<!-- 6762 -->
<g id="node30" class="node">
<title>6762</title>
<ellipse fill="none" stroke="#000000" cx="518.1314" cy="-270.5178" rx="28.6953" ry="18"/>
<text text-anchor="middle" x="518.1314" y="-266.8178" font-family="Times,serif" font-size="14.00" fill="#000000">6762</text>
</g>
<!-- 3549&#45;&gt;6762 -->
<g id="edge25" class="edge">
<title>3549&#45;&gt;6762</title>
<path fill="none" stroke="#000000" d="M502.7391,-245.8579C502.8408,-246.0209 502.9427,-246.1842 503.0448,-246.3478"/>
<polygon fill="#000000" stroke="#000000" points="499.4078,-247.131 507.672,-253.7608 505.346,-243.4245 499.4078,-247.131"/>
</g>
<!-- 30070 -->
<g id="node50" class="node">
<title>30070</title>
<ellipse fill="none" stroke="#000000" cx="429.8686" cy="-236.8117" rx="32.4942" ry="18"/>
<text text-anchor="middle" x="429.8686" y="-233.1117" font-family="Times,serif" font-size="14.00" fill="#000000">30070</text>
</g>
<!-- 3549&#45;&gt;30070 -->
<g id="edge26" class="edge">
<title>3549&#45;&gt;30070</title>
<path fill="none" stroke="#000000" d="M463.9447,-232.5135C463.8481,-232.5257 463.7515,-232.5379 463.6548,-232.5501"/>
<polygon fill="#000000" stroke="#000000" points="471.1039,-228.0823 461.6207,-232.8066 471.9803,-235.0272 471.1039,-228.0823"/>
</g>
<!-- 3597 -->
<g id="node21" class="node">
<title>3597</title>
<ellipse fill="none" stroke="#000000" cx="706.9348" cy="-84.5509" rx="28.6953" ry="18"/>
<text text-anchor="middle" x="706.9348" y="-80.8509" font-family="Times,serif" font-size="14.00" fill="#000000">3597</text>
</g>
<!-- 37179 -->
<g id="node52" class="node">
<title>37179</title>
<ellipse fill="none" stroke="#000000" cx="276.357" cy="-135.0949" rx="32.4942" ry="18"/>
<text text-anchor="middle" x="276.357" y="-131.3949" font-family="Times,serif" font-size="14.00" fill="#000000">37179</text>
</g>
<!-- 3741&#45;&gt;37179 -->
<g id="edge27" class="edge">
<title>3741&#45;&gt;37179</title>
<path fill="none" stroke="#000000" d="M280.8566,-150.5752C280.8386,-150.5134 280.8207,-150.4515 280.8027,-150.3897"/>
<polygon fill="#000000" stroke="#000000" points="286.9047,-158.8289 280.7488,-150.2044 280.1827,-160.7854 286.9047,-158.8289"/>
</g>
<!-- 4635 -->
<g id="node23" class="node">
<title>4635</title>
<ellipse fill="none" stroke="#000000" cx="56.4345" cy="-306.7659" rx="28.6953" ry="18"/>
<text text-anchor="middle" x="56.4345" y="-303.0659" font-family="Times,serif" font-size="14.00" fill="#000000">4635</text>
</g>
<!-- 4637 -->
<g id="node24" class="node">
<title>4637</title>
<ellipse fill="none" stroke="#000000" cx="215.6426" cy="-280.1481" rx="28.6953" ry="18"/>
<text text-anchor="middle" x="215.6426" y="-276.4481" font-family="Times,serif" font-size="14.00" fill="#000000">4637</text>
</g>
<!-- 4739 -->
<g id="node25" class="node">
<title>4739</title>
<ellipse fill="none" stroke="#000000" cx="56.1805" cy="-238.6042" rx="28.6953" ry="18"/>
<text text-anchor="middle" x="56.1805" y="-234.9042" font-family="Times,serif" font-size="14.00" fill="#000000">4739</text>
</g>
<!-- 5692 -->
<g id="node27" class="node">
<title>5692</title>
<ellipse fill="none" stroke="#000000" cx="684.4272" cy="-70.0019" rx="28.6953" ry="18"/>
<text text-anchor="middle" x="684.4272" y="-66.3019" font-family="Times,serif" font-size="14.00" fill="#000000">5692</text>
</g>
<!-- 5692&#45;&gt;3597 -->
<g id="edge28" class="edge">
<title>5692&#45;&gt;3597</title>
<path fill="none" stroke="#000000" d="M704.5261,-82.9939C704.6186,-83.0537 704.709,-83.1121 704.7971,-83.1691"/>
<polygon fill="#000000" stroke="#000000" points="694.7553,-80.8449 705.0545,-83.3355 698.5564,-74.9658 694.7553,-80.8449"/>
</g>
<!-- 10834 -->
<g id="node43" class="node">
<title>10834</title>
<ellipse fill="none" stroke="#000000" cx="627.2095" cy="-113.5981" rx="32.4942" ry="18"/>
<text text-anchor="middle" x="627.2095" y="-109.8981" font-family="Times,serif" font-size="14.00" fill="#000000">10834</text>
</g>
<!-- 5692&#45;&gt;10834 -->
<g id="edge29" class="edge">
<title>5692&#45;&gt;10834</title>
<path fill="none" stroke="#000000" d="M666.0082,-84.036C662.2839,-86.8736 658.2947,-89.9132 654.343,-92.9241"/>
<polygon fill="#000000" stroke="#000000" points="652.2145,-90.1456 646.3815,-98.9902 656.457,-95.7136 652.2145,-90.1456"/>
</g>
<!-- 11008 -->
<g id="node44" class="node">
<title>11008</title>
<ellipse fill="none" stroke="#000000" cx="692.7089" cy="-39.9323" rx="32.4942" ry="18"/>
<text text-anchor="middle" x="692.7089" y="-36.2323" font-family="Times,serif" font-size="14.00" fill="#000000">11008</text>
</g>
<!-- 5692&#45;&gt;11008 -->
<g id="edge30" class="edge">
<title>5692&#45;&gt;11008</title>
<path fill="none" stroke="#000000" d="M689.3404,-52.1627C689.3543,-52.1122 689.3683,-52.0616 689.3822,-52.0111"/>
<polygon fill="#000000" stroke="#000000" points="690.1383,-62.432 689.4239,-51.8598 683.3894,-60.57 690.1383,-62.432"/>
</g>
<!-- 27865 -->
<g id="node48" class="node">
<title>27865</title>
<ellipse fill="none" stroke="#000000" cx="712.879" cy="-23.3988" rx="32.4942" ry="18"/>
<text text-anchor="middle" x="712.879" y="-19.6988" font-family="Times,serif" font-size="14.00" fill="#000000">27865</text>
</g>
<!-- 5692&#45;&gt;27865 -->
<g id="edge31" class="edge">
<title>5692&#45;&gt;27865</title>
<path fill="none" stroke="#000000" d="M694.699,-53.1771C695.4749,-51.9061 696.268,-50.6071 697.0678,-49.2971"/>
<polygon fill="#000000" stroke="#000000" points="700.1116,-51.0282 702.3352,-40.6693 694.137,-47.3806 700.1116,-51.0282"/>
</g>
<!-- 28065 -->
<g id="node49" class="node">
<title>28065</title>
<ellipse fill="none" stroke="#000000" cx="726.0481" cy="-48.0771" rx="32.4942" ry="18"/>
<text text-anchor="middle" x="726.0481" y="-44.3771" font-family="Times,serif" font-size="14.00" fill="#000000">28065</text>
</g>
<!-- 5692&#45;&gt;28065 -->
<g id="edge32" class="edge">
<title>5692&#45;&gt;28065</title>
<path fill="none" stroke="#000000" d="M706.6998,-58.2693C706.7771,-58.2285 706.8544,-58.1878 706.9317,-58.1471"/>
<polygon fill="#000000" stroke="#000000" points="699.9473,-65.7846 707.1633,-58.0251 696.6835,-59.591 699.9473,-65.7846"/>
</g>
<!-- 52317 -->
<g id="node55" class="node">
<title>52317</title>
<ellipse fill="none" stroke="#000000" cx="735.986" cy="-73.0804" rx="32.4942" ry="18"/>
<text text-anchor="middle" x="735.986" y="-69.3804" font-family="Times,serif" font-size="14.00" fill="#000000">52317</text>
</g>
<!-- 5692&#45;&gt;52317 -->
<g id="edge33" class="edge">
<title>5692&#45;&gt;52317</title>
<path fill="none" stroke="#000000" d="M712.9211,-71.7032C712.9676,-71.706 713.0142,-71.7088 713.0608,-71.7116"/>
<polygon fill="#000000" stroke="#000000" points="703.0072,-74.6109 713.2004,-71.7199 703.4291,-67.6234 703.0072,-74.6109"/>
</g>
<!-- 52375 -->
<g id="node56" class="node">
<title>52375</title>
<ellipse fill="none" stroke="#000000" cx="701.2429" cy="-115.2198" rx="32.4942" ry="18"/>
<text text-anchor="middle" x="701.2429" y="-111.5198" font-family="Times,serif" font-size="14.00" fill="#000000">52375</text>
</g>
<!-- 5692&#45;&gt;52375 -->
<g id="edge34" class="edge">
<title>5692&#45;&gt;52375</title>
<path fill="none" stroke="#000000" d="M690.9768,-87.6138C691.0148,-87.7161 691.0529,-87.8185 691.091,-87.9211"/>
<polygon fill="#000000" stroke="#000000" points="687.9174,-89.4287 694.6836,-97.5816 694.4784,-86.9887 687.9174,-89.4287"/>
</g>
<!-- 52376 -->
<g id="node57" class="node">
<title>52376</title>
<ellipse fill="none" stroke="#000000" cx="728.0077" cy="-100.5236" rx="32.4942" ry="18"/>
<text text-anchor="middle" x="728.0077" y="-96.8236" font-family="Times,serif" font-size="14.00" fill="#000000">52376</text>
</g>
<!-- 5692&#45;&gt;52376 -->
<g id="edge35" class="edge">
<title>5692&#45;&gt;52376</title>
<path fill="none" stroke="#000000" d="M703.6691,-83.478C703.7546,-83.5379 703.8402,-83.5978 703.9258,-83.6578"/>
<polygon fill="#000000" stroke="#000000" points="697.5934,-83.4959 707.7923,-86.3657 701.6091,-77.7622 697.5934,-83.4959"/>
</g>
<!-- 52380 -->
<g id="node58" class="node">
<title>52380</title>
<ellipse fill="none" stroke="#000000" cx="672.1168" cy="-111.2296" rx="32.4942" ry="18"/>
<text text-anchor="middle" x="672.1168" y="-107.5296" font-family="Times,serif" font-size="14.00" fill="#000000">52380</text>
</g>
<!-- 5692&#45;&gt;52380 -->
<g id="edge36" class="edge">
<title>5692&#45;&gt;52380</title>
<path fill="none" stroke="#000000" d="M679.1351,-87.7254C679.1008,-87.84 679.0666,-87.9547 679.0323,-88.0695"/>
<polygon fill="#000000" stroke="#000000" points="676.9903,-82.6756 677.4828,-93.259 683.6977,-84.6784 676.9903,-82.6756"/>
</g>
<!-- 52413 -->
<g id="node59" class="node">
<title>52413</title>
<ellipse fill="none" stroke="#000000" cx="648.6588" cy="-83.5181" rx="32.4942" ry="18"/>
<text text-anchor="middle" x="648.6588" y="-79.8181" font-family="Times,serif" font-size="14.00" fill="#000000">52413</text>
</g>
<!-- 5692&#45;&gt;52413 -->
<g id="edge37" class="edge">
<title>5692&#45;&gt;52413</title>
<path fill="none" stroke="#000000" d="M659.5849,-79.3893C659.5372,-79.4074 659.4896,-79.4253 659.4421,-79.4433"/>
<polygon fill="#000000" stroke="#000000" points="667.4159,-72.6838 659.2997,-79.4971 669.8932,-79.2322 667.4159,-72.6838"/>
</g>
<!-- 52431 -->
<g id="node60" class="node">
<title>52431</title>
<ellipse fill="none" stroke="#000000" cx="675.4417" cy="-18" rx="32.4942" ry="18"/>
<text text-anchor="middle" x="675.4417" y="-14.3" font-family="Times,serif" font-size="14.00" fill="#000000">52431</text>
</g>
<!-- 5692&#45;&gt;52431 -->
<g id="edge38" class="edge">
<title>5692&#45;&gt;52431</title>
<path fill="none" stroke="#000000" d="M681.3349,-52.1058C680.9998,-50.1667 680.6532,-48.1609 680.3036,-46.1376"/>
<polygon fill="#000000" stroke="#000000" points="683.7219,-45.3636 678.5702,-36.1056 676.8241,-46.5556 683.7219,-45.3636"/>
</g>
<!-- 262230 -->
<g id="node61" class="node">
<title>262230</title>
<ellipse fill="none" stroke="#000000" cx="655.7196" cy="-32.2519" rx="37.0935" ry="18"/>
<text text-anchor="middle" x="655.7196" y="-28.5519" font-family="Times,serif" font-size="14.00" fill="#000000">262230</text>
</g>
<!-- 5692&#45;&gt;262230 -->
<g id="edge39" class="edge">
<title>5692&#45;&gt;262230</title>
<path fill="none" stroke="#000000" d="M671.7521,-53.3343C671.6319,-53.1763 671.5116,-53.0181 671.3912,-52.8597"/>
<polygon fill="#000000" stroke="#000000" points="677.6945,-55.3662 668.8552,-49.525 672.1225,-59.6035 677.6945,-55.3662"/>
</g>
<!-- 264608 -->
<g id="node62" class="node">
<title>264608</title>
<ellipse fill="none" stroke="#000000" cx="644.343" cy="-56.984" rx="37.0935" ry="18"/>
<text text-anchor="middle" x="644.343" y="-53.284" font-family="Times,serif" font-size="14.00" fill="#000000">264608</text>
</g>
<!-- 5692&#45;&gt;264608 -->
<g id="edge40" class="edge">
<title>5692&#45;&gt;264608</title>
<path fill="none" stroke="#000000" d="M658.8143,-61.6838C658.7529,-61.6638 658.6916,-61.6439 658.6304,-61.6241"/>
<polygon fill="#000000" stroke="#000000" points="669.0406,-61.3279 658.447,-61.5645 666.8759,-67.9858 669.0406,-61.3279"/>
</g>
<!-- 6453&#45;&gt;3257 -->
<g id="edge41" class="edge">
<title>6453&#45;&gt;3257</title>
<path fill="none" stroke="#000000" d="M583.7658,-365.1107C583.8301,-365.1987 583.8944,-365.2867 583.9588,-365.3748"/>
<polygon fill="#000000" stroke="#000000" points="578.1382,-363.3416 586.8641,-369.3507 583.7901,-359.2116 578.1382,-363.3416"/>
</g>
<!-- 6762&#45;&gt;2914 -->
<g id="edge42" class="edge">
<title>6762&#45;&gt;2914</title>
<path fill="none" stroke="#000000" d="M529.4249,-287.5166C529.5049,-287.637 529.5849,-287.7575 529.6651,-287.8781"/>
<polygon fill="#000000" stroke="#000000" points="524.8355,-286.9337 533.2847,-293.3262 530.6661,-283.06 524.8355,-286.9337"/>
</g>
<!-- 6904 -->
<g id="node31" class="node">
<title>6904</title>
<ellipse fill="none" stroke="#000000" cx="367.4296" cy="-243.6762" rx="28.6953" ry="18"/>
<text text-anchor="middle" x="367.4296" y="-239.9762" font-family="Times,serif" font-size="14.00" fill="#000000">6904</text>
</g>
<!-- 6904&#45;&gt;2687 -->
<g id="edge43" class="edge">
<title>6904&#45;&gt;2687</title>
<path fill="none" stroke="#000000" d="M339.3936,-247.4931C339.2737,-247.5094 339.1538,-247.5257 339.0338,-247.5421"/>
<polygon fill="#000000" stroke="#000000" points="343.0604,-243.4614 333.624,-248.2786 344.0048,-250.3974 343.0604,-243.4614"/>
</g>
<!-- 6939 -->
<g id="node32" class="node">
<title>6939</title>
<ellipse fill="none" stroke="#000000" cx="28.5975" cy="-257.2806" rx="28.6953" ry="18"/>
<text text-anchor="middle" x="28.5975" y="-253.5806" font-family="Times,serif" font-size="14.00" fill="#000000">6939</text>
</g>
<!-- 7016 -->
<g id="node33" class="node">
<title>7016</title>
<ellipse fill="none" stroke="#000000" cx="435.8586" cy="-270.0962" rx="28.6953" ry="18"/>
<text text-anchor="middle" x="435.8586" y="-266.3962" font-family="Times,serif" font-size="14.00" fill="#000000">7016</text>
</g>
<!-- 7922 -->
<g id="node38" class="node">
<title>7922</title>
<ellipse fill="none" stroke="#000000" cx="441.951" cy="-301.825" rx="28.6953" ry="18"/>
<text text-anchor="middle" x="441.951" y="-298.125" font-family="Times,serif" font-size="14.00" fill="#000000">7922</text>
</g>
<!-- 7016&#45;&gt;7922 -->
<g id="edge44" class="edge">
<title>7016&#45;&gt;7922</title>
<path fill="none" stroke="#000000" d="M439.3319,-288.185C439.3426,-288.2407 439.3533,-288.2963 439.3639,-288.3519"/>
<polygon fill="#000000" stroke="#000000" points="434.0682,-279.3595 439.3959,-288.5185 440.9427,-278.0361 434.0682,-279.3595"/>
</g>
<!-- 7473 -->
<g id="node35" class="node">
<title>7473</title>
<ellipse fill="none" stroke="#000000" cx="325.1721" cy="-323.1896" rx="28.6953" ry="18"/>
<text text-anchor="middle" x="325.1721" y="-319.4896" font-family="Times,serif" font-size="14.00" fill="#000000">7473</text>
</g>
<!-- 7474 -->
<g id="node36" class="node">
<title>7474</title>
<ellipse fill="none" stroke="#000000" cx="172.0755" cy="-319.0434" rx="28.6953" ry="18"/>
<text text-anchor="middle" x="172.0755" y="-315.3434" font-family="Times,serif" font-size="14.00" fill="#000000">7474</text>
</g>
<!-- 7545&#45;&gt;4635 -->
<g id="edge45" class="edge">
<title>7545&#45;&gt;4635</title>
<path fill="none" stroke="#000000" d="M61.4587,-291.4278C61.4386,-291.4891 61.4185,-291.5504 61.3985,-291.6116"/>
<polygon fill="#000000" stroke="#000000" points="61.1286,-281.2011 61.3383,-291.7952 67.781,-283.3826 61.1286,-281.2011"/>
</g>
<!-- 7545&#45;&gt;4739 -->
<g id="edge46" class="edge">
<title>7545&#45;&gt;4739</title>
<path fill="none" stroke="#000000" d="M61.5817,-255.7758C61.5605,-255.7082 61.5392,-255.6406 61.518,-255.573"/>
<polygon fill="#000000" stroke="#000000" points="67.7968,-263.8584 61.4542,-255.3703 61.1192,-265.9611 67.7968,-263.8584"/>
</g>
<!-- 7545&#45;&gt;6939 -->
<g id="edge47" class="edge">
<title>7545&#45;&gt;6939</title>
<path fill="none" stroke="#000000" d="M43.428,-263.6093C43.3659,-263.5828 43.3038,-263.5563 43.2418,-263.5298"/>
<polygon fill="#000000" stroke="#000000" points="53.6288,-264.1591 43.0561,-263.4505 50.8793,-270.5977 53.6288,-264.1591"/>
</g>
<!-- 9942 -->
<g id="node41" class="node">
<title>9942</title>
<ellipse fill="none" stroke="#000000" cx="30.5715" cy="-288.982" rx="28.6953" ry="18"/>
<text text-anchor="middle" x="30.5715" y="-285.282" font-family="Times,serif" font-size="14.00" fill="#000000">9942</text>
</g>
<!-- 7545&#45;&gt;9942 -->
<g id="edge48" class="edge">
<title>7545&#45;&gt;9942</title>
<path fill="none" stroke="#000000" d="M42.9865,-283.8324C42.9333,-283.8545 42.8801,-283.8766 42.8269,-283.8986"/>
<polygon fill="#000000" stroke="#000000" points="50.5629,-276.8966 42.6678,-283.9647 53.2474,-283.3628 50.5629,-276.8966"/>
</g>
<!-- 10026 -->
<g id="node42" class="node">
<title>10026</title>
<ellipse fill="none" stroke="#000000" cx="204.3651" cy="-414.7904" rx="32.4942" ry="18"/>
<text text-anchor="middle" x="204.3651" y="-411.0904" font-family="Times,serif" font-size="14.00" fill="#000000">10026</text>
</g>
<!-- 9498&#45;&gt;10026 -->
<g id="edge49" class="edge">
<title>9498&#45;&gt;10026</title>
<path fill="none" stroke="#000000" d="M205.1626,-400.3795C205.1594,-400.4379 205.1562,-400.4963 205.1529,-400.5546"/>
<polygon fill="#000000" stroke="#000000" points="202.2065,-390.5495 205.1433,-400.7295 209.1958,-390.9401 202.2065,-390.5495"/>
</g>
<!-- 9505&#45;&gt;7473 -->
<g id="edge50" class="edge">
<title>9505&#45;&gt;7473</title>
<path fill="none" stroke="#000000" d="M319.9496,-308.444C319.9706,-308.5034 319.9916,-308.5627 320.0126,-308.622"/>
<polygon fill="#000000" stroke="#000000" points="313.4342,-300.5429 320.0756,-308.7998 320.0328,-298.2035 313.4342,-300.5429"/>
</g>
<!-- 12956 -->
<g id="node45" class="node">
<title>12956</title>
<ellipse fill="none" stroke="#000000" cx="580.4318" cy="-153.5585" rx="32.4942" ry="18"/>
<text text-anchor="middle" x="580.4318" y="-149.8585" font-family="Times,serif" font-size="14.00" fill="#000000">12956</text>
</g>
<!-- 10834&#45;&gt;12956 -->
<g id="edge51" class="edge">
<title>10834&#45;&gt;12956</title>
<path fill="none" stroke="#000000" d="M609.5248,-128.7054C608.3606,-129.7 607.1763,-130.7117 605.9844,-131.7299"/>
<polygon fill="#000000" stroke="#000000" points="603.4715,-129.2733 598.1414,-138.4298 608.0182,-134.5957 603.4715,-129.2733"/>
</g>
<!-- 22927 -->
<g id="node47" class="node">
<title>22927</title>
<ellipse fill="none" stroke="#000000" cx="597.7375" cy="-108.1339" rx="32.4942" ry="18"/>
<text text-anchor="middle" x="597.7375" y="-104.4339" font-family="Times,serif" font-size="14.00" fill="#000000">22927</text>
</g>
<!-- 10834&#45;&gt;22927 -->
<g id="edge52" class="edge">
<title>10834&#45;&gt;22927</title>
<path fill="none" stroke="#000000" d="M597.822,-108.1496C597.8081,-108.147 597.7958,-108.1447 597.7853,-108.1428"/>
<polygon fill="#000000" stroke="#000000" points="608.2405,-106.5496 597.7588,-108.1379 606.9433,-113.4327 608.2405,-106.5496"/>
</g>
<!-- 12956&#45;&gt;3356 -->
<g id="edge53" class="edge">
<title>12956&#45;&gt;3356</title>
<path fill="none" stroke="#000000" d="M562.1758,-168.647C561.7996,-168.958 561.4218,-169.2702 561.0428,-169.5835"/>
<polygon fill="#000000" stroke="#000000" points="558.5402,-167.1111 553.0619,-176.1797 562.9997,-172.5068 558.5402,-167.1111"/>
</g>
<!-- 18540 -->
<g id="node46" class="node">
<title>18540</title>
<ellipse fill="none" stroke="#000000" cx="427.3054" cy="-203.9926" rx="32.4942" ry="18"/>
<text text-anchor="middle" x="427.3054" y="-200.2926" font-family="Times,serif" font-size="14.00" fill="#000000">18540</text>
</g>
<!-- 30070&#45;&gt;6904 -->
<g id="edge54" class="edge">
<title>30070&#45;&gt;6904</title>
<path fill="none" stroke="#000000" d="M397.9174,-240.3244C397.8274,-240.3343 397.7374,-240.3442 397.6474,-240.3541"/>
<polygon fill="#000000" stroke="#000000" points="405.3177,-235.9892 395.7602,-240.5615 406.083,-242.9473 405.3177,-235.9892"/>
</g>
<!-- 30070&#45;&gt;7016 -->
<g id="edge55" class="edge">
<title>30070&#45;&gt;7016</title>
<path fill="none" stroke="#000000" d="M433.144,-255.0122C433.1549,-255.0729 433.1658,-255.1335 433.1768,-255.1942"/>
<polygon fill="#000000" stroke="#000000" points="427.9891,-246.1555 433.2095,-255.376 434.8785,-244.9126 427.9891,-246.1555"/>
</g>
<!-- 30070&#45;&gt;18540 -->
<g id="edge56" class="edge">
<title>30070&#45;&gt;18540</title>
<path fill="none" stroke="#000000" d="M428.4371,-218.4831C428.4325,-218.4243 428.4279,-218.3656 428.4233,-218.307"/>
<polygon fill="#000000" stroke="#000000" points="432.6828,-227.8264 428.4096,-218.1311 425.7041,-228.3751 432.6828,-227.8264"/>
</g>
<!-- 32787&#45;&gt;703 -->
<g id="edge57" class="edge">
<title>32787&#45;&gt;703</title>
<path fill="none" stroke="#000000" d="M194.1884,-311.8336C194.3721,-312.5683 194.5577,-313.3107 194.7445,-314.058"/>
<polygon fill="#000000" stroke="#000000" points="191.3588,-314.9465 197.1797,-323.799 198.1499,-313.2487 191.3588,-314.9465"/>
</g>
<!-- 32787&#45;&gt;2764 -->
<g id="edge58" class="edge">
<title>32787&#45;&gt;2764</title>
<path fill="none" stroke="#000000" d="M159.884,-286.0819C159.7398,-286.0448 159.5955,-286.0077 159.4512,-285.9706"/>
<polygon fill="#000000" stroke="#000000" points="163.5277,-283.4049 152.9711,-284.3048 161.7847,-290.1844 163.5277,-283.4049"/>
</g>
<!-- 32787&#45;&gt;4637 -->
<g id="edge59" class="edge">
<title>32787&#45;&gt;4637</title>
<path fill="none" stroke="#000000" d="M213.6041,-281.2145C213.6836,-281.1729 213.761,-281.1324 213.8365,-281.0929"/>
<polygon fill="#000000" stroke="#000000" points="206.8184,-288.7166 214.0566,-280.9778 203.5722,-282.5137 206.8184,-288.7166"/>
</g>
<!-- 32787&#45;&gt;7474 -->
<g id="edge60" class="edge">
<title>32787&#45;&gt;7474</title>
<path fill="none" stroke="#000000" d="M177.8348,-310.7574C177.7851,-310.8289 177.7356,-310.9002 177.6861,-310.9713"/>
<polygon fill="#000000" stroke="#000000" points="180.3732,-300.9737 177.5384,-311.1839 186.1216,-304.97 180.3732,-300.9737"/>
</g>
<!-- 38333&#45;&gt;1221 -->
<g id="edge61" class="edge">
<title>38333&#45;&gt;1221</title>
<path fill="none" stroke="#000000" d="M118.4851,-217.9849C118.4711,-217.917 118.4572,-217.849 118.4433,-217.781"/>
<polygon fill="#000000" stroke="#000000" points="123.8403,-226.6706 118.4016,-217.5772 116.9825,-228.0775 123.8403,-226.6706"/>
</g>
</g>
</svg>
