<?xml version="1.0" encoding="UTF-8" standalone="no"?>
<!DOCTYPE svg PUBLIC "-//W3C//DTD SVG 1.1//EN"
 "http://www.w3.org/Graphics/SVG/1.1/DTD/svg11.dtd">
<!-- Generated by graphviz version 2.40.1 (20161225.0304)
 -->
<!-- Title: %3 Pages: 1 -->
<svg width="1365pt" height="1383pt"
 viewBox="0.00 0.00 1365.25 1382.82" xmlns="http://www.w3.org/2000/svg" xmlns:xlink="http://www.w3.org/1999/xlink">
<g id="graph0" class="graph" transform="scale(1 1) rotate(0) translate(4 1378.8214)">
<title>%3</title>
<polygon fill="#ffffff" stroke="transparent" points="-4,4 -4,-1378.8214 1361.2481,-1378.8214 1361.2481,4 -4,4"/>
<!-- 174 -->
<g id="node1" class="node">
<title>174</title>
<ellipse fill="none" stroke="#000000" cx="885.2354" cy="-757.2737" rx="27" ry="18"/>
<text text-anchor="middle" x="885.2354" y="-753.5737" font-family="Times,serif" font-size="14.00" fill="#000000">174</text>
</g>
<!-- 209 -->
<g id="node2" class="node">
<title>209</title>
<ellipse fill="none" stroke="#000000" cx="931.5161" cy="-812.4289" rx="27" ry="18"/>
<text text-anchor="middle" x="931.5161" y="-808.7289" font-family="Times,serif" font-size="14.00" fill="#000000">209</text>
</g>
<!-- 174&#45;&gt;209 -->
<g id="edge1" class="edge">
<title>174&#45;&gt;209</title>
<path fill="none" stroke="#000000" d="M898.6217,-773.2269C902.6861,-778.0708 907.2421,-783.5003 911.6377,-788.7389"/>
<polygon fill="#000000" stroke="#000000" points="909.2106,-791.2914 918.3197,-796.7021 914.5729,-786.7919 909.2106,-791.2914"/>
</g>
<!-- 701 -->
<g id="node3" class="node">
<title>701</title>
<ellipse fill="none" stroke="#000000" cx="1105.0233" cy="-623.1842" rx="27" ry="18"/>
<text text-anchor="middle" x="1105.0233" y="-619.4842" font-family="Times,serif" font-size="14.00" fill="#000000">701</text>
</g>
<!-- 209&#45;&gt;701 -->
<g id="edge2" class="edge">
<title>209&#45;&gt;701</title>
<path fill="none" stroke="#000000" d="M945.7149,-796.9423C976.1657,-763.7295 1047.8885,-685.5012 1083.7836,-646.3504"/>
<polygon fill="#000000" stroke="#000000" points="1086.6935,-648.3557 1090.8716,-638.6195 1081.5338,-643.6251 1086.6935,-648.3557"/>
</g>
<!-- 1239 -->
<g id="node6" class="node">
<title>1239</title>
<ellipse fill="none" stroke="#000000" cx="1094.1265" cy="-684.983" rx="28.6953" ry="18"/>
<text text-anchor="middle" x="1094.1265" y="-681.283" font-family="Times,serif" font-size="14.00" fill="#000000">1239</text>
</g>
<!-- 209&#45;&gt;1239 -->
<g id="edge3" class="edge">
<title>209&#45;&gt;1239</title>
<path fill="none" stroke="#000000" d="M949.2278,-798.5474C977.9118,-776.0663 1034.6711,-731.5812 1068.0023,-705.4579"/>
<polygon fill="#000000" stroke="#000000" points="1070.2286,-708.1599 1075.9402,-699.2365 1065.9105,-702.6504 1070.2286,-708.1599"/>
</g>
<!-- 1273 -->
<g id="node7" class="node">
<title>1273</title>
<ellipse fill="none" stroke="#000000" cx="1072.664" cy="-743.9507" rx="28.6953" ry="18"/>
<text text-anchor="middle" x="1072.664" y="-740.2507" font-family="Times,serif" font-size="14.00" fill="#000000">1273</text>
</g>
<!-- 209&#45;&gt;1273 -->
<g id="edge4" class="edge">
<title>209&#45;&gt;1273</title>
<path fill="none" stroke="#000000" d="M953.5704,-801.7292C976.9109,-790.4056 1013.9743,-772.4241 1040.5554,-759.5283"/>
<polygon fill="#000000" stroke="#000000" points="1042.36,-762.543 1049.8293,-755.029 1039.3045,-756.2451 1042.36,-762.543"/>
</g>
<!-- 1299 -->
<g id="node8" class="node">
<title>1299</title>
<ellipse fill="none" stroke="#000000" cx="1041.288" cy="-798.2957" rx="28.6953" ry="18"/>
<text text-anchor="middle" x="1041.288" y="-794.5957" font-family="Times,serif" font-size="14.00" fill="#000000">1299</text>
</g>
<!-- 209&#45;&gt;1299 -->
<g id="edge5" class="edge">
<title>209&#45;&gt;1299</title>
<path fill="none" stroke="#000000" d="M958.0888,-809.0077C971.5961,-807.2686 988.2538,-805.1239 1003.1072,-803.2115"/>
<polygon fill="#000000" stroke="#000000" points="1003.5701,-806.6809 1013.0413,-801.9325 1002.6762,-799.7382 1003.5701,-806.6809"/>
</g>
<!-- 2497 -->
<g id="node9" class="node">
<title>2497</title>
<ellipse fill="none" stroke="#000000" cx="1000.9517" cy="-846.3666" rx="28.6953" ry="18"/>
<text text-anchor="middle" x="1000.9517" y="-842.6666" font-family="Times,serif" font-size="14.00" fill="#000000">2497</text>
</g>
<!-- 209&#45;&gt;2497 -->
<g id="edge6" class="edge">
<title>209&#45;&gt;2497</title>
<path fill="none" stroke="#000000" d="M953.4859,-823.167C958.353,-825.5459 963.6083,-828.1145 968.7873,-830.6458"/>
<polygon fill="#000000" stroke="#000000" points="967.4058,-833.8662 977.9271,-835.113 970.4797,-827.5772 967.4058,-833.8662"/>
</g>
<!-- 2828 -->
<g id="node14" class="node">
<title>2828</title>
<ellipse fill="none" stroke="#000000" cx="952.8807" cy="-886.7029" rx="28.6953" ry="18"/>
<text text-anchor="middle" x="952.8807" y="-883.0029" font-family="Times,serif" font-size="14.00" fill="#000000">2828</text>
</g>
<!-- 209&#45;&gt;2828 -->
<g id="edge7" class="edge">
<title>209&#45;&gt;2828</title>
<path fill="none" stroke="#000000" d="M936.6879,-830.4086C939.1547,-838.9844 942.1614,-849.4371 944.9112,-858.9969"/>
<polygon fill="#000000" stroke="#000000" points="941.6285,-860.246 947.7566,-868.8888 948.3557,-858.3109 941.6285,-860.246"/>
</g>
<!-- 3320 -->
<g id="node17" class="node">
<title>3320</title>
<ellipse fill="none" stroke="#000000" cx="898.5358" cy="-918.0789" rx="28.6953" ry="18"/>
<text text-anchor="middle" x="898.5358" y="-914.3789" font-family="Times,serif" font-size="14.00" fill="#000000">3320</text>
</g>
<!-- 209&#45;&gt;3320 -->
<g id="edge8" class="edge">
<title>209&#45;&gt;3320</title>
<path fill="none" stroke="#000000" d="M925.9214,-830.351C920.7807,-846.8191 913.0828,-871.4785 907.1564,-890.4633"/>
<polygon fill="#000000" stroke="#000000" points="903.7968,-889.4803 904.1579,-900.0689 910.4788,-891.5662 903.7968,-889.4803"/>
</g>
<!-- 5511 -->
<g id="node26" class="node">
<title>5511</title>
<ellipse fill="none" stroke="#000000" cx="839.5681" cy="-939.5414" rx="28.6953" ry="18"/>
<text text-anchor="middle" x="839.5681" y="-935.8414" font-family="Times,serif" font-size="14.00" fill="#000000">5511</text>
</g>
<!-- 209&#45;&gt;5511 -->
<g id="edge9" class="edge">
<title>209&#45;&gt;5511</title>
<path fill="none" stroke="#000000" d="M919.6837,-828.7865C903.9774,-850.4995 876.0915,-889.0501 857.7149,-914.4546"/>
<polygon fill="#000000" stroke="#000000" points="854.6721,-912.6893 851.647,-922.8431 860.3439,-916.792 854.6721,-912.6893"/>
</g>
<!-- 6461 -->
<g id="node29" class="node">
<title>6461</title>
<ellipse fill="none" stroke="#000000" cx="777.7693" cy="-950.4382" rx="28.6953" ry="18"/>
<text text-anchor="middle" x="777.7693" y="-946.7382" font-family="Times,serif" font-size="14.00" fill="#000000">6461</text>
</g>
<!-- 209&#45;&gt;6461 -->
<g id="edge10" class="edge">
<title>209&#45;&gt;6461</title>
<path fill="none" stroke="#000000" d="M915.3531,-826.9375C888.3449,-851.1812 833.8871,-900.0646 802.1855,-928.5213"/>
<polygon fill="#000000" stroke="#000000" points="799.7503,-926.0039 794.6466,-935.2885 804.4263,-931.2131 799.7503,-926.0039"/>
</g>
<!-- 7018 -->
<g id="node34" class="node">
<title>7018</title>
<ellipse fill="none" stroke="#000000" cx="715.0172" cy="-950.4382" rx="28.6953" ry="18"/>
<text text-anchor="middle" x="715.0172" y="-946.7382" font-family="Times,serif" font-size="14.00" fill="#000000">7018</text>
</g>
<!-- 209&#45;&gt;7018 -->
<g id="edge11" class="edge">
<title>209&#45;&gt;7018</title>
<path fill="none" stroke="#000000" d="M911.9214,-824.9198C873.6513,-849.3154 788.8065,-903.4005 744.013,-931.9546"/>
<polygon fill="#000000" stroke="#000000" points="741.9047,-929.1478 735.3537,-937.4745 745.6675,-935.0505 741.9047,-929.1478"/>
</g>
<!-- 703 -->
<g id="node4" class="node">
<title>703</title>
<ellipse fill="none" stroke="#000000" cx="578.6785" cy="-1217.7281" rx="27" ry="18"/>
<text text-anchor="middle" x="578.6785" y="-1214.0281" font-family="Times,serif" font-size="14.00" fill="#000000">703</text>
</g>
<!-- 9498 -->
<g id="node39" class="node">
<title>9498</title>
<ellipse fill="none" stroke="#000000" cx="560.0435" cy="-1287.2747" rx="28.6953" ry="18"/>
<text text-anchor="middle" x="560.0435" y="-1283.5747" font-family="Times,serif" font-size="14.00" fill="#000000">9498</text>
</g>
<!-- 703&#45;&gt;9498 -->
<g id="edge12" class="edge">
<title>703&#45;&gt;9498</title>
<path fill="none" stroke="#000000" d="M573.8795,-1235.6381C571.9384,-1242.8824 569.6521,-1251.4152 567.5031,-1259.4351"/>
<polygon fill="#000000" stroke="#000000" points="564.0985,-1258.6186 564.891,-1269.1837 570.86,-1260.4304 564.0985,-1258.6186"/>
</g>
<!-- 1221 -->
<g id="node5" class="node">
<title>1221</title>
<ellipse fill="none" stroke="#000000" cx="28.5975" cy="-926.5218" rx="28.6953" ry="18"/>
<text text-anchor="middle" x="28.5975" y="-922.8218" font-family="Times,serif" font-size="14.00" fill="#000000">1221</text>
</g>
<!-- 2516 -->
<g id="node10" class="node">
<title>2516</title>
<ellipse fill="none" stroke="#000000" cx="333.5406" cy="-880.8907" rx="28.6953" ry="18"/>
<text text-anchor="middle" x="333.5406" y="-877.1907" font-family="Times,serif" font-size="14.00" fill="#000000">2516</text>
</g>
<!-- 32787 -->
<g id="node51" class="node">
<title>32787</title>
<ellipse fill="none" stroke="#000000" cx="274.5617" cy="-922.1882" rx="32.4942" ry="18"/>
<text text-anchor="middle" x="274.5617" y="-918.4882" font-family="Times,serif" font-size="14.00" fill="#000000">32787</text>
</g>
<!-- 2516&#45;&gt;32787 -->
<g id="edge13" class="edge">
<title>2516&#45;&gt;32787</title>
<path fill="none" stroke="#000000" d="M314.2287,-894.413C310.7516,-896.8477 307.0593,-899.4331 303.3809,-902.0087"/>
<polygon fill="#000000" stroke="#000000" points="301.1151,-899.3225 294.9311,-907.9253 305.1302,-905.0566 301.1151,-899.3225"/>
</g>
<!-- 2686 -->
<g id="node11" class="node">
<title>2686</title>
<ellipse fill="none" stroke="#000000" cx="259.5666" cy="-461.3633" rx="28.6953" ry="18"/>
<text text-anchor="middle" x="259.5666" y="-457.6633" font-family="Times,serif" font-size="14.00" fill="#000000">2686</text>
</g>
<!-- 3741 -->
<g id="node22" class="node">
<title>3741</title>
<ellipse fill="none" stroke="#000000" cx="190.02" cy="-442.7284" rx="28.6953" ry="18"/>
<text text-anchor="middle" x="190.02" y="-439.0284" font-family="Times,serif" font-size="14.00" fill="#000000">3741</text>
</g>
<!-- 2686&#45;&gt;3741 -->
<g id="edge14" class="edge">
<title>2686&#45;&gt;3741</title>
<path fill="none" stroke="#000000" d="M232.877,-454.2119C230.6983,-453.6281 228.4749,-453.0323 226.2434,-452.4344"/>
<polygon fill="#000000" stroke="#000000" points="227.0885,-449.0375 216.5234,-449.8299 225.2767,-455.799 227.0885,-449.0375"/>
</g>
<!-- 2687 -->
<g id="node12" class="node">
<title>2687</title>
<ellipse fill="none" stroke="#000000" cx="354.8683" cy="-774.3792" rx="28.6953" ry="18"/>
<text text-anchor="middle" x="354.8683" y="-770.6792" font-family="Times,serif" font-size="14.00" fill="#000000">2687</text>
</g>
<!-- 2687&#45;&gt;2516 -->
<g id="edge15" class="edge">
<title>2687&#45;&gt;2516</title>
<path fill="none" stroke="#000000" d="M351.2503,-792.4474C347.9412,-808.9732 342.9937,-833.6813 339.1685,-852.7849"/>
<polygon fill="#000000" stroke="#000000" points="335.7079,-852.2412 337.1763,-862.7338 342.5717,-853.6157 335.7079,-852.2412"/>
</g>
<!-- 2687&#45;&gt;2686 -->
<g id="edge16" class="edge">
<title>2687&#45;&gt;2686</title>
<path fill="none" stroke="#000000" d="M349.4714,-756.6533C333.6191,-704.5869 287.1104,-551.8303 267.9569,-488.9211"/>
<polygon fill="#000000" stroke="#000000" points="271.2834,-487.8299 265.0224,-479.2829 264.5869,-489.8687 271.2834,-487.8299"/>
</g>
<!-- 9505 -->
<g id="node40" class="node">
<title>9505</title>
<ellipse fill="none" stroke="#000000" cx="289.6141" cy="-378.8085" rx="28.6953" ry="18"/>
<text text-anchor="middle" x="289.6141" y="-375.1085" font-family="Times,serif" font-size="14.00" fill="#000000">9505</text>
</g>
<!-- 2687&#45;&gt;9505 -->
<g id="edge17" class="edge">
<title>2687&#45;&gt;9505</title>
<path fill="none" stroke="#000000" d="M351.8949,-756.3545C341.5337,-693.5451 306.9631,-483.9783 294.3077,-407.2609"/>
<polygon fill="#000000" stroke="#000000" points="297.686,-406.2361 292.605,-396.9392 290.7793,-407.3755 297.686,-406.2361"/>
</g>
<!-- 2764 -->
<g id="node13" class="node">
<title>2764</title>
<ellipse fill="none" stroke="#000000" cx="249.9964" cy="-1008.3345" rx="28.6953" ry="18"/>
<text text-anchor="middle" x="249.9964" y="-1004.6345" font-family="Times,serif" font-size="14.00" fill="#000000">2764</text>
</g>
<!-- 7545 -->
<g id="node37" class="node">
<title>7545</title>
<ellipse fill="none" stroke="#000000" cx="283.5862" cy="-1143.3601" rx="28.6953" ry="18"/>
<text text-anchor="middle" x="283.5862" y="-1139.6601" font-family="Times,serif" font-size="14.00" fill="#000000">7545</text>
</g>
<!-- 2764&#45;&gt;7545 -->
<g id="edge18" class="edge">
<title>2764&#45;&gt;7545</title>
<path fill="none" stroke="#000000" d="M254.4569,-1026.2649C260.1285,-1049.064 269.9827,-1088.6761 276.6416,-1115.4441"/>
<polygon fill="#000000" stroke="#000000" points="273.2966,-1116.4963 279.1072,-1125.3556 280.0896,-1114.8064 273.2966,-1116.4963"/>
</g>
<!-- 38333 -->
<g id="node53" class="node">
<title>38333</title>
<ellipse fill="none" stroke="#000000" cx="93.8516" cy="-896.0933" rx="32.4942" ry="18"/>
<text text-anchor="middle" x="93.8516" y="-892.3933" font-family="Times,serif" font-size="14.00" fill="#000000">38333</text>
</g>
<!-- 2764&#45;&gt;38333 -->
<g id="edge19" class="edge">
<title>2764&#45;&gt;38333</title>
<path fill="none" stroke="#000000" d="M230.85,-994.5715C203.7548,-975.0947 154.0212,-939.3448 122.5141,-916.6967"/>
<polygon fill="#000000" stroke="#000000" points="124.3075,-913.6754 114.1447,-910.6805 120.2217,-919.3593 124.3075,-913.6754"/>
</g>
<!-- 38561 -->
<g id="node54" class="node">
<title>38561</title>
<ellipse fill="none" stroke="#000000" cx="50.9266" cy="-778.1579" rx="32.4942" ry="18"/>
<text text-anchor="middle" x="50.9266" y="-774.4579" font-family="Times,serif" font-size="14.00" fill="#000000">38561</text>
</g>
<!-- 2764&#45;&gt;38561 -->
<g id="edge20" class="edge">
<title>2764&#45;&gt;38561</title>
<path fill="none" stroke="#000000" d="M236.3136,-992.5135C202.0185,-952.8595 112.2324,-849.0433 71.523,-801.9726"/>
<polygon fill="#000000" stroke="#000000" points="74.1595,-799.6706 64.9707,-794.3964 68.8649,-804.2496 74.1595,-799.6706"/>
</g>
<!-- 2914 -->
<g id="node15" class="node">
<title>2914</title>
<ellipse fill="none" stroke="#000000" cx="700.1125" cy="-536.6529" rx="28.6953" ry="18"/>
<text text-anchor="middle" x="700.1125" y="-532.9529" font-family="Times,serif" font-size="14.00" fill="#000000">2914</text>
</g>
<!-- 6453 -->
<g id="node28" class="node">
<title>6453</title>
<ellipse fill="none" stroke="#000000" cx="746.3932" cy="-591.8081" rx="28.6953" ry="18"/>
<text text-anchor="middle" x="746.3932" y="-588.1081" font-family="Times,serif" font-size="14.00" fill="#000000">6453</text>
</g>
<!-- 2914&#45;&gt;6453 -->
<g id="edge21" class="edge">
<title>2914&#45;&gt;6453</title>
<path fill="none" stroke="#000000" d="M713.4988,-552.6061C717.4932,-557.3665 721.9623,-562.6925 726.2874,-567.847"/>
<polygon fill="#000000" stroke="#000000" points="723.7676,-570.2891 732.8767,-575.6998 729.1299,-565.7895 723.7676,-570.2891"/>
</g>
<!-- 3257 -->
<g id="node16" class="node">
<title>3257</title>
<ellipse fill="none" stroke="#000000" cx="792.6739" cy="-646.9633" rx="28.6953" ry="18"/>
<text text-anchor="middle" x="792.6739" y="-643.2633" font-family="Times,serif" font-size="14.00" fill="#000000">3257</text>
</g>
<!-- 3491 -->
<g id="node19" class="node">
<title>3491</title>
<ellipse fill="none" stroke="#000000" cx="838.9546" cy="-702.1185" rx="28.6953" ry="18"/>
<text text-anchor="middle" x="838.9546" y="-698.4185" font-family="Times,serif" font-size="14.00" fill="#000000">3491</text>
</g>
<!-- 3257&#45;&gt;3491 -->
<g id="edge22" class="edge">
<title>3257&#45;&gt;3491</title>
<path fill="none" stroke="#000000" d="M806.0602,-662.9165C810.0547,-667.6769 814.5237,-673.0029 818.8488,-678.1574"/>
<polygon fill="#000000" stroke="#000000" points="816.329,-680.5995 825.4381,-686.0102 821.6913,-676.0999 816.329,-680.5995"/>
</g>
<!-- 3356 -->
<g id="node18" class="node">
<title>3356</title>
<ellipse fill="none" stroke="#000000" cx="868.1073" cy="-330.7915" rx="28.6953" ry="18"/>
<text text-anchor="middle" x="868.1073" y="-327.0915" font-family="Times,serif" font-size="14.00" fill="#000000">3356</text>
</g>
<!-- 3549 -->
<g id="node20" class="node">
<title>3549</title>
<ellipse fill="none" stroke="#000000" cx="607.5511" cy="-426.3425" rx="28.6953" ry="18"/>
<text text-anchor="middle" x="607.5511" y="-422.6425" font-family="Times,serif" font-size="14.00" fill="#000000">3549</text>
</g>
<!-- 3356&#45;&gt;3549 -->
<g id="edge23" class="edge">
<title>3356&#45;&gt;3549</title>
<path fill="none" stroke="#000000" d="M843.1241,-339.9533C796.3365,-357.1112 695.4308,-394.1153 642.1415,-413.6576"/>
<polygon fill="#000000" stroke="#000000" points="640.6422,-410.4794 632.4587,-417.2084 643.0524,-417.0514 640.6422,-410.4794"/>
</g>
<!-- 3491&#45;&gt;174 -->
<g id="edge24" class="edge">
<title>3491&#45;&gt;174</title>
<path fill="none" stroke="#000000" d="M852.3409,-718.0717C856.4054,-722.9156 860.9614,-728.3451 865.357,-733.5837"/>
<polygon fill="#000000" stroke="#000000" points="862.9299,-736.1362 872.039,-741.5469 868.2922,-731.6367 862.9299,-736.1362"/>
</g>
<!-- 6762 -->
<g id="node30" class="node">
<title>6762</title>
<ellipse fill="none" stroke="#000000" cx="653.8318" cy="-481.4977" rx="28.6953" ry="18"/>
<text text-anchor="middle" x="653.8318" y="-477.7977" font-family="Times,serif" font-size="14.00" fill="#000000">6762</text>
</g>
<!-- 3549&#45;&gt;6762 -->
<g id="edge25" class="edge">
<title>3549&#45;&gt;6762</title>
<path fill="none" stroke="#000000" d="M620.9374,-442.2957C624.9318,-447.0561 629.4009,-452.3821 633.726,-457.5366"/>
<polygon fill="#000000" stroke="#000000" points="631.2062,-459.9787 640.3153,-465.3894 636.5685,-455.4791 631.2062,-459.9787"/>
</g>
<!-- 30070 -->
<g id="node50" class="node">
<title>30070</title>
<ellipse fill="none" stroke="#000000" cx="468.2066" cy="-666.348" rx="32.4942" ry="18"/>
<text text-anchor="middle" x="468.2066" y="-662.648" font-family="Times,serif" font-size="14.00" fill="#000000">30070</text>
</g>
<!-- 3549&#45;&gt;30070 -->
<g id="edge26" class="edge">
<title>3549&#45;&gt;30070</title>
<path fill="none" stroke="#000000" d="M597.5298,-443.6031C573.435,-485.1038 512.1335,-590.6887 483.4459,-640.1"/>
<polygon fill="#000000" stroke="#000000" points="480.3185,-638.5159 478.3243,-648.9213 486.3722,-642.0306 480.3185,-638.5159"/>
</g>
<!-- 3597 -->
<g id="node21" class="node">
<title>3597</title>
<ellipse fill="none" stroke="#000000" cx="502.9651" cy="-69.7749" rx="28.6953" ry="18"/>
<text text-anchor="middle" x="502.9651" y="-66.0749" font-family="Times,serif" font-size="14.00" fill="#000000">3597</text>
</g>
<!-- 37179 -->
<g id="node52" class="node">
<title>37179</title>
<ellipse fill="none" stroke="#000000" cx="120.4733" cy="-424.0934" rx="32.4942" ry="18"/>
<text text-anchor="middle" x="120.4733" y="-420.3934" font-family="Times,serif" font-size="14.00" fill="#000000">37179</text>
</g>
<!-- 3741&#45;&gt;37179 -->
<g id="edge27" class="edge">
<title>3741&#45;&gt;37179</title>
<path fill="none" stroke="#000000" d="M163.3303,-435.5769C162.0806,-435.242 160.8161,-434.9032 159.5438,-434.5623"/>
<polygon fill="#000000" stroke="#000000" points="160.3183,-431.1464 149.7532,-431.9389 158.5065,-437.9079 160.3183,-431.1464"/>
</g>
<!-- 4635 -->
<g id="node23" class="node">
<title>4635</title>
<ellipse fill="none" stroke="#000000" cx="411.6796" cy="-1309.6039" rx="28.6953" ry="18"/>
<text text-anchor="middle" x="411.6796" y="-1305.9039" font-family="Times,serif" font-size="14.00" fill="#000000">4635</text>
</g>
<!-- 4637 -->
<g id="node24" class="node">
<title>4637</title>
<ellipse fill="none" stroke="#000000" cx="100.8591" cy="-648.2851" rx="28.6953" ry="18"/>
<text text-anchor="middle" x="100.8591" y="-644.5851" font-family="Times,serif" font-size="14.00" fill="#000000">4637</text>
</g>
<!-- 4739 -->
<g id="node25" class="node">
<title>4739</title>
<ellipse fill="none" stroke="#000000" cx="292.1207" cy="-1240.5766" rx="28.6953" ry="18"/>
<text text-anchor="middle" x="292.1207" y="-1236.8766" font-family="Times,serif" font-size="14.00" fill="#000000">4739</text>
</g>
<!-- 5692 -->
<g id="node27" class="node">
<title>5692</title>
<ellipse fill="none" stroke="#000000" cx="998.3932" cy="-155.3313" rx="28.6953" ry="18"/>
<text text-anchor="middle" x="998.3932" y="-151.6313" font-family="Times,serif" font-size="14.00" fill="#000000">5692</text>
</g>
<!-- 5692&#45;&gt;3597 -->
<g id="edge28" class="edge">
<title>5692&#45;&gt;3597</title>
<path fill="none" stroke="#000000" d="M970.6953,-150.5481C887.0225,-136.0985 636.7338,-92.8756 540.8847,-76.3233"/>
<polygon fill="#000000" stroke="#000000" points="541.2231,-72.83 530.7733,-74.5771 540.0318,-79.7279 541.2231,-72.83"/>
</g>
<!-- 10834 -->
<g id="node43" class="node">
<title>10834</title>
<ellipse fill="none" stroke="#000000" cx="928.9643" cy="-200.2832" rx="32.4942" ry="18"/>
<text text-anchor="middle" x="928.9643" y="-196.5832" font-family="Times,serif" font-size="14.00" fill="#000000">10834</text>
</g>
<!-- 5692&#45;&gt;10834 -->
<g id="edge29" class="edge">
<title>5692&#45;&gt;10834</title>
<path fill="none" stroke="#000000" d="M978.3115,-168.3333C972.2541,-172.2551 965.4692,-176.6481 958.9151,-180.8915"/>
<polygon fill="#000000" stroke="#000000" points="956.703,-178.1542 950.2109,-186.527 960.5074,-184.0301 956.703,-178.1542"/>
</g>
<!-- 11008 -->
<g id="node44" class="node">
<title>11008</title>
<ellipse fill="none" stroke="#000000" cx="597.3135" cy="-35.4349" rx="32.4942" ry="18"/>
<text text-anchor="middle" x="597.3135" y="-31.7349" font-family="Times,serif" font-size="14.00" fill="#000000">11008</text>
</g>
<!-- 5692&#45;&gt;11008 -->
<g id="edge30" class="edge">
<title>5692&#45;&gt;11008</title>
<path fill="none" stroke="#000000" d="M972.3863,-147.557C903.6349,-127.0048 716.8103,-71.1566 635.725,-46.9174"/>
<polygon fill="#000000" stroke="#000000" points="636.5023,-43.4968 625.9187,-43.986 634.4973,-50.2035 636.5023,-43.4968"/>
</g>
<!-- 27865 -->
<g id="node48" class="node">
<title>27865</title>
<ellipse fill="none" stroke="#000000" cx="696.1915" cy="-18" rx="32.4942" ry="18"/>
<text text-anchor="middle" x="696.1915" y="-14.3" font-family="Times,serif" font-size="14.00" fill="#000000">27865</text>
</g>
<!-- 5692&#45;&gt;27865 -->
<g id="edge31" class="edge">
<title>5692&#45;&gt;27865</title>
<path fill="none" stroke="#000000" d="M975.1818,-144.7832C922.4422,-120.8165 793.3496,-62.1521 731.0077,-33.8217"/>
<polygon fill="#000000" stroke="#000000" points="732.1493,-30.4961 721.5972,-29.5453 729.2532,-36.8689 732.1493,-30.4961"/>
</g>
<!-- 28065 -->
<g id="node49" class="node">
<title>28065</title>
<ellipse fill="none" stroke="#000000" cx="796.5949" cy="-18" rx="32.4942" ry="18"/>
<text text-anchor="middle" x="796.5949" y="-14.3" font-family="Times,serif" font-size="14.00" fill="#000000">28065</text>
</g>
<!-- 5692&#45;&gt;28065 -->
<g id="edge32" class="edge">
<title>5692&#45;&gt;28065</title>
<path fill="none" stroke="#000000" d="M978.6765,-141.9134C942.9371,-117.5913 867.3054,-66.1211 825.6423,-37.7678"/>
<polygon fill="#000000" stroke="#000000" points="827.5303,-34.8191 817.294,-32.0865 823.592,-40.6062 827.5303,-34.8191"/>
</g>
<!-- 52317 -->
<g id="node55" class="node">
<title>52317</title>
<ellipse fill="none" stroke="#000000" cx="895.473" cy="-35.4349" rx="32.4942" ry="18"/>
<text text-anchor="middle" x="895.473" y="-31.7349" font-family="Times,serif" font-size="14.00" fill="#000000">52317</text>
</g>
<!-- 5692&#45;&gt;52317 -->
<g id="edge33" class="edge">
<title>5692&#45;&gt;52317</title>
<path fill="none" stroke="#000000" d="M984.5129,-139.1616C966.9416,-118.692 936.5172,-83.2491 916.1924,-59.5718"/>
<polygon fill="#000000" stroke="#000000" points="918.6313,-57.0395 909.4621,-51.7314 913.3198,-61.5989 918.6313,-57.0395"/>
</g>
<!-- 52375 -->
<g id="node56" class="node">
<title>52375</title>
<ellipse fill="none" stroke="#000000" cx="989.8213" cy="-69.7749" rx="32.4942" ry="18"/>
<text text-anchor="middle" x="989.8213" y="-66.0749" font-family="Times,serif" font-size="14.00" fill="#000000">52375</text>
</g>
<!-- 5692&#45;&gt;52375 -->
<g id="edge34" class="edge">
<title>5692&#45;&gt;52375</title>
<path fill="none" stroke="#000000" d="M996.5754,-137.187C995.4389,-125.8439 993.9512,-110.9953 992.6614,-98.1219"/>
<polygon fill="#000000" stroke="#000000" points="996.1162,-97.4943 991.6366,-87.893 989.151,-98.1922 996.1162,-97.4943"/>
</g>
<!-- 52376 -->
<g id="node57" class="node">
<title>52376</title>
<ellipse fill="none" stroke="#000000" cx="1076.7733" cy="-119.9766" rx="32.4942" ry="18"/>
<text text-anchor="middle" x="1076.7733" y="-116.2766" font-family="Times,serif" font-size="14.00" fill="#000000">52376</text>
</g>
<!-- 5692&#45;&gt;52376 -->
<g id="edge35" class="edge">
<title>5692&#45;&gt;52376</title>
<path fill="none" stroke="#000000" d="M1021.9098,-144.7237C1028.296,-141.8431 1035.3471,-138.6626 1042.2065,-135.5686"/>
<polygon fill="#000000" stroke="#000000" points="1043.6846,-138.7415 1051.361,-131.4392 1040.8063,-132.3606 1043.6846,-138.7415"/>
</g>
<!-- 52380 -->
<g id="node58" class="node">
<title>52380</title>
<ellipse fill="none" stroke="#000000" cx="1153.6867" cy="-184.5146" rx="32.4942" ry="18"/>
<text text-anchor="middle" x="1153.6867" y="-180.8146" font-family="Times,serif" font-size="14.00" fill="#000000">52380</text>
</g>
<!-- 5692&#45;&gt;52380 -->
<g id="edge36" class="edge">
<title>5692&#45;&gt;52380</title>
<path fill="none" stroke="#000000" d="M1025.7991,-160.4816C1049.8886,-165.0085 1085.2844,-171.6602 1112.7345,-176.8188"/>
<polygon fill="#000000" stroke="#000000" points="1112.3515,-180.308 1122.8259,-178.7152 1113.6443,-173.4284 1112.3515,-180.308"/>
</g>
<!-- 52413 -->
<g id="node59" class="node">
<title>52413</title>
<ellipse fill="none" stroke="#000000" cx="1218.2248" cy="-261.4281" rx="32.4942" ry="18"/>
<text text-anchor="middle" x="1218.2248" y="-257.7281" font-family="Times,serif" font-size="14.00" fill="#000000">52413</text>
</g>
<!-- 5692&#45;&gt;52413 -->
<g id="edge37" class="edge">
<title>5692&#45;&gt;52413</title>
<path fill="none" stroke="#000000" d="M1021.0911,-166.286C1059.9066,-185.0194 1139.2219,-223.2991 1184.5221,-245.1623"/>
<polygon fill="#000000" stroke="#000000" points="1183.1183,-248.371 1193.6456,-249.5655 1186.1609,-242.0668 1183.1183,-248.371"/>
</g>
<!-- 52431 -->
<g id="node60" class="node">
<title>52431</title>
<ellipse fill="none" stroke="#000000" cx="1268.4265" cy="-348.38" rx="32.4942" ry="18"/>
<text text-anchor="middle" x="1268.4265" y="-344.68" font-family="Times,serif" font-size="14.00" fill="#000000">52431</text>
</g>
<!-- 5692&#45;&gt;52431 -->
<g id="edge38" class="edge">
<title>5692&#45;&gt;52431</title>
<path fill="none" stroke="#000000" d="M1017.3814,-168.9062C1064.1022,-202.3072 1184.8447,-288.6268 1240.0844,-328.118"/>
<polygon fill="#000000" stroke="#000000" points="1238.1957,-331.0702 1248.3662,-334.0388 1242.2668,-325.3758 1238.1957,-331.0702"/>
</g>
<!-- 262230 -->
<g id="node61" class="node">
<title>262230</title>
<ellipse fill="none" stroke="#000000" cx="1302.7665" cy="-442.7284" rx="37.0935" ry="18"/>
<text text-anchor="middle" x="1302.7665" y="-439.0284" font-family="Times,serif" font-size="14.00" fill="#000000">262230</text>
</g>
<!-- 5692&#45;&gt;262230 -->
<g id="edge39" class="edge">
<title>5692&#45;&gt;262230</title>
<path fill="none" stroke="#000000" d="M1014.3291,-170.3784C1064.1978,-217.4657 1217.5347,-362.2503 1277.9407,-419.2872"/>
<polygon fill="#000000" stroke="#000000" points="1275.8234,-422.1017 1285.4972,-426.4223 1280.6292,-417.012 1275.8234,-422.1017"/>
</g>
<!-- 264608 -->
<g id="node62" class="node">
<title>264608</title>
<ellipse fill="none" stroke="#000000" cx="1320.2014" cy="-541.6064" rx="37.0935" ry="18"/>
<text text-anchor="middle" x="1320.2014" y="-537.9064" font-family="Times,serif" font-size="14.00" fill="#000000">264608</text>
</g>
<!-- 5692&#45;&gt;264608 -->
<g id="edge40" class="edge">
<title>5692&#45;&gt;264608</title>
<path fill="none" stroke="#000000" d="M1011.8112,-171.4373C1061.9798,-231.656 1238.747,-443.8346 1299.5082,-516.7678"/>
<polygon fill="#000000" stroke="#000000" points="1296.9126,-519.1203 1306.0025,-524.5631 1302.2907,-514.6398 1296.9126,-519.1203"/>
</g>
<!-- 6453&#45;&gt;3257 -->
<g id="edge41" class="edge">
<title>6453&#45;&gt;3257</title>
<path fill="none" stroke="#000000" d="M759.7795,-607.7613C763.7739,-612.5217 768.243,-617.8477 772.5681,-623.0022"/>
<polygon fill="#000000" stroke="#000000" points="770.0483,-625.4443 779.1574,-630.855 775.4106,-620.9447 770.0483,-625.4443"/>
</g>
<!-- 6762&#45;&gt;2914 -->
<g id="edge42" class="edge">
<title>6762&#45;&gt;2914</title>
<path fill="none" stroke="#000000" d="M667.2181,-497.4509C671.2125,-502.2113 675.6816,-507.5373 680.0067,-512.6918"/>
<polygon fill="#000000" stroke="#000000" points="677.4869,-515.1339 686.596,-520.5446 682.8492,-510.6343 677.4869,-515.1339"/>
</g>
<!-- 6904 -->
<g id="node31" class="node">
<title>6904</title>
<ellipse fill="none" stroke="#000000" cx="420.1224" cy="-743.9507" rx="28.6953" ry="18"/>
<text text-anchor="middle" x="420.1224" y="-740.2507" font-family="Times,serif" font-size="14.00" fill="#000000">6904</text>
</g>
<!-- 6904&#45;&gt;2687 -->
<g id="edge43" class="edge">
<title>6904&#45;&gt;2687</title>
<path fill="none" stroke="#000000" d="M396.9325,-754.7644C393.7592,-756.2441 390.4556,-757.7846 387.1566,-759.3229"/>
<polygon fill="#000000" stroke="#000000" points="385.5674,-756.2021 377.9835,-763.6004 388.5258,-762.5463 385.5674,-756.2021"/>
</g>
<!-- 6939 -->
<g id="node32" class="node">
<title>6939</title>
<ellipse fill="none" stroke="#000000" cx="186.3647" cy="-1151.8367" rx="28.6953" ry="18"/>
<text text-anchor="middle" x="186.3647" y="-1148.1367" font-family="Times,serif" font-size="14.00" fill="#000000">6939</text>
</g>
<!-- 7016 -->
<g id="node33" class="node">
<title>7016</title>
<ellipse fill="none" stroke="#000000" cx="451.4985" cy="-385.3206" rx="28.6953" ry="18"/>
<text text-anchor="middle" x="451.4985" y="-381.6206" font-family="Times,serif" font-size="14.00" fill="#000000">7016</text>
</g>
<!-- 7922 -->
<g id="node38" class="node">
<title>7922</title>
<ellipse fill="none" stroke="#000000" cx="392.5195" cy="-344.0231" rx="28.6953" ry="18"/>
<text text-anchor="middle" x="392.5195" y="-340.3231" font-family="Times,serif" font-size="14.00" fill="#000000">7922</text>
</g>
<!-- 7016&#45;&gt;7922 -->
<g id="edge44" class="edge">
<title>7016&#45;&gt;7922</title>
<path fill="none" stroke="#000000" d="M432.1866,-371.7983C428.2769,-369.0607 424.0953,-366.1327 419.9672,-363.2422"/>
<polygon fill="#000000" stroke="#000000" points="421.8725,-360.3036 411.6734,-357.4348 417.8574,-366.0377 421.8725,-360.3036"/>
</g>
<!-- 7473 -->
<g id="node35" class="node">
<title>7473</title>
<ellipse fill="none" stroke="#000000" cx="224.3599" cy="-348.38" rx="28.6953" ry="18"/>
<text text-anchor="middle" x="224.3599" y="-344.68" font-family="Times,serif" font-size="14.00" fill="#000000">7473</text>
</g>
<!-- 7474 -->
<g id="node36" class="node">
<title>7474</title>
<ellipse fill="none" stroke="#000000" cx="100.8591" cy="-535.3312" rx="28.6953" ry="18"/>
<text text-anchor="middle" x="100.8591" y="-531.6312" font-family="Times,serif" font-size="14.00" fill="#000000">7474</text>
</g>
<!-- 7545&#45;&gt;4635 -->
<g id="edge45" class="edge">
<title>7545&#45;&gt;4635</title>
<path fill="none" stroke="#000000" d="M296.1015,-1159.603C318.6188,-1188.8266 366.0829,-1250.427 392.648,-1284.9041"/>
<polygon fill="#000000" stroke="#000000" points="390.0476,-1287.2638 398.9236,-1293.0489 395.5926,-1282.9913 390.0476,-1287.2638"/>
</g>
<!-- 7545&#45;&gt;4739 -->
<g id="edge46" class="edge">
<title>7545&#45;&gt;4739</title>
<path fill="none" stroke="#000000" d="M285.1914,-1161.6458C286.4431,-1175.9035 288.2035,-1195.9562 289.6367,-1212.2815"/>
<polygon fill="#000000" stroke="#000000" points="286.1614,-1212.7173 290.5226,-1222.3729 293.1346,-1212.1051 286.1614,-1212.7173"/>
</g>
<!-- 7545&#45;&gt;6939 -->
<g id="edge47" class="edge">
<title>7545&#45;&gt;6939</title>
<path fill="none" stroke="#000000" d="M255.2043,-1145.8347C245.8032,-1146.6544 235.1736,-1147.5812 225.1293,-1148.4569"/>
<polygon fill="#000000" stroke="#000000" points="224.6083,-1144.989 214.9501,-1149.3444 225.2163,-1151.9625 224.6083,-1144.989"/>
</g>
<!-- 9942 -->
<g id="node41" class="node">
<title>9942</title>
<ellipse fill="none" stroke="#000000" cx="97.6248" cy="-1046.0807" rx="28.6953" ry="18"/>
<text text-anchor="middle" x="97.6248" y="-1042.3807" font-family="Times,serif" font-size="14.00" fill="#000000">9942</text>
</g>
<!-- 7545&#45;&gt;9942 -->
<g id="edge48" class="edge">
<title>7545&#45;&gt;9942</title>
<path fill="none" stroke="#000000" d="M261.5237,-1131.8189C228.5299,-1114.5593 166.2043,-1081.9558 128.6419,-1062.3062"/>
<polygon fill="#000000" stroke="#000000" points="130.1418,-1059.1409 119.6586,-1057.6069 126.8971,-1065.3435 130.1418,-1059.1409"/>
</g>
<!-- 10026 -->
<g id="node42" class="node">
<title>10026</title>
<ellipse fill="none" stroke="#000000" cx="541.4085" cy="-1356.8214" rx="32.4942" ry="18"/>
<text text-anchor="middle" x="541.4085" y="-1353.1214" font-family="Times,serif" font-size="14.00" fill="#000000">10026</text>
</g>
<!-- 9498&#45;&gt;10026 -->
<g id="edge49" class="edge">
<title>9498&#45;&gt;10026</title>
<path fill="none" stroke="#000000" d="M555.2445,-1305.1847C553.3034,-1312.4291 551.0171,-1320.9619 548.8682,-1328.9817"/>
<polygon fill="#000000" stroke="#000000" points="545.4635,-1328.1652 546.256,-1338.7304 552.225,-1329.977 545.4635,-1328.1652"/>
</g>
<!-- 9505&#45;&gt;7473 -->
<g id="edge50" class="edge">
<title>9505&#45;&gt;7473</title>
<path fill="none" stroke="#000000" d="M266.4242,-367.9949C263.2509,-366.5152 259.9473,-364.9747 256.6483,-363.4363"/>
<polygon fill="#000000" stroke="#000000" points="258.0174,-360.213 247.4752,-359.1588 255.0591,-366.5572 258.0174,-360.213"/>
</g>
<!-- 12956 -->
<g id="node45" class="node">
<title>12956</title>
<ellipse fill="none" stroke="#000000" cx="898.5358" cy="-265.5373" rx="32.4942" ry="18"/>
<text text-anchor="middle" x="898.5358" y="-261.8373" font-family="Times,serif" font-size="14.00" fill="#000000">12956</text>
</g>
<!-- 10834&#45;&gt;12956 -->
<g id="edge51" class="edge">
<title>10834&#45;&gt;12956</title>
<path fill="none" stroke="#000000" d="M920.81,-217.7701C917.8085,-224.2068 914.336,-231.6537 911.039,-238.7242"/>
<polygon fill="#000000" stroke="#000000" points="907.7668,-237.4599 906.7126,-248.0022 914.1109,-240.4183 907.7668,-237.4599"/>
</g>
<!-- 22927 -->
<g id="node47" class="node">
<title>22927</title>
<ellipse fill="none" stroke="#000000" cx="457.3107" cy="-178.9555" rx="32.4942" ry="18"/>
<text text-anchor="middle" x="457.3107" y="-175.2555" font-family="Times,serif" font-size="14.00" fill="#000000">22927</text>
</g>
<!-- 10834&#45;&gt;22927 -->
<g id="edge52" class="edge">
<title>10834&#45;&gt;22927</title>
<path fill="none" stroke="#000000" d="M896.5457,-198.8172C813.5794,-195.0656 593.5426,-185.1158 500.1721,-180.8937"/>
<polygon fill="#000000" stroke="#000000" points="500.1042,-177.3871 489.9562,-180.4317 499.7879,-184.38 500.1042,-177.3871"/>
</g>
<!-- 12956&#45;&gt;3356 -->
<g id="edge53" class="edge">
<title>12956&#45;&gt;3356</title>
<path fill="none" stroke="#000000" d="M890.3815,-283.0243C887.38,-289.461 883.9075,-296.9079 880.6105,-303.9783"/>
<polygon fill="#000000" stroke="#000000" points="877.3382,-302.714 876.2841,-313.2563 883.6824,-305.6724 877.3382,-302.714"/>
</g>
<!-- 18540 -->
<g id="node46" class="node">
<title>18540</title>
<ellipse fill="none" stroke="#000000" cx="491.8348" cy="-337.2497" rx="32.4942" ry="18"/>
<text text-anchor="middle" x="491.8348" y="-333.5497" font-family="Times,serif" font-size="14.00" fill="#000000">18540</text>
</g>
<!-- 30070&#45;&gt;6904 -->
<g id="edge54" class="edge">
<title>30070&#45;&gt;6904</title>
<path fill="none" stroke="#000000" d="M457.5352,-683.5706C451.204,-693.7885 443.0589,-706.9337 435.986,-718.3487"/>
<polygon fill="#000000" stroke="#000000" points="432.8905,-716.6993 430.5986,-727.0433 438.8409,-720.3863 432.8905,-716.6993"/>
</g>
<!-- 30070&#45;&gt;7016 -->
<g id="edge55" class="edge">
<title>30070&#45;&gt;7016</title>
<path fill="none" stroke="#000000" d="M467.136,-648.341C464.3077,-600.7688 456.6191,-471.448 453.1894,-413.7613"/>
<polygon fill="#000000" stroke="#000000" points="456.6692,-413.316 452.5818,-403.5414 449.6815,-413.7315 456.6692,-413.316"/>
</g>
<!-- 30070&#45;&gt;18540 -->
<g id="edge56" class="edge">
<title>30070&#45;&gt;18540</title>
<path fill="none" stroke="#000000" d="M469.5106,-648.1855C473.4238,-593.6816 485.0868,-431.237 489.8126,-365.4154"/>
<polygon fill="#000000" stroke="#000000" points="493.3096,-365.5811 490.5348,-355.3561 486.3276,-365.0798 493.3096,-365.5811"/>
</g>
<!-- 32787&#45;&gt;703 -->
<g id="edge57" class="edge">
<title>32787&#45;&gt;703</title>
<path fill="none" stroke="#000000" d="M290.9123,-938.0777C341.8022,-987.5324 497.4655,-1138.8055 556.0566,-1195.7442"/>
<polygon fill="#000000" stroke="#000000" points="553.7324,-1198.366 563.3431,-1202.8252 558.6108,-1193.3459 553.7324,-1198.366"/>
</g>
<!-- 32787&#45;&gt;2764 -->
<g id="edge58" class="edge">
<title>32787&#45;&gt;2764</title>
<path fill="none" stroke="#000000" d="M269.4717,-940.0378C266.1121,-951.8194 261.6439,-967.4885 257.8349,-980.8463"/>
<polygon fill="#000000" stroke="#000000" points="254.4563,-979.9313 255.0798,-990.5078 261.188,-981.851 254.4563,-979.9313"/>
</g>
<!-- 32787&#45;&gt;4637 -->
<g id="edge59" class="edge">
<title>32787&#45;&gt;4637</title>
<path fill="none" stroke="#000000" d="M263.6958,-905.0543C234.0758,-858.3481 151.8064,-728.6215 116.8755,-673.5406"/>
<polygon fill="#000000" stroke="#000000" points="119.8104,-671.6332 111.499,-665.0627 113.8989,-675.3822 119.8104,-671.6332"/>
</g>
<!-- 32787&#45;&gt;7474 -->
<g id="edge60" class="edge">
<title>32787&#45;&gt;7474</title>
<path fill="none" stroke="#000000" d="M266.6466,-904.5605C238.9528,-842.883 146.2857,-636.5019 112.9418,-562.2409"/>
<polygon fill="#000000" stroke="#000000" points="116.1097,-560.7514 108.8206,-553.0625 109.7238,-563.6187 116.1097,-560.7514"/>
</g>
<!-- 38333&#45;&gt;1221 -->
<g id="edge61" class="edge">
<title>38333&#45;&gt;1221</title>
<path fill="none" stroke="#000000" d="M68.8093,-907.7707C66.2687,-908.9554 63.6631,-910.1704 61.0589,-911.3848"/>
<polygon fill="#000000" stroke="#000000" points="59.3368,-908.3259 51.7529,-915.7243 62.2952,-914.6701 59.3368,-908.3259"/>
</g>
</g>
</svg>
