<?xml version="1.0" encoding="UTF-8" standalone="no"?>
<!DOCTYPE svg PUBLIC "-//W3C//DTD SVG 1.1//EN"
 "http://www.w3.org/Graphics/SVG/1.1/DTD/svg11.dtd">
<!-- Generated by graphviz version 2.40.1 (20161225.0304)
 -->
<!-- Title: %3 Pages: 1 -->
<svg width="907pt" height="926pt"
 viewBox="0.00 0.00 907.35 925.52" xmlns="http://www.w3.org/2000/svg" xmlns:xlink="http://www.w3.org/1999/xlink">
<g id="graph0" class="graph" transform="scale(1 1) rotate(0) translate(4 921.52)">
<title>%3</title>
<polygon fill="#ffffff" stroke="transparent" points="-4,4 -4,-921.52 903.3462,-921.52 903.3462,4 -4,4"/>
<!-- 174 -->
<g id="node1" class="node">
<title>174</title>
<ellipse fill="none" stroke="#000000" cx="632.4785" cy="-97.0458" rx="27" ry="18"/>
<text text-anchor="middle" x="632.4785" y="-93.3458" font-family="Times,serif" font-size="14.00" fill="#000000">174</text>
</g>
<!-- 209 -->
<g id="node2" class="node">
<title>209</title>
<ellipse fill="none" stroke="#000000" cx="809.1119" cy="-123.0719" rx="27" ry="18"/>
<text text-anchor="middle" x="809.1119" y="-119.3719" font-family="Times,serif" font-size="14.00" fill="#000000">209</text>
</g>
<!-- 701 -->
<g id="node3" class="node">
<title>701</title>
<ellipse fill="none" stroke="#000000" cx="672.4212" cy="-27.5329" rx="27" ry="18"/>
<text text-anchor="middle" x="672.4212" y="-23.8329" font-family="Times,serif" font-size="14.00" fill="#000000">701</text>
</g>
<!-- 703 -->
<g id="node4" class="node">
<title>703</title>
<ellipse fill="none" stroke="#000000" cx="48.775" cy="-670.5639" rx="27" ry="18"/>
<text text-anchor="middle" x="48.775" y="-666.8639" font-family="Times,serif" font-size="14.00" fill="#000000">703</text>
</g>
<!-- 1239 -->
<g id="node5" class="node">
<title>1239</title>
<ellipse fill="none" stroke="#000000" cx="771.7519" cy="-143.3255" rx="28.6953" ry="18"/>
<text text-anchor="middle" x="771.7519" y="-139.6255" font-family="Times,serif" font-size="14.00" fill="#000000">1239</text>
</g>
<!-- 1273 -->
<g id="node6" class="node">
<title>1273</title>
<ellipse fill="none" stroke="#000000" cx="659.2738" cy="-130.8144" rx="28.6953" ry="18"/>
<text text-anchor="middle" x="659.2738" y="-127.1144" font-family="Times,serif" font-size="14.00" fill="#000000">1273</text>
</g>
<!-- 1299 -->
<g id="node7" class="node">
<title>1299</title>
<ellipse fill="none" stroke="#000000" cx="641.9163" cy="-57.8918" rx="28.6953" ry="18"/>
<text text-anchor="middle" x="641.9163" y="-54.1918" font-family="Times,serif" font-size="14.00" fill="#000000">1299</text>
</g>
<!-- 2497 -->
<g id="node8" class="node">
<title>2497</title>
<ellipse fill="none" stroke="#000000" cx="782.167" cy="-48.7604" rx="28.6953" ry="18"/>
<text text-anchor="middle" x="782.167" y="-45.0604" font-family="Times,serif" font-size="14.00" fill="#000000">2497</text>
</g>
<!-- 2516 -->
<g id="node9" class="node">
<title>2516</title>
<ellipse fill="none" stroke="#000000" cx="190.5012" cy="-584.9284" rx="28.6953" ry="18"/>
<text text-anchor="middle" x="190.5012" y="-581.2284" font-family="Times,serif" font-size="14.00" fill="#000000">2516</text>
</g>
<!-- 32787 -->
<g id="node43" class="node">
<title>32787</title>
<ellipse fill="none" stroke="#000000" cx="108.8635" cy="-615.8836" rx="32.4942" ry="18"/>
<text text-anchor="middle" x="108.8635" y="-612.1836" font-family="Times,serif" font-size="14.00" fill="#000000">32787</text>
</g>
<!-- 2516&#45;&gt;32787 -->
<g id="edge1" class="edge">
<title>2516&#45;&gt;32787</title>
<path fill="none" stroke="#000000" d="M165.5636,-594.3842C159.2626,-596.7734 152.3635,-599.3894 145.6142,-601.9485"/>
<polygon fill="#000000" stroke="#000000" points="144.0295,-598.8062 135.9201,-605.6243 146.5114,-605.3515 144.0295,-598.8062"/>
</g>
<!-- 2686 -->
<g id="node10" class="node">
<title>2686</title>
<ellipse fill="none" stroke="#000000" cx="227.8612" cy="-479.9805" rx="28.6953" ry="18"/>
<text text-anchor="middle" x="227.8612" y="-476.2805" font-family="Times,serif" font-size="14.00" fill="#000000">2686</text>
</g>
<!-- 3741 -->
<g id="node21" class="node">
<title>3741</title>
<ellipse fill="none" stroke="#000000" cx="171.8944" cy="-415.8876" rx="28.6953" ry="18"/>
<text text-anchor="middle" x="171.8944" y="-412.1876" font-family="Times,serif" font-size="14.00" fill="#000000">3741</text>
</g>
<!-- 2686&#45;&gt;3741 -->
<g id="edge2" class="edge">
<title>2686&#45;&gt;3741</title>
<path fill="none" stroke="#000000" d="M214.0267,-464.1373C207.5507,-456.721 199.7028,-447.7336 192.5439,-439.5352"/>
<polygon fill="#000000" stroke="#000000" points="195.1723,-437.224 185.9585,-431.9937 189.8996,-441.8283 195.1723,-437.224"/>
</g>
<!-- 2687 -->
<g id="node11" class="node">
<title>2687</title>
<ellipse fill="none" stroke="#000000" cx="271.0754" cy="-555.3398" rx="28.6953" ry="18"/>
<text text-anchor="middle" x="271.0754" y="-551.6398" font-family="Times,serif" font-size="14.00" fill="#000000">2687</text>
</g>
<!-- 2687&#45;&gt;2516 -->
<g id="edge3" class="edge">
<title>2687&#45;&gt;2516</title>
<path fill="none" stroke="#000000" d="M246.0229,-564.5396C239.2897,-567.0122 231.8907,-569.7293 224.7506,-572.3513"/>
<polygon fill="#000000" stroke="#000000" points="223.442,-569.1032 215.2614,-575.8359 225.855,-575.6742 223.442,-569.1032"/>
</g>
<!-- 2687&#45;&gt;2686 -->
<g id="edge4" class="edge">
<title>2687&#45;&gt;2686</title>
<path fill="none" stroke="#000000" d="M261.2695,-538.2396C255.7995,-528.7008 248.874,-516.6237 242.7486,-505.9419"/>
<polygon fill="#000000" stroke="#000000" points="245.6392,-503.9468 237.6284,-497.013 239.5668,-507.429 245.6392,-503.9468"/>
</g>
<!-- 9505 -->
<g id="node34" class="node">
<title>9505</title>
<ellipse fill="none" stroke="#000000" cx="268.4267" cy="-636.5743" rx="28.6953" ry="18"/>
<text text-anchor="middle" x="268.4267" y="-632.8743" font-family="Times,serif" font-size="14.00" fill="#000000">9505</text>
</g>
<!-- 2687&#45;&gt;9505 -->
<g id="edge5" class="edge">
<title>2687&#45;&gt;9505</title>
<path fill="none" stroke="#000000" d="M270.4876,-573.3684C270.1539,-583.6036 269.7286,-596.6448 269.3512,-608.2199"/>
<polygon fill="#000000" stroke="#000000" points="265.8499,-608.2065 269.0221,-618.3153 272.8462,-608.4347 265.8499,-608.2065"/>
</g>
<!-- 2764 -->
<g id="node12" class="node">
<title>2764</title>
<ellipse fill="none" stroke="#000000" cx="28.5975" cy="-604.852" rx="28.6953" ry="18"/>
<text text-anchor="middle" x="28.5975" y="-601.152" font-family="Times,serif" font-size="14.00" fill="#000000">2764</text>
</g>
<!-- 2828 -->
<g id="node13" class="node">
<title>2828</title>
<ellipse fill="none" stroke="#000000" cx="745.2992" cy="-321.4027" rx="28.6953" ry="18"/>
<text text-anchor="middle" x="745.2992" y="-317.7027" font-family="Times,serif" font-size="14.00" fill="#000000">2828</text>
</g>
<!-- 2914 -->
<g id="node14" class="node">
<title>2914</title>
<ellipse fill="none" stroke="#000000" cx="627.4637" cy="-359.0822" rx="28.6953" ry="18"/>
<text text-anchor="middle" x="627.4637" y="-355.3822" font-family="Times,serif" font-size="14.00" fill="#000000">2914</text>
</g>
<!-- 6453 -->
<g id="node25" class="node">
<title>6453</title>
<ellipse fill="none" stroke="#000000" cx="673.0142" cy="-285.6696" rx="28.6953" ry="18"/>
<text text-anchor="middle" x="673.0142" y="-281.9696" font-family="Times,serif" font-size="14.00" fill="#000000">6453</text>
</g>
<!-- 2914&#45;&gt;6453 -->
<g id="edge6" class="edge">
<title>2914&#45;&gt;6453</title>
<path fill="none" stroke="#000000" d="M638.0284,-342.0554C643.7199,-332.8824 650.8559,-321.3815 657.1962,-311.163"/>
<polygon fill="#000000" stroke="#000000" points="660.2085,-312.9467 662.5068,-302.6041 654.2604,-309.256 660.2085,-312.9467"/>
</g>
<!-- 3257 -->
<g id="node15" class="node">
<title>3257</title>
<ellipse fill="none" stroke="#000000" cx="707.6406" cy="-204.4237" rx="28.6953" ry="18"/>
<text text-anchor="middle" x="707.6406" y="-200.7237" font-family="Times,serif" font-size="14.00" fill="#000000">3257</text>
</g>
<!-- 3491 -->
<g id="node18" class="node">
<title>3491</title>
<ellipse fill="none" stroke="#000000" cx="718.6844" cy="-107.3346" rx="28.6953" ry="18"/>
<text text-anchor="middle" x="718.6844" y="-103.6346" font-family="Times,serif" font-size="14.00" fill="#000000">3491</text>
</g>
<!-- 3257&#45;&gt;3491 -->
<g id="edge7" class="edge">
<title>3257&#45;&gt;3491</title>
<path fill="none" stroke="#000000" d="M709.7178,-186.162C711.3375,-171.923 713.6155,-151.8965 715.4701,-135.5926"/>
<polygon fill="#000000" stroke="#000000" points="718.9637,-135.846 716.6165,-125.5144 712.0086,-135.0548 718.9637,-135.846"/>
</g>
<!-- 5511 -->
<g id="node23" class="node">
<title>5511</title>
<ellipse fill="none" stroke="#000000" cx="791.6819" cy="-232.6531" rx="28.6953" ry="18"/>
<text text-anchor="middle" x="791.6819" y="-228.9531" font-family="Times,serif" font-size="14.00" fill="#000000">5511</text>
</g>
<!-- 3257&#45;&gt;5511 -->
<g id="edge8" class="edge">
<title>3257&#45;&gt;5511</title>
<path fill="none" stroke="#000000" d="M733.3124,-213.0468C740.6436,-215.5094 748.7615,-218.2362 756.5541,-220.8537"/>
<polygon fill="#000000" stroke="#000000" points="755.5733,-224.2164 766.1673,-224.0828 757.8023,-217.5807 755.5733,-224.2164"/>
</g>
<!-- 3320 -->
<g id="node16" class="node">
<title>3320</title>
<ellipse fill="none" stroke="#000000" cx="714.9857" cy="-45.4167" rx="28.6953" ry="18"/>
<text text-anchor="middle" x="714.9857" y="-41.7167" font-family="Times,serif" font-size="14.00" fill="#000000">3320</text>
</g>
<!-- 3356 -->
<g id="node17" class="node">
<title>3356</title>
<ellipse fill="none" stroke="#000000" cx="605.1612" cy="-592.6516" rx="28.6953" ry="18"/>
<text text-anchor="middle" x="605.1612" y="-588.9516" font-family="Times,serif" font-size="14.00" fill="#000000">3356</text>
</g>
<!-- 3549 -->
<g id="node19" class="node">
<title>3549</title>
<ellipse fill="none" stroke="#000000" cx="549.7632" cy="-520.2859" rx="28.6953" ry="18"/>
<text text-anchor="middle" x="549.7632" y="-516.5859" font-family="Times,serif" font-size="14.00" fill="#000000">3549</text>
</g>
<!-- 3356&#45;&gt;3549 -->
<g id="edge9" class="edge">
<title>3356&#45;&gt;3549</title>
<path fill="none" stroke="#000000" d="M592.5905,-576.2307C585.4367,-566.8857 576.3408,-555.0039 568.3733,-544.596"/>
<polygon fill="#000000" stroke="#000000" points="571.1419,-542.4547 562.2841,-536.6418 565.5836,-546.7098 571.1419,-542.4547"/>
</g>
<!-- 3491&#45;&gt;174 -->
<g id="edge10" class="edge">
<title>3491&#45;&gt;174</title>
<path fill="none" stroke="#000000" d="M690.4574,-103.9657C683.7271,-103.1624 676.4452,-102.2933 669.3894,-101.4512"/>
<polygon fill="#000000" stroke="#000000" points="669.6485,-97.9574 659.3042,-100.2475 668.8189,-104.908 669.6485,-97.9574"/>
</g>
<!-- 3491&#45;&gt;209 -->
<g id="edge11" class="edge">
<title>3491&#45;&gt;209</title>
<path fill="none" stroke="#000000" d="M746.307,-112.1418C754.6693,-113.5971 763.9827,-115.218 772.8221,-116.7563"/>
<polygon fill="#000000" stroke="#000000" points="772.4438,-120.243 782.8958,-118.5095 773.644,-113.3467 772.4438,-120.243"/>
</g>
<!-- 3491&#45;&gt;701 -->
<g id="edge12" class="edge">
<title>3491&#45;&gt;701</title>
<path fill="none" stroke="#000000" d="M708.8732,-90.4107C702.6169,-79.619 694.3885,-65.4255 687.333,-53.2551"/>
<polygon fill="#000000" stroke="#000000" points="690.2617,-51.3284 682.2183,-44.4324 684.2058,-54.8392 690.2617,-51.3284"/>
</g>
<!-- 3491&#45;&gt;1239 -->
<g id="edge13" class="edge">
<title>3491&#45;&gt;1239</title>
<path fill="none" stroke="#000000" d="M738.1434,-120.5319C740.0181,-121.8034 741.9437,-123.1093 743.8787,-124.4216"/>
<polygon fill="#000000" stroke="#000000" points="742.0545,-127.4135 752.2952,-130.1298 745.9836,-121.6201 742.0545,-127.4135"/>
</g>
<!-- 3491&#45;&gt;1273 -->
<g id="edge14" class="edge">
<title>3491&#45;&gt;1273</title>
<path fill="none" stroke="#000000" d="M694.1768,-117.0203C693.8532,-117.1482 693.5287,-117.2764 693.2035,-117.4049"/>
<polygon fill="#000000" stroke="#000000" points="691.7386,-114.2204 683.725,-121.151 694.3115,-120.7304 691.7386,-114.2204"/>
</g>
<!-- 3491&#45;&gt;1299 -->
<g id="edge15" class="edge">
<title>3491&#45;&gt;1299</title>
<path fill="none" stroke="#000000" d="M698.5145,-94.3441C689.9636,-88.8368 679.8427,-82.3184 670.5408,-76.3275"/>
<polygon fill="#000000" stroke="#000000" points="672.2539,-73.2677 661.9515,-70.7955 668.4636,-79.1528 672.2539,-73.2677"/>
</g>
<!-- 3491&#45;&gt;2497 -->
<g id="edge16" class="edge">
<title>3491&#45;&gt;2497</title>
<path fill="none" stroke="#000000" d="M735.0328,-92.2503C742.0863,-85.7421 750.4779,-77.9993 758.2122,-70.863"/>
<polygon fill="#000000" stroke="#000000" points="760.6774,-73.3508 765.6534,-63.9972 755.9305,-68.2061 760.6774,-73.3508"/>
</g>
<!-- 3491&#45;&gt;3320 -->
<g id="edge17" class="edge">
<title>3491&#45;&gt;3320</title>
<path fill="none" stroke="#000000" d="M717.5947,-89.0921C717.3113,-84.3477 716.999,-79.121 716.6921,-73.9827"/>
<polygon fill="#000000" stroke="#000000" points="720.1706,-73.5163 716.0804,-63.7428 713.183,-73.9338 720.1706,-73.5163"/>
</g>
<!-- 6461 -->
<g id="node26" class="node">
<title>6461</title>
<ellipse fill="none" stroke="#000000" cx="740.5096" cy="-18" rx="28.6953" ry="18"/>
<text text-anchor="middle" x="740.5096" y="-14.3" font-family="Times,serif" font-size="14.00" fill="#000000">6461</text>
</g>
<!-- 3491&#45;&gt;6461 -->
<g id="edge18" class="edge">
<title>3491&#45;&gt;6461</title>
<path fill="none" stroke="#000000" d="M723.1011,-89.2564C726.1481,-76.7844 730.2574,-59.9641 733.7184,-45.7976"/>
<polygon fill="#000000" stroke="#000000" points="737.1262,-46.5963 736.0995,-36.0513 730.3262,-44.9349 737.1262,-46.5963"/>
</g>
<!-- 7018 -->
<g id="node30" class="node">
<title>7018</title>
<ellipse fill="none" stroke="#000000" cx="805.3705" cy="-82.52" rx="28.6953" ry="18"/>
<text text-anchor="middle" x="805.3705" y="-78.82" font-family="Times,serif" font-size="14.00" fill="#000000">7018</text>
</g>
<!-- 3491&#45;&gt;7018 -->
<g id="edge19" class="edge">
<title>3491&#45;&gt;7018</title>
<path fill="none" stroke="#000000" d="M745.1641,-99.7546C752.8101,-97.5658 761.2855,-95.1397 769.4051,-92.8154"/>
<polygon fill="#000000" stroke="#000000" points="770.4023,-96.1706 779.0529,-90.0536 768.4758,-89.4409 770.4023,-96.1706"/>
</g>
<!-- 6762 -->
<g id="node27" class="node">
<title>6762</title>
<ellipse fill="none" stroke="#000000" cx="592.1489" cy="-438.8117" rx="28.6953" ry="18"/>
<text text-anchor="middle" x="592.1489" y="-435.1117" font-family="Times,serif" font-size="14.00" fill="#000000">6762</text>
</g>
<!-- 3549&#45;&gt;6762 -->
<g id="edge20" class="edge">
<title>3549&#45;&gt;6762</title>
<path fill="none" stroke="#000000" d="M558.7521,-503.0073C564.484,-491.9893 572.0227,-477.4984 578.4869,-465.0729"/>
<polygon fill="#000000" stroke="#000000" points="581.6627,-466.552 583.1729,-456.0654 575.4528,-463.3214 581.6627,-466.552"/>
</g>
<!-- 30070 -->
<g id="node42" class="node">
<title>30070</title>
<ellipse fill="none" stroke="#000000" cx="454.0318" cy="-525.5471" rx="32.4942" ry="18"/>
<text text-anchor="middle" x="454.0318" y="-521.8471" font-family="Times,serif" font-size="14.00" fill="#000000">30070</text>
</g>
<!-- 3549&#45;&gt;30070 -->
<g id="edge21" class="edge">
<title>3549&#45;&gt;30070</title>
<path fill="none" stroke="#000000" d="M521.0406,-521.8644C513.3731,-522.2858 504.9211,-522.7503 496.678,-523.2034"/>
<polygon fill="#000000" stroke="#000000" points="496.2161,-519.7234 486.4233,-523.767 496.6003,-526.7128 496.2161,-519.7234"/>
</g>
<!-- 3597 -->
<g id="node20" class="node">
<title>3597</title>
<ellipse fill="none" stroke="#000000" cx="739.6512" cy="-896.455" rx="28.6953" ry="18"/>
<text text-anchor="middle" x="739.6512" y="-892.755" font-family="Times,serif" font-size="14.00" fill="#000000">3597</text>
</g>
<!-- 37179 -->
<g id="node44" class="node">
<title>37179</title>
<ellipse fill="none" stroke="#000000" cx="110.8577" cy="-362.5846" rx="32.4942" ry="18"/>
<text text-anchor="middle" x="110.8577" y="-358.8846" font-family="Times,serif" font-size="14.00" fill="#000000">37179</text>
</g>
<!-- 3741&#45;&gt;37179 -->
<g id="edge22" class="edge">
<title>3741&#45;&gt;37179</title>
<path fill="none" stroke="#000000" d="M154.8923,-401.0397C149.1382,-396.0147 142.5808,-390.2882 136.316,-384.8172"/>
<polygon fill="#000000" stroke="#000000" points="138.454,-382.0375 128.6197,-378.096 133.8496,-387.3101 138.454,-382.0375"/>
</g>
<!-- 4637 -->
<g id="node22" class="node">
<title>4637</title>
<ellipse fill="none" stroke="#000000" cx="54.0026" cy="-550.4464" rx="28.6953" ry="18"/>
<text text-anchor="middle" x="54.0026" y="-546.7464" font-family="Times,serif" font-size="14.00" fill="#000000">4637</text>
</g>
<!-- 5692 -->
<g id="node24" class="node">
<title>5692</title>
<ellipse fill="none" stroke="#000000" cx="773.7385" cy="-813.7986" rx="28.6953" ry="18"/>
<text text-anchor="middle" x="773.7385" y="-810.0986" font-family="Times,serif" font-size="14.00" fill="#000000">5692</text>
</g>
<!-- 5692&#45;&gt;3597 -->
<g id="edge23" class="edge">
<title>5692&#45;&gt;3597</title>
<path fill="none" stroke="#000000" d="M766.5095,-831.3279C761.9449,-842.3961 755.9558,-856.919 750.7916,-869.4413"/>
<polygon fill="#000000" stroke="#000000" points="747.4467,-868.3718 746.8698,-878.9509 753.918,-871.0406 747.4467,-868.3718"/>
</g>
<!-- 10834 -->
<g id="node35" class="node">
<title>10834</title>
<ellipse fill="none" stroke="#000000" cx="697.7498" cy="-740.6644" rx="32.4942" ry="18"/>
<text text-anchor="middle" x="697.7498" y="-736.9644" font-family="Times,serif" font-size="14.00" fill="#000000">10834</text>
</g>
<!-- 5692&#45;&gt;10834 -->
<g id="edge24" class="edge">
<title>5692&#45;&gt;10834</title>
<path fill="none" stroke="#000000" d="M757.9936,-798.6452C747.4381,-788.4862 733.3451,-774.9226 721.4439,-763.4685"/>
<polygon fill="#000000" stroke="#000000" points="723.631,-760.7158 713.9988,-756.3031 718.7769,-765.7593 723.631,-760.7158"/>
</g>
<!-- 11008 -->
<g id="node36" class="node">
<title>11008</title>
<ellipse fill="none" stroke="#000000" cx="783.1667" cy="-745.7227" rx="32.4942" ry="18"/>
<text text-anchor="middle" x="783.1667" y="-742.0227" font-family="Times,serif" font-size="14.00" fill="#000000">11008</text>
</g>
<!-- 5692&#45;&gt;11008 -->
<g id="edge25" class="edge">
<title>5692&#45;&gt;11008</title>
<path fill="none" stroke="#000000" d="M776.2651,-795.5555C777.1845,-788.9167 778.2466,-781.248 779.2578,-773.9469"/>
<polygon fill="#000000" stroke="#000000" points="782.7281,-774.4018 780.6332,-764.0161 775.7943,-773.4414 782.7281,-774.4018"/>
</g>
<!-- 27865 -->
<g id="node40" class="node">
<title>27865</title>
<ellipse fill="none" stroke="#000000" cx="705.9776" cy="-879.0285" rx="32.4942" ry="18"/>
<text text-anchor="middle" x="705.9776" y="-875.3285" font-family="Times,serif" font-size="14.00" fill="#000000">27865</text>
</g>
<!-- 5692&#45;&gt;27865 -->
<g id="edge26" class="edge">
<title>5692&#45;&gt;27865</title>
<path fill="none" stroke="#000000" d="M758.0225,-828.9276C749.6315,-837.0052 739.13,-847.1145 729.7619,-856.1327"/>
<polygon fill="#000000" stroke="#000000" points="727.3308,-853.6147 722.5538,-863.0715 732.1855,-858.6578 727.3308,-853.6147"/>
</g>
<!-- 28065 -->
<g id="node41" class="node">
<title>28065</title>
<ellipse fill="none" stroke="#000000" cx="775.711" cy="-899.52" rx="32.4942" ry="18"/>
<text text-anchor="middle" x="775.711" y="-895.82" font-family="Times,serif" font-size="14.00" fill="#000000">28065</text>
</g>
<!-- 5692&#45;&gt;28065 -->
<g id="edge27" class="edge">
<title>5692&#45;&gt;28065</title>
<path fill="none" stroke="#000000" d="M774.1568,-831.9779C774.4183,-843.3429 774.7607,-858.2201 775.0575,-871.1183"/>
<polygon fill="#000000" stroke="#000000" points="771.5641,-871.4501 775.2933,-881.3669 778.5622,-871.289 771.5641,-871.4501"/>
</g>
<!-- 52317 -->
<g id="node45" class="node">
<title>52317</title>
<ellipse fill="none" stroke="#000000" cx="836.4071" cy="-803.9972" rx="32.4942" ry="18"/>
<text text-anchor="middle" x="836.4071" y="-800.2972" font-family="Times,serif" font-size="14.00" fill="#000000">52317</text>
</g>
<!-- 5692&#45;&gt;52317 -->
<g id="edge28" class="edge">
<title>5692&#45;&gt;52317</title>
<path fill="none" stroke="#000000" d="M801.7735,-809.414C801.9038,-809.3936 802.0342,-809.3732 802.1647,-809.3528"/>
<polygon fill="#000000" stroke="#000000" points="795.5732,-813.9265 804.9121,-808.9231 794.4913,-807.0106 795.5732,-813.9265"/>
</g>
<!-- 52375 -->
<g id="node46" class="node">
<title>52375</title>
<ellipse fill="none" stroke="#000000" cx="725.2721" cy="-797.1634" rx="32.4942" ry="18"/>
<text text-anchor="middle" x="725.2721" y="-793.4634" font-family="Times,serif" font-size="14.00" fill="#000000">52375</text>
</g>
<!-- 5692&#45;&gt;52375 -->
<g id="edge29" class="edge">
<title>5692&#45;&gt;52375</title>
<path fill="none" stroke="#000000" d="M748.3698,-805.0913C748.324,-805.0755 748.2782,-805.0598 748.2324,-805.0441"/>
<polygon fill="#000000" stroke="#000000" points="758.6916,-804.9375 748.095,-804.997 756.4159,-811.5586 758.6916,-804.9375"/>
</g>
<!-- 52376 -->
<g id="node47" class="node">
<title>52376</title>
<ellipse fill="none" stroke="#000000" cx="856.6014" cy="-767.0135" rx="32.4942" ry="18"/>
<text text-anchor="middle" x="856.6014" y="-763.3135" font-family="Times,serif" font-size="14.00" fill="#000000">52376</text>
</g>
<!-- 5692&#45;&gt;52376 -->
<g id="edge30" class="edge">
<title>5692&#45;&gt;52376</title>
<path fill="none" stroke="#000000" d="M795.0778,-801.7503C804.1093,-796.651 814.8216,-790.6028 824.7559,-784.9938"/>
<polygon fill="#000000" stroke="#000000" points="826.6029,-787.9703 833.59,-780.006 823.1612,-781.8748 826.6029,-787.9703"/>
</g>
<!-- 52380 -->
<g id="node48" class="node">
<title>52380</title>
<ellipse fill="none" stroke="#000000" cx="823.0878" cy="-742.1224" rx="32.4942" ry="18"/>
<text text-anchor="middle" x="823.0878" y="-738.4224" font-family="Times,serif" font-size="14.00" fill="#000000">52380</text>
</g>
<!-- 5692&#45;&gt;52380 -->
<g id="edge31" class="edge">
<title>5692&#45;&gt;52380</title>
<path fill="none" stroke="#000000" d="M785.1843,-797.1745C791.2624,-788.3464 798.8611,-777.31 805.6557,-767.4412"/>
<polygon fill="#000000" stroke="#000000" points="808.5733,-769.3755 811.3614,-759.1541 802.8077,-765.4058 808.5733,-769.3755"/>
</g>
<!-- 52413 -->
<g id="node49" class="node">
<title>52413</title>
<ellipse fill="none" stroke="#000000" cx="841.2411" cy="-864.3266" rx="32.4942" ry="18"/>
<text text-anchor="middle" x="841.2411" y="-860.6266" font-family="Times,serif" font-size="14.00" fill="#000000">52413</text>
</g>
<!-- 5692&#45;&gt;52413 -->
<g id="edge32" class="edge">
<title>5692&#45;&gt;52413</title>
<path fill="none" stroke="#000000" d="M792.1839,-827.6056C798.8053,-832.562 806.4239,-838.2647 813.6521,-843.6753"/>
<polygon fill="#000000" stroke="#000000" points="811.7719,-846.6398 821.875,-849.8304 815.9667,-841.0359 811.7719,-846.6398"/>
</g>
<!-- 52431 -->
<g id="node50" class="node">
<title>52431</title>
<ellipse fill="none" stroke="#000000" cx="866.8491" cy="-825.2421" rx="32.4942" ry="18"/>
<text text-anchor="middle" x="866.8491" y="-821.5421" font-family="Times,serif" font-size="14.00" fill="#000000">52431</text>
</g>
<!-- 5692&#45;&gt;52431 -->
<g id="edge33" class="edge">
<title>5692&#45;&gt;52431</title>
<path fill="none" stroke="#000000" d="M801.9274,-817.2631C809.1475,-818.1505 817.0694,-819.1241 824.8222,-820.0769"/>
<polygon fill="#000000" stroke="#000000" points="824.4911,-823.5625 834.8434,-821.3085 825.345,-816.6147 824.4911,-823.5625"/>
</g>
<!-- 262230 -->
<g id="node51" class="node">
<title>262230</title>
<ellipse fill="none" stroke="#000000" cx="704.2056" cy="-842.7356" rx="37.0935" ry="18"/>
<text text-anchor="middle" x="704.2056" y="-839.0356" font-family="Times,serif" font-size="14.00" fill="#000000">262230</text>
</g>
<!-- 5692&#45;&gt;262230 -->
<g id="edge34" class="edge">
<title>5692&#45;&gt;262230</title>
<path fill="none" stroke="#000000" d="M749.8092,-823.7571C747.3171,-824.7942 744.7425,-825.8657 742.1441,-826.947"/>
<polygon fill="#000000" stroke="#000000" points="740.6226,-823.7891 732.735,-830.8627 743.3122,-830.2518 740.6226,-823.7891"/>
</g>
<!-- 264608 -->
<g id="node52" class="node">
<title>264608</title>
<ellipse fill="none" stroke="#000000" cx="810.8801" cy="-887.9709" rx="37.0935" ry="18"/>
<text text-anchor="middle" x="810.8801" y="-884.2709" font-family="Times,serif" font-size="14.00" fill="#000000">264608</text>
</g>
<!-- 5692&#45;&gt;264608 -->
<g id="edge35" class="edge">
<title>5692&#45;&gt;264608</title>
<path fill="none" stroke="#000000" d="M782.3529,-831.0017C786.8351,-839.9526 792.4158,-851.0974 797.4496,-861.15"/>
<polygon fill="#000000" stroke="#000000" points="794.4474,-862.9716 802.0545,-870.3461 800.7066,-859.8373 794.4474,-862.9716"/>
</g>
<!-- 6453&#45;&gt;2828 -->
<g id="edge36" class="edge">
<title>6453&#45;&gt;2828</title>
<path fill="none" stroke="#000000" d="M695.8856,-296.9758C701.4229,-299.7131 707.4429,-302.6889 713.3144,-305.5915"/>
<polygon fill="#000000" stroke="#000000" points="711.8129,-308.7535 722.3284,-310.0474 714.915,-302.4783 711.8129,-308.7535"/>
</g>
<!-- 6453&#45;&gt;3257 -->
<g id="edge37" class="edge">
<title>6453&#45;&gt;3257</title>
<path fill="none" stroke="#000000" d="M680.5276,-268.0404C685.1105,-257.2874 691.0593,-243.3292 696.2167,-231.2283"/>
<polygon fill="#000000" stroke="#000000" points="699.4408,-232.5901 700.1418,-222.0184 693.0013,-229.8455 699.4408,-232.5901"/>
</g>
<!-- 6762&#45;&gt;2914 -->
<g id="edge38" class="edge">
<title>6762&#45;&gt;2914</title>
<path fill="none" stroke="#000000" d="M599.9864,-421.1171C604.5902,-410.7232 610.5,-397.3809 615.6584,-385.7348"/>
<polygon fill="#000000" stroke="#000000" points="618.9198,-387.0137 619.7696,-376.453 612.5196,-384.1788 618.9198,-387.0137"/>
</g>
<!-- 6904 -->
<g id="node28" class="node">
<title>6904</title>
<ellipse fill="none" stroke="#000000" cx="360.5164" cy="-543.8795" rx="28.6953" ry="18"/>
<text text-anchor="middle" x="360.5164" y="-540.1795" font-family="Times,serif" font-size="14.00" fill="#000000">6904</text>
</g>
<!-- 6904&#45;&gt;2687 -->
<g id="edge39" class="edge">
<title>6904&#45;&gt;2687</title>
<path fill="none" stroke="#000000" d="M332.2167,-547.5056C324.8862,-548.4449 316.8721,-549.4718 309.1306,-550.4637"/>
<polygon fill="#000000" stroke="#000000" points="308.6651,-546.9946 299.191,-551.7373 309.5548,-553.9379 308.6651,-546.9946"/>
</g>
<!-- 7016 -->
<g id="node29" class="node">
<title>7016</title>
<ellipse fill="none" stroke="#000000" cx="430.3724" cy="-460.1734" rx="28.6953" ry="18"/>
<text text-anchor="middle" x="430.3724" y="-456.4734" font-family="Times,serif" font-size="14.00" fill="#000000">7016</text>
</g>
<!-- 7922 -->
<g id="node33" class="node">
<title>7922</title>
<ellipse fill="none" stroke="#000000" cx="391.7963" cy="-393.9585" rx="28.6953" ry="18"/>
<text text-anchor="middle" x="391.7963" y="-390.2585" font-family="Times,serif" font-size="14.00" fill="#000000">7922</text>
</g>
<!-- 7016&#45;&gt;7922 -->
<g id="edge40" class="edge">
<title>7016&#45;&gt;7922</title>
<path fill="none" stroke="#000000" d="M420.4381,-443.1214C416.3305,-436.0709 411.4761,-427.7385 406.9423,-419.9561"/>
<polygon fill="#000000" stroke="#000000" points="409.8892,-418.0615 401.831,-411.1828 403.8408,-421.5853 409.8892,-418.0615"/>
</g>
<!-- 7473 -->
<g id="node31" class="node">
<title>7473</title>
<ellipse fill="none" stroke="#000000" cx="246.4455" cy="-716.6101" rx="28.6953" ry="18"/>
<text text-anchor="middle" x="246.4455" y="-712.9101" font-family="Times,serif" font-size="14.00" fill="#000000">7473</text>
</g>
<!-- 7474 -->
<g id="node32" class="node">
<title>7474</title>
<ellipse fill="none" stroke="#000000" cx="99.7165" cy="-701.4961" rx="28.6953" ry="18"/>
<text text-anchor="middle" x="99.7165" y="-697.7961" font-family="Times,serif" font-size="14.00" fill="#000000">7474</text>
</g>
<!-- 9505&#45;&gt;7473 -->
<g id="edge41" class="edge">
<title>9505&#45;&gt;7473</title>
<path fill="none" stroke="#000000" d="M263.5484,-654.3369C260.7788,-664.4211 257.25,-677.2698 254.1179,-688.674"/>
<polygon fill="#000000" stroke="#000000" points="250.6596,-688.0506 251.3862,-698.6205 257.4097,-689.9045 250.6596,-688.0506"/>
</g>
<!-- 12956 -->
<g id="node37" class="node">
<title>12956</title>
<ellipse fill="none" stroke="#000000" cx="656.0702" cy="-662.91" rx="32.4942" ry="18"/>
<text text-anchor="middle" x="656.0702" y="-659.21" font-family="Times,serif" font-size="14.00" fill="#000000">12956</text>
</g>
<!-- 10834&#45;&gt;12956 -->
<g id="edge42" class="edge">
<title>10834&#45;&gt;12956</title>
<path fill="none" stroke="#000000" d="M688.4997,-723.4082C683.1411,-713.4115 676.2834,-700.6183 670.2555,-689.3732"/>
<polygon fill="#000000" stroke="#000000" points="673.2477,-687.5469 665.4385,-680.3869 667.0782,-690.8541 673.2477,-687.5469"/>
</g>
<!-- 22927 -->
<g id="node39" class="node">
<title>22927</title>
<ellipse fill="none" stroke="#000000" cx="623.8735" cy="-784.368" rx="32.4942" ry="18"/>
<text text-anchor="middle" x="623.8735" y="-780.668" font-family="Times,serif" font-size="14.00" fill="#000000">22927</text>
</g>
<!-- 10834&#45;&gt;22927 -->
<g id="edge43" class="edge">
<title>10834&#45;&gt;22927</title>
<path fill="none" stroke="#000000" d="M675.183,-754.0144C668.8817,-757.7421 661.9194,-761.8609 655.2096,-765.8303"/>
<polygon fill="#000000" stroke="#000000" points="653.1267,-762.9958 646.3021,-771.0998 656.6909,-769.0206 653.1267,-762.9958"/>
</g>
<!-- 12956&#45;&gt;3356 -->
<g id="edge44" class="edge">
<title>12956&#45;&gt;3356</title>
<path fill="none" stroke="#000000" d="M643.7465,-645.9024C637.6183,-637.445 630.0919,-627.0579 623.3184,-617.71"/>
<polygon fill="#000000" stroke="#000000" points="626.0731,-615.5466 617.3713,-609.5026 620.4047,-619.6539 626.0731,-615.5466"/>
</g>
<!-- 18540 -->
<g id="node38" class="node">
<title>18540</title>
<ellipse fill="none" stroke="#000000" cx="446.968" cy="-588.4027" rx="32.4942" ry="18"/>
<text text-anchor="middle" x="446.968" y="-584.7027" font-family="Times,serif" font-size="14.00" fill="#000000">18540</text>
</g>
<!-- 30070&#45;&gt;6904 -->
<g id="edge45" class="edge">
<title>30070&#45;&gt;6904</title>
<path fill="none" stroke="#000000" d="M423.1522,-531.6006C415.0581,-533.1874 406.2437,-534.9153 397.8518,-536.5604"/>
<polygon fill="#000000" stroke="#000000" points="397.0417,-533.1525 387.9019,-538.511 398.3884,-540.0218 397.0417,-533.1525"/>
</g>
<!-- 30070&#45;&gt;7016 -->
<g id="edge46" class="edge">
<title>30070&#45;&gt;7016</title>
<path fill="none" stroke="#000000" d="M447.5667,-507.6835C445.3238,-501.4859 442.7544,-494.3863 440.2975,-487.5977"/>
<polygon fill="#000000" stroke="#000000" points="443.5238,-486.2275 436.8296,-478.0155 436.9416,-488.6097 443.5238,-486.2275"/>
</g>
<!-- 30070&#45;&gt;18540 -->
<g id="edge47" class="edge">
<title>30070&#45;&gt;18540</title>
<path fill="none" stroke="#000000" d="M451.9886,-543.7276C451.4225,-548.7651 450.7939,-554.3583 450.1785,-559.8348"/>
<polygon fill="#000000" stroke="#000000" points="446.6697,-559.7171 449.031,-570.0454 453.626,-560.4989 446.6697,-559.7171"/>
</g>
<!-- 32787&#45;&gt;703 -->
<g id="edge48" class="edge">
<title>32787&#45;&gt;703</title>
<path fill="none" stroke="#000000" d="M91.8053,-631.4065C85.8526,-636.8234 79.0577,-643.0067 72.6535,-648.8346"/>
<polygon fill="#000000" stroke="#000000" points="69.8835,-646.6229 64.8431,-655.942 74.5948,-651.8002 69.8835,-646.6229"/>
</g>
<!-- 32787&#45;&gt;2764 -->
<g id="edge49" class="edge">
<title>32787&#45;&gt;2764</title>
<path fill="none" stroke="#000000" d="M77.1402,-611.5237C73.7661,-611.0599 70.3089,-610.5848 66.87,-610.1121"/>
<polygon fill="#000000" stroke="#000000" points="67.0928,-606.6099 56.7094,-608.7157 66.1397,-613.5448 67.0928,-606.6099"/>
</g>
<!-- 32787&#45;&gt;4637 -->
<g id="edge50" class="edge">
<title>32787&#45;&gt;4637</title>
<path fill="none" stroke="#000000" d="M95.0197,-599.371C88.7348,-591.8744 81.1766,-582.8592 74.27,-574.6211"/>
<polygon fill="#000000" stroke="#000000" points="76.7586,-572.1416 67.6518,-566.727 71.3943,-576.6388 76.7586,-572.1416"/>
</g>
<!-- 32787&#45;&gt;7474 -->
<g id="edge51" class="edge">
<title>32787&#45;&gt;7474</title>
<path fill="none" stroke="#000000" d="M106.9236,-634.0398C105.7109,-645.3904 104.1235,-660.2486 102.7471,-673.1305"/>
<polygon fill="#000000" stroke="#000000" points="99.2358,-673.0508 101.6536,-683.366 106.1962,-673.7945 99.2358,-673.0508"/>
</g>
</g>
</svg>
