<?xml version="1.0" encoding="UTF-8" standalone="no"?>
<!DOCTYPE svg PUBLIC "-//W3C//DTD SVG 1.1//EN"
 "http://www.w3.org/Graphics/SVG/1.1/DTD/svg11.dtd">
<!-- Generated by graphviz version 2.40.1 (20161225.0304)
 -->
<!-- Title: %3 Pages: 1 -->
<svg width="1055pt" height="835pt"
 viewBox="0.00 0.00 1055.08 835.10" xmlns="http://www.w3.org/2000/svg" xmlns:xlink="http://www.w3.org/1999/xlink">
<g id="graph0" class="graph" transform="scale(1 1) rotate(0) translate(4 831.1029)">
<title>%3</title>
<polygon fill="#ffffff" stroke="transparent" points="-4,4 -4,-831.1029 1051.0816,-831.1029 1051.0816,4 -4,4"/>
<!-- 174 -->
<g id="node1" class="node">
<title>174</title>
<ellipse fill="none" stroke="#000000" cx="1020.0816" cy="-447.667" rx="27" ry="18"/>
<text text-anchor="middle" x="1020.0816" y="-443.967" font-family="Times,serif" font-size="14.00" fill="#000000">174</text>
</g>
<!-- 209 -->
<g id="node2" class="node">
<title>209</title>
<ellipse fill="none" stroke="#000000" cx="984.4702" cy="-536.62" rx="27" ry="18"/>
<text text-anchor="middle" x="984.4702" y="-532.92" font-family="Times,serif" font-size="14.00" fill="#000000">209</text>
</g>
<!-- 701 -->
<g id="node3" class="node">
<title>701</title>
<ellipse fill="none" stroke="#000000" cx="932.6679" cy="-617.2259" rx="27" ry="18"/>
<text text-anchor="middle" x="932.6679" y="-613.5259" font-family="Times,serif" font-size="14.00" fill="#000000">701</text>
</g>
<!-- 703 -->
<g id="node4" class="node">
<title>703</title>
<ellipse fill="none" stroke="#000000" cx="171.7352" cy="-653.4736" rx="27" ry="18"/>
<text text-anchor="middle" x="171.7352" y="-649.7736" font-family="Times,serif" font-size="14.00" fill="#000000">703</text>
</g>
<!-- 1239 -->
<g id="node5" class="node">
<title>1239</title>
<ellipse fill="none" stroke="#000000" cx="866.5469" cy="-686.5716" rx="28.6953" ry="18"/>
<text text-anchor="middle" x="866.5469" y="-682.8716" font-family="Times,serif" font-size="14.00" fill="#000000">1239</text>
</g>
<!-- 1273 -->
<g id="node6" class="node">
<title>1273</title>
<ellipse fill="none" stroke="#000000" cx="788.4971" cy="-742.1506" rx="28.6953" ry="18"/>
<text text-anchor="middle" x="788.4971" y="-738.4506" font-family="Times,serif" font-size="14.00" fill="#000000">1273</text>
</g>
<!-- 1299 -->
<g id="node7" class="node">
<title>1299</title>
<ellipse fill="none" stroke="#000000" cx="701.3394" cy="-781.9542" rx="28.6953" ry="18"/>
<text text-anchor="middle" x="701.3394" y="-778.2542" font-family="Times,serif" font-size="14.00" fill="#000000">1299</text>
</g>
<!-- 2497 -->
<g id="node8" class="node">
<title>2497</title>
<ellipse fill="none" stroke="#000000" cx="608.2238" cy="-804.5438" rx="28.6953" ry="18"/>
<text text-anchor="middle" x="608.2238" y="-800.8438" font-family="Times,serif" font-size="14.00" fill="#000000">2497</text>
</g>
<!-- 2516 -->
<g id="node9" class="node">
<title>2516</title>
<ellipse fill="none" stroke="#000000" cx="216.5164" cy="-470.6353" rx="28.6953" ry="18"/>
<text text-anchor="middle" x="216.5164" y="-466.9353" font-family="Times,serif" font-size="14.00" fill="#000000">2516</text>
</g>
<!-- 32787 -->
<g id="node43" class="node">
<title>32787</title>
<ellipse fill="none" stroke="#000000" cx="152.5202" cy="-503.6277" rx="32.4942" ry="18"/>
<text text-anchor="middle" x="152.5202" y="-499.9277" font-family="Times,serif" font-size="14.00" fill="#000000">32787</text>
</g>
<!-- 2516&#45;&gt;32787 -->
<g id="edge1" class="edge">
<title>2516&#45;&gt;32787</title>
<path fill="none" stroke="#000000" d="M194.1336,-482.1745C191.41,-483.5786 188.584,-485.0355 185.745,-486.4991"/>
<polygon fill="#000000" stroke="#000000" points="184.0275,-483.4467 176.7429,-491.14 187.2351,-489.6686 184.0275,-483.4467"/>
</g>
<!-- 2686 -->
<g id="node10" class="node">
<title>2686</title>
<ellipse fill="none" stroke="#000000" cx="176.4971" cy="-305.6738" rx="28.6953" ry="18"/>
<text text-anchor="middle" x="176.4971" y="-301.9738" font-family="Times,serif" font-size="14.00" fill="#000000">2686</text>
</g>
<!-- 3741 -->
<g id="node21" class="node">
<title>3741</title>
<ellipse fill="none" stroke="#000000" cx="104.4971" cy="-305.6738" rx="28.6953" ry="18"/>
<text text-anchor="middle" x="104.4971" y="-301.9738" font-family="Times,serif" font-size="14.00" fill="#000000">3741</text>
</g>
<!-- 2686&#45;&gt;3741 -->
<g id="edge2" class="edge">
<title>2686&#45;&gt;3741</title>
<path fill="none" stroke="#000000" d="M147.6268,-305.6738C146.3064,-305.6738 144.9727,-305.6738 143.6331,-305.6738"/>
<polygon fill="#000000" stroke="#000000" points="143.3739,-302.1739 133.3739,-305.6738 143.3739,-309.1739 143.3739,-302.1739"/>
</g>
<!-- 2687 -->
<g id="node11" class="node">
<title>2687</title>
<ellipse fill="none" stroke="#000000" cx="260.1631" cy="-386.8128" rx="28.6953" ry="18"/>
<text text-anchor="middle" x="260.1631" y="-383.1128" font-family="Times,serif" font-size="14.00" fill="#000000">2687</text>
</g>
<!-- 2687&#45;&gt;2516 -->
<g id="edge3" class="edge">
<title>2687&#45;&gt;2516</title>
<path fill="none" stroke="#000000" d="M251.1195,-404.1809C245.0917,-415.7571 237.0555,-431.1905 230.2448,-444.2702"/>
<polygon fill="#000000" stroke="#000000" points="227.0625,-442.8034 225.5484,-453.2895 233.2713,-446.0364 227.0625,-442.8034"/>
</g>
<!-- 2687&#45;&gt;2686 -->
<g id="edge4" class="edge">
<title>2687&#45;&gt;2686</title>
<path fill="none" stroke="#000000" d="M244.4262,-371.5511C231.8053,-359.3114 213.9079,-341.9546 199.6521,-328.1294"/>
<polygon fill="#000000" stroke="#000000" points="201.7788,-325.3163 192.1635,-320.867 196.9055,-330.3414 201.7788,-325.3163"/>
</g>
<!-- 9505 -->
<g id="node34" class="node">
<title>9505</title>
<ellipse fill="none" stroke="#000000" cx="183.0028" cy="-237.5433" rx="28.6953" ry="18"/>
<text text-anchor="middle" x="183.0028" y="-233.8433" font-family="Times,serif" font-size="14.00" fill="#000000">9505</text>
</g>
<!-- 2687&#45;&gt;9505 -->
<g id="edge5" class="edge">
<title>2687&#45;&gt;9505</title>
<path fill="none" stroke="#000000" d="M251.3119,-369.6897C237.9529,-343.8462 212.5272,-294.6594 196.7459,-264.1299"/>
<polygon fill="#000000" stroke="#000000" points="199.6897,-262.2027 191.9885,-254.9265 193.4714,-265.4171 199.6897,-262.2027"/>
</g>
<!-- 2764 -->
<g id="node12" class="node">
<title>2764</title>
<ellipse fill="none" stroke="#000000" cx="112.5053" cy="-578.1568" rx="28.6953" ry="18"/>
<text text-anchor="middle" x="112.5053" y="-574.4568" font-family="Times,serif" font-size="14.00" fill="#000000">2764</text>
</g>
<!-- 2828 -->
<g id="node13" class="node">
<title>2828</title>
<ellipse fill="none" stroke="#000000" cx="894.867" cy="-339.894" rx="28.6953" ry="18"/>
<text text-anchor="middle" x="894.867" y="-336.194" font-family="Times,serif" font-size="14.00" fill="#000000">2828</text>
</g>
<!-- 2914 -->
<g id="node14" class="node">
<title>2914</title>
<ellipse fill="none" stroke="#000000" cx="626.2268" cy="-502.1543" rx="28.6953" ry="18"/>
<text text-anchor="middle" x="626.2268" y="-498.4543" font-family="Times,serif" font-size="14.00" fill="#000000">2914</text>
</g>
<!-- 6453 -->
<g id="node25" class="node">
<title>6453</title>
<ellipse fill="none" stroke="#000000" cx="656.1366" cy="-567.6478" rx="28.6953" ry="18"/>
<text text-anchor="middle" x="656.1366" y="-563.9478" font-family="Times,serif" font-size="14.00" fill="#000000">6453</text>
</g>
<!-- 2914&#45;&gt;6453 -->
<g id="edge6" class="edge">
<title>2914&#45;&gt;6453</title>
<path fill="none" stroke="#000000" d="M634.2421,-519.7054C637.1924,-526.1657 640.6057,-533.6399 643.8466,-540.7363"/>
<polygon fill="#000000" stroke="#000000" points="640.7613,-542.4059 648.0992,-550.0483 647.1287,-539.498 640.7613,-542.4059"/>
</g>
<!-- 3257 -->
<g id="node15" class="node">
<title>3257</title>
<ellipse fill="none" stroke="#000000" cx="654.2416" cy="-645.8741" rx="28.6953" ry="18"/>
<text text-anchor="middle" x="654.2416" y="-642.1741" font-family="Times,serif" font-size="14.00" fill="#000000">3257</text>
</g>
<!-- 3491 -->
<g id="node18" class="node">
<title>3491</title>
<ellipse fill="none" stroke="#000000" cx="715.9564" cy="-698.6348" rx="28.6953" ry="18"/>
<text text-anchor="middle" x="715.9564" y="-694.9348" font-family="Times,serif" font-size="14.00" fill="#000000">3491</text>
</g>
<!-- 3257&#45;&gt;3491 -->
<g id="edge7" class="edge">
<title>3257&#45;&gt;3491</title>
<path fill="none" stroke="#000000" d="M671.4326,-660.5709C677.4512,-665.7163 684.3391,-671.6048 690.8694,-677.1876"/>
<polygon fill="#000000" stroke="#000000" points="688.9823,-680.179 698.8576,-684.0168 693.531,-674.8583 688.9823,-680.179"/>
</g>
<!-- 5511 -->
<g id="node23" class="node">
<title>5511</title>
<ellipse fill="none" stroke="#000000" cx="285.9125" cy="-657.5706" rx="28.6953" ry="18"/>
<text text-anchor="middle" x="285.9125" y="-653.8706" font-family="Times,serif" font-size="14.00" fill="#000000">5511</text>
</g>
<!-- 3257&#45;&gt;5511 -->
<g id="edge8" class="edge">
<title>3257&#45;&gt;5511</title>
<path fill="none" stroke="#000000" d="M625.6459,-646.7822C560.1582,-648.8618 399.2388,-653.9719 324.8204,-656.3351"/>
<polygon fill="#000000" stroke="#000000" points="324.3738,-652.8474 314.49,-656.6631 324.5961,-659.8439 324.3738,-652.8474"/>
</g>
<!-- 3320 -->
<g id="node16" class="node">
<title>3320</title>
<ellipse fill="none" stroke="#000000" cx="512.5158" cy="-809.1029" rx="28.6953" ry="18"/>
<text text-anchor="middle" x="512.5158" y="-805.4029" font-family="Times,serif" font-size="14.00" fill="#000000">3320</text>
</g>
<!-- 3356 -->
<g id="node17" class="node">
<title>3356</title>
<ellipse fill="none" stroke="#000000" cx="536.4971" cy="-305.6738" rx="28.6953" ry="18"/>
<text text-anchor="middle" x="536.4971" y="-301.9738" font-family="Times,serif" font-size="14.00" fill="#000000">3356</text>
</g>
<!-- 3549 -->
<g id="node19" class="node">
<title>3549</title>
<ellipse fill="none" stroke="#000000" cx="512.9482" cy="-373.7139" rx="28.6953" ry="18"/>
<text text-anchor="middle" x="512.9482" y="-370.0139" font-family="Times,serif" font-size="14.00" fill="#000000">3549</text>
</g>
<!-- 3356&#45;&gt;3549 -->
<g id="edge9" class="edge">
<title>3356&#45;&gt;3549</title>
<path fill="none" stroke="#000000" d="M530.3099,-323.5505C527.9222,-330.4494 525.1354,-338.5014 522.5023,-346.1092"/>
<polygon fill="#000000" stroke="#000000" points="519.1391,-345.1255 519.1759,-355.7203 525.7541,-347.415 519.1391,-345.1255"/>
</g>
<!-- 3491&#45;&gt;174 -->
<g id="edge10" class="edge">
<title>3491&#45;&gt;174</title>
<path fill="none" stroke="#000000" d="M733.622,-684.057C785.0802,-641.593 934.9915,-517.8843 994.9085,-468.4401"/>
<polygon fill="#000000" stroke="#000000" points="997.2609,-471.0367 1002.7462,-461.9724 992.8056,-465.6377 997.2609,-471.0367"/>
</g>
<!-- 3491&#45;&gt;209 -->
<g id="edge11" class="edge">
<title>3491&#45;&gt;209</title>
<path fill="none" stroke="#000000" d="M737.0262,-685.9218C784.7096,-657.1508 900.9668,-587.0039 955.427,-554.144"/>
<polygon fill="#000000" stroke="#000000" points="957.479,-556.9936 964.233,-548.8306 953.8627,-551.0001 957.479,-556.9936"/>
</g>
<!-- 3491&#45;&gt;701 -->
<g id="edge12" class="edge">
<title>3491&#45;&gt;701</title>
<path fill="none" stroke="#000000" d="M740.816,-689.2962C779.9074,-674.6113 855.7873,-646.1065 899.4914,-629.6889"/>
<polygon fill="#000000" stroke="#000000" points="900.9556,-632.8777 909.086,-626.0846 898.4939,-626.3248 900.9556,-632.8777"/>
</g>
<!-- 3491&#45;&gt;1239 -->
<g id="edge13" class="edge">
<title>3491&#45;&gt;1239</title>
<path fill="none" stroke="#000000" d="M744.6358,-696.3374C768.1868,-694.4508 801.7689,-691.7607 827.7259,-689.6814"/>
<polygon fill="#000000" stroke="#000000" points="828.2858,-693.1478 837.9743,-688.8604 827.7267,-686.1702 828.2858,-693.1478"/>
</g>
<!-- 3491&#45;&gt;1273 -->
<g id="edge14" class="edge">
<title>3491&#45;&gt;1273</title>
<path fill="none" stroke="#000000" d="M736.9382,-711.2214C743.7051,-715.2807 751.3411,-719.8614 758.622,-724.2291"/>
<polygon fill="#000000" stroke="#000000" points="757.1866,-727.4495 767.5625,-729.5923 760.7876,-721.4467 757.1866,-727.4495"/>
</g>
<!-- 3491&#45;&gt;1299 -->
<g id="edge15" class="edge">
<title>3491&#45;&gt;1299</title>
<path fill="none" stroke="#000000" d="M712.7847,-716.7139C710.8884,-727.523 708.4381,-741.4901 706.2915,-753.7261"/>
<polygon fill="#000000" stroke="#000000" points="702.7855,-753.456 704.5049,-763.9104 709.6802,-754.6657 702.7855,-753.456"/>
</g>
<!-- 3491&#45;&gt;2497 -->
<g id="edge16" class="edge">
<title>3491&#45;&gt;2497</title>
<path fill="none" stroke="#000000" d="M700.5209,-713.809C682.3846,-731.6383 652.1204,-761.3903 631.2183,-781.9385"/>
<polygon fill="#000000" stroke="#000000" points="628.6585,-779.547 623.981,-789.0534 633.5658,-784.5388 628.6585,-779.547"/>
</g>
<!-- 3491&#45;&gt;3320 -->
<g id="edge17" class="edge">
<title>3491&#45;&gt;3320</title>
<path fill="none" stroke="#000000" d="M694.1847,-710.4568C657.8766,-730.1721 584.8567,-769.8219 543.2983,-792.388"/>
<polygon fill="#000000" stroke="#000000" points="541.5563,-789.3512 534.4385,-797.1989 544.8967,-795.5028 541.5563,-789.3512"/>
</g>
<!-- 6461 -->
<g id="node26" class="node">
<title>6461</title>
<ellipse fill="none" stroke="#000000" cx="417.6746" cy="-795.4668" rx="28.6953" ry="18"/>
<text text-anchor="middle" x="417.6746" y="-791.7668" font-family="Times,serif" font-size="14.00" fill="#000000">6461</text>
</g>
<!-- 3491&#45;&gt;6461 -->
<g id="edge18" class="edge">
<title>3491&#45;&gt;6461</title>
<path fill="none" stroke="#000000" d="M690.5251,-706.8907C637.2765,-724.1769 513.9569,-764.2105 453.0366,-783.9872"/>
<polygon fill="#000000" stroke="#000000" points="451.8959,-780.6776 443.4653,-787.0943 454.0573,-787.3356 451.8959,-780.6776"/>
</g>
<!-- 7018 -->
<g id="node30" class="node">
<title>7018</title>
<ellipse fill="none" stroke="#000000" cx="327.1279" cy="-764.1283" rx="28.6953" ry="18"/>
<text text-anchor="middle" x="327.1279" y="-760.4283" font-family="Times,serif" font-size="14.00" fill="#000000">7018</text>
</g>
<!-- 3491&#45;&gt;7018 -->
<g id="edge19" class="edge">
<title>3491&#45;&gt;7018</title>
<path fill="none" stroke="#000000" d="M688.3045,-703.2924C619.8945,-714.8153 442.6477,-744.6704 364.769,-757.7881"/>
<polygon fill="#000000" stroke="#000000" points="364.1787,-754.3382 354.899,-759.4506 365.3414,-761.2409 364.1787,-754.3382"/>
</g>
<!-- 6762 -->
<g id="node27" class="node">
<title>6762</title>
<ellipse fill="none" stroke="#000000" cx="596.3169" cy="-436.6608" rx="28.6953" ry="18"/>
<text text-anchor="middle" x="596.3169" y="-432.9608" font-family="Times,serif" font-size="14.00" fill="#000000">6762</text>
</g>
<!-- 3549&#45;&gt;6762 -->
<g id="edge20" class="edge">
<title>3549&#45;&gt;6762</title>
<path fill="none" stroke="#000000" d="M531.4504,-387.6838C542.6756,-396.1593 557.1894,-407.1179 569.6412,-416.5195"/>
<polygon fill="#000000" stroke="#000000" points="567.7767,-419.4973 577.8664,-422.7299 571.9948,-413.9109 567.7767,-419.4973"/>
</g>
<!-- 30070 -->
<g id="node42" class="node">
<title>30070</title>
<ellipse fill="none" stroke="#000000" cx="393.1492" cy="-319.3619" rx="32.4942" ry="18"/>
<text text-anchor="middle" x="393.1492" y="-315.6619" font-family="Times,serif" font-size="14.00" fill="#000000">30070</text>
</g>
<!-- 3549&#45;&gt;30070 -->
<g id="edge21" class="edge">
<title>3549&#45;&gt;30070</title>
<path fill="none" stroke="#000000" d="M489.5654,-363.1052C472.0101,-355.1405 447.6878,-344.1057 427.8646,-335.112"/>
<polygon fill="#000000" stroke="#000000" points="429.0967,-331.8277 418.544,-330.8833 426.2045,-338.2023 429.0967,-331.8277"/>
</g>
<!-- 3597 -->
<g id="node20" class="node">
<title>3597</title>
<ellipse fill="none" stroke="#000000" cx="369.4407" cy="-71.0759" rx="28.6953" ry="18"/>
<text text-anchor="middle" x="369.4407" y="-67.3759" font-family="Times,serif" font-size="14.00" fill="#000000">3597</text>
</g>
<!-- 37179 -->
<g id="node44" class="node">
<title>37179</title>
<ellipse fill="none" stroke="#000000" cx="32.4971" cy="-305.6738" rx="32.4942" ry="18"/>
<text text-anchor="middle" x="32.4971" y="-301.9738" font-family="Times,serif" font-size="14.00" fill="#000000">37179</text>
</g>
<!-- 3741&#45;&gt;37179 -->
<g id="edge22" class="edge">
<title>3741&#45;&gt;37179</title>
<path fill="none" stroke="#000000" d="M75.6268,-305.6738C75.5192,-305.6738 75.4116,-305.6738 75.3038,-305.6738"/>
<polygon fill="#000000" stroke="#000000" points="75.1594,-302.1739 65.1593,-305.6738 75.1593,-309.1739 75.1594,-302.1739"/>
</g>
<!-- 4637 -->
<g id="node22" class="node">
<title>4637</title>
<ellipse fill="none" stroke="#000000" cx="68.5997" cy="-492.9917" rx="28.6953" ry="18"/>
<text text-anchor="middle" x="68.5997" y="-489.2917" font-family="Times,serif" font-size="14.00" fill="#000000">4637</text>
</g>
<!-- 5692 -->
<g id="node24" class="node">
<title>5692</title>
<ellipse fill="none" stroke="#000000" cx="626.2268" cy="-109.1933" rx="28.6953" ry="18"/>
<text text-anchor="middle" x="626.2268" y="-105.4933" font-family="Times,serif" font-size="14.00" fill="#000000">5692</text>
</g>
<!-- 5692&#45;&gt;3597 -->
<g id="edge23" class="edge">
<title>5692&#45;&gt;3597</title>
<path fill="none" stroke="#000000" d="M598.2573,-105.0415C552.046,-98.1819 459.6905,-84.4726 407.551,-76.733"/>
<polygon fill="#000000" stroke="#000000" points="407.7812,-73.2289 397.3757,-75.2226 406.7534,-80.153 407.7812,-73.2289"/>
</g>
<!-- 10834 -->
<g id="node35" class="node">
<title>10834</title>
<ellipse fill="none" stroke="#000000" cx="583.5949" cy="-169.5937" rx="32.4942" ry="18"/>
<text text-anchor="middle" x="583.5949" y="-165.8937" font-family="Times,serif" font-size="14.00" fill="#000000">10834</text>
</g>
<!-- 5692&#45;&gt;10834 -->
<g id="edge24" class="edge">
<title>5692&#45;&gt;10834</title>
<path fill="none" stroke="#000000" d="M614.5774,-125.698C610.5096,-131.4612 605.8459,-138.0686 601.3929,-144.3776"/>
<polygon fill="#000000" stroke="#000000" points="598.434,-142.5003 595.5269,-152.6885 604.153,-146.5368 598.434,-142.5003"/>
</g>
<!-- 11008 -->
<g id="node36" class="node">
<title>11008</title>
<ellipse fill="none" stroke="#000000" cx="416.8576" cy="-43.6998" rx="32.4942" ry="18"/>
<text text-anchor="middle" x="416.8576" y="-39.9998" font-family="Times,serif" font-size="14.00" fill="#000000">11008</text>
</g>
<!-- 5692&#45;&gt;11008 -->
<g id="edge25" class="edge">
<title>5692&#45;&gt;11008</title>
<path fill="none" stroke="#000000" d="M600.554,-101.1625C564.1615,-89.7784 497.3113,-68.8668 455.076,-55.655"/>
<polygon fill="#000000" stroke="#000000" points="456.01,-52.28 445.4211,-52.6348 453.9201,-58.9608 456.01,-52.28"/>
</g>
<!-- 27865 -->
<g id="node40" class="node">
<title>27865</title>
<ellipse fill="none" stroke="#000000" cx="468.5985" cy="-25.7921" rx="32.4942" ry="18"/>
<text text-anchor="middle" x="468.5985" y="-22.0921" font-family="Times,serif" font-size="14.00" fill="#000000">27865</text>
</g>
<!-- 5692&#45;&gt;27865 -->
<g id="edge26" class="edge">
<title>5692&#45;&gt;27865</title>
<path fill="none" stroke="#000000" d="M604.3092,-97.5967C577.5539,-83.4404 532.067,-59.3733 501.2008,-43.0419"/>
<polygon fill="#000000" stroke="#000000" points="502.6038,-39.8246 492.1279,-38.2415 499.33,-46.0119 502.6038,-39.8246"/>
</g>
<!-- 28065 -->
<g id="node41" class="node">
<title>28065</title>
<ellipse fill="none" stroke="#000000" cx="522.7935" cy="-18" rx="32.4942" ry="18"/>
<text text-anchor="middle" x="522.7935" y="-14.3" font-family="Times,serif" font-size="14.00" fill="#000000">28065</text>
</g>
<!-- 5692&#45;&gt;28065 -->
<g id="edge27" class="edge">
<title>5692&#45;&gt;28065</title>
<path fill="none" stroke="#000000" d="M609.6084,-94.5415C593.0192,-79.9154 567.3071,-57.246 548.1649,-40.369"/>
<polygon fill="#000000" stroke="#000000" points="550.2248,-37.519 540.4091,-33.531 545.5954,-42.7697 550.2248,-37.519"/>
</g>
<!-- 52317 -->
<g id="node45" class="node">
<title>52317</title>
<ellipse fill="none" stroke="#000000" cx="577.4838" cy="-20.6052" rx="32.4942" ry="18"/>
<text text-anchor="middle" x="577.4838" y="-16.9052" font-family="Times,serif" font-size="14.00" fill="#000000">52317</text>
</g>
<!-- 5692&#45;&gt;52317 -->
<g id="edge28" class="edge">
<title>5692&#45;&gt;52317</title>
<path fill="none" stroke="#000000" d="M616.8286,-92.1126C609.7937,-79.3269 600.0411,-61.6021 592.0059,-46.9984"/>
<polygon fill="#000000" stroke="#000000" points="594.9066,-45.0098 587.0194,-37.9357 588.7736,-48.3843 594.9066,-45.0098"/>
</g>
<!-- 52375 -->
<g id="node46" class="node">
<title>52375</title>
<ellipse fill="none" stroke="#000000" cx="630.6927" cy="-33.5136" rx="32.4942" ry="18"/>
<text text-anchor="middle" x="630.6927" y="-29.8136" font-family="Times,serif" font-size="14.00" fill="#000000">52375</text>
</g>
<!-- 5692&#45;&gt;52375 -->
<g id="edge29" class="edge">
<title>5692&#45;&gt;52375</title>
<path fill="none" stroke="#000000" d="M627.3078,-90.8733C627.8235,-82.1352 628.452,-71.4847 629.0268,-61.7439"/>
<polygon fill="#000000" stroke="#000000" points="632.5263,-61.8536 629.6216,-51.6648 625.5385,-61.4412 632.5263,-61.8536"/>
</g>
<!-- 52376 -->
<g id="node47" class="node">
<title>52376</title>
<ellipse fill="none" stroke="#000000" cx="680.4971" cy="-56.2585" rx="32.4942" ry="18"/>
<text text-anchor="middle" x="680.4971" y="-52.5585" font-family="Times,serif" font-size="14.00" fill="#000000">52376</text>
</g>
<!-- 5692&#45;&gt;52376 -->
<g id="edge30" class="edge">
<title>5692&#45;&gt;52376</title>
<path fill="none" stroke="#000000" d="M641.924,-93.8823C646.6354,-89.2869 651.9099,-84.1422 657.0093,-79.1683"/>
<polygon fill="#000000" stroke="#000000" points="659.5546,-81.5749 664.2694,-72.0869 654.6669,-76.5638 659.5546,-81.5749"/>
</g>
<!-- 52380 -->
<g id="node48" class="node">
<title>52380</title>
<ellipse fill="none" stroke="#000000" cx="725.097" cy="-88.0179" rx="32.4942" ry="18"/>
<text text-anchor="middle" x="725.097" y="-84.3179" font-family="Times,serif" font-size="14.00" fill="#000000">52380</text>
</g>
<!-- 5692&#45;&gt;52380 -->
<g id="edge31" class="edge">
<title>5692&#45;&gt;52380</title>
<path fill="none" stroke="#000000" d="M653.5052,-103.351C663.2078,-101.2729 674.3462,-98.8874 684.9018,-96.6267"/>
<polygon fill="#000000" stroke="#000000" points="685.7324,-100.0282 694.7776,-94.5115 684.2663,-93.1835 685.7324,-100.0282"/>
</g>
<!-- 52413 -->
<g id="node49" class="node">
<title>52413</title>
<ellipse fill="none" stroke="#000000" cx="762.8804" cy="-127.644" rx="32.4942" ry="18"/>
<text text-anchor="middle" x="762.8804" y="-123.944" font-family="Times,serif" font-size="14.00" fill="#000000">52413</text>
</g>
<!-- 5692&#45;&gt;52413 -->
<g id="edge32" class="edge">
<title>5692&#45;&gt;52413</title>
<path fill="none" stroke="#000000" d="M654.2104,-112.9716C673.4896,-115.5746 699.4451,-119.0791 721.1548,-122.0103"/>
<polygon fill="#000000" stroke="#000000" points="720.7281,-125.4844 731.1065,-123.354 721.6648,-118.5473 720.7281,-125.4844"/>
</g>
<!-- 52431 -->
<g id="node50" class="node">
<title>52431</title>
<ellipse fill="none" stroke="#000000" cx="792.4817" cy="-173.7046" rx="32.4942" ry="18"/>
<text text-anchor="middle" x="792.4817" y="-170.0046" font-family="Times,serif" font-size="14.00" fill="#000000">52431</text>
</g>
<!-- 5692&#45;&gt;52431 -->
<g id="edge33" class="edge">
<title>5692&#45;&gt;52431</title>
<path fill="none" stroke="#000000" d="M650.7583,-118.7121C678.5898,-129.5115 724.2511,-147.2293 756.2022,-159.6272"/>
<polygon fill="#000000" stroke="#000000" points="755.0541,-162.9359 765.643,-163.2904 757.5864,-156.4099 755.0541,-162.9359"/>
</g>
<!-- 262230 -->
<g id="node51" class="node">
<title>262230</title>
<ellipse fill="none" stroke="#000000" cx="812.8311" cy="-224.5348" rx="37.0935" ry="18"/>
<text text-anchor="middle" x="812.8311" y="-220.8348" font-family="Times,serif" font-size="14.00" fill="#000000">262230</text>
</g>
<!-- 5692&#45;&gt;262230 -->
<g id="edge34" class="edge">
<title>5692&#45;&gt;262230</title>
<path fill="none" stroke="#000000" d="M646.9097,-121.9775C679.4139,-142.0687 742.6908,-181.1806 781.0167,-204.8701"/>
<polygon fill="#000000" stroke="#000000" points="779.378,-207.9718 789.7245,-210.2525 783.0585,-202.0175 779.378,-207.9718"/>
</g>
<!-- 264608 -->
<g id="node52" class="node">
<title>264608</title>
<ellipse fill="none" stroke="#000000" cx="823.193" cy="-278.2977" rx="37.0935" ry="18"/>
<text text-anchor="middle" x="823.193" y="-274.5977" font-family="Times,serif" font-size="14.00" fill="#000000">264608</text>
</g>
<!-- 5692&#45;&gt;264608 -->
<g id="edge35" class="edge">
<title>5692&#45;&gt;264608</title>
<path fill="none" stroke="#000000" d="M643.3617,-123.9044C677.9333,-153.5857 756.2192,-220.7977 797.1519,-255.9402"/>
<polygon fill="#000000" stroke="#000000" points="794.9491,-258.6619 804.8163,-262.5204 799.5089,-253.3508 794.9491,-258.6619"/>
</g>
<!-- 6453&#45;&gt;2828 -->
<g id="edge36" class="edge">
<title>6453&#45;&gt;2828</title>
<path fill="none" stroke="#000000" d="M672.1711,-552.3506C713.3678,-513.0481 823.0677,-408.392 871.4198,-362.2631"/>
<polygon fill="#000000" stroke="#000000" points="874.0828,-364.5598 878.9023,-355.1246 869.2509,-359.495 874.0828,-364.5598"/>
</g>
<!-- 6453&#45;&gt;3257 -->
<g id="edge37" class="edge">
<title>6453&#45;&gt;3257</title>
<path fill="none" stroke="#000000" d="M655.6971,-585.7911C655.4675,-595.2693 655.1814,-607.0801 654.9237,-617.7155"/>
<polygon fill="#000000" stroke="#000000" points="651.422,-617.7473 654.6787,-627.8292 658.42,-617.9169 651.422,-617.7473"/>
</g>
<!-- 6762&#45;&gt;2914 -->
<g id="edge38" class="edge">
<title>6762&#45;&gt;2914</title>
<path fill="none" stroke="#000000" d="M604.3322,-454.2119C607.2825,-460.6722 610.6959,-468.1464 613.9367,-475.2428"/>
<polygon fill="#000000" stroke="#000000" points="610.8514,-476.9124 618.1893,-484.5548 617.2188,-474.0045 610.8514,-476.9124"/>
</g>
<!-- 6904 -->
<g id="node28" class="node">
<title>6904</title>
<ellipse fill="none" stroke="#000000" cx="329.2466" cy="-366.528" rx="28.6953" ry="18"/>
<text text-anchor="middle" x="329.2466" y="-362.828" font-family="Times,serif" font-size="14.00" fill="#000000">6904</text>
</g>
<!-- 6904&#45;&gt;2687 -->
<g id="edge39" class="edge">
<title>6904&#45;&gt;2687</title>
<path fill="none" stroke="#000000" d="M303.1291,-374.1968C300.8079,-374.8784 298.4326,-375.5758 296.0488,-376.2758"/>
<polygon fill="#000000" stroke="#000000" points="294.9264,-372.9575 286.3176,-379.1331 296.8986,-379.674 294.9264,-372.9575"/>
</g>
<!-- 7016 -->
<g id="node29" class="node">
<title>7016</title>
<ellipse fill="none" stroke="#000000" cx="335.9696" cy="-225.3947" rx="28.6953" ry="18"/>
<text text-anchor="middle" x="335.9696" y="-221.6947" font-family="Times,serif" font-size="14.00" fill="#000000">7016</text>
</g>
<!-- 7922 -->
<g id="node33" class="node">
<title>7922</title>
<ellipse fill="none" stroke="#000000" cx="269.1272" cy="-198.635" rx="28.6953" ry="18"/>
<text text-anchor="middle" x="269.1272" y="-194.935" font-family="Times,serif" font-size="14.00" fill="#000000">7922</text>
</g>
<!-- 7016&#45;&gt;7922 -->
<g id="edge40" class="edge">
<title>7016&#45;&gt;7922</title>
<path fill="none" stroke="#000000" d="M311.838,-215.7338C308.9399,-214.5736 305.9405,-213.3729 302.937,-212.1704"/>
<polygon fill="#000000" stroke="#000000" points="304.0324,-208.839 293.4479,-208.3716 301.4308,-215.3375 304.0324,-208.839"/>
</g>
<!-- 7473 -->
<g id="node31" class="node">
<title>7473</title>
<ellipse fill="none" stroke="#000000" cx="112.3039" cy="-223.9173" rx="28.6953" ry="18"/>
<text text-anchor="middle" x="112.3039" y="-220.2173" font-family="Times,serif" font-size="14.00" fill="#000000">7473</text>
</g>
<!-- 7474 -->
<g id="node32" class="node">
<title>7474</title>
<ellipse fill="none" stroke="#000000" cx="41.6051" cy="-401.0564" rx="28.6953" ry="18"/>
<text text-anchor="middle" x="41.6051" y="-397.3564" font-family="Times,serif" font-size="14.00" fill="#000000">7474</text>
</g>
<!-- 9505&#45;&gt;7473 -->
<g id="edge41" class="edge">
<title>9505&#45;&gt;7473</title>
<path fill="none" stroke="#000000" d="M155.4663,-232.2361C153.7071,-231.8971 151.9206,-231.5527 150.1256,-231.2068"/>
<polygon fill="#000000" stroke="#000000" points="150.3632,-227.6882 139.8815,-229.2324 149.0384,-234.5617 150.3632,-227.6882"/>
</g>
<!-- 12956 -->
<g id="node37" class="node">
<title>12956</title>
<ellipse fill="none" stroke="#000000" cx="560.046" cy="-237.6337" rx="32.4942" ry="18"/>
<text text-anchor="middle" x="560.046" y="-233.9337" font-family="Times,serif" font-size="14.00" fill="#000000">12956</text>
</g>
<!-- 10834&#45;&gt;12956 -->
<g id="edge42" class="edge">
<title>10834&#45;&gt;12956</title>
<path fill="none" stroke="#000000" d="M577.4077,-187.4704C575.02,-194.3693 572.2332,-202.4213 569.6001,-210.0291"/>
<polygon fill="#000000" stroke="#000000" points="566.2369,-209.0454 566.2736,-219.6402 572.8519,-211.3349 566.2369,-209.0454"/>
</g>
<!-- 22927 -->
<g id="node39" class="node">
<title>22927</title>
<ellipse fill="none" stroke="#000000" cx="380.1706" cy="-156.6167" rx="32.4942" ry="18"/>
<text text-anchor="middle" x="380.1706" y="-152.9167" font-family="Times,serif" font-size="14.00" fill="#000000">22927</text>
</g>
<!-- 10834&#45;&gt;22927 -->
<g id="edge43" class="edge">
<title>10834&#45;&gt;22927</title>
<path fill="none" stroke="#000000" d="M550.9113,-167.5087C516.2124,-165.2952 461.2196,-161.787 423.0591,-159.3527"/>
<polygon fill="#000000" stroke="#000000" points="422.9757,-155.8403 412.7731,-158.6965 422.53,-162.8261 422.9757,-155.8403"/>
</g>
<!-- 12956&#45;&gt;3356 -->
<g id="edge44" class="edge">
<title>12956&#45;&gt;3356</title>
<path fill="none" stroke="#000000" d="M553.8588,-255.5105C551.4711,-262.4094 548.6843,-270.4614 546.0512,-278.0692"/>
<polygon fill="#000000" stroke="#000000" points="542.688,-277.0855 542.7247,-287.6802 549.303,-279.375 542.688,-277.0855"/>
</g>
<!-- 18540 -->
<g id="node38" class="node">
<title>18540</title>
<ellipse fill="none" stroke="#000000" cx="354.7864" cy="-188.8954" rx="32.4942" ry="18"/>
<text text-anchor="middle" x="354.7864" y="-185.1954" font-family="Times,serif" font-size="14.00" fill="#000000">18540</text>
</g>
<!-- 30070&#45;&gt;6904 -->
<g id="edge45" class="edge">
<title>30070&#45;&gt;6904</title>
<path fill="none" stroke="#000000" d="M373.6291,-333.7696C368.2037,-337.774 362.2119,-342.1965 356.4327,-346.4621"/>
<polygon fill="#000000" stroke="#000000" points="354.176,-343.7776 348.2087,-352.5322 358.3329,-349.4097 354.176,-343.7776"/>
</g>
<!-- 30070&#45;&gt;7016 -->
<g id="edge46" class="edge">
<title>30070&#45;&gt;7016</title>
<path fill="none" stroke="#000000" d="M382.6616,-302.1268C373.9833,-287.8652 361.5247,-267.3911 351.6592,-251.1785"/>
<polygon fill="#000000" stroke="#000000" points="354.3867,-248.9276 346.1984,-242.2043 348.4068,-252.5664 354.3867,-248.9276"/>
</g>
<!-- 30070&#45;&gt;18540 -->
<g id="edge47" class="edge">
<title>30070&#45;&gt;18540</title>
<path fill="none" stroke="#000000" d="M387.8954,-301.4946C381.4747,-279.6586 370.5366,-242.4598 363.0003,-216.8299"/>
<polygon fill="#000000" stroke="#000000" points="366.2787,-215.572 360.0998,-206.9655 359.563,-217.5467 366.2787,-215.572"/>
</g>
<!-- 32787&#45;&gt;703 -->
<g id="edge48" class="edge">
<title>32787&#45;&gt;703</title>
<path fill="none" stroke="#000000" d="M154.838,-521.7026C158.1417,-547.466 164.2351,-594.9854 168.131,-625.3668"/>
<polygon fill="#000000" stroke="#000000" points="164.6656,-625.861 169.4092,-635.3346 171.6088,-624.9706 164.6656,-625.861"/>
</g>
<!-- 32787&#45;&gt;2764 -->
<g id="edge49" class="edge">
<title>32787&#45;&gt;2764</title>
<path fill="none" stroke="#000000" d="M143.2394,-520.9135C138.29,-530.1319 132.0973,-541.6661 126.57,-551.9608"/>
<polygon fill="#000000" stroke="#000000" points="123.3825,-550.4986 121.7358,-560.9647 129.5499,-553.8099 123.3825,-550.4986"/>
</g>
<!-- 32787&#45;&gt;4637 -->
<g id="edge50" class="edge">
<title>32787&#45;&gt;4637</title>
<path fill="none" stroke="#000000" d="M120.7935,-499.6066C116.2317,-499.0285 111.498,-498.4286 106.8266,-497.8365"/>
<polygon fill="#000000" stroke="#000000" points="107.151,-494.3497 96.7902,-496.5645 106.2708,-501.2941 107.151,-494.3497"/>
</g>
<!-- 32787&#45;&gt;7474 -->
<g id="edge51" class="edge">
<title>32787&#45;&gt;7474</title>
<path fill="none" stroke="#000000" d="M135.6746,-488.0493C116.9742,-470.7557 86.6454,-442.7084 65.4975,-423.1515"/>
<polygon fill="#000000" stroke="#000000" points="67.6035,-420.3319 57.8853,-416.112 62.8508,-425.4712 67.6035,-420.3319"/>
</g>
</g>
</svg>
