<?xml version="1.0" encoding="UTF-8" standalone="no"?>
<!DOCTYPE svg PUBLIC "-//W3C//DTD SVG 1.1//EN"
 "http://www.w3.org/Graphics/SVG/1.1/DTD/svg11.dtd">
<!-- Generated by graphviz version 2.40.1 (20161225.0304)
 -->
<!-- Title: %3 Pages: 1 -->
<svg width="1928pt" height="764pt"
 viewBox="0.00 0.00 1928.05 764.00" xmlns="http://www.w3.org/2000/svg" xmlns:xlink="http://www.w3.org/1999/xlink">
<g id="graph0" class="graph" transform="scale(1 1) rotate(0) translate(4 760)">
<title>%3</title>
<polygon fill="#ffffff" stroke="transparent" points="-4,4 -4,-760 1924.0467,-760 1924.0467,4 -4,4"/>
<!-- 174 -->
<g id="node1" class="node">
<title>174</title>
<ellipse fill="none" stroke="#000000" cx="27" cy="-18" rx="27" ry="18"/>
<text text-anchor="middle" x="27" y="-14.3" font-family="Times,serif" font-size="14.00" fill="#000000">174</text>
</g>
<!-- 209 -->
<g id="node2" class="node">
<title>209</title>
<ellipse fill="none" stroke="#000000" cx="99" cy="-18" rx="27" ry="18"/>
<text text-anchor="middle" x="99" y="-14.3" font-family="Times,serif" font-size="14.00" fill="#000000">209</text>
</g>
<!-- 701 -->
<g id="node3" class="node">
<title>701</title>
<ellipse fill="none" stroke="#000000" cx="171" cy="-18" rx="27" ry="18"/>
<text text-anchor="middle" x="171" y="-14.3" font-family="Times,serif" font-size="14.00" fill="#000000">701</text>
</g>
<!-- 703 -->
<g id="node4" class="node">
<title>703</title>
<ellipse fill="none" stroke="#000000" cx="769" cy="-18" rx="27" ry="18"/>
<text text-anchor="middle" x="769" y="-14.3" font-family="Times,serif" font-size="14.00" fill="#000000">703</text>
</g>
<!-- 1239 -->
<g id="node5" class="node">
<title>1239</title>
<ellipse fill="none" stroke="#000000" cx="245" cy="-18" rx="28.6953" ry="18"/>
<text text-anchor="middle" x="245" y="-14.3" font-family="Times,serif" font-size="14.00" fill="#000000">1239</text>
</g>
<!-- 1273 -->
<g id="node6" class="node">
<title>1273</title>
<ellipse fill="none" stroke="#000000" cx="320" cy="-18" rx="28.6953" ry="18"/>
<text text-anchor="middle" x="320" y="-14.3" font-family="Times,serif" font-size="14.00" fill="#000000">1273</text>
</g>
<!-- 1299 -->
<g id="node7" class="node">
<title>1299</title>
<ellipse fill="none" stroke="#000000" cx="395" cy="-18" rx="28.6953" ry="18"/>
<text text-anchor="middle" x="395" y="-14.3" font-family="Times,serif" font-size="14.00" fill="#000000">1299</text>
</g>
<!-- 2497 -->
<g id="node8" class="node">
<title>2497</title>
<ellipse fill="none" stroke="#000000" cx="470" cy="-18" rx="28.6953" ry="18"/>
<text text-anchor="middle" x="470" y="-14.3" font-family="Times,serif" font-size="14.00" fill="#000000">2497</text>
</g>
<!-- 2516 -->
<g id="node9" class="node">
<title>2516</title>
<ellipse fill="none" stroke="#000000" cx="880" cy="-162" rx="28.6953" ry="18"/>
<text text-anchor="middle" x="880" y="-158.3" font-family="Times,serif" font-size="14.00" fill="#000000">2516</text>
</g>
<!-- 32787 -->
<g id="node43" class="node">
<title>32787</title>
<ellipse fill="none" stroke="#000000" cx="880" cy="-90" rx="32.4942" ry="18"/>
<text text-anchor="middle" x="880" y="-86.3" font-family="Times,serif" font-size="14.00" fill="#000000">32787</text>
</g>
<!-- 2516&#45;&gt;32787 -->
<g id="edge1" class="edge">
<title>2516&#45;&gt;32787</title>
<path fill="none" stroke="#000000" d="M880,-143.8314C880,-136.131 880,-126.9743 880,-118.4166"/>
<polygon fill="#000000" stroke="#000000" points="883.5001,-118.4132 880,-108.4133 876.5001,-118.4133 883.5001,-118.4132"/>
</g>
<!-- 2686 -->
<g id="node10" class="node">
<title>2686</title>
<ellipse fill="none" stroke="#000000" cx="957" cy="-162" rx="28.6953" ry="18"/>
<text text-anchor="middle" x="957" y="-158.3" font-family="Times,serif" font-size="14.00" fill="#000000">2686</text>
</g>
<!-- 3741 -->
<g id="node21" class="node">
<title>3741</title>
<ellipse fill="none" stroke="#000000" cx="959" cy="-90" rx="28.6953" ry="18"/>
<text text-anchor="middle" x="959" y="-86.3" font-family="Times,serif" font-size="14.00" fill="#000000">3741</text>
</g>
<!-- 2686&#45;&gt;3741 -->
<g id="edge2" class="edge">
<title>2686&#45;&gt;3741</title>
<path fill="none" stroke="#000000" d="M957.5047,-143.8314C957.7186,-136.131 957.9729,-126.9743 958.2106,-118.4166"/>
<polygon fill="#000000" stroke="#000000" points="961.7094,-118.5066 958.4885,-108.4133 954.7121,-118.3122 961.7094,-118.5066"/>
</g>
<!-- 2687 -->
<g id="node11" class="node">
<title>2687</title>
<ellipse fill="none" stroke="#000000" cx="918" cy="-234" rx="28.6953" ry="18"/>
<text text-anchor="middle" x="918" y="-230.3" font-family="Times,serif" font-size="14.00" fill="#000000">2687</text>
</g>
<!-- 2687&#45;&gt;2516 -->
<g id="edge3" class="edge">
<title>2687&#45;&gt;2516</title>
<path fill="none" stroke="#000000" d="M908.8013,-216.5708C904.3203,-208.0807 898.8379,-197.6929 893.8634,-188.2674"/>
<polygon fill="#000000" stroke="#000000" points="896.877,-186.4789 889.114,-179.2687 890.6863,-189.7462 896.877,-186.4789"/>
</g>
<!-- 2687&#45;&gt;2686 -->
<g id="edge4" class="edge">
<title>2687&#45;&gt;2686</title>
<path fill="none" stroke="#000000" d="M927.2425,-216.937C931.8376,-208.4537 937.495,-198.0092 942.6388,-188.513"/>
<polygon fill="#000000" stroke="#000000" points="945.8676,-189.9006 947.553,-179.4407 939.7126,-186.5666 945.8676,-189.9006"/>
</g>
<!-- 9505 -->
<g id="node34" class="node">
<title>9505</title>
<ellipse fill="none" stroke="#000000" cx="1033" cy="-162" rx="28.6953" ry="18"/>
<text text-anchor="middle" x="1033" y="-158.3" font-family="Times,serif" font-size="14.00" fill="#000000">9505</text>
</g>
<!-- 2687&#45;&gt;9505 -->
<g id="edge5" class="edge">
<title>2687&#45;&gt;9505</title>
<path fill="none" stroke="#000000" d="M938.295,-221.2936C956.4937,-209.8996 983.4062,-193.05 1003.8958,-180.2217"/>
<polygon fill="#000000" stroke="#000000" points="1005.9026,-183.0948 1012.5211,-174.8216 1002.1879,-177.1617 1005.9026,-183.0948"/>
</g>
<!-- 2764 -->
<g id="node12" class="node">
<title>2764</title>
<ellipse fill="none" stroke="#000000" cx="843" cy="-18" rx="28.6953" ry="18"/>
<text text-anchor="middle" x="843" y="-14.3" font-family="Times,serif" font-size="14.00" fill="#000000">2764</text>
</g>
<!-- 2828 -->
<g id="node13" class="node">
<title>2828</title>
<ellipse fill="none" stroke="#000000" cx="579" cy="-162" rx="28.6953" ry="18"/>
<text text-anchor="middle" x="579" y="-158.3" font-family="Times,serif" font-size="14.00" fill="#000000">2828</text>
</g>
<!-- 2914 -->
<g id="node14" class="node">
<title>2914</title>
<ellipse fill="none" stroke="#000000" cx="841" cy="-306" rx="28.6953" ry="18"/>
<text text-anchor="middle" x="841" y="-302.3" font-family="Times,serif" font-size="14.00" fill="#000000">2914</text>
</g>
<!-- 6453 -->
<g id="node25" class="node">
<title>6453</title>
<ellipse fill="none" stroke="#000000" cx="654" cy="-234" rx="28.6953" ry="18"/>
<text text-anchor="middle" x="654" y="-230.3" font-family="Times,serif" font-size="14.00" fill="#000000">6453</text>
</g>
<!-- 2914&#45;&gt;6453 -->
<g id="edge6" class="edge">
<title>2914&#45;&gt;6453</title>
<path fill="none" stroke="#000000" d="M816.553,-296.5873C783.6545,-283.9204 724.986,-261.3315 687.857,-247.0358"/>
<polygon fill="#000000" stroke="#000000" points="689.0428,-243.742 678.453,-243.4151 686.5275,-250.2745 689.0428,-243.742"/>
</g>
<!-- 3257 -->
<g id="node15" class="node">
<title>3257</title>
<ellipse fill="none" stroke="#000000" cx="654" cy="-162" rx="28.6953" ry="18"/>
<text text-anchor="middle" x="654" y="-158.3" font-family="Times,serif" font-size="14.00" fill="#000000">3257</text>
</g>
<!-- 3491 -->
<g id="node18" class="node">
<title>3491</title>
<ellipse fill="none" stroke="#000000" cx="395" cy="-90" rx="28.6953" ry="18"/>
<text text-anchor="middle" x="395" y="-86.3" font-family="Times,serif" font-size="14.00" fill="#000000">3491</text>
</g>
<!-- 3257&#45;&gt;3491 -->
<g id="edge7" class="edge">
<title>3257&#45;&gt;3491</title>
<path fill="none" stroke="#000000" d="M632.0287,-150.3586C627.1632,-148.0509 621.9734,-145.7912 617,-144 553.9879,-121.3058 477.5218,-105.0569 432.7608,-96.6236"/>
<polygon fill="#000000" stroke="#000000" points="433.3697,-93.1769 422.8993,-94.7958 432.094,-100.0597 433.3697,-93.1769"/>
</g>
<!-- 5511 -->
<g id="node23" class="node">
<title>5511</title>
<ellipse fill="none" stroke="#000000" cx="654" cy="-90" rx="28.6953" ry="18"/>
<text text-anchor="middle" x="654" y="-86.3" font-family="Times,serif" font-size="14.00" fill="#000000">5511</text>
</g>
<!-- 3257&#45;&gt;5511 -->
<g id="edge8" class="edge">
<title>3257&#45;&gt;5511</title>
<path fill="none" stroke="#000000" d="M654,-143.8314C654,-136.131 654,-126.9743 654,-118.4166"/>
<polygon fill="#000000" stroke="#000000" points="657.5001,-118.4132 654,-108.4133 650.5001,-118.4133 657.5001,-118.4132"/>
</g>
<!-- 3320 -->
<g id="node16" class="node">
<title>3320</title>
<ellipse fill="none" stroke="#000000" cx="545" cy="-18" rx="28.6953" ry="18"/>
<text text-anchor="middle" x="545" y="-14.3" font-family="Times,serif" font-size="14.00" fill="#000000">3320</text>
</g>
<!-- 3356 -->
<g id="node17" class="node">
<title>3356</title>
<ellipse fill="none" stroke="#000000" cx="915" cy="-522" rx="28.6953" ry="18"/>
<text text-anchor="middle" x="915" y="-518.3" font-family="Times,serif" font-size="14.00" fill="#000000">3356</text>
</g>
<!-- 3549 -->
<g id="node19" class="node">
<title>3549</title>
<ellipse fill="none" stroke="#000000" cx="915" cy="-450" rx="28.6953" ry="18"/>
<text text-anchor="middle" x="915" y="-446.3" font-family="Times,serif" font-size="14.00" fill="#000000">3549</text>
</g>
<!-- 3356&#45;&gt;3549 -->
<g id="edge9" class="edge">
<title>3356&#45;&gt;3549</title>
<path fill="none" stroke="#000000" d="M915,-503.8314C915,-496.131 915,-486.9743 915,-478.4166"/>
<polygon fill="#000000" stroke="#000000" points="918.5001,-478.4132 915,-468.4133 911.5001,-478.4133 918.5001,-478.4132"/>
</g>
<!-- 3491&#45;&gt;174 -->
<g id="edge10" class="edge">
<title>3491&#45;&gt;174</title>
<path fill="none" stroke="#000000" d="M366.3392,-88.2575C307.9689,-84.0792 171.6376,-71.0925 63,-36 61.1049,-35.3878 59.1856,-34.6889 57.2709,-33.9301"/>
<polygon fill="#000000" stroke="#000000" points="58.4305,-30.6156 47.8701,-29.7615 55.5929,-37.0147 58.4305,-30.6156"/>
</g>
<!-- 3491&#45;&gt;209 -->
<g id="edge11" class="edge">
<title>3491&#45;&gt;209</title>
<path fill="none" stroke="#000000" d="M366.6555,-86.5607C318.175,-80.1423 216.6586,-64.3552 135,-36 133.1187,-35.3467 131.2101,-34.6158 129.3036,-33.8327"/>
<polygon fill="#000000" stroke="#000000" points="130.4791,-30.5233 119.9246,-29.5989 127.599,-36.9034 130.4791,-30.5233"/>
</g>
<!-- 3491&#45;&gt;701 -->
<g id="edge12" class="edge">
<title>3491&#45;&gt;701</title>
<path fill="none" stroke="#000000" d="M368.0258,-83.9091C331.0496,-75.1885 262.8445,-57.7677 207,-36 205.1445,-35.2767 203.2559,-34.4914 201.3647,-33.6668"/>
<polygon fill="#000000" stroke="#000000" points="202.5698,-30.3673 192.0266,-29.3221 199.6168,-36.7139 202.5698,-30.3673"/>
</g>
<!-- 3491&#45;&gt;1239 -->
<g id="edge13" class="edge">
<title>3491&#45;&gt;1239</title>
<path fill="none" stroke="#000000" d="M372.0366,-79.084C349.1892,-68.2095 313.1404,-51.0151 282,-36 280.4075,-35.2321 278.777,-34.4445 277.1309,-33.6481"/>
<polygon fill="#000000" stroke="#000000" points="278.211,-30.282 267.686,-29.0674 275.1564,-36.5804 278.211,-30.282"/>
</g>
<!-- 3491&#45;&gt;1273 -->
<g id="edge14" class="edge">
<title>3491&#45;&gt;1273</title>
<path fill="none" stroke="#000000" d="M379.0944,-74.7307C368.6537,-64.7075 354.8251,-51.4321 343.1702,-40.2434"/>
<polygon fill="#000000" stroke="#000000" points="345.5204,-37.6478 335.8826,-33.2473 340.6727,-42.6976 345.5204,-37.6478"/>
</g>
<!-- 3491&#45;&gt;1299 -->
<g id="edge15" class="edge">
<title>3491&#45;&gt;1299</title>
<path fill="none" stroke="#000000" d="M395,-71.8314C395,-64.131 395,-54.9743 395,-46.4166"/>
<polygon fill="#000000" stroke="#000000" points="398.5001,-46.4132 395,-36.4133 391.5001,-46.4133 398.5001,-46.4132"/>
</g>
<!-- 3491&#45;&gt;2497 -->
<g id="edge16" class="edge">
<title>3491&#45;&gt;2497</title>
<path fill="none" stroke="#000000" d="M410.9056,-74.7307C421.3463,-64.7075 435.1749,-51.4321 446.8298,-40.2434"/>
<polygon fill="#000000" stroke="#000000" points="449.3273,-42.6976 454.1174,-33.2473 444.4796,-37.6478 449.3273,-42.6976"/>
</g>
<!-- 3491&#45;&gt;3320 -->
<g id="edge17" class="edge">
<title>3491&#45;&gt;3320</title>
<path fill="none" stroke="#000000" d="M417.9634,-79.084C440.8108,-68.2095 476.8596,-51.0151 508,-36 509.5925,-35.2321 511.223,-34.4445 512.8691,-33.6481"/>
<polygon fill="#000000" stroke="#000000" points="514.8436,-36.5804 522.314,-29.0674 511.789,-30.282 514.8436,-36.5804"/>
</g>
<!-- 6461 -->
<g id="node26" class="node">
<title>6461</title>
<ellipse fill="none" stroke="#000000" cx="620" cy="-18" rx="28.6953" ry="18"/>
<text text-anchor="middle" x="620" y="-14.3" font-family="Times,serif" font-size="14.00" fill="#000000">6461</text>
</g>
<!-- 3491&#45;&gt;6461 -->
<g id="edge18" class="edge">
<title>3491&#45;&gt;6461</title>
<path fill="none" stroke="#000000" d="M421.9402,-83.8212C458.8774,-74.9998 527.0381,-57.4639 583,-36 584.8508,-35.2901 586.7352,-34.5226 588.624,-33.7184"/>
<polygon fill="#000000" stroke="#000000" points="590.3046,-36.7996 597.9713,-29.4871 587.4178,-30.4225 590.3046,-36.7996"/>
</g>
<!-- 7018 -->
<g id="node30" class="node">
<title>7018</title>
<ellipse fill="none" stroke="#000000" cx="695" cy="-18" rx="28.6953" ry="18"/>
<text text-anchor="middle" x="695" y="-14.3" font-family="Times,serif" font-size="14.00" fill="#000000">7018</text>
</g>
<!-- 3491&#45;&gt;7018 -->
<g id="edge19" class="edge">
<title>3491&#45;&gt;7018</title>
<path fill="none" stroke="#000000" d="M423.249,-86.5632C472.0849,-80.1042 575.0307,-64.2008 658,-36 659.8768,-35.3621 661.7816,-34.6509 663.686,-33.89"/>
<polygon fill="#000000" stroke="#000000" points="665.3201,-36.9953 673.0765,-29.778 662.5122,-30.5832 665.3201,-36.9953"/>
</g>
<!-- 6762 -->
<g id="node27" class="node">
<title>6762</title>
<ellipse fill="none" stroke="#000000" cx="876" cy="-378" rx="28.6953" ry="18"/>
<text text-anchor="middle" x="876" y="-374.3" font-family="Times,serif" font-size="14.00" fill="#000000">6762</text>
</g>
<!-- 3549&#45;&gt;6762 -->
<g id="edge20" class="edge">
<title>3549&#45;&gt;6762</title>
<path fill="none" stroke="#000000" d="M905.7575,-432.937C901.1624,-424.4537 895.505,-414.0092 890.3612,-404.513"/>
<polygon fill="#000000" stroke="#000000" points="893.2874,-402.5666 885.447,-395.4407 887.1324,-405.9006 893.2874,-402.5666"/>
</g>
<!-- 30070 -->
<g id="node42" class="node">
<title>30070</title>
<ellipse fill="none" stroke="#000000" cx="974" cy="-378" rx="32.4942" ry="18"/>
<text text-anchor="middle" x="974" y="-374.3" font-family="Times,serif" font-size="14.00" fill="#000000">30070</text>
</g>
<!-- 3549&#45;&gt;30070 -->
<g id="edge21" class="edge">
<title>3549&#45;&gt;30070</title>
<path fill="none" stroke="#000000" d="M928.388,-433.6621C935.8997,-424.4953 945.4218,-412.8751 953.8206,-402.6257"/>
<polygon fill="#000000" stroke="#000000" points="956.6245,-404.7261 960.2555,-394.7729 951.2101,-400.2893 956.6245,-404.7261"/>
</g>
<!-- 3597 -->
<g id="node20" class="node">
<title>3597</title>
<ellipse fill="none" stroke="#000000" cx="877" cy="-666" rx="28.6953" ry="18"/>
<text text-anchor="middle" x="877" y="-662.3" font-family="Times,serif" font-size="14.00" fill="#000000">3597</text>
</g>
<!-- 37179 -->
<g id="node44" class="node">
<title>37179</title>
<ellipse fill="none" stroke="#000000" cx="1072" cy="-18" rx="32.4942" ry="18"/>
<text text-anchor="middle" x="1072" y="-14.3" font-family="Times,serif" font-size="14.00" fill="#000000">37179</text>
</g>
<!-- 3741&#45;&gt;37179 -->
<g id="edge22" class="edge">
<title>3741&#45;&gt;37179</title>
<path fill="none" stroke="#000000" d="M979.2021,-77.1278C996.5982,-66.0436 1021.9556,-49.8867 1041.7689,-37.2623"/>
<polygon fill="#000000" stroke="#000000" points="1043.881,-40.0667 1050.4338,-31.7413 1040.1194,-34.1632 1043.881,-40.0667"/>
</g>
<!-- 4637 -->
<g id="node22" class="node">
<title>4637</title>
<ellipse fill="none" stroke="#000000" cx="918" cy="-18" rx="28.6953" ry="18"/>
<text text-anchor="middle" x="918" y="-14.3" font-family="Times,serif" font-size="14.00" fill="#000000">4637</text>
</g>
<!-- 5692 -->
<g id="node24" class="node">
<title>5692</title>
<ellipse fill="none" stroke="#000000" cx="1371" cy="-738" rx="28.6953" ry="18"/>
<text text-anchor="middle" x="1371" y="-734.3" font-family="Times,serif" font-size="14.00" fill="#000000">5692</text>
</g>
<!-- 5692&#45;&gt;3597 -->
<g id="edge23" class="edge">
<title>5692&#45;&gt;3597</title>
<path fill="none" stroke="#000000" d="M1342.4155,-735.8332C1255.6364,-729.0637 996.2092,-707.3629 915,-684 912.834,-683.3769 910.6377,-682.6422 908.45,-681.832"/>
<polygon fill="#000000" stroke="#000000" points="909.6104,-678.5239 899.0335,-677.9077 906.9176,-684.9852 909.6104,-678.5239"/>
</g>
<!-- 10834 -->
<g id="node35" class="node">
<title>10834</title>
<ellipse fill="none" stroke="#000000" cx="956" cy="-666" rx="32.4942" ry="18"/>
<text text-anchor="middle" x="956" y="-662.3" font-family="Times,serif" font-size="14.00" fill="#000000">10834</text>
</g>
<!-- 5692&#45;&gt;10834 -->
<g id="edge24" class="edge">
<title>5692&#45;&gt;10834</title>
<path fill="none" stroke="#000000" d="M1342.4009,-736.4071C1279.206,-732.3384 1123.3407,-719.2744 998,-684 995.5277,-683.3042 993.009,-682.4966 990.4952,-681.6164"/>
<polygon fill="#000000" stroke="#000000" points="991.5223,-678.2617 980.9321,-677.946 989.0139,-684.7969 991.5223,-678.2617"/>
</g>
<!-- 11008 -->
<g id="node36" class="node">
<title>11008</title>
<ellipse fill="none" stroke="#000000" cx="1039" cy="-666" rx="32.4942" ry="18"/>
<text text-anchor="middle" x="1039" y="-662.3" font-family="Times,serif" font-size="14.00" fill="#000000">11008</text>
</g>
<!-- 5692&#45;&gt;11008 -->
<g id="edge25" class="edge">
<title>5692&#45;&gt;11008</title>
<path fill="none" stroke="#000000" d="M1342.5102,-734.8151C1289.964,-728.4771 1174.605,-712.3918 1081,-684 1078.5422,-683.2545 1076.0344,-682.4097 1073.5284,-681.5026"/>
<polygon fill="#000000" stroke="#000000" points="1074.5706,-678.1522 1063.9825,-677.7737 1072.0236,-684.6724 1074.5706,-678.1522"/>
</g>
<!-- 27865 -->
<g id="node40" class="node">
<title>27865</title>
<ellipse fill="none" stroke="#000000" cx="1122" cy="-666" rx="32.4942" ry="18"/>
<text text-anchor="middle" x="1122" y="-662.3" font-family="Times,serif" font-size="14.00" fill="#000000">27865</text>
</g>
<!-- 5692&#45;&gt;27865 -->
<g id="edge26" class="edge">
<title>5692&#45;&gt;27865</title>
<path fill="none" stroke="#000000" d="M1343.8227,-732.2764C1303.889,-723.5606 1227.2444,-705.6654 1164,-684 1161.5703,-683.1677 1159.0834,-682.258 1156.5926,-681.3038"/>
<polygon fill="#000000" stroke="#000000" points="1157.6632,-677.9618 1147.0797,-677.4727 1155.0482,-684.455 1157.6632,-677.9618"/>
</g>
<!-- 28065 -->
<g id="node41" class="node">
<title>28065</title>
<ellipse fill="none" stroke="#000000" cx="1205" cy="-666" rx="32.4942" ry="18"/>
<text text-anchor="middle" x="1205" y="-662.3" font-family="Times,serif" font-size="14.00" fill="#000000">28065</text>
</g>
<!-- 5692&#45;&gt;28065 -->
<g id="edge27" class="edge">
<title>5692&#45;&gt;28065</title>
<path fill="none" stroke="#000000" d="M1347.2162,-727.6842C1319.1868,-715.5268 1272.3574,-695.2153 1240.141,-681.2419"/>
<polygon fill="#000000" stroke="#000000" points="1241.2158,-677.8931 1230.6489,-677.1248 1238.4304,-684.315 1241.2158,-677.8931"/>
</g>
<!-- 52317 -->
<g id="node45" class="node">
<title>52317</title>
<ellipse fill="none" stroke="#000000" cx="1288" cy="-666" rx="32.4942" ry="18"/>
<text text-anchor="middle" x="1288" y="-662.3" font-family="Times,serif" font-size="14.00" fill="#000000">52317</text>
</g>
<!-- 5692&#45;&gt;52317 -->
<g id="edge28" class="edge">
<title>5692&#45;&gt;52317</title>
<path fill="none" stroke="#000000" d="M1354.2037,-723.4297C1342.514,-713.2892 1326.7126,-699.5821 1313.479,-688.1023"/>
<polygon fill="#000000" stroke="#000000" points="1315.4781,-685.2031 1305.6307,-681.2941 1310.8912,-690.4908 1315.4781,-685.2031"/>
</g>
<!-- 52375 -->
<g id="node46" class="node">
<title>52375</title>
<ellipse fill="none" stroke="#000000" cx="1371" cy="-666" rx="32.4942" ry="18"/>
<text text-anchor="middle" x="1371" y="-662.3" font-family="Times,serif" font-size="14.00" fill="#000000">52375</text>
</g>
<!-- 5692&#45;&gt;52375 -->
<g id="edge29" class="edge">
<title>5692&#45;&gt;52375</title>
<path fill="none" stroke="#000000" d="M1371,-719.8314C1371,-712.131 1371,-702.9743 1371,-694.4166"/>
<polygon fill="#000000" stroke="#000000" points="1374.5001,-694.4132 1371,-684.4133 1367.5001,-694.4133 1374.5001,-694.4132"/>
</g>
<!-- 52376 -->
<g id="node47" class="node">
<title>52376</title>
<ellipse fill="none" stroke="#000000" cx="1454" cy="-666" rx="32.4942" ry="18"/>
<text text-anchor="middle" x="1454" y="-662.3" font-family="Times,serif" font-size="14.00" fill="#000000">52376</text>
</g>
<!-- 5692&#45;&gt;52376 -->
<g id="edge30" class="edge">
<title>5692&#45;&gt;52376</title>
<path fill="none" stroke="#000000" d="M1387.7963,-723.4297C1399.486,-713.2892 1415.2874,-699.5821 1428.521,-688.1023"/>
<polygon fill="#000000" stroke="#000000" points="1431.1088,-690.4908 1436.3693,-681.2941 1426.5219,-685.2031 1431.1088,-690.4908"/>
</g>
<!-- 52380 -->
<g id="node48" class="node">
<title>52380</title>
<ellipse fill="none" stroke="#000000" cx="1537" cy="-666" rx="32.4942" ry="18"/>
<text text-anchor="middle" x="1537" y="-662.3" font-family="Times,serif" font-size="14.00" fill="#000000">52380</text>
</g>
<!-- 5692&#45;&gt;52380 -->
<g id="edge31" class="edge">
<title>5692&#45;&gt;52380</title>
<path fill="none" stroke="#000000" d="M1394.7838,-727.6842C1422.8132,-715.5268 1469.6426,-695.2153 1501.859,-681.2419"/>
<polygon fill="#000000" stroke="#000000" points="1503.5696,-684.315 1511.3511,-677.1248 1500.7842,-677.8931 1503.5696,-684.315"/>
</g>
<!-- 52413 -->
<g id="node49" class="node">
<title>52413</title>
<ellipse fill="none" stroke="#000000" cx="1620" cy="-666" rx="32.4942" ry="18"/>
<text text-anchor="middle" x="1620" y="-662.3" font-family="Times,serif" font-size="14.00" fill="#000000">52413</text>
</g>
<!-- 5692&#45;&gt;52413 -->
<g id="edge32" class="edge">
<title>5692&#45;&gt;52413</title>
<path fill="none" stroke="#000000" d="M1398.1773,-732.2764C1438.111,-723.5606 1514.7556,-705.6654 1578,-684 1580.4297,-683.1677 1582.9166,-682.258 1585.4074,-681.3038"/>
<polygon fill="#000000" stroke="#000000" points="1586.9518,-684.455 1594.9203,-677.4727 1584.3368,-677.9618 1586.9518,-684.455"/>
</g>
<!-- 52431 -->
<g id="node50" class="node">
<title>52431</title>
<ellipse fill="none" stroke="#000000" cx="1703" cy="-666" rx="32.4942" ry="18"/>
<text text-anchor="middle" x="1703" y="-662.3" font-family="Times,serif" font-size="14.00" fill="#000000">52431</text>
</g>
<!-- 5692&#45;&gt;52431 -->
<g id="edge33" class="edge">
<title>5692&#45;&gt;52431</title>
<path fill="none" stroke="#000000" d="M1399.4898,-734.8151C1452.036,-728.4771 1567.395,-712.3918 1661,-684 1663.4578,-683.2545 1665.9656,-682.4097 1668.4716,-681.5026"/>
<polygon fill="#000000" stroke="#000000" points="1669.9764,-684.6724 1678.0175,-677.7737 1667.4294,-678.1522 1669.9764,-684.6724"/>
</g>
<!-- 262230 -->
<g id="node51" class="node">
<title>262230</title>
<ellipse fill="none" stroke="#000000" cx="1791" cy="-666" rx="37.0935" ry="18"/>
<text text-anchor="middle" x="1791" y="-662.3" font-family="Times,serif" font-size="14.00" fill="#000000">262230</text>
</g>
<!-- 5692&#45;&gt;262230 -->
<g id="edge34" class="edge">
<title>5692&#45;&gt;262230</title>
<path fill="none" stroke="#000000" d="M1399.5,-736.0413C1462.4973,-731.243 1617.9929,-716.8146 1744,-684 1747.1286,-683.1853 1750.3346,-682.23 1753.5303,-681.1919"/>
<polygon fill="#000000" stroke="#000000" points="1754.7111,-684.4869 1762.9989,-677.8866 1752.404,-677.878 1754.7111,-684.4869"/>
</g>
<!-- 264608 -->
<g id="node52" class="node">
<title>264608</title>
<ellipse fill="none" stroke="#000000" cx="1883" cy="-666" rx="37.0935" ry="18"/>
<text text-anchor="middle" x="1883" y="-662.3" font-family="Times,serif" font-size="14.00" fill="#000000">264608</text>
</g>
<!-- 5692&#45;&gt;264608 -->
<g id="edge35" class="edge">
<title>5692&#45;&gt;264608</title>
<path fill="none" stroke="#000000" d="M1399.8256,-737.2303C1473.6272,-734.71 1674.9921,-724.3639 1837,-684 1839.8085,-683.3003 1842.6759,-682.4722 1845.538,-681.5618"/>
<polygon fill="#000000" stroke="#000000" points="1846.8601,-684.8076 1855.1547,-678.216 1844.5599,-678.1963 1846.8601,-684.8076"/>
</g>
<!-- 6453&#45;&gt;2828 -->
<g id="edge36" class="edge">
<title>6453&#45;&gt;2828</title>
<path fill="none" stroke="#000000" d="M638.0944,-218.7307C627.6537,-208.7075 613.8251,-195.4321 602.1702,-184.2434"/>
<polygon fill="#000000" stroke="#000000" points="604.5204,-181.6478 594.8826,-177.2473 599.6727,-186.6976 604.5204,-181.6478"/>
</g>
<!-- 6453&#45;&gt;3257 -->
<g id="edge37" class="edge">
<title>6453&#45;&gt;3257</title>
<path fill="none" stroke="#000000" d="M654,-215.8314C654,-208.131 654,-198.9743 654,-190.4166"/>
<polygon fill="#000000" stroke="#000000" points="657.5001,-190.4132 654,-180.4133 650.5001,-190.4133 657.5001,-190.4132"/>
</g>
<!-- 6762&#45;&gt;2914 -->
<g id="edge38" class="edge">
<title>6762&#45;&gt;2914</title>
<path fill="none" stroke="#000000" d="M867.5275,-360.5708C863.4003,-352.0807 858.3507,-341.6929 853.7689,-332.2674"/>
<polygon fill="#000000" stroke="#000000" points="856.9143,-330.7322 849.3945,-323.2687 850.6187,-333.7926 856.9143,-330.7322"/>
</g>
<!-- 6904 -->
<g id="node28" class="node">
<title>6904</title>
<ellipse fill="none" stroke="#000000" cx="918" cy="-306" rx="28.6953" ry="18"/>
<text text-anchor="middle" x="918" y="-302.3" font-family="Times,serif" font-size="14.00" fill="#000000">6904</text>
</g>
<!-- 6904&#45;&gt;2687 -->
<g id="edge39" class="edge">
<title>6904&#45;&gt;2687</title>
<path fill="none" stroke="#000000" d="M918,-287.8314C918,-280.131 918,-270.9743 918,-262.4166"/>
<polygon fill="#000000" stroke="#000000" points="921.5001,-262.4132 918,-252.4133 914.5001,-262.4133 921.5001,-262.4132"/>
</g>
<!-- 7016 -->
<g id="node29" class="node">
<title>7016</title>
<ellipse fill="none" stroke="#000000" cx="993" cy="-306" rx="28.6953" ry="18"/>
<text text-anchor="middle" x="993" y="-302.3" font-family="Times,serif" font-size="14.00" fill="#000000">7016</text>
</g>
<!-- 7922 -->
<g id="node33" class="node">
<title>7922</title>
<ellipse fill="none" stroke="#000000" cx="993" cy="-234" rx="28.6953" ry="18"/>
<text text-anchor="middle" x="993" y="-230.3" font-family="Times,serif" font-size="14.00" fill="#000000">7922</text>
</g>
<!-- 7016&#45;&gt;7922 -->
<g id="edge40" class="edge">
<title>7016&#45;&gt;7922</title>
<path fill="none" stroke="#000000" d="M993,-287.8314C993,-280.131 993,-270.9743 993,-262.4166"/>
<polygon fill="#000000" stroke="#000000" points="996.5001,-262.4132 993,-252.4133 989.5001,-262.4133 996.5001,-262.4132"/>
</g>
<!-- 7473 -->
<g id="node31" class="node">
<title>7473</title>
<ellipse fill="none" stroke="#000000" cx="1034" cy="-90" rx="28.6953" ry="18"/>
<text text-anchor="middle" x="1034" y="-86.3" font-family="Times,serif" font-size="14.00" fill="#000000">7473</text>
</g>
<!-- 7474 -->
<g id="node32" class="node">
<title>7474</title>
<ellipse fill="none" stroke="#000000" cx="993" cy="-18" rx="28.6953" ry="18"/>
<text text-anchor="middle" x="993" y="-14.3" font-family="Times,serif" font-size="14.00" fill="#000000">7474</text>
</g>
<!-- 9505&#45;&gt;7473 -->
<g id="edge41" class="edge">
<title>9505&#45;&gt;7473</title>
<path fill="none" stroke="#000000" d="M1033.2523,-143.8314C1033.3593,-136.131 1033.4865,-126.9743 1033.6053,-118.4166"/>
<polygon fill="#000000" stroke="#000000" points="1037.1049,-118.4609 1033.7443,-108.4133 1030.1056,-118.3637 1037.1049,-118.4609"/>
</g>
<!-- 12956 -->
<g id="node37" class="node">
<title>12956</title>
<ellipse fill="none" stroke="#000000" cx="915" cy="-594" rx="32.4942" ry="18"/>
<text text-anchor="middle" x="915" y="-590.3" font-family="Times,serif" font-size="14.00" fill="#000000">12956</text>
</g>
<!-- 10834&#45;&gt;12956 -->
<g id="edge42" class="edge">
<title>10834&#45;&gt;12956</title>
<path fill="none" stroke="#000000" d="M946.075,-648.5708C941.19,-639.9922 935.2017,-629.4762 929.7903,-619.9732"/>
<polygon fill="#000000" stroke="#000000" points="932.8234,-618.2266 924.8336,-611.2687 926.7405,-621.6905 932.8234,-618.2266"/>
</g>
<!-- 22927 -->
<g id="node39" class="node">
<title>22927</title>
<ellipse fill="none" stroke="#000000" cx="998" cy="-594" rx="32.4942" ry="18"/>
<text text-anchor="middle" x="998" y="-590.3" font-family="Times,serif" font-size="14.00" fill="#000000">22927</text>
</g>
<!-- 10834&#45;&gt;22927 -->
<g id="edge43" class="edge">
<title>10834&#45;&gt;22927</title>
<path fill="none" stroke="#000000" d="M966.167,-648.5708C971.1712,-639.9922 977.3055,-629.4762 982.849,-619.9732"/>
<polygon fill="#000000" stroke="#000000" points="985.9111,-621.6701 987.9266,-611.2687 979.8646,-618.1429 985.9111,-621.6701"/>
</g>
<!-- 12956&#45;&gt;3356 -->
<g id="edge44" class="edge">
<title>12956&#45;&gt;3356</title>
<path fill="none" stroke="#000000" d="M915,-575.8314C915,-568.131 915,-558.9743 915,-550.4166"/>
<polygon fill="#000000" stroke="#000000" points="918.5001,-550.4132 915,-540.4133 911.5001,-550.4133 918.5001,-550.4132"/>
</g>
<!-- 18540 -->
<g id="node38" class="node">
<title>18540</title>
<ellipse fill="none" stroke="#000000" cx="1072" cy="-306" rx="32.4942" ry="18"/>
<text text-anchor="middle" x="1072" y="-302.3" font-family="Times,serif" font-size="14.00" fill="#000000">18540</text>
</g>
<!-- 30070&#45;&gt;6904 -->
<g id="edge45" class="edge">
<title>30070&#45;&gt;6904</title>
<path fill="none" stroke="#000000" d="M961.0117,-361.3008C953.9438,-352.2135 945.064,-340.7966 937.2108,-330.6996"/>
<polygon fill="#000000" stroke="#000000" points="939.82,-328.3534 930.9178,-322.6087 934.2945,-332.651 939.82,-328.3534"/>
</g>
<!-- 30070&#45;&gt;7016 -->
<g id="edge46" class="edge">
<title>30070&#45;&gt;7016</title>
<path fill="none" stroke="#000000" d="M978.7945,-359.8314C980.8805,-351.9266 983.3714,-342.4872 985.6806,-333.7365"/>
<polygon fill="#000000" stroke="#000000" points="989.1054,-334.4755 988.2728,-323.9134 982.3371,-332.6894 989.1054,-334.4755"/>
</g>
<!-- 30070&#45;&gt;18540 -->
<g id="edge47" class="edge">
<title>30070&#45;&gt;18540</title>
<path fill="none" stroke="#000000" d="M993.8318,-363.4297C1008.1777,-352.8899 1027.7681,-338.4969 1043.7478,-326.7567"/>
<polygon fill="#000000" stroke="#000000" points="1046.2112,-329.29 1052.1977,-320.5486 1042.0666,-323.6488 1046.2112,-329.29"/>
</g>
<!-- 32787&#45;&gt;703 -->
<g id="edge48" class="edge">
<title>32787&#45;&gt;703</title>
<path fill="none" stroke="#000000" d="M858.8605,-76.2879C841.3753,-64.9461 816.3886,-48.7385 797.1999,-36.2918"/>
<polygon fill="#000000" stroke="#000000" points="798.8664,-33.201 788.5721,-30.6954 795.0571,-39.0738 798.8664,-33.201"/>
</g>
<!-- 32787&#45;&gt;2764 -->
<g id="edge49" class="edge">
<title>32787&#45;&gt;2764</title>
<path fill="none" stroke="#000000" d="M871.0433,-72.5708C866.6803,-64.0807 861.3422,-53.6929 856.4985,-44.2674"/>
<polygon fill="#000000" stroke="#000000" points="859.5579,-42.5633 851.8742,-35.2687 853.3319,-45.7628 859.5579,-42.5633"/>
</g>
<!-- 32787&#45;&gt;4637 -->
<g id="edge50" class="edge">
<title>32787&#45;&gt;4637</title>
<path fill="none" stroke="#000000" d="M889.1987,-72.5708C893.6797,-64.0807 899.1621,-53.6929 904.1366,-44.2674"/>
<polygon fill="#000000" stroke="#000000" points="907.3137,-45.7462 908.886,-35.2687 901.123,-42.4789 907.3137,-45.7462"/>
</g>
<!-- 32787&#45;&gt;7474 -->
<g id="edge51" class="edge">
<title>32787&#45;&gt;7474</title>
<path fill="none" stroke="#000000" d="M901.5204,-76.2879C919.2901,-64.9656 944.6704,-48.7941 964.1915,-36.3558"/>
<polygon fill="#000000" stroke="#000000" points="966.1472,-39.2599 972.7,-30.9345 962.3857,-33.3564 966.1472,-39.2599"/>
</g>
</g>
</svg>
