<?xml version="1.0" encoding="UTF-8" standalone="no"?>
<!DOCTYPE svg PUBLIC "-//W3C//DTD SVG 1.1//EN"
 "http://www.w3.org/Graphics/SVG/1.1/DTD/svg11.dtd">
<!-- Generated by graphviz version 2.40.1 (20161225.0304)
 -->
<!-- Title: %3 Pages: 1 -->
<svg width="1064pt" height="1890pt"
 viewBox="0.00 0.00 1064.00 1890.00" xmlns="http://www.w3.org/2000/svg" xmlns:xlink="http://www.w3.org/1999/xlink">
<g id="graph0" class="graph" transform="scale(1 1) rotate(0) translate(4 1886)">
<title>%3</title>
<polygon fill="#ffffff" stroke="transparent" points="-4,4 -4,-1886 1060,-1886 1060,4 -4,4"/>
<!-- 174 -->
<g id="node1" class="node">
<title>174</title>
<ellipse fill="none" stroke="#000000" cx="247.0491" cy="-63.3121" rx="27" ry="18"/>
<text text-anchor="middle" x="247.0491" y="-59.6121" font-family="Times,serif" font-size="14.00" fill="#000000">174</text>
</g>
<!-- 209 -->
<g id="node2" class="node">
<title>209</title>
<ellipse fill="none" stroke="#000000" cx="188.6772" cy="-18.099" rx="27" ry="18"/>
<text text-anchor="middle" x="188.6772" y="-14.399" font-family="Times,serif" font-size="14.00" fill="#000000">209</text>
</g>
<!-- 701 -->
<g id="node3" class="node">
<title>701</title>
<ellipse fill="none" stroke="#000000" cx="26.5068" cy="-151.3682" rx="27" ry="18"/>
<text text-anchor="middle" x="26.5068" y="-147.6682" font-family="Times,serif" font-size="14.00" fill="#000000">701</text>
</g>
<!-- 703 -->
<g id="node4" class="node">
<title>703</title>
<ellipse fill="none" stroke="#000000" cx="291.5432" cy="-883.867" rx="27" ry="18"/>
<text text-anchor="middle" x="291.5432" y="-880.167" font-family="Times,serif" font-size="14.00" fill="#000000">703</text>
</g>
<!-- 1239 -->
<g id="node5" class="node">
<title>1239</title>
<ellipse fill="none" stroke="#000000" cx="33.6472" cy="-100.4507" rx="28.6953" ry="18"/>
<text text-anchor="middle" x="33.6472" y="-96.7507" font-family="Times,serif" font-size="14.00" fill="#000000">1239</text>
</g>
<!-- 1273 -->
<g id="node6" class="node">
<title>1273</title>
<ellipse fill="none" stroke="#000000" cx="183.3497" cy="-67.0893" rx="28.6953" ry="18"/>
<text text-anchor="middle" x="183.3497" y="-63.3893" font-family="Times,serif" font-size="14.00" fill="#000000">1273</text>
</g>
<!-- 1299 -->
<g id="node7" class="node">
<title>1299</title>
<ellipse fill="none" stroke="#000000" cx="268.7593" cy="-114.914" rx="28.6953" ry="18"/>
<text text-anchor="middle" x="268.7593" y="-111.214" font-family="Times,serif" font-size="14.00" fill="#000000">1299</text>
</g>
<!-- 2497 -->
<g id="node8" class="node">
<title>2497</title>
<ellipse fill="none" stroke="#000000" cx="39.1516" cy="-49.6786" rx="28.6953" ry="18"/>
<text text-anchor="middle" x="39.1516" y="-45.9786" font-family="Times,serif" font-size="14.00" fill="#000000">2497</text>
</g>
<!-- 2516 -->
<g id="node9" class="node">
<title>2516</title>
<ellipse fill="none" stroke="#000000" cx="487.8262" cy="-718.8372" rx="28.6953" ry="18"/>
<text text-anchor="middle" x="487.8262" y="-715.1372" font-family="Times,serif" font-size="14.00" fill="#000000">2516</text>
</g>
<!-- 32787 -->
<g id="node43" class="node">
<title>32787</title>
<ellipse fill="none" stroke="#000000" cx="335.0032" cy="-770.3476" rx="32.4942" ry="18"/>
<text text-anchor="middle" x="335.0032" y="-766.6476" font-family="Times,serif" font-size="14.00" fill="#000000">32787</text>
</g>
<!-- 2516&#45;&gt;32787 -->
<g id="edge1" class="edge">
<title>2516&#45;&gt;32787</title>
<path fill="none" stroke="#000000" d="M462.5906,-727.3431C438.0197,-735.625 400.383,-748.3108 372.3462,-757.7609"/>
<polygon fill="#000000" stroke="#000000" points="371.225,-754.4452 362.8667,-760.956 373.4608,-761.0786 371.225,-754.4452"/>
</g>
<!-- 2686 -->
<g id="node10" class="node">
<title>2686</title>
<ellipse fill="none" stroke="#000000" cx="784.8635" cy="-610.3844" rx="28.6953" ry="18"/>
<text text-anchor="middle" x="784.8635" y="-606.6844" font-family="Times,serif" font-size="14.00" fill="#000000">2686</text>
</g>
<!-- 3741 -->
<g id="node21" class="node">
<title>3741</title>
<ellipse fill="none" stroke="#000000" cx="915.2428" cy="-544.5461" rx="28.6953" ry="18"/>
<text text-anchor="middle" x="915.2428" y="-540.8461" font-family="Times,serif" font-size="14.00" fill="#000000">3741</text>
</g>
<!-- 2686&#45;&gt;3741 -->
<g id="edge2" class="edge">
<title>2686&#45;&gt;3741</title>
<path fill="none" stroke="#000000" d="M807.2765,-599.0664C828.3588,-588.4204 860.1277,-572.3779 883.7525,-560.448"/>
<polygon fill="#000000" stroke="#000000" points="885.3372,-563.5687 892.686,-555.9368 882.1819,-557.3202 885.3372,-563.5687"/>
</g>
<!-- 2687 -->
<g id="node11" class="node">
<title>2687</title>
<ellipse fill="none" stroke="#000000" cx="656.1095" cy="-668.4902" rx="28.6953" ry="18"/>
<text text-anchor="middle" x="656.1095" y="-664.7902" font-family="Times,serif" font-size="14.00" fill="#000000">2687</text>
</g>
<!-- 2687&#45;&gt;2516 -->
<g id="edge3" class="edge">
<title>2687&#45;&gt;2516</title>
<path fill="none" stroke="#000000" d="M630.184,-676.2466C601.6487,-684.7838 555.5922,-698.563 523.625,-708.127"/>
<polygon fill="#000000" stroke="#000000" points="522.3583,-704.8525 513.7811,-711.072 524.3648,-711.5588 522.3583,-704.8525"/>
</g>
<!-- 2687&#45;&gt;2686 -->
<g id="edge4" class="edge">
<title>2687&#45;&gt;2686</title>
<path fill="none" stroke="#000000" d="M679.4258,-657.9677C699.7168,-648.8105 729.348,-635.4382 752.0351,-625.1997"/>
<polygon fill="#000000" stroke="#000000" points="753.6104,-628.3287 761.2855,-621.025 750.731,-621.9483 753.6104,-628.3287"/>
</g>
<!-- 9505 -->
<g id="node34" class="node">
<title>9505</title>
<ellipse fill="none" stroke="#000000" cx="721.7989" cy="-552.9999" rx="28.6953" ry="18"/>
<text text-anchor="middle" x="721.7989" y="-549.2999" font-family="Times,serif" font-size="14.00" fill="#000000">9505</text>
</g>
<!-- 2687&#45;&gt;9505 -->
<g id="edge5" class="edge">
<title>2687&#45;&gt;9505</title>
<path fill="none" stroke="#000000" d="M665.8022,-651.4492C676.6694,-632.3433 694.4166,-601.1415 707.0166,-578.989"/>
<polygon fill="#000000" stroke="#000000" points="710.1646,-580.5336 712.0665,-570.1108 704.08,-577.0727 710.1646,-580.5336"/>
</g>
<!-- 2764 -->
<g id="node12" class="node">
<title>2764</title>
<ellipse fill="none" stroke="#000000" cx="224.4232" cy="-840.5265" rx="28.6953" ry="18"/>
<text text-anchor="middle" x="224.4232" y="-836.8265" font-family="Times,serif" font-size="14.00" fill="#000000">2764</text>
</g>
<!-- 2828 -->
<g id="node13" class="node">
<title>2828</title>
<ellipse fill="none" stroke="#000000" cx="214.8386" cy="-478.0068" rx="28.6953" ry="18"/>
<text text-anchor="middle" x="214.8386" y="-474.3068" font-family="Times,serif" font-size="14.00" fill="#000000">2828</text>
</g>
<!-- 2914 -->
<g id="node14" class="node">
<title>2914</title>
<ellipse fill="none" stroke="#000000" cx="413.9079" cy="-649.0586" rx="28.6953" ry="18"/>
<text text-anchor="middle" x="413.9079" y="-645.3586" font-family="Times,serif" font-size="14.00" fill="#000000">2914</text>
</g>
<!-- 6453 -->
<g id="node25" class="node">
<title>6453</title>
<ellipse fill="none" stroke="#000000" cx="326.1047" cy="-495.7779" rx="28.6953" ry="18"/>
<text text-anchor="middle" x="326.1047" y="-492.0779" font-family="Times,serif" font-size="14.00" fill="#000000">6453</text>
</g>
<!-- 2914&#45;&gt;6453 -->
<g id="edge6" class="edge">
<title>2914&#45;&gt;6453</title>
<path fill="none" stroke="#000000" d="M404.1759,-632.0693C388.8806,-605.3678 359.1038,-553.3855 341.0707,-521.9044"/>
<polygon fill="#000000" stroke="#000000" points="343.8878,-519.7809 335.8802,-512.8433 337.8138,-523.2603 343.8878,-519.7809"/>
</g>
<!-- 3257 -->
<g id="node15" class="node">
<title>3257</title>
<ellipse fill="none" stroke="#000000" cx="234.3058" cy="-325.4332" rx="28.6953" ry="18"/>
<text text-anchor="middle" x="234.3058" y="-321.7332" font-family="Times,serif" font-size="14.00" fill="#000000">3257</text>
</g>
<!-- 3491 -->
<g id="node18" class="node">
<title>3491</title>
<ellipse fill="none" stroke="#000000" cx="152.9446" cy="-158.5778" rx="28.6953" ry="18"/>
<text text-anchor="middle" x="152.9446" y="-154.8778" font-family="Times,serif" font-size="14.00" fill="#000000">3491</text>
</g>
<!-- 3257&#45;&gt;3491 -->
<g id="edge7" class="edge">
<title>3257&#45;&gt;3491</title>
<path fill="none" stroke="#000000" d="M225.9052,-308.2052C211.6543,-278.9795 182.6531,-219.5039 165.8232,-184.9892"/>
<polygon fill="#000000" stroke="#000000" points="168.9502,-183.4164 161.4214,-175.9621 162.6584,-186.4845 168.9502,-183.4164"/>
</g>
<!-- 5511 -->
<g id="node23" class="node">
<title>5511</title>
<ellipse fill="none" stroke="#000000" cx="122.9499" cy="-338.5164" rx="28.6953" ry="18"/>
<text text-anchor="middle" x="122.9499" y="-334.8164" font-family="Times,serif" font-size="14.00" fill="#000000">5511</text>
</g>
<!-- 3257&#45;&gt;5511 -->
<g id="edge8" class="edge">
<title>3257&#45;&gt;5511</title>
<path fill="none" stroke="#000000" d="M205.9179,-328.7685C192.4364,-330.3524 176.1189,-332.2696 161.5343,-333.9831"/>
<polygon fill="#000000" stroke="#000000" points="160.8092,-330.5441 151.286,-335.1872 161.6261,-337.4963 160.8092,-330.5441"/>
</g>
<!-- 3320 -->
<g id="node16" class="node">
<title>3320</title>
<ellipse fill="none" stroke="#000000" cx="109.4395" cy="-92.6881" rx="28.6953" ry="18"/>
<text text-anchor="middle" x="109.4395" y="-88.9881" font-family="Times,serif" font-size="14.00" fill="#000000">3320</text>
</g>
<!-- 3356 -->
<g id="node17" class="node">
<title>3356</title>
<ellipse fill="none" stroke="#000000" cx="567.4336" cy="-1149.4573" rx="28.6953" ry="18"/>
<text text-anchor="middle" x="567.4336" y="-1145.7573" font-family="Times,serif" font-size="14.00" fill="#000000">3356</text>
</g>
<!-- 3549 -->
<g id="node19" class="node">
<title>3549</title>
<ellipse fill="none" stroke="#000000" cx="589.1357" cy="-968.7278" rx="28.6953" ry="18"/>
<text text-anchor="middle" x="589.1357" y="-965.0278" font-family="Times,serif" font-size="14.00" fill="#000000">3549</text>
</g>
<!-- 3356&#45;&gt;3549 -->
<g id="edge9" class="edge">
<title>3356&#45;&gt;3549</title>
<path fill="none" stroke="#000000" d="M569.5938,-1131.4675C573.3702,-1100.019 581.1993,-1034.8198 585.7178,-997.1913"/>
<polygon fill="#000000" stroke="#000000" points="589.2347,-997.259 586.952,-986.9131 582.2846,-996.4244 589.2347,-997.259"/>
</g>
<!-- 3491&#45;&gt;174 -->
<g id="edge10" class="edge">
<title>3491&#45;&gt;174</title>
<path fill="none" stroke="#000000" d="M168.0641,-143.2717C183.4299,-127.7163 207.3984,-103.452 224.9042,-85.7302"/>
<polygon fill="#000000" stroke="#000000" points="227.4295,-88.1542 231.9671,-78.5802 222.4495,-83.2348 227.4295,-88.1542"/>
</g>
<!-- 3491&#45;&gt;209 -->
<g id="edge11" class="edge">
<title>3491&#45;&gt;209</title>
<path fill="none" stroke="#000000" d="M157.4701,-140.7861C163.5315,-116.9563 174.3526,-74.4146 181.5235,-46.2231"/>
<polygon fill="#000000" stroke="#000000" points="185.0023,-46.7442 184.0755,-36.19 178.2183,-45.0186 185.0023,-46.7442"/>
</g>
<!-- 3491&#45;&gt;701 -->
<g id="edge12" class="edge">
<title>3491&#45;&gt;701</title>
<path fill="none" stroke="#000000" d="M124.2539,-156.9418C106.3433,-155.9206 83.0992,-154.5952 63.7715,-153.4931"/>
<polygon fill="#000000" stroke="#000000" points="63.9669,-149.9986 53.7838,-152.9236 63.5683,-156.9873 63.9669,-149.9986"/>
</g>
<!-- 3491&#45;&gt;1239 -->
<g id="edge13" class="edge">
<title>3491&#45;&gt;1239</title>
<path fill="none" stroke="#000000" d="M130.2248,-147.5077C111.8995,-138.5788 85.9075,-125.9143 65.5035,-115.9725"/>
<polygon fill="#000000" stroke="#000000" points="66.8051,-112.7134 56.2824,-111.4795 63.739,-119.0062 66.8051,-112.7134"/>
</g>
<!-- 3491&#45;&gt;1273 -->
<g id="edge14" class="edge">
<title>3491&#45;&gt;1273</title>
<path fill="none" stroke="#000000" d="M158.807,-140.9379C163.1535,-127.8594 169.1631,-109.7766 174.1476,-94.7784"/>
<polygon fill="#000000" stroke="#000000" points="177.5691,-95.5807 177.4016,-84.9872 170.9263,-93.373 177.5691,-95.5807"/>
</g>
<!-- 3491&#45;&gt;1299 -->
<g id="edge15" class="edge">
<title>3491&#45;&gt;1299</title>
<path fill="none" stroke="#000000" d="M177.5059,-149.3179C194.0533,-143.0793 216.1115,-134.763 234.3955,-127.8697"/>
<polygon fill="#000000" stroke="#000000" points="235.7117,-131.114 243.8341,-124.3112 233.2423,-124.564 235.7117,-131.114"/>
</g>
<!-- 3491&#45;&gt;2497 -->
<g id="edge16" class="edge">
<title>3491&#45;&gt;2497</title>
<path fill="none" stroke="#000000" d="M137.1221,-143.4359C117.7839,-124.9292 84.8905,-93.4504 62.6065,-72.1248"/>
<polygon fill="#000000" stroke="#000000" points="64.8512,-69.4284 55.2065,-65.043 60.0113,-74.4857 64.8512,-69.4284"/>
</g>
<!-- 3491&#45;&gt;3320 -->
<g id="edge17" class="edge">
<title>3491&#45;&gt;3320</title>
<path fill="none" stroke="#000000" d="M141.9664,-141.9511C137.1601,-134.6718 131.415,-125.9707 126.0997,-117.9204"/>
<polygon fill="#000000" stroke="#000000" points="128.9963,-115.9553 120.5655,-109.5387 123.1547,-119.8123 128.9963,-115.9553"/>
</g>
<!-- 6461 -->
<g id="node26" class="node">
<title>6461</title>
<ellipse fill="none" stroke="#000000" cx="43.1444" cy="-200.9244" rx="28.6953" ry="18"/>
<text text-anchor="middle" x="43.1444" y="-197.2244" font-family="Times,serif" font-size="14.00" fill="#000000">6461</text>
</g>
<!-- 3491&#45;&gt;6461 -->
<g id="edge18" class="edge">
<title>3491&#45;&gt;6461</title>
<path fill="none" stroke="#000000" d="M128.3032,-168.0812C113.1868,-173.9112 93.6194,-181.4577 77.0538,-187.8466"/>
<polygon fill="#000000" stroke="#000000" points="75.7741,-184.5888 67.7034,-191.4528 78.293,-191.1199 75.7741,-184.5888"/>
</g>
<!-- 7018 -->
<g id="node30" class="node">
<title>7018</title>
<ellipse fill="none" stroke="#000000" cx="113.3661" cy="-20.6267" rx="28.6953" ry="18"/>
<text text-anchor="middle" x="113.3661" y="-16.9267" font-family="Times,serif" font-size="14.00" fill="#000000">7018</text>
</g>
<!-- 3491&#45;&gt;7018 -->
<g id="edge19" class="edge">
<title>3491&#45;&gt;7018</title>
<path fill="none" stroke="#000000" d="M147.8514,-140.8255C141.1497,-117.4668 129.2966,-76.1528 121.3855,-48.5783"/>
<polygon fill="#000000" stroke="#000000" points="124.6875,-47.3959 118.5654,-38.7489 117.959,-49.3263 124.6875,-47.3959"/>
</g>
<!-- 6762 -->
<g id="node27" class="node">
<title>6762</title>
<ellipse fill="none" stroke="#000000" cx="503.1922" cy="-813.6614" rx="28.6953" ry="18"/>
<text text-anchor="middle" x="503.1922" y="-809.9614" font-family="Times,serif" font-size="14.00" fill="#000000">6762</text>
</g>
<!-- 3549&#45;&gt;6762 -->
<g id="edge20" class="edge">
<title>3549&#45;&gt;6762</title>
<path fill="none" stroke="#000000" d="M579.6099,-951.5405C564.574,-924.4115 535.2409,-871.4863 517.6136,-839.6817"/>
<polygon fill="#000000" stroke="#000000" points="520.6696,-837.9755 512.7607,-830.9257 514.5471,-841.3689 520.6696,-837.9755"/>
</g>
<!-- 30070 -->
<g id="node42" class="node">
<title>30070</title>
<ellipse fill="none" stroke="#000000" cx="747.7422" cy="-930.9226" rx="32.4942" ry="18"/>
<text text-anchor="middle" x="747.7422" y="-927.2226" font-family="Times,serif" font-size="14.00" fill="#000000">30070</text>
</g>
<!-- 3549&#45;&gt;30070 -->
<g id="edge21" class="edge">
<title>3549&#45;&gt;30070</title>
<path fill="none" stroke="#000000" d="M616.0411,-962.3147C641.2612,-956.3033 679.2785,-947.2415 707.9944,-940.3968"/>
<polygon fill="#000000" stroke="#000000" points="708.8115,-943.8002 717.7275,-938.0769 707.1884,-936.991 708.8115,-943.8002"/>
</g>
<!-- 3597 -->
<g id="node20" class="node">
<title>3597</title>
<ellipse fill="none" stroke="#000000" cx="385.0793" cy="-1657.1342" rx="28.6953" ry="18"/>
<text text-anchor="middle" x="385.0793" y="-1653.4342" font-family="Times,serif" font-size="14.00" fill="#000000">3597</text>
</g>
<!-- 37179 -->
<g id="node44" class="node">
<title>37179</title>
<ellipse fill="none" stroke="#000000" cx="1023.8938" cy="-485.5469" rx="32.4942" ry="18"/>
<text text-anchor="middle" x="1023.8938" y="-481.8469" font-family="Times,serif" font-size="14.00" fill="#000000">37179</text>
</g>
<!-- 3741&#45;&gt;37179 -->
<g id="edge22" class="edge">
<title>3741&#45;&gt;37179</title>
<path fill="none" stroke="#000000" d="M936.9689,-532.7485C952.5786,-524.2722 973.8866,-512.7016 991.4989,-503.1379"/>
<polygon fill="#000000" stroke="#000000" points="993.2046,-506.1944 1000.3224,-498.3466 989.8642,-500.0428 993.2046,-506.1944"/>
</g>
<!-- 4637 -->
<g id="node22" class="node">
<title>4637</title>
<ellipse fill="none" stroke="#000000" cx="204.2433" cy="-782.8577" rx="28.6953" ry="18"/>
<text text-anchor="middle" x="204.2433" y="-779.1577" font-family="Times,serif" font-size="14.00" fill="#000000">4637</text>
</g>
<!-- 5692 -->
<g id="node24" class="node">
<title>5692</title>
<ellipse fill="none" stroke="#000000" cx="474.8658" cy="-1716.2139" rx="28.6953" ry="18"/>
<text text-anchor="middle" x="474.8658" y="-1712.5139" font-family="Times,serif" font-size="14.00" fill="#000000">5692</text>
</g>
<!-- 5692&#45;&gt;3597 -->
<g id="edge23" class="edge">
<title>5692&#45;&gt;3597</title>
<path fill="none" stroke="#000000" d="M454.9392,-1703.1022C442.7337,-1695.0709 426.9179,-1684.6641 413.4223,-1675.7839"/>
<polygon fill="#000000" stroke="#000000" points="415.2278,-1672.7822 404.9501,-1670.2092 411.38,-1678.6299 415.2278,-1672.7822"/>
</g>
<!-- 10834 -->
<g id="node35" class="node">
<title>10834</title>
<ellipse fill="none" stroke="#000000" cx="503.3673" cy="-1525.1412" rx="32.4942" ry="18"/>
<text text-anchor="middle" x="503.3673" y="-1521.4412" font-family="Times,serif" font-size="14.00" fill="#000000">10834</text>
</g>
<!-- 5692&#45;&gt;10834 -->
<g id="edge24" class="edge">
<title>5692&#45;&gt;10834</title>
<path fill="none" stroke="#000000" d="M477.5471,-1698.2382C482.5231,-1664.8798 493.2193,-1593.1727 499.1649,-1553.3143"/>
<polygon fill="#000000" stroke="#000000" points="502.6586,-1553.6153 500.6723,-1543.2083 495.7352,-1552.5825 502.6586,-1553.6153"/>
</g>
<!-- 11008 -->
<g id="node36" class="node">
<title>11008</title>
<ellipse fill="none" stroke="#000000" cx="490.1875" cy="-1806.7138" rx="32.4942" ry="18"/>
<text text-anchor="middle" x="490.1875" y="-1803.0138" font-family="Times,serif" font-size="14.00" fill="#000000">11008</text>
</g>
<!-- 5692&#45;&gt;11008 -->
<g id="edge25" class="edge">
<title>5692&#45;&gt;11008</title>
<path fill="none" stroke="#000000" d="M477.9664,-1734.5279C480.1195,-1747.2457 483.0283,-1764.4267 485.4679,-1778.8365"/>
<polygon fill="#000000" stroke="#000000" points="482.0236,-1779.4604 487.1438,-1788.7359 488.9254,-1778.2919 482.0236,-1779.4604"/>
</g>
<!-- 27865 -->
<g id="node40" class="node">
<title>27865</title>
<ellipse fill="none" stroke="#000000" cx="494.7731" cy="-1863.5291" rx="32.4942" ry="18"/>
<text text-anchor="middle" x="494.7731" y="-1859.8291" font-family="Times,serif" font-size="14.00" fill="#000000">27865</text>
</g>
<!-- 5692&#45;&gt;27865 -->
<g id="edge26" class="edge">
<title>5692&#45;&gt;27865</title>
<path fill="none" stroke="#000000" d="M477.3068,-1734.2776C480.7097,-1759.4589 486.9132,-1805.3653 490.9373,-1835.1443"/>
<polygon fill="#000000" stroke="#000000" points="487.5044,-1835.8764 492.3121,-1845.3176 494.4413,-1834.9389 487.5044,-1835.8764"/>
</g>
<!-- 28065 -->
<g id="node41" class="node">
<title>28065</title>
<ellipse fill="none" stroke="#000000" cx="348.2284" cy="-1708.0286" rx="32.4942" ry="18"/>
<text text-anchor="middle" x="348.2284" y="-1704.3286" font-family="Times,serif" font-size="14.00" fill="#000000">28065</text>
</g>
<!-- 5692&#45;&gt;28065 -->
<g id="edge27" class="edge">
<title>5692&#45;&gt;28065</title>
<path fill="none" stroke="#000000" d="M446.1298,-1714.3565C429.8272,-1713.3028 409.1127,-1711.9639 390.9399,-1710.7893"/>
<polygon fill="#000000" stroke="#000000" points="391.0739,-1707.2908 380.8689,-1710.1384 390.6223,-1714.2762 391.0739,-1707.2908"/>
</g>
<!-- 52317 -->
<g id="node45" class="node">
<title>52317</title>
<ellipse fill="none" stroke="#000000" cx="334.111" cy="-1807.1794" rx="32.4942" ry="18"/>
<text text-anchor="middle" x="334.111" y="-1803.4794" font-family="Times,serif" font-size="14.00" fill="#000000">52317</text>
</g>
<!-- 5692&#45;&gt;52317 -->
<g id="edge28" class="edge">
<title>5692&#45;&gt;52317</title>
<path fill="none" stroke="#000000" d="M454.6991,-1729.247C430.9662,-1744.5849 391.3378,-1770.1955 364.0245,-1787.8472"/>
<polygon fill="#000000" stroke="#000000" points="362.124,-1784.9081 355.6251,-1793.2755 365.9236,-1790.7872 362.124,-1784.9081"/>
</g>
<!-- 52375 -->
<g id="node46" class="node">
<title>52375</title>
<ellipse fill="none" stroke="#000000" cx="601.8744" cy="-1746.2164" rx="32.4942" ry="18"/>
<text text-anchor="middle" x="601.8744" y="-1742.5164" font-family="Times,serif" font-size="14.00" fill="#000000">52375</text>
</g>
<!-- 5692&#45;&gt;52375 -->
<g id="edge29" class="edge">
<title>5692&#45;&gt;52375</title>
<path fill="none" stroke="#000000" d="M501.801,-1722.5766C519.2873,-1726.7073 542.3852,-1732.1636 561.9839,-1736.7933"/>
<polygon fill="#000000" stroke="#000000" points="561.3288,-1740.2348 571.8656,-1739.1276 562.9381,-1733.4223 561.3288,-1740.2348"/>
</g>
<!-- 52376 -->
<g id="node47" class="node">
<title>52376</title>
<ellipse fill="none" stroke="#000000" cx="418.1347" cy="-1857.8572" rx="32.4942" ry="18"/>
<text text-anchor="middle" x="418.1347" y="-1854.1572" font-family="Times,serif" font-size="14.00" fill="#000000">52376</text>
</g>
<!-- 5692&#45;&gt;52376 -->
<g id="edge30" class="edge">
<title>5692&#45;&gt;52376</title>
<path fill="none" stroke="#000000" d="M467.7955,-1733.8667C458.0709,-1758.1466 440.4769,-1802.0742 429.0541,-1830.5941"/>
<polygon fill="#000000" stroke="#000000" points="425.7632,-1829.3975 425.2941,-1839.9819 432.2614,-1832.0002 425.7632,-1829.3975"/>
</g>
<!-- 52380 -->
<g id="node48" class="node">
<title>52380</title>
<ellipse fill="none" stroke="#000000" cx="414.5524" cy="-1802.0144" rx="32.4942" ry="18"/>
<text text-anchor="middle" x="414.5524" y="-1798.3144" font-family="Times,serif" font-size="14.00" fill="#000000">52380</text>
</g>
<!-- 5692&#45;&gt;52380 -->
<g id="edge31" class="edge">
<title>5692&#45;&gt;52380</title>
<path fill="none" stroke="#000000" d="M463.2367,-1732.7571C454.449,-1745.2584 442.2341,-1762.635 432.2382,-1776.855"/>
<polygon fill="#000000" stroke="#000000" points="429.239,-1775.0355 426.3515,-1785.2292 434.9657,-1779.0611 429.239,-1775.0355"/>
</g>
<!-- 52413 -->
<g id="node49" class="node">
<title>52413</title>
<ellipse fill="none" stroke="#000000" cx="355.5131" cy="-1757.521" rx="32.4942" ry="18"/>
<text text-anchor="middle" x="355.5131" y="-1753.821" font-family="Times,serif" font-size="14.00" fill="#000000">52413</text>
</g>
<!-- 5692&#45;&gt;52413 -->
<g id="edge32" class="edge">
<title>5692&#45;&gt;52413</title>
<path fill="none" stroke="#000000" d="M449.5541,-1724.9741C433.0813,-1730.6752 411.309,-1738.2104 392.8625,-1744.5947"/>
<polygon fill="#000000" stroke="#000000" points="391.5943,-1741.3298 383.2889,-1747.908 393.8837,-1747.9448 391.5943,-1741.3298"/>
</g>
<!-- 52431 -->
<g id="node50" class="node">
<title>52431</title>
<ellipse fill="none" stroke="#000000" cx="591.7236" cy="-1686.2706" rx="32.4942" ry="18"/>
<text text-anchor="middle" x="591.7236" y="-1682.5706" font-family="Times,serif" font-size="14.00" fill="#000000">52431</text>
</g>
<!-- 5692&#45;&gt;52431 -->
<g id="edge33" class="edge">
<title>5692&#45;&gt;52431</title>
<path fill="none" stroke="#000000" d="M501.3826,-1709.4193C516.3279,-1705.5898 535.2913,-1700.7307 551.9812,-1696.4541"/>
<polygon fill="#000000" stroke="#000000" points="553.2047,-1699.7537 562.023,-1693.881 551.4671,-1692.9728 553.2047,-1699.7537"/>
</g>
<!-- 262230 -->
<g id="node51" class="node">
<title>262230</title>
<ellipse fill="none" stroke="#000000" cx="576.5119" cy="-1842.6529" rx="37.0935" ry="18"/>
<text text-anchor="middle" x="576.5119" y="-1838.9529" font-family="Times,serif" font-size="14.00" fill="#000000">262230</text>
</g>
<!-- 5692&#45;&gt;262230 -->
<g id="edge34" class="edge">
<title>5692&#45;&gt;262230</title>
<path fill="none" stroke="#000000" d="M487.9462,-1732.4847C505.2886,-1754.0572 536.0634,-1792.3384 556.379,-1817.6093"/>
<polygon fill="#000000" stroke="#000000" points="553.8398,-1820.0369 562.8332,-1825.6377 559.2954,-1815.651 553.8398,-1820.0369"/>
</g>
<!-- 264608 -->
<g id="node52" class="node">
<title>264608</title>
<ellipse fill="none" stroke="#000000" cx="589.4915" cy="-1796.4513" rx="37.0935" ry="18"/>
<text text-anchor="middle" x="589.4915" y="-1792.7513" font-family="Times,serif" font-size="14.00" fill="#000000">264608</text>
</g>
<!-- 5692&#45;&gt;264608 -->
<g id="edge35" class="edge">
<title>5692&#45;&gt;264608</title>
<path fill="none" stroke="#000000" d="M494.0516,-1729.6438C512.0082,-1742.2134 539.1034,-1761.1799 559.8417,-1775.6966"/>
<polygon fill="#000000" stroke="#000000" points="558.0957,-1778.7467 568.2951,-1781.614 562.1099,-1773.012 558.0957,-1778.7467"/>
</g>
<!-- 6453&#45;&gt;2828 -->
<g id="edge36" class="edge">
<title>6453&#45;&gt;2828</title>
<path fill="none" stroke="#000000" d="M298.3146,-491.3393C284.5077,-489.1341 267.6182,-486.4366 252.6522,-484.0463"/>
<polygon fill="#000000" stroke="#000000" points="253.0869,-480.5714 242.66,-482.4503 251.9828,-487.4838 253.0869,-480.5714"/>
</g>
<!-- 6453&#45;&gt;3257 -->
<g id="edge37" class="edge">
<title>6453&#45;&gt;3257</title>
<path fill="none" stroke="#000000" d="M316.7973,-478.5069C300.6731,-448.5863 267.4524,-386.9409 248.456,-351.6908"/>
<polygon fill="#000000" stroke="#000000" points="251.3264,-349.6394 243.5013,-342.4967 245.1643,-352.9602 251.3264,-349.6394"/>
</g>
<!-- 6762&#45;&gt;2914 -->
<g id="edge38" class="edge">
<title>6762&#45;&gt;2914</title>
<path fill="none" stroke="#000000" d="M493.806,-796.3572C478.0909,-767.3852 446.3726,-708.9099 427.9787,-674.9993"/>
<polygon fill="#000000" stroke="#000000" points="431.0129,-673.2524 423.1684,-666.1311 424.8598,-676.59 431.0129,-673.2524"/>
</g>
<!-- 6904 -->
<g id="node28" class="node">
<title>6904</title>
<ellipse fill="none" stroke="#000000" cx="716.4551" cy="-788.6565" rx="28.6953" ry="18"/>
<text text-anchor="middle" x="716.4551" y="-784.9565" font-family="Times,serif" font-size="14.00" fill="#000000">6904</text>
</g>
<!-- 6904&#45;&gt;2687 -->
<g id="edge39" class="edge">
<title>6904&#45;&gt;2687</title>
<path fill="none" stroke="#000000" d="M707.8091,-771.4396C697.7265,-751.3622 680.9523,-717.9598 669.2547,-694.6662"/>
<polygon fill="#000000" stroke="#000000" points="672.355,-693.0409 664.7395,-685.6752 666.0995,-696.1824 672.355,-693.0409"/>
</g>
<!-- 7016 -->
<g id="node29" class="node">
<title>7016</title>
<ellipse fill="none" stroke="#000000" cx="888.7977" cy="-939.6738" rx="28.6953" ry="18"/>
<text text-anchor="middle" x="888.7977" y="-935.9738" font-family="Times,serif" font-size="14.00" fill="#000000">7016</text>
</g>
<!-- 7922 -->
<g id="node33" class="node">
<title>7922</title>
<ellipse fill="none" stroke="#000000" cx="1017.5598" cy="-954.8205" rx="28.6953" ry="18"/>
<text text-anchor="middle" x="1017.5598" y="-951.1205" font-family="Times,serif" font-size="14.00" fill="#000000">7922</text>
</g>
<!-- 7016&#45;&gt;7922 -->
<g id="edge40" class="edge">
<title>7016&#45;&gt;7922</title>
<path fill="none" stroke="#000000" d="M917.0551,-942.9978C935.337,-945.1483 959.3647,-947.9748 979.3424,-950.3248"/>
<polygon fill="#000000" stroke="#000000" points="979.0279,-953.8119 989.3683,-951.5042 979.8458,-946.8598 979.0279,-953.8119"/>
</g>
<!-- 7473 -->
<g id="node31" class="node">
<title>7473</title>
<ellipse fill="none" stroke="#000000" cx="792.3864" cy="-445.855" rx="28.6953" ry="18"/>
<text text-anchor="middle" x="792.3864" y="-442.155" font-family="Times,serif" font-size="14.00" fill="#000000">7473</text>
</g>
<!-- 7474 -->
<g id="node32" class="node">
<title>7474</title>
<ellipse fill="none" stroke="#000000" cx="221.341" cy="-718.0712" rx="28.6953" ry="18"/>
<text text-anchor="middle" x="221.341" y="-714.3712" font-family="Times,serif" font-size="14.00" fill="#000000">7474</text>
</g>
<!-- 9505&#45;&gt;7473 -->
<g id="edge41" class="edge">
<title>9505&#45;&gt;7473</title>
<path fill="none" stroke="#000000" d="M732.8282,-536.2585C744.3122,-518.8269 762.4393,-491.3117 775.6812,-471.2118"/>
<polygon fill="#000000" stroke="#000000" points="778.6229,-473.1086 781.2016,-462.8324 772.7774,-469.2576 778.6229,-473.1086"/>
</g>
<!-- 12956 -->
<g id="node37" class="node">
<title>12956</title>
<ellipse fill="none" stroke="#000000" cx="539.9818" cy="-1325.3277" rx="32.4942" ry="18"/>
<text text-anchor="middle" x="539.9818" y="-1321.6277" font-family="Times,serif" font-size="14.00" fill="#000000">12956</text>
</g>
<!-- 10834&#45;&gt;12956 -->
<g id="edge42" class="edge">
<title>10834&#45;&gt;12956</title>
<path fill="none" stroke="#000000" d="M506.6812,-1507.0567C513.0777,-1472.1492 527.1678,-1395.2562 534.8094,-1353.5547"/>
<polygon fill="#000000" stroke="#000000" points="538.2892,-1353.9824 536.649,-1343.5153 531.4038,-1352.7207 538.2892,-1353.9824"/>
</g>
<!-- 22927 -->
<g id="node39" class="node">
<title>22927</title>
<ellipse fill="none" stroke="#000000" cx="390.823" cy="-1494.8455" rx="32.4942" ry="18"/>
<text text-anchor="middle" x="390.823" y="-1491.1455" font-family="Times,serif" font-size="14.00" fill="#000000">22927</text>
</g>
<!-- 10834&#45;&gt;22927 -->
<g id="edge43" class="edge">
<title>10834&#45;&gt;22927</title>
<path fill="none" stroke="#000000" d="M474.0914,-1517.2605C460.6503,-1513.6423 444.5161,-1509.2991 430.0437,-1505.4033"/>
<polygon fill="#000000" stroke="#000000" points="430.9094,-1502.0118 420.3433,-1502.792 429.0898,-1508.7712 430.9094,-1502.0118"/>
</g>
<!-- 12956&#45;&gt;3356 -->
<g id="edge44" class="edge">
<title>12956&#45;&gt;3356</title>
<path fill="none" stroke="#000000" d="M542.8162,-1307.1689C547.6165,-1276.4159 557.3769,-1213.8857 563.0596,-1177.4793"/>
<polygon fill="#000000" stroke="#000000" points="566.5304,-1177.9375 564.6146,-1167.5173 559.6141,-1176.8578 566.5304,-1177.9375"/>
</g>
<!-- 18540 -->
<g id="node38" class="node">
<title>18540</title>
<ellipse fill="none" stroke="#000000" cx="842.9886" cy="-1006.7128" rx="32.4942" ry="18"/>
<text text-anchor="middle" x="842.9886" y="-1003.0128" font-family="Times,serif" font-size="14.00" fill="#000000">18540</text>
</g>
<!-- 30070&#45;&gt;6904 -->
<g id="edge45" class="edge">
<title>30070&#45;&gt;6904</title>
<path fill="none" stroke="#000000" d="M743.7797,-912.9045C738.4432,-888.639 728.8934,-845.2146 722.6157,-816.6692"/>
<polygon fill="#000000" stroke="#000000" points="725.9517,-815.5432 720.3855,-806.5283 719.1151,-817.0467 725.9517,-815.5432"/>
</g>
<!-- 30070&#45;&gt;7016 -->
<g id="edge46" class="edge">
<title>30070&#45;&gt;7016</title>
<path fill="none" stroke="#000000" d="M780.1032,-932.9303C800.8873,-934.2198 827.9996,-935.9018 849.9464,-937.2634"/>
<polygon fill="#000000" stroke="#000000" points="849.7417,-940.7573 859.9393,-937.8834 850.1753,-933.7708 849.7417,-940.7573"/>
</g>
<!-- 30070&#45;&gt;18540 -->
<g id="edge47" class="edge">
<title>30070&#45;&gt;18540</title>
<path fill="none" stroke="#000000" d="M766.5599,-945.8963C780.7792,-957.2111 800.4867,-972.8928 816.328,-985.4982"/>
<polygon fill="#000000" stroke="#000000" points="814.2058,-988.2823 824.2101,-991.7702 818.5644,-982.8049 814.2058,-988.2823"/>
</g>
<!-- 32787&#45;&gt;703 -->
<g id="edge48" class="edge">
<title>32787&#45;&gt;703</title>
<path fill="none" stroke="#000000" d="M328.2126,-788.085C321.1642,-806.4958 310.0514,-835.5229 301.9053,-856.8008"/>
<polygon fill="#000000" stroke="#000000" points="298.5929,-855.6637 298.2862,-866.2541 305.1302,-858.1665 298.5929,-855.6637"/>
</g>
<!-- 32787&#45;&gt;2764 -->
<g id="edge49" class="edge">
<title>32787&#45;&gt;2764</title>
<path fill="none" stroke="#000000" d="M313.4198,-784.0454C296.2736,-794.9271 272.1341,-810.2471 253.3208,-822.1868"/>
<polygon fill="#000000" stroke="#000000" points="251.3999,-819.2605 244.8321,-827.5741 255.1508,-825.1708 251.3999,-819.2605"/>
</g>
<!-- 32787&#45;&gt;4637 -->
<g id="edge50" class="edge">
<title>32787&#45;&gt;4637</title>
<path fill="none" stroke="#000000" d="M302.6805,-773.44C284.5581,-775.1738 261.8371,-777.3476 242.7916,-779.1697"/>
<polygon fill="#000000" stroke="#000000" points="242.2626,-775.7042 232.6414,-780.1408 242.9293,-782.6724 242.2626,-775.7042"/>
</g>
<!-- 32787&#45;&gt;7474 -->
<g id="edge51" class="edge">
<title>32787&#45;&gt;7474</title>
<path fill="none" stroke="#000000" d="M309.7779,-758.7458C293.3334,-751.1825 271.7121,-741.2383 253.9645,-733.0757"/>
<polygon fill="#000000" stroke="#000000" points="255.1084,-729.7494 244.5607,-728.7506 252.1834,-736.109 255.1084,-729.7494"/>
</g>
</g>
</svg>
