<?xml version="1.0" encoding="UTF-8" standalone="no"?>
<!DOCTYPE svg PUBLIC "-//W3C//DTD SVG 1.1//EN"
 "http://www.w3.org/Graphics/SVG/1.1/DTD/svg11.dtd">
<!-- Generated by graphviz version 2.40.1 (20161225.0304)
 -->
<!-- Title: %3 Pages: 1 -->
<svg width="708pt" height="674pt"
 viewBox="0.00 0.00 708.49 673.53" xmlns="http://www.w3.org/2000/svg" xmlns:xlink="http://www.w3.org/1999/xlink">
<g id="graph0" class="graph" transform="scale(1 1) rotate(0) translate(4 669.5272)">
<title>%3</title>
<polygon fill="#ffffff" stroke="transparent" points="-4,4 -4,-669.5272 704.492,-669.5272 704.492,4 -4,4"/>
<!-- 174 -->
<g id="node1" class="node">
<title>174</title>
<ellipse fill="none" stroke="#000000" cx="100.436" cy="-339.0195" rx="27" ry="18"/>
<text text-anchor="middle" x="100.436" y="-335.3195" font-family="Times,serif" font-size="14.00" fill="#000000">174</text>
</g>
<!-- 209 -->
<g id="node2" class="node">
<title>209</title>
<ellipse fill="none" stroke="#000000" cx="27" cy="-372.0221" rx="27" ry="18"/>
<text text-anchor="middle" x="27" y="-368.3221" font-family="Times,serif" font-size="14.00" fill="#000000">209</text>
</g>
<!-- 701 -->
<g id="node3" class="node">
<title>701</title>
<ellipse fill="none" stroke="#000000" cx="71.4093" cy="-335.0201" rx="27" ry="18"/>
<text text-anchor="middle" x="71.4093" y="-331.3201" font-family="Times,serif" font-size="14.00" fill="#000000">701</text>
</g>
<!-- 703 -->
<g id="node4" class="node">
<title>703</title>
<ellipse fill="none" stroke="#000000" cx="619.1595" cy="-510.5041" rx="27" ry="18"/>
<text text-anchor="middle" x="619.1595" y="-506.8041" font-family="Times,serif" font-size="14.00" fill="#000000">703</text>
</g>
<!-- 1239 -->
<g id="node5" class="node">
<title>1239</title>
<ellipse fill="none" stroke="#000000" cx="113.2753" cy="-367.7486" rx="28.6953" ry="18"/>
<text text-anchor="middle" x="113.2753" y="-364.0486" font-family="Times,serif" font-size="14.00" fill="#000000">1239</text>
</g>
<!-- 1273 -->
<g id="node6" class="node">
<title>1273</title>
<ellipse fill="none" stroke="#000000" cx="46.7324" cy="-346.8939" rx="28.6953" ry="18"/>
<text text-anchor="middle" x="46.7324" y="-343.1939" font-family="Times,serif" font-size="14.00" fill="#000000">1273</text>
</g>
<!-- 1299 -->
<g id="node7" class="node">
<title>1299</title>
<ellipse fill="none" stroke="#000000" cx="35.2388" cy="-418.9611" rx="28.6953" ry="18"/>
<text text-anchor="middle" x="35.2388" y="-415.2611" font-family="Times,serif" font-size="14.00" fill="#000000">1299</text>
</g>
<!-- 2497 -->
<g id="node8" class="node">
<title>2497</title>
<ellipse fill="none" stroke="#000000" cx="47.9715" cy="-393.0865" rx="28.6953" ry="18"/>
<text text-anchor="middle" x="47.9715" y="-389.3865" font-family="Times,serif" font-size="14.00" fill="#000000">2497</text>
</g>
<!-- 2516 -->
<g id="node9" class="node">
<title>2516</title>
<ellipse fill="none" stroke="#000000" cx="571.4797" cy="-536.8854" rx="28.6953" ry="18"/>
<text text-anchor="middle" x="571.4797" y="-533.1854" font-family="Times,serif" font-size="14.00" fill="#000000">2516</text>
</g>
<!-- 32787 -->
<g id="node43" class="node">
<title>32787</title>
<ellipse fill="none" stroke="#000000" cx="629.1565" cy="-545.1015" rx="32.4942" ry="18"/>
<text text-anchor="middle" x="629.1565" y="-541.4015" font-family="Times,serif" font-size="14.00" fill="#000000">32787</text>
</g>
<!-- 2516&#45;&gt;32787 -->
<g id="edge1" class="edge">
<title>2516&#45;&gt;32787</title>
<path fill="none" stroke="#000000" d="M599.6422,-540.8972C599.6994,-540.9053 599.7566,-540.9135 599.8138,-540.9216"/>
<polygon fill="#000000" stroke="#000000" points="589.59,-542.9959 599.9854,-540.9461 590.5806,-536.0658 589.59,-542.9959"/>
</g>
<!-- 2686 -->
<g id="node10" class="node">
<title>2686</title>
<ellipse fill="none" stroke="#000000" cx="481.0451" cy="-572.2402" rx="28.6953" ry="18"/>
<text text-anchor="middle" x="481.0451" y="-568.5402" font-family="Times,serif" font-size="14.00" fill="#000000">2686</text>
</g>
<!-- 3741 -->
<g id="node21" class="node">
<title>3741</title>
<ellipse fill="none" stroke="#000000" cx="458.2215" cy="-612.2035" rx="28.6953" ry="18"/>
<text text-anchor="middle" x="458.2215" y="-608.5035" font-family="Times,serif" font-size="14.00" fill="#000000">3741</text>
</g>
<!-- 2686&#45;&gt;3741 -->
<g id="edge2" class="edge">
<title>2686&#45;&gt;3741</title>
<path fill="none" stroke="#000000" d="M471.2334,-589.4201C471.167,-589.5365 471.1004,-589.653 471.0339,-589.7696"/>
<polygon fill="#000000" stroke="#000000" points="469.9451,-584.6186 468.025,-595.038 476.0237,-588.0902 469.9451,-584.6186"/>
</g>
<!-- 2687 -->
<g id="node11" class="node">
<title>2687</title>
<ellipse fill="none" stroke="#000000" cx="513.6044" cy="-531.9099" rx="28.6953" ry="18"/>
<text text-anchor="middle" x="513.6044" y="-528.2099" font-family="Times,serif" font-size="14.00" fill="#000000">2687</text>
</g>
<!-- 2687&#45;&gt;2516 -->
<g id="edge3" class="edge">
<title>2687&#45;&gt;2516</title>
<path fill="none" stroke="#000000" d="M542.203,-534.3685C542.3169,-534.3783 542.4308,-534.3881 542.5447,-534.3979"/>
<polygon fill="#000000" stroke="#000000" points="532.6225,-537.0552 542.8865,-534.4273 533.2239,-530.081 532.6225,-537.0552"/>
</g>
<!-- 2687&#45;&gt;2686 -->
<g id="edge4" class="edge">
<title>2687&#45;&gt;2686</title>
<path fill="none" stroke="#000000" d="M500.3613,-548.3138C500.2337,-548.4719 500.1058,-548.6303 499.9777,-548.789"/>
<polygon fill="#000000" stroke="#000000" points="497.7293,-546.0022 494.171,-555.9816 503.1759,-550.3993 497.7293,-546.0022"/>
</g>
<!-- 9505 -->
<g id="node34" class="node">
<title>9505</title>
<ellipse fill="none" stroke="#000000" cx="528.0424" cy="-577.3738" rx="28.6953" ry="18"/>
<text text-anchor="middle" x="528.0424" y="-573.6738" font-family="Times,serif" font-size="14.00" fill="#000000">9505</text>
</g>
<!-- 2687&#45;&gt;9505 -->
<g id="edge5" class="edge">
<title>2687&#45;&gt;9505</title>
<path fill="none" stroke="#000000" d="M519.2279,-549.6176C519.2605,-549.7205 519.2932,-549.8235 519.326,-549.9266"/>
<polygon fill="#000000" stroke="#000000" points="516.0479,-551.1681 522.4106,-559.6396 522.7196,-549.0493 516.0479,-551.1681"/>
</g>
<!-- 2764 -->
<g id="node12" class="node">
<title>2764</title>
<ellipse fill="none" stroke="#000000" cx="659.4175" cy="-516.9848" rx="28.6953" ry="18"/>
<text text-anchor="middle" x="659.4175" y="-513.2848" font-family="Times,serif" font-size="14.00" fill="#000000">2764</text>
</g>
<!-- 2828 -->
<g id="node13" class="node">
<title>2828</title>
<ellipse fill="none" stroke="#000000" cx="230.7578" cy="-335.9706" rx="28.6953" ry="18"/>
<text text-anchor="middle" x="230.7578" y="-332.2706" font-family="Times,serif" font-size="14.00" fill="#000000">2828</text>
</g>
<!-- 2914 -->
<g id="node14" class="node">
<title>2914</title>
<ellipse fill="none" stroke="#000000" cx="284.901" cy="-365.7148" rx="28.6953" ry="18"/>
<text text-anchor="middle" x="284.901" y="-362.0148" font-family="Times,serif" font-size="14.00" fill="#000000">2914</text>
</g>
<!-- 6453 -->
<g id="node25" class="node">
<title>6453</title>
<ellipse fill="none" stroke="#000000" cx="222.6913" cy="-369.863" rx="28.6953" ry="18"/>
<text text-anchor="middle" x="222.6913" y="-366.163" font-family="Times,serif" font-size="14.00" fill="#000000">6453</text>
</g>
<!-- 2914&#45;&gt;6453 -->
<g id="edge6" class="edge">
<title>2914&#45;&gt;6453</title>
<path fill="none" stroke="#000000" d="M256.3452,-367.6189C256.2414,-367.6259 256.1375,-367.6328 256.0336,-367.6397"/>
<polygon fill="#000000" stroke="#000000" points="261.0971,-363.7941 251.3522,-367.9519 261.563,-370.7786 261.0971,-363.7941"/>
</g>
<!-- 3257 -->
<g id="node15" class="node">
<title>3257</title>
<ellipse fill="none" stroke="#000000" cx="157.3271" cy="-380.5372" rx="28.6953" ry="18"/>
<text text-anchor="middle" x="157.3271" y="-376.8372" font-family="Times,serif" font-size="14.00" fill="#000000">3257</text>
</g>
<!-- 3491 -->
<g id="node18" class="node">
<title>3491</title>
<ellipse fill="none" stroke="#000000" cx="81.2866" cy="-384.2592" rx="28.6953" ry="18"/>
<text text-anchor="middle" x="81.2866" y="-380.5592" font-family="Times,serif" font-size="14.00" fill="#000000">3491</text>
</g>
<!-- 3257&#45;&gt;3491 -->
<g id="edge7" class="edge">
<title>3257&#45;&gt;3491</title>
<path fill="none" stroke="#000000" d="M128.5795,-381.9443C125.7971,-382.0805 122.9442,-382.2202 120.0854,-382.3601"/>
<polygon fill="#000000" stroke="#000000" points="119.6396,-378.8776 109.8227,-382.8624 119.9819,-385.8693 119.6396,-378.8776"/>
</g>
<!-- 5511 -->
<g id="node23" class="node">
<title>5511</title>
<ellipse fill="none" stroke="#000000" cx="181.2104" cy="-407.2957" rx="28.6953" ry="18"/>
<text text-anchor="middle" x="181.2104" y="-403.5957" font-family="Times,serif" font-size="14.00" fill="#000000">5511</text>
</g>
<!-- 3257&#45;&gt;5511 -->
<g id="edge8" class="edge">
<title>3257&#45;&gt;5511</title>
<path fill="none" stroke="#000000" d="M171.4962,-396.412C171.5363,-396.457 171.5765,-396.502 171.6166,-396.547"/>
<polygon fill="#000000" stroke="#000000" points="162.4644,-391.551 171.7368,-396.6816 167.6878,-386.8885 162.4644,-391.551"/>
</g>
<!-- 3320 -->
<g id="node16" class="node">
<title>3320</title>
<ellipse fill="none" stroke="#000000" cx="115.5947" cy="-409.7895" rx="28.6953" ry="18"/>
<text text-anchor="middle" x="115.5947" y="-406.0895" font-family="Times,serif" font-size="14.00" fill="#000000">3320</text>
</g>
<!-- 3356 -->
<g id="node17" class="node">
<title>3356</title>
<ellipse fill="none" stroke="#000000" cx="417.8828" cy="-285.5739" rx="28.6953" ry="18"/>
<text text-anchor="middle" x="417.8828" y="-281.8739" font-family="Times,serif" font-size="14.00" fill="#000000">3356</text>
</g>
<!-- 3549 -->
<g id="node19" class="node">
<title>3549</title>
<ellipse fill="none" stroke="#000000" cx="406.3541" cy="-351.3099" rx="28.6953" ry="18"/>
<text text-anchor="middle" x="406.3541" y="-347.6099" font-family="Times,serif" font-size="14.00" fill="#000000">3549</text>
</g>
<!-- 3356&#45;&gt;3549 -->
<g id="edge9" class="edge">
<title>3356&#45;&gt;3549</title>
<path fill="none" stroke="#000000" d="M414.7325,-303.5365C413.665,-309.6235 412.4457,-316.5759 411.274,-323.2569"/>
<polygon fill="#000000" stroke="#000000" points="407.7807,-322.9146 409.5006,-333.3689 414.6755,-324.1239 407.7807,-322.9146"/>
</g>
<!-- 3491&#45;&gt;174 -->
<g id="edge10" class="edge">
<title>3491&#45;&gt;174</title>
<path fill="none" stroke="#000000" d="M88.7451,-366.6388C88.879,-366.3225 89.0135,-366.0048 89.1484,-365.686"/>
<polygon fill="#000000" stroke="#000000" points="92.4173,-366.9422 93.0922,-356.3688 85.971,-364.2135 92.4173,-366.9422"/>
</g>
<!-- 3491&#45;&gt;209 -->
<g id="edge11" class="edge">
<title>3491&#45;&gt;209</title>
<path fill="none" stroke="#000000" d="M54.1433,-378.1407C54.0373,-378.1168 53.9313,-378.0929 53.8252,-378.069"/>
<polygon fill="#000000" stroke="#000000" points="63.3966,-376.6394 52.8714,-377.854 61.8567,-383.4681 63.3966,-376.6394"/>
</g>
<!-- 3491&#45;&gt;701 -->
<g id="edge12" class="edge">
<title>3491&#45;&gt;701</title>
<path fill="none" stroke="#000000" d="M77.6648,-366.204C77.45,-365.1335 77.2317,-364.0452 77.0116,-362.948"/>
<polygon fill="#000000" stroke="#000000" points="80.4293,-362.1894 75.0307,-353.0731 73.566,-363.5662 80.4293,-362.1894"/>
</g>
<!-- 3491&#45;&gt;1239 -->
<g id="edge13" class="edge">
<title>3491&#45;&gt;1239</title>
<path fill="none" stroke="#000000" d="M103.5038,-372.792C103.5465,-372.77 103.589,-372.748 103.6315,-372.7261"/>
<polygon fill="#000000" stroke="#000000" points="96.4785,-380.3611 103.7588,-372.6604 93.2653,-374.1402 96.4785,-380.3611"/>
</g>
<!-- 3491&#45;&gt;1273 -->
<g id="edge14" class="edge">
<title>3491&#45;&gt;1273</title>
<path fill="none" stroke="#000000" d="M66.8327,-368.6294C66.7218,-368.5094 66.6107,-368.3893 66.4994,-368.269"/>
<polygon fill="#000000" stroke="#000000" points="70.8209,-367.787 61.4617,-362.8214 65.6816,-372.5396 70.8209,-367.787"/>
</g>
<!-- 3491&#45;&gt;1299 -->
<g id="edge15" class="edge">
<title>3491&#45;&gt;1299</title>
<path fill="none" stroke="#000000" d="M62.8225,-398.1738C62.5411,-398.386 62.2586,-398.5988 61.9754,-398.8122"/>
<polygon fill="#000000" stroke="#000000" points="59.5868,-396.2297 53.707,-405.0433 63.7997,-401.82 59.5868,-396.2297"/>
</g>
<!-- 3491&#45;&gt;2497 -->
<g id="edge16" class="edge">
<title>3491&#45;&gt;2497</title>
<path fill="none" stroke="#000000" d="M54.7133,-391.3002C54.6515,-391.3166 54.5899,-391.3329 54.5286,-391.3491"/>
<polygon fill="#000000" stroke="#000000" points="63.1145,-385.4491 54.3457,-391.3976 64.9101,-392.2157 63.1145,-385.4491"/>
</g>
<!-- 3491&#45;&gt;3320 -->
<g id="edge17" class="edge">
<title>3491&#45;&gt;3320</title>
<path fill="none" stroke="#000000" d="M100.0467,-398.2195C100.1093,-398.2661 100.1719,-398.3126 100.2344,-398.3592"/>
<polygon fill="#000000" stroke="#000000" points="90.3084,-395.3352 100.4218,-398.4987 94.4886,-389.7188 90.3084,-395.3352"/>
</g>
<!-- 6461 -->
<g id="node26" class="node">
<title>6461</title>
<ellipse fill="none" stroke="#000000" cx="94.3308" cy="-433.594" rx="28.6953" ry="18"/>
<text text-anchor="middle" x="94.3308" y="-429.894" font-family="Times,serif" font-size="14.00" fill="#000000">6461</text>
</g>
<!-- 3491&#45;&gt;6461 -->
<g id="edge18" class="edge">
<title>3491&#45;&gt;6461</title>
<path fill="none" stroke="#000000" d="M85.9959,-402.0702C86.3242,-403.3122 86.6593,-404.5794 86.9973,-405.8578"/>
<polygon fill="#000000" stroke="#000000" points="83.6447,-406.8703 89.5846,-415.6434 90.4121,-405.081 83.6447,-406.8703"/>
</g>
<!-- 7018 -->
<g id="node30" class="node">
<title>7018</title>
<ellipse fill="none" stroke="#000000" cx="66.1585" cy="-430.3387" rx="28.6953" ry="18"/>
<text text-anchor="middle" x="66.1585" y="-426.6387" font-family="Times,serif" font-size="14.00" fill="#000000">7018</text>
</g>
<!-- 3491&#45;&gt;7018 -->
<g id="edge19" class="edge">
<title>3491&#45;&gt;7018</title>
<path fill="none" stroke="#000000" d="M75.481,-401.9429C75.3747,-402.2665 75.268,-402.5916 75.1609,-402.9179"/>
<polygon fill="#000000" stroke="#000000" points="71.8176,-401.8809 72.0237,-412.4737 78.4684,-404.0644 71.8176,-401.8809"/>
</g>
<!-- 6762 -->
<g id="node27" class="node">
<title>6762</title>
<ellipse fill="none" stroke="#000000" cx="345.2489" cy="-358.6711" rx="28.6953" ry="18"/>
<text text-anchor="middle" x="345.2489" y="-354.9711" font-family="Times,serif" font-size="14.00" fill="#000000">6762</text>
</g>
<!-- 3549&#45;&gt;6762 -->
<g id="edge20" class="edge">
<title>3549&#45;&gt;6762</title>
<path fill="none" stroke="#000000" d="M377.9482,-354.7319C377.8547,-354.7431 377.7612,-354.7544 377.6676,-354.7657"/>
<polygon fill="#000000" stroke="#000000" points="382.9635,-350.6022 373.454,-355.2733 383.8009,-357.5519 382.9635,-350.6022"/>
</g>
<!-- 30070 -->
<g id="node42" class="node">
<title>30070</title>
<ellipse fill="none" stroke="#000000" cx="450.9557" cy="-407.5595" rx="32.4942" ry="18"/>
<text text-anchor="middle" x="450.9557" y="-403.8595" font-family="Times,serif" font-size="14.00" fill="#000000">30070</text>
</g>
<!-- 3549&#45;&gt;30070 -->
<g id="edge21" class="edge">
<title>3549&#45;&gt;30070</title>
<path fill="none" stroke="#000000" d="M419.2548,-367.5796C423.0367,-372.3492 427.2602,-377.6757 431.3599,-382.846"/>
<polygon fill="#000000" stroke="#000000" points="428.6635,-385.0788 437.6191,-390.7399 434.1485,-380.7296 428.6635,-385.0788"/>
</g>
<!-- 3597 -->
<g id="node20" class="node">
<title>3597</title>
<ellipse fill="none" stroke="#000000" cx="502.034" cy="-101.4488" rx="28.6953" ry="18"/>
<text text-anchor="middle" x="502.034" y="-97.7488" font-family="Times,serif" font-size="14.00" fill="#000000">3597</text>
</g>
<!-- 37179 -->
<g id="node44" class="node">
<title>37179</title>
<ellipse fill="none" stroke="#000000" cx="443.0464" cy="-647.5272" rx="32.4942" ry="18"/>
<text text-anchor="middle" x="443.0464" y="-643.8272" font-family="Times,serif" font-size="14.00" fill="#000000">37179</text>
</g>
<!-- 3741&#45;&gt;37179 -->
<g id="edge22" class="edge">
<title>3741&#45;&gt;37179</title>
<path fill="none" stroke="#000000" d="M450.634,-629.8653C450.6043,-629.9343 450.5747,-630.0033 450.545,-630.0723"/>
<polygon fill="#000000" stroke="#000000" points="451.1901,-619.7084 450.4561,-630.2792 457.6219,-622.4733 451.1901,-619.7084"/>
</g>
<!-- 4637 -->
<g id="node22" class="node">
<title>4637</title>
<ellipse fill="none" stroke="#000000" cx="640.947" cy="-585.5719" rx="28.6953" ry="18"/>
<text text-anchor="middle" x="640.947" y="-581.8719" font-family="Times,serif" font-size="14.00" fill="#000000">4637</text>
</g>
<!-- 5692 -->
<g id="node24" class="node">
<title>5692</title>
<ellipse fill="none" stroke="#000000" cx="458.4924" cy="-72.1076" rx="28.6953" ry="18"/>
<text text-anchor="middle" x="458.4924" y="-68.4076" font-family="Times,serif" font-size="14.00" fill="#000000">5692</text>
</g>
<!-- 5692&#45;&gt;3597 -->
<g id="edge23" class="edge">
<title>5692&#45;&gt;3597</title>
<path fill="none" stroke="#000000" d="M478.2248,-85.4046C478.3092,-85.4615 478.3936,-85.5184 478.4781,-85.5753"/>
<polygon fill="#000000" stroke="#000000" points="472.0369,-85.4552 482.2857,-88.1411 475.9487,-79.6502 472.0369,-85.4552"/>
</g>
<!-- 10834 -->
<g id="node35" class="node">
<title>10834</title>
<ellipse fill="none" stroke="#000000" cx="446.7459" cy="-152.4547" rx="32.4942" ry="18"/>
<text text-anchor="middle" x="446.7459" y="-148.7547" font-family="Times,serif" font-size="14.00" fill="#000000">10834</text>
</g>
<!-- 5692&#45;&gt;10834 -->
<g id="edge24" class="edge">
<title>5692&#45;&gt;10834</title>
<path fill="none" stroke="#000000" d="M455.8269,-90.3396C454.3701,-100.3043 452.5335,-112.867 450.8938,-124.0829"/>
<polygon fill="#000000" stroke="#000000" points="447.3843,-123.8937 449.4008,-134.2949 454.3107,-124.9064 447.3843,-123.8937"/>
</g>
<!-- 11008 -->
<g id="node36" class="node">
<title>11008</title>
<ellipse fill="none" stroke="#000000" cx="477.5854" cy="-52.8809" rx="32.4942" ry="18"/>
<text text-anchor="middle" x="477.5854" y="-49.1809" font-family="Times,serif" font-size="14.00" fill="#000000">11008</text>
</g>
<!-- 5692&#45;&gt;11008 -->
<g id="edge25" class="edge">
<title>5692&#45;&gt;11008</title>
<path fill="none" stroke="#000000" d="M473.9041,-56.588C473.9719,-56.5197 474.0391,-56.452 474.1056,-56.385"/>
<polygon fill="#000000" stroke="#000000" points="469.7396,-65.7494 474.3032,-56.1861 464.7719,-60.8162 469.7396,-65.7494"/>
</g>
<!-- 27865 -->
<g id="node40" class="node">
<title>27865</title>
<ellipse fill="none" stroke="#000000" cx="471.5731" cy="-109.1303" rx="32.4942" ry="18"/>
<text text-anchor="middle" x="471.5731" y="-105.4303" font-family="Times,serif" font-size="14.00" fill="#000000">27865</text>
</g>
<!-- 5692&#45;&gt;27865 -->
<g id="edge26" class="edge">
<title>5692&#45;&gt;27865</title>
<path fill="none" stroke="#000000" d="M464.7262,-89.7515C464.7657,-89.8633 464.8052,-89.975 464.8447,-90.0869"/>
<polygon fill="#000000" stroke="#000000" points="458.5683,-82.8308 465.2004,-91.0934 465.1685,-80.4984 458.5683,-82.8308"/>
</g>
<!-- 28065 -->
<g id="node41" class="node">
<title>28065</title>
<ellipse fill="none" stroke="#000000" cx="513.6839" cy="-48.7523" rx="32.4942" ry="18"/>
<text text-anchor="middle" x="513.6839" y="-45.0523" font-family="Times,serif" font-size="14.00" fill="#000000">28065</text>
</g>
<!-- 5692&#45;&gt;28065 -->
<g id="edge27" class="edge">
<title>5692&#45;&gt;28065</title>
<path fill="none" stroke="#000000" d="M482.5396,-61.9315C482.6486,-61.8854 482.7576,-61.8393 482.8666,-61.7931"/>
<polygon fill="#000000" stroke="#000000" points="479.9522,-66.827 487.7976,-59.7065 477.2242,-60.3805 479.9522,-66.827"/>
</g>
<!-- 52317 -->
<g id="node45" class="node">
<title>52317</title>
<ellipse fill="none" stroke="#000000" cx="503.4438" cy="-75.3598" rx="32.4942" ry="18"/>
<text text-anchor="middle" x="503.4438" y="-71.6598" font-family="Times,serif" font-size="14.00" fill="#000000">52317</text>
</g>
<!-- 5692&#45;&gt;52317 -->
<g id="edge28" class="edge">
<title>5692&#45;&gt;52317</title>
<path fill="none" stroke="#000000" d="M486.9608,-74.1673C487.0305,-74.1723 487.1001,-74.1773 487.1696,-74.1824"/>
<polygon fill="#000000" stroke="#000000" points="477.1499,-76.9623 487.3779,-74.1975 477.6581,-69.9805 477.1499,-76.9623"/>
</g>
<!-- 52375 -->
<g id="node46" class="node">
<title>52375</title>
<ellipse fill="none" stroke="#000000" cx="436.745" cy="-108.4537" rx="32.4942" ry="18"/>
<text text-anchor="middle" x="436.745" y="-104.7537" font-family="Times,serif" font-size="14.00" fill="#000000">52375</text>
</g>
<!-- 5692&#45;&gt;52375 -->
<g id="edge29" class="edge">
<title>5692&#45;&gt;52375</title>
<path fill="none" stroke="#000000" d="M448.3827,-89.0037C448.3272,-89.0964 448.2718,-89.1892 448.2162,-89.2819"/>
<polygon fill="#000000" stroke="#000000" points="449.1808,-80.8535 447.0495,-91.2319 455.1876,-84.4478 449.1808,-80.8535"/>
</g>
<!-- 52376 -->
<g id="node47" class="node">
<title>52376</title>
<ellipse fill="none" stroke="#000000" cx="434.4189" cy="-18" rx="32.4942" ry="18"/>
<text text-anchor="middle" x="434.4189" y="-14.3" font-family="Times,serif" font-size="14.00" fill="#000000">52376</text>
</g>
<!-- 5692&#45;&gt;52376 -->
<g id="edge30" class="edge">
<title>5692&#45;&gt;52376</title>
<path fill="none" stroke="#000000" d="M450.7429,-54.6898C449.3538,-51.5676 447.877,-48.2485 446.4014,-44.9318"/>
<polygon fill="#000000" stroke="#000000" points="449.582,-43.4704 442.3192,-35.7566 443.1864,-46.3159 449.582,-43.4704"/>
</g>
<!-- 52380 -->
<g id="node48" class="node">
<title>52380</title>
<ellipse fill="none" stroke="#000000" cx="494.5308" cy="-24.5676" rx="32.4942" ry="18"/>
<text text-anchor="middle" x="494.5308" y="-20.8676" font-family="Times,serif" font-size="14.00" fill="#000000">52380</text>
</g>
<!-- 5692&#45;&gt;52380 -->
<g id="edge31" class="edge">
<title>5692&#45;&gt;52380</title>
<path fill="none" stroke="#000000" d="M470.8948,-55.747C472.4269,-53.7259 474.0192,-51.6254 475.621,-49.5124"/>
<polygon fill="#000000" stroke="#000000" points="478.4859,-51.5269 481.7378,-41.4434 472.9076,-47.2981 478.4859,-51.5269"/>
</g>
<!-- 52413 -->
<g id="node49" class="node">
<title>52413</title>
<ellipse fill="none" stroke="#000000" cx="423.3838" cy="-44.5463" rx="32.4942" ry="18"/>
<text text-anchor="middle" x="423.3838" y="-40.8463" font-family="Times,serif" font-size="14.00" fill="#000000">52413</text>
</g>
<!-- 5692&#45;&gt;52413 -->
<g id="edge32" class="edge">
<title>5692&#45;&gt;52413</title>
<path fill="none" stroke="#000000" d="M440.5267,-58.004C440.4592,-57.951 440.3917,-57.898 440.3243,-57.8451"/>
<polygon fill="#000000" stroke="#000000" points="450.1503,-61.1093 440.1219,-57.6862 445.8268,-66.6159 450.1503,-61.1093"/>
</g>
<!-- 52431 -->
<g id="node50" class="node">
<title>52431</title>
<ellipse fill="none" stroke="#000000" cx="402.8252" cy="-62.0077" rx="32.4942" ry="18"/>
<text text-anchor="middle" x="402.8252" y="-58.3077" font-family="Times,serif" font-size="14.00" fill="#000000">52431</text>
</g>
<!-- 5692&#45;&gt;52431 -->
<g id="edge33" class="edge">
<title>5692&#45;&gt;52431</title>
<path fill="none" stroke="#000000" d="M430.985,-67.1168C430.9302,-67.1069 430.8754,-67.0969 430.8206,-67.087"/>
<polygon fill="#000000" stroke="#000000" points="441.1223,-65.4035 430.6563,-67.0572 439.8692,-72.2911 441.1223,-65.4035"/>
</g>
<!-- 262230 -->
<g id="node51" class="node">
<title>262230</title>
<ellipse fill="none" stroke="#000000" cx="465.1235" cy="-19.0014" rx="37.0935" ry="18"/>
<text text-anchor="middle" x="465.1235" y="-15.3014" font-family="Times,serif" font-size="14.00" fill="#000000">262230</text>
</g>
<!-- 5692&#45;&gt;262230 -->
<g id="edge34" class="edge">
<title>5692&#45;&gt;262230</title>
<path fill="none" stroke="#000000" d="M460.7374,-54.1282C461.0121,-51.9278 461.2979,-49.6394 461.5858,-47.3331"/>
<polygon fill="#000000" stroke="#000000" points="465.0695,-47.6806 462.8356,-37.324 458.1235,-46.8132 465.0695,-47.6806"/>
</g>
<!-- 264608 -->
<g id="node52" class="node">
<title>264608</title>
<ellipse fill="none" stroke="#000000" cx="410.8582" cy="-89.8812" rx="37.0935" ry="18"/>
<text text-anchor="middle" x="410.8582" y="-86.1812" font-family="Times,serif" font-size="14.00" fill="#000000">264608</text>
</g>
<!-- 5692&#45;&gt;264608 -->
<g id="edge35" class="edge">
<title>5692&#45;&gt;264608</title>
<path fill="none" stroke="#000000" d="M433.8382,-81.3068C433.7927,-81.3237 433.7474,-81.3406 433.702,-81.3576"/>
<polygon fill="#000000" stroke="#000000" points="441.7102,-74.6287 433.5658,-81.4084 444.1604,-81.1874 441.7102,-74.6287"/>
</g>
<!-- 6453&#45;&gt;2828 -->
<g id="edge36" class="edge">
<title>6453&#45;&gt;2828</title>
<path fill="none" stroke="#000000" d="M227.008,-351.7261C227.023,-351.6632 227.0379,-351.6002 227.0529,-351.5373"/>
<polygon fill="#000000" stroke="#000000" points="228.1834,-361.8889 227.0978,-351.3487 221.3735,-360.2653 228.1834,-361.8889"/>
</g>
<!-- 6453&#45;&gt;3257 -->
<g id="edge37" class="edge">
<title>6453&#45;&gt;3257</title>
<path fill="none" stroke="#000000" d="M194.971,-374.3898C194.871,-374.4062 194.7709,-374.4225 194.6707,-374.4389"/>
<polygon fill="#000000" stroke="#000000" points="194.6044,-370.9032 185.2993,-375.9693 195.7327,-377.8117 194.6044,-370.9032"/>
</g>
<!-- 6762&#45;&gt;2914 -->
<g id="edge38" class="edge">
<title>6762&#45;&gt;2914</title>
<path fill="none" stroke="#000000" d="M316.8421,-361.9867C316.6892,-362.0046 316.5363,-362.0224 316.3833,-362.0403"/>
<polygon fill="#000000" stroke="#000000" points="322.6967,-357.7793 313.1699,-362.4153 323.5084,-364.7321 322.6967,-357.7793"/>
</g>
<!-- 6904 -->
<g id="node28" class="node">
<title>6904</title>
<ellipse fill="none" stroke="#000000" cx="481.495" cy="-471.2452" rx="28.6953" ry="18"/>
<text text-anchor="middle" x="481.495" y="-467.5452" font-family="Times,serif" font-size="14.00" fill="#000000">6904</text>
</g>
<!-- 6904&#45;&gt;2687 -->
<g id="edge39" class="edge">
<title>6904&#45;&gt;2687</title>
<path fill="none" stroke="#000000" d="M490.6104,-488.467C493.366,-493.6733 496.4594,-499.5176 499.4622,-505.191"/>
<polygon fill="#000000" stroke="#000000" points="496.5832,-507.2334 504.3547,-514.4344 502.77,-503.9587 496.5832,-507.2334"/>
</g>
<!-- 7016 -->
<g id="node29" class="node">
<title>7016</title>
<ellipse fill="none" stroke="#000000" cx="487.3825" cy="-391.5041" rx="28.6953" ry="18"/>
<text text-anchor="middle" x="487.3825" y="-387.8041" font-family="Times,serif" font-size="14.00" fill="#000000">7016</text>
</g>
<!-- 7922 -->
<g id="node33" class="node">
<title>7922</title>
<ellipse fill="none" stroke="#000000" cx="519.83" cy="-378.3511" rx="28.6953" ry="18"/>
<text text-anchor="middle" x="519.83" y="-374.6511" font-family="Times,serif" font-size="14.00" fill="#000000">7922</text>
</g>
<!-- 7016&#45;&gt;7922 -->
<g id="edge40" class="edge">
<title>7016&#45;&gt;7922</title>
<path fill="none" stroke="#000000" d="M511.6422,-381.6702C511.7155,-381.6404 511.7886,-381.6108 511.8613,-381.5813"/>
<polygon fill="#000000" stroke="#000000" points="504.1266,-388.4963 512.0787,-381.4932 501.495,-382.0088 504.1266,-388.4963"/>
</g>
<!-- 7473 -->
<g id="node31" class="node">
<title>7473</title>
<ellipse fill="none" stroke="#000000" cx="537.2388" cy="-617.7059" rx="28.6953" ry="18"/>
<text text-anchor="middle" x="537.2388" y="-614.0059" font-family="Times,serif" font-size="14.00" fill="#000000">7473</text>
</g>
<!-- 7474 -->
<g id="node32" class="node">
<title>7474</title>
<ellipse fill="none" stroke="#000000" cx="671.8946" cy="-557.5773" rx="28.6953" ry="18"/>
<text text-anchor="middle" x="671.8946" y="-553.8773" font-family="Times,serif" font-size="14.00" fill="#000000">7474</text>
</g>
<!-- 9505&#45;&gt;7473 -->
<g id="edge41" class="edge">
<title>9505&#45;&gt;7473</title>
<path fill="none" stroke="#000000" d="M532.2101,-595.6517C532.2291,-595.7351 532.2481,-595.8185 532.2672,-595.902"/>
<polygon fill="#000000" stroke="#000000" points="527.4891,-590.6916 533.1248,-599.6632 534.3139,-589.1353 527.4891,-590.6916"/>
</g>
<!-- 12956 -->
<g id="node37" class="node">
<title>12956</title>
<ellipse fill="none" stroke="#000000" cx="430.8723" cy="-220.4208" rx="32.4942" ry="18"/>
<text text-anchor="middle" x="430.8723" y="-216.7208" font-family="Times,serif" font-size="14.00" fill="#000000">12956</text>
</g>
<!-- 10834&#45;&gt;12956 -->
<g id="edge42" class="edge">
<title>10834&#45;&gt;12956</title>
<path fill="none" stroke="#000000" d="M442.5753,-170.312C440.9839,-177.126 439.1295,-185.066 437.3722,-192.5899"/>
<polygon fill="#000000" stroke="#000000" points="433.9363,-191.9128 435.0701,-202.4468 440.7528,-193.5049 433.9363,-191.9128"/>
</g>
<!-- 22927 -->
<g id="node39" class="node">
<title>22927</title>
<ellipse fill="none" stroke="#000000" cx="467.0634" cy="-180.2937" rx="32.4942" ry="18"/>
<text text-anchor="middle" x="467.0634" y="-176.5937" font-family="Times,serif" font-size="14.00" fill="#000000">22927</text>
</g>
<!-- 10834&#45;&gt;22927 -->
<g id="edge43" class="edge">
<title>10834&#45;&gt;22927</title>
<path fill="none" stroke="#000000" d="M459.0334,-169.291C459.0668,-169.3368 459.1002,-169.3826 459.1335,-169.4283"/>
<polygon fill="#000000" stroke="#000000" points="450.5084,-163.5507 459.2335,-169.5653 456.1635,-159.4224 450.5084,-163.5507"/>
</g>
<!-- 12956&#45;&gt;3356 -->
<g id="edge44" class="edge">
<title>12956&#45;&gt;3356</title>
<path fill="none" stroke="#000000" d="M427.254,-238.5696C426.0717,-244.4999 424.73,-251.2296 423.4388,-257.7058"/>
<polygon fill="#000000" stroke="#000000" points="420.0045,-257.0311 421.4817,-267.5225 426.8694,-258.3998 420.0045,-257.0311"/>
</g>
<!-- 18540 -->
<g id="node38" class="node">
<title>18540</title>
<ellipse fill="none" stroke="#000000" cx="426.8553" cy="-424.4825" rx="32.4942" ry="18"/>
<text text-anchor="middle" x="426.8553" y="-420.7825" font-family="Times,serif" font-size="14.00" fill="#000000">18540</text>
</g>
<!-- 30070&#45;&gt;6904 -->
<g id="edge45" class="edge">
<title>30070&#45;&gt;6904</title>
<path fill="none" stroke="#000000" d="M459.3007,-424.9619C462.1959,-430.9994 465.5125,-437.9157 468.6838,-444.529"/>
<polygon fill="#000000" stroke="#000000" points="465.6802,-446.3603 473.1601,-453.8638 471.9921,-443.3335 465.6802,-446.3603"/>
</g>
<!-- 30070&#45;&gt;7016 -->
<g id="edge46" class="edge">
<title>30070&#45;&gt;7016</title>
<path fill="none" stroke="#000000" d="M476.6503,-396.2344C476.6974,-396.2137 476.7444,-396.193 476.7913,-396.1723"/>
<polygon fill="#000000" stroke="#000000" points="469.1937,-403.3503 476.9318,-396.1103 466.3677,-396.9445 469.1937,-403.3503"/>
</g>
<!-- 30070&#45;&gt;18540 -->
<g id="edge47" class="edge">
<title>30070&#45;&gt;18540</title>
<path fill="none" stroke="#000000" d="M430.621,-421.8382C430.5503,-421.8878 430.4805,-421.9369 430.4114,-421.9854"/>
<polygon fill="#000000" stroke="#000000" points="436.379,-413.5164 430.2063,-422.1294 440.4029,-419.2457 436.379,-413.5164"/>
</g>
<!-- 32787&#45;&gt;703 -->
<g id="edge48" class="edge">
<title>32787&#45;&gt;703</title>
<path fill="none" stroke="#000000" d="M623.9238,-526.9922C623.9049,-526.9268 623.886,-526.8614 623.8671,-526.7961"/>
<polygon fill="#000000" stroke="#000000" points="629.9525,-535.2344 623.8105,-526.6 623.2274,-537.18 629.9525,-535.2344"/>
</g>
<!-- 32787&#45;&gt;2764 -->
<g id="edge49" class="edge">
<title>32787&#45;&gt;2764</title>
<path fill="none" stroke="#000000" d="M646.0565,-529.3991C646.1106,-529.3487 646.1648,-529.2985 646.2188,-529.2482"/>
<polygon fill="#000000" stroke="#000000" points="641.4368,-538.4702 646.381,-529.0975 636.6711,-533.3412 641.4368,-538.4702"/>
</g>
<!-- 32787&#45;&gt;4637 -->
<g id="edge50" class="edge">
<title>32787&#45;&gt;4637</title>
<path fill="none" stroke="#000000" d="M634.3623,-562.9702C634.3916,-563.0708 634.4209,-563.1714 634.4503,-563.2722"/>
<polygon fill="#000000" stroke="#000000" points="629.6169,-559.1955 635.7744,-567.8173 636.3375,-557.2374 629.6169,-559.1955"/>
</g>
<!-- 32787&#45;&gt;7474 -->
<g id="edge51" class="edge">
<title>32787&#45;&gt;7474</title>
<path fill="none" stroke="#000000" d="M658.372,-553.6299C658.4307,-553.647 658.4893,-553.6641 658.5478,-553.6812"/>
<polygon fill="#000000" stroke="#000000" points="648.1413,-554.2861 658.723,-553.7323 650.1055,-547.5664 648.1413,-554.2861"/>
</g>
</g>
</svg>
