<?xml version="1.0" encoding="UTF-8" standalone="no"?>
<!DOCTYPE svg PUBLIC "-//W3C//DTD SVG 1.1//EN"
 "http://www.w3.org/Graphics/SVG/1.1/DTD/svg11.dtd">
<!-- Generated by graphviz version 2.40.1 (20161225.0304)
 -->
<!-- Title: %3 Pages: 1 -->
<svg width="661pt" height="339pt"
 viewBox="0.00 0.00 660.99 338.91" xmlns="http://www.w3.org/2000/svg" xmlns:xlink="http://www.w3.org/1999/xlink">
<g id="graph0" class="graph" transform="scale(1 1) rotate(0) translate(4 334.9052)">
<title>%3</title>
<polygon fill="#ffffff" stroke="transparent" points="-4,4 -4,-334.9052 656.9887,-334.9052 656.9887,4 -4,4"/>
<!-- 174 -->
<g id="node1" class="node">
<title>174</title>
<ellipse fill="none" stroke="#000000" cx="468.6992" cy="-312.9052" rx="27" ry="18"/>
<text text-anchor="middle" x="468.6992" y="-309.2052" font-family="Times,serif" font-size="14.00" fill="#000000">174</text>
</g>
<!-- 3549 -->
<g id="node2" class="node">
<title>3549</title>
<ellipse fill="none" stroke="#000000" cx="29.0505" cy="-265.5821" rx="28.6953" ry="18"/>
<text text-anchor="middle" x="29.0505" y="-261.8821" font-family="Times,serif" font-size="14.00" fill="#000000">3549</text>
</g>
<!-- 4270 -->
<g id="node3" class="node">
<title>4270</title>
<ellipse fill="none" stroke="#000000" cx="130.8785" cy="-165.4863" rx="28.6953" ry="18"/>
<text text-anchor="middle" x="130.8785" y="-161.7863" font-family="Times,serif" font-size="14.00" fill="#000000">4270</text>
</g>
<!-- 4270&#45;&gt;3549 -->
<g id="edge1" class="edge">
<title>4270&#45;&gt;3549</title>
<path fill="none" stroke="#000000" d="M115.4131,-180.6887C98.5168,-197.2975 71.2806,-224.0703 51.9149,-243.1066"/>
<polygon fill="#000000" stroke="#000000" points="49.3394,-240.7304 44.6615,-250.2366 54.2466,-245.7225 49.3394,-240.7304"/>
</g>
<!-- 7303 -->
<g id="node5" class="node">
<title>7303</title>
<ellipse fill="none" stroke="#000000" cx="28.5975" cy="-65.5128" rx="28.6953" ry="18"/>
<text text-anchor="middle" x="28.5975" y="-61.8128" font-family="Times,serif" font-size="14.00" fill="#000000">7303</text>
</g>
<!-- 4270&#45;&gt;7303 -->
<g id="edge2" class="edge">
<title>4270&#45;&gt;7303</title>
<path fill="none" stroke="#000000" d="M115.3443,-150.3025C98.3729,-133.714 71.0155,-106.9738 51.5636,-87.9608"/>
<polygon fill="#000000" stroke="#000000" points="53.8757,-85.3265 44.2779,-80.8395 48.9828,-90.3324 53.8757,-85.3265"/>
</g>
<!-- 7049 -->
<g id="node4" class="node">
<title>7049</title>
<ellipse fill="none" stroke="#000000" cx="487.4364" cy="-165.5065" rx="28.6953" ry="18"/>
<text text-anchor="middle" x="487.4364" y="-161.8065" font-family="Times,serif" font-size="14.00" fill="#000000">7049</text>
</g>
<!-- 7049&#45;&gt;174 -->
<g id="edge3" class="edge">
<title>7049&#45;&gt;174</title>
<path fill="none" stroke="#000000" d="M485.1389,-183.5805C481.936,-208.7761 476.0971,-254.7084 472.3095,-284.5043"/>
<polygon fill="#000000" stroke="#000000" points="468.8046,-284.3218 471.0155,-294.6834 475.7487,-285.2046 468.8046,-284.3218"/>
</g>
<!-- 11058 -->
<g id="node6" class="node">
<title>11058</title>
<ellipse fill="none" stroke="#000000" cx="620.3439" cy="-247.4436" rx="32.4942" ry="18"/>
<text text-anchor="middle" x="620.3439" y="-243.7436" font-family="Times,serif" font-size="14.00" fill="#000000">11058</text>
</g>
<!-- 7049&#45;&gt;11058 -->
<g id="edge4" class="edge">
<title>7049&#45;&gt;11058</title>
<path fill="none" stroke="#000000" d="M507.9119,-178.1296C529.702,-191.5631 564.4284,-212.9718 589.5255,-228.4442"/>
<polygon fill="#000000" stroke="#000000" points="587.9453,-231.5816 598.2944,-233.8502 591.6188,-225.6229 587.9453,-231.5816"/>
</g>
<!-- 22927 -->
<g id="node7" class="node">
<title>22927</title>
<ellipse fill="none" stroke="#000000" cx="469.3247" cy="-18" rx="32.4942" ry="18"/>
<text text-anchor="middle" x="469.3247" y="-14.3" font-family="Times,serif" font-size="14.00" fill="#000000">22927</text>
</g>
<!-- 7049&#45;&gt;22927 -->
<g id="edge5" class="edge">
<title>7049&#45;&gt;22927</title>
<path fill="none" stroke="#000000" d="M485.2156,-147.4193C482.1196,-122.2053 476.4757,-76.2393 472.8145,-46.4216"/>
<polygon fill="#000000" stroke="#000000" points="476.2564,-45.734 471.5637,-36.2351 469.3086,-46.5872 476.2564,-45.734"/>
</g>
<!-- 27986 -->
<g id="node9" class="node">
<title>27986</title>
<ellipse fill="none" stroke="#000000" cx="620.4916" cy="-83.9135" rx="32.4942" ry="18"/>
<text text-anchor="middle" x="620.4916" y="-80.2135" font-family="Times,serif" font-size="14.00" fill="#000000">27986</text>
</g>
<!-- 7049&#45;&gt;27986 -->
<g id="edge6" class="edge">
<title>7049&#45;&gt;27986</title>
<path fill="none" stroke="#000000" d="M507.9347,-152.9364C529.749,-139.5593 564.514,-118.2405 589.639,-102.8332"/>
<polygon fill="#000000" stroke="#000000" points="591.7225,-105.6613 598.4176,-97.4499 588.0631,-99.6939 591.7225,-105.6613"/>
</g>
<!-- 27883 -->
<g id="node8" class="node">
<title>27883</title>
<ellipse fill="none" stroke="#000000" cx="302.0683" cy="-165.4891" rx="32.4942" ry="18"/>
<text text-anchor="middle" x="302.0683" y="-161.7891" font-family="Times,serif" font-size="14.00" fill="#000000">27883</text>
</g>
<!-- 27883&#45;&gt;4270 -->
<g id="edge7" class="edge">
<title>27883&#45;&gt;4270</title>
<path fill="none" stroke="#000000" d="M269.4659,-165.4886C241.0893,-165.4881 199.902,-165.4874 169.8038,-165.4869"/>
<polygon fill="#000000" stroke="#000000" points="169.6594,-161.987 159.6593,-165.4868 169.6592,-168.987 169.6594,-161.987"/>
</g>
<!-- 27883&#45;&gt;7049 -->
<g id="edge8" class="edge">
<title>27883&#45;&gt;7049</title>
<path fill="none" stroke="#000000" d="M334.7817,-165.4922C366.4816,-165.4951 414.5836,-165.4996 448.2981,-165.5028"/>
<polygon fill="#000000" stroke="#000000" points="448.6995,-169.0028 458.6999,-165.5038 448.7002,-162.0028 448.6995,-169.0028"/>
</g>
</g>
</svg>
