<?xml version="1.0" encoding="UTF-8" standalone="no"?>
<!DOCTYPE svg PUBLIC "-//W3C//DTD SVG 1.1//EN"
 "http://www.w3.org/Graphics/SVG/1.1/DTD/svg11.dtd">
<!-- Generated by graphviz version 2.40.1 (20161225.0304)
 -->
<!-- Title: %3 Pages: 1 -->
<svg width="346pt" height="205pt"
 viewBox="0.00 0.00 346.00 205.00" xmlns="http://www.w3.org/2000/svg" xmlns:xlink="http://www.w3.org/1999/xlink">
<g id="graph0" class="graph" transform="scale(1 1) rotate(0) translate(4 201)">
<title>%3</title>
<polygon fill="#ffffff" stroke="transparent" points="-4,4 -4,-201 342,-201 342,4 -4,4"/>
<!-- 174 -->
<g id="node1" class="node">
<title>174</title>
<ellipse fill="none" stroke="#000000" cx="74.7733" cy="-178.6171" rx="27" ry="18"/>
<text text-anchor="middle" x="74.7733" y="-174.9171" font-family="Times,serif" font-size="14.00" fill="#000000">174</text>
</g>
<!-- 3549 -->
<g id="node2" class="node">
<title>3549</title>
<ellipse fill="none" stroke="#000000" cx="309.6359" cy="-55.1134" rx="28.6953" ry="18"/>
<text text-anchor="middle" x="309.6359" y="-51.4134" font-family="Times,serif" font-size="14.00" fill="#000000">3549</text>
</g>
<!-- 4270 -->
<g id="node3" class="node">
<title>4270</title>
<ellipse fill="none" stroke="#000000" cx="237.778" cy="-96.8571" rx="28.6953" ry="18"/>
<text text-anchor="middle" x="237.778" y="-93.1571" font-family="Times,serif" font-size="14.00" fill="#000000">4270</text>
</g>
<!-- 4270&#45;&gt;3549 -->
<g id="edge1" class="edge">
<title>4270&#45;&gt;3549</title>
<path fill="none" stroke="#000000" d="M258.9491,-84.5584C265.3246,-80.8548 272.4504,-76.7152 279.2984,-72.7371"/>
<polygon fill="#000000" stroke="#000000" points="281.4791,-75.518 288.3679,-67.4685 277.9629,-69.4652 281.4791,-75.518"/>
</g>
<!-- 7303 -->
<g id="node5" class="node">
<title>7303</title>
<ellipse fill="none" stroke="#000000" cx="259.9857" cy="-150.0184" rx="28.6953" ry="18"/>
<text text-anchor="middle" x="259.9857" y="-146.3184" font-family="Times,serif" font-size="14.00" fill="#000000">7303</text>
</g>
<!-- 4270&#45;&gt;7303 -->
<g id="edge2" class="edge">
<title>4270&#45;&gt;7303</title>
<path fill="none" stroke="#000000" d="M245.1729,-114.559C246.3463,-117.368 247.5822,-120.3265 248.8191,-123.2875"/>
<polygon fill="#000000" stroke="#000000" points="245.6145,-124.6964 252.6987,-132.5746 252.0736,-121.9982 245.6145,-124.6964"/>
</g>
<!-- 7049 -->
<g id="node4" class="node">
<title>7049</title>
<ellipse fill="none" stroke="#000000" cx="118.2901" cy="-117.0336" rx="28.6953" ry="18"/>
<text text-anchor="middle" x="118.2901" y="-113.3336" font-family="Times,serif" font-size="14.00" fill="#000000">7049</text>
</g>
<!-- 7049&#45;&gt;174 -->
<g id="edge3" class="edge">
<title>7049&#45;&gt;174</title>
<path fill="none" stroke="#000000" d="M106.6284,-133.5369C102.2383,-139.7496 97.1436,-146.9595 92.3334,-153.7666"/>
<polygon fill="#000000" stroke="#000000" points="89.3798,-151.8817 86.4672,-162.0683 95.0965,-155.9213 89.3798,-151.8817"/>
</g>
<!-- 11058 -->
<g id="node6" class="node">
<title>11058</title>
<ellipse fill="none" stroke="#000000" cx="166.063" cy="-176.3148" rx="32.4942" ry="18"/>
<text text-anchor="middle" x="166.063" y="-172.6148" font-family="Times,serif" font-size="14.00" fill="#000000">11058</text>
</g>
<!-- 7049&#45;&gt;11058 -->
<g id="edge4" class="edge">
<title>7049&#45;&gt;11058</title>
<path fill="none" stroke="#000000" d="M131.3443,-133.2325C135.9026,-138.8889 141.1287,-145.3739 146.1187,-151.566"/>
<polygon fill="#000000" stroke="#000000" points="143.692,-154.1327 152.692,-159.7229 149.1425,-149.7403 143.692,-154.1327"/>
</g>
<!-- 22927 -->
<g id="node7" class="node">
<title>22927</title>
<ellipse fill="none" stroke="#000000" cx="32.2951" cy="-91.7731" rx="32.4942" ry="18"/>
<text text-anchor="middle" x="32.2951" y="-88.0731" font-family="Times,serif" font-size="14.00" fill="#000000">22927</text>
</g>
<!-- 7049&#45;&gt;22927 -->
<g id="edge5" class="edge">
<title>7049&#45;&gt;22927</title>
<path fill="none" stroke="#000000" d="M92.0215,-109.3174C85.2978,-107.3423 77.9275,-105.1773 70.7297,-103.063"/>
<polygon fill="#000000" stroke="#000000" points="71.6794,-99.6942 61.0983,-100.2339 69.7065,-106.4104 71.6794,-99.6942"/>
</g>
<!-- 27986 -->
<g id="node9" class="node">
<title>27986</title>
<ellipse fill="none" stroke="#000000" cx="94.901" cy="-17.9216" rx="32.4942" ry="18"/>
<text text-anchor="middle" x="94.901" y="-14.2216" font-family="Times,serif" font-size="14.00" fill="#000000">27986</text>
</g>
<!-- 7049&#45;&gt;27986 -->
<g id="edge6" class="edge">
<title>7049&#45;&gt;27986</title>
<path fill="none" stroke="#000000" d="M114.0002,-98.855C110.5054,-84.0456 105.5118,-62.8852 101.5072,-45.9154"/>
<polygon fill="#000000" stroke="#000000" points="104.867,-44.9138 99.1638,-35.985 98.0542,-46.5216 104.867,-44.9138"/>
</g>
<!-- 27883 -->
<g id="node8" class="node">
<title>27883</title>
<ellipse fill="none" stroke="#000000" cx="176.8273" cy="-45.8398" rx="32.4942" ry="18"/>
<text text-anchor="middle" x="176.8273" y="-42.1398" font-family="Times,serif" font-size="14.00" fill="#000000">27883</text>
</g>
<!-- 27883&#45;&gt;4270 -->
<g id="edge7" class="edge">
<title>27883&#45;&gt;4270</title>
<path fill="none" stroke="#000000" d="M194.7849,-60.8707C200.3857,-65.5588 206.6693,-70.8183 212.6668,-75.8383"/>
<polygon fill="#000000" stroke="#000000" points="210.6619,-78.7245 220.5767,-82.4591 215.1549,-73.3567 210.6619,-78.7245"/>
</g>
<!-- 27883&#45;&gt;7049 -->
<g id="edge8" class="edge">
<title>27883&#45;&gt;7049</title>
<path fill="none" stroke="#000000" d="M163.2506,-62.352C155.8624,-71.3376 146.5803,-82.6266 138.3713,-92.6106"/>
<polygon fill="#000000" stroke="#000000" points="135.4408,-90.6638 131.7932,-100.6109 140.8478,-95.1095 135.4408,-90.6638"/>
</g>
</g>
</svg>
