<?xml version="1.0" encoding="UTF-8" standalone="no"?>
<!DOCTYPE svg PUBLIC "-//W3C//DTD SVG 1.1//EN"
 "http://www.w3.org/Graphics/SVG/1.1/DTD/svg11.dtd">
<!-- Generated by graphviz version 2.40.1 (20161225.0304)
 -->
<!-- Title: %3 Pages: 1 -->
<svg width="322pt" height="332pt"
 viewBox="0.00 0.00 322.41 332.00" xmlns="http://www.w3.org/2000/svg" xmlns:xlink="http://www.w3.org/1999/xlink">
<g id="graph0" class="graph" transform="scale(1 1) rotate(0) translate(4 328)">
<title>%3</title>
<polygon fill="#ffffff" stroke="transparent" points="-4,4 -4,-328 318.4095,-328 318.4095,4 -4,4"/>
<!-- 174 -->
<g id="node1" class="node">
<title>174</title>
<ellipse fill="none" stroke="#000000" cx="32.4971" cy="-234" rx="27" ry="18"/>
<text text-anchor="middle" x="32.4971" y="-230.3" font-family="Times,serif" font-size="14.00" fill="#000000">174</text>
</g>
<!-- 3549 -->
<g id="node2" class="node">
<title>3549</title>
<ellipse fill="none" stroke="#000000" cx="281.9124" cy="-234" rx="28.6953" ry="18"/>
<text text-anchor="middle" x="281.9124" y="-230.3" font-family="Times,serif" font-size="14.00" fill="#000000">3549</text>
</g>
<!-- 4270 -->
<g id="node3" class="node">
<title>4270</title>
<ellipse fill="none" stroke="#000000" cx="193.2048" cy="-224.3538" rx="28.6953" ry="18"/>
<text text-anchor="middle" x="193.2048" y="-220.6538" font-family="Times,serif" font-size="14.00" fill="#000000">4270</text>
</g>
<!-- 4270&#45;&gt;3549 -->
<g id="edge1" class="edge">
<title>4270&#45;&gt;3549</title>
<path fill="none" stroke="#000000" d="M221.7607,-227.459C228.7146,-228.2152 236.2645,-229.0362 243.5906,-229.8328"/>
<polygon fill="#000000" stroke="#000000" points="243.3936,-233.332 253.7134,-230.9336 244.1504,-226.373 243.3936,-233.332"/>
</g>
<!-- 7303 -->
<g id="node5" class="node">
<title>7303</title>
<ellipse fill="none" stroke="#000000" cx="157.2048" cy="-306" rx="28.6953" ry="18"/>
<text text-anchor="middle" x="157.2048" y="-302.3" font-family="Times,serif" font-size="14.00" fill="#000000">7303</text>
</g>
<!-- 4270&#45;&gt;7303 -->
<g id="edge2" class="edge">
<title>4270&#45;&gt;7303</title>
<path fill="none" stroke="#000000" d="M185.3933,-242.0698C180.596,-252.9499 174.359,-267.0951 168.9718,-279.313"/>
<polygon fill="#000000" stroke="#000000" points="165.7094,-278.0369 164.8773,-288.5991 172.1144,-280.8611 165.7094,-278.0369"/>
</g>
<!-- 7049 -->
<g id="node4" class="node">
<title>7049</title>
<ellipse fill="none" stroke="#000000" cx="121.2048" cy="-99.6462" rx="28.6953" ry="18"/>
<text text-anchor="middle" x="121.2048" y="-95.9462" font-family="Times,serif" font-size="14.00" fill="#000000">7049</text>
</g>
<!-- 7049&#45;&gt;174 -->
<g id="edge3" class="edge">
<title>7049&#45;&gt;174</title>
<path fill="none" stroke="#000000" d="M110.1492,-116.3905C94.7935,-139.6479 66.8892,-181.9109 49.0461,-208.9355"/>
<polygon fill="#000000" stroke="#000000" points="46.0025,-207.1931 43.4133,-217.4667 51.844,-211.05 46.0025,-207.1931"/>
</g>
<!-- 11058 -->
<g id="node6" class="node">
<title>11058</title>
<ellipse fill="none" stroke="#000000" cx="32.4971" cy="-90" rx="32.4942" ry="18"/>
<text text-anchor="middle" x="32.4971" y="-86.3" font-family="Times,serif" font-size="14.00" fill="#000000">11058</text>
</g>
<!-- 7049&#45;&gt;11058 -->
<g id="edge4" class="edge">
<title>7049&#45;&gt;11058</title>
<path fill="none" stroke="#000000" d="M92.6488,-96.541C86.9382,-95.92 80.8257,-95.2553 74.7652,-94.5963"/>
<polygon fill="#000000" stroke="#000000" points="75.0149,-91.1029 64.6951,-93.5012 74.2581,-98.0619 75.0149,-91.1029"/>
</g>
<!-- 22927 -->
<g id="node7" class="node">
<title>22927</title>
<ellipse fill="none" stroke="#000000" cx="157.2048" cy="-18" rx="32.4942" ry="18"/>
<text text-anchor="middle" x="157.2048" y="-14.3" font-family="Times,serif" font-size="14.00" fill="#000000">22927</text>
</g>
<!-- 7049&#45;&gt;22927 -->
<g id="edge5" class="edge">
<title>7049&#45;&gt;22927</title>
<path fill="none" stroke="#000000" d="M129.0162,-81.9302C133.7809,-71.1241 139.9658,-57.0972 145.3277,-44.9366"/>
<polygon fill="#000000" stroke="#000000" points="148.5765,-46.2436 149.4086,-35.6814 142.1715,-43.4194 148.5765,-46.2436"/>
</g>
<!-- 27986 -->
<g id="node9" class="node">
<title>27986</title>
<ellipse fill="none" stroke="#000000" cx="281.9124" cy="-90" rx="32.4942" ry="18"/>
<text text-anchor="middle" x="281.9124" y="-86.3" font-family="Times,serif" font-size="14.00" fill="#000000">27986</text>
</g>
<!-- 7049&#45;&gt;27986 -->
<g id="edge6" class="edge">
<title>7049&#45;&gt;27986</title>
<path fill="none" stroke="#000000" d="M149.9361,-97.9216C174.8628,-96.4254 211.2832,-94.2394 239.553,-92.5425"/>
<polygon fill="#000000" stroke="#000000" points="239.7907,-96.0347 249.563,-91.9417 239.3713,-89.0472 239.7907,-96.0347"/>
</g>
<!-- 27883 -->
<g id="node8" class="node">
<title>27883</title>
<ellipse fill="none" stroke="#000000" cx="157.2048" cy="-162" rx="32.4942" ry="18"/>
<text text-anchor="middle" x="157.2048" y="-158.3" font-family="Times,serif" font-size="14.00" fill="#000000">27883</text>
</g>
<!-- 27883&#45;&gt;4270 -->
<g id="edge7" class="edge">
<title>27883&#45;&gt;4270</title>
<path fill="none" stroke="#000000" d="M167.2328,-179.369C170.5876,-185.1797 174.4053,-191.7923 178.0617,-198.1253"/>
<polygon fill="#000000" stroke="#000000" points="175.1994,-200.1677 183.2305,-207.078 181.2616,-196.6677 175.1994,-200.1677"/>
</g>
<!-- 27883&#45;&gt;7049 -->
<g id="edge8" class="edge">
<title>27883&#45;&gt;7049</title>
<path fill="none" stroke="#000000" d="M147.1768,-144.631C143.822,-138.8203 140.0042,-132.2077 136.3478,-125.8747"/>
<polygon fill="#000000" stroke="#000000" points="139.2101,-123.8323 131.179,-116.922 133.148,-127.3323 139.2101,-123.8323"/>
</g>
</g>
</svg>
