<?xml version="1.0" encoding="UTF-8" standalone="no"?>
<!DOCTYPE svg PUBLIC "-//W3C//DTD SVG 1.1//EN"
 "http://www.w3.org/Graphics/SVG/1.1/DTD/svg11.dtd">
<!-- Generated by graphviz version 2.40.1 (20161225.0304)
 -->
<!-- Title: %3 Pages: 1 -->
<svg width="1028pt" height="701pt"
 viewBox="0.00 0.00 1027.76 701.40" xmlns="http://www.w3.org/2000/svg" xmlns:xlink="http://www.w3.org/1999/xlink">
<g id="graph0" class="graph" transform="scale(1 1) rotate(0) translate(4 697.4042)">
<title>%3</title>
<polygon fill="#ffffff" stroke="transparent" points="-4,4 -4,-697.4042 1023.7641,-697.4042 1023.7641,4 -4,4"/>
<!-- 174 -->
<g id="node1" class="node">
<title>174</title>
<ellipse fill="none" stroke="#000000" cx="27" cy="-280.7426" rx="27" ry="18"/>
<text text-anchor="middle" x="27" y="-277.0426" font-family="Times,serif" font-size="14.00" fill="#000000">174</text>
</g>
<!-- 3549 -->
<g id="node2" class="node">
<title>3549</title>
<ellipse fill="none" stroke="#000000" cx="547.791" cy="-675.4042" rx="28.6953" ry="18"/>
<text text-anchor="middle" x="547.791" y="-671.7042" font-family="Times,serif" font-size="14.00" fill="#000000">3549</text>
</g>
<!-- 4270 -->
<g id="node3" class="node">
<title>4270</title>
<ellipse fill="none" stroke="#000000" cx="443.9477" cy="-598.5413" rx="28.6953" ry="18"/>
<text text-anchor="middle" x="443.9477" y="-594.8413" font-family="Times,serif" font-size="14.00" fill="#000000">4270</text>
</g>
<!-- 4270&#45;&gt;3549 -->
<g id="edge1" class="edge">
<title>4270&#45;&gt;3549</title>
<path fill="none" stroke="#000000" d="M462.5128,-612.2829C478.656,-624.2318 502.2596,-641.7027 520.5439,-655.2364"/>
<polygon fill="#000000" stroke="#000000" points="518.9165,-658.3863 529.0365,-661.5225 523.0811,-652.7599 518.9165,-658.3863"/>
</g>
<!-- 7303 -->
<g id="node5" class="node">
<title>7303</title>
<ellipse fill="none" stroke="#000000" cx="340.1045" cy="-521.6785" rx="28.6953" ry="18"/>
<text text-anchor="middle" x="340.1045" y="-517.9785" font-family="Times,serif" font-size="14.00" fill="#000000">7303</text>
</g>
<!-- 4270&#45;&gt;7303 -->
<g id="edge2" class="edge">
<title>4270&#45;&gt;7303</title>
<path fill="none" stroke="#000000" d="M425.3826,-584.7998C409.2394,-572.8509 385.6359,-555.38 367.3516,-541.8463"/>
<polygon fill="#000000" stroke="#000000" points="368.979,-538.6964 358.8589,-535.5602 364.8144,-544.3228 368.979,-538.6964"/>
</g>
<!-- 7049 -->
<g id="node4" class="node">
<title>7049</title>
<ellipse fill="none" stroke="#000000" cx="679.1765" cy="-280.7426" rx="28.6953" ry="18"/>
<text text-anchor="middle" x="679.1765" y="-277.0426" font-family="Times,serif" font-size="14.00" fill="#000000">7049</text>
</g>
<!-- 7049&#45;&gt;174 -->
<g id="edge3" class="edge">
<title>7049&#45;&gt;174</title>
<path fill="none" stroke="#000000" d="M650.3118,-280.7426C545.1287,-280.7426 182.3743,-280.7426 64.3955,-280.7426"/>
<polygon fill="#000000" stroke="#000000" points="64.0771,-277.2427 54.077,-280.7426 64.077,-284.2427 64.0771,-277.2427"/>
</g>
<!-- 11058 -->
<g id="node6" class="node">
<title>11058</title>
<ellipse fill="none" stroke="#000000" cx="484.6992" cy="-18" rx="32.4942" ry="18"/>
<text text-anchor="middle" x="484.6992" y="-14.3" font-family="Times,serif" font-size="14.00" fill="#000000">11058</text>
</g>
<!-- 7049&#45;&gt;11058 -->
<g id="edge4" class="edge">
<title>7049&#45;&gt;11058</title>
<path fill="none" stroke="#000000" d="M667.011,-264.3069C634.0061,-219.7166 542.6137,-96.2436 503.1922,-42.9843"/>
<polygon fill="#000000" stroke="#000000" points="505.8732,-40.7234 497.1106,-34.768 500.2468,-44.888 505.8732,-40.7234"/>
</g>
<!-- 22927 -->
<g id="node7" class="node">
<title>22927</title>
<ellipse fill="none" stroke="#000000" cx="873.6537" cy="-18" rx="32.4942" ry="18"/>
<text text-anchor="middle" x="873.6537" y="-14.3" font-family="Times,serif" font-size="14.00" fill="#000000">22927</text>
</g>
<!-- 7049&#45;&gt;22927 -->
<g id="edge5" class="edge">
<title>7049&#45;&gt;22927</title>
<path fill="none" stroke="#000000" d="M691.3419,-264.3069C724.3468,-219.7166 815.7393,-96.2436 855.1608,-42.9843"/>
<polygon fill="#000000" stroke="#000000" points="858.1061,-44.888 861.2424,-34.768 852.4797,-40.7234 858.1061,-44.888"/>
</g>
<!-- 27986 -->
<g id="node9" class="node">
<title>27986</title>
<ellipse fill="none" stroke="#000000" cx="987.267" cy="-389.9914" rx="32.4942" ry="18"/>
<text text-anchor="middle" x="987.267" y="-386.2914" font-family="Times,serif" font-size="14.00" fill="#000000">27986</text>
</g>
<!-- 7049&#45;&gt;27986 -->
<g id="edge6" class="edge">
<title>7049&#45;&gt;27986</title>
<path fill="none" stroke="#000000" d="M704.1278,-289.5904C758.2474,-308.7812 886.6561,-354.3148 950.2571,-376.8677"/>
<polygon fill="#000000" stroke="#000000" points="949.2922,-380.239 959.8869,-380.2824 951.6317,-373.6415 949.2922,-380.239"/>
</g>
<!-- 27883 -->
<g id="node8" class="node">
<title>27883</title>
<ellipse fill="none" stroke="#000000" cx="599.9935" cy="-387.7203" rx="32.4942" ry="18"/>
<text text-anchor="middle" x="599.9935" y="-384.0203" font-family="Times,serif" font-size="14.00" fill="#000000">27883</text>
</g>
<!-- 27883&#45;&gt;4270 -->
<g id="edge7" class="edge">
<title>27883&#45;&gt;4270</title>
<path fill="none" stroke="#000000" d="M587.4874,-404.6163C560.0171,-441.7294 494.3072,-530.5048 462.2129,-573.8648"/>
<polygon fill="#000000" stroke="#000000" points="459.218,-572.028 456.0818,-582.148 464.8444,-576.1926 459.218,-572.028"/>
</g>
<!-- 27883&#45;&gt;7049 -->
<g id="edge8" class="edge">
<title>27883&#45;&gt;7049</title>
<path fill="none" stroke="#000000" d="M612.3659,-371.0051C625.3822,-353.4198 646.0062,-325.5563 660.8984,-305.4366"/>
<polygon fill="#000000" stroke="#000000" points="663.7548,-307.4606 666.891,-297.3405 658.1284,-303.296 663.7548,-307.4606"/>
</g>
</g>
</svg>
