<?xml version="1.0" encoding="UTF-8" standalone="no"?>
<!DOCTYPE svg PUBLIC "-//W3C//DTD SVG 1.1//EN"
 "http://www.w3.org/Graphics/SVG/1.1/DTD/svg11.dtd">
<!-- Generated by graphviz version 2.40.1 (20161225.0304)
 -->
<!-- Title: %3 Pages: 1 -->
<svg width="354pt" height="209pt"
 viewBox="0.00 0.00 353.60 209.49" xmlns="http://www.w3.org/2000/svg" xmlns:xlink="http://www.w3.org/1999/xlink">
<g id="graph0" class="graph" transform="scale(1 1) rotate(0) translate(4 205.4927)">
<title>%3</title>
<polygon fill="#ffffff" stroke="transparent" points="-4,4 -4,-205.4927 349.5987,-205.4927 349.5987,4 -4,4"/>
<!-- 174 -->
<g id="node1" class="node">
<title>174</title>
<ellipse fill="none" stroke="#000000" cx="34.7137" cy="-145.4338" rx="27" ry="18"/>
<text text-anchor="middle" x="34.7137" y="-141.7338" font-family="Times,serif" font-size="14.00" fill="#000000">174</text>
</g>
<!-- 3549 -->
<g id="node2" class="node">
<title>3549</title>
<ellipse fill="none" stroke="#000000" cx="316.0766" cy="-35.7223" rx="28.6953" ry="18"/>
<text text-anchor="middle" x="316.0766" y="-32.0223" font-family="Times,serif" font-size="14.00" fill="#000000">3549</text>
</g>
<!-- 4270 -->
<g id="node3" class="node">
<title>4270</title>
<ellipse fill="none" stroke="#000000" cx="264.9727" cy="-96.4185" rx="28.6953" ry="18"/>
<text text-anchor="middle" x="264.9727" y="-92.7185" font-family="Times,serif" font-size="14.00" fill="#000000">4270</text>
</g>
<!-- 4270&#45;&gt;3549 -->
<g id="edge1" class="edge">
<title>4270&#45;&gt;3549</title>
<path fill="none" stroke="#000000" d="M278.3996,-80.4712C283.756,-74.1095 290.0377,-66.6487 295.9198,-59.6625"/>
<polygon fill="#000000" stroke="#000000" points="298.7985,-61.6776 302.5619,-51.7737 293.4437,-57.1691 298.7985,-61.6776"/>
</g>
<!-- 7303 -->
<g id="node5" class="node">
<title>7303</title>
<ellipse fill="none" stroke="#000000" cx="317.0012" cy="-156.8101" rx="28.6953" ry="18"/>
<text text-anchor="middle" x="317.0012" y="-153.1101" font-family="Times,serif" font-size="14.00" fill="#000000">7303</text>
</g>
<!-- 4270&#45;&gt;7303 -->
<g id="edge2" class="edge">
<title>4270&#45;&gt;7303</title>
<path fill="none" stroke="#000000" d="M278.6426,-112.2857C284.0958,-118.6155 290.4912,-126.0389 296.4797,-132.99"/>
<polygon fill="#000000" stroke="#000000" points="294.0633,-135.5475 303.242,-140.8392 299.3666,-130.9786 294.0633,-135.5475"/>
</g>
<!-- 7049 -->
<g id="node4" class="node">
<title>7049</title>
<ellipse fill="none" stroke="#000000" cx="102.9055" cy="-100.7727" rx="28.6953" ry="18"/>
<text text-anchor="middle" x="102.9055" y="-97.0727" font-family="Times,serif" font-size="14.00" fill="#000000">7049</text>
</g>
<!-- 7049&#45;&gt;174 -->
<g id="edge3" class="edge">
<title>7049&#45;&gt;174</title>
<path fill="none" stroke="#000000" d="M82.8145,-113.931C76.6563,-117.9642 69.7603,-122.4806 63.1555,-126.8063"/>
<polygon fill="#000000" stroke="#000000" points="60.874,-124.1166 54.4261,-132.5234 64.7093,-129.9725 60.874,-124.1166"/>
</g>
<!-- 11058 -->
<g id="node6" class="node">
<title>11058</title>
<ellipse fill="none" stroke="#000000" cx="104.6028" cy="-183.4927" rx="32.4942" ry="18"/>
<text text-anchor="middle" x="104.6028" y="-179.7927" font-family="Times,serif" font-size="14.00" fill="#000000">11058</text>
</g>
<!-- 7049&#45;&gt;11058 -->
<g id="edge4" class="edge">
<title>7049&#45;&gt;11058</title>
<path fill="none" stroke="#000000" d="M103.2822,-119.131C103.499,-129.6991 103.7762,-143.205 104.0205,-155.1134"/>
<polygon fill="#000000" stroke="#000000" points="100.5285,-155.5443 104.233,-165.4704 107.527,-155.4006 100.5285,-155.5443"/>
</g>
<!-- 22927 -->
<g id="node7" class="node">
<title>22927</title>
<ellipse fill="none" stroke="#000000" cx="32.4971" cy="-59.6844" rx="32.4942" ry="18"/>
<text text-anchor="middle" x="32.4971" y="-55.9844" font-family="Times,serif" font-size="14.00" fill="#000000">22927</text>
</g>
<!-- 7049&#45;&gt;22927 -->
<g id="edge5" class="edge">
<title>7049&#45;&gt;22927</title>
<path fill="none" stroke="#000000" d="M81.7807,-88.4449C76.1199,-85.1414 69.8777,-81.4986 63.7931,-77.9479"/>
<polygon fill="#000000" stroke="#000000" points="65.4784,-74.879 55.0774,-72.8616 61.9502,-80.9249 65.4784,-74.879"/>
</g>
<!-- 27986 -->
<g id="node9" class="node">
<title>27986</title>
<ellipse fill="none" stroke="#000000" cx="100.0786" cy="-18" rx="32.4942" ry="18"/>
<text text-anchor="middle" x="100.0786" y="-14.3" font-family="Times,serif" font-size="14.00" fill="#000000">27986</text>
</g>
<!-- 7049&#45;&gt;27986 -->
<g id="edge6" class="edge">
<title>7049&#45;&gt;27986</title>
<path fill="none" stroke="#000000" d="M102.2781,-82.4028C101.9133,-71.72 101.446,-58.0372 101.036,-46.0331"/>
<polygon fill="#000000" stroke="#000000" points="104.5339,-45.9085 100.6945,-36.0338 97.5379,-46.1475 104.5339,-45.9085"/>
</g>
<!-- 27883 -->
<g id="node8" class="node">
<title>27883</title>
<ellipse fill="none" stroke="#000000" cx="185.4264" cy="-98.1142" rx="32.4942" ry="18"/>
<text text-anchor="middle" x="185.4264" y="-94.4142" font-family="Times,serif" font-size="14.00" fill="#000000">27883</text>
</g>
<!-- 27883&#45;&gt;4270 -->
<g id="edge7" class="edge">
<title>27883&#45;&gt;4270</title>
<path fill="none" stroke="#000000" d="M218.2402,-97.4147C220.8615,-97.3588 223.5244,-97.302 226.1815,-97.2454"/>
<polygon fill="#000000" stroke="#000000" points="226.3772,-100.7421 236.3003,-97.0297 226.228,-93.7437 226.3772,-100.7421"/>
</g>
<!-- 27883&#45;&gt;7049 -->
<g id="edge8" class="edge">
<title>27883&#45;&gt;7049</title>
<path fill="none" stroke="#000000" d="M152.812,-99.1649C149.1882,-99.2817 145.4713,-99.4014 141.7799,-99.5203"/>
<polygon fill="#000000" stroke="#000000" points="141.425,-96.0299 131.543,-99.8501 141.6505,-103.0262 141.425,-96.0299"/>
</g>
</g>
</svg>
