<?xml version="1.0" encoding="UTF-8" standalone="no"?>
<!DOCTYPE svg PUBLIC "-//W3C//DTD SVG 1.1//EN"
 "http://www.w3.org/Graphics/SVG/1.1/DTD/svg11.dtd">
<!-- Generated by graphviz version 2.40.1 (20161225.0304)
 -->
<!-- Title: %3 Pages: 1 -->
<svg width="1349pt" height="1340pt"
 viewBox="0.00 0.00 1348.54 1340.00" xmlns="http://www.w3.org/2000/svg" xmlns:xlink="http://www.w3.org/1999/xlink">
<g id="graph0" class="graph" transform="scale(1 1) rotate(0) translate(4 1336)">
<title>%3</title>
<polygon fill="#ffffff" stroke="transparent" points="-4,4 -4,-1336 1344.5438,-1336 1344.5438,4 -4,4"/>
<!-- 174 -->
<g id="node1" class="node">
<title>174</title>
<ellipse fill="none" stroke="#000000" cx="260.4971" cy="-594" rx="27" ry="18"/>
<text text-anchor="middle" x="260.4971" y="-590.3" font-family="Times,serif" font-size="14.00" fill="#000000">174</text>
</g>
<!-- 209 -->
<g id="node2" class="node">
<title>209</title>
<ellipse fill="none" stroke="#000000" cx="260.4971" cy="-522" rx="27" ry="18"/>
<text text-anchor="middle" x="260.4971" y="-518.3" font-family="Times,serif" font-size="14.00" fill="#000000">209</text>
</g>
<!-- 174&#45;&gt;209 -->
<g id="edge1" class="edge">
<title>174&#45;&gt;209</title>
<path fill="none" stroke="#000000" d="M260.4971,-575.8314C260.4971,-568.131 260.4971,-558.9743 260.4971,-550.4166"/>
<polygon fill="#000000" stroke="#000000" points="263.9972,-550.4132 260.4971,-540.4133 256.9972,-550.4133 263.9972,-550.4132"/>
</g>
<!-- 1299 -->
<g id="node7" class="node">
<title>1299</title>
<ellipse fill="none" stroke="#000000" cx="223.4971" cy="-450" rx="28.6953" ry="18"/>
<text text-anchor="middle" x="223.4971" y="-446.3" font-family="Times,serif" font-size="14.00" fill="#000000">1299</text>
</g>
<!-- 209&#45;&gt;1299 -->
<g id="edge2" class="edge">
<title>209&#45;&gt;1299</title>
<path fill="none" stroke="#000000" d="M251.7286,-504.937C247.3692,-496.4537 242.0018,-486.0092 237.1218,-476.513"/>
<polygon fill="#000000" stroke="#000000" points="240.1434,-474.7352 232.4597,-467.4407 233.9174,-477.9348 240.1434,-474.7352"/>
</g>
<!-- 2828 -->
<g id="node12" class="node">
<title>2828</title>
<ellipse fill="none" stroke="#000000" cx="298.4971" cy="-450" rx="28.6953" ry="18"/>
<text text-anchor="middle" x="298.4971" y="-446.3" font-family="Times,serif" font-size="14.00" fill="#000000">2828</text>
</g>
<!-- 209&#45;&gt;2828 -->
<g id="edge3" class="edge">
<title>209&#45;&gt;2828</title>
<path fill="none" stroke="#000000" d="M269.5026,-504.937C273.9799,-496.4537 279.4923,-486.0092 284.5042,-476.513"/>
<polygon fill="#000000" stroke="#000000" points="287.72,-477.9182 289.2923,-467.4407 281.5293,-474.6509 287.72,-477.9182"/>
</g>
<!-- 701 -->
<g id="node3" class="node">
<title>701</title>
<ellipse fill="none" stroke="#000000" cx="223.4971" cy="-234" rx="27" ry="18"/>
<text text-anchor="middle" x="223.4971" y="-230.3" font-family="Times,serif" font-size="14.00" fill="#000000">701</text>
</g>
<!-- 703 -->
<g id="node4" class="node">
<title>703</title>
<ellipse fill="none" stroke="#000000" cx="186.4971" cy="-162" rx="27" ry="18"/>
<text text-anchor="middle" x="186.4971" y="-158.3" font-family="Times,serif" font-size="14.00" fill="#000000">703</text>
</g>
<!-- 701&#45;&gt;703 -->
<g id="edge4" class="edge">
<title>701&#45;&gt;703</title>
<path fill="none" stroke="#000000" d="M214.7286,-216.937C210.3692,-208.4537 205.0018,-198.0092 200.1218,-188.513"/>
<polygon fill="#000000" stroke="#000000" points="203.1434,-186.7352 195.4597,-179.4407 196.9174,-189.9348 203.1434,-186.7352"/>
</g>
<!-- 7018 -->
<g id="node29" class="node">
<title>7018</title>
<ellipse fill="none" stroke="#000000" cx="302.4971" cy="-162" rx="28.6953" ry="18"/>
<text text-anchor="middle" x="302.4971" y="-158.3" font-family="Times,serif" font-size="14.00" fill="#000000">7018</text>
</g>
<!-- 701&#45;&gt;7018 -->
<g id="edge5" class="edge">
<title>701&#45;&gt;7018</title>
<path fill="none" stroke="#000000" d="M239.4839,-219.4297C250.685,-209.2212 265.8522,-195.3979 278.4993,-183.8714"/>
<polygon fill="#000000" stroke="#000000" points="280.9569,-186.3671 285.9902,-177.0442 276.2417,-181.1935 280.9569,-186.3671"/>
</g>
<!-- 2516 -->
<g id="node9" class="node">
<title>2516</title>
<ellipse fill="none" stroke="#000000" cx="72.4971" cy="-90" rx="28.6953" ry="18"/>
<text text-anchor="middle" x="72.4971" y="-86.3" font-family="Times,serif" font-size="14.00" fill="#000000">2516</text>
</g>
<!-- 703&#45;&gt;2516 -->
<g id="edge6" class="edge">
<title>703&#45;&gt;2516</title>
<path fill="none" stroke="#000000" d="M166.6398,-149.4586C148.6354,-138.0873 121.8738,-121.1853 101.4806,-108.3053"/>
<polygon fill="#000000" stroke="#000000" points="103.2184,-105.2633 92.8945,-102.8825 99.4804,-111.1817 103.2184,-105.2633"/>
</g>
<!-- 9498 -->
<g id="node32" class="node">
<title>9498</title>
<ellipse fill="none" stroke="#000000" cx="186.4971" cy="-90" rx="28.6953" ry="18"/>
<text text-anchor="middle" x="186.4971" y="-86.3" font-family="Times,serif" font-size="14.00" fill="#000000">9498</text>
</g>
<!-- 703&#45;&gt;9498 -->
<g id="edge7" class="edge">
<title>703&#45;&gt;9498</title>
<path fill="none" stroke="#000000" d="M186.4971,-143.8314C186.4971,-136.131 186.4971,-126.9743 186.4971,-118.4166"/>
<polygon fill="#000000" stroke="#000000" points="189.9972,-118.4132 186.4971,-108.4133 182.9972,-118.4133 189.9972,-118.4132"/>
</g>
<!-- 1239 -->
<g id="node5" class="node">
<title>1239</title>
<ellipse fill="none" stroke="#000000" cx="344.4971" cy="-18" rx="28.6953" ry="18"/>
<text text-anchor="middle" x="344.4971" y="-14.3" font-family="Times,serif" font-size="14.00" fill="#000000">1239</text>
</g>
<!-- 1273 -->
<g id="node6" class="node">
<title>1273</title>
<ellipse fill="none" stroke="#000000" cx="419.4971" cy="-18" rx="28.6953" ry="18"/>
<text text-anchor="middle" x="419.4971" y="-14.3" font-family="Times,serif" font-size="14.00" fill="#000000">1273</text>
</g>
<!-- 6461 -->
<g id="node25" class="node">
<title>6461</title>
<ellipse fill="none" stroke="#000000" cx="223.4971" cy="-378" rx="28.6953" ry="18"/>
<text text-anchor="middle" x="223.4971" y="-374.3" font-family="Times,serif" font-size="14.00" fill="#000000">6461</text>
</g>
<!-- 1299&#45;&gt;6461 -->
<g id="edge8" class="edge">
<title>1299&#45;&gt;6461</title>
<path fill="none" stroke="#000000" d="M223.4971,-431.8314C223.4971,-424.131 223.4971,-414.9743 223.4971,-406.4166"/>
<polygon fill="#000000" stroke="#000000" points="226.9972,-406.4132 223.4971,-396.4133 219.9972,-406.4133 226.9972,-406.4132"/>
</g>
<!-- 2497 -->
<g id="node8" class="node">
<title>2497</title>
<ellipse fill="none" stroke="#000000" cx="223.4971" cy="-306" rx="28.6953" ry="18"/>
<text text-anchor="middle" x="223.4971" y="-302.3" font-family="Times,serif" font-size="14.00" fill="#000000">2497</text>
</g>
<!-- 2497&#45;&gt;701 -->
<g id="edge9" class="edge">
<title>2497&#45;&gt;701</title>
<path fill="none" stroke="#000000" d="M223.4971,-287.8314C223.4971,-280.131 223.4971,-270.9743 223.4971,-262.4166"/>
<polygon fill="#000000" stroke="#000000" points="226.9972,-262.4132 223.4971,-252.4133 219.9972,-262.4133 226.9972,-262.4132"/>
</g>
<!-- 32787 -->
<g id="node43" class="node">
<title>32787</title>
<ellipse fill="none" stroke="#000000" cx="32.4971" cy="-18" rx="32.4942" ry="18"/>
<text text-anchor="middle" x="32.4971" y="-14.3" font-family="Times,serif" font-size="14.00" fill="#000000">32787</text>
</g>
<!-- 2516&#45;&gt;32787 -->
<g id="edge10" class="edge">
<title>2516&#45;&gt;32787</title>
<path fill="none" stroke="#000000" d="M63.0177,-72.937C58.2556,-64.3654 52.3812,-53.7914 47.0619,-44.2165"/>
<polygon fill="#000000" stroke="#000000" points="50.1024,-42.4825 42.1864,-35.4407 43.9833,-45.882 50.1024,-42.4825"/>
</g>
<!-- 2686 -->
<g id="node10" class="node">
<title>2686</title>
<ellipse fill="none" stroke="#000000" cx="336.4971" cy="-738" rx="28.6953" ry="18"/>
<text text-anchor="middle" x="336.4971" y="-734.3" font-family="Times,serif" font-size="14.00" fill="#000000">2686</text>
</g>
<!-- 3741 -->
<g id="node20" class="node">
<title>3741</title>
<ellipse fill="none" stroke="#000000" cx="336.4971" cy="-666" rx="28.6953" ry="18"/>
<text text-anchor="middle" x="336.4971" y="-662.3" font-family="Times,serif" font-size="14.00" fill="#000000">3741</text>
</g>
<!-- 2686&#45;&gt;3741 -->
<g id="edge11" class="edge">
<title>2686&#45;&gt;3741</title>
<path fill="none" stroke="#000000" d="M336.4971,-719.8314C336.4971,-712.131 336.4971,-702.9743 336.4971,-694.4166"/>
<polygon fill="#000000" stroke="#000000" points="339.9972,-694.4132 336.4971,-684.4133 332.9972,-694.4133 339.9972,-694.4132"/>
</g>
<!-- 2687 -->
<g id="node11" class="node">
<title>2687</title>
<ellipse fill="none" stroke="#000000" cx="336.4971" cy="-810" rx="28.6953" ry="18"/>
<text text-anchor="middle" x="336.4971" y="-806.3" font-family="Times,serif" font-size="14.00" fill="#000000">2687</text>
</g>
<!-- 2687&#45;&gt;2686 -->
<g id="edge12" class="edge">
<title>2687&#45;&gt;2686</title>
<path fill="none" stroke="#000000" d="M336.4971,-791.8314C336.4971,-784.131 336.4971,-774.9743 336.4971,-766.4166"/>
<polygon fill="#000000" stroke="#000000" points="339.9972,-766.4132 336.4971,-756.4133 332.9972,-766.4133 339.9972,-766.4132"/>
</g>
<!-- 9505 -->
<g id="node33" class="node">
<title>9505</title>
<ellipse fill="none" stroke="#000000" cx="411.4971" cy="-738" rx="28.6953" ry="18"/>
<text text-anchor="middle" x="411.4971" y="-734.3" font-family="Times,serif" font-size="14.00" fill="#000000">9505</text>
</g>
<!-- 2687&#45;&gt;9505 -->
<g id="edge13" class="edge">
<title>2687&#45;&gt;9505</title>
<path fill="none" stroke="#000000" d="M352.4027,-794.7307C362.8434,-784.7075 376.672,-771.4321 388.3269,-760.2434"/>
<polygon fill="#000000" stroke="#000000" points="390.8244,-762.6976 395.6145,-753.2473 385.9767,-757.6478 390.8244,-762.6976"/>
</g>
<!-- 2914 -->
<g id="node13" class="node">
<title>2914</title>
<ellipse fill="none" stroke="#000000" cx="261.4971" cy="-882" rx="28.6953" ry="18"/>
<text text-anchor="middle" x="261.4971" y="-878.3" font-family="Times,serif" font-size="14.00" fill="#000000">2914</text>
</g>
<!-- 6453 -->
<g id="node24" class="node">
<title>6453</title>
<ellipse fill="none" stroke="#000000" cx="261.4971" cy="-810" rx="28.6953" ry="18"/>
<text text-anchor="middle" x="261.4971" y="-806.3" font-family="Times,serif" font-size="14.00" fill="#000000">6453</text>
</g>
<!-- 2914&#45;&gt;6453 -->
<g id="edge14" class="edge">
<title>2914&#45;&gt;6453</title>
<path fill="none" stroke="#000000" d="M261.4971,-863.8314C261.4971,-856.131 261.4971,-846.9743 261.4971,-838.4166"/>
<polygon fill="#000000" stroke="#000000" points="264.9972,-838.4132 261.4971,-828.4133 257.9972,-838.4133 264.9972,-838.4132"/>
</g>
<!-- 3257 -->
<g id="node14" class="node">
<title>3257</title>
<ellipse fill="none" stroke="#000000" cx="261.4971" cy="-738" rx="28.6953" ry="18"/>
<text text-anchor="middle" x="261.4971" y="-734.3" font-family="Times,serif" font-size="14.00" fill="#000000">3257</text>
</g>
<!-- 3491 -->
<g id="node17" class="node">
<title>3491</title>
<ellipse fill="none" stroke="#000000" cx="261.4971" cy="-666" rx="28.6953" ry="18"/>
<text text-anchor="middle" x="261.4971" y="-662.3" font-family="Times,serif" font-size="14.00" fill="#000000">3491</text>
</g>
<!-- 3257&#45;&gt;3491 -->
<g id="edge15" class="edge">
<title>3257&#45;&gt;3491</title>
<path fill="none" stroke="#000000" d="M261.4971,-719.8314C261.4971,-712.131 261.4971,-702.9743 261.4971,-694.4166"/>
<polygon fill="#000000" stroke="#000000" points="264.9972,-694.4132 261.4971,-684.4133 257.9972,-694.4133 264.9972,-694.4132"/>
</g>
<!-- 3320 -->
<g id="node15" class="node">
<title>3320</title>
<ellipse fill="none" stroke="#000000" cx="381.4971" cy="-90" rx="28.6953" ry="18"/>
<text text-anchor="middle" x="381.4971" y="-86.3" font-family="Times,serif" font-size="14.00" fill="#000000">3320</text>
</g>
<!-- 3320&#45;&gt;1239 -->
<g id="edge16" class="edge">
<title>3320&#45;&gt;1239</title>
<path fill="none" stroke="#000000" d="M372.5404,-72.5708C368.1775,-64.0807 362.8393,-53.6929 357.9956,-44.2674"/>
<polygon fill="#000000" stroke="#000000" points="361.0551,-42.5633 353.3713,-35.2687 354.829,-45.7628 361.0551,-42.5633"/>
</g>
<!-- 3320&#45;&gt;1273 -->
<g id="edge17" class="edge">
<title>3320&#45;&gt;1273</title>
<path fill="none" stroke="#000000" d="M390.6959,-72.5708C395.1768,-64.0807 400.6592,-53.6929 405.6338,-44.2674"/>
<polygon fill="#000000" stroke="#000000" points="408.8108,-45.7462 410.3831,-35.2687 402.6201,-42.4789 408.8108,-45.7462"/>
</g>
<!-- 5511 -->
<g id="node22" class="node">
<title>5511</title>
<ellipse fill="none" stroke="#000000" cx="494.4971" cy="-18" rx="28.6953" ry="18"/>
<text text-anchor="middle" x="494.4971" y="-14.3" font-family="Times,serif" font-size="14.00" fill="#000000">5511</text>
</g>
<!-- 3320&#45;&gt;5511 -->
<g id="edge18" class="edge">
<title>3320&#45;&gt;5511</title>
<path fill="none" stroke="#000000" d="M401.6993,-77.1278C419.4256,-65.8332 445.4185,-49.2713 465.3886,-36.547"/>
<polygon fill="#000000" stroke="#000000" points="467.5361,-39.3288 474.0889,-31.0035 463.7746,-33.4254 467.5361,-39.3288"/>
</g>
<!-- 3356 -->
<g id="node16" class="node">
<title>3356</title>
<ellipse fill="none" stroke="#000000" cx="335.4971" cy="-1098" rx="28.6953" ry="18"/>
<text text-anchor="middle" x="335.4971" y="-1094.3" font-family="Times,serif" font-size="14.00" fill="#000000">3356</text>
</g>
<!-- 3549 -->
<g id="node18" class="node">
<title>3549</title>
<ellipse fill="none" stroke="#000000" cx="335.4971" cy="-1026" rx="28.6953" ry="18"/>
<text text-anchor="middle" x="335.4971" y="-1022.3" font-family="Times,serif" font-size="14.00" fill="#000000">3549</text>
</g>
<!-- 3356&#45;&gt;3549 -->
<g id="edge19" class="edge">
<title>3356&#45;&gt;3549</title>
<path fill="none" stroke="#000000" d="M335.4971,-1079.8314C335.4971,-1072.131 335.4971,-1062.9743 335.4971,-1054.4166"/>
<polygon fill="#000000" stroke="#000000" points="338.9972,-1054.4132 335.4971,-1044.4133 331.9972,-1054.4133 338.9972,-1054.4132"/>
</g>
<!-- 3491&#45;&gt;174 -->
<g id="edge20" class="edge">
<title>3491&#45;&gt;174</title>
<path fill="none" stroke="#000000" d="M261.2448,-647.8314C261.1378,-640.131 261.0106,-630.9743 260.8918,-622.4166"/>
<polygon fill="#000000" stroke="#000000" points="264.3915,-622.3637 260.7529,-612.4133 257.3922,-622.4609 264.3915,-622.3637"/>
</g>
<!-- 6762 -->
<g id="node26" class="node">
<title>6762</title>
<ellipse fill="none" stroke="#000000" cx="296.4971" cy="-954" rx="28.6953" ry="18"/>
<text text-anchor="middle" x="296.4971" y="-950.3" font-family="Times,serif" font-size="14.00" fill="#000000">6762</text>
</g>
<!-- 3549&#45;&gt;6762 -->
<g id="edge21" class="edge">
<title>3549&#45;&gt;6762</title>
<path fill="none" stroke="#000000" d="M326.2547,-1008.937C321.6595,-1000.4537 316.0021,-990.0092 310.8583,-980.513"/>
<polygon fill="#000000" stroke="#000000" points="313.7846,-978.5666 305.9441,-971.4407 307.6295,-981.9006 313.7846,-978.5666"/>
</g>
<!-- 30070 -->
<g id="node42" class="node">
<title>30070</title>
<ellipse fill="none" stroke="#000000" cx="393.4971" cy="-954" rx="32.4942" ry="18"/>
<text text-anchor="middle" x="393.4971" y="-950.3" font-family="Times,serif" font-size="14.00" fill="#000000">30070</text>
</g>
<!-- 3549&#45;&gt;30070 -->
<g id="edge22" class="edge">
<title>3549&#45;&gt;30070</title>
<path fill="none" stroke="#000000" d="M348.6582,-1009.6621C356.0425,-1000.4953 365.4033,-988.8751 373.6597,-978.6257"/>
<polygon fill="#000000" stroke="#000000" points="376.4379,-980.7561 379.9856,-970.7729 370.9866,-976.3648 376.4379,-980.7561"/>
</g>
<!-- 3597 -->
<g id="node19" class="node">
<title>3597</title>
<ellipse fill="none" stroke="#000000" cx="297.4971" cy="-1242" rx="28.6953" ry="18"/>
<text text-anchor="middle" x="297.4971" y="-1238.3" font-family="Times,serif" font-size="14.00" fill="#000000">3597</text>
</g>
<!-- 37179 -->
<g id="node44" class="node">
<title>37179</title>
<ellipse fill="none" stroke="#000000" cx="337.4971" cy="-594" rx="32.4942" ry="18"/>
<text text-anchor="middle" x="337.4971" y="-590.3" font-family="Times,serif" font-size="14.00" fill="#000000">37179</text>
</g>
<!-- 3741&#45;&gt;37179 -->
<g id="edge23" class="edge">
<title>3741&#45;&gt;37179</title>
<path fill="none" stroke="#000000" d="M336.7495,-647.8314C336.8564,-640.131 336.9836,-630.9743 337.1024,-622.4166"/>
<polygon fill="#000000" stroke="#000000" points="340.6021,-622.4609 337.2414,-612.4133 333.6027,-622.3637 340.6021,-622.4609"/>
</g>
<!-- 4637 -->
<g id="node21" class="node">
<title>4637</title>
<ellipse fill="none" stroke="#000000" cx="111.4971" cy="-18" rx="28.6953" ry="18"/>
<text text-anchor="middle" x="111.4971" y="-14.3" font-family="Times,serif" font-size="14.00" fill="#000000">4637</text>
</g>
<!-- 5692 -->
<g id="node23" class="node">
<title>5692</title>
<ellipse fill="none" stroke="#000000" cx="791.4971" cy="-1314" rx="28.6953" ry="18"/>
<text text-anchor="middle" x="791.4971" y="-1310.3" font-family="Times,serif" font-size="14.00" fill="#000000">5692</text>
</g>
<!-- 5692&#45;&gt;3597 -->
<g id="edge24" class="edge">
<title>5692&#45;&gt;3597</title>
<path fill="none" stroke="#000000" d="M762.9126,-1311.8332C676.1335,-1305.0637 416.7063,-1283.3629 335.4971,-1260 333.3311,-1259.3769 331.1348,-1258.6422 328.9471,-1257.832"/>
<polygon fill="#000000" stroke="#000000" points="330.1075,-1254.5239 319.5306,-1253.9077 327.4147,-1260.9852 330.1075,-1254.5239"/>
</g>
<!-- 10834 -->
<g id="node35" class="node">
<title>10834</title>
<ellipse fill="none" stroke="#000000" cx="376.4971" cy="-1242" rx="32.4942" ry="18"/>
<text text-anchor="middle" x="376.4971" y="-1238.3" font-family="Times,serif" font-size="14.00" fill="#000000">10834</text>
</g>
<!-- 5692&#45;&gt;10834 -->
<g id="edge25" class="edge">
<title>5692&#45;&gt;10834</title>
<path fill="none" stroke="#000000" d="M762.898,-1312.4071C699.7031,-1308.3384 543.8379,-1295.2744 418.4971,-1260 416.0248,-1259.3042 413.5061,-1258.4966 410.9923,-1257.6164"/>
<polygon fill="#000000" stroke="#000000" points="412.0194,-1254.2617 401.4292,-1253.946 409.5111,-1260.7969 412.0194,-1254.2617"/>
</g>
<!-- 11008 -->
<g id="node36" class="node">
<title>11008</title>
<ellipse fill="none" stroke="#000000" cx="459.4971" cy="-1242" rx="32.4942" ry="18"/>
<text text-anchor="middle" x="459.4971" y="-1238.3" font-family="Times,serif" font-size="14.00" fill="#000000">11008</text>
</g>
<!-- 5692&#45;&gt;11008 -->
<g id="edge26" class="edge">
<title>5692&#45;&gt;11008</title>
<path fill="none" stroke="#000000" d="M763.0073,-1310.8151C710.4611,-1304.4771 595.1021,-1288.3918 501.4971,-1260 499.0393,-1259.2545 496.5315,-1258.4097 494.0255,-1257.5026"/>
<polygon fill="#000000" stroke="#000000" points="495.0677,-1254.1522 484.4796,-1253.7737 492.5207,-1260.6724 495.0677,-1254.1522"/>
</g>
<!-- 27865 -->
<g id="node40" class="node">
<title>27865</title>
<ellipse fill="none" stroke="#000000" cx="542.4971" cy="-1242" rx="32.4942" ry="18"/>
<text text-anchor="middle" x="542.4971" y="-1238.3" font-family="Times,serif" font-size="14.00" fill="#000000">27865</text>
</g>
<!-- 5692&#45;&gt;27865 -->
<g id="edge27" class="edge">
<title>5692&#45;&gt;27865</title>
<path fill="none" stroke="#000000" d="M764.3198,-1308.2764C724.3861,-1299.5606 647.7415,-1281.6654 584.4971,-1260 582.0674,-1259.1677 579.5805,-1258.258 577.0897,-1257.3038"/>
<polygon fill="#000000" stroke="#000000" points="578.1603,-1253.9618 567.5768,-1253.4727 575.5453,-1260.455 578.1603,-1253.9618"/>
</g>
<!-- 28065 -->
<g id="node41" class="node">
<title>28065</title>
<ellipse fill="none" stroke="#000000" cx="625.4971" cy="-1242" rx="32.4942" ry="18"/>
<text text-anchor="middle" x="625.4971" y="-1238.3" font-family="Times,serif" font-size="14.00" fill="#000000">28065</text>
</g>
<!-- 5692&#45;&gt;28065 -->
<g id="edge28" class="edge">
<title>5692&#45;&gt;28065</title>
<path fill="none" stroke="#000000" d="M767.7134,-1303.6842C739.6839,-1291.5268 692.8545,-1271.2153 660.6381,-1257.2419"/>
<polygon fill="#000000" stroke="#000000" points="661.7129,-1253.8931 651.146,-1253.1248 658.9275,-1260.315 661.7129,-1253.8931"/>
</g>
<!-- 52317 -->
<g id="node45" class="node">
<title>52317</title>
<ellipse fill="none" stroke="#000000" cx="708.4971" cy="-1242" rx="32.4942" ry="18"/>
<text text-anchor="middle" x="708.4971" y="-1238.3" font-family="Times,serif" font-size="14.00" fill="#000000">52317</text>
</g>
<!-- 5692&#45;&gt;52317 -->
<g id="edge29" class="edge">
<title>5692&#45;&gt;52317</title>
<path fill="none" stroke="#000000" d="M774.7008,-1299.4297C763.0111,-1289.2892 747.2098,-1275.5821 733.9761,-1264.1023"/>
<polygon fill="#000000" stroke="#000000" points="735.9752,-1261.2031 726.1278,-1257.2941 731.3883,-1266.4908 735.9752,-1261.2031"/>
</g>
<!-- 52375 -->
<g id="node46" class="node">
<title>52375</title>
<ellipse fill="none" stroke="#000000" cx="791.4971" cy="-1242" rx="32.4942" ry="18"/>
<text text-anchor="middle" x="791.4971" y="-1238.3" font-family="Times,serif" font-size="14.00" fill="#000000">52375</text>
</g>
<!-- 5692&#45;&gt;52375 -->
<g id="edge30" class="edge">
<title>5692&#45;&gt;52375</title>
<path fill="none" stroke="#000000" d="M791.4971,-1295.8314C791.4971,-1288.131 791.4971,-1278.9743 791.4971,-1270.4166"/>
<polygon fill="#000000" stroke="#000000" points="794.9972,-1270.4132 791.4971,-1260.4133 787.9972,-1270.4133 794.9972,-1270.4132"/>
</g>
<!-- 52376 -->
<g id="node47" class="node">
<title>52376</title>
<ellipse fill="none" stroke="#000000" cx="874.4971" cy="-1242" rx="32.4942" ry="18"/>
<text text-anchor="middle" x="874.4971" y="-1238.3" font-family="Times,serif" font-size="14.00" fill="#000000">52376</text>
</g>
<!-- 5692&#45;&gt;52376 -->
<g id="edge31" class="edge">
<title>5692&#45;&gt;52376</title>
<path fill="none" stroke="#000000" d="M808.2934,-1299.4297C819.9831,-1289.2892 835.7845,-1275.5821 849.0181,-1264.1023"/>
<polygon fill="#000000" stroke="#000000" points="851.606,-1266.4908 856.8664,-1257.2941 847.019,-1261.2031 851.606,-1266.4908"/>
</g>
<!-- 52380 -->
<g id="node48" class="node">
<title>52380</title>
<ellipse fill="none" stroke="#000000" cx="957.4971" cy="-1242" rx="32.4942" ry="18"/>
<text text-anchor="middle" x="957.4971" y="-1238.3" font-family="Times,serif" font-size="14.00" fill="#000000">52380</text>
</g>
<!-- 5692&#45;&gt;52380 -->
<g id="edge32" class="edge">
<title>5692&#45;&gt;52380</title>
<path fill="none" stroke="#000000" d="M815.2809,-1303.6842C843.3103,-1291.5268 890.1397,-1271.2153 922.3562,-1257.2419"/>
<polygon fill="#000000" stroke="#000000" points="924.0668,-1260.315 931.8483,-1253.1248 921.2813,-1253.8931 924.0668,-1260.315"/>
</g>
<!-- 52413 -->
<g id="node49" class="node">
<title>52413</title>
<ellipse fill="none" stroke="#000000" cx="1040.4971" cy="-1242" rx="32.4942" ry="18"/>
<text text-anchor="middle" x="1040.4971" y="-1238.3" font-family="Times,serif" font-size="14.00" fill="#000000">52413</text>
</g>
<!-- 5692&#45;&gt;52413 -->
<g id="edge33" class="edge">
<title>5692&#45;&gt;52413</title>
<path fill="none" stroke="#000000" d="M818.6744,-1308.2764C858.6081,-1299.5606 935.2528,-1281.6654 998.4971,-1260 1000.9268,-1259.1677 1003.4137,-1258.258 1005.9045,-1257.3038"/>
<polygon fill="#000000" stroke="#000000" points="1007.4489,-1260.455 1015.4174,-1253.4727 1004.8339,-1253.9618 1007.4489,-1260.455"/>
</g>
<!-- 52431 -->
<g id="node50" class="node">
<title>52431</title>
<ellipse fill="none" stroke="#000000" cx="1123.4971" cy="-1242" rx="32.4942" ry="18"/>
<text text-anchor="middle" x="1123.4971" y="-1238.3" font-family="Times,serif" font-size="14.00" fill="#000000">52431</text>
</g>
<!-- 5692&#45;&gt;52431 -->
<g id="edge34" class="edge">
<title>5692&#45;&gt;52431</title>
<path fill="none" stroke="#000000" d="M819.9869,-1310.8151C872.5331,-1304.4771 987.8921,-1288.3918 1081.4971,-1260 1083.9549,-1259.2545 1086.4627,-1258.4097 1088.9687,-1257.5026"/>
<polygon fill="#000000" stroke="#000000" points="1090.4736,-1260.6724 1098.5146,-1253.7737 1087.9266,-1254.1522 1090.4736,-1260.6724"/>
</g>
<!-- 262230 -->
<g id="node51" class="node">
<title>262230</title>
<ellipse fill="none" stroke="#000000" cx="1211.4971" cy="-1242" rx="37.0935" ry="18"/>
<text text-anchor="middle" x="1211.4971" y="-1238.3" font-family="Times,serif" font-size="14.00" fill="#000000">262230</text>
</g>
<!-- 5692&#45;&gt;262230 -->
<g id="edge35" class="edge">
<title>5692&#45;&gt;262230</title>
<path fill="none" stroke="#000000" d="M819.9971,-1312.0413C882.9944,-1307.243 1038.49,-1292.8146 1164.4971,-1260 1167.6257,-1259.1853 1170.8317,-1258.23 1174.0275,-1257.1919"/>
<polygon fill="#000000" stroke="#000000" points="1175.2082,-1260.4869 1183.496,-1253.8866 1172.9012,-1253.878 1175.2082,-1260.4869"/>
</g>
<!-- 264608 -->
<g id="node52" class="node">
<title>264608</title>
<ellipse fill="none" stroke="#000000" cx="1303.4971" cy="-1242" rx="37.0935" ry="18"/>
<text text-anchor="middle" x="1303.4971" y="-1238.3" font-family="Times,serif" font-size="14.00" fill="#000000">264608</text>
</g>
<!-- 5692&#45;&gt;264608 -->
<g id="edge36" class="edge">
<title>5692&#45;&gt;264608</title>
<path fill="none" stroke="#000000" d="M820.3228,-1313.2303C894.1243,-1310.71 1095.4892,-1300.3639 1257.4971,-1260 1260.3056,-1259.3003 1263.173,-1258.4722 1266.0351,-1257.5618"/>
<polygon fill="#000000" stroke="#000000" points="1267.3573,-1260.8076 1275.6519,-1254.216 1265.057,-1254.1963 1267.3573,-1260.8076"/>
</g>
<!-- 6453&#45;&gt;3257 -->
<g id="edge37" class="edge">
<title>6453&#45;&gt;3257</title>
<path fill="none" stroke="#000000" d="M261.4971,-791.8314C261.4971,-784.131 261.4971,-774.9743 261.4971,-766.4166"/>
<polygon fill="#000000" stroke="#000000" points="264.9972,-766.4132 261.4971,-756.4133 257.9972,-766.4133 264.9972,-766.4132"/>
</g>
<!-- 6461&#45;&gt;2497 -->
<g id="edge38" class="edge">
<title>6461&#45;&gt;2497</title>
<path fill="none" stroke="#000000" d="M223.4971,-359.8314C223.4971,-352.131 223.4971,-342.9743 223.4971,-334.4166"/>
<polygon fill="#000000" stroke="#000000" points="226.9972,-334.4132 223.4971,-324.4133 219.9972,-334.4133 226.9972,-334.4132"/>
</g>
<!-- 6762&#45;&gt;2914 -->
<g id="edge39" class="edge">
<title>6762&#45;&gt;2914</title>
<path fill="none" stroke="#000000" d="M288.0246,-936.5708C283.8974,-928.0807 278.8478,-917.6929 274.266,-908.2674"/>
<polygon fill="#000000" stroke="#000000" points="277.4114,-906.7322 269.8916,-899.2687 271.1158,-909.7926 277.4114,-906.7322"/>
</g>
<!-- 6904 -->
<g id="node27" class="node">
<title>6904</title>
<ellipse fill="none" stroke="#000000" cx="336.4971" cy="-882" rx="28.6953" ry="18"/>
<text text-anchor="middle" x="336.4971" y="-878.3" font-family="Times,serif" font-size="14.00" fill="#000000">6904</text>
</g>
<!-- 6904&#45;&gt;2687 -->
<g id="edge40" class="edge">
<title>6904&#45;&gt;2687</title>
<path fill="none" stroke="#000000" d="M336.4971,-863.8314C336.4971,-856.131 336.4971,-846.9743 336.4971,-838.4166"/>
<polygon fill="#000000" stroke="#000000" points="339.9972,-838.4132 336.4971,-828.4133 332.9972,-838.4133 339.9972,-838.4132"/>
</g>
<!-- 7016 -->
<g id="node28" class="node">
<title>7016</title>
<ellipse fill="none" stroke="#000000" cx="411.4971" cy="-882" rx="28.6953" ry="18"/>
<text text-anchor="middle" x="411.4971" y="-878.3" font-family="Times,serif" font-size="14.00" fill="#000000">7016</text>
</g>
<!-- 7922 -->
<g id="node31" class="node">
<title>7922</title>
<ellipse fill="none" stroke="#000000" cx="411.4971" cy="-810" rx="28.6953" ry="18"/>
<text text-anchor="middle" x="411.4971" y="-806.3" font-family="Times,serif" font-size="14.00" fill="#000000">7922</text>
</g>
<!-- 7016&#45;&gt;7922 -->
<g id="edge41" class="edge">
<title>7016&#45;&gt;7922</title>
<path fill="none" stroke="#000000" d="M411.4971,-863.8314C411.4971,-856.131 411.4971,-846.9743 411.4971,-838.4166"/>
<polygon fill="#000000" stroke="#000000" points="414.9972,-838.4132 411.4971,-828.4133 407.9972,-838.4133 414.9972,-838.4132"/>
</g>
<!-- 7018&#45;&gt;3320 -->
<g id="edge42" class="edge">
<title>7018&#45;&gt;3320</title>
<path fill="none" stroke="#000000" d="M318.866,-147.0816C330.094,-136.8484 345.172,-123.1064 357.7202,-111.6701"/>
<polygon fill="#000000" stroke="#000000" points="360.1159,-114.2222 365.1492,-104.8993 355.4007,-109.0486 360.1159,-114.2222"/>
</g>
<!-- 7473 -->
<g id="node30" class="node">
<title>7473</title>
<ellipse fill="none" stroke="#000000" cx="186.4971" cy="-18" rx="28.6953" ry="18"/>
<text text-anchor="middle" x="186.4971" y="-14.3" font-family="Times,serif" font-size="14.00" fill="#000000">7473</text>
</g>
<!-- 9498&#45;&gt;4637 -->
<g id="edge43" class="edge">
<title>9498&#45;&gt;4637</title>
<path fill="none" stroke="#000000" d="M170.5915,-74.7307C160.1508,-64.7075 146.3222,-51.4321 134.6673,-40.2434"/>
<polygon fill="#000000" stroke="#000000" points="137.0175,-37.6478 127.3798,-33.2473 132.1698,-42.6976 137.0175,-37.6478"/>
</g>
<!-- 9498&#45;&gt;7473 -->
<g id="edge44" class="edge">
<title>9498&#45;&gt;7473</title>
<path fill="none" stroke="#000000" d="M186.4971,-71.8314C186.4971,-64.131 186.4971,-54.9743 186.4971,-46.4166"/>
<polygon fill="#000000" stroke="#000000" points="189.9972,-46.4132 186.4971,-36.4133 182.9972,-46.4133 189.9972,-46.4132"/>
</g>
<!-- 10026 -->
<g id="node34" class="node">
<title>10026</title>
<ellipse fill="none" stroke="#000000" cx="265.4971" cy="-18" rx="32.4942" ry="18"/>
<text text-anchor="middle" x="265.4971" y="-14.3" font-family="Times,serif" font-size="14.00" fill="#000000">10026</text>
</g>
<!-- 9498&#45;&gt;10026 -->
<g id="edge45" class="edge">
<title>9498&#45;&gt;10026</title>
<path fill="none" stroke="#000000" d="M202.866,-75.0816C213.8398,-65.0801 228.4912,-51.7269 240.864,-40.4504"/>
<polygon fill="#000000" stroke="#000000" points="243.5708,-42.719 248.6042,-33.3961 238.8556,-37.5453 243.5708,-42.719"/>
</g>
<!-- 12956 -->
<g id="node37" class="node">
<title>12956</title>
<ellipse fill="none" stroke="#000000" cx="335.4971" cy="-1170" rx="32.4942" ry="18"/>
<text text-anchor="middle" x="335.4971" y="-1166.3" font-family="Times,serif" font-size="14.00" fill="#000000">12956</text>
</g>
<!-- 10834&#45;&gt;12956 -->
<g id="edge46" class="edge">
<title>10834&#45;&gt;12956</title>
<path fill="none" stroke="#000000" d="M366.5722,-1224.5708C361.6871,-1215.9922 355.6989,-1205.4762 350.2874,-1195.9732"/>
<polygon fill="#000000" stroke="#000000" points="353.3206,-1194.2266 345.3307,-1187.2687 347.2377,-1197.6905 353.3206,-1194.2266"/>
</g>
<!-- 22927 -->
<g id="node39" class="node">
<title>22927</title>
<ellipse fill="none" stroke="#000000" cx="418.4971" cy="-1170" rx="32.4942" ry="18"/>
<text text-anchor="middle" x="418.4971" y="-1166.3" font-family="Times,serif" font-size="14.00" fill="#000000">22927</text>
</g>
<!-- 10834&#45;&gt;22927 -->
<g id="edge47" class="edge">
<title>10834&#45;&gt;22927</title>
<path fill="none" stroke="#000000" d="M386.6641,-1224.5708C391.6683,-1215.9922 397.8026,-1205.4762 403.3461,-1195.9732"/>
<polygon fill="#000000" stroke="#000000" points="406.4082,-1197.6701 408.4237,-1187.2687 400.3617,-1194.1429 406.4082,-1197.6701"/>
</g>
<!-- 12956&#45;&gt;3356 -->
<g id="edge48" class="edge">
<title>12956&#45;&gt;3356</title>
<path fill="none" stroke="#000000" d="M335.4971,-1151.8314C335.4971,-1144.131 335.4971,-1134.9743 335.4971,-1126.4166"/>
<polygon fill="#000000" stroke="#000000" points="338.9972,-1126.4132 335.4971,-1116.4133 331.9972,-1126.4133 338.9972,-1126.4132"/>
</g>
<!-- 18540 -->
<g id="node38" class="node">
<title>18540</title>
<ellipse fill="none" stroke="#000000" cx="490.4971" cy="-882" rx="32.4942" ry="18"/>
<text text-anchor="middle" x="490.4971" y="-878.3" font-family="Times,serif" font-size="14.00" fill="#000000">18540</text>
</g>
<!-- 30070&#45;&gt;6904 -->
<g id="edge49" class="edge">
<title>30070&#45;&gt;6904</title>
<path fill="none" stroke="#000000" d="M380.2769,-937.3008C372.907,-927.9915 363.6018,-916.2374 355.4671,-905.9621"/>
<polygon fill="#000000" stroke="#000000" points="358.2048,-903.7814 349.2535,-898.1134 352.7164,-908.1263 358.2048,-903.7814"/>
</g>
<!-- 30070&#45;&gt;7016 -->
<g id="edge50" class="edge">
<title>30070&#45;&gt;7016</title>
<path fill="none" stroke="#000000" d="M398.0393,-935.8314C400.0155,-927.9266 402.3753,-918.4872 404.563,-909.7365"/>
<polygon fill="#000000" stroke="#000000" points="407.9888,-910.4637 407.0188,-899.9134 401.1978,-908.7659 407.9888,-910.4637"/>
</g>
<!-- 30070&#45;&gt;18540 -->
<g id="edge51" class="edge">
<title>30070&#45;&gt;18540</title>
<path fill="none" stroke="#000000" d="M413.1265,-939.4297C427.326,-928.8899 446.7166,-914.4969 462.5332,-902.7567"/>
<polygon fill="#000000" stroke="#000000" points="464.9533,-905.3192 470.8969,-896.5486 460.7811,-899.6984 464.9533,-905.3192"/>
</g>
</g>
</svg>
