<?xml version="1.0" encoding="UTF-8" standalone="no"?>
<!DOCTYPE svg PUBLIC "-//W3C//DTD SVG 1.1//EN"
 "http://www.w3.org/Graphics/SVG/1.1/DTD/svg11.dtd">
<!-- Generated by graphviz version 2.40.1 (20161225.0304)
 -->
<!-- Title: %3 Pages: 1 -->
<svg width="1514pt" height="1116pt"
 viewBox="0.00 0.00 1513.66 1116.45" xmlns="http://www.w3.org/2000/svg" xmlns:xlink="http://www.w3.org/1999/xlink">
<g id="graph0" class="graph" transform="scale(1 1) rotate(0) translate(4 1112.4528)">
<title>%3</title>
<polygon fill="#ffffff" stroke="transparent" points="-4,4 -4,-1112.4528 1509.6648,-1112.4528 1509.6648,4 -4,4"/>
<!-- 174 -->
<g id="node1" class="node">
<title>174</title>
<ellipse fill="none" stroke="#000000" cx="598.506" cy="-453.5273" rx="27" ry="18"/>
<text text-anchor="middle" x="598.506" y="-449.8273" font-family="Times,serif" font-size="14.00" fill="#000000">174</text>
</g>
<!-- 209 -->
<g id="node2" class="node">
<title>209</title>
<ellipse fill="none" stroke="#000000" cx="518.8281" cy="-438.8396" rx="27" ry="18"/>
<text text-anchor="middle" x="518.8281" y="-435.1396" font-family="Times,serif" font-size="14.00" fill="#000000">209</text>
</g>
<!-- 174&#45;&gt;209 -->
<g id="edge1" class="edge">
<title>174&#45;&gt;209</title>
<path fill="none" stroke="#000000" d="M572.4165,-448.718C566.9135,-447.7036 561.0115,-446.6156 555.2082,-445.5459"/>
<polygon fill="#000000" stroke="#000000" points="555.4451,-442.0306 544.9762,-443.6597 554.176,-448.9146 555.4451,-442.0306"/>
</g>
<!-- 1299 -->
<g id="node7" class="node">
<title>1299</title>
<ellipse fill="none" stroke="#000000" cx="465.0007" cy="-377.7717" rx="28.6953" ry="18"/>
<text text-anchor="middle" x="465.0007" y="-374.0717" font-family="Times,serif" font-size="14.00" fill="#000000">1299</text>
</g>
<!-- 209&#45;&gt;1299 -->
<g id="edge2" class="edge">
<title>209&#45;&gt;1299</title>
<path fill="none" stroke="#000000" d="M504.9662,-423.1131C499.11,-416.4692 492.1661,-408.5912 485.7227,-401.2812"/>
<polygon fill="#000000" stroke="#000000" points="488.2407,-398.8447 479.0027,-393.6572 482.9894,-403.4733 488.2407,-398.8447"/>
</g>
<!-- 2828 -->
<g id="node12" class="node">
<title>2828</title>
<ellipse fill="none" stroke="#000000" cx="476.2799" cy="-509.3537" rx="28.6953" ry="18"/>
<text text-anchor="middle" x="476.2799" y="-505.6537" font-family="Times,serif" font-size="14.00" fill="#000000">2828</text>
</g>
<!-- 209&#45;&gt;2828 -->
<g id="edge3" class="edge">
<title>209&#45;&gt;2828</title>
<path fill="none" stroke="#000000" d="M508.7448,-455.5505C503.6794,-463.9452 497.4307,-474.301 491.7725,-483.6782"/>
<polygon fill="#000000" stroke="#000000" points="488.7561,-481.9026 486.5864,-492.2729 494.7495,-485.5191 488.7561,-481.9026"/>
</g>
<!-- 701 -->
<g id="node3" class="node">
<title>701</title>
<ellipse fill="none" stroke="#000000" cx="251.6631" cy="-254.4824" rx="27" ry="18"/>
<text text-anchor="middle" x="251.6631" y="-250.7824" font-family="Times,serif" font-size="14.00" fill="#000000">701</text>
</g>
<!-- 703 -->
<g id="node4" class="node">
<title>703</title>
<ellipse fill="none" stroke="#000000" cx="246.2913" cy="-164.4299" rx="27" ry="18"/>
<text text-anchor="middle" x="246.2913" y="-160.7299" font-family="Times,serif" font-size="14.00" fill="#000000">703</text>
</g>
<!-- 701&#45;&gt;703 -->
<g id="edge4" class="edge">
<title>701&#45;&gt;703</title>
<path fill="none" stroke="#000000" d="M250.5761,-236.259C249.8334,-223.8088 248.8343,-207.06 247.9877,-192.8675"/>
<polygon fill="#000000" stroke="#000000" points="251.4661,-192.4001 247.3767,-182.6263 244.4785,-192.817 251.4661,-192.4001"/>
</g>
<!-- 7018 -->
<g id="node29" class="node">
<title>7018</title>
<ellipse fill="none" stroke="#000000" cx="179.0907" cy="-305.7187" rx="28.6953" ry="18"/>
<text text-anchor="middle" x="179.0907" y="-302.0187" font-family="Times,serif" font-size="14.00" fill="#000000">7018</text>
</g>
<!-- 701&#45;&gt;7018 -->
<g id="edge5" class="edge">
<title>701&#45;&gt;7018</title>
<path fill="none" stroke="#000000" d="M232.9739,-267.6771C224.8901,-273.3843 215.2688,-280.1769 206.4086,-286.4322"/>
<polygon fill="#000000" stroke="#000000" points="204.3726,-283.5852 198.222,-292.212 208.4099,-289.3037 204.3726,-283.5852"/>
</g>
<!-- 2516 -->
<g id="node9" class="node">
<title>2516</title>
<ellipse fill="none" stroke="#000000" cx="303.9533" cy="-104.2881" rx="28.6953" ry="18"/>
<text text-anchor="middle" x="303.9533" y="-100.5881" font-family="Times,serif" font-size="14.00" fill="#000000">2516</text>
</g>
<!-- 703&#45;&gt;2516 -->
<g id="edge6" class="edge">
<title>703&#45;&gt;2516</title>
<path fill="none" stroke="#000000" d="M260.8419,-149.2536C267.1141,-142.7116 274.5928,-134.9113 281.5462,-127.6589"/>
<polygon fill="#000000" stroke="#000000" points="284.409,-129.7302 288.8033,-120.0896 279.3562,-124.8857 284.409,-129.7302"/>
</g>
<!-- 9498 -->
<g id="node32" class="node">
<title>9498</title>
<ellipse fill="none" stroke="#000000" cx="188.841" cy="-99.8117" rx="28.6953" ry="18"/>
<text text-anchor="middle" x="188.841" y="-96.1117" font-family="Times,serif" font-size="14.00" fill="#000000">9498</text>
</g>
<!-- 703&#45;&gt;9498 -->
<g id="edge7" class="edge">
<title>703&#45;&gt;9498</title>
<path fill="none" stroke="#000000" d="M232.3842,-148.7876C225.5703,-141.1236 217.2245,-131.7365 209.6691,-123.2384"/>
<polygon fill="#000000" stroke="#000000" points="212.2793,-120.9067 203.0192,-115.7588 207.0479,-125.5578 212.2793,-120.9067"/>
</g>
<!-- 1239 -->
<g id="node5" class="node">
<title>1239</title>
<ellipse fill="none" stroke="#000000" cx="87.1941" cy="-425.1752" rx="28.6953" ry="18"/>
<text text-anchor="middle" x="87.1941" y="-421.4752" font-family="Times,serif" font-size="14.00" fill="#000000">1239</text>
</g>
<!-- 1273 -->
<g id="node6" class="node">
<title>1273</title>
<ellipse fill="none" stroke="#000000" cx="28.5975" cy="-380.824" rx="28.6953" ry="18"/>
<text text-anchor="middle" x="28.5975" y="-377.124" font-family="Times,serif" font-size="14.00" fill="#000000">1273</text>
</g>
<!-- 6461 -->
<g id="node25" class="node">
<title>6461</title>
<ellipse fill="none" stroke="#000000" cx="397.117" cy="-336.3394" rx="28.6953" ry="18"/>
<text text-anchor="middle" x="397.117" y="-332.6394" font-family="Times,serif" font-size="14.00" fill="#000000">6461</text>
</g>
<!-- 1299&#45;&gt;6461 -->
<g id="edge8" class="edge">
<title>1299&#45;&gt;6461</title>
<path fill="none" stroke="#000000" d="M444.2645,-365.1155C438.6059,-361.6619 432.3672,-357.8541 426.3319,-354.1705"/>
<polygon fill="#000000" stroke="#000000" points="428.0854,-351.1403 417.7262,-348.9181 424.4386,-357.1154 428.0854,-351.1403"/>
</g>
<!-- 2497 -->
<g id="node8" class="node">
<title>2497</title>
<ellipse fill="none" stroke="#000000" cx="326.1677" cy="-297.298" rx="28.6953" ry="18"/>
<text text-anchor="middle" x="326.1677" y="-293.598" font-family="Times,serif" font-size="14.00" fill="#000000">2497</text>
</g>
<!-- 2497&#45;&gt;701 -->
<g id="edge9" class="edge">
<title>2497&#45;&gt;701</title>
<path fill="none" stroke="#000000" d="M305.017,-285.1433C297.5777,-280.8682 289.0775,-275.9834 281.0817,-271.3884"/>
<polygon fill="#000000" stroke="#000000" points="282.7661,-268.3196 272.3519,-266.3716 279.2783,-274.3888 282.7661,-268.3196"/>
</g>
<!-- 32787 -->
<g id="node43" class="node">
<title>32787</title>
<ellipse fill="none" stroke="#000000" cx="334.9827" cy="-27.748" rx="32.4942" ry="18"/>
<text text-anchor="middle" x="334.9827" y="-24.048" font-family="Times,serif" font-size="14.00" fill="#000000">32787</text>
</g>
<!-- 2516&#45;&gt;32787 -->
<g id="edge10" class="edge">
<title>2516&#45;&gt;32787</title>
<path fill="none" stroke="#000000" d="M311.1501,-86.5359C314.9489,-77.1653 319.6923,-65.4647 323.9449,-54.9748"/>
<polygon fill="#000000" stroke="#000000" points="327.3115,-55.9863 327.825,-45.4039 320.8243,-53.3564 327.3115,-55.9863"/>
</g>
<!-- 2686 -->
<g id="node10" class="node">
<title>2686</title>
<ellipse fill="none" stroke="#000000" cx="1343.4068" cy="-479.2585" rx="28.6953" ry="18"/>
<text text-anchor="middle" x="1343.4068" y="-475.5585" font-family="Times,serif" font-size="14.00" fill="#000000">2686</text>
</g>
<!-- 3741 -->
<g id="node20" class="node">
<title>3741</title>
<ellipse fill="none" stroke="#000000" cx="1410.5647" cy="-439.1765" rx="28.6953" ry="18"/>
<text text-anchor="middle" x="1410.5647" y="-435.4765" font-family="Times,serif" font-size="14.00" fill="#000000">3741</text>
</g>
<!-- 2686&#45;&gt;3741 -->
<g id="edge11" class="edge">
<title>2686&#45;&gt;3741</title>
<path fill="none" stroke="#000000" d="M1364.2878,-466.796C1369.4186,-463.7338 1375.0132,-460.3948 1380.4826,-457.1304"/>
<polygon fill="#000000" stroke="#000000" points="1382.6721,-459.8997 1389.4653,-451.7693 1379.0846,-453.8889 1382.6721,-459.8997"/>
</g>
<!-- 2687 -->
<g id="node11" class="node">
<title>2687</title>
<ellipse fill="none" stroke="#000000" cx="1262.6569" cy="-493.004" rx="28.6953" ry="18"/>
<text text-anchor="middle" x="1262.6569" y="-489.304" font-family="Times,serif" font-size="14.00" fill="#000000">2687</text>
</g>
<!-- 2687&#45;&gt;2686 -->
<g id="edge12" class="edge">
<title>2687&#45;&gt;2686</title>
<path fill="none" stroke="#000000" d="M1290.4464,-488.2736C1295.268,-487.4528 1300.3557,-486.5868 1305.3941,-485.7291"/>
<polygon fill="#000000" stroke="#000000" points="1306.2952,-489.1262 1315.566,-483.9976 1305.1205,-482.2254 1306.2952,-489.1262"/>
</g>
<!-- 9505 -->
<g id="node33" class="node">
<title>9505</title>
<ellipse fill="none" stroke="#000000" cx="1260.3377" cy="-411.3395" rx="28.6953" ry="18"/>
<text text-anchor="middle" x="1260.3377" y="-407.6395" font-family="Times,serif" font-size="14.00" fill="#000000">9505</text>
</g>
<!-- 2687&#45;&gt;9505 -->
<g id="edge13" class="edge">
<title>2687&#45;&gt;9505</title>
<path fill="none" stroke="#000000" d="M1262.1422,-474.88C1261.8479,-464.5187 1261.4725,-451.2969 1261.1403,-439.6002"/>
<polygon fill="#000000" stroke="#000000" points="1264.6335,-439.3095 1260.851,-429.4129 1257.6363,-439.5082 1264.6335,-439.3095"/>
</g>
<!-- 2914 -->
<g id="node13" class="node">
<title>2914</title>
<ellipse fill="none" stroke="#000000" cx="881.2599" cy="-594.3148" rx="28.6953" ry="18"/>
<text text-anchor="middle" x="881.2599" y="-590.6148" font-family="Times,serif" font-size="14.00" fill="#000000">2914</text>
</g>
<!-- 6453 -->
<g id="node24" class="node">
<title>6453</title>
<ellipse fill="none" stroke="#000000" cx="807.7786" cy="-560.5041" rx="28.6953" ry="18"/>
<text text-anchor="middle" x="807.7786" y="-556.8041" font-family="Times,serif" font-size="14.00" fill="#000000">6453</text>
</g>
<!-- 2914&#45;&gt;6453 -->
<g id="edge14" class="edge">
<title>2914&#45;&gt;6453</title>
<path fill="none" stroke="#000000" d="M858.01,-583.6168C852.3258,-581.0014 846.1414,-578.1558 840.1172,-575.3839"/>
<polygon fill="#000000" stroke="#000000" points="841.4248,-572.1329 830.8773,-571.1324 838.4988,-578.492 841.4248,-572.1329"/>
</g>
<!-- 3257 -->
<g id="node14" class="node">
<title>3257</title>
<ellipse fill="none" stroke="#000000" cx="737.78" cy="-524.096" rx="28.6953" ry="18"/>
<text text-anchor="middle" x="737.78" y="-520.396" font-family="Times,serif" font-size="14.00" fill="#000000">3257</text>
</g>
<!-- 3491 -->
<g id="node17" class="node">
<title>3491</title>
<ellipse fill="none" stroke="#000000" cx="669.4272" cy="-486.5316" rx="28.6953" ry="18"/>
<text text-anchor="middle" x="669.4272" y="-482.8316" font-family="Times,serif" font-size="14.00" fill="#000000">3491</text>
</g>
<!-- 3257&#45;&gt;3491 -->
<g id="edge15" class="edge">
<title>3257&#45;&gt;3491</title>
<path fill="none" stroke="#000000" d="M716.1527,-512.2104C711.0413,-509.4013 705.495,-506.3533 700.0688,-503.3712"/>
<polygon fill="#000000" stroke="#000000" points="701.5978,-500.2178 691.1484,-498.4688 698.2264,-506.3525 701.5978,-500.2178"/>
</g>
<!-- 3320 -->
<g id="node15" class="node">
<title>3320</title>
<ellipse fill="none" stroke="#000000" cx="102.5032" cy="-345.7032" rx="28.6953" ry="18"/>
<text text-anchor="middle" x="102.5032" y="-342.0032" font-family="Times,serif" font-size="14.00" fill="#000000">3320</text>
</g>
<!-- 3320&#45;&gt;1239 -->
<g id="edge16" class="edge">
<title>3320&#45;&gt;1239</title>
<path fill="none" stroke="#000000" d="M99.0294,-363.7366C97.1307,-373.5928 94.7371,-386.0187 92.6,-397.1124"/>
<polygon fill="#000000" stroke="#000000" points="89.1091,-396.7316 90.6543,-407.2131 95.9827,-398.0557 89.1091,-396.7316"/>
</g>
<!-- 3320&#45;&gt;1273 -->
<g id="edge17" class="edge">
<title>3320&#45;&gt;1273</title>
<path fill="none" stroke="#000000" d="M79.5241,-356.6231C73.5455,-359.4642 66.9945,-362.5773 60.6408,-365.5967"/>
<polygon fill="#000000" stroke="#000000" points="59.0922,-362.4574 51.5624,-369.9108 62.0967,-368.7798 59.0922,-362.4574"/>
</g>
<!-- 5511 -->
<g id="node22" class="node">
<title>5511</title>
<ellipse fill="none" stroke="#000000" cx="30.3335" cy="-306.0648" rx="28.6953" ry="18"/>
<text text-anchor="middle" x="30.3335" y="-302.3648" font-family="Times,serif" font-size="14.00" fill="#000000">5511</text>
</g>
<!-- 3320&#45;&gt;5511 -->
<g id="edge18" class="edge">
<title>3320&#45;&gt;5511</title>
<path fill="none" stroke="#000000" d="M80.8499,-333.8104C74.5701,-330.3612 67.5921,-326.5286 60.8764,-322.8401"/>
<polygon fill="#000000" stroke="#000000" points="62.4215,-319.6956 51.9715,-317.9492 59.0516,-325.8311 62.4215,-319.6956"/>
</g>
<!-- 3356 -->
<g id="node16" class="node">
<title>3356</title>
<ellipse fill="none" stroke="#000000" cx="1055.2267" cy="-742.2885" rx="28.6953" ry="18"/>
<text text-anchor="middle" x="1055.2267" y="-738.5885" font-family="Times,serif" font-size="14.00" fill="#000000">3356</text>
</g>
<!-- 3549 -->
<g id="node18" class="node">
<title>3549</title>
<ellipse fill="none" stroke="#000000" cx="1045.0759" cy="-654.2537" rx="28.6953" ry="18"/>
<text text-anchor="middle" x="1045.0759" y="-650.5537" font-family="Times,serif" font-size="14.00" fill="#000000">3549</text>
</g>
<!-- 3356&#45;&gt;3549 -->
<g id="edge19" class="edge">
<title>3356&#45;&gt;3549</title>
<path fill="none" stroke="#000000" d="M1053.1235,-724.0477C1051.7488,-712.1258 1049.925,-696.3087 1048.3613,-682.7467"/>
<polygon fill="#000000" stroke="#000000" points="1051.7989,-682.0044 1047.1764,-672.4712 1044.845,-682.8063 1051.7989,-682.0044"/>
</g>
<!-- 3491&#45;&gt;174 -->
<g id="edge20" class="edge">
<title>3491&#45;&gt;174</title>
<path fill="none" stroke="#000000" d="M646.2049,-475.7248C641.1552,-473.3748 635.7281,-470.8492 630.4089,-468.3738"/>
<polygon fill="#000000" stroke="#000000" points="631.5986,-465.0671 621.0556,-464.0211 628.6452,-471.4135 631.5986,-465.0671"/>
</g>
<!-- 6762 -->
<g id="node26" class="node">
<title>6762</title>
<ellipse fill="none" stroke="#000000" cx="959.518" cy="-625.8026" rx="28.6953" ry="18"/>
<text text-anchor="middle" x="959.518" y="-622.1026" font-family="Times,serif" font-size="14.00" fill="#000000">6762</text>
</g>
<!-- 3549&#45;&gt;6762 -->
<g id="edge21" class="edge">
<title>3549&#45;&gt;6762</title>
<path fill="none" stroke="#000000" d="M1019.4057,-645.7174C1011.5517,-643.1057 1002.7766,-640.1876 994.4172,-637.4079"/>
<polygon fill="#000000" stroke="#000000" points="995.4687,-634.0691 984.8752,-634.2348 993.2599,-640.7115 995.4687,-634.0691"/>
</g>
<!-- 30070 -->
<g id="node42" class="node">
<title>30070</title>
<ellipse fill="none" stroke="#000000" cx="1114.5217" cy="-592.0964" rx="32.4942" ry="18"/>
<text text-anchor="middle" x="1114.5217" y="-588.3964" font-family="Times,serif" font-size="14.00" fill="#000000">30070</text>
</g>
<!-- 3549&#45;&gt;30070 -->
<g id="edge22" class="edge">
<title>3549&#45;&gt;30070</title>
<path fill="none" stroke="#000000" d="M1061.5336,-639.5233C1069.9315,-632.0067 1080.3221,-622.7066 1089.6713,-614.3387"/>
<polygon fill="#000000" stroke="#000000" points="1092.096,-616.8657 1097.2131,-607.5885 1087.4275,-611.6498 1092.096,-616.8657"/>
</g>
<!-- 3597 -->
<g id="node19" class="node">
<title>3597</title>
<ellipse fill="none" stroke="#000000" cx="1076.0975" cy="-1079.3921" rx="28.6953" ry="18"/>
<text text-anchor="middle" x="1076.0975" y="-1075.6921" font-family="Times,serif" font-size="14.00" fill="#000000">3597</text>
</g>
<!-- 37179 -->
<g id="node44" class="node">
<title>37179</title>
<ellipse fill="none" stroke="#000000" cx="1473.1676" cy="-397.2496" rx="32.4942" ry="18"/>
<text text-anchor="middle" x="1473.1676" y="-393.5496" font-family="Times,serif" font-size="14.00" fill="#000000">37179</text>
</g>
<!-- 3741&#45;&gt;37179 -->
<g id="edge23" class="edge">
<title>3741&#45;&gt;37179</title>
<path fill="none" stroke="#000000" d="M1430.3727,-425.9106C1434.6511,-423.0452 1439.2623,-419.957 1443.8181,-416.9059"/>
<polygon fill="#000000" stroke="#000000" points="1446.0476,-419.6251 1452.4087,-411.1524 1442.1523,-413.809 1446.0476,-419.6251"/>
</g>
<!-- 4637 -->
<g id="node21" class="node">
<title>4637</title>
<ellipse fill="none" stroke="#000000" cx="139.2384" cy="-35.864" rx="28.6953" ry="18"/>
<text text-anchor="middle" x="139.2384" y="-32.164" font-family="Times,serif" font-size="14.00" fill="#000000">4637</text>
</g>
<!-- 5692 -->
<g id="node23" class="node">
<title>5692</title>
<ellipse fill="none" stroke="#000000" cx="1120.3888" cy="-1006.2206" rx="28.6953" ry="18"/>
<text text-anchor="middle" x="1120.3888" y="-1002.5206" font-family="Times,serif" font-size="14.00" fill="#000000">5692</text>
</g>
<!-- 5692&#45;&gt;3597 -->
<g id="edge24" class="edge">
<title>5692&#45;&gt;3597</title>
<path fill="none" stroke="#000000" d="M1110.1162,-1023.1915C1104.6378,-1032.242 1097.7832,-1043.5661 1091.6653,-1053.6733"/>
<polygon fill="#000000" stroke="#000000" points="1088.4986,-1052.1459 1086.3144,-1062.5132 1094.487,-1055.7708 1088.4986,-1052.1459"/>
</g>
<!-- 10834 -->
<g id="node35" class="node">
<title>10834</title>
<ellipse fill="none" stroke="#000000" cx="1073.2507" cy="-913.628" rx="32.4942" ry="18"/>
<text text-anchor="middle" x="1073.2507" y="-909.928" font-family="Times,serif" font-size="14.00" fill="#000000">10834</text>
</g>
<!-- 5692&#45;&gt;10834 -->
<g id="edge25" class="edge">
<title>5692&#45;&gt;10834</title>
<path fill="none" stroke="#000000" d="M1111.5225,-988.8046C1104.5434,-975.0958 1094.7007,-955.7618 1086.7447,-940.134"/>
<polygon fill="#000000" stroke="#000000" points="1089.7332,-938.2896 1082.0772,-930.9659 1083.4951,-941.4654 1089.7332,-938.2896"/>
</g>
<!-- 11008 -->
<g id="node36" class="node">
<title>11008</title>
<ellipse fill="none" stroke="#000000" cx="1131.0513" cy="-948.145" rx="32.4942" ry="18"/>
<text text-anchor="middle" x="1131.0513" y="-944.445" font-family="Times,serif" font-size="14.00" fill="#000000">11008</text>
</g>
<!-- 5692&#45;&gt;11008 -->
<g id="edge26" class="edge">
<title>5692&#45;&gt;11008</title>
<path fill="none" stroke="#000000" d="M1123.704,-988.1634C1124.3994,-984.3759 1125.1485,-980.296 1125.893,-976.2407"/>
<polygon fill="#000000" stroke="#000000" points="1129.338,-976.8587 1127.7014,-966.391 1122.4531,-975.5946 1129.338,-976.8587"/>
</g>
<!-- 27865 -->
<g id="node40" class="node">
<title>27865</title>
<ellipse fill="none" stroke="#000000" cx="1045.6903" cy="-1058.6275" rx="32.4942" ry="18"/>
<text text-anchor="middle" x="1045.6903" y="-1054.9275" font-family="Times,serif" font-size="14.00" fill="#000000">27865</text>
</g>
<!-- 5692&#45;&gt;27865 -->
<g id="edge27" class="edge">
<title>5692&#45;&gt;27865</title>
<path fill="none" stroke="#000000" d="M1101.1521,-1019.7166C1092.9625,-1025.4623 1083.2398,-1032.2836 1074.24,-1038.5977"/>
<polygon fill="#000000" stroke="#000000" points="1072.0824,-1035.8358 1065.9064,-1044.4444 1076.1028,-1041.5662 1072.0824,-1035.8358"/>
</g>
<!-- 28065 -->
<g id="node41" class="node">
<title>28065</title>
<ellipse fill="none" stroke="#000000" cx="1111.1911" cy="-1090.4528" rx="32.4942" ry="18"/>
<text text-anchor="middle" x="1111.1911" y="-1086.7528" font-family="Times,serif" font-size="14.00" fill="#000000">28065</text>
</g>
<!-- 5692&#45;&gt;28065 -->
<g id="edge28" class="edge">
<title>5692&#45;&gt;28065</title>
<path fill="none" stroke="#000000" d="M1118.393,-1024.4977C1117.1998,-1035.4253 1115.658,-1049.5454 1114.3072,-1061.9155"/>
<polygon fill="#000000" stroke="#000000" points="1110.7892,-1061.8905 1113.183,-1072.2114 1117.7479,-1062.6504 1110.7892,-1061.8905"/>
</g>
<!-- 52317 -->
<g id="node45" class="node">
<title>52317</title>
<ellipse fill="none" stroke="#000000" cx="1181.3465" cy="-1014.8771" rx="32.4942" ry="18"/>
<text text-anchor="middle" x="1181.3465" y="-1011.1771" font-family="Times,serif" font-size="14.00" fill="#000000">52317</text>
</g>
<!-- 5692&#45;&gt;52317 -->
<g id="edge29" class="edge">
<title>5692&#45;&gt;52317</title>
<path fill="none" stroke="#000000" d="M1148.3699,-1010.1941C1148.4638,-1010.2074 1148.5577,-1010.2208 1148.6517,-1010.2341"/>
<polygon fill="#000000" stroke="#000000" points="1139.1048,-1012.4126 1149.4979,-1010.3543 1140.0897,-1005.4821 1139.1048,-1012.4126"/>
</g>
<!-- 52375 -->
<g id="node46" class="node">
<title>52375</title>
<ellipse fill="none" stroke="#000000" cx="1058.1885" cy="-989.1395" rx="32.4942" ry="18"/>
<text text-anchor="middle" x="1058.1885" y="-985.4395" font-family="Times,serif" font-size="14.00" fill="#000000">52375</text>
</g>
<!-- 5692&#45;&gt;52375 -->
<g id="edge30" class="edge">
<title>5692&#45;&gt;52375</title>
<path fill="none" stroke="#000000" d="M1094.0103,-998.9766C1093.8778,-998.9403 1093.7453,-998.9039 1093.6126,-998.8674"/>
<polygon fill="#000000" stroke="#000000" points="1098.1737,-996.4905 1087.6038,-997.2173 1096.3199,-1003.2406 1098.1737,-996.4905"/>
</g>
<!-- 52376 -->
<g id="node47" class="node">
<title>52376</title>
<ellipse fill="none" stroke="#000000" cx="1208.7141" cy="-972.1645" rx="32.4942" ry="18"/>
<text text-anchor="middle" x="1208.7141" y="-968.4645" font-family="Times,serif" font-size="14.00" fill="#000000">52376</text>
</g>
<!-- 5692&#45;&gt;52376 -->
<g id="edge31" class="edge">
<title>5692&#45;&gt;52376</title>
<path fill="none" stroke="#000000" d="M1144.9923,-996.734C1153.4785,-993.462 1163.1721,-989.7244 1172.3942,-986.1685"/>
<polygon fill="#000000" stroke="#000000" points="1173.6924,-989.4192 1181.7637,-982.5559 1171.1741,-982.8879 1173.6924,-989.4192"/>
</g>
<!-- 52380 -->
<g id="node48" class="node">
<title>52380</title>
<ellipse fill="none" stroke="#000000" cx="1176.8009" cy="-945.7476" rx="32.4942" ry="18"/>
<text text-anchor="middle" x="1176.8009" y="-942.0476" font-family="Times,serif" font-size="14.00" fill="#000000">52380</text>
</g>
<!-- 5692&#45;&gt;52380 -->
<g id="edge32" class="edge">
<title>5692&#45;&gt;52380</title>
<path fill="none" stroke="#000000" d="M1134.9163,-990.6473C1140.9578,-984.1709 1148.104,-976.5103 1154.7669,-969.3677"/>
<polygon fill="#000000" stroke="#000000" points="1157.4702,-971.6009 1161.7322,-961.9011 1152.3515,-966.826 1157.4702,-971.6009"/>
</g>
<!-- 52413 -->
<g id="node49" class="node">
<title>52413</title>
<ellipse fill="none" stroke="#000000" cx="1185.0018" cy="-1066.9951" rx="32.4942" ry="18"/>
<text text-anchor="middle" x="1185.0018" y="-1063.2951" font-family="Times,serif" font-size="14.00" fill="#000000">52413</text>
</g>
<!-- 5692&#45;&gt;52413 -->
<g id="edge33" class="edge">
<title>5692&#45;&gt;52413</title>
<path fill="none" stroke="#000000" d="M1136.3606,-1021.2435C1143.7237,-1028.1693 1152.6232,-1036.54 1160.7861,-1044.218"/>
<polygon fill="#000000" stroke="#000000" points="1158.6303,-1046.9953 1168.3125,-1051.2973 1163.4263,-1041.8964 1158.6303,-1046.9953"/>
</g>
<!-- 52431 -->
<g id="node50" class="node">
<title>52431</title>
<ellipse fill="none" stroke="#000000" cx="1216.7969" cy="-1024.3807" rx="32.4942" ry="18"/>
<text text-anchor="middle" x="1216.7969" y="-1020.6807" font-family="Times,serif" font-size="14.00" fill="#000000">52431</text>
</g>
<!-- 5692&#45;&gt;52431 -->
<g id="edge34" class="edge">
<title>5692&#45;&gt;52431</title>
<path fill="none" stroke="#000000" d="M1148.0155,-1011.4245C1156.6782,-1013.0563 1166.4324,-1014.8936 1175.8132,-1016.6607"/>
<polygon fill="#000000" stroke="#000000" points="1175.3016,-1020.1258 1185.7767,-1018.5375 1176.5974,-1013.2468 1175.3016,-1020.1258"/>
</g>
<!-- 262230 -->
<g id="node51" class="node">
<title>262230</title>
<ellipse fill="none" stroke="#000000" cx="1035.7452" cy="-1022.414" rx="37.0935" ry="18"/>
<text text-anchor="middle" x="1035.7452" y="-1018.714" font-family="Times,serif" font-size="14.00" fill="#000000">262230</text>
</g>
<!-- 5692&#45;&gt;262230 -->
<g id="edge35" class="edge">
<title>5692&#45;&gt;262230</title>
<path fill="none" stroke="#000000" d="M1092.6733,-1011.5229C1088.6595,-1012.2908 1084.4459,-1013.0969 1080.2036,-1013.9085"/>
<polygon fill="#000000" stroke="#000000" points="1079.4974,-1010.48 1070.3333,-1015.7968 1080.8128,-1017.3554 1079.4974,-1010.48"/>
</g>
<!-- 264608 -->
<g id="node52" class="node">
<title>264608</title>
<ellipse fill="none" stroke="#000000" cx="1148.8011" cy="-1084.8498" rx="37.0935" ry="18"/>
<text text-anchor="middle" x="1148.8011" y="-1081.1498" font-family="Times,serif" font-size="14.00" fill="#000000">264608</text>
</g>
<!-- 5692&#45;&gt;264608 -->
<g id="edge36" class="edge">
<title>5692&#45;&gt;264608</title>
<path fill="none" stroke="#000000" d="M1126.836,-1024.0627C1130.3961,-1033.9149 1134.8938,-1046.3623 1138.8908,-1057.4236"/>
<polygon fill="#000000" stroke="#000000" points="1135.6893,-1058.8628 1142.3795,-1067.0782 1142.2727,-1056.4839 1135.6893,-1058.8628"/>
</g>
<!-- 6453&#45;&gt;3257 -->
<g id="edge37" class="edge">
<title>6453&#45;&gt;3257</title>
<path fill="none" stroke="#000000" d="M785.6306,-548.9843C780.3961,-546.2618 774.7163,-543.3075 769.1594,-540.4173"/>
<polygon fill="#000000" stroke="#000000" points="770.511,-537.1751 760.0242,-535.6658 767.2808,-543.3853 770.511,-537.1751"/>
</g>
<!-- 6461&#45;&gt;2497 -->
<g id="edge38" class="edge">
<title>6461&#45;&gt;2497</title>
<path fill="none" stroke="#000000" d="M375.4444,-324.4135C369.5303,-321.1592 363.0098,-317.5712 356.7019,-314.1001"/>
<polygon fill="#000000" stroke="#000000" points="358.1562,-310.9054 347.7076,-309.1508 354.7814,-317.0383 358.1562,-310.9054"/>
</g>
<!-- 6762&#45;&gt;2914 -->
<g id="edge39" class="edge">
<title>6762&#45;&gt;2914</title>
<path fill="none" stroke="#000000" d="M935.1856,-616.0122C928.8549,-613.465 921.9182,-610.674 915.1902,-607.9669"/>
<polygon fill="#000000" stroke="#000000" points="916.1609,-604.5848 905.5772,-604.099 913.5479,-611.0789 916.1609,-604.5848"/>
</g>
<!-- 6904 -->
<g id="node27" class="node">
<title>6904</title>
<ellipse fill="none" stroke="#000000" cx="1194.547" cy="-544.211" rx="28.6953" ry="18"/>
<text text-anchor="middle" x="1194.547" y="-540.511" font-family="Times,serif" font-size="14.00" fill="#000000">6904</text>
</g>
<!-- 6904&#45;&gt;2687 -->
<g id="edge40" class="edge">
<title>6904&#45;&gt;2687</title>
<path fill="none" stroke="#000000" d="M1213.1584,-530.2185C1220.216,-524.9124 1228.3964,-518.7621 1236.0492,-513.0085"/>
<polygon fill="#000000" stroke="#000000" points="1238.1784,-515.7866 1244.0681,-506.9796 1233.9718,-510.1915 1238.1784,-515.7866"/>
</g>
<!-- 7016 -->
<g id="node28" class="node">
<title>7016</title>
<ellipse fill="none" stroke="#000000" cx="1093.0699" cy="-521.1615" rx="28.6953" ry="18"/>
<text text-anchor="middle" x="1093.0699" y="-517.4615" font-family="Times,serif" font-size="14.00" fill="#000000">7016</text>
</g>
<!-- 7922 -->
<g id="node31" class="node">
<title>7922</title>
<ellipse fill="none" stroke="#000000" cx="1092.3862" cy="-443.6694" rx="28.6953" ry="18"/>
<text text-anchor="middle" x="1092.3862" y="-439.9694" font-family="Times,serif" font-size="14.00" fill="#000000">7922</text>
</g>
<!-- 7016&#45;&gt;7922 -->
<g id="edge41" class="edge">
<title>7016&#45;&gt;7922</title>
<path fill="none" stroke="#000000" d="M1092.9079,-502.7969C1092.827,-493.6288 1092.7273,-482.3323 1092.6369,-472.078"/>
<polygon fill="#000000" stroke="#000000" points="1096.1353,-471.8708 1092.5471,-461.9021 1089.1355,-471.9327 1096.1353,-471.8708"/>
</g>
<!-- 7018&#45;&gt;3320 -->
<g id="edge42" class="edge">
<title>7018&#45;&gt;3320</title>
<path fill="none" stroke="#000000" d="M156.9384,-317.2839C149.6352,-321.0967 141.3733,-325.4101 133.533,-329.5033"/>
<polygon fill="#000000" stroke="#000000" points="131.8505,-326.4333 124.6057,-334.164 135.0902,-332.6386 131.8505,-326.4333"/>
</g>
<!-- 7473 -->
<g id="node30" class="node">
<title>7473</title>
<ellipse fill="none" stroke="#000000" cx="210.0694" cy="-18" rx="28.6953" ry="18"/>
<text text-anchor="middle" x="210.0694" y="-14.3" font-family="Times,serif" font-size="14.00" fill="#000000">7473</text>
</g>
<!-- 9498&#45;&gt;4637 -->
<g id="edge43" class="edge">
<title>9498&#45;&gt;4637</title>
<path fill="none" stroke="#000000" d="M176.0671,-83.3436C170.5863,-76.2777 164.0715,-67.8788 158.0561,-60.1237"/>
<polygon fill="#000000" stroke="#000000" points="160.692,-57.8114 151.7973,-52.055 155.1609,-62.1017 160.692,-57.8114"/>
</g>
<!-- 9498&#45;&gt;7473 -->
<g id="edge44" class="edge">
<title>9498&#45;&gt;7473</title>
<path fill="none" stroke="#000000" d="M193.5523,-81.655C196.292,-71.0963 199.8012,-57.5724 202.8798,-45.7076"/>
<polygon fill="#000000" stroke="#000000" points="206.3204,-46.383 205.4443,-35.8244 199.5448,-44.6248 206.3204,-46.383"/>
</g>
<!-- 10026 -->
<g id="node34" class="node">
<title>10026</title>
<ellipse fill="none" stroke="#000000" cx="108.2555" cy="-102.81" rx="32.4942" ry="18"/>
<text text-anchor="middle" x="108.2555" y="-99.11" font-family="Times,serif" font-size="14.00" fill="#000000">10026</text>
</g>
<!-- 9498&#45;&gt;10026 -->
<g id="edge45" class="edge">
<title>9498&#45;&gt;10026</title>
<path fill="none" stroke="#000000" d="M160.2027,-100.8772C157.1787,-100.9897 154.0589,-101.1058 150.9198,-101.2226"/>
<polygon fill="#000000" stroke="#000000" points="150.7849,-97.7251 140.922,-101.5946 151.0452,-104.7202 150.7849,-97.7251"/>
</g>
<!-- 12956 -->
<g id="node37" class="node">
<title>12956</title>
<ellipse fill="none" stroke="#000000" cx="1067.9892" cy="-825.9811" rx="32.4942" ry="18"/>
<text text-anchor="middle" x="1067.9892" y="-822.2811" font-family="Times,serif" font-size="14.00" fill="#000000">12956</text>
</g>
<!-- 10834&#45;&gt;12956 -->
<g id="edge46" class="edge">
<title>10834&#45;&gt;12956</title>
<path fill="none" stroke="#000000" d="M1072.1605,-895.4675C1071.448,-883.5982 1070.5027,-867.8508 1069.6921,-854.3486"/>
<polygon fill="#000000" stroke="#000000" points="1073.171,-853.8906 1069.078,-844.1183 1066.1836,-854.3101 1073.171,-853.8906"/>
</g>
<!-- 22927 -->
<g id="node39" class="node">
<title>22927</title>
<ellipse fill="none" stroke="#000000" cx="987.8303" cy="-922.0917" rx="32.4942" ry="18"/>
<text text-anchor="middle" x="987.8303" y="-918.3917" font-family="Times,serif" font-size="14.00" fill="#000000">22927</text>
</g>
<!-- 10834&#45;&gt;22927 -->
<g id="edge47" class="edge">
<title>10834&#45;&gt;22927</title>
<path fill="none" stroke="#000000" d="M1040.9569,-916.8278C1037.4002,-917.1802 1033.7409,-917.5428 1030.086,-917.9049"/>
<polygon fill="#000000" stroke="#000000" points="1029.4925,-914.4465 1019.8864,-918.9155 1030.1828,-921.4123 1029.4925,-914.4465"/>
</g>
<!-- 12956&#45;&gt;3356 -->
<g id="edge48" class="edge">
<title>12956&#45;&gt;3356</title>
<path fill="none" stroke="#000000" d="M1065.2199,-807.8211C1063.5642,-796.9635 1061.4248,-782.9338 1059.5506,-770.6431"/>
<polygon fill="#000000" stroke="#000000" points="1062.9582,-769.7712 1057.9906,-760.4131 1056.0382,-770.8265 1062.9582,-769.7712"/>
</g>
<!-- 18540 -->
<g id="node38" class="node">
<title>18540</title>
<ellipse fill="none" stroke="#000000" cx="1174.9118" cy="-622.3689" rx="32.4942" ry="18"/>
<text text-anchor="middle" x="1174.9118" y="-618.6689" font-family="Times,serif" font-size="14.00" fill="#000000">18540</text>
</g>
<!-- 30070&#45;&gt;6904 -->
<g id="edge49" class="edge">
<title>30070&#45;&gt;6904</title>
<path fill="none" stroke="#000000" d="M1136.8132,-578.7577C1145.575,-573.5148 1155.7575,-567.4219 1165.1096,-561.8258"/>
<polygon fill="#000000" stroke="#000000" points="1166.9643,-564.7948 1173.7482,-556.6566 1163.3699,-558.788 1166.9643,-564.7948"/>
</g>
<!-- 30070&#45;&gt;7016 -->
<g id="edge50" class="edge">
<title>30070&#45;&gt;7016</title>
<path fill="none" stroke="#000000" d="M1109.1085,-574.1965C1106.789,-566.5267 1104.0261,-557.3904 1101.4524,-548.88"/>
<polygon fill="#000000" stroke="#000000" points="1104.8009,-547.8611 1098.556,-539.3024 1098.1006,-549.8874 1104.8009,-547.8611"/>
</g>
<!-- 30070&#45;&gt;18540 -->
<g id="edge51" class="edge">
<title>30070&#45;&gt;18540</title>
<path fill="none" stroke="#000000" d="M1138.7367,-604.235C1139.7211,-604.7285 1140.7144,-605.2264 1141.7121,-605.7265"/>
<polygon fill="#000000" stroke="#000000" points="1140.1832,-608.8752 1150.6914,-610.2276 1143.3202,-602.6174 1140.1832,-608.8752"/>
</g>
</g>
</svg>
