<?xml version="1.0" encoding="UTF-8" standalone="no"?>
<!DOCTYPE svg PUBLIC "-//W3C//DTD SVG 1.1//EN"
 "http://www.w3.org/Graphics/SVG/1.1/DTD/svg11.dtd">
<!-- Generated by graphviz version 2.40.1 (20161225.0304)
 -->
<!-- Title: %3 Pages: 1 -->
<svg width="773pt" height="424pt"
 viewBox="0.00 0.00 772.59 424.17" xmlns="http://www.w3.org/2000/svg" xmlns:xlink="http://www.w3.org/1999/xlink">
<g id="graph0" class="graph" transform="scale(1 1) rotate(0) translate(4 420.1653)">
<title>%3</title>
<polygon fill="#ffffff" stroke="transparent" points="-4,4 -4,-420.1653 768.5915,-420.1653 768.5915,4 -4,4"/>
<!-- 174 -->
<g id="node1" class="node">
<title>174</title>
<ellipse fill="none" stroke="#000000" cx="438.6336" cy="-195.3819" rx="27" ry="18"/>
<text text-anchor="middle" x="438.6336" y="-191.6819" font-family="Times,serif" font-size="14.00" fill="#000000">174</text>
</g>
<!-- 209 -->
<g id="node2" class="node">
<title>209</title>
<ellipse fill="none" stroke="#000000" cx="476.3671" cy="-210.1042" rx="27" ry="18"/>
<text text-anchor="middle" x="476.3671" y="-206.4042" font-family="Times,serif" font-size="14.00" fill="#000000">209</text>
</g>
<!-- 174&#45;&gt;209 -->
<g id="edge1" class="edge">
<title>174&#45;&gt;209</title>
<path fill="none" stroke="#000000" d="M462.3165,-204.6222C462.3757,-204.6453 462.4349,-204.6684 462.494,-204.6914"/>
<polygon fill="#000000" stroke="#000000" points="452.0813,-204.3831 462.671,-204.7605 454.628,-197.8616 452.0813,-204.3831"/>
</g>
<!-- 1299 -->
<g id="node7" class="node">
<title>1299</title>
<ellipse fill="none" stroke="#000000" cx="516.1788" cy="-218.5629" rx="28.6953" ry="18"/>
<text text-anchor="middle" x="516.1788" y="-214.8629" font-family="Times,serif" font-size="14.00" fill="#000000">1299</text>
</g>
<!-- 209&#45;&gt;1299 -->
<g id="edge2" class="edge">
<title>209&#45;&gt;1299</title>
<path fill="none" stroke="#000000" d="M502.2546,-215.6045C502.314,-215.6171 502.3733,-215.6297 502.4326,-215.6423"/>
<polygon fill="#000000" stroke="#000000" points="492.0994,-217.021 502.6101,-215.68 493.5572,-210.1737 492.0994,-217.021"/>
</g>
<!-- 2828 -->
<g id="node12" class="node">
<title>2828</title>
<ellipse fill="none" stroke="#000000" cx="466.5591" cy="-235.1282" rx="28.6953" ry="18"/>
<text text-anchor="middle" x="466.5591" y="-231.4282" font-family="Times,serif" font-size="14.00" fill="#000000">2828</text>
</g>
<!-- 209&#45;&gt;2828 -->
<g id="edge3" class="edge">
<title>209&#45;&gt;2828</title>
<path fill="none" stroke="#000000" d="M469.4488,-227.7555C469.4234,-227.8202 469.3981,-227.8847 469.3729,-227.9489"/>
<polygon fill="#000000" stroke="#000000" points="469.6911,-217.5519 469.2977,-228.141 476.2087,-220.1085 469.6911,-217.5519"/>
</g>
<!-- 701 -->
<g id="node3" class="node">
<title>701</title>
<ellipse fill="none" stroke="#000000" cx="637.3923" cy="-240.7675" rx="27" ry="18"/>
<text text-anchor="middle" x="637.3923" y="-237.0675" font-family="Times,serif" font-size="14.00" fill="#000000">701</text>
</g>
<!-- 703 -->
<g id="node4" class="node">
<title>703</title>
<ellipse fill="none" stroke="#000000" cx="669.7768" cy="-272.3475" rx="27" ry="18"/>
<text text-anchor="middle" x="669.7768" y="-268.6475" font-family="Times,serif" font-size="14.00" fill="#000000">703</text>
</g>
<!-- 701&#45;&gt;703 -->
<g id="edge4" class="edge">
<title>701&#45;&gt;703</title>
<path fill="none" stroke="#000000" d="M652.8258,-255.8176C652.9561,-255.9447 653.0865,-256.0718 653.2169,-256.199"/>
<polygon fill="#000000" stroke="#000000" points="644.7875,-252.8677 654.3907,-257.3436 649.6747,-247.856 644.7875,-252.8677"/>
</g>
<!-- 7018 -->
<g id="node29" class="node">
<title>7018</title>
<ellipse fill="none" stroke="#000000" cx="646.0072" cy="-202.7225" rx="28.6953" ry="18"/>
<text text-anchor="middle" x="646.0072" y="-199.0225" font-family="Times,serif" font-size="14.00" fill="#000000">7018</text>
</g>
<!-- 701&#45;&gt;7018 -->
<g id="edge5" class="edge">
<title>701&#45;&gt;7018</title>
<path fill="none" stroke="#000000" d="M641.4979,-222.6364C641.5325,-222.4833 641.5672,-222.3301 641.6019,-222.1769"/>
<polygon fill="#000000" stroke="#000000" points="643.1187,-231.3242 641.9142,-220.7979 636.2915,-229.7779 643.1187,-231.3242"/>
</g>
<!-- 2516 -->
<g id="node9" class="node">
<title>2516</title>
<ellipse fill="none" stroke="#000000" cx="703.0007" cy="-261.8802" rx="28.6953" ry="18"/>
<text text-anchor="middle" x="703.0007" y="-258.1802" font-family="Times,serif" font-size="14.00" fill="#000000">2516</text>
</g>
<!-- 703&#45;&gt;2516 -->
<g id="edge6" class="edge">
<title>703&#45;&gt;2516</title>
<path fill="none" stroke="#000000" d="M694.2715,-264.6304C694.3493,-264.6059 694.4268,-264.5814 694.504,-264.5571"/>
<polygon fill="#000000" stroke="#000000" points="686.2494,-270.8306 694.7347,-264.4845 684.1439,-264.154 686.2494,-270.8306"/>
</g>
<!-- 9498 -->
<g id="node32" class="node">
<title>9498</title>
<ellipse fill="none" stroke="#000000" cx="681.5372" cy="-313.0459" rx="28.6953" ry="18"/>
<text text-anchor="middle" x="681.5372" y="-309.3459" font-family="Times,serif" font-size="14.00" fill="#000000">9498</text>
</g>
<!-- 703&#45;&gt;9498 -->
<g id="edge7" class="edge">
<title>703&#45;&gt;9498</title>
<path fill="none" stroke="#000000" d="M674.9693,-290.3169C674.9986,-290.418 675.0278,-290.5192 675.0571,-290.6205"/>
<polygon fill="#000000" stroke="#000000" points="670.2392,-286.556 676.3779,-295.1913 676.9641,-284.6126 670.2392,-286.556"/>
</g>
<!-- 1239 -->
<g id="node5" class="node">
<title>1239</title>
<ellipse fill="none" stroke="#000000" cx="679.5982" cy="-156.1643" rx="28.6953" ry="18"/>
<text text-anchor="middle" x="679.5982" y="-152.4643" font-family="Times,serif" font-size="14.00" fill="#000000">1239</text>
</g>
<!-- 1273 -->
<g id="node6" class="node">
<title>1273</title>
<ellipse fill="none" stroke="#000000" cx="624.7863" cy="-152.7411" rx="28.6953" ry="18"/>
<text text-anchor="middle" x="624.7863" y="-149.0411" font-family="Times,serif" font-size="14.00" fill="#000000">1273</text>
</g>
<!-- 6461 -->
<g id="node25" class="node">
<title>6461</title>
<ellipse fill="none" stroke="#000000" cx="555.0731" cy="-228.3599" rx="28.6953" ry="18"/>
<text text-anchor="middle" x="555.0731" y="-224.6599" font-family="Times,serif" font-size="14.00" fill="#000000">6461</text>
</g>
<!-- 1299&#45;&gt;6461 -->
<g id="edge8" class="edge">
<title>1299&#45;&gt;6461</title>
<path fill="none" stroke="#000000" d="M542.7667,-225.2601C542.8201,-225.2736 542.8735,-225.287 542.9267,-225.3004"/>
<polygon fill="#000000" stroke="#000000" points="532.5324,-226.2874 543.0862,-225.3406 534.2454,-219.4993 532.5324,-226.2874"/>
</g>
<!-- 2497 -->
<g id="node8" class="node">
<title>2497</title>
<ellipse fill="none" stroke="#000000" cx="594.7909" cy="-236.74" rx="28.6953" ry="18"/>
<text text-anchor="middle" x="594.7909" y="-233.04" font-family="Times,serif" font-size="14.00" fill="#000000">2497</text>
</g>
<!-- 2497&#45;&gt;701 -->
<g id="edge9" class="edge">
<title>2497&#45;&gt;701</title>
<path fill="none" stroke="#000000" d="M623.443,-239.4487C623.5032,-239.4544 623.5633,-239.4601 623.6233,-239.4658"/>
<polygon fill="#000000" stroke="#000000" points="613.5163,-242.021 623.8031,-239.4828 614.1786,-235.0521 613.5163,-242.021"/>
</g>
<!-- 32787 -->
<g id="node43" class="node">
<title>32787</title>
<ellipse fill="none" stroke="#000000" cx="732.0944" cy="-254.875" rx="32.4942" ry="18"/>
<text text-anchor="middle" x="732.0944" y="-251.175" font-family="Times,serif" font-size="14.00" fill="#000000">32787</text>
</g>
<!-- 2516&#45;&gt;32787 -->
<g id="edge10" class="edge">
<title>2516&#45;&gt;32787</title>
<path fill="none" stroke="#000000" d="M729.8114,-255.4247C729.9004,-255.4032 729.9872,-255.3824 730.0716,-255.362"/>
<polygon fill="#000000" stroke="#000000" points="721.4163,-261.0494 730.3182,-255.3026 719.7756,-254.2438 721.4163,-261.0494"/>
</g>
<!-- 2686 -->
<g id="node10" class="node">
<title>2686</title>
<ellipse fill="none" stroke="#000000" cx="84.2308" cy="-51.2191" rx="28.6953" ry="18"/>
<text text-anchor="middle" x="84.2308" y="-47.5191" font-family="Times,serif" font-size="14.00" fill="#000000">2686</text>
</g>
<!-- 3741 -->
<g id="node20" class="node">
<title>3741</title>
<ellipse fill="none" stroke="#000000" cx="55.5633" cy="-35.2245" rx="28.6953" ry="18"/>
<text text-anchor="middle" x="55.5633" y="-31.5245" font-family="Times,serif" font-size="14.00" fill="#000000">3741</text>
</g>
<!-- 2686&#45;&gt;3741 -->
<g id="edge11" class="edge">
<title>2686&#45;&gt;3741</title>
<path fill="none" stroke="#000000" d="M62.7973,-39.2606C62.7325,-39.2244 62.668,-39.1884 62.6037,-39.1526"/>
<polygon fill="#000000" stroke="#000000" points="72.8511,-40.8634 62.4117,-39.0454 69.4389,-46.9767 72.8511,-40.8634"/>
</g>
<!-- 2687 -->
<g id="node11" class="node">
<title>2687</title>
<ellipse fill="none" stroke="#000000" cx="118.5829" cy="-66.8626" rx="28.6953" ry="18"/>
<text text-anchor="middle" x="118.5829" y="-63.1626" font-family="Times,serif" font-size="14.00" fill="#000000">2687</text>
</g>
<!-- 2687&#45;&gt;2686 -->
<g id="edge12" class="edge">
<title>2687&#45;&gt;2686</title>
<path fill="none" stroke="#000000" d="M95.1,-56.1688C95.0529,-56.1473 95.0058,-56.1259 94.9587,-56.1045"/>
<polygon fill="#000000" stroke="#000000" points="105.3711,-57.003 94.8179,-56.0403 102.4674,-63.3739 105.3711,-57.003"/>
</g>
<!-- 9505 -->
<g id="node33" class="node">
<title>9505</title>
<ellipse fill="none" stroke="#000000" cx="125.9262" cy="-40.5547" rx="28.6953" ry="18"/>
<text text-anchor="middle" x="125.9262" y="-36.8547" font-family="Times,serif" font-size="14.00" fill="#000000">9505</text>
</g>
<!-- 2687&#45;&gt;9505 -->
<g id="edge13" class="edge">
<title>2687&#45;&gt;9505</title>
<path fill="none" stroke="#000000" d="M123.6027,-48.8787C123.6229,-48.8064 123.643,-48.7344 123.663,-48.6626"/>
<polygon fill="#000000" stroke="#000000" points="124.4023,-59.0221 123.7229,-48.448 117.6599,-57.1378 124.4023,-59.0221"/>
</g>
<!-- 2914 -->
<g id="node13" class="node">
<title>2914</title>
<ellipse fill="none" stroke="#000000" cx="282.5912" cy="-171.1164" rx="28.6953" ry="18"/>
<text text-anchor="middle" x="282.5912" y="-167.4164" font-family="Times,serif" font-size="14.00" fill="#000000">2914</text>
</g>
<!-- 6453 -->
<g id="node24" class="node">
<title>6453</title>
<ellipse fill="none" stroke="#000000" cx="322.936" cy="-173.1706" rx="28.6953" ry="18"/>
<text text-anchor="middle" x="322.936" y="-169.4706" font-family="Times,serif" font-size="14.00" fill="#000000">6453</text>
</g>
<!-- 2914&#45;&gt;6453 -->
<g id="edge14" class="edge">
<title>2914&#45;&gt;6453</title>
<path fill="none" stroke="#000000" d="M311.4827,-172.5875C311.5332,-172.5901 311.5836,-172.5926 311.634,-172.5952"/>
<polygon fill="#000000" stroke="#000000" points="301.6175,-175.5835 311.7847,-172.6029 301.9778,-168.5926 301.6175,-175.5835"/>
</g>
<!-- 3257 -->
<g id="node14" class="node">
<title>3257</title>
<ellipse fill="none" stroke="#000000" cx="362.068" cy="-177.3925" rx="28.6953" ry="18"/>
<text text-anchor="middle" x="362.068" y="-173.6925" font-family="Times,serif" font-size="14.00" fill="#000000">3257</text>
</g>
<!-- 3491 -->
<g id="node17" class="node">
<title>3491</title>
<ellipse fill="none" stroke="#000000" cx="400.233" cy="-184.6191" rx="28.6953" ry="18"/>
<text text-anchor="middle" x="400.233" y="-180.9191" font-family="Times,serif" font-size="14.00" fill="#000000">3491</text>
</g>
<!-- 3257&#45;&gt;3491 -->
<g id="edge15" class="edge">
<title>3257&#45;&gt;3491</title>
<path fill="none" stroke="#000000" d="M389.8043,-182.6444C389.8505,-182.6531 389.8967,-182.6619 389.9427,-182.6706"/>
<polygon fill="#000000" stroke="#000000" points="379.602,-184.2694 390.0807,-182.6967 380.9083,-177.3915 379.602,-184.2694"/>
</g>
<!-- 3320 -->
<g id="node15" class="node">
<title>3320</title>
<ellipse fill="none" stroke="#000000" cx="651.3553" cy="-164.5992" rx="28.6953" ry="18"/>
<text text-anchor="middle" x="651.3553" y="-160.8992" font-family="Times,serif" font-size="14.00" fill="#000000">3320</text>
</g>
<!-- 3320&#45;&gt;1239 -->
<g id="edge16" class="edge">
<title>3320&#45;&gt;1239</title>
<path fill="none" stroke="#000000" d="M677.382,-156.8262C677.4683,-156.8004 677.5526,-156.7752 677.6346,-156.7507"/>
<polygon fill="#000000" stroke="#000000" points="669.2946,-162.8975 677.874,-156.6793 667.2894,-156.1901 669.2946,-162.8975"/>
</g>
<!-- 3320&#45;&gt;1273 -->
<g id="edge17" class="edge">
<title>3320&#45;&gt;1273</title>
<path fill="none" stroke="#000000" d="M627.6297,-154.0101C627.5751,-153.9857 627.5211,-153.9616 627.4678,-153.9379"/>
<polygon fill="#000000" stroke="#000000" points="637.8698,-154.7501 627.3098,-153.8673 635.0144,-161.1427 637.8698,-154.7501"/>
</g>
<!-- 5511 -->
<g id="node22" class="node">
<title>5511</title>
<ellipse fill="none" stroke="#000000" cx="653.2941" cy="-132.9803" rx="28.6953" ry="18"/>
<text text-anchor="middle" x="653.2941" y="-129.2803" font-family="Times,serif" font-size="14.00" fill="#000000">5511</text>
</g>
<!-- 3320&#45;&gt;5511 -->
<g id="edge18" class="edge">
<title>3320&#45;&gt;5511</title>
<path fill="none" stroke="#000000" d="M652.4606,-146.5731C652.464,-146.5176 652.4674,-146.4622 652.4708,-146.4068"/>
<polygon fill="#000000" stroke="#000000" points="655.3568,-156.4382 652.481,-146.2407 648.3699,-156.0058 655.3568,-156.4382"/>
</g>
<!-- 3356 -->
<g id="node16" class="node">
<title>3356</title>
<ellipse fill="none" stroke="#000000" cx="177.9682" cy="-212.0978" rx="28.6953" ry="18"/>
<text text-anchor="middle" x="177.9682" y="-208.3978" font-family="Times,serif" font-size="14.00" fill="#000000">3356</text>
</g>
<!-- 3549 -->
<g id="node18" class="node">
<title>3549</title>
<ellipse fill="none" stroke="#000000" cx="197.9464" cy="-169.8195" rx="28.6953" ry="18"/>
<text text-anchor="middle" x="197.9464" y="-166.1195" font-family="Times,serif" font-size="14.00" fill="#000000">3549</text>
</g>
<!-- 3356&#45;&gt;3549 -->
<g id="edge19" class="edge">
<title>3356&#45;&gt;3549</title>
<path fill="none" stroke="#000000" d="M186.325,-194.413C186.3945,-194.2659 186.4641,-194.1186 186.5338,-193.9711"/>
<polygon fill="#000000" stroke="#000000" points="188.5791,-197.8347 189.6871,-187.298 182.2501,-194.844 188.5791,-197.8347"/>
</g>
<!-- 3491&#45;&gt;174 -->
<g id="edge20" class="edge">
<title>3491&#45;&gt;174</title>
<path fill="none" stroke="#000000" d="M426.4834,-191.9765C426.5362,-191.9913 426.5888,-192.006 426.6414,-192.0208"/>
<polygon fill="#000000" stroke="#000000" points="416.2235,-192.7319 426.7988,-192.0649 418.1158,-185.9914 416.2235,-192.7319"/>
</g>
<!-- 6762 -->
<g id="node26" class="node">
<title>6762</title>
<ellipse fill="none" stroke="#000000" cx="241.3982" cy="-170.4008" rx="28.6953" ry="18"/>
<text text-anchor="middle" x="241.3982" y="-166.7008" font-family="Times,serif" font-size="14.00" fill="#000000">6762</text>
</g>
<!-- 3549&#45;&gt;6762 -->
<g id="edge21" class="edge">
<title>3549&#45;&gt;6762</title>
<path fill="none" stroke="#000000" d="M226.6874,-170.204C226.7505,-170.2049 226.8135,-170.2057 226.8765,-170.2065"/>
<polygon fill="#000000" stroke="#000000" points="217.0173,-173.5698 227.0651,-170.2091 217.1146,-166.5704 217.0173,-173.5698"/>
</g>
<!-- 30070 -->
<g id="node42" class="node">
<title>30070</title>
<ellipse fill="none" stroke="#000000" cx="177.8003" cy="-126.8652" rx="32.4942" ry="18"/>
<text text-anchor="middle" x="177.8003" y="-123.1652" font-family="Times,serif" font-size="14.00" fill="#000000">30070</text>
</g>
<!-- 3549&#45;&gt;30070 -->
<g id="edge22" class="edge">
<title>3549&#45;&gt;30070</title>
<path fill="none" stroke="#000000" d="M189.7522,-152.3483C189.6759,-152.1857 189.5995,-152.0228 189.523,-151.8597"/>
<polygon fill="#000000" stroke="#000000" points="193.4677,-152.0277 186.0526,-144.4603 187.1302,-155.0002 193.4677,-152.0277"/>
</g>
<!-- 3597 -->
<g id="node19" class="node">
<title>3597</title>
<ellipse fill="none" stroke="#000000" cx="130.0481" cy="-378.4058" rx="28.6953" ry="18"/>
<text text-anchor="middle" x="130.0481" y="-374.7058" font-family="Times,serif" font-size="14.00" fill="#000000">3597</text>
</g>
<!-- 37179 -->
<g id="node44" class="node">
<title>37179</title>
<ellipse fill="none" stroke="#000000" cx="32.4971" cy="-18" rx="32.4942" ry="18"/>
<text text-anchor="middle" x="32.4971" y="-14.3" font-family="Times,serif" font-size="14.00" fill="#000000">37179</text>
</g>
<!-- 3741&#45;&gt;37179 -->
<g id="edge23" class="edge">
<title>3741&#45;&gt;37179</title>
<path fill="none" stroke="#000000" d="M36.9445,-21.321C36.8625,-21.2598 36.7814,-21.1992 36.701,-21.1392"/>
<polygon fill="#000000" stroke="#000000" points="46.5701,-24.141 36.4623,-20.961 42.3809,-29.7502 46.5701,-24.141"/>
</g>
<!-- 4637 -->
<g id="node21" class="node">
<title>4637</title>
<ellipse fill="none" stroke="#000000" cx="657.6397" cy="-330.1979" rx="28.6953" ry="18"/>
<text text-anchor="middle" x="657.6397" y="-326.4979" font-family="Times,serif" font-size="14.00" fill="#000000">4637</text>
</g>
<!-- 5692 -->
<g id="node23" class="node">
<title>5692</title>
<ellipse fill="none" stroke="#000000" cx="110.8514" cy="-353.2656" rx="28.6953" ry="18"/>
<text text-anchor="middle" x="110.8514" y="-349.5656" font-family="Times,serif" font-size="14.00" fill="#000000">5692</text>
</g>
<!-- 5692&#45;&gt;3597 -->
<g id="edge24" class="edge">
<title>5692&#45;&gt;3597</title>
<path fill="none" stroke="#000000" d="M123.334,-369.613C123.3913,-369.688 123.4485,-369.7628 123.5054,-369.8375"/>
<polygon fill="#000000" stroke="#000000" points="114.8236,-364.2367 123.6759,-370.0607 120.3876,-359.9875 114.8236,-364.2367"/>
</g>
<!-- 10834 -->
<g id="node35" class="node">
<title>10834</title>
<ellipse fill="none" stroke="#000000" cx="143.2633" cy="-302.8581" rx="32.4942" ry="18"/>
<text text-anchor="middle" x="143.2633" y="-299.1581" font-family="Times,serif" font-size="14.00" fill="#000000">10834</text>
</g>
<!-- 5692&#45;&gt;10834 -->
<g id="edge25" class="edge">
<title>5692&#45;&gt;10834</title>
<path fill="none" stroke="#000000" d="M121.6441,-336.4807C123.2854,-333.9281 125.0103,-331.2455 126.7401,-328.5553"/>
<polygon fill="#000000" stroke="#000000" points="129.7209,-330.3908 132.1855,-320.0866 123.8331,-326.6049 129.7209,-330.3908"/>
</g>
<!-- 11008 -->
<g id="node36" class="node">
<title>11008</title>
<ellipse fill="none" stroke="#000000" cx="72.5028" cy="-379.0482" rx="32.4942" ry="18"/>
<text text-anchor="middle" x="72.5028" y="-375.3482" font-family="Times,serif" font-size="14.00" fill="#000000">11008</text>
</g>
<!-- 5692&#45;&gt;11008 -->
<g id="edge26" class="edge">
<title>5692&#45;&gt;11008</title>
<path fill="none" stroke="#000000" d="M91.2278,-366.459C91.1541,-366.5086 91.0804,-366.5581 91.0067,-366.6076"/>
<polygon fill="#000000" stroke="#000000" points="97.1317,-358.2703 90.7857,-366.7562 101.0385,-364.0799 97.1317,-358.2703"/>
</g>
<!-- 27865 -->
<g id="node40" class="node">
<title>27865</title>
<ellipse fill="none" stroke="#000000" cx="101.8498" cy="-372.1228" rx="32.4942" ry="18"/>
<text text-anchor="middle" x="101.8498" y="-368.4228" font-family="Times,serif" font-size="14.00" fill="#000000">27865</text>
</g>
<!-- 5692&#45;&gt;27865 -->
<g id="edge27" class="edge">
<title>5692&#45;&gt;27865</title>
<path fill="none" stroke="#000000" d="M102.5562,-370.6431C102.4461,-370.8738 102.3469,-371.0816 102.26,-371.2635"/>
<polygon fill="#000000" stroke="#000000" points="103.1882,-361.1961 102.0379,-371.7289 109.5055,-364.2124 103.1882,-361.1961"/>
</g>
<!-- 28065 -->
<g id="node41" class="node">
<title>28065</title>
<ellipse fill="none" stroke="#000000" cx="149.081" cy="-370.2909" rx="32.4942" ry="18"/>
<text text-anchor="middle" x="149.081" y="-366.5909" font-family="Times,serif" font-size="14.00" fill="#000000">28065</text>
</g>
<!-- 5692&#45;&gt;28065 -->
<g id="edge28" class="edge">
<title>5692&#45;&gt;28065</title>
<path fill="none" stroke="#000000" d="M134.4098,-363.7572C134.4712,-363.7845 134.5326,-363.8119 134.594,-363.8392"/>
<polygon fill="#000000" stroke="#000000" points="124.2173,-363.0473 134.7777,-363.921 127.0672,-356.6524 124.2173,-363.0473"/>
</g>
<!-- 52317 -->
<g id="node45" class="node">
<title>52317</title>
<ellipse fill="none" stroke="#000000" cx="122.1837" cy="-326.9405" rx="32.4942" ry="18"/>
<text text-anchor="middle" x="122.1837" y="-323.2405" font-family="Times,serif" font-size="14.00" fill="#000000">52317</text>
</g>
<!-- 5692&#45;&gt;52317 -->
<g id="edge29" class="edge">
<title>5692&#45;&gt;52317</title>
<path fill="none" stroke="#000000" d="M118.3471,-335.853C118.38,-335.7765 118.4129,-335.7002 118.4456,-335.6241"/>
<polygon fill="#000000" stroke="#000000" points="117.8021,-345.9669 118.5435,-335.3967 111.3722,-343.1974 117.8021,-345.9669"/>
</g>
<!-- 52375 -->
<g id="node46" class="node">
<title>52375</title>
<ellipse fill="none" stroke="#000000" cx="143.556" cy="-343.2491" rx="32.4942" ry="18"/>
<text text-anchor="middle" x="143.556" y="-339.5491" font-family="Times,serif" font-size="14.00" fill="#000000">52375</text>
</g>
<!-- 5692&#45;&gt;52375 -->
<g id="edge30" class="edge">
<title>5692&#45;&gt;52375</title>
<path fill="none" stroke="#000000" d="M136.6202,-345.3733C136.6835,-345.3539 136.7466,-345.3346 136.8093,-345.3154"/>
<polygon fill="#000000" stroke="#000000" points="128.4611,-351.5367 136.9967,-345.258 126.4086,-344.8434 128.4611,-351.5367"/>
</g>
<!-- 52376 -->
<g id="node47" class="node">
<title>52376</title>
<ellipse fill="none" stroke="#000000" cx="92.8452" cy="-394.7463" rx="32.4942" ry="18"/>
<text text-anchor="middle" x="92.8452" y="-391.0463" font-family="Times,serif" font-size="14.00" fill="#000000">52376</text>
</g>
<!-- 5692&#45;&gt;52376 -->
<g id="edge31" class="edge">
<title>5692&#45;&gt;52376</title>
<path fill="none" stroke="#000000" d="M103.1107,-371.0979C103.0559,-371.2242 103.001,-371.3506 102.9461,-371.4771"/>
<polygon fill="#000000" stroke="#000000" points="101.2366,-366.6256 100.4651,-377.1923 107.6577,-369.413 101.2366,-366.6256"/>
</g>
<!-- 52380 -->
<g id="node48" class="node">
<title>52380</title>
<ellipse fill="none" stroke="#000000" cx="127.3686" cy="-398.1653" rx="32.4942" ry="18"/>
<text text-anchor="middle" x="127.3686" y="-394.4653" font-family="Times,serif" font-size="14.00" fill="#000000">52380</text>
</g>
<!-- 5692&#45;&gt;52380 -->
<g id="edge32" class="edge">
<title>5692&#45;&gt;52380</title>
<path fill="none" stroke="#000000" d="M117.3794,-371.0112C117.4144,-371.1062 117.4494,-371.2013 117.4844,-371.2965"/>
<polygon fill="#000000" stroke="#000000" points="114.0424,-372.0777 120.7797,-380.2544 120.612,-369.6609 114.0424,-372.0777"/>
</g>
<!-- 52413 -->
<g id="node49" class="node">
<title>52413</title>
<ellipse fill="none" stroke="#000000" cx="79.0535" cy="-358.536" rx="32.4942" ry="18"/>
<text text-anchor="middle" x="79.0535" y="-354.836" font-family="Times,serif" font-size="14.00" fill="#000000">52413</text>
</g>
<!-- 5692&#45;&gt;52413 -->
<g id="edge33" class="edge">
<title>5692&#45;&gt;52413</title>
<path fill="none" stroke="#000000" d="M82.9526,-357.8897C82.8783,-357.902 82.8048,-357.9142 82.7322,-357.9262"/>
<polygon fill="#000000" stroke="#000000" points="91.8088,-352.87 82.517,-357.9619 92.9561,-359.7758 91.8088,-352.87"/>
</g>
<!-- 52431 -->
<g id="node50" class="node">
<title>52431</title>
<ellipse fill="none" stroke="#000000" cx="98.1138" cy="-312.98" rx="32.4942" ry="18"/>
<text text-anchor="middle" x="98.1138" y="-309.28" font-family="Times,serif" font-size="14.00" fill="#000000">52431</text>
</g>
<!-- 5692&#45;&gt;52431 -->
<g id="edge34" class="edge">
<title>5692&#45;&gt;52431</title>
<path fill="none" stroke="#000000" d="M105.2274,-335.4785C105.1975,-335.3836 105.1674,-335.2887 105.1374,-335.1937"/>
<polygon fill="#000000" stroke="#000000" points="110.1339,-339.386 103.7818,-330.9065 103.4596,-341.4964 110.1339,-339.386"/>
</g>
<!-- 262230 -->
<g id="node51" class="node">
<title>262230</title>
<ellipse fill="none" stroke="#000000" cx="69.9723" cy="-338.6639" rx="37.0935" ry="18"/>
<text text-anchor="middle" x="69.9723" y="-334.9639" font-family="Times,serif" font-size="14.00" fill="#000000">262230</text>
</g>
<!-- 5692&#45;&gt;262230 -->
<g id="edge35" class="edge">
<title>5692&#45;&gt;262230</title>
<path fill="none" stroke="#000000" d="M85.6603,-344.2675C85.5946,-344.244 85.529,-344.2206 85.4634,-344.1972"/>
<polygon fill="#000000" stroke="#000000" points="95.8628,-344.1978 85.2669,-344.127 93.506,-350.7901 95.8628,-344.1978"/>
</g>
<!-- 264608 -->
<g id="node52" class="node">
<title>264608</title>
<ellipse fill="none" stroke="#000000" cx="89.691" cy="-332.4193" rx="37.0935" ry="18"/>
<text text-anchor="middle" x="89.691" y="-328.7193" font-family="Times,serif" font-size="14.00" fill="#000000">264608</text>
</g>
<!-- 5692&#45;&gt;264608 -->
<g id="edge36" class="edge">
<title>5692&#45;&gt;264608</title>
<path fill="none" stroke="#000000" d="M95.0307,-337.6797C94.9829,-337.6326 94.9352,-337.5856 94.8878,-337.5389"/>
<polygon fill="#000000" stroke="#000000" points="104.328,-341.9249 94.746,-337.3992 99.4144,-346.9126 104.328,-341.9249"/>
</g>
<!-- 6453&#45;&gt;3257 -->
<g id="edge37" class="edge">
<title>6453&#45;&gt;3257</title>
<path fill="none" stroke="#000000" d="M351.375,-176.2389C351.4224,-176.244 351.4697,-176.2491 351.517,-176.2542"/>
<polygon fill="#000000" stroke="#000000" points="341.3384,-178.6703 351.6584,-176.2694 342.0937,-171.7107 341.3384,-178.6703"/>
</g>
<!-- 6461&#45;&gt;2497 -->
<g id="edge38" class="edge">
<title>6461&#45;&gt;2497</title>
<path fill="none" stroke="#000000" d="M582.2239,-234.0885C582.2785,-234.1 582.3329,-234.1115 582.3873,-234.123"/>
<polygon fill="#000000" stroke="#000000" points="572.0412,-235.5128 582.5502,-234.1573 573.4897,-228.6635 572.0412,-235.5128"/>
</g>
<!-- 6762&#45;&gt;2914 -->
<g id="edge39" class="edge">
<title>6762&#45;&gt;2914</title>
<path fill="none" stroke="#000000" d="M270.0081,-170.8978C270.063,-170.8988 270.1178,-170.8997 270.1726,-170.9007"/>
<polygon fill="#000000" stroke="#000000" points="260.2751,-174.2233 270.3365,-170.9035 260.4009,-167.2244 260.2751,-174.2233"/>
</g>
<!-- 6904 -->
<g id="node27" class="node">
<title>6904</title>
<ellipse fill="none" stroke="#000000" cx="149.1239" cy="-94.2399" rx="28.6953" ry="18"/>
<text text-anchor="middle" x="149.1239" y="-90.5399" font-family="Times,serif" font-size="14.00" fill="#000000">6904</text>
</g>
<!-- 6904&#45;&gt;2687 -->
<g id="edge40" class="edge">
<title>6904&#45;&gt;2687</title>
<path fill="none" stroke="#000000" d="M132.4236,-79.2696C132.3679,-79.2197 132.3122,-79.1698 132.2566,-79.1199"/>
<polygon fill="#000000" stroke="#000000" points="141.8738,-83.0401 132.0897,-78.9703 137.2004,-88.2532 141.8738,-83.0401"/>
</g>
<!-- 7016 -->
<g id="node28" class="node">
<title>7016</title>
<ellipse fill="none" stroke="#000000" cx="199.6985" cy="-102.0928" rx="28.6953" ry="18"/>
<text text-anchor="middle" x="199.6985" y="-98.3928" font-family="Times,serif" font-size="14.00" fill="#000000">7016</text>
</g>
<!-- 7922 -->
<g id="node31" class="node">
<title>7922</title>
<ellipse fill="none" stroke="#000000" cx="216.1371" cy="-79.5094" rx="28.6953" ry="18"/>
<text text-anchor="middle" x="216.1371" y="-75.8094" font-family="Times,serif" font-size="14.00" fill="#000000">7922</text>
</g>
<!-- 7016&#45;&gt;7922 -->
<g id="edge41" class="edge">
<title>7016&#45;&gt;7922</title>
<path fill="none" stroke="#000000" d="M211.6451,-85.6804C211.685,-85.6256 211.7247,-85.5711 211.7642,-85.5168"/>
<polygon fill="#000000" stroke="#000000" points="208.8253,-95.5009 211.8823,-85.3545 203.1652,-91.3799 208.8253,-95.5009"/>
</g>
<!-- 7018&#45;&gt;3320 -->
<g id="edge42" class="edge">
<title>7018&#45;&gt;3320</title>
<path fill="none" stroke="#000000" d="M648.5559,-184.5541C648.5775,-184.4007 648.599,-184.2472 648.6205,-184.0936"/>
<polygon fill="#000000" stroke="#000000" points="650.8906,-193.1013 648.8144,-182.7118 643.9584,-192.1284 650.8906,-193.1013"/>
</g>
<!-- 7473 -->
<g id="node30" class="node">
<title>7473</title>
<ellipse fill="none" stroke="#000000" cx="711.2642" cy="-321.6826" rx="28.6953" ry="18"/>
<text text-anchor="middle" x="711.2642" y="-317.9826" font-family="Times,serif" font-size="14.00" fill="#000000">7473</text>
</g>
<!-- 9498&#45;&gt;4637 -->
<g id="edge43" class="edge">
<title>9498&#45;&gt;4637</title>
<path fill="none" stroke="#000000" d="M662.2474,-326.8908C662.1625,-326.9518 662.0784,-327.0121 661.9951,-327.0719"/>
<polygon fill="#000000" stroke="#000000" points="667.8312,-318.5735 661.7478,-327.2494 671.9138,-324.2607 667.8312,-318.5735"/>
</g>
<!-- 9498&#45;&gt;7473 -->
<g id="edge44" class="edge">
<title>9498&#45;&gt;7473</title>
<path fill="none" stroke="#000000" d="M707.619,-320.6236C707.6885,-320.6438 707.7572,-320.6637 707.8251,-320.6834"/>
<polygon fill="#000000" stroke="#000000" points="697.4455,-321.3095 708.0263,-320.7419 699.4009,-314.5874 697.4455,-321.3095"/>
</g>
<!-- 10026 -->
<g id="node34" class="node">
<title>10026</title>
<ellipse fill="none" stroke="#000000" cx="690.0123" cy="-344.5476" rx="32.4942" ry="18"/>
<text text-anchor="middle" x="690.0123" y="-340.8476" font-family="Times,serif" font-size="14.00" fill="#000000">10026</text>
</g>
<!-- 9498&#45;&gt;10026 -->
<g id="edge45" class="edge">
<title>9498&#45;&gt;10026</title>
<path fill="none" stroke="#000000" d="M686.3689,-331.0052C686.3838,-331.0605 686.3986,-331.1157 686.4135,-331.1709"/>
<polygon fill="#000000" stroke="#000000" points="680.4758,-322.5903 686.458,-331.3364 687.2356,-320.7687 680.4758,-322.5903"/>
</g>
<!-- 12956 -->
<g id="node37" class="node">
<title>12956</title>
<ellipse fill="none" stroke="#000000" cx="160.2879" cy="-255.4178" rx="32.4942" ry="18"/>
<text text-anchor="middle" x="160.2879" y="-251.7178" font-family="Times,serif" font-size="14.00" fill="#000000">12956</text>
</g>
<!-- 10834&#45;&gt;12956 -->
<g id="edge46" class="edge">
<title>10834&#45;&gt;12956</title>
<path fill="none" stroke="#000000" d="M149.6026,-285.1931C149.865,-284.4621 150.1303,-283.7228 150.3974,-282.9784"/>
<polygon fill="#000000" stroke="#000000" points="153.803,-283.8503 153.8865,-273.2558 147.2144,-281.4858 153.803,-283.8503"/>
</g>
<!-- 22927 -->
<g id="node39" class="node">
<title>22927</title>
<ellipse fill="none" stroke="#000000" cx="172.4332" cy="-300.1188" rx="32.4942" ry="18"/>
<text text-anchor="middle" x="172.4332" y="-296.4188" font-family="Times,serif" font-size="14.00" fill="#000000">22927</text>
</g>
<!-- 10834&#45;&gt;22927 -->
<g id="edge47" class="edge">
<title>10834&#45;&gt;22927</title>
<path fill="none" stroke="#000000" d="M172.3495,-300.1267C172.3633,-300.1254 172.3754,-300.1242 172.3859,-300.1232"/>
<polygon fill="#000000" stroke="#000000" points="162.795,-304.5748 172.412,-300.1208 162.1164,-297.6054 162.795,-304.5748"/>
</g>
<!-- 12956&#45;&gt;3356 -->
<g id="edge48" class="edge">
<title>12956&#45;&gt;3356</title>
<path fill="none" stroke="#000000" d="M167.4791,-237.7979C167.5138,-237.713 167.5485,-237.628 167.5832,-237.5429"/>
<polygon fill="#000000" stroke="#000000" points="170.3023,-240.1428 170.8406,-229.5616 163.8213,-237.4976 170.3023,-240.1428"/>
</g>
<!-- 18540 -->
<g id="node38" class="node">
<title>18540</title>
<ellipse fill="none" stroke="#000000" cx="152.1593" cy="-134.4719" rx="32.4942" ry="18"/>
<text text-anchor="middle" x="152.1593" y="-130.7719" font-family="Times,serif" font-size="14.00" fill="#000000">18540</text>
</g>
<!-- 30070&#45;&gt;6904 -->
<g id="edge49" class="edge">
<title>30070&#45;&gt;6904</title>
<path fill="none" stroke="#000000" d="M163.4621,-110.5525C163.4061,-110.4888 163.3501,-110.4251 163.2941,-110.3614"/>
<polygon fill="#000000" stroke="#000000" points="172.3585,-115.3711 163.1261,-110.1703 167.1001,-119.9934 172.3585,-115.3711"/>
</g>
<!-- 30070&#45;&gt;7016 -->
<g id="edge50" class="edge">
<title>30070&#45;&gt;7016</title>
<path fill="none" stroke="#000000" d="M192.2848,-110.4796C192.3484,-110.4076 192.4118,-110.3358 192.4751,-110.2642"/>
<polygon fill="#000000" stroke="#000000" points="188.6627,-119.8619 192.6643,-110.0502 183.4175,-115.2249 188.6627,-119.8619"/>
</g>
<!-- 30070&#45;&gt;18540 -->
<g id="edge51" class="edge">
<title>30070&#45;&gt;18540</title>
<path fill="none" stroke="#000000" d="M152.2329,-134.4501C152.2207,-134.4537 152.2101,-134.4569 152.2009,-134.4596"/>
<polygon fill="#000000" stroke="#000000" points="160.7608,-128.2365 152.1779,-134.4664 162.7725,-134.9486 160.7608,-128.2365"/>
</g>
</g>
</svg>
