<?xml version="1.0" encoding="UTF-8" standalone="no"?>
<!DOCTYPE svg PUBLIC "-//W3C//DTD SVG 1.1//EN"
 "http://www.w3.org/Graphics/SVG/1.1/DTD/svg11.dtd">
<!-- Generated by graphviz version 2.40.1 (20161225.0304)
 -->
<!-- Title: %3 Pages: 1 -->
<svg width="2015pt" height="2070pt"
 viewBox="0.00 0.00 2015.00 2070.00" xmlns="http://www.w3.org/2000/svg" xmlns:xlink="http://www.w3.org/1999/xlink">
<g id="graph0" class="graph" transform="scale(1 1) rotate(0) translate(4 2066)">
<title>%3</title>
<polygon fill="#ffffff" stroke="transparent" points="-4,4 -4,-2066 2011,-2066 2011,4 -4,4"/>
<!-- 174 -->
<g id="node1" class="node">
<title>174</title>
<ellipse fill="none" stroke="#000000" cx="1097.6517" cy="-638.2182" rx="27" ry="18"/>
<text text-anchor="middle" x="1097.6517" y="-634.5182" font-family="Times,serif" font-size="14.00" fill="#000000">174</text>
</g>
<!-- 209 -->
<g id="node2" class="node">
<title>209</title>
<ellipse fill="none" stroke="#000000" cx="1006.1675" cy="-545.8725" rx="27" ry="18"/>
<text text-anchor="middle" x="1006.1675" y="-542.1725" font-family="Times,serif" font-size="14.00" fill="#000000">209</text>
</g>
<!-- 174&#45;&gt;209 -->
<g id="edge1" class="edge">
<title>174&#45;&gt;209</title>
<path fill="none" stroke="#000000" d="M1082.5449,-622.9692C1067.8456,-608.1315 1045.3348,-585.4087 1028.5546,-568.4705"/>
<polygon fill="#000000" stroke="#000000" points="1030.821,-565.7851 1021.2967,-561.1442 1025.8481,-570.7116 1030.821,-565.7851"/>
</g>
<!-- 1299 -->
<g id="node7" class="node">
<title>1299</title>
<ellipse fill="none" stroke="#000000" cx="857.3469" cy="-481.262" rx="28.6953" ry="18"/>
<text text-anchor="middle" x="857.3469" y="-477.562" font-family="Times,serif" font-size="14.00" fill="#000000">1299</text>
</g>
<!-- 209&#45;&gt;1299 -->
<g id="edge2" class="edge">
<title>209&#45;&gt;1299</title>
<path fill="none" stroke="#000000" d="M983.2404,-535.9187C958.4426,-525.1528 918.6824,-507.8908 890.4861,-495.6494"/>
<polygon fill="#000000" stroke="#000000" points="891.6051,-492.3197 881.0385,-491.5477 888.8174,-498.7406 891.6051,-492.3197"/>
</g>
<!-- 2828 -->
<g id="node12" class="node">
<title>2828</title>
<ellipse fill="none" stroke="#000000" cx="1046.2139" cy="-435.5093" rx="28.6953" ry="18"/>
<text text-anchor="middle" x="1046.2139" y="-431.8093" font-family="Times,serif" font-size="14.00" fill="#000000">2828</text>
</g>
<!-- 209&#45;&gt;2828 -->
<g id="edge3" class="edge">
<title>209&#45;&gt;2828</title>
<path fill="none" stroke="#000000" d="M1012.6016,-528.1408C1018.9946,-510.5224 1028.8869,-483.2603 1036.2872,-462.8661"/>
<polygon fill="#000000" stroke="#000000" points="1039.6747,-463.7912 1039.7957,-453.197 1033.0946,-461.4035 1039.6747,-463.7912"/>
</g>
<!-- 701 -->
<g id="node3" class="node">
<title>701</title>
<ellipse fill="none" stroke="#000000" cx="402.8162" cy="-383.2612" rx="27" ry="18"/>
<text text-anchor="middle" x="402.8162" y="-379.5612" font-family="Times,serif" font-size="14.00" fill="#000000">701</text>
</g>
<!-- 703 -->
<g id="node4" class="node">
<title>703</title>
<ellipse fill="none" stroke="#000000" cx="274.6245" cy="-444.022" rx="27" ry="18"/>
<text text-anchor="middle" x="274.6245" y="-440.322" font-family="Times,serif" font-size="14.00" fill="#000000">703</text>
</g>
<!-- 701&#45;&gt;703 -->
<g id="edge4" class="edge">
<title>701&#45;&gt;703</title>
<path fill="none" stroke="#000000" d="M380.7793,-393.7064C360.1424,-403.4879 329.091,-418.2057 305.8953,-429.2001"/>
<polygon fill="#000000" stroke="#000000" points="304.3401,-426.0639 296.8029,-433.5098 307.3383,-432.3894 304.3401,-426.0639"/>
</g>
<!-- 7018 -->
<g id="node29" class="node">
<title>7018</title>
<ellipse fill="none" stroke="#000000" cx="358.5987" cy="-262.4723" rx="28.6953" ry="18"/>
<text text-anchor="middle" x="358.5987" y="-258.7723" font-family="Times,serif" font-size="14.00" fill="#000000">7018</text>
</g>
<!-- 701&#45;&gt;7018 -->
<g id="edge5" class="edge">
<title>701&#45;&gt;7018</title>
<path fill="none" stroke="#000000" d="M396.3866,-365.6975C389.0839,-345.7488 377.0792,-312.9554 368.5617,-289.6883"/>
<polygon fill="#000000" stroke="#000000" points="371.7604,-288.2446 365.0361,-280.0573 365.187,-290.651 371.7604,-288.2446"/>
</g>
<!-- 2516 -->
<g id="node9" class="node">
<title>2516</title>
<ellipse fill="none" stroke="#000000" cx="145.7752" cy="-396.1437" rx="28.6953" ry="18"/>
<text text-anchor="middle" x="145.7752" y="-392.4437" font-family="Times,serif" font-size="14.00" fill="#000000">2516</text>
</g>
<!-- 703&#45;&gt;2516 -->
<g id="edge6" class="edge">
<title>703&#45;&gt;2516</title>
<path fill="none" stroke="#000000" d="M250.9915,-435.2404C231.1196,-427.8563 202.4514,-417.2037 180.0568,-408.8822"/>
<polygon fill="#000000" stroke="#000000" points="181.1687,-405.5616 170.5758,-405.3592 178.7304,-412.1232 181.1687,-405.5616"/>
</g>
<!-- 9498 -->
<g id="node32" class="node">
<title>9498</title>
<ellipse fill="none" stroke="#000000" cx="140.2374" cy="-542.0559" rx="28.6953" ry="18"/>
<text text-anchor="middle" x="140.2374" y="-538.3559" font-family="Times,serif" font-size="14.00" fill="#000000">9498</text>
</g>
<!-- 703&#45;&gt;9498 -->
<g id="edge7" class="edge">
<title>703&#45;&gt;9498</title>
<path fill="none" stroke="#000000" d="M256.2203,-457.4476C233.258,-474.1984 193.803,-502.9804 167.3721,-522.2615"/>
<polygon fill="#000000" stroke="#000000" points="165.3018,-519.4394 159.2857,-528.1604 169.4272,-525.0946 165.3018,-519.4394"/>
</g>
<!-- 1239 -->
<g id="node5" class="node">
<title>1239</title>
<ellipse fill="none" stroke="#000000" cx="308.2813" cy="-17.7337" rx="28.6953" ry="18"/>
<text text-anchor="middle" x="308.2813" y="-14.0337" font-family="Times,serif" font-size="14.00" fill="#000000">1239</text>
</g>
<!-- 1273 -->
<g id="node6" class="node">
<title>1273</title>
<ellipse fill="none" stroke="#000000" cx="186.3576" cy="-81.0684" rx="28.6953" ry="18"/>
<text text-anchor="middle" x="186.3576" y="-77.3684" font-family="Times,serif" font-size="14.00" fill="#000000">1273</text>
</g>
<!-- 6461 -->
<g id="node25" class="node">
<title>6461</title>
<ellipse fill="none" stroke="#000000" cx="729.3951" cy="-441.6498" rx="28.6953" ry="18"/>
<text text-anchor="middle" x="729.3951" y="-437.9498" font-family="Times,serif" font-size="14.00" fill="#000000">6461</text>
</g>
<!-- 1299&#45;&gt;6461 -->
<g id="edge8" class="edge">
<title>1299&#45;&gt;6461</title>
<path fill="none" stroke="#000000" d="M831.4539,-473.2459C812.2899,-467.3129 785.9578,-459.1608 764.8409,-452.6233"/>
<polygon fill="#000000" stroke="#000000" points="765.8374,-449.268 755.2495,-449.654 763.7671,-455.9549 765.8374,-449.268"/>
</g>
<!-- 2497 -->
<g id="node8" class="node">
<title>2497</title>
<ellipse fill="none" stroke="#000000" cx="561.2448" cy="-405.9672" rx="28.6953" ry="18"/>
<text text-anchor="middle" x="561.2448" y="-402.2672" font-family="Times,serif" font-size="14.00" fill="#000000">2497</text>
</g>
<!-- 2497&#45;&gt;701 -->
<g id="edge9" class="edge">
<title>2497&#45;&gt;701</title>
<path fill="none" stroke="#000000" d="M533.2856,-401.9601C507.1775,-398.2183 468.0515,-392.6107 439.4561,-388.5125"/>
<polygon fill="#000000" stroke="#000000" points="439.8365,-385.0313 429.441,-387.0771 438.8433,-391.9605 439.8365,-385.0313"/>
</g>
<!-- 32787 -->
<g id="node43" class="node">
<title>32787</title>
<ellipse fill="none" stroke="#000000" cx="37.3304" cy="-359.4207" rx="32.4942" ry="18"/>
<text text-anchor="middle" x="37.3304" y="-355.7207" font-family="Times,serif" font-size="14.00" fill="#000000">32787</text>
</g>
<!-- 2516&#45;&gt;32787 -->
<g id="edge10" class="edge">
<title>2516&#45;&gt;32787</title>
<path fill="none" stroke="#000000" d="M120.3497,-387.5338C106.7922,-382.9428 89.8509,-377.2059 74.8138,-372.1138"/>
<polygon fill="#000000" stroke="#000000" points="75.8563,-368.7717 65.2621,-368.8793 73.6111,-375.4019 75.8563,-368.7717"/>
</g>
<!-- 2686 -->
<g id="node10" class="node">
<title>2686</title>
<ellipse fill="none" stroke="#000000" cx="1788.9344" cy="-1031.8614" rx="28.6953" ry="18"/>
<text text-anchor="middle" x="1788.9344" y="-1028.1614" font-family="Times,serif" font-size="14.00" fill="#000000">2686</text>
</g>
<!-- 3741 -->
<g id="node20" class="node">
<title>3741</title>
<ellipse fill="none" stroke="#000000" cx="1893.322" cy="-934.5584" rx="28.6953" ry="18"/>
<text text-anchor="middle" x="1893.322" y="-930.8584" font-family="Times,serif" font-size="14.00" fill="#000000">3741</text>
</g>
<!-- 2686&#45;&gt;3741 -->
<g id="edge11" class="edge">
<title>2686&#45;&gt;3741</title>
<path fill="none" stroke="#000000" d="M1805.2449,-1016.6578C1822.5577,-1000.52 1850.0796,-974.866 1869.7499,-956.5306"/>
<polygon fill="#000000" stroke="#000000" points="1872.1975,-959.034 1877.1259,-949.6552 1867.4245,-953.9135 1872.1975,-959.034"/>
</g>
<!-- 2687 -->
<g id="node11" class="node">
<title>2687</title>
<ellipse fill="none" stroke="#000000" cx="1688.8096" cy="-1102.9925" rx="28.6953" ry="18"/>
<text text-anchor="middle" x="1688.8096" y="-1099.2925" font-family="Times,serif" font-size="14.00" fill="#000000">2687</text>
</g>
<!-- 2687&#45;&gt;2686 -->
<g id="edge12" class="edge">
<title>2687&#45;&gt;2686</title>
<path fill="none" stroke="#000000" d="M1708.1147,-1089.2777C1723.2127,-1078.5517 1744.4044,-1063.4966 1761.2999,-1051.4936"/>
<polygon fill="#000000" stroke="#000000" points="1763.5634,-1054.1789 1769.6886,-1045.5341 1759.5093,-1048.4724 1763.5634,-1054.1789"/>
</g>
<!-- 9505 -->
<g id="node33" class="node">
<title>9505</title>
<ellipse fill="none" stroke="#000000" cx="1720.5687" cy="-1001.7814" rx="28.6953" ry="18"/>
<text text-anchor="middle" x="1720.5687" y="-998.0814" font-family="Times,serif" font-size="14.00" fill="#000000">9505</text>
</g>
<!-- 2687&#45;&gt;9505 -->
<g id="edge13" class="edge">
<title>2687&#45;&gt;9505</title>
<path fill="none" stroke="#000000" d="M1694.4875,-1084.898C1699.3199,-1069.498 1706.338,-1047.1323 1711.8772,-1029.4798"/>
<polygon fill="#000000" stroke="#000000" points="1715.2854,-1030.3084 1714.94,-1019.7192 1708.6065,-1028.2126 1715.2854,-1030.3084"/>
</g>
<!-- 2914 -->
<g id="node13" class="node">
<title>2914</title>
<ellipse fill="none" stroke="#000000" cx="1333.3535" cy="-1124.2277" rx="28.6953" ry="18"/>
<text text-anchor="middle" x="1333.3535" y="-1120.5277" font-family="Times,serif" font-size="14.00" fill="#000000">2914</text>
</g>
<!-- 6453 -->
<g id="node24" class="node">
<title>6453</title>
<ellipse fill="none" stroke="#000000" cx="1305.4249" cy="-1006.0906" rx="28.6953" ry="18"/>
<text text-anchor="middle" x="1305.4249" y="-1002.3906" font-family="Times,serif" font-size="14.00" fill="#000000">6453</text>
</g>
<!-- 2914&#45;&gt;6453 -->
<g id="edge14" class="edge">
<title>2914&#45;&gt;6453</title>
<path fill="none" stroke="#000000" d="M1329.1117,-1106.2852C1324.5801,-1087.1165 1317.3366,-1056.4767 1312.0516,-1034.1214"/>
<polygon fill="#000000" stroke="#000000" points="1315.4134,-1033.1284 1309.7066,-1024.202 1308.6012,-1034.739 1315.4134,-1033.1284"/>
</g>
<!-- 3257 -->
<g id="node14" class="node">
<title>3257</title>
<ellipse fill="none" stroke="#000000" cx="1252.5595" cy="-868.9044" rx="28.6953" ry="18"/>
<text text-anchor="middle" x="1252.5595" y="-865.2044" font-family="Times,serif" font-size="14.00" fill="#000000">3257</text>
</g>
<!-- 3491 -->
<g id="node17" class="node">
<title>3491</title>
<ellipse fill="none" stroke="#000000" cx="1191.1451" cy="-759.3533" rx="28.6953" ry="18"/>
<text text-anchor="middle" x="1191.1451" y="-755.6533" font-family="Times,serif" font-size="14.00" fill="#000000">3491</text>
</g>
<!-- 3257&#45;&gt;3491 -->
<g id="edge15" class="edge">
<title>3257&#45;&gt;3491</title>
<path fill="none" stroke="#000000" d="M1242.9635,-851.7871C1232.9581,-833.9395 1217.1571,-805.7537 1205.632,-785.1951"/>
<polygon fill="#000000" stroke="#000000" points="1208.6168,-783.3618 1200.6737,-776.3505 1202.5108,-786.7849 1208.6168,-783.3618"/>
</g>
<!-- 3320 -->
<g id="node15" class="node">
<title>3320</title>
<ellipse fill="none" stroke="#000000" cx="288.4402" cy="-128.4279" rx="28.6953" ry="18"/>
<text text-anchor="middle" x="288.4402" y="-124.7279" font-family="Times,serif" font-size="14.00" fill="#000000">3320</text>
</g>
<!-- 3320&#45;&gt;1239 -->
<g id="edge16" class="edge">
<title>3320&#45;&gt;1239</title>
<path fill="none" stroke="#000000" d="M291.7166,-110.149C294.8658,-92.579 299.6684,-65.7853 303.2929,-45.5641"/>
<polygon fill="#000000" stroke="#000000" points="306.7466,-46.1332 305.0659,-35.6725 299.8564,-44.8981 306.7466,-46.1332"/>
</g>
<!-- 3320&#45;&gt;1273 -->
<g id="edge17" class="edge">
<title>3320&#45;&gt;1273</title>
<path fill="none" stroke="#000000" d="M265.2761,-117.6813C251.5716,-111.3233 233.9993,-103.171 218.9165,-96.1736"/>
<polygon fill="#000000" stroke="#000000" points="219.9744,-92.8061 209.4301,-91.7725 217.0284,-99.156 219.9744,-92.8061"/>
</g>
<!-- 5511 -->
<g id="node22" class="node">
<title>5511</title>
<ellipse fill="none" stroke="#000000" cx="235.2598" cy="-28.9654" rx="28.6953" ry="18"/>
<text text-anchor="middle" x="235.2598" y="-25.2654" font-family="Times,serif" font-size="14.00" fill="#000000">5511</text>
</g>
<!-- 3320&#45;&gt;5511 -->
<g id="edge18" class="edge">
<title>3320&#45;&gt;5511</title>
<path fill="none" stroke="#000000" d="M279.1769,-111.1029C270.9411,-95.6996 258.7774,-72.9501 249.3383,-55.2963"/>
<polygon fill="#000000" stroke="#000000" points="252.2186,-53.2602 244.4169,-46.0919 246.0456,-56.5609 252.2186,-53.2602"/>
</g>
<!-- 3356 -->
<g id="node16" class="node">
<title>3356</title>
<ellipse fill="none" stroke="#000000" cx="1250.0872" cy="-1544.9151" rx="28.6953" ry="18"/>
<text text-anchor="middle" x="1250.0872" y="-1541.2151" font-family="Times,serif" font-size="14.00" fill="#000000">3356</text>
</g>
<!-- 3549 -->
<g id="node18" class="node">
<title>3549</title>
<ellipse fill="none" stroke="#000000" cx="1352.0228" cy="-1405.2862" rx="28.6953" ry="18"/>
<text text-anchor="middle" x="1352.0228" y="-1401.5862" font-family="Times,serif" font-size="14.00" fill="#000000">3549</text>
</g>
<!-- 3356&#45;&gt;3549 -->
<g id="edge19" class="edge">
<title>3356&#45;&gt;3549</title>
<path fill="none" stroke="#000000" d="M1262.1809,-1528.3495C1279.9601,-1503.996 1313.2772,-1458.3591 1333.9622,-1430.0253"/>
<polygon fill="#000000" stroke="#000000" points="1336.8754,-1431.9707 1339.9449,-1421.8303 1331.2217,-1427.8432 1336.8754,-1431.9707"/>
</g>
<!-- 3491&#45;&gt;174 -->
<g id="edge20" class="edge">
<title>3491&#45;&gt;174</title>
<path fill="none" stroke="#000000" d="M1178.5361,-743.0165C1162.5552,-722.3107 1134.8704,-686.4408 1116.4071,-662.5188"/>
<polygon fill="#000000" stroke="#000000" points="1118.9415,-660.0741 1110.0608,-654.2962 1113.4001,-664.3511 1118.9415,-660.0741"/>
</g>
<!-- 6762 -->
<g id="node26" class="node">
<title>6762</title>
<ellipse fill="none" stroke="#000000" cx="1350.2078" cy="-1277.5869" rx="28.6953" ry="18"/>
<text text-anchor="middle" x="1350.2078" y="-1273.8869" font-family="Times,serif" font-size="14.00" fill="#000000">6762</text>
</g>
<!-- 3549&#45;&gt;6762 -->
<g id="edge21" class="edge">
<title>3549&#45;&gt;6762</title>
<path fill="none" stroke="#000000" d="M1351.7666,-1387.2609C1351.467,-1366.1802 1350.9671,-1331.014 1350.6144,-1306.1939"/>
<polygon fill="#000000" stroke="#000000" points="1354.1104,-1305.8833 1350.4685,-1295.9341 1347.1111,-1305.9828 1354.1104,-1305.8833"/>
</g>
<!-- 30070 -->
<g id="node42" class="node">
<title>30070</title>
<ellipse fill="none" stroke="#000000" cx="1466.1825" cy="-1325.5198" rx="32.4942" ry="18"/>
<text text-anchor="middle" x="1466.1825" y="-1321.8198" font-family="Times,serif" font-size="14.00" fill="#000000">30070</text>
</g>
<!-- 3549&#45;&gt;30070 -->
<g id="edge22" class="edge">
<title>3549&#45;&gt;30070</title>
<path fill="none" stroke="#000000" d="M1371.3884,-1391.7549C1389.5343,-1379.076 1416.8843,-1359.9657 1437.5504,-1345.5258"/>
<polygon fill="#000000" stroke="#000000" points="1439.7592,-1348.2522 1445.9518,-1339.6555 1435.7499,-1342.5142 1439.7592,-1348.2522"/>
</g>
<!-- 3597 -->
<g id="node19" class="node">
<title>3597</title>
<ellipse fill="none" stroke="#000000" cx="855.9558" cy="-1998.5306" rx="28.6953" ry="18"/>
<text text-anchor="middle" x="855.9558" y="-1994.8306" font-family="Times,serif" font-size="14.00" fill="#000000">3597</text>
</g>
<!-- 37179 -->
<g id="node44" class="node">
<title>37179</title>
<ellipse fill="none" stroke="#000000" cx="1974.8367" cy="-854.6867" rx="32.4942" ry="18"/>
<text text-anchor="middle" x="1974.8367" y="-850.9867" font-family="Times,serif" font-size="14.00" fill="#000000">37179</text>
</g>
<!-- 3741&#45;&gt;37179 -->
<g id="edge23" class="edge">
<title>3741&#45;&gt;37179</title>
<path fill="none" stroke="#000000" d="M1909.0388,-919.1583C1921.0617,-907.3778 1937.831,-890.9465 1951.431,-877.6207"/>
<polygon fill="#000000" stroke="#000000" points="1953.917,-880.0849 1958.6102,-870.5862 1949.0179,-875.085 1953.917,-880.0849"/>
</g>
<!-- 4637 -->
<g id="node21" class="node">
<title>4637</title>
<ellipse fill="none" stroke="#000000" cx="50.8377" cy="-606.8278" rx="28.6953" ry="18"/>
<text text-anchor="middle" x="50.8377" y="-603.1278" font-family="Times,serif" font-size="14.00" fill="#000000">4637</text>
</g>
<!-- 5692 -->
<g id="node23" class="node">
<title>5692</title>
<ellipse fill="none" stroke="#000000" cx="864.7757" cy="-1905.8156" rx="28.6953" ry="18"/>
<text text-anchor="middle" x="864.7757" y="-1902.1156" font-family="Times,serif" font-size="14.00" fill="#000000">5692</text>
</g>
<!-- 5692&#45;&gt;3597 -->
<g id="edge24" class="edge">
<title>5692&#45;&gt;3597</title>
<path fill="none" stroke="#000000" d="M863.0332,-1924.1331C861.7889,-1937.2126 860.0909,-1955.0624 858.6699,-1969.9994"/>
<polygon fill="#000000" stroke="#000000" points="855.1575,-1969.9646 857.6947,-1980.2511 862.1261,-1970.6275 855.1575,-1969.9646"/>
</g>
<!-- 10834 -->
<g id="node35" class="node">
<title>10834</title>
<ellipse fill="none" stroke="#000000" cx="1016.6811" cy="-1796.3454" rx="32.4942" ry="18"/>
<text text-anchor="middle" x="1016.6811" y="-1792.6454" font-family="Times,serif" font-size="14.00" fill="#000000">10834</text>
</g>
<!-- 5692&#45;&gt;10834 -->
<g id="edge25" class="edge">
<title>5692&#45;&gt;10834</title>
<path fill="none" stroke="#000000" d="M883.7075,-1892.1724C910.0242,-1873.2074 957.8641,-1838.7317 988.4159,-1816.7146"/>
<polygon fill="#000000" stroke="#000000" points="990.4758,-1819.5444 996.5424,-1810.8583 986.3832,-1813.8654 990.4758,-1819.5444"/>
</g>
<!-- 11008 -->
<g id="node36" class="node">
<title>11008</title>
<ellipse fill="none" stroke="#000000" cx="725.511" cy="-1976.6601" rx="32.4942" ry="18"/>
<text text-anchor="middle" x="725.511" y="-1972.9601" font-family="Times,serif" font-size="14.00" fill="#000000">11008</text>
</g>
<!-- 5692&#45;&gt;11008 -->
<g id="edge26" class="edge">
<title>5692&#45;&gt;11008</title>
<path fill="none" stroke="#000000" d="M842.4004,-1917.198C819.8024,-1928.6937 784.6315,-1946.5853 758.7687,-1959.7418"/>
<polygon fill="#000000" stroke="#000000" points="757.028,-1956.7004 749.7019,-1964.3541 760.2019,-1962.9395 757.028,-1956.7004"/>
</g>
<!-- 27865 -->
<g id="node40" class="node">
<title>27865</title>
<ellipse fill="none" stroke="#000000" cx="967.2302" cy="-1956.9451" rx="32.4942" ry="18"/>
<text text-anchor="middle" x="967.2302" y="-1953.2451" font-family="Times,serif" font-size="14.00" fill="#000000">27865</text>
</g>
<!-- 5692&#45;&gt;27865 -->
<g id="edge27" class="edge">
<title>5692&#45;&gt;27865</title>
<path fill="none" stroke="#000000" d="M887.2598,-1917.0362C900.9183,-1923.8524 918.6075,-1932.6801 933.8751,-1940.2994"/>
<polygon fill="#000000" stroke="#000000" points="932.5002,-1943.5248 943.0108,-1944.8585 935.626,-1937.2615 932.5002,-1943.5248"/>
</g>
<!-- 28065 -->
<g id="node41" class="node">
<title>28065</title>
<ellipse fill="none" stroke="#000000" cx="861.0707" cy="-2044.4616" rx="32.4942" ry="18"/>
<text text-anchor="middle" x="861.0707" y="-2040.7616" font-family="Times,serif" font-size="14.00" fill="#000000">28065</text>
</g>
<!-- 5692&#45;&gt;28065 -->
<g id="edge28" class="edge">
<title>5692&#45;&gt;28065</title>
<path fill="none" stroke="#000000" d="M864.2913,-1923.9411C863.6645,-1947.3987 862.5654,-1988.5272 861.8278,-2016.1282"/>
<polygon fill="#000000" stroke="#000000" points="858.3236,-2016.2417 861.5552,-2026.3316 865.3211,-2016.4287 858.3236,-2016.2417"/>
</g>
<!-- 52317 -->
<g id="node45" class="node">
<title>52317</title>
<ellipse fill="none" stroke="#000000" cx="824.1498" cy="-1783.0062" rx="32.4942" ry="18"/>
<text text-anchor="middle" x="824.1498" y="-1779.3062" font-family="Times,serif" font-size="14.00" fill="#000000">52317</text>
</g>
<!-- 5692&#45;&gt;52317 -->
<g id="edge29" class="edge">
<title>5692&#45;&gt;52317</title>
<path fill="none" stroke="#000000" d="M858.8684,-1887.958C852.1588,-1867.6756 841.1292,-1834.3337 833.3036,-1810.6774"/>
<polygon fill="#000000" stroke="#000000" points="836.5279,-1809.28 830.0643,-1800.8853 829.8821,-1811.4785 836.5279,-1809.28"/>
</g>
<!-- 52375 -->
<g id="node46" class="node">
<title>52375</title>
<ellipse fill="none" stroke="#000000" cx="825.6479" cy="-1828.297" rx="32.4942" ry="18"/>
<text text-anchor="middle" x="825.6479" y="-1824.597" font-family="Times,serif" font-size="14.00" fill="#000000">52375</text>
</g>
<!-- 5692&#45;&gt;52375 -->
<g id="edge30" class="edge">
<title>5692&#45;&gt;52375</title>
<path fill="none" stroke="#000000" d="M856.092,-1888.6117C851.0614,-1878.6453 844.6236,-1865.8909 838.9648,-1854.68"/>
<polygon fill="#000000" stroke="#000000" points="842.0733,-1853.071 834.4427,-1845.7209 835.8242,-1856.2252 842.0733,-1853.071"/>
</g>
<!-- 52376 -->
<g id="node47" class="node">
<title>52376</title>
<ellipse fill="none" stroke="#000000" cx="756.8384" cy="-1927.5" rx="32.4942" ry="18"/>
<text text-anchor="middle" x="756.8384" y="-1923.8" font-family="Times,serif" font-size="14.00" fill="#000000">52376</text>
</g>
<!-- 5692&#45;&gt;52376 -->
<g id="edge31" class="edge">
<title>5692&#45;&gt;52376</title>
<path fill="none" stroke="#000000" d="M837.2593,-1911.3436C825.2144,-1913.7634 810.8341,-1916.6524 797.5863,-1919.3138"/>
<polygon fill="#000000" stroke="#000000" points="796.8486,-1915.892 787.7339,-1921.2932 798.2274,-1922.7549 796.8486,-1915.892"/>
</g>
<!-- 52380 -->
<g id="node48" class="node">
<title>52380</title>
<ellipse fill="none" stroke="#000000" cx="938.1447" cy="-2006.4755" rx="32.4942" ry="18"/>
<text text-anchor="middle" x="938.1447" y="-2002.7755" font-family="Times,serif" font-size="14.00" fill="#000000">52380</text>
</g>
<!-- 5692&#45;&gt;52380 -->
<g id="edge32" class="edge">
<title>5692&#45;&gt;52380</title>
<path fill="none" stroke="#000000" d="M876.8911,-1922.4375C888.5036,-1938.3695 906.1949,-1962.6414 919.5842,-1981.0111"/>
<polygon fill="#000000" stroke="#000000" points="917.0474,-1983.4728 925.766,-1989.4925 922.7042,-1979.3497 917.0474,-1983.4728"/>
</g>
<!-- 52413 -->
<g id="node49" class="node">
<title>52413</title>
<ellipse fill="none" stroke="#000000" cx="704.3674" cy="-1873.798" rx="32.4942" ry="18"/>
<text text-anchor="middle" x="704.3674" y="-1870.098" font-family="Times,serif" font-size="14.00" fill="#000000">52413</text>
</g>
<!-- 5692&#45;&gt;52413 -->
<g id="edge33" class="edge">
<title>5692&#45;&gt;52413</title>
<path fill="none" stroke="#000000" d="M837.2005,-1900.3116C811.9106,-1895.2637 774.1214,-1887.721 745.3076,-1881.9697"/>
<polygon fill="#000000" stroke="#000000" points="745.6295,-1878.465 735.1378,-1879.9398 744.2592,-1885.3296 745.6295,-1878.465"/>
</g>
<!-- 52431 -->
<g id="node50" class="node">
<title>52431</title>
<ellipse fill="none" stroke="#000000" cx="750.5144" cy="-1829.5016" rx="32.4942" ry="18"/>
<text text-anchor="middle" x="750.5144" y="-1825.8016" font-family="Times,serif" font-size="14.00" fill="#000000">52431</text>
</g>
<!-- 5692&#45;&gt;52431 -->
<g id="edge34" class="edge">
<title>5692&#45;&gt;52431</title>
<path fill="none" stroke="#000000" d="M845.1335,-1892.6967C827.156,-1880.6897 800.3115,-1862.7605 779.8029,-1849.063"/>
<polygon fill="#000000" stroke="#000000" points="781.7055,-1846.1249 771.4457,-1843.4814 777.8176,-1851.946 781.7055,-1846.1249"/>
</g>
<!-- 262230 -->
<g id="node51" class="node">
<title>262230</title>
<ellipse fill="none" stroke="#000000" cx="776.3835" cy="-2037.2168" rx="37.0935" ry="18"/>
<text text-anchor="middle" x="776.3835" y="-2033.5168" font-family="Times,serif" font-size="14.00" fill="#000000">262230</text>
</g>
<!-- 5692&#45;&gt;262230 -->
<g id="edge35" class="edge">
<title>5692&#45;&gt;262230</title>
<path fill="none" stroke="#000000" d="M853.5808,-1922.4576C838.4719,-1944.918 811.4083,-1985.15 793.6744,-2011.5127"/>
<polygon fill="#000000" stroke="#000000" points="790.7262,-2009.6248 788.0487,-2019.8757 796.5343,-2013.5319 790.7262,-2009.6248"/>
</g>
<!-- 264608 -->
<g id="node52" class="node">
<title>264608</title>
<ellipse fill="none" stroke="#000000" cx="932.9298" cy="-1824.1543" rx="37.0935" ry="18"/>
<text text-anchor="middle" x="932.9298" y="-1820.4543" font-family="Times,serif" font-size="14.00" fill="#000000">264608</text>
</g>
<!-- 5692&#45;&gt;264608 -->
<g id="edge36" class="edge">
<title>5692&#45;&gt;264608</title>
<path fill="none" stroke="#000000" d="M878.2408,-1889.6819C887.9427,-1878.0572 901.2152,-1862.1542 912.2553,-1848.9263"/>
<polygon fill="#000000" stroke="#000000" points="915.0684,-1851.0179 918.7888,-1841.0978 909.6941,-1846.5326 915.0684,-1851.0179"/>
</g>
<!-- 6453&#45;&gt;3257 -->
<g id="edge37" class="edge">
<title>6453&#45;&gt;3257</title>
<path fill="none" stroke="#000000" d="M1298.6219,-988.4368C1289.5813,-964.9764 1273.5222,-923.3029 1262.957,-895.8862"/>
<polygon fill="#000000" stroke="#000000" points="1266.1981,-894.5631 1259.3364,-886.4905 1259.6663,-897.0802 1266.1981,-894.5631"/>
</g>
<!-- 6461&#45;&gt;2497 -->
<g id="edge38" class="edge">
<title>6461&#45;&gt;2497</title>
<path fill="none" stroke="#000000" d="M702.0046,-435.8373C673.8281,-429.8581 629.7525,-420.505 598.4351,-413.8592"/>
<polygon fill="#000000" stroke="#000000" points="598.8537,-410.3702 588.3449,-411.718 597.4005,-417.2177 598.8537,-410.3702"/>
</g>
<!-- 6762&#45;&gt;2914 -->
<g id="edge39" class="edge">
<title>6762&#45;&gt;2914</title>
<path fill="none" stroke="#000000" d="M1348.2082,-1259.3923C1345.3065,-1232.99 1339.9018,-1183.8118 1336.4734,-1152.6161"/>
<polygon fill="#000000" stroke="#000000" points="1339.922,-1151.9563 1335.3505,-1142.3985 1332.9639,-1152.7211 1339.922,-1151.9563"/>
</g>
<!-- 6904 -->
<g id="node27" class="node">
<title>6904</title>
<ellipse fill="none" stroke="#000000" cx="1583.0468" cy="-1218.2431" rx="28.6953" ry="18"/>
<text text-anchor="middle" x="1583.0468" y="-1214.5431" font-family="Times,serif" font-size="14.00" fill="#000000">6904</text>
</g>
<!-- 6904&#45;&gt;2687 -->
<g id="edge40" class="edge">
<title>6904&#45;&gt;2687</title>
<path fill="none" stroke="#000000" d="M1597.7526,-1202.218C1615.8278,-1182.5213 1646.6443,-1148.9404 1667.3599,-1126.3664"/>
<polygon fill="#000000" stroke="#000000" points="1670.0461,-1128.6158 1674.2286,-1118.8815 1664.8886,-1123.8829 1670.0461,-1128.6158"/>
</g>
<!-- 7016 -->
<g id="node28" class="node">
<title>7016</title>
<ellipse fill="none" stroke="#000000" cx="1355.4216" cy="-1330.9005" rx="28.6953" ry="18"/>
<text text-anchor="middle" x="1355.4216" y="-1327.2005" font-family="Times,serif" font-size="14.00" fill="#000000">7016</text>
</g>
<!-- 7922 -->
<g id="node31" class="node">
<title>7922</title>
<ellipse fill="none" stroke="#000000" cx="1237.6893" cy="-1315.734" rx="28.6953" ry="18"/>
<text text-anchor="middle" x="1237.6893" y="-1312.034" font-family="Times,serif" font-size="14.00" fill="#000000">7922</text>
</g>
<!-- 7016&#45;&gt;7922 -->
<g id="edge41" class="edge">
<title>7016&#45;&gt;7922</title>
<path fill="none" stroke="#000000" d="M1327.2218,-1327.2677C1311.8986,-1325.2938 1292.7291,-1322.8243 1276.0634,-1320.6774"/>
<polygon fill="#000000" stroke="#000000" points="1276.4323,-1317.1961 1266.067,-1319.3897 1275.5379,-1324.1387 1276.4323,-1317.1961"/>
</g>
<!-- 7018&#45;&gt;3320 -->
<g id="edge42" class="edge">
<title>7018&#45;&gt;3320</title>
<path fill="none" stroke="#000000" d="M349.5703,-245.2228C337.5724,-222.2996 316.2601,-181.5805 302.239,-154.7918"/>
<polygon fill="#000000" stroke="#000000" points="305.1721,-152.848 297.4339,-145.6112 298.9702,-156.0941 305.1721,-152.848"/>
</g>
<!-- 7473 -->
<g id="node30" class="node">
<title>7473</title>
<ellipse fill="none" stroke="#000000" cx="28.9477" cy="-537.836" rx="28.6953" ry="18"/>
<text text-anchor="middle" x="28.9477" y="-534.136" font-family="Times,serif" font-size="14.00" fill="#000000">7473</text>
</g>
<!-- 9498&#45;&gt;4637 -->
<g id="edge43" class="edge">
<title>9498&#45;&gt;4637</title>
<path fill="none" stroke="#000000" d="M121.278,-555.7924C108.7142,-564.8951 92.0348,-576.9797 78.0603,-587.1045"/>
<polygon fill="#000000" stroke="#000000" points="75.8142,-584.4097 69.7697,-593.1111 79.9212,-590.0783 75.8142,-584.4097"/>
</g>
<!-- 9498&#45;&gt;7473 -->
<g id="edge44" class="edge">
<title>9498&#45;&gt;7473</title>
<path fill="none" stroke="#000000" d="M111.5776,-540.9692C98.2069,-540.4622 82.0935,-539.8512 67.6601,-539.3039"/>
<polygon fill="#000000" stroke="#000000" points="67.6359,-535.8005 57.5105,-538.919 67.3706,-542.7955 67.6359,-535.8005"/>
</g>
<!-- 10026 -->
<g id="node34" class="node">
<title>10026</title>
<ellipse fill="none" stroke="#000000" cx="115.4608" cy="-652.4925" rx="32.4942" ry="18"/>
<text text-anchor="middle" x="115.4608" y="-648.7925" font-family="Times,serif" font-size="14.00" fill="#000000">10026</text>
</g>
<!-- 9498&#45;&gt;10026 -->
<g id="edge45" class="edge">
<title>9498&#45;&gt;10026</title>
<path fill="none" stroke="#000000" d="M136.1461,-560.2923C132.2134,-577.8214 126.2162,-604.5527 121.6901,-624.7269"/>
<polygon fill="#000000" stroke="#000000" points="118.2501,-624.0718 119.476,-634.5955 125.0803,-625.6042 118.2501,-624.0718"/>
</g>
<!-- 12956 -->
<g id="node37" class="node">
<title>12956</title>
<ellipse fill="none" stroke="#000000" cx="1153.2912" cy="-1658.2713" rx="32.4942" ry="18"/>
<text text-anchor="middle" x="1153.2912" y="-1654.5713" font-family="Times,serif" font-size="14.00" fill="#000000">12956</text>
</g>
<!-- 10834&#45;&gt;12956 -->
<g id="edge46" class="edge">
<title>10834&#45;&gt;12956</title>
<path fill="none" stroke="#000000" d="M1032.3521,-1780.5065C1056.311,-1756.2909 1102.192,-1709.9182 1130.0393,-1681.7724"/>
<polygon fill="#000000" stroke="#000000" points="1132.837,-1683.9211 1137.3823,-1674.3507 1127.8609,-1678.9977 1132.837,-1683.9211"/>
</g>
<!-- 22927 -->
<g id="node39" class="node">
<title>22927</title>
<ellipse fill="none" stroke="#000000" cx="1125.911" cy="-1867.8626" rx="32.4942" ry="18"/>
<text text-anchor="middle" x="1125.911" y="-1864.1626" font-family="Times,serif" font-size="14.00" fill="#000000">22927</text>
</g>
<!-- 10834&#45;&gt;22927 -->
<g id="edge47" class="edge">
<title>10834&#45;&gt;22927</title>
<path fill="none" stroke="#000000" d="M1037.7417,-1810.1346C1054.4394,-1821.0673 1077.9692,-1836.4731 1096.5218,-1848.6203"/>
<polygon fill="#000000" stroke="#000000" points="1094.6315,-1851.5661 1104.915,-1854.1157 1098.466,-1845.7097 1094.6315,-1851.5661"/>
</g>
<!-- 12956&#45;&gt;3356 -->
<g id="edge48" class="edge">
<title>12956&#45;&gt;3356</title>
<path fill="none" stroke="#000000" d="M1167.5738,-1641.5452C1183.9881,-1622.3227 1211.0543,-1590.6258 1229.6852,-1568.8076"/>
<polygon fill="#000000" stroke="#000000" points="1232.5407,-1570.8534 1236.3728,-1560.9758 1227.2174,-1566.3077 1232.5407,-1570.8534"/>
</g>
<!-- 18540 -->
<g id="node38" class="node">
<title>18540</title>
<ellipse fill="none" stroke="#000000" cx="1585.024" cy="-1371.8983" rx="32.4942" ry="18"/>
<text text-anchor="middle" x="1585.024" y="-1368.1983" font-family="Times,serif" font-size="14.00" fill="#000000">18540</text>
</g>
<!-- 30070&#45;&gt;6904 -->
<g id="edge49" class="edge">
<title>30070&#45;&gt;6904</title>
<path fill="none" stroke="#000000" d="M1483.4262,-1309.6907C1503.5318,-1291.2347 1536.8745,-1260.6273 1559.3897,-1239.9594"/>
<polygon fill="#000000" stroke="#000000" points="1561.8626,-1242.4404 1566.8625,-1233.0996 1557.1288,-1237.2836 1561.8626,-1242.4404"/>
</g>
<!-- 30070&#45;&gt;7016 -->
<g id="edge50" class="edge">
<title>30070&#45;&gt;7016</title>
<path fill="none" stroke="#000000" d="M1433.5496,-1327.1051C1421.1631,-1327.7068 1406.9391,-1328.3978 1394.0511,-1329.0239"/>
<polygon fill="#000000" stroke="#000000" points="1393.8807,-1325.5279 1384.0623,-1329.5091 1394.2204,-1332.5197 1393.8807,-1325.5279"/>
</g>
<!-- 30070&#45;&gt;18540 -->
<g id="edge51" class="edge">
<title>30070&#45;&gt;18540</title>
<path fill="none" stroke="#000000" d="M1492.8529,-1335.928C1509.3669,-1342.3728 1530.789,-1350.7328 1548.8242,-1357.7712"/>
<polygon fill="#000000" stroke="#000000" points="1547.8545,-1361.1498 1558.4427,-1361.5248 1550.3994,-1354.6287 1547.8545,-1361.1498"/>
</g>
</g>
</svg>
