<?xml version="1.0" encoding="UTF-8" standalone="no"?>
<!DOCTYPE svg PUBLIC "-//W3C//DTD SVG 1.1//EN"
 "http://www.w3.org/Graphics/SVG/1.1/DTD/svg11.dtd">
<!-- Generated by graphviz version 2.40.1 (20161225.0304)
 -->
<!-- Title: %3 Pages: 1 -->
<svg width="7026pt" height="3680pt"
 viewBox="0.00 0.00 7026.05 3679.53" xmlns="http://www.w3.org/2000/svg" xmlns:xlink="http://www.w3.org/1999/xlink">
<g id="graph0" class="graph" transform="scale(1 1) rotate(0) translate(4 3675.5291)">
<title>%3</title>
<polygon fill="#ffffff" stroke="transparent" points="-4,4 -4,-3675.5291 7022.0461,-3675.5291 7022.0461,4 -4,4"/>
<!-- 174 -->
<g id="node1" class="node">
<title>174</title>
<ellipse fill="none" stroke="#000000" cx="3580.5778" cy="-1861.6235" rx="27" ry="18"/>
<text text-anchor="middle" x="3580.5778" y="-1857.9235" font-family="Times,serif" font-size="14.00" fill="#000000">174</text>
</g>
<!-- 209 -->
<g id="node2" class="node">
<title>209</title>
<ellipse fill="none" stroke="#000000" cx="6266.4728" cy="-1861.6235" rx="27" ry="18"/>
<text text-anchor="middle" x="6266.4728" y="-1857.9235" font-family="Times,serif" font-size="14.00" fill="#000000">209</text>
</g>
<!-- 174&#45;&gt;209 -->
<g id="edge1" class="edge">
<title>174&#45;&gt;209</title>
<path fill="none" stroke="#000000" d="M3607.5968,-1861.6235C3867.7945,-1861.6235 5926.1655,-1861.6235 6229.2526,-1861.6235"/>
<polygon fill="#000000" stroke="#000000" points="6229.2881,-1865.1236 6239.2881,-1861.6235 6229.288,-1858.1236 6229.2881,-1865.1236"/>
</g>
<!-- 1299 -->
<g id="node7" class="node">
<title>1299</title>
<ellipse fill="none" stroke="#000000" cx="6266.4728" cy="-1734.0261" rx="28.6953" ry="18"/>
<text text-anchor="middle" x="6266.4728" y="-1730.3261" font-family="Times,serif" font-size="14.00" fill="#000000">1299</text>
</g>
<!-- 209&#45;&gt;1299 -->
<g id="edge2" class="edge">
<title>209&#45;&gt;1299</title>
<path fill="none" stroke="#000000" d="M6266.4728,-1843.6126C6266.4728,-1822.5487 6266.4728,-1787.4106 6266.4728,-1762.6103"/>
<polygon fill="#000000" stroke="#000000" points="6269.9729,-1762.3586 6266.4728,-1752.3586 6262.9729,-1762.3586 6269.9729,-1762.3586"/>
</g>
<!-- 2828 -->
<g id="node12" class="node">
<title>2828</title>
<ellipse fill="none" stroke="#000000" cx="6266.4728" cy="-3113.7827" rx="28.6953" ry="18"/>
<text text-anchor="middle" x="6266.4728" y="-3110.0827" font-family="Times,serif" font-size="14.00" fill="#000000">2828</text>
</g>
<!-- 209&#45;&gt;2828 -->
<g id="edge3" class="edge">
<title>209&#45;&gt;2828</title>
<path fill="none" stroke="#000000" d="M6266.4728,-1879.8071C6266.4728,-2018.9272 6266.4728,-2913.9185 6266.4728,-3085.3998"/>
<polygon fill="#000000" stroke="#000000" points="6262.9729,-3085.4198 6266.4728,-3095.4199 6269.9729,-3085.4199 6262.9729,-3085.4198"/>
</g>
<!-- 701 -->
<g id="node3" class="node">
<title>701</title>
<ellipse fill="none" stroke="#000000" cx="6266.4728" cy="-415.672" rx="27" ry="18"/>
<text text-anchor="middle" x="6266.4728" y="-411.972" font-family="Times,serif" font-size="14.00" fill="#000000">701</text>
</g>
<!-- 703 -->
<g id="node4" class="node">
<title>703</title>
<ellipse fill="none" stroke="#000000" cx="5737.2894" cy="-415.672" rx="27" ry="18"/>
<text text-anchor="middle" x="5737.2894" y="-411.972" font-family="Times,serif" font-size="14.00" fill="#000000">703</text>
</g>
<!-- 701&#45;&gt;703 -->
<g id="edge4" class="edge">
<title>701&#45;&gt;703</title>
<path fill="none" stroke="#000000" d="M6239.136,-415.672C6151.1372,-415.672 5875.107,-415.672 5774.472,-415.672"/>
<polygon fill="#000000" stroke="#000000" points="5774.463,-412.1721 5764.4629,-415.672 5774.4629,-419.1721 5774.463,-412.1721"/>
</g>
<!-- 7018 -->
<g id="node29" class="node">
<title>7018</title>
<ellipse fill="none" stroke="#000000" cx="6601.8638" cy="-415.672" rx="28.6953" ry="18"/>
<text text-anchor="middle" x="6601.8638" y="-411.972" font-family="Times,serif" font-size="14.00" fill="#000000">7018</text>
</g>
<!-- 701&#45;&gt;7018 -->
<g id="edge5" class="edge">
<title>701&#45;&gt;7018</title>
<path fill="none" stroke="#000000" d="M6293.6352,-415.672C6352.8464,-415.672 6493.7445,-415.672 6562.6128,-415.672"/>
<polygon fill="#000000" stroke="#000000" points="6563.0238,-419.1721 6573.0237,-415.672 6563.0237,-412.1721 6563.0238,-419.1721"/>
</g>
<!-- 2516 -->
<g id="node9" class="node">
<title>2516</title>
<ellipse fill="none" stroke="#000000" cx="5737.2894" cy="-611.7666" rx="28.6953" ry="18"/>
<text text-anchor="middle" x="5737.2894" y="-608.0666" font-family="Times,serif" font-size="14.00" fill="#000000">2516</text>
</g>
<!-- 703&#45;&gt;2516 -->
<g id="edge6" class="edge">
<title>703&#45;&gt;2516</title>
<path fill="none" stroke="#000000" d="M5737.2894,-433.7686C5737.2894,-468.061 5737.2894,-542.7273 5737.2894,-583.6146"/>
<polygon fill="#000000" stroke="#000000" points="5733.7895,-583.7137 5737.2894,-593.7137 5740.7895,-583.7137 5733.7895,-583.7137"/>
</g>
<!-- 9498 -->
<g id="node32" class="node">
<title>9498</title>
<ellipse fill="none" stroke="#000000" cx="5737.2894" cy="-151.0803" rx="28.6953" ry="18"/>
<text text-anchor="middle" x="5737.2894" y="-147.3803" font-family="Times,serif" font-size="14.00" fill="#000000">9498</text>
</g>
<!-- 703&#45;&gt;9498 -->
<g id="edge7" class="edge">
<title>703&#45;&gt;9498</title>
<path fill="none" stroke="#000000" d="M5737.2894,-397.4855C5737.2894,-352.1698 5737.2894,-233.9611 5737.2894,-179.4141"/>
<polygon fill="#000000" stroke="#000000" points="5740.7895,-179.394 5737.2894,-169.394 5733.7895,-179.3941 5740.7895,-179.394"/>
</g>
<!-- 1239 -->
<g id="node5" class="node">
<title>1239</title>
<ellipse fill="none" stroke="#000000" cx="6795.6562" cy="-303.7859" rx="28.6953" ry="18"/>
<text text-anchor="middle" x="6795.6562" y="-300.0859" font-family="Times,serif" font-size="14.00" fill="#000000">1239</text>
</g>
<!-- 1273 -->
<g id="node6" class="node">
<title>1273</title>
<ellipse fill="none" stroke="#000000" cx="6989.4486" cy="-415.672" rx="28.6953" ry="18"/>
<text text-anchor="middle" x="6989.4486" y="-411.972" font-family="Times,serif" font-size="14.00" fill="#000000">1273</text>
</g>
<!-- 6461 -->
<g id="node25" class="node">
<title>6461</title>
<ellipse fill="none" stroke="#000000" cx="6266.4728" cy="-1604.8312" rx="28.6953" ry="18"/>
<text text-anchor="middle" x="6266.4728" y="-1601.1312" font-family="Times,serif" font-size="14.00" fill="#000000">6461</text>
</g>
<!-- 1299&#45;&gt;6461 -->
<g id="edge8" class="edge">
<title>1299&#45;&gt;6461</title>
<path fill="none" stroke="#000000" d="M6266.4728,-1715.7896C6266.4728,-1694.2447 6266.4728,-1658.1573 6266.4728,-1633.0088"/>
<polygon fill="#000000" stroke="#000000" points="6269.9729,-1632.9748 6266.4728,-1622.9749 6262.9729,-1632.9749 6269.9729,-1632.9748"/>
</g>
<!-- 2497 -->
<g id="node8" class="node">
<title>2497</title>
<ellipse fill="none" stroke="#000000" cx="6266.4728" cy="-1475.6362" rx="28.6953" ry="18"/>
<text text-anchor="middle" x="6266.4728" y="-1471.9362" font-family="Times,serif" font-size="14.00" fill="#000000">2497</text>
</g>
<!-- 2497&#45;&gt;701 -->
<g id="edge9" class="edge">
<title>2497&#45;&gt;701</title>
<path fill="none" stroke="#000000" d="M6266.4728,-1457.2386C6266.4728,-1331.3291 6266.4728,-597.2078 6266.4728,-443.7767"/>
<polygon fill="#000000" stroke="#000000" points="6269.9729,-443.7494 6266.4728,-433.7495 6262.9729,-443.7495 6269.9729,-443.7494"/>
</g>
<!-- 32787 -->
<g id="node43" class="node">
<title>32787</title>
<ellipse fill="none" stroke="#000000" cx="5737.2894" cy="-744.8612" rx="32.4942" ry="18"/>
<text text-anchor="middle" x="5737.2894" y="-741.1612" font-family="Times,serif" font-size="14.00" fill="#000000">32787</text>
</g>
<!-- 2516&#45;&gt;32787 -->
<g id="edge10" class="edge">
<title>2516&#45;&gt;32787</title>
<path fill="none" stroke="#000000" d="M5737.2894,-629.9937C5737.2894,-652.3948 5737.2894,-690.6446 5737.2894,-716.8035"/>
<polygon fill="#000000" stroke="#000000" points="5733.7895,-716.8541 5737.2894,-726.8541 5740.7895,-716.8542 5733.7895,-716.8541"/>
</g>
<!-- 2686 -->
<g id="node10" class="node">
<title>2686</title>
<ellipse fill="none" stroke="#000000" cx="1115.8187" cy="-2652.525" rx="28.6953" ry="18"/>
<text text-anchor="middle" x="1115.8187" y="-2648.825" font-family="Times,serif" font-size="14.00" fill="#000000">2686</text>
</g>
<!-- 3741 -->
<g id="node20" class="node">
<title>3741</title>
<ellipse fill="none" stroke="#000000" cx="1062.0146" cy="-2535.0667" rx="28.6953" ry="18"/>
<text text-anchor="middle" x="1062.0146" y="-2531.3667" font-family="Times,serif" font-size="14.00" fill="#000000">3741</text>
</g>
<!-- 2686&#45;&gt;3741 -->
<g id="edge11" class="edge">
<title>2686&#45;&gt;3741</title>
<path fill="none" stroke="#000000" d="M1107.8797,-2635.1936C1099.0185,-2615.8489 1084.5722,-2584.3117 1074.2608,-2561.801"/>
<polygon fill="#000000" stroke="#000000" points="1077.3328,-2560.1032 1069.9861,-2552.4692 1070.9687,-2563.0184 1077.3328,-2560.1032"/>
</g>
<!-- 2687 -->
<g id="node11" class="node">
<title>2687</title>
<ellipse fill="none" stroke="#000000" cx="1169.6229" cy="-2769.9833" rx="28.6953" ry="18"/>
<text text-anchor="middle" x="1169.6229" y="-2766.2833" font-family="Times,serif" font-size="14.00" fill="#000000">2687</text>
</g>
<!-- 2687&#45;&gt;2686 -->
<g id="edge12" class="edge">
<title>2687&#45;&gt;2686</title>
<path fill="none" stroke="#000000" d="M1161.6839,-2752.6519C1152.8226,-2733.3071 1138.3764,-2701.77 1128.0649,-2679.2593"/>
<polygon fill="#000000" stroke="#000000" points="1131.137,-2677.5614 1123.7903,-2669.9275 1124.7729,-2680.4767 1131.137,-2677.5614"/>
</g>
<!-- 9505 -->
<g id="node33" class="node">
<title>9505</title>
<ellipse fill="none" stroke="#000000" cx="1278.8552" cy="-3008.4452" rx="28.6953" ry="18"/>
<text text-anchor="middle" x="1278.8552" y="-3004.7452" font-family="Times,serif" font-size="14.00" fill="#000000">9505</text>
</g>
<!-- 2687&#45;&gt;9505 -->
<g id="edge13" class="edge">
<title>2687&#45;&gt;9505</title>
<path fill="none" stroke="#000000" d="M1177.655,-2787.5179C1196.5534,-2828.7745 1243.9346,-2932.211 1266.515,-2981.5055"/>
<polygon fill="#000000" stroke="#000000" points="1263.4647,-2983.2508 1270.8113,-2990.8848 1269.8288,-2980.3356 1263.4647,-2983.2508"/>
</g>
<!-- 2914 -->
<g id="node13" class="node">
<title>2914</title>
<ellipse fill="none" stroke="#000000" cx="3065.3956" cy="-1861.6235" rx="28.6953" ry="18"/>
<text text-anchor="middle" x="3065.3956" y="-1857.9235" font-family="Times,serif" font-size="14.00" fill="#000000">2914</text>
</g>
<!-- 6453 -->
<g id="node24" class="node">
<title>6453</title>
<ellipse fill="none" stroke="#000000" cx="3194.5905" cy="-1861.6235" rx="28.6953" ry="18"/>
<text text-anchor="middle" x="3194.5905" y="-1857.9235" font-family="Times,serif" font-size="14.00" fill="#000000">6453</text>
</g>
<!-- 2914&#45;&gt;6453 -->
<g id="edge14" class="edge">
<title>2914&#45;&gt;6453</title>
<path fill="none" stroke="#000000" d="M3094.0681,-1861.6235C3112.0902,-1861.6235 3135.5825,-1861.6235 3155.3242,-1861.6235"/>
<polygon fill="#000000" stroke="#000000" points="3155.5514,-1865.1236 3165.5513,-1861.6235 3155.5513,-1858.1236 3155.5514,-1865.1236"/>
</g>
<!-- 3257 -->
<g id="node14" class="node">
<title>3257</title>
<ellipse fill="none" stroke="#000000" cx="3323.7854" cy="-1861.6235" rx="28.6953" ry="18"/>
<text text-anchor="middle" x="3323.7854" y="-1857.9235" font-family="Times,serif" font-size="14.00" fill="#000000">3257</text>
</g>
<!-- 3491 -->
<g id="node17" class="node">
<title>3491</title>
<ellipse fill="none" stroke="#000000" cx="3452.9803" cy="-1861.6235" rx="28.6953" ry="18"/>
<text text-anchor="middle" x="3452.9803" y="-1857.9235" font-family="Times,serif" font-size="14.00" fill="#000000">3491</text>
</g>
<!-- 3257&#45;&gt;3491 -->
<g id="edge15" class="edge">
<title>3257&#45;&gt;3491</title>
<path fill="none" stroke="#000000" d="M3352.4579,-1861.6235C3370.4801,-1861.6235 3393.9723,-1861.6235 3413.714,-1861.6235"/>
<polygon fill="#000000" stroke="#000000" points="3413.9412,-1865.1236 3423.9412,-1861.6235 3413.9412,-1858.1236 3413.9412,-1865.1236"/>
</g>
<!-- 3320 -->
<g id="node15" class="node">
<title>3320</title>
<ellipse fill="none" stroke="#000000" cx="6860.2537" cy="-415.672" rx="28.6953" ry="18"/>
<text text-anchor="middle" x="6860.2537" y="-411.972" font-family="Times,serif" font-size="14.00" fill="#000000">3320</text>
</g>
<!-- 3320&#45;&gt;1239 -->
<g id="edge16" class="edge">
<title>3320&#45;&gt;1239</title>
<path fill="none" stroke="#000000" d="M6850.4427,-398.6789C6839.8664,-380.3602 6822.9036,-350.9798 6810.6527,-329.7606"/>
<polygon fill="#000000" stroke="#000000" points="6813.5907,-327.8492 6805.5595,-320.9389 6807.5285,-331.3492 6813.5907,-327.8492"/>
</g>
<!-- 3320&#45;&gt;1273 -->
<g id="edge17" class="edge">
<title>3320&#45;&gt;1273</title>
<path fill="none" stroke="#000000" d="M6888.9262,-415.672C6906.9484,-415.672 6930.4406,-415.672 6950.1823,-415.672"/>
<polygon fill="#000000" stroke="#000000" points="6950.4095,-419.1721 6960.4095,-415.672 6950.4094,-412.1721 6950.4095,-419.1721"/>
</g>
<!-- 5511 -->
<g id="node22" class="node">
<title>5511</title>
<ellipse fill="none" stroke="#000000" cx="6795.6562" cy="-527.5581" rx="28.6953" ry="18"/>
<text text-anchor="middle" x="6795.6562" y="-523.8581" font-family="Times,serif" font-size="14.00" fill="#000000">5511</text>
</g>
<!-- 3320&#45;&gt;5511 -->
<g id="edge18" class="edge">
<title>3320&#45;&gt;5511</title>
<path fill="none" stroke="#000000" d="M6850.4427,-432.6651C6839.8664,-450.9838 6822.9036,-480.3642 6810.6527,-501.5833"/>
<polygon fill="#000000" stroke="#000000" points="6807.5285,-499.9948 6805.5595,-510.4051 6813.5907,-503.4948 6807.5285,-499.9948"/>
</g>
<!-- 3356 -->
<g id="node16" class="node">
<title>3356</title>
<ellipse fill="none" stroke="#000000" cx="571.6954" cy="-1489.0482" rx="28.6953" ry="18"/>
<text text-anchor="middle" x="571.6954" y="-1485.3482" font-family="Times,serif" font-size="14.00" fill="#000000">3356</text>
</g>
<!-- 3549 -->
<g id="node18" class="node">
<title>3549</title>
<ellipse fill="none" stroke="#000000" cx="571.6954" cy="-1861.6235" rx="28.6953" ry="18"/>
<text text-anchor="middle" x="571.6954" y="-1857.9235" font-family="Times,serif" font-size="14.00" fill="#000000">3549</text>
</g>
<!-- 3356&#45;&gt;3549 -->
<g id="edge19" class="edge">
<title>3356&#45;&gt;3549</title>
<path fill="none" stroke="#000000" d="M571.6954,-1507.2705C571.6954,-1567.4417 571.6954,-1760.101 571.6954,-1833.1639"/>
<polygon fill="#000000" stroke="#000000" points="568.1955,-1833.4363 571.6954,-1843.4363 575.1955,-1833.4364 568.1955,-1833.4363"/>
</g>
<!-- 3491&#45;&gt;174 -->
<g id="edge20" class="edge">
<title>3491&#45;&gt;174</title>
<path fill="none" stroke="#000000" d="M3481.6157,-1861.6235C3499.8023,-1861.6235 3523.5328,-1861.6235 3543.1968,-1861.6235"/>
<polygon fill="#000000" stroke="#000000" points="3543.3493,-1865.1236 3553.3492,-1861.6235 3543.3492,-1858.1236 3543.3493,-1865.1236"/>
</g>
<!-- 6762 -->
<g id="node26" class="node">
<title>6762</title>
<ellipse fill="none" stroke="#000000" cx="2936.2006" cy="-1861.6235" rx="28.6953" ry="18"/>
<text text-anchor="middle" x="2936.2006" y="-1857.9235" font-family="Times,serif" font-size="14.00" fill="#000000">6762</text>
</g>
<!-- 3549&#45;&gt;6762 -->
<g id="edge21" class="edge">
<title>3549&#45;&gt;6762</title>
<path fill="none" stroke="#000000" d="M600.3163,-1861.6235C846.9122,-1861.6235 2610.6567,-1861.6235 2896.9733,-1861.6235"/>
<polygon fill="#000000" stroke="#000000" points="2897.2789,-1865.1236 2907.2789,-1861.6235 2897.2789,-1858.1236 2897.2789,-1865.1236"/>
</g>
<!-- 30070 -->
<g id="node42" class="node">
<title>30070</title>
<ellipse fill="none" stroke="#000000" cx="571.6954" cy="-3043.8761" rx="32.4942" ry="18"/>
<text text-anchor="middle" x="571.6954" y="-3040.1761" font-family="Times,serif" font-size="14.00" fill="#000000">30070</text>
</g>
<!-- 3549&#45;&gt;30070 -->
<g id="edge22" class="edge">
<title>3549&#45;&gt;30070</title>
<path fill="none" stroke="#000000" d="M571.6954,-1879.7208C571.6954,-2013.6206 571.6954,-2849.8581 571.6954,-3015.4141"/>
<polygon fill="#000000" stroke="#000000" points="568.1955,-3015.7471 571.6954,-3025.7472 575.1955,-3015.7472 568.1955,-3015.7471"/>
</g>
<!-- 3597 -->
<g id="node19" class="node">
<title>3597</title>
<ellipse fill="none" stroke="#000000" cx="722.1828" cy="-478.2353" rx="28.6953" ry="18"/>
<text text-anchor="middle" x="722.1828" y="-474.5353" font-family="Times,serif" font-size="14.00" fill="#000000">3597</text>
</g>
<!-- 37179 -->
<g id="node44" class="node">
<title>37179</title>
<ellipse fill="none" stroke="#000000" cx="1006.5864" cy="-2414.0631" rx="32.4942" ry="18"/>
<text text-anchor="middle" x="1006.5864" y="-2410.3631" font-family="Times,serif" font-size="14.00" fill="#000000">37179</text>
</g>
<!-- 3741&#45;&gt;37179 -->
<g id="edge23" class="edge">
<title>3741&#45;&gt;37179</title>
<path fill="none" stroke="#000000" d="M1054.0731,-2517.7299C1044.9057,-2497.7168 1029.7155,-2464.5556 1018.9874,-2441.1354"/>
<polygon fill="#000000" stroke="#000000" points="1022.0401,-2439.3952 1014.6934,-2431.7613 1015.676,-2442.3105 1022.0401,-2439.3952"/>
</g>
<!-- 4637 -->
<g id="node21" class="node">
<title>4637</title>
<ellipse fill="none" stroke="#000000" cx="5621.7026" cy="-217.0639" rx="28.6953" ry="18"/>
<text text-anchor="middle" x="5621.7026" y="-213.3639" font-family="Times,serif" font-size="14.00" fill="#000000">4637</text>
</g>
<!-- 5692 -->
<g id="node23" class="node">
<title>5692</title>
<ellipse fill="none" stroke="#000000" cx="976.534" cy="-546.2764" rx="28.6953" ry="18"/>
<text text-anchor="middle" x="976.534" y="-542.5764" font-family="Times,serif" font-size="14.00" fill="#000000">5692</text>
</g>
<!-- 5692&#45;&gt;3597 -->
<g id="edge24" class="edge">
<title>5692&#45;&gt;3597</title>
<path fill="none" stroke="#000000" d="M949.7947,-539.1234C903.8781,-526.8403 810.0038,-501.7282 758.3129,-487.9004"/>
<polygon fill="#000000" stroke="#000000" points="759.1287,-484.4956 748.5638,-485.2925 757.3197,-491.2579 759.1287,-484.4956"/>
</g>
<!-- 10834 -->
<g id="node35" class="node">
<title>10834</title>
<ellipse fill="none" stroke="#000000" cx="571.6954" cy="-546.2764" rx="32.4942" ry="18"/>
<text text-anchor="middle" x="571.6954" y="-542.5764" font-family="Times,serif" font-size="14.00" fill="#000000">10834</text>
</g>
<!-- 5692&#45;&gt;10834 -->
<g id="edge25" class="edge">
<title>5692&#45;&gt;10834</title>
<path fill="none" stroke="#000000" d="M947.7436,-546.2764C877.4974,-546.2764 697.032,-546.2764 614.2938,-546.2764"/>
<polygon fill="#000000" stroke="#000000" points="614.2303,-542.7765 604.2303,-546.2764 614.2302,-549.7765 614.2303,-542.7765"/>
</g>
<!-- 11008 -->
<g id="node36" class="node">
<title>11008</title>
<ellipse fill="none" stroke="#000000" cx="786.9418" cy="-363.5774" rx="32.4942" ry="18"/>
<text text-anchor="middle" x="786.9418" y="-359.8774" font-family="Times,serif" font-size="14.00" fill="#000000">11008</text>
</g>
<!-- 5692&#45;&gt;11008 -->
<g id="edge26" class="edge">
<title>5692&#45;&gt;11008</title>
<path fill="none" stroke="#000000" d="M960.6956,-531.0138C927.3217,-498.8533 849.6265,-423.983 810.437,-386.2184"/>
<polygon fill="#000000" stroke="#000000" points="812.7665,-383.6025 803.137,-379.1838 807.9092,-388.6431 812.7665,-383.6025"/>
</g>
<!-- 27865 -->
<g id="node40" class="node">
<title>27865</title>
<ellipse fill="none" stroke="#000000" cx="902.8594" cy="-293.4994" rx="32.4942" ry="18"/>
<text text-anchor="middle" x="902.8594" y="-289.7994" font-family="Times,serif" font-size="14.00" fill="#000000">27865</text>
</g>
<!-- 5692&#45;&gt;27865 -->
<g id="edge27" class="edge">
<title>5692&#45;&gt;27865</title>
<path fill="none" stroke="#000000" d="M971.3534,-528.5016C958.7023,-485.0957 926.1584,-373.4378 910.9356,-321.2085"/>
<polygon fill="#000000" stroke="#000000" points="914.2914,-320.214 908.133,-311.5929 907.5711,-322.1728 914.2914,-320.214"/>
</g>
<!-- 28065 -->
<g id="node41" class="node">
<title>28065</title>
<ellipse fill="none" stroke="#000000" cx="1038.2764" cy="-290.3232" rx="32.4942" ry="18"/>
<text text-anchor="middle" x="1038.2764" y="-286.6232" font-family="Times,serif" font-size="14.00" fill="#000000">28065</text>
</g>
<!-- 5692&#45;&gt;28065 -->
<g id="edge28" class="edge">
<title>5692&#45;&gt;28065</title>
<path fill="none" stroke="#000000" d="M980.8756,-528.2782C991.4814,-484.312 1018.7694,-371.1894 1031.5212,-318.3268"/>
<polygon fill="#000000" stroke="#000000" points="1034.9969,-318.8434 1033.9396,-308.3014 1028.1921,-317.2018 1034.9969,-318.8434"/>
</g>
<!-- 52317 -->
<g id="node45" class="node">
<title>52317</title>
<ellipse fill="none" stroke="#000000" cx="1157.3521" cy="-354.8894" rx="32.4942" ry="18"/>
<text text-anchor="middle" x="1157.3521" y="-351.1894" font-family="Times,serif" font-size="14.00" fill="#000000">52317</text>
</g>
<!-- 5692&#45;&gt;52317 -->
<g id="edge29" class="edge">
<title>5692&#45;&gt;52317</title>
<path fill="none" stroke="#000000" d="M991.3311,-530.6144C1023.0396,-497.0526 1097.6904,-418.0383 1135.1276,-378.4129"/>
<polygon fill="#000000" stroke="#000000" points="1137.7717,-380.7108 1142.0951,-371.0382 1132.6835,-375.9035 1137.7717,-380.7108"/>
</g>
<!-- 52375 -->
<g id="node46" class="node">
<title>52375</title>
<ellipse fill="none" stroke="#000000" cx="1228.5712" cy="-470.1095" rx="32.4942" ry="18"/>
<text text-anchor="middle" x="1228.5712" y="-466.4095" font-family="Times,serif" font-size="14.00" fill="#000000">52375</text>
</g>
<!-- 5692&#45;&gt;52375 -->
<g id="edge30" class="edge">
<title>5692&#45;&gt;52375</title>
<path fill="none" stroke="#000000" d="M1002.5572,-538.4121C1047.1275,-524.9427 1138.2735,-497.3979 1190.1699,-481.7146"/>
<polygon fill="#000000" stroke="#000000" points="1191.4404,-484.987 1200.0004,-478.7438 1189.4154,-478.2863 1191.4404,-484.987"/>
</g>
<!-- 52376 -->
<g id="node47" class="node">
<title>52376</title>
<ellipse fill="none" stroke="#000000" cx="1233.0844" cy="-605.4884" rx="32.4942" ry="18"/>
<text text-anchor="middle" x="1233.0844" y="-601.7884" font-family="Times,serif" font-size="14.00" fill="#000000">52376</text>
</g>
<!-- 5692&#45;&gt;52376 -->
<g id="edge31" class="edge">
<title>5692&#45;&gt;52376</title>
<path fill="none" stroke="#000000" d="M1003.5045,-552.5012C1048.7327,-562.9399 1140.0922,-584.0258 1192.907,-596.2155"/>
<polygon fill="#000000" stroke="#000000" points="1192.4,-599.6904 1202.931,-598.529 1193.9743,-592.8697 1192.4,-599.6904"/>
</g>
<!-- 52380 -->
<g id="node48" class="node">
<title>52380</title>
<ellipse fill="none" stroke="#000000" cx="1169.697" cy="-725.1959" rx="32.4942" ry="18"/>
<text text-anchor="middle" x="1169.697" y="-721.4959" font-family="Times,serif" font-size="14.00" fill="#000000">52380</text>
</g>
<!-- 5692&#45;&gt;52380 -->
<g id="edge32" class="edge">
<title>5692&#45;&gt;52380</title>
<path fill="none" stroke="#000000" d="M992.6708,-561.2232C1026.5883,-592.6397 1105.4362,-665.6735 1145.4591,-702.7453"/>
<polygon fill="#000000" stroke="#000000" points="1143.2064,-705.4294 1152.9212,-709.6571 1147.9632,-700.2939 1143.2064,-705.4294"/>
</g>
<!-- 52413 -->
<g id="node49" class="node">
<title>52413</title>
<ellipse fill="none" stroke="#000000" cx="1055.1858" cy="-797.5492" rx="32.4942" ry="18"/>
<text text-anchor="middle" x="1055.1858" y="-793.8492" font-family="Times,serif" font-size="14.00" fill="#000000">52413</text>
</g>
<!-- 5692&#45;&gt;52413 -->
<g id="edge33" class="edge">
<title>5692&#45;&gt;52413</title>
<path fill="none" stroke="#000000" d="M982.0647,-563.9454C995.5705,-607.093 1030.3129,-718.0865 1046.5641,-770.005"/>
<polygon fill="#000000" stroke="#000000" points="1043.2285,-771.0655 1049.556,-779.5634 1049.9089,-768.9744 1043.2285,-771.0655"/>
</g>
<!-- 52431 -->
<g id="node50" class="node">
<title>52431</title>
<ellipse fill="none" stroke="#000000" cx="919.858" cy="-803.3988" rx="32.4942" ry="18"/>
<text text-anchor="middle" x="919.858" y="-799.6988" font-family="Times,serif" font-size="14.00" fill="#000000">52431</text>
</g>
<!-- 5692&#45;&gt;52431 -->
<g id="edge34" class="edge">
<title>5692&#45;&gt;52431</title>
<path fill="none" stroke="#000000" d="M972.5487,-564.3567C962.8132,-608.5238 937.7643,-722.1632 926.0589,-775.2673"/>
<polygon fill="#000000" stroke="#000000" points="922.5736,-774.8195 923.8389,-785.3385 929.4095,-776.3263 922.5736,-774.8195"/>
</g>
<!-- 262230 -->
<g id="node51" class="node">
<title>262230</title>
<ellipse fill="none" stroke="#000000" cx="796.189" cy="-738.1091" rx="37.0935" ry="18"/>
<text text-anchor="middle" x="796.189" y="-734.4091" font-family="Times,serif" font-size="14.00" fill="#000000">262230</text>
</g>
<!-- 5692&#45;&gt;262230 -->
<g id="edge35" class="edge">
<title>5692&#45;&gt;262230</title>
<path fill="none" stroke="#000000" d="M961.7756,-561.9749C930.229,-595.531 856.0656,-674.4184 818.6353,-714.2329"/>
<polygon fill="#000000" stroke="#000000" points="815.9621,-711.9666 811.6626,-721.6499 821.0622,-716.7613 815.9621,-711.9666"/>
</g>
<!-- 264608 -->
<g id="node52" class="node">
<title>264608</title>
<ellipse fill="none" stroke="#000000" cx="722.1828" cy="-614.3174" rx="37.0935" ry="18"/>
<text text-anchor="middle" x="722.1828" y="-610.6174" font-family="Times,serif" font-size="14.00" fill="#000000">264608</text>
</g>
<!-- 5692&#45;&gt;264608 -->
<g id="edge36" class="edge">
<title>5692&#45;&gt;264608</title>
<path fill="none" stroke="#000000" d="M949.7947,-553.4294C905.6996,-565.2252 817.3764,-588.8524 764.6582,-602.9549"/>
<polygon fill="#000000" stroke="#000000" points="763.6861,-599.5918 754.9303,-605.5572 765.4951,-606.354 763.6861,-599.5918"/>
</g>
<!-- 6453&#45;&gt;3257 -->
<g id="edge37" class="edge">
<title>6453&#45;&gt;3257</title>
<path fill="none" stroke="#000000" d="M3223.263,-1861.6235C3241.2851,-1861.6235 3264.7774,-1861.6235 3284.5191,-1861.6235"/>
<polygon fill="#000000" stroke="#000000" points="3284.7463,-1865.1236 3294.7463,-1861.6235 3284.7462,-1858.1236 3284.7463,-1865.1236"/>
</g>
<!-- 6461&#45;&gt;2497 -->
<g id="edge38" class="edge">
<title>6461&#45;&gt;2497</title>
<path fill="none" stroke="#000000" d="M6266.4728,-1586.5947C6266.4728,-1565.0497 6266.4728,-1528.9624 6266.4728,-1503.8139"/>
<polygon fill="#000000" stroke="#000000" points="6269.9729,-1503.7799 6266.4728,-1493.7799 6262.9729,-1503.78 6269.9729,-1503.7799"/>
</g>
<!-- 6762&#45;&gt;2914 -->
<g id="edge39" class="edge">
<title>6762&#45;&gt;2914</title>
<path fill="none" stroke="#000000" d="M2964.8732,-1861.6235C2982.8953,-1861.6235 3006.3875,-1861.6235 3026.1292,-1861.6235"/>
<polygon fill="#000000" stroke="#000000" points="3026.3564,-1865.1236 3036.3564,-1861.6235 3026.3564,-1858.1236 3026.3564,-1865.1236"/>
</g>
<!-- 6904 -->
<g id="node27" class="node">
<title>6904</title>
<ellipse fill="none" stroke="#000000" cx="692.6991" cy="-2988.448" rx="28.6953" ry="18"/>
<text text-anchor="middle" x="692.6991" y="-2984.748" font-family="Times,serif" font-size="14.00" fill="#000000">6904</text>
</g>
<!-- 6904&#45;&gt;2687 -->
<g id="edge40" class="edge">
<title>6904&#45;&gt;2687</title>
<path fill="none" stroke="#000000" d="M716.025,-2977.7631C794.1557,-2941.9737 1046.7912,-2826.2488 1137.1296,-2784.8675"/>
<polygon fill="#000000" stroke="#000000" points="1138.708,-2787.9943 1146.3419,-2780.6476 1135.7927,-2781.6302 1138.708,-2787.9943"/>
</g>
<!-- 7016 -->
<g id="node28" class="node">
<title>7016</title>
<ellipse fill="none" stroke="#000000" cx="373.4627" cy="-3533.7675" rx="28.6953" ry="18"/>
<text text-anchor="middle" x="373.4627" y="-3530.0675" font-family="Times,serif" font-size="14.00" fill="#000000">7016</text>
</g>
<!-- 7922 -->
<g id="node31" class="node">
<title>7922</title>
<ellipse fill="none" stroke="#000000" cx="325.0016" cy="-3653.5291" rx="28.6953" ry="18"/>
<text text-anchor="middle" x="325.0016" y="-3649.8291" font-family="Times,serif" font-size="14.00" fill="#000000">7922</text>
</g>
<!-- 7016&#45;&gt;7922 -->
<g id="edge41" class="edge">
<title>7016&#45;&gt;7922</title>
<path fill="none" stroke="#000000" d="M366.3121,-3551.4387C358.3309,-3571.1628 345.3192,-3603.3184 336.0317,-3626.2706"/>
<polygon fill="#000000" stroke="#000000" points="332.6882,-3625.2026 332.1816,-3635.7854 339.1771,-3627.8284 332.6882,-3625.2026"/>
</g>
<!-- 7018&#45;&gt;3320 -->
<g id="edge42" class="edge">
<title>7018&#45;&gt;3320</title>
<path fill="none" stroke="#000000" d="M6630.5033,-415.672C6676.9699,-415.672 6768.853,-415.672 6821.2471,-415.672"/>
<polygon fill="#000000" stroke="#000000" points="6821.486,-419.1721 6831.4859,-415.672 6821.4859,-412.1721 6821.486,-419.1721"/>
</g>
<!-- 7473 -->
<g id="node30" class="node">
<title>7473</title>
<ellipse fill="none" stroke="#000000" cx="5735.3397" cy="-18" rx="28.6953" ry="18"/>
<text text-anchor="middle" x="5735.3397" y="-14.3" font-family="Times,serif" font-size="14.00" fill="#000000">7473</text>
</g>
<!-- 9498&#45;&gt;4637 -->
<g id="edge43" class="edge">
<title>9498&#45;&gt;4637</title>
<path fill="none" stroke="#000000" d="M5716.089,-163.1827C5698.1163,-173.4425 5672.123,-188.2811 5651.9626,-199.7897"/>
<polygon fill="#000000" stroke="#000000" points="5650.1094,-196.8175 5643.16,-204.8148 5653.5798,-202.8967 5650.1094,-196.8175"/>
</g>
<!-- 9498&#45;&gt;7473 -->
<g id="edge44" class="edge">
<title>9498&#45;&gt;7473</title>
<path fill="none" stroke="#000000" d="M5737.0224,-132.8551C5736.6943,-110.4565 5736.1339,-72.2107 5735.7507,-46.0547"/>
<polygon fill="#000000" stroke="#000000" points="5739.2497,-45.9527 5735.6035,-36.0051 5732.2504,-46.0553 5739.2497,-45.9527"/>
</g>
<!-- 10026 -->
<g id="node34" class="node">
<title>10026</title>
<ellipse fill="none" stroke="#000000" cx="5852.8763" cy="-217.0639" rx="32.4942" ry="18"/>
<text text-anchor="middle" x="5852.8763" y="-213.3639" font-family="Times,serif" font-size="14.00" fill="#000000">10026</text>
</g>
<!-- 9498&#45;&gt;10026 -->
<g id="edge45" class="edge">
<title>9498&#45;&gt;10026</title>
<path fill="none" stroke="#000000" d="M5758.4899,-163.1827C5776.1234,-173.249 5801.4779,-187.7228 5821.469,-199.1348"/>
<polygon fill="#000000" stroke="#000000" points="5819.8099,-202.2178 5830.2296,-204.1359 5823.2802,-196.1386 5819.8099,-202.2178"/>
</g>
<!-- 12956 -->
<g id="node37" class="node">
<title>12956</title>
<ellipse fill="none" stroke="#000000" cx="571.6954" cy="-1355.9536" rx="32.4942" ry="18"/>
<text text-anchor="middle" x="571.6954" y="-1352.2536" font-family="Times,serif" font-size="14.00" fill="#000000">12956</text>
</g>
<!-- 10834&#45;&gt;12956 -->
<g id="edge46" class="edge">
<title>10834&#45;&gt;12956</title>
<path fill="none" stroke="#000000" d="M571.6954,-564.3229C571.6954,-669.0699 571.6954,-1198.7082 571.6954,-1327.6324"/>
<polygon fill="#000000" stroke="#000000" points="568.1955,-1327.8635 571.6954,-1337.8636 575.1955,-1327.8636 568.1955,-1327.8635"/>
</g>
<!-- 22927 -->
<g id="node39" class="node">
<title>22927</title>
<ellipse fill="none" stroke="#000000" cx="166.8568" cy="-546.2764" rx="32.4942" ry="18"/>
<text text-anchor="middle" x="166.8568" y="-542.5764" font-family="Times,serif" font-size="14.00" fill="#000000">22927</text>
</g>
<!-- 10834&#45;&gt;22927 -->
<g id="edge47" class="edge">
<title>10834&#45;&gt;22927</title>
<path fill="none" stroke="#000000" d="M538.9087,-546.2764C466.1281,-546.2764 291.1018,-546.2764 209.757,-546.2764"/>
<polygon fill="#000000" stroke="#000000" points="209.3847,-542.7765 199.3847,-546.2764 209.3846,-549.7765 209.3847,-542.7765"/>
</g>
<!-- 12956&#45;&gt;3356 -->
<g id="edge48" class="edge">
<title>12956&#45;&gt;3356</title>
<path fill="none" stroke="#000000" d="M571.6954,-1374.1808C571.6954,-1396.5818 571.6954,-1434.8317 571.6954,-1460.9905"/>
<polygon fill="#000000" stroke="#000000" points="568.1955,-1461.0411 571.6954,-1471.0411 575.1955,-1461.0412 568.1955,-1461.0411"/>
</g>
<!-- 18540 -->
<g id="node38" class="node">
<title>18540</title>
<ellipse fill="none" stroke="#000000" cx="32.4971" cy="-2796.8853" rx="32.4942" ry="18"/>
<text text-anchor="middle" x="32.4971" y="-2793.1853" font-family="Times,serif" font-size="14.00" fill="#000000">18540</text>
</g>
<!-- 30070&#45;&gt;6904 -->
<g id="edge49" class="edge">
<title>30070&#45;&gt;6904</title>
<path fill="none" stroke="#000000" d="M596.7675,-3032.3914C615.0902,-3023.9983 640.1067,-3012.539 659.9992,-3003.4268"/>
<polygon fill="#000000" stroke="#000000" points="661.6672,-3006.5125 669.3011,-2999.1659 658.752,-3000.1484 661.6672,-3006.5125"/>
</g>
<!-- 30070&#45;&gt;7016 -->
<g id="edge50" class="edge">
<title>30070&#45;&gt;7016</title>
<path fill="none" stroke="#000000" d="M564.5231,-3061.6011C534.6807,-3135.3505 420.2375,-3418.1732 384.3157,-3506.9466"/>
<polygon fill="#000000" stroke="#000000" points="381.0283,-3505.7399 380.5217,-3516.3227 387.5172,-3508.3657 381.0283,-3505.7399"/>
</g>
<!-- 30070&#45;&gt;18540 -->
<g id="edge51" class="edge">
<title>30070&#45;&gt;18540</title>
<path fill="none" stroke="#000000" d="M546.412,-3032.2945C458.6726,-2992.1037 167.2232,-2858.5994 66.8315,-2812.6129"/>
<polygon fill="#000000" stroke="#000000" points="68.275,-2809.4245 57.7258,-2808.4419 65.3598,-2815.7885 68.275,-2809.4245"/>
</g>
</g>
</svg>
