<?xml version="1.0" encoding="UTF-8" standalone="no"?>
<!DOCTYPE svg PUBLIC "-//W3C//DTD SVG 1.1//EN"
 "http://www.w3.org/Graphics/SVG/1.1/DTD/svg11.dtd">
<!-- Generated by graphviz version 2.40.1 (20161225.0304)
 -->
<!-- Title: %3 Pages: 1 -->
<svg width="1413pt" height="1409pt"
 viewBox="0.00 0.00 1412.75 1409.30" xmlns="http://www.w3.org/2000/svg" xmlns:xlink="http://www.w3.org/1999/xlink">
<g id="graph0" class="graph" transform="scale(1 1) rotate(0) translate(4 1405.3006)">
<title>%3</title>
<polygon fill="#ffffff" stroke="transparent" points="-4,4 -4,-1405.3006 1408.7533,-1405.3006 1408.7533,4 -4,4"/>
<!-- 174 -->
<g id="node1" class="node">
<title>174</title>
<ellipse fill="none" stroke="#000000" cx="702.24" cy="-775.2382" rx="27" ry="18"/>
<text text-anchor="middle" x="702.24" y="-771.5382" font-family="Times,serif" font-size="14.00" fill="#000000">174</text>
</g>
<!-- 209 -->
<g id="node2" class="node">
<title>209</title>
<ellipse fill="none" stroke="#000000" cx="740.8195" cy="-836.0298" rx="27" ry="18"/>
<text text-anchor="middle" x="740.8195" y="-832.3298" font-family="Times,serif" font-size="14.00" fill="#000000">209</text>
</g>
<!-- 174&#45;&gt;209 -->
<g id="edge1" class="edge">
<title>174&#45;&gt;209</title>
<path fill="none" stroke="#000000" d="M712.782,-791.8498C716.5245,-797.747 720.8243,-804.5225 724.9146,-810.9677"/>
<polygon fill="#000000" stroke="#000000" points="721.9767,-812.8705 730.2902,-819.4383 727.887,-809.1196 721.9767,-812.8705"/>
</g>
<!-- 1299 -->
<g id="node7" class="node">
<title>1299</title>
<ellipse fill="none" stroke="#000000" cx="815.974" cy="-870.2482" rx="28.6953" ry="18"/>
<text text-anchor="middle" x="815.974" y="-866.5482" font-family="Times,serif" font-size="14.00" fill="#000000">1299</text>
</g>
<!-- 209&#45;&gt;1299 -->
<g id="edge2" class="edge">
<title>209&#45;&gt;1299</title>
<path fill="none" stroke="#000000" d="M763.3683,-846.2965C769.585,-849.1269 776.4586,-852.2566 783.13,-855.2941"/>
<polygon fill="#000000" stroke="#000000" points="782.1082,-858.6745 792.6596,-859.633 785.0089,-852.3038 782.1082,-858.6745"/>
</g>
<!-- 2828 -->
<g id="node12" class="node">
<title>2828</title>
<ellipse fill="none" stroke="#000000" cx="475.2552" cy="-935.2437" rx="28.6953" ry="18"/>
<text text-anchor="middle" x="475.2552" y="-931.5437" font-family="Times,serif" font-size="14.00" fill="#000000">2828</text>
</g>
<!-- 209&#45;&gt;2828 -->
<g id="edge3" class="edge">
<title>209&#45;&gt;2828</title>
<path fill="none" stroke="#000000" d="M717.2524,-844.8344C670.1684,-862.4248 564.2998,-901.977 509.5289,-922.4392"/>
<polygon fill="#000000" stroke="#000000" points="508.0651,-919.2498 499.9224,-926.0282 510.5149,-925.8071 508.0651,-919.2498"/>
</g>
<!-- 701 -->
<g id="node3" class="node">
<title>701</title>
<ellipse fill="none" stroke="#000000" cx="953.6576" cy="-1036.679" rx="27" ry="18"/>
<text text-anchor="middle" x="953.6576" y="-1032.979" font-family="Times,serif" font-size="14.00" fill="#000000">701</text>
</g>
<!-- 703 -->
<g id="node4" class="node">
<title>703</title>
<ellipse fill="none" stroke="#000000" cx="1154.3481" cy="-905.0398" rx="27" ry="18"/>
<text text-anchor="middle" x="1154.3481" y="-901.3398" font-family="Times,serif" font-size="14.00" fill="#000000">703</text>
</g>
<!-- 701&#45;&gt;703 -->
<g id="edge4" class="edge">
<title>701&#45;&gt;703</title>
<path fill="none" stroke="#000000" d="M973.266,-1023.8172C1009.1025,-1000.3109 1085.2694,-950.3507 1126.4787,-923.3202"/>
<polygon fill="#000000" stroke="#000000" points="1128.5135,-926.1713 1134.9555,-917.76 1124.6741,-920.3181 1128.5135,-926.1713"/>
</g>
<!-- 7018 -->
<g id="node29" class="node">
<title>7018</title>
<ellipse fill="none" stroke="#000000" cx="707.9245" cy="-1229.3855" rx="28.6953" ry="18"/>
<text text-anchor="middle" x="707.9245" y="-1225.6855" font-family="Times,serif" font-size="14.00" fill="#000000">7018</text>
</g>
<!-- 701&#45;&gt;7018 -->
<g id="edge5" class="edge">
<title>701&#45;&gt;7018</title>
<path fill="none" stroke="#000000" d="M935.9851,-1050.538C893.333,-1083.9862 784.5692,-1169.2799 734.2264,-1208.7593"/>
<polygon fill="#000000" stroke="#000000" points="731.809,-1206.2071 726.0998,-1215.1322 736.1286,-1211.7154 731.809,-1206.2071"/>
</g>
<!-- 2516 -->
<g id="node9" class="node">
<title>2516</title>
<ellipse fill="none" stroke="#000000" cx="1300.8239" cy="-683.1033" rx="28.6953" ry="18"/>
<text text-anchor="middle" x="1300.8239" y="-679.4033" font-family="Times,serif" font-size="14.00" fill="#000000">2516</text>
</g>
<!-- 703&#45;&gt;2516 -->
<g id="edge6" class="edge">
<title>703&#45;&gt;2516</title>
<path fill="none" stroke="#000000" d="M1165.3576,-888.3585C1190.8063,-849.7993 1253.8367,-754.2972 1284.0932,-708.4533"/>
<polygon fill="#000000" stroke="#000000" points="1287.0994,-710.2523 1289.6867,-699.9782 1281.2571,-706.3964 1287.0994,-710.2523"/>
</g>
<!-- 9498 -->
<g id="node32" class="node">
<title>9498</title>
<ellipse fill="none" stroke="#000000" cx="1168.9936" cy="-1016.0688" rx="28.6953" ry="18"/>
<text text-anchor="middle" x="1168.9936" y="-1012.3688" font-family="Times,serif" font-size="14.00" fill="#000000">9498</text>
</g>
<!-- 703&#45;&gt;9498 -->
<g id="edge7" class="edge">
<title>703&#45;&gt;9498</title>
<path fill="none" stroke="#000000" d="M1156.7665,-923.374C1159.0911,-940.9971 1162.6361,-967.8719 1165.3115,-988.1542"/>
<polygon fill="#000000" stroke="#000000" points="1161.8424,-988.6194 1166.6202,-998.0758 1168.7823,-987.7039 1161.8424,-988.6194"/>
</g>
<!-- 1239 -->
<g id="node5" class="node">
<title>1239</title>
<ellipse fill="none" stroke="#000000" cx="923.7186" cy="-1309.4864" rx="28.6953" ry="18"/>
<text text-anchor="middle" x="923.7186" y="-1305.7864" font-family="Times,serif" font-size="14.00" fill="#000000">1239</text>
</g>
<!-- 1273 -->
<g id="node6" class="node">
<title>1273</title>
<ellipse fill="none" stroke="#000000" cx="734.9074" cy="-1370.8349" rx="28.6953" ry="18"/>
<text text-anchor="middle" x="734.9074" y="-1367.1349" font-family="Times,serif" font-size="14.00" fill="#000000">1273</text>
</g>
<!-- 6461 -->
<g id="node25" class="node">
<title>6461</title>
<ellipse fill="none" stroke="#000000" cx="861.8685" cy="-925.7251" rx="28.6953" ry="18"/>
<text text-anchor="middle" x="861.8685" y="-922.0251" font-family="Times,serif" font-size="14.00" fill="#000000">6461</text>
</g>
<!-- 1299&#45;&gt;6461 -->
<g id="edge8" class="edge">
<title>1299&#45;&gt;6461</title>
<path fill="none" stroke="#000000" d="M829.2486,-886.2944C833.2097,-891.0825 837.6414,-896.4396 841.9305,-901.6242"/>
<polygon fill="#000000" stroke="#000000" points="839.3937,-904.0486 848.4648,-909.5228 844.7873,-899.5866 839.3937,-904.0486"/>
</g>
<!-- 2497 -->
<g id="node8" class="node">
<title>2497</title>
<ellipse fill="none" stroke="#000000" cx="907.7631" cy="-981.2021" rx="28.6953" ry="18"/>
<text text-anchor="middle" x="907.7631" y="-977.5021" font-family="Times,serif" font-size="14.00" fill="#000000">2497</text>
</g>
<!-- 2497&#45;&gt;701 -->
<g id="edge9" class="edge">
<title>2497&#45;&gt;701</title>
<path fill="none" stroke="#000000" d="M921.0377,-997.2483C925.0682,-1002.1204 929.5861,-1007.5816 933.9451,-1012.8508"/>
<polygon fill="#000000" stroke="#000000" points="931.5002,-1015.3863 940.5713,-1020.8604 936.8938,-1010.9243 931.5002,-1015.3863"/>
</g>
<!-- 32787 -->
<g id="node43" class="node">
<title>32787</title>
<ellipse fill="none" stroke="#000000" cx="1372.2562" cy="-692.1273" rx="32.4942" ry="18"/>
<text text-anchor="middle" x="1372.2562" y="-688.4273" font-family="Times,serif" font-size="14.00" fill="#000000">32787</text>
</g>
<!-- 2516&#45;&gt;32787 -->
<g id="edge10" class="edge">
<title>2516&#45;&gt;32787</title>
<path fill="none" stroke="#000000" d="M1329.0559,-686.6698C1329.5238,-686.729 1329.9936,-686.7883 1330.4648,-686.8478"/>
<polygon fill="#000000" stroke="#000000" points="1330.0971,-690.3291 1340.457,-688.1101 1330.9745,-683.3843 1330.0971,-690.3291"/>
</g>
<!-- 2686 -->
<g id="node10" class="node">
<title>2686</title>
<ellipse fill="none" stroke="#000000" cx="316.4447" cy="-1018.4047" rx="28.6953" ry="18"/>
<text text-anchor="middle" x="316.4447" y="-1014.7047" font-family="Times,serif" font-size="14.00" fill="#000000">2686</text>
</g>
<!-- 3741 -->
<g id="node20" class="node">
<title>3741</title>
<ellipse fill="none" stroke="#000000" cx="277.8651" cy="-1079.1963" rx="28.6953" ry="18"/>
<text text-anchor="middle" x="277.8651" y="-1075.4963" font-family="Times,serif" font-size="14.00" fill="#000000">3741</text>
</g>
<!-- 2686&#45;&gt;3741 -->
<g id="edge11" class="edge">
<title>2686&#45;&gt;3741</title>
<path fill="none" stroke="#000000" d="M305.6981,-1035.3385C302.1029,-1041.0036 298.0116,-1047.4505 294.0932,-1053.6249"/>
<polygon fill="#000000" stroke="#000000" points="290.9572,-1052.0345 288.554,-1062.3532 296.8675,-1055.7854 290.9572,-1052.0345"/>
</g>
<!-- 2687 -->
<g id="node11" class="node">
<title>2687</title>
<ellipse fill="none" stroke="#000000" cx="311.1342" cy="-925.7251" rx="28.6953" ry="18"/>
<text text-anchor="middle" x="311.1342" y="-922.0251" font-family="Times,serif" font-size="14.00" fill="#000000">2687</text>
</g>
<!-- 2687&#45;&gt;2686 -->
<g id="edge12" class="edge">
<title>2687&#45;&gt;2686</title>
<path fill="none" stroke="#000000" d="M312.1834,-944.0356C312.9325,-957.1102 313.9549,-974.9532 314.8105,-989.8844"/>
<polygon fill="#000000" stroke="#000000" points="311.3312,-990.3488 315.3977,-1000.1322 318.3198,-989.9483 311.3312,-990.3488"/>
</g>
<!-- 9505 -->
<g id="node33" class="node">
<title>9505</title>
<ellipse fill="none" stroke="#000000" cx="219.1012" cy="-937.8751" rx="28.6953" ry="18"/>
<text text-anchor="middle" x="219.1012" y="-934.1751" font-family="Times,serif" font-size="14.00" fill="#000000">9505</text>
</g>
<!-- 2687&#45;&gt;9505 -->
<g id="edge13" class="edge">
<title>2687&#45;&gt;9505</title>
<path fill="none" stroke="#000000" d="M283.0212,-929.4365C274.9788,-930.4983 266.0719,-931.6741 257.5246,-932.8026"/>
<polygon fill="#000000" stroke="#000000" points="256.815,-929.3658 247.3592,-934.1446 257.7313,-936.3056 256.815,-929.3658"/>
</g>
<!-- 2914 -->
<g id="node13" class="node">
<title>2914</title>
<ellipse fill="none" stroke="#000000" cx="547.9218" cy="-532.0718" rx="28.6953" ry="18"/>
<text text-anchor="middle" x="547.9218" y="-528.3718" font-family="Times,serif" font-size="14.00" fill="#000000">2914</text>
</g>
<!-- 6453 -->
<g id="node24" class="node">
<title>6453</title>
<ellipse fill="none" stroke="#000000" cx="586.5014" cy="-592.8634" rx="28.6953" ry="18"/>
<text text-anchor="middle" x="586.5014" y="-589.1634" font-family="Times,serif" font-size="14.00" fill="#000000">6453</text>
</g>
<!-- 2914&#45;&gt;6453 -->
<g id="edge14" class="edge">
<title>2914&#45;&gt;6453</title>
<path fill="none" stroke="#000000" d="M558.6684,-549.0056C562.2636,-554.6707 566.3549,-561.1176 570.2733,-567.292"/>
<polygon fill="#000000" stroke="#000000" points="567.499,-569.4525 575.8124,-576.0204 573.4093,-565.7017 567.499,-569.4525"/>
</g>
<!-- 3257 -->
<g id="node14" class="node">
<title>3257</title>
<ellipse fill="none" stroke="#000000" cx="625.0809" cy="-653.655" rx="28.6953" ry="18"/>
<text text-anchor="middle" x="625.0809" y="-649.955" font-family="Times,serif" font-size="14.00" fill="#000000">3257</text>
</g>
<!-- 3491 -->
<g id="node17" class="node">
<title>3491</title>
<ellipse fill="none" stroke="#000000" cx="663.6604" cy="-714.4466" rx="28.6953" ry="18"/>
<text text-anchor="middle" x="663.6604" y="-710.7466" font-family="Times,serif" font-size="14.00" fill="#000000">3491</text>
</g>
<!-- 3257&#45;&gt;3491 -->
<g id="edge15" class="edge">
<title>3257&#45;&gt;3491</title>
<path fill="none" stroke="#000000" d="M635.8274,-670.5889C639.4226,-676.2539 643.514,-682.7009 647.4323,-688.8752"/>
<polygon fill="#000000" stroke="#000000" points="644.658,-691.0357 652.9715,-697.6036 650.5683,-687.2849 644.658,-691.0357"/>
</g>
<!-- 3320 -->
<g id="node15" class="node">
<title>3320</title>
<ellipse fill="none" stroke="#000000" cx="721.4159" cy="-1300.1102" rx="28.6953" ry="18"/>
<text text-anchor="middle" x="721.4159" y="-1296.4102" font-family="Times,serif" font-size="14.00" fill="#000000">3320</text>
</g>
<!-- 3320&#45;&gt;1239 -->
<g id="edge16" class="edge">
<title>3320&#45;&gt;1239</title>
<path fill="none" stroke="#000000" d="M749.9719,-1301.4337C785.2652,-1303.0695 845.4801,-1305.8603 884.934,-1307.6889"/>
<polygon fill="#000000" stroke="#000000" points="884.8297,-1311.1877 894.981,-1308.1545 885.1538,-1304.1952 884.8297,-1311.1877"/>
</g>
<!-- 3320&#45;&gt;1273 -->
<g id="edge17" class="edge">
<title>3320&#45;&gt;1273</title>
<path fill="none" stroke="#000000" d="M724.8903,-1318.3236C726.3176,-1325.8058 728.0027,-1334.6394 729.5796,-1342.9056"/>
<polygon fill="#000000" stroke="#000000" points="726.1796,-1343.7611 731.4915,-1352.9281 733.0556,-1342.4494 726.1796,-1343.7611"/>
</g>
<!-- 5511 -->
<g id="node22" class="node">
<title>5511</title>
<ellipse fill="none" stroke="#000000" cx="536.7713" cy="-1383.3006" rx="28.6953" ry="18"/>
<text text-anchor="middle" x="536.7713" y="-1379.6006" font-family="Times,serif" font-size="14.00" fill="#000000">5511</text>
</g>
<!-- 3320&#45;&gt;5511 -->
<g id="edge18" class="edge">
<title>3320&#45;&gt;5511</title>
<path fill="none" stroke="#000000" d="M698.0305,-1310.6463C665.5159,-1325.2956 606.4972,-1351.886 569.5881,-1368.5152"/>
<polygon fill="#000000" stroke="#000000" points="567.9373,-1365.42 560.2577,-1372.7189 570.8128,-1371.8022 567.9373,-1365.42"/>
</g>
<!-- 3356 -->
<g id="node16" class="node">
<title>3356</title>
<ellipse fill="none" stroke="#000000" cx="568.4177" cy="-305.4317" rx="28.6953" ry="18"/>
<text text-anchor="middle" x="568.4177" y="-301.7317" font-family="Times,serif" font-size="14.00" fill="#000000">3356</text>
</g>
<!-- 3549 -->
<g id="node18" class="node">
<title>3549</title>
<ellipse fill="none" stroke="#000000" cx="470.7628" cy="-410.4886" rx="28.6953" ry="18"/>
<text text-anchor="middle" x="470.7628" y="-406.7886" font-family="Times,serif" font-size="14.00" fill="#000000">3549</text>
</g>
<!-- 3356&#45;&gt;3549 -->
<g id="edge19" class="edge">
<title>3356&#45;&gt;3549</title>
<path fill="none" stroke="#000000" d="M553.586,-321.3876C537.288,-338.9209 510.9582,-367.2465 492.367,-387.2468"/>
<polygon fill="#000000" stroke="#000000" points="489.6589,-385.0194 485.4141,-394.7268 494.786,-389.7853 489.6589,-385.0194"/>
</g>
<!-- 3491&#45;&gt;174 -->
<g id="edge20" class="edge">
<title>3491&#45;&gt;174</title>
<path fill="none" stroke="#000000" d="M674.407,-731.3805C678.0021,-737.0456 682.0935,-743.4925 686.0119,-749.6668"/>
<polygon fill="#000000" stroke="#000000" points="683.2376,-751.8273 691.551,-758.3952 689.1479,-748.0765 683.2376,-751.8273"/>
</g>
<!-- 6762 -->
<g id="node26" class="node">
<title>6762</title>
<ellipse fill="none" stroke="#000000" cx="509.3423" cy="-471.2802" rx="28.6953" ry="18"/>
<text text-anchor="middle" x="509.3423" y="-467.5802" font-family="Times,serif" font-size="14.00" fill="#000000">6762</text>
</g>
<!-- 3549&#45;&gt;6762 -->
<g id="edge21" class="edge">
<title>3549&#45;&gt;6762</title>
<path fill="none" stroke="#000000" d="M481.5093,-427.4224C485.1045,-433.0875 489.1958,-439.5344 493.1142,-445.7088"/>
<polygon fill="#000000" stroke="#000000" points="490.3399,-447.8693 498.6534,-454.4371 496.2502,-444.1184 490.3399,-447.8693"/>
</g>
<!-- 30070 -->
<g id="node42" class="node">
<title>30070</title>
<ellipse fill="none" stroke="#000000" cx="353.5045" cy="-762.1455" rx="32.4942" ry="18"/>
<text text-anchor="middle" x="353.5045" y="-758.4455" font-family="Times,serif" font-size="14.00" fill="#000000">30070</text>
</g>
<!-- 3549&#45;&gt;30070 -->
<g id="edge22" class="edge">
<title>3549&#45;&gt;30070</title>
<path fill="none" stroke="#000000" d="M464.7867,-428.4107C445.6542,-485.7891 385.8161,-665.2433 362.7238,-734.4968"/>
<polygon fill="#000000" stroke="#000000" points="359.3115,-733.6658 359.4685,-744.2594 365.9521,-735.8801 359.3115,-733.6658"/>
</g>
<!-- 3597 -->
<g id="node19" class="node">
<title>3597</title>
<ellipse fill="none" stroke="#000000" cx="28.5975" cy="-449.618" rx="28.6953" ry="18"/>
<text text-anchor="middle" x="28.5975" y="-445.918" font-family="Times,serif" font-size="14.00" fill="#000000">3597</text>
</g>
<!-- 37179 -->
<g id="node44" class="node">
<title>37179</title>
<ellipse fill="none" stroke="#000000" cx="239.2856" cy="-1139.9879" rx="32.4942" ry="18"/>
<text text-anchor="middle" x="239.2856" y="-1136.2879" font-family="Times,serif" font-size="14.00" fill="#000000">37179</text>
</g>
<!-- 3741&#45;&gt;37179 -->
<g id="edge23" class="edge">
<title>3741&#45;&gt;37179</title>
<path fill="none" stroke="#000000" d="M267.1186,-1096.1301C263.5833,-1101.7008 259.5683,-1108.0275 255.7098,-1114.1076"/>
<polygon fill="#000000" stroke="#000000" points="252.6457,-1112.4037 250.2426,-1122.7225 258.556,-1116.1546 252.6457,-1112.4037"/>
</g>
<!-- 4637 -->
<g id="node21" class="node">
<title>4637</title>
<ellipse fill="none" stroke="#000000" cx="1322.8843" cy="-884.418" rx="28.6953" ry="18"/>
<text text-anchor="middle" x="1322.8843" y="-880.718" font-family="Times,serif" font-size="14.00" fill="#000000">4637</text>
</g>
<!-- 5692 -->
<g id="node23" class="node">
<title>5692</title>
<ellipse fill="none" stroke="#000000" cx="618.1478" cy="-89.8579" rx="28.6953" ry="18"/>
<text text-anchor="middle" x="618.1478" y="-86.1579" font-family="Times,serif" font-size="14.00" fill="#000000">5692</text>
</g>
<!-- 5692&#45;&gt;3597 -->
<g id="edge24" class="edge">
<title>5692&#45;&gt;3597</title>
<path fill="none" stroke="#000000" d="M597.5111,-102.451C509.0809,-156.4136 161.9383,-368.2497 58.0958,-431.6173"/>
<polygon fill="#000000" stroke="#000000" points="56.0853,-428.7439 49.3723,-436.9406 59.7316,-434.7193 56.0853,-428.7439"/>
</g>
<!-- 10834 -->
<g id="node35" class="node">
<title>10834</title>
<ellipse fill="none" stroke="#000000" cx="559.3759" cy="-161.7158" rx="32.4942" ry="18"/>
<text text-anchor="middle" x="559.3759" y="-158.0158" font-family="Times,serif" font-size="14.00" fill="#000000">10834</text>
</g>
<!-- 5692&#45;&gt;10834 -->
<g id="edge25" class="edge">
<title>5692&#45;&gt;10834</title>
<path fill="none" stroke="#000000" d="M604.8115,-106.1636C597.3289,-115.3123 587.8436,-126.9096 579.4773,-137.1387"/>
<polygon fill="#000000" stroke="#000000" points="576.689,-135.0195 573.0672,-144.976 582.1075,-139.4512 576.689,-135.0195"/>
</g>
<!-- 11008 -->
<g id="node36" class="node">
<title>11008</title>
<ellipse fill="none" stroke="#000000" cx="81.7487" cy="-315.3733" rx="32.4942" ry="18"/>
<text text-anchor="middle" x="81.7487" y="-311.6733" font-family="Times,serif" font-size="14.00" fill="#000000">11008</text>
</g>
<!-- 5692&#45;&gt;11008 -->
<g id="edge26" class="edge">
<title>5692&#45;&gt;11008</title>
<path fill="none" stroke="#000000" d="M594.0578,-99.986C508.4357,-135.9836 218.5302,-257.867 117.1247,-300.5004"/>
<polygon fill="#000000" stroke="#000000" points="115.4978,-297.3875 107.6359,-304.4897 118.2108,-303.8404 115.4978,-297.3875"/>
</g>
<!-- 27865 -->
<g id="node40" class="node">
<title>27865</title>
<ellipse fill="none" stroke="#000000" cx="166.6154" cy="-198.5643" rx="32.4942" ry="18"/>
<text text-anchor="middle" x="166.6154" y="-194.8643" font-family="Times,serif" font-size="14.00" fill="#000000">27865</text>
</g>
<!-- 5692&#45;&gt;27865 -->
<g id="edge27" class="edge">
<title>5692&#45;&gt;27865</title>
<path fill="none" stroke="#000000" d="M591.2546,-96.3325C514.931,-114.7074 296.675,-167.2525 206.4214,-188.981"/>
<polygon fill="#000000" stroke="#000000" points="205.4752,-185.6087 196.5722,-191.3522 207.1137,-192.4142 205.4752,-185.6087"/>
</g>
<!-- 28065 -->
<g id="node41" class="node">
<title>28065</title>
<ellipse fill="none" stroke="#000000" cx="277.8651" cy="-106.5305" rx="32.4942" ry="18"/>
<text text-anchor="middle" x="277.8651" y="-102.8305" font-family="Times,serif" font-size="14.00" fill="#000000">28065</text>
</g>
<!-- 5692&#45;&gt;28065 -->
<g id="edge28" class="edge">
<title>5692&#45;&gt;28065</title>
<path fill="none" stroke="#000000" d="M589.4287,-91.2651C529.5332,-94.1997 391.0198,-100.9864 320.6131,-104.436"/>
<polygon fill="#000000" stroke="#000000" points="320.1452,-100.9547 310.3285,-104.9399 320.4878,-107.9463 320.1452,-100.9547"/>
</g>
<!-- 52317 -->
<g id="node45" class="node">
<title>52317</title>
<ellipse fill="none" stroke="#000000" cx="408.5076" cy="-45.0548" rx="32.4942" ry="18"/>
<text text-anchor="middle" x="408.5076" y="-41.3548" font-family="Times,serif" font-size="14.00" fill="#000000">52317</text>
</g>
<!-- 5692&#45;&gt;52317 -->
<g id="edge29" class="edge">
<title>5692&#45;&gt;52317</title>
<path fill="none" stroke="#000000" d="M590.741,-84.0007C554.5468,-76.2655 490.5295,-62.5841 448.8158,-53.6693"/>
<polygon fill="#000000" stroke="#000000" points="449.4912,-50.2347 438.9806,-51.5673 448.0282,-57.0801 449.4912,-50.2347"/>
</g>
<!-- 52375 -->
<g id="node46" class="node">
<title>52375</title>
<ellipse fill="none" stroke="#000000" cx="550.334" cy="-18" rx="32.4942" ry="18"/>
<text text-anchor="middle" x="550.334" y="-14.3" font-family="Times,serif" font-size="14.00" fill="#000000">52375</text>
</g>
<!-- 5692&#45;&gt;52375 -->
<g id="edge30" class="edge">
<title>5692&#45;&gt;52375</title>
<path fill="none" stroke="#000000" d="M603.4332,-74.2658C594.4056,-64.6998 582.6714,-52.2659 572.5305,-41.5202"/>
<polygon fill="#000000" stroke="#000000" points="574.8984,-38.9298 565.4894,-34.0592 569.8074,-43.7342 574.8984,-38.9298"/>
</g>
<!-- 52376 -->
<g id="node47" class="node">
<title>52376</title>
<ellipse fill="none" stroke="#000000" cx="694.433" cy="-27.0659" rx="32.4942" ry="18"/>
<text text-anchor="middle" x="694.433" y="-23.3659" font-family="Times,serif" font-size="14.00" fill="#000000">52376</text>
</g>
<!-- 5692&#45;&gt;52376 -->
<g id="edge31" class="edge">
<title>5692&#45;&gt;52376</title>
<path fill="none" stroke="#000000" d="M635.8409,-75.2944C645.4512,-67.3839 657.5205,-57.4494 668.2037,-48.6558"/>
<polygon fill="#000000" stroke="#000000" points="670.5429,-51.2636 676.0394,-42.2061 666.0942,-45.859 670.5429,-51.2636"/>
</g>
<!-- 52380 -->
<g id="node48" class="node">
<title>52380</title>
<ellipse fill="none" stroke="#000000" cx="831.7502" cy="-71.683" rx="32.4942" ry="18"/>
<text text-anchor="middle" x="831.7502" y="-67.983" font-family="Times,serif" font-size="14.00" fill="#000000">52380</text>
</g>
<!-- 5692&#45;&gt;52380 -->
<g id="edge32" class="edge">
<title>5692&#45;&gt;52380</title>
<path fill="none" stroke="#000000" d="M646.5125,-87.4444C683.1018,-84.3311 747.0644,-78.8887 789.416,-75.2851"/>
<polygon fill="#000000" stroke="#000000" points="789.7565,-78.7689 799.4237,-74.4336 789.163,-71.7941 789.7565,-78.7689"/>
</g>
<!-- 52413 -->
<g id="node49" class="node">
<title>52413</title>
<ellipse fill="none" stroke="#000000" cx="953.6576" cy="-149.0478" rx="32.4942" ry="18"/>
<text text-anchor="middle" x="953.6576" y="-145.3478" font-family="Times,serif" font-size="14.00" fill="#000000">52413</text>
</g>
<!-- 5692&#45;&gt;52413 -->
<g id="edge33" class="edge">
<title>5692&#45;&gt;52413</title>
<path fill="none" stroke="#000000" d="M645.8894,-94.752C704.8763,-105.1584 843.0204,-129.5294 912.3848,-141.7665"/>
<polygon fill="#000000" stroke="#000000" points="912.0475,-145.261 922.5035,-143.5516 913.2637,-138.3674 912.0475,-145.261"/>
</g>
<!-- 52431 -->
<g id="node50" class="node">
<title>52431</title>
<ellipse fill="none" stroke="#000000" cx="1052.4952" cy="-254.2991" rx="32.4942" ry="18"/>
<text text-anchor="middle" x="1052.4952" y="-250.5991" font-family="Times,serif" font-size="14.00" fill="#000000">52431</text>
</g>
<!-- 5692&#45;&gt;52431 -->
<g id="edge34" class="edge">
<title>5692&#45;&gt;52431</title>
<path fill="none" stroke="#000000" d="M642.7447,-99.1702C715.4936,-126.7124 929.905,-207.8872 1016.0517,-240.5018"/>
<polygon fill="#000000" stroke="#000000" points="1014.8334,-243.783 1025.4248,-244.0504 1017.3119,-237.2364 1014.8334,-243.783"/>
</g>
<!-- 262230 -->
<g id="node51" class="node">
<title>262230</title>
<ellipse fill="none" stroke="#000000" cx="1122.0526" cy="-380.8237" rx="37.0935" ry="18"/>
<text text-anchor="middle" x="1122.0526" y="-377.1237" font-family="Times,serif" font-size="14.00" fill="#000000">262230</text>
</g>
<!-- 5692&#45;&gt;262230 -->
<g id="edge35" class="edge">
<title>5692&#45;&gt;262230</title>
<path fill="none" stroke="#000000" d="M639.4781,-102.1745C718.3387,-147.7104 993.7662,-306.7483 1089.1998,-361.8537"/>
<polygon fill="#000000" stroke="#000000" points="1087.7107,-365.0354 1098.1209,-367.0049 1091.2111,-358.9734 1087.7107,-365.0354"/>
</g>
<!-- 264608 -->
<g id="node52" class="node">
<title>264608</title>
<ellipse fill="none" stroke="#000000" cx="1157.9594" cy="-520.6715" rx="37.0935" ry="18"/>
<text text-anchor="middle" x="1157.9594" y="-516.9715" font-family="Times,serif" font-size="14.00" fill="#000000">264608</text>
</g>
<!-- 5692&#45;&gt;264608 -->
<g id="edge36" class="edge">
<title>5692&#45;&gt;264608</title>
<path fill="none" stroke="#000000" d="M636.1083,-104.1919C715.3982,-167.4717 1034.4046,-422.0647 1130.4582,-498.7233"/>
<polygon fill="#000000" stroke="#000000" points="1128.534,-501.6655 1138.5332,-505.1678 1132.9005,-496.1943 1128.534,-501.6655"/>
</g>
<!-- 6453&#45;&gt;3257 -->
<g id="edge37" class="edge">
<title>6453&#45;&gt;3257</title>
<path fill="none" stroke="#000000" d="M597.2479,-609.7972C600.8431,-615.4623 604.9344,-621.9092 608.8528,-628.0836"/>
<polygon fill="#000000" stroke="#000000" points="606.0785,-630.2441 614.392,-636.812 611.9888,-626.4933 606.0785,-630.2441"/>
</g>
<!-- 6461&#45;&gt;2497 -->
<g id="edge38" class="edge">
<title>6461&#45;&gt;2497</title>
<path fill="none" stroke="#000000" d="M875.1431,-941.7713C879.1042,-946.5595 883.536,-951.9165 887.825,-957.1011"/>
<polygon fill="#000000" stroke="#000000" points="885.2882,-959.5255 894.3593,-964.9997 890.6818,-955.0636 885.2882,-959.5255"/>
</g>
<!-- 6762&#45;&gt;2914 -->
<g id="edge39" class="edge">
<title>6762&#45;&gt;2914</title>
<path fill="none" stroke="#000000" d="M520.0889,-488.214C523.684,-493.8791 527.7754,-500.326 531.6937,-506.5004"/>
<polygon fill="#000000" stroke="#000000" points="528.9195,-508.6609 537.2329,-515.2287 534.8298,-504.91 528.9195,-508.6609"/>
</g>
<!-- 6904 -->
<g id="node27" class="node">
<title>6904</title>
<ellipse fill="none" stroke="#000000" cx="357.0287" cy="-870.2482" rx="28.6953" ry="18"/>
<text text-anchor="middle" x="357.0287" y="-866.5482" font-family="Times,serif" font-size="14.00" fill="#000000">6904</text>
</g>
<!-- 6904&#45;&gt;2687 -->
<g id="edge40" class="edge">
<title>6904&#45;&gt;2687</title>
<path fill="none" stroke="#000000" d="M343.7541,-886.2944C339.793,-891.0825 335.3613,-896.4396 331.0723,-901.6242"/>
<polygon fill="#000000" stroke="#000000" points="328.2154,-899.5866 324.538,-909.5228 333.609,-904.0486 328.2154,-899.5866"/>
</g>
<!-- 7016 -->
<g id="node28" class="node">
<title>7016</title>
<ellipse fill="none" stroke="#000000" cx="271.031" cy="-766.2947" rx="28.6953" ry="18"/>
<text text-anchor="middle" x="271.031" y="-762.5947" font-family="Times,serif" font-size="14.00" fill="#000000">7016</text>
</g>
<!-- 7922 -->
<g id="node31" class="node">
<title>7922</title>
<ellipse fill="none" stroke="#000000" cx="207.9369" cy="-800.981" rx="28.6953" ry="18"/>
<text text-anchor="middle" x="207.9369" y="-797.281" font-family="Times,serif" font-size="14.00" fill="#000000">7922</text>
</g>
<!-- 7016&#45;&gt;7922 -->
<g id="edge41" class="edge">
<title>7016&#45;&gt;7922</title>
<path fill="none" stroke="#000000" d="M249.3176,-778.2318C245.8086,-780.1608 242.1194,-782.189 238.4488,-784.2069"/>
<polygon fill="#000000" stroke="#000000" points="236.5535,-781.2548 229.4766,-789.1394 239.9258,-787.3889 236.5535,-781.2548"/>
</g>
<!-- 7018&#45;&gt;3320 -->
<g id="edge42" class="edge">
<title>7018&#45;&gt;3320</title>
<path fill="none" stroke="#000000" d="M711.3988,-1247.5989C712.8261,-1255.0811 714.5113,-1263.9148 716.0881,-1272.1809"/>
<polygon fill="#000000" stroke="#000000" points="712.6881,-1273.0364 718,-1282.2034 719.5641,-1271.7247 712.6881,-1273.0364"/>
</g>
<!-- 7473 -->
<g id="node30" class="node">
<title>7473</title>
<ellipse fill="none" stroke="#000000" cx="1227.2428" cy="-1058.3893" rx="28.6953" ry="18"/>
<text text-anchor="middle" x="1227.2428" y="-1054.6893" font-family="Times,serif" font-size="14.00" fill="#000000">7473</text>
</g>
<!-- 9498&#45;&gt;4637 -->
<g id="edge43" class="edge">
<title>9498&#45;&gt;4637</title>
<path fill="none" stroke="#000000" d="M1186.0506,-1001.4768C1213.205,-978.2467 1266.4015,-932.7381 1297.8695,-905.8178"/>
<polygon fill="#000000" stroke="#000000" points="1300.4274,-908.2356 1305.751,-899.0753 1295.8769,-902.9164 1300.4274,-908.2356"/>
</g>
<!-- 9498&#45;&gt;7473 -->
<g id="edge44" class="edge">
<title>9498&#45;&gt;7473</title>
<path fill="none" stroke="#000000" d="M1187.7446,-1029.6922C1191.6151,-1032.5042 1195.7666,-1035.5205 1199.8715,-1038.5029"/>
<polygon fill="#000000" stroke="#000000" points="1197.9795,-1041.4545 1208.127,-1044.5009 1202.0941,-1035.7914 1197.9795,-1041.4545"/>
</g>
<!-- 10026 -->
<g id="node34" class="node">
<title>10026</title>
<ellipse fill="none" stroke="#000000" cx="1091.3412" cy="-1203.1099" rx="32.4942" ry="18"/>
<text text-anchor="middle" x="1091.3412" y="-1199.4099" font-family="Times,serif" font-size="14.00" fill="#000000">10026</text>
</g>
<!-- 9498&#45;&gt;10026 -->
<g id="edge45" class="edge">
<title>9498&#45;&gt;10026</title>
<path fill="none" stroke="#000000" d="M1161.6882,-1033.6652C1148.1024,-1066.3894 1118.865,-1136.8133 1102.6873,-1175.7804"/>
<polygon fill="#000000" stroke="#000000" points="1099.2855,-1174.8463 1098.6837,-1185.424 1105.7505,-1177.5303 1099.2855,-1174.8463"/>
</g>
<!-- 12956 -->
<g id="node37" class="node">
<title>12956</title>
<ellipse fill="none" stroke="#000000" cx="563.8968" cy="-233.5738" rx="32.4942" ry="18"/>
<text text-anchor="middle" x="563.8968" y="-229.8738" font-family="Times,serif" font-size="14.00" fill="#000000">12956</text>
</g>
<!-- 10834&#45;&gt;12956 -->
<g id="edge46" class="edge">
<title>10834&#45;&gt;12956</title>
<path fill="none" stroke="#000000" d="M560.5167,-179.8486C561.0002,-187.5338 561.5751,-196.6724 562.1125,-205.2132"/>
<polygon fill="#000000" stroke="#000000" points="558.6195,-205.4364 562.7406,-215.1968 565.6057,-204.9968 558.6195,-205.4364"/>
</g>
<!-- 22927 -->
<g id="node39" class="node">
<title>22927</title>
<ellipse fill="none" stroke="#000000" cx="82.5014" cy="-592.8634" rx="32.4942" ry="18"/>
<text text-anchor="middle" x="82.5014" y="-589.1634" font-family="Times,serif" font-size="14.00" fill="#000000">22927</text>
</g>
<!-- 10834&#45;&gt;22927 -->
<g id="edge47" class="edge">
<title>10834&#45;&gt;22927</title>
<path fill="none" stroke="#000000" d="M542.1219,-177.3153C469.9761,-242.5432 192.2889,-493.6032 107.3381,-570.4082"/>
<polygon fill="#000000" stroke="#000000" points="104.8026,-567.9821 99.7321,-577.2849 109.4972,-573.1746 104.8026,-567.9821"/>
</g>
<!-- 12956&#45;&gt;3356 -->
<g id="edge48" class="edge">
<title>12956&#45;&gt;3356</title>
<path fill="none" stroke="#000000" d="M565.0376,-251.7066C565.5211,-259.3918 566.0961,-268.5303 566.6334,-277.0711"/>
<polygon fill="#000000" stroke="#000000" points="563.1404,-277.2943 567.2615,-287.0548 570.1266,-276.8547 563.1404,-277.2943"/>
</g>
<!-- 18540 -->
<g id="node38" class="node">
<title>18540</title>
<ellipse fill="none" stroke="#000000" cx="237.8114" cy="-682.3918" rx="32.4942" ry="18"/>
<text text-anchor="middle" x="237.8114" y="-678.6918" font-family="Times,serif" font-size="14.00" fill="#000000">18540</text>
</g>
<!-- 30070&#45;&gt;6904 -->
<g id="edge49" class="edge">
<title>30070&#45;&gt;6904</title>
<path fill="none" stroke="#000000" d="M354.1023,-780.4837C354.6524,-797.358 355.4766,-822.6378 356.1102,-842.0744"/>
<polygon fill="#000000" stroke="#000000" points="352.6156,-842.3002 356.4397,-852.1809 359.6119,-842.0721 352.6156,-842.3002"/>
</g>
<!-- 30070&#45;&gt;7016 -->
<g id="edge50" class="edge">
<title>30070&#45;&gt;7016</title>
<path fill="none" stroke="#000000" d="M320.9088,-763.7854C317.2871,-763.9676 313.5723,-764.1545 309.883,-764.3401"/>
<polygon fill="#000000" stroke="#000000" points="309.4634,-760.8567 299.652,-764.8548 309.8152,-767.8479 309.4634,-760.8567"/>
</g>
<!-- 30070&#45;&gt;18540 -->
<g id="edge51" class="edge">
<title>30070&#45;&gt;18540</title>
<path fill="none" stroke="#000000" d="M333.0872,-748.0708C314.6967,-735.3931 287.4611,-716.6181 266.8141,-702.3849"/>
<polygon fill="#000000" stroke="#000000" points="268.6335,-699.3882 258.4137,-696.5941 264.6605,-705.1515 268.6335,-699.3882"/>
</g>
</g>
</svg>
