<?xml version="1.0" encoding="UTF-8" standalone="no"?>
<!DOCTYPE svg PUBLIC "-//W3C//DTD SVG 1.1//EN"
 "http://www.w3.org/Graphics/SVG/1.1/DTD/svg11.dtd">
<!-- Generated by graphviz version 2.40.1 (20161225.0304)
 -->
<!-- Title: %3 Pages: 1 -->
<svg width="2161pt" height="2269pt"
 viewBox="0.00 0.00 2161.00 2269.00" xmlns="http://www.w3.org/2000/svg" xmlns:xlink="http://www.w3.org/1999/xlink">
<g id="graph0" class="graph" transform="scale(1 1) rotate(0) translate(4 2265)">
<title>%3</title>
<polygon fill="#ffffff" stroke="transparent" points="-4,4 -4,-2265 2157,-2265 2157,4 -4,4"/>
<!-- 174 -->
<g id="node1" class="node">
<title>174</title>
<ellipse fill="none" stroke="#000000" cx="1770.2655" cy="-608.7343" rx="27" ry="18"/>
<text text-anchor="middle" x="1770.2655" y="-605.0343" font-family="Times,serif" font-size="14.00" fill="#000000">174</text>
</g>
<!-- 209 -->
<g id="node2" class="node">
<title>209</title>
<ellipse fill="none" stroke="#000000" cx="1674.4251" cy="-503.3493" rx="27" ry="18"/>
<text text-anchor="middle" x="1674.4251" y="-499.6493" font-family="Times,serif" font-size="14.00" fill="#000000">209</text>
</g>
<!-- 174&#45;&gt;209 -->
<g id="edge1" class="edge">
<title>174&#45;&gt;209</title>
<path fill="none" stroke="#000000" d="M1756.1239,-593.1844C1740.1272,-575.5946 1713.9126,-546.7692 1695.5018,-526.5249"/>
<polygon fill="#000000" stroke="#000000" points="1697.9422,-524.0063 1688.6247,-518.963 1692.7635,-528.716 1697.9422,-524.0063"/>
</g>
<!-- 1299 -->
<g id="node8" class="node">
<title>1299</title>
<ellipse fill="none" stroke="#000000" cx="1558.1511" cy="-417.3645" rx="28.6953" ry="18"/>
<text text-anchor="middle" x="1558.1511" y="-413.6645" font-family="Times,serif" font-size="14.00" fill="#000000">1299</text>
</g>
<!-- 209&#45;&gt;1299 -->
<g id="edge2" class="edge">
<title>209&#45;&gt;1299</title>
<path fill="none" stroke="#000000" d="M1656.2573,-489.9142C1637.1987,-475.8203 1607.0329,-453.5127 1585.1796,-437.3521"/>
<polygon fill="#000000" stroke="#000000" points="1587.0832,-434.4067 1576.9618,-431.275 1582.9211,-440.035 1587.0832,-434.4067"/>
</g>
<!-- 701 -->
<g id="node3" class="node">
<title>701</title>
<ellipse fill="none" stroke="#000000" cx="1146.2388" cy="-399.2866" rx="27" ry="18"/>
<text text-anchor="middle" x="1146.2388" y="-395.5866" font-family="Times,serif" font-size="14.00" fill="#000000">701</text>
</g>
<!-- 703 -->
<g id="node4" class="node">
<title>703</title>
<ellipse fill="none" stroke="#000000" cx="958.7148" cy="-421.346" rx="27" ry="18"/>
<text text-anchor="middle" x="958.7148" y="-417.646" font-family="Times,serif" font-size="14.00" fill="#000000">703</text>
</g>
<!-- 701&#45;&gt;703 -->
<g id="edge3" class="edge">
<title>701&#45;&gt;703</title>
<path fill="none" stroke="#000000" d="M1119.3712,-402.4472C1086.9257,-406.2639 1032.181,-412.7038 995.7476,-416.9896"/>
<polygon fill="#000000" stroke="#000000" points="995.0552,-413.5468 985.5326,-418.1913 995.8731,-420.4989 995.0552,-413.5468"/>
</g>
<!-- 7018 -->
<g id="node35" class="node">
<title>7018</title>
<ellipse fill="none" stroke="#000000" cx="1321.4045" cy="-403.2467" rx="28.6953" ry="18"/>
<text text-anchor="middle" x="1321.4045" y="-399.5467" font-family="Times,serif" font-size="14.00" fill="#000000">7018</text>
</g>
<!-- 701&#45;&gt;7018 -->
<g id="edge4" class="edge">
<title>701&#45;&gt;7018</title>
<path fill="none" stroke="#000000" d="M1173.2245,-399.8967C1202.4073,-400.5565 1249.1954,-401.6143 1282.3821,-402.3645"/>
<polygon fill="#000000" stroke="#000000" points="1282.563,-405.8694 1292.6396,-402.5964 1282.7213,-398.8712 1282.563,-405.8694"/>
</g>
<!-- 2516 -->
<g id="node10" class="node">
<title>2516</title>
<ellipse fill="none" stroke="#000000" cx="788.9473" cy="-380.7568" rx="28.6953" ry="18"/>
<text text-anchor="middle" x="788.9473" y="-377.0568" font-family="Times,serif" font-size="14.00" fill="#000000">2516</text>
</g>
<!-- 703&#45;&gt;2516 -->
<g id="edge5" class="edge">
<title>703&#45;&gt;2516</title>
<path fill="none" stroke="#000000" d="M933.2989,-415.2694C904.8371,-408.4645 858.4493,-397.3738 825.9613,-389.6064"/>
<polygon fill="#000000" stroke="#000000" points="826.4818,-386.1322 815.942,-387.2109 824.854,-392.9404 826.4818,-386.1322"/>
</g>
<!-- 9498 -->
<g id="node40" class="node">
<title>9498</title>
<ellipse fill="none" stroke="#000000" cx="858.1384" cy="-534.0799" rx="28.6953" ry="18"/>
<text text-anchor="middle" x="858.1384" y="-530.3799" font-family="Times,serif" font-size="14.00" fill="#000000">9498</text>
</g>
<!-- 703&#45;&gt;9498 -->
<g id="edge6" class="edge">
<title>703&#45;&gt;9498</title>
<path fill="none" stroke="#000000" d="M944.7301,-437.0211C927.7125,-456.0958 898.8186,-488.4824 879.1277,-510.5534"/>
<polygon fill="#000000" stroke="#000000" points="876.3742,-508.3824 872.3286,-518.1744 881.5976,-513.0425 876.3742,-508.3824"/>
</g>
<!-- 1221 -->
<g id="node5" class="node">
<title>1221</title>
<ellipse fill="none" stroke="#000000" cx="243.7871" cy="-173.3065" rx="28.6953" ry="18"/>
<text text-anchor="middle" x="243.7871" y="-169.6065" font-family="Times,serif" font-size="14.00" fill="#000000">1221</text>
</g>
<!-- 1239 -->
<g id="node6" class="node">
<title>1239</title>
<ellipse fill="none" stroke="#000000" cx="1772.8918" cy="-226.0218" rx="28.6953" ry="18"/>
<text text-anchor="middle" x="1772.8918" y="-222.3218" font-family="Times,serif" font-size="14.00" fill="#000000">1239</text>
</g>
<!-- 5511 -->
<g id="node27" class="node">
<title>5511</title>
<ellipse fill="none" stroke="#000000" cx="1883.5731" cy="-211.3685" rx="28.6953" ry="18"/>
<text text-anchor="middle" x="1883.5731" y="-207.6685" font-family="Times,serif" font-size="14.00" fill="#000000">5511</text>
</g>
<!-- 1239&#45;&gt;5511 -->
<g id="edge7" class="edge">
<title>1239&#45;&gt;5511</title>
<path fill="none" stroke="#000000" d="M1801.1077,-222.2862C1814.5076,-220.5122 1830.7262,-218.365 1845.2225,-216.4458"/>
<polygon fill="#000000" stroke="#000000" points="1845.9545,-219.8795 1855.4086,-215.0972 1845.0358,-212.9401 1845.9545,-219.8795"/>
</g>
<!-- 17676 -->
<g id="node49" class="node">
<title>17676</title>
<ellipse fill="none" stroke="#000000" cx="1898.3872" cy="-147.5807" rx="32.4942" ry="18"/>
<text text-anchor="middle" x="1898.3872" y="-143.8807" font-family="Times,serif" font-size="14.00" fill="#000000">17676</text>
</g>
<!-- 1239&#45;&gt;17676 -->
<g id="edge8" class="edge">
<title>1239&#45;&gt;17676</title>
<path fill="none" stroke="#000000" d="M1793.3341,-213.2443C1813.5681,-200.597 1844.7879,-181.083 1867.9407,-166.6114"/>
<polygon fill="#000000" stroke="#000000" points="1870.0652,-169.411 1876.6898,-161.1427 1866.3549,-163.4751 1870.0652,-169.411"/>
</g>
<!-- 1273 -->
<g id="node7" class="node">
<title>1273</title>
<ellipse fill="none" stroke="#000000" cx="1630.9146" cy="-292.4916" rx="28.6953" ry="18"/>
<text text-anchor="middle" x="1630.9146" y="-288.7916" font-family="Times,serif" font-size="14.00" fill="#000000">1273</text>
</g>
<!-- 1273&#45;&gt;1239 -->
<g id="edge9" class="edge">
<title>1273&#45;&gt;1239</title>
<path fill="none" stroke="#000000" d="M1654.0417,-281.6641C1677.5555,-270.6556 1714.1832,-253.5075 1740.5627,-241.1573"/>
<polygon fill="#000000" stroke="#000000" points="1742.202,-244.2545 1749.7746,-236.8446 1739.2339,-237.9149 1742.202,-244.2545"/>
</g>
<!-- 6461 -->
<g id="node30" class="node">
<title>6461</title>
<ellipse fill="none" stroke="#000000" cx="1419.8456" cy="-370.9201" rx="28.6953" ry="18"/>
<text text-anchor="middle" x="1419.8456" y="-367.2201" font-family="Times,serif" font-size="14.00" fill="#000000">6461</text>
</g>
<!-- 1299&#45;&gt;6461 -->
<g id="edge10" class="edge">
<title>1299&#45;&gt;6461</title>
<path fill="none" stroke="#000000" d="M1532.7838,-408.8459C1510.9879,-401.5266 1479.3338,-390.8969 1455.0792,-382.7519"/>
<polygon fill="#000000" stroke="#000000" points="1456.1145,-379.4076 1445.5205,-379.542 1453.886,-386.0434 1456.1145,-379.4076"/>
</g>
<!-- 2497 -->
<g id="node9" class="node">
<title>2497</title>
<ellipse fill="none" stroke="#000000" cx="1277.3656" cy="-359.115" rx="28.6953" ry="18"/>
<text text-anchor="middle" x="1277.3656" y="-355.415" font-family="Times,serif" font-size="14.00" fill="#000000">2497</text>
</g>
<!-- 2497&#45;&gt;701 -->
<g id="edge11" class="edge">
<title>2497&#45;&gt;701</title>
<path fill="none" stroke="#000000" d="M1251.4592,-367.0517C1231.2651,-373.2382 1203.0309,-381.888 1180.8932,-388.67"/>
<polygon fill="#000000" stroke="#000000" points="1179.7378,-385.3633 1171.2017,-391.6391 1181.7883,-392.0563 1179.7378,-385.3633"/>
</g>
<!-- 32787 -->
<g id="node55" class="node">
<title>32787</title>
<ellipse fill="none" stroke="#000000" cx="612.9828" cy="-347.9978" rx="32.4942" ry="18"/>
<text text-anchor="middle" x="612.9828" y="-344.2978" font-family="Times,serif" font-size="14.00" fill="#000000">32787</text>
</g>
<!-- 2516&#45;&gt;32787 -->
<g id="edge12" class="edge">
<title>2516&#45;&gt;32787</title>
<path fill="none" stroke="#000000" d="M761.4529,-375.6382C732.67,-370.2798 687.1474,-361.8049 654.092,-355.651"/>
<polygon fill="#000000" stroke="#000000" points="654.3066,-352.1309 643.8349,-353.7415 653.0253,-359.0127 654.3066,-352.1309"/>
</g>
<!-- 2686 -->
<g id="node11" class="node">
<title>2686</title>
<ellipse fill="none" stroke="#000000" cx="1359.996" cy="-1218.6166" rx="28.6953" ry="18"/>
<text text-anchor="middle" x="1359.996" y="-1214.9166" font-family="Times,serif" font-size="14.00" fill="#000000">2686</text>
</g>
<!-- 3741 -->
<g id="node22" class="node">
<title>3741</title>
<ellipse fill="none" stroke="#000000" cx="1297.6312" cy="-1117.391" rx="28.6953" ry="18"/>
<text text-anchor="middle" x="1297.6312" y="-1113.691" font-family="Times,serif" font-size="14.00" fill="#000000">3741</text>
</g>
<!-- 2686&#45;&gt;3741 -->
<g id="edge13" class="edge">
<title>2686&#45;&gt;3741</title>
<path fill="none" stroke="#000000" d="M1349.4167,-1201.445C1339.5466,-1185.4247 1324.6917,-1161.3135 1313.4195,-1143.0173"/>
<polygon fill="#000000" stroke="#000000" points="1316.2796,-1140.9869 1308.0543,-1134.3089 1310.3199,-1144.6587 1316.2796,-1140.9869"/>
</g>
<!-- 2687 -->
<g id="node12" class="node">
<title>2687</title>
<ellipse fill="none" stroke="#000000" cx="1434.546" cy="-1319.1229" rx="28.6953" ry="18"/>
<text text-anchor="middle" x="1434.546" y="-1315.4229" font-family="Times,serif" font-size="14.00" fill="#000000">2687</text>
</g>
<!-- 2687&#45;&gt;2686 -->
<g id="edge14" class="edge">
<title>2687&#45;&gt;2686</title>
<path fill="none" stroke="#000000" d="M1422.2356,-1302.5264C1410.3651,-1286.5229 1392.2433,-1262.0915 1378.6099,-1243.7113"/>
<polygon fill="#000000" stroke="#000000" points="1381.0934,-1241.1844 1372.3247,-1235.2378 1375.4711,-1245.3547 1381.0934,-1241.1844"/>
</g>
<!-- 9505 -->
<g id="node41" class="node">
<title>9505</title>
<ellipse fill="none" stroke="#000000" cx="1324.7572" cy="-1341.1766" rx="28.6953" ry="18"/>
<text text-anchor="middle" x="1324.7572" y="-1337.4766" font-family="Times,serif" font-size="14.00" fill="#000000">9505</text>
</g>
<!-- 2687&#45;&gt;9505 -->
<g id="edge15" class="edge">
<title>2687&#45;&gt;9505</title>
<path fill="none" stroke="#000000" d="M1407.1249,-1324.6311C1393.5013,-1327.3677 1376.836,-1330.7153 1362.0688,-1333.6817"/>
<polygon fill="#000000" stroke="#000000" points="1361.3241,-1330.2613 1352.2093,-1335.6622 1362.7027,-1337.1242 1361.3241,-1330.2613"/>
</g>
<!-- 2764 -->
<g id="node13" class="node">
<title>2764</title>
<ellipse fill="none" stroke="#000000" cx="437.7606" cy="-336.7288" rx="28.6953" ry="18"/>
<text text-anchor="middle" x="437.7606" y="-333.0288" font-family="Times,serif" font-size="14.00" fill="#000000">2764</text>
</g>
<!-- 7545 -->
<g id="node38" class="node">
<title>7545</title>
<ellipse fill="none" stroke="#000000" cx="286.7805" cy="-381.3256" rx="28.6953" ry="18"/>
<text text-anchor="middle" x="286.7805" y="-377.6256" font-family="Times,serif" font-size="14.00" fill="#000000">7545</text>
</g>
<!-- 2764&#45;&gt;7545 -->
<g id="edge16" class="edge">
<title>2764&#45;&gt;7545</title>
<path fill="none" stroke="#000000" d="M411.8062,-344.3953C387.1767,-351.6704 349.952,-362.6659 322.5225,-370.7681"/>
<polygon fill="#000000" stroke="#000000" points="321.5003,-367.4204 312.9015,-373.6099 323.4834,-374.1337 321.5003,-367.4204"/>
</g>
<!-- 38333 -->
<g id="node57" class="node">
<title>38333</title>
<ellipse fill="none" stroke="#000000" cx="332.724" cy="-256.1082" rx="32.4942" ry="18"/>
<text text-anchor="middle" x="332.724" y="-252.4082" font-family="Times,serif" font-size="14.00" fill="#000000">38333</text>
</g>
<!-- 2764&#45;&gt;38333 -->
<g id="edge17" class="edge">
<title>2764&#45;&gt;38333</title>
<path fill="none" stroke="#000000" d="M419.4646,-322.6858C403.0521,-310.0884 378.7417,-291.429 360.0297,-277.0667"/>
<polygon fill="#000000" stroke="#000000" points="361.9386,-274.1197 351.8748,-270.8074 357.6764,-279.6726 361.9386,-274.1197"/>
</g>
<!-- 38561 -->
<g id="node58" class="node">
<title>38561</title>
<ellipse fill="none" stroke="#000000" cx="407.3213" cy="-226.9339" rx="32.4942" ry="18"/>
<text text-anchor="middle" x="407.3213" y="-223.2339" font-family="Times,serif" font-size="14.00" fill="#000000">38561</text>
</g>
<!-- 2764&#45;&gt;38561 -->
<g id="edge18" class="edge">
<title>2764&#45;&gt;38561</title>
<path fill="none" stroke="#000000" d="M432.7341,-318.5984C427.9026,-301.1712 420.5348,-274.5951 414.9742,-254.5382"/>
<polygon fill="#000000" stroke="#000000" points="418.2986,-253.4283 412.2542,-244.7269 411.5531,-255.2985 418.2986,-253.4283"/>
</g>
<!-- 2828 -->
<g id="node14" class="node">
<title>2828</title>
<ellipse fill="none" stroke="#000000" cx="761.3395" cy="-749.9676" rx="28.6953" ry="18"/>
<text text-anchor="middle" x="761.3395" y="-746.2676" font-family="Times,serif" font-size="14.00" fill="#000000">2828</text>
</g>
<!-- 2914 -->
<g id="node15" class="node">
<title>2914</title>
<ellipse fill="none" stroke="#000000" cx="1896.6654" cy="-1166.9001" rx="28.6953" ry="18"/>
<text text-anchor="middle" x="1896.6654" y="-1163.2001" font-family="Times,serif" font-size="14.00" fill="#000000">2914</text>
</g>
<!-- 6453 -->
<g id="node29" class="node">
<title>6453</title>
<ellipse fill="none" stroke="#000000" cx="1905.5083" cy="-1017.4867" rx="28.6953" ry="18"/>
<text text-anchor="middle" x="1905.5083" y="-1013.7867" font-family="Times,serif" font-size="14.00" fill="#000000">6453</text>
</g>
<!-- 2914&#45;&gt;6453 -->
<g id="edge19" class="edge">
<title>2914&#45;&gt;6453</title>
<path fill="none" stroke="#000000" d="M1897.7321,-1148.8773C1899.2458,-1123.3004 1902.0323,-1076.2195 1903.8261,-1045.9102"/>
<polygon fill="#000000" stroke="#000000" points="1907.3409,-1045.7627 1904.4379,-1035.5733 1900.3531,-1045.3491 1907.3409,-1045.7627"/>
</g>
<!-- 3257 -->
<g id="node16" class="node">
<title>3257</title>
<ellipse fill="none" stroke="#000000" cx="1888.4869" cy="-871.3599" rx="28.6953" ry="18"/>
<text text-anchor="middle" x="1888.4869" y="-867.6599" font-family="Times,serif" font-size="14.00" fill="#000000">3257</text>
</g>
<!-- 3491 -->
<g id="node19" class="node">
<title>3491</title>
<ellipse fill="none" stroke="#000000" cx="1842.8698" cy="-732.9237" rx="28.6953" ry="18"/>
<text text-anchor="middle" x="1842.8698" y="-729.2237" font-family="Times,serif" font-size="14.00" fill="#000000">3491</text>
</g>
<!-- 3257&#45;&gt;3491 -->
<g id="edge20" class="edge">
<title>3257&#45;&gt;3491</title>
<path fill="none" stroke="#000000" d="M1882.6166,-853.5452C1874.8498,-829.9749 1861.0798,-788.1864 1851.962,-760.5162"/>
<polygon fill="#000000" stroke="#000000" points="1855.1714,-759.0723 1848.7175,-750.6701 1848.5231,-761.2631 1855.1714,-759.0723"/>
</g>
<!-- 3320 -->
<g id="node17" class="node">
<title>3320</title>
<ellipse fill="none" stroke="#000000" cx="1485.1992" cy="-363.6272" rx="28.6953" ry="18"/>
<text text-anchor="middle" x="1485.1992" y="-359.9272" font-family="Times,serif" font-size="14.00" fill="#000000">3320</text>
</g>
<!-- 3320&#45;&gt;1273 -->
<g id="edge21" class="edge">
<title>3320&#45;&gt;1273</title>
<path fill="none" stroke="#000000" d="M1507.9673,-352.5123C1532.455,-340.5578 1571.5747,-321.4603 1599.0978,-308.024"/>
<polygon fill="#000000" stroke="#000000" points="1600.8556,-311.0608 1608.3065,-303.5285 1597.7846,-304.7703 1600.8556,-311.0608"/>
</g>
<!-- 3356 -->
<g id="node18" class="node">
<title>3356</title>
<ellipse fill="none" stroke="#000000" cx="1860.3516" cy="-1620.0451" rx="28.6953" ry="18"/>
<text text-anchor="middle" x="1860.3516" y="-1616.3451" font-family="Times,serif" font-size="14.00" fill="#000000">3356</text>
</g>
<!-- 3549 -->
<g id="node20" class="node">
<title>3549</title>
<ellipse fill="none" stroke="#000000" cx="1819.0553" cy="-1466.3572" rx="28.6953" ry="18"/>
<text text-anchor="middle" x="1819.0553" y="-1462.6572" font-family="Times,serif" font-size="14.00" fill="#000000">3549</text>
</g>
<!-- 3356&#45;&gt;3549 -->
<g id="edge22" class="edge">
<title>3356&#45;&gt;3549</title>
<path fill="none" stroke="#000000" d="M1855.5335,-1602.1143C1848.3843,-1575.508 1834.9076,-1525.3529 1826.4877,-1494.0177"/>
<polygon fill="#000000" stroke="#000000" points="1829.8178,-1492.9229 1823.8426,-1484.1737 1823.0576,-1494.7394 1829.8178,-1492.9229"/>
</g>
<!-- 3491&#45;&gt;174 -->
<g id="edge23" class="edge">
<title>3491&#45;&gt;174</title>
<path fill="none" stroke="#000000" d="M1832.9267,-715.9161C1820.5981,-694.8281 1799.4695,-658.6876 1785.1923,-634.2665"/>
<polygon fill="#000000" stroke="#000000" points="1788.1571,-632.403 1780.0885,-625.5365 1782.1141,-635.936 1788.1571,-632.403"/>
</g>
<!-- 6762 -->
<g id="node31" class="node">
<title>6762</title>
<ellipse fill="none" stroke="#000000" cx="1866.5273" cy="-1316.9713" rx="28.6953" ry="18"/>
<text text-anchor="middle" x="1866.5273" y="-1313.2713" font-family="Times,serif" font-size="14.00" fill="#000000">6762</text>
</g>
<!-- 3549&#45;&gt;6762 -->
<g id="edge24" class="edge">
<title>3549&#45;&gt;6762</title>
<path fill="none" stroke="#000000" d="M1824.6874,-1448.634C1832.8959,-1422.8034 1848.2162,-1374.5929 1857.8659,-1344.2271"/>
<polygon fill="#000000" stroke="#000000" points="1861.2095,-1345.2618 1860.9025,-1334.6714 1854.5383,-1343.1417 1861.2095,-1345.2618"/>
</g>
<!-- 30070 -->
<g id="node54" class="node">
<title>30070</title>
<ellipse fill="none" stroke="#000000" cx="1671.5809" cy="-1457.7441" rx="32.4942" ry="18"/>
<text text-anchor="middle" x="1671.5809" y="-1454.0441" font-family="Times,serif" font-size="14.00" fill="#000000">30070</text>
</g>
<!-- 3549&#45;&gt;30070 -->
<g id="edge25" class="edge">
<title>3549&#45;&gt;30070</title>
<path fill="none" stroke="#000000" d="M1790.2706,-1464.6761C1768.6336,-1463.4124 1738.6462,-1461.661 1714.2274,-1460.2348"/>
<polygon fill="#000000" stroke="#000000" points="1714.3309,-1456.735 1704.1438,-1459.6459 1713.9227,-1463.7231 1714.3309,-1456.735"/>
</g>
<!-- 3597 -->
<g id="node21" class="node">
<title>3597</title>
<ellipse fill="none" stroke="#000000" cx="1859.3829" cy="-2198.5087" rx="28.6953" ry="18"/>
<text text-anchor="middle" x="1859.3829" y="-2194.8087" font-family="Times,serif" font-size="14.00" fill="#000000">3597</text>
</g>
<!-- 37179 -->
<g id="node56" class="node">
<title>37179</title>
<ellipse fill="none" stroke="#000000" cx="1249.1027" cy="-1015.7371" rx="32.4942" ry="18"/>
<text text-anchor="middle" x="1249.1027" y="-1012.0371" font-family="Times,serif" font-size="14.00" fill="#000000">37179</text>
</g>
<!-- 3741&#45;&gt;37179 -->
<g id="edge26" class="edge">
<title>3741&#45;&gt;37179</title>
<path fill="none" stroke="#000000" d="M1289.399,-1100.1468C1281.8806,-1084.3977 1270.645,-1060.8622 1261.9463,-1042.6409"/>
<polygon fill="#000000" stroke="#000000" points="1265.0052,-1040.9241 1257.5384,-1033.4075 1258.6881,-1043.9398 1265.0052,-1040.9241"/>
</g>
<!-- 4635 -->
<g id="node23" class="node">
<title>4635</title>
<ellipse fill="none" stroke="#000000" cx="205.8201" cy="-463.2955" rx="28.6953" ry="18"/>
<text text-anchor="middle" x="205.8201" y="-459.5955" font-family="Times,serif" font-size="14.00" fill="#000000">4635</text>
</g>
<!-- 4637 -->
<g id="node24" class="node">
<title>4637</title>
<ellipse fill="none" stroke="#000000" cx="808.3244" cy="-645.8453" rx="28.6953" ry="18"/>
<text text-anchor="middle" x="808.3244" y="-642.1453" font-family="Times,serif" font-size="14.00" fill="#000000">4637</text>
</g>
<!-- 4637&#45;&gt;2828 -->
<g id="edge27" class="edge">
<title>4637&#45;&gt;2828</title>
<path fill="none" stroke="#000000" d="M800.3541,-663.5082C792.952,-679.9118 781.8287,-704.5619 773.3507,-723.3498"/>
<polygon fill="#000000" stroke="#000000" points="770.1151,-722.011 769.1921,-732.5656 776.4955,-724.8902 770.1151,-722.011"/>
</g>
<!-- 4739 -->
<g id="node25" class="node">
<title>4739</title>
<ellipse fill="none" stroke="#000000" cx="154.0196" cy="-410.2751" rx="28.6953" ry="18"/>
<text text-anchor="middle" x="154.0196" y="-406.5751" font-family="Times,serif" font-size="14.00" fill="#000000">4739</text>
</g>
<!-- 38880 -->
<g id="node59" class="node">
<title>38880</title>
<ellipse fill="none" stroke="#000000" cx="32.5478" cy="-433.4065" rx="32.4942" ry="18"/>
<text text-anchor="middle" x="32.5478" y="-429.7065" font-family="Times,serif" font-size="14.00" fill="#000000">38880</text>
</g>
<!-- 4739&#45;&gt;38880 -->
<g id="edge28" class="edge">
<title>4739&#45;&gt;38880</title>
<path fill="none" stroke="#000000" d="M126.4557,-415.524C110.7739,-418.5102 90.836,-422.3069 73.3691,-425.6331"/>
<polygon fill="#000000" stroke="#000000" points="72.5899,-422.2185 63.4212,-427.5274 73.8994,-429.0949 72.5899,-422.2185"/>
</g>
<!-- 4755 -->
<g id="node26" class="node">
<title>4755</title>
<ellipse fill="none" stroke="#000000" cx="629.9647" cy="-691.466" rx="28.6953" ry="18"/>
<text text-anchor="middle" x="629.9647" y="-687.766" font-family="Times,serif" font-size="14.00" fill="#000000">4755</text>
</g>
<!-- 9583 -->
<g id="node42" class="node">
<title>9583</title>
<ellipse fill="none" stroke="#000000" cx="540.2967" cy="-768.2123" rx="28.6953" ry="18"/>
<text text-anchor="middle" x="540.2967" y="-764.5123" font-family="Times,serif" font-size="14.00" fill="#000000">9583</text>
</g>
<!-- 4755&#45;&gt;9583 -->
<g id="edge29" class="edge">
<title>4755&#45;&gt;9583</title>
<path fill="none" stroke="#000000" d="M612.6758,-706.2635C599.2786,-717.7301 580.5238,-733.7821 565.4625,-746.6731"/>
<polygon fill="#000000" stroke="#000000" points="562.8539,-744.2987 557.5325,-753.4602 567.4057,-749.6168 562.8539,-744.2987"/>
</g>
<!-- 5692 -->
<g id="node28" class="node">
<title>5692</title>
<ellipse fill="none" stroke="#000000" cx="1933.4802" cy="-2112.0732" rx="28.6953" ry="18"/>
<text text-anchor="middle" x="1933.4802" y="-2108.3732" font-family="Times,serif" font-size="14.00" fill="#000000">5692</text>
</g>
<!-- 5692&#45;&gt;3597 -->
<g id="edge30" class="edge">
<title>5692&#45;&gt;3597</title>
<path fill="none" stroke="#000000" d="M1919.8896,-2127.9268C1908.6796,-2141.0035 1892.602,-2159.7582 1879.8371,-2174.6486"/>
<polygon fill="#000000" stroke="#000000" points="1876.9894,-2172.5928 1873.1382,-2182.4629 1882.3039,-2177.1487 1876.9894,-2172.5928"/>
</g>
<!-- 10834 -->
<g id="node45" class="node">
<title>10834</title>
<ellipse fill="none" stroke="#000000" cx="1906.6739" cy="-1947.8176" rx="32.4942" ry="18"/>
<text text-anchor="middle" x="1906.6739" y="-1944.1176" font-family="Times,serif" font-size="14.00" fill="#000000">10834</text>
</g>
<!-- 5692&#45;&gt;10834 -->
<g id="edge31" class="edge">
<title>5692&#45;&gt;10834</title>
<path fill="none" stroke="#000000" d="M1930.509,-2093.8674C1925.8595,-2065.3774 1916.8268,-2010.0296 1911.3144,-1976.2523"/>
<polygon fill="#000000" stroke="#000000" points="1914.7235,-1975.4106 1909.6584,-1966.1049 1907.8149,-1976.5381 1914.7235,-1975.4106"/>
</g>
<!-- 11008 -->
<g id="node46" class="node">
<title>11008</title>
<ellipse fill="none" stroke="#000000" cx="2040.4992" cy="-2053.566" rx="32.4942" ry="18"/>
<text text-anchor="middle" x="2040.4992" y="-2049.866" font-family="Times,serif" font-size="14.00" fill="#000000">11008</text>
</g>
<!-- 5692&#45;&gt;11008 -->
<g id="edge32" class="edge">
<title>5692&#45;&gt;11008</title>
<path fill="none" stroke="#000000" d="M1955.1371,-2100.2334C1970.2879,-2091.9504 1990.7954,-2080.739 2007.9125,-2071.3811"/>
<polygon fill="#000000" stroke="#000000" points="2009.9222,-2074.2714 2017.0176,-2066.4034 2006.5643,-2068.1293 2009.9222,-2074.2714"/>
</g>
<!-- 27865 -->
<g id="node52" class="node">
<title>27865</title>
<ellipse fill="none" stroke="#000000" cx="2029.2436" cy="-2188.288" rx="32.4942" ry="18"/>
<text text-anchor="middle" x="2029.2436" y="-2184.588" font-family="Times,serif" font-size="14.00" fill="#000000">27865</text>
</g>
<!-- 5692&#45;&gt;27865 -->
<g id="edge33" class="edge">
<title>5692&#45;&gt;27865</title>
<path fill="none" stroke="#000000" d="M1951.4926,-2126.4086C1965.8876,-2137.8651 1986.2796,-2154.0944 2002.5684,-2167.0581"/>
<polygon fill="#000000" stroke="#000000" points="2000.6548,-2170.0083 2010.6588,-2173.497 2005.0139,-2164.5312 2000.6548,-2170.0083"/>
</g>
<!-- 28065 -->
<g id="node53" class="node">
<title>28065</title>
<ellipse fill="none" stroke="#000000" cx="1827.2651" cy="-2073.9306" rx="32.4942" ry="18"/>
<text text-anchor="middle" x="1827.2651" y="-2070.2306" font-family="Times,serif" font-size="14.00" fill="#000000">28065</text>
</g>
<!-- 5692&#45;&gt;28065 -->
<g id="edge34" class="edge">
<title>5692&#45;&gt;28065</title>
<path fill="none" stroke="#000000" d="M1908.5775,-2103.1305C1895.4251,-2098.4074 1879.0214,-2092.5167 1864.3991,-2087.2657"/>
<polygon fill="#000000" stroke="#000000" points="1865.2169,-2083.8406 1854.6224,-2083.7548 1862.8511,-2090.4287 1865.2169,-2083.8406"/>
</g>
<!-- 52317 -->
<g id="node60" class="node">
<title>52317</title>
<ellipse fill="none" stroke="#000000" cx="1932.6896" cy="-2188.6425" rx="32.4942" ry="18"/>
<text text-anchor="middle" x="1932.6896" y="-2184.9425" font-family="Times,serif" font-size="14.00" fill="#000000">52317</text>
</g>
<!-- 5692&#45;&gt;52317 -->
<g id="edge35" class="edge">
<title>5692&#45;&gt;52317</title>
<path fill="none" stroke="#000000" d="M1933.2929,-2130.2191C1933.1993,-2139.278 1933.0841,-2150.44 1932.9795,-2160.5722"/>
<polygon fill="#000000" stroke="#000000" points="1929.4792,-2160.5912 1932.8756,-2170.6269 1936.4788,-2160.6636 1929.4792,-2160.5912"/>
</g>
<!-- 52375 -->
<g id="node61" class="node">
<title>52375</title>
<ellipse fill="none" stroke="#000000" cx="1823.0436" cy="-2117.9849" rx="32.4942" ry="18"/>
<text text-anchor="middle" x="1823.0436" y="-2114.2849" font-family="Times,serif" font-size="14.00" fill="#000000">52375</text>
</g>
<!-- 5692&#45;&gt;52375 -->
<g id="edge36" class="edge">
<title>5692&#45;&gt;52375</title>
<path fill="none" stroke="#000000" d="M1904.7526,-2113.611C1892.8514,-2114.2481 1878.7985,-2115.0003 1865.7335,-2115.6997"/>
<polygon fill="#000000" stroke="#000000" points="1865.3259,-2112.2164 1855.5274,-2116.246 1865.7002,-2119.2064 1865.3259,-2112.2164"/>
</g>
<!-- 52376 -->
<g id="node62" class="node">
<title>52376</title>
<ellipse fill="none" stroke="#000000" cx="1990.0218" cy="-2233.0197" rx="32.4942" ry="18"/>
<text text-anchor="middle" x="1990.0218" y="-2229.3197" font-family="Times,serif" font-size="14.00" fill="#000000">52376</text>
</g>
<!-- 5692&#45;&gt;52376 -->
<g id="edge37" class="edge">
<title>5692&#45;&gt;52376</title>
<path fill="none" stroke="#000000" d="M1941.5812,-2129.4019C1950.9328,-2149.4055 1966.4281,-2182.5511 1977.3717,-2205.9602"/>
<polygon fill="#000000" stroke="#000000" points="1974.3462,-2207.7531 1981.7519,-2215.3299 1980.6875,-2204.7886 1974.3462,-2207.7531"/>
</g>
<!-- 52380 -->
<g id="node63" class="node">
<title>52380</title>
<ellipse fill="none" stroke="#000000" cx="1986.1258" cy="-2008.4303" rx="32.4942" ry="18"/>
<text text-anchor="middle" x="1986.1258" y="-2004.7303" font-family="Times,serif" font-size="14.00" fill="#000000">52380</text>
</g>
<!-- 5692&#45;&gt;52380 -->
<g id="edge38" class="edge">
<title>5692&#45;&gt;52380</title>
<path fill="none" stroke="#000000" d="M1942.4108,-2094.4916C1950.6547,-2078.262 1963.0181,-2053.9223 1972.4955,-2035.2642"/>
<polygon fill="#000000" stroke="#000000" points="1975.7431,-2036.599 1977.1514,-2026.0982 1969.5021,-2033.4288 1975.7431,-2036.599"/>
</g>
<!-- 52413 -->
<g id="node64" class="node">
<title>52413</title>
<ellipse fill="none" stroke="#000000" cx="1789.9298" cy="-2162.1569" rx="32.4942" ry="18"/>
<text text-anchor="middle" x="1789.9298" y="-2158.4569" font-family="Times,serif" font-size="14.00" fill="#000000">52413</text>
</g>
<!-- 5692&#45;&gt;52413 -->
<g id="edge39" class="edge">
<title>5692&#45;&gt;52413</title>
<path fill="none" stroke="#000000" d="M1908.1467,-2120.9119C1885.6927,-2128.7459 1852.6119,-2140.2876 1827.1505,-2149.1709"/>
<polygon fill="#000000" stroke="#000000" points="1825.7453,-2145.9541 1817.4565,-2152.553 1828.0513,-2152.5634 1825.7453,-2145.9541"/>
</g>
<!-- 52431 -->
<g id="node65" class="node">
<title>52431</title>
<ellipse fill="none" stroke="#000000" cx="1916.7851" cy="-2242.6825" rx="32.4942" ry="18"/>
<text text-anchor="middle" x="1916.7851" y="-2238.9825" font-family="Times,serif" font-size="14.00" fill="#000000">52431</text>
</g>
<!-- 5692&#45;&gt;52431 -->
<g id="edge40" class="edge">
<title>5692&#45;&gt;52431</title>
<path fill="none" stroke="#000000" d="M1931.1588,-2130.2339C1928.3679,-2152.068 1923.6525,-2188.9571 1920.3874,-2214.5005"/>
<polygon fill="#000000" stroke="#000000" points="1916.883,-2214.313 1919.0868,-2224.6761 1923.8265,-2215.2006 1916.883,-2214.313"/>
</g>
<!-- 262230 -->
<g id="node66" class="node">
<title>262230</title>
<ellipse fill="none" stroke="#000000" cx="2064.0522" cy="-2099.1468" rx="37.0935" ry="18"/>
<text text-anchor="middle" x="2064.0522" y="-2095.4468" font-family="Times,serif" font-size="14.00" fill="#000000">262230</text>
</g>
<!-- 5692&#45;&gt;262230 -->
<g id="edge41" class="edge">
<title>5692&#45;&gt;262230</title>
<path fill="none" stroke="#000000" d="M1961.8124,-2109.2684C1978.0134,-2107.6645 1998.7413,-2105.6125 2017.2931,-2103.7759"/>
<polygon fill="#000000" stroke="#000000" points="2017.7267,-2107.2501 2027.3332,-2102.7819 2017.037,-2100.2842 2017.7267,-2107.2501"/>
</g>
<!-- 264608 -->
<g id="node67" class="node">
<title>264608</title>
<ellipse fill="none" stroke="#000000" cx="2061.3374" cy="-2143.7585" rx="37.0935" ry="18"/>
<text text-anchor="middle" x="2061.3374" y="-2140.0585" font-family="Times,serif" font-size="14.00" fill="#000000">264608</text>
</g>
<!-- 5692&#45;&gt;264608 -->
<g id="edge42" class="edge">
<title>5692&#45;&gt;264608</title>
<path fill="none" stroke="#000000" d="M1960.2833,-2118.7155C1977.1196,-2122.8878 1999.2133,-2128.3631 2018.4473,-2133.1296"/>
<polygon fill="#000000" stroke="#000000" points="2017.6535,-2136.5387 2028.2018,-2135.5469 2019.3373,-2129.7442 2017.6535,-2136.5387"/>
</g>
<!-- 6453&#45;&gt;3257 -->
<g id="edge43" class="edge">
<title>6453&#45;&gt;3257</title>
<path fill="none" stroke="#000000" d="M1903.387,-999.2751C1900.4661,-974.1997 1895.179,-928.8113 1891.7521,-899.3913"/>
<polygon fill="#000000" stroke="#000000" points="1895.2151,-898.8699 1890.5815,-889.342 1888.2621,-899.6798 1895.2151,-898.8699"/>
</g>
<!-- 6461&#45;&gt;2497 -->
<g id="edge44" class="edge">
<title>6461&#45;&gt;2497</title>
<path fill="none" stroke="#000000" d="M1391.3551,-368.5596C1369.7083,-366.766 1339.7051,-364.2801 1315.9136,-362.3089"/>
<polygon fill="#000000" stroke="#000000" points="1316.0616,-358.8093 1305.8067,-361.4715 1315.4835,-365.7854 1316.0616,-358.8093"/>
</g>
<!-- 6762&#45;&gt;2914 -->
<g id="edge45" class="edge">
<title>6762&#45;&gt;2914</title>
<path fill="none" stroke="#000000" d="M1870.1627,-1298.8692C1875.3444,-1273.067 1884.9018,-1225.4763 1891.0124,-1195.0492"/>
<polygon fill="#000000" stroke="#000000" points="1894.4796,-1195.5598 1893.0172,-1185.0664 1887.6166,-1194.1815 1894.4796,-1195.5598"/>
</g>
<!-- 6904 -->
<g id="node32" class="node">
<title>6904</title>
<ellipse fill="none" stroke="#000000" cx="1551.062" cy="-1385.7998" rx="28.6953" ry="18"/>
<text text-anchor="middle" x="1551.062" y="-1382.0998" font-family="Times,serif" font-size="14.00" fill="#000000">6904</text>
</g>
<!-- 6904&#45;&gt;2687 -->
<g id="edge46" class="edge">
<title>6904&#45;&gt;2687</title>
<path fill="none" stroke="#000000" d="M1529.6911,-1373.5703C1511.4601,-1363.1374 1485.0418,-1348.0194 1464.6666,-1336.3596"/>
<polygon fill="#000000" stroke="#000000" points="1466.1991,-1333.2041 1455.7814,-1331.275 1462.7223,-1339.2796 1466.1991,-1333.2041"/>
</g>
<!-- 6939 -->
<g id="node33" class="node">
<title>6939</title>
<ellipse fill="none" stroke="#000000" cx="2015.8407" cy="-78.6977" rx="28.6953" ry="18"/>
<text text-anchor="middle" x="2015.8407" y="-74.9977" font-family="Times,serif" font-size="14.00" fill="#000000">6939</text>
</g>
<!-- 12266 -->
<g id="node47" class="node">
<title>12266</title>
<ellipse fill="none" stroke="#000000" cx="2120.9331" cy="-17.5897" rx="32.4942" ry="18"/>
<text text-anchor="middle" x="2120.9331" y="-13.8897" font-family="Times,serif" font-size="14.00" fill="#000000">12266</text>
</g>
<!-- 6939&#45;&gt;12266 -->
<g id="edge47" class="edge">
<title>6939&#45;&gt;12266</title>
<path fill="none" stroke="#000000" d="M2036.8551,-66.4785C2051.9161,-57.7209 2072.4615,-45.7744 2089.4724,-35.8831"/>
<polygon fill="#000000" stroke="#000000" points="2091.6165,-38.6851 2098.5019,-30.6327 2088.0978,-32.6338 2091.6165,-38.6851"/>
</g>
<!-- 7016 -->
<g id="node34" class="node">
<title>7016</title>
<ellipse fill="none" stroke="#000000" cx="1565.694" cy="-1526.2588" rx="28.6953" ry="18"/>
<text text-anchor="middle" x="1565.694" y="-1522.5588" font-family="Times,serif" font-size="14.00" fill="#000000">7016</text>
</g>
<!-- 7922 -->
<g id="node39" class="node">
<title>7922</title>
<ellipse fill="none" stroke="#000000" cx="1471.9694" cy="-1590.8486" rx="28.6953" ry="18"/>
<text text-anchor="middle" x="1471.9694" y="-1587.1486" font-family="Times,serif" font-size="14.00" fill="#000000">7922</text>
</g>
<!-- 7016&#45;&gt;7922 -->
<g id="edge48" class="edge">
<title>7016&#45;&gt;7922</title>
<path fill="none" stroke="#000000" d="M1546.2742,-1539.6419C1532.8278,-1548.9084 1514.7271,-1561.3824 1499.7575,-1571.6986"/>
<polygon fill="#000000" stroke="#000000" points="1497.6124,-1568.9263 1491.3643,-1577.4827 1501.5845,-1574.6902 1497.6124,-1568.9263"/>
</g>
<!-- 7018&#45;&gt;3320 -->
<g id="edge49" class="edge">
<title>7018&#45;&gt;3320</title>
<path fill="none" stroke="#000000" d="M1348.4518,-396.7044C1375.7997,-390.0893 1418.2496,-379.8213 1448.5959,-372.481"/>
<polygon fill="#000000" stroke="#000000" points="1449.4871,-375.8665 1458.3839,-370.1135 1447.8413,-369.0627 1449.4871,-375.8665"/>
</g>
<!-- 7473 -->
<g id="node36" class="node">
<title>7473</title>
<ellipse fill="none" stroke="#000000" cx="906.3963" cy="-626.0125" rx="28.6953" ry="18"/>
<text text-anchor="middle" x="906.3963" y="-622.3125" font-family="Times,serif" font-size="14.00" fill="#000000">7473</text>
</g>
<!-- 7474 -->
<g id="node37" class="node">
<title>7474</title>
<ellipse fill="none" stroke="#000000" cx="589.8951" cy="-235.3089" rx="28.6953" ry="18"/>
<text text-anchor="middle" x="589.8951" y="-231.6089" font-family="Times,serif" font-size="14.00" fill="#000000">7474</text>
</g>
<!-- 7545&#45;&gt;4635 -->
<g id="edge50" class="edge">
<title>7545&#45;&gt;4635</title>
<path fill="none" stroke="#000000" d="M271.5525,-396.7435C259.3396,-409.1086 242.021,-426.6431 228.2262,-440.6099"/>
<polygon fill="#000000" stroke="#000000" points="225.5168,-438.3724 220.9798,-447.9467 230.4971,-443.2914 225.5168,-438.3724"/>
</g>
<!-- 7545&#45;&gt;4739 -->
<g id="edge51" class="edge">
<title>7545&#45;&gt;4739</title>
<path fill="none" stroke="#000000" d="M259.594,-387.2538C239.8161,-391.5665 212.8061,-397.4562 191.0574,-402.1987"/>
<polygon fill="#000000" stroke="#000000" points="190.1944,-398.8046 181.1697,-404.3548 191.6858,-405.6439 190.1944,-398.8046"/>
</g>
<!-- 9942 -->
<g id="node43" class="node">
<title>9942</title>
<ellipse fill="none" stroke="#000000" cx="178.8457" cy="-337.5681" rx="28.6953" ry="18"/>
<text text-anchor="middle" x="178.8457" y="-333.8681" font-family="Times,serif" font-size="14.00" fill="#000000">9942</text>
</g>
<!-- 7545&#45;&gt;9942 -->
<g id="edge52" class="edge">
<title>7545&#45;&gt;9942</title>
<path fill="none" stroke="#000000" d="M262.5578,-371.5055C247.8371,-365.5376 228.8224,-357.829 212.6364,-351.267"/>
<polygon fill="#000000" stroke="#000000" points="213.5699,-347.8689 202.9875,-347.3553 210.9399,-354.3561 213.5699,-347.8689"/>
</g>
<!-- 9498&#45;&gt;4637 -->
<g id="edge53" class="edge">
<title>9498&#45;&gt;4637</title>
<path fill="none" stroke="#000000" d="M850.355,-551.5432C842.2761,-569.6695 829.5385,-598.2482 820.2015,-619.1973"/>
<polygon fill="#000000" stroke="#000000" points="816.9274,-617.9459 816.0532,-628.5046 823.3211,-620.7956 816.9274,-617.9459"/>
</g>
<!-- 9498&#45;&gt;7473 -->
<g id="edge54" class="edge">
<title>9498&#45;&gt;7473</title>
<path fill="none" stroke="#000000" d="M867.2153,-551.3717C874.3602,-564.9828 884.4368,-584.179 892.5818,-599.6954"/>
<polygon fill="#000000" stroke="#000000" points="889.6132,-601.5707 897.3601,-608.7982 895.8112,-598.3172 889.6132,-601.5707"/>
</g>
<!-- 10026 -->
<g id="node44" class="node">
<title>10026</title>
<ellipse fill="none" stroke="#000000" cx="736.9701" cy="-609.1688" rx="32.4942" ry="18"/>
<text text-anchor="middle" x="736.9701" y="-605.4688" font-family="Times,serif" font-size="14.00" fill="#000000">10026</text>
</g>
<!-- 9498&#45;&gt;10026 -->
<g id="edge55" class="edge">
<title>9498&#45;&gt;10026</title>
<path fill="none" stroke="#000000" d="M837.5838,-546.8177C818.3567,-558.7329 789.3934,-576.6817 767.4718,-590.2667"/>
<polygon fill="#000000" stroke="#000000" points="765.5122,-587.3634 758.8558,-595.6061 769.1996,-593.3135 765.5122,-587.3634"/>
</g>
<!-- 10026&#45;&gt;4755 -->
<g id="edge56" class="edge">
<title>10026&#45;&gt;4755</title>
<path fill="none" stroke="#000000" d="M717.8397,-623.8819C700.6639,-637.0917 675.2923,-656.6048 656.221,-671.2725"/>
<polygon fill="#000000" stroke="#000000" points="654.0082,-668.5588 648.2152,-677.4297 658.2758,-674.1076 654.0082,-668.5588"/>
</g>
<!-- 12956 -->
<g id="node48" class="node">
<title>12956</title>
<ellipse fill="none" stroke="#000000" cx="1888.9878" cy="-1780.7478" rx="32.4942" ry="18"/>
<text text-anchor="middle" x="1888.9878" y="-1777.0478" font-family="Times,serif" font-size="14.00" fill="#000000">12956</text>
</g>
<!-- 10834&#45;&gt;12956 -->
<g id="edge57" class="edge">
<title>10834&#45;&gt;12956</title>
<path fill="none" stroke="#000000" d="M1904.7475,-1929.6201C1901.6777,-1900.6212 1895.6512,-1843.6933 1892.0052,-1809.2513"/>
<polygon fill="#000000" stroke="#000000" points="1895.4452,-1808.4987 1890.9118,-1798.9228 1888.4841,-1809.2357 1895.4452,-1808.4987"/>
</g>
<!-- 22927 -->
<g id="node51" class="node">
<title>22927</title>
<ellipse fill="none" stroke="#000000" cx="1793.8079" cy="-1949.1635" rx="32.4942" ry="18"/>
<text text-anchor="middle" x="1793.8079" y="-1945.4635" font-family="Times,serif" font-size="14.00" fill="#000000">22927</text>
</g>
<!-- 10834&#45;&gt;22927 -->
<g id="edge58" class="edge">
<title>10834&#45;&gt;22927</title>
<path fill="none" stroke="#000000" d="M1874.0284,-1948.2069C1862.3299,-1948.3464 1848.962,-1948.5058 1836.5375,-1948.6539"/>
<polygon fill="#000000" stroke="#000000" points="1836.3376,-1945.156 1826.38,-1948.775 1836.4211,-1952.1555 1836.3376,-1945.156"/>
</g>
<!-- 12956&#45;&gt;3356 -->
<g id="edge59" class="edge">
<title>12956&#45;&gt;3356</title>
<path fill="none" stroke="#000000" d="M1885.7585,-1762.6255C1880.7958,-1734.7754 1871.2536,-1681.2261 1865.3805,-1648.2666"/>
<polygon fill="#000000" stroke="#000000" points="1868.8131,-1647.5786 1863.613,-1638.3477 1861.9216,-1648.8066 1868.8131,-1647.5786"/>
</g>
<!-- 17676&#45;&gt;6939 -->
<g id="edge60" class="edge">
<title>17676&#45;&gt;6939</title>
<path fill="none" stroke="#000000" d="M1920.7558,-134.4622C1939.2258,-123.6301 1965.6063,-108.1587 1985.8968,-96.2589"/>
<polygon fill="#000000" stroke="#000000" points="1987.8853,-99.1503 1994.7407,-91.0723 1984.344,-93.1121 1987.8853,-99.1503"/>
</g>
<!-- 18540 -->
<g id="node50" class="node">
<title>18540</title>
<ellipse fill="none" stroke="#000000" cx="1663.322" cy="-1565.836" rx="32.4942" ry="18"/>
<text text-anchor="middle" x="1663.322" y="-1562.136" font-family="Times,serif" font-size="14.00" fill="#000000">18540</text>
</g>
<!-- 30070&#45;&gt;6904 -->
<g id="edge61" class="edge">
<title>30070&#45;&gt;6904</title>
<path fill="none" stroke="#000000" d="M1649.4759,-1444.5484C1630.0918,-1432.977 1601.7596,-1416.064 1580.4665,-1403.353"/>
<polygon fill="#000000" stroke="#000000" points="1582.1989,-1400.311 1571.8185,-1398.1905 1578.6109,-1406.3215 1582.1989,-1400.311"/>
</g>
<!-- 30070&#45;&gt;7016 -->
<g id="edge62" class="edge">
<title>30070&#45;&gt;7016</title>
<path fill="none" stroke="#000000" d="M1650.4076,-1471.4444C1634.3727,-1481.8199 1612.1679,-1496.1876 1594.5145,-1507.6104"/>
<polygon fill="#000000" stroke="#000000" points="1592.2488,-1504.9076 1585.7545,-1513.2786 1596.0516,-1510.7846 1592.2488,-1504.9076"/>
</g>
<!-- 30070&#45;&gt;18540 -->
<g id="edge63" class="edge">
<title>30070&#45;&gt;18540</title>
<path fill="none" stroke="#000000" d="M1670.1799,-1476.0804C1668.8907,-1492.9531 1666.9594,-1518.2304 1665.4745,-1537.6651"/>
<polygon fill="#000000" stroke="#000000" points="1661.9745,-1537.5329 1664.7024,-1547.7705 1668.9541,-1538.0662 1661.9745,-1537.5329"/>
</g>
<!-- 32787&#45;&gt;2764 -->
<g id="edge64" class="edge">
<title>32787&#45;&gt;2764</title>
<path fill="none" stroke="#000000" d="M580.4355,-345.9046C551.0034,-344.0118 507.6285,-341.2222 476.4367,-339.2162"/>
<polygon fill="#000000" stroke="#000000" points="476.5674,-335.7175 466.3634,-338.5684 476.1181,-342.703 476.5674,-335.7175"/>
</g>
<!-- 32787&#45;&gt;7474 -->
<g id="edge65" class="edge">
<title>32787&#45;&gt;7474</title>
<path fill="none" stroke="#000000" d="M609.2734,-329.8924C605.5877,-311.9027 599.8845,-284.0662 595.6181,-263.2422"/>
<polygon fill="#000000" stroke="#000000" points="599.0313,-262.4633 593.5954,-253.3694 592.1738,-263.8684 599.0313,-262.4633"/>
</g>
<!-- 38333&#45;&gt;1221 -->
<g id="edge66" class="edge">
<title>38333&#45;&gt;1221</title>
<path fill="none" stroke="#000000" d="M315.9956,-240.5339C302.284,-227.7681 282.7136,-209.5477 267.4048,-195.295"/>
<polygon fill="#000000" stroke="#000000" points="269.5454,-192.5058 259.8414,-188.2533 264.7755,-197.6291 269.5454,-192.5058"/>
</g>
</g>
</svg>
