<?xml version="1.0" encoding="UTF-8" standalone="no"?>
<!DOCTYPE svg PUBLIC "-//W3C//DTD SVG 1.1//EN"
 "http://www.w3.org/Graphics/SVG/1.1/DTD/svg11.dtd">
<!-- Generated by graphviz version 2.40.1 (20161225.0304)
 -->
<!-- Title: %3 Pages: 1 -->
<svg width="1669pt" height="1277pt"
 viewBox="0.00 0.00 1669.02 1277.01" xmlns="http://www.w3.org/2000/svg" xmlns:xlink="http://www.w3.org/1999/xlink">
<g id="graph0" class="graph" transform="scale(1 1) rotate(0) translate(4 1273.0142)">
<title>%3</title>
<polygon fill="#ffffff" stroke="transparent" points="-4,4 -4,-1273.0142 1665.0167,-1273.0142 1665.0167,4 -4,4"/>
<!-- 174 -->
<g id="node1" class="node">
<title>174</title>
<ellipse fill="none" stroke="#000000" cx="823.4731" cy="-720.9259" rx="27" ry="18"/>
<text text-anchor="middle" x="823.4731" y="-717.2259" font-family="Times,serif" font-size="14.00" fill="#000000">174</text>
</g>
<!-- 209 -->
<g id="node2" class="node">
<title>209</title>
<ellipse fill="none" stroke="#000000" cx="900.0378" cy="-700.5368" rx="27" ry="18"/>
<text text-anchor="middle" x="900.0378" y="-696.8368" font-family="Times,serif" font-size="14.00" fill="#000000">209</text>
</g>
<!-- 174&#45;&gt;209 -->
<g id="edge1" class="edge">
<title>174&#45;&gt;209</title>
<path fill="none" stroke="#000000" d="M848.9681,-714.1366C854.1882,-712.7465 859.7668,-711.2609 865.249,-709.801"/>
<polygon fill="#000000" stroke="#000000" points="866.1521,-713.1825 874.9147,-707.227 864.3508,-706.4183 866.1521,-713.1825"/>
</g>
<!-- 1299 -->
<g id="node8" class="node">
<title>1299</title>
<ellipse fill="none" stroke="#000000" cx="977.1937" cy="-679.5943" rx="28.6953" ry="18"/>
<text text-anchor="middle" x="977.1937" y="-675.8943" font-family="Times,serif" font-size="14.00" fill="#000000">1299</text>
</g>
<!-- 209&#45;&gt;1299 -->
<g id="edge2" class="edge">
<title>209&#45;&gt;1299</title>
<path fill="none" stroke="#000000" d="M925.3015,-693.6794C930.2829,-692.3273 935.6018,-690.8836 940.8647,-689.4551"/>
<polygon fill="#000000" stroke="#000000" points="942.079,-692.7522 950.813,-686.7548 940.2453,-685.9966 942.079,-692.7522"/>
</g>
<!-- 701 -->
<g id="node3" class="node">
<title>701</title>
<ellipse fill="none" stroke="#000000" cx="1215.7807" cy="-599.8424" rx="27" ry="18"/>
<text text-anchor="middle" x="1215.7807" y="-596.1424" font-family="Times,serif" font-size="14.00" fill="#000000">701</text>
</g>
<!-- 703 -->
<g id="node4" class="node">
<title>703</title>
<ellipse fill="none" stroke="#000000" cx="1301.2836" cy="-640.6575" rx="27" ry="18"/>
<text text-anchor="middle" x="1301.2836" y="-636.9575" font-family="Times,serif" font-size="14.00" fill="#000000">703</text>
</g>
<!-- 701&#45;&gt;703 -->
<g id="edge3" class="edge">
<title>701&#45;&gt;703</title>
<path fill="none" stroke="#000000" d="M1237.7998,-610.3533C1247.5969,-615.0299 1259.3107,-620.6215 1269.9935,-625.721"/>
<polygon fill="#000000" stroke="#000000" points="1268.5096,-628.891 1279.0419,-630.0403 1271.5252,-622.5738 1268.5096,-628.891"/>
</g>
<!-- 7018 -->
<g id="node35" class="node">
<title>7018</title>
<ellipse fill="none" stroke="#000000" cx="1199.7685" cy="-508.5256" rx="28.6953" ry="18"/>
<text text-anchor="middle" x="1199.7685" y="-504.8256" font-family="Times,serif" font-size="14.00" fill="#000000">7018</text>
</g>
<!-- 701&#45;&gt;7018 -->
<g id="edge4" class="edge">
<title>701&#45;&gt;7018</title>
<path fill="none" stroke="#000000" d="M1212.6172,-581.8011C1210.3583,-568.9188 1207.2756,-551.3382 1204.6959,-536.6265"/>
<polygon fill="#000000" stroke="#000000" points="1208.1,-535.7746 1202.9254,-526.5294 1201.2052,-536.9836 1208.1,-535.7746"/>
</g>
<!-- 2516 -->
<g id="node10" class="node">
<title>2516</title>
<ellipse fill="none" stroke="#000000" cx="1342.8879" cy="-720.9091" rx="28.6953" ry="18"/>
<text text-anchor="middle" x="1342.8879" y="-717.2091" font-family="Times,serif" font-size="14.00" fill="#000000">2516</text>
</g>
<!-- 703&#45;&gt;2516 -->
<g id="edge5" class="edge">
<title>703&#45;&gt;2516</title>
<path fill="none" stroke="#000000" d="M1310.1068,-657.6768C1315.6402,-668.3504 1322.8891,-682.333 1329.1629,-694.4347"/>
<polygon fill="#000000" stroke="#000000" points="1326.2241,-696.3707 1333.934,-703.6377 1332.4387,-693.1489 1326.2241,-696.3707"/>
</g>
<!-- 9498 -->
<g id="node40" class="node">
<title>9498</title>
<ellipse fill="none" stroke="#000000" cx="1369.3214" cy="-585.6676" rx="28.6953" ry="18"/>
<text text-anchor="middle" x="1369.3214" y="-581.9676" font-family="Times,serif" font-size="14.00" fill="#000000">9498</text>
</g>
<!-- 703&#45;&gt;9498 -->
<g id="edge6" class="edge">
<title>703&#45;&gt;9498</title>
<path fill="none" stroke="#000000" d="M1318.805,-626.4962C1326.3647,-620.3863 1335.3585,-613.1173 1343.6477,-606.4177"/>
<polygon fill="#000000" stroke="#000000" points="1346.0455,-608.98 1351.6228,-599.972 1341.6454,-603.5358 1346.0455,-608.98"/>
</g>
<!-- 1221 -->
<g id="node5" class="node">
<title>1221</title>
<ellipse fill="none" stroke="#000000" cx="1632.4192" cy="-797.8088" rx="28.6953" ry="18"/>
<text text-anchor="middle" x="1632.4192" y="-794.1088" font-family="Times,serif" font-size="14.00" fill="#000000">1221</text>
</g>
<!-- 1239 -->
<g id="node6" class="node">
<title>1239</title>
<ellipse fill="none" stroke="#000000" cx="1220.5185" cy="-249.3975" rx="28.6953" ry="18"/>
<text text-anchor="middle" x="1220.5185" y="-245.6975" font-family="Times,serif" font-size="14.00" fill="#000000">1239</text>
</g>
<!-- 5511 -->
<g id="node27" class="node">
<title>5511</title>
<ellipse fill="none" stroke="#000000" cx="1293.8949" cy="-215.6363" rx="28.6953" ry="18"/>
<text text-anchor="middle" x="1293.8949" y="-211.9363" font-family="Times,serif" font-size="14.00" fill="#000000">5511</text>
</g>
<!-- 1239&#45;&gt;5511 -->
<g id="edge7" class="edge">
<title>1239&#45;&gt;5511</title>
<path fill="none" stroke="#000000" d="M1243.7352,-238.7152C1249.3562,-236.129 1255.467,-233.3174 1261.4272,-230.575"/>
<polygon fill="#000000" stroke="#000000" points="1262.9557,-233.7245 1270.5773,-226.3649 1260.0298,-227.3653 1262.9557,-233.7245"/>
</g>
<!-- 17676 -->
<g id="node49" class="node">
<title>17676</title>
<ellipse fill="none" stroke="#000000" cx="1203.4332" cy="-168.3243" rx="32.4942" ry="18"/>
<text text-anchor="middle" x="1203.4332" y="-164.6243" font-family="Times,serif" font-size="14.00" fill="#000000">17676</text>
</g>
<!-- 1239&#45;&gt;17676 -->
<g id="edge8" class="edge">
<title>1239&#45;&gt;17676</title>
<path fill="none" stroke="#000000" d="M1216.7267,-231.4047C1214.559,-221.1184 1211.7928,-207.9923 1209.3457,-196.3803"/>
<polygon fill="#000000" stroke="#000000" points="1212.7014,-195.3301 1207.2144,-186.2668 1205.8518,-196.7736 1212.7014,-195.3301"/>
</g>
<!-- 1273 -->
<g id="node7" class="node">
<title>1273</title>
<ellipse fill="none" stroke="#000000" cx="1202.369" cy="-332.7057" rx="28.6953" ry="18"/>
<text text-anchor="middle" x="1202.369" y="-329.0057" font-family="Times,serif" font-size="14.00" fill="#000000">1273</text>
</g>
<!-- 1273&#45;&gt;1239 -->
<g id="edge9" class="edge">
<title>1273&#45;&gt;1239</title>
<path fill="none" stroke="#000000" d="M1206.3071,-314.6291C1208.6855,-303.7122 1211.7657,-289.5737 1214.4502,-277.2516"/>
<polygon fill="#000000" stroke="#000000" points="1217.879,-277.9547 1216.588,-267.4388 1211.0395,-276.4646 1217.879,-277.9547"/>
</g>
<!-- 6461 -->
<g id="node30" class="node">
<title>6461</title>
<ellipse fill="none" stroke="#000000" cx="1055.3746" cy="-657.4884" rx="28.6953" ry="18"/>
<text text-anchor="middle" x="1055.3746" y="-653.7884" font-family="Times,serif" font-size="14.00" fill="#000000">6461</text>
</g>
<!-- 1299&#45;&gt;6461 -->
<g id="edge10" class="edge">
<title>1299&#45;&gt;6461</title>
<path fill="none" stroke="#000000" d="M1003.6621,-672.1103C1008.6831,-670.6906 1014.0153,-669.1829 1019.2749,-667.6957"/>
<polygon fill="#000000" stroke="#000000" points="1020.5284,-670.9786 1029.1988,-664.8897 1018.6237,-664.2427 1020.5284,-670.9786"/>
</g>
<!-- 2497 -->
<g id="node9" class="node">
<title>2497</title>
<ellipse fill="none" stroke="#000000" cx="1135.1121" cy="-632.9231" rx="28.6953" ry="18"/>
<text text-anchor="middle" x="1135.1121" y="-629.2231" font-family="Times,serif" font-size="14.00" fill="#000000">2497</text>
</g>
<!-- 2497&#45;&gt;701 -->
<g id="edge11" class="edge">
<title>2497&#45;&gt;701</title>
<path fill="none" stroke="#000000" d="M1159.3153,-622.9978C1166.838,-619.9129 1175.2569,-616.4605 1183.2506,-613.1824"/>
<polygon fill="#000000" stroke="#000000" points="1184.7772,-616.3393 1192.7014,-609.3068 1182.1212,-609.8627 1184.7772,-616.3393"/>
</g>
<!-- 32787 -->
<g id="node55" class="node">
<title>32787</title>
<ellipse fill="none" stroke="#000000" cx="1399.5589" cy="-790.6122" rx="32.4942" ry="18"/>
<text text-anchor="middle" x="1399.5589" y="-786.9122" font-family="Times,serif" font-size="14.00" fill="#000000">32787</text>
</g>
<!-- 2516&#45;&gt;32787 -->
<g id="edge12" class="edge">
<title>2516&#45;&gt;32787</title>
<path fill="none" stroke="#000000" d="M1356.0318,-737.0756C1363.0822,-745.7474 1371.9142,-756.6104 1379.7767,-766.2809"/>
<polygon fill="#000000" stroke="#000000" points="1377.0686,-768.4982 1386.0927,-774.0494 1382.5,-764.0823 1377.0686,-768.4982"/>
</g>
<!-- 2686 -->
<g id="node11" class="node">
<title>2686</title>
<ellipse fill="none" stroke="#000000" cx="152.8761" cy="-535.5626" rx="28.6953" ry="18"/>
<text text-anchor="middle" x="152.8761" y="-531.8626" font-family="Times,serif" font-size="14.00" fill="#000000">2686</text>
</g>
<!-- 3741 -->
<g id="node22" class="node">
<title>3741</title>
<ellipse fill="none" stroke="#000000" cx="93.8494" cy="-481.2448" rx="28.6953" ry="18"/>
<text text-anchor="middle" x="93.8494" y="-477.5448" font-family="Times,serif" font-size="14.00" fill="#000000">3741</text>
</g>
<!-- 2686&#45;&gt;3741 -->
<g id="edge13" class="edge">
<title>2686&#45;&gt;3741</title>
<path fill="none" stroke="#000000" d="M136.4339,-520.4321C130.6774,-515.1348 124.0896,-509.0725 117.8437,-503.3249"/>
<polygon fill="#000000" stroke="#000000" points="119.932,-500.4902 110.2034,-496.2942 115.1919,-505.6411 119.932,-500.4902"/>
</g>
<!-- 2687 -->
<g id="node12" class="node">
<title>2687</title>
<ellipse fill="none" stroke="#000000" cx="181.2303" cy="-612.4421" rx="28.6953" ry="18"/>
<text text-anchor="middle" x="181.2303" y="-608.7421" font-family="Times,serif" font-size="14.00" fill="#000000">2687</text>
</g>
<!-- 2687&#45;&gt;2686 -->
<g id="edge14" class="edge">
<title>2687&#45;&gt;2686</title>
<path fill="none" stroke="#000000" d="M174.654,-594.6112C171.1827,-585.1991 166.8482,-573.4466 162.9622,-562.9101"/>
<polygon fill="#000000" stroke="#000000" points="166.1609,-561.468 159.4167,-553.2968 159.5933,-563.8902 166.1609,-561.468"/>
</g>
<!-- 9505 -->
<g id="node41" class="node">
<title>9505</title>
<ellipse fill="none" stroke="#000000" cx="99.2492" cy="-619.154" rx="28.6953" ry="18"/>
<text text-anchor="middle" x="99.2492" y="-615.454" font-family="Times,serif" font-size="14.00" fill="#000000">9505</text>
</g>
<!-- 2687&#45;&gt;9505 -->
<g id="edge15" class="edge">
<title>2687&#45;&gt;9505</title>
<path fill="none" stroke="#000000" d="M152.5573,-614.7896C147.7869,-615.1801 142.7712,-615.5908 137.8034,-615.9975"/>
<polygon fill="#000000" stroke="#000000" points="137.4486,-612.5147 127.7676,-616.8191 138.0198,-619.4914 137.4486,-612.5147"/>
</g>
<!-- 2764 -->
<g id="node13" class="node">
<title>2764</title>
<ellipse fill="none" stroke="#000000" cx="1472.824" cy="-846.0268" rx="28.6953" ry="18"/>
<text text-anchor="middle" x="1472.824" y="-842.3268" font-family="Times,serif" font-size="14.00" fill="#000000">2764</text>
</g>
<!-- 7545 -->
<g id="node38" class="node">
<title>7545</title>
<ellipse fill="none" stroke="#000000" cx="1517.844" cy="-924.239" rx="28.6953" ry="18"/>
<text text-anchor="middle" x="1517.844" y="-920.539" font-family="Times,serif" font-size="14.00" fill="#000000">7545</text>
</g>
<!-- 2764&#45;&gt;7545 -->
<g id="edge16" class="edge">
<title>2764&#45;&gt;7545</title>
<path fill="none" stroke="#000000" d="M1482.5927,-862.9977C1488.5512,-873.3492 1496.2857,-886.7862 1502.991,-898.4353"/>
<polygon fill="#000000" stroke="#000000" points="1500.0723,-900.3805 1508.0944,-907.3012 1506.139,-896.8884 1500.0723,-900.3805"/>
</g>
<!-- 38333 -->
<g id="node57" class="node">
<title>38333</title>
<ellipse fill="none" stroke="#000000" cx="1549.1747" cy="-810.9504" rx="32.4942" ry="18"/>
<text text-anchor="middle" x="1549.1747" y="-807.2504" font-family="Times,serif" font-size="14.00" fill="#000000">38333</text>
</g>
<!-- 2764&#45;&gt;38333 -->
<g id="edge17" class="edge">
<title>2764&#45;&gt;38333</title>
<path fill="none" stroke="#000000" d="M1496.1466,-835.3121C1502.0984,-832.5778 1508.6209,-829.5813 1514.9933,-826.6537"/>
<polygon fill="#000000" stroke="#000000" points="1516.5125,-829.8076 1524.1383,-822.4524 1513.5902,-823.4467 1516.5125,-829.8076"/>
</g>
<!-- 38561 -->
<g id="node58" class="node">
<title>38561</title>
<ellipse fill="none" stroke="#000000" cx="1429.3685" cy="-907.2619" rx="32.4942" ry="18"/>
<text text-anchor="middle" x="1429.3685" y="-903.5619" font-family="Times,serif" font-size="14.00" fill="#000000">38561</text>
</g>
<!-- 2764&#45;&gt;38561 -->
<g id="edge18" class="edge">
<title>2764&#45;&gt;38561</title>
<path fill="none" stroke="#000000" d="M1460.9496,-862.7596C1456.8032,-868.6024 1452.0494,-875.3012 1447.5104,-881.6974"/>
<polygon fill="#000000" stroke="#000000" points="1444.4641,-879.9423 1441.5311,-890.1231 1450.1728,-883.9935 1444.4641,-879.9423"/>
</g>
<!-- 2828 -->
<g id="node14" class="node">
<title>2828</title>
<ellipse fill="none" stroke="#000000" cx="1524.0074" cy="-577.9122" rx="28.6953" ry="18"/>
<text text-anchor="middle" x="1524.0074" y="-574.2122" font-family="Times,serif" font-size="14.00" fill="#000000">2828</text>
</g>
<!-- 2914 -->
<g id="node15" class="node">
<title>2914</title>
<ellipse fill="none" stroke="#000000" cx="514.3262" cy="-801.8316" rx="28.6953" ry="18"/>
<text text-anchor="middle" x="514.3262" y="-798.1316" font-family="Times,serif" font-size="14.00" fill="#000000">2914</text>
</g>
<!-- 6453 -->
<g id="node29" class="node">
<title>6453</title>
<ellipse fill="none" stroke="#000000" cx="593.3872" cy="-782.1941" rx="28.6953" ry="18"/>
<text text-anchor="middle" x="593.3872" y="-778.4941" font-family="Times,serif" font-size="14.00" fill="#000000">6453</text>
</g>
<!-- 2914&#45;&gt;6453 -->
<g id="edge19" class="edge">
<title>2914&#45;&gt;6453</title>
<path fill="none" stroke="#000000" d="M541.0926,-795.1833C546.1155,-793.9357 551.4464,-792.6116 556.7095,-791.3043"/>
<polygon fill="#000000" stroke="#000000" points="557.7869,-794.6431 566.6483,-788.8357 556.0994,-787.8495 557.7869,-794.6431"/>
</g>
<!-- 3257 -->
<g id="node16" class="node">
<title>3257</title>
<ellipse fill="none" stroke="#000000" cx="670.6832" cy="-761.8394" rx="28.6953" ry="18"/>
<text text-anchor="middle" x="670.6832" y="-758.1394" font-family="Times,serif" font-size="14.00" fill="#000000">3257</text>
</g>
<!-- 3491 -->
<g id="node19" class="node">
<title>3491</title>
<ellipse fill="none" stroke="#000000" cx="747.1674" cy="-741.3222" rx="28.6953" ry="18"/>
<text text-anchor="middle" x="747.1674" y="-737.6222" font-family="Times,serif" font-size="14.00" fill="#000000">3491</text>
</g>
<!-- 3257&#45;&gt;3491 -->
<g id="edge20" class="edge">
<title>3257&#45;&gt;3491</title>
<path fill="none" stroke="#000000" d="M697.0047,-754.7786C701.4514,-753.5857 706.137,-752.3288 710.7859,-751.0817"/>
<polygon fill="#000000" stroke="#000000" points="712.0457,-754.3676 720.7973,-748.3961 710.232,-747.6066 712.0457,-754.3676"/>
</g>
<!-- 3320 -->
<g id="node17" class="node">
<title>3320</title>
<ellipse fill="none" stroke="#000000" cx="1195.5891" cy="-419.0158" rx="28.6953" ry="18"/>
<text text-anchor="middle" x="1195.5891" y="-415.3158" font-family="Times,serif" font-size="14.00" fill="#000000">3320</text>
</g>
<!-- 3320&#45;&gt;1273 -->
<g id="edge21" class="edge">
<title>3320&#45;&gt;1273</title>
<path fill="none" stroke="#000000" d="M1197.0269,-400.7116C1197.9319,-389.1913 1199.1184,-374.0867 1200.1433,-361.0395"/>
<polygon fill="#000000" stroke="#000000" points="1203.6625,-360.9309 1200.9564,-350.6875 1196.684,-360.3827 1203.6625,-360.9309"/>
</g>
<!-- 3356 -->
<g id="node18" class="node">
<title>3356</title>
<ellipse fill="none" stroke="#000000" cx="314.9044" cy="-916.9855" rx="28.6953" ry="18"/>
<text text-anchor="middle" x="314.9044" y="-913.2855" font-family="Times,serif" font-size="14.00" fill="#000000">3356</text>
</g>
<!-- 3549 -->
<g id="node20" class="node">
<title>3549</title>
<ellipse fill="none" stroke="#000000" cx="342.4533" cy="-831.6005" rx="28.6953" ry="18"/>
<text text-anchor="middle" x="342.4533" y="-827.9005" font-family="Times,serif" font-size="14.00" fill="#000000">3549</text>
</g>
<!-- 3356&#45;&gt;3549 -->
<g id="edge22" class="edge">
<title>3356&#45;&gt;3549</title>
<path fill="none" stroke="#000000" d="M320.6125,-899.2937C324.3802,-887.6162 329.3911,-872.0855 333.6628,-858.8458"/>
<polygon fill="#000000" stroke="#000000" points="337.0127,-859.8613 336.7524,-849.2697 330.3509,-857.7119 337.0127,-859.8613"/>
</g>
<!-- 3491&#45;&gt;174 -->
<g id="edge23" class="edge">
<title>3491&#45;&gt;174</title>
<path fill="none" stroke="#000000" d="M773.8554,-734.1886C778.5507,-732.9335 783.5013,-731.6102 788.3846,-730.3049"/>
<polygon fill="#000000" stroke="#000000" points="789.4531,-733.6423 798.2101,-727.6786 787.6455,-726.8797 789.4531,-733.6423"/>
</g>
<!-- 6762 -->
<g id="node31" class="node">
<title>6762</title>
<ellipse fill="none" stroke="#000000" cx="431.7539" cy="-819.3544" rx="28.6953" ry="18"/>
<text text-anchor="middle" x="431.7539" y="-815.6544" font-family="Times,serif" font-size="14.00" fill="#000000">6762</text>
</g>
<!-- 3549&#45;&gt;6762 -->
<g id="edge24" class="edge">
<title>3549&#45;&gt;6762</title>
<path fill="none" stroke="#000000" d="M370.7086,-827.7258C378.0276,-826.7221 386.0291,-825.6248 393.7585,-824.5649"/>
<polygon fill="#000000" stroke="#000000" points="394.2507,-828.0302 403.6824,-823.204 393.2996,-821.0951 394.2507,-828.0302"/>
</g>
<!-- 30070 -->
<g id="node54" class="node">
<title>30070</title>
<ellipse fill="none" stroke="#000000" cx="286.6381" cy="-756.4286" rx="32.4942" ry="18"/>
<text text-anchor="middle" x="286.6381" y="-752.7286" font-family="Times,serif" font-size="14.00" fill="#000000">30070</text>
</g>
<!-- 3549&#45;&gt;30070 -->
<g id="edge25" class="edge">
<title>3549&#45;&gt;30070</title>
<path fill="none" stroke="#000000" d="M330.3422,-815.2893C322.984,-805.3793 313.4412,-792.5271 305.1507,-781.3615"/>
<polygon fill="#000000" stroke="#000000" points="307.8835,-779.1708 299.112,-773.2285 302.2633,-783.3438 307.8835,-779.1708"/>
</g>
<!-- 3597 -->
<g id="node21" class="node">
<title>3597</title>
<ellipse fill="none" stroke="#000000" cx="229.8891" cy="-1124.3923" rx="28.6953" ry="18"/>
<text text-anchor="middle" x="229.8891" y="-1120.6923" font-family="Times,serif" font-size="14.00" fill="#000000">3597</text>
</g>
<!-- 37179 -->
<g id="node56" class="node">
<title>37179</title>
<ellipse fill="none" stroke="#000000" cx="32.4971" cy="-435.0634" rx="32.4942" ry="18"/>
<text text-anchor="middle" x="32.4971" y="-431.3634" font-family="Times,serif" font-size="14.00" fill="#000000">37179</text>
</g>
<!-- 3741&#45;&gt;37179 -->
<g id="edge26" class="edge">
<title>3741&#45;&gt;37179</title>
<path fill="none" stroke="#000000" d="M75.4417,-467.3888C70.7384,-463.8486 65.5746,-459.9616 60.5084,-456.1482"/>
<polygon fill="#000000" stroke="#000000" points="62.2675,-453.0916 52.1731,-449.874 58.0577,-458.6843 62.2675,-453.0916"/>
</g>
<!-- 4635 -->
<g id="node23" class="node">
<title>4635</title>
<ellipse fill="none" stroke="#000000" cx="1599.9076" cy="-917.2061" rx="28.6953" ry="18"/>
<text text-anchor="middle" x="1599.9076" y="-913.5061" font-family="Times,serif" font-size="14.00" fill="#000000">4635</text>
</g>
<!-- 4637 -->
<g id="node24" class="node">
<title>4637</title>
<ellipse fill="none" stroke="#000000" cx="1443.9441" cy="-596.6341" rx="28.6953" ry="18"/>
<text text-anchor="middle" x="1443.9441" y="-592.9341" font-family="Times,serif" font-size="14.00" fill="#000000">4637</text>
</g>
<!-- 4637&#45;&gt;2828 -->
<g id="edge27" class="edge">
<title>4637&#45;&gt;2828</title>
<path fill="none" stroke="#000000" d="M1471.0499,-590.2957C1476.1364,-589.1063 1481.5349,-587.8439 1486.8647,-586.5976"/>
<polygon fill="#000000" stroke="#000000" points="1487.9892,-589.9292 1496.9295,-584.2441 1486.3952,-583.1131 1487.9892,-589.9292"/>
</g>
<!-- 4739 -->
<g id="node25" class="node">
<title>4739</title>
<ellipse fill="none" stroke="#000000" cx="1565.5728" cy="-991.5877" rx="28.6953" ry="18"/>
<text text-anchor="middle" x="1565.5728" y="-987.8877" font-family="Times,serif" font-size="14.00" fill="#000000">4739</text>
</g>
<!-- 38880 -->
<g id="node59" class="node">
<title>38880</title>
<ellipse fill="none" stroke="#000000" cx="1620.2544" cy="-1047.2018" rx="32.4942" ry="18"/>
<text text-anchor="middle" x="1620.2544" y="-1043.5018" font-family="Times,serif" font-size="14.00" fill="#000000">38880</text>
</g>
<!-- 4739&#45;&gt;38880 -->
<g id="edge28" class="edge">
<title>4739&#45;&gt;38880</title>
<path fill="none" stroke="#000000" d="M1580.8047,-1007.0794C1585.8451,-1012.2057 1591.5736,-1018.0319 1597.0722,-1023.6243"/>
<polygon fill="#000000" stroke="#000000" points="1594.835,-1026.3411 1604.3418,-1031.0179 1599.8265,-1021.4334 1594.835,-1026.3411"/>
</g>
<!-- 4755 -->
<g id="node26" class="node">
<title>4755</title>
<ellipse fill="none" stroke="#000000" cx="1486.799" cy="-457.3098" rx="28.6953" ry="18"/>
<text text-anchor="middle" x="1486.799" y="-453.6098" font-family="Times,serif" font-size="14.00" fill="#000000">4755</text>
</g>
<!-- 9583 -->
<g id="node42" class="node">
<title>9583</title>
<ellipse fill="none" stroke="#000000" cx="1553.0833" cy="-413.1622" rx="28.6953" ry="18"/>
<text text-anchor="middle" x="1553.0833" y="-409.4622" font-family="Times,serif" font-size="14.00" fill="#000000">9583</text>
</g>
<!-- 4755&#45;&gt;9583 -->
<g id="edge29" class="edge">
<title>4755&#45;&gt;9583</title>
<path fill="none" stroke="#000000" d="M1506.6865,-444.064C1512.3231,-440.3099 1518.5722,-436.1478 1524.6103,-432.1262"/>
<polygon fill="#000000" stroke="#000000" points="1526.8271,-434.855 1533.2099,-426.3986 1522.9467,-429.0289 1526.8271,-434.855"/>
</g>
<!-- 5692 -->
<g id="node28" class="node">
<title>5692</title>
<ellipse fill="none" stroke="#000000" cx="197.4202" cy="-1167.0039" rx="28.6953" ry="18"/>
<text text-anchor="middle" x="197.4202" y="-1163.3039" font-family="Times,serif" font-size="14.00" fill="#000000">5692</text>
</g>
<!-- 5692&#45;&gt;3597 -->
<g id="edge30" class="edge">
<title>5692&#45;&gt;3597</title>
<path fill="none" stroke="#000000" d="M209.8807,-1150.651C210.3501,-1150.0349 210.824,-1149.4129 211.3007,-1148.7874"/>
<polygon fill="#000000" stroke="#000000" points="214.2387,-1150.7064 217.5156,-1140.6311 208.6708,-1146.4638 214.2387,-1150.7064"/>
</g>
<!-- 10834 -->
<g id="node45" class="node">
<title>10834</title>
<ellipse fill="none" stroke="#000000" cx="225.0169" cy="-1065.2524" rx="32.4942" ry="18"/>
<text text-anchor="middle" x="225.0169" y="-1061.5524" font-family="Times,serif" font-size="14.00" fill="#000000">10834</text>
</g>
<!-- 5692&#45;&gt;10834 -->
<g id="edge31" class="edge">
<title>5692&#45;&gt;10834</title>
<path fill="none" stroke="#000000" d="M202.3539,-1148.8127C206.5529,-1133.3306 212.6513,-1110.8454 217.4645,-1093.0987"/>
<polygon fill="#000000" stroke="#000000" points="220.8861,-1093.8535 220.1258,-1083.286 214.1302,-1092.0212 220.8861,-1093.8535"/>
</g>
<!-- 11008 -->
<g id="node46" class="node">
<title>11008</title>
<ellipse fill="none" stroke="#000000" cx="109.6152" cy="-1163.4678" rx="32.4942" ry="18"/>
<text text-anchor="middle" x="109.6152" y="-1159.7678" font-family="Times,serif" font-size="14.00" fill="#000000">11008</text>
</g>
<!-- 5692&#45;&gt;11008 -->
<g id="edge32" class="edge">
<title>5692&#45;&gt;11008</title>
<path fill="none" stroke="#000000" d="M168.6695,-1165.846C163.3554,-1165.632 157.7038,-1165.4044 152.0835,-1165.1781"/>
<polygon fill="#000000" stroke="#000000" points="152.2133,-1161.6806 142.0805,-1164.7752 151.9315,-1168.6749 152.2133,-1161.6806"/>
</g>
<!-- 27865 -->
<g id="node52" class="node">
<title>27865</title>
<ellipse fill="none" stroke="#000000" cx="287.5087" cy="-1206.0974" rx="32.4942" ry="18"/>
<text text-anchor="middle" x="287.5087" y="-1202.3974" font-family="Times,serif" font-size="14.00" fill="#000000">27865</text>
</g>
<!-- 5692&#45;&gt;27865 -->
<g id="edge33" class="edge">
<title>5692&#45;&gt;27865</title>
<path fill="none" stroke="#000000" d="M221.0899,-1177.2752C230.6692,-1181.4321 241.9274,-1186.3176 252.4257,-1190.8733"/>
<polygon fill="#000000" stroke="#000000" points="251.2166,-1194.1639 261.7834,-1194.934 254.0032,-1187.7424 251.2166,-1194.1639"/>
</g>
<!-- 28065 -->
<g id="node53" class="node">
<title>28065</title>
<ellipse fill="none" stroke="#000000" cx="211.4572" cy="-1251.0142" rx="32.4942" ry="18"/>
<text text-anchor="middle" x="211.4572" y="-1247.3142" font-family="Times,serif" font-size="14.00" fill="#000000">28065</text>
</g>
<!-- 5692&#45;&gt;28065 -->
<g id="edge34" class="edge">
<title>5692&#45;&gt;28065</title>
<path fill="none" stroke="#000000" d="M200.466,-1185.2329C202.3054,-1196.2417 204.6877,-1210.4994 206.7639,-1222.9253"/>
<polygon fill="#000000" stroke="#000000" points="203.3171,-1223.5344 208.4173,-1232.8208 210.2213,-1222.3807 203.3171,-1223.5344"/>
</g>
<!-- 52317 -->
<g id="node60" class="node">
<title>52317</title>
<ellipse fill="none" stroke="#000000" cx="117.1473" cy="-1199.4449" rx="32.4942" ry="18"/>
<text text-anchor="middle" x="117.1473" y="-1195.7449" font-family="Times,serif" font-size="14.00" fill="#000000">52317</text>
</g>
<!-- 5692&#45;&gt;52317 -->
<g id="edge35" class="edge">
<title>5692&#45;&gt;52317</title>
<path fill="none" stroke="#000000" d="M173.3356,-1176.7372C166.8587,-1179.3548 159.714,-1182.2422 152.7535,-1185.0552"/>
<polygon fill="#000000" stroke="#000000" points="151.416,-1181.8207 143.4559,-1188.8127 154.0389,-1188.3107 151.416,-1181.8207"/>
</g>
<!-- 52375 -->
<g id="node61" class="node">
<title>52375</title>
<ellipse fill="none" stroke="#000000" cx="142.3666" cy="-1226.5948" rx="32.4942" ry="18"/>
<text text-anchor="middle" x="142.3666" y="-1222.8948" font-family="Times,serif" font-size="14.00" fill="#000000">52375</text>
</g>
<!-- 5692&#45;&gt;52375 -->
<g id="edge36" class="edge">
<title>5692&#45;&gt;52375</title>
<path fill="none" stroke="#000000" d="M182.9555,-1182.6607C177.2768,-1188.8074 170.6325,-1195.9993 164.3833,-1202.7635"/>
<polygon fill="#000000" stroke="#000000" points="161.5254,-1200.6992 157.3103,-1210.4195 166.667,-1205.4494 161.5254,-1200.6992"/>
</g>
<!-- 52376 -->
<g id="node62" class="node">
<title>52376</title>
<ellipse fill="none" stroke="#000000" cx="173.3775" cy="-1248.1162" rx="32.4942" ry="18"/>
<text text-anchor="middle" x="173.3775" y="-1244.4162" font-family="Times,serif" font-size="14.00" fill="#000000">52376</text>
</g>
<!-- 5692&#45;&gt;52376 -->
<g id="edge37" class="edge">
<title>5692&#45;&gt;52376</title>
<path fill="none" stroke="#000000" d="M192.0843,-1185.0053C189.0027,-1195.4016 185.0617,-1208.6973 181.5924,-1220.4018"/>
<polygon fill="#000000" stroke="#000000" points="178.1847,-1219.5827 178.6984,-1230.165 184.8961,-1221.572 178.1847,-1219.5827"/>
</g>
<!-- 52380 -->
<g id="node63" class="node">
<title>52380</title>
<ellipse fill="none" stroke="#000000" cx="116.9792" cy="-1127.0871" rx="32.4942" ry="18"/>
<text text-anchor="middle" x="116.9792" y="-1123.3871" font-family="Times,serif" font-size="14.00" fill="#000000">52380</text>
</g>
<!-- 5692&#45;&gt;52380 -->
<g id="edge38" class="edge">
<title>5692&#45;&gt;52380</title>
<path fill="none" stroke="#000000" d="M174.5842,-1155.6721C167.0246,-1151.9208 158.4504,-1147.6661 150.2705,-1143.6071"/>
<polygon fill="#000000" stroke="#000000" points="151.7914,-1140.4545 141.2778,-1139.1446 148.6798,-1146.725 151.7914,-1140.4545"/>
</g>
<!-- 52413 -->
<g id="node64" class="node">
<title>52413</title>
<ellipse fill="none" stroke="#000000" cx="250.5575" cy="-1243.1158" rx="32.4942" ry="18"/>
<text text-anchor="middle" x="250.5575" y="-1239.4158" font-family="Times,serif" font-size="14.00" fill="#000000">52413</text>
</g>
<!-- 5692&#45;&gt;52413 -->
<g id="edge39" class="edge">
<title>5692&#45;&gt;52413</title>
<path fill="none" stroke="#000000" d="M208.9502,-1183.519C215.9553,-1193.553 225.0403,-1206.5659 232.933,-1217.8712"/>
<polygon fill="#000000" stroke="#000000" points="230.0878,-1219.91 238.682,-1226.1059 235.8274,-1215.9029 230.0878,-1219.91"/>
</g>
<!-- 52431 -->
<g id="node65" class="node">
<title>52431</title>
<ellipse fill="none" stroke="#000000" cx="278.8379" cy="-1151.5586" rx="32.4942" ry="18"/>
<text text-anchor="middle" x="278.8379" y="-1147.8586" font-family="Times,serif" font-size="14.00" fill="#000000">52431</text>
</g>
<!-- 5692&#45;&gt;52431 -->
<g id="edge40" class="edge">
<title>5692&#45;&gt;52431</title>
<path fill="none" stroke="#000000" d="M224.9845,-1161.7748C229.1364,-1160.9872 233.4927,-1160.1608 237.8532,-1159.3336"/>
<polygon fill="#000000" stroke="#000000" points="238.7688,-1162.7224 247.9413,-1157.4198 237.4641,-1155.845 238.7688,-1162.7224"/>
</g>
<!-- 262230 -->
<g id="node66" class="node">
<title>262230</title>
<ellipse fill="none" stroke="#000000" cx="153.8217" cy="-1113.7469" rx="37.0935" ry="18"/>
<text text-anchor="middle" x="153.8217" y="-1110.0469" font-family="Times,serif" font-size="14.00" fill="#000000">262230</text>
</g>
<!-- 5692&#45;&gt;262230 -->
<g id="edge41" class="edge">
<title>5692&#45;&gt;262230</title>
<path fill="none" stroke="#000000" d="M184.1023,-1150.7356C180.9282,-1146.8584 177.4699,-1142.634 174.0627,-1138.4719"/>
<polygon fill="#000000" stroke="#000000" points="176.7043,-1136.1734 167.6615,-1130.6526 171.2878,-1140.6076 176.7043,-1136.1734"/>
</g>
<!-- 264608 -->
<g id="node67" class="node">
<title>264608</title>
<ellipse fill="none" stroke="#000000" cx="254.1582" cy="-1193.4537" rx="37.0935" ry="18"/>
<text text-anchor="middle" x="254.1582" y="-1189.7537" font-family="Times,serif" font-size="14.00" fill="#000000">264608</text>
</g>
<!-- 5692&#45;&gt;264608 -->
<g id="edge42" class="edge">
<title>5692&#45;&gt;264608</title>
<path fill="none" stroke="#000000" d="M220.4977,-1177.762C220.6357,-1177.8264 220.774,-1177.8908 220.9124,-1177.9553"/>
<polygon fill="#000000" stroke="#000000" points="216.6592,-1179.8342 227.2016,-1180.8872 219.6169,-1173.4897 216.6592,-1179.8342"/>
</g>
<!-- 6453&#45;&gt;3257 -->
<g id="edge43" class="edge">
<title>6453&#45;&gt;3257</title>
<path fill="none" stroke="#000000" d="M619.9881,-775.1892C624.6553,-773.9602 629.5829,-772.6625 634.459,-771.3785"/>
<polygon fill="#000000" stroke="#000000" points="635.5161,-774.7195 644.2951,-768.7883 633.7335,-767.9503 635.5161,-774.7195"/>
</g>
<!-- 6461&#45;&gt;2497 -->
<g id="edge44" class="edge">
<title>6461&#45;&gt;2497</title>
<path fill="none" stroke="#000000" d="M1081.4836,-649.4448C1087.1866,-647.6878 1093.3178,-645.799 1099.3241,-643.9486"/>
<polygon fill="#000000" stroke="#000000" points="1100.6905,-647.19 1109.2167,-640.9009 1098.6295,-640.5003 1100.6905,-647.19"/>
</g>
<!-- 6762&#45;&gt;2914 -->
<g id="edge45" class="edge">
<title>6762&#45;&gt;2914</title>
<path fill="none" stroke="#000000" d="M459.2493,-813.5196C464.9597,-812.3078 471.0677,-811.0116 477.0617,-809.7396"/>
<polygon fill="#000000" stroke="#000000" points="477.8953,-813.1407 486.9509,-807.641 476.4421,-806.2932 477.8953,-813.1407"/>
</g>
<!-- 6904 -->
<g id="node32" class="node">
<title>6904</title>
<ellipse fill="none" stroke="#000000" cx="240.6607" cy="-675.2333" rx="28.6953" ry="18"/>
<text text-anchor="middle" x="240.6607" y="-671.5333" font-family="Times,serif" font-size="14.00" fill="#000000">6904</text>
</g>
<!-- 6904&#45;&gt;2687 -->
<g id="edge46" class="edge">
<title>6904&#45;&gt;2687</title>
<path fill="none" stroke="#000000" d="M225.97,-659.7119C219.1642,-652.5211 210.9313,-643.8227 203.393,-635.8581"/>
<polygon fill="#000000" stroke="#000000" points="205.5808,-633.078 196.1648,-628.2211 200.4969,-637.8898 205.5808,-633.078"/>
</g>
<!-- 6939 -->
<g id="node33" class="node">
<title>6939</title>
<ellipse fill="none" stroke="#000000" cx="1222.1631" cy="-90.0319" rx="28.6953" ry="18"/>
<text text-anchor="middle" x="1222.1631" y="-86.3319" font-family="Times,serif" font-size="14.00" fill="#000000">6939</text>
</g>
<!-- 12266 -->
<g id="node47" class="node">
<title>12266</title>
<ellipse fill="none" stroke="#000000" cx="1250.0374" cy="-18" rx="32.4942" ry="18"/>
<text text-anchor="middle" x="1250.0374" y="-14.3" font-family="Times,serif" font-size="14.00" fill="#000000">12266</text>
</g>
<!-- 6939&#45;&gt;12266 -->
<g id="edge47" class="edge">
<title>6939&#45;&gt;12266</title>
<path fill="none" stroke="#000000" d="M1229.0533,-72.2262C1232.2263,-64.0267 1236.0606,-54.1184 1239.5789,-45.0265"/>
<polygon fill="#000000" stroke="#000000" points="1242.8815,-46.19 1243.2264,-35.6008 1236.3532,-43.6637 1242.8815,-46.19"/>
</g>
<!-- 7016 -->
<g id="node34" class="node">
<title>7016</title>
<ellipse fill="none" stroke="#000000" cx="215.0616" cy="-764.0902" rx="28.6953" ry="18"/>
<text text-anchor="middle" x="215.0616" y="-760.3902" font-family="Times,serif" font-size="14.00" fill="#000000">7016</text>
</g>
<!-- 7922 -->
<g id="node39" class="node">
<title>7922</title>
<ellipse fill="none" stroke="#000000" cx="136.206" cy="-753.1558" rx="28.6953" ry="18"/>
<text text-anchor="middle" x="136.206" y="-749.4558" font-family="Times,serif" font-size="14.00" fill="#000000">7922</text>
</g>
<!-- 7016&#45;&gt;7922 -->
<g id="edge48" class="edge">
<title>7016&#45;&gt;7922</title>
<path fill="none" stroke="#000000" d="M187.038,-760.2044C182.8547,-759.6243 178.4839,-759.0183 174.1374,-758.4156"/>
<polygon fill="#000000" stroke="#000000" points="174.5253,-754.9359 164.1393,-757.0292 173.5638,-761.8696 174.5253,-754.9359"/>
</g>
<!-- 7018&#45;&gt;3320 -->
<g id="edge49" class="edge">
<title>7018&#45;&gt;3320</title>
<path fill="none" stroke="#000000" d="M1198.9227,-490.4119C1198.3449,-478.0368 1197.5676,-461.389 1196.9089,-447.282"/>
<polygon fill="#000000" stroke="#000000" points="1200.3963,-446.9283 1196.4336,-437.1025 1193.4039,-447.2549 1200.3963,-446.9283"/>
</g>
<!-- 7473 -->
<g id="node36" class="node">
<title>7473</title>
<ellipse fill="none" stroke="#000000" cx="1346.2099" cy="-523.6891" rx="28.6953" ry="18"/>
<text text-anchor="middle" x="1346.2099" y="-519.9891" font-family="Times,serif" font-size="14.00" fill="#000000">7473</text>
</g>
<!-- 7474 -->
<g id="node37" class="node">
<title>7474</title>
<ellipse fill="none" stroke="#000000" cx="1345.7287" cy="-845.2555" rx="28.6953" ry="18"/>
<text text-anchor="middle" x="1345.7287" y="-841.5555" font-family="Times,serif" font-size="14.00" fill="#000000">7474</text>
</g>
<!-- 7545&#45;&gt;4635 -->
<g id="edge50" class="edge">
<title>7545&#45;&gt;4635</title>
<path fill="none" stroke="#000000" d="M1546.5459,-921.7792C1551.321,-921.37 1556.3417,-920.9397 1561.3146,-920.5136"/>
<polygon fill="#000000" stroke="#000000" points="1561.6959,-923.9938 1571.3605,-919.6526 1561.0982,-917.0194 1561.6959,-923.9938"/>
</g>
<!-- 7545&#45;&gt;4739 -->
<g id="edge51" class="edge">
<title>7545&#45;&gt;4739</title>
<path fill="none" stroke="#000000" d="M1529.6421,-940.887C1535.1908,-948.7165 1541.9204,-958.2125 1548.0487,-966.8599"/>
<polygon fill="#000000" stroke="#000000" points="1545.2727,-968.996 1553.9104,-975.1312 1550.9839,-964.9486 1545.2727,-968.996"/>
</g>
<!-- 9942 -->
<g id="node43" class="node">
<title>9942</title>
<ellipse fill="none" stroke="#000000" cx="1482.9135" cy="-1000.5412" rx="28.6953" ry="18"/>
<text text-anchor="middle" x="1482.9135" y="-996.8412" font-family="Times,serif" font-size="14.00" fill="#000000">9942</text>
</g>
<!-- 7545&#45;&gt;9942 -->
<g id="edge52" class="edge">
<title>7545&#45;&gt;9942</title>
<path fill="none" stroke="#000000" d="M1509.9177,-941.5531C1505.5718,-951.0464 1500.0891,-963.0227 1495.2013,-973.6998"/>
<polygon fill="#000000" stroke="#000000" points="1491.9094,-972.482 1490.9293,-983.0315 1498.2742,-975.3958 1491.9094,-972.482"/>
</g>
<!-- 9498&#45;&gt;4637 -->
<g id="edge53" class="edge">
<title>9498&#45;&gt;4637</title>
<path fill="none" stroke="#000000" d="M1397.533,-589.8136C1400.2261,-590.2094 1402.9865,-590.615 1405.7534,-591.0217"/>
<polygon fill="#000000" stroke="#000000" points="1405.2899,-594.491 1415.6925,-592.4823 1406.3077,-587.5654 1405.2899,-594.491"/>
</g>
<!-- 9498&#45;&gt;7473 -->
<g id="edge54" class="edge">
<title>9498&#45;&gt;7473</title>
<path fill="none" stroke="#000000" d="M1362.7604,-568.0729C1360.7769,-562.7538 1358.5504,-556.7829 1356.389,-550.9867"/>
<polygon fill="#000000" stroke="#000000" points="1359.641,-549.69 1352.8676,-541.5431 1353.0822,-552.1358 1359.641,-549.69"/>
</g>
<!-- 10026 -->
<g id="node44" class="node">
<title>10026</title>
<ellipse fill="none" stroke="#000000" cx="1423.9688" cy="-513.2736" rx="32.4942" ry="18"/>
<text text-anchor="middle" x="1423.9688" y="-509.5736" font-family="Times,serif" font-size="14.00" fill="#000000">10026</text>
</g>
<!-- 9498&#45;&gt;10026 -->
<g id="edge55" class="edge">
<title>9498&#45;&gt;10026</title>
<path fill="none" stroke="#000000" d="M1381.7217,-569.2403C1388.6595,-560.0494 1397.449,-548.4056 1405.212,-538.1216"/>
<polygon fill="#000000" stroke="#000000" points="1408.197,-539.9765 1411.4283,-529.8865 1402.61,-535.7591 1408.197,-539.9765"/>
</g>
<!-- 10026&#45;&gt;4755 -->
<g id="edge56" class="edge">
<title>10026&#45;&gt;4755</title>
<path fill="none" stroke="#000000" d="M1441.1374,-497.9812C1447.7547,-492.0871 1455.4419,-485.24 1462.6006,-478.8636"/>
<polygon fill="#000000" stroke="#000000" points="1464.946,-481.4616 1470.0854,-472.1968 1460.2901,-476.2345 1464.946,-481.4616"/>
</g>
<!-- 12956 -->
<g id="node48" class="node">
<title>12956</title>
<ellipse fill="none" stroke="#000000" cx="278.8673" cy="-994.9063" rx="32.4942" ry="18"/>
<text text-anchor="middle" x="278.8673" y="-991.2063" font-family="Times,serif" font-size="14.00" fill="#000000">12956</text>
</g>
<!-- 10834&#45;&gt;12956 -->
<g id="edge57" class="edge">
<title>10834&#45;&gt;12956</title>
<path fill="none" stroke="#000000" d="M237.7787,-1048.5813C244.3218,-1040.0339 252.4249,-1029.4486 259.7014,-1019.9432"/>
<polygon fill="#000000" stroke="#000000" points="262.5237,-1022.0143 265.823,-1011.9463 256.9653,-1017.7593 262.5237,-1022.0143"/>
</g>
<!-- 22927 -->
<g id="node51" class="node">
<title>22927</title>
<ellipse fill="none" stroke="#000000" cx="153.8113" cy="-1018.2849" rx="32.4942" ry="18"/>
<text text-anchor="middle" x="153.8113" y="-1014.5849" font-family="Times,serif" font-size="14.00" fill="#000000">22927</text>
</g>
<!-- 10834&#45;&gt;22927 -->
<g id="edge58" class="edge">
<title>10834&#45;&gt;22927</title>
<path fill="none" stroke="#000000" d="M204.038,-1051.4146C197.5768,-1047.1528 190.3379,-1042.378 183.4112,-1037.8091"/>
<polygon fill="#000000" stroke="#000000" points="185.1611,-1034.7706 174.8863,-1032.1861 181.3068,-1040.6139 185.1611,-1034.7706"/>
</g>
<!-- 12956&#45;&gt;3356 -->
<g id="edge59" class="edge">
<title>12956&#45;&gt;3356</title>
<path fill="none" stroke="#000000" d="M287.0447,-977.2248C291.6383,-967.2924 297.4629,-954.6982 302.5973,-943.5963"/>
<polygon fill="#000000" stroke="#000000" points="305.8625,-944.8741 306.8835,-934.3286 299.5091,-941.9357 305.8625,-944.8741"/>
</g>
<!-- 17676&#45;&gt;6939 -->
<g id="edge60" class="edge">
<title>17676&#45;&gt;6939</title>
<path fill="none" stroke="#000000" d="M1207.7773,-150.1656C1210.0703,-140.5806 1212.9335,-128.6121 1215.5005,-117.882"/>
<polygon fill="#000000" stroke="#000000" points="1218.9198,-118.632 1217.8425,-108.092 1212.1119,-117.0033 1218.9198,-118.632"/>
</g>
<!-- 18540 -->
<g id="node50" class="node">
<title>18540</title>
<ellipse fill="none" stroke="#000000" cx="327.2992" cy="-699.9142" rx="32.4942" ry="18"/>
<text text-anchor="middle" x="327.2992" y="-696.2142" font-family="Times,serif" font-size="14.00" fill="#000000">18540</text>
</g>
<!-- 30070&#45;&gt;6904 -->
<g id="edge61" class="edge">
<title>30070&#45;&gt;6904</title>
<path fill="none" stroke="#000000" d="M276.8875,-739.2092C270.6698,-728.2289 262.4923,-713.7876 255.4804,-701.4046"/>
<polygon fill="#000000" stroke="#000000" points="258.3704,-699.4051 250.3973,-692.4279 252.2791,-702.8543 258.3704,-699.4051"/>
</g>
<!-- 30070&#45;&gt;7016 -->
<g id="edge62" class="edge">
<title>30070&#45;&gt;7016</title>
<path fill="none" stroke="#000000" d="M254.6182,-759.8561C254.2692,-759.8934 253.9198,-759.9308 253.57,-759.9683"/>
<polygon fill="#000000" stroke="#000000" points="253.0208,-756.507 243.4501,-761.0515 253.7659,-763.4672 253.0208,-756.507"/>
</g>
<!-- 30070&#45;&gt;18540 -->
<g id="edge63" class="edge">
<title>30070&#45;&gt;18540</title>
<path fill="none" stroke="#000000" d="M298.8378,-739.4724C302.0542,-735.0019 305.5958,-730.0795 309.0559,-725.2704"/>
<polygon fill="#000000" stroke="#000000" points="312.1089,-727.0199 315.1081,-716.8584 306.4267,-722.9316 312.1089,-727.0199"/>
</g>
<!-- 32787&#45;&gt;2764 -->
<g id="edge64" class="edge">
<title>32787&#45;&gt;2764</title>
<path fill="none" stroke="#000000" d="M1418.8084,-805.1718C1427.2481,-811.5551 1437.2902,-819.1506 1446.413,-826.0506"/>
<polygon fill="#000000" stroke="#000000" points="1444.3733,-828.8963 1454.4602,-832.1372 1448.596,-823.3133 1444.3733,-828.8963"/>
</g>
<!-- 32787&#45;&gt;7474 -->
<g id="edge65" class="edge">
<title>32787&#45;&gt;7474</title>
<path fill="none" stroke="#000000" d="M1383.989,-806.4173C1379.0363,-811.4448 1373.4564,-817.109 1368.1206,-822.5254"/>
<polygon fill="#000000" stroke="#000000" points="1365.6023,-820.0945 1361.0777,-829.6746 1370.589,-825.007 1365.6023,-820.0945"/>
</g>
<!-- 38333&#45;&gt;1221 -->
<g id="edge66" class="edge">
<title>38333&#45;&gt;1221</title>
<path fill="none" stroke="#000000" d="M1580.6459,-805.9821C1585.1709,-805.2678 1589.8664,-804.5265 1594.5002,-803.795"/>
<polygon fill="#000000" stroke="#000000" points="1595.1239,-807.24 1604.4557,-802.2233 1594.0322,-800.3256 1595.1239,-807.24"/>
</g>
</g>
</svg>
