<?xml version="1.0" encoding="UTF-8" standalone="no"?>
<!DOCTYPE svg PUBLIC "-//W3C//DTD SVG 1.1//EN"
 "http://www.w3.org/Graphics/SVG/1.1/DTD/svg11.dtd">
<!-- Generated by graphviz version 2.40.1 (20161225.0304)
 -->
<!-- Title: %3 Pages: 1 -->
<svg width="1588pt" height="1628pt"
 viewBox="0.00 0.00 1587.64 1628.00" xmlns="http://www.w3.org/2000/svg" xmlns:xlink="http://www.w3.org/1999/xlink">
<g id="graph0" class="graph" transform="scale(1 1) rotate(0) translate(4 1624)">
<title>%3</title>
<polygon fill="#ffffff" stroke="transparent" points="-4,4 -4,-1624 1583.6442,-1624 1583.6442,4 -4,4"/>
<!-- 174 -->
<g id="node1" class="node">
<title>174</title>
<ellipse fill="none" stroke="#000000" cx="499.5975" cy="-882" rx="27" ry="18"/>
<text text-anchor="middle" x="499.5975" y="-878.3" font-family="Times,serif" font-size="14.00" fill="#000000">174</text>
</g>
<!-- 209 -->
<g id="node2" class="node">
<title>209</title>
<ellipse fill="none" stroke="#000000" cx="499.5975" cy="-810" rx="27" ry="18"/>
<text text-anchor="middle" x="499.5975" y="-806.3" font-family="Times,serif" font-size="14.00" fill="#000000">209</text>
</g>
<!-- 174&#45;&gt;209 -->
<g id="edge1" class="edge">
<title>174&#45;&gt;209</title>
<path fill="none" stroke="#000000" d="M499.5975,-863.8314C499.5975,-856.131 499.5975,-846.9743 499.5975,-838.4166"/>
<polygon fill="#000000" stroke="#000000" points="503.0976,-838.4132 499.5975,-828.4133 496.0976,-838.4133 503.0976,-838.4132"/>
</g>
<!-- 1299 -->
<g id="node8" class="node">
<title>1299</title>
<ellipse fill="none" stroke="#000000" cx="499.5975" cy="-738" rx="28.6953" ry="18"/>
<text text-anchor="middle" x="499.5975" y="-734.3" font-family="Times,serif" font-size="14.00" fill="#000000">1299</text>
</g>
<!-- 209&#45;&gt;1299 -->
<g id="edge2" class="edge">
<title>209&#45;&gt;1299</title>
<path fill="none" stroke="#000000" d="M499.5975,-791.8314C499.5975,-784.131 499.5975,-774.9743 499.5975,-766.4166"/>
<polygon fill="#000000" stroke="#000000" points="503.0976,-766.4132 499.5975,-756.4133 496.0976,-766.4133 503.0976,-766.4132"/>
</g>
<!-- 701 -->
<g id="node3" class="node">
<title>701</title>
<ellipse fill="none" stroke="#000000" cx="499.5975" cy="-522" rx="27" ry="18"/>
<text text-anchor="middle" x="499.5975" y="-518.3" font-family="Times,serif" font-size="14.00" fill="#000000">701</text>
</g>
<!-- 703 -->
<g id="node4" class="node">
<title>703</title>
<ellipse fill="none" stroke="#000000" cx="462.5975" cy="-450" rx="27" ry="18"/>
<text text-anchor="middle" x="462.5975" y="-446.3" font-family="Times,serif" font-size="14.00" fill="#000000">703</text>
</g>
<!-- 701&#45;&gt;703 -->
<g id="edge3" class="edge">
<title>701&#45;&gt;703</title>
<path fill="none" stroke="#000000" d="M490.829,-504.937C486.4695,-496.4537 481.1022,-486.0092 476.2222,-476.513"/>
<polygon fill="#000000" stroke="#000000" points="479.2438,-474.7352 471.56,-467.4407 473.0178,-477.9348 479.2438,-474.7352"/>
</g>
<!-- 7018 -->
<g id="node35" class="node">
<title>7018</title>
<ellipse fill="none" stroke="#000000" cx="557.5975" cy="-450" rx="28.6953" ry="18"/>
<text text-anchor="middle" x="557.5975" y="-446.3" font-family="Times,serif" font-size="14.00" fill="#000000">7018</text>
</g>
<!-- 701&#45;&gt;7018 -->
<g id="edge4" class="edge">
<title>701&#45;&gt;7018</title>
<path fill="none" stroke="#000000" d="M512.4695,-506.0209C520.001,-496.6714 529.6605,-484.6804 538.1088,-474.1928"/>
<polygon fill="#000000" stroke="#000000" points="541.0131,-476.1667 544.5608,-466.1834 535.5618,-471.7753 541.0131,-476.1667"/>
</g>
<!-- 2516 -->
<g id="node10" class="node">
<title>2516</title>
<ellipse fill="none" stroke="#000000" cx="348.5975" cy="-378" rx="28.6953" ry="18"/>
<text text-anchor="middle" x="348.5975" y="-374.3" font-family="Times,serif" font-size="14.00" fill="#000000">2516</text>
</g>
<!-- 703&#45;&gt;2516 -->
<g id="edge5" class="edge">
<title>703&#45;&gt;2516</title>
<path fill="none" stroke="#000000" d="M442.7402,-437.4586C424.7357,-426.0873 397.9742,-409.1853 377.5809,-396.3053"/>
<polygon fill="#000000" stroke="#000000" points="379.3187,-393.2633 368.9948,-390.8825 375.5807,-399.1817 379.3187,-393.2633"/>
</g>
<!-- 9498 -->
<g id="node40" class="node">
<title>9498</title>
<ellipse fill="none" stroke="#000000" cx="462.5975" cy="-378" rx="28.6953" ry="18"/>
<text text-anchor="middle" x="462.5975" y="-374.3" font-family="Times,serif" font-size="14.00" fill="#000000">9498</text>
</g>
<!-- 703&#45;&gt;9498 -->
<g id="edge6" class="edge">
<title>703&#45;&gt;9498</title>
<path fill="none" stroke="#000000" d="M462.5975,-431.8314C462.5975,-424.131 462.5975,-414.9743 462.5975,-406.4166"/>
<polygon fill="#000000" stroke="#000000" points="466.0976,-406.4132 462.5975,-396.4133 459.0976,-406.4133 466.0976,-406.4132"/>
</g>
<!-- 1221 -->
<g id="node5" class="node">
<title>1221</title>
<ellipse fill="none" stroke="#000000" cx="253.5975" cy="-90" rx="28.6953" ry="18"/>
<text text-anchor="middle" x="253.5975" y="-86.3" font-family="Times,serif" font-size="14.00" fill="#000000">1221</text>
</g>
<!-- 1239 -->
<g id="node6" class="node">
<title>1239</title>
<ellipse fill="none" stroke="#000000" cx="620.5975" cy="-234" rx="28.6953" ry="18"/>
<text text-anchor="middle" x="620.5975" y="-230.3" font-family="Times,serif" font-size="14.00" fill="#000000">1239</text>
</g>
<!-- 5511 -->
<g id="node27" class="node">
<title>5511</title>
<ellipse fill="none" stroke="#000000" cx="618.5975" cy="-162" rx="28.6953" ry="18"/>
<text text-anchor="middle" x="618.5975" y="-158.3" font-family="Times,serif" font-size="14.00" fill="#000000">5511</text>
</g>
<!-- 1239&#45;&gt;5511 -->
<g id="edge7" class="edge">
<title>1239&#45;&gt;5511</title>
<path fill="none" stroke="#000000" d="M620.0928,-215.8314C619.8789,-208.131 619.6245,-198.9743 619.3868,-190.4166"/>
<polygon fill="#000000" stroke="#000000" points="622.8854,-190.3122 619.1089,-180.4133 615.8881,-190.5066 622.8854,-190.3122"/>
</g>
<!-- 17676 -->
<g id="node49" class="node">
<title>17676</title>
<ellipse fill="none" stroke="#000000" cx="697.5975" cy="-162" rx="32.4942" ry="18"/>
<text text-anchor="middle" x="697.5975" y="-158.3" font-family="Times,serif" font-size="14.00" fill="#000000">17676</text>
</g>
<!-- 1239&#45;&gt;17676 -->
<g id="edge8" class="edge">
<title>1239&#45;&gt;17676</title>
<path fill="none" stroke="#000000" d="M636.9272,-218.7307C647.5739,-208.7753 661.652,-195.6114 673.5665,-184.4705"/>
<polygon fill="#000000" stroke="#000000" points="676.112,-186.882 681.0258,-177.4956 671.3311,-181.769 676.112,-186.882"/>
</g>
<!-- 1273 -->
<g id="node7" class="node">
<title>1273</title>
<ellipse fill="none" stroke="#000000" cx="620.5975" cy="-306" rx="28.6953" ry="18"/>
<text text-anchor="middle" x="620.5975" y="-302.3" font-family="Times,serif" font-size="14.00" fill="#000000">1273</text>
</g>
<!-- 1273&#45;&gt;1239 -->
<g id="edge9" class="edge">
<title>1273&#45;&gt;1239</title>
<path fill="none" stroke="#000000" d="M620.5975,-287.8314C620.5975,-280.131 620.5975,-270.9743 620.5975,-262.4166"/>
<polygon fill="#000000" stroke="#000000" points="624.0976,-262.4132 620.5975,-252.4133 617.0976,-262.4133 624.0976,-262.4132"/>
</g>
<!-- 6461 -->
<g id="node30" class="node">
<title>6461</title>
<ellipse fill="none" stroke="#000000" cx="499.5975" cy="-666" rx="28.6953" ry="18"/>
<text text-anchor="middle" x="499.5975" y="-662.3" font-family="Times,serif" font-size="14.00" fill="#000000">6461</text>
</g>
<!-- 1299&#45;&gt;6461 -->
<g id="edge10" class="edge">
<title>1299&#45;&gt;6461</title>
<path fill="none" stroke="#000000" d="M499.5975,-719.8314C499.5975,-712.131 499.5975,-702.9743 499.5975,-694.4166"/>
<polygon fill="#000000" stroke="#000000" points="503.0976,-694.4132 499.5975,-684.4133 496.0976,-694.4133 503.0976,-694.4132"/>
</g>
<!-- 2497 -->
<g id="node9" class="node">
<title>2497</title>
<ellipse fill="none" stroke="#000000" cx="499.5975" cy="-594" rx="28.6953" ry="18"/>
<text text-anchor="middle" x="499.5975" y="-590.3" font-family="Times,serif" font-size="14.00" fill="#000000">2497</text>
</g>
<!-- 2497&#45;&gt;701 -->
<g id="edge11" class="edge">
<title>2497&#45;&gt;701</title>
<path fill="none" stroke="#000000" d="M499.5975,-575.8314C499.5975,-568.131 499.5975,-558.9743 499.5975,-550.4166"/>
<polygon fill="#000000" stroke="#000000" points="503.0976,-550.4132 499.5975,-540.4133 496.0976,-550.4133 503.0976,-550.4132"/>
</g>
<!-- 32787 -->
<g id="node55" class="node">
<title>32787</title>
<ellipse fill="none" stroke="#000000" cx="308.5975" cy="-306" rx="32.4942" ry="18"/>
<text text-anchor="middle" x="308.5975" y="-302.3" font-family="Times,serif" font-size="14.00" fill="#000000">32787</text>
</g>
<!-- 2516&#45;&gt;32787 -->
<g id="edge12" class="edge">
<title>2516&#45;&gt;32787</title>
<path fill="none" stroke="#000000" d="M339.118,-360.937C334.356,-352.3654 328.4816,-341.7914 323.1622,-332.2165"/>
<polygon fill="#000000" stroke="#000000" points="326.2028,-330.4825 318.2867,-323.4407 320.0837,-333.882 326.2028,-330.4825"/>
</g>
<!-- 2686 -->
<g id="node11" class="node">
<title>2686</title>
<ellipse fill="none" stroke="#000000" cx="575.5975" cy="-1026" rx="28.6953" ry="18"/>
<text text-anchor="middle" x="575.5975" y="-1022.3" font-family="Times,serif" font-size="14.00" fill="#000000">2686</text>
</g>
<!-- 3741 -->
<g id="node22" class="node">
<title>3741</title>
<ellipse fill="none" stroke="#000000" cx="575.5975" cy="-954" rx="28.6953" ry="18"/>
<text text-anchor="middle" x="575.5975" y="-950.3" font-family="Times,serif" font-size="14.00" fill="#000000">3741</text>
</g>
<!-- 2686&#45;&gt;3741 -->
<g id="edge13" class="edge">
<title>2686&#45;&gt;3741</title>
<path fill="none" stroke="#000000" d="M575.5975,-1007.8314C575.5975,-1000.131 575.5975,-990.9743 575.5975,-982.4166"/>
<polygon fill="#000000" stroke="#000000" points="579.0976,-982.4132 575.5975,-972.4133 572.0976,-982.4133 579.0976,-982.4132"/>
</g>
<!-- 2687 -->
<g id="node12" class="node">
<title>2687</title>
<ellipse fill="none" stroke="#000000" cx="575.5975" cy="-1098" rx="28.6953" ry="18"/>
<text text-anchor="middle" x="575.5975" y="-1094.3" font-family="Times,serif" font-size="14.00" fill="#000000">2687</text>
</g>
<!-- 2687&#45;&gt;2686 -->
<g id="edge14" class="edge">
<title>2687&#45;&gt;2686</title>
<path fill="none" stroke="#000000" d="M575.5975,-1079.8314C575.5975,-1072.131 575.5975,-1062.9743 575.5975,-1054.4166"/>
<polygon fill="#000000" stroke="#000000" points="579.0976,-1054.4132 575.5975,-1044.4133 572.0976,-1054.4133 579.0976,-1054.4132"/>
</g>
<!-- 9505 -->
<g id="node41" class="node">
<title>9505</title>
<ellipse fill="none" stroke="#000000" cx="650.5975" cy="-1026" rx="28.6953" ry="18"/>
<text text-anchor="middle" x="650.5975" y="-1022.3" font-family="Times,serif" font-size="14.00" fill="#000000">9505</text>
</g>
<!-- 2687&#45;&gt;9505 -->
<g id="edge15" class="edge">
<title>2687&#45;&gt;9505</title>
<path fill="none" stroke="#000000" d="M591.503,-1082.7307C601.9438,-1072.7075 615.7723,-1059.4321 627.4272,-1048.2434"/>
<polygon fill="#000000" stroke="#000000" points="629.9248,-1050.6976 634.7148,-1041.2473 625.077,-1045.6478 629.9248,-1050.6976"/>
</g>
<!-- 2764 -->
<g id="node13" class="node">
<title>2764</title>
<ellipse fill="none" stroke="#000000" cx="235.5975" cy="-234" rx="28.6953" ry="18"/>
<text text-anchor="middle" x="235.5975" y="-230.3" font-family="Times,serif" font-size="14.00" fill="#000000">2764</text>
</g>
<!-- 7545 -->
<g id="node38" class="node">
<title>7545</title>
<ellipse fill="none" stroke="#000000" cx="138.5975" cy="-162" rx="28.6953" ry="18"/>
<text text-anchor="middle" x="138.5975" y="-158.3" font-family="Times,serif" font-size="14.00" fill="#000000">7545</text>
</g>
<!-- 2764&#45;&gt;7545 -->
<g id="edge16" class="edge">
<title>2764&#45;&gt;7545</title>
<path fill="none" stroke="#000000" d="M216.8949,-220.1177C202.268,-209.2606 181.7377,-194.0216 165.3695,-181.872"/>
<polygon fill="#000000" stroke="#000000" points="167.3584,-178.9895 157.2426,-175.8397 163.1863,-184.6103 167.3584,-178.9895"/>
</g>
<!-- 38333 -->
<g id="node57" class="node">
<title>38333</title>
<ellipse fill="none" stroke="#000000" cx="235.5975" cy="-162" rx="32.4942" ry="18"/>
<text text-anchor="middle" x="235.5975" y="-158.3" font-family="Times,serif" font-size="14.00" fill="#000000">38333</text>
</g>
<!-- 2764&#45;&gt;38333 -->
<g id="edge17" class="edge">
<title>2764&#45;&gt;38333</title>
<path fill="none" stroke="#000000" d="M235.5975,-215.8314C235.5975,-208.131 235.5975,-198.9743 235.5975,-190.4166"/>
<polygon fill="#000000" stroke="#000000" points="239.0976,-190.4132 235.5975,-180.4133 232.0976,-190.4133 239.0976,-190.4132"/>
</g>
<!-- 38561 -->
<g id="node58" class="node">
<title>38561</title>
<ellipse fill="none" stroke="#000000" cx="318.5975" cy="-162" rx="32.4942" ry="18"/>
<text text-anchor="middle" x="318.5975" y="-158.3" font-family="Times,serif" font-size="14.00" fill="#000000">38561</text>
</g>
<!-- 2764&#45;&gt;38561 -->
<g id="edge18" class="edge">
<title>2764&#45;&gt;38561</title>
<path fill="none" stroke="#000000" d="M252.3938,-219.4297C264.0835,-209.2892 279.8848,-195.5821 293.1185,-184.1023"/>
<polygon fill="#000000" stroke="#000000" points="295.7063,-186.4908 300.9667,-177.2941 291.1193,-181.2031 295.7063,-186.4908"/>
</g>
<!-- 2828 -->
<g id="node14" class="node">
<title>2828</title>
<ellipse fill="none" stroke="#000000" cx="387.5975" cy="-234" rx="28.6953" ry="18"/>
<text text-anchor="middle" x="387.5975" y="-230.3" font-family="Times,serif" font-size="14.00" fill="#000000">2828</text>
</g>
<!-- 2914 -->
<g id="node15" class="node">
<title>2914</title>
<ellipse fill="none" stroke="#000000" cx="500.5975" cy="-1170" rx="28.6953" ry="18"/>
<text text-anchor="middle" x="500.5975" y="-1166.3" font-family="Times,serif" font-size="14.00" fill="#000000">2914</text>
</g>
<!-- 6453 -->
<g id="node29" class="node">
<title>6453</title>
<ellipse fill="none" stroke="#000000" cx="500.5975" cy="-1098" rx="28.6953" ry="18"/>
<text text-anchor="middle" x="500.5975" y="-1094.3" font-family="Times,serif" font-size="14.00" fill="#000000">6453</text>
</g>
<!-- 2914&#45;&gt;6453 -->
<g id="edge19" class="edge">
<title>2914&#45;&gt;6453</title>
<path fill="none" stroke="#000000" d="M500.5975,-1151.8314C500.5975,-1144.131 500.5975,-1134.9743 500.5975,-1126.4166"/>
<polygon fill="#000000" stroke="#000000" points="504.0976,-1126.4132 500.5975,-1116.4133 497.0976,-1126.4133 504.0976,-1126.4132"/>
</g>
<!-- 3257 -->
<g id="node16" class="node">
<title>3257</title>
<ellipse fill="none" stroke="#000000" cx="500.5975" cy="-1026" rx="28.6953" ry="18"/>
<text text-anchor="middle" x="500.5975" y="-1022.3" font-family="Times,serif" font-size="14.00" fill="#000000">3257</text>
</g>
<!-- 3491 -->
<g id="node19" class="node">
<title>3491</title>
<ellipse fill="none" stroke="#000000" cx="500.5975" cy="-954" rx="28.6953" ry="18"/>
<text text-anchor="middle" x="500.5975" y="-950.3" font-family="Times,serif" font-size="14.00" fill="#000000">3491</text>
</g>
<!-- 3257&#45;&gt;3491 -->
<g id="edge20" class="edge">
<title>3257&#45;&gt;3491</title>
<path fill="none" stroke="#000000" d="M500.5975,-1007.8314C500.5975,-1000.131 500.5975,-990.9743 500.5975,-982.4166"/>
<polygon fill="#000000" stroke="#000000" points="504.0976,-982.4132 500.5975,-972.4133 497.0976,-982.4133 504.0976,-982.4132"/>
</g>
<!-- 3320 -->
<g id="node17" class="node">
<title>3320</title>
<ellipse fill="none" stroke="#000000" cx="578.5975" cy="-378" rx="28.6953" ry="18"/>
<text text-anchor="middle" x="578.5975" y="-374.3" font-family="Times,serif" font-size="14.00" fill="#000000">3320</text>
</g>
<!-- 3320&#45;&gt;1273 -->
<g id="edge21" class="edge">
<title>3320&#45;&gt;1273</title>
<path fill="none" stroke="#000000" d="M588.5509,-360.937C593.6245,-352.2393 599.9008,-341.4799 605.5505,-331.7948"/>
<polygon fill="#000000" stroke="#000000" points="608.7,-333.3419 610.7155,-322.9405 602.6535,-329.8148 608.7,-333.3419"/>
</g>
<!-- 3356 -->
<g id="node18" class="node">
<title>3356</title>
<ellipse fill="none" stroke="#000000" cx="574.5975" cy="-1386" rx="28.6953" ry="18"/>
<text text-anchor="middle" x="574.5975" y="-1382.3" font-family="Times,serif" font-size="14.00" fill="#000000">3356</text>
</g>
<!-- 3549 -->
<g id="node20" class="node">
<title>3549</title>
<ellipse fill="none" stroke="#000000" cx="574.5975" cy="-1314" rx="28.6953" ry="18"/>
<text text-anchor="middle" x="574.5975" y="-1310.3" font-family="Times,serif" font-size="14.00" fill="#000000">3549</text>
</g>
<!-- 3356&#45;&gt;3549 -->
<g id="edge22" class="edge">
<title>3356&#45;&gt;3549</title>
<path fill="none" stroke="#000000" d="M574.5975,-1367.8314C574.5975,-1360.131 574.5975,-1350.9743 574.5975,-1342.4166"/>
<polygon fill="#000000" stroke="#000000" points="578.0976,-1342.4132 574.5975,-1332.4133 571.0976,-1342.4133 578.0976,-1342.4132"/>
</g>
<!-- 3491&#45;&gt;174 -->
<g id="edge23" class="edge">
<title>3491&#45;&gt;174</title>
<path fill="none" stroke="#000000" d="M500.3451,-935.8314C500.2382,-928.131 500.111,-918.9743 499.9921,-910.4166"/>
<polygon fill="#000000" stroke="#000000" points="503.4918,-910.3637 499.8532,-900.4133 496.4925,-910.4609 503.4918,-910.3637"/>
</g>
<!-- 6762 -->
<g id="node31" class="node">
<title>6762</title>
<ellipse fill="none" stroke="#000000" cx="535.5975" cy="-1242" rx="28.6953" ry="18"/>
<text text-anchor="middle" x="535.5975" y="-1238.3" font-family="Times,serif" font-size="14.00" fill="#000000">6762</text>
</g>
<!-- 3549&#45;&gt;6762 -->
<g id="edge24" class="edge">
<title>3549&#45;&gt;6762</title>
<path fill="none" stroke="#000000" d="M565.355,-1296.937C560.7599,-1288.4537 555.1024,-1278.0092 549.9587,-1268.513"/>
<polygon fill="#000000" stroke="#000000" points="552.8849,-1266.5666 545.0445,-1259.4407 546.7299,-1269.9006 552.8849,-1266.5666"/>
</g>
<!-- 30070 -->
<g id="node54" class="node">
<title>30070</title>
<ellipse fill="none" stroke="#000000" cx="632.5975" cy="-1242" rx="32.4942" ry="18"/>
<text text-anchor="middle" x="632.5975" y="-1238.3" font-family="Times,serif" font-size="14.00" fill="#000000">30070</text>
</g>
<!-- 3549&#45;&gt;30070 -->
<g id="edge25" class="edge">
<title>3549&#45;&gt;30070</title>
<path fill="none" stroke="#000000" d="M587.7586,-1297.6621C595.1429,-1288.4953 604.5036,-1276.8751 612.7601,-1266.6257"/>
<polygon fill="#000000" stroke="#000000" points="615.5383,-1268.7561 619.0859,-1258.7729 610.087,-1264.3648 615.5383,-1268.7561"/>
</g>
<!-- 3597 -->
<g id="node21" class="node">
<title>3597</title>
<ellipse fill="none" stroke="#000000" cx="536.5975" cy="-1530" rx="28.6953" ry="18"/>
<text text-anchor="middle" x="536.5975" y="-1526.3" font-family="Times,serif" font-size="14.00" fill="#000000">3597</text>
</g>
<!-- 37179 -->
<g id="node56" class="node">
<title>37179</title>
<ellipse fill="none" stroke="#000000" cx="576.5975" cy="-882" rx="32.4942" ry="18"/>
<text text-anchor="middle" x="576.5975" y="-878.3" font-family="Times,serif" font-size="14.00" fill="#000000">37179</text>
</g>
<!-- 3741&#45;&gt;37179 -->
<g id="edge26" class="edge">
<title>3741&#45;&gt;37179</title>
<path fill="none" stroke="#000000" d="M575.8498,-935.8314C575.9568,-928.131 576.0839,-918.9743 576.2028,-910.4166"/>
<polygon fill="#000000" stroke="#000000" points="579.7024,-910.4609 576.3417,-900.4133 572.7031,-910.3637 579.7024,-910.4609"/>
</g>
<!-- 4635 -->
<g id="node23" class="node">
<title>4635</title>
<ellipse fill="none" stroke="#000000" cx="28.5975" cy="-90" rx="28.6953" ry="18"/>
<text text-anchor="middle" x="28.5975" y="-86.3" font-family="Times,serif" font-size="14.00" fill="#000000">4635</text>
</g>
<!-- 4637 -->
<g id="node24" class="node">
<title>4637</title>
<ellipse fill="none" stroke="#000000" cx="387.5975" cy="-306" rx="28.6953" ry="18"/>
<text text-anchor="middle" x="387.5975" y="-302.3" font-family="Times,serif" font-size="14.00" fill="#000000">4637</text>
</g>
<!-- 4637&#45;&gt;2828 -->
<g id="edge27" class="edge">
<title>4637&#45;&gt;2828</title>
<path fill="none" stroke="#000000" d="M387.5975,-287.8314C387.5975,-280.131 387.5975,-270.9743 387.5975,-262.4166"/>
<polygon fill="#000000" stroke="#000000" points="391.0976,-262.4132 387.5975,-252.4133 384.0976,-262.4133 391.0976,-262.4132"/>
</g>
<!-- 4739 -->
<g id="node25" class="node">
<title>4739</title>
<ellipse fill="none" stroke="#000000" cx="103.5975" cy="-90" rx="28.6953" ry="18"/>
<text text-anchor="middle" x="103.5975" y="-86.3" font-family="Times,serif" font-size="14.00" fill="#000000">4739</text>
</g>
<!-- 38880 -->
<g id="node59" class="node">
<title>38880</title>
<ellipse fill="none" stroke="#000000" cx="103.5975" cy="-18" rx="32.4942" ry="18"/>
<text text-anchor="middle" x="103.5975" y="-14.3" font-family="Times,serif" font-size="14.00" fill="#000000">38880</text>
</g>
<!-- 4739&#45;&gt;38880 -->
<g id="edge28" class="edge">
<title>4739&#45;&gt;38880</title>
<path fill="none" stroke="#000000" d="M103.5975,-71.8314C103.5975,-64.131 103.5975,-54.9743 103.5975,-46.4166"/>
<polygon fill="#000000" stroke="#000000" points="107.0976,-46.4132 103.5975,-36.4133 100.0976,-46.4133 107.0976,-46.4132"/>
</g>
<!-- 4755 -->
<g id="node26" class="node">
<title>4755</title>
<ellipse fill="none" stroke="#000000" cx="541.5975" cy="-234" rx="28.6953" ry="18"/>
<text text-anchor="middle" x="541.5975" y="-230.3" font-family="Times,serif" font-size="14.00" fill="#000000">4755</text>
</g>
<!-- 9583 -->
<g id="node42" class="node">
<title>9583</title>
<ellipse fill="none" stroke="#000000" cx="541.5975" cy="-162" rx="28.6953" ry="18"/>
<text text-anchor="middle" x="541.5975" y="-158.3" font-family="Times,serif" font-size="14.00" fill="#000000">9583</text>
</g>
<!-- 4755&#45;&gt;9583 -->
<g id="edge29" class="edge">
<title>4755&#45;&gt;9583</title>
<path fill="none" stroke="#000000" d="M541.5975,-215.8314C541.5975,-208.131 541.5975,-198.9743 541.5975,-190.4166"/>
<polygon fill="#000000" stroke="#000000" points="545.0976,-190.4132 541.5975,-180.4133 538.0976,-190.4133 545.0976,-190.4132"/>
</g>
<!-- 5692 -->
<g id="node28" class="node">
<title>5692</title>
<ellipse fill="none" stroke="#000000" cx="1030.5975" cy="-1602" rx="28.6953" ry="18"/>
<text text-anchor="middle" x="1030.5975" y="-1598.3" font-family="Times,serif" font-size="14.00" fill="#000000">5692</text>
</g>
<!-- 5692&#45;&gt;3597 -->
<g id="edge30" class="edge">
<title>5692&#45;&gt;3597</title>
<path fill="none" stroke="#000000" d="M1002.0129,-1599.8332C915.2338,-1593.0637 655.8067,-1571.3629 574.5975,-1548 572.4315,-1547.3769 570.2352,-1546.6422 568.0474,-1545.832"/>
<polygon fill="#000000" stroke="#000000" points="569.2078,-1542.5239 558.6309,-1541.9077 566.515,-1548.9852 569.2078,-1542.5239"/>
</g>
<!-- 10834 -->
<g id="node45" class="node">
<title>10834</title>
<ellipse fill="none" stroke="#000000" cx="615.5975" cy="-1530" rx="32.4942" ry="18"/>
<text text-anchor="middle" x="615.5975" y="-1526.3" font-family="Times,serif" font-size="14.00" fill="#000000">10834</text>
</g>
<!-- 5692&#45;&gt;10834 -->
<g id="edge31" class="edge">
<title>5692&#45;&gt;10834</title>
<path fill="none" stroke="#000000" d="M1001.9984,-1600.4071C938.8035,-1596.3384 782.9382,-1583.2744 657.5975,-1548 655.1252,-1547.3042 652.6065,-1546.4966 650.0926,-1545.6164"/>
<polygon fill="#000000" stroke="#000000" points="651.1197,-1542.2617 640.5296,-1541.946 648.6114,-1548.7969 651.1197,-1542.2617"/>
</g>
<!-- 11008 -->
<g id="node46" class="node">
<title>11008</title>
<ellipse fill="none" stroke="#000000" cx="698.5975" cy="-1530" rx="32.4942" ry="18"/>
<text text-anchor="middle" x="698.5975" y="-1526.3" font-family="Times,serif" font-size="14.00" fill="#000000">11008</text>
</g>
<!-- 5692&#45;&gt;11008 -->
<g id="edge32" class="edge">
<title>5692&#45;&gt;11008</title>
<path fill="none" stroke="#000000" d="M1002.1076,-1598.8151C949.5615,-1592.4771 834.2025,-1576.3918 740.5975,-1548 738.1397,-1547.2545 735.6318,-1546.4097 733.1259,-1545.5026"/>
<polygon fill="#000000" stroke="#000000" points="734.168,-1542.1522 723.5799,-1541.7737 731.621,-1548.6724 734.168,-1542.1522"/>
</g>
<!-- 27865 -->
<g id="node52" class="node">
<title>27865</title>
<ellipse fill="none" stroke="#000000" cx="781.5975" cy="-1530" rx="32.4942" ry="18"/>
<text text-anchor="middle" x="781.5975" y="-1526.3" font-family="Times,serif" font-size="14.00" fill="#000000">27865</text>
</g>
<!-- 5692&#45;&gt;27865 -->
<g id="edge33" class="edge">
<title>5692&#45;&gt;27865</title>
<path fill="none" stroke="#000000" d="M1003.4202,-1596.2764C963.4864,-1587.5606 886.8418,-1569.6654 823.5975,-1548 821.1677,-1547.1677 818.6808,-1546.258 816.1901,-1545.3038"/>
<polygon fill="#000000" stroke="#000000" points="817.2607,-1541.9618 806.6771,-1541.4727 814.6457,-1548.455 817.2607,-1541.9618"/>
</g>
<!-- 28065 -->
<g id="node53" class="node">
<title>28065</title>
<ellipse fill="none" stroke="#000000" cx="864.5975" cy="-1530" rx="32.4942" ry="18"/>
<text text-anchor="middle" x="864.5975" y="-1526.3" font-family="Times,serif" font-size="14.00" fill="#000000">28065</text>
</g>
<!-- 5692&#45;&gt;28065 -->
<g id="edge34" class="edge">
<title>5692&#45;&gt;28065</title>
<path fill="none" stroke="#000000" d="M1006.8137,-1591.6842C978.7843,-1579.5268 931.9549,-1559.2153 899.7384,-1545.2419"/>
<polygon fill="#000000" stroke="#000000" points="900.8133,-1541.8931 890.2463,-1541.1248 898.0278,-1548.315 900.8133,-1541.8931"/>
</g>
<!-- 52317 -->
<g id="node60" class="node">
<title>52317</title>
<ellipse fill="none" stroke="#000000" cx="947.5975" cy="-1530" rx="32.4942" ry="18"/>
<text text-anchor="middle" x="947.5975" y="-1526.3" font-family="Times,serif" font-size="14.00" fill="#000000">52317</text>
</g>
<!-- 5692&#45;&gt;52317 -->
<g id="edge35" class="edge">
<title>5692&#45;&gt;52317</title>
<path fill="none" stroke="#000000" d="M1013.8012,-1587.4297C1002.1114,-1577.2892 986.3101,-1563.5821 973.0765,-1552.1023"/>
<polygon fill="#000000" stroke="#000000" points="975.0756,-1549.2031 965.2282,-1545.2941 970.4886,-1554.4908 975.0756,-1549.2031"/>
</g>
<!-- 52375 -->
<g id="node61" class="node">
<title>52375</title>
<ellipse fill="none" stroke="#000000" cx="1030.5975" cy="-1530" rx="32.4942" ry="18"/>
<text text-anchor="middle" x="1030.5975" y="-1526.3" font-family="Times,serif" font-size="14.00" fill="#000000">52375</text>
</g>
<!-- 5692&#45;&gt;52375 -->
<g id="edge36" class="edge">
<title>5692&#45;&gt;52375</title>
<path fill="none" stroke="#000000" d="M1030.5975,-1583.8314C1030.5975,-1576.131 1030.5975,-1566.9743 1030.5975,-1558.4166"/>
<polygon fill="#000000" stroke="#000000" points="1034.0976,-1558.4132 1030.5975,-1548.4133 1027.0976,-1558.4133 1034.0976,-1558.4132"/>
</g>
<!-- 52376 -->
<g id="node62" class="node">
<title>52376</title>
<ellipse fill="none" stroke="#000000" cx="1113.5975" cy="-1530" rx="32.4942" ry="18"/>
<text text-anchor="middle" x="1113.5975" y="-1526.3" font-family="Times,serif" font-size="14.00" fill="#000000">52376</text>
</g>
<!-- 5692&#45;&gt;52376 -->
<g id="edge37" class="edge">
<title>5692&#45;&gt;52376</title>
<path fill="none" stroke="#000000" d="M1047.3938,-1587.4297C1059.0835,-1577.2892 1074.8848,-1563.5821 1088.1185,-1552.1023"/>
<polygon fill="#000000" stroke="#000000" points="1090.7063,-1554.4908 1095.9667,-1545.2941 1086.1193,-1549.2031 1090.7063,-1554.4908"/>
</g>
<!-- 52380 -->
<g id="node63" class="node">
<title>52380</title>
<ellipse fill="none" stroke="#000000" cx="1196.5975" cy="-1530" rx="32.4942" ry="18"/>
<text text-anchor="middle" x="1196.5975" y="-1526.3" font-family="Times,serif" font-size="14.00" fill="#000000">52380</text>
</g>
<!-- 5692&#45;&gt;52380 -->
<g id="edge38" class="edge">
<title>5692&#45;&gt;52380</title>
<path fill="none" stroke="#000000" d="M1054.3812,-1591.6842C1082.4107,-1579.5268 1129.24,-1559.2153 1161.4565,-1545.2419"/>
<polygon fill="#000000" stroke="#000000" points="1163.1671,-1548.315 1170.9486,-1541.1248 1160.3816,-1541.8931 1163.1671,-1548.315"/>
</g>
<!-- 52413 -->
<g id="node64" class="node">
<title>52413</title>
<ellipse fill="none" stroke="#000000" cx="1279.5975" cy="-1530" rx="32.4942" ry="18"/>
<text text-anchor="middle" x="1279.5975" y="-1526.3" font-family="Times,serif" font-size="14.00" fill="#000000">52413</text>
</g>
<!-- 5692&#45;&gt;52413 -->
<g id="edge39" class="edge">
<title>5692&#45;&gt;52413</title>
<path fill="none" stroke="#000000" d="M1057.7748,-1596.2764C1097.7085,-1587.5606 1174.3531,-1569.6654 1237.5975,-1548 1240.0272,-1547.1677 1242.5141,-1546.258 1245.0048,-1545.3038"/>
<polygon fill="#000000" stroke="#000000" points="1246.5493,-1548.455 1254.5178,-1541.4727 1243.9342,-1541.9618 1246.5493,-1548.455"/>
</g>
<!-- 52431 -->
<g id="node65" class="node">
<title>52431</title>
<ellipse fill="none" stroke="#000000" cx="1362.5975" cy="-1530" rx="32.4942" ry="18"/>
<text text-anchor="middle" x="1362.5975" y="-1526.3" font-family="Times,serif" font-size="14.00" fill="#000000">52431</text>
</g>
<!-- 5692&#45;&gt;52431 -->
<g id="edge40" class="edge">
<title>5692&#45;&gt;52431</title>
<path fill="none" stroke="#000000" d="M1059.0873,-1598.8151C1111.6335,-1592.4771 1226.9924,-1576.3918 1320.5975,-1548 1323.0552,-1547.2545 1325.5631,-1546.4097 1328.069,-1545.5026"/>
<polygon fill="#000000" stroke="#000000" points="1329.5739,-1548.6724 1337.615,-1541.7737 1327.0269,-1542.1522 1329.5739,-1548.6724"/>
</g>
<!-- 262230 -->
<g id="node66" class="node">
<title>262230</title>
<ellipse fill="none" stroke="#000000" cx="1450.5975" cy="-1530" rx="37.0935" ry="18"/>
<text text-anchor="middle" x="1450.5975" y="-1526.3" font-family="Times,serif" font-size="14.00" fill="#000000">262230</text>
</g>
<!-- 5692&#45;&gt;262230 -->
<g id="edge41" class="edge">
<title>5692&#45;&gt;262230</title>
<path fill="none" stroke="#000000" d="M1059.0975,-1600.0413C1122.0947,-1595.243 1277.5904,-1580.8146 1403.5975,-1548 1406.726,-1547.1853 1409.9321,-1546.23 1413.1278,-1545.1919"/>
<polygon fill="#000000" stroke="#000000" points="1414.3086,-1548.4869 1422.5963,-1541.8866 1412.0015,-1541.878 1414.3086,-1548.4869"/>
</g>
<!-- 264608 -->
<g id="node67" class="node">
<title>264608</title>
<ellipse fill="none" stroke="#000000" cx="1542.5975" cy="-1530" rx="37.0935" ry="18"/>
<text text-anchor="middle" x="1542.5975" y="-1526.3" font-family="Times,serif" font-size="14.00" fill="#000000">264608</text>
</g>
<!-- 5692&#45;&gt;264608 -->
<g id="edge42" class="edge">
<title>5692&#45;&gt;264608</title>
<path fill="none" stroke="#000000" d="M1059.4231,-1601.2303C1133.2246,-1598.71 1334.5895,-1588.3639 1496.5975,-1548 1499.4059,-1547.3003 1502.2734,-1546.4722 1505.1355,-1545.5618"/>
<polygon fill="#000000" stroke="#000000" points="1506.4576,-1548.8076 1514.7522,-1542.216 1504.1574,-1542.1963 1506.4576,-1548.8076"/>
</g>
<!-- 6453&#45;&gt;3257 -->
<g id="edge43" class="edge">
<title>6453&#45;&gt;3257</title>
<path fill="none" stroke="#000000" d="M500.5975,-1079.8314C500.5975,-1072.131 500.5975,-1062.9743 500.5975,-1054.4166"/>
<polygon fill="#000000" stroke="#000000" points="504.0976,-1054.4132 500.5975,-1044.4133 497.0976,-1054.4133 504.0976,-1054.4132"/>
</g>
<!-- 6461&#45;&gt;2497 -->
<g id="edge44" class="edge">
<title>6461&#45;&gt;2497</title>
<path fill="none" stroke="#000000" d="M499.5975,-647.8314C499.5975,-640.131 499.5975,-630.9743 499.5975,-622.4166"/>
<polygon fill="#000000" stroke="#000000" points="503.0976,-622.4132 499.5975,-612.4133 496.0976,-622.4133 503.0976,-622.4132"/>
</g>
<!-- 6762&#45;&gt;2914 -->
<g id="edge45" class="edge">
<title>6762&#45;&gt;2914</title>
<path fill="none" stroke="#000000" d="M527.1249,-1224.5708C522.9978,-1216.0807 517.9482,-1205.6929 513.3663,-1196.2674"/>
<polygon fill="#000000" stroke="#000000" points="516.5117,-1194.7322 508.992,-1187.2687 510.2162,-1197.7926 516.5117,-1194.7322"/>
</g>
<!-- 6904 -->
<g id="node32" class="node">
<title>6904</title>
<ellipse fill="none" stroke="#000000" cx="575.5975" cy="-1170" rx="28.6953" ry="18"/>
<text text-anchor="middle" x="575.5975" y="-1166.3" font-family="Times,serif" font-size="14.00" fill="#000000">6904</text>
</g>
<!-- 6904&#45;&gt;2687 -->
<g id="edge46" class="edge">
<title>6904&#45;&gt;2687</title>
<path fill="none" stroke="#000000" d="M575.5975,-1151.8314C575.5975,-1144.131 575.5975,-1134.9743 575.5975,-1126.4166"/>
<polygon fill="#000000" stroke="#000000" points="579.0976,-1126.4132 575.5975,-1116.4133 572.0976,-1126.4133 579.0976,-1126.4132"/>
</g>
<!-- 6939 -->
<g id="node33" class="node">
<title>6939</title>
<ellipse fill="none" stroke="#000000" cx="697.5975" cy="-90" rx="28.6953" ry="18"/>
<text text-anchor="middle" x="697.5975" y="-86.3" font-family="Times,serif" font-size="14.00" fill="#000000">6939</text>
</g>
<!-- 12266 -->
<g id="node47" class="node">
<title>12266</title>
<ellipse fill="none" stroke="#000000" cx="697.5975" cy="-18" rx="32.4942" ry="18"/>
<text text-anchor="middle" x="697.5975" y="-14.3" font-family="Times,serif" font-size="14.00" fill="#000000">12266</text>
</g>
<!-- 6939&#45;&gt;12266 -->
<g id="edge47" class="edge">
<title>6939&#45;&gt;12266</title>
<path fill="none" stroke="#000000" d="M697.5975,-71.8314C697.5975,-64.131 697.5975,-54.9743 697.5975,-46.4166"/>
<polygon fill="#000000" stroke="#000000" points="701.0976,-46.4132 697.5975,-36.4133 694.0976,-46.4133 701.0976,-46.4132"/>
</g>
<!-- 7016 -->
<g id="node34" class="node">
<title>7016</title>
<ellipse fill="none" stroke="#000000" cx="650.5975" cy="-1170" rx="28.6953" ry="18"/>
<text text-anchor="middle" x="650.5975" y="-1166.3" font-family="Times,serif" font-size="14.00" fill="#000000">7016</text>
</g>
<!-- 7922 -->
<g id="node39" class="node">
<title>7922</title>
<ellipse fill="none" stroke="#000000" cx="650.5975" cy="-1098" rx="28.6953" ry="18"/>
<text text-anchor="middle" x="650.5975" y="-1094.3" font-family="Times,serif" font-size="14.00" fill="#000000">7922</text>
</g>
<!-- 7016&#45;&gt;7922 -->
<g id="edge48" class="edge">
<title>7016&#45;&gt;7922</title>
<path fill="none" stroke="#000000" d="M650.5975,-1151.8314C650.5975,-1144.131 650.5975,-1134.9743 650.5975,-1126.4166"/>
<polygon fill="#000000" stroke="#000000" points="654.0976,-1126.4132 650.5975,-1116.4133 647.0976,-1126.4133 654.0976,-1126.4132"/>
</g>
<!-- 7018&#45;&gt;3320 -->
<g id="edge49" class="edge">
<title>7018&#45;&gt;3320</title>
<path fill="none" stroke="#000000" d="M562.7885,-432.2022C565.1359,-424.1541 567.9636,-414.4588 570.5747,-405.5067"/>
<polygon fill="#000000" stroke="#000000" points="573.9533,-406.4226 573.3934,-395.8425 567.2333,-404.4625 573.9533,-406.4226"/>
</g>
<!-- 7473 -->
<g id="node36" class="node">
<title>7473</title>
<ellipse fill="none" stroke="#000000" cx="462.5975" cy="-306" rx="28.6953" ry="18"/>
<text text-anchor="middle" x="462.5975" y="-302.3" font-family="Times,serif" font-size="14.00" fill="#000000">7473</text>
</g>
<!-- 7474 -->
<g id="node37" class="node">
<title>7474</title>
<ellipse fill="none" stroke="#000000" cx="310.5975" cy="-234" rx="28.6953" ry="18"/>
<text text-anchor="middle" x="310.5975" y="-230.3" font-family="Times,serif" font-size="14.00" fill="#000000">7474</text>
</g>
<!-- 7545&#45;&gt;4635 -->
<g id="edge50" class="edge">
<title>7545&#45;&gt;4635</title>
<path fill="none" stroke="#000000" d="M118.6773,-148.9613C101.4967,-137.7159 76.4781,-121.3401 57.1648,-108.6986"/>
<polygon fill="#000000" stroke="#000000" points="59.025,-105.7331 48.7412,-103.185 55.1914,-111.5901 59.025,-105.7331"/>
</g>
<!-- 7545&#45;&gt;4739 -->
<g id="edge51" class="edge">
<title>7545&#45;&gt;4739</title>
<path fill="none" stroke="#000000" d="M130.1249,-144.5708C125.9978,-136.0807 120.9482,-125.6929 116.3663,-116.2674"/>
<polygon fill="#000000" stroke="#000000" points="119.5117,-114.7322 111.992,-107.2687 113.2162,-117.7926 119.5117,-114.7322"/>
</g>
<!-- 9942 -->
<g id="node43" class="node">
<title>9942</title>
<ellipse fill="none" stroke="#000000" cx="178.5975" cy="-90" rx="28.6953" ry="18"/>
<text text-anchor="middle" x="178.5975" y="-86.3" font-family="Times,serif" font-size="14.00" fill="#000000">9942</text>
</g>
<!-- 7545&#45;&gt;9942 -->
<g id="edge52" class="edge">
<title>7545&#45;&gt;9942</title>
<path fill="none" stroke="#000000" d="M148.0769,-144.937C152.8389,-136.3654 158.7134,-125.7914 164.0327,-116.2165"/>
<polygon fill="#000000" stroke="#000000" points="167.1113,-117.882 168.9082,-107.4407 160.9922,-114.4825 167.1113,-117.882"/>
</g>
<!-- 9498&#45;&gt;4637 -->
<g id="edge53" class="edge">
<title>9498&#45;&gt;4637</title>
<path fill="none" stroke="#000000" d="M446.6919,-362.7307C436.2512,-352.7075 422.4226,-339.4321 410.7677,-328.2434"/>
<polygon fill="#000000" stroke="#000000" points="413.1179,-325.6478 403.4801,-321.2473 408.2701,-330.6976 413.1179,-325.6478"/>
</g>
<!-- 9498&#45;&gt;7473 -->
<g id="edge54" class="edge">
<title>9498&#45;&gt;7473</title>
<path fill="none" stroke="#000000" d="M462.5975,-359.8314C462.5975,-352.131 462.5975,-342.9743 462.5975,-334.4166"/>
<polygon fill="#000000" stroke="#000000" points="466.0976,-334.4132 462.5975,-324.4133 459.0976,-334.4133 466.0976,-334.4132"/>
</g>
<!-- 10026 -->
<g id="node44" class="node">
<title>10026</title>
<ellipse fill="none" stroke="#000000" cx="541.5975" cy="-306" rx="32.4942" ry="18"/>
<text text-anchor="middle" x="541.5975" y="-302.3" font-family="Times,serif" font-size="14.00" fill="#000000">10026</text>
</g>
<!-- 9498&#45;&gt;10026 -->
<g id="edge55" class="edge">
<title>9498&#45;&gt;10026</title>
<path fill="none" stroke="#000000" d="M478.9663,-363.0816C489.9401,-353.0801 504.5916,-339.7269 516.9644,-328.4504"/>
<polygon fill="#000000" stroke="#000000" points="519.6712,-330.719 524.7045,-321.3961 514.9559,-325.5453 519.6712,-330.719"/>
</g>
<!-- 10026&#45;&gt;4755 -->
<g id="edge56" class="edge">
<title>10026&#45;&gt;4755</title>
<path fill="none" stroke="#000000" d="M541.5975,-287.8314C541.5975,-280.131 541.5975,-270.9743 541.5975,-262.4166"/>
<polygon fill="#000000" stroke="#000000" points="545.0976,-262.4132 541.5975,-252.4133 538.0976,-262.4133 545.0976,-262.4132"/>
</g>
<!-- 12956 -->
<g id="node48" class="node">
<title>12956</title>
<ellipse fill="none" stroke="#000000" cx="574.5975" cy="-1458" rx="32.4942" ry="18"/>
<text text-anchor="middle" x="574.5975" y="-1454.3" font-family="Times,serif" font-size="14.00" fill="#000000">12956</text>
</g>
<!-- 10834&#45;&gt;12956 -->
<g id="edge57" class="edge">
<title>10834&#45;&gt;12956</title>
<path fill="none" stroke="#000000" d="M605.6725,-1512.5708C600.7875,-1503.9922 594.7992,-1493.4762 589.3877,-1483.9732"/>
<polygon fill="#000000" stroke="#000000" points="592.4209,-1482.2266 584.431,-1475.2687 586.338,-1485.6905 592.4209,-1482.2266"/>
</g>
<!-- 22927 -->
<g id="node51" class="node">
<title>22927</title>
<ellipse fill="none" stroke="#000000" cx="657.5975" cy="-1458" rx="32.4942" ry="18"/>
<text text-anchor="middle" x="657.5975" y="-1454.3" font-family="Times,serif" font-size="14.00" fill="#000000">22927</text>
</g>
<!-- 10834&#45;&gt;22927 -->
<g id="edge58" class="edge">
<title>10834&#45;&gt;22927</title>
<path fill="none" stroke="#000000" d="M625.7645,-1512.5708C630.7687,-1503.9922 636.903,-1493.4762 642.4464,-1483.9732"/>
<polygon fill="#000000" stroke="#000000" points="645.5085,-1485.6701 647.5241,-1475.2687 639.4621,-1482.1429 645.5085,-1485.6701"/>
</g>
<!-- 12956&#45;&gt;3356 -->
<g id="edge59" class="edge">
<title>12956&#45;&gt;3356</title>
<path fill="none" stroke="#000000" d="M574.5975,-1439.8314C574.5975,-1432.131 574.5975,-1422.9743 574.5975,-1414.4166"/>
<polygon fill="#000000" stroke="#000000" points="578.0976,-1414.4132 574.5975,-1404.4133 571.0976,-1414.4133 578.0976,-1414.4132"/>
</g>
<!-- 17676&#45;&gt;6939 -->
<g id="edge60" class="edge">
<title>17676&#45;&gt;6939</title>
<path fill="none" stroke="#000000" d="M697.5975,-143.8314C697.5975,-136.131 697.5975,-126.9743 697.5975,-118.4166"/>
<polygon fill="#000000" stroke="#000000" points="701.0976,-118.4132 697.5975,-108.4133 694.0976,-118.4133 701.0976,-118.4132"/>
</g>
<!-- 18540 -->
<g id="node50" class="node">
<title>18540</title>
<ellipse fill="none" stroke="#000000" cx="729.5975" cy="-1170" rx="32.4942" ry="18"/>
<text text-anchor="middle" x="729.5975" y="-1166.3" font-family="Times,serif" font-size="14.00" fill="#000000">18540</text>
</g>
<!-- 30070&#45;&gt;6904 -->
<g id="edge61" class="edge">
<title>30070&#45;&gt;6904</title>
<path fill="none" stroke="#000000" d="M619.3772,-1225.3008C612.0074,-1215.9915 602.7021,-1204.2374 594.5674,-1193.9621"/>
<polygon fill="#000000" stroke="#000000" points="597.3051,-1191.7814 588.3539,-1186.1134 591.8168,-1196.1263 597.3051,-1191.7814"/>
</g>
<!-- 30070&#45;&gt;7016 -->
<g id="edge62" class="edge">
<title>30070&#45;&gt;7016</title>
<path fill="none" stroke="#000000" d="M637.1396,-1223.8314C639.1158,-1215.9266 641.4757,-1206.4872 643.6633,-1197.7365"/>
<polygon fill="#000000" stroke="#000000" points="647.0892,-1198.4637 646.1191,-1187.9134 640.2982,-1196.7659 647.0892,-1198.4637"/>
</g>
<!-- 30070&#45;&gt;18540 -->
<g id="edge63" class="edge">
<title>30070&#45;&gt;18540</title>
<path fill="none" stroke="#000000" d="M652.2269,-1227.4297C666.4264,-1216.8899 685.8169,-1202.4969 701.6336,-1190.7567"/>
<polygon fill="#000000" stroke="#000000" points="704.0536,-1193.3192 709.9973,-1184.5486 699.8815,-1187.6984 704.0536,-1193.3192"/>
</g>
<!-- 32787&#45;&gt;2764 -->
<g id="edge64" class="edge">
<title>32787&#45;&gt;2764</title>
<path fill="none" stroke="#000000" d="M292.3964,-290.0209C282.4308,-280.1918 269.505,-267.4431 258.5023,-256.591"/>
<polygon fill="#000000" stroke="#000000" points="260.8296,-253.9706 251.2522,-249.4403 255.9141,-258.9543 260.8296,-253.9706"/>
</g>
<!-- 32787&#45;&gt;7474 -->
<g id="edge65" class="edge">
<title>32787&#45;&gt;7474</title>
<path fill="none" stroke="#000000" d="M309.1021,-287.8314C309.316,-280.131 309.5704,-270.9743 309.8081,-262.4166"/>
<polygon fill="#000000" stroke="#000000" points="313.3069,-262.5066 310.086,-252.4133 306.3096,-262.3122 313.3069,-262.5066"/>
</g>
<!-- 38333&#45;&gt;1221 -->
<g id="edge66" class="edge">
<title>38333&#45;&gt;1221</title>
<path fill="none" stroke="#000000" d="M240.1396,-143.8314C242.1158,-135.9266 244.4757,-126.4872 246.6633,-117.7365"/>
<polygon fill="#000000" stroke="#000000" points="250.0892,-118.4637 249.1191,-107.9134 243.2982,-116.7659 250.0892,-118.4637"/>
</g>
</g>
</svg>
