<?xml version="1.0" encoding="UTF-8" standalone="no"?>
<!DOCTYPE svg PUBLIC "-//W3C//DTD SVG 1.1//EN"
 "http://www.w3.org/Graphics/SVG/1.1/DTD/svg11.dtd">
<!-- Generated by graphviz version 2.40.1 (20161225.0304)
 -->
<!-- Title: %3 Pages: 1 -->
<svg width="7343pt" height="3407pt"
 viewBox="0.00 0.00 7342.90 3407.21" xmlns="http://www.w3.org/2000/svg" xmlns:xlink="http://www.w3.org/1999/xlink">
<g id="graph0" class="graph" transform="scale(1 1) rotate(0) translate(4 3403.2059)">
<title>%3</title>
<polygon fill="#ffffff" stroke="transparent" points="-4,4 -4,-3403.2059 7338.9009,-3403.2059 7338.9009,4 -4,4"/>
<!-- 174 -->
<g id="node1" class="node">
<title>174</title>
<ellipse fill="none" stroke="#000000" cx="3580.5778" cy="-1589.3003" rx="27" ry="18"/>
<text text-anchor="middle" x="3580.5778" y="-1585.6003" font-family="Times,serif" font-size="14.00" fill="#000000">174</text>
</g>
<!-- 209 -->
<g id="node2" class="node">
<title>209</title>
<ellipse fill="none" stroke="#000000" cx="4043.7543" cy="-1589.3003" rx="27" ry="18"/>
<text text-anchor="middle" x="4043.7543" y="-1585.6003" font-family="Times,serif" font-size="14.00" fill="#000000">209</text>
</g>
<!-- 174&#45;&gt;209 -->
<g id="edge1" class="edge">
<title>174&#45;&gt;209</title>
<path fill="none" stroke="#000000" d="M3607.8224,-1589.3003C3686.8178,-1589.3003 3916.0761,-1589.3003 4006.477,-1589.3003"/>
<polygon fill="#000000" stroke="#000000" points="4006.544,-1592.8004 4016.544,-1589.3003 4006.5439,-1585.8004 4006.544,-1592.8004"/>
</g>
<!-- 1299 -->
<g id="node7" class="node">
<title>1299</title>
<ellipse fill="none" stroke="#000000" cx="4171.3517" cy="-1589.3003" rx="28.6953" ry="18"/>
<text text-anchor="middle" x="4171.3517" y="-1585.6003" font-family="Times,serif" font-size="14.00" fill="#000000">1299</text>
</g>
<!-- 209&#45;&gt;1299 -->
<g id="edge2" class="edge">
<title>209&#45;&gt;1299</title>
<path fill="none" stroke="#000000" d="M4070.8144,-1589.3003C4088.7555,-1589.3003 4112.5767,-1589.3003 4132.5282,-1589.3003"/>
<polygon fill="#000000" stroke="#000000" points="4132.5573,-1592.8004 4142.5573,-1589.3003 4132.5572,-1585.8004 4132.5573,-1592.8004"/>
</g>
<!-- 701 -->
<g id="node3" class="node">
<title>701</title>
<ellipse fill="none" stroke="#000000" cx="6523.2652" cy="-1589.3003" rx="27" ry="18"/>
<text text-anchor="middle" x="6523.2652" y="-1585.6003" font-family="Times,serif" font-size="14.00" fill="#000000">701</text>
</g>
<!-- 703 -->
<g id="node4" class="node">
<title>703</title>
<ellipse fill="none" stroke="#000000" cx="6523.2652" cy="-543.3373" rx="27" ry="18"/>
<text text-anchor="middle" x="6523.2652" y="-539.6373" font-family="Times,serif" font-size="14.00" fill="#000000">703</text>
</g>
<!-- 701&#45;&gt;703 -->
<g id="edge3" class="edge">
<title>701&#45;&gt;703</title>
<path fill="none" stroke="#000000" d="M6523.2652,-1571.1457C6523.2652,-1447.156 6523.2652,-725.4645 6523.2652,-572.016"/>
<polygon fill="#000000" stroke="#000000" points="6526.7653,-571.5816 6523.2652,-561.5817 6519.7653,-571.5817 6526.7653,-571.5816"/>
</g>
<!-- 7018 -->
<g id="node32" class="node">
<title>7018</title>
<ellipse fill="none" stroke="#000000" cx="6523.2652" cy="-2312.2761" rx="28.6953" ry="18"/>
<text text-anchor="middle" x="6523.2652" y="-2308.5761" font-family="Times,serif" font-size="14.00" fill="#000000">7018</text>
</g>
<!-- 701&#45;&gt;7018 -->
<g id="edge4" class="edge">
<title>701&#45;&gt;7018</title>
<path fill="none" stroke="#000000" d="M6523.2652,-1607.5333C6523.2652,-1705.0107 6523.2652,-2164.6466 6523.2652,-2283.9367"/>
<polygon fill="#000000" stroke="#000000" points="6519.7653,-2284.0924 6523.2652,-2294.0924 6526.7653,-2284.0924 6519.7653,-2284.0924"/>
</g>
<!-- 2516 -->
<g id="node9" class="node">
<title>2516</title>
<ellipse fill="none" stroke="#000000" cx="6197.9757" cy="-543.3373" rx="28.6953" ry="18"/>
<text text-anchor="middle" x="6197.9757" y="-539.6373" font-family="Times,serif" font-size="14.00" fill="#000000">2516</text>
</g>
<!-- 703&#45;&gt;2516 -->
<g id="edge5" class="edge">
<title>703&#45;&gt;2516</title>
<path fill="none" stroke="#000000" d="M6496.0907,-543.3373C6438.4041,-543.3373 6303.5388,-543.3373 6236.7979,-543.3373"/>
<polygon fill="#000000" stroke="#000000" points="6236.6936,-539.8374 6226.6936,-543.3373 6236.6936,-546.8374 6236.6936,-539.8374"/>
</g>
<!-- 9498 -->
<g id="node36" class="node">
<title>9498</title>
<ellipse fill="none" stroke="#000000" cx="7046.2468" cy="-543.3373" rx="28.6953" ry="18"/>
<text text-anchor="middle" x="7046.2468" y="-539.6373" font-family="Times,serif" font-size="14.00" fill="#000000">9498</text>
</g>
<!-- 703&#45;&gt;9498 -->
<g id="edge6" class="edge">
<title>703&#45;&gt;9498</title>
<path fill="none" stroke="#000000" d="M6550.2817,-543.3373C6636.6431,-543.3373 6906.2514,-543.3373 7007.3956,-543.3373"/>
<polygon fill="#000000" stroke="#000000" points="7007.4854,-546.8374 7017.4853,-543.3373 7007.4853,-539.8374 7007.4854,-546.8374"/>
</g>
<!-- 1239 -->
<g id="node5" class="node">
<title>1239</title>
<ellipse fill="none" stroke="#000000" cx="6781.6551" cy="-2699.8609" rx="28.6953" ry="18"/>
<text text-anchor="middle" x="6781.6551" y="-2696.1609" font-family="Times,serif" font-size="14.00" fill="#000000">1239</text>
</g>
<!-- 1273 -->
<g id="node6" class="node">
<title>1273</title>
<ellipse fill="none" stroke="#000000" cx="6652.4601" cy="-2699.8609" rx="28.6953" ry="18"/>
<text text-anchor="middle" x="6652.4601" y="-2696.1609" font-family="Times,serif" font-size="14.00" fill="#000000">1273</text>
</g>
<!-- 1273&#45;&gt;1239 -->
<g id="edge7" class="edge">
<title>1273&#45;&gt;1239</title>
<path fill="none" stroke="#000000" d="M6681.1327,-2699.8609C6699.1548,-2699.8609 6722.6471,-2699.8609 6742.3888,-2699.8609"/>
<polygon fill="#000000" stroke="#000000" points="6742.616,-2703.361 6752.6159,-2699.8609 6742.6159,-2696.361 6742.616,-2703.361"/>
</g>
<!-- 6461 -->
<g id="node27" class="node">
<title>6461</title>
<ellipse fill="none" stroke="#000000" cx="4300.5466" cy="-1589.3003" rx="28.6953" ry="18"/>
<text text-anchor="middle" x="4300.5466" y="-1585.6003" font-family="Times,serif" font-size="14.00" fill="#000000">6461</text>
</g>
<!-- 1299&#45;&gt;6461 -->
<g id="edge8" class="edge">
<title>1299&#45;&gt;6461</title>
<path fill="none" stroke="#000000" d="M4200.0243,-1589.3003C4218.0464,-1589.3003 4241.5386,-1589.3003 4261.2803,-1589.3003"/>
<polygon fill="#000000" stroke="#000000" points="4261.5075,-1592.8004 4271.5075,-1589.3003 4261.5075,-1585.8004 4261.5075,-1592.8004"/>
</g>
<!-- 2497 -->
<g id="node8" class="node">
<title>2497</title>
<ellipse fill="none" stroke="#000000" cx="4429.7416" cy="-1589.3003" rx="28.6953" ry="18"/>
<text text-anchor="middle" x="4429.7416" y="-1585.6003" font-family="Times,serif" font-size="14.00" fill="#000000">2497</text>
</g>
<!-- 2497&#45;&gt;701 -->
<g id="edge9" class="edge">
<title>2497&#45;&gt;701</title>
<path fill="none" stroke="#000000" d="M4458.5396,-1589.3003C4688.6293,-1589.3003 6226.4624,-1589.3003 6486.0782,-1589.3003"/>
<polygon fill="#000000" stroke="#000000" points="6486.1305,-1592.8004 6496.1304,-1589.3003 6486.1304,-1585.8004 6486.1305,-1592.8004"/>
</g>
<!-- 32787 -->
<g id="node47" class="node">
<title>32787</title>
<ellipse fill="none" stroke="#000000" cx="5935.6862" cy="-543.3373" rx="32.4942" ry="18"/>
<text text-anchor="middle" x="5935.6862" y="-539.6373" font-family="Times,serif" font-size="14.00" fill="#000000">32787</text>
</g>
<!-- 2516&#45;&gt;32787 -->
<g id="edge10" class="edge">
<title>2516&#45;&gt;32787</title>
<path fill="none" stroke="#000000" d="M6169.1559,-543.3373C6122.9946,-543.3373 6032.22,-543.3373 5978.47,-543.3373"/>
<polygon fill="#000000" stroke="#000000" points="5978.2378,-539.8374 5968.2378,-543.3373 5978.2378,-546.8374 5978.2378,-539.8374"/>
</g>
<!-- 2686 -->
<g id="node10" class="node">
<title>2686</title>
<ellipse fill="none" stroke="#000000" cx="1115.8187" cy="-2380.2018" rx="28.6953" ry="18"/>
<text text-anchor="middle" x="1115.8187" y="-2376.5018" font-family="Times,serif" font-size="14.00" fill="#000000">2686</text>
</g>
<!-- 3741 -->
<g id="node21" class="node">
<title>3741</title>
<ellipse fill="none" stroke="#000000" cx="1062.0146" cy="-2262.7435" rx="28.6953" ry="18"/>
<text text-anchor="middle" x="1062.0146" y="-2259.0435" font-family="Times,serif" font-size="14.00" fill="#000000">3741</text>
</g>
<!-- 2686&#45;&gt;3741 -->
<g id="edge11" class="edge">
<title>2686&#45;&gt;3741</title>
<path fill="none" stroke="#000000" d="M1107.8797,-2362.8704C1099.0185,-2343.5257 1084.5722,-2311.9885 1074.2608,-2289.4778"/>
<polygon fill="#000000" stroke="#000000" points="1077.3328,-2287.78 1069.9861,-2280.146 1070.9687,-2290.6952 1077.3328,-2287.78"/>
</g>
<!-- 2687 -->
<g id="node11" class="node">
<title>2687</title>
<ellipse fill="none" stroke="#000000" cx="1169.6229" cy="-2497.66" rx="28.6953" ry="18"/>
<text text-anchor="middle" x="1169.6229" y="-2493.96" font-family="Times,serif" font-size="14.00" fill="#000000">2687</text>
</g>
<!-- 2687&#45;&gt;2686 -->
<g id="edge12" class="edge">
<title>2687&#45;&gt;2686</title>
<path fill="none" stroke="#000000" d="M1161.6839,-2480.3287C1152.8226,-2460.9839 1138.3764,-2429.4468 1128.0649,-2406.9361"/>
<polygon fill="#000000" stroke="#000000" points="1131.137,-2405.2382 1123.7903,-2397.6043 1124.7729,-2408.1535 1131.137,-2405.2382"/>
</g>
<!-- 9505 -->
<g id="node37" class="node">
<title>9505</title>
<ellipse fill="none" stroke="#000000" cx="1278.8552" cy="-2736.122" rx="28.6953" ry="18"/>
<text text-anchor="middle" x="1278.8552" y="-2732.422" font-family="Times,serif" font-size="14.00" fill="#000000">9505</text>
</g>
<!-- 2687&#45;&gt;9505 -->
<g id="edge13" class="edge">
<title>2687&#45;&gt;9505</title>
<path fill="none" stroke="#000000" d="M1177.655,-2515.1947C1196.5534,-2556.4513 1243.9346,-2659.8878 1266.515,-2709.1823"/>
<polygon fill="#000000" stroke="#000000" points="1263.4647,-2710.9276 1270.8113,-2718.5616 1269.8288,-2708.0124 1263.4647,-2710.9276"/>
</g>
<!-- 2764 -->
<g id="node12" class="node">
<title>2764</title>
<ellipse fill="none" stroke="#000000" cx="5935.6862" cy="-676.4318" rx="28.6953" ry="18"/>
<text text-anchor="middle" x="5935.6862" y="-672.7318" font-family="Times,serif" font-size="14.00" fill="#000000">2764</text>
</g>
<!-- 2828 -->
<g id="node13" class="node">
<title>2828</title>
<ellipse fill="none" stroke="#000000" cx="6919.5596" cy="-241.9978" rx="28.6953" ry="18"/>
<text text-anchor="middle" x="6919.5596" y="-238.2978" font-family="Times,serif" font-size="14.00" fill="#000000">2828</text>
</g>
<!-- 2914 -->
<g id="node14" class="node">
<title>2914</title>
<ellipse fill="none" stroke="#000000" cx="3065.3956" cy="-1589.3003" rx="28.6953" ry="18"/>
<text text-anchor="middle" x="3065.3956" y="-1585.6003" font-family="Times,serif" font-size="14.00" fill="#000000">2914</text>
</g>
<!-- 6453 -->
<g id="node26" class="node">
<title>6453</title>
<ellipse fill="none" stroke="#000000" cx="3194.5905" cy="-1589.3003" rx="28.6953" ry="18"/>
<text text-anchor="middle" x="3194.5905" y="-1585.6003" font-family="Times,serif" font-size="14.00" fill="#000000">6453</text>
</g>
<!-- 2914&#45;&gt;6453 -->
<g id="edge14" class="edge">
<title>2914&#45;&gt;6453</title>
<path fill="none" stroke="#000000" d="M3094.0681,-1589.3003C3112.0902,-1589.3003 3135.5825,-1589.3003 3155.3242,-1589.3003"/>
<polygon fill="#000000" stroke="#000000" points="3155.5514,-1592.8004 3165.5513,-1589.3003 3155.5513,-1585.8004 3155.5514,-1592.8004"/>
</g>
<!-- 3257 -->
<g id="node15" class="node">
<title>3257</title>
<ellipse fill="none" stroke="#000000" cx="3323.7854" cy="-1589.3003" rx="28.6953" ry="18"/>
<text text-anchor="middle" x="3323.7854" y="-1585.6003" font-family="Times,serif" font-size="14.00" fill="#000000">3257</text>
</g>
<!-- 3491 -->
<g id="node18" class="node">
<title>3491</title>
<ellipse fill="none" stroke="#000000" cx="3452.9803" cy="-1589.3003" rx="28.6953" ry="18"/>
<text text-anchor="middle" x="3452.9803" y="-1585.6003" font-family="Times,serif" font-size="14.00" fill="#000000">3491</text>
</g>
<!-- 3257&#45;&gt;3491 -->
<g id="edge15" class="edge">
<title>3257&#45;&gt;3491</title>
<path fill="none" stroke="#000000" d="M3352.4579,-1589.3003C3370.4801,-1589.3003 3393.9723,-1589.3003 3413.714,-1589.3003"/>
<polygon fill="#000000" stroke="#000000" points="3413.9412,-1592.8004 3423.9412,-1589.3003 3413.9412,-1585.8004 3413.9412,-1592.8004"/>
</g>
<!-- 3320 -->
<g id="node16" class="node">
<title>3320</title>
<ellipse fill="none" stroke="#000000" cx="6523.2652" cy="-2699.8609" rx="28.6953" ry="18"/>
<text text-anchor="middle" x="6523.2652" y="-2696.1609" font-family="Times,serif" font-size="14.00" fill="#000000">3320</text>
</g>
<!-- 3320&#45;&gt;1273 -->
<g id="edge16" class="edge">
<title>3320&#45;&gt;1273</title>
<path fill="none" stroke="#000000" d="M6551.9378,-2699.8609C6569.9599,-2699.8609 6593.4521,-2699.8609 6613.1938,-2699.8609"/>
<polygon fill="#000000" stroke="#000000" points="6613.421,-2703.361 6623.421,-2699.8609 6613.421,-2696.361 6613.421,-2703.361"/>
</g>
<!-- 5511 -->
<g id="node24" class="node">
<title>5511</title>
<ellipse fill="none" stroke="#000000" cx="6329.4728" cy="-2699.8609" rx="28.6953" ry="18"/>
<text text-anchor="middle" x="6329.4728" y="-2696.1609" font-family="Times,serif" font-size="14.00" fill="#000000">5511</text>
</g>
<!-- 3320&#45;&gt;5511 -->
<g id="edge17" class="edge">
<title>3320&#45;&gt;5511</title>
<path fill="none" stroke="#000000" d="M6494.2525,-2699.8609C6460.905,-2699.8609 6405.9998,-2699.8609 6368.821,-2699.8609"/>
<polygon fill="#000000" stroke="#000000" points="6368.3669,-2696.361 6358.3669,-2699.8609 6368.3669,-2703.361 6368.3669,-2696.361"/>
</g>
<!-- 3356 -->
<g id="node17" class="node">
<title>3356</title>
<ellipse fill="none" stroke="#000000" cx="571.6954" cy="-1216.725" rx="28.6953" ry="18"/>
<text text-anchor="middle" x="571.6954" y="-1213.025" font-family="Times,serif" font-size="14.00" fill="#000000">3356</text>
</g>
<!-- 3549 -->
<g id="node19" class="node">
<title>3549</title>
<ellipse fill="none" stroke="#000000" cx="571.6954" cy="-1589.3003" rx="28.6953" ry="18"/>
<text text-anchor="middle" x="571.6954" y="-1585.6003" font-family="Times,serif" font-size="14.00" fill="#000000">3549</text>
</g>
<!-- 3356&#45;&gt;3549 -->
<g id="edge18" class="edge">
<title>3356&#45;&gt;3549</title>
<path fill="none" stroke="#000000" d="M571.6954,-1234.9473C571.6954,-1295.1185 571.6954,-1487.7778 571.6954,-1560.8407"/>
<polygon fill="#000000" stroke="#000000" points="568.1955,-1561.1131 571.6954,-1571.1131 575.1955,-1561.1131 568.1955,-1561.1131"/>
</g>
<!-- 3491&#45;&gt;174 -->
<g id="edge19" class="edge">
<title>3491&#45;&gt;174</title>
<path fill="none" stroke="#000000" d="M3481.6157,-1589.3003C3499.8023,-1589.3003 3523.5328,-1589.3003 3543.1968,-1589.3003"/>
<polygon fill="#000000" stroke="#000000" points="3543.3493,-1592.8004 3553.3492,-1589.3003 3543.3492,-1585.8004 3543.3493,-1592.8004"/>
</g>
<!-- 6762 -->
<g id="node28" class="node">
<title>6762</title>
<ellipse fill="none" stroke="#000000" cx="2936.2006" cy="-1589.3003" rx="28.6953" ry="18"/>
<text text-anchor="middle" x="2936.2006" y="-1585.6003" font-family="Times,serif" font-size="14.00" fill="#000000">6762</text>
</g>
<!-- 3549&#45;&gt;6762 -->
<g id="edge20" class="edge">
<title>3549&#45;&gt;6762</title>
<path fill="none" stroke="#000000" d="M600.3163,-1589.3003C846.9122,-1589.3003 2610.6567,-1589.3003 2896.9733,-1589.3003"/>
<polygon fill="#000000" stroke="#000000" points="2897.2789,-1592.8004 2907.2789,-1589.3003 2897.2789,-1585.8004 2897.2789,-1592.8004"/>
</g>
<!-- 30070 -->
<g id="node46" class="node">
<title>30070</title>
<ellipse fill="none" stroke="#000000" cx="571.6954" cy="-2771.5529" rx="32.4942" ry="18"/>
<text text-anchor="middle" x="571.6954" y="-2767.8529" font-family="Times,serif" font-size="14.00" fill="#000000">30070</text>
</g>
<!-- 3549&#45;&gt;30070 -->
<g id="edge21" class="edge">
<title>3549&#45;&gt;30070</title>
<path fill="none" stroke="#000000" d="M571.6954,-1607.3976C571.6954,-1741.2974 571.6954,-2577.5349 571.6954,-2743.0909"/>
<polygon fill="#000000" stroke="#000000" points="568.1955,-2743.4239 571.6954,-2753.424 575.1955,-2743.424 568.1955,-2743.4239"/>
</g>
<!-- 3597 -->
<g id="node20" class="node">
<title>3597</title>
<ellipse fill="none" stroke="#000000" cx="722.1828" cy="-205.9121" rx="28.6953" ry="18"/>
<text text-anchor="middle" x="722.1828" y="-202.2121" font-family="Times,serif" font-size="14.00" fill="#000000">3597</text>
</g>
<!-- 37179 -->
<g id="node48" class="node">
<title>37179</title>
<ellipse fill="none" stroke="#000000" cx="1006.5864" cy="-2141.7399" rx="32.4942" ry="18"/>
<text text-anchor="middle" x="1006.5864" y="-2138.0399" font-family="Times,serif" font-size="14.00" fill="#000000">37179</text>
</g>
<!-- 3741&#45;&gt;37179 -->
<g id="edge22" class="edge">
<title>3741&#45;&gt;37179</title>
<path fill="none" stroke="#000000" d="M1054.0731,-2245.4067C1044.9057,-2225.3936 1029.7155,-2192.2324 1018.9874,-2168.8122"/>
<polygon fill="#000000" stroke="#000000" points="1022.0401,-2167.072 1014.6934,-2159.4381 1015.676,-2169.9873 1022.0401,-2167.072"/>
</g>
<!-- 4637 -->
<g id="node22" class="node">
<title>4637</title>
<ellipse fill="none" stroke="#000000" cx="6969.63" cy="-361.0956" rx="28.6953" ry="18"/>
<text text-anchor="middle" x="6969.63" y="-357.3956" font-family="Times,serif" font-size="14.00" fill="#000000">4637</text>
</g>
<!-- 4637&#45;&gt;2828 -->
<g id="edge23" class="edge">
<title>4637&#45;&gt;2828</title>
<path fill="none" stroke="#000000" d="M6962.2419,-343.5223C6953.9956,-323.9076 6940.5519,-291.9302 6930.956,-269.1052"/>
<polygon fill="#000000" stroke="#000000" points="6934.0801,-267.5052 6926.978,-259.6432 6927.6272,-270.2181 6934.0801,-267.5052"/>
</g>
<!-- 4755 -->
<g id="node23" class="node">
<title>4755</title>
<ellipse fill="none" stroke="#000000" cx="7067.2875" cy="-836.7094" rx="28.6953" ry="18"/>
<text text-anchor="middle" x="7067.2875" y="-833.0094" font-family="Times,serif" font-size="14.00" fill="#000000">4755</text>
</g>
<!-- 5692 -->
<g id="node25" class="node">
<title>5692</title>
<ellipse fill="none" stroke="#000000" cx="976.534" cy="-273.9532" rx="28.6953" ry="18"/>
<text text-anchor="middle" x="976.534" y="-270.2532" font-family="Times,serif" font-size="14.00" fill="#000000">5692</text>
</g>
<!-- 5692&#45;&gt;3597 -->
<g id="edge24" class="edge">
<title>5692&#45;&gt;3597</title>
<path fill="none" stroke="#000000" d="M949.7947,-266.8002C903.8781,-254.5171 810.0038,-229.405 758.3129,-215.5772"/>
<polygon fill="#000000" stroke="#000000" points="759.1287,-212.1724 748.5638,-212.9693 757.3197,-218.9347 759.1287,-212.1724"/>
</g>
<!-- 10834 -->
<g id="node39" class="node">
<title>10834</title>
<ellipse fill="none" stroke="#000000" cx="571.6954" cy="-273.9532" rx="32.4942" ry="18"/>
<text text-anchor="middle" x="571.6954" y="-270.2532" font-family="Times,serif" font-size="14.00" fill="#000000">10834</text>
</g>
<!-- 5692&#45;&gt;10834 -->
<g id="edge25" class="edge">
<title>5692&#45;&gt;10834</title>
<path fill="none" stroke="#000000" d="M947.7436,-273.9532C877.4974,-273.9532 697.032,-273.9532 614.2938,-273.9532"/>
<polygon fill="#000000" stroke="#000000" points="614.2303,-270.4533 604.2303,-273.9532 614.2302,-277.4533 614.2303,-270.4533"/>
</g>
<!-- 11008 -->
<g id="node40" class="node">
<title>11008</title>
<ellipse fill="none" stroke="#000000" cx="786.9418" cy="-91.2542" rx="32.4942" ry="18"/>
<text text-anchor="middle" x="786.9418" y="-87.5542" font-family="Times,serif" font-size="14.00" fill="#000000">11008</text>
</g>
<!-- 5692&#45;&gt;11008 -->
<g id="edge26" class="edge">
<title>5692&#45;&gt;11008</title>
<path fill="none" stroke="#000000" d="M960.6956,-258.6906C927.3217,-226.5301 849.6265,-151.6598 810.437,-113.8951"/>
<polygon fill="#000000" stroke="#000000" points="812.7665,-111.2793 803.137,-106.8606 807.9092,-116.3199 812.7665,-111.2793"/>
</g>
<!-- 27865 -->
<g id="node44" class="node">
<title>27865</title>
<ellipse fill="none" stroke="#000000" cx="902.8594" cy="-21.1762" rx="32.4942" ry="18"/>
<text text-anchor="middle" x="902.8594" y="-17.4762" font-family="Times,serif" font-size="14.00" fill="#000000">27865</text>
</g>
<!-- 5692&#45;&gt;27865 -->
<g id="edge27" class="edge">
<title>5692&#45;&gt;27865</title>
<path fill="none" stroke="#000000" d="M971.3534,-256.1784C958.7023,-212.7725 926.1584,-101.1146 910.9356,-48.8853"/>
<polygon fill="#000000" stroke="#000000" points="914.2914,-47.8908 908.133,-39.2697 907.5711,-49.8496 914.2914,-47.8908"/>
</g>
<!-- 28065 -->
<g id="node45" class="node">
<title>28065</title>
<ellipse fill="none" stroke="#000000" cx="1038.2764" cy="-18" rx="32.4942" ry="18"/>
<text text-anchor="middle" x="1038.2764" y="-14.3" font-family="Times,serif" font-size="14.00" fill="#000000">28065</text>
</g>
<!-- 5692&#45;&gt;28065 -->
<g id="edge28" class="edge">
<title>5692&#45;&gt;28065</title>
<path fill="none" stroke="#000000" d="M980.8756,-255.955C991.4814,-211.9888 1018.7694,-98.8662 1031.5212,-46.0036"/>
<polygon fill="#000000" stroke="#000000" points="1034.9969,-46.5202 1033.9396,-35.9782 1028.1921,-44.8786 1034.9969,-46.5202"/>
</g>
<!-- 52317 -->
<g id="node49" class="node">
<title>52317</title>
<ellipse fill="none" stroke="#000000" cx="1157.3521" cy="-82.5662" rx="32.4942" ry="18"/>
<text text-anchor="middle" x="1157.3521" y="-78.8662" font-family="Times,serif" font-size="14.00" fill="#000000">52317</text>
</g>
<!-- 5692&#45;&gt;52317 -->
<g id="edge29" class="edge">
<title>5692&#45;&gt;52317</title>
<path fill="none" stroke="#000000" d="M991.3311,-258.2912C1023.0396,-224.7293 1097.6904,-145.7151 1135.1276,-106.0897"/>
<polygon fill="#000000" stroke="#000000" points="1137.7717,-108.3875 1142.0951,-98.715 1132.6835,-103.5803 1137.7717,-108.3875"/>
</g>
<!-- 52375 -->
<g id="node50" class="node">
<title>52375</title>
<ellipse fill="none" stroke="#000000" cx="1228.5712" cy="-197.7863" rx="32.4942" ry="18"/>
<text text-anchor="middle" x="1228.5712" y="-194.0863" font-family="Times,serif" font-size="14.00" fill="#000000">52375</text>
</g>
<!-- 5692&#45;&gt;52375 -->
<g id="edge30" class="edge">
<title>5692&#45;&gt;52375</title>
<path fill="none" stroke="#000000" d="M1002.5572,-266.0889C1047.1275,-252.6195 1138.2735,-225.0747 1190.1699,-209.3914"/>
<polygon fill="#000000" stroke="#000000" points="1191.4404,-212.6638 1200.0004,-206.4205 1189.4154,-205.9631 1191.4404,-212.6638"/>
</g>
<!-- 52376 -->
<g id="node51" class="node">
<title>52376</title>
<ellipse fill="none" stroke="#000000" cx="1233.0844" cy="-333.1652" rx="32.4942" ry="18"/>
<text text-anchor="middle" x="1233.0844" y="-329.4652" font-family="Times,serif" font-size="14.00" fill="#000000">52376</text>
</g>
<!-- 5692&#45;&gt;52376 -->
<g id="edge31" class="edge">
<title>5692&#45;&gt;52376</title>
<path fill="none" stroke="#000000" d="M1003.5045,-280.178C1048.7327,-290.6167 1140.0922,-311.7026 1192.907,-323.8923"/>
<polygon fill="#000000" stroke="#000000" points="1192.4,-327.3672 1202.931,-326.2058 1193.9743,-320.5465 1192.4,-327.3672"/>
</g>
<!-- 52380 -->
<g id="node52" class="node">
<title>52380</title>
<ellipse fill="none" stroke="#000000" cx="1169.697" cy="-452.8727" rx="32.4942" ry="18"/>
<text text-anchor="middle" x="1169.697" y="-449.1727" font-family="Times,serif" font-size="14.00" fill="#000000">52380</text>
</g>
<!-- 5692&#45;&gt;52380 -->
<g id="edge32" class="edge">
<title>5692&#45;&gt;52380</title>
<path fill="none" stroke="#000000" d="M992.6708,-288.9C1026.5883,-320.3165 1105.4362,-393.3503 1145.4591,-430.4221"/>
<polygon fill="#000000" stroke="#000000" points="1143.2064,-433.1062 1152.9212,-437.3339 1147.9632,-427.9707 1143.2064,-433.1062"/>
</g>
<!-- 52413 -->
<g id="node53" class="node">
<title>52413</title>
<ellipse fill="none" stroke="#000000" cx="1055.1858" cy="-525.226" rx="32.4942" ry="18"/>
<text text-anchor="middle" x="1055.1858" y="-521.526" font-family="Times,serif" font-size="14.00" fill="#000000">52413</text>
</g>
<!-- 5692&#45;&gt;52413 -->
<g id="edge33" class="edge">
<title>5692&#45;&gt;52413</title>
<path fill="none" stroke="#000000" d="M982.0647,-291.6222C995.5705,-334.7698 1030.3129,-445.7633 1046.5641,-497.6818"/>
<polygon fill="#000000" stroke="#000000" points="1043.2285,-498.7423 1049.556,-507.2402 1049.9089,-496.6512 1043.2285,-498.7423"/>
</g>
<!-- 52431 -->
<g id="node54" class="node">
<title>52431</title>
<ellipse fill="none" stroke="#000000" cx="919.858" cy="-531.0756" rx="32.4942" ry="18"/>
<text text-anchor="middle" x="919.858" y="-527.3756" font-family="Times,serif" font-size="14.00" fill="#000000">52431</text>
</g>
<!-- 5692&#45;&gt;52431 -->
<g id="edge34" class="edge">
<title>5692&#45;&gt;52431</title>
<path fill="none" stroke="#000000" d="M972.5487,-292.0335C962.8132,-336.2006 937.7643,-449.84 926.0589,-502.9441"/>
<polygon fill="#000000" stroke="#000000" points="922.5736,-502.4963 923.8389,-513.0153 929.4095,-504.0031 922.5736,-502.4963"/>
</g>
<!-- 262230 -->
<g id="node55" class="node">
<title>262230</title>
<ellipse fill="none" stroke="#000000" cx="796.189" cy="-465.7859" rx="37.0935" ry="18"/>
<text text-anchor="middle" x="796.189" y="-462.0859" font-family="Times,serif" font-size="14.00" fill="#000000">262230</text>
</g>
<!-- 5692&#45;&gt;262230 -->
<g id="edge35" class="edge">
<title>5692&#45;&gt;262230</title>
<path fill="none" stroke="#000000" d="M961.7756,-289.6516C930.229,-323.2077 856.0656,-402.0952 818.6353,-441.9097"/>
<polygon fill="#000000" stroke="#000000" points="815.9621,-439.6434 811.6626,-449.3267 821.0622,-444.4381 815.9621,-439.6434"/>
</g>
<!-- 264608 -->
<g id="node56" class="node">
<title>264608</title>
<ellipse fill="none" stroke="#000000" cx="722.1828" cy="-341.9942" rx="37.0935" ry="18"/>
<text text-anchor="middle" x="722.1828" y="-338.2942" font-family="Times,serif" font-size="14.00" fill="#000000">264608</text>
</g>
<!-- 5692&#45;&gt;264608 -->
<g id="edge36" class="edge">
<title>5692&#45;&gt;264608</title>
<path fill="none" stroke="#000000" d="M949.7947,-281.1062C905.6996,-292.902 817.3764,-316.5292 764.6582,-330.6317"/>
<polygon fill="#000000" stroke="#000000" points="763.6861,-327.2686 754.9303,-333.234 765.4951,-334.0308 763.6861,-327.2686"/>
</g>
<!-- 6453&#45;&gt;3257 -->
<g id="edge37" class="edge">
<title>6453&#45;&gt;3257</title>
<path fill="none" stroke="#000000" d="M3223.263,-1589.3003C3241.2851,-1589.3003 3264.7774,-1589.3003 3284.5191,-1589.3003"/>
<polygon fill="#000000" stroke="#000000" points="3284.7463,-1592.8004 3294.7463,-1589.3003 3284.7462,-1585.8004 3284.7463,-1592.8004"/>
</g>
<!-- 6461&#45;&gt;2497 -->
<g id="edge38" class="edge">
<title>6461&#45;&gt;2497</title>
<path fill="none" stroke="#000000" d="M4329.2192,-1589.3003C4347.2413,-1589.3003 4370.7336,-1589.3003 4390.4753,-1589.3003"/>
<polygon fill="#000000" stroke="#000000" points="4390.7025,-1592.8004 4400.7024,-1589.3003 4390.7024,-1585.8004 4390.7025,-1592.8004"/>
</g>
<!-- 6762&#45;&gt;2914 -->
<g id="edge39" class="edge">
<title>6762&#45;&gt;2914</title>
<path fill="none" stroke="#000000" d="M2964.8732,-1589.3003C2982.8953,-1589.3003 3006.3875,-1589.3003 3026.1292,-1589.3003"/>
<polygon fill="#000000" stroke="#000000" points="3026.3564,-1592.8004 3036.3564,-1589.3003 3026.3564,-1585.8004 3026.3564,-1592.8004"/>
</g>
<!-- 6904 -->
<g id="node29" class="node">
<title>6904</title>
<ellipse fill="none" stroke="#000000" cx="692.6991" cy="-2716.1247" rx="28.6953" ry="18"/>
<text text-anchor="middle" x="692.6991" y="-2712.4247" font-family="Times,serif" font-size="14.00" fill="#000000">6904</text>
</g>
<!-- 6904&#45;&gt;2687 -->
<g id="edge40" class="edge">
<title>6904&#45;&gt;2687</title>
<path fill="none" stroke="#000000" d="M716.025,-2705.4399C794.1557,-2669.6505 1046.7912,-2553.9256 1137.1296,-2512.5443"/>
<polygon fill="#000000" stroke="#000000" points="1138.708,-2515.6711 1146.3419,-2508.3244 1135.7927,-2509.307 1138.708,-2515.6711"/>
</g>
<!-- 6939 -->
<g id="node30" class="node">
<title>6939</title>
<ellipse fill="none" stroke="#000000" cx="6821.9021" cy="-733.5461" rx="28.6953" ry="18"/>
<text text-anchor="middle" x="6821.9021" y="-729.8461" font-family="Times,serif" font-size="14.00" fill="#000000">6939</text>
</g>
<!-- 7016 -->
<g id="node31" class="node">
<title>7016</title>
<ellipse fill="none" stroke="#000000" cx="373.4627" cy="-3261.4443" rx="28.6953" ry="18"/>
<text text-anchor="middle" x="373.4627" y="-3257.7443" font-family="Times,serif" font-size="14.00" fill="#000000">7016</text>
</g>
<!-- 7922 -->
<g id="node35" class="node">
<title>7922</title>
<ellipse fill="none" stroke="#000000" cx="325.0016" cy="-3381.2059" rx="28.6953" ry="18"/>
<text text-anchor="middle" x="325.0016" y="-3377.5059" font-family="Times,serif" font-size="14.00" fill="#000000">7922</text>
</g>
<!-- 7016&#45;&gt;7922 -->
<g id="edge41" class="edge">
<title>7016&#45;&gt;7922</title>
<path fill="none" stroke="#000000" d="M366.3121,-3279.1155C358.3309,-3298.8396 345.3192,-3330.9952 336.0317,-3353.9474"/>
<polygon fill="#000000" stroke="#000000" points="332.6882,-3352.8794 332.1816,-3363.4621 339.1771,-3355.5052 332.6882,-3352.8794"/>
</g>
<!-- 7018&#45;&gt;3320 -->
<g id="edge42" class="edge">
<title>7018&#45;&gt;3320</title>
<path fill="none" stroke="#000000" d="M6523.2652,-2330.4503C6523.2652,-2392.5016 6523.2652,-2596.2976 6523.2652,-2671.583"/>
<polygon fill="#000000" stroke="#000000" points="6519.7653,-2671.726 6523.2652,-2681.7261 6526.7653,-2671.7261 6519.7653,-2671.726"/>
</g>
<!-- 7473 -->
<g id="node33" class="node">
<title>7473</title>
<ellipse fill="none" stroke="#000000" cx="7306.3034" cy="-509.1859" rx="28.6953" ry="18"/>
<text text-anchor="middle" x="7306.3034" y="-505.4859" font-family="Times,serif" font-size="14.00" fill="#000000">7473</text>
</g>
<!-- 7474 -->
<g id="node34" class="node">
<title>7474</title>
<ellipse fill="none" stroke="#000000" cx="5935.6862" cy="-410.2427" rx="28.6953" ry="18"/>
<text text-anchor="middle" x="5935.6862" y="-406.5427" font-family="Times,serif" font-size="14.00" fill="#000000">7474</text>
</g>
<!-- 9498&#45;&gt;4637 -->
<g id="edge43" class="edge">
<title>9498&#45;&gt;4637</title>
<path fill="none" stroke="#000000" d="M7038.9004,-525.8632C7025.4571,-493.8868 6996.8199,-425.7699 6980.898,-387.8978"/>
<polygon fill="#000000" stroke="#000000" points="6984.0561,-386.3788 6976.9541,-378.5168 6977.6032,-389.0918 6984.0561,-386.3788"/>
</g>
<!-- 9498&#45;&gt;7473 -->
<g id="edge44" class="edge">
<title>9498&#45;&gt;7473</title>
<path fill="none" stroke="#000000" d="M7074.5724,-539.6175C7121.4701,-533.4587 7215.2948,-521.1374 7268.0379,-514.2111"/>
<polygon fill="#000000" stroke="#000000" points="7268.5536,-517.6735 7278.0127,-512.9011 7267.6421,-510.7331 7268.5536,-517.6735"/>
</g>
<!-- 10026 -->
<g id="node38" class="node">
<title>10026</title>
<ellipse fill="none" stroke="#000000" cx="6944.5948" cy="-785.1278" rx="32.4942" ry="18"/>
<text text-anchor="middle" x="6944.5948" y="-781.4278" font-family="Times,serif" font-size="14.00" fill="#000000">10026</text>
</g>
<!-- 9498&#45;&gt;10026 -->
<g id="edge45" class="edge">
<title>9498&#45;&gt;10026</title>
<path fill="none" stroke="#000000" d="M7038.7721,-561.1167C7021.1851,-602.9492 6977.092,-707.8295 6956.0787,-757.8121"/>
<polygon fill="#000000" stroke="#000000" points="6952.7296,-756.7474 6952.0805,-767.3223 6959.1826,-759.4603 6952.7296,-756.7474"/>
</g>
<!-- 10026&#45;&gt;4755 -->
<g id="edge46" class="edge">
<title>10026&#45;&gt;4755</title>
<path fill="none" stroke="#000000" d="M6970.6148,-796.0669C6989.1126,-803.8437 7014.111,-814.3533 7034.0527,-822.7371"/>
<polygon fill="#000000" stroke="#000000" points="7032.8105,-826.0115 7043.3854,-826.6607 7035.5234,-819.5586 7032.8105,-826.0115"/>
</g>
<!-- 10026&#45;&gt;6939 -->
<g id="edge47" class="edge">
<title>10026&#45;&gt;6939</title>
<path fill="none" stroke="#000000" d="M6918.5748,-774.1886C6900.077,-766.4119 6875.0786,-755.9023 6855.1369,-747.5185"/>
<polygon fill="#000000" stroke="#000000" points="6856.3791,-744.244 6845.8042,-743.5949 6853.6662,-750.697 6856.3791,-744.244"/>
</g>
<!-- 12956 -->
<g id="node41" class="node">
<title>12956</title>
<ellipse fill="none" stroke="#000000" cx="571.6954" cy="-1083.6304" rx="32.4942" ry="18"/>
<text text-anchor="middle" x="571.6954" y="-1079.9304" font-family="Times,serif" font-size="14.00" fill="#000000">12956</text>
</g>
<!-- 10834&#45;&gt;12956 -->
<g id="edge48" class="edge">
<title>10834&#45;&gt;12956</title>
<path fill="none" stroke="#000000" d="M571.6954,-291.9997C571.6954,-396.7467 571.6954,-926.385 571.6954,-1055.3092"/>
<polygon fill="#000000" stroke="#000000" points="568.1955,-1055.5403 571.6954,-1065.5404 575.1955,-1055.5404 568.1955,-1055.5403"/>
</g>
<!-- 22927 -->
<g id="node43" class="node">
<title>22927</title>
<ellipse fill="none" stroke="#000000" cx="166.8568" cy="-273.9532" rx="32.4942" ry="18"/>
<text text-anchor="middle" x="166.8568" y="-270.2532" font-family="Times,serif" font-size="14.00" fill="#000000">22927</text>
</g>
<!-- 10834&#45;&gt;22927 -->
<g id="edge49" class="edge">
<title>10834&#45;&gt;22927</title>
<path fill="none" stroke="#000000" d="M538.9087,-273.9532C466.1281,-273.9532 291.1018,-273.9532 209.757,-273.9532"/>
<polygon fill="#000000" stroke="#000000" points="209.3847,-270.4533 199.3847,-273.9532 209.3846,-277.4533 209.3847,-270.4533"/>
</g>
<!-- 12956&#45;&gt;3356 -->
<g id="edge50" class="edge">
<title>12956&#45;&gt;3356</title>
<path fill="none" stroke="#000000" d="M571.6954,-1101.8575C571.6954,-1124.2586 571.6954,-1162.5085 571.6954,-1188.6673"/>
<polygon fill="#000000" stroke="#000000" points="568.1955,-1188.7179 571.6954,-1198.7179 575.1955,-1188.718 568.1955,-1188.7179"/>
</g>
<!-- 18540 -->
<g id="node42" class="node">
<title>18540</title>
<ellipse fill="none" stroke="#000000" cx="32.4971" cy="-2524.5621" rx="32.4942" ry="18"/>
<text text-anchor="middle" x="32.4971" y="-2520.8621" font-family="Times,serif" font-size="14.00" fill="#000000">18540</text>
</g>
<!-- 30070&#45;&gt;6904 -->
<g id="edge51" class="edge">
<title>30070&#45;&gt;6904</title>
<path fill="none" stroke="#000000" d="M596.7675,-2760.0682C615.0902,-2751.6751 640.1067,-2740.2158 659.9992,-2731.1036"/>
<polygon fill="#000000" stroke="#000000" points="661.6672,-2734.1893 669.3011,-2726.8426 658.752,-2727.8252 661.6672,-2734.1893"/>
</g>
<!-- 30070&#45;&gt;7016 -->
<g id="edge52" class="edge">
<title>30070&#45;&gt;7016</title>
<path fill="none" stroke="#000000" d="M564.5231,-2789.2778C534.6807,-2863.0273 420.2375,-3145.85 384.3157,-3234.6233"/>
<polygon fill="#000000" stroke="#000000" points="381.0283,-3233.4167 380.5217,-3243.9995 387.5172,-3236.0425 381.0283,-3233.4167"/>
</g>
<!-- 30070&#45;&gt;18540 -->
<g id="edge53" class="edge">
<title>30070&#45;&gt;18540</title>
<path fill="none" stroke="#000000" d="M546.412,-2759.9713C458.6726,-2719.7805 167.2232,-2586.2762 66.8315,-2540.2897"/>
<polygon fill="#000000" stroke="#000000" points="68.275,-2537.1012 57.7258,-2536.1187 65.3598,-2543.4653 68.275,-2537.1012"/>
</g>
<!-- 32787&#45;&gt;2764 -->
<g id="edge54" class="edge">
<title>32787&#45;&gt;2764</title>
<path fill="none" stroke="#000000" d="M5935.6862,-561.5644C5935.6862,-583.9655 5935.6862,-622.2153 5935.6862,-648.3741"/>
<polygon fill="#000000" stroke="#000000" points="5932.1863,-648.4248 5935.6862,-658.4248 5939.1863,-648.4248 5932.1863,-648.4248"/>
</g>
<!-- 32787&#45;&gt;7474 -->
<g id="edge55" class="edge">
<title>32787&#45;&gt;7474</title>
<path fill="none" stroke="#000000" d="M5935.6862,-525.1101C5935.6862,-502.7091 5935.6862,-464.4592 5935.6862,-438.3004"/>
<polygon fill="#000000" stroke="#000000" points="5939.1863,-438.2497 5935.6862,-428.2497 5932.1863,-438.2497 5939.1863,-438.2497"/>
</g>
</g>
</svg>
