<?xml version="1.0" encoding="UTF-8" standalone="no"?>
<!DOCTYPE svg PUBLIC "-//W3C//DTD SVG 1.1//EN"
 "http://www.w3.org/Graphics/SVG/1.1/DTD/svg11.dtd">
<!-- Generated by graphviz version 2.40.1 (20161225.0304)
 -->
<!-- Title: %3 Pages: 1 -->
<svg width="1627pt" height="1564pt"
 viewBox="0.00 0.00 1626.52 1563.94" xmlns="http://www.w3.org/2000/svg" xmlns:xlink="http://www.w3.org/1999/xlink">
<g id="graph0" class="graph" transform="scale(1 1) rotate(0) translate(4 1559.9365)">
<title>%3</title>
<polygon fill="#ffffff" stroke="transparent" points="-4,4 -4,-1559.9365 1622.5169,-1559.9365 1622.5169,4 -4,4"/>
<!-- 174 -->
<g id="node1" class="node">
<title>174</title>
<ellipse fill="none" stroke="#000000" cx="795.7153" cy="-808.4372" rx="27" ry="18"/>
<text text-anchor="middle" x="795.7153" y="-804.7372" font-family="Times,serif" font-size="14.00" fill="#000000">174</text>
</g>
<!-- 209 -->
<g id="node2" class="node">
<title>209</title>
<ellipse fill="none" stroke="#000000" cx="834.2949" cy="-869.2288" rx="27" ry="18"/>
<text text-anchor="middle" x="834.2949" y="-865.5288" font-family="Times,serif" font-size="14.00" fill="#000000">209</text>
</g>
<!-- 174&#45;&gt;209 -->
<g id="edge1" class="edge">
<title>174&#45;&gt;209</title>
<path fill="none" stroke="#000000" d="M806.2574,-825.0487C809.9998,-830.946 814.2997,-837.7214 818.3899,-844.1666"/>
<polygon fill="#000000" stroke="#000000" points="815.4521,-846.0694 823.7656,-852.6373 821.3624,-842.3186 815.4521,-846.0694"/>
</g>
<!-- 1299 -->
<g id="node7" class="node">
<title>1299</title>
<ellipse fill="none" stroke="#000000" cx="872.8744" cy="-930.0204" rx="28.6953" ry="18"/>
<text text-anchor="middle" x="872.8744" y="-926.3204" font-family="Times,serif" font-size="14.00" fill="#000000">1299</text>
</g>
<!-- 209&#45;&gt;1299 -->
<g id="edge2" class="edge">
<title>209&#45;&gt;1299</title>
<path fill="none" stroke="#000000" d="M844.8369,-885.8404C848.4344,-891.5091 852.5468,-897.9893 856.4931,-904.2076"/>
<polygon fill="#000000" stroke="#000000" points="853.7631,-906.4378 862.0765,-913.0057 859.6734,-902.687 853.7631,-906.4378"/>
</g>
<!-- 701 -->
<g id="node3" class="node">
<title>701</title>
<ellipse fill="none" stroke="#000000" cx="988.613" cy="-1112.3952" rx="27" ry="18"/>
<text text-anchor="middle" x="988.613" y="-1108.6952" font-family="Times,serif" font-size="14.00" fill="#000000">701</text>
</g>
<!-- 703 -->
<g id="node4" class="node">
<title>703</title>
<ellipse fill="none" stroke="#000000" cx="1110.6298" cy="-1104.1615" rx="27" ry="18"/>
<text text-anchor="middle" x="1110.6298" y="-1100.4615" font-family="Times,serif" font-size="14.00" fill="#000000">703</text>
</g>
<!-- 701&#45;&gt;703 -->
<g id="edge3" class="edge">
<title>701&#45;&gt;703</title>
<path fill="none" stroke="#000000" d="M1015.6925,-1110.5679C1032.6743,-1109.422 1054.7988,-1107.929 1073.4171,-1106.6726"/>
<polygon fill="#000000" stroke="#000000" points="1073.8844,-1110.1492 1083.626,-1105.9837 1073.413,-1103.165 1073.8844,-1110.1492"/>
</g>
<!-- 7018 -->
<g id="node32" class="node">
<title>7018</title>
<ellipse fill="none" stroke="#000000" cx="714.7666" cy="-1232.7853" rx="28.6953" ry="18"/>
<text text-anchor="middle" x="714.7666" y="-1229.0853" font-family="Times,serif" font-size="14.00" fill="#000000">7018</text>
</g>
<!-- 701&#45;&gt;7018 -->
<g id="edge4" class="edge">
<title>701&#45;&gt;7018</title>
<path fill="none" stroke="#000000" d="M965.736,-1122.4525C917.2506,-1143.768 804.0015,-1193.5553 747.7216,-1218.2974"/>
<polygon fill="#000000" stroke="#000000" points="746.2954,-1215.101 738.5496,-1222.3296 749.1126,-1221.5091 746.2954,-1215.101"/>
</g>
<!-- 2516 -->
<g id="node9" class="node">
<title>2516</title>
<ellipse fill="none" stroke="#000000" cx="1283.8812" cy="-933.7769" rx="28.6953" ry="18"/>
<text text-anchor="middle" x="1283.8812" y="-930.0769" font-family="Times,serif" font-size="14.00" fill="#000000">2516</text>
</g>
<!-- 703&#45;&gt;2516 -->
<g id="edge5" class="edge">
<title>703&#45;&gt;2516</title>
<path fill="none" stroke="#000000" d="M1126.0047,-1089.041C1156.4934,-1059.0568 1224.7645,-991.9153 1260.7189,-956.5559"/>
<polygon fill="#000000" stroke="#000000" points="1263.6161,-958.6157 1268.2917,-949.1084 1258.7077,-953.6248 1263.6161,-958.6157"/>
</g>
<!-- 9498 -->
<g id="node36" class="node">
<title>9498</title>
<ellipse fill="none" stroke="#000000" cx="1065.772" cy="-1233.9784" rx="28.6953" ry="18"/>
<text text-anchor="middle" x="1065.772" y="-1230.2784" font-family="Times,serif" font-size="14.00" fill="#000000">9498</text>
</g>
<!-- 703&#45;&gt;9498 -->
<g id="edge6" class="edge">
<title>703&#45;&gt;9498</title>
<path fill="none" stroke="#000000" d="M1104.4866,-1121.9398C1096.9454,-1143.7637 1084.0751,-1181.0101 1075.2594,-1206.5223"/>
<polygon fill="#000000" stroke="#000000" points="1071.943,-1205.4035 1071.985,-1215.9983 1078.5591,-1207.6898 1071.943,-1205.4035"/>
</g>
<!-- 1239 -->
<g id="node5" class="node">
<title>1239</title>
<ellipse fill="none" stroke="#000000" cx="755.0271" cy="-1455.1585" rx="28.6953" ry="18"/>
<text text-anchor="middle" x="755.0271" y="-1451.4585" font-family="Times,serif" font-size="14.00" fill="#000000">1239</text>
</g>
<!-- 1273 -->
<g id="node6" class="node">
<title>1273</title>
<ellipse fill="none" stroke="#000000" cx="759.548" cy="-1383.3006" rx="28.6953" ry="18"/>
<text text-anchor="middle" x="759.548" y="-1379.6006" font-family="Times,serif" font-size="14.00" fill="#000000">1273</text>
</g>
<!-- 1273&#45;&gt;1239 -->
<g id="edge7" class="edge">
<title>1273&#45;&gt;1239</title>
<path fill="none" stroke="#000000" d="M758.4072,-1401.4334C757.9237,-1409.1186 757.3487,-1418.2571 756.8114,-1426.7979"/>
<polygon fill="#000000" stroke="#000000" points="753.3182,-1426.5815 756.1832,-1436.7816 760.3043,-1427.0211 753.3182,-1426.5815"/>
</g>
<!-- 6461 -->
<g id="node27" class="node">
<title>6461</title>
<ellipse fill="none" stroke="#000000" cx="911.4539" cy="-990.812" rx="28.6953" ry="18"/>
<text text-anchor="middle" x="911.4539" y="-987.112" font-family="Times,serif" font-size="14.00" fill="#000000">6461</text>
</g>
<!-- 1299&#45;&gt;6461 -->
<g id="edge8" class="edge">
<title>1299&#45;&gt;6461</title>
<path fill="none" stroke="#000000" d="M883.6209,-946.9542C887.2161,-952.6193 891.3074,-959.0662 895.2258,-965.2406"/>
<polygon fill="#000000" stroke="#000000" points="892.4515,-967.4011 900.765,-973.969 898.3618,-963.6503 892.4515,-967.4011"/>
</g>
<!-- 2497 -->
<g id="node8" class="node">
<title>2497</title>
<ellipse fill="none" stroke="#000000" cx="950.0334" cy="-1051.6036" rx="28.6953" ry="18"/>
<text text-anchor="middle" x="950.0334" y="-1047.9036" font-family="Times,serif" font-size="14.00" fill="#000000">2497</text>
</g>
<!-- 2497&#45;&gt;701 -->
<g id="edge9" class="edge">
<title>2497&#45;&gt;701</title>
<path fill="none" stroke="#000000" d="M960.78,-1068.5375C964.3752,-1074.2025 968.4665,-1080.6495 972.3849,-1086.8238"/>
<polygon fill="#000000" stroke="#000000" points="969.6106,-1088.9843 977.9241,-1095.5522 975.5209,-1085.2335 969.6106,-1088.9843"/>
</g>
<!-- 32787 -->
<g id="node47" class="node">
<title>32787</title>
<ellipse fill="none" stroke="#000000" cx="1353.6192" cy="-951.6825" rx="32.4942" ry="18"/>
<text text-anchor="middle" x="1353.6192" y="-947.9825" font-family="Times,serif" font-size="14.00" fill="#000000">32787</text>
</g>
<!-- 2516&#45;&gt;32787 -->
<g id="edge10" class="edge">
<title>2516&#45;&gt;32787</title>
<path fill="none" stroke="#000000" d="M1310.6443,-940.6485C1311.7198,-940.9246 1312.8062,-941.2035 1313.8991,-941.4842"/>
<polygon fill="#000000" stroke="#000000" points="1313.2349,-944.9271 1323.7912,-944.024 1314.9758,-938.147 1313.2349,-944.9271"/>
</g>
<!-- 2686 -->
<g id="node10" class="node">
<title>2686</title>
<ellipse fill="none" stroke="#000000" cx="409.92" cy="-1416.3533" rx="28.6953" ry="18"/>
<text text-anchor="middle" x="409.92" y="-1412.6533" font-family="Times,serif" font-size="14.00" fill="#000000">2686</text>
</g>
<!-- 3741 -->
<g id="node21" class="node">
<title>3741</title>
<ellipse fill="none" stroke="#000000" cx="371.3405" cy="-1477.1449" rx="28.6953" ry="18"/>
<text text-anchor="middle" x="371.3405" y="-1473.4449" font-family="Times,serif" font-size="14.00" fill="#000000">3741</text>
</g>
<!-- 2686&#45;&gt;3741 -->
<g id="edge11" class="edge">
<title>2686&#45;&gt;3741</title>
<path fill="none" stroke="#000000" d="M399.1735,-1433.2871C395.5783,-1438.9522 391.487,-1445.3991 387.5686,-1451.5735"/>
<polygon fill="#000000" stroke="#000000" points="384.4326,-1449.9831 382.0294,-1460.3018 390.3429,-1453.734 384.4326,-1449.9831"/>
</g>
<!-- 2687 -->
<g id="node11" class="node">
<title>2687</title>
<ellipse fill="none" stroke="#000000" cx="382.6646" cy="-1307.7298" rx="28.6953" ry="18"/>
<text text-anchor="middle" x="382.6646" y="-1304.0298" font-family="Times,serif" font-size="14.00" fill="#000000">2687</text>
</g>
<!-- 2687&#45;&gt;2686 -->
<g id="edge12" class="edge">
<title>2687&#45;&gt;2686</title>
<path fill="none" stroke="#000000" d="M387.1653,-1325.6667C391.4657,-1342.8054 398.0102,-1368.8879 402.9785,-1388.6885"/>
<polygon fill="#000000" stroke="#000000" points="399.5841,-1389.5422 405.4127,-1398.3897 406.3736,-1387.8385 399.5841,-1389.5422"/>
</g>
<!-- 9505 -->
<g id="node37" class="node">
<title>9505</title>
<ellipse fill="none" stroke="#000000" cx="270.8579" cy="-1301.3111" rx="28.6953" ry="18"/>
<text text-anchor="middle" x="270.8579" y="-1297.6111" font-family="Times,serif" font-size="14.00" fill="#000000">9505</text>
</g>
<!-- 2687&#45;&gt;9505 -->
<g id="edge13" class="edge">
<title>2687&#45;&gt;9505</title>
<path fill="none" stroke="#000000" d="M354.1617,-1306.0934C340.7298,-1305.3223 324.494,-1304.3903 309.9367,-1303.5545"/>
<polygon fill="#000000" stroke="#000000" points="309.8817,-1300.0457 299.6975,-1302.9667 309.4804,-1307.0342 309.8817,-1300.0457"/>
</g>
<!-- 2764 -->
<g id="node12" class="node">
<title>2764</title>
<ellipse fill="none" stroke="#000000" cx="1438.6057" cy="-889.6531" rx="28.6953" ry="18"/>
<text text-anchor="middle" x="1438.6057" y="-885.9531" font-family="Times,serif" font-size="14.00" fill="#000000">2764</text>
</g>
<!-- 2828 -->
<g id="node13" class="node">
<title>2828</title>
<ellipse fill="none" stroke="#000000" cx="1319.9583" cy="-1189.322" rx="28.6953" ry="18"/>
<text text-anchor="middle" x="1319.9583" y="-1185.622" font-family="Times,serif" font-size="14.00" fill="#000000">2828</text>
</g>
<!-- 2914 -->
<g id="node14" class="node">
<title>2914</title>
<ellipse fill="none" stroke="#000000" cx="641.3972" cy="-565.2707" rx="28.6953" ry="18"/>
<text text-anchor="middle" x="641.3972" y="-561.5707" font-family="Times,serif" font-size="14.00" fill="#000000">2914</text>
</g>
<!-- 6453 -->
<g id="node26" class="node">
<title>6453</title>
<ellipse fill="none" stroke="#000000" cx="679.9767" cy="-626.0623" rx="28.6953" ry="18"/>
<text text-anchor="middle" x="679.9767" y="-622.3623" font-family="Times,serif" font-size="14.00" fill="#000000">6453</text>
</g>
<!-- 2914&#45;&gt;6453 -->
<g id="edge14" class="edge">
<title>2914&#45;&gt;6453</title>
<path fill="none" stroke="#000000" d="M652.1438,-582.2046C655.7389,-587.8697 659.8303,-594.3166 663.7486,-600.4909"/>
<polygon fill="#000000" stroke="#000000" points="660.9744,-602.6514 669.2878,-609.2193 666.8847,-598.9006 660.9744,-602.6514"/>
</g>
<!-- 3257 -->
<g id="node15" class="node">
<title>3257</title>
<ellipse fill="none" stroke="#000000" cx="718.5563" cy="-686.8539" rx="28.6953" ry="18"/>
<text text-anchor="middle" x="718.5563" y="-683.1539" font-family="Times,serif" font-size="14.00" fill="#000000">3257</text>
</g>
<!-- 3491 -->
<g id="node18" class="node">
<title>3491</title>
<ellipse fill="none" stroke="#000000" cx="757.1358" cy="-747.6456" rx="28.6953" ry="18"/>
<text text-anchor="middle" x="757.1358" y="-743.9456" font-family="Times,serif" font-size="14.00" fill="#000000">3491</text>
</g>
<!-- 3257&#45;&gt;3491 -->
<g id="edge15" class="edge">
<title>3257&#45;&gt;3491</title>
<path fill="none" stroke="#000000" d="M729.3028,-703.7878C732.898,-709.4529 736.9893,-715.8998 740.9077,-722.0742"/>
<polygon fill="#000000" stroke="#000000" points="738.1334,-724.2346 746.4469,-730.8025 744.0437,-720.4838 738.1334,-724.2346"/>
</g>
<!-- 3320 -->
<g id="node16" class="node">
<title>3320</title>
<ellipse fill="none" stroke="#000000" cx="701.2751" cy="-1303.5099" rx="28.6953" ry="18"/>
<text text-anchor="middle" x="701.2751" y="-1299.8099" font-family="Times,serif" font-size="14.00" fill="#000000">3320</text>
</g>
<!-- 3320&#45;&gt;1273 -->
<g id="edge16" class="edge">
<title>3320&#45;&gt;1273</title>
<path fill="none" stroke="#000000" d="M713.3493,-1320.0426C721.4752,-1331.169 732.3348,-1346.0386 741.4835,-1358.5656"/>
<polygon fill="#000000" stroke="#000000" points="738.765,-1360.7777 747.4893,-1366.7891 744.4179,-1356.6492 738.765,-1360.7777"/>
</g>
<!-- 5511 -->
<g id="node24" class="node">
<title>5511</title>
<ellipse fill="none" stroke="#000000" cx="617.7215" cy="-1356.2457" rx="28.6953" ry="18"/>
<text text-anchor="middle" x="617.7215" y="-1352.5457" font-family="Times,serif" font-size="14.00" fill="#000000">5511</text>
</g>
<!-- 3320&#45;&gt;5511 -->
<g id="edge17" class="edge">
<title>3320&#45;&gt;5511</title>
<path fill="none" stroke="#000000" d="M681.0491,-1316.2758C670.7597,-1322.7701 658.0684,-1330.7804 646.7557,-1337.9205"/>
<polygon fill="#000000" stroke="#000000" points="644.6393,-1335.1174 638.0509,-1343.4146 648.3755,-1341.037 644.6393,-1335.1174"/>
</g>
<!-- 3356 -->
<g id="node17" class="node">
<title>3356</title>
<ellipse fill="none" stroke="#000000" cx="764.0689" cy="-305.4317" rx="28.6953" ry="18"/>
<text text-anchor="middle" x="764.0689" y="-301.7317" font-family="Times,serif" font-size="14.00" fill="#000000">3356</text>
</g>
<!-- 3549 -->
<g id="node19" class="node">
<title>3549</title>
<ellipse fill="none" stroke="#000000" cx="564.2382" cy="-443.6875" rx="28.6953" ry="18"/>
<text text-anchor="middle" x="564.2382" y="-439.9875" font-family="Times,serif" font-size="14.00" fill="#000000">3549</text>
</g>
<!-- 3356&#45;&gt;3549 -->
<g id="edge18" class="edge">
<title>3356&#45;&gt;3549</title>
<path fill="none" stroke="#000000" d="M744.5444,-318.94C708.8615,-343.6277 633.0209,-396.0992 591.9882,-424.4882"/>
<polygon fill="#000000" stroke="#000000" points="589.7799,-421.76 583.5477,-430.3279 593.7627,-427.5165 589.7799,-421.76"/>
</g>
<!-- 3491&#45;&gt;174 -->
<g id="edge19" class="edge">
<title>3491&#45;&gt;174</title>
<path fill="none" stroke="#000000" d="M767.8823,-764.5794C771.4775,-770.2445 775.5689,-776.6914 779.4872,-782.8658"/>
<polygon fill="#000000" stroke="#000000" points="776.7129,-785.0262 785.0264,-791.5941 782.6232,-781.2754 776.7129,-785.0262"/>
</g>
<!-- 6762 -->
<g id="node28" class="node">
<title>6762</title>
<ellipse fill="none" stroke="#000000" cx="602.8177" cy="-504.4791" rx="28.6953" ry="18"/>
<text text-anchor="middle" x="602.8177" y="-500.7791" font-family="Times,serif" font-size="14.00" fill="#000000">6762</text>
</g>
<!-- 3549&#45;&gt;6762 -->
<g id="edge20" class="edge">
<title>3549&#45;&gt;6762</title>
<path fill="none" stroke="#000000" d="M574.9847,-460.6214C578.5799,-466.2864 582.6712,-472.7334 586.5896,-478.9077"/>
<polygon fill="#000000" stroke="#000000" points="583.8153,-481.0682 592.1288,-487.6361 589.7256,-477.3174 583.8153,-481.0682"/>
</g>
<!-- 30070 -->
<g id="node46" class="node">
<title>30070</title>
<ellipse fill="none" stroke="#000000" cx="387.9708" cy="-1104.6809" rx="32.4942" ry="18"/>
<text text-anchor="middle" x="387.9708" y="-1100.9809" font-family="Times,serif" font-size="14.00" fill="#000000">30070</text>
</g>
<!-- 3549&#45;&gt;30070 -->
<g id="edge21" class="edge">
<title>3549&#45;&gt;30070</title>
<path fill="none" stroke="#000000" d="M559.432,-461.7103C535.0576,-553.1129 425.1056,-965.4273 395.3921,-1076.8515"/>
<polygon fill="#000000" stroke="#000000" points="391.9675,-1076.1101 392.7726,-1086.6743 398.7312,-1077.9138 391.9675,-1076.1101"/>
</g>
<!-- 3597 -->
<g id="node20" class="node">
<title>3597</title>
<ellipse fill="none" stroke="#000000" cx="28.5975" cy="-611.4748" rx="28.6953" ry="18"/>
<text text-anchor="middle" x="28.5975" y="-607.7748" font-family="Times,serif" font-size="14.00" fill="#000000">3597</text>
</g>
<!-- 37179 -->
<g id="node48" class="node">
<title>37179</title>
<ellipse fill="none" stroke="#000000" cx="332.761" cy="-1537.9365" rx="32.4942" ry="18"/>
<text text-anchor="middle" x="332.761" y="-1534.2365" font-family="Times,serif" font-size="14.00" fill="#000000">37179</text>
</g>
<!-- 3741&#45;&gt;37179 -->
<g id="edge22" class="edge">
<title>3741&#45;&gt;37179</title>
<path fill="none" stroke="#000000" d="M360.594,-1494.0787C357.0587,-1499.6494 353.0437,-1505.9761 349.1851,-1512.0562"/>
<polygon fill="#000000" stroke="#000000" points="346.1211,-1510.3524 343.718,-1520.6711 352.0314,-1514.1032 346.1211,-1510.3524"/>
</g>
<!-- 4637 -->
<g id="node22" class="node">
<title>4637</title>
<ellipse fill="none" stroke="#000000" cx="1261.7091" cy="-1147.0015" rx="28.6953" ry="18"/>
<text text-anchor="middle" x="1261.7091" y="-1143.3015" font-family="Times,serif" font-size="14.00" fill="#000000">4637</text>
</g>
<!-- 4637&#45;&gt;2828 -->
<g id="edge23" class="edge">
<title>4637&#45;&gt;2828</title>
<path fill="none" stroke="#000000" d="M1280.4602,-1160.6249C1284.3306,-1163.4369 1288.4821,-1166.4532 1292.587,-1169.4356"/>
<polygon fill="#000000" stroke="#000000" points="1290.6951,-1172.3872 1300.8425,-1175.4336 1294.8096,-1166.7241 1290.6951,-1172.3872"/>
</g>
<!-- 4755 -->
<g id="node23" class="node">
<title>4755</title>
<ellipse fill="none" stroke="#000000" cx="1071.6203" cy="-1394.7651" rx="28.6953" ry="18"/>
<text text-anchor="middle" x="1071.6203" y="-1391.0651" font-family="Times,serif" font-size="14.00" fill="#000000">4755</text>
</g>
<!-- 5692 -->
<g id="node25" class="node">
<title>5692</title>
<ellipse fill="none" stroke="#000000" cx="840.9245" cy="-89.8579" rx="28.6953" ry="18"/>
<text text-anchor="middle" x="840.9245" y="-86.1579" font-family="Times,serif" font-size="14.00" fill="#000000">5692</text>
</g>
<!-- 5692&#45;&gt;3597 -->
<g id="edge24" class="edge">
<title>5692&#45;&gt;3597</title>
<path fill="none" stroke="#000000" d="M820.8444,-102.7519C711.3301,-173.074 186.3494,-510.1781 57.2991,-593.0447"/>
<polygon fill="#000000" stroke="#000000" points="55.2263,-590.2162 48.7028,-598.5646 59.0086,-596.1064 55.2263,-590.2162"/>
</g>
<!-- 10834 -->
<g id="node39" class="node">
<title>10834</title>
<ellipse fill="none" stroke="#000000" cx="755.0271" cy="-161.7158" rx="32.4942" ry="18"/>
<text text-anchor="middle" x="755.0271" y="-158.0158" font-family="Times,serif" font-size="14.00" fill="#000000">10834</text>
</g>
<!-- 5692&#45;&gt;10834 -->
<g id="edge25" class="edge">
<title>5692&#45;&gt;10834</title>
<path fill="none" stroke="#000000" d="M823.5419,-104.3994C811.248,-114.684 794.5599,-128.6445 780.7317,-140.2125"/>
<polygon fill="#000000" stroke="#000000" points="778.3995,-137.6003 772.9751,-146.7013 782.891,-142.9694 778.3995,-137.6003"/>
</g>
<!-- 11008 -->
<g id="node40" class="node">
<title>11008</title>
<ellipse fill="none" stroke="#000000" cx="101.6804" cy="-426.8883" rx="32.4942" ry="18"/>
<text text-anchor="middle" x="101.6804" y="-423.1883" font-family="Times,serif" font-size="14.00" fill="#000000">11008</text>
</g>
<!-- 5692&#45;&gt;11008 -->
<g id="edge26" class="edge">
<title>5692&#45;&gt;11008</title>
<path fill="none" stroke="#000000" d="M817.5794,-100.5012C710.3017,-149.4105 264.4049,-352.7002 136.2617,-411.1222"/>
<polygon fill="#000000" stroke="#000000" points="134.5522,-408.055 126.9051,-415.388 137.456,-414.4243 134.5522,-408.055"/>
</g>
<!-- 27865 -->
<g id="node44" class="node">
<title>27865</title>
<ellipse fill="none" stroke="#000000" cx="218.3722" cy="-266.2759" rx="32.4942" ry="18"/>
<text text-anchor="middle" x="218.3722" y="-262.5759" font-family="Times,serif" font-size="14.00" fill="#000000">27865</text>
</g>
<!-- 5692&#45;&gt;27865 -->
<g id="edge27" class="edge">
<title>5692&#45;&gt;27865</title>
<path fill="none" stroke="#000000" d="M814.5718,-97.3257C716.7357,-125.0504 374.0154,-222.1699 257.4935,-255.1897"/>
<polygon fill="#000000" stroke="#000000" points="256.2412,-251.9067 247.5743,-258.0006 258.1497,-258.6415 256.2412,-251.9067"/>
</g>
<!-- 28065 -->
<g id="node45" class="node">
<title>28065</title>
<ellipse fill="none" stroke="#000000" cx="371.3405" cy="-139.7295" rx="32.4942" ry="18"/>
<text text-anchor="middle" x="371.3405" y="-136.0295" font-family="Times,serif" font-size="14.00" fill="#000000">28065</text>
</g>
<!-- 5692&#45;&gt;28065 -->
<g id="edge28" class="edge">
<title>5692&#45;&gt;28065</title>
<path fill="none" stroke="#000000" d="M812.6074,-92.8653C733.0993,-101.3094 507.4894,-125.2699 413.3779,-135.2649"/>
<polygon fill="#000000" stroke="#000000" points="412.9373,-131.7919 403.3629,-136.3286 413.6767,-138.7528 412.9373,-131.7919"/>
</g>
<!-- 52317 -->
<g id="node49" class="node">
<title>52317</title>
<ellipse fill="none" stroke="#000000" cx="550.9739" cy="-55.2004" rx="32.4942" ry="18"/>
<text text-anchor="middle" x="550.9739" y="-51.5004" font-family="Times,serif" font-size="14.00" fill="#000000">52317</text>
</g>
<!-- 5692&#45;&gt;52317 -->
<g id="edge29" class="edge">
<title>5692&#45;&gt;52317</title>
<path fill="none" stroke="#000000" d="M812.5949,-86.4717C761.3782,-80.3498 653.144,-67.4127 593.1831,-60.2456"/>
<polygon fill="#000000" stroke="#000000" points="593.2723,-56.7315 582.9276,-59.0198 592.4415,-63.682 593.2723,-56.7315"/>
</g>
<!-- 52375 -->
<g id="node50" class="node">
<title>52375</title>
<ellipse fill="none" stroke="#000000" cx="745.9852" cy="-18" rx="32.4942" ry="18"/>
<text text-anchor="middle" x="745.9852" y="-14.3" font-family="Times,serif" font-size="14.00" fill="#000000">52375</text>
</g>
<!-- 5692&#45;&gt;52375 -->
<g id="edge30" class="edge">
<title>5692&#45;&gt;52375</title>
<path fill="none" stroke="#000000" d="M822.6193,-76.003C808.7073,-65.4732 789.3388,-50.8136 773.5547,-38.8669"/>
<polygon fill="#000000" stroke="#000000" points="775.2978,-35.7967 765.2119,-32.5523 771.0732,-41.3782 775.2978,-35.7967"/>
</g>
<!-- 52376 -->
<g id="node51" class="node">
<title>52376</title>
<ellipse fill="none" stroke="#000000" cx="944.1213" cy="-30.4657" rx="32.4942" ry="18"/>
<text text-anchor="middle" x="944.1213" y="-26.7657" font-family="Times,serif" font-size="14.00" fill="#000000">52376</text>
</g>
<!-- 5692&#45;&gt;52376 -->
<g id="edge31" class="edge">
<title>5692&#45;&gt;52376</title>
<path fill="none" stroke="#000000" d="M862.3069,-77.5518C876.8522,-69.1807 896.3436,-57.9629 912.6529,-48.5765"/>
<polygon fill="#000000" stroke="#000000" points="914.4134,-51.6016 921.3346,-43.58 910.9216,-45.5347 914.4134,-51.6016"/>
</g>
<!-- 52380 -->
<g id="node52" class="node">
<title>52380</title>
<ellipse fill="none" stroke="#000000" cx="1132.9325" cy="-91.8141" rx="32.4942" ry="18"/>
<text text-anchor="middle" x="1132.9325" y="-88.1141" font-family="Times,serif" font-size="14.00" fill="#000000">52380</text>
</g>
<!-- 5692&#45;&gt;52380 -->
<g id="edge32" class="edge">
<title>5692&#45;&gt;52380</title>
<path fill="none" stroke="#000000" d="M869.7225,-90.0508C921.302,-90.3964 1029.6828,-91.1225 1090.0413,-91.5268"/>
<polygon fill="#000000" stroke="#000000" points="1090.3481,-95.0288 1100.3713,-91.596 1090.395,-88.029 1090.3481,-95.0288"/>
</g>
<!-- 52413 -->
<g id="node53" class="node">
<title>52413</title>
<ellipse fill="none" stroke="#000000" cx="1300.5551" cy="-198.1907" rx="32.4942" ry="18"/>
<text text-anchor="middle" x="1300.5551" y="-194.4907" font-family="Times,serif" font-size="14.00" fill="#000000">52413</text>
</g>
<!-- 5692&#45;&gt;52413 -->
<g id="edge33" class="edge">
<title>5692&#45;&gt;52413</title>
<path fill="none" stroke="#000000" d="M867.9605,-96.2302C945.5043,-114.5069 1168.9563,-167.1735 1260.6079,-188.7753"/>
<polygon fill="#000000" stroke="#000000" points="1260.0651,-192.2432 1270.6014,-191.1307 1261.6711,-185.4299 1260.0651,-192.2432"/>
</g>
<!-- 52431 -->
<g id="node54" class="node">
<title>52431</title>
<ellipse fill="none" stroke="#000000" cx="1436.4568" cy="-342.9112" rx="32.4942" ry="18"/>
<text text-anchor="middle" x="1436.4568" y="-339.2112" font-family="Times,serif" font-size="14.00" fill="#000000">52431</text>
</g>
<!-- 5692&#45;&gt;52431 -->
<g id="edge34" class="edge">
<title>5692&#45;&gt;52431</title>
<path fill="none" stroke="#000000" d="M864.6376,-99.9341C956.7199,-139.0616 1290.9089,-281.0651 1401.0091,-327.8488"/>
<polygon fill="#000000" stroke="#000000" points="1399.7803,-331.1295 1410.3527,-331.8191 1402.5179,-324.687 1399.7803,-331.1295"/>
</g>
<!-- 262230 -->
<g id="node55" class="node">
<title>262230</title>
<ellipse fill="none" stroke="#000000" cx="1532.0983" cy="-516.8825" rx="37.0935" ry="18"/>
<text text-anchor="middle" x="1532.0983" y="-513.1825" font-family="Times,serif" font-size="14.00" fill="#000000">262230</text>
</g>
<!-- 5692&#45;&gt;262230 -->
<g id="edge35" class="edge">
<title>5692&#45;&gt;262230</title>
<path fill="none" stroke="#000000" d="M861.61,-102.6379C960.0108,-163.4325 1380.8966,-423.4663 1500.3653,-497.2771"/>
<polygon fill="#000000" stroke="#000000" points="1498.7309,-500.3814 1509.0778,-502.6599 1502.4101,-494.4263 1498.7309,-500.3814"/>
</g>
<!-- 264608 -->
<g id="node56" class="node">
<title>264608</title>
<ellipse fill="none" stroke="#000000" cx="1581.4702" cy="-709.1732" rx="37.0935" ry="18"/>
<text text-anchor="middle" x="1581.4702" y="-705.4732" font-family="Times,serif" font-size="14.00" fill="#000000">264608</text>
</g>
<!-- 5692&#45;&gt;264608 -->
<g id="edge36" class="edge">
<title>5692&#45;&gt;264608</title>
<path fill="none" stroke="#000000" d="M858.1398,-104.255C955.3773,-185.5743 1435.7342,-587.2949 1554.7542,-686.8308"/>
<polygon fill="#000000" stroke="#000000" points="1552.7725,-689.7361 1562.6889,-693.4666 1557.2632,-684.3664 1552.7725,-689.7361"/>
</g>
<!-- 6453&#45;&gt;3257 -->
<g id="edge37" class="edge">
<title>6453&#45;&gt;3257</title>
<path fill="none" stroke="#000000" d="M690.7233,-642.9962C694.3185,-648.6613 698.4098,-655.1082 702.3282,-661.2826"/>
<polygon fill="#000000" stroke="#000000" points="699.5539,-663.443 707.8674,-670.0109 705.4642,-659.6922 699.5539,-663.443"/>
</g>
<!-- 6461&#45;&gt;2497 -->
<g id="edge38" class="edge">
<title>6461&#45;&gt;2497</title>
<path fill="none" stroke="#000000" d="M922.2005,-1007.7459C925.7956,-1013.4109 929.887,-1019.8579 933.8053,-1026.0322"/>
<polygon fill="#000000" stroke="#000000" points="931.0311,-1028.1927 939.3445,-1034.7606 936.9414,-1024.4419 931.0311,-1028.1927"/>
</g>
<!-- 6762&#45;&gt;2914 -->
<g id="edge39" class="edge">
<title>6762&#45;&gt;2914</title>
<path fill="none" stroke="#000000" d="M613.5642,-521.413C617.1594,-527.0781 621.2507,-533.525 625.1691,-539.6993"/>
<polygon fill="#000000" stroke="#000000" points="622.3948,-541.8598 630.7083,-548.4277 628.3051,-538.109 622.3948,-541.8598"/>
</g>
<!-- 6904 -->
<g id="node29" class="node">
<title>6904</title>
<ellipse fill="none" stroke="#000000" cx="428.5591" cy="-1252.2528" rx="28.6953" ry="18"/>
<text text-anchor="middle" x="428.5591" y="-1248.5528" font-family="Times,serif" font-size="14.00" fill="#000000">6904</text>
</g>
<!-- 6904&#45;&gt;2687 -->
<g id="edge40" class="edge">
<title>6904&#45;&gt;2687</title>
<path fill="none" stroke="#000000" d="M415.2845,-1268.299C411.3234,-1273.0872 406.8917,-1278.4442 402.6026,-1283.6288"/>
<polygon fill="#000000" stroke="#000000" points="399.7458,-1281.5912 396.0683,-1291.5274 405.1394,-1286.0532 399.7458,-1281.5912"/>
</g>
<!-- 6939 -->
<g id="node30" class="node">
<title>6939</title>
<ellipse fill="none" stroke="#000000" cx="917.1384" cy="-1444.9593" rx="28.6953" ry="18"/>
<text text-anchor="middle" x="917.1384" y="-1441.2593" font-family="Times,serif" font-size="14.00" fill="#000000">6939</text>
</g>
<!-- 7016 -->
<g id="node31" class="node">
<title>7016</title>
<ellipse fill="none" stroke="#000000" cx="290.9627" cy="-1085.9273" rx="28.6953" ry="18"/>
<text text-anchor="middle" x="290.9627" y="-1082.2273" font-family="Times,serif" font-size="14.00" fill="#000000">7016</text>
</g>
<!-- 7922 -->
<g id="node35" class="node">
<title>7922</title>
<ellipse fill="none" stroke="#000000" cx="227.8686" cy="-1120.6135" rx="28.6953" ry="18"/>
<text text-anchor="middle" x="227.8686" y="-1116.9135" font-family="Times,serif" font-size="14.00" fill="#000000">7922</text>
</g>
<!-- 7016&#45;&gt;7922 -->
<g id="edge41" class="edge">
<title>7016&#45;&gt;7922</title>
<path fill="none" stroke="#000000" d="M269.2493,-1097.8643C265.7403,-1099.7934 262.0511,-1101.8216 258.3805,-1103.8395"/>
<polygon fill="#000000" stroke="#000000" points="256.4852,-1100.8873 249.4083,-1108.772 259.8575,-1107.0215 256.4852,-1100.8873"/>
</g>
<!-- 7018&#45;&gt;3320 -->
<g id="edge42" class="edge">
<title>7018&#45;&gt;3320</title>
<path fill="none" stroke="#000000" d="M711.2922,-1250.9986C709.8649,-1258.4808 708.1798,-1267.3145 706.6029,-1275.5806"/>
<polygon fill="#000000" stroke="#000000" points="703.1269,-1275.1244 704.691,-1285.6031 710.0029,-1276.4361 703.1269,-1275.1244"/>
</g>
<!-- 7473 -->
<g id="node33" class="node">
<title>7473</title>
<ellipse fill="none" stroke="#000000" cx="1162.8715" cy="-1252.2528" rx="28.6953" ry="18"/>
<text text-anchor="middle" x="1162.8715" y="-1248.5528" font-family="Times,serif" font-size="14.00" fill="#000000">7473</text>
</g>
<!-- 7474 -->
<g id="node34" class="node">
<title>7474</title>
<ellipse fill="none" stroke="#000000" cx="1398.2105" cy="-1046.9819" rx="28.6953" ry="18"/>
<text text-anchor="middle" x="1398.2105" y="-1043.2819" font-family="Times,serif" font-size="14.00" fill="#000000">7474</text>
</g>
<!-- 9498&#45;&gt;4637 -->
<g id="edge43" class="edge">
<title>9498&#45;&gt;4637</title>
<path fill="none" stroke="#000000" d="M1089.4066,-1223.487C1124.2183,-1208.034 1189.4069,-1179.0966 1228.8552,-1161.5854"/>
<polygon fill="#000000" stroke="#000000" points="1230.5758,-1164.651 1238.2957,-1157.3947 1227.7357,-1158.2531 1230.5758,-1164.651"/>
</g>
<!-- 9498&#45;&gt;7473 -->
<g id="edge44" class="edge">
<title>9498&#45;&gt;7473</title>
<path fill="none" stroke="#000000" d="M1093.3371,-1239.1663C1103.2796,-1241.0375 1114.676,-1243.1823 1125.3265,-1245.1867"/>
<polygon fill="#000000" stroke="#000000" points="1124.7627,-1248.642 1135.2375,-1247.052 1126.0574,-1241.7628 1124.7627,-1248.642"/>
</g>
<!-- 10026 -->
<g id="node38" class="node">
<title>10026</title>
<ellipse fill="none" stroke="#000000" cx="973.7091" cy="-1356.2457" rx="32.4942" ry="18"/>
<text text-anchor="middle" x="973.7091" y="-1352.5457" font-family="Times,serif" font-size="14.00" fill="#000000">10026</text>
</g>
<!-- 9498&#45;&gt;10026 -->
<g id="edge45" class="edge">
<title>9498&#45;&gt;10026</title>
<path fill="none" stroke="#000000" d="M1053.356,-1250.468C1037.6384,-1271.3423 1010.4235,-1307.486 992.2428,-1331.6315"/>
<polygon fill="#000000" stroke="#000000" points="989.4416,-1329.533 986.2224,-1339.627 995.0336,-1333.7437 989.4416,-1329.533"/>
</g>
<!-- 10026&#45;&gt;4755 -->
<g id="edge46" class="edge">
<title>10026&#45;&gt;4755</title>
<path fill="none" stroke="#000000" d="M1000.2053,-1366.6696C1011.7348,-1371.2055 1025.3862,-1376.5761 1037.6493,-1381.4005"/>
<polygon fill="#000000" stroke="#000000" points="1036.5323,-1384.7221 1047.1194,-1385.1262 1039.095,-1378.2081 1036.5323,-1384.7221"/>
</g>
<!-- 10026&#45;&gt;6939 -->
<g id="edge47" class="edge">
<title>10026&#45;&gt;6939</title>
<path fill="none" stroke="#000000" d="M962.8017,-1373.3506C954.4529,-1386.4431 942.8062,-1404.7074 933.3648,-1419.5132"/>
<polygon fill="#000000" stroke="#000000" points="930.2461,-1417.8944 927.8205,-1428.2078 936.1482,-1421.658 930.2461,-1417.8944"/>
</g>
<!-- 12956 -->
<g id="node41" class="node">
<title>12956</title>
<ellipse fill="none" stroke="#000000" cx="759.548" cy="-233.5738" rx="32.4942" ry="18"/>
<text text-anchor="middle" x="759.548" y="-229.8738" font-family="Times,serif" font-size="14.00" fill="#000000">12956</text>
</g>
<!-- 10834&#45;&gt;12956 -->
<g id="edge48" class="edge">
<title>10834&#45;&gt;12956</title>
<path fill="none" stroke="#000000" d="M756.1679,-179.8486C756.6514,-187.5338 757.2263,-196.6724 757.7637,-205.2132"/>
<polygon fill="#000000" stroke="#000000" points="754.2707,-205.4364 758.3918,-215.1968 761.2569,-204.9968 754.2707,-205.4364"/>
</g>
<!-- 22927 -->
<g id="node43" class="node">
<title>22927</title>
<ellipse fill="none" stroke="#000000" cx="75.7153" cy="-808.4372" rx="32.4942" ry="18"/>
<text text-anchor="middle" x="75.7153" y="-804.7372" font-family="Times,serif" font-size="14.00" fill="#000000">22927</text>
</g>
<!-- 10834&#45;&gt;22927 -->
<g id="edge49" class="edge">
<title>10834&#45;&gt;22927</title>
<path fill="none" stroke="#000000" d="M738.5716,-177.3819C647.7403,-263.8554 207.8259,-682.6647 99.7382,-785.5668"/>
<polygon fill="#000000" stroke="#000000" points="97.087,-783.2583 92.2576,-792.6885 101.9136,-788.3282 97.087,-783.2583"/>
</g>
<!-- 12956&#45;&gt;3356 -->
<g id="edge50" class="edge">
<title>12956&#45;&gt;3356</title>
<path fill="none" stroke="#000000" d="M760.6888,-251.7066C761.1723,-259.3918 761.7473,-268.5303 762.2846,-277.0711"/>
<polygon fill="#000000" stroke="#000000" points="758.7916,-277.2943 762.9127,-287.0548 765.7778,-276.8547 758.7916,-277.2943"/>
</g>
<!-- 18540 -->
<g id="node42" class="node">
<title>18540</title>
<ellipse fill="none" stroke="#000000" cx="237.8114" cy="-951.6825" rx="32.4942" ry="18"/>
<text text-anchor="middle" x="237.8114" y="-947.9825" font-family="Times,serif" font-size="14.00" fill="#000000">18540</text>
</g>
<!-- 30070&#45;&gt;6904 -->
<g id="edge51" class="edge">
<title>30070&#45;&gt;6904</title>
<path fill="none" stroke="#000000" d="M392.8667,-1122.4816C399.8451,-1147.854 412.7166,-1194.6522 420.9459,-1224.5725"/>
<polygon fill="#000000" stroke="#000000" points="417.6192,-1225.6753 423.6458,-1234.3891 424.3685,-1223.8189 417.6192,-1225.6753"/>
</g>
<!-- 30070&#45;&gt;7016 -->
<g id="edge52" class="edge">
<title>30070&#45;&gt;7016</title>
<path fill="none" stroke="#000000" d="M357.2768,-1098.7472C348.1457,-1096.9819 338.0366,-1095.0276 328.5206,-1093.188"/>
<polygon fill="#000000" stroke="#000000" points="328.9844,-1089.7129 318.5018,-1091.2512 327.6557,-1096.5857 328.9844,-1089.7129"/>
</g>
<!-- 30070&#45;&gt;18540 -->
<g id="edge53" class="edge">
<title>30070&#45;&gt;18540</title>
<path fill="none" stroke="#000000" d="M372.1849,-1088.5966C345.5292,-1061.437 291.4971,-1006.3833 260.6876,-974.9912"/>
<polygon fill="#000000" stroke="#000000" points="262.8883,-972.2368 253.3858,-967.5514 257.8924,-977.14 262.8883,-972.2368"/>
</g>
<!-- 32787&#45;&gt;2764 -->
<g id="edge54" class="edge">
<title>32787&#45;&gt;2764</title>
<path fill="none" stroke="#000000" d="M1373.3304,-937.2958C1384.7249,-928.9793 1399.2223,-918.398 1411.6589,-909.3209"/>
<polygon fill="#000000" stroke="#000000" points="1413.8622,-912.0459 1419.8761,-903.3233 1409.7353,-906.3917 1413.8622,-912.0459"/>
</g>
<!-- 32787&#45;&gt;7474 -->
<g id="edge55" class="edge">
<title>32787&#45;&gt;7474</title>
<path fill="none" stroke="#000000" d="M1361.798,-969.1619C1368.5237,-983.5359 1378.1609,-1004.1324 1385.8314,-1020.5257"/>
<polygon fill="#000000" stroke="#000000" points="1382.6753,-1022.0391 1390.0836,-1029.6133 1389.0156,-1019.0724 1382.6753,-1022.0391"/>
</g>
</g>
</svg>
