<?xml version="1.0" encoding="UTF-8" standalone="no"?>
<!DOCTYPE svg PUBLIC "-//W3C//DTD SVG 1.1//EN"
 "http://www.w3.org/Graphics/SVG/1.1/DTD/svg11.dtd">
<!-- Generated by graphviz version 2.40.1 (20161225.0304)
 -->
<!-- Title: %3 Pages: 1 -->
<svg width="720pt" height="475pt"
 viewBox="0.00 0.00 719.64 475.00" xmlns="http://www.w3.org/2000/svg" xmlns:xlink="http://www.w3.org/1999/xlink">
<g id="graph0" class="graph" transform="scale(1 1) rotate(0) translate(4 470.9955)">
<title>%3</title>
<polygon fill="#ffffff" stroke="transparent" points="-4,4 -4,-470.9955 715.6438,-470.9955 715.6438,4 -4,4"/>
<!-- 174 -->
<g id="node1" class="node">
<title>174</title>
<ellipse fill="none" stroke="#000000" cx="375.0826" cy="-234.0865" rx="27" ry="18"/>
<text text-anchor="middle" x="375.0826" y="-230.3865" font-family="Times,serif" font-size="14.00" fill="#000000">174</text>
</g>
<!-- 209 -->
<g id="node2" class="node">
<title>209</title>
<ellipse fill="none" stroke="#000000" cx="409.1679" cy="-223.5292" rx="27" ry="18"/>
<text text-anchor="middle" x="409.1679" y="-219.8292" font-family="Times,serif" font-size="14.00" fill="#000000">209</text>
</g>
<!-- 174&#45;&gt;209 -->
<g id="edge1" class="edge">
<title>174&#45;&gt;209</title>
<path fill="none" stroke="#000000" d="M399.854,-226.414C399.9366,-226.3884 400.0189,-226.3629 400.1008,-226.3376"/>
<polygon fill="#000000" stroke="#000000" points="391.8298,-232.5664 400.3458,-226.2617 389.7568,-225.8797 391.8298,-232.5664"/>
</g>
<!-- 1299 -->
<g id="node7" class="node">
<title>1299</title>
<ellipse fill="none" stroke="#000000" cx="444.0881" cy="-210.4573" rx="28.6953" ry="18"/>
<text text-anchor="middle" x="444.0881" y="-206.7573" font-family="Times,serif" font-size="14.00" fill="#000000">1299</text>
</g>
<!-- 209&#45;&gt;1299 -->
<g id="edge2" class="edge">
<title>209&#45;&gt;1299</title>
<path fill="none" stroke="#000000" d="M433.0392,-214.5933C433.0871,-214.5753 433.135,-214.5574 433.1828,-214.5395"/>
<polygon fill="#000000" stroke="#000000" points="425.1888,-221.274 433.326,-214.4859 422.7317,-214.718 425.1888,-221.274"/>
</g>
<!-- 701 -->
<g id="node3" class="node">
<title>701</title>
<ellipse fill="none" stroke="#000000" cx="552.6073" cy="-166.7541" rx="27" ry="18"/>
<text text-anchor="middle" x="552.6073" y="-163.0541" font-family="Times,serif" font-size="14.00" fill="#000000">701</text>
</g>
<!-- 703 -->
<g id="node4" class="node">
<title>703</title>
<ellipse fill="none" stroke="#000000" cx="594.9053" cy="-185.1826" rx="27" ry="18"/>
<text text-anchor="middle" x="594.9053" y="-181.4826" font-family="Times,serif" font-size="14.00" fill="#000000">703</text>
</g>
<!-- 701&#45;&gt;703 -->
<g id="edge3" class="edge">
<title>701&#45;&gt;703</title>
<path fill="none" stroke="#000000" d="M575.2422,-176.6157C575.3208,-176.65 575.3993,-176.6842 575.4779,-176.7184"/>
<polygon fill="#000000" stroke="#000000" points="565.1465,-176.0333 575.7133,-176.821 567.9441,-169.6156 565.1465,-176.0333"/>
</g>
<!-- 7018 -->
<g id="node32" class="node">
<title>7018</title>
<ellipse fill="none" stroke="#000000" cx="543.0195" cy="-128.524" rx="28.6953" ry="18"/>
<text text-anchor="middle" x="543.0195" y="-124.824" font-family="Times,serif" font-size="14.00" fill="#000000">7018</text>
</g>
<!-- 701&#45;&gt;7018 -->
<g id="edge4" class="edge">
<title>701&#45;&gt;7018</title>
<path fill="none" stroke="#000000" d="M548.1502,-148.9821C548.1257,-148.8846 548.1013,-148.7871 548.0768,-148.6895"/>
<polygon fill="#000000" stroke="#000000" points="553.3902,-155.4866 547.5624,-146.6385 546.6005,-157.1896 553.3902,-155.4866"/>
</g>
<!-- 2516 -->
<g id="node9" class="node">
<title>2516</title>
<ellipse fill="none" stroke="#000000" cx="625.8846" cy="-159.583" rx="28.6953" ry="18"/>
<text text-anchor="middle" x="625.8846" y="-155.883" font-family="Times,serif" font-size="14.00" fill="#000000">2516</text>
</g>
<!-- 703&#45;&gt;2516 -->
<g id="edge5" class="edge">
<title>703&#45;&gt;2516</title>
<path fill="none" stroke="#000000" d="M612.2065,-170.8858C612.2619,-170.84 612.3173,-170.7942 612.3727,-170.7485"/>
<polygon fill="#000000" stroke="#000000" points="607.0591,-179.6814 612.5387,-170.6113 602.5989,-174.2846 607.0591,-179.6814"/>
</g>
<!-- 9498 -->
<g id="node36" class="node">
<title>9498</title>
<ellipse fill="none" stroke="#000000" cx="610.9414" cy="-228.4026" rx="28.6953" ry="18"/>
<text text-anchor="middle" x="610.9414" y="-224.7026" font-family="Times,serif" font-size="14.00" fill="#000000">9498</text>
</g>
<!-- 703&#45;&gt;9498 -->
<g id="edge6" class="edge">
<title>703&#45;&gt;9498</title>
<path fill="none" stroke="#000000" d="M601.4278,-202.7618C601.4885,-202.9254 601.5493,-203.0893 601.6102,-203.2535"/>
<polygon fill="#000000" stroke="#000000" points="597.6125,-202.5407 604.3726,-210.6986 604.1754,-200.1056 597.6125,-202.5407"/>
</g>
<!-- 1239 -->
<g id="node5" class="node">
<title>1239</title>
<ellipse fill="none" stroke="#000000" cx="502.716" cy="-36.31" rx="28.6953" ry="18"/>
<text text-anchor="middle" x="502.716" y="-32.61" font-family="Times,serif" font-size="14.00" fill="#000000">1239</text>
</g>
<!-- 1273 -->
<g id="node6" class="node">
<title>1273</title>
<ellipse fill="none" stroke="#000000" cx="513.9133" cy="-62.5325" rx="28.6953" ry="18"/>
<text text-anchor="middle" x="513.9133" y="-58.8325" font-family="Times,serif" font-size="14.00" fill="#000000">1273</text>
</g>
<!-- 1273&#45;&gt;1239 -->
<g id="edge7" class="edge">
<title>1273&#45;&gt;1239</title>
<path fill="none" stroke="#000000" d="M506.3824,-44.8962C506.3508,-44.8221 506.3192,-44.7482 506.2878,-44.6746"/>
<polygon fill="#000000" stroke="#000000" points="513.3423,-52.2759 506.1937,-44.4543 506.9044,-55.0266 513.3423,-52.2759"/>
</g>
<!-- 6461 -->
<g id="node27" class="node">
<title>6461</title>
<ellipse fill="none" stroke="#000000" cx="478.7443" cy="-196.4356" rx="28.6953" ry="18"/>
<text text-anchor="middle" x="478.7443" y="-192.7356" font-family="Times,serif" font-size="14.00" fill="#000000">6461</text>
</g>
<!-- 1299&#45;&gt;6461 -->
<g id="edge8" class="edge">
<title>1299&#45;&gt;6461</title>
<path fill="none" stroke="#000000" d="M468.158,-200.7187C468.2042,-200.7 468.2503,-200.6814 468.2963,-200.6628"/>
<polygon fill="#000000" stroke="#000000" points="460.4779,-207.6064 468.4343,-200.607 457.8496,-201.1171 460.4779,-207.6064"/>
</g>
<!-- 2497 -->
<g id="node8" class="node">
<title>2497</title>
<ellipse fill="none" stroke="#000000" cx="514.7917" cy="-182.0092" rx="28.6953" ry="18"/>
<text text-anchor="middle" x="514.7917" y="-178.3092" font-family="Times,serif" font-size="14.00" fill="#000000">2497</text>
</g>
<!-- 2497&#45;&gt;701 -->
<g id="edge9" class="edge">
<title>2497&#45;&gt;701</title>
<path fill="none" stroke="#000000" d="M538.955,-172.2616C539.0129,-172.2382 539.0707,-172.2149 539.1285,-172.1916"/>
<polygon fill="#000000" stroke="#000000" points="531.3378,-179.1122 539.3015,-172.1218 528.7167,-172.6203 531.3378,-179.1122"/>
</g>
<!-- 32787 -->
<g id="node47" class="node">
<title>32787</title>
<ellipse fill="none" stroke="#000000" cx="654.211" cy="-135.7919" rx="32.4942" ry="18"/>
<text text-anchor="middle" x="654.211" y="-132.0919" font-family="Times,serif" font-size="14.00" fill="#000000">32787</text>
</g>
<!-- 2516&#45;&gt;32787 -->
<g id="edge10" class="edge">
<title>2516&#45;&gt;32787</title>
<path fill="none" stroke="#000000" d="M643.3403,-144.9221C643.3859,-144.8839 643.4314,-144.8457 643.4768,-144.8075"/>
<polygon fill="#000000" stroke="#000000" points="638.2059,-153.8071 643.613,-144.6931 633.7025,-148.446 638.2059,-153.8071"/>
</g>
<!-- 2686 -->
<g id="node10" class="node">
<title>2686</title>
<ellipse fill="none" stroke="#000000" cx="72.5971" cy="-398.2442" rx="28.6953" ry="18"/>
<text text-anchor="middle" x="72.5971" y="-394.5442" font-family="Times,serif" font-size="14.00" fill="#000000">2686</text>
</g>
<!-- 3741 -->
<g id="node21" class="node">
<title>3741</title>
<ellipse fill="none" stroke="#000000" cx="54.4287" cy="-425.5178" rx="28.6953" ry="18"/>
<text text-anchor="middle" x="54.4287" y="-421.8178" font-family="Times,serif" font-size="14.00" fill="#000000">3741</text>
</g>
<!-- 2686&#45;&gt;3741 -->
<g id="edge11" class="edge">
<title>2686&#45;&gt;3741</title>
<path fill="none" stroke="#000000" d="M61.4011,-415.0511C61.3719,-415.095 61.3427,-415.1388 61.3136,-415.1825"/>
<polygon fill="#000000" stroke="#000000" points="63.8599,-405.0487 61.2262,-415.3136 69.6863,-408.9315 63.8599,-405.0487"/>
</g>
<!-- 2687 -->
<g id="node11" class="node">
<title>2687</title>
<ellipse fill="none" stroke="#000000" cx="95.5091" cy="-369.4124" rx="28.6953" ry="18"/>
<text text-anchor="middle" x="95.5091" y="-365.7124" font-family="Times,serif" font-size="14.00" fill="#000000">2687</text>
</g>
<!-- 2687&#45;&gt;2686 -->
<g id="edge12" class="edge">
<title>2687&#45;&gt;2686</title>
<path fill="none" stroke="#000000" d="M82.7133,-385.5142C82.6723,-385.5658 82.6313,-385.6174 82.5904,-385.6689"/>
<polygon fill="#000000" stroke="#000000" points="85.9505,-375.8152 82.4676,-385.8234 91.4316,-380.1716 85.9505,-375.8152"/>
</g>
<!-- 9505 -->
<g id="node37" class="node">
<title>9505</title>
<ellipse fill="none" stroke="#000000" cx="107.8606" cy="-391.9986" rx="28.6953" ry="18"/>
<text text-anchor="middle" x="107.8606" y="-388.2986" font-family="Times,serif" font-size="14.00" fill="#000000">9505</text>
</g>
<!-- 2687&#45;&gt;9505 -->
<g id="edge13" class="edge">
<title>2687&#45;&gt;9505</title>
<path fill="none" stroke="#000000" d="M104.9959,-386.7601C105.0218,-386.8075 105.0476,-386.8547 105.0733,-386.9016"/>
<polygon fill="#000000" stroke="#000000" points="97.2777,-379.9479 105.1501,-387.0419 103.4199,-376.587 97.2777,-379.9479"/>
</g>
<!-- 2764 -->
<g id="node12" class="node">
<title>2764</title>
<ellipse fill="none" stroke="#000000" cx="683.0464" cy="-132.6983" rx="28.6953" ry="18"/>
<text text-anchor="middle" x="683.0464" y="-128.9983" font-family="Times,serif" font-size="14.00" fill="#000000">2764</text>
</g>
<!-- 2828 -->
<g id="node13" class="node">
<title>2828</title>
<ellipse fill="none" stroke="#000000" cx="594.9506" cy="-291.8658" rx="28.6953" ry="18"/>
<text text-anchor="middle" x="594.9506" y="-288.1658" font-family="Times,serif" font-size="14.00" fill="#000000">2828</text>
</g>
<!-- 2914 -->
<g id="node14" class="node">
<title>2914</title>
<ellipse fill="none" stroke="#000000" cx="229.0887" cy="-252.0909" rx="28.6953" ry="18"/>
<text text-anchor="middle" x="229.0887" y="-248.3909" font-family="Times,serif" font-size="14.00" fill="#000000">2914</text>
</g>
<!-- 6453 -->
<g id="node26" class="node">
<title>6453</title>
<ellipse fill="none" stroke="#000000" cx="267.3739" cy="-251.2951" rx="28.6953" ry="18"/>
<text text-anchor="middle" x="267.3739" y="-247.5951" font-family="Times,serif" font-size="14.00" fill="#000000">6453</text>
</g>
<!-- 2914&#45;&gt;6453 -->
<g id="edge14" class="edge">
<title>2914&#45;&gt;6453</title>
<path fill="none" stroke="#000000" d="M257.7129,-251.4959C257.7562,-251.495 257.7994,-251.4941 257.8425,-251.4932"/>
<polygon fill="#000000" stroke="#000000" points="248.049,-255.2052 257.9715,-251.4906 247.8983,-248.2067 248.049,-255.2052"/>
</g>
<!-- 3257 -->
<g id="node15" class="node">
<title>3257</title>
<ellipse fill="none" stroke="#000000" cx="305.0031" cy="-247.8138" rx="28.6953" ry="18"/>
<text text-anchor="middle" x="305.0031" y="-244.1138" font-family="Times,serif" font-size="14.00" fill="#000000">3257</text>
</g>
<!-- 3491 -->
<g id="node18" class="node">
<title>3491</title>
<ellipse fill="none" stroke="#000000" cx="340.3794" cy="-242.4469" rx="28.6953" ry="18"/>
<text text-anchor="middle" x="340.3794" y="-238.7469" font-family="Times,serif" font-size="14.00" fill="#000000">3491</text>
</g>
<!-- 3257&#45;&gt;3491 -->
<g id="edge15" class="edge">
<title>3257&#45;&gt;3491</title>
<path fill="none" stroke="#000000" d="M332.877,-243.5851C332.9455,-243.5747 333.0137,-243.5643 333.0815,-243.554"/>
<polygon fill="#000000" stroke="#000000" points="323.9237,-248.4878 333.2842,-243.5233 322.8709,-241.5669 323.9237,-248.4878"/>
</g>
<!-- 3320 -->
<g id="node16" class="node">
<title>3320</title>
<ellipse fill="none" stroke="#000000" cx="534.2301" cy="-90.4787" rx="28.6953" ry="18"/>
<text text-anchor="middle" x="534.2301" y="-86.7787" font-family="Times,serif" font-size="14.00" fill="#000000">3320</text>
</g>
<!-- 3320&#45;&gt;1273 -->
<g id="edge16" class="edge">
<title>3320&#45;&gt;1273</title>
<path fill="none" stroke="#000000" d="M522.177,-73.8993C522.1428,-73.8523 522.1086,-73.8053 522.0745,-73.7584"/>
<polygon fill="#000000" stroke="#000000" points="530.6862,-79.6483 521.9722,-73.6177 525.0235,-83.7661 530.6862,-79.6483"/>
</g>
<!-- 5511 -->
<g id="node24" class="node">
<title>5511</title>
<ellipse fill="none" stroke="#000000" cx="553.8144" cy="-70.1207" rx="28.6953" ry="18"/>
<text text-anchor="middle" x="553.8144" y="-66.4207" font-family="Times,serif" font-size="14.00" fill="#000000">5511</text>
</g>
<!-- 3320&#45;&gt;5511 -->
<g id="edge17" class="edge">
<title>3320&#45;&gt;5511</title>
<path fill="none" stroke="#000000" d="M549.2721,-74.8424C549.3543,-74.757 549.4358,-74.6723 549.5165,-74.5884"/>
<polygon fill="#000000" stroke="#000000" points="545.3454,-83.9732 549.7565,-74.3389 540.3002,-79.1196 545.3454,-83.9732"/>
</g>
<!-- 3356 -->
<g id="node17" class="node">
<title>3356</title>
<ellipse fill="none" stroke="#000000" cx="129.5306" cy="-205.7674" rx="28.6953" ry="18"/>
<text text-anchor="middle" x="129.5306" y="-202.0674" font-family="Times,serif" font-size="14.00" fill="#000000">3356</text>
</g>
<!-- 3549 -->
<g id="node19" class="node">
<title>3549</title>
<ellipse fill="none" stroke="#000000" cx="147.9008" cy="-248.5281" rx="28.6953" ry="18"/>
<text text-anchor="middle" x="147.9008" y="-244.8281" font-family="Times,serif" font-size="14.00" fill="#000000">3549</text>
</g>
<!-- 3356&#45;&gt;3549 -->
<g id="edge18" class="edge">
<title>3356&#45;&gt;3549</title>
<path fill="none" stroke="#000000" d="M137.0024,-223.1598C137.072,-223.3216 137.1416,-223.4838 137.2114,-223.6463"/>
<polygon fill="#000000" stroke="#000000" points="133.2128,-223.2058 140.3759,-231.0123 139.6444,-220.4427 133.2128,-223.2058"/>
</g>
<!-- 3491&#45;&gt;174 -->
<g id="edge19" class="edge">
<title>3491&#45;&gt;174</title>
<path fill="none" stroke="#000000" d="M367.3808,-235.9419C367.4508,-235.9251 367.5205,-235.9083 367.5899,-235.8916"/>
<polygon fill="#000000" stroke="#000000" points="358.8961,-241.59 367.7971,-235.8416 357.2541,-234.7846 358.8961,-241.59"/>
</g>
<!-- 6762 -->
<g id="node28" class="node">
<title>6762</title>
<ellipse fill="none" stroke="#000000" cx="189.1974" cy="-251.037" rx="28.6953" ry="18"/>
<text text-anchor="middle" x="189.1974" y="-247.337" font-family="Times,serif" font-size="14.00" fill="#000000">6762</text>
</g>
<!-- 3549&#45;&gt;6762 -->
<g id="edge20" class="edge">
<title>3549&#45;&gt;6762</title>
<path fill="none" stroke="#000000" d="M176.5827,-250.2706C176.6377,-250.2739 176.6927,-250.2773 176.7476,-250.2806"/>
<polygon fill="#000000" stroke="#000000" points="166.7161,-253.172 176.9119,-250.2906 167.1445,-246.1849 166.7161,-253.172"/>
</g>
<!-- 30070 -->
<g id="node46" class="node">
<title>30070</title>
<ellipse fill="none" stroke="#000000" cx="128.2538" cy="-290.8547" rx="32.4942" ry="18"/>
<text text-anchor="middle" x="128.2538" y="-287.1547" font-family="Times,serif" font-size="14.00" fill="#000000">30070</text>
</g>
<!-- 3549&#45;&gt;30070 -->
<g id="edge21" class="edge">
<title>3549&#45;&gt;30070</title>
<path fill="none" stroke="#000000" d="M139.6826,-266.2331C139.6142,-266.3804 139.5458,-266.5279 139.4772,-266.6755"/>
<polygon fill="#000000" stroke="#000000" points="137.4119,-262.8121 136.3762,-273.3563 143.7612,-265.7594 137.4119,-262.8121"/>
</g>
<!-- 3597 -->
<g id="node20" class="node">
<title>3597</title>
<ellipse fill="none" stroke="#000000" cx="51.9918" cy="-93.0771" rx="28.6953" ry="18"/>
<text text-anchor="middle" x="51.9918" y="-89.3771" font-family="Times,serif" font-size="14.00" fill="#000000">3597</text>
</g>
<!-- 37179 -->
<g id="node48" class="node">
<title>37179</title>
<ellipse fill="none" stroke="#000000" cx="39.0084" cy="-448.9955" rx="32.4942" ry="18"/>
<text text-anchor="middle" x="39.0084" y="-445.2955" font-family="Times,serif" font-size="14.00" fill="#000000">37179</text>
</g>
<!-- 3741&#45;&gt;37179 -->
<g id="edge22" class="edge">
<title>3741&#45;&gt;37179</title>
<path fill="none" stroke="#000000" d="M43.386,-442.3305C43.3474,-442.3893 43.3089,-442.4479 43.2705,-442.5063"/>
<polygon fill="#000000" stroke="#000000" points="45.7222,-432.3994 43.156,-442.6808 51.5736,-436.2438 45.7222,-432.3994"/>
</g>
<!-- 4637 -->
<g id="node22" class="node">
<title>4637</title>
<ellipse fill="none" stroke="#000000" cx="603.2689" cy="-263.7248" rx="28.6953" ry="18"/>
<text text-anchor="middle" x="603.2689" y="-260.0248" font-family="Times,serif" font-size="14.00" fill="#000000">4637</text>
</g>
<!-- 4637&#45;&gt;2828 -->
<g id="edge23" class="edge">
<title>4637&#45;&gt;2828</title>
<path fill="none" stroke="#000000" d="M597.9537,-281.7063C597.941,-281.7494 597.9282,-281.7924 597.9155,-281.8354"/>
<polygon fill="#000000" stroke="#000000" points="597.361,-271.38 597.8775,-281.9641 604.074,-273.368 597.361,-271.38"/>
</g>
<!-- 4755 -->
<g id="node23" class="node">
<title>4755</title>
<ellipse fill="none" stroke="#000000" cx="658.6561" cy="-274.5183" rx="28.6953" ry="18"/>
<text text-anchor="middle" x="658.6561" y="-270.8183" font-family="Times,serif" font-size="14.00" fill="#000000">4755</text>
</g>
<!-- 5692 -->
<g id="node25" class="node">
<title>5692</title>
<ellipse fill="none" stroke="#000000" cx="73.5197" cy="-61.2381" rx="28.6953" ry="18"/>
<text text-anchor="middle" x="73.5197" y="-57.5381" font-family="Times,serif" font-size="14.00" fill="#000000">5692</text>
</g>
<!-- 5692&#45;&gt;3597 -->
<g id="edge24" class="edge">
<title>5692&#45;&gt;3597</title>
<path fill="none" stroke="#000000" d="M62.2514,-77.9036C62.2107,-77.9638 62.17,-78.024 62.1293,-78.0841"/>
<polygon fill="#000000" stroke="#000000" points="64.7109,-68.0185 62.0074,-78.2645 70.5103,-71.9408 64.7109,-68.0185"/>
</g>
<!-- 10834 -->
<g id="node39" class="node">
<title>10834</title>
<ellipse fill="none" stroke="#000000" cx="96.597" cy="-115.7295" rx="32.4942" ry="18"/>
<text text-anchor="middle" x="96.597" y="-112.0295" font-family="Times,serif" font-size="14.00" fill="#000000">10834</text>
</g>
<!-- 5692&#45;&gt;10834 -->
<g id="edge25" class="edge">
<title>5692&#45;&gt;10834</title>
<path fill="none" stroke="#000000" d="M80.9485,-78.7795C82.2801,-81.9238 83.6958,-85.2664 85.1103,-88.6066"/>
<polygon fill="#000000" stroke="#000000" points="81.9009,-90.0036 89.0236,-97.8469 88.3467,-87.2737 81.9009,-90.0036"/>
</g>
<!-- 11008 -->
<g id="node40" class="node">
<title>11008</title>
<ellipse fill="none" stroke="#000000" cx="32.4971" cy="-50.6735" rx="32.4942" ry="18"/>
<text text-anchor="middle" x="32.4971" y="-46.9735" font-family="Times,serif" font-size="14.00" fill="#000000">11008</text>
</g>
<!-- 5692&#45;&gt;11008 -->
<g id="edge26" class="edge">
<title>5692&#45;&gt;11008</title>
<path fill="none" stroke="#000000" d="M46.8448,-54.3685C46.7836,-54.3528 46.7225,-54.337 46.6614,-54.3213"/>
<polygon fill="#000000" stroke="#000000" points="57.037,-53.3826 46.4785,-54.2742 55.2885,-60.1616 57.037,-53.3826"/>
</g>
<!-- 27865 -->
<g id="node44" class="node">
<title>27865</title>
<ellipse fill="none" stroke="#000000" cx="34.8692" cy="-74.823" rx="32.4942" ry="18"/>
<text text-anchor="middle" x="34.8692" y="-71.123" font-family="Times,serif" font-size="14.00" fill="#000000">27865</text>
</g>
<!-- 5692&#45;&gt;27865 -->
<g id="edge27" class="edge">
<title>5692&#45;&gt;27865</title>
<path fill="none" stroke="#000000" d="M48.3873,-70.0717C48.3296,-70.0919 48.272,-70.1122 48.2145,-70.1324"/>
<polygon fill="#000000" stroke="#000000" points="56.3148,-63.5713 48.0422,-70.193 58.6385,-70.1755 56.3148,-63.5713"/>
</g>
<!-- 28065 -->
<g id="node45" class="node">
<title>28065</title>
<ellipse fill="none" stroke="#000000" cx="80.9989" cy="-89.0882" rx="32.4942" ry="18"/>
<text text-anchor="middle" x="80.9989" y="-85.3882" font-family="Times,serif" font-size="14.00" fill="#000000">28065</text>
</g>
<!-- 5692&#45;&gt;28065 -->
<g id="edge28" class="edge">
<title>5692&#45;&gt;28065</title>
<path fill="none" stroke="#000000" d="M78.2987,-79.0337C78.3102,-79.0763 78.3216,-79.1189 78.333,-79.1615"/>
<polygon fill="#000000" stroke="#000000" points="72.3877,-70.5406 78.3673,-79.2889 79.1484,-68.7211 72.3877,-70.5406"/>
</g>
<!-- 52317 -->
<g id="node49" class="node">
<title>52317</title>
<ellipse fill="none" stroke="#000000" cx="101.6319" cy="-30.0395" rx="32.4942" ry="18"/>
<text text-anchor="middle" x="101.6319" y="-26.3395" font-family="Times,serif" font-size="14.00" fill="#000000">52317</text>
</g>
<!-- 5692&#45;&gt;52317 -->
<g id="edge29" class="edge">
<title>5692&#45;&gt;52317</title>
<path fill="none" stroke="#000000" d="M87.9052,-45.2733C87.9592,-45.2133 88.0133,-45.1533 88.0673,-45.0934"/>
<polygon fill="#000000" stroke="#000000" points="84.1344,-54.687 88.2293,-44.9136 78.9334,-50.0002 84.1344,-54.687"/>
</g>
<!-- 52375 -->
<g id="node50" class="node">
<title>52375</title>
<ellipse fill="none" stroke="#000000" cx="79.3236" cy="-18" rx="32.4942" ry="18"/>
<text text-anchor="middle" x="79.3236" y="-14.3" font-family="Times,serif" font-size="14.00" fill="#000000">52375</text>
</g>
<!-- 5692&#45;&gt;52375 -->
<g id="edge30" class="edge">
<title>5692&#45;&gt;52375</title>
<path fill="none" stroke="#000000" d="M75.9474,-43.1518C75.9668,-43.0072 75.9863,-42.8623 76.0058,-42.7173"/>
<polygon fill="#000000" stroke="#000000" points="79.0253,-46.5296 76.8869,-36.1528 72.0875,-45.5983 79.0253,-46.5296"/>
</g>
<!-- 52376 -->
<g id="node51" class="node">
<title>52376</title>
<ellipse fill="none" stroke="#000000" cx="107.5961" cy="-73.9725" rx="32.4942" ry="18"/>
<text text-anchor="middle" x="107.5961" y="-70.2725" font-family="Times,serif" font-size="14.00" fill="#000000">52376</text>
</g>
<!-- 5692&#45;&gt;52376 -->
<g id="edge31" class="edge">
<title>5692&#45;&gt;52376</title>
<path fill="none" stroke="#000000" d="M98.2846,-70.4928C98.3671,-70.5237 98.4494,-70.5544 98.5314,-70.585"/>
<polygon fill="#000000" stroke="#000000" points="88.1826,-70.4521 98.7762,-70.6766 90.6348,-63.8949 88.1826,-70.4521"/>
</g>
<!-- 52380 -->
<g id="node52" class="node">
<title>52380</title>
<ellipse fill="none" stroke="#000000" cx="112.6638" cy="-53.4868" rx="32.4942" ry="18"/>
<text text-anchor="middle" x="112.6638" y="-49.7868" font-family="Times,serif" font-size="14.00" fill="#000000">52380</text>
</g>
<!-- 5692&#45;&gt;52380 -->
<g id="edge32" class="edge">
<title>5692&#45;&gt;52380</title>
<path fill="none" stroke="#000000" d="M101.131,-55.7705C101.1816,-55.7605 101.2321,-55.7505 101.2825,-55.7405"/>
<polygon fill="#000000" stroke="#000000" points="92.3056,-61.0917 101.4336,-55.7106 90.9422,-54.225 92.3056,-61.0917"/>
</g>
<!-- 52413 -->
<g id="node53" class="node">
<title>52413</title>
<ellipse fill="none" stroke="#000000" cx="55.0417" cy="-70.9377" rx="32.4942" ry="18"/>
<text text-anchor="middle" x="55.0417" y="-67.2377" font-family="Times,serif" font-size="14.00" fill="#000000">52413</text>
</g>
<!-- 5692&#45;&gt;52413 -->
<g id="edge33" class="edge">
<title>5692&#45;&gt;52413</title>
<path fill="none" stroke="#000000" d="M55.0947,-70.9099C55.0859,-70.9145 55.0782,-70.9185 55.0716,-70.922"/>
<polygon fill="#000000" stroke="#000000" points="62.2787,-63.1533 55.055,-70.9307 65.5521,-69.3556 62.2787,-63.1533"/>
</g>
<!-- 52431 -->
<g id="node54" class="node">
<title>52431</title>
<ellipse fill="none" stroke="#000000" cx="40.6626" cy="-33.0793" rx="32.4942" ry="18"/>
<text text-anchor="middle" x="40.6626" y="-29.3793" font-family="Times,serif" font-size="14.00" fill="#000000">52431</text>
</g>
<!-- 5692&#45;&gt;52431 -->
<g id="edge34" class="edge">
<title>5692&#45;&gt;52431</title>
<path fill="none" stroke="#000000" d="M56.3213,-46.499C56.2592,-46.4457 56.1971,-46.3925 56.135,-46.3393"/>
<polygon fill="#000000" stroke="#000000" points="65.821,-50.0306 55.9489,-46.1798 61.2648,-55.3464 65.821,-50.0306"/>
</g>
<!-- 262230 -->
<g id="node55" class="node">
<title>262230</title>
<ellipse fill="none" stroke="#000000" cx="61.3134" cy="-30.5959" rx="37.0935" ry="18"/>
<text text-anchor="middle" x="61.3134" y="-26.8959" font-family="Times,serif" font-size="14.00" fill="#000000">262230</text>
</g>
<!-- 5692&#45;&gt;262230 -->
<g id="edge35" class="edge">
<title>5692&#45;&gt;262230</title>
<path fill="none" stroke="#000000" d="M66.5608,-43.7688C66.5394,-43.715 66.518,-43.6613 66.4966,-43.6076"/>
<polygon fill="#000000" stroke="#000000" points="73.3885,-51.4406 66.4325,-43.4467 66.8851,-54.0336 73.3885,-51.4406"/>
</g>
<!-- 264608 -->
<g id="node56" class="node">
<title>264608</title>
<ellipse fill="none" stroke="#000000" cx="87.3157" cy="-43.0764" rx="37.0935" ry="18"/>
<text text-anchor="middle" x="87.3157" y="-39.3764" font-family="Times,serif" font-size="14.00" fill="#000000">264608</text>
</g>
<!-- 5692&#45;&gt;264608 -->
<g id="edge36" class="edge">
<title>5692&#45;&gt;264608</title>
<path fill="none" stroke="#000000" d="M86.0425,-44.7525C86.1411,-44.6228 86.2348,-44.4993 86.3235,-44.3826"/>
<polygon fill="#000000" stroke="#000000" points="83.7125,-53.6059 86.9747,-43.5254 78.1382,-49.3714 83.7125,-53.6059"/>
</g>
<!-- 6453&#45;&gt;3257 -->
<g id="edge37" class="edge">
<title>6453&#45;&gt;3257</title>
<path fill="none" stroke="#000000" d="M295.8941,-248.6565C295.9761,-248.6489 296.0577,-248.6414 296.1391,-248.6339"/>
<polygon fill="#000000" stroke="#000000" points="286.7482,-253.0215 296.382,-248.6114 286.1007,-246.0512 286.7482,-253.0215"/>
</g>
<!-- 6461&#45;&gt;2497 -->
<g id="edge38" class="edge">
<title>6461&#45;&gt;2497</title>
<path fill="none" stroke="#000000" d="M502.9884,-186.7329C503.0394,-186.7125 503.0902,-186.6922 503.141,-186.6719"/>
<polygon fill="#000000" stroke="#000000" points="495.3104,-193.5799 503.2931,-186.611 492.7068,-187.0808 495.3104,-193.5799"/>
</g>
<!-- 6762&#45;&gt;2914 -->
<g id="edge39" class="edge">
<title>6762&#45;&gt;2914</title>
<path fill="none" stroke="#000000" d="M218.1882,-251.8029C218.2365,-251.8042 218.2848,-251.8055 218.3329,-251.8068"/>
<polygon fill="#000000" stroke="#000000" points="208.3858,-255.0385 218.4771,-251.8106 208.5754,-248.0409 208.3858,-255.0385"/>
</g>
<!-- 6904 -->
<g id="node29" class="node">
<title>6904</title>
<ellipse fill="none" stroke="#000000" cx="112.5514" cy="-332.3632" rx="28.6953" ry="18"/>
<text text-anchor="middle" x="112.5514" y="-328.6632" font-family="Times,serif" font-size="14.00" fill="#000000">6904</text>
</g>
<!-- 6904&#45;&gt;2687 -->
<g id="edge40" class="edge">
<title>6904&#45;&gt;2687</title>
<path fill="none" stroke="#000000" d="M104.4296,-350.0197C104.361,-350.1688 104.2923,-350.318 104.2237,-350.4672"/>
<polygon fill="#000000" stroke="#000000" points="104.6056,-341.2623 103.606,-351.81 110.9651,-344.1878 104.6056,-341.2623"/>
</g>
<!-- 6939 -->
<g id="node30" class="node">
<title>6939</title>
<ellipse fill="none" stroke="#000000" cx="672.9657" cy="-244.9684" rx="28.6953" ry="18"/>
<text text-anchor="middle" x="672.9657" y="-241.2684" font-family="Times,serif" font-size="14.00" fill="#000000">6939</text>
</g>
<!-- 7016 -->
<g id="node31" class="node">
<title>7016</title>
<ellipse fill="none" stroke="#000000" cx="99.5408" cy="-287.4719" rx="28.6953" ry="18"/>
<text text-anchor="middle" x="99.5408" y="-283.7719" font-family="Times,serif" font-size="14.00" fill="#000000">7016</text>
</g>
<!-- 7922 -->
<g id="node35" class="node">
<title>7922</title>
<ellipse fill="none" stroke="#000000" cx="73.3876" cy="-286.7852" rx="28.6953" ry="18"/>
<text text-anchor="middle" x="73.3876" y="-283.0852" font-family="Times,serif" font-size="14.00" fill="#000000">7922</text>
</g>
<!-- 7016&#45;&gt;7922 -->
<g id="edge41" class="edge">
<title>7016&#45;&gt;7922</title>
<path fill="none" stroke="#000000" d="M73.4626,-286.7872C73.4502,-286.7869 73.4393,-286.7866 73.43,-286.7863"/>
<polygon fill="#000000" stroke="#000000" points="83.5094,-283.5907 73.4065,-286.7857 83.2968,-290.5883 83.5094,-283.5907"/>
</g>
<!-- 7018&#45;&gt;3320 -->
<g id="edge42" class="edge">
<title>7018&#45;&gt;3320</title>
<path fill="none" stroke="#000000" d="M538.8307,-110.3927C538.7954,-110.2396 538.76,-110.0864 538.7246,-109.9332"/>
<polygon fill="#000000" stroke="#000000" points="544.0677,-117.5096 538.406,-108.5543 537.2473,-119.0857 544.0677,-117.5096"/>
</g>
<!-- 7473 -->
<g id="node33" class="node">
<title>7473</title>
<ellipse fill="none" stroke="#000000" cx="585.8704" cy="-233.3494" rx="28.6953" ry="18"/>
<text text-anchor="middle" x="585.8704" y="-229.6494" font-family="Times,serif" font-size="14.00" fill="#000000">7473</text>
</g>
<!-- 7474 -->
<g id="node34" class="node">
<title>7474</title>
<ellipse fill="none" stroke="#000000" cx="655.7338" cy="-107.0423" rx="28.6953" ry="18"/>
<text text-anchor="middle" x="655.7338" y="-103.3423" font-family="Times,serif" font-size="14.00" fill="#000000">7474</text>
</g>
<!-- 9498&#45;&gt;4637 -->
<g id="edge43" class="edge">
<title>9498&#45;&gt;4637</title>
<path fill="none" stroke="#000000" d="M607.0153,-246.4776C607.0005,-246.5455 606.9858,-246.6134 606.971,-246.6812"/>
<polygon fill="#000000" stroke="#000000" points="605.633,-236.3683 606.9268,-246.8848 612.4735,-237.8568 605.633,-236.3683"/>
</g>
<!-- 9498&#45;&gt;7473 -->
<g id="edge44" class="edge">
<title>9498&#45;&gt;7473</title>
<path fill="none" stroke="#000000" d="M585.9424,-233.3352C585.9305,-233.3375 585.9201,-233.3396 585.9111,-233.3413"/>
<polygon fill="#000000" stroke="#000000" points="595.0105,-227.9409 585.8886,-233.3458 596.3901,-234.8091 595.0105,-227.9409"/>
</g>
<!-- 10026 -->
<g id="node38" class="node">
<title>10026</title>
<ellipse fill="none" stroke="#000000" cx="644.4278" cy="-247.3603" rx="32.4942" ry="18"/>
<text text-anchor="middle" x="644.4278" y="-243.6603" font-family="Times,serif" font-size="14.00" fill="#000000">10026</text>
</g>
<!-- 9498&#45;&gt;10026 -->
<g id="edge45" class="edge">
<title>9498&#45;&gt;10026</title>
<path fill="none" stroke="#000000" d="M632.3385,-240.5161C632.3897,-240.5452 632.4409,-240.5741 632.4921,-240.6031"/>
<polygon fill="#000000" stroke="#000000" points="622.217,-238.8064 632.6453,-240.6898 625.6677,-232.7143 622.217,-238.8064"/>
</g>
<!-- 10026&#45;&gt;4755 -->
<g id="edge46" class="edge">
<title>10026&#45;&gt;4755</title>
<path fill="none" stroke="#000000" d="M653.5194,-264.7137C653.5629,-264.7968 653.6064,-264.8798 653.6498,-264.9625"/>
<polygon fill="#000000" stroke="#000000" points="646.0364,-257.9766 653.7795,-265.2101 652.2372,-254.7268 646.0364,-257.9766"/>
</g>
<!-- 10026&#45;&gt;6939 -->
<g id="edge47" class="edge">
<title>10026&#45;&gt;6939</title>
<path fill="none" stroke="#000000" d="M672.8838,-244.9753C672.8973,-244.9741 672.9092,-244.9731 672.9194,-244.9723"/>
<polygon fill="#000000" stroke="#000000" points="663.2846,-249.3287 672.945,-244.9701 662.6751,-242.3531 663.2846,-249.3287"/>
</g>
<!-- 12956 -->
<g id="node41" class="node">
<title>12956</title>
<ellipse fill="none" stroke="#000000" cx="111.9854" cy="-162.9559" rx="32.4942" ry="18"/>
<text text-anchor="middle" x="111.9854" y="-159.2559" font-family="Times,serif" font-size="14.00" fill="#000000">12956</text>
</g>
<!-- 10834&#45;&gt;12956 -->
<g id="edge48" class="edge">
<title>10834&#45;&gt;12956</title>
<path fill="none" stroke="#000000" d="M102.4147,-133.5838C102.6062,-134.1715 102.7993,-134.7643 102.9936,-135.3605"/>
<polygon fill="#000000" stroke="#000000" points="99.7335,-136.6528 106.1594,-145.0764 106.3891,-134.484 99.7335,-136.6528"/>
</g>
<!-- 22927 -->
<g id="node43" class="node">
<title>22927</title>
<ellipse fill="none" stroke="#000000" cx="121.4377" cy="-125.4983" rx="32.4942" ry="18"/>
<text text-anchor="middle" x="121.4377" y="-121.7983" font-family="Times,serif" font-size="14.00" fill="#000000">22927</text>
</g>
<!-- 10834&#45;&gt;22927 -->
<g id="edge49" class="edge">
<title>10834&#45;&gt;22927</title>
<path fill="none" stroke="#000000" d="M121.3664,-125.4702C121.3781,-125.4749 121.3885,-125.4789 121.3974,-125.4824"/>
<polygon fill="#000000" stroke="#000000" points="110.8204,-125.0633 121.4196,-125.4912 113.4007,-118.5469 110.8204,-125.0633"/>
</g>
<!-- 12956&#45;&gt;3356 -->
<g id="edge50" class="edge">
<title>12956&#45;&gt;3356</title>
<path fill="none" stroke="#000000" d="M119.3244,-180.8638C119.3855,-181.0127 119.4466,-181.1619 119.5078,-181.3113"/>
<polygon fill="#000000" stroke="#000000" points="115.2463,-180.1427 122.2771,-188.0685 121.7235,-177.4881 115.2463,-180.1427"/>
</g>
<!-- 18540 -->
<g id="node42" class="node">
<title>18540</title>
<ellipse fill="none" stroke="#000000" cx="151.0816" cy="-305.0523" rx="32.4942" ry="18"/>
<text text-anchor="middle" x="151.0816" y="-301.3523" font-family="Times,serif" font-size="14.00" fill="#000000">18540</text>
</g>
<!-- 30070&#45;&gt;6904 -->
<g id="edge51" class="edge">
<title>30070&#45;&gt;6904</title>
<path fill="none" stroke="#000000" d="M121.5034,-308.6989C121.4557,-308.8253 121.4078,-308.9518 121.3599,-309.0784"/>
<polygon fill="#000000" stroke="#000000" points="119.4612,-304.2059 119.1964,-314.7975 126.0083,-306.6827 119.4612,-304.2059"/>
</g>
<!-- 30070&#45;&gt;7016 -->
<g id="edge52" class="edge">
<title>30070&#45;&gt;7016</title>
<path fill="none" stroke="#000000" d="M99.6232,-287.4816C99.6096,-287.48 99.5977,-287.4786 99.5874,-287.4773"/>
<polygon fill="#000000" stroke="#000000" points="109.9146,-285.2022 99.5617,-287.4743 109.0718,-292.1543 109.9146,-285.2022"/>
</g>
<!-- 30070&#45;&gt;18540 -->
<g id="edge53" class="edge">
<title>30070&#45;&gt;18540</title>
<path fill="none" stroke="#000000" d="M150.1007,-304.4423C150.2568,-304.5393 150.3961,-304.626 150.5173,-304.7014"/>
<polygon fill="#000000" stroke="#000000" points="140.4843,-302.5825 150.8253,-304.8929 144.1821,-296.638 140.4843,-302.5825"/>
</g>
<!-- 32787&#45;&gt;2764 -->
<g id="edge54" class="edge">
<title>32787&#45;&gt;2764</title>
<path fill="none" stroke="#000000" d="M682.9637,-132.7072C682.9773,-132.7057 682.9893,-132.7044 682.9996,-132.7033"/>
<polygon fill="#000000" stroke="#000000" points="673.4677,-137.2816 683.0255,-132.7005 672.697,-130.3214 673.4677,-137.2816"/>
</g>
<!-- 32787&#45;&gt;7474 -->
<g id="edge55" class="edge">
<title>32787&#45;&gt;7474</title>
<path fill="none" stroke="#000000" d="M655.1668,-117.7476C655.1692,-117.7025 655.1715,-117.6574 655.1739,-117.6124"/>
<polygon fill="#000000" stroke="#000000" points="658.1403,-127.651 655.1811,-117.4775 651.15,-127.2759 658.1403,-127.651"/>
</g>
</g>
</svg>
