<?xml version="1.0" encoding="UTF-8" standalone="no"?>
<!DOCTYPE svg PUBLIC "-//W3C//DTD SVG 1.1//EN"
 "http://www.w3.org/Graphics/SVG/1.1/DTD/svg11.dtd">
<!-- Generated by graphviz version 2.40.1 (20161225.0304)
 -->
<!-- Title: %3 Pages: 1 -->
<svg width="972pt" height="1341pt"
 viewBox="0.00 0.00 972.00 1341.00" xmlns="http://www.w3.org/2000/svg" xmlns:xlink="http://www.w3.org/1999/xlink">
<g id="graph0" class="graph" transform="scale(1 1) rotate(0) translate(4 1337)">
<title>%3</title>
<polygon fill="#ffffff" stroke="transparent" points="-4,4 -4,-1337 968,-1337 968,4 -4,4"/>
<!-- 174 -->
<g id="node1" class="node">
<title>174</title>
<ellipse fill="none" stroke="#000000" cx="39.8987" cy="-218.4557" rx="27" ry="18"/>
<text text-anchor="middle" x="39.8987" y="-214.7557" font-family="Times,serif" font-size="14.00" fill="#000000">174</text>
</g>
<!-- 209 -->
<g id="node2" class="node">
<title>209</title>
<ellipse fill="none" stroke="#000000" cx="87.922" cy="-94.4465" rx="27" ry="18"/>
<text text-anchor="middle" x="87.922" y="-90.7465" font-family="Times,serif" font-size="14.00" fill="#000000">209</text>
</g>
<!-- 174&#45;&gt;209 -->
<g id="edge1" class="edge">
<title>174&#45;&gt;209</title>
<path fill="none" stroke="#000000" d="M46.6774,-200.9513C54.6407,-180.3879 67.9487,-146.0232 77.2892,-121.9033"/>
<polygon fill="#000000" stroke="#000000" points="80.6748,-122.8526 81.0223,-112.2635 74.1472,-120.3247 80.6748,-122.8526"/>
</g>
<!-- 1299 -->
<g id="node7" class="node">
<title>1299</title>
<ellipse fill="none" stroke="#000000" cx="172.9631" cy="-18.3309" rx="28.6953" ry="18"/>
<text text-anchor="middle" x="172.9631" y="-14.6309" font-family="Times,serif" font-size="14.00" fill="#000000">1299</text>
</g>
<!-- 209&#45;&gt;1299 -->
<g id="edge2" class="edge">
<title>209&#45;&gt;1299</title>
<path fill="none" stroke="#000000" d="M104.3188,-79.7707C116.9432,-68.4712 134.5839,-52.682 148.8207,-39.9393"/>
<polygon fill="#000000" stroke="#000000" points="151.2094,-42.4986 156.3265,-33.2214 146.5409,-37.2827 151.2094,-42.4986"/>
</g>
<!-- 701 -->
<g id="node3" class="node">
<title>701</title>
<ellipse fill="none" stroke="#000000" cx="403.2495" cy="-247.4714" rx="27" ry="18"/>
<text text-anchor="middle" x="403.2495" y="-243.7714" font-family="Times,serif" font-size="14.00" fill="#000000">701</text>
</g>
<!-- 703 -->
<g id="node4" class="node">
<title>703</title>
<ellipse fill="none" stroke="#000000" cx="318.7988" cy="-324.3674" rx="27" ry="18"/>
<text text-anchor="middle" x="318.7988" y="-320.6674" font-family="Times,serif" font-size="14.00" fill="#000000">703</text>
</g>
<!-- 701&#45;&gt;703 -->
<g id="edge3" class="edge">
<title>701&#45;&gt;703</title>
<path fill="none" stroke="#000000" d="M386.9665,-262.2977C374.3489,-273.7867 356.6853,-289.8701 342.5003,-302.7861"/>
<polygon fill="#000000" stroke="#000000" points="340.0694,-300.266 335.0318,-309.5866 344.7823,-305.4419 340.0694,-300.266"/>
</g>
<!-- 7018 -->
<g id="node32" class="node">
<title>7018</title>
<ellipse fill="none" stroke="#000000" cx="545.2116" cy="-200.6631" rx="28.6953" ry="18"/>
<text text-anchor="middle" x="545.2116" y="-196.9631" font-family="Times,serif" font-size="14.00" fill="#000000">7018</text>
</g>
<!-- 701&#45;&gt;7018 -->
<g id="edge4" class="edge">
<title>701&#45;&gt;7018</title>
<path fill="none" stroke="#000000" d="M427.6536,-239.4247C450.3289,-231.9482 484.3581,-220.7279 509.9786,-212.2802"/>
<polygon fill="#000000" stroke="#000000" points="511.2897,-215.5334 519.6907,-209.0779 509.0976,-208.8854 511.2897,-215.5334"/>
</g>
<!-- 2516 -->
<g id="node9" class="node">
<title>2516</title>
<ellipse fill="none" stroke="#000000" cx="226.2074" cy="-434.3103" rx="28.6953" ry="18"/>
<text text-anchor="middle" x="226.2074" y="-430.6103" font-family="Times,serif" font-size="14.00" fill="#000000">2516</text>
</g>
<!-- 703&#45;&gt;2516 -->
<g id="edge5" class="edge">
<title>703&#45;&gt;2516</title>
<path fill="none" stroke="#000000" d="M305.5328,-340.1195C290.0138,-358.5468 264.1626,-389.2425 246.207,-410.5628"/>
<polygon fill="#000000" stroke="#000000" points="243.5146,-408.3264 239.75,-418.2299 248.8688,-412.8356 243.5146,-408.3264"/>
</g>
<!-- 9498 -->
<g id="node36" class="node">
<title>9498</title>
<ellipse fill="none" stroke="#000000" cx="244.019" cy="-250.3513" rx="28.6953" ry="18"/>
<text text-anchor="middle" x="244.019" y="-246.6513" font-family="Times,serif" font-size="14.00" fill="#000000">9498</text>
</g>
<!-- 703&#45;&gt;9498 -->
<g id="edge6" class="edge">
<title>703&#45;&gt;9498</title>
<path fill="none" stroke="#000000" d="M303.666,-309.3891C292.9927,-298.8248 278.5148,-284.4948 266.4958,-272.5985"/>
<polygon fill="#000000" stroke="#000000" points="268.9554,-270.1085 259.386,-265.5613 264.0311,-275.0836 268.9554,-270.1085"/>
</g>
<!-- 1239 -->
<g id="node5" class="node">
<title>1239</title>
<ellipse fill="none" stroke="#000000" cx="876.3247" cy="-136.351" rx="28.6953" ry="18"/>
<text text-anchor="middle" x="876.3247" y="-132.651" font-family="Times,serif" font-size="14.00" fill="#000000">1239</text>
</g>
<!-- 1273 -->
<g id="node6" class="node">
<title>1273</title>
<ellipse fill="none" stroke="#000000" cx="777.7642" cy="-149.6507" rx="28.6953" ry="18"/>
<text text-anchor="middle" x="777.7642" y="-145.9507" font-family="Times,serif" font-size="14.00" fill="#000000">1273</text>
</g>
<!-- 1273&#45;&gt;1239 -->
<g id="edge7" class="edge">
<title>1273&#45;&gt;1239</title>
<path fill="none" stroke="#000000" d="M805.7441,-145.8751C815.8361,-144.5133 827.404,-142.9523 838.2148,-141.4935"/>
<polygon fill="#000000" stroke="#000000" points="838.8328,-144.9419 848.2749,-140.136 837.8967,-138.0048 838.8328,-144.9419"/>
</g>
<!-- 6461 -->
<g id="node27" class="node">
<title>6461</title>
<ellipse fill="none" stroke="#000000" cx="297.352" cy="-44.886" rx="28.6953" ry="18"/>
<text text-anchor="middle" x="297.352" y="-41.186" font-family="Times,serif" font-size="14.00" fill="#000000">6461</text>
</g>
<!-- 1299&#45;&gt;6461 -->
<g id="edge8" class="edge">
<title>1299&#45;&gt;6461</title>
<path fill="none" stroke="#000000" d="M200.2607,-24.1585C217.8407,-27.9115 240.9206,-32.8387 260.1667,-36.9475"/>
<polygon fill="#000000" stroke="#000000" points="259.6076,-40.4069 270.118,-39.072 261.0691,-33.5612 259.6076,-40.4069"/>
</g>
<!-- 2497 -->
<g id="node8" class="node">
<title>2497</title>
<ellipse fill="none" stroke="#000000" cx="365.1395" cy="-123.6201" rx="28.6953" ry="18"/>
<text text-anchor="middle" x="365.1395" y="-119.9201" font-family="Times,serif" font-size="14.00" fill="#000000">2497</text>
</g>
<!-- 2497&#45;&gt;701 -->
<g id="edge9" class="edge">
<title>2497&#45;&gt;701</title>
<path fill="none" stroke="#000000" d="M370.5997,-141.3649C376.9389,-161.966 387.4664,-196.179 394.8492,-220.1719"/>
<polygon fill="#000000" stroke="#000000" points="391.5131,-221.231 397.7994,-229.7594 398.2035,-219.1723 391.5131,-221.231"/>
</g>
<!-- 32787 -->
<g id="node47" class="node">
<title>32787</title>
<ellipse fill="none" stroke="#000000" cx="136.0512" cy="-513.8635" rx="32.4942" ry="18"/>
<text text-anchor="middle" x="136.0512" y="-510.1635" font-family="Times,serif" font-size="14.00" fill="#000000">32787</text>
</g>
<!-- 2516&#45;&gt;32787 -->
<g id="edge10" class="edge">
<title>2516&#45;&gt;32787</title>
<path fill="none" stroke="#000000" d="M209.2497,-449.2737C195.6976,-461.232 176.4996,-478.1722 161.1646,-491.7037"/>
<polygon fill="#000000" stroke="#000000" points="158.7303,-489.1838 153.5478,-498.4246 163.3618,-494.4326 158.7303,-489.1838"/>
</g>
<!-- 2686 -->
<g id="node10" class="node">
<title>2686</title>
<ellipse fill="none" stroke="#000000" cx="885.9605" cy="-594.186" rx="28.6953" ry="18"/>
<text text-anchor="middle" x="885.9605" y="-590.486" font-family="Times,serif" font-size="14.00" fill="#000000">2686</text>
</g>
<!-- 3741 -->
<g id="node21" class="node">
<title>3741</title>
<ellipse fill="none" stroke="#000000" cx="896.0247" cy="-493.7502" rx="28.6953" ry="18"/>
<text text-anchor="middle" x="896.0247" y="-490.0502" font-family="Times,serif" font-size="14.00" fill="#000000">3741</text>
</g>
<!-- 2686&#45;&gt;3741 -->
<g id="edge11" class="edge">
<title>2686&#45;&gt;3741</title>
<path fill="none" stroke="#000000" d="M887.8064,-575.7646C889.3196,-560.6636 891.4858,-539.0461 893.2144,-521.796"/>
<polygon fill="#000000" stroke="#000000" points="896.7098,-522.0162 894.2244,-511.717 889.7447,-521.3182 896.7098,-522.0162"/>
</g>
<!-- 2687 -->
<g id="node11" class="node">
<title>2687</title>
<ellipse fill="none" stroke="#000000" cx="819.5637" cy="-696.032" rx="28.6953" ry="18"/>
<text text-anchor="middle" x="819.5637" y="-692.332" font-family="Times,serif" font-size="14.00" fill="#000000">2687</text>
</g>
<!-- 2687&#45;&gt;2686 -->
<g id="edge12" class="edge">
<title>2687&#45;&gt;2686</title>
<path fill="none" stroke="#000000" d="M830.5278,-679.2142C841.1,-662.9974 857.2399,-638.2404 869.3823,-619.6152"/>
<polygon fill="#000000" stroke="#000000" points="872.4508,-621.3173 874.9801,-611.0288 866.5868,-617.4944 872.4508,-621.3173"/>
</g>
<!-- 9505 -->
<g id="node37" class="node">
<title>9505</title>
<ellipse fill="none" stroke="#000000" cx="935.7304" cy="-696.1679" rx="28.6953" ry="18"/>
<text text-anchor="middle" x="935.7304" y="-692.4679" font-family="Times,serif" font-size="14.00" fill="#000000">9505</text>
</g>
<!-- 2687&#45;&gt;9505 -->
<g id="edge13" class="edge">
<title>2687&#45;&gt;9505</title>
<path fill="none" stroke="#000000" d="M848.2791,-696.0656C862.9397,-696.0827 880.9879,-696.1039 896.8734,-696.1225"/>
<polygon fill="#000000" stroke="#000000" points="896.9387,-699.6224 906.9428,-696.1343 896.9469,-692.6225 896.9387,-699.6224"/>
</g>
<!-- 2764 -->
<g id="node12" class="node">
<title>2764</title>
<ellipse fill="none" stroke="#000000" cx="28.7169" cy="-567.1154" rx="28.6953" ry="18"/>
<text text-anchor="middle" x="28.7169" y="-563.4154" font-family="Times,serif" font-size="14.00" fill="#000000">2764</text>
</g>
<!-- 2828 -->
<g id="node13" class="node">
<title>2828</title>
<ellipse fill="none" stroke="#000000" cx="218.1552" cy="-81.5532" rx="28.6953" ry="18"/>
<text text-anchor="middle" x="218.1552" y="-77.8532" font-family="Times,serif" font-size="14.00" fill="#000000">2828</text>
</g>
<!-- 2914 -->
<g id="node14" class="node">
<title>2914</title>
<ellipse fill="none" stroke="#000000" cx="290.768" cy="-621.2782" rx="28.6953" ry="18"/>
<text text-anchor="middle" x="290.768" y="-617.5782" font-family="Times,serif" font-size="14.00" fill="#000000">2914</text>
</g>
<!-- 6453 -->
<g id="node26" class="node">
<title>6453</title>
<ellipse fill="none" stroke="#000000" cx="206.0503" cy="-513.1077" rx="28.6953" ry="18"/>
<text text-anchor="middle" x="206.0503" y="-509.4077" font-family="Times,serif" font-size="14.00" fill="#000000">6453</text>
</g>
<!-- 2914&#45;&gt;6453 -->
<g id="edge14" class="edge">
<title>2914&#45;&gt;6453</title>
<path fill="none" stroke="#000000" d="M277.9012,-604.8494C263.8249,-586.8763 241.1226,-557.8893 225.0069,-537.3121"/>
<polygon fill="#000000" stroke="#000000" points="227.6821,-535.0514 218.7606,-529.3367 222.1711,-539.3676 227.6821,-535.0514"/>
</g>
<!-- 3257 -->
<g id="node15" class="node">
<title>3257</title>
<ellipse fill="none" stroke="#000000" cx="125.1668" cy="-441.0436" rx="28.6953" ry="18"/>
<text text-anchor="middle" x="125.1668" y="-437.3436" font-family="Times,serif" font-size="14.00" fill="#000000">3257</text>
</g>
<!-- 3491 -->
<g id="node18" class="node">
<title>3491</title>
<ellipse fill="none" stroke="#000000" cx="48.8608" cy="-326.2645" rx="28.6953" ry="18"/>
<text text-anchor="middle" x="48.8608" y="-322.5645" font-family="Times,serif" font-size="14.00" fill="#000000">3491</text>
</g>
<!-- 3257&#45;&gt;3491 -->
<g id="edge15" class="edge">
<title>3257&#45;&gt;3491</title>
<path fill="none" stroke="#000000" d="M113.9076,-424.1076C101.1548,-404.9249 80.2456,-373.4735 65.5845,-351.4203"/>
<polygon fill="#000000" stroke="#000000" points="68.3691,-349.2868 59.9181,-342.8969 62.5397,-353.1622 68.3691,-349.2868"/>
</g>
<!-- 3320 -->
<g id="node16" class="node">
<title>3320</title>
<ellipse fill="none" stroke="#000000" cx="649.7324" cy="-167.6268" rx="28.6953" ry="18"/>
<text text-anchor="middle" x="649.7324" y="-163.9268" font-family="Times,serif" font-size="14.00" fill="#000000">3320</text>
</g>
<!-- 3320&#45;&gt;1273 -->
<g id="edge16" class="edge">
<title>3320&#45;&gt;1273</title>
<path fill="none" stroke="#000000" d="M677.8295,-163.6819C696.0077,-161.1296 719.8992,-157.7752 739.7635,-154.9861"/>
<polygon fill="#000000" stroke="#000000" points="740.3164,-158.4429 749.7326,-153.5864 739.3431,-151.5109 740.3164,-158.4429"/>
</g>
<!-- 5511 -->
<g id="node24" class="node">
<title>5511</title>
<ellipse fill="none" stroke="#000000" cx="730.3897" cy="-88.5892" rx="28.6953" ry="18"/>
<text text-anchor="middle" x="730.3897" y="-84.8892" font-family="Times,serif" font-size="14.00" fill="#000000">5511</text>
</g>
<!-- 3320&#45;&gt;5511 -->
<g id="edge17" class="edge">
<title>3320&#45;&gt;5511</title>
<path fill="none" stroke="#000000" d="M665.2839,-152.3876C677.2233,-140.688 693.893,-124.353 707.3756,-111.1411"/>
<polygon fill="#000000" stroke="#000000" points="710.1931,-113.2806 714.8859,-103.7817 705.2938,-108.2808 710.1931,-113.2806"/>
</g>
<!-- 3356 -->
<g id="node17" class="node">
<title>3356</title>
<ellipse fill="none" stroke="#000000" cx="388.0586" cy="-892.3977" rx="28.6953" ry="18"/>
<text text-anchor="middle" x="388.0586" y="-888.6977" font-family="Times,serif" font-size="14.00" fill="#000000">3356</text>
</g>
<!-- 3549 -->
<g id="node19" class="node">
<title>3549</title>
<ellipse fill="none" stroke="#000000" cx="463.7096" cy="-786.2222" rx="28.6953" ry="18"/>
<text text-anchor="middle" x="463.7096" y="-782.5222" font-family="Times,serif" font-size="14.00" fill="#000000">3549</text>
</g>
<!-- 3356&#45;&gt;3549 -->
<g id="edge18" class="edge">
<title>3356&#45;&gt;3549</title>
<path fill="none" stroke="#000000" d="M399.8791,-875.8078C412.2593,-858.4323 431.8431,-830.9466 446.0559,-810.9989"/>
<polygon fill="#000000" stroke="#000000" points="449.0197,-812.8708 451.9721,-802.6956 443.3188,-808.8088 449.0197,-812.8708"/>
</g>
<!-- 3491&#45;&gt;174 -->
<g id="edge19" class="edge">
<title>3491&#45;&gt;174</title>
<path fill="none" stroke="#000000" d="M47.3405,-307.9762C45.9415,-291.1477 43.8458,-265.9366 42.2344,-246.5529"/>
<polygon fill="#000000" stroke="#000000" points="45.713,-246.1496 41.3965,-236.4739 38.7371,-246.7295 45.713,-246.1496"/>
</g>
<!-- 6762 -->
<g id="node28" class="node">
<title>6762</title>
<ellipse fill="none" stroke="#000000" cx="361.626" cy="-695.9072" rx="28.6953" ry="18"/>
<text text-anchor="middle" x="361.626" y="-692.2072" font-family="Times,serif" font-size="14.00" fill="#000000">6762</text>
</g>
<!-- 3549&#45;&gt;6762 -->
<g id="edge20" class="edge">
<title>3549&#45;&gt;6762</title>
<path fill="none" stroke="#000000" d="M446.8525,-771.3085C430.3024,-756.6663 404.878,-734.1729 386.1024,-717.5619"/>
<polygon fill="#000000" stroke="#000000" points="388.3168,-714.8479 378.5081,-710.843 383.6785,-720.0906 388.3168,-714.8479"/>
</g>
<!-- 30070 -->
<g id="node46" class="node">
<title>30070</title>
<ellipse fill="none" stroke="#000000" cx="586.3355" cy="-785.5013" rx="32.4942" ry="18"/>
<text text-anchor="middle" x="586.3355" y="-781.8013" font-family="Times,serif" font-size="14.00" fill="#000000">30070</text>
</g>
<!-- 3549&#45;&gt;30070 -->
<g id="edge21" class="edge">
<title>3549&#45;&gt;30070</title>
<path fill="none" stroke="#000000" d="M492.4599,-786.0532C507.5846,-785.9643 526.4336,-785.8535 543.2647,-785.7545"/>
<polygon fill="#000000" stroke="#000000" points="543.4532,-789.2536 553.4324,-785.6948 543.412,-782.2537 543.4532,-789.2536"/>
</g>
<!-- 3597 -->
<g id="node20" class="node">
<title>3597</title>
<ellipse fill="none" stroke="#000000" cx="385.3025" cy="-1079.5197" rx="28.6953" ry="18"/>
<text text-anchor="middle" x="385.3025" y="-1075.8197" font-family="Times,serif" font-size="14.00" fill="#000000">3597</text>
</g>
<!-- 37179 -->
<g id="node48" class="node">
<title>37179</title>
<ellipse fill="none" stroke="#000000" cx="846.2478" cy="-403.3592" rx="32.4942" ry="18"/>
<text text-anchor="middle" x="846.2478" y="-399.6592" font-family="Times,serif" font-size="14.00" fill="#000000">37179</text>
</g>
<!-- 3741&#45;&gt;37179 -->
<g id="edge22" class="edge">
<title>3741&#45;&gt;37179</title>
<path fill="none" stroke="#000000" d="M886.4273,-476.3219C879.1279,-463.0668 868.9635,-444.6091 860.6845,-429.5752"/>
<polygon fill="#000000" stroke="#000000" points="863.7055,-427.8053 855.8158,-420.734 857.5738,-431.182 863.7055,-427.8053"/>
</g>
<!-- 4637 -->
<g id="node22" class="node">
<title>4637</title>
<ellipse fill="none" stroke="#000000" cx="237.3155" cy="-150.4827" rx="28.6953" ry="18"/>
<text text-anchor="middle" x="237.3155" y="-146.7827" font-family="Times,serif" font-size="14.00" fill="#000000">4637</text>
</g>
<!-- 4637&#45;&gt;2828 -->
<g id="edge23" class="edge">
<title>4637&#45;&gt;2828</title>
<path fill="none" stroke="#000000" d="M232.3813,-132.7317C230.3854,-125.5516 228.0346,-117.0945 225.8251,-109.1458"/>
<polygon fill="#000000" stroke="#000000" points="229.1897,-108.181 223.1393,-99.4837 222.4454,-110.0558 229.1897,-108.181"/>
</g>
<!-- 4755 -->
<g id="node23" class="node">
<title>4755</title>
<ellipse fill="none" stroke="#000000" cx="314.6642" cy="-394.3127" rx="28.6953" ry="18"/>
<text text-anchor="middle" x="314.6642" y="-390.6127" font-family="Times,serif" font-size="14.00" fill="#000000">4755</text>
</g>
<!-- 5692 -->
<g id="node25" class="node">
<title>5692</title>
<ellipse fill="none" stroke="#000000" cx="412.3766" cy="-1197.9485" rx="28.6953" ry="18"/>
<text text-anchor="middle" x="412.3766" y="-1194.2485" font-family="Times,serif" font-size="14.00" fill="#000000">5692</text>
</g>
<!-- 5692&#45;&gt;3597 -->
<g id="edge24" class="edge">
<title>5692&#45;&gt;3597</title>
<path fill="none" stroke="#000000" d="M408.2646,-1179.9617C403.8716,-1160.7457 396.8497,-1130.0302 391.7265,-1107.6197"/>
<polygon fill="#000000" stroke="#000000" points="395.0938,-1106.6442 389.4532,-1097.6757 388.2699,-1108.2043 395.0938,-1106.6442"/>
</g>
<!-- 10834 -->
<g id="node39" class="node">
<title>10834</title>
<ellipse fill="none" stroke="#000000" cx="295.9537" cy="-1124.918" rx="32.4942" ry="18"/>
<text text-anchor="middle" x="295.9537" y="-1121.218" font-family="Times,serif" font-size="14.00" fill="#000000">10834</text>
</g>
<!-- 5692&#45;&gt;10834 -->
<g id="edge25" class="edge">
<title>5692&#45;&gt;10834</title>
<path fill="none" stroke="#000000" d="M392.0973,-1185.2276C373.9372,-1173.836 347.0533,-1156.9721 326.3275,-1143.9711"/>
<polygon fill="#000000" stroke="#000000" points="327.9103,-1140.8324 317.5791,-1138.4833 324.1905,-1146.7622 327.9103,-1140.8324"/>
</g>
<!-- 11008 -->
<g id="node40" class="node">
<title>11008</title>
<ellipse fill="none" stroke="#000000" cx="320.0186" cy="-1250.1669" rx="32.4942" ry="18"/>
<text text-anchor="middle" x="320.0186" y="-1246.4669" font-family="Times,serif" font-size="14.00" fill="#000000">11008</text>
</g>
<!-- 5692&#45;&gt;11008 -->
<g id="edge26" class="edge">
<title>5692&#45;&gt;11008</title>
<path fill="none" stroke="#000000" d="M390.9556,-1210.0597C379.378,-1216.6056 364.8525,-1224.8182 351.9659,-1232.1042"/>
<polygon fill="#000000" stroke="#000000" points="349.92,-1229.2402 342.9376,-1237.2087 353.3652,-1235.3336 349.92,-1229.2402"/>
</g>
<!-- 27865 -->
<g id="node44" class="node">
<title>27865</title>
<ellipse fill="none" stroke="#000000" cx="523.1705" cy="-1224.1641" rx="32.4942" ry="18"/>
<text text-anchor="middle" x="523.1705" y="-1220.4641" font-family="Times,serif" font-size="14.00" fill="#000000">27865</text>
</g>
<!-- 5692&#45;&gt;27865 -->
<g id="edge27" class="edge">
<title>5692&#45;&gt;27865</title>
<path fill="none" stroke="#000000" d="M439.1967,-1204.2946C452.4135,-1207.4219 468.6188,-1211.2563 483.2561,-1214.7197"/>
<polygon fill="#000000" stroke="#000000" points="482.5458,-1218.1482 493.0831,-1217.0449 484.1577,-1211.3363 482.5458,-1218.1482"/>
</g>
<!-- 28065 -->
<g id="node45" class="node">
<title>28065</title>
<ellipse fill="none" stroke="#000000" cx="434.3789" cy="-1315.3828" rx="32.4942" ry="18"/>
<text text-anchor="middle" x="434.3789" y="-1311.6828" font-family="Times,serif" font-size="14.00" fill="#000000">28065</text>
</g>
<!-- 5692&#45;&gt;28065 -->
<g id="edge28" class="edge">
<title>5692&#45;&gt;28065</title>
<path fill="none" stroke="#000000" d="M415.7662,-1216.0402C419.3298,-1235.0603 424.9834,-1265.2353 429.1254,-1287.3427"/>
<polygon fill="#000000" stroke="#000000" points="425.7398,-1288.2788 431.0215,-1297.4632 432.6201,-1286.9896 425.7398,-1288.2788"/>
</g>
<!-- 52317 -->
<g id="node49" class="node">
<title>52317</title>
<ellipse fill="none" stroke="#000000" cx="470.3338" cy="-1151.663" rx="32.4942" ry="18"/>
<text text-anchor="middle" x="470.3338" y="-1147.963" font-family="Times,serif" font-size="14.00" fill="#000000">52317</text>
</g>
<!-- 5692&#45;&gt;52317 -->
<g id="edge29" class="edge">
<title>5692&#45;&gt;52317</title>
<path fill="none" stroke="#000000" d="M430.0806,-1183.8098C434.325,-1180.4202 438.9517,-1176.7253 443.5071,-1173.0873"/>
<polygon fill="#000000" stroke="#000000" points="445.9019,-1175.6539 451.5318,-1166.6786 441.5337,-1170.1841 445.9019,-1175.6539"/>
</g>
<!-- 52375 -->
<g id="node50" class="node">
<title>52375</title>
<ellipse fill="none" stroke="#000000" cx="512.128" cy="-1277.0452" rx="32.4942" ry="18"/>
<text text-anchor="middle" x="512.128" y="-1273.3452" font-family="Times,serif" font-size="14.00" fill="#000000">52375</text>
</g>
<!-- 5692&#45;&gt;52375 -->
<g id="edge30" class="edge">
<title>5692&#45;&gt;52375</title>
<path fill="none" stroke="#000000" d="M430.2101,-1212.0894C445.5246,-1224.2328 467.8285,-1241.9184 485.2976,-1255.7703"/>
<polygon fill="#000000" stroke="#000000" points="483.423,-1258.7506 493.4332,-1262.2213 487.7722,-1253.2657 483.423,-1258.7506"/>
</g>
<!-- 52376 -->
<g id="node51" class="node">
<title>52376</title>
<ellipse fill="none" stroke="#000000" cx="465.5559" cy="-1088.0459" rx="32.4942" ry="18"/>
<text text-anchor="middle" x="465.5559" y="-1084.3459" font-family="Times,serif" font-size="14.00" fill="#000000">52376</text>
</g>
<!-- 5692&#45;&gt;52376 -->
<g id="edge31" class="edge">
<title>5692&#45;&gt;52376</title>
<path fill="none" stroke="#000000" d="M420.9207,-1180.2907C429.4878,-1162.5857 442.787,-1135.101 452.6422,-1114.7338"/>
<polygon fill="#000000" stroke="#000000" points="455.8278,-1116.1859 457.0329,-1105.6598 449.5267,-1113.1369 455.8278,-1116.1859"/>
</g>
<!-- 52380 -->
<g id="node52" class="node">
<title>52380</title>
<ellipse fill="none" stroke="#000000" cx="436.4461" cy="-1253.7919" rx="32.4942" ry="18"/>
<text text-anchor="middle" x="436.4461" y="-1250.0919" font-family="Times,serif" font-size="14.00" fill="#000000">52380</text>
</g>
<!-- 5692&#45;&gt;52380 -->
<g id="edge32" class="edge">
<title>5692&#45;&gt;52380</title>
<path fill="none" stroke="#000000" d="M419.9923,-1215.6177C421.5288,-1219.1825 423.1769,-1223.0063 424.8151,-1226.8069"/>
<polygon fill="#000000" stroke="#000000" points="421.6249,-1228.248 428.7973,-1236.0459 428.0532,-1225.4773 421.6249,-1228.248"/>
</g>
<!-- 52413 -->
<g id="node53" class="node">
<title>52413</title>
<ellipse fill="none" stroke="#000000" cx="338.2852" cy="-1309.2141" rx="32.4942" ry="18"/>
<text text-anchor="middle" x="338.2852" y="-1305.5141" font-family="Times,serif" font-size="14.00" fill="#000000">52413</text>
</g>
<!-- 5692&#45;&gt;52413 -->
<g id="edge33" class="edge">
<title>5692&#45;&gt;52413</title>
<path fill="none" stroke="#000000" d="M401.1237,-1214.8473C388.9386,-1233.1461 369.3626,-1262.5442 355.2971,-1283.6668"/>
<polygon fill="#000000" stroke="#000000" points="352.2734,-1281.8928 349.644,-1292.1562 358.0998,-1285.7726 352.2734,-1281.8928"/>
</g>
<!-- 52431 -->
<g id="node54" class="node">
<title>52431</title>
<ellipse fill="none" stroke="#000000" cx="394.7208" cy="-1152.3862" rx="32.4942" ry="18"/>
<text text-anchor="middle" x="394.7208" y="-1148.6862" font-family="Times,serif" font-size="14.00" fill="#000000">52431</text>
</g>
<!-- 5692&#45;&gt;52431 -->
<g id="edge34" class="edge">
<title>5692&#45;&gt;52431</title>
<path fill="none" stroke="#000000" d="M405.4998,-1180.2024C405.42,-1179.9963 405.3399,-1179.7896 405.2596,-1179.5824"/>
<polygon fill="#000000" stroke="#000000" points="408.4847,-1178.2185 401.6078,-1170.1587 401.9576,-1180.7478 408.4847,-1178.2185"/>
</g>
<!-- 262230 -->
<g id="node55" class="node">
<title>262230</title>
<ellipse fill="none" stroke="#000000" cx="305.2979" cy="-1195.4396" rx="37.0935" ry="18"/>
<text text-anchor="middle" x="305.2979" y="-1191.7396" font-family="Times,serif" font-size="14.00" fill="#000000">262230</text>
</g>
<!-- 5692&#45;&gt;262230 -->
<g id="edge35" class="edge">
<title>5692&#45;&gt;262230</title>
<path fill="none" stroke="#000000" d="M383.6814,-1197.2762C374.1045,-1197.0518 363.1648,-1196.7955 352.5584,-1196.547"/>
<polygon fill="#000000" stroke="#000000" points="352.6261,-1193.0477 342.5469,-1196.3124 352.4621,-1200.0458 352.6261,-1193.0477"/>
</g>
<!-- 264608 -->
<g id="node56" class="node">
<title>264608</title>
<ellipse fill="none" stroke="#000000" cx="552.6325" cy="-1165.2204" rx="37.0935" ry="18"/>
<text text-anchor="middle" x="552.6325" y="-1161.5204" font-family="Times,serif" font-size="14.00" fill="#000000">264608</text>
</g>
<!-- 5692&#45;&gt;264608 -->
<g id="edge36" class="edge">
<title>5692&#45;&gt;264608</title>
<path fill="none" stroke="#000000" d="M439.4193,-1191.6382C459.1817,-1187.0267 486.3972,-1180.6761 509.1915,-1175.3572"/>
<polygon fill="#000000" stroke="#000000" points="510.039,-1178.7535 518.982,-1173.0726 508.4482,-1171.9367 510.039,-1178.7535"/>
</g>
<!-- 6453&#45;&gt;3257 -->
<g id="edge37" class="edge">
<title>6453&#45;&gt;3257</title>
<path fill="none" stroke="#000000" d="M189.2912,-498.176C177.7955,-487.9338 162.358,-474.1795 149.5106,-462.733"/>
<polygon fill="#000000" stroke="#000000" points="151.6992,-459.9953 141.9045,-455.9562 147.0426,-465.2218 151.6992,-459.9953"/>
</g>
<!-- 6461&#45;&gt;2497 -->
<g id="edge38" class="edge">
<title>6461&#45;&gt;2497</title>
<path fill="none" stroke="#000000" d="M311.0698,-60.819C320.7174,-72.0245 333.7939,-87.2126 344.6705,-99.8456"/>
<polygon fill="#000000" stroke="#000000" points="342.2651,-102.4161 351.4421,-107.7107 347.5698,-97.8489 342.2651,-102.4161"/>
</g>
<!-- 6762&#45;&gt;2914 -->
<g id="edge39" class="edge">
<title>6762&#45;&gt;2914</title>
<path fill="none" stroke="#000000" d="M346.9442,-680.444C337.0349,-670.0073 323.7822,-656.0494 312.6376,-644.3117"/>
<polygon fill="#000000" stroke="#000000" points="315.0985,-641.8203 305.6748,-636.9783 310.0221,-646.6402 315.0985,-641.8203"/>
</g>
<!-- 6904 -->
<g id="node29" class="node">
<title>6904</title>
<ellipse fill="none" stroke="#000000" cx="720.9444" cy="-741.1162" rx="28.6953" ry="18"/>
<text text-anchor="middle" x="720.9444" y="-737.4162" font-family="Times,serif" font-size="14.00" fill="#000000">6904</text>
</g>
<!-- 6904&#45;&gt;2687 -->
<g id="edge40" class="edge">
<title>6904&#45;&gt;2687</title>
<path fill="none" stroke="#000000" d="M744.3158,-730.4319C757.0889,-724.5926 773.1081,-717.2694 787.0796,-710.8822"/>
<polygon fill="#000000" stroke="#000000" points="788.7205,-713.9805 796.36,-706.6396 785.8101,-707.6142 788.7205,-713.9805"/>
</g>
<!-- 6939 -->
<g id="node30" class="node">
<title>6939</title>
<ellipse fill="none" stroke="#000000" cx="123.5872" cy="-350.0265" rx="28.6953" ry="18"/>
<text text-anchor="middle" x="123.5872" y="-346.3265" font-family="Times,serif" font-size="14.00" fill="#000000">6939</text>
</g>
<!-- 7016 -->
<g id="node31" class="node">
<title>7016</title>
<ellipse fill="none" stroke="#000000" cx="700.8974" cy="-850.3678" rx="28.6953" ry="18"/>
<text text-anchor="middle" x="700.8974" y="-846.6678" font-family="Times,serif" font-size="14.00" fill="#000000">7016</text>
</g>
<!-- 7922 -->
<g id="node35" class="node">
<title>7922</title>
<ellipse fill="none" stroke="#000000" cx="790.521" cy="-897.5457" rx="28.6953" ry="18"/>
<text text-anchor="middle" x="790.521" y="-893.8457" font-family="Times,serif" font-size="14.00" fill="#000000">7922</text>
</g>
<!-- 7016&#45;&gt;7922 -->
<g id="edge41" class="edge">
<title>7016&#45;&gt;7922</title>
<path fill="none" stroke="#000000" d="M723.0516,-862.0297C733.9315,-867.7569 747.2296,-874.757 759.1348,-881.024"/>
<polygon fill="#000000" stroke="#000000" points="757.8319,-884.2934 768.3111,-885.8544 761.0926,-878.0992 757.8319,-884.2934"/>
</g>
<!-- 7018&#45;&gt;3320 -->
<g id="edge42" class="edge">
<title>7018&#45;&gt;3320</title>
<path fill="none" stroke="#000000" d="M570.7802,-192.5815C583.9402,-188.422 600.1869,-183.2869 614.5145,-178.7583"/>
<polygon fill="#000000" stroke="#000000" points="615.5852,-182.0906 624.0654,-175.7395 613.4755,-175.4161 615.5852,-182.0906"/>
</g>
<!-- 7473 -->
<g id="node33" class="node">
<title>7473</title>
<ellipse fill="none" stroke="#000000" cx="149.9933" cy="-211.3696" rx="28.6953" ry="18"/>
<text text-anchor="middle" x="149.9933" y="-207.6696" font-family="Times,serif" font-size="14.00" fill="#000000">7473</text>
</g>
<!-- 7474 -->
<g id="node34" class="node">
<title>7474</title>
<ellipse fill="none" stroke="#000000" cx="69.603" cy="-614.5375" rx="28.6953" ry="18"/>
<text text-anchor="middle" x="69.603" y="-610.8375" font-family="Times,serif" font-size="14.00" fill="#000000">7474</text>
</g>
<!-- 9498&#45;&gt;4637 -->
<g id="edge43" class="edge">
<title>9498&#45;&gt;4637</title>
<path fill="none" stroke="#000000" d="M242.7895,-232.0339C241.7879,-217.1115 240.3567,-195.7896 239.2089,-178.6902"/>
<polygon fill="#000000" stroke="#000000" points="242.6992,-178.4272 238.5373,-168.684 235.7149,-178.896 242.6992,-178.4272"/>
</g>
<!-- 9498&#45;&gt;7473 -->
<g id="edge44" class="edge">
<title>9498&#45;&gt;7473</title>
<path fill="none" stroke="#000000" d="M219.8051,-240.3126C208.7279,-235.7201 195.4226,-230.2039 183.4123,-225.2246"/>
<polygon fill="#000000" stroke="#000000" points="184.7033,-221.971 174.1252,-221.3744 182.0224,-228.4373 184.7033,-221.971"/>
</g>
<!-- 10026 -->
<g id="node38" class="node">
<title>10026</title>
<ellipse fill="none" stroke="#000000" cx="223.3228" cy="-344.8325" rx="32.4942" ry="18"/>
<text text-anchor="middle" x="223.3228" y="-341.1325" font-family="Times,serif" font-size="14.00" fill="#000000">10026</text>
</g>
<!-- 9498&#45;&gt;10026 -->
<g id="edge45" class="edge">
<title>9498&#45;&gt;10026</title>
<path fill="none" stroke="#000000" d="M240.0286,-268.5682C237.0509,-282.1617 232.9266,-300.99 229.521,-316.537"/>
<polygon fill="#000000" stroke="#000000" points="226.0219,-316.1541 227.301,-326.6715 232.8598,-317.652 226.0219,-316.1541"/>
</g>
<!-- 10026&#45;&gt;4755 -->
<g id="edge46" class="edge">
<title>10026&#45;&gt;4755</title>
<path fill="none" stroke="#000000" d="M246.8455,-357.5749C258.1342,-363.69 271.8049,-371.0955 283.9065,-377.651"/>
<polygon fill="#000000" stroke="#000000" points="282.3294,-380.7772 292.7893,-382.4629 285.6636,-374.6223 282.3294,-380.7772"/>
</g>
<!-- 10026&#45;&gt;6939 -->
<g id="edge47" class="edge">
<title>10026&#45;&gt;6939</title>
<path fill="none" stroke="#000000" d="M190.9415,-346.5188C181.752,-346.9974 171.6553,-347.5232 162.1391,-348.0188"/>
<polygon fill="#000000" stroke="#000000" points="161.9155,-344.5256 152.1111,-348.541 162.2796,-351.5161 161.9155,-344.5256"/>
</g>
<!-- 12956 -->
<g id="node41" class="node">
<title>12956</title>
<ellipse fill="none" stroke="#000000" cx="334.1982" cy="-988.8318" rx="32.4942" ry="18"/>
<text text-anchor="middle" x="334.1982" y="-985.1318" font-family="Times,serif" font-size="14.00" fill="#000000">12956</text>
</g>
<!-- 10834&#45;&gt;12956 -->
<g id="edge48" class="edge">
<title>10834&#45;&gt;12956</title>
<path fill="none" stroke="#000000" d="M300.9535,-1107.1271C307.4528,-1084.0008 318.8696,-1043.3759 326.4835,-1016.2833"/>
<polygon fill="#000000" stroke="#000000" points="329.8611,-1017.201 329.1972,-1006.627 323.1221,-1015.3071 329.8611,-1017.201"/>
</g>
<!-- 22927 -->
<g id="node43" class="node">
<title>22927</title>
<ellipse fill="none" stroke="#000000" cx="193.1355" cy="-1158.7647" rx="32.4942" ry="18"/>
<text text-anchor="middle" x="193.1355" y="-1155.0647" font-family="Times,serif" font-size="14.00" fill="#000000">22927</text>
</g>
<!-- 10834&#45;&gt;22927 -->
<g id="edge49" class="edge">
<title>10834&#45;&gt;22927</title>
<path fill="none" stroke="#000000" d="M267.8582,-1134.1668C256.4106,-1137.9352 243.0064,-1142.3477 230.7358,-1146.3871"/>
<polygon fill="#000000" stroke="#000000" points="229.6012,-1143.0757 221.1971,-1149.5271 231.7901,-1149.7247 229.6012,-1143.0757"/>
</g>
<!-- 12956&#45;&gt;3356 -->
<g id="edge50" class="edge">
<title>12956&#45;&gt;3356</title>
<path fill="none" stroke="#000000" d="M343.8273,-971.5913C352.0992,-956.7811 364.1475,-935.2092 373.5813,-918.3184"/>
<polygon fill="#000000" stroke="#000000" points="376.6922,-919.9262 378.5128,-909.489 370.5808,-916.5128 376.6922,-919.9262"/>
</g>
<!-- 18540 -->
<g id="node42" class="node">
<title>18540</title>
<ellipse fill="none" stroke="#000000" cx="650.76" cy="-698.3463" rx="32.4942" ry="18"/>
<text text-anchor="middle" x="650.76" y="-694.6463" font-family="Times,serif" font-size="14.00" fill="#000000">18540</text>
</g>
<!-- 30070&#45;&gt;6904 -->
<g id="edge51" class="edge">
<title>30070&#45;&gt;6904</title>
<path fill="none" stroke="#000000" d="M614.5539,-776.1968C635.2787,-769.3631 663.5702,-760.0344 685.7691,-752.7147"/>
<polygon fill="#000000" stroke="#000000" points="687.0898,-755.9647 695.4908,-749.5092 684.8977,-749.3168 687.0898,-755.9647"/>
</g>
<!-- 30070&#45;&gt;7016 -->
<g id="edge52" class="edge">
<title>30070&#45;&gt;7016</title>
<path fill="none" stroke="#000000" d="M609.2435,-798.4721C626.9435,-808.4941 651.5922,-822.4505 670.8705,-833.3661"/>
<polygon fill="#000000" stroke="#000000" points="669.1504,-836.4143 679.5768,-838.2958 672.5994,-830.3229 669.1504,-836.4143"/>
</g>
<!-- 30070&#45;&gt;18540 -->
<g id="edge53" class="edge">
<title>30070&#45;&gt;18540</title>
<path fill="none" stroke="#000000" d="M598.7572,-768.697C608.2937,-755.7958 621.6085,-737.7832 632.3777,-723.2144"/>
<polygon fill="#000000" stroke="#000000" points="635.2467,-725.2211 638.3765,-715.0991 629.6176,-721.0601 635.2467,-725.2211"/>
</g>
<!-- 32787&#45;&gt;2764 -->
<g id="edge54" class="edge">
<title>32787&#45;&gt;2764</title>
<path fill="none" stroke="#000000" d="M111.6954,-525.9472C96.5977,-533.4376 77.0357,-543.1429 60.6975,-551.2488"/>
<polygon fill="#000000" stroke="#000000" points="58.911,-548.228 51.5084,-555.8078 62.0221,-554.4987 58.911,-548.228"/>
</g>
<!-- 32787&#45;&gt;7474 -->
<g id="edge55" class="edge">
<title>32787&#45;&gt;7474</title>
<path fill="none" stroke="#000000" d="M124.7792,-530.9415C114.2148,-546.9473 98.2907,-571.0735 86.2608,-589.2997"/>
<polygon fill="#000000" stroke="#000000" points="83.2961,-587.4377 80.7086,-597.7117 89.1383,-591.2938 83.2961,-587.4377"/>
</g>
</g>
</svg>
