<?xml version="1.0" encoding="UTF-8" standalone="no"?>
<!DOCTYPE svg PUBLIC "-//W3C//DTD SVG 1.1//EN"
 "http://www.w3.org/Graphics/SVG/1.1/DTD/svg11.dtd">
<!-- Generated by graphviz version 2.40.1 (20161225.0304)
 -->
<!-- Title: %3 Pages: 1 -->
<svg width="4016pt" height="3728pt"
 viewBox="0.00 0.00 4016.19 3727.83" xmlns="http://www.w3.org/2000/svg" xmlns:xlink="http://www.w3.org/1999/xlink">
<g id="graph0" class="graph" transform="scale(1 1) rotate(0) translate(4 3723.826)">
<title>%3</title>
<polygon fill="#ffffff" stroke="transparent" points="-4,4 -4,-3723.826 4012.1856,-3723.826 4012.1856,4 -4,4"/>
<!-- 174 -->
<g id="node1" class="node">
<title>174</title>
<ellipse fill="none" stroke="#000000" cx="2232.6362" cy="-1962.648" rx="27" ry="18"/>
<text text-anchor="middle" x="2232.6362" y="-1958.948" font-family="Times,serif" font-size="14.00" fill="#000000">174</text>
</g>
<!-- 2828 -->
<g id="node8" class="node">
<title>2828</title>
<ellipse fill="none" stroke="#000000" cx="3979.5881" cy="-1962.648" rx="28.6953" ry="18"/>
<text text-anchor="middle" x="3979.5881" y="-1958.948" font-family="Times,serif" font-size="14.00" fill="#000000">2828</text>
</g>
<!-- 174&#45;&gt;2828 -->
<g id="edge1" class="edge">
<title>174&#45;&gt;2828</title>
<path fill="none" stroke="#000000" d="M2259.7261,-1962.648C2459.5449,-1962.648 3703.7898,-1962.648 3940.6627,-1962.648"/>
<polygon fill="#000000" stroke="#000000" points="3940.8632,-1966.1481 3950.8631,-1962.648 3940.8631,-1959.1481 3940.8632,-1966.1481"/>
</g>
<!-- 5511 -->
<g id="node16" class="node">
<title>5511</title>
<ellipse fill="none" stroke="#000000" cx="2397.2593" cy="-3701.826" rx="28.6953" ry="18"/>
<text text-anchor="middle" x="2397.2593" y="-3698.126" font-family="Times,serif" font-size="14.00" fill="#000000">5511</text>
</g>
<!-- 174&#45;&gt;5511 -->
<g id="edge2" class="edge">
<title>174&#45;&gt;5511</title>
<path fill="none" stroke="#000000" d="M2234.3463,-1980.7143C2250.4115,-2150.4374 2374.6943,-3463.4358 2394.5797,-3673.5171"/>
<polygon fill="#000000" stroke="#000000" points="2391.1188,-3674.096 2395.5456,-3683.7217 2398.0876,-3673.4363 2391.1188,-3674.096"/>
</g>
<!-- 209 -->
<g id="node2" class="node">
<title>209</title>
<ellipse fill="none" stroke="#000000" cx="775.6379" cy="-1427.2242" rx="27" ry="18"/>
<text text-anchor="middle" x="775.6379" y="-1423.5242" font-family="Times,serif" font-size="14.00" fill="#000000">209</text>
</g>
<!-- 701 -->
<g id="node3" class="node">
<title>701</title>
<ellipse fill="none" stroke="#000000" cx="851.9178" cy="-1525.4454" rx="27" ry="18"/>
<text text-anchor="middle" x="851.9178" y="-1521.7454" font-family="Times,serif" font-size="14.00" fill="#000000">701</text>
</g>
<!-- 1239 -->
<g id="node4" class="node">
<title>1239</title>
<ellipse fill="none" stroke="#000000" cx="864.1333" cy="-1650.7483" rx="28.6953" ry="18"/>
<text text-anchor="middle" x="864.1333" y="-1647.0483" font-family="Times,serif" font-size="14.00" fill="#000000">1239</text>
</g>
<!-- 1273 -->
<g id="node5" class="node">
<title>1273</title>
<ellipse fill="none" stroke="#000000" cx="160.135" cy="-546.6245" rx="28.6953" ry="18"/>
<text text-anchor="middle" x="160.135" y="-542.9245" font-family="Times,serif" font-size="14.00" fill="#000000">1273</text>
</g>
<!-- 1299 -->
<g id="node6" class="node">
<title>1299</title>
<ellipse fill="none" stroke="#000000" cx="806.0757" cy="-1764.1843" rx="28.6953" ry="18"/>
<text text-anchor="middle" x="806.0757" y="-1760.4843" font-family="Times,serif" font-size="14.00" fill="#000000">1299</text>
</g>
<!-- 2497 -->
<g id="node7" class="node">
<title>2497</title>
<ellipse fill="none" stroke="#000000" cx="642.8585" cy="-1609.073" rx="28.6953" ry="18"/>
<text text-anchor="middle" x="642.8585" y="-1605.373" font-family="Times,serif" font-size="14.00" fill="#000000">2497</text>
</g>
<!-- 2497&#45;&gt;209 -->
<g id="edge3" class="edge">
<title>2497&#45;&gt;209</title>
<path fill="none" stroke="#000000" d="M654.876,-1592.6144C678.2795,-1560.5621 730.0828,-1489.6145 757.6163,-1451.9057"/>
<polygon fill="#000000" stroke="#000000" points="760.6729,-1453.6548 763.7432,-1443.5146 755.0195,-1449.5269 760.6729,-1453.6548"/>
</g>
<!-- 2497&#45;&gt;701 -->
<g id="edge4" class="edge">
<title>2497&#45;&gt;701</title>
<path fill="none" stroke="#000000" d="M667.2494,-1599.3162C704.8423,-1584.2783 776.9955,-1555.4157 819.122,-1538.5643"/>
<polygon fill="#000000" stroke="#000000" points="820.6567,-1541.7201 828.6414,-1534.7563 818.0568,-1535.2208 820.6567,-1541.7201"/>
</g>
<!-- 2497&#45;&gt;1239 -->
<g id="edge5" class="edge">
<title>2497&#45;&gt;1239</title>
<path fill="none" stroke="#000000" d="M670.4357,-1614.267C709.7981,-1621.6805 782.2158,-1635.3198 826.4844,-1643.6575"/>
<polygon fill="#000000" stroke="#000000" points="826.0819,-1647.1431 836.557,-1645.5546 827.3776,-1640.2641 826.0819,-1647.1431"/>
</g>
<!-- 2497&#45;&gt;1299 -->
<g id="edge6" class="edge">
<title>2497&#45;&gt;1299</title>
<path fill="none" stroke="#000000" d="M658.8057,-1624.2281C687.6189,-1651.6104 748.4893,-1709.4578 782.2544,-1741.546"/>
<polygon fill="#000000" stroke="#000000" points="780.1622,-1744.3861 789.822,-1748.7378 784.9843,-1739.3119 780.1622,-1744.3861"/>
</g>
<!-- 2914 -->
<g id="node9" class="node">
<title>2914</title>
<ellipse fill="none" stroke="#000000" cx="695.7416" cy="-1827.9399" rx="28.6953" ry="18"/>
<text text-anchor="middle" x="695.7416" y="-1824.2399" font-family="Times,serif" font-size="14.00" fill="#000000">2914</text>
</g>
<!-- 2497&#45;&gt;2914 -->
<g id="edge7" class="edge">
<title>2497&#45;&gt;2914</title>
<path fill="none" stroke="#000000" d="M647.1862,-1626.9838C656.409,-1665.1542 678.0537,-1754.7349 689.0607,-1800.2897"/>
<polygon fill="#000000" stroke="#000000" points="685.6775,-1801.1904 691.4283,-1810.0886 692.4817,-1799.5463 685.6775,-1801.1904"/>
</g>
<!-- 3257 -->
<g id="node10" class="node">
<title>3257</title>
<ellipse fill="none" stroke="#000000" cx="568.4697" cy="-1821.5951" rx="28.6953" ry="18"/>
<text text-anchor="middle" x="568.4697" y="-1817.8951" font-family="Times,serif" font-size="14.00" fill="#000000">3257</text>
</g>
<!-- 2497&#45;&gt;3257 -->
<g id="edge8" class="edge">
<title>2497&#45;&gt;3257</title>
<path fill="none" stroke="#000000" d="M636.6441,-1626.827C623.6535,-1663.9401 593.548,-1749.9487 578.0576,-1794.2034"/>
<polygon fill="#000000" stroke="#000000" points="574.7191,-1793.1474 574.7187,-1803.7422 581.326,-1795.46 574.7191,-1793.1474"/>
</g>
<!-- 3320 -->
<g id="node11" class="node">
<title>3320</title>
<ellipse fill="none" stroke="#000000" cx="465.0236" cy="-1747.182" rx="28.6953" ry="18"/>
<text text-anchor="middle" x="465.0236" y="-1743.482" font-family="Times,serif" font-size="14.00" fill="#000000">3320</text>
</g>
<!-- 2497&#45;&gt;3320 -->
<g id="edge9" class="edge">
<title>2497&#45;&gt;3320</title>
<path fill="none" stroke="#000000" d="M624.8281,-1623.0757C593.2732,-1647.5817 527.9192,-1698.3365 491.318,-1726.7614"/>
<polygon fill="#000000" stroke="#000000" points="488.853,-1724.2443 483.1018,-1733.1423 493.1466,-1729.7729 488.853,-1724.2443"/>
</g>
<!-- 3491 -->
<g id="node13" class="node">
<title>3491</title>
<ellipse fill="none" stroke="#000000" cx="418.536" cy="-1628.5342" rx="28.6953" ry="18"/>
<text text-anchor="middle" x="418.536" y="-1624.8342" font-family="Times,serif" font-size="14.00" fill="#000000">3491</text>
</g>
<!-- 2497&#45;&gt;3491 -->
<g id="edge10" class="edge">
<title>2497&#45;&gt;3491</title>
<path fill="none" stroke="#000000" d="M614.4479,-1611.5378C574.6101,-1614.9939 502.0224,-1621.2913 457.2658,-1625.1742"/>
<polygon fill="#000000" stroke="#000000" points="456.7294,-1621.7075 447.0693,-1626.0588 457.3345,-1628.6813 456.7294,-1621.7075"/>
</g>
<!-- 6453 -->
<g id="node18" class="node">
<title>6453</title>
<ellipse fill="none" stroke="#000000" cx="443.8962" cy="-1503.6532" rx="28.6953" ry="18"/>
<text text-anchor="middle" x="443.8962" y="-1499.9532" font-family="Times,serif" font-size="14.00" fill="#000000">6453</text>
</g>
<!-- 2497&#45;&gt;6453 -->
<g id="edge11" class="edge">
<title>2497&#45;&gt;6453</title>
<path fill="none" stroke="#000000" d="M620.8059,-1597.3885C585.325,-1578.589 515.4547,-1541.5683 474.9486,-1520.1063"/>
<polygon fill="#000000" stroke="#000000" points="476.5226,-1516.9794 466.0476,-1515.3901 473.2452,-1523.1648 476.5226,-1516.9794"/>
</g>
<!-- 6461 -->
<g id="node19" class="node">
<title>6461</title>
<ellipse fill="none" stroke="#000000" cx="532.9817" cy="-1412.537" rx="28.6953" ry="18"/>
<text text-anchor="middle" x="532.9817" y="-1408.837" font-family="Times,serif" font-size="14.00" fill="#000000">6461</text>
</g>
<!-- 2497&#45;&gt;6461 -->
<g id="edge12" class="edge">
<title>2497&#45;&gt;6461</title>
<path fill="none" stroke="#000000" d="M633.2999,-1591.9755C614.0214,-1557.4921 570.3751,-1479.4223 547.534,-1438.5666"/>
<polygon fill="#000000" stroke="#000000" points="550.5313,-1436.7555 542.5964,-1429.7349 544.4213,-1440.1714 550.5313,-1436.7555"/>
</g>
<!-- 7018 -->
<g id="node21" class="node">
<title>7018</title>
<ellipse fill="none" stroke="#000000" cx="657.2594" cy="-1384.3689" rx="28.6953" ry="18"/>
<text text-anchor="middle" x="657.2594" y="-1380.6689" font-family="Times,serif" font-size="14.00" fill="#000000">7018</text>
</g>
<!-- 2497&#45;&gt;7018 -->
<g id="edge13" class="edge">
<title>2497&#45;&gt;7018</title>
<path fill="none" stroke="#000000" d="M644.0127,-1591.0644C646.5143,-1552.0309 652.452,-1459.3809 655.4545,-1412.5307"/>
<polygon fill="#000000" stroke="#000000" points="658.9529,-1412.6667 656.0997,-1402.4633 651.9673,-1412.2189 658.9529,-1412.6667"/>
</g>
<!-- 3356 -->
<g id="node12" class="node">
<title>3356</title>
<ellipse fill="none" stroke="#000000" cx="940.4618" cy="-787.0094" rx="28.6953" ry="18"/>
<text text-anchor="middle" x="940.4618" y="-783.3094" font-family="Times,serif" font-size="14.00" fill="#000000">3356</text>
</g>
<!-- 3356&#45;&gt;174 -->
<g id="edge14" class="edge">
<title>3356&#45;&gt;174</title>
<path fill="none" stroke="#000000" d="M956.7996,-801.8738C1093.5544,-926.2953 2046.6716,-1793.4548 2209.1196,-1941.2523"/>
<polygon fill="#000000" stroke="#000000" points="2206.911,-1943.9747 2216.6631,-1948.1155 2211.6217,-1938.7969 2206.911,-1943.9747"/>
</g>
<!-- 3356&#45;&gt;2497 -->
<g id="edge15" class="edge">
<title>3356&#45;&gt;2497</title>
<path fill="none" stroke="#000000" d="M934.1082,-804.5597C896.1341,-909.4548 699.2528,-1453.2963 652.7224,-1581.8263"/>
<polygon fill="#000000" stroke="#000000" points="649.3921,-1580.7436 649.279,-1591.3379 655.9741,-1583.1265 649.3921,-1580.7436"/>
</g>
<!-- 3549 -->
<g id="node14" class="node">
<title>3549</title>
<ellipse fill="none" stroke="#000000" cx="149.7847" cy="-413.933" rx="28.6953" ry="18"/>
<text text-anchor="middle" x="149.7847" y="-410.233" font-family="Times,serif" font-size="14.00" fill="#000000">3549</text>
</g>
<!-- 3356&#45;&gt;3549 -->
<g id="edge16" class="edge">
<title>3356&#45;&gt;3549</title>
<path fill="none" stroke="#000000" d="M917.2265,-776.046C804.3711,-722.7958 313.5082,-491.185 182.1927,-429.2245"/>
<polygon fill="#000000" stroke="#000000" points="183.5586,-425.999 173.0212,-424.897 180.5715,-432.3297 183.5586,-425.999"/>
</g>
<!-- 3549&#45;&gt;1273 -->
<g id="edge17" class="edge">
<title>3549&#45;&gt;1273</title>
<path fill="none" stroke="#000000" d="M151.2022,-432.105C152.9345,-454.3134 155.8856,-492.1466 157.9189,-518.2136"/>
<polygon fill="#000000" stroke="#000000" points="154.4343,-518.5487 158.7015,-528.2462 161.4131,-518.0043 154.4343,-518.5487"/>
</g>
<!-- 6762 -->
<g id="node20" class="node">
<title>6762</title>
<ellipse fill="none" stroke="#000000" cx="28.5975" cy="-358.9074" rx="28.6953" ry="18"/>
<text text-anchor="middle" x="28.5975" y="-355.2074" font-family="Times,serif" font-size="14.00" fill="#000000">6762</text>
</g>
<!-- 3549&#45;&gt;6762 -->
<g id="edge18" class="edge">
<title>3549&#45;&gt;6762</title>
<path fill="none" stroke="#000000" d="M126.4186,-403.3235C107.893,-394.9119 81.7875,-383.0586 61.2039,-373.7125"/>
<polygon fill="#000000" stroke="#000000" points="62.4442,-370.4318 51.8919,-369.4843 59.5502,-376.8056 62.4442,-370.4318"/>
</g>
<!-- 30070 -->
<g id="node28" class="node">
<title>30070</title>
<ellipse fill="none" stroke="#000000" cx="258.783" cy="-337.5555" rx="32.4942" ry="18"/>
<text text-anchor="middle" x="258.783" y="-333.8555" font-family="Times,serif" font-size="14.00" fill="#000000">30070</text>
</g>
<!-- 3549&#45;&gt;30070 -->
<g id="edge19" class="edge">
<title>3549&#45;&gt;30070</title>
<path fill="none" stroke="#000000" d="M169.0205,-400.4541C185.8741,-388.6444 210.6126,-371.3096 229.853,-357.8274"/>
<polygon fill="#000000" stroke="#000000" points="232.0773,-360.5426 238.2583,-351.9376 228.0602,-354.8099 232.0773,-360.5426"/>
</g>
<!-- 3597 -->
<g id="node15" class="node">
<title>3597</title>
<ellipse fill="none" stroke="#000000" cx="1918.588" cy="-490.9382" rx="28.6953" ry="18"/>
<text text-anchor="middle" x="1918.588" y="-487.2382" font-family="Times,serif" font-size="14.00" fill="#000000">3597</text>
</g>
<!-- 5692 -->
<g id="node17" class="node">
<title>5692</title>
<ellipse fill="none" stroke="#000000" cx="1965.8108" cy="-749.9636" rx="28.6953" ry="18"/>
<text text-anchor="middle" x="1965.8108" y="-746.2636" font-family="Times,serif" font-size="14.00" fill="#000000">5692</text>
</g>
<!-- 5692&#45;&gt;3597 -->
<g id="edge20" class="edge">
<title>5692&#45;&gt;3597</title>
<path fill="none" stroke="#000000" d="M1962.4901,-731.7494C1954.3785,-687.2555 1933.5076,-572.7751 1923.7546,-519.2779"/>
<polygon fill="#000000" stroke="#000000" points="1927.1418,-518.3423 1921.9049,-509.1322 1920.2553,-519.5979 1927.1418,-518.3423"/>
</g>
<!-- 10834 -->
<g id="node22" class="node">
<title>10834</title>
<ellipse fill="none" stroke="#000000" cx="1792.7454" cy="-383.9818" rx="32.4942" ry="18"/>
<text text-anchor="middle" x="1792.7454" y="-380.2818" font-family="Times,serif" font-size="14.00" fill="#000000">10834</text>
</g>
<!-- 5692&#45;&gt;10834 -->
<g id="edge21" class="edge">
<title>5692&#45;&gt;10834</title>
<path fill="none" stroke="#000000" d="M1957.4635,-732.3115C1929.476,-673.1263 1838.8457,-481.4702 1805.3445,-410.6251"/>
<polygon fill="#000000" stroke="#000000" points="1808.448,-409.0007 1801.0089,-401.4567 1802.1198,-411.9932 1808.448,-409.0007"/>
</g>
<!-- 11008 -->
<g id="node23" class="node">
<title>11008</title>
<ellipse fill="none" stroke="#000000" cx="2049.9249" cy="-500.4662" rx="32.4942" ry="18"/>
<text text-anchor="middle" x="2049.9249" y="-496.7662" font-family="Times,serif" font-size="14.00" fill="#000000">11008</text>
</g>
<!-- 5692&#45;&gt;11008 -->
<g id="edge22" class="edge">
<title>5692&#45;&gt;11008</title>
<path fill="none" stroke="#000000" d="M1971.86,-732.0204C1986.3794,-688.9532 2023.2804,-579.4984 2040.6355,-528.0202"/>
<polygon fill="#000000" stroke="#000000" points="2044.0523,-528.841 2043.9304,-518.2468 2037.4191,-526.6047 2044.0523,-528.841"/>
</g>
<!-- 27865 -->
<g id="node26" class="node">
<title>27865</title>
<ellipse fill="none" stroke="#000000" cx="2162.8306" cy="-575.3002" rx="32.4942" ry="18"/>
<text text-anchor="middle" x="2162.8306" y="-571.6002" font-family="Times,serif" font-size="14.00" fill="#000000">27865</text>
</g>
<!-- 5692&#45;&gt;27865 -->
<g id="edge23" class="edge">
<title>5692&#45;&gt;27865</title>
<path fill="none" stroke="#000000" d="M1982.6086,-735.0719C2017.3303,-704.2902 2097.1587,-633.5201 2137.9095,-597.3934"/>
<polygon fill="#000000" stroke="#000000" points="2140.3527,-599.9049 2145.5137,-590.6521 2135.709,-594.6669 2140.3527,-599.9049"/>
</g>
<!-- 28065 -->
<g id="node27" class="node">
<title>28065</title>
<ellipse fill="none" stroke="#000000" cx="2223.5917" cy="-696.3618" rx="32.4942" ry="18"/>
<text text-anchor="middle" x="2223.5917" y="-692.6618" font-family="Times,serif" font-size="14.00" fill="#000000">28065</text>
</g>
<!-- 5692&#45;&gt;28065 -->
<g id="edge24" class="edge">
<title>5692&#45;&gt;28065</title>
<path fill="none" stroke="#000000" d="M1993.3978,-744.2273C2038.9383,-734.7578 2130.0594,-715.8105 2182.9755,-704.8074"/>
<polygon fill="#000000" stroke="#000000" points="2183.9464,-708.1804 2193.0244,-702.7178 2182.5213,-701.327 2183.9464,-708.1804"/>
</g>
<!-- 52317 -->
<g id="node29" class="node">
<title>52317</title>
<ellipse fill="none" stroke="#000000" cx="2216.1265" cy="-831.6101" rx="32.4942" ry="18"/>
<text text-anchor="middle" x="2216.1265" y="-827.9101" font-family="Times,serif" font-size="14.00" fill="#000000">52317</text>
</g>
<!-- 5692&#45;&gt;52317 -->
<g id="edge25" class="edge">
<title>5692&#45;&gt;52317</title>
<path fill="none" stroke="#000000" d="M1991.6561,-758.3937C2035.922,-772.8321 2126.4455,-802.3585 2177.9874,-819.1701"/>
<polygon fill="#000000" stroke="#000000" points="2177.1584,-822.5811 2187.7508,-822.3547 2179.3291,-815.9262 2177.1584,-822.5811"/>
</g>
<!-- 52375 -->
<g id="node30" class="node">
<title>52375</title>
<ellipse fill="none" stroke="#000000" cx="2142.411" cy="-945.2493" rx="32.4942" ry="18"/>
<text text-anchor="middle" x="2142.411" y="-941.5493" font-family="Times,serif" font-size="14.00" fill="#000000">52375</text>
</g>
<!-- 5692&#45;&gt;52375 -->
<g id="edge26" class="edge">
<title>5692&#45;&gt;52375</title>
<path fill="none" stroke="#000000" d="M1979.9642,-765.6145C2010.8109,-799.7251 2084.263,-880.9488 2120.8848,-921.4454"/>
<polygon fill="#000000" stroke="#000000" points="2118.3912,-923.9062 2127.6945,-928.9757 2123.5831,-919.2111 2118.3912,-923.9062"/>
</g>
<!-- 52376 -->
<g id="node31" class="node">
<title>52376</title>
<ellipse fill="none" stroke="#000000" cx="2021.9552" cy="-1007.2027" rx="32.4942" ry="18"/>
<text text-anchor="middle" x="2021.9552" y="-1003.5027" font-family="Times,serif" font-size="14.00" fill="#000000">52376</text>
</g>
<!-- 5692&#45;&gt;52376 -->
<g id="edge27" class="edge">
<title>5692&#45;&gt;52376</title>
<path fill="none" stroke="#000000" d="M1969.7587,-768.0521C1979.4029,-812.2392 2004.2168,-925.9302 2015.8125,-979.0584"/>
<polygon fill="#000000" stroke="#000000" points="2012.4596,-980.1105 2018.0116,-989.1341 2019.2986,-978.6177 2012.4596,-980.1105"/>
</g>
<!-- 52380 -->
<g id="node32" class="node">
<title>52380</title>
<ellipse fill="none" stroke="#000000" cx="1886.6398" cy="-1001.0733" rx="32.4942" ry="18"/>
<text text-anchor="middle" x="1886.6398" y="-997.3733" font-family="Times,serif" font-size="14.00" fill="#000000">52380</text>
</g>
<!-- 5692&#45;&gt;52380 -->
<g id="edge28" class="edge">
<title>5692&#45;&gt;52380</title>
<path fill="none" stroke="#000000" d="M1960.2436,-767.6211C1946.6487,-810.7408 1911.6769,-921.6622 1895.3184,-973.547"/>
<polygon fill="#000000" stroke="#000000" points="1891.9757,-972.5095 1892.3068,-983.0992 1898.6518,-974.6144 1891.9757,-972.5095"/>
</g>
<!-- 52413 -->
<g id="node33" class="node">
<title>52413</title>
<ellipse fill="none" stroke="#000000" cx="1772.2783" cy="-928.4835" rx="32.4942" ry="18"/>
<text text-anchor="middle" x="1772.2783" y="-924.7835" font-family="Times,serif" font-size="14.00" fill="#000000">52413</text>
</g>
<!-- 5692&#45;&gt;52413 -->
<g id="edge29" class="edge">
<title>5692&#45;&gt;52413</title>
<path fill="none" stroke="#000000" d="M1949.6432,-764.877C1915.6608,-796.2234 1836.6621,-869.0941 1796.5626,-906.083"/>
<polygon fill="#000000" stroke="#000000" points="1794.0636,-903.6265 1789.0862,-912.9794 1798.8097,-908.7718 1794.0636,-903.6265"/>
</g>
<!-- 52431 -->
<g id="node34" class="node">
<title>52431</title>
<ellipse fill="none" stroke="#000000" cx="1709.1386" cy="-808.6452" rx="32.4942" ry="18"/>
<text text-anchor="middle" x="1709.1386" y="-804.9452" font-family="Times,serif" font-size="14.00" fill="#000000">52431</text>
</g>
<!-- 5692&#45;&gt;52431 -->
<g id="edge30" class="edge">
<title>5692&#45;&gt;52431</title>
<path fill="none" stroke="#000000" d="M1938.8275,-756.1326C1893.5778,-766.4778 1802.1749,-787.3748 1749.335,-799.4553"/>
<polygon fill="#000000" stroke="#000000" points="1748.2747,-796.1074 1739.3063,-801.7481 1749.8349,-802.9313 1748.2747,-796.1074"/>
</g>
<!-- 262230 -->
<g id="node35" class="node">
<title>262230</title>
<ellipse fill="none" stroke="#000000" cx="1715.2942" cy="-668.9352" rx="37.0935" ry="18"/>
<text text-anchor="middle" x="1715.2942" y="-665.2352" font-family="Times,serif" font-size="14.00" fill="#000000">262230</text>
</g>
<!-- 5692&#45;&gt;262230 -->
<g id="edge31" class="edge">
<title>5692&#45;&gt;262230</title>
<path fill="none" stroke="#000000" d="M1939.9447,-741.5973C1896.3731,-727.5043 1808.0195,-698.9268 1756.0446,-682.1157"/>
<polygon fill="#000000" stroke="#000000" points="1757.0623,-678.7664 1746.4704,-679.019 1754.908,-685.4267 1757.0623,-678.7664"/>
</g>
<!-- 264608 -->
<g id="node36" class="node">
<title>264608</title>
<ellipse fill="none" stroke="#000000" cx="1795.5672" cy="-549.1123" rx="37.0935" ry="18"/>
<text text-anchor="middle" x="1795.5672" y="-545.4123" font-family="Times,serif" font-size="14.00" fill="#000000">264608</text>
</g>
<!-- 5692&#45;&gt;264608 -->
<g id="edge32" class="edge">
<title>5692&#45;&gt;264608</title>
<path fill="none" stroke="#000000" d="M1952.1668,-733.8666C1922.4303,-698.7839 1851.6222,-615.2453 1816.3186,-573.5945"/>
<polygon fill="#000000" stroke="#000000" points="1818.8898,-571.215 1809.7539,-565.8496 1813.5499,-575.7411 1818.8898,-571.215"/>
</g>
<!-- 12956 -->
<g id="node24" class="node">
<title>12956</title>
<ellipse fill="none" stroke="#000000" cx="1060.7818" cy="-730.1125" rx="32.4942" ry="18"/>
<text text-anchor="middle" x="1060.7818" y="-726.4125" font-family="Times,serif" font-size="14.00" fill="#000000">12956</text>
</g>
<!-- 10834&#45;&gt;12956 -->
<g id="edge33" class="edge">
<title>10834&#45;&gt;12956</title>
<path fill="none" stroke="#000000" d="M1767.9722,-395.6965C1658.8137,-447.3154 1220.5948,-654.5402 1094.7379,-714.0554"/>
<polygon fill="#000000" stroke="#000000" points="1093.0927,-710.9617 1085.5488,-718.4007 1096.0852,-717.2898 1093.0927,-710.9617"/>
</g>
<!-- 22927 -->
<g id="node25" class="node">
<title>22927</title>
<ellipse fill="none" stroke="#000000" cx="1619.68" cy="-18" rx="32.4942" ry="18"/>
<text text-anchor="middle" x="1619.68" y="-14.3" font-family="Times,serif" font-size="14.00" fill="#000000">22927</text>
</g>
<!-- 10834&#45;&gt;22927 -->
<g id="edge34" class="edge">
<title>10834&#45;&gt;22927</title>
<path fill="none" stroke="#000000" d="M1784.3981,-366.3297C1756.4106,-307.1445 1665.7803,-115.4884 1632.2791,-44.6433"/>
<polygon fill="#000000" stroke="#000000" points="1635.3826,-43.0189 1627.9436,-35.4749 1629.0545,-46.0114 1635.3826,-43.0189"/>
</g>
<!-- 12956&#45;&gt;3356 -->
<g id="edge35" class="edge">
<title>12956&#45;&gt;3356</title>
<path fill="none" stroke="#000000" d="M1035.8514,-741.9016C1017.6322,-750.5171 992.757,-762.2801 972.977,-771.6337"/>
<polygon fill="#000000" stroke="#000000" points="971.2715,-768.5685 963.7275,-776.0075 974.264,-774.8966 971.2715,-768.5685"/>
</g>
</g>
</svg>
