<?xml version="1.0" encoding="UTF-8" standalone="no"?>
<!DOCTYPE svg PUBLIC "-//W3C//DTD SVG 1.1//EN"
 "http://www.w3.org/Graphics/SVG/1.1/DTD/svg11.dtd">
<!-- Generated by graphviz version 2.40.1 (20161225.0304)
 -->
<!-- Title: %3 Pages: 1 -->
<svg width="1562pt" height="404pt"
 viewBox="0.00 0.00 1561.64 404.00" xmlns="http://www.w3.org/2000/svg" xmlns:xlink="http://www.w3.org/1999/xlink">
<g id="graph0" class="graph" transform="scale(1 1) rotate(0) translate(4 400)">
<title>%3</title>
<polygon fill="#ffffff" stroke="transparent" points="-4,4 -4,-400 1557.6442,-400 1557.6442,4 -4,4"/>
<!-- 174 -->
<g id="node1" class="node">
<title>174</title>
<ellipse fill="none" stroke="#000000" cx="103.5975" cy="-90" rx="27" ry="18"/>
<text text-anchor="middle" x="103.5975" y="-86.3" font-family="Times,serif" font-size="14.00" fill="#000000">174</text>
</g>
<!-- 2828 -->
<g id="node8" class="node">
<title>2828</title>
<ellipse fill="none" stroke="#000000" cx="28.5975" cy="-18" rx="28.6953" ry="18"/>
<text text-anchor="middle" x="28.5975" y="-14.3" font-family="Times,serif" font-size="14.00" fill="#000000">2828</text>
</g>
<!-- 174&#45;&gt;2828 -->
<g id="edge1" class="edge">
<title>174&#45;&gt;2828</title>
<path fill="none" stroke="#000000" d="M88.0574,-75.0816C77.5689,-65.0125 63.5415,-51.5463 51.7455,-40.2221"/>
<polygon fill="#000000" stroke="#000000" points="54.0134,-37.5475 44.3756,-33.147 49.1657,-42.5973 54.0134,-37.5475"/>
</g>
<!-- 5511 -->
<g id="node16" class="node">
<title>5511</title>
<ellipse fill="none" stroke="#000000" cx="103.5975" cy="-18" rx="28.6953" ry="18"/>
<text text-anchor="middle" x="103.5975" y="-14.3" font-family="Times,serif" font-size="14.00" fill="#000000">5511</text>
</g>
<!-- 174&#45;&gt;5511 -->
<g id="edge2" class="edge">
<title>174&#45;&gt;5511</title>
<path fill="none" stroke="#000000" d="M103.5975,-71.8314C103.5975,-64.131 103.5975,-54.9743 103.5975,-46.4166"/>
<polygon fill="#000000" stroke="#000000" points="107.0976,-46.4132 103.5975,-36.4133 100.0976,-46.4133 107.0976,-46.4132"/>
</g>
<!-- 209 -->
<g id="node2" class="node">
<title>209</title>
<ellipse fill="none" stroke="#000000" cx="177.5975" cy="-18" rx="27" ry="18"/>
<text text-anchor="middle" x="177.5975" y="-14.3" font-family="Times,serif" font-size="14.00" fill="#000000">209</text>
</g>
<!-- 701 -->
<g id="node3" class="node">
<title>701</title>
<ellipse fill="none" stroke="#000000" cx="249.5975" cy="-18" rx="27" ry="18"/>
<text text-anchor="middle" x="249.5975" y="-14.3" font-family="Times,serif" font-size="14.00" fill="#000000">701</text>
</g>
<!-- 1239 -->
<g id="node4" class="node">
<title>1239</title>
<ellipse fill="none" stroke="#000000" cx="323.5975" cy="-18" rx="28.6953" ry="18"/>
<text text-anchor="middle" x="323.5975" y="-14.3" font-family="Times,serif" font-size="14.00" fill="#000000">1239</text>
</g>
<!-- 1273 -->
<g id="node5" class="node">
<title>1273</title>
<ellipse fill="none" stroke="#000000" cx="998.5975" cy="-18" rx="28.6953" ry="18"/>
<text text-anchor="middle" x="998.5975" y="-14.3" font-family="Times,serif" font-size="14.00" fill="#000000">1273</text>
</g>
<!-- 1299 -->
<g id="node6" class="node">
<title>1299</title>
<ellipse fill="none" stroke="#000000" cx="398.5975" cy="-18" rx="28.6953" ry="18"/>
<text text-anchor="middle" x="398.5975" y="-14.3" font-family="Times,serif" font-size="14.00" fill="#000000">1299</text>
</g>
<!-- 2497 -->
<g id="node7" class="node">
<title>2497</title>
<ellipse fill="none" stroke="#000000" cx="548.5975" cy="-90" rx="28.6953" ry="18"/>
<text text-anchor="middle" x="548.5975" y="-86.3" font-family="Times,serif" font-size="14.00" fill="#000000">2497</text>
</g>
<!-- 2497&#45;&gt;209 -->
<g id="edge3" class="edge">
<title>2497&#45;&gt;209</title>
<path fill="none" stroke="#000000" d="M519.6777,-88.2962C460.7799,-84.1885 323.2166,-71.3237 213.5975,-36 211.7019,-35.3892 209.7823,-34.6913 207.8674,-33.9333"/>
<polygon fill="#000000" stroke="#000000" points="209.0264,-30.6187 198.4659,-29.7669 206.1903,-37.0184 209.0264,-30.6187"/>
</g>
<!-- 2497&#45;&gt;701 -->
<g id="edge4" class="edge">
<title>2497&#45;&gt;701</title>
<path fill="none" stroke="#000000" d="M520.3158,-86.6585C471.4305,-80.3435 368.4123,-64.6513 285.5975,-36 283.7154,-35.3489 281.8062,-34.6196 279.8993,-33.8377"/>
<polygon fill="#000000" stroke="#000000" points="281.0739,-30.5281 270.5191,-29.6074 278.1961,-36.9091 281.0739,-30.5281"/>
</g>
<!-- 2497&#45;&gt;1239 -->
<g id="edge5" class="edge">
<title>2497&#45;&gt;1239</title>
<path fill="none" stroke="#000000" d="M521.6573,-83.8212C484.72,-74.9998 416.5594,-57.4639 360.5975,-36 358.7466,-35.2901 356.8623,-34.5226 354.9735,-33.7184"/>
<polygon fill="#000000" stroke="#000000" points="356.1797,-30.4225 345.6262,-29.4871 353.2929,-36.7996 356.1797,-30.4225"/>
</g>
<!-- 2497&#45;&gt;1299 -->
<g id="edge6" class="edge">
<title>2497&#45;&gt;1299</title>
<path fill="none" stroke="#000000" d="M525.634,-79.084C502.7867,-68.2095 466.7379,-51.0151 435.5975,-36 434.0049,-35.2321 432.3745,-34.4445 430.7284,-33.6481"/>
<polygon fill="#000000" stroke="#000000" points="431.8085,-30.282 421.2835,-29.0674 428.7538,-36.5804 431.8085,-30.282"/>
</g>
<!-- 2914 -->
<g id="node9" class="node">
<title>2914</title>
<ellipse fill="none" stroke="#000000" cx="473.5975" cy="-18" rx="28.6953" ry="18"/>
<text text-anchor="middle" x="473.5975" y="-14.3" font-family="Times,serif" font-size="14.00" fill="#000000">2914</text>
</g>
<!-- 2497&#45;&gt;2914 -->
<g id="edge7" class="edge">
<title>2497&#45;&gt;2914</title>
<path fill="none" stroke="#000000" d="M532.6919,-74.7307C522.2512,-64.7075 508.4226,-51.4321 496.7677,-40.2434"/>
<polygon fill="#000000" stroke="#000000" points="499.1179,-37.6478 489.4801,-33.2473 494.2701,-42.6976 499.1179,-37.6478"/>
</g>
<!-- 3257 -->
<g id="node10" class="node">
<title>3257</title>
<ellipse fill="none" stroke="#000000" cx="548.5975" cy="-18" rx="28.6953" ry="18"/>
<text text-anchor="middle" x="548.5975" y="-14.3" font-family="Times,serif" font-size="14.00" fill="#000000">3257</text>
</g>
<!-- 2497&#45;&gt;3257 -->
<g id="edge8" class="edge">
<title>2497&#45;&gt;3257</title>
<path fill="none" stroke="#000000" d="M548.5975,-71.8314C548.5975,-64.131 548.5975,-54.9743 548.5975,-46.4166"/>
<polygon fill="#000000" stroke="#000000" points="552.0976,-46.4132 548.5975,-36.4133 545.0976,-46.4133 552.0976,-46.4132"/>
</g>
<!-- 3320 -->
<g id="node11" class="node">
<title>3320</title>
<ellipse fill="none" stroke="#000000" cx="623.5975" cy="-18" rx="28.6953" ry="18"/>
<text text-anchor="middle" x="623.5975" y="-14.3" font-family="Times,serif" font-size="14.00" fill="#000000">3320</text>
</g>
<!-- 2497&#45;&gt;3320 -->
<g id="edge9" class="edge">
<title>2497&#45;&gt;3320</title>
<path fill="none" stroke="#000000" d="M564.503,-74.7307C574.9438,-64.7075 588.7723,-51.4321 600.4272,-40.2434"/>
<polygon fill="#000000" stroke="#000000" points="602.9248,-42.6976 607.7148,-33.2473 598.077,-37.6478 602.9248,-42.6976"/>
</g>
<!-- 3491 -->
<g id="node13" class="node">
<title>3491</title>
<ellipse fill="none" stroke="#000000" cx="698.5975" cy="-18" rx="28.6953" ry="18"/>
<text text-anchor="middle" x="698.5975" y="-14.3" font-family="Times,serif" font-size="14.00" fill="#000000">3491</text>
</g>
<!-- 2497&#45;&gt;3491 -->
<g id="edge10" class="edge">
<title>2497&#45;&gt;3491</title>
<path fill="none" stroke="#000000" d="M571.5609,-79.084C594.4082,-68.2095 630.457,-51.0151 661.5975,-36 663.19,-35.2321 664.8204,-34.4445 666.4666,-33.6481"/>
<polygon fill="#000000" stroke="#000000" points="668.4411,-36.5804 675.9114,-29.0674 665.3864,-30.282 668.4411,-36.5804"/>
</g>
<!-- 6453 -->
<g id="node18" class="node">
<title>6453</title>
<ellipse fill="none" stroke="#000000" cx="773.5975" cy="-18" rx="28.6953" ry="18"/>
<text text-anchor="middle" x="773.5975" y="-14.3" font-family="Times,serif" font-size="14.00" fill="#000000">6453</text>
</g>
<!-- 2497&#45;&gt;6453 -->
<g id="edge11" class="edge">
<title>2497&#45;&gt;6453</title>
<path fill="none" stroke="#000000" d="M575.5377,-83.8212C612.4749,-74.9998 680.6355,-57.4639 736.5975,-36 738.4483,-35.2901 740.3326,-34.5226 742.2215,-33.7184"/>
<polygon fill="#000000" stroke="#000000" points="743.9021,-36.7996 751.5687,-29.4871 741.0153,-30.4225 743.9021,-36.7996"/>
</g>
<!-- 6461 -->
<g id="node19" class="node">
<title>6461</title>
<ellipse fill="none" stroke="#000000" cx="848.5975" cy="-18" rx="28.6953" ry="18"/>
<text text-anchor="middle" x="848.5975" y="-14.3" font-family="Times,serif" font-size="14.00" fill="#000000">6461</text>
</g>
<!-- 2497&#45;&gt;6461 -->
<g id="edge12" class="edge">
<title>2497&#45;&gt;6461</title>
<path fill="none" stroke="#000000" d="M576.8465,-86.5632C625.6824,-80.1042 728.6281,-64.2008 811.5975,-36 813.4743,-35.3621 815.379,-34.6509 817.2835,-33.89"/>
<polygon fill="#000000" stroke="#000000" points="818.9176,-36.9953 826.6739,-29.778 816.1097,-30.5832 818.9176,-36.9953"/>
</g>
<!-- 7018 -->
<g id="node21" class="node">
<title>7018</title>
<ellipse fill="none" stroke="#000000" cx="923.5975" cy="-18" rx="28.6953" ry="18"/>
<text text-anchor="middle" x="923.5975" y="-14.3" font-family="Times,serif" font-size="14.00" fill="#000000">7018</text>
</g>
<!-- 2497&#45;&gt;7018 -->
<g id="edge13" class="edge">
<title>2497&#45;&gt;7018</title>
<path fill="none" stroke="#000000" d="M577.2902,-88.2664C636.4013,-84.0801 775.5216,-71.0427 886.5975,-36 888.4879,-35.4036 890.4033,-34.725 892.3159,-33.989"/>
<polygon fill="#000000" stroke="#000000" points="893.922,-37.1084 901.7289,-29.9459 891.1593,-30.6766 893.922,-37.1084"/>
</g>
<!-- 3356 -->
<g id="node12" class="node">
<title>3356</title>
<ellipse fill="none" stroke="#000000" cx="548.5975" cy="-162" rx="28.6953" ry="18"/>
<text text-anchor="middle" x="548.5975" y="-158.3" font-family="Times,serif" font-size="14.00" fill="#000000">3356</text>
</g>
<!-- 3356&#45;&gt;174 -->
<g id="edge14" class="edge">
<title>3356&#45;&gt;174</title>
<path fill="none" stroke="#000000" d="M520.7607,-157.4961C443.5094,-144.997 226.4657,-109.8798 139.9041,-95.8743"/>
<polygon fill="#000000" stroke="#000000" points="140.4435,-92.4162 130.0128,-94.2739 139.3254,-99.3263 140.4435,-92.4162"/>
</g>
<!-- 3356&#45;&gt;2497 -->
<g id="edge15" class="edge">
<title>3356&#45;&gt;2497</title>
<path fill="none" stroke="#000000" d="M548.5975,-143.8314C548.5975,-136.131 548.5975,-126.9743 548.5975,-118.4166"/>
<polygon fill="#000000" stroke="#000000" points="552.0976,-118.4132 548.5975,-108.4133 545.0976,-118.4133 552.0976,-118.4132"/>
</g>
<!-- 3549 -->
<g id="node14" class="node">
<title>3549</title>
<ellipse fill="none" stroke="#000000" cx="1035.5975" cy="-90" rx="28.6953" ry="18"/>
<text text-anchor="middle" x="1035.5975" y="-86.3" font-family="Times,serif" font-size="14.00" fill="#000000">3549</text>
</g>
<!-- 3356&#45;&gt;3549 -->
<g id="edge16" class="edge">
<title>3356&#45;&gt;3549</title>
<path fill="none" stroke="#000000" d="M576.5299,-157.8704C659.2262,-145.6442 902.9247,-109.6149 997.4852,-95.6347"/>
<polygon fill="#000000" stroke="#000000" points="998.094,-99.0828 1007.4746,-94.1578 997.0702,-92.1581 998.094,-99.0828"/>
</g>
<!-- 3549&#45;&gt;1273 -->
<g id="edge17" class="edge">
<title>3549&#45;&gt;1273</title>
<path fill="none" stroke="#000000" d="M1026.6408,-72.5708C1022.2778,-64.0807 1016.9396,-53.6929 1012.096,-44.2674"/>
<polygon fill="#000000" stroke="#000000" points="1015.1554,-42.5633 1007.4716,-35.2687 1008.9294,-45.7628 1015.1554,-42.5633"/>
</g>
<!-- 6762 -->
<g id="node20" class="node">
<title>6762</title>
<ellipse fill="none" stroke="#000000" cx="1073.5975" cy="-18" rx="28.6953" ry="18"/>
<text text-anchor="middle" x="1073.5975" y="-14.3" font-family="Times,serif" font-size="14.00" fill="#000000">6762</text>
</g>
<!-- 3549&#45;&gt;6762 -->
<g id="edge18" class="edge">
<title>3549&#45;&gt;6762</title>
<path fill="none" stroke="#000000" d="M1044.7962,-72.5708C1049.2771,-64.0807 1054.7596,-53.6929 1059.7341,-44.2674"/>
<polygon fill="#000000" stroke="#000000" points="1062.9111,-45.7462 1064.4834,-35.2687 1056.7204,-42.4789 1062.9111,-45.7462"/>
</g>
<!-- 30070 -->
<g id="node28" class="node">
<title>30070</title>
<ellipse fill="none" stroke="#000000" cx="1152.5975" cy="-18" rx="32.4942" ry="18"/>
<text text-anchor="middle" x="1152.5975" y="-14.3" font-family="Times,serif" font-size="14.00" fill="#000000">30070</text>
</g>
<!-- 3549&#45;&gt;30070 -->
<g id="edge19" class="edge">
<title>3549&#45;&gt;30070</title>
<path fill="none" stroke="#000000" d="M1056.2454,-77.2936C1074.4177,-66.1106 1101.1301,-49.6722 1121.8224,-36.9385"/>
<polygon fill="#000000" stroke="#000000" points="1123.8837,-39.7797 1130.566,-31.5578 1120.215,-33.8181 1123.8837,-39.7797"/>
</g>
<!-- 3597 -->
<g id="node15" class="node">
<title>3597</title>
<ellipse fill="none" stroke="#000000" cx="510.5975" cy="-306" rx="28.6953" ry="18"/>
<text text-anchor="middle" x="510.5975" y="-302.3" font-family="Times,serif" font-size="14.00" fill="#000000">3597</text>
</g>
<!-- 5692 -->
<g id="node17" class="node">
<title>5692</title>
<ellipse fill="none" stroke="#000000" cx="1004.5975" cy="-378" rx="28.6953" ry="18"/>
<text text-anchor="middle" x="1004.5975" y="-374.3" font-family="Times,serif" font-size="14.00" fill="#000000">5692</text>
</g>
<!-- 5692&#45;&gt;3597 -->
<g id="edge20" class="edge">
<title>5692&#45;&gt;3597</title>
<path fill="none" stroke="#000000" d="M976.0129,-375.8332C889.2338,-369.0637 629.8067,-347.3629 548.5975,-324 546.4315,-323.3769 544.2352,-322.6422 542.0474,-321.832"/>
<polygon fill="#000000" stroke="#000000" points="543.2078,-318.5239 532.6309,-317.9077 540.515,-324.9852 543.2078,-318.5239"/>
</g>
<!-- 10834 -->
<g id="node22" class="node">
<title>10834</title>
<ellipse fill="none" stroke="#000000" cx="589.5975" cy="-306" rx="32.4942" ry="18"/>
<text text-anchor="middle" x="589.5975" y="-302.3" font-family="Times,serif" font-size="14.00" fill="#000000">10834</text>
</g>
<!-- 5692&#45;&gt;10834 -->
<g id="edge21" class="edge">
<title>5692&#45;&gt;10834</title>
<path fill="none" stroke="#000000" d="M975.9984,-376.4071C912.8035,-372.3384 756.9382,-359.2744 631.5975,-324 629.1252,-323.3042 626.6065,-322.4966 624.0926,-321.6164"/>
<polygon fill="#000000" stroke="#000000" points="625.1197,-318.2617 614.5296,-317.946 622.6114,-324.7969 625.1197,-318.2617"/>
</g>
<!-- 11008 -->
<g id="node23" class="node">
<title>11008</title>
<ellipse fill="none" stroke="#000000" cx="672.5975" cy="-306" rx="32.4942" ry="18"/>
<text text-anchor="middle" x="672.5975" y="-302.3" font-family="Times,serif" font-size="14.00" fill="#000000">11008</text>
</g>
<!-- 5692&#45;&gt;11008 -->
<g id="edge22" class="edge">
<title>5692&#45;&gt;11008</title>
<path fill="none" stroke="#000000" d="M976.1076,-374.8151C923.5615,-368.4771 808.2025,-352.3918 714.5975,-324 712.1397,-323.2545 709.6318,-322.4097 707.1259,-321.5026"/>
<polygon fill="#000000" stroke="#000000" points="708.168,-318.1522 697.5799,-317.7737 705.621,-324.6724 708.168,-318.1522"/>
</g>
<!-- 27865 -->
<g id="node26" class="node">
<title>27865</title>
<ellipse fill="none" stroke="#000000" cx="755.5975" cy="-306" rx="32.4942" ry="18"/>
<text text-anchor="middle" x="755.5975" y="-302.3" font-family="Times,serif" font-size="14.00" fill="#000000">27865</text>
</g>
<!-- 5692&#45;&gt;27865 -->
<g id="edge23" class="edge">
<title>5692&#45;&gt;27865</title>
<path fill="none" stroke="#000000" d="M977.4202,-372.2764C937.4864,-363.5606 860.8418,-345.6654 797.5975,-324 795.1677,-323.1677 792.6808,-322.258 790.1901,-321.3038"/>
<polygon fill="#000000" stroke="#000000" points="791.2607,-317.9618 780.6771,-317.4727 788.6457,-324.455 791.2607,-317.9618"/>
</g>
<!-- 28065 -->
<g id="node27" class="node">
<title>28065</title>
<ellipse fill="none" stroke="#000000" cx="838.5975" cy="-306" rx="32.4942" ry="18"/>
<text text-anchor="middle" x="838.5975" y="-302.3" font-family="Times,serif" font-size="14.00" fill="#000000">28065</text>
</g>
<!-- 5692&#45;&gt;28065 -->
<g id="edge24" class="edge">
<title>5692&#45;&gt;28065</title>
<path fill="none" stroke="#000000" d="M980.8137,-367.6842C952.7843,-355.5268 905.9549,-335.2153 873.7384,-321.2419"/>
<polygon fill="#000000" stroke="#000000" points="874.8133,-317.8931 864.2463,-317.1248 872.0278,-324.315 874.8133,-317.8931"/>
</g>
<!-- 52317 -->
<g id="node29" class="node">
<title>52317</title>
<ellipse fill="none" stroke="#000000" cx="921.5975" cy="-306" rx="32.4942" ry="18"/>
<text text-anchor="middle" x="921.5975" y="-302.3" font-family="Times,serif" font-size="14.00" fill="#000000">52317</text>
</g>
<!-- 5692&#45;&gt;52317 -->
<g id="edge25" class="edge">
<title>5692&#45;&gt;52317</title>
<path fill="none" stroke="#000000" d="M987.8012,-363.4297C976.1114,-353.2892 960.3101,-339.5821 947.0765,-328.1023"/>
<polygon fill="#000000" stroke="#000000" points="949.0756,-325.2031 939.2282,-321.2941 944.4886,-330.4908 949.0756,-325.2031"/>
</g>
<!-- 52375 -->
<g id="node30" class="node">
<title>52375</title>
<ellipse fill="none" stroke="#000000" cx="1004.5975" cy="-306" rx="32.4942" ry="18"/>
<text text-anchor="middle" x="1004.5975" y="-302.3" font-family="Times,serif" font-size="14.00" fill="#000000">52375</text>
</g>
<!-- 5692&#45;&gt;52375 -->
<g id="edge26" class="edge">
<title>5692&#45;&gt;52375</title>
<path fill="none" stroke="#000000" d="M1004.5975,-359.8314C1004.5975,-352.131 1004.5975,-342.9743 1004.5975,-334.4166"/>
<polygon fill="#000000" stroke="#000000" points="1008.0976,-334.4132 1004.5975,-324.4133 1001.0976,-334.4133 1008.0976,-334.4132"/>
</g>
<!-- 52376 -->
<g id="node31" class="node">
<title>52376</title>
<ellipse fill="none" stroke="#000000" cx="1087.5975" cy="-306" rx="32.4942" ry="18"/>
<text text-anchor="middle" x="1087.5975" y="-302.3" font-family="Times,serif" font-size="14.00" fill="#000000">52376</text>
</g>
<!-- 5692&#45;&gt;52376 -->
<g id="edge27" class="edge">
<title>5692&#45;&gt;52376</title>
<path fill="none" stroke="#000000" d="M1021.3938,-363.4297C1033.0835,-353.2892 1048.8848,-339.5821 1062.1185,-328.1023"/>
<polygon fill="#000000" stroke="#000000" points="1064.7063,-330.4908 1069.9667,-321.2941 1060.1193,-325.2031 1064.7063,-330.4908"/>
</g>
<!-- 52380 -->
<g id="node32" class="node">
<title>52380</title>
<ellipse fill="none" stroke="#000000" cx="1170.5975" cy="-306" rx="32.4942" ry="18"/>
<text text-anchor="middle" x="1170.5975" y="-302.3" font-family="Times,serif" font-size="14.00" fill="#000000">52380</text>
</g>
<!-- 5692&#45;&gt;52380 -->
<g id="edge28" class="edge">
<title>5692&#45;&gt;52380</title>
<path fill="none" stroke="#000000" d="M1028.3812,-367.6842C1056.4107,-355.5268 1103.24,-335.2153 1135.4565,-321.2419"/>
<polygon fill="#000000" stroke="#000000" points="1137.1671,-324.315 1144.9486,-317.1248 1134.3816,-317.8931 1137.1671,-324.315"/>
</g>
<!-- 52413 -->
<g id="node33" class="node">
<title>52413</title>
<ellipse fill="none" stroke="#000000" cx="1253.5975" cy="-306" rx="32.4942" ry="18"/>
<text text-anchor="middle" x="1253.5975" y="-302.3" font-family="Times,serif" font-size="14.00" fill="#000000">52413</text>
</g>
<!-- 5692&#45;&gt;52413 -->
<g id="edge29" class="edge">
<title>5692&#45;&gt;52413</title>
<path fill="none" stroke="#000000" d="M1031.7748,-372.2764C1071.7085,-363.5606 1148.3531,-345.6654 1211.5975,-324 1214.0272,-323.1677 1216.5141,-322.258 1219.0048,-321.3038"/>
<polygon fill="#000000" stroke="#000000" points="1220.5493,-324.455 1228.5178,-317.4727 1217.9342,-317.9618 1220.5493,-324.455"/>
</g>
<!-- 52431 -->
<g id="node34" class="node">
<title>52431</title>
<ellipse fill="none" stroke="#000000" cx="1336.5975" cy="-306" rx="32.4942" ry="18"/>
<text text-anchor="middle" x="1336.5975" y="-302.3" font-family="Times,serif" font-size="14.00" fill="#000000">52431</text>
</g>
<!-- 5692&#45;&gt;52431 -->
<g id="edge30" class="edge">
<title>5692&#45;&gt;52431</title>
<path fill="none" stroke="#000000" d="M1033.0873,-374.8151C1085.6335,-368.4771 1200.9924,-352.3918 1294.5975,-324 1297.0552,-323.2545 1299.5631,-322.4097 1302.069,-321.5026"/>
<polygon fill="#000000" stroke="#000000" points="1303.5739,-324.6724 1311.615,-317.7737 1301.0269,-318.1522 1303.5739,-324.6724"/>
</g>
<!-- 262230 -->
<g id="node35" class="node">
<title>262230</title>
<ellipse fill="none" stroke="#000000" cx="1424.5975" cy="-306" rx="37.0935" ry="18"/>
<text text-anchor="middle" x="1424.5975" y="-302.3" font-family="Times,serif" font-size="14.00" fill="#000000">262230</text>
</g>
<!-- 5692&#45;&gt;262230 -->
<g id="edge31" class="edge">
<title>5692&#45;&gt;262230</title>
<path fill="none" stroke="#000000" d="M1033.0975,-376.0413C1096.0947,-371.243 1251.5904,-356.8146 1377.5975,-324 1380.726,-323.1853 1383.9321,-322.23 1387.1278,-321.1919"/>
<polygon fill="#000000" stroke="#000000" points="1388.3086,-324.4869 1396.5963,-317.8866 1386.0015,-317.878 1388.3086,-324.4869"/>
</g>
<!-- 264608 -->
<g id="node36" class="node">
<title>264608</title>
<ellipse fill="none" stroke="#000000" cx="1516.5975" cy="-306" rx="37.0935" ry="18"/>
<text text-anchor="middle" x="1516.5975" y="-302.3" font-family="Times,serif" font-size="14.00" fill="#000000">264608</text>
</g>
<!-- 5692&#45;&gt;264608 -->
<g id="edge32" class="edge">
<title>5692&#45;&gt;264608</title>
<path fill="none" stroke="#000000" d="M1033.4231,-377.2303C1107.2246,-374.71 1308.5895,-364.3639 1470.5975,-324 1473.4059,-323.3003 1476.2734,-322.4722 1479.1355,-321.5618"/>
<polygon fill="#000000" stroke="#000000" points="1480.4576,-324.8076 1488.7522,-318.216 1478.1574,-318.1963 1480.4576,-324.8076"/>
</g>
<!-- 12956 -->
<g id="node24" class="node">
<title>12956</title>
<ellipse fill="none" stroke="#000000" cx="548.5975" cy="-234" rx="32.4942" ry="18"/>
<text text-anchor="middle" x="548.5975" y="-230.3" font-family="Times,serif" font-size="14.00" fill="#000000">12956</text>
</g>
<!-- 10834&#45;&gt;12956 -->
<g id="edge33" class="edge">
<title>10834&#45;&gt;12956</title>
<path fill="none" stroke="#000000" d="M579.6725,-288.5708C574.7875,-279.9922 568.7992,-269.4762 563.3877,-259.9732"/>
<polygon fill="#000000" stroke="#000000" points="566.4209,-258.2266 558.431,-251.2687 560.338,-261.6905 566.4209,-258.2266"/>
</g>
<!-- 22927 -->
<g id="node25" class="node">
<title>22927</title>
<ellipse fill="none" stroke="#000000" cx="631.5975" cy="-234" rx="32.4942" ry="18"/>
<text text-anchor="middle" x="631.5975" y="-230.3" font-family="Times,serif" font-size="14.00" fill="#000000">22927</text>
</g>
<!-- 10834&#45;&gt;22927 -->
<g id="edge34" class="edge">
<title>10834&#45;&gt;22927</title>
<path fill="none" stroke="#000000" d="M599.7645,-288.5708C604.7687,-279.9922 610.903,-269.4762 616.4464,-259.9732"/>
<polygon fill="#000000" stroke="#000000" points="619.5085,-261.6701 621.5241,-251.2687 613.4621,-258.1429 619.5085,-261.6701"/>
</g>
<!-- 12956&#45;&gt;3356 -->
<g id="edge35" class="edge">
<title>12956&#45;&gt;3356</title>
<path fill="none" stroke="#000000" d="M548.5975,-215.8314C548.5975,-208.131 548.5975,-198.9743 548.5975,-190.4166"/>
<polygon fill="#000000" stroke="#000000" points="552.0976,-190.4132 548.5975,-180.4133 545.0976,-190.4133 552.0976,-190.4132"/>
</g>
</g>
</svg>
