<?xml version="1.0" encoding="UTF-8" standalone="no"?>
<!DOCTYPE svg PUBLIC "-//W3C//DTD SVG 1.1//EN"
 "http://www.w3.org/Graphics/SVG/1.1/DTD/svg11.dtd">
<!-- Generated by graphviz version 2.40.1 (20161225.0304)
 -->
<!-- Title: %3 Pages: 1 -->
<svg width="589pt" height="475pt"
 viewBox="0.00 0.00 589.23 475.37" xmlns="http://www.w3.org/2000/svg" xmlns:xlink="http://www.w3.org/1999/xlink">
<g id="graph0" class="graph" transform="scale(1 1) rotate(0) translate(4 471.3664)">
<title>%3</title>
<polygon fill="#ffffff" stroke="transparent" points="-4,4 -4,-471.3664 585.2307,-471.3664 585.2307,4 -4,4"/>
<!-- 174 -->
<g id="node1" class="node">
<title>174</title>
<ellipse fill="none" stroke="#000000" cx="328.1889" cy="-321.0555" rx="27" ry="18"/>
<text text-anchor="middle" x="328.1889" y="-317.3555" font-family="Times,serif" font-size="14.00" fill="#000000">174</text>
</g>
<!-- 2828 -->
<g id="node8" class="node">
<title>2828</title>
<ellipse fill="none" stroke="#000000" cx="401.0281" cy="-321.1468" rx="28.6953" ry="18"/>
<text text-anchor="middle" x="401.0281" y="-317.4468" font-family="Times,serif" font-size="14.00" fill="#000000">2828</text>
</g>
<!-- 174&#45;&gt;2828 -->
<g id="edge1" class="edge">
<title>174&#45;&gt;2828</title>
<path fill="none" stroke="#000000" d="M355.3116,-321.0895C357.5463,-321.0923 359.8311,-321.0951 362.1291,-321.098"/>
<polygon fill="#000000" stroke="#000000" points="362.1704,-324.598 372.1748,-321.1106 362.1792,-317.598 362.1704,-324.598"/>
</g>
<!-- 5511 -->
<g id="node16" class="node">
<title>5511</title>
<ellipse fill="none" stroke="#000000" cx="394.3343" cy="-351.557" rx="28.6953" ry="18"/>
<text text-anchor="middle" x="394.3343" y="-347.857" font-family="Times,serif" font-size="14.00" fill="#000000">5511</text>
</g>
<!-- 174&#45;&gt;5511 -->
<g id="edge2" class="edge">
<title>174&#45;&gt;5511</title>
<path fill="none" stroke="#000000" d="M350.5828,-331.3819C354.1901,-333.0454 357.9874,-334.7964 361.7756,-336.5433"/>
<polygon fill="#000000" stroke="#000000" points="360.5138,-339.8156 371.0605,-340.8248 363.4451,-333.4589 360.5138,-339.8156"/>
</g>
<!-- 209 -->
<g id="node2" class="node">
<title>209</title>
<ellipse fill="none" stroke="#000000" cx="381.2597" cy="-379.8174" rx="27" ry="18"/>
<text text-anchor="middle" x="381.2597" y="-376.1174" font-family="Times,serif" font-size="14.00" fill="#000000">209</text>
</g>
<!-- 701 -->
<g id="node3" class="node">
<title>701</title>
<ellipse fill="none" stroke="#000000" cx="362.4156" cy="-404.6063" rx="27" ry="18"/>
<text text-anchor="middle" x="362.4156" y="-400.9063" font-family="Times,serif" font-size="14.00" fill="#000000">701</text>
</g>
<!-- 1239 -->
<g id="node4" class="node">
<title>1239</title>
<ellipse fill="none" stroke="#000000" cx="338.6832" cy="-424.7648" rx="28.6953" ry="18"/>
<text text-anchor="middle" x="338.6832" y="-421.0648" font-family="Times,serif" font-size="14.00" fill="#000000">1239</text>
</g>
<!-- 1273 -->
<g id="node5" class="node">
<title>1273</title>
<ellipse fill="none" stroke="#000000" cx="117.2389" cy="-336.5334" rx="28.6953" ry="18"/>
<text text-anchor="middle" x="117.2389" y="-332.8334" font-family="Times,serif" font-size="14.00" fill="#000000">1273</text>
</g>
<!-- 1299 -->
<g id="node6" class="node">
<title>1299</title>
<ellipse fill="none" stroke="#000000" cx="311.1722" cy="-439.3503" rx="28.6953" ry="18"/>
<text text-anchor="middle" x="311.1722" y="-435.6503" font-family="Times,serif" font-size="14.00" fill="#000000">1299</text>
</g>
<!-- 2497 -->
<g id="node7" class="node">
<title>2497</title>
<ellipse fill="none" stroke="#000000" cx="253.9743" cy="-377.472" rx="28.6953" ry="18"/>
<text text-anchor="middle" x="253.9743" y="-373.772" font-family="Times,serif" font-size="14.00" fill="#000000">2497</text>
</g>
<!-- 2497&#45;&gt;209 -->
<g id="edge3" class="edge">
<title>2497&#45;&gt;209</title>
<path fill="none" stroke="#000000" d="M282.8573,-378.0042C301.0123,-378.3387 324.6109,-378.7736 344.1472,-379.1335"/>
<polygon fill="#000000" stroke="#000000" points="344.1689,-382.6344 354.2317,-379.3194 344.2979,-375.6356 344.1689,-382.6344"/>
</g>
<!-- 2497&#45;&gt;701 -->
<g id="edge4" class="edge">
<title>2497&#45;&gt;701</title>
<path fill="none" stroke="#000000" d="M280.78,-384.1794C294.743,-387.6732 311.9977,-391.9907 327.0417,-395.755"/>
<polygon fill="#000000" stroke="#000000" points="326.4853,-399.2237 337.0359,-398.2558 328.1846,-392.433 326.4853,-399.2237"/>
</g>
<!-- 2497&#45;&gt;1239 -->
<g id="edge5" class="edge">
<title>2497&#45;&gt;1239</title>
<path fill="none" stroke="#000000" d="M275.7889,-389.6511C285.7463,-395.2103 297.702,-401.8852 308.5034,-407.9155"/>
<polygon fill="#000000" stroke="#000000" points="306.7981,-410.972 317.2357,-412.7908 310.2105,-404.86 306.7981,-410.972"/>
</g>
<!-- 2497&#45;&gt;1299 -->
<g id="edge6" class="edge">
<title>2497&#45;&gt;1299</title>
<path fill="none" stroke="#000000" d="M268.4077,-393.0865C274.8611,-400.068 282.602,-408.4423 289.7136,-416.1358"/>
<polygon fill="#000000" stroke="#000000" points="287.1863,-418.558 296.5444,-423.5255 292.3266,-413.8064 287.1863,-418.558"/>
</g>
<!-- 2914 -->
<g id="node9" class="node">
<title>2914</title>
<ellipse fill="none" stroke="#000000" cx="281.1689" cy="-447.6806" rx="28.6953" ry="18"/>
<text text-anchor="middle" x="281.1689" y="-443.9806" font-family="Times,serif" font-size="14.00" fill="#000000">2914</text>
</g>
<!-- 2497&#45;&gt;2914 -->
<g id="edge7" class="edge">
<title>2497&#45;&gt;2914</title>
<path fill="none" stroke="#000000" d="M260.8366,-395.1886C263.777,-402.78 267.2796,-411.8226 270.5423,-420.2459"/>
<polygon fill="#000000" stroke="#000000" points="267.3384,-421.6648 274.2141,-429.7255 273.8659,-419.1364 267.3384,-421.6648"/>
</g>
<!-- 3257 -->
<g id="node10" class="node">
<title>3257</title>
<ellipse fill="none" stroke="#000000" cx="250.0763" cy="-449.3664" rx="28.6953" ry="18"/>
<text text-anchor="middle" x="250.0763" y="-445.6664" font-family="Times,serif" font-size="14.00" fill="#000000">3257</text>
</g>
<!-- 2497&#45;&gt;3257 -->
<g id="edge8" class="edge">
<title>2497&#45;&gt;3257</title>
<path fill="none" stroke="#000000" d="M252.9906,-395.614C252.5737,-403.3031 252.078,-412.4463 251.6147,-420.9915"/>
<polygon fill="#000000" stroke="#000000" points="248.1198,-420.8053 251.0731,-430.9802 255.1095,-421.1844 248.1198,-420.8053"/>
</g>
<!-- 3320 -->
<g id="node11" class="node">
<title>3320</title>
<ellipse fill="none" stroke="#000000" cx="219.3482" cy="-444.3288" rx="28.6953" ry="18"/>
<text text-anchor="middle" x="219.3482" y="-440.6288" font-family="Times,serif" font-size="14.00" fill="#000000">3320</text>
</g>
<!-- 2497&#45;&gt;3320 -->
<g id="edge9" class="edge">
<title>2497&#45;&gt;3320</title>
<path fill="none" stroke="#000000" d="M245.0572,-394.6893C241.4103,-401.7309 237.1075,-410.0387 233.0761,-417.8227"/>
<polygon fill="#000000" stroke="#000000" points="229.8465,-416.4481 228.3554,-426.9375 236.0623,-419.6674 229.8465,-416.4481"/>
</g>
<!-- 3491 -->
<g id="node13" class="node">
<title>3491</title>
<ellipse fill="none" stroke="#000000" cx="190.4214" cy="-432.8034" rx="28.6953" ry="18"/>
<text text-anchor="middle" x="190.4214" y="-429.1034" font-family="Times,serif" font-size="14.00" fill="#000000">3491</text>
</g>
<!-- 2497&#45;&gt;3491 -->
<g id="edge10" class="edge">
<title>2497&#45;&gt;3491</title>
<path fill="none" stroke="#000000" d="M236.9433,-392.2998C230.2469,-398.1299 222.4281,-404.9373 215.1326,-411.289"/>
<polygon fill="#000000" stroke="#000000" points="212.7433,-408.7285 207.4994,-417.9346 217.3398,-414.008 212.7433,-408.7285"/>
</g>
<!-- 6453 -->
<g id="node18" class="node">
<title>6453</title>
<ellipse fill="none" stroke="#000000" cx="164.6486" cy="-415.329" rx="28.6953" ry="18"/>
<text text-anchor="middle" x="164.6486" y="-411.629" font-family="Times,serif" font-size="14.00" fill="#000000">6453</text>
</g>
<!-- 2497&#45;&gt;6453 -->
<g id="edge11" class="edge">
<title>2497&#45;&gt;6453</title>
<path fill="none" stroke="#000000" d="M230.0366,-387.617C220.2242,-391.7756 208.6969,-396.661 198.0761,-401.1621"/>
<polygon fill="#000000" stroke="#000000" points="196.4938,-398.0313 188.6523,-405.156 199.2254,-404.4764 196.4938,-398.0313"/>
</g>
<!-- 6461 -->
<g id="node19" class="node">
<title>6461</title>
<ellipse fill="none" stroke="#000000" cx="143.2349" cy="-392.7227" rx="28.6953" ry="18"/>
<text text-anchor="middle" x="143.2349" y="-389.0227" font-family="Times,serif" font-size="14.00" fill="#000000">6461</text>
</g>
<!-- 2497&#45;&gt;6461 -->
<g id="edge12" class="edge">
<title>2497&#45;&gt;6461</title>
<path fill="none" stroke="#000000" d="M226.03,-381.3204C212.6247,-383.1666 196.3499,-385.4079 181.7893,-387.4131"/>
<polygon fill="#000000" stroke="#000000" points="180.9843,-383.9909 171.5553,-388.8225 181.9394,-390.9254 180.9843,-383.9909"/>
</g>
<!-- 7018 -->
<g id="node21" class="node">
<title>7018</title>
<ellipse fill="none" stroke="#000000" cx="127.1814" cy="-366.0417" rx="28.6953" ry="18"/>
<text text-anchor="middle" x="127.1814" y="-362.3417" font-family="Times,serif" font-size="14.00" fill="#000000">7018</text>
</g>
<!-- 2497&#45;&gt;7018 -->
<g id="edge13" class="edge">
<title>2497&#45;&gt;7018</title>
<path fill="none" stroke="#000000" d="M225.5195,-374.9068C207.8189,-373.3111 184.8334,-371.239 165.5362,-369.4993"/>
<polygon fill="#000000" stroke="#000000" points="165.8151,-366.0104 155.5412,-368.5983 165.1866,-372.9821 165.8151,-366.0104"/>
</g>
<!-- 3356 -->
<g id="node12" class="node">
<title>3356</title>
<ellipse fill="none" stroke="#000000" cx="257.8723" cy="-305.5776" rx="28.6953" ry="18"/>
<text text-anchor="middle" x="257.8723" y="-301.8776" font-family="Times,serif" font-size="14.00" fill="#000000">3356</text>
</g>
<!-- 3356&#45;&gt;174 -->
<g id="edge14" class="edge">
<title>3356&#45;&gt;174</title>
<path fill="none" stroke="#000000" d="M285.2599,-311.6061C287.5158,-312.1026 289.8166,-312.6091 292.1226,-313.1167"/>
<polygon fill="#000000" stroke="#000000" points="291.6244,-316.5907 302.143,-315.3223 293.1292,-309.7544 291.6244,-316.5907"/>
</g>
<!-- 3356&#45;&gt;2497 -->
<g id="edge15" class="edge">
<title>3356&#45;&gt;2497</title>
<path fill="none" stroke="#000000" d="M256.8886,-323.7196C256.4717,-331.4087 255.976,-340.5519 255.5127,-349.0971"/>
<polygon fill="#000000" stroke="#000000" points="252.0178,-348.9109 254.9711,-359.0858 259.0075,-349.29 252.0178,-348.9109"/>
</g>
<!-- 3549 -->
<g id="node14" class="node">
<title>3549</title>
<ellipse fill="none" stroke="#000000" cx="185.8723" cy="-305.5776" rx="28.6953" ry="18"/>
<text text-anchor="middle" x="185.8723" y="-301.8776" font-family="Times,serif" font-size="14.00" fill="#000000">3549</text>
</g>
<!-- 3356&#45;&gt;3549 -->
<g id="edge16" class="edge">
<title>3356&#45;&gt;3549</title>
<path fill="none" stroke="#000000" d="M229.002,-305.5776C227.6816,-305.5776 226.3478,-305.5776 225.0083,-305.5776"/>
<polygon fill="#000000" stroke="#000000" points="224.7491,-302.0777 214.749,-305.5776 224.749,-309.0777 224.7491,-302.0777"/>
</g>
<!-- 3549&#45;&gt;1273 -->
<g id="edge17" class="edge">
<title>3549&#45;&gt;1273</title>
<path fill="none" stroke="#000000" d="M162.2526,-316.2308C158.3265,-318.0016 154.1929,-319.866 150.0874,-321.7177"/>
<polygon fill="#000000" stroke="#000000" points="148.3463,-318.6634 140.6697,-325.9654 151.2244,-325.0444 148.3463,-318.6634"/>
</g>
<!-- 6762 -->
<g id="node20" class="node">
<title>6762</title>
<ellipse fill="none" stroke="#000000" cx="113.8723" cy="-305.5776" rx="28.6953" ry="18"/>
<text text-anchor="middle" x="113.8723" y="-301.8776" font-family="Times,serif" font-size="14.00" fill="#000000">6762</text>
</g>
<!-- 3549&#45;&gt;6762 -->
<g id="edge18" class="edge">
<title>3549&#45;&gt;6762</title>
<path fill="none" stroke="#000000" d="M157.002,-305.5776C155.6816,-305.5776 154.3478,-305.5776 153.0083,-305.5776"/>
<polygon fill="#000000" stroke="#000000" points="152.7491,-302.0777 142.749,-305.5776 152.749,-309.0777 152.7491,-302.0777"/>
</g>
<!-- 30070 -->
<g id="node28" class="node">
<title>30070</title>
<ellipse fill="none" stroke="#000000" cx="117.2389" cy="-274.6219" rx="32.4942" ry="18"/>
<text text-anchor="middle" x="117.2389" y="-270.9219" font-family="Times,serif" font-size="14.00" fill="#000000">30070</text>
</g>
<!-- 3549&#45;&gt;30070 -->
<g id="edge19" class="edge">
<title>3549&#45;&gt;30070</title>
<path fill="none" stroke="#000000" d="M162.2526,-294.9244C158.8742,-293.4007 155.3422,-291.8076 151.8066,-290.213"/>
<polygon fill="#000000" stroke="#000000" points="153.0973,-286.9556 142.5426,-286.0346 150.2193,-293.3366 153.0973,-286.9556"/>
</g>
<!-- 3597 -->
<g id="node15" class="node">
<title>3597</title>
<ellipse fill="none" stroke="#000000" cx="28.5975" cy="-131.2874" rx="28.6953" ry="18"/>
<text text-anchor="middle" x="28.5975" y="-127.5874" font-family="Times,serif" font-size="14.00" fill="#000000">3597</text>
</g>
<!-- 5692 -->
<g id="node17" class="node">
<title>5692</title>
<ellipse fill="none" stroke="#000000" cx="315.6584" cy="-97.4508" rx="28.6953" ry="18"/>
<text text-anchor="middle" x="315.6584" y="-93.7508" font-family="Times,serif" font-size="14.00" fill="#000000">5692</text>
</g>
<!-- 5692&#45;&gt;3597 -->
<g id="edge20" class="edge">
<title>5692&#45;&gt;3597</title>
<path fill="none" stroke="#000000" d="M287.3483,-100.7878C235.5752,-106.8904 125.5872,-119.855 67.0782,-126.7516"/>
<polygon fill="#000000" stroke="#000000" points="66.6413,-123.2788 57.1198,-127.9254 67.4608,-130.2307 66.6413,-123.2788"/>
</g>
<!-- 10834 -->
<g id="node22" class="node">
<title>10834</title>
<ellipse fill="none" stroke="#000000" cx="281.1689" cy="-163.4746" rx="32.4942" ry="18"/>
<text text-anchor="middle" x="281.1689" y="-159.7746" font-family="Times,serif" font-size="14.00" fill="#000000">10834</text>
</g>
<!-- 5692&#45;&gt;10834 -->
<g id="edge21" class="edge">
<title>5692&#45;&gt;10834</title>
<path fill="none" stroke="#000000" d="M306.5967,-114.7978C303.0603,-121.5675 298.9263,-129.4814 295.0318,-136.9367"/>
<polygon fill="#000000" stroke="#000000" points="291.8178,-135.5302 290.2898,-146.0143 298.0222,-138.7713 291.8178,-135.5302"/>
</g>
<!-- 11008 -->
<g id="node23" class="node">
<title>11008</title>
<ellipse fill="none" stroke="#000000" cx="71.425" cy="-86.075" rx="32.4942" ry="18"/>
<text text-anchor="middle" x="71.425" y="-82.375" font-family="Times,serif" font-size="14.00" fill="#000000">11008</text>
</g>
<!-- 5692&#45;&gt;11008 -->
<g id="edge22" class="edge">
<title>5692&#45;&gt;11008</title>
<path fill="none" stroke="#000000" d="M286.6825,-96.1012C243.8608,-94.1066 163.419,-90.3598 113.9197,-88.0543"/>
<polygon fill="#000000" stroke="#000000" points="114.0035,-84.5545 103.8514,-87.5853 113.6777,-91.5469 114.0035,-84.5545"/>
</g>
<!-- 27865 -->
<g id="node26" class="node">
<title>27865</title>
<ellipse fill="none" stroke="#000000" cx="122.9706" cy="-51.1262" rx="32.4942" ry="18"/>
<text text-anchor="middle" x="122.9706" y="-47.4262" font-family="Times,serif" font-size="14.00" fill="#000000">27865</text>
</g>
<!-- 5692&#45;&gt;27865 -->
<g id="edge23" class="edge">
<title>5692&#45;&gt;27865</title>
<path fill="none" stroke="#000000" d="M288.866,-91.0096C256.2558,-83.1697 200.8824,-69.8572 163.1574,-60.7876"/>
<polygon fill="#000000" stroke="#000000" points="163.5597,-57.2846 153.0186,-58.3501 161.9234,-64.0907 163.5597,-57.2846"/>
</g>
<!-- 28065 -->
<g id="node27" class="node">
<title>28065</title>
<ellipse fill="none" stroke="#000000" cx="180.8241" cy="-28.0752" rx="32.4942" ry="18"/>
<text text-anchor="middle" x="180.8241" y="-24.3752" font-family="Times,serif" font-size="14.00" fill="#000000">28065</text>
</g>
<!-- 5692&#45;&gt;28065 -->
<g id="edge24" class="edge">
<title>5692&#45;&gt;28065</title>
<path fill="none" stroke="#000000" d="M293.3932,-85.9949C271.7713,-74.8698 238.6816,-57.8444 213.9656,-45.1274"/>
<polygon fill="#000000" stroke="#000000" points="215.4377,-41.9487 204.9444,-40.4857 212.2351,-48.1731 215.4377,-41.9487"/>
</g>
<!-- 52317 -->
<g id="node29" class="node">
<title>52317</title>
<ellipse fill="none" stroke="#000000" cx="242.2803" cy="-18" rx="32.4942" ry="18"/>
<text text-anchor="middle" x="242.2803" y="-14.3" font-family="Times,serif" font-size="14.00" fill="#000000">52317</text>
</g>
<!-- 5692&#45;&gt;52317 -->
<g id="edge25" class="edge">
<title>5692&#45;&gt;52317</title>
<path fill="none" stroke="#000000" d="M301.1612,-81.7539C290.6464,-70.3689 276.2363,-54.7662 264.3037,-41.8461"/>
<polygon fill="#000000" stroke="#000000" points="266.607,-39.1814 257.2511,-34.2098 261.4647,-43.9307 266.607,-39.1814"/>
</g>
<!-- 52375 -->
<g id="node30" class="node">
<title>52375</title>
<ellipse fill="none" stroke="#000000" cx="304.4655" cy="-21.3716" rx="32.4942" ry="18"/>
<text text-anchor="middle" x="304.4655" y="-17.6716" font-family="Times,serif" font-size="14.00" fill="#000000">52375</text>
</g>
<!-- 5692&#45;&gt;52375 -->
<g id="edge26" class="edge">
<title>5692&#45;&gt;52375</title>
<path fill="none" stroke="#000000" d="M313.0058,-79.4211C311.6912,-70.4853 310.0736,-59.4902 308.601,-49.4812"/>
<polygon fill="#000000" stroke="#000000" points="312.0562,-48.9196 307.1378,-39.5355 305.1307,-49.9385 312.0562,-48.9196"/>
</g>
<!-- 52376 -->
<g id="node31" class="node">
<title>52376</title>
<ellipse fill="none" stroke="#000000" cx="364.4721" cy="-38.0323" rx="32.4942" ry="18"/>
<text text-anchor="middle" x="364.4721" y="-34.3323" font-family="Times,serif" font-size="14.00" fill="#000000">52376</text>
</g>
<!-- 5692&#45;&gt;52376 -->
<g id="edge27" class="edge">
<title>5692&#45;&gt;52376</title>
<path fill="none" stroke="#000000" d="M328.9969,-81.2145C333.7604,-75.4161 339.2376,-68.749 344.4405,-62.4158"/>
<polygon fill="#000000" stroke="#000000" points="347.1664,-64.6114 350.8098,-54.6627 341.7575,-60.1679 347.1664,-64.6114"/>
</g>
<!-- 52380 -->
<g id="node32" class="node">
<title>52380</title>
<ellipse fill="none" stroke="#000000" cx="419.4941" cy="-67.2032" rx="32.4942" ry="18"/>
<text text-anchor="middle" x="419.4941" y="-63.5032" font-family="Times,serif" font-size="14.00" fill="#000000">52380</text>
</g>
<!-- 5692&#45;&gt;52380 -->
<g id="edge28" class="edge">
<title>5692&#45;&gt;52380</title>
<path fill="none" stroke="#000000" d="M341.8605,-89.8181C353.6379,-86.3873 367.7773,-82.2685 380.7435,-78.4914"/>
<polygon fill="#000000" stroke="#000000" points="381.7495,-81.8439 390.3716,-75.6867 379.7917,-75.1232 381.7495,-81.8439"/>
</g>
<!-- 52413 -->
<g id="node33" class="node">
<title>52413</title>
<ellipse fill="none" stroke="#000000" cx="466.959" cy="-107.5202" rx="32.4942" ry="18"/>
<text text-anchor="middle" x="466.959" y="-103.8202" font-family="Times,serif" font-size="14.00" fill="#000000">52413</text>
</g>
<!-- 5692&#45;&gt;52413 -->
<g id="edge29" class="edge">
<title>5692&#45;&gt;52413</title>
<path fill="none" stroke="#000000" d="M344.1169,-99.3448C366.6876,-100.8469 398.59,-102.9701 424.2268,-104.6763"/>
<polygon fill="#000000" stroke="#000000" points="424.2153,-108.1832 434.4257,-105.355 424.6802,-101.1986 424.2153,-108.1832"/>
</g>
<!-- 52431 -->
<g id="node34" class="node">
<title>52431</title>
<ellipse fill="none" stroke="#000000" cx="504.6471" cy="-157.0981" rx="32.4942" ry="18"/>
<text text-anchor="middle" x="504.6471" y="-153.3981" font-family="Times,serif" font-size="14.00" fill="#000000">52431</text>
</g>
<!-- 5692&#45;&gt;52431 -->
<g id="edge30" class="edge">
<title>5692&#45;&gt;52431</title>
<path fill="none" stroke="#000000" d="M341.5402,-105.6195C373.7894,-115.7977 429.1713,-133.277 466.3403,-145.008"/>
<polygon fill="#000000" stroke="#000000" points="465.7167,-148.4813 476.3065,-148.1534 467.8236,-141.8059 465.7167,-148.4813"/>
</g>
<!-- 262230 -->
<g id="node35" class="node">
<title>262230</title>
<ellipse fill="none" stroke="#000000" cx="530.7964" cy="-213.6188" rx="37.0935" ry="18"/>
<text text-anchor="middle" x="530.7964" y="-209.9188" font-family="Times,serif" font-size="14.00" fill="#000000">262230</text>
</g>
<!-- 5692&#45;&gt;262230 -->
<g id="edge31" class="edge">
<title>5692&#45;&gt;262230</title>
<path fill="none" stroke="#000000" d="M337.4709,-109.2289C375.0695,-129.531 452.3334,-171.2512 496.9606,-195.3485"/>
<polygon fill="#000000" stroke="#000000" points="495.5001,-198.5375 505.9622,-200.2091 498.826,-192.378 495.5001,-198.5375"/>
</g>
<!-- 264608 -->
<g id="node36" class="node">
<title>264608</title>
<ellipse fill="none" stroke="#000000" cx="544.184" cy="-274.4393" rx="37.0935" ry="18"/>
<text text-anchor="middle" x="544.184" y="-270.7393" font-family="Times,serif" font-size="14.00" fill="#000000">264608</text>
</g>
<!-- 5692&#45;&gt;264608 -->
<g id="edge32" class="edge">
<title>5692&#45;&gt;264608</title>
<path fill="none" stroke="#000000" d="M333.9733,-111.6354C373.9395,-142.5884 469.1753,-216.3466 516.5051,-253.0026"/>
<polygon fill="#000000" stroke="#000000" points="514.4406,-255.8306 524.4899,-259.1866 518.7268,-250.2963 514.4406,-255.8306"/>
</g>
<!-- 12956 -->
<g id="node24" class="node">
<title>12956</title>
<ellipse fill="none" stroke="#000000" cx="269.5206" cy="-234.5261" rx="32.4942" ry="18"/>
<text text-anchor="middle" x="269.5206" y="-230.8261" font-family="Times,serif" font-size="14.00" fill="#000000">12956</text>
</g>
<!-- 10834&#45;&gt;12956 -->
<g id="edge33" class="edge">
<title>10834&#45;&gt;12956</title>
<path fill="none" stroke="#000000" d="M278.2295,-181.4039C276.9837,-189.0029 275.5024,-198.0388 274.1179,-206.4838"/>
<polygon fill="#000000" stroke="#000000" points="270.6635,-205.9209 272.4995,-216.3554 277.5713,-207.0534 270.6635,-205.9209"/>
</g>
<!-- 22927 -->
<g id="node25" class="node">
<title>22927</title>
<ellipse fill="none" stroke="#000000" cx="61.836" cy="-214.8816" rx="32.4942" ry="18"/>
<text text-anchor="middle" x="61.836" y="-211.1816" font-family="Times,serif" font-size="14.00" fill="#000000">22927</text>
</g>
<!-- 10834&#45;&gt;22927 -->
<g id="edge34" class="edge">
<title>10834&#45;&gt;22927</title>
<path fill="none" stroke="#000000" d="M251.1315,-170.5147C212.3555,-179.603 144.7629,-195.4453 101.7144,-205.5349"/>
<polygon fill="#000000" stroke="#000000" points="100.7992,-202.1545 91.8617,-207.8442 102.3966,-208.9698 100.7992,-202.1545"/>
</g>
<!-- 12956&#45;&gt;3356 -->
<g id="edge35" class="edge">
<title>12956&#45;&gt;3356</title>
<path fill="none" stroke="#000000" d="M266.5812,-252.4554C265.3354,-260.0544 263.854,-269.0904 262.4696,-277.5353"/>
<polygon fill="#000000" stroke="#000000" points="259.0152,-276.9724 260.8512,-287.4069 265.923,-278.1049 259.0152,-276.9724"/>
</g>
</g>
</svg>
