<?xml version="1.0" encoding="UTF-8" standalone="no"?>
<!DOCTYPE svg PUBLIC "-//W3C//DTD SVG 1.1//EN"
 "http://www.w3.org/Graphics/SVG/1.1/DTD/svg11.dtd">
<!-- Generated by graphviz version 2.40.1 (20161225.0304)
 -->
<!-- Title: %3 Pages: 1 -->
<svg width="583pt" height="422pt"
 viewBox="0.00 0.00 583.22 421.91" xmlns="http://www.w3.org/2000/svg" xmlns:xlink="http://www.w3.org/1999/xlink">
<g id="graph0" class="graph" transform="scale(1 1) rotate(0) translate(4 417.9145)">
<title>%3</title>
<polygon fill="#ffffff" stroke="transparent" points="-4,4 -4,-417.9145 579.2223,-417.9145 579.2223,4 -4,4"/>
<!-- 174 -->
<g id="node1" class="node">
<title>174</title>
<ellipse fill="none" stroke="#000000" cx="261.1417" cy="-113.7018" rx="27" ry="18"/>
<text text-anchor="middle" x="261.1417" y="-110.0018" font-family="Times,serif" font-size="14.00" fill="#000000">174</text>
</g>
<!-- 2828 -->
<g id="node8" class="node">
<title>2828</title>
<ellipse fill="none" stroke="#000000" cx="318.7761" cy="-50.4422" rx="28.6953" ry="18"/>
<text text-anchor="middle" x="318.7761" y="-46.7422" font-family="Times,serif" font-size="14.00" fill="#000000">2828</text>
</g>
<!-- 174&#45;&gt;2828 -->
<g id="edge1" class="edge">
<title>174&#45;&gt;2828</title>
<path fill="none" stroke="#000000" d="M275.3884,-98.0646C281.9886,-90.8202 289.9727,-82.0569 297.2832,-74.0329"/>
<polygon fill="#000000" stroke="#000000" points="300.1454,-76.0882 304.293,-66.3389 294.971,-71.3738 300.1454,-76.0882"/>
</g>
<!-- 5511 -->
<g id="node16" class="node">
<title>5511</title>
<ellipse fill="none" stroke="#000000" cx="274.5368" cy="-18" rx="28.6953" ry="18"/>
<text text-anchor="middle" x="274.5368" y="-14.3" font-family="Times,serif" font-size="14.00" fill="#000000">5511</text>
</g>
<!-- 174&#45;&gt;5511 -->
<g id="edge2" class="edge">
<title>174&#45;&gt;5511</title>
<path fill="none" stroke="#000000" d="M263.6612,-95.701C265.6133,-81.7543 268.3538,-62.1748 270.5954,-46.1598"/>
<polygon fill="#000000" stroke="#000000" points="274.063,-46.6341 271.9831,-36.2454 267.1306,-45.6637 274.063,-46.6341"/>
</g>
<!-- 209 -->
<g id="node2" class="node">
<title>209</title>
<ellipse fill="none" stroke="#000000" cx="172.2404" cy="-123.6455" rx="27" ry="18"/>
<text text-anchor="middle" x="172.2404" y="-119.9455" font-family="Times,serif" font-size="14.00" fill="#000000">209</text>
</g>
<!-- 701 -->
<g id="node3" class="node">
<title>701</title>
<ellipse fill="none" stroke="#000000" cx="81.7683" cy="-54.1181" rx="27" ry="18"/>
<text text-anchor="middle" x="81.7683" y="-50.4181" font-family="Times,serif" font-size="14.00" fill="#000000">701</text>
</g>
<!-- 1239 -->
<g id="node4" class="node">
<title>1239</title>
<ellipse fill="none" stroke="#000000" cx="74.8509" cy="-202.5186" rx="28.6953" ry="18"/>
<text text-anchor="middle" x="74.8509" y="-198.8186" font-family="Times,serif" font-size="14.00" fill="#000000">1239</text>
</g>
<!-- 1273 -->
<g id="node5" class="node">
<title>1273</title>
<ellipse fill="none" stroke="#000000" cx="157.9435" cy="-363.0231" rx="28.6953" ry="18"/>
<text text-anchor="middle" x="157.9435" y="-359.3231" font-family="Times,serif" font-size="14.00" fill="#000000">1273</text>
</g>
<!-- 1299 -->
<g id="node6" class="node">
<title>1299</title>
<ellipse fill="none" stroke="#000000" cx="52.8148" cy="-115.4214" rx="28.6953" ry="18"/>
<text text-anchor="middle" x="52.8148" y="-111.7214" font-family="Times,serif" font-size="14.00" fill="#000000">1299</text>
</g>
<!-- 2497 -->
<g id="node7" class="node">
<title>2497</title>
<ellipse fill="none" stroke="#000000" cx="120.1045" cy="-131.8966" rx="28.6953" ry="18"/>
<text text-anchor="middle" x="120.1045" y="-128.1966" font-family="Times,serif" font-size="14.00" fill="#000000">2497</text>
</g>
<!-- 2497&#45;&gt;209 -->
<g id="edge3" class="edge">
<title>2497&#45;&gt;209</title>
<path fill="none" stroke="#000000" d="M148.004,-127.4812C148.0524,-127.4736 148.1008,-127.4659 148.1492,-127.4582"/>
<polygon fill="#000000" stroke="#000000" points="138.9664,-132.4612 148.2944,-127.4353 137.8682,-125.5471 138.9664,-132.4612"/>
</g>
<!-- 2497&#45;&gt;701 -->
<g id="edge4" class="edge">
<title>2497&#45;&gt;701</title>
<path fill="none" stroke="#000000" d="M111.5965,-114.635C106.6332,-104.5653 100.2718,-91.659 94.6996,-80.3538"/>
<polygon fill="#000000" stroke="#000000" points="97.813,-78.7537 90.2526,-71.3314 91.5343,-81.8484 97.813,-78.7537"/>
</g>
<!-- 2497&#45;&gt;1239 -->
<g id="edge5" class="edge">
<title>2497&#45;&gt;1239</title>
<path fill="none" stroke="#000000" d="M109.38,-148.6331C103.9926,-157.0406 97.3466,-167.4123 91.3286,-176.8038"/>
<polygon fill="#000000" stroke="#000000" points="88.2611,-175.1037 85.8127,-185.4117 94.1549,-178.8804 88.2611,-175.1037"/>
</g>
<!-- 2497&#45;&gt;1299 -->
<g id="edge6" class="edge">
<title>2497&#45;&gt;1299</title>
<path fill="none" stroke="#000000" d="M93.1229,-125.2904C92.026,-125.0219 90.9193,-124.7509 89.8076,-124.4787"/>
<polygon fill="#000000" stroke="#000000" points="90.3479,-121.0077 79.8025,-122.029 88.6832,-127.8069 90.3479,-121.0077"/>
</g>
<!-- 2914 -->
<g id="node9" class="node">
<title>2914</title>
<ellipse fill="none" stroke="#000000" cx="50.2927" cy="-77.9884" rx="28.6953" ry="18"/>
<text text-anchor="middle" x="50.2927" y="-74.2884" font-family="Times,serif" font-size="14.00" fill="#000000">2914</text>
</g>
<!-- 2497&#45;&gt;2914 -->
<g id="edge7" class="edge">
<title>2497&#45;&gt;2914</title>
<path fill="none" stroke="#000000" d="M101.7623,-117.7329C94.127,-111.8369 85.1152,-104.8781 76.7835,-98.4445"/>
<polygon fill="#000000" stroke="#000000" points="78.8089,-95.5864 68.7548,-92.2447 74.5306,-101.1268 78.8089,-95.5864"/>
</g>
<!-- 3257 -->
<g id="node10" class="node">
<title>3257</title>
<ellipse fill="none" stroke="#000000" cx="151.8502" cy="-44.3118" rx="28.6953" ry="18"/>
<text text-anchor="middle" x="151.8502" y="-40.6118" font-family="Times,serif" font-size="14.00" fill="#000000">3257</text>
</g>
<!-- 2497&#45;&gt;3257 -->
<g id="edge8" class="edge">
<title>2497&#45;&gt;3257</title>
<path fill="none" stroke="#000000" d="M126.5287,-114.1725C130.9607,-101.9448 136.938,-85.4539 141.9721,-71.5649"/>
<polygon fill="#000000" stroke="#000000" points="145.3184,-72.6037 145.4355,-62.0095 138.7373,-70.2183 145.3184,-72.6037"/>
</g>
<!-- 3320 -->
<g id="node11" class="node">
<title>3320</title>
<ellipse fill="none" stroke="#000000" cx="115.8139" cy="-44.9938" rx="28.6953" ry="18"/>
<text text-anchor="middle" x="115.8139" y="-41.2938" font-family="Times,serif" font-size="14.00" fill="#000000">3320</text>
</g>
<!-- 2497&#45;&gt;3320 -->
<g id="edge9" class="edge">
<title>2497&#45;&gt;3320</title>
<path fill="none" stroke="#000000" d="M119.2155,-113.8903C118.6383,-102.2002 117.8738,-86.7161 117.2158,-73.3885"/>
<polygon fill="#000000" stroke="#000000" points="120.7055,-73.0913 116.7165,-63.2761 113.714,-73.4365 120.7055,-73.0913"/>
</g>
<!-- 3491 -->
<g id="node13" class="node">
<title>3491</title>
<ellipse fill="none" stroke="#000000" cx="172.0251" cy="-76.6414" rx="28.6953" ry="18"/>
<text text-anchor="middle" x="172.0251" y="-72.9414" font-family="Times,serif" font-size="14.00" fill="#000000">3491</text>
</g>
<!-- 2497&#45;&gt;3491 -->
<g id="edge10" class="edge">
<title>2497&#45;&gt;3491</title>
<path fill="none" stroke="#000000" d="M134.844,-116.2105C139.7083,-111.0338 145.2235,-105.1644 150.4885,-99.5612"/>
<polygon fill="#000000" stroke="#000000" points="153.1313,-101.8598 157.4285,-92.1755 148.03,-97.0664 153.1313,-101.8598"/>
</g>
<!-- 6453 -->
<g id="node18" class="node">
<title>6453</title>
<ellipse fill="none" stroke="#000000" cx="44.5196" cy="-179.3527" rx="28.6953" ry="18"/>
<text text-anchor="middle" x="44.5196" y="-175.6527" font-family="Times,serif" font-size="14.00" fill="#000000">6453</text>
</g>
<!-- 2497&#45;&gt;6453 -->
<g id="edge11" class="edge">
<title>2497&#45;&gt;6453</title>
<path fill="none" stroke="#000000" d="M99.8491,-144.614C91.7156,-149.7207 82.1895,-155.7016 73.3561,-161.2477"/>
<polygon fill="#000000" stroke="#000000" points="71.4389,-158.3187 64.8308,-166.6003 75.1611,-164.2471 71.4389,-158.3187"/>
</g>
<!-- 6461 -->
<g id="node19" class="node">
<title>6461</title>
<ellipse fill="none" stroke="#000000" cx="28.5975" cy="-142.5" rx="28.6953" ry="18"/>
<text text-anchor="middle" x="28.5975" y="-138.8" font-family="Times,serif" font-size="14.00" fill="#000000">6461</text>
</g>
<!-- 2497&#45;&gt;6461 -->
<g id="edge12" class="edge">
<title>2497&#45;&gt;6461</title>
<path fill="none" stroke="#000000" d="M91.6527,-135.1935C83.9059,-136.0911 75.3831,-137.0787 67.1761,-138.0297"/>
<polygon fill="#000000" stroke="#000000" points="66.5623,-134.5773 57.0317,-139.2052 67.3681,-141.5308 66.5623,-134.5773"/>
</g>
<!-- 7018 -->
<g id="node21" class="node">
<title>7018</title>
<ellipse fill="none" stroke="#000000" cx="114.1444" cy="-190.9804" rx="28.6953" ry="18"/>
<text text-anchor="middle" x="114.1444" y="-187.2804" font-family="Times,serif" font-size="14.00" fill="#000000">7018</text>
</g>
<!-- 2497&#45;&gt;7018 -->
<g id="edge13" class="edge">
<title>2497&#45;&gt;7018</title>
<path fill="none" stroke="#000000" d="M118.2839,-149.9448C117.887,-153.8793 117.4576,-158.136 117.0307,-162.3673"/>
<polygon fill="#000000" stroke="#000000" points="113.5164,-162.3342 115.995,-172.6351 120.481,-163.0369 113.5164,-162.3342"/>
</g>
<!-- 3356 -->
<g id="node12" class="node">
<title>3356</title>
<ellipse fill="none" stroke="#000000" cx="203.1425" cy="-194.0554" rx="28.6953" ry="18"/>
<text text-anchor="middle" x="203.1425" y="-190.3554" font-family="Times,serif" font-size="14.00" fill="#000000">3356</text>
</g>
<!-- 3356&#45;&gt;174 -->
<g id="edge14" class="edge">
<title>3356&#45;&gt;174</title>
<path fill="none" stroke="#000000" d="M215.16,-177.406C223.3016,-166.1264 234.2005,-151.0268 243.344,-138.3593"/>
<polygon fill="#000000" stroke="#000000" points="246.3233,-140.2117 249.3381,-130.0549 240.6474,-136.1148 246.3233,-140.2117"/>
</g>
<!-- 3356&#45;&gt;2497 -->
<g id="edge15" class="edge">
<title>3356&#45;&gt;2497</title>
<path fill="none" stroke="#000000" d="M184.7137,-180.2603C173.6107,-171.9491 159.2774,-161.2198 146.9331,-151.9794"/>
<polygon fill="#000000" stroke="#000000" points="148.8719,-149.0587 138.7689,-145.868 144.6771,-154.6626 148.8719,-149.0587"/>
</g>
<!-- 3549 -->
<g id="node14" class="node">
<title>3549</title>
<ellipse fill="none" stroke="#000000" cx="154.8896" cy="-282.7302" rx="28.6953" ry="18"/>
<text text-anchor="middle" x="154.8896" y="-279.0302" font-family="Times,serif" font-size="14.00" fill="#000000">3549</text>
</g>
<!-- 3356&#45;&gt;3549 -->
<g id="edge16" class="edge">
<title>3356&#45;&gt;3549</title>
<path fill="none" stroke="#000000" d="M193.8389,-211.1528C186.8297,-224.0336 177.0955,-241.9223 169.112,-256.5937"/>
<polygon fill="#000000" stroke="#000000" points="165.8702,-255.2286 164.1647,-265.6853 172.0188,-258.5745 165.8702,-255.2286"/>
</g>
<!-- 3549&#45;&gt;1273 -->
<g id="edge17" class="edge">
<title>3549&#45;&gt;1273</title>
<path fill="none" stroke="#000000" d="M155.5826,-300.9499C155.9614,-310.9079 156.4388,-323.4621 156.8651,-334.6704"/>
<polygon fill="#000000" stroke="#000000" points="153.3756,-335.0158 157.2533,-344.8755 160.3706,-334.7496 153.3756,-335.0158"/>
</g>
<!-- 6762 -->
<g id="node20" class="node">
<title>6762</title>
<ellipse fill="none" stroke="#000000" cx="71.1494" cy="-321.3507" rx="28.6953" ry="18"/>
<text text-anchor="middle" x="71.1494" y="-317.6507" font-family="Times,serif" font-size="14.00" fill="#000000">6762</text>
</g>
<!-- 3549&#45;&gt;6762 -->
<g id="edge18" class="edge">
<title>3549&#45;&gt;6762</title>
<path fill="none" stroke="#000000" d="M131.5633,-293.4882C122.943,-297.4638 113.0086,-302.0455 103.7177,-306.3304"/>
<polygon fill="#000000" stroke="#000000" points="101.9656,-303.2841 94.3506,-310.6504 104.8972,-309.6407 101.9656,-303.2841"/>
</g>
<!-- 30070 -->
<g id="node28" class="node">
<title>30070</title>
<ellipse fill="none" stroke="#000000" cx="106.7648" cy="-357.7346" rx="32.4942" ry="18"/>
<text text-anchor="middle" x="106.7648" y="-354.0346" font-family="Times,serif" font-size="14.00" fill="#000000">30070</text>
</g>
<!-- 3549&#45;&gt;30070 -->
<g id="edge19" class="edge">
<title>3549&#45;&gt;30070</title>
<path fill="none" stroke="#000000" d="M143.9694,-299.7499C137.8596,-309.2721 130.1192,-321.3358 123.2828,-331.9907"/>
<polygon fill="#000000" stroke="#000000" points="120.2629,-330.2161 117.8084,-340.5227 126.1545,-333.9963 120.2629,-330.2161"/>
</g>
<!-- 3597 -->
<g id="node15" class="node">
<title>3597</title>
<ellipse fill="none" stroke="#000000" cx="417.6746" cy="-387.7913" rx="28.6953" ry="18"/>
<text text-anchor="middle" x="417.6746" y="-384.0913" font-family="Times,serif" font-size="14.00" fill="#000000">3597</text>
</g>
<!-- 5692 -->
<g id="node17" class="node">
<title>5692</title>
<ellipse fill="none" stroke="#000000" cx="455.8304" cy="-303.0004" rx="28.6953" ry="18"/>
<text text-anchor="middle" x="455.8304" y="-299.3004" font-family="Times,serif" font-size="14.00" fill="#000000">5692</text>
</g>
<!-- 5692&#45;&gt;3597 -->
<g id="edge20" class="edge">
<title>5692&#45;&gt;3597</title>
<path fill="none" stroke="#000000" d="M447.9245,-320.5692C442.655,-332.2791 435.6298,-347.8908 429.6759,-361.1216"/>
<polygon fill="#000000" stroke="#000000" points="426.4824,-359.6896 425.5704,-370.2451 432.8658,-362.5622 426.4824,-359.6896"/>
</g>
<!-- 10834 -->
<g id="node22" class="node">
<title>10834</title>
<ellipse fill="none" stroke="#000000" cx="357.3465" cy="-280.9296" rx="32.4942" ry="18"/>
<text text-anchor="middle" x="357.3465" y="-277.2296" font-family="Times,serif" font-size="14.00" fill="#000000">10834</text>
</g>
<!-- 5692&#45;&gt;10834 -->
<g id="edge21" class="edge">
<title>5692&#45;&gt;10834</title>
<path fill="none" stroke="#000000" d="M428.6586,-296.9111C418.9939,-294.7451 407.899,-292.2587 397.3847,-289.9024"/>
<polygon fill="#000000" stroke="#000000" points="398.0708,-286.4694 387.5474,-287.6978 396.54,-293.3 398.0708,-286.4694"/>
</g>
<!-- 11008 -->
<g id="node23" class="node">
<title>11008</title>
<ellipse fill="none" stroke="#000000" cx="499.5647" cy="-388.7252" rx="32.4942" ry="18"/>
<text text-anchor="middle" x="499.5647" y="-385.0252" font-family="Times,serif" font-size="14.00" fill="#000000">11008</text>
</g>
<!-- 5692&#45;&gt;11008 -->
<g id="edge22" class="edge">
<title>5692&#45;&gt;11008</title>
<path fill="none" stroke="#000000" d="M464.6807,-320.3481C470.8457,-332.4323 479.1811,-348.7706 486.1579,-362.4461"/>
<polygon fill="#000000" stroke="#000000" points="483.0654,-364.0861 490.7276,-371.4033 489.3008,-360.905 483.0654,-364.0861"/>
</g>
<!-- 27865 -->
<g id="node26" class="node">
<title>27865</title>
<ellipse fill="none" stroke="#000000" cx="507.172" cy="-217.208" rx="32.4942" ry="18"/>
<text text-anchor="middle" x="507.172" y="-213.508" font-family="Times,serif" font-size="14.00" fill="#000000">27865</text>
</g>
<!-- 5692&#45;&gt;27865 -->
<g id="edge23" class="edge">
<title>5692&#45;&gt;27865</title>
<path fill="none" stroke="#000000" d="M465.9739,-286.0506C473.3095,-273.7928 483.3547,-257.0071 491.6894,-243.0796"/>
<polygon fill="#000000" stroke="#000000" points="494.7421,-244.7945 496.8739,-234.4163 488.7355,-241.1998 494.7421,-244.7945"/>
</g>
<!-- 28065 -->
<g id="node27" class="node">
<title>28065</title>
<ellipse fill="none" stroke="#000000" cx="541.2092" cy="-305.7671" rx="32.4942" ry="18"/>
<text text-anchor="middle" x="541.2092" y="-302.0671" font-family="Times,serif" font-size="14.00" fill="#000000">28065</text>
</g>
<!-- 5692&#45;&gt;28065 -->
<g id="edge24" class="edge">
<title>5692&#45;&gt;28065</title>
<path fill="none" stroke="#000000" d="M484.7358,-303.9371C489.1547,-304.0803 493.7944,-304.2307 498.4354,-304.3811"/>
<polygon fill="#000000" stroke="#000000" points="498.4042,-307.8818 508.5123,-304.7076 498.631,-300.8855 498.4042,-307.8818"/>
</g>
<!-- 52317 -->
<g id="node29" class="node">
<title>52317</title>
<ellipse fill="none" stroke="#000000" cx="463.4848" cy="-217.699" rx="32.4942" ry="18"/>
<text text-anchor="middle" x="463.4848" y="-213.999" font-family="Times,serif" font-size="14.00" fill="#000000">52317</text>
</g>
<!-- 5692&#45;&gt;52317 -->
<g id="edge25" class="edge">
<title>5692&#45;&gt;52317</title>
<path fill="none" stroke="#000000" d="M457.4537,-284.9102C458.4685,-273.6009 459.797,-258.7966 460.9487,-245.9615"/>
<polygon fill="#000000" stroke="#000000" points="464.456,-246.036 461.8638,-235.7631 457.484,-245.4103 464.456,-246.036"/>
</g>
<!-- 52375 -->
<g id="node30" class="node">
<title>52375</title>
<ellipse fill="none" stroke="#000000" cx="542.7252" cy="-263.6489" rx="32.4942" ry="18"/>
<text text-anchor="middle" x="542.7252" y="-259.9489" font-family="Times,serif" font-size="14.00" fill="#000000">52375</text>
</g>
<!-- 5692&#45;&gt;52375 -->
<g id="edge26" class="edge">
<title>5692&#45;&gt;52375</title>
<path fill="none" stroke="#000000" d="M479.1166,-292.455C488.1075,-288.3833 498.5783,-283.6415 508.3983,-279.1944"/>
<polygon fill="#000000" stroke="#000000" points="509.8787,-282.3662 517.5442,-275.0525 506.9909,-275.9896 509.8787,-282.3662"/>
</g>
<!-- 52376 -->
<g id="node31" class="node">
<title>52376</title>
<ellipse fill="none" stroke="#000000" cx="453.6301" cy="-395.9145" rx="32.4942" ry="18"/>
<text text-anchor="middle" x="453.6301" y="-392.2145" font-family="Times,serif" font-size="14.00" fill="#000000">52376</text>
</g>
<!-- 5692&#45;&gt;52376 -->
<g id="edge27" class="edge">
<title>5692&#45;&gt;52376</title>
<path fill="none" stroke="#000000" d="M455.3957,-321.3573C455.0833,-334.55 454.6562,-352.5856 454.3003,-367.6133"/>
<polygon fill="#000000" stroke="#000000" points="450.7942,-367.8319 454.0564,-377.912 457.7923,-367.9977 450.7942,-367.8319"/>
</g>
<!-- 52380 -->
<g id="node32" class="node">
<title>52380</title>
<ellipse fill="none" stroke="#000000" cx="485.4967" cy="-353.6599" rx="32.4942" ry="18"/>
<text text-anchor="middle" x="485.4967" y="-349.9599" font-family="Times,serif" font-size="14.00" fill="#000000">52380</text>
</g>
<!-- 5692&#45;&gt;52380 -->
<g id="edge28" class="edge">
<title>5692&#45;&gt;52380</title>
<path fill="none" stroke="#000000" d="M465.8741,-320.1514C467.3239,-322.6272 468.8421,-325.2197 470.3645,-327.8194"/>
<polygon fill="#000000" stroke="#000000" points="467.3898,-329.666 475.4634,-336.5266 473.4303,-326.1286 467.3898,-329.666"/>
</g>
<!-- 52413 -->
<g id="node33" class="node">
<title>52413</title>
<ellipse fill="none" stroke="#000000" cx="432.5075" cy="-249.225" rx="32.4942" ry="18"/>
<text text-anchor="middle" x="432.5075" y="-245.525" font-family="Times,serif" font-size="14.00" fill="#000000">52413</text>
</g>
<!-- 5692&#45;&gt;52413 -->
<g id="edge29" class="edge">
<title>5692&#45;&gt;52413</title>
<path fill="none" stroke="#000000" d="M448.1936,-285.3923C446.9581,-282.5436 445.6539,-279.5365 444.3467,-276.5226"/>
<polygon fill="#000000" stroke="#000000" points="447.4313,-274.8384 440.2413,-267.0567 441.0093,-277.6237 447.4313,-274.8384"/>
</g>
<!-- 52431 -->
<g id="node34" class="node">
<title>52431</title>
<ellipse fill="none" stroke="#000000" cx="408.1231" cy="-346.3446" rx="32.4942" ry="18"/>
<text text-anchor="middle" x="408.1231" y="-342.6446" font-family="Times,serif" font-size="14.00" fill="#000000">52431</text>
</g>
<!-- 5692&#45;&gt;52431 -->
<g id="edge30" class="edge">
<title>5692&#45;&gt;52431</title>
<path fill="none" stroke="#000000" d="M439.4123,-317.917C437.2392,-319.8914 434.9746,-321.9488 432.7012,-324.0143"/>
<polygon fill="#000000" stroke="#000000" points="430.1062,-321.6431 425.0584,-330.9582 434.8134,-326.8241 430.1062,-321.6431"/>
</g>
<!-- 262230 -->
<g id="node35" class="node">
<title>262230</title>
<ellipse fill="none" stroke="#000000" cx="533.5287" cy="-345.5444" rx="37.0935" ry="18"/>
<text text-anchor="middle" x="533.5287" y="-341.8444" font-family="Times,serif" font-size="14.00" fill="#000000">262230</text>
</g>
<!-- 5692&#45;&gt;262230 -->
<g id="edge31" class="edge">
<title>5692&#45;&gt;262230</title>
<path fill="none" stroke="#000000" d="M477.4737,-314.8513C484.2933,-318.5854 491.9994,-322.8049 499.466,-326.8933"/>
<polygon fill="#000000" stroke="#000000" points="498.2586,-330.2225 508.7108,-331.9553 501.6205,-324.0826 498.2586,-330.2225"/>
</g>
<!-- 264608 -->
<g id="node36" class="node">
<title>264608</title>
<ellipse fill="none" stroke="#000000" cx="503.8504" cy="-255.402" rx="37.0935" ry="18"/>
<text text-anchor="middle" x="503.8504" y="-251.702" font-family="Times,serif" font-size="14.00" fill="#000000">264608</text>
</g>
<!-- 5692&#45;&gt;264608 -->
<g id="edge32" class="edge">
<title>5692&#45;&gt;264608</title>
<path fill="none" stroke="#000000" d="M471.2886,-287.678C474.1074,-284.8839 477.1072,-281.9104 480.1015,-278.9424"/>
<polygon fill="#000000" stroke="#000000" points="482.7892,-281.2064 487.4275,-271.6807 477.8613,-276.2348 482.7892,-281.2064"/>
</g>
<!-- 12956 -->
<g id="node24" class="node">
<title>12956</title>
<ellipse fill="none" stroke="#000000" cx="282.0431" cy="-233.3049" rx="32.4942" ry="18"/>
<text text-anchor="middle" x="282.0431" y="-229.6049" font-family="Times,serif" font-size="14.00" fill="#000000">12956</text>
</g>
<!-- 10834&#45;&gt;12956 -->
<g id="edge33" class="edge">
<title>10834&#45;&gt;12956</title>
<path fill="none" stroke="#000000" d="M335.5656,-267.1546C328.2437,-262.5239 319.9417,-257.2734 312.0985,-252.3131"/>
<polygon fill="#000000" stroke="#000000" points="313.8374,-249.2716 303.515,-246.8845 310.0958,-255.1877 313.8374,-249.2716"/>
</g>
<!-- 22927 -->
<g id="node25" class="node">
<title>22927</title>
<ellipse fill="none" stroke="#000000" cx="317.771" cy="-361.4943" rx="32.4942" ry="18"/>
<text text-anchor="middle" x="317.771" y="-357.7943" font-family="Times,serif" font-size="14.00" fill="#000000">22927</text>
</g>
<!-- 10834&#45;&gt;22927 -->
<g id="edge34" class="edge">
<title>10834&#45;&gt;22927</title>
<path fill="none" stroke="#000000" d="M348.7592,-298.4109C343.5213,-309.0739 336.7222,-322.915 330.8277,-334.9145"/>
<polygon fill="#000000" stroke="#000000" points="327.6092,-333.5283 326.3416,-344.0471 333.8921,-336.6147 327.6092,-333.5283"/>
</g>
<!-- 12956&#45;&gt;3356 -->
<g id="edge35" class="edge">
<title>12956&#45;&gt;3356</title>
<path fill="none" stroke="#000000" d="M257.511,-221.1013C250.3861,-217.557 242.4999,-213.6339 234.995,-209.9006"/>
<polygon fill="#000000" stroke="#000000" points="236.2909,-206.6361 225.7787,-205.3158 233.1732,-212.9035 236.2909,-206.6361"/>
</g>
</g>
</svg>
