<?xml version="1.0" encoding="UTF-8" standalone="no"?>
<!DOCTYPE svg PUBLIC "-//W3C//DTD SVG 1.1//EN"
 "http://www.w3.org/Graphics/SVG/1.1/DTD/svg11.dtd">
<!-- Generated by graphviz version 2.40.1 (20161225.0304)
 -->
<!-- Title: %3 Pages: 1 -->
<svg width="754pt" height="481pt"
 viewBox="0.00 0.00 753.82 480.85" xmlns="http://www.w3.org/2000/svg" xmlns:xlink="http://www.w3.org/1999/xlink">
<g id="graph0" class="graph" transform="scale(1 1) rotate(0) translate(4 476.8474)">
<title>%3</title>
<polygon fill="#ffffff" stroke="transparent" points="-4,4 -4,-476.8474 749.8164,-476.8474 749.8164,4 -4,4"/>
<!-- 174 -->
<g id="node1" class="node">
<title>174</title>
<ellipse fill="none" stroke="#000000" cx="284.1904" cy="-101.2656" rx="27" ry="18"/>
<text text-anchor="middle" x="284.1904" y="-97.5656" font-family="Times,serif" font-size="14.00" fill="#000000">174</text>
</g>
<!-- 2828 -->
<g id="node8" class="node">
<title>2828</title>
<ellipse fill="none" stroke="#000000" cx="322.6804" cy="-20.9242" rx="28.6953" ry="18"/>
<text text-anchor="middle" x="322.6804" y="-17.2242" font-family="Times,serif" font-size="14.00" fill="#000000">2828</text>
</g>
<!-- 174&#45;&gt;2828 -->
<g id="edge1" class="edge">
<title>174&#45;&gt;2828</title>
<path fill="none" stroke="#000000" d="M292.5422,-83.8327C297.6364,-73.1993 304.249,-59.3966 309.9818,-47.4304"/>
<polygon fill="#000000" stroke="#000000" points="313.1808,-48.8537 314.345,-38.323 306.8679,-45.8293 313.1808,-48.8537"/>
</g>
<!-- 5511 -->
<g id="node16" class="node">
<title>5511</title>
<ellipse fill="none" stroke="#000000" cx="257.936" cy="-18" rx="28.6953" ry="18"/>
<text text-anchor="middle" x="257.936" y="-14.3" font-family="Times,serif" font-size="14.00" fill="#000000">5511</text>
</g>
<!-- 174&#45;&gt;5511 -->
<g id="edge2" class="edge">
<title>174&#45;&gt;5511</title>
<path fill="none" stroke="#000000" d="M278.6225,-83.6071C275.1306,-72.5326 270.5562,-58.0249 266.5971,-45.4687"/>
<polygon fill="#000000" stroke="#000000" points="269.9316,-44.4047 263.5863,-35.9201 263.2556,-46.5098 269.9316,-44.4047"/>
</g>
<!-- 209 -->
<g id="node2" class="node">
<title>209</title>
<ellipse fill="none" stroke="#000000" cx="125.7274" cy="-276.5668" rx="27" ry="18"/>
<text text-anchor="middle" x="125.7274" y="-272.8668" font-family="Times,serif" font-size="14.00" fill="#000000">209</text>
</g>
<!-- 701 -->
<g id="node3" class="node">
<title>701</title>
<ellipse fill="none" stroke="#000000" cx="175.6438" cy="-245.2651" rx="27" ry="18"/>
<text text-anchor="middle" x="175.6438" y="-241.5651" font-family="Times,serif" font-size="14.00" fill="#000000">701</text>
</g>
<!-- 1239 -->
<g id="node4" class="node">
<title>1239</title>
<ellipse fill="none" stroke="#000000" cx="193.7462" cy="-175.606" rx="28.6953" ry="18"/>
<text text-anchor="middle" x="193.7462" y="-171.906" font-family="Times,serif" font-size="14.00" fill="#000000">1239</text>
</g>
<!-- 1273 -->
<g id="node5" class="node">
<title>1273</title>
<ellipse fill="none" stroke="#000000" cx="274.3774" cy="-422.4556" rx="28.6953" ry="18"/>
<text text-anchor="middle" x="274.3774" y="-418.7556" font-family="Times,serif" font-size="14.00" fill="#000000">1273</text>
</g>
<!-- 1299 -->
<g id="node6" class="node">
<title>1299</title>
<ellipse fill="none" stroke="#000000" cx="75.0745" cy="-275.9772" rx="28.6953" ry="18"/>
<text text-anchor="middle" x="75.0745" y="-272.2772" font-family="Times,serif" font-size="14.00" fill="#000000">1299</text>
</g>
<!-- 2497 -->
<g id="node7" class="node">
<title>2497</title>
<ellipse fill="none" stroke="#000000" cx="122.2698" cy="-184.7846" rx="28.6953" ry="18"/>
<text text-anchor="middle" x="122.2698" y="-181.0846" font-family="Times,serif" font-size="14.00" fill="#000000">2497</text>
</g>
<!-- 2497&#45;&gt;209 -->
<g id="edge3" class="edge">
<title>2497&#45;&gt;209</title>
<path fill="none" stroke="#000000" d="M122.9529,-202.9178C123.4407,-215.8658 124.1064,-233.536 124.6634,-248.3227"/>
<polygon fill="#000000" stroke="#000000" points="121.1716,-248.6102 125.0457,-258.4713 128.1667,-248.3466 121.1716,-248.6102"/>
</g>
<!-- 2497&#45;&gt;701 -->
<g id="edge4" class="edge">
<title>2497&#45;&gt;701</title>
<path fill="none" stroke="#000000" d="M136.2932,-200.6751C141.9763,-207.1149 148.6568,-214.6849 154.8838,-221.7411"/>
<polygon fill="#000000" stroke="#000000" points="152.6575,-224.5079 161.8986,-229.6899 157.906,-219.8761 152.6575,-224.5079"/>
</g>
<!-- 2497&#45;&gt;1239 -->
<g id="edge5" class="edge">
<title>2497&#45;&gt;1239</title>
<path fill="none" stroke="#000000" d="M150.5192,-181.157C152.2361,-180.9365 153.9772,-180.7129 155.7256,-180.4884"/>
<polygon fill="#000000" stroke="#000000" points="156.2293,-183.9525 165.702,-179.2073 155.3376,-177.0095 156.2293,-183.9525"/>
</g>
<!-- 2497&#45;&gt;1299 -->
<g id="edge6" class="edge">
<title>2497&#45;&gt;1299</title>
<path fill="none" stroke="#000000" d="M113.3928,-201.9372C106.4495,-215.3533 96.6752,-234.2396 88.7364,-249.5793"/>
<polygon fill="#000000" stroke="#000000" points="85.5602,-248.1016 84.0723,-258.5914 91.777,-251.319 85.5602,-248.1016"/>
</g>
<!-- 2914 -->
<g id="node9" class="node">
<title>2914</title>
<ellipse fill="none" stroke="#000000" cx="28.5975" cy="-155.6236" rx="28.6953" ry="18"/>
<text text-anchor="middle" x="28.5975" y="-151.9236" font-family="Times,serif" font-size="14.00" fill="#000000">2914</text>
</g>
<!-- 2497&#45;&gt;2914 -->
<g id="edge7" class="edge">
<title>2497&#45;&gt;2914</title>
<path fill="none" stroke="#000000" d="M96.1769,-176.6616C86.3311,-173.5966 74.9528,-170.0544 64.3731,-166.7609"/>
<polygon fill="#000000" stroke="#000000" points="65.1389,-163.3337 54.5505,-163.703 63.0582,-170.0173 65.1389,-163.3337"/>
</g>
<!-- 3257 -->
<g id="node10" class="node">
<title>3257</title>
<ellipse fill="none" stroke="#000000" cx="63.498" cy="-110.1848" rx="28.6953" ry="18"/>
<text text-anchor="middle" x="63.498" y="-106.4848" font-family="Times,serif" font-size="14.00" fill="#000000">3257</text>
</g>
<!-- 2497&#45;&gt;3257 -->
<g id="edge8" class="edge">
<title>2497&#45;&gt;3257</title>
<path fill="none" stroke="#000000" d="M109.5172,-168.5975C101.6616,-158.6264 91.4414,-145.6537 82.6284,-134.4672"/>
<polygon fill="#000000" stroke="#000000" points="85.1636,-132.0294 76.2258,-126.3403 79.665,-136.3614 85.1636,-132.0294"/>
</g>
<!-- 3320 -->
<g id="node11" class="node">
<title>3320</title>
<ellipse fill="none" stroke="#000000" cx="78.8092" cy="-220.5527" rx="28.6953" ry="18"/>
<text text-anchor="middle" x="78.8092" y="-216.8527" font-family="Times,serif" font-size="14.00" fill="#000000">3320</text>
</g>
<!-- 2497&#45;&gt;3320 -->
<g id="edge9" class="edge">
<title>2497&#45;&gt;3320</title>
<path fill="none" stroke="#000000" d="M104.5927,-199.3328C104.4223,-199.4731 104.2516,-199.6136 104.0806,-199.7543"/>
<polygon fill="#000000" stroke="#000000" points="101.8269,-197.0761 96.3297,-206.1333 106.2752,-202.4811 101.8269,-197.0761"/>
</g>
<!-- 3491 -->
<g id="node13" class="node">
<title>3491</title>
<ellipse fill="none" stroke="#000000" cx="32.4873" cy="-215.2016" rx="28.6953" ry="18"/>
<text text-anchor="middle" x="32.4873" y="-211.5016" font-family="Times,serif" font-size="14.00" fill="#000000">3491</text>
</g>
<!-- 2497&#45;&gt;3491 -->
<g id="edge10" class="edge">
<title>2497&#45;&gt;3491</title>
<path fill="none" stroke="#000000" d="M96.7819,-193.4195C87.6057,-196.5283 77.0901,-200.0908 67.2578,-203.4218"/>
<polygon fill="#000000" stroke="#000000" points="66.0763,-200.1266 57.7282,-206.6503 68.3225,-206.7565 66.0763,-200.1266"/>
</g>
<!-- 6453 -->
<g id="node18" class="node">
<title>6453</title>
<ellipse fill="none" stroke="#000000" cx="109.6733" cy="-127.1431" rx="28.6953" ry="18"/>
<text text-anchor="middle" x="109.6733" y="-123.4431" font-family="Times,serif" font-size="14.00" fill="#000000">6453</text>
</g>
<!-- 2497&#45;&gt;6453 -->
<g id="edge11" class="edge">
<title>2497&#45;&gt;6453</title>
<path fill="none" stroke="#000000" d="M118.3533,-166.8624C117.5318,-163.1032 116.6468,-159.0538 115.7672,-155.0288"/>
<polygon fill="#000000" stroke="#000000" points="119.1852,-154.2749 113.6309,-145.2527 112.3466,-155.7694 119.1852,-154.2749"/>
</g>
<!-- 6461 -->
<g id="node19" class="node">
<title>6461</title>
<ellipse fill="none" stroke="#000000" cx="174.0477" cy="-112.3881" rx="28.6953" ry="18"/>
<text text-anchor="middle" x="174.0477" y="-108.6881" font-family="Times,serif" font-size="14.00" fill="#000000">6461</text>
</g>
<!-- 2497&#45;&gt;6461 -->
<g id="edge12" class="edge">
<title>2497&#45;&gt;6461</title>
<path fill="none" stroke="#000000" d="M134.019,-168.3567C140.5925,-159.1656 148.9204,-147.5213 156.2758,-137.237"/>
<polygon fill="#000000" stroke="#000000" points="159.1952,-139.1715 162.1657,-129.0016 153.5016,-135.0994 159.1952,-139.1715"/>
</g>
<!-- 7018 -->
<g id="node21" class="node">
<title>7018</title>
<ellipse fill="none" stroke="#000000" cx="111.249" cy="-71.5172" rx="28.6953" ry="18"/>
<text text-anchor="middle" x="111.249" y="-67.8172" font-family="Times,serif" font-size="14.00" fill="#000000">7018</text>
</g>
<!-- 2497&#45;&gt;7018 -->
<g id="edge13" class="edge">
<title>2497&#45;&gt;7018</title>
<path fill="none" stroke="#000000" d="M120.4991,-166.5862C118.7478,-148.5868 116.0422,-120.7801 114.0088,-99.8811"/>
<polygon fill="#000000" stroke="#000000" points="117.4673,-99.2845 113.0153,-89.6704 110.5002,-99.9624 117.4673,-99.2845"/>
</g>
<!-- 3356 -->
<g id="node12" class="node">
<title>3356</title>
<ellipse fill="none" stroke="#000000" cx="254.5036" cy="-226.4002" rx="28.6953" ry="18"/>
<text text-anchor="middle" x="254.5036" y="-222.7002" font-family="Times,serif" font-size="14.00" fill="#000000">3356</text>
</g>
<!-- 3356&#45;&gt;174 -->
<g id="edge14" class="edge">
<title>3356&#45;&gt;174</title>
<path fill="none" stroke="#000000" d="M258.757,-208.4714C263.673,-187.7498 271.8226,-153.3978 277.5696,-129.1732"/>
<polygon fill="#000000" stroke="#000000" points="281.042,-129.6989 279.9449,-119.161 274.231,-128.083 281.042,-129.6989"/>
</g>
<!-- 3356&#45;&gt;2497 -->
<g id="edge15" class="edge">
<title>3356&#45;&gt;2497</title>
<path fill="none" stroke="#000000" d="M228.6937,-218.2775C208.4883,-211.9186 180.1616,-203.0038 157.8121,-195.9702"/>
<polygon fill="#000000" stroke="#000000" points="158.6041,-192.5503 148.0146,-192.8868 156.5027,-199.2274 158.6041,-192.5503"/>
</g>
<!-- 3549 -->
<g id="node14" class="node">
<title>3549</title>
<ellipse fill="none" stroke="#000000" cx="232.9216" cy="-361.9841" rx="28.6953" ry="18"/>
<text text-anchor="middle" x="232.9216" y="-358.2841" font-family="Times,serif" font-size="14.00" fill="#000000">3549</text>
</g>
<!-- 3356&#45;&gt;3549 -->
<g id="edge16" class="edge">
<title>3356&#45;&gt;3549</title>
<path fill="none" stroke="#000000" d="M251.6377,-244.4047C247.9936,-267.298 241.6621,-307.0739 237.3836,-333.9526"/>
<polygon fill="#000000" stroke="#000000" points="233.915,-333.4792 235.7994,-343.9051 240.8279,-334.5797 233.915,-333.4792"/>
</g>
<!-- 3549&#45;&gt;1273 -->
<g id="edge17" class="edge">
<title>3549&#45;&gt;1273</title>
<path fill="none" stroke="#000000" d="M244.4693,-378.8287C248.4224,-384.5951 252.9337,-391.1757 257.2329,-397.4469"/>
<polygon fill="#000000" stroke="#000000" points="254.3504,-399.4323 262.8916,-405.7012 260.124,-395.4742 254.3504,-399.4323"/>
</g>
<!-- 6762 -->
<g id="node20" class="node">
<title>6762</title>
<ellipse fill="none" stroke="#000000" cx="167.3139" cy="-414.1056" rx="28.6953" ry="18"/>
<text text-anchor="middle" x="167.3139" y="-410.4056" font-family="Times,serif" font-size="14.00" fill="#000000">6762</text>
</g>
<!-- 3549&#45;&gt;6762 -->
<g id="edge18" class="edge">
<title>3549&#45;&gt;6762</title>
<path fill="none" stroke="#000000" d="M214.994,-376.2265C208.3403,-381.5125 200.6506,-387.6215 193.4154,-393.3695"/>
<polygon fill="#000000" stroke="#000000" points="190.8726,-390.9195 185.2198,-399.8804 195.2269,-396.4004 190.8726,-390.9195"/>
</g>
<!-- 30070 -->
<g id="node28" class="node">
<title>30070</title>
<ellipse fill="none" stroke="#000000" cx="220.5431" cy="-454.8474" rx="32.4942" ry="18"/>
<text text-anchor="middle" x="220.5431" y="-451.1474" font-family="Times,serif" font-size="14.00" fill="#000000">30070</text>
</g>
<!-- 3549&#45;&gt;30070 -->
<g id="edge19" class="edge">
<title>3549&#45;&gt;30070</title>
<path fill="none" stroke="#000000" d="M230.476,-380.3309C228.7184,-393.5164 226.3156,-411.5421 224.3136,-426.5617"/>
<polygon fill="#000000" stroke="#000000" points="220.7936,-426.4799 222.9415,-436.8547 227.7322,-427.4049 220.7936,-426.4799"/>
</g>
<!-- 3597 -->
<g id="node15" class="node">
<title>3597</title>
<ellipse fill="none" stroke="#000000" cx="547.1507" cy="-130.4983" rx="28.6953" ry="18"/>
<text text-anchor="middle" x="547.1507" y="-126.7983" font-family="Times,serif" font-size="14.00" fill="#000000">3597</text>
</g>
<!-- 5692 -->
<g id="node17" class="node">
<title>5692</title>
<ellipse fill="none" stroke="#000000" cx="611.1638" cy="-204.7359" rx="28.6953" ry="18"/>
<text text-anchor="middle" x="611.1638" y="-201.0359" font-family="Times,serif" font-size="14.00" fill="#000000">5692</text>
</g>
<!-- 5692&#45;&gt;3597 -->
<g id="edge20" class="edge">
<title>5692&#45;&gt;3597</title>
<path fill="none" stroke="#000000" d="M597.2739,-188.6274C588.5747,-178.5387 577.2131,-165.3624 567.5069,-154.1059"/>
<polygon fill="#000000" stroke="#000000" points="569.9746,-151.608 560.7936,-146.3203 564.6732,-156.1792 569.9746,-151.608"/>
</g>
<!-- 10834 -->
<g id="node22" class="node">
<title>10834</title>
<ellipse fill="none" stroke="#000000" cx="481.1772" cy="-248.5883" rx="32.4942" ry="18"/>
<text text-anchor="middle" x="481.1772" y="-244.8883" font-family="Times,serif" font-size="14.00" fill="#000000">10834</text>
</g>
<!-- 5692&#45;&gt;10834 -->
<g id="edge21" class="edge">
<title>5692&#45;&gt;10834</title>
<path fill="none" stroke="#000000" d="M585.7925,-213.2952C566.6993,-219.7364 540.229,-228.6665 518.6924,-235.9321"/>
<polygon fill="#000000" stroke="#000000" points="517.5451,-232.6253 509.1886,-239.1383 519.7828,-239.258 517.5451,-232.6253"/>
</g>
<!-- 11008 -->
<g id="node23" class="node">
<title>11008</title>
<ellipse fill="none" stroke="#000000" cx="540.9897" cy="-189.5529" rx="32.4942" ry="18"/>
<text text-anchor="middle" x="540.9897" y="-185.8529" font-family="Times,serif" font-size="14.00" fill="#000000">11008</text>
</g>
<!-- 5692&#45;&gt;11008 -->
<g id="edge22" class="edge">
<title>5692&#45;&gt;11008</title>
<path fill="none" stroke="#000000" d="M583.8317,-198.8223C583.0813,-198.6599 582.3259,-198.4965 581.5669,-198.3323"/>
<polygon fill="#000000" stroke="#000000" points="582.1364,-194.8745 571.6223,-196.1806 580.656,-201.7162 582.1364,-194.8745"/>
</g>
<!-- 27865 -->
<g id="node26" class="node">
<title>27865</title>
<ellipse fill="none" stroke="#000000" cx="599.1697" cy="-96.5106" rx="32.4942" ry="18"/>
<text text-anchor="middle" x="599.1697" y="-92.8106" font-family="Times,serif" font-size="14.00" fill="#000000">27865</text>
</g>
<!-- 5692&#45;&gt;27865 -->
<g id="edge23" class="edge">
<title>5692&#45;&gt;27865</title>
<path fill="none" stroke="#000000" d="M609.1292,-186.3769C607.257,-169.4834 604.4521,-144.1749 602.2956,-124.7163"/>
<polygon fill="#000000" stroke="#000000" points="605.7546,-124.152 601.1743,-114.5984 598.7972,-124.9231 605.7546,-124.152"/>
</g>
<!-- 28065 -->
<g id="node27" class="node">
<title>28065</title>
<ellipse fill="none" stroke="#000000" cx="657.7051" cy="-103.8718" rx="32.4942" ry="18"/>
<text text-anchor="middle" x="657.7051" y="-100.1718" font-family="Times,serif" font-size="14.00" fill="#000000">28065</text>
</g>
<!-- 5692&#45;&gt;28065 -->
<g id="edge24" class="edge">
<title>5692&#45;&gt;28065</title>
<path fill="none" stroke="#000000" d="M619.2707,-187.1667C626.4343,-171.6417 636.9938,-148.7573 645.2328,-130.9018"/>
<polygon fill="#000000" stroke="#000000" points="648.5232,-132.1245 649.535,-121.5781 642.1672,-129.1916 648.5232,-132.1245"/>
</g>
<!-- 52317 -->
<g id="node29" class="node">
<title>52317</title>
<ellipse fill="none" stroke="#000000" cx="619.7151" cy="-265.8628" rx="32.4942" ry="18"/>
<text text-anchor="middle" x="619.7151" y="-262.1628" font-family="Times,serif" font-size="14.00" fill="#000000">52317</text>
</g>
<!-- 5692&#45;&gt;52317 -->
<g id="edge25" class="edge">
<title>5692&#45;&gt;52317</title>
<path fill="none" stroke="#000000" d="M613.6832,-222.7453C614.3385,-227.4292 615.0603,-232.5891 615.7699,-237.6617"/>
<polygon fill="#000000" stroke="#000000" points="612.3324,-238.3522 617.1841,-247.7708 619.2648,-237.3823 612.3324,-238.3522"/>
</g>
<!-- 52375 -->
<g id="node30" class="node">
<title>52375</title>
<ellipse fill="none" stroke="#000000" cx="606.3379" cy="-317.3081" rx="32.4942" ry="18"/>
<text text-anchor="middle" x="606.3379" y="-313.6081" font-family="Times,serif" font-size="14.00" fill="#000000">52375</text>
</g>
<!-- 5692&#45;&gt;52375 -->
<g id="edge26" class="edge">
<title>5692&#45;&gt;52375</title>
<path fill="none" stroke="#000000" d="M610.3884,-222.8225C609.6215,-240.7115 608.4368,-268.3475 607.5464,-289.1183"/>
<polygon fill="#000000" stroke="#000000" points="604.0429,-289.1256 607.1113,-299.2663 611.0365,-289.4254 604.0429,-289.1256"/>
</g>
<!-- 52376 -->
<g id="node31" class="node">
<title>52376</title>
<ellipse fill="none" stroke="#000000" cx="558.8149" cy="-263.6628" rx="32.4942" ry="18"/>
<text text-anchor="middle" x="558.8149" y="-259.9628" font-family="Times,serif" font-size="14.00" fill="#000000">52376</text>
</g>
<!-- 5692&#45;&gt;52376 -->
<g id="edge27" class="edge">
<title>5692&#45;&gt;52376</title>
<path fill="none" stroke="#000000" d="M597.1353,-220.5272C591.9393,-226.376 585.9229,-233.1485 580.2193,-239.5688"/>
<polygon fill="#000000" stroke="#000000" points="577.2721,-237.6164 573.2472,-247.417 582.5053,-242.2655 577.2721,-237.6164"/>
</g>
<!-- 52380 -->
<g id="node32" class="node">
<title>52380</title>
<ellipse fill="none" stroke="#000000" cx="669.5323" cy="-298.0201" rx="32.4942" ry="18"/>
<text text-anchor="middle" x="669.5323" y="-294.3201" font-family="Times,serif" font-size="14.00" fill="#000000">52380</text>
</g>
<!-- 5692&#45;&gt;52380 -->
<g id="edge28" class="edge">
<title>5692&#45;&gt;52380</title>
<path fill="none" stroke="#000000" d="M621.8695,-221.8456C630.6182,-235.8278 643.1305,-255.8249 653.14,-271.822"/>
<polygon fill="#000000" stroke="#000000" points="650.4254,-274.0821 658.6968,-280.7029 656.3596,-270.3691 650.4254,-274.0821"/>
</g>
<!-- 52413 -->
<g id="node33" class="node">
<title>52413</title>
<ellipse fill="none" stroke="#000000" cx="624.2133" cy="-149.166" rx="32.4942" ry="18"/>
<text text-anchor="middle" x="624.2133" y="-145.466" font-family="Times,serif" font-size="14.00" fill="#000000">52413</text>
</g>
<!-- 5692&#45;&gt;52413 -->
<g id="edge29" class="edge">
<title>5692&#45;&gt;52413</title>
<path fill="none" stroke="#000000" d="M615.3646,-186.8473C616.1097,-183.6745 616.9012,-180.3036 617.6927,-176.9331"/>
<polygon fill="#000000" stroke="#000000" points="621.1415,-177.5563 620.0204,-167.021 614.3269,-175.956 621.1415,-177.5563"/>
</g>
<!-- 52431 -->
<g id="node34" class="node">
<title>52431</title>
<ellipse fill="none" stroke="#000000" cx="692.3916" cy="-152.5037" rx="32.4942" ry="18"/>
<text text-anchor="middle" x="692.3916" y="-148.8037" font-family="Times,serif" font-size="14.00" fill="#000000">52431</text>
</g>
<!-- 5692&#45;&gt;52431 -->
<g id="edge30" class="edge">
<title>5692&#45;&gt;52431</title>
<path fill="none" stroke="#000000" d="M631.2426,-191.8245C640.712,-185.7354 652.2026,-178.3465 662.6555,-171.625"/>
<polygon fill="#000000" stroke="#000000" points="664.6065,-174.5316 671.1246,-166.1791 660.8204,-168.6439 664.6065,-174.5316"/>
</g>
<!-- 262230 -->
<g id="node35" class="node">
<title>262230</title>
<ellipse fill="none" stroke="#000000" cx="672.6398" cy="-240.7832" rx="37.0935" ry="18"/>
<text text-anchor="middle" x="672.6398" y="-237.0832" font-family="Times,serif" font-size="14.00" fill="#000000">262230</text>
</g>
<!-- 5692&#45;&gt;262230 -->
<g id="edge31" class="edge">
<title>5692&#45;&gt;262230</title>
<path fill="none" stroke="#000000" d="M632.3204,-217.1413C634.795,-218.5924 637.3617,-220.0974 639.947,-221.6133"/>
<polygon fill="#000000" stroke="#000000" points="638.3043,-224.7073 648.701,-226.7464 641.845,-218.6689 638.3043,-224.7073"/>
</g>
<!-- 264608 -->
<g id="node36" class="node">
<title>264608</title>
<ellipse fill="none" stroke="#000000" cx="708.7697" cy="-205.6027" rx="37.0935" ry="18"/>
<text text-anchor="middle" x="708.7697" y="-201.9027" font-family="Times,serif" font-size="14.00" fill="#000000">264608</text>
</g>
<!-- 5692&#45;&gt;264608 -->
<g id="edge32" class="edge">
<title>5692&#45;&gt;264608</title>
<path fill="none" stroke="#000000" d="M639.9209,-204.9913C646.6477,-205.051 653.9896,-205.1162 661.2919,-205.181"/>
<polygon fill="#000000" stroke="#000000" points="661.4903,-208.6828 671.521,-205.2719 661.5525,-201.6831 661.4903,-208.6828"/>
</g>
<!-- 12956 -->
<g id="node24" class="node">
<title>12956</title>
<ellipse fill="none" stroke="#000000" cx="368.2044" cy="-240.0996" rx="32.4942" ry="18"/>
<text text-anchor="middle" x="368.2044" y="-236.3996" font-family="Times,serif" font-size="14.00" fill="#000000">12956</text>
</g>
<!-- 10834&#45;&gt;12956 -->
<g id="edge33" class="edge">
<title>10834&#45;&gt;12956</title>
<path fill="none" stroke="#000000" d="M448.8038,-246.1557C436.986,-245.2678 423.4347,-244.2495 410.8582,-243.3045"/>
<polygon fill="#000000" stroke="#000000" points="410.8168,-239.7917 400.5826,-242.5324 410.2923,-246.772 410.8168,-239.7917"/>
</g>
<!-- 22927 -->
<g id="node25" class="node">
<title>22927</title>
<ellipse fill="none" stroke="#000000" cx="465.0172" cy="-326.6611" rx="32.4942" ry="18"/>
<text text-anchor="middle" x="465.0172" y="-322.9611" font-family="Times,serif" font-size="14.00" fill="#000000">22927</text>
</g>
<!-- 10834&#45;&gt;22927 -->
<g id="edge34" class="edge">
<title>10834&#45;&gt;22927</title>
<path fill="none" stroke="#000000" d="M477.4292,-266.696C475.4711,-276.1556 473.0313,-287.9432 470.8342,-298.5578"/>
<polygon fill="#000000" stroke="#000000" points="467.3445,-298.1497 468.7449,-308.6516 474.1992,-299.5686 467.3445,-298.1497"/>
</g>
<!-- 12956&#45;&gt;3356 -->
<g id="edge35" class="edge">
<title>12956&#45;&gt;3356</title>
<path fill="none" stroke="#000000" d="M336.2298,-236.2471C322.6991,-234.6168 306.8265,-232.7044 292.6868,-231.0007"/>
<polygon fill="#000000" stroke="#000000" points="293.1024,-227.5256 282.7555,-229.8041 292.265,-234.4753 293.1024,-227.5256"/>
</g>
</g>
</svg>
