<?xml version="1.0" encoding="UTF-8" standalone="no"?>
<!DOCTYPE svg PUBLIC "-//W3C//DTD SVG 1.1//EN"
 "http://www.w3.org/Graphics/SVG/1.1/DTD/svg11.dtd">
<!-- Generated by graphviz version 2.40.1 (20161225.0304)
 -->
<!-- Title: %3 Pages: 1 -->
<svg width="1705pt" height="1052pt"
 viewBox="0.00 0.00 1705.05 1052.00" xmlns="http://www.w3.org/2000/svg" xmlns:xlink="http://www.w3.org/1999/xlink">
<g id="graph0" class="graph" transform="scale(1 1) rotate(0) translate(4 1048)">
<title>%3</title>
<polygon fill="#ffffff" stroke="transparent" points="-4,4 -4,-1048 1701.0467,-1048 1701.0467,4 -4,4"/>
<!-- 174 -->
<g id="node1" class="node">
<title>174</title>
<ellipse fill="none" stroke="#000000" cx="442" cy="-306" rx="27" ry="18"/>
<text text-anchor="middle" x="442" y="-302.3" font-family="Times,serif" font-size="14.00" fill="#000000">174</text>
</g>
<!-- 209 -->
<g id="node2" class="node">
<title>209</title>
<ellipse fill="none" stroke="#000000" cx="361" cy="-234" rx="27" ry="18"/>
<text text-anchor="middle" x="361" y="-230.3" font-family="Times,serif" font-size="14.00" fill="#000000">209</text>
</g>
<!-- 174&#45;&gt;209 -->
<g id="edge1" class="edge">
<title>174&#45;&gt;209</title>
<path fill="none" stroke="#000000" d="M425.6084,-291.4297C413.9707,-281.0851 398.1572,-267.0286 385.0881,-255.4116"/>
<polygon fill="#000000" stroke="#000000" points="387.1666,-252.5763 377.3672,-248.5486 382.516,-257.8082 387.1666,-252.5763"/>
</g>
<!-- 1299 -->
<g id="node8" class="node">
<title>1299</title>
<ellipse fill="none" stroke="#000000" cx="251" cy="-162" rx="28.6953" ry="18"/>
<text text-anchor="middle" x="251" y="-158.3" font-family="Times,serif" font-size="14.00" fill="#000000">1299</text>
</g>
<!-- 209&#45;&gt;1299 -->
<g id="edge2" class="edge">
<title>209&#45;&gt;1299</title>
<path fill="none" stroke="#000000" d="M341.5874,-221.2936C324.365,-210.0207 298.9838,-193.4076 279.4658,-180.6322"/>
<polygon fill="#000000" stroke="#000000" points="281.2449,-177.6136 270.961,-175.0654 277.4112,-183.4705 281.2449,-177.6136"/>
</g>
<!-- 2828 -->
<g id="node14" class="node">
<title>2828</title>
<ellipse fill="none" stroke="#000000" cx="361" cy="-162" rx="28.6953" ry="18"/>
<text text-anchor="middle" x="361" y="-158.3" font-family="Times,serif" font-size="14.00" fill="#000000">2828</text>
</g>
<!-- 209&#45;&gt;2828 -->
<g id="edge3" class="edge">
<title>209&#45;&gt;2828</title>
<path fill="none" stroke="#000000" d="M361,-215.8314C361,-208.131 361,-198.9743 361,-190.4166"/>
<polygon fill="#000000" stroke="#000000" points="364.5001,-190.4132 361,-180.4133 357.5001,-190.4133 364.5001,-190.4132"/>
</g>
<!-- 701 -->
<g id="node3" class="node">
<title>701</title>
<ellipse fill="none" stroke="#000000" cx="27" cy="-18" rx="27" ry="18"/>
<text text-anchor="middle" x="27" y="-14.3" font-family="Times,serif" font-size="14.00" fill="#000000">701</text>
</g>
<!-- 703 -->
<g id="node4" class="node">
<title>703</title>
<ellipse fill="none" stroke="#000000" cx="535" cy="-306" rx="27" ry="18"/>
<text text-anchor="middle" x="535" y="-302.3" font-family="Times,serif" font-size="14.00" fill="#000000">703</text>
</g>
<!-- 9498 -->
<g id="node43" class="node">
<title>9498</title>
<ellipse fill="none" stroke="#000000" cx="495" cy="-234" rx="28.6953" ry="18"/>
<text text-anchor="middle" x="495" y="-230.3" font-family="Times,serif" font-size="14.00" fill="#000000">9498</text>
</g>
<!-- 703&#45;&gt;9498 -->
<g id="edge4" class="edge">
<title>703&#45;&gt;9498</title>
<path fill="none" stroke="#000000" d="M525.5206,-288.937C520.7585,-280.3654 514.8841,-269.7914 509.5647,-260.2165"/>
<polygon fill="#000000" stroke="#000000" points="512.6053,-258.4825 504.6893,-251.4407 506.4862,-261.882 512.6053,-258.4825"/>
</g>
<!-- 1221 -->
<g id="node5" class="node">
<title>1221</title>
<ellipse fill="none" stroke="#000000" cx="854" cy="-162" rx="28.6953" ry="18"/>
<text text-anchor="middle" x="854" y="-158.3" font-family="Times,serif" font-size="14.00" fill="#000000">1221</text>
</g>
<!-- 1239 -->
<g id="node6" class="node">
<title>1239</title>
<ellipse fill="none" stroke="#000000" cx="101" cy="-18" rx="28.6953" ry="18"/>
<text text-anchor="middle" x="101" y="-14.3" font-family="Times,serif" font-size="14.00" fill="#000000">1239</text>
</g>
<!-- 1273 -->
<g id="node7" class="node">
<title>1273</title>
<ellipse fill="none" stroke="#000000" cx="176" cy="-18" rx="28.6953" ry="18"/>
<text text-anchor="middle" x="176" y="-14.3" font-family="Times,serif" font-size="14.00" fill="#000000">1273</text>
</g>
<!-- 5511 -->
<g id="node27" class="node">
<title>5511</title>
<ellipse fill="none" stroke="#000000" cx="176" cy="-90" rx="28.6953" ry="18"/>
<text text-anchor="middle" x="176" y="-86.3" font-family="Times,serif" font-size="14.00" fill="#000000">5511</text>
</g>
<!-- 1299&#45;&gt;5511 -->
<g id="edge5" class="edge">
<title>1299&#45;&gt;5511</title>
<path fill="none" stroke="#000000" d="M235.0944,-146.7307C224.6537,-136.7075 210.8251,-123.4321 199.1702,-112.2434"/>
<polygon fill="#000000" stroke="#000000" points="201.5204,-109.6478 191.8826,-105.2473 196.6727,-114.6976 201.5204,-109.6478"/>
</g>
<!-- 6461 -->
<g id="node30" class="node">
<title>6461</title>
<ellipse fill="none" stroke="#000000" cx="251" cy="-90" rx="28.6953" ry="18"/>
<text text-anchor="middle" x="251" y="-86.3" font-family="Times,serif" font-size="14.00" fill="#000000">6461</text>
</g>
<!-- 1299&#45;&gt;6461 -->
<g id="edge6" class="edge">
<title>1299&#45;&gt;6461</title>
<path fill="none" stroke="#000000" d="M251,-143.8314C251,-136.131 251,-126.9743 251,-118.4166"/>
<polygon fill="#000000" stroke="#000000" points="254.5001,-118.4132 251,-108.4133 247.5001,-118.4133 254.5001,-118.4132"/>
</g>
<!-- 2497 -->
<g id="node9" class="node">
<title>2497</title>
<ellipse fill="none" stroke="#000000" cx="251" cy="-18" rx="28.6953" ry="18"/>
<text text-anchor="middle" x="251" y="-14.3" font-family="Times,serif" font-size="14.00" fill="#000000">2497</text>
</g>
<!-- 2516 -->
<g id="node10" class="node">
<title>2516</title>
<ellipse fill="none" stroke="#000000" cx="666" cy="-450" rx="28.6953" ry="18"/>
<text text-anchor="middle" x="666" y="-446.3" font-family="Times,serif" font-size="14.00" fill="#000000">2516</text>
</g>
<!-- 32787 -->
<g id="node58" class="node">
<title>32787</title>
<ellipse fill="none" stroke="#000000" cx="666" cy="-378" rx="32.4942" ry="18"/>
<text text-anchor="middle" x="666" y="-374.3" font-family="Times,serif" font-size="14.00" fill="#000000">32787</text>
</g>
<!-- 2516&#45;&gt;32787 -->
<g id="edge7" class="edge">
<title>2516&#45;&gt;32787</title>
<path fill="none" stroke="#000000" d="M666,-431.8314C666,-424.131 666,-414.9743 666,-406.4166"/>
<polygon fill="#000000" stroke="#000000" points="669.5001,-406.4132 666,-396.4133 662.5001,-406.4133 669.5001,-406.4132"/>
</g>
<!-- 2686 -->
<g id="node11" class="node">
<title>2686</title>
<ellipse fill="none" stroke="#000000" cx="743" cy="-450" rx="28.6953" ry="18"/>
<text text-anchor="middle" x="743" y="-446.3" font-family="Times,serif" font-size="14.00" fill="#000000">2686</text>
</g>
<!-- 3741 -->
<g id="node22" class="node">
<title>3741</title>
<ellipse fill="none" stroke="#000000" cx="745" cy="-378" rx="28.6953" ry="18"/>
<text text-anchor="middle" x="745" y="-374.3" font-family="Times,serif" font-size="14.00" fill="#000000">3741</text>
</g>
<!-- 2686&#45;&gt;3741 -->
<g id="edge8" class="edge">
<title>2686&#45;&gt;3741</title>
<path fill="none" stroke="#000000" d="M743.5047,-431.8314C743.7186,-424.131 743.9729,-414.9743 744.2106,-406.4166"/>
<polygon fill="#000000" stroke="#000000" points="747.7094,-406.5066 744.4885,-396.4133 740.7121,-406.3122 747.7094,-406.5066"/>
</g>
<!-- 2687 -->
<g id="node12" class="node">
<title>2687</title>
<ellipse fill="none" stroke="#000000" cx="704" cy="-522" rx="28.6953" ry="18"/>
<text text-anchor="middle" x="704" y="-518.3" font-family="Times,serif" font-size="14.00" fill="#000000">2687</text>
</g>
<!-- 2687&#45;&gt;2516 -->
<g id="edge9" class="edge">
<title>2687&#45;&gt;2516</title>
<path fill="none" stroke="#000000" d="M694.8013,-504.5708C690.3203,-496.0807 684.8379,-485.6929 679.8634,-476.2674"/>
<polygon fill="#000000" stroke="#000000" points="682.877,-474.4789 675.114,-467.2687 676.6863,-477.7462 682.877,-474.4789"/>
</g>
<!-- 2687&#45;&gt;2686 -->
<g id="edge10" class="edge">
<title>2687&#45;&gt;2686</title>
<path fill="none" stroke="#000000" d="M713.2425,-504.937C717.8376,-496.4537 723.495,-486.0092 728.6388,-476.513"/>
<polygon fill="#000000" stroke="#000000" points="731.8676,-477.9006 733.553,-467.4407 725.7126,-474.5666 731.8676,-477.9006"/>
</g>
<!-- 9505 -->
<g id="node44" class="node">
<title>9505</title>
<ellipse fill="none" stroke="#000000" cx="819" cy="-450" rx="28.6953" ry="18"/>
<text text-anchor="middle" x="819" y="-446.3" font-family="Times,serif" font-size="14.00" fill="#000000">9505</text>
</g>
<!-- 2687&#45;&gt;9505 -->
<g id="edge11" class="edge">
<title>2687&#45;&gt;9505</title>
<path fill="none" stroke="#000000" d="M724.295,-509.2936C742.4937,-497.8996 769.4062,-481.05 789.8958,-468.2217"/>
<polygon fill="#000000" stroke="#000000" points="791.9026,-471.0948 798.5211,-462.8216 788.1879,-465.1617 791.9026,-471.0948"/>
</g>
<!-- 2764 -->
<g id="node13" class="node">
<title>2764</title>
<ellipse fill="none" stroke="#000000" cx="629" cy="-306" rx="28.6953" ry="18"/>
<text text-anchor="middle" x="629" y="-302.3" font-family="Times,serif" font-size="14.00" fill="#000000">2764</text>
</g>
<!-- 7545 -->
<g id="node39" class="node">
<title>7545</title>
<ellipse fill="none" stroke="#000000" cx="629" cy="-234" rx="28.6953" ry="18"/>
<text text-anchor="middle" x="629" y="-230.3" font-family="Times,serif" font-size="14.00" fill="#000000">7545</text>
</g>
<!-- 2764&#45;&gt;7545 -->
<g id="edge12" class="edge">
<title>2764&#45;&gt;7545</title>
<path fill="none" stroke="#000000" d="M629,-287.8314C629,-280.131 629,-270.9743 629,-262.4166"/>
<polygon fill="#000000" stroke="#000000" points="632.5001,-262.4132 629,-252.4133 625.5001,-262.4133 632.5001,-262.4132"/>
</g>
<!-- 38333 -->
<g id="node60" class="node">
<title>38333</title>
<ellipse fill="none" stroke="#000000" cx="708" cy="-234" rx="32.4942" ry="18"/>
<text text-anchor="middle" x="708" y="-230.3" font-family="Times,serif" font-size="14.00" fill="#000000">38333</text>
</g>
<!-- 2764&#45;&gt;38333 -->
<g id="edge13" class="edge">
<title>2764&#45;&gt;38333</title>
<path fill="none" stroke="#000000" d="M645.3689,-291.0816C656.3426,-281.0801 670.9941,-267.7269 683.3669,-256.4504"/>
<polygon fill="#000000" stroke="#000000" points="686.0737,-258.719 691.107,-249.3961 681.3585,-253.5453 686.0737,-258.719"/>
</g>
<!-- 38561 -->
<g id="node61" class="node">
<title>38561</title>
<ellipse fill="none" stroke="#000000" cx="791" cy="-234" rx="32.4942" ry="18"/>
<text text-anchor="middle" x="791" y="-230.3" font-family="Times,serif" font-size="14.00" fill="#000000">38561</text>
</g>
<!-- 2764&#45;&gt;38561 -->
<g id="edge14" class="edge">
<title>2764&#45;&gt;38561</title>
<path fill="none" stroke="#000000" d="M651.6216,-294.7955C656.3537,-292.5078 661.3256,-290.1454 666,-288 674.6285,-284.0398 721.6492,-263.7862 755.4814,-249.2472"/>
<polygon fill="#000000" stroke="#000000" points="757.2589,-252.293 765.0653,-245.1298 754.4957,-245.8614 757.2589,-252.293"/>
</g>
<!-- 2914 -->
<g id="node15" class="node">
<title>2914</title>
<ellipse fill="none" stroke="#000000" cx="618" cy="-594" rx="28.6953" ry="18"/>
<text text-anchor="middle" x="618" y="-590.3" font-family="Times,serif" font-size="14.00" fill="#000000">2914</text>
</g>
<!-- 6453 -->
<g id="node29" class="node">
<title>6453</title>
<ellipse fill="none" stroke="#000000" cx="607" cy="-522" rx="28.6953" ry="18"/>
<text text-anchor="middle" x="607" y="-518.3" font-family="Times,serif" font-size="14.00" fill="#000000">6453</text>
</g>
<!-- 2914&#45;&gt;6453 -->
<g id="edge15" class="edge">
<title>2914&#45;&gt;6453</title>
<path fill="none" stroke="#000000" d="M615.2242,-575.8314C614.0478,-568.131 612.6489,-558.9743 611.3414,-550.4166"/>
<polygon fill="#000000" stroke="#000000" points="614.7833,-549.7699 609.8131,-540.4133 607.8636,-550.8272 614.7833,-549.7699"/>
</g>
<!-- 3257 -->
<g id="node16" class="node">
<title>3257</title>
<ellipse fill="none" stroke="#000000" cx="547" cy="-450" rx="28.6953" ry="18"/>
<text text-anchor="middle" x="547" y="-446.3" font-family="Times,serif" font-size="14.00" fill="#000000">3257</text>
</g>
<!-- 3491 -->
<g id="node19" class="node">
<title>3491</title>
<ellipse fill="none" stroke="#000000" cx="503" cy="-378" rx="28.6953" ry="18"/>
<text text-anchor="middle" x="503" y="-374.3" font-family="Times,serif" font-size="14.00" fill="#000000">3491</text>
</g>
<!-- 3257&#45;&gt;3491 -->
<g id="edge16" class="edge">
<title>3257&#45;&gt;3491</title>
<path fill="none" stroke="#000000" d="M536.5726,-432.937C531.2026,-424.1496 524.5465,-413.2579 518.5806,-403.4956"/>
<polygon fill="#000000" stroke="#000000" points="521.5536,-401.6483 513.3525,-394.9405 515.5806,-405.2984 521.5536,-401.6483"/>
</g>
<!-- 3320 -->
<g id="node17" class="node">
<title>3320</title>
<ellipse fill="none" stroke="#000000" cx="326" cy="-18" rx="28.6953" ry="18"/>
<text text-anchor="middle" x="326" y="-14.3" font-family="Times,serif" font-size="14.00" fill="#000000">3320</text>
</g>
<!-- 3356 -->
<g id="node18" class="node">
<title>3356</title>
<ellipse fill="none" stroke="#000000" cx="692" cy="-810" rx="28.6953" ry="18"/>
<text text-anchor="middle" x="692" y="-806.3" font-family="Times,serif" font-size="14.00" fill="#000000">3356</text>
</g>
<!-- 3549 -->
<g id="node20" class="node">
<title>3549</title>
<ellipse fill="none" stroke="#000000" cx="692" cy="-738" rx="28.6953" ry="18"/>
<text text-anchor="middle" x="692" y="-734.3" font-family="Times,serif" font-size="14.00" fill="#000000">3549</text>
</g>
<!-- 3356&#45;&gt;3549 -->
<g id="edge17" class="edge">
<title>3356&#45;&gt;3549</title>
<path fill="none" stroke="#000000" d="M692,-791.8314C692,-784.131 692,-774.9743 692,-766.4166"/>
<polygon fill="#000000" stroke="#000000" points="695.5001,-766.4132 692,-756.4133 688.5001,-766.4133 695.5001,-766.4132"/>
</g>
<!-- 3491&#45;&gt;174 -->
<g id="edge18" class="edge">
<title>3491&#45;&gt;174</title>
<path fill="none" stroke="#000000" d="M489.4621,-362.0209C481.4067,-352.5128 471.0367,-340.2728 462.0456,-329.6604"/>
<polygon fill="#000000" stroke="#000000" points="464.6347,-327.3019 455.5,-321.9345 459.2938,-331.8268 464.6347,-327.3019"/>
</g>
<!-- 6762 -->
<g id="node32" class="node">
<title>6762</title>
<ellipse fill="none" stroke="#000000" cx="653" cy="-666" rx="28.6953" ry="18"/>
<text text-anchor="middle" x="653" y="-662.3" font-family="Times,serif" font-size="14.00" fill="#000000">6762</text>
</g>
<!-- 3549&#45;&gt;6762 -->
<g id="edge19" class="edge">
<title>3549&#45;&gt;6762</title>
<path fill="none" stroke="#000000" d="M682.7575,-720.937C678.1624,-712.4537 672.505,-702.0092 667.3612,-692.513"/>
<polygon fill="#000000" stroke="#000000" points="670.2874,-690.5666 662.447,-683.4407 664.1324,-693.9006 670.2874,-690.5666"/>
</g>
<!-- 30070 -->
<g id="node57" class="node">
<title>30070</title>
<ellipse fill="none" stroke="#000000" cx="755" cy="-666" rx="32.4942" ry="18"/>
<text text-anchor="middle" x="755" y="-662.3" font-family="Times,serif" font-size="14.00" fill="#000000">30070</text>
</g>
<!-- 3549&#45;&gt;30070 -->
<g id="edge20" class="edge">
<title>3549&#45;&gt;30070</title>
<path fill="none" stroke="#000000" d="M705.9817,-722.0209C714.1857,-712.6449 724.7142,-700.6123 733.9094,-690.1035"/>
<polygon fill="#000000" stroke="#000000" points="736.6695,-692.2642 740.6206,-682.4336 731.4015,-687.6547 736.6695,-692.2642"/>
</g>
<!-- 3597 -->
<g id="node21" class="node">
<title>3597</title>
<ellipse fill="none" stroke="#000000" cx="654" cy="-954" rx="28.6953" ry="18"/>
<text text-anchor="middle" x="654" y="-950.3" font-family="Times,serif" font-size="14.00" fill="#000000">3597</text>
</g>
<!-- 37179 -->
<g id="node59" class="node">
<title>37179</title>
<ellipse fill="none" stroke="#000000" cx="858" cy="-306" rx="32.4942" ry="18"/>
<text text-anchor="middle" x="858" y="-302.3" font-family="Times,serif" font-size="14.00" fill="#000000">37179</text>
</g>
<!-- 3741&#45;&gt;37179 -->
<g id="edge21" class="edge">
<title>3741&#45;&gt;37179</title>
<path fill="none" stroke="#000000" d="M765.2021,-365.1278C782.5982,-354.0436 807.9556,-337.8867 827.7689,-325.2623"/>
<polygon fill="#000000" stroke="#000000" points="829.881,-328.0667 836.4338,-319.7413 826.1194,-322.1632 829.881,-328.0667"/>
</g>
<!-- 4635 -->
<g id="node23" class="node">
<title>4635</title>
<ellipse fill="none" stroke="#000000" cx="554" cy="-162" rx="28.6953" ry="18"/>
<text text-anchor="middle" x="554" y="-158.3" font-family="Times,serif" font-size="14.00" fill="#000000">4635</text>
</g>
<!-- 4637 -->
<g id="node24" class="node">
<title>4637</title>
<ellipse fill="none" stroke="#000000" cx="704" cy="-306" rx="28.6953" ry="18"/>
<text text-anchor="middle" x="704" y="-302.3" font-family="Times,serif" font-size="14.00" fill="#000000">4637</text>
</g>
<!-- 4739 -->
<g id="node25" class="node">
<title>4739</title>
<ellipse fill="none" stroke="#000000" cx="629" cy="-162" rx="28.6953" ry="18"/>
<text text-anchor="middle" x="629" y="-158.3" font-family="Times,serif" font-size="14.00" fill="#000000">4739</text>
</g>
<!-- 38880 -->
<g id="node62" class="node">
<title>38880</title>
<ellipse fill="none" stroke="#000000" cx="628" cy="-90" rx="32.4942" ry="18"/>
<text text-anchor="middle" x="628" y="-86.3" font-family="Times,serif" font-size="14.00" fill="#000000">38880</text>
</g>
<!-- 4739&#45;&gt;38880 -->
<g id="edge22" class="edge">
<title>4739&#45;&gt;38880</title>
<path fill="none" stroke="#000000" d="M628.7477,-143.8314C628.6407,-136.131 628.5135,-126.9743 628.3947,-118.4166"/>
<polygon fill="#000000" stroke="#000000" points="631.8944,-118.3637 628.2557,-108.4133 624.8951,-118.4609 631.8944,-118.3637"/>
</g>
<!-- 4755 -->
<g id="node26" class="node">
<title>4755</title>
<ellipse fill="none" stroke="#000000" cx="476" cy="-90" rx="28.6953" ry="18"/>
<text text-anchor="middle" x="476" y="-86.3" font-family="Times,serif" font-size="14.00" fill="#000000">4755</text>
</g>
<!-- 9583 -->
<g id="node45" class="node">
<title>9583</title>
<ellipse fill="none" stroke="#000000" cx="476" cy="-18" rx="28.6953" ry="18"/>
<text text-anchor="middle" x="476" y="-14.3" font-family="Times,serif" font-size="14.00" fill="#000000">9583</text>
</g>
<!-- 4755&#45;&gt;9583 -->
<g id="edge23" class="edge">
<title>4755&#45;&gt;9583</title>
<path fill="none" stroke="#000000" d="M476,-71.8314C476,-64.131 476,-54.9743 476,-46.4166"/>
<polygon fill="#000000" stroke="#000000" points="479.5001,-46.4132 476,-36.4133 472.5001,-46.4133 479.5001,-46.4132"/>
</g>
<!-- 5692 -->
<g id="node28" class="node">
<title>5692</title>
<ellipse fill="none" stroke="#000000" cx="1148" cy="-1026" rx="28.6953" ry="18"/>
<text text-anchor="middle" x="1148" y="-1022.3" font-family="Times,serif" font-size="14.00" fill="#000000">5692</text>
</g>
<!-- 5692&#45;&gt;3597 -->
<g id="edge24" class="edge">
<title>5692&#45;&gt;3597</title>
<path fill="none" stroke="#000000" d="M1119.4155,-1023.8332C1032.6364,-1017.0637 773.2092,-995.3629 692,-972 689.834,-971.3769 687.6377,-970.6422 685.45,-969.832"/>
<polygon fill="#000000" stroke="#000000" points="686.6104,-966.5239 676.0335,-965.9077 683.9176,-972.9852 686.6104,-966.5239"/>
</g>
<!-- 10834 -->
<g id="node48" class="node">
<title>10834</title>
<ellipse fill="none" stroke="#000000" cx="733" cy="-954" rx="32.4942" ry="18"/>
<text text-anchor="middle" x="733" y="-950.3" font-family="Times,serif" font-size="14.00" fill="#000000">10834</text>
</g>
<!-- 5692&#45;&gt;10834 -->
<g id="edge25" class="edge">
<title>5692&#45;&gt;10834</title>
<path fill="none" stroke="#000000" d="M1119.4009,-1024.4071C1056.206,-1020.3384 900.3407,-1007.2744 775,-972 772.5277,-971.3042 770.009,-970.4966 767.4952,-969.6164"/>
<polygon fill="#000000" stroke="#000000" points="768.5223,-966.2617 757.9321,-965.946 766.0139,-972.7969 768.5223,-966.2617"/>
</g>
<!-- 11008 -->
<g id="node49" class="node">
<title>11008</title>
<ellipse fill="none" stroke="#000000" cx="816" cy="-954" rx="32.4942" ry="18"/>
<text text-anchor="middle" x="816" y="-950.3" font-family="Times,serif" font-size="14.00" fill="#000000">11008</text>
</g>
<!-- 5692&#45;&gt;11008 -->
<g id="edge26" class="edge">
<title>5692&#45;&gt;11008</title>
<path fill="none" stroke="#000000" d="M1119.5102,-1022.8151C1066.964,-1016.4771 951.605,-1000.3918 858,-972 855.5422,-971.2545 853.0344,-970.4097 850.5284,-969.5026"/>
<polygon fill="#000000" stroke="#000000" points="851.5706,-966.1522 840.9825,-965.7737 849.0236,-972.6724 851.5706,-966.1522"/>
</g>
<!-- 27865 -->
<g id="node55" class="node">
<title>27865</title>
<ellipse fill="none" stroke="#000000" cx="899" cy="-954" rx="32.4942" ry="18"/>
<text text-anchor="middle" x="899" y="-950.3" font-family="Times,serif" font-size="14.00" fill="#000000">27865</text>
</g>
<!-- 5692&#45;&gt;27865 -->
<g id="edge27" class="edge">
<title>5692&#45;&gt;27865</title>
<path fill="none" stroke="#000000" d="M1120.8227,-1020.2764C1080.889,-1011.5606 1004.2444,-993.6654 941,-972 938.5703,-971.1677 936.0834,-970.258 933.5926,-969.3038"/>
<polygon fill="#000000" stroke="#000000" points="934.6632,-965.9618 924.0797,-965.4727 932.0482,-972.455 934.6632,-965.9618"/>
</g>
<!-- 28065 -->
<g id="node56" class="node">
<title>28065</title>
<ellipse fill="none" stroke="#000000" cx="982" cy="-954" rx="32.4942" ry="18"/>
<text text-anchor="middle" x="982" y="-950.3" font-family="Times,serif" font-size="14.00" fill="#000000">28065</text>
</g>
<!-- 5692&#45;&gt;28065 -->
<g id="edge28" class="edge">
<title>5692&#45;&gt;28065</title>
<path fill="none" stroke="#000000" d="M1124.2162,-1015.6842C1096.1868,-1003.5268 1049.3574,-983.2153 1017.141,-969.2419"/>
<polygon fill="#000000" stroke="#000000" points="1018.2158,-965.8931 1007.6489,-965.1248 1015.4304,-972.315 1018.2158,-965.8931"/>
</g>
<!-- 52317 -->
<g id="node63" class="node">
<title>52317</title>
<ellipse fill="none" stroke="#000000" cx="1065" cy="-954" rx="32.4942" ry="18"/>
<text text-anchor="middle" x="1065" y="-950.3" font-family="Times,serif" font-size="14.00" fill="#000000">52317</text>
</g>
<!-- 5692&#45;&gt;52317 -->
<g id="edge29" class="edge">
<title>5692&#45;&gt;52317</title>
<path fill="none" stroke="#000000" d="M1131.2037,-1011.4297C1119.514,-1001.2892 1103.7126,-987.5821 1090.479,-976.1023"/>
<polygon fill="#000000" stroke="#000000" points="1092.4781,-973.2031 1082.6307,-969.2941 1087.8912,-978.4908 1092.4781,-973.2031"/>
</g>
<!-- 52375 -->
<g id="node64" class="node">
<title>52375</title>
<ellipse fill="none" stroke="#000000" cx="1148" cy="-954" rx="32.4942" ry="18"/>
<text text-anchor="middle" x="1148" y="-950.3" font-family="Times,serif" font-size="14.00" fill="#000000">52375</text>
</g>
<!-- 5692&#45;&gt;52375 -->
<g id="edge30" class="edge">
<title>5692&#45;&gt;52375</title>
<path fill="none" stroke="#000000" d="M1148,-1007.8314C1148,-1000.131 1148,-990.9743 1148,-982.4166"/>
<polygon fill="#000000" stroke="#000000" points="1151.5001,-982.4132 1148,-972.4133 1144.5001,-982.4133 1151.5001,-982.4132"/>
</g>
<!-- 52376 -->
<g id="node65" class="node">
<title>52376</title>
<ellipse fill="none" stroke="#000000" cx="1231" cy="-954" rx="32.4942" ry="18"/>
<text text-anchor="middle" x="1231" y="-950.3" font-family="Times,serif" font-size="14.00" fill="#000000">52376</text>
</g>
<!-- 5692&#45;&gt;52376 -->
<g id="edge31" class="edge">
<title>5692&#45;&gt;52376</title>
<path fill="none" stroke="#000000" d="M1164.7963,-1011.4297C1176.486,-1001.2892 1192.2874,-987.5821 1205.521,-976.1023"/>
<polygon fill="#000000" stroke="#000000" points="1208.1088,-978.4908 1213.3693,-969.2941 1203.5219,-973.2031 1208.1088,-978.4908"/>
</g>
<!-- 52380 -->
<g id="node66" class="node">
<title>52380</title>
<ellipse fill="none" stroke="#000000" cx="1314" cy="-954" rx="32.4942" ry="18"/>
<text text-anchor="middle" x="1314" y="-950.3" font-family="Times,serif" font-size="14.00" fill="#000000">52380</text>
</g>
<!-- 5692&#45;&gt;52380 -->
<g id="edge32" class="edge">
<title>5692&#45;&gt;52380</title>
<path fill="none" stroke="#000000" d="M1171.7838,-1015.6842C1199.8132,-1003.5268 1246.6426,-983.2153 1278.859,-969.2419"/>
<polygon fill="#000000" stroke="#000000" points="1280.5696,-972.315 1288.3511,-965.1248 1277.7842,-965.8931 1280.5696,-972.315"/>
</g>
<!-- 52413 -->
<g id="node67" class="node">
<title>52413</title>
<ellipse fill="none" stroke="#000000" cx="1397" cy="-954" rx="32.4942" ry="18"/>
<text text-anchor="middle" x="1397" y="-950.3" font-family="Times,serif" font-size="14.00" fill="#000000">52413</text>
</g>
<!-- 5692&#45;&gt;52413 -->
<g id="edge33" class="edge">
<title>5692&#45;&gt;52413</title>
<path fill="none" stroke="#000000" d="M1175.1773,-1020.2764C1215.111,-1011.5606 1291.7556,-993.6654 1355,-972 1357.4297,-971.1677 1359.9166,-970.258 1362.4074,-969.3038"/>
<polygon fill="#000000" stroke="#000000" points="1363.9518,-972.455 1371.9203,-965.4727 1361.3368,-965.9618 1363.9518,-972.455"/>
</g>
<!-- 52431 -->
<g id="node68" class="node">
<title>52431</title>
<ellipse fill="none" stroke="#000000" cx="1480" cy="-954" rx="32.4942" ry="18"/>
<text text-anchor="middle" x="1480" y="-950.3" font-family="Times,serif" font-size="14.00" fill="#000000">52431</text>
</g>
<!-- 5692&#45;&gt;52431 -->
<g id="edge34" class="edge">
<title>5692&#45;&gt;52431</title>
<path fill="none" stroke="#000000" d="M1176.4898,-1022.8151C1229.036,-1016.4771 1344.395,-1000.3918 1438,-972 1440.4578,-971.2545 1442.9656,-970.4097 1445.4716,-969.5026"/>
<polygon fill="#000000" stroke="#000000" points="1446.9764,-972.6724 1455.0175,-965.7737 1444.4294,-966.1522 1446.9764,-972.6724"/>
</g>
<!-- 262230 -->
<g id="node69" class="node">
<title>262230</title>
<ellipse fill="none" stroke="#000000" cx="1568" cy="-954" rx="37.0935" ry="18"/>
<text text-anchor="middle" x="1568" y="-950.3" font-family="Times,serif" font-size="14.00" fill="#000000">262230</text>
</g>
<!-- 5692&#45;&gt;262230 -->
<g id="edge35" class="edge">
<title>5692&#45;&gt;262230</title>
<path fill="none" stroke="#000000" d="M1176.5,-1024.0413C1239.4973,-1019.243 1394.9929,-1004.8146 1521,-972 1524.1286,-971.1853 1527.3346,-970.23 1530.5303,-969.1919"/>
<polygon fill="#000000" stroke="#000000" points="1531.7111,-972.4869 1539.9989,-965.8866 1529.404,-965.878 1531.7111,-972.4869"/>
</g>
<!-- 264608 -->
<g id="node70" class="node">
<title>264608</title>
<ellipse fill="none" stroke="#000000" cx="1660" cy="-954" rx="37.0935" ry="18"/>
<text text-anchor="middle" x="1660" y="-950.3" font-family="Times,serif" font-size="14.00" fill="#000000">264608</text>
</g>
<!-- 5692&#45;&gt;264608 -->
<g id="edge36" class="edge">
<title>5692&#45;&gt;264608</title>
<path fill="none" stroke="#000000" d="M1176.8256,-1025.2303C1250.6272,-1022.71 1451.9921,-1012.3639 1614,-972 1616.8085,-971.3003 1619.6759,-970.4722 1622.538,-969.5618"/>
<polygon fill="#000000" stroke="#000000" points="1623.8601,-972.8076 1632.1547,-966.216 1621.5599,-966.1963 1623.8601,-972.8076"/>
</g>
<!-- 6453&#45;&gt;3257 -->
<g id="edge37" class="edge">
<title>6453&#45;&gt;3257</title>
<path fill="none" stroke="#000000" d="M593.6841,-506.0209C585.8157,-496.5789 575.7023,-484.4427 566.9014,-473.8817"/>
<polygon fill="#000000" stroke="#000000" points="569.5769,-471.625 560.4862,-466.1834 564.1993,-476.1063 569.5769,-471.625"/>
</g>
<!-- 6461&#45;&gt;701 -->
<g id="edge38" class="edge">
<title>6461&#45;&gt;701</title>
<path fill="none" stroke="#000000" d="M229.0348,-78.3413C224.169,-76.0347 218.9775,-73.7798 214,-72 149.0363,-48.7704 127.8365,-59.5823 63,-36 61.1285,-35.3193 59.2274,-34.567 57.3267,-33.7676"/>
<polygon fill="#000000" stroke="#000000" points="58.5134,-30.4619 47.9632,-29.4904 55.6049,-36.829 58.5134,-30.4619"/>
</g>
<!-- 6461&#45;&gt;1239 -->
<g id="edge39" class="edge">
<title>6461&#45;&gt;1239</title>
<path fill="none" stroke="#000000" d="M228.3199,-78.9203C223.5919,-76.6236 218.6366,-74.2259 214,-72 180.3059,-55.8245 171.6941,-52.1755 138,-36 136.4062,-35.2348 134.7747,-34.4494 133.1277,-33.6547"/>
<polygon fill="#000000" stroke="#000000" points="134.2058,-30.2881 123.6801,-29.0797 131.1549,-36.5882 134.2058,-30.2881"/>
</g>
<!-- 6461&#45;&gt;1273 -->
<g id="edge40" class="edge">
<title>6461&#45;&gt;1273</title>
<path fill="none" stroke="#000000" d="M235.0944,-74.7307C224.6537,-64.7075 210.8251,-51.4321 199.1702,-40.2434"/>
<polygon fill="#000000" stroke="#000000" points="201.5204,-37.6478 191.8826,-33.2473 196.6727,-42.6976 201.5204,-37.6478"/>
</g>
<!-- 6461&#45;&gt;2497 -->
<g id="edge41" class="edge">
<title>6461&#45;&gt;2497</title>
<path fill="none" stroke="#000000" d="M251,-71.8314C251,-64.131 251,-54.9743 251,-46.4166"/>
<polygon fill="#000000" stroke="#000000" points="254.5001,-46.4132 251,-36.4133 247.5001,-46.4133 254.5001,-46.4132"/>
</g>
<!-- 6461&#45;&gt;3320 -->
<g id="edge42" class="edge">
<title>6461&#45;&gt;3320</title>
<path fill="none" stroke="#000000" d="M266.9056,-74.7307C277.3463,-64.7075 291.1749,-51.4321 302.8298,-40.2434"/>
<polygon fill="#000000" stroke="#000000" points="305.3273,-42.6976 310.1174,-33.2473 300.4796,-37.6478 305.3273,-42.6976"/>
</g>
<!-- 7018 -->
<g id="node36" class="node">
<title>7018</title>
<ellipse fill="none" stroke="#000000" cx="401" cy="-18" rx="28.6953" ry="18"/>
<text text-anchor="middle" x="401" y="-14.3" font-family="Times,serif" font-size="14.00" fill="#000000">7018</text>
</g>
<!-- 6461&#45;&gt;7018 -->
<g id="edge43" class="edge">
<title>6461&#45;&gt;7018</title>
<path fill="none" stroke="#000000" d="M273.9634,-79.084C296.8108,-68.2095 332.8596,-51.0151 364,-36 365.5925,-35.2321 367.223,-34.4445 368.8691,-33.6481"/>
<polygon fill="#000000" stroke="#000000" points="370.8436,-36.5804 378.314,-29.0674 367.789,-30.282 370.8436,-36.5804"/>
</g>
<!-- 6695 -->
<g id="node31" class="node">
<title>6695</title>
<ellipse fill="none" stroke="#000000" cx="553" cy="-18" rx="28.6953" ry="18"/>
<text text-anchor="middle" x="553" y="-14.3" font-family="Times,serif" font-size="14.00" fill="#000000">6695</text>
</g>
<!-- 6762&#45;&gt;2914 -->
<g id="edge44" class="edge">
<title>6762&#45;&gt;2914</title>
<path fill="none" stroke="#000000" d="M644.5275,-648.5708C640.4003,-640.0807 635.3507,-629.6929 630.7689,-620.2674"/>
<polygon fill="#000000" stroke="#000000" points="633.9143,-618.7322 626.3945,-611.2687 627.6187,-621.7926 633.9143,-618.7322"/>
</g>
<!-- 6904 -->
<g id="node33" class="node">
<title>6904</title>
<ellipse fill="none" stroke="#000000" cx="704" cy="-594" rx="28.6953" ry="18"/>
<text text-anchor="middle" x="704" y="-590.3" font-family="Times,serif" font-size="14.00" fill="#000000">6904</text>
</g>
<!-- 6904&#45;&gt;2687 -->
<g id="edge45" class="edge">
<title>6904&#45;&gt;2687</title>
<path fill="none" stroke="#000000" d="M704,-575.8314C704,-568.131 704,-558.9743 704,-550.4166"/>
<polygon fill="#000000" stroke="#000000" points="707.5001,-550.4132 704,-540.4133 700.5001,-550.4133 707.5001,-550.4132"/>
</g>
<!-- 6939 -->
<g id="node34" class="node">
<title>6939</title>
<ellipse fill="none" stroke="#000000" cx="704" cy="-162" rx="28.6953" ry="18"/>
<text text-anchor="middle" x="704" y="-158.3" font-family="Times,serif" font-size="14.00" fill="#000000">6939</text>
</g>
<!-- 12266 -->
<g id="node50" class="node">
<title>12266</title>
<ellipse fill="none" stroke="#000000" cx="746" cy="-90" rx="32.4942" ry="18"/>
<text text-anchor="middle" x="746" y="-86.3" font-family="Times,serif" font-size="14.00" fill="#000000">12266</text>
</g>
<!-- 6939&#45;&gt;12266 -->
<g id="edge46" class="edge">
<title>6939&#45;&gt;12266</title>
<path fill="none" stroke="#000000" d="M713.9534,-144.937C718.9535,-136.3654 725.1217,-125.7914 730.707,-116.2165"/>
<polygon fill="#000000" stroke="#000000" points="733.8107,-117.842 735.8263,-107.4407 727.7643,-114.3149 733.8107,-117.842"/>
</g>
<!-- 7016 -->
<g id="node35" class="node">
<title>7016</title>
<ellipse fill="none" stroke="#000000" cx="779" cy="-594" rx="28.6953" ry="18"/>
<text text-anchor="middle" x="779" y="-590.3" font-family="Times,serif" font-size="14.00" fill="#000000">7016</text>
</g>
<!-- 7922 -->
<g id="node40" class="node">
<title>7922</title>
<ellipse fill="none" stroke="#000000" cx="779" cy="-522" rx="28.6953" ry="18"/>
<text text-anchor="middle" x="779" y="-518.3" font-family="Times,serif" font-size="14.00" fill="#000000">7922</text>
</g>
<!-- 7016&#45;&gt;7922 -->
<g id="edge47" class="edge">
<title>7016&#45;&gt;7922</title>
<path fill="none" stroke="#000000" d="M779,-575.8314C779,-568.131 779,-558.9743 779,-550.4166"/>
<polygon fill="#000000" stroke="#000000" points="782.5001,-550.4132 779,-540.4133 775.5001,-550.4133 782.5001,-550.4132"/>
</g>
<!-- 7473 -->
<g id="node37" class="node">
<title>7473</title>
<ellipse fill="none" stroke="#000000" cx="820" cy="-378" rx="28.6953" ry="18"/>
<text text-anchor="middle" x="820" y="-374.3" font-family="Times,serif" font-size="14.00" fill="#000000">7473</text>
</g>
<!-- 7474 -->
<g id="node38" class="node">
<title>7474</title>
<ellipse fill="none" stroke="#000000" cx="779" cy="-306" rx="28.6953" ry="18"/>
<text text-anchor="middle" x="779" y="-302.3" font-family="Times,serif" font-size="14.00" fill="#000000">7474</text>
</g>
<!-- 7545&#45;&gt;4635 -->
<g id="edge48" class="edge">
<title>7545&#45;&gt;4635</title>
<path fill="none" stroke="#000000" d="M613.0944,-218.7307C602.6537,-208.7075 588.8251,-195.4321 577.1702,-184.2434"/>
<polygon fill="#000000" stroke="#000000" points="579.5204,-181.6478 569.8826,-177.2473 574.6727,-186.6976 579.5204,-181.6478"/>
</g>
<!-- 7545&#45;&gt;4739 -->
<g id="edge49" class="edge">
<title>7545&#45;&gt;4739</title>
<path fill="none" stroke="#000000" d="M629,-215.8314C629,-208.131 629,-198.9743 629,-190.4166"/>
<polygon fill="#000000" stroke="#000000" points="632.5001,-190.4132 629,-180.4133 625.5001,-190.4133 632.5001,-190.4132"/>
</g>
<!-- 7545&#45;&gt;6939 -->
<g id="edge50" class="edge">
<title>7545&#45;&gt;6939</title>
<path fill="none" stroke="#000000" d="M644.9056,-218.7307C655.3463,-208.7075 669.1749,-195.4321 680.8298,-184.2434"/>
<polygon fill="#000000" stroke="#000000" points="683.3273,-186.6976 688.1174,-177.2473 678.4796,-181.6478 683.3273,-186.6976"/>
</g>
<!-- 9942 -->
<g id="node46" class="node">
<title>9942</title>
<ellipse fill="none" stroke="#000000" cx="779" cy="-162" rx="28.6953" ry="18"/>
<text text-anchor="middle" x="779" y="-158.3" font-family="Times,serif" font-size="14.00" fill="#000000">9942</text>
</g>
<!-- 7545&#45;&gt;9942 -->
<g id="edge51" class="edge">
<title>7545&#45;&gt;9942</title>
<path fill="none" stroke="#000000" d="M651.9634,-223.084C674.8108,-212.2095 710.8596,-195.0151 742,-180 743.5925,-179.2321 745.223,-178.4445 746.8691,-177.6481"/>
<polygon fill="#000000" stroke="#000000" points="748.8436,-180.5804 756.314,-173.0674 745.789,-174.282 748.8436,-180.5804"/>
</g>
<!-- 9002 -->
<g id="node41" class="node">
<title>9002</title>
<ellipse fill="none" stroke="#000000" cx="628" cy="-18" rx="28.6953" ry="18"/>
<text text-anchor="middle" x="628" y="-14.3" font-family="Times,serif" font-size="14.00" fill="#000000">9002</text>
</g>
<!-- 9443 -->
<g id="node42" class="node">
<title>9443</title>
<ellipse fill="none" stroke="#000000" cx="703" cy="-18" rx="28.6953" ry="18"/>
<text text-anchor="middle" x="703" y="-14.3" font-family="Times,serif" font-size="14.00" fill="#000000">9443</text>
</g>
<!-- 10026 -->
<g id="node47" class="node">
<title>10026</title>
<ellipse fill="none" stroke="#000000" cx="475" cy="-162" rx="32.4942" ry="18"/>
<text text-anchor="middle" x="475" y="-158.3" font-family="Times,serif" font-size="14.00" fill="#000000">10026</text>
</g>
<!-- 9498&#45;&gt;10026 -->
<g id="edge52" class="edge">
<title>9498&#45;&gt;10026</title>
<path fill="none" stroke="#000000" d="M490.0562,-216.2022C487.8206,-208.1541 485.1274,-198.4588 482.6407,-189.5067"/>
<polygon fill="#000000" stroke="#000000" points="486.0051,-188.541 479.9563,-179.8425 479.2605,-190.4145 486.0051,-188.541"/>
</g>
<!-- 9505&#45;&gt;7473 -->
<g id="edge53" class="edge">
<title>9505&#45;&gt;7473</title>
<path fill="none" stroke="#000000" d="M819.2523,-431.8314C819.3593,-424.131 819.4865,-414.9743 819.6053,-406.4166"/>
<polygon fill="#000000" stroke="#000000" points="823.1049,-406.4609 819.7443,-396.4133 816.1056,-406.3637 823.1049,-406.4609"/>
</g>
<!-- 10026&#45;&gt;4755 -->
<g id="edge54" class="edge">
<title>10026&#45;&gt;4755</title>
<path fill="none" stroke="#000000" d="M475.2523,-143.8314C475.3593,-136.131 475.4865,-126.9743 475.6053,-118.4166"/>
<polygon fill="#000000" stroke="#000000" points="479.1049,-118.4609 475.7443,-108.4133 472.1056,-118.3637 479.1049,-118.4609"/>
</g>
<!-- 12956 -->
<g id="node51" class="node">
<title>12956</title>
<ellipse fill="none" stroke="#000000" cx="692" cy="-882" rx="32.4942" ry="18"/>
<text text-anchor="middle" x="692" y="-878.3" font-family="Times,serif" font-size="14.00" fill="#000000">12956</text>
</g>
<!-- 10834&#45;&gt;12956 -->
<g id="edge55" class="edge">
<title>10834&#45;&gt;12956</title>
<path fill="none" stroke="#000000" d="M723.075,-936.5708C718.19,-927.9922 712.2017,-917.4762 706.7903,-907.9732"/>
<polygon fill="#000000" stroke="#000000" points="709.8234,-906.2266 701.8336,-899.2687 703.7405,-909.6905 709.8234,-906.2266"/>
</g>
<!-- 22927 -->
<g id="node54" class="node">
<title>22927</title>
<ellipse fill="none" stroke="#000000" cx="775" cy="-882" rx="32.4942" ry="18"/>
<text text-anchor="middle" x="775" y="-878.3" font-family="Times,serif" font-size="14.00" fill="#000000">22927</text>
</g>
<!-- 10834&#45;&gt;22927 -->
<g id="edge56" class="edge">
<title>10834&#45;&gt;22927</title>
<path fill="none" stroke="#000000" d="M743.167,-936.5708C748.1712,-927.9922 754.3055,-917.4762 759.849,-907.9732"/>
<polygon fill="#000000" stroke="#000000" points="762.9111,-909.6701 764.9266,-899.2687 756.8646,-906.1429 762.9111,-909.6701"/>
</g>
<!-- 20454 -->
<g id="node53" class="node">
<title>20454</title>
<ellipse fill="none" stroke="#000000" cx="782" cy="-18" rx="32.4942" ry="18"/>
<text text-anchor="middle" x="782" y="-14.3" font-family="Times,serif" font-size="14.00" fill="#000000">20454</text>
</g>
<!-- 12266&#45;&gt;20454 -->
<g id="edge57" class="edge">
<title>12266&#45;&gt;20454</title>
<path fill="none" stroke="#000000" d="M754.7146,-72.5708C758.9285,-64.1431 764.0772,-53.8455 768.7623,-44.4755"/>
<polygon fill="#000000" stroke="#000000" points="771.8992,-46.0278 773.2409,-35.5182 765.6382,-42.8973 771.8992,-46.0278"/>
</g>
<!-- 12956&#45;&gt;3356 -->
<g id="edge58" class="edge">
<title>12956&#45;&gt;3356</title>
<path fill="none" stroke="#000000" d="M692,-863.8314C692,-856.131 692,-846.9743 692,-838.4166"/>
<polygon fill="#000000" stroke="#000000" points="695.5001,-838.4132 692,-828.4133 688.5001,-838.4133 695.5001,-838.4132"/>
</g>
<!-- 18540 -->
<g id="node52" class="node">
<title>18540</title>
<ellipse fill="none" stroke="#000000" cx="858" cy="-594" rx="32.4942" ry="18"/>
<text text-anchor="middle" x="858" y="-590.3" font-family="Times,serif" font-size="14.00" fill="#000000">18540</text>
</g>
<!-- 30070&#45;&gt;6904 -->
<g id="edge59" class="edge">
<title>30070&#45;&gt;6904</title>
<path fill="none" stroke="#000000" d="M742.9137,-648.937C736.5347,-639.9313 728.5901,-628.7154 721.5455,-618.7701"/>
<polygon fill="#000000" stroke="#000000" points="724.2848,-616.5821 715.6485,-610.4449 718.5726,-620.6283 724.2848,-616.5821"/>
</g>
<!-- 30070&#45;&gt;7016 -->
<g id="edge60" class="edge">
<title>30070&#45;&gt;7016</title>
<path fill="none" stroke="#000000" d="M760.9326,-648.2022C763.6153,-640.1541 766.8471,-630.4588 769.8311,-621.5067"/>
<polygon fill="#000000" stroke="#000000" points="773.2105,-622.4362 773.0525,-611.8425 766.5697,-620.2226 773.2105,-622.4362"/>
</g>
<!-- 30070&#45;&gt;18540 -->
<g id="edge61" class="edge">
<title>30070&#45;&gt;18540</title>
<path fill="none" stroke="#000000" d="M775.3495,-651.7751C790.7264,-641.0262 812.0382,-626.1287 829.1691,-614.1536"/>
<polygon fill="#000000" stroke="#000000" points="831.502,-616.7933 837.6928,-608.1953 827.4915,-611.056 831.502,-616.7933"/>
</g>
<!-- 32787&#45;&gt;703 -->
<g id="edge62" class="edge">
<title>32787&#45;&gt;703</title>
<path fill="none" stroke="#000000" d="M642.8814,-365.2936C621.2233,-353.3899 588.7312,-335.5317 565.0667,-322.5252"/>
<polygon fill="#000000" stroke="#000000" points="566.6049,-319.3768 556.1554,-317.6274 563.2332,-325.5113 566.6049,-319.3768"/>
</g>
<!-- 32787&#45;&gt;2764 -->
<g id="edge63" class="edge">
<title>32787&#45;&gt;2764</title>
<path fill="none" stroke="#000000" d="M657.0433,-360.5708C652.6803,-352.0807 647.3422,-341.6929 642.4985,-332.2674"/>
<polygon fill="#000000" stroke="#000000" points="645.5579,-330.5633 637.8742,-323.2687 639.3319,-333.7628 645.5579,-330.5633"/>
</g>
<!-- 32787&#45;&gt;4637 -->
<g id="edge64" class="edge">
<title>32787&#45;&gt;4637</title>
<path fill="none" stroke="#000000" d="M675.1987,-360.5708C679.6797,-352.0807 685.1621,-341.6929 690.1366,-332.2674"/>
<polygon fill="#000000" stroke="#000000" points="693.3137,-333.7462 694.886,-323.2687 687.123,-330.4789 693.3137,-333.7462"/>
</g>
<!-- 32787&#45;&gt;7474 -->
<g id="edge65" class="edge">
<title>32787&#45;&gt;7474</title>
<path fill="none" stroke="#000000" d="M687.5204,-364.2879C705.2901,-352.9656 730.6704,-336.7941 750.1915,-324.3558"/>
<polygon fill="#000000" stroke="#000000" points="752.1472,-327.2599 758.7,-318.9345 748.3857,-321.3564 752.1472,-327.2599"/>
</g>
<!-- 38333&#45;&gt;1221 -->
<g id="edge66" class="edge">
<title>38333&#45;&gt;1221</title>
<path fill="none" stroke="#000000" d="M732.4371,-221.9488C757.1263,-209.7733 795.3789,-190.909 822.3689,-177.5989"/>
<polygon fill="#000000" stroke="#000000" points="823.9845,-180.7047 831.4052,-173.1427 820.8884,-174.4266 823.9845,-180.7047"/>
</g>
<!-- 38880&#45;&gt;6695 -->
<g id="edge67" class="edge">
<title>38880&#45;&gt;6695</title>
<path fill="none" stroke="#000000" d="M611.7261,-74.3771C601.2652,-64.3346 587.5184,-51.1377 575.9551,-40.0369"/>
<polygon fill="#000000" stroke="#000000" points="578.3659,-37.4995 568.7282,-33.099 573.5182,-42.5493 578.3659,-37.4995"/>
</g>
<!-- 38880&#45;&gt;9002 -->
<g id="edge68" class="edge">
<title>38880&#45;&gt;9002</title>
<path fill="none" stroke="#000000" d="M628,-71.8314C628,-64.131 628,-54.9743 628,-46.4166"/>
<polygon fill="#000000" stroke="#000000" points="631.5001,-46.4132 628,-36.4133 624.5001,-46.4133 631.5001,-46.4132"/>
</g>
<!-- 38880&#45;&gt;9443 -->
<g id="edge69" class="edge">
<title>38880&#45;&gt;9443</title>
<path fill="none" stroke="#000000" d="M644.2739,-74.3771C654.7348,-64.3346 668.4816,-51.1377 680.0449,-40.0369"/>
<polygon fill="#000000" stroke="#000000" points="682.4818,-42.5493 687.2718,-33.099 677.6341,-37.4995 682.4818,-42.5493"/>
</g>
</g>
</svg>
