<?xml version="1.0" encoding="UTF-8" standalone="no"?>
<!DOCTYPE svg PUBLIC "-//W3C//DTD SVG 1.1//EN"
 "http://www.w3.org/Graphics/SVG/1.1/DTD/svg11.dtd">
<!-- Generated by graphviz version 2.40.1 (20161225.0304)
 -->
<!-- Title: %3 Pages: 1 -->
<svg width="1250pt" height="2722pt"
 viewBox="0.00 0.00 1250.00 2722.00" xmlns="http://www.w3.org/2000/svg" xmlns:xlink="http://www.w3.org/1999/xlink">
<g id="graph0" class="graph" transform="scale(1 1) rotate(0) translate(4 2718)">
<title>%3</title>
<polygon fill="#ffffff" stroke="transparent" points="-4,4 -4,-2718 1246,-2718 1246,4 -4,4"/>
<!-- 174 -->
<g id="node1" class="node">
<title>174</title>
<ellipse fill="none" stroke="#000000" cx="524.9845" cy="-400.8885" rx="27" ry="18"/>
<text text-anchor="middle" x="524.9845" y="-397.1885" font-family="Times,serif" font-size="14.00" fill="#000000">174</text>
</g>
<!-- 209 -->
<g id="node2" class="node">
<title>209</title>
<ellipse fill="none" stroke="#000000" cx="615.2768" cy="-278.1378" rx="27" ry="18"/>
<text text-anchor="middle" x="615.2768" y="-274.4378" font-family="Times,serif" font-size="14.00" fill="#000000">209</text>
</g>
<!-- 174&#45;&gt;209 -->
<g id="edge1" class="edge">
<title>174&#45;&gt;209</title>
<path fill="none" stroke="#000000" d="M536.9746,-384.5881C552.3554,-363.6782 579.179,-327.212 597.0824,-302.8727"/>
<polygon fill="#000000" stroke="#000000" points="600.1311,-304.6349 603.2371,-294.5056 594.4923,-300.4871 600.1311,-304.6349"/>
</g>
<!-- 1299 -->
<g id="node8" class="node">
<title>1299</title>
<ellipse fill="none" stroke="#000000" cx="723.8067" cy="-199.2718" rx="28.6953" ry="18"/>
<text text-anchor="middle" x="723.8067" y="-195.5718" font-family="Times,serif" font-size="14.00" fill="#000000">1299</text>
</g>
<!-- 209&#45;&gt;1299 -->
<g id="edge2" class="edge">
<title>209&#45;&gt;1299</title>
<path fill="none" stroke="#000000" d="M633.6874,-264.7592C650.9667,-252.2028 677.0252,-233.2668 696.6834,-218.9816"/>
<polygon fill="#000000" stroke="#000000" points="698.9088,-221.691 704.941,-212.981 694.7938,-216.0282 698.9088,-221.691"/>
</g>
<!-- 2828 -->
<g id="node14" class="node">
<title>2828</title>
<ellipse fill="none" stroke="#000000" cx="549.8847" cy="-189.2941" rx="28.6953" ry="18"/>
<text text-anchor="middle" x="549.8847" y="-185.5941" font-family="Times,serif" font-size="14.00" fill="#000000">2828</text>
</g>
<!-- 209&#45;&gt;2828 -->
<g id="edge3" class="edge">
<title>209&#45;&gt;2828</title>
<path fill="none" stroke="#000000" d="M603.2829,-261.8425C593.4814,-248.5259 579.4635,-229.4807 568.2495,-214.2451"/>
<polygon fill="#000000" stroke="#000000" points="570.7706,-211.7659 562.024,-205.787 565.1331,-215.9154 570.7706,-211.7659"/>
</g>
<!-- 701 -->
<g id="node3" class="node">
<title>701</title>
<ellipse fill="none" stroke="#000000" cx="916.4202" cy="-24.1831" rx="27" ry="18"/>
<text text-anchor="middle" x="916.4202" y="-20.4831" font-family="Times,serif" font-size="14.00" fill="#000000">701</text>
</g>
<!-- 703 -->
<g id="node4" class="node">
<title>703</title>
<ellipse fill="none" stroke="#000000" cx="450.527" cy="-2079.9135" rx="27" ry="18"/>
<text text-anchor="middle" x="450.527" y="-2076.2135" font-family="Times,serif" font-size="14.00" fill="#000000">703</text>
</g>
<!-- 9498 -->
<g id="node43" class="node">
<title>9498</title>
<ellipse fill="none" stroke="#000000" cx="548.7993" cy="-2147.2207" rx="28.6953" ry="18"/>
<text text-anchor="middle" x="548.7993" y="-2143.5207" font-family="Times,serif" font-size="14.00" fill="#000000">9498</text>
</g>
<!-- 703&#45;&gt;9498 -->
<g id="edge4" class="edge">
<title>703&#45;&gt;9498</title>
<path fill="none" stroke="#000000" d="M469.4749,-2092.891C483.9694,-2102.8184 504.186,-2116.6648 520.5818,-2127.8944"/>
<polygon fill="#000000" stroke="#000000" points="519.0088,-2131.0592 529.2369,-2133.8223 522.9643,-2125.2839 519.0088,-2131.0592"/>
</g>
<!-- 1221 -->
<g id="node5" class="node">
<title>1221</title>
<ellipse fill="none" stroke="#000000" cx="45.4841" cy="-2230.3958" rx="28.6953" ry="18"/>
<text text-anchor="middle" x="45.4841" y="-2226.6958" font-family="Times,serif" font-size="14.00" fill="#000000">1221</text>
</g>
<!-- 1239 -->
<g id="node6" class="node">
<title>1239</title>
<ellipse fill="none" stroke="#000000" cx="902.3319" cy="-227.6619" rx="28.6953" ry="18"/>
<text text-anchor="middle" x="902.3319" y="-223.9619" font-family="Times,serif" font-size="14.00" fill="#000000">1239</text>
</g>
<!-- 1273 -->
<g id="node7" class="node">
<title>1273</title>
<ellipse fill="none" stroke="#000000" cx="970.7145" cy="-68.7246" rx="28.6953" ry="18"/>
<text text-anchor="middle" x="970.7145" y="-65.0246" font-family="Times,serif" font-size="14.00" fill="#000000">1273</text>
</g>
<!-- 5511 -->
<g id="node27" class="node">
<title>5511</title>
<ellipse fill="none" stroke="#000000" cx="700.4324" cy="-85.1398" rx="28.6953" ry="18"/>
<text text-anchor="middle" x="700.4324" y="-81.4398" font-family="Times,serif" font-size="14.00" fill="#000000">5511</text>
</g>
<!-- 1299&#45;&gt;5511 -->
<g id="edge5" class="edge">
<title>1299&#45;&gt;5511</title>
<path fill="none" stroke="#000000" d="M720.1029,-181.1872C716.3588,-162.905 710.5205,-134.3981 706.1757,-113.1834"/>
<polygon fill="#000000" stroke="#000000" points="709.5541,-112.2341 704.1188,-103.1397 702.6964,-113.6386 709.5541,-112.2341"/>
</g>
<!-- 6461 -->
<g id="node30" class="node">
<title>6461</title>
<ellipse fill="none" stroke="#000000" cx="878.4635" cy="-125.9678" rx="28.6953" ry="18"/>
<text text-anchor="middle" x="878.4635" y="-122.2678" font-family="Times,serif" font-size="14.00" fill="#000000">6461</text>
</g>
<!-- 1299&#45;&gt;6461 -->
<g id="edge6" class="edge">
<title>1299&#45;&gt;6461</title>
<path fill="none" stroke="#000000" d="M746.9604,-188.2974C773.3451,-175.7916 816.6399,-155.2708 846.2944,-141.2152"/>
<polygon fill="#000000" stroke="#000000" points="847.8672,-144.3431 855.4044,-136.8973 844.869,-138.0176 847.8672,-144.3431"/>
</g>
<!-- 2497 -->
<g id="node9" class="node">
<title>2497</title>
<ellipse fill="none" stroke="#000000" cx="974.9187" cy="-175.7513" rx="28.6953" ry="18"/>
<text text-anchor="middle" x="974.9187" y="-172.0513" font-family="Times,serif" font-size="14.00" fill="#000000">2497</text>
</g>
<!-- 2516 -->
<g id="node10" class="node">
<title>2516</title>
<ellipse fill="none" stroke="#000000" cx="276.8813" cy="-1816.1113" rx="28.6953" ry="18"/>
<text text-anchor="middle" x="276.8813" y="-1812.4113" font-family="Times,serif" font-size="14.00" fill="#000000">2516</text>
</g>
<!-- 32787 -->
<g id="node58" class="node">
<title>32787</title>
<ellipse fill="none" stroke="#000000" cx="313.8674" cy="-1984.7851" rx="32.4942" ry="18"/>
<text text-anchor="middle" x="313.8674" y="-1981.0851" font-family="Times,serif" font-size="14.00" fill="#000000">32787</text>
</g>
<!-- 2516&#45;&gt;32787 -->
<g id="edge7" class="edge">
<title>2516&#45;&gt;32787</title>
<path fill="none" stroke="#000000" d="M280.8394,-1834.1624C287.2908,-1863.5837 300.1176,-1922.0797 307.7489,-1956.8822"/>
<polygon fill="#000000" stroke="#000000" points="304.3769,-1957.8456 309.9377,-1966.8638 311.2145,-1956.3462 304.3769,-1957.8456"/>
</g>
<!-- 2686 -->
<g id="node11" class="node">
<title>2686</title>
<ellipse fill="none" stroke="#000000" cx="135.3374" cy="-1604.183" rx="28.6953" ry="18"/>
<text text-anchor="middle" x="135.3374" y="-1600.483" font-family="Times,serif" font-size="14.00" fill="#000000">2686</text>
</g>
<!-- 3741 -->
<g id="node22" class="node">
<title>3741</title>
<ellipse fill="none" stroke="#000000" cx="47.2526" cy="-1523.4819" rx="28.6953" ry="18"/>
<text text-anchor="middle" x="47.2526" y="-1519.7819" font-family="Times,serif" font-size="14.00" fill="#000000">3741</text>
</g>
<!-- 2686&#45;&gt;3741 -->
<g id="edge8" class="edge">
<title>2686&#45;&gt;3741</title>
<path fill="none" stroke="#000000" d="M118.7693,-1589.0037C105.2739,-1576.6395 86.0482,-1559.0254 70.9288,-1545.1735"/>
<polygon fill="#000000" stroke="#000000" points="73.1865,-1542.4951 63.4488,-1538.3204 68.4578,-1547.6564 73.1865,-1542.4951"/>
</g>
<!-- 2687 -->
<g id="node12" class="node">
<title>2687</title>
<ellipse fill="none" stroke="#000000" cx="245.7321" cy="-1637.6375" rx="28.6953" ry="18"/>
<text text-anchor="middle" x="245.7321" y="-1633.9375" font-family="Times,serif" font-size="14.00" fill="#000000">2687</text>
</g>
<!-- 2687&#45;&gt;2516 -->
<g id="edge9" class="edge">
<title>2687&#45;&gt;2516</title>
<path fill="none" stroke="#000000" d="M248.8903,-1655.7327C254.3241,-1686.8665 265.4799,-1750.7855 271.9467,-1787.8383"/>
<polygon fill="#000000" stroke="#000000" points="268.5474,-1788.719 273.7147,-1797.9683 275.4432,-1787.5154 268.5474,-1788.719"/>
</g>
<!-- 2687&#45;&gt;2686 -->
<g id="edge10" class="edge">
<title>2687&#45;&gt;2686</title>
<path fill="none" stroke="#000000" d="M219.8495,-1629.7939C205.4208,-1625.4213 187.2273,-1619.9079 171.4199,-1615.1176"/>
<polygon fill="#000000" stroke="#000000" points="172.0257,-1611.644 161.4404,-1612.0933 169.9955,-1618.3432 172.0257,-1611.644"/>
</g>
<!-- 9505 -->
<g id="node44" class="node">
<title>9505</title>
<ellipse fill="none" stroke="#000000" cx="344.4598" cy="-1679.9742" rx="28.6953" ry="18"/>
<text text-anchor="middle" x="344.4598" y="-1676.2742" font-family="Times,serif" font-size="14.00" fill="#000000">9505</text>
</g>
<!-- 2687&#45;&gt;9505 -->
<g id="edge11" class="edge">
<title>2687&#45;&gt;9505</title>
<path fill="none" stroke="#000000" d="M269.3799,-1647.7782C281.8659,-1653.1325 297.3973,-1659.7927 311.0885,-1665.6638"/>
<polygon fill="#000000" stroke="#000000" points="310.0928,-1669.045 320.6628,-1669.7695 312.8516,-1662.6116 310.0928,-1669.045"/>
</g>
<!-- 2764 -->
<g id="node13" class="node">
<title>2764</title>
<ellipse fill="none" stroke="#000000" cx="298.866" cy="-2160.6831" rx="28.6953" ry="18"/>
<text text-anchor="middle" x="298.866" y="-2156.9831" font-family="Times,serif" font-size="14.00" fill="#000000">2764</text>
</g>
<!-- 7545 -->
<g id="node39" class="node">
<title>7545</title>
<ellipse fill="none" stroke="#000000" cx="344.8731" cy="-2304.1679" rx="28.6953" ry="18"/>
<text text-anchor="middle" x="344.8731" y="-2300.4679" font-family="Times,serif" font-size="14.00" fill="#000000">7545</text>
</g>
<!-- 2764&#45;&gt;7545 -->
<g id="edge12" class="edge">
<title>2764&#45;&gt;7545</title>
<path fill="none" stroke="#000000" d="M304.5998,-2178.5655C312.4946,-2203.1874 326.7849,-2247.7553 336.0476,-2276.6434"/>
<polygon fill="#000000" stroke="#000000" points="332.8253,-2278.0571 339.2116,-2286.5109 339.4911,-2275.9198 332.8253,-2278.0571"/>
</g>
<!-- 38333 -->
<g id="node60" class="node">
<title>38333</title>
<ellipse fill="none" stroke="#000000" cx="151.9329" cy="-2192.93" rx="32.4942" ry="18"/>
<text text-anchor="middle" x="151.9329" y="-2189.23" font-family="Times,serif" font-size="14.00" fill="#000000">38333</text>
</g>
<!-- 2764&#45;&gt;38333 -->
<g id="edge13" class="edge">
<title>2764&#45;&gt;38333</title>
<path fill="none" stroke="#000000" d="M271.5733,-2166.6729C249.326,-2171.5555 217.5784,-2178.523 192.3772,-2184.0538"/>
<polygon fill="#000000" stroke="#000000" points="191.3927,-2180.6865 182.3755,-2186.2489 192.8933,-2187.5238 191.3927,-2180.6865"/>
</g>
<!-- 38561 -->
<g id="node61" class="node">
<title>38561</title>
<ellipse fill="none" stroke="#000000" cx="204.4241" cy="-2241.7168" rx="32.4942" ry="18"/>
<text text-anchor="middle" x="204.4241" y="-2238.0168" font-family="Times,serif" font-size="14.00" fill="#000000">38561</text>
</g>
<!-- 2764&#45;&gt;38561 -->
<g id="edge14" class="edge">
<title>2764&#45;&gt;38561</title>
<path fill="none" stroke="#000000" d="M281.5439,-2175.546C267.0829,-2187.9539 246.2667,-2205.8148 229.905,-2219.8535"/>
<polygon fill="#000000" stroke="#000000" points="227.5882,-2217.2296 222.2781,-2226.3976 232.1465,-2222.542 227.5882,-2217.2296"/>
</g>
<!-- 2914 -->
<g id="node15" class="node">
<title>2914</title>
<ellipse fill="none" stroke="#000000" cx="375.6002" cy="-924.5856" rx="28.6953" ry="18"/>
<text text-anchor="middle" x="375.6002" y="-920.8856" font-family="Times,serif" font-size="14.00" fill="#000000">2914</text>
</g>
<!-- 6453 -->
<g id="node29" class="node">
<title>6453</title>
<ellipse fill="none" stroke="#000000" cx="385.4596" cy="-799.9246" rx="28.6953" ry="18"/>
<text text-anchor="middle" x="385.4596" y="-796.2246" font-family="Times,serif" font-size="14.00" fill="#000000">6453</text>
</g>
<!-- 2914&#45;&gt;6453 -->
<g id="edge15" class="edge">
<title>2914&#45;&gt;6453</title>
<path fill="none" stroke="#000000" d="M377.0338,-906.4588C378.6549,-885.963 381.3149,-852.3293 383.2125,-828.3366"/>
<polygon fill="#000000" stroke="#000000" points="386.7248,-828.3181 384.0242,-818.0733 379.7466,-827.7661 386.7248,-828.3181"/>
</g>
<!-- 3257 -->
<g id="node16" class="node">
<title>3257</title>
<ellipse fill="none" stroke="#000000" cx="418.2033" cy="-647.0591" rx="28.6953" ry="18"/>
<text text-anchor="middle" x="418.2033" y="-643.3591" font-family="Times,serif" font-size="14.00" fill="#000000">3257</text>
</g>
<!-- 3491 -->
<g id="node19" class="node">
<title>3491</title>
<ellipse fill="none" stroke="#000000" cx="464.5234" cy="-520.8563" rx="28.6953" ry="18"/>
<text text-anchor="middle" x="464.5234" y="-517.1563" font-family="Times,serif" font-size="14.00" fill="#000000">3491</text>
</g>
<!-- 3257&#45;&gt;3491 -->
<g id="edge16" class="edge">
<title>3257&#45;&gt;3491</title>
<path fill="none" stroke="#000000" d="M424.6439,-629.5112C432.3782,-608.4386 445.4391,-572.8531 454.4967,-548.1748"/>
<polygon fill="#000000" stroke="#000000" points="457.8283,-549.2557 457.9882,-538.6621 451.2569,-546.8438 457.8283,-549.2557"/>
</g>
<!-- 3320 -->
<g id="node17" class="node">
<title>3320</title>
<ellipse fill="none" stroke="#000000" cx="849.6929" cy="-17.6259" rx="28.6953" ry="18"/>
<text text-anchor="middle" x="849.6929" y="-13.9259" font-family="Times,serif" font-size="14.00" fill="#000000">3320</text>
</g>
<!-- 3356 -->
<g id="node18" class="node">
<title>3356</title>
<ellipse fill="none" stroke="#000000" cx="551.8505" cy="-1213.4915" rx="28.6953" ry="18"/>
<text text-anchor="middle" x="551.8505" y="-1209.7915" font-family="Times,serif" font-size="14.00" fill="#000000">3356</text>
</g>
<!-- 3549 -->
<g id="node20" class="node">
<title>3549</title>
<ellipse fill="none" stroke="#000000" cx="389.6958" cy="-1214.7294" rx="28.6953" ry="18"/>
<text text-anchor="middle" x="389.6958" y="-1211.0294" font-family="Times,serif" font-size="14.00" fill="#000000">3549</text>
</g>
<!-- 3356&#45;&gt;3549 -->
<g id="edge17" class="edge">
<title>3356&#45;&gt;3549</title>
<path fill="none" stroke="#000000" d="M523.2338,-1213.71C496.9165,-1213.9109 457.6758,-1214.2104 428.5351,-1214.4329"/>
<polygon fill="#000000" stroke="#000000" points="428.2717,-1210.9347 418.2987,-1214.511 428.3252,-1217.9345 428.2717,-1210.9347"/>
</g>
<!-- 3491&#45;&gt;174 -->
<g id="edge18" class="edge">
<title>3491&#45;&gt;174</title>
<path fill="none" stroke="#000000" d="M473.186,-503.6679C483.2879,-483.6236 500.0941,-450.2764 511.8142,-427.0213"/>
<polygon fill="#000000" stroke="#000000" points="514.9629,-428.5503 516.338,-418.045 508.7119,-425.3999 514.9629,-428.5503"/>
</g>
<!-- 6762 -->
<g id="node32" class="node">
<title>6762</title>
<ellipse fill="none" stroke="#000000" cx="382.2188" cy="-1080.1584" rx="28.6953" ry="18"/>
<text text-anchor="middle" x="382.2188" y="-1076.4584" font-family="Times,serif" font-size="14.00" fill="#000000">6762</text>
</g>
<!-- 3549&#45;&gt;6762 -->
<g id="edge19" class="edge">
<title>3549&#45;&gt;6762</title>
<path fill="none" stroke="#000000" d="M388.6874,-1196.5805C387.4332,-1174.0069 385.2775,-1135.2094 383.802,-1108.6541"/>
<polygon fill="#000000" stroke="#000000" points="387.2845,-1108.2399 383.2351,-1098.4495 380.2953,-1108.6283 387.2845,-1108.2399"/>
</g>
<!-- 30070 -->
<g id="node57" class="node">
<title>30070</title>
<ellipse fill="none" stroke="#000000" cx="276.9004" cy="-1317.767" rx="32.4942" ry="18"/>
<text text-anchor="middle" x="276.9004" y="-1314.067" font-family="Times,serif" font-size="14.00" fill="#000000">30070</text>
</g>
<!-- 3549&#45;&gt;30070 -->
<g id="edge20" class="edge">
<title>3549&#45;&gt;30070</title>
<path fill="none" stroke="#000000" d="M373.0524,-1229.9329C354.1683,-1247.1834 323.1851,-1275.4863 301.5075,-1295.2885"/>
<polygon fill="#000000" stroke="#000000" points="299.0044,-1292.8346 293.9818,-1302.1633 303.7256,-1298.0029 299.0044,-1292.8346"/>
</g>
<!-- 3597 -->
<g id="node21" class="node">
<title>3597</title>
<ellipse fill="none" stroke="#000000" cx="1054.4018" cy="-1366.0316" rx="28.6953" ry="18"/>
<text text-anchor="middle" x="1054.4018" y="-1362.3316" font-family="Times,serif" font-size="14.00" fill="#000000">3597</text>
</g>
<!-- 37179 -->
<g id="node59" class="node">
<title>37179</title>
<ellipse fill="none" stroke="#000000" cx="64.7826" cy="-1420.4159" rx="32.4942" ry="18"/>
<text text-anchor="middle" x="64.7826" y="-1416.7159" font-family="Times,serif" font-size="14.00" fill="#000000">37179</text>
</g>
<!-- 3741&#45;&gt;37179 -->
<g id="edge21" class="edge">
<title>3741&#45;&gt;37179</title>
<path fill="none" stroke="#000000" d="M50.3061,-1505.5292C52.9793,-1489.8121 56.908,-1466.7137 59.9984,-1448.5441"/>
<polygon fill="#000000" stroke="#000000" points="63.4789,-1448.954 61.7053,-1438.5087 56.578,-1447.7802 63.4789,-1448.954"/>
</g>
<!-- 4635 -->
<g id="node23" class="node">
<title>4635</title>
<ellipse fill="none" stroke="#000000" cx="361.5958" cy="-2418.3918" rx="28.6953" ry="18"/>
<text text-anchor="middle" x="361.5958" y="-2414.6918" font-family="Times,serif" font-size="14.00" fill="#000000">4635</text>
</g>
<!-- 4637 -->
<g id="node24" class="node">
<title>4637</title>
<ellipse fill="none" stroke="#000000" cx="204.3945" cy="-2002.2589" rx="28.6953" ry="18"/>
<text text-anchor="middle" x="204.3945" y="-1998.5589" font-family="Times,serif" font-size="14.00" fill="#000000">4637</text>
</g>
<!-- 4739 -->
<g id="node25" class="node">
<title>4739</title>
<ellipse fill="none" stroke="#000000" cx="290.7316" cy="-2424.7204" rx="28.6953" ry="18"/>
<text text-anchor="middle" x="290.7316" y="-2421.0204" font-family="Times,serif" font-size="14.00" fill="#000000">4739</text>
</g>
<!-- 38880 -->
<g id="node62" class="node">
<title>38880</title>
<ellipse fill="none" stroke="#000000" cx="247.1883" cy="-2576.3359" rx="32.4942" ry="18"/>
<text text-anchor="middle" x="247.1883" y="-2572.6359" font-family="Times,serif" font-size="14.00" fill="#000000">38880</text>
</g>
<!-- 4739&#45;&gt;38880 -->
<g id="edge22" class="edge">
<title>4739&#45;&gt;38880</title>
<path fill="none" stroke="#000000" d="M285.5656,-2442.7081C278.0365,-2468.9243 263.984,-2517.8543 255.1329,-2548.6733"/>
<polygon fill="#000000" stroke="#000000" points="251.744,-2547.794 252.3476,-2558.3716 258.4721,-2549.7263 251.744,-2547.794"/>
</g>
<!-- 4755 -->
<g id="node26" class="node">
<title>4755</title>
<ellipse fill="none" stroke="#000000" cx="761.0243" cy="-2332.6097" rx="28.6953" ry="18"/>
<text text-anchor="middle" x="761.0243" y="-2328.9097" font-family="Times,serif" font-size="14.00" fill="#000000">4755</text>
</g>
<!-- 9583 -->
<g id="node45" class="node">
<title>9583</title>
<ellipse fill="none" stroke="#000000" cx="858.6148" cy="-2420.0142" rx="28.6953" ry="18"/>
<text text-anchor="middle" x="858.6148" y="-2416.3142" font-family="Times,serif" font-size="14.00" fill="#000000">9583</text>
</g>
<!-- 4755&#45;&gt;9583 -->
<g id="edge23" class="edge">
<title>4755&#45;&gt;9583</title>
<path fill="none" stroke="#000000" d="M777.5792,-2347.4367C793.1415,-2361.3746 816.623,-2382.4053 834.3095,-2398.2457"/>
<polygon fill="#000000" stroke="#000000" points="832.1945,-2401.05 841.9787,-2405.1144 836.8646,-2395.8356 832.1945,-2401.05"/>
</g>
<!-- 5692 -->
<g id="node28" class="node">
<title>5692</title>
<ellipse fill="none" stroke="#000000" cx="1032.2921" cy="-1302.0589" rx="28.6953" ry="18"/>
<text text-anchor="middle" x="1032.2921" y="-1298.3589" font-family="Times,serif" font-size="14.00" fill="#000000">5692</text>
</g>
<!-- 5692&#45;&gt;3597 -->
<g id="edge24" class="edge">
<title>5692&#45;&gt;3597</title>
<path fill="none" stroke="#000000" d="M1038.4509,-1319.8789C1040.4633,-1325.7018 1042.7471,-1332.3095 1044.9447,-1338.6683"/>
<polygon fill="#000000" stroke="#000000" points="1041.7014,-1339.9991 1048.276,-1348.3072 1048.3174,-1337.7124 1041.7014,-1339.9991"/>
</g>
<!-- 10834 -->
<g id="node48" class="node">
<title>10834</title>
<ellipse fill="none" stroke="#000000" cx="871.8515" cy="-1242.4532" rx="32.4942" ry="18"/>
<text text-anchor="middle" x="871.8515" y="-1238.7532" font-family="Times,serif" font-size="14.00" fill="#000000">10834</text>
</g>
<!-- 5692&#45;&gt;10834 -->
<g id="edge25" class="edge">
<title>5692&#45;&gt;10834</title>
<path fill="none" stroke="#000000" d="M1007.5748,-1292.8762C981.0833,-1283.0342 938.7521,-1267.3077 908.4082,-1256.0345"/>
<polygon fill="#000000" stroke="#000000" points="909.6057,-1252.7457 899.0127,-1252.544 907.1678,-1259.3075 909.6057,-1252.7457"/>
</g>
<!-- 11008 -->
<g id="node49" class="node">
<title>11008</title>
<ellipse fill="none" stroke="#000000" cx="1165.5697" cy="-1344.5235" rx="32.4942" ry="18"/>
<text text-anchor="middle" x="1165.5697" y="-1340.8235" font-family="Times,serif" font-size="14.00" fill="#000000">11008</text>
</g>
<!-- 5692&#45;&gt;11008 -->
<g id="edge26" class="edge">
<title>5692&#45;&gt;11008</title>
<path fill="none" stroke="#000000" d="M1057.9893,-1310.2465C1077.6682,-1316.5165 1105.1242,-1325.2645 1127.3732,-1332.3534"/>
<polygon fill="#000000" stroke="#000000" points="1126.592,-1335.7778 1137.1826,-1335.4788 1128.7171,-1329.1082 1126.592,-1335.7778"/>
</g>
<!-- 27865 -->
<g id="node55" class="node">
<title>27865</title>
<ellipse fill="none" stroke="#000000" cx="1107.7757" cy="-1299.6346" rx="32.4942" ry="18"/>
<text text-anchor="middle" x="1107.7757" y="-1295.9346" font-family="Times,serif" font-size="14.00" fill="#000000">27865</text>
</g>
<!-- 5692&#45;&gt;27865 -->
<g id="edge27" class="edge">
<title>5692&#45;&gt;27865</title>
<path fill="none" stroke="#000000" d="M1061.2601,-1301.1285C1062.5464,-1301.0872 1063.847,-1301.0455 1065.1556,-1301.0034"/>
<polygon fill="#000000" stroke="#000000" points="1065.3543,-1304.499 1075.2367,-1300.6797 1065.1295,-1297.5026 1065.3543,-1304.499"/>
</g>
<!-- 28065 -->
<g id="node56" class="node">
<title>28065</title>
<ellipse fill="none" stroke="#000000" cx="1158.6997" cy="-1240.7296" rx="32.4942" ry="18"/>
<text text-anchor="middle" x="1158.6997" y="-1237.0296" font-family="Times,serif" font-size="14.00" fill="#000000">28065</text>
</g>
<!-- 5692&#45;&gt;28065 -->
<g id="edge28" class="edge">
<title>5692&#45;&gt;28065</title>
<path fill="none" stroke="#000000" d="M1055.1835,-1290.9526C1074.7311,-1281.4687 1103.1082,-1267.701 1125.2095,-1256.978"/>
<polygon fill="#000000" stroke="#000000" points="1126.7841,-1260.1044 1134.2533,-1252.5903 1123.7285,-1253.8064 1126.7841,-1260.1044"/>
</g>
<!-- 52317 -->
<g id="node63" class="node">
<title>52317</title>
<ellipse fill="none" stroke="#000000" cx="1049.6543" cy="-1431.4434" rx="32.4942" ry="18"/>
<text text-anchor="middle" x="1049.6543" y="-1427.7434" font-family="Times,serif" font-size="14.00" fill="#000000">52317</text>
</g>
<!-- 5692&#45;&gt;52317 -->
<g id="edge29" class="edge">
<title>5692&#45;&gt;52317</title>
<path fill="none" stroke="#000000" d="M1034.7062,-1320.0493C1037.5924,-1341.5571 1042.4574,-1377.8117 1045.8506,-1403.0981"/>
<polygon fill="#000000" stroke="#000000" points="1042.4057,-1403.7431 1047.2047,-1413.1887 1049.3435,-1402.812 1042.4057,-1403.7431"/>
</g>
<!-- 52375 -->
<g id="node64" class="node">
<title>52375</title>
<ellipse fill="none" stroke="#000000" cx="938.0627" cy="-1309.4754" rx="32.4942" ry="18"/>
<text text-anchor="middle" x="938.0627" y="-1305.7754" font-family="Times,serif" font-size="14.00" fill="#000000">52375</text>
</g>
<!-- 5692&#45;&gt;52375 -->
<g id="edge30" class="edge">
<title>5692&#45;&gt;52375</title>
<path fill="none" stroke="#000000" d="M1003.7644,-1304.3042C996.4577,-1304.8793 988.4406,-1305.5103 980.5946,-1306.1278"/>
<polygon fill="#000000" stroke="#000000" points="980.1475,-1302.6521 970.453,-1306.926 980.6968,-1309.6305 980.1475,-1302.6521"/>
</g>
<!-- 52376 -->
<g id="node65" class="node">
<title>52376</title>
<ellipse fill="none" stroke="#000000" cx="1124.2135" cy="-1193.0629" rx="32.4942" ry="18"/>
<text text-anchor="middle" x="1124.2135" y="-1189.3629" font-family="Times,serif" font-size="14.00" fill="#000000">52376</text>
</g>
<!-- 5692&#45;&gt;52376 -->
<g id="edge31" class="edge">
<title>5692&#45;&gt;52376</title>
<path fill="none" stroke="#000000" d="M1045.8554,-1285.9762C1061.1098,-1267.8882 1086.0521,-1238.3129 1103.6935,-1217.3945"/>
<polygon fill="#000000" stroke="#000000" points="1106.5218,-1219.4698 1110.2932,-1209.5689 1101.1707,-1214.9569 1106.5218,-1219.4698"/>
</g>
<!-- 52380 -->
<g id="node66" class="node">
<title>52380</title>
<ellipse fill="none" stroke="#000000" cx="960.7308" cy="-1390.8578" rx="32.4942" ry="18"/>
<text text-anchor="middle" x="960.7308" y="-1387.1578" font-family="Times,serif" font-size="14.00" fill="#000000">52380</text>
</g>
<!-- 5692&#45;&gt;52380 -->
<g id="edge32" class="edge">
<title>5692&#45;&gt;52380</title>
<path fill="none" stroke="#000000" d="M1019.1666,-1318.346C1008.3403,-1331.7802 992.813,-1351.0477 980.485,-1366.3453"/>
<polygon fill="#000000" stroke="#000000" points="977.5651,-1364.3907 974.0154,-1374.3732 983.0155,-1368.7831 977.5651,-1364.3907"/>
</g>
<!-- 52413 -->
<g id="node67" class="node">
<title>52413</title>
<ellipse fill="none" stroke="#000000" cx="1044.1536" cy="-1214.5188" rx="32.4942" ry="18"/>
<text text-anchor="middle" x="1044.1536" y="-1210.8188" font-family="Times,serif" font-size="14.00" fill="#000000">52413</text>
</g>
<!-- 5692&#45;&gt;52413 -->
<g id="edge33" class="edge">
<title>5692&#45;&gt;52413</title>
<path fill="none" stroke="#000000" d="M1034.7498,-1283.9205C1036.3561,-1272.0656 1038.4872,-1256.3375 1040.3145,-1242.8517"/>
<polygon fill="#000000" stroke="#000000" points="1043.8245,-1243.0133 1041.699,-1232.6339 1036.8879,-1242.0734 1043.8245,-1243.0133"/>
</g>
<!-- 52431 -->
<g id="node68" class="node">
<title>52431</title>
<ellipse fill="none" stroke="#000000" cx="1126.5817" cy="-1395.9117" rx="32.4942" ry="18"/>
<text text-anchor="middle" x="1126.5817" y="-1392.2117" font-family="Times,serif" font-size="14.00" fill="#000000">52431</text>
</g>
<!-- 5692&#45;&gt;52431 -->
<g id="edge34" class="edge">
<title>5692&#45;&gt;52431</title>
<path fill="none" stroke="#000000" d="M1047.8621,-1317.5568C1062.9214,-1332.5464 1085.9357,-1355.454 1103.1968,-1372.6351"/>
<polygon fill="#000000" stroke="#000000" points="1101.1168,-1375.5031 1110.6734,-1380.0771 1106.0551,-1370.5418 1101.1168,-1375.5031"/>
</g>
<!-- 262230 -->
<g id="node69" class="node">
<title>262230</title>
<ellipse fill="none" stroke="#000000" cx="1205.1427" cy="-1291.2423" rx="37.0935" ry="18"/>
<text text-anchor="middle" x="1205.1427" y="-1287.5423" font-family="Times,serif" font-size="14.00" fill="#000000">262230</text>
</g>
<!-- 5692&#45;&gt;262230 -->
<g id="edge35" class="edge">
<title>5692&#45;&gt;262230</title>
<path fill="none" stroke="#000000" d="M1060.8348,-1300.2728C1087.1964,-1298.6231 1126.8552,-1296.1414 1157.9304,-1294.1968"/>
<polygon fill="#000000" stroke="#000000" points="1158.3465,-1297.6777 1168.1083,-1293.5598 1157.9092,-1290.6913 1158.3465,-1297.6777"/>
</g>
<!-- 264608 -->
<g id="node70" class="node">
<title>264608</title>
<ellipse fill="none" stroke="#000000" cx="1036.7666" cy="-1160.7635" rx="37.0935" ry="18"/>
<text text-anchor="middle" x="1036.7666" y="-1157.0635" font-family="Times,serif" font-size="14.00" fill="#000000">264608</text>
</g>
<!-- 5692&#45;&gt;264608 -->
<g id="edge36" class="edge">
<title>5692&#45;&gt;264608</title>
<path fill="none" stroke="#000000" d="M1032.8679,-1283.8763C1033.6297,-1259.8191 1034.9804,-1217.1675 1035.8747,-1188.9259"/>
<polygon fill="#000000" stroke="#000000" points="1039.3746,-1188.9822 1036.193,-1178.8764 1032.3781,-1188.7605 1039.3746,-1188.9822"/>
</g>
<!-- 6453&#45;&gt;3257 -->
<g id="edge37" class="edge">
<title>6453&#45;&gt;3257</title>
<path fill="none" stroke="#000000" d="M389.3443,-781.7886C395.0061,-755.3563 405.5733,-706.0229 412.2291,-674.9498"/>
<polygon fill="#000000" stroke="#000000" points="415.6514,-675.6828 414.3236,-665.1715 408.8067,-674.2166 415.6514,-675.6828"/>
</g>
<!-- 6461&#45;&gt;701 -->
<g id="edge38" class="edge">
<title>6461&#45;&gt;701</title>
<path fill="none" stroke="#000000" d="M885.075,-108.2382C890.9532,-92.4754 899.6348,-69.1947 906.3718,-51.1287"/>
<polygon fill="#000000" stroke="#000000" points="909.6697,-52.3021 909.8844,-41.7094 903.1109,-49.8562 909.6697,-52.3021"/>
</g>
<!-- 6461&#45;&gt;1239 -->
<g id="edge39" class="edge">
<title>6461&#45;&gt;1239</title>
<path fill="none" stroke="#000000" d="M882.7307,-144.1487C886.3624,-159.6221 891.6369,-182.0946 895.7998,-199.8313"/>
<polygon fill="#000000" stroke="#000000" points="892.4092,-200.7027 898.1016,-209.6384 899.224,-199.1032 892.4092,-200.7027"/>
</g>
<!-- 6461&#45;&gt;1273 -->
<g id="edge40" class="edge">
<title>6461&#45;&gt;1273</title>
<path fill="none" stroke="#000000" d="M898.937,-113.2637C911.4776,-105.482 927.7275,-95.3987 941.5935,-86.7946"/>
<polygon fill="#000000" stroke="#000000" points="943.6466,-89.6398 950.2982,-81.3932 939.9558,-83.6918 943.6466,-89.6398"/>
</g>
<!-- 6461&#45;&gt;2497 -->
<g id="edge41" class="edge">
<title>6461&#45;&gt;2497</title>
<path fill="none" stroke="#000000" d="M900.8347,-137.5143C913.4955,-144.0489 929.5318,-152.3257 943.4441,-159.5063"/>
<polygon fill="#000000" stroke="#000000" points="942.1773,-162.7911 952.6688,-164.2675 945.3879,-156.5708 942.1773,-162.7911"/>
</g>
<!-- 6461&#45;&gt;3320 -->
<g id="edge42" class="edge">
<title>6461&#45;&gt;3320</title>
<path fill="none" stroke="#000000" d="M873.7126,-108.0773C869.1732,-90.9831 862.2648,-64.9683 857.0203,-45.219"/>
<polygon fill="#000000" stroke="#000000" points="860.4002,-44.3097 854.4508,-35.543 853.6347,-46.1063 860.4002,-44.3097"/>
</g>
<!-- 7018 -->
<g id="node36" class="node">
<title>7018</title>
<ellipse fill="none" stroke="#000000" cx="986.6686" cy="-119.0483" rx="28.6953" ry="18"/>
<text text-anchor="middle" x="986.6686" y="-115.3483" font-family="Times,serif" font-size="14.00" fill="#000000">7018</text>
</g>
<!-- 6461&#45;&gt;7018 -->
<g id="edge43" class="edge">
<title>6461&#45;&gt;7018</title>
<path fill="none" stroke="#000000" d="M907.1764,-124.1317C919.7493,-123.3276 934.688,-122.3723 948.2026,-121.5081"/>
<polygon fill="#000000" stroke="#000000" points="948.4408,-125.0001 958.197,-120.869 947.994,-118.0144 948.4408,-125.0001"/>
</g>
<!-- 6695 -->
<g id="node31" class="node">
<title>6695</title>
<ellipse fill="none" stroke="#000000" cx="304.5914" cy="-2685.9191" rx="28.6953" ry="18"/>
<text text-anchor="middle" x="304.5914" y="-2682.2191" font-family="Times,serif" font-size="14.00" fill="#000000">6695</text>
</g>
<!-- 6762&#45;&gt;2914 -->
<g id="edge44" class="edge">
<title>6762&#45;&gt;2914</title>
<path fill="none" stroke="#000000" d="M381.4466,-1062.0078C380.3058,-1035.1922 378.1596,-984.7459 376.809,-953.0002"/>
<polygon fill="#000000" stroke="#000000" points="380.2894,-952.4628 376.3675,-942.6207 373.2958,-952.7604 380.2894,-952.4628"/>
</g>
<!-- 6904 -->
<g id="node33" class="node">
<title>6904</title>
<ellipse fill="none" stroke="#000000" cx="257.0092" cy="-1491.6168" rx="28.6953" ry="18"/>
<text text-anchor="middle" x="257.0092" y="-1487.9168" font-family="Times,serif" font-size="14.00" fill="#000000">6904</text>
</g>
<!-- 6904&#45;&gt;2687 -->
<g id="edge45" class="edge">
<title>6904&#45;&gt;2687</title>
<path fill="none" stroke="#000000" d="M255.6038,-1509.8152C253.6791,-1534.7361 250.2039,-1579.7355 247.9325,-1609.1458"/>
<polygon fill="#000000" stroke="#000000" points="244.4358,-1608.9699 247.1553,-1619.2098 251.415,-1609.509 244.4358,-1608.9699"/>
</g>
<!-- 6939 -->
<g id="node34" class="node">
<title>6939</title>
<ellipse fill="none" stroke="#000000" cx="486.2661" cy="-2294.1583" rx="28.6953" ry="18"/>
<text text-anchor="middle" x="486.2661" y="-2290.4583" font-family="Times,serif" font-size="14.00" fill="#000000">6939</text>
</g>
<!-- 12266 -->
<g id="node50" class="node">
<title>12266</title>
<ellipse fill="none" stroke="#000000" cx="582.7437" cy="-2243.6282" rx="32.4942" ry="18"/>
<text text-anchor="middle" x="582.7437" y="-2239.9282" font-family="Times,serif" font-size="14.00" fill="#000000">12266</text>
</g>
<!-- 6939&#45;&gt;12266 -->
<g id="edge46" class="edge">
<title>6939&#45;&gt;12266</title>
<path fill="none" stroke="#000000" d="M508.6425,-2282.4387C520.854,-2276.0429 536.2049,-2268.0029 549.763,-2260.9019"/>
<polygon fill="#000000" stroke="#000000" points="551.5677,-2263.9077 558.8024,-2256.1675 548.3199,-2257.7067 551.5677,-2263.9077"/>
</g>
<!-- 7016 -->
<g id="node35" class="node">
<title>7016</title>
<ellipse fill="none" stroke="#000000" cx="135.339" cy="-1277.3281" rx="28.6953" ry="18"/>
<text text-anchor="middle" x="135.339" y="-1273.6281" font-family="Times,serif" font-size="14.00" fill="#000000">7016</text>
</g>
<!-- 7922 -->
<g id="node40" class="node">
<title>7922</title>
<ellipse fill="none" stroke="#000000" cx="28.9679" cy="-1239.073" rx="28.6953" ry="18"/>
<text text-anchor="middle" x="28.9679" y="-1235.373" font-family="Times,serif" font-size="14.00" fill="#000000">7922</text>
</g>
<!-- 7016&#45;&gt;7922 -->
<g id="edge47" class="edge">
<title>7016&#45;&gt;7922</title>
<path fill="none" stroke="#000000" d="M110.3997,-1268.359C96.4969,-1263.359 78.9665,-1257.0544 63.7353,-1251.5767"/>
<polygon fill="#000000" stroke="#000000" points="64.714,-1248.2093 54.1195,-1248.1185 62.345,-1254.7962 64.714,-1248.2093"/>
</g>
<!-- 7473 -->
<g id="node37" class="node">
<title>7473</title>
<ellipse fill="none" stroke="#000000" cx="443.8547" cy="-1699.2025" rx="28.6953" ry="18"/>
<text text-anchor="middle" x="443.8547" y="-1695.5025" font-family="Times,serif" font-size="14.00" fill="#000000">7473</text>
</g>
<!-- 7474 -->
<g id="node38" class="node">
<title>7474</title>
<ellipse fill="none" stroke="#000000" cx="414.4776" cy="-1957.6249" rx="28.6953" ry="18"/>
<text text-anchor="middle" x="414.4776" y="-1953.9249" font-family="Times,serif" font-size="14.00" fill="#000000">7474</text>
</g>
<!-- 7545&#45;&gt;4635 -->
<g id="edge48" class="edge">
<title>7545&#45;&gt;4635</title>
<path fill="none" stroke="#000000" d="M347.5229,-2322.267C350.2016,-2340.5639 354.3785,-2369.0938 357.4869,-2390.3255"/>
<polygon fill="#000000" stroke="#000000" points="354.0467,-2390.9898 358.9585,-2400.3773 360.9729,-2389.9758 354.0467,-2390.9898"/>
</g>
<!-- 7545&#45;&gt;4739 -->
<g id="edge49" class="edge">
<title>7545&#45;&gt;4739</title>
<path fill="none" stroke="#000000" d="M337.0005,-2321.6973C328.0187,-2341.6962 313.2278,-2374.6299 302.7906,-2397.8696"/>
<polygon fill="#000000" stroke="#000000" points="299.5179,-2396.6137 298.6137,-2407.1699 305.9035,-2399.4816 299.5179,-2396.6137"/>
</g>
<!-- 7545&#45;&gt;6939 -->
<g id="edge50" class="edge">
<title>7545&#45;&gt;6939</title>
<path fill="none" stroke="#000000" d="M373.4861,-2302.1423C394.7591,-2300.6363 424.0251,-2298.5645 447.4132,-2296.9088"/>
<polygon fill="#000000" stroke="#000000" points="447.9678,-2300.3784 457.6957,-2296.1809 447.4735,-2293.3959 447.9678,-2300.3784"/>
</g>
<!-- 9942 -->
<g id="node46" class="node">
<title>9942</title>
<ellipse fill="none" stroke="#000000" cx="447.3145" cy="-2375.692" rx="28.6953" ry="18"/>
<text text-anchor="middle" x="447.3145" y="-2371.992" font-family="Times,serif" font-size="14.00" fill="#000000">9942</text>
</g>
<!-- 7545&#45;&gt;9942 -->
<g id="edge51" class="edge">
<title>7545&#45;&gt;9942</title>
<path fill="none" stroke="#000000" d="M364.1415,-2317.621C379.8809,-2328.6102 402.3223,-2344.2787 419.9284,-2356.5712"/>
<polygon fill="#000000" stroke="#000000" points="417.9295,-2359.4442 428.1325,-2362.2992 421.9368,-2353.7047 417.9295,-2359.4442"/>
</g>
<!-- 9002 -->
<g id="node41" class="node">
<title>9002</title>
<ellipse fill="none" stroke="#000000" cx="213.0456" cy="-2696.3256" rx="28.6953" ry="18"/>
<text text-anchor="middle" x="213.0456" y="-2692.6256" font-family="Times,serif" font-size="14.00" fill="#000000">9002</text>
</g>
<!-- 9443 -->
<g id="node42" class="node">
<title>9443</title>
<ellipse fill="none" stroke="#000000" cx="148.4253" cy="-2635.295" rx="28.6953" ry="18"/>
<text text-anchor="middle" x="148.4253" y="-2631.595" font-family="Times,serif" font-size="14.00" fill="#000000">9443</text>
</g>
<!-- 10026 -->
<g id="node47" class="node">
<title>10026</title>
<ellipse fill="none" stroke="#000000" cx="666.198" cy="-2253.3746" rx="32.4942" ry="18"/>
<text text-anchor="middle" x="666.198" y="-2249.6746" font-family="Times,serif" font-size="14.00" fill="#000000">10026</text>
</g>
<!-- 9498&#45;&gt;10026 -->
<g id="edge52" class="edge">
<title>9498&#45;&gt;10026</title>
<path fill="none" stroke="#000000" d="M565.3707,-2162.2048C585.1593,-2180.098 618.4487,-2210.1989 641.328,-2230.8867"/>
<polygon fill="#000000" stroke="#000000" points="639.1826,-2233.6654 648.9474,-2237.7763 643.8774,-2228.4733 639.1826,-2233.6654"/>
</g>
<!-- 9505&#45;&gt;7473 -->
<g id="edge53" class="edge">
<title>9505&#45;&gt;7473</title>
<path fill="none" stroke="#000000" d="M371.883,-1685.2793C382.4416,-1687.3219 394.6914,-1689.6917 406.0586,-1691.8907"/>
<polygon fill="#000000" stroke="#000000" points="405.6932,-1695.3848 416.1759,-1693.8479 407.0228,-1688.5122 405.6932,-1695.3848"/>
</g>
<!-- 10026&#45;&gt;4755 -->
<g id="edge54" class="edge">
<title>10026&#45;&gt;4755</title>
<path fill="none" stroke="#000000" d="M684.4815,-2268.6519C699.0555,-2280.8298 719.6249,-2298.0171 735.7708,-2311.5084"/>
<polygon fill="#000000" stroke="#000000" points="733.8378,-2314.4541 743.7557,-2318.1804 738.3262,-2309.0825 733.8378,-2314.4541"/>
</g>
<!-- 12956 -->
<g id="node51" class="node">
<title>12956</title>
<ellipse fill="none" stroke="#000000" cx="690.1554" cy="-1222.4221" rx="32.4942" ry="18"/>
<text text-anchor="middle" x="690.1554" y="-1218.7221" font-family="Times,serif" font-size="14.00" fill="#000000">12956</text>
</g>
<!-- 10834&#45;&gt;12956 -->
<g id="edge55" class="edge">
<title>10834&#45;&gt;12956</title>
<path fill="none" stroke="#000000" d="M839.7862,-1238.9182C809.9093,-1235.6244 765.1682,-1230.6919 732.3924,-1227.0785"/>
<polygon fill="#000000" stroke="#000000" points="732.5287,-1223.5724 722.2053,-1225.9555 731.7615,-1230.5303 732.5287,-1223.5724"/>
</g>
<!-- 22927 -->
<g id="node54" class="node">
<title>22927</title>
<ellipse fill="none" stroke="#000000" cx="866.6561" cy="-1120.577" rx="32.4942" ry="18"/>
<text text-anchor="middle" x="866.6561" y="-1116.877" font-family="Times,serif" font-size="14.00" fill="#000000">22927</text>
</g>
<!-- 10834&#45;&gt;22927 -->
<g id="edge56" class="edge">
<title>10834&#45;&gt;22927</title>
<path fill="none" stroke="#000000" d="M871.0737,-1224.2071C870.2282,-1204.3722 868.8657,-1172.4105 867.8772,-1149.2219"/>
<polygon fill="#000000" stroke="#000000" points="871.362,-1148.7896 867.4392,-1138.9478 864.3684,-1149.0878 871.362,-1148.7896"/>
</g>
<!-- 20454 -->
<g id="node53" class="node">
<title>20454</title>
<ellipse fill="none" stroke="#000000" cx="723.0284" cy="-2200.5474" rx="32.4942" ry="18"/>
<text text-anchor="middle" x="723.0284" y="-2196.8474" font-family="Times,serif" font-size="14.00" fill="#000000">20454</text>
</g>
<!-- 12266&#45;&gt;20454 -->
<g id="edge57" class="edge">
<title>12266&#45;&gt;20454</title>
<path fill="none" stroke="#000000" d="M611.471,-2234.8062C632.5588,-2228.3302 661.4275,-2219.4648 684.5142,-2212.3749"/>
<polygon fill="#000000" stroke="#000000" points="685.8077,-2215.6391 694.3396,-2209.3576 683.7527,-2208.9475 685.8077,-2215.6391"/>
</g>
<!-- 12956&#45;&gt;3356 -->
<g id="edge58" class="edge">
<title>12956&#45;&gt;3356</title>
<path fill="none" stroke="#000000" d="M657.7291,-1220.3283C637.6484,-1219.0316 611.7472,-1217.3592 590.5894,-1215.993"/>
<polygon fill="#000000" stroke="#000000" points="590.5275,-1212.4818 580.3227,-1215.33 590.0763,-1219.4672 590.5275,-1212.4818"/>
</g>
<!-- 18540 -->
<g id="node52" class="node">
<title>18540</title>
<ellipse fill="none" stroke="#000000" cx="194.7701" cy="-1230.4409" rx="32.4942" ry="18"/>
<text text-anchor="middle" x="194.7701" y="-1226.7409" font-family="Times,serif" font-size="14.00" fill="#000000">18540</text>
</g>
<!-- 30070&#45;&gt;6904 -->
<g id="edge59" class="edge">
<title>30070&#45;&gt;6904</title>
<path fill="none" stroke="#000000" d="M274.8092,-1336.0434C271.3381,-1366.3814 264.3624,-1427.3497 260.2497,-1463.2949"/>
<polygon fill="#000000" stroke="#000000" points="256.7318,-1463.2522 259.0723,-1473.5853 263.6864,-1464.048 256.7318,-1463.2522"/>
</g>
<!-- 30070&#45;&gt;7016 -->
<g id="edge60" class="edge">
<title>30070&#45;&gt;7016</title>
<path fill="none" stroke="#000000" d="M247.9117,-1309.486C225.6872,-1303.1373 194.8983,-1294.342 171.1364,-1287.5542"/>
<polygon fill="#000000" stroke="#000000" points="172.0053,-1284.1624 161.4285,-1284.781 170.0825,-1290.8932 172.0053,-1284.1624"/>
</g>
<!-- 30070&#45;&gt;18540 -->
<g id="edge61" class="edge">
<title>30070&#45;&gt;18540</title>
<path fill="none" stroke="#000000" d="M261.8364,-1301.75C249.296,-1288.4163 231.26,-1269.2393 217.0497,-1254.1299"/>
<polygon fill="#000000" stroke="#000000" points="219.4173,-1251.5386 210.0167,-1246.652 214.3182,-1256.3344 219.4173,-1251.5386"/>
</g>
<!-- 32787&#45;&gt;703 -->
<g id="edge62" class="edge">
<title>32787&#45;&gt;703</title>
<path fill="none" stroke="#000000" d="M334.3267,-1999.0268C358.0084,-2015.5116 397.107,-2042.728 423.3309,-2060.9824"/>
<polygon fill="#000000" stroke="#000000" points="421.4828,-2063.9604 431.6898,-2066.801 425.482,-2058.2153 421.4828,-2063.9604"/>
</g>
<!-- 32787&#45;&gt;2764 -->
<g id="edge63" class="edge">
<title>32787&#45;&gt;2764</title>
<path fill="none" stroke="#000000" d="M312.3185,-2002.9467C309.7065,-2033.5726 304.4073,-2095.7083 301.2963,-2132.1865"/>
<polygon fill="#000000" stroke="#000000" points="297.769,-2132.359 300.4065,-2142.6203 304.7436,-2132.9539 297.769,-2132.359"/>
</g>
<!-- 32787&#45;&gt;4637 -->
<g id="edge64" class="edge">
<title>32787&#45;&gt;4637</title>
<path fill="none" stroke="#000000" d="M282.4968,-1989.7924C270.0333,-1991.7818 255.5799,-1994.0888 242.5202,-1996.1734"/>
<polygon fill="#000000" stroke="#000000" points="241.7332,-1992.7546 232.4099,-1997.7872 242.8366,-1999.6671 241.7332,-1992.7546"/>
</g>
<!-- 32787&#45;&gt;7474 -->
<g id="edge65" class="edge">
<title>32787&#45;&gt;7474</title>
<path fill="none" stroke="#000000" d="M343.2385,-1976.8562C354.1844,-1973.9013 366.7396,-1970.512 378.2308,-1967.4099"/>
<polygon fill="#000000" stroke="#000000" points="379.2458,-1970.7612 387.988,-1964.7759 377.4214,-1964.0032 379.2458,-1970.7612"/>
</g>
<!-- 38333&#45;&gt;1221 -->
<g id="edge66" class="edge">
<title>38333&#45;&gt;1221</title>
<path fill="none" stroke="#000000" d="M124.2426,-2202.6759C110.7287,-2207.4323 94.3365,-2213.2017 80.0135,-2218.2428"/>
<polygon fill="#000000" stroke="#000000" points="78.7597,-2214.9736 70.4889,-2221.5951 81.0837,-2221.5765 78.7597,-2214.9736"/>
</g>
<!-- 38880&#45;&gt;6695 -->
<g id="edge67" class="edge">
<title>38880&#45;&gt;6695</title>
<path fill="none" stroke="#000000" d="M256.4111,-2593.9423C265.7134,-2611.7004 280.1842,-2639.3254 290.8405,-2659.6685"/>
<polygon fill="#000000" stroke="#000000" points="287.8401,-2661.4835 295.5808,-2668.7177 294.0409,-2658.2353 287.8401,-2661.4835"/>
</g>
<!-- 38880&#45;&gt;9002 -->
<g id="edge68" class="edge">
<title>38880&#45;&gt;9002</title>
<path fill="none" stroke="#000000" d="M242.0768,-2594.2996C236.4951,-2613.9158 227.4853,-2645.5794 220.9822,-2668.4335"/>
<polygon fill="#000000" stroke="#000000" points="217.5626,-2667.663 218.1921,-2678.2391 224.2953,-2669.5788 217.5626,-2667.663"/>
</g>
<!-- 38880&#45;&gt;9443 -->
<g id="edge69" class="edge">
<title>38880&#45;&gt;9443</title>
<path fill="none" stroke="#000000" d="M224.7775,-2589.7146C211.0153,-2597.9303 193.2217,-2608.5527 178.2744,-2617.4759"/>
<polygon fill="#000000" stroke="#000000" points="176.1892,-2614.6444 169.3969,-2622.7755 179.7773,-2620.6549 176.1892,-2614.6444"/>
</g>
</g>
</svg>
