<?xml version="1.0" encoding="UTF-8" standalone="no"?>
<!DOCTYPE svg PUBLIC "-//W3C//DTD SVG 1.1//EN"
 "http://www.w3.org/Graphics/SVG/1.1/DTD/svg11.dtd">
<!-- Generated by graphviz version 2.40.1 (20161225.0304)
 -->
<!-- Title: %3 Pages: 1 -->
<svg width="1365pt" height="1550pt"
 viewBox="0.00 0.00 1365.25 1550.25" xmlns="http://www.w3.org/2000/svg" xmlns:xlink="http://www.w3.org/1999/xlink">
<g id="graph0" class="graph" transform="scale(1 1) rotate(0) translate(4 1546.2464)">
<title>%3</title>
<polygon fill="#ffffff" stroke="transparent" points="-4,4 -4,-1546.2464 1361.2481,-1546.2464 1361.2481,4 -4,4"/>
<!-- 174 -->
<g id="node1" class="node">
<title>174</title>
<ellipse fill="none" stroke="#000000" cx="911.8588" cy="-730.6503" rx="27" ry="18"/>
<text text-anchor="middle" x="911.8588" y="-726.9503" font-family="Times,serif" font-size="14.00" fill="#000000">174</text>
</g>
<!-- 209 -->
<g id="node2" class="node">
<title>209</title>
<ellipse fill="none" stroke="#000000" cx="967.014" cy="-776.931" rx="27" ry="18"/>
<text text-anchor="middle" x="967.014" y="-773.231" font-family="Times,serif" font-size="14.00" fill="#000000">209</text>
</g>
<!-- 174&#45;&gt;209 -->
<g id="edge1" class="edge">
<title>174&#45;&gt;209</title>
<path fill="none" stroke="#000000" d="M928.7069,-744.7875C932.9045,-748.3097 937.495,-752.1616 941.9939,-755.9366"/>
<polygon fill="#000000" stroke="#000000" points="939.9782,-758.8142 949.8885,-762.5609 944.4778,-753.4519 939.9782,-758.8142"/>
</g>
<!-- 1299 -->
<g id="node8" class="node">
<title>1299</title>
<ellipse fill="none" stroke="#000000" cx="1041.288" cy="-798.2957" rx="28.6953" ry="18"/>
<text text-anchor="middle" x="1041.288" y="-794.5957" font-family="Times,serif" font-size="14.00" fill="#000000">1299</text>
</g>
<!-- 209&#45;&gt;1299 -->
<g id="edge2" class="edge">
<title>209&#45;&gt;1299</title>
<path fill="none" stroke="#000000" d="M992.1598,-784.1641C996.4419,-785.3958 1000.9623,-786.6961 1005.4572,-787.989"/>
<polygon fill="#000000" stroke="#000000" points="1004.5761,-791.3775 1015.154,-790.7783 1006.5112,-784.6502 1004.5761,-791.3775"/>
</g>
<!-- 2828 -->
<g id="node14" class="node">
<title>2828</title>
<ellipse fill="none" stroke="#000000" cx="839.5681" cy="-939.5414" rx="28.6953" ry="18"/>
<text text-anchor="middle" x="839.5681" y="-935.8414" font-family="Times,serif" font-size="14.00" fill="#000000">2828</text>
</g>
<!-- 209&#45;&gt;2828 -->
<g id="edge3" class="edge">
<title>209&#45;&gt;2828</title>
<path fill="none" stroke="#000000" d="M954.3281,-793.1172C931.9239,-821.7031 885.2287,-881.2823 858.8294,-914.9656"/>
<polygon fill="#000000" stroke="#000000" points="855.9961,-912.9068 852.5822,-922.9366 861.5056,-917.2249 855.9961,-912.9068"/>
</g>
<!-- 701 -->
<g id="node3" class="node">
<title>701</title>
<ellipse fill="none" stroke="#000000" cx="1233.2198" cy="-722.2529" rx="27" ry="18"/>
<text text-anchor="middle" x="1233.2198" y="-718.5529" font-family="Times,serif" font-size="14.00" fill="#000000">701</text>
</g>
<!-- 703 -->
<g id="node4" class="node">
<title>703</title>
<ellipse fill="none" stroke="#000000" cx="802.8702" cy="-1237.3423" rx="27" ry="18"/>
<text text-anchor="middle" x="802.8702" y="-1233.6423" font-family="Times,serif" font-size="14.00" fill="#000000">703</text>
</g>
<!-- 9498 -->
<g id="node43" class="node">
<title>9498</title>
<ellipse fill="none" stroke="#000000" cx="809.1454" cy="-1309.0683" rx="28.6953" ry="18"/>
<text text-anchor="middle" x="809.1454" y="-1305.3683" font-family="Times,serif" font-size="14.00" fill="#000000">9498</text>
</g>
<!-- 703&#45;&gt;9498 -->
<g id="edge4" class="edge">
<title>703&#45;&gt;9498</title>
<path fill="none" stroke="#000000" d="M804.4537,-1255.4418C805.1248,-1263.1129 805.9228,-1272.2347 806.6687,-1280.7598"/>
<polygon fill="#000000" stroke="#000000" points="803.1822,-1281.0683 807.5405,-1290.7251 810.1556,-1280.4581 803.1822,-1281.0683"/>
</g>
<!-- 1221 -->
<g id="node5" class="node">
<title>1221</title>
<ellipse fill="none" stroke="#000000" cx="28.5975" cy="-926.5218" rx="28.6953" ry="18"/>
<text text-anchor="middle" x="28.5975" y="-922.8218" font-family="Times,serif" font-size="14.00" fill="#000000">1221</text>
</g>
<!-- 1239 -->
<g id="node6" class="node">
<title>1239</title>
<ellipse fill="none" stroke="#000000" cx="1203.1724" cy="-804.8078" rx="28.6953" ry="18"/>
<text text-anchor="middle" x="1203.1724" y="-801.1078" font-family="Times,serif" font-size="14.00" fill="#000000">1239</text>
</g>
<!-- 1273 -->
<g id="node7" class="node">
<title>1273</title>
<ellipse fill="none" stroke="#000000" cx="1159.2459" cy="-880.8907" rx="28.6953" ry="18"/>
<text text-anchor="middle" x="1159.2459" y="-877.1907" font-family="Times,serif" font-size="14.00" fill="#000000">1273</text>
</g>
<!-- 5511 -->
<g id="node27" class="node">
<title>5511</title>
<ellipse fill="none" stroke="#000000" cx="1176.7493" cy="-629.4594" rx="28.6953" ry="18"/>
<text text-anchor="middle" x="1176.7493" y="-625.7594" font-family="Times,serif" font-size="14.00" fill="#000000">5511</text>
</g>
<!-- 1299&#45;&gt;5511 -->
<g id="edge5" class="edge">
<title>1299&#45;&gt;5511</title>
<path fill="none" stroke="#000000" d="M1054.2766,-782.1069C1078.2471,-752.2306 1129.5403,-688.2998 1157.5409,-653.4004"/>
<polygon fill="#000000" stroke="#000000" points="1160.272,-655.5893 1163.8001,-645.5991 1154.8121,-651.2087 1160.272,-655.5893"/>
</g>
<!-- 6461 -->
<g id="node30" class="node">
<title>6461</title>
<ellipse fill="none" stroke="#000000" cx="1077.3244" cy="-869.4924" rx="28.6953" ry="18"/>
<text text-anchor="middle" x="1077.3244" y="-865.7924" font-family="Times,serif" font-size="14.00" fill="#000000">6461</text>
</g>
<!-- 1299&#45;&gt;6461 -->
<g id="edge6" class="edge">
<title>1299&#45;&gt;6461</title>
<path fill="none" stroke="#000000" d="M1050.0114,-815.5304C1054.1547,-823.7162 1059.2009,-833.686 1063.8232,-842.8181"/>
<polygon fill="#000000" stroke="#000000" points="1060.7922,-844.5802 1068.431,-851.9218 1067.0377,-841.4189 1060.7922,-844.5802"/>
</g>
<!-- 2497 -->
<g id="node9" class="node">
<title>2497</title>
<ellipse fill="none" stroke="#000000" cx="1102.775" cy="-948.19" rx="28.6953" ry="18"/>
<text text-anchor="middle" x="1102.775" y="-944.49" font-family="Times,serif" font-size="14.00" fill="#000000">2497</text>
</g>
<!-- 2516 -->
<g id="node10" class="node">
<title>2516</title>
<ellipse fill="none" stroke="#000000" cx="390.0114" cy="-948.19" rx="28.6953" ry="18"/>
<text text-anchor="middle" x="390.0114" y="-944.49" font-family="Times,serif" font-size="14.00" fill="#000000">2516</text>
</g>
<!-- 32787 -->
<g id="node58" class="node">
<title>32787</title>
<ellipse fill="none" stroke="#000000" cx="339.0997" cy="-999.1017" rx="32.4942" ry="18"/>
<text text-anchor="middle" x="339.0997" y="-995.4017" font-family="Times,serif" font-size="14.00" fill="#000000">32787</text>
</g>
<!-- 2516&#45;&gt;32787 -->
<g id="edge7" class="edge">
<title>2516&#45;&gt;32787</title>
<path fill="none" stroke="#000000" d="M374.7362,-963.4651C370.8553,-967.346 366.5965,-971.6049 362.4152,-975.7862"/>
<polygon fill="#000000" stroke="#000000" points="359.6672,-973.5844 355.071,-983.1304 364.617,-978.5342 359.6672,-973.5844"/>
</g>
<!-- 2686 -->
<g id="node11" class="node">
<title>2686</title>
<ellipse fill="none" stroke="#000000" cx="259.5666" cy="-461.3633" rx="28.6953" ry="18"/>
<text text-anchor="middle" x="259.5666" y="-457.6633" font-family="Times,serif" font-size="14.00" fill="#000000">2686</text>
</g>
<!-- 3741 -->
<g id="node22" class="node">
<title>3741</title>
<ellipse fill="none" stroke="#000000" cx="190.02" cy="-442.7284" rx="28.6953" ry="18"/>
<text text-anchor="middle" x="190.02" y="-439.0284" font-family="Times,serif" font-size="14.00" fill="#000000">3741</text>
</g>
<!-- 2686&#45;&gt;3741 -->
<g id="edge8" class="edge">
<title>2686&#45;&gt;3741</title>
<path fill="none" stroke="#000000" d="M232.877,-454.2119C230.6983,-453.6281 228.4749,-453.0323 226.2434,-452.4344"/>
<polygon fill="#000000" stroke="#000000" points="227.0885,-449.0375 216.5234,-449.8299 225.2767,-455.799 227.0885,-449.0375"/>
</g>
<!-- 2687 -->
<g id="node12" class="node">
<title>2687</title>
<ellipse fill="none" stroke="#000000" cx="392.5195" cy="-839.5932" rx="28.6953" ry="18"/>
<text text-anchor="middle" x="392.5195" y="-835.8932" font-family="Times,serif" font-size="14.00" fill="#000000">2687</text>
</g>
<!-- 2687&#45;&gt;2516 -->
<g id="edge9" class="edge">
<title>2687&#45;&gt;2516</title>
<path fill="none" stroke="#000000" d="M392.0941,-858.0151C391.7026,-874.9666 391.116,-900.362 390.6651,-919.8874"/>
<polygon fill="#000000" stroke="#000000" points="387.1625,-919.9619 390.4306,-930.0401 394.1607,-920.1236 387.1625,-919.9619"/>
</g>
<!-- 2687&#45;&gt;2686 -->
<g id="edge10" class="edge">
<title>2687&#45;&gt;2686</title>
<path fill="none" stroke="#000000" d="M386.2853,-821.8577C364.9562,-761.18 294.8051,-561.6113 269.1086,-488.5086"/>
<polygon fill="#000000" stroke="#000000" points="272.4056,-487.3339 265.7874,-479.0605 265.8017,-489.6553 272.4056,-487.3339"/>
</g>
<!-- 9505 -->
<g id="node44" class="node">
<title>9505</title>
<ellipse fill="none" stroke="#000000" cx="289.6141" cy="-378.8085" rx="28.6953" ry="18"/>
<text text-anchor="middle" x="289.6141" y="-375.1085" font-family="Times,serif" font-size="14.00" fill="#000000">9505</text>
</g>
<!-- 2687&#45;&gt;9505 -->
<g id="edge11" class="edge">
<title>2687&#45;&gt;9505</title>
<path fill="none" stroke="#000000" d="M388.4855,-821.5299C372.6829,-750.7698 314.9217,-492.1297 295.8048,-406.5287"/>
<polygon fill="#000000" stroke="#000000" points="299.2157,-405.7437 293.6202,-396.747 292.384,-407.2694 299.2157,-405.7437"/>
</g>
<!-- 2764 -->
<g id="node13" class="node">
<title>2764</title>
<ellipse fill="none" stroke="#000000" cx="329.8669" cy="-1088.2049" rx="28.6953" ry="18"/>
<text text-anchor="middle" x="329.8669" y="-1084.5049" font-family="Times,serif" font-size="14.00" fill="#000000">2764</text>
</g>
<!-- 7545 -->
<g id="node39" class="node">
<title>7545</title>
<ellipse fill="none" stroke="#000000" cx="386.3932" cy="-1215.3464" rx="28.6953" ry="18"/>
<text text-anchor="middle" x="386.3932" y="-1211.6464" font-family="Times,serif" font-size="14.00" fill="#000000">7545</text>
</g>
<!-- 2764&#45;&gt;7545 -->
<g id="edge12" class="edge">
<title>2764&#45;&gt;7545</title>
<path fill="none" stroke="#000000" d="M337.6081,-1105.6168C347.1109,-1126.9909 363.3291,-1163.4697 374.438,-1188.4562"/>
<polygon fill="#000000" stroke="#000000" points="371.3034,-1190.0211 378.5641,-1197.7368 377.6997,-1187.1773 371.3034,-1190.0211"/>
</g>
<!-- 38333 -->
<g id="node60" class="node">
<title>38333</title>
<ellipse fill="none" stroke="#000000" cx="93.8516" cy="-896.0933" rx="32.4942" ry="18"/>
<text text-anchor="middle" x="93.8516" y="-892.3933" font-family="Times,serif" font-size="14.00" fill="#000000">38333</text>
</g>
<!-- 2764&#45;&gt;38333 -->
<g id="edge13" class="edge">
<title>2764&#45;&gt;38333</title>
<path fill="none" stroke="#000000" d="M312.1274,-1073.7653C270.9831,-1040.2747 168.8723,-957.1586 120.3156,-917.6345"/>
<polygon fill="#000000" stroke="#000000" points="122.4133,-914.829 112.4483,-911.2306 117.9943,-920.2579 122.4133,-914.829"/>
</g>
<!-- 38561 -->
<g id="node61" class="node">
<title>38561</title>
<ellipse fill="none" stroke="#000000" cx="50.9266" cy="-778.1579" rx="32.4942" ry="18"/>
<text text-anchor="middle" x="50.9266" y="-774.4579" font-family="Times,serif" font-size="14.00" fill="#000000">38561</text>
</g>
<!-- 2764&#45;&gt;38561 -->
<g id="edge14" class="edge">
<title>2764&#45;&gt;38561</title>
<path fill="none" stroke="#000000" d="M315.6507,-1072.4034C269.9631,-1021.6208 126.7006,-862.382 72.2315,-801.8386"/>
<polygon fill="#000000" stroke="#000000" points="74.739,-799.3926 65.4487,-794.2994 69.535,-804.0745 74.739,-799.3926"/>
</g>
<!-- 2914 -->
<g id="node15" class="node">
<title>2914</title>
<ellipse fill="none" stroke="#000000" cx="691.238" cy="-545.5274" rx="28.6953" ry="18"/>
<text text-anchor="middle" x="691.238" y="-541.8274" font-family="Times,serif" font-size="14.00" fill="#000000">2914</text>
</g>
<!-- 6453 -->
<g id="node29" class="node">
<title>6453</title>
<ellipse fill="none" stroke="#000000" cx="746.3932" cy="-591.8081" rx="28.6953" ry="18"/>
<text text-anchor="middle" x="746.3932" y="-588.1081" font-family="Times,serif" font-size="14.00" fill="#000000">6453</text>
</g>
<!-- 2914&#45;&gt;6453 -->
<g id="edge15" class="edge">
<title>2914&#45;&gt;6453</title>
<path fill="none" stroke="#000000" d="M708.6895,-560.1709C712.6128,-563.463 716.8536,-567.0215 721.0265,-570.5229"/>
<polygon fill="#000000" stroke="#000000" points="718.9558,-573.3543 728.866,-577.1011 723.4553,-567.992 718.9558,-573.3543"/>
</g>
<!-- 3257 -->
<g id="node16" class="node">
<title>3257</title>
<ellipse fill="none" stroke="#000000" cx="801.5484" cy="-638.0889" rx="28.6953" ry="18"/>
<text text-anchor="middle" x="801.5484" y="-634.3889" font-family="Times,serif" font-size="14.00" fill="#000000">3257</text>
</g>
<!-- 3491 -->
<g id="node19" class="node">
<title>3491</title>
<ellipse fill="none" stroke="#000000" cx="856.7036" cy="-684.3696" rx="28.6953" ry="18"/>
<text text-anchor="middle" x="856.7036" y="-680.6696" font-family="Times,serif" font-size="14.00" fill="#000000">3491</text>
</g>
<!-- 3257&#45;&gt;3491 -->
<g id="edge16" class="edge">
<title>3257&#45;&gt;3491</title>
<path fill="none" stroke="#000000" d="M818.9999,-652.7324C822.9232,-656.0244 827.164,-659.5829 831.3369,-663.0844"/>
<polygon fill="#000000" stroke="#000000" points="829.2662,-665.9157 839.1764,-669.6625 833.7657,-660.5534 829.2662,-665.9157"/>
</g>
<!-- 3320 -->
<g id="node17" class="node">
<title>3320</title>
<ellipse fill="none" stroke="#000000" cx="1035.4758" cy="-1004.6608" rx="28.6953" ry="18"/>
<text text-anchor="middle" x="1035.4758" y="-1000.9608" font-family="Times,serif" font-size="14.00" fill="#000000">3320</text>
</g>
<!-- 3356 -->
<g id="node18" class="node">
<title>3356</title>
<ellipse fill="none" stroke="#000000" cx="868.1073" cy="-330.7915" rx="28.6953" ry="18"/>
<text text-anchor="middle" x="868.1073" y="-327.0915" font-family="Times,serif" font-size="14.00" fill="#000000">3356</text>
</g>
<!-- 3549 -->
<g id="node20" class="node">
<title>3549</title>
<ellipse fill="none" stroke="#000000" cx="580.9276" cy="-452.966" rx="28.6953" ry="18"/>
<text text-anchor="middle" x="580.9276" y="-449.266" font-family="Times,serif" font-size="14.00" fill="#000000">3549</text>
</g>
<!-- 3356&#45;&gt;3549 -->
<g id="edge17" class="edge">
<title>3356&#45;&gt;3549</title>
<path fill="none" stroke="#000000" d="M844.1165,-340.9979C792.8881,-362.7919 672.7175,-413.916 614.1661,-438.8254"/>
<polygon fill="#000000" stroke="#000000" points="612.4799,-435.7391 604.6482,-442.8746 615.2203,-442.1805 612.4799,-435.7391"/>
</g>
<!-- 3491&#45;&gt;174 -->
<g id="edge18" class="edge">
<title>3491&#45;&gt;174</title>
<path fill="none" stroke="#000000" d="M874.1551,-699.0131C878.1553,-702.3697 882.4857,-706.0032 886.7375,-709.571"/>
<polygon fill="#000000" stroke="#000000" points="884.7995,-712.5137 894.7097,-716.2605 889.299,-707.1514 884.7995,-712.5137"/>
</g>
<!-- 6762 -->
<g id="node32" class="node">
<title>6762</title>
<ellipse fill="none" stroke="#000000" cx="636.0828" cy="-499.2467" rx="28.6953" ry="18"/>
<text text-anchor="middle" x="636.0828" y="-495.5467" font-family="Times,serif" font-size="14.00" fill="#000000">6762</text>
</g>
<!-- 3549&#45;&gt;6762 -->
<g id="edge19" class="edge">
<title>3549&#45;&gt;6762</title>
<path fill="none" stroke="#000000" d="M598.3791,-467.6095C602.3024,-470.9016 606.5432,-474.4601 610.7161,-477.9615"/>
<polygon fill="#000000" stroke="#000000" points="608.6454,-480.7929 618.5556,-484.5396 613.1449,-475.4306 608.6454,-480.7929"/>
</g>
<!-- 30070 -->
<g id="node57" class="node">
<title>30070</title>
<ellipse fill="none" stroke="#000000" cx="485.3766" cy="-713.5222" rx="32.4942" ry="18"/>
<text text-anchor="middle" x="485.3766" y="-709.8222" font-family="Times,serif" font-size="14.00" fill="#000000">30070</text>
</g>
<!-- 3549&#45;&gt;30070 -->
<g id="edge20" class="edge">
<title>3549&#45;&gt;30070</title>
<path fill="none" stroke="#000000" d="M574.36,-470.8751C557.9216,-515.7006 514.922,-632.9555 495.3439,-686.3425"/>
<polygon fill="#000000" stroke="#000000" points="492.0208,-685.2387 491.8638,-695.8323 498.5929,-687.6488 492.0208,-685.2387"/>
</g>
<!-- 3597 -->
<g id="node21" class="node">
<title>3597</title>
<ellipse fill="none" stroke="#000000" cx="502.9651" cy="-69.7749" rx="28.6953" ry="18"/>
<text text-anchor="middle" x="502.9651" y="-66.0749" font-family="Times,serif" font-size="14.00" fill="#000000">3597</text>
</g>
<!-- 37179 -->
<g id="node59" class="node">
<title>37179</title>
<ellipse fill="none" stroke="#000000" cx="120.4733" cy="-424.0934" rx="32.4942" ry="18"/>
<text text-anchor="middle" x="120.4733" y="-420.3934" font-family="Times,serif" font-size="14.00" fill="#000000">37179</text>
</g>
<!-- 3741&#45;&gt;37179 -->
<g id="edge21" class="edge">
<title>3741&#45;&gt;37179</title>
<path fill="none" stroke="#000000" d="M163.3303,-435.5769C162.0806,-435.242 160.8161,-434.9032 159.5438,-434.5623"/>
<polygon fill="#000000" stroke="#000000" points="160.3183,-431.1464 149.7532,-431.9389 158.5065,-437.9079 160.3183,-431.1464"/>
</g>
<!-- 4635 -->
<g id="node23" class="node">
<title>4635</title>
<ellipse fill="none" stroke="#000000" cx="677.3659" cy="-1380.7943" rx="28.6953" ry="18"/>
<text text-anchor="middle" x="677.3659" y="-1377.0943" font-family="Times,serif" font-size="14.00" fill="#000000">4635</text>
</g>
<!-- 4637 -->
<g id="node24" class="node">
<title>4637</title>
<ellipse fill="none" stroke="#000000" cx="100.8591" cy="-648.2851" rx="28.6953" ry="18"/>
<text text-anchor="middle" x="100.8591" y="-644.5851" font-family="Times,serif" font-size="14.00" fill="#000000">4637</text>
</g>
<!-- 4739 -->
<g id="node25" class="node">
<title>4739</title>
<ellipse fill="none" stroke="#000000" cx="411.6796" cy="-1309.6039" rx="28.6953" ry="18"/>
<text text-anchor="middle" x="411.6796" y="-1305.9039" font-family="Times,serif" font-size="14.00" fill="#000000">4739</text>
</g>
<!-- 38880 -->
<g id="node62" class="node">
<title>38880</title>
<ellipse fill="none" stroke="#000000" cx="381.2511" cy="-1374.8581" rx="32.4942" ry="18"/>
<text text-anchor="middle" x="381.2511" y="-1371.1581" font-family="Times,serif" font-size="14.00" fill="#000000">38880</text>
</g>
<!-- 4739&#45;&gt;38880 -->
<g id="edge22" class="edge">
<title>4739&#45;&gt;38880</title>
<path fill="none" stroke="#000000" d="M403.5253,-1327.0908C400.5238,-1333.5276 397.0512,-1340.9744 393.7542,-1348.0449"/>
<polygon fill="#000000" stroke="#000000" points="390.482,-1346.7806 389.4278,-1357.3229 396.8262,-1349.739 390.482,-1346.7806"/>
</g>
<!-- 4755 -->
<g id="node26" class="node">
<title>4755</title>
<ellipse fill="none" stroke="#000000" cx="821.6958" cy="-1452.5204" rx="28.6953" ry="18"/>
<text text-anchor="middle" x="821.6958" y="-1448.8204" font-family="Times,serif" font-size="14.00" fill="#000000">4755</text>
</g>
<!-- 9583 -->
<g id="node45" class="node">
<title>9583</title>
<ellipse fill="none" stroke="#000000" cx="827.971" cy="-1524.2464" rx="28.6953" ry="18"/>
<text text-anchor="middle" x="827.971" y="-1520.5464" font-family="Times,serif" font-size="14.00" fill="#000000">9583</text>
</g>
<!-- 4755&#45;&gt;9583 -->
<g id="edge23" class="edge">
<title>4755&#45;&gt;9583</title>
<path fill="none" stroke="#000000" d="M823.2793,-1470.6199C823.9504,-1478.291 824.7485,-1487.4127 825.4943,-1495.9379"/>
<polygon fill="#000000" stroke="#000000" points="822.0079,-1496.2463 826.3662,-1505.9032 828.9812,-1495.6362 822.0079,-1496.2463"/>
</g>
<!-- 5692 -->
<g id="node28" class="node">
<title>5692</title>
<ellipse fill="none" stroke="#000000" cx="998.3932" cy="-155.3313" rx="28.6953" ry="18"/>
<text text-anchor="middle" x="998.3932" y="-151.6313" font-family="Times,serif" font-size="14.00" fill="#000000">5692</text>
</g>
<!-- 5692&#45;&gt;3597 -->
<g id="edge24" class="edge">
<title>5692&#45;&gt;3597</title>
<path fill="none" stroke="#000000" d="M970.6953,-150.5481C887.0225,-136.0985 636.7338,-92.8756 540.8847,-76.3233"/>
<polygon fill="#000000" stroke="#000000" points="541.2231,-72.83 530.7733,-74.5771 540.0318,-79.7279 541.2231,-72.83"/>
</g>
<!-- 10834 -->
<g id="node48" class="node">
<title>10834</title>
<ellipse fill="none" stroke="#000000" cx="928.9643" cy="-200.2832" rx="32.4942" ry="18"/>
<text text-anchor="middle" x="928.9643" y="-196.5832" font-family="Times,serif" font-size="14.00" fill="#000000">10834</text>
</g>
<!-- 5692&#45;&gt;10834 -->
<g id="edge25" class="edge">
<title>5692&#45;&gt;10834</title>
<path fill="none" stroke="#000000" d="M978.3115,-168.3333C972.2541,-172.2551 965.4692,-176.6481 958.9151,-180.8915"/>
<polygon fill="#000000" stroke="#000000" points="956.703,-178.1542 950.2109,-186.527 960.5074,-184.0301 956.703,-178.1542"/>
</g>
<!-- 11008 -->
<g id="node49" class="node">
<title>11008</title>
<ellipse fill="none" stroke="#000000" cx="597.3135" cy="-35.4349" rx="32.4942" ry="18"/>
<text text-anchor="middle" x="597.3135" y="-31.7349" font-family="Times,serif" font-size="14.00" fill="#000000">11008</text>
</g>
<!-- 5692&#45;&gt;11008 -->
<g id="edge26" class="edge">
<title>5692&#45;&gt;11008</title>
<path fill="none" stroke="#000000" d="M972.3863,-147.557C903.6349,-127.0048 716.8103,-71.1566 635.725,-46.9174"/>
<polygon fill="#000000" stroke="#000000" points="636.5023,-43.4968 625.9187,-43.986 634.4973,-50.2035 636.5023,-43.4968"/>
</g>
<!-- 27865 -->
<g id="node55" class="node">
<title>27865</title>
<ellipse fill="none" stroke="#000000" cx="696.1915" cy="-18" rx="32.4942" ry="18"/>
<text text-anchor="middle" x="696.1915" y="-14.3" font-family="Times,serif" font-size="14.00" fill="#000000">27865</text>
</g>
<!-- 5692&#45;&gt;27865 -->
<g id="edge27" class="edge">
<title>5692&#45;&gt;27865</title>
<path fill="none" stroke="#000000" d="M975.1818,-144.7832C922.4422,-120.8165 793.3496,-62.1521 731.0077,-33.8217"/>
<polygon fill="#000000" stroke="#000000" points="732.1493,-30.4961 721.5972,-29.5453 729.2532,-36.8689 732.1493,-30.4961"/>
</g>
<!-- 28065 -->
<g id="node56" class="node">
<title>28065</title>
<ellipse fill="none" stroke="#000000" cx="796.5949" cy="-18" rx="32.4942" ry="18"/>
<text text-anchor="middle" x="796.5949" y="-14.3" font-family="Times,serif" font-size="14.00" fill="#000000">28065</text>
</g>
<!-- 5692&#45;&gt;28065 -->
<g id="edge28" class="edge">
<title>5692&#45;&gt;28065</title>
<path fill="none" stroke="#000000" d="M978.6765,-141.9134C942.9371,-117.5913 867.3054,-66.1211 825.6423,-37.7678"/>
<polygon fill="#000000" stroke="#000000" points="827.5303,-34.8191 817.294,-32.0865 823.592,-40.6062 827.5303,-34.8191"/>
</g>
<!-- 52317 -->
<g id="node63" class="node">
<title>52317</title>
<ellipse fill="none" stroke="#000000" cx="895.473" cy="-35.4349" rx="32.4942" ry="18"/>
<text text-anchor="middle" x="895.473" y="-31.7349" font-family="Times,serif" font-size="14.00" fill="#000000">52317</text>
</g>
<!-- 5692&#45;&gt;52317 -->
<g id="edge29" class="edge">
<title>5692&#45;&gt;52317</title>
<path fill="none" stroke="#000000" d="M984.5129,-139.1616C966.9416,-118.692 936.5172,-83.2491 916.1924,-59.5718"/>
<polygon fill="#000000" stroke="#000000" points="918.6313,-57.0395 909.4621,-51.7314 913.3198,-61.5989 918.6313,-57.0395"/>
</g>
<!-- 52375 -->
<g id="node64" class="node">
<title>52375</title>
<ellipse fill="none" stroke="#000000" cx="989.8213" cy="-69.7749" rx="32.4942" ry="18"/>
<text text-anchor="middle" x="989.8213" y="-66.0749" font-family="Times,serif" font-size="14.00" fill="#000000">52375</text>
</g>
<!-- 5692&#45;&gt;52375 -->
<g id="edge30" class="edge">
<title>5692&#45;&gt;52375</title>
<path fill="none" stroke="#000000" d="M996.5754,-137.187C995.4389,-125.8439 993.9512,-110.9953 992.6614,-98.1219"/>
<polygon fill="#000000" stroke="#000000" points="996.1162,-97.4943 991.6366,-87.893 989.151,-98.1922 996.1162,-97.4943"/>
</g>
<!-- 52376 -->
<g id="node65" class="node">
<title>52376</title>
<ellipse fill="none" stroke="#000000" cx="1076.7733" cy="-119.9766" rx="32.4942" ry="18"/>
<text text-anchor="middle" x="1076.7733" y="-116.2766" font-family="Times,serif" font-size="14.00" fill="#000000">52376</text>
</g>
<!-- 5692&#45;&gt;52376 -->
<g id="edge31" class="edge">
<title>5692&#45;&gt;52376</title>
<path fill="none" stroke="#000000" d="M1021.9098,-144.7237C1028.296,-141.8431 1035.3471,-138.6626 1042.2065,-135.5686"/>
<polygon fill="#000000" stroke="#000000" points="1043.6846,-138.7415 1051.361,-131.4392 1040.8063,-132.3606 1043.6846,-138.7415"/>
</g>
<!-- 52380 -->
<g id="node66" class="node">
<title>52380</title>
<ellipse fill="none" stroke="#000000" cx="1153.6867" cy="-184.5146" rx="32.4942" ry="18"/>
<text text-anchor="middle" x="1153.6867" y="-180.8146" font-family="Times,serif" font-size="14.00" fill="#000000">52380</text>
</g>
<!-- 5692&#45;&gt;52380 -->
<g id="edge32" class="edge">
<title>5692&#45;&gt;52380</title>
<path fill="none" stroke="#000000" d="M1025.7991,-160.4816C1049.8886,-165.0085 1085.2844,-171.6602 1112.7345,-176.8188"/>
<polygon fill="#000000" stroke="#000000" points="1112.3515,-180.308 1122.8259,-178.7152 1113.6443,-173.4284 1112.3515,-180.308"/>
</g>
<!-- 52413 -->
<g id="node67" class="node">
<title>52413</title>
<ellipse fill="none" stroke="#000000" cx="1218.2248" cy="-261.4281" rx="32.4942" ry="18"/>
<text text-anchor="middle" x="1218.2248" y="-257.7281" font-family="Times,serif" font-size="14.00" fill="#000000">52413</text>
</g>
<!-- 5692&#45;&gt;52413 -->
<g id="edge33" class="edge">
<title>5692&#45;&gt;52413</title>
<path fill="none" stroke="#000000" d="M1021.0911,-166.286C1059.9066,-185.0194 1139.2219,-223.2991 1184.5221,-245.1623"/>
<polygon fill="#000000" stroke="#000000" points="1183.1183,-248.371 1193.6456,-249.5655 1186.1609,-242.0668 1183.1183,-248.371"/>
</g>
<!-- 52431 -->
<g id="node68" class="node">
<title>52431</title>
<ellipse fill="none" stroke="#000000" cx="1268.4265" cy="-348.38" rx="32.4942" ry="18"/>
<text text-anchor="middle" x="1268.4265" y="-344.68" font-family="Times,serif" font-size="14.00" fill="#000000">52431</text>
</g>
<!-- 5692&#45;&gt;52431 -->
<g id="edge34" class="edge">
<title>5692&#45;&gt;52431</title>
<path fill="none" stroke="#000000" d="M1017.3814,-168.9062C1064.1022,-202.3072 1184.8447,-288.6268 1240.0844,-328.118"/>
<polygon fill="#000000" stroke="#000000" points="1238.1957,-331.0702 1248.3662,-334.0388 1242.2668,-325.3758 1238.1957,-331.0702"/>
</g>
<!-- 262230 -->
<g id="node69" class="node">
<title>262230</title>
<ellipse fill="none" stroke="#000000" cx="1302.7665" cy="-442.7284" rx="37.0935" ry="18"/>
<text text-anchor="middle" x="1302.7665" y="-439.0284" font-family="Times,serif" font-size="14.00" fill="#000000">262230</text>
</g>
<!-- 5692&#45;&gt;262230 -->
<g id="edge35" class="edge">
<title>5692&#45;&gt;262230</title>
<path fill="none" stroke="#000000" d="M1014.3291,-170.3784C1064.1978,-217.4657 1217.5347,-362.2503 1277.9407,-419.2872"/>
<polygon fill="#000000" stroke="#000000" points="1275.8234,-422.1017 1285.4972,-426.4223 1280.6292,-417.012 1275.8234,-422.1017"/>
</g>
<!-- 264608 -->
<g id="node70" class="node">
<title>264608</title>
<ellipse fill="none" stroke="#000000" cx="1320.2014" cy="-541.6064" rx="37.0935" ry="18"/>
<text text-anchor="middle" x="1320.2014" y="-537.9064" font-family="Times,serif" font-size="14.00" fill="#000000">264608</text>
</g>
<!-- 5692&#45;&gt;264608 -->
<g id="edge36" class="edge">
<title>5692&#45;&gt;264608</title>
<path fill="none" stroke="#000000" d="M1011.8112,-171.4373C1061.9798,-231.656 1238.747,-443.8346 1299.5082,-516.7678"/>
<polygon fill="#000000" stroke="#000000" points="1296.9126,-519.1203 1306.0025,-524.5631 1302.2907,-514.6398 1296.9126,-519.1203"/>
</g>
<!-- 6453&#45;&gt;3257 -->
<g id="edge37" class="edge">
<title>6453&#45;&gt;3257</title>
<path fill="none" stroke="#000000" d="M763.8447,-606.4517C767.768,-609.7437 772.0088,-613.3022 776.1817,-616.8036"/>
<polygon fill="#000000" stroke="#000000" points="774.111,-619.635 784.0212,-623.3818 778.6105,-614.2727 774.111,-619.635"/>
</g>
<!-- 6461&#45;&gt;701 -->
<g id="edge38" class="edge">
<title>6461&#45;&gt;701</title>
<path fill="none" stroke="#000000" d="M1093.4208,-854.2898C1121.1036,-828.144 1177.8348,-774.5628 1209.8649,-744.3111"/>
<polygon fill="#000000" stroke="#000000" points="1212.5764,-746.5645 1217.4432,-737.1536 1207.7699,-741.4755 1212.5764,-746.5645"/>
</g>
<!-- 6461&#45;&gt;1239 -->
<g id="edge39" class="edge">
<title>6461&#45;&gt;1239</title>
<path fill="none" stroke="#000000" d="M1099.5338,-858.077C1119.5385,-847.7947 1149.1647,-832.5672 1171.624,-821.0233"/>
<polygon fill="#000000" stroke="#000000" points="1173.4677,-824.011 1180.7617,-816.3266 1170.2677,-817.7852 1173.4677,-824.011"/>
</g>
<!-- 6461&#45;&gt;1273 -->
<g id="edge40" class="edge">
<title>6461&#45;&gt;1273</title>
<path fill="none" stroke="#000000" d="M1105.5171,-873.415C1110.5938,-874.1214 1115.9612,-874.8682 1121.2618,-875.6057"/>
<polygon fill="#000000" stroke="#000000" points="1120.8917,-879.0878 1131.2787,-876.9994 1121.8565,-872.1546 1120.8917,-879.0878"/>
</g>
<!-- 6461&#45;&gt;2497 -->
<g id="edge41" class="edge">
<title>6461&#45;&gt;2497</title>
<path fill="none" stroke="#000000" d="M1083.0996,-887.3501C1086.2885,-897.2108 1090.3175,-909.669 1093.8978,-920.74"/>
<polygon fill="#000000" stroke="#000000" points="1090.6154,-921.9651 1097.0228,-930.4029 1097.2758,-919.8111 1090.6154,-921.9651"/>
</g>
<!-- 6461&#45;&gt;3320 -->
<g id="edge42" class="edge">
<title>6461&#45;&gt;3320</title>
<path fill="none" stroke="#000000" d="M1071.8534,-887.1633C1064.7417,-910.1337 1052.2489,-950.4846 1043.9175,-977.3944"/>
<polygon fill="#000000" stroke="#000000" points="1040.5623,-976.3977 1040.9481,-986.9855 1047.2491,-978.468 1040.5623,-976.3977"/>
</g>
<!-- 7018 -->
<g id="node36" class="node">
<title>7018</title>
<ellipse fill="none" stroke="#000000" cx="959.3928" cy="-1048.5873" rx="28.6953" ry="18"/>
<text text-anchor="middle" x="959.3928" y="-1044.8873" font-family="Times,serif" font-size="14.00" fill="#000000">7018</text>
</g>
<!-- 6461&#45;&gt;7018 -->
<g id="edge43" class="edge">
<title>6461&#45;&gt;7018</title>
<path fill="none" stroke="#000000" d="M1066.2297,-886.3412C1045.4561,-917.8888 1000.5871,-986.0283 976.1247,-1023.1778"/>
<polygon fill="#000000" stroke="#000000" points="972.9486,-1021.6369 970.3722,-1031.9137 978.795,-1025.4867 972.9486,-1021.6369"/>
</g>
<!-- 6695 -->
<g id="node31" class="node">
<title>6695</title>
<ellipse fill="none" stroke="#000000" cx="504.1386" cy="-1495.9147" rx="28.6953" ry="18"/>
<text text-anchor="middle" x="504.1386" y="-1492.2147" font-family="Times,serif" font-size="14.00" fill="#000000">6695</text>
</g>
<!-- 6762&#45;&gt;2914 -->
<g id="edge44" class="edge">
<title>6762&#45;&gt;2914</title>
<path fill="none" stroke="#000000" d="M653.5343,-513.8902C657.4576,-517.1823 661.6984,-520.7408 665.8713,-524.2422"/>
<polygon fill="#000000" stroke="#000000" points="663.8006,-527.0736 673.7108,-530.8203 668.3001,-521.7113 663.8006,-527.0736"/>
</g>
<!-- 6904 -->
<g id="node33" class="node">
<title>6904</title>
<ellipse fill="none" stroke="#000000" cx="451.4985" cy="-798.2957" rx="28.6953" ry="18"/>
<text text-anchor="middle" x="451.4985" y="-794.5957" font-family="Times,serif" font-size="14.00" fill="#000000">6904</text>
</g>
<!-- 6904&#45;&gt;2687 -->
<g id="edge45" class="edge">
<title>6904&#45;&gt;2687</title>
<path fill="none" stroke="#000000" d="M432.1866,-811.818C428.2769,-814.5556 424.0953,-817.4836 419.9672,-820.3741"/>
<polygon fill="#000000" stroke="#000000" points="417.8574,-817.5786 411.6734,-826.1815 421.8725,-823.3127 417.8574,-817.5786"/>
</g>
<!-- 6939 -->
<g id="node34" class="node">
<title>6939</title>
<ellipse fill="none" stroke="#000000" cx="186.3647" cy="-1151.8367" rx="28.6953" ry="18"/>
<text text-anchor="middle" x="186.3647" y="-1148.1367" font-family="Times,serif" font-size="14.00" fill="#000000">6939</text>
</g>
<!-- 12266 -->
<g id="node50" class="node">
<title>12266</title>
<ellipse fill="none" stroke="#000000" cx="135.453" cy="-1202.7484" rx="32.4942" ry="18"/>
<text text-anchor="middle" x="135.453" y="-1199.0484" font-family="Times,serif" font-size="14.00" fill="#000000">12266</text>
</g>
<!-- 6939&#45;&gt;12266 -->
<g id="edge46" class="edge">
<title>6939&#45;&gt;12266</title>
<path fill="none" stroke="#000000" d="M171.0895,-1167.1119C167.2086,-1170.9928 162.9497,-1175.2517 158.7684,-1179.433"/>
<polygon fill="#000000" stroke="#000000" points="156.0205,-1177.2312 151.4242,-1186.7771 160.9702,-1182.1809 156.0205,-1177.2312"/>
</g>
<!-- 7016 -->
<g id="node35" class="node">
<title>7016</title>
<ellipse fill="none" stroke="#000000" cx="451.4985" cy="-385.3206" rx="28.6953" ry="18"/>
<text text-anchor="middle" x="451.4985" y="-381.6206" font-family="Times,serif" font-size="14.00" fill="#000000">7016</text>
</g>
<!-- 7922 -->
<g id="node40" class="node">
<title>7922</title>
<ellipse fill="none" stroke="#000000" cx="392.5195" cy="-344.0231" rx="28.6953" ry="18"/>
<text text-anchor="middle" x="392.5195" y="-340.3231" font-family="Times,serif" font-size="14.00" fill="#000000">7922</text>
</g>
<!-- 7016&#45;&gt;7922 -->
<g id="edge47" class="edge">
<title>7016&#45;&gt;7922</title>
<path fill="none" stroke="#000000" d="M432.1866,-371.7983C428.2769,-369.0607 424.0953,-366.1327 419.9672,-363.2422"/>
<polygon fill="#000000" stroke="#000000" points="421.8725,-360.3036 411.6734,-357.4348 417.8574,-366.0377 421.8725,-360.3036"/>
</g>
<!-- 7473 -->
<g id="node37" class="node">
<title>7473</title>
<ellipse fill="none" stroke="#000000" cx="224.3599" cy="-348.38" rx="28.6953" ry="18"/>
<text text-anchor="middle" x="224.3599" y="-344.68" font-family="Times,serif" font-size="14.00" fill="#000000">7473</text>
</g>
<!-- 7474 -->
<g id="node38" class="node">
<title>7474</title>
<ellipse fill="none" stroke="#000000" cx="100.8591" cy="-535.3312" rx="28.6953" ry="18"/>
<text text-anchor="middle" x="100.8591" y="-531.6312" font-family="Times,serif" font-size="14.00" fill="#000000">7474</text>
</g>
<!-- 7545&#45;&gt;4635 -->
<g id="edge48" class="edge">
<title>7545&#45;&gt;4635</title>
<path fill="none" stroke="#000000" d="M407.7891,-1227.5122C458.8664,-1256.5549 588.0496,-1330.0088 647.0882,-1363.5784"/>
<polygon fill="#000000" stroke="#000000" points="645.5156,-1366.7104 655.9386,-1368.6107 648.9756,-1360.6253 645.5156,-1366.7104"/>
</g>
<!-- 7545&#45;&gt;4739 -->
<g id="edge49" class="edge">
<title>7545&#45;&gt;4739</title>
<path fill="none" stroke="#000000" d="M391.2687,-1233.5202C394.9653,-1247.2997 400.1083,-1266.4709 404.3069,-1282.1214"/>
<polygon fill="#000000" stroke="#000000" points="400.9332,-1283.054 406.9048,-1291.8056 407.6942,-1281.2402 400.9332,-1283.054"/>
</g>
<!-- 7545&#45;&gt;6939 -->
<g id="edge50" class="edge">
<title>7545&#45;&gt;6939</title>
<path fill="none" stroke="#000000" d="M360.6525,-1207.1737C325.2451,-1195.9317 261.3852,-1175.656 221.5771,-1163.0168"/>
<polygon fill="#000000" stroke="#000000" points="222.5969,-1159.6685 212.0066,-1159.9781 220.4785,-1166.3402 222.5969,-1159.6685"/>
</g>
<!-- 9942 -->
<g id="node46" class="node">
<title>9942</title>
<ellipse fill="none" stroke="#000000" cx="97.6248" cy="-1046.0807" rx="28.6953" ry="18"/>
<text text-anchor="middle" x="97.6248" y="-1042.3807" font-family="Times,serif" font-size="14.00" fill="#000000">9942</text>
</g>
<!-- 7545&#45;&gt;9942 -->
<g id="edge51" class="edge">
<title>7545&#45;&gt;9942</title>
<path fill="none" stroke="#000000" d="M365.1594,-1202.8999C314.4691,-1173.1871 186.2645,-1098.0381 127.6731,-1063.6939"/>
<polygon fill="#000000" stroke="#000000" points="129.2869,-1060.5829 118.8898,-1058.5454 125.747,-1066.6219 129.2869,-1060.5829"/>
</g>
<!-- 9002 -->
<g id="node41" class="node">
<title>9002</title>
<ellipse fill="none" stroke="#000000" cx="350.8225" cy="-1440.1122" rx="28.6953" ry="18"/>
<text text-anchor="middle" x="350.8225" y="-1436.4122" font-family="Times,serif" font-size="14.00" fill="#000000">9002</text>
</g>
<!-- 9443 -->
<g id="node42" class="node">
<title>9443</title>
<ellipse fill="none" stroke="#000000" cx="209.5257" cy="-1358.5345" rx="28.6953" ry="18"/>
<text text-anchor="middle" x="209.5257" y="-1354.8345" font-family="Times,serif" font-size="14.00" fill="#000000">9443</text>
</g>
<!-- 10026 -->
<g id="node47" class="node">
<title>10026</title>
<ellipse fill="none" stroke="#000000" cx="815.4206" cy="-1380.7943" rx="32.4942" ry="18"/>
<text text-anchor="middle" x="815.4206" y="-1377.0943" font-family="Times,serif" font-size="14.00" fill="#000000">10026</text>
</g>
<!-- 9498&#45;&gt;10026 -->
<g id="edge52" class="edge">
<title>9498&#45;&gt;10026</title>
<path fill="none" stroke="#000000" d="M810.7289,-1327.1678C811.4,-1334.8389 812.1981,-1343.9607 812.9439,-1352.4858"/>
<polygon fill="#000000" stroke="#000000" points="809.4574,-1352.7943 813.8158,-1362.4511 816.4308,-1352.1841 809.4574,-1352.7943"/>
</g>
<!-- 9505&#45;&gt;7473 -->
<g id="edge53" class="edge">
<title>9505&#45;&gt;7473</title>
<path fill="none" stroke="#000000" d="M266.4242,-367.9949C263.2509,-366.5152 259.9473,-364.9747 256.6483,-363.4363"/>
<polygon fill="#000000" stroke="#000000" points="258.0174,-360.213 247.4752,-359.1588 255.0591,-366.5572 258.0174,-360.213"/>
</g>
<!-- 10026&#45;&gt;4755 -->
<g id="edge54" class="edge">
<title>10026&#45;&gt;4755</title>
<path fill="none" stroke="#000000" d="M817.0041,-1398.8938C817.6752,-1406.565 818.4733,-1415.6867 819.2191,-1424.2119"/>
<polygon fill="#000000" stroke="#000000" points="815.7326,-1424.5203 820.091,-1434.1772 822.706,-1423.9101 815.7326,-1424.5203"/>
</g>
<!-- 12956 -->
<g id="node51" class="node">
<title>12956</title>
<ellipse fill="none" stroke="#000000" cx="898.5358" cy="-265.5373" rx="32.4942" ry="18"/>
<text text-anchor="middle" x="898.5358" y="-261.8373" font-family="Times,serif" font-size="14.00" fill="#000000">12956</text>
</g>
<!-- 10834&#45;&gt;12956 -->
<g id="edge55" class="edge">
<title>10834&#45;&gt;12956</title>
<path fill="none" stroke="#000000" d="M920.81,-217.7701C917.8085,-224.2068 914.336,-231.6537 911.039,-238.7242"/>
<polygon fill="#000000" stroke="#000000" points="907.7668,-237.4599 906.7126,-248.0022 914.1109,-240.4183 907.7668,-237.4599"/>
</g>
<!-- 22927 -->
<g id="node54" class="node">
<title>22927</title>
<ellipse fill="none" stroke="#000000" cx="457.3107" cy="-178.9555" rx="32.4942" ry="18"/>
<text text-anchor="middle" x="457.3107" y="-175.2555" font-family="Times,serif" font-size="14.00" fill="#000000">22927</text>
</g>
<!-- 10834&#45;&gt;22927 -->
<g id="edge56" class="edge">
<title>10834&#45;&gt;22927</title>
<path fill="none" stroke="#000000" d="M896.5457,-198.8172C813.5794,-195.0656 593.5426,-185.1158 500.1721,-180.8937"/>
<polygon fill="#000000" stroke="#000000" points="500.1042,-177.3871 489.9562,-180.4317 499.7879,-184.38 500.1042,-177.3871"/>
</g>
<!-- 20454 -->
<g id="node53" class="node">
<title>20454</title>
<ellipse fill="none" stroke="#000000" cx="84.5413" cy="-1253.6601" rx="32.4942" ry="18"/>
<text text-anchor="middle" x="84.5413" y="-1249.9601" font-family="Times,serif" font-size="14.00" fill="#000000">20454</text>
</g>
<!-- 12266&#45;&gt;20454 -->
<g id="edge57" class="edge">
<title>12266&#45;&gt;20454</title>
<path fill="none" stroke="#000000" d="M119.6233,-1218.5781C115.8286,-1222.3728 111.6992,-1226.5022 107.6497,-1230.5516"/>
<polygon fill="#000000" stroke="#000000" points="105.1328,-1228.1189 100.5365,-1237.6648 110.0825,-1233.0686 105.1328,-1228.1189"/>
</g>
<!-- 12956&#45;&gt;3356 -->
<g id="edge58" class="edge">
<title>12956&#45;&gt;3356</title>
<path fill="none" stroke="#000000" d="M890.3815,-283.0243C887.38,-289.461 883.9075,-296.9079 880.6105,-303.9783"/>
<polygon fill="#000000" stroke="#000000" points="877.3382,-302.714 876.2841,-313.2563 883.6824,-305.6724 877.3382,-302.714"/>
</g>
<!-- 18540 -->
<g id="node52" class="node">
<title>18540</title>
<ellipse fill="none" stroke="#000000" cx="491.8348" cy="-337.2497" rx="32.4942" ry="18"/>
<text text-anchor="middle" x="491.8348" y="-333.5497" font-family="Times,serif" font-size="14.00" fill="#000000">18540</text>
</g>
<!-- 30070&#45;&gt;6904 -->
<g id="edge59" class="edge">
<title>30070&#45;&gt;6904</title>
<path fill="none" stroke="#000000" d="M478.1919,-731.5005C473.5795,-743.0421 467.5035,-758.2462 462.3137,-771.2328"/>
<polygon fill="#000000" stroke="#000000" points="459.0176,-770.0492 458.5566,-780.634 465.5177,-772.6469 459.0176,-770.0492"/>
</g>
<!-- 30070&#45;&gt;7016 -->
<g id="edge60" class="edge">
<title>30070&#45;&gt;7016</title>
<path fill="none" stroke="#000000" d="M483.5069,-695.4092C477.8962,-641.0538 461.1738,-479.0519 454.3979,-413.4095"/>
<polygon fill="#000000" stroke="#000000" points="457.8708,-412.9654 453.3624,-403.3777 450.9078,-413.6842 457.8708,-412.9654"/>
</g>
<!-- 30070&#45;&gt;18540 -->
<g id="edge61" class="edge">
<title>30070&#45;&gt;18540</title>
<path fill="none" stroke="#000000" d="M485.6881,-695.3738C486.7258,-634.9129 490.0714,-439.9899 491.3404,-366.0524"/>
<polygon fill="#000000" stroke="#000000" points="494.8466,-365.7154 491.5189,-355.6568 487.8477,-365.5952 494.8466,-365.7154"/>
</g>
<!-- 32787&#45;&gt;703 -->
<g id="edge62" class="edge">
<title>32787&#45;&gt;703</title>
<path fill="none" stroke="#000000" d="M363.0575,-1011.4088C440.7377,-1051.3135 685.605,-1177.1027 772.1778,-1221.5755"/>
<polygon fill="#000000" stroke="#000000" points="770.7351,-1224.7692 781.2294,-1226.2254 773.9337,-1218.5427 770.7351,-1224.7692"/>
</g>
<!-- 32787&#45;&gt;2764 -->
<g id="edge63" class="edge">
<title>32787&#45;&gt;2764</title>
<path fill="none" stroke="#000000" d="M337.2313,-1017.133C335.9548,-1029.4519 334.2376,-1046.0242 332.7825,-1060.0671"/>
<polygon fill="#000000" stroke="#000000" points="329.2819,-1059.8929 331.7325,-1070.2004 336.2446,-1060.6144 329.2819,-1059.8929"/>
</g>
<!-- 32787&#45;&gt;4637 -->
<g id="edge64" class="edge">
<title>32787&#45;&gt;4637</title>
<path fill="none" stroke="#000000" d="M327.6089,-982.181C289.0027,-925.3323 163.8098,-740.9819 117.9209,-673.4092"/>
<polygon fill="#000000" stroke="#000000" points="120.7481,-671.3423 112.2346,-665.0359 114.9572,-675.275 120.7481,-671.3423"/>
</g>
<!-- 32787&#45;&gt;7474 -->
<g id="edge65" class="edge">
<title>32787&#45;&gt;7474</title>
<path fill="none" stroke="#000000" d="M330.1952,-981.7677C293.9995,-911.3075 157.7647,-646.1064 114.2845,-561.4658"/>
<polygon fill="#000000" stroke="#000000" points="117.3644,-559.8015 109.6817,-552.5058 111.1379,-563.0001 117.3644,-559.8015"/>
</g>
<!-- 38333&#45;&gt;1221 -->
<g id="edge66" class="edge">
<title>38333&#45;&gt;1221</title>
<path fill="none" stroke="#000000" d="M68.8093,-907.7707C66.2687,-908.9554 63.6631,-910.1704 61.0589,-911.3848"/>
<polygon fill="#000000" stroke="#000000" points="59.3368,-908.3259 51.7529,-915.7243 62.2952,-914.6701 59.3368,-908.3259"/>
</g>
<!-- 38880&#45;&gt;6695 -->
<g id="edge67" class="edge">
<title>38880&#45;&gt;6695</title>
<path fill="none" stroke="#000000" d="M397.3165,-1390.6841C418.6852,-1411.7345 456.5985,-1449.0829 481.0354,-1473.1557"/>
<polygon fill="#000000" stroke="#000000" points="478.8776,-1475.9431 488.4578,-1480.4675 483.7901,-1470.9563 478.8776,-1475.9431"/>
</g>
<!-- 38880&#45;&gt;9002 -->
<g id="edge68" class="edge">
<title>38880&#45;&gt;9002</title>
<path fill="none" stroke="#000000" d="M373.0968,-1392.345C370.0953,-1398.7817 366.6227,-1406.2286 363.3257,-1413.2991"/>
<polygon fill="#000000" stroke="#000000" points="360.0535,-1412.0348 358.9993,-1422.577 366.3976,-1414.9931 360.0535,-1412.0348"/>
</g>
<!-- 38880&#45;&gt;9443 -->
<g id="edge69" class="edge">
<title>38880&#45;&gt;9443</title>
<path fill="none" stroke="#000000" d="M348.9508,-1371.7877C320.3573,-1369.0697 278.5689,-1365.0975 248.2019,-1362.2109"/>
<polygon fill="#000000" stroke="#000000" points="248.2638,-1358.7011 237.9775,-1361.239 247.6013,-1365.6697 248.2638,-1358.7011"/>
</g>
</g>
</svg>
