<?xml version="1.0" encoding="UTF-8" standalone="no"?>
<!DOCTYPE svg PUBLIC "-//W3C//DTD SVG 1.1//EN"
 "http://www.w3.org/Graphics/SVG/1.1/DTD/svg11.dtd">
<!-- Generated by graphviz version 2.40.1 (20161225.0304)
 -->
<!-- Title: %3 Pages: 1 -->
<svg width="825pt" height="501pt"
 viewBox="0.00 0.00 825.30 500.85" xmlns="http://www.w3.org/2000/svg" xmlns:xlink="http://www.w3.org/1999/xlink">
<g id="graph0" class="graph" transform="scale(1 1) rotate(0) translate(4 496.8502)">
<title>%3</title>
<polygon fill="#ffffff" stroke="transparent" points="-4,4 -4,-496.8502 821.2977,-496.8502 821.2977,4 -4,4"/>
<!-- 174 -->
<g id="node1" class="node">
<title>174</title>
<ellipse fill="none" stroke="#000000" cx="632.7386" cy="-101.5681" rx="27" ry="18"/>
<text text-anchor="middle" x="632.7386" y="-97.8681" font-family="Times,serif" font-size="14.00" fill="#000000">174</text>
</g>
<!-- 209 -->
<g id="node2" class="node">
<title>209</title>
<ellipse fill="none" stroke="#000000" cx="666.6569" cy="-78.9414" rx="27" ry="18"/>
<text text-anchor="middle" x="666.6569" y="-75.2414" font-family="Times,serif" font-size="14.00" fill="#000000">209</text>
</g>
<!-- 174&#45;&gt;209 -->
<g id="edge1" class="edge">
<title>174&#45;&gt;209</title>
<path fill="none" stroke="#000000" d="M652.0756,-88.6685C652.1352,-88.6288 652.1946,-88.5891 652.254,-88.5494"/>
<polygon fill="#000000" stroke="#000000" points="646.0556,-96.894 652.4322,-88.4306 642.1695,-91.0703 646.0556,-96.894"/>
</g>
<!-- 1299 -->
<g id="node8" class="node">
<title>1299</title>
<ellipse fill="none" stroke="#000000" cx="709.9996" cy="-74.1403" rx="28.6953" ry="18"/>
<text text-anchor="middle" x="709.9996" y="-70.4403" font-family="Times,serif" font-size="14.00" fill="#000000">1299</text>
</g>
<!-- 209&#45;&gt;1299 -->
<g id="edge2" class="edge">
<title>209&#45;&gt;1299</title>
<path fill="none" stroke="#000000" d="M693.3662,-75.9828C693.4358,-75.975 693.5054,-75.9673 693.575,-75.9596"/>
<polygon fill="#000000" stroke="#000000" points="684.2309,-80.5205 693.7833,-75.9365 683.4573,-73.563 684.2309,-80.5205"/>
</g>
<!-- 2828 -->
<g id="node14" class="node">
<title>2828</title>
<ellipse fill="none" stroke="#000000" cx="651.4895" cy="-52.0324" rx="28.6953" ry="18"/>
<text text-anchor="middle" x="651.4895" y="-48.3324" font-family="Times,serif" font-size="14.00" fill="#000000">2828</text>
</g>
<!-- 209&#45;&gt;2828 -->
<g id="edge3" class="edge">
<title>209&#45;&gt;2828</title>
<path fill="none" stroke="#000000" d="M657.1373,-62.0523C657.0896,-61.9679 657.0421,-61.8836 656.9948,-61.7995"/>
<polygon fill="#000000" stroke="#000000" points="664.8141,-68.5406 656.8529,-61.5479 658.7158,-71.979 664.8141,-68.5406"/>
</g>
<!-- 701 -->
<g id="node3" class="node">
<title>701</title>
<ellipse fill="none" stroke="#000000" cx="734.1888" cy="-25.0995" rx="27" ry="18"/>
<text text-anchor="middle" x="734.1888" y="-21.3995" font-family="Times,serif" font-size="14.00" fill="#000000">701</text>
</g>
<!-- 703 -->
<g id="node4" class="node">
<title>703</title>
<ellipse fill="none" stroke="#000000" cx="215.7105" cy="-300.0302" rx="27" ry="18"/>
<text text-anchor="middle" x="215.7105" y="-296.3302" font-family="Times,serif" font-size="14.00" fill="#000000">703</text>
</g>
<!-- 9498 -->
<g id="node43" class="node">
<title>9498</title>
<ellipse fill="none" stroke="#000000" cx="205.8489" cy="-337.6362" rx="28.6953" ry="18"/>
<text text-anchor="middle" x="205.8489" y="-333.9362" font-family="Times,serif" font-size="14.00" fill="#000000">9498</text>
</g>
<!-- 703&#45;&gt;9498 -->
<g id="edge4" class="edge">
<title>703&#45;&gt;9498</title>
<path fill="none" stroke="#000000" d="M211.0107,-317.9521C210.971,-318.1035 210.9313,-318.2549 210.8916,-318.4063"/>
<polygon fill="#000000" stroke="#000000" points="209.6858,-309.2084 210.5342,-319.7694 216.4568,-310.9844 209.6858,-309.2084"/>
</g>
<!-- 1221 -->
<g id="node5" class="node">
<title>1221</title>
<ellipse fill="none" stroke="#000000" cx="193.9026" cy="-164.0262" rx="28.6953" ry="18"/>
<text text-anchor="middle" x="193.9026" y="-160.3262" font-family="Times,serif" font-size="14.00" fill="#000000">1221</text>
</g>
<!-- 1239 -->
<g id="node6" class="node">
<title>1239</title>
<ellipse fill="none" stroke="#000000" cx="786.807" cy="-35.2668" rx="28.6953" ry="18"/>
<text text-anchor="middle" x="786.807" y="-31.5668" font-family="Times,serif" font-size="14.00" fill="#000000">1239</text>
</g>
<!-- 1273 -->
<g id="node7" class="node">
<title>1273</title>
<ellipse fill="none" stroke="#000000" cx="763.2988" cy="-18" rx="28.6953" ry="18"/>
<text text-anchor="middle" x="763.2988" y="-14.3" font-family="Times,serif" font-size="14.00" fill="#000000">1273</text>
</g>
<!-- 5511 -->
<g id="node27" class="node">
<title>5511</title>
<ellipse fill="none" stroke="#000000" cx="712.6337" cy="-104.0176" rx="28.6953" ry="18"/>
<text text-anchor="middle" x="712.6337" y="-100.3176" font-family="Times,serif" font-size="14.00" fill="#000000">5511</text>
</g>
<!-- 1299&#45;&gt;5511 -->
<g id="edge5" class="edge">
<title>1299&#45;&gt;5511</title>
<path fill="none" stroke="#000000" d="M711.5927,-92.2093C711.597,-92.2584 711.6013,-92.3075 711.6056,-92.3566"/>
<polygon fill="#000000" stroke="#000000" points="707.2477,-82.8518 711.6186,-92.5036 714.2207,-82.2327 707.2477,-82.8518"/>
</g>
<!-- 6461 -->
<g id="node30" class="node">
<title>6461</title>
<ellipse fill="none" stroke="#000000" cx="754.579" cy="-52.2601" rx="28.6953" ry="18"/>
<text text-anchor="middle" x="754.579" y="-48.5601" font-family="Times,serif" font-size="14.00" fill="#000000">6461</text>
</g>
<!-- 1299&#45;&gt;6461 -->
<g id="edge6" class="edge">
<title>1299&#45;&gt;6461</title>
<path fill="none" stroke="#000000" d="M732.8117,-62.9438C732.8545,-62.9228 732.8974,-62.9017 732.9402,-62.8807"/>
<polygon fill="#000000" stroke="#000000" points="725.6345,-70.3698 733.0687,-62.8176 722.5475,-64.0854 725.6345,-70.3698"/>
</g>
<!-- 2497 -->
<g id="node9" class="node">
<title>2497</title>
<ellipse fill="none" stroke="#000000" cx="728.7316" cy="-51.7079" rx="28.6953" ry="18"/>
<text text-anchor="middle" x="728.7316" y="-48.0079" font-family="Times,serif" font-size="14.00" fill="#000000">2497</text>
</g>
<!-- 2516 -->
<g id="node10" class="node">
<title>2516</title>
<ellipse fill="none" stroke="#000000" cx="283.9225" cy="-277.2018" rx="28.6953" ry="18"/>
<text text-anchor="middle" x="283.9225" y="-273.5018" font-family="Times,serif" font-size="14.00" fill="#000000">2516</text>
</g>
<!-- 32787 -->
<g id="node58" class="node">
<title>32787</title>
<ellipse fill="none" stroke="#000000" cx="229.1209" cy="-260.235" rx="32.4942" ry="18"/>
<text text-anchor="middle" x="229.1209" y="-256.535" font-family="Times,serif" font-size="14.00" fill="#000000">32787</text>
</g>
<!-- 2516&#45;&gt;32787 -->
<g id="edge7" class="edge">
<title>2516&#45;&gt;32787</title>
<path fill="none" stroke="#000000" d="M258.1264,-269.2152C258.0709,-269.198 258.0154,-269.1809 257.9598,-269.1637"/>
<polygon fill="#000000" stroke="#000000" points="268.3827,-268.7301 257.7932,-269.1121 266.3096,-275.4171 268.3827,-268.7301"/>
</g>
<!-- 2686 -->
<g id="node11" class="node">
<title>2686</title>
<ellipse fill="none" stroke="#000000" cx="334.2347" cy="-331.2148" rx="28.6953" ry="18"/>
<text text-anchor="middle" x="334.2347" y="-327.5148" font-family="Times,serif" font-size="14.00" fill="#000000">2686</text>
</g>
<!-- 3741 -->
<g id="node22" class="node">
<title>3741</title>
<ellipse fill="none" stroke="#000000" cx="330.1892" cy="-366.2975" rx="28.6953" ry="18"/>
<text text-anchor="middle" x="330.1892" y="-362.5975" font-family="Times,serif" font-size="14.00" fill="#000000">3741</text>
</g>
<!-- 2686&#45;&gt;3741 -->
<g id="edge8" class="edge">
<title>2686&#45;&gt;3741</title>
<path fill="none" stroke="#000000" d="M332.1171,-349.5782C332.1095,-349.6445 332.1018,-349.7108 332.0942,-349.7771"/>
<polygon fill="#000000" stroke="#000000" points="329.7443,-339.6391 332.0713,-349.9758 336.6982,-340.4441 329.7443,-339.6391"/>
</g>
<!-- 2687 -->
<g id="node12" class="node">
<title>2687</title>
<ellipse fill="none" stroke="#000000" cx="337.6849" cy="-293.1946" rx="28.6953" ry="18"/>
<text text-anchor="middle" x="337.6849" y="-289.4946" font-family="Times,serif" font-size="14.00" fill="#000000">2687</text>
</g>
<!-- 2687&#45;&gt;2516 -->
<g id="edge9" class="edge">
<title>2687&#45;&gt;2516</title>
<path fill="none" stroke="#000000" d="M311.7486,-285.4793C311.5875,-285.4314 311.4263,-285.3834 311.2652,-285.3355"/>
<polygon fill="#000000" stroke="#000000" points="320.3976,-284.401 309.8146,-284.904 318.4014,-291.1104 320.3976,-284.401"/>
</g>
<!-- 2687&#45;&gt;2686 -->
<g id="edge10" class="edge">
<title>2687&#45;&gt;2686</title>
<path fill="none" stroke="#000000" d="M336.0406,-311.3139C336.0268,-311.4669 336.0129,-311.62 335.999,-311.7731"/>
<polygon fill="#000000" stroke="#000000" points="333.2927,-302.8756 335.8739,-313.1512 340.264,-303.5086 333.2927,-302.8756"/>
</g>
<!-- 9505 -->
<g id="node44" class="node">
<title>9505</title>
<ellipse fill="none" stroke="#000000" cx="345.687" cy="-262.503" rx="28.6953" ry="18"/>
<text text-anchor="middle" x="345.687" y="-258.803" font-family="Times,serif" font-size="14.00" fill="#000000">9505</text>
</g>
<!-- 2687&#45;&gt;9505 -->
<g id="edge11" class="edge">
<title>2687&#45;&gt;9505</title>
<path fill="none" stroke="#000000" d="M342.3397,-275.3412C342.3535,-275.2884 342.3672,-275.2357 342.381,-275.1831"/>
<polygon fill="#000000" stroke="#000000" points="343.2815,-285.5865 342.4221,-275.0252 336.5078,-283.8173 343.2815,-285.5865"/>
</g>
<!-- 2764 -->
<g id="node13" class="node">
<title>2764</title>
<ellipse fill="none" stroke="#000000" cx="176.9874" cy="-231.9425" rx="28.6953" ry="18"/>
<text text-anchor="middle" x="176.9874" y="-228.2425" font-family="Times,serif" font-size="14.00" fill="#000000">2764</text>
</g>
<!-- 7545 -->
<g id="node39" class="node">
<title>7545</title>
<ellipse fill="none" stroke="#000000" cx="120.2611" cy="-219.8613" rx="28.6953" ry="18"/>
<text text-anchor="middle" x="120.2611" y="-216.1613" font-family="Times,serif" font-size="14.00" fill="#000000">7545</text>
</g>
<!-- 2764&#45;&gt;7545 -->
<g id="edge12" class="edge">
<title>2764&#45;&gt;7545</title>
<path fill="none" stroke="#000000" d="M149.6212,-226.1142C149.5362,-226.0961 149.4512,-226.078 149.3662,-226.0599"/>
<polygon fill="#000000" stroke="#000000" points="158.0904,-224.3398 147.5806,-225.6796 156.632,-231.1863 158.0904,-224.3398"/>
</g>
<!-- 38333 -->
<g id="node60" class="node">
<title>38333</title>
<ellipse fill="none" stroke="#000000" cx="185.5917" cy="-195.1816" rx="32.4942" ry="18"/>
<text text-anchor="middle" x="185.5917" y="-191.4816" font-family="Times,serif" font-size="14.00" fill="#000000">38333</text>
</g>
<!-- 2764&#45;&gt;38333 -->
<g id="edge13" class="edge">
<title>2764&#45;&gt;38333</title>
<path fill="none" stroke="#000000" d="M181.1887,-213.9928C181.2228,-213.847 181.257,-213.7011 181.2911,-213.5553"/>
<polygon fill="#000000" stroke="#000000" points="182.5207,-223.653 181.3935,-213.1178 175.7049,-222.0565 182.5207,-223.653"/>
</g>
<!-- 38561 -->
<g id="node61" class="node">
<title>38561</title>
<ellipse fill="none" stroke="#000000" cx="166.1612" cy="-257.2738" rx="32.4942" ry="18"/>
<text text-anchor="middle" x="166.1612" y="-253.5738" font-family="Times,serif" font-size="14.00" fill="#000000">38561</text>
</g>
<!-- 2764&#45;&gt;38561 -->
<g id="edge14" class="edge">
<title>2764&#45;&gt;38561</title>
<path fill="none" stroke="#000000" d="M169.4683,-249.5359C169.4394,-249.6035 169.4106,-249.6708 169.3819,-249.7379"/>
<polygon fill="#000000" stroke="#000000" points="170.0105,-239.3662 169.2962,-249.9384 176.4475,-242.1191 170.0105,-239.3662"/>
</g>
<!-- 2914 -->
<g id="node15" class="node">
<title>2914</title>
<ellipse fill="none" stroke="#000000" cx="535.6029" cy="-221.7255" rx="28.6953" ry="18"/>
<text text-anchor="middle" x="535.6029" y="-218.0255" font-family="Times,serif" font-size="14.00" fill="#000000">2914</text>
</g>
<!-- 6453 -->
<g id="node29" class="node">
<title>6453</title>
<ellipse fill="none" stroke="#000000" cx="555.1016" cy="-186.6344" rx="28.6953" ry="18"/>
<text text-anchor="middle" x="555.1016" y="-182.9344" font-family="Times,serif" font-size="14.00" fill="#000000">6453</text>
</g>
<!-- 2914&#45;&gt;6453 -->
<g id="edge15" class="edge">
<title>2914&#45;&gt;6453</title>
<path fill="none" stroke="#000000" d="M545.1238,-204.5912C545.2011,-204.452 545.2785,-204.3128 545.3559,-204.1735"/>
<polygon fill="#000000" stroke="#000000" points="543.7892,-214.1978 545.5879,-203.7559 537.6702,-210.797 543.7892,-214.1978"/>
</g>
<!-- 3257 -->
<g id="node16" class="node">
<title>3257</title>
<ellipse fill="none" stroke="#000000" cx="576.9177" cy="-154.6321" rx="28.6953" ry="18"/>
<text text-anchor="middle" x="576.9177" y="-150.9321" font-family="Times,serif" font-size="14.00" fill="#000000">3257</text>
</g>
<!-- 3491 -->
<g id="node19" class="node">
<title>3491</title>
<ellipse fill="none" stroke="#000000" cx="602.6584" cy="-126.7021" rx="28.6953" ry="18"/>
<text text-anchor="middle" x="602.6584" y="-123.0021" font-family="Times,serif" font-size="14.00" fill="#000000">3491</text>
</g>
<!-- 3257&#45;&gt;3491 -->
<g id="edge16" class="edge">
<title>3257&#45;&gt;3491</title>
<path fill="none" stroke="#000000" d="M591.2933,-139.0339C591.3393,-138.9839 591.3854,-138.934 591.4314,-138.8841"/>
<polygon fill="#000000" stroke="#000000" points="587.3649,-148.4616 591.5693,-138.7344 582.2166,-143.7166 587.3649,-148.4616"/>
</g>
<!-- 3320 -->
<g id="node17" class="node">
<title>3320</title>
<ellipse fill="none" stroke="#000000" cx="762.4686" cy="-87.1698" rx="28.6953" ry="18"/>
<text text-anchor="middle" x="762.4686" y="-83.4698" font-family="Times,serif" font-size="14.00" fill="#000000">3320</text>
</g>
<!-- 3356 -->
<g id="node18" class="node">
<title>3356</title>
<ellipse fill="none" stroke="#000000" cx="540.2972" cy="-330.5892" rx="28.6953" ry="18"/>
<text text-anchor="middle" x="540.2972" y="-326.8892" font-family="Times,serif" font-size="14.00" fill="#000000">3356</text>
</g>
<!-- 3549 -->
<g id="node20" class="node">
<title>3549</title>
<ellipse fill="none" stroke="#000000" cx="500.1959" cy="-299.8265" rx="28.6953" ry="18"/>
<text text-anchor="middle" x="500.1959" y="-296.1265" font-family="Times,serif" font-size="14.00" fill="#000000">3549</text>
</g>
<!-- 3356&#45;&gt;3549 -->
<g id="edge17" class="edge">
<title>3356&#45;&gt;3549</title>
<path fill="none" stroke="#000000" d="M522.1238,-316.6479C521.9787,-316.5367 521.8336,-316.4253 521.6883,-316.3138"/>
<polygon fill="#000000" stroke="#000000" points="528.6974,-317.2795 518.6327,-313.9698 524.4367,-322.8335 528.6974,-317.2795"/>
</g>
<!-- 3491&#45;&gt;174 -->
<g id="edge18" class="edge">
<title>3491&#45;&gt;174</title>
<path fill="none" stroke="#000000" d="M620.1562,-112.0816C620.2079,-112.0384 620.2596,-111.9952 620.3112,-111.9521"/>
<polygon fill="#000000" stroke="#000000" points="615.0358,-120.9228 620.4659,-111.8228 610.5462,-115.5503 615.0358,-120.9228"/>
</g>
<!-- 6762 -->
<g id="node32" class="node">
<title>6762</title>
<ellipse fill="none" stroke="#000000" cx="517.6363" cy="-259.4243" rx="28.6953" ry="18"/>
<text text-anchor="middle" x="517.6363" y="-255.7243" font-family="Times,serif" font-size="14.00" fill="#000000">6762</text>
</g>
<!-- 3549&#45;&gt;6762 -->
<g id="edge19" class="edge">
<title>3549&#45;&gt;6762</title>
<path fill="none" stroke="#000000" d="M507.8962,-281.9879C507.9419,-281.8822 507.9875,-281.7764 508.0332,-281.6705"/>
<polygon fill="#000000" stroke="#000000" points="509.3445,-287.4639 510.0944,-276.8956 502.9177,-284.6896 509.3445,-287.4639"/>
</g>
<!-- 30070 -->
<g id="node57" class="node">
<title>30070</title>
<ellipse fill="none" stroke="#000000" cx="446.3487" cy="-305.2214" rx="32.4942" ry="18"/>
<text text-anchor="middle" x="446.3487" y="-301.5214" font-family="Times,serif" font-size="14.00" fill="#000000">30070</text>
</g>
<!-- 3549&#45;&gt;30070 -->
<g id="edge20" class="edge">
<title>3549&#45;&gt;30070</title>
<path fill="none" stroke="#000000" d="M471.6955,-302.6819C471.6451,-302.687 471.5946,-302.692 471.5442,-302.6971"/>
<polygon fill="#000000" stroke="#000000" points="480.9921,-298.2268 471.3929,-302.7122 481.6941,-305.192 480.9921,-298.2268"/>
</g>
<!-- 3597 -->
<g id="node21" class="node">
<title>3597</title>
<ellipse fill="none" stroke="#000000" cx="654.1875" cy="-399.6226" rx="28.6953" ry="18"/>
<text text-anchor="middle" x="654.1875" y="-395.9226" font-family="Times,serif" font-size="14.00" fill="#000000">3597</text>
</g>
<!-- 37179 -->
<g id="node59" class="node">
<title>37179</title>
<ellipse fill="none" stroke="#000000" cx="326.1881" cy="-396.3825" rx="32.4942" ry="18"/>
<text text-anchor="middle" x="326.1881" y="-392.6825" font-family="Times,serif" font-size="14.00" fill="#000000">37179</text>
</g>
<!-- 3741&#45;&gt;37179 -->
<g id="edge21" class="edge">
<title>3741&#45;&gt;37179</title>
<path fill="none" stroke="#000000" d="M327.7694,-384.4921C327.7628,-384.5416 327.7562,-384.591 327.7497,-384.6404"/>
<polygon fill="#000000" stroke="#000000" points="325.5846,-374.4123 327.73,-384.7885 332.5236,-375.3392 325.5846,-374.4123"/>
</g>
<!-- 4635 -->
<g id="node23" class="node">
<title>4635</title>
<ellipse fill="none" stroke="#000000" cx="129.8033" cy="-192.7052" rx="28.6953" ry="18"/>
<text text-anchor="middle" x="129.8033" y="-189.0052" font-family="Times,serif" font-size="14.00" fill="#000000">4635</text>
</g>
<!-- 4637 -->
<g id="node24" class="node">
<title>4637</title>
<ellipse fill="none" stroke="#000000" cx="230.5744" cy="-229.3588" rx="28.6953" ry="18"/>
<text text-anchor="middle" x="230.5744" y="-225.6588" font-family="Times,serif" font-size="14.00" fill="#000000">4637</text>
</g>
<!-- 4739 -->
<g id="node25" class="node">
<title>4739</title>
<ellipse fill="none" stroke="#000000" cx="86.3375" cy="-183.7003" rx="28.6953" ry="18"/>
<text text-anchor="middle" x="86.3375" y="-180.0003" font-family="Times,serif" font-size="14.00" fill="#000000">4739</text>
</g>
<!-- 38880 -->
<g id="node62" class="node">
<title>38880</title>
<ellipse fill="none" stroke="#000000" cx="55.8438" cy="-151.744" rx="32.4942" ry="18"/>
<text text-anchor="middle" x="55.8438" y="-148.044" font-family="Times,serif" font-size="14.00" fill="#000000">38880</text>
</g>
<!-- 4739&#45;&gt;38880 -->
<g id="edge22" class="edge">
<title>4739&#45;&gt;38880</title>
<path fill="none" stroke="#000000" d="M71.448,-168.0966C71.3875,-168.0332 71.327,-167.9699 71.2665,-167.9065"/>
<polygon fill="#000000" stroke="#000000" points="80.5223,-172.5354 71.0851,-167.7163 75.4573,-177.3687 80.5223,-172.5354"/>
</g>
<!-- 4755 -->
<g id="node26" class="node">
<title>4755</title>
<ellipse fill="none" stroke="#000000" cx="202.0734" cy="-405.2103" rx="28.6953" ry="18"/>
<text text-anchor="middle" x="202.0734" y="-401.5103" font-family="Times,serif" font-size="14.00" fill="#000000">4755</text>
</g>
<!-- 9583 -->
<g id="node45" class="node">
<title>9583</title>
<ellipse fill="none" stroke="#000000" cx="196.7682" cy="-434.424" rx="28.6953" ry="18"/>
<text text-anchor="middle" x="196.7682" y="-430.724" font-family="Times,serif" font-size="14.00" fill="#000000">9583</text>
</g>
<!-- 4755&#45;&gt;9583 -->
<g id="edge23" class="edge">
<title>4755&#45;&gt;9583</title>
<path fill="none" stroke="#000000" d="M198.8042,-423.2128C198.7956,-423.2597 198.7871,-423.3067 198.7786,-423.3535"/>
<polygon fill="#000000" stroke="#000000" points="197.1019,-413.0274 198.7531,-423.494 203.9893,-414.2822 197.1019,-413.0274"/>
</g>
<!-- 5692 -->
<g id="node28" class="node">
<title>5692</title>
<ellipse fill="none" stroke="#000000" cx="674.4192" cy="-427.1764" rx="28.6953" ry="18"/>
<text text-anchor="middle" x="674.4192" y="-423.4764" font-family="Times,serif" font-size="14.00" fill="#000000">5692</text>
</g>
<!-- 5692&#45;&gt;3597 -->
<g id="edge24" class="edge">
<title>5692&#45;&gt;3597</title>
<path fill="none" stroke="#000000" d="M662.4165,-410.8298C662.3825,-410.7834 662.3485,-410.7371 662.3145,-410.6909"/>
<polygon fill="#000000" stroke="#000000" points="670.9551,-416.5415 662.2127,-410.5522 665.312,-420.6861 670.9551,-416.5415"/>
</g>
<!-- 10834 -->
<g id="node48" class="node">
<title>10834</title>
<ellipse fill="none" stroke="#000000" cx="619.8995" cy="-395.9336" rx="32.4942" ry="18"/>
<text text-anchor="middle" x="619.8995" y="-392.2336" font-family="Times,serif" font-size="14.00" fill="#000000">10834</text>
</g>
<!-- 5692&#45;&gt;10834 -->
<g id="edge25" class="edge">
<title>5692&#45;&gt;10834</title>
<path fill="none" stroke="#000000" d="M653.1844,-415.0077C652.6424,-414.6972 652.0972,-414.3847 651.5495,-414.0708"/>
<polygon fill="#000000" stroke="#000000" points="653.0253,-410.8826 642.6087,-408.9473 649.5449,-416.9561 653.0253,-410.8826"/>
</g>
<!-- 11008 -->
<g id="node49" class="node">
<title>11008</title>
<ellipse fill="none" stroke="#000000" cx="673.9088" cy="-387.0593" rx="32.4942" ry="18"/>
<text text-anchor="middle" x="673.9088" y="-383.3593" font-family="Times,serif" font-size="14.00" fill="#000000">11008</text>
</g>
<!-- 5692&#45;&gt;11008 -->
<g id="edge26" class="edge">
<title>5692&#45;&gt;11008</title>
<path fill="none" stroke="#000000" d="M674.1879,-408.9959C674.1861,-408.8508 674.1842,-408.7055 674.1824,-408.5602"/>
<polygon fill="#000000" stroke="#000000" points="677.7707,-415.4579 674.1435,-405.5034 670.7713,-415.5472 677.7707,-415.4579"/>
</g>
<!-- 27865 -->
<g id="node55" class="node">
<title>27865</title>
<ellipse fill="none" stroke="#000000" cx="705.712" cy="-392.1996" rx="32.4942" ry="18"/>
<text text-anchor="middle" x="705.712" y="-388.4996" font-family="Times,serif" font-size="14.00" fill="#000000">27865</text>
</g>
<!-- 5692&#45;&gt;27865 -->
<g id="edge27" class="edge">
<title>5692&#45;&gt;27865</title>
<path fill="none" stroke="#000000" d="M688.6007,-411.3254C688.6977,-411.217 688.7948,-411.1084 688.892,-410.9998"/>
<polygon fill="#000000" stroke="#000000" points="686.8768,-418.5014 690.9362,-408.715 681.6599,-413.834 686.8768,-418.5014"/>
</g>
<!-- 28065 -->
<g id="node56" class="node">
<title>28065</title>
<ellipse fill="none" stroke="#000000" cx="713.1067" cy="-438.216" rx="32.4942" ry="18"/>
<text text-anchor="middle" x="713.1067" y="-434.516" font-family="Times,serif" font-size="14.00" fill="#000000">28065</text>
</g>
<!-- 5692&#45;&gt;28065 -->
<g id="edge28" class="edge">
<title>5692&#45;&gt;28065</title>
<path fill="none" stroke="#000000" d="M700.8657,-434.723C700.9189,-434.7382 700.9719,-434.7533 701.0249,-434.7684"/>
<polygon fill="#000000" stroke="#000000" points="690.6052,-435.431 701.1835,-434.8137 692.529,-428.6995 690.6052,-435.431"/>
</g>
<!-- 52317 -->
<g id="node63" class="node">
<title>52317</title>
<ellipse fill="none" stroke="#000000" cx="687.5732" cy="-454.9734" rx="32.4942" ry="18"/>
<text text-anchor="middle" x="687.5732" y="-451.2734" font-family="Times,serif" font-size="14.00" fill="#000000">52317</text>
</g>
<!-- 5692&#45;&gt;52317 -->
<g id="edge29" class="edge">
<title>5692&#45;&gt;52317</title>
<path fill="none" stroke="#000000" d="M682.6752,-444.6228C682.6958,-444.6665 682.7164,-444.7101 682.737,-444.7536"/>
<polygon fill="#000000" stroke="#000000" points="675.3535,-437.3428 682.7988,-444.884 681.6813,-434.3459 675.3535,-437.3428"/>
</g>
<!-- 52375 -->
<g id="node64" class="node">
<title>52375</title>
<ellipse fill="none" stroke="#000000" cx="641.1932" cy="-427.3011" rx="32.4942" ry="18"/>
<text text-anchor="middle" x="641.1932" y="-423.6011" font-family="Times,serif" font-size="14.00" fill="#000000">52375</text>
</g>
<!-- 5692&#45;&gt;52375 -->
<g id="edge30" class="edge">
<title>5692&#45;&gt;52375</title>
<path fill="none" stroke="#000000" d="M645.8131,-427.2838C645.7258,-427.2841 645.6394,-427.2844 645.554,-427.2848"/>
<polygon fill="#000000" stroke="#000000" points="655.2861,-423.7443 645.3007,-427.2857 655.3151,-430.7442 655.2861,-423.7443"/>
</g>
<!-- 52376 -->
<g id="node65" class="node">
<title>52376</title>
<ellipse fill="none" stroke="#000000" cx="659.6059" cy="-453.2065" rx="32.4942" ry="18"/>
<text text-anchor="middle" x="659.6059" y="-449.5065" font-family="Times,serif" font-size="14.00" fill="#000000">52376</text>
</g>
<!-- 5692&#45;&gt;52376 -->
<g id="edge31" class="edge">
<title>5692&#45;&gt;52376</title>
<path fill="none" stroke="#000000" d="M664.621,-444.3939C664.578,-444.4696 664.5351,-444.545 664.4923,-444.6202"/>
<polygon fill="#000000" stroke="#000000" points="666.2701,-434.4216 664.3643,-444.8451 672.3543,-437.8852 666.2701,-434.4216"/>
</g>
<!-- 52380 -->
<g id="node66" class="node">
<title>52380</title>
<ellipse fill="none" stroke="#000000" cx="638.8244" cy="-452.4887" rx="32.4942" ry="18"/>
<text text-anchor="middle" x="638.8244" y="-448.7887" font-family="Times,serif" font-size="14.00" fill="#000000">52380</text>
</g>
<!-- 5692&#45;&gt;52380 -->
<g id="edge32" class="edge">
<title>5692&#45;&gt;52380</title>
<path fill="none" stroke="#000000" d="M655.3713,-440.7218C655.3052,-440.7688 655.2391,-440.8158 655.173,-440.8628"/>
<polygon fill="#000000" stroke="#000000" points="661.0962,-432.3541 654.9749,-441.0037 665.1542,-438.0593 661.0962,-432.3541"/>
</g>
<!-- 52413 -->
<g id="node67" class="node">
<title>52413</title>
<ellipse fill="none" stroke="#000000" cx="672.9328" cy="-474.8502" rx="32.4942" ry="18"/>
<text text-anchor="middle" x="672.9328" y="-471.1502" font-family="Times,serif" font-size="14.00" fill="#000000">52413</text>
</g>
<!-- 5692&#45;&gt;52413 -->
<g id="edge33" class="edge">
<title>5692&#45;&gt;52413</title>
<path fill="none" stroke="#000000" d="M673.8573,-445.1998C673.8425,-445.6745 673.8276,-446.1524 673.8126,-446.6327"/>
<polygon fill="#000000" stroke="#000000" points="670.309,-446.697 673.4955,-456.8013 677.3056,-446.9153 670.309,-446.697"/>
</g>
<!-- 52431 -->
<g id="node68" class="node">
<title>52431</title>
<ellipse fill="none" stroke="#000000" cx="709.5558" cy="-459.7763" rx="32.4942" ry="18"/>
<text text-anchor="middle" x="709.5558" y="-456.0763" font-family="Times,serif" font-size="14.00" fill="#000000">52431</text>
</g>
<!-- 5692&#45;&gt;52431 -->
<g id="edge34" class="edge">
<title>5692&#45;&gt;52431</title>
<path fill="none" stroke="#000000" d="M690.7531,-442.3311C690.8965,-442.4642 691.04,-442.5973 691.1835,-442.7305"/>
<polygon fill="#000000" stroke="#000000" points="682.7649,-439.6941 692.4764,-443.93 687.5261,-434.5625 682.7649,-439.6941"/>
</g>
<!-- 262230 -->
<g id="node69" class="node">
<title>262230</title>
<ellipse fill="none" stroke="#000000" cx="718.5345" cy="-415.9187" rx="37.0935" ry="18"/>
<text text-anchor="middle" x="718.5345" y="-412.2187" font-family="Times,serif" font-size="14.00" fill="#000000">262230</text>
</g>
<!-- 5692&#45;&gt;262230 -->
<g id="edge35" class="edge">
<title>5692&#45;&gt;262230</title>
<path fill="none" stroke="#000000" d="M701.099,-420.368C701.1716,-420.3495 701.2441,-420.331 701.3165,-420.3125"/>
<polygon fill="#000000" stroke="#000000" points="692.7106,-426.1245 701.5336,-420.2571 690.9774,-419.3418 692.7106,-426.1245"/>
</g>
<!-- 264608 -->
<g id="node70" class="node">
<title>264608</title>
<ellipse fill="none" stroke="#000000" cx="690.7471" cy="-408.0106" rx="37.0935" ry="18"/>
<text text-anchor="middle" x="690.7471" y="-404.3106" font-family="Times,serif" font-size="14.00" fill="#000000">264608</text>
</g>
<!-- 5692&#45;&gt;264608 -->
<g id="edge36" class="edge">
<title>5692&#45;&gt;264608</title>
<path fill="none" stroke="#000000" d="M688.1959,-411.0053C688.2437,-410.9491 688.2911,-410.8935 688.3379,-410.8386"/>
<polygon fill="#000000" stroke="#000000" points="684.6548,-420.5591 688.4768,-410.6755 679.3255,-416.0185 684.6548,-420.5591"/>
</g>
<!-- 6453&#45;&gt;3257 -->
<g id="edge37" class="edge">
<title>6453&#45;&gt;3257</title>
<path fill="none" stroke="#000000" d="M566.5208,-169.8834C566.5621,-169.8229 566.6033,-169.7625 566.6445,-169.702"/>
<polygon fill="#000000" stroke="#000000" points="564.0256,-179.7563 566.7681,-169.5207 558.2412,-175.812 564.0256,-179.7563"/>
</g>
<!-- 6461&#45;&gt;701 -->
<g id="edge38" class="edge">
<title>6461&#45;&gt;701</title>
<path fill="none" stroke="#000000" d="M742.2476,-35.8341C742.214,-35.7894 742.1805,-35.7448 742.147,-35.7002"/>
<polygon fill="#000000" stroke="#000000" points="750.8522,-41.4628 742.0467,-35.5665 745.2533,-45.667 750.8522,-41.4628"/>
</g>
<!-- 6461&#45;&gt;1239 -->
<g id="edge39" class="edge">
<title>6461&#45;&gt;1239</title>
<path fill="none" stroke="#000000" d="M776.6099,-40.6436C776.6541,-40.6202 776.6983,-40.5969 776.7424,-40.5737"/>
<polygon fill="#000000" stroke="#000000" points="769.6619,-48.268 776.8746,-40.504 766.3945,-42.0755 769.6619,-48.268"/>
</g>
<!-- 6461&#45;&gt;1273 -->
<g id="edge40" class="edge">
<title>6461&#45;&gt;1273</title>
<path fill="none" stroke="#000000" d="M759.1432,-34.3273C759.1597,-34.2626 759.1762,-34.1978 759.1926,-34.1331"/>
<polygon fill="#000000" stroke="#000000" points="760.1637,-44.4948 759.242,-33.939 753.3798,-42.7656 760.1637,-44.4948"/>
</g>
<!-- 6461&#45;&gt;2497 -->
<g id="edge41" class="edge">
<title>6461&#45;&gt;2497</title>
<path fill="none" stroke="#000000" d="M728.8057,-51.7095C728.7935,-51.7092 728.7828,-51.709 728.7735,-51.7088"/>
<polygon fill="#000000" stroke="#000000" points="738.8375,-48.4647 728.7503,-51.7083 738.6586,-55.4631 738.8375,-48.4647"/>
</g>
<!-- 6461&#45;&gt;3320 -->
<g id="edge42" class="edge">
<title>6461&#45;&gt;3320</title>
<path fill="none" stroke="#000000" d="M758.6163,-70.124C758.6314,-70.1911 758.6466,-70.2582 758.6618,-70.3253"/>
<polygon fill="#000000" stroke="#000000" points="753.0851,-61.5453 758.7072,-70.5265 759.913,-59.9995 753.0851,-61.5453"/>
</g>
<!-- 7018 -->
<g id="node36" class="node">
<title>7018</title>
<ellipse fill="none" stroke="#000000" cx="788.7003" cy="-64.0535" rx="28.6953" ry="18"/>
<text text-anchor="middle" x="788.7003" y="-60.3535" font-family="Times,serif" font-size="14.00" fill="#000000">7018</text>
</g>
<!-- 6461&#45;&gt;7018 -->
<g id="edge43" class="edge">
<title>6461&#45;&gt;7018</title>
<path fill="none" stroke="#000000" d="M779.7353,-60.9549C779.8152,-60.9825 779.8948,-61.01 779.9741,-61.0374"/>
<polygon fill="#000000" stroke="#000000" points="769.6151,-61.158 780.211,-61.1193 771.9037,-54.5419 769.6151,-61.158"/>
</g>
<!-- 6695 -->
<g id="node31" class="node">
<title>6695</title>
<ellipse fill="none" stroke="#000000" cx="63.9287" cy="-120.2984" rx="28.6953" ry="18"/>
<text text-anchor="middle" x="63.9287" y="-116.5984" font-family="Times,serif" font-size="14.00" fill="#000000">6695</text>
</g>
<!-- 6762&#45;&gt;2914 -->
<g id="edge44" class="edge">
<title>6762&#45;&gt;2914</title>
<path fill="none" stroke="#000000" d="M525.9884,-241.8993C526.0434,-241.7839 526.0984,-241.6685 526.1534,-241.553"/>
<polygon fill="#000000" stroke="#000000" points="526.1669,-249.6597 527.3098,-239.1266 519.8478,-246.648 526.1669,-249.6597"/>
</g>
<!-- 6904 -->
<g id="node33" class="node">
<title>6904</title>
<ellipse fill="none" stroke="#000000" cx="391.9855" cy="-297.7884" rx="28.6953" ry="18"/>
<text text-anchor="middle" x="391.9855" y="-294.0884" font-family="Times,serif" font-size="14.00" fill="#000000">6904</text>
</g>
<!-- 6904&#45;&gt;2687 -->
<g id="edge45" class="edge">
<title>6904&#45;&gt;2687</title>
<path fill="none" stroke="#000000" d="M363.563,-295.3839C363.5116,-295.3795 363.4603,-295.3752 363.409,-295.3709"/>
<polygon fill="#000000" stroke="#000000" points="373.5167,-292.7192 363.2551,-295.3578 372.9224,-299.6943 373.5167,-292.7192"/>
</g>
<!-- 6939 -->
<g id="node34" class="node">
<title>6939</title>
<ellipse fill="none" stroke="#000000" cx="88.7628" cy="-251.8021" rx="28.6953" ry="18"/>
<text text-anchor="middle" x="88.7628" y="-248.1021" font-family="Times,serif" font-size="14.00" fill="#000000">6939</text>
</g>
<!-- 12266 -->
<g id="node50" class="node">
<title>12266</title>
<ellipse fill="none" stroke="#000000" cx="58.1631" cy="-273.7385" rx="32.4942" ry="18"/>
<text text-anchor="middle" x="58.1631" y="-270.0385" font-family="Times,serif" font-size="14.00" fill="#000000">12266</text>
</g>
<!-- 6939&#45;&gt;12266 -->
<g id="edge46" class="edge">
<title>6939&#45;&gt;12266</title>
<path fill="none" stroke="#000000" d="M69.5573,-265.5702C69.5093,-265.6046 69.4613,-265.639 69.4134,-265.6734"/>
<polygon fill="#000000" stroke="#000000" points="75.3582,-257.1027 69.2698,-265.7763 79.4383,-262.7925 75.3582,-257.1027"/>
</g>
<!-- 7016 -->
<g id="node35" class="node">
<title>7016</title>
<ellipse fill="none" stroke="#000000" cx="454.5828" cy="-337.9346" rx="28.6953" ry="18"/>
<text text-anchor="middle" x="454.5828" y="-334.2346" font-family="Times,serif" font-size="14.00" fill="#000000">7016</text>
</g>
<!-- 7922 -->
<g id="node40" class="node">
<title>7922</title>
<ellipse fill="none" stroke="#000000" cx="458.9172" cy="-366.0553" rx="28.6953" ry="18"/>
<text text-anchor="middle" x="458.9172" y="-362.3553" font-family="Times,serif" font-size="14.00" fill="#000000">7922</text>
</g>
<!-- 7016&#45;&gt;7922 -->
<g id="edge47" class="edge">
<title>7016&#45;&gt;7922</title>
<path fill="none" stroke="#000000" d="M457.3524,-355.9031C457.359,-355.9461 457.3657,-355.9891 457.3723,-356.0321"/>
<polygon fill="#000000" stroke="#000000" points="452.403,-346.8129 457.3921,-356.1608 459.3214,-345.7419 452.403,-346.8129"/>
</g>
<!-- 7473 -->
<g id="node37" class="node">
<title>7473</title>
<ellipse fill="none" stroke="#000000" cx="354.786" cy="-235.9811" rx="28.6953" ry="18"/>
<text text-anchor="middle" x="354.786" y="-232.2811" font-family="Times,serif" font-size="14.00" fill="#000000">7473</text>
</g>
<!-- 7474 -->
<g id="node38" class="node">
<title>7474</title>
<ellipse fill="none" stroke="#000000" cx="254.7778" cy="-246.1008" rx="28.6953" ry="18"/>
<text text-anchor="middle" x="254.7778" y="-242.4008" font-family="Times,serif" font-size="14.00" fill="#000000">7474</text>
</g>
<!-- 7545&#45;&gt;4635 -->
<g id="edge48" class="edge">
<title>7545&#45;&gt;4635</title>
<path fill="none" stroke="#000000" d="M126.4659,-202.2031C126.4944,-202.122 126.5228,-202.0412 126.5511,-201.9606"/>
<polygon fill="#000000" stroke="#000000" points="126.6202,-212.3154 126.6358,-201.7195 120.0159,-209.993 126.6202,-212.3154"/>
</g>
<!-- 7545&#45;&gt;4739 -->
<g id="edge49" class="edge">
<title>7545&#45;&gt;4739</title>
<path fill="none" stroke="#000000" d="M105.6775,-204.3159C105.5788,-204.2106 105.4799,-204.1052 105.3809,-203.9997"/>
<polygon fill="#000000" stroke="#000000" points="110.3032,-204.131 100.9087,-199.2325 105.198,-208.9203 110.3032,-204.131"/>
</g>
<!-- 7545&#45;&gt;6939 -->
<g id="edge50" class="edge">
<title>7545&#45;&gt;6939</title>
<path fill="none" stroke="#000000" d="M104.881,-235.4574C104.7561,-235.5841 104.6311,-235.7108 104.5062,-235.8376"/>
<polygon fill="#000000" stroke="#000000" points="108.6612,-226.6392 104.1313,-236.2177 113.6457,-231.5547 108.6612,-226.6392"/>
</g>
<!-- 9942 -->
<g id="node46" class="node">
<title>9942</title>
<ellipse fill="none" stroke="#000000" cx="94.34" cy="-222.7822" rx="28.6953" ry="18"/>
<text text-anchor="middle" x="94.34" y="-219.0822" font-family="Times,serif" font-size="14.00" fill="#000000">9942</text>
</g>
<!-- 7545&#45;&gt;9942 -->
<g id="edge51" class="edge">
<title>7545&#45;&gt;9942</title>
<path fill="none" stroke="#000000" d="M94.4144,-222.7738C94.4021,-222.7752 94.3913,-222.7764 94.3821,-222.7775"/>
<polygon fill="#000000" stroke="#000000" points="103.891,-218.1445 94.3588,-222.7801 104.7013,-225.1006 103.891,-218.1445"/>
</g>
<!-- 9002 -->
<g id="node41" class="node">
<title>9002</title>
<ellipse fill="none" stroke="#000000" cx="30.8435" cy="-166.8725" rx="28.6953" ry="18"/>
<text text-anchor="middle" x="30.8435" y="-163.1725" font-family="Times,serif" font-size="14.00" fill="#000000">9002</text>
</g>
<!-- 9443 -->
<g id="node42" class="node">
<title>9443</title>
<ellipse fill="none" stroke="#000000" cx="30.4978" cy="-129.6557" rx="28.6953" ry="18"/>
<text text-anchor="middle" x="30.4978" y="-125.9557" font-family="Times,serif" font-size="14.00" fill="#000000">9443</text>
</g>
<!-- 10026 -->
<g id="node47" class="node">
<title>10026</title>
<ellipse fill="none" stroke="#000000" cx="201.2972" cy="-372.5904" rx="32.4942" ry="18"/>
<text text-anchor="middle" x="201.2972" y="-368.8904" font-family="Times,serif" font-size="14.00" fill="#000000">10026</text>
</g>
<!-- 9498&#45;&gt;10026 -->
<g id="edge52" class="edge">
<title>9498&#45;&gt;10026</title>
<path fill="none" stroke="#000000" d="M203.4664,-355.9323C203.4578,-355.9984 203.4492,-356.0644 203.4406,-356.1305"/>
<polygon fill="#000000" stroke="#000000" points="201.2397,-345.9587 203.4148,-356.3285 208.1811,-346.8657 201.2397,-345.9587"/>
</g>
<!-- 9505&#45;&gt;7473 -->
<g id="edge53" class="edge">
<title>9505&#45;&gt;7473</title>
<path fill="none" stroke="#000000" d="M351.8066,-244.6653C351.8324,-244.5904 351.858,-244.5156 351.8836,-244.4411"/>
<polygon fill="#000000" stroke="#000000" points="352.0227,-254.8142 351.96,-244.2183 345.4014,-252.5406 352.0227,-254.8142"/>
</g>
<!-- 10026&#45;&gt;4755 -->
<g id="edge54" class="edge">
<title>10026&#45;&gt;4755</title>
<path fill="none" stroke="#000000" d="M201.7307,-390.8078C201.7321,-390.8662 201.7335,-390.9245 201.7348,-390.9828"/>
<polygon fill="#000000" stroke="#000000" points="197.9965,-381.2457 201.739,-391.1577 204.9945,-381.0753 197.9965,-381.2457"/>
</g>
<!-- 12956 -->
<g id="node51" class="node">
<title>12956</title>
<ellipse fill="none" stroke="#000000" cx="579.6425" cy="-362.2899" rx="32.4942" ry="18"/>
<text text-anchor="middle" x="579.6425" y="-358.5899" font-family="Times,serif" font-size="14.00" fill="#000000">12956</text>
</g>
<!-- 10834&#45;&gt;12956 -->
<g id="edge55" class="edge">
<title>10834&#45;&gt;12956</title>
<path fill="none" stroke="#000000" d="M601.6556,-380.6868C601.5724,-380.6172 601.4891,-380.5476 601.4058,-380.478"/>
<polygon fill="#000000" stroke="#000000" points="607.5692,-381.0676 597.6516,-377.3405 603.0803,-386.4389 607.5692,-381.0676"/>
</g>
<!-- 22927 -->
<g id="node54" class="node">
<title>22927</title>
<ellipse fill="none" stroke="#000000" cx="591.5807" cy="-405.0516" rx="32.4942" ry="18"/>
<text text-anchor="middle" x="591.5807" y="-401.3516" font-family="Times,serif" font-size="14.00" fill="#000000">22927</text>
</g>
<!-- 10834&#45;&gt;22927 -->
<g id="edge56" class="edge">
<title>10834&#45;&gt;22927</title>
<path fill="none" stroke="#000000" d="M591.6619,-405.0255C591.6485,-405.0298 591.6367,-405.0336 591.6266,-405.0369"/>
<polygon fill="#000000" stroke="#000000" points="600.04,-398.6221 591.6012,-405.045 602.2035,-405.2865 600.04,-398.6221"/>
</g>
<!-- 20454 -->
<g id="node53" class="node">
<title>20454</title>
<ellipse fill="none" stroke="#000000" cx="32.4971" cy="-291.4162" rx="32.4942" ry="18"/>
<text text-anchor="middle" x="32.4971" y="-287.7162" font-family="Times,serif" font-size="14.00" fill="#000000">20454</text>
</g>
<!-- 12266&#45;&gt;20454 -->
<g id="edge57" class="edge">
<title>12266&#45;&gt;20454</title>
<path fill="none" stroke="#000000" d="M37.4458,-288.0077C37.4002,-288.0391 37.3548,-288.0704 37.3096,-288.1015"/>
<polygon fill="#000000" stroke="#000000" points="43.4252,-279.6366 37.1748,-288.1944 47.3977,-285.4022 43.4252,-279.6366"/>
</g>
<!-- 12956&#45;&gt;3356 -->
<g id="edge58" class="edge">
<title>12956&#45;&gt;3356</title>
<path fill="none" stroke="#000000" d="M560.8917,-347.1823C560.7729,-347.0866 560.6541,-346.9909 560.5353,-346.8951"/>
<polygon fill="#000000" stroke="#000000" points="568.0248,-348.4348 558.0418,-344.8861 563.6329,-353.8857 568.0248,-348.4348"/>
</g>
<!-- 18540 -->
<g id="node52" class="node">
<title>18540</title>
<ellipse fill="none" stroke="#000000" cx="423.7814" cy="-316.8104" rx="32.4942" ry="18"/>
<text text-anchor="middle" x="423.7814" y="-313.1104" font-family="Times,serif" font-size="14.00" fill="#000000">18540</text>
</g>
<!-- 30070&#45;&gt;6904 -->
<g id="edge59" class="edge">
<title>30070&#45;&gt;6904</title>
<path fill="none" stroke="#000000" d="M414.7254,-300.8976C414.6787,-300.8912 414.632,-300.8848 414.5853,-300.8784"/>
<polygon fill="#000000" stroke="#000000" points="424.8295,-298.7523 414.4453,-300.8593 423.8769,-305.6879 424.8295,-298.7523"/>
</g>
<!-- 30070&#45;&gt;7016 -->
<g id="edge60" class="edge">
<title>30070&#45;&gt;7016</title>
<path fill="none" stroke="#000000" d="M450.8512,-323.1094C450.8662,-323.1691 450.8813,-323.2287 450.8963,-323.2883"/>
<polygon fill="#000000" stroke="#000000" points="445.102,-314.6251 450.9412,-323.4671 451.8904,-312.9136 445.102,-314.6251"/>
</g>
<!-- 30070&#45;&gt;18540 -->
<g id="edge61" class="edge">
<title>30070&#45;&gt;18540</title>
<path fill="none" stroke="#000000" d="M423.8461,-316.7772C423.8355,-316.7827 423.8261,-316.7875 423.818,-316.7916"/>
<polygon fill="#000000" stroke="#000000" points="431.091,-309.095 423.7978,-316.802 434.3054,-315.3253 431.091,-309.095"/>
</g>
<!-- 32787&#45;&gt;703 -->
<g id="edge62" class="edge">
<title>32787&#45;&gt;703</title>
<path fill="none" stroke="#000000" d="M223.0435,-278.2697C222.9881,-278.4342 222.9326,-278.5989 222.877,-278.7637"/>
<polygon fill="#000000" stroke="#000000" points="221.5865,-271.6336 221.7097,-282.2278 228.22,-273.8691 221.5865,-271.6336"/>
</g>
<!-- 32787&#45;&gt;2764 -->
<g id="edge63" class="edge">
<title>32787&#45;&gt;2764</title>
<path fill="none" stroke="#000000" d="M205.7989,-247.5783C205.6565,-247.501 205.5141,-247.4237 205.3716,-247.3464"/>
<polygon fill="#000000" stroke="#000000" points="209.4113,-245.5566 198.9527,-243.8629 206.0724,-251.709 209.4113,-245.5566"/>
</g>
<!-- 32787&#45;&gt;4637 -->
<g id="edge64" class="edge">
<title>32787&#45;&gt;4637</title>
<path fill="none" stroke="#000000" d="M229.9832,-241.9174C229.9857,-241.8654 229.9881,-241.8135 229.9906,-241.7617"/>
<polygon fill="#000000" stroke="#000000" points="233.0177,-251.7619 229.9979,-241.6063 226.0254,-251.4285 233.0177,-251.7619"/>
</g>
<!-- 32787&#45;&gt;7474 -->
<g id="edge65" class="edge">
<title>32787&#45;&gt;7474</title>
<path fill="none" stroke="#000000" d="M252.41,-247.4052C252.5016,-247.3547 252.591,-247.3054 252.6782,-247.2574"/>
<polygon fill="#000000" stroke="#000000" points="245.8628,-255.01 252.9326,-247.1173 242.4839,-248.8785 245.8628,-255.01"/>
</g>
<!-- 38333&#45;&gt;1221 -->
<g id="edge66" class="edge">
<title>38333&#45;&gt;1221</title>
<path fill="none" stroke="#000000" d="M190.4262,-177.0584C190.4405,-177.0048 190.4548,-176.9513 190.469,-176.8979"/>
<polygon fill="#000000" stroke="#000000" points="191.3117,-187.3036 190.5118,-176.7376 184.548,-185.4963 191.3117,-187.3036"/>
</g>
<!-- 38880&#45;&gt;6695 -->
<g id="edge67" class="edge">
<title>38880&#45;&gt;6695</title>
<path fill="none" stroke="#000000" d="M60.4531,-133.8167C60.4673,-133.7615 60.4814,-133.7063 60.4956,-133.6513"/>
<polygon fill="#000000" stroke="#000000" points="61.4334,-144.0444 60.5381,-133.4861 54.6538,-142.2982 61.4334,-144.0444"/>
</g>
<!-- 38880&#45;&gt;9002 -->
<g id="edge68" class="edge">
<title>38880&#45;&gt;9002</title>
<path fill="none" stroke="#000000" d="M33.5189,-165.2534C33.4676,-165.2845 33.4168,-165.3153 33.3666,-165.3456"/>
<polygon fill="#000000" stroke="#000000" points="39.9613,-157.2609 33.218,-165.4356 43.5873,-163.2503 39.9613,-157.2609"/>
</g>
<!-- 38880&#45;&gt;9443 -->
<g id="edge69" class="edge">
<title>38880&#45;&gt;9443</title>
<path fill="none" stroke="#000000" d="M38.2402,-136.4029C38.1726,-136.344 38.1052,-136.2853 38.0381,-136.2268"/>
<polygon fill="#000000" stroke="#000000" points="47.6772,-139.9843 37.8374,-136.052 43.0773,-145.2622 47.6772,-139.9843"/>
</g>
</g>
</svg>
