<?xml version="1.0" encoding="UTF-8" standalone="no"?>
<!DOCTYPE svg PUBLIC "-//W3C//DTD SVG 1.1//EN"
 "http://www.w3.org/Graphics/SVG/1.1/DTD/svg11.dtd">
<!-- Generated by graphviz version 2.40.1 (20161225.0304)
 -->
<!-- Title: %3 Pages: 1 -->
<svg width="1641pt" height="1196pt"
 viewBox="0.00 0.00 1641.05 1196.00" xmlns="http://www.w3.org/2000/svg" xmlns:xlink="http://www.w3.org/1999/xlink">
<g id="graph0" class="graph" transform="scale(1 1) rotate(0) translate(4 1192)">
<title>%3</title>
<polygon fill="#ffffff" stroke="transparent" points="-4,4 -4,-1192 1637.0467,-1192 1637.0467,4 -4,4"/>
<!-- 174 -->
<g id="node1" class="node">
<title>174</title>
<ellipse fill="none" stroke="#000000" cx="411" cy="-450" rx="27" ry="18"/>
<text text-anchor="middle" x="411" y="-446.3" font-family="Times,serif" font-size="14.00" fill="#000000">174</text>
</g>
<!-- 209 -->
<g id="node2" class="node">
<title>209</title>
<ellipse fill="none" stroke="#000000" cx="297" cy="-378" rx="27" ry="18"/>
<text text-anchor="middle" x="297" y="-374.3" font-family="Times,serif" font-size="14.00" fill="#000000">209</text>
</g>
<!-- 174&#45;&gt;209 -->
<g id="edge1" class="edge">
<title>174&#45;&gt;209</title>
<path fill="none" stroke="#000000" d="M391.1427,-437.4586C372.916,-425.9469 345.7146,-408.7671 325.2311,-395.8302"/>
<polygon fill="#000000" stroke="#000000" points="326.9536,-392.7785 316.6297,-390.3977 323.2156,-398.6969 326.9536,-392.7785"/>
</g>
<!-- 1299 -->
<g id="node8" class="node">
<title>1299</title>
<ellipse fill="none" stroke="#000000" cx="222" cy="-306" rx="28.6953" ry="18"/>
<text text-anchor="middle" x="222" y="-302.3" font-family="Times,serif" font-size="14.00" fill="#000000">1299</text>
</g>
<!-- 209&#45;&gt;1299 -->
<g id="edge2" class="edge">
<title>209&#45;&gt;1299</title>
<path fill="none" stroke="#000000" d="M281.46,-363.0816C270.9714,-353.0125 256.9441,-339.5463 245.148,-328.2221"/>
<polygon fill="#000000" stroke="#000000" points="247.4159,-325.5475 237.7782,-321.147 242.5682,-330.5973 247.4159,-325.5475"/>
</g>
<!-- 2828 -->
<g id="node14" class="node">
<title>2828</title>
<ellipse fill="none" stroke="#000000" cx="297" cy="-306" rx="28.6953" ry="18"/>
<text text-anchor="middle" x="297" y="-302.3" font-family="Times,serif" font-size="14.00" fill="#000000">2828</text>
</g>
<!-- 209&#45;&gt;2828 -->
<g id="edge3" class="edge">
<title>209&#45;&gt;2828</title>
<path fill="none" stroke="#000000" d="M297,-359.8314C297,-352.131 297,-342.9743 297,-334.4166"/>
<polygon fill="#000000" stroke="#000000" points="300.5001,-334.4132 297,-324.4133 293.5001,-334.4133 300.5001,-334.4132"/>
</g>
<!-- 701 -->
<g id="node3" class="node">
<title>701</title>
<ellipse fill="none" stroke="#000000" cx="222" cy="-90" rx="27" ry="18"/>
<text text-anchor="middle" x="222" y="-86.3" font-family="Times,serif" font-size="14.00" fill="#000000">701</text>
</g>
<!-- 703 -->
<g id="node4" class="node">
<title>703</title>
<ellipse fill="none" stroke="#000000" cx="27" cy="-18" rx="27" ry="18"/>
<text text-anchor="middle" x="27" y="-14.3" font-family="Times,serif" font-size="14.00" fill="#000000">703</text>
</g>
<!-- 701&#45;&gt;703 -->
<g id="edge4" class="edge">
<title>701&#45;&gt;703</title>
<path fill="none" stroke="#000000" d="M197.0988,-82.6969C165.4657,-73.158 109.4059,-55.3757 63,-36 61.2106,-35.2529 59.3862,-34.4562 57.5553,-33.6296"/>
<polygon fill="#000000" stroke="#000000" points="59.0159,-30.4487 48.4796,-29.3365 56.0226,-36.7765 59.0159,-30.4487"/>
</g>
<!-- 1239 -->
<g id="node6" class="node">
<title>1239</title>
<ellipse fill="none" stroke="#000000" cx="101" cy="-18" rx="28.6953" ry="18"/>
<text text-anchor="middle" x="101" y="-14.3" font-family="Times,serif" font-size="14.00" fill="#000000">1239</text>
</g>
<!-- 701&#45;&gt;1239 -->
<g id="edge5" class="edge">
<title>701&#45;&gt;1239</title>
<path fill="none" stroke="#000000" d="M201.7473,-77.9488C182.3527,-66.4082 152.8589,-48.8582 130.7873,-35.7247"/>
<polygon fill="#000000" stroke="#000000" points="132.5163,-32.6807 122.1328,-30.5749 128.9367,-38.6963 132.5163,-32.6807"/>
</g>
<!-- 1273 -->
<g id="node7" class="node">
<title>1273</title>
<ellipse fill="none" stroke="#000000" cx="176" cy="-18" rx="28.6953" ry="18"/>
<text text-anchor="middle" x="176" y="-14.3" font-family="Times,serif" font-size="14.00" fill="#000000">1273</text>
</g>
<!-- 701&#45;&gt;1273 -->
<g id="edge6" class="edge">
<title>701&#45;&gt;1273</title>
<path fill="none" stroke="#000000" d="M211.3311,-73.3008C205.7227,-64.5224 198.7255,-53.5703 192.4411,-43.7339"/>
<polygon fill="#000000" stroke="#000000" points="195.2639,-41.6512 186.9305,-35.1086 189.365,-45.42 195.2639,-41.6512"/>
</g>
<!-- 3320 -->
<g id="node17" class="node">
<title>3320</title>
<ellipse fill="none" stroke="#000000" cx="251" cy="-18" rx="28.6953" ry="18"/>
<text text-anchor="middle" x="251" y="-14.3" font-family="Times,serif" font-size="14.00" fill="#000000">3320</text>
</g>
<!-- 701&#45;&gt;3320 -->
<g id="edge7" class="edge">
<title>701&#45;&gt;3320</title>
<path fill="none" stroke="#000000" d="M229.0201,-72.5708C232.3439,-64.3187 236.3897,-54.2738 240.0999,-45.0623"/>
<polygon fill="#000000" stroke="#000000" points="243.4544,-46.1018 243.944,-35.5182 236.9613,-43.4864 243.4544,-46.1018"/>
</g>
<!-- 5511 -->
<g id="node27" class="node">
<title>5511</title>
<ellipse fill="none" stroke="#000000" cx="326" cy="-18" rx="28.6953" ry="18"/>
<text text-anchor="middle" x="326" y="-14.3" font-family="Times,serif" font-size="14.00" fill="#000000">5511</text>
</g>
<!-- 701&#45;&gt;5511 -->
<g id="edge8" class="edge">
<title>701&#45;&gt;5511</title>
<path fill="none" stroke="#000000" d="M241.0752,-76.7941C257.1005,-65.6996 280.2131,-49.6986 298.2818,-37.1895"/>
<polygon fill="#000000" stroke="#000000" points="300.4638,-39.9358 306.6935,-31.366 296.4793,-34.1805 300.4638,-39.9358"/>
</g>
<!-- 7018 -->
<g id="node36" class="node">
<title>7018</title>
<ellipse fill="none" stroke="#000000" cx="401" cy="-18" rx="28.6953" ry="18"/>
<text text-anchor="middle" x="401" y="-14.3" font-family="Times,serif" font-size="14.00" fill="#000000">7018</text>
</g>
<!-- 701&#45;&gt;7018 -->
<g id="edge9" class="edge">
<title>701&#45;&gt;7018</title>
<path fill="none" stroke="#000000" d="M246.1304,-81.5682C274.5955,-71.451 323.2073,-53.637 364,-36 365.6228,-35.2984 367.2777,-34.5642 368.9432,-33.8102"/>
<polygon fill="#000000" stroke="#000000" points="370.8735,-36.7715 378.4505,-29.3661 367.9092,-30.4301 370.8735,-36.7715"/>
</g>
<!-- 1221 -->
<g id="node5" class="node">
<title>1221</title>
<ellipse fill="none" stroke="#000000" cx="672" cy="-306" rx="28.6953" ry="18"/>
<text text-anchor="middle" x="672" y="-302.3" font-family="Times,serif" font-size="14.00" fill="#000000">1221</text>
</g>
<!-- 6461 -->
<g id="node30" class="node">
<title>6461</title>
<ellipse fill="none" stroke="#000000" cx="222" cy="-234" rx="28.6953" ry="18"/>
<text text-anchor="middle" x="222" y="-230.3" font-family="Times,serif" font-size="14.00" fill="#000000">6461</text>
</g>
<!-- 1299&#45;&gt;6461 -->
<g id="edge10" class="edge">
<title>1299&#45;&gt;6461</title>
<path fill="none" stroke="#000000" d="M222,-287.8314C222,-280.131 222,-270.9743 222,-262.4166"/>
<polygon fill="#000000" stroke="#000000" points="225.5001,-262.4132 222,-252.4133 218.5001,-262.4133 225.5001,-262.4132"/>
</g>
<!-- 2497 -->
<g id="node9" class="node">
<title>2497</title>
<ellipse fill="none" stroke="#000000" cx="222" cy="-162" rx="28.6953" ry="18"/>
<text text-anchor="middle" x="222" y="-158.3" font-family="Times,serif" font-size="14.00" fill="#000000">2497</text>
</g>
<!-- 2497&#45;&gt;701 -->
<g id="edge11" class="edge">
<title>2497&#45;&gt;701</title>
<path fill="none" stroke="#000000" d="M222,-143.8314C222,-136.131 222,-126.9743 222,-118.4166"/>
<polygon fill="#000000" stroke="#000000" points="225.5001,-118.4132 222,-108.4133 218.5001,-118.4133 225.5001,-118.4132"/>
</g>
<!-- 2516 -->
<g id="node10" class="node">
<title>2516</title>
<ellipse fill="none" stroke="#000000" cx="598" cy="-594" rx="28.6953" ry="18"/>
<text text-anchor="middle" x="598" y="-590.3" font-family="Times,serif" font-size="14.00" fill="#000000">2516</text>
</g>
<!-- 32787 -->
<g id="node59" class="node">
<title>32787</title>
<ellipse fill="none" stroke="#000000" cx="598" cy="-522" rx="32.4942" ry="18"/>
<text text-anchor="middle" x="598" y="-518.3" font-family="Times,serif" font-size="14.00" fill="#000000">32787</text>
</g>
<!-- 2516&#45;&gt;32787 -->
<g id="edge12" class="edge">
<title>2516&#45;&gt;32787</title>
<path fill="none" stroke="#000000" d="M598,-575.8314C598,-568.131 598,-558.9743 598,-550.4166"/>
<polygon fill="#000000" stroke="#000000" points="601.5001,-550.4132 598,-540.4133 594.5001,-550.4133 601.5001,-550.4132"/>
</g>
<!-- 2686 -->
<g id="node11" class="node">
<title>2686</title>
<ellipse fill="none" stroke="#000000" cx="675" cy="-594" rx="28.6953" ry="18"/>
<text text-anchor="middle" x="675" y="-590.3" font-family="Times,serif" font-size="14.00" fill="#000000">2686</text>
</g>
<!-- 3741 -->
<g id="node22" class="node">
<title>3741</title>
<ellipse fill="none" stroke="#000000" cx="677" cy="-522" rx="28.6953" ry="18"/>
<text text-anchor="middle" x="677" y="-518.3" font-family="Times,serif" font-size="14.00" fill="#000000">3741</text>
</g>
<!-- 2686&#45;&gt;3741 -->
<g id="edge13" class="edge">
<title>2686&#45;&gt;3741</title>
<path fill="none" stroke="#000000" d="M675.5047,-575.8314C675.7186,-568.131 675.9729,-558.9743 676.2106,-550.4166"/>
<polygon fill="#000000" stroke="#000000" points="679.7094,-550.5066 676.4885,-540.4133 672.7121,-550.3122 679.7094,-550.5066"/>
</g>
<!-- 2687 -->
<g id="node12" class="node">
<title>2687</title>
<ellipse fill="none" stroke="#000000" cx="636" cy="-666" rx="28.6953" ry="18"/>
<text text-anchor="middle" x="636" y="-662.3" font-family="Times,serif" font-size="14.00" fill="#000000">2687</text>
</g>
<!-- 2687&#45;&gt;2516 -->
<g id="edge14" class="edge">
<title>2687&#45;&gt;2516</title>
<path fill="none" stroke="#000000" d="M626.8013,-648.5708C622.3203,-640.0807 616.8379,-629.6929 611.8634,-620.2674"/>
<polygon fill="#000000" stroke="#000000" points="614.877,-618.4789 607.114,-611.2687 608.6863,-621.7462 614.877,-618.4789"/>
</g>
<!-- 2687&#45;&gt;2686 -->
<g id="edge15" class="edge">
<title>2687&#45;&gt;2686</title>
<path fill="none" stroke="#000000" d="M645.2425,-648.937C649.8376,-640.4537 655.495,-630.0092 660.6388,-620.513"/>
<polygon fill="#000000" stroke="#000000" points="663.8676,-621.9006 665.553,-611.4407 657.7126,-618.5666 663.8676,-621.9006"/>
</g>
<!-- 9505 -->
<g id="node43" class="node">
<title>9505</title>
<ellipse fill="none" stroke="#000000" cx="751" cy="-594" rx="28.6953" ry="18"/>
<text text-anchor="middle" x="751" y="-590.3" font-family="Times,serif" font-size="14.00" fill="#000000">9505</text>
</g>
<!-- 2687&#45;&gt;9505 -->
<g id="edge16" class="edge">
<title>2687&#45;&gt;9505</title>
<path fill="none" stroke="#000000" d="M656.295,-653.2936C674.4937,-641.8996 701.4062,-625.05 721.8958,-612.2217"/>
<polygon fill="#000000" stroke="#000000" points="723.9026,-615.0948 730.5211,-606.8216 720.1879,-609.1617 723.9026,-615.0948"/>
</g>
<!-- 2764 -->
<g id="node13" class="node">
<title>2764</title>
<ellipse fill="none" stroke="#000000" cx="523" cy="-450" rx="28.6953" ry="18"/>
<text text-anchor="middle" x="523" y="-446.3" font-family="Times,serif" font-size="14.00" fill="#000000">2764</text>
</g>
<!-- 7545 -->
<g id="node39" class="node">
<title>7545</title>
<ellipse fill="none" stroke="#000000" cx="484" cy="-378" rx="28.6953" ry="18"/>
<text text-anchor="middle" x="484" y="-374.3" font-family="Times,serif" font-size="14.00" fill="#000000">7545</text>
</g>
<!-- 2764&#45;&gt;7545 -->
<g id="edge17" class="edge">
<title>2764&#45;&gt;7545</title>
<path fill="none" stroke="#000000" d="M513.7575,-432.937C509.1624,-424.4537 503.505,-414.0092 498.3612,-404.513"/>
<polygon fill="#000000" stroke="#000000" points="501.2874,-402.5666 493.447,-395.4407 495.1324,-405.9006 501.2874,-402.5666"/>
</g>
<!-- 38333 -->
<g id="node61" class="node">
<title>38333</title>
<ellipse fill="none" stroke="#000000" cx="563" cy="-378" rx="32.4942" ry="18"/>
<text text-anchor="middle" x="563" y="-374.3" font-family="Times,serif" font-size="14.00" fill="#000000">38333</text>
</g>
<!-- 2764&#45;&gt;38333 -->
<g id="edge18" class="edge">
<title>2764&#45;&gt;38333</title>
<path fill="none" stroke="#000000" d="M532.4794,-432.937C537.2415,-424.3654 543.1159,-413.7914 548.4353,-404.2165"/>
<polygon fill="#000000" stroke="#000000" points="551.5138,-405.882 553.3107,-395.4407 545.3947,-402.4825 551.5138,-405.882"/>
</g>
<!-- 38561 -->
<g id="node62" class="node">
<title>38561</title>
<ellipse fill="none" stroke="#000000" cx="646" cy="-378" rx="32.4942" ry="18"/>
<text text-anchor="middle" x="646" y="-374.3" font-family="Times,serif" font-size="14.00" fill="#000000">38561</text>
</g>
<!-- 2764&#45;&gt;38561 -->
<g id="edge19" class="edge">
<title>2764&#45;&gt;38561</title>
<path fill="none" stroke="#000000" d="M544.1445,-437.6228C563.5833,-426.2439 592.6526,-409.2277 614.7668,-396.2828"/>
<polygon fill="#000000" stroke="#000000" points="616.6058,-399.2619 623.4679,-391.1895 613.0696,-393.2208 616.6058,-399.2619"/>
</g>
<!-- 2914 -->
<g id="node15" class="node">
<title>2914</title>
<ellipse fill="none" stroke="#000000" cx="554" cy="-738" rx="28.6953" ry="18"/>
<text text-anchor="middle" x="554" y="-734.3" font-family="Times,serif" font-size="14.00" fill="#000000">2914</text>
</g>
<!-- 6453 -->
<g id="node29" class="node">
<title>6453</title>
<ellipse fill="none" stroke="#000000" cx="547" cy="-666" rx="28.6953" ry="18"/>
<text text-anchor="middle" x="547" y="-662.3" font-family="Times,serif" font-size="14.00" fill="#000000">6453</text>
</g>
<!-- 2914&#45;&gt;6453 -->
<g id="edge20" class="edge">
<title>2914&#45;&gt;6453</title>
<path fill="none" stroke="#000000" d="M552.2336,-719.8314C551.485,-712.131 550.5947,-702.9743 549.7627,-694.4166"/>
<polygon fill="#000000" stroke="#000000" points="553.2415,-694.0276 548.7902,-684.4133 546.2744,-694.7051 553.2415,-694.0276"/>
</g>
<!-- 3257 -->
<g id="node16" class="node">
<title>3257</title>
<ellipse fill="none" stroke="#000000" cx="494" cy="-594" rx="28.6953" ry="18"/>
<text text-anchor="middle" x="494" y="-590.3" font-family="Times,serif" font-size="14.00" fill="#000000">3257</text>
</g>
<!-- 3491 -->
<g id="node19" class="node">
<title>3491</title>
<ellipse fill="none" stroke="#000000" cx="465" cy="-522" rx="28.6953" ry="18"/>
<text text-anchor="middle" x="465" y="-518.3" font-family="Times,serif" font-size="14.00" fill="#000000">3491</text>
</g>
<!-- 3257&#45;&gt;3491 -->
<g id="edge21" class="edge">
<title>3257&#45;&gt;3491</title>
<path fill="none" stroke="#000000" d="M486.8315,-576.2022C483.5303,-568.0064 479.5412,-558.1024 475.8809,-549.0145"/>
<polygon fill="#000000" stroke="#000000" points="479.0688,-547.5612 472.0861,-539.593 472.5757,-550.1766 479.0688,-547.5612"/>
</g>
<!-- 3356 -->
<g id="node18" class="node">
<title>3356</title>
<ellipse fill="none" stroke="#000000" cx="628" cy="-954" rx="28.6953" ry="18"/>
<text text-anchor="middle" x="628" y="-950.3" font-family="Times,serif" font-size="14.00" fill="#000000">3356</text>
</g>
<!-- 3549 -->
<g id="node20" class="node">
<title>3549</title>
<ellipse fill="none" stroke="#000000" cx="628" cy="-882" rx="28.6953" ry="18"/>
<text text-anchor="middle" x="628" y="-878.3" font-family="Times,serif" font-size="14.00" fill="#000000">3549</text>
</g>
<!-- 3356&#45;&gt;3549 -->
<g id="edge22" class="edge">
<title>3356&#45;&gt;3549</title>
<path fill="none" stroke="#000000" d="M628,-935.8314C628,-928.131 628,-918.9743 628,-910.4166"/>
<polygon fill="#000000" stroke="#000000" points="631.5001,-910.4132 628,-900.4133 624.5001,-910.4133 631.5001,-910.4132"/>
</g>
<!-- 3491&#45;&gt;174 -->
<g id="edge23" class="edge">
<title>3491&#45;&gt;174</title>
<path fill="none" stroke="#000000" d="M452.7466,-505.6621C445.8423,-496.4564 437.0823,-484.7764 429.3715,-474.4953"/>
<polygon fill="#000000" stroke="#000000" points="432.005,-472.1733 423.2049,-466.2733 426.405,-476.3733 432.005,-472.1733"/>
</g>
<!-- 6762 -->
<g id="node32" class="node">
<title>6762</title>
<ellipse fill="none" stroke="#000000" cx="589" cy="-810" rx="28.6953" ry="18"/>
<text text-anchor="middle" x="589" y="-806.3" font-family="Times,serif" font-size="14.00" fill="#000000">6762</text>
</g>
<!-- 3549&#45;&gt;6762 -->
<g id="edge24" class="edge">
<title>3549&#45;&gt;6762</title>
<path fill="none" stroke="#000000" d="M618.7575,-864.937C614.1624,-856.4537 608.505,-846.0092 603.3612,-836.513"/>
<polygon fill="#000000" stroke="#000000" points="606.2874,-834.5666 598.447,-827.4407 600.1324,-837.9006 606.2874,-834.5666"/>
</g>
<!-- 30070 -->
<g id="node58" class="node">
<title>30070</title>
<ellipse fill="none" stroke="#000000" cx="689" cy="-810" rx="32.4942" ry="18"/>
<text text-anchor="middle" x="689" y="-806.3" font-family="Times,serif" font-size="14.00" fill="#000000">30070</text>
</g>
<!-- 3549&#45;&gt;30070 -->
<g id="edge25" class="edge">
<title>3549&#45;&gt;30070</title>
<path fill="none" stroke="#000000" d="M641.5379,-866.0209C649.4814,-856.6449 659.6757,-844.6123 668.579,-834.1035"/>
<polygon fill="#000000" stroke="#000000" points="671.2833,-836.326 675.0771,-826.4336 665.9424,-831.801 671.2833,-836.326"/>
</g>
<!-- 3597 -->
<g id="node21" class="node">
<title>3597</title>
<ellipse fill="none" stroke="#000000" cx="590" cy="-1098" rx="28.6953" ry="18"/>
<text text-anchor="middle" x="590" y="-1094.3" font-family="Times,serif" font-size="14.00" fill="#000000">3597</text>
</g>
<!-- 37179 -->
<g id="node60" class="node">
<title>37179</title>
<ellipse fill="none" stroke="#000000" cx="752" cy="-450" rx="32.4942" ry="18"/>
<text text-anchor="middle" x="752" y="-446.3" font-family="Times,serif" font-size="14.00" fill="#000000">37179</text>
</g>
<!-- 3741&#45;&gt;37179 -->
<g id="edge26" class="edge">
<title>3741&#45;&gt;37179</title>
<path fill="none" stroke="#000000" d="M692.9056,-506.7307C703.2052,-496.843 716.8017,-483.7903 728.3561,-472.6981"/>
<polygon fill="#000000" stroke="#000000" points="730.8088,-475.1953 735.5989,-465.7451 725.9611,-470.1456 730.8088,-475.1953"/>
</g>
<!-- 4635 -->
<g id="node23" class="node">
<title>4635</title>
<ellipse fill="none" stroke="#000000" cx="372" cy="-306" rx="28.6953" ry="18"/>
<text text-anchor="middle" x="372" y="-302.3" font-family="Times,serif" font-size="14.00" fill="#000000">4635</text>
</g>
<!-- 4637 -->
<g id="node24" class="node">
<title>4637</title>
<ellipse fill="none" stroke="#000000" cx="598" cy="-450" rx="28.6953" ry="18"/>
<text text-anchor="middle" x="598" y="-446.3" font-family="Times,serif" font-size="14.00" fill="#000000">4637</text>
</g>
<!-- 4739 -->
<g id="node25" class="node">
<title>4739</title>
<ellipse fill="none" stroke="#000000" cx="447" cy="-306" rx="28.6953" ry="18"/>
<text text-anchor="middle" x="447" y="-302.3" font-family="Times,serif" font-size="14.00" fill="#000000">4739</text>
</g>
<!-- 38880 -->
<g id="node63" class="node">
<title>38880</title>
<ellipse fill="none" stroke="#000000" cx="435" cy="-234" rx="32.4942" ry="18"/>
<text text-anchor="middle" x="435" y="-230.3" font-family="Times,serif" font-size="14.00" fill="#000000">38880</text>
</g>
<!-- 4739&#45;&gt;38880 -->
<g id="edge27" class="edge">
<title>4739&#45;&gt;38880</title>
<path fill="none" stroke="#000000" d="M443.9719,-287.8314C442.6885,-280.131 441.1624,-270.9743 439.7361,-262.4166"/>
<polygon fill="#000000" stroke="#000000" points="443.1653,-261.7018 438.0689,-252.4133 436.2606,-262.8526 443.1653,-261.7018"/>
</g>
<!-- 4826 -->
<g id="node26" class="node">
<title>4826</title>
<ellipse fill="none" stroke="#000000" cx="501" cy="-90" rx="28.6953" ry="18"/>
<text text-anchor="middle" x="501" y="-86.3" font-family="Times,serif" font-size="14.00" fill="#000000">4826</text>
</g>
<!-- 15412 -->
<g id="node50" class="node">
<title>15412</title>
<ellipse fill="none" stroke="#000000" cx="490" cy="-18" rx="32.4942" ry="18"/>
<text text-anchor="middle" x="490" y="-14.3" font-family="Times,serif" font-size="14.00" fill="#000000">15412</text>
</g>
<!-- 4826&#45;&gt;15412 -->
<g id="edge28" class="edge">
<title>4826&#45;&gt;15412</title>
<path fill="none" stroke="#000000" d="M498.2242,-71.8314C497.0478,-64.131 495.6489,-54.9743 494.3414,-46.4166"/>
<polygon fill="#000000" stroke="#000000" points="497.7833,-45.7699 492.8131,-36.4133 490.8636,-46.8272 497.7833,-45.7699"/>
</g>
<!-- 5692 -->
<g id="node28" class="node">
<title>5692</title>
<ellipse fill="none" stroke="#000000" cx="1084" cy="-1170" rx="28.6953" ry="18"/>
<text text-anchor="middle" x="1084" y="-1166.3" font-family="Times,serif" font-size="14.00" fill="#000000">5692</text>
</g>
<!-- 5692&#45;&gt;3597 -->
<g id="edge29" class="edge">
<title>5692&#45;&gt;3597</title>
<path fill="none" stroke="#000000" d="M1055.4155,-1167.8332C968.6364,-1161.0637 709.2092,-1139.3629 628,-1116 625.834,-1115.3769 623.6377,-1114.6422 621.45,-1113.832"/>
<polygon fill="#000000" stroke="#000000" points="622.6104,-1110.5239 612.0335,-1109.9077 619.9176,-1116.9852 622.6104,-1110.5239"/>
</g>
<!-- 10834 -->
<g id="node45" class="node">
<title>10834</title>
<ellipse fill="none" stroke="#000000" cx="669" cy="-1098" rx="32.4942" ry="18"/>
<text text-anchor="middle" x="669" y="-1094.3" font-family="Times,serif" font-size="14.00" fill="#000000">10834</text>
</g>
<!-- 5692&#45;&gt;10834 -->
<g id="edge30" class="edge">
<title>5692&#45;&gt;10834</title>
<path fill="none" stroke="#000000" d="M1055.4009,-1168.4071C992.206,-1164.3384 836.3407,-1151.2744 711,-1116 708.5277,-1115.3042 706.009,-1114.4966 703.4952,-1113.6164"/>
<polygon fill="#000000" stroke="#000000" points="704.5223,-1110.2617 693.9321,-1109.946 702.0139,-1116.7969 704.5223,-1110.2617"/>
</g>
<!-- 11008 -->
<g id="node46" class="node">
<title>11008</title>
<ellipse fill="none" stroke="#000000" cx="752" cy="-1098" rx="32.4942" ry="18"/>
<text text-anchor="middle" x="752" y="-1094.3" font-family="Times,serif" font-size="14.00" fill="#000000">11008</text>
</g>
<!-- 5692&#45;&gt;11008 -->
<g id="edge31" class="edge">
<title>5692&#45;&gt;11008</title>
<path fill="none" stroke="#000000" d="M1055.5102,-1166.8151C1002.964,-1160.4771 887.605,-1144.3918 794,-1116 791.5422,-1115.2545 789.0344,-1114.4097 786.5284,-1113.5026"/>
<polygon fill="#000000" stroke="#000000" points="787.5706,-1110.1522 776.9825,-1109.7737 785.0236,-1116.6724 787.5706,-1110.1522"/>
</g>
<!-- 27865 -->
<g id="node55" class="node">
<title>27865</title>
<ellipse fill="none" stroke="#000000" cx="835" cy="-1098" rx="32.4942" ry="18"/>
<text text-anchor="middle" x="835" y="-1094.3" font-family="Times,serif" font-size="14.00" fill="#000000">27865</text>
</g>
<!-- 5692&#45;&gt;27865 -->
<g id="edge32" class="edge">
<title>5692&#45;&gt;27865</title>
<path fill="none" stroke="#000000" d="M1056.8227,-1164.2764C1016.889,-1155.5606 940.2444,-1137.6654 877,-1116 874.5703,-1115.1677 872.0834,-1114.258 869.5926,-1113.3038"/>
<polygon fill="#000000" stroke="#000000" points="870.6632,-1109.9618 860.0797,-1109.4727 868.0482,-1116.455 870.6632,-1109.9618"/>
</g>
<!-- 28065 -->
<g id="node56" class="node">
<title>28065</title>
<ellipse fill="none" stroke="#000000" cx="918" cy="-1098" rx="32.4942" ry="18"/>
<text text-anchor="middle" x="918" y="-1094.3" font-family="Times,serif" font-size="14.00" fill="#000000">28065</text>
</g>
<!-- 5692&#45;&gt;28065 -->
<g id="edge33" class="edge">
<title>5692&#45;&gt;28065</title>
<path fill="none" stroke="#000000" d="M1060.2162,-1159.6842C1032.1868,-1147.5268 985.3574,-1127.2153 953.141,-1113.2419"/>
<polygon fill="#000000" stroke="#000000" points="954.2158,-1109.8931 943.6489,-1109.1248 951.4304,-1116.315 954.2158,-1109.8931"/>
</g>
<!-- 52317 -->
<g id="node65" class="node">
<title>52317</title>
<ellipse fill="none" stroke="#000000" cx="1001" cy="-1098" rx="32.4942" ry="18"/>
<text text-anchor="middle" x="1001" y="-1094.3" font-family="Times,serif" font-size="14.00" fill="#000000">52317</text>
</g>
<!-- 5692&#45;&gt;52317 -->
<g id="edge34" class="edge">
<title>5692&#45;&gt;52317</title>
<path fill="none" stroke="#000000" d="M1067.2037,-1155.4297C1055.514,-1145.2892 1039.7126,-1131.5821 1026.479,-1120.1023"/>
<polygon fill="#000000" stroke="#000000" points="1028.4781,-1117.2031 1018.6307,-1113.2941 1023.8912,-1122.4908 1028.4781,-1117.2031"/>
</g>
<!-- 52375 -->
<g id="node66" class="node">
<title>52375</title>
<ellipse fill="none" stroke="#000000" cx="1084" cy="-1098" rx="32.4942" ry="18"/>
<text text-anchor="middle" x="1084" y="-1094.3" font-family="Times,serif" font-size="14.00" fill="#000000">52375</text>
</g>
<!-- 5692&#45;&gt;52375 -->
<g id="edge35" class="edge">
<title>5692&#45;&gt;52375</title>
<path fill="none" stroke="#000000" d="M1084,-1151.8314C1084,-1144.131 1084,-1134.9743 1084,-1126.4166"/>
<polygon fill="#000000" stroke="#000000" points="1087.5001,-1126.4132 1084,-1116.4133 1080.5001,-1126.4133 1087.5001,-1126.4132"/>
</g>
<!-- 52376 -->
<g id="node67" class="node">
<title>52376</title>
<ellipse fill="none" stroke="#000000" cx="1167" cy="-1098" rx="32.4942" ry="18"/>
<text text-anchor="middle" x="1167" y="-1094.3" font-family="Times,serif" font-size="14.00" fill="#000000">52376</text>
</g>
<!-- 5692&#45;&gt;52376 -->
<g id="edge36" class="edge">
<title>5692&#45;&gt;52376</title>
<path fill="none" stroke="#000000" d="M1100.7963,-1155.4297C1112.486,-1145.2892 1128.2874,-1131.5821 1141.521,-1120.1023"/>
<polygon fill="#000000" stroke="#000000" points="1144.1088,-1122.4908 1149.3693,-1113.2941 1139.5219,-1117.2031 1144.1088,-1122.4908"/>
</g>
<!-- 52380 -->
<g id="node68" class="node">
<title>52380</title>
<ellipse fill="none" stroke="#000000" cx="1250" cy="-1098" rx="32.4942" ry="18"/>
<text text-anchor="middle" x="1250" y="-1094.3" font-family="Times,serif" font-size="14.00" fill="#000000">52380</text>
</g>
<!-- 5692&#45;&gt;52380 -->
<g id="edge37" class="edge">
<title>5692&#45;&gt;52380</title>
<path fill="none" stroke="#000000" d="M1107.7838,-1159.6842C1135.8132,-1147.5268 1182.6426,-1127.2153 1214.859,-1113.2419"/>
<polygon fill="#000000" stroke="#000000" points="1216.5696,-1116.315 1224.3511,-1109.1248 1213.7842,-1109.8931 1216.5696,-1116.315"/>
</g>
<!-- 52413 -->
<g id="node69" class="node">
<title>52413</title>
<ellipse fill="none" stroke="#000000" cx="1333" cy="-1098" rx="32.4942" ry="18"/>
<text text-anchor="middle" x="1333" y="-1094.3" font-family="Times,serif" font-size="14.00" fill="#000000">52413</text>
</g>
<!-- 5692&#45;&gt;52413 -->
<g id="edge38" class="edge">
<title>5692&#45;&gt;52413</title>
<path fill="none" stroke="#000000" d="M1111.1773,-1164.2764C1151.111,-1155.5606 1227.7556,-1137.6654 1291,-1116 1293.4297,-1115.1677 1295.9166,-1114.258 1298.4074,-1113.3038"/>
<polygon fill="#000000" stroke="#000000" points="1299.9518,-1116.455 1307.9203,-1109.4727 1297.3368,-1109.9618 1299.9518,-1116.455"/>
</g>
<!-- 52431 -->
<g id="node70" class="node">
<title>52431</title>
<ellipse fill="none" stroke="#000000" cx="1416" cy="-1098" rx="32.4942" ry="18"/>
<text text-anchor="middle" x="1416" y="-1094.3" font-family="Times,serif" font-size="14.00" fill="#000000">52431</text>
</g>
<!-- 5692&#45;&gt;52431 -->
<g id="edge39" class="edge">
<title>5692&#45;&gt;52431</title>
<path fill="none" stroke="#000000" d="M1112.4898,-1166.8151C1165.036,-1160.4771 1280.395,-1144.3918 1374,-1116 1376.4578,-1115.2545 1378.9656,-1114.4097 1381.4716,-1113.5026"/>
<polygon fill="#000000" stroke="#000000" points="1382.9764,-1116.6724 1391.0175,-1109.7737 1380.4294,-1110.1522 1382.9764,-1116.6724"/>
</g>
<!-- 262230 -->
<g id="node71" class="node">
<title>262230</title>
<ellipse fill="none" stroke="#000000" cx="1504" cy="-1098" rx="37.0935" ry="18"/>
<text text-anchor="middle" x="1504" y="-1094.3" font-family="Times,serif" font-size="14.00" fill="#000000">262230</text>
</g>
<!-- 5692&#45;&gt;262230 -->
<g id="edge40" class="edge">
<title>5692&#45;&gt;262230</title>
<path fill="none" stroke="#000000" d="M1112.5,-1168.0413C1175.4973,-1163.243 1330.9929,-1148.8146 1457,-1116 1460.1286,-1115.1853 1463.3346,-1114.23 1466.5303,-1113.1919"/>
<polygon fill="#000000" stroke="#000000" points="1467.7111,-1116.4869 1475.9989,-1109.8866 1465.404,-1109.878 1467.7111,-1116.4869"/>
</g>
<!-- 264608 -->
<g id="node72" class="node">
<title>264608</title>
<ellipse fill="none" stroke="#000000" cx="1596" cy="-1098" rx="37.0935" ry="18"/>
<text text-anchor="middle" x="1596" y="-1094.3" font-family="Times,serif" font-size="14.00" fill="#000000">264608</text>
</g>
<!-- 5692&#45;&gt;264608 -->
<g id="edge41" class="edge">
<title>5692&#45;&gt;264608</title>
<path fill="none" stroke="#000000" d="M1112.8256,-1169.2303C1186.6272,-1166.71 1387.9921,-1156.3639 1550,-1116 1552.8085,-1115.3003 1555.6759,-1114.4722 1558.538,-1113.5618"/>
<polygon fill="#000000" stroke="#000000" points="1559.8601,-1116.8076 1568.1547,-1110.216 1557.5599,-1110.1963 1559.8601,-1116.8076"/>
</g>
<!-- 6453&#45;&gt;3257 -->
<g id="edge42" class="edge">
<title>6453&#45;&gt;3257</title>
<path fill="none" stroke="#000000" d="M534.9735,-649.6621C528.2925,-640.5861 519.8411,-629.1049 512.3517,-618.9306"/>
<polygon fill="#000000" stroke="#000000" points="515.0936,-616.7514 506.3467,-610.7729 509.4563,-620.9012 515.0936,-616.7514"/>
</g>
<!-- 6461&#45;&gt;2497 -->
<g id="edge43" class="edge">
<title>6461&#45;&gt;2497</title>
<path fill="none" stroke="#000000" d="M222,-215.8314C222,-208.131 222,-198.9743 222,-190.4166"/>
<polygon fill="#000000" stroke="#000000" points="225.5001,-190.4132 222,-180.4133 218.5001,-190.4133 225.5001,-190.4132"/>
</g>
<!-- 6695 -->
<g id="node31" class="node">
<title>6695</title>
<ellipse fill="none" stroke="#000000" cx="352" cy="-162" rx="28.6953" ry="18"/>
<text text-anchor="middle" x="352" y="-158.3" font-family="Times,serif" font-size="14.00" fill="#000000">6695</text>
</g>
<!-- 6762&#45;&gt;2914 -->
<g id="edge44" class="edge">
<title>6762&#45;&gt;2914</title>
<path fill="none" stroke="#000000" d="M580.5275,-792.5708C576.4003,-784.0807 571.3507,-773.6929 566.7689,-764.2674"/>
<polygon fill="#000000" stroke="#000000" points="569.9143,-762.7322 562.3945,-755.2687 563.6187,-765.7926 569.9143,-762.7322"/>
</g>
<!-- 6904 -->
<g id="node33" class="node">
<title>6904</title>
<ellipse fill="none" stroke="#000000" cx="636" cy="-738" rx="28.6953" ry="18"/>
<text text-anchor="middle" x="636" y="-734.3" font-family="Times,serif" font-size="14.00" fill="#000000">6904</text>
</g>
<!-- 6904&#45;&gt;2687 -->
<g id="edge45" class="edge">
<title>6904&#45;&gt;2687</title>
<path fill="none" stroke="#000000" d="M636,-719.8314C636,-712.131 636,-702.9743 636,-694.4166"/>
<polygon fill="#000000" stroke="#000000" points="639.5001,-694.4132 636,-684.4133 632.5001,-694.4133 639.5001,-694.4132"/>
</g>
<!-- 6939 -->
<g id="node34" class="node">
<title>6939</title>
<ellipse fill="none" stroke="#000000" cx="522" cy="-306" rx="28.6953" ry="18"/>
<text text-anchor="middle" x="522" y="-302.3" font-family="Times,serif" font-size="14.00" fill="#000000">6939</text>
</g>
<!-- 12266 -->
<g id="node48" class="node">
<title>12266</title>
<ellipse fill="none" stroke="#000000" cx="533" cy="-234" rx="32.4942" ry="18"/>
<text text-anchor="middle" x="533" y="-230.3" font-family="Times,serif" font-size="14.00" fill="#000000">12266</text>
</g>
<!-- 6939&#45;&gt;12266 -->
<g id="edge46" class="edge">
<title>6939&#45;&gt;12266</title>
<path fill="none" stroke="#000000" d="M524.7758,-287.8314C525.9522,-280.131 527.3511,-270.9743 528.6586,-262.4166"/>
<polygon fill="#000000" stroke="#000000" points="532.1364,-262.8272 530.1869,-252.4133 525.2167,-261.7699 532.1364,-262.8272"/>
</g>
<!-- 7016 -->
<g id="node35" class="node">
<title>7016</title>
<ellipse fill="none" stroke="#000000" cx="711" cy="-738" rx="28.6953" ry="18"/>
<text text-anchor="middle" x="711" y="-734.3" font-family="Times,serif" font-size="14.00" fill="#000000">7016</text>
</g>
<!-- 7922 -->
<g id="node40" class="node">
<title>7922</title>
<ellipse fill="none" stroke="#000000" cx="711" cy="-666" rx="28.6953" ry="18"/>
<text text-anchor="middle" x="711" y="-662.3" font-family="Times,serif" font-size="14.00" fill="#000000">7922</text>
</g>
<!-- 7016&#45;&gt;7922 -->
<g id="edge47" class="edge">
<title>7016&#45;&gt;7922</title>
<path fill="none" stroke="#000000" d="M711,-719.8314C711,-712.131 711,-702.9743 711,-694.4166"/>
<polygon fill="#000000" stroke="#000000" points="714.5001,-694.4132 711,-684.4133 707.5001,-694.4133 714.5001,-694.4132"/>
</g>
<!-- 7473 -->
<g id="node37" class="node">
<title>7473</title>
<ellipse fill="none" stroke="#000000" cx="752" cy="-522" rx="28.6953" ry="18"/>
<text text-anchor="middle" x="752" y="-518.3" font-family="Times,serif" font-size="14.00" fill="#000000">7473</text>
</g>
<!-- 7474 -->
<g id="node38" class="node">
<title>7474</title>
<ellipse fill="none" stroke="#000000" cx="673" cy="-450" rx="28.6953" ry="18"/>
<text text-anchor="middle" x="673" y="-446.3" font-family="Times,serif" font-size="14.00" fill="#000000">7474</text>
</g>
<!-- 7545&#45;&gt;4635 -->
<g id="edge48" class="edge">
<title>7545&#45;&gt;4635</title>
<path fill="none" stroke="#000000" d="M463.9766,-365.1278C446.4071,-353.8332 420.6443,-337.2713 400.8509,-324.547"/>
<polygon fill="#000000" stroke="#000000" points="402.5321,-321.467 392.2276,-319.0035 398.7468,-327.3552 402.5321,-321.467"/>
</g>
<!-- 7545&#45;&gt;4739 -->
<g id="edge49" class="edge">
<title>7545&#45;&gt;4739</title>
<path fill="none" stroke="#000000" d="M475.0433,-360.5708C470.6803,-352.0807 465.3422,-341.6929 460.4985,-332.2674"/>
<polygon fill="#000000" stroke="#000000" points="463.5579,-330.5633 455.8742,-323.2687 457.3319,-333.7628 463.5579,-330.5633"/>
</g>
<!-- 7545&#45;&gt;6939 -->
<g id="edge50" class="edge">
<title>7545&#45;&gt;6939</title>
<path fill="none" stroke="#000000" d="M493.1987,-360.5708C497.6797,-352.0807 503.1621,-341.6929 508.1366,-332.2674"/>
<polygon fill="#000000" stroke="#000000" points="511.3137,-333.7462 512.886,-323.2687 505.123,-330.4789 511.3137,-333.7462"/>
</g>
<!-- 9942 -->
<g id="node44" class="node">
<title>9942</title>
<ellipse fill="none" stroke="#000000" cx="597" cy="-306" rx="28.6953" ry="18"/>
<text text-anchor="middle" x="597" y="-302.3" font-family="Times,serif" font-size="14.00" fill="#000000">9942</text>
</g>
<!-- 7545&#45;&gt;9942 -->
<g id="edge51" class="edge">
<title>7545&#45;&gt;9942</title>
<path fill="none" stroke="#000000" d="M504.2021,-365.1278C521.9285,-353.8332 547.9214,-337.2713 567.8915,-324.547"/>
<polygon fill="#000000" stroke="#000000" points="570.039,-327.3288 576.5918,-319.0035 566.2774,-321.4254 570.039,-327.3288"/>
</g>
<!-- 9002 -->
<g id="node41" class="node">
<title>9002</title>
<ellipse fill="none" stroke="#000000" cx="427" cy="-162" rx="28.6953" ry="18"/>
<text text-anchor="middle" x="427" y="-158.3" font-family="Times,serif" font-size="14.00" fill="#000000">9002</text>
</g>
<!-- 9443 -->
<g id="node42" class="node">
<title>9443</title>
<ellipse fill="none" stroke="#000000" cx="502" cy="-162" rx="28.6953" ry="18"/>
<text text-anchor="middle" x="502" y="-158.3" font-family="Times,serif" font-size="14.00" fill="#000000">9443</text>
</g>
<!-- 9443&#45;&gt;4826 -->
<g id="edge52" class="edge">
<title>9443&#45;&gt;4826</title>
<path fill="none" stroke="#000000" d="M501.7477,-143.8314C501.6407,-136.131 501.5135,-126.9743 501.3947,-118.4166"/>
<polygon fill="#000000" stroke="#000000" points="504.8944,-118.3637 501.2557,-108.4133 497.8951,-118.4609 504.8944,-118.3637"/>
</g>
<!-- 9505&#45;&gt;7473 -->
<g id="edge53" class="edge">
<title>9505&#45;&gt;7473</title>
<path fill="none" stroke="#000000" d="M751.2523,-575.8314C751.3593,-568.131 751.4865,-558.9743 751.6053,-550.4166"/>
<polygon fill="#000000" stroke="#000000" points="755.1049,-550.4609 751.7443,-540.4133 748.1056,-550.3637 755.1049,-550.4609"/>
</g>
<!-- 12956 -->
<g id="node49" class="node">
<title>12956</title>
<ellipse fill="none" stroke="#000000" cx="628" cy="-1026" rx="32.4942" ry="18"/>
<text text-anchor="middle" x="628" y="-1022.3" font-family="Times,serif" font-size="14.00" fill="#000000">12956</text>
</g>
<!-- 10834&#45;&gt;12956 -->
<g id="edge54" class="edge">
<title>10834&#45;&gt;12956</title>
<path fill="none" stroke="#000000" d="M659.075,-1080.5708C654.19,-1071.9922 648.2017,-1061.4762 642.7903,-1051.9732"/>
<polygon fill="#000000" stroke="#000000" points="645.8234,-1050.2266 637.8336,-1043.2687 639.7405,-1053.6905 645.8234,-1050.2266"/>
</g>
<!-- 22927 -->
<g id="node54" class="node">
<title>22927</title>
<ellipse fill="none" stroke="#000000" cx="711" cy="-1026" rx="32.4942" ry="18"/>
<text text-anchor="middle" x="711" y="-1022.3" font-family="Times,serif" font-size="14.00" fill="#000000">22927</text>
</g>
<!-- 10834&#45;&gt;22927 -->
<g id="edge55" class="edge">
<title>10834&#45;&gt;22927</title>
<path fill="none" stroke="#000000" d="M679.167,-1080.5708C684.1712,-1071.9922 690.3055,-1061.4762 695.849,-1051.9732"/>
<polygon fill="#000000" stroke="#000000" points="698.9111,-1053.6701 700.9266,-1043.2687 692.8646,-1050.1429 698.9111,-1053.6701"/>
</g>
<!-- 12189 -->
<g id="node47" class="node">
<title>12189</title>
<ellipse fill="none" stroke="#000000" cx="582" cy="-90" rx="32.4942" ry="18"/>
<text text-anchor="middle" x="582" y="-86.3" font-family="Times,serif" font-size="14.00" fill="#000000">12189</text>
</g>
<!-- 17819 -->
<g id="node51" class="node">
<title>17819</title>
<ellipse fill="none" stroke="#000000" cx="573" cy="-18" rx="32.4942" ry="18"/>
<text text-anchor="middle" x="573" y="-14.3" font-family="Times,serif" font-size="14.00" fill="#000000">17819</text>
</g>
<!-- 12189&#45;&gt;17819 -->
<g id="edge56" class="edge">
<title>12189&#45;&gt;17819</title>
<path fill="none" stroke="#000000" d="M579.7289,-71.8314C578.7664,-64.131 577.6218,-54.9743 576.5521,-46.4166"/>
<polygon fill="#000000" stroke="#000000" points="580.0151,-45.9019 575.3017,-36.4133 573.0691,-46.7702 580.0151,-45.9019"/>
</g>
<!-- 28666 -->
<g id="node57" class="node">
<title>28666</title>
<ellipse fill="none" stroke="#000000" cx="656" cy="-18" rx="32.4942" ry="18"/>
<text text-anchor="middle" x="656" y="-14.3" font-family="Times,serif" font-size="14.00" fill="#000000">28666</text>
</g>
<!-- 12189&#45;&gt;28666 -->
<g id="edge57" class="edge">
<title>12189&#45;&gt;28666</title>
<path fill="none" stroke="#000000" d="M598.423,-74.0209C608.4559,-64.2591 621.4486,-51.6176 632.552,-40.8143"/>
<polygon fill="#000000" stroke="#000000" points="635.151,-43.1689 639.8775,-33.6867 630.2695,-38.1518 635.151,-43.1689"/>
</g>
<!-- 38930 -->
<g id="node64" class="node">
<title>38930</title>
<ellipse fill="none" stroke="#000000" cx="739" cy="-18" rx="32.4942" ry="18"/>
<text text-anchor="middle" x="739" y="-14.3" font-family="Times,serif" font-size="14.00" fill="#000000">38930</text>
</g>
<!-- 12189&#45;&gt;38930 -->
<g id="edge58" class="edge">
<title>12189&#45;&gt;38930</title>
<path fill="none" stroke="#000000" d="M607.2248,-78.432C633.5471,-66.3606 675.0011,-47.3498 704.3777,-33.8778"/>
<polygon fill="#000000" stroke="#000000" points="706.2071,-36.8893 713.8378,-29.5393 703.2891,-30.5265 706.2071,-36.8893"/>
</g>
<!-- 20454 -->
<g id="node53" class="node">
<title>20454</title>
<ellipse fill="none" stroke="#000000" cx="582" cy="-162" rx="32.4942" ry="18"/>
<text text-anchor="middle" x="582" y="-158.3" font-family="Times,serif" font-size="14.00" fill="#000000">20454</text>
</g>
<!-- 12266&#45;&gt;20454 -->
<g id="edge59" class="edge">
<title>12266&#45;&gt;20454</title>
<path fill="none" stroke="#000000" d="M544.6123,-216.937C550.5926,-208.1496 558.0051,-197.2579 564.6488,-187.4956"/>
<polygon fill="#000000" stroke="#000000" points="567.7383,-189.1769 570.471,-178.9405 561.9513,-185.2385 567.7383,-189.1769"/>
</g>
<!-- 12956&#45;&gt;3356 -->
<g id="edge60" class="edge">
<title>12956&#45;&gt;3356</title>
<path fill="none" stroke="#000000" d="M628,-1007.8314C628,-1000.131 628,-990.9743 628,-982.4166"/>
<polygon fill="#000000" stroke="#000000" points="631.5001,-982.4132 628,-972.4133 624.5001,-982.4133 631.5001,-982.4132"/>
</g>
<!-- 18540 -->
<g id="node52" class="node">
<title>18540</title>
<ellipse fill="none" stroke="#000000" cx="790" cy="-738" rx="32.4942" ry="18"/>
<text text-anchor="middle" x="790" y="-734.3" font-family="Times,serif" font-size="14.00" fill="#000000">18540</text>
</g>
<!-- 20454&#45;&gt;12189 -->
<g id="edge61" class="edge">
<title>20454&#45;&gt;12189</title>
<path fill="none" stroke="#000000" d="M582,-143.8314C582,-136.131 582,-126.9743 582,-118.4166"/>
<polygon fill="#000000" stroke="#000000" points="585.5001,-118.4132 582,-108.4133 578.5001,-118.4133 585.5001,-118.4132"/>
</g>
<!-- 30070&#45;&gt;6904 -->
<g id="edge62" class="edge">
<title>30070&#45;&gt;6904</title>
<path fill="none" stroke="#000000" d="M676.7075,-793.3008C670.0182,-784.2135 661.6142,-772.7966 654.1817,-762.6996"/>
<polygon fill="#000000" stroke="#000000" points="656.9727,-760.5872 648.2258,-754.6087 651.3353,-764.7369 656.9727,-760.5872"/>
</g>
<!-- 30070&#45;&gt;7016 -->
<g id="edge63" class="edge">
<title>30070&#45;&gt;7016</title>
<path fill="none" stroke="#000000" d="M694.4382,-792.2022C696.8974,-784.1541 699.8598,-774.4588 702.5952,-765.5067"/>
<polygon fill="#000000" stroke="#000000" points="705.9731,-766.4289 705.5481,-755.8425 699.2786,-764.3833 705.9731,-766.4289"/>
</g>
<!-- 30070&#45;&gt;18540 -->
<g id="edge64" class="edge">
<title>30070&#45;&gt;18540</title>
<path fill="none" stroke="#000000" d="M708.9543,-795.7751C723.9348,-785.096 744.6595,-770.322 761.4012,-758.3873"/>
<polygon fill="#000000" stroke="#000000" points="763.6303,-761.0965 769.7414,-752.4418 759.5669,-755.3966 763.6303,-761.0965"/>
</g>
<!-- 32787&#45;&gt;2764 -->
<g id="edge65" class="edge">
<title>32787&#45;&gt;2764</title>
<path fill="none" stroke="#000000" d="M581.7261,-506.3771C571.2652,-496.3346 557.5184,-483.1377 545.9551,-472.0369"/>
<polygon fill="#000000" stroke="#000000" points="548.3659,-469.4995 538.7282,-465.099 543.5182,-474.5493 548.3659,-469.4995"/>
</g>
<!-- 32787&#45;&gt;4637 -->
<g id="edge66" class="edge">
<title>32787&#45;&gt;4637</title>
<path fill="none" stroke="#000000" d="M598,-503.8314C598,-496.131 598,-486.9743 598,-478.4166"/>
<polygon fill="#000000" stroke="#000000" points="601.5001,-478.4132 598,-468.4133 594.5001,-478.4133 601.5001,-478.4132"/>
</g>
<!-- 32787&#45;&gt;7474 -->
<g id="edge67" class="edge">
<title>32787&#45;&gt;7474</title>
<path fill="none" stroke="#000000" d="M614.2739,-506.3771C624.7348,-496.3346 638.4816,-483.1377 650.0449,-472.0369"/>
<polygon fill="#000000" stroke="#000000" points="652.4818,-474.5493 657.2718,-465.099 647.6341,-469.4995 652.4818,-474.5493"/>
</g>
<!-- 38333&#45;&gt;1221 -->
<g id="edge68" class="edge">
<title>38333&#45;&gt;1221</title>
<path fill="none" stroke="#000000" d="M584.0163,-364.1177C600.9993,-352.8996 625.0647,-337.0032 643.7352,-324.6703"/>
<polygon fill="#000000" stroke="#000000" points="645.7354,-327.5438 652.1503,-319.1117 641.8772,-321.703 645.7354,-327.5438"/>
</g>
<!-- 38880&#45;&gt;6695 -->
<g id="edge69" class="edge">
<title>38880&#45;&gt;6695</title>
<path fill="none" stroke="#000000" d="M417.3978,-218.7307C405.5758,-208.4754 389.8287,-194.8153 376.7493,-183.4693"/>
<polygon fill="#000000" stroke="#000000" points="378.8565,-180.6638 369.0091,-176.7549 374.2695,-185.9516 378.8565,-180.6638"/>
</g>
<!-- 38880&#45;&gt;9002 -->
<g id="edge70" class="edge">
<title>38880&#45;&gt;9002</title>
<path fill="none" stroke="#000000" d="M432.9813,-215.8314C432.1257,-208.131 431.1083,-198.9743 430.1574,-190.4166"/>
<polygon fill="#000000" stroke="#000000" points="433.6289,-189.9656 429.0459,-180.4133 426.6717,-190.7386 433.6289,-189.9656"/>
</g>
<!-- 38880&#45;&gt;9443 -->
<g id="edge71" class="edge">
<title>38880&#45;&gt;9443</title>
<path fill="none" stroke="#000000" d="M450.2033,-217.6621C459.151,-208.0467 470.6107,-195.7318 480.4751,-185.1312"/>
<polygon fill="#000000" stroke="#000000" points="483.0672,-187.4835 487.3173,-177.7784 477.9427,-182.7148 483.0672,-187.4835"/>
</g>
</g>
</svg>
