<?xml version="1.0" encoding="UTF-8" standalone="no"?>
<!DOCTYPE svg PUBLIC "-//W3C//DTD SVG 1.1//EN"
 "http://www.w3.org/Graphics/SVG/1.1/DTD/svg11.dtd">
<!-- Generated by graphviz version 2.40.1 (20161225.0304)
 -->
<!-- Title: %3 Pages: 1 -->
<svg width="1162pt" height="1777pt"
 viewBox="0.00 0.00 1161.97 1777.30" xmlns="http://www.w3.org/2000/svg" xmlns:xlink="http://www.w3.org/1999/xlink">
<g id="graph0" class="graph" transform="scale(1 1) rotate(0) translate(4 1773.3006)">
<title>%3</title>
<polygon fill="#ffffff" stroke="transparent" points="-4,4 -4,-1773.3006 1157.9718,-1773.3006 1157.9718,4 -4,4"/>
<!-- 174 -->
<g id="node1" class="node">
<title>174</title>
<ellipse fill="none" stroke="#000000" cx="362.4784" cy="-409.9365" rx="27" ry="18"/>
<text text-anchor="middle" x="362.4784" y="-406.2365" font-family="Times,serif" font-size="14.00" fill="#000000">174</text>
</g>
<!-- 209 -->
<g id="node2" class="node">
<title>209</title>
<ellipse fill="none" stroke="#000000" cx="330.0674" cy="-335.6634" rx="27" ry="18"/>
<text text-anchor="middle" x="330.0674" y="-331.9634" font-family="Times,serif" font-size="14.00" fill="#000000">209</text>
</g>
<!-- 174&#45;&gt;209 -->
<g id="edge1" class="edge">
<title>174&#45;&gt;209</title>
<path fill="none" stroke="#000000" d="M354.7974,-392.3348C350.9225,-383.455 346.1385,-372.492 341.8139,-362.5818"/>
<polygon fill="#000000" stroke="#000000" points="344.9007,-360.9042 337.6932,-353.1387 338.4849,-363.7039 344.9007,-360.9042"/>
</g>
<!-- 1299 -->
<g id="node8" class="node">
<title>1299</title>
<ellipse fill="none" stroke="#000000" cx="258.7046" cy="-296.3502" rx="28.6953" ry="18"/>
<text text-anchor="middle" x="258.7046" y="-292.6502" font-family="Times,serif" font-size="14.00" fill="#000000">1299</text>
</g>
<!-- 209&#45;&gt;1299 -->
<g id="edge2" class="edge">
<title>209&#45;&gt;1299</title>
<path fill="none" stroke="#000000" d="M309.0422,-324.0807C302.8237,-320.655 295.8864,-316.8333 289.1977,-313.1486"/>
<polygon fill="#000000" stroke="#000000" points="290.7692,-310.0184 280.3215,-308.2588 287.3916,-316.1496 290.7692,-310.0184"/>
</g>
<!-- 2828 -->
<g id="node14" class="node">
<title>2828</title>
<ellipse fill="none" stroke="#000000" cx="385.936" cy="-274.9489" rx="28.6953" ry="18"/>
<text text-anchor="middle" x="385.936" y="-271.2489" font-family="Times,serif" font-size="14.00" fill="#000000">2828</text>
</g>
<!-- 209&#45;&gt;2828 -->
<g id="edge3" class="edge">
<title>209&#45;&gt;2828</title>
<path fill="none" stroke="#000000" d="M344.4549,-320.0279C350.5331,-313.4224 357.7404,-305.59 364.4281,-298.3223"/>
<polygon fill="#000000" stroke="#000000" points="367.2072,-300.471 371.403,-290.7424 362.0561,-295.7311 367.2072,-300.471"/>
</g>
<!-- 701 -->
<g id="node3" class="node">
<title>701</title>
<ellipse fill="none" stroke="#000000" cx="114.6735" cy="-99.0222" rx="27" ry="18"/>
<text text-anchor="middle" x="114.6735" y="-95.3222" font-family="Times,serif" font-size="14.00" fill="#000000">701</text>
</g>
<!-- 703 -->
<g id="node4" class="node">
<title>703</title>
<ellipse fill="none" stroke="#000000" cx="51.9105" cy="-152.0756" rx="27" ry="18"/>
<text text-anchor="middle" x="51.9105" y="-148.3756" font-family="Times,serif" font-size="14.00" fill="#000000">703</text>
</g>
<!-- 701&#45;&gt;703 -->
<g id="edge4" class="edge">
<title>701&#45;&gt;703</title>
<path fill="none" stroke="#000000" d="M97.8542,-113.2396C91.3818,-118.7107 83.8475,-125.0794 76.7751,-131.0577"/>
<polygon fill="#000000" stroke="#000000" points="74.1539,-128.6904 68.7763,-137.8191 78.6729,-134.0364 74.1539,-128.6904"/>
</g>
<!-- 1239 -->
<g id="node6" class="node">
<title>1239</title>
<ellipse fill="none" stroke="#000000" cx="28.5975" cy="-105.9106" rx="28.6953" ry="18"/>
<text text-anchor="middle" x="28.5975" y="-102.2106" font-family="Times,serif" font-size="14.00" fill="#000000">1239</text>
</g>
<!-- 701&#45;&gt;1239 -->
<g id="edge5" class="edge">
<title>701&#45;&gt;1239</title>
<path fill="none" stroke="#000000" d="M87.4385,-101.2018C81.1033,-101.7087 74.2376,-102.2582 67.5078,-102.7967"/>
<polygon fill="#000000" stroke="#000000" points="66.8289,-99.3398 57.14,-103.6265 67.3873,-106.3175 66.8289,-99.3398"/>
</g>
<!-- 1273 -->
<g id="node7" class="node">
<title>1273</title>
<ellipse fill="none" stroke="#000000" cx="49.3045" cy="-51.3011" rx="28.6953" ry="18"/>
<text text-anchor="middle" x="49.3045" y="-47.6011" font-family="Times,serif" font-size="14.00" fill="#000000">1273</text>
</g>
<!-- 701&#45;&gt;1273 -->
<g id="edge6" class="edge">
<title>701&#45;&gt;1273</title>
<path fill="none" stroke="#000000" d="M96.4646,-85.7292C90.3021,-81.2305 83.2793,-76.1036 76.5698,-71.2055"/>
<polygon fill="#000000" stroke="#000000" points="78.4677,-68.2576 68.3272,-65.1882 74.3403,-73.9113 78.4677,-68.2576"/>
</g>
<!-- 3320 -->
<g id="node17" class="node">
<title>3320</title>
<ellipse fill="none" stroke="#000000" cx="100.2379" cy="-18" rx="28.6953" ry="18"/>
<text text-anchor="middle" x="100.2379" y="-14.3" font-family="Times,serif" font-size="14.00" fill="#000000">3320</text>
</g>
<!-- 701&#45;&gt;3320 -->
<g id="edge7" class="edge">
<title>701&#45;&gt;3320</title>
<path fill="none" stroke="#000000" d="M111.4698,-81.0408C109.6383,-70.7609 107.3011,-57.6431 105.2335,-46.0384"/>
<polygon fill="#000000" stroke="#000000" points="108.6326,-45.1622 103.4327,-35.9312 101.7411,-46.3901 108.6326,-45.1622"/>
</g>
<!-- 5511 -->
<g id="node27" class="node">
<title>5511</title>
<ellipse fill="none" stroke="#000000" cx="184.3002" cy="-63.1809" rx="28.6953" ry="18"/>
<text text-anchor="middle" x="184.3002" y="-59.4809" font-family="Times,serif" font-size="14.00" fill="#000000">5511</text>
</g>
<!-- 701&#45;&gt;5511 -->
<g id="edge8" class="edge">
<title>701&#45;&gt;5511</title>
<path fill="none" stroke="#000000" d="M136.3222,-87.8783C141.5392,-85.1927 147.2189,-82.269 152.785,-79.4038"/>
<polygon fill="#000000" stroke="#000000" points="154.6544,-82.3781 161.9436,-74.6893 151.4506,-76.1543 154.6544,-82.3781"/>
</g>
<!-- 7018 -->
<g id="node36" class="node">
<title>7018</title>
<ellipse fill="none" stroke="#000000" cx="157.2339" cy="-20.5136" rx="28.6953" ry="18"/>
<text text-anchor="middle" x="157.2339" y="-16.8136" font-family="Times,serif" font-size="14.00" fill="#000000">7018</text>
</g>
<!-- 701&#45;&gt;7018 -->
<g id="edge9" class="edge">
<title>701&#45;&gt;7018</title>
<path fill="none" stroke="#000000" d="M123.9085,-81.987C129.5029,-71.6674 136.7533,-58.293 143.062,-46.6556"/>
<polygon fill="#000000" stroke="#000000" points="146.181,-48.246 147.87,-37.7867 140.0271,-44.9099 146.181,-48.246"/>
</g>
<!-- 1221 -->
<g id="node5" class="node">
<title>1221</title>
<ellipse fill="none" stroke="#000000" cx="768.4145" cy="-1355.2943" rx="28.6953" ry="18"/>
<text text-anchor="middle" x="768.4145" y="-1351.5943" font-family="Times,serif" font-size="14.00" fill="#000000">1221</text>
</g>
<!-- 6461 -->
<g id="node30" class="node">
<title>6461</title>
<ellipse fill="none" stroke="#000000" cx="206.5364" cy="-237.4968" rx="28.6953" ry="18"/>
<text text-anchor="middle" x="206.5364" y="-233.7968" font-family="Times,serif" font-size="14.00" fill="#000000">6461</text>
</g>
<!-- 1299&#45;&gt;6461 -->
<g id="edge10" class="edge">
<title>1299&#45;&gt;6461</title>
<path fill="none" stroke="#000000" d="M244.7245,-280.5785C239.3446,-274.5093 233.0822,-267.4443 227.2037,-260.8125"/>
<polygon fill="#000000" stroke="#000000" points="229.8076,-258.4736 220.5551,-253.312 224.5693,-263.1169 229.8076,-258.4736"/>
</g>
<!-- 2497 -->
<g id="node9" class="node">
<title>2497</title>
<ellipse fill="none" stroke="#000000" cx="162.0896" cy="-171.4459" rx="28.6953" ry="18"/>
<text text-anchor="middle" x="162.0896" y="-167.7459" font-family="Times,serif" font-size="14.00" fill="#000000">2497</text>
</g>
<!-- 2497&#45;&gt;701 -->
<g id="edge11" class="edge">
<title>2497&#45;&gt;701</title>
<path fill="none" stroke="#000000" d="M151.0922,-154.6484C145.1675,-145.599 137.7393,-134.2531 131.1393,-124.1723"/>
<polygon fill="#000000" stroke="#000000" points="134.0171,-122.1779 125.6113,-115.7286 128.1606,-126.0122 134.0171,-122.1779"/>
</g>
<!-- 2516 -->
<g id="node10" class="node">
<title>2516</title>
<ellipse fill="none" stroke="#000000" cx="598.412" cy="-1137.8614" rx="28.6953" ry="18"/>
<text text-anchor="middle" x="598.412" y="-1134.1614" font-family="Times,serif" font-size="14.00" fill="#000000">2516</text>
</g>
<!-- 32787 -->
<g id="node59" class="node">
<title>32787</title>
<ellipse fill="none" stroke="#000000" cx="611.8689" cy="-1226.4349" rx="32.4942" ry="18"/>
<text text-anchor="middle" x="611.8689" y="-1222.7349" font-family="Times,serif" font-size="14.00" fill="#000000">32787</text>
</g>
<!-- 2516&#45;&gt;32787 -->
<g id="edge12" class="edge">
<title>2516&#45;&gt;32787</title>
<path fill="none" stroke="#000000" d="M601.1352,-1155.7856C602.9835,-1167.9507 605.4656,-1184.2884 607.5774,-1198.1885"/>
<polygon fill="#000000" stroke="#000000" points="604.1411,-1198.8726 609.1035,-1208.2334 611.0617,-1197.8211 604.1411,-1198.8726"/>
</g>
<!-- 2686 -->
<g id="node11" class="node">
<title>2686</title>
<ellipse fill="none" stroke="#000000" cx="490.7327" cy="-1023.1519" rx="28.6953" ry="18"/>
<text text-anchor="middle" x="490.7327" y="-1019.4519" font-family="Times,serif" font-size="14.00" fill="#000000">2686</text>
</g>
<!-- 3741 -->
<g id="node22" class="node">
<title>3741</title>
<ellipse fill="none" stroke="#000000" cx="400.4284" cy="-1018.1401" rx="28.6953" ry="18"/>
<text text-anchor="middle" x="400.4284" y="-1014.4401" font-family="Times,serif" font-size="14.00" fill="#000000">3741</text>
</g>
<!-- 2686&#45;&gt;3741 -->
<g id="edge13" class="edge">
<title>2686&#45;&gt;3741</title>
<path fill="none" stroke="#000000" d="M462.1599,-1021.5662C454.9128,-1021.164 447.004,-1020.725 439.3398,-1020.2997"/>
<polygon fill="#000000" stroke="#000000" points="439.3039,-1016.7924 429.1253,-1019.7328 438.916,-1023.7816 439.3039,-1016.7924"/>
</g>
<!-- 2687 -->
<g id="node12" class="node">
<title>2687</title>
<ellipse fill="none" stroke="#000000" cx="578.555" cy="-1050.1007" rx="28.6953" ry="18"/>
<text text-anchor="middle" x="578.555" y="-1046.4007" font-family="Times,serif" font-size="14.00" fill="#000000">2687</text>
</g>
<!-- 2687&#45;&gt;2516 -->
<g id="edge14" class="edge">
<title>2687&#45;&gt;2516</title>
<path fill="none" stroke="#000000" d="M582.6694,-1068.2847C585.4032,-1080.3672 589.0451,-1096.463 592.1374,-1110.1299"/>
<polygon fill="#000000" stroke="#000000" points="588.7502,-1111.0198 594.3708,-1120.0009 595.5776,-1109.475 588.7502,-1111.0198"/>
</g>
<!-- 2687&#45;&gt;2686 -->
<g id="edge15" class="edge">
<title>2687&#45;&gt;2686</title>
<path fill="none" stroke="#000000" d="M552.6804,-1042.1609C544.4458,-1039.6341 535.187,-1036.793 526.3871,-1034.0927"/>
<polygon fill="#000000" stroke="#000000" points="527.3127,-1030.7157 516.7258,-1031.1281 525.2591,-1037.4077 527.3127,-1030.7157"/>
</g>
<!-- 9505 -->
<g id="node43" class="node">
<title>9505</title>
<ellipse fill="none" stroke="#000000" cx="514.2847" cy="-1069.4179" rx="28.6953" ry="18"/>
<text text-anchor="middle" x="514.2847" y="-1065.7179" font-family="Times,serif" font-size="14.00" fill="#000000">9505</text>
</g>
<!-- 2687&#45;&gt;9505 -->
<g id="edge16" class="edge">
<title>2687&#45;&gt;9505</title>
<path fill="none" stroke="#000000" d="M552.4138,-1057.9577C551.6579,-1058.1849 550.8974,-1058.4135 550.1341,-1058.6429"/>
<polygon fill="#000000" stroke="#000000" points="548.7637,-1055.4001 540.1943,-1061.6304 550.7786,-1062.1038 548.7637,-1055.4001"/>
</g>
<!-- 2764 -->
<g id="node13" class="node">
<title>2764</title>
<ellipse fill="none" stroke="#000000" cx="602.766" cy="-1315.9384" rx="28.6953" ry="18"/>
<text text-anchor="middle" x="602.766" y="-1312.2384" font-family="Times,serif" font-size="14.00" fill="#000000">2764</text>
</g>
<!-- 7545 -->
<g id="node39" class="node">
<title>7545</title>
<ellipse fill="none" stroke="#000000" cx="573.1834" cy="-1402.3431" rx="28.6953" ry="18"/>
<text text-anchor="middle" x="573.1834" y="-1398.6431" font-family="Times,serif" font-size="14.00" fill="#000000">7545</text>
</g>
<!-- 2764&#45;&gt;7545 -->
<g id="edge17" class="edge">
<title>2764&#45;&gt;7545</title>
<path fill="none" stroke="#000000" d="M596.6365,-1333.8415C592.5907,-1345.6585 587.2099,-1361.3746 582.6229,-1374.7724"/>
<polygon fill="#000000" stroke="#000000" points="579.233,-1373.8683 579.3051,-1384.4629 585.8556,-1376.1357 579.233,-1373.8683"/>
</g>
<!-- 38333 -->
<g id="node61" class="node">
<title>38333</title>
<ellipse fill="none" stroke="#000000" cx="685.8629" cy="-1334.4054" rx="32.4942" ry="18"/>
<text text-anchor="middle" x="685.8629" y="-1330.7054" font-family="Times,serif" font-size="14.00" fill="#000000">38333</text>
</g>
<!-- 2764&#45;&gt;38333 -->
<g id="edge18" class="edge">
<title>2764&#45;&gt;38333</title>
<path fill="none" stroke="#000000" d="M629.975,-1321.9852C634.9361,-1323.0877 640.2081,-1324.2593 645.4559,-1325.4256"/>
<polygon fill="#000000" stroke="#000000" points="644.9082,-1328.8892 655.4293,-1327.642 646.4268,-1322.0559 644.9082,-1328.8892"/>
</g>
<!-- 38561 -->
<g id="node62" class="node">
<title>38561</title>
<ellipse fill="none" stroke="#000000" cx="530.9011" cy="-1305.3134" rx="32.4942" ry="18"/>
<text text-anchor="middle" x="530.9011" y="-1301.6134" font-family="Times,serif" font-size="14.00" fill="#000000">38561</text>
</g>
<!-- 2764&#45;&gt;38561 -->
<g id="edge19" class="edge">
<title>2764&#45;&gt;38561</title>
<path fill="none" stroke="#000000" d="M574.7754,-1311.8001C574.1596,-1311.709 573.5405,-1311.6175 572.9189,-1311.5256"/>
<polygon fill="#000000" stroke="#000000" points="573.1567,-1308.0228 562.7523,-1310.0225 572.1328,-1314.9475 573.1567,-1308.0228"/>
</g>
<!-- 2914 -->
<g id="node15" class="node">
<title>2914</title>
<ellipse fill="none" stroke="#000000" cx="575.1502" cy="-654.976" rx="28.6953" ry="18"/>
<text text-anchor="middle" x="575.1502" y="-651.276" font-family="Times,serif" font-size="14.00" fill="#000000">2914</text>
</g>
<!-- 6453 -->
<g id="node29" class="node">
<title>6453</title>
<ellipse fill="none" stroke="#000000" cx="519.0047" cy="-592.2582" rx="28.6953" ry="18"/>
<text text-anchor="middle" x="519.0047" y="-588.5582" font-family="Times,serif" font-size="14.00" fill="#000000">6453</text>
</g>
<!-- 2914&#45;&gt;6453 -->
<g id="edge20" class="edge">
<title>2914&#45;&gt;6453</title>
<path fill="none" stroke="#000000" d="M560.9823,-639.1496C554.6476,-632.0734 547.0492,-623.5855 540.0684,-615.7876"/>
<polygon fill="#000000" stroke="#000000" points="542.641,-613.4138 533.3633,-608.2976 537.4255,-618.0828 542.641,-613.4138"/>
</g>
<!-- 3257 -->
<g id="node16" class="node">
<title>3257</title>
<ellipse fill="none" stroke="#000000" cx="464.4716" cy="-531.795" rx="28.6953" ry="18"/>
<text text-anchor="middle" x="464.4716" y="-528.095" font-family="Times,serif" font-size="14.00" fill="#000000">3257</text>
</g>
<!-- 3491 -->
<g id="node19" class="node">
<title>3491</title>
<ellipse fill="none" stroke="#000000" cx="411.4334" cy="-472.2085" rx="28.6953" ry="18"/>
<text text-anchor="middle" x="411.4334" y="-468.5085" font-family="Times,serif" font-size="14.00" fill="#000000">3491</text>
</g>
<!-- 3257&#45;&gt;3491 -->
<g id="edge21" class="edge">
<title>3257&#45;&gt;3491</title>
<path fill="none" stroke="#000000" d="M450.2583,-515.8269C444.7888,-509.6821 438.4219,-502.529 432.4453,-495.8146"/>
<polygon fill="#000000" stroke="#000000" points="434.949,-493.3632 425.6859,-488.2206 429.7203,-498.0173 434.949,-493.3632"/>
</g>
<!-- 3356 -->
<g id="node18" class="node">
<title>3356</title>
<ellipse fill="none" stroke="#000000" cx="774.8644" cy="-771.2971" rx="28.6953" ry="18"/>
<text text-anchor="middle" x="774.8644" y="-767.5971" font-family="Times,serif" font-size="14.00" fill="#000000">3356</text>
</g>
<!-- 3549 -->
<g id="node20" class="node">
<title>3549</title>
<ellipse fill="none" stroke="#000000" cx="689.1142" cy="-796.5624" rx="28.6953" ry="18"/>
<text text-anchor="middle" x="689.1142" y="-792.8624" font-family="Times,serif" font-size="14.00" fill="#000000">3549</text>
</g>
<!-- 3356&#45;&gt;3549 -->
<g id="edge22" class="edge">
<title>3356&#45;&gt;3549</title>
<path fill="none" stroke="#000000" d="M748.6706,-779.0148C741.1903,-781.2188 732.9074,-783.6592 724.9563,-786.0019"/>
<polygon fill="#000000" stroke="#000000" points="723.7507,-782.7083 715.1476,-788.8919 725.7292,-789.4229 723.7507,-782.7083"/>
</g>
<!-- 3491&#45;&gt;174 -->
<g id="edge23" class="edge">
<title>3491&#45;&gt;174</title>
<path fill="none" stroke="#000000" d="M398.571,-455.8472C393.3585,-449.2167 387.2311,-441.4225 381.5195,-434.1573"/>
<polygon fill="#000000" stroke="#000000" points="384.0174,-431.6715 375.0855,-425.973 378.5143,-435.9977 384.0174,-431.6715"/>
</g>
<!-- 6762 -->
<g id="node32" class="node">
<title>6762</title>
<ellipse fill="none" stroke="#000000" cx="632.4815" cy="-722.1798" rx="28.6953" ry="18"/>
<text text-anchor="middle" x="632.4815" y="-718.4798" font-family="Times,serif" font-size="14.00" fill="#000000">6762</text>
</g>
<!-- 3549&#45;&gt;6762 -->
<g id="edge24" class="edge">
<title>3549&#45;&gt;6762</title>
<path fill="none" stroke="#000000" d="M676.5456,-780.0545C669.0669,-770.2318 659.4393,-757.5868 651.092,-746.6232"/>
<polygon fill="#000000" stroke="#000000" points="653.8575,-744.4777 645.015,-738.6416 648.2881,-748.7182 653.8575,-744.4777"/>
</g>
<!-- 30070 -->
<g id="node58" class="node">
<title>30070</title>
<ellipse fill="none" stroke="#000000" cx="653.2911" cy="-885.2482" rx="32.4942" ry="18"/>
<text text-anchor="middle" x="653.2911" y="-881.5482" font-family="Times,serif" font-size="14.00" fill="#000000">30070</text>
</g>
<!-- 3549&#45;&gt;30070 -->
<g id="edge25" class="edge">
<title>3549&#45;&gt;30070</title>
<path fill="none" stroke="#000000" d="M682.0367,-814.0838C676.9671,-826.6344 670.0428,-843.7768 664.2604,-858.0919"/>
<polygon fill="#000000" stroke="#000000" points="660.9766,-856.8765 660.4765,-867.4595 667.4672,-859.4983 660.9766,-856.8765"/>
</g>
<!-- 3597 -->
<g id="node21" class="node">
<title>3597</title>
<ellipse fill="none" stroke="#000000" cx="1017.54" cy="-612.8407" rx="28.6953" ry="18"/>
<text text-anchor="middle" x="1017.54" y="-609.1407" font-family="Times,serif" font-size="14.00" fill="#000000">3597</text>
</g>
<!-- 37179 -->
<g id="node60" class="node">
<title>37179</title>
<ellipse fill="none" stroke="#000000" cx="317.8439" cy="-1023.0701" rx="32.4942" ry="18"/>
<text text-anchor="middle" x="317.8439" y="-1019.3701" font-family="Times,serif" font-size="14.00" fill="#000000">37179</text>
</g>
<!-- 3741&#45;&gt;37179 -->
<g id="edge26" class="edge">
<title>3741&#45;&gt;37179</title>
<path fill="none" stroke="#000000" d="M371.5443,-1019.8644C367.8872,-1020.0827 364.0869,-1020.3095 360.2737,-1020.5372"/>
<polygon fill="#000000" stroke="#000000" points="360.0127,-1017.0464 350.239,-1021.1362 360.4299,-1024.034 360.0127,-1017.0464"/>
</g>
<!-- 4635 -->
<g id="node23" class="node">
<title>4635</title>
<ellipse fill="none" stroke="#000000" cx="551.8755" cy="-1455.9709" rx="28.6953" ry="18"/>
<text text-anchor="middle" x="551.8755" y="-1452.2709" font-family="Times,serif" font-size="14.00" fill="#000000">4635</text>
</g>
<!-- 4637 -->
<g id="node24" class="node">
<title>4637</title>
<ellipse fill="none" stroke="#000000" cx="701.797" cy="-1231.4227" rx="28.6953" ry="18"/>
<text text-anchor="middle" x="701.797" y="-1227.7227" font-family="Times,serif" font-size="14.00" fill="#000000">4637</text>
</g>
<!-- 4739 -->
<g id="node25" class="node">
<title>4739</title>
<ellipse fill="none" stroke="#000000" cx="485.5009" cy="-1437.3359" rx="28.6953" ry="18"/>
<text text-anchor="middle" x="485.5009" y="-1433.6359" font-family="Times,serif" font-size="14.00" fill="#000000">4739</text>
</g>
<!-- 38880 -->
<g id="node63" class="node">
<title>38880</title>
<ellipse fill="none" stroke="#000000" cx="415.5219" cy="-1488.1805" rx="32.4942" ry="18"/>
<text text-anchor="middle" x="415.5219" y="-1484.4805" font-family="Times,serif" font-size="14.00" fill="#000000">38880</text>
</g>
<!-- 4739&#45;&gt;38880 -->
<g id="edge27" class="edge">
<title>4739&#45;&gt;38880</title>
<path fill="none" stroke="#000000" d="M466.7478,-1450.9613C459.6122,-1456.1458 451.3191,-1462.1714 443.5108,-1467.8446"/>
<polygon fill="#000000" stroke="#000000" points="441.3389,-1465.0963 435.3061,-1473.8059 445.4535,-1470.7594 441.3389,-1465.0963"/>
</g>
<!-- 4826 -->
<g id="node26" class="node">
<title>4826</title>
<ellipse fill="none" stroke="#000000" cx="287.6995" cy="-1586.7489" rx="28.6953" ry="18"/>
<text text-anchor="middle" x="287.6995" y="-1583.0489" font-family="Times,serif" font-size="14.00" fill="#000000">4826</text>
</g>
<!-- 15412 -->
<g id="node50" class="node">
<title>15412</title>
<ellipse fill="none" stroke="#000000" cx="233.8662" cy="-1638.9405" rx="32.4942" ry="18"/>
<text text-anchor="middle" x="233.8662" y="-1635.2405" font-family="Times,serif" font-size="14.00" fill="#000000">15412</text>
</g>
<!-- 4826&#45;&gt;15412 -->
<g id="edge28" class="edge">
<title>4826&#45;&gt;15412</title>
<path fill="none" stroke="#000000" d="M271.8389,-1602.1258C267.3611,-1606.467 262.3893,-1611.2872 257.5581,-1615.9711"/>
<polygon fill="#000000" stroke="#000000" points="254.9166,-1613.6571 250.1732,-1623.1308 259.7892,-1618.6829 254.9166,-1613.6571"/>
</g>
<!-- 5692 -->
<g id="node28" class="node">
<title>5692</title>
<ellipse fill="none" stroke="#000000" cx="1033.1426" cy="-673.9353" rx="28.6953" ry="18"/>
<text text-anchor="middle" x="1033.1426" y="-670.2353" font-family="Times,serif" font-size="14.00" fill="#000000">5692</text>
</g>
<!-- 5692&#45;&gt;3597 -->
<g id="edge29" class="edge">
<title>5692&#45;&gt;3597</title>
<path fill="none" stroke="#000000" d="M1028.5457,-655.9353C1027.3187,-651.1308 1025.9637,-645.8251 1024.6361,-640.6268"/>
<polygon fill="#000000" stroke="#000000" points="1028.0236,-639.7461 1022.158,-630.9231 1021.2413,-641.4782 1028.0236,-639.7461"/>
</g>
<!-- 10834 -->
<g id="node45" class="node">
<title>10834</title>
<ellipse fill="none" stroke="#000000" cx="942.3881" cy="-724.1749" rx="32.4942" ry="18"/>
<text text-anchor="middle" x="942.3881" y="-720.4749" font-family="Times,serif" font-size="14.00" fill="#000000">10834</text>
</g>
<!-- 5692&#45;&gt;10834 -->
<g id="edge30" class="edge">
<title>5692&#45;&gt;10834</title>
<path fill="none" stroke="#000000" d="M1011.635,-685.8414C1000.6079,-691.9457 986.9517,-699.5055 974.6886,-706.294"/>
<polygon fill="#000000" stroke="#000000" points="972.7029,-703.3927 965.6491,-711.2981 976.0932,-709.517 972.7029,-703.3927"/>
</g>
<!-- 11008 -->
<g id="node46" class="node">
<title>11008</title>
<ellipse fill="none" stroke="#000000" cx="970.4893" cy="-649.0861" rx="32.4942" ry="18"/>
<text text-anchor="middle" x="970.4893" y="-645.3861" font-family="Times,serif" font-size="14.00" fill="#000000">11008</text>
</g>
<!-- 5692&#45;&gt;11008 -->
<g id="edge31" class="edge">
<title>5692&#45;&gt;11008</title>
<path fill="none" stroke="#000000" d="M1008.7398,-664.2568C1008.0182,-663.9706 1007.2915,-663.6824 1006.5613,-663.3927"/>
<polygon fill="#000000" stroke="#000000" points="1007.5891,-660.0352 997.0032,-659.6019 1005.0084,-666.5421 1007.5891,-660.0352"/>
</g>
<!-- 27865 -->
<g id="node55" class="node">
<title>27865</title>
<ellipse fill="none" stroke="#000000" cx="1086.1497" cy="-749.1305" rx="32.4942" ry="18"/>
<text text-anchor="middle" x="1086.1497" y="-745.4305" font-family="Times,serif" font-size="14.00" fill="#000000">27865</text>
</g>
<!-- 5692&#45;&gt;27865 -->
<g id="edge32" class="edge">
<title>5692&#45;&gt;27865</title>
<path fill="none" stroke="#000000" d="M1044.9066,-690.6235C1051.7897,-700.3879 1060.6176,-712.911 1068.3387,-723.8641"/>
<polygon fill="#000000" stroke="#000000" points="1065.613,-726.0721 1074.2353,-732.2289 1071.3343,-722.0389 1065.613,-726.0721"/>
</g>
<!-- 28065 -->
<g id="node56" class="node">
<title>28065</title>
<ellipse fill="none" stroke="#000000" cx="1070.443" cy="-594.1777" rx="32.4942" ry="18"/>
<text text-anchor="middle" x="1070.443" y="-590.4777" font-family="Times,serif" font-size="14.00" fill="#000000">28065</text>
</g>
<!-- 5692&#45;&gt;28065 -->
<g id="edge33" class="edge">
<title>5692&#45;&gt;28065</title>
<path fill="none" stroke="#000000" d="M1041.2362,-656.6291C1046.0907,-646.2491 1052.3679,-632.8268 1057.8581,-621.0873"/>
<polygon fill="#000000" stroke="#000000" points="1061.1704,-622.2666 1062.2364,-611.7256 1054.8296,-619.3012 1061.1704,-622.2666"/>
</g>
<!-- 52317 -->
<g id="node65" class="node">
<title>52317</title>
<ellipse fill="none" stroke="#000000" cx="1121.4747" cy="-654.6662" rx="32.4942" ry="18"/>
<text text-anchor="middle" x="1121.4747" y="-650.9662" font-family="Times,serif" font-size="14.00" fill="#000000">52317</text>
</g>
<!-- 5692&#45;&gt;52317 -->
<g id="edge34" class="edge">
<title>5692&#45;&gt;52317</title>
<path fill="none" stroke="#000000" d="M1060.6072,-667.944C1067.0723,-666.5337 1074.0974,-665.0012 1081.0013,-663.4952"/>
<polygon fill="#000000" stroke="#000000" points="1081.9259,-666.8759 1090.9502,-661.3249 1080.434,-660.0367 1081.9259,-666.8759"/>
</g>
<!-- 52375 -->
<g id="node66" class="node">
<title>52375</title>
<ellipse fill="none" stroke="#000000" cx="975.5183" cy="-604.1317" rx="32.4942" ry="18"/>
<text text-anchor="middle" x="975.5183" y="-600.4317" font-family="Times,serif" font-size="14.00" fill="#000000">52375</text>
</g>
<!-- 5692&#45;&gt;52375 -->
<g id="edge35" class="edge">
<title>5692&#45;&gt;52375</title>
<path fill="none" stroke="#000000" d="M1019.7776,-657.7455C1012.6085,-649.0612 1003.628,-638.1826 995.6333,-628.4981"/>
<polygon fill="#000000" stroke="#000000" points="998.2763,-626.202 989.2109,-620.7184 992.8781,-630.6584 998.2763,-626.202"/>
</g>
<!-- 52376 -->
<g id="node67" class="node">
<title>52376</title>
<ellipse fill="none" stroke="#000000" cx="1102.9481" cy="-687.3915" rx="32.4942" ry="18"/>
<text text-anchor="middle" x="1102.9481" y="-683.6915" font-family="Times,serif" font-size="14.00" fill="#000000">52376</text>
</g>
<!-- 5692&#45;&gt;52376 -->
<g id="edge36" class="edge">
<title>5692&#45;&gt;52376</title>
<path fill="none" stroke="#000000" d="M1060.7316,-679.2535C1061.0746,-679.3196 1061.4185,-679.3859 1061.7633,-679.4524"/>
<polygon fill="#000000" stroke="#000000" points="1061.3913,-682.9451 1071.873,-681.4012 1062.7163,-676.0716 1061.3913,-682.9451"/>
</g>
<!-- 52380 -->
<g id="node68" class="node">
<title>52380</title>
<ellipse fill="none" stroke="#000000" cx="1115.6207" cy="-721.925" rx="32.4942" ry="18"/>
<text text-anchor="middle" x="1115.6207" y="-718.225" font-family="Times,serif" font-size="14.00" fill="#000000">52380</text>
</g>
<!-- 5692&#45;&gt;52380 -->
<g id="edge37" class="edge">
<title>5692&#45;&gt;52380</title>
<path fill="none" stroke="#000000" d="M1054.3828,-686.2938C1063.4455,-691.567 1074.2084,-697.8293 1084.1641,-703.6221"/>
<polygon fill="#000000" stroke="#000000" points="1082.6046,-706.764 1093.0082,-708.768 1086.1251,-700.7136 1082.6046,-706.764"/>
</g>
<!-- 52413 -->
<g id="node69" class="node">
<title>52413</title>
<ellipse fill="none" stroke="#000000" cx="1097.1816" cy="-621.7811" rx="32.4942" ry="18"/>
<text text-anchor="middle" x="1097.1816" y="-618.0811" font-family="Times,serif" font-size="14.00" fill="#000000">52413</text>
</g>
<!-- 5692&#45;&gt;52413 -->
<g id="edge38" class="edge">
<title>5692&#45;&gt;52413</title>
<path fill="none" stroke="#000000" d="M1050.6415,-659.6839C1056.9232,-654.568 1064.1509,-648.6817 1071.0082,-643.097"/>
<polygon fill="#000000" stroke="#000000" points="1073.2655,-645.7726 1078.8092,-636.7438 1068.845,-640.3449 1073.2655,-645.7726"/>
</g>
<!-- 52431 -->
<g id="node70" class="node">
<title>52431</title>
<ellipse fill="none" stroke="#000000" cx="1014.4354" cy="-725.4304" rx="32.4942" ry="18"/>
<text text-anchor="middle" x="1014.4354" y="-721.7304" font-family="Times,serif" font-size="14.00" fill="#000000">52431</text>
</g>
<!-- 5692&#45;&gt;52431 -->
<g id="edge39" class="edge">
<title>5692&#45;&gt;52431</title>
<path fill="none" stroke="#000000" d="M1026.7046,-691.657C1025.9489,-693.7371 1025.1651,-695.895 1024.3756,-698.0682"/>
<polygon fill="#000000" stroke="#000000" points="1021.0736,-696.9071 1020.9487,-707.5012 1027.6529,-699.2973 1021.0736,-696.9071"/>
</g>
<!-- 262230 -->
<g id="node71" class="node">
<title>262230</title>
<ellipse fill="none" stroke="#000000" cx="1025.8391" cy="-577.6758" rx="37.0935" ry="18"/>
<text text-anchor="middle" x="1025.8391" y="-573.9758" font-family="Times,serif" font-size="14.00" fill="#000000">262230</text>
</g>
<!-- 5692&#45;&gt;262230 -->
<g id="edge40" class="edge">
<title>5692&#45;&gt;262230</title>
<path fill="none" stroke="#000000" d="M1031.7689,-655.8296C1030.6977,-641.7123 1029.1913,-621.8569 1027.9648,-605.6924"/>
<polygon fill="#000000" stroke="#000000" points="1031.4533,-605.4068 1027.2067,-595.7003 1024.4734,-605.9365 1031.4533,-605.4068"/>
</g>
<!-- 264608 -->
<g id="node72" class="node">
<title>264608</title>
<ellipse fill="none" stroke="#000000" cx="1049.9437" cy="-753.1152" rx="37.0935" ry="18"/>
<text text-anchor="middle" x="1049.9437" y="-749.4152" font-family="Times,serif" font-size="14.00" fill="#000000">264608</text>
</g>
<!-- 5692&#45;&gt;264608 -->
<g id="edge41" class="edge">
<title>5692&#45;&gt;264608</title>
<path fill="none" stroke="#000000" d="M1036.955,-691.9024C1039.024,-701.6532 1041.6287,-713.9284 1043.9614,-724.9219"/>
<polygon fill="#000000" stroke="#000000" points="1040.5887,-725.8894 1046.0882,-734.9451 1047.4362,-724.4364 1040.5887,-725.8894"/>
</g>
<!-- 6453&#45;&gt;3257 -->
<g id="edge42" class="edge">
<title>6453&#45;&gt;3257</title>
<path fill="none" stroke="#000000" d="M504.6767,-576.3722C498.961,-570.0349 492.2577,-562.6027 485.9809,-555.6433"/>
<polygon fill="#000000" stroke="#000000" points="488.1898,-552.8665 478.8931,-547.7848 482.9917,-557.5548 488.1898,-552.8665"/>
</g>
<!-- 6461&#45;&gt;2497 -->
<g id="edge43" class="edge">
<title>6461&#45;&gt;2497</title>
<path fill="none" stroke="#000000" d="M195.3206,-220.8294C190.4103,-213.5323 184.5408,-204.8099 179.1104,-196.74"/>
<polygon fill="#000000" stroke="#000000" points="181.9431,-194.6802 173.4564,-188.3378 176.1355,-198.5883 181.9431,-194.6802"/>
</g>
<!-- 6695 -->
<g id="node31" class="node">
<title>6695</title>
<ellipse fill="none" stroke="#000000" cx="429.3664" cy="-1567.9867" rx="28.6953" ry="18"/>
<text text-anchor="middle" x="429.3664" y="-1564.2867" font-family="Times,serif" font-size="14.00" fill="#000000">6695</text>
</g>
<!-- 6762&#45;&gt;2914 -->
<g id="edge44" class="edge">
<title>6762&#45;&gt;2914</title>
<path fill="none" stroke="#000000" d="M618.8948,-706.2534C611.9287,-698.0878 603.3019,-687.9754 595.5551,-678.8945"/>
<polygon fill="#000000" stroke="#000000" points="598.1906,-676.5911 589.0377,-671.2549 592.8651,-681.1342 598.1906,-676.5911"/>
</g>
<!-- 6904 -->
<g id="node33" class="node">
<title>6904</title>
<ellipse fill="none" stroke="#000000" cx="623.7825" cy="-973.3647" rx="28.6953" ry="18"/>
<text text-anchor="middle" x="623.7825" y="-969.6647" font-family="Times,serif" font-size="14.00" fill="#000000">6904</text>
</g>
<!-- 6904&#45;&gt;2687 -->
<g id="edge45" class="edge">
<title>6904&#45;&gt;2687</title>
<path fill="none" stroke="#000000" d="M613.7451,-990.3949C607.8896,-1000.3297 600.3847,-1013.063 593.8108,-1024.2167"/>
<polygon fill="#000000" stroke="#000000" points="590.6268,-1022.7259 588.5644,-1033.1181 596.6573,-1026.2803 590.6268,-1022.7259"/>
</g>
<!-- 6939 -->
<g id="node34" class="node">
<title>6939</title>
<ellipse fill="none" stroke="#000000" cx="637.6605" cy="-1481.0664" rx="28.6953" ry="18"/>
<text text-anchor="middle" x="637.6605" y="-1477.3664" font-family="Times,serif" font-size="14.00" fill="#000000">6939</text>
</g>
<!-- 12266 -->
<g id="node48" class="node">
<title>12266</title>
<ellipse fill="none" stroke="#000000" cx="692.7343" cy="-1543.8979" rx="32.4942" ry="18"/>
<text text-anchor="middle" x="692.7343" y="-1540.1979" font-family="Times,serif" font-size="14.00" fill="#000000">12266</text>
</g>
<!-- 6939&#45;&gt;12266 -->
<g id="edge46" class="edge">
<title>6939&#45;&gt;12266</title>
<path fill="none" stroke="#000000" d="M651.5579,-1496.9215C657.5487,-1503.756 664.6916,-1511.9051 671.3329,-1519.4819"/>
<polygon fill="#000000" stroke="#000000" points="669.0407,-1522.1767 678.2643,-1527.3897 674.3047,-1517.5625 669.0407,-1522.1767"/>
</g>
<!-- 7016 -->
<g id="node35" class="node">
<title>7016</title>
<ellipse fill="none" stroke="#000000" cx="589.3572" cy="-857.9692" rx="28.6953" ry="18"/>
<text text-anchor="middle" x="589.3572" y="-854.2692" font-family="Times,serif" font-size="14.00" fill="#000000">7016</text>
</g>
<!-- 7922 -->
<g id="node40" class="node">
<title>7922</title>
<ellipse fill="none" stroke="#000000" cx="517.7929" cy="-830.2438" rx="28.6953" ry="18"/>
<text text-anchor="middle" x="517.7929" y="-826.5438" font-family="Times,serif" font-size="14.00" fill="#000000">7922</text>
</g>
<!-- 7016&#45;&gt;7922 -->
<g id="edge47" class="edge">
<title>7016&#45;&gt;7922</title>
<path fill="none" stroke="#000000" d="M564.7289,-848.4277C560.5214,-846.7976 556.0854,-845.079 551.6875,-843.3752"/>
<polygon fill="#000000" stroke="#000000" points="552.8134,-840.058 542.2243,-839.709 550.2845,-846.5852 552.8134,-840.058"/>
</g>
<!-- 7473 -->
<g id="node37" class="node">
<title>7473</title>
<ellipse fill="none" stroke="#000000" cx="430.8299" cy="-1080.2904" rx="28.6953" ry="18"/>
<text text-anchor="middle" x="430.8299" y="-1076.5904" font-family="Times,serif" font-size="14.00" fill="#000000">7473</text>
</g>
<!-- 7474 -->
<g id="node38" class="node">
<title>7474</title>
<ellipse fill="none" stroke="#000000" cx="670.0974" cy="-1207.7028" rx="28.6953" ry="18"/>
<text text-anchor="middle" x="670.0974" y="-1204.0028" font-family="Times,serif" font-size="14.00" fill="#000000">7474</text>
</g>
<!-- 7545&#45;&gt;4635 -->
<g id="edge48" class="edge">
<title>7545&#45;&gt;4635</title>
<path fill="none" stroke="#000000" d="M566.2064,-1419.9028C565.0777,-1422.7437 563.8861,-1425.7425 562.6919,-1428.7482"/>
<polygon fill="#000000" stroke="#000000" points="559.3811,-1427.6024 558.9412,-1438.1881 565.8864,-1430.1872 559.3811,-1427.6024"/>
</g>
<!-- 7545&#45;&gt;4739 -->
<g id="edge49" class="edge">
<title>7545&#45;&gt;4739</title>
<path fill="none" stroke="#000000" d="M548.759,-1412.0905C539.6378,-1415.7306 529.1115,-1419.9315 519.2954,-1423.849"/>
<polygon fill="#000000" stroke="#000000" points="517.7848,-1420.6834 509.7944,-1427.6407 520.3794,-1427.1848 517.7848,-1420.6834"/>
</g>
<!-- 7545&#45;&gt;6939 -->
<g id="edge50" class="edge">
<title>7545&#45;&gt;6939</title>
<path fill="none" stroke="#000000" d="M586.5431,-1418.6546C595.6811,-1429.8116 607.9436,-1444.7835 618.1676,-1457.2665"/>
<polygon fill="#000000" stroke="#000000" points="615.4944,-1459.5265 624.5385,-1465.0451 620.9099,-1455.091 615.4944,-1459.5265"/>
</g>
<!-- 9942 -->
<g id="node44" class="node">
<title>9942</title>
<ellipse fill="none" stroke="#000000" cx="628.2216" cy="-1425.1372" rx="28.6953" ry="18"/>
<text text-anchor="middle" x="628.2216" y="-1421.4372" font-family="Times,serif" font-size="14.00" fill="#000000">9942</text>
</g>
<!-- 7545&#45;&gt;9942 -->
<g id="edge51" class="edge">
<title>7545&#45;&gt;9942</title>
<path fill="none" stroke="#000000" d="M597.1638,-1412.2746C597.3087,-1412.3346 597.4537,-1412.3946 597.5987,-1412.4547"/>
<polygon fill="#000000" stroke="#000000" points="593.5728,-1414.5756 604.1511,-1415.1684 596.2513,-1408.1083 593.5728,-1414.5756"/>
</g>
<!-- 9002 -->
<g id="node41" class="node">
<title>9002</title>
<ellipse fill="none" stroke="#000000" cx="341.9338" cy="-1456.4815" rx="28.6953" ry="18"/>
<text text-anchor="middle" x="341.9338" y="-1452.7815" font-family="Times,serif" font-size="14.00" fill="#000000">9002</text>
</g>
<!-- 9443 -->
<g id="node42" class="node">
<title>9443</title>
<ellipse fill="none" stroke="#000000" cx="349.3246" cy="-1538.405" rx="28.6953" ry="18"/>
<text text-anchor="middle" x="349.3246" y="-1534.705" font-family="Times,serif" font-size="14.00" fill="#000000">9443</text>
</g>
<!-- 9443&#45;&gt;4826 -->
<g id="edge52" class="edge">
<title>9443&#45;&gt;4826</title>
<path fill="none" stroke="#000000" d="M331.1684,-1552.6483C325.825,-1556.84 319.8671,-1561.5139 314.1176,-1566.0243"/>
<polygon fill="#000000" stroke="#000000" points="311.6465,-1563.5143 305.9389,-1572.4404 315.9671,-1569.0219 311.6465,-1563.5143"/>
</g>
<!-- 9505&#45;&gt;7473 -->
<g id="edge53" class="edge">
<title>9505&#45;&gt;7473</title>
<path fill="none" stroke="#000000" d="M486.0307,-1073.0988C480.5927,-1073.8073 474.8127,-1074.5603 469.1187,-1075.3021"/>
<polygon fill="#000000" stroke="#000000" points="468.5188,-1071.8506 459.0548,-1076.6133 469.4232,-1078.792 468.5188,-1071.8506"/>
</g>
<!-- 12956 -->
<g id="node49" class="node">
<title>12956</title>
<ellipse fill="none" stroke="#000000" cx="856.2425" cy="-743.9166" rx="32.4942" ry="18"/>
<text text-anchor="middle" x="856.2425" y="-740.2166" font-family="Times,serif" font-size="14.00" fill="#000000">12956</text>
</g>
<!-- 10834&#45;&gt;12956 -->
<g id="edge54" class="edge">
<title>10834&#45;&gt;12956</title>
<path fill="none" stroke="#000000" d="M912.2585,-731.0795C907.1731,-732.245 901.8223,-733.4712 896.5279,-734.6845"/>
<polygon fill="#000000" stroke="#000000" points="895.4661,-731.337 886.5006,-736.9824 897.0298,-738.1601 895.4661,-731.337"/>
</g>
<!-- 22927 -->
<g id="node54" class="node">
<title>22927</title>
<ellipse fill="none" stroke="#000000" cx="962.8786" cy="-803.7738" rx="32.4942" ry="18"/>
<text text-anchor="middle" x="962.8786" y="-800.0738" font-family="Times,serif" font-size="14.00" fill="#000000">22927</text>
</g>
<!-- 10834&#45;&gt;22927 -->
<g id="edge55" class="edge">
<title>10834&#45;&gt;22927</title>
<path fill="none" stroke="#000000" d="M947.0377,-742.2371C949.6051,-752.2108 952.8489,-764.8116 955.7314,-776.0094"/>
<polygon fill="#000000" stroke="#000000" points="952.3649,-776.9713 958.2474,-785.7831 959.1439,-775.2262 952.3649,-776.9713"/>
</g>
<!-- 12189 -->
<g id="node47" class="node">
<title>12189</title>
<ellipse fill="none" stroke="#000000" cx="785.1852" cy="-1676.4811" rx="32.4942" ry="18"/>
<text text-anchor="middle" x="785.1852" y="-1672.7811" font-family="Times,serif" font-size="14.00" fill="#000000">12189</text>
</g>
<!-- 17819 -->
<g id="node51" class="node">
<title>17819</title>
<ellipse fill="none" stroke="#000000" cx="745.712" cy="-1751.3006" rx="32.4942" ry="18"/>
<text text-anchor="middle" x="745.712" y="-1747.6006" font-family="Times,serif" font-size="14.00" fill="#000000">17819</text>
</g>
<!-- 12189&#45;&gt;17819 -->
<g id="edge56" class="edge">
<title>12189&#45;&gt;17819</title>
<path fill="none" stroke="#000000" d="M776.03,-1693.8342C771.1825,-1703.0225 765.1259,-1714.5025 759.7032,-1724.781"/>
<polygon fill="#000000" stroke="#000000" points="756.5249,-1723.3046 754.9543,-1733.7824 762.7161,-1726.571 756.5249,-1723.3046"/>
</g>
<!-- 28666 -->
<g id="node57" class="node">
<title>28666</title>
<ellipse fill="none" stroke="#000000" cx="869.571" cy="-1677.841" rx="32.4942" ry="18"/>
<text text-anchor="middle" x="869.571" y="-1674.141" font-family="Times,serif" font-size="14.00" fill="#000000">28666</text>
</g>
<!-- 12189&#45;&gt;28666 -->
<g id="edge57" class="edge">
<title>12189&#45;&gt;28666</title>
<path fill="none" stroke="#000000" d="M818.0526,-1677.0107C820.9594,-1677.0576 823.9284,-1677.1054 826.9005,-1677.1533"/>
<polygon fill="#000000" stroke="#000000" points="826.8769,-1680.6533 836.9321,-1677.315 826.9898,-1673.6542 826.8769,-1680.6533"/>
</g>
<!-- 38930 -->
<g id="node64" class="node">
<title>38930</title>
<ellipse fill="none" stroke="#000000" cx="825.7224" cy="-1742.0784" rx="32.4942" ry="18"/>
<text text-anchor="middle" x="825.7224" y="-1738.3784" font-family="Times,serif" font-size="14.00" fill="#000000">38930</text>
</g>
<!-- 12189&#45;&gt;38930 -->
<g id="edge58" class="edge">
<title>12189&#45;&gt;38930</title>
<path fill="none" stroke="#000000" d="M795.8359,-1693.716C800.0847,-1700.5914 805.0676,-1708.6547 809.7334,-1716.205"/>
<polygon fill="#000000" stroke="#000000" points="806.7678,-1718.064 815.0022,-1724.7308 812.7225,-1714.3841 806.7678,-1718.064"/>
</g>
<!-- 20454 -->
<g id="node53" class="node">
<title>20454</title>
<ellipse fill="none" stroke="#000000" cx="741.2277" cy="-1607.864" rx="32.4942" ry="18"/>
<text text-anchor="middle" x="741.2277" y="-1604.164" font-family="Times,serif" font-size="14.00" fill="#000000">20454</text>
</g>
<!-- 12266&#45;&gt;20454 -->
<g id="edge59" class="edge">
<title>12266&#45;&gt;20454</title>
<path fill="none" stroke="#000000" d="M705.4754,-1560.7042C710.5581,-1567.4087 716.519,-1575.2715 722.1006,-1582.634"/>
<polygon fill="#000000" stroke="#000000" points="719.5729,-1585.0934 728.4034,-1590.9478 725.1511,-1580.8644 719.5729,-1585.0934"/>
</g>
<!-- 12956&#45;&gt;3356 -->
<g id="edge60" class="edge">
<title>12956&#45;&gt;3356</title>
<path fill="none" stroke="#000000" d="M828.2368,-753.3394C822.2628,-755.3494 815.8834,-757.4958 809.6893,-759.5799"/>
<polygon fill="#000000" stroke="#000000" points="808.5547,-756.2688 800.193,-762.775 810.787,-762.9033 808.5547,-756.2688"/>
</g>
<!-- 18540 -->
<g id="node52" class="node">
<title>18540</title>
<ellipse fill="none" stroke="#000000" cx="711.818" cy="-913.4284" rx="32.4942" ry="18"/>
<text text-anchor="middle" x="711.818" y="-909.7284" font-family="Times,serif" font-size="14.00" fill="#000000">18540</text>
</g>
<!-- 20454&#45;&gt;12189 -->
<g id="edge61" class="edge">
<title>20454&#45;&gt;12189</title>
<path fill="none" stroke="#000000" d="M752.3201,-1625.1789C757.3035,-1632.958 763.2858,-1642.2964 768.7727,-1650.8614"/>
<polygon fill="#000000" stroke="#000000" points="765.9073,-1652.8769 774.2487,-1659.4093 771.8015,-1649.1009 765.9073,-1652.8769"/>
</g>
<!-- 30070&#45;&gt;6904 -->
<g id="edge62" class="edge">
<title>30070&#45;&gt;6904</title>
<path fill="none" stroke="#000000" d="M647.3196,-903.0799C643.1999,-915.3818 637.6439,-931.9728 632.9645,-945.9462"/>
<polygon fill="#000000" stroke="#000000" points="629.6018,-944.9657 629.7451,-955.5596 636.2395,-947.1886 629.6018,-944.9657"/>
</g>
<!-- 30070&#45;&gt;7016 -->
<g id="edge63" class="edge">
<title>30070&#45;&gt;7016</title>
<path fill="none" stroke="#000000" d="M627.2868,-874.1528C625.6706,-873.4632 624.0333,-872.7646 622.3922,-872.0644"/>
<polygon fill="#000000" stroke="#000000" points="623.6443,-868.7934 613.073,-868.0881 620.8972,-875.2318 623.6443,-868.7934"/>
</g>
<!-- 30070&#45;&gt;18540 -->
<g id="edge64" class="edge">
<title>30070&#45;&gt;18540</title>
<path fill="none" stroke="#000000" d="M678.1118,-897.1991C678.2052,-897.2441 678.2988,-897.2891 678.3924,-897.3342"/>
<polygon fill="#000000" stroke="#000000" points="676.6174,-900.3641 687.1458,-901.5489 679.6542,-894.0571 676.6174,-900.3641"/>
</g>
<!-- 32787&#45;&gt;2764 -->
<g id="edge65" class="edge">
<title>32787&#45;&gt;2764</title>
<path fill="none" stroke="#000000" d="M610.0268,-1244.5473C608.7683,-1256.9215 607.0752,-1273.5682 605.6406,-1287.6742"/>
<polygon fill="#000000" stroke="#000000" points="602.1352,-1287.5501 604.6054,-1297.853 609.0993,-1288.2585 602.1352,-1287.5501"/>
</g>
<!-- 32787&#45;&gt;4637 -->
<g id="edge66" class="edge">
<title>32787&#45;&gt;4637</title>
<path fill="none" stroke="#000000" d="M644.335,-1228.2356C650.3942,-1228.5717 656.7824,-1228.926 663.0094,-1229.2714"/>
<polygon fill="#000000" stroke="#000000" points="663.072,-1232.7801 673.2505,-1229.8394 663.4597,-1225.7909 663.072,-1232.7801"/>
</g>
<!-- 32787&#45;&gt;7474 -->
<g id="edge67" class="edge">
<title>32787&#45;&gt;7474</title>
<path fill="none" stroke="#000000" d="M640.3008,-1217.2884C640.3874,-1217.2605 640.474,-1217.2327 640.5607,-1217.2048"/>
<polygon fill="#000000" stroke="#000000" points="636.0039,-1222.3475 644.4516,-1215.9531 633.8601,-1215.6839 636.0039,-1222.3475"/>
</g>
<!-- 38333&#45;&gt;1221 -->
<g id="edge68" class="edge">
<title>38333&#45;&gt;1221</title>
<path fill="none" stroke="#000000" d="M715.6659,-1341.9468C720.8442,-1343.2571 726.2842,-1344.6336 731.623,-1345.9845"/>
<polygon fill="#000000" stroke="#000000" points="731.1163,-1349.4666 741.6694,-1348.5267 732.8335,-1342.6805 731.1163,-1349.4666"/>
</g>
<!-- 38880&#45;&gt;6695 -->
<g id="edge69" class="edge">
<title>38880&#45;&gt;6695</title>
<path fill="none" stroke="#000000" d="M418.6634,-1506.2898C420.3804,-1516.1874 422.5451,-1528.6656 424.4777,-1539.806"/>
<polygon fill="#000000" stroke="#000000" points="421.0795,-1540.6946 426.2373,-1549.9491 427.9764,-1539.498 421.0795,-1540.6946"/>
</g>
<!-- 38880&#45;&gt;9002 -->
<g id="edge70" class="edge">
<title>38880&#45;&gt;9002</title>
<path fill="none" stroke="#000000" d="M389.7843,-1477.0937C385.0361,-1475.0484 380.0171,-1472.8864 375.0861,-1470.7623"/>
<polygon fill="#000000" stroke="#000000" points="376.3755,-1467.5069 365.8067,-1466.765 373.6062,-1473.9358 376.3755,-1467.5069"/>
</g>
<!-- 38880&#45;&gt;9443 -->
<g id="edge71" class="edge">
<title>38880&#45;&gt;9443</title>
<path fill="none" stroke="#000000" d="M396.0185,-1502.9779C389.7973,-1507.698 382.8005,-1513.0066 376.1538,-1518.0495"/>
<polygon fill="#000000" stroke="#000000" points="373.8577,-1515.3982 368.0066,-1524.2308 378.0887,-1520.9748 373.8577,-1515.3982"/>
</g>
</g>
</svg>
