<?xml version="1.0" encoding="UTF-8" standalone="no"?>
<!DOCTYPE svg PUBLIC "-//W3C//DTD SVG 1.1//EN"
 "http://www.w3.org/Graphics/SVG/1.1/DTD/svg11.dtd">
<!-- Generated by graphviz version 2.40.1 (20161225.0304)
 -->
<!-- Title: %3 Pages: 1 -->
<svg width="1720pt" height="3217pt"
 viewBox="0.00 0.00 1720.00 3217.00" xmlns="http://www.w3.org/2000/svg" xmlns:xlink="http://www.w3.org/1999/xlink">
<g id="graph0" class="graph" transform="scale(1 1) rotate(0) translate(4 3213)">
<title>%3</title>
<polygon fill="#ffffff" stroke="transparent" points="-4,4 -4,-3213 1716,-3213 1716,4 -4,4"/>
<!-- 174 -->
<g id="node1" class="node">
<title>174</title>
<ellipse fill="none" stroke="#000000" cx="320.1879" cy="-1204.5668" rx="27" ry="18"/>
<text text-anchor="middle" x="320.1879" y="-1200.8668" font-family="Times,serif" font-size="14.00" fill="#000000">174</text>
</g>
<!-- 209 -->
<g id="node2" class="node">
<title>209</title>
<ellipse fill="none" stroke="#000000" cx="282.663" cy="-967.3018" rx="27" ry="18"/>
<text text-anchor="middle" x="282.663" y="-963.6018" font-family="Times,serif" font-size="14.00" fill="#000000">209</text>
</g>
<!-- 174&#45;&gt;209 -->
<g id="edge1" class="edge">
<title>174&#45;&gt;209</title>
<path fill="none" stroke="#000000" d="M317.3057,-1186.343C310.7823,-1145.0963 294.8512,-1044.3661 287.0764,-995.2072"/>
<polygon fill="#000000" stroke="#000000" points="290.5229,-994.5934 285.5037,-985.2629 283.6089,-995.6869 290.5229,-994.5934"/>
</g>
<!-- 1299 -->
<g id="node8" class="node">
<title>1299</title>
<ellipse fill="none" stroke="#000000" cx="264.5925" cy="-772.7506" rx="28.6953" ry="18"/>
<text text-anchor="middle" x="264.5925" y="-769.0506" font-family="Times,serif" font-size="14.00" fill="#000000">1299</text>
</g>
<!-- 209&#45;&gt;1299 -->
<g id="edge2" class="edge">
<title>209&#45;&gt;1299</title>
<path fill="none" stroke="#000000" d="M280.963,-948.9989C277.7934,-914.8739 270.9629,-841.3351 267.2042,-800.8678"/>
<polygon fill="#000000" stroke="#000000" points="270.6848,-800.4966 266.2749,-790.8632 263.7148,-801.144 270.6848,-800.4966"/>
</g>
<!-- 2828 -->
<g id="node14" class="node">
<title>2828</title>
<ellipse fill="none" stroke="#000000" cx="203.9097" cy="-869.8355" rx="28.6953" ry="18"/>
<text text-anchor="middle" x="203.9097" y="-866.1355" font-family="Times,serif" font-size="14.00" fill="#000000">2828</text>
</g>
<!-- 209&#45;&gt;2828 -->
<g id="edge3" class="edge">
<title>209&#45;&gt;2828</title>
<path fill="none" stroke="#000000" d="M269.6585,-951.2072C257.1187,-935.6878 237.9751,-911.9954 223.573,-894.1712"/>
<polygon fill="#000000" stroke="#000000" points="225.9408,-891.5325 216.9335,-885.954 220.496,-895.932 225.9408,-891.5325"/>
</g>
<!-- 701 -->
<g id="node3" class="node">
<title>701</title>
<ellipse fill="none" stroke="#000000" cx="226.931" cy="-182.1085" rx="27" ry="18"/>
<text text-anchor="middle" x="226.931" y="-178.4085" font-family="Times,serif" font-size="14.00" fill="#000000">701</text>
</g>
<!-- 703 -->
<g id="node4" class="node">
<title>703</title>
<ellipse fill="none" stroke="#000000" cx="135.745" cy="-79.931" rx="27" ry="18"/>
<text text-anchor="middle" x="135.745" y="-76.231" font-family="Times,serif" font-size="14.00" fill="#000000">703</text>
</g>
<!-- 701&#45;&gt;703 -->
<g id="edge4" class="edge">
<title>701&#45;&gt;703</title>
<path fill="none" stroke="#000000" d="M213.0818,-166.59C198.0183,-149.7108 173.7773,-122.5478 156.4505,-103.1323"/>
<polygon fill="#000000" stroke="#000000" points="158.9943,-100.7262 149.7245,-95.5957 153.7716,-105.3871 158.9943,-100.7262"/>
</g>
<!-- 1239 -->
<g id="node6" class="node">
<title>1239</title>
<ellipse fill="none" stroke="#000000" cx="289.9225" cy="-35.7217" rx="28.6953" ry="18"/>
<text text-anchor="middle" x="289.9225" y="-32.0217" font-family="Times,serif" font-size="14.00" fill="#000000">1239</text>
</g>
<!-- 701&#45;&gt;1239 -->
<g id="edge5" class="edge">
<title>701&#45;&gt;1239</title>
<path fill="none" stroke="#000000" d="M234.4043,-164.7412C245.2377,-139.5652 265.4069,-92.6939 278.2224,-62.9118"/>
<polygon fill="#000000" stroke="#000000" points="281.5247,-64.0921 282.2625,-53.523 275.0948,-61.3252 281.5247,-64.0921"/>
</g>
<!-- 1273 -->
<g id="node7" class="node">
<title>1273</title>
<ellipse fill="none" stroke="#000000" cx="345.3427" cy="-84.1863" rx="28.6953" ry="18"/>
<text text-anchor="middle" x="345.3427" y="-80.4863" font-family="Times,serif" font-size="14.00" fill="#000000">1273</text>
</g>
<!-- 701&#45;&gt;1273 -->
<g id="edge6" class="edge">
<title>701&#45;&gt;1273</title>
<path fill="none" stroke="#000000" d="M243.8965,-168.0787C263.7167,-151.6881 296.7151,-124.3996 319.6739,-105.4134"/>
<polygon fill="#000000" stroke="#000000" points="322.1594,-107.8998 327.6352,-98.8297 317.6984,-102.5054 322.1594,-107.8998"/>
</g>
<!-- 3320 -->
<g id="node17" class="node">
<title>3320</title>
<ellipse fill="none" stroke="#000000" cx="215.5676" cy="-18.3031" rx="28.6953" ry="18"/>
<text text-anchor="middle" x="215.5676" y="-14.6031" font-family="Times,serif" font-size="14.00" fill="#000000">3320</text>
</g>
<!-- 701&#45;&gt;3320 -->
<g id="edge7" class="edge">
<title>701&#45;&gt;3320</title>
<path fill="none" stroke="#000000" d="M225.6715,-163.9526C223.7005,-135.5407 219.8715,-80.3446 217.5347,-46.6599"/>
<polygon fill="#000000" stroke="#000000" points="221.0165,-46.2741 216.8327,-36.5403 214.0333,-46.7586 221.0165,-46.2741"/>
</g>
<!-- 5511 -->
<g id="node27" class="node">
<title>5511</title>
<ellipse fill="none" stroke="#000000" cx="104.1081" cy="-125.3647" rx="28.6953" ry="18"/>
<text text-anchor="middle" x="104.1081" y="-121.6647" font-family="Times,serif" font-size="14.00" fill="#000000">5511</text>
</g>
<!-- 701&#45;&gt;5511 -->
<g id="edge8" class="edge">
<title>701&#45;&gt;5511</title>
<path fill="none" stroke="#000000" d="M204.6887,-171.8326C185.6598,-163.0413 158.0196,-150.2717 136.5277,-140.3424"/>
<polygon fill="#000000" stroke="#000000" points="137.9841,-137.1599 127.4381,-136.1431 135.0482,-143.5145 137.9841,-137.1599"/>
</g>
<!-- 7018 -->
<g id="node36" class="node">
<title>7018</title>
<ellipse fill="none" stroke="#000000" cx="358.2912" cy="-148.5724" rx="28.6953" ry="18"/>
<text text-anchor="middle" x="358.2912" y="-144.8724" font-family="Times,serif" font-size="14.00" fill="#000000">7018</text>
</g>
<!-- 701&#45;&gt;7018 -->
<g id="edge9" class="edge">
<title>701&#45;&gt;7018</title>
<path fill="none" stroke="#000000" d="M252.2585,-175.6424C272.0422,-170.5917 299.8008,-163.505 321.9537,-157.8494"/>
<polygon fill="#000000" stroke="#000000" points="322.8653,-161.229 331.6887,-155.364 321.1337,-154.4465 322.8653,-161.229"/>
</g>
<!-- 1221 -->
<g id="node5" class="node">
<title>1221</title>
<ellipse fill="none" stroke="#000000" cx="1214.7017" cy="-1541.2989" rx="28.6953" ry="18"/>
<text text-anchor="middle" x="1214.7017" y="-1537.5989" font-family="Times,serif" font-size="14.00" fill="#000000">1221</text>
</g>
<!-- 6461 -->
<g id="node30" class="node">
<title>6461</title>
<ellipse fill="none" stroke="#000000" cx="245.1073" cy="-574.2176" rx="28.6953" ry="18"/>
<text text-anchor="middle" x="245.1073" y="-570.5176" font-family="Times,serif" font-size="14.00" fill="#000000">6461</text>
</g>
<!-- 1299&#45;&gt;6461 -->
<g id="edge10" class="edge">
<title>1299&#45;&gt;6461</title>
<path fill="none" stroke="#000000" d="M262.829,-754.782C259.4249,-720.0982 251.9265,-643.698 247.8599,-602.2637"/>
<polygon fill="#000000" stroke="#000000" points="251.341,-601.899 246.8809,-592.2887 244.3745,-602.5828 251.341,-601.899"/>
</g>
<!-- 2497 -->
<g id="node9" class="node">
<title>2497</title>
<ellipse fill="none" stroke="#000000" cx="237.4885" cy="-369.5619" rx="28.6953" ry="18"/>
<text text-anchor="middle" x="237.4885" y="-365.8619" font-family="Times,serif" font-size="14.00" fill="#000000">2497</text>
</g>
<!-- 2497&#45;&gt;701 -->
<g id="edge11" class="edge">
<title>2497&#45;&gt;701</title>
<path fill="none" stroke="#000000" d="M236.4569,-351.2468C234.6073,-318.4055 230.7153,-249.3021 228.5217,-210.3529"/>
<polygon fill="#000000" stroke="#000000" points="232.008,-210.0093 227.9511,-200.222 225.0191,-210.403 232.008,-210.0093"/>
</g>
<!-- 2516 -->
<g id="node10" class="node">
<title>2516</title>
<ellipse fill="none" stroke="#000000" cx="649.2072" cy="-1935.7955" rx="28.6953" ry="18"/>
<text text-anchor="middle" x="649.2072" y="-1932.0955" font-family="Times,serif" font-size="14.00" fill="#000000">2516</text>
</g>
<!-- 32787 -->
<g id="node59" class="node">
<title>32787</title>
<ellipse fill="none" stroke="#000000" cx="791.1193" cy="-1757.9359" rx="32.4942" ry="18"/>
<text text-anchor="middle" x="791.1193" y="-1754.2359" font-family="Times,serif" font-size="14.00" fill="#000000">32787</text>
</g>
<!-- 2516&#45;&gt;32787 -->
<g id="edge12" class="edge">
<title>2516&#45;&gt;32787</title>
<path fill="none" stroke="#000000" d="M662.0513,-1919.698C686.875,-1888.5862 741.5937,-1820.0068 771.1849,-1782.9198"/>
<polygon fill="#000000" stroke="#000000" points="774.2879,-1784.6426 777.789,-1774.6429 768.8162,-1780.2767 774.2879,-1784.6426"/>
</g>
<!-- 2686 -->
<g id="node11" class="node">
<title>2686</title>
<ellipse fill="none" stroke="#000000" cx="371.3227" cy="-2219.6259" rx="28.6953" ry="18"/>
<text text-anchor="middle" x="371.3227" y="-2215.9259" font-family="Times,serif" font-size="14.00" fill="#000000">2686</text>
</g>
<!-- 3741 -->
<g id="node22" class="node">
<title>3741</title>
<ellipse fill="none" stroke="#000000" cx="245.366" cy="-2301.6144" rx="28.6953" ry="18"/>
<text text-anchor="middle" x="245.366" y="-2297.9144" font-family="Times,serif" font-size="14.00" fill="#000000">3741</text>
</g>
<!-- 2686&#45;&gt;3741 -->
<g id="edge13" class="edge">
<title>2686&#45;&gt;3741</title>
<path fill="none" stroke="#000000" d="M351.3645,-2232.6172C330.5742,-2246.1502 297.8024,-2267.4822 274.2005,-2282.8453"/>
<polygon fill="#000000" stroke="#000000" points="272.1194,-2280.0237 265.6479,-2288.4124 275.9382,-2285.8903 272.1194,-2280.0237"/>
</g>
<!-- 2687 -->
<g id="node12" class="node">
<title>2687</title>
<ellipse fill="none" stroke="#000000" cx="526.127" cy="-2101.2448" rx="28.6953" ry="18"/>
<text text-anchor="middle" x="526.127" y="-2097.5448" font-family="Times,serif" font-size="14.00" fill="#000000">2687</text>
</g>
<!-- 2687&#45;&gt;2516 -->
<g id="edge14" class="edge">
<title>2687&#45;&gt;2516</title>
<path fill="none" stroke="#000000" d="M538.3784,-2084.776C560.1273,-2055.5403 605.5787,-1994.4427 631.0004,-1960.2698"/>
<polygon fill="#000000" stroke="#000000" points="633.8448,-1962.3102 637.0054,-1952.1977 628.2285,-1958.132 633.8448,-1962.3102"/>
</g>
<!-- 2687&#45;&gt;2686 -->
<g id="edge15" class="edge">
<title>2687&#45;&gt;2686</title>
<path fill="none" stroke="#000000" d="M507.761,-2115.2895C480.5279,-2136.115 429.2896,-2175.2977 397.9424,-2199.2694"/>
<polygon fill="#000000" stroke="#000000" points="395.4823,-2196.7446 389.6648,-2205.5994 399.7345,-2202.3051 395.4823,-2196.7446"/>
</g>
<!-- 9505 -->
<g id="node43" class="node">
<title>9505</title>
<ellipse fill="none" stroke="#000000" cx="352.0657" cy="-2116.9996" rx="28.6953" ry="18"/>
<text text-anchor="middle" x="352.0657" y="-2113.2996" font-family="Times,serif" font-size="14.00" fill="#000000">9505</text>
</g>
<!-- 2687&#45;&gt;9505 -->
<g id="edge16" class="edge">
<title>2687&#45;&gt;9505</title>
<path fill="none" stroke="#000000" d="M497.7737,-2103.8111C468.5668,-2106.4547 422.8568,-2110.5921 390.4304,-2113.5271"/>
<polygon fill="#000000" stroke="#000000" points="390.0507,-2110.0471 380.4069,-2114.4344 390.6817,-2117.0186 390.0507,-2110.0471"/>
</g>
<!-- 2764 -->
<g id="node13" class="node">
<title>2764</title>
<ellipse fill="none" stroke="#000000" cx="904.388" cy="-1540.4187" rx="28.6953" ry="18"/>
<text text-anchor="middle" x="904.388" y="-1536.7187" font-family="Times,serif" font-size="14.00" fill="#000000">2764</text>
</g>
<!-- 7545 -->
<g id="node39" class="node">
<title>7545</title>
<ellipse fill="none" stroke="#000000" cx="922.834" cy="-1344.7621" rx="28.6953" ry="18"/>
<text text-anchor="middle" x="922.834" y="-1341.0621" font-family="Times,serif" font-size="14.00" fill="#000000">7545</text>
</g>
<!-- 2764&#45;&gt;7545 -->
<g id="edge17" class="edge">
<title>2764&#45;&gt;7545</title>
<path fill="none" stroke="#000000" d="M906.0903,-1522.3625C909.316,-1488.1467 916.3397,-1413.6472 920.1858,-1372.8512"/>
<polygon fill="#000000" stroke="#000000" points="923.6816,-1373.0591 921.1358,-1362.7747 916.7125,-1372.402 923.6816,-1373.0591"/>
</g>
<!-- 38333 -->
<g id="node61" class="node">
<title>38333</title>
<ellipse fill="none" stroke="#000000" cx="1055.7751" cy="-1537.0748" rx="32.4942" ry="18"/>
<text text-anchor="middle" x="1055.7751" y="-1533.3748" font-family="Times,serif" font-size="14.00" fill="#000000">38333</text>
</g>
<!-- 2764&#45;&gt;38333 -->
<g id="edge18" class="edge">
<title>2764&#45;&gt;38333</title>
<path fill="none" stroke="#000000" d="M933.2191,-1539.7818C955.7636,-1539.2839 987.452,-1538.5839 1012.9585,-1538.0205"/>
<polygon fill="#000000" stroke="#000000" points="1013.1888,-1541.5164 1023.1091,-1537.7963 1013.0342,-1534.5181 1013.1888,-1541.5164"/>
</g>
<!-- 38561 -->
<g id="node62" class="node">
<title>38561</title>
<ellipse fill="none" stroke="#000000" cx="1012.7948" cy="-1608.6853" rx="32.4942" ry="18"/>
<text text-anchor="middle" x="1012.7948" y="-1604.9853" font-family="Times,serif" font-size="14.00" fill="#000000">38561</text>
</g>
<!-- 2764&#45;&gt;38561 -->
<g id="edge19" class="edge">
<title>2764&#45;&gt;38561</title>
<path fill="none" stroke="#000000" d="M924.7785,-1553.2591C941.0127,-1563.4822 963.9846,-1577.9483 982.3892,-1589.5381"/>
<polygon fill="#000000" stroke="#000000" points="980.6808,-1592.5984 991.0078,-1594.9655 984.4109,-1586.675 980.6808,-1592.5984"/>
</g>
<!-- 2914 -->
<g id="node15" class="node">
<title>2914</title>
<ellipse fill="none" stroke="#000000" cx="627.8215" cy="-2036.2349" rx="28.6953" ry="18"/>
<text text-anchor="middle" x="627.8215" y="-2032.5349" font-family="Times,serif" font-size="14.00" fill="#000000">2914</text>
</g>
<!-- 6453 -->
<g id="node29" class="node">
<title>6453</title>
<ellipse fill="none" stroke="#000000" cx="514.8632" cy="-1810.7998" rx="28.6953" ry="18"/>
<text text-anchor="middle" x="514.8632" y="-1807.0998" font-family="Times,serif" font-size="14.00" fill="#000000">6453</text>
</g>
<!-- 2914&#45;&gt;6453 -->
<g id="edge20" class="edge">
<title>2914&#45;&gt;6453</title>
<path fill="none" stroke="#000000" d="M619.1454,-2018.9197C599.5155,-1979.7436 551.5869,-1884.0906 528.1738,-1837.3643"/>
<polygon fill="#000000" stroke="#000000" points="531.1778,-1835.5465 523.5689,-1828.174 524.9195,-1838.6824 531.1778,-1835.5465"/>
</g>
<!-- 3257 -->
<g id="node16" class="node">
<title>3257</title>
<ellipse fill="none" stroke="#000000" cx="435.9923" cy="-1623.2247" rx="28.6953" ry="18"/>
<text text-anchor="middle" x="435.9923" y="-1619.5247" font-family="Times,serif" font-size="14.00" fill="#000000">3257</text>
</g>
<!-- 3491 -->
<g id="node19" class="node">
<title>3491</title>
<ellipse fill="none" stroke="#000000" cx="364.3955" cy="-1399.272" rx="28.6953" ry="18"/>
<text text-anchor="middle" x="364.3955" y="-1395.572" font-family="Times,serif" font-size="14.00" fill="#000000">3491</text>
</g>
<!-- 3257&#45;&gt;3491 -->
<g id="edge21" class="edge">
<title>3257&#45;&gt;3491</title>
<path fill="none" stroke="#000000" d="M430.2543,-1605.2763C417.7601,-1566.195 388.0253,-1473.1852 373.1642,-1426.7003"/>
<polygon fill="#000000" stroke="#000000" points="376.4405,-1425.4543 370.0615,-1416.9951 369.7729,-1427.586 376.4405,-1425.4543"/>
</g>
<!-- 3356 -->
<g id="node18" class="node">
<title>3356</title>
<ellipse fill="none" stroke="#000000" cx="973.3367" cy="-2572.9074" rx="28.6953" ry="18"/>
<text text-anchor="middle" x="973.3367" y="-2569.2074" font-family="Times,serif" font-size="14.00" fill="#000000">3356</text>
</g>
<!-- 3549 -->
<g id="node20" class="node">
<title>3549</title>
<ellipse fill="none" stroke="#000000" cx="823.8313" cy="-2427.4488" rx="28.6953" ry="18"/>
<text text-anchor="middle" x="823.8313" y="-2423.7488" font-family="Times,serif" font-size="14.00" fill="#000000">3549</text>
</g>
<!-- 3356&#45;&gt;3549 -->
<g id="edge22" class="edge">
<title>3356&#45;&gt;3549</title>
<path fill="none" stroke="#000000" d="M957.6195,-2557.6157C931.2182,-2531.929 877.8428,-2479.9983 847.089,-2450.077"/>
<polygon fill="#000000" stroke="#000000" points="849.3959,-2447.4382 839.7878,-2442.9734 844.5145,-2452.4554 849.3959,-2447.4382"/>
</g>
<!-- 3491&#45;&gt;174 -->
<g id="edge23" class="edge">
<title>3491&#45;&gt;174</title>
<path fill="none" stroke="#000000" d="M360.3158,-1381.3036C352.5685,-1347.1818 335.6805,-1272.8013 326.4757,-1232.2607"/>
<polygon fill="#000000" stroke="#000000" points="329.8851,-1231.4686 324.2577,-1222.4918 323.0588,-1233.0186 329.8851,-1231.4686"/>
</g>
<!-- 6762 -->
<g id="node32" class="node">
<title>6762</title>
<ellipse fill="none" stroke="#000000" cx="722.8649" cy="-2215.7862" rx="28.6953" ry="18"/>
<text text-anchor="middle" x="722.8649" y="-2212.0862" font-family="Times,serif" font-size="14.00" fill="#000000">6762</text>
</g>
<!-- 3549&#45;&gt;6762 -->
<g id="edge24" class="edge">
<title>3549&#45;&gt;6762</title>
<path fill="none" stroke="#000000" d="M815.5688,-2410.1275C797.9232,-2373.1359 756.4613,-2286.2166 735.4879,-2242.2486"/>
<polygon fill="#000000" stroke="#000000" points="738.5644,-2240.5688 731.0999,-2233.0499 732.2464,-2243.5826 738.5644,-2240.5688"/>
</g>
<!-- 30070 -->
<g id="node58" class="node">
<title>30070</title>
<ellipse fill="none" stroke="#000000" cx="644.2915" cy="-2442.6556" rx="32.4942" ry="18"/>
<text text-anchor="middle" x="644.2915" y="-2438.9556" font-family="Times,serif" font-size="14.00" fill="#000000">30070</text>
</g>
<!-- 3549&#45;&gt;30070 -->
<g id="edge25" class="edge">
<title>3549&#45;&gt;30070</title>
<path fill="none" stroke="#000000" d="M795.3826,-2429.8583C766.0809,-2432.3402 720.0823,-2436.2362 686.5313,-2439.0779"/>
<polygon fill="#000000" stroke="#000000" points="686.2197,-2435.5917 676.5508,-2439.9233 686.8105,-2442.5667 686.2197,-2435.5917"/>
</g>
<!-- 3597 -->
<g id="node21" class="node">
<title>3597</title>
<ellipse fill="none" stroke="#000000" cx="1405.9799" cy="-3094.9744" rx="28.6953" ry="18"/>
<text text-anchor="middle" x="1405.9799" y="-3091.2744" font-family="Times,serif" font-size="14.00" fill="#000000">3597</text>
</g>
<!-- 37179 -->
<g id="node60" class="node">
<title>37179</title>
<ellipse fill="none" stroke="#000000" cx="101.7166" cy="-2389.1702" rx="32.4942" ry="18"/>
<text text-anchor="middle" x="101.7166" y="-2385.4702" font-family="Times,serif" font-size="14.00" fill="#000000">37179</text>
</g>
<!-- 3741&#45;&gt;37179 -->
<g id="edge26" class="edge">
<title>3741&#45;&gt;37179</title>
<path fill="none" stroke="#000000" d="M224.7845,-2314.159C200.5636,-2328.922 160.1203,-2353.5726 132.2453,-2370.5627"/>
<polygon fill="#000000" stroke="#000000" points="130.3904,-2367.5943 123.6731,-2375.7875 134.0336,-2373.5715 130.3904,-2367.5943"/>
</g>
<!-- 4635 -->
<g id="node23" class="node">
<title>4635</title>
<ellipse fill="none" stroke="#000000" cx="1049.4976" cy="-1295.7787" rx="28.6953" ry="18"/>
<text text-anchor="middle" x="1049.4976" y="-1292.0787" font-family="Times,serif" font-size="14.00" fill="#000000">4635</text>
</g>
<!-- 4637 -->
<g id="node24" class="node">
<title>4637</title>
<ellipse fill="none" stroke="#000000" cx="861.0081" cy="-1855.7857" rx="28.6953" ry="18"/>
<text text-anchor="middle" x="861.0081" y="-1852.0857" font-family="Times,serif" font-size="14.00" fill="#000000">4637</text>
</g>
<!-- 4739 -->
<g id="node25" class="node">
<title>4739</title>
<ellipse fill="none" stroke="#000000" cx="1084.2175" cy="-1196.0551" rx="28.6953" ry="18"/>
<text text-anchor="middle" x="1084.2175" y="-1192.3551" font-family="Times,serif" font-size="14.00" fill="#000000">4739</text>
</g>
<!-- 38880 -->
<g id="node63" class="node">
<title>38880</title>
<ellipse fill="none" stroke="#000000" cx="1219.3725" cy="-1082.9559" rx="32.4942" ry="18"/>
<text text-anchor="middle" x="1219.3725" y="-1079.2559" font-family="Times,serif" font-size="14.00" fill="#000000">38880</text>
</g>
<!-- 4739&#45;&gt;38880 -->
<g id="edge27" class="edge">
<title>4739&#45;&gt;38880</title>
<path fill="none" stroke="#000000" d="M1101.61,-1181.5009C1124.8701,-1162.0366 1166.3026,-1127.3653 1193.304,-1104.7703"/>
<polygon fill="#000000" stroke="#000000" points="1195.7615,-1107.2777 1201.1844,-1098.1759 1191.2691,-1101.9093 1195.7615,-1107.2777"/>
</g>
<!-- 4826 -->
<g id="node26" class="node">
<title>4826</title>
<ellipse fill="none" stroke="#000000" cx="1522.317" cy="-915.4335" rx="28.6953" ry="18"/>
<text text-anchor="middle" x="1522.317" y="-911.7335" font-family="Times,serif" font-size="14.00" fill="#000000">4826</text>
</g>
<!-- 15412 -->
<g id="node50" class="node">
<title>15412</title>
<ellipse fill="none" stroke="#000000" cx="1656.4336" cy="-819.6201" rx="32.4942" ry="18"/>
<text text-anchor="middle" x="1656.4336" y="-815.9201" font-family="Times,serif" font-size="14.00" fill="#000000">15412</text>
</g>
<!-- 4826&#45;&gt;15412 -->
<g id="edge28" class="edge">
<title>4826&#45;&gt;15412</title>
<path fill="none" stroke="#000000" d="M1541.2482,-901.909C1563.8238,-885.7809 1601.7803,-858.6646 1627.9144,-839.9943"/>
<polygon fill="#000000" stroke="#000000" points="1630.1824,-842.6755 1636.2847,-834.0145 1626.1132,-836.9797 1630.1824,-842.6755"/>
</g>
<!-- 5692 -->
<g id="node28" class="node">
<title>5692</title>
<ellipse fill="none" stroke="#000000" cx="1508.2393" cy="-3025.0209" rx="28.6953" ry="18"/>
<text text-anchor="middle" x="1508.2393" y="-3021.3209" font-family="Times,serif" font-size="14.00" fill="#000000">5692</text>
</g>
<!-- 5692&#45;&gt;3597 -->
<g id="edge29" class="edge">
<title>5692&#45;&gt;3597</title>
<path fill="none" stroke="#000000" d="M1488.5226,-3038.5086C1473.1027,-3049.0571 1451.4592,-3063.863 1434.2035,-3075.6673"/>
<polygon fill="#000000" stroke="#000000" points="1431.9135,-3072.9932 1425.636,-3081.5281 1435.8658,-3078.7707 1431.9135,-3072.9932"/>
</g>
<!-- 10834 -->
<g id="node45" class="node">
<title>10834</title>
<ellipse fill="none" stroke="#000000" cx="1318.4121" cy="-2897.9579" rx="32.4942" ry="18"/>
<text text-anchor="middle" x="1318.4121" y="-2894.2579" font-family="Times,serif" font-size="14.00" fill="#000000">10834</text>
</g>
<!-- 5692&#45;&gt;10834 -->
<g id="edge30" class="edge">
<title>5692&#45;&gt;10834</title>
<path fill="none" stroke="#000000" d="M1488.6394,-3011.9015C1455.1739,-2989.501 1386.8452,-2943.7643 1347.6976,-2917.5605"/>
<polygon fill="#000000" stroke="#000000" points="1349.6009,-2914.6228 1339.3439,-2911.9688 1345.7072,-2920.4399 1349.6009,-2914.6228"/>
</g>
<!-- 11008 -->
<g id="node46" class="node">
<title>11008</title>
<ellipse fill="none" stroke="#000000" cx="1673.0026" cy="-3110.8963" rx="32.4942" ry="18"/>
<text text-anchor="middle" x="1673.0026" y="-3107.1963" font-family="Times,serif" font-size="14.00" fill="#000000">11008</text>
</g>
<!-- 5692&#45;&gt;11008 -->
<g id="edge31" class="edge">
<title>5692&#45;&gt;11008</title>
<path fill="none" stroke="#000000" d="M1530.46,-3036.6024C1558.6812,-3051.3114 1607.6131,-3076.815 1640.1506,-3093.7737"/>
<polygon fill="#000000" stroke="#000000" points="1638.7858,-3097.0092 1649.2713,-3098.5275 1642.0212,-3090.8017 1638.7858,-3097.0092"/>
</g>
<!-- 27865 -->
<g id="node55" class="node">
<title>27865</title>
<ellipse fill="none" stroke="#000000" cx="1669.8116" cy="-2947.1188" rx="32.4942" ry="18"/>
<text text-anchor="middle" x="1669.8116" y="-2943.4188" font-family="Times,serif" font-size="14.00" fill="#000000">27865</text>
</g>
<!-- 5692&#45;&gt;27865 -->
<g id="edge32" class="edge">
<title>5692&#45;&gt;27865</title>
<path fill="none" stroke="#000000" d="M1531.046,-3014.0246C1558.4007,-3000.8355 1604.5007,-2978.6084 1636.0001,-2963.421"/>
<polygon fill="#000000" stroke="#000000" points="1637.7826,-2966.4473 1645.2701,-2958.9515 1634.7424,-2960.1419 1637.7826,-2966.4473"/>
</g>
<!-- 28065 -->
<g id="node56" class="node">
<title>28065</title>
<ellipse fill="none" stroke="#000000" cx="1658.8162" cy="-2996.3314" rx="32.4942" ry="18"/>
<text text-anchor="middle" x="1658.8162" y="-2992.6314" font-family="Times,serif" font-size="14.00" fill="#000000">28065</text>
</g>
<!-- 5692&#45;&gt;28065 -->
<g id="edge33" class="edge">
<title>5692&#45;&gt;28065</title>
<path fill="none" stroke="#000000" d="M1535.8574,-3019.7588C1558.8681,-3015.3745 1591.9712,-3009.0674 1618.0344,-3004.1016"/>
<polygon fill="#000000" stroke="#000000" points="1618.8331,-3007.5124 1628.0013,-3002.2026 1617.5229,-3000.6361 1618.8331,-3007.5124"/>
</g>
<!-- 52317 -->
<g id="node65" class="node">
<title>52317</title>
<ellipse fill="none" stroke="#000000" cx="1528.0808" cy="-3190.7663" rx="32.4942" ry="18"/>
<text text-anchor="middle" x="1528.0808" y="-3187.0663" font-family="Times,serif" font-size="14.00" fill="#000000">52317</text>
</g>
<!-- 5692&#45;&gt;52317 -->
<g id="edge34" class="edge">
<title>5692&#45;&gt;52317</title>
<path fill="none" stroke="#000000" d="M1510.4004,-3043.074C1513.8444,-3071.8431 1520.6053,-3128.3197 1524.6957,-3162.4888"/>
<polygon fill="#000000" stroke="#000000" points="1521.2584,-3163.2223 1525.9223,-3172.7354 1528.2088,-3162.3902 1521.2584,-3163.2223"/>
</g>
<!-- 52375 -->
<g id="node66" class="node">
<title>52375</title>
<ellipse fill="none" stroke="#000000" cx="1577.0017" cy="-2894.6223" rx="32.4942" ry="18"/>
<text text-anchor="middle" x="1577.0017" y="-2890.9223" font-family="Times,serif" font-size="14.00" fill="#000000">52375</text>
</g>
<!-- 5692&#45;&gt;52375 -->
<g id="edge35" class="edge">
<title>5692&#45;&gt;52375</title>
<path fill="none" stroke="#000000" d="M1517.3704,-3007.7049C1529.0837,-2985.4923 1549.5113,-2946.7541 1563.1457,-2920.8983"/>
<polygon fill="#000000" stroke="#000000" points="1566.2642,-2922.4879 1567.8328,-2912.0099 1560.0724,-2919.2228 1566.2642,-2922.4879"/>
</g>
<!-- 52376 -->
<g id="node67" class="node">
<title>52376</title>
<ellipse fill="none" stroke="#000000" cx="1679.8889" cy="-3056.6756" rx="32.4942" ry="18"/>
<text text-anchor="middle" x="1679.8889" y="-3052.9756" font-family="Times,serif" font-size="14.00" fill="#000000">52376</text>
</g>
<!-- 5692&#45;&gt;52376 -->
<g id="edge36" class="edge">
<title>5692&#45;&gt;52376</title>
<path fill="none" stroke="#000000" d="M1535.8178,-3030.1067C1563.6952,-3035.2477 1607.0965,-3043.2516 1638.9813,-3049.1316"/>
<polygon fill="#000000" stroke="#000000" points="1638.4256,-3052.5881 1648.8946,-3050.9598 1639.6952,-3045.7041 1638.4256,-3052.5881"/>
</g>
<!-- 52380 -->
<g id="node68" class="node">
<title>52380</title>
<ellipse fill="none" stroke="#000000" cx="1607.6658" cy="-3172.7155" rx="32.4942" ry="18"/>
<text text-anchor="middle" x="1607.6658" y="-3169.0155" font-family="Times,serif" font-size="14.00" fill="#000000">52380</text>
</g>
<!-- 5692&#45;&gt;52380 -->
<g id="edge37" class="edge">
<title>5692&#45;&gt;52380</title>
<path fill="none" stroke="#000000" d="M1519.4515,-3041.6762C1536.739,-3067.3563 1570.0315,-3116.8111 1590.4062,-3147.0769"/>
<polygon fill="#000000" stroke="#000000" points="1587.5465,-3149.0966 1596.0344,-3155.4375 1593.3534,-3145.1875 1587.5465,-3149.0966"/>
</g>
<!-- 52413 -->
<g id="node69" class="node">
<title>52413</title>
<ellipse fill="none" stroke="#000000" cx="1585.3006" cy="-3114.1402" rx="32.4942" ry="18"/>
<text text-anchor="middle" x="1585.3006" y="-3110.4402" font-family="Times,serif" font-size="14.00" fill="#000000">52413</text>
</g>
<!-- 5692&#45;&gt;52413 -->
<g id="edge38" class="edge">
<title>5692&#45;&gt;52413</title>
<path fill="none" stroke="#000000" d="M1522.0163,-3040.9536C1533.8134,-3054.5966 1550.9793,-3074.4485 1564.4574,-3090.0356"/>
<polygon fill="#000000" stroke="#000000" points="1561.9332,-3092.4675 1571.1215,-3097.7424 1567.2282,-3087.8889 1561.9332,-3092.4675"/>
</g>
<!-- 52431 -->
<g id="node70" class="node">
<title>52431</title>
<ellipse fill="none" stroke="#000000" cx="1499.3007" cy="-2895.3304" rx="32.4942" ry="18"/>
<text text-anchor="middle" x="1499.3007" y="-2891.6304" font-family="Times,serif" font-size="14.00" fill="#000000">52431</text>
</g>
<!-- 5692&#45;&gt;52431 -->
<g id="edge39" class="edge">
<title>5692&#45;&gt;52431</title>
<path fill="none" stroke="#000000" d="M1506.9964,-3006.988C1505.5105,-2985.4292 1503.0059,-2949.0889 1501.259,-2923.7427"/>
<polygon fill="#000000" stroke="#000000" points="1504.7413,-2923.3639 1500.5619,-2913.6283 1497.7578,-2923.8453 1504.7413,-2923.3639"/>
</g>
<!-- 262230 -->
<g id="node71" class="node">
<title>262230</title>
<ellipse fill="none" stroke="#000000" cx="1432.4911" cy="-3159.5128" rx="37.0935" ry="18"/>
<text text-anchor="middle" x="1432.4911" y="-3155.8128" font-family="Times,serif" font-size="14.00" fill="#000000">262230</text>
</g>
<!-- 5692&#45;&gt;262230 -->
<g id="edge40" class="edge">
<title>5692&#45;&gt;262230</title>
<path fill="none" stroke="#000000" d="M1498.6457,-3042.0544C1485.7544,-3064.9431 1462.7072,-3105.8636 1447.5072,-3132.8514"/>
<polygon fill="#000000" stroke="#000000" points="1444.3454,-3131.3332 1442.4876,-3141.7639 1450.4446,-3134.7684 1444.3454,-3131.3332"/>
</g>
<!-- 264608 -->
<g id="node72" class="node">
<title>264608</title>
<ellipse fill="none" stroke="#000000" cx="1486.66" cy="-3114.2807" rx="37.0935" ry="18"/>
<text text-anchor="middle" x="1486.66" y="-3110.5807" font-family="Times,serif" font-size="14.00" fill="#000000">264608</text>
</g>
<!-- 5692&#45;&gt;264608 -->
<g id="edge41" class="edge">
<title>5692&#45;&gt;264608</title>
<path fill="none" stroke="#000000" d="M1503.8724,-3043.0839C1500.8597,-3055.5454 1496.7966,-3072.3517 1493.3746,-3086.5064"/>
<polygon fill="#000000" stroke="#000000" points="1489.9683,-3085.702 1491.0204,-3096.2445 1496.7723,-3087.347 1489.9683,-3085.702"/>
</g>
<!-- 6453&#45;&gt;3257 -->
<g id="edge42" class="edge">
<title>6453&#45;&gt;3257</title>
<path fill="none" stroke="#000000" d="M507.4432,-1793.1532C493.609,-1760.2519 463.7964,-1689.35 447.391,-1650.3337"/>
<polygon fill="#000000" stroke="#000000" points="450.4376,-1648.5494 443.3351,-1640.6878 443.9848,-1651.2627 450.4376,-1648.5494"/>
</g>
<!-- 6461&#45;&gt;2497 -->
<g id="edge43" class="edge">
<title>6461&#45;&gt;2497</title>
<path fill="none" stroke="#000000" d="M244.4311,-556.0558C243.0983,-520.253 240.1235,-440.3443 238.5352,-397.6783"/>
<polygon fill="#000000" stroke="#000000" points="242.0327,-397.5458 238.1631,-387.683 235.0376,-397.8063 242.0327,-397.5458"/>
</g>
<!-- 6695 -->
<g id="node31" class="node">
<title>6695</title>
<ellipse fill="none" stroke="#000000" cx="1243.822" cy="-924.5797" rx="28.6953" ry="18"/>
<text text-anchor="middle" x="1243.822" y="-920.8797" font-family="Times,serif" font-size="14.00" fill="#000000">6695</text>
</g>
<!-- 6762&#45;&gt;2914 -->
<g id="edge44" class="edge">
<title>6762&#45;&gt;2914</title>
<path fill="none" stroke="#000000" d="M713.7517,-2198.5701C697.0753,-2167.0658 661.5506,-2099.9544 641.7995,-2062.6414"/>
<polygon fill="#000000" stroke="#000000" points="644.6788,-2060.5996 636.907,-2053.3989 638.4921,-2063.8745 644.6788,-2060.5996"/>
</g>
<!-- 6904 -->
<g id="node33" class="node">
<title>6904</title>
<ellipse fill="none" stroke="#000000" cx="573.2887" cy="-2290.3056" rx="28.6953" ry="18"/>
<text text-anchor="middle" x="573.2887" y="-2286.6056" font-family="Times,serif" font-size="14.00" fill="#000000">6904</text>
</g>
<!-- 6904&#45;&gt;2687 -->
<g id="edge45" class="edge">
<title>6904&#45;&gt;2687</title>
<path fill="none" stroke="#000000" d="M568.8518,-2272.5192C560.6005,-2239.4417 542.8434,-2168.2572 533.018,-2128.8693"/>
<polygon fill="#000000" stroke="#000000" points="536.4028,-2127.9771 530.5864,-2119.1216 529.6109,-2129.6714 536.4028,-2127.9771"/>
</g>
<!-- 6939 -->
<g id="node34" class="node">
<title>6939</title>
<ellipse fill="none" stroke="#000000" cx="746.1345" cy="-1235.9603" rx="28.6953" ry="18"/>
<text text-anchor="middle" x="746.1345" y="-1232.2603" font-family="Times,serif" font-size="14.00" fill="#000000">6939</text>
</g>
<!-- 12266 -->
<g id="node48" class="node">
<title>12266</title>
<ellipse fill="none" stroke="#000000" cx="585.7647" cy="-1168.966" rx="32.4942" ry="18"/>
<text text-anchor="middle" x="585.7647" y="-1165.266" font-family="Times,serif" font-size="14.00" fill="#000000">12266</text>
</g>
<!-- 6939&#45;&gt;12266 -->
<g id="edge46" class="edge">
<title>6939&#45;&gt;12266</title>
<path fill="none" stroke="#000000" d="M722.1255,-1225.9306C695.3969,-1214.7648 651.9328,-1196.6077 621.2711,-1183.7988"/>
<polygon fill="#000000" stroke="#000000" points="622.3797,-1180.4688 611.8033,-1179.8436 619.6814,-1186.9279 622.3797,-1180.4688"/>
</g>
<!-- 7016 -->
<g id="node35" class="node">
<title>7016</title>
<ellipse fill="none" stroke="#000000" cx="548.1799" cy="-2599.4328" rx="28.6953" ry="18"/>
<text text-anchor="middle" x="548.1799" y="-2595.7328" font-family="Times,serif" font-size="14.00" fill="#000000">7016</text>
</g>
<!-- 7922 -->
<g id="node40" class="node">
<title>7922</title>
<ellipse fill="none" stroke="#000000" cx="479.0126" cy="-2714.3095" rx="28.6953" ry="18"/>
<text text-anchor="middle" x="479.0126" y="-2710.6095" font-family="Times,serif" font-size="14.00" fill="#000000">7922</text>
</g>
<!-- 7016&#45;&gt;7922 -->
<g id="edge47" class="edge">
<title>7016&#45;&gt;7922</title>
<path fill="none" stroke="#000000" d="M537.974,-2616.3832C526.5315,-2635.3876 507.8447,-2666.4237 494.5775,-2688.4584"/>
<polygon fill="#000000" stroke="#000000" points="491.4201,-2686.9171 489.2604,-2697.2895 497.417,-2690.5279 491.4201,-2686.9171"/>
</g>
<!-- 7473 -->
<g id="node37" class="node">
<title>7473</title>
<ellipse fill="none" stroke="#000000" cx="220.4354" cy="-2130.1334" rx="28.6953" ry="18"/>
<text text-anchor="middle" x="220.4354" y="-2126.4334" font-family="Times,serif" font-size="14.00" fill="#000000">7473</text>
</g>
<!-- 7474 -->
<g id="node38" class="node">
<title>7474</title>
<ellipse fill="none" stroke="#000000" cx="921.8888" cy="-1778.9865" rx="28.6953" ry="18"/>
<text text-anchor="middle" x="921.8888" y="-1775.2865" font-family="Times,serif" font-size="14.00" fill="#000000">7474</text>
</g>
<!-- 7545&#45;&gt;4635 -->
<g id="edge48" class="edge">
<title>7545&#45;&gt;4635</title>
<path fill="none" stroke="#000000" d="M947.256,-1335.3176C966.5817,-1327.844 993.7995,-1317.3183 1015.2941,-1309.0059"/>
<polygon fill="#000000" stroke="#000000" points="1016.6539,-1312.2327 1024.7184,-1305.3613 1014.1291,-1305.7039 1016.6539,-1312.2327"/>
</g>
<!-- 7545&#45;&gt;4739 -->
<g id="edge49" class="edge">
<title>7545&#45;&gt;4739</title>
<path fill="none" stroke="#000000" d="M939.1964,-1329.6849C967.8323,-1303.2984 1027.1404,-1248.6488 1060.3556,-1218.0426"/>
<polygon fill="#000000" stroke="#000000" points="1062.8295,-1220.5224 1067.8118,-1211.1722 1058.086,-1215.3746 1062.8295,-1220.5224"/>
</g>
<!-- 7545&#45;&gt;6939 -->
<g id="edge50" class="edge">
<title>7545&#45;&gt;6939</title>
<path fill="none" stroke="#000000" d="M902.2185,-1332.0682C870.8303,-1312.7412 810.9366,-1275.8619 775.1622,-1253.834"/>
<polygon fill="#000000" stroke="#000000" points="776.969,-1250.8363 766.6187,-1248.5734 773.2988,-1256.797 776.969,-1250.8363"/>
</g>
<!-- 9942 -->
<g id="node44" class="node">
<title>9942</title>
<ellipse fill="none" stroke="#000000" cx="938.904" cy="-1197.8894" rx="28.6953" ry="18"/>
<text text-anchor="middle" x="938.904" y="-1194.1894" font-family="Times,serif" font-size="14.00" fill="#000000">9942</text>
</g>
<!-- 7545&#45;&gt;9942 -->
<g id="edge51" class="edge">
<title>7545&#45;&gt;9942</title>
<path fill="none" stroke="#000000" d="M924.8045,-1326.7526C927.5514,-1301.647 932.5592,-1255.8785 935.8076,-1226.1889"/>
<polygon fill="#000000" stroke="#000000" points="939.3089,-1226.3676 936.9174,-1216.0462 932.3504,-1225.6061 939.3089,-1226.3676"/>
</g>
<!-- 9002 -->
<g id="node41" class="node">
<title>9002</title>
<ellipse fill="none" stroke="#000000" cx="1327.1787" cy="-986.236" rx="28.6953" ry="18"/>
<text text-anchor="middle" x="1327.1787" y="-982.536" font-family="Times,serif" font-size="14.00" fill="#000000">9002</text>
</g>
<!-- 9443 -->
<g id="node42" class="node">
<title>9443</title>
<ellipse fill="none" stroke="#000000" cx="1399.3445" cy="-999.487" rx="28.6953" ry="18"/>
<text text-anchor="middle" x="1399.3445" y="-995.787" font-family="Times,serif" font-size="14.00" fill="#000000">9443</text>
</g>
<!-- 9443&#45;&gt;4826 -->
<g id="edge52" class="edge">
<title>9443&#45;&gt;4826</title>
<path fill="none" stroke="#000000" d="M1418.8299,-986.1685C1439.2478,-972.2126 1471.502,-950.1663 1494.5738,-934.3964"/>
<polygon fill="#000000" stroke="#000000" points="1496.6421,-937.2222 1502.9228,-928.6897 1492.692,-931.4432 1496.6421,-937.2222"/>
</g>
<!-- 9505&#45;&gt;7473 -->
<g id="edge53" class="edge">
<title>9505&#45;&gt;7473</title>
<path fill="none" stroke="#000000" d="M323.5039,-2119.8495C304.6161,-2121.7341 279.6249,-2124.2276 258.9817,-2126.2874"/>
<polygon fill="#000000" stroke="#000000" points="258.5445,-2122.8135 248.9415,-2127.2892 259.2396,-2129.7789 258.5445,-2122.8135"/>
</g>
<!-- 12956 -->
<g id="node49" class="node">
<title>12956</title>
<ellipse fill="none" stroke="#000000" cx="1139.3996" cy="-2738.4754" rx="32.4942" ry="18"/>
<text text-anchor="middle" x="1139.3996" y="-2734.7754" font-family="Times,serif" font-size="14.00" fill="#000000">12956</text>
</g>
<!-- 10834&#45;&gt;12956 -->
<g id="edge54" class="edge">
<title>10834&#45;&gt;12956</title>
<path fill="none" stroke="#000000" d="M1301.2476,-2882.666C1269.5182,-2854.3982 1201.5625,-2793.8564 1164.6006,-2760.9269"/>
<polygon fill="#000000" stroke="#000000" points="1166.57,-2757.994 1156.7752,-2753.9553 1161.9136,-2763.2207 1166.57,-2757.994"/>
</g>
<!-- 22927 -->
<g id="node54" class="node">
<title>22927</title>
<ellipse fill="none" stroke="#000000" cx="1218.4225" cy="-3004.8742" rx="32.4942" ry="18"/>
<text text-anchor="middle" x="1218.4225" y="-3001.1742" font-family="Times,serif" font-size="14.00" fill="#000000">22927</text>
</g>
<!-- 10834&#45;&gt;22927 -->
<g id="edge55" class="edge">
<title>10834&#45;&gt;22927</title>
<path fill="none" stroke="#000000" d="M1303.2258,-2914.1961C1286.4643,-2932.1188 1259.3401,-2961.122 1240.291,-2981.4908"/>
<polygon fill="#000000" stroke="#000000" points="1237.6983,-2979.139 1233.4241,-2988.8334 1242.8109,-2983.9204 1237.6983,-2979.139"/>
</g>
<!-- 12189 -->
<g id="node47" class="node">
<title>12189</title>
<ellipse fill="none" stroke="#000000" cx="201.9066" cy="-1079.865" rx="32.4942" ry="18"/>
<text text-anchor="middle" x="201.9066" y="-1076.165" font-family="Times,serif" font-size="14.00" fill="#000000">12189</text>
</g>
<!-- 17819 -->
<g id="node51" class="node">
<title>17819</title>
<ellipse fill="none" stroke="#000000" cx="32.0016" cy="-1048.6975" rx="32.4942" ry="18"/>
<text text-anchor="middle" x="32.0016" y="-1044.9975" font-family="Times,serif" font-size="14.00" fill="#000000">17819</text>
</g>
<!-- 12189&#45;&gt;17819 -->
<g id="edge56" class="edge">
<title>12189&#45;&gt;17819</title>
<path fill="none" stroke="#000000" d="M170.7434,-1074.1484C143.3203,-1069.1179 103.1938,-1061.7571 73.1401,-1056.244"/>
<polygon fill="#000000" stroke="#000000" points="73.4346,-1052.7397 62.9672,-1054.3779 72.1715,-1059.6248 73.4346,-1052.7397"/>
</g>
<!-- 28666 -->
<g id="node57" class="node">
<title>28666</title>
<ellipse fill="none" stroke="#000000" cx="41.851" cy="-1126.9431" rx="32.4942" ry="18"/>
<text text-anchor="middle" x="41.851" y="-1123.2431" font-family="Times,serif" font-size="14.00" fill="#000000">28666</text>
</g>
<!-- 12189&#45;&gt;28666 -->
<g id="edge57" class="edge">
<title>12189&#45;&gt;28666</title>
<path fill="none" stroke="#000000" d="M172.9217,-1088.3905C146.9737,-1096.0227 108.7383,-1107.2691 80.2531,-1115.6477"/>
<polygon fill="#000000" stroke="#000000" points="79.2262,-1112.3014 70.6203,-1118.481 81.2015,-1119.0169 79.2262,-1112.3014"/>
</g>
<!-- 38930 -->
<g id="node64" class="node">
<title>38930</title>
<ellipse fill="none" stroke="#000000" cx="67.6205" cy="-979.8705" rx="32.4942" ry="18"/>
<text text-anchor="middle" x="67.6205" y="-976.1705" font-family="Times,serif" font-size="14.00" fill="#000000">38930</text>
</g>
<!-- 12189&#45;&gt;38930 -->
<g id="edge58" class="edge">
<title>12189&#45;&gt;38930</title>
<path fill="none" stroke="#000000" d="M182.3802,-1065.3249C159.5063,-1048.2921 121.4417,-1019.9478 95.4738,-1000.6111"/>
<polygon fill="#000000" stroke="#000000" points="97.2814,-997.5933 87.1704,-994.4281 93.1006,-1003.2078 97.2814,-997.5933"/>
</g>
<!-- 20454 -->
<g id="node53" class="node">
<title>20454</title>
<ellipse fill="none" stroke="#000000" cx="377.03" cy="-1109.5034" rx="32.4942" ry="18"/>
<text text-anchor="middle" x="377.03" y="-1105.8034" font-family="Times,serif" font-size="14.00" fill="#000000">20454</text>
</g>
<!-- 12266&#45;&gt;20454 -->
<g id="edge59" class="edge">
<title>12266&#45;&gt;20454</title>
<path fill="none" stroke="#000000" d="M556.741,-1160.698C520.0805,-1150.2544 456.8625,-1132.2454 416.0158,-1120.6093"/>
<polygon fill="#000000" stroke="#000000" points="416.7192,-1117.1705 406.1428,-1117.7968 414.8013,-1123.9027 416.7192,-1117.1705"/>
</g>
<!-- 12956&#45;&gt;3356 -->
<g id="edge60" class="edge">
<title>12956&#45;&gt;3356</title>
<path fill="none" stroke="#000000" d="M1123.4768,-2722.6C1093.8917,-2693.1031 1030.3553,-2629.7561 996.1894,-2595.692"/>
<polygon fill="#000000" stroke="#000000" points="998.5216,-2593.0749 988.9688,-2588.4929 993.5793,-2598.0321 998.5216,-2593.0749"/>
</g>
<!-- 18540 -->
<g id="node52" class="node">
<title>18540</title>
<ellipse fill="none" stroke="#000000" cx="650.1141" cy="-2603.2248" rx="32.4942" ry="18"/>
<text text-anchor="middle" x="650.1141" y="-2599.5248" font-family="Times,serif" font-size="14.00" fill="#000000">18540</text>
</g>
<!-- 20454&#45;&gt;12189 -->
<g id="edge61" class="edge">
<title>20454&#45;&gt;12189</title>
<path fill="none" stroke="#000000" d="M345.7214,-1104.2046C317.1714,-1099.3727 274.7847,-1092.1991 243.4179,-1086.8905"/>
<polygon fill="#000000" stroke="#000000" points="243.6827,-1083.3856 233.2388,-1085.1677 242.5145,-1090.2874 243.6827,-1083.3856"/>
</g>
<!-- 30070&#45;&gt;6904 -->
<g id="edge62" class="edge">
<title>30070&#45;&gt;6904</title>
<path fill="none" stroke="#000000" d="M636.1466,-2425.1791C623.7879,-2398.6612 600.2064,-2348.0628 585.7028,-2316.9426"/>
<polygon fill="#000000" stroke="#000000" points="588.7353,-2315.1638 581.3386,-2307.5783 582.3905,-2318.1208 588.7353,-2315.1638"/>
</g>
<!-- 30070&#45;&gt;7016 -->
<g id="edge63" class="edge">
<title>30070&#45;&gt;7016</title>
<path fill="none" stroke="#000000" d="M633.8229,-2459.7319C616.996,-2487.1799 583.8228,-2541.2921 564.0656,-2573.52"/>
<polygon fill="#000000" stroke="#000000" points="560.8782,-2572.0227 558.6356,-2582.3775 566.8461,-2575.6813 560.8782,-2572.0227"/>
</g>
<!-- 30070&#45;&gt;18540 -->
<g id="edge64" class="edge">
<title>30070&#45;&gt;18540</title>
<path fill="none" stroke="#000000" d="M644.9481,-2460.7628C645.9528,-2488.4693 647.8806,-2541.6318 649.0761,-2574.5979"/>
<polygon fill="#000000" stroke="#000000" points="645.5908,-2575.0709 649.451,-2584.9374 652.5862,-2574.8171 645.5908,-2575.0709"/>
</g>
<!-- 32787&#45;&gt;2764 -->
<g id="edge65" class="edge">
<title>32787&#45;&gt;2764</title>
<path fill="none" stroke="#000000" d="M800.1971,-1740.5033C820.0048,-1702.4652 867.2026,-1611.8281 890.6634,-1566.7748"/>
<polygon fill="#000000" stroke="#000000" points="893.9098,-1568.1185 895.4242,-1557.6324 887.7011,-1564.8854 893.9098,-1568.1185"/>
</g>
<!-- 32787&#45;&gt;4637 -->
<g id="edge66" class="edge">
<title>32787&#45;&gt;4637</title>
<path fill="none" stroke="#000000" d="M803.293,-1774.98C814.2831,-1790.3671 830.5956,-1813.2059 843.0773,-1830.6812"/>
<polygon fill="#000000" stroke="#000000" points="840.5465,-1833.1597 849.2068,-1839.2629 846.2427,-1829.0911 840.5465,-1833.1597"/>
</g>
<!-- 32787&#45;&gt;7474 -->
<g id="edge67" class="edge">
<title>32787&#45;&gt;7474</title>
<path fill="none" stroke="#000000" d="M822.4419,-1762.9781C840.8881,-1765.9474 864.3525,-1769.7246 883.856,-1772.8642"/>
<polygon fill="#000000" stroke="#000000" points="883.5066,-1776.3529 893.9358,-1774.4868 884.6191,-1769.4419 883.5066,-1776.3529"/>
</g>
<!-- 38333&#45;&gt;1221 -->
<g id="edge68" class="edge">
<title>38333&#45;&gt;1221</title>
<path fill="none" stroke="#000000" d="M1088.3198,-1537.9398C1113.6537,-1538.6131 1148.9001,-1539.55 1175.7362,-1540.2633"/>
<polygon fill="#000000" stroke="#000000" points="1175.8462,-1543.7673 1185.9357,-1540.5344 1176.0323,-1536.7698 1175.8462,-1543.7673"/>
</g>
<!-- 38880&#45;&gt;6695 -->
<g id="edge69" class="edge">
<title>38880&#45;&gt;6695</title>
<path fill="none" stroke="#000000" d="M1222.1772,-1064.7881C1226.4144,-1037.3407 1234.4828,-985.0764 1239.4822,-952.6916"/>
<polygon fill="#000000" stroke="#000000" points="1242.9833,-952.9526 1241.05,-942.5356 1236.0652,-951.8845 1242.9833,-952.9526"/>
</g>
<!-- 38880&#45;&gt;9002 -->
<g id="edge70" class="edge">
<title>38880&#45;&gt;9002</title>
<path fill="none" stroke="#000000" d="M1236.6935,-1067.4162C1254.6639,-1051.2937 1282.9053,-1025.9566 1303.0553,-1007.8787"/>
<polygon fill="#000000" stroke="#000000" points="1305.5028,-1010.3851 1310.6089,-1001.1019 1300.8282,-1005.1747 1305.5028,-1010.3851"/>
</g>
<!-- 38880&#45;&gt;9443 -->
<g id="edge71" class="edge">
<title>38880&#45;&gt;9443</title>
<path fill="none" stroke="#000000" d="M1244.3969,-1071.3499C1276.3558,-1056.5277 1331.7229,-1030.8491 1366.8939,-1014.5372"/>
<polygon fill="#000000" stroke="#000000" points="1368.6429,-1017.5842 1376.2422,-1010.2016 1365.6977,-1011.2339 1368.6429,-1017.5842"/>
</g>
</g>
</svg>
