<?xml version="1.0" encoding="UTF-8" standalone="no"?>
<!DOCTYPE svg PUBLIC "-//W3C//DTD SVG 1.1//EN"
 "http://www.w3.org/Graphics/SVG/1.1/DTD/svg11.dtd">
<!-- Generated by graphviz version 2.40.1 (20161225.0304)
 -->
<!-- Title: %3 Pages: 1 -->
<svg width="868pt" height="498pt"
 viewBox="0.00 0.00 868.33 498.09" xmlns="http://www.w3.org/2000/svg" xmlns:xlink="http://www.w3.org/1999/xlink">
<g id="graph0" class="graph" transform="scale(1 1) rotate(0) translate(4 494.0892)">
<title>%3</title>
<polygon fill="#ffffff" stroke="transparent" points="-4,4 -4,-494.0892 864.3277,-494.0892 864.3277,4 -4,4"/>
<!-- 174 -->
<g id="node1" class="node">
<title>174</title>
<ellipse fill="none" stroke="#000000" cx="212.6101" cy="-146.2501" rx="27" ry="18"/>
<text text-anchor="middle" x="212.6101" y="-142.5501" font-family="Times,serif" font-size="14.00" fill="#000000">174</text>
</g>
<!-- 209 -->
<g id="node2" class="node">
<title>209</title>
<ellipse fill="none" stroke="#000000" cx="181.3939" cy="-134.8682" rx="27" ry="18"/>
<text text-anchor="middle" x="181.3939" y="-131.1682" font-family="Times,serif" font-size="14.00" fill="#000000">209</text>
</g>
<!-- 174&#45;&gt;209 -->
<g id="edge1" class="edge">
<title>174&#45;&gt;209</title>
<path fill="none" stroke="#000000" d="M188.634,-137.508C188.5685,-137.4842 188.5033,-137.4604 188.4384,-137.4367"/>
<polygon fill="#000000" stroke="#000000" points="198.8398,-137.5064 188.2444,-137.366 196.4396,-144.0831 198.8398,-137.5064"/>
</g>
<!-- 1299 -->
<g id="node8" class="node">
<title>1299</title>
<ellipse fill="none" stroke="#000000" cx="153.3483" cy="-116.2553" rx="28.6953" ry="18"/>
<text text-anchor="middle" x="153.3483" y="-112.5553" font-family="Times,serif" font-size="14.00" fill="#000000">1299</text>
</g>
<!-- 209&#45;&gt;1299 -->
<g id="edge2" class="edge">
<title>209&#45;&gt;1299</title>
<path fill="none" stroke="#000000" d="M162.2221,-122.1446C162.145,-122.0934 162.0683,-122.0425 161.9917,-121.9917"/>
<polygon fill="#000000" stroke="#000000" points="172.0315,-124.4547 161.7629,-121.8398 168.1596,-130.2875 172.0315,-124.4547"/>
</g>
<!-- 2828 -->
<g id="node14" class="node">
<title>2828</title>
<ellipse fill="none" stroke="#000000" cx="168.7814" cy="-155.7736" rx="28.6953" ry="18"/>
<text text-anchor="middle" x="168.7814" y="-152.0736" font-family="Times,serif" font-size="14.00" fill="#000000">2828</text>
</g>
<!-- 209&#45;&gt;2828 -->
<g id="edge3" class="edge">
<title>209&#45;&gt;2828</title>
<path fill="none" stroke="#000000" d="M171.2132,-151.7428C171.1684,-151.8171 171.124,-151.8907 171.0801,-151.9635"/>
<polygon fill="#000000" stroke="#000000" points="173.1203,-141.8081 170.9496,-152.1798 179.1143,-145.4255 173.1203,-141.8081"/>
</g>
<!-- 701 -->
<g id="node3" class="node">
<title>701</title>
<ellipse fill="none" stroke="#000000" cx="58.5342" cy="-75.6567" rx="27" ry="18"/>
<text text-anchor="middle" x="58.5342" y="-71.9567" font-family="Times,serif" font-size="14.00" fill="#000000">701</text>
</g>
<!-- 703 -->
<g id="node4" class="node">
<title>703</title>
<ellipse fill="none" stroke="#000000" cx="33.676" cy="-55.5567" rx="27" ry="18"/>
<text text-anchor="middle" x="33.676" y="-51.8567" font-family="Times,serif" font-size="14.00" fill="#000000">703</text>
</g>
<!-- 701&#45;&gt;703 -->
<g id="edge4" class="edge">
<title>701&#45;&gt;703</title>
<path fill="none" stroke="#000000" d="M41.2694,-61.6966C41.2031,-61.643 41.1371,-61.5896 41.0712,-61.5363"/>
<polygon fill="#000000" stroke="#000000" points="50.8525,-64.9443 40.8744,-61.3772 46.4501,-70.3882 50.8525,-64.9443"/>
</g>
<!-- 1239 -->
<g id="node6" class="node">
<title>1239</title>
<ellipse fill="none" stroke="#000000" cx="45.7231" cy="-102.0582" rx="28.6953" ry="18"/>
<text text-anchor="middle" x="45.7231" y="-98.3582" font-family="Times,serif" font-size="14.00" fill="#000000">1239</text>
</g>
<!-- 701&#45;&gt;1239 -->
<g id="edge5" class="edge">
<title>701&#45;&gt;1239</title>
<path fill="none" stroke="#000000" d="M50.2038,-92.8243C50.1656,-92.9031 50.1275,-92.9817 50.0894,-93.06"/>
<polygon fill="#000000" stroke="#000000" points="51.1945,-82.7686 49.9757,-93.2944 57.4925,-85.826 51.1945,-82.7686"/>
</g>
<!-- 1273 -->
<g id="node7" class="node">
<title>1273</title>
<ellipse fill="none" stroke="#000000" cx="28.5975" cy="-84.3092" rx="28.6953" ry="18"/>
<text text-anchor="middle" x="28.5975" y="-80.6092" font-family="Times,serif" font-size="14.00" fill="#000000">1273</text>
</g>
<!-- 701&#45;&gt;1273 -->
<g id="edge6" class="edge">
<title>701&#45;&gt;1273</title>
<path fill="none" stroke="#000000" d="M33.5409,-82.8804C33.4948,-82.8937 33.4488,-82.907 33.4032,-82.9202"/>
<polygon fill="#000000" stroke="#000000" points="41.9003,-76.8154 33.2669,-82.9596 43.8475,-83.5404 41.9003,-76.8154"/>
</g>
<!-- 3320 -->
<g id="node17" class="node">
<title>3320</title>
<ellipse fill="none" stroke="#000000" cx="67.4412" cy="-101.4535" rx="28.6953" ry="18"/>
<text text-anchor="middle" x="67.4412" y="-97.7535" font-family="Times,serif" font-size="14.00" fill="#000000">3320</text>
</g>
<!-- 701&#45;&gt;3320 -->
<g id="edge7" class="edge">
<title>701&#45;&gt;3320</title>
<path fill="none" stroke="#000000" d="M64.623,-93.2912C64.6474,-93.3621 64.6718,-93.4327 64.6961,-93.5031"/>
<polygon fill="#000000" stroke="#000000" points="58.1937,-85.4043 64.7688,-93.7136 64.8105,-83.1176 58.1937,-85.4043"/>
</g>
<!-- 5511 -->
<g id="node27" class="node">
<title>5511</title>
<ellipse fill="none" stroke="#000000" cx="80.6123" cy="-59.4448" rx="28.6953" ry="18"/>
<text text-anchor="middle" x="80.6123" y="-55.7448" font-family="Times,serif" font-size="14.00" fill="#000000">5511</text>
</g>
<!-- 701&#45;&gt;5511 -->
<g id="edge8" class="edge">
<title>701&#45;&gt;5511</title>
<path fill="none" stroke="#000000" d="M76.7666,-62.2687C76.8381,-62.2162 76.9089,-62.1642 76.9789,-62.1128"/>
<polygon fill="#000000" stroke="#000000" points="71.1978,-70.7018 77.1868,-61.9601 67.0536,-65.059 71.1978,-70.7018"/>
</g>
<!-- 7018 -->
<g id="node36" class="node">
<title>7018</title>
<ellipse fill="none" stroke="#000000" cx="60.8191" cy="-44.8933" rx="28.6953" ry="18"/>
<text text-anchor="middle" x="60.8191" y="-41.1933" font-family="Times,serif" font-size="14.00" fill="#000000">7018</text>
</g>
<!-- 701&#45;&gt;7018 -->
<g id="edge9" class="edge">
<title>701&#45;&gt;7018</title>
<path fill="none" stroke="#000000" d="M59.8898,-57.4059C59.8936,-57.3542 59.8975,-57.3025 59.9013,-57.2508"/>
<polygon fill="#000000" stroke="#000000" points="62.6565,-67.3299 59.9128,-57.096 55.6757,-66.8072 62.6565,-67.3299"/>
</g>
<!-- 1221 -->
<g id="node5" class="node">
<title>1221</title>
<ellipse fill="none" stroke="#000000" cx="639.4638" cy="-285.0249" rx="28.6953" ry="18"/>
<text text-anchor="middle" x="639.4638" y="-281.3249" font-family="Times,serif" font-size="14.00" fill="#000000">1221</text>
</g>
<!-- 6461 -->
<g id="node30" class="node">
<title>6461</title>
<ellipse fill="none" stroke="#000000" cx="124.7292" cy="-101.1492" rx="28.6953" ry="18"/>
<text text-anchor="middle" x="124.7292" y="-97.4492" font-family="Times,serif" font-size="14.00" fill="#000000">6461</text>
</g>
<!-- 1299&#45;&gt;6461 -->
<g id="edge10" class="edge">
<title>1299&#45;&gt;6461</title>
<path fill="none" stroke="#000000" d="M131.3669,-104.6528C131.3069,-104.6211 131.2471,-104.5896 131.1876,-104.5581"/>
<polygon fill="#000000" stroke="#000000" points="141.4887,-106.0395 131.0098,-104.4643 138.2193,-112.2304 141.4887,-106.0395"/>
</g>
<!-- 2497 -->
<g id="node9" class="node">
<title>2497</title>
<ellipse fill="none" stroke="#000000" cx="94.3509" cy="-87.8866" rx="28.6953" ry="18"/>
<text text-anchor="middle" x="94.3509" y="-84.1866" font-family="Times,serif" font-size="14.00" fill="#000000">2497</text>
</g>
<!-- 2497&#45;&gt;701 -->
<g id="edge11" class="edge">
<title>2497&#45;&gt;701</title>
<path fill="none" stroke="#000000" d="M69.0867,-79.26C69.0404,-79.2442 68.9942,-79.2284 68.948,-79.2126"/>
<polygon fill="#000000" stroke="#000000" points="79.4063,-79.0891 68.8098,-79.1654 77.1411,-85.7138 79.4063,-79.0891"/>
</g>
<!-- 2516 -->
<g id="node10" class="node">
<title>2516</title>
<ellipse fill="none" stroke="#000000" cx="541.1617" cy="-218.4783" rx="28.6953" ry="18"/>
<text text-anchor="middle" x="541.1617" y="-214.7783" font-family="Times,serif" font-size="14.00" fill="#000000">2516</text>
</g>
<!-- 32787 -->
<g id="node59" class="node">
<title>32787</title>
<ellipse fill="none" stroke="#000000" cx="587.4718" cy="-226.2737" rx="32.4942" ry="18"/>
<text text-anchor="middle" x="587.4718" y="-222.5737" font-family="Times,serif" font-size="14.00" fill="#000000">32787</text>
</g>
<!-- 2516&#45;&gt;32787 -->
<g id="edge12" class="edge">
<title>2516&#45;&gt;32787</title>
<path fill="none" stroke="#000000" d="M568.9026,-223.1479C568.9796,-223.1609 569.0566,-223.1739 569.1335,-223.1868"/>
<polygon fill="#000000" stroke="#000000" points="558.9204,-225.0136 569.364,-223.2256 560.0849,-218.1107 558.9204,-225.0136"/>
</g>
<!-- 2686 -->
<g id="node11" class="node">
<title>2686</title>
<ellipse fill="none" stroke="#000000" cx="489.1976" cy="-181.1241" rx="28.6953" ry="18"/>
<text text-anchor="middle" x="489.1976" y="-177.4241" font-family="Times,serif" font-size="14.00" fill="#000000">2686</text>
</g>
<!-- 3741 -->
<g id="node22" class="node">
<title>3741</title>
<ellipse fill="none" stroke="#000000" cx="482.9222" cy="-151.0072" rx="28.6953" ry="18"/>
<text text-anchor="middle" x="482.9222" y="-147.3072" font-family="Times,serif" font-size="14.00" fill="#000000">3741</text>
</g>
<!-- 2686&#45;&gt;3741 -->
<g id="edge13" class="edge">
<title>2686&#45;&gt;3741</title>
<path fill="none" stroke="#000000" d="M485.4747,-163.2569C485.4641,-163.2062 485.4536,-163.1556 485.443,-163.105"/>
<polygon fill="#000000" stroke="#000000" points="490.8829,-172.0276 485.4114,-162.9535 484.03,-173.4591 490.8829,-172.0276"/>
</g>
<!-- 2687 -->
<g id="node12" class="node">
<title>2687</title>
<ellipse fill="none" stroke="#000000" cx="494.942" cy="-215.0389" rx="28.6953" ry="18"/>
<text text-anchor="middle" x="494.942" y="-211.3389" font-family="Times,serif" font-size="14.00" fill="#000000">2687</text>
</g>
<!-- 2687&#45;&gt;2516 -->
<g id="edge14" class="edge">
<title>2687&#45;&gt;2516</title>
<path fill="none" stroke="#000000" d="M523.4241,-217.1584C523.4984,-217.1639 523.5726,-217.1695 523.6468,-217.175"/>
<polygon fill="#000000" stroke="#000000" points="513.6354,-219.9356 523.869,-217.1915 514.1577,-212.9549 513.6354,-219.9356"/>
</g>
<!-- 2687&#45;&gt;2686 -->
<g id="edge15" class="edge">
<title>2687&#45;&gt;2686</title>
<path fill="none" stroke="#000000" d="M491.868,-196.89C491.8573,-196.8271 491.8467,-196.7641 491.836,-196.7011"/>
<polygon fill="#000000" stroke="#000000" points="496.9292,-205.786 491.804,-196.5124 490.0275,-206.958 496.9292,-205.786"/>
</g>
<!-- 9505 -->
<g id="node43" class="node">
<title>9505</title>
<ellipse fill="none" stroke="#000000" cx="498.9158" cy="-239.7344" rx="28.6953" ry="18"/>
<text text-anchor="middle" x="498.9158" y="-236.0344" font-family="Times,serif" font-size="14.00" fill="#000000">9505</text>
</g>
<!-- 2687&#45;&gt;9505 -->
<g id="edge16" class="edge">
<title>2687&#45;&gt;9505</title>
<path fill="none" stroke="#000000" d="M497.8299,-232.9863C497.8396,-233.0461 497.8492,-233.1057 497.8587,-233.1651"/>
<polygon fill="#000000" stroke="#000000" points="492.8383,-224.0272 497.8873,-233.3426 499.7495,-222.9119 492.8383,-224.0272"/>
</g>
<!-- 2764 -->
<g id="node13" class="node">
<title>2764</title>
<ellipse fill="none" stroke="#000000" cx="634.6728" cy="-224.1615" rx="28.6953" ry="18"/>
<text text-anchor="middle" x="634.6728" y="-220.4615" font-family="Times,serif" font-size="14.00" fill="#000000">2764</text>
</g>
<!-- 7545 -->
<g id="node39" class="node">
<title>7545</title>
<ellipse fill="none" stroke="#000000" cx="677.799" cy="-200.1094" rx="28.6953" ry="18"/>
<text text-anchor="middle" x="677.799" y="-196.4094" font-family="Times,serif" font-size="14.00" fill="#000000">7545</text>
</g>
<!-- 2764&#45;&gt;7545 -->
<g id="edge17" class="edge">
<title>2764&#45;&gt;7545</title>
<path fill="none" stroke="#000000" d="M656.2359,-212.1354C656.278,-212.112 656.3201,-212.0885 656.3623,-212.065"/>
<polygon fill="#000000" stroke="#000000" points="649.4602,-219.9259 656.4886,-211.9945 646.0481,-213.8118 649.4602,-219.9259"/>
</g>
<!-- 38333 -->
<g id="node61" class="node">
<title>38333</title>
<ellipse fill="none" stroke="#000000" cx="637.0015" cy="-257.977" rx="32.4942" ry="18"/>
<text text-anchor="middle" x="637.0015" y="-254.277" font-family="Times,serif" font-size="14.00" fill="#000000">38333</text>
</g>
<!-- 2764&#45;&gt;38333 -->
<g id="edge18" class="edge">
<title>2764&#45;&gt;38333</title>
<path fill="none" stroke="#000000" d="M635.919,-242.2572C635.9233,-242.32 635.9276,-242.3828 635.9319,-242.4456"/>
<polygon fill="#000000" stroke="#000000" points="631.7612,-232.8996 635.9449,-242.6338 638.7447,-232.4152 631.7612,-232.8996"/>
</g>
<!-- 38561 -->
<g id="node62" class="node">
<title>38561</title>
<ellipse fill="none" stroke="#000000" cx="653.7309" cy="-234.4284" rx="32.4942" ry="18"/>
<text text-anchor="middle" x="653.7309" y="-230.7284" font-family="Times,serif" font-size="14.00" fill="#000000">38561</text>
</g>
<!-- 2764&#45;&gt;38561 -->
<g id="edge19" class="edge">
<title>2764&#45;&gt;38561</title>
<path fill="none" stroke="#000000" d="M653.6763,-234.3989C653.6853,-234.4038 653.6932,-234.4081 653.7,-234.4117"/>
<polygon fill="#000000" stroke="#000000" points="643.2379,-232.7348 653.7171,-234.421 646.5766,-226.5678 643.2379,-232.7348"/>
</g>
<!-- 2914 -->
<g id="node15" class="node">
<title>2914</title>
<ellipse fill="none" stroke="#000000" cx="314.3167" cy="-219.1024" rx="28.6953" ry="18"/>
<text text-anchor="middle" x="314.3167" y="-215.4024" font-family="Times,serif" font-size="14.00" fill="#000000">2914</text>
</g>
<!-- 6453 -->
<g id="node29" class="node">
<title>6453</title>
<ellipse fill="none" stroke="#000000" cx="288.9812" cy="-197.1099" rx="28.6953" ry="18"/>
<text text-anchor="middle" x="288.9812" y="-193.4099" font-family="Times,serif" font-size="14.00" fill="#000000">6453</text>
</g>
<!-- 2914&#45;&gt;6453 -->
<g id="edge20" class="edge">
<title>2914&#45;&gt;6453</title>
<path fill="none" stroke="#000000" d="M297.277,-204.3111C297.2054,-204.2489 297.134,-204.1869 297.0628,-204.1251"/>
<polygon fill="#000000" stroke="#000000" points="306.6974,-207.8535 296.85,-203.9404 302.1078,-213.1403 306.6974,-207.8535"/>
</g>
<!-- 3257 -->
<g id="node16" class="node">
<title>3257</title>
<ellipse fill="none" stroke="#000000" cx="264.4515" cy="-176.8433" rx="28.6953" ry="18"/>
<text text-anchor="middle" x="264.4515" y="-173.1433" font-family="Times,serif" font-size="14.00" fill="#000000">3257</text>
</g>
<!-- 3491 -->
<g id="node19" class="node">
<title>3491</title>
<ellipse fill="none" stroke="#000000" cx="239.474" cy="-159.1082" rx="28.6953" ry="18"/>
<text text-anchor="middle" x="239.474" y="-155.4082" font-family="Times,serif" font-size="14.00" fill="#000000">3491</text>
</g>
<!-- 3257&#45;&gt;3491 -->
<g id="edge21" class="edge">
<title>3257&#45;&gt;3491</title>
<path fill="none" stroke="#000000" d="M245.2671,-163.2216C245.2147,-163.1844 245.1625,-163.1473 245.1106,-163.1104"/>
<polygon fill="#000000" stroke="#000000" points="255.1371,-165.9378 244.9554,-163.0003 251.083,-171.646 255.1371,-165.9378"/>
</g>
<!-- 3356 -->
<g id="node18" class="node">
<title>3356</title>
<ellipse fill="none" stroke="#000000" cx="351.0972" cy="-306.0495" rx="28.6953" ry="18"/>
<text text-anchor="middle" x="351.0972" y="-302.3495" font-family="Times,serif" font-size="14.00" fill="#000000">3356</text>
</g>
<!-- 3549 -->
<g id="node20" class="node">
<title>3549</title>
<ellipse fill="none" stroke="#000000" cx="368.5806" cy="-266.8253" rx="28.6953" ry="18"/>
<text text-anchor="middle" x="368.5806" y="-263.1253" font-family="Times,serif" font-size="14.00" fill="#000000">3549</text>
</g>
<!-- 3356&#45;&gt;3549 -->
<g id="edge22" class="edge">
<title>3356&#45;&gt;3549</title>
<path fill="none" stroke="#000000" d="M359.0204,-288.2736C359.0927,-288.1115 359.1651,-287.9491 359.2375,-287.7867"/>
<polygon fill="#000000" stroke="#000000" points="359.8848,-294.9311 360.7594,-284.3723 353.4912,-292.0811 359.8848,-294.9311"/>
</g>
<!-- 3491&#45;&gt;174 -->
<g id="edge23" class="edge">
<title>3491&#45;&gt;174</title>
<path fill="none" stroke="#000000" d="M216.3454,-148.038C216.2748,-148.0042 216.2049,-147.9708 216.1359,-147.9377"/>
<polygon fill="#000000" stroke="#000000" points="226.4634,-149.0024 215.9311,-147.8397 223.4396,-155.3167 226.4634,-149.0024"/>
</g>
<!-- 6762 -->
<g id="node32" class="node">
<title>6762</title>
<ellipse fill="none" stroke="#000000" cx="339.9815" cy="-241.8754" rx="28.6953" ry="18"/>
<text text-anchor="middle" x="339.9815" y="-238.1754" font-family="Times,serif" font-size="14.00" fill="#000000">6762</text>
</g>
<!-- 3549&#45;&gt;6762 -->
<g id="edge24" class="edge">
<title>3549&#45;&gt;6762</title>
<path fill="none" stroke="#000000" d="M351.6139,-252.0235C351.5658,-251.9815 351.5177,-251.9396 351.4697,-251.8977"/>
<polygon fill="#000000" stroke="#000000" points="361.164,-255.71 351.3257,-251.7721 356.561,-260.9857 361.164,-255.71"/>
</g>
<!-- 30070 -->
<g id="node58" class="node">
<title>30070</title>
<ellipse fill="none" stroke="#000000" cx="410.4712" cy="-249.4985" rx="32.4942" ry="18"/>
<text text-anchor="middle" x="410.4712" y="-245.7985" font-family="Times,serif" font-size="14.00" fill="#000000">30070</text>
</g>
<!-- 3549&#45;&gt;30070 -->
<g id="edge25" class="edge">
<title>3549&#45;&gt;30070</title>
<path fill="none" stroke="#000000" d="M392.9485,-256.7462C393.0205,-256.7164 393.0925,-256.6867 393.1644,-256.6569"/>
<polygon fill="#000000" stroke="#000000" points="385.4774,-263.627 393.3798,-256.5678 382.8001,-257.1582 385.4774,-263.627"/>
</g>
<!-- 3597 -->
<g id="node21" class="node">
<title>3597</title>
<ellipse fill="none" stroke="#000000" cx="276.7824" cy="-414.3571" rx="28.6953" ry="18"/>
<text text-anchor="middle" x="276.7824" y="-410.6571" font-family="Times,serif" font-size="14.00" fill="#000000">3597</text>
</g>
<!-- 37179 -->
<g id="node60" class="node">
<title>37179</title>
<ellipse fill="none" stroke="#000000" cx="476.1032" cy="-125.6331" rx="32.4942" ry="18"/>
<text text-anchor="middle" x="476.1032" y="-121.9331" font-family="Times,serif" font-size="14.00" fill="#000000">37179</text>
</g>
<!-- 3741&#45;&gt;37179 -->
<g id="edge26" class="edge">
<title>3741&#45;&gt;37179</title>
<path fill="none" stroke="#000000" d="M478.1122,-133.109C478.0946,-133.0434 478.077,-132.978 478.0595,-132.9128"/>
<polygon fill="#000000" stroke="#000000" points="483.9863,-141.466 478.0072,-132.7181 477.226,-143.2853 483.9863,-141.466"/>
</g>
<!-- 4635 -->
<g id="node23" class="node">
<title>4635</title>
<ellipse fill="none" stroke="#000000" cx="660.6187" cy="-182.3486" rx="28.6953" ry="18"/>
<text text-anchor="middle" x="660.6187" y="-178.6486" font-family="Times,serif" font-size="14.00" fill="#000000">4635</text>
</g>
<!-- 4637 -->
<g id="node24" class="node">
<title>4637</title>
<ellipse fill="none" stroke="#000000" cx="567.4739" cy="-238.1267" rx="28.6953" ry="18"/>
<text text-anchor="middle" x="567.4739" y="-234.4267" font-family="Times,serif" font-size="14.00" fill="#000000">4637</text>
</g>
<!-- 4739 -->
<g id="node25" class="node">
<title>4739</title>
<ellipse fill="none" stroke="#000000" cx="711.2797" cy="-229.6577" rx="28.6953" ry="18"/>
<text text-anchor="middle" x="711.2797" y="-225.9577" font-family="Times,serif" font-size="14.00" fill="#000000">4739</text>
</g>
<!-- 38880 -->
<g id="node63" class="node">
<title>38880</title>
<ellipse fill="none" stroke="#000000" cx="741.1937" cy="-259.3219" rx="32.4942" ry="18"/>
<text text-anchor="middle" x="741.1937" y="-255.6219" font-family="Times,serif" font-size="14.00" fill="#000000">38880</text>
</g>
<!-- 4739&#45;&gt;38880 -->
<g id="edge27" class="edge">
<title>4739&#45;&gt;38880</title>
<path fill="none" stroke="#000000" d="M726.9376,-245.1848C726.9941,-245.2409 727.0507,-245.297 727.1072,-245.353"/>
<polygon fill="#000000" stroke="#000000" points="717.7099,-240.9641 727.2767,-245.5211 722.6397,-235.9928 717.7099,-240.9641"/>
</g>
<!-- 4826 -->
<g id="node26" class="node">
<title>4826</title>
<ellipse fill="none" stroke="#000000" cx="802.8214" cy="-278.1921" rx="28.6953" ry="18"/>
<text text-anchor="middle" x="802.8214" y="-274.4921" font-family="Times,serif" font-size="14.00" fill="#000000">4826</text>
</g>
<!-- 15412 -->
<g id="node50" class="node">
<title>15412</title>
<ellipse fill="none" stroke="#000000" cx="827.8306" cy="-285.5754" rx="32.4942" ry="18"/>
<text text-anchor="middle" x="827.8306" y="-281.8754" font-family="Times,serif" font-size="14.00" fill="#000000">15412</text>
</g>
<!-- 4826&#45;&gt;15412 -->
<g id="edge28" class="edge">
<title>4826&#45;&gt;15412</title>
<path fill="none" stroke="#000000" d="M827.7588,-285.5542C827.7707,-285.5577 827.7811,-285.5608 827.79,-285.5634"/>
<polygon fill="#000000" stroke="#000000" points="817.2183,-286.0655 827.8124,-285.57 819.2216,-279.3507 817.2183,-286.0655"/>
</g>
<!-- 5692 -->
<g id="node28" class="node">
<title>5692</title>
<ellipse fill="none" stroke="#000000" cx="304.8874" cy="-436.0514" rx="28.6953" ry="18"/>
<text text-anchor="middle" x="304.8874" y="-432.3514" font-family="Times,serif" font-size="14.00" fill="#000000">5692</text>
</g>
<!-- 5692&#45;&gt;3597 -->
<g id="edge29" class="edge">
<title>5692&#45;&gt;3597</title>
<path fill="none" stroke="#000000" d="M286.6122,-421.9447C286.5283,-421.88 286.4447,-421.8154 286.3613,-421.751"/>
<polygon fill="#000000" stroke="#000000" points="296.1675,-424.8992 286.1117,-421.5584 291.8893,-430.4408 296.1675,-424.8992"/>
</g>
<!-- 10834 -->
<g id="node45" class="node">
<title>10834</title>
<ellipse fill="none" stroke="#000000" cx="315.5698" cy="-384.104" rx="32.4942" ry="18"/>
<text text-anchor="middle" x="315.5698" y="-380.404" font-family="Times,serif" font-size="14.00" fill="#000000">10834</text>
</g>
<!-- 5692&#45;&gt;10834 -->
<g id="edge30" class="edge">
<title>5692&#45;&gt;10834</title>
<path fill="none" stroke="#000000" d="M308.5637,-418.174C308.962,-416.237 309.3741,-414.2333 309.7897,-412.2122"/>
<polygon fill="#000000" stroke="#000000" points="313.2644,-412.6907 311.8505,-402.1907 306.4079,-411.2807 313.2644,-412.6907"/>
</g>
<!-- 11008 -->
<g id="node46" class="node">
<title>11008</title>
<ellipse fill="none" stroke="#000000" cx="295.8991" cy="-408.2724" rx="32.4942" ry="18"/>
<text text-anchor="middle" x="295.8991" y="-404.5724" font-family="Times,serif" font-size="14.00" fill="#000000">11008</text>
</g>
<!-- 5692&#45;&gt;11008 -->
<g id="edge31" class="edge">
<title>5692&#45;&gt;11008</title>
<path fill="none" stroke="#000000" d="M299.1441,-418.3012C299.1303,-418.2587 299.1166,-418.2162 299.1029,-418.1738"/>
<polygon fill="#000000" stroke="#000000" points="305.4756,-426.4821 299.0617,-418.0467 298.8153,-428.6407 305.4756,-426.4821"/>
</g>
<!-- 27865 -->
<g id="node55" class="node">
<title>27865</title>
<ellipse fill="none" stroke="#000000" cx="268.0293" cy="-433.7609" rx="32.4942" ry="18"/>
<text text-anchor="middle" x="268.0293" y="-430.0609" font-family="Times,serif" font-size="14.00" fill="#000000">27865</text>
</g>
<!-- 5692&#45;&gt;27865 -->
<g id="edge32" class="edge">
<title>5692&#45;&gt;27865</title>
<path fill="none" stroke="#000000" d="M276.2093,-434.2692C276.1349,-434.2646 276.0609,-434.26 275.9872,-434.2554"/>
<polygon fill="#000000" stroke="#000000" points="285.9665,-431.373 275.7672,-434.2418 285.5294,-438.3595 285.9665,-431.373"/>
</g>
<!-- 28065 -->
<g id="node56" class="node">
<title>28065</title>
<ellipse fill="none" stroke="#000000" cx="269.677" cy="-455.7051" rx="32.4942" ry="18"/>
<text text-anchor="middle" x="269.677" y="-452.0051" font-family="Times,serif" font-size="14.00" fill="#000000">28065</text>
</g>
<!-- 5692&#45;&gt;28065 -->
<g id="edge33" class="edge">
<title>5692&#45;&gt;28065</title>
<path fill="none" stroke="#000000" d="M283.1896,-448.1627C283.133,-448.1943 283.0764,-448.2258 283.0199,-448.2573"/>
<polygon fill="#000000" stroke="#000000" points="289.8764,-440.4189 282.8507,-448.3518 293.2899,-446.5316 289.8764,-440.4189"/>
</g>
<!-- 52317 -->
<g id="node65" class="node">
<title>52317</title>
<ellipse fill="none" stroke="#000000" cx="340.96" cy="-454.075" rx="32.4942" ry="18"/>
<text text-anchor="middle" x="340.96" y="-450.375" font-family="Times,serif" font-size="14.00" fill="#000000">52317</text>
</g>
<!-- 5692&#45;&gt;52317 -->
<g id="edge34" class="edge">
<title>5692&#45;&gt;52317</title>
<path fill="none" stroke="#000000" d="M327.5279,-447.3636C327.5845,-447.3919 327.6411,-447.4202 327.6976,-447.4484"/>
<polygon fill="#000000" stroke="#000000" points="317.3553,-446.1916 327.8668,-447.533 320.4861,-439.9293 317.3553,-446.1916"/>
</g>
<!-- 52375 -->
<g id="node66" class="node">
<title>52375</title>
<ellipse fill="none" stroke="#000000" cx="321.657" cy="-412.5939" rx="32.4942" ry="18"/>
<text text-anchor="middle" x="321.657" y="-408.8939" font-family="Times,serif" font-size="14.00" fill="#000000">52375</text>
</g>
<!-- 5692&#45;&gt;52375 -->
<g id="edge35" class="edge">
<title>5692&#45;&gt;52375</title>
<path fill="none" stroke="#000000" d="M316.7163,-419.505C316.7597,-419.4444 316.8029,-419.3839 316.8459,-419.3237"/>
<polygon fill="#000000" stroke="#000000" points="314.0046,-429.3157 316.9746,-419.1437 308.3095,-425.2434 314.0046,-429.3157"/>
</g>
<!-- 52376 -->
<g id="node67" class="node">
<title>52376</title>
<ellipse fill="none" stroke="#000000" cx="323.4194" cy="-472.0892" rx="32.4942" ry="18"/>
<text text-anchor="middle" x="323.4194" y="-468.3892" font-family="Times,serif" font-size="14.00" fill="#000000">52376</text>
</g>
<!-- 5692&#45;&gt;52376 -->
<g id="edge36" class="edge">
<title>5692&#45;&gt;52376</title>
<path fill="none" stroke="#000000" d="M313.7192,-453.2259C313.7752,-453.3347 313.8311,-453.4435 313.8871,-453.5523"/>
<polygon fill="#000000" stroke="#000000" points="306.7047,-447.2397 314.3909,-454.5321 312.9299,-444.0382 306.7047,-447.2397"/>
</g>
<!-- 52380 -->
<g id="node68" class="node">
<title>52380</title>
<ellipse fill="none" stroke="#000000" cx="339.7111" cy="-428.6935" rx="32.4942" ry="18"/>
<text text-anchor="middle" x="339.7111" y="-424.9935" font-family="Times,serif" font-size="14.00" fill="#000000">52380</text>
</g>
<!-- 5692&#45;&gt;52380 -->
<g id="edge37" class="edge">
<title>5692&#45;&gt;52380</title>
<path fill="none" stroke="#000000" d="M332.3259,-430.2539C332.3933,-430.2397 332.4605,-430.2255 332.5273,-430.2114"/>
<polygon fill="#000000" stroke="#000000" points="323.6676,-435.6648 332.7268,-430.1692 322.2178,-428.8159 323.6676,-435.6648"/>
</g>
<!-- 52413 -->
<g id="node69" class="node">
<title>52413</title>
<ellipse fill="none" stroke="#000000" cx="288.6849" cy="-446.3239" rx="32.4942" ry="18"/>
<text text-anchor="middle" x="288.6849" y="-442.6239" font-family="Times,serif" font-size="14.00" fill="#000000">52413</text>
</g>
<!-- 5692&#45;&gt;52413 -->
<g id="edge38" class="edge">
<title>5692&#45;&gt;52413</title>
<path fill="none" stroke="#000000" d="M288.7314,-446.2944C288.7238,-446.2993 288.717,-446.3036 288.7112,-446.3072"/>
<polygon fill="#000000" stroke="#000000" points="295.2678,-437.9759 288.6967,-446.3165 299.0348,-443.8941 295.2678,-437.9759"/>
</g>
<!-- 52431 -->
<g id="node70" class="node">
<title>52431</title>
<ellipse fill="none" stroke="#000000" cx="288.1385" cy="-470.711" rx="32.4942" ry="18"/>
<text text-anchor="middle" x="288.1385" y="-467.011" font-family="Times,serif" font-size="14.00" fill="#000000">52431</text>
</g>
<!-- 5692&#45;&gt;52431 -->
<g id="edge39" class="edge">
<title>5692&#45;&gt;52431</title>
<path fill="none" stroke="#000000" d="M296.513,-453.3812C296.4802,-453.4489 296.4475,-453.5166 296.4148,-453.5842"/>
<polygon fill="#000000" stroke="#000000" points="297.5187,-443.2593 296.3167,-453.7873 303.8217,-446.3068 297.5187,-443.2593"/>
</g>
<!-- 262230 -->
<g id="node71" class="node">
<title>262230</title>
<ellipse fill="none" stroke="#000000" cx="305.6106" cy="-466.5721" rx="37.0935" ry="18"/>
<text text-anchor="middle" x="305.6106" y="-462.8721" font-family="Times,serif" font-size="14.00" fill="#000000">262230</text>
</g>
<!-- 5692&#45;&gt;262230 -->
<g id="edge40" class="edge">
<title>5692&#45;&gt;262230</title>
<path fill="none" stroke="#000000" d="M305.3165,-454.1582C305.3177,-454.2095 305.3189,-454.2608 305.3201,-454.3121"/>
<polygon fill="#000000" stroke="#000000" points="301.5815,-444.5536 305.3237,-454.4657 308.5795,-444.3833 301.5815,-444.5536"/>
</g>
<!-- 264608 -->
<g id="node72" class="node">
<title>264608</title>
<ellipse fill="none" stroke="#000000" cx="324.5817" cy="-445.1398" rx="37.0935" ry="18"/>
<text text-anchor="middle" x="324.5817" y="-441.4398" font-family="Times,serif" font-size="14.00" fill="#000000">264608</text>
</g>
<!-- 5692&#45;&gt;264608 -->
<g id="edge41" class="edge">
<title>5692&#45;&gt;264608</title>
<path fill="none" stroke="#000000" d="M324.5252,-445.1138C324.5345,-445.1181 324.5427,-445.1218 324.5498,-445.1251"/>
<polygon fill="#000000" stroke="#000000" points="314.006,-444.093 324.5675,-445.1332 316.9599,-437.7339 314.006,-444.093"/>
</g>
<!-- 6453&#45;&gt;3257 -->
<g id="edge42" class="edge">
<title>6453&#45;&gt;3257</title>
<path fill="none" stroke="#000000" d="M271.4151,-182.5967C271.3537,-182.5459 271.2924,-182.4953 271.2315,-182.4449"/>
<polygon fill="#000000" stroke="#000000" points="280.9891,-185.9667 271.0492,-182.2943 276.5295,-191.3638 280.9891,-185.9667"/>
</g>
<!-- 6461&#45;&gt;2497 -->
<g id="edge43" class="edge">
<title>6461&#45;&gt;2497</title>
<path fill="none" stroke="#000000" d="M101.0928,-90.83C101.0316,-90.8033 100.9706,-90.7766 100.9098,-90.7501"/>
<polygon fill="#000000" stroke="#000000" points="111.295,-91.4673 100.7285,-90.6709 108.4921,-97.8829 111.295,-91.4673"/>
</g>
<!-- 6695 -->
<g id="node31" class="node">
<title>6695</title>
<ellipse fill="none" stroke="#000000" cx="748.7868" cy="-287.3378" rx="28.6953" ry="18"/>
<text text-anchor="middle" x="748.7868" y="-283.6378" font-family="Times,serif" font-size="14.00" fill="#000000">6695</text>
</g>
<!-- 6762&#45;&gt;2914 -->
<g id="edge44" class="edge">
<title>6762&#45;&gt;2914</title>
<path fill="none" stroke="#000000" d="M323.293,-227.0673C323.2164,-226.9993 323.14,-226.9315 323.0638,-226.864"/>
<polygon fill="#000000" stroke="#000000" points="332.6401,-230.6817 322.836,-226.6618 327.9933,-235.9182 332.6401,-230.6817"/>
</g>
<!-- 6904 -->
<g id="node33" class="node">
<title>6904</title>
<ellipse fill="none" stroke="#000000" cx="451.1932" cy="-230.69" rx="28.6953" ry="18"/>
<text text-anchor="middle" x="451.1932" y="-226.99" font-family="Times,serif" font-size="14.00" fill="#000000">6904</text>
</g>
<!-- 6904&#45;&gt;2687 -->
<g id="edge45" class="edge">
<title>6904&#45;&gt;2687</title>
<path fill="none" stroke="#000000" d="M476.1347,-221.7672C476.2114,-221.7397 476.2881,-221.7123 476.3648,-221.6849"/>
<polygon fill="#000000" stroke="#000000" points="468.3586,-228.2694 476.5945,-221.6027 465.9988,-221.6783 468.3586,-228.2694"/>
</g>
<!-- 6939 -->
<g id="node34" class="node">
<title>6939</title>
<ellipse fill="none" stroke="#000000" cx="685.7789" cy="-156.7003" rx="28.6953" ry="18"/>
<text text-anchor="middle" x="685.7789" y="-153.0003" font-family="Times,serif" font-size="14.00" fill="#000000">6939</text>
</g>
<!-- 12266 -->
<g id="node48" class="node">
<title>12266</title>
<ellipse fill="none" stroke="#000000" cx="691.6808" cy="-118.4168" rx="32.4942" ry="18"/>
<text text-anchor="middle" x="691.6808" y="-114.7168" font-family="Times,serif" font-size="14.00" fill="#000000">12266</text>
</g>
<!-- 6939&#45;&gt;12266 -->
<g id="edge46" class="edge">
<title>6939&#45;&gt;12266</title>
<path fill="none" stroke="#000000" d="M688.5915,-138.4555C688.6153,-138.3015 688.6391,-138.1473 688.6628,-137.9931"/>
<polygon fill="#000000" stroke="#000000" points="690.8116,-147.0223 688.8767,-136.6056 683.8934,-145.9553 690.8116,-147.0223"/>
</g>
<!-- 7016 -->
<g id="node35" class="node">
<title>7016</title>
<ellipse fill="none" stroke="#000000" cx="421.9549" cy="-273.905" rx="28.6953" ry="18"/>
<text text-anchor="middle" x="421.9549" y="-270.205" font-family="Times,serif" font-size="14.00" fill="#000000">7016</text>
</g>
<!-- 7922 -->
<g id="node40" class="node">
<title>7922</title>
<ellipse fill="none" stroke="#000000" cx="431.8476" cy="-296.4977" rx="28.6953" ry="18"/>
<text text-anchor="middle" x="431.8476" y="-292.7977" font-family="Times,serif" font-size="14.00" fill="#000000">7922</text>
</g>
<!-- 7016&#45;&gt;7922 -->
<g id="edge47" class="edge">
<title>7016&#45;&gt;7922</title>
<path fill="none" stroke="#000000" d="M429.7496,-291.7063C429.7879,-291.7939 429.8259,-291.8806 429.8635,-291.9665"/>
<polygon fill="#000000" stroke="#000000" points="422.7558,-284.4656 429.9752,-292.2216 429.1682,-281.6564 422.7558,-284.4656"/>
</g>
<!-- 7473 -->
<g id="node37" class="node">
<title>7473</title>
<ellipse fill="none" stroke="#000000" cx="502.4067" cy="-263.3023" rx="28.6953" ry="18"/>
<text text-anchor="middle" x="502.4067" y="-259.6023" font-family="Times,serif" font-size="14.00" fill="#000000">7473</text>
</g>
<!-- 7474 -->
<g id="node38" class="node">
<title>7474</title>
<ellipse fill="none" stroke="#000000" cx="594.0516" cy="-251.1395" rx="28.6953" ry="18"/>
<text text-anchor="middle" x="594.0516" y="-247.4395" font-family="Times,serif" font-size="14.00" fill="#000000">7474</text>
</g>
<!-- 7545&#45;&gt;4635 -->
<g id="edge48" class="edge">
<title>7545&#45;&gt;4635</title>
<path fill="none" stroke="#000000" d="M662.7253,-184.5264C662.6451,-184.4434 662.5666,-184.3623 662.49,-184.2831"/>
<polygon fill="#000000" stroke="#000000" points="671.7355,-188.8063 662.266,-184.0516 666.7037,-193.6738 671.7355,-188.8063"/>
</g>
<!-- 7545&#45;&gt;4739 -->
<g id="edge49" class="edge">
<title>7545&#45;&gt;4739</title>
<path fill="none" stroke="#000000" d="M694.5394,-214.8836C694.6048,-214.9413 694.6702,-214.999 694.7356,-215.0567"/>
<polygon fill="#000000" stroke="#000000" points="685.1167,-211.236 694.9317,-215.2298 689.7495,-205.987 685.1167,-211.236"/>
</g>
<!-- 7545&#45;&gt;6939 -->
<g id="edge50" class="edge">
<title>7545&#45;&gt;6939</title>
<path fill="none" stroke="#000000" d="M681.0908,-182.2026C681.1187,-182.0508 681.1467,-181.8988 681.1747,-181.7465"/>
<polygon fill="#000000" stroke="#000000" points="684.0773,-185.3144 682.4431,-174.8464 677.1927,-184.0487 684.0773,-185.3144"/>
</g>
<!-- 9942 -->
<g id="node44" class="node">
<title>9942</title>
<ellipse fill="none" stroke="#000000" cx="702.1004" cy="-188.7974" rx="28.6953" ry="18"/>
<text text-anchor="middle" x="702.1004" y="-185.0974" font-family="Times,serif" font-size="14.00" fill="#000000">9942</text>
</g>
<!-- 7545&#45;&gt;9942 -->
<g id="edge51" class="edge">
<title>7545&#45;&gt;9942</title>
<path fill="none" stroke="#000000" d="M700.7939,-189.4056C701.0003,-189.3095 701.1853,-189.2234 701.3465,-189.1484"/>
<polygon fill="#000000" stroke="#000000" points="694.1682,-196.3518 701.7569,-188.9573 691.2133,-190.0055 694.1682,-196.3518"/>
</g>
<!-- 9002 -->
<g id="node41" class="node">
<title>9002</title>
<ellipse fill="none" stroke="#000000" cx="724.9193" cy="-278.3162" rx="28.6953" ry="18"/>
<text text-anchor="middle" x="724.9193" y="-274.6162" font-family="Times,serif" font-size="14.00" fill="#000000">9002</text>
</g>
<!-- 9443 -->
<g id="node42" class="node">
<title>9443</title>
<ellipse fill="none" stroke="#000000" cx="774.8623" cy="-267.8873" rx="28.6953" ry="18"/>
<text text-anchor="middle" x="774.8623" y="-264.1873" font-family="Times,serif" font-size="14.00" fill="#000000">9443</text>
</g>
<!-- 9443&#45;&gt;4826 -->
<g id="edge52" class="edge">
<title>9443&#45;&gt;4826</title>
<path fill="none" stroke="#000000" d="M799.8293,-277.0893C799.8868,-277.1105 799.9436,-277.1314 799.9997,-277.1521"/>
<polygon fill="#000000" stroke="#000000" points="789.5709,-277.0356 800.1659,-277.2134 791.9943,-270.4673 789.5709,-277.0356"/>
</g>
<!-- 9505&#45;&gt;7473 -->
<g id="edge53" class="edge">
<title>9505&#45;&gt;7473</title>
<path fill="none" stroke="#000000" d="M501.597,-257.8361C501.6044,-257.8856 501.6117,-257.9348 501.6189,-257.9838"/>
<polygon fill="#000000" stroke="#000000" points="496.7074,-248.7529 501.6406,-258.1302 503.6319,-247.7232 496.7074,-248.7529"/>
</g>
<!-- 12956 -->
<g id="node49" class="node">
<title>12956</title>
<ellipse fill="none" stroke="#000000" cx="333.4921" cy="-344.1331" rx="32.4942" ry="18"/>
<text text-anchor="middle" x="333.4921" y="-340.4331" font-family="Times,serif" font-size="14.00" fill="#000000">12956</text>
</g>
<!-- 10834&#45;&gt;12956 -->
<g id="edge54" class="edge">
<title>10834&#45;&gt;12956</title>
<path fill="none" stroke="#000000" d="M323.4829,-366.4559C323.5275,-366.3565 323.572,-366.2571 323.6166,-366.1576"/>
<polygon fill="#000000" stroke="#000000" points="324.7316,-372.2253 325.6295,-361.6686 318.3443,-369.3613 324.7316,-372.2253"/>
</g>
<!-- 22927 -->
<g id="node54" class="node">
<title>22927</title>
<ellipse fill="none" stroke="#000000" cx="299.33" cy="-362.4759" rx="32.4942" ry="18"/>
<text text-anchor="middle" x="299.33" y="-358.7759" font-family="Times,serif" font-size="14.00" fill="#000000">22927</text>
</g>
<!-- 10834&#45;&gt;22927 -->
<g id="edge55" class="edge">
<title>10834&#45;&gt;22927</title>
<path fill="none" stroke="#000000" d="M302.7741,-367.0627C302.7112,-366.9789 302.6488,-366.8959 302.5871,-366.8137"/>
<polygon fill="#000000" stroke="#000000" points="311.2085,-372.4648 302.4037,-366.5694 305.6104,-376.6688 311.2085,-372.4648"/>
</g>
<!-- 12189 -->
<g id="node47" class="node">
<title>12189</title>
<ellipse fill="none" stroke="#000000" cx="691.6692" cy="-46.0043" rx="32.4942" ry="18"/>
<text text-anchor="middle" x="691.6692" y="-42.3043" font-family="Times,serif" font-size="14.00" fill="#000000">12189</text>
</g>
<!-- 17819 -->
<g id="node51" class="node">
<title>17819</title>
<ellipse fill="none" stroke="#000000" cx="685.7278" cy="-18" rx="32.4942" ry="18"/>
<text text-anchor="middle" x="685.7278" y="-14.3" font-family="Times,serif" font-size="14.00" fill="#000000">17819</text>
</g>
<!-- 12189&#45;&gt;17819 -->
<g id="edge56" class="edge">
<title>12189&#45;&gt;17819</title>
<path fill="none" stroke="#000000" d="M687.8728,-28.1102C687.8637,-28.0673 687.8546,-28.0245 687.8455,-27.9817"/>
<polygon fill="#000000" stroke="#000000" points="693.3236,-36.9075 687.8183,-27.8536 686.4759,-38.3645 693.3236,-36.9075"/>
</g>
<!-- 28666 -->
<g id="node57" class="node">
<title>28666</title>
<ellipse fill="none" stroke="#000000" cx="666.7339" cy="-38.2687" rx="32.4942" ry="18"/>
<text text-anchor="middle" x="666.7339" y="-34.5687" font-family="Times,serif" font-size="14.00" fill="#000000">28666</text>
</g>
<!-- 12189&#45;&gt;28666 -->
<g id="edge57" class="edge">
<title>12189&#45;&gt;28666</title>
<path fill="none" stroke="#000000" d="M666.8054,-38.2909C666.7936,-38.2873 666.7833,-38.2841 666.7743,-38.2813"/>
<polygon fill="#000000" stroke="#000000" points="677.3523,-37.9237 666.752,-38.2744 675.2573,-44.6107 677.3523,-37.9237"/>
</g>
<!-- 38930 -->
<g id="node64" class="node">
<title>38930</title>
<ellipse fill="none" stroke="#000000" cx="716.6021" cy="-32.9529" rx="32.4942" ry="18"/>
<text text-anchor="middle" x="716.6021" y="-29.2529" font-family="Times,serif" font-size="14.00" fill="#000000">38930</text>
</g>
<!-- 12189&#45;&gt;38930 -->
<g id="edge58" class="edge">
<title>12189&#45;&gt;38930</title>
<path fill="none" stroke="#000000" d="M715.5308,-33.5137C715.7012,-33.4245 715.8534,-33.3449 715.9858,-33.2756"/>
<polygon fill="#000000" stroke="#000000" points="709.0859,-40.8395 716.3221,-33.0995 705.8386,-34.6376 709.0859,-40.8395"/>
</g>
<!-- 20454 -->
<g id="node53" class="node">
<title>20454</title>
<ellipse fill="none" stroke="#000000" cx="694.4716" cy="-81.5825" rx="32.4942" ry="18"/>
<text text-anchor="middle" x="694.4716" y="-77.8825" font-family="Times,serif" font-size="14.00" fill="#000000">20454</text>
</g>
<!-- 12266&#45;&gt;20454 -->
<g id="edge59" class="edge">
<title>12266&#45;&gt;20454</title>
<path fill="none" stroke="#000000" d="M693.0435,-100.4313C693.049,-100.3582 693.0546,-100.2852 693.0601,-100.2121"/>
<polygon fill="#000000" stroke="#000000" points="695.807,-110.2302 693.0767,-99.9929 688.827,-109.6984 695.807,-110.2302"/>
</g>
<!-- 12956&#45;&gt;3356 -->
<g id="edge60" class="edge">
<title>12956&#45;&gt;3356</title>
<path fill="none" stroke="#000000" d="M341.6762,-326.4292C341.73,-326.3127 341.7839,-326.1961 341.8379,-326.0794"/>
<polygon fill="#000000" stroke="#000000" points="341.9517,-334.174 342.971,-323.6282 335.5977,-331.2366 341.9517,-334.174"/>
</g>
<!-- 18540 -->
<g id="node52" class="node">
<title>18540</title>
<ellipse fill="none" stroke="#000000" cx="400.2903" cy="-226.6405" rx="32.4942" ry="18"/>
<text text-anchor="middle" x="400.2903" y="-222.9405" font-family="Times,serif" font-size="14.00" fill="#000000">18540</text>
</g>
<!-- 20454&#45;&gt;12189 -->
<g id="edge61" class="edge">
<title>20454&#45;&gt;12189</title>
<path fill="none" stroke="#000000" d="M693.0376,-63.3765C693.0322,-63.3081 693.0268,-63.2397 693.0214,-63.1714"/>
<polygon fill="#000000" stroke="#000000" points="697.2842,-72.659 693.0053,-62.9663 690.3058,-73.2118 697.2842,-72.659"/>
</g>
<!-- 30070&#45;&gt;6904 -->
<g id="edge62" class="edge">
<title>30070&#45;&gt;6904</title>
<path fill="none" stroke="#000000" d="M435.5655,-237.908C435.6309,-237.8778 435.6963,-237.8476 435.7617,-237.8174"/>
<polygon fill="#000000" stroke="#000000" points="428.3471,-245.1004 435.9574,-237.727 425.4101,-238.7452 428.3471,-245.1004"/>
</g>
<!-- 30070&#45;&gt;7016 -->
<g id="edge63" class="edge">
<title>30070&#45;&gt;7016</title>
<path fill="none" stroke="#000000" d="M418.6948,-266.9764C418.7236,-267.0375 418.7522,-267.0984 418.7808,-267.1591"/>
<polygon fill="#000000" stroke="#000000" points="411.4387,-259.7826 418.8661,-267.3404 417.7729,-256.8004 411.4387,-259.7826"/>
</g>
<!-- 30070&#45;&gt;18540 -->
<g id="edge64" class="edge">
<title>30070&#45;&gt;18540</title>
<path fill="none" stroke="#000000" d="M402.6516,-231.942C402.6302,-231.8941 402.609,-231.8463 402.5878,-231.7988"/>
<polygon fill="#000000" stroke="#000000" points="409.7944,-239.3668 402.5245,-231.6568 403.3996,-242.2176 409.7944,-239.3668"/>
</g>
<!-- 32787&#45;&gt;2764 -->
<g id="edge65" class="edge">
<title>32787&#45;&gt;2764</title>
<path fill="none" stroke="#000000" d="M619.9968,-224.8182C620.0607,-224.8154 620.1245,-224.8125 620.1882,-224.8097"/>
<polygon fill="#000000" stroke="#000000" points="610.5471,-228.7497 620.3788,-224.8011 610.2306,-221.7567 610.5471,-228.7497"/>
</g>
<!-- 32787&#45;&gt;4637 -->
<g id="edge66" class="edge">
<title>32787&#45;&gt;4637</title>
<path fill="none" stroke="#000000" d="M567.5312,-238.0927C567.5218,-238.0983 567.5135,-238.1032 567.5063,-238.1075"/>
<polygon fill="#000000" stroke="#000000" points="574.3047,-229.9828 567.4884,-238.1181 577.8903,-236.0092 574.3047,-229.9828"/>
</g>
<!-- 32787&#45;&gt;7474 -->
<g id="edge67" class="edge">
<title>32787&#45;&gt;7474</title>
<path fill="none" stroke="#000000" d="M592.2537,-244.3448C592.2696,-244.4051 592.2855,-244.4651 592.3013,-244.5249"/>
<polygon fill="#000000" stroke="#000000" points="586.4029,-235.9329 592.3486,-244.7036 593.1701,-234.1394 586.4029,-235.9329"/>
</g>
<!-- 38333&#45;&gt;1221 -->
<g id="edge68" class="edge">
<title>38333&#45;&gt;1221</title>
<path fill="none" stroke="#000000" d="M638.6576,-276.1684C638.6645,-276.2448 638.6715,-276.3211 638.6784,-276.397"/>
<polygon fill="#000000" stroke="#000000" points="634.3029,-266.9841 638.6991,-276.6243 641.2741,-266.3467 634.3029,-266.9841"/>
</g>
<!-- 38880&#45;&gt;6695 -->
<g id="edge69" class="edge">
<title>38880&#45;&gt;6695</title>
<path fill="none" stroke="#000000" d="M746.0455,-277.2234C746.0571,-277.2663 746.0688,-277.3091 746.0804,-277.3519"/>
<polygon fill="#000000" stroke="#000000" points="740.1154,-268.7456 746.1151,-277.4801 746.8719,-266.9106 740.1154,-268.7456"/>
</g>
<!-- 38880&#45;&gt;9002 -->
<g id="edge70" class="edge">
<title>38880&#45;&gt;9002</title>
<path fill="none" stroke="#000000" d="M727.1822,-275.6751C727.1394,-275.725 727.0971,-275.7744 727.0552,-275.8233"/>
<polygon fill="#000000" stroke="#000000" points="730.7811,-266.0951 726.9311,-275.9681 736.0977,-270.6509 730.7811,-266.0951"/>
</g>
<!-- 38880&#45;&gt;9443 -->
<g id="edge71" class="edge">
<title>38880&#45;&gt;9443</title>
<path fill="none" stroke="#000000" d="M770.7339,-266.837C770.8125,-266.857 770.8903,-266.8768 770.9672,-266.8964"/>
<polygon fill="#000000" stroke="#000000" points="760.6396,-267.8776 771.1951,-266.9543 762.3677,-261.0936 760.6396,-267.8776"/>
</g>
</g>
</svg>
