<?xml version="1.0" encoding="UTF-8" standalone="no"?>
<!DOCTYPE svg PUBLIC "-//W3C//DTD SVG 1.1//EN"
 "http://www.w3.org/Graphics/SVG/1.1/DTD/svg11.dtd">
<!-- Generated by graphviz version 2.38.0 (20140413.2041)
 -->
<!-- Title: %3 Pages: 1 -->
<svg width="156pt" height="188pt"
 viewBox="0.00 0.00 155.99 188.00" xmlns="http://www.w3.org/2000/svg" xmlns:xlink="http://www.w3.org/1999/xlink">
<g id="graph0" class="graph" transform="scale(1 1) rotate(0) translate(4 184)">
<title>%3</title>
<polygon fill="white" stroke="none" points="-4,4 -4,-184 151.994,-184 151.994,4 -4,4"/>
<!-- 5692 -->
<g id="node1" class="node"><title>5692</title>
<ellipse fill="none" stroke="black" cx="73.4971" cy="-162" rx="28.6953" ry="18"/>
<text text-anchor="middle" x="73.4971" y="-158.3" font-family="Times,serif" font-size="14.00">5692</text>
</g>
<!-- 10834 -->
<g id="node2" class="node"><title>10834</title>
<ellipse fill="none" stroke="black" cx="73.4971" cy="-90" rx="32.4942" ry="18"/>
<text text-anchor="middle" x="73.4971" y="-86.3" font-family="Times,serif" font-size="14.00">10834</text>
</g>
<!-- 5692&#45;&gt;10834 -->
<g id="edge1" class="edge"><title>5692&#45;&gt;10834</title>
<path fill="none" stroke="black" d="M73.4971,-143.697C73.4971,-135.983 73.4971,-126.712 73.4971,-118.112"/>
<polygon fill="black" stroke="black" points="76.9972,-118.104 73.4971,-108.104 69.9972,-118.104 76.9972,-118.104"/>
</g>
<!-- 12956 -->
<g id="node3" class="node"><title>12956</title>
<ellipse fill="none" stroke="black" cx="32.4971" cy="-18" rx="32.4942" ry="18"/>
<text text-anchor="middle" x="32.4971" y="-14.3" font-family="Times,serif" font-size="14.00">12956</text>
</g>
<!-- 10834&#45;&gt;12956 -->
<g id="edge2" class="edge"><title>10834&#45;&gt;12956</title>
<path fill="none" stroke="black" d="M63.9878,-72.7646C59.0401,-64.3172 52.8796,-53.7993 47.3228,-44.3122"/>
<polygon fill="black" stroke="black" points="50.3137,-42.4933 42.2395,-35.6334 44.2735,-46.0312 50.3137,-42.4933"/>
</g>
<!-- 22927 -->
<g id="node4" class="node"><title>22927</title>
<ellipse fill="none" stroke="black" cx="115.497" cy="-18" rx="32.4942" ry="18"/>
<text text-anchor="middle" x="115.497" y="-14.3" font-family="Times,serif" font-size="14.00">22927</text>
</g>
<!-- 10834&#45;&gt;22927 -->
<g id="edge3" class="edge"><title>10834&#45;&gt;22927</title>
<path fill="none" stroke="black" d="M83.2383,-72.7646C88.3068,-64.3172 94.6175,-53.7993 100.31,-44.3122"/>
<polygon fill="black" stroke="black" points="103.373,-46.0091 105.517,-35.6334 97.3708,-42.4076 103.373,-46.0091"/>
</g>
</g>
</svg>
