<?xml version="1.0" encoding="UTF-8" standalone="no"?>
<!DOCTYPE svg PUBLIC "-//W3C//DTD SVG 1.1//EN"
 "http://www.w3.org/Graphics/SVG/1.1/DTD/svg11.dtd">
<!-- Generated by graphviz version 2.38.0 (20140413.2041)
 -->
<!-- Title: %3 Pages: 1 -->
<svg width="181pt" height="169pt"
 viewBox="0.00 0.00 180.99 168.71" xmlns="http://www.w3.org/2000/svg" xmlns:xlink="http://www.w3.org/1999/xlink">
<g id="graph0" class="graph" transform="scale(1 1) rotate(0) translate(4 164.708)">
<title>%3</title>
<polygon fill="white" stroke="none" points="-4,4 -4,-164.708 176.994,-164.708 176.994,4 -4,4"/>
<!-- 5692 -->
<g id="node1" class="node"><title>5692</title>
<ellipse fill="none" stroke="black" cx="140.497" cy="-18" rx="28.6953" ry="18"/>
<text text-anchor="middle" x="140.497" y="-14.3" font-family="Times,serif" font-size="14.00">5692</text>
</g>
<!-- 10834 -->
<g id="node2" class="node"><title>10834</title>
<ellipse fill="none" stroke="black" cx="104.497" cy="-80.3538" rx="32.4942" ry="18"/>
<text text-anchor="middle" x="104.497" y="-76.6538" font-family="Times,serif" font-size="14.00">10834</text>
</g>
<!-- 5692&#45;&gt;10834 -->
<g id="edge1" class="edge"><title>5692&#45;&gt;10834</title>
<path fill="none" stroke="black" d="M130.66,-35.0385C127.303,-40.8528 123.466,-47.4996 119.783,-53.8777"/>
<polygon fill="black" stroke="black" points="116.542,-52.4916 114.573,-62.9019 122.604,-55.9916 116.542,-52.4916"/>
</g>
<!-- 12956 -->
<g id="node3" class="node"><title>12956</title>
<ellipse fill="none" stroke="black" cx="140.497" cy="-142.708" rx="32.4942" ry="18"/>
<text text-anchor="middle" x="140.497" y="-139.008" font-family="Times,serif" font-size="14.00">12956</text>
</g>
<!-- 10834&#45;&gt;12956 -->
<g id="edge2" class="edge"><title>10834&#45;&gt;12956</title>
<path fill="none" stroke="black" d="M114.525,-97.7228C117.88,-103.534 121.698,-110.146 125.354,-116.479"/>
<polygon fill="black" stroke="black" points="122.492,-118.522 130.523,-125.432 128.554,-115.022 122.492,-118.522"/>
</g>
<!-- 22927 -->
<g id="node4" class="node"><title>22927</title>
<ellipse fill="none" stroke="black" cx="32.4971" cy="-80.3538" rx="32.4942" ry="18"/>
<text text-anchor="middle" x="32.4971" y="-76.6538" font-family="Times,serif" font-size="14.00">22927</text>
</g>
<!-- 10834&#45;&gt;22927 -->
<g id="edge3" class="edge"><title>10834&#45;&gt;22927</title>
<path fill="none" stroke="black" d="M71.8677,-80.3538C71.7282,-80.3538 71.5886,-80.3538 71.4489,-80.3538"/>
<polygon fill="black" stroke="black" points="75.1528,-76.854 65.1528,-80.3538 75.1527,-83.854 75.1528,-76.854"/>
</g>
</g>
</svg>
