<?xml version="1.0" encoding="UTF-8" standalone="no"?>
<!DOCTYPE svg PUBLIC "-//W3C//DTD SVG 1.1//EN"
 "http://www.w3.org/Graphics/SVG/1.1/DTD/svg11.dtd">
<!-- Generated by graphviz version 2.38.0 (20140413.2041)
 -->
<!-- Title: %3 Pages: 1 -->
<svg width="339pt" height="318pt"
 viewBox="0.00 0.00 339.18 317.99" xmlns="http://www.w3.org/2000/svg" xmlns:xlink="http://www.w3.org/1999/xlink">
<g id="graph0" class="graph" transform="scale(1 1) rotate(0) translate(4 313.988)">
<title>%3</title>
<polygon fill="white" stroke="none" points="-4,4 -4,-313.988 335.183,-313.988 335.183,4 -4,4"/>
<!-- 5692 -->
<g id="node1" class="node"><title>5692</title>
<ellipse fill="none" stroke="black" cx="28.5975" cy="-154.994" rx="28.6953" ry="18"/>
<text text-anchor="middle" x="28.5975" y="-151.294" font-family="Times,serif" font-size="14.00">5692</text>
</g>
<!-- 10834 -->
<g id="node2" class="node"><title>10834</title>
<ellipse fill="none" stroke="black" cx="298.686" cy="-154.994" rx="32.4942" ry="18"/>
<text text-anchor="middle" x="298.686" y="-151.294" font-family="Times,serif" font-size="14.00">10834</text>
</g>
<!-- 5692&#45;&gt;10834 -->
<g id="edge1" class="edge"><title>5692&#45;&gt;10834</title>
<path fill="none" stroke="black" d="M57.246,-154.994C104.82,-154.994 200.367,-154.994 255.938,-154.994"/>
<polygon fill="black" stroke="black" points="256.16,-158.494 266.16,-154.994 256.16,-151.494 256.16,-158.494"/>
</g>
<!-- 12956 -->
<g id="node3" class="node"><title>12956</title>
<ellipse fill="none" stroke="black" cx="298.686" cy="-18" rx="32.4942" ry="18"/>
<text text-anchor="middle" x="298.686" y="-14.3" font-family="Times,serif" font-size="14.00">12956</text>
</g>
<!-- 10834&#45;&gt;12956 -->
<g id="edge2" class="edge"><title>10834&#45;&gt;12956</title>
<path fill="none" stroke="black" d="M298.686,-136.802C298.686,-113.671 298.686,-73.4813 298.686,-46.323"/>
<polygon fill="black" stroke="black" points="302.186,-46.267 298.686,-36.267 295.186,-46.2671 302.186,-46.267"/>
</g>
<!-- 22927 -->
<g id="node4" class="node"><title>22927</title>
<ellipse fill="none" stroke="black" cx="298.686" cy="-291.988" rx="32.4942" ry="18"/>
<text text-anchor="middle" x="298.686" y="-288.288" font-family="Times,serif" font-size="14.00">22927</text>
</g>
<!-- 10834&#45;&gt;22927 -->
<g id="edge3" class="edge"><title>10834&#45;&gt;22927</title>
<path fill="none" stroke="black" d="M298.686,-173.186C298.686,-196.317 298.686,-236.507 298.686,-263.665"/>
<polygon fill="black" stroke="black" points="295.186,-263.721 298.686,-273.721 302.186,-263.721 295.186,-263.721"/>
</g>
</g>
</svg>
