<?xml version="1.0" encoding="UTF-8" standalone="no"?>
<!DOCTYPE svg PUBLIC "-//W3C//DTD SVG 1.1//EN"
 "http://www.w3.org/Graphics/SVG/1.1/DTD/svg11.dtd">
<!-- Generated by graphviz version 2.38.0 (20140413.2041)
 -->
<!-- Title: %3 Pages: 1 -->
<svg width="1257pt" height="332pt"
 viewBox="0.00 0.00 1256.60 332.00" xmlns="http://www.w3.org/2000/svg" xmlns:xlink="http://www.w3.org/1999/xlink">
<g id="graph0" class="graph" transform="scale(1 1) rotate(0) translate(4 328)">
<title>%3</title>
<polygon fill="white" stroke="none" points="-4,4 -4,-328 1252.6,-328 1252.6,4 -4,4"/>
<!-- 174 -->
<g id="node1" class="node"><title>174</title>
<ellipse fill="none" stroke="black" cx="27" cy="-18" rx="27" ry="18"/>
<text text-anchor="middle" x="27" y="-14.3" font-family="Times,serif" font-size="14.00">174</text>
</g>
<!-- 209 -->
<g id="node2" class="node"><title>209</title>
<ellipse fill="none" stroke="black" cx="99" cy="-18" rx="27" ry="18"/>
<text text-anchor="middle" x="99" y="-14.3" font-family="Times,serif" font-size="14.00">209</text>
</g>
<!-- 701 -->
<g id="node3" class="node"><title>701</title>
<ellipse fill="none" stroke="black" cx="171" cy="-18" rx="27" ry="18"/>
<text text-anchor="middle" x="171" y="-14.3" font-family="Times,serif" font-size="14.00">701</text>
</g>
<!-- 1239 -->
<g id="node4" class="node"><title>1239</title>
<ellipse fill="none" stroke="black" cx="245" cy="-18" rx="28.6953" ry="18"/>
<text text-anchor="middle" x="245" y="-14.3" font-family="Times,serif" font-size="14.00">1239</text>
</g>
<!-- 1273 -->
<g id="node5" class="node"><title>1273</title>
<ellipse fill="none" stroke="black" cx="320" cy="-18" rx="28.6953" ry="18"/>
<text text-anchor="middle" x="320" y="-14.3" font-family="Times,serif" font-size="14.00">1273</text>
</g>
<!-- 1299 -->
<g id="node6" class="node"><title>1299</title>
<ellipse fill="none" stroke="black" cx="395" cy="-18" rx="28.6953" ry="18"/>
<text text-anchor="middle" x="395" y="-14.3" font-family="Times,serif" font-size="14.00">1299</text>
</g>
<!-- 2914 -->
<g id="node7" class="node"><title>2914</title>
<ellipse fill="none" stroke="black" cx="470" cy="-18" rx="28.6953" ry="18"/>
<text text-anchor="middle" x="470" y="-14.3" font-family="Times,serif" font-size="14.00">2914</text>
</g>
<!-- 3257 -->
<g id="node8" class="node"><title>3257</title>
<ellipse fill="none" stroke="black" cx="545" cy="-18" rx="28.6953" ry="18"/>
<text text-anchor="middle" x="545" y="-14.3" font-family="Times,serif" font-size="14.00">3257</text>
</g>
<!-- 3320 -->
<g id="node9" class="node"><title>3320</title>
<ellipse fill="none" stroke="black" cx="620" cy="-18" rx="28.6953" ry="18"/>
<text text-anchor="middle" x="620" y="-14.3" font-family="Times,serif" font-size="14.00">3320</text>
</g>
<!-- 3356 -->
<g id="node10" class="node"><title>3356</title>
<ellipse fill="none" stroke="black" cx="695" cy="-18" rx="28.6953" ry="18"/>
<text text-anchor="middle" x="695" y="-14.3" font-family="Times,serif" font-size="14.00">3356</text>
</g>
<!-- 3491 -->
<g id="node11" class="node"><title>3491</title>
<ellipse fill="none" stroke="black" cx="770" cy="-18" rx="28.6953" ry="18"/>
<text text-anchor="middle" x="770" y="-14.3" font-family="Times,serif" font-size="14.00">3491</text>
</g>
<!-- 3549 -->
<g id="node12" class="node"><title>3549</title>
<ellipse fill="none" stroke="black" cx="845" cy="-18" rx="28.6953" ry="18"/>
<text text-anchor="middle" x="845" y="-14.3" font-family="Times,serif" font-size="14.00">3549</text>
</g>
<!-- 5511 -->
<g id="node13" class="node"><title>5511</title>
<ellipse fill="none" stroke="black" cx="920" cy="-18" rx="28.6953" ry="18"/>
<text text-anchor="middle" x="920" y="-14.3" font-family="Times,serif" font-size="14.00">5511</text>
</g>
<!-- 5692 -->
<g id="node14" class="node"><title>5692</title>
<ellipse fill="none" stroke="black" cx="620" cy="-306" rx="28.6953" ry="18"/>
<text text-anchor="middle" x="620" y="-302.3" font-family="Times,serif" font-size="14.00">5692</text>
</g>
<!-- 10834 -->
<g id="node19" class="node"><title>10834</title>
<ellipse fill="none" stroke="black" cx="620" cy="-234" rx="32.4942" ry="18"/>
<text text-anchor="middle" x="620" y="-230.3" font-family="Times,serif" font-size="14.00">10834</text>
</g>
<!-- 5692&#45;&gt;10834 -->
<g id="edge1" class="edge"><title>5692&#45;&gt;10834</title>
<path fill="none" stroke="black" d="M620,-287.697C620,-279.983 620,-270.712 620,-262.112"/>
<polygon fill="black" stroke="black" points="623.5,-262.104 620,-252.104 616.5,-262.104 623.5,-262.104"/>
</g>
<!-- 6453 -->
<g id="node15" class="node"><title>6453</title>
<ellipse fill="none" stroke="black" cx="995" cy="-18" rx="28.6953" ry="18"/>
<text text-anchor="middle" x="995" y="-14.3" font-family="Times,serif" font-size="14.00">6453</text>
</g>
<!-- 6461 -->
<g id="node16" class="node"><title>6461</title>
<ellipse fill="none" stroke="black" cx="1070" cy="-18" rx="28.6953" ry="18"/>
<text text-anchor="middle" x="1070" y="-14.3" font-family="Times,serif" font-size="14.00">6461</text>
</g>
<!-- 6762 -->
<g id="node17" class="node"><title>6762</title>
<ellipse fill="none" stroke="black" cx="1145" cy="-18" rx="28.6953" ry="18"/>
<text text-anchor="middle" x="1145" y="-14.3" font-family="Times,serif" font-size="14.00">6762</text>
</g>
<!-- 7018 -->
<g id="node18" class="node"><title>7018</title>
<ellipse fill="none" stroke="black" cx="1220" cy="-18" rx="28.6953" ry="18"/>
<text text-anchor="middle" x="1220" y="-14.3" font-family="Times,serif" font-size="14.00">7018</text>
</g>
<!-- 12956 -->
<g id="node20" class="node"><title>12956</title>
<ellipse fill="none" stroke="black" cx="620" cy="-90" rx="32.4942" ry="18"/>
<text text-anchor="middle" x="620" y="-86.3" font-family="Times,serif" font-size="14.00">12956</text>
</g>
<!-- 10834&#45;&gt;12956 -->
<g id="edge2" class="edge"><title>10834&#45;&gt;12956</title>
<path fill="none" stroke="black" d="M615.536,-215.953C613.065,-205.63 610.248,-192.153 609,-180 607.366,-164.084 607.366,-159.916 609,-144 609.877,-135.455 611.531,-126.255 613.294,-117.958"/>
<polygon fill="black" stroke="black" points="616.743,-118.573 615.536,-108.047 609.915,-117.028 616.743,-118.573"/>
</g>
<!-- 22927 -->
<g id="node21" class="node"><title>22927</title>
<ellipse fill="none" stroke="black" cx="650" cy="-162" rx="32.4942" ry="18"/>
<text text-anchor="middle" x="650" y="-158.3" font-family="Times,serif" font-size="14.00">22927</text>
</g>
<!-- 10834&#45;&gt;22927 -->
<g id="edge3" class="edge"><title>10834&#45;&gt;22927</title>
<path fill="none" stroke="black" d="M627.11,-216.411C630.571,-208.335 634.815,-198.431 638.705,-189.355"/>
<polygon fill="black" stroke="black" points="642.011,-190.526 642.733,-179.956 635.577,-187.769 642.011,-190.526"/>
</g>
<!-- 12956&#45;&gt;174 -->
<g id="edge4" class="edge"><title>12956&#45;&gt;174</title>
<path fill="none" stroke="black" d="M587.674,-87.3923C484.362,-82.0244 163.11,-63.4933 63,-36 61.0505,-35.4646 59.0765,-34.8296 57.109,-34.1248"/>
<polygon fill="black" stroke="black" points="58.0498,-30.7271 47.4703,-30.1564 55.3848,-37.2 58.0498,-30.7271"/>
</g>
<!-- 12956&#45;&gt;209 -->
<g id="edge5" class="edge"><title>12956&#45;&gt;209</title>
<path fill="none" stroke="black" d="M587.522,-89.1297C508.489,-88.6605 300.485,-82.6937 135,-36 133.054,-35.451 131.083,-34.8055 129.118,-34.0928"/>
<polygon fill="black" stroke="black" points="130.063,-30.696 119.485,-30.1037 127.385,-37.1634 130.063,-30.696"/>
</g>
<!-- 12956&#45;&gt;701 -->
<g id="edge6" class="edge"><title>12956&#45;&gt;701</title>
<path fill="none" stroke="black" d="M587.431,-88.2646C516.745,-85.9275 344.557,-76.212 207,-36 205.06,-35.4327 203.092,-34.7732 201.13,-34.0498"/>
<polygon fill="black" stroke="black" points="202.082,-30.6544 191.505,-30.0332 199.386,-37.1145 202.082,-30.6544"/>
</g>
<!-- 12956&#45;&gt;1239 -->
<g id="edge7" class="edge"><title>12956&#45;&gt;1239</title>
<path fill="none" stroke="black" d="M587.659,-86.8971C526.715,-82.2881 391.179,-68.9512 282,-36 280.071,-35.4179 278.113,-34.7547 276.157,-34.0356"/>
<polygon fill="black" stroke="black" points="277.105,-30.6421 266.525,-30.0924 274.453,-37.1203 277.105,-30.6421"/>
</g>
<!-- 12956&#45;&gt;1273 -->
<g id="edge8" class="edge"><title>12956&#45;&gt;1273</title>
<path fill="none" stroke="black" d="M588.629,-85.0777C538.705,-78.3052 438.492,-62.5338 357,-36 355.084,-35.3762 353.137,-34.6807 351.188,-33.937"/>
<polygon fill="black" stroke="black" points="352.153,-30.5475 341.576,-29.9277 349.458,-37.0079 352.153,-30.5475"/>
</g>
<!-- 12956&#45;&gt;1299 -->
<g id="edge9" class="edge"><title>12956&#45;&gt;1299</title>
<path fill="none" stroke="black" d="M590.565,-82.2125C553.171,-73.2474 486.895,-56.2087 432,-36 430.159,-35.3223 428.283,-34.5918 426.4,-33.8278"/>
<polygon fill="black" stroke="black" points="427.638,-30.5507 417.069,-29.8195 424.875,-36.9824 427.638,-30.5507"/>
</g>
<!-- 12956&#45;&gt;2914 -->
<g id="edge10" class="edge"><title>12956&#45;&gt;2914</title>
<path fill="none" stroke="black" d="M595.9,-77.7533C570.416,-65.8608 530.087,-47.0407 501.963,-33.916"/>
<polygon fill="black" stroke="black" points="503.11,-30.5891 492.568,-29.5318 500.15,-36.9323 503.11,-30.5891"/>
</g>
<!-- 12956&#45;&gt;3257 -->
<g id="edge11" class="edge"><title>12956&#45;&gt;3257</title>
<path fill="none" stroke="black" d="M604.094,-74.1548C593.513,-64.2784 579.451,-51.154 567.699,-40.1857"/>
<polygon fill="black" stroke="black" points="570.068,-37.6096 560.37,-33.345 565.292,-42.727 570.068,-37.6096"/>
</g>
<!-- 12956&#45;&gt;3320 -->
<g id="edge12" class="edge"><title>12956&#45;&gt;3320</title>
<path fill="none" stroke="black" d="M620,-71.6966C620,-63.9827 620,-54.7125 620,-46.1124"/>
<polygon fill="black" stroke="black" points="623.5,-46.1043 620,-36.1043 616.5,-46.1044 623.5,-46.1043"/>
</g>
<!-- 12956&#45;&gt;3356 -->
<g id="edge13" class="edge"><title>12956&#45;&gt;3356</title>
<path fill="none" stroke="black" d="M635.906,-74.1548C646.487,-64.2784 660.549,-51.154 672.301,-40.1857"/>
<polygon fill="black" stroke="black" points="674.708,-42.727 679.63,-33.345 669.932,-37.6096 674.708,-42.727"/>
</g>
<!-- 12956&#45;&gt;3491 -->
<g id="edge14" class="edge"><title>12956&#45;&gt;3491</title>
<path fill="none" stroke="black" d="M644.1,-77.7533C669.584,-65.8608 709.913,-47.0407 738.037,-33.916"/>
<polygon fill="black" stroke="black" points="739.85,-36.9323 747.432,-29.5318 736.89,-30.5891 739.85,-36.9323"/>
</g>
<!-- 12956&#45;&gt;3549 -->
<g id="edge15" class="edge"><title>12956&#45;&gt;3549</title>
<path fill="none" stroke="black" d="M649.435,-82.2125C686.829,-73.2474 753.105,-56.2087 808,-36 809.841,-35.3223 811.717,-34.5918 813.6,-33.8278"/>
<polygon fill="black" stroke="black" points="815.125,-36.9824 822.931,-29.8195 812.362,-30.5507 815.125,-36.9824"/>
</g>
<!-- 12956&#45;&gt;5511 -->
<g id="edge16" class="edge"><title>12956&#45;&gt;5511</title>
<path fill="none" stroke="black" d="M651.371,-85.0777C701.295,-78.3052 801.508,-62.5338 883,-36 884.916,-35.3762 886.863,-34.6807 888.812,-33.937"/>
<polygon fill="black" stroke="black" points="890.542,-37.0079 898.424,-29.9277 887.847,-30.5475 890.542,-37.0079"/>
</g>
<!-- 12956&#45;&gt;6453 -->
<g id="edge17" class="edge"><title>12956&#45;&gt;6453</title>
<path fill="none" stroke="black" d="M652.341,-86.8971C713.285,-82.2881 848.821,-68.9512 958,-36 959.929,-35.4179 961.887,-34.7547 963.843,-34.0356"/>
<polygon fill="black" stroke="black" points="965.547,-37.1203 973.475,-30.0924 962.895,-30.6421 965.547,-37.1203"/>
</g>
<!-- 12956&#45;&gt;6461 -->
<g id="edge18" class="edge"><title>12956&#45;&gt;6461</title>
<path fill="none" stroke="black" d="M652.537,-88.1544C723.161,-85.6018 895.234,-75.4901 1033,-36 1034.94,-35.4448 1036.9,-34.8026 1038.86,-34.0995"/>
<polygon fill="black" stroke="black" points="1040.55,-37.1931 1048.51,-30.199 1037.92,-30.7037 1040.55,-37.1931"/>
</g>
<!-- 12956&#45;&gt;6762 -->
<g id="edge19" class="edge"><title>12956&#45;&gt;6762</title>
<path fill="none" stroke="black" d="M652.647,-89.047C732.099,-88.394 941.244,-82.0501 1108,-36 1109.94,-35.4637 1111.91,-34.8361 1113.87,-34.1442"/>
<polygon fill="black" stroke="black" points="1115.55,-37.244 1123.53,-30.2736 1112.94,-30.7468 1115.55,-37.244"/>
</g>
<!-- 12956&#45;&gt;7018 -->
<g id="edge20" class="edge"><title>12956&#45;&gt;7018</title>
<path fill="none" stroke="black" d="M652.728,-89.7135C740.358,-90.8185 986.964,-88.6281 1183,-36 1184.95,-35.4776 1186.92,-34.8609 1188.88,-34.1772"/>
<polygon fill="black" stroke="black" points="1190.55,-37.2816 1198.54,-30.3287 1187.96,-30.7787 1190.55,-37.2816"/>
</g>
<!-- 22927&#45;&gt;12956 -->
<g id="edge21" class="edge"><title>22927&#45;&gt;12956</title>
<path fill="none" stroke="black" d="M642.89,-144.411C639.429,-136.335 635.185,-126.431 631.295,-117.355"/>
<polygon fill="black" stroke="black" points="634.423,-115.769 627.267,-107.956 627.989,-118.526 634.423,-115.769"/>
</g>
</g>
</svg>
