<?xml version="1.0" encoding="UTF-8" standalone="no"?>
<!DOCTYPE svg PUBLIC "-//W3C//DTD SVG 1.1//EN"
 "http://www.w3.org/Graphics/SVG/1.1/DTD/svg11.dtd">
<!-- Generated by graphviz version 2.38.0 (20140413.2041)
 -->
<!-- Title: %3 Pages: 1 -->
<svg width="978pt" height="1089pt"
 viewBox="0.00 0.00 978.17 1089.01" xmlns="http://www.w3.org/2000/svg" xmlns:xlink="http://www.w3.org/1999/xlink">
<g id="graph0" class="graph" transform="scale(1 1) rotate(0) translate(4 1085.01)">
<title>%3</title>
<polygon fill="white" stroke="none" points="-4,4 -4,-1085.01 974.166,-1085.01 974.166,4 -4,4"/>
<!-- 174 -->
<g id="node1" class="node"><title>174</title>
<ellipse fill="none" stroke="black" cx="27" cy="-540.477" rx="27" ry="18"/>
<text text-anchor="middle" x="27" y="-536.777" font-family="Times,serif" font-size="14.00">174</text>
</g>
<!-- 209 -->
<g id="node2" class="node"><title>209</title>
<ellipse fill="none" stroke="black" cx="818.577" cy="-1043.86" rx="27" ry="18"/>
<text text-anchor="middle" x="818.577" y="-1040.16" font-family="Times,serif" font-size="14.00">209</text>
</g>
<!-- 701 -->
<g id="node3" class="node"><title>701</title>
<ellipse fill="none" stroke="black" cx="694.348" cy="-1063.01" rx="27" ry="18"/>
<text text-anchor="middle" x="694.348" y="-1059.31" font-family="Times,serif" font-size="14.00">701</text>
</g>
<!-- 1239 -->
<g id="node4" class="node"><title>1239</title>
<ellipse fill="none" stroke="black" cx="567.578" cy="-1051.62" rx="28.6953" ry="18"/>
<text text-anchor="middle" x="567.578" y="-1047.92" font-family="Times,serif" font-size="14.00">1239</text>
</g>
<!-- 1273 -->
<g id="node5" class="node"><title>1273</title>
<ellipse fill="none" stroke="black" cx="445.884" cy="-1009.22" rx="28.6953" ry="18"/>
<text text-anchor="middle" x="445.884" y="-1005.52" font-family="Times,serif" font-size="14.00">1273</text>
</g>
<!-- 1299 -->
<g id="node6" class="node"><title>1299</title>
<ellipse fill="none" stroke="black" cx="338.256" cy="-938.353" rx="28.6953" ry="18"/>
<text text-anchor="middle" x="338.256" y="-934.653" font-family="Times,serif" font-size="14.00">1299</text>
</g>
<!-- 2914 -->
<g id="node7" class="node"><title>2914</title>
<ellipse fill="none" stroke="black" cx="251.234" cy="-843.307" rx="28.6953" ry="18"/>
<text text-anchor="middle" x="251.234" y="-839.607" font-family="Times,serif" font-size="14.00">2914</text>
</g>
<!-- 3257 -->
<g id="node8" class="node"><title>3257</title>
<ellipse fill="none" stroke="black" cx="190.105" cy="-729.862" rx="28.6953" ry="18"/>
<text text-anchor="middle" x="190.105" y="-726.162" font-family="Times,serif" font-size="14.00">3257</text>
</g>
<!-- 3320 -->
<g id="node9" class="node"><title>3320</title>
<ellipse fill="none" stroke="black" cx="158.583" cy="-604.91" rx="28.6953" ry="18"/>
<text text-anchor="middle" x="158.583" y="-601.21" font-family="Times,serif" font-size="14.00">3320</text>
</g>
<!-- 3356 -->
<g id="node10" class="node"><title>3356</title>
<ellipse fill="none" stroke="black" cx="158.583" cy="-476.044" rx="28.6953" ry="18"/>
<text text-anchor="middle" x="158.583" y="-472.344" font-family="Times,serif" font-size="14.00">3356</text>
</g>
<!-- 3491 -->
<g id="node11" class="node"><title>3491</title>
<ellipse fill="none" stroke="black" cx="190.105" cy="-351.092" rx="28.6953" ry="18"/>
<text text-anchor="middle" x="190.105" y="-347.392" font-family="Times,serif" font-size="14.00">3491</text>
</g>
<!-- 3549 -->
<g id="node12" class="node"><title>3549</title>
<ellipse fill="none" stroke="black" cx="251.234" cy="-237.647" rx="28.6953" ry="18"/>
<text text-anchor="middle" x="251.234" y="-233.947" font-family="Times,serif" font-size="14.00">3549</text>
</g>
<!-- 5511 -->
<g id="node13" class="node"><title>5511</title>
<ellipse fill="none" stroke="black" cx="338.256" cy="-142.601" rx="28.6953" ry="18"/>
<text text-anchor="middle" x="338.256" y="-138.901" font-family="Times,serif" font-size="14.00">5511</text>
</g>
<!-- 5692 -->
<g id="node14" class="node"><title>5692</title>
<ellipse fill="none" stroke="black" cx="941.568" cy="-89.3197" rx="28.6953" ry="18"/>
<text text-anchor="middle" x="941.568" y="-85.6197" font-family="Times,serif" font-size="14.00">5692</text>
</g>
<!-- 10834 -->
<g id="node19" class="node"><title>10834</title>
<ellipse fill="none" stroke="black" cx="710.454" cy="-484.031" rx="32.4942" ry="18"/>
<text text-anchor="middle" x="710.454" y="-480.331" font-family="Times,serif" font-size="14.00">10834</text>
</g>
<!-- 5692&#45;&gt;10834 -->
<g id="edge1" class="edge"><title>5692&#45;&gt;10834</title>
<path fill="none" stroke="black" d="M931.637,-106.28C895.346,-168.26 769.738,-382.782 725.786,-457.846"/>
<polygon fill="black" stroke="black" points="722.64,-456.292 720.608,-466.69 728.681,-459.829 722.64,-456.292"/>
</g>
<!-- 6453 -->
<g id="node15" class="node"><title>6453</title>
<ellipse fill="none" stroke="black" cx="445.884" cy="-71.7289" rx="28.6953" ry="18"/>
<text text-anchor="middle" x="445.884" y="-68.0289" font-family="Times,serif" font-size="14.00">6453</text>
</g>
<!-- 6461 -->
<g id="node16" class="node"><title>6461</title>
<ellipse fill="none" stroke="black" cx="567.578" cy="-29.3367" rx="28.6953" ry="18"/>
<text text-anchor="middle" x="567.578" y="-25.6367" font-family="Times,serif" font-size="14.00">6461</text>
</g>
<!-- 6762 -->
<g id="node17" class="node"><title>6762</title>
<ellipse fill="none" stroke="black" cx="695.945" cy="-18" rx="28.6953" ry="18"/>
<text text-anchor="middle" x="695.945" y="-14.3" font-family="Times,serif" font-size="14.00">6762</text>
</g>
<!-- 7018 -->
<g id="node18" class="node"><title>7018</title>
<ellipse fill="none" stroke="black" cx="823.185" cy="-38.4077" rx="28.6953" ry="18"/>
<text text-anchor="middle" x="823.185" y="-34.7077" font-family="Times,serif" font-size="14.00">7018</text>
</g>
<!-- 12956 -->
<g id="node20" class="node"><title>12956</title>
<ellipse fill="none" stroke="black" cx="611.995" cy="-540.077" rx="32.4942" ry="18"/>
<text text-anchor="middle" x="611.995" y="-536.377" font-family="Times,serif" font-size="14.00">12956</text>
</g>
<!-- 10834&#45;&gt;12956 -->
<g id="edge2" class="edge"><title>10834&#45;&gt;12956</title>
<path fill="none" stroke="black" d="M687.618,-497.03C674.57,-504.458 658.009,-513.884 643.714,-522.021"/>
<polygon fill="black" stroke="black" points="641.666,-519.16 634.707,-527.149 645.129,-525.243 641.666,-519.16"/>
</g>
<!-- 22927 -->
<g id="node21" class="node"><title>22927</title>
<ellipse fill="none" stroke="black" cx="709.761" cy="-597.322" rx="32.4942" ry="18"/>
<text text-anchor="middle" x="709.761" y="-593.622" font-family="Times,serif" font-size="14.00">22927</text>
</g>
<!-- 10834&#45;&gt;22927 -->
<g id="edge3" class="edge"><title>10834&#45;&gt;22927</title>
<path fill="none" stroke="black" d="M710.343,-502.233C710.233,-520.237 710.063,-548.049 709.935,-568.953"/>
<polygon fill="black" stroke="black" points="706.434,-569.144 709.872,-579.165 713.434,-569.187 706.434,-569.144"/>
</g>
<!-- 12956&#45;&gt;174 -->
<g id="edge4" class="edge"><title>12956&#45;&gt;174</title>
<path fill="none" stroke="black" d="M579.289,-540.1C478.226,-540.169 171.309,-540.378 64.2885,-540.451"/>
<polygon fill="black" stroke="black" points="64.2748,-536.951 54.2773,-540.458 64.2797,-543.951 64.2748,-536.951"/>
</g>
<!-- 12956&#45;&gt;209 -->
<g id="edge5" class="edge"><title>12956&#45;&gt;209</title>
<path fill="none" stroke="black" d="M619.226,-557.712C650.029,-632.829 770.414,-926.407 807.584,-1017.05"/>
<polygon fill="black" stroke="black" points="804.372,-1018.45 811.404,-1026.37 810.849,-1015.79 804.372,-1018.45"/>
</g>
<!-- 12956&#45;&gt;701 -->
<g id="edge6" class="edge"><title>12956&#45;&gt;701</title>
<path fill="none" stroke="black" d="M614.829,-558.078C627.03,-635.55 675.119,-940.905 689.962,-1035.15"/>
<polygon fill="black" stroke="black" points="686.512,-1035.75 691.526,-1045.08 693.427,-1034.66 686.512,-1035.75"/>
</g>
<!-- 12956&#45;&gt;1239 -->
<g id="edge7" class="edge"><title>12956&#45;&gt;1239</title>
<path fill="none" stroke="black" d="M610.414,-558.283C603.769,-634.81 578.075,-930.73 570.012,-1023.58"/>
<polygon fill="black" stroke="black" points="566.518,-1023.36 569.14,-1033.63 573.492,-1023.97 566.518,-1023.36"/>
</g>
<!-- 12956&#45;&gt;1273 -->
<g id="edge8" class="edge"><title>12956&#45;&gt;1273</title>
<path fill="none" stroke="black" d="M605.686,-557.895C580.401,-629.307 486.289,-895.11 455.616,-981.738"/>
<polygon fill="black" stroke="black" points="452.238,-980.794 452.199,-991.389 458.836,-983.131 452.238,-980.794"/>
</g>
<!-- 12956&#45;&gt;1299 -->
<g id="edge9" class="edge"><title>12956&#45;&gt;1299</title>
<path fill="none" stroke="black" d="M600.407,-556.936C557.381,-619.537 406.642,-838.855 355.432,-913.363"/>
<polygon fill="black" stroke="black" points="352.474,-911.487 349.694,-921.711 358.243,-915.452 352.474,-911.487"/>
</g>
<!-- 12956&#45;&gt;2914 -->
<g id="edge10" class="edge"><title>12956&#45;&gt;2914</title>
<path fill="none" stroke="black" d="M594.104,-555.114C534.81,-604.953 344.623,-764.811 276.12,-822.39"/>
<polygon fill="black" stroke="black" points="273.789,-819.777 268.386,-828.89 278.293,-825.135 273.789,-819.777"/>
</g>
<!-- 12956&#45;&gt;3257 -->
<g id="edge11" class="edge"><title>12956&#45;&gt;3257</title>
<path fill="none" stroke="black" d="M586.554,-551.522C513.626,-584.328 303.885,-678.679 222.723,-715.189"/>
<polygon fill="black" stroke="black" points="221.164,-712.052 213.48,-719.347 224.035,-718.436 221.164,-712.052"/>
</g>
<!-- 12956&#45;&gt;3320 -->
<g id="edge12" class="edge"><title>12956&#45;&gt;3320</title>
<path fill="none" stroke="black" d="M580.472,-544.585C499.515,-556.161 284.514,-586.903 196.726,-599.456"/>
<polygon fill="black" stroke="black" points="196.073,-596.014 186.669,-600.894 197.064,-602.943 196.073,-596.014"/>
</g>
<!-- 12956&#45;&gt;3356 -->
<g id="edge13" class="edge"><title>12956&#45;&gt;3356</title>
<path fill="none" stroke="black" d="M580.472,-535.625C499.515,-524.192 284.514,-493.828 196.726,-481.431"/>
<polygon fill="black" stroke="black" points="197.06,-477.943 186.669,-480.01 196.081,-484.874 197.06,-477.943"/>
</g>
<!-- 12956&#45;&gt;3491 -->
<g id="edge14" class="edge"><title>12956&#45;&gt;3491</title>
<path fill="none" stroke="black" d="M586.554,-528.681C513.626,-496.013 303.885,-402.06 222.723,-365.703"/>
<polygon fill="black" stroke="black" points="224.037,-362.457 213.48,-361.563 221.175,-368.845 224.037,-362.457"/>
</g>
<!-- 12956&#45;&gt;3549 -->
<g id="edge15" class="edge"><title>12956&#45;&gt;3549</title>
<path fill="none" stroke="black" d="M593.608,-524.664C533.864,-474.58 345.111,-316.345 276.488,-258.817"/>
<polygon fill="black" stroke="black" points="278.644,-256.057 268.732,-252.315 274.147,-261.422 278.644,-256.057"/>
</g>
<!-- 12956&#45;&gt;5511 -->
<g id="edge16" class="edge"><title>12956&#45;&gt;5511</title>
<path fill="none" stroke="black" d="M600.232,-522.998C556.964,-460.171 406.502,-241.696 355.396,-167.488"/>
<polygon fill="black" stroke="black" points="358.225,-165.425 349.67,-159.174 352.459,-169.395 358.225,-165.425"/>
</g>
<!-- 12956&#45;&gt;6453 -->
<g id="edge17" class="edge"><title>12956&#45;&gt;6453</title>
<path fill="none" stroke="black" d="M605.686,-522.289C580.401,-451 486.289,-185.649 455.616,-99.1691"/>
<polygon fill="black" stroke="black" points="458.841,-97.7893 452.199,-89.5345 452.243,-100.129 458.841,-97.7893"/>
</g>
<!-- 12956&#45;&gt;6461 -->
<g id="edge18" class="edge"><title>12956&#45;&gt;6461</title>
<path fill="none" stroke="black" d="M610.414,-521.9C603.776,-445.578 578.132,-150.695 570.04,-57.6403"/>
<polygon fill="black" stroke="black" points="573.516,-57.2215 569.163,-47.5624 566.543,-57.828 573.516,-57.2215"/>
</g>
<!-- 12956&#45;&gt;6762 -->
<g id="edge19" class="edge"><title>12956&#45;&gt;6762</title>
<path fill="none" stroke="black" d="M614.884,-522.106C627.308,-444.847 676.233,-140.584 691.422,-46.1261"/>
<polygon fill="black" stroke="black" points="694.892,-46.5937 693.024,-36.1648 687.981,-45.4823 694.892,-46.5937"/>
</g>
<!-- 12956&#45;&gt;7018 -->
<g id="edge20" class="edge"><title>12956&#45;&gt;7018</title>
<path fill="none" stroke="black" d="M619.387,-522.517C650.877,-447.715 773.947,-155.369 811.947,-65.103"/>
<polygon fill="black" stroke="black" points="815.198,-66.4003 815.853,-55.8256 808.747,-63.6843 815.198,-66.4003"/>
</g>
<!-- 22927&#45;&gt;12956 -->
<g id="edge21" class="edge"><title>22927&#45;&gt;12956</title>
<path fill="none" stroke="black" d="M687.086,-584.045C674.13,-576.459 657.686,-566.831 643.491,-558.519"/>
<polygon fill="black" stroke="black" points="644.945,-555.315 634.547,-553.282 641.408,-561.355 644.945,-555.315"/>
</g>
</g>
</svg>
