<?xml version="1.0" encoding="UTF-8" standalone="no"?>
<!DOCTYPE svg PUBLIC "-//W3C//DTD SVG 1.1//EN"
 "http://www.w3.org/Graphics/SVG/1.1/DTD/svg11.dtd">
<!-- Generated by graphviz version 2.38.0 (20140413.2041)
 -->
<!-- Title: %3 Pages: 1 -->
<svg width="349pt" height="332pt"
 viewBox="0.00 0.00 348.82 332.00" xmlns="http://www.w3.org/2000/svg" xmlns:xlink="http://www.w3.org/1999/xlink">
<g id="graph0" class="graph" transform="scale(1 1) rotate(0) translate(4 328)">
<title>%3</title>
<polygon fill="white" stroke="none" points="-4,4 -4,-328 344.82,-328 344.82,4 -4,4"/>
<!-- 174 -->
<g id="node1" class="node"><title>174</title>
<ellipse fill="none" stroke="black" cx="312.222" cy="-187.005" rx="27" ry="18"/>
<text text-anchor="middle" x="312.222" y="-183.305" font-family="Times,serif" font-size="14.00">174</text>
</g>
<!-- 209 -->
<g id="node2" class="node"><title>209</title>
<ellipse fill="none" stroke="black" cx="295.117" cy="-234" rx="27" ry="18"/>
<text text-anchor="middle" x="295.117" y="-230.3" font-family="Times,serif" font-size="14.00">209</text>
</g>
<!-- 701 -->
<g id="node3" class="node"><title>701</title>
<ellipse fill="none" stroke="black" cx="262.971" cy="-272.31" rx="27" ry="18"/>
<text text-anchor="middle" x="262.971" y="-268.61" font-family="Times,serif" font-size="14.00">701</text>
</g>
<!-- 1239 -->
<g id="node4" class="node"><title>1239</title>
<ellipse fill="none" stroke="black" cx="219.661" cy="-297.316" rx="28.6953" ry="18"/>
<text text-anchor="middle" x="219.661" y="-293.616" font-family="Times,serif" font-size="14.00">1239</text>
</g>
<!-- 1273 -->
<g id="node5" class="node"><title>1273</title>
<ellipse fill="none" stroke="black" cx="170.41" cy="-306" rx="28.6953" ry="18"/>
<text text-anchor="middle" x="170.41" y="-302.3" font-family="Times,serif" font-size="14.00">1273</text>
</g>
<!-- 1299 -->
<g id="node6" class="node"><title>1299</title>
<ellipse fill="none" stroke="black" cx="121.159" cy="-297.316" rx="28.6953" ry="18"/>
<text text-anchor="middle" x="121.159" y="-293.616" font-family="Times,serif" font-size="14.00">1299</text>
</g>
<!-- 2914 -->
<g id="node7" class="node"><title>2914</title>
<ellipse fill="none" stroke="black" cx="77.8484" cy="-272.31" rx="28.6953" ry="18"/>
<text text-anchor="middle" x="77.8484" y="-268.61" font-family="Times,serif" font-size="14.00">2914</text>
</g>
<!-- 3257 -->
<g id="node8" class="node"><title>3257</title>
<ellipse fill="none" stroke="black" cx="45.7021" cy="-234" rx="28.6953" ry="18"/>
<text text-anchor="middle" x="45.7021" y="-230.3" font-family="Times,serif" font-size="14.00">3257</text>
</g>
<!-- 3320 -->
<g id="node9" class="node"><title>3320</title>
<ellipse fill="none" stroke="black" cx="28.5975" cy="-187.005" rx="28.6953" ry="18"/>
<text text-anchor="middle" x="28.5975" y="-183.305" font-family="Times,serif" font-size="14.00">3320</text>
</g>
<!-- 3356 -->
<g id="node10" class="node"><title>3356</title>
<ellipse fill="none" stroke="black" cx="28.5975" cy="-136.995" rx="28.6953" ry="18"/>
<text text-anchor="middle" x="28.5975" y="-133.295" font-family="Times,serif" font-size="14.00">3356</text>
</g>
<!-- 3491 -->
<g id="node11" class="node"><title>3491</title>
<ellipse fill="none" stroke="black" cx="45.7021" cy="-90" rx="28.6953" ry="18"/>
<text text-anchor="middle" x="45.7021" y="-86.3" font-family="Times,serif" font-size="14.00">3491</text>
</g>
<!-- 3549 -->
<g id="node12" class="node"><title>3549</title>
<ellipse fill="none" stroke="black" cx="77.8484" cy="-51.6896" rx="28.6953" ry="18"/>
<text text-anchor="middle" x="77.8484" y="-47.9896" font-family="Times,serif" font-size="14.00">3549</text>
</g>
<!-- 5511 -->
<g id="node13" class="node"><title>5511</title>
<ellipse fill="none" stroke="black" cx="121.159" cy="-26.6843" rx="28.6953" ry="18"/>
<text text-anchor="middle" x="121.159" y="-22.9843" font-family="Times,serif" font-size="14.00">5511</text>
</g>
<!-- 5692 -->
<g id="node14" class="node"><title>5692</title>
<ellipse fill="none" stroke="black" cx="312.222" cy="-136.995" rx="28.6953" ry="18"/>
<text text-anchor="middle" x="312.222" y="-133.295" font-family="Times,serif" font-size="14.00">5692</text>
</g>
<!-- 10834 -->
<g id="node19" class="node"><title>10834</title>
<ellipse fill="none" stroke="black" cx="241.316" cy="-149.497" rx="32.4942" ry="18"/>
<text text-anchor="middle" x="241.316" y="-145.797" font-family="Times,serif" font-size="14.00">10834</text>
</g>
<!-- 5692&#45;&gt;10834 -->
<g id="edge1" class="edge"><title>5692&#45;&gt;10834</title>
<path fill="none" stroke="black" d="M284.605,-141.864C283.997,-141.971 283.386,-142.079 282.773,-142.187"/>
<polygon fill="black" stroke="black" points="281.982,-138.773 272.742,-143.956 283.198,-145.666 281.982,-138.773"/>
</g>
<!-- 6453 -->
<g id="node15" class="node"><title>6453</title>
<ellipse fill="none" stroke="black" cx="170.41" cy="-18" rx="28.6953" ry="18"/>
<text text-anchor="middle" x="170.41" y="-14.3" font-family="Times,serif" font-size="14.00">6453</text>
</g>
<!-- 6461 -->
<g id="node16" class="node"><title>6461</title>
<ellipse fill="none" stroke="black" cx="219.661" cy="-26.6843" rx="28.6953" ry="18"/>
<text text-anchor="middle" x="219.661" y="-22.9843" font-family="Times,serif" font-size="14.00">6461</text>
</g>
<!-- 6762 -->
<g id="node17" class="node"><title>6762</title>
<ellipse fill="none" stroke="black" cx="262.971" cy="-51.6896" rx="28.6953" ry="18"/>
<text text-anchor="middle" x="262.971" y="-47.9896" font-family="Times,serif" font-size="14.00">6762</text>
</g>
<!-- 7018 -->
<g id="node18" class="node"><title>7018</title>
<ellipse fill="none" stroke="black" cx="295.117" cy="-90" rx="28.6953" ry="18"/>
<text text-anchor="middle" x="295.117" y="-86.3" font-family="Times,serif" font-size="14.00">7018</text>
</g>
<!-- 12956 -->
<g id="node20" class="node"><title>12956</title>
<ellipse fill="none" stroke="black" cx="99.5036" cy="-174.503" rx="32.4942" ry="18"/>
<text text-anchor="middle" x="99.5036" y="-170.803" font-family="Times,serif" font-size="14.00">12956</text>
</g>
<!-- 10834&#45;&gt;12956 -->
<g id="edge2" class="edge"><title>10834&#45;&gt;12956</title>
<path fill="none" stroke="black" d="M210.195,-154.985C189.783,-158.584 162.867,-163.33 140.689,-167.241"/>
<polygon fill="black" stroke="black" points="139.793,-163.845 130.552,-169.028 141.008,-170.738 139.793,-163.845"/>
</g>
<!-- 22927 -->
<g id="node21" class="node"><title>22927</title>
<ellipse fill="none" stroke="black" cx="170.41" cy="-162" rx="32.4942" ry="18"/>
<text text-anchor="middle" x="170.41" y="-158.3" font-family="Times,serif" font-size="14.00">22927</text>
</g>
<!-- 10834&#45;&gt;22927 -->
<g id="edge3" class="edge"><title>10834&#45;&gt;22927</title>
<path fill="none" stroke="black" d="M210.009,-155.018C209.921,-155.033 209.833,-155.049 209.745,-155.064"/>
<polygon fill="black" stroke="black" points="210.757,-151.332 201.517,-156.515 211.973,-158.225 210.757,-151.332"/>
</g>
<!-- 12956&#45;&gt;174 -->
<g id="edge4" class="edge"><title>12956&#45;&gt;174</title>
<path fill="none" stroke="black" d="M132.275,-176.429C170.788,-178.692 234.551,-182.44 274.924,-184.813"/>
<polygon fill="black" stroke="black" points="274.965,-188.321 285.153,-185.414 275.376,-181.334 274.965,-188.321"/>
</g>
<!-- 12956&#45;&gt;209 -->
<g id="edge5" class="edge"><title>12956&#45;&gt;209</title>
<path fill="none" stroke="black" d="M128.367,-183.282C163.533,-193.978 222.891,-212.032 260.485,-223.466"/>
<polygon fill="black" stroke="black" points="259.887,-226.943 270.473,-226.504 261.924,-220.246 259.887,-226.943"/>
</g>
<!-- 12956&#45;&gt;701 -->
<g id="edge6" class="edge"><title>12956&#45;&gt;701</title>
<path fill="none" stroke="black" d="M121.89,-187.897C150.939,-205.278 201.686,-235.642 233.745,-254.823"/>
<polygon fill="black" stroke="black" points="232.275,-258.022 242.653,-260.153 235.869,-252.016 232.275,-258.022"/>
</g>
<!-- 12956&#45;&gt;1239 -->
<g id="edge7" class="edge"><title>12956&#45;&gt;1239</title>
<path fill="none" stroke="black" d="M115.212,-190.558C136.106,-211.914 173.177,-249.804 197.071,-274.226"/>
<polygon fill="black" stroke="black" points="194.833,-276.944 204.328,-281.644 199.837,-272.049 194.833,-276.944"/>
</g>
<!-- 12956&#45;&gt;1273 -->
<g id="edge8" class="edge"><title>12956&#45;&gt;1273</title>
<path fill="none" stroke="black" d="M108.919,-191.964C121.065,-214.489 142.297,-253.864 156.355,-279.936"/>
<polygon fill="black" stroke="black" points="153.353,-281.743 161.18,-288.884 159.515,-278.421 153.353,-281.743"/>
</g>
<!-- 12956&#45;&gt;1299 -->
<g id="edge9" class="edge"><title>12956&#45;&gt;1299</title>
<path fill="none" stroke="black" d="M102.699,-192.624C106.249,-212.76 112.028,-245.53 116.174,-269.045"/>
<polygon fill="black" stroke="black" points="112.767,-269.88 117.95,-279.12 119.661,-268.664 112.767,-269.88"/>
</g>
<!-- 12956&#45;&gt;2914 -->
<g id="edge10" class="edge"><title>12956&#45;&gt;2914</title>
<path fill="none" stroke="black" d="M95.5317,-192.442C92.3162,-206.965 87.7303,-227.678 84.0344,-244.371"/>
<polygon fill="black" stroke="black" points="80.613,-243.633 81.8684,-254.153 87.4475,-245.147 80.613,-243.633"/>
</g>
<!-- 12956&#45;&gt;3257 -->
<g id="edge11" class="edge"><title>12956&#45;&gt;3257</title>
<path fill="none" stroke="black" d="M84.8021,-190.761C79.2563,-196.894 72.8329,-203.997 66.8151,-210.652"/>
<polygon fill="black" stroke="black" points="64.1251,-208.408 60.014,-218.173 69.3171,-213.103 64.1251,-208.408"/>
</g>
<!-- 12956&#45;&gt;3320 -->
<g id="edge12" class="edge"><title>12956&#45;&gt;3320</title>
<path fill="none" stroke="black" d="M68.1967,-180.023C67.5707,-180.133 66.9429,-180.244 66.3142,-180.355"/>
<polygon fill="black" stroke="black" points="65.4105,-176.96 56.1702,-182.144 66.6261,-183.854 65.4105,-176.96"/>
</g>
<!-- 12956&#45;&gt;3356 -->
<g id="edge13" class="edge"><title>12956&#45;&gt;3356</title>
<path fill="none" stroke="black" d="M75.8929,-162.013C70.7312,-159.283 65.1911,-156.352 59.7853,-153.492"/>
<polygon fill="black" stroke="black" points="61.3809,-150.377 50.9049,-148.795 58.1078,-156.565 61.3809,-150.377"/>
</g>
<!-- 12956&#45;&gt;3491 -->
<g id="edge14" class="edge"><title>12956&#45;&gt;3491</title>
<path fill="none" stroke="black" d="M88.6161,-157.402C80.9087,-145.297 70.4438,-128.86 61.7778,-115.249"/>
<polygon fill="black" stroke="black" points="64.713,-113.342 56.3899,-106.787 58.8082,-117.102 64.713,-113.342"/>
</g>
<!-- 12956&#45;&gt;3549 -->
<g id="edge15" class="edge"><title>12956&#45;&gt;3549</title>
<path fill="none" stroke="black" d="M96.3083,-156.381C92.7578,-136.245 86.9795,-103.475 82.8332,-79.9599"/>
<polygon fill="black" stroke="black" points="86.2402,-79.1257 81.0568,-69.8854 79.3465,-80.3413 86.2402,-79.1257"/>
</g>
<!-- 12956&#45;&gt;5511 -->
<g id="edge16" class="edge"><title>12956&#45;&gt;5511</title>
<path fill="none" stroke="black" d="M102.159,-156.377C105.861,-131.11 112.609,-85.0467 116.986,-55.166"/>
<polygon fill="black" stroke="black" points="120.495,-55.3597 118.482,-44.958 113.569,-54.345 120.495,-55.3597"/>
</g>
<!-- 12956&#45;&gt;6453 -->
<g id="edge17" class="edge"><title>12956&#45;&gt;6453</title>
<path fill="none" stroke="black" d="M107.5,-156.854C119.907,-129.469 143.873,-76.571 158.377,-44.5584"/>
<polygon fill="black" stroke="black" points="161.612,-45.8985 162.551,-35.3453 155.236,-43.0096 161.612,-45.8985"/>
</g>
<!-- 12956&#45;&gt;6461 -->
<g id="edge18" class="edge"><title>12956&#45;&gt;6461</title>
<path fill="none" stroke="black" d="M113.054,-157.833C134.26,-131.745 175.394,-81.142 199.902,-50.9914"/>
<polygon fill="black" stroke="black" points="202.752,-53.0345 206.344,-43.0671 197.32,-48.6192 202.752,-53.0345"/>
</g>
<!-- 12956&#45;&gt;6762 -->
<g id="edge19" class="edge"><title>12956&#45;&gt;6762</title>
<path fill="none" stroke="black" d="M118.897,-159.932C148.01,-138.06 203.103,-96.6685 236.081,-71.8924"/>
<polygon fill="black" stroke="black" points="238.465,-74.4791 244.357,-65.6741 234.26,-68.8825 238.465,-74.4791"/>
</g>
<!-- 12956&#45;&gt;7018 -->
<g id="edge20" class="edge"><title>12956&#45;&gt;7018</title>
<path fill="none" stroke="black" d="M125.48,-163.281C160.737,-148.051 223.748,-120.83 262.255,-104.196"/>
<polygon fill="black" stroke="black" points="263.693,-107.388 271.485,-100.209 260.917,-100.961 263.693,-107.388"/>
</g>
<!-- 22927&#45;&gt;12956 -->
<g id="edge21" class="edge"><title>22927&#45;&gt;12956</title>
<path fill="none" stroke="black" d="M139.103,-167.52C139.015,-167.536 138.927,-167.551 138.838,-167.567"/>
<polygon fill="black" stroke="black" points="139.851,-163.834 130.611,-169.018 141.066,-170.728 139.851,-163.834"/>
</g>
</g>
</svg>
