<?xml version="1.0" encoding="UTF-8" standalone="no"?>
<!DOCTYPE svg PUBLIC "-//W3C//DTD SVG 1.1//EN"
 "http://www.w3.org/Graphics/SVG/1.1/DTD/svg11.dtd">
<!-- Generated by graphviz version 2.40.1 (20161225.0304)
 -->
<!-- Title: %3 Pages: 1 -->
<svg width="1915pt" height="1655pt"
 viewBox="0.00 0.00 1914.91 1655.18" xmlns="http://www.w3.org/2000/svg" xmlns:xlink="http://www.w3.org/1999/xlink">
<g id="graph0" class="graph" transform="scale(1 1) rotate(0) translate(4 1651.1794)">
<title>%3</title>
<polygon fill="#ffffff" stroke="transparent" points="-4,4 -4,-1651.1794 1910.9077,-1651.1794 1910.9077,4 -4,4"/>
<!-- 174 -->
<g id="node1" class="node">
<title>174</title>
<ellipse fill="none" stroke="#000000" cx="899.3261" cy="-968.8908" rx="27" ry="18"/>
<text text-anchor="middle" x="899.3261" y="-965.1908" font-family="Times,serif" font-size="14.00" fill="#000000">174</text>
</g>
<!-- 209 -->
<g id="node2" class="node">
<title>209</title>
<ellipse fill="none" stroke="#000000" cx="969.3973" cy="-930.8855" rx="27" ry="18"/>
<text text-anchor="middle" x="969.3973" y="-927.1855" font-family="Times,serif" font-size="14.00" fill="#000000">209</text>
</g>
<!-- 174&#45;&gt;209 -->
<g id="edge1" class="edge">
<title>174&#45;&gt;209</title>
<path fill="none" stroke="#000000" d="M920.3498,-957.488C926.3084,-954.2561 932.9145,-950.6731 939.2976,-947.211"/>
<polygon fill="#000000" stroke="#000000" points="941.2669,-950.1246 948.3885,-942.2803 937.9295,-943.9714 941.2669,-950.1246"/>
</g>
<!-- 1299 -->
<g id="node8" class="node">
<title>1299</title>
<ellipse fill="none" stroke="#000000" cx="1039.5332" cy="-891.5351" rx="28.6953" ry="18"/>
<text text-anchor="middle" x="1039.5332" y="-887.8351" font-family="Times,serif" font-size="14.00" fill="#000000">1299</text>
</g>
<!-- 209&#45;&gt;1299 -->
<g id="edge2" class="edge">
<title>209&#45;&gt;1299</title>
<path fill="none" stroke="#000000" d="M990.0611,-919.2919C995.9251,-916.0018 1002.4396,-912.3468 1008.7646,-908.7981"/>
<polygon fill="#000000" stroke="#000000" points="1010.7896,-911.6753 1017.7981,-903.7298 1007.3644,-905.5705 1010.7896,-911.6753"/>
</g>
<!-- 701 -->
<g id="node3" class="node">
<title>701</title>
<ellipse fill="none" stroke="#000000" cx="1250.1366" cy="-752.9586" rx="27" ry="18"/>
<text text-anchor="middle" x="1250.1366" y="-749.2586" font-family="Times,serif" font-size="14.00" fill="#000000">701</text>
</g>
<!-- 703 -->
<g id="node4" class="node">
<title>703</title>
<ellipse fill="none" stroke="#000000" cx="1340.9497" cy="-773.8806" rx="27" ry="18"/>
<text text-anchor="middle" x="1340.9497" y="-770.1806" font-family="Times,serif" font-size="14.00" fill="#000000">703</text>
</g>
<!-- 701&#45;&gt;703 -->
<g id="edge3" class="edge">
<title>701&#45;&gt;703</title>
<path fill="none" stroke="#000000" d="M1275.9171,-758.898C1285.1019,-761.0141 1295.6135,-763.4358 1305.4691,-765.7064"/>
<polygon fill="#000000" stroke="#000000" points="1304.8885,-769.1642 1315.4191,-767.9987 1306.4601,-762.3429 1304.8885,-769.1642"/>
</g>
<!-- 7018 -->
<g id="node37" class="node">
<title>7018</title>
<ellipse fill="none" stroke="#000000" cx="1214.3024" cy="-667.458" rx="28.6953" ry="18"/>
<text text-anchor="middle" x="1214.3024" y="-663.758" font-family="Times,serif" font-size="14.00" fill="#000000">7018</text>
</g>
<!-- 701&#45;&gt;7018 -->
<g id="edge4" class="edge">
<title>701&#45;&gt;7018</title>
<path fill="none" stroke="#000000" d="M1242.7117,-735.2428C1237.8109,-723.5494 1231.293,-707.9978 1225.7366,-694.7402"/>
<polygon fill="#000000" stroke="#000000" points="1228.8111,-693.0209 1221.7177,-685.1511 1222.3552,-695.7267 1228.8111,-693.0209"/>
</g>
<!-- 2516 -->
<g id="node10" class="node">
<title>2516</title>
<ellipse fill="none" stroke="#000000" cx="1405.1925" cy="-842.6125" rx="28.6953" ry="18"/>
<text text-anchor="middle" x="1405.1925" y="-838.9125" font-family="Times,serif" font-size="14.00" fill="#000000">2516</text>
</g>
<!-- 703&#45;&gt;2516 -->
<g id="edge5" class="edge">
<title>703&#45;&gt;2516</title>
<path fill="none" stroke="#000000" d="M1355.5274,-789.4769C1363.8233,-798.3526 1374.3715,-809.6378 1383.6111,-819.523"/>
<polygon fill="#000000" stroke="#000000" points="1381.287,-822.1622 1390.6725,-827.0778 1386.401,-817.3822 1381.287,-822.1622"/>
</g>
<!-- 9498 -->
<g id="node44" class="node">
<title>9498</title>
<ellipse fill="none" stroke="#000000" cx="1381.256" cy="-695.2633" rx="28.6953" ry="18"/>
<text text-anchor="middle" x="1381.256" y="-691.5633" font-family="Times,serif" font-size="14.00" fill="#000000">9498</text>
</g>
<!-- 703&#45;&gt;9498 -->
<g id="edge6" class="edge">
<title>703&#45;&gt;9498</title>
<path fill="none" stroke="#000000" d="M1349.6956,-756.8218C1354.9412,-746.5902 1361.7243,-733.3599 1367.657,-721.7881"/>
<polygon fill="#000000" stroke="#000000" points="1370.9403,-723.0557 1372.388,-712.5602 1364.7112,-719.8621 1370.9403,-723.0557"/>
</g>
<!-- 1221 -->
<g id="node5" class="node">
<title>1221</title>
<ellipse fill="none" stroke="#000000" cx="1713.5867" cy="-801.9236" rx="28.6953" ry="18"/>
<text text-anchor="middle" x="1713.5867" y="-798.2236" font-family="Times,serif" font-size="14.00" fill="#000000">1221</text>
</g>
<!-- 1239 -->
<g id="node6" class="node">
<title>1239</title>
<ellipse fill="none" stroke="#000000" cx="1165.8408" cy="-408.7927" rx="28.6953" ry="18"/>
<text text-anchor="middle" x="1165.8408" y="-405.0927" font-family="Times,serif" font-size="14.00" fill="#000000">1239</text>
</g>
<!-- 5511 -->
<g id="node28" class="node">
<title>5511</title>
<ellipse fill="none" stroke="#000000" cx="1090.5296" cy="-384.4896" rx="28.6953" ry="18"/>
<text text-anchor="middle" x="1090.5296" y="-380.7896" font-family="Times,serif" font-size="14.00" fill="#000000">5511</text>
</g>
<!-- 1239&#45;&gt;5511 -->
<g id="edge7" class="edge">
<title>1239&#45;&gt;5511</title>
<path fill="none" stroke="#000000" d="M1140.3439,-400.5648C1135.6819,-399.0603 1130.7414,-397.466 1125.8535,-395.8887"/>
<polygon fill="#000000" stroke="#000000" points="1126.5919,-392.4493 1116.0003,-392.709 1124.4421,-399.111 1126.5919,-392.4493"/>
</g>
<!-- 17676 -->
<g id="node54" class="node">
<title>17676</title>
<ellipse fill="none" stroke="#000000" cx="1187.1535" cy="-326.4662" rx="32.4942" ry="18"/>
<text text-anchor="middle" x="1187.1535" y="-322.7662" font-family="Times,serif" font-size="14.00" fill="#000000">17676</text>
</g>
<!-- 1239&#45;&gt;17676 -->
<g id="edge8" class="edge">
<title>1239&#45;&gt;17676</title>
<path fill="none" stroke="#000000" d="M1170.4653,-390.9291C1173.2582,-380.1409 1176.8753,-366.169 1180.0276,-353.9921"/>
<polygon fill="#000000" stroke="#000000" points="1183.4201,-354.853 1182.538,-344.295 1176.6435,-353.0986 1183.4201,-354.853"/>
</g>
<!-- 1273 -->
<g id="node7" class="node">
<title>1273</title>
<ellipse fill="none" stroke="#000000" cx="1177.0701" cy="-494.4469" rx="28.6953" ry="18"/>
<text text-anchor="middle" x="1177.0701" y="-490.7469" font-family="Times,serif" font-size="14.00" fill="#000000">1273</text>
</g>
<!-- 1273&#45;&gt;1239 -->
<g id="edge9" class="edge">
<title>1273&#45;&gt;1239</title>
<path fill="none" stroke="#000000" d="M1174.6886,-476.2818C1173.1999,-464.9257 1171.251,-450.0602 1169.5613,-437.1721"/>
<polygon fill="#000000" stroke="#000000" points="1172.9891,-436.3917 1168.2188,-426.9316 1166.0485,-437.3017 1172.9891,-436.3917"/>
</g>
<!-- 6461 -->
<g id="node31" class="node">
<title>6461</title>
<ellipse fill="none" stroke="#000000" cx="1109.947" cy="-850.2234" rx="28.6953" ry="18"/>
<text text-anchor="middle" x="1109.947" y="-846.5234" font-family="Times,serif" font-size="14.00" fill="#000000">6461</text>
</g>
<!-- 1299&#45;&gt;6461 -->
<g id="edge10" class="edge">
<title>1299&#45;&gt;6461</title>
<path fill="none" stroke="#000000" d="M1060.6597,-879.1402C1066.7867,-875.5455 1073.5949,-871.5511 1080.1472,-867.7069"/>
<polygon fill="#000000" stroke="#000000" points="1081.9814,-870.6888 1088.8354,-862.6096 1078.4391,-864.6512 1081.9814,-870.6888"/>
</g>
<!-- 2497 -->
<g id="node9" class="node">
<title>2497</title>
<ellipse fill="none" stroke="#000000" cx="1180.7609" cy="-805.7297" rx="28.6953" ry="18"/>
<text text-anchor="middle" x="1180.7609" y="-802.0297" font-family="Times,serif" font-size="14.00" fill="#000000">2497</text>
</g>
<!-- 2497&#45;&gt;701 -->
<g id="edge11" class="edge">
<title>2497&#45;&gt;701</title>
<path fill="none" stroke="#000000" d="M1199.3523,-791.588C1206.8591,-785.8779 1215.6582,-779.1848 1223.8037,-772.9889"/>
<polygon fill="#000000" stroke="#000000" points="1226.1339,-775.6139 1231.9741,-766.774 1221.896,-770.0425 1226.1339,-775.6139"/>
</g>
<!-- 32787 -->
<g id="node61" class="node">
<title>32787</title>
<ellipse fill="none" stroke="#000000" cx="1480.7766" cy="-894.3336" rx="32.4942" ry="18"/>
<text text-anchor="middle" x="1480.7766" y="-890.6336" font-family="Times,serif" font-size="14.00" fill="#000000">32787</text>
</g>
<!-- 2516&#45;&gt;32787 -->
<g id="edge12" class="edge">
<title>2516&#45;&gt;32787</title>
<path fill="none" stroke="#000000" d="M1424.6572,-855.9319C1432.944,-861.6024 1442.7819,-868.3344 1451.8884,-874.5659"/>
<polygon fill="#000000" stroke="#000000" points="1450.0915,-877.5772 1460.3209,-880.3361 1454.0446,-871.8003 1450.0915,-877.5772"/>
</g>
<!-- 2686 -->
<g id="node11" class="node">
<title>2686</title>
<ellipse fill="none" stroke="#000000" cx="176.526" cy="-976.6951" rx="28.6953" ry="18"/>
<text text-anchor="middle" x="176.526" y="-972.9951" font-family="Times,serif" font-size="14.00" fill="#000000">2686</text>
</g>
<!-- 3741 -->
<g id="node22" class="node">
<title>3741</title>
<ellipse fill="none" stroke="#000000" cx="103.3615" cy="-945.2798" rx="28.6953" ry="18"/>
<text text-anchor="middle" x="103.3615" y="-941.5798" font-family="Times,serif" font-size="14.00" fill="#000000">3741</text>
</g>
<!-- 2686&#45;&gt;3741 -->
<g id="edge13" class="edge">
<title>2686&#45;&gt;3741</title>
<path fill="none" stroke="#000000" d="M152.5692,-966.4085C147.464,-964.2165 141.9848,-961.8638 136.6029,-959.5529"/>
<polygon fill="#000000" stroke="#000000" points="137.692,-956.2116 127.1223,-955.4821 134.9301,-962.6437 137.692,-956.2116"/>
</g>
<!-- 2687 -->
<g id="node12" class="node">
<title>2687</title>
<ellipse fill="none" stroke="#000000" cx="260.7525" cy="-994.6672" rx="28.6953" ry="18"/>
<text text-anchor="middle" x="260.7525" y="-990.9672" font-family="Times,serif" font-size="14.00" fill="#000000">2687</text>
</g>
<!-- 2687&#45;&gt;2686 -->
<g id="edge14" class="edge">
<title>2687&#45;&gt;2686</title>
<path fill="none" stroke="#000000" d="M233.6391,-988.8818C227.3904,-987.5485 220.6349,-986.107 214.0323,-984.6981"/>
<polygon fill="#000000" stroke="#000000" points="214.3877,-981.1952 203.8774,-982.5313 212.9268,-988.0411 214.3877,-981.1952"/>
</g>
<!-- 9505 -->
<g id="node45" class="node">
<title>9505</title>
<ellipse fill="none" stroke="#000000" cx="264.5346" cy="-917.2607" rx="28.6953" ry="18"/>
<text text-anchor="middle" x="264.5346" y="-913.5607" font-family="Times,serif" font-size="14.00" fill="#000000">9505</text>
</g>
<!-- 2687&#45;&gt;9505 -->
<g id="edge15" class="edge">
<title>2687&#45;&gt;9505</title>
<path fill="none" stroke="#000000" d="M261.6488,-976.323C262.0963,-967.1649 262.6476,-955.8809 263.1481,-945.6379"/>
<polygon fill="#000000" stroke="#000000" points="266.6525,-945.6322 263.6447,-935.4733 259.6608,-945.2905 266.6525,-945.6322"/>
</g>
<!-- 2764 -->
<g id="node13" class="node">
<title>2764</title>
<ellipse fill="none" stroke="#000000" cx="1570.2625" cy="-917.4682" rx="28.6953" ry="18"/>
<text text-anchor="middle" x="1570.2625" y="-913.7682" font-family="Times,serif" font-size="14.00" fill="#000000">2764</text>
</g>
<!-- 7545 -->
<g id="node40" class="node">
<title>7545</title>
<ellipse fill="none" stroke="#000000" cx="1627.0658" cy="-981.6188" rx="28.6953" ry="18"/>
<text text-anchor="middle" x="1627.0658" y="-977.9188" font-family="Times,serif" font-size="14.00" fill="#000000">7545</text>
</g>
<!-- 2764&#45;&gt;7545 -->
<g id="edge16" class="edge">
<title>2764&#45;&gt;7545</title>
<path fill="none" stroke="#000000" d="M1584.3037,-933.3256C1590.8765,-940.7486 1598.8418,-949.7441 1606.1077,-957.9499"/>
<polygon fill="#000000" stroke="#000000" points="1603.5417,-960.3316 1612.7915,-965.4982 1608.7825,-955.6911 1603.5417,-960.3316"/>
</g>
<!-- 38333 -->
<g id="node63" class="node">
<title>38333</title>
<ellipse fill="none" stroke="#000000" cx="1643.0123" cy="-849.9054" rx="32.4942" ry="18"/>
<text text-anchor="middle" x="1643.0123" y="-846.2054" font-family="Times,serif" font-size="14.00" fill="#000000">38333</text>
</g>
<!-- 2764&#45;&gt;38333 -->
<g id="edge17" class="edge">
<title>2764&#45;&gt;38333</title>
<path fill="none" stroke="#000000" d="M1586.408,-902.4738C1595.9071,-893.652 1608.105,-882.3238 1618.7435,-872.4438"/>
<polygon fill="#000000" stroke="#000000" points="1621.2078,-874.9318 1626.1535,-865.5622 1616.4443,-869.8026 1621.2078,-874.9318"/>
</g>
<!-- 38561 -->
<g id="node64" class="node">
<title>38561</title>
<ellipse fill="none" stroke="#000000" cx="1591.1618" cy="-864.1378" rx="32.4942" ry="18"/>
<text text-anchor="middle" x="1591.1618" y="-860.4378" font-family="Times,serif" font-size="14.00" fill="#000000">38561</text>
</g>
<!-- 2764&#45;&gt;38561 -->
<g id="edge18" class="edge">
<title>2764&#45;&gt;38561</title>
<path fill="none" stroke="#000000" d="M1577.2216,-899.7099C1578.2681,-897.0397 1579.3672,-894.2348 1580.47,-891.4208"/>
<polygon fill="#000000" stroke="#000000" points="1583.7717,-892.588 1584.1618,-882.0003 1577.2543,-890.0338 1583.7717,-892.588"/>
</g>
<!-- 2828 -->
<g id="node14" class="node">
<title>2828</title>
<ellipse fill="none" stroke="#000000" cx="1526.7391" cy="-619.7837" rx="28.6953" ry="18"/>
<text text-anchor="middle" x="1526.7391" y="-616.0837" font-family="Times,serif" font-size="14.00" fill="#000000">2828</text>
</g>
<!-- 2914 -->
<g id="node15" class="node">
<title>2914</title>
<ellipse fill="none" stroke="#000000" cx="614.178" cy="-1115.1641" rx="28.6953" ry="18"/>
<text text-anchor="middle" x="614.178" y="-1111.4641" font-family="Times,serif" font-size="14.00" fill="#000000">2914</text>
</g>
<!-- 6453 -->
<g id="node30" class="node">
<title>6453</title>
<ellipse fill="none" stroke="#000000" cx="687.2181" cy="-1079.2814" rx="28.6953" ry="18"/>
<text text-anchor="middle" x="687.2181" y="-1075.5814" font-family="Times,serif" font-size="14.00" fill="#000000">6453</text>
</g>
<!-- 2914&#45;&gt;6453 -->
<g id="edge19" class="edge">
<title>2914&#45;&gt;6453</title>
<path fill="none" stroke="#000000" d="M636.8879,-1104.0073C642.6042,-1101.199 648.8498,-1098.1307 654.9362,-1095.1407"/>
<polygon fill="#000000" stroke="#000000" points="656.8385,-1098.1057 664.2706,-1090.5549 653.7519,-1091.8229 656.8385,-1098.1057"/>
</g>
<!-- 3257 -->
<g id="node16" class="node">
<title>3257</title>
<ellipse fill="none" stroke="#000000" cx="758.6095" cy="-1042.8644" rx="28.6953" ry="18"/>
<text text-anchor="middle" x="758.6095" y="-1039.1644" font-family="Times,serif" font-size="14.00" fill="#000000">3257</text>
</g>
<!-- 3491 -->
<g id="node19" class="node">
<title>3491</title>
<ellipse fill="none" stroke="#000000" cx="829.1508" cy="-1006.0946" rx="28.6953" ry="18"/>
<text text-anchor="middle" x="829.1508" y="-1002.3946" font-family="Times,serif" font-size="14.00" fill="#000000">3491</text>
</g>
<!-- 3257&#45;&gt;3491 -->
<g id="edge20" class="edge">
<title>3257&#45;&gt;3491</title>
<path fill="none" stroke="#000000" d="M780.9292,-1031.2302C786.2043,-1028.4806 791.9282,-1025.497 797.5281,-1022.578"/>
<polygon fill="#000000" stroke="#000000" points="799.4844,-1025.5053 806.7342,-1017.7793 796.2487,-1019.298 799.4844,-1025.5053"/>
</g>
<!-- 3320 -->
<g id="node17" class="node">
<title>3320</title>
<ellipse fill="none" stroke="#000000" cx="1189.8682" cy="-580.8808" rx="28.6953" ry="18"/>
<text text-anchor="middle" x="1189.8682" y="-577.1808" font-family="Times,serif" font-size="14.00" fill="#000000">3320</text>
</g>
<!-- 3320&#45;&gt;1273 -->
<g id="edge21" class="edge">
<title>3320&#45;&gt;1273</title>
<path fill="none" stroke="#000000" d="M1187.1541,-562.5504C1185.4287,-550.8981 1183.1612,-535.5844 1181.2135,-522.4299"/>
<polygon fill="#000000" stroke="#000000" points="1184.6635,-521.834 1179.7364,-512.4545 1177.739,-522.8593 1184.6635,-521.834"/>
</g>
<!-- 3356 -->
<g id="node18" class="node">
<title>3356</title>
<ellipse fill="none" stroke="#000000" cx="448.6301" cy="-1275.0013" rx="28.6953" ry="18"/>
<text text-anchor="middle" x="448.6301" y="-1271.3013" font-family="Times,serif" font-size="14.00" fill="#000000">3356</text>
</g>
<!-- 3549 -->
<g id="node20" class="node">
<title>3549</title>
<ellipse fill="none" stroke="#000000" cx="456.2531" cy="-1183.4214" rx="28.6953" ry="18"/>
<text text-anchor="middle" x="456.2531" y="-1179.7214" font-family="Times,serif" font-size="14.00" fill="#000000">3549</text>
</g>
<!-- 3356&#45;&gt;3549 -->
<g id="edge22" class="edge">
<title>3356&#45;&gt;3549</title>
<path fill="none" stroke="#000000" d="M450.1362,-1256.908C451.2116,-1243.9886 452.6792,-1226.3573 453.9073,-1211.6032"/>
<polygon fill="#000000" stroke="#000000" points="457.4085,-1211.7329 454.7502,-1201.477 450.4326,-1211.1522 457.4085,-1211.7329"/>
</g>
<!-- 3491&#45;&gt;174 -->
<g id="edge23" class="edge">
<title>3491&#45;&gt;174</title>
<path fill="none" stroke="#000000" d="M851.3547,-994.3231C856.9412,-991.3614 863.0337,-988.1314 868.9448,-984.9976"/>
<polygon fill="#000000" stroke="#000000" points="870.7896,-987.9811 877.9854,-980.2047 867.5108,-981.7965 870.7896,-987.9811"/>
</g>
<!-- 6762 -->
<g id="node33" class="node">
<title>6762</title>
<ellipse fill="none" stroke="#000000" cx="538.1671" cy="-1150.1506" rx="28.6953" ry="18"/>
<text text-anchor="middle" x="538.1671" y="-1146.4506" font-family="Times,serif" font-size="14.00" fill="#000000">6762</text>
</g>
<!-- 3549&#45;&gt;6762 -->
<g id="edge24" class="edge">
<title>3549&#45;&gt;6762</title>
<path fill="none" stroke="#000000" d="M480.387,-1173.619C487.985,-1170.5329 496.5179,-1167.0671 504.6464,-1163.7656"/>
<polygon fill="#000000" stroke="#000000" points="505.9748,-1167.0038 513.9227,-1159.9979 503.3406,-1160.5183 505.9748,-1167.0038"/>
</g>
<!-- 30070 -->
<g id="node60" class="node">
<title>30070</title>
<ellipse fill="none" stroke="#000000" cx="387.8872" cy="-1115.6458" rx="32.4942" ry="18"/>
<text text-anchor="middle" x="387.8872" y="-1111.9458" font-family="Times,serif" font-size="14.00" fill="#000000">30070</text>
</g>
<!-- 3549&#45;&gt;30070 -->
<g id="edge25" class="edge">
<title>3549&#45;&gt;30070</title>
<path fill="none" stroke="#000000" d="M440.7399,-1168.042C431.9496,-1159.3277 420.7833,-1148.2578 410.9813,-1138.5405"/>
<polygon fill="#000000" stroke="#000000" points="413.3794,-1135.9894 403.8135,-1131.4346 408.4511,-1140.9605 413.3794,-1135.9894"/>
</g>
<!-- 3597 -->
<g id="node21" class="node">
<title>3597</title>
<ellipse fill="none" stroke="#000000" cx="291.6368" cy="-1531.188" rx="28.6953" ry="18"/>
<text text-anchor="middle" x="291.6368" y="-1527.488" font-family="Times,serif" font-size="14.00" fill="#000000">3597</text>
</g>
<!-- 37179 -->
<g id="node62" class="node">
<title>37179</title>
<ellipse fill="none" stroke="#000000" cx="32.4971" cy="-917.0758" rx="32.4942" ry="18"/>
<text text-anchor="middle" x="32.4971" y="-913.3758" font-family="Times,serif" font-size="14.00" fill="#000000">37179</text>
</g>
<!-- 3741&#45;&gt;37179 -->
<g id="edge26" class="edge">
<title>3741&#45;&gt;37179</title>
<path fill="none" stroke="#000000" d="M78.974,-935.5736C75.5709,-934.2191 72.0168,-932.8046 68.4556,-931.3873"/>
<polygon fill="#000000" stroke="#000000" points="69.6967,-928.1142 59.1113,-927.6682 67.1081,-934.6181 69.6967,-928.1142"/>
</g>
<!-- 4635 -->
<g id="node23" class="node">
<title>4635</title>
<ellipse fill="none" stroke="#000000" cx="1686.233" cy="-989.879" rx="28.6953" ry="18"/>
<text text-anchor="middle" x="1686.233" y="-986.179" font-family="Times,serif" font-size="14.00" fill="#000000">4635</text>
</g>
<!-- 4637 -->
<g id="node24" class="node">
<title>4637</title>
<ellipse fill="none" stroke="#000000" cx="1457.2848" cy="-663.8374" rx="28.6953" ry="18"/>
<text text-anchor="middle" x="1457.2848" y="-660.1374" font-family="Times,serif" font-size="14.00" fill="#000000">4637</text>
</g>
<!-- 4637&#45;&gt;2828 -->
<g id="edge27" class="edge">
<title>4637&#45;&gt;2828</title>
<path fill="none" stroke="#000000" d="M1477.7477,-650.8581C1483.9099,-646.9495 1490.7974,-642.5809 1497.4163,-638.3826"/>
<polygon fill="#000000" stroke="#000000" points="1499.6125,-641.1344 1506.1824,-632.8225 1495.8631,-635.2232 1499.6125,-641.1344"/>
</g>
<!-- 4739 -->
<g id="node25" class="node">
<title>4739</title>
<ellipse fill="none" stroke="#000000" cx="1668.2944" cy="-1060.4932" rx="28.6953" ry="18"/>
<text text-anchor="middle" x="1668.2944" y="-1056.7932" font-family="Times,serif" font-size="14.00" fill="#000000">4739</text>
</g>
<!-- 38880 -->
<g id="node65" class="node">
<title>38880</title>
<ellipse fill="none" stroke="#000000" cx="1743.3496" cy="-1104.9517" rx="32.4942" ry="18"/>
<text text-anchor="middle" x="1743.3496" y="-1101.2517" font-family="Times,serif" font-size="14.00" fill="#000000">38880</text>
</g>
<!-- 4739&#45;&gt;38880 -->
<g id="edge28" class="edge">
<title>4739&#45;&gt;38880</title>
<path fill="none" stroke="#000000" d="M1689.2014,-1072.8774C1696.3096,-1077.0878 1704.4147,-1081.8889 1712.1504,-1086.471"/>
<polygon fill="#000000" stroke="#000000" points="1710.5922,-1089.616 1720.9798,-1091.7011 1714.1597,-1083.5933 1710.5922,-1089.616"/>
</g>
<!-- 4755 -->
<g id="node26" class="node">
<title>4755</title>
<ellipse fill="none" stroke="#000000" cx="1447.2887" cy="-540.836" rx="28.6953" ry="18"/>
<text text-anchor="middle" x="1447.2887" y="-537.136" font-family="Times,serif" font-size="14.00" fill="#000000">4755</text>
</g>
<!-- 9583 -->
<g id="node46" class="node">
<title>9583</title>
<ellipse fill="none" stroke="#000000" cx="1503.8316" cy="-480.8137" rx="28.6953" ry="18"/>
<text text-anchor="middle" x="1503.8316" y="-477.1137" font-family="Times,serif" font-size="14.00" fill="#000000">9583</text>
</g>
<!-- 4755&#45;&gt;9583 -->
<g id="edge29" class="edge">
<title>4755&#45;&gt;9583</title>
<path fill="none" stroke="#000000" d="M1462.1447,-525.0658C1468.1999,-518.638 1475.3241,-511.0754 1481.9533,-504.0383"/>
<polygon fill="#000000" stroke="#000000" points="1484.5691,-506.3658 1488.8785,-496.6869 1479.4739,-501.5659 1484.5691,-506.3658"/>
</g>
<!-- 4826 -->
<g id="node27" class="node">
<title>4826</title>
<ellipse fill="none" stroke="#000000" cx="1878.3102" cy="-1184.5708" rx="28.6953" ry="18"/>
<text text-anchor="middle" x="1878.3102" y="-1180.8708" font-family="Times,serif" font-size="14.00" fill="#000000">4826</text>
</g>
<!-- 5692 -->
<g id="node29" class="node">
<title>5692</title>
<ellipse fill="none" stroke="#000000" cx="384.0261" cy="-1545.3273" rx="28.6953" ry="18"/>
<text text-anchor="middle" x="384.0261" y="-1541.6273" font-family="Times,serif" font-size="14.00" fill="#000000">5692</text>
</g>
<!-- 5692&#45;&gt;3597 -->
<g id="edge30" class="edge">
<title>5692&#45;&gt;3597</title>
<path fill="none" stroke="#000000" d="M356.0555,-1541.0467C347.7338,-1539.7731 338.4724,-1538.3558 329.6257,-1537.0019"/>
<polygon fill="#000000" stroke="#000000" points="329.9267,-1533.5072 319.5123,-1535.4541 328.8677,-1540.4267 329.9267,-1533.5072"/>
</g>
<!-- 10834 -->
<g id="node49" class="node">
<title>10834</title>
<ellipse fill="none" stroke="#000000" cx="392.7672" cy="-1439.5359" rx="32.4942" ry="18"/>
<text text-anchor="middle" x="392.7672" y="-1435.8359" font-family="Times,serif" font-size="14.00" fill="#000000">10834</text>
</g>
<!-- 5692&#45;&gt;10834 -->
<g id="edge31" class="edge">
<title>5692&#45;&gt;10834</title>
<path fill="none" stroke="#000000" d="M385.5487,-1526.8999C386.8961,-1510.5924 388.8832,-1486.5432 390.4316,-1467.8034"/>
<polygon fill="#000000" stroke="#000000" points="393.9266,-1468.0064 391.2621,-1457.7522 386.9504,-1467.43 393.9266,-1468.0064"/>
</g>
<!-- 11008 -->
<g id="node50" class="node">
<title>11008</title>
<ellipse fill="none" stroke="#000000" cx="469.3473" cy="-1533.2867" rx="32.4942" ry="18"/>
<text text-anchor="middle" x="469.3473" y="-1529.5867" font-family="Times,serif" font-size="14.00" fill="#000000">11008</text>
</g>
<!-- 5692&#45;&gt;11008 -->
<g id="edge32" class="edge">
<title>5692&#45;&gt;11008</title>
<path fill="none" stroke="#000000" d="M411.9634,-1541.3848C416.9981,-1540.6743 422.3446,-1539.9198 427.6707,-1539.1682"/>
<polygon fill="#000000" stroke="#000000" points="428.3875,-1542.6018 437.8003,-1537.7386 427.4093,-1535.6704 428.3875,-1542.6018"/>
</g>
<!-- 27865 -->
<g id="node58" class="node">
<title>27865</title>
<ellipse fill="none" stroke="#000000" cx="317.5101" cy="-1598.3719" rx="32.4942" ry="18"/>
<text text-anchor="middle" x="317.5101" y="-1594.6719" font-family="Times,serif" font-size="14.00" fill="#000000">27865</text>
</g>
<!-- 5692&#45;&gt;27865 -->
<g id="edge33" class="edge">
<title>5692&#45;&gt;27865</title>
<path fill="none" stroke="#000000" d="M366.201,-1559.5423C359.5629,-1564.836 351.8707,-1570.9703 344.5883,-1576.7778"/>
<polygon fill="#000000" stroke="#000000" points="341.9514,-1574.404 336.3153,-1583.3753 346.3158,-1579.8768 341.9514,-1574.404"/>
</g>
<!-- 28065 -->
<g id="node59" class="node">
<title>28065</title>
<ellipse fill="none" stroke="#000000" cx="452.8319" cy="-1603.2868" rx="32.4942" ry="18"/>
<text text-anchor="middle" x="452.8319" y="-1599.5868" font-family="Times,serif" font-size="14.00" fill="#000000">28065</text>
</g>
<!-- 5692&#45;&gt;28065 -->
<g id="edge34" class="edge">
<title>5692&#45;&gt;28065</title>
<path fill="none" stroke="#000000" d="M401.3887,-1559.9529C409.112,-1566.4588 418.3682,-1574.2558 426.8868,-1581.4316"/>
<polygon fill="#000000" stroke="#000000" points="424.851,-1584.2929 434.754,-1588.0586 429.3607,-1578.9392 424.851,-1584.2929"/>
</g>
<!-- 52317 -->
<g id="node66" class="node">
<title>52317</title>
<ellipse fill="none" stroke="#000000" cx="317.9171" cy="-1505.1894" rx="32.4942" ry="18"/>
<text text-anchor="middle" x="317.9171" y="-1501.4894" font-family="Times,serif" font-size="14.00" fill="#000000">52317</text>
</g>
<!-- 5692&#45;&gt;52317 -->
<g id="edge35" class="edge">
<title>5692&#45;&gt;52317</title>
<path fill="none" stroke="#000000" d="M363.1088,-1532.6275C358.4749,-1529.814 353.4714,-1526.7761 348.5405,-1523.7823"/>
<polygon fill="#000000" stroke="#000000" points="350.2029,-1520.6971 339.8386,-1518.499 346.57,-1526.6806 350.2029,-1520.6971"/>
</g>
<!-- 52375 -->
<g id="node67" class="node">
<title>52375</title>
<ellipse fill="none" stroke="#000000" cx="466.1612" cy="-1569.6567" rx="32.4942" ry="18"/>
<text text-anchor="middle" x="466.1612" y="-1565.9567" font-family="Times,serif" font-size="14.00" fill="#000000">52375</text>
</g>
<!-- 5692&#45;&gt;52375 -->
<g id="edge36" class="edge">
<title>5692&#45;&gt;52375</title>
<path fill="none" stroke="#000000" d="M410.0142,-1553.0253C415.6143,-1554.6841 421.6488,-1556.4716 427.6123,-1558.238"/>
<polygon fill="#000000" stroke="#000000" points="426.9097,-1561.6802 437.492,-1561.1645 428.8978,-1554.9684 426.9097,-1561.6802"/>
</g>
<!-- 52376 -->
<g id="node68" class="node">
<title>52376</title>
<ellipse fill="none" stroke="#000000" cx="419.6265" cy="-1619.051" rx="32.4942" ry="18"/>
<text text-anchor="middle" x="419.6265" y="-1615.351" font-family="Times,serif" font-size="14.00" fill="#000000">52376</text>
</g>
<!-- 5692&#45;&gt;52376 -->
<g id="edge37" class="edge">
<title>5692&#45;&gt;52376</title>
<path fill="none" stroke="#000000" d="M392.4629,-1562.7988C396.7323,-1571.6402 402.0064,-1582.5621 406.7681,-1592.4229"/>
<polygon fill="#000000" stroke="#000000" points="403.6266,-1593.9663 411.1269,-1601.4494 409.9301,-1590.9224 403.6266,-1593.9663"/>
</g>
<!-- 52380 -->
<g id="node69" class="node">
<title>52380</title>
<ellipse fill="none" stroke="#000000" cx="439.5229" cy="-1507.2391" rx="32.4942" ry="18"/>
<text text-anchor="middle" x="439.5229" y="-1503.5391" font-family="Times,serif" font-size="14.00" fill="#000000">52380</text>
</g>
<!-- 5692&#45;&gt;52380 -->
<g id="edge38" class="edge">
<title>5692&#45;&gt;52380</title>
<path fill="none" stroke="#000000" d="M403.4362,-1532.0059C405.6242,-1530.5043 407.8884,-1528.9503 410.1672,-1527.3863"/>
<polygon fill="#000000" stroke="#000000" points="412.6329,-1529.9391 418.8974,-1521.3947 408.6718,-1524.1676 412.6329,-1529.9391"/>
</g>
<!-- 52413 -->
<g id="node70" class="node">
<title>52413</title>
<ellipse fill="none" stroke="#000000" cx="297.3986" cy="-1568.14" rx="32.4942" ry="18"/>
<text text-anchor="middle" x="297.3986" y="-1564.44" font-family="Times,serif" font-size="14.00" fill="#000000">52413</text>
</g>
<!-- 5692&#45;&gt;52413 -->
<g id="edge39" class="edge">
<title>5692&#45;&gt;52413</title>
<path fill="none" stroke="#000000" d="M357.5643,-1552.2958C351.0788,-1554.0038 343.9961,-1555.8689 337.0406,-1557.7006"/>
<polygon fill="#000000" stroke="#000000" points="335.8043,-1554.4068 327.0253,-1560.338 337.587,-1561.176 335.8043,-1554.4068"/>
</g>
<!-- 52431 -->
<g id="node71" class="node">
<title>52431</title>
<ellipse fill="none" stroke="#000000" cx="368.642" cy="-1496.1051" rx="32.4942" ry="18"/>
<text text-anchor="middle" x="368.642" y="-1492.4051" font-family="Times,serif" font-size="14.00" fill="#000000">52431</text>
</g>
<!-- 5692&#45;&gt;52431 -->
<g id="edge40" class="edge">
<title>5692&#45;&gt;52431</title>
<path fill="none" stroke="#000000" d="M378.4721,-1527.557C378.0848,-1526.3178 377.6896,-1525.0535 377.291,-1523.778"/>
<polygon fill="#000000" stroke="#000000" points="380.5634,-1522.5152 374.2395,-1514.0147 373.8821,-1524.6035 380.5634,-1522.5152"/>
</g>
<!-- 262230 -->
<g id="node72" class="node">
<title>262230</title>
<ellipse fill="none" stroke="#000000" cx="384.2258" cy="-1629.1794" rx="37.0935" ry="18"/>
<text text-anchor="middle" x="384.2258" y="-1625.4794" font-family="Times,serif" font-size="14.00" fill="#000000">262230</text>
</g>
<!-- 5692&#45;&gt;262230 -->
<g id="edge41" class="edge">
<title>5692&#45;&gt;262230</title>
<path fill="none" stroke="#000000" d="M384.0694,-1563.522C384.0953,-1574.4002 384.1288,-1588.4566 384.1581,-1600.7709"/>
<polygon fill="#000000" stroke="#000000" points="380.6586,-1601.0287 384.1825,-1611.0203 387.6586,-1601.0119 380.6586,-1601.0287"/>
</g>
<!-- 264608 -->
<g id="node73" class="node">
<title>264608</title>
<ellipse fill="none" stroke="#000000" cx="347.8864" cy="-1619.1089" rx="37.0935" ry="18"/>
<text text-anchor="middle" x="347.8864" y="-1615.4089" font-family="Times,serif" font-size="14.00" fill="#000000">264608</text>
</g>
<!-- 5692&#45;&gt;264608 -->
<g id="edge42" class="edge">
<title>5692&#45;&gt;264608</title>
<path fill="none" stroke="#000000" d="M375.4615,-1562.8125C371.1274,-1571.6609 365.7734,-1582.5914 360.9396,-1592.46"/>
<polygon fill="#000000" stroke="#000000" points="357.7705,-1590.9734 356.5148,-1601.4935 364.0569,-1594.0526 357.7705,-1590.9734"/>
</g>
<!-- 6453&#45;&gt;3257 -->
<g id="edge43" class="edge">
<title>6453&#45;&gt;3257</title>
<path fill="none" stroke="#000000" d="M709.8068,-1067.7589C715.1454,-1065.0356 720.9383,-1062.0806 726.6057,-1059.1897"/>
<polygon fill="#000000" stroke="#000000" points="728.6052,-1062.0989 735.9227,-1054.437 725.4243,-1055.8633 728.6052,-1062.0989"/>
</g>
<!-- 6461&#45;&gt;2497 -->
<g id="edge44" class="edge">
<title>6461&#45;&gt;2497</title>
<path fill="none" stroke="#000000" d="M1130.4293,-837.354C1136.9777,-833.2395 1144.3598,-828.6012 1151.4115,-824.1705"/>
<polygon fill="#000000" stroke="#000000" points="1153.474,-827.0082 1160.0793,-818.7244 1149.7498,-821.081 1153.474,-827.0082"/>
</g>
<!-- 6695 -->
<g id="node32" class="node">
<title>6695</title>
<ellipse fill="none" stroke="#000000" cx="1822.6867" cy="-1069.4554" rx="28.6953" ry="18"/>
<text text-anchor="middle" x="1822.6867" y="-1065.7554" font-family="Times,serif" font-size="14.00" fill="#000000">6695</text>
</g>
<!-- 6762&#45;&gt;2914 -->
<g id="edge45" class="edge">
<title>6762&#45;&gt;2914</title>
<path fill="none" stroke="#000000" d="M561.3859,-1139.4634C567.8092,-1136.5068 574.9002,-1133.243 581.7446,-1130.0926"/>
<polygon fill="#000000" stroke="#000000" points="583.2189,-1133.267 590.8394,-1125.9064 580.2921,-1126.9082 583.2189,-1133.267"/>
</g>
<!-- 6904 -->
<g id="node34" class="node">
<title>6904</title>
<ellipse fill="none" stroke="#000000" cx="334.5166" cy="-1043.9094" rx="28.6953" ry="18"/>
<text text-anchor="middle" x="334.5166" y="-1040.2094" font-family="Times,serif" font-size="14.00" fill="#000000">6904</text>
</g>
<!-- 6904&#45;&gt;2687 -->
<g id="edge46" class="edge">
<title>6904&#45;&gt;2687</title>
<path fill="none" stroke="#000000" d="M314.7492,-1030.7134C306.8116,-1025.4145 297.515,-1019.2085 288.8944,-1013.4537"/>
<polygon fill="#000000" stroke="#000000" points="290.8349,-1010.5409 280.5745,-1007.8997 286.9483,-1016.3628 290.8349,-1010.5409"/>
</g>
<!-- 6939 -->
<g id="node35" class="node">
<title>6939</title>
<ellipse fill="none" stroke="#000000" cx="1190.3471" cy="-246.081" rx="28.6953" ry="18"/>
<text text-anchor="middle" x="1190.3471" y="-242.381" font-family="Times,serif" font-size="14.00" fill="#000000">6939</text>
</g>
<!-- 12266 -->
<g id="node52" class="node">
<title>12266</title>
<ellipse fill="none" stroke="#000000" cx="1194.3568" cy="-168.4385" rx="32.4942" ry="18"/>
<text text-anchor="middle" x="1194.3568" y="-164.7385" font-family="Times,serif" font-size="14.00" fill="#000000">12266</text>
</g>
<!-- 6939&#45;&gt;12266 -->
<g id="edge47" class="edge">
<title>6939&#45;&gt;12266</title>
<path fill="none" stroke="#000000" d="M1191.2771,-228.0731C1191.7594,-218.7328 1192.3596,-207.1104 1192.9017,-196.6134"/>
<polygon fill="#000000" stroke="#000000" points="1196.3974,-196.785 1193.4179,-186.6177 1189.4068,-196.4239 1196.3974,-196.785"/>
</g>
<!-- 7016 -->
<g id="node36" class="node">
<title>7016</title>
<ellipse fill="none" stroke="#000000" cx="305.5762" cy="-1129.7137" rx="28.6953" ry="18"/>
<text text-anchor="middle" x="305.5762" y="-1126.0137" font-family="Times,serif" font-size="14.00" fill="#000000">7016</text>
</g>
<!-- 7922 -->
<g id="node41" class="node">
<title>7922</title>
<ellipse fill="none" stroke="#000000" cx="226.0046" cy="-1140.035" rx="28.6953" ry="18"/>
<text text-anchor="middle" x="226.0046" y="-1136.335" font-family="Times,serif" font-size="14.00" fill="#000000">7922</text>
</g>
<!-- 7016&#45;&gt;7922 -->
<g id="edge48" class="edge">
<title>7016&#45;&gt;7922</title>
<path fill="none" stroke="#000000" d="M277.2982,-1133.3817C273.0769,-1133.9292 268.6664,-1134.5013 264.2805,-1135.0702"/>
<polygon fill="#000000" stroke="#000000" points="263.6582,-1131.6215 254.1916,-1136.3788 264.5587,-1138.5633 263.6582,-1131.6215"/>
</g>
<!-- 7018&#45;&gt;3320 -->
<g id="edge49" class="edge">
<title>7018&#45;&gt;3320</title>
<path fill="none" stroke="#000000" d="M1209.2396,-649.5191C1205.8979,-637.6786 1201.4536,-621.9311 1197.6649,-608.5066"/>
<polygon fill="#000000" stroke="#000000" points="1201.0091,-607.4701 1194.9245,-598.7967 1194.2723,-609.3714 1201.0091,-607.4701"/>
</g>
<!-- 7473 -->
<g id="node38" class="node">
<title>7473</title>
<ellipse fill="none" stroke="#000000" cx="1428.2325" cy="-729.6767" rx="28.6953" ry="18"/>
<text text-anchor="middle" x="1428.2325" y="-725.9767" font-family="Times,serif" font-size="14.00" fill="#000000">7473</text>
</g>
<!-- 7474 -->
<g id="node39" class="node">
<title>7474</title>
<ellipse fill="none" stroke="#000000" cx="1449.457" cy="-964.386" rx="28.6953" ry="18"/>
<text text-anchor="middle" x="1449.457" y="-960.686" font-family="Times,serif" font-size="14.00" fill="#000000">7474</text>
</g>
<!-- 7545&#45;&gt;4635 -->
<g id="edge50" class="edge">
<title>7545&#45;&gt;4635</title>
<path fill="none" stroke="#000000" d="M1655.2631,-985.5554C1655.3822,-985.572 1655.5013,-985.5886 1655.6204,-985.6052"/>
<polygon fill="#000000" stroke="#000000" points="1647.7343,-988.0379 1658.1223,-985.9545 1648.7024,-981.1051 1647.7343,-988.0379"/>
</g>
<!-- 7545&#45;&gt;4739 -->
<g id="edge51" class="edge">
<title>7545&#45;&gt;4739</title>
<path fill="none" stroke="#000000" d="M1636.0118,-998.7334C1641.4311,-1009.1011 1648.4546,-1022.5378 1654.5659,-1034.2294"/>
<polygon fill="#000000" stroke="#000000" points="1651.4891,-1035.8987 1659.2235,-1043.1396 1657.6928,-1032.656 1651.4891,-1035.8987"/>
</g>
<!-- 9942 -->
<g id="node47" class="node">
<title>9942</title>
<ellipse fill="none" stroke="#000000" cx="1707.8637" cy="-936.0117" rx="28.6953" ry="18"/>
<text text-anchor="middle" x="1707.8637" y="-932.3117" font-family="Times,serif" font-size="14.00" fill="#000000">9942</text>
</g>
<!-- 7545&#45;&gt;9942 -->
<g id="edge52" class="edge">
<title>7545&#45;&gt;9942</title>
<path fill="none" stroke="#000000" d="M1648.7181,-969.3969C1657.5741,-964.3981 1667.9743,-958.5276 1677.5634,-953.1149"/>
<polygon fill="#000000" stroke="#000000" points="1679.4437,-956.0727 1686.4317,-948.1092 1676.0028,-949.9768 1679.4437,-956.0727"/>
</g>
<!-- 9002 -->
<g id="node42" class="node">
<title>9002</title>
<ellipse fill="none" stroke="#000000" cx="1720.8256" cy="-1184.4682" rx="28.6953" ry="18"/>
<text text-anchor="middle" x="1720.8256" y="-1180.7682" font-family="Times,serif" font-size="14.00" fill="#000000">9002</text>
</g>
<!-- 9443 -->
<g id="node43" class="node">
<title>9443</title>
<ellipse fill="none" stroke="#000000" cx="1808.0041" cy="-1152.0631" rx="28.6953" ry="18"/>
<text text-anchor="middle" x="1808.0041" y="-1148.3631" font-family="Times,serif" font-size="14.00" fill="#000000">9443</text>
</g>
<!-- 9443&#45;&gt;4826 -->
<g id="edge53" class="edge">
<title>9443&#45;&gt;4826</title>
<path fill="none" stroke="#000000" d="M1831.415,-1162.8877C1836.0886,-1165.0487 1841.0751,-1167.3543 1845.9874,-1169.6256"/>
<polygon fill="#000000" stroke="#000000" points="1844.6951,-1172.884 1855.2407,-1173.9041 1847.6329,-1166.5303 1844.6951,-1172.884"/>
</g>
<!-- 9498&#45;&gt;4637 -->
<g id="edge54" class="edge">
<title>9498&#45;&gt;4637</title>
<path fill="none" stroke="#000000" d="M1405.312,-685.3199C1411.1361,-682.9126 1417.4678,-680.2954 1423.6435,-677.7427"/>
<polygon fill="#000000" stroke="#000000" points="1425.2197,-680.8785 1433.1244,-673.8239 1422.5457,-674.4094 1425.2197,-680.8785"/>
</g>
<!-- 9498&#45;&gt;7473 -->
<g id="edge55" class="edge">
<title>9498&#45;&gt;7473</title>
<path fill="none" stroke="#000000" d="M1400.0925,-709.0622C1400.4754,-709.3427 1400.86,-709.6245 1401.2459,-709.9072"/>
<polygon fill="#000000" stroke="#000000" points="1399.2564,-712.7884 1409.3918,-715.8746 1403.3932,-707.1415 1399.2564,-712.7884"/>
</g>
<!-- 10026 -->
<g id="node48" class="node">
<title>10026</title>
<ellipse fill="none" stroke="#000000" cx="1397.938" cy="-612.6254" rx="32.4942" ry="18"/>
<text text-anchor="middle" x="1397.938" y="-608.9254" font-family="Times,serif" font-size="14.00" fill="#000000">10026</text>
</g>
<!-- 9498&#45;&gt;10026 -->
<g id="edge56" class="edge">
<title>9498&#45;&gt;10026</title>
<path fill="none" stroke="#000000" d="M1384.8758,-677.3321C1387.0399,-666.6113 1389.8364,-652.7585 1392.2862,-640.6226"/>
<polygon fill="#000000" stroke="#000000" points="1395.7773,-641.0165 1394.3253,-630.5216 1388.9157,-639.6313 1395.7773,-641.0165"/>
</g>
<!-- 10026&#45;&gt;4755 -->
<g id="edge57" class="edge">
<title>10026&#45;&gt;4755</title>
<path fill="none" stroke="#000000" d="M1409.6334,-595.6123C1415.6565,-586.8506 1423.122,-575.9907 1429.8133,-566.257"/>
<polygon fill="#000000" stroke="#000000" points="1432.8965,-567.9504 1435.6772,-557.7269 1427.128,-563.9849 1432.8965,-567.9504"/>
</g>
<!-- 12956 -->
<g id="node53" class="node">
<title>12956</title>
<ellipse fill="none" stroke="#000000" cx="429.8333" cy="-1359.4438" rx="32.4942" ry="18"/>
<text text-anchor="middle" x="429.8333" y="-1355.7438" font-family="Times,serif" font-size="14.00" fill="#000000">12956</text>
</g>
<!-- 10834&#45;&gt;12956 -->
<g id="edge58" class="edge">
<title>10834&#45;&gt;12956</title>
<path fill="none" stroke="#000000" d="M400.9934,-1421.7608C405.8255,-1411.3196 412.0283,-1397.9166 417.4425,-1386.2176"/>
<polygon fill="#000000" stroke="#000000" points="420.7339,-1387.4389 421.7576,-1376.8936 414.3813,-1384.4989 420.7339,-1387.4389"/>
</g>
<!-- 22927 -->
<g id="node57" class="node">
<title>22927</title>
<ellipse fill="none" stroke="#000000" cx="312.4726" cy="-1407.2421" rx="32.4942" ry="18"/>
<text text-anchor="middle" x="312.4726" y="-1403.5421" font-family="Times,serif" font-size="14.00" fill="#000000">22927</text>
</g>
<!-- 10834&#45;&gt;22927 -->
<g id="edge59" class="edge">
<title>10834&#45;&gt;22927</title>
<path fill="none" stroke="#000000" d="M366.0303,-1428.7825C360.4189,-1426.5257 354.4127,-1424.11 348.5252,-1421.7421"/>
<polygon fill="#000000" stroke="#000000" points="349.4034,-1418.3229 338.8196,-1417.8386 346.7914,-1424.8173 349.4034,-1418.3229"/>
</g>
<!-- 12189 -->
<g id="node51" class="node">
<title>12189</title>
<ellipse fill="none" stroke="#000000" cx="1206.1673" cy="-18" rx="32.4942" ry="18"/>
<text text-anchor="middle" x="1206.1673" y="-14.3" font-family="Times,serif" font-size="14.00" fill="#000000">12189</text>
</g>
<!-- 20454 -->
<g id="node56" class="node">
<title>20454</title>
<ellipse fill="none" stroke="#000000" cx="1200.9057" cy="-92.5998" rx="32.4942" ry="18"/>
<text text-anchor="middle" x="1200.9057" y="-88.8998" font-family="Times,serif" font-size="14.00" fill="#000000">20454</text>
</g>
<!-- 12266&#45;&gt;20454 -->
<g id="edge60" class="edge">
<title>12266&#45;&gt;20454</title>
<path fill="none" stroke="#000000" d="M1195.9421,-150.0801C1196.6982,-141.3236 1197.6199,-130.6507 1198.4628,-120.8895"/>
<polygon fill="#000000" stroke="#000000" points="1201.9616,-121.0532 1199.335,-110.7892 1194.9875,-120.4509 1201.9616,-121.0532"/>
</g>
<!-- 12956&#45;&gt;3356 -->
<g id="edge61" class="edge">
<title>12956&#45;&gt;3356</title>
<path fill="none" stroke="#000000" d="M433.8196,-1341.5357C436.3117,-1330.3403 439.5739,-1315.6851 442.4022,-1302.9792"/>
<polygon fill="#000000" stroke="#000000" points="445.893,-1303.4052 444.6495,-1292.8836 439.0602,-1301.8841 445.893,-1303.4052"/>
</g>
<!-- 17676&#45;&gt;6939 -->
<g id="edge62" class="edge">
<title>17676&#45;&gt;6939</title>
<path fill="none" stroke="#000000" d="M1187.8782,-308.2256C1188.2743,-298.2562 1188.7736,-285.6875 1189.2194,-274.4663"/>
<polygon fill="#000000" stroke="#000000" points="1192.7255,-274.3806 1189.6253,-264.2495 1185.731,-274.1026 1192.7255,-274.3806"/>
</g>
<!-- 18540 -->
<g id="node55" class="node">
<title>18540</title>
<ellipse fill="none" stroke="#000000" cx="353.9078" cy="-1157.6253" rx="32.4942" ry="18"/>
<text text-anchor="middle" x="353.9078" y="-1153.9253" font-family="Times,serif" font-size="14.00" fill="#000000">18540</text>
</g>
<!-- 20454&#45;&gt;12189 -->
<g id="edge63" class="edge">
<title>20454&#45;&gt;12189</title>
<path fill="none" stroke="#000000" d="M1202.1794,-74.5413C1202.776,-66.0821 1203.5009,-55.8048 1204.1681,-46.3443"/>
<polygon fill="#000000" stroke="#000000" points="1207.6748,-46.3723 1204.8871,-36.1508 1200.6921,-45.8797 1207.6748,-46.3723"/>
</g>
<!-- 30070&#45;&gt;6904 -->
<g id="edge64" class="edge">
<title>30070&#45;&gt;6904</title>
<path fill="none" stroke="#000000" d="M375.2391,-1098.6453C368.5636,-1089.6725 360.2497,-1078.4977 352.8777,-1068.5888"/>
<polygon fill="#000000" stroke="#000000" points="355.4838,-1066.2281 346.7066,-1060.2941 349.8676,-1070.4064 355.4838,-1066.2281"/>
</g>
<!-- 30070&#45;&gt;7016 -->
<g id="edge65" class="edge">
<title>30070&#45;&gt;7016</title>
<path fill="none" stroke="#000000" d="M356.769,-1120.9642C352.4156,-1121.7083 347.9027,-1122.4796 343.4416,-1123.2421"/>
<polygon fill="#000000" stroke="#000000" points="342.4935,-1119.8533 333.2261,-1124.988 343.6729,-1126.7532 342.4935,-1119.8533"/>
</g>
<!-- 30070&#45;&gt;18540 -->
<g id="edge66" class="edge">
<title>30070&#45;&gt;18540</title>
<path fill="none" stroke="#000000" d="M374.4577,-1132.2372C374.1609,-1132.6039 373.8625,-1132.9725 373.5631,-1133.3424"/>
<polygon fill="#000000" stroke="#000000" points="370.8109,-1131.1795 367.2399,-1141.1544 376.2519,-1135.5836 370.8109,-1131.1795"/>
</g>
<!-- 32787&#45;&gt;2764 -->
<g id="edge67" class="edge">
<title>32787&#45;&gt;2764</title>
<path fill="none" stroke="#000000" d="M1510.5741,-902.0371C1517.9979,-903.9564 1526.0419,-906.036 1533.7486,-908.0283"/>
<polygon fill="#000000" stroke="#000000" points="1533.0472,-911.462 1543.605,-910.5765 1534.7993,-904.6848 1533.0472,-911.462"/>
</g>
<!-- 32787&#45;&gt;7474 -->
<g id="edge68" class="edge">
<title>32787&#45;&gt;7474</title>
<path fill="none" stroke="#000000" d="M1472.8733,-912.0108C1469.3974,-919.7854 1465.2394,-929.0856 1461.3982,-937.6772"/>
<polygon fill="#000000" stroke="#000000" points="1458.1356,-936.3994 1457.2492,-946.9571 1464.526,-939.2566 1458.1356,-936.3994"/>
</g>
<!-- 38333&#45;&gt;1221 -->
<g id="edge69" class="edge">
<title>38333&#45;&gt;1221</title>
<path fill="none" stroke="#000000" d="M1663.8053,-835.7688C1670.7021,-831.0798 1678.4931,-825.7829 1685.8288,-820.7956"/>
<polygon fill="#000000" stroke="#000000" points="1687.8483,-823.6549 1694.1502,-815.138 1683.9126,-817.8661 1687.8483,-823.6549"/>
</g>
<!-- 38880&#45;&gt;6695 -->
<g id="edge70" class="edge">
<title>38880&#45;&gt;6695</title>
<path fill="none" stroke="#000000" d="M1768.8891,-1093.5251C1775.6159,-1090.5154 1782.9662,-1087.2268 1790.0125,-1084.0742"/>
<polygon fill="#000000" stroke="#000000" points="1791.6469,-1087.1774 1799.3455,-1079.8985 1788.7881,-1080.7878 1791.6469,-1087.1774"/>
</g>
<!-- 38880&#45;&gt;9002 -->
<g id="edge71" class="edge">
<title>38880&#45;&gt;9002</title>
<path fill="none" stroke="#000000" d="M1738.2386,-1122.9952C1735.4163,-1132.9586 1731.8507,-1145.5464 1728.6821,-1156.7326"/>
<polygon fill="#000000" stroke="#000000" points="1725.2744,-1155.9207 1725.9164,-1166.4961 1732.0094,-1157.8286 1725.2744,-1155.9207"/>
</g>
<!-- 38880&#45;&gt;9443 -->
<g id="edge72" class="edge">
<title>38880&#45;&gt;9443</title>
<path fill="none" stroke="#000000" d="M1763.0994,-1119.3427C1768.6884,-1123.4152 1774.8716,-1127.9207 1780.8168,-1132.2527"/>
<polygon fill="#000000" stroke="#000000" points="1779.1167,-1135.3445 1789.2599,-1138.4049 1783.2391,-1129.6871 1779.1167,-1135.3445"/>
</g>
</g>
</svg>
