<?xml version="1.0" encoding="UTF-8" standalone="no"?>
<!DOCTYPE svg PUBLIC "-//W3C//DTD SVG 1.1//EN"
 "http://www.w3.org/Graphics/SVG/1.1/DTD/svg11.dtd">
<!-- Generated by graphviz version 2.40.1 (20161225.0304)
 -->
<!-- Title: %3 Pages: 1 -->
<svg width="768pt" height="542pt"
 viewBox="0.00 0.00 767.98 542.02" xmlns="http://www.w3.org/2000/svg" xmlns:xlink="http://www.w3.org/1999/xlink">
<g id="graph0" class="graph" transform="scale(1 1) rotate(0) translate(4 538.0181)">
<title>%3</title>
<polygon fill="#ffffff" stroke="transparent" points="-4,4 -4,-538.0181 763.9818,-538.0181 763.9818,4 -4,4"/>
<!-- 174 -->
<g id="node1" class="node">
<title>174</title>
<ellipse fill="none" stroke="#000000" cx="349.3422" cy="-263.8303" rx="27" ry="18"/>
<text text-anchor="middle" x="349.3422" y="-260.1303" font-family="Times,serif" font-size="14.00" fill="#000000">174</text>
</g>
<!-- 209 -->
<g id="node2" class="node">
<title>209</title>
<ellipse fill="none" stroke="#000000" cx="377.4805" cy="-262.1508" rx="27" ry="18"/>
<text text-anchor="middle" x="377.4805" y="-258.4508" font-family="Times,serif" font-size="14.00" fill="#000000">209</text>
</g>
<!-- 174&#45;&gt;209 -->
<g id="edge1" class="edge">
<title>174&#45;&gt;209</title>
<path fill="none" stroke="#000000" d="M376.2715,-262.223C376.4638,-262.2115 376.6356,-262.2013 376.785,-262.1923"/>
<polygon fill="#000000" stroke="#000000" points="367.3917,-266.2617 377.1645,-262.1697 366.9729,-259.2742 367.3917,-266.2617"/>
</g>
<!-- 1299 -->
<g id="node8" class="node">
<title>1299</title>
<ellipse fill="none" stroke="#000000" cx="407.0175" cy="-261.9977" rx="28.6953" ry="18"/>
<text text-anchor="middle" x="407.0175" y="-258.2977" font-family="Times,serif" font-size="14.00" fill="#000000">1299</text>
</g>
<!-- 209&#45;&gt;1299 -->
<g id="edge2" class="edge">
<title>209&#45;&gt;1299</title>
<path fill="none" stroke="#000000" d="M404.6997,-262.0097C404.7901,-262.0093 404.8782,-262.0088 404.9639,-262.0084"/>
<polygon fill="#000000" stroke="#000000" points="395.2339,-265.5628 405.2143,-262.0071 395.1949,-258.5629 395.2339,-265.5628"/>
</g>
<!-- 701 -->
<g id="node3" class="node">
<title>701</title>
<ellipse fill="none" stroke="#000000" cx="503.7401" cy="-264.4395" rx="27" ry="18"/>
<text text-anchor="middle" x="503.7401" y="-260.7395" font-family="Times,serif" font-size="14.00" fill="#000000">701</text>
</g>
<!-- 703 -->
<g id="node4" class="node">
<title>703</title>
<ellipse fill="none" stroke="#000000" cx="531.0187" cy="-297.9572" rx="27" ry="18"/>
<text text-anchor="middle" x="531.0187" y="-294.2572" font-family="Times,serif" font-size="14.00" fill="#000000">703</text>
</g>
<!-- 701&#45;&gt;703 -->
<g id="edge3" class="edge">
<title>701&#45;&gt;703</title>
<path fill="none" stroke="#000000" d="M516.7403,-280.413C516.85,-280.5479 516.9599,-280.6829 517.0697,-280.8179"/>
<polygon fill="#000000" stroke="#000000" points="509.0313,-276.4859 518.0584,-282.0327 514.4606,-272.0672 509.0313,-276.4859"/>
</g>
<!-- 7018 -->
<g id="node37" class="node">
<title>7018</title>
<ellipse fill="none" stroke="#000000" cx="500.8726" cy="-227.1454" rx="28.6953" ry="18"/>
<text text-anchor="middle" x="500.8726" y="-223.4454" font-family="Times,serif" font-size="14.00" fill="#000000">7018</text>
</g>
<!-- 701&#45;&gt;7018 -->
<g id="edge4" class="edge">
<title>701&#45;&gt;7018</title>
<path fill="none" stroke="#000000" d="M502.3399,-246.2294C502.3286,-246.0815 502.3172,-245.9336 502.3058,-245.7856"/>
<polygon fill="#000000" stroke="#000000" points="506.5301,-255.0433 502.2717,-245.3418 499.5507,-255.5814 506.5301,-255.0433"/>
</g>
<!-- 2516 -->
<g id="node10" class="node">
<title>2516</title>
<ellipse fill="none" stroke="#000000" cx="569.6309" cy="-287.7383" rx="28.6953" ry="18"/>
<text text-anchor="middle" x="569.6309" y="-284.0383" font-family="Times,serif" font-size="14.00" fill="#000000">2516</text>
</g>
<!-- 703&#45;&gt;2516 -->
<g id="edge5" class="edge">
<title>703&#45;&gt;2516</title>
<path fill="none" stroke="#000000" d="M556.1262,-291.3124C556.1838,-291.2971 556.2414,-291.2819 556.2988,-291.2667"/>
<polygon fill="#000000" stroke="#000000" points="547.7006,-297.1674 556.471,-291.2211 545.9067,-290.4002 547.7006,-297.1674"/>
</g>
<!-- 9498 -->
<g id="node44" class="node">
<title>9498</title>
<ellipse fill="none" stroke="#000000" cx="523.502" cy="-340.2596" rx="28.6953" ry="18"/>
<text text-anchor="middle" x="523.502" y="-336.5596" font-family="Times,serif" font-size="14.00" fill="#000000">9498</text>
</g>
<!-- 703&#45;&gt;9498 -->
<g id="edge6" class="edge">
<title>703&#45;&gt;9498</title>
<path fill="none" stroke="#000000" d="M527.7873,-316.1428C527.7644,-316.2715 527.7415,-316.4004 527.7186,-316.5295"/>
<polygon fill="#000000" stroke="#000000" points="524.9865,-311.8998 526.6829,-322.3579 531.8786,-313.1245 524.9865,-311.8998"/>
</g>
<!-- 1221 -->
<g id="node5" class="node">
<title>1221</title>
<ellipse fill="none" stroke="#000000" cx="653.8745" cy="-214.2776" rx="28.6953" ry="18"/>
<text text-anchor="middle" x="653.8745" y="-210.5776" font-family="Times,serif" font-size="14.00" fill="#000000">1221</text>
</g>
<!-- 1239 -->
<g id="node6" class="node">
<title>1239</title>
<ellipse fill="none" stroke="#000000" cx="473.4272" cy="-132.0325" rx="28.6953" ry="18"/>
<text text-anchor="middle" x="473.4272" y="-128.3325" font-family="Times,serif" font-size="14.00" fill="#000000">1239</text>
</g>
<!-- 5511 -->
<g id="node28" class="node">
<title>5511</title>
<ellipse fill="none" stroke="#000000" cx="487.3208" cy="-114.0178" rx="28.6953" ry="18"/>
<text text-anchor="middle" x="487.3208" y="-110.3178" font-family="Times,serif" font-size="14.00" fill="#000000">5511</text>
</g>
<!-- 1239&#45;&gt;5511 -->
<g id="edge7" class="edge">
<title>1239&#45;&gt;5511</title>
<path fill="none" stroke="#000000" d="M486.0386,-115.6803C486.1378,-115.5517 486.2323,-115.4292 486.3216,-115.3134"/>
<polygon fill="#000000" stroke="#000000" points="483.6414,-124.5195 486.9773,-114.4631 478.0983,-120.2443 483.6414,-124.5195"/>
</g>
<!-- 17676 -->
<g id="node54" class="node">
<title>17676</title>
<ellipse fill="none" stroke="#000000" cx="453.0291" cy="-110.31" rx="32.4942" ry="18"/>
<text text-anchor="middle" x="453.0291" y="-106.61" font-family="Times,serif" font-size="14.00" fill="#000000">17676</text>
</g>
<!-- 1239&#45;&gt;17676 -->
<g id="edge8" class="edge">
<title>1239&#45;&gt;17676</title>
<path fill="none" stroke="#000000" d="M458.603,-116.2458C458.5535,-116.1932 458.5043,-116.1407 458.4552,-116.0885"/>
<polygon fill="#000000" stroke="#000000" points="467.7073,-120.827 458.3086,-115.9324 462.6036,-125.6198 467.7073,-120.827"/>
</g>
<!-- 1273 -->
<g id="node7" class="node">
<title>1273</title>
<ellipse fill="none" stroke="#000000" cx="484.8471" cy="-162.0546" rx="28.6953" ry="18"/>
<text text-anchor="middle" x="484.8471" y="-158.3546" font-family="Times,serif" font-size="14.00" fill="#000000">1273</text>
</g>
<!-- 1273&#45;&gt;1239 -->
<g id="edge9" class="edge">
<title>1273&#45;&gt;1239</title>
<path fill="none" stroke="#000000" d="M478.0721,-144.2436C478.0529,-144.1931 478.0337,-144.1427 478.0145,-144.0923"/>
<polygon fill="#000000" stroke="#000000" points="484.7878,-152.0425 477.957,-143.9412 478.2448,-154.534 484.7878,-152.0425"/>
</g>
<!-- 6461 -->
<g id="node31" class="node">
<title>6461</title>
<ellipse fill="none" stroke="#000000" cx="437.3914" cy="-262.2053" rx="28.6953" ry="18"/>
<text text-anchor="middle" x="437.3914" y="-258.5053" font-family="Times,serif" font-size="14.00" fill="#000000">6461</text>
</g>
<!-- 1299&#45;&gt;6461 -->
<g id="edge10" class="edge">
<title>1299&#45;&gt;6461</title>
<path fill="none" stroke="#000000" d="M435.7584,-262.1941C435.8874,-262.195 436.0097,-262.1959 436.125,-262.1966"/>
<polygon fill="#000000" stroke="#000000" points="426.938,-265.6328 436.9621,-262.2024 426.9866,-258.6329 426.938,-265.6328"/>
</g>
<!-- 2497 -->
<g id="node9" class="node">
<title>2497</title>
<ellipse fill="none" stroke="#000000" cx="469.8517" cy="-263.1508" rx="28.6953" ry="18"/>
<text text-anchor="middle" x="469.8517" y="-259.4508" font-family="Times,serif" font-size="14.00" fill="#000000">2497</text>
</g>
<!-- 2497&#45;&gt;701 -->
<g id="edge11" class="edge">
<title>2497&#45;&gt;701</title>
<path fill="none" stroke="#000000" d="M498.445,-264.2381C498.4947,-264.24 498.5441,-264.2419 498.5932,-264.2437"/>
<polygon fill="#000000" stroke="#000000" points="488.6117,-267.3602 498.7397,-264.2493 488.8823,-260.3653 488.6117,-267.3602"/>
</g>
<!-- 32787 -->
<g id="node61" class="node">
<title>32787</title>
<ellipse fill="none" stroke="#000000" cx="607.6565" cy="-276.5504" rx="32.4942" ry="18"/>
<text text-anchor="middle" x="607.6565" y="-272.8504" font-family="Times,serif" font-size="14.00" fill="#000000">32787</text>
</g>
<!-- 2516&#45;&gt;32787 -->
<g id="edge12" class="edge">
<title>2516&#45;&gt;32787</title>
<path fill="none" stroke="#000000" d="M595.6249,-280.0903C595.6772,-280.075 595.7293,-280.0596 595.7813,-280.0443"/>
<polygon fill="#000000" stroke="#000000" points="587.3331,-286.1832 595.9373,-279.9984 585.3542,-279.4676 587.3331,-286.1832"/>
</g>
<!-- 2686 -->
<g id="node11" class="node">
<title>2686</title>
<ellipse fill="none" stroke="#000000" cx="183.6589" cy="-475.9763" rx="28.6953" ry="18"/>
<text text-anchor="middle" x="183.6589" y="-472.2763" font-family="Times,serif" font-size="14.00" fill="#000000">2686</text>
</g>
<!-- 3741 -->
<g id="node22" class="node">
<title>3741</title>
<ellipse fill="none" stroke="#000000" cx="198.7157" cy="-497.6651" rx="28.6953" ry="18"/>
<text text-anchor="middle" x="198.7157" y="-493.9651" font-family="Times,serif" font-size="14.00" fill="#000000">3741</text>
</g>
<!-- 2686&#45;&gt;3741 -->
<g id="edge13" class="edge">
<title>2686&#45;&gt;3741</title>
<path fill="none" stroke="#000000" d="M195.2235,-492.6348C195.2551,-492.6803 195.2866,-492.7256 195.3179,-492.7707"/>
<polygon fill="#000000" stroke="#000000" points="186.8306,-486.6867 195.4114,-492.9054 192.5815,-482.6929 186.8306,-486.6867"/>
</g>
<!-- 2687 -->
<g id="node12" class="node">
<title>2687</title>
<ellipse fill="none" stroke="#000000" cx="169.4696" cy="-450.1512" rx="28.6953" ry="18"/>
<text text-anchor="middle" x="169.4696" y="-446.4512" font-family="Times,serif" font-size="14.00" fill="#000000">2687</text>
</g>
<!-- 2687&#45;&gt;2686 -->
<g id="edge14" class="edge">
<title>2687&#45;&gt;2686</title>
<path fill="none" stroke="#000000" d="M178.855,-467.2331C178.8963,-467.3082 178.9374,-467.383 178.9784,-467.4576"/>
<polygon fill="#000000" stroke="#000000" points="171.2159,-460.6021 179.101,-467.6807 177.3512,-457.2299 171.2159,-460.6021"/>
</g>
<!-- 9505 -->
<g id="node45" class="node">
<title>9505</title>
<ellipse fill="none" stroke="#000000" cx="147.4727" cy="-462.4933" rx="28.6953" ry="18"/>
<text text-anchor="middle" x="147.4727" y="-458.7933" font-family="Times,serif" font-size="14.00" fill="#000000">9505</text>
</g>
<!-- 2687&#45;&gt;9505 -->
<g id="edge15" class="edge">
<title>2687&#45;&gt;9505</title>
<path fill="none" stroke="#000000" d="M148.0164,-462.1882C147.9288,-462.2373 147.851,-462.281 147.7836,-462.3188"/>
<polygon fill="#000000" stroke="#000000" points="154.6213,-454.466 147.6131,-462.4144 158.0484,-460.5712 154.6213,-454.466"/>
</g>
<!-- 2764 -->
<g id="node13" class="node">
<title>2764</title>
<ellipse fill="none" stroke="#000000" cx="646.8108" cy="-270.836" rx="28.6953" ry="18"/>
<text text-anchor="middle" x="646.8108" y="-267.136" font-family="Times,serif" font-size="14.00" fill="#000000">2764</text>
</g>
<!-- 7545 -->
<g id="node40" class="node">
<title>7545</title>
<ellipse fill="none" stroke="#000000" cx="674.7206" cy="-296.688" rx="28.6953" ry="18"/>
<text text-anchor="middle" x="674.7206" y="-292.988" font-family="Times,serif" font-size="14.00" fill="#000000">7545</text>
</g>
<!-- 2764&#45;&gt;7545 -->
<g id="edge16" class="edge">
<title>2764&#45;&gt;7545</title>
<path fill="none" stroke="#000000" d="M663.046,-285.8742C663.094,-285.9186 663.1419,-285.963 663.1898,-286.0074"/>
<polygon fill="#000000" stroke="#000000" points="653.6167,-281.9115 663.3334,-286.1404 658.3746,-276.7751 653.6167,-281.9115"/>
</g>
<!-- 38333 -->
<g id="node63" class="node">
<title>38333</title>
<ellipse fill="none" stroke="#000000" cx="648.7981" cy="-238.947" rx="32.4942" ry="18"/>
<text text-anchor="middle" x="648.7981" y="-235.247" font-family="Times,serif" font-size="14.00" fill="#000000">38333</text>
</g>
<!-- 2764&#45;&gt;38333 -->
<g id="edge17" class="edge">
<title>2764&#45;&gt;38333</title>
<path fill="none" stroke="#000000" d="M647.9438,-252.6559C647.9473,-252.5999 647.9508,-252.544 647.9542,-252.4881"/>
<polygon fill="#000000" stroke="#000000" points="650.8303,-262.521 647.9647,-252.3206 643.8439,-262.0816 650.8303,-262.521"/>
</g>
<!-- 38561 -->
<g id="node64" class="node">
<title>38561</title>
<ellipse fill="none" stroke="#000000" cx="667.8277" cy="-257.64" rx="32.4942" ry="18"/>
<text text-anchor="middle" x="667.8277" y="-253.94" font-family="Times,serif" font-size="14.00" fill="#000000">38561</text>
</g>
<!-- 2764&#45;&gt;38561 -->
<g id="edge18" class="edge">
<title>2764&#45;&gt;38561</title>
<path fill="none" stroke="#000000" d="M667.3082,-257.9662C667.3919,-257.9136 667.4662,-257.867 667.5306,-257.8265"/>
<polygon fill="#000000" stroke="#000000" points="661.0856,-266.0086 667.6935,-257.7243 657.3617,-260.0797 661.0856,-266.0086"/>
</g>
<!-- 2828 -->
<g id="node14" class="node">
<title>2828</title>
<ellipse fill="none" stroke="#000000" cx="486.1991" cy="-381.3845" rx="28.6953" ry="18"/>
<text text-anchor="middle" x="486.1991" y="-377.6845" font-family="Times,serif" font-size="14.00" fill="#000000">2828</text>
</g>
<!-- 2914 -->
<g id="node15" class="node">
<title>2914</title>
<ellipse fill="none" stroke="#000000" cx="239.5615" cy="-308.2948" rx="28.6953" ry="18"/>
<text text-anchor="middle" x="239.5615" y="-304.5948" font-family="Times,serif" font-size="14.00" fill="#000000">2914</text>
</g>
<!-- 6453 -->
<g id="node30" class="node">
<title>6453</title>
<ellipse fill="none" stroke="#000000" cx="266.7361" cy="-293.0107" rx="28.6953" ry="18"/>
<text text-anchor="middle" x="266.7361" y="-289.3107" font-family="Times,serif" font-size="14.00" fill="#000000">6453</text>
</g>
<!-- 2914&#45;&gt;6453 -->
<g id="edge19" class="edge">
<title>2914&#45;&gt;6453</title>
<path fill="none" stroke="#000000" d="M260.9731,-296.2521C261.0257,-296.2225 261.0781,-296.193 261.1302,-296.1637"/>
<polygon fill="#000000" stroke="#000000" points="254.286,-304.032 261.2859,-296.0761 250.8525,-297.9303 254.286,-304.032"/>
</g>
<!-- 3257 -->
<g id="node16" class="node">
<title>3257</title>
<ellipse fill="none" stroke="#000000" cx="293.945" cy="-279.3333" rx="28.6953" ry="18"/>
<text text-anchor="middle" x="293.945" y="-275.6333" font-family="Times,serif" font-size="14.00" fill="#000000">3257</text>
</g>
<!-- 3491 -->
<g id="node19" class="node">
<title>3491</title>
<ellipse fill="none" stroke="#000000" cx="320.9934" cy="-269.2078" rx="28.6953" ry="18"/>
<text text-anchor="middle" x="320.9934" y="-265.5078" font-family="Times,serif" font-size="14.00" fill="#000000">3491</text>
</g>
<!-- 3257&#45;&gt;3491 -->
<g id="edge20" class="edge">
<title>3257&#45;&gt;3491</title>
<path fill="none" stroke="#000000" d="M318.8709,-270.0024C318.9536,-269.9714 319.0343,-269.9412 319.1128,-269.9118"/>
<polygon fill="#000000" stroke="#000000" points="311.2045,-276.6125 319.3421,-269.826 308.7485,-270.0566 311.2045,-276.6125"/>
</g>
<!-- 3320 -->
<g id="node17" class="node">
<title>3320</title>
<ellipse fill="none" stroke="#000000" cx="494.0214" cy="-193.1592" rx="28.6953" ry="18"/>
<text text-anchor="middle" x="494.0214" y="-189.4592" font-family="Times,serif" font-size="14.00" fill="#000000">3320</text>
</g>
<!-- 3320&#45;&gt;1273 -->
<g id="edge21" class="edge">
<title>3320&#45;&gt;1273</title>
<path fill="none" stroke="#000000" d="M488.7911,-175.4263C488.775,-175.3717 488.7589,-175.3172 488.7428,-175.2627"/>
<polygon fill="#000000" stroke="#000000" points="494.885,-183.6994 488.6946,-175.0993 488.1708,-185.6827 494.885,-183.6994"/>
</g>
<!-- 3356 -->
<g id="node18" class="node">
<title>3356</title>
<ellipse fill="none" stroke="#000000" cx="154.9157" cy="-321.5591" rx="28.6953" ry="18"/>
<text text-anchor="middle" x="154.9157" y="-317.8591" font-family="Times,serif" font-size="14.00" fill="#000000">3356</text>
</g>
<!-- 3549 -->
<g id="node20" class="node">
<title>3549</title>
<ellipse fill="none" stroke="#000000" cx="184.5417" cy="-344.4283" rx="28.6953" ry="18"/>
<text text-anchor="middle" x="184.5417" y="-340.7283" font-family="Times,serif" font-size="14.00" fill="#000000">3549</text>
</g>
<!-- 3356&#45;&gt;3549 -->
<g id="edge22" class="edge">
<title>3356&#45;&gt;3549</title>
<path fill="none" stroke="#000000" d="M173.1722,-335.6519C173.2199,-335.6886 173.2674,-335.7254 173.315,-335.762"/>
<polygon fill="#000000" stroke="#000000" points="163.4009,-332.5303 173.4574,-335.872 167.6798,-326.9883 163.4009,-332.5303"/>
</g>
<!-- 3491&#45;&gt;174 -->
<g id="edge23" class="edge">
<title>3491&#45;&gt;174</title>
<path fill="none" stroke="#000000" d="M348.6414,-263.9632C348.7543,-263.9418 348.8546,-263.9228 348.9414,-263.9063"/>
<polygon fill="#000000" stroke="#000000" points="339.9899,-269.1706 349.1612,-263.8646 338.6827,-262.2932 339.9899,-269.1706"/>
</g>
<!-- 6762 -->
<g id="node33" class="node">
<title>6762</title>
<ellipse fill="none" stroke="#000000" cx="212.3959" cy="-325.5363" rx="28.6953" ry="18"/>
<text text-anchor="middle" x="212.3959" y="-321.8363" font-family="Times,serif" font-size="14.00" fill="#000000">6762</text>
</g>
<!-- 3549&#45;&gt;6762 -->
<g id="edge24" class="edge">
<title>3549&#45;&gt;6762</title>
<path fill="none" stroke="#000000" d="M204.1894,-331.1023C204.2614,-331.0535 204.3332,-331.0048 204.4047,-330.9563"/>
<polygon fill="#000000" stroke="#000000" points="198.307,-339.323 204.6184,-330.8113 194.3766,-333.5293 198.307,-339.323"/>
</g>
<!-- 30070 -->
<g id="node60" class="node">
<title>30070</title>
<ellipse fill="none" stroke="#000000" cx="191.3206" cy="-382.7695" rx="32.4942" ry="18"/>
<text text-anchor="middle" x="191.3206" y="-379.0695" font-family="Times,serif" font-size="14.00" fill="#000000">30070</text>
</g>
<!-- 3549&#45;&gt;30070 -->
<g id="edge25" class="edge">
<title>3549&#45;&gt;30070</title>
<path fill="none" stroke="#000000" d="M187.7723,-362.7005C187.7996,-362.8548 187.8269,-363.0092 187.8542,-363.1636"/>
<polygon fill="#000000" stroke="#000000" points="182.9117,-355.3156 188.0999,-364.5533 189.8048,-354.0964 182.9117,-355.3156"/>
</g>
<!-- 3597 -->
<g id="node21" class="node">
<title>3597</title>
<ellipse fill="none" stroke="#000000" cx="62.3417" cy="-262.2973" rx="28.6953" ry="18"/>
<text text-anchor="middle" x="62.3417" y="-258.5973" font-family="Times,serif" font-size="14.00" fill="#000000">3597</text>
</g>
<!-- 37179 -->
<g id="node62" class="node">
<title>37179</title>
<ellipse fill="none" stroke="#000000" cx="212.4395" cy="-516.0181" rx="32.4942" ry="18"/>
<text text-anchor="middle" x="212.4395" y="-512.3181" font-family="Times,serif" font-size="14.00" fill="#000000">37179</text>
</g>
<!-- 3741&#45;&gt;37179 -->
<g id="edge26" class="edge">
<title>3741&#45;&gt;37179</title>
<path fill="none" stroke="#000000" d="M210.9708,-514.054C211.0272,-514.1294 211.0823,-514.2031 211.136,-514.275"/>
<polygon fill="#000000" stroke="#000000" points="202.4996,-508.5721 211.293,-514.4849 208.1062,-504.3791 202.4996,-508.5721"/>
</g>
<!-- 4635 -->
<g id="node23" class="node">
<title>4635</title>
<ellipse fill="none" stroke="#000000" cx="690.3025" cy="-278.9392" rx="28.6953" ry="18"/>
<text text-anchor="middle" x="690.3025" y="-275.2392" font-family="Times,serif" font-size="14.00" fill="#000000">4635</text>
</g>
<!-- 4637 -->
<g id="node24" class="node">
<title>4637</title>
<ellipse fill="none" stroke="#000000" cx="503.5903" cy="-363.7273" rx="28.6953" ry="18"/>
<text text-anchor="middle" x="503.5903" y="-360.0273" font-family="Times,serif" font-size="14.00" fill="#000000">4637</text>
</g>
<!-- 4637&#45;&gt;2828 -->
<g id="edge27" class="edge">
<title>4637&#45;&gt;2828</title>
<path fill="none" stroke="#000000" d="M488.3316,-379.2194C488.2503,-379.3019 488.1709,-379.3825 488.0933,-379.4612"/>
<polygon fill="#000000" stroke="#000000" points="492.3908,-370.1097 487.8666,-379.6914 497.3786,-375.0224 492.3908,-370.1097"/>
</g>
<!-- 4739 -->
<g id="node25" class="node">
<title>4739</title>
<ellipse fill="none" stroke="#000000" cx="674.8015" cy="-329.6" rx="28.6953" ry="18"/>
<text text-anchor="middle" x="674.8015" y="-325.9" font-family="Times,serif" font-size="14.00" fill="#000000">4739</text>
</g>
<!-- 38880 -->
<g id="node65" class="node">
<title>38880</title>
<ellipse fill="none" stroke="#000000" cx="684.172" cy="-361.6157" rx="32.4942" ry="18"/>
<text text-anchor="middle" x="684.172" y="-357.9157" font-family="Times,serif" font-size="14.00" fill="#000000">38880</text>
</g>
<!-- 4739&#45;&gt;38880 -->
<g id="edge28" class="edge">
<title>4739&#45;&gt;38880</title>
<path fill="none" stroke="#000000" d="M680.0347,-347.4799C680.0514,-347.5372 680.0682,-347.5945 680.085,-347.6517"/>
<polygon fill="#000000" stroke="#000000" points="673.963,-339.2102 680.1352,-347.8233 680.6813,-337.2411 673.963,-339.2102"/>
</g>
<!-- 4755 -->
<g id="node26" class="node">
<title>4755</title>
<ellipse fill="none" stroke="#000000" cx="539.811" cy="-403.576" rx="28.6953" ry="18"/>
<text text-anchor="middle" x="539.811" y="-399.876" font-family="Times,serif" font-size="14.00" fill="#000000">4755</text>
</g>
<!-- 9583 -->
<g id="node46" class="node">
<title>9583</title>
<ellipse fill="none" stroke="#000000" cx="542.0913" cy="-428.8429" rx="28.6953" ry="18"/>
<text text-anchor="middle" x="542.0913" y="-425.1429" font-family="Times,serif" font-size="14.00" fill="#000000">9583</text>
</g>
<!-- 4755&#45;&gt;9583 -->
<g id="edge29" class="edge">
<title>4755&#45;&gt;9583</title>
<path fill="none" stroke="#000000" d="M541.4439,-421.67C541.4496,-421.7333 541.4553,-421.7964 541.461,-421.8592"/>
<polygon fill="#000000" stroke="#000000" points="537.0885,-412.4037 541.4779,-422.0469 544.0601,-411.7711 537.0885,-412.4037"/>
</g>
<!-- 4826 -->
<g id="node27" class="node">
<title>4826</title>
<ellipse fill="none" stroke="#000000" cx="731.3843" cy="-386.0209" rx="28.6953" ry="18"/>
<text text-anchor="middle" x="731.3843" y="-382.3209" font-family="Times,serif" font-size="14.00" fill="#000000">4826</text>
</g>
<!-- 5692 -->
<g id="node29" class="node">
<title>5692</title>
<ellipse fill="none" stroke="#000000" cx="67.5387" cy="-231.1229" rx="28.6953" ry="18"/>
<text text-anchor="middle" x="67.5387" y="-227.4229" font-family="Times,serif" font-size="14.00" fill="#000000">5692</text>
</g>
<!-- 5692&#45;&gt;3597 -->
<g id="edge30" class="edge">
<title>5692&#45;&gt;3597</title>
<path fill="none" stroke="#000000" d="M64.5156,-249.2572C64.5067,-249.3107 64.4978,-249.3643 64.4888,-249.4178"/>
<polygon fill="#000000" stroke="#000000" points="62.6592,-239.1368 64.4621,-249.5781 69.564,-240.2915 62.6592,-239.1368"/>
</g>
<!-- 10834 -->
<g id="node49" class="node">
<title>10834</title>
<ellipse fill="none" stroke="#000000" cx="96.3023" cy="-271.1277" rx="32.4942" ry="18"/>
<text text-anchor="middle" x="96.3023" y="-267.4277" font-family="Times,serif" font-size="14.00" fill="#000000">10834</text>
</g>
<!-- 5692&#45;&gt;10834 -->
<g id="edge31" class="edge">
<title>5692&#45;&gt;10834</title>
<path fill="none" stroke="#000000" d="M79.5704,-247.8568C79.6666,-247.9906 79.763,-248.1246 79.8595,-248.2588"/>
<polygon fill="#000000" stroke="#000000" points="75.5469,-248.2563 84.2264,-254.3323 81.2303,-244.1699 75.5469,-248.2563"/>
</g>
<!-- 11008 -->
<g id="node50" class="node">
<title>11008</title>
<ellipse fill="none" stroke="#000000" cx="84.4513" cy="-248.3085" rx="32.4942" ry="18"/>
<text text-anchor="middle" x="84.4513" y="-244.6085" font-family="Times,serif" font-size="14.00" fill="#000000">11008</text>
</g>
<!-- 5692&#45;&gt;11008 -->
<g id="edge32" class="edge">
<title>5692&#45;&gt;11008</title>
<path fill="none" stroke="#000000" d="M82.6414,-246.4693C82.7804,-246.6106 82.9129,-246.7453 83.0384,-246.8728"/>
<polygon fill="#000000" stroke="#000000" points="74.4542,-243.1401 83.9634,-247.8127 79.4436,-238.23 74.4542,-243.1401"/>
</g>
<!-- 27865 -->
<g id="node58" class="node">
<title>27865</title>
<ellipse fill="none" stroke="#000000" cx="32.4971" cy="-232.1068" rx="32.4942" ry="18"/>
<text text-anchor="middle" x="32.4971" y="-228.4068" font-family="Times,serif" font-size="14.00" fill="#000000">27865</text>
</g>
<!-- 5692&#45;&gt;27865 -->
<g id="edge33" class="edge">
<title>5692&#45;&gt;27865</title>
<path fill="none" stroke="#000000" d="M38.9243,-231.9264C38.8648,-231.928 38.8056,-231.9297 38.7467,-231.9313"/>
<polygon fill="#000000" stroke="#000000" points="48.4668,-228.1515 38.5709,-231.9363 48.6671,-235.1487 48.4668,-228.1515"/>
</g>
<!-- 28065 -->
<g id="node59" class="node">
<title>28065</title>
<ellipse fill="none" stroke="#000000" cx="37.4364" cy="-254.609" rx="32.4942" ry="18"/>
<text text-anchor="middle" x="37.4364" y="-250.909" font-family="Times,serif" font-size="14.00" fill="#000000">28065</text>
</g>
<!-- 5692&#45;&gt;28065 -->
<g id="edge34" class="edge">
<title>5692&#45;&gt;28065</title>
<path fill="none" stroke="#000000" d="M49.3337,-245.3267C49.2841,-245.3653 49.2347,-245.4039 49.1852,-245.4425"/>
<polygon fill="#000000" stroke="#000000" points="54.7688,-236.6448 49.0371,-245.5581 59.0761,-242.1646 54.7688,-236.6448"/>
</g>
<!-- 52317 -->
<g id="node66" class="node">
<title>52317</title>
<ellipse fill="none" stroke="#000000" cx="88.557" cy="-218.5659" rx="32.4942" ry="18"/>
<text text-anchor="middle" x="88.557" y="-214.8659" font-family="Times,serif" font-size="14.00" fill="#000000">52317</text>
</g>
<!-- 5692&#45;&gt;52317 -->
<g id="edge35" class="edge">
<title>5692&#45;&gt;52317</title>
<path fill="none" stroke="#000000" d="M88.321,-218.7069C88.3595,-218.6839 88.3935,-218.6636 88.4228,-218.6461"/>
<polygon fill="#000000" stroke="#000000" points="81.7075,-226.7415 88.4967,-218.6019 78.1134,-220.7311 81.7075,-226.7415"/>
</g>
<!-- 52375 -->
<g id="node67" class="node">
<title>52375</title>
<ellipse fill="none" stroke="#000000" cx="92.008" cy="-201.676" rx="32.4942" ry="18"/>
<text text-anchor="middle" x="92.008" y="-197.976" font-family="Times,serif" font-size="14.00" fill="#000000">52375</text>
</g>
<!-- 5692&#45;&gt;52375 -->
<g id="edge36" class="edge">
<title>5692&#45;&gt;52375</title>
<path fill="none" stroke="#000000" d="M80.9189,-215.0209C80.9635,-214.9672 81.0081,-214.9135 81.0527,-214.8599"/>
<polygon fill="#000000" stroke="#000000" points="77.4859,-224.6287 81.1864,-214.699 72.1013,-220.1538 77.4859,-224.6287"/>
</g>
<!-- 52376 -->
<g id="node68" class="node">
<title>52376</title>
<ellipse fill="none" stroke="#000000" cx="72.2658" cy="-200.086" rx="32.4942" ry="18"/>
<text text-anchor="middle" x="72.2658" y="-196.386" font-family="Times,serif" font-size="14.00" fill="#000000">52376</text>
</g>
<!-- 5692&#45;&gt;52376 -->
<g id="edge37" class="edge">
<title>5692&#45;&gt;52376</title>
<path fill="none" stroke="#000000" d="M70.2885,-213.0686C70.2966,-213.0152 70.3047,-212.9619 70.3128,-212.9087"/>
<polygon fill="#000000" stroke="#000000" points="72.2863,-223.1639 70.3371,-212.749 65.3661,-222.1063 72.2863,-223.1639"/>
</g>
<!-- 52380 -->
<g id="node69" class="node">
<title>52380</title>
<ellipse fill="none" stroke="#000000" cx="100.9746" cy="-234.0279" rx="32.4942" ry="18"/>
<text text-anchor="middle" x="100.9746" y="-230.3279" font-family="Times,serif" font-size="14.00" fill="#000000">52380</text>
</g>
<!-- 5692&#45;&gt;52380 -->
<g id="edge38" class="edge">
<title>5692&#45;&gt;52380</title>
<path fill="none" stroke="#000000" d="M96.041,-233.5992C96.0875,-233.6033 96.1337,-233.6073 96.1796,-233.6113"/>
<polygon fill="#000000" stroke="#000000" points="86.0489,-236.2379 96.3167,-233.6232 86.6595,-229.2641 86.0489,-236.2379"/>
</g>
<!-- 52413 -->
<g id="node70" class="node">
<title>52413</title>
<ellipse fill="none" stroke="#000000" cx="53.0097" cy="-195.873" rx="32.4942" ry="18"/>
<text text-anchor="middle" x="53.0097" y="-192.173" font-family="Times,serif" font-size="14.00" fill="#000000">52413</text>
</g>
<!-- 5692&#45;&gt;52413 -->
<g id="edge39" class="edge">
<title>5692&#45;&gt;52413</title>
<path fill="none" stroke="#000000" d="M60.2742,-213.498C60.2459,-213.4291 60.2175,-213.3603 60.1891,-213.2914"/>
<polygon fill="#000000" stroke="#000000" points="67.1535,-220.996 60.104,-213.0849 60.6814,-223.6654 67.1535,-220.996"/>
</g>
<!-- 52431 -->
<g id="node71" class="node">
<title>52431</title>
<ellipse fill="none" stroke="#000000" cx="36.0009" cy="-211.2556" rx="32.4942" ry="18"/>
<text text-anchor="middle" x="36.0009" y="-207.5556" font-family="Times,serif" font-size="14.00" fill="#000000">52431</text>
</g>
<!-- 5692&#45;&gt;52431 -->
<g id="edge40" class="edge">
<title>5692&#45;&gt;52431</title>
<path fill="none" stroke="#000000" d="M47.0313,-218.2042C46.9842,-218.1746 46.9372,-218.145 46.8903,-218.1154"/>
<polygon fill="#000000" stroke="#000000" points="57.0782,-220.398 46.7497,-218.0268 53.3452,-226.3214 57.0782,-220.398"/>
</g>
<!-- 262230 -->
<g id="node72" class="node">
<title>262230</title>
<ellipse fill="none" stroke="#000000" cx="51.2888" cy="-243.7971" rx="37.0935" ry="18"/>
<text text-anchor="middle" x="51.2888" y="-240.0971" font-family="Times,serif" font-size="14.00" fill="#000000">262230</text>
</g>
<!-- 5692&#45;&gt;262230 -->
<g id="edge41" class="edge">
<title>5692&#45;&gt;262230</title>
<path fill="none" stroke="#000000" d="M51.3354,-243.7608C51.3277,-243.7668 51.321,-243.772 51.3151,-243.7766"/>
<polygon fill="#000000" stroke="#000000" points="57.0374,-234.8534 51.3006,-243.7879 61.3569,-240.381 57.0374,-234.8534"/>
</g>
<!-- 264608 -->
<g id="node73" class="node">
<title>264608</title>
<ellipse fill="none" stroke="#000000" cx="57.0134" cy="-215.568" rx="37.0935" ry="18"/>
<text text-anchor="middle" x="57.0134" y="-211.868" font-family="Times,serif" font-size="14.00" fill="#000000">264608</text>
</g>
<!-- 5692&#45;&gt;264608 -->
<g id="edge42" class="edge">
<title>5692&#45;&gt;264608</title>
<path fill="none" stroke="#000000" d="M57.1316,-215.7427C57.1123,-215.7142 57.0953,-215.6891 57.0806,-215.6674"/>
<polygon fill="#000000" stroke="#000000" points="65.554,-221.9336 57.0436,-215.6126 59.7547,-225.8611 65.554,-221.9336"/>
</g>
<!-- 6453&#45;&gt;3257 -->
<g id="edge43" class="edge">
<title>6453&#45;&gt;3257</title>
<path fill="none" stroke="#000000" d="M289.2056,-281.7157C289.2937,-281.6714 289.3809,-281.6276 289.4672,-281.5842"/>
<polygon fill="#000000" stroke="#000000" points="282.361,-289.0759 289.7235,-281.4554 279.2158,-282.8213 282.361,-289.0759"/>
</g>
<!-- 6461&#45;&gt;2497 -->
<g id="edge44" class="edge">
<title>6461&#45;&gt;2497</title>
<path fill="none" stroke="#000000" d="M466.1281,-263.0423C466.1994,-263.0444 466.2698,-263.0464 466.3393,-263.0485"/>
<polygon fill="#000000" stroke="#000000" points="456.4462,-266.2571 466.5456,-263.0545 456.6533,-259.2601 456.4462,-266.2571"/>
</g>
<!-- 6695 -->
<g id="node32" class="node">
<title>6695</title>
<ellipse fill="none" stroke="#000000" cx="674.7559" cy="-387.1262" rx="28.6953" ry="18"/>
<text text-anchor="middle" x="674.7559" y="-383.4262" font-family="Times,serif" font-size="14.00" fill="#000000">6695</text>
</g>
<!-- 6762&#45;&gt;2914 -->
<g id="edge45" class="edge">
<title>6762&#45;&gt;2914</title>
<path fill="none" stroke="#000000" d="M232.7065,-312.6456C232.7679,-312.6066 232.8291,-312.5678 232.89,-312.5291"/>
<polygon fill="#000000" stroke="#000000" points="226.5045,-320.7297 233.072,-312.4136 222.7519,-314.8191 226.5045,-320.7297"/>
</g>
<!-- 6904 -->
<g id="node34" class="node">
<title>6904</title>
<ellipse fill="none" stroke="#000000" cx="175.7807" cy="-417.2334" rx="28.6953" ry="18"/>
<text text-anchor="middle" x="175.7807" y="-413.5334" font-family="Times,serif" font-size="14.00" fill="#000000">6904</text>
</g>
<!-- 6904&#45;&gt;2687 -->
<g id="edge46" class="edge">
<title>6904&#45;&gt;2687</title>
<path fill="none" stroke="#000000" d="M172.3297,-435.2333C172.3182,-435.2933 172.3067,-435.3533 172.2952,-435.4133"/>
<polygon fill="#000000" stroke="#000000" points="170.7106,-425.1113 172.2607,-435.5932 177.5855,-426.4325 170.7106,-425.1113"/>
</g>
<!-- 6939 -->
<g id="node35" class="node">
<title>6939</title>
<ellipse fill="none" stroke="#000000" cx="434.487" cy="-90.3982" rx="28.6953" ry="18"/>
<text text-anchor="middle" x="434.487" y="-86.6982" font-family="Times,serif" font-size="14.00" fill="#000000">6939</text>
</g>
<!-- 12266 -->
<g id="node52" class="node">
<title>12266</title>
<ellipse fill="none" stroke="#000000" cx="424.2481" cy="-64.6319" rx="32.4942" ry="18"/>
<text text-anchor="middle" x="424.2481" y="-60.9319" font-family="Times,serif" font-size="14.00" fill="#000000">12266</text>
</g>
<!-- 6939&#45;&gt;12266 -->
<g id="edge47" class="edge">
<title>6939&#45;&gt;12266</title>
<path fill="none" stroke="#000000" d="M427.4878,-72.7845C427.4597,-72.7137 427.4316,-72.6432 427.4037,-72.5728"/>
<polygon fill="#000000" stroke="#000000" points="434.2685,-80.3626 427.3201,-72.3626 427.7631,-82.9495 434.2685,-80.3626"/>
</g>
<!-- 7016 -->
<g id="node36" class="node">
<title>7016</title>
<ellipse fill="none" stroke="#000000" cx="220.1151" cy="-388.2196" rx="28.6953" ry="18"/>
<text text-anchor="middle" x="220.1151" y="-384.5196" font-family="Times,serif" font-size="14.00" fill="#000000">7016</text>
</g>
<!-- 7922 -->
<g id="node41" class="node">
<title>7922</title>
<ellipse fill="none" stroke="#000000" cx="242.292" cy="-398.1097" rx="28.6953" ry="18"/>
<text text-anchor="middle" x="242.292" y="-394.4097" font-family="Times,serif" font-size="14.00" fill="#000000">7922</text>
</g>
<!-- 7016&#45;&gt;7922 -->
<g id="edge48" class="edge">
<title>7016&#45;&gt;7922</title>
<path fill="none" stroke="#000000" d="M242.2284,-398.0813C242.2389,-398.086 242.2481,-398.0901 242.256,-398.0937"/>
<polygon fill="#000000" stroke="#000000" points="231.704,-397.2004 242.2759,-398.1025 234.574,-390.8046 231.704,-397.2004"/>
</g>
<!-- 7018&#45;&gt;3320 -->
<g id="edge49" class="edge">
<title>7018&#45;&gt;3320</title>
<path fill="none" stroke="#000000" d="M497.2063,-208.9584C497.1936,-208.8952 497.1809,-208.8321 497.1682,-208.769"/>
<polygon fill="#000000" stroke="#000000" points="502.5413,-217.6897 497.13,-208.5799 495.6793,-219.0759 502.5413,-217.6897"/>
</g>
<!-- 7473 -->
<g id="node38" class="node">
<title>7473</title>
<ellipse fill="none" stroke="#000000" cx="501.9734" cy="-334.7676" rx="28.6953" ry="18"/>
<text text-anchor="middle" x="501.9734" y="-331.0676" font-family="Times,serif" font-size="14.00" fill="#000000">7473</text>
</g>
<!-- 7474 -->
<g id="node39" class="node">
<title>7474</title>
<ellipse fill="none" stroke="#000000" cx="602.2416" cy="-254.8456" rx="28.6953" ry="18"/>
<text text-anchor="middle" x="602.2416" y="-251.1456" font-family="Times,serif" font-size="14.00" fill="#000000">7474</text>
</g>
<!-- 7545&#45;&gt;4635 -->
<g id="edge50" class="edge">
<title>7545&#45;&gt;4635</title>
<path fill="none" stroke="#000000" d="M688.635,-280.8386C688.699,-280.7657 688.7616,-280.6944 688.8226,-280.625"/>
<polygon fill="#000000" stroke="#000000" points="685.0326,-290.2473 689.0008,-280.4219 679.7716,-285.6282 685.0326,-290.2473"/>
</g>
<!-- 7545&#45;&gt;4739 -->
<g id="edge51" class="edge">
<title>7545&#45;&gt;4739</title>
<path fill="none" stroke="#000000" d="M674.7658,-315.0685C674.7659,-315.1274 674.7661,-315.1863 674.7662,-315.2451"/>
<polygon fill="#000000" stroke="#000000" points="671.2364,-305.4321 674.7666,-315.4215 678.2364,-305.4109 671.2364,-305.4321"/>
</g>
<!-- 9942 -->
<g id="node47" class="node">
<title>9942</title>
<ellipse fill="none" stroke="#000000" cx="701.6722" cy="-301.8733" rx="28.6953" ry="18"/>
<text text-anchor="middle" x="701.6722" y="-298.1733" font-family="Times,serif" font-size="14.00" fill="#000000">9942</text>
</g>
<!-- 7545&#45;&gt;9942 -->
<g id="edge52" class="edge">
<title>7545&#45;&gt;9942</title>
<path fill="none" stroke="#000000" d="M701.5949,-301.8584C701.6077,-301.8609 701.6189,-301.863 701.6285,-301.8649"/>
<polygon fill="#000000" stroke="#000000" points="691.1593,-303.3847 701.6527,-301.8695 692.5048,-296.5102 691.1593,-303.3847"/>
</g>
<!-- 9002 -->
<g id="node42" class="node">
<title>9002</title>
<ellipse fill="none" stroke="#000000" cx="660.5864" cy="-364.0531" rx="28.6953" ry="18"/>
<text text-anchor="middle" x="660.5864" y="-360.3531" font-family="Times,serif" font-size="14.00" fill="#000000">9002</text>
</g>
<!-- 9443 -->
<g id="node43" class="node">
<title>9443</title>
<ellipse fill="none" stroke="#000000" cx="710.3179" cy="-373.7813" rx="28.6953" ry="18"/>
<text text-anchor="middle" x="710.3179" y="-370.0813" font-family="Times,serif" font-size="14.00" fill="#000000">9443</text>
</g>
<!-- 9443&#45;&gt;4826 -->
<g id="edge53" class="edge">
<title>9443&#45;&gt;4826</title>
<path fill="none" stroke="#000000" d="M731.3239,-385.9858C731.3338,-385.9916 731.3426,-385.9967 731.3501,-386.001"/>
<polygon fill="#000000" stroke="#000000" points="720.9501,-383.9942 731.369,-386.012 724.4825,-377.9373 720.9501,-383.9942"/>
</g>
<!-- 9498&#45;&gt;4637 -->
<g id="edge54" class="edge">
<title>9498&#45;&gt;4637</title>
<path fill="none" stroke="#000000" d="M509.8905,-356.302C509.8358,-356.3664 509.7813,-356.4307 509.7269,-356.4947"/>
<polygon fill="#000000" stroke="#000000" points="513.3664,-346.7952 509.5644,-356.6862 518.7047,-351.325 513.3664,-346.7952"/>
</g>
<!-- 9498&#45;&gt;7473 -->
<g id="edge55" class="edge">
<title>9498&#45;&gt;7473</title>
<path fill="none" stroke="#000000" d="M502.0352,-334.7833C502.025,-334.7807 502.016,-334.7784 502.0083,-334.7765"/>
<polygon fill="#000000" stroke="#000000" points="512.5586,-333.8891 501.989,-334.7715 510.8019,-340.6729 512.5586,-333.8891"/>
</g>
<!-- 10026 -->
<g id="node48" class="node">
<title>10026</title>
<ellipse fill="none" stroke="#000000" cx="535.0391" cy="-373.6191" rx="32.4942" ry="18"/>
<text text-anchor="middle" x="535.0391" y="-369.9191" font-family="Times,serif" font-size="14.00" fill="#000000">10026</text>
</g>
<!-- 9498&#45;&gt;10026 -->
<g id="edge56" class="edge">
<title>9498&#45;&gt;10026</title>
<path fill="none" stroke="#000000" d="M529.6758,-358.1113C529.6973,-358.1732 529.7187,-358.2352 529.7401,-358.2971"/>
<polygon fill="#000000" stroke="#000000" points="523.2245,-350.1769 529.8043,-358.4828 529.8403,-347.8866 523.2245,-350.1769"/>
</g>
<!-- 10026&#45;&gt;4755 -->
<g id="edge57" class="edge">
<title>10026&#45;&gt;4755</title>
<path fill="none" stroke="#000000" d="M537.925,-391.7362C537.9329,-391.7855 537.9407,-391.8348 537.9485,-391.884"/>
<polygon fill="#000000" stroke="#000000" points="532.9368,-382.7084 537.972,-392.0314 539.8497,-381.6032 532.9368,-382.7084"/>
</g>
<!-- 12956 -->
<g id="node53" class="node">
<title>12956</title>
<ellipse fill="none" stroke="#000000" cx="126.3534" cy="-297.669" rx="32.4942" ry="18"/>
<text text-anchor="middle" x="126.3534" y="-293.969" font-family="Times,serif" font-size="14.00" fill="#000000">12956</text>
</g>
<!-- 10834&#45;&gt;12956 -->
<g id="edge58" class="edge">
<title>10834&#45;&gt;12956</title>
<path fill="none" stroke="#000000" d="M113.7831,-286.5669C113.8348,-286.6125 113.8864,-286.6581 113.9379,-286.7036"/>
<polygon fill="#000000" stroke="#000000" points="104.2786,-282.8424 114.0925,-286.8401 108.9136,-277.5949 104.2786,-282.8424"/>
</g>
<!-- 22927 -->
<g id="node57" class="node">
<title>22927</title>
<ellipse fill="none" stroke="#000000" cx="87.866" cy="-295.6349" rx="32.4942" ry="18"/>
<text text-anchor="middle" x="87.866" y="-291.9349" font-family="Times,serif" font-size="14.00" fill="#000000">22927</text>
</g>
<!-- 10834&#45;&gt;22927 -->
<g id="edge59" class="edge">
<title>10834&#45;&gt;22927</title>
<path fill="none" stroke="#000000" d="M90.1712,-288.9382C90.1508,-288.9976 90.1304,-289.0568 90.1101,-289.1157"/>
<polygon fill="#000000" stroke="#000000" points="89.9985,-278.6956 90.0495,-289.2918 96.6175,-280.9766 89.9985,-278.6956"/>
</g>
<!-- 12189 -->
<g id="node51" class="node">
<title>12189</title>
<ellipse fill="none" stroke="#000000" cx="408.4096" cy="-18" rx="32.4942" ry="18"/>
<text text-anchor="middle" x="408.4096" y="-14.3" font-family="Times,serif" font-size="14.00" fill="#000000">12189</text>
</g>
<!-- 20454 -->
<g id="node56" class="node">
<title>20454</title>
<ellipse fill="none" stroke="#000000" cx="416.6499" cy="-39.8355" rx="32.4942" ry="18"/>
<text text-anchor="middle" x="416.6499" y="-36.1355" font-family="Times,serif" font-size="14.00" fill="#000000">20454</text>
</g>
<!-- 12266&#45;&gt;20454 -->
<g id="edge60" class="edge">
<title>12266&#45;&gt;20454</title>
<path fill="none" stroke="#000000" d="M418.807,-46.8748C418.7879,-46.8127 418.769,-46.7508 418.7501,-46.6892"/>
<polygon fill="#000000" stroke="#000000" points="424.9736,-55.0397 418.6936,-46.5049 418.2806,-57.0931 424.9736,-55.0397"/>
</g>
<!-- 12956&#45;&gt;3356 -->
<g id="edge61" class="edge">
<title>12956&#45;&gt;3356</title>
<path fill="none" stroke="#000000" d="M144.604,-312.9342C144.6478,-312.9708 144.6915,-313.0073 144.7351,-313.0438"/>
<polygon fill="#000000" stroke="#000000" points="134.9476,-309.4204 144.8658,-313.1531 139.4401,-304.0501 134.9476,-309.4204"/>
</g>
<!-- 17676&#45;&gt;6939 -->
<g id="edge62" class="edge">
<title>17676&#45;&gt;6939</title>
<path fill="none" stroke="#000000" d="M438.0621,-94.2374C437.9962,-94.1666 437.9309,-94.0965 437.8663,-94.0271"/>
<polygon fill="#000000" stroke="#000000" points="447.0522,-98.7548 437.6745,-93.8211 441.9287,-103.526 447.0522,-98.7548"/>
</g>
<!-- 18540 -->
<g id="node55" class="node">
<title>18540</title>
<ellipse fill="none" stroke="#000000" cx="196.8313" cy="-402.0936" rx="32.4942" ry="18"/>
<text text-anchor="middle" x="196.8313" y="-398.3936" font-family="Times,serif" font-size="14.00" fill="#000000">18540</text>
</g>
<!-- 20454&#45;&gt;12189 -->
<g id="edge63" class="edge">
<title>20454&#45;&gt;12189</title>
<path fill="none" stroke="#000000" d="M409.9984,-22.2101C409.9691,-22.1325 409.9401,-22.0557 409.9114,-21.9796"/>
<polygon fill="#000000" stroke="#000000" points="416.6343,-29.8732 409.8262,-21.7537 410.0849,-32.3466 416.6343,-29.8732"/>
</g>
<!-- 30070&#45;&gt;6904 -->
<g id="edge64" class="edge">
<title>30070&#45;&gt;6904</title>
<path fill="none" stroke="#000000" d="M183.3685,-400.4052C183.3387,-400.4715 183.3088,-400.5377 183.279,-400.604"/>
<polygon fill="#000000" stroke="#000000" points="184.1118,-390.2464 183.1894,-400.8026 190.4934,-393.1257 184.1118,-390.2464"/>
</g>
<!-- 30070&#45;&gt;7016 -->
<g id="edge65" class="edge">
<title>30070&#45;&gt;7016</title>
<path fill="none" stroke="#000000" d="M220.0325,-388.204C220.0461,-388.2066 220.0581,-388.2089 220.0684,-388.2108"/>
<polygon fill="#000000" stroke="#000000" points="209.6063,-389.7643 220.0942,-388.2157 210.9297,-382.8859 209.6063,-389.7643"/>
</g>
<!-- 30070&#45;&gt;18540 -->
<g id="edge66" class="edge">
<title>30070&#45;&gt;18540</title>
<path fill="none" stroke="#000000" d="M196.3989,-400.5773C196.4663,-400.8136 196.527,-401.0266 196.5802,-401.2131"/>
<polygon fill="#000000" stroke="#000000" points="190.6065,-393.0336 196.7162,-401.69 197.3382,-391.113 190.6065,-393.0336"/>
</g>
<!-- 32787&#45;&gt;2764 -->
<g id="edge67" class="edge">
<title>32787&#45;&gt;2764</title>
<path fill="none" stroke="#000000" d="M639.2614,-271.9378C639.331,-271.9276 639.4002,-271.9175 639.4691,-271.9075"/>
<polygon fill="#000000" stroke="#000000" points="630.2865,-276.7891 639.6748,-271.8775 629.2727,-269.8624 630.2865,-276.7891"/>
</g>
<!-- 32787&#45;&gt;7474 -->
<g id="edge68" class="edge">
<title>32787&#45;&gt;7474</title>
<path fill="none" stroke="#000000" d="M603.1848,-258.6263C603.1673,-258.556 603.1499,-258.4864 603.1328,-258.4175"/>
<polygon fill="#000000" stroke="#000000" points="608.9019,-267.0674 603.0818,-258.2131 602.11,-268.7643 608.9019,-267.0674"/>
</g>
<!-- 38333&#45;&gt;1221 -->
<g id="edge69" class="edge">
<title>38333&#45;&gt;1221</title>
<path fill="none" stroke="#000000" d="M652.4874,-221.0186C652.4997,-220.9589 652.5119,-220.8993 652.5242,-220.84"/>
<polygon fill="#000000" stroke="#000000" points="653.9689,-231.1645 652.5606,-220.6627 647.1125,-229.7506 653.9689,-231.1645"/>
</g>
<!-- 38880&#45;&gt;6695 -->
<g id="edge70" class="edge">
<title>38880&#45;&gt;6695</title>
<path fill="none" stroke="#000000" d="M677.6322,-379.3336C677.6071,-379.4016 677.5821,-379.4694 677.5572,-379.537"/>
<polygon fill="#000000" stroke="#000000" points="677.6648,-369.1443 677.4826,-379.739 684.2319,-371.5703 677.6648,-369.1443"/>
</g>
<!-- 38880&#45;&gt;9002 -->
<g id="edge71" class="edge">
<title>38880&#45;&gt;9002</title>
<path fill="none" stroke="#000000" d="M660.6541,-364.0461C660.6429,-364.0473 660.6331,-364.0483 660.6247,-364.0492"/>
<polygon fill="#000000" stroke="#000000" points="670.1763,-359.4999 660.6035,-364.0513 670.9252,-366.463 670.1763,-359.4999"/>
</g>
<!-- 38880&#45;&gt;9443 -->
<g id="edge72" class="edge">
<title>38880&#45;&gt;9443</title>
<path fill="none" stroke="#000000" d="M709.1945,-373.2586C709.3732,-373.3417 709.5328,-373.416 709.6716,-373.4806"/>
<polygon fill="#000000" stroke="#000000" points="699.4804,-372.5979 710.0243,-373.6447 702.4345,-366.2511 699.4804,-372.5979"/>
</g>
</g>
</svg>
