<?xml version="1.0" encoding="UTF-8" standalone="no"?>
<!DOCTYPE svg PUBLIC "-//W3C//DTD SVG 1.1//EN"
 "http://www.w3.org/Graphics/SVG/1.1/DTD/svg11.dtd">
<!-- Generated by graphviz version 2.40.1 (20161225.0304)
 -->
<!-- Title: %3 Pages: 1 -->
<svg width="3366pt" height="2118pt"
 viewBox="0.00 0.00 3366.00 2118.00" xmlns="http://www.w3.org/2000/svg" xmlns:xlink="http://www.w3.org/1999/xlink">
<g id="graph0" class="graph" transform="scale(1 1) rotate(0) translate(4 2114)">
<title>%3</title>
<polygon fill="#ffffff" stroke="transparent" points="-4,4 -4,-2114 3362,-2114 3362,4 -4,4"/>
<!-- 174 -->
<g id="node1" class="node">
<title>174</title>
<ellipse fill="none" stroke="#000000" cx="1651.8643" cy="-789.4284" rx="27" ry="18"/>
<text text-anchor="middle" x="1651.8643" y="-785.7284" font-family="Times,serif" font-size="14.00" fill="#000000">174</text>
</g>
<!-- 209 -->
<g id="node2" class="node">
<title>209</title>
<ellipse fill="none" stroke="#000000" cx="1819.9992" cy="-760.1249" rx="27" ry="18"/>
<text text-anchor="middle" x="1819.9992" y="-756.4249" font-family="Times,serif" font-size="14.00" fill="#000000">209</text>
</g>
<!-- 174&#45;&gt;209 -->
<g id="edge1" class="edge">
<title>174&#45;&gt;209</title>
<path fill="none" stroke="#000000" d="M1678.1353,-784.8498C1706.4312,-779.9182 1751.6585,-772.0357 1783.4233,-766.4996"/>
<polygon fill="#000000" stroke="#000000" points="1784.3852,-769.8848 1793.6357,-764.7197 1783.1832,-762.9887 1784.3852,-769.8848"/>
</g>
<!-- 1299 -->
<g id="node8" class="node">
<title>1299</title>
<ellipse fill="none" stroke="#000000" cx="1992.6264" cy="-751.7126" rx="28.6953" ry="18"/>
<text text-anchor="middle" x="1992.6264" y="-748.0126" font-family="Times,serif" font-size="14.00" fill="#000000">1299</text>
</g>
<!-- 209&#45;&gt;1299 -->
<g id="edge2" class="edge">
<title>209&#45;&gt;1299</title>
<path fill="none" stroke="#000000" d="M1846.9722,-758.8105C1875.637,-757.4136 1921.2255,-755.192 1953.7624,-753.6065"/>
<polygon fill="#000000" stroke="#000000" points="1954.012,-757.0986 1963.8297,-753.1159 1953.6712,-750.1069 1954.012,-757.0986"/>
</g>
<!-- 701 -->
<g id="node3" class="node">
<title>701</title>
<ellipse fill="none" stroke="#000000" cx="2482.0616" cy="-760.1992" rx="27" ry="18"/>
<text text-anchor="middle" x="2482.0616" y="-756.4992" font-family="Times,serif" font-size="14.00" fill="#000000">701</text>
</g>
<!-- 703 -->
<g id="node4" class="node">
<title>703</title>
<ellipse fill="none" stroke="#000000" cx="2672.9773" cy="-847.954" rx="27" ry="18"/>
<text text-anchor="middle" x="2672.9773" y="-844.254" font-family="Times,serif" font-size="14.00" fill="#000000">703</text>
</g>
<!-- 701&#45;&gt;703 -->
<g id="edge3" class="edge">
<title>701&#45;&gt;703</title>
<path fill="none" stroke="#000000" d="M2504.3357,-770.4376C2538.1585,-785.9843 2602.6158,-815.6122 2641.3036,-833.3951"/>
<polygon fill="#000000" stroke="#000000" points="2640.0021,-836.6489 2650.5499,-837.6452 2642.9256,-830.2886 2640.0021,-836.6489"/>
</g>
<!-- 7018 -->
<g id="node37" class="node">
<title>7018</title>
<ellipse fill="none" stroke="#000000" cx="2470.4615" cy="-601.5031" rx="28.6953" ry="18"/>
<text text-anchor="middle" x="2470.4615" y="-597.8031" font-family="Times,serif" font-size="14.00" fill="#000000">7018</text>
</g>
<!-- 701&#45;&gt;7018 -->
<g id="edge4" class="edge">
<title>701&#45;&gt;7018</title>
<path fill="none" stroke="#000000" d="M2480.7309,-741.9948C2478.7206,-714.4919 2474.8925,-662.122 2472.5205,-629.6718"/>
<polygon fill="#000000" stroke="#000000" points="2475.9964,-629.2135 2471.7766,-619.4953 2469.0151,-629.7239 2475.9964,-629.2135"/>
</g>
<!-- 2516 -->
<g id="node10" class="node">
<title>2516</title>
<ellipse fill="none" stroke="#000000" cx="2769.0677" cy="-982.3852" rx="28.6953" ry="18"/>
<text text-anchor="middle" x="2769.0677" y="-978.6852" font-family="Times,serif" font-size="14.00" fill="#000000">2516</text>
</g>
<!-- 703&#45;&gt;2516 -->
<g id="edge5" class="edge">
<title>703&#45;&gt;2516</title>
<path fill="none" stroke="#000000" d="M2684.7599,-864.4379C2701.4012,-887.7193 2731.9191,-930.414 2751.3142,-957.5479"/>
<polygon fill="#000000" stroke="#000000" points="2748.5262,-959.6664 2757.1888,-965.7665 2754.221,-955.5958 2748.5262,-959.6664"/>
</g>
<!-- 9498 -->
<g id="node44" class="node">
<title>9498</title>
<ellipse fill="none" stroke="#000000" cx="2809.5823" cy="-748.147" rx="28.6953" ry="18"/>
<text text-anchor="middle" x="2809.5823" y="-744.447" font-family="Times,serif" font-size="14.00" fill="#000000">9498</text>
</g>
<!-- 703&#45;&gt;9498 -->
<g id="edge6" class="edge">
<title>703&#45;&gt;9498</title>
<path fill="none" stroke="#000000" d="M2691.4004,-834.4936C2714.7949,-817.401 2755.3551,-787.7667 2782.332,-768.0567"/>
<polygon fill="#000000" stroke="#000000" points="2784.5648,-770.7601 2790.5745,-762.0346 2780.4352,-765.108 2784.5648,-770.7601"/>
</g>
<!-- 1221 -->
<g id="node5" class="node">
<title>1221</title>
<ellipse fill="none" stroke="#000000" cx="3279.5487" cy="-1274.9428" rx="28.6953" ry="18"/>
<text text-anchor="middle" x="3279.5487" y="-1271.2428" font-family="Times,serif" font-size="14.00" fill="#000000">1221</text>
</g>
<!-- 1239 -->
<g id="node6" class="node">
<title>1239</title>
<ellipse fill="none" stroke="#000000" cx="2446.6763" cy="-164.0313" rx="28.6953" ry="18"/>
<text text-anchor="middle" x="2446.6763" y="-160.3313" font-family="Times,serif" font-size="14.00" fill="#000000">1239</text>
</g>
<!-- 5511 -->
<g id="node28" class="node">
<title>5511</title>
<ellipse fill="none" stroke="#000000" cx="2463.4793" cy="-18.2914" rx="28.6953" ry="18"/>
<text text-anchor="middle" x="2463.4793" y="-14.5914" font-family="Times,serif" font-size="14.00" fill="#000000">5511</text>
</g>
<!-- 1239&#45;&gt;5511 -->
<g id="edge7" class="edge">
<title>1239&#45;&gt;5511</title>
<path fill="none" stroke="#000000" d="M2448.7705,-145.8679C2451.6382,-120.9948 2456.8164,-76.082 2460.2007,-46.7283"/>
<polygon fill="#000000" stroke="#000000" points="2463.6903,-47.0187 2461.3588,-36.6836 2456.7364,-46.2169 2463.6903,-47.0187"/>
</g>
<!-- 17676 -->
<g id="node54" class="node">
<title>17676</title>
<ellipse fill="none" stroke="#000000" cx="2339.3437" cy="-90.3688" rx="32.4942" ry="18"/>
<text text-anchor="middle" x="2339.3437" y="-86.6688" font-family="Times,serif" font-size="14.00" fill="#000000">17676</text>
</g>
<!-- 1239&#45;&gt;17676 -->
<g id="edge8" class="edge">
<title>1239&#45;&gt;17676</title>
<path fill="none" stroke="#000000" d="M2426.9899,-150.5204C2410.5848,-139.2616 2386.9833,-123.0639 2368.4037,-110.3127"/>
<polygon fill="#000000" stroke="#000000" points="2370.2283,-107.32 2360.0027,-104.5471 2366.2673,-113.0915 2370.2283,-107.32"/>
</g>
<!-- 1273 -->
<g id="node7" class="node">
<title>1273</title>
<ellipse fill="none" stroke="#000000" cx="2457.0755" cy="-293.9879" rx="28.6953" ry="18"/>
<text text-anchor="middle" x="2457.0755" y="-290.2879" font-family="Times,serif" font-size="14.00" fill="#000000">1273</text>
</g>
<!-- 1273&#45;&gt;1239 -->
<g id="edge9" class="edge">
<title>1273&#45;&gt;1239</title>
<path fill="none" stroke="#000000" d="M2455.6296,-275.9179C2453.9009,-254.315 2450.9869,-217.9001 2448.9546,-192.5018"/>
<polygon fill="#000000" stroke="#000000" points="2452.4301,-192.0556 2448.1435,-182.3666 2445.4524,-192.614 2452.4301,-192.0556"/>
</g>
<!-- 6461 -->
<g id="node31" class="node">
<title>6461</title>
<ellipse fill="none" stroke="#000000" cx="2140.3506" cy="-753.2253" rx="28.6953" ry="18"/>
<text text-anchor="middle" x="2140.3506" y="-749.5253" font-family="Times,serif" font-size="14.00" fill="#000000">6461</text>
</g>
<!-- 1299&#45;&gt;6461 -->
<g id="edge10" class="edge">
<title>1299&#45;&gt;6461</title>
<path fill="none" stroke="#000000" d="M2021.4598,-752.0078C2044.2355,-752.2411 2076.2481,-752.5689 2101.3179,-752.8256"/>
<polygon fill="#000000" stroke="#000000" points="2101.5546,-756.3281 2111.5899,-752.9308 2101.6263,-749.3285 2101.5546,-756.3281"/>
</g>
<!-- 2497 -->
<g id="node9" class="node">
<title>2497</title>
<ellipse fill="none" stroke="#000000" cx="2328.708" cy="-759.262" rx="28.6953" ry="18"/>
<text text-anchor="middle" x="2328.708" y="-755.562" font-family="Times,serif" font-size="14.00" fill="#000000">2497</text>
</g>
<!-- 2497&#45;&gt;701 -->
<g id="edge11" class="edge">
<title>2497&#45;&gt;701</title>
<path fill="none" stroke="#000000" d="M2357.5527,-759.4383C2382.2165,-759.589 2417.8737,-759.8069 2444.7143,-759.971"/>
<polygon fill="#000000" stroke="#000000" points="2444.8695,-763.4719 2454.8907,-760.0332 2444.9123,-756.472 2444.8695,-763.4719"/>
</g>
<!-- 32787 -->
<g id="node61" class="node">
<title>32787</title>
<ellipse fill="none" stroke="#000000" cx="2898.3929" cy="-1150.9758" rx="32.4942" ry="18"/>
<text text-anchor="middle" x="2898.3929" y="-1147.2758" font-family="Times,serif" font-size="14.00" fill="#000000">32787</text>
</g>
<!-- 2516&#45;&gt;32787 -->
<g id="edge12" class="edge">
<title>2516&#45;&gt;32787</title>
<path fill="none" stroke="#000000" d="M2781.7034,-998.8573C2804.4372,-1028.4935 2852.3577,-1090.9635 2879.1783,-1125.9273"/>
<polygon fill="#000000" stroke="#000000" points="2876.6508,-1128.3829 2885.5144,-1134.187 2882.2049,-1124.1223 2876.6508,-1128.3829"/>
</g>
<!-- 2686 -->
<g id="node11" class="node">
<title>2686</title>
<ellipse fill="none" stroke="#000000" cx="309.3795" cy="-1286.4479" rx="28.6953" ry="18"/>
<text text-anchor="middle" x="309.3795" y="-1282.7479" font-family="Times,serif" font-size="14.00" fill="#000000">2686</text>
</g>
<!-- 3741 -->
<g id="node22" class="node">
<title>3741</title>
<ellipse fill="none" stroke="#000000" cx="150.6262" cy="-1282.6523" rx="28.6953" ry="18"/>
<text text-anchor="middle" x="150.6262" y="-1278.9523" font-family="Times,serif" font-size="14.00" fill="#000000">3741</text>
</g>
<!-- 2686&#45;&gt;3741 -->
<g id="edge13" class="edge">
<title>2686&#45;&gt;3741</title>
<path fill="none" stroke="#000000" d="M280.6304,-1285.7605C255.1975,-1285.1525 217.8635,-1284.2599 189.721,-1283.587"/>
<polygon fill="#000000" stroke="#000000" points="189.51,-1280.0811 179.4291,-1283.341 189.3426,-1287.0791 189.51,-1280.0811"/>
</g>
<!-- 2687 -->
<g id="node12" class="node">
<title>2687</title>
<ellipse fill="none" stroke="#000000" cx="440.2358" cy="-1281.3142" rx="28.6953" ry="18"/>
<text text-anchor="middle" x="440.2358" y="-1277.6142" font-family="Times,serif" font-size="14.00" fill="#000000">2687</text>
</g>
<!-- 2687&#45;&gt;2686 -->
<g id="edge14" class="edge">
<title>2687&#45;&gt;2686</title>
<path fill="none" stroke="#000000" d="M411.5188,-1282.4408C392.9396,-1283.1697 368.521,-1284.1277 348.2185,-1284.9242"/>
<polygon fill="#000000" stroke="#000000" points="347.8845,-1281.4345 338.0294,-1285.3239 348.159,-1288.4291 347.8845,-1281.4345"/>
</g>
<!-- 9505 -->
<g id="node45" class="node">
<title>9505</title>
<ellipse fill="none" stroke="#000000" cx="356.0655" cy="-1202.3802" rx="28.6953" ry="18"/>
<text text-anchor="middle" x="356.0655" y="-1198.6802" font-family="Times,serif" font-size="14.00" fill="#000000">9505</text>
</g>
<!-- 2687&#45;&gt;9505 -->
<g id="edge15" class="edge">
<title>2687&#45;&gt;9505</title>
<path fill="none" stroke="#000000" d="M424.0069,-1266.0949C411.4311,-1254.3015 393.8262,-1237.7918 379.6883,-1224.5334"/>
<polygon fill="#000000" stroke="#000000" points="381.9331,-1221.8403 372.2446,-1217.5527 377.1447,-1226.9463 381.9331,-1221.8403"/>
</g>
<!-- 2764 -->
<g id="node13" class="node">
<title>2764</title>
<ellipse fill="none" stroke="#000000" cx="3001.1615" cy="-1293.8528" rx="28.6953" ry="18"/>
<text text-anchor="middle" x="3001.1615" y="-1290.1528" font-family="Times,serif" font-size="14.00" fill="#000000">2764</text>
</g>
<!-- 7545 -->
<g id="node40" class="node">
<title>7545</title>
<ellipse fill="none" stroke="#000000" cx="3078.67" cy="-1475.4519" rx="28.6953" ry="18"/>
<text text-anchor="middle" x="3078.67" y="-1471.7519" font-family="Times,serif" font-size="14.00" fill="#000000">7545</text>
</g>
<!-- 2764&#45;&gt;7545 -->
<g id="edge16" class="edge">
<title>2764&#45;&gt;7545</title>
<path fill="none" stroke="#000000" d="M3008.5933,-1311.2653C3022.1583,-1343.0474 3051.0155,-1410.6587 3067.147,-1448.454"/>
<polygon fill="#000000" stroke="#000000" points="3064.0021,-1450.0019 3071.1467,-1457.8253 3070.4402,-1447.254 3064.0021,-1450.0019"/>
</g>
<!-- 38333 -->
<g id="node63" class="node">
<title>38333</title>
<ellipse fill="none" stroke="#000000" cx="3154.6027" cy="-1283.0364" rx="32.4942" ry="18"/>
<text text-anchor="middle" x="3154.6027" y="-1279.3364" font-family="Times,serif" font-size="14.00" fill="#000000">38333</text>
</g>
<!-- 2764&#45;&gt;38333 -->
<g id="edge17" class="edge">
<title>2764&#45;&gt;38333</title>
<path fill="none" stroke="#000000" d="M3029.663,-1291.8436C3052.846,-1290.2094 3085.9076,-1287.8789 3112.1978,-1286.0256"/>
<polygon fill="#000000" stroke="#000000" points="3112.5414,-1289.5102 3122.2705,-1285.3156 3112.0491,-1282.5275 3112.5414,-1289.5102"/>
</g>
<!-- 38561 -->
<g id="node64" class="node">
<title>38561</title>
<ellipse fill="none" stroke="#000000" cx="3097.1892" cy="-1371.8678" rx="32.4942" ry="18"/>
<text text-anchor="middle" x="3097.1892" y="-1368.1678" font-family="Times,serif" font-size="14.00" fill="#000000">38561</text>
</g>
<!-- 2764&#45;&gt;38561 -->
<g id="edge18" class="edge">
<title>2764&#45;&gt;38561</title>
<path fill="none" stroke="#000000" d="M3018.7745,-1308.1619C3033.2524,-1319.9241 3053.9952,-1336.7761 3070.5105,-1350.1935"/>
<polygon fill="#000000" stroke="#000000" points="3068.7377,-1353.2626 3078.7061,-1356.8517 3073.1516,-1347.8296 3068.7377,-1353.2626"/>
</g>
<!-- 2828 -->
<g id="node14" class="node">
<title>2828</title>
<ellipse fill="none" stroke="#000000" cx="3073.6117" cy="-718.0001" rx="28.6953" ry="18"/>
<text text-anchor="middle" x="3073.6117" y="-714.3001" font-family="Times,serif" font-size="14.00" fill="#000000">2828</text>
</g>
<!-- 2914 -->
<g id="node15" class="node">
<title>2914</title>
<ellipse fill="none" stroke="#000000" cx="1128.7245" cy="-1106.0702" rx="28.6953" ry="18"/>
<text text-anchor="middle" x="1128.7245" y="-1102.3702" font-family="Times,serif" font-size="14.00" fill="#000000">2914</text>
</g>
<!-- 6453 -->
<g id="node30" class="node">
<title>6453</title>
<ellipse fill="none" stroke="#000000" cx="1231.4414" cy="-1006.0886" rx="28.6953" ry="18"/>
<text text-anchor="middle" x="1231.4414" y="-1002.3886" font-family="Times,serif" font-size="14.00" fill="#000000">6453</text>
</g>
<!-- 2914&#45;&gt;6453 -->
<g id="edge19" class="edge">
<title>2914&#45;&gt;6453</title>
<path fill="none" stroke="#000000" d="M1144.325,-1090.8852C1161.3687,-1074.2953 1188.8426,-1047.553 1208.3774,-1028.5384"/>
<polygon fill="#000000" stroke="#000000" points="1210.9695,-1030.8996 1215.6941,-1021.4165 1206.087,-1025.8835 1210.9695,-1030.8996"/>
</g>
<!-- 3257 -->
<g id="node16" class="node">
<title>3257</title>
<ellipse fill="none" stroke="#000000" cx="1372.708" cy="-901.3308" rx="28.6953" ry="18"/>
<text text-anchor="middle" x="1372.708" y="-897.6308" font-family="Times,serif" font-size="14.00" fill="#000000">3257</text>
</g>
<!-- 3491 -->
<g id="node19" class="node">
<title>3491</title>
<ellipse fill="none" stroke="#000000" cx="1512.7471" cy="-834.4993" rx="28.6953" ry="18"/>
<text text-anchor="middle" x="1512.7471" y="-830.7993" font-family="Times,serif" font-size="14.00" fill="#000000">3491</text>
</g>
<!-- 3257&#45;&gt;3491 -->
<g id="edge20" class="edge">
<title>3257&#45;&gt;3491</title>
<path fill="none" stroke="#000000" d="M1395.5194,-890.4444C1418.7123,-879.376 1454.8399,-862.1346 1480.8594,-849.7172"/>
<polygon fill="#000000" stroke="#000000" points="1482.428,-852.8468 1489.9455,-845.381 1479.4131,-846.5294 1482.428,-852.8468"/>
</g>
<!-- 3320 -->
<g id="node17" class="node">
<title>3320</title>
<ellipse fill="none" stroke="#000000" cx="2464.0437" cy="-464.0069" rx="28.6953" ry="18"/>
<text text-anchor="middle" x="2464.0437" y="-460.3069" font-family="Times,serif" font-size="14.00" fill="#000000">3320</text>
</g>
<!-- 3320&#45;&gt;1273 -->
<g id="edge21" class="edge">
<title>3320&#45;&gt;1273</title>
<path fill="none" stroke="#000000" d="M2463.298,-445.8118C2462.0826,-416.1558 2459.666,-357.1933 2458.2282,-322.1133"/>
<polygon fill="#000000" stroke="#000000" points="2461.7225,-321.9003 2457.8159,-312.052 2454.7284,-322.187 2461.7225,-321.9003"/>
</g>
<!-- 3356 -->
<g id="node18" class="node">
<title>3356</title>
<ellipse fill="none" stroke="#000000" cx="1025.4185" cy="-1511.2409" rx="28.6953" ry="18"/>
<text text-anchor="middle" x="1025.4185" y="-1507.5409" font-family="Times,serif" font-size="14.00" fill="#000000">3356</text>
</g>
<!-- 3549 -->
<g id="node20" class="node">
<title>3549</title>
<ellipse fill="none" stroke="#000000" cx="947.4533" cy="-1379.0527" rx="28.6953" ry="18"/>
<text text-anchor="middle" x="947.4533" y="-1375.3527" font-family="Times,serif" font-size="14.00" fill="#000000">3549</text>
</g>
<!-- 3356&#45;&gt;3549 -->
<g id="edge22" class="edge">
<title>3356&#45;&gt;3549</title>
<path fill="none" stroke="#000000" d="M1015.3856,-1494.2303C1001.9941,-1471.5254 978.1609,-1431.1167 962.583,-1404.7047"/>
<polygon fill="#000000" stroke="#000000" points="965.5428,-1402.8335 957.4478,-1395.9981 959.5134,-1406.3897 965.5428,-1402.8335"/>
</g>
<!-- 3491&#45;&gt;174 -->
<g id="edge23" class="edge">
<title>3491&#45;&gt;174</title>
<path fill="none" stroke="#000000" d="M1538.2634,-826.2326C1560.6007,-818.9958 1593.232,-808.424 1617.7968,-800.4656"/>
<polygon fill="#000000" stroke="#000000" points="1619.0084,-803.7522 1627.4428,-797.3405 1616.8509,-797.093 1619.0084,-803.7522"/>
</g>
<!-- 6762 -->
<g id="node33" class="node">
<title>6762</title>
<ellipse fill="none" stroke="#000000" cx="1014.3858" cy="-1245.8634" rx="28.6953" ry="18"/>
<text text-anchor="middle" x="1014.3858" y="-1242.1634" font-family="Times,serif" font-size="14.00" fill="#000000">6762</text>
</g>
<!-- 3549&#45;&gt;6762 -->
<g id="edge24" class="edge">
<title>3549&#45;&gt;6762</title>
<path fill="none" stroke="#000000" d="M956.2036,-1361.6405C967.6281,-1338.9068 987.7351,-1298.8957 1001.0598,-1272.3809"/>
<polygon fill="#000000" stroke="#000000" points="1004.2704,-1273.7866 1005.6334,-1263.2798 998.0157,-1270.6434 1004.2704,-1273.7866"/>
</g>
<!-- 30070 -->
<g id="node60" class="node">
<title>30070</title>
<ellipse fill="none" stroke="#000000" cx="757.5707" cy="-1367.7111" rx="32.4942" ry="18"/>
<text text-anchor="middle" x="757.5707" y="-1364.0111" font-family="Times,serif" font-size="14.00" fill="#000000">30070</text>
</g>
<!-- 3549&#45;&gt;30070 -->
<g id="edge25" class="edge">
<title>3549&#45;&gt;30070</title>
<path fill="none" stroke="#000000" d="M918.6143,-1377.3302C887.1701,-1375.452 836.5213,-1372.4268 800.423,-1370.2707"/>
<polygon fill="#000000" stroke="#000000" points="800.3817,-1366.7621 790.1908,-1369.6595 799.9643,-1373.7496 800.3817,-1366.7621"/>
</g>
<!-- 3597 -->
<g id="node21" class="node">
<title>3597</title>
<ellipse fill="none" stroke="#000000" cx="1446.5679" cy="-1861.3924" rx="28.6953" ry="18"/>
<text text-anchor="middle" x="1446.5679" y="-1857.6924" font-family="Times,serif" font-size="14.00" fill="#000000">3597</text>
</g>
<!-- 37179 -->
<g id="node62" class="node">
<title>37179</title>
<ellipse fill="none" stroke="#000000" cx="32.2077" cy="-1279.8922" rx="32.4942" ry="18"/>
<text text-anchor="middle" x="32.2077" y="-1276.1922" font-family="Times,serif" font-size="14.00" fill="#000000">37179</text>
</g>
<!-- 3741&#45;&gt;37179 -->
<g id="edge26" class="edge">
<title>3741&#45;&gt;37179</title>
<path fill="none" stroke="#000000" d="M121.9604,-1281.9842C107.8106,-1281.6544 90.4559,-1281.2499 74.7908,-1280.8848"/>
<polygon fill="#000000" stroke="#000000" points="74.8702,-1277.3857 64.7913,-1280.6517 74.707,-1284.3838 74.8702,-1277.3857"/>
</g>
<!-- 4635 -->
<g id="node23" class="node">
<title>4635</title>
<ellipse fill="none" stroke="#000000" cx="3191.9201" cy="-1506.7353" rx="28.6953" ry="18"/>
<text text-anchor="middle" x="3191.9201" y="-1503.0353" font-family="Times,serif" font-size="14.00" fill="#000000">4635</text>
</g>
<!-- 4637 -->
<g id="node24" class="node">
<title>4637</title>
<ellipse fill="none" stroke="#000000" cx="2935.7271" cy="-745.6298" rx="28.6953" ry="18"/>
<text text-anchor="middle" x="2935.7271" y="-741.9298" font-family="Times,serif" font-size="14.00" fill="#000000">4637</text>
</g>
<!-- 4637&#45;&gt;2828 -->
<g id="edge27" class="edge">
<title>4637&#45;&gt;2828</title>
<path fill="none" stroke="#000000" d="M2963.2987,-740.1049C2984.1534,-735.926 3013.0226,-730.1411 3035.9969,-725.5375"/>
<polygon fill="#000000" stroke="#000000" points="3036.9705,-728.9121 3046.0879,-723.5154 3035.5951,-722.0485 3036.9705,-728.9121"/>
</g>
<!-- 4739 -->
<g id="node25" class="node">
<title>4739</title>
<ellipse fill="none" stroke="#000000" cx="3136.4094" cy="-1605.9932" rx="28.6953" ry="18"/>
<text text-anchor="middle" x="3136.4094" y="-1602.2932" font-family="Times,serif" font-size="14.00" fill="#000000">4739</text>
</g>
<!-- 38880 -->
<g id="node65" class="node">
<title>38880</title>
<ellipse fill="none" stroke="#000000" cx="3211.5923" cy="-1769.7795" rx="32.4942" ry="18"/>
<text text-anchor="middle" x="3211.5923" y="-1766.0795" font-family="Times,serif" font-size="14.00" fill="#000000">38880</text>
</g>
<!-- 4739&#45;&gt;38880 -->
<g id="edge28" class="edge">
<title>4739&#45;&gt;38880</title>
<path fill="none" stroke="#000000" d="M3144.4553,-1623.5212C3157.5568,-1652.063 3183.5932,-1708.7834 3199.111,-1742.5889"/>
<polygon fill="#000000" stroke="#000000" points="3196.0236,-1744.2529 3203.3763,-1751.881 3202.3854,-1741.3326 3196.0236,-1744.2529"/>
</g>
<!-- 4755 -->
<g id="node26" class="node">
<title>4755</title>
<ellipse fill="none" stroke="#000000" cx="3003.4514" cy="-513.9017" rx="28.6953" ry="18"/>
<text text-anchor="middle" x="3003.4514" y="-510.2017" font-family="Times,serif" font-size="14.00" fill="#000000">4755</text>
</g>
<!-- 9583 -->
<g id="node46" class="node">
<title>9583</title>
<ellipse fill="none" stroke="#000000" cx="3090.181" cy="-432.0519" rx="28.6953" ry="18"/>
<text text-anchor="middle" x="3090.181" y="-428.3519" font-family="Times,serif" font-size="14.00" fill="#000000">9583</text>
</g>
<!-- 4755&#45;&gt;9583 -->
<g id="edge29" class="edge">
<title>4755&#45;&gt;9583</title>
<path fill="none" stroke="#000000" d="M3019.359,-498.8892C3032.6016,-486.3916 3051.6476,-468.4172 3066.6538,-454.2554"/>
<polygon fill="#000000" stroke="#000000" points="3069.2101,-456.6554 3074.0806,-447.2464 3064.4057,-451.5645 3069.2101,-456.6554"/>
</g>
<!-- 4826 -->
<g id="node27" class="node">
<title>4826</title>
<ellipse fill="none" stroke="#000000" cx="3248.193" cy="-2040.4131" rx="28.6953" ry="18"/>
<text text-anchor="middle" x="3248.193" y="-2036.7131" font-family="Times,serif" font-size="14.00" fill="#000000">4826</text>
</g>
<!-- 5692 -->
<g id="node29" class="node">
<title>5692</title>
<ellipse fill="none" stroke="#000000" cx="1401.3249" cy="-1928.0826" rx="28.6953" ry="18"/>
<text text-anchor="middle" x="1401.3249" y="-1924.3826" font-family="Times,serif" font-size="14.00" fill="#000000">5692</text>
</g>
<!-- 5692&#45;&gt;3597 -->
<g id="edge30" class="edge">
<title>5692&#45;&gt;3597</title>
<path fill="none" stroke="#000000" d="M1412.7416,-1911.2538C1417.8707,-1903.6932 1424.028,-1894.6171 1429.6754,-1886.2926"/>
<polygon fill="#000000" stroke="#000000" points="1432.5938,-1888.2251 1435.3115,-1877.9847 1426.801,-1884.2952 1432.5938,-1888.2251"/>
</g>
<!-- 10834 -->
<g id="node49" class="node">
<title>10834</title>
<ellipse fill="none" stroke="#000000" cx="1251.211" cy="-1801.6209" rx="32.4942" ry="18"/>
<text text-anchor="middle" x="1251.211" y="-1797.9209" font-family="Times,serif" font-size="14.00" fill="#000000">10834</text>
</g>
<!-- 5692&#45;&gt;10834 -->
<g id="edge31" class="edge">
<title>5692&#45;&gt;10834</title>
<path fill="none" stroke="#000000" d="M1384.1049,-1913.5758C1357.8066,-1891.4211 1307.472,-1849.0173 1276.8621,-1823.2303"/>
<polygon fill="#000000" stroke="#000000" points="1279.0627,-1820.5078 1269.1598,-1816.7416 1274.5527,-1825.8613 1279.0627,-1820.5078"/>
</g>
<!-- 11008 -->
<g id="node50" class="node">
<title>11008</title>
<ellipse fill="none" stroke="#000000" cx="1325.7551" cy="-2049.1996" rx="32.4942" ry="18"/>
<text text-anchor="middle" x="1325.7551" y="-2045.4996" font-family="Times,serif" font-size="14.00" fill="#000000">11008</text>
</g>
<!-- 5692&#45;&gt;11008 -->
<g id="edge32" class="edge">
<title>5692&#45;&gt;11008</title>
<path fill="none" stroke="#000000" d="M1390.8172,-1944.9234C1378.0869,-1965.3266 1356.5111,-1999.9065 1341.7208,-2023.6111"/>
<polygon fill="#000000" stroke="#000000" points="1338.7413,-2021.7746 1336.4171,-2032.1114 1344.6801,-2025.4801 1338.7413,-2021.7746"/>
</g>
<!-- 27865 -->
<g id="node58" class="node">
<title>27865</title>
<ellipse fill="none" stroke="#000000" cx="1535.6176" cy="-1864.789" rx="32.4942" ry="18"/>
<text text-anchor="middle" x="1535.6176" y="-1861.089" font-family="Times,serif" font-size="14.00" fill="#000000">27865</text>
</g>
<!-- 5692&#45;&gt;27865 -->
<g id="edge33" class="edge">
<title>5692&#45;&gt;27865</title>
<path fill="none" stroke="#000000" d="M1424.4106,-1917.202C1445.5961,-1907.2171 1477.2585,-1892.2942 1501.3868,-1880.9223"/>
<polygon fill="#000000" stroke="#000000" points="1503.0016,-1884.0306 1510.5551,-1876.6012 1500.0172,-1877.6986 1503.0016,-1884.0306"/>
</g>
<!-- 28065 -->
<g id="node59" class="node">
<title>28065</title>
<ellipse fill="none" stroke="#000000" cx="1417.0332" cy="-2092.2462" rx="32.4942" ry="18"/>
<text text-anchor="middle" x="1417.0332" y="-2088.5462" font-family="Times,serif" font-size="14.00" fill="#000000">28065</text>
</g>
<!-- 5692&#45;&gt;28065 -->
<g id="edge34" class="edge">
<title>5692&#45;&gt;28065</title>
<path fill="none" stroke="#000000" d="M1403.0659,-1946.2782C1405.7905,-1974.7522 1411.0836,-2030.069 1414.3139,-2063.8274"/>
<polygon fill="#000000" stroke="#000000" points="1410.8476,-2064.348 1415.2843,-2073.9691 1417.8158,-2063.6811 1410.8476,-2064.348"/>
</g>
<!-- 52317 -->
<g id="node66" class="node">
<title>52317</title>
<ellipse fill="none" stroke="#000000" cx="1288.4421" cy="-1990.2978" rx="32.4942" ry="18"/>
<text text-anchor="middle" x="1288.4421" y="-1986.5978" font-family="Times,serif" font-size="14.00" fill="#000000">52317</text>
</g>
<!-- 5692&#45;&gt;52317 -->
<g id="edge35" class="edge">
<title>5692&#45;&gt;52317</title>
<path fill="none" stroke="#000000" d="M1379.5599,-1940.0783C1362.8224,-1949.3032 1339.4423,-1962.1891 1320.5562,-1972.5982"/>
<polygon fill="#000000" stroke="#000000" points="1318.7631,-1969.59 1311.6946,-1977.4822 1322.142,-1975.7205 1318.7631,-1969.59"/>
</g>
<!-- 52375 -->
<g id="node67" class="node">
<title>52375</title>
<ellipse fill="none" stroke="#000000" cx="1563.4006" cy="-1987.8919" rx="32.4942" ry="18"/>
<text text-anchor="middle" x="1563.4006" y="-1984.1919" font-family="Times,serif" font-size="14.00" fill="#000000">52375</text>
</g>
<!-- 5692&#45;&gt;52375 -->
<g id="edge36" class="edge">
<title>5692&#45;&gt;52375</title>
<path fill="none" stroke="#000000" d="M1426.294,-1937.2967C1453.1357,-1947.2019 1496.0743,-1963.0471 1526.7463,-1974.3657"/>
<polygon fill="#000000" stroke="#000000" points="1525.6444,-1977.6897 1536.2378,-1977.8682 1528.0679,-1971.1226 1525.6444,-1977.6897"/>
</g>
<!-- 52376 -->
<g id="node68" class="node">
<title>52376</title>
<ellipse fill="none" stroke="#000000" cx="1500.8619" cy="-2048.4833" rx="32.4942" ry="18"/>
<text text-anchor="middle" x="1500.8619" y="-2044.7833" font-family="Times,serif" font-size="14.00" fill="#000000">52376</text>
</g>
<!-- 5692&#45;&gt;52376 -->
<g id="edge37" class="edge">
<title>5692&#45;&gt;52376</title>
<path fill="none" stroke="#000000" d="M1414.7489,-1944.3204C1431.6476,-1964.7612 1460.8385,-2000.0707 1480.4932,-2023.8452"/>
<polygon fill="#000000" stroke="#000000" points="1477.9426,-2026.253 1487.0119,-2031.7302 1483.3377,-2021.7928 1477.9426,-2026.253"/>
</g>
<!-- 52380 -->
<g id="node69" class="node">
<title>52380</title>
<ellipse fill="none" stroke="#000000" cx="1484.215" cy="-1978.6146" rx="32.4942" ry="18"/>
<text text-anchor="middle" x="1484.215" y="-1974.9146" font-family="Times,serif" font-size="14.00" fill="#000000">52380</text>
</g>
<!-- 5692&#45;&gt;52380 -->
<g id="edge38" class="edge">
<title>5692&#45;&gt;52380</title>
<path fill="none" stroke="#000000" d="M1422.2416,-1940.834C1431.6635,-1946.5778 1442.979,-1953.4761 1453.3479,-1959.7972"/>
<polygon fill="#000000" stroke="#000000" points="1451.7845,-1962.9432 1462.1449,-1965.1601 1455.4283,-1956.9663 1451.7845,-1962.9432"/>
</g>
<!-- 52413 -->
<g id="node70" class="node">
<title>52413</title>
<ellipse fill="none" stroke="#000000" cx="1410.0809" cy="-2016.1237" rx="32.4942" ry="18"/>
<text text-anchor="middle" x="1410.0809" y="-2012.4237" font-family="Times,serif" font-size="14.00" fill="#000000">52413</text>
</g>
<!-- 5692&#45;&gt;52413 -->
<g id="edge39" class="edge">
<title>5692&#45;&gt;52413</title>
<path fill="none" stroke="#000000" d="M1403.1391,-1946.3248C1404.3249,-1958.2475 1405.8981,-1974.0657 1407.247,-1987.6286"/>
<polygon fill="#000000" stroke="#000000" points="1403.7964,-1988.3004 1408.269,-1997.9049 1410.762,-1987.6075 1403.7964,-1988.3004"/>
</g>
<!-- 52431 -->
<g id="node71" class="node">
<title>52431</title>
<ellipse fill="none" stroke="#000000" cx="1432.5274" cy="-1806.2536" rx="32.4942" ry="18"/>
<text text-anchor="middle" x="1432.5274" y="-1802.5536" font-family="Times,serif" font-size="14.00" fill="#000000">52431</text>
</g>
<!-- 5692&#45;&gt;52431 -->
<g id="edge40" class="edge">
<title>5692&#45;&gt;52431</title>
<path fill="none" stroke="#000000" d="M1405.9289,-1910.1063C1411.0447,-1890.1317 1419.3705,-1857.6241 1425.3449,-1834.2973"/>
<polygon fill="#000000" stroke="#000000" points="1428.8138,-1834.8593 1427.9044,-1824.3036 1422.0327,-1833.1225 1428.8138,-1834.8593"/>
</g>
<!-- 262230 -->
<g id="node72" class="node">
<title>262230</title>
<ellipse fill="none" stroke="#000000" cx="1341.6087" cy="-1851.1351" rx="37.0935" ry="18"/>
<text text-anchor="middle" x="1341.6087" y="-1847.4351" font-family="Times,serif" font-size="14.00" fill="#000000">262230</text>
</g>
<!-- 5692&#45;&gt;262230 -->
<g id="edge41" class="edge">
<title>5692&#45;&gt;262230</title>
<path fill="none" stroke="#000000" d="M1388.6606,-1911.764C1380.6712,-1901.4692 1370.1903,-1887.964 1361.1487,-1876.3134"/>
<polygon fill="#000000" stroke="#000000" points="1363.7716,-1873.9844 1354.8756,-1868.2302 1358.2415,-1878.2761 1363.7716,-1873.9844"/>
</g>
<!-- 264608 -->
<g id="node73" class="node">
<title>264608</title>
<ellipse fill="none" stroke="#000000" cx="1566.491" cy="-1911.7181" rx="37.0935" ry="18"/>
<text text-anchor="middle" x="1566.491" y="-1908.0181" font-family="Times,serif" font-size="14.00" fill="#000000">264608</text>
</g>
<!-- 5692&#45;&gt;264608 -->
<g id="edge42" class="edge">
<title>5692&#45;&gt;264608</title>
<path fill="none" stroke="#000000" d="M1429.7179,-1925.2694C1454.4436,-1922.8196 1490.7729,-1919.2202 1519.7763,-1916.3465"/>
<polygon fill="#000000" stroke="#000000" points="1520.4891,-1919.7931 1530.0952,-1915.3241 1519.7988,-1912.8273 1520.4891,-1919.7931"/>
</g>
<!-- 6453&#45;&gt;3257 -->
<g id="edge43" class="edge">
<title>6453&#45;&gt;3257</title>
<path fill="none" stroke="#000000" d="M1250.2005,-992.1775C1274.6866,-974.0196 1317.7093,-942.1156 1345.7032,-921.3565"/>
<polygon fill="#000000" stroke="#000000" points="1347.9236,-924.0673 1353.8713,-915.2993 1343.754,-918.4446 1347.9236,-924.0673"/>
</g>
<!-- 6461&#45;&gt;2497 -->
<g id="edge44" class="edge">
<title>6461&#45;&gt;2497</title>
<path fill="none" stroke="#000000" d="M2168.958,-754.1421C2201.2737,-755.1778 2254.0374,-756.8689 2290.0133,-758.0219"/>
<polygon fill="#000000" stroke="#000000" points="2290.0336,-761.5242 2300.1406,-758.3465 2290.2579,-754.5278 2290.0336,-761.5242"/>
</g>
<!-- 6695 -->
<g id="node32" class="node">
<title>6695</title>
<ellipse fill="none" stroke="#000000" cx="3329.6448" cy="-1807.1693" rx="28.6953" ry="18"/>
<text text-anchor="middle" x="3329.6448" y="-1803.4693" font-family="Times,serif" font-size="14.00" fill="#000000">6695</text>
</g>
<!-- 6762&#45;&gt;2914 -->
<g id="edge45" class="edge">
<title>6762&#45;&gt;2914</title>
<path fill="none" stroke="#000000" d="M1027.5019,-1229.8273C1047.4691,-1205.415 1085.628,-1158.761 1108.9637,-1130.2303"/>
<polygon fill="#000000" stroke="#000000" points="1111.7872,-1132.3064 1115.4092,-1122.3499 1106.3688,-1127.8746 1111.7872,-1132.3064"/>
</g>
<!-- 6904 -->
<g id="node34" class="node">
<title>6904</title>
<ellipse fill="none" stroke="#000000" cx="615.1654" cy="-1317.9917" rx="28.6953" ry="18"/>
<text text-anchor="middle" x="615.1654" y="-1314.2917" font-family="Times,serif" font-size="14.00" fill="#000000">6904</text>
</g>
<!-- 6904&#45;&gt;2687 -->
<g id="edge46" class="edge">
<title>6904&#45;&gt;2687</title>
<path fill="none" stroke="#000000" d="M587.8327,-1312.2608C558.1786,-1306.0433 510.651,-1296.0782 477.569,-1289.1419"/>
<polygon fill="#000000" stroke="#000000" points="477.882,-1285.6315 467.3766,-1287.0048 476.4455,-1292.4825 477.882,-1285.6315"/>
</g>
<!-- 6939 -->
<g id="node35" class="node">
<title>6939</title>
<ellipse fill="none" stroke="#000000" cx="2318.1618" cy="-204.1894" rx="28.6953" ry="18"/>
<text text-anchor="middle" x="2318.1618" y="-200.4894" font-family="Times,serif" font-size="14.00" fill="#000000">6939</text>
</g>
<!-- 12266 -->
<g id="node52" class="node">
<title>12266</title>
<ellipse fill="none" stroke="#000000" cx="2335.831" cy="-337.17" rx="32.4942" ry="18"/>
<text text-anchor="middle" x="2335.831" y="-333.47" font-family="Times,serif" font-size="14.00" fill="#000000">12266</text>
</g>
<!-- 6939&#45;&gt;12266 -->
<g id="edge47" class="edge">
<title>6939&#45;&gt;12266</title>
<path fill="none" stroke="#000000" d="M2320.5816,-222.4009C2323.5555,-244.7828 2328.6334,-282.9999 2332.1062,-309.1363"/>
<polygon fill="#000000" stroke="#000000" points="2328.6537,-309.7265 2333.4404,-319.1784 2335.5927,-308.8045 2328.6537,-309.7265"/>
</g>
<!-- 7016 -->
<g id="node36" class="node">
<title>7016</title>
<ellipse fill="none" stroke="#000000" cx="638.8425" cy="-1409.0413" rx="28.6953" ry="18"/>
<text text-anchor="middle" x="638.8425" y="-1405.3413" font-family="Times,serif" font-size="14.00" fill="#000000">7016</text>
</g>
<!-- 7922 -->
<g id="node41" class="node">
<title>7922</title>
<ellipse fill="none" stroke="#000000" cx="512.4041" cy="-1470.2922" rx="28.6953" ry="18"/>
<text text-anchor="middle" x="512.4041" y="-1466.5922" font-family="Times,serif" font-size="14.00" fill="#000000">7922</text>
</g>
<!-- 7016&#45;&gt;7922 -->
<g id="edge48" class="edge">
<title>7016&#45;&gt;7922</title>
<path fill="none" stroke="#000000" d="M615.9454,-1420.1334C595.8949,-1429.8465 566.5571,-1444.0587 544.2252,-1454.877"/>
<polygon fill="#000000" stroke="#000000" points="542.6045,-1451.773 535.1308,-1459.2826 545.6564,-1458.0727 542.6045,-1451.773"/>
</g>
<!-- 7018&#45;&gt;3320 -->
<g id="edge49" class="edge">
<title>7018&#45;&gt;3320</title>
<path fill="none" stroke="#000000" d="M2469.6092,-583.2447C2468.5256,-560.0284 2466.6428,-519.6915 2465.3706,-492.4337"/>
<polygon fill="#000000" stroke="#000000" points="2468.862,-492.1667 2464.8995,-482.3408 2461.8696,-492.4932 2468.862,-492.1667"/>
</g>
<!-- 7473 -->
<g id="node38" class="node">
<title>7473</title>
<ellipse fill="none" stroke="#000000" cx="2883.6535" cy="-681.6616" rx="28.6953" ry="18"/>
<text text-anchor="middle" x="2883.6535" y="-677.9616" font-family="Times,serif" font-size="14.00" fill="#000000">7473</text>
</g>
<!-- 7474 -->
<g id="node39" class="node">
<title>7474</title>
<ellipse fill="none" stroke="#000000" cx="3007.6016" cy="-1119.6597" rx="28.6953" ry="18"/>
<text text-anchor="middle" x="3007.6016" y="-1115.9597" font-family="Times,serif" font-size="14.00" fill="#000000">7474</text>
</g>
<!-- 7545&#45;&gt;4635 -->
<g id="edge50" class="edge">
<title>7545&#45;&gt;4635</title>
<path fill="none" stroke="#000000" d="M3104.9365,-1482.7076C3119.9795,-1486.8629 3139.0809,-1492.1394 3155.5497,-1496.6886"/>
<polygon fill="#000000" stroke="#000000" points="3154.8328,-1500.1216 3165.4038,-1499.4106 3156.6967,-1493.3743 3154.8328,-1500.1216"/>
</g>
<!-- 7545&#45;&gt;4739 -->
<g id="edge51" class="edge">
<title>7545&#45;&gt;4739</title>
<path fill="none" stroke="#000000" d="M3086.457,-1493.0573C3096.2286,-1515.1496 3113.0855,-1553.261 3124.4855,-1579.0349"/>
<polygon fill="#000000" stroke="#000000" points="3121.3154,-1580.5203 3128.5614,-1588.2498 3127.7171,-1577.6887 3121.3154,-1580.5203"/>
</g>
<!-- 9942 -->
<g id="node47" class="node">
<title>9942</title>
<ellipse fill="none" stroke="#000000" cx="3048.3229" cy="-1581.3578" rx="28.6953" ry="18"/>
<text text-anchor="middle" x="3048.3229" y="-1577.6578" font-family="Times,serif" font-size="14.00" fill="#000000">9942</text>
</g>
<!-- 7545&#45;&gt;9942 -->
<g id="edge52" class="edge">
<title>7545&#45;&gt;9942</title>
<path fill="none" stroke="#000000" d="M3073.522,-1493.4174C3068.7917,-1509.9253 3061.7085,-1534.6445 3056.2553,-1553.6753"/>
<polygon fill="#000000" stroke="#000000" points="3052.8862,-1552.7269 3053.4961,-1563.3042 3059.6154,-1554.6552 3052.8862,-1552.7269"/>
</g>
<!-- 9002 -->
<g id="node42" class="node">
<title>9002</title>
<ellipse fill="none" stroke="#000000" cx="3282.3995" cy="-1865.6754" rx="28.6953" ry="18"/>
<text text-anchor="middle" x="3282.3995" y="-1861.9754" font-family="Times,serif" font-size="14.00" fill="#000000">9002</text>
</g>
<!-- 9443 -->
<g id="node43" class="node">
<title>9443</title>
<ellipse fill="none" stroke="#000000" cx="3216.1571" cy="-1901.9387" rx="28.6953" ry="18"/>
<text text-anchor="middle" x="3216.1571" y="-1898.2387" font-family="Times,serif" font-size="14.00" fill="#000000">9443</text>
</g>
<!-- 9443&#45;&gt;4826 -->
<g id="edge53" class="edge">
<title>9443&#45;&gt;4826</title>
<path fill="none" stroke="#000000" d="M3220.2797,-1919.7584C3225.7042,-1943.2057 3235.2984,-1984.6764 3241.7019,-2012.3555"/>
<polygon fill="#000000" stroke="#000000" points="3238.3206,-2013.2684 3243.9845,-2022.2222 3245.1404,-2011.6906 3238.3206,-2013.2684"/>
</g>
<!-- 9498&#45;&gt;4637 -->
<g id="edge54" class="edge">
<title>9498&#45;&gt;4637</title>
<path fill="none" stroke="#000000" d="M2838.2065,-747.5758C2855.5025,-747.2307 2877.784,-746.7861 2896.6819,-746.409"/>
<polygon fill="#000000" stroke="#000000" points="2896.8514,-749.9064 2906.7795,-746.2075 2896.7116,-742.9078 2896.8514,-749.9064"/>
</g>
<!-- 9498&#45;&gt;7473 -->
<g id="edge55" class="edge">
<title>9498&#45;&gt;7473</title>
<path fill="none" stroke="#000000" d="M2826.0211,-733.3917C2835.8299,-724.5875 2848.465,-713.2463 2859.4038,-703.4278"/>
<polygon fill="#000000" stroke="#000000" points="2861.9005,-705.8899 2867.0045,-696.6055 2857.2247,-700.6806 2861.9005,-705.8899"/>
</g>
<!-- 10026 -->
<g id="node48" class="node">
<title>10026</title>
<ellipse fill="none" stroke="#000000" cx="2887.714" cy="-634.8056" rx="32.4942" ry="18"/>
<text text-anchor="middle" x="2887.714" y="-631.1056" font-family="Times,serif" font-size="14.00" fill="#000000">10026</text>
</g>
<!-- 9498&#45;&gt;10026 -->
<g id="edge56" class="edge">
<title>9498&#45;&gt;10026</title>
<path fill="none" stroke="#000000" d="M2821.1109,-731.4231C2834.0195,-712.6972 2855.0899,-682.1315 2870.0729,-660.3965"/>
<polygon fill="#000000" stroke="#000000" points="2873.0879,-662.1895 2875.8819,-651.9697 2867.3246,-658.2165 2873.0879,-662.1895"/>
</g>
<!-- 10026&#45;&gt;4755 -->
<g id="edge57" class="edge">
<title>10026&#45;&gt;4755</title>
<path fill="none" stroke="#000000" d="M2903.3228,-618.4999C2923.4777,-597.4454 2958.6704,-560.6817 2981.5096,-536.823"/>
<polygon fill="#000000" stroke="#000000" points="2984.0693,-539.2104 2988.4561,-529.5664 2979.0127,-534.3699 2984.0693,-539.2104"/>
</g>
<!-- 12956 -->
<g id="node53" class="node">
<title>12956</title>
<ellipse fill="none" stroke="#000000" cx="1145.2806" cy="-1664.9112" rx="32.4942" ry="18"/>
<text text-anchor="middle" x="1145.2806" y="-1661.2112" font-family="Times,serif" font-size="14.00" fill="#000000">12956</text>
</g>
<!-- 10834&#45;&gt;12956 -->
<g id="edge58" class="edge">
<title>10834&#45;&gt;12956</title>
<path fill="none" stroke="#000000" d="M1238.2219,-1784.8576C1219.797,-1761.0791 1185.9418,-1717.3869 1164.5751,-1689.812"/>
<polygon fill="#000000" stroke="#000000" points="1167.2677,-1687.5725 1158.376,-1681.8116 1161.7344,-1691.8601 1167.2677,-1687.5725"/>
</g>
<!-- 22927 -->
<g id="node57" class="node">
<title>22927</title>
<ellipse fill="none" stroke="#000000" cx="1135.5778" cy="-1860.14" rx="32.4942" ry="18"/>
<text text-anchor="middle" x="1135.5778" y="-1856.44" font-family="Times,serif" font-size="14.00" fill="#000000">22927</text>
</g>
<!-- 10834&#45;&gt;22927 -->
<g id="edge59" class="edge">
<title>10834&#45;&gt;22927</title>
<path fill="none" stroke="#000000" d="M1226.9705,-1813.8884C1210.0877,-1822.4324 1187.3596,-1833.9345 1168.7925,-1843.3309"/>
<polygon fill="#000000" stroke="#000000" points="1167.1285,-1840.2503 1159.7864,-1847.8886 1170.2893,-1846.496 1167.1285,-1840.2503"/>
</g>
<!-- 12189 -->
<g id="node51" class="node">
<title>12189</title>
<ellipse fill="none" stroke="#000000" cx="2487.2236" cy="-516.6006" rx="32.4942" ry="18"/>
<text text-anchor="middle" x="2487.2236" y="-512.9006" font-family="Times,serif" font-size="14.00" fill="#000000">12189</text>
</g>
<!-- 20454 -->
<g id="node56" class="node">
<title>20454</title>
<ellipse fill="none" stroke="#000000" cx="2372.9558" cy="-459.5343" rx="32.4942" ry="18"/>
<text text-anchor="middle" x="2372.9558" y="-455.8343" font-family="Times,serif" font-size="14.00" fill="#000000">20454</text>
</g>
<!-- 12266&#45;&gt;20454 -->
<g id="edge60" class="edge">
<title>12266&#45;&gt;20454</title>
<path fill="none" stroke="#000000" d="M2341.2293,-354.9628C2347.3605,-375.1717 2357.4397,-408.3928 2364.5909,-431.9633"/>
<polygon fill="#000000" stroke="#000000" points="2361.2984,-433.1669 2367.551,-441.72 2367.9969,-431.1345 2361.2984,-433.1669"/>
</g>
<!-- 12956&#45;&gt;3356 -->
<g id="edge61" class="edge">
<title>12956&#45;&gt;3356</title>
<path fill="none" stroke="#000000" d="M1132.2251,-1648.1732C1111.039,-1621.0115 1069.0749,-1567.211 1044.5265,-1535.7385"/>
<polygon fill="#000000" stroke="#000000" points="1047.0062,-1533.2268 1038.0961,-1527.4944 1041.4867,-1537.532 1047.0062,-1533.2268"/>
</g>
<!-- 17676&#45;&gt;6939 -->
<g id="edge62" class="edge">
<title>17676&#45;&gt;6939</title>
<path fill="none" stroke="#000000" d="M2335.9873,-108.404C2332.5943,-126.6363 2327.3037,-155.0655 2323.3665,-176.2222"/>
<polygon fill="#000000" stroke="#000000" points="2319.8912,-175.7669 2321.5025,-186.2385 2326.773,-177.0477 2319.8912,-175.7669"/>
</g>
<!-- 18540 -->
<g id="node55" class="node">
<title>18540</title>
<ellipse fill="none" stroke="#000000" cx="692.3907" cy="-1467.6274" rx="32.4942" ry="18"/>
<text text-anchor="middle" x="692.3907" y="-1463.9274" font-family="Times,serif" font-size="14.00" fill="#000000">18540</text>
</g>
<!-- 20454&#45;&gt;12189 -->
<g id="edge63" class="edge">
<title>20454&#45;&gt;12189</title>
<path fill="none" stroke="#000000" d="M2397.189,-471.6366C2413.7022,-479.8834 2435.7778,-490.9081 2453.9366,-499.9768"/>
<polygon fill="#000000" stroke="#000000" points="2452.5151,-503.179 2463.0252,-504.5157 2455.6426,-496.9165 2452.5151,-503.179"/>
</g>
<!-- 30070&#45;&gt;6904 -->
<g id="edge64" class="edge">
<title>30070&#45;&gt;6904</title>
<path fill="none" stroke="#000000" d="M729.7755,-1358.0067C707.0104,-1350.0585 674.6724,-1338.768 650.1479,-1330.2055"/>
<polygon fill="#000000" stroke="#000000" points="651.0964,-1326.8295 640.5015,-1326.8376 648.7889,-1333.4383 651.0964,-1326.8295"/>
</g>
<!-- 30070&#45;&gt;7016 -->
<g id="edge65" class="edge">
<title>30070&#45;&gt;7016</title>
<path fill="none" stroke="#000000" d="M730.0337,-1377.297C713.2718,-1383.1319 691.7037,-1390.6399 673.7514,-1396.8892"/>
<polygon fill="#000000" stroke="#000000" points="672.4969,-1393.6199 664.2034,-1400.213 674.7982,-1400.2308 672.4969,-1393.6199"/>
</g>
<!-- 30070&#45;&gt;18540 -->
<g id="edge66" class="edge">
<title>30070&#45;&gt;18540</title>
<path fill="none" stroke="#000000" d="M746.5138,-1384.6605C736.3072,-1400.3066 721.0002,-1423.7711 709.2663,-1441.7583"/>
<polygon fill="#000000" stroke="#000000" points="706.0342,-1440.307 703.5018,-1450.5948 711.897,-1444.1316 706.0342,-1440.307"/>
</g>
<!-- 32787&#45;&gt;2764 -->
<g id="edge67" class="edge">
<title>32787&#45;&gt;2764</title>
<path fill="none" stroke="#000000" d="M2910.5854,-1167.9267C2928.6062,-1192.9807 2962.4609,-1240.0481 2983.2885,-1269.0043"/>
<polygon fill="#000000" stroke="#000000" points="2980.6215,-1271.2905 2989.3021,-1277.3649 2986.3042,-1267.203 2980.6215,-1271.2905"/>
</g>
<!-- 32787&#45;&gt;7474 -->
<g id="edge68" class="edge">
<title>32787&#45;&gt;7474</title>
<path fill="none" stroke="#000000" d="M2927.3721,-1142.6659C2940.8979,-1138.7873 2957.1366,-1134.1308 2971.4558,-1130.0247"/>
<polygon fill="#000000" stroke="#000000" points="2972.8292,-1133.272 2981.477,-1127.151 2970.8997,-1126.5431 2972.8292,-1133.272"/>
</g>
<!-- 38333&#45;&gt;1221 -->
<g id="edge69" class="edge">
<title>38333&#45;&gt;1221</title>
<path fill="none" stroke="#000000" d="M3187.1046,-1280.931C3203.5114,-1279.8682 3223.5325,-1278.5713 3240.742,-1277.4566"/>
<polygon fill="#000000" stroke="#000000" points="3241.2837,-1280.9289 3251.0365,-1276.7897 3240.8312,-1273.9435 3241.2837,-1280.9289"/>
</g>
<!-- 38880&#45;&gt;6695 -->
<g id="edge70" class="edge">
<title>38880&#45;&gt;6695</title>
<path fill="none" stroke="#000000" d="M3239.8688,-1778.7353C3256.1769,-1783.9004 3276.8298,-1790.4416 3294.2141,-1795.9476"/>
<polygon fill="#000000" stroke="#000000" points="3293.4243,-1799.3687 3304.0144,-1799.0516 3295.538,-1792.6955 3293.4243,-1799.3687"/>
</g>
<!-- 38880&#45;&gt;9002 -->
<g id="edge71" class="edge">
<title>38880&#45;&gt;9002</title>
<path fill="none" stroke="#000000" d="M3223.926,-1786.4833C3234.993,-1801.4717 3251.3872,-1823.6748 3264.0027,-1840.7602"/>
<polygon fill="#000000" stroke="#000000" points="3261.4515,-1843.1973 3270.2071,-1849.163 3267.0828,-1839.0393 3261.4515,-1843.1973"/>
</g>
<!-- 38880&#45;&gt;9443 -->
<g id="edge72" class="edge">
<title>38880&#45;&gt;9443</title>
<path fill="none" stroke="#000000" d="M3212.2174,-1787.8786C3212.9781,-1809.8996 3214.2714,-1847.3447 3215.1678,-1873.2949"/>
<polygon fill="#000000" stroke="#000000" points="3211.6817,-1873.761 3215.5249,-1883.6342 3218.6775,-1873.5193 3211.6817,-1873.761"/>
</g>
</g>
</svg>
