<?xml version="1.0" encoding="UTF-8" standalone="no"?>
<!DOCTYPE svg PUBLIC "-//W3C//DTD SVG 1.1//EN"
 "http://www.w3.org/Graphics/SVG/1.1/DTD/svg11.dtd">
<!-- Generated by graphviz version 2.40.1 (20161225.0304)
 -->
<!-- Title: %3 Pages: 1 -->
<svg width="10516pt" height="7172pt"
 viewBox="0.00 0.00 10515.62 7171.81" xmlns="http://www.w3.org/2000/svg" xmlns:xlink="http://www.w3.org/1999/xlink">
<g id="graph0" class="graph" transform="scale(1 1) rotate(0) translate(4 7167.8135)">
<title>%3</title>
<polygon fill="#ffffff" stroke="transparent" points="-4,4 -4,-7167.8135 10511.624,-7167.8135 10511.624,4 -4,4"/>
<!-- 174 -->
<g id="node1" class="node">
<title>174</title>
<ellipse fill="none" stroke="#000000" cx="27" cy="-3503.1516" rx="27" ry="18"/>
<text text-anchor="middle" x="27" y="-3499.4516" font-family="Times,serif" font-size="14.00" fill="#000000">174</text>
</g>
<!-- 209 -->
<g id="node2" class="node">
<title>209</title>
<ellipse fill="none" stroke="#000000" cx="4233.3953" cy="-1389.6798" rx="27" ry="18"/>
<text text-anchor="middle" x="4233.3953" y="-1385.9798" font-family="Times,serif" font-size="14.00" fill="#000000">209</text>
</g>
<!-- 701 -->
<g id="node3" class="node">
<title>701</title>
<ellipse fill="none" stroke="#000000" cx="5081.3374" cy="-592.3377" rx="27" ry="18"/>
<text text-anchor="middle" x="5081.3374" y="-588.6377" font-family="Times,serif" font-size="14.00" fill="#000000">701</text>
</g>
<!-- 1239 -->
<g id="node4" class="node">
<title>1239</title>
<ellipse fill="none" stroke="#000000" cx="6145.5396" cy="-117.045" rx="28.6953" ry="18"/>
<text text-anchor="middle" x="6145.5396" y="-113.345" font-family="Times,serif" font-size="14.00" fill="#000000">1239</text>
</g>
<!-- 1273 -->
<g id="node5" class="node">
<title>1273</title>
<ellipse fill="none" stroke="#000000" cx="7308.4212" cy="-18" rx="28.6953" ry="18"/>
<text text-anchor="middle" x="7308.4212" y="-14.3" font-family="Times,serif" font-size="14.00" fill="#000000">1273</text>
</g>
<!-- 1299 -->
<g id="node6" class="node">
<title>1299</title>
<ellipse fill="none" stroke="#000000" cx="8439.1348" cy="-307.1197" rx="28.6953" ry="18"/>
<text text-anchor="middle" x="8439.1348" y="-303.4197" font-family="Times,serif" font-size="14.00" fill="#000000">1299</text>
</g>
<!-- 2497 -->
<g id="node7" class="node">
<title>2497</title>
<ellipse fill="none" stroke="#000000" cx="2726.9493" cy="-4973.2658" rx="28.6953" ry="18"/>
<text text-anchor="middle" x="2726.9493" y="-4969.5658" font-family="Times,serif" font-size="14.00" fill="#000000">2497</text>
</g>
<!-- 2828 -->
<g id="node8" class="node">
<title>2828</title>
<ellipse fill="none" stroke="#000000" cx="5309.7313" cy="-6874.1408" rx="28.6953" ry="18"/>
<text text-anchor="middle" x="5309.7313" y="-6870.4408" font-family="Times,serif" font-size="14.00" fill="#000000">2828</text>
</g>
<!-- 2914 -->
<g id="node9" class="node">
<title>2914</title>
<ellipse fill="none" stroke="#000000" cx="9411.7454" cy="-952.2028" rx="28.6953" ry="18"/>
<text text-anchor="middle" x="9411.7454" y="-948.5028" font-family="Times,serif" font-size="14.00" fill="#000000">2914</text>
</g>
<!-- 3257 -->
<g id="node10" class="node">
<title>3257</title>
<ellipse fill="none" stroke="#000000" cx="10117.9266" cy="-1881.4022" rx="28.6953" ry="18"/>
<text text-anchor="middle" x="10117.9266" y="-1877.7022" font-family="Times,serif" font-size="14.00" fill="#000000">3257</text>
</g>
<!-- 3320 -->
<g id="node11" class="node">
<title>3320</title>
<ellipse fill="none" stroke="#000000" cx="10479.0265" cy="-2991.2267" rx="28.6953" ry="18"/>
<text text-anchor="middle" x="10479.0265" y="-2987.5267" font-family="Times,serif" font-size="14.00" fill="#000000">3320</text>
</g>
<!-- 3356 -->
<g id="node12" class="node">
<title>3356</title>
<ellipse fill="none" stroke="#000000" cx="3176.6594" cy="-4223.5211" rx="28.6953" ry="18"/>
<text text-anchor="middle" x="3176.6594" y="-4219.8211" font-family="Times,serif" font-size="14.00" fill="#000000">3356</text>
</g>
<!-- 3356&#45;&gt;2497 -->
<g id="edge1" class="edge">
<title>3356&#45;&gt;2497</title>
<path fill="none" stroke="#000000" d="M3166.4216,-4240.5893C3107.6755,-4338.5293 2813.5666,-4828.8598 2742.4492,-4947.4247"/>
<polygon fill="#000000" stroke="#000000" points="2739.3135,-4945.8483 2737.1711,-4956.2243 2745.3165,-4949.449 2739.3135,-4945.8483"/>
</g>
<!-- 3549 -->
<g id="node14" class="node">
<title>3549</title>
<ellipse fill="none" stroke="#000000" cx="4233.3953" cy="-5616.6234" rx="28.6953" ry="18"/>
<text text-anchor="middle" x="4233.3953" y="-5612.9234" font-family="Times,serif" font-size="14.00" fill="#000000">3549</text>
</g>
<!-- 3356&#45;&gt;3549 -->
<g id="edge2" class="edge">
<title>3356&#45;&gt;3549</title>
<path fill="none" stroke="#000000" d="M3189.2632,-4240.1368C3298.4951,-4384.138 4083.9942,-5419.6669 4214.9173,-5592.2637"/>
<polygon fill="#000000" stroke="#000000" points="4212.1498,-5594.4067 4220.9819,-5600.2587 4217.7269,-5590.1762 4212.1498,-5594.4067"/>
</g>
<!-- 5511 -->
<g id="node16" class="node">
<title>5511</title>
<ellipse fill="none" stroke="#000000" cx="2407.6298" cy="-3807.6488" rx="28.6953" ry="18"/>
<text text-anchor="middle" x="2407.6298" y="-3803.9488" font-family="Times,serif" font-size="14.00" fill="#000000">5511</text>
</g>
<!-- 3356&#45;&gt;5511 -->
<g id="edge3" class="edge">
<title>3356&#45;&gt;5511</title>
<path fill="none" stroke="#000000" d="M3154.8826,-4211.7448C3046.5001,-4153.1342 2565.4046,-3892.9695 2438.4386,-3824.3095"/>
<polygon fill="#000000" stroke="#000000" points="2440.0444,-3821.1989 2429.5833,-3819.5207 2436.7146,-3827.3562 2440.0444,-3821.1989"/>
</g>
<!-- 3491 -->
<g id="node13" class="node">
<title>3491</title>
<ellipse fill="none" stroke="#000000" cx="10454.8269" cy="-4158.0677" rx="28.6953" ry="18"/>
<text text-anchor="middle" x="10454.8269" y="-4154.3677" font-family="Times,serif" font-size="14.00" fill="#000000">3491</text>
</g>
<!-- 6762 -->
<g id="node20" class="node">
<title>6762</title>
<ellipse fill="none" stroke="#000000" cx="7019.5999" cy="-3503.1516" rx="28.6953" ry="18"/>
<text text-anchor="middle" x="7019.5999" y="-3499.4516" font-family="Times,serif" font-size="14.00" fill="#000000">6762</text>
</g>
<!-- 3549&#45;&gt;6762 -->
<g id="edge4" class="edge">
<title>3549&#45;&gt;6762</title>
<path fill="none" stroke="#000000" d="M4251.9241,-5602.5684C4479.04,-5430.29 6722.3468,-3728.6326 6992.9329,-3523.3799"/>
<polygon fill="#000000" stroke="#000000" points="6995.1927,-3526.0587 7001.0447,-3517.2267 6990.9622,-3520.4817 6995.1927,-3526.0587"/>
</g>
<!-- 30070 -->
<g id="node31" class="node">
<title>30070</title>
<ellipse fill="none" stroke="#000000" cx="5290.1312" cy="-7009.7257" rx="32.4942" ry="18"/>
<text text-anchor="middle" x="5290.1312" y="-7006.0257" font-family="Times,serif" font-size="14.00" fill="#000000">30070</text>
</g>
<!-- 3549&#45;&gt;30070 -->
<g id="edge5" class="edge">
<title>3549&#45;&gt;30070</title>
<path fill="none" stroke="#000000" d="M4245.9991,-5633.2391C4355.1165,-5777.0893 5139.0841,-6810.5993 5271.2393,-6984.8204"/>
<polygon fill="#000000" stroke="#000000" points="5268.5366,-6987.0488 5277.3687,-6992.9008 5274.1137,-6982.8184 5268.5366,-6987.0488"/>
</g>
<!-- 3597 -->
<g id="node15" class="node">
<title>3597</title>
<ellipse fill="none" stroke="#000000" cx="4191.313" cy="-4101.59" rx="28.6953" ry="18"/>
<text text-anchor="middle" x="4191.313" y="-4097.89" font-family="Times,serif" font-size="14.00" fill="#000000">3597</text>
</g>
<!-- 5692 -->
<g id="node17" class="node">
<title>5692</title>
<ellipse fill="none" stroke="#000000" cx="4192.893" cy="-4364.88" rx="28.6953" ry="18"/>
<text text-anchor="middle" x="4192.893" y="-4361.18" font-family="Times,serif" font-size="14.00" fill="#000000">5692</text>
</g>
<!-- 5692&#45;&gt;3597 -->
<g id="edge6" class="edge">
<title>5692&#45;&gt;3597</title>
<path fill="none" stroke="#000000" d="M4192.7844,-4346.783C4192.5143,-4301.7842 4191.8108,-4184.5529 4191.4842,-4130.1245"/>
<polygon fill="#000000" stroke="#000000" points="4194.9824,-4129.7924 4191.4223,-4119.8136 4187.9825,-4129.8344 4194.9824,-4129.7924"/>
</g>
<!-- 10834 -->
<g id="node24" class="node">
<title>10834</title>
<ellipse fill="none" stroke="#000000" cx="4085.929" cy="-3974.4277" rx="32.4942" ry="18"/>
<text text-anchor="middle" x="4085.929" y="-3970.7277" font-family="Times,serif" font-size="14.00" fill="#000000">10834</text>
</g>
<!-- 5692&#45;&gt;10834 -->
<g id="edge7" class="edge">
<title>5692&#45;&gt;10834</title>
<path fill="none" stroke="#000000" d="M4188.019,-4347.0885C4171.0003,-4284.9648 4114.1349,-4077.3883 4093.4955,-4002.048"/>
<polygon fill="#000000" stroke="#000000" points="4096.8494,-4001.0436 4090.8316,-3992.3237 4090.0981,-4002.8931 4096.8494,-4001.0436"/>
</g>
<!-- 11008 -->
<g id="node25" class="node">
<title>11008</title>
<ellipse fill="none" stroke="#000000" cx="4319.0066" cy="-4133.7535" rx="32.4942" ry="18"/>
<text text-anchor="middle" x="4319.0066" y="-4130.0535" font-family="Times,serif" font-size="14.00" fill="#000000">11008</text>
</g>
<!-- 5692&#45;&gt;11008 -->
<g id="edge8" class="edge">
<title>5692&#45;&gt;11008</title>
<path fill="none" stroke="#000000" d="M4202.372,-4347.5079C4224.3366,-4307.2537 4278.8175,-4207.4074 4304.7928,-4159.803"/>
<polygon fill="#000000" stroke="#000000" points="4307.8722,-4161.4665 4309.5897,-4151.0118 4301.7274,-4158.1136 4307.8722,-4161.4665"/>
</g>
<!-- 27865 -->
<g id="node29" class="node">
<title>27865</title>
<ellipse fill="none" stroke="#000000" cx="4417.2214" cy="-4227.0363" rx="32.4942" ry="18"/>
<text text-anchor="middle" x="4417.2214" y="-4223.3363" font-family="Times,serif" font-size="14.00" fill="#000000">27865</text>
</g>
<!-- 5692&#45;&gt;27865 -->
<g id="edge9" class="edge">
<title>5692&#45;&gt;27865</title>
<path fill="none" stroke="#000000" d="M4213.5951,-4352.1591C4253.2529,-4327.7905 4340.1108,-4274.4187 4386.5328,-4245.8936"/>
<polygon fill="#000000" stroke="#000000" points="4388.5644,-4248.7532 4395.2521,-4240.5358 4384.8997,-4242.7892 4388.5644,-4248.7532"/>
</g>
<!-- 28065 -->
<g id="node30" class="node">
<title>28065</title>
<ellipse fill="none" stroke="#000000" cx="4456.0638" cy="-4356.8019" rx="32.4942" ry="18"/>
<text text-anchor="middle" x="4456.0638" y="-4353.1019" font-family="Times,serif" font-size="14.00" fill="#000000">28065</text>
</g>
<!-- 5692&#45;&gt;28065 -->
<g id="edge10" class="edge">
<title>5692&#45;&gt;28065</title>
<path fill="none" stroke="#000000" d="M4221.5578,-4364.0001C4267.7681,-4362.5817 4359.001,-4359.7812 4413.0415,-4358.1225"/>
<polygon fill="#000000" stroke="#000000" points="4413.4415,-4361.6119 4423.3293,-4357.8067 4413.2266,-4354.6152 4413.4415,-4361.6119"/>
</g>
<!-- 52317 -->
<g id="node32" class="node">
<title>52317</title>
<ellipse fill="none" stroke="#000000" cx="4425.2534" cy="-4488.7054" rx="32.4942" ry="18"/>
<text text-anchor="middle" x="4425.2534" y="-4485.0054" font-family="Times,serif" font-size="14.00" fill="#000000">52317</text>
</g>
<!-- 5692&#45;&gt;52317 -->
<g id="edge11" class="edge">
<title>5692&#45;&gt;52317</title>
<path fill="none" stroke="#000000" d="M4214.7529,-4376.5292C4255.7414,-4398.3721 4344.3402,-4445.5866 4392.4923,-4471.2469"/>
<polygon fill="#000000" stroke="#000000" points="4391.0862,-4474.4635 4401.5573,-4476.0777 4394.3782,-4468.286 4391.0862,-4474.4635"/>
</g>
<!-- 52375 -->
<g id="node33" class="node">
<title>52375</title>
<ellipse fill="none" stroke="#000000" cx="4332.9449" cy="-4587.8365" rx="32.4942" ry="18"/>
<text text-anchor="middle" x="4332.9449" y="-4584.1365" font-family="Times,serif" font-size="14.00" fill="#000000">52375</text>
</g>
<!-- 5692&#45;&gt;52375 -->
<g id="edge12" class="edge">
<title>5692&#45;&gt;52375</title>
<path fill="none" stroke="#000000" d="M4203.4196,-4381.638C4227.6926,-4420.2794 4287.7232,-4515.8455 4316.7346,-4562.0305"/>
<polygon fill="#000000" stroke="#000000" points="4313.8205,-4563.9713 4322.1036,-4570.5776 4319.7481,-4560.2479 4313.8205,-4563.9713"/>
</g>
<!-- 52376 -->
<g id="node34" class="node">
<title>52376</title>
<ellipse fill="none" stroke="#000000" cx="4203.5692" cy="-4627.9582" rx="32.4942" ry="18"/>
<text text-anchor="middle" x="4203.5692" y="-4624.2582" font-family="Times,serif" font-size="14.00" fill="#000000">52376</text>
</g>
<!-- 5692&#45;&gt;52376 -->
<g id="edge13" class="edge">
<title>5692&#45;&gt;52376</title>
<path fill="none" stroke="#000000" d="M4193.6268,-4382.9624C4195.4514,-4427.9251 4200.2051,-4545.0621 4202.4121,-4599.4467"/>
<polygon fill="#000000" stroke="#000000" points="4198.9275,-4599.8994 4202.8302,-4609.7493 4205.9218,-4599.6155 4198.9275,-4599.8994"/>
</g>
<!-- 52380 -->
<g id="node35" class="node">
<title>52380</title>
<ellipse fill="none" stroke="#000000" cx="4071.3678" cy="-4598.4518" rx="32.4942" ry="18"/>
<text text-anchor="middle" x="4071.3678" y="-4594.7518" font-family="Times,serif" font-size="14.00" fill="#000000">52380</text>
</g>
<!-- 5692&#45;&gt;52380 -->
<g id="edge14" class="edge">
<title>5692&#45;&gt;52380</title>
<path fill="none" stroke="#000000" d="M4183.9569,-4382.0551C4162.9392,-4422.4512 4110.2559,-4523.7087 4085.1237,-4572.013"/>
<polygon fill="#000000" stroke="#000000" points="4081.9929,-4570.4474 4080.4822,-4580.934 4088.2027,-4573.6784 4081.9929,-4570.4474"/>
</g>
<!-- 52413 -->
<g id="node36" class="node">
<title>52413</title>
<ellipse fill="none" stroke="#000000" cx="3971.3302" cy="-4507.1266" rx="32.4942" ry="18"/>
<text text-anchor="middle" x="3971.3302" y="-4503.4266" font-family="Times,serif" font-size="14.00" fill="#000000">52413</text>
</g>
<!-- 5692&#45;&gt;52413 -->
<g id="edge15" class="edge">
<title>5692&#45;&gt;52413</title>
<path fill="none" stroke="#000000" d="M4172.84,-4377.7543C4133.7927,-4402.8232 4047.368,-4458.3091 4001.4196,-4487.8087"/>
<polygon fill="#000000" stroke="#000000" points="3999.3197,-4484.9976 3992.7956,-4493.3455 4003.1015,-4490.8881 3999.3197,-4484.9976"/>
</g>
<!-- 52431 -->
<g id="node37" class="node">
<title>52431</title>
<ellipse fill="none" stroke="#000000" cx="3929.933" cy="-4378.1533" rx="32.4942" ry="18"/>
<text text-anchor="middle" x="3929.933" y="-4374.4533" font-family="Times,serif" font-size="14.00" fill="#000000">52431</text>
</g>
<!-- 5692&#45;&gt;52431 -->
<g id="edge16" class="edge">
<title>5692&#45;&gt;52431</title>
<path fill="none" stroke="#000000" d="M4164.251,-4366.3257C4118.0777,-4368.6564 4026.918,-4373.2578 3972.9208,-4375.9834"/>
<polygon fill="#000000" stroke="#000000" points="3972.452,-4372.5025 3962.6412,-4376.5023 3972.8049,-4379.4936 3972.452,-4372.5025"/>
</g>
<!-- 262230 -->
<g id="node38" class="node">
<title>262230</title>
<ellipse fill="none" stroke="#000000" cx="3960.2275" cy="-4241.6285" rx="37.0935" ry="18"/>
<text text-anchor="middle" x="3960.2275" y="-4237.9285" font-family="Times,serif" font-size="14.00" fill="#000000">262230</text>
</g>
<!-- 5692&#45;&gt;262230 -->
<g id="edge17" class="edge">
<title>5692&#45;&gt;262230</title>
<path fill="none" stroke="#000000" d="M4171.0043,-4353.2848C4130.3016,-4331.723 4042.7117,-4285.3235 3994.2367,-4259.6445"/>
<polygon fill="#000000" stroke="#000000" points="3995.8498,-4256.5382 3985.3747,-4254.9499 3992.573,-4262.7239 3995.8498,-4256.5382"/>
</g>
<!-- 264608 -->
<g id="node39" class="node">
<title>264608</title>
<ellipse fill="none" stroke="#000000" cx="4060.0667" cy="-4137.5448" rx="37.0935" ry="18"/>
<text text-anchor="middle" x="4060.0667" y="-4133.8448" font-family="Times,serif" font-size="14.00" fill="#000000">264608</text>
</g>
<!-- 5692&#45;&gt;264608 -->
<g id="edge18" class="edge">
<title>5692&#45;&gt;264608</title>
<path fill="none" stroke="#000000" d="M4182.9094,-4347.7929C4159.8887,-4308.3925 4102.9553,-4210.9496 4075.4406,-4163.8576"/>
<polygon fill="#000000" stroke="#000000" points="4078.4155,-4162.0112 4070.3486,-4155.1426 4072.3715,-4165.5426 4078.4155,-4162.0112"/>
</g>
<!-- 6453 -->
<g id="node18" class="node">
<title>6453</title>
<ellipse fill="none" stroke="#000000" cx="10048.023" cy="-5251.9663" rx="28.6953" ry="18"/>
<text text-anchor="middle" x="10048.023" y="-5248.2663" font-family="Times,serif" font-size="14.00" fill="#000000">6453</text>
</g>
<!-- 6461 -->
<g id="node19" class="node">
<title>6461</title>
<ellipse fill="none" stroke="#000000" cx="9303.9234" cy="-6151.0877" rx="28.6953" ry="18"/>
<text text-anchor="middle" x="9303.9234" y="-6147.3877" font-family="Times,serif" font-size="14.00" fill="#000000">6461</text>
</g>
<!-- 6762&#45;&gt;174 -->
<g id="edge19" class="edge">
<title>6762&#45;&gt;174</title>
<path fill="none" stroke="#000000" d="M6990.6893,-3503.1516C6525.3066,-3503.1516 590.5575,-3503.1516 64.2439,-3503.1516"/>
<polygon fill="#000000" stroke="#000000" points="64.1483,-3499.6517 54.1483,-3503.1516 64.1482,-3506.6517 64.1483,-3499.6517"/>
</g>
<!-- 6762&#45;&gt;209 -->
<g id="edge20" class="edge">
<title>6762&#45;&gt;209</title>
<path fill="none" stroke="#000000" d="M7001.0712,-3489.0966C6773.7217,-3316.641 4526.0329,-1611.6596 4259.234,-1409.2796"/>
<polygon fill="#000000" stroke="#000000" points="4261.3309,-1406.4772 4251.2484,-1403.2222 4257.1004,-1412.0543 4261.3309,-1406.4772"/>
</g>
<!-- 6762&#45;&gt;701 -->
<g id="edge21" class="edge">
<title>6762&#45;&gt;701</title>
<path fill="none" stroke="#000000" d="M7008.4596,-3486.4215C6860.1589,-3263.7088 5278.1831,-887.9535 5098.0168,-617.3862"/>
<polygon fill="#000000" stroke="#000000" points="5100.8802,-615.3715 5092.4244,-608.9878 5095.0537,-619.2512 5100.8802,-615.3715"/>
</g>
<!-- 6762&#45;&gt;1239 -->
<g id="edge22" class="edge">
<title>6762&#45;&gt;1239</title>
<path fill="none" stroke="#000000" d="M7015.002,-3485.3391C6950.704,-3236.2489 6232.4339,-453.6734 6152.7159,-144.8458"/>
<polygon fill="#000000" stroke="#000000" points="6156.0399,-143.7195 6150.1515,-134.9117 6149.2621,-145.4691 6156.0399,-143.7195"/>
</g>
<!-- 6762&#45;&gt;1273 -->
<g id="edge23" class="edge">
<title>6762&#45;&gt;1273</title>
<path fill="none" stroke="#000000" d="M7021.1193,-3484.8181C7042.3765,-3228.3109 7279.9508,-361.5473 7306.0901,-46.1287"/>
<polygon fill="#000000" stroke="#000000" points="7309.5921,-46.248 7306.9301,-35.9931 7302.616,-45.6699 7309.5921,-46.248"/>
</g>
<!-- 6762&#45;&gt;1299 -->
<g id="edge24" class="edge">
<title>6762&#45;&gt;1299</title>
<path fill="none" stroke="#000000" d="M7027.4094,-3485.5689C7133.9076,-3245.7919 8295.9136,-629.5771 8427.104,-334.2066"/>
<polygon fill="#000000" stroke="#000000" points="8430.472,-335.246 8431.3326,-324.6862 8424.0746,-332.4046 8430.472,-335.246"/>
</g>
<!-- 6762&#45;&gt;2914 -->
<g id="edge25" class="edge">
<title>6762&#45;&gt;2914</title>
<path fill="none" stroke="#000000" d="M7034.2557,-3487.5229C7222.3526,-3286.9391 9161.5606,-1218.9962 9389.8382,-975.5643"/>
<polygon fill="#000000" stroke="#000000" points="9392.662,-977.6697 9396.9493,-967.9811 9387.5558,-972.8815 9392.662,-977.6697"/>
</g>
<!-- 6762&#45;&gt;3257 -->
<g id="edge26" class="edge">
<title>6762&#45;&gt;3257</title>
<path fill="none" stroke="#000000" d="M7041.8907,-3491.484C7303.1418,-3354.738 9778.477,-2059.0795 10086.5146,-1897.8442"/>
<polygon fill="#000000" stroke="#000000" points="10088.5405,-1900.7343 10095.7771,-1892.9959 10085.2942,-1894.5325 10088.5405,-1900.7343"/>
</g>
<!-- 6762&#45;&gt;3320 -->
<g id="edge27" class="edge">
<title>6762&#45;&gt;3320</title>
<path fill="none" stroke="#000000" d="M7047.4464,-3499.0309C7353.5221,-3453.7379 10086.5323,-3049.3079 10441.1634,-2996.8297"/>
<polygon fill="#000000" stroke="#000000" points="10441.8061,-3000.2728 10451.186,-2995.3466 10440.7813,-2993.3482 10441.8061,-3000.2728"/>
</g>
<!-- 6762&#45;&gt;3491 -->
<g id="edge28" class="edge">
<title>6762&#45;&gt;3491</title>
<path fill="none" stroke="#000000" d="M7047.2516,-3508.4233C7351.1863,-3566.3676 10065.0783,-4083.7633 10417.2286,-4150.8997"/>
<polygon fill="#000000" stroke="#000000" points="10416.7025,-4154.3624 10427.1811,-4152.7971 10418.0135,-4147.4862 10416.7025,-4154.3624"/>
</g>
<!-- 6762&#45;&gt;6453 -->
<g id="edge29" class="edge">
<title>6762&#45;&gt;6453</title>
<path fill="none" stroke="#000000" d="M7040.9698,-3515.492C7294.2136,-3661.7319 9718.3973,-5061.6183 10017.7529,-5234.4863"/>
<polygon fill="#000000" stroke="#000000" points="10016.3376,-5237.7106 10026.7477,-5239.6805 10019.8381,-5231.6488 10016.3376,-5237.7106"/>
</g>
<!-- 6762&#45;&gt;6461 -->
<g id="edge30" class="edge">
<title>6762&#45;&gt;6461</title>
<path fill="none" stroke="#000000" d="M7033.3035,-3519.0365C7211.2846,-3725.3482 9066.6803,-5876.0809 9283.3172,-6127.2015"/>
<polygon fill="#000000" stroke="#000000" points="9280.8776,-6129.7318 9290.0599,-6135.0174 9286.1779,-6125.1593 9280.8776,-6129.7318"/>
</g>
<!-- 7018 -->
<g id="node23" class="node">
<title>7018</title>
<ellipse fill="none" stroke="#000000" cx="8305.4034" cy="-6755.2907" rx="28.6953" ry="18"/>
<text text-anchor="middle" x="8305.4034" y="-6751.5907" font-family="Times,serif" font-size="14.00" fill="#000000">7018</text>
</g>
<!-- 6762&#45;&gt;7018 -->
<g id="edge31" class="edge">
<title>6762&#45;&gt;7018</title>
<path fill="none" stroke="#000000" d="M7026.5179,-3520.649C7122.0455,-3762.2638 8176.624,-6429.5734 8294.6768,-6728.1604"/>
<polygon fill="#000000" stroke="#000000" points="8291.5465,-6729.7623 8298.4781,-6737.7749 8298.0561,-6727.1885 8291.5465,-6729.7623"/>
</g>
<!-- 6904 -->
<g id="node21" class="node">
<title>6904</title>
<ellipse fill="none" stroke="#000000" cx="5425.9813" cy="-7027.3941" rx="28.6953" ry="18"/>
<text text-anchor="middle" x="5425.9813" y="-7023.6941" font-family="Times,serif" font-size="14.00" fill="#000000">6904</text>
</g>
<!-- 7016 -->
<g id="node22" class="node">
<title>7016</title>
<ellipse fill="none" stroke="#000000" cx="5274.3981" cy="-7145.8135" rx="28.6953" ry="18"/>
<text text-anchor="middle" x="5274.3981" y="-7142.1135" font-family="Times,serif" font-size="14.00" fill="#000000">7016</text>
</g>
<!-- 12956 -->
<g id="node26" class="node">
<title>12956</title>
<ellipse fill="none" stroke="#000000" cx="3305.0244" cy="-4188.3557" rx="32.4942" ry="18"/>
<text text-anchor="middle" x="3305.0244" y="-4184.6557" font-family="Times,serif" font-size="14.00" fill="#000000">12956</text>
</g>
<!-- 10834&#45;&gt;12956 -->
<g id="edge32" class="edge">
<title>10834&#45;&gt;12956</title>
<path fill="none" stroke="#000000" d="M4056.7418,-3982.4235C3936.6704,-4015.3169 3480.7435,-4140.2176 3344.0132,-4177.6747"/>
<polygon fill="#000000" stroke="#000000" points="3343.078,-4174.3019 3334.3581,-4180.3197 3344.9275,-4181.0531 3343.078,-4174.3019"/>
</g>
<!-- 22927 -->
<g id="node28" class="node">
<title>22927</title>
<ellipse fill="none" stroke="#000000" cx="3978.965" cy="-3583.9754" rx="32.4942" ry="18"/>
<text text-anchor="middle" x="3978.965" y="-3580.2754" font-family="Times,serif" font-size="14.00" fill="#000000">22927</text>
</g>
<!-- 10834&#45;&gt;22927 -->
<g id="edge33" class="edge">
<title>10834&#45;&gt;22927</title>
<path fill="none" stroke="#000000" d="M4080.9844,-3956.3784C4063.8752,-3893.9244 4007.1132,-3686.7253 3986.5156,-3611.5376"/>
<polygon fill="#000000" stroke="#000000" points="3989.8749,-3610.5531 3983.8571,-3601.8332 3983.1237,-3612.4026 3989.8749,-3610.5531"/>
</g>
<!-- 12956&#45;&gt;3356 -->
<g id="edge34" class="edge">
<title>12956&#45;&gt;3356</title>
<path fill="none" stroke="#000000" d="M3275.5748,-4196.4233C3256.9174,-4201.5345 3232.6565,-4208.1808 3212.8313,-4213.6119"/>
<polygon fill="#000000" stroke="#000000" points="3211.6414,-4210.3088 3202.9215,-4216.3266 3213.4909,-4217.0601 3211.6414,-4210.3088"/>
</g>
<!-- 18540 -->
<g id="node27" class="node">
<title>18540</title>
<ellipse fill="none" stroke="#000000" cx="5154.2811" cy="-6992.0574" rx="32.4942" ry="18"/>
<text text-anchor="middle" x="5154.2811" y="-6988.3574" font-family="Times,serif" font-size="14.00" fill="#000000">18540</text>
</g>
<!-- 30070&#45;&gt;2828 -->
<g id="edge35" class="edge">
<title>30070&#45;&gt;2828</title>
<path fill="none" stroke="#000000" d="M5292.734,-6991.7211C5296.0434,-6968.8276 5301.7935,-6929.0514 5305.6791,-6902.1725"/>
<polygon fill="#000000" stroke="#000000" points="5309.151,-6902.6178 5307.1178,-6892.2199 5302.223,-6901.6163 5309.151,-6902.6178"/>
</g>
<!-- 30070&#45;&gt;6904 -->
<g id="edge36" class="edge">
<title>30070&#45;&gt;6904</title>
<path fill="none" stroke="#000000" d="M5321.982,-7013.8682C5341.5722,-7016.416 5366.8019,-7019.6973 5387.5053,-7022.39"/>
<polygon fill="#000000" stroke="#000000" points="5387.1942,-7025.8789 5397.5622,-7023.698 5388.0971,-7018.9374 5387.1942,-7025.8789"/>
</g>
<!-- 30070&#45;&gt;7016 -->
<g id="edge37" class="edge">
<title>30070&#45;&gt;7016</title>
<path fill="none" stroke="#000000" d="M5288.042,-7027.7971C5285.3855,-7050.7756 5280.7699,-7090.6993 5277.6509,-7117.6779"/>
<polygon fill="#000000" stroke="#000000" points="5274.1677,-7117.3315 5276.496,-7127.6674 5281.1214,-7118.1355 5274.1677,-7117.3315"/>
</g>
<!-- 30070&#45;&gt;18540 -->
<g id="edge38" class="edge">
<title>30070&#45;&gt;18540</title>
<path fill="none" stroke="#000000" d="M5258.2804,-7005.5833C5239.7147,-7003.1687 5216.0838,-7000.0953 5196.0407,-6997.4885"/>
<polygon fill="#000000" stroke="#000000" points="5196.3003,-6993.9929 5185.9324,-6996.1738 5195.3974,-7000.9344 5196.3003,-6993.9929"/>
</g>
</g>
</svg>
