<?xml version="1.0" encoding="UTF-8" standalone="no"?>
<!DOCTYPE svg PUBLIC "-//W3C//DTD SVG 1.1//EN"
 "http://www.w3.org/Graphics/SVG/1.1/DTD/svg11.dtd">
<!-- Generated by graphviz version 2.40.1 (20161225.0304)
 -->
<!-- Title: %3 Pages: 1 -->
<svg width="248pt" height="302pt"
 viewBox="0.00 0.00 247.98 301.75" xmlns="http://www.w3.org/2000/svg" xmlns:xlink="http://www.w3.org/1999/xlink">
<g id="graph0" class="graph" transform="scale(1 1) rotate(0) translate(4 297.7463)">
<title>%3</title>
<polygon fill="#ffffff" stroke="transparent" points="-4,4 -4,-297.7463 243.9757,-297.7463 243.9757,4 -4,4"/>
<!-- 3597 -->
<g id="node1" class="node">
<title>3597</title>
<ellipse fill="none" stroke="#000000" cx="28.5975" cy="-89.8076" rx="28.6953" ry="18"/>
<text text-anchor="middle" x="28.5975" y="-86.1076" font-family="Times,serif" font-size="14.00" fill="#000000">3597</text>
</g>
<!-- 5692 -->
<g id="node2" class="node">
<title>5692</title>
<ellipse fill="none" stroke="#000000" cx="119.7772" cy="-101.2934" rx="28.6953" ry="18"/>
<text text-anchor="middle" x="119.7772" y="-97.5934" font-family="Times,serif" font-size="14.00" fill="#000000">5692</text>
</g>
<!-- 5692&#45;&gt;3597 -->
<g id="edge1" class="edge">
<title>5692&#45;&gt;3597</title>
<path fill="none" stroke="#000000" d="M91.4271,-97.7222C83.7081,-96.7498 75.2157,-95.68 67.0381,-94.6499"/>
<polygon fill="#000000" stroke="#000000" points="67.289,-91.1539 56.9299,-93.3766 66.4141,-98.0991 67.289,-91.1539"/>
</g>
<!-- 10834 -->
<g id="node3" class="node">
<title>10834</title>
<ellipse fill="none" stroke="#000000" cx="103.8994" cy="-201.3544" rx="32.4942" ry="18"/>
<text text-anchor="middle" x="103.8994" y="-197.6544" font-family="Times,serif" font-size="14.00" fill="#000000">10834</text>
</g>
<!-- 5692&#45;&gt;10834 -->
<g id="edge2" class="edge">
<title>5692&#45;&gt;10834</title>
<path fill="none" stroke="#000000" d="M116.8649,-119.6462C114.4925,-134.5973 111.1026,-155.9603 108.384,-173.0926"/>
<polygon fill="#000000" stroke="#000000" points="104.9037,-172.6931 106.7932,-183.1181 111.8172,-173.7902 104.9037,-172.6931"/>
</g>
<!-- 11008 -->
<g id="node4" class="node">
<title>11008</title>
<ellipse fill="none" stroke="#000000" cx="72.5322" cy="-154.4722" rx="32.4942" ry="18"/>
<text text-anchor="middle" x="72.5322" y="-150.7722" font-family="Times,serif" font-size="14.00" fill="#000000">11008</text>
</g>
<!-- 5692&#45;&gt;11008 -->
<g id="edge3" class="edge">
<title>5692&#45;&gt;11008</title>
<path fill="none" stroke="#000000" d="M105.6021,-117.2488C101.9328,-121.379 97.8993,-125.919 93.9489,-130.3656"/>
<polygon fill="#000000" stroke="#000000" points="91.0494,-128.3595 87.0243,-138.1599 96.2825,-133.0087 91.0494,-128.3595"/>
</g>
<!-- 27865 -->
<g id="node7" class="node">
<title>27865</title>
<ellipse fill="none" stroke="#000000" cx="72.566" cy="-24.6251" rx="32.4942" ry="18"/>
<text text-anchor="middle" x="72.566" y="-20.9251" font-family="Times,serif" font-size="14.00" fill="#000000">27865</text>
</g>
<!-- 5692&#45;&gt;27865 -->
<g id="edge4" class="edge">
<title>5692&#45;&gt;27865</title>
<path fill="none" stroke="#000000" d="M109.2995,-84.2782C103.1689,-74.3226 95.3063,-61.5541 88.4295,-50.3865"/>
<polygon fill="#000000" stroke="#000000" points="91.4014,-48.5377 83.1776,-41.8578 85.4408,-52.2081 91.4014,-48.5377"/>
</g>
<!-- 28065 -->
<g id="node8" class="node">
<title>28065</title>
<ellipse fill="none" stroke="#000000" cx="207.4786" cy="-75.6994" rx="32.4942" ry="18"/>
<text text-anchor="middle" x="207.4786" y="-71.9994" font-family="Times,serif" font-size="14.00" fill="#000000">28065</text>
</g>
<!-- 5692&#45;&gt;28065 -->
<g id="edge5" class="edge">
<title>5692&#45;&gt;28065</title>
<path fill="none" stroke="#000000" d="M146.0905,-93.6144C153.1771,-91.5463 160.9953,-89.2647 168.6104,-87.0424"/>
<polygon fill="#000000" stroke="#000000" points="169.8066,-90.3394 178.4257,-84.178 167.8455,-83.6197 169.8066,-90.3394"/>
</g>
<!-- 52317 -->
<g id="node9" class="node">
<title>52317</title>
<ellipse fill="none" stroke="#000000" cx="50.5969" cy="-57.2746" rx="32.4942" ry="18"/>
<text text-anchor="middle" x="50.5969" y="-53.5746" font-family="Times,serif" font-size="14.00" fill="#000000">52317</text>
</g>
<!-- 5692&#45;&gt;52317 -->
<g id="edge6" class="edge">
<title>5692&#45;&gt;52317</title>
<path fill="none" stroke="#000000" d="M99.395,-88.3244C93.4763,-84.5584 86.8859,-80.365 80.5113,-76.3089"/>
<polygon fill="#000000" stroke="#000000" points="82.3516,-73.3314 72.0358,-70.916 78.5938,-79.2373 82.3516,-73.3314"/>
</g>
<!-- 52375 -->
<g id="node10" class="node">
<title>52375</title>
<ellipse fill="none" stroke="#000000" cx="154.8332" cy="-18.1083" rx="32.4942" ry="18"/>
<text text-anchor="middle" x="154.8332" y="-14.4083" font-family="Times,serif" font-size="14.00" fill="#000000">52375</text>
</g>
<!-- 5692&#45;&gt;52375 -->
<g id="edge7" class="edge">
<title>5692&#45;&gt;52375</title>
<path fill="none" stroke="#000000" d="M127.2117,-83.652C131.9059,-72.513 138.0653,-57.8972 143.3763,-45.2948"/>
<polygon fill="#000000" stroke="#000000" points="146.7512,-46.2987 147.4095,-35.7243 140.3006,-43.5802 146.7512,-46.2987"/>
</g>
<!-- 52376 -->
<g id="node11" class="node">
<title>52376</title>
<ellipse fill="none" stroke="#000000" cx="113.0088" cy="-18" rx="32.4942" ry="18"/>
<text text-anchor="middle" x="113.0088" y="-14.3" font-family="Times,serif" font-size="14.00" fill="#000000">52376</text>
</g>
<!-- 5692&#45;&gt;52376 -->
<g id="edge8" class="edge">
<title>5692&#45;&gt;52376</title>
<path fill="none" stroke="#000000" d="M118.3085,-83.22C117.4305,-72.4142 116.2959,-58.4515 115.3019,-46.2193"/>
<polygon fill="#000000" stroke="#000000" points="118.7731,-45.7218 114.4746,-36.0382 111.7961,-46.2888 118.7731,-45.7218"/>
</g>
<!-- 52380 -->
<g id="node12" class="node">
<title>52380</title>
<ellipse fill="none" stroke="#000000" cx="38.071" cy="-130.2347" rx="32.4942" ry="18"/>
<text text-anchor="middle" x="38.071" y="-126.5347" font-family="Times,serif" font-size="14.00" fill="#000000">52380</text>
</g>
<!-- 5692&#45;&gt;52380 -->
<g id="edge9" class="edge">
<title>5692&#45;&gt;52380</title>
<path fill="none" stroke="#000000" d="M94.8187,-110.134C88.6385,-112.3231 81.8835,-114.7158 75.258,-117.0626"/>
<polygon fill="#000000" stroke="#000000" points="73.9834,-113.8009 65.7259,-120.439 76.3206,-120.3992 73.9834,-113.8009"/>
</g>
<!-- 52413 -->
<g id="node13" class="node">
<title>52413</title>
<ellipse fill="none" stroke="#000000" cx="206.6084" cy="-117.3431" rx="32.4942" ry="18"/>
<text text-anchor="middle" x="206.6084" y="-113.6431" font-family="Times,serif" font-size="14.00" fill="#000000">52413</text>
</g>
<!-- 5692&#45;&gt;52413 -->
<g id="edge10" class="edge">
<title>5692&#45;&gt;52413</title>
<path fill="none" stroke="#000000" d="M147.2511,-106.3716C153.0441,-107.4424 159.2768,-108.5944 165.4486,-109.7352"/>
<polygon fill="#000000" stroke="#000000" points="165.2196,-113.2521 175.6893,-111.6281 166.492,-106.3687 165.2196,-113.2521"/>
</g>
<!-- 52431 -->
<g id="node14" class="node">
<title>52431</title>
<ellipse fill="none" stroke="#000000" cx="190.0909" cy="-154.0893" rx="32.4942" ry="18"/>
<text text-anchor="middle" x="190.0909" y="-150.3893" font-family="Times,serif" font-size="14.00" fill="#000000">52431</text>
</g>
<!-- 5692&#45;&gt;52431 -->
<g id="edge11" class="edge">
<title>5692&#45;&gt;52431</title>
<path fill="none" stroke="#000000" d="M138.2513,-115.1649C145.6198,-120.6976 154.2611,-127.1861 162.3531,-133.262"/>
<polygon fill="#000000" stroke="#000000" points="160.4122,-136.1815 170.5104,-139.3871 164.6153,-130.5838 160.4122,-136.1815"/>
</g>
<!-- 262230 -->
<g id="node15" class="node">
<title>262230</title>
<ellipse fill="none" stroke="#000000" cx="149.8871" cy="-166.4015" rx="37.0935" ry="18"/>
<text text-anchor="middle" x="149.8871" y="-162.7015" font-family="Times,serif" font-size="14.00" fill="#000000">262230</text>
</g>
<!-- 5692&#45;&gt;262230 -->
<g id="edge12" class="edge">
<title>5692&#45;&gt;262230</title>
<path fill="none" stroke="#000000" d="M127.8461,-118.7412C130.7682,-125.0599 134.1416,-132.3543 137.3568,-139.3067"/>
<polygon fill="#000000" stroke="#000000" points="134.2117,-140.8443 141.586,-148.4516 140.5652,-137.906 134.2117,-140.8443"/>
</g>
<!-- 264608 -->
<g id="node16" class="node">
<title>264608</title>
<ellipse fill="none" stroke="#000000" cx="178.4929" cy="-49.7201" rx="37.0935" ry="18"/>
<text text-anchor="middle" x="178.4929" y="-46.0201" font-family="Times,serif" font-size="14.00" fill="#000000">264608</text>
</g>
<!-- 5692&#45;&gt;264608 -->
<g id="edge13" class="edge">
<title>5692&#45;&gt;264608</title>
<path fill="none" stroke="#000000" d="M136.4457,-86.6525C141.4572,-82.2507 147.0795,-77.3123 152.5423,-72.514"/>
<polygon fill="#000000" stroke="#000000" points="155.1385,-74.892 160.3421,-65.663 150.519,-69.6327 155.1385,-74.892"/>
</g>
<!-- 12956 -->
<g id="node5" class="node">
<title>12956</title>
<ellipse fill="none" stroke="#000000" cx="145.6006" cy="-275.7463" rx="32.4942" ry="18"/>
<text text-anchor="middle" x="145.6006" y="-272.0463" font-family="Times,serif" font-size="14.00" fill="#000000">12956</text>
</g>
<!-- 10834&#45;&gt;12956 -->
<g id="edge14" class="edge">
<title>10834&#45;&gt;12956</title>
<path fill="none" stroke="#000000" d="M113.5713,-218.6084C118.6924,-227.7441 125.0909,-239.1585 130.8197,-249.3783"/>
<polygon fill="#000000" stroke="#000000" points="127.8938,-251.3167 135.8367,-258.3282 133.9999,-247.8938 127.8938,-251.3167"/>
</g>
<!-- 22927 -->
<g id="node6" class="node">
<title>22927</title>
<ellipse fill="none" stroke="#000000" cx="40.1755" cy="-258.4663" rx="32.4942" ry="18"/>
<text text-anchor="middle" x="40.1755" y="-254.7663" font-family="Times,serif" font-size="14.00" fill="#000000">22927</text>
</g>
<!-- 10834&#45;&gt;22927 -->
<g id="edge15" class="edge">
<title>10834&#45;&gt;22927</title>
<path fill="none" stroke="#000000" d="M86.4866,-216.9605C79.8834,-222.8785 72.2298,-229.738 65.0699,-236.155"/>
<polygon fill="#000000" stroke="#000000" points="62.6782,-233.5985 57.5673,-242.8791 67.3502,-238.8113 62.6782,-233.5985"/>
</g>
</g>
</svg>
