<?xml version="1.0" encoding="UTF-8" standalone="no"?>
<!DOCTYPE svg PUBLIC "-//W3C//DTD SVG 1.1//EN"
 "http://www.w3.org/Graphics/SVG/1.1/DTD/svg11.dtd">
<!-- Generated by graphviz version 2.40.1 (20161225.0304)
 -->
<!-- Title: %3 Pages: 1 -->
<svg width="760pt" height="599pt"
 viewBox="0.00 0.00 760.35 599.08" xmlns="http://www.w3.org/2000/svg" xmlns:xlink="http://www.w3.org/1999/xlink">
<g id="graph0" class="graph" transform="scale(1 1) rotate(0) translate(4 595.0792)">
<title>%3</title>
<polygon fill="#ffffff" stroke="transparent" points="-4,4 -4,-595.0792 756.3499,-595.0792 756.3499,4 -4,4"/>
<!-- 3597 -->
<g id="node1" class="node">
<title>3597</title>
<ellipse fill="none" stroke="#000000" cx="490.3524" cy="-418.1585" rx="28.6953" ry="18"/>
<text text-anchor="middle" x="490.3524" y="-414.4585" font-family="Times,serif" font-size="14.00" fill="#000000">3597</text>
</g>
<!-- 5692 -->
<g id="node2" class="node">
<title>5692</title>
<ellipse fill="none" stroke="#000000" cx="299.55" cy="-286.3846" rx="28.6953" ry="18"/>
<text text-anchor="middle" x="299.55" y="-282.6846" font-family="Times,serif" font-size="14.00" fill="#000000">5692</text>
</g>
<!-- 5692&#45;&gt;3597 -->
<g id="edge1" class="edge">
<title>5692&#45;&gt;3597</title>
<path fill="none" stroke="#000000" d="M318.8952,-299.7449C352.894,-323.2255 423.463,-371.9626 462.6362,-399.0168"/>
<polygon fill="#000000" stroke="#000000" points="460.7387,-401.9599 470.9561,-404.7627 464.7167,-396.2 460.7387,-401.9599"/>
</g>
<!-- 10834 -->
<g id="node3" class="node">
<title>10834</title>
<ellipse fill="none" stroke="#000000" cx="565.5858" cy="-285.6554" rx="32.4942" ry="18"/>
<text text-anchor="middle" x="565.5858" y="-281.9554" font-family="Times,serif" font-size="14.00" fill="#000000">10834</text>
</g>
<!-- 5692&#45;&gt;10834 -->
<g id="edge2" class="edge">
<title>5692&#45;&gt;10834</title>
<path fill="none" stroke="#000000" d="M328.2733,-286.3058C375.1018,-286.1775 468.1457,-285.9224 522.7835,-285.7727"/>
<polygon fill="#000000" stroke="#000000" points="522.856,-289.2726 532.8464,-285.7451 522.8368,-282.2726 522.856,-289.2726"/>
</g>
<!-- 11008 -->
<g id="node4" class="node">
<title>11008</title>
<ellipse fill="none" stroke="#000000" cx="402.55" cy="-507.9631" rx="32.4942" ry="18"/>
<text text-anchor="middle" x="402.55" y="-504.2631" font-family="Times,serif" font-size="14.00" fill="#000000">11008</text>
</g>
<!-- 5692&#45;&gt;11008 -->
<g id="edge3" class="edge">
<title>5692&#45;&gt;11008</title>
<path fill="none" stroke="#000000" d="M307.6322,-303.7715C325.5261,-342.2657 368.5948,-434.9171 390.0157,-480.9986"/>
<polygon fill="#000000" stroke="#000000" points="386.9736,-482.7576 394.3628,-490.3504 393.3213,-479.8069 386.9736,-482.7576"/>
</g>
<!-- 27865 -->
<g id="node7" class="node">
<title>27865</title>
<ellipse fill="none" stroke="#000000" cx="281.6257" cy="-573.0792" rx="32.4942" ry="18"/>
<text text-anchor="middle" x="281.6257" y="-569.3792" font-family="Times,serif" font-size="14.00" fill="#000000">27865</text>
</g>
<!-- 5692&#45;&gt;27865 -->
<g id="edge4" class="edge">
<title>5692&#45;&gt;27865</title>
<path fill="none" stroke="#000000" d="M298.4015,-304.7547C295.3537,-353.5035 287.045,-486.3978 283.3905,-544.8509"/>
<polygon fill="#000000" stroke="#000000" points="279.8955,-544.6631 282.7646,-554.8621 286.8819,-545.1 279.8955,-544.6631"/>
</g>
<!-- 28065 -->
<g id="node8" class="node">
<title>28065</title>
<ellipse fill="none" stroke="#000000" cx="209.6528" cy="-476.6313" rx="32.4942" ry="18"/>
<text text-anchor="middle" x="209.6528" y="-472.9313" font-family="Times,serif" font-size="14.00" fill="#000000">28065</text>
</g>
<!-- 5692&#45;&gt;28065 -->
<g id="edge5" class="edge">
<title>5692&#45;&gt;28065</title>
<path fill="none" stroke="#000000" d="M291.2538,-303.9415C275.466,-337.3528 241.0114,-410.2681 222.3203,-449.8235"/>
<polygon fill="#000000" stroke="#000000" points="219.0368,-448.5801 217.9289,-459.1168 225.3658,-451.5707 219.0368,-448.5801"/>
</g>
<!-- 52317 -->
<g id="node9" class="node">
<title>52317</title>
<ellipse fill="none" stroke="#000000" cx="156.8239" cy="-257.2591" rx="32.4942" ry="18"/>
<text text-anchor="middle" x="156.8239" y="-253.5591" font-family="Times,serif" font-size="14.00" fill="#000000">52317</text>
</g>
<!-- 5692&#45;&gt;52317 -->
<g id="edge6" class="edge">
<title>5692&#45;&gt;52317</title>
<path fill="none" stroke="#000000" d="M272.031,-280.7689C250.8381,-276.4441 221.2224,-270.4006 197.3253,-265.5241"/>
<polygon fill="#000000" stroke="#000000" points="197.973,-262.0842 187.4751,-263.514 196.5734,-268.9428 197.973,-262.0842"/>
</g>
<!-- 52375 -->
<g id="node10" class="node">
<title>52375</title>
<ellipse fill="none" stroke="#000000" cx="115.5549" cy="-406.2898" rx="32.4942" ry="18"/>
<text text-anchor="middle" x="115.5549" y="-402.5898" font-family="Times,serif" font-size="14.00" fill="#000000">52375</text>
</g>
<!-- 5692&#45;&gt;52375 -->
<g id="edge7" class="edge">
<title>5692&#45;&gt;52375</title>
<path fill="none" stroke="#000000" d="M279.509,-299.4448C247.0877,-320.573 182.9674,-362.3586 145.2365,-386.947"/>
<polygon fill="#000000" stroke="#000000" points="143.1678,-384.1174 136.7007,-392.5095 146.9897,-389.982 143.1678,-384.1174"/>
</g>
<!-- 52376 -->
<g id="node11" class="node">
<title>52376</title>
<ellipse fill="none" stroke="#000000" cx="121.7288" cy="-115.6882" rx="32.4942" ry="18"/>
<text text-anchor="middle" x="121.7288" y="-111.9882" font-family="Times,serif" font-size="14.00" fill="#000000">52376</text>
</g>
<!-- 5692&#45;&gt;52376 -->
<g id="edge8" class="edge">
<title>5692&#45;&gt;52376</title>
<path fill="none" stroke="#000000" d="M283.7696,-271.2364C252.4245,-241.1472 182.1712,-173.7088 145.3179,-138.3322"/>
<polygon fill="#000000" stroke="#000000" points="147.6247,-135.6949 137.9868,-131.2948 142.7771,-140.7448 147.6247,-135.6949"/>
</g>
<!-- 52380 -->
<g id="node12" class="node">
<title>52380</title>
<ellipse fill="none" stroke="#000000" cx="32.4971" cy="-272.0479" rx="32.4942" ry="18"/>
<text text-anchor="middle" x="32.4971" y="-268.3479" font-family="Times,serif" font-size="14.00" fill="#000000">52380</text>
</g>
<!-- 5692&#45;&gt;52380 -->
<g id="edge9" class="edge">
<title>5692&#45;&gt;52380</title>
<path fill="none" stroke="#000000" d="M270.9707,-284.8503C223.9467,-282.3258 130.0115,-277.2829 75.1142,-274.3357"/>
<polygon fill="#000000" stroke="#000000" points="75.1827,-270.8345 65.0094,-273.7933 74.8073,-277.8244 75.1827,-270.8345"/>
</g>
<!-- 52413 -->
<g id="node13" class="node">
<title>52413</title>
<ellipse fill="none" stroke="#000000" cx="226.0001" cy="-18" rx="32.4942" ry="18"/>
<text text-anchor="middle" x="226.0001" y="-14.3" font-family="Times,serif" font-size="14.00" fill="#000000">52413</text>
</g>
<!-- 5692&#45;&gt;52413 -->
<g id="edge10" class="edge">
<title>5692&#45;&gt;52413</title>
<path fill="none" stroke="#000000" d="M294.61,-268.3583C282.0225,-222.4263 248.6766,-100.747 233.5963,-45.7187"/>
<polygon fill="#000000" stroke="#000000" points="236.9372,-44.6671 230.9186,-35.9477 230.1861,-46.5172 236.9372,-44.6671"/>
</g>
<!-- 52431 -->
<g id="node14" class="node">
<title>52431</title>
<ellipse fill="none" stroke="#000000" cx="312.2649" cy="-141.4992" rx="32.4942" ry="18"/>
<text text-anchor="middle" x="312.2649" y="-137.7992" font-family="Times,serif" font-size="14.00" fill="#000000">52431</text>
</g>
<!-- 5692&#45;&gt;52431 -->
<g id="edge11" class="edge">
<title>5692&#45;&gt;52431</title>
<path fill="none" stroke="#000000" d="M301.1346,-268.3277C303.3047,-243.6005 307.223,-198.951 309.784,-169.7694"/>
<polygon fill="#000000" stroke="#000000" points="313.2726,-170.0514 310.6603,-159.7836 306.2994,-169.4393 313.2726,-170.0514"/>
</g>
<!-- 262230 -->
<g id="node15" class="node">
<title>262230</title>
<ellipse fill="none" stroke="#000000" cx="475.1991" cy="-148.4233" rx="37.0935" ry="18"/>
<text text-anchor="middle" x="475.1991" y="-144.7233" font-family="Times,serif" font-size="14.00" fill="#000000">262230</text>
</g>
<!-- 5692&#45;&gt;262230 -->
<g id="edge12" class="edge">
<title>5692&#45;&gt;262230</title>
<path fill="none" stroke="#000000" d="M317.686,-272.1399C348.4407,-247.984 411.0161,-198.835 447.3557,-170.2925"/>
<polygon fill="#000000" stroke="#000000" points="449.8575,-172.778 455.5599,-163.8486 445.5337,-167.2731 449.8575,-172.778"/>
</g>
<!-- 264608 -->
<g id="node16" class="node">
<title>264608</title>
<ellipse fill="none" stroke="#000000" cx="393.0803" cy="-21.686" rx="37.0935" ry="18"/>
<text text-anchor="middle" x="393.0803" y="-17.986" font-family="Times,serif" font-size="14.00" fill="#000000">264608</text>
</g>
<!-- 5692&#45;&gt;264608 -->
<g id="edge13" class="edge">
<title>5692&#45;&gt;264608</title>
<path fill="none" stroke="#000000" d="M305.832,-268.6059C321.8006,-223.4136 364.0398,-103.873 383.2819,-49.4165"/>
<polygon fill="#000000" stroke="#000000" points="386.6709,-50.3306 386.7025,-39.7358 380.0708,-47.9984 386.6709,-50.3306"/>
</g>
<!-- 12956 -->
<g id="node5" class="node">
<title>12956</title>
<ellipse fill="none" stroke="#000000" cx="719.8528" cy="-346.5106" rx="32.4942" ry="18"/>
<text text-anchor="middle" x="719.8528" y="-342.8106" font-family="Times,serif" font-size="14.00" fill="#000000">12956</text>
</g>
<!-- 10834&#45;&gt;12956 -->
<g id="edge14" class="edge">
<title>10834&#45;&gt;12956</title>
<path fill="none" stroke="#000000" d="M592.1052,-296.1167C617.3813,-306.0876 655.6399,-321.1799 683.7009,-332.2494"/>
<polygon fill="#000000" stroke="#000000" points="682.5764,-335.5682 693.1632,-335.9821 685.1452,-329.0566 682.5764,-335.5682"/>
</g>
<!-- 22927 -->
<g id="node6" class="node">
<title>22927</title>
<ellipse fill="none" stroke="#000000" cx="666.3625" cy="-172.8463" rx="32.4942" ry="18"/>
<text text-anchor="middle" x="666.3625" y="-169.1463" font-family="Times,serif" font-size="14.00" fill="#000000">22927</text>
</g>
<!-- 10834&#45;&gt;22927 -->
<g id="edge15" class="edge">
<title>10834&#45;&gt;22927</title>
<path fill="none" stroke="#000000" d="M580.0246,-269.4926C596.99,-250.5016 625.3002,-218.8113 644.8526,-196.9243"/>
<polygon fill="#000000" stroke="#000000" points="647.5707,-199.1353 651.6227,-189.3459 642.3504,-194.4718 647.5707,-199.1353"/>
</g>
</g>
</svg>
