<?xml version="1.0" encoding="UTF-8" standalone="no"?>
<!DOCTYPE svg PUBLIC "-//W3C//DTD SVG 1.1//EN"
 "http://www.w3.org/Graphics/SVG/1.1/DTD/svg11.dtd">
<!-- Generated by graphviz version 2.40.1 (20161225.0304)
 -->
<!-- Title: %3 Pages: 1 -->
<svg width="1080pt" height="188pt"
 viewBox="0.00 0.00 1079.64 188.00" xmlns="http://www.w3.org/2000/svg" xmlns:xlink="http://www.w3.org/1999/xlink">
<g id="graph0" class="graph" transform="scale(1 1) rotate(0) translate(4 184)">
<title>%3</title>
<polygon fill="#ffffff" stroke="transparent" points="-4,4 -4,-184 1075.6442,-184 1075.6442,4 -4,4"/>
<!-- 3597 -->
<g id="node1" class="node">
<title>3597</title>
<ellipse fill="none" stroke="#000000" cx="28.5975" cy="-90" rx="28.6953" ry="18"/>
<text text-anchor="middle" x="28.5975" y="-86.3" font-family="Times,serif" font-size="14.00" fill="#000000">3597</text>
</g>
<!-- 5692 -->
<g id="node2" class="node">
<title>5692</title>
<ellipse fill="none" stroke="#000000" cx="522.5975" cy="-162" rx="28.6953" ry="18"/>
<text text-anchor="middle" x="522.5975" y="-158.3" font-family="Times,serif" font-size="14.00" fill="#000000">5692</text>
</g>
<!-- 5692&#45;&gt;3597 -->
<g id="edge1" class="edge">
<title>5692&#45;&gt;3597</title>
<path fill="none" stroke="#000000" d="M494.0129,-159.8332C407.2338,-153.0637 147.8067,-131.3629 66.5975,-108 64.4315,-107.3769 62.2352,-106.6422 60.0474,-105.832"/>
<polygon fill="#000000" stroke="#000000" points="61.2078,-102.5239 50.6309,-101.9077 58.515,-108.9852 61.2078,-102.5239"/>
</g>
<!-- 10834 -->
<g id="node3" class="node">
<title>10834</title>
<ellipse fill="none" stroke="#000000" cx="107.5975" cy="-90" rx="32.4942" ry="18"/>
<text text-anchor="middle" x="107.5975" y="-86.3" font-family="Times,serif" font-size="14.00" fill="#000000">10834</text>
</g>
<!-- 5692&#45;&gt;10834 -->
<g id="edge2" class="edge">
<title>5692&#45;&gt;10834</title>
<path fill="none" stroke="#000000" d="M493.9984,-160.4071C430.8035,-156.3384 274.9382,-143.2744 149.5975,-108 147.1252,-107.3042 144.6065,-106.4966 142.0926,-105.6164"/>
<polygon fill="#000000" stroke="#000000" points="143.1197,-102.2617 132.5296,-101.946 140.6114,-108.7969 143.1197,-102.2617"/>
</g>
<!-- 11008 -->
<g id="node4" class="node">
<title>11008</title>
<ellipse fill="none" stroke="#000000" cx="190.5975" cy="-90" rx="32.4942" ry="18"/>
<text text-anchor="middle" x="190.5975" y="-86.3" font-family="Times,serif" font-size="14.00" fill="#000000">11008</text>
</g>
<!-- 5692&#45;&gt;11008 -->
<g id="edge3" class="edge">
<title>5692&#45;&gt;11008</title>
<path fill="none" stroke="#000000" d="M494.1076,-158.8151C441.5615,-152.4771 326.2025,-136.3918 232.5975,-108 230.1397,-107.2545 227.6318,-106.4097 225.1259,-105.5026"/>
<polygon fill="#000000" stroke="#000000" points="226.168,-102.1522 215.5799,-101.7737 223.621,-108.6724 226.168,-102.1522"/>
</g>
<!-- 27865 -->
<g id="node7" class="node">
<title>27865</title>
<ellipse fill="none" stroke="#000000" cx="273.5975" cy="-90" rx="32.4942" ry="18"/>
<text text-anchor="middle" x="273.5975" y="-86.3" font-family="Times,serif" font-size="14.00" fill="#000000">27865</text>
</g>
<!-- 5692&#45;&gt;27865 -->
<g id="edge4" class="edge">
<title>5692&#45;&gt;27865</title>
<path fill="none" stroke="#000000" d="M495.4202,-156.2764C455.4864,-147.5606 378.8418,-129.6654 315.5975,-108 313.1677,-107.1677 310.6808,-106.258 308.1901,-105.3038"/>
<polygon fill="#000000" stroke="#000000" points="309.2607,-101.9618 298.6771,-101.4727 306.6457,-108.455 309.2607,-101.9618"/>
</g>
<!-- 28065 -->
<g id="node8" class="node">
<title>28065</title>
<ellipse fill="none" stroke="#000000" cx="356.5975" cy="-90" rx="32.4942" ry="18"/>
<text text-anchor="middle" x="356.5975" y="-86.3" font-family="Times,serif" font-size="14.00" fill="#000000">28065</text>
</g>
<!-- 5692&#45;&gt;28065 -->
<g id="edge5" class="edge">
<title>5692&#45;&gt;28065</title>
<path fill="none" stroke="#000000" d="M498.8137,-151.6842C470.7843,-139.5268 423.9549,-119.2153 391.7384,-105.2419"/>
<polygon fill="#000000" stroke="#000000" points="392.8133,-101.8931 382.2463,-101.1248 390.0278,-108.315 392.8133,-101.8931"/>
</g>
<!-- 52317 -->
<g id="node9" class="node">
<title>52317</title>
<ellipse fill="none" stroke="#000000" cx="439.5975" cy="-90" rx="32.4942" ry="18"/>
<text text-anchor="middle" x="439.5975" y="-86.3" font-family="Times,serif" font-size="14.00" fill="#000000">52317</text>
</g>
<!-- 5692&#45;&gt;52317 -->
<g id="edge6" class="edge">
<title>5692&#45;&gt;52317</title>
<path fill="none" stroke="#000000" d="M505.8012,-147.4297C494.1114,-137.2892 478.3101,-123.5821 465.0765,-112.1023"/>
<polygon fill="#000000" stroke="#000000" points="467.0756,-109.2031 457.2282,-105.2941 462.4886,-114.4908 467.0756,-109.2031"/>
</g>
<!-- 52375 -->
<g id="node10" class="node">
<title>52375</title>
<ellipse fill="none" stroke="#000000" cx="522.5975" cy="-90" rx="32.4942" ry="18"/>
<text text-anchor="middle" x="522.5975" y="-86.3" font-family="Times,serif" font-size="14.00" fill="#000000">52375</text>
</g>
<!-- 5692&#45;&gt;52375 -->
<g id="edge7" class="edge">
<title>5692&#45;&gt;52375</title>
<path fill="none" stroke="#000000" d="M522.5975,-143.8314C522.5975,-136.131 522.5975,-126.9743 522.5975,-118.4166"/>
<polygon fill="#000000" stroke="#000000" points="526.0976,-118.4132 522.5975,-108.4133 519.0976,-118.4133 526.0976,-118.4132"/>
</g>
<!-- 52376 -->
<g id="node11" class="node">
<title>52376</title>
<ellipse fill="none" stroke="#000000" cx="605.5975" cy="-90" rx="32.4942" ry="18"/>
<text text-anchor="middle" x="605.5975" y="-86.3" font-family="Times,serif" font-size="14.00" fill="#000000">52376</text>
</g>
<!-- 5692&#45;&gt;52376 -->
<g id="edge8" class="edge">
<title>5692&#45;&gt;52376</title>
<path fill="none" stroke="#000000" d="M539.3938,-147.4297C551.0835,-137.2892 566.8848,-123.5821 580.1185,-112.1023"/>
<polygon fill="#000000" stroke="#000000" points="582.7063,-114.4908 587.9667,-105.2941 578.1193,-109.2031 582.7063,-114.4908"/>
</g>
<!-- 52380 -->
<g id="node12" class="node">
<title>52380</title>
<ellipse fill="none" stroke="#000000" cx="688.5975" cy="-90" rx="32.4942" ry="18"/>
<text text-anchor="middle" x="688.5975" y="-86.3" font-family="Times,serif" font-size="14.00" fill="#000000">52380</text>
</g>
<!-- 5692&#45;&gt;52380 -->
<g id="edge9" class="edge">
<title>5692&#45;&gt;52380</title>
<path fill="none" stroke="#000000" d="M546.3812,-151.6842C574.4107,-139.5268 621.24,-119.2153 653.4565,-105.2419"/>
<polygon fill="#000000" stroke="#000000" points="655.1671,-108.315 662.9486,-101.1248 652.3816,-101.8931 655.1671,-108.315"/>
</g>
<!-- 52413 -->
<g id="node13" class="node">
<title>52413</title>
<ellipse fill="none" stroke="#000000" cx="771.5975" cy="-90" rx="32.4942" ry="18"/>
<text text-anchor="middle" x="771.5975" y="-86.3" font-family="Times,serif" font-size="14.00" fill="#000000">52413</text>
</g>
<!-- 5692&#45;&gt;52413 -->
<g id="edge10" class="edge">
<title>5692&#45;&gt;52413</title>
<path fill="none" stroke="#000000" d="M549.7748,-156.2764C589.7085,-147.5606 666.3531,-129.6654 729.5975,-108 732.0272,-107.1677 734.5141,-106.258 737.0048,-105.3038"/>
<polygon fill="#000000" stroke="#000000" points="738.5493,-108.455 746.5178,-101.4727 735.9342,-101.9618 738.5493,-108.455"/>
</g>
<!-- 52431 -->
<g id="node14" class="node">
<title>52431</title>
<ellipse fill="none" stroke="#000000" cx="854.5975" cy="-90" rx="32.4942" ry="18"/>
<text text-anchor="middle" x="854.5975" y="-86.3" font-family="Times,serif" font-size="14.00" fill="#000000">52431</text>
</g>
<!-- 5692&#45;&gt;52431 -->
<g id="edge11" class="edge">
<title>5692&#45;&gt;52431</title>
<path fill="none" stroke="#000000" d="M551.0873,-158.8151C603.6335,-152.4771 718.9924,-136.3918 812.5975,-108 815.0552,-107.2545 817.5631,-106.4097 820.069,-105.5026"/>
<polygon fill="#000000" stroke="#000000" points="821.5739,-108.6724 829.615,-101.7737 819.0269,-102.1522 821.5739,-108.6724"/>
</g>
<!-- 262230 -->
<g id="node15" class="node">
<title>262230</title>
<ellipse fill="none" stroke="#000000" cx="942.5975" cy="-90" rx="37.0935" ry="18"/>
<text text-anchor="middle" x="942.5975" y="-86.3" font-family="Times,serif" font-size="14.00" fill="#000000">262230</text>
</g>
<!-- 5692&#45;&gt;262230 -->
<g id="edge12" class="edge">
<title>5692&#45;&gt;262230</title>
<path fill="none" stroke="#000000" d="M551.0975,-160.0413C614.0947,-155.243 769.5904,-140.8146 895.5975,-108 898.726,-107.1853 901.9321,-106.23 905.1278,-105.1919"/>
<polygon fill="#000000" stroke="#000000" points="906.3086,-108.4869 914.5963,-101.8866 904.0015,-101.878 906.3086,-108.4869"/>
</g>
<!-- 264608 -->
<g id="node16" class="node">
<title>264608</title>
<ellipse fill="none" stroke="#000000" cx="1034.5975" cy="-90" rx="37.0935" ry="18"/>
<text text-anchor="middle" x="1034.5975" y="-86.3" font-family="Times,serif" font-size="14.00" fill="#000000">264608</text>
</g>
<!-- 5692&#45;&gt;264608 -->
<g id="edge13" class="edge">
<title>5692&#45;&gt;264608</title>
<path fill="none" stroke="#000000" d="M551.4231,-161.2303C625.2246,-158.71 826.5895,-148.3639 988.5975,-108 991.4059,-107.3003 994.2734,-106.4722 997.1355,-105.5618"/>
<polygon fill="#000000" stroke="#000000" points="998.4576,-108.8076 1006.7522,-102.216 996.1574,-102.1963 998.4576,-108.8076"/>
</g>
<!-- 12956 -->
<g id="node5" class="node">
<title>12956</title>
<ellipse fill="none" stroke="#000000" cx="65.5975" cy="-18" rx="32.4942" ry="18"/>
<text text-anchor="middle" x="65.5975" y="-14.3" font-family="Times,serif" font-size="14.00" fill="#000000">12956</text>
</g>
<!-- 10834&#45;&gt;12956 -->
<g id="edge14" class="edge">
<title>10834&#45;&gt;12956</title>
<path fill="none" stroke="#000000" d="M97.4304,-72.5708C92.4263,-63.9922 86.2919,-53.4762 80.7485,-43.9732"/>
<polygon fill="#000000" stroke="#000000" points="83.7329,-42.1429 75.6709,-35.2687 77.6864,-45.6701 83.7329,-42.1429"/>
</g>
<!-- 22927 -->
<g id="node6" class="node">
<title>22927</title>
<ellipse fill="none" stroke="#000000" cx="148.5975" cy="-18" rx="32.4942" ry="18"/>
<text text-anchor="middle" x="148.5975" y="-14.3" font-family="Times,serif" font-size="14.00" fill="#000000">22927</text>
</g>
<!-- 10834&#45;&gt;22927 -->
<g id="edge15" class="edge">
<title>10834&#45;&gt;22927</title>
<path fill="none" stroke="#000000" d="M117.5224,-72.5708C122.4074,-63.9922 128.3957,-53.4762 133.8072,-43.9732"/>
<polygon fill="#000000" stroke="#000000" points="136.8569,-45.6905 138.7639,-35.2687 130.774,-42.2266 136.8569,-45.6905"/>
</g>
</g>
</svg>
