<?xml version="1.0" encoding="UTF-8" standalone="no"?>
<!DOCTYPE svg PUBLIC "-//W3C//DTD SVG 1.1//EN"
 "http://www.w3.org/Graphics/SVG/1.1/DTD/svg11.dtd">
<!-- Generated by graphviz version 2.40.1 (20161225.0304)
 -->
<!-- Title: %3 Pages: 1 -->
<svg width="854pt" height="1406pt"
 viewBox="0.00 0.00 854.07 1405.83" xmlns="http://www.w3.org/2000/svg" xmlns:xlink="http://www.w3.org/1999/xlink">
<g id="graph0" class="graph" transform="scale(1 1) rotate(0) translate(4 1401.8348)">
<title>%3</title>
<polygon fill="#ffffff" stroke="transparent" points="-4,4 -4,-1401.8348 850.069,-1401.8348 850.069,4 -4,4"/>
<!-- 174 -->
<g id="node1" class="node">
<title>174</title>
<ellipse fill="none" stroke="#000000" cx="398.6947" cy="-550.3791" rx="27" ry="18"/>
<text text-anchor="middle" x="398.6947" y="-546.6791" font-family="Times,serif" font-size="14.00" fill="#000000">174</text>
</g>
<!-- 209 -->
<g id="node2" class="node">
<title>209</title>
<ellipse fill="none" stroke="#000000" cx="365.967" cy="-476.5211" rx="27" ry="18"/>
<text text-anchor="middle" x="365.967" y="-472.8211" font-family="Times,serif" font-size="14.00" fill="#000000">209</text>
</g>
<!-- 174&#45;&gt;209 -->
<g id="edge1" class="edge">
<title>174&#45;&gt;209</title>
<path fill="none" stroke="#000000" d="M390.9387,-532.8758C387.0259,-524.0456 382.1952,-513.1439 377.8284,-503.2891"/>
<polygon fill="#000000" stroke="#000000" points="380.9186,-501.6234 373.6673,-493.8988 374.5187,-504.4593 380.9186,-501.6234"/>
</g>
<!-- 1299 -->
<g id="node7" class="node">
<title>1299</title>
<ellipse fill="none" stroke="#000000" cx="391.8646" cy="-399.8092" rx="28.6953" ry="18"/>
<text text-anchor="middle" x="391.8646" y="-396.1092" font-family="Times,serif" font-size="14.00" fill="#000000">1299</text>
</g>
<!-- 209&#45;&gt;1299 -->
<g id="edge2" class="edge">
<title>209&#45;&gt;1299</title>
<path fill="none" stroke="#000000" d="M371.9735,-458.729C375.1441,-449.3375 379.103,-437.6106 382.6523,-427.0971"/>
<polygon fill="#000000" stroke="#000000" points="386.0081,-428.0989 385.8907,-417.5048 379.3759,-425.8599 386.0081,-428.0989"/>
</g>
<!-- 2828 -->
<g id="node12" class="node">
<title>2828</title>
<ellipse fill="none" stroke="#000000" cx="283.0225" cy="-475.7861" rx="28.6953" ry="18"/>
<text text-anchor="middle" x="283.0225" y="-472.0861" font-family="Times,serif" font-size="14.00" fill="#000000">2828</text>
</g>
<!-- 209&#45;&gt;2828 -->
<g id="edge3" class="edge">
<title>209&#45;&gt;2828</title>
<path fill="none" stroke="#000000" d="M338.8079,-476.2804C333.3746,-476.2323 327.5676,-476.1808 321.8291,-476.13"/>
<polygon fill="#000000" stroke="#000000" points="321.6996,-472.6288 311.6689,-476.04 321.6375,-479.6285 321.6996,-472.6288"/>
</g>
<!-- 701 -->
<g id="node3" class="node">
<title>701</title>
<ellipse fill="none" stroke="#000000" cx="387.4358" cy="-155.4871" rx="27" ry="18"/>
<text text-anchor="middle" x="387.4358" y="-151.7871" font-family="Times,serif" font-size="14.00" fill="#000000">701</text>
</g>
<!-- 703 -->
<g id="node4" class="node">
<title>703</title>
<ellipse fill="none" stroke="#000000" cx="456.2018" cy="-95.5005" rx="27" ry="18"/>
<text text-anchor="middle" x="456.2018" y="-91.8005" font-family="Times,serif" font-size="14.00" fill="#000000">703</text>
</g>
<!-- 701&#45;&gt;703 -->
<g id="edge4" class="edge">
<title>701&#45;&gt;703</title>
<path fill="none" stroke="#000000" d="M404.0821,-140.966C412.4443,-133.6714 422.734,-124.6955 431.9554,-116.6514"/>
<polygon fill="#000000" stroke="#000000" points="434.4738,-119.0991 439.7087,-109.8879 429.8722,-113.824 434.4738,-119.0991"/>
</g>
<!-- 1273 -->
<g id="node6" class="node">
<title>1273</title>
<ellipse fill="none" stroke="#000000" cx="457.221" cy="-169.2254" rx="28.6953" ry="18"/>
<text text-anchor="middle" x="457.221" y="-165.5254" font-family="Times,serif" font-size="14.00" fill="#000000">1273</text>
</g>
<!-- 701&#45;&gt;1273 -->
<g id="edge5" class="edge">
<title>701&#45;&gt;1273</title>
<path fill="none" stroke="#000000" d="M413.4212,-160.6027C415.4799,-161.008 417.5829,-161.422 419.6989,-161.8386"/>
<polygon fill="#000000" stroke="#000000" points="419.0896,-165.2858 429.5774,-163.7833 420.4418,-158.4176 419.0896,-165.2858"/>
</g>
<!-- 7018 -->
<g id="node28" class="node">
<title>7018</title>
<ellipse fill="none" stroke="#000000" cx="312.8092" cy="-110.0305" rx="28.6953" ry="18"/>
<text text-anchor="middle" x="312.8092" y="-106.3305" font-family="Times,serif" font-size="14.00" fill="#000000">7018</text>
</g>
<!-- 701&#45;&gt;7018 -->
<g id="edge6" class="edge">
<title>701&#45;&gt;7018</title>
<path fill="none" stroke="#000000" d="M367.4373,-143.3056C359.6186,-138.5431 350.4968,-132.9868 341.9717,-127.794"/>
<polygon fill="#000000" stroke="#000000" points="343.7445,-124.7756 333.3833,-122.5626 340.103,-130.7539 343.7445,-124.7756"/>
</g>
<!-- 2516 -->
<g id="node9" class="node">
<title>2516</title>
<ellipse fill="none" stroke="#000000" cx="538.5499" cy="-79.4965" rx="28.6953" ry="18"/>
<text text-anchor="middle" x="538.5499" y="-75.7965" font-family="Times,serif" font-size="14.00" fill="#000000">2516</text>
</g>
<!-- 703&#45;&gt;2516 -->
<g id="edge7" class="edge">
<title>703&#45;&gt;2516</title>
<path fill="none" stroke="#000000" d="M482.2572,-90.4367C488.2562,-89.2709 494.7524,-88.0083 501.1276,-86.7693"/>
<polygon fill="#000000" stroke="#000000" points="501.8088,-90.2025 510.9574,-84.859 500.4733,-83.3311 501.8088,-90.2025"/>
</g>
<!-- 9498 -->
<g id="node31" class="node">
<title>9498</title>
<ellipse fill="none" stroke="#000000" cx="473.1596" cy="-18" rx="28.6953" ry="18"/>
<text text-anchor="middle" x="473.1596" y="-14.3" font-family="Times,serif" font-size="14.00" fill="#000000">9498</text>
</g>
<!-- 703&#45;&gt;9498 -->
<g id="edge8" class="edge">
<title>703&#45;&gt;9498</title>
<path fill="none" stroke="#000000" d="M460.1349,-77.5255C462.1895,-68.1352 464.7499,-56.4341 467.0554,-45.8973"/>
<polygon fill="#000000" stroke="#000000" points="470.5293,-46.3945 469.2478,-35.8775 463.6911,-44.8982 470.5293,-46.3945"/>
</g>
<!-- 1239 -->
<g id="node5" class="node">
<title>1239</title>
<ellipse fill="none" stroke="#000000" cx="233.2014" cy="-126.5637" rx="28.6953" ry="18"/>
<text text-anchor="middle" x="233.2014" y="-122.8637" font-family="Times,serif" font-size="14.00" fill="#000000">1239</text>
</g>
<!-- 6461 -->
<g id="node24" class="node">
<title>6461</title>
<ellipse fill="none" stroke="#000000" cx="391.6492" cy="-321.5703" rx="28.6953" ry="18"/>
<text text-anchor="middle" x="391.6492" y="-317.8703" font-family="Times,serif" font-size="14.00" fill="#000000">6461</text>
</g>
<!-- 1299&#45;&gt;6461 -->
<g id="edge9" class="edge">
<title>1299&#45;&gt;6461</title>
<path fill="none" stroke="#000000" d="M391.8147,-381.6629C391.7886,-372.1832 391.756,-360.3705 391.7267,-349.7334"/>
<polygon fill="#000000" stroke="#000000" points="395.2265,-349.6084 391.6989,-339.6181 388.2265,-349.6277 395.2265,-349.6084"/>
</g>
<!-- 2497 -->
<g id="node8" class="node">
<title>2497</title>
<ellipse fill="none" stroke="#000000" cx="383.7261" cy="-242.2131" rx="28.6953" ry="18"/>
<text text-anchor="middle" x="383.7261" y="-238.5131" font-family="Times,serif" font-size="14.00" fill="#000000">2497</text>
</g>
<!-- 2497&#45;&gt;701 -->
<g id="edge10" class="edge">
<title>2497&#45;&gt;701</title>
<path fill="none" stroke="#000000" d="M384.5128,-223.8207C385.0129,-212.1291 385.6702,-196.7636 386.2348,-183.5647"/>
<polygon fill="#000000" stroke="#000000" points="389.7323,-183.696 386.6629,-173.5556 382.7387,-183.3968 389.7323,-183.696"/>
</g>
<!-- 2686 -->
<g id="node10" class="node">
<title>2686</title>
<ellipse fill="none" stroke="#000000" cx="161.7894" cy="-1264.275" rx="28.6953" ry="18"/>
<text text-anchor="middle" x="161.7894" y="-1260.575" font-family="Times,serif" font-size="14.00" fill="#000000">2686</text>
</g>
<!-- 3741 -->
<g id="node20" class="node">
<title>3741</title>
<ellipse fill="none" stroke="#000000" cx="113.6366" cy="-1327.4366" rx="28.6953" ry="18"/>
<text text-anchor="middle" x="113.6366" y="-1323.7366" font-family="Times,serif" font-size="14.00" fill="#000000">3741</text>
</g>
<!-- 2686&#45;&gt;3741 -->
<g id="edge11" class="edge">
<title>2686&#45;&gt;3741</title>
<path fill="none" stroke="#000000" d="M149.3888,-1280.5407C144.2615,-1287.2661 138.202,-1295.2143 132.5426,-1302.6377"/>
<polygon fill="#000000" stroke="#000000" points="129.4419,-1300.932 126.1625,-1311.0065 135.0087,-1305.176 129.4419,-1300.932"/>
</g>
<!-- 2687 -->
<g id="node11" class="node">
<title>2687</title>
<ellipse fill="none" stroke="#000000" cx="187.3321" cy="-1184.8993" rx="28.6953" ry="18"/>
<text text-anchor="middle" x="187.3321" y="-1181.1993" font-family="Times,serif" font-size="14.00" fill="#000000">2687</text>
</g>
<!-- 2687&#45;&gt;2686 -->
<g id="edge12" class="edge">
<title>2687&#45;&gt;2686</title>
<path fill="none" stroke="#000000" d="M181.536,-1202.9109C178.313,-1212.9267 174.235,-1225.5992 170.6229,-1236.8242"/>
<polygon fill="#000000" stroke="#000000" points="167.2061,-1236.0167 167.4745,-1246.6081 173.8695,-1238.161 167.2061,-1236.0167"/>
</g>
<!-- 9505 -->
<g id="node32" class="node">
<title>9505</title>
<ellipse fill="none" stroke="#000000" cx="107.6039" cy="-1159.6796" rx="28.6953" ry="18"/>
<text text-anchor="middle" x="107.6039" y="-1155.9796" font-family="Times,serif" font-size="14.00" fill="#000000">9505</text>
</g>
<!-- 2687&#45;&gt;9505 -->
<g id="edge13" class="edge">
<title>2687&#45;&gt;9505</title>
<path fill="none" stroke="#000000" d="M161.6667,-1176.7808C155.692,-1174.8909 149.2278,-1172.8462 142.9177,-1170.8501"/>
<polygon fill="#000000" stroke="#000000" points="143.8111,-1167.4619 133.2211,-1167.7829 141.6999,-1174.1359 143.8111,-1167.4619"/>
</g>
<!-- 2914 -->
<g id="node13" class="node">
<title>2914</title>
<ellipse fill="none" stroke="#000000" cx="423.6024" cy="-864.7729" rx="28.6953" ry="18"/>
<text text-anchor="middle" x="423.6024" y="-861.0729" font-family="Times,serif" font-size="14.00" fill="#000000">2914</text>
</g>
<!-- 6453 -->
<g id="node23" class="node">
<title>6453</title>
<ellipse fill="none" stroke="#000000" cx="420.9627" cy="-783.7592" rx="28.6953" ry="18"/>
<text text-anchor="middle" x="420.9627" y="-780.0592" font-family="Times,serif" font-size="14.00" fill="#000000">6453</text>
</g>
<!-- 2914&#45;&gt;6453 -->
<g id="edge14" class="edge">
<title>2914&#45;&gt;6453</title>
<path fill="none" stroke="#000000" d="M423.0034,-846.3897C422.6738,-836.2715 422.2575,-823.4968 421.8871,-812.1277"/>
<polygon fill="#000000" stroke="#000000" points="425.3742,-811.6713 421.5503,-801.7907 418.3779,-811.8994 425.3742,-811.6713"/>
</g>
<!-- 3257 -->
<g id="node14" class="node">
<title>3257</title>
<ellipse fill="none" stroke="#000000" cx="417.24" cy="-704.907" rx="28.6953" ry="18"/>
<text text-anchor="middle" x="417.24" y="-701.207" font-family="Times,serif" font-size="14.00" fill="#000000">3257</text>
</g>
<!-- 3491 -->
<g id="node17" class="node">
<title>3491</title>
<ellipse fill="none" stroke="#000000" cx="411.7318" cy="-627.2153" rx="28.6953" ry="18"/>
<text text-anchor="middle" x="411.7318" y="-623.5153" font-family="Times,serif" font-size="14.00" fill="#000000">3491</text>
</g>
<!-- 3257&#45;&gt;3491 -->
<g id="edge15" class="edge">
<title>3257&#45;&gt;3491</title>
<path fill="none" stroke="#000000" d="M415.9625,-686.8877C415.2998,-677.5414 414.4753,-665.9116 413.7306,-655.408"/>
<polygon fill="#000000" stroke="#000000" points="417.22,-655.1334 413.0215,-645.406 410.2375,-655.6285 417.22,-655.1334"/>
</g>
<!-- 3320 -->
<g id="node15" class="node">
<title>3320</title>
<ellipse fill="none" stroke="#000000" cx="248.8114" cy="-59.2797" rx="28.6953" ry="18"/>
<text text-anchor="middle" x="248.8114" y="-55.5797" font-family="Times,serif" font-size="14.00" fill="#000000">3320</text>
</g>
<!-- 3356 -->
<g id="node16" class="node">
<title>3356</title>
<ellipse fill="none" stroke="#000000" cx="496.258" cy="-1081.6231" rx="28.6953" ry="18"/>
<text text-anchor="middle" x="496.258" y="-1077.9231" font-family="Times,serif" font-size="14.00" fill="#000000">3356</text>
</g>
<!-- 3549 -->
<g id="node18" class="node">
<title>3549</title>
<ellipse fill="none" stroke="#000000" cx="418.275" cy="-1039.6502" rx="28.6953" ry="18"/>
<text text-anchor="middle" x="418.275" y="-1035.9502" font-family="Times,serif" font-size="14.00" fill="#000000">3549</text>
</g>
<!-- 3356&#45;&gt;3549 -->
<g id="edge16" class="edge">
<title>3356&#45;&gt;3549</title>
<path fill="none" stroke="#000000" d="M474.1198,-1069.7076C466.3156,-1065.5072 457.396,-1060.7064 449.0104,-1056.1929"/>
<polygon fill="#000000" stroke="#000000" points="450.6631,-1053.1077 440.1987,-1051.4502 447.3454,-1059.2716 450.6631,-1053.1077"/>
</g>
<!-- 3491&#45;&gt;174 -->
<g id="edge17" class="edge">
<title>3491&#45;&gt;174</title>
<path fill="none" stroke="#000000" d="M408.6422,-609.0062C407.0997,-599.9156 405.1992,-588.7147 403.4741,-578.5472"/>
<polygon fill="#000000" stroke="#000000" points="406.8857,-577.731 401.7621,-568.4575 399.9843,-578.9021 406.8857,-577.731"/>
</g>
<!-- 6762 -->
<g id="node25" class="node">
<title>6762</title>
<ellipse fill="none" stroke="#000000" cx="423.689" cy="-949.4183" rx="28.6953" ry="18"/>
<text text-anchor="middle" x="423.689" y="-945.7183" font-family="Times,serif" font-size="14.00" fill="#000000">6762</text>
</g>
<!-- 3549&#45;&gt;6762 -->
<g id="edge18" class="edge">
<title>3549&#45;&gt;6762</title>
<path fill="none" stroke="#000000" d="M419.3706,-1021.3904C420.1192,-1008.9155 421.1261,-992.1334 421.9794,-977.9126"/>
<polygon fill="#000000" stroke="#000000" points="425.4898,-977.8426 422.5951,-967.6509 418.5023,-977.4233 425.4898,-977.8426"/>
</g>
<!-- 30070 -->
<g id="node40" class="node">
<title>30070</title>
<ellipse fill="none" stroke="#000000" cx="334.0197" cy="-1080.0401" rx="32.4942" ry="18"/>
<text text-anchor="middle" x="334.0197" y="-1076.3401" font-family="Times,serif" font-size="14.00" fill="#000000">30070</text>
</g>
<!-- 3549&#45;&gt;30070 -->
<g id="edge19" class="edge">
<title>3549&#45;&gt;30070</title>
<path fill="none" stroke="#000000" d="M395.2519,-1050.6869C386.8623,-1054.7087 377.1902,-1059.3452 368.0472,-1063.7282"/>
<polygon fill="#000000" stroke="#000000" points="366.291,-1060.6886 358.7865,-1068.1675 369.3169,-1067.0008 366.291,-1060.6886"/>
</g>
<!-- 3597 -->
<g id="node19" class="node">
<title>3597</title>
<ellipse fill="none" stroke="#000000" cx="646.8911" cy="-1274.6537" rx="28.6953" ry="18"/>
<text text-anchor="middle" x="646.8911" y="-1270.9537" font-family="Times,serif" font-size="14.00" fill="#000000">3597</text>
</g>
<!-- 37179 -->
<g id="node41" class="node">
<title>37179</title>
<ellipse fill="none" stroke="#000000" cx="57.8653" cy="-1379.8348" rx="32.4942" ry="18"/>
<text text-anchor="middle" x="57.8653" y="-1376.1348" font-family="Times,serif" font-size="14.00" fill="#000000">37179</text>
</g>
<!-- 3741&#45;&gt;37179 -->
<g id="edge20" class="edge">
<title>3741&#45;&gt;37179</title>
<path fill="none" stroke="#000000" d="M97.5052,-1342.5923C92.6635,-1347.1412 87.2432,-1352.2337 82.0027,-1357.1572"/>
<polygon fill="#000000" stroke="#000000" points="79.4334,-1354.7688 74.5418,-1364.1669 84.2264,-1359.8704 79.4334,-1354.7688"/>
</g>
<!-- 5511 -->
<g id="node21" class="node">
<title>5511</title>
<ellipse fill="none" stroke="#000000" cx="315.9767" cy="-28.164" rx="28.6953" ry="18"/>
<text text-anchor="middle" x="315.9767" y="-24.464" font-family="Times,serif" font-size="14.00" fill="#000000">5511</text>
</g>
<!-- 5692 -->
<g id="node22" class="node">
<title>5692</title>
<ellipse fill="none" stroke="#000000" cx="724.5907" cy="-1230.3132" rx="28.6953" ry="18"/>
<text text-anchor="middle" x="724.5907" y="-1226.6132" font-family="Times,serif" font-size="14.00" fill="#000000">5692</text>
</g>
<!-- 5692&#45;&gt;3597 -->
<g id="edge21" class="edge">
<title>5692&#45;&gt;3597</title>
<path fill="none" stroke="#000000" d="M703.359,-1242.4295C695.222,-1247.073 685.7768,-1252.463 676.9668,-1257.4906"/>
<polygon fill="#000000" stroke="#000000" points="675.0477,-1254.5559 668.0972,-1262.5521 678.5172,-1260.6356 675.0477,-1254.5559"/>
</g>
<!-- 10834 -->
<g id="node33" class="node">
<title>10834</title>
<ellipse fill="none" stroke="#000000" cx="650.5401" cy="-1157.3689" rx="32.4942" ry="18"/>
<text text-anchor="middle" x="650.5401" y="-1153.6689" font-family="Times,serif" font-size="14.00" fill="#000000">10834</text>
</g>
<!-- 5692&#45;&gt;10834 -->
<g id="edge22" class="edge">
<title>5692&#45;&gt;10834</title>
<path fill="none" stroke="#000000" d="M708.8865,-1214.8436C698.6476,-1204.7577 685.1087,-1191.4211 673.6506,-1180.1341"/>
<polygon fill="#000000" stroke="#000000" points="676.0573,-1177.5919 666.477,-1173.0677 671.1449,-1182.5788 676.0573,-1177.5919"/>
</g>
<!-- 11008 -->
<g id="node34" class="node">
<title>11008</title>
<ellipse fill="none" stroke="#000000" cx="731.9345" cy="-1319.3113" rx="32.4942" ry="18"/>
<text text-anchor="middle" x="731.9345" y="-1315.6113" font-family="Times,serif" font-size="14.00" fill="#000000">11008</text>
</g>
<!-- 5692&#45;&gt;11008 -->
<g id="edge23" class="edge">
<title>5692&#45;&gt;11008</title>
<path fill="none" stroke="#000000" d="M726.0769,-1248.3233C727.0922,-1260.6277 728.458,-1277.1804 729.6154,-1291.2067"/>
<polygon fill="#000000" stroke="#000000" points="726.14,-1291.6498 730.4506,-1301.328 733.1163,-1291.074 726.14,-1291.6498"/>
</g>
<!-- 27865 -->
<g id="node38" class="node">
<title>27865</title>
<ellipse fill="none" stroke="#000000" cx="767.1427" cy="-1303.3421" rx="32.4942" ry="18"/>
<text text-anchor="middle" x="767.1427" y="-1299.6421" font-family="Times,serif" font-size="14.00" fill="#000000">27865</text>
</g>
<!-- 5692&#45;&gt;27865 -->
<g id="edge24" class="edge">
<title>5692&#45;&gt;27865</title>
<path fill="none" stroke="#000000" d="M734.46,-1247.2511C739.648,-1256.1549 746.1207,-1267.2635 751.934,-1277.2404"/>
<polygon fill="#000000" stroke="#000000" points="748.9729,-1279.1108 757.0315,-1285.989 755.0211,-1275.5866 748.9729,-1279.1108"/>
</g>
<!-- 28065 -->
<g id="node39" class="node">
<title>28065</title>
<ellipse fill="none" stroke="#000000" cx="661.7539" cy="-1227.4808" rx="32.4942" ry="18"/>
<text text-anchor="middle" x="661.7539" y="-1223.7808" font-family="Times,serif" font-size="14.00" fill="#000000">28065</text>
</g>
<!-- 5692&#45;&gt;28065 -->
<g id="edge25" class="edge">
<title>5692&#45;&gt;28065</title>
<path fill="none" stroke="#000000" d="M695.747,-1229.0131C695.618,-1229.0073 695.4889,-1229.0015 695.3597,-1228.9956"/>
<polygon fill="#000000" stroke="#000000" points="704.3439,-1225.8978 694.1962,-1228.9432 704.0281,-1232.8907 704.3439,-1225.8978"/>
</g>
<!-- 52317 -->
<g id="node42" class="node">
<title>52317</title>
<ellipse fill="none" stroke="#000000" cx="684.9621" cy="-1320.3951" rx="32.4942" ry="18"/>
<text text-anchor="middle" x="684.9621" y="-1316.6951" font-family="Times,serif" font-size="14.00" fill="#000000">52317</text>
</g>
<!-- 5692&#45;&gt;52317 -->
<g id="edge26" class="edge">
<title>5692&#45;&gt;52317</title>
<path fill="none" stroke="#000000" d="M716.9499,-1247.6819C711.2304,-1260.6832 703.3015,-1278.707 696.7688,-1293.5569"/>
<polygon fill="#000000" stroke="#000000" points="693.5378,-1292.2096 692.7147,-1302.7724 699.9452,-1295.0283 693.5378,-1292.2096"/>
</g>
<!-- 52375 -->
<g id="node43" class="node">
<title>52375</title>
<ellipse fill="none" stroke="#000000" cx="688.1127" cy="-1283.779" rx="32.4942" ry="18"/>
<text text-anchor="middle" x="688.1127" y="-1280.079" font-family="Times,serif" font-size="14.00" fill="#000000">52375</text>
</g>
<!-- 5692&#45;&gt;52375 -->
<g id="edge27" class="edge">
<title>5692&#45;&gt;52375</title>
<path fill="none" stroke="#000000" d="M713.2488,-1246.9371C710.7822,-1250.5523 708.1183,-1254.4569 705.4787,-1258.3257"/>
<polygon fill="#000000" stroke="#000000" points="702.5703,-1256.3784 699.8255,-1266.6116 708.3527,-1260.3236 702.5703,-1256.3784"/>
</g>
<!-- 52376 -->
<g id="node44" class="node">
<title>52376</title>
<ellipse fill="none" stroke="#000000" cx="793.3648" cy="-1276.3824" rx="32.4942" ry="18"/>
<text text-anchor="middle" x="793.3648" y="-1272.6824" font-family="Times,serif" font-size="14.00" fill="#000000">52376</text>
</g>
<!-- 5692&#45;&gt;52376 -->
<g id="edge28" class="edge">
<title>5692&#45;&gt;52376</title>
<path fill="none" stroke="#000000" d="M744.483,-1243.6383C750.4833,-1247.6577 757.2042,-1252.1598 763.6965,-1256.5087"/>
<polygon fill="#000000" stroke="#000000" points="762.0624,-1259.6268 772.3185,-1262.2843 765.9582,-1253.811 762.0624,-1259.6268"/>
</g>
<!-- 52380 -->
<g id="node45" class="node">
<title>52380</title>
<ellipse fill="none" stroke="#000000" cx="806.997" cy="-1205.8455" rx="32.4942" ry="18"/>
<text text-anchor="middle" x="806.997" y="-1202.1455" font-family="Times,serif" font-size="14.00" fill="#000000">52380</text>
</g>
<!-- 5692&#45;&gt;52380 -->
<g id="edge29" class="edge">
<title>5692&#45;&gt;52380</title>
<path fill="none" stroke="#000000" d="M750.6646,-1222.5715C756.2832,-1220.9032 762.3377,-1219.1056 768.3208,-1217.3291"/>
<polygon fill="#000000" stroke="#000000" points="769.643,-1220.5876 778.2331,-1214.386 767.6505,-1213.8771 769.643,-1220.5876"/>
</g>
<!-- 52413 -->
<g id="node46" class="node">
<title>52413</title>
<ellipse fill="none" stroke="#000000" cx="723.2444" cy="-1168.9287" rx="32.4942" ry="18"/>
<text text-anchor="middle" x="723.2444" y="-1165.2287" font-family="Times,serif" font-size="14.00" fill="#000000">52413</text>
</g>
<!-- 5692&#45;&gt;52413 -->
<g id="edge30" class="edge">
<title>5692&#45;&gt;52413</title>
<path fill="none" stroke="#000000" d="M724.1941,-1212.2278C724.0909,-1207.5243 723.9773,-1202.3426 723.8655,-1197.2486"/>
<polygon fill="#000000" stroke="#000000" points="727.3614,-1197.0177 723.6429,-1187.0969 720.3631,-1197.1713 727.3614,-1197.0177"/>
</g>
<!-- 52431 -->
<g id="node47" class="node">
<title>52431</title>
<ellipse fill="none" stroke="#000000" cx="794.4797" cy="-1171.6392" rx="32.4942" ry="18"/>
<text text-anchor="middle" x="794.4797" y="-1167.9392" font-family="Times,serif" font-size="14.00" fill="#000000">52431</text>
</g>
<!-- 5692&#45;&gt;52431 -->
<g id="edge31" class="edge">
<title>5692&#45;&gt;52431</title>
<path fill="none" stroke="#000000" d="M741.8667,-1215.8095C749.9132,-1209.0542 759.6559,-1200.8749 768.5595,-1193.4001"/>
<polygon fill="#000000" stroke="#000000" points="771.0192,-1195.9049 776.4276,-1186.7945 766.5183,-1190.5437 771.0192,-1195.9049"/>
</g>
<!-- 262230 -->
<g id="node48" class="node">
<title>262230</title>
<ellipse fill="none" stroke="#000000" cx="761.7408" cy="-1153.0852" rx="37.0935" ry="18"/>
<text text-anchor="middle" x="761.7408" y="-1149.3852" font-family="Times,serif" font-size="14.00" fill="#000000">262230</text>
</g>
<!-- 5692&#45;&gt;262230 -->
<g id="edge32" class="edge">
<title>5692&#45;&gt;262230</title>
<path fill="none" stroke="#000000" d="M733.0207,-1212.789C737.6899,-1203.0825 743.5929,-1190.8113 748.8312,-1179.9219"/>
<polygon fill="#000000" stroke="#000000" points="752.0347,-1181.3362 753.2157,-1170.8074 745.7266,-1178.3017 752.0347,-1181.3362"/>
</g>
<!-- 264608 -->
<g id="node49" class="node">
<title>264608</title>
<ellipse fill="none" stroke="#000000" cx="809.0223" cy="-1242.3332" rx="37.0935" ry="18"/>
<text text-anchor="middle" x="809.0223" y="-1238.6332" font-family="Times,serif" font-size="14.00" fill="#000000">264608</text>
</g>
<!-- 5692&#45;&gt;264608 -->
<g id="edge33" class="edge">
<title>5692&#45;&gt;264608</title>
<path fill="none" stroke="#000000" d="M752.7052,-1234.3157C756.1187,-1234.8017 759.6711,-1235.3074 763.2579,-1235.818"/>
<polygon fill="#000000" stroke="#000000" points="762.9771,-1239.3133 773.3706,-1237.2577 763.9637,-1232.3831 762.9771,-1239.3133"/>
</g>
<!-- 6453&#45;&gt;3257 -->
<g id="edge34" class="edge">
<title>6453&#45;&gt;3257</title>
<path fill="none" stroke="#000000" d="M420.0993,-765.4707C419.6483,-755.9167 419.0862,-744.0114 418.5801,-733.2909"/>
<polygon fill="#000000" stroke="#000000" points="422.0665,-732.9201 418.0988,-723.0963 415.0743,-733.2502 422.0665,-732.9201"/>
</g>
<!-- 6461&#45;&gt;2497 -->
<g id="edge35" class="edge">
<title>6461&#45;&gt;2497</title>
<path fill="none" stroke="#000000" d="M389.8513,-303.5629C388.8756,-293.7903 387.6473,-281.4877 386.5472,-270.4696"/>
<polygon fill="#000000" stroke="#000000" points="390.0205,-270.0267 385.5443,-260.4239 383.0551,-270.7222 390.0205,-270.0267"/>
</g>
<!-- 6762&#45;&gt;2914 -->
<g id="edge36" class="edge">
<title>6762&#45;&gt;2914</title>
<path fill="none" stroke="#000000" d="M423.6702,-931.0515C423.6588,-919.8835 423.644,-905.397 423.6311,-892.8171"/>
<polygon fill="#000000" stroke="#000000" points="427.1312,-892.8095 423.6209,-882.8131 420.1312,-892.8167 427.1312,-892.8095"/>
</g>
<!-- 6904 -->
<g id="node26" class="node">
<title>6904</title>
<ellipse fill="none" stroke="#000000" cx="260.1534" cy="-1138.3994" rx="28.6953" ry="18"/>
<text text-anchor="middle" x="260.1534" y="-1134.6994" font-family="Times,serif" font-size="14.00" fill="#000000">6904</text>
</g>
<!-- 6904&#45;&gt;2687 -->
<g id="edge37" class="edge">
<title>6904&#45;&gt;2687</title>
<path fill="none" stroke="#000000" d="M239.8686,-1151.3522C232.5301,-1156.0382 224.0965,-1161.4235 216.1648,-1166.4883"/>
<polygon fill="#000000" stroke="#000000" points="214.0527,-1163.6842 207.5081,-1172.016 217.82,-1169.584 214.0527,-1163.6842"/>
</g>
<!-- 7016 -->
<g id="node27" class="node">
<title>7016</title>
<ellipse fill="none" stroke="#000000" cx="278.5669" cy="-1031.2926" rx="28.6953" ry="18"/>
<text text-anchor="middle" x="278.5669" y="-1027.5926" font-family="Times,serif" font-size="14.00" fill="#000000">7016</text>
</g>
<!-- 7922 -->
<g id="node30" class="node">
<title>7922</title>
<ellipse fill="none" stroke="#000000" cx="209.462" cy="-997.3031" rx="28.6953" ry="18"/>
<text text-anchor="middle" x="209.462" y="-993.6031" font-family="Times,serif" font-size="14.00" fill="#000000">7922</text>
</g>
<!-- 7016&#45;&gt;7922 -->
<g id="edge38" class="edge">
<title>7016&#45;&gt;7922</title>
<path fill="none" stroke="#000000" d="M255.9394,-1020.1632C251.3339,-1017.8979 246.4063,-1015.4743 241.5442,-1013.0828"/>
<polygon fill="#000000" stroke="#000000" points="242.895,-1009.8468 232.3769,-1008.5739 239.8055,-1016.1282 242.895,-1009.8468"/>
</g>
<!-- 7018&#45;&gt;1239 -->
<g id="edge39" class="edge">
<title>7018&#45;&gt;1239</title>
<path fill="none" stroke="#000000" d="M285.4127,-115.7203C280.6059,-116.7186 275.5309,-117.7726 270.509,-118.8155"/>
<polygon fill="#000000" stroke="#000000" points="269.458,-115.459 260.3787,-120.9194 270.8815,-122.3128 269.458,-115.459"/>
</g>
<!-- 7018&#45;&gt;3320 -->
<g id="edge40" class="edge">
<title>7018&#45;&gt;3320</title>
<path fill="none" stroke="#000000" d="M294.9822,-95.8936C288.845,-91.0267 281.8361,-85.4686 275.1653,-80.1786"/>
<polygon fill="#000000" stroke="#000000" points="276.9975,-77.1646 266.9874,-73.6934 272.648,-82.6493 276.9975,-77.1646"/>
</g>
<!-- 7018&#45;&gt;5511 -->
<g id="edge41" class="edge">
<title>7018&#45;&gt;5511</title>
<path fill="none" stroke="#000000" d="M313.5122,-91.8617C313.914,-81.4747 314.4269,-68.2202 314.8806,-56.4946"/>
<polygon fill="#000000" stroke="#000000" points="318.3864,-56.4099 315.2757,-46.282 311.3916,-56.1392 318.3864,-56.4099"/>
</g>
<!-- 7473 -->
<g id="node29" class="node">
<title>7473</title>
<ellipse fill="none" stroke="#000000" cx="28.5975" cy="-1155.6157" rx="28.6953" ry="18"/>
<text text-anchor="middle" x="28.5975" y="-1151.9157" font-family="Times,serif" font-size="14.00" fill="#000000">7473</text>
</g>
<!-- 9505&#45;&gt;7473 -->
<g id="edge42" class="edge">
<title>9505&#45;&gt;7473</title>
<path fill="none" stroke="#000000" d="M79.0807,-1158.2124C75.3237,-1158.0192 71.4228,-1157.8185 67.5293,-1157.6183"/>
<polygon fill="#000000" stroke="#000000" points="67.5107,-1154.1128 57.3441,-1157.0944 67.151,-1161.1035 67.5107,-1154.1128"/>
</g>
<!-- 12956 -->
<g id="node35" class="node">
<title>12956</title>
<ellipse fill="none" stroke="#000000" cx="569.704" cy="-1123.6443" rx="32.4942" ry="18"/>
<text text-anchor="middle" x="569.704" y="-1119.9443" font-family="Times,serif" font-size="14.00" fill="#000000">12956</text>
</g>
<!-- 10834&#45;&gt;12956 -->
<g id="edge43" class="edge">
<title>10834&#45;&gt;12956</title>
<path fill="none" stroke="#000000" d="M624.5181,-1146.5126C618.3161,-1143.9251 611.5939,-1141.1207 605.0518,-1138.3913"/>
<polygon fill="#000000" stroke="#000000" points="606.2539,-1135.1005 595.6772,-1134.4803 603.5587,-1141.5608 606.2539,-1135.1005"/>
</g>
<!-- 22927 -->
<g id="node37" class="node">
<title>22927</title>
<ellipse fill="none" stroke="#000000" cx="684.7287" cy="-1078.544" rx="32.4942" ry="18"/>
<text text-anchor="middle" x="684.7287" y="-1074.844" font-family="Times,serif" font-size="14.00" fill="#000000">22927</text>
</g>
<!-- 10834&#45;&gt;22927 -->
<g id="edge44" class="edge">
<title>10834&#45;&gt;22927</title>
<path fill="none" stroke="#000000" d="M658.298,-1139.4823C662.656,-1129.4346 668.1818,-1116.6943 673.0529,-1105.4636"/>
<polygon fill="#000000" stroke="#000000" points="676.3511,-1106.6553 677.1193,-1096.0883 669.9291,-1103.8698 676.3511,-1106.6553"/>
</g>
<!-- 12956&#45;&gt;3356 -->
<g id="edge45" class="edge">
<title>12956&#45;&gt;3356</title>
<path fill="none" stroke="#000000" d="M546.8678,-1110.5789C540.4987,-1106.9349 533.476,-1102.9169 526.7417,-1099.064"/>
<polygon fill="#000000" stroke="#000000" points="528.2437,-1095.891 517.8258,-1093.9629 524.7675,-1101.9669 528.2437,-1095.891"/>
</g>
<!-- 18540 -->
<g id="node36" class="node">
<title>18540</title>
<ellipse fill="none" stroke="#000000" cx="341.8591" cy="-1145.439" rx="32.4942" ry="18"/>
<text text-anchor="middle" x="341.8591" y="-1141.739" font-family="Times,serif" font-size="14.00" fill="#000000">18540</text>
</g>
<!-- 30070&#45;&gt;6904 -->
<g id="edge46" class="edge">
<title>30070&#45;&gt;6904</title>
<path fill="none" stroke="#000000" d="M314.9973,-1095.0691C306.2029,-1102.0172 295.6209,-1110.3777 286.1078,-1117.8937"/>
<polygon fill="#000000" stroke="#000000" points="283.7716,-1115.2788 278.0948,-1124.2245 288.1111,-1120.7715 283.7716,-1115.2788"/>
</g>
<!-- 30070&#45;&gt;7016 -->
<g id="edge47" class="edge">
<title>30070&#45;&gt;7016</title>
<path fill="none" stroke="#000000" d="M316.4741,-1064.6161C312.2698,-1060.9202 307.7029,-1056.9055 303.2425,-1052.9845"/>
<polygon fill="#000000" stroke="#000000" points="305.2519,-1050.0908 295.4304,-1046.117 300.6302,-1055.3482 305.2519,-1050.0908"/>
</g>
<!-- 30070&#45;&gt;18540 -->
<g id="edge48" class="edge">
<title>30070&#45;&gt;18540</title>
<path fill="none" stroke="#000000" d="M336.2034,-1098.2574C336.8999,-1104.0683 337.6882,-1110.644 338.4502,-1117.001"/>
<polygon fill="#000000" stroke="#000000" points="335.0217,-1117.8072 339.6871,-1127.3195 341.9719,-1116.974 335.0217,-1117.8072"/>
</g>
</g>
</svg>
