<?xml version="1.0" encoding="UTF-8" standalone="no"?>
<!DOCTYPE svg PUBLIC "-//W3C//DTD SVG 1.1//EN"
 "http://www.w3.org/Graphics/SVG/1.1/DTD/svg11.dtd">
<!-- Generated by graphviz version 2.40.1 (20161225.0304)
 -->
<!-- Title: %3 Pages: 1 -->
<svg width="1350pt" height="1329pt"
 viewBox="0.00 0.00 1350.11 1328.91" xmlns="http://www.w3.org/2000/svg" xmlns:xlink="http://www.w3.org/1999/xlink">
<g id="graph0" class="graph" transform="scale(1 1) rotate(0) translate(4 1324.9125)">
<title>%3</title>
<polygon fill="#ffffff" stroke="transparent" points="-4,4 -4,-1324.9125 1346.1075,-1324.9125 1346.1075,4 -4,4"/>
<!-- 174 -->
<g id="node1" class="node">
<title>174</title>
<ellipse fill="none" stroke="#000000" cx="731.1622" cy="-760.4366" rx="27" ry="18"/>
<text text-anchor="middle" x="731.1622" y="-756.7366" font-family="Times,serif" font-size="14.00" fill="#000000">174</text>
</g>
<!-- 209 -->
<g id="node2" class="node">
<title>209</title>
<ellipse fill="none" stroke="#000000" cx="774.993" cy="-817.558" rx="27" ry="18"/>
<text text-anchor="middle" x="774.993" y="-813.858" font-family="Times,serif" font-size="14.00" fill="#000000">209</text>
</g>
<!-- 174&#45;&gt;209 -->
<g id="edge1" class="edge">
<title>174&#45;&gt;209</title>
<path fill="none" stroke="#000000" d="M743.6051,-776.6525C747.6182,-781.8824 752.156,-787.7963 756.5087,-793.4688"/>
<polygon fill="#000000" stroke="#000000" points="753.8063,-795.6964 762.6707,-801.4992 759.3598,-791.435 753.8063,-795.6964"/>
</g>
<!-- 1299 -->
<g id="node7" class="node">
<title>1299</title>
<ellipse fill="none" stroke="#000000" cx="854.2281" cy="-843.6307" rx="28.6953" ry="18"/>
<text text-anchor="middle" x="854.2281" y="-839.9307" font-family="Times,serif" font-size="14.00" fill="#000000">1299</text>
</g>
<!-- 209&#45;&gt;1299 -->
<g id="edge2" class="edge">
<title>209&#45;&gt;1299</title>
<path fill="none" stroke="#000000" d="M799.6292,-825.6646C805.711,-827.6659 812.3452,-829.8489 818.8271,-831.9818"/>
<polygon fill="#000000" stroke="#000000" points="818.1934,-835.4578 828.7864,-835.2589 820.3814,-828.8086 818.1934,-835.4578"/>
</g>
<!-- 2828 -->
<g id="node12" class="node">
<title>2828</title>
<ellipse fill="none" stroke="#000000" cx="552.6803" cy="-945.9924" rx="28.6953" ry="18"/>
<text text-anchor="middle" x="552.6803" y="-942.2924" font-family="Times,serif" font-size="14.00" fill="#000000">2828</text>
</g>
<!-- 209&#45;&gt;2828 -->
<g id="edge3" class="edge">
<title>209&#45;&gt;2828</title>
<path fill="none" stroke="#000000" d="M754.4768,-829.4106C715.0562,-852.1847 628.5752,-902.1464 582.6754,-928.6636"/>
<polygon fill="#000000" stroke="#000000" points="580.7034,-925.7608 573.7953,-933.7938 584.2051,-931.822 580.7034,-925.7608"/>
</g>
<!-- 701 -->
<g id="node3" class="node">
<title>701</title>
<ellipse fill="none" stroke="#000000" cx="1006.9632" cy="-996.3657" rx="27" ry="18"/>
<text text-anchor="middle" x="1006.9632" y="-992.6657" font-family="Times,serif" font-size="14.00" fill="#000000">701</text>
</g>
<!-- 703 -->
<g id="node4" class="node">
<title>703</title>
<ellipse fill="none" stroke="#000000" cx="1225.5896" cy="-756.787" rx="27" ry="18"/>
<text text-anchor="middle" x="1225.5896" y="-753.087" font-family="Times,serif" font-size="14.00" fill="#000000">703</text>
</g>
<!-- 701&#45;&gt;703 -->
<g id="edge4" class="edge">
<title>701&#45;&gt;703</title>
<path fill="none" stroke="#000000" d="M1021.3079,-980.6463C1058.9227,-939.4267 1160.5344,-828.0769 1204.662,-779.7203"/>
<polygon fill="#000000" stroke="#000000" points="1207.321,-781.9988 1211.4763,-772.2528 1202.1503,-777.2803 1207.321,-781.9988"/>
</g>
<!-- 1273 -->
<g id="node6" class="node">
<title>1273</title>
<ellipse fill="none" stroke="#000000" cx="1113.7627" cy="-983.5496" rx="28.6953" ry="18"/>
<text text-anchor="middle" x="1113.7627" y="-979.8496" font-family="Times,serif" font-size="14.00" fill="#000000">1273</text>
</g>
<!-- 701&#45;&gt;1273 -->
<g id="edge5" class="edge">
<title>701&#45;&gt;1273</title>
<path fill="none" stroke="#000000" d="M1033.6377,-993.1648C1046.2416,-991.6523 1061.5218,-989.8186 1075.3447,-988.1599"/>
<polygon fill="#000000" stroke="#000000" points="1076.0509,-991.6003 1085.5627,-986.9337 1075.2169,-984.6502 1076.0509,-991.6003"/>
</g>
<!-- 7018 -->
<g id="node28" class="node">
<title>7018</title>
<ellipse fill="none" stroke="#000000" cx="847.6486" cy="-1187.7462" rx="28.6953" ry="18"/>
<text text-anchor="middle" x="847.6486" y="-1184.0462" font-family="Times,serif" font-size="14.00" fill="#000000">7018</text>
</g>
<!-- 701&#45;&gt;7018 -->
<g id="edge6" class="edge">
<title>701&#45;&gt;7018</title>
<path fill="none" stroke="#000000" d="M993.6542,-1012.3536C965.657,-1045.9858 900.5415,-1124.2073 867.5576,-1163.83"/>
<polygon fill="#000000" stroke="#000000" points="864.7397,-1161.7444 861.0318,-1171.6693 870.1196,-1166.223 864.7397,-1161.7444"/>
</g>
<!-- 2516 -->
<g id="node9" class="node">
<title>2516</title>
<ellipse fill="none" stroke="#000000" cx="1313.51" cy="-683.0511" rx="28.6953" ry="18"/>
<text text-anchor="middle" x="1313.51" y="-679.3511" font-family="Times,serif" font-size="14.00" fill="#000000">2516</text>
</g>
<!-- 703&#45;&gt;2516 -->
<g id="edge7" class="edge">
<title>703&#45;&gt;2516</title>
<path fill="none" stroke="#000000" d="M1242.5416,-742.57C1255.5935,-731.6238 1273.8314,-716.3283 1288.5503,-703.984"/>
<polygon fill="#000000" stroke="#000000" points="1290.8971,-706.5838 1296.3101,-697.4761 1286.3989,-701.2203 1290.8971,-706.5838"/>
</g>
<!-- 9498 -->
<g id="node31" class="node">
<title>9498</title>
<ellipse fill="none" stroke="#000000" cx="1264.863" cy="-864.6043" rx="28.6953" ry="18"/>
<text text-anchor="middle" x="1264.863" y="-860.9043" font-family="Times,serif" font-size="14.00" fill="#000000">9498</text>
</g>
<!-- 703&#45;&gt;9498 -->
<g id="edge8" class="edge">
<title>703&#45;&gt;9498</title>
<path fill="none" stroke="#000000" d="M1232.0748,-774.5908C1238.2714,-791.6023 1247.7016,-817.4912 1254.8606,-837.1448"/>
<polygon fill="#000000" stroke="#000000" points="1251.6569,-838.5759 1258.3681,-846.774 1258.2341,-836.18 1251.6569,-838.5759"/>
</g>
<!-- 1239 -->
<g id="node5" class="node">
<title>1239</title>
<ellipse fill="none" stroke="#000000" cx="1037.9779" cy="-1160.2866" rx="28.6953" ry="18"/>
<text text-anchor="middle" x="1037.9779" y="-1156.5866" font-family="Times,serif" font-size="14.00" fill="#000000">1239</text>
</g>
<!-- 6461 -->
<g id="node24" class="node">
<title>6461</title>
<ellipse fill="none" stroke="#000000" cx="905.1398" cy="-894.5424" rx="28.6953" ry="18"/>
<text text-anchor="middle" x="905.1398" y="-890.8424" font-family="Times,serif" font-size="14.00" fill="#000000">6461</text>
</g>
<!-- 1299&#45;&gt;6461 -->
<g id="edge9" class="edge">
<title>1299&#45;&gt;6461</title>
<path fill="none" stroke="#000000" d="M869.5033,-858.9059C873.6314,-863.0339 878.187,-867.5896 882.6221,-872.0247"/>
<polygon fill="#000000" stroke="#000000" points="880.3294,-874.6818 889.8754,-879.278 885.2792,-869.732 880.3294,-874.6818"/>
</g>
<!-- 2497 -->
<g id="node8" class="node">
<title>2497</title>
<ellipse fill="none" stroke="#000000" cx="956.0515" cy="-945.4541" rx="28.6953" ry="18"/>
<text text-anchor="middle" x="956.0515" y="-941.7541" font-family="Times,serif" font-size="14.00" fill="#000000">2497</text>
</g>
<!-- 2497&#45;&gt;701 -->
<g id="edge10" class="edge">
<title>2497&#45;&gt;701</title>
<path fill="none" stroke="#000000" d="M971.3267,-960.7292C975.4547,-964.8573 980.0104,-969.4129 984.4455,-973.848"/>
<polygon fill="#000000" stroke="#000000" points="982.1528,-976.5051 991.6988,-981.1013 987.1026,-971.5554 982.1528,-976.5051"/>
</g>
<!-- 2686 -->
<g id="node10" class="node">
<title>2686</title>
<ellipse fill="none" stroke="#000000" cx="406.7973" cy="-1054.7075" rx="28.6953" ry="18"/>
<text text-anchor="middle" x="406.7973" y="-1051.0075" font-family="Times,serif" font-size="14.00" fill="#000000">2686</text>
</g>
<!-- 3741 -->
<g id="node20" class="node">
<title>3741</title>
<ellipse fill="none" stroke="#000000" cx="379.244" cy="-1121.2269" rx="28.6953" ry="18"/>
<text text-anchor="middle" x="379.244" y="-1117.5269" font-family="Times,serif" font-size="14.00" fill="#000000">3741</text>
</g>
<!-- 2686&#45;&gt;3741 -->
<g id="edge11" class="edge">
<title>2686&#45;&gt;3741</title>
<path fill="none" stroke="#000000" d="M399.558,-1072.1847C396.7642,-1078.9294 393.5035,-1086.8014 390.4227,-1094.2392"/>
<polygon fill="#000000" stroke="#000000" points="387.124,-1093.0572 386.5306,-1103.6355 393.5911,-1095.7361 387.124,-1093.0572"/>
</g>
<!-- 2687 -->
<g id="node11" class="node">
<title>2687</title>
<ellipse fill="none" stroke="#000000" cx="383.6697" cy="-963.1952" rx="28.6953" ry="18"/>
<text text-anchor="middle" x="383.6697" y="-959.4952" font-family="Times,serif" font-size="14.00" fill="#000000">2687</text>
</g>
<!-- 2687&#45;&gt;2686 -->
<g id="edge12" class="edge">
<title>2687&#45;&gt;2686</title>
<path fill="none" stroke="#000000" d="M388.239,-981.2751C391.5016,-994.185 395.9542,-1011.8033 399.6802,-1026.5464"/>
<polygon fill="#000000" stroke="#000000" points="396.3939,-1027.8276 402.2375,-1036.6652 403.1805,-1026.1124 396.3939,-1027.8276"/>
</g>
<!-- 9505 -->
<g id="node32" class="node">
<title>9505</title>
<ellipse fill="none" stroke="#000000" cx="292.8539" cy="-988.9223" rx="28.6953" ry="18"/>
<text text-anchor="middle" x="292.8539" y="-985.2223" font-family="Times,serif" font-size="14.00" fill="#000000">9505</text>
</g>
<!-- 2687&#45;&gt;9505 -->
<g id="edge13" class="edge">
<title>2687&#45;&gt;9505</title>
<path fill="none" stroke="#000000" d="M357.402,-970.6366C348.4597,-973.1698 338.3051,-976.0465 328.7406,-978.756"/>
<polygon fill="#000000" stroke="#000000" points="327.73,-975.4045 319.0626,-981.4977 329.638,-982.1395 327.73,-975.4045"/>
</g>
<!-- 2914 -->
<g id="node13" class="node">
<title>2914</title>
<ellipse fill="none" stroke="#000000" cx="555.8389" cy="-531.9508" rx="28.6953" ry="18"/>
<text text-anchor="middle" x="555.8389" y="-528.2508" font-family="Times,serif" font-size="14.00" fill="#000000">2914</text>
</g>
<!-- 6453 -->
<g id="node23" class="node">
<title>6453</title>
<ellipse fill="none" stroke="#000000" cx="599.6697" cy="-589.0722" rx="28.6953" ry="18"/>
<text text-anchor="middle" x="599.6697" y="-585.3722" font-family="Times,serif" font-size="14.00" fill="#000000">6453</text>
</g>
<!-- 2914&#45;&gt;6453 -->
<g id="edge14" class="edge">
<title>2914&#45;&gt;6453</title>
<path fill="none" stroke="#000000" d="M568.2818,-548.1667C572.1351,-553.1885 576.4722,-558.8407 580.6647,-564.3044"/>
<polygon fill="#000000" stroke="#000000" points="578.1791,-566.8145 587.0435,-572.6174 583.7326,-562.5532 578.1791,-566.8145"/>
</g>
<!-- 3257 -->
<g id="node14" class="node">
<title>3257</title>
<ellipse fill="none" stroke="#000000" cx="643.5005" cy="-646.1937" rx="28.6953" ry="18"/>
<text text-anchor="middle" x="643.5005" y="-642.4937" font-family="Times,serif" font-size="14.00" fill="#000000">3257</text>
</g>
<!-- 3491 -->
<g id="node17" class="node">
<title>3491</title>
<ellipse fill="none" stroke="#000000" cx="687.3313" cy="-703.3151" rx="28.6953" ry="18"/>
<text text-anchor="middle" x="687.3313" y="-699.6151" font-family="Times,serif" font-size="14.00" fill="#000000">3491</text>
</g>
<!-- 3257&#45;&gt;3491 -->
<g id="edge15" class="edge">
<title>3257&#45;&gt;3491</title>
<path fill="none" stroke="#000000" d="M655.9434,-662.4096C659.7968,-667.4314 664.1339,-673.0836 668.3264,-678.5473"/>
<polygon fill="#000000" stroke="#000000" points="665.8407,-681.0574 674.7051,-686.8603 671.3942,-676.7961 665.8407,-681.0574"/>
</g>
<!-- 3320 -->
<g id="node15" class="node">
<title>3320</title>
<ellipse fill="none" stroke="#000000" cx="875.2018" cy="-1254.2655" rx="28.6953" ry="18"/>
<text text-anchor="middle" x="875.2018" y="-1250.5655" font-family="Times,serif" font-size="14.00" fill="#000000">3320</text>
</g>
<!-- 3356 -->
<g id="node16" class="node">
<title>3356</title>
<ellipse fill="none" stroke="#000000" cx="562.0782" cy="-303.5361" rx="28.6953" ry="18"/>
<text text-anchor="middle" x="562.0782" y="-299.8361" font-family="Times,serif" font-size="14.00" fill="#000000">3356</text>
</g>
<!-- 3549 -->
<g id="node18" class="node">
<title>3549</title>
<ellipse fill="none" stroke="#000000" cx="468.1772" cy="-417.7079" rx="28.6953" ry="18"/>
<text text-anchor="middle" x="468.1772" y="-414.0079" font-family="Times,serif" font-size="14.00" fill="#000000">3549</text>
</g>
<!-- 3356&#45;&gt;3549 -->
<g id="edge16" class="edge">
<title>3356&#45;&gt;3549</title>
<path fill="none" stroke="#000000" d="M548.6244,-319.8942C532.796,-339.1395 506.3692,-371.2713 488.1483,-393.4256"/>
<polygon fill="#000000" stroke="#000000" points="485.255,-391.4336 481.606,-401.3802 490.6613,-395.8801 485.255,-391.4336"/>
</g>
<!-- 3491&#45;&gt;174 -->
<g id="edge17" class="edge">
<title>3491&#45;&gt;174</title>
<path fill="none" stroke="#000000" d="M699.7743,-719.531C703.7874,-724.761 708.3252,-730.6748 712.6779,-736.3473"/>
<polygon fill="#000000" stroke="#000000" points="709.9755,-738.5749 718.8399,-744.3778 715.5289,-734.3136 709.9755,-738.5749"/>
</g>
<!-- 6762 -->
<g id="node25" class="node">
<title>6762</title>
<ellipse fill="none" stroke="#000000" cx="512.0081" cy="-474.8294" rx="28.6953" ry="18"/>
<text text-anchor="middle" x="512.0081" y="-471.1294" font-family="Times,serif" font-size="14.00" fill="#000000">6762</text>
</g>
<!-- 3549&#45;&gt;6762 -->
<g id="edge18" class="edge">
<title>3549&#45;&gt;6762</title>
<path fill="none" stroke="#000000" d="M480.6201,-433.9238C484.4735,-438.9456 488.8106,-444.5978 493.0031,-450.0616"/>
<polygon fill="#000000" stroke="#000000" points="490.5174,-452.5717 499.3818,-458.3745 496.0709,-448.3103 490.5174,-452.5717"/>
</g>
<!-- 30070 -->
<g id="node40" class="node">
<title>30070</title>
<ellipse fill="none" stroke="#000000" cx="396.0229" cy="-792.719" rx="32.4942" ry="18"/>
<text text-anchor="middle" x="396.0229" y="-789.019" font-family="Times,serif" font-size="14.00" fill="#000000">30070</text>
</g>
<!-- 3549&#45;&gt;30070 -->
<g id="edge19" class="edge">
<title>3549&#45;&gt;30070</title>
<path fill="none" stroke="#000000" d="M464.6971,-435.7955C453.0524,-496.3168 415.3975,-692.0228 401.3617,-764.9714"/>
<polygon fill="#000000" stroke="#000000" points="397.9207,-764.3317 399.4682,-774.8129 404.7946,-765.6544 397.9207,-764.3317"/>
</g>
<!-- 3597 -->
<g id="node19" class="node">
<title>3597</title>
<ellipse fill="none" stroke="#000000" cx="28.5975" cy="-513.8892" rx="28.6953" ry="18"/>
<text text-anchor="middle" x="28.5975" y="-510.1892" font-family="Times,serif" font-size="14.00" fill="#000000">3597</text>
</g>
<!-- 37179 -->
<g id="node41" class="node">
<title>37179</title>
<ellipse fill="none" stroke="#000000" cx="351.6908" cy="-1187.7462" rx="32.4942" ry="18"/>
<text text-anchor="middle" x="351.6908" y="-1184.0462" font-family="Times,serif" font-size="14.00" fill="#000000">37179</text>
</g>
<!-- 3741&#45;&gt;37179 -->
<g id="edge20" class="edge">
<title>3741&#45;&gt;37179</title>
<path fill="none" stroke="#000000" d="M372.0048,-1138.704C369.211,-1145.4488 365.9503,-1153.3208 362.8695,-1160.7585"/>
<polygon fill="#000000" stroke="#000000" points="359.5707,-1159.5766 358.9774,-1170.1548 366.0379,-1162.2554 359.5707,-1159.5766"/>
</g>
<!-- 5511 -->
<g id="node21" class="node">
<title>5511</title>
<ellipse fill="none" stroke="#000000" cx="693.6486" cy="-1302.9125" rx="28.6953" ry="18"/>
<text text-anchor="middle" x="693.6486" y="-1299.2125" font-family="Times,serif" font-size="14.00" fill="#000000">5511</text>
</g>
<!-- 5692 -->
<g id="node22" class="node">
<title>5692</title>
<ellipse fill="none" stroke="#000000" cx="599.6697" cy="-85.0722" rx="28.6953" ry="18"/>
<text text-anchor="middle" x="599.6697" y="-81.3722" font-family="Times,serif" font-size="14.00" fill="#000000">5692</text>
</g>
<!-- 5692&#45;&gt;3597 -->
<g id="edge21" class="edge">
<title>5692&#45;&gt;3597</title>
<path fill="none" stroke="#000000" d="M580.9938,-99.0959C497.0256,-162.1475 154.257,-419.5317 55.4012,-493.7623"/>
<polygon fill="#000000" stroke="#000000" points="53.0258,-491.169 47.1309,-499.9724 57.2291,-496.7666 53.0258,-491.169"/>
</g>
<!-- 10834 -->
<g id="node33" class="node">
<title>10834</title>
<ellipse fill="none" stroke="#000000" cx="543.2824" cy="-160.7681" rx="32.4942" ry="18"/>
<text text-anchor="middle" x="543.2824" y="-157.0681" font-family="Times,serif" font-size="14.00" fill="#000000">10834</text>
</g>
<!-- 5692&#45;&gt;10834 -->
<g id="edge22" class="edge">
<title>5692&#45;&gt;10834</title>
<path fill="none" stroke="#000000" d="M587.4345,-101.4971C579.9492,-111.5455 570.2263,-124.5979 561.8105,-135.8954"/>
<polygon fill="#000000" stroke="#000000" points="558.8555,-134.0034 555.6884,-144.1139 564.4692,-138.1852 558.8555,-134.0034"/>
</g>
<!-- 11008 -->
<g id="node34" class="node">
<title>11008</title>
<ellipse fill="none" stroke="#000000" cx="67.5151" cy="-368.6466" rx="32.4942" ry="18"/>
<text text-anchor="middle" x="67.5151" y="-364.9466" font-family="Times,serif" font-size="14.00" fill="#000000">11008</text>
</g>
<!-- 5692&#45;&gt;11008 -->
<g id="edge23" class="edge">
<title>5692&#45;&gt;11008</title>
<path fill="none" stroke="#000000" d="M577.8165,-96.7174C494.8289,-140.9398 198.9146,-298.6264 99.9895,-351.3416"/>
<polygon fill="#000000" stroke="#000000" points="98.224,-348.3164 91.0448,-356.1081 101.516,-354.4941 98.224,-348.3164"/>
</g>
<!-- 27865 -->
<g id="node38" class="node">
<title>27865</title>
<ellipse fill="none" stroke="#000000" cx="142.6982" cy="-238.4257" rx="32.4942" ry="18"/>
<text text-anchor="middle" x="142.6982" y="-234.7257" font-family="Times,serif" font-size="14.00" fill="#000000">27865</text>
</g>
<!-- 5692&#45;&gt;27865 -->
<g id="edge24" class="edge">
<title>5692&#45;&gt;27865</title>
<path fill="none" stroke="#000000" d="M574.1217,-93.6458C497.6686,-119.3024 270.4052,-195.5689 180.2021,-225.8398"/>
<polygon fill="#000000" stroke="#000000" points="179.0176,-222.5455 170.6507,-229.0452 181.2447,-229.1817 179.0176,-222.5455"/>
</g>
<!-- 28065 -->
<g id="node39" class="node">
<title>28065</title>
<ellipse fill="none" stroke="#000000" cx="249.0231" cy="-132.1007" rx="32.4942" ry="18"/>
<text text-anchor="middle" x="249.0231" y="-128.4007" font-family="Times,serif" font-size="14.00" fill="#000000">28065</text>
</g>
<!-- 5692&#45;&gt;28065 -->
<g id="edge25" class="edge">
<title>5692&#45;&gt;28065</title>
<path fill="none" stroke="#000000" d="M571.5676,-88.8413C510.0738,-97.0888 363.3039,-116.7735 290.8906,-126.4855"/>
<polygon fill="#000000" stroke="#000000" points="290.2111,-123.0452 280.7652,-127.8435 291.1417,-129.9831 290.2111,-123.0452"/>
</g>
<!-- 52317 -->
<g id="node42" class="node">
<title>52317</title>
<ellipse fill="none" stroke="#000000" cx="379.244" cy="-56.9176" rx="32.4942" ry="18"/>
<text text-anchor="middle" x="379.244" y="-53.2176" font-family="Times,serif" font-size="14.00" fill="#000000">52317</text>
</g>
<!-- 5692&#45;&gt;52317 -->
<g id="edge26" class="edge">
<title>5692&#45;&gt;52317</title>
<path fill="none" stroke="#000000" d="M571.3042,-81.4492C533.1973,-76.5818 465.184,-67.8946 421.1629,-62.2719"/>
<polygon fill="#000000" stroke="#000000" points="421.4288,-58.7775 411.0659,-60.9822 420.5419,-65.7211 421.4288,-58.7775"/>
</g>
<!-- 52375 -->
<g id="node43" class="node">
<title>52375</title>
<ellipse fill="none" stroke="#000000" cx="524.4866" cy="-18" rx="32.4942" ry="18"/>
<text text-anchor="middle" x="524.4866" y="-14.3" font-family="Times,serif" font-size="14.00" fill="#000000">52375</text>
</g>
<!-- 5692&#45;&gt;52375 -->
<g id="edge27" class="edge">
<title>5692&#45;&gt;52375</title>
<path fill="none" stroke="#000000" d="M582.9841,-70.1867C573.0977,-61.3668 560.3825,-50.0234 549.3335,-40.1663"/>
<polygon fill="#000000" stroke="#000000" points="551.4389,-37.3543 541.6468,-33.3089 546.7789,-42.5778 551.4389,-37.3543"/>
</g>
<!-- 52376 -->
<g id="node44" class="node">
<title>52376</title>
<ellipse fill="none" stroke="#000000" cx="674.8528" cy="-18" rx="32.4942" ry="18"/>
<text text-anchor="middle" x="674.8528" y="-14.3" font-family="Times,serif" font-size="14.00" fill="#000000">52376</text>
</g>
<!-- 5692&#45;&gt;52376 -->
<g id="edge28" class="edge">
<title>5692&#45;&gt;52376</title>
<path fill="none" stroke="#000000" d="M616.3553,-70.1867C626.2417,-61.3668 638.9569,-50.0234 650.0059,-40.1663"/>
<polygon fill="#000000" stroke="#000000" points="652.5605,-42.5778 657.6926,-33.3089 647.9005,-37.3543 652.5605,-42.5778"/>
</g>
<!-- 52380 -->
<g id="node45" class="node">
<title>52380</title>
<ellipse fill="none" stroke="#000000" cx="820.0954" cy="-56.9176" rx="32.4942" ry="18"/>
<text text-anchor="middle" x="820.0954" y="-53.2176" font-family="Times,serif" font-size="14.00" fill="#000000">52380</text>
</g>
<!-- 5692&#45;&gt;52380 -->
<g id="edge29" class="edge">
<title>5692&#45;&gt;52380</title>
<path fill="none" stroke="#000000" d="M628.0352,-81.4492C666.1421,-76.5818 734.1554,-67.8946 778.1765,-62.2719"/>
<polygon fill="#000000" stroke="#000000" points="778.7975,-65.7211 788.2735,-60.9822 777.9106,-58.7775 778.7975,-65.7211"/>
</g>
<!-- 52413 -->
<g id="node46" class="node">
<title>52413</title>
<ellipse fill="none" stroke="#000000" cx="950.3163" cy="-132.1007" rx="32.4942" ry="18"/>
<text text-anchor="middle" x="950.3163" y="-128.4007" font-family="Times,serif" font-size="14.00" fill="#000000">52413</text>
</g>
<!-- 5692&#45;&gt;52413 -->
<g id="edge30" class="edge">
<title>5692&#45;&gt;52413</title>
<path fill="none" stroke="#000000" d="M627.7719,-88.8413C689.2656,-97.0888 836.0355,-116.7735 908.4488,-126.4855"/>
<polygon fill="#000000" stroke="#000000" points="908.1977,-129.9831 918.5742,-127.8435 909.1283,-123.0452 908.1977,-129.9831"/>
</g>
<!-- 52431 -->
<g id="node47" class="node">
<title>52431</title>
<ellipse fill="none" stroke="#000000" cx="1056.6412" cy="-238.4257" rx="32.4942" ry="18"/>
<text text-anchor="middle" x="1056.6412" y="-234.7257" font-family="Times,serif" font-size="14.00" fill="#000000">52431</text>
</g>
<!-- 5692&#45;&gt;52431 -->
<g id="edge31" class="edge">
<title>5692&#45;&gt;52431</title>
<path fill="none" stroke="#000000" d="M625.2177,-93.6458C701.6708,-119.3024 928.9342,-195.5689 1019.1373,-225.8398"/>
<polygon fill="#000000" stroke="#000000" points="1018.0947,-229.1817 1028.6887,-229.0452 1020.3218,-222.5455 1018.0947,-229.1817"/>
</g>
<!-- 262230 -->
<g id="node48" class="node">
<title>262230</title>
<ellipse fill="none" stroke="#000000" cx="1131.8243" cy="-368.6466" rx="37.0935" ry="18"/>
<text text-anchor="middle" x="1131.8243" y="-364.9466" font-family="Times,serif" font-size="14.00" fill="#000000">262230</text>
</g>
<!-- 5692&#45;&gt;262230 -->
<g id="edge32" class="edge">
<title>5692&#45;&gt;262230</title>
<path fill="none" stroke="#000000" d="M621.5229,-96.7174C704.0368,-140.6874 997.0537,-296.8301 1097.6368,-350.4288"/>
<polygon fill="#000000" stroke="#000000" points="1096.2852,-353.6744 1106.7564,-355.2884 1099.5772,-347.4968 1096.2852,-353.6744"/>
</g>
<!-- 264608 -->
<g id="node49" class="node">
<title>264608</title>
<ellipse fill="none" stroke="#000000" cx="1170.7419" cy="-513.8892" rx="37.0935" ry="18"/>
<text text-anchor="middle" x="1170.7419" y="-510.1892" font-family="Times,serif" font-size="14.00" fill="#000000">264608</text>
</g>
<!-- 5692&#45;&gt;264608 -->
<g id="edge33" class="edge">
<title>5692&#45;&gt;264608</title>
<path fill="none" stroke="#000000" d="M618.3456,-99.0959C701.8379,-161.7901 1041.2056,-416.6206 1142.234,-492.4826"/>
<polygon fill="#000000" stroke="#000000" points="1140.3498,-495.4447 1150.448,-498.6505 1144.5531,-489.8471 1140.3498,-495.4447"/>
</g>
<!-- 6453&#45;&gt;3257 -->
<g id="edge34" class="edge">
<title>6453&#45;&gt;3257</title>
<path fill="none" stroke="#000000" d="M612.1126,-605.2882C615.9659,-610.3099 620.3031,-615.9622 624.4955,-621.4259"/>
<polygon fill="#000000" stroke="#000000" points="622.0099,-623.936 630.8743,-629.7389 627.5634,-619.6746 622.0099,-623.936"/>
</g>
<!-- 6461&#45;&gt;2497 -->
<g id="edge35" class="edge">
<title>6461&#45;&gt;2497</title>
<path fill="none" stroke="#000000" d="M920.415,-909.8176C924.543,-913.9456 929.0987,-918.5013 933.5338,-922.9363"/>
<polygon fill="#000000" stroke="#000000" points="931.2411,-925.5934 940.7871,-930.1897 936.1909,-920.6437 931.2411,-925.5934"/>
</g>
<!-- 6762&#45;&gt;2914 -->
<g id="edge36" class="edge">
<title>6762&#45;&gt;2914</title>
<path fill="none" stroke="#000000" d="M524.451,-491.0453C528.3043,-496.067 532.6414,-501.7193 536.8339,-507.183"/>
<polygon fill="#000000" stroke="#000000" points="534.3483,-509.6931 543.2126,-515.496 539.9017,-505.4317 534.3483,-509.6931"/>
</g>
<!-- 6904 -->
<g id="node26" class="node">
<title>6904</title>
<ellipse fill="none" stroke="#000000" cx="419.6697" cy="-900.8414" rx="28.6953" ry="18"/>
<text text-anchor="middle" x="419.6697" y="-897.1414" font-family="Times,serif" font-size="14.00" fill="#000000">6904</text>
</g>
<!-- 6904&#45;&gt;2687 -->
<g id="edge37" class="edge">
<title>6904&#45;&gt;2687</title>
<path fill="none" stroke="#000000" d="M409.8325,-917.8798C406.3403,-923.9286 402.3279,-930.8782 398.5112,-937.489"/>
<polygon fill="#000000" stroke="#000000" points="395.4639,-935.7671 393.495,-946.1774 401.5261,-939.2671 395.4639,-935.7671"/>
</g>
<!-- 7016 -->
<g id="node27" class="node">
<title>7016</title>
<ellipse fill="none" stroke="#000000" cx="314.0625" cy="-808.2264" rx="28.6953" ry="18"/>
<text text-anchor="middle" x="314.0625" y="-804.5264" font-family="Times,serif" font-size="14.00" fill="#000000">7016</text>
</g>
<!-- 7922 -->
<g id="node30" class="node">
<title>7922</title>
<ellipse fill="none" stroke="#000000" cx="256.9411" cy="-852.0572" rx="28.6953" ry="18"/>
<text text-anchor="middle" x="256.9411" y="-848.3572" font-family="Times,serif" font-size="14.00" fill="#000000">7922</text>
</g>
<!-- 7016&#45;&gt;7922 -->
<g id="edge38" class="edge">
<title>7016&#45;&gt;7922</title>
<path fill="none" stroke="#000000" d="M295.6745,-822.336C291.8016,-825.3078 287.6416,-828.4998 283.536,-831.6502"/>
<polygon fill="#000000" stroke="#000000" points="281.0975,-829.1096 275.2946,-837.974 285.3588,-834.6631 281.0975,-829.1096"/>
</g>
<!-- 7018&#45;&gt;1239 -->
<g id="edge39" class="edge">
<title>7018&#45;&gt;1239</title>
<path fill="none" stroke="#000000" d="M875.7323,-1183.6944C908.5783,-1178.9556 963.1166,-1171.0872 999.7892,-1165.7963"/>
<polygon fill="#000000" stroke="#000000" points="1000.6913,-1169.2025 1010.089,-1164.3103 999.6917,-1162.2742 1000.6913,-1169.2025"/>
</g>
<!-- 7018&#45;&gt;3320 -->
<g id="edge40" class="edge">
<title>7018&#45;&gt;3320</title>
<path fill="none" stroke="#000000" d="M854.8878,-1205.2233C857.6816,-1211.9681 860.9423,-1219.8401 864.0231,-1227.2779"/>
<polygon fill="#000000" stroke="#000000" points="860.8547,-1228.7747 867.9152,-1236.6741 867.3219,-1226.0959 860.8547,-1228.7747"/>
</g>
<!-- 7018&#45;&gt;5511 -->
<g id="edge41" class="edge">
<title>7018&#45;&gt;5511</title>
<path fill="none" stroke="#000000" d="M829.0726,-1201.6379C802.0168,-1221.8712 751.615,-1259.5633 720.515,-1282.8209"/>
<polygon fill="#000000" stroke="#000000" points="718.2027,-1280.1797 712.2904,-1288.9715 722.3949,-1285.7855 718.2027,-1280.1797"/>
</g>
<!-- 7473 -->
<g id="node29" class="node">
<title>7473</title>
<ellipse fill="none" stroke="#000000" cx="249.0231" cy="-1046.0438" rx="28.6953" ry="18"/>
<text text-anchor="middle" x="249.0231" y="-1042.3438" font-family="Times,serif" font-size="14.00" fill="#000000">7473</text>
</g>
<!-- 9505&#45;&gt;7473 -->
<g id="edge42" class="edge">
<title>9505&#45;&gt;7473</title>
<path fill="none" stroke="#000000" d="M280.411,-1005.1382C276.5577,-1010.16 272.2206,-1015.8122 268.0281,-1021.276"/>
<polygon fill="#000000" stroke="#000000" points="264.9603,-1019.5247 261.6494,-1029.5889 270.5137,-1023.7861 264.9603,-1019.5247"/>
</g>
<!-- 12956 -->
<g id="node35" class="node">
<title>12956</title>
<ellipse fill="none" stroke="#000000" cx="552.6803" cy="-232.1521" rx="32.4942" ry="18"/>
<text text-anchor="middle" x="552.6803" y="-228.4521" font-family="Times,serif" font-size="14.00" fill="#000000">12956</text>
</g>
<!-- 10834&#45;&gt;12956 -->
<g id="edge43" class="edge">
<title>10834&#45;&gt;12956</title>
<path fill="none" stroke="#000000" d="M545.6539,-178.7813C546.659,-186.4158 547.8542,-195.4941 548.9712,-203.9786"/>
<polygon fill="#000000" stroke="#000000" points="545.5015,-204.4388 550.2769,-213.8964 552.4416,-203.525 545.5015,-204.4388"/>
</g>
<!-- 22927 -->
<g id="node37" class="node">
<title>22927</title>
<ellipse fill="none" stroke="#000000" cx="99.9815" cy="-654.8574" rx="32.4942" ry="18"/>
<text text-anchor="middle" x="99.9815" y="-651.1574" font-family="Times,serif" font-size="14.00" fill="#000000">22927</text>
</g>
<!-- 10834&#45;&gt;22927 -->
<g id="edge44" class="edge">
<title>10834&#45;&gt;22927</title>
<path fill="none" stroke="#000000" d="M528.785,-176.9264C463.7417,-249.4216 198.6512,-544.8833 121.2779,-631.1211"/>
<polygon fill="#000000" stroke="#000000" points="118.6651,-628.7923 114.5921,-638.5729 123.8754,-633.467 118.6651,-628.7923"/>
</g>
<!-- 12956&#45;&gt;3356 -->
<g id="edge45" class="edge">
<title>12956&#45;&gt;3356</title>
<path fill="none" stroke="#000000" d="M555.0518,-250.1653C556.0569,-257.7998 557.252,-266.8781 558.369,-275.3626"/>
<polygon fill="#000000" stroke="#000000" points="554.8993,-275.8228 559.6747,-285.2804 561.8395,-274.9091 554.8993,-275.8228"/>
</g>
<!-- 18540 -->
<g id="node36" class="node">
<title>18540</title>
<ellipse fill="none" stroke="#000000" cx="267.0731" cy="-726.8383" rx="32.4942" ry="18"/>
<text text-anchor="middle" x="267.0731" y="-723.1383" font-family="Times,serif" font-size="14.00" fill="#000000">18540</text>
</g>
<!-- 30070&#45;&gt;6904 -->
<g id="edge46" class="edge">
<title>30070&#45;&gt;6904</title>
<path fill="none" stroke="#000000" d="M400.0343,-811.0605C403.7425,-828.016 409.3065,-853.4567 413.5658,-872.9321"/>
<polygon fill="#000000" stroke="#000000" points="410.1618,-873.7495 415.7176,-882.7708 417.0002,-872.2539 410.1618,-873.7495"/>
</g>
<!-- 30070&#45;&gt;7016 -->
<g id="edge47" class="edge">
<title>30070&#45;&gt;7016</title>
<path fill="none" stroke="#000000" d="M365.0372,-798.5817C360.7024,-799.4018 356.2087,-800.2521 351.7666,-801.0925"/>
<polygon fill="#000000" stroke="#000000" points="350.7696,-797.719 341.5946,-803.0171 352.071,-804.597 350.7696,-797.719"/>
</g>
<!-- 30070&#45;&gt;18540 -->
<g id="edge48" class="edge">
<title>30070&#45;&gt;18540</title>
<path fill="none" stroke="#000000" d="M372.0707,-780.4817C351.9319,-770.1928 322.9228,-755.372 300.4974,-743.9148"/>
<polygon fill="#000000" stroke="#000000" points="301.8322,-740.6665 291.3347,-739.2336 298.6474,-746.9 301.8322,-740.6665"/>
</g>
</g>
</svg>
