<?xml version="1.0" encoding="UTF-8" standalone="no"?>
<!DOCTYPE svg PUBLIC "-//W3C//DTD SVG 1.1//EN"
 "http://www.w3.org/Graphics/SVG/1.1/DTD/svg11.dtd">
<!-- Generated by graphviz version 2.40.1 (20161225.0304)
 -->
<!-- Title: %3 Pages: 1 -->
<svg width="1718pt" height="2482pt"
 viewBox="0.00 0.00 1718.00 2482.00" xmlns="http://www.w3.org/2000/svg" xmlns:xlink="http://www.w3.org/1999/xlink">
<g id="graph0" class="graph" transform="scale(1 1) rotate(0) translate(4 2478)">
<title>%3</title>
<polygon fill="#ffffff" stroke="transparent" points="-4,4 -4,-2478 1714,-2478 1714,4 -4,4"/>
<!-- 174 -->
<g id="node1" class="node">
<title>174</title>
<ellipse fill="none" stroke="#000000" cx="1002.3935" cy="-807.5325" rx="27" ry="18"/>
<text text-anchor="middle" x="1002.3935" y="-803.8325" font-family="Times,serif" font-size="14.00" fill="#000000">174</text>
</g>
<!-- 209 -->
<g id="node2" class="node">
<title>209</title>
<ellipse fill="none" stroke="#000000" cx="871.9319" cy="-667.3582" rx="27" ry="18"/>
<text text-anchor="middle" x="871.9319" y="-663.6582" font-family="Times,serif" font-size="14.00" fill="#000000">209</text>
</g>
<!-- 174&#45;&gt;209 -->
<g id="edge1" class="edge">
<title>174&#45;&gt;209</title>
<path fill="none" stroke="#000000" d="M987.9334,-791.9958C965.0111,-767.367 920.1989,-719.2187 893.4799,-690.5105"/>
<polygon fill="#000000" stroke="#000000" points="895.8318,-687.9001 886.4568,-682.9645 890.7077,-692.6692 895.8318,-687.9001"/>
</g>
<!-- 1299 -->
<g id="node7" class="node">
<title>1299</title>
<ellipse fill="none" stroke="#000000" cx="745.7179" cy="-578.0134" rx="28.6953" ry="18"/>
<text text-anchor="middle" x="745.7179" y="-574.3134" font-family="Times,serif" font-size="14.00" fill="#000000">1299</text>
</g>
<!-- 209&#45;&gt;1299 -->
<g id="edge2" class="edge">
<title>209&#45;&gt;1299</title>
<path fill="none" stroke="#000000" d="M853.3086,-654.1751C832.1779,-639.217 797.5088,-614.6753 773.2524,-597.5047"/>
<polygon fill="#000000" stroke="#000000" points="775.0156,-594.4646 764.8314,-591.5435 770.9711,-600.178 775.0156,-594.4646"/>
</g>
<!-- 2828 -->
<g id="node12" class="node">
<title>2828</title>
<ellipse fill="none" stroke="#000000" cx="911.0317" cy="-554.3105" rx="28.6953" ry="18"/>
<text text-anchor="middle" x="911.0317" y="-550.6105" font-family="Times,serif" font-size="14.00" fill="#000000">2828</text>
</g>
<!-- 209&#45;&gt;2828 -->
<g id="edge3" class="edge">
<title>209&#45;&gt;2828</title>
<path fill="none" stroke="#000000" d="M878.0412,-649.6945C884.3169,-631.55 894.1739,-603.0507 901.4809,-581.9244"/>
<polygon fill="#000000" stroke="#000000" points="904.8752,-582.818 904.8362,-572.2232 898.2597,-580.5299 904.8752,-582.818"/>
</g>
<!-- 701 -->
<g id="node3" class="node">
<title>701</title>
<ellipse fill="none" stroke="#000000" cx="327.2435" cy="-287.7318" rx="27" ry="18"/>
<text text-anchor="middle" x="327.2435" y="-284.0318" font-family="Times,serif" font-size="14.00" fill="#000000">701</text>
</g>
<!-- 703 -->
<g id="node4" class="node">
<title>703</title>
<ellipse fill="none" stroke="#000000" cx="252.9786" cy="-143.5641" rx="27" ry="18"/>
<text text-anchor="middle" x="252.9786" y="-139.8641" font-family="Times,serif" font-size="14.00" fill="#000000">703</text>
</g>
<!-- 701&#45;&gt;703 -->
<g id="edge4" class="edge">
<title>701&#45;&gt;703</title>
<path fill="none" stroke="#000000" d="M318.4327,-270.6277C305.5914,-245.6993 281.6243,-199.1729 266.5284,-169.8679"/>
<polygon fill="#000000" stroke="#000000" points="269.4688,-167.9329 261.7779,-160.6459 263.2459,-171.1386 269.4688,-167.9329"/>
</g>
<!-- 1273 -->
<g id="node6" class="node">
<title>1273</title>
<ellipse fill="none" stroke="#000000" cx="375.1288" cy="-177.7902" rx="28.6953" ry="18"/>
<text text-anchor="middle" x="375.1288" y="-174.0902" font-family="Times,serif" font-size="14.00" fill="#000000">1273</text>
</g>
<!-- 701&#45;&gt;1273 -->
<g id="edge5" class="edge">
<title>701&#45;&gt;1273</title>
<path fill="none" stroke="#000000" d="M334.9371,-270.0677C342.6164,-252.4366 354.5183,-225.1106 363.38,-204.7646"/>
<polygon fill="#000000" stroke="#000000" points="366.6698,-205.9762 367.4543,-195.4104 360.2522,-203.1809 366.6698,-205.9762"/>
</g>
<!-- 7018 -->
<g id="node28" class="node">
<title>7018</title>
<ellipse fill="none" stroke="#000000" cx="152.9084" cy="-317.7588" rx="28.6953" ry="18"/>
<text text-anchor="middle" x="152.9084" y="-314.0588" font-family="Times,serif" font-size="14.00" fill="#000000">7018</text>
</g>
<!-- 701&#45;&gt;7018 -->
<g id="edge6" class="edge">
<title>701&#45;&gt;7018</title>
<path fill="none" stroke="#000000" d="M300.7657,-292.2922C271.4564,-297.3404 223.9736,-305.5187 190.7467,-311.2416"/>
<polygon fill="#000000" stroke="#000000" points="189.7615,-307.8597 180.5007,-313.0063 190.9497,-314.7581 189.7615,-307.8597"/>
</g>
<!-- 2516 -->
<g id="node9" class="node">
<title>2516</title>
<ellipse fill="none" stroke="#000000" cx="161.7794" cy="-57.6283" rx="28.6953" ry="18"/>
<text text-anchor="middle" x="161.7794" y="-53.9283" font-family="Times,serif" font-size="14.00" fill="#000000">2516</text>
</g>
<!-- 703&#45;&gt;2516 -->
<g id="edge7" class="edge">
<title>703&#45;&gt;2516</title>
<path fill="none" stroke="#000000" d="M237.0929,-128.5952C222.7955,-115.123 201.5953,-95.1463 185.3272,-79.8171"/>
<polygon fill="#000000" stroke="#000000" points="187.4673,-77.0247 177.789,-72.714 182.6667,-82.1193 187.4673,-77.0247"/>
</g>
<!-- 9498 -->
<g id="node31" class="node">
<title>9498</title>
<ellipse fill="none" stroke="#000000" cx="247.4534" cy="-18.2818" rx="28.6953" ry="18"/>
<text text-anchor="middle" x="247.4534" y="-14.5818" font-family="Times,serif" font-size="14.00" fill="#000000">9498</text>
</g>
<!-- 703&#45;&gt;9498 -->
<g id="edge8" class="edge">
<title>703&#45;&gt;9498</title>
<path fill="none" stroke="#000000" d="M252.1752,-125.347C251.2668,-104.749 249.7761,-70.9476 248.7127,-46.8354"/>
<polygon fill="#000000" stroke="#000000" points="252.1951,-46.3569 248.2578,-36.5209 245.2019,-46.6654 252.1951,-46.3569"/>
</g>
<!-- 1239 -->
<g id="node5" class="node">
<title>1239</title>
<ellipse fill="none" stroke="#000000" cx="28.2497" cy="-330.0153" rx="28.6953" ry="18"/>
<text text-anchor="middle" x="28.2497" y="-326.3153" font-family="Times,serif" font-size="14.00" fill="#000000">1239</text>
</g>
<!-- 6461 -->
<g id="node24" class="node">
<title>6461</title>
<ellipse fill="none" stroke="#000000" cx="595.4222" cy="-469.2107" rx="28.6953" ry="18"/>
<text text-anchor="middle" x="595.4222" y="-465.5107" font-family="Times,serif" font-size="14.00" fill="#000000">6461</text>
</g>
<!-- 1299&#45;&gt;6461 -->
<g id="edge9" class="edge">
<title>1299&#45;&gt;6461</title>
<path fill="none" stroke="#000000" d="M726.6828,-564.2335C700.3702,-545.1851 652.7332,-510.6995 622.6582,-488.9275"/>
<polygon fill="#000000" stroke="#000000" points="624.4553,-485.9076 614.3027,-482.8787 620.3505,-491.5778 624.4553,-485.9076"/>
</g>
<!-- 2497 -->
<g id="node8" class="node">
<title>2497</title>
<ellipse fill="none" stroke="#000000" cx="455.4595" cy="-375.3678" rx="28.6953" ry="18"/>
<text text-anchor="middle" x="455.4595" y="-371.6678" font-family="Times,serif" font-size="14.00" fill="#000000">2497</text>
</g>
<!-- 2497&#45;&gt;701 -->
<g id="edge10" class="edge">
<title>2497&#45;&gt;701</title>
<path fill="none" stroke="#000000" d="M435.9863,-362.0578C414.3985,-347.3024 379.4052,-323.3844 354.9631,-306.6782"/>
<polygon fill="#000000" stroke="#000000" points="356.7107,-303.6333 346.4799,-300.8799 352.7607,-309.4123 356.7107,-303.6333"/>
</g>
<!-- 2686 -->
<g id="node10" class="node">
<title>2686</title>
<ellipse fill="none" stroke="#000000" cx="1482.6968" cy="-932.0282" rx="28.6953" ry="18"/>
<text text-anchor="middle" x="1482.6968" y="-928.3282" font-family="Times,serif" font-size="14.00" fill="#000000">2686</text>
</g>
<!-- 3741 -->
<g id="node20" class="node">
<title>3741</title>
<ellipse fill="none" stroke="#000000" cx="1547.0571" cy="-809.6933" rx="28.6953" ry="18"/>
<text text-anchor="middle" x="1547.0571" y="-805.9933" font-family="Times,serif" font-size="14.00" fill="#000000">3741</text>
</g>
<!-- 2686&#45;&gt;3741 -->
<g id="edge11" class="edge">
<title>2686&#45;&gt;3741</title>
<path fill="none" stroke="#000000" d="M1491.7816,-914.76C1502.6104,-894.1769 1520.8136,-859.5766 1533.3543,-835.7393"/>
<polygon fill="#000000" stroke="#000000" points="1536.4601,-837.3531 1538.0186,-826.8736 1530.2651,-834.0939 1536.4601,-837.3531"/>
</g>
<!-- 2687 -->
<g id="node11" class="node">
<title>2687</title>
<ellipse fill="none" stroke="#000000" cx="1408.4564" cy="-1093.7457" rx="28.6953" ry="18"/>
<text text-anchor="middle" x="1408.4564" y="-1090.0457" font-family="Times,serif" font-size="14.00" fill="#000000">2687</text>
</g>
<!-- 2687&#45;&gt;2686 -->
<g id="edge12" class="edge">
<title>2687&#45;&gt;2686</title>
<path fill="none" stroke="#000000" d="M1416.4014,-1076.4391C1429.3387,-1048.2578 1455.0488,-992.2538 1470.372,-958.8753"/>
<polygon fill="#000000" stroke="#000000" points="1473.5925,-960.249 1474.5839,-949.7006 1467.2309,-957.3285 1473.5925,-960.249"/>
</g>
<!-- 9505 -->
<g id="node32" class="node">
<title>9505</title>
<ellipse fill="none" stroke="#000000" cx="1562.1038" cy="-1032.7836" rx="28.6953" ry="18"/>
<text text-anchor="middle" x="1562.1038" y="-1029.0836" font-family="Times,serif" font-size="14.00" fill="#000000">9505</text>
</g>
<!-- 2687&#45;&gt;9505 -->
<g id="edge13" class="edge">
<title>2687&#45;&gt;9505</title>
<path fill="none" stroke="#000000" d="M1432.8023,-1084.0861C1458.538,-1073.875 1499.3244,-1057.6923 1528.1993,-1046.2358"/>
<polygon fill="#000000" stroke="#000000" points="1529.8675,-1049.3394 1537.8718,-1042.3981 1527.2859,-1042.8328 1529.8675,-1049.3394"/>
</g>
<!-- 2914 -->
<g id="node13" class="node">
<title>2914</title>
<ellipse fill="none" stroke="#000000" cx="1359.8165" cy="-1373.9429" rx="28.6953" ry="18"/>
<text text-anchor="middle" x="1359.8165" y="-1370.2429" font-family="Times,serif" font-size="14.00" fill="#000000">2914</text>
</g>
<!-- 6453 -->
<g id="node23" class="node">
<title>6453</title>
<ellipse fill="none" stroke="#000000" cx="1351.2844" cy="-1201.4937" rx="28.6953" ry="18"/>
<text text-anchor="middle" x="1351.2844" y="-1197.7937" font-family="Times,serif" font-size="14.00" fill="#000000">6453</text>
</g>
<!-- 2914&#45;&gt;6453 -->
<g id="edge14" class="edge">
<title>2914&#45;&gt;6453</title>
<path fill="none" stroke="#000000" d="M1358.9195,-1355.8138C1357.4345,-1325.7985 1354.454,-1265.5578 1352.6881,-1229.8666"/>
<polygon fill="#000000" stroke="#000000" points="1356.1721,-1229.4536 1352.1821,-1219.6388 1349.1806,-1229.7995 1356.1721,-1229.4536"/>
</g>
<!-- 3257 -->
<g id="node14" class="node">
<title>3257</title>
<ellipse fill="none" stroke="#000000" cx="1236.7084" cy="-1073.7375" rx="28.6953" ry="18"/>
<text text-anchor="middle" x="1236.7084" y="-1070.0375" font-family="Times,serif" font-size="14.00" fill="#000000">3257</text>
</g>
<!-- 3491 -->
<g id="node17" class="node">
<title>3491</title>
<ellipse fill="none" stroke="#000000" cx="1112.4052" cy="-928.7172" rx="28.6953" ry="18"/>
<text text-anchor="middle" x="1112.4052" y="-925.0172" font-family="Times,serif" font-size="14.00" fill="#000000">3491</text>
</g>
<!-- 3257&#45;&gt;3491 -->
<g id="edge15" class="edge">
<title>3257&#45;&gt;3491</title>
<path fill="none" stroke="#000000" d="M1222.9309,-1057.6637C1201.0906,-1032.1834 1158.3939,-982.3705 1132.9361,-952.6698"/>
<polygon fill="#000000" stroke="#000000" points="1135.4099,-950.1778 1126.2445,-944.863 1130.0951,-954.7334 1135.4099,-950.1778"/>
</g>
<!-- 3320 -->
<g id="node15" class="node">
<title>3320</title>
<ellipse fill="none" stroke="#000000" cx="68.8781" cy="-406.5806" rx="28.6953" ry="18"/>
<text text-anchor="middle" x="68.8781" y="-402.8806" font-family="Times,serif" font-size="14.00" fill="#000000">3320</text>
</g>
<!-- 3356 -->
<g id="node16" class="node">
<title>3356</title>
<ellipse fill="none" stroke="#000000" cx="1147.276" cy="-1752.9737" rx="28.6953" ry="18"/>
<text text-anchor="middle" x="1147.276" y="-1749.2737" font-family="Times,serif" font-size="14.00" fill="#000000">3356</text>
</g>
<!-- 3549 -->
<g id="node18" class="node">
<title>3549</title>
<ellipse fill="none" stroke="#000000" cx="1227.9668" cy="-1573.7131" rx="28.6953" ry="18"/>
<text text-anchor="middle" x="1227.9668" y="-1570.0131" font-family="Times,serif" font-size="14.00" fill="#000000">3549</text>
</g>
<!-- 3356&#45;&gt;3549 -->
<g id="edge16" class="edge">
<title>3356&#45;&gt;3549</title>
<path fill="none" stroke="#000000" d="M1155.1599,-1735.4591C1169.3571,-1703.919 1199.2973,-1637.4045 1216.023,-1600.2471"/>
<polygon fill="#000000" stroke="#000000" points="1219.2566,-1601.5903 1220.1697,-1591.0349 1212.8734,-1598.717 1219.2566,-1601.5903"/>
</g>
<!-- 3491&#45;&gt;174 -->
<g id="edge17" class="edge">
<title>3491&#45;&gt;174</title>
<path fill="none" stroke="#000000" d="M1098.0231,-912.8744C1078.9761,-891.893 1045.2461,-854.7372 1023.3609,-830.6293"/>
<polygon fill="#000000" stroke="#000000" points="1025.7443,-828.0476 1016.4314,-822.996 1020.5614,-832.7527 1025.7443,-828.0476"/>
</g>
<!-- 6762 -->
<g id="node25" class="node">
<title>6762</title>
<ellipse fill="none" stroke="#000000" cx="1337.1187" cy="-1505.4079" rx="28.6953" ry="18"/>
<text text-anchor="middle" x="1337.1187" y="-1501.7079" font-family="Times,serif" font-size="14.00" fill="#000000">6762</text>
</g>
<!-- 3549&#45;&gt;6762 -->
<g id="edge18" class="edge">
<title>3549&#45;&gt;6762</title>
<path fill="none" stroke="#000000" d="M1248.4974,-1560.8654C1265.344,-1550.3231 1289.3967,-1535.2714 1308.1941,-1523.5083"/>
<polygon fill="#000000" stroke="#000000" points="1310.0598,-1526.4697 1316.6801,-1518.198 1306.3464,-1520.5358 1310.0598,-1526.4697"/>
</g>
<!-- 30070 -->
<g id="node40" class="node">
<title>30070</title>
<ellipse fill="none" stroke="#000000" cx="1262.5046" cy="-1409.7898" rx="32.4942" ry="18"/>
<text text-anchor="middle" x="1262.5046" y="-1406.0898" font-family="Times,serif" font-size="14.00" fill="#000000">30070</text>
</g>
<!-- 3549&#45;&gt;30070 -->
<g id="edge19" class="edge">
<title>3549&#45;&gt;30070</title>
<path fill="none" stroke="#000000" d="M1231.7287,-1555.8584C1237.7078,-1527.4805 1249.4302,-1471.8437 1256.5559,-1438.0237"/>
<polygon fill="#000000" stroke="#000000" points="1260.0578,-1438.3788 1258.6948,-1427.872 1253.2082,-1436.9356 1260.0578,-1438.3788"/>
</g>
<!-- 3597 -->
<g id="node19" class="node">
<title>3597</title>
<ellipse fill="none" stroke="#000000" cx="746.2798" cy="-2346.9732" rx="28.6953" ry="18"/>
<text text-anchor="middle" x="746.2798" y="-2343.2732" font-family="Times,serif" font-size="14.00" fill="#000000">3597</text>
</g>
<!-- 37179 -->
<g id="node41" class="node">
<title>37179</title>
<ellipse fill="none" stroke="#000000" cx="1620.2112" cy="-676.5973" rx="32.4942" ry="18"/>
<text text-anchor="middle" x="1620.2112" y="-672.8973" font-family="Times,serif" font-size="14.00" fill="#000000">37179</text>
</g>
<!-- 3741&#45;&gt;37179 -->
<g id="edge20" class="edge">
<title>3741&#45;&gt;37179</title>
<path fill="none" stroke="#000000" d="M1556.471,-792.5658C1568.967,-769.8306 1591.1531,-729.4654 1605.7736,-702.865"/>
<polygon fill="#000000" stroke="#000000" points="1608.8517,-704.5311 1610.6012,-694.0817 1602.7172,-701.1593 1608.8517,-704.5311"/>
</g>
<!-- 5511 -->
<g id="node21" class="node">
<title>5511</title>
<ellipse fill="none" stroke="#000000" cx="46.2592" cy="-249.2532" rx="28.6953" ry="18"/>
<text text-anchor="middle" x="46.2592" y="-245.5532" font-family="Times,serif" font-size="14.00" fill="#000000">5511</text>
</g>
<!-- 5692 -->
<g id="node22" class="node">
<title>5692</title>
<ellipse fill="none" stroke="#000000" cx="850.9103" cy="-2273.0865" rx="28.6953" ry="18"/>
<text text-anchor="middle" x="850.9103" y="-2269.3865" font-family="Times,serif" font-size="14.00" fill="#000000">5692</text>
</g>
<!-- 5692&#45;&gt;3597 -->
<g id="edge21" class="edge">
<title>5692&#45;&gt;3597</title>
<path fill="none" stroke="#000000" d="M831.7194,-2286.6384C815.4955,-2298.0952 792.0515,-2314.6507 773.8236,-2327.5226"/>
<polygon fill="#000000" stroke="#000000" points="771.4986,-2324.8797 765.3489,-2333.5071 775.5365,-2330.5977 771.4986,-2324.8797"/>
</g>
<!-- 10834 -->
<g id="node33" class="node">
<title>10834</title>
<ellipse fill="none" stroke="#000000" cx="976.0519" cy="-2111.4909" rx="32.4942" ry="18"/>
<text text-anchor="middle" x="976.0519" y="-2107.7909" font-family="Times,serif" font-size="14.00" fill="#000000">10834</text>
</g>
<!-- 5692&#45;&gt;10834 -->
<g id="edge22" class="edge">
<title>5692&#45;&gt;10834</title>
<path fill="none" stroke="#000000" d="M863.5982,-2256.7025C885.595,-2228.298 930.932,-2169.7543 956.8187,-2136.3268"/>
<polygon fill="#000000" stroke="#000000" points="959.5993,-2138.4524 962.9549,-2128.403 954.0648,-2134.1664 959.5993,-2138.4524"/>
</g>
<!-- 11008 -->
<g id="node34" class="node">
<title>11008</title>
<ellipse fill="none" stroke="#000000" cx="978.4521" cy="-2386.1851" rx="32.4942" ry="18"/>
<text text-anchor="middle" x="978.4521" y="-2382.4851" font-family="Times,serif" font-size="14.00" fill="#000000">11008</text>
</g>
<!-- 5692&#45;&gt;11008 -->
<g id="edge23" class="edge">
<title>5692&#45;&gt;11008</title>
<path fill="none" stroke="#000000" d="M867.5841,-2287.8721C889.3967,-2307.2146 927.8189,-2341.2857 953.2084,-2363.8001"/>
<polygon fill="#000000" stroke="#000000" points="951.152,-2366.6545 960.9562,-2370.6705 955.7964,-2361.417 951.152,-2366.6545"/>
</g>
<!-- 27865 -->
<g id="node38" class="node">
<title>27865</title>
<ellipse fill="none" stroke="#000000" cx="739.9821" cy="-2396.3672" rx="32.4942" ry="18"/>
<text text-anchor="middle" x="739.9821" y="-2392.6672" font-family="Times,serif" font-size="14.00" fill="#000000">27865</text>
</g>
<!-- 5692&#45;&gt;27865 -->
<g id="edge24" class="edge">
<title>5692&#45;&gt;27865</title>
<path fill="none" stroke="#000000" d="M836.6354,-2288.9509C817.5214,-2310.1933 783.456,-2348.0522 761.2966,-2372.6792"/>
<polygon fill="#000000" stroke="#000000" points="758.6414,-2370.3974 754.5543,-2380.1722 763.845,-2375.0796 758.6414,-2370.3974"/>
</g>
<!-- 28065 -->
<g id="node39" class="node">
<title>28065</title>
<ellipse fill="none" stroke="#000000" cx="760.9621" cy="-2187.8742" rx="32.4942" ry="18"/>
<text text-anchor="middle" x="760.9621" y="-2184.1742" font-family="Times,serif" font-size="14.00" fill="#000000">28065</text>
</g>
<!-- 5692&#45;&gt;28065 -->
<g id="edge25" class="edge">
<title>5692&#45;&gt;28065</title>
<path fill="none" stroke="#000000" d="M834.8293,-2257.8522C820.9331,-2244.6876 800.6548,-2225.477 784.859,-2210.5129"/>
<polygon fill="#000000" stroke="#000000" points="787.1791,-2207.8896 777.5124,-2203.5531 782.3649,-2212.9713 787.1791,-2207.8896"/>
</g>
<!-- 52317 -->
<g id="node42" class="node">
<title>52317</title>
<ellipse fill="none" stroke="#000000" cx="839.5753" cy="-2160.1394" rx="32.4942" ry="18"/>
<text text-anchor="middle" x="839.5753" y="-2156.4394" font-family="Times,serif" font-size="14.00" fill="#000000">52317</text>
</g>
<!-- 5692&#45;&gt;52317 -->
<g id="edge26" class="edge">
<title>5692&#45;&gt;52317</title>
<path fill="none" stroke="#000000" d="M849.0891,-2254.9396C847.2878,-2236.991 844.5051,-2209.263 842.4137,-2188.423"/>
<polygon fill="#000000" stroke="#000000" points="845.8731,-2187.8417 841.3919,-2178.2412 838.908,-2188.5408 845.8731,-2187.8417"/>
</g>
<!-- 52375 -->
<g id="node43" class="node">
<title>52375</title>
<ellipse fill="none" stroke="#000000" cx="985.2295" cy="-2264.7541" rx="32.4942" ry="18"/>
<text text-anchor="middle" x="985.2295" y="-2261.0541" font-family="Times,serif" font-size="14.00" fill="#000000">52375</text>
</g>
<!-- 5692&#45;&gt;52375 -->
<g id="edge27" class="edge">
<title>5692&#45;&gt;52375</title>
<path fill="none" stroke="#000000" d="M879.3959,-2271.3194C897.71,-2270.1833 921.8446,-2268.6861 942.4411,-2267.4084"/>
<polygon fill="#000000" stroke="#000000" points="942.7683,-2270.8949 952.5324,-2266.7824 942.3348,-2263.9084 942.7683,-2270.8949"/>
</g>
<!-- 52376 -->
<g id="node44" class="node">
<title>52376</title>
<ellipse fill="none" stroke="#000000" cx="912.2125" cy="-2431.6264" rx="32.4942" ry="18"/>
<text text-anchor="middle" x="912.2125" y="-2427.9264" font-family="Times,serif" font-size="14.00" fill="#000000">52376</text>
</g>
<!-- 5692&#45;&gt;52376 -->
<g id="edge28" class="edge">
<title>5692&#45;&gt;52376</title>
<path fill="none" stroke="#000000" d="M857.7049,-2290.6588C868.3837,-2318.2764 889.1732,-2372.0423 901.7636,-2404.6034"/>
<polygon fill="#000000" stroke="#000000" points="898.5164,-2405.9107 905.3874,-2413.9754 905.0454,-2403.3861 898.5164,-2405.9107"/>
</g>
<!-- 52380 -->
<g id="node45" class="node">
<title>52380</title>
<ellipse fill="none" stroke="#000000" cx="815.4566" cy="-2389.4762" rx="32.4942" ry="18"/>
<text text-anchor="middle" x="815.4566" y="-2385.7762" font-family="Times,serif" font-size="14.00" fill="#000000">52380</text>
</g>
<!-- 5692&#45;&gt;52380 -->
<g id="edge29" class="edge">
<title>5692&#45;&gt;52380</title>
<path fill="none" stroke="#000000" d="M845.4483,-2291.0173C839.68,-2309.9538 830.5133,-2340.0469 823.8311,-2361.9839"/>
<polygon fill="#000000" stroke="#000000" points="820.4324,-2361.1301 820.8666,-2371.716 827.1287,-2363.1699 820.4324,-2361.1301"/>
</g>
<!-- 52413 -->
<g id="node46" class="node">
<title>52413</title>
<ellipse fill="none" stroke="#000000" cx="704.7297" cy="-2298.5311" rx="32.4942" ry="18"/>
<text text-anchor="middle" x="704.7297" y="-2294.8311" font-family="Times,serif" font-size="14.00" fill="#000000">52413</text>
</g>
<!-- 5692&#45;&gt;52413 -->
<g id="edge30" class="edge">
<title>5692&#45;&gt;52413</title>
<path fill="none" stroke="#000000" d="M823.0707,-2277.9323C801.2534,-2281.7299 770.5675,-2287.0712 745.9102,-2291.3631"/>
<polygon fill="#000000" stroke="#000000" points="745.007,-2287.9676 735.7553,-2293.1307 746.2074,-2294.8639 745.007,-2287.9676"/>
</g>
<!-- 52431 -->
<g id="node47" class="node">
<title>52431</title>
<ellipse fill="none" stroke="#000000" cx="982.6009" cy="-2336.393" rx="32.4942" ry="18"/>
<text text-anchor="middle" x="982.6009" y="-2332.693" font-family="Times,serif" font-size="14.00" fill="#000000">52431</text>
</g>
<!-- 5692&#45;&gt;52431 -->
<g id="edge31" class="edge">
<title>5692&#45;&gt;52431</title>
<path fill="none" stroke="#000000" d="M873.849,-2284.1136C894.4453,-2294.0147 924.9621,-2308.6848 948.4311,-2319.9668"/>
<polygon fill="#000000" stroke="#000000" points="947.1567,-2323.2375 957.6858,-2324.4157 950.1895,-2316.9286 947.1567,-2323.2375"/>
</g>
<!-- 262230 -->
<g id="node48" class="node">
<title>262230</title>
<ellipse fill="none" stroke="#000000" cx="714.2327" cy="-2239.6287" rx="37.0935" ry="18"/>
<text text-anchor="middle" x="714.2327" y="-2235.9287" font-family="Times,serif" font-size="14.00" fill="#000000">262230</text>
</g>
<!-- 5692&#45;&gt;262230 -->
<g id="edge32" class="edge">
<title>5692&#45;&gt;262230</title>
<path fill="none" stroke="#000000" d="M824.233,-2266.556C805.1676,-2261.8889 779.1064,-2255.5094 757.1363,-2250.1312"/>
<polygon fill="#000000" stroke="#000000" points="757.9151,-2246.7186 747.3697,-2247.7404 756.2506,-2253.5178 757.9151,-2246.7186"/>
</g>
<!-- 264608 -->
<g id="node49" class="node">
<title>264608</title>
<ellipse fill="none" stroke="#000000" cx="818.9386" cy="-2455.9924" rx="37.0935" ry="18"/>
<text text-anchor="middle" x="818.9386" y="-2452.2924" font-family="Times,serif" font-size="14.00" fill="#000000">264608</text>
</g>
<!-- 5692&#45;&gt;264608 -->
<g id="edge33" class="edge">
<title>5692&#45;&gt;264608</title>
<path fill="none" stroke="#000000" d="M847.7278,-2291.2929C842.1262,-2323.3393 830.4714,-2390.015 823.8371,-2427.969"/>
<polygon fill="#000000" stroke="#000000" points="820.3824,-2427.4063 822.1082,-2437.8596 827.2779,-2428.6117 820.3824,-2427.4063"/>
</g>
<!-- 6453&#45;&gt;3257 -->
<g id="edge34" class="edge">
<title>6453&#45;&gt;3257</title>
<path fill="none" stroke="#000000" d="M1337.0049,-1185.5716C1316.9988,-1163.2641 1280.5016,-1122.5684 1257.485,-1096.9042"/>
<polygon fill="#000000" stroke="#000000" points="1260.0902,-1094.5668 1250.8079,-1089.4589 1254.8789,-1099.2404 1260.0902,-1094.5668"/>
</g>
<!-- 6461&#45;&gt;2497 -->
<g id="edge35" class="edge">
<title>6461&#45;&gt;2497</title>
<path fill="none" stroke="#000000" d="M575.6658,-455.9643C551.5958,-439.8257 510.7713,-412.4535 483.467,-394.1464"/>
<polygon fill="#000000" stroke="#000000" points="485.3704,-391.2087 475.1154,-388.5468 481.4721,-397.0228 485.3704,-391.2087"/>
</g>
<!-- 6762&#45;&gt;2914 -->
<g id="edge36" class="edge">
<title>6762&#45;&gt;2914</title>
<path fill="none" stroke="#000000" d="M1340.2271,-1487.4039C1344.026,-1465.4007 1350.4977,-1427.9172 1354.9566,-1402.0912"/>
<polygon fill="#000000" stroke="#000000" points="1358.4203,-1402.6011 1356.6727,-1392.1513 1351.5223,-1401.4101 1358.4203,-1402.6011"/>
</g>
<!-- 6904 -->
<g id="node26" class="node">
<title>6904</title>
<ellipse fill="none" stroke="#000000" cx="1273.0787" cy="-1234.1501" rx="28.6953" ry="18"/>
<text text-anchor="middle" x="1273.0787" y="-1230.4501" font-family="Times,serif" font-size="14.00" fill="#000000">6904</text>
</g>
<!-- 6904&#45;&gt;2687 -->
<g id="edge37" class="edge">
<title>6904&#45;&gt;2687</title>
<path fill="none" stroke="#000000" d="M1288.0837,-1218.5879C1311.8698,-1193.9186 1358.3705,-1145.6913 1386.0964,-1116.936"/>
<polygon fill="#000000" stroke="#000000" points="1388.9626,-1119.0057 1393.3841,-1109.3776 1383.9235,-1114.147 1388.9626,-1119.0057"/>
</g>
<!-- 7016 -->
<g id="node27" class="node">
<title>7016</title>
<ellipse fill="none" stroke="#000000" cx="1410.6094" cy="-1320.6948" rx="28.6953" ry="18"/>
<text text-anchor="middle" x="1410.6094" y="-1316.9948" font-family="Times,serif" font-size="14.00" fill="#000000">7016</text>
</g>
<!-- 7922 -->
<g id="node30" class="node">
<title>7922</title>
<ellipse fill="none" stroke="#000000" cx="1538.8141" cy="-1354.5497" rx="28.6953" ry="18"/>
<text text-anchor="middle" x="1538.8141" y="-1350.8497" font-family="Times,serif" font-size="14.00" fill="#000000">7922</text>
</g>
<!-- 7016&#45;&gt;7922 -->
<g id="edge38" class="edge">
<title>7016&#45;&gt;7922</title>
<path fill="none" stroke="#000000" d="M1437.1735,-1327.7095C1456.0824,-1332.7028 1481.7198,-1339.4728 1502.5151,-1344.9642"/>
<polygon fill="#000000" stroke="#000000" points="1501.7218,-1348.3747 1512.284,-1347.5439 1503.5091,-1341.6067 1501.7218,-1348.3747"/>
</g>
<!-- 7018&#45;&gt;1239 -->
<g id="edge39" class="edge">
<title>7018&#45;&gt;1239</title>
<path fill="none" stroke="#000000" d="M124.6214,-320.5399C107.5292,-322.2205 85.5102,-324.3854 66.8349,-326.2216"/>
<polygon fill="#000000" stroke="#000000" points="66.4658,-322.7409 56.8563,-327.2027 67.1508,-329.7073 66.4658,-322.7409"/>
</g>
<!-- 7018&#45;&gt;3320 -->
<g id="edge40" class="edge">
<title>7018&#45;&gt;3320</title>
<path fill="none" stroke="#000000" d="M138.2714,-333.2303C125.098,-347.155 105.5642,-367.8026 90.5748,-383.6467"/>
<polygon fill="#000000" stroke="#000000" points="87.9592,-381.3187 83.6293,-390.9883 93.0442,-386.1294 87.9592,-381.3187"/>
</g>
<!-- 7018&#45;&gt;5511 -->
<g id="edge41" class="edge">
<title>7018&#45;&gt;5511</title>
<path fill="none" stroke="#000000" d="M132.8485,-304.8734C116.5663,-294.4146 93.395,-279.5306 75.1188,-267.791"/>
<polygon fill="#000000" stroke="#000000" points="76.8971,-264.7735 66.5917,-262.3137 73.1139,-270.6631 76.8971,-264.7735"/>
</g>
<!-- 7473 -->
<g id="node29" class="node">
<title>7473</title>
<ellipse fill="none" stroke="#000000" cx="1681.396" cy="-986.3643" rx="28.6953" ry="18"/>
<text text-anchor="middle" x="1681.396" y="-982.6643" font-family="Times,serif" font-size="14.00" fill="#000000">7473</text>
</g>
<!-- 9505&#45;&gt;7473 -->
<g id="edge42" class="edge">
<title>9505&#45;&gt;7473</title>
<path fill="none" stroke="#000000" d="M1586.5322,-1023.278C1604.1427,-1016.4253 1628.1346,-1007.0895 1647.584,-999.5213"/>
<polygon fill="#000000" stroke="#000000" points="1648.9502,-1002.7454 1657.0002,-995.8572 1646.4117,-996.2219 1648.9502,-1002.7454"/>
</g>
<!-- 12956 -->
<g id="node35" class="node">
<title>12956</title>
<ellipse fill="none" stroke="#000000" cx="1072.1924" cy="-1913.2223" rx="32.4942" ry="18"/>
<text text-anchor="middle" x="1072.1924" y="-1909.5223" font-family="Times,serif" font-size="14.00" fill="#000000">12956</text>
</g>
<!-- 10834&#45;&gt;12956 -->
<g id="edge43" class="edge">
<title>10834&#45;&gt;12956</title>
<path fill="none" stroke="#000000" d="M984.5837,-2093.8959C1001.4739,-2059.0635 1039.2596,-1981.1388 1059.238,-1939.9378"/>
<polygon fill="#000000" stroke="#000000" points="1062.4658,-1941.303 1063.6797,-1930.7779 1056.1672,-1938.2488 1062.4658,-1941.303"/>
</g>
<!-- 22927 -->
<g id="node37" class="node">
<title>22927</title>
<ellipse fill="none" stroke="#000000" cx="1116.3035" cy="-2133.4089" rx="32.4942" ry="18"/>
<text text-anchor="middle" x="1116.3035" y="-2129.7089" font-family="Times,serif" font-size="14.00" fill="#000000">22927</text>
</g>
<!-- 10834&#45;&gt;22927 -->
<g id="edge44" class="edge">
<title>10834&#45;&gt;22927</title>
<path fill="none" stroke="#000000" d="M1007.5271,-2116.4097C1027.3772,-2119.5118 1053.236,-2123.5529 1074.7604,-2126.9167"/>
<polygon fill="#000000" stroke="#000000" points="1074.5129,-2130.4204 1084.9334,-2128.5065 1075.5937,-2123.5043 1074.5129,-2130.4204"/>
</g>
<!-- 12956&#45;&gt;3356 -->
<g id="edge45" class="edge">
<title>12956&#45;&gt;3356</title>
<path fill="none" stroke="#000000" d="M1080.3706,-1895.7679C1093.4595,-1867.8325 1119.2091,-1812.876 1134.6666,-1779.8856"/>
<polygon fill="#000000" stroke="#000000" points="1138.0344,-1780.947 1139.1079,-1770.4066 1131.6957,-1777.977 1138.0344,-1780.947"/>
</g>
<!-- 18540 -->
<g id="node36" class="node">
<title>18540</title>
<ellipse fill="none" stroke="#000000" cx="1134.9944" cy="-1414.3585" rx="32.4942" ry="18"/>
<text text-anchor="middle" x="1134.9944" y="-1410.6585" font-family="Times,serif" font-size="14.00" fill="#000000">18540</text>
</g>
<!-- 30070&#45;&gt;6904 -->
<g id="edge46" class="edge">
<title>30070&#45;&gt;6904</title>
<path fill="none" stroke="#000000" d="M1263.5964,-1391.6548C1265.4375,-1361.074 1269.1728,-1299.0295 1271.3656,-1262.6049"/>
<polygon fill="#000000" stroke="#000000" points="1274.8855,-1262.3787 1271.9929,-1252.1865 1267.8982,-1261.958 1274.8855,-1262.3787"/>
</g>
<!-- 30070&#45;&gt;7016 -->
<g id="edge47" class="edge">
<title>30070&#45;&gt;7016</title>
<path fill="none" stroke="#000000" d="M1284.6774,-1396.4514C1310.3084,-1381.0326 1352.6032,-1355.5895 1381.0225,-1338.4933"/>
<polygon fill="#000000" stroke="#000000" points="1382.9585,-1341.4132 1389.7233,-1333.2592 1379.3501,-1335.4149 1382.9585,-1341.4132"/>
</g>
<!-- 30070&#45;&gt;18540 -->
<g id="edge48" class="edge">
<title>30070&#45;&gt;18540</title>
<path fill="none" stroke="#000000" d="M1229.9985,-1410.9545C1214.1116,-1411.5237 1194.7853,-1412.2162 1177.7221,-1412.8276"/>
<polygon fill="#000000" stroke="#000000" points="1177.3094,-1409.34 1167.4412,-1413.1959 1177.5601,-1416.3355 1177.3094,-1409.34"/>
</g>
</g>
</svg>
