<?xml version="1.0" encoding="UTF-8" standalone="no"?>
<!DOCTYPE svg PUBLIC "-//W3C//DTD SVG 1.1//EN"
 "http://www.w3.org/Graphics/SVG/1.1/DTD/svg11.dtd">
<!-- Generated by graphviz version 2.40.1 (20161225.0304)
 -->
<!-- Title: %3 Pages: 1 -->
<svg width="760pt" height="496pt"
 viewBox="0.00 0.00 760.49 495.84" xmlns="http://www.w3.org/2000/svg" xmlns:xlink="http://www.w3.org/1999/xlink">
<g id="graph0" class="graph" transform="scale(1 1) rotate(0) translate(4 491.8386)">
<title>%3</title>
<polygon fill="#ffffff" stroke="transparent" points="-4,4 -4,-491.8386 756.4855,-491.8386 756.4855,4 -4,4"/>
<!-- 174 -->
<g id="node1" class="node">
<title>174</title>
<ellipse fill="none" stroke="#000000" cx="459.3852" cy="-150.7315" rx="27" ry="18"/>
<text text-anchor="middle" x="459.3852" y="-147.0315" font-family="Times,serif" font-size="14.00" fill="#000000">174</text>
</g>
<!-- 209 -->
<g id="node2" class="node">
<title>209</title>
<ellipse fill="none" stroke="#000000" cx="498.1345" cy="-134.6885" rx="27" ry="18"/>
<text text-anchor="middle" x="498.1345" y="-130.9885" font-family="Times,serif" font-size="14.00" fill="#000000">209</text>
</g>
<!-- 174&#45;&gt;209 -->
<g id="edge1" class="edge">
<title>174&#45;&gt;209</title>
<path fill="none" stroke="#000000" d="M482.3737,-141.2138C482.4389,-141.1868 482.504,-141.1599 482.5691,-141.1329"/>
<polygon fill="#000000" stroke="#000000" points="474.8642,-148.1143 482.7641,-141.0522 472.1844,-141.6465 474.8642,-148.1143"/>
</g>
<!-- 1299 -->
<g id="node7" class="node">
<title>1299</title>
<ellipse fill="none" stroke="#000000" cx="540.852" cy="-138.2235" rx="28.6953" ry="18"/>
<text text-anchor="middle" x="540.852" y="-134.5235" font-family="Times,serif" font-size="14.00" fill="#000000">1299</text>
</g>
<!-- 209&#45;&gt;1299 -->
<g id="edge2" class="edge">
<title>209&#45;&gt;1299</title>
<path fill="none" stroke="#000000" d="M524.9456,-136.9072C525.0127,-136.9128 525.0796,-136.9183 525.1465,-136.9238"/>
<polygon fill="#000000" stroke="#000000" points="515.0908,-139.5992 525.347,-136.9404 515.6713,-132.6231 515.0908,-139.5992"/>
</g>
<!-- 2828 -->
<g id="node12" class="node">
<title>2828</title>
<ellipse fill="none" stroke="#000000" cx="496.5814" cy="-100.693" rx="28.6953" ry="18"/>
<text text-anchor="middle" x="496.5814" y="-96.993" font-family="Times,serif" font-size="14.00" fill="#000000">2828</text>
</g>
<!-- 209&#45;&gt;2828 -->
<g id="edge3" class="edge">
<title>209&#45;&gt;2828</title>
<path fill="none" stroke="#000000" d="M497.3034,-116.4965C497.3005,-116.4333 497.2976,-116.3702 497.2947,-116.3071"/>
<polygon fill="#000000" stroke="#000000" points="501.2439,-125.946 497.2861,-116.1179 494.2512,-126.269 501.2439,-125.946"/>
</g>
<!-- 701 -->
<g id="node3" class="node">
<title>701</title>
<ellipse fill="none" stroke="#000000" cx="667.4839" cy="-158.0737" rx="27" ry="18"/>
<text text-anchor="middle" x="667.4839" y="-154.3737" font-family="Times,serif" font-size="14.00" fill="#000000">701</text>
</g>
<!-- 703 -->
<g id="node4" class="node">
<title>703</title>
<ellipse fill="none" stroke="#000000" cx="686.3561" cy="-115.7251" rx="27" ry="18"/>
<text text-anchor="middle" x="686.3561" y="-112.0251" font-family="Times,serif" font-size="14.00" fill="#000000">703</text>
</g>
<!-- 701&#45;&gt;703 -->
<g id="edge4" class="edge">
<title>701&#45;&gt;703</title>
<path fill="none" stroke="#000000" d="M675.378,-140.3594C675.4437,-140.2121 675.5095,-140.0646 675.5753,-139.9168"/>
<polygon fill="#000000" stroke="#000000" points="677.6804,-143.7914 678.554,-133.2326 671.2865,-140.942 677.6804,-143.7914"/>
</g>
<!-- 1273 -->
<g id="node6" class="node">
<title>1273</title>
<ellipse fill="none" stroke="#000000" cx="647.4901" cy="-180.7002" rx="28.6953" ry="18"/>
<text text-anchor="middle" x="647.4901" y="-177.0002" font-family="Times,serif" font-size="14.00" fill="#000000">1273</text>
</g>
<!-- 701&#45;&gt;1273 -->
<g id="edge5" class="edge">
<title>701&#45;&gt;1273</title>
<path fill="none" stroke="#000000" d="M653.3808,-174.0339C653.3291,-174.0924 653.2776,-174.1507 653.2262,-174.2088"/>
<polygon fill="#000000" stroke="#000000" points="657.0728,-164.5697 653.0728,-174.3824 662.319,-169.2058 657.0728,-164.5697"/>
</g>
<!-- 7018 -->
<g id="node28" class="node">
<title>7018</title>
<ellipse fill="none" stroke="#000000" cx="687.4625" cy="-205.5162" rx="28.6953" ry="18"/>
<text text-anchor="middle" x="687.4625" y="-201.8162" font-family="Times,serif" font-size="14.00" fill="#000000">7018</text>
</g>
<!-- 701&#45;&gt;7018 -->
<g id="edge6" class="edge">
<title>701&#45;&gt;7018</title>
<path fill="none" stroke="#000000" d="M674.8097,-175.4701C675.2329,-176.4751 675.663,-177.4963 676.0966,-178.526"/>
<polygon fill="#000000" stroke="#000000" points="672.8969,-179.9462 680.0036,-187.804 679.3482,-177.2294 672.8969,-179.9462"/>
</g>
<!-- 2516 -->
<g id="node9" class="node">
<title>2516</title>
<ellipse fill="none" stroke="#000000" cx="674.752" cy="-81.279" rx="28.6953" ry="18"/>
<text text-anchor="middle" x="674.752" y="-77.579" font-family="Times,serif" font-size="14.00" fill="#000000">2516</text>
</g>
<!-- 703&#45;&gt;2516 -->
<g id="edge7" class="edge">
<title>703&#45;&gt;2516</title>
<path fill="none" stroke="#000000" d="M680.4181,-98.0984C680.3958,-98.0322 680.3735,-97.966 680.3512,-97.8998"/>
<polygon fill="#000000" stroke="#000000" points="686.797,-106.0597 680.2843,-97.7013 680.1631,-108.2967 686.797,-106.0597"/>
</g>
<!-- 9498 -->
<g id="node31" class="node">
<title>9498</title>
<ellipse fill="none" stroke="#000000" cx="714.2259" cy="-94.957" rx="28.6953" ry="18"/>
<text text-anchor="middle" x="714.2259" y="-91.257" font-family="Times,serif" font-size="14.00" fill="#000000">9498</text>
</g>
<!-- 703&#45;&gt;9498 -->
<g id="edge8" class="edge">
<title>703&#45;&gt;9498</title>
<path fill="none" stroke="#000000" d="M704.4784,-102.2207C704.5616,-102.1587 704.6445,-102.0969 704.7272,-102.0352"/>
<polygon fill="#000000" stroke="#000000" points="699.0473,-110.6341 704.9747,-101.8508 694.8638,-105.0207 699.0473,-110.6341"/>
</g>
<!-- 1239 -->
<g id="node5" class="node">
<title>1239</title>
<ellipse fill="none" stroke="#000000" cx="689.0726" cy="-245.4309" rx="28.6953" ry="18"/>
<text text-anchor="middle" x="689.0726" y="-241.7309" font-family="Times,serif" font-size="14.00" fill="#000000">1239</text>
</g>
<!-- 6461 -->
<g id="node24" class="node">
<title>6461</title>
<ellipse fill="none" stroke="#000000" cx="582.7105" cy="-138.6034" rx="28.6953" ry="18"/>
<text text-anchor="middle" x="582.7105" y="-134.9034" font-family="Times,serif" font-size="14.00" fill="#000000">6461</text>
</g>
<!-- 1299&#45;&gt;6461 -->
<g id="edge9" class="edge">
<title>1299&#45;&gt;6461</title>
<path fill="none" stroke="#000000" d="M569.4662,-138.4832C569.5237,-138.4837 569.5811,-138.4843 569.6384,-138.4848"/>
<polygon fill="#000000" stroke="#000000" points="559.7767,-141.8897 569.81,-138.4863 559.8442,-134.89 559.7767,-141.8897"/>
</g>
<!-- 2497 -->
<g id="node8" class="node">
<title>2497</title>
<ellipse fill="none" stroke="#000000" cx="624.8009" cy="-143.6114" rx="28.6953" ry="18"/>
<text text-anchor="middle" x="624.8009" y="-139.9114" font-family="Times,serif" font-size="14.00" fill="#000000">2497</text>
</g>
<!-- 2497&#45;&gt;701 -->
<g id="edge10" class="edge">
<title>2497&#45;&gt;701</title>
<path fill="none" stroke="#000000" d="M650.1231,-152.1913C650.1949,-152.2156 650.2666,-152.2399 650.3383,-152.2642"/>
<polygon fill="#000000" stroke="#000000" points="639.9575,-152.4399 650.5531,-152.337 642.206,-145.81 639.9575,-152.4399"/>
</g>
<!-- 2686 -->
<g id="node10" class="node">
<title>2686</title>
<ellipse fill="none" stroke="#000000" cx="140.7384" cy="-379.6634" rx="28.6953" ry="18"/>
<text text-anchor="middle" x="140.7384" y="-375.9634" font-family="Times,serif" font-size="14.00" fill="#000000">2686</text>
</g>
<!-- 3741 -->
<g id="node20" class="node">
<title>3741</title>
<ellipse fill="none" stroke="#000000" cx="112.5511" cy="-358.2663" rx="28.6953" ry="18"/>
<text text-anchor="middle" x="112.5511" y="-354.5663" font-family="Times,serif" font-size="14.00" fill="#000000">3741</text>
</g>
<!-- 2686&#45;&gt;3741 -->
<g id="edge11" class="edge">
<title>2686&#45;&gt;3741</title>
<path fill="none" stroke="#000000" d="M122.4096,-365.75C122.3255,-365.6861 122.2416,-365.6224 122.158,-365.5589"/>
<polygon fill="#000000" stroke="#000000" points="131.99,-368.6285 121.9077,-365.3689 127.7568,-374.2045 131.99,-368.6285"/>
</g>
<!-- 2687 -->
<g id="node11" class="node">
<title>2687</title>
<ellipse fill="none" stroke="#000000" cx="175.6365" cy="-395.2385" rx="28.6953" ry="18"/>
<text text-anchor="middle" x="175.6365" y="-391.5385" font-family="Times,serif" font-size="14.00" fill="#000000">2687</text>
</g>
<!-- 2687&#45;&gt;2686 -->
<g id="edge12" class="edge">
<title>2687&#45;&gt;2686</title>
<path fill="none" stroke="#000000" d="M152.1654,-384.7632C152.1161,-384.7412 152.0668,-384.7193 152.0176,-384.6973"/>
<polygon fill="#000000" stroke="#000000" points="162.4304,-385.5145 151.8704,-384.6316 159.575,-391.9071 162.4304,-385.5145"/>
</g>
<!-- 9505 -->
<g id="node32" class="node">
<title>9505</title>
<ellipse fill="none" stroke="#000000" cx="171.3395" cy="-436.4008" rx="28.6953" ry="18"/>
<text text-anchor="middle" x="171.3395" y="-432.7008" font-family="Times,serif" font-size="14.00" fill="#000000">9505</text>
</g>
<!-- 2687&#45;&gt;9505 -->
<g id="edge13" class="edge">
<title>2687&#45;&gt;9505</title>
<path fill="none" stroke="#000000" d="M173.7393,-413.4127C173.7286,-413.515 173.7179,-413.6174 173.7072,-413.7198"/>
<polygon fill="#000000" stroke="#000000" points="170.782,-408.0333 173.2246,-418.3427 177.7442,-408.7602 170.782,-408.0333"/>
</g>
<!-- 2914 -->
<g id="node13" class="node">
<title>2914</title>
<ellipse fill="none" stroke="#000000" cx="311.1545" cy="-216.7059" rx="28.6953" ry="18"/>
<text text-anchor="middle" x="311.1545" y="-213.0059" font-family="Times,serif" font-size="14.00" fill="#000000">2914</text>
</g>
<!-- 6453 -->
<g id="node23" class="node">
<title>6453</title>
<ellipse fill="none" stroke="#000000" cx="350.1224" cy="-196.6062" rx="28.6953" ry="18"/>
<text text-anchor="middle" x="350.1224" y="-192.9062" font-family="Times,serif" font-size="14.00" fill="#000000">6453</text>
</g>
<!-- 2914&#45;&gt;6453 -->
<g id="edge14" class="edge">
<title>2914&#45;&gt;6453</title>
<path fill="none" stroke="#000000" d="M333.3703,-205.2469C333.4387,-205.2117 333.507,-205.1764 333.5753,-205.1412"/>
<polygon fill="#000000" stroke="#000000" points="326.4974,-212.7329 333.78,-205.0356 323.2868,-206.5114 326.4974,-212.7329"/>
</g>
<!-- 3257 -->
<g id="node14" class="node">
<title>3257</title>
<ellipse fill="none" stroke="#000000" cx="385.9459" cy="-177.9643" rx="28.6953" ry="18"/>
<text text-anchor="middle" x="385.9459" y="-174.2643" font-family="Times,serif" font-size="14.00" fill="#000000">3257</text>
</g>
<!-- 3491 -->
<g id="node17" class="node">
<title>3491</title>
<ellipse fill="none" stroke="#000000" cx="422.4632" cy="-163.5584" rx="28.6953" ry="18"/>
<text text-anchor="middle" x="422.4632" y="-159.8584" font-family="Times,serif" font-size="14.00" fill="#000000">3491</text>
</g>
<!-- 3257&#45;&gt;3491 -->
<g id="edge15" class="edge">
<title>3257&#45;&gt;3491</title>
<path fill="none" stroke="#000000" d="M410.5061,-168.2754C410.5577,-168.2551 410.6092,-168.2347 410.6607,-168.2144"/>
<polygon fill="#000000" stroke="#000000" points="402.7978,-175.0832 410.8148,-168.1536 400.2263,-168.5712 402.7978,-175.0832"/>
</g>
<!-- 3320 -->
<g id="node15" class="node">
<title>3320</title>
<ellipse fill="none" stroke="#000000" cx="660.8406" cy="-228.2394" rx="28.6953" ry="18"/>
<text text-anchor="middle" x="660.8406" y="-224.5394" font-family="Times,serif" font-size="14.00" fill="#000000">3320</text>
</g>
<!-- 3356 -->
<g id="node16" class="node">
<title>3356</title>
<ellipse fill="none" stroke="#000000" cx="195.1042" cy="-215.2619" rx="28.6953" ry="18"/>
<text text-anchor="middle" x="195.1042" y="-211.5619" font-family="Times,serif" font-size="14.00" fill="#000000">3356</text>
</g>
<!-- 3549 -->
<g id="node18" class="node">
<title>3549</title>
<ellipse fill="none" stroke="#000000" cx="229.4586" cy="-258.7656" rx="28.6953" ry="18"/>
<text text-anchor="middle" x="229.4586" y="-255.0656" font-family="Times,serif" font-size="14.00" fill="#000000">3549</text>
</g>
<!-- 3356&#45;&gt;3549 -->
<g id="edge16" class="edge">
<title>3356&#45;&gt;3549</title>
<path fill="none" stroke="#000000" d="M207.8965,-231.4611C208.6906,-232.4666 209.4981,-233.4892 210.3115,-234.5193"/>
<polygon fill="#000000" stroke="#000000" points="207.5967,-236.7289 216.541,-242.4078 213.0903,-232.3907 207.5967,-236.7289"/>
</g>
<!-- 3491&#45;&gt;174 -->
<g id="edge17" class="edge">
<title>3491&#45;&gt;174</title>
<path fill="none" stroke="#000000" d="M447.7028,-154.79C447.7535,-154.7724 447.8042,-154.7548 447.8547,-154.7373"/>
<polygon fill="#000000" stroke="#000000" points="439.7096,-161.2768 448.0061,-154.6847 437.4095,-154.6642 439.7096,-161.2768"/>
</g>
<!-- 6762 -->
<g id="node25" class="node">
<title>6762</title>
<ellipse fill="none" stroke="#000000" cx="270.5485" cy="-235.7611" rx="28.6953" ry="18"/>
<text text-anchor="middle" x="270.5485" y="-232.0611" font-family="Times,serif" font-size="14.00" fill="#000000">6762</text>
</g>
<!-- 3549&#45;&gt;6762 -->
<g id="edge18" class="edge">
<title>3549&#45;&gt;6762</title>
<path fill="none" stroke="#000000" d="M250.9663,-246.7243C251.044,-246.6809 251.1216,-246.6374 251.1992,-246.5939"/>
<polygon fill="#000000" stroke="#000000" points="244.4164,-254.4047 251.4321,-246.4636 240.9955,-248.2965 244.4164,-254.4047"/>
</g>
<!-- 30070 -->
<g id="node40" class="node">
<title>30070</title>
<ellipse fill="none" stroke="#000000" cx="232.7385" cy="-318.0787" rx="32.4942" ry="18"/>
<text text-anchor="middle" x="232.7385" y="-314.3787" font-family="Times,serif" font-size="14.00" fill="#000000">30070</text>
</g>
<!-- 3549&#45;&gt;30070 -->
<g id="edge19" class="edge">
<title>3549&#45;&gt;30070</title>
<path fill="none" stroke="#000000" d="M230.4605,-276.8838C230.6894,-281.0231 230.938,-285.5176 231.1839,-289.9658"/>
<polygon fill="#000000" stroke="#000000" points="227.6959,-290.28 231.7428,-300.0715 234.6852,-289.8935 227.6959,-290.28"/>
</g>
<!-- 3597 -->
<g id="node19" class="node">
<title>3597</title>
<ellipse fill="none" stroke="#000000" cx="60.6955" cy="-96.4266" rx="28.6953" ry="18"/>
<text text-anchor="middle" x="60.6955" y="-92.7266" font-family="Times,serif" font-size="14.00" fill="#000000">3597</text>
</g>
<!-- 37179 -->
<g id="node41" class="node">
<title>37179</title>
<ellipse fill="none" stroke="#000000" cx="84.0082" cy="-342.7116" rx="32.4942" ry="18"/>
<text text-anchor="middle" x="84.0082" y="-339.0116" font-family="Times,serif" font-size="14.00" fill="#000000">37179</text>
</g>
<!-- 3741&#45;&gt;37179 -->
<g id="edge20" class="edge">
<title>3741&#45;&gt;37179</title>
<path fill="none" stroke="#000000" d="M90.9176,-346.4769C90.8554,-346.443 90.7935,-346.4093 90.7318,-346.3757"/>
<polygon fill="#000000" stroke="#000000" points="101.0046,-347.9895 90.5476,-346.2753 97.6532,-354.1364 101.0046,-347.9895"/>
</g>
<!-- 5511 -->
<g id="node21" class="node">
<title>5511</title>
<ellipse fill="none" stroke="#000000" cx="723.8881" cy="-212.5798" rx="28.6953" ry="18"/>
<text text-anchor="middle" x="723.8881" y="-208.8798" font-family="Times,serif" font-size="14.00" fill="#000000">5511</text>
</g>
<!-- 5692 -->
<g id="node22" class="node">
<title>5692</title>
<ellipse fill="none" stroke="#000000" cx="78.5719" cy="-69.6405" rx="28.6953" ry="18"/>
<text text-anchor="middle" x="78.5719" y="-65.9405" font-family="Times,serif" font-size="14.00" fill="#000000">5692</text>
</g>
<!-- 5692&#45;&gt;3597 -->
<g id="edge21" class="edge">
<title>5692&#45;&gt;3597</title>
<path fill="none" stroke="#000000" d="M67.352,-86.4524C67.2959,-86.5365 67.2399,-86.6204 67.1841,-86.7041"/>
<polygon fill="#000000" stroke="#000000" points="69.658,-76.6928 67.0169,-86.9545 75.4809,-80.5796 69.658,-76.6928"/>
</g>
<!-- 10834 -->
<g id="node33" class="node">
<title>10834</title>
<ellipse fill="none" stroke="#000000" cx="128.1225" cy="-121.7066" rx="32.4942" ry="18"/>
<text text-anchor="middle" x="128.1225" y="-118.0066" font-family="Times,serif" font-size="14.00" fill="#000000">10834</text>
</g>
<!-- 5692&#45;&gt;10834 -->
<g id="edge22" class="edge">
<title>5692&#45;&gt;10834</title>
<path fill="none" stroke="#000000" d="M93.4387,-85.262C97.3833,-89.4069 101.7291,-93.9734 105.9712,-98.4308"/>
<polygon fill="#000000" stroke="#000000" points="103.4938,-100.9046 112.9231,-105.7357 108.5646,-96.0789 103.4938,-100.9046"/>
</g>
<!-- 11008 -->
<g id="node34" class="node">
<title>11008</title>
<ellipse fill="none" stroke="#000000" cx="70.9191" cy="-37.9391" rx="32.4942" ry="18"/>
<text text-anchor="middle" x="70.9191" y="-34.2391" font-family="Times,serif" font-size="14.00" fill="#000000">11008</text>
</g>
<!-- 5692&#45;&gt;11008 -->
<g id="edge23" class="edge">
<title>5692&#45;&gt;11008</title>
<path fill="none" stroke="#000000" d="M74.2089,-51.5673C74.1955,-51.5117 74.1821,-51.4561 74.1687,-51.4006"/>
<polygon fill="#000000" stroke="#000000" points="79.8819,-60.1321 74.1285,-51.2341 73.0773,-61.7779 79.8819,-60.1321"/>
</g>
<!-- 27865 -->
<g id="node38" class="node">
<title>27865</title>
<ellipse fill="none" stroke="#000000" cx="32.4971" cy="-45.7271" rx="32.4942" ry="18"/>
<text text-anchor="middle" x="32.4971" y="-42.0271" font-family="Times,serif" font-size="14.00" fill="#000000">27865</text>
</g>
<!-- 5692&#45;&gt;27865 -->
<g id="edge24" class="edge">
<title>5692&#45;&gt;27865</title>
<path fill="none" stroke="#000000" d="M56.3442,-58.1041C56.2982,-58.0802 56.2522,-58.0563 56.2062,-58.0324"/>
<polygon fill="#000000" stroke="#000000" points="66.5581,-59.464 56.0681,-57.9607 63.331,-65.6776 66.5581,-59.464"/>
</g>
<!-- 28065 -->
<g id="node39" class="node">
<title>28065</title>
<ellipse fill="none" stroke="#000000" cx="51.5813" cy="-23.5398" rx="32.4942" ry="18"/>
<text text-anchor="middle" x="51.5813" y="-19.8398" font-family="Times,serif" font-size="14.00" fill="#000000">28065</text>
</g>
<!-- 5692&#45;&gt;28065 -->
<g id="edge25" class="edge">
<title>5692&#45;&gt;28065</title>
<path fill="none" stroke="#000000" d="M68.6748,-52.7361C68.0317,-51.6375 67.3767,-50.5188 66.7165,-49.3911"/>
<polygon fill="#000000" stroke="#000000" points="69.7309,-47.6125 61.658,-40.7511 63.6901,-51.1492 69.7309,-47.6125"/>
</g>
<!-- 52317 -->
<g id="node42" class="node">
<title>52317</title>
<ellipse fill="none" stroke="#000000" cx="34.22" cy="-97.7974" rx="32.4942" ry="18"/>
<text text-anchor="middle" x="34.22" y="-94.0974" font-family="Times,serif" font-size="14.00" fill="#000000">52317</text>
</g>
<!-- 5692&#45;&gt;52317 -->
<g id="edge26" class="edge">
<title>5692&#45;&gt;52317</title>
<path fill="none" stroke="#000000" d="M58.2132,-82.5652C58.1107,-82.6303 58.0082,-82.6954 57.9056,-82.7605"/>
<polygon fill="#000000" stroke="#000000" points="62.3148,-75.8154 55.7483,-84.1301 66.0667,-81.7251 62.3148,-75.8154"/>
</g>
<!-- 52375 -->
<g id="node43" class="node">
<title>52375</title>
<ellipse fill="none" stroke="#000000" cx="99.6933" cy="-98.2355" rx="32.4942" ry="18"/>
<text text-anchor="middle" x="99.6933" y="-94.5355" font-family="Times,serif" font-size="14.00" fill="#000000">52375</text>
</g>
<!-- 5692&#45;&gt;52375 -->
<g id="edge27" class="edge">
<title>5692&#45;&gt;52375</title>
<path fill="none" stroke="#000000" d="M90.8583,-86.2743C90.8946,-86.3235 90.9309,-86.3726 90.9671,-86.4216"/>
<polygon fill="#000000" stroke="#000000" points="82.3165,-80.6043 91.0757,-86.5687 87.9478,-76.4438 82.3165,-80.6043"/>
</g>
<!-- 52376 -->
<g id="node44" class="node">
<title>52376</title>
<ellipse fill="none" stroke="#000000" cx="70.8256" cy="-120.0109" rx="32.4942" ry="18"/>
<text text-anchor="middle" x="70.8256" y="-116.3109" font-family="Times,serif" font-size="14.00" fill="#000000">52376</text>
</g>
<!-- 5692&#45;&gt;52376 -->
<g id="edge28" class="edge">
<title>5692&#45;&gt;52376</title>
<path fill="none" stroke="#000000" d="M75.7753,-87.8254C75.5754,-89.1252 75.3714,-90.452 75.1655,-91.7904"/>
<polygon fill="#000000" stroke="#000000" points="71.6529,-91.6058 73.5921,-102.0216 78.5715,-92.6698 71.6529,-91.6058"/>
</g>
<!-- 52380 -->
<g id="node45" class="node">
<title>52380</title>
<ellipse fill="none" stroke="#000000" cx="35.927" cy="-71.1516" rx="32.4942" ry="18"/>
<text text-anchor="middle" x="35.927" y="-67.4516" font-family="Times,serif" font-size="14.00" fill="#000000">52380</text>
</g>
<!-- 5692&#45;&gt;52380 -->
<g id="edge29" class="edge">
<title>5692&#45;&gt;52380</title>
<path fill="none" stroke="#000000" d="M49.8905,-70.6568C49.8302,-70.6589 49.77,-70.661 49.71,-70.6632"/>
<polygon fill="#000000" stroke="#000000" points="59.3979,-66.8123 49.53,-70.6696 59.6495,-73.8079 59.3979,-66.8123"/>
</g>
<!-- 52413 -->
<g id="node46" class="node">
<title>52413</title>
<ellipse fill="none" stroke="#000000" cx="101.4296" cy="-55.6925" rx="32.4942" ry="18"/>
<text text-anchor="middle" x="101.4296" y="-51.9925" font-family="Times,serif" font-size="14.00" fill="#000000">52413</text>
</g>
<!-- 5692&#45;&gt;52413 -->
<g id="edge30" class="edge">
<title>5692&#45;&gt;52413</title>
<path fill="none" stroke="#000000" d="M99.3201,-56.9797C99.4018,-56.9298 99.4814,-56.8812 99.559,-56.8339"/>
<polygon fill="#000000" stroke="#000000" points="93.0727,-64.8941 99.7857,-56.6956 89.4252,-58.9184 93.0727,-64.8941"/>
</g>
<!-- 52431 -->
<g id="node47" class="node">
<title>52431</title>
<ellipse fill="none" stroke="#000000" cx="92.7281" cy="-18" rx="32.4942" ry="18"/>
<text text-anchor="middle" x="92.7281" y="-14.3" font-family="Times,serif" font-size="14.00" fill="#000000">52431</text>
</g>
<!-- 5692&#45;&gt;52431 -->
<g id="edge31" class="edge">
<title>5692&#45;&gt;52431</title>
<path fill="none" stroke="#000000" d="M83.4437,-51.8688C83.9935,-49.863 84.5631,-47.7852 85.1372,-45.6909"/>
<polygon fill="#000000" stroke="#000000" points="88.5309,-46.5493 87.7993,-35.9798 81.78,-44.6986 88.5309,-46.5493"/>
</g>
<!-- 262230 -->
<g id="node48" class="node">
<title>262230</title>
<ellipse fill="none" stroke="#000000" cx="125.332" cy="-70.5572" rx="37.0935" ry="18"/>
<text text-anchor="middle" x="125.332" y="-66.8572" font-family="Times,serif" font-size="14.00" fill="#000000">262230</text>
</g>
<!-- 5692&#45;&gt;262230 -->
<g id="edge32" class="edge">
<title>5692&#45;&gt;262230</title>
<path fill="none" stroke="#000000" d="M107.387,-70.2054C107.4622,-70.2069 107.5373,-70.2083 107.6123,-70.2098"/>
<polygon fill="#000000" stroke="#000000" points="97.7689,-73.5132 107.8371,-70.2142 97.9092,-66.5145 97.7689,-73.5132"/>
</g>
<!-- 264608 -->
<g id="node49" class="node">
<title>264608</title>
<ellipse fill="none" stroke="#000000" cx="116.8891" cy="-38.6294" rx="37.0935" ry="18"/>
<text text-anchor="middle" x="116.8891" y="-34.9294" font-family="Times,serif" font-size="14.00" fill="#000000">264608</text>
</g>
<!-- 5692&#45;&gt;264608 -->
<g id="edge33" class="edge">
<title>5692&#45;&gt;264608</title>
<path fill="none" stroke="#000000" d="M96.3844,-55.2244C96.5016,-55.1295 96.619,-55.0345 96.7363,-54.9395"/>
<polygon fill="#000000" stroke="#000000" points="92.2222,-63.0958 97.7936,-54.0838 87.8183,-57.6545 92.2222,-63.0958"/>
</g>
<!-- 6453&#45;&gt;3257 -->
<g id="edge34" class="edge">
<title>6453&#45;&gt;3257</title>
<path fill="none" stroke="#000000" d="M372.1981,-185.1184C372.2557,-185.0885 372.3132,-185.0585 372.3707,-185.0286"/>
<polygon fill="#000000" stroke="#000000" points="365.2881,-192.6629 372.5429,-184.939 362.0549,-186.453 365.2881,-192.6629"/>
</g>
<!-- 6461&#45;&gt;2497 -->
<g id="edge35" class="edge">
<title>6461&#45;&gt;2497</title>
<path fill="none" stroke="#000000" d="M611.0189,-141.9716C611.0784,-141.9786 611.1378,-141.9857 611.1971,-141.9928"/>
<polygon fill="#000000" stroke="#000000" points="601.0295,-144.303 611.3747,-142.0139 601.86,-137.352 601.0295,-144.303"/>
</g>
<!-- 6762&#45;&gt;2914 -->
<g id="edge36" class="edge">
<title>6762&#45;&gt;2914</title>
<path fill="none" stroke="#000000" d="M293.6983,-224.8976C293.7695,-224.8642 293.8407,-224.8308 293.9118,-224.7974"/>
<polygon fill="#000000" stroke="#000000" points="286.5596,-232.1166 294.1251,-224.6973 283.5842,-225.7793 286.5596,-232.1166"/>
</g>
<!-- 6904 -->
<g id="node26" class="node">
<title>6904</title>
<ellipse fill="none" stroke="#000000" cx="203.571" cy="-358.3439" rx="28.6953" ry="18"/>
<text text-anchor="middle" x="203.571" y="-354.6439" font-family="Times,serif" font-size="14.00" fill="#000000">6904</text>
</g>
<!-- 6904&#45;&gt;2687 -->
<g id="edge37" class="edge">
<title>6904&#45;&gt;2687</title>
<path fill="none" stroke="#000000" d="M191.2372,-374.6338C191.1715,-374.7207 191.1056,-374.8076 191.0398,-374.8946"/>
<polygon fill="#000000" stroke="#000000" points="191.313,-368.7356 188.0669,-378.821 196.8938,-372.9611 191.313,-368.7356"/>
</g>
<!-- 7016 -->
<g id="node27" class="node">
<title>7016</title>
<ellipse fill="none" stroke="#000000" cx="260.0358" cy="-354.1475" rx="28.6953" ry="18"/>
<text text-anchor="middle" x="260.0358" y="-350.4475" font-family="Times,serif" font-size="14.00" fill="#000000">7016</text>
</g>
<!-- 7922 -->
<g id="node30" class="node">
<title>7922</title>
<ellipse fill="none" stroke="#000000" cx="285.016" cy="-380.2872" rx="28.6953" ry="18"/>
<text text-anchor="middle" x="285.016" y="-376.5872" font-family="Times,serif" font-size="14.00" fill="#000000">7922</text>
</g>
<!-- 7016&#45;&gt;7922 -->
<g id="edge38" class="edge">
<title>7016&#45;&gt;7922</title>
<path fill="none" stroke="#000000" d="M274.8556,-369.6552C274.8976,-369.6991 274.9396,-369.7431 274.9816,-369.787"/>
<polygon fill="#000000" stroke="#000000" points="265.6658,-365.1061 275.1073,-369.9185 270.7276,-360.2687 265.6658,-365.1061"/>
</g>
<!-- 7018&#45;&gt;1239 -->
<g id="edge39" class="edge">
<title>7018&#45;&gt;1239</title>
<path fill="none" stroke="#000000" d="M688.1921,-223.605C688.198,-223.7494 688.2038,-223.8939 688.2096,-224.0385"/>
<polygon fill="#000000" stroke="#000000" points="684.4318,-217.2292 688.3323,-227.0799 691.4261,-216.9468 684.4318,-217.2292"/>
</g>
<!-- 7018&#45;&gt;3320 -->
<g id="edge40" class="edge">
<title>7018&#45;&gt;3320</title>
<path fill="none" stroke="#000000" d="M670.4517,-220.0358C670.3702,-220.1054 670.2889,-220.1748 670.2078,-220.244"/>
<polygon fill="#000000" stroke="#000000" points="675.2993,-211.2955 669.9651,-220.4511 679.8445,-216.6203 675.2993,-211.2955"/>
</g>
<!-- 7018&#45;&gt;5511 -->
<g id="edge41" class="edge">
<title>7018&#45;&gt;5511</title>
<path fill="none" stroke="#000000" d="M715.0704,-210.8699C715.1498,-210.8853 715.2289,-210.9007 715.3076,-210.9159"/>
<polygon fill="#000000" stroke="#000000" points="705.058,-212.4904 715.5427,-210.9615 706.393,-205.6184 705.058,-212.4904"/>
</g>
<!-- 7473 -->
<g id="node29" class="node">
<title>7473</title>
<ellipse fill="none" stroke="#000000" cx="166.7819" cy="-469.8386" rx="28.6953" ry="18"/>
<text text-anchor="middle" x="166.7819" y="-466.1386" font-family="Times,serif" font-size="14.00" fill="#000000">7473</text>
</g>
<!-- 9505&#45;&gt;7473 -->
<g id="edge42" class="edge">
<title>9505&#45;&gt;7473</title>
<path fill="none" stroke="#000000" d="M168.8473,-454.6851C168.839,-454.7461 168.8307,-454.807 168.8224,-454.8679"/>
<polygon fill="#000000" stroke="#000000" points="166.6848,-444.6679 168.7975,-455.0506 173.6207,-445.6165 166.6848,-444.6679"/>
</g>
<!-- 12956 -->
<g id="node35" class="node">
<title>12956</title>
<ellipse fill="none" stroke="#000000" cx="161.3916" cy="-170.9552" rx="32.4942" ry="18"/>
<text text-anchor="middle" x="161.3916" y="-167.2552" font-family="Times,serif" font-size="14.00" fill="#000000">12956</text>
</g>
<!-- 10834&#45;&gt;12956 -->
<g id="edge43" class="edge">
<title>10834&#45;&gt;12956</title>
<path fill="none" stroke="#000000" d="M139.5718,-138.6552C141.0191,-140.7976 142.5246,-143.0262 144.038,-145.2666"/>
<polygon fill="#000000" stroke="#000000" points="141.3101,-147.481 149.8082,-153.8082 147.1107,-143.5625 141.3101,-147.481"/>
</g>
<!-- 22927 -->
<g id="node37" class="node">
<title>22927</title>
<ellipse fill="none" stroke="#000000" cx="163.4083" cy="-120.105" rx="32.4942" ry="18"/>
<text text-anchor="middle" x="163.4083" y="-116.405" font-family="Times,serif" font-size="14.00" fill="#000000">22927</text>
</g>
<!-- 10834&#45;&gt;22927 -->
<g id="edge44" class="edge">
<title>10834&#45;&gt;22927</title>
<path fill="none" stroke="#000000" d="M160.6395,-120.2307C160.6934,-120.2282 160.7467,-120.2258 160.7993,-120.2234"/>
<polygon fill="#000000" stroke="#000000" points="151.1262,-124.1723 160.9551,-120.2164 150.8045,-117.1795 151.1262,-124.1723"/>
</g>
<!-- 12956&#45;&gt;3356 -->
<g id="edge45" class="edge">
<title>12956&#45;&gt;3356</title>
<path fill="none" stroke="#000000" d="M174.1369,-187.7057C174.913,-188.7257 175.7016,-189.762 176.4953,-190.8052"/>
<polygon fill="#000000" stroke="#000000" points="173.7236,-192.9426 182.5644,-198.7814 179.2944,-188.7038 173.7236,-192.9426"/>
</g>
<!-- 18540 -->
<g id="node36" class="node">
<title>18540</title>
<ellipse fill="none" stroke="#000000" cx="264.5057" cy="-313.1925" rx="32.4942" ry="18"/>
<text text-anchor="middle" x="264.5057" y="-309.4925" font-family="Times,serif" font-size="14.00" fill="#000000">18540</text>
</g>
<!-- 30070&#45;&gt;6904 -->
<g id="edge46" class="edge">
<title>30070&#45;&gt;6904</title>
<path fill="none" stroke="#000000" d="M220.5379,-334.9215C220.4325,-335.0669 220.327,-335.2126 220.2213,-335.3585"/>
<polygon fill="#000000" stroke="#000000" points="218.4744,-331.8039 215.4424,-341.9556 224.1434,-335.9104 218.4744,-331.8039"/>
</g>
<!-- 30070&#45;&gt;7016 -->
<g id="edge47" class="edge">
<title>30070&#45;&gt;7016</title>
<path fill="none" stroke="#000000" d="M245.4282,-334.846C245.5117,-334.9564 245.5953,-335.0668 245.6789,-335.1773"/>
<polygon fill="#000000" stroke="#000000" points="238.6102,-331.6371 247.4359,-337.4988 244.1919,-327.4127 238.6102,-331.6371"/>
</g>
<!-- 30070&#45;&gt;18540 -->
<g id="edge48" class="edge">
<title>30070&#45;&gt;18540</title>
<path fill="none" stroke="#000000" d="M264.1489,-313.2473C264.2071,-313.2384 264.2584,-313.2305 264.3028,-313.2237"/>
<polygon fill="#000000" stroke="#000000" points="255.0654,-318.1936 264.4145,-313.2065 253.9959,-311.2749 255.0654,-318.1936"/>
</g>
</g>
</svg>
