<?xml version="1.0" encoding="UTF-8" standalone="no"?>
<!DOCTYPE svg PUBLIC "-//W3C//DTD SVG 1.1//EN"
 "http://www.w3.org/Graphics/SVG/1.1/DTD/svg11.dtd">
<!-- Generated by graphviz version 2.40.1 (20161225.0304)
 -->
<!-- Title: %3 Pages: 1 -->
<svg width="788pt" height="407pt"
 viewBox="0.00 0.00 787.85 407.14" xmlns="http://www.w3.org/2000/svg" xmlns:xlink="http://www.w3.org/1999/xlink">
<g id="graph0" class="graph" transform="scale(1 1) rotate(0) translate(4 403.1407)">
<title>%3</title>
<polygon fill="#ffffff" stroke="transparent" points="-4,4 -4,-403.1407 783.8476,-403.1407 783.8476,4 -4,4"/>
<!-- 174 -->
<g id="node1" class="node">
<title>174</title>
<ellipse fill="none" stroke="#000000" cx="397.8836" cy="-191.5944" rx="27" ry="18"/>
<text text-anchor="middle" x="397.8836" y="-187.8944" font-family="Times,serif" font-size="14.00" fill="#000000">174</text>
</g>
<!-- 209 -->
<g id="node2" class="node">
<title>209</title>
<ellipse fill="none" stroke="#000000" cx="431.8055" cy="-200.1406" rx="27" ry="18"/>
<text text-anchor="middle" x="431.8055" y="-196.4406" font-family="Times,serif" font-size="14.00" fill="#000000">209</text>
</g>
<!-- 174&#45;&gt;209 -->
<g id="edge1" class="edge">
<title>174&#45;&gt;209</title>
<path fill="none" stroke="#000000" d="M423.2455,-197.984C423.3222,-198.0033 423.3986,-198.0226 423.4747,-198.0417"/>
<polygon fill="#000000" stroke="#000000" points="413.1486,-199.0467 423.7019,-198.099 414.861,-192.2587 413.1486,-199.0467"/>
</g>
<!-- 1299 -->
<g id="node8" class="node">
<title>1299</title>
<ellipse fill="none" stroke="#000000" cx="466.3269" cy="-208.0633" rx="28.6953" ry="18"/>
<text text-anchor="middle" x="466.3269" y="-204.3633" font-family="Times,serif" font-size="14.00" fill="#000000">1299</text>
</g>
<!-- 209&#45;&gt;1299 -->
<g id="edge2" class="edge">
<title>209&#45;&gt;1299</title>
<path fill="none" stroke="#000000" d="M457.6157,-206.064C457.6937,-206.082 457.7715,-206.0998 457.8489,-206.1176"/>
<polygon fill="#000000" stroke="#000000" points="447.5493,-207.3418 458.0801,-206.1706 449.1174,-200.5191 447.5493,-207.3418"/>
</g>
<!-- 701 -->
<g id="node3" class="node">
<title>701</title>
<ellipse fill="none" stroke="#000000" cx="577.5313" cy="-229.7654" rx="27" ry="18"/>
<text text-anchor="middle" x="577.5313" y="-226.0654" font-family="Times,serif" font-size="14.00" fill="#000000">701</text>
</g>
<!-- 703 -->
<g id="node4" class="node">
<title>703</title>
<ellipse fill="none" stroke="#000000" cx="593.965" cy="-238.1878" rx="27" ry="18"/>
<text text-anchor="middle" x="593.965" y="-234.4878" font-family="Times,serif" font-size="14.00" fill="#000000">703</text>
</g>
<!-- 701&#45;&gt;703 -->
<g id="edge3" class="edge">
<title>701&#45;&gt;703</title>
<path fill="none" stroke="#000000" d="M593.9179,-238.1636C593.9257,-238.1676 593.9325,-238.1711 593.9384,-238.1741"/>
<polygon fill="#000000" stroke="#000000" points="583.4395,-236.7052 593.9531,-238.1817 586.655,-230.471 583.4395,-236.7052"/>
</g>
<!-- 7018 -->
<g id="node35" class="node">
<title>7018</title>
<ellipse fill="none" stroke="#000000" cx="618.2146" cy="-236.4507" rx="28.6953" ry="18"/>
<text text-anchor="middle" x="618.2146" y="-232.7507" font-family="Times,serif" font-size="14.00" fill="#000000">7018</text>
</g>
<!-- 701&#45;&gt;7018 -->
<g id="edge4" class="edge">
<title>701&#45;&gt;7018</title>
<path fill="none" stroke="#000000" d="M603.9856,-234.1125C604.0463,-234.1225 604.1069,-234.1325 604.1675,-234.1424"/>
<polygon fill="#000000" stroke="#000000" points="593.912,-235.9999 604.3489,-234.1722 595.0502,-229.0925 593.912,-235.9999"/>
</g>
<!-- 2516 -->
<g id="node10" class="node">
<title>2516</title>
<ellipse fill="none" stroke="#000000" cx="607.2424" cy="-194.1177" rx="28.6953" ry="18"/>
<text text-anchor="middle" x="607.2424" y="-190.4177" font-family="Times,serif" font-size="14.00" fill="#000000">2516</text>
</g>
<!-- 703&#45;&gt;2516 -->
<g id="edge5" class="edge">
<title>703&#45;&gt;2516</title>
<path fill="none" stroke="#000000" d="M599.289,-220.5167C599.3151,-220.4299 599.3413,-220.343 599.3675,-220.256"/>
<polygon fill="#000000" stroke="#000000" points="602.2971,-222.665 601.8306,-212.0804 595.5946,-220.6456 602.2971,-222.665"/>
</g>
<!-- 9498 -->
<g id="node40" class="node">
<title>9498</title>
<ellipse fill="none" stroke="#000000" cx="590.0423" cy="-284.2599" rx="28.6953" ry="18"/>
<text text-anchor="middle" x="590.0423" y="-280.5599" font-family="Times,serif" font-size="14.00" fill="#000000">9498</text>
</g>
<!-- 703&#45;&gt;9498 -->
<g id="edge6" class="edge">
<title>703&#45;&gt;9498</title>
<path fill="none" stroke="#000000" d="M592.4147,-256.3967C592.4061,-256.4973 592.3975,-256.598 592.3889,-256.6989"/>
<polygon fill="#000000" stroke="#000000" points="588.9425,-255.9223 591.5814,-266.1832 595.9172,-256.5162 588.9425,-255.9223"/>
</g>
<!-- 1221 -->
<g id="node5" class="node">
<title>1221</title>
<ellipse fill="none" stroke="#000000" cx="575.5963" cy="-87.1329" rx="28.6953" ry="18"/>
<text text-anchor="middle" x="575.5963" y="-83.4329" font-family="Times,serif" font-size="14.00" fill="#000000">1221</text>
</g>
<!-- 1239 -->
<g id="node6" class="node">
<title>1239</title>
<ellipse fill="none" stroke="#000000" cx="713.9263" cy="-275.3748" rx="28.6953" ry="18"/>
<text text-anchor="middle" x="713.9263" y="-271.6748" font-family="Times,serif" font-size="14.00" fill="#000000">1239</text>
</g>
<!-- 5511 -->
<g id="node27" class="node">
<title>5511</title>
<ellipse fill="none" stroke="#000000" cx="735.6861" cy="-262.3865" rx="28.6953" ry="18"/>
<text text-anchor="middle" x="735.6861" y="-258.6865" font-family="Times,serif" font-size="14.00" fill="#000000">5511</text>
</g>
<!-- 1239&#45;&gt;5511 -->
<g id="edge7" class="edge">
<title>1239&#45;&gt;5511</title>
<path fill="none" stroke="#000000" d="M734.7511,-262.9446C734.8998,-262.8558 735.0327,-262.7766 735.1482,-262.7076"/>
<polygon fill="#000000" stroke="#000000" points="728.649,-270.6646 735.4417,-262.5324 725.0603,-264.6537 728.649,-270.6646"/>
</g>
<!-- 17676 -->
<g id="node48" class="node">
<title>17676</title>
<ellipse fill="none" stroke="#000000" cx="734.7048" cy="-297.837" rx="32.4942" ry="18"/>
<text text-anchor="middle" x="734.7048" y="-294.137" font-family="Times,serif" font-size="14.00" fill="#000000">17676</text>
</g>
<!-- 1239&#45;&gt;17676 -->
<g id="edge8" class="edge">
<title>1239&#45;&gt;17676</title>
<path fill="none" stroke="#000000" d="M728.583,-291.2191C728.6367,-291.2771 728.6902,-291.335 728.7436,-291.3927"/>
<polygon fill="#000000" stroke="#000000" points="719.5414,-286.6003 728.903,-291.5651 724.6808,-281.8459 719.5414,-286.6003"/>
</g>
<!-- 1273 -->
<g id="node7" class="node">
<title>1273</title>
<ellipse fill="none" stroke="#000000" cx="685.4611" cy="-260.2146" rx="28.6953" ry="18"/>
<text text-anchor="middle" x="685.4611" y="-256.5146" font-family="Times,serif" font-size="14.00" fill="#000000">1273</text>
</g>
<!-- 1273&#45;&gt;1239 -->
<g id="edge9" class="edge">
<title>1273&#45;&gt;1239</title>
<path fill="none" stroke="#000000" d="M707.3243,-271.8586C707.384,-271.8904 707.4435,-271.9221 707.5027,-271.9536"/>
<polygon fill="#000000" stroke="#000000" points="697.2065,-270.4338 707.6795,-272.0478 700.4988,-264.255 697.2065,-270.4338"/>
</g>
<!-- 6461 -->
<g id="node30" class="node">
<title>6461</title>
<ellipse fill="none" stroke="#000000" cx="501.8629" cy="-215.2711" rx="28.6953" ry="18"/>
<text text-anchor="middle" x="501.8629" y="-211.5711" font-family="Times,serif" font-size="14.00" fill="#000000">6461</text>
</g>
<!-- 1299&#45;&gt;6461 -->
<g id="edge10" class="edge">
<title>1299&#45;&gt;6461</title>
<path fill="none" stroke="#000000" d="M493.6209,-213.5994C493.6955,-213.6145 493.7697,-213.6295 493.8436,-213.6445"/>
<polygon fill="#000000" stroke="#000000" points="483.5669,-215.1281 494.0644,-213.6893 484.9608,-208.2677 483.5669,-215.1281"/>
</g>
<!-- 2497 -->
<g id="node9" class="node">
<title>2497</title>
<ellipse fill="none" stroke="#000000" cx="538.7249" cy="-222.2036" rx="28.6953" ry="18"/>
<text text-anchor="middle" x="538.7249" y="-218.5036" font-family="Times,serif" font-size="14.00" fill="#000000">2497</text>
</g>
<!-- 2497&#45;&gt;701 -->
<g id="edge11" class="edge">
<title>2497&#45;&gt;701</title>
<path fill="none" stroke="#000000" d="M566.098,-227.5375C566.1482,-227.5473 566.1983,-227.5571 566.2483,-227.5668"/>
<polygon fill="#000000" stroke="#000000" points="555.9112,-229.1135 566.398,-227.596 557.2537,-222.2426 555.9112,-229.1135"/>
</g>
<!-- 32787 -->
<g id="node54" class="node">
<title>32787</title>
<ellipse fill="none" stroke="#000000" cx="621.1318" cy="-151.5321" rx="32.4942" ry="18"/>
<text text-anchor="middle" x="621.1318" y="-147.8321" font-family="Times,serif" font-size="14.00" fill="#000000">32787</text>
</g>
<!-- 2516&#45;&gt;32787 -->
<g id="edge12" class="edge">
<title>2516&#45;&gt;32787</title>
<path fill="none" stroke="#000000" d="M613.0523,-176.3043C613.0987,-176.1619 613.1453,-176.0192 613.1919,-175.8764"/>
<polygon fill="#000000" stroke="#000000" points="615.5272,-180.0034 615.3005,-169.411 608.8722,-177.8328 615.5272,-180.0034"/>
</g>
<!-- 2686 -->
<g id="node11" class="node">
<title>2686</title>
<ellipse fill="none" stroke="#000000" cx="75.882" cy="-51.12" rx="28.6953" ry="18"/>
<text text-anchor="middle" x="75.882" y="-47.42" font-family="Times,serif" font-size="14.00" fill="#000000">2686</text>
</g>
<!-- 3741 -->
<g id="node22" class="node">
<title>3741</title>
<ellipse fill="none" stroke="#000000" cx="52.6619" cy="-33.336" rx="28.6953" ry="18"/>
<text text-anchor="middle" x="52.6619" y="-29.636" font-family="Times,serif" font-size="14.00" fill="#000000">3741</text>
</g>
<!-- 2686&#45;&gt;3741 -->
<g id="edge13" class="edge">
<title>2686&#45;&gt;3741</title>
<path fill="none" stroke="#000000" d="M57.5863,-37.1075C57.5413,-37.0731 57.4966,-37.0388 57.452,-37.0047"/>
<polygon fill="#000000" stroke="#000000" points="67.3882,-40.2065 57.319,-36.9028 63.1303,-45.7646 67.3882,-40.2065"/>
</g>
<!-- 2687 -->
<g id="node12" class="node">
<title>2687</title>
<ellipse fill="none" stroke="#000000" cx="104.119" cy="-68.7683" rx="28.6953" ry="18"/>
<text text-anchor="middle" x="104.119" y="-65.0683" font-family="Times,serif" font-size="14.00" fill="#000000">2687</text>
</g>
<!-- 2687&#45;&gt;2686 -->
<g id="edge14" class="edge">
<title>2687&#45;&gt;2686</title>
<path fill="none" stroke="#000000" d="M83.5978,-55.9425C83.5294,-55.8997 83.4612,-55.8571 83.3933,-55.8147"/>
<polygon fill="#000000" stroke="#000000" points="93.5267,-58.0216 83.1904,-55.6878 89.8153,-63.958 93.5267,-58.0216"/>
</g>
<!-- 9505 -->
<g id="node41" class="node">
<title>9505</title>
<ellipse fill="none" stroke="#000000" cx="109.0472" cy="-45.7717" rx="28.6953" ry="18"/>
<text text-anchor="middle" x="109.0472" y="-42.0717" font-family="Times,serif" font-size="14.00" fill="#000000">9505</text>
</g>
<!-- 2687&#45;&gt;9505 -->
<g id="edge15" class="edge">
<title>2687&#45;&gt;9505</title>
<path fill="none" stroke="#000000" d="M108.002,-50.6487C108.0116,-50.6041 108.0211,-50.5598 108.0305,-50.5157"/>
<polygon fill="#000000" stroke="#000000" points="109.3798,-60.8975 108.0588,-50.3839 102.5351,-59.4266 109.3798,-60.8975"/>
</g>
<!-- 2764 -->
<g id="node13" class="node">
<title>2764</title>
<ellipse fill="none" stroke="#000000" cx="626.8481" cy="-107.567" rx="28.6953" ry="18"/>
<text text-anchor="middle" x="626.8481" y="-103.867" font-family="Times,serif" font-size="14.00" fill="#000000">2764</text>
</g>
<!-- 7545 -->
<g id="node38" class="node">
<title>7545</title>
<ellipse fill="none" stroke="#000000" cx="636.128" cy="-67.9869" rx="28.6953" ry="18"/>
<text text-anchor="middle" x="636.128" y="-64.2869" font-family="Times,serif" font-size="14.00" fill="#000000">7545</text>
</g>
<!-- 2764&#45;&gt;7545 -->
<g id="edge16" class="edge">
<title>2764&#45;&gt;7545</title>
<path fill="none" stroke="#000000" d="M631.0536,-89.6299C631.0872,-89.4867 631.1208,-89.3434 631.1544,-89.2"/>
<polygon fill="#000000" stroke="#000000" points="632.9862,-96.7191 631.8615,-86.1841 626.171,-95.1211 632.9862,-96.7191"/>
</g>
<!-- 38333 -->
<g id="node56" class="node">
<title>38333</title>
<ellipse fill="none" stroke="#000000" cx="599.9878" cy="-96.7086" rx="32.4942" ry="18"/>
<text text-anchor="middle" x="599.9878" y="-93.0086" font-family="Times,serif" font-size="14.00" fill="#000000">38333</text>
</g>
<!-- 2764&#45;&gt;38333 -->
<g id="edge17" class="edge">
<title>2764&#45;&gt;38333</title>
<path fill="none" stroke="#000000" d="M602.4666,-97.7107C602.3707,-97.6719 602.2771,-97.6341 602.1859,-97.5972"/>
<polygon fill="#000000" stroke="#000000" points="612.5034,-97.9946 601.9195,-97.4895 609.8784,-104.4845 612.5034,-97.9946"/>
</g>
<!-- 38561 -->
<g id="node57" class="node">
<title>38561</title>
<ellipse fill="none" stroke="#000000" cx="652.5085" cy="-106.0791" rx="32.4942" ry="18"/>
<text text-anchor="middle" x="652.5085" y="-102.3791" font-family="Times,serif" font-size="14.00" fill="#000000">38561</text>
</g>
<!-- 2764&#45;&gt;38561 -->
<g id="edge18" class="edge">
<title>2764&#45;&gt;38561</title>
<path fill="none" stroke="#000000" d="M652.4349,-106.0834C652.4471,-106.0827 652.4577,-106.0821 652.4669,-106.0815"/>
<polygon fill="#000000" stroke="#000000" points="642.7235,-110.1939 652.4899,-106.0802 642.2898,-103.2056 642.7235,-110.1939"/>
</g>
<!-- 2828 -->
<g id="node14" class="node">
<title>2828</title>
<ellipse fill="none" stroke="#000000" cx="546.3733" cy="-321.1603" rx="28.6953" ry="18"/>
<text text-anchor="middle" x="546.3733" y="-317.4603" font-family="Times,serif" font-size="14.00" fill="#000000">2828</text>
</g>
<!-- 2914 -->
<g id="node15" class="node">
<title>2914</title>
<ellipse fill="none" stroke="#000000" cx="258.9787" cy="-161.5589" rx="28.6953" ry="18"/>
<text text-anchor="middle" x="258.9787" y="-157.8589" font-family="Times,serif" font-size="14.00" fill="#000000">2914</text>
</g>
<!-- 6453 -->
<g id="node29" class="node">
<title>6453</title>
<ellipse fill="none" stroke="#000000" cx="295.0343" cy="-166.0397" rx="28.6953" ry="18"/>
<text text-anchor="middle" x="295.0343" y="-162.3397" font-family="Times,serif" font-size="14.00" fill="#000000">6453</text>
</g>
<!-- 2914&#45;&gt;6453 -->
<g id="edge19" class="edge">
<title>2914&#45;&gt;6453</title>
<path fill="none" stroke="#000000" d="M287.3878,-165.0895C287.4576,-165.0982 287.5271,-165.1068 287.5963,-165.1154"/>
<polygon fill="#000000" stroke="#000000" points="277.4461,-167.3769 287.8029,-165.1411 278.3123,-160.4303 277.4461,-167.3769"/>
</g>
<!-- 3257 -->
<g id="node16" class="node">
<title>3257</title>
<ellipse fill="none" stroke="#000000" cx="330.2072" cy="-173.288" rx="28.6953" ry="18"/>
<text text-anchor="middle" x="330.2072" y="-169.588" font-family="Times,serif" font-size="14.00" fill="#000000">3257</text>
</g>
<!-- 3491 -->
<g id="node19" class="node">
<title>3491</title>
<ellipse fill="none" stroke="#000000" cx="364.233" cy="-181.7612" rx="28.6953" ry="18"/>
<text text-anchor="middle" x="364.233" y="-178.0612" font-family="Times,serif" font-size="14.00" fill="#000000">3491</text>
</g>
<!-- 3257&#45;&gt;3491 -->
<g id="edge20" class="edge">
<title>3257&#45;&gt;3491</title>
<path fill="none" stroke="#000000" d="M357.017,-179.9643C357.0829,-179.9807 357.1485,-179.997 357.2138,-180.0133"/>
<polygon fill="#000000" stroke="#000000" points="346.8579,-181.0379 357.4087,-180.0618 348.552,-174.2453 346.8579,-181.0379"/>
</g>
<!-- 3320 -->
<g id="node17" class="node">
<title>3320</title>
<ellipse fill="none" stroke="#000000" cx="653.8506" cy="-247.0939" rx="28.6953" ry="18"/>
<text text-anchor="middle" x="653.8506" y="-243.3939" font-family="Times,serif" font-size="14.00" fill="#000000">3320</text>
</g>
<!-- 3320&#45;&gt;1273 -->
<g id="edge21" class="edge">
<title>3320&#45;&gt;1273</title>
<path fill="none" stroke="#000000" d="M677.809,-257.0384C677.8779,-257.067 677.9465,-257.0955 678.0148,-257.1238"/>
<polygon fill="#000000" stroke="#000000" points="667.6398,-256.6048 678.2189,-257.2085 670.3253,-250.1394 667.6398,-256.6048"/>
</g>
<!-- 3356 -->
<g id="node18" class="node">
<title>3356</title>
<ellipse fill="none" stroke="#000000" cx="173.2733" cy="-201.6792" rx="28.6953" ry="18"/>
<text text-anchor="middle" x="173.2733" y="-197.9792" font-family="Times,serif" font-size="14.00" fill="#000000">3356</text>
</g>
<!-- 3549 -->
<g id="node20" class="node">
<title>3549</title>
<ellipse fill="none" stroke="#000000" cx="182.9446" cy="-160.498" rx="28.6953" ry="18"/>
<text text-anchor="middle" x="182.9446" y="-156.798" font-family="Times,serif" font-size="14.00" fill="#000000">3549</text>
</g>
<!-- 3356&#45;&gt;3549 -->
<g id="edge22" class="edge">
<title>3356&#45;&gt;3549</title>
<path fill="none" stroke="#000000" d="M177.5435,-183.4966C177.5688,-183.3889 177.5941,-183.2811 177.6194,-183.1732"/>
<polygon fill="#000000" stroke="#000000" points="179.8833,-188.8416 178.7624,-178.3062 173.0687,-187.2411 179.8833,-188.8416"/>
</g>
<!-- 3491&#45;&gt;174 -->
<g id="edge23" class="edge">
<title>3491&#45;&gt;174</title>
<path fill="none" stroke="#000000" d="M390.4154,-189.4121C390.4833,-189.4319 390.5509,-189.4517 390.6181,-189.4713"/>
<polygon fill="#000000" stroke="#000000" points="380.2374,-190.0813 390.819,-189.53 382.2032,-183.3622 380.2374,-190.0813"/>
</g>
<!-- 6762 -->
<g id="node31" class="node">
<title>6762</title>
<ellipse fill="none" stroke="#000000" cx="221.7245" cy="-160.0851" rx="28.6953" ry="18"/>
<text text-anchor="middle" x="221.7245" y="-156.3851" font-family="Times,serif" font-size="14.00" fill="#000000">6762</text>
</g>
<!-- 3549&#45;&gt;6762 -->
<g id="edge24" class="edge">
<title>3549&#45;&gt;6762</title>
<path fill="none" stroke="#000000" d="M211.9387,-160.1893C211.9825,-160.1888 212.0263,-160.1883 212.0699,-160.1879"/>
<polygon fill="#000000" stroke="#000000" points="202.2411,-163.8003 212.2006,-160.1865 202.1613,-156.8007 202.2411,-163.8003"/>
</g>
<!-- 30070 -->
<g id="node53" class="node">
<title>30070</title>
<ellipse fill="none" stroke="#000000" cx="159.7474" cy="-122.1945" rx="32.4942" ry="18"/>
<text text-anchor="middle" x="159.7474" y="-118.4945" font-family="Times,serif" font-size="14.00" fill="#000000">30070</text>
</g>
<!-- 3549&#45;&gt;30070 -->
<g id="edge25" class="edge">
<title>3549&#45;&gt;30070</title>
<path fill="none" stroke="#000000" d="M172.7025,-143.586C172.6054,-143.4257 172.5081,-143.2652 172.4108,-143.1045"/>
<polygon fill="#000000" stroke="#000000" points="178.5358,-146.4614 170.3616,-139.7209 172.5482,-150.0877 178.5358,-146.4614"/>
</g>
<!-- 3597 -->
<g id="node21" class="node">
<title>3597</title>
<ellipse fill="none" stroke="#000000" cx="185.878" cy="-315.7417" rx="28.6953" ry="18"/>
<text text-anchor="middle" x="185.878" y="-312.0417" font-family="Times,serif" font-size="14.00" fill="#000000">3597</text>
</g>
<!-- 37179 -->
<g id="node55" class="node">
<title>37179</title>
<ellipse fill="none" stroke="#000000" cx="32.4971" cy="-18" rx="32.4942" ry="18"/>
<text text-anchor="middle" x="32.4971" y="-14.3" font-family="Times,serif" font-size="14.00" fill="#000000">37179</text>
</g>
<!-- 3741&#45;&gt;37179 -->
<g id="edge26" class="edge">
<title>3741&#45;&gt;37179</title>
<path fill="none" stroke="#000000" d="M34.358,-19.4153C34.214,-19.3058 34.077,-19.2015 33.9473,-19.1029"/>
<polygon fill="#000000" stroke="#000000" points="43.0742,-21.647 32.9956,-18.3791 38.8365,-27.2188 43.0742,-21.647"/>
</g>
<!-- 4635 -->
<g id="node23" class="node">
<title>4635</title>
<ellipse fill="none" stroke="#000000" cx="662.5554" cy="-58.9889" rx="28.6953" ry="18"/>
<text text-anchor="middle" x="662.5554" y="-55.2889" font-family="Times,serif" font-size="14.00" fill="#000000">4635</text>
</g>
<!-- 4637 -->
<g id="node24" class="node">
<title>4637</title>
<ellipse fill="none" stroke="#000000" cx="565.8909" cy="-303.4693" rx="28.6953" ry="18"/>
<text text-anchor="middle" x="565.8909" y="-299.7693" font-family="Times,serif" font-size="14.00" fill="#000000">4637</text>
</g>
<!-- 4637&#45;&gt;2828 -->
<g id="edge27" class="edge">
<title>4637&#45;&gt;2828</title>
<path fill="none" stroke="#000000" d="M549.4229,-318.3961C549.3657,-318.4479 549.3091,-318.4992 549.2532,-318.5499"/>
<polygon fill="#000000" stroke="#000000" points="554.1464,-309.3895 549.0871,-318.7005 558.8486,-314.5768 554.1464,-309.3895"/>
</g>
<!-- 4739 -->
<g id="node25" class="node">
<title>4739</title>
<ellipse fill="none" stroke="#000000" cx="614.7072" cy="-49.5941" rx="28.6953" ry="18"/>
<text text-anchor="middle" x="614.7072" y="-45.8941" font-family="Times,serif" font-size="14.00" fill="#000000">4739</text>
</g>
<!-- 4755 -->
<g id="node26" class="node">
<title>4755</title>
<ellipse fill="none" stroke="#000000" cx="605.8199" cy="-352.3039" rx="28.6953" ry="18"/>
<text text-anchor="middle" x="605.8199" y="-348.6039" font-family="Times,serif" font-size="14.00" fill="#000000">4755</text>
</g>
<!-- 9583 -->
<g id="node42" class="node">
<title>9583</title>
<ellipse fill="none" stroke="#000000" cx="611.5503" cy="-376.5886" rx="28.6953" ry="18"/>
<text text-anchor="middle" x="611.5503" y="-372.8886" font-family="Times,serif" font-size="14.00" fill="#000000">9583</text>
</g>
<!-- 4755&#45;&gt;9583 -->
<g id="edge28" class="edge">
<title>4755&#45;&gt;9583</title>
<path fill="none" stroke="#000000" d="M610.0447,-370.2081C610.0581,-370.2649 610.0715,-370.3216 610.0848,-370.378"/>
<polygon fill="#000000" stroke="#000000" points="604.4171,-361.6191 610.1246,-370.5466 611.2301,-360.0084 604.4171,-361.6191"/>
</g>
<!-- 5692 -->
<g id="node28" class="node">
<title>5692</title>
<ellipse fill="none" stroke="#000000" cx="161.8447" cy="-341.2763" rx="28.6953" ry="18"/>
<text text-anchor="middle" x="161.8447" y="-337.5763" font-family="Times,serif" font-size="14.00" fill="#000000">5692</text>
</g>
<!-- 5692&#45;&gt;3597 -->
<g id="edge29" class="edge">
<title>5692&#45;&gt;3597</title>
<path fill="none" stroke="#000000" d="M176.6548,-325.541C176.7321,-325.4589 176.8092,-325.377 176.8862,-325.2952"/>
<polygon fill="#000000" stroke="#000000" points="172.8107,-334.7325 177.1164,-325.0506 167.7128,-329.9342 172.8107,-334.7325"/>
</g>
<!-- 10834 -->
<g id="node45" class="node">
<title>10834</title>
<ellipse fill="none" stroke="#000000" cx="158.8777" cy="-287.2282" rx="32.4942" ry="18"/>
<text text-anchor="middle" x="158.8777" y="-283.5282" font-family="Times,serif" font-size="14.00" fill="#000000">10834</text>
</g>
<!-- 5692&#45;&gt;10834 -->
<g id="edge30" class="edge">
<title>5692&#45;&gt;10834</title>
<path fill="none" stroke="#000000" d="M160.8567,-323.2791C160.7181,-320.7533 160.5729,-318.1087 160.4269,-315.4486"/>
<polygon fill="#000000" stroke="#000000" points="163.9144,-315.1242 159.8715,-305.3311 156.925,-315.508 163.9144,-315.1242"/>
</g>
<!-- 11008 -->
<g id="node46" class="node">
<title>11008</title>
<ellipse fill="none" stroke="#000000" cx="188.3912" cy="-369.6023" rx="32.4942" ry="18"/>
<text text-anchor="middle" x="188.3912" y="-365.9023" font-family="Times,serif" font-size="14.00" fill="#000000">11008</text>
</g>
<!-- 5692&#45;&gt;11008 -->
<g id="edge31" class="edge">
<title>5692&#45;&gt;11008</title>
<path fill="none" stroke="#000000" d="M176.6702,-357.0956C176.7178,-357.1463 176.7652,-357.197 176.8127,-357.2476"/>
<polygon fill="#000000" stroke="#000000" points="167.561,-352.4955 176.9549,-357.3994 172.6695,-347.7077 167.561,-352.4955"/>
</g>
<!-- 27865 -->
<g id="node51" class="node">
<title>27865</title>
<ellipse fill="none" stroke="#000000" cx="194.6427" cy="-333.1636" rx="32.4942" ry="18"/>
<text text-anchor="middle" x="194.6427" y="-329.4636" font-family="Times,serif" font-size="14.00" fill="#000000">27865</text>
</g>
<!-- 5692&#45;&gt;27865 -->
<g id="edge32" class="edge">
<title>5692&#45;&gt;27865</title>
<path fill="none" stroke="#000000" d="M188.6271,-334.6516C188.6827,-334.6378 188.7381,-334.6241 188.7933,-334.6105"/>
<polygon fill="#000000" stroke="#000000" points="180.0922,-340.3731 188.9578,-334.5698 178.4082,-333.5778 180.0922,-340.3731"/>
</g>
<!-- 28065 -->
<g id="node52" class="node">
<title>28065</title>
<ellipse fill="none" stroke="#000000" cx="167.0063" cy="-381.1407" rx="32.4942" ry="18"/>
<text text-anchor="middle" x="167.0063" y="-377.4407" font-family="Times,serif" font-size="14.00" fill="#000000">28065</text>
</g>
<!-- 5692&#45;&gt;28065 -->
<g id="edge33" class="edge">
<title>5692&#45;&gt;28065</title>
<path fill="none" stroke="#000000" d="M164.1839,-359.3423C164.2026,-359.4865 164.2213,-359.6309 164.24,-359.7753"/>
<polygon fill="#000000" stroke="#000000" points="159.8779,-353.3452 164.6333,-362.8128 166.8199,-352.4461 159.8779,-353.3452"/>
</g>
<!-- 52317 -->
<g id="node58" class="node">
<title>52317</title>
<ellipse fill="none" stroke="#000000" cx="196.2991" cy="-350.5777" rx="32.4942" ry="18"/>
<text text-anchor="middle" x="196.2991" y="-346.8777" font-family="Times,serif" font-size="14.00" fill="#000000">52317</text>
</g>
<!-- 5692&#45;&gt;52317 -->
<g id="edge34" class="edge">
<title>5692&#45;&gt;52317</title>
<path fill="none" stroke="#000000" d="M188.308,-348.4204C188.3803,-348.4399 188.4522,-348.4594 188.5239,-348.4787"/>
<polygon fill="#000000" stroke="#000000" points="178.17,-349.3059 188.7379,-348.5365 179.9968,-342.5477 178.17,-349.3059"/>
</g>
<!-- 52375 -->
<g id="node59" class="node">
<title>52375</title>
<ellipse fill="none" stroke="#000000" cx="123.3346" cy="-349.2584" rx="32.4942" ry="18"/>
<text text-anchor="middle" x="123.3346" y="-345.5584" font-family="Times,serif" font-size="14.00" fill="#000000">52375</text>
</g>
<!-- 5692&#45;&gt;52375 -->
<g id="edge35" class="edge">
<title>5692&#45;&gt;52375</title>
<path fill="none" stroke="#000000" d="M134.6806,-346.9067C134.6308,-346.917 134.5811,-346.9273 134.5315,-346.9376"/>
<polygon fill="#000000" stroke="#000000" points="143.4628,-341.5063 134.383,-346.9684 144.8872,-348.3607 143.4628,-341.5063"/>
</g>
<!-- 52376 -->
<g id="node60" class="node">
<title>52376</title>
<ellipse fill="none" stroke="#000000" cx="139.7383" cy="-359.1375" rx="32.4942" ry="18"/>
<text text-anchor="middle" x="139.7383" y="-355.4375" font-family="Times,serif" font-size="14.00" fill="#000000">52376</text>
</g>
<!-- 5692&#45;&gt;52376 -->
<g id="edge36" class="edge">
<title>5692&#45;&gt;52376</title>
<path fill="none" stroke="#000000" d="M144.0007,-355.6937C143.9221,-355.7572 143.8443,-355.82 143.7673,-355.8823"/>
<polygon fill="#000000" stroke="#000000" points="149.1176,-347.0584 143.5386,-356.0671 153.5178,-352.5038 149.1176,-347.0584"/>
</g>
<!-- 52380 -->
<g id="node61" class="node">
<title>52380</title>
<ellipse fill="none" stroke="#000000" cx="144.7752" cy="-376.9976" rx="32.4942" ry="18"/>
<text text-anchor="middle" x="144.7752" y="-373.2976" font-family="Times,serif" font-size="14.00" fill="#000000">52380</text>
</g>
<!-- 5692&#45;&gt;52380 -->
<g id="edge37" class="edge">
<title>5692&#45;&gt;52380</title>
<path fill="none" stroke="#000000" d="M153.51,-358.7184C153.4423,-358.8601 153.3746,-359.0018 153.3069,-359.1435"/>
<polygon fill="#000000" stroke="#000000" points="154.2584,-349.0362 153.1037,-359.5686 160.5745,-352.0551 154.2584,-349.0362"/>
</g>
<!-- 52413 -->
<g id="node62" class="node">
<title>52413</title>
<ellipse fill="none" stroke="#000000" cx="132.1431" cy="-331.1969" rx="32.4942" ry="18"/>
<text text-anchor="middle" x="132.1431" y="-327.4969" font-family="Times,serif" font-size="14.00" fill="#000000">52413</text>
</g>
<!-- 5692&#45;&gt;52413 -->
<g id="edge38" class="edge">
<title>5692&#45;&gt;52413</title>
<path fill="none" stroke="#000000" d="M136.2729,-332.5984C136.1949,-332.5719 136.1176,-332.5457 136.0413,-332.5198"/>
<polygon fill="#000000" stroke="#000000" points="146.4104,-332.3449 135.8149,-332.4429 144.1589,-338.9738 146.4104,-332.3449"/>
</g>
<!-- 52431 -->
<g id="node63" class="node">
<title>52431</title>
<ellipse fill="none" stroke="#000000" cx="165.1678" cy="-320.2249" rx="32.4942" ry="18"/>
<text text-anchor="middle" x="165.1678" y="-316.5249" font-family="Times,serif" font-size="14.00" fill="#000000">52431</text>
</g>
<!-- 5692&#45;&gt;52431 -->
<g id="edge39" class="edge">
<title>5692&#45;&gt;52431</title>
<path fill="none" stroke="#000000" d="M164.7057,-323.152C164.7145,-323.0966 164.7231,-323.0419 164.7317,-322.9878"/>
<polygon fill="#000000" stroke="#000000" points="166.6498,-333.2526 164.757,-322.8273 159.7353,-332.1575 166.6498,-333.2526"/>
</g>
<!-- 262230 -->
<g id="node64" class="node">
<title>262230</title>
<ellipse fill="none" stroke="#000000" cx="167.8199" cy="-361.9831" rx="37.0935" ry="18"/>
<text text-anchor="middle" x="167.8199" y="-358.2831" font-family="Times,serif" font-size="14.00" fill="#000000">262230</text>
</g>
<!-- 5692&#45;&gt;262230 -->
<g id="edge40" class="edge">
<title>5692&#45;&gt;262230</title>
<path fill="none" stroke="#000000" d="M166.9891,-359.1039C167.0048,-359.1583 167.0204,-359.2122 167.0357,-359.2654"/>
<polygon fill="#000000" stroke="#000000" points="160.9415,-350.787 167.0813,-359.4232 167.6672,-348.8431 160.9415,-350.787"/>
</g>
<!-- 264608 -->
<g id="node65" class="node">
<title>264608</title>
<ellipse fill="none" stroke="#000000" cx="143.0416" cy="-315.7681" rx="37.0935" ry="18"/>
<text text-anchor="middle" x="143.0416" y="-312.0681" font-family="Times,serif" font-size="14.00" fill="#000000">264608</text>
</g>
<!-- 5692&#45;&gt;264608 -->
<g id="edge41" class="edge">
<title>5692&#45;&gt;264608</title>
<path fill="none" stroke="#000000" d="M149.618,-324.6896C149.5619,-324.6135 149.5059,-324.5376 149.4501,-324.4619"/>
<polygon fill="#000000" stroke="#000000" points="158.0357,-330.2083 149.2832,-324.2354 152.4006,-334.3627 158.0357,-330.2083"/>
</g>
<!-- 6453&#45;&gt;3257 -->
<g id="edge42" class="edge">
<title>6453&#45;&gt;3257</title>
<path fill="none" stroke="#000000" d="M322.4012,-171.6794C322.4721,-171.694 322.5428,-171.7086 322.6131,-171.723"/>
<polygon fill="#000000" stroke="#000000" points="312.3211,-173.1723 322.8231,-171.7663 313.7365,-166.3163 312.3211,-173.1723"/>
</g>
<!-- 6461&#45;&gt;2497 -->
<g id="edge43" class="edge">
<title>6461&#45;&gt;2497</title>
<path fill="none" stroke="#000000" d="M529.423,-220.4542C529.5064,-220.4699 529.5894,-220.4855 529.672,-220.501"/>
<polygon fill="#000000" stroke="#000000" points="519.4431,-222.1357 529.9189,-220.5475 520.7392,-215.2562 519.4431,-222.1357"/>
</g>
<!-- 6762&#45;&gt;2914 -->
<g id="edge44" class="edge">
<title>6762&#45;&gt;2914</title>
<path fill="none" stroke="#000000" d="M250.3382,-161.2171C250.4164,-161.2202 250.4942,-161.2232 250.5717,-161.2263"/>
<polygon fill="#000000" stroke="#000000" points="240.6711,-164.3333 250.8031,-161.2355 240.9507,-157.3388 240.6711,-164.3333"/>
</g>
<!-- 6904 -->
<g id="node32" class="node">
<title>6904</title>
<ellipse fill="none" stroke="#000000" cx="130.7059" cy="-94.2907" rx="28.6953" ry="18"/>
<text text-anchor="middle" x="130.7059" y="-90.5907" font-family="Times,serif" font-size="14.00" fill="#000000">6904</text>
</g>
<!-- 6904&#45;&gt;2687 -->
<g id="edge45" class="edge">
<title>6904&#45;&gt;2687</title>
<path fill="none" stroke="#000000" d="M114.9329,-79.1492C114.8882,-79.1063 114.8435,-79.0634 114.7988,-79.0205"/>
<polygon fill="#000000" stroke="#000000" points="124.3049,-83.2935 114.665,-78.8921 119.4561,-88.3443 124.3049,-83.2935"/>
</g>
<!-- 6939 -->
<g id="node33" class="node">
<title>6939</title>
<ellipse fill="none" stroke="#000000" cx="751.2501" cy="-316.938" rx="28.6953" ry="18"/>
<text text-anchor="middle" x="751.2501" y="-313.238" font-family="Times,serif" font-size="14.00" fill="#000000">6939</text>
</g>
<!-- 7016 -->
<g id="node34" class="node">
<title>7016</title>
<ellipse fill="none" stroke="#000000" cx="176.9201" cy="-97.8703" rx="28.6953" ry="18"/>
<text text-anchor="middle" x="176.9201" y="-94.1703" font-family="Times,serif" font-size="14.00" fill="#000000">7016</text>
</g>
<!-- 7922 -->
<g id="node39" class="node">
<title>7922</title>
<ellipse fill="none" stroke="#000000" cx="191.7322" cy="-76.9088" rx="28.6953" ry="18"/>
<text text-anchor="middle" x="191.7322" y="-73.2088" font-family="Times,serif" font-size="14.00" fill="#000000">7922</text>
</g>
<!-- 7016&#45;&gt;7922 -->
<g id="edge46" class="edge">
<title>7016&#45;&gt;7922</title>
<path fill="none" stroke="#000000" d="M188.5909,-81.3542C188.6483,-81.273 188.7051,-81.1925 188.7614,-81.1128"/>
<polygon fill="#000000" stroke="#000000" points="186.0149,-91.0639 188.9287,-80.8761 180.2977,-87.0232 186.0149,-91.0639"/>
</g>
<!-- 7018&#45;&gt;3320 -->
<g id="edge47" class="edge">
<title>7018&#45;&gt;3320</title>
<path fill="none" stroke="#000000" d="M644.1129,-244.1856C644.1561,-244.1985 644.1992,-244.2113 644.2422,-244.2242"/>
<polygon fill="#000000" stroke="#000000" points="633.7854,-244.7494 644.371,-244.2627 635.7924,-238.0419 633.7854,-244.7494"/>
</g>
<!-- 7473 -->
<g id="node36" class="node">
<title>7473</title>
<ellipse fill="none" stroke="#000000" cx="609.9404" cy="-296.4235" rx="28.6953" ry="18"/>
<text text-anchor="middle" x="609.9404" y="-292.7235" font-family="Times,serif" font-size="14.00" fill="#000000">7473</text>
</g>
<!-- 7474 -->
<g id="node37" class="node">
<title>7474</title>
<ellipse fill="none" stroke="#000000" cx="645.4183" cy="-155.62" rx="28.6953" ry="18"/>
<text text-anchor="middle" x="645.4183" y="-151.92" font-family="Times,serif" font-size="14.00" fill="#000000">7474</text>
</g>
<!-- 7545&#45;&gt;4635 -->
<g id="edge48" class="edge">
<title>7545&#45;&gt;4635</title>
<path fill="none" stroke="#000000" d="M661.4199,-59.3755C661.6005,-59.314 661.7618,-59.2591 661.9021,-59.2113"/>
<polygon fill="#000000" stroke="#000000" points="653.9209,-65.6281 662.2586,-59.0899 651.6634,-59.0016 653.9209,-65.6281"/>
</g>
<!-- 7545&#45;&gt;4739 -->
<g id="edge49" class="edge">
<title>7545&#45;&gt;4739</title>
<path fill="none" stroke="#000000" d="M618.8374,-53.1404C618.7612,-53.0751 618.6858,-53.0103 618.6112,-52.9463"/>
<polygon fill="#000000" stroke="#000000" points="628.2578,-56.6159 618.3896,-52.7559 623.6968,-61.9273 628.2578,-56.6159"/>
</g>
<!-- 9942 -->
<g id="node43" class="node">
<title>9942</title>
<ellipse fill="none" stroke="#000000" cx="640.5469" cy="-38.9755" rx="28.6953" ry="18"/>
<text text-anchor="middle" x="640.5469" y="-35.2755" font-family="Times,serif" font-size="14.00" fill="#000000">9942</text>
</g>
<!-- 7545&#45;&gt;9942 -->
<g id="edge50" class="edge">
<title>7545&#45;&gt;9942</title>
<path fill="none" stroke="#000000" d="M638.9014,-49.7783C638.9084,-49.7328 638.9153,-49.6873 638.9222,-49.6419"/>
<polygon fill="#000000" stroke="#000000" points="640.8911,-59.921 638.943,-49.5057 633.9709,-58.8626 640.8911,-59.921"/>
</g>
<!-- 9498&#45;&gt;4637 -->
<g id="edge51" class="edge">
<title>9498&#45;&gt;4637</title>
<path fill="none" stroke="#000000" d="M572.2364,-298.4222C572.1798,-298.4672 572.1235,-298.512 572.0673,-298.5566"/>
<polygon fill="#000000" stroke="#000000" points="577.5477,-289.7238 571.8997,-298.69 581.9063,-295.203 577.5477,-289.7238"/>
</g>
<!-- 9498&#45;&gt;7473 -->
<g id="edge52" class="edge">
<title>9498&#45;&gt;7473</title>
<path fill="none" stroke="#000000" d="M609.8833,-296.3886C609.8927,-296.3944 609.901,-296.3994 609.9081,-296.4038"/>
<polygon fill="#000000" stroke="#000000" points="599.5535,-294.165 609.926,-296.4147 603.2203,-288.1876 599.5535,-294.165"/>
</g>
<!-- 10026 -->
<g id="node44" class="node">
<title>10026</title>
<ellipse fill="none" stroke="#000000" cx="598.1769" cy="-321.9217" rx="32.4942" ry="18"/>
<text text-anchor="middle" x="598.1769" y="-318.2217" font-family="Times,serif" font-size="14.00" fill="#000000">10026</text>
</g>
<!-- 9498&#45;&gt;10026 -->
<g id="edge53" class="edge">
<title>9498&#45;&gt;10026</title>
<path fill="none" stroke="#000000" d="M593.919,-302.2084C593.9517,-302.3599 593.9845,-302.5116 594.0172,-302.6633"/>
<polygon fill="#000000" stroke="#000000" points="588.7792,-294.9928 594.3121,-304.0283 595.6214,-293.5146 588.7792,-294.9928"/>
</g>
<!-- 10026&#45;&gt;4755 -->
<g id="edge54" class="edge">
<title>10026&#45;&gt;4755</title>
<path fill="none" stroke="#000000" d="M602.7112,-339.9463C602.7241,-339.9974 602.7369,-340.0485 602.7498,-340.0995"/>
<polygon fill="#000000" stroke="#000000" points="596.9495,-331.4099 602.7882,-340.2524 603.7381,-329.6988 596.9495,-331.4099"/>
</g>
<!-- 12956 -->
<g id="node47" class="node">
<title>12956</title>
<ellipse fill="none" stroke="#000000" cx="165.71" cy="-243.1097" rx="32.4942" ry="18"/>
<text text-anchor="middle" x="165.71" y="-239.4097" font-family="Times,serif" font-size="14.00" fill="#000000">12956</text>
</g>
<!-- 10834&#45;&gt;12956 -->
<g id="edge55" class="edge">
<title>10834&#45;&gt;12956</title>
<path fill="none" stroke="#000000" d="M161.6567,-269.2835C161.6696,-269.2 161.6825,-269.1164 161.6955,-269.0328"/>
<polygon fill="#000000" stroke="#000000" points="164.8396,-271.5995 162.9113,-261.1817 157.9221,-270.5282 164.8396,-271.5995"/>
</g>
<!-- 22927 -->
<g id="node50" class="node">
<title>22927</title>
<ellipse fill="none" stroke="#000000" cx="137.3772" cy="-270.7233" rx="32.4942" ry="18"/>
<text text-anchor="middle" x="137.3772" y="-267.0233" font-family="Times,serif" font-size="14.00" fill="#000000">22927</text>
</g>
<!-- 10834&#45;&gt;22927 -->
<g id="edge56" class="edge">
<title>10834&#45;&gt;22927</title>
<path fill="none" stroke="#000000" d="M139.6781,-272.4896C139.5897,-272.4218 139.5034,-272.3555 139.4193,-272.2909"/>
<polygon fill="#000000" stroke="#000000" points="149.2379,-275.416 139.1733,-272.1021 144.9746,-280.9691 149.2379,-275.416"/>
</g>
<!-- 12956&#45;&gt;3356 -->
<g id="edge57" class="edge">
<title>12956&#45;&gt;3356</title>
<path fill="none" stroke="#000000" d="M169.0494,-224.8171C169.0692,-224.7087 169.089,-224.6002 169.1088,-224.4917"/>
<polygon fill="#000000" stroke="#000000" points="171.6498,-230.0612 170.0027,-219.5952 164.7636,-228.804 171.6498,-230.0612"/>
</g>
<!-- 17676&#45;&gt;6939 -->
<g id="edge58" class="edge">
<title>17676&#45;&gt;6939</title>
<path fill="none" stroke="#000000" d="M748.9496,-314.282C748.9931,-314.3323 749.0361,-314.3819 749.0786,-314.431"/>
<polygon fill="#000000" stroke="#000000" points="740.0097,-309.3089 749.2048,-314.5766 745.3016,-304.7246 740.0097,-309.3089"/>
</g>
<!-- 18540 -->
<g id="node49" class="node">
<title>18540</title>
<ellipse fill="none" stroke="#000000" cx="138.9112" cy="-133.0783" rx="32.4942" ry="18"/>
<text text-anchor="middle" x="138.9112" y="-129.3783" font-family="Times,serif" font-size="14.00" fill="#000000">18540</text>
</g>
<!-- 30070&#45;&gt;6904 -->
<g id="edge59" class="edge">
<title>30070&#45;&gt;6904</title>
<path fill="none" stroke="#000000" d="M143.1907,-106.2864C143.1397,-106.2374 143.0888,-106.1885 143.0379,-106.1396"/>
<polygon fill="#000000" stroke="#000000" points="152.5231,-110.3987 142.8854,-105.9931 147.6721,-115.4472 152.5231,-110.3987"/>
</g>
<!-- 30070&#45;&gt;7016 -->
<g id="edge60" class="edge">
<title>30070&#45;&gt;7016</title>
<path fill="none" stroke="#000000" d="M171.6744,-105.3005C171.7202,-105.2357 171.7658,-105.171 171.8113,-105.1066"/>
<polygon fill="#000000" stroke="#000000" points="169.0376,-115.1033 171.9472,-104.914 163.3185,-111.0648 169.0376,-115.1033"/>
</g>
<!-- 30070&#45;&gt;18540 -->
<g id="edge61" class="edge">
<title>30070&#45;&gt;18540</title>
<path fill="none" stroke="#000000" d="M138.971,-133.047C138.9611,-133.0522 138.9524,-133.0567 138.945,-133.0606"/>
<polygon fill="#000000" stroke="#000000" points="146.166,-125.311 138.9263,-133.0704 149.4246,-131.5193 146.166,-125.311"/>
</g>
<!-- 32787&#45;&gt;2764 -->
<g id="edge62" class="edge">
<title>32787&#45;&gt;2764</title>
<path fill="none" stroke="#000000" d="M623.4898,-133.396C623.5106,-133.2363 623.5314,-133.0764 623.5522,-132.9162"/>
<polygon fill="#000000" stroke="#000000" points="626.6768,-136.0293 624.4955,-125.6615 619.7352,-135.1267 626.6768,-136.0293"/>
</g>
<!-- 32787&#45;&gt;7474 -->
<g id="edge63" class="edge">
<title>32787&#45;&gt;7474</title>
<path fill="none" stroke="#000000" d="M645.3487,-155.6082C645.3601,-155.6102 645.3702,-155.6119 645.3789,-155.6133"/>
<polygon fill="#000000" stroke="#000000" points="634.9447,-157.3713 645.4007,-155.617 636.1329,-150.4679 634.9447,-157.3713"/>
</g>
<!-- 38333&#45;&gt;1221 -->
<g id="edge64" class="edge">
<title>38333&#45;&gt;1221</title>
<path fill="none" stroke="#000000" d="M575.6663,-87.1603C575.6548,-87.1558 575.6446,-87.1518 575.6359,-87.1484"/>
<polygon fill="#000000" stroke="#000000" points="586.2137,-87.562 575.614,-87.1398 583.6369,-94.08 586.2137,-87.562"/>
</g>
</g>
</svg>
