<?xml version="1.0" encoding="UTF-8" standalone="no"?>
<!DOCTYPE svg PUBLIC "-//W3C//DTD SVG 1.1//EN"
 "http://www.w3.org/Graphics/SVG/1.1/DTD/svg11.dtd">
<!-- Generated by graphviz version 2.40.1 (20161225.0304)
 -->
<!-- Title: %3 Pages: 1 -->
<svg width="11866pt" height="5160pt"
 viewBox="0.00 0.00 11865.85 5160.31" xmlns="http://www.w3.org/2000/svg" xmlns:xlink="http://www.w3.org/1999/xlink">
<g id="graph0" class="graph" transform="scale(1 1) rotate(0) translate(4 5156.308)">
<title>%3</title>
<polygon fill="#ffffff" stroke="transparent" points="-4,4 -4,-5156.308 11861.8455,-5156.308 11861.8455,4 -4,4"/>
<!-- 174 -->
<g id="node1" class="node">
<title>174</title>
<ellipse fill="none" stroke="#000000" cx="5553.3114" cy="-2739.5975" rx="27" ry="18"/>
<text text-anchor="middle" x="5553.3114" y="-2735.8975" font-family="Times,serif" font-size="14.00" fill="#000000">174</text>
</g>
<!-- 209 -->
<g id="node2" class="node">
<title>209</title>
<ellipse fill="none" stroke="#000000" cx="5679.3114" cy="-2739.5975" rx="27" ry="18"/>
<text text-anchor="middle" x="5679.3114" y="-2735.8975" font-family="Times,serif" font-size="14.00" fill="#000000">209</text>
</g>
<!-- 174&#45;&gt;209 -->
<g id="edge1" class="edge">
<title>174&#45;&gt;209</title>
<path fill="none" stroke="#000000" d="M5580.3415,-2739.5975C5598.2395,-2739.5975 5621.9623,-2739.5975 5641.6953,-2739.5975"/>
<polygon fill="#000000" stroke="#000000" points="5641.8912,-2743.0976 5651.8911,-2739.5975 5641.8911,-2736.0976 5641.8912,-2743.0976"/>
</g>
<!-- 1299 -->
<g id="node8" class="node">
<title>1299</title>
<ellipse fill="none" stroke="#000000" cx="5806.9088" cy="-2739.5975" rx="28.6953" ry="18"/>
<text text-anchor="middle" x="5806.9088" y="-2735.8975" font-family="Times,serif" font-size="14.00" fill="#000000">1299</text>
</g>
<!-- 209&#45;&gt;1299 -->
<g id="edge2" class="edge">
<title>209&#45;&gt;1299</title>
<path fill="none" stroke="#000000" d="M5706.3715,-2739.5975C5724.3126,-2739.5975 5748.1338,-2739.5975 5768.0853,-2739.5975"/>
<polygon fill="#000000" stroke="#000000" points="5768.1144,-2743.0976 5778.1144,-2739.5975 5768.1143,-2736.0976 5768.1144,-2743.0976"/>
</g>
<!-- 701 -->
<g id="node3" class="node">
<title>701</title>
<ellipse fill="none" stroke="#000000" cx="10468.7323" cy="-2739.5975" rx="27" ry="18"/>
<text text-anchor="middle" x="10468.7323" y="-2735.8975" font-family="Times,serif" font-size="14.00" fill="#000000">701</text>
</g>
<!-- 703 -->
<g id="node4" class="node">
<title>703</title>
<ellipse fill="none" stroke="#000000" cx="10468.7323" cy="-538.6794" rx="27" ry="18"/>
<text text-anchor="middle" x="10468.7323" y="-534.9794" font-family="Times,serif" font-size="14.00" fill="#000000">703</text>
</g>
<!-- 701&#45;&gt;703 -->
<g id="edge3" class="edge">
<title>701&#45;&gt;703</title>
<path fill="none" stroke="#000000" d="M10468.7323,-2721.5578C10468.7323,-2526.3469 10468.7323,-807.8677 10468.7323,-566.74"/>
<polygon fill="#000000" stroke="#000000" points="10472.2324,-566.6798 10468.7323,-556.6799 10465.2324,-566.6799 10472.2324,-566.6798"/>
</g>
<!-- 7018 -->
<g id="node35" class="node">
<title>7018</title>
<ellipse fill="none" stroke="#000000" cx="10468.7323" cy="-4480.534" rx="28.6953" ry="18"/>
<text text-anchor="middle" x="10468.7323" y="-4476.834" font-family="Times,serif" font-size="14.00" fill="#000000">7018</text>
</g>
<!-- 701&#45;&gt;7018 -->
<g id="edge4" class="edge">
<title>701&#45;&gt;7018</title>
<path fill="none" stroke="#000000" d="M10468.7323,-2757.682C10468.7323,-2927.5767 10468.7323,-4241.9027 10468.7323,-4452.1964"/>
<polygon fill="#000000" stroke="#000000" points="10465.2324,-4452.4113 10468.7323,-4462.4113 10472.2324,-4452.4114 10465.2324,-4452.4113"/>
</g>
<!-- 2516 -->
<g id="node10" class="node">
<title>2516</title>
<ellipse fill="none" stroke="#000000" cx="10341.1349" cy="-538.6794" rx="28.6953" ry="18"/>
<text text-anchor="middle" x="10341.1349" y="-534.9794" font-family="Times,serif" font-size="14.00" fill="#000000">2516</text>
</g>
<!-- 703&#45;&gt;2516 -->
<g id="edge5" class="edge">
<title>703&#45;&gt;2516</title>
<path fill="none" stroke="#000000" d="M10441.6722,-538.6794C10423.7311,-538.6794 10399.9099,-538.6794 10379.9584,-538.6794"/>
<polygon fill="#000000" stroke="#000000" points="10379.9294,-535.1795 10369.9293,-538.6794 10379.9293,-542.1795 10379.9294,-535.1795"/>
</g>
<!-- 9498 -->
<g id="node40" class="node">
<title>9498</title>
<ellipse fill="none" stroke="#000000" cx="11569.1914" cy="-538.6794" rx="28.6953" ry="18"/>
<text text-anchor="middle" x="11569.1914" y="-534.9794" font-family="Times,serif" font-size="14.00" fill="#000000">9498</text>
</g>
<!-- 703&#45;&gt;9498 -->
<g id="edge6" class="edge">
<title>703&#45;&gt;9498</title>
<path fill="none" stroke="#000000" d="M10495.9349,-538.6794C10644.3266,-538.6794 11355.7988,-538.6794 11530.4249,-538.6794"/>
<polygon fill="#000000" stroke="#000000" points="11530.4455,-542.1795 11540.4455,-538.6794 11530.4455,-535.1795 11530.4455,-542.1795"/>
</g>
<!-- 1221 -->
<g id="node5" class="node">
<title>1221</title>
<ellipse fill="none" stroke="#000000" cx="9225.195" cy="-1376.6848" rx="28.6953" ry="18"/>
<text text-anchor="middle" x="9225.195" y="-1372.9848" font-family="Times,serif" font-size="14.00" fill="#000000">1221</text>
</g>
<!-- 1239 -->
<g id="node6" class="node">
<title>1239</title>
<ellipse fill="none" stroke="#000000" cx="10468.7323" cy="-5134.308" rx="28.6953" ry="18"/>
<text text-anchor="middle" x="10468.7323" y="-5130.608" font-family="Times,serif" font-size="14.00" fill="#000000">1239</text>
</g>
<!-- 5511 -->
<g id="node27" class="node">
<title>5511</title>
<ellipse fill="none" stroke="#000000" cx="10666.4244" cy="-5134.308" rx="28.6953" ry="18"/>
<text text-anchor="middle" x="10666.4244" y="-5130.608" font-family="Times,serif" font-size="14.00" fill="#000000">5511</text>
</g>
<!-- 1239&#45;&gt;5511 -->
<g id="edge7" class="edge">
<title>1239&#45;&gt;5511</title>
<path fill="none" stroke="#000000" d="M10497.4785,-5134.308C10531.7385,-5134.308 10589.1462,-5134.308 10627.3978,-5134.308"/>
<polygon fill="#000000" stroke="#000000" points="10627.6436,-5137.8081 10637.6436,-5134.308 10627.6435,-5130.8081 10627.6436,-5137.8081"/>
</g>
<!-- 17676 -->
<g id="node48" class="node">
<title>17676</title>
<ellipse fill="none" stroke="#000000" cx="10335.6378" cy="-5134.308" rx="32.4942" ry="18"/>
<text text-anchor="middle" x="10335.6378" y="-5130.608" font-family="Times,serif" font-size="14.00" fill="#000000">17676</text>
</g>
<!-- 1239&#45;&gt;17676 -->
<g id="edge8" class="edge">
<title>1239&#45;&gt;17676</title>
<path fill="none" stroke="#000000" d="M10439.8528,-5134.308C10421.8838,-5134.308 10398.4516,-5134.308 10378.3582,-5134.308"/>
<polygon fill="#000000" stroke="#000000" points="10378.2017,-5130.8081 10368.2017,-5134.308 10378.2017,-5137.8081 10378.2017,-5130.8081"/>
</g>
<!-- 1273 -->
<g id="node7" class="node">
<title>1273</title>
<ellipse fill="none" stroke="#000000" cx="10468.7323" cy="-4738.9239" rx="28.6953" ry="18"/>
<text text-anchor="middle" x="10468.7323" y="-4735.2239" font-family="Times,serif" font-size="14.00" fill="#000000">1273</text>
</g>
<!-- 1273&#45;&gt;1239 -->
<g id="edge9" class="edge">
<title>1273&#45;&gt;1239</title>
<path fill="none" stroke="#000000" d="M10468.7323,-4756.9401C10468.7323,-4819.7198 10468.7323,-5029.1878 10468.7323,-5105.869"/>
<polygon fill="#000000" stroke="#000000" points="10465.2324,-5106.1859 10468.7323,-5116.1859 10472.2324,-5106.1859 10465.2324,-5106.1859"/>
</g>
<!-- 6461 -->
<g id="node30" class="node">
<title>6461</title>
<ellipse fill="none" stroke="#000000" cx="5936.1037" cy="-2739.5975" rx="28.6953" ry="18"/>
<text text-anchor="middle" x="5936.1037" y="-2735.8975" font-family="Times,serif" font-size="14.00" fill="#000000">6461</text>
</g>
<!-- 1299&#45;&gt;6461 -->
<g id="edge10" class="edge">
<title>1299&#45;&gt;6461</title>
<path fill="none" stroke="#000000" d="M5835.5814,-2739.5975C5853.6035,-2739.5975 5877.0957,-2739.5975 5896.8374,-2739.5975"/>
<polygon fill="#000000" stroke="#000000" points="5897.0646,-2743.0976 5907.0646,-2739.5975 5897.0646,-2736.0976 5897.0646,-2743.0976"/>
</g>
<!-- 2497 -->
<g id="node9" class="node">
<title>2497</title>
<ellipse fill="none" stroke="#000000" cx="6065.2987" cy="-2739.5975" rx="28.6953" ry="18"/>
<text text-anchor="middle" x="6065.2987" y="-2735.8975" font-family="Times,serif" font-size="14.00" fill="#000000">2497</text>
</g>
<!-- 2497&#45;&gt;701 -->
<g id="edge11" class="edge">
<title>2497&#45;&gt;701</title>
<path fill="none" stroke="#000000" d="M6093.9974,-2739.5975C6451.0776,-2739.5975 10027.1641,-2739.5975 10431.5731,-2739.5975"/>
<polygon fill="#000000" stroke="#000000" points="10431.5782,-2743.0976 10441.5782,-2739.5975 10431.5782,-2736.0976 10431.5782,-2743.0976"/>
</g>
<!-- 32787 -->
<g id="node54" class="node">
<title>32787</title>
<ellipse fill="none" stroke="#000000" cx="9303.6758" cy="-538.6794" rx="32.4942" ry="18"/>
<text text-anchor="middle" x="9303.6758" y="-534.9794" font-family="Times,serif" font-size="14.00" fill="#000000">32787</text>
</g>
<!-- 2516&#45;&gt;32787 -->
<g id="edge12" class="edge">
<title>2516&#45;&gt;32787</title>
<path fill="none" stroke="#000000" d="M10312.3045,-538.6794C10167.5046,-538.6794 9519.7171,-538.6794 9346.4258,-538.6794"/>
<polygon fill="#000000" stroke="#000000" points="9346.408,-535.1795 9336.4079,-538.6794 9346.4079,-542.1795 9346.408,-535.1795"/>
</g>
<!-- 2686 -->
<g id="node11" class="node">
<title>2686</title>
<ellipse fill="none" stroke="#000000" cx="1115.8187" cy="-3530.4989" rx="28.6953" ry="18"/>
<text text-anchor="middle" x="1115.8187" y="-3526.7989" font-family="Times,serif" font-size="14.00" fill="#000000">2686</text>
</g>
<!-- 3741 -->
<g id="node22" class="node">
<title>3741</title>
<ellipse fill="none" stroke="#000000" cx="1062.0146" cy="-3413.0407" rx="28.6953" ry="18"/>
<text text-anchor="middle" x="1062.0146" y="-3409.3407" font-family="Times,serif" font-size="14.00" fill="#000000">3741</text>
</g>
<!-- 2686&#45;&gt;3741 -->
<g id="edge13" class="edge">
<title>2686&#45;&gt;3741</title>
<path fill="none" stroke="#000000" d="M1107.8797,-3513.1675C1099.0185,-3493.8228 1084.5722,-3462.2857 1074.2608,-3439.7749"/>
<polygon fill="#000000" stroke="#000000" points="1077.3328,-3438.0771 1069.9861,-3430.4431 1070.9687,-3440.9923 1077.3328,-3438.0771"/>
</g>
<!-- 2687 -->
<g id="node12" class="node">
<title>2687</title>
<ellipse fill="none" stroke="#000000" cx="1169.6229" cy="-3647.9572" rx="28.6953" ry="18"/>
<text text-anchor="middle" x="1169.6229" y="-3644.2572" font-family="Times,serif" font-size="14.00" fill="#000000">2687</text>
</g>
<!-- 2687&#45;&gt;2686 -->
<g id="edge14" class="edge">
<title>2687&#45;&gt;2686</title>
<path fill="none" stroke="#000000" d="M1161.6839,-3630.6258C1152.8226,-3611.2811 1138.3764,-3579.7439 1128.0649,-3557.2332"/>
<polygon fill="#000000" stroke="#000000" points="1131.137,-3555.5353 1123.7903,-3547.9014 1124.7729,-3558.4506 1131.137,-3555.5353"/>
</g>
<!-- 9505 -->
<g id="node41" class="node">
<title>9505</title>
<ellipse fill="none" stroke="#000000" cx="1278.8552" cy="-3886.4191" rx="28.6953" ry="18"/>
<text text-anchor="middle" x="1278.8552" y="-3882.7191" font-family="Times,serif" font-size="14.00" fill="#000000">9505</text>
</g>
<!-- 2687&#45;&gt;9505 -->
<g id="edge15" class="edge">
<title>2687&#45;&gt;9505</title>
<path fill="none" stroke="#000000" d="M1177.655,-3665.4918C1196.5534,-3706.7484 1243.9346,-3810.1849 1266.515,-3859.4794"/>
<polygon fill="#000000" stroke="#000000" points="1263.4647,-3861.2248 1270.8113,-3868.8587 1269.8288,-3858.3095 1263.4647,-3861.2248"/>
</g>
<!-- 2764 -->
<g id="node13" class="node">
<title>2764</title>
<ellipse fill="none" stroke="#000000" cx="9303.6758" cy="-1059.3587" rx="28.6953" ry="18"/>
<text text-anchor="middle" x="9303.6758" y="-1055.6587" font-family="Times,serif" font-size="14.00" fill="#000000">2764</text>
</g>
<!-- 7545 -->
<g id="node38" class="node">
<title>7545</title>
<ellipse fill="none" stroke="#000000" cx="9527.1223" cy="-929.6013" rx="28.6953" ry="18"/>
<text text-anchor="middle" x="9527.1223" y="-925.9013" font-family="Times,serif" font-size="14.00" fill="#000000">7545</text>
</g>
<!-- 2764&#45;&gt;7545 -->
<g id="edge16" class="edge">
<title>2764&#45;&gt;7545</title>
<path fill="none" stroke="#000000" d="M9324.6971,-1047.1514C9364.5393,-1024.0147 9451.1605,-973.7131 9497.1059,-947.0322"/>
<polygon fill="#000000" stroke="#000000" points="9499.1041,-949.9192 9505.9941,-941.8707 9495.5888,-943.8658 9499.1041,-949.9192"/>
</g>
<!-- 38333 -->
<g id="node56" class="node">
<title>38333</title>
<ellipse fill="none" stroke="#000000" cx="9257.1491" cy="-1247.483" rx="32.4942" ry="18"/>
<text text-anchor="middle" x="9257.1491" y="-1243.783" font-family="Times,serif" font-size="14.00" fill="#000000">38333</text>
</g>
<!-- 2764&#45;&gt;38333 -->
<g id="edge17" class="edge">
<title>2764&#45;&gt;38333</title>
<path fill="none" stroke="#000000" d="M9299.2147,-1077.3969C9291.0684,-1110.3352 9273.7345,-1180.4221 9264.0536,-1219.5657"/>
<polygon fill="#000000" stroke="#000000" points="9260.6001,-1218.9516 9261.5968,-1229.4995 9267.3953,-1220.6323 9260.6001,-1218.9516"/>
</g>
<!-- 38561 -->
<g id="node57" class="node">
<title>38561</title>
<ellipse fill="none" stroke="#000000" cx="9080.2293" cy="-929.6013" rx="32.4942" ry="18"/>
<text text-anchor="middle" x="9080.2293" y="-925.9013" font-family="Times,serif" font-size="14.00" fill="#000000">38561</text>
</g>
<!-- 2764&#45;&gt;38561 -->
<g id="edge18" class="edge">
<title>2764&#45;&gt;38561</title>
<path fill="none" stroke="#000000" d="M9282.6545,-1047.1514C9243.1366,-1024.203 9157.5979,-974.5299 9111.3755,-947.6882"/>
<polygon fill="#000000" stroke="#000000" points="9113.0858,-944.6341 9102.6805,-942.6389 9109.5706,-950.6874 9113.0858,-944.6341"/>
</g>
<!-- 2828 -->
<g id="node14" class="node">
<title>2828</title>
<ellipse fill="none" stroke="#000000" cx="11442.5043" cy="-237.3399" rx="28.6953" ry="18"/>
<text text-anchor="middle" x="11442.5043" y="-233.6399" font-family="Times,serif" font-size="14.00" fill="#000000">2828</text>
</g>
<!-- 2914 -->
<g id="node15" class="node">
<title>2914</title>
<ellipse fill="none" stroke="#000000" cx="3065.3956" cy="-2739.5975" rx="28.6953" ry="18"/>
<text text-anchor="middle" x="3065.3956" y="-2735.8975" font-family="Times,serif" font-size="14.00" fill="#000000">2914</text>
</g>
<!-- 6453 -->
<g id="node29" class="node">
<title>6453</title>
<ellipse fill="none" stroke="#000000" cx="3194.5905" cy="-2739.5975" rx="28.6953" ry="18"/>
<text text-anchor="middle" x="3194.5905" y="-2735.8975" font-family="Times,serif" font-size="14.00" fill="#000000">6453</text>
</g>
<!-- 2914&#45;&gt;6453 -->
<g id="edge19" class="edge">
<title>2914&#45;&gt;6453</title>
<path fill="none" stroke="#000000" d="M3094.0681,-2739.5975C3112.0902,-2739.5975 3135.5825,-2739.5975 3155.3242,-2739.5975"/>
<polygon fill="#000000" stroke="#000000" points="3155.5514,-2743.0976 3165.5513,-2739.5975 3155.5513,-2736.0976 3155.5514,-2743.0976"/>
</g>
<!-- 3257 -->
<g id="node16" class="node">
<title>3257</title>
<ellipse fill="none" stroke="#000000" cx="3323.7854" cy="-2739.5975" rx="28.6953" ry="18"/>
<text text-anchor="middle" x="3323.7854" y="-2735.8975" font-family="Times,serif" font-size="14.00" fill="#000000">3257</text>
</g>
<!-- 3491 -->
<g id="node19" class="node">
<title>3491</title>
<ellipse fill="none" stroke="#000000" cx="3452.9803" cy="-2739.5975" rx="28.6953" ry="18"/>
<text text-anchor="middle" x="3452.9803" y="-2735.8975" font-family="Times,serif" font-size="14.00" fill="#000000">3491</text>
</g>
<!-- 3257&#45;&gt;3491 -->
<g id="edge20" class="edge">
<title>3257&#45;&gt;3491</title>
<path fill="none" stroke="#000000" d="M3352.4579,-2739.5975C3370.4801,-2739.5975 3393.9723,-2739.5975 3413.714,-2739.5975"/>
<polygon fill="#000000" stroke="#000000" points="3413.9412,-2743.0976 3423.9412,-2739.5975 3413.9412,-2736.0976 3413.9412,-2743.0976"/>
</g>
<!-- 3320 -->
<g id="node17" class="node">
<title>3320</title>
<ellipse fill="none" stroke="#000000" cx="10468.7323" cy="-4609.729" rx="28.6953" ry="18"/>
<text text-anchor="middle" x="10468.7323" y="-4606.029" font-family="Times,serif" font-size="14.00" fill="#000000">3320</text>
</g>
<!-- 3320&#45;&gt;1273 -->
<g id="edge21" class="edge">
<title>3320&#45;&gt;1273</title>
<path fill="none" stroke="#000000" d="M10468.7323,-4627.9654C10468.7323,-4649.5104 10468.7323,-4685.5977 10468.7323,-4710.7463"/>
<polygon fill="#000000" stroke="#000000" points="10465.2324,-4710.7801 10468.7323,-4720.7802 10472.2324,-4710.7802 10465.2324,-4710.7801"/>
</g>
<!-- 3356 -->
<g id="node18" class="node">
<title>3356</title>
<ellipse fill="none" stroke="#000000" cx="571.6954" cy="-2367.0221" rx="28.6953" ry="18"/>
<text text-anchor="middle" x="571.6954" y="-2363.3221" font-family="Times,serif" font-size="14.00" fill="#000000">3356</text>
</g>
<!-- 3549 -->
<g id="node20" class="node">
<title>3549</title>
<ellipse fill="none" stroke="#000000" cx="571.6954" cy="-2739.5975" rx="28.6953" ry="18"/>
<text text-anchor="middle" x="571.6954" y="-2735.8975" font-family="Times,serif" font-size="14.00" fill="#000000">3549</text>
</g>
<!-- 3356&#45;&gt;3549 -->
<g id="edge22" class="edge">
<title>3356&#45;&gt;3549</title>
<path fill="none" stroke="#000000" d="M571.6954,-2385.2444C571.6954,-2445.4156 571.6954,-2638.0749 571.6954,-2711.1378"/>
<polygon fill="#000000" stroke="#000000" points="568.1955,-2711.4102 571.6954,-2721.4102 575.1955,-2711.4103 568.1955,-2711.4102"/>
</g>
<!-- 3491&#45;&gt;174 -->
<g id="edge23" class="edge">
<title>3491&#45;&gt;174</title>
<path fill="none" stroke="#000000" d="M3481.872,-2739.5975C3712.7099,-2739.5975 5255.5434,-2739.5975 5516.0034,-2739.5975"/>
<polygon fill="#000000" stroke="#000000" points="5516.0884,-2743.0976 5526.0883,-2739.5975 5516.0883,-2736.0976 5516.0884,-2743.0976"/>
</g>
<!-- 6762 -->
<g id="node31" class="node">
<title>6762</title>
<ellipse fill="none" stroke="#000000" cx="2936.2006" cy="-2739.5975" rx="28.6953" ry="18"/>
<text text-anchor="middle" x="2936.2006" y="-2735.8975" font-family="Times,serif" font-size="14.00" fill="#000000">6762</text>
</g>
<!-- 3549&#45;&gt;6762 -->
<g id="edge24" class="edge">
<title>3549&#45;&gt;6762</title>
<path fill="none" stroke="#000000" d="M600.3163,-2739.5975C846.9122,-2739.5975 2610.6567,-2739.5975 2896.9733,-2739.5975"/>
<polygon fill="#000000" stroke="#000000" points="2897.2789,-2743.0976 2907.2789,-2739.5975 2897.2789,-2736.0976 2897.2789,-2743.0976"/>
</g>
<!-- 30070 -->
<g id="node53" class="node">
<title>30070</title>
<ellipse fill="none" stroke="#000000" cx="571.6954" cy="-3921.8501" rx="32.4942" ry="18"/>
<text text-anchor="middle" x="571.6954" y="-3918.1501" font-family="Times,serif" font-size="14.00" fill="#000000">30070</text>
</g>
<!-- 3549&#45;&gt;30070 -->
<g id="edge25" class="edge">
<title>3549&#45;&gt;30070</title>
<path fill="none" stroke="#000000" d="M571.6954,-2757.6947C571.6954,-2891.5945 571.6954,-3727.832 571.6954,-3893.388"/>
<polygon fill="#000000" stroke="#000000" points="568.1955,-3893.7211 571.6954,-3903.7211 575.1955,-3893.7211 568.1955,-3893.7211"/>
</g>
<!-- 3597 -->
<g id="node21" class="node">
<title>3597</title>
<ellipse fill="none" stroke="#000000" cx="722.1828" cy="-1356.2092" rx="28.6953" ry="18"/>
<text text-anchor="middle" x="722.1828" y="-1352.5092" font-family="Times,serif" font-size="14.00" fill="#000000">3597</text>
</g>
<!-- 37179 -->
<g id="node55" class="node">
<title>37179</title>
<ellipse fill="none" stroke="#000000" cx="1006.5864" cy="-3292.037" rx="32.4942" ry="18"/>
<text text-anchor="middle" x="1006.5864" y="-3288.337" font-family="Times,serif" font-size="14.00" fill="#000000">37179</text>
</g>
<!-- 3741&#45;&gt;37179 -->
<g id="edge26" class="edge">
<title>3741&#45;&gt;37179</title>
<path fill="none" stroke="#000000" d="M1054.0731,-3395.7038C1044.9057,-3375.6907 1029.7155,-3342.5295 1018.9874,-3319.1093"/>
<polygon fill="#000000" stroke="#000000" points="1022.0401,-3317.3692 1014.6934,-3309.7352 1015.676,-3320.2844 1022.0401,-3317.3692"/>
</g>
<!-- 4635 -->
<g id="node23" class="node">
<title>4635</title>
<ellipse fill="none" stroke="#000000" cx="9415.0741" cy="-865.2855" rx="28.6953" ry="18"/>
<text text-anchor="middle" x="9415.0741" y="-861.5855" font-family="Times,serif" font-size="14.00" fill="#000000">4635</text>
</g>
<!-- 4637 -->
<g id="node24" class="node">
<title>4637</title>
<ellipse fill="none" stroke="#000000" cx="11492.5746" cy="-356.4377" rx="28.6953" ry="18"/>
<text text-anchor="middle" x="11492.5746" y="-352.7377" font-family="Times,serif" font-size="14.00" fill="#000000">4637</text>
</g>
<!-- 4637&#45;&gt;2828 -->
<g id="edge27" class="edge">
<title>4637&#45;&gt;2828</title>
<path fill="none" stroke="#000000" d="M11485.1865,-338.8644C11476.9402,-319.2497 11463.4965,-287.2723 11453.9006,-264.4473"/>
<polygon fill="#000000" stroke="#000000" points="11457.0247,-262.8473 11449.9226,-254.9853 11450.5718,-265.5602 11457.0247,-262.8473"/>
</g>
<!-- 4739 -->
<g id="node25" class="node">
<title>4739</title>
<ellipse fill="none" stroke="#000000" cx="9638.8456" cy="-864.7226" rx="28.6953" ry="18"/>
<text text-anchor="middle" x="9638.8456" y="-861.0226" font-family="Times,serif" font-size="14.00" fill="#000000">4739</text>
</g>
<!-- 4755 -->
<g id="node26" class="node">
<title>4755</title>
<ellipse fill="none" stroke="#000000" cx="11466.0281" cy="-784.0648" rx="28.6953" ry="18"/>
<text text-anchor="middle" x="11466.0281" y="-780.3648" font-family="Times,serif" font-size="14.00" fill="#000000">4755</text>
</g>
<!-- 9583 -->
<g id="node42" class="node">
<title>9583</title>
<ellipse fill="none" stroke="#000000" cx="11415.9578" cy="-903.1626" rx="28.6953" ry="18"/>
<text text-anchor="middle" x="11415.9578" y="-899.4626" font-family="Times,serif" font-size="14.00" fill="#000000">9583</text>
</g>
<!-- 4755&#45;&gt;9583 -->
<g id="edge28" class="edge">
<title>4755&#45;&gt;9583</title>
<path fill="none" stroke="#000000" d="M11458.6401,-801.6381C11450.3937,-821.2528 11436.95,-853.2302 11427.3541,-876.0552"/>
<polygon fill="#000000" stroke="#000000" points="11424.0253,-874.9423 11423.3761,-885.5172 11430.4782,-877.6552 11424.0253,-874.9423"/>
</g>
<!-- 5692 -->
<g id="node28" class="node">
<title>5692</title>
<ellipse fill="none" stroke="#000000" cx="976.534" cy="-1424.2503" rx="28.6953" ry="18"/>
<text text-anchor="middle" x="976.534" y="-1420.5503" font-family="Times,serif" font-size="14.00" fill="#000000">5692</text>
</g>
<!-- 5692&#45;&gt;3597 -->
<g id="edge29" class="edge">
<title>5692&#45;&gt;3597</title>
<path fill="none" stroke="#000000" d="M949.7947,-1417.0973C903.8781,-1404.8142 810.0038,-1379.7021 758.3129,-1365.8743"/>
<polygon fill="#000000" stroke="#000000" points="759.1287,-1362.4695 748.5638,-1363.2664 757.3197,-1369.2318 759.1287,-1362.4695"/>
</g>
<!-- 10834 -->
<g id="node45" class="node">
<title>10834</title>
<ellipse fill="none" stroke="#000000" cx="571.6954" cy="-1424.2503" rx="32.4942" ry="18"/>
<text text-anchor="middle" x="571.6954" y="-1420.5503" font-family="Times,serif" font-size="14.00" fill="#000000">10834</text>
</g>
<!-- 5692&#45;&gt;10834 -->
<g id="edge30" class="edge">
<title>5692&#45;&gt;10834</title>
<path fill="none" stroke="#000000" d="M947.7436,-1424.2503C877.4974,-1424.2503 697.032,-1424.2503 614.2938,-1424.2503"/>
<polygon fill="#000000" stroke="#000000" points="614.2303,-1420.7504 604.2303,-1424.2503 614.2302,-1427.7504 614.2303,-1420.7504"/>
</g>
<!-- 11008 -->
<g id="node46" class="node">
<title>11008</title>
<ellipse fill="none" stroke="#000000" cx="786.9418" cy="-1241.5513" rx="32.4942" ry="18"/>
<text text-anchor="middle" x="786.9418" y="-1237.8513" font-family="Times,serif" font-size="14.00" fill="#000000">11008</text>
</g>
<!-- 5692&#45;&gt;11008 -->
<g id="edge31" class="edge">
<title>5692&#45;&gt;11008</title>
<path fill="none" stroke="#000000" d="M960.6956,-1408.9877C927.3217,-1376.8272 849.6265,-1301.9569 810.437,-1264.1923"/>
<polygon fill="#000000" stroke="#000000" points="812.7665,-1261.5764 803.137,-1257.1577 807.9092,-1266.617 812.7665,-1261.5764"/>
</g>
<!-- 27865 -->
<g id="node51" class="node">
<title>27865</title>
<ellipse fill="none" stroke="#000000" cx="902.8594" cy="-1171.4733" rx="32.4942" ry="18"/>
<text text-anchor="middle" x="902.8594" y="-1167.7733" font-family="Times,serif" font-size="14.00" fill="#000000">27865</text>
</g>
<!-- 5692&#45;&gt;27865 -->
<g id="edge32" class="edge">
<title>5692&#45;&gt;27865</title>
<path fill="none" stroke="#000000" d="M971.3534,-1406.4755C958.7023,-1363.0696 926.1584,-1251.4117 910.9356,-1199.1824"/>
<polygon fill="#000000" stroke="#000000" points="914.2914,-1198.188 908.133,-1189.5668 907.5711,-1200.1467 914.2914,-1198.188"/>
</g>
<!-- 28065 -->
<g id="node52" class="node">
<title>28065</title>
<ellipse fill="none" stroke="#000000" cx="1038.2764" cy="-1168.2971" rx="32.4942" ry="18"/>
<text text-anchor="middle" x="1038.2764" y="-1164.5971" font-family="Times,serif" font-size="14.00" fill="#000000">28065</text>
</g>
<!-- 5692&#45;&gt;28065 -->
<g id="edge33" class="edge">
<title>5692&#45;&gt;28065</title>
<path fill="none" stroke="#000000" d="M980.8756,-1406.2522C991.4814,-1362.286 1018.7694,-1249.1633 1031.5212,-1196.3007"/>
<polygon fill="#000000" stroke="#000000" points="1034.9969,-1196.8173 1033.9396,-1186.2754 1028.1921,-1195.1758 1034.9969,-1196.8173"/>
</g>
<!-- 52317 -->
<g id="node58" class="node">
<title>52317</title>
<ellipse fill="none" stroke="#000000" cx="1157.3521" cy="-1232.8633" rx="32.4942" ry="18"/>
<text text-anchor="middle" x="1157.3521" y="-1229.1633" font-family="Times,serif" font-size="14.00" fill="#000000">52317</text>
</g>
<!-- 5692&#45;&gt;52317 -->
<g id="edge34" class="edge">
<title>5692&#45;&gt;52317</title>
<path fill="none" stroke="#000000" d="M991.3311,-1408.5883C1023.0396,-1375.0265 1097.6904,-1296.0122 1135.1276,-1256.3868"/>
<polygon fill="#000000" stroke="#000000" points="1137.7717,-1258.6847 1142.0951,-1249.0121 1132.6835,-1253.8774 1137.7717,-1258.6847"/>
</g>
<!-- 52375 -->
<g id="node59" class="node">
<title>52375</title>
<ellipse fill="none" stroke="#000000" cx="1228.5712" cy="-1348.0834" rx="32.4942" ry="18"/>
<text text-anchor="middle" x="1228.5712" y="-1344.3834" font-family="Times,serif" font-size="14.00" fill="#000000">52375</text>
</g>
<!-- 5692&#45;&gt;52375 -->
<g id="edge35" class="edge">
<title>5692&#45;&gt;52375</title>
<path fill="none" stroke="#000000" d="M1002.5572,-1416.386C1047.1275,-1402.9166 1138.2735,-1375.3718 1190.1699,-1359.6885"/>
<polygon fill="#000000" stroke="#000000" points="1191.4404,-1362.9609 1200.0004,-1356.7177 1189.4154,-1356.2602 1191.4404,-1362.9609"/>
</g>
<!-- 52376 -->
<g id="node60" class="node">
<title>52376</title>
<ellipse fill="none" stroke="#000000" cx="1233.0844" cy="-1483.4624" rx="32.4942" ry="18"/>
<text text-anchor="middle" x="1233.0844" y="-1479.7624" font-family="Times,serif" font-size="14.00" fill="#000000">52376</text>
</g>
<!-- 5692&#45;&gt;52376 -->
<g id="edge36" class="edge">
<title>5692&#45;&gt;52376</title>
<path fill="none" stroke="#000000" d="M1003.5045,-1430.4751C1048.7327,-1440.9138 1140.0922,-1461.9997 1192.907,-1474.1894"/>
<polygon fill="#000000" stroke="#000000" points="1192.4,-1477.6643 1202.931,-1476.5029 1193.9743,-1470.8436 1192.4,-1477.6643"/>
</g>
<!-- 52380 -->
<g id="node61" class="node">
<title>52380</title>
<ellipse fill="none" stroke="#000000" cx="1169.697" cy="-1603.1698" rx="32.4942" ry="18"/>
<text text-anchor="middle" x="1169.697" y="-1599.4698" font-family="Times,serif" font-size="14.00" fill="#000000">52380</text>
</g>
<!-- 5692&#45;&gt;52380 -->
<g id="edge37" class="edge">
<title>5692&#45;&gt;52380</title>
<path fill="none" stroke="#000000" d="M992.6708,-1439.1971C1026.5883,-1470.6136 1105.4362,-1543.6475 1145.4591,-1580.7192"/>
<polygon fill="#000000" stroke="#000000" points="1143.2064,-1583.4033 1152.9212,-1587.631 1147.9632,-1578.2679 1143.2064,-1583.4033"/>
</g>
<!-- 52413 -->
<g id="node62" class="node">
<title>52413</title>
<ellipse fill="none" stroke="#000000" cx="1055.1858" cy="-1675.5231" rx="32.4942" ry="18"/>
<text text-anchor="middle" x="1055.1858" y="-1671.8231" font-family="Times,serif" font-size="14.00" fill="#000000">52413</text>
</g>
<!-- 5692&#45;&gt;52413 -->
<g id="edge38" class="edge">
<title>5692&#45;&gt;52413</title>
<path fill="none" stroke="#000000" d="M982.0647,-1441.9193C995.5705,-1485.0669 1030.3129,-1596.0604 1046.5641,-1647.9789"/>
<polygon fill="#000000" stroke="#000000" points="1043.2285,-1649.0395 1049.556,-1657.5373 1049.9089,-1646.9484 1043.2285,-1649.0395"/>
</g>
<!-- 52431 -->
<g id="node63" class="node">
<title>52431</title>
<ellipse fill="none" stroke="#000000" cx="919.858" cy="-1681.3728" rx="32.4942" ry="18"/>
<text text-anchor="middle" x="919.858" y="-1677.6728" font-family="Times,serif" font-size="14.00" fill="#000000">52431</text>
</g>
<!-- 5692&#45;&gt;52431 -->
<g id="edge39" class="edge">
<title>5692&#45;&gt;52431</title>
<path fill="none" stroke="#000000" d="M972.5487,-1442.3306C962.8132,-1486.4977 937.7643,-1600.1371 926.0589,-1653.2413"/>
<polygon fill="#000000" stroke="#000000" points="922.5736,-1652.7934 923.8389,-1663.3124 929.4095,-1654.3002 922.5736,-1652.7934"/>
</g>
<!-- 262230 -->
<g id="node64" class="node">
<title>262230</title>
<ellipse fill="none" stroke="#000000" cx="796.189" cy="-1616.083" rx="37.0935" ry="18"/>
<text text-anchor="middle" x="796.189" y="-1612.383" font-family="Times,serif" font-size="14.00" fill="#000000">262230</text>
</g>
<!-- 5692&#45;&gt;262230 -->
<g id="edge40" class="edge">
<title>5692&#45;&gt;262230</title>
<path fill="none" stroke="#000000" d="M961.7756,-1439.9488C930.229,-1473.5049 856.0656,-1552.3923 818.6353,-1592.2068"/>
<polygon fill="#000000" stroke="#000000" points="815.9621,-1589.9405 811.6626,-1599.6238 821.0622,-1594.7352 815.9621,-1589.9405"/>
</g>
<!-- 264608 -->
<g id="node65" class="node">
<title>264608</title>
<ellipse fill="none" stroke="#000000" cx="722.1828" cy="-1492.2914" rx="37.0935" ry="18"/>
<text text-anchor="middle" x="722.1828" y="-1488.5914" font-family="Times,serif" font-size="14.00" fill="#000000">264608</text>
</g>
<!-- 5692&#45;&gt;264608 -->
<g id="edge41" class="edge">
<title>5692&#45;&gt;264608</title>
<path fill="none" stroke="#000000" d="M949.7947,-1431.4033C905.6996,-1443.1991 817.3764,-1466.8263 764.6582,-1480.9288"/>
<polygon fill="#000000" stroke="#000000" points="763.6861,-1477.5657 754.9303,-1483.5311 765.4951,-1484.328 763.6861,-1477.5657"/>
</g>
<!-- 6453&#45;&gt;3257 -->
<g id="edge42" class="edge">
<title>6453&#45;&gt;3257</title>
<path fill="none" stroke="#000000" d="M3223.263,-2739.5975C3241.2851,-2739.5975 3264.7774,-2739.5975 3284.5191,-2739.5975"/>
<polygon fill="#000000" stroke="#000000" points="3284.7463,-2743.0976 3294.7463,-2739.5975 3284.7462,-2736.0976 3284.7463,-2743.0976"/>
</g>
<!-- 6461&#45;&gt;2497 -->
<g id="edge43" class="edge">
<title>6461&#45;&gt;2497</title>
<path fill="none" stroke="#000000" d="M5964.7763,-2739.5975C5982.7984,-2739.5975 6006.2907,-2739.5975 6026.0324,-2739.5975"/>
<polygon fill="#000000" stroke="#000000" points="6026.2596,-2743.0976 6036.2595,-2739.5975 6026.2595,-2736.0976 6026.2596,-2743.0976"/>
</g>
<!-- 6762&#45;&gt;2914 -->
<g id="edge44" class="edge">
<title>6762&#45;&gt;2914</title>
<path fill="none" stroke="#000000" d="M2964.8732,-2739.5975C2982.8953,-2739.5975 3006.3875,-2739.5975 3026.1292,-2739.5975"/>
<polygon fill="#000000" stroke="#000000" points="3026.3564,-2743.0976 3036.3564,-2739.5975 3026.3564,-2736.0976 3026.3564,-2743.0976"/>
</g>
<!-- 6904 -->
<g id="node32" class="node">
<title>6904</title>
<ellipse fill="none" stroke="#000000" cx="692.6991" cy="-3866.4219" rx="28.6953" ry="18"/>
<text text-anchor="middle" x="692.6991" y="-3862.7219" font-family="Times,serif" font-size="14.00" fill="#000000">6904</text>
</g>
<!-- 6904&#45;&gt;2687 -->
<g id="edge45" class="edge">
<title>6904&#45;&gt;2687</title>
<path fill="none" stroke="#000000" d="M716.025,-3855.737C794.1557,-3819.9476 1046.7912,-3704.2227 1137.1296,-3662.8414"/>
<polygon fill="#000000" stroke="#000000" points="1138.708,-3665.9682 1146.3419,-3658.6215 1135.7927,-3659.6041 1138.708,-3665.9682"/>
</g>
<!-- 6939 -->
<g id="node33" class="node">
<title>6939</title>
<ellipse fill="none" stroke="#000000" cx="10202.5432" cy="-5134.308" rx="28.6953" ry="18"/>
<text text-anchor="middle" x="10202.5432" y="-5130.608" font-family="Times,serif" font-size="14.00" fill="#000000">6939</text>
</g>
<!-- 7016 -->
<g id="node34" class="node">
<title>7016</title>
<ellipse fill="none" stroke="#000000" cx="373.4627" cy="-4411.7414" rx="28.6953" ry="18"/>
<text text-anchor="middle" x="373.4627" y="-4408.0414" font-family="Times,serif" font-size="14.00" fill="#000000">7016</text>
</g>
<!-- 7922 -->
<g id="node39" class="node">
<title>7922</title>
<ellipse fill="none" stroke="#000000" cx="325.0016" cy="-4531.503" rx="28.6953" ry="18"/>
<text text-anchor="middle" x="325.0016" y="-4527.803" font-family="Times,serif" font-size="14.00" fill="#000000">7922</text>
</g>
<!-- 7016&#45;&gt;7922 -->
<g id="edge46" class="edge">
<title>7016&#45;&gt;7922</title>
<path fill="none" stroke="#000000" d="M366.3121,-4429.4126C358.3309,-4449.1367 345.3192,-4481.2923 336.0317,-4504.2445"/>
<polygon fill="#000000" stroke="#000000" points="332.6882,-4503.1765 332.1816,-4513.7593 339.1771,-4505.8023 332.6882,-4503.1765"/>
</g>
<!-- 7018&#45;&gt;3320 -->
<g id="edge47" class="edge">
<title>7018&#45;&gt;3320</title>
<path fill="none" stroke="#000000" d="M10468.7323,-4498.7705C10468.7323,-4520.3155 10468.7323,-4556.4028 10468.7323,-4581.5513"/>
<polygon fill="#000000" stroke="#000000" points="10465.2324,-4581.5852 10468.7323,-4591.5853 10472.2324,-4581.5853 10465.2324,-4581.5852"/>
</g>
<!-- 7473 -->
<g id="node36" class="node">
<title>7473</title>
<ellipse fill="none" stroke="#000000" cx="11829.2481" cy="-504.528" rx="28.6953" ry="18"/>
<text text-anchor="middle" x="11829.2481" y="-500.828" font-family="Times,serif" font-size="14.00" fill="#000000">7473</text>
</g>
<!-- 7474 -->
<g id="node37" class="node">
<title>7474</title>
<ellipse fill="none" stroke="#000000" cx="9303.6758" cy="-18" rx="28.6953" ry="18"/>
<text text-anchor="middle" x="9303.6758" y="-14.3" font-family="Times,serif" font-size="14.00" fill="#000000">7474</text>
</g>
<!-- 7545&#45;&gt;4635 -->
<g id="edge48" class="edge">
<title>7545&#45;&gt;4635</title>
<path fill="none" stroke="#000000" d="M9505.7832,-917.3526C9488.6493,-907.5177 9464.3796,-893.5869 9445.2551,-882.6094"/>
<polygon fill="#000000" stroke="#000000" points="9446.749,-879.4314 9436.3338,-877.4886 9443.2642,-885.5023 9446.749,-879.4314"/>
</g>
<!-- 7545&#45;&gt;4739 -->
<g id="edge49" class="edge">
<title>7545&#45;&gt;4739</title>
<path fill="none" stroke="#000000" d="M9548.3996,-917.2454C9565.4838,-907.3245 9589.6831,-893.2717 9608.7521,-882.1982"/>
<polygon fill="#000000" stroke="#000000" points="9610.7575,-885.081 9617.6475,-877.0325 9607.2422,-879.0277 9610.7575,-885.081"/>
</g>
<!-- 9942 -->
<g id="node43" class="node">
<title>9942</title>
<ellipse fill="none" stroke="#000000" cx="9527.4473" cy="-1058.7958" rx="28.6953" ry="18"/>
<text text-anchor="middle" x="9527.4473" y="-1055.0958" font-family="Times,serif" font-size="14.00" fill="#000000">9942</text>
</g>
<!-- 7545&#45;&gt;9942 -->
<g id="edge50" class="edge">
<title>7545&#45;&gt;9942</title>
<path fill="none" stroke="#000000" d="M9527.1682,-947.8377C9527.2224,-969.3826 9527.3132,-1005.4699 9527.3764,-1030.6183"/>
<polygon fill="#000000" stroke="#000000" points="9523.8764,-1030.6611 9527.4017,-1040.6522 9530.8764,-1030.6434 9523.8764,-1030.6611"/>
</g>
<!-- 9498&#45;&gt;4637 -->
<g id="edge51" class="edge">
<title>9498&#45;&gt;4637</title>
<path fill="none" stroke="#000000" d="M11561.8451,-521.2053C11548.4018,-489.2289 11519.7645,-421.112 11503.8426,-383.2399"/>
<polygon fill="#000000" stroke="#000000" points="11507.0008,-381.7209 11499.8987,-373.8589 11500.5479,-384.4339 11507.0008,-381.7209"/>
</g>
<!-- 9498&#45;&gt;7473 -->
<g id="edge52" class="edge">
<title>9498&#45;&gt;7473</title>
<path fill="none" stroke="#000000" d="M11597.5171,-534.9596C11644.4147,-528.8008 11738.2395,-516.4795 11790.9825,-509.5532"/>
<polygon fill="#000000" stroke="#000000" points="11791.4982,-513.0156 11800.9573,-508.2433 11790.5867,-506.0752 11791.4982,-513.0156"/>
</g>
<!-- 10026 -->
<g id="node44" class="node">
<title>10026</title>
<ellipse fill="none" stroke="#000000" cx="11517.6098" cy="-661.3721" rx="32.4942" ry="18"/>
<text text-anchor="middle" x="11517.6098" y="-657.6721" font-family="Times,serif" font-size="14.00" fill="#000000">10026</text>
</g>
<!-- 9498&#45;&gt;10026 -->
<g id="edge53" class="edge">
<title>9498&#45;&gt;10026</title>
<path fill="none" stroke="#000000" d="M11561.801,-556.2582C11553.2211,-576.6666 11538.972,-610.5595 11528.9794,-634.328"/>
<polygon fill="#000000" stroke="#000000" points="11525.6356,-633.2509 11524.9864,-643.8258 11532.0885,-635.9638 11525.6356,-633.2509"/>
</g>
<!-- 10026&#45;&gt;4755 -->
<g id="edge54" class="edge">
<title>10026&#45;&gt;4755</title>
<path fill="none" stroke="#000000" d="M11510.2194,-678.9509C11501.6394,-699.3593 11487.3904,-733.2522 11477.3978,-757.0207"/>
<polygon fill="#000000" stroke="#000000" points="11474.0539,-755.9436 11473.4048,-766.5185 11480.5069,-758.6565 11474.0539,-755.9436"/>
</g>
<!-- 12956 -->
<g id="node47" class="node">
<title>12956</title>
<ellipse fill="none" stroke="#000000" cx="571.6954" cy="-2233.9275" rx="32.4942" ry="18"/>
<text text-anchor="middle" x="571.6954" y="-2230.2275" font-family="Times,serif" font-size="14.00" fill="#000000">12956</text>
</g>
<!-- 10834&#45;&gt;12956 -->
<g id="edge55" class="edge">
<title>10834&#45;&gt;12956</title>
<path fill="none" stroke="#000000" d="M571.6954,-1442.2968C571.6954,-1547.0438 571.6954,-2076.6821 571.6954,-2205.6063"/>
<polygon fill="#000000" stroke="#000000" points="568.1955,-2205.8374 571.6954,-2215.8375 575.1955,-2205.8375 568.1955,-2205.8374"/>
</g>
<!-- 22927 -->
<g id="node50" class="node">
<title>22927</title>
<ellipse fill="none" stroke="#000000" cx="166.8568" cy="-1424.2503" rx="32.4942" ry="18"/>
<text text-anchor="middle" x="166.8568" y="-1420.5503" font-family="Times,serif" font-size="14.00" fill="#000000">22927</text>
</g>
<!-- 10834&#45;&gt;22927 -->
<g id="edge56" class="edge">
<title>10834&#45;&gt;22927</title>
<path fill="none" stroke="#000000" d="M538.9087,-1424.2503C466.1281,-1424.2503 291.1018,-1424.2503 209.757,-1424.2503"/>
<polygon fill="#000000" stroke="#000000" points="209.3847,-1420.7504 199.3847,-1424.2503 209.3846,-1427.7504 209.3847,-1420.7504"/>
</g>
<!-- 12956&#45;&gt;3356 -->
<g id="edge57" class="edge">
<title>12956&#45;&gt;3356</title>
<path fill="none" stroke="#000000" d="M571.6954,-2252.1547C571.6954,-2274.5557 571.6954,-2312.8056 571.6954,-2338.9644"/>
<polygon fill="#000000" stroke="#000000" points="568.1955,-2339.015 571.6954,-2349.015 575.1955,-2339.0151 568.1955,-2339.015"/>
</g>
<!-- 17676&#45;&gt;6939 -->
<g id="edge58" class="edge">
<title>17676&#45;&gt;6939</title>
<path fill="none" stroke="#000000" d="M10303.0792,-5134.308C10284.4223,-5134.308 10260.8933,-5134.308 10241.289,-5134.308"/>
<polygon fill="#000000" stroke="#000000" points="10241.1503,-5130.8081 10231.1502,-5134.308 10241.1502,-5137.8081 10241.1503,-5130.8081"/>
</g>
<!-- 18540 -->
<g id="node49" class="node">
<title>18540</title>
<ellipse fill="none" stroke="#000000" cx="32.4971" cy="-3674.8592" rx="32.4942" ry="18"/>
<text text-anchor="middle" x="32.4971" y="-3671.1592" font-family="Times,serif" font-size="14.00" fill="#000000">18540</text>
</g>
<!-- 30070&#45;&gt;6904 -->
<g id="edge59" class="edge">
<title>30070&#45;&gt;6904</title>
<path fill="none" stroke="#000000" d="M596.7675,-3910.3653C615.0902,-3901.9722 640.1067,-3890.5129 659.9992,-3881.4007"/>
<polygon fill="#000000" stroke="#000000" points="661.6672,-3884.4864 669.3011,-3877.1398 658.752,-3878.1224 661.6672,-3884.4864"/>
</g>
<!-- 30070&#45;&gt;7016 -->
<g id="edge60" class="edge">
<title>30070&#45;&gt;7016</title>
<path fill="none" stroke="#000000" d="M564.5231,-3939.575C534.6807,-4013.3244 420.2375,-4296.1471 384.3157,-4384.9205"/>
<polygon fill="#000000" stroke="#000000" points="381.0283,-4383.7139 380.5217,-4394.2966 387.5172,-4386.3396 381.0283,-4383.7139"/>
</g>
<!-- 30070&#45;&gt;18540 -->
<g id="edge61" class="edge">
<title>30070&#45;&gt;18540</title>
<path fill="none" stroke="#000000" d="M546.412,-3910.2685C458.6726,-3870.0777 167.2232,-3736.5733 66.8315,-3690.5868"/>
<polygon fill="#000000" stroke="#000000" points="68.275,-3687.3984 57.7258,-3686.4158 65.3598,-3693.7625 68.275,-3687.3984"/>
</g>
<!-- 32787&#45;&gt;2764 -->
<g id="edge62" class="edge">
<title>32787&#45;&gt;2764</title>
<path fill="none" stroke="#000000" d="M9303.6758,-556.9053C9303.6758,-634.3846 9303.6758,-936.7369 9303.6758,-1031.0796"/>
<polygon fill="#000000" stroke="#000000" points="9300.1759,-1031.2807 9303.6758,-1041.2807 9307.1759,-1031.2807 9300.1759,-1031.2807"/>
</g>
<!-- 32787&#45;&gt;7474 -->
<g id="edge63" class="edge">
<title>32787&#45;&gt;7474</title>
<path fill="none" stroke="#000000" d="M9303.6758,-520.4534C9303.6758,-442.9741 9303.6758,-140.6218 9303.6758,-46.2791"/>
<polygon fill="#000000" stroke="#000000" points="9307.1759,-46.078 9303.6758,-36.078 9300.1759,-46.078 9307.1759,-46.078"/>
</g>
<!-- 38333&#45;&gt;1221 -->
<g id="edge64" class="edge">
<title>38333&#45;&gt;1221</title>
<path fill="none" stroke="#000000" d="M9252.706,-1265.448C9247.3404,-1287.1432 9238.2585,-1323.8645 9232.0063,-1349.1443"/>
<polygon fill="#000000" stroke="#000000" points="9228.6036,-1348.3246 9229.6003,-1358.8724 9235.3989,-1350.0052 9228.6036,-1348.3246"/>
</g>
</g>
</svg>
