<?xml version="1.0" encoding="UTF-8" standalone="no"?>
<!DOCTYPE svg PUBLIC "-//W3C//DTD SVG 1.1//EN"
 "http://www.w3.org/Graphics/SVG/1.1/DTD/svg11.dtd">
<!-- Generated by graphviz version 2.40.1 (20161225.0304)
 -->
<!-- Title: %3 Pages: 1 -->
<svg width="2663pt" height="2263pt"
 viewBox="0.00 0.00 2663.00 2263.00" xmlns="http://www.w3.org/2000/svg" xmlns:xlink="http://www.w3.org/1999/xlink">
<g id="graph0" class="graph" transform="scale(1 1) rotate(0) translate(4 2259)">
<title>%3</title>
<polygon fill="#ffffff" stroke="transparent" points="-4,4 -4,-2259 2659,-2259 2659,4 -4,4"/>
<!-- 174 -->
<g id="node1" class="node">
<title>174</title>
<ellipse fill="none" stroke="#000000" cx="1082.6399" cy="-753.6316" rx="27" ry="18"/>
<text text-anchor="middle" x="1082.6399" y="-749.9316" font-family="Times,serif" font-size="14.00" fill="#000000">174</text>
</g>
<!-- 209 -->
<g id="node2" class="node">
<title>209</title>
<ellipse fill="none" stroke="#000000" cx="1201.9907" cy="-668.1806" rx="27" ry="18"/>
<text text-anchor="middle" x="1201.9907" y="-664.4806" font-family="Times,serif" font-size="14.00" fill="#000000">209</text>
</g>
<!-- 174&#45;&gt;209 -->
<g id="edge1" class="edge">
<title>174&#45;&gt;209</title>
<path fill="none" stroke="#000000" d="M1101.2884,-740.2799C1121.1704,-726.0451 1152.8285,-703.379 1175.3378,-687.2632"/>
<polygon fill="#000000" stroke="#000000" points="1177.3797,-690.1059 1183.4731,-681.4386 1173.3047,-684.4142 1177.3797,-690.1059"/>
</g>
<!-- 1299 -->
<g id="node8" class="node">
<title>1299</title>
<ellipse fill="none" stroke="#000000" cx="1316.2034" cy="-610.8066" rx="28.6953" ry="18"/>
<text text-anchor="middle" x="1316.2034" y="-607.1066" font-family="Times,serif" font-size="14.00" fill="#000000">1299</text>
</g>
<!-- 209&#45;&gt;1299 -->
<g id="edge2" class="edge">
<title>209&#45;&gt;1299</title>
<path fill="none" stroke="#000000" d="M1223.7421,-657.254C1240.9845,-648.5923 1265.3163,-636.3694 1284.6919,-626.6362"/>
<polygon fill="#000000" stroke="#000000" points="1286.3878,-629.7011 1293.7526,-622.0846 1283.2456,-623.446 1286.3878,-629.7011"/>
</g>
<!-- 701 -->
<g id="node3" class="node">
<title>701</title>
<ellipse fill="none" stroke="#000000" cx="1711.7215" cy="-560.4338" rx="27" ry="18"/>
<text text-anchor="middle" x="1711.7215" y="-556.7338" font-family="Times,serif" font-size="14.00" fill="#000000">701</text>
</g>
<!-- 703 -->
<g id="node4" class="node">
<title>703</title>
<ellipse fill="none" stroke="#000000" cx="1891.4509" cy="-573.4064" rx="27" ry="18"/>
<text text-anchor="middle" x="1891.4509" y="-569.7064" font-family="Times,serif" font-size="14.00" fill="#000000">703</text>
</g>
<!-- 701&#45;&gt;703 -->
<g id="edge3" class="edge">
<title>701&#45;&gt;703</title>
<path fill="none" stroke="#000000" d="M1738.6288,-562.376C1769.3349,-564.5923 1819.749,-568.2311 1854.2148,-570.7188"/>
<polygon fill="#000000" stroke="#000000" points="1854.1336,-574.2219 1864.3596,-571.451 1854.6376,-567.2401 1854.1336,-574.2219"/>
</g>
<!-- 7018 -->
<g id="node35" class="node">
<title>7018</title>
<ellipse fill="none" stroke="#000000" cx="1568.7859" cy="-580.9046" rx="28.6953" ry="18"/>
<text text-anchor="middle" x="1568.7859" y="-577.2046" font-family="Times,serif" font-size="14.00" fill="#000000">7018</text>
</g>
<!-- 701&#45;&gt;7018 -->
<g id="edge4" class="edge">
<title>701&#45;&gt;7018</title>
<path fill="none" stroke="#000000" d="M1685.1714,-564.2363C1663.2722,-567.3726 1631.9106,-571.8641 1607.2591,-575.3946"/>
<polygon fill="#000000" stroke="#000000" points="1606.5549,-571.9597 1597.1521,-576.8421 1607.5474,-578.889 1606.5549,-571.9597"/>
</g>
<!-- 2516 -->
<g id="node10" class="node">
<title>2516</title>
<ellipse fill="none" stroke="#000000" cx="2043.3983" cy="-638.0621" rx="28.6953" ry="18"/>
<text text-anchor="middle" x="2043.3983" y="-634.3621" font-family="Times,serif" font-size="14.00" fill="#000000">2516</text>
</g>
<!-- 703&#45;&gt;2516 -->
<g id="edge5" class="edge">
<title>703&#45;&gt;2516</title>
<path fill="none" stroke="#000000" d="M1914.5284,-583.2262C1940.038,-594.0809 1981.3425,-611.6565 2010.2967,-623.9769"/>
<polygon fill="#000000" stroke="#000000" points="2009.0297,-627.2414 2019.6017,-627.9363 2011.7705,-620.8003 2009.0297,-627.2414"/>
</g>
<!-- 9498 -->
<g id="node40" class="node">
<title>9498</title>
<ellipse fill="none" stroke="#000000" cx="1974.9846" cy="-469.3538" rx="28.6953" ry="18"/>
<text text-anchor="middle" x="1974.9846" y="-465.6538" font-family="Times,serif" font-size="14.00" fill="#000000">9498</text>
</g>
<!-- 703&#45;&gt;9498 -->
<g id="edge6" class="edge">
<title>703&#45;&gt;9498</title>
<path fill="none" stroke="#000000" d="M1904.503,-557.1482C1918.2345,-540.0437 1939.9917,-512.9421 1955.7022,-493.3726"/>
<polygon fill="#000000" stroke="#000000" points="1958.4931,-495.487 1962.0241,-485.4978 1953.0345,-491.1048 1958.4931,-495.487"/>
</g>
<!-- 1221 -->
<g id="node5" class="node">
<title>1221</title>
<ellipse fill="none" stroke="#000000" cx="2626.2247" cy="-695.418" rx="28.6953" ry="18"/>
<text text-anchor="middle" x="2626.2247" y="-691.718" font-family="Times,serif" font-size="14.00" fill="#000000">1221</text>
</g>
<!-- 1239 -->
<g id="node6" class="node">
<title>1239</title>
<ellipse fill="none" stroke="#000000" cx="1329.9303" cy="-204.5424" rx="28.6953" ry="18"/>
<text text-anchor="middle" x="1329.9303" y="-200.8424" font-family="Times,serif" font-size="14.00" fill="#000000">1239</text>
</g>
<!-- 5511 -->
<g id="node27" class="node">
<title>5511</title>
<ellipse fill="none" stroke="#000000" cx="1317.5283" cy="-94.7761" rx="28.6953" ry="18"/>
<text text-anchor="middle" x="1317.5283" y="-91.0761" font-family="Times,serif" font-size="14.00" fill="#000000">5511</text>
</g>
<!-- 1239&#45;&gt;5511 -->
<g id="edge7" class="edge">
<title>1239&#45;&gt;5511</title>
<path fill="none" stroke="#000000" d="M1327.8824,-186.4167C1325.9345,-169.1771 1322.9749,-142.9824 1320.7181,-123.0077"/>
<polygon fill="#000000" stroke="#000000" points="1324.18,-122.4725 1319.5793,-112.9287 1317.2242,-123.2584 1324.18,-122.4725"/>
</g>
<!-- 17676 -->
<g id="node48" class="node">
<title>17676</title>
<ellipse fill="none" stroke="#000000" cx="1238.1431" cy="-113.5462" rx="32.4942" ry="18"/>
<text text-anchor="middle" x="1238.1431" y="-109.8462" font-family="Times,serif" font-size="14.00" fill="#000000">17676</text>
</g>
<!-- 1239&#45;&gt;17676 -->
<g id="edge8" class="edge">
<title>1239&#45;&gt;17676</title>
<path fill="none" stroke="#000000" d="M1314.3598,-189.1061C1299.8117,-174.6833 1277.9052,-152.9657 1261.3061,-136.5096"/>
<polygon fill="#000000" stroke="#000000" points="1263.6642,-133.9189 1254.0985,-129.3641 1258.7359,-138.8901 1263.6642,-133.9189"/>
</g>
<!-- 1273 -->
<g id="node7" class="node">
<title>1273</title>
<ellipse fill="none" stroke="#000000" cx="1415.0169" cy="-328.9798" rx="28.6953" ry="18"/>
<text text-anchor="middle" x="1415.0169" y="-325.2798" font-family="Times,serif" font-size="14.00" fill="#000000">1273</text>
</g>
<!-- 1273&#45;&gt;1239 -->
<g id="edge9" class="edge">
<title>1273&#45;&gt;1239</title>
<path fill="none" stroke="#000000" d="M1403.5417,-312.1976C1389.0785,-291.0455 1364.082,-254.4885 1347.2801,-229.9161"/>
<polygon fill="#000000" stroke="#000000" points="1350.029,-227.7353 1341.4954,-221.4561 1344.2506,-231.6864 1350.029,-227.7353"/>
</g>
<!-- 6461 -->
<g id="node30" class="node">
<title>6461</title>
<ellipse fill="none" stroke="#000000" cx="1452.8502" cy="-562.0954" rx="28.6953" ry="18"/>
<text text-anchor="middle" x="1452.8502" y="-558.3954" font-family="Times,serif" font-size="14.00" fill="#000000">6461</text>
</g>
<!-- 1299&#45;&gt;6461 -->
<g id="edge10" class="edge">
<title>1299&#45;&gt;6461</title>
<path fill="none" stroke="#000000" d="M1341.2665,-601.8722C1362.9364,-594.1474 1394.4692,-582.9067 1418.4904,-574.3438"/>
<polygon fill="#000000" stroke="#000000" points="1419.7018,-577.6278 1427.9459,-570.9731 1417.3513,-571.0342 1419.7018,-577.6278"/>
</g>
<!-- 2497 -->
<g id="node9" class="node">
<title>2497</title>
<ellipse fill="none" stroke="#000000" cx="1585.7566" cy="-522.0598" rx="28.6953" ry="18"/>
<text text-anchor="middle" x="1585.7566" y="-518.3598" font-family="Times,serif" font-size="14.00" fill="#000000">2497</text>
</g>
<!-- 2497&#45;&gt;701 -->
<g id="edge11" class="edge">
<title>2497&#45;&gt;701</title>
<path fill="none" stroke="#000000" d="M1611.5514,-529.918C1630.4793,-535.6842 1656.3886,-543.5772 1677.1146,-549.8912"/>
<polygon fill="#000000" stroke="#000000" points="1676.2336,-553.2815 1686.8196,-552.8477 1678.2736,-546.5854 1676.2336,-553.2815"/>
</g>
<!-- 32787 -->
<g id="node54" class="node">
<title>32787</title>
<ellipse fill="none" stroke="#000000" cx="2223.0244" cy="-700.771" rx="32.4942" ry="18"/>
<text text-anchor="middle" x="2223.0244" y="-697.071" font-family="Times,serif" font-size="14.00" fill="#000000">32787</text>
</g>
<!-- 2516&#45;&gt;32787 -->
<g id="edge12" class="edge">
<title>2516&#45;&gt;32787</title>
<path fill="none" stroke="#000000" d="M2068.7534,-646.9137C2099.2078,-657.5456 2150.561,-675.4735 2185.5836,-687.7001"/>
<polygon fill="#000000" stroke="#000000" points="2184.847,-691.1501 2195.4419,-691.1418 2187.1543,-684.5413 2184.847,-691.1501"/>
</g>
<!-- 2686 -->
<g id="node11" class="node">
<title>2686</title>
<ellipse fill="none" stroke="#000000" cx="254.9193" cy="-1768.5752" rx="28.6953" ry="18"/>
<text text-anchor="middle" x="254.9193" y="-1764.8752" font-family="Times,serif" font-size="14.00" fill="#000000">2686</text>
</g>
<!-- 3741 -->
<g id="node22" class="node">
<title>3741</title>
<ellipse fill="none" stroke="#000000" cx="134.287" cy="-1835.0139" rx="28.6953" ry="18"/>
<text text-anchor="middle" x="134.287" y="-1831.3139" font-family="Times,serif" font-size="14.00" fill="#000000">3741</text>
</g>
<!-- 2686&#45;&gt;3741 -->
<g id="edge13" class="edge">
<title>2686&#45;&gt;3741</title>
<path fill="none" stroke="#000000" d="M233.3527,-1780.4531C214.3438,-1790.9223 186.4304,-1806.2957 165.0739,-1818.0579"/>
<polygon fill="#000000" stroke="#000000" points="163.1445,-1815.1247 156.0737,-1823.0148 166.5216,-1821.2563 163.1445,-1815.1247"/>
</g>
<!-- 2687 -->
<g id="node12" class="node">
<title>2687</title>
<ellipse fill="none" stroke="#000000" cx="363.0738" cy="-1698.7599" rx="28.6953" ry="18"/>
<text text-anchor="middle" x="363.0738" y="-1695.0599" font-family="Times,serif" font-size="14.00" fill="#000000">2687</text>
</g>
<!-- 2687&#45;&gt;2686 -->
<g id="edge14" class="edge">
<title>2687&#45;&gt;2686</title>
<path fill="none" stroke="#000000" d="M342.9842,-1711.728C326.2139,-1722.5535 302.1098,-1738.113 283.3576,-1750.2178"/>
<polygon fill="#000000" stroke="#000000" points="281.4047,-1747.3125 274.9013,-1755.6765 285.2011,-1753.1937 281.4047,-1747.3125"/>
</g>
<!-- 9505 -->
<g id="node41" class="node">
<title>9505</title>
<ellipse fill="none" stroke="#000000" cx="253.1841" cy="-1688.7234" rx="28.6953" ry="18"/>
<text text-anchor="middle" x="253.1841" y="-1685.0234" font-family="Times,serif" font-size="14.00" fill="#000000">9505</text>
</g>
<!-- 2687&#45;&gt;9505 -->
<g id="edge15" class="edge">
<title>2687&#45;&gt;9505</title>
<path fill="none" stroke="#000000" d="M334.4884,-1696.1491C321.5154,-1694.9643 305.973,-1693.5447 291.9682,-1692.2657"/>
<polygon fill="#000000" stroke="#000000" points="291.9033,-1688.7452 281.6264,-1691.3211 291.2665,-1695.7162 291.9033,-1688.7452"/>
</g>
<!-- 2764 -->
<g id="node13" class="node">
<title>2764</title>
<ellipse fill="none" stroke="#000000" cx="2382.519" cy="-774.6034" rx="28.6953" ry="18"/>
<text text-anchor="middle" x="2382.519" y="-770.9034" font-family="Times,serif" font-size="14.00" fill="#000000">2764</text>
</g>
<!-- 7545 -->
<g id="node38" class="node">
<title>7545</title>
<ellipse fill="none" stroke="#000000" cx="2500.6597" cy="-859.0821" rx="28.6953" ry="18"/>
<text text-anchor="middle" x="2500.6597" y="-855.3821" font-family="Times,serif" font-size="14.00" fill="#000000">7545</text>
</g>
<!-- 2764&#45;&gt;7545 -->
<g id="edge16" class="edge">
<title>2764&#45;&gt;7545</title>
<path fill="none" stroke="#000000" d="M2401.5004,-788.1764C2420.9631,-802.0936 2451.4197,-823.8721 2473.4453,-839.6219"/>
<polygon fill="#000000" stroke="#000000" points="2471.5553,-842.5732 2481.7255,-845.5428 2475.627,-836.8791 2471.5553,-842.5732"/>
</g>
<!-- 38333 -->
<g id="node56" class="node">
<title>38333</title>
<ellipse fill="none" stroke="#000000" cx="2503.6339" cy="-732.0022" rx="32.4942" ry="18"/>
<text text-anchor="middle" x="2503.6339" y="-728.3022" font-family="Times,serif" font-size="14.00" fill="#000000">38333</text>
</g>
<!-- 2764&#45;&gt;38333 -->
<g id="edge17" class="edge">
<title>2764&#45;&gt;38333</title>
<path fill="none" stroke="#000000" d="M2407.6141,-765.7764C2424.6069,-759.7993 2447.3517,-751.799 2466.4391,-745.0852"/>
<polygon fill="#000000" stroke="#000000" points="2467.7653,-748.329 2476.0374,-741.7091 2465.4426,-741.7256 2467.7653,-748.329"/>
</g>
<!-- 38561 -->
<g id="node57" class="node">
<title>38561</title>
<ellipse fill="none" stroke="#000000" cx="2408.896" cy="-881.7924" rx="32.4942" ry="18"/>
<text text-anchor="middle" x="2408.896" y="-878.0924" font-family="Times,serif" font-size="14.00" fill="#000000">38561</text>
</g>
<!-- 2764&#45;&gt;38561 -->
<g id="edge18" class="edge">
<title>2764&#45;&gt;38561</title>
<path fill="none" stroke="#000000" d="M2386.9935,-792.7865C2391.1299,-809.5957 2397.3363,-834.8167 2402.0874,-854.124"/>
<polygon fill="#000000" stroke="#000000" points="2398.6994,-855.0038 2404.4876,-863.8777 2405.4966,-853.3311 2398.6994,-855.0038"/>
</g>
<!-- 2828 -->
<g id="node14" class="node">
<title>2828</title>
<ellipse fill="none" stroke="#000000" cx="2065.879" cy="-233.9386" rx="28.6953" ry="18"/>
<text text-anchor="middle" x="2065.879" y="-230.2386" font-family="Times,serif" font-size="14.00" fill="#000000">2828</text>
</g>
<!-- 2914 -->
<g id="node15" class="node">
<title>2914</title>
<ellipse fill="none" stroke="#000000" cx="822.4112" cy="-1234.526" rx="28.6953" ry="18"/>
<text text-anchor="middle" x="822.4112" y="-1230.826" font-family="Times,serif" font-size="14.00" fill="#000000">2914</text>
</g>
<!-- 6453 -->
<g id="node29" class="node">
<title>6453</title>
<ellipse fill="none" stroke="#000000" cx="857.8819" cy="-1099.6836" rx="28.6953" ry="18"/>
<text text-anchor="middle" x="857.8819" y="-1095.9836" font-family="Times,serif" font-size="14.00" fill="#000000">6453</text>
</g>
<!-- 2914&#45;&gt;6453 -->
<g id="edge19" class="edge">
<title>2914&#45;&gt;6453</title>
<path fill="none" stroke="#000000" d="M827.1214,-1216.62C833.1106,-1193.8519 843.5166,-1154.2934 850.5485,-1127.5618"/>
<polygon fill="#000000" stroke="#000000" points="853.993,-1128.2251 853.1522,-1117.6637 847.2233,-1126.4443 853.993,-1128.2251"/>
</g>
<!-- 3257 -->
<g id="node16" class="node">
<title>3257</title>
<ellipse fill="none" stroke="#000000" cx="911.1931" cy="-970.4837" rx="28.6953" ry="18"/>
<text text-anchor="middle" x="911.1931" y="-966.7837" font-family="Times,serif" font-size="14.00" fill="#000000">3257</text>
</g>
<!-- 3491 -->
<g id="node19" class="node">
<title>3491</title>
<ellipse fill="none" stroke="#000000" cx="992.1543" cy="-846.3556" rx="28.6953" ry="18"/>
<text text-anchor="middle" x="992.1543" y="-842.6556" font-family="Times,serif" font-size="14.00" fill="#000000">3491</text>
</g>
<!-- 3257&#45;&gt;3491 -->
<g id="edge20" class="edge">
<title>3257&#45;&gt;3491</title>
<path fill="none" stroke="#000000" d="M922.1119,-953.7432C935.8738,-932.6437 959.6585,-896.1776 975.6457,-871.6663"/>
<polygon fill="#000000" stroke="#000000" points="978.6184,-873.5152 981.15,-863.2273 972.7553,-869.6911 978.6184,-873.5152"/>
</g>
<!-- 3320 -->
<g id="node17" class="node">
<title>3320</title>
<ellipse fill="none" stroke="#000000" cx="1490.0638" cy="-444.4156" rx="28.6953" ry="18"/>
<text text-anchor="middle" x="1490.0638" y="-440.7156" font-family="Times,serif" font-size="14.00" fill="#000000">3320</text>
</g>
<!-- 3320&#45;&gt;1273 -->
<g id="edge21" class="edge">
<title>3320&#45;&gt;1273</title>
<path fill="none" stroke="#000000" d="M1478.9904,-427.3827C1466.448,-408.0903 1445.8839,-376.4588 1431.4647,-354.2795"/>
<polygon fill="#000000" stroke="#000000" points="1434.2768,-352.1836 1425.8917,-345.7073 1428.408,-355.999 1434.2768,-352.1836"/>
</g>
<!-- 3356 -->
<g id="node18" class="node">
<title>3356</title>
<ellipse fill="none" stroke="#000000" cx="872.5037" cy="-1670.0993" rx="28.6953" ry="18"/>
<text text-anchor="middle" x="872.5037" y="-1666.3993" font-family="Times,serif" font-size="14.00" fill="#000000">3356</text>
</g>
<!-- 3549 -->
<g id="node20" class="node">
<title>3549</title>
<ellipse fill="none" stroke="#000000" cx="787.1324" cy="-1542.6382" rx="28.6953" ry="18"/>
<text text-anchor="middle" x="787.1324" y="-1538.9382" font-family="Times,serif" font-size="14.00" fill="#000000">3549</text>
</g>
<!-- 3356&#45;&gt;3549 -->
<g id="edge22" class="edge">
<title>3356&#45;&gt;3549</title>
<path fill="none" stroke="#000000" d="M861.3429,-1653.436C846.7072,-1631.5845 820.8998,-1593.0535 803.9064,-1567.6821"/>
<polygon fill="#000000" stroke="#000000" points="806.7689,-1565.6664 798.296,-1559.3056 800.9529,-1569.5619 806.7689,-1565.6664"/>
</g>
<!-- 3491&#45;&gt;174 -->
<g id="edge23" class="edge">
<title>3491&#45;&gt;174</title>
<path fill="none" stroke="#000000" d="M1007.504,-830.6263C1022.1082,-815.6608 1044.2341,-792.9875 1060.698,-776.1163"/>
<polygon fill="#000000" stroke="#000000" points="1063.3375,-778.4229 1067.8167,-768.8215 1058.3276,-773.534 1063.3375,-778.4229"/>
</g>
<!-- 6762 -->
<g id="node31" class="node">
<title>6762</title>
<ellipse fill="none" stroke="#000000" cx="798.9464" cy="-1390.8402" rx="28.6953" ry="18"/>
<text text-anchor="middle" x="798.9464" y="-1387.1402" font-family="Times,serif" font-size="14.00" fill="#000000">6762</text>
</g>
<!-- 3549&#45;&gt;6762 -->
<g id="edge24" class="edge">
<title>3549&#45;&gt;6762</title>
<path fill="none" stroke="#000000" d="M788.534,-1524.6289C790.5679,-1498.4953 794.3563,-1449.8178 796.7595,-1418.9397"/>
<polygon fill="#000000" stroke="#000000" points="800.26,-1419.0676 797.5466,-1408.8261 793.2811,-1418.5244 800.26,-1419.0676"/>
</g>
<!-- 30070 -->
<g id="node53" class="node">
<title>30070</title>
<ellipse fill="none" stroke="#000000" cx="625.2887" cy="-1566.5698" rx="32.4942" ry="18"/>
<text text-anchor="middle" x="625.2887" y="-1562.8698" font-family="Times,serif" font-size="14.00" fill="#000000">30070</text>
</g>
<!-- 3549&#45;&gt;30070 -->
<g id="edge25" class="edge">
<title>3549&#45;&gt;30070</title>
<path fill="none" stroke="#000000" d="M758.9414,-1546.8067C733.5337,-1550.5638 695.8418,-1556.1372 666.9563,-1560.4084"/>
<polygon fill="#000000" stroke="#000000" points="666.1322,-1556.9922 656.7518,-1561.9174 667.1562,-1563.9169 666.1322,-1556.9922"/>
</g>
<!-- 3597 -->
<g id="node21" class="node">
<title>3597</title>
<ellipse fill="none" stroke="#000000" cx="1248.4993" cy="-1995.5223" rx="28.6953" ry="18"/>
<text text-anchor="middle" x="1248.4993" y="-1991.8223" font-family="Times,serif" font-size="14.00" fill="#000000">3597</text>
</g>
<!-- 37179 -->
<g id="node55" class="node">
<title>37179</title>
<ellipse fill="none" stroke="#000000" cx="32.8122" cy="-1889.9558" rx="32.4942" ry="18"/>
<text text-anchor="middle" x="32.8122" y="-1886.2558" font-family="Times,serif" font-size="14.00" fill="#000000">37179</text>
</g>
<!-- 3741&#45;&gt;37179 -->
<g id="edge26" class="edge">
<title>3741&#45;&gt;37179</title>
<path fill="none" stroke="#000000" d="M112.5181,-1846.8003C98.8218,-1854.216 80.8901,-1863.9248 65.5041,-1872.2553"/>
<polygon fill="#000000" stroke="#000000" points="63.441,-1869.3922 56.3137,-1877.2313 66.7739,-1875.5478 63.441,-1869.3922"/>
</g>
<!-- 4635 -->
<g id="node23" class="node">
<title>4635</title>
<ellipse fill="none" stroke="#000000" cx="2608.1309" cy="-927.1543" rx="28.6953" ry="18"/>
<text text-anchor="middle" x="2608.1309" y="-923.4543" font-family="Times,serif" font-size="14.00" fill="#000000">4635</text>
</g>
<!-- 4637 -->
<g id="node24" class="node">
<title>4637</title>
<ellipse fill="none" stroke="#000000" cx="2016.7113" cy="-336.7847" rx="28.6953" ry="18"/>
<text text-anchor="middle" x="2016.7113" y="-333.0847" font-family="Times,serif" font-size="14.00" fill="#000000">4637</text>
</g>
<!-- 4637&#45;&gt;2828 -->
<g id="edge27" class="edge">
<title>4637&#45;&gt;2828</title>
<path fill="none" stroke="#000000" d="M2025.0519,-319.3383C2032.7512,-303.2334 2044.2978,-279.0808 2053.1491,-260.5662"/>
<polygon fill="#000000" stroke="#000000" points="2056.342,-262.0022 2057.4975,-251.4706 2050.0265,-258.983 2056.342,-262.0022"/>
</g>
<!-- 4739 -->
<g id="node25" class="node">
<title>4739</title>
<ellipse fill="none" stroke="#000000" cx="2550.4977" cy="-972.3627" rx="28.6953" ry="18"/>
<text text-anchor="middle" x="2550.4977" y="-968.6627" font-family="Times,serif" font-size="14.00" fill="#000000">4739</text>
</g>
<!-- 4755 -->
<g id="node26" class="node">
<title>4755</title>
<ellipse fill="none" stroke="#000000" cx="2148.0605" cy="-612.0386" rx="28.6953" ry="18"/>
<text text-anchor="middle" x="2148.0605" y="-608.3386" font-family="Times,serif" font-size="14.00" fill="#000000">4755</text>
</g>
<!-- 9583 -->
<g id="node42" class="node">
<title>9583</title>
<ellipse fill="none" stroke="#000000" cx="2144.425" cy="-724.2065" rx="28.6953" ry="18"/>
<text text-anchor="middle" x="2144.425" y="-720.5065" font-family="Times,serif" font-size="14.00" fill="#000000">9583</text>
</g>
<!-- 4755&#45;&gt;9583 -->
<g id="edge28" class="edge">
<title>4755&#45;&gt;9583</title>
<path fill="none" stroke="#000000" d="M2147.4764,-630.0603C2146.9021,-647.7796 2146.0168,-675.0963 2145.3473,-695.7499"/>
<polygon fill="#000000" stroke="#000000" points="2141.8456,-695.7488 2145.0198,-705.8569 2148.842,-695.9756 2141.8456,-695.7488"/>
</g>
<!-- 5692 -->
<g id="node28" class="node">
<title>5692</title>
<ellipse fill="none" stroke="#000000" cx="1228.2163" cy="-2099.2177" rx="28.6953" ry="18"/>
<text text-anchor="middle" x="1228.2163" y="-2095.5177" font-family="Times,serif" font-size="14.00" fill="#000000">5692</text>
</g>
<!-- 5692&#45;&gt;3597 -->
<g id="edge29" class="edge">
<title>5692&#45;&gt;3597</title>
<path fill="none" stroke="#000000" d="M1231.7494,-2081.1554C1234.8569,-2065.2684 1239.4306,-2041.8855 1243.0138,-2023.5664"/>
<polygon fill="#000000" stroke="#000000" points="1246.4539,-2024.2116 1244.9387,-2013.7256 1239.5841,-2022.8678 1246.4539,-2024.2116"/>
</g>
<!-- 10834 -->
<g id="node45" class="node">
<title>10834</title>
<ellipse fill="none" stroke="#000000" cx="1092.0291" cy="-1949.8329" rx="32.4942" ry="18"/>
<text text-anchor="middle" x="1092.0291" y="-1946.1329" font-family="Times,serif" font-size="14.00" fill="#000000">10834</text>
</g>
<!-- 5692&#45;&gt;10834 -->
<g id="edge30" class="edge">
<title>5692&#45;&gt;10834</title>
<path fill="none" stroke="#000000" d="M1213.8993,-2083.5133C1190.0771,-2057.3825 1142.146,-2004.8065 1114.0147,-1973.9491"/>
<polygon fill="#000000" stroke="#000000" points="1116.3024,-1971.2634 1106.9788,-1966.2314 1111.1294,-1975.9794 1116.3024,-1971.2634"/>
</g>
<!-- 11008 -->
<g id="node46" class="node">
<title>11008</title>
<ellipse fill="none" stroke="#000000" cx="1309.3116" cy="-2137.2291" rx="32.4942" ry="18"/>
<text text-anchor="middle" x="1309.3116" y="-2133.5291" font-family="Times,serif" font-size="14.00" fill="#000000">11008</text>
</g>
<!-- 5692&#45;&gt;11008 -->
<g id="edge31" class="edge">
<title>5692&#45;&gt;11008</title>
<path fill="none" stroke="#000000" d="M1251.2381,-2110.0086C1258.6426,-2113.4792 1267.0126,-2117.4025 1275.0455,-2121.1677"/>
<polygon fill="#000000" stroke="#000000" points="1273.7024,-2124.4035 1284.2426,-2125.4786 1276.6733,-2118.0652 1273.7024,-2124.4035"/>
</g>
<!-- 27865 -->
<g id="node51" class="node">
<title>27865</title>
<ellipse fill="none" stroke="#000000" cx="1107.8086" cy="-2139.8782" rx="32.4942" ry="18"/>
<text text-anchor="middle" x="1107.8086" y="-2136.1782" font-family="Times,serif" font-size="14.00" fill="#000000">27865</text>
</g>
<!-- 5692&#45;&gt;27865 -->
<g id="edge32" class="edge">
<title>5692&#45;&gt;27865</title>
<path fill="none" stroke="#000000" d="M1202.9749,-2107.7415C1186.3739,-2113.3475 1164.3453,-2120.7863 1145.663,-2127.0952"/>
<polygon fill="#000000" stroke="#000000" points="1144.3198,-2123.8545 1135.9652,-2130.37 1146.5594,-2130.4866 1144.3198,-2123.8545"/>
</g>
<!-- 28065 -->
<g id="node52" class="node">
<title>28065</title>
<ellipse fill="none" stroke="#000000" cx="1247.6561" cy="-2182.3572" rx="32.4942" ry="18"/>
<text text-anchor="middle" x="1247.6561" y="-2178.6572" font-family="Times,serif" font-size="14.00" fill="#000000">28065</text>
</g>
<!-- 5692&#45;&gt;28065 -->
<g id="edge33" class="edge">
<title>5692&#45;&gt;28065</title>
<path fill="none" stroke="#000000" d="M1232.4345,-2117.2578C1234.9819,-2128.1525 1238.2811,-2142.2624 1241.1564,-2154.5595"/>
<polygon fill="#000000" stroke="#000000" points="1237.7613,-2155.4119 1243.4462,-2164.3524 1244.5774,-2153.8181 1237.7613,-2155.4119"/>
</g>
<!-- 52317 -->
<g id="node58" class="node">
<title>52317</title>
<ellipse fill="none" stroke="#000000" cx="1128.9109" cy="-2187.4375" rx="32.4942" ry="18"/>
<text text-anchor="middle" x="1128.9109" y="-2183.7375" font-family="Times,serif" font-size="14.00" fill="#000000">52317</text>
</g>
<!-- 5692&#45;&gt;52317 -->
<g id="edge34" class="edge">
<title>5692&#45;&gt;52317</title>
<path fill="none" stroke="#000000" d="M1211.3705,-2114.183C1195.6308,-2128.1657 1171.9299,-2149.2208 1153.9712,-2165.1747"/>
<polygon fill="#000000" stroke="#000000" points="1151.3247,-2162.8441 1146.1732,-2172.1023 1155.9737,-2168.0774 1151.3247,-2162.8441"/>
</g>
<!-- 52375 -->
<g id="node59" class="node">
<title>52375</title>
<ellipse fill="none" stroke="#000000" cx="1181.3976" cy="-2233.3307" rx="32.4942" ry="18"/>
<text text-anchor="middle" x="1181.3976" y="-2229.6307" font-family="Times,serif" font-size="14.00" fill="#000000">52375</text>
</g>
<!-- 5692&#45;&gt;52375 -->
<g id="edge35" class="edge">
<title>5692&#45;&gt;52375</title>
<path fill="none" stroke="#000000" d="M1221.9992,-2117.0269C1214.0588,-2139.7721 1200.237,-2179.3648 1190.9542,-2205.9556"/>
<polygon fill="#000000" stroke="#000000" points="1187.632,-2204.853 1187.6405,-2215.4479 1194.2409,-2207.1602 1187.632,-2204.853"/>
</g>
<!-- 52376 -->
<g id="node60" class="node">
<title>52376</title>
<ellipse fill="none" stroke="#000000" cx="1333.3273" cy="-2183.9866" rx="32.4942" ry="18"/>
<text text-anchor="middle" x="1333.3273" y="-2180.2866" font-family="Times,serif" font-size="14.00" fill="#000000">52376</text>
</g>
<!-- 5692&#45;&gt;52376 -->
<g id="edge36" class="edge">
<title>5692&#45;&gt;52376</title>
<path fill="none" stroke="#000000" d="M1246.047,-2113.5976C1262.6799,-2127.0116 1287.7121,-2147.1992 1306.7095,-2162.5201"/>
<polygon fill="#000000" stroke="#000000" points="1304.7189,-2165.4111 1314.7002,-2168.9643 1309.1133,-2159.9623 1304.7189,-2165.4111"/>
</g>
<!-- 52380 -->
<g id="node61" class="node">
<title>52380</title>
<ellipse fill="none" stroke="#000000" cx="1319.6768" cy="-2028.4354" rx="32.4942" ry="18"/>
<text text-anchor="middle" x="1319.6768" y="-2024.7354" font-family="Times,serif" font-size="14.00" fill="#000000">52380</text>
</g>
<!-- 5692&#45;&gt;52380 -->
<g id="edge37" class="edge">
<title>5692&#45;&gt;52380</title>
<path fill="none" stroke="#000000" d="M1246.286,-2085.2334C1259.5514,-2074.9672 1277.7908,-2060.8515 1292.7676,-2049.2608"/>
<polygon fill="#000000" stroke="#000000" points="1294.9339,-2052.01 1300.7001,-2043.1217 1290.6497,-2046.4742 1294.9339,-2052.01"/>
</g>
<!-- 52413 -->
<g id="node62" class="node">
<title>52413</title>
<ellipse fill="none" stroke="#000000" cx="1254.5113" cy="-2237.1308" rx="32.4942" ry="18"/>
<text text-anchor="middle" x="1254.5113" y="-2233.4308" font-family="Times,serif" font-size="14.00" fill="#000000">52413</text>
</g>
<!-- 5692&#45;&gt;52413 -->
<g id="edge38" class="edge">
<title>5692&#45;&gt;52413</title>
<path fill="none" stroke="#000000" d="M1231.6539,-2117.2475C1236.1028,-2140.581 1243.9031,-2181.4921 1249.1377,-2208.9471"/>
<polygon fill="#000000" stroke="#000000" points="1245.7618,-2209.9291 1251.0729,-2219.0966 1252.638,-2208.6181 1245.7618,-2209.9291"/>
</g>
<!-- 52431 -->
<g id="node63" class="node">
<title>52431</title>
<ellipse fill="none" stroke="#000000" cx="1389.1002" cy="-2132.0892" rx="32.4942" ry="18"/>
<text text-anchor="middle" x="1389.1002" y="-2128.3892" font-family="Times,serif" font-size="14.00" fill="#000000">52431</text>
</g>
<!-- 5692&#45;&gt;52431 -->
<g id="edge39" class="edge">
<title>5692&#45;&gt;52431</title>
<path fill="none" stroke="#000000" d="M1255.5081,-2104.7939C1281.0101,-2110.0044 1319.4118,-2117.8506 1348.5075,-2123.7954"/>
<polygon fill="#000000" stroke="#000000" points="1347.8762,-2127.2386 1358.3744,-2125.8114 1349.2775,-2120.3803 1347.8762,-2127.2386"/>
</g>
<!-- 262230 -->
<g id="node64" class="node">
<title>262230</title>
<ellipse fill="none" stroke="#000000" cx="1344.8254" cy="-2075.1362" rx="37.0935" ry="18"/>
<text text-anchor="middle" x="1344.8254" y="-2071.4362" font-family="Times,serif" font-size="14.00" fill="#000000">262230</text>
</g>
<!-- 5692&#45;&gt;262230 -->
<g id="edge40" class="edge">
<title>5692&#45;&gt;262230</title>
<path fill="none" stroke="#000000" d="M1255.556,-2093.5717C1268.9015,-2090.8156 1285.2962,-2087.4299 1300.3778,-2084.3153"/>
<polygon fill="#000000" stroke="#000000" points="1301.4701,-2087.6637 1310.5555,-2082.2135 1300.0543,-2080.8083 1301.4701,-2087.6637"/>
</g>
<!-- 264608 -->
<g id="node65" class="node">
<title>264608</title>
<ellipse fill="none" stroke="#000000" cx="1111.6753" cy="-2072.9453" rx="37.0935" ry="18"/>
<text text-anchor="middle" x="1111.6753" y="-2069.2453" font-family="Times,serif" font-size="14.00" fill="#000000">264608</text>
</g>
<!-- 5692&#45;&gt;264608 -->
<g id="edge41" class="edge">
<title>5692&#45;&gt;264608</title>
<path fill="none" stroke="#000000" d="M1201.1866,-2093.1243C1187.6175,-2090.0654 1170.8397,-2086.283 1155.4903,-2082.8228"/>
<polygon fill="#000000" stroke="#000000" points="1156.1828,-2079.3911 1145.6579,-2080.6062 1154.6434,-2086.2197 1156.1828,-2079.3911"/>
</g>
<!-- 6453&#45;&gt;3257 -->
<g id="edge42" class="edge">
<title>6453&#45;&gt;3257</title>
<path fill="none" stroke="#000000" d="M865.0717,-1082.2592C874.0541,-1060.4901 889.521,-1023.006 900.0443,-997.5028"/>
<polygon fill="#000000" stroke="#000000" points="903.368,-998.6237 903.9469,-988.0447 896.8972,-995.9537 903.368,-998.6237"/>
</g>
<!-- 6461&#45;&gt;2497 -->
<g id="edge43" class="edge">
<title>6461&#45;&gt;2497</title>
<path fill="none" stroke="#000000" d="M1478.7914,-554.2811C1499.0995,-548.1636 1527.5704,-539.5873 1550.0335,-532.8207"/>
<polygon fill="#000000" stroke="#000000" points="1551.3153,-536.09 1559.8808,-529.8544 1549.2962,-529.3875 1551.3153,-536.09"/>
</g>
<!-- 6762&#45;&gt;2914 -->
<g id="edge44" class="edge">
<title>6762&#45;&gt;2914</title>
<path fill="none" stroke="#000000" d="M801.6381,-1372.909C805.683,-1345.963 813.3658,-1294.7832 818.1693,-1262.7836"/>
<polygon fill="#000000" stroke="#000000" points="821.6552,-1263.1384 819.6786,-1252.7296 814.7328,-1262.0992 821.6552,-1263.1384"/>
</g>
<!-- 6904 -->
<g id="node32" class="node">
<title>6904</title>
<ellipse fill="none" stroke="#000000" cx="501.9647" cy="-1637.0685" rx="28.6953" ry="18"/>
<text text-anchor="middle" x="501.9647" y="-1633.3685" font-family="Times,serif" font-size="14.00" fill="#000000">6904</text>
</g>
<!-- 6904&#45;&gt;2687 -->
<g id="edge45" class="edge">
<title>6904&#45;&gt;2687</title>
<path fill="none" stroke="#000000" d="M478.4037,-1647.5336C455.7566,-1657.5928 421.3254,-1672.8861 395.9771,-1684.1452"/>
<polygon fill="#000000" stroke="#000000" points="394.4686,-1680.9854 386.7503,-1688.2434 397.3101,-1687.3827 394.4686,-1680.9854"/>
</g>
<!-- 6939 -->
<g id="node33" class="node">
<title>6939</title>
<ellipse fill="none" stroke="#000000" cx="1154.0052" cy="-17.9122" rx="28.6953" ry="18"/>
<text text-anchor="middle" x="1154.0052" y="-14.2122" font-family="Times,serif" font-size="14.00" fill="#000000">6939</text>
</g>
<!-- 7016 -->
<g id="node34" class="node">
<title>7016</title>
<ellipse fill="none" stroke="#000000" cx="521.495" cy="-1496.5564" rx="28.6953" ry="18"/>
<text text-anchor="middle" x="521.495" y="-1492.8564" font-family="Times,serif" font-size="14.00" fill="#000000">7016</text>
</g>
<!-- 7922 -->
<g id="node39" class="node">
<title>7922</title>
<ellipse fill="none" stroke="#000000" cx="411.4679" cy="-1442.5249" rx="28.6953" ry="18"/>
<text text-anchor="middle" x="411.4679" y="-1438.8249" font-family="Times,serif" font-size="14.00" fill="#000000">7922</text>
</g>
<!-- 7016&#45;&gt;7922 -->
<g id="edge46" class="edge">
<title>7016&#45;&gt;7922</title>
<path fill="none" stroke="#000000" d="M498.6973,-1485.361C482.7645,-1477.5368 461.2652,-1466.9791 443.5978,-1458.3031"/>
<polygon fill="#000000" stroke="#000000" points="444.7553,-1454.9723 434.2364,-1453.7059 441.6697,-1461.2555 444.7553,-1454.9723"/>
</g>
<!-- 7018&#45;&gt;3320 -->
<g id="edge47" class="edge">
<title>7018&#45;&gt;3320</title>
<path fill="none" stroke="#000000" d="M1558.9748,-563.8942C1545.4217,-540.3956 1520.8532,-497.7987 1505.0088,-470.3275"/>
<polygon fill="#000000" stroke="#000000" points="1508.0266,-468.5542 1499.9985,-461.6405 1501.9628,-472.0516 1508.0266,-468.5542"/>
</g>
<!-- 7473 -->
<g id="node36" class="node">
<title>7473</title>
<ellipse fill="none" stroke="#000000" cx="2062.8619" cy="-388.2878" rx="28.6953" ry="18"/>
<text text-anchor="middle" x="2062.8619" y="-384.5878" font-family="Times,serif" font-size="14.00" fill="#000000">7473</text>
</g>
<!-- 7474 -->
<g id="node37" class="node">
<title>7474</title>
<ellipse fill="none" stroke="#000000" cx="2321.2167" cy="-644.7218" rx="28.6953" ry="18"/>
<text text-anchor="middle" x="2321.2167" y="-641.0218" font-family="Times,serif" font-size="14.00" fill="#000000">7474</text>
</g>
<!-- 7545&#45;&gt;4635 -->
<g id="edge48" class="edge">
<title>7545&#45;&gt;4635</title>
<path fill="none" stroke="#000000" d="M2520.8742,-871.8859C2537.2819,-882.2785 2560.6319,-897.0684 2579.0489,-908.7337"/>
<polygon fill="#000000" stroke="#000000" points="2577.3208,-911.7822 2587.6416,-914.1764 2581.0665,-905.8687 2577.3208,-911.7822"/>
</g>
<!-- 7545&#45;&gt;4739 -->
<g id="edge49" class="edge">
<title>7545&#45;&gt;4739</title>
<path fill="none" stroke="#000000" d="M2508.4469,-876.7822C2516.5297,-895.1542 2529.2734,-924.1203 2538.6149,-945.3534"/>
<polygon fill="#000000" stroke="#000000" points="2535.5344,-947.043 2542.7652,-954.7869 2541.9418,-944.2241 2535.5344,-947.043"/>
</g>
<!-- 9942 -->
<g id="node43" class="node">
<title>9942</title>
<ellipse fill="none" stroke="#000000" cx="2625.648" cy="-865.8219" rx="28.6953" ry="18"/>
<text text-anchor="middle" x="2625.648" y="-862.1219" font-family="Times,serif" font-size="14.00" fill="#000000">9942</text>
</g>
<!-- 7545&#45;&gt;9942 -->
<g id="edge50" class="edge">
<title>7545&#45;&gt;9942</title>
<path fill="none" stroke="#000000" d="M2529.3346,-860.6283C2546.4038,-861.5488 2568.2899,-862.729 2586.8843,-863.7316"/>
<polygon fill="#000000" stroke="#000000" points="2586.9326,-867.2392 2597.1066,-864.2829 2587.3096,-860.2494 2586.9326,-867.2392"/>
</g>
<!-- 9498&#45;&gt;4637 -->
<g id="edge51" class="edge">
<title>9498&#45;&gt;4637</title>
<path fill="none" stroke="#000000" d="M1980.612,-451.4749C1987.6426,-429.1383 1999.7485,-390.6767 2007.9851,-364.5084"/>
<polygon fill="#000000" stroke="#000000" points="2011.3759,-365.3932 2011.0397,-354.8037 2004.6988,-363.2915 2011.3759,-365.3932"/>
</g>
<!-- 9498&#45;&gt;7473 -->
<g id="edge52" class="edge">
<title>9498&#45;&gt;7473</title>
<path fill="none" stroke="#000000" d="M1991.1026,-454.485C2004.5205,-442.1071 2023.8186,-424.3049 2039.0233,-410.2787"/>
<polygon fill="#000000" stroke="#000000" points="2041.5714,-412.6899 2046.5484,-403.3368 2036.825,-407.5447 2041.5714,-412.6899"/>
</g>
<!-- 10026 -->
<g id="node44" class="node">
<title>10026</title>
<ellipse fill="none" stroke="#000000" cx="2088.8299" cy="-513.4092" rx="32.4942" ry="18"/>
<text text-anchor="middle" x="2088.8299" y="-509.7092" font-family="Times,serif" font-size="14.00" fill="#000000">10026</text>
</g>
<!-- 9498&#45;&gt;10026 -->
<g id="edge53" class="edge">
<title>9498&#45;&gt;10026</title>
<path fill="none" stroke="#000000" d="M1999.4072,-478.8048C2014.8089,-484.7649 2034.9845,-492.5723 2052.273,-499.2625"/>
<polygon fill="#000000" stroke="#000000" points="2051.4715,-502.7052 2062.0607,-503.0501 2053.9978,-496.177 2051.4715,-502.7052"/>
</g>
<!-- 10026&#45;&gt;4755 -->
<g id="edge54" class="edge">
<title>10026&#45;&gt;4755</title>
<path fill="none" stroke="#000000" d="M2099.1471,-530.5891C2108.4048,-546.0048 2122.1186,-568.8408 2132.6716,-586.4132"/>
<polygon fill="#000000" stroke="#000000" points="2129.7127,-588.2846 2137.8616,-595.0556 2135.7137,-584.6807 2129.7127,-588.2846"/>
</g>
<!-- 12956 -->
<g id="node47" class="node">
<title>12956</title>
<ellipse fill="none" stroke="#000000" cx="981.717" cy="-1810.6549" rx="32.4942" ry="18"/>
<text text-anchor="middle" x="981.717" y="-1806.9549" font-family="Times,serif" font-size="14.00" fill="#000000">12956</text>
</g>
<!-- 10834&#45;&gt;12956 -->
<g id="edge55" class="edge">
<title>10834&#45;&gt;12956</title>
<path fill="none" stroke="#000000" d="M1078.9417,-1933.3208C1059.7015,-1909.046 1023.6466,-1863.5564 1001.2618,-1835.3141"/>
<polygon fill="#000000" stroke="#000000" points="1003.7419,-1832.8084 994.7874,-1827.1455 998.256,-1837.1565 1003.7419,-1832.8084"/>
</g>
<!-- 22927 -->
<g id="node50" class="node">
<title>22927</title>
<ellipse fill="none" stroke="#000000" cx="991.3669" cy="-1922.8677" rx="32.4942" ry="18"/>
<text text-anchor="middle" x="991.3669" y="-1919.1677" font-family="Times,serif" font-size="14.00" fill="#000000">22927</text>
</g>
<!-- 10834&#45;&gt;22927 -->
<g id="edge56" class="edge">
<title>10834&#45;&gt;22927</title>
<path fill="none" stroke="#000000" d="M1062.6428,-1941.961C1052.7041,-1939.2986 1041.4392,-1936.281 1030.8475,-1933.4437"/>
<polygon fill="#000000" stroke="#000000" points="1031.5291,-1930.003 1020.964,-1930.7961 1029.7177,-1936.7646 1031.5291,-1930.003"/>
</g>
<!-- 12956&#45;&gt;3356 -->
<g id="edge57" class="edge">
<title>12956&#45;&gt;3356</title>
<path fill="none" stroke="#000000" d="M968.7599,-1793.9794C949.609,-1769.3325 913.6313,-1723.0298 891.4975,-1694.544"/>
<polygon fill="#000000" stroke="#000000" points="894.0063,-1692.0683 885.1069,-1686.3193 888.4788,-1696.3633 894.0063,-1692.0683"/>
</g>
<!-- 17676&#45;&gt;6939 -->
<g id="edge58" class="edge">
<title>17676&#45;&gt;6939</title>
<path fill="none" stroke="#000000" d="M1223.8703,-97.3232C1210.3719,-81.9805 1189.9629,-58.7829 1174.6834,-41.4157"/>
<polygon fill="#000000" stroke="#000000" points="1177.3005,-39.0916 1168.0673,-33.8956 1172.0449,-43.7154 1177.3005,-39.0916"/>
</g>
<!-- 18540 -->
<g id="node49" class="node">
<title>18540</title>
<ellipse fill="none" stroke="#000000" cx="516.6412" cy="-1571.6408" rx="32.4942" ry="18"/>
<text text-anchor="middle" x="516.6412" y="-1567.9408" font-family="Times,serif" font-size="14.00" fill="#000000">18540</text>
</g>
<!-- 30070&#45;&gt;6904 -->
<g id="edge59" class="edge">
<title>30070&#45;&gt;6904</title>
<path fill="none" stroke="#000000" d="M602.6692,-1579.5003C582.8339,-1590.8392 553.8423,-1607.4124 532.0536,-1619.868"/>
<polygon fill="#000000" stroke="#000000" points="530.1489,-1616.9253 523.2043,-1624.9268 533.6229,-1623.0024 530.1489,-1616.9253"/>
</g>
<!-- 30070&#45;&gt;7016 -->
<g id="edge60" class="edge">
<title>30070&#45;&gt;7016</title>
<path fill="none" stroke="#000000" d="M604.2845,-1552.4015C588.5462,-1541.7854 566.8483,-1527.1492 549.6139,-1515.5238"/>
<polygon fill="#000000" stroke="#000000" points="551.311,-1512.4468 541.0635,-1509.7562 547.3965,-1518.25 551.311,-1512.4468"/>
</g>
<!-- 30070&#45;&gt;18540 -->
<g id="edge61" class="edge">
<title>30070&#45;&gt;18540</title>
<path fill="none" stroke="#000000" d="M592.6909,-1568.0912C582.2701,-1568.5776 570.5722,-1569.1236 559.5339,-1569.6388"/>
<polygon fill="#000000" stroke="#000000" points="559.042,-1566.1579 549.2161,-1570.1204 559.3684,-1573.1503 559.042,-1566.1579"/>
</g>
<!-- 32787&#45;&gt;2764 -->
<g id="edge62" class="edge">
<title>32787&#45;&gt;2764</title>
<path fill="none" stroke="#000000" d="M2248.2968,-712.47C2275.8793,-725.2384 2320.1164,-745.7163 2350.2039,-759.6443"/>
<polygon fill="#000000" stroke="#000000" points="2348.8911,-762.8934 2359.4363,-763.9181 2351.8318,-756.541 2348.8911,-762.8934"/>
</g>
<!-- 32787&#45;&gt;7474 -->
<g id="edge63" class="edge">
<title>32787&#45;&gt;7474</title>
<path fill="none" stroke="#000000" d="M2245.7985,-687.7713C2259.3105,-680.0585 2276.5991,-670.19 2291.2138,-661.8477"/>
<polygon fill="#000000" stroke="#000000" points="2292.9607,-664.8807 2299.9104,-656.8836 2289.4906,-658.8014 2292.9607,-664.8807"/>
</g>
<!-- 38333&#45;&gt;1221 -->
<g id="edge64" class="edge">
<title>38333&#45;&gt;1221</title>
<path fill="none" stroke="#000000" d="M2532.376,-723.4249C2549.6925,-718.2572 2571.8921,-711.6322 2590.3526,-706.1232"/>
<polygon fill="#000000" stroke="#000000" points="2591.5874,-709.4073 2600.1689,-703.1937 2589.5856,-702.6996 2591.5874,-709.4073"/>
</g>
</g>
</svg>
