<?xml version="1.0" encoding="UTF-8" standalone="no"?>
<!DOCTYPE svg PUBLIC "-//W3C//DTD SVG 1.1//EN"
 "http://www.w3.org/Graphics/SVG/1.1/DTD/svg11.dtd">
<!-- Generated by graphviz version 2.40.1 (20161225.0304)
 -->
<!-- Title: %3 Pages: 1 -->
<svg width="1596pt" height="1511pt"
 viewBox="0.00 0.00 1596.13 1510.62" xmlns="http://www.w3.org/2000/svg" xmlns:xlink="http://www.w3.org/1999/xlink">
<g id="graph0" class="graph" transform="scale(1 1) rotate(0) translate(4 1506.6161)">
<title>%3</title>
<polygon fill="#ffffff" stroke="transparent" points="-4,4 -4,-1506.6161 1592.1336,-1506.6161 1592.1336,4 -4,4"/>
<!-- 174 -->
<g id="node1" class="node">
<title>174</title>
<ellipse fill="none" stroke="#000000" cx="764.0668" cy="-805.0201" rx="27" ry="18"/>
<text text-anchor="middle" x="764.0668" y="-801.3201" font-family="Times,serif" font-size="14.00" fill="#000000">174</text>
</g>
<!-- 209 -->
<g id="node2" class="node">
<title>209</title>
<ellipse fill="none" stroke="#000000" cx="787.8469" cy="-872.9797" rx="27" ry="18"/>
<text text-anchor="middle" x="787.8469" y="-869.2797" font-family="Times,serif" font-size="14.00" fill="#000000">209</text>
</g>
<!-- 174&#45;&gt;209 -->
<g id="edge1" class="edge">
<title>174&#45;&gt;209</title>
<path fill="none" stroke="#000000" d="M770.3148,-822.8757C772.7259,-829.7664 775.5401,-837.8089 778.1991,-845.4077"/>
<polygon fill="#000000" stroke="#000000" points="774.9517,-846.7245 781.5581,-855.0074 781.5589,-844.4125 774.9517,-846.7245"/>
</g>
<!-- 1299 -->
<g id="node8" class="node">
<title>1299</title>
<ellipse fill="none" stroke="#000000" cx="811.627" cy="-940.9393" rx="28.6953" ry="18"/>
<text text-anchor="middle" x="811.627" y="-937.2393" font-family="Times,serif" font-size="14.00" fill="#000000">1299</text>
</g>
<!-- 209&#45;&gt;1299 -->
<g id="edge2" class="edge">
<title>209&#45;&gt;1299</title>
<path fill="none" stroke="#000000" d="M794.0949,-890.8353C796.506,-897.726 799.3202,-905.7685 801.9792,-913.3673"/>
<polygon fill="#000000" stroke="#000000" points="798.7318,-914.6841 805.3382,-922.967 805.339,-912.3721 798.7318,-914.6841"/>
</g>
<!-- 701 -->
<g id="node3" class="node">
<title>701</title>
<ellipse fill="none" stroke="#000000" cx="882.9673" cy="-1144.8181" rx="27" ry="18"/>
<text text-anchor="middle" x="882.9673" y="-1141.1181" font-family="Times,serif" font-size="14.00" fill="#000000">701</text>
</g>
<!-- 703 -->
<g id="node4" class="node">
<title>703</title>
<ellipse fill="none" stroke="#000000" cx="993.9047" cy="-1170.8049" rx="27" ry="18"/>
<text text-anchor="middle" x="993.9047" y="-1167.1049" font-family="Times,serif" font-size="14.00" fill="#000000">703</text>
</g>
<!-- 701&#45;&gt;703 -->
<g id="edge3" class="edge">
<title>701&#45;&gt;703</title>
<path fill="none" stroke="#000000" d="M908.6974,-1150.8453C923.3992,-1154.2892 942.0582,-1158.66 958.1653,-1162.433"/>
<polygon fill="#000000" stroke="#000000" points="957.7794,-1165.9373 968.3141,-1164.8104 959.376,-1159.1218 957.7794,-1165.9373"/>
</g>
<!-- 7018 -->
<g id="node35" class="node">
<title>7018</title>
<ellipse fill="none" stroke="#000000" cx="494.7192" cy="-1142.7713" rx="28.6953" ry="18"/>
<text text-anchor="middle" x="494.7192" y="-1139.0713" font-family="Times,serif" font-size="14.00" fill="#000000">7018</text>
</g>
<!-- 701&#45;&gt;7018 -->
<g id="edge4" class="edge">
<title>701&#45;&gt;7018</title>
<path fill="none" stroke="#000000" d="M855.6664,-1144.6741C788.0776,-1144.3178 612.7442,-1143.3935 534.009,-1142.9784"/>
<polygon fill="#000000" stroke="#000000" points="533.5798,-1139.4762 523.5615,-1142.9233 533.5429,-1146.4761 533.5798,-1139.4762"/>
</g>
<!-- 2516 -->
<g id="node10" class="node">
<title>2516</title>
<ellipse fill="none" stroke="#000000" cx="1158.1099" cy="-1119.2589" rx="28.6953" ry="18"/>
<text text-anchor="middle" x="1158.1099" y="-1115.5589" font-family="Times,serif" font-size="14.00" fill="#000000">2516</text>
</g>
<!-- 703&#45;&gt;2516 -->
<g id="edge5" class="edge">
<title>703&#45;&gt;2516</title>
<path fill="none" stroke="#000000" d="M1018.4879,-1163.088C1046.0979,-1154.4208 1091.1484,-1140.279 1122.5847,-1130.4107"/>
<polygon fill="#000000" stroke="#000000" points="1123.7809,-1133.7037 1132.2736,-1127.3693 1121.6844,-1127.025 1123.7809,-1133.7037"/>
</g>
<!-- 9498 -->
<g id="node40" class="node">
<title>9498</title>
<ellipse fill="none" stroke="#000000" cx="707.6367" cy="-1305.851" rx="28.6953" ry="18"/>
<text text-anchor="middle" x="707.6367" y="-1302.151" font-family="Times,serif" font-size="14.00" fill="#000000">9498</text>
</g>
<!-- 703&#45;&gt;9498 -->
<g id="edge6" class="edge">
<title>703&#45;&gt;9498</title>
<path fill="none" stroke="#000000" d="M971.4417,-1181.4018C920.9999,-1205.1975 798.5801,-1262.9488 739.9635,-1290.601"/>
<polygon fill="#000000" stroke="#000000" points="738.3414,-1287.4962 730.7905,-1294.9283 741.328,-1293.8271 738.3414,-1287.4962"/>
</g>
<!-- 1221 -->
<g id="node5" class="node">
<title>1221</title>
<ellipse fill="none" stroke="#000000" cx="1324.0954" cy="-1365.0486" rx="28.6953" ry="18"/>
<text text-anchor="middle" x="1324.0954" y="-1361.3486" font-family="Times,serif" font-size="14.00" fill="#000000">1221</text>
</g>
<!-- 1239 -->
<g id="node6" class="node">
<title>1239</title>
<ellipse fill="none" stroke="#000000" cx="360.0454" cy="-1311.6469" rx="28.6953" ry="18"/>
<text text-anchor="middle" x="360.0454" y="-1307.9469" font-family="Times,serif" font-size="14.00" fill="#000000">1239</text>
</g>
<!-- 5511 -->
<g id="node27" class="node">
<title>5511</title>
<ellipse fill="none" stroke="#000000" cx="381.0037" cy="-1414.6615" rx="28.6953" ry="18"/>
<text text-anchor="middle" x="381.0037" y="-1410.9615" font-family="Times,serif" font-size="14.00" fill="#000000">5511</text>
</g>
<!-- 1239&#45;&gt;5511 -->
<g id="edge7" class="edge">
<title>1239&#45;&gt;5511</title>
<path fill="none" stroke="#000000" d="M363.6961,-1329.5906C366.8921,-1345.2999 371.5892,-1368.3868 375.2839,-1386.5473"/>
<polygon fill="#000000" stroke="#000000" points="371.9011,-1387.4763 377.3246,-1396.5777 378.7606,-1386.0806 371.9011,-1387.4763"/>
</g>
<!-- 17676 -->
<g id="node48" class="node">
<title>17676</title>
<ellipse fill="none" stroke="#000000" cx="254.9499" cy="-1314.137" rx="32.4942" ry="18"/>
<text text-anchor="middle" x="254.9499" y="-1310.437" font-family="Times,serif" font-size="14.00" fill="#000000">17676</text>
</g>
<!-- 1239&#45;&gt;17676 -->
<g id="edge8" class="edge">
<title>1239&#45;&gt;17676</title>
<path fill="none" stroke="#000000" d="M331.3276,-1312.3273C320.9978,-1312.572 309.1092,-1312.8537 297.8351,-1313.1209"/>
<polygon fill="#000000" stroke="#000000" points="297.6308,-1309.6246 287.7166,-1313.3606 297.7967,-1316.6226 297.6308,-1309.6246"/>
</g>
<!-- 1273 -->
<g id="node7" class="node">
<title>1273</title>
<ellipse fill="none" stroke="#000000" cx="404.9367" cy="-1255.355" rx="28.6953" ry="18"/>
<text text-anchor="middle" x="404.9367" y="-1251.655" font-family="Times,serif" font-size="14.00" fill="#000000">1273</text>
</g>
<!-- 1273&#45;&gt;1239 -->
<g id="edge9" class="edge">
<title>1273&#45;&gt;1239</title>
<path fill="none" stroke="#000000" d="M391.9523,-1271.6369C388.0778,-1276.4954 383.7429,-1281.9312 379.5476,-1287.1919"/>
<polygon fill="#000000" stroke="#000000" points="376.6547,-1285.2059 373.1562,-1295.2065 382.1275,-1289.5704 376.6547,-1285.2059"/>
</g>
<!-- 6461 -->
<g id="node30" class="node">
<title>6461</title>
<ellipse fill="none" stroke="#000000" cx="835.4071" cy="-1008.8989" rx="28.6953" ry="18"/>
<text text-anchor="middle" x="835.4071" y="-1005.1989" font-family="Times,serif" font-size="14.00" fill="#000000">6461</text>
</g>
<!-- 1299&#45;&gt;6461 -->
<g id="edge10" class="edge">
<title>1299&#45;&gt;6461</title>
<path fill="none" stroke="#000000" d="M817.8749,-958.7949C820.2861,-965.6856 823.1003,-973.7281 825.7593,-981.3269"/>
<polygon fill="#000000" stroke="#000000" points="822.5119,-982.6437 829.1183,-990.9266 829.1191,-980.3317 822.5119,-982.6437"/>
</g>
<!-- 2497 -->
<g id="node9" class="node">
<title>2497</title>
<ellipse fill="none" stroke="#000000" cx="859.1872" cy="-1076.8585" rx="28.6953" ry="18"/>
<text text-anchor="middle" x="859.1872" y="-1073.1585" font-family="Times,serif" font-size="14.00" fill="#000000">2497</text>
</g>
<!-- 2497&#45;&gt;701 -->
<g id="edge11" class="edge">
<title>2497&#45;&gt;701</title>
<path fill="none" stroke="#000000" d="M865.4351,-1094.7141C867.8463,-1101.6048 870.6605,-1109.6473 873.3194,-1117.2461"/>
<polygon fill="#000000" stroke="#000000" points="870.0721,-1118.5629 876.6785,-1126.8458 876.6792,-1116.2509 870.0721,-1118.5629"/>
</g>
<!-- 32787 -->
<g id="node54" class="node">
<title>32787</title>
<ellipse fill="none" stroke="#000000" cx="1214.4018" cy="-1164.1502" rx="32.4942" ry="18"/>
<text text-anchor="middle" x="1214.4018" y="-1160.4502" font-family="Times,serif" font-size="14.00" fill="#000000">32787</text>
</g>
<!-- 2516&#45;&gt;32787 -->
<g id="edge12" class="edge">
<title>2516&#45;&gt;32787</title>
<path fill="none" stroke="#000000" d="M1175.921,-1133.4628C1179.6695,-1136.4521 1183.702,-1139.6679 1187.6957,-1142.8528"/>
<polygon fill="#000000" stroke="#000000" points="1185.735,-1145.7659 1195.7356,-1149.2644 1190.0995,-1140.2931 1185.735,-1145.7659"/>
</g>
<!-- 2686 -->
<g id="node11" class="node">
<title>2686</title>
<ellipse fill="none" stroke="#000000" cx="154.4254" cy="-1188.0832" rx="28.6953" ry="18"/>
<text text-anchor="middle" x="154.4254" y="-1184.3832" font-family="Times,serif" font-size="14.00" fill="#000000">2686</text>
</g>
<!-- 3741 -->
<g id="node22" class="node">
<title>3741</title>
<ellipse fill="none" stroke="#000000" cx="93.4613" cy="-1226.3895" rx="28.6953" ry="18"/>
<text text-anchor="middle" x="93.4613" y="-1222.6895" font-family="Times,serif" font-size="14.00" fill="#000000">3741</text>
</g>
<!-- 2686&#45;&gt;3741 -->
<g id="edge13" class="edge">
<title>2686&#45;&gt;3741</title>
<path fill="none" stroke="#000000" d="M134.1252,-1200.8386C130.3605,-1203.2041 126.3618,-1205.7167 122.3979,-1208.2074"/>
<polygon fill="#000000" stroke="#000000" points="120.4858,-1205.2752 113.8806,-1213.5591 124.21,-1211.2023 120.4858,-1205.2752"/>
</g>
<!-- 2687 -->
<g id="node12" class="node">
<title>2687</title>
<ellipse fill="none" stroke="#000000" cx="180.239" cy="-1086.1767" rx="28.6953" ry="18"/>
<text text-anchor="middle" x="180.239" y="-1082.4767" font-family="Times,serif" font-size="14.00" fill="#000000">2687</text>
</g>
<!-- 2687&#45;&gt;2686 -->
<g id="edge14" class="edge">
<title>2687&#45;&gt;2686</title>
<path fill="none" stroke="#000000" d="M175.624,-1104.3956C171.6963,-1119.9013 165.992,-1142.4207 161.4898,-1160.1945"/>
<polygon fill="#000000" stroke="#000000" points="158.0631,-1159.4688 159.0004,-1170.0221 164.8488,-1161.1877 158.0631,-1159.4688"/>
</g>
<!-- 9505 -->
<g id="node41" class="node">
<title>9505</title>
<ellipse fill="none" stroke="#000000" cx="84.4708" cy="-1042.821" rx="28.6953" ry="18"/>
<text text-anchor="middle" x="84.4708" y="-1039.121" font-family="Times,serif" font-size="14.00" fill="#000000">9505</text>
</g>
<!-- 2687&#45;&gt;9505 -->
<g id="edge15" class="edge">
<title>2687&#45;&gt;9505</title>
<path fill="none" stroke="#000000" d="M156.566,-1075.4596C144.7367,-1070.1043 130.2324,-1063.5379 117.3426,-1057.7026"/>
<polygon fill="#000000" stroke="#000000" points="118.425,-1054.3507 107.8716,-1053.4149 115.538,-1060.7276 118.425,-1054.3507"/>
</g>
<!-- 2764 -->
<g id="node13" class="node">
<title>2764</title>
<ellipse fill="none" stroke="#000000" cx="1312.7441" cy="-1149.7769" rx="28.6953" ry="18"/>
<text text-anchor="middle" x="1312.7441" y="-1146.0769" font-family="Times,serif" font-size="14.00" fill="#000000">2764</text>
</g>
<!-- 7545 -->
<g id="node38" class="node">
<title>7545</title>
<ellipse fill="none" stroke="#000000" cx="1443.6628" cy="-1042.821" rx="28.6953" ry="18"/>
<text text-anchor="middle" x="1443.6628" y="-1039.121" font-family="Times,serif" font-size="14.00" fill="#000000">7545</text>
</g>
<!-- 2764&#45;&gt;7545 -->
<g id="edge16" class="edge">
<title>2764&#45;&gt;7545</title>
<path fill="none" stroke="#000000" d="M1330.4004,-1135.3523C1352.947,-1116.9325 1392.1302,-1084.9213 1417.9814,-1063.8018"/>
<polygon fill="#000000" stroke="#000000" points="1420.3383,-1066.3958 1425.8682,-1057.3586 1415.9096,-1060.9749 1420.3383,-1066.3958"/>
</g>
<!-- 38333 -->
<g id="node56" class="node">
<title>38333</title>
<ellipse fill="none" stroke="#000000" cx="1273.1837" cy="-1314.137" rx="32.4942" ry="18"/>
<text text-anchor="middle" x="1273.1837" y="-1310.437" font-family="Times,serif" font-size="14.00" fill="#000000">38333</text>
</g>
<!-- 2764&#45;&gt;38333 -->
<g id="edge17" class="edge">
<title>2764&#45;&gt;38333</title>
<path fill="none" stroke="#000000" d="M1308.4351,-1167.6791C1301.5685,-1196.2077 1288.0886,-1252.2123 1279.933,-1286.0958"/>
<polygon fill="#000000" stroke="#000000" points="1276.4247,-1285.7153 1277.4874,-1296.2567 1283.2304,-1287.3535 1276.4247,-1285.7153"/>
</g>
<!-- 38561 -->
<g id="node57" class="node">
<title>38561</title>
<ellipse fill="none" stroke="#000000" cx="1147.1299" cy="-1414.6615" rx="32.4942" ry="18"/>
<text text-anchor="middle" x="1147.1299" y="-1410.9615" font-family="Times,serif" font-size="14.00" fill="#000000">38561</text>
</g>
<!-- 2764&#45;&gt;38561 -->
<g id="edge18" class="edge">
<title>2764&#45;&gt;38561</title>
<path fill="none" stroke="#000000" d="M1302.1323,-1166.7495C1273.9223,-1211.8687 1196.9337,-1335.005 1163.2593,-1388.864"/>
<polygon fill="#000000" stroke="#000000" points="1160.2015,-1387.1527 1157.8677,-1397.4874 1166.1369,-1390.8637 1160.2015,-1387.1527"/>
</g>
<!-- 2828 -->
<g id="node14" class="node">
<title>2828</title>
<ellipse fill="none" stroke="#000000" cx="836.6198" cy="-1448.9456" rx="28.6953" ry="18"/>
<text text-anchor="middle" x="836.6198" y="-1445.2456" font-family="Times,serif" font-size="14.00" fill="#000000">2828</text>
</g>
<!-- 2914 -->
<g id="node15" class="node">
<title>2914</title>
<ellipse fill="none" stroke="#000000" cx="668.9465" cy="-533.1817" rx="28.6953" ry="18"/>
<text text-anchor="middle" x="668.9465" y="-529.4817" font-family="Times,serif" font-size="14.00" fill="#000000">2914</text>
</g>
<!-- 6453 -->
<g id="node29" class="node">
<title>6453</title>
<ellipse fill="none" stroke="#000000" cx="692.7265" cy="-601.1413" rx="28.6953" ry="18"/>
<text text-anchor="middle" x="692.7265" y="-597.4413" font-family="Times,serif" font-size="14.00" fill="#000000">6453</text>
</g>
<!-- 2914&#45;&gt;6453 -->
<g id="edge19" class="edge">
<title>2914&#45;&gt;6453</title>
<path fill="none" stroke="#000000" d="M675.1944,-551.0373C677.6056,-557.928 680.4198,-565.9705 683.0787,-573.5693"/>
<polygon fill="#000000" stroke="#000000" points="679.8313,-574.8861 686.4378,-583.169 686.4385,-572.5741 679.8313,-574.8861"/>
</g>
<!-- 3257 -->
<g id="node16" class="node">
<title>3257</title>
<ellipse fill="none" stroke="#000000" cx="716.5066" cy="-669.1009" rx="28.6953" ry="18"/>
<text text-anchor="middle" x="716.5066" y="-665.4009" font-family="Times,serif" font-size="14.00" fill="#000000">3257</text>
</g>
<!-- 3491 -->
<g id="node19" class="node">
<title>3491</title>
<ellipse fill="none" stroke="#000000" cx="740.2867" cy="-737.0605" rx="28.6953" ry="18"/>
<text text-anchor="middle" x="740.2867" y="-733.3605" font-family="Times,serif" font-size="14.00" fill="#000000">3491</text>
</g>
<!-- 3257&#45;&gt;3491 -->
<g id="edge20" class="edge">
<title>3257&#45;&gt;3491</title>
<path fill="none" stroke="#000000" d="M722.7546,-686.9565C725.1658,-693.8472 727.9799,-701.8897 730.6389,-709.4885"/>
<polygon fill="#000000" stroke="#000000" points="727.3915,-710.8053 733.998,-719.0882 733.9987,-708.4933 727.3915,-710.8053"/>
</g>
<!-- 3320 -->
<g id="node17" class="node">
<title>3320</title>
<ellipse fill="none" stroke="#000000" cx="449.828" cy="-1199.0631" rx="28.6953" ry="18"/>
<text text-anchor="middle" x="449.828" y="-1195.3631" font-family="Times,serif" font-size="14.00" fill="#000000">3320</text>
</g>
<!-- 3320&#45;&gt;1273 -->
<g id="edge21" class="edge">
<title>3320&#45;&gt;1273</title>
<path fill="none" stroke="#000000" d="M436.8436,-1215.3451C432.9691,-1220.2035 428.6342,-1225.6393 424.4389,-1230.9"/>
<polygon fill="#000000" stroke="#000000" points="421.546,-1228.9141 418.0475,-1238.9146 427.0188,-1233.2785 421.546,-1228.9141"/>
</g>
<!-- 3356 -->
<g id="node18" class="node">
<title>3356</title>
<ellipse fill="none" stroke="#000000" cx="820.4969" cy="-304.1891" rx="28.6953" ry="18"/>
<text text-anchor="middle" x="820.4969" y="-300.4891" font-family="Times,serif" font-size="14.00" fill="#000000">3356</text>
</g>
<!-- 3549 -->
<g id="node20" class="node">
<title>3549</title>
<ellipse fill="none" stroke="#000000" cx="621.3863" cy="-397.2625" rx="28.6953" ry="18"/>
<text text-anchor="middle" x="621.3863" y="-393.5625" font-family="Times,serif" font-size="14.00" fill="#000000">3549</text>
</g>
<!-- 3356&#45;&gt;3549 -->
<g id="edge22" class="edge">
<title>3356&#45;&gt;3549</title>
<path fill="none" stroke="#000000" d="M797.2667,-315.048C761.7477,-331.6512 693.8348,-363.3967 653.5846,-382.2115"/>
<polygon fill="#000000" stroke="#000000" points="652.0455,-379.0674 644.4685,-386.4728 655.0098,-385.4088 652.0455,-379.0674"/>
</g>
<!-- 3491&#45;&gt;174 -->
<g id="edge23" class="edge">
<title>3491&#45;&gt;174</title>
<path fill="none" stroke="#000000" d="M746.5347,-754.9161C748.9459,-761.8068 751.76,-769.8493 754.419,-777.4481"/>
<polygon fill="#000000" stroke="#000000" points="751.1716,-778.7649 757.778,-787.0478 757.7788,-776.4529 751.1716,-778.7649"/>
</g>
<!-- 6762 -->
<g id="node31" class="node">
<title>6762</title>
<ellipse fill="none" stroke="#000000" cx="645.1664" cy="-465.2221" rx="28.6953" ry="18"/>
<text text-anchor="middle" x="645.1664" y="-461.5221" font-family="Times,serif" font-size="14.00" fill="#000000">6762</text>
</g>
<!-- 3549&#45;&gt;6762 -->
<g id="edge24" class="edge">
<title>3549&#45;&gt;6762</title>
<path fill="none" stroke="#000000" d="M627.6342,-415.1181C630.0454,-422.0088 632.8596,-430.0513 635.5185,-437.6501"/>
<polygon fill="#000000" stroke="#000000" points="632.2711,-438.9669 638.8776,-447.2498 638.8783,-436.6549 632.2711,-438.9669"/>
</g>
<!-- 30070 -->
<g id="node53" class="node">
<title>30070</title>
<ellipse fill="none" stroke="#000000" cx="272.7032" cy="-917.1706" rx="32.4942" ry="18"/>
<text text-anchor="middle" x="272.7032" y="-913.4706" font-family="Times,serif" font-size="14.00" fill="#000000">30070</text>
</g>
<!-- 3549&#45;&gt;30070 -->
<g id="edge25" class="edge">
<title>3549&#45;&gt;30070</title>
<path fill="none" stroke="#000000" d="M610.1799,-413.9719C559.4151,-489.6653 350.8485,-800.651 289.6547,-891.8948"/>
<polygon fill="#000000" stroke="#000000" points="286.7063,-890.0075 284.0431,-900.2621 292.5199,-893.9065 286.7063,-890.0075"/>
</g>
<!-- 3597 -->
<g id="node21" class="node">
<title>3597</title>
<ellipse fill="none" stroke="#000000" cx="93.4613" cy="-383.6507" rx="28.6953" ry="18"/>
<text text-anchor="middle" x="93.4613" y="-379.9507" font-family="Times,serif" font-size="14.00" fill="#000000">3597</text>
</g>
<!-- 37179 -->
<g id="node55" class="node">
<title>37179</title>
<ellipse fill="none" stroke="#000000" cx="32.4971" cy="-1264.6958" rx="32.4942" ry="18"/>
<text text-anchor="middle" x="32.4971" y="-1260.9958" font-family="Times,serif" font-size="14.00" fill="#000000">37179</text>
</g>
<!-- 3741&#45;&gt;37179 -->
<g id="edge26" class="edge">
<title>3741&#45;&gt;37179</title>
<path fill="none" stroke="#000000" d="M73.1611,-1239.1449C69.8272,-1241.2397 66.3097,-1243.4499 62.7955,-1245.658"/>
<polygon fill="#000000" stroke="#000000" points="60.7783,-1242.7919 54.1732,-1251.0758 64.5026,-1248.719 60.7783,-1242.7919"/>
</g>
<!-- 4635 -->
<g id="node23" class="node">
<title>4635</title>
<ellipse fill="none" stroke="#000000" cx="1551.0869" cy="-893.6959" rx="28.6953" ry="18"/>
<text text-anchor="middle" x="1551.0869" y="-889.9959" font-family="Times,serif" font-size="14.00" fill="#000000">4635</text>
</g>
<!-- 4637 -->
<g id="node24" class="node">
<title>4637</title>
<ellipse fill="none" stroke="#000000" cx="828.5584" cy="-1377.3983" rx="28.6953" ry="18"/>
<text text-anchor="middle" x="828.5584" y="-1373.6983" font-family="Times,serif" font-size="14.00" fill="#000000">4637</text>
</g>
<!-- 4637&#45;&gt;2828 -->
<g id="edge27" class="edge">
<title>4637&#45;&gt;2828</title>
<path fill="none" stroke="#000000" d="M830.5926,-1395.4527C831.4548,-1403.1047 832.48,-1412.2037 833.4382,-1420.7076"/>
<polygon fill="#000000" stroke="#000000" points="829.9604,-1421.1029 834.5582,-1430.6481 836.9164,-1420.3191 829.9604,-1421.1029"/>
</g>
<!-- 4739 -->
<g id="node25" class="node">
<title>4739</title>
<ellipse fill="none" stroke="#000000" cx="1511.6224" cy="-1066.6011" rx="28.6953" ry="18"/>
<text text-anchor="middle" x="1511.6224" y="-1062.9011" font-family="Times,serif" font-size="14.00" fill="#000000">4739</text>
</g>
<!-- 4755 -->
<g id="node26" class="node">
<title>4755</title>
<ellipse fill="none" stroke="#000000" cx="550.046" cy="-1416.6565" rx="28.6953" ry="18"/>
<text text-anchor="middle" x="550.046" y="-1412.9565" font-family="Times,serif" font-size="14.00" fill="#000000">4755</text>
</g>
<!-- 9583 -->
<g id="node42" class="node">
<title>9583</title>
<ellipse fill="none" stroke="#000000" cx="526.2659" cy="-1484.6161" rx="28.6953" ry="18"/>
<text text-anchor="middle" x="526.2659" y="-1480.9161" font-family="Times,serif" font-size="14.00" fill="#000000">9583</text>
</g>
<!-- 4755&#45;&gt;9583 -->
<g id="edge28" class="edge">
<title>4755&#45;&gt;9583</title>
<path fill="none" stroke="#000000" d="M543.7981,-1434.5121C541.3869,-1441.4028 538.5727,-1449.4453 535.9138,-1457.0441"/>
<polygon fill="#000000" stroke="#000000" points="532.5539,-1456.0489 532.5547,-1466.6438 539.1611,-1458.3609 532.5539,-1456.0489"/>
</g>
<!-- 5692 -->
<g id="node28" class="node">
<title>5692</title>
<ellipse fill="none" stroke="#000000" cx="924.2819" cy="-103.072" rx="28.6953" ry="18"/>
<text text-anchor="middle" x="924.2819" y="-99.372" font-family="Times,serif" font-size="14.00" fill="#000000">5692</text>
</g>
<!-- 5692&#45;&gt;3597 -->
<g id="edge29" class="edge">
<title>5692&#45;&gt;3597</title>
<path fill="none" stroke="#000000" d="M898.9634,-111.6223C779.0428,-152.1211 268.1921,-324.6418 128.749,-371.7335"/>
<polygon fill="#000000" stroke="#000000" points="127.3445,-368.5136 118.9901,-375.0293 129.5843,-375.1456 127.3445,-368.5136"/>
</g>
<!-- 10834 -->
<g id="node45" class="node">
<title>10834</title>
<ellipse fill="none" stroke="#000000" cx="836.6198" cy="-161.0946" rx="32.4942" ry="18"/>
<text text-anchor="middle" x="836.6198" y="-157.3946" font-family="Times,serif" font-size="14.00" fill="#000000">10834</text>
</g>
<!-- 5692&#45;&gt;10834 -->
<g id="edge30" class="edge">
<title>5692&#45;&gt;10834</title>
<path fill="none" stroke="#000000" d="M904.39,-116.2382C893.0619,-123.7362 878.6563,-133.271 866.0422,-141.6202"/>
<polygon fill="#000000" stroke="#000000" points="864.0624,-138.7333 857.6554,-147.1713 867.9261,-144.5705 864.0624,-138.7333"/>
</g>
<!-- 11008 -->
<g id="node46" class="node">
<title>11008</title>
<ellipse fill="none" stroke="#000000" cx="204.0383" cy="-244.9915" rx="32.4942" ry="18"/>
<text text-anchor="middle" x="204.0383" y="-241.2915" font-family="Times,serif" font-size="14.00" fill="#000000">11008</text>
</g>
<!-- 5692&#45;&gt;11008 -->
<g id="edge31" class="edge">
<title>5692&#45;&gt;11008</title>
<path fill="none" stroke="#000000" d="M896.927,-108.4621C786.9728,-130.1279 376.8255,-210.9449 245.0701,-236.9064"/>
<polygon fill="#000000" stroke="#000000" points="244.1245,-233.5254 234.9898,-238.8927 245.4778,-240.3933 244.1245,-233.5254"/>
</g>
<!-- 27865 -->
<g id="node51" class="node">
<title>27865</title>
<ellipse fill="none" stroke="#000000" cx="342.6974" cy="-134.4145" rx="32.4942" ry="18"/>
<text text-anchor="middle" x="342.6974" y="-130.7145" font-family="Times,serif" font-size="14.00" fill="#000000">27865</text>
</g>
<!-- 5692&#45;&gt;27865 -->
<g id="edge32" class="edge">
<title>5692&#45;&gt;27865</title>
<path fill="none" stroke="#000000" d="M895.441,-104.6263C800.63,-109.7358 498.2218,-126.033 385.548,-132.1052"/>
<polygon fill="#000000" stroke="#000000" points="385.0469,-128.627 375.2498,-132.6602 385.4237,-135.6169 385.0469,-128.627"/>
</g>
<!-- 28065 -->
<g id="node52" class="node">
<title>28065</title>
<ellipse fill="none" stroke="#000000" cx="502.4858" cy="-57.4645" rx="32.4942" ry="18"/>
<text text-anchor="middle" x="502.4858" y="-53.7645" font-family="Times,serif" font-size="14.00" fill="#000000">28065</text>
</g>
<!-- 5692&#45;&gt;28065 -->
<g id="edge33" class="edge">
<title>5692&#45;&gt;28065</title>
<path fill="none" stroke="#000000" d="M895.9517,-100.0087C823.3412,-92.1576 630.2852,-71.283 544.5383,-62.0115"/>
<polygon fill="#000000" stroke="#000000" points="544.704,-58.5091 534.3856,-60.9137 543.9514,-65.4685 544.704,-58.5091"/>
</g>
<!-- 52317 -->
<g id="node58" class="node">
<title>52317</title>
<ellipse fill="none" stroke="#000000" cx="675.391" cy="-18" rx="32.4942" ry="18"/>
<text text-anchor="middle" x="675.391" y="-14.3" font-family="Times,serif" font-size="14.00" fill="#000000">52317</text>
</g>
<!-- 5692&#45;&gt;52317 -->
<g id="edge34" class="edge">
<title>5692&#45;&gt;52317</title>
<path fill="none" stroke="#000000" d="M899.0472,-94.4467C855.1361,-79.4376 764.4594,-48.444 713.0723,-30.8796"/>
<polygon fill="#000000" stroke="#000000" points="713.9388,-27.4771 703.3442,-27.5546 711.6747,-34.1008 713.9388,-27.4771"/>
</g>
<!-- 52375 -->
<g id="node59" class="node">
<title>52375</title>
<ellipse fill="none" stroke="#000000" cx="852.7427" cy="-18" rx="32.4942" ry="18"/>
<text text-anchor="middle" x="852.7427" y="-14.3" font-family="Times,serif" font-size="14.00" fill="#000000">52375</text>
</g>
<!-- 5692&#45;&gt;52375 -->
<g id="edge35" class="edge">
<title>5692&#45;&gt;52375</title>
<path fill="none" stroke="#000000" d="M910.8259,-87.0706C900.2696,-74.5173 885.3961,-56.8303 873.3431,-42.4973"/>
<polygon fill="#000000" stroke="#000000" points="875.7412,-39.9109 866.6263,-34.5099 870.3837,-44.4161 875.7412,-39.9109"/>
</g>
<!-- 52376 -->
<g id="node60" class="node">
<title>52376</title>
<ellipse fill="none" stroke="#000000" cx="1025.6478" cy="-57.4645" rx="32.4942" ry="18"/>
<text text-anchor="middle" x="1025.6478" y="-53.7645" font-family="Times,serif" font-size="14.00" fill="#000000">52376</text>
</g>
<!-- 5692&#45;&gt;52376 -->
<g id="edge36" class="edge">
<title>5692&#45;&gt;52376</title>
<path fill="none" stroke="#000000" d="M947.7921,-92.4941C960.5273,-86.7641 976.5122,-79.572 990.6792,-73.1979"/>
<polygon fill="#000000" stroke="#000000" points="992.451,-76.2387 1000.1344,-68.9437 989.5788,-69.8551 992.451,-76.2387"/>
</g>
<!-- 52380 -->
<g id="node61" class="node">
<title>52380</title>
<ellipse fill="none" stroke="#000000" cx="1185.4362" cy="-134.4145" rx="32.4942" ry="18"/>
<text text-anchor="middle" x="1185.4362" y="-130.7145" font-family="Times,serif" font-size="14.00" fill="#000000">52380</text>
</g>
<!-- 5692&#45;&gt;52380 -->
<g id="edge37" class="edge">
<title>5692&#45;&gt;52380</title>
<path fill="none" stroke="#000000" d="M952.4781,-106.456C998.3518,-111.9615 1089.4045,-122.8892 1143.0843,-129.3316"/>
<polygon fill="#000000" stroke="#000000" points="1142.9517,-132.8407 1153.2976,-130.5574 1143.7859,-125.8906 1142.9517,-132.8407"/>
</g>
<!-- 52413 -->
<g id="node62" class="node">
<title>52413</title>
<ellipse fill="none" stroke="#000000" cx="1324.0954" cy="-244.9915" rx="32.4942" ry="18"/>
<text text-anchor="middle" x="1324.0954" y="-241.2915" font-family="Times,serif" font-size="14.00" fill="#000000">52413</text>
</g>
<!-- 5692&#45;&gt;52413 -->
<g id="edge38" class="edge">
<title>5692&#45;&gt;52413</title>
<path fill="none" stroke="#000000" d="M949.292,-111.9497C1017.3284,-136.1002 1206.0507,-203.0898 1286.7326,-231.7291"/>
<polygon fill="#000000" stroke="#000000" points="1285.8794,-235.1401 1296.4741,-235.1869 1288.221,-228.5434 1285.8794,-235.1401"/>
</g>
<!-- 52431 -->
<g id="node63" class="node">
<title>52431</title>
<ellipse fill="none" stroke="#000000" cx="1434.6724" cy="-383.6507" rx="32.4942" ry="18"/>
<text text-anchor="middle" x="1434.6724" y="-379.9507" font-family="Times,serif" font-size="14.00" fill="#000000">52431</text>
</g>
<!-- 5692&#45;&gt;52431 -->
<g id="edge39" class="edge">
<title>5692&#45;&gt;52431</title>
<path fill="none" stroke="#000000" d="M945.8867,-114.9489C1026.0378,-159.0106 1306.6611,-313.2786 1402.3902,-365.9041"/>
<polygon fill="#000000" stroke="#000000" points="1400.8749,-369.065 1411.3241,-370.8154 1404.2471,-362.9308 1400.8749,-369.065"/>
</g>
<!-- 262230 -->
<g id="node64" class="node">
<title>262230</title>
<ellipse fill="none" stroke="#000000" cx="1511.6224" cy="-543.4391" rx="37.0935" ry="18"/>
<text text-anchor="middle" x="1511.6224" y="-539.7391" font-family="Times,serif" font-size="14.00" fill="#000000">262230</text>
</g>
<!-- 5692&#45;&gt;262230 -->
<g id="edge40" class="edge">
<title>5692&#45;&gt;262230</title>
<path fill="none" stroke="#000000" d="M942.8299,-116.9786C1027.7981,-180.6847 1380.1298,-444.8505 1483.1878,-522.1198"/>
<polygon fill="#000000" stroke="#000000" points="1481.1765,-524.9862 1491.277,-528.1848 1485.3756,-519.3856 1481.1765,-524.9862"/>
</g>
<!-- 264608 -->
<g id="node65" class="node">
<title>264608</title>
<ellipse fill="none" stroke="#000000" cx="1551.0869" cy="-716.3442" rx="37.0935" ry="18"/>
<text text-anchor="middle" x="1551.0869" y="-712.6442" font-family="Times,serif" font-size="14.00" fill="#000000">264608</text>
</g>
<!-- 5692&#45;&gt;264608 -->
<g id="edge41" class="edge">
<title>5692&#45;&gt;264608</title>
<path fill="none" stroke="#000000" d="M939.776,-118.2316C1023.7426,-200.3854 1424.2324,-592.2285 1527.0069,-692.7841"/>
<polygon fill="#000000" stroke="#000000" points="1524.8268,-695.5477 1534.4224,-700.0395 1529.7223,-690.5442 1524.8268,-695.5477"/>
</g>
<!-- 6453&#45;&gt;3257 -->
<g id="edge42" class="edge">
<title>6453&#45;&gt;3257</title>
<path fill="none" stroke="#000000" d="M698.9745,-618.9969C701.3857,-625.8876 704.1998,-633.9301 706.8588,-641.5289"/>
<polygon fill="#000000" stroke="#000000" points="703.6114,-642.8457 710.2179,-651.1286 710.2186,-640.5337 703.6114,-642.8457"/>
</g>
<!-- 6461&#45;&gt;2497 -->
<g id="edge43" class="edge">
<title>6461&#45;&gt;2497</title>
<path fill="none" stroke="#000000" d="M841.655,-1026.7545C844.0662,-1033.6452 846.8804,-1041.6877 849.5393,-1049.2865"/>
<polygon fill="#000000" stroke="#000000" points="846.292,-1050.6033 852.8984,-1058.8862 852.8992,-1048.2913 846.292,-1050.6033"/>
</g>
<!-- 6762&#45;&gt;2914 -->
<g id="edge44" class="edge">
<title>6762&#45;&gt;2914</title>
<path fill="none" stroke="#000000" d="M651.4143,-483.0777C653.8255,-489.9684 656.6397,-498.0109 659.2986,-505.6097"/>
<polygon fill="#000000" stroke="#000000" points="656.0512,-506.9265 662.6577,-515.2094 662.6584,-504.6145 656.0512,-506.9265"/>
</g>
<!-- 6904 -->
<g id="node32" class="node">
<title>6904</title>
<ellipse fill="none" stroke="#000000" cx="245.1088" cy="-1054.9371" rx="28.6953" ry="18"/>
<text text-anchor="middle" x="245.1088" y="-1051.2371" font-family="Times,serif" font-size="14.00" fill="#000000">6904</text>
</g>
<!-- 6904&#45;&gt;2687 -->
<g id="edge45" class="edge">
<title>6904&#45;&gt;2687</title>
<path fill="none" stroke="#000000" d="M222.0555,-1066.039C218.9008,-1067.5582 215.6167,-1069.1397 212.3371,-1070.7191"/>
<polygon fill="#000000" stroke="#000000" points="210.7091,-1067.6183 203.2181,-1075.1106 213.7464,-1073.9251 210.7091,-1067.6183"/>
</g>
<!-- 6939 -->
<g id="node33" class="node">
<title>6939</title>
<ellipse fill="none" stroke="#000000" cx="204.0383" cy="-1365.0486" rx="28.6953" ry="18"/>
<text text-anchor="middle" x="204.0383" y="-1361.3486" font-family="Times,serif" font-size="14.00" fill="#000000">6939</text>
</g>
<!-- 7016 -->
<g id="node34" class="node">
<title>7016</title>
<ellipse fill="none" stroke="#000000" cx="191.6886" cy="-869.5116" rx="28.6953" ry="18"/>
<text text-anchor="middle" x="191.6886" y="-865.8116" font-family="Times,serif" font-size="14.00" fill="#000000">7016</text>
</g>
<!-- 7922 -->
<g id="node39" class="node">
<title>7922</title>
<ellipse fill="none" stroke="#000000" cx="120.1413" cy="-877.5731" rx="28.6953" ry="18"/>
<text text-anchor="middle" x="120.1413" y="-873.8731" font-family="Times,serif" font-size="14.00" fill="#000000">7922</text>
</g>
<!-- 7016&#45;&gt;7922 -->
<g id="edge46" class="edge">
<title>7016&#45;&gt;7922</title>
<path fill="none" stroke="#000000" d="M163.4112,-872.6977C161.8976,-872.8682 160.3653,-873.0409 158.8258,-873.2144"/>
<polygon fill="#000000" stroke="#000000" points="158.2273,-869.7595 148.6821,-874.3573 159.0112,-876.7155 158.2273,-869.7595"/>
</g>
<!-- 7018&#45;&gt;3320 -->
<g id="edge47" class="edge">
<title>7018&#45;&gt;3320</title>
<path fill="none" stroke="#000000" d="M481.7348,-1159.0532C477.8603,-1163.9117 473.5254,-1169.3474 469.3302,-1174.6081"/>
<polygon fill="#000000" stroke="#000000" points="466.4372,-1172.6222 462.9387,-1182.6228 471.9101,-1176.9867 466.4372,-1172.6222"/>
</g>
<!-- 7473 -->
<g id="node36" class="node">
<title>7473</title>
<ellipse fill="none" stroke="#000000" cx="699.5753" cy="-1377.3983" rx="28.6953" ry="18"/>
<text text-anchor="middle" x="699.5753" y="-1373.6983" font-family="Times,serif" font-size="14.00" fill="#000000">7473</text>
</g>
<!-- 7474 -->
<g id="node37" class="node">
<title>7474</title>
<ellipse fill="none" stroke="#000000" cx="978.0877" cy="-1416.6565" rx="28.6953" ry="18"/>
<text text-anchor="middle" x="978.0877" y="-1412.9565" font-family="Times,serif" font-size="14.00" fill="#000000">7474</text>
</g>
<!-- 7545&#45;&gt;4635 -->
<g id="edge48" class="edge">
<title>7545&#45;&gt;4635</title>
<path fill="none" stroke="#000000" d="M1455.5695,-1026.2922C1474.3634,-1000.2027 1511.028,-949.3053 1533.061,-918.7192"/>
<polygon fill="#000000" stroke="#000000" points="1536.1217,-920.4585 1539.1269,-910.2987 1530.442,-916.3669 1536.1217,-920.4585"/>
</g>
<!-- 7545&#45;&gt;4739 -->
<g id="edge49" class="edge">
<title>7545&#45;&gt;4739</title>
<path fill="none" stroke="#000000" d="M1468.9685,-1051.6758C1471.5677,-1052.5853 1474.2395,-1053.5202 1476.9172,-1054.4572"/>
<polygon fill="#000000" stroke="#000000" points="1475.9271,-1057.8188 1486.5219,-1057.818 1478.2391,-1051.2116 1475.9271,-1057.8188"/>
</g>
<!-- 9942 -->
<g id="node43" class="node">
<title>9942</title>
<ellipse fill="none" stroke="#000000" cx="1434.6724" cy="-1226.3895" rx="28.6953" ry="18"/>
<text text-anchor="middle" x="1434.6724" y="-1222.6895" font-family="Times,serif" font-size="14.00" fill="#000000">9942</text>
</g>
<!-- 7545&#45;&gt;9942 -->
<g id="edge50" class="edge">
<title>7545&#45;&gt;9942</title>
<path fill="none" stroke="#000000" d="M1442.7679,-1061.0934C1441.1995,-1093.1184 1437.9434,-1159.6017 1436.0738,-1197.7746"/>
<polygon fill="#000000" stroke="#000000" points="1432.5571,-1198.0317 1435.5637,-1208.191 1439.5488,-1198.3742 1432.5571,-1198.0317"/>
</g>
<!-- 9498&#45;&gt;4637 -->
<g id="edge51" class="edge">
<title>9498&#45;&gt;4637</title>
<path fill="none" stroke="#000000" d="M728.6997,-1318.3136C748.0013,-1329.7341 776.7914,-1346.7686 798.5062,-1359.6169"/>
<polygon fill="#000000" stroke="#000000" points="796.9424,-1362.7584 807.3311,-1364.8385 800.507,-1356.734 796.9424,-1362.7584"/>
</g>
<!-- 9498&#45;&gt;7473 -->
<g id="edge52" class="edge">
<title>9498&#45;&gt;7473</title>
<path fill="none" stroke="#000000" d="M705.6025,-1323.9054C704.7403,-1331.5574 703.7151,-1340.6564 702.7569,-1349.1603"/>
<polygon fill="#000000" stroke="#000000" points="699.2787,-1348.7718 701.6369,-1359.1008 706.2346,-1349.5556 699.2787,-1348.7718"/>
</g>
<!-- 10026 -->
<g id="node44" class="node">
<title>10026</title>
<ellipse fill="none" stroke="#000000" cx="573.8261" cy="-1348.6969" rx="32.4942" ry="18"/>
<text text-anchor="middle" x="573.8261" y="-1344.9969" font-family="Times,serif" font-size="14.00" fill="#000000">10026</text>
</g>
<!-- 9498&#45;&gt;10026 -->
<g id="edge53" class="edge">
<title>9498&#45;&gt;10026</title>
<path fill="none" stroke="#000000" d="M681.8367,-1314.1121C661.9901,-1320.467 634.2648,-1329.3445 611.8738,-1336.5141"/>
<polygon fill="#000000" stroke="#000000" points="610.7831,-1333.1882 602.3267,-1339.571 612.9178,-1339.8548 610.7831,-1333.1882"/>
</g>
<!-- 10026&#45;&gt;4755 -->
<g id="edge54" class="edge">
<title>10026&#45;&gt;4755</title>
<path fill="none" stroke="#000000" d="M567.5781,-1366.5525C565.167,-1373.4432 562.3528,-1381.4857 559.6938,-1389.0845"/>
<polygon fill="#000000" stroke="#000000" points="556.334,-1388.0893 556.3348,-1398.6842 562.9412,-1390.4013 556.334,-1388.0893"/>
</g>
<!-- 12956 -->
<g id="node47" class="node">
<title>12956</title>
<ellipse fill="none" stroke="#000000" cx="828.5584" cy="-232.6418" rx="32.4942" ry="18"/>
<text text-anchor="middle" x="828.5584" y="-228.9418" font-family="Times,serif" font-size="14.00" fill="#000000">12956</text>
</g>
<!-- 10834&#45;&gt;12956 -->
<g id="edge55" class="edge">
<title>10834&#45;&gt;12956</title>
<path fill="none" stroke="#000000" d="M834.5856,-179.149C833.7234,-186.8009 832.6982,-195.9 831.74,-204.4039"/>
<polygon fill="#000000" stroke="#000000" points="828.2617,-204.0153 830.62,-214.3443 835.2177,-204.7991 828.2617,-204.0153"/>
</g>
<!-- 22927 -->
<g id="node50" class="node">
<title>22927</title>
<ellipse fill="none" stroke="#000000" cx="84.4708" cy="-567.2191" rx="32.4942" ry="18"/>
<text text-anchor="middle" x="84.4708" y="-563.5191" font-family="Times,serif" font-size="14.00" fill="#000000">22927</text>
</g>
<!-- 10834&#45;&gt;22927 -->
<g id="edge56" class="edge">
<title>10834&#45;&gt;22927</title>
<path fill="none" stroke="#000000" d="M813.2847,-173.6944C704.0647,-232.668 243.3548,-481.4294 116.77,-549.7791"/>
<polygon fill="#000000" stroke="#000000" points="115.0414,-546.7348 107.9051,-554.5658 118.3673,-552.8943 115.0414,-546.7348"/>
</g>
<!-- 12956&#45;&gt;3356 -->
<g id="edge57" class="edge">
<title>12956&#45;&gt;3356</title>
<path fill="none" stroke="#000000" d="M826.5241,-250.6962C825.6619,-258.3482 824.6367,-267.4473 823.6786,-275.9512"/>
<polygon fill="#000000" stroke="#000000" points="820.2003,-275.5626 822.5586,-285.8916 827.1563,-276.3464 820.2003,-275.5626"/>
</g>
<!-- 17676&#45;&gt;6939 -->
<g id="edge58" class="edge">
<title>17676&#45;&gt;6939</title>
<path fill="none" stroke="#000000" d="M239.1202,-1329.9667C235.1796,-1333.9073 230.878,-1338.2089 226.6798,-1342.4071"/>
<polygon fill="#000000" stroke="#000000" points="223.9312,-1340.2059 219.335,-1349.7519 228.881,-1345.1557 223.9312,-1340.2059"/>
</g>
<!-- 18540 -->
<g id="node49" class="node">
<title>18540</title>
<ellipse fill="none" stroke="#000000" cx="191.6886" cy="-740.5285" rx="32.4942" ry="18"/>
<text text-anchor="middle" x="191.6886" y="-736.8285" font-family="Times,serif" font-size="14.00" fill="#000000">18540</text>
</g>
<!-- 30070&#45;&gt;6904 -->
<g id="edge59" class="edge">
<title>30070&#45;&gt;6904</title>
<path fill="none" stroke="#000000" d="M269.0957,-935.1812C264.427,-958.4899 256.2412,-999.3576 250.7479,-1026.7834"/>
<polygon fill="#000000" stroke="#000000" points="247.2493,-1026.4295 248.7171,-1036.9221 254.113,-1027.8043 247.2493,-1026.4295"/>
</g>
<!-- 30070&#45;&gt;7016 -->
<g id="edge60" class="edge">
<title>30070&#45;&gt;7016</title>
<path fill="none" stroke="#000000" d="M250.1361,-903.8949C241.266,-898.6769 230.9577,-892.6127 221.4899,-887.0431"/>
<polygon fill="#000000" stroke="#000000" points="223.1385,-883.9522 212.7446,-881.8984 219.5891,-889.9856 223.1385,-883.9522"/>
</g>
<!-- 30070&#45;&gt;18540 -->
<g id="edge61" class="edge">
<title>30070&#45;&gt;18540</title>
<path fill="none" stroke="#000000" d="M264.639,-899.5877C250.4446,-868.6387 220.912,-804.2465 204.101,-767.5923"/>
<polygon fill="#000000" stroke="#000000" points="207.0704,-765.6708 199.7201,-758.0403 200.7077,-768.5891 207.0704,-765.6708"/>
</g>
<!-- 32787&#45;&gt;2764 -->
<g id="edge62" class="edge">
<title>32787&#45;&gt;2764</title>
<path fill="none" stroke="#000000" d="M1246.0592,-1159.5233C1255.2134,-1158.1853 1265.2991,-1156.7112 1274.7949,-1155.3234"/>
<polygon fill="#000000" stroke="#000000" points="1275.4067,-1158.7712 1284.7954,-1153.8617 1274.3943,-1151.8448 1275.4067,-1158.7712"/>
</g>
<!-- 32787&#45;&gt;7474 -->
<g id="edge63" class="edge">
<title>32787&#45;&gt;7474</title>
<path fill="none" stroke="#000000" d="M1199.2598,-1180.3297C1158.6474,-1223.7248 1047.1834,-1342.8263 999.8293,-1393.4251"/>
<polygon fill="#000000" stroke="#000000" points="997.078,-1391.2427 992.8004,-1400.9356 1002.189,-1396.0259 997.078,-1391.2427"/>
</g>
<!-- 38333&#45;&gt;1221 -->
<g id="edge64" class="edge">
<title>38333&#45;&gt;1221</title>
<path fill="none" stroke="#000000" d="M1289.0134,-1329.9667C1292.954,-1333.9073 1297.2556,-1338.2089 1301.4538,-1342.4071"/>
<polygon fill="#000000" stroke="#000000" points="1299.2527,-1345.1557 1308.7986,-1349.7519 1304.2024,-1340.2059 1299.2527,-1345.1557"/>
</g>
</g>
</svg>
