<?xml version="1.0" encoding="UTF-8" standalone="no"?>
<!DOCTYPE svg PUBLIC "-//W3C//DTD SVG 1.1//EN"
 "http://www.w3.org/Graphics/SVG/1.1/DTD/svg11.dtd">
<!-- Generated by graphviz version 2.40.1 (20161225.0304)
 -->
<!-- Title: %3 Pages: 1 -->
<svg width="331pt" height="44pt"
 viewBox="0.00 0.00 331.38 44.00" xmlns="http://www.w3.org/2000/svg" xmlns:xlink="http://www.w3.org/1999/xlink">
<g id="graph0" class="graph" transform="scale(1 1) rotate(0) translate(4 40)">
<title>%3</title>
<polygon fill="#ffffff" stroke="transparent" points="-4,4 -4,-40 327.3841,-40 327.3841,4 -4,4"/>
<!-- 4270 -->
<g id="node1" class="node">
<title>4270</title>
<ellipse fill="none" stroke="#000000" cx="28.5975" cy="-18" rx="28.6953" ry="18"/>
<text text-anchor="middle" x="28.5975" y="-14.3" font-family="Times,serif" font-size="14.00" fill="#000000">4270</text>
</g>
<!-- 7049 -->
<g id="node2" class="node">
<title>7049</title>
<ellipse fill="none" stroke="#000000" cx="294.7866" cy="-18" rx="28.6953" ry="18"/>
<text text-anchor="middle" x="294.7866" y="-14.3" font-family="Times,serif" font-size="14.00" fill="#000000">7049</text>
</g>
<!-- 27883 -->
<g id="node3" class="node">
<title>27883</title>
<ellipse fill="none" stroke="#000000" cx="161.692" cy="-18" rx="32.4942" ry="18"/>
<text text-anchor="middle" x="161.692" y="-14.3" font-family="Times,serif" font-size="14.00" fill="#000000">27883</text>
</g>
<!-- 27883&#45;&gt;4270 -->
<g id="edge1" class="edge">
<title>27883&#45;&gt;4270</title>
<path fill="none" stroke="#000000" d="M129.1334,-18C110.4766,-18 86.9476,-18 67.3432,-18"/>
<polygon fill="#000000" stroke="#000000" points="67.2045,-14.5001 57.2045,-18 67.2045,-21.5001 67.2045,-14.5001"/>
</g>
<!-- 27883&#45;&gt;7049 -->
<g id="edge2" class="edge">
<title>27883&#45;&gt;7049</title>
<path fill="none" stroke="#000000" d="M194.2506,-18C212.9075,-18 236.4365,-18 256.0408,-18"/>
<polygon fill="#000000" stroke="#000000" points="256.1796,-21.5001 266.1796,-18 256.1795,-14.5001 256.1796,-21.5001"/>
</g>
</g>
</svg>
