<?xml version="1.0" encoding="UTF-8" standalone="no"?>
<!DOCTYPE svg PUBLIC "-//W3C//DTD SVG 1.1//EN"
 "http://www.w3.org/Graphics/SVG/1.1/DTD/svg11.dtd">
<!-- Generated by graphviz version 2.40.1 (20161225.0304)
 -->
<!-- Title: %3 Pages: 1 -->
<svg width="200pt" height="93pt"
 viewBox="0.00 0.00 200.00 93.00" xmlns="http://www.w3.org/2000/svg" xmlns:xlink="http://www.w3.org/1999/xlink">
<g id="graph0" class="graph" transform="scale(1 1) rotate(0) translate(4 89)">
<title>%3</title>
<polygon fill="#ffffff" stroke="transparent" points="-4,4 -4,-89 196,-89 196,4 -4,4"/>
<!-- 4270 -->
<g id="node1" class="node">
<title>4270</title>
<ellipse fill="none" stroke="#000000" cx="28.2552" cy="-67.0595" rx="28.6953" ry="18"/>
<text text-anchor="middle" x="28.2552" y="-63.3595" font-family="Times,serif" font-size="14.00" fill="#000000">4270</text>
</g>
<!-- 7049 -->
<g id="node2" class="node">
<title>7049</title>
<ellipse fill="none" stroke="#000000" cx="163.305" cy="-64.8034" rx="28.6953" ry="18"/>
<text text-anchor="middle" x="163.305" y="-61.1034" font-family="Times,serif" font-size="14.00" fill="#000000">7049</text>
</g>
<!-- 27883 -->
<g id="node3" class="node">
<title>27883</title>
<ellipse fill="none" stroke="#000000" cx="97.7776" cy="-18.4393" rx="32.4942" ry="18"/>
<text text-anchor="middle" x="97.7776" y="-14.7393" font-family="Times,serif" font-size="14.00" fill="#000000">27883</text>
</g>
<!-- 27883&#45;&gt;4270 -->
<g id="edge1" class="edge">
<title>27883&#45;&gt;4270</title>
<path fill="none" stroke="#000000" d="M77.2946,-32.764C70.5005,-37.5154 62.8257,-42.8828 55.5993,-47.9365"/>
<polygon fill="#000000" stroke="#000000" points="53.5909,-45.07 47.402,-53.6693 57.6027,-50.8064 53.5909,-45.07"/>
</g>
<!-- 27883&#45;&gt;7049 -->
<g id="edge2" class="edge">
<title>27883&#45;&gt;7049</title>
<path fill="none" stroke="#000000" d="M118.1517,-32.855C123.7049,-36.7843 129.8151,-41.1076 135.6978,-45.2699"/>
<polygon fill="#000000" stroke="#000000" points="133.8776,-48.2695 144.0625,-51.1884 137.9208,-42.5552 133.8776,-48.2695"/>
</g>
</g>
</svg>
