<?xml version="1.0" encoding="UTF-8" standalone="no"?>
<!DOCTYPE svg PUBLIC "-//W3C//DTD SVG 1.1//EN"
 "http://www.w3.org/Graphics/SVG/1.1/DTD/svg11.dtd">
<!-- Generated by graphviz version 2.40.1 (20161225.0304)
 -->
<!-- Title: %3 Pages: 1 -->
<svg width="140pt" height="116pt"
 viewBox="0.00 0.00 140.19 116.00" xmlns="http://www.w3.org/2000/svg" xmlns:xlink="http://www.w3.org/1999/xlink">
<g id="graph0" class="graph" transform="scale(1 1) rotate(0) translate(4 112)">
<title>%3</title>
<polygon fill="#ffffff" stroke="transparent" points="-4,4 -4,-112 136.1949,-112 136.1949,4 -4,4"/>
<!-- 4270 -->
<g id="node1" class="node">
<title>4270</title>
<ellipse fill="none" stroke="#000000" cx="28.5975" cy="-18" rx="28.6953" ry="18"/>
<text text-anchor="middle" x="28.5975" y="-14.3" font-family="Times,serif" font-size="14.00" fill="#000000">4270</text>
</g>
<!-- 7049 -->
<g id="node2" class="node">
<title>7049</title>
<ellipse fill="none" stroke="#000000" cx="103.5975" cy="-18" rx="28.6953" ry="18"/>
<text text-anchor="middle" x="103.5975" y="-14.3" font-family="Times,serif" font-size="14.00" fill="#000000">7049</text>
</g>
<!-- 27883 -->
<g id="node3" class="node">
<title>27883</title>
<ellipse fill="none" stroke="#000000" cx="65.5975" cy="-90" rx="32.4942" ry="18"/>
<text text-anchor="middle" x="65.5975" y="-86.3" font-family="Times,serif" font-size="14.00" fill="#000000">27883</text>
</g>
<!-- 27883&#45;&gt;4270 -->
<g id="edge1" class="edge">
<title>27883&#45;&gt;4270</title>
<path fill="none" stroke="#000000" d="M56.6408,-72.5708C52.2778,-64.0807 46.9396,-53.6929 42.096,-44.2674"/>
<polygon fill="#000000" stroke="#000000" points="45.1554,-42.5633 37.4716,-35.2687 38.9294,-45.7628 45.1554,-42.5633"/>
</g>
<!-- 27883&#45;&gt;7049 -->
<g id="edge2" class="edge">
<title>27883&#45;&gt;7049</title>
<path fill="none" stroke="#000000" d="M74.7962,-72.5708C79.2771,-64.0807 84.7596,-53.6929 89.7341,-44.2674"/>
<polygon fill="#000000" stroke="#000000" points="92.9111,-45.7462 94.4834,-35.2687 86.7204,-42.4789 92.9111,-45.7462"/>
</g>
</g>
</svg>
