<?xml version="1.0" encoding="UTF-8" standalone="no"?>
<!DOCTYPE svg PUBLIC "-//W3C//DTD SVG 1.1//EN"
 "http://www.w3.org/Graphics/SVG/1.1/DTD/svg11.dtd">
<!-- Generated by graphviz version 2.40.1 (20161225.0304)
 -->
<!-- Title: %3 Pages: 1 -->
<svg width="208pt" height="57pt"
 viewBox="0.00 0.00 207.93 56.62" xmlns="http://www.w3.org/2000/svg" xmlns:xlink="http://www.w3.org/1999/xlink">
<g id="graph0" class="graph" transform="scale(1 1) rotate(0) translate(4 52.6154)">
<title>%3</title>
<polygon fill="#ffffff" stroke="transparent" points="-4,4 -4,-52.6154 203.9281,-52.6154 203.9281,4 -4,4"/>
<!-- 4270 -->
<g id="node1" class="node">
<title>4270</title>
<ellipse fill="none" stroke="#000000" cx="28.5975" cy="-27.7134" rx="28.6953" ry="18"/>
<text text-anchor="middle" x="28.5975" y="-24.0134" font-family="Times,serif" font-size="14.00" fill="#000000">4270</text>
</g>
<!-- 7049 -->
<g id="node2" class="node">
<title>7049</title>
<ellipse fill="none" stroke="#000000" cx="171.3307" cy="-30.6154" rx="28.6953" ry="18"/>
<text text-anchor="middle" x="171.3307" y="-26.9154" font-family="Times,serif" font-size="14.00" fill="#000000">7049</text>
</g>
<!-- 27883 -->
<g id="node3" class="node">
<title>27883</title>
<ellipse fill="none" stroke="#000000" cx="100.194" cy="-18" rx="32.4942" ry="18"/>
<text text-anchor="middle" x="100.194" y="-14.3" font-family="Times,serif" font-size="14.00" fill="#000000">27883</text>
</g>
<!-- 27883&#45;&gt;4270 -->
<g id="edge1" class="edge">
<title>27883&#45;&gt;4270</title>
<path fill="none" stroke="#000000" d="M68.5823,-22.2887C68.0953,-22.3548 67.6073,-22.421 67.1186,-22.4873"/>
<polygon fill="#000000" stroke="#000000" points="66.3201,-19.0635 56.8815,-23.8761 67.2612,-25.9999 66.3201,-19.0635"/>
</g>
<!-- 27883&#45;&gt;7049 -->
<g id="edge2" class="edge">
<title>27883&#45;&gt;7049</title>
<path fill="none" stroke="#000000" d="M131.1886,-23.4966C131.9749,-23.6361 132.7642,-23.776 133.555,-23.9163"/>
<polygon fill="#000000" stroke="#000000" points="133.3316,-27.4312 143.7892,-25.7312 134.554,-20.5387 133.3316,-27.4312"/>
</g>
</g>
</svg>
