<?xml version="1.0" encoding="UTF-8" standalone="no"?>
<!DOCTYPE svg PUBLIC "-//W3C//DTD SVG 1.1//EN"
 "http://www.w3.org/Graphics/SVG/1.1/DTD/svg11.dtd">
<!-- Generated by graphviz version 2.40.1 (20161225.0304)
 -->
<!-- Title: %3 Pages: 1 -->
<svg width="493pt" height="411pt"
 viewBox="0.00 0.00 492.94 410.53" xmlns="http://www.w3.org/2000/svg" xmlns:xlink="http://www.w3.org/1999/xlink">
<g id="graph0" class="graph" transform="scale(1 1) rotate(0) translate(4 406.5341)">
<title>%3</title>
<polygon fill="#ffffff" stroke="transparent" points="-4,4 -4,-406.5341 488.9445,-406.5341 488.9445,4 -4,4"/>
<!-- 3 -->
<g id="node1" class="node">
<title>3</title>
<ellipse fill="none" stroke="#000000" cx="205.8562" cy="-226.6312" rx="27" ry="18"/>
<text text-anchor="middle" x="205.8562" y="-222.9312" font-family="Times,serif" font-size="14.00" fill="#000000">3</text>
</g>
<!-- 174 -->
<g id="node2" class="node">
<title>174</title>
<ellipse fill="none" stroke="#000000" cx="248.4971" cy="-168.6161" rx="27" ry="18"/>
<text text-anchor="middle" x="248.4971" y="-164.9161" font-family="Times,serif" font-size="14.00" fill="#000000">174</text>
</g>
<!-- 3&#45;&gt;174 -->
<g id="edge1" class="edge">
<title>3&#45;&gt;174</title>
<path fill="none" stroke="#000000" d="M217.9613,-210.1616C221.8654,-204.8498 226.2801,-198.8435 230.5146,-193.0822"/>
<polygon fill="#000000" stroke="#000000" points="233.4071,-195.0566 236.5093,-184.9261 227.7667,-190.9109 233.4071,-195.0566"/>
</g>
<!-- 293 -->
<g id="node4" class="node">
<title>293</title>
<ellipse fill="none" stroke="#000000" cx="392.2785" cy="-176.5487" rx="27" ry="18"/>
<text text-anchor="middle" x="392.2785" y="-172.8487" font-family="Times,serif" font-size="14.00" fill="#000000">293</text>
</g>
<!-- 3&#45;&gt;293 -->
<g id="edge2" class="edge">
<title>3&#45;&gt;293</title>
<path fill="none" stroke="#000000" d="M230.9979,-219.8769C263.5202,-211.1397 320.3515,-195.872 357.1337,-185.9904"/>
<polygon fill="#000000" stroke="#000000" points="358.1902,-189.3308 366.9397,-183.356 356.374,-182.5705 358.1902,-189.3308"/>
</g>
<!-- 3356 -->
<g id="node17" class="node">
<title>3356</title>
<ellipse fill="none" stroke="#000000" cx="291.1381" cy="-110.601" rx="28.6953" ry="18"/>
<text text-anchor="middle" x="291.1381" y="-106.901" font-family="Times,serif" font-size="14.00" fill="#000000">3356</text>
</g>
<!-- 3&#45;&gt;3356 -->
<g id="edge3" class="edge">
<title>3&#45;&gt;3356</title>
<path fill="none" stroke="#000000" d="M218.075,-210.0069C232.4505,-190.4483 256.4517,-157.7935 273.0001,-135.2786"/>
<polygon fill="#000000" stroke="#000000" points="275.8397,-137.325 278.9419,-127.1945 270.1993,-133.1793 275.8397,-137.325"/>
</g>
<!-- 6939 -->
<g id="node25" class="node">
<title>6939</title>
<ellipse fill="none" stroke="#000000" cx="390.5331" cy="-192.3177" rx="28.6953" ry="18"/>
<text text-anchor="middle" x="390.5331" y="-188.6177" font-family="Times,serif" font-size="14.00" fill="#000000">6939</text>
</g>
<!-- 3&#45;&gt;6939 -->
<g id="edge4" class="edge">
<title>3&#45;&gt;6939</title>
<path fill="none" stroke="#000000" d="M231.9242,-221.7877C263.5064,-215.9196 316.9493,-205.9898 352.9724,-199.2966"/>
<polygon fill="#000000" stroke="#000000" points="353.9008,-202.6841 363.0931,-197.4162 352.622,-195.8019 353.9008,-202.6841"/>
</g>
<!-- 7015 -->
<g id="node26" class="node">
<title>7015</title>
<ellipse fill="none" stroke="#000000" cx="387.0637" cy="-207.799" rx="28.6953" ry="18"/>
<text text-anchor="middle" x="387.0637" y="-204.099" font-family="Times,serif" font-size="14.00" fill="#000000">7015</text>
</g>
<!-- 3&#45;&gt;7015 -->
<g id="edge5" class="edge">
<title>3&#45;&gt;7015</title>
<path fill="none" stroke="#000000" d="M232.594,-223.8524C263.1962,-220.6721 313.5763,-215.4363 348.4396,-211.8131"/>
<polygon fill="#000000" stroke="#000000" points="349.1374,-215.2595 358.722,-210.7444 348.4138,-208.297 349.1374,-215.2595"/>
</g>
<!-- 7029 -->
<g id="node28" class="node">
<title>7029</title>
<ellipse fill="none" stroke="#000000" cx="381.9123" cy="-222.8047" rx="28.6953" ry="18"/>
<text text-anchor="middle" x="381.9123" y="-219.1047" font-family="Times,serif" font-size="14.00" fill="#000000">7029</text>
</g>
<!-- 3&#45;&gt;7029 -->
<g id="edge6" class="edge">
<title>3&#45;&gt;7029</title>
<path fill="none" stroke="#000000" d="M232.9791,-226.0417C262.3972,-225.4023 309.6154,-224.376 342.9882,-223.6507"/>
<polygon fill="#000000" stroke="#000000" points="343.3753,-227.1432 353.2969,-223.4266 343.2231,-220.1448 343.3753,-227.1432"/>
</g>
<!-- 10578 -->
<g id="node33" class="node">
<title>10578</title>
<ellipse fill="none" stroke="#000000" cx="375.1413" cy="-237.1525" rx="32.4942" ry="18"/>
<text text-anchor="middle" x="375.1413" y="-233.4525" font-family="Times,serif" font-size="14.00" fill="#000000">10578</text>
</g>
<!-- 3&#45;&gt;10578 -->
<g id="edge7" class="edge">
<title>3&#45;&gt;10578</title>
<path fill="none" stroke="#000000" d="M233.0548,-228.3216C259.9253,-229.9917 301.4201,-232.5706 332.6429,-234.5112"/>
<polygon fill="#000000" stroke="#000000" points="332.6039,-238.0154 342.8017,-235.1426 333.0381,-231.0289 332.6039,-238.0154"/>
</g>
<!-- 18365 -->
<g id="node37" class="node">
<title>18365</title>
<ellipse fill="none" stroke="#000000" cx="346.0257" cy="-274.5604" rx="32.4942" ry="18"/>
<text text-anchor="middle" x="346.0257" y="-270.8604" font-family="Times,serif" font-size="14.00" fill="#000000">18365</text>
</g>
<!-- 3&#45;&gt;18365 -->
<g id="edge8" class="edge">
<title>3&#45;&gt;18365</title>
<path fill="none" stroke="#000000" d="M229.9522,-234.8705C251.5119,-242.2426 283.4672,-253.1693 308.3937,-261.6926"/>
<polygon fill="#000000" stroke="#000000" points="307.3132,-265.022 317.9078,-264.9458 309.5781,-258.3985 307.3132,-265.022"/>
</g>
<!-- 23248 -->
<g id="node39" class="node">
<title>23248</title>
<ellipse fill="none" stroke="#000000" cx="306.3413" cy="-300.4875" rx="32.4942" ry="18"/>
<text text-anchor="middle" x="306.3413" y="-296.7875" font-family="Times,serif" font-size="14.00" fill="#000000">23248</text>
</g>
<!-- 3&#45;&gt;23248 -->
<g id="edge9" class="edge">
<title>3&#45;&gt;23248</title>
<path fill="none" stroke="#000000" d="M224.2867,-240.1776C239.4783,-251.3433 261.2616,-267.354 278.5665,-280.0731"/>
<polygon fill="#000000" stroke="#000000" points="276.5229,-282.9148 286.6534,-286.017 280.6686,-277.2744 276.5229,-282.9148"/>
</g>
<!-- 27787 -->
<g id="node42" class="node">
<title>27787</title>
<ellipse fill="none" stroke="#000000" cx="283.847" cy="-308.2097" rx="32.4942" ry="18"/>
<text text-anchor="middle" x="283.847" y="-304.5097" font-family="Times,serif" font-size="14.00" fill="#000000">27787</text>
</g>
<!-- 3&#45;&gt;27787 -->
<g id="edge10" class="edge">
<title>3&#45;&gt;27787</title>
<path fill="none" stroke="#000000" d="M220.5257,-241.9755C232.0671,-254.0479 248.3421,-271.0715 261.5021,-284.8369"/>
<polygon fill="#000000" stroke="#000000" points="259.0027,-287.2874 268.4429,-292.097 264.0624,-282.4501 259.0027,-287.2874"/>
</g>
<!-- 32787 -->
<g id="node44" class="node">
<title>32787</title>
<ellipse fill="none" stroke="#000000" cx="228.7182" cy="-311.2513" rx="32.4942" ry="18"/>
<text text-anchor="middle" x="228.7182" y="-307.5513" font-family="Times,serif" font-size="14.00" fill="#000000">32787</text>
</g>
<!-- 3&#45;&gt;32787 -->
<g id="edge11" class="edge">
<title>3&#45;&gt;32787</title>
<path fill="none" stroke="#000000" d="M210.7046,-244.5769C213.766,-255.9081 217.7829,-270.776 221.2465,-283.5959"/>
<polygon fill="#000000" stroke="#000000" points="217.8896,-284.5904 223.8767,-293.3314 224.6473,-282.7646 217.8896,-284.5904"/>
</g>
<!-- 33480 -->
<g id="node45" class="node">
<title>33480</title>
<ellipse fill="none" stroke="#000000" cx="183.4763" cy="-297.1007" rx="32.4942" ry="18"/>
<text text-anchor="middle" x="183.4763" y="-293.4007" font-family="Times,serif" font-size="14.00" fill="#000000">33480</text>
</g>
<!-- 3&#45;&gt;33480 -->
<g id="edge12" class="edge">
<title>3&#45;&gt;33480</title>
<path fill="none" stroke="#000000" d="M200.2088,-244.4136C197.8153,-251.9504 194.9691,-260.9123 192.3091,-269.2881"/>
<polygon fill="#000000" stroke="#000000" points="188.8908,-268.4885 189.1997,-279.0789 195.5625,-270.6074 188.8908,-268.4885"/>
</g>
<!-- 37642 -->
<g id="node48" class="node">
<title>37642</title>
<ellipse fill="none" stroke="#000000" cx="163.2152" cy="-284.6463" rx="32.4942" ry="18"/>
<text text-anchor="middle" x="163.2152" y="-280.9463" font-family="Times,serif" font-size="14.00" fill="#000000">37642</text>
</g>
<!-- 3&#45;&gt;37642 -->
<g id="edge13" class="edge">
<title>3&#45;&gt;37642</title>
<path fill="none" stroke="#000000" d="M193.7511,-243.1008C190.0023,-248.2011 185.783,-253.9418 181.7043,-259.491"/>
<polygon fill="#000000" stroke="#000000" points="178.6009,-257.8035 175.4987,-267.934 184.2413,-261.9492 178.6009,-257.8035"/>
</g>
<!-- 43888 -->
<g id="node51" class="node">
<title>43888</title>
<ellipse fill="none" stroke="#000000" cx="145.2804" cy="-269.0268" rx="32.4942" ry="18"/>
<text text-anchor="middle" x="145.2804" y="-265.3268" font-family="Times,serif" font-size="14.00" fill="#000000">43888</text>
</g>
<!-- 3&#45;&gt;43888 -->
<g id="edge14" class="edge">
<title>3&#45;&gt;43888</title>
<path fill="none" stroke="#000000" d="M187.0217,-239.813C182.8735,-242.7163 178.3892,-245.8547 173.9514,-248.9607"/>
<polygon fill="#000000" stroke="#000000" points="171.7609,-246.2216 165.575,-254.8231 175.7747,-251.9566 171.7609,-246.2216"/>
</g>
<!-- 56651 -->
<g id="node54" class="node">
<title>56651</title>
<ellipse fill="none" stroke="#000000" cx="134.8609" cy="-257.0627" rx="32.4942" ry="18"/>
<text text-anchor="middle" x="134.8609" y="-253.3627" font-family="Times,serif" font-size="14.00" fill="#000000">56651</text>
</g>
<!-- 3&#45;&gt;56651 -->
<g id="edge15" class="edge">
<title>3&#45;&gt;56651</title>
<path fill="none" stroke="#000000" d="M183.002,-236.4274C178.8775,-238.1954 174.4911,-240.0756 170.1097,-241.9536"/>
<polygon fill="#000000" stroke="#000000" points="168.4421,-238.8604 160.6299,-246.0171 171.2,-245.2942 168.4421,-238.8604"/>
</g>
<!-- 59362 -->
<g id="node58" class="node">
<title>59362</title>
<ellipse fill="none" stroke="#000000" cx="125.8207" cy="-244.025" rx="32.4942" ry="18"/>
<text text-anchor="middle" x="125.8207" y="-240.325" font-family="Times,serif" font-size="14.00" fill="#000000">59362</text>
</g>
<!-- 3&#45;&gt;59362 -->
<g id="edge16" class="edge">
<title>3&#45;&gt;59362</title>
<path fill="none" stroke="#000000" d="M180.0919,-232.2305C175.7064,-233.1835 171.0582,-234.1937 166.3999,-235.2061"/>
<polygon fill="#000000" stroke="#000000" points="165.3124,-231.8606 156.2838,-237.4046 166.799,-238.701 165.3124,-231.8606"/>
</g>
<!-- 131758 -->
<g id="node60" class="node">
<title>131758</title>
<ellipse fill="none" stroke="#000000" cx="118.2697" cy="-230.0719" rx="37.0935" ry="18"/>
<text text-anchor="middle" x="118.2697" y="-226.3719" font-family="Times,serif" font-size="14.00" fill="#000000">131758</text>
</g>
<!-- 3&#45;&gt;131758 -->
<g id="edge17" class="edge">
<title>3&#45;&gt;131758</title>
<path fill="none" stroke="#000000" d="M178.6234,-227.701C174.4993,-227.863 170.1454,-228.034 165.7416,-228.207"/>
<polygon fill="#000000" stroke="#000000" points="165.3148,-224.721 155.4599,-228.6109 165.5896,-231.7156 165.3148,-224.721"/>
</g>
<!-- 133295 -->
<g id="node61" class="node">
<title>133295</title>
<ellipse fill="none" stroke="#000000" cx="112.2994" cy="-215.3728" rx="37.0935" ry="18"/>
<text text-anchor="middle" x="112.2994" y="-211.6728" font-family="Times,serif" font-size="14.00" fill="#000000">133295</text>
</g>
<!-- 3&#45;&gt;133295 -->
<g id="edge18" class="edge">
<title>3&#45;&gt;133295</title>
<path fill="none" stroke="#000000" d="M179.0466,-223.405C172.6616,-222.6366 165.6655,-221.7948 158.6813,-220.9543"/>
<polygon fill="#000000" stroke="#000000" points="158.8761,-217.4526 148.5295,-219.7327 158.0397,-224.4024 158.8761,-217.4526"/>
</g>
<!-- 133296 -->
<g id="node62" class="node">
<title>133296</title>
<ellipse fill="none" stroke="#000000" cx="107.9824" cy="-200.1062" rx="37.0935" ry="18"/>
<text text-anchor="middle" x="107.9824" y="-196.4062" font-family="Times,serif" font-size="14.00" fill="#000000">133296</text>
</g>
<!-- 3&#45;&gt;133296 -->
<g id="edge19" class="edge">
<title>3&#45;&gt;133296</title>
<path fill="none" stroke="#000000" d="M180.6513,-219.8003C171.3801,-217.2878 160.6095,-214.3688 150.2459,-211.5601"/>
<polygon fill="#000000" stroke="#000000" points="151.0639,-208.1556 140.4965,-208.9179 149.2328,-214.9119 151.0639,-208.1556"/>
</g>
<!-- 133957 -->
<g id="node63" class="node">
<title>133957</title>
<ellipse fill="none" stroke="#000000" cx="105.3711" cy="-184.4573" rx="37.0935" ry="18"/>
<text text-anchor="middle" x="105.3711" y="-180.7573" font-family="Times,serif" font-size="14.00" fill="#000000">133957</text>
</g>
<!-- 3&#45;&gt;133957 -->
<g id="edge20" class="edge">
<title>3&#45;&gt;133957</title>
<path fill="none" stroke="#000000" d="M182.8029,-216.9557C171.0532,-212.0243 156.4646,-205.9014 143.1288,-200.3043"/>
<polygon fill="#000000" stroke="#000000" points="144.2736,-196.9891 133.6983,-196.3463 141.5645,-203.4436 144.2736,-196.9891"/>
</g>
<!-- 135437 -->
<g id="node64" class="node">
<title>135437</title>
<ellipse fill="none" stroke="#000000" cx="104.7158" cy="-160.6835" rx="37.0935" ry="18"/>
<text text-anchor="middle" x="104.7158" y="-156.9835" font-family="Times,serif" font-size="14.00" fill="#000000">135437</text>
</g>
<!-- 3&#45;&gt;135437 -->
<g id="edge21" class="edge">
<title>3&#45;&gt;135437</title>
<path fill="none" stroke="#000000" d="M186.3553,-213.9158C172.0189,-204.5679 152.2435,-191.6735 135.7464,-180.9167"/>
<polygon fill="#000000" stroke="#000000" points="137.2624,-177.7269 126.974,-175.1968 133.439,-183.5905 137.2624,-177.7269"/>
</g>
<!-- 137385 -->
<g id="node65" class="node">
<title>137385</title>
<ellipse fill="none" stroke="#000000" cx="107.9824" cy="-137.126" rx="37.0935" ry="18"/>
<text text-anchor="middle" x="107.9824" y="-133.426" font-family="Times,serif" font-size="14.00" fill="#000000">137385</text>
</g>
<!-- 3&#45;&gt;137385 -->
<g id="edge22" class="edge">
<title>3&#45;&gt;137385</title>
<path fill="none" stroke="#000000" d="M189.6943,-211.8512C174.345,-197.8144 151.0342,-176.4967 133.2335,-160.218"/>
<polygon fill="#000000" stroke="#000000" points="135.2324,-157.3032 125.4909,-153.1374 130.5084,-162.4689 135.2324,-157.3032"/>
</g>
<!-- 204008 -->
<g id="node66" class="node">
<title>204008</title>
<ellipse fill="none" stroke="#000000" cx="112.2994" cy="-121.8594" rx="37.0935" ry="18"/>
<text text-anchor="middle" x="112.2994" y="-118.1594" font-family="Times,serif" font-size="14.00" fill="#000000">204008</text>
</g>
<!-- 3&#45;&gt;204008 -->
<g id="edge23" class="edge">
<title>3&#45;&gt;204008</title>
<path fill="none" stroke="#000000" d="M191.6469,-210.7186C176.3037,-193.5361 151.68,-165.9606 133.9302,-146.0831"/>
<polygon fill="#000000" stroke="#000000" points="136.5341,-143.7444 127.2629,-138.6165 131.3128,-148.4068 136.5341,-143.7444"/>
</g>
<!-- 263531 -->
<g id="node67" class="node">
<title>263531</title>
<ellipse fill="none" stroke="#000000" cx="118.2697" cy="-107.1603" rx="37.0935" ry="18"/>
<text text-anchor="middle" x="118.2697" y="-103.4603" font-family="Times,serif" font-size="14.00" fill="#000000">263531</text>
</g>
<!-- 3&#45;&gt;263531 -->
<g id="edge24" class="edge">
<title>3&#45;&gt;263531</title>
<path fill="none" stroke="#000000" d="M193.6777,-210.0193C178.9417,-189.919 153.9798,-155.8701 136.8395,-132.4902"/>
<polygon fill="#000000" stroke="#000000" points="139.6472,-130.4003 130.912,-124.4048 134.0018,-134.5391 139.6472,-130.4003"/>
</g>
<!-- 265636 -->
<g id="node68" class="node">
<title>265636</title>
<ellipse fill="none" stroke="#000000" cx="134.8609" cy="-80.1695" rx="37.0935" ry="18"/>
<text text-anchor="middle" x="134.8609" y="-76.4695" font-family="Times,serif" font-size="14.00" fill="#000000">265636</text>
</g>
<!-- 3&#45;&gt;265636 -->
<g id="edge25" class="edge">
<title>3&#45;&gt;265636</title>
<path fill="none" stroke="#000000" d="M197.4333,-209.255C185.1702,-183.9566 162.2936,-136.7626 147.8597,-106.9858"/>
<polygon fill="#000000" stroke="#000000" points="151.0057,-105.4517 143.4942,-97.9799 144.7067,-108.5051 151.0057,-105.4517"/>
</g>
<!-- 266177 -->
<g id="node69" class="node">
<title>266177</title>
<ellipse fill="none" stroke="#000000" cx="156.9529" cy="-57.4601" rx="37.0935" ry="18"/>
<text text-anchor="middle" x="156.9529" y="-53.7601" font-family="Times,serif" font-size="14.00" fill="#000000">266177</text>
</g>
<!-- 3&#45;&gt;266177 -->
<g id="edge26" class="edge">
<title>3&#45;&gt;266177</title>
<path fill="none" stroke="#000000" d="M200.7151,-208.8467C192.2256,-179.4789 175.2094,-120.6148 165.0783,-85.5683"/>
<polygon fill="#000000" stroke="#000000" points="168.3117,-84.1502 162.1723,-75.5155 161.5871,-86.0942 168.3117,-84.1502"/>
</g>
<!-- 266491 -->
<g id="node70" class="node">
<title>266491</title>
<ellipse fill="none" stroke="#000000" cx="169.7366" cy="-48.0641" rx="37.0935" ry="18"/>
<text text-anchor="middle" x="169.7366" y="-44.3641" font-family="Times,serif" font-size="14.00" fill="#000000">266491</text>
</g>
<!-- 3&#45;&gt;266491 -->
<g id="edge27" class="edge">
<title>3&#45;&gt;266491</title>
<path fill="none" stroke="#000000" d="M202.1941,-208.5266C195.8932,-177.3764 182.9572,-113.4241 175.4585,-76.352"/>
<polygon fill="#000000" stroke="#000000" points="178.8216,-75.3243 173.4084,-66.2167 171.9605,-76.7121 178.8216,-75.3243"/>
</g>
<!-- 267360 -->
<g id="node71" class="node">
<title>267360</title>
<ellipse fill="none" stroke="#000000" cx="183.4763" cy="-40.1315" rx="37.0935" ry="18"/>
<text text-anchor="middle" x="183.4763" y="-36.4315" font-family="Times,serif" font-size="14.00" fill="#000000">267360</text>
</g>
<!-- 3&#45;&gt;267360 -->
<g id="edge28" class="edge">
<title>3&#45;&gt;267360</title>
<path fill="none" stroke="#000000" d="M203.6696,-208.4093C199.7487,-175.7351 191.4985,-106.9833 186.8484,-68.2322"/>
<polygon fill="#000000" stroke="#000000" points="190.3055,-67.6646 185.6389,-58.1528 183.3553,-68.4986 190.3055,-67.6646"/>
</g>
<!-- 394432 -->
<g id="node72" class="node">
<title>394432</title>
<ellipse fill="none" stroke="#000000" cx="198.0053" cy="-33.7585" rx="37.0935" ry="18"/>
<text text-anchor="middle" x="198.0053" y="-30.0585" font-family="Times,serif" font-size="14.00" fill="#000000">394432</text>
</g>
<!-- 3&#45;&gt;394432 -->
<g id="edge29" class="edge">
<title>3&#45;&gt;394432</title>
<path fill="none" stroke="#000000" d="M205.1176,-208.4862C203.7469,-174.8135 200.8006,-102.4309 199.1629,-62.1969"/>
<polygon fill="#000000" stroke="#000000" points="202.6516,-61.8451 198.7477,-51.9958 195.6574,-62.1299 202.6516,-61.8451"/>
</g>
<!-- 209 -->
<g id="node3" class="node">
<title>209</title>
<ellipse fill="none" stroke="#000000" cx="213.1472" cy="-29.0225" rx="27" ry="18"/>
<text text-anchor="middle" x="213.1472" y="-25.3225" font-family="Times,serif" font-size="14.00" fill="#000000">209</text>
</g>
<!-- 701 -->
<g id="node5" class="node">
<title>701</title>
<ellipse fill="none" stroke="#000000" cx="228.7182" cy="-25.9809" rx="27" ry="18"/>
<text text-anchor="middle" x="228.7182" y="-22.2809" font-family="Times,serif" font-size="14.00" fill="#000000">701</text>
</g>
<!-- 703 -->
<g id="node6" class="node">
<title>703</title>
<ellipse fill="none" stroke="#000000" cx="266.3343" cy="-383.8784" rx="27" ry="18"/>
<text text-anchor="middle" x="266.3343" y="-380.1784" font-family="Times,serif" font-size="14.00" fill="#000000">703</text>
</g>
<!-- 1239 -->
<g id="node7" class="node">
<title>1239</title>
<ellipse fill="none" stroke="#000000" cx="244.5293" cy="-24.6708" rx="28.6953" ry="18"/>
<text text-anchor="middle" x="244.5293" y="-20.9708" font-family="Times,serif" font-size="14.00" fill="#000000">1239</text>
</g>
<!-- 1273 -->
<g id="node8" class="node">
<title>1273</title>
<ellipse fill="none" stroke="#000000" cx="260.3885" cy="-25.1079" rx="28.6953" ry="18"/>
<text text-anchor="middle" x="260.3885" y="-21.4079" font-family="Times,serif" font-size="14.00" fill="#000000">1273</text>
</g>
<!-- 1299 -->
<g id="node9" class="node">
<title>1299</title>
<ellipse fill="none" stroke="#000000" cx="276.1034" cy="-27.2871" rx="28.6953" ry="18"/>
<text text-anchor="middle" x="276.1034" y="-23.5871" font-family="Times,serif" font-size="14.00" fill="#000000">1299</text>
</g>
<!-- 2497 -->
<g id="node10" class="node">
<title>2497</title>
<ellipse fill="none" stroke="#000000" cx="291.4832" cy="-31.1818" rx="28.6953" ry="18"/>
<text text-anchor="middle" x="291.4832" y="-27.4818" font-family="Times,serif" font-size="14.00" fill="#000000">2497</text>
</g>
<!-- 2764 -->
<g id="node11" class="node">
<title>2764</title>
<ellipse fill="none" stroke="#000000" cx="242.5454" cy="-384.5341" rx="28.6953" ry="18"/>
<text text-anchor="middle" x="242.5454" y="-380.8341" font-family="Times,serif" font-size="14.00" fill="#000000">2764</text>
</g>
<!-- 2828 -->
<g id="node12" class="node">
<title>2828</title>
<ellipse fill="none" stroke="#000000" cx="218.8287" cy="-382.5689" rx="28.6953" ry="18"/>
<text text-anchor="middle" x="218.8287" y="-378.8689" font-family="Times,serif" font-size="14.00" fill="#000000">2828</text>
</g>
<!-- 2914 -->
<g id="node13" class="node">
<title>2914</title>
<ellipse fill="none" stroke="#000000" cx="306.3413" cy="-36.7447" rx="28.6953" ry="18"/>
<text text-anchor="middle" x="306.3413" y="-33.0447" font-family="Times,serif" font-size="14.00" fill="#000000">2914</text>
</g>
<!-- 3209 -->
<g id="node14" class="node">
<title>3209</title>
<ellipse fill="none" stroke="#000000" cx="44.2006" cy="-98.481" rx="28.6953" ry="18"/>
<text text-anchor="middle" x="44.2006" y="-94.781" font-family="Times,serif" font-size="14.00" fill="#000000">3209</text>
</g>
<!-- 3257 -->
<g id="node15" class="node">
<title>3257</title>
<ellipse fill="none" stroke="#000000" cx="320.4971" cy="-43.9085" rx="28.6953" ry="18"/>
<text text-anchor="middle" x="320.4971" y="-40.2085" font-family="Times,serif" font-size="14.00" fill="#000000">3257</text>
</g>
<!-- 3320 -->
<g id="node16" class="node">
<title>3320</title>
<ellipse fill="none" stroke="#000000" cx="333.779" cy="-52.5859" rx="28.6953" ry="18"/>
<text text-anchor="middle" x="333.779" y="-48.8859" font-family="Times,serif" font-size="14.00" fill="#000000">3320</text>
</g>
<!-- 3356&#45;&gt;174 -->
<g id="edge30" class="edge">
<title>3356&#45;&gt;174</title>
<path fill="none" stroke="#000000" d="M279.0329,-127.0706C275.1288,-132.3824 270.7141,-138.3888 266.4796,-144.15"/>
<polygon fill="#000000" stroke="#000000" points="263.5871,-142.1756 260.4849,-152.3061 269.2275,-146.3213 263.5871,-142.1756"/>
</g>
<!-- 3356&#45;&gt;209 -->
<g id="edge31" class="edge">
<title>3356&#45;&gt;209</title>
<path fill="none" stroke="#000000" d="M276.1006,-94.8719C264.482,-82.7187 248.2305,-65.7197 235.1501,-52.0375"/>
<polygon fill="#000000" stroke="#000000" points="237.3142,-49.2363 227.874,-44.4267 232.2545,-54.0736 237.3142,-49.2363"/>
</g>
<!-- 3356&#45;&gt;701 -->
<g id="edge32" class="edge">
<title>3356&#45;&gt;701</title>
<path fill="none" stroke="#000000" d="M278.8059,-93.8828C269.6848,-81.5178 257.1181,-64.4815 246.8541,-50.5671"/>
<polygon fill="#000000" stroke="#000000" points="249.5652,-48.3463 240.8123,-42.3765 243.932,-52.5016 249.5652,-48.3463"/>
</g>
<!-- 3356&#45;&gt;1239 -->
<g id="edge33" class="edge">
<title>3356&#45;&gt;1239</title>
<path fill="none" stroke="#000000" d="M281.7061,-93.2118C275.0926,-81.0189 266.1357,-64.5055 258.6707,-50.7427"/>
<polygon fill="#000000" stroke="#000000" points="261.6326,-48.8624 253.7882,-41.7409 255.4795,-52.1999 261.6326,-48.8624"/>
</g>
<!-- 3356&#45;&gt;1273 -->
<g id="edge34" class="edge">
<title>3356&#45;&gt;1273</title>
<path fill="none" stroke="#000000" d="M284.7667,-92.8868C280.5613,-81.1945 274.9683,-65.6442 270.2003,-52.3877"/>
<polygon fill="#000000" stroke="#000000" points="273.4297,-51.0247 266.7517,-42.7995 266.8428,-53.3939 273.4297,-51.0247"/>
</g>
<!-- 3356&#45;&gt;1299 -->
<g id="edge35" class="edge">
<title>3356&#45;&gt;1299</title>
<path fill="none" stroke="#000000" d="M287.8758,-92.5231C285.9253,-81.7147 283.405,-67.7485 281.1971,-55.5133"/>
<polygon fill="#000000" stroke="#000000" points="284.5797,-54.5492 279.3594,-45.3297 277.691,-55.7923 284.5797,-54.5492"/>
</g>
<!-- 3356&#45;&gt;2497 -->
<g id="edge36" class="edge">
<title>3356&#45;&gt;2497</title>
<path fill="none" stroke="#000000" d="M291.2164,-92.5796C291.2589,-82.7993 291.3124,-70.4871 291.3603,-59.4603"/>
<polygon fill="#000000" stroke="#000000" points="294.8604,-59.422 291.404,-49.4068 287.8605,-59.3915 294.8604,-59.422"/>
</g>
<!-- 3356&#45;&gt;2914 -->
<g id="edge37" class="edge">
<title>3356&#45;&gt;2914</title>
<path fill="none" stroke="#000000" d="M294.8183,-92.7225C296.5423,-84.3476 298.6368,-74.1727 300.5648,-64.8066"/>
<polygon fill="#000000" stroke="#000000" points="304.054,-65.215 302.6422,-54.7146 297.1978,-63.8036 304.054,-65.215"/>
</g>
<!-- 3356&#45;&gt;3257 -->
<g id="edge38" class="edge">
<title>3356&#45;&gt;3257</title>
<path fill="none" stroke="#000000" d="M298.8518,-93.0783C301.8621,-86.2401 305.3812,-78.246 308.6964,-70.7152"/>
<polygon fill="#000000" stroke="#000000" points="311.9072,-72.1083 312.733,-61.5457 305.5005,-69.2879 311.9072,-72.1083"/>
</g>
<!-- 3356&#45;&gt;3320 -->
<g id="edge39" class="edge">
<title>3356&#45;&gt;3320</title>
<path fill="none" stroke="#000000" d="M303.2432,-94.1314C306.9919,-89.0311 311.2113,-83.2904 315.2899,-77.7412"/>
<polygon fill="#000000" stroke="#000000" points="318.3933,-79.4287 321.4955,-69.2982 312.753,-75.283 318.3933,-79.4287"/>
</g>
<!-- 3491 -->
<g id="node18" class="node">
<title>3491</title>
<ellipse fill="none" stroke="#000000" cx="346.0257" cy="-62.6719" rx="28.6953" ry="18"/>
<text text-anchor="middle" x="346.0257" y="-58.9719" font-family="Times,serif" font-size="14.00" fill="#000000">3491</text>
</g>
<!-- 3356&#45;&gt;3491 -->
<g id="edge40" class="edge">
<title>3356&#45;&gt;3491</title>
<path fill="none" stroke="#000000" d="M307.9044,-95.9603C312.0816,-92.3126 316.6499,-88.3235 321.127,-84.414"/>
<polygon fill="#000000" stroke="#000000" points="323.7529,-86.7676 328.9832,-77.5537 319.1487,-81.4949 323.7529,-86.7676"/>
</g>
<!-- 3549 -->
<g id="node19" class="node">
<title>3549</title>
<ellipse fill="none" stroke="#000000" cx="357.0885" cy="-74.0438" rx="28.6953" ry="18"/>
<text text-anchor="middle" x="357.0885" y="-70.3438" font-family="Times,serif" font-size="14.00" fill="#000000">3549</text>
</g>
<!-- 3356&#45;&gt;3549 -->
<g id="edge41" class="edge">
<title>3356&#45;&gt;3549</title>
<path fill="none" stroke="#000000" d="M312.7327,-98.6308C317.1279,-96.1945 321.8307,-93.5877 326.4708,-91.0156"/>
<polygon fill="#000000" stroke="#000000" points="328.1702,-94.0754 335.2195,-86.1661 324.7765,-87.9531 328.1702,-94.0754"/>
</g>
<!-- 5511 -->
<g id="node21" class="node">
<title>5511</title>
<ellipse fill="none" stroke="#000000" cx="366.8331" cy="-86.5637" rx="28.6953" ry="18"/>
<text text-anchor="middle" x="366.8331" y="-82.8637" font-family="Times,serif" font-size="14.00" fill="#000000">5511</text>
</g>
<!-- 3356&#45;&gt;5511 -->
<g id="edge42" class="edge">
<title>3356&#45;&gt;5511</title>
<path fill="none" stroke="#000000" d="M316.765,-102.4631C321.4507,-100.9751 326.4164,-99.3982 331.3292,-97.8382"/>
<polygon fill="#000000" stroke="#000000" points="332.761,-101.0558 341.2326,-94.6933 330.6423,-94.3841 332.761,-101.0558"/>
</g>
<!-- 6453 -->
<g id="node22" class="node">
<title>6453</title>
<ellipse fill="none" stroke="#000000" cx="375.1413" cy="-100.0797" rx="28.6953" ry="18"/>
<text text-anchor="middle" x="375.1413" y="-96.3797" font-family="Times,serif" font-size="14.00" fill="#000000">6453</text>
</g>
<!-- 3356&#45;&gt;6453 -->
<g id="edge43" class="edge">
<title>3356&#45;&gt;6453</title>
<path fill="none" stroke="#000000" d="M319.5777,-107.039C325.111,-106.3459 330.996,-105.6089 336.7877,-104.8834"/>
<polygon fill="#000000" stroke="#000000" points="337.5287,-108.3181 347.0162,-103.6023 336.6587,-101.3723 337.5287,-108.3181"/>
</g>
<!-- 6461 -->
<g id="node23" class="node">
<title>6461</title>
<ellipse fill="none" stroke="#000000" cx="381.9123" cy="-114.4276" rx="28.6953" ry="18"/>
<text text-anchor="middle" x="381.9123" y="-110.7276" font-family="Times,serif" font-size="14.00" fill="#000000">6461</text>
</g>
<!-- 3356&#45;&gt;6461 -->
<g id="edge44" class="edge">
<title>3356&#45;&gt;6461</title>
<path fill="none" stroke="#000000" d="M319.8596,-111.8118C327.2994,-112.1254 335.4329,-112.4682 343.2899,-112.7995"/>
<polygon fill="#000000" stroke="#000000" points="343.239,-116.3003 353.3776,-113.2247 343.5339,-109.3065 343.239,-116.3003"/>
</g>
<!-- 6762 -->
<g id="node24" class="node">
<title>6762</title>
<ellipse fill="none" stroke="#000000" cx="387.0637" cy="-129.4332" rx="28.6953" ry="18"/>
<text text-anchor="middle" x="387.0637" y="-125.7332" font-family="Times,serif" font-size="14.00" fill="#000000">6762</text>
</g>
<!-- 3356&#45;&gt;6762 -->
<g id="edge45" class="edge">
<title>3356&#45;&gt;6762</title>
<path fill="none" stroke="#000000" d="M318.6265,-115.9976C328.2597,-117.8888 339.2493,-120.0463 349.561,-122.0707"/>
<polygon fill="#000000" stroke="#000000" points="349.0843,-125.5438 359.5713,-124.0359 350.4328,-118.6749 349.0843,-125.5438"/>
</g>
<!-- 7018 -->
<g id="node27" class="node">
<title>7018</title>
<ellipse fill="none" stroke="#000000" cx="390.5331" cy="-144.9145" rx="28.6953" ry="18"/>
<text text-anchor="middle" x="390.5331" y="-141.2145" font-family="Times,serif" font-size="14.00" fill="#000000">7018</text>
</g>
<!-- 3356&#45;&gt;7018 -->
<g id="edge46" class="edge">
<title>3356&#45;&gt;7018</title>
<path fill="none" stroke="#000000" d="M316.2196,-119.2598C328.1349,-123.3732 342.5759,-128.3585 355.5472,-132.8365"/>
<polygon fill="#000000" stroke="#000000" points="354.5191,-136.1843 365.1139,-136.1392 356.8034,-129.5675 354.5191,-136.1843"/>
</g>
<!-- 12956 -->
<g id="node34" class="node">
<title>12956</title>
<ellipse fill="none" stroke="#000000" cx="392.2785" cy="-160.6835" rx="32.4942" ry="18"/>
<text text-anchor="middle" x="392.2785" y="-156.9835" font-family="Times,serif" font-size="14.00" fill="#000000">12956</text>
</g>
<!-- 3356&#45;&gt;12956 -->
<g id="edge47" class="edge">
<title>3356&#45;&gt;12956</title>
<path fill="none" stroke="#000000" d="M313.8359,-121.8405C327.0221,-128.37 343.8852,-136.7202 358.5948,-144.0041"/>
<polygon fill="#000000" stroke="#000000" points="357.3752,-147.3057 367.8899,-148.6068 360.4815,-141.0327 357.3752,-147.3057"/>
</g>
<!-- 4637 -->
<g id="node20" class="node">
<title>4637</title>
<ellipse fill="none" stroke="#000000" cx="195.4723" cy="-378.0066" rx="28.6953" ry="18"/>
<text text-anchor="middle" x="195.4723" y="-374.3066" font-family="Times,serif" font-size="14.00" fill="#000000">4637</text>
</g>
<!-- 7922 -->
<g id="node32" class="node">
<title>7922</title>
<ellipse fill="none" stroke="#000000" cx="456.347" cy="-227.3905" rx="28.6953" ry="18"/>
<text text-anchor="middle" x="456.347" y="-223.6905" font-family="Times,serif" font-size="14.00" fill="#000000">7922</text>
</g>
<!-- 7015&#45;&gt;7922 -->
<g id="edge48" class="edge">
<title>7015&#45;&gt;7922</title>
<path fill="none" stroke="#000000" d="M413.2568,-215.2057C415.5847,-215.864 417.9668,-216.5376 420.3576,-217.2136"/>
<polygon fill="#000000" stroke="#000000" points="419.5419,-220.6201 430.1169,-219.9733 421.4466,-213.8843 419.5419,-220.6201"/>
</g>
<!-- 7303 -->
<g id="node29" class="node">
<title>7303</title>
<ellipse fill="none" stroke="#000000" cx="312.9763" cy="-374.7676" rx="28.6953" ry="18"/>
<text text-anchor="middle" x="312.9763" y="-371.0676" font-family="Times,serif" font-size="14.00" fill="#000000">7303</text>
</g>
<!-- 7474 -->
<g id="node30" class="node">
<title>7474</title>
<ellipse fill="none" stroke="#000000" cx="172.7594" cy="-370.9025" rx="28.6953" ry="18"/>
<text text-anchor="middle" x="172.7594" y="-367.2025" font-family="Times,serif" font-size="14.00" fill="#000000">7474</text>
</g>
<!-- 7632 -->
<g id="node31" class="node">
<title>7632</title>
<ellipse fill="none" stroke="#000000" cx="426.0011" cy="-291.6946" rx="28.6953" ry="18"/>
<text text-anchor="middle" x="426.0011" y="-287.9946" font-family="Times,serif" font-size="14.00" fill="#000000">7632</text>
</g>
<!-- 18103 -->
<g id="node35" class="node">
<title>18103</title>
<ellipse fill="none" stroke="#000000" cx="411.3841" cy="-310.4745" rx="32.4942" ry="18"/>
<text text-anchor="middle" x="411.3841" y="-306.7745" font-family="Times,serif" font-size="14.00" fill="#000000">18103</text>
</g>
<!-- 18351 -->
<g id="node36" class="node">
<title>18351</title>
<ellipse fill="none" stroke="#000000" cx="53.156" cy="-260.7998" rx="32.4942" ry="18"/>
<text text-anchor="middle" x="53.156" y="-257.0998" font-family="Times,serif" font-size="14.00" fill="#000000">18351</text>
</g>
<!-- 18365&#45;&gt;7632 -->
<g id="edge49" class="edge">
<title>18365&#45;&gt;7632</title>
<path fill="none" stroke="#000000" d="M376.7175,-281.1359C380.7164,-281.9927 384.8466,-282.8775 388.9359,-283.7536"/>
<polygon fill="#000000" stroke="#000000" points="388.4068,-287.2196 398.9181,-285.8923 389.8732,-280.3749 388.4068,-287.2196"/>
</g>
<!-- 18365&#45;&gt;18103 -->
<g id="edge50" class="edge">
<title>18365&#45;&gt;18103</title>
<path fill="none" stroke="#000000" d="M369.2526,-287.3235C372.5273,-289.1229 375.9406,-290.9985 379.3446,-292.8689"/>
<polygon fill="#000000" stroke="#000000" points="377.7824,-296.0041 388.232,-297.7525 381.1535,-289.8693 377.7824,-296.0041"/>
</g>
<!-- 23947 -->
<g id="node41" class="node">
<title>23947</title>
<ellipse fill="none" stroke="#000000" cx="394.7899" cy="-327.5325" rx="32.4942" ry="18"/>
<text text-anchor="middle" x="394.7899" y="-323.8325" font-family="Times,serif" font-size="14.00" fill="#000000">23947</text>
</g>
<!-- 18365&#45;&gt;23947 -->
<g id="edge51" class="edge">
<title>18365&#45;&gt;23947</title>
<path fill="none" stroke="#000000" d="M360.9215,-290.7416C364.7973,-294.9518 369.0519,-299.5735 373.1976,-304.0769"/>
<polygon fill="#000000" stroke="#000000" points="370.6374,-306.4636 379.9853,-311.4503 375.7875,-301.7226 370.6374,-306.4636"/>
</g>
<!-- 38511 -->
<g id="node50" class="node">
<title>38511</title>
<ellipse fill="none" stroke="#000000" cx="376.4199" cy="-342.6614" rx="32.4942" ry="18"/>
<text text-anchor="middle" x="376.4199" y="-338.9614" font-family="Times,serif" font-size="14.00" fill="#000000">38511</text>
</g>
<!-- 18365&#45;&gt;38511 -->
<g id="edge52" class="edge">
<title>18365&#45;&gt;38511</title>
<path fill="none" stroke="#000000" d="M353.8529,-292.0981C357.0542,-299.2707 360.831,-307.7331 364.3698,-315.662"/>
<polygon fill="#000000" stroke="#000000" points="361.2417,-317.2411 368.5135,-324.9464 367.634,-314.3881 361.2417,-317.2411"/>
</g>
<!-- 63859 -->
<g id="node59" class="node">
<title>63859</title>
<ellipse fill="none" stroke="#000000" cx="356.4971" cy="-355.6776" rx="32.4942" ry="18"/>
<text text-anchor="middle" x="356.4971" y="-351.9776" font-family="Times,serif" font-size="14.00" fill="#000000">63859</text>
</g>
<!-- 18365&#45;&gt;63859 -->
<g id="edge53" class="edge">
<title>18365&#45;&gt;63859</title>
<path fill="none" stroke="#000000" d="M348.3496,-292.5629C349.669,-302.7833 351.35,-315.8057 352.8421,-327.3641"/>
<polygon fill="#000000" stroke="#000000" points="349.3919,-327.9753 354.1434,-337.4449 356.3343,-327.079 349.3919,-327.9753"/>
</g>
<!-- 20207 -->
<g id="node38" class="node">
<title>20207</title>
<ellipse fill="none" stroke="#000000" cx="289.9066" cy="-380.6096" rx="32.4942" ry="18"/>
<text text-anchor="middle" x="289.9066" y="-376.9096" font-family="Times,serif" font-size="14.00" fill="#000000">20207</text>
</g>
<!-- 23520 -->
<g id="node40" class="node">
<title>23520</title>
<ellipse fill="none" stroke="#000000" cx="64.4825" cy="-55.5028" rx="32.4942" ry="18"/>
<text text-anchor="middle" x="64.4825" y="-51.8028" font-family="Times,serif" font-size="14.00" fill="#000000">23520</text>
</g>
<!-- 27787&#45;&gt;7303 -->
<g id="edge54" class="edge">
<title>27787&#45;&gt;7303</title>
<path fill="none" stroke="#000000" d="M291.6531,-326.046C294.5728,-332.7172 297.9581,-340.4523 301.1596,-347.7674"/>
<polygon fill="#000000" stroke="#000000" points="298.1345,-349.585 305.3503,-357.3428 304.5472,-346.7784 298.1345,-349.585"/>
</g>
<!-- 27787&#45;&gt;20207 -->
<g id="edge55" class="edge">
<title>27787&#45;&gt;20207</title>
<path fill="none" stroke="#000000" d="M285.3761,-326.4793C286.0342,-334.3416 286.8186,-343.7136 287.5482,-352.4319"/>
<polygon fill="#000000" stroke="#000000" points="284.0771,-352.9235 288.399,-362.5967 291.0527,-352.3396 284.0771,-352.9235"/>
</g>
<!-- 28022 -->
<g id="node43" class="node">
<title>28022</title>
<ellipse fill="none" stroke="#000000" cx="78.0428" cy="-35.9462" rx="32.4942" ry="18"/>
<text text-anchor="middle" x="78.0428" y="-32.2462" font-family="Times,serif" font-size="14.00" fill="#000000">28022</text>
</g>
<!-- 32787&#45;&gt;703 -->
<g id="edge56" class="edge">
<title>32787&#45;&gt;703</title>
<path fill="none" stroke="#000000" d="M237.824,-328.8323C242.2596,-337.3964 247.6867,-347.8746 252.611,-357.3822"/>
<polygon fill="#000000" stroke="#000000" points="249.6053,-359.1893 257.3123,-366.4593 255.8211,-355.9699 249.6053,-359.1893"/>
</g>
<!-- 32787&#45;&gt;2764 -->
<g id="edge57" class="edge">
<title>32787&#45;&gt;2764</title>
<path fill="none" stroke="#000000" d="M232.1362,-329.3661C233.6934,-337.6193 235.5717,-347.5742 237.3016,-356.7428"/>
<polygon fill="#000000" stroke="#000000" points="233.8732,-357.45 239.1667,-366.6276 240.7519,-356.152 233.8732,-357.45"/>
</g>
<!-- 32787&#45;&gt;2828 -->
<g id="edge58" class="edge">
<title>32787&#45;&gt;2828</title>
<path fill="none" stroke="#000000" d="M226.2227,-329.2477C225.165,-336.8752 223.9073,-345.945 222.7319,-354.4216"/>
<polygon fill="#000000" stroke="#000000" points="219.2647,-353.9441 221.3579,-364.3301 226.1983,-354.9057 219.2647,-353.9441"/>
</g>
<!-- 32787&#45;&gt;4637 -->
<g id="edge59" class="edge">
<title>32787&#45;&gt;4637</title>
<path fill="none" stroke="#000000" d="M219.9832,-328.7905C216.4818,-335.8211 212.3725,-344.0722 208.5299,-351.7878"/>
<polygon fill="#000000" stroke="#000000" points="205.359,-350.3038 204.0339,-360.8154 211.6249,-353.4244 205.359,-350.3038"/>
</g>
<!-- 32787&#45;&gt;7474 -->
<g id="edge60" class="edge">
<title>32787&#45;&gt;7474</title>
<path fill="none" stroke="#000000" d="M213.7223,-327.2367C207.8585,-333.4875 201.0171,-340.7803 194.6236,-347.5956"/>
<polygon fill="#000000" stroke="#000000" points="191.6985,-345.5981 187.4094,-355.2859 196.8038,-350.3873 191.6985,-345.5981"/>
</g>
<!-- 34779 -->
<g id="node46" class="node">
<title>34779</title>
<ellipse fill="none" stroke="#000000" cx="78.0428" cy="-301.2861" rx="32.4942" ry="18"/>
<text text-anchor="middle" x="78.0428" y="-297.5861" font-family="Times,serif" font-size="14.00" fill="#000000">34779</text>
</g>
<!-- 37254 -->
<g id="node47" class="node">
<title>37254</title>
<ellipse fill="none" stroke="#000000" cx="130.3563" cy="-349.4441" rx="32.4942" ry="18"/>
<text text-anchor="middle" x="130.3563" y="-345.7441" font-family="Times,serif" font-size="14.00" fill="#000000">37254</text>
</g>
<!-- 37642&#45;&gt;37254 -->
<g id="edge61" class="edge">
<title>37642&#45;&gt;37254</title>
<path fill="none" stroke="#000000" d="M154.4097,-302.0109C151.1684,-308.4026 147.4185,-315.7974 143.8582,-322.8184"/>
<polygon fill="#000000" stroke="#000000" points="140.5874,-321.5297 139.1862,-332.0315 146.8306,-324.6957 140.5874,-321.5297"/>
</g>
<!-- 37662 -->
<g id="node49" class="node">
<title>37662</title>
<ellipse fill="none" stroke="#000000" cx="111.1808" cy="-335.3501" rx="32.4942" ry="18"/>
<text text-anchor="middle" x="111.1808" y="-331.6501" font-family="Times,serif" font-size="14.00" fill="#000000">37662</text>
</g>
<!-- 37642&#45;&gt;37662 -->
<g id="edge62" class="edge">
<title>37642&#45;&gt;37662</title>
<path fill="none" stroke="#000000" d="M147.0364,-300.4114C143.1581,-304.1905 138.9376,-308.3031 134.7989,-312.336"/>
<polygon fill="#000000" stroke="#000000" points="132.2482,-309.9345 127.5288,-319.4202 137.1335,-314.948 132.2482,-309.9345"/>
</g>
<!-- 49743 -->
<g id="node52" class="node">
<title>49743</title>
<ellipse fill="none" stroke="#000000" cx="93.6721" cy="-319.2322" rx="32.4942" ry="18"/>
<text text-anchor="middle" x="93.6721" y="-315.5322" font-family="Times,serif" font-size="14.00" fill="#000000">49743</text>
</g>
<!-- 43888&#45;&gt;49743 -->
<g id="edge63" class="edge">
<title>43888&#45;&gt;49743</title>
<path fill="none" stroke="#000000" d="M128.9512,-284.9121C125.2802,-288.4834 121.3121,-292.3436 117.4076,-296.142"/>
<polygon fill="#000000" stroke="#000000" points="114.7995,-293.7962 110.0722,-303.2779 119.6806,-298.8137 114.7995,-293.7962"/>
</g>
<!-- 52468 -->
<g id="node53" class="node">
<title>52468</title>
<ellipse fill="none" stroke="#000000" cx="93.6721" cy="-18" rx="32.4942" ry="18"/>
<text text-anchor="middle" x="93.6721" y="-14.3" font-family="Times,serif" font-size="14.00" fill="#000000">52468</text>
</g>
<!-- 56651&#45;&gt;34779 -->
<g id="edge64" class="edge">
<title>56651&#45;&gt;34779</title>
<path fill="none" stroke="#000000" d="M115.9413,-271.7885C112.4326,-274.5194 108.7058,-277.4201 105.0115,-280.2954"/>
<polygon fill="#000000" stroke="#000000" points="102.8152,-277.5697 97.0735,-286.4739 107.1147,-283.0937 102.8152,-277.5697"/>
</g>
<!-- 58682 -->
<g id="node55" class="node">
<title>58682</title>
<ellipse fill="none" stroke="#000000" cx="32.4971" cy="-168.6161" rx="32.4942" ry="18"/>
<text text-anchor="middle" x="32.4971" y="-164.9161" font-family="Times,serif" font-size="14.00" fill="#000000">58682</text>
</g>
<!-- 58689 -->
<g id="node56" class="node">
<title>58689</title>
<ellipse fill="none" stroke="#000000" cx="33.8081" cy="-144.8543" rx="32.4942" ry="18"/>
<text text-anchor="middle" x="33.8081" y="-141.1543" font-family="Times,serif" font-size="14.00" fill="#000000">58689</text>
</g>
<!-- 59203 -->
<g id="node57" class="node">
<title>59203</title>
<ellipse fill="none" stroke="#000000" cx="33.8081" cy="-192.3779" rx="32.4942" ry="18"/>
<text text-anchor="middle" x="33.8081" y="-188.6779" font-family="Times,serif" font-size="14.00" fill="#000000">59203</text>
</g>
<!-- 131758&#45;&gt;18351 -->
<g id="edge65" class="edge">
<title>131758&#45;&gt;18351</title>
<path fill="none" stroke="#000000" d="M91.4095,-242.7475C90.1878,-243.3241 88.955,-243.9059 87.7183,-244.4894"/>
<polygon fill="#000000" stroke="#000000" points="85.831,-241.5099 78.2811,-248.943 88.8185,-247.8404 85.831,-241.5099"/>
</g>
<!-- 133957&#45;&gt;59203 -->
<g id="edge66" class="edge">
<title>133957&#45;&gt;59203</title>
<path fill="none" stroke="#000000" d="M69.1703,-188.464C69.0316,-188.4793 68.893,-188.4947 68.7543,-188.51"/>
<polygon fill="#000000" stroke="#000000" points="75.4022,-184.2526 65.8481,-188.8317 76.1725,-191.2101 75.4022,-184.2526"/>
</g>
<!-- 135437&#45;&gt;58682 -->
<g id="edge67" class="edge">
<title>135437&#45;&gt;58682</title>
<path fill="none" stroke="#000000" d="M68.1833,-164.6963C68.0259,-164.7136 67.8684,-164.7309 67.711,-164.7481"/>
<polygon fill="#000000" stroke="#000000" points="73.971,-160.5392 64.4131,-165.1104 74.7355,-167.4974 73.971,-160.5392"/>
</g>
<!-- 135437&#45;&gt;58689 -->
<g id="edge68" class="edge">
<title>135437&#45;&gt;58689</title>
<path fill="none" stroke="#000000" d="M70.9233,-153.1398C70.7806,-153.1079 70.6379,-153.0761 70.4952,-153.0442"/>
<polygon fill="#000000" stroke="#000000" points="74.6074,-150.3762 64.085,-151.6132 73.0822,-157.208 74.6074,-150.3762"/>
</g>
<!-- 204008&#45;&gt;3209 -->
<g id="edge69" class="edge">
<title>204008&#45;&gt;3209</title>
<path fill="none" stroke="#000000" d="M81.8352,-111.401C80.9366,-111.0925 80.0346,-110.7829 79.1318,-110.4729"/>
<polygon fill="#000000" stroke="#000000" points="80.1376,-107.1178 69.543,-107.1811 77.8647,-113.7385 80.1376,-107.1178"/>
</g>
<!-- 265636&#45;&gt;23520 -->
<g id="edge70" class="edge">
<title>265636&#45;&gt;23520</title>
<path fill="none" stroke="#000000" d="M104.6057,-69.5654C103.6929,-69.2455 102.7756,-68.924 101.8564,-68.6018"/>
<polygon fill="#000000" stroke="#000000" points="102.6403,-65.1679 92.0455,-65.1632 100.3249,-71.7739 102.6403,-65.1679"/>
</g>
<!-- 265636&#45;&gt;28022 -->
<g id="edge71" class="edge">
<title>265636&#45;&gt;28022</title>
<path fill="none" stroke="#000000" d="M114.9887,-64.7023C111.8385,-62.2505 108.534,-59.6785 105.2509,-57.1231"/>
<polygon fill="#000000" stroke="#000000" points="107.2754,-54.2636 97.2342,-50.8835 102.9759,-59.7876 107.2754,-54.2636"/>
</g>
<!-- 265636&#45;&gt;52468 -->
<g id="edge72" class="edge">
<title>265636&#45;&gt;52468</title>
<path fill="none" stroke="#000000" d="M123.3875,-62.8518C119.4599,-56.9236 114.9777,-50.1582 110.7062,-43.7109"/>
<polygon fill="#000000" stroke="#000000" points="113.5248,-41.6281 105.0839,-35.2248 107.6893,-45.4943 113.5248,-41.6281"/>
</g>
</g>
</svg>
