<?xml version="1.0" encoding="UTF-8" standalone="no"?>
<!DOCTYPE svg PUBLIC "-//W3C//DTD SVG 1.1//EN"
 "http://www.w3.org/Graphics/SVG/1.1/DTD/svg11.dtd">
<!-- Generated by graphviz version 2.40.1 (20161225.0304)
 -->
<!-- Title: %3 Pages: 1 -->
<svg width="1313pt" height="1482pt"
 viewBox="0.00 0.00 1313.00 1482.00" xmlns="http://www.w3.org/2000/svg" xmlns:xlink="http://www.w3.org/1999/xlink">
<g id="graph0" class="graph" transform="scale(1 1) rotate(0) translate(4 1478)">
<title>%3</title>
<polygon fill="#ffffff" stroke="transparent" points="-4,4 -4,-1478 1309,-1478 1309,4 -4,4"/>
<!-- 3 -->
<g id="node1" class="node">
<title>3</title>
<ellipse fill="none" stroke="#000000" cx="688.0547" cy="-810.0897" rx="27" ry="18"/>
<text text-anchor="middle" x="688.0547" y="-806.3897" font-family="Times,serif" font-size="14.00" fill="#000000">3</text>
</g>
<!-- 174 -->
<g id="node2" class="node">
<title>174</title>
<ellipse fill="none" stroke="#000000" cx="816.3092" cy="-531.8362" rx="27" ry="18"/>
<text text-anchor="middle" x="816.3092" y="-528.1362" font-family="Times,serif" font-size="14.00" fill="#000000">174</text>
</g>
<!-- 3&#45;&gt;174 -->
<g id="edge1" class="edge">
<title>3&#45;&gt;174</title>
<path fill="none" stroke="#000000" d="M696.0776,-792.6837C717.8058,-745.5435 777.9052,-615.1554 803.9769,-558.5917"/>
<polygon fill="#000000" stroke="#000000" points="807.2819,-559.7825 808.2894,-549.2356 800.9247,-556.8522 807.2819,-559.7825"/>
</g>
<!-- 293 -->
<g id="node4" class="node">
<title>293</title>
<ellipse fill="none" stroke="#000000" cx="604.6714" cy="-665.9955" rx="27" ry="18"/>
<text text-anchor="middle" x="604.6714" y="-662.2955" font-family="Times,serif" font-size="14.00" fill="#000000">293</text>
</g>
<!-- 3&#45;&gt;293 -->
<g id="edge2" class="edge">
<title>3&#45;&gt;293</title>
<path fill="none" stroke="#000000" d="M678.3264,-793.2782C663.9059,-768.3582 636.7352,-721.4047 619.7308,-692.0196"/>
<polygon fill="#000000" stroke="#000000" points="622.6342,-690.0488 614.5962,-683.1465 616.5755,-693.5548 622.6342,-690.0488"/>
</g>
<!-- 3356 -->
<g id="node17" class="node">
<title>3356</title>
<ellipse fill="none" stroke="#000000" cx="925.0974" cy="-289.9062" rx="28.6953" ry="18"/>
<text text-anchor="middle" x="925.0974" y="-286.2062" font-family="Times,serif" font-size="14.00" fill="#000000">3356</text>
</g>
<!-- 3&#45;&gt;3356 -->
<g id="edge3" class="edge">
<title>3&#45;&gt;3356</title>
<path fill="none" stroke="#000000" d="M695.9416,-792.7822C730.743,-716.4113 870.71,-409.2579 912.9614,-316.5383"/>
<polygon fill="#000000" stroke="#000000" points="916.2191,-317.8297 917.1809,-307.2786 909.8493,-314.927 916.2191,-317.8297"/>
</g>
<!-- 6939 -->
<g id="node25" class="node">
<title>6939</title>
<ellipse fill="none" stroke="#000000" cx="858.806" cy="-804.8542" rx="28.6953" ry="18"/>
<text text-anchor="middle" x="858.806" y="-801.1542" font-family="Times,serif" font-size="14.00" fill="#000000">6939</text>
</g>
<!-- 3&#45;&gt;6939 -->
<g id="edge4" class="edge">
<title>3&#45;&gt;6939</title>
<path fill="none" stroke="#000000" d="M715.1108,-809.2601C743.3294,-808.3949 787.8302,-807.0304 819.8344,-806.0491"/>
<polygon fill="#000000" stroke="#000000" points="820.2794,-809.5372 830.1674,-805.7323 820.0648,-802.5405 820.2794,-809.5372"/>
</g>
<!-- 7015 -->
<g id="node26" class="node">
<title>7015</title>
<ellipse fill="none" stroke="#000000" cx="595.7402" cy="-1079.7555" rx="28.6953" ry="18"/>
<text text-anchor="middle" x="595.7402" y="-1076.0555" font-family="Times,serif" font-size="14.00" fill="#000000">7015</text>
</g>
<!-- 3&#45;&gt;7015 -->
<g id="edge5" class="edge">
<title>3&#45;&gt;7015</title>
<path fill="none" stroke="#000000" d="M681.9977,-827.7832C666.251,-873.782 623.9425,-997.3721 605.0608,-1052.5284"/>
<polygon fill="#000000" stroke="#000000" points="601.747,-1051.4022 601.8195,-1061.9968 608.3697,-1053.6694 601.747,-1051.4022"/>
</g>
<!-- 7029 -->
<g id="node28" class="node">
<title>7029</title>
<ellipse fill="none" stroke="#000000" cx="614.9371" cy="-974.8207" rx="28.6953" ry="18"/>
<text text-anchor="middle" x="614.9371" y="-971.1207" font-family="Times,serif" font-size="14.00" fill="#000000">7029</text>
</g>
<!-- 3&#45;&gt;7029 -->
<g id="edge6" class="edge">
<title>3&#45;&gt;7029</title>
<path fill="none" stroke="#000000" d="M680.3681,-827.4074C667.6203,-856.1277 642.0137,-913.8182 626.8905,-947.8902"/>
<polygon fill="#000000" stroke="#000000" points="623.5988,-946.6791 622.7409,-957.2391 629.9969,-949.519 623.5988,-946.6791"/>
</g>
<!-- 10578 -->
<g id="node33" class="node">
<title>10578</title>
<ellipse fill="none" stroke="#000000" cx="810.6267" cy="-678.1329" rx="32.4942" ry="18"/>
<text text-anchor="middle" x="810.6267" y="-674.4329" font-family="Times,serif" font-size="14.00" fill="#000000">10578</text>
</g>
<!-- 3&#45;&gt;10578 -->
<g id="edge7" class="edge">
<title>3&#45;&gt;10578</title>
<path fill="none" stroke="#000000" d="M702.3552,-794.6943C723.6216,-771.7995 763.7521,-728.5964 788.7317,-701.7043"/>
<polygon fill="#000000" stroke="#000000" points="791.4121,-703.9614 795.6535,-694.2526 786.2834,-699.1974 791.4121,-703.9614"/>
</g>
<!-- 18365 -->
<g id="node37" class="node">
<title>18365</title>
<ellipse fill="none" stroke="#000000" cx="910.2782" cy="-1198.1443" rx="32.4942" ry="18"/>
<text text-anchor="middle" x="910.2782" y="-1194.4443" font-family="Times,serif" font-size="14.00" fill="#000000">18365</text>
</g>
<!-- 3&#45;&gt;18365 -->
<g id="edge8" class="edge">
<title>3&#45;&gt;18365</title>
<path fill="none" stroke="#000000" d="M697.7463,-827.0134C732.7552,-888.1473 852.8409,-1097.8452 895.2768,-1171.9484"/>
<polygon fill="#000000" stroke="#000000" points="892.2762,-1173.7517 900.2829,-1180.6902 898.3507,-1170.2731 892.2762,-1173.7517"/>
</g>
<!-- 23248 -->
<g id="node39" class="node">
<title>23248</title>
<ellipse fill="none" stroke="#000000" cx="648.7022" cy="-607.4247" rx="32.4942" ry="18"/>
<text text-anchor="middle" x="648.7022" y="-603.7247" font-family="Times,serif" font-size="14.00" fill="#000000">23248</text>
</g>
<!-- 3&#45;&gt;23248 -->
<g id="edge9" class="edge">
<title>3&#45;&gt;23248</title>
<path fill="none" stroke="#000000" d="M684.5624,-792.1045C677.6781,-756.65 662.3127,-677.5186 654.1087,-635.2677"/>
<polygon fill="#000000" stroke="#000000" points="657.5287,-634.5191 652.1867,-625.3696 650.6571,-635.8534 657.5287,-634.5191"/>
</g>
<!-- 27787 -->
<g id="node42" class="node">
<title>27787</title>
<ellipse fill="none" stroke="#000000" cx="357.7793" cy="-916.091" rx="32.4942" ry="18"/>
<text text-anchor="middle" x="357.7793" y="-912.391" font-family="Times,serif" font-size="14.00" fill="#000000">27787</text>
</g>
<!-- 3&#45;&gt;27787 -->
<g id="edge10" class="edge">
<title>3&#45;&gt;27787</title>
<path fill="none" stroke="#000000" d="M663.5002,-817.9704C606.3622,-836.3087 464.1678,-881.9458 395.7446,-903.9061"/>
<polygon fill="#000000" stroke="#000000" points="394.6556,-900.5797 386.2036,-906.9683 396.7948,-907.2448 394.6556,-900.5797"/>
</g>
<!-- 32787 -->
<g id="node44" class="node">
<title>32787</title>
<ellipse fill="none" stroke="#000000" cx="278.4284" cy="-637.3389" rx="32.4942" ry="18"/>
<text text-anchor="middle" x="278.4284" y="-633.6389" font-family="Times,serif" font-size="14.00" fill="#000000">32787</text>
</g>
<!-- 3&#45;&gt;32787 -->
<g id="edge11" class="edge">
<title>3&#45;&gt;32787</title>
<path fill="none" stroke="#000000" d="M665.1537,-800.4317C597.1537,-771.7542 396.0596,-686.9472 313.9523,-652.3203"/>
<polygon fill="#000000" stroke="#000000" points="315.1202,-649.0144 304.546,-648.3534 312.4001,-655.4643 315.1202,-649.0144"/>
</g>
<!-- 33480 -->
<g id="node45" class="node">
<title>33480</title>
<ellipse fill="none" stroke="#000000" cx="525.7246" cy="-677.4457" rx="32.4942" ry="18"/>
<text text-anchor="middle" x="525.7246" y="-673.7457" font-family="Times,serif" font-size="14.00" fill="#000000">33480</text>
</g>
<!-- 3&#45;&gt;33480 -->
<g id="edge12" class="edge">
<title>3&#45;&gt;33480</title>
<path fill="none" stroke="#000000" d="M670.6826,-795.8944C642.1811,-772.6052 585.3285,-726.1495 551.919,-698.8498"/>
<polygon fill="#000000" stroke="#000000" points="553.9199,-695.9649 543.9617,-692.3476 549.4906,-701.3854 553.9199,-695.9649"/>
</g>
<!-- 37642 -->
<g id="node48" class="node">
<title>37642</title>
<ellipse fill="none" stroke="#000000" cx="688.4862" cy="-1153.9609" rx="32.4942" ry="18"/>
<text text-anchor="middle" x="688.4862" y="-1150.2609" font-family="Times,serif" font-size="14.00" fill="#000000">37642</text>
</g>
<!-- 3&#45;&gt;37642 -->
<g id="edge13" class="edge">
<title>3&#45;&gt;37642</title>
<path fill="none" stroke="#000000" d="M688.0773,-828.0935C688.1479,-884.3672 688.3649,-1057.2606 688.4507,-1125.6718"/>
<polygon fill="#000000" stroke="#000000" points="684.9507,-1125.7249 688.4633,-1135.7204 691.9507,-1125.716 684.9507,-1125.7249"/>
</g>
<!-- 43888 -->
<g id="node51" class="node">
<title>43888</title>
<ellipse fill="none" stroke="#000000" cx="456.6949" cy="-984.6102" rx="32.4942" ry="18"/>
<text text-anchor="middle" x="456.6949" y="-980.9102" font-family="Times,serif" font-size="14.00" fill="#000000">43888</text>
</g>
<!-- 3&#45;&gt;43888 -->
<g id="edge14" class="edge">
<title>3&#45;&gt;43888</title>
<path fill="none" stroke="#000000" d="M669.9003,-823.784C629.5027,-854.2569 531.9815,-927.8197 484.1205,-963.9224"/>
<polygon fill="#000000" stroke="#000000" points="481.9354,-961.1865 476.0597,-970.0028 486.1509,-966.7749 481.9354,-961.1865"/>
</g>
<!-- 56651 -->
<g id="node54" class="node">
<title>56651</title>
<ellipse fill="none" stroke="#000000" cx="397.8418" cy="-798.5391" rx="32.4942" ry="18"/>
<text text-anchor="middle" x="397.8418" y="-794.8391" font-family="Times,serif" font-size="14.00" fill="#000000">56651</text>
</g>
<!-- 3&#45;&gt;56651 -->
<g id="edge15" class="edge">
<title>3&#45;&gt;56651</title>
<path fill="none" stroke="#000000" d="M661.0128,-809.0134C610.4658,-807.0016 501.3026,-802.6568 440.6547,-800.243"/>
<polygon fill="#000000" stroke="#000000" points="440.7682,-796.7449 430.6369,-799.8443 440.4897,-803.7393 440.7682,-796.7449"/>
</g>
<!-- 59362 -->
<g id="node58" class="node">
<title>59362</title>
<ellipse fill="none" stroke="#000000" cx="501.8438" cy="-835.7927" rx="32.4942" ry="18"/>
<text text-anchor="middle" x="501.8438" y="-832.0927" font-family="Times,serif" font-size="14.00" fill="#000000">59362</text>
</g>
<!-- 3&#45;&gt;59362 -->
<g id="edge16" class="edge">
<title>3&#45;&gt;59362</title>
<path fill="none" stroke="#000000" d="M661.3752,-813.7723C630.6214,-818.0173 579.6917,-825.0472 543.6595,-830.0208"/>
<polygon fill="#000000" stroke="#000000" points="542.8857,-826.5943 533.4583,-831.4289 543.843,-833.5286 542.8857,-826.5943"/>
</g>
<!-- 131758 -->
<g id="node60" class="node">
<title>131758</title>
<ellipse fill="none" stroke="#000000" cx="936.3743" cy="-986.178" rx="37.0935" ry="18"/>
<text text-anchor="middle" x="936.3743" y="-982.478" font-family="Times,serif" font-size="14.00" fill="#000000">131758</text>
</g>
<!-- 3&#45;&gt;131758 -->
<g id="edge17" class="edge">
<title>3&#45;&gt;131758</title>
<path fill="none" stroke="#000000" d="M706.719,-823.3249C749.5818,-853.7197 855.3318,-928.7091 907.0044,-965.3512"/>
<polygon fill="#000000" stroke="#000000" points="905.2249,-968.38 915.4067,-971.3095 909.2741,-962.6699 905.2249,-968.38"/>
</g>
<!-- 133295 -->
<g id="node61" class="node">
<title>133295</title>
<ellipse fill="none" stroke="#000000" cx="731.1977" cy="-627.6169" rx="37.0935" ry="18"/>
<text text-anchor="middle" x="731.1977" y="-623.9169" font-family="Times,serif" font-size="14.00" fill="#000000">133295</text>
</g>
<!-- 3&#45;&gt;133295 -->
<g id="edge18" class="edge">
<title>3&#45;&gt;133295</title>
<path fill="none" stroke="#000000" d="M692.27,-792.2612C699.8091,-760.3745 715.6514,-693.3699 724.6281,-655.403"/>
<polygon fill="#000000" stroke="#000000" points="728.0704,-656.0548 726.9653,-645.5177 721.2582,-654.4441 728.0704,-656.0548"/>
</g>
<!-- 133296 -->
<g id="node62" class="node">
<title>133296</title>
<ellipse fill="none" stroke="#000000" cx="876.4927" cy="-885.5404" rx="37.0935" ry="18"/>
<text text-anchor="middle" x="876.4927" y="-881.8404" font-family="Times,serif" font-size="14.00" fill="#000000">133296</text>
</g>
<!-- 3&#45;&gt;133296 -->
<g id="edge19" class="edge">
<title>3&#45;&gt;133296</title>
<path fill="none" stroke="#000000" d="M711.5395,-819.493C743.238,-832.1851 800.1088,-854.9562 838.0776,-870.1589"/>
<polygon fill="#000000" stroke="#000000" points="837.1876,-873.5727 847.7721,-874.0407 839.7897,-867.0743 837.1876,-873.5727"/>
</g>
<!-- 133957 -->
<g id="node63" class="node">
<title>133957</title>
<ellipse fill="none" stroke="#000000" cx="979.4445" cy="-777.6889" rx="37.0935" ry="18"/>
<text text-anchor="middle" x="979.4445" y="-773.9889" font-family="Times,serif" font-size="14.00" fill="#000000">133957</text>
</g>
<!-- 3&#45;&gt;133957 -->
<g id="edge20" class="edge">
<title>3&#45;&gt;133957</title>
<path fill="none" stroke="#000000" d="M714.9457,-807.0995C764.624,-801.5756 871.3226,-789.7114 932.9435,-782.8595"/>
<polygon fill="#000000" stroke="#000000" points="933.6137,-786.3067 943.1657,-781.7229 932.8401,-779.3495 933.6137,-786.3067"/>
</g>
<!-- 135437 -->
<g id="node64" class="node">
<title>135437</title>
<ellipse fill="none" stroke="#000000" cx="1031.0802" cy="-894.6243" rx="37.0935" ry="18"/>
<text text-anchor="middle" x="1031.0802" y="-890.9243" font-family="Times,serif" font-size="14.00" fill="#000000">135437</text>
</g>
<!-- 3&#45;&gt;135437 -->
<g id="edge21" class="edge">
<title>3&#45;&gt;135437</title>
<path fill="none" stroke="#000000" d="M713.5571,-816.3744C771.8649,-830.7437 915.4555,-866.1299 987.8585,-883.9728"/>
<polygon fill="#000000" stroke="#000000" points="987.4587,-887.4789 998.0057,-886.4735 989.1337,-880.6823 987.4587,-887.4789"/>
</g>
<!-- 137385 -->
<g id="node65" class="node">
<title>137385</title>
<ellipse fill="none" stroke="#000000" cx="689.9785" cy="-1013.1536" rx="37.0935" ry="18"/>
<text text-anchor="middle" x="689.9785" y="-1009.4536" font-family="Times,serif" font-size="14.00" fill="#000000">137385</text>
</g>
<!-- 3&#45;&gt;137385 -->
<g id="edge22" class="edge">
<title>3&#45;&gt;137385</title>
<path fill="none" stroke="#000000" d="M688.2254,-828.1102C688.5604,-863.47 689.3062,-942.1881 689.7086,-984.6651"/>
<polygon fill="#000000" stroke="#000000" points="686.2107,-984.9151 689.8054,-994.8815 693.2104,-984.8488 686.2107,-984.9151"/>
</g>
<!-- 204008 -->
<g id="node66" class="node">
<title>204008</title>
<ellipse fill="none" stroke="#000000" cx="512.4472" cy="-565.3983" rx="37.0935" ry="18"/>
<text text-anchor="middle" x="512.4472" y="-561.6983" font-family="Times,serif" font-size="14.00" fill="#000000">204008</text>
</g>
<!-- 3&#45;&gt;204008 -->
<g id="edge23" class="edge">
<title>3&#45;&gt;204008</title>
<path fill="none" stroke="#000000" d="M676.2599,-793.6548C646.2261,-751.8057 566.6962,-640.9889 530.6563,-590.7708"/>
<polygon fill="#000000" stroke="#000000" points="533.3292,-588.4924 524.6551,-582.4087 527.6421,-592.5738 533.3292,-588.4924"/>
</g>
<!-- 263531 -->
<g id="node67" class="node">
<title>263531</title>
<ellipse fill="none" stroke="#000000" cx="786.1837" cy="-1009.6255" rx="37.0935" ry="18"/>
<text text-anchor="middle" x="786.1837" y="-1005.9255" font-family="Times,serif" font-size="14.00" fill="#000000">263531</text>
</g>
<!-- 3&#45;&gt;263531 -->
<g id="edge24" class="edge">
<title>3&#45;&gt;263531</title>
<path fill="none" stroke="#000000" d="M696.5914,-827.4481C713.7654,-862.3699 752.5926,-941.3213 773.0332,-982.8852"/>
<polygon fill="#000000" stroke="#000000" points="769.9023,-984.45 777.4562,-991.879 776.1838,-981.3608 769.9023,-984.45"/>
</g>
<!-- 265636 -->
<g id="node68" class="node">
<title>265636</title>
<ellipse fill="none" stroke="#000000" cx="439.0181" cy="-1138.4275" rx="37.0935" ry="18"/>
<text text-anchor="middle" x="439.0181" y="-1134.7275" font-family="Times,serif" font-size="14.00" fill="#000000">265636</text>
</g>
<!-- 3&#45;&gt;265636 -->
<g id="edge25" class="edge">
<title>3&#45;&gt;265636</title>
<path fill="none" stroke="#000000" d="M675.705,-826.372C635.3158,-879.6223 506.9471,-1048.8677 458.1196,-1113.2435"/>
<polygon fill="#000000" stroke="#000000" points="455.2936,-1111.1777 452.039,-1121.2603 460.8708,-1115.4079 455.2936,-1111.1777"/>
</g>
<!-- 266177 -->
<g id="node69" class="node">
<title>266177</title>
<ellipse fill="none" stroke="#000000" cx="825.0718" cy="-956.1137" rx="37.0935" ry="18"/>
<text text-anchor="middle" x="825.0718" y="-952.4137" font-family="Times,serif" font-size="14.00" fill="#000000">266177</text>
</g>
<!-- 3&#45;&gt;266177 -->
<g id="edge26" class="edge">
<title>3&#45;&gt;266177</title>
<path fill="none" stroke="#000000" d="M702.459,-825.4408C726.3002,-850.8492 774.1426,-901.8366 802.5037,-932.062"/>
<polygon fill="#000000" stroke="#000000" points="800.2142,-934.7371 809.6092,-939.6346 805.3189,-929.9472 800.2142,-934.7371"/>
</g>
<!-- 266491 -->
<g id="node70" class="node">
<title>266491</title>
<ellipse fill="none" stroke="#000000" cx="529.8883" cy="-929.7117" rx="37.0935" ry="18"/>
<text text-anchor="middle" x="529.8883" y="-926.0117" font-family="Times,serif" font-size="14.00" fill="#000000">266491</text>
</g>
<!-- 3&#45;&gt;266491 -->
<g id="edge27" class="edge">
<title>3&#45;&gt;266491</title>
<path fill="none" stroke="#000000" d="M669.911,-823.8118C642.5744,-844.4866 590.5883,-883.804 558.227,-908.279"/>
<polygon fill="#000000" stroke="#000000" points="555.9177,-905.6372 550.0531,-914.4609 560.1402,-911.2202 555.9177,-905.6372"/>
</g>
<!-- 267360 -->
<g id="node71" class="node">
<title>267360</title>
<ellipse fill="none" stroke="#000000" cx="486.7931" cy="-741.5793" rx="37.0935" ry="18"/>
<text text-anchor="middle" x="486.7931" y="-737.8793" font-family="Times,serif" font-size="14.00" fill="#000000">267360</text>
</g>
<!-- 3&#45;&gt;267360 -->
<g id="edge28" class="edge">
<title>3&#45;&gt;267360</title>
<path fill="none" stroke="#000000" d="M663.7779,-801.8257C629.8762,-790.2854 567.927,-769.1976 527.0549,-755.2846"/>
<polygon fill="#000000" stroke="#000000" points="527.9968,-751.908 517.4023,-751.9988 525.741,-758.5346 527.9968,-751.908"/>
</g>
<!-- 394432 -->
<g id="node72" class="node">
<title>394432</title>
<ellipse fill="none" stroke="#000000" cx="876.517" cy="-723.4999" rx="37.0935" ry="18"/>
<text text-anchor="middle" x="876.517" y="-719.7999" font-family="Times,serif" font-size="14.00" fill="#000000">394432</text>
</g>
<!-- 3&#45;&gt;394432 -->
<g id="edge29" class="edge">
<title>3&#45;&gt;394432</title>
<path fill="none" stroke="#000000" d="M710.4139,-799.8166C742.4133,-785.1144 801.6367,-757.9039 840.0359,-740.2613"/>
<polygon fill="#000000" stroke="#000000" points="841.695,-743.3508 849.3205,-735.9954 838.7725,-736.9901 841.695,-743.3508"/>
</g>
<!-- 209 -->
<g id="node3" class="node">
<title>209</title>
<ellipse fill="none" stroke="#000000" cx="1157.5382" cy="-155.9398" rx="27" ry="18"/>
<text text-anchor="middle" x="1157.5382" y="-152.2398" font-family="Times,serif" font-size="14.00" fill="#000000">209</text>
</g>
<!-- 701 -->
<g id="node5" class="node">
<title>701</title>
<ellipse fill="none" stroke="#000000" cx="910.9717" cy="-21.263" rx="27" ry="18"/>
<text text-anchor="middle" x="910.9717" y="-17.563" font-family="Times,serif" font-size="14.00" fill="#000000">701</text>
</g>
<!-- 703 -->
<g id="node6" class="node">
<title>703</title>
<ellipse fill="none" stroke="#000000" cx="147.0775" cy="-444.0979" rx="27" ry="18"/>
<text text-anchor="middle" x="147.0775" y="-440.3979" font-family="Times,serif" font-size="14.00" fill="#000000">703</text>
</g>
<!-- 1239 -->
<g id="node7" class="node">
<title>1239</title>
<ellipse fill="none" stroke="#000000" cx="1077.3769" cy="-168.6247" rx="28.6953" ry="18"/>
<text text-anchor="middle" x="1077.3769" y="-164.9247" font-family="Times,serif" font-size="14.00" fill="#000000">1239</text>
</g>
<!-- 1273 -->
<g id="node8" class="node">
<title>1273</title>
<ellipse fill="none" stroke="#000000" cx="974.6673" cy="-80.4983" rx="28.6953" ry="18"/>
<text text-anchor="middle" x="974.6673" y="-76.7983" font-family="Times,serif" font-size="14.00" fill="#000000">1273</text>
</g>
<!-- 1299 -->
<g id="node9" class="node">
<title>1299</title>
<ellipse fill="none" stroke="#000000" cx="1097.9458" cy="-244.384" rx="28.6953" ry="18"/>
<text text-anchor="middle" x="1097.9458" y="-240.684" font-family="Times,serif" font-size="14.00" fill="#000000">1299</text>
</g>
<!-- 2497 -->
<g id="node10" class="node">
<title>2497</title>
<ellipse fill="none" stroke="#000000" cx="1180.4021" cy="-214.6991" rx="28.6953" ry="18"/>
<text text-anchor="middle" x="1180.4021" y="-210.9991" font-family="Times,serif" font-size="14.00" fill="#000000">2497</text>
</g>
<!-- 2764 -->
<g id="node11" class="node">
<title>2764</title>
<ellipse fill="none" stroke="#000000" cx="33.6665" cy="-596.7069" rx="28.6953" ry="18"/>
<text text-anchor="middle" x="33.6665" y="-593.0069" font-family="Times,serif" font-size="14.00" fill="#000000">2764</text>
</g>
<!-- 2828 -->
<g id="node12" class="node">
<title>2828</title>
<ellipse fill="none" stroke="#000000" cx="28.2124" cy="-663.1481" rx="28.6953" ry="18"/>
<text text-anchor="middle" x="28.2124" y="-659.4481" font-family="Times,serif" font-size="14.00" fill="#000000">2828</text>
</g>
<!-- 2914 -->
<g id="node13" class="node">
<title>2914</title>
<ellipse fill="none" stroke="#000000" cx="984.4122" cy="-18.0182" rx="28.6953" ry="18"/>
<text text-anchor="middle" x="984.4122" y="-14.3182" font-family="Times,serif" font-size="14.00" fill="#000000">2914</text>
</g>
<!-- 3209 -->
<g id="node14" class="node">
<title>3209</title>
<ellipse fill="none" stroke="#000000" cx="380.2336" cy="-377.6773" rx="28.6953" ry="18"/>
<text text-anchor="middle" x="380.2336" y="-373.9773" font-family="Times,serif" font-size="14.00" fill="#000000">3209</text>
</g>
<!-- 3257 -->
<g id="node15" class="node">
<title>3257</title>
<ellipse fill="none" stroke="#000000" cx="833.3524" cy="-135.6823" rx="28.6953" ry="18"/>
<text text-anchor="middle" x="833.3524" y="-131.9823" font-family="Times,serif" font-size="14.00" fill="#000000">3257</text>
</g>
<!-- 3320 -->
<g id="node16" class="node">
<title>3320</title>
<ellipse fill="none" stroke="#000000" cx="1056.6309" cy="-41.7939" rx="28.6953" ry="18"/>
<text text-anchor="middle" x="1056.6309" y="-38.0939" font-family="Times,serif" font-size="14.00" fill="#000000">3320</text>
</g>
<!-- 3356&#45;&gt;174 -->
<g id="edge30" class="edge">
<title>3356&#45;&gt;174</title>
<path fill="none" stroke="#000000" d="M917.2736,-307.3052C898.5016,-349.0517 850.8025,-455.1279 828.3468,-505.0663"/>
<polygon fill="#000000" stroke="#000000" points="825.1174,-503.714 824.2083,-514.2698 831.5016,-506.5848 825.1174,-503.714"/>
</g>
<!-- 3356&#45;&gt;209 -->
<g id="edge31" class="edge">
<title>3356&#45;&gt;209</title>
<path fill="none" stroke="#000000" d="M946.5482,-277.5431C988.2723,-253.4955 1080.4198,-200.3867 1127.9298,-173.0045"/>
<polygon fill="#000000" stroke="#000000" points="1129.8921,-175.9132 1136.8084,-167.8873 1126.3967,-169.8484 1129.8921,-175.9132"/>
</g>
<!-- 3356&#45;&gt;701 -->
<g id="edge32" class="edge">
<title>3356&#45;&gt;701</title>
<path fill="none" stroke="#000000" d="M924.1486,-271.8626C921.7419,-226.0922 915.3841,-105.179 912.4697,-49.7523"/>
<polygon fill="#000000" stroke="#000000" points="915.9553,-49.3842 911.9349,-39.5818 908.9649,-49.7518 915.9553,-49.3842"/>
</g>
<!-- 3356&#45;&gt;1239 -->
<g id="edge33" class="edge">
<title>3356&#45;&gt;1239</title>
<path fill="none" stroke="#000000" d="M942.8638,-275.7563C969.5414,-254.5092 1020.113,-214.232 1051.0749,-189.5726"/>
<polygon fill="#000000" stroke="#000000" points="1053.6099,-192.0282 1059.2517,-183.0604 1049.2489,-186.5526 1053.6099,-192.0282"/>
</g>
<!-- 3356&#45;&gt;1273 -->
<g id="edge34" class="edge">
<title>3356&#45;&gt;1273</title>
<path fill="none" stroke="#000000" d="M929.3237,-272.0522C937.9755,-235.5027 957.7585,-151.9295 968.0983,-108.2494"/>
<polygon fill="#000000" stroke="#000000" points="971.554,-108.8445 970.4517,-98.3071 964.7423,-107.232 971.554,-108.8445"/>
</g>
<!-- 3356&#45;&gt;1299 -->
<g id="edge35" class="edge">
<title>3356&#45;&gt;1299</title>
<path fill="none" stroke="#000000" d="M951.7261,-282.8931C981.1624,-275.1406 1028.7514,-262.6074 1061.6015,-253.9558"/>
<polygon fill="#000000" stroke="#000000" points="1062.5079,-257.3365 1071.2868,-251.405 1060.7251,-250.5673 1062.5079,-257.3365"/>
</g>
<!-- 3356&#45;&gt;2497 -->
<g id="edge36" class="edge">
<title>3356&#45;&gt;2497</title>
<path fill="none" stroke="#000000" d="M951.4579,-282.141C997.4421,-268.595 1092.3694,-240.6315 1144.3819,-225.3098"/>
<polygon fill="#000000" stroke="#000000" points="1145.5816,-228.6052 1154.185,-222.4221 1143.6035,-221.8905 1145.5816,-228.6052"/>
</g>
<!-- 3356&#45;&gt;2914 -->
<g id="edge37" class="edge">
<title>3356&#45;&gt;2914</title>
<path fill="none" stroke="#000000" d="M928.9892,-272.0668C939.086,-225.7852 966.1787,-101.5972 978.3477,-45.8166"/>
<polygon fill="#000000" stroke="#000000" points="981.7941,-46.4394 980.5061,-35.9232 974.955,-44.9474 981.7941,-46.4394"/>
</g>
<!-- 3356&#45;&gt;3257 -->
<g id="edge38" class="edge">
<title>3356&#45;&gt;3257</title>
<path fill="none" stroke="#000000" d="M914.9285,-272.8123C898.8777,-245.8307 867.5645,-193.193 848.7473,-161.5612"/>
<polygon fill="#000000" stroke="#000000" points="851.6874,-159.6576 843.5668,-152.8528 845.6714,-163.2365 851.6874,-159.6576"/>
</g>
<!-- 3356&#45;&gt;3320 -->
<g id="edge39" class="edge">
<title>3356&#45;&gt;3320</title>
<path fill="none" stroke="#000000" d="M934.3466,-272.4594C957.0899,-229.5585 1015.8437,-118.7309 1042.7743,-67.9316"/>
<polygon fill="#000000" stroke="#000000" points="1045.975,-69.3666 1047.5666,-58.892 1039.7903,-66.0878 1045.975,-69.3666"/>
</g>
<!-- 3491 -->
<g id="node18" class="node">
<title>3491</title>
<ellipse fill="none" stroke="#000000" cx="752.5475" cy="-167.2434" rx="28.6953" ry="18"/>
<text text-anchor="middle" x="752.5475" y="-163.5434" font-family="Times,serif" font-size="14.00" fill="#000000">3491</text>
</g>
<!-- 3356&#45;&gt;3491 -->
<g id="edge40" class="edge">
<title>3356&#45;&gt;3491</title>
<path fill="none" stroke="#000000" d="M905.9723,-276.3104C875.3958,-254.5742 815.3707,-211.9034 780.1463,-186.8629"/>
<polygon fill="#000000" stroke="#000000" points="781.9367,-183.8414 771.7583,-180.9 777.8808,-189.5467 781.9367,-183.8414"/>
</g>
<!-- 3549 -->
<g id="node19" class="node">
<title>3549</title>
<ellipse fill="none" stroke="#000000" cx="896.1292" cy="-88.2779" rx="28.6953" ry="18"/>
<text text-anchor="middle" x="896.1292" y="-84.5779" font-family="Times,serif" font-size="14.00" fill="#000000">3549</text>
</g>
<!-- 3356&#45;&gt;3549 -->
<g id="edge41" class="edge">
<title>3356&#45;&gt;3549</title>
<path fill="none" stroke="#000000" d="M922.4756,-271.6574C917.402,-236.3437 906.2107,-158.4483 900.1756,-116.4423"/>
<polygon fill="#000000" stroke="#000000" points="903.6108,-115.7407 898.7242,-106.3401 896.682,-116.7363 903.6108,-115.7407"/>
</g>
<!-- 5511 -->
<g id="node21" class="node">
<title>5511</title>
<ellipse fill="none" stroke="#000000" cx="1043.2326" cy="-104.2985" rx="28.6953" ry="18"/>
<text text-anchor="middle" x="1043.2326" y="-100.5985" font-family="Times,serif" font-size="14.00" fill="#000000">5511</text>
</g>
<!-- 3356&#45;&gt;5511 -->
<g id="edge42" class="edge">
<title>3356&#45;&gt;5511</title>
<path fill="none" stroke="#000000" d="M935.7895,-273.1074C956.5592,-240.4751 1002.4691,-168.3439 1027.0127,-129.7825"/>
<polygon fill="#000000" stroke="#000000" points="1030.0628,-131.5086 1032.4796,-121.1931 1024.1575,-127.75 1030.0628,-131.5086"/>
</g>
<!-- 6453 -->
<g id="node22" class="node">
<title>6453</title>
<ellipse fill="none" stroke="#000000" cx="840.0773" cy="-39.4098" rx="28.6953" ry="18"/>
<text text-anchor="middle" x="840.0773" y="-35.7098" font-family="Times,serif" font-size="14.00" fill="#000000">6453</text>
</g>
<!-- 3356&#45;&gt;6453 -->
<g id="edge43" class="edge">
<title>3356&#45;&gt;6453</title>
<path fill="none" stroke="#000000" d="M919.1189,-272.2917C904.5196,-229.2775 866.9641,-118.6269 849.3971,-66.8689"/>
<polygon fill="#000000" stroke="#000000" points="852.6913,-65.6845 846.1629,-57.34 846.0627,-67.9344 852.6913,-65.6845"/>
</g>
<!-- 6461 -->
<g id="node23" class="node">
<title>6461</title>
<ellipse fill="none" stroke="#000000" cx="1116.1942" cy="-91.2138" rx="28.6953" ry="18"/>
<text text-anchor="middle" x="1116.1942" y="-87.5138" font-family="Times,serif" font-size="14.00" fill="#000000">6461</text>
</g>
<!-- 3356&#45;&gt;6461 -->
<g id="edge44" class="edge">
<title>3356&#45;&gt;6461</title>
<path fill="none" stroke="#000000" d="M940.0924,-274.3151C973.6522,-239.4214 1054.9404,-154.9022 1094.2214,-114.0599"/>
<polygon fill="#000000" stroke="#000000" points="1096.8595,-116.3661 1101.2688,-106.7324 1091.8142,-111.5137 1096.8595,-116.3661"/>
</g>
<!-- 6762 -->
<g id="node24" class="node">
<title>6762</title>
<ellipse fill="none" stroke="#000000" cx="1175.609" cy="-293.8413" rx="28.6953" ry="18"/>
<text text-anchor="middle" x="1175.609" y="-290.1413" font-family="Times,serif" font-size="14.00" fill="#000000">6762</text>
</g>
<!-- 3356&#45;&gt;6762 -->
<g id="edge45" class="edge">
<title>3356&#45;&gt;6762</title>
<path fill="none" stroke="#000000" d="M953.8343,-290.3576C998.8282,-291.0644 1085.9831,-292.4334 1136.6035,-293.2286"/>
<polygon fill="#000000" stroke="#000000" points="1136.7687,-296.7315 1146.8225,-293.3891 1136.8787,-289.7324 1136.7687,-296.7315"/>
</g>
<!-- 7018 -->
<g id="node27" class="node">
<title>7018</title>
<ellipse fill="none" stroke="#000000" cx="1131.5989" cy="-347.9258" rx="28.6953" ry="18"/>
<text text-anchor="middle" x="1131.5989" y="-344.2258" font-family="Times,serif" font-size="14.00" fill="#000000">7018</text>
</g>
<!-- 3356&#45;&gt;7018 -->
<g id="edge46" class="edge">
<title>3356&#45;&gt;7018</title>
<path fill="none" stroke="#000000" d="M951.2509,-297.2544C987.8465,-307.5365 1054.4631,-326.2534 1095.6849,-337.8353"/>
<polygon fill="#000000" stroke="#000000" points="1094.7584,-341.2104 1105.3324,-340.5459 1096.6519,-334.4714 1094.7584,-341.2104"/>
</g>
<!-- 12956 -->
<g id="node34" class="node">
<title>12956</title>
<ellipse fill="none" stroke="#000000" cx="757.2687" cy="-84.4598" rx="32.4942" ry="18"/>
<text text-anchor="middle" x="757.2687" y="-80.7598" font-family="Times,serif" font-size="14.00" fill="#000000">12956</text>
</g>
<!-- 3356&#45;&gt;12956 -->
<g id="edge47" class="edge">
<title>3356&#45;&gt;12956</title>
<path fill="none" stroke="#000000" d="M911.9282,-273.7851C882.6608,-237.9577 812.0609,-151.5332 777.2954,-108.9753"/>
<polygon fill="#000000" stroke="#000000" points="779.88,-106.6068 770.843,-101.0766 774.4589,-111.0353 779.88,-106.6068"/>
</g>
<!-- 4637 -->
<g id="node20" class="node">
<title>4637</title>
<ellipse fill="none" stroke="#000000" cx="71.704" cy="-488.6958" rx="28.6953" ry="18"/>
<text text-anchor="middle" x="71.704" y="-484.9958" font-family="Times,serif" font-size="14.00" fill="#000000">4637</text>
</g>
<!-- 7922 -->
<g id="node32" class="node">
<title>7922</title>
<ellipse fill="none" stroke="#000000" cx="526.6464" cy="-1292.4516" rx="28.6953" ry="18"/>
<text text-anchor="middle" x="526.6464" y="-1288.7516" font-family="Times,serif" font-size="14.00" fill="#000000">7922</text>
</g>
<!-- 7015&#45;&gt;7922 -->
<g id="edge48" class="edge">
<title>7015&#45;&gt;7922</title>
<path fill="none" stroke="#000000" d="M589.9681,-1097.524C577.9022,-1134.6676 549.9396,-1220.7466 535.5518,-1265.0375"/>
<polygon fill="#000000" stroke="#000000" points="532.2114,-1263.992 532.4506,-1274.5841 538.869,-1266.1547 532.2114,-1263.992"/>
</g>
<!-- 7303 -->
<g id="node29" class="node">
<title>7303</title>
<ellipse fill="none" stroke="#000000" cx="125.3931" cy="-952.5585" rx="28.6953" ry="18"/>
<text text-anchor="middle" x="125.3931" y="-948.8585" font-family="Times,serif" font-size="14.00" fill="#000000">7303</text>
</g>
<!-- 7474 -->
<g id="node30" class="node">
<title>7474</title>
<ellipse fill="none" stroke="#000000" cx="45.5318" cy="-536.2214" rx="28.6953" ry="18"/>
<text text-anchor="middle" x="45.5318" y="-532.5214" font-family="Times,serif" font-size="14.00" fill="#000000">7474</text>
</g>
<!-- 7632 -->
<g id="node31" class="node">
<title>7632</title>
<ellipse fill="none" stroke="#000000" cx="1022.4901" cy="-1399.0179" rx="28.6953" ry="18"/>
<text text-anchor="middle" x="1022.4901" y="-1395.3179" font-family="Times,serif" font-size="14.00" fill="#000000">7632</text>
</g>
<!-- 18103 -->
<g id="node35" class="node">
<title>18103</title>
<ellipse fill="none" stroke="#000000" cx="998.5209" cy="-1456.0968" rx="32.4942" ry="18"/>
<text text-anchor="middle" x="998.5209" y="-1452.3968" font-family="Times,serif" font-size="14.00" fill="#000000">18103</text>
</g>
<!-- 18351 -->
<g id="node36" class="node">
<title>18351</title>
<ellipse fill="none" stroke="#000000" cx="1139.8666" cy="-1110.8381" rx="32.4942" ry="18"/>
<text text-anchor="middle" x="1139.8666" y="-1107.1381" font-family="Times,serif" font-size="14.00" fill="#000000">18351</text>
</g>
<!-- 18365&#45;&gt;7632 -->
<g id="edge49" class="edge">
<title>18365&#45;&gt;7632</title>
<path fill="none" stroke="#000000" d="M920.0399,-1215.6191C939.8271,-1251.0406 984.7506,-1331.4595 1007.9785,-1373.0404"/>
<polygon fill="#000000" stroke="#000000" points="1005.057,-1374.9873 1012.9895,-1382.0106 1011.1681,-1371.5735 1005.057,-1374.9873"/>
</g>
<!-- 18365&#45;&gt;18103 -->
<g id="edge50" class="edge">
<title>18365&#45;&gt;18103</title>
<path fill="none" stroke="#000000" d="M916.3434,-1215.8744C931.4565,-1260.053 970.8797,-1375.2956 989.0714,-1428.4739"/>
<polygon fill="#000000" stroke="#000000" points="985.8648,-1429.9138 992.4132,-1438.2426 992.488,-1427.6481 985.8648,-1429.9138"/>
</g>
<!-- 23947 -->
<g id="node41" class="node">
<title>23947</title>
<ellipse fill="none" stroke="#000000" cx="921.8791" cy="-1452.2714" rx="32.4942" ry="18"/>
<text text-anchor="middle" x="921.8791" y="-1448.5714" font-family="Times,serif" font-size="14.00" fill="#000000">23947</text>
</g>
<!-- 18365&#45;&gt;23947 -->
<g id="edge51" class="edge">
<title>18365&#45;&gt;23947</title>
<path fill="none" stroke="#000000" d="M911.1125,-1216.4205C913.1108,-1260.1952 918.1831,-1371.3074 920.5829,-1423.8769"/>
<polygon fill="#000000" stroke="#000000" points="917.0999,-1424.3308 921.0524,-1434.1608 924.0926,-1424.0116 917.0999,-1424.3308"/>
</g>
<!-- 38511 -->
<g id="node50" class="node">
<title>38511</title>
<ellipse fill="none" stroke="#000000" cx="1093.1498" cy="-1391.9873" rx="32.4942" ry="18"/>
<text text-anchor="middle" x="1093.1498" y="-1388.2873" font-family="Times,serif" font-size="14.00" fill="#000000">38511</text>
</g>
<!-- 18365&#45;&gt;38511 -->
<g id="edge52" class="edge">
<title>18365&#45;&gt;38511</title>
<path fill="none" stroke="#000000" d="M925.5551,-1214.3378C957.907,-1248.6306 1033.4376,-1328.6926 1071.0517,-1368.5634"/>
<polygon fill="#000000" stroke="#000000" points="1068.6368,-1371.104 1078.0449,-1375.9761 1073.7286,-1366.3004 1068.6368,-1371.104"/>
</g>
<!-- 63859 -->
<g id="node59" class="node">
<title>63859</title>
<ellipse fill="none" stroke="#000000" cx="1124.3922" cy="-1327.0375" rx="32.4942" ry="18"/>
<text text-anchor="middle" x="1124.3922" y="-1323.3375" font-family="Times,serif" font-size="14.00" fill="#000000">63859</text>
</g>
<!-- 18365&#45;&gt;63859 -->
<g id="edge53" class="edge">
<title>18365&#45;&gt;63859</title>
<path fill="none" stroke="#000000" d="M932.3857,-1211.4526C970.6904,-1234.5115 1049.4893,-1281.9471 1093.2949,-1308.3174"/>
<polygon fill="#000000" stroke="#000000" points="1091.7116,-1311.4495 1102.0842,-1313.6084 1095.3219,-1305.4523 1091.7116,-1311.4495"/>
</g>
<!-- 20207 -->
<g id="node38" class="node">
<title>20207</title>
<ellipse fill="none" stroke="#000000" cx="144.4911" cy="-1027.5098" rx="32.4942" ry="18"/>
<text text-anchor="middle" x="144.4911" y="-1023.8098" font-family="Times,serif" font-size="14.00" fill="#000000">20207</text>
</g>
<!-- 23520 -->
<g id="node40" class="node">
<title>23520</title>
<ellipse fill="none" stroke="#000000" cx="361.9825" cy="-1383.7925" rx="32.4942" ry="18"/>
<text text-anchor="middle" x="361.9825" y="-1380.0925" font-family="Times,serif" font-size="14.00" fill="#000000">23520</text>
</g>
<!-- 27787&#45;&gt;7303 -->
<g id="edge54" class="edge">
<title>27787&#45;&gt;7303</title>
<path fill="none" stroke="#000000" d="M326.4387,-921.0091C284.142,-927.6466 208.8612,-939.4602 163.391,-946.5957"/>
<polygon fill="#000000" stroke="#000000" points="162.6742,-943.1652 153.3377,-948.1733 163.7594,-950.0806 162.6742,-943.1652"/>
</g>
<!-- 27787&#45;&gt;20207 -->
<g id="edge55" class="edge">
<title>27787&#45;&gt;20207</title>
<path fill="none" stroke="#000000" d="M333.7271,-928.6555C295.4621,-948.6446 220.6443,-987.7284 177.4305,-1010.3027"/>
<polygon fill="#000000" stroke="#000000" points="175.6984,-1007.2587 168.4555,-1014.9911 178.9396,-1013.4631 175.6984,-1007.2587"/>
</g>
<!-- 28022 -->
<g id="node43" class="node">
<title>28022</title>
<ellipse fill="none" stroke="#000000" cx="236.62" cy="-1283.3389" rx="32.4942" ry="18"/>
<text text-anchor="middle" x="236.62" y="-1279.6389" font-family="Times,serif" font-size="14.00" fill="#000000">28022</text>
</g>
<!-- 32787&#45;&gt;703 -->
<g id="edge56" class="edge">
<title>32787&#45;&gt;703</title>
<path fill="none" stroke="#000000" d="M266.7719,-620.1901C243.4817,-585.926 191.1111,-508.8793 164.0228,-469.0275"/>
<polygon fill="#000000" stroke="#000000" points="166.8503,-466.9612 158.3341,-460.6584 161.0611,-470.8963 166.8503,-466.9612"/>
</g>
<!-- 32787&#45;&gt;2764 -->
<g id="edge57" class="edge">
<title>32787&#45;&gt;2764</title>
<path fill="none" stroke="#000000" d="M246.9312,-632.1102C202.0639,-624.6619 119.8596,-611.0155 71.669,-603.0156"/>
<polygon fill="#000000" stroke="#000000" points="72.0768,-599.5354 61.6386,-601.3505 70.9303,-606.4409 72.0768,-599.5354"/>
</g>
<!-- 32787&#45;&gt;2828 -->
<g id="edge58" class="edge">
<title>32787&#45;&gt;2828</title>
<path fill="none" stroke="#000000" d="M246.2293,-640.6602C200.3622,-645.3913 116.3261,-654.0594 67.0617,-659.1409"/>
<polygon fill="#000000" stroke="#000000" points="66.3958,-655.6909 56.8077,-660.1986 67.1141,-662.654 66.3958,-655.6909"/>
</g>
<!-- 32787&#45;&gt;4637 -->
<g id="edge59" class="edge">
<title>32787&#45;&gt;4637</title>
<path fill="none" stroke="#000000" d="M258.2304,-622.8158C220.8766,-595.9569 140.9837,-538.5106 98.9092,-508.2574"/>
<polygon fill="#000000" stroke="#000000" points="100.9404,-505.407 90.778,-502.4108 96.8538,-511.0904 100.9404,-505.407"/>
</g>
<!-- 32787&#45;&gt;7474 -->
<g id="edge60" class="edge">
<title>32787&#45;&gt;7474</title>
<path fill="none" stroke="#000000" d="M252.6146,-626.1312C210.1565,-607.6971 125.6291,-570.9975 78.7619,-550.649"/>
<polygon fill="#000000" stroke="#000000" points="79.928,-547.3397 69.3613,-546.5675 77.1401,-553.7606 79.928,-547.3397"/>
</g>
<!-- 34779 -->
<g id="node46" class="node">
<title>34779</title>
<ellipse fill="none" stroke="#000000" cx="168.4317" cy="-803.1681" rx="32.4942" ry="18"/>
<text text-anchor="middle" x="168.4317" y="-799.4681" font-family="Times,serif" font-size="14.00" fill="#000000">34779</text>
</g>
<!-- 37254 -->
<g id="node47" class="node">
<title>37254</title>
<ellipse fill="none" stroke="#000000" cx="641.9217" cy="-1388.3031" rx="32.4942" ry="18"/>
<text text-anchor="middle" x="641.9217" y="-1384.6031" font-family="Times,serif" font-size="14.00" fill="#000000">37254</text>
</g>
<!-- 37642&#45;&gt;37254 -->
<g id="edge61" class="edge">
<title>37642&#45;&gt;37254</title>
<path fill="none" stroke="#000000" d="M684.9097,-1171.9602C676.8346,-1212.599 657.1428,-1311.7008 647.4694,-1360.3835"/>
<polygon fill="#000000" stroke="#000000" points="644.0265,-1359.752 645.5104,-1370.2424 650.8923,-1361.1164 644.0265,-1359.752"/>
</g>
<!-- 37662 -->
<g id="node49" class="node">
<title>37662</title>
<ellipse fill="none" stroke="#000000" cx="720.2493" cy="-1386.3581" rx="32.4942" ry="18"/>
<text text-anchor="middle" x="720.2493" y="-1382.6581" font-family="Times,serif" font-size="14.00" fill="#000000">37662</text>
</g>
<!-- 37642&#45;&gt;37662 -->
<g id="edge62" class="edge">
<title>37642&#45;&gt;37662</title>
<path fill="none" stroke="#000000" d="M690.9786,-1172.1967C696.4987,-1212.5853 709.788,-1309.817 716.3913,-1358.1303"/>
<polygon fill="#000000" stroke="#000000" points="712.9465,-1358.7731 717.7685,-1368.207 719.882,-1357.8251 712.9465,-1358.7731"/>
</g>
<!-- 49743 -->
<g id="node52" class="node">
<title>49743</title>
<ellipse fill="none" stroke="#000000" cx="267.6429" cy="-1118.0944" rx="32.4942" ry="18"/>
<text text-anchor="middle" x="267.6429" y="-1114.3944" font-family="Times,serif" font-size="14.00" fill="#000000">49743</text>
</g>
<!-- 43888&#45;&gt;49743 -->
<g id="edge63" class="edge">
<title>43888&#45;&gt;49743</title>
<path fill="none" stroke="#000000" d="M436.463,-998.8954C402.6343,-1022.7808 334.511,-1070.8807 295.9448,-1098.1112"/>
<polygon fill="#000000" stroke="#000000" points="293.8795,-1095.2849 287.7293,-1103.9119 297.9171,-1101.0032 293.8795,-1095.2849"/>
</g>
<!-- 52468 -->
<g id="node53" class="node">
<title>52468</title>
<ellipse fill="none" stroke="#000000" cx="275.2558" cy="-1338.6852" rx="32.4942" ry="18"/>
<text text-anchor="middle" x="275.2558" y="-1334.9852" font-family="Times,serif" font-size="14.00" fill="#000000">52468</text>
</g>
<!-- 56651&#45;&gt;34779 -->
<g id="edge64" class="edge">
<title>56651&#45;&gt;34779</title>
<path fill="none" stroke="#000000" d="M364.9729,-799.2023C324.5988,-800.017 256.0001,-801.4012 211.4608,-802.2999"/>
<polygon fill="#000000" stroke="#000000" points="211.167,-798.805 201.2396,-802.5061 211.3082,-805.8036 211.167,-798.805"/>
</g>
<!-- 58682 -->
<g id="node55" class="node">
<title>58682</title>
<ellipse fill="none" stroke="#000000" cx="1255.781" cy="-991.0756" rx="32.4942" ry="18"/>
<text text-anchor="middle" x="1255.781" y="-987.3756" font-family="Times,serif" font-size="14.00" fill="#000000">58682</text>
</g>
<!-- 58689 -->
<g id="node56" class="node">
<title>58689</title>
<ellipse fill="none" stroke="#000000" cx="1272.8441" cy="-910.9748" rx="32.4942" ry="18"/>
<text text-anchor="middle" x="1272.8441" y="-907.2748" font-family="Times,serif" font-size="14.00" fill="#000000">58689</text>
</g>
<!-- 59203 -->
<g id="node57" class="node">
<title>59203</title>
<ellipse fill="none" stroke="#000000" cx="1233.8552" cy="-753.4755" rx="32.4942" ry="18"/>
<text text-anchor="middle" x="1233.8552" y="-749.7755" font-family="Times,serif" font-size="14.00" fill="#000000">59203</text>
</g>
<!-- 131758&#45;&gt;18351 -->
<g id="edge65" class="edge">
<title>131758&#45;&gt;18351</title>
<path fill="none" stroke="#000000" d="M959.7175,-1000.4781C996.5987,-1023.0717 1068.3532,-1067.0288 1109.2965,-1092.1107"/>
<polygon fill="#000000" stroke="#000000" points="1107.6735,-1095.221 1118.029,-1097.4603 1111.3302,-1089.252 1107.6735,-1095.221"/>
</g>
<!-- 133957&#45;&gt;59203 -->
<g id="edge66" class="edge">
<title>133957&#45;&gt;59203</title>
<path fill="none" stroke="#000000" d="M1015.8954,-774.2197C1062.3299,-769.8003 1142.4297,-762.1769 1191.5195,-757.5048"/>
<polygon fill="#000000" stroke="#000000" points="1191.8774,-760.9867 1201.5008,-756.5549 1191.2141,-754.0181 1191.8774,-760.9867"/>
</g>
<!-- 135437&#45;&gt;58682 -->
<g id="edge67" class="edge">
<title>135437&#45;&gt;58682</title>
<path fill="none" stroke="#000000" d="M1059.0843,-906.6449C1099.9668,-924.1934 1175.9632,-956.8143 1220.5763,-975.9642"/>
<polygon fill="#000000" stroke="#000000" points="1219.2938,-979.2224 1229.8636,-979.9507 1222.0549,-972.79 1219.2938,-979.2224"/>
</g>
<!-- 135437&#45;&gt;58689 -->
<g id="edge68" class="edge">
<title>135437&#45;&gt;58689</title>
<path fill="none" stroke="#000000" d="M1067.7989,-897.1076C1111.4264,-900.0581 1184.0899,-904.9724 1230.1754,-908.0891"/>
<polygon fill="#000000" stroke="#000000" points="1230.2214,-911.6001 1240.4348,-908.783 1230.6938,-904.6161 1230.2214,-911.6001"/>
</g>
<!-- 204008&#45;&gt;3209 -->
<g id="edge69" class="edge">
<title>204008&#45;&gt;3209</title>
<path fill="none" stroke="#000000" d="M500.2458,-548.0744C476.7504,-514.7149 425.145,-441.4439 397.8938,-402.7518"/>
<polygon fill="#000000" stroke="#000000" points="400.4561,-400.3116 391.8363,-394.1512 394.7331,-404.3424 400.4561,-400.3116"/>
</g>
<!-- 265636&#45;&gt;23520 -->
<g id="edge70" class="edge">
<title>265636&#45;&gt;23520</title>
<path fill="none" stroke="#000000" d="M433.3534,-1156.4698C419.9929,-1199.0243 386.447,-1305.871 370.5692,-1356.4432"/>
<polygon fill="#000000" stroke="#000000" points="367.2078,-1355.4655 367.5515,-1366.0547 373.8863,-1357.5623 367.2078,-1355.4655"/>
</g>
<!-- 265636&#45;&gt;28022 -->
<g id="edge71" class="edge">
<title>265636&#45;&gt;28022</title>
<path fill="none" stroke="#000000" d="M418.1202,-1153.3898C381.5343,-1179.5843 305.8684,-1233.759 264.7326,-1263.2111"/>
<polygon fill="#000000" stroke="#000000" points="262.5986,-1260.4343 256.5053,-1269.1016 266.6737,-1266.1259 262.5986,-1260.4343"/>
</g>
<!-- 265636&#45;&gt;52468 -->
<g id="edge72" class="edge">
<title>265636&#45;&gt;52468</title>
<path fill="none" stroke="#000000" d="M425.3375,-1155.157C396.4266,-1190.5108 329.01,-1272.9516 295.2557,-1314.2281"/>
<polygon fill="#000000" stroke="#000000" points="292.4033,-1312.1873 288.7823,-1322.1442 297.8222,-1316.6187 292.4033,-1312.1873"/>
</g>
</g>
</svg>
