<?xml version="1.0" encoding="UTF-8" standalone="no"?>
<!DOCTYPE svg PUBLIC "-//W3C//DTD SVG 1.1//EN"
 "http://www.w3.org/Graphics/SVG/1.1/DTD/svg11.dtd">
<!-- Generated by graphviz version 2.40.1 (20161225.0304)
 -->
<!-- Title: %3 Pages: 1 -->
<svg width="455pt" height="440pt"
 viewBox="0.00 0.00 454.72 439.57" xmlns="http://www.w3.org/2000/svg" xmlns:xlink="http://www.w3.org/1999/xlink">
<g id="graph0" class="graph" transform="scale(1 1) rotate(0) translate(4 435.5657)">
<title>%3</title>
<polygon fill="#ffffff" stroke="transparent" points="-4,4 -4,-435.5657 450.7179,-435.5657 450.7179,4 -4,4"/>
<!-- 3 -->
<g id="node1" class="node">
<title>3</title>
<ellipse fill="none" stroke="#000000" cx="221.4352" cy="-224.0861" rx="27" ry="18"/>
<text text-anchor="middle" x="221.4352" y="-220.3861" font-family="Times,serif" font-size="14.00" fill="#000000">3</text>
</g>
<!-- 174 -->
<g id="node2" class="node">
<title>174</title>
<ellipse fill="none" stroke="#000000" cx="245.9911" cy="-156.8618" rx="27" ry="18"/>
<text text-anchor="middle" x="245.9911" y="-153.1618" font-family="Times,serif" font-size="14.00" fill="#000000">174</text>
</g>
<!-- 3&#45;&gt;174 -->
<g id="edge1" class="edge">
<title>3&#45;&gt;174</title>
<path fill="none" stroke="#000000" d="M227.887,-206.4237C230.3768,-199.6075 233.2828,-191.652 236.0285,-184.1354"/>
<polygon fill="#000000" stroke="#000000" points="239.3535,-185.2335 239.4972,-174.6396 232.7785,-182.8317 239.3535,-185.2335"/>
</g>
<!-- 293 -->
<g id="node4" class="node">
<title>293</title>
<ellipse fill="none" stroke="#000000" cx="188.8435" cy="-283.0879" rx="27" ry="18"/>
<text text-anchor="middle" x="188.8435" y="-279.3879" font-family="Times,serif" font-size="14.00" fill="#000000">293</text>
</g>
<!-- 3&#45;&gt;293 -->
<g id="edge2" class="edge">
<title>3&#45;&gt;293</title>
<path fill="none" stroke="#000000" d="M212.0083,-241.1518C209.2624,-246.123 206.1979,-251.6707 203.2201,-257.0615"/>
<polygon fill="#000000" stroke="#000000" points="200.1337,-255.4104 198.3621,-265.8561 206.261,-258.7951 200.1337,-255.4104"/>
</g>
<!-- 3356 -->
<g id="node17" class="node">
<title>3356</title>
<ellipse fill="none" stroke="#000000" cx="253.5018" cy="-113.8515" rx="28.6953" ry="18"/>
<text text-anchor="middle" x="253.5018" y="-110.1515" font-family="Times,serif" font-size="14.00" fill="#000000">3356</text>
</g>
<!-- 3&#45;&gt;3356 -->
<g id="edge3" class="edge">
<title>3&#45;&gt;3356</title>
<path fill="none" stroke="#000000" d="M226.5873,-206.375C231.6761,-188.8813 239.5338,-161.8688 245.4477,-141.5387"/>
<polygon fill="#000000" stroke="#000000" points="248.8234,-142.4645 248.256,-131.8848 242.102,-140.5092 248.8234,-142.4645"/>
</g>
<!-- 6939 -->
<g id="node25" class="node">
<title>6939</title>
<ellipse fill="none" stroke="#000000" cx="208.6931" cy="-300.0932" rx="28.6953" ry="18"/>
<text text-anchor="middle" x="208.6931" y="-296.3932" font-family="Times,serif" font-size="14.00" fill="#000000">6939</text>
</g>
<!-- 3&#45;&gt;6939 -->
<g id="edge4" class="edge">
<title>3&#45;&gt;6939</title>
<path fill="none" stroke="#000000" d="M218.4155,-242.0987C216.9189,-251.026 215.0774,-262.0107 213.401,-272.0102"/>
<polygon fill="#000000" stroke="#000000" points="209.9369,-271.5054 211.7353,-281.9465 216.8406,-272.6628 209.9369,-271.5054"/>
</g>
<!-- 7015 -->
<g id="node26" class="node">
<title>7015</title>
<ellipse fill="none" stroke="#000000" cx="301.3132" cy="-195.668" rx="28.6953" ry="18"/>
<text text-anchor="middle" x="301.3132" y="-191.968" font-family="Times,serif" font-size="14.00" fill="#000000">7015</text>
</g>
<!-- 3&#45;&gt;7015 -->
<g id="edge5" class="edge">
<title>3&#45;&gt;7015</title>
<path fill="none" stroke="#000000" d="M245.4012,-215.5597C252.0991,-213.1769 259.5145,-210.5387 266.6961,-207.9837"/>
<polygon fill="#000000" stroke="#000000" points="268.0067,-211.2324 276.255,-204.5829 265.6603,-204.6373 268.0067,-211.2324"/>
</g>
<!-- 7029 -->
<g id="node28" class="node">
<title>7029</title>
<ellipse fill="none" stroke="#000000" cx="220.7503" cy="-263.9497" rx="28.6953" ry="18"/>
<text text-anchor="middle" x="220.7503" y="-260.2497" font-family="Times,serif" font-size="14.00" fill="#000000">7029</text>
</g>
<!-- 3&#45;&gt;7029 -->
<g id="edge6" class="edge">
<title>3&#45;&gt;7029</title>
<path fill="none" stroke="#000000" d="M221.1248,-242.1517C221.1224,-242.2959 221.1199,-242.4402 221.1174,-242.5847"/>
<polygon fill="#000000" stroke="#000000" points="217.7378,-235.5634 221.0652,-245.6222 224.7368,-235.6839 217.7378,-235.5634"/>
</g>
<!-- 10578 -->
<g id="node33" class="node">
<title>10578</title>
<ellipse fill="none" stroke="#000000" cx="183.8366" cy="-168.2062" rx="32.4942" ry="18"/>
<text text-anchor="middle" x="183.8366" y="-164.5062" font-family="Times,serif" font-size="14.00" fill="#000000">10578</text>
</g>
<!-- 3&#45;&gt;10578 -->
<g id="edge7" class="edge">
<title>3&#45;&gt;10578</title>
<path fill="none" stroke="#000000" d="M210.3577,-207.6225C207.3793,-203.1959 204.0878,-198.304 200.8663,-193.5162"/>
<polygon fill="#000000" stroke="#000000" points="203.7122,-191.476 195.2258,-185.1331 197.9045,-195.3838 203.7122,-191.476"/>
</g>
<!-- 18365 -->
<g id="node37" class="node">
<title>18365</title>
<ellipse fill="none" stroke="#000000" cx="254.0449" cy="-327.9283" rx="32.4942" ry="18"/>
<text text-anchor="middle" x="254.0449" y="-324.2283" font-family="Times,serif" font-size="14.00" fill="#000000">18365</text>
</g>
<!-- 3&#45;&gt;18365 -->
<g id="edge8" class="edge">
<title>3&#45;&gt;18365</title>
<path fill="none" stroke="#000000" d="M227.1154,-242.174C232.1655,-258.2555 239.6241,-282.0068 245.4121,-300.438"/>
<polygon fill="#000000" stroke="#000000" points="242.0944,-301.5557 248.4298,-310.0477 248.7729,-299.4584 242.0944,-301.5557"/>
</g>
<!-- 23248 -->
<g id="node39" class="node">
<title>23248</title>
<ellipse fill="none" stroke="#000000" cx="155.8925" cy="-222.7215" rx="32.4942" ry="18"/>
<text text-anchor="middle" x="155.8925" y="-219.0215" font-family="Times,serif" font-size="14.00" fill="#000000">23248</text>
</g>
<!-- 3&#45;&gt;23248 -->
<g id="edge9" class="edge">
<title>3&#45;&gt;23248</title>
<path fill="none" stroke="#000000" d="M194.3981,-223.5232C194.2746,-223.5206 194.1511,-223.518 194.0275,-223.5155"/>
<polygon fill="#000000" stroke="#000000" points="198.4886,-220.1078 188.4178,-223.3987 198.3427,-227.1062 198.4886,-220.1078"/>
</g>
<!-- 27787 -->
<g id="node42" class="node">
<title>27787</title>
<ellipse fill="none" stroke="#000000" cx="141.6789" cy="-281.689" rx="32.4942" ry="18"/>
<text text-anchor="middle" x="141.6789" y="-277.989" font-family="Times,serif" font-size="14.00" fill="#000000">27787</text>
</g>
<!-- 3&#45;&gt;27787 -->
<g id="edge10" class="edge">
<title>3&#45;&gt;27787</title>
<path fill="none" stroke="#000000" d="M202.937,-237.4461C193.0361,-244.5969 180.6389,-253.5507 169.5917,-261.5294"/>
<polygon fill="#000000" stroke="#000000" points="167.5283,-258.7022 161.4708,-267.3946 171.6268,-264.377 167.5283,-258.7022"/>
</g>
<!-- 32787 -->
<g id="node44" class="node">
<title>32787</title>
<ellipse fill="none" stroke="#000000" cx="114.4926" cy="-196.6052" rx="32.4942" ry="18"/>
<text text-anchor="middle" x="114.4926" y="-192.9052" font-family="Times,serif" font-size="14.00" fill="#000000">32787</text>
</g>
<!-- 3&#45;&gt;32787 -->
<g id="edge11" class="edge">
<title>3&#45;&gt;32787</title>
<path fill="none" stroke="#000000" d="M196.0913,-217.5735C183.5662,-214.3549 168.1628,-210.3967 154.1256,-206.7896"/>
<polygon fill="#000000" stroke="#000000" points="154.763,-203.3398 144.2066,-204.2408 153.0208,-210.1195 154.763,-203.3398"/>
</g>
<!-- 33480 -->
<g id="node45" class="node">
<title>33480</title>
<ellipse fill="none" stroke="#000000" cx="265.5148" cy="-194.3139" rx="32.4942" ry="18"/>
<text text-anchor="middle" x="265.5148" y="-190.6139" font-family="Times,serif" font-size="14.00" fill="#000000">33480</text>
</g>
<!-- 3&#45;&gt;33480 -->
<g id="edge12" class="edge">
<title>3&#45;&gt;33480</title>
<path fill="none" stroke="#000000" d="M240.6409,-211.1142C240.7279,-211.0554 240.815,-210.9966 240.9021,-210.9378"/>
<polygon fill="#000000" stroke="#000000" points="238.5124,-216.7755 244.8403,-208.2779 234.5944,-210.9746 238.5124,-216.7755"/>
</g>
<!-- 37642 -->
<g id="node48" class="node">
<title>37642</title>
<ellipse fill="none" stroke="#000000" cx="318.7773" cy="-239.6196" rx="32.4942" ry="18"/>
<text text-anchor="middle" x="318.7773" y="-235.9196" font-family="Times,serif" font-size="14.00" fill="#000000">37642</text>
</g>
<!-- 3&#45;&gt;37642 -->
<g id="edge13" class="edge">
<title>3&#45;&gt;37642</title>
<path fill="none" stroke="#000000" d="M247.7774,-228.2897C256.8038,-229.7301 267.1384,-231.3793 277.077,-232.9652"/>
<polygon fill="#000000" stroke="#000000" points="276.7927,-236.4641 287.2194,-234.5837 277.8959,-229.5515 276.7927,-236.4641"/>
</g>
<!-- 43888 -->
<g id="node51" class="node">
<title>43888</title>
<ellipse fill="none" stroke="#000000" cx="279.3862" cy="-291.0014" rx="32.4942" ry="18"/>
<text text-anchor="middle" x="279.3862" y="-287.3014" font-family="Times,serif" font-size="14.00" fill="#000000">43888</text>
</g>
<!-- 3&#45;&gt;43888 -->
<g id="edge14" class="edge">
<title>3&#45;&gt;43888</title>
<path fill="none" stroke="#000000" d="M235.1688,-239.9441C242.0365,-247.8742 250.5013,-257.6483 258.18,-266.5148"/>
<polygon fill="#000000" stroke="#000000" points="255.7502,-269.0555 264.9425,-274.3234 261.0417,-264.4728 255.7502,-269.0555"/>
</g>
<!-- 56651 -->
<g id="node54" class="node">
<title>56651</title>
<ellipse fill="none" stroke="#000000" cx="135.8025" cy="-251.9735" rx="32.4942" ry="18"/>
<text text-anchor="middle" x="135.8025" y="-248.2735" font-family="Times,serif" font-size="14.00" fill="#000000">56651</text>
</g>
<!-- 3&#45;&gt;56651 -->
<g id="edge15" class="edge">
<title>3&#45;&gt;56651</title>
<path fill="none" stroke="#000000" d="M197.1254,-232.0029C189.8134,-234.3841 181.6098,-237.0557 173.6396,-239.6514"/>
<polygon fill="#000000" stroke="#000000" points="172.5336,-236.3305 164.1089,-242.7551 174.7012,-242.9865 172.5336,-236.3305"/>
</g>
<!-- 59362 -->
<g id="node58" class="node">
<title>59362</title>
<ellipse fill="none" stroke="#000000" cx="167.7688" cy="-262.5109" rx="32.4942" ry="18"/>
<text text-anchor="middle" x="167.7688" y="-258.8109" font-family="Times,serif" font-size="14.00" fill="#000000">59362</text>
</g>
<!-- 3&#45;&gt;59362 -->
<g id="edge16" class="edge">
<title>3&#45;&gt;59362</title>
<path fill="none" stroke="#000000" d="M202.9663,-237.3097C200.8439,-238.8294 198.6439,-240.4045 196.4273,-241.9916"/>
<polygon fill="#000000" stroke="#000000" points="194.0172,-239.4126 187.924,-248.0799 198.0923,-245.1041 194.0172,-239.4126"/>
</g>
<!-- 131758 -->
<g id="node60" class="node">
<title>131758</title>
<ellipse fill="none" stroke="#000000" cx="144.7523" cy="-190.7612" rx="37.0935" ry="18"/>
<text text-anchor="middle" x="144.7523" y="-187.0612" font-family="Times,serif" font-size="14.00" fill="#000000">131758</text>
</g>
<!-- 3&#45;&gt;131758 -->
<g id="edge17" class="edge">
<title>3&#45;&gt;131758</title>
<path fill="none" stroke="#000000" d="M198.4278,-214.0875C193.2276,-211.8276 187.5769,-209.3719 181.9587,-206.9303"/>
<polygon fill="#000000" stroke="#000000" points="183.186,-203.6475 172.6196,-202.8718 180.396,-210.0675 183.186,-203.6475"/>
</g>
<!-- 133295 -->
<g id="node61" class="node">
<title>133295</title>
<ellipse fill="none" stroke="#000000" cx="182.0904" cy="-239.4601" rx="37.0935" ry="18"/>
<text text-anchor="middle" x="182.0904" y="-235.7601" font-family="Times,serif" font-size="14.00" fill="#000000">133295</text>
</g>
<!-- 3&#45;&gt;133295 -->
<g id="edge18" class="edge">
<title>3&#45;&gt;133295</title>
<path fill="none" stroke="#000000" d="M198.0934,-233.2069C198.0272,-233.2328 197.9611,-233.2586 197.895,-233.2844"/>
<polygon fill="#000000" stroke="#000000" points="205.7366,-226.4592 197.697,-233.3618 208.2864,-232.9794 205.7366,-226.4592"/>
</g>
<!-- 133296 -->
<g id="node62" class="node">
<title>133296</title>
<ellipse fill="none" stroke="#000000" cx="232.7718" cy="-296.3575" rx="37.0935" ry="18"/>
<text text-anchor="middle" x="232.7718" y="-292.6575" font-family="Times,serif" font-size="14.00" fill="#000000">133296</text>
</g>
<!-- 3&#45;&gt;133296 -->
<g id="edge19" class="edge">
<title>3&#45;&gt;133296</title>
<path fill="none" stroke="#000000" d="M224.2959,-242.3232C225.527,-250.1716 226.9945,-259.5269 228.3596,-268.2298"/>
<polygon fill="#000000" stroke="#000000" points="224.9438,-269.0398 229.9513,-278.3766 231.8592,-267.955 224.9438,-269.0398"/>
</g>
<!-- 133957 -->
<g id="node63" class="node">
<title>133957</title>
<ellipse fill="none" stroke="#000000" cx="151.0627" cy="-171.1533" rx="37.0935" ry="18"/>
<text text-anchor="middle" x="151.0627" y="-167.4533" font-family="Times,serif" font-size="14.00" fill="#000000">133957</text>
</g>
<!-- 3&#45;&gt;133957 -->
<g id="edge20" class="edge">
<title>3&#45;&gt;133957</title>
<path fill="none" stroke="#000000" d="M203.3125,-210.4546C196.0585,-204.9983 187.5278,-198.5816 179.4867,-192.5333"/>
<polygon fill="#000000" stroke="#000000" points="181.4539,-189.6334 171.3583,-186.4193 177.2461,-195.2275 181.4539,-189.6334"/>
</g>
<!-- 135437 -->
<g id="node64" class="node">
<title>135437</title>
<ellipse fill="none" stroke="#000000" cx="308.6107" cy="-266.1566" rx="37.0935" ry="18"/>
<text text-anchor="middle" x="308.6107" y="-262.4566" font-family="Times,serif" font-size="14.00" fill="#000000">135437</text>
</g>
<!-- 3&#45;&gt;135437 -->
<g id="edge21" class="edge">
<title>3&#45;&gt;135437</title>
<path fill="none" stroke="#000000" d="M243.4333,-234.7022C252.4698,-239.0632 263.1627,-244.2235 273.2462,-249.0898"/>
<polygon fill="#000000" stroke="#000000" points="271.7431,-252.2506 282.2704,-253.4449 274.7855,-245.9464 271.7431,-252.2506"/>
</g>
<!-- 137385 -->
<g id="node65" class="node">
<title>137385</title>
<ellipse fill="none" stroke="#000000" cx="276.089" cy="-230.7019" rx="37.0935" ry="18"/>
<text text-anchor="middle" x="276.089" y="-227.0019" font-family="Times,serif" font-size="14.00" fill="#000000">137385</text>
</g>
<!-- 3&#45;&gt;137385 -->
<g id="edge22" class="edge">
<title>3&#45;&gt;137385</title>
<path fill="none" stroke="#000000" d="M248.1217,-227.3165C248.1759,-227.323 248.2301,-227.3296 248.2843,-227.3362"/>
<polygon fill="#000000" stroke="#000000" points="238.0968,-229.6234 248.4469,-227.3558 238.9418,-222.6741 238.0968,-229.6234"/>
</g>
<!-- 204008 -->
<g id="node66" class="node">
<title>204008</title>
<ellipse fill="none" stroke="#000000" cx="304.5167" cy="-224.1769" rx="37.0935" ry="18"/>
<text text-anchor="middle" x="304.5167" y="-220.4769" font-family="Times,serif" font-size="14.00" fill="#000000">204008</text>
</g>
<!-- 3&#45;&gt;204008 -->
<g id="edge23" class="edge">
<title>3&#45;&gt;204008</title>
<path fill="none" stroke="#000000" d="M248.6392,-224.1158C251.4343,-224.1189 254.3281,-224.122 257.2606,-224.1252"/>
<polygon fill="#000000" stroke="#000000" points="257.2893,-227.6252 267.2932,-224.1362 257.2971,-220.6252 257.2893,-227.6252"/>
</g>
<!-- 263531 -->
<g id="node67" class="node">
<title>263531</title>
<ellipse fill="none" stroke="#000000" cx="259.5345" cy="-246.6826" rx="37.0935" ry="18"/>
<text text-anchor="middle" x="259.5345" y="-242.9826" font-family="Times,serif" font-size="14.00" fill="#000000">263531</text>
</g>
<!-- 3&#45;&gt;263531 -->
<g id="edge24" class="edge">
<title>3&#45;&gt;263531</title>
<path fill="none" stroke="#000000" d="M241.8233,-236.1782C241.8941,-236.2201 241.9648,-236.2621 242.0356,-236.304"/>
<polygon fill="#000000" stroke="#000000" points="231.8599,-234.3372 242.2476,-236.4298 235.4322,-228.3161 231.8599,-234.3372"/>
</g>
<!-- 265636 -->
<g id="node68" class="node">
<title>265636</title>
<ellipse fill="none" stroke="#000000" cx="171.17" cy="-314.2374" rx="37.0935" ry="18"/>
<text text-anchor="middle" x="171.17" y="-310.5374" font-family="Times,serif" font-size="14.00" fill="#000000">265636</text>
</g>
<!-- 3&#45;&gt;265636 -->
<g id="edge25" class="edge">
<title>3&#45;&gt;265636</title>
<path fill="none" stroke="#000000" d="M211.9807,-241.0429C204.6329,-254.2213 194.3082,-272.7388 185.8823,-287.8507"/>
<polygon fill="#000000" stroke="#000000" points="182.7379,-286.3032 180.9249,-296.7417 188.8518,-289.7121 182.7379,-286.3032"/>
</g>
<!-- 266177 -->
<g id="node69" class="node">
<title>266177</title>
<ellipse fill="none" stroke="#000000" cx="233.8795" cy="-183.9716" rx="37.0935" ry="18"/>
<text text-anchor="middle" x="233.8795" y="-180.2716" font-family="Times,serif" font-size="14.00" fill="#000000">266177</text>
</g>
<!-- 3&#45;&gt;266177 -->
<g id="edge26" class="edge">
<title>3&#45;&gt;266177</title>
<path fill="none" stroke="#000000" d="M226.9297,-206.3745C226.959,-206.2801 226.9883,-206.1855 227.0177,-206.091"/>
<polygon fill="#000000" stroke="#000000" points="228.7218,-212.41 228.342,-201.8219 222.0361,-210.3358 228.7218,-212.41"/>
</g>
<!-- 266491 -->
<g id="node70" class="node">
<title>266491</title>
<ellipse fill="none" stroke="#000000" cx="183.1877" cy="-198.2179" rx="37.0935" ry="18"/>
<text text-anchor="middle" x="183.1877" y="-194.5179" font-family="Times,serif" font-size="14.00" fill="#000000">266491</text>
</g>
<!-- 3&#45;&gt;266491 -->
<g id="edge27" class="edge">
<title>3&#45;&gt;266491</title>
<path fill="none" stroke="#000000" d="M202.3114,-211.152C202.2367,-211.1015 202.162,-211.0509 202.0873,-211.0004"/>
<polygon fill="#000000" stroke="#000000" points="212.1086,-213.5534 201.8633,-210.8489 208.1859,-219.3522 212.1086,-213.5534"/>
</g>
<!-- 267360 -->
<g id="node71" class="node">
<title>267360</title>
<ellipse fill="none" stroke="#000000" cx="206.5244" cy="-167.1777" rx="37.0935" ry="18"/>
<text text-anchor="middle" x="206.5244" y="-163.4777" font-family="Times,serif" font-size="14.00" fill="#000000">267360</text>
</g>
<!-- 3&#45;&gt;267360 -->
<g id="edge28" class="edge">
<title>3&#45;&gt;267360</title>
<path fill="none" stroke="#000000" d="M216.7173,-206.0799C215.7927,-202.5509 214.8028,-198.7729 213.8167,-195.0093"/>
<polygon fill="#000000" stroke="#000000" points="217.1831,-194.0484 211.2628,-185.2621 210.4117,-195.8227 217.1831,-194.0484"/>
</g>
<!-- 394432 -->
<g id="node72" class="node">
<title>394432</title>
<ellipse fill="none" stroke="#000000" cx="255.0081" cy="-277.7016" rx="37.0935" ry="18"/>
<text text-anchor="middle" x="255.0081" y="-274.0016" font-family="Times,serif" font-size="14.00" fill="#000000">394432</text>
</g>
<!-- 3&#45;&gt;394432 -->
<g id="edge29" class="edge">
<title>3&#45;&gt;394432</title>
<path fill="none" stroke="#000000" d="M231.8739,-240.7565C233.9792,-244.1187 236.2408,-247.7304 238.4957,-251.3315"/>
<polygon fill="#000000" stroke="#000000" points="235.7211,-253.4954 243.9947,-260.1134 241.654,-249.7803 235.7211,-253.4954"/>
</g>
<!-- 209 -->
<g id="node3" class="node">
<title>209</title>
<ellipse fill="none" stroke="#000000" cx="252.6305" cy="-18" rx="27" ry="18"/>
<text text-anchor="middle" x="252.6305" y="-14.3" font-family="Times,serif" font-size="14.00" fill="#000000">209</text>
</g>
<!-- 701 -->
<g id="node5" class="node">
<title>701</title>
<ellipse fill="none" stroke="#000000" cx="294.954" cy="-73.6038" rx="27" ry="18"/>
<text text-anchor="middle" x="294.954" y="-69.9038" font-family="Times,serif" font-size="14.00" fill="#000000">701</text>
</g>
<!-- 703 -->
<g id="node6" class="node">
<title>703</title>
<ellipse fill="none" stroke="#000000" cx="28.7396" cy="-184.2892" rx="27" ry="18"/>
<text text-anchor="middle" x="28.7396" y="-180.5892" font-family="Times,serif" font-size="14.00" fill="#000000">703</text>
</g>
<!-- 1239 -->
<g id="node7" class="node">
<title>1239</title>
<ellipse fill="none" stroke="#000000" cx="214.7596" cy="-24.9665" rx="28.6953" ry="18"/>
<text text-anchor="middle" x="214.7596" y="-21.2665" font-family="Times,serif" font-size="14.00" fill="#000000">1239</text>
</g>
<!-- 1273 -->
<g id="node8" class="node">
<title>1273</title>
<ellipse fill="none" stroke="#000000" cx="321.1312" cy="-51.0834" rx="28.6953" ry="18"/>
<text text-anchor="middle" x="321.1312" y="-47.3834" font-family="Times,serif" font-size="14.00" fill="#000000">1273</text>
</g>
<!-- 1299 -->
<g id="node9" class="node">
<title>1299</title>
<ellipse fill="none" stroke="#000000" cx="248.167" cy="-41.0367" rx="28.6953" ry="18"/>
<text text-anchor="middle" x="248.167" y="-37.3367" font-family="Times,serif" font-size="14.00" fill="#000000">1299</text>
</g>
<!-- 2497 -->
<g id="node10" class="node">
<title>2497</title>
<ellipse fill="none" stroke="#000000" cx="299.7766" cy="-33.049" rx="28.6953" ry="18"/>
<text text-anchor="middle" x="299.7766" y="-29.349" font-family="Times,serif" font-size="14.00" fill="#000000">2497</text>
</g>
<!-- 2764 -->
<g id="node11" class="node">
<title>2764</title>
<ellipse fill="none" stroke="#000000" cx="46.156" cy="-129.7881" rx="28.6953" ry="18"/>
<text text-anchor="middle" x="46.156" y="-126.0881" font-family="Times,serif" font-size="14.00" fill="#000000">2764</text>
</g>
<!-- 2828 -->
<g id="node12" class="node">
<title>2828</title>
<ellipse fill="none" stroke="#000000" cx="28.5975" cy="-217.9354" rx="28.6953" ry="18"/>
<text text-anchor="middle" x="28.5975" y="-214.2354" font-family="Times,serif" font-size="14.00" fill="#000000">2828</text>
</g>
<!-- 2914 -->
<g id="node13" class="node">
<title>2914</title>
<ellipse fill="none" stroke="#000000" cx="339.2768" cy="-68.4759" rx="28.6953" ry="18"/>
<text text-anchor="middle" x="339.2768" y="-64.7759" font-family="Times,serif" font-size="14.00" fill="#000000">2914</text>
</g>
<!-- 3209 -->
<g id="node14" class="node">
<title>3209</title>
<ellipse fill="none" stroke="#000000" cx="400.8028" cy="-266.0266" rx="28.6953" ry="18"/>
<text text-anchor="middle" x="400.8028" y="-262.3266" font-family="Times,serif" font-size="14.00" fill="#000000">3209</text>
</g>
<!-- 3257 -->
<g id="node15" class="node">
<title>3257</title>
<ellipse fill="none" stroke="#000000" cx="318.7453" cy="-111.6902" rx="28.6953" ry="18"/>
<text text-anchor="middle" x="318.7453" y="-107.9902" font-family="Times,serif" font-size="14.00" fill="#000000">3257</text>
</g>
<!-- 3320 -->
<g id="node16" class="node">
<title>3320</title>
<ellipse fill="none" stroke="#000000" cx="277.3719" cy="-40.9215" rx="28.6953" ry="18"/>
<text text-anchor="middle" x="277.3719" y="-37.2215" font-family="Times,serif" font-size="14.00" fill="#000000">3320</text>
</g>
<!-- 3356&#45;&gt;174 -->
<g id="edge30" class="edge">
<title>3356&#45;&gt;174</title>
<path fill="none" stroke="#000000" d="M250.3601,-131.8425C250.335,-131.9864 250.3098,-132.1305 250.2846,-132.2747"/>
<polygon fill="#000000" stroke="#000000" points="247.4168,-128.3515 249.1443,-138.8046 254.3125,-129.5558 247.4168,-128.3515"/>
</g>
<!-- 3356&#45;&gt;209 -->
<g id="edge31" class="edge">
<title>3356&#45;&gt;209</title>
<path fill="none" stroke="#000000" d="M253.3379,-95.8226C253.2121,-81.9871 253.0361,-62.6169 252.891,-46.6631"/>
<polygon fill="#000000" stroke="#000000" points="256.3874,-46.2417 252.7966,-36.274 249.3877,-46.3054 256.3874,-46.2417"/>
</g>
<!-- 3356&#45;&gt;701 -->
<g id="edge32" class="edge">
<title>3356&#45;&gt;701</title>
<path fill="none" stroke="#000000" d="M269.4097,-98.4058C270.3344,-97.508 271.2726,-96.597 272.2164,-95.6806"/>
<polygon fill="#000000" stroke="#000000" points="274.6938,-98.1536 279.4302,-88.6764 269.8176,-93.1314 274.6938,-98.1536"/>
</g>
<!-- 3356&#45;&gt;1239 -->
<g id="edge33" class="edge">
<title>3356&#45;&gt;1239</title>
<path fill="none" stroke="#000000" d="M245.8476,-96.2907C240.329,-83.6297 232.7783,-66.3063 226.5003,-51.9028"/>
<polygon fill="#000000" stroke="#000000" points="229.6021,-50.2594 222.3979,-42.4908 223.1852,-53.0564 229.6021,-50.2594"/>
</g>
<!-- 3356&#45;&gt;1273 -->
<g id="edge34" class="edge">
<title>3356&#45;&gt;1273</title>
<path fill="none" stroke="#000000" d="M269.873,-98.6571C278.18,-90.9471 288.4212,-81.4421 297.56,-72.9602"/>
<polygon fill="#000000" stroke="#000000" points="299.9621,-75.506 304.9108,-66.1379 295.2002,-70.3752 299.9621,-75.506"/>
</g>
<!-- 3356&#45;&gt;1299 -->
<g id="edge35" class="edge">
<title>3356&#45;&gt;1299</title>
<path fill="none" stroke="#000000" d="M252.183,-95.8523C251.5931,-87.8006 250.8838,-78.1188 250.2265,-69.1469"/>
<polygon fill="#000000" stroke="#000000" points="253.7104,-68.7987 249.489,-59.0812 246.7291,-69.3102 253.7104,-68.7987"/>
</g>
<!-- 3356&#45;&gt;2497 -->
<g id="edge36" class="edge">
<title>3356&#45;&gt;2497</title>
<path fill="none" stroke="#000000" d="M263.3155,-96.7154C269.5733,-85.7883 277.8037,-71.4168 284.8611,-59.0937"/>
<polygon fill="#000000" stroke="#000000" points="288.0446,-60.5776 289.9771,-50.1604 281.9702,-57.0988 288.0446,-60.5776"/>
</g>
<!-- 3356&#45;&gt;2914 -->
<g id="edge37" class="edge">
<title>3356&#45;&gt;2914</title>
<path fill="none" stroke="#000000" d="M275.591,-102.1661C285.496,-96.9263 297.354,-90.6533 308.1381,-84.9485"/>
<polygon fill="#000000" stroke="#000000" points="310.0597,-87.8915 317.2625,-80.1216 306.7864,-81.704 310.0597,-87.8915"/>
</g>
<!-- 3356&#45;&gt;3257 -->
<g id="edge38" class="edge">
<title>3356&#45;&gt;3257</title>
<path fill="none" stroke="#000000" d="M282.3085,-112.8972C282.4706,-112.8919 282.6329,-112.8865 282.7953,-112.8811"/>
<polygon fill="#000000" stroke="#000000" points="280.244,-116.4677 290.1226,-112.6384 280.0122,-109.4715 280.244,-116.4677"/>
</g>
<!-- 3356&#45;&gt;3320 -->
<g id="edge39" class="edge">
<title>3356&#45;&gt;3320</title>
<path fill="none" stroke="#000000" d="M259.2801,-96.1972C262.0159,-87.8384 265.3461,-77.6638 268.4,-68.3333"/>
<polygon fill="#000000" stroke="#000000" points="271.7798,-69.2587 271.5641,-58.666 265.127,-67.0812 271.7798,-69.2587"/>
</g>
<!-- 3491 -->
<g id="node18" class="node">
<title>3491</title>
<ellipse fill="none" stroke="#000000" cx="170.1299" cy="-76.8177" rx="28.6953" ry="18"/>
<text text-anchor="middle" x="170.1299" y="-73.1177" font-family="Times,serif" font-size="14.00" fill="#000000">3491</text>
</g>
<!-- 3356&#45;&gt;3491 -->
<g id="edge40" class="edge">
<title>3356&#45;&gt;3491</title>
<path fill="none" stroke="#000000" d="M229.8337,-103.3381C221.4902,-99.632 211.9543,-95.3961 202.9891,-91.4138"/>
<polygon fill="#000000" stroke="#000000" points="204.1283,-88.0901 193.5685,-87.2291 201.2866,-94.4873 204.1283,-88.0901"/>
</g>
<!-- 3549 -->
<g id="node19" class="node">
<title>3549</title>
<ellipse fill="none" stroke="#000000" cx="167.4273" cy="-54.0937" rx="28.6953" ry="18"/>
<text text-anchor="middle" x="167.4273" y="-50.3937" font-family="Times,serif" font-size="14.00" fill="#000000">3549</text>
</g>
<!-- 3356&#45;&gt;3549 -->
<g id="edge41" class="edge">
<title>3356&#45;&gt;3549</title>
<path fill="none" stroke="#000000" d="M233.9701,-100.2915C222.5248,-92.3455 207.88,-82.1783 195.2444,-73.4059"/>
<polygon fill="#000000" stroke="#000000" points="197.0921,-70.4279 186.8816,-67.6 193.1,-76.178 197.0921,-70.4279"/>
</g>
<!-- 5511 -->
<g id="node21" class="node">
<title>5511</title>
<ellipse fill="none" stroke="#000000" cx="226.9063" cy="-58.927" rx="28.6953" ry="18"/>
<text text-anchor="middle" x="226.9063" y="-55.227" font-family="Times,serif" font-size="14.00" fill="#000000">5511</text>
</g>
<!-- 3356&#45;&gt;5511 -->
<g id="edge42" class="edge">
<title>3356&#45;&gt;5511</title>
<path fill="none" stroke="#000000" d="M245.0868,-96.4731C243.389,-92.9669 241.568,-89.206 239.7579,-85.468"/>
<polygon fill="#000000" stroke="#000000" points="242.8662,-83.856 235.3578,-76.3809 236.5659,-86.9067 242.8662,-83.856"/>
</g>
<!-- 6453 -->
<g id="node22" class="node">
<title>6453</title>
<ellipse fill="none" stroke="#000000" cx="188.9851" cy="-36.3801" rx="28.6953" ry="18"/>
<text text-anchor="middle" x="188.9851" y="-32.6801" font-family="Times,serif" font-size="14.00" fill="#000000">6453</text>
</g>
<!-- 3356&#45;&gt;6453 -->
<g id="edge43" class="edge">
<title>3356&#45;&gt;6453</title>
<path fill="none" stroke="#000000" d="M240.1339,-97.7994C231.1373,-86.9964 219.1141,-72.559 208.9852,-60.3961"/>
<polygon fill="#000000" stroke="#000000" points="211.4248,-57.8562 202.3359,-52.4117 206.0457,-62.3358 211.4248,-57.8562"/>
</g>
<!-- 6461 -->
<g id="node23" class="node">
<title>6461</title>
<ellipse fill="none" stroke="#000000" cx="338.0917" cy="-98.0041" rx="28.6953" ry="18"/>
<text text-anchor="middle" x="338.0917" y="-94.3041" font-family="Times,serif" font-size="14.00" fill="#000000">6461</text>
</g>
<!-- 3356&#45;&gt;6461 -->
<g id="edge44" class="edge">
<title>3356&#45;&gt;6461</title>
<path fill="none" stroke="#000000" d="M281.1997,-108.6625C287.3973,-107.5014 294.0715,-106.251 300.5917,-105.0295"/>
<polygon fill="#000000" stroke="#000000" points="301.436,-108.4323 310.6204,-103.1507 300.1469,-101.552 301.436,-108.4323"/>
</g>
<!-- 6762 -->
<g id="node24" class="node">
<title>6762</title>
<ellipse fill="none" stroke="#000000" cx="352.0382" cy="-127.2922" rx="28.6953" ry="18"/>
<text text-anchor="middle" x="352.0382" y="-123.5922" font-family="Times,serif" font-size="14.00" fill="#000000">6762</text>
</g>
<!-- 3356&#45;&gt;6762 -->
<g id="edge45" class="edge">
<title>3356&#45;&gt;6762</title>
<path fill="none" stroke="#000000" d="M281.4748,-117.6671C291.5644,-119.0434 303.1294,-120.6209 313.9376,-122.0952"/>
<polygon fill="#000000" stroke="#000000" points="313.6139,-125.5833 323.9952,-123.4671 314.5601,-118.6476 313.6139,-125.5833"/>
</g>
<!-- 7018 -->
<g id="node27" class="node">
<title>7018</title>
<ellipse fill="none" stroke="#000000" cx="359.3291" cy="-97.4193" rx="28.6953" ry="18"/>
<text text-anchor="middle" x="359.3291" y="-93.7193" font-family="Times,serif" font-size="14.00" fill="#000000">7018</text>
</g>
<!-- 3356&#45;&gt;7018 -->
<g id="edge46" class="edge">
<title>3356&#45;&gt;7018</title>
<path fill="none" stroke="#000000" d="M281.3066,-109.5341C293.4838,-107.6433 307.9706,-105.3939 321.1364,-103.3496"/>
<polygon fill="#000000" stroke="#000000" points="321.9979,-106.7579 331.3425,-101.7649 320.9238,-99.8407 321.9979,-106.7579"/>
</g>
<!-- 12956 -->
<g id="node34" class="node">
<title>12956</title>
<ellipse fill="none" stroke="#000000" cx="198.0338" cy="-68.0155" rx="32.4942" ry="18"/>
<text text-anchor="middle" x="198.0338" y="-64.3155" font-family="Times,serif" font-size="14.00" fill="#000000">12956</text>
</g>
<!-- 3356&#45;&gt;12956 -->
<g id="edge47" class="edge">
<title>3356&#45;&gt;12956</title>
<path fill="none" stroke="#000000" d="M235.9514,-99.3487C232.2577,-96.2965 228.2842,-93.013 224.349,-89.7611"/>
<polygon fill="#000000" stroke="#000000" points="226.365,-86.8866 216.4268,-83.2146 221.9059,-92.2827 226.365,-86.8866"/>
</g>
<!-- 4637 -->
<g id="node20" class="node">
<title>4637</title>
<ellipse fill="none" stroke="#000000" cx="34.8279" cy="-249.3744" rx="28.6953" ry="18"/>
<text text-anchor="middle" x="34.8279" y="-245.6744" font-family="Times,serif" font-size="14.00" fill="#000000">4637</text>
</g>
<!-- 7922 -->
<g id="node32" class="node">
<title>7922</title>
<ellipse fill="none" stroke="#000000" cx="407.3191" cy="-187.1512" rx="28.6953" ry="18"/>
<text text-anchor="middle" x="407.3191" y="-183.4512" font-family="Times,serif" font-size="14.00" fill="#000000">7922</text>
</g>
<!-- 7015&#45;&gt;7922 -->
<g id="edge48" class="edge">
<title>7015&#45;&gt;7922</title>
<path fill="none" stroke="#000000" d="M329.7208,-193.3857C341.7221,-192.4215 355.8849,-191.2836 368.804,-190.2456"/>
<polygon fill="#000000" stroke="#000000" points="369.1455,-193.7295 378.833,-189.4398 368.5848,-186.752 369.1455,-193.7295"/>
</g>
<!-- 7303 -->
<g id="node29" class="node">
<title>7303</title>
<ellipse fill="none" stroke="#000000" cx="46.7942" cy="-297.7536" rx="28.6953" ry="18"/>
<text text-anchor="middle" x="46.7942" y="-294.0536" font-family="Times,serif" font-size="14.00" fill="#000000">7303</text>
</g>
<!-- 7474 -->
<g id="node30" class="node">
<title>7474</title>
<ellipse fill="none" stroke="#000000" cx="73.6177" cy="-105.1813" rx="28.6953" ry="18"/>
<text text-anchor="middle" x="73.6177" y="-101.4813" font-family="Times,serif" font-size="14.00" fill="#000000">7474</text>
</g>
<!-- 7632 -->
<g id="node31" class="node">
<title>7632</title>
<ellipse fill="none" stroke="#000000" cx="242.0131" cy="-413.5657" rx="28.6953" ry="18"/>
<text text-anchor="middle" x="242.0131" y="-409.8657" font-family="Times,serif" font-size="14.00" fill="#000000">7632</text>
</g>
<!-- 18103 -->
<g id="node35" class="node">
<title>18103</title>
<ellipse fill="none" stroke="#000000" cx="275.7637" cy="-408.5551" rx="32.4942" ry="18"/>
<text text-anchor="middle" x="275.7637" y="-404.8551" font-family="Times,serif" font-size="14.00" fill="#000000">18103</text>
</g>
<!-- 18351 -->
<g id="node36" class="node">
<title>18351</title>
<ellipse fill="none" stroke="#000000" cx="60.0104" cy="-136.7171" rx="32.4942" ry="18"/>
<text text-anchor="middle" x="60.0104" y="-133.0171" font-family="Times,serif" font-size="14.00" fill="#000000">18351</text>
</g>
<!-- 18365&#45;&gt;7632 -->
<g id="edge49" class="edge">
<title>18365&#45;&gt;7632</title>
<path fill="none" stroke="#000000" d="M251.4932,-346.0898C249.898,-357.4437 247.8099,-372.3062 245.9995,-385.1919"/>
<polygon fill="#000000" stroke="#000000" points="242.4864,-385.0407 244.561,-395.4304 249.4184,-386.0146 242.4864,-385.0407"/>
</g>
<!-- 18365&#45;&gt;18103 -->
<g id="edge50" class="edge">
<title>18365&#45;&gt;18103</title>
<path fill="none" stroke="#000000" d="M258.865,-345.822C261.6487,-356.1561 265.2088,-369.3722 268.3428,-381.0066"/>
<polygon fill="#000000" stroke="#000000" points="264.9764,-381.966 270.9571,-390.7114 271.7355,-380.1452 264.9764,-381.966"/>
</g>
<!-- 23947 -->
<g id="node41" class="node">
<title>23947</title>
<ellipse fill="none" stroke="#000000" cx="209.1148" cy="-410.2539" rx="32.4942" ry="18"/>
<text text-anchor="middle" x="209.1148" y="-406.5539" font-family="Times,serif" font-size="14.00" fill="#000000">23947</text>
</g>
<!-- 18365&#45;&gt;23947 -->
<g id="edge51" class="edge">
<title>18365&#45;&gt;23947</title>
<path fill="none" stroke="#000000" d="M244.5164,-345.3874C238.4404,-356.5205 230.4491,-371.1629 223.5969,-383.7183"/>
<polygon fill="#000000" stroke="#000000" points="220.348,-382.3654 218.6296,-392.8199 226.4925,-385.7188 220.348,-382.3654"/>
</g>
<!-- 38511 -->
<g id="node50" class="node">
<title>38511</title>
<ellipse fill="none" stroke="#000000" cx="344.9163" cy="-365.4342" rx="32.4942" ry="18"/>
<text text-anchor="middle" x="344.9163" y="-361.7342" font-family="Times,serif" font-size="14.00" fill="#000000">38511</text>
</g>
<!-- 18365&#45;&gt;38511 -->
<g id="edge52" class="edge">
<title>18365&#45;&gt;38511</title>
<path fill="none" stroke="#000000" d="M280.3286,-338.7766C289.3707,-342.5086 299.6513,-346.7518 309.3096,-350.7381"/>
<polygon fill="#000000" stroke="#000000" points="308.1126,-354.0304 318.6916,-354.6104 310.7833,-347.5599 308.1126,-354.0304"/>
</g>
<!-- 63859 -->
<g id="node59" class="node">
<title>63859</title>
<ellipse fill="none" stroke="#000000" cx="307.4617" cy="-395.8216" rx="32.4942" ry="18"/>
<text text-anchor="middle" x="307.4617" y="-392.1216" font-family="Times,serif" font-size="14.00" fill="#000000">63859</text>
</g>
<!-- 18365&#45;&gt;63859 -->
<g id="edge53" class="edge">
<title>18365&#45;&gt;63859</title>
<path fill="none" stroke="#000000" d="M267.249,-344.7109C273.5236,-352.686 281.1476,-362.3761 288.0633,-371.1659"/>
<polygon fill="#000000" stroke="#000000" points="285.4753,-373.5371 294.4095,-379.232 290.9767,-369.2087 285.4753,-373.5371"/>
</g>
<!-- 20207 -->
<g id="node38" class="node">
<title>20207</title>
<ellipse fill="none" stroke="#000000" cx="100.1527" cy="-367.4807" rx="32.4942" ry="18"/>
<text text-anchor="middle" x="100.1527" y="-363.7807" font-family="Times,serif" font-size="14.00" fill="#000000">20207</text>
</g>
<!-- 23520 -->
<g id="node40" class="node">
<title>23520</title>
<ellipse fill="none" stroke="#000000" cx="83.9678" cy="-353.7568" rx="32.4942" ry="18"/>
<text text-anchor="middle" x="83.9678" y="-350.0568" font-family="Times,serif" font-size="14.00" fill="#000000">23520</text>
</g>
<!-- 27787&#45;&gt;7303 -->
<g id="edge54" class="edge">
<title>27787&#45;&gt;7303</title>
<path fill="none" stroke="#000000" d="M110.3471,-286.9937C102.1345,-288.3842 93.1911,-289.8983 84.6763,-291.3399"/>
<polygon fill="#000000" stroke="#000000" points="83.856,-287.9289 74.5806,-293.0492 85.0246,-294.8307 83.856,-287.9289"/>
</g>
<!-- 27787&#45;&gt;20207 -->
<g id="edge55" class="edge">
<title>27787&#45;&gt;20207</title>
<path fill="none" stroke="#000000" d="M133.0746,-299.4651C127.3015,-311.3923 119.5919,-327.32 113.0847,-340.7637"/>
<polygon fill="#000000" stroke="#000000" points="109.8103,-339.495 108.6038,-350.021 116.1111,-342.5448 109.8103,-339.495"/>
</g>
<!-- 28022 -->
<g id="node43" class="node">
<title>28022</title>
<ellipse fill="none" stroke="#000000" cx="130.8343" cy="-391.993" rx="32.4942" ry="18"/>
<text text-anchor="middle" x="130.8343" y="-388.293" font-family="Times,serif" font-size="14.00" fill="#000000">28022</text>
</g>
<!-- 32787&#45;&gt;703 -->
<g id="edge56" class="edge">
<title>32787&#45;&gt;703</title>
<path fill="none" stroke="#000000" d="M82.5613,-192.0192C76.9661,-191.2156 71.1044,-190.3737 65.3932,-189.5534"/>
<polygon fill="#000000" stroke="#000000" points="65.7617,-186.0705 55.3657,-188.1133 64.7665,-192.9994 65.7617,-186.0705"/>
</g>
<!-- 32787&#45;&gt;2764 -->
<g id="edge57" class="edge">
<title>32787&#45;&gt;2764</title>
<path fill="none" stroke="#000000" d="M98.2978,-180.7705C89.5776,-172.2442 78.6741,-161.5831 69.0952,-152.2173"/>
<polygon fill="#000000" stroke="#000000" points="71.3612,-149.5379 61.7642,-145.0492 66.4674,-154.543 71.3612,-149.5379"/>
</g>
<!-- 32787&#45;&gt;2828 -->
<g id="edge58" class="edge">
<title>32787&#45;&gt;2828</title>
<path fill="none" stroke="#000000" d="M84.4506,-204.0655C78.228,-205.6107 71.6068,-207.255 65.1802,-208.8509"/>
<polygon fill="#000000" stroke="#000000" points="64.1881,-205.4909 55.3264,-211.2979 65.8752,-212.2845 64.1881,-205.4909"/>
</g>
<!-- 32787&#45;&gt;4637 -->
<g id="edge59" class="edge">
<title>32787&#45;&gt;4637</title>
<path fill="none" stroke="#000000" d="M93.5616,-210.4697C84.2912,-216.6104 73.2425,-223.9289 63.2426,-230.5528"/>
<polygon fill="#000000" stroke="#000000" points="61.1998,-227.7076 54.7957,-236.1479 65.0655,-233.5435 61.1998,-227.7076"/>
</g>
<!-- 32787&#45;&gt;7474 -->
<g id="edge60" class="edge">
<title>32787&#45;&gt;7474</title>
<path fill="none" stroke="#000000" d="M106.6115,-178.9777C100.6741,-165.6976 92.4282,-147.2543 85.6654,-132.1281"/>
<polygon fill="#000000" stroke="#000000" points="88.7514,-130.4552 81.4746,-122.7546 82.361,-133.3123 88.7514,-130.4552"/>
</g>
<!-- 34779 -->
<g id="node46" class="node">
<title>34779</title>
<ellipse fill="none" stroke="#000000" cx="58.0007" cy="-314.5943" rx="32.4942" ry="18"/>
<text text-anchor="middle" x="58.0007" y="-310.8943" font-family="Times,serif" font-size="14.00" fill="#000000">34779</text>
</g>
<!-- 37254 -->
<g id="node47" class="node">
<title>37254</title>
<ellipse fill="none" stroke="#000000" cx="414.2208" cy="-221.3156" rx="32.4942" ry="18"/>
<text text-anchor="middle" x="414.2208" y="-217.6156" font-family="Times,serif" font-size="14.00" fill="#000000">37254</text>
</g>
<!-- 37642&#45;&gt;37254 -->
<g id="edge61" class="edge">
<title>37642&#45;&gt;37254</title>
<path fill="none" stroke="#000000" d="M349.5016,-233.7274C357.0883,-232.2724 365.3342,-230.691 373.3199,-229.1595"/>
<polygon fill="#000000" stroke="#000000" points="374.0651,-232.5805 383.2269,-227.2596 372.7466,-225.7057 374.0651,-232.5805"/>
</g>
<!-- 37662 -->
<g id="node49" class="node">
<title>37662</title>
<ellipse fill="none" stroke="#000000" cx="396.6106" cy="-299.7903" rx="32.4942" ry="18"/>
<text text-anchor="middle" x="396.6106" y="-296.0903" font-family="Times,serif" font-size="14.00" fill="#000000">37662</text>
</g>
<!-- 37642&#45;&gt;37662 -->
<g id="edge62" class="edge">
<title>37642&#45;&gt;37662</title>
<path fill="none" stroke="#000000" d="M338.017,-254.4933C347.5367,-261.8527 359.1881,-270.86 369.5864,-278.8986"/>
<polygon fill="#000000" stroke="#000000" points="367.54,-281.7406 377.5922,-285.0878 371.8214,-276.2025 367.54,-281.7406"/>
</g>
<!-- 49743 -->
<g id="node52" class="node">
<title>49743</title>
<ellipse fill="none" stroke="#000000" cx="332.1773" cy="-373.3091" rx="32.4942" ry="18"/>
<text text-anchor="middle" x="332.1773" y="-369.6091" font-family="Times,serif" font-size="14.00" fill="#000000">49743</text>
</g>
<!-- 43888&#45;&gt;49743 -->
<g id="edge63" class="edge">
<title>43888&#45;&gt;49743</title>
<path fill="none" stroke="#000000" d="M290.3245,-308.0556C297.686,-319.533 307.524,-334.8717 315.8121,-347.7939"/>
<polygon fill="#000000" stroke="#000000" points="312.908,-349.7489 321.2529,-356.2768 318.8002,-345.9697 312.908,-349.7489"/>
</g>
<!-- 52468 -->
<g id="node53" class="node">
<title>52468</title>
<ellipse fill="none" stroke="#000000" cx="169.2826" cy="-405.2993" rx="32.4942" ry="18"/>
<text text-anchor="middle" x="169.2826" y="-401.5993" font-family="Times,serif" font-size="14.00" fill="#000000">52468</text>
</g>
<!-- 56651&#45;&gt;34779 -->
<g id="edge64" class="edge">
<title>56651&#45;&gt;34779</title>
<path fill="none" stroke="#000000" d="M117.3646,-266.8137C107.5532,-274.7107 95.3139,-284.5618 84.5019,-293.2641"/>
<polygon fill="#000000" stroke="#000000" points="82.1715,-290.6469 76.5759,-299.6436 86.5606,-296.1 82.1715,-290.6469"/>
</g>
<!-- 58682 -->
<g id="node55" class="node">
<title>58682</title>
<ellipse fill="none" stroke="#000000" cx="378.7677" cy="-330.976" rx="32.4942" ry="18"/>
<text text-anchor="middle" x="378.7677" y="-327.276" font-family="Times,serif" font-size="14.00" fill="#000000">58682</text>
</g>
<!-- 58689 -->
<g id="node56" class="node">
<title>58689</title>
<ellipse fill="none" stroke="#000000" cx="411.4061" cy="-257.8541" rx="32.4942" ry="18"/>
<text text-anchor="middle" x="411.4061" y="-254.1541" font-family="Times,serif" font-size="14.00" fill="#000000">58689</text>
</g>
<!-- 59203 -->
<g id="node57" class="node">
<title>59203</title>
<ellipse fill="none" stroke="#000000" cx="46.9896" cy="-160.0359" rx="32.4942" ry="18"/>
<text text-anchor="middle" x="46.9896" y="-156.3359" font-family="Times,serif" font-size="14.00" fill="#000000">59203</text>
</g>
<!-- 131758&#45;&gt;18351 -->
<g id="edge65" class="edge">
<title>131758&#45;&gt;18351</title>
<path fill="none" stroke="#000000" d="M122.043,-176.2783C112.1611,-169.9762 100.4459,-162.5048 89.8723,-155.7614"/>
<polygon fill="#000000" stroke="#000000" points="91.6376,-152.7361 81.3243,-150.31 87.8736,-158.638 91.6376,-152.7361"/>
</g>
<!-- 133957&#45;&gt;59203 -->
<g id="edge66" class="edge">
<title>133957&#45;&gt;59203</title>
<path fill="none" stroke="#000000" d="M114.663,-167.265C106.4118,-166.3836 97.5823,-165.4404 89.1163,-164.536"/>
<polygon fill="#000000" stroke="#000000" points="89.3483,-161.041 79.0331,-163.4589 88.6047,-168.0014 89.3483,-161.041"/>
</g>
<!-- 135437&#45;&gt;58682 -->
<g id="edge67" class="edge">
<title>135437&#45;&gt;58682</title>
<path fill="none" stroke="#000000" d="M325.9529,-282.1794C334.4487,-290.0288 344.8282,-299.6186 354.13,-308.2127"/>
<polygon fill="#000000" stroke="#000000" points="351.9049,-310.9221 361.625,-315.1375 356.6552,-305.7806 351.9049,-310.9221"/>
</g>
<!-- 135437&#45;&gt;58689 -->
<g id="edge68" class="edge">
<title>135437&#45;&gt;58689</title>
<path fill="none" stroke="#000000" d="M345.4318,-263.1826C353.0426,-262.568 361.1182,-261.9157 368.9121,-261.2862"/>
<polygon fill="#000000" stroke="#000000" points="369.2471,-264.7707 378.9328,-260.4769 368.6835,-257.7934 369.2471,-264.7707"/>
</g>
<!-- 204008&#45;&gt;3209 -->
<g id="edge69" class="edge">
<title>204008&#45;&gt;3209</title>
<path fill="none" stroke="#000000" d="M332.3666,-236.2815C343.4748,-241.1096 356.3473,-246.7045 367.9107,-251.7304"/>
<polygon fill="#000000" stroke="#000000" points="366.6822,-255.0127 377.2486,-255.789 369.4726,-248.5929 366.6822,-255.0127"/>
</g>
<!-- 265636&#45;&gt;23520 -->
<g id="edge70" class="edge">
<title>265636&#45;&gt;23520</title>
<path fill="none" stroke="#000000" d="M144.0567,-326.525C135.9923,-330.1797 127.0455,-334.2343 118.5725,-338.0742"/>
<polygon fill="#000000" stroke="#000000" points="116.9435,-334.9698 109.2799,-342.2855 119.833,-341.3456 116.9435,-334.9698"/>
</g>
<!-- 265636&#45;&gt;28022 -->
<g id="edge71" class="edge">
<title>265636&#45;&gt;28022</title>
<path fill="none" stroke="#000000" d="M162.0172,-331.8814C156.8237,-341.8929 150.2244,-354.6144 144.4354,-365.7739"/>
<polygon fill="#000000" stroke="#000000" points="141.3099,-364.1983 139.8119,-374.6867 147.5236,-367.4217 141.3099,-364.1983"/>
</g>
<!-- 265636&#45;&gt;52468 -->
<g id="edge72" class="edge">
<title>265636&#45;&gt;52468</title>
<path fill="none" stroke="#000000" d="M170.788,-332.6651C170.5254,-345.3377 170.1715,-362.4144 169.8728,-376.8258"/>
<polygon fill="#000000" stroke="#000000" points="166.3656,-377.1393 169.6576,-387.2097 173.3641,-377.2845 166.3656,-377.1393"/>
</g>
</g>
</svg>
