<?xml version="1.0" encoding="UTF-8" standalone="no"?>
<!DOCTYPE svg PUBLIC "-//W3C//DTD SVG 1.1//EN"
 "http://www.w3.org/Graphics/SVG/1.1/DTD/svg11.dtd">
<!-- Generated by graphviz version 2.40.1 (20161225.0304)
 -->
<!-- Title: %3 Pages: 1 -->
<svg width="3678pt" height="188pt"
 viewBox="0.00 0.00 3678.05 188.00" xmlns="http://www.w3.org/2000/svg" xmlns:xlink="http://www.w3.org/1999/xlink">
<g id="graph0" class="graph" transform="scale(1 1) rotate(0) translate(4 184)">
<title>%3</title>
<polygon fill="#ffffff" stroke="transparent" points="-4,4 -4,-184 3674.0467,-184 3674.0467,4 -4,4"/>
<!-- 3 -->
<g id="node1" class="node">
<title>3</title>
<ellipse fill="none" stroke="#000000" cx="2358" cy="-162" rx="27" ry="18"/>
<text text-anchor="middle" x="2358" y="-158.3" font-family="Times,serif" font-size="14.00" fill="#000000">3</text>
</g>
<!-- 174 -->
<g id="node2" class="node">
<title>174</title>
<ellipse fill="none" stroke="#000000" cx="27" cy="-18" rx="27" ry="18"/>
<text text-anchor="middle" x="27" y="-14.3" font-family="Times,serif" font-size="14.00" fill="#000000">174</text>
</g>
<!-- 3&#45;&gt;174 -->
<g id="edge1" class="edge">
<title>3&#45;&gt;174</title>
<path fill="none" stroke="#000000" d="M2330.7802,-161.5162C2137.8481,-158.0324 974.43,-136.1114 622,-108 372.2963,-88.0825 302.6123,-109.0383 63,-36 61.095,-35.4193 59.168,-34.7449 57.2475,-34.0047"/>
<polygon fill="#000000" stroke="#000000" points="58.3956,-30.6867 47.831,-29.8861 55.5905,-37.1001 58.3956,-30.6867"/>
</g>
<!-- 293 -->
<g id="node4" class="node">
<title>293</title>
<ellipse fill="none" stroke="#000000" cx="658" cy="-90" rx="27" ry="18"/>
<text text-anchor="middle" x="658" y="-86.3" font-family="Times,serif" font-size="14.00" fill="#000000">293</text>
</g>
<!-- 3&#45;&gt;293 -->
<g id="edge2" class="edge">
<title>3&#45;&gt;293</title>
<path fill="none" stroke="#000000" d="M2330.8712,-161.8204C2128.5905,-160.389 858.9646,-149.7789 694,-108 692.0186,-107.4982 690.0201,-106.8761 688.0341,-106.1677"/>
<polygon fill="#000000" stroke="#000000" points="688.9204,-102.7421 678.3472,-102.0644 686.19,-109.1877 688.9204,-102.7421"/>
</g>
<!-- 3356 -->
<g id="node17" class="node">
<title>3356</title>
<ellipse fill="none" stroke="#000000" cx="732" cy="-90" rx="28.6953" ry="18"/>
<text text-anchor="middle" x="732" y="-86.3" font-family="Times,serif" font-size="14.00" fill="#000000">3356</text>
</g>
<!-- 3&#45;&gt;3356 -->
<g id="edge3" class="edge">
<title>3&#45;&gt;3356</title>
<path fill="none" stroke="#000000" d="M2330.7981,-160.7955C2139.4555,-152.3228 996.852,-101.7278 770.831,-91.7195"/>
<polygon fill="#000000" stroke="#000000" points="770.9134,-88.2198 760.7683,-91.2739 770.6037,-95.2129 770.9134,-88.2198"/>
</g>
<!-- 6939 -->
<g id="node25" class="node">
<title>6939</title>
<ellipse fill="none" stroke="#000000" cx="1465" cy="-90" rx="28.6953" ry="18"/>
<text text-anchor="middle" x="1465" y="-86.3" font-family="Times,serif" font-size="14.00" fill="#000000">6939</text>
</g>
<!-- 3&#45;&gt;6939 -->
<g id="edge4" class="edge">
<title>3&#45;&gt;6939</title>
<path fill="none" stroke="#000000" d="M2330.9346,-161.7012C2203.6663,-160.0817 1664.16,-150.7718 1502,-108 1500.0315,-107.4808 1498.0426,-106.8541 1496.0625,-106.1502"/>
<polygon fill="#000000" stroke="#000000" points="1496.9454,-102.7274 1486.3675,-102.1291 1494.2635,-109.1933 1496.9454,-102.7274"/>
</g>
<!-- 7015 -->
<g id="node26" class="node">
<title>7015</title>
<ellipse fill="none" stroke="#000000" cx="1540" cy="-90" rx="28.6953" ry="18"/>
<text text-anchor="middle" x="1540" y="-86.3" font-family="Times,serif" font-size="14.00" fill="#000000">7015</text>
</g>
<!-- 3&#45;&gt;7015 -->
<g id="edge5" class="edge">
<title>3&#45;&gt;7015</title>
<path fill="none" stroke="#000000" d="M2330.9335,-161.5124C2210.633,-159.1339 1723.9078,-147.2231 1577,-108 1575.033,-107.4748 1573.0454,-106.8435 1571.0662,-106.1362"/>
<polygon fill="#000000" stroke="#000000" points="1571.9511,-102.7136 1561.3737,-102.1056 1569.2633,-109.1771 1571.9511,-102.7136"/>
</g>
<!-- 7029 -->
<g id="node28" class="node">
<title>7029</title>
<ellipse fill="none" stroke="#000000" cx="1615" cy="-90" rx="28.6953" ry="18"/>
<text text-anchor="middle" x="1615" y="-86.3" font-family="Times,serif" font-size="14.00" fill="#000000">7029</text>
</g>
<!-- 3&#45;&gt;7029 -->
<g id="edge6" class="edge">
<title>3&#45;&gt;7029</title>
<path fill="none" stroke="#000000" d="M2330.9655,-161.245C2218.1524,-157.8927 1784.6983,-142.9515 1653,-108 1650.6782,-107.3838 1648.3255,-106.6287 1645.9881,-105.7804"/>
<polygon fill="#000000" stroke="#000000" points="1647.1628,-102.4787 1636.5845,-101.8869 1644.4849,-108.9462 1647.1628,-102.4787"/>
</g>
<!-- 10578 -->
<g id="node33" class="node">
<title>10578</title>
<ellipse fill="none" stroke="#000000" cx="1694" cy="-90" rx="32.4942" ry="18"/>
<text text-anchor="middle" x="1694" y="-86.3" font-family="Times,serif" font-size="14.00" fill="#000000">10578</text>
</g>
<!-- 3&#45;&gt;10578 -->
<g id="edge7" class="edge">
<title>3&#45;&gt;10578</title>
<path fill="none" stroke="#000000" d="M2330.7095,-160.7848C2226.1803,-155.9519 1851.3865,-136.9407 1736,-108 1733.3501,-107.3354 1730.6531,-106.5238 1727.9697,-105.6169"/>
<polygon fill="#000000" stroke="#000000" points="1729.011,-102.2689 1718.4194,-102.0072 1726.536,-108.8168 1729.011,-102.2689"/>
</g>
<!-- 18365 -->
<g id="node37" class="node">
<title>18365</title>
<ellipse fill="none" stroke="#000000" cx="1777" cy="-90" rx="32.4942" ry="18"/>
<text text-anchor="middle" x="1777" y="-86.3" font-family="Times,serif" font-size="14.00" fill="#000000">18365</text>
</g>
<!-- 3&#45;&gt;18365 -->
<g id="edge8" class="edge">
<title>3&#45;&gt;18365</title>
<path fill="none" stroke="#000000" d="M2330.8342,-160.3759C2235.6542,-154.5148 1917.6925,-133.4499 1819,-108 1816.3546,-107.3178 1813.6609,-106.4935 1810.9797,-105.5775"/>
<polygon fill="#000000" stroke="#000000" points="1812.0251,-102.2306 1801.434,-101.9498 1809.5383,-108.774 1812.0251,-102.2306"/>
</g>
<!-- 23248 -->
<g id="node39" class="node">
<title>23248</title>
<ellipse fill="none" stroke="#000000" cx="1860" cy="-90" rx="32.4942" ry="18"/>
<text text-anchor="middle" x="1860" y="-86.3" font-family="Times,serif" font-size="14.00" fill="#000000">23248</text>
</g>
<!-- 3&#45;&gt;23248 -->
<g id="edge9" class="edge">
<title>3&#45;&gt;23248</title>
<path fill="none" stroke="#000000" d="M2330.7653,-161.4815C2259.2407,-159.5434 2060.6448,-150.4378 1902,-108 1899.3608,-107.294 1896.6717,-106.4522 1893.9938,-105.524"/>
<polygon fill="#000000" stroke="#000000" points="1895.0448,-102.1787 1884.4544,-101.8719 1892.542,-108.716 1895.0448,-102.1787"/>
</g>
<!-- 27787 -->
<g id="node42" class="node">
<title>27787</title>
<ellipse fill="none" stroke="#000000" cx="1943" cy="-90" rx="32.4942" ry="18"/>
<text text-anchor="middle" x="1943" y="-86.3" font-family="Times,serif" font-size="14.00" fill="#000000">27787</text>
</g>
<!-- 3&#45;&gt;27787 -->
<g id="edge10" class="edge">
<title>3&#45;&gt;27787</title>
<path fill="none" stroke="#000000" d="M2330.8141,-160.4976C2268.5575,-156.534 2111.2855,-143.5403 1985,-108 1982.5277,-107.3042 1980.009,-106.4966 1977.4952,-105.6164"/>
<polygon fill="#000000" stroke="#000000" points="1978.5223,-102.2617 1967.9321,-101.946 1976.0139,-108.7969 1978.5223,-102.2617"/>
</g>
<!-- 32787 -->
<g id="node44" class="node">
<title>32787</title>
<ellipse fill="none" stroke="#000000" cx="2026" cy="-90" rx="32.4942" ry="18"/>
<text text-anchor="middle" x="2026" y="-86.3" font-family="Times,serif" font-size="14.00" fill="#000000">32787</text>
</g>
<!-- 3&#45;&gt;32787 -->
<g id="edge11" class="edge">
<title>3&#45;&gt;32787</title>
<path fill="none" stroke="#000000" d="M2331.1401,-159.011C2279.3823,-152.8126 2162.5852,-136.6891 2068,-108 2065.5422,-107.2545 2063.0344,-106.4097 2060.5284,-105.5026"/>
<polygon fill="#000000" stroke="#000000" points="2061.5706,-102.1522 2050.9825,-101.7737 2059.0236,-108.6724 2061.5706,-102.1522"/>
</g>
<!-- 33480 -->
<g id="node45" class="node">
<title>33480</title>
<ellipse fill="none" stroke="#000000" cx="2109" cy="-90" rx="32.4942" ry="18"/>
<text text-anchor="middle" x="2109" y="-86.3" font-family="Times,serif" font-size="14.00" fill="#000000">33480</text>
</g>
<!-- 3&#45;&gt;33480 -->
<g id="edge12" class="edge">
<title>3&#45;&gt;33480</title>
<path fill="none" stroke="#000000" d="M2332.1402,-156.5635C2292.5939,-147.9578 2214.9471,-129.9061 2151,-108 2148.5703,-107.1677 2146.0834,-106.258 2143.5926,-105.3038"/>
<polygon fill="#000000" stroke="#000000" points="2144.6632,-101.9618 2134.0797,-101.4727 2142.0482,-108.455 2144.6632,-101.9618"/>
</g>
<!-- 37642 -->
<g id="node48" class="node">
<title>37642</title>
<ellipse fill="none" stroke="#000000" cx="2192" cy="-90" rx="32.4942" ry="18"/>
<text text-anchor="middle" x="2192" y="-86.3" font-family="Times,serif" font-size="14.00" fill="#000000">37642</text>
</g>
<!-- 3&#45;&gt;37642 -->
<g id="edge13" class="edge">
<title>3&#45;&gt;37642</title>
<path fill="none" stroke="#000000" d="M2335.2665,-152.1397C2307.3036,-140.0112 2259.5401,-119.2945 2226.9119,-105.1425"/>
<polygon fill="#000000" stroke="#000000" points="2228.2925,-101.9263 2217.7255,-101.1581 2225.507,-108.3483 2228.2925,-101.9263"/>
</g>
<!-- 43888 -->
<g id="node51" class="node">
<title>43888</title>
<ellipse fill="none" stroke="#000000" cx="2275" cy="-90" rx="32.4942" ry="18"/>
<text text-anchor="middle" x="2275" y="-86.3" font-family="Times,serif" font-size="14.00" fill="#000000">43888</text>
</g>
<!-- 3&#45;&gt;43888 -->
<g id="edge14" class="edge">
<title>3&#45;&gt;43888</title>
<path fill="none" stroke="#000000" d="M2341.2037,-147.4297C2329.514,-137.2892 2313.7126,-123.5821 2300.479,-112.1023"/>
<polygon fill="#000000" stroke="#000000" points="2302.4781,-109.2031 2292.6307,-105.2941 2297.8912,-114.4908 2302.4781,-109.2031"/>
</g>
<!-- 56651 -->
<g id="node54" class="node">
<title>56651</title>
<ellipse fill="none" stroke="#000000" cx="2358" cy="-90" rx="32.4942" ry="18"/>
<text text-anchor="middle" x="2358" y="-86.3" font-family="Times,serif" font-size="14.00" fill="#000000">56651</text>
</g>
<!-- 3&#45;&gt;56651 -->
<g id="edge15" class="edge">
<title>3&#45;&gt;56651</title>
<path fill="none" stroke="#000000" d="M2358,-143.8314C2358,-136.131 2358,-126.9743 2358,-118.4166"/>
<polygon fill="#000000" stroke="#000000" points="2361.5001,-118.4132 2358,-108.4133 2354.5001,-118.4133 2361.5001,-118.4132"/>
</g>
<!-- 59362 -->
<g id="node58" class="node">
<title>59362</title>
<ellipse fill="none" stroke="#000000" cx="2441" cy="-90" rx="32.4942" ry="18"/>
<text text-anchor="middle" x="2441" y="-86.3" font-family="Times,serif" font-size="14.00" fill="#000000">59362</text>
</g>
<!-- 3&#45;&gt;59362 -->
<g id="edge16" class="edge">
<title>3&#45;&gt;59362</title>
<path fill="none" stroke="#000000" d="M2374.7963,-147.4297C2386.486,-137.2892 2402.2874,-123.5821 2415.521,-112.1023"/>
<polygon fill="#000000" stroke="#000000" points="2418.1088,-114.4908 2423.3693,-105.2941 2413.5219,-109.2031 2418.1088,-114.4908"/>
</g>
<!-- 131758 -->
<g id="node60" class="node">
<title>131758</title>
<ellipse fill="none" stroke="#000000" cx="2529" cy="-90" rx="37.0935" ry="18"/>
<text text-anchor="middle" x="2529" y="-86.3" font-family="Times,serif" font-size="14.00" fill="#000000">131758</text>
</g>
<!-- 3&#45;&gt;131758 -->
<g id="edge17" class="edge">
<title>3&#45;&gt;131758</title>
<path fill="none" stroke="#000000" d="M2381.0618,-152.2898C2409.3556,-140.3766 2457.7074,-120.0179 2491.4032,-105.8302"/>
<polygon fill="#000000" stroke="#000000" points="2493.0618,-108.9295 2500.9199,-101.8232 2490.3454,-102.4781 2493.0618,-108.9295"/>
</g>
<!-- 133295 -->
<g id="node61" class="node">
<title>133295</title>
<ellipse fill="none" stroke="#000000" cx="2621" cy="-90" rx="37.0935" ry="18"/>
<text text-anchor="middle" x="2621" y="-86.3" font-family="Times,serif" font-size="14.00" fill="#000000">133295</text>
</g>
<!-- 3&#45;&gt;133295 -->
<g id="edge18" class="edge">
<title>3&#45;&gt;133295</title>
<path fill="none" stroke="#000000" d="M2384.0228,-156.6636C2425.0597,-147.9944 2507.1225,-129.6264 2575,-108 2577.5918,-107.1742 2580.2474,-106.2768 2582.9114,-105.3381"/>
<polygon fill="#000000" stroke="#000000" points="2584.3186,-108.5498 2592.4953,-101.8125 2581.9018,-101.9802 2584.3186,-108.5498"/>
</g>
<!-- 133296 -->
<g id="node62" class="node">
<title>133296</title>
<ellipse fill="none" stroke="#000000" cx="2713" cy="-90" rx="37.0935" ry="18"/>
<text text-anchor="middle" x="2713" y="-86.3" font-family="Times,serif" font-size="14.00" fill="#000000">133296</text>
</g>
<!-- 3&#45;&gt;133296 -->
<g id="edge19" class="edge">
<title>3&#45;&gt;133296</title>
<path fill="none" stroke="#000000" d="M2384.8535,-159.1402C2438.9792,-152.9767 2564.738,-136.6323 2667,-108 2669.7871,-107.2196 2672.6389,-106.3322 2675.4898,-105.3794"/>
<polygon fill="#000000" stroke="#000000" points="2676.8462,-108.6115 2685.0842,-101.9493 2674.4896,-102.0201 2676.8462,-108.6115"/>
</g>
<!-- 133957 -->
<g id="node63" class="node">
<title>133957</title>
<ellipse fill="none" stroke="#000000" cx="2805" cy="-90" rx="37.0935" ry="18"/>
<text text-anchor="middle" x="2805" y="-86.3" font-family="Times,serif" font-size="14.00" fill="#000000">133957</text>
</g>
<!-- 3&#45;&gt;133957 -->
<g id="edge20" class="edge">
<title>3&#45;&gt;133957</title>
<path fill="none" stroke="#000000" d="M2385.1776,-160.5834C2450.5354,-156.6948 2621.2944,-143.6645 2759,-108 2761.8019,-107.2743 2764.6645,-106.4272 2767.5231,-105.5031"/>
<polygon fill="#000000" stroke="#000000" points="2768.8564,-108.7446 2777.133,-102.1302 2766.5381,-102.1396 2768.8564,-108.7446"/>
</g>
<!-- 135437 -->
<g id="node64" class="node">
<title>135437</title>
<ellipse fill="none" stroke="#000000" cx="2897" cy="-90" rx="37.0935" ry="18"/>
<text text-anchor="middle" x="2897" y="-86.3" font-family="Times,serif" font-size="14.00" fill="#000000">135437</text>
</g>
<!-- 3&#45;&gt;135437 -->
<g id="edge21" class="edge">
<title>3&#45;&gt;135437</title>
<path fill="none" stroke="#000000" d="M2385.154,-161.5256C2460.3249,-159.6805 2677.0851,-150.7522 2851,-108 2853.8106,-107.3091 2856.6797,-106.4875 2859.5429,-105.5817"/>
<polygon fill="#000000" stroke="#000000" points="2860.8612,-108.8291 2869.1619,-102.2451 2858.5671,-102.2156 2860.8612,-108.8291"/>
</g>
<!-- 137385 -->
<g id="node65" class="node">
<title>137385</title>
<ellipse fill="none" stroke="#000000" cx="2989" cy="-90" rx="37.0935" ry="18"/>
<text text-anchor="middle" x="2989" y="-86.3" font-family="Times,serif" font-size="14.00" fill="#000000">137385</text>
</g>
<!-- 3&#45;&gt;137385 -->
<g id="edge22" class="edge">
<title>3&#45;&gt;137385</title>
<path fill="none" stroke="#000000" d="M2385.0007,-160.5162C2485.0673,-154.8607 2834.5699,-133.6763 2943,-108 2945.8164,-107.3331 2948.6898,-106.5291 2951.556,-105.6359"/>
<polygon fill="#000000" stroke="#000000" points="2952.8638,-108.8874 2961.1811,-102.3244 2950.5864,-102.2682 2952.8638,-108.8874"/>
</g>
<!-- 204008 -->
<g id="node66" class="node">
<title>204008</title>
<ellipse fill="none" stroke="#000000" cx="3081" cy="-90" rx="37.0935" ry="18"/>
<text text-anchor="middle" x="3081" y="-86.3" font-family="Times,serif" font-size="14.00" fill="#000000">204008</text>
</g>
<!-- 3&#45;&gt;204008 -->
<g id="edge23" class="edge">
<title>3&#45;&gt;204008</title>
<path fill="none" stroke="#000000" d="M2385.0101,-160.9028C2494.8121,-156.2799 2907.8897,-137.2652 3035,-108 3037.9955,-107.3103 3041.054,-106.4609 3044.099,-105.51"/>
<polygon fill="#000000" stroke="#000000" points="3045.3767,-108.7717 3053.686,-102.1985 3043.0912,-102.1553 3045.3767,-108.7717"/>
</g>
<!-- 263531 -->
<g id="node67" class="node">
<title>263531</title>
<ellipse fill="none" stroke="#000000" cx="3173" cy="-90" rx="37.0935" ry="18"/>
<text text-anchor="middle" x="3173" y="-86.3" font-family="Times,serif" font-size="14.00" fill="#000000">263531</text>
</g>
<!-- 3&#45;&gt;263531 -->
<g id="edge24" class="edge">
<title>3&#45;&gt;263531</title>
<path fill="none" stroke="#000000" d="M2384.9805,-161.199C2503.8134,-157.5039 2981.0941,-140.8645 3127,-108 3129.9987,-107.3246 3133.0595,-106.4854 3136.1062,-105.5416"/>
<polygon fill="#000000" stroke="#000000" points="3137.3783,-108.8053 3145.6961,-102.243 3135.1014,-102.186 3137.3783,-108.8053"/>
</g>
<!-- 265636 -->
<g id="node68" class="node">
<title>265636</title>
<ellipse fill="none" stroke="#000000" cx="3265" cy="-90" rx="37.0935" ry="18"/>
<text text-anchor="middle" x="3265" y="-86.3" font-family="Times,serif" font-size="14.00" fill="#000000">265636</text>
</g>
<!-- 3&#45;&gt;265636 -->
<g id="edge25" class="edge">
<title>3&#45;&gt;265636</title>
<path fill="none" stroke="#000000" d="M2385.1548,-161.4276C2512.8535,-158.5633 3054.3038,-144.451 3219,-108 3222.0012,-107.3358 3225.0638,-106.5046 3228.1118,-105.5664"/>
<polygon fill="#000000" stroke="#000000" points="3229.3794,-108.8319 3237.7039,-102.2781 3227.1093,-102.2102 3229.3794,-108.8319"/>
</g>
<!-- 266177 -->
<g id="node69" class="node">
<title>266177</title>
<ellipse fill="none" stroke="#000000" cx="3357" cy="-90" rx="37.0935" ry="18"/>
<text text-anchor="middle" x="3357" y="-86.3" font-family="Times,serif" font-size="14.00" fill="#000000">266177</text>
</g>
<!-- 3&#45;&gt;266177 -->
<g id="edge26" class="edge">
<title>3&#45;&gt;266177</title>
<path fill="none" stroke="#000000" d="M2385.2916,-161.6146C2521.3869,-159.5164 3127.4361,-148.0464 3311,-108 3314.0032,-107.3448 3317.0673,-106.5202 3320.1162,-105.5865"/>
<polygon fill="#000000" stroke="#000000" points="3321.3802,-108.8533 3329.7102,-102.3064 3319.1156,-102.2298 3321.3802,-108.8533"/>
</g>
<!-- 266491 -->
<g id="node70" class="node">
<title>266491</title>
<ellipse fill="none" stroke="#000000" cx="3449" cy="-90" rx="37.0935" ry="18"/>
<text text-anchor="middle" x="3449" y="-86.3" font-family="Times,serif" font-size="14.00" fill="#000000">266491</text>
</g>
<!-- 3&#45;&gt;266491 -->
<g id="edge27" class="edge">
<title>3&#45;&gt;266491</title>
<path fill="none" stroke="#000000" d="M2385.0306,-161.774C2528.3353,-160.3987 3200.3291,-151.6871 3403,-108 3406.0049,-107.3523 3409.0701,-106.5331 3412.1198,-105.6031"/>
<polygon fill="#000000" stroke="#000000" points="3413.3808,-108.871 3421.7152,-102.3298 3411.1207,-102.2459 3413.3808,-108.871"/>
</g>
<!-- 267360 -->
<g id="node71" class="node">
<title>267360</title>
<ellipse fill="none" stroke="#000000" cx="3541" cy="-90" rx="37.0935" ry="18"/>
<text text-anchor="middle" x="3541" y="-86.3" font-family="Times,serif" font-size="14.00" fill="#000000">267360</text>
</g>
<!-- 3&#45;&gt;267360 -->
<g id="edge28" class="edge">
<title>3&#45;&gt;267360</title>
<path fill="none" stroke="#000000" d="M2385.3925,-161.9028C2536.9038,-161.1831 3273.4669,-155.2697 3495,-108 3498.0062,-107.3586 3501.0724,-106.5439 3504.1228,-105.617"/>
<polygon fill="#000000" stroke="#000000" points="3505.3813,-108.8859 3513.7194,-102.3494 3503.125,-102.2595 3505.3813,-108.8859"/>
</g>
<!-- 394432 -->
<g id="node72" class="node">
<title>394432</title>
<ellipse fill="none" stroke="#000000" cx="3633" cy="-90" rx="37.0935" ry="18"/>
<text text-anchor="middle" x="3633" y="-86.3" font-family="Times,serif" font-size="14.00" fill="#000000">394432</text>
</g>
<!-- 3&#45;&gt;394432 -->
<g id="edge29" class="edge">
<title>3&#45;&gt;394432</title>
<path fill="none" stroke="#000000" d="M2385.1845,-161.3411C2554.9124,-157.1561 3465.8086,-133.6346 3587,-108 3590.0073,-107.3639 3593.0743,-106.553 3596.1253,-105.6288"/>
<polygon fill="#000000" stroke="#000000" points="3597.3816,-108.8985 3605.723,-102.3661 3595.1286,-102.271 3597.3816,-108.8985"/>
</g>
<!-- 209 -->
<g id="node3" class="node">
<title>209</title>
<ellipse fill="none" stroke="#000000" cx="99" cy="-18" rx="27" ry="18"/>
<text text-anchor="middle" x="99" y="-14.3" font-family="Times,serif" font-size="14.00" fill="#000000">209</text>
</g>
<!-- 701 -->
<g id="node5" class="node">
<title>701</title>
<ellipse fill="none" stroke="#000000" cx="171" cy="-18" rx="27" ry="18"/>
<text text-anchor="middle" x="171" y="-14.3" font-family="Times,serif" font-size="14.00" fill="#000000">701</text>
</g>
<!-- 703 -->
<g id="node6" class="node">
<title>703</title>
<ellipse fill="none" stroke="#000000" cx="2016" cy="-18" rx="27" ry="18"/>
<text text-anchor="middle" x="2016" y="-14.3" font-family="Times,serif" font-size="14.00" fill="#000000">703</text>
</g>
<!-- 1239 -->
<g id="node7" class="node">
<title>1239</title>
<ellipse fill="none" stroke="#000000" cx="245" cy="-18" rx="28.6953" ry="18"/>
<text text-anchor="middle" x="245" y="-14.3" font-family="Times,serif" font-size="14.00" fill="#000000">1239</text>
</g>
<!-- 1273 -->
<g id="node8" class="node">
<title>1273</title>
<ellipse fill="none" stroke="#000000" cx="320" cy="-18" rx="28.6953" ry="18"/>
<text text-anchor="middle" x="320" y="-14.3" font-family="Times,serif" font-size="14.00" fill="#000000">1273</text>
</g>
<!-- 1299 -->
<g id="node9" class="node">
<title>1299</title>
<ellipse fill="none" stroke="#000000" cx="395" cy="-18" rx="28.6953" ry="18"/>
<text text-anchor="middle" x="395" y="-14.3" font-family="Times,serif" font-size="14.00" fill="#000000">1299</text>
</g>
<!-- 2497 -->
<g id="node10" class="node">
<title>2497</title>
<ellipse fill="none" stroke="#000000" cx="470" cy="-18" rx="28.6953" ry="18"/>
<text text-anchor="middle" x="470" y="-14.3" font-family="Times,serif" font-size="14.00" fill="#000000">2497</text>
</g>
<!-- 2764 -->
<g id="node11" class="node">
<title>2764</title>
<ellipse fill="none" stroke="#000000" cx="2090" cy="-18" rx="28.6953" ry="18"/>
<text text-anchor="middle" x="2090" y="-14.3" font-family="Times,serif" font-size="14.00" fill="#000000">2764</text>
</g>
<!-- 2828 -->
<g id="node12" class="node">
<title>2828</title>
<ellipse fill="none" stroke="#000000" cx="2165" cy="-18" rx="28.6953" ry="18"/>
<text text-anchor="middle" x="2165" y="-14.3" font-family="Times,serif" font-size="14.00" fill="#000000">2828</text>
</g>
<!-- 2914 -->
<g id="node13" class="node">
<title>2914</title>
<ellipse fill="none" stroke="#000000" cx="545" cy="-18" rx="28.6953" ry="18"/>
<text text-anchor="middle" x="545" y="-14.3" font-family="Times,serif" font-size="14.00" fill="#000000">2914</text>
</g>
<!-- 3209 -->
<g id="node14" class="node">
<title>3209</title>
<ellipse fill="none" stroke="#000000" cx="3081" cy="-18" rx="28.6953" ry="18"/>
<text text-anchor="middle" x="3081" y="-14.3" font-family="Times,serif" font-size="14.00" fill="#000000">3209</text>
</g>
<!-- 3257 -->
<g id="node15" class="node">
<title>3257</title>
<ellipse fill="none" stroke="#000000" cx="620" cy="-18" rx="28.6953" ry="18"/>
<text text-anchor="middle" x="620" y="-14.3" font-family="Times,serif" font-size="14.00" fill="#000000">3257</text>
</g>
<!-- 3320 -->
<g id="node16" class="node">
<title>3320</title>
<ellipse fill="none" stroke="#000000" cx="695" cy="-18" rx="28.6953" ry="18"/>
<text text-anchor="middle" x="695" y="-14.3" font-family="Times,serif" font-size="14.00" fill="#000000">3320</text>
</g>
<!-- 3356&#45;&gt;174 -->
<g id="edge30" class="edge">
<title>3356&#45;&gt;174</title>
<path fill="none" stroke="#000000" d="M710.4357,-78.0354C705.2003,-75.6276 699.5174,-73.407 694,-72 421.81,-2.5906 334.4364,-108.3007 63,-36 61.025,-35.4739 59.0313,-34.8331 57.049,-34.1105"/>
<polygon fill="#000000" stroke="#000000" points="57.9423,-30.6859 47.3716,-29.9705 55.189,-37.1217 57.9423,-30.6859"/>
</g>
<!-- 3356&#45;&gt;209 -->
<g id="edge31" class="edge">
<title>3356&#45;&gt;209</title>
<path fill="none" stroke="#000000" d="M710.4282,-78.0647C705.1931,-75.6556 699.5122,-73.4271 694,-72 452.9877,-9.6005 375.335,-100.9595 135,-36 132.8625,-35.4223 130.7025,-34.7117 128.5585,-33.9102"/>
<polygon fill="#000000" stroke="#000000" points="129.947,-30.6975 119.3791,-29.9426 127.1697,-37.1229 129.947,-30.6975"/>
</g>
<!-- 3356&#45;&gt;701 -->
<g id="edge32" class="edge">
<title>3356&#45;&gt;701</title>
<path fill="none" stroke="#000000" d="M710.4183,-78.1025C705.1836,-75.6919 699.5054,-73.4532 694,-72 484.1529,-16.6071 416.2461,-93.6218 207,-36 204.8652,-35.4121 202.7074,-34.694 200.5649,-33.8869"/>
<polygon fill="#000000" stroke="#000000" points="201.9559,-30.6752 191.389,-29.9064 199.1701,-37.097 201.9559,-30.6752"/>
</g>
<!-- 3356&#45;&gt;1239 -->
<g id="edge33" class="edge">
<title>3356&#45;&gt;1239</title>
<path fill="none" stroke="#000000" d="M710.404,-78.1559C705.1699,-75.7431 699.4955,-73.49 694,-72 516.5962,-23.9003 459.1512,-85.0219 282,-36 280.0379,-35.457 278.054,-34.8119 276.0777,-34.094"/>
<polygon fill="#000000" stroke="#000000" points="276.9685,-30.6724 266.3929,-30.0352 274.2628,-37.1284 276.9685,-30.6724"/>
</g>
<!-- 3356&#45;&gt;1273 -->
<g id="edge34" class="edge">
<title>3356&#45;&gt;1273</title>
<path fill="none" stroke="#000000" d="M709.9794,-78.047C704.859,-75.7005 699.3404,-73.5033 694,-72 549.0053,-31.1842 501.7804,-77.5695 357,-36 355.0432,-35.4382 353.0635,-34.7783 351.0903,-34.0493"/>
<polygon fill="#000000" stroke="#000000" points="351.9876,-30.6289 341.4139,-29.9605 349.263,-37.0769 351.9876,-30.6289"/>
</g>
<!-- 3356&#45;&gt;1299 -->
<g id="edge35" class="edge">
<title>3356&#45;&gt;1299</title>
<path fill="none" stroke="#000000" d="M709.945,-78.166C704.8263,-75.8133 699.3171,-73.5836 694,-72 581.3513,-38.4502 544.4726,-70.1353 432,-36 430.1031,-35.4243 428.1828,-34.7619 426.2662,-34.0384"/>
<polygon fill="#000000" stroke="#000000" points="427.4147,-30.7235 416.8426,-30.0296 424.6745,-37.1649 427.4147,-30.7235"/>
</g>
<!-- 3356&#45;&gt;2497 -->
<g id="edge36" class="edge">
<title>3356&#45;&gt;2497</title>
<path fill="none" stroke="#000000" d="M709.8791,-78.3767C704.7639,-76.013 699.2728,-73.7256 694,-72 613.5609,-45.675 587.3011,-62.7431 507,-36 505.1193,-35.3736 503.2115,-34.6716 501.3047,-33.9176"/>
<polygon fill="#000000" stroke="#000000" points="502.4736,-30.6092 491.9078,-29.8248 499.6783,-37.0269 502.4736,-30.6092"/>
</g>
<!-- 3356&#45;&gt;2914 -->
<g id="edge37" class="edge">
<title>3356&#45;&gt;2914</title>
<path fill="none" stroke="#000000" d="M709.3065,-78.6555C704.3175,-76.3294 699.0232,-73.9871 694,-72 645.3798,-52.7671 630.5195,-55.4856 582,-36 580.3594,-35.3411 578.6901,-34.6414 577.0131,-33.9149"/>
<polygon fill="#000000" stroke="#000000" points="578.0197,-30.527 567.4692,-29.5588 575.1132,-36.8951 578.0197,-30.527"/>
</g>
<!-- 3356&#45;&gt;3257 -->
<g id="edge38" class="edge">
<title>3356&#45;&gt;3257</title>
<path fill="none" stroke="#000000" d="M711.9766,-77.1278C694.4071,-65.8332 668.6443,-49.2713 648.8509,-36.547"/>
<polygon fill="#000000" stroke="#000000" points="650.5321,-33.467 640.2276,-31.0035 646.7468,-39.3552 650.5321,-33.467"/>
</g>
<!-- 3356&#45;&gt;3320 -->
<g id="edge39" class="edge">
<title>3356&#45;&gt;3320</title>
<path fill="none" stroke="#000000" d="M723.0433,-72.5708C718.6803,-64.0807 713.3422,-53.6929 708.4985,-44.2674"/>
<polygon fill="#000000" stroke="#000000" points="711.5579,-42.5633 703.8742,-35.2687 705.3319,-45.7628 711.5579,-42.5633"/>
</g>
<!-- 3491 -->
<g id="node18" class="node">
<title>3491</title>
<ellipse fill="none" stroke="#000000" cx="770" cy="-18" rx="28.6953" ry="18"/>
<text text-anchor="middle" x="770" y="-14.3" font-family="Times,serif" font-size="14.00" fill="#000000">3491</text>
</g>
<!-- 3356&#45;&gt;3491 -->
<g id="edge40" class="edge">
<title>3356&#45;&gt;3491</title>
<path fill="none" stroke="#000000" d="M741.1987,-72.5708C745.6797,-64.0807 751.1621,-53.6929 756.1366,-44.2674"/>
<polygon fill="#000000" stroke="#000000" points="759.3137,-45.7462 760.886,-35.2687 753.123,-42.4789 759.3137,-45.7462"/>
</g>
<!-- 3549 -->
<g id="node19" class="node">
<title>3549</title>
<ellipse fill="none" stroke="#000000" cx="845" cy="-18" rx="28.6953" ry="18"/>
<text text-anchor="middle" x="845" y="-14.3" font-family="Times,serif" font-size="14.00" fill="#000000">3549</text>
</g>
<!-- 3356&#45;&gt;3549 -->
<g id="edge41" class="edge">
<title>3356&#45;&gt;3549</title>
<path fill="none" stroke="#000000" d="M752.2021,-77.1278C769.9285,-65.8332 795.9214,-49.2713 815.8915,-36.547"/>
<polygon fill="#000000" stroke="#000000" points="818.039,-39.3288 824.5918,-31.0035 814.2774,-33.4254 818.039,-39.3288"/>
</g>
<!-- 5511 -->
<g id="node21" class="node">
<title>5511</title>
<ellipse fill="none" stroke="#000000" cx="920" cy="-18" rx="28.6953" ry="18"/>
<text text-anchor="middle" x="920" y="-14.3" font-family="Times,serif" font-size="14.00" fill="#000000">5511</text>
</g>
<!-- 3356&#45;&gt;5511 -->
<g id="edge42" class="edge">
<title>3356&#45;&gt;5511</title>
<path fill="none" stroke="#000000" d="M757.707,-81.7609C788.021,-71.8269 839.7564,-54.1869 883,-36 884.6297,-35.3146 886.2902,-34.5935 887.9602,-33.8499"/>
<polygon fill="#000000" stroke="#000000" points="889.8791,-36.8184 897.4816,-29.4392 886.9367,-30.4668 889.8791,-36.8184"/>
</g>
<!-- 6453 -->
<g id="node22" class="node">
<title>6453</title>
<ellipse fill="none" stroke="#000000" cx="995" cy="-18" rx="28.6953" ry="18"/>
<text text-anchor="middle" x="995" y="-14.3" font-family="Times,serif" font-size="14.00" fill="#000000">6453</text>
</g>
<!-- 3356&#45;&gt;6453 -->
<g id="edge43" class="edge">
<title>3356&#45;&gt;6453</title>
<path fill="none" stroke="#000000" d="M759.6947,-85.3991C802.8731,-77.7798 888.4933,-60.8736 958,-36 959.8664,-35.3321 961.7629,-34.5975 963.6611,-33.8185"/>
<polygon fill="#000000" stroke="#000000" points="965.3149,-36.9137 973.0342,-29.6568 962.4742,-30.516 965.3149,-36.9137"/>
</g>
<!-- 6461 -->
<g id="node23" class="node">
<title>6461</title>
<ellipse fill="none" stroke="#000000" cx="1070" cy="-18" rx="28.6953" ry="18"/>
<text text-anchor="middle" x="1070" y="-14.3" font-family="Times,serif" font-size="14.00" fill="#000000">6461</text>
</g>
<!-- 3356&#45;&gt;6461 -->
<g id="edge44" class="edge">
<title>3356&#45;&gt;6461</title>
<path fill="none" stroke="#000000" d="M760.4363,-87.528C814.6004,-82.2485 935.8326,-67.6776 1033,-36 1034.8847,-35.3856 1036.7955,-34.6929 1038.7047,-33.946"/>
<polygon fill="#000000" stroke="#000000" points="1040.323,-37.0594 1048.1081,-29.873 1037.5408,-30.636 1040.323,-37.0594"/>
</g>
<!-- 6762 -->
<g id="node24" class="node">
<title>6762</title>
<ellipse fill="none" stroke="#000000" cx="1145" cy="-18" rx="28.6953" ry="18"/>
<text text-anchor="middle" x="1145" y="-14.3" font-family="Times,serif" font-size="14.00" fill="#000000">6762</text>
</g>
<!-- 3356&#45;&gt;6762 -->
<g id="edge45" class="edge">
<title>3356&#45;&gt;6762</title>
<path fill="none" stroke="#000000" d="M760.9609,-88.8862C824.9269,-85.7728 982.5373,-74.4956 1108,-36 1109.8951,-35.4185 1111.8141,-34.7516 1113.7296,-34.0246"/>
<polygon fill="#000000" stroke="#000000" points="1115.3253,-37.1491 1123.1503,-30.0063 1112.5788,-30.7104 1115.3253,-37.1491"/>
</g>
<!-- 7018 -->
<g id="node27" class="node">
<title>7018</title>
<ellipse fill="none" stroke="#000000" cx="1220" cy="-18" rx="28.6953" ry="18"/>
<text text-anchor="middle" x="1220" y="-14.3" font-family="Times,serif" font-size="14.00" fill="#000000">7018</text>
</g>
<!-- 3356&#45;&gt;7018 -->
<g id="edge46" class="edge">
<title>3356&#45;&gt;7018</title>
<path fill="none" stroke="#000000" d="M760.5866,-87.8286C846.7465,-81.0874 1102.9,-59.552 1183,-36 1184.9018,-35.4408 1186.826,-34.7914 1188.7455,-34.0778"/>
<polygon fill="#000000" stroke="#000000" points="1190.3256,-37.2099 1198.1773,-30.0964 1187.6033,-30.7609 1190.3256,-37.2099"/>
</g>
<!-- 12956 -->
<g id="node34" class="node">
<title>12956</title>
<ellipse fill="none" stroke="#000000" cx="1299" cy="-18" rx="32.4942" ry="18"/>
<text text-anchor="middle" x="1299" y="-14.3" font-family="Times,serif" font-size="14.00" fill="#000000">12956</text>
</g>
<!-- 3356&#45;&gt;12956 -->
<g id="edge47" class="edge">
<title>3356&#45;&gt;12956</title>
<path fill="none" stroke="#000000" d="M760.479,-88.247C855.7165,-82.202 1162.4708,-61.208 1258,-36 1260.4335,-35.3579 1262.9072,-34.5903 1265.372,-33.7392"/>
<polygon fill="#000000" stroke="#000000" points="1266.6589,-36.9943 1274.731,-30.1319 1264.1413,-30.4626 1266.6589,-36.9943"/>
</g>
<!-- 4637 -->
<g id="node20" class="node">
<title>4637</title>
<ellipse fill="none" stroke="#000000" cx="2240" cy="-18" rx="28.6953" ry="18"/>
<text text-anchor="middle" x="2240" y="-14.3" font-family="Times,serif" font-size="14.00" fill="#000000">4637</text>
</g>
<!-- 7922 -->
<g id="node32" class="node">
<title>7922</title>
<ellipse fill="none" stroke="#000000" cx="1378" cy="-18" rx="28.6953" ry="18"/>
<text text-anchor="middle" x="1378" y="-14.3" font-family="Times,serif" font-size="14.00" fill="#000000">7922</text>
</g>
<!-- 7015&#45;&gt;7922 -->
<g id="edge48" class="edge">
<title>7015&#45;&gt;7922</title>
<path fill="none" stroke="#000000" d="M1517.4105,-78.7249C1512.676,-76.4423 1507.6951,-74.0998 1503,-72 1464.4248,-54.748 1453.5752,-53.252 1415,-36 1413.3861,-35.2782 1411.7384,-34.5277 1410.0785,-33.7608"/>
<polygon fill="#000000" stroke="#000000" points="1411.1261,-30.3848 1400.5895,-29.2751 1408.1344,-36.7133 1411.1261,-30.3848"/>
</g>
<!-- 7303 -->
<g id="node29" class="node">
<title>7303</title>
<ellipse fill="none" stroke="#000000" cx="1860" cy="-18" rx="28.6953" ry="18"/>
<text text-anchor="middle" x="1860" y="-14.3" font-family="Times,serif" font-size="14.00" fill="#000000">7303</text>
</g>
<!-- 7474 -->
<g id="node30" class="node">
<title>7474</title>
<ellipse fill="none" stroke="#000000" cx="2315" cy="-18" rx="28.6953" ry="18"/>
<text text-anchor="middle" x="2315" y="-14.3" font-family="Times,serif" font-size="14.00" fill="#000000">7474</text>
</g>
<!-- 7632 -->
<g id="node31" class="node">
<title>7632</title>
<ellipse fill="none" stroke="#000000" cx="1453" cy="-18" rx="28.6953" ry="18"/>
<text text-anchor="middle" x="1453" y="-14.3" font-family="Times,serif" font-size="14.00" fill="#000000">7632</text>
</g>
<!-- 18103 -->
<g id="node35" class="node">
<title>18103</title>
<ellipse fill="none" stroke="#000000" cx="1532" cy="-18" rx="32.4942" ry="18"/>
<text text-anchor="middle" x="1532" y="-14.3" font-family="Times,serif" font-size="14.00" fill="#000000">18103</text>
</g>
<!-- 18351 -->
<g id="node36" class="node">
<title>18351</title>
<ellipse fill="none" stroke="#000000" cx="2726" cy="-18" rx="32.4942" ry="18"/>
<text text-anchor="middle" x="2726" y="-14.3" font-family="Times,serif" font-size="14.00" fill="#000000">18351</text>
</g>
<!-- 18365&#45;&gt;7632 -->
<g id="edge49" class="edge">
<title>18365&#45;&gt;7632</title>
<path fill="none" stroke="#000000" d="M1752.0646,-78.0656C1746.5413,-75.7762 1740.6488,-73.598 1735,-72 1629.521,-42.1609 1595.9013,-67.8106 1491,-36 1488.8431,-35.3459 1486.6538,-34.5878 1484.4712,-33.7603"/>
<polygon fill="#000000" stroke="#000000" points="1485.641,-30.4552 1475.0668,-29.7948 1482.9213,-36.9052 1485.641,-30.4552"/>
</g>
<!-- 18365&#45;&gt;18103 -->
<g id="edge50" class="edge">
<title>18365&#45;&gt;18103</title>
<path fill="none" stroke="#000000" d="M1751.9698,-78.3787C1746.4524,-76.0698 1740.5863,-73.8045 1735,-72 1665.2272,-49.4622 1643.7728,-58.5378 1574,-36 1571.556,-35.2105 1569.0584,-34.3329 1566.56,-33.402"/>
<polygon fill="#000000" stroke="#000000" points="1567.6161,-30.0557 1557.0302,-29.6213 1565.0348,-36.5623 1567.6161,-30.0557"/>
</g>
<!-- 23947 -->
<g id="node41" class="node">
<title>23947</title>
<ellipse fill="none" stroke="#000000" cx="1615" cy="-18" rx="32.4942" ry="18"/>
<text text-anchor="middle" x="1615" y="-14.3" font-family="Times,serif" font-size="14.00" fill="#000000">23947</text>
</g>
<!-- 18365&#45;&gt;23947 -->
<g id="edge51" class="edge">
<title>18365&#45;&gt;23947</title>
<path fill="none" stroke="#000000" d="M1751.3306,-78.5914C1723.9588,-66.4261 1680.4398,-47.0843 1649.9528,-33.5346"/>
<polygon fill="#000000" stroke="#000000" points="1651.1089,-30.2183 1640.5493,-29.3552 1648.2659,-36.615 1651.1089,-30.2183"/>
</g>
<!-- 38511 -->
<g id="node50" class="node">
<title>38511</title>
<ellipse fill="none" stroke="#000000" cx="1698" cy="-18" rx="32.4942" ry="18"/>
<text text-anchor="middle" x="1698" y="-14.3" font-family="Times,serif" font-size="14.00" fill="#000000">38511</text>
</g>
<!-- 18365&#45;&gt;38511 -->
<g id="edge52" class="edge">
<title>18365&#45;&gt;38511</title>
<path fill="none" stroke="#000000" d="M1759.8582,-74.3771C1748.9883,-64.4703 1734.7501,-51.4938 1722.6744,-40.4881"/>
<polygon fill="#000000" stroke="#000000" points="1724.8569,-37.7417 1715.1084,-33.5924 1720.1417,-42.9153 1724.8569,-37.7417"/>
</g>
<!-- 63859 -->
<g id="node59" class="node">
<title>63859</title>
<ellipse fill="none" stroke="#000000" cx="1781" cy="-18" rx="32.4942" ry="18"/>
<text text-anchor="middle" x="1781" y="-14.3" font-family="Times,serif" font-size="14.00" fill="#000000">63859</text>
</g>
<!-- 18365&#45;&gt;63859 -->
<g id="edge53" class="edge">
<title>18365&#45;&gt;63859</title>
<path fill="none" stroke="#000000" d="M1778.0094,-71.8314C1778.4372,-64.131 1778.9459,-54.9743 1779.4213,-46.4166"/>
<polygon fill="#000000" stroke="#000000" points="1782.9169,-46.592 1779.977,-36.4133 1775.9276,-46.2037 1782.9169,-46.592"/>
</g>
<!-- 20207 -->
<g id="node38" class="node">
<title>20207</title>
<ellipse fill="none" stroke="#000000" cx="1939" cy="-18" rx="32.4942" ry="18"/>
<text text-anchor="middle" x="1939" y="-14.3" font-family="Times,serif" font-size="14.00" fill="#000000">20207</text>
</g>
<!-- 23520 -->
<g id="node40" class="node">
<title>23520</title>
<ellipse fill="none" stroke="#000000" cx="3182" cy="-18" rx="32.4942" ry="18"/>
<text text-anchor="middle" x="3182" y="-14.3" font-family="Times,serif" font-size="14.00" fill="#000000">23520</text>
</g>
<!-- 27787&#45;&gt;7303 -->
<g id="edge54" class="edge">
<title>27787&#45;&gt;7303</title>
<path fill="none" stroke="#000000" d="M1925.3978,-74.7307C1913.5758,-64.4754 1897.8287,-50.8153 1884.7493,-39.4693"/>
<polygon fill="#000000" stroke="#000000" points="1886.8565,-36.6638 1877.0091,-32.7549 1882.2695,-41.9516 1886.8565,-36.6638"/>
</g>
<!-- 27787&#45;&gt;20207 -->
<g id="edge55" class="edge">
<title>27787&#45;&gt;20207</title>
<path fill="none" stroke="#000000" d="M1941.9906,-71.8314C1941.5628,-64.131 1941.0541,-54.9743 1940.5787,-46.4166"/>
<polygon fill="#000000" stroke="#000000" points="1944.0724,-46.2037 1940.023,-36.4133 1937.0831,-46.592 1944.0724,-46.2037"/>
</g>
<!-- 28022 -->
<g id="node43" class="node">
<title>28022</title>
<ellipse fill="none" stroke="#000000" cx="3265" cy="-18" rx="32.4942" ry="18"/>
<text text-anchor="middle" x="3265" y="-14.3" font-family="Times,serif" font-size="14.00" fill="#000000">28022</text>
</g>
<!-- 32787&#45;&gt;703 -->
<g id="edge56" class="edge">
<title>32787&#45;&gt;703</title>
<path fill="none" stroke="#000000" d="M2023.4766,-71.8314C2022.4071,-64.131 2021.1353,-54.9743 2019.9468,-46.4166"/>
<polygon fill="#000000" stroke="#000000" points="2023.3999,-45.8367 2018.5574,-36.4133 2016.4664,-46.7997 2023.3999,-45.8367"/>
</g>
<!-- 32787&#45;&gt;2764 -->
<g id="edge57" class="edge">
<title>32787&#45;&gt;2764</title>
<path fill="none" stroke="#000000" d="M2040.5226,-73.6621C2048.9866,-64.1401 2059.8038,-51.9707 2069.164,-41.4405"/>
<polygon fill="#000000" stroke="#000000" points="2071.947,-43.5779 2075.9747,-33.7784 2066.7151,-38.9273 2071.947,-43.5779"/>
</g>
<!-- 32787&#45;&gt;2828 -->
<g id="edge58" class="edge">
<title>32787&#45;&gt;2828</title>
<path fill="none" stroke="#000000" d="M2049.895,-77.6228C2073.0213,-65.6437 2108.2094,-47.4167 2133.5906,-34.2696"/>
<polygon fill="#000000" stroke="#000000" points="2135.5228,-37.2105 2142.7925,-29.5032 2132.3032,-30.9949 2135.5228,-37.2105"/>
</g>
<!-- 32787&#45;&gt;4637 -->
<g id="edge59" class="edge">
<title>32787&#45;&gt;4637</title>
<path fill="none" stroke="#000000" d="M2051.0875,-78.5501C2056.6013,-76.2305 2062.4515,-73.9175 2068,-72 2126.6906,-51.7167 2144.8118,-57.6826 2203,-36 2204.8575,-35.3078 2206.7471,-34.5542 2208.64,-33.7606"/>
<polygon fill="#000000" stroke="#000000" points="2210.3094,-36.8477 2217.9983,-29.5587 2207.4421,-30.4619 2210.3094,-36.8477"/>
</g>
<!-- 32787&#45;&gt;7474 -->
<g id="edge60" class="edge">
<title>32787&#45;&gt;7474</title>
<path fill="none" stroke="#000000" d="M2050.9642,-78.1652C2056.4857,-75.8696 2062.3702,-73.6637 2068,-72 2158.8126,-45.1637 2187.8559,-65.0027 2278,-36 2279.887,-35.3929 2281.7997,-34.7059 2283.7103,-33.9634"/>
<polygon fill="#000000" stroke="#000000" points="2285.3237,-37.0792 2293.1176,-29.9025 2282.5494,-30.6524 2285.3237,-37.0792"/>
</g>
<!-- 34779 -->
<g id="node46" class="node">
<title>34779</title>
<ellipse fill="none" stroke="#000000" cx="2643" cy="-18" rx="32.4942" ry="18"/>
<text text-anchor="middle" x="2643" y="-14.3" font-family="Times,serif" font-size="14.00" fill="#000000">34779</text>
</g>
<!-- 37254 -->
<g id="node47" class="node">
<title>37254</title>
<ellipse fill="none" stroke="#000000" cx="2394" cy="-18" rx="32.4942" ry="18"/>
<text text-anchor="middle" x="2394" y="-14.3" font-family="Times,serif" font-size="14.00" fill="#000000">37254</text>
</g>
<!-- 37642&#45;&gt;37254 -->
<g id="edge61" class="edge">
<title>37642&#45;&gt;37254</title>
<path fill="none" stroke="#000000" d="M2217.5844,-78.5004C2222.9629,-76.2341 2228.6332,-73.955 2234,-72 2285.9187,-53.0876 2301.165,-55.1406 2353,-36 2355.0738,-35.2342 2357.1928,-34.4165 2359.3214,-33.5677"/>
<polygon fill="#000000" stroke="#000000" points="2360.711,-36.7805 2368.6043,-29.7133 2358.0266,-30.3156 2360.711,-36.7805"/>
</g>
<!-- 37662 -->
<g id="node49" class="node">
<title>37662</title>
<ellipse fill="none" stroke="#000000" cx="2477" cy="-18" rx="32.4942" ry="18"/>
<text text-anchor="middle" x="2477" y="-14.3" font-family="Times,serif" font-size="14.00" fill="#000000">37662</text>
</g>
<!-- 37642&#45;&gt;37662 -->
<g id="edge62" class="edge">
<title>37642&#45;&gt;37662</title>
<path fill="none" stroke="#000000" d="M2216.9737,-78.197C2222.4946,-75.8994 2228.3764,-73.6846 2234,-72 2320.9378,-45.9564 2348.0622,-62.0436 2435,-36 2437.4603,-35.263 2439.9701,-34.4245 2442.4774,-33.522"/>
<polygon fill="#000000" stroke="#000000" points="2443.9783,-36.6936 2452.0263,-29.803 2441.4379,-30.1708 2443.9783,-36.6936"/>
</g>
<!-- 49743 -->
<g id="node52" class="node">
<title>49743</title>
<ellipse fill="none" stroke="#000000" cx="2560" cy="-18" rx="32.4942" ry="18"/>
<text text-anchor="middle" x="2560" y="-14.3" font-family="Times,serif" font-size="14.00" fill="#000000">49743</text>
</g>
<!-- 43888&#45;&gt;49743 -->
<g id="edge63" class="edge">
<title>43888&#45;&gt;49743</title>
<path fill="none" stroke="#000000" d="M2299.9737,-78.197C2305.4946,-75.8994 2311.3764,-73.6846 2317,-72 2403.9378,-45.9564 2431.0622,-62.0436 2518,-36 2520.4603,-35.263 2522.9701,-34.4245 2525.4774,-33.522"/>
<polygon fill="#000000" stroke="#000000" points="2526.9783,-36.6936 2535.0263,-29.803 2524.4379,-30.1708 2526.9783,-36.6936"/>
</g>
<!-- 52468 -->
<g id="node53" class="node">
<title>52468</title>
<ellipse fill="none" stroke="#000000" cx="3348" cy="-18" rx="32.4942" ry="18"/>
<text text-anchor="middle" x="3348" y="-14.3" font-family="Times,serif" font-size="14.00" fill="#000000">52468</text>
</g>
<!-- 56651&#45;&gt;34779 -->
<g id="edge64" class="edge">
<title>56651&#45;&gt;34779</title>
<path fill="none" stroke="#000000" d="M2382.9737,-78.197C2388.4946,-75.8994 2394.3764,-73.6846 2400,-72 2486.9378,-45.9564 2514.0622,-62.0436 2601,-36 2603.4603,-35.263 2605.9701,-34.4245 2608.4774,-33.522"/>
<polygon fill="#000000" stroke="#000000" points="2609.9783,-36.6936 2618.0263,-29.803 2607.4379,-30.1708 2609.9783,-36.6936"/>
</g>
<!-- 58682 -->
<g id="node55" class="node">
<title>58682</title>
<ellipse fill="none" stroke="#000000" cx="2895" cy="-18" rx="32.4942" ry="18"/>
<text text-anchor="middle" x="2895" y="-14.3" font-family="Times,serif" font-size="14.00" fill="#000000">58682</text>
</g>
<!-- 58689 -->
<g id="node56" class="node">
<title>58689</title>
<ellipse fill="none" stroke="#000000" cx="2978" cy="-18" rx="32.4942" ry="18"/>
<text text-anchor="middle" x="2978" y="-14.3" font-family="Times,serif" font-size="14.00" fill="#000000">58689</text>
</g>
<!-- 59203 -->
<g id="node57" class="node">
<title>59203</title>
<ellipse fill="none" stroke="#000000" cx="2809" cy="-18" rx="32.4942" ry="18"/>
<text text-anchor="middle" x="2809" y="-14.3" font-family="Times,serif" font-size="14.00" fill="#000000">59203</text>
</g>
<!-- 131758&#45;&gt;18351 -->
<g id="edge65" class="edge">
<title>131758&#45;&gt;18351</title>
<path fill="none" stroke="#000000" d="M2557.6194,-78.5255C2563.3545,-76.3041 2569.3527,-74.0358 2575,-72 2622.9949,-54.6982 2636.2872,-54.0652 2684,-36 2686.2536,-35.1468 2688.5636,-34.2426 2690.8851,-33.3116"/>
<polygon fill="#000000" stroke="#000000" points="2692.4678,-36.4448 2700.3767,-29.3949 2689.7977,-29.974 2692.4678,-36.4448"/>
</g>
<!-- 133957&#45;&gt;59203 -->
<g id="edge66" class="edge">
<title>133957&#45;&gt;59203</title>
<path fill="none" stroke="#000000" d="M2806.0094,-71.8314C2806.4372,-64.131 2806.9459,-54.9743 2807.4213,-46.4166"/>
<polygon fill="#000000" stroke="#000000" points="2810.9169,-46.592 2807.977,-36.4133 2803.9276,-46.2037 2810.9169,-46.592"/>
</g>
<!-- 135437&#45;&gt;58682 -->
<g id="edge67" class="edge">
<title>135437&#45;&gt;58682</title>
<path fill="none" stroke="#000000" d="M2896.4953,-71.8314C2896.2814,-64.131 2896.0271,-54.9743 2895.7894,-46.4166"/>
<polygon fill="#000000" stroke="#000000" points="2899.2879,-46.3122 2895.5115,-36.4133 2892.2906,-46.5066 2899.2879,-46.3122"/>
</g>
<!-- 135437&#45;&gt;58689 -->
<g id="edge68" class="edge">
<title>135437&#45;&gt;58689</title>
<path fill="none" stroke="#000000" d="M2914.9765,-74.0209C2926.1406,-64.0973 2940.6527,-51.1976 2952.9367,-40.2785"/>
<polygon fill="#000000" stroke="#000000" points="2955.4808,-42.6999 2960.6297,-33.4403 2950.8303,-37.468 2955.4808,-42.6999"/>
</g>
<!-- 204008&#45;&gt;3209 -->
<g id="edge69" class="edge">
<title>204008&#45;&gt;3209</title>
<path fill="none" stroke="#000000" d="M3081,-71.8314C3081,-64.131 3081,-54.9743 3081,-46.4166"/>
<polygon fill="#000000" stroke="#000000" points="3084.5001,-46.4132 3081,-36.4133 3077.5001,-46.4133 3084.5001,-46.4132"/>
</g>
<!-- 265636&#45;&gt;23520 -->
<g id="edge70" class="edge">
<title>265636&#45;&gt;23520</title>
<path fill="none" stroke="#000000" d="M3246.5796,-74.0209C3235.0615,-64.0293 3220.0656,-51.0208 3207.4239,-40.0544"/>
<polygon fill="#000000" stroke="#000000" points="3209.364,-37.104 3199.5166,-33.1951 3204.777,-42.3918 3209.364,-37.104"/>
</g>
<!-- 265636&#45;&gt;28022 -->
<g id="edge71" class="edge">
<title>265636&#45;&gt;28022</title>
<path fill="none" stroke="#000000" d="M3265,-71.8314C3265,-64.131 3265,-54.9743 3265,-46.4166"/>
<polygon fill="#000000" stroke="#000000" points="3268.5001,-46.4132 3265,-36.4133 3261.5001,-46.4133 3268.5001,-46.4132"/>
</g>
<!-- 265636&#45;&gt;52468 -->
<g id="edge72" class="edge">
<title>265636&#45;&gt;52468</title>
<path fill="none" stroke="#000000" d="M3283.4204,-74.0209C3294.9385,-64.0293 3309.9344,-51.0208 3322.5761,-40.0544"/>
<polygon fill="#000000" stroke="#000000" points="3325.223,-42.3918 3330.4834,-33.1951 3320.636,-37.104 3325.223,-42.3918"/>
</g>
</g>
</svg>
