<?xml version="1.0" encoding="UTF-8" standalone="no"?>
<!DOCTYPE svg PUBLIC "-//W3C//DTD SVG 1.1//EN"
 "http://www.w3.org/Graphics/SVG/1.1/DTD/svg11.dtd">
<!-- Generated by graphviz version 2.40.1 (20161225.0304)
 -->
<!-- Title: %3 Pages: 1 -->
<svg width="893pt" height="717pt"
 viewBox="0.00 0.00 893.45 716.86" xmlns="http://www.w3.org/2000/svg" xmlns:xlink="http://www.w3.org/1999/xlink">
<g id="graph0" class="graph" transform="scale(1 1) rotate(0) translate(4 712.8577)">
<title>%3</title>
<polygon fill="#ffffff" stroke="transparent" points="-4,4 -4,-712.8577 889.4507,-712.8577 889.4507,4 -4,4"/>
<!-- 3 -->
<g id="node1" class="node">
<title>3</title>
<ellipse fill="none" stroke="#000000" cx="382.7537" cy="-329.0585" rx="27" ry="18"/>
<text text-anchor="middle" x="382.7537" y="-325.3585" font-family="Times,serif" font-size="14.00" fill="#000000">3</text>
</g>
<!-- 174 -->
<g id="node2" class="node">
<title>174</title>
<ellipse fill="none" stroke="#000000" cx="558.5187" cy="-339.8645" rx="27" ry="18"/>
<text text-anchor="middle" x="558.5187" y="-336.1645" font-family="Times,serif" font-size="14.00" fill="#000000">174</text>
</g>
<!-- 3&#45;&gt;174 -->
<g id="edge1" class="edge">
<title>3&#45;&gt;174</title>
<path fill="none" stroke="#000000" d="M409.8318,-330.7232C439.6358,-332.5556 487.7399,-335.513 521.1284,-337.5657"/>
<polygon fill="#000000" stroke="#000000" points="521.2139,-341.0775 531.4099,-338.1978 521.6435,-334.0907 521.2139,-341.0775"/>
</g>
<!-- 293 -->
<g id="node4" class="node">
<title>293</title>
<ellipse fill="none" stroke="#000000" cx="401.4168" cy="-203.5566" rx="27" ry="18"/>
<text text-anchor="middle" x="401.4168" y="-199.8566" font-family="Times,serif" font-size="14.00" fill="#000000">293</text>
</g>
<!-- 3&#45;&gt;293 -->
<g id="edge2" class="edge">
<title>3&#45;&gt;293</title>
<path fill="none" stroke="#000000" d="M385.4277,-311.0771C388.5182,-290.2946 393.6416,-255.8418 397.2545,-231.5461"/>
<polygon fill="#000000" stroke="#000000" points="400.7387,-231.9106 398.7478,-221.5046 393.8149,-230.881 400.7387,-231.9106"/>
</g>
<!-- 3356 -->
<g id="node17" class="node">
<title>3356</title>
<ellipse fill="none" stroke="#000000" cx="702.6615" cy="-345.8801" rx="28.6953" ry="18"/>
<text text-anchor="middle" x="702.6615" y="-342.1801" font-family="Times,serif" font-size="14.00" fill="#000000">3356</text>
</g>
<!-- 3&#45;&gt;3356 -->
<g id="edge3" class="edge">
<title>3&#45;&gt;3356</title>
<path fill="none" stroke="#000000" d="M409.7532,-330.4782C466.4019,-333.4569 597.8551,-340.3691 663.6634,-343.8295"/>
<polygon fill="#000000" stroke="#000000" points="663.8494,-347.344 674.0194,-344.3741 664.2171,-340.3537 663.8494,-347.344"/>
</g>
<!-- 6939 -->
<g id="node25" class="node">
<title>6939</title>
<ellipse fill="none" stroke="#000000" cx="336.7742" cy="-297.8802" rx="28.6953" ry="18"/>
<text text-anchor="middle" x="336.7742" y="-294.1802" font-family="Times,serif" font-size="14.00" fill="#000000">6939</text>
</g>
<!-- 3&#45;&gt;6939 -->
<g id="edge4" class="edge">
<title>3&#45;&gt;6939</title>
<path fill="none" stroke="#000000" d="M363.7866,-316.1971C363.632,-316.0922 363.4771,-315.9872 363.3221,-315.8821"/>
<polygon fill="#000000" stroke="#000000" points="366.5333,-313.8308 356.2924,-311.1153 362.6047,-319.6245 366.5333,-313.8308"/>
</g>
<!-- 7015 -->
<g id="node26" class="node">
<title>7015</title>
<ellipse fill="none" stroke="#000000" cx="254.2339" cy="-425.2563" rx="28.6953" ry="18"/>
<text text-anchor="middle" x="254.2339" y="-421.5563" font-family="Times,serif" font-size="14.00" fill="#000000">7015</text>
</g>
<!-- 3&#45;&gt;7015 -->
<g id="edge5" class="edge">
<title>3&#45;&gt;7015</title>
<path fill="none" stroke="#000000" d="M364.6125,-342.6372C342.8255,-358.9449 306.0895,-386.442 281.0316,-405.1981"/>
<polygon fill="#000000" stroke="#000000" points="278.6074,-402.6407 272.6989,-411.4351 282.802,-408.2447 278.6074,-402.6407"/>
</g>
<!-- 7029 -->
<g id="node28" class="node">
<title>7029</title>
<ellipse fill="none" stroke="#000000" cx="435.7604" cy="-292.3021" rx="28.6953" ry="18"/>
<text text-anchor="middle" x="435.7604" y="-288.6021" font-family="Times,serif" font-size="14.00" fill="#000000">7029</text>
</g>
<!-- 3&#45;&gt;7029 -->
<g id="edge6" class="edge">
<title>3&#45;&gt;7029</title>
<path fill="none" stroke="#000000" d="M401.5911,-315.996C403.6741,-314.5516 405.8263,-313.0593 407.9897,-311.5591"/>
<polygon fill="#000000" stroke="#000000" points="410.0441,-314.3937 416.2673,-305.8192 406.0552,-308.6414 410.0441,-314.3937"/>
</g>
<!-- 10578 -->
<g id="node33" class="node">
<title>10578</title>
<ellipse fill="none" stroke="#000000" cx="453.8259" cy="-227.5398" rx="32.4942" ry="18"/>
<text text-anchor="middle" x="453.8259" y="-223.8398" font-family="Times,serif" font-size="14.00" fill="#000000">10578</text>
</g>
<!-- 3&#45;&gt;10578 -->
<g id="edge7" class="edge">
<title>3&#45;&gt;10578</title>
<path fill="none" stroke="#000000" d="M394.4898,-312.2947C405.858,-296.0566 423.2402,-271.2281 436.2573,-252.6345"/>
<polygon fill="#000000" stroke="#000000" points="439.2043,-254.5277 442.0723,-244.3284 433.47,-250.5131 439.2043,-254.5277"/>
</g>
<!-- 18365 -->
<g id="node37" class="node">
<title>18365</title>
<ellipse fill="none" stroke="#000000" cx="292.6597" cy="-569.8323" rx="32.4942" ry="18"/>
<text text-anchor="middle" x="292.6597" y="-566.1323" font-family="Times,serif" font-size="14.00" fill="#000000">18365</text>
</g>
<!-- 3&#45;&gt;18365 -->
<g id="edge8" class="edge">
<title>3&#45;&gt;18365</title>
<path fill="none" stroke="#000000" d="M376.1289,-346.7631C360.5416,-388.4197 321.462,-492.859 302.8379,-542.6315"/>
<polygon fill="#000000" stroke="#000000" points="299.5209,-541.5093 299.2943,-552.1017 306.0769,-543.9625 299.5209,-541.5093"/>
</g>
<!-- 23248 -->
<g id="node39" class="node">
<title>23248</title>
<ellipse fill="none" stroke="#000000" cx="420.268" cy="-370.7296" rx="32.4942" ry="18"/>
<text text-anchor="middle" x="420.268" y="-367.0296" font-family="Times,serif" font-size="14.00" fill="#000000">23248</text>
</g>
<!-- 3&#45;&gt;23248 -->
<g id="edge9" class="edge">
<title>3&#45;&gt;23248</title>
<path fill="none" stroke="#000000" d="M396.7226,-344.5752C397.4518,-345.3851 398.1912,-346.2065 398.9362,-347.0341"/>
<polygon fill="#000000" stroke="#000000" points="396.368,-349.4125 405.6599,-354.5028 401.5705,-344.729 396.368,-349.4125"/>
</g>
<!-- 27787 -->
<g id="node42" class="node">
<title>27787</title>
<ellipse fill="none" stroke="#000000" cx="369.0414" cy="-131.0395" rx="32.4942" ry="18"/>
<text text-anchor="middle" x="369.0414" y="-127.3395" font-family="Times,serif" font-size="14.00" fill="#000000">27787</text>
</g>
<!-- 3&#45;&gt;27787 -->
<g id="edge10" class="edge">
<title>3&#45;&gt;27787</title>
<path fill="none" stroke="#000000" d="M381.4883,-310.7842C379.0903,-276.1553 373.8691,-200.7563 371.01,-159.4678"/>
<polygon fill="#000000" stroke="#000000" points="374.4863,-159.0038 370.3038,-149.2695 367.5031,-159.4875 374.4863,-159.0038"/>
</g>
<!-- 32787 -->
<g id="node44" class="node">
<title>32787</title>
<ellipse fill="none" stroke="#000000" cx="171.2095" cy="-314.1128" rx="32.4942" ry="18"/>
<text text-anchor="middle" x="171.2095" y="-310.4128" font-family="Times,serif" font-size="14.00" fill="#000000">32787</text>
</g>
<!-- 3&#45;&gt;32787 -->
<g id="edge11" class="edge">
<title>3&#45;&gt;32787</title>
<path fill="none" stroke="#000000" d="M355.5311,-327.1352C319.5523,-324.5932 255.7946,-320.0887 213.511,-317.1014"/>
<polygon fill="#000000" stroke="#000000" points="213.7393,-313.6089 203.5175,-316.3953 213.2459,-320.5915 213.7393,-313.6089"/>
</g>
<!-- 33480 -->
<g id="node45" class="node">
<title>33480</title>
<ellipse fill="none" stroke="#000000" cx="298.413" cy="-256.1612" rx="32.4942" ry="18"/>
<text text-anchor="middle" x="298.413" y="-252.4612" font-family="Times,serif" font-size="14.00" fill="#000000">33480</text>
</g>
<!-- 3&#45;&gt;33480 -->
<g id="edge12" class="edge">
<title>3&#45;&gt;33480</title>
<path fill="none" stroke="#000000" d="M366.0907,-314.6563C354.0515,-304.2506 337.5694,-290.0049 323.8851,-278.1773"/>
<polygon fill="#000000" stroke="#000000" points="326.0605,-275.4313 316.2061,-271.5401 321.483,-280.7273 326.0605,-275.4313"/>
</g>
<!-- 37642 -->
<g id="node48" class="node">
<title>37642</title>
<ellipse fill="none" stroke="#000000" cx="176.5883" cy="-370.9664" rx="32.4942" ry="18"/>
<text text-anchor="middle" x="176.5883" y="-367.2664" font-family="Times,serif" font-size="14.00" fill="#000000">37642</text>
</g>
<!-- 3&#45;&gt;37642 -->
<g id="edge13" class="edge">
<title>3&#45;&gt;37642</title>
<path fill="none" stroke="#000000" d="M356.6427,-334.3661C321.4825,-341.5133 258.5648,-354.3027 217.1979,-362.7115"/>
<polygon fill="#000000" stroke="#000000" points="216.2776,-359.327 207.1752,-364.7489 217.672,-366.1867 216.2776,-359.327"/>
</g>
<!-- 43888 -->
<g id="node51" class="node">
<title>43888</title>
<ellipse fill="none" stroke="#000000" cx="493.0853" cy="-441.1066" rx="32.4942" ry="18"/>
<text text-anchor="middle" x="493.0853" y="-437.4066" font-family="Times,serif" font-size="14.00" fill="#000000">43888</text>
</g>
<!-- 3&#45;&gt;43888 -->
<g id="edge14" class="edge">
<title>3&#45;&gt;43888</title>
<path fill="none" stroke="#000000" d="M397.6335,-344.1698C416.2597,-363.0857 448.3584,-395.6838 470.1396,-417.8038"/>
<polygon fill="#000000" stroke="#000000" points="467.8643,-420.4816 477.3745,-425.1514 472.8521,-415.5702 467.8643,-420.4816"/>
</g>
<!-- 56651 -->
<g id="node54" class="node">
<title>56651</title>
<ellipse fill="none" stroke="#000000" cx="309.4535" cy="-452.3034" rx="32.4942" ry="18"/>
<text text-anchor="middle" x="309.4535" y="-448.6034" font-family="Times,serif" font-size="14.00" fill="#000000">56651</text>
</g>
<!-- 3&#45;&gt;56651 -->
<g id="edge15" class="edge">
<title>3&#45;&gt;56651</title>
<path fill="none" stroke="#000000" d="M372.7153,-345.9367C360.4076,-366.6305 339.4129,-401.9304 325.0091,-426.1487"/>
<polygon fill="#000000" stroke="#000000" points="321.9468,-424.4506 319.8432,-434.8345 327.9632,-428.0288 321.9468,-424.4506"/>
</g>
<!-- 59362 -->
<g id="node58" class="node">
<title>59362</title>
<ellipse fill="none" stroke="#000000" cx="337.2473" cy="-212.0145" rx="32.4942" ry="18"/>
<text text-anchor="middle" x="337.2473" y="-208.3145" font-family="Times,serif" font-size="14.00" fill="#000000">59362</text>
</g>
<!-- 3&#45;&gt;59362 -->
<g id="edge16" class="edge">
<title>3&#45;&gt;59362</title>
<path fill="none" stroke="#000000" d="M375.9409,-311.5358C368.5014,-292.4012 356.4929,-261.5148 347.8255,-239.2219"/>
<polygon fill="#000000" stroke="#000000" points="350.9926,-237.709 344.1066,-229.657 344.4683,-240.2456 350.9926,-237.709"/>
</g>
<!-- 131758 -->
<g id="node60" class="node">
<title>131758</title>
<ellipse fill="none" stroke="#000000" cx="244.409" cy="-237.0635" rx="37.0935" ry="18"/>
<text text-anchor="middle" x="244.409" y="-233.3635" font-family="Times,serif" font-size="14.00" fill="#000000">131758</text>
</g>
<!-- 3&#45;&gt;131758 -->
<g id="edge17" class="edge">
<title>3&#45;&gt;131758</title>
<path fill="none" stroke="#000000" d="M363.5175,-316.2669C340.6054,-301.0311 302.0421,-275.3877 275.0185,-257.4178"/>
<polygon fill="#000000" stroke="#000000" points="276.9496,-254.4988 266.6845,-251.876 273.0735,-260.3277 276.9496,-254.4988"/>
</g>
<!-- 133295 -->
<g id="node61" class="node">
<title>133295</title>
<ellipse fill="none" stroke="#000000" cx="382.1496" cy="-256.4827" rx="37.0935" ry="18"/>
<text text-anchor="middle" x="382.1496" y="-252.7827" font-family="Times,serif" font-size="14.00" fill="#000000">133295</text>
</g>
<!-- 3&#45;&gt;133295 -->
<g id="edge18" class="edge">
<title>3&#45;&gt;133295</title>
<path fill="none" stroke="#000000" d="M382.6013,-310.7445C382.5357,-302.8631 382.4575,-293.4684 382.3847,-284.7289"/>
<polygon fill="#000000" stroke="#000000" points="385.8831,-284.5098 382.2999,-274.5393 378.8834,-284.5682 385.8831,-284.5098"/>
</g>
<!-- 133296 -->
<g id="node62" class="node">
<title>133296</title>
<ellipse fill="none" stroke="#000000" cx="491.1512" cy="-320.7921" rx="37.0935" ry="18"/>
<text text-anchor="middle" x="491.1512" y="-317.0921" font-family="Times,serif" font-size="14.00" fill="#000000">133296</text>
</g>
<!-- 3&#45;&gt;133296 -->
<g id="edge19" class="edge">
<title>3&#45;&gt;133296</title>
<path fill="none" stroke="#000000" d="M409.8274,-326.9938C420.2065,-326.2023 432.3739,-325.2744 444.0886,-324.3811"/>
<polygon fill="#000000" stroke="#000000" points="444.5056,-327.8595 454.2104,-323.6092 443.9732,-320.8798 444.5056,-327.8595"/>
</g>
<!-- 133957 -->
<g id="node63" class="node">
<title>133957</title>
<ellipse fill="none" stroke="#000000" cx="446.2781" cy="-483.4909" rx="37.0935" ry="18"/>
<text text-anchor="middle" x="446.2781" y="-479.7909" font-family="Times,serif" font-size="14.00" fill="#000000">133957</text>
</g>
<!-- 3&#45;&gt;133957 -->
<g id="edge20" class="edge">
<title>3&#45;&gt;133957</title>
<path fill="none" stroke="#000000" d="M389.9173,-346.4736C400.8676,-373.0947 421.8689,-424.1503 434.9138,-455.8634"/>
<polygon fill="#000000" stroke="#000000" points="431.8057,-457.508 438.8468,-465.4247 438.2794,-454.845 431.8057,-457.508"/>
</g>
<!-- 135437 -->
<g id="node64" class="node">
<title>135437</title>
<ellipse fill="none" stroke="#000000" cx="473.8085" cy="-152.807" rx="37.0935" ry="18"/>
<text text-anchor="middle" x="473.8085" y="-149.107" font-family="Times,serif" font-size="14.00" fill="#000000">135437</text>
</g>
<!-- 3&#45;&gt;135437 -->
<g id="edge21" class="edge">
<title>3&#45;&gt;135437</title>
<path fill="none" stroke="#000000" d="M391.6502,-311.8378C407.5887,-280.9862 441.1106,-216.0991 460.0391,-179.4599"/>
<polygon fill="#000000" stroke="#000000" points="463.2606,-180.8496 464.741,-170.3587 457.0415,-177.6366 463.2606,-180.8496"/>
</g>
<!-- 137385 -->
<g id="node65" class="node">
<title>137385</title>
<ellipse fill="none" stroke="#000000" cx="308.2932" cy="-374.03" rx="37.0935" ry="18"/>
<text text-anchor="middle" x="308.2932" y="-370.33" font-family="Times,serif" font-size="14.00" fill="#000000">137385</text>
</g>
<!-- 3&#45;&gt;137385 -->
<g id="edge22" class="edge">
<title>3&#45;&gt;137385</title>
<path fill="none" stroke="#000000" d="M362.4071,-341.3471C355.5983,-345.4594 347.8337,-350.1489 340.3531,-354.6669"/>
<polygon fill="#000000" stroke="#000000" points="338.5268,-351.6811 331.7763,-359.847 342.1457,-357.673 338.5268,-351.6811"/>
</g>
<!-- 204008 -->
<g id="node66" class="node">
<title>204008</title>
<ellipse fill="none" stroke="#000000" cx="383.2522" cy="-483.2709" rx="37.0935" ry="18"/>
<text text-anchor="middle" x="383.2522" y="-479.5709" font-family="Times,serif" font-size="14.00" fill="#000000">204008</text>
</g>
<!-- 3&#45;&gt;204008 -->
<g id="edge23" class="edge">
<title>3&#45;&gt;204008</title>
<path fill="none" stroke="#000000" d="M382.8129,-347.3542C382.8987,-373.9035 383.0585,-423.3552 383.16,-454.7245"/>
<polygon fill="#000000" stroke="#000000" points="379.6608,-455.0103 383.1932,-464.9989 386.6607,-454.9876 379.6608,-455.0103"/>
</g>
<!-- 263531 -->
<g id="node67" class="node">
<title>263531</title>
<ellipse fill="none" stroke="#000000" cx="426.322" cy="-414.8947" rx="37.0935" ry="18"/>
<text text-anchor="middle" x="426.322" y="-411.1947" font-family="Times,serif" font-size="14.00" fill="#000000">263531</text>
</g>
<!-- 3&#45;&gt;263531 -->
<g id="edge24" class="edge">
<title>3&#45;&gt;263531</title>
<path fill="none" stroke="#000000" d="M391.5704,-346.4287C397.6716,-358.449 405.9065,-374.6731 412.8287,-388.3108"/>
<polygon fill="#000000" stroke="#000000" points="409.7217,-389.9227 417.3689,-397.2557 415.9637,-386.7544 409.7217,-389.9227"/>
</g>
<!-- 265636 -->
<g id="node68" class="node">
<title>265636</title>
<ellipse fill="none" stroke="#000000" cx="252.7682" cy="-145.6965" rx="37.0935" ry="18"/>
<text text-anchor="middle" x="252.7682" y="-141.9965" font-family="Times,serif" font-size="14.00" fill="#000000">265636</text>
</g>
<!-- 3&#45;&gt;265636 -->
<g id="edge25" class="edge">
<title>3&#45;&gt;265636</title>
<path fill="none" stroke="#000000" d="M370.9891,-312.4629C348.2517,-280.3887 298.1316,-209.6876 271.0272,-171.4533"/>
<polygon fill="#000000" stroke="#000000" points="273.6168,-169.0543 264.9782,-162.9204 267.9062,-173.1026 273.6168,-169.0543"/>
</g>
<!-- 266177 -->
<g id="node69" class="node">
<title>266177</title>
<ellipse fill="none" stroke="#000000" cx="480.1129" cy="-380.956" rx="37.0935" ry="18"/>
<text text-anchor="middle" x="480.1129" y="-377.256" font-family="Times,serif" font-size="14.00" fill="#000000">266177</text>
</g>
<!-- 3&#45;&gt;266177 -->
<g id="edge26" class="edge">
<title>3&#45;&gt;266177</title>
<path fill="none" stroke="#000000" d="M403.8792,-340.3195C416.1742,-346.8733 431.9658,-355.2911 445.9845,-362.7638"/>
<polygon fill="#000000" stroke="#000000" points="444.4152,-365.8934 454.8862,-367.5088 447.708,-359.7162 444.4152,-365.8934"/>
</g>
<!-- 266491 -->
<g id="node70" class="node">
<title>266491</title>
<ellipse fill="none" stroke="#000000" cx="367.0334" cy="-402.5253" rx="37.0935" ry="18"/>
<text text-anchor="middle" x="367.0334" y="-398.8253" font-family="Times,serif" font-size="14.00" fill="#000000">266491</text>
</g>
<!-- 3&#45;&gt;266491 -->
<g id="edge27" class="edge">
<title>3&#45;&gt;266491</title>
<path fill="none" stroke="#000000" d="M378.8678,-347.2188C377.0973,-355.4927 374.9619,-365.4726 372.9951,-374.6642"/>
<polygon fill="#000000" stroke="#000000" points="369.5446,-374.0628 370.8746,-384.5739 376.3896,-375.5276 369.5446,-374.0628"/>
</g>
<!-- 267360 -->
<g id="node71" class="node">
<title>267360</title>
<ellipse fill="none" stroke="#000000" cx="491.3374" cy="-264.95" rx="37.0935" ry="18"/>
<text text-anchor="middle" x="491.3374" y="-261.25" font-family="Times,serif" font-size="14.00" fill="#000000">267360</text>
</g>
<!-- 3&#45;&gt;267360 -->
<g id="edge28" class="edge">
<title>3&#45;&gt;267360</title>
<path fill="none" stroke="#000000" d="M403.1775,-317.0002C418.7672,-307.7959 440.5602,-294.9292 458.5776,-284.2916"/>
<polygon fill="#000000" stroke="#000000" points="460.7708,-287.0612 467.6026,-278.9632 457.212,-281.0334 460.7708,-287.0612"/>
</g>
<!-- 394432 -->
<g id="node72" class="node">
<title>394432</title>
<ellipse fill="none" stroke="#000000" cx="277.1146" cy="-322.7734" rx="37.0935" ry="18"/>
<text text-anchor="middle" x="277.1146" y="-319.0734" font-family="Times,serif" font-size="14.00" fill="#000000">394432</text>
</g>
<!-- 3&#45;&gt;394432 -->
<g id="edge29" class="edge">
<title>3&#45;&gt;394432</title>
<path fill="none" stroke="#000000" d="M355.8232,-327.4562C346.1877,-326.8829 335.0251,-326.2188 324.1889,-325.5741"/>
<polygon fill="#000000" stroke="#000000" points="324.1503,-322.0657 313.9601,-324.9655 323.7345,-329.0533 324.1503,-322.0657"/>
</g>
<!-- 209 -->
<g id="node3" class="node">
<title>209</title>
<ellipse fill="none" stroke="#000000" cx="651.7972" cy="-288.0493" rx="27" ry="18"/>
<text text-anchor="middle" x="651.7972" y="-284.3493" font-family="Times,serif" font-size="14.00" fill="#000000">209</text>
</g>
<!-- 701 -->
<g id="node5" class="node">
<title>701</title>
<ellipse fill="none" stroke="#000000" cx="712.5313" cy="-407.7965" rx="27" ry="18"/>
<text text-anchor="middle" x="712.5313" y="-404.0965" font-family="Times,serif" font-size="14.00" fill="#000000">701</text>
</g>
<!-- 703 -->
<g id="node6" class="node">
<title>703</title>
<ellipse fill="none" stroke="#000000" cx="81.5485" cy="-353.474" rx="27" ry="18"/>
<text text-anchor="middle" x="81.5485" y="-349.774" font-family="Times,serif" font-size="14.00" fill="#000000">703</text>
</g>
<!-- 1239 -->
<g id="node7" class="node">
<title>1239</title>
<ellipse fill="none" stroke="#000000" cx="743.939" cy="-210.4385" rx="28.6953" ry="18"/>
<text text-anchor="middle" x="743.939" y="-206.7385" font-family="Times,serif" font-size="14.00" fill="#000000">1239</text>
</g>
<!-- 1273 -->
<g id="node8" class="node">
<title>1273</title>
<ellipse fill="none" stroke="#000000" cx="685.9186" cy="-224.6596" rx="28.6953" ry="18"/>
<text text-anchor="middle" x="685.9186" y="-220.9596" font-family="Times,serif" font-size="14.00" fill="#000000">1273</text>
</g>
<!-- 1299 -->
<g id="node9" class="node">
<title>1299</title>
<ellipse fill="none" stroke="#000000" cx="783.1469" cy="-244.8654" rx="28.6953" ry="18"/>
<text text-anchor="middle" x="783.1469" y="-241.1654" font-family="Times,serif" font-size="14.00" fill="#000000">1299</text>
</g>
<!-- 2497 -->
<g id="node10" class="node">
<title>2497</title>
<ellipse fill="none" stroke="#000000" cx="651.4999" cy="-409.5308" rx="28.6953" ry="18"/>
<text text-anchor="middle" x="651.4999" y="-405.8308" font-family="Times,serif" font-size="14.00" fill="#000000">2497</text>
</g>
<!-- 2764 -->
<g id="node11" class="node">
<title>2764</title>
<ellipse fill="none" stroke="#000000" cx="166.8216" cy="-411.1662" rx="28.6953" ry="18"/>
<text text-anchor="middle" x="166.8216" y="-407.4662" font-family="Times,serif" font-size="14.00" fill="#000000">2764</text>
</g>
<!-- 2828 -->
<g id="node12" class="node">
<title>2828</title>
<ellipse fill="none" stroke="#000000" cx="159.9104" cy="-258.8448" rx="28.6953" ry="18"/>
<text text-anchor="middle" x="159.9104" y="-255.1448" font-family="Times,serif" font-size="14.00" fill="#000000">2828</text>
</g>
<!-- 2914 -->
<g id="node13" class="node">
<title>2914</title>
<ellipse fill="none" stroke="#000000" cx="856.8533" cy="-356.0945" rx="28.6953" ry="18"/>
<text text-anchor="middle" x="856.8533" y="-352.3945" font-family="Times,serif" font-size="14.00" fill="#000000">2914</text>
</g>
<!-- 3209 -->
<g id="node14" class="node">
<title>3209</title>
<ellipse fill="none" stroke="#000000" cx="402.7982" cy="-588.0989" rx="28.6953" ry="18"/>
<text text-anchor="middle" x="402.7982" y="-584.3989" font-family="Times,serif" font-size="14.00" fill="#000000">3209</text>
</g>
<!-- 3257 -->
<g id="node15" class="node">
<title>3257</title>
<ellipse fill="none" stroke="#000000" cx="765.9478" cy="-424.1713" rx="28.6953" ry="18"/>
<text text-anchor="middle" x="765.9478" y="-420.4713" font-family="Times,serif" font-size="14.00" fill="#000000">3257</text>
</g>
<!-- 3320 -->
<g id="node16" class="node">
<title>3320</title>
<ellipse fill="none" stroke="#000000" cx="717.2968" cy="-264.1514" rx="28.6953" ry="18"/>
<text text-anchor="middle" x="717.2968" y="-260.4514" font-family="Times,serif" font-size="14.00" fill="#000000">3320</text>
</g>
<!-- 3356&#45;&gt;174 -->
<g id="edge30" class="edge">
<title>3356&#45;&gt;174</title>
<path fill="none" stroke="#000000" d="M673.8385,-344.6772C651.5097,-343.7454 620.3922,-342.4467 596.1081,-341.4332"/>
<polygon fill="#000000" stroke="#000000" points="595.9641,-337.9243 585.8268,-341.0042 595.6722,-344.9182 595.9641,-337.9243"/>
</g>
<!-- 3356&#45;&gt;209 -->
<g id="edge31" class="edge">
<title>3356&#45;&gt;209</title>
<path fill="none" stroke="#000000" d="M688.7626,-330.0776C683.7162,-324.3401 677.9013,-317.7287 672.3994,-311.4733"/>
<polygon fill="#000000" stroke="#000000" points="674.9117,-309.0301 665.6793,-303.8327 669.6555,-313.6531 674.9117,-309.0301"/>
</g>
<!-- 3356&#45;&gt;701 -->
<g id="edge32" class="edge">
<title>3356&#45;&gt;701</title>
<path fill="none" stroke="#000000" d="M705.5694,-364.1222C706.3256,-368.8665 707.1588,-374.0931 707.9778,-379.2312"/>
<polygon fill="#000000" stroke="#000000" points="704.5794,-380.1465 709.6101,-389.4709 711.4922,-379.0445 704.5794,-380.1465"/>
</g>
<!-- 3356&#45;&gt;1239 -->
<g id="edge33" class="edge">
<title>3356&#45;&gt;1239</title>
<path fill="none" stroke="#000000" d="M708.0578,-328.1735C715.0724,-305.1567 727.3947,-264.7242 735.6124,-237.76"/>
<polygon fill="#000000" stroke="#000000" points="738.974,-238.7355 738.5414,-228.1495 732.2781,-236.6948 738.974,-238.7355"/>
</g>
<!-- 3356&#45;&gt;1273 -->
<g id="edge34" class="edge">
<title>3356&#45;&gt;1273</title>
<path fill="none" stroke="#000000" d="M700.1549,-327.7322C697.4177,-307.9148 692.9995,-275.9263 689.8106,-252.8378"/>
<polygon fill="#000000" stroke="#000000" points="693.2777,-252.3586 688.4423,-242.9316 686.3435,-253.3164 693.2777,-252.3586"/>
</g>
<!-- 3356&#45;&gt;1299 -->
<g id="edge35" class="edge">
<title>3356&#45;&gt;1299</title>
<path fill="none" stroke="#000000" d="M715.5928,-329.6504C728.6762,-313.2299 749.0517,-287.6572 764.006,-268.8885"/>
<polygon fill="#000000" stroke="#000000" points="766.7534,-271.057 770.2476,-261.0549 761.2787,-266.6949 766.7534,-271.057"/>
</g>
<!-- 3356&#45;&gt;2497 -->
<g id="edge36" class="edge">
<title>3356&#45;&gt;2497</title>
<path fill="none" stroke="#000000" d="M689.7512,-361.9419C684.0991,-368.9738 677.3429,-377.3792 671.0922,-385.1559"/>
<polygon fill="#000000" stroke="#000000" points="668.1209,-383.2658 664.584,-393.2528 673.5769,-387.6513 668.1209,-383.2658"/>
</g>
<!-- 3356&#45;&gt;2914 -->
<g id="edge37" class="edge">
<title>3356&#45;&gt;2914</title>
<path fill="none" stroke="#000000" d="M731.3024,-347.7775C755.7521,-349.3971 791.1358,-351.7411 818.1125,-353.5282"/>
<polygon fill="#000000" stroke="#000000" points="818.1562,-357.0387 828.3657,-354.2074 818.619,-350.054 818.1562,-357.0387"/>
</g>
<!-- 3356&#45;&gt;3257 -->
<g id="edge38" class="edge">
<title>3356&#45;&gt;3257</title>
<path fill="none" stroke="#000000" d="M715.7744,-362.1021C724.5994,-373.0194 736.3933,-387.6096 746.3292,-399.9012"/>
<polygon fill="#000000" stroke="#000000" points="743.8433,-402.3934 752.8517,-407.9701 749.2871,-397.9929 743.8433,-402.3934"/>
</g>
<!-- 3356&#45;&gt;3320 -->
<g id="edge39" class="edge">
<title>3356&#45;&gt;3320</title>
<path fill="none" stroke="#000000" d="M705.9095,-327.7419C707.7664,-317.3724 710.1359,-304.1402 712.2321,-292.4343"/>
<polygon fill="#000000" stroke="#000000" points="715.7402,-292.6994 714.0578,-282.239 708.8499,-291.4655 715.7402,-292.6994"/>
</g>
<!-- 3491 -->
<g id="node18" class="node">
<title>3491</title>
<ellipse fill="none" stroke="#000000" cx="829.5138" cy="-265.0377" rx="28.6953" ry="18"/>
<text text-anchor="middle" x="829.5138" y="-261.3377" font-family="Times,serif" font-size="14.00" fill="#000000">3491</text>
</g>
<!-- 3356&#45;&gt;3491 -->
<g id="edge40" class="edge">
<title>3356&#45;&gt;3491</title>
<path fill="none" stroke="#000000" d="M722.7616,-333.0704C743.6998,-319.7266 776.7045,-298.6928 800.4743,-283.5444"/>
<polygon fill="#000000" stroke="#000000" points="802.5357,-286.3811 809.0877,-278.0552 798.7736,-280.478 802.5357,-286.3811"/>
</g>
<!-- 3549 -->
<g id="node19" class="node">
<title>3549</title>
<ellipse fill="none" stroke="#000000" cx="760.8276" cy="-319.1254" rx="28.6953" ry="18"/>
<text text-anchor="middle" x="760.8276" y="-315.4254" font-family="Times,serif" font-size="14.00" fill="#000000">3549</text>
</g>
<!-- 3356&#45;&gt;3549 -->
<g id="edge41" class="edge">
<title>3356&#45;&gt;3549</title>
<path fill="none" stroke="#000000" d="M725.9847,-335.1521C726.6958,-334.825 727.4118,-334.4957 728.1307,-334.1651"/>
<polygon fill="#000000" stroke="#000000" points="729.8767,-337.2145 737.4991,-329.8558 726.9515,-330.855 729.8767,-337.2145"/>
</g>
<!-- 5511 -->
<g id="node21" class="node">
<title>5511</title>
<ellipse fill="none" stroke="#000000" cx="818.3664" cy="-316.3604" rx="28.6953" ry="18"/>
<text text-anchor="middle" x="818.3664" y="-312.6604" font-family="Times,serif" font-size="14.00" fill="#000000">5511</text>
</g>
<!-- 3356&#45;&gt;5511 -->
<g id="edge42" class="edge">
<title>3356&#45;&gt;5511</title>
<path fill="none" stroke="#000000" d="M729.2065,-339.1077C744.677,-335.1607 764.4216,-330.1233 781.3961,-325.7926"/>
<polygon fill="#000000" stroke="#000000" points="782.7198,-329.0671 791.5442,-323.2035 780.9893,-322.2843 782.7198,-329.0671"/>
</g>
<!-- 6453 -->
<g id="node22" class="node">
<title>6453</title>
<ellipse fill="none" stroke="#000000" cx="789.6525" cy="-374.9499" rx="28.6953" ry="18"/>
<text text-anchor="middle" x="789.6525" y="-371.2499" font-family="Times,serif" font-size="14.00" fill="#000000">6453</text>
</g>
<!-- 3356&#45;&gt;6453 -->
<g id="edge43" class="edge">
<title>3356&#45;&gt;6453</title>
<path fill="none" stroke="#000000" d="M728.2911,-354.4448C736.5206,-357.1948 745.7828,-360.29 754.5689,-363.226"/>
<polygon fill="#000000" stroke="#000000" points="753.6122,-366.5965 764.206,-366.4464 755.8309,-359.9574 753.6122,-366.5965"/>
</g>
<!-- 6461 -->
<g id="node23" class="node">
<title>6461</title>
<ellipse fill="none" stroke="#000000" cx="839.3575" cy="-407.0032" rx="28.6953" ry="18"/>
<text text-anchor="middle" x="839.3575" y="-403.3032" font-family="Times,serif" font-size="14.00" fill="#000000">6461</text>
</g>
<!-- 3356&#45;&gt;6461 -->
<g id="edge44" class="edge">
<title>3356&#45;&gt;6461</title>
<path fill="none" stroke="#000000" d="M726.1604,-356.3876C748.264,-366.2712 781.5721,-381.1647 806.3415,-392.2402"/>
<polygon fill="#000000" stroke="#000000" points="805.1501,-395.5415 815.7078,-396.4283 808.0076,-389.1512 805.1501,-395.5415"/>
</g>
<!-- 6762 -->
<g id="node24" class="node">
<title>6762</title>
<ellipse fill="none" stroke="#000000" cx="751.0949" cy="-481.4949" rx="28.6953" ry="18"/>
<text text-anchor="middle" x="751.0949" y="-477.7949" font-family="Times,serif" font-size="14.00" fill="#000000">6762</text>
</g>
<!-- 3356&#45;&gt;6762 -->
<g id="edge45" class="edge">
<title>3356&#45;&gt;6762</title>
<path fill="none" stroke="#000000" d="M708.9933,-363.6094C717.224,-386.6556 731.6825,-427.1398 741.3248,-454.1385"/>
<polygon fill="#000000" stroke="#000000" points="738.102,-455.5211 744.7615,-463.7613 744.6942,-453.1667 738.102,-455.5211"/>
</g>
<!-- 7018 -->
<g id="node27" class="node">
<title>7018</title>
<ellipse fill="none" stroke="#000000" cx="809.4606" cy="-456.5075" rx="28.6953" ry="18"/>
<text text-anchor="middle" x="809.4606" y="-452.8075" font-family="Times,serif" font-size="14.00" fill="#000000">7018</text>
</g>
<!-- 3356&#45;&gt;7018 -->
<g id="edge46" class="edge">
<title>3356&#45;&gt;7018</title>
<path fill="none" stroke="#000000" d="M717.9632,-361.7303C736.1478,-380.5668 766.6317,-412.1434 787.3721,-433.6272"/>
<polygon fill="#000000" stroke="#000000" points="785.068,-436.2798 794.5316,-441.0433 790.1042,-431.4179 785.068,-436.2798"/>
</g>
<!-- 12956 -->
<g id="node34" class="node">
<title>12956</title>
<ellipse fill="none" stroke="#000000" cx="693.1269" cy="-473.1845" rx="32.4942" ry="18"/>
<text text-anchor="middle" x="693.1269" y="-469.4845" font-family="Times,serif" font-size="14.00" fill="#000000">12956</text>
</g>
<!-- 3356&#45;&gt;12956 -->
<g id="edge47" class="edge">
<title>3356&#45;&gt;12956</title>
<path fill="none" stroke="#000000" d="M701.2954,-364.1198C699.7165,-385.2007 697.0991,-420.1483 695.2533,-444.793"/>
<polygon fill="#000000" stroke="#000000" points="691.7471,-444.7452 694.4904,-454.9788 698.7276,-445.2681 691.7471,-444.7452"/>
</g>
<!-- 4637 -->
<g id="node20" class="node">
<title>4637</title>
<ellipse fill="none" stroke="#000000" cx="41.8" cy="-291.4012" rx="28.6953" ry="18"/>
<text text-anchor="middle" x="41.8" y="-287.7012" font-family="Times,serif" font-size="14.00" fill="#000000">4637</text>
</g>
<!-- 7922 -->
<g id="node32" class="node">
<title>7922</title>
<ellipse fill="none" stroke="#000000" cx="157.4015" cy="-496.964" rx="28.6953" ry="18"/>
<text text-anchor="middle" x="157.4015" y="-493.264" font-family="Times,serif" font-size="14.00" fill="#000000">7922</text>
</g>
<!-- 7015&#45;&gt;7922 -->
<g id="edge48" class="edge">
<title>7015&#45;&gt;7922</title>
<path fill="none" stroke="#000000" d="M235.5636,-439.0822C220.962,-449.8952 200.4672,-465.0724 184.1272,-477.1727"/>
<polygon fill="#000000" stroke="#000000" points="181.9679,-474.4165 176.0144,-483.1805 186.1337,-480.042 181.9679,-474.4165"/>
</g>
<!-- 7303 -->
<g id="node29" class="node">
<title>7303</title>
<ellipse fill="none" stroke="#000000" cx="330.4714" cy="-24.5804" rx="28.6953" ry="18"/>
<text text-anchor="middle" x="330.4714" y="-20.8804" font-family="Times,serif" font-size="14.00" fill="#000000">7303</text>
</g>
<!-- 7474 -->
<g id="node30" class="node">
<title>7474</title>
<ellipse fill="none" stroke="#000000" cx="78.2846" cy="-242.0629" rx="28.6953" ry="18"/>
<text text-anchor="middle" x="78.2846" y="-238.3629" font-family="Times,serif" font-size="14.00" fill="#000000">7474</text>
</g>
<!-- 7632 -->
<g id="node31" class="node">
<title>7632</title>
<ellipse fill="none" stroke="#000000" cx="225.0477" cy="-635.0724" rx="28.6953" ry="18"/>
<text text-anchor="middle" x="225.0477" y="-631.3724" font-family="Times,serif" font-size="14.00" fill="#000000">7632</text>
</g>
<!-- 18103 -->
<g id="node35" class="node">
<title>18103</title>
<ellipse fill="none" stroke="#000000" cx="232.334" cy="-687.2711" rx="32.4942" ry="18"/>
<text text-anchor="middle" x="232.334" y="-683.5711" font-family="Times,serif" font-size="14.00" fill="#000000">18103</text>
</g>
<!-- 18351 -->
<g id="node36" class="node">
<title>18351</title>
<ellipse fill="none" stroke="#000000" cx="144.7743" cy="-175.6852" rx="32.4942" ry="18"/>
<text text-anchor="middle" x="144.7743" y="-171.9852" font-family="Times,serif" font-size="14.00" fill="#000000">18351</text>
</g>
<!-- 18365&#45;&gt;7632 -->
<g id="edge49" class="edge">
<title>18365&#45;&gt;7632</title>
<path fill="none" stroke="#000000" d="M276.2927,-585.6251C267.8657,-593.7565 257.4477,-603.809 248.2104,-612.7223"/>
<polygon fill="#000000" stroke="#000000" points="245.5643,-610.4119 240.7984,-619.8743 250.4249,-615.4492 245.5643,-610.4119"/>
</g>
<!-- 18365&#45;&gt;18103 -->
<g id="edge50" class="edge">
<title>18365&#45;&gt;18103</title>
<path fill="none" stroke="#000000" d="M283.7585,-587.1608C273.7786,-606.5891 257.4805,-638.3173 245.9093,-660.8435"/>
<polygon fill="#000000" stroke="#000000" points="242.7278,-659.3772 241.2718,-669.8715 248.9543,-662.5757 242.7278,-659.3772"/>
</g>
<!-- 23947 -->
<g id="node41" class="node">
<title>23947</title>
<ellipse fill="none" stroke="#000000" cx="291.7472" cy="-690.8577" rx="32.4942" ry="18"/>
<text text-anchor="middle" x="291.7472" y="-687.1577" font-family="Times,serif" font-size="14.00" fill="#000000">23947</text>
</g>
<!-- 18365&#45;&gt;23947 -->
<g id="edge51" class="edge">
<title>18365&#45;&gt;23947</title>
<path fill="none" stroke="#000000" d="M292.5231,-587.951C292.3746,-607.6474 292.1353,-639.3861 291.9617,-662.4128"/>
<polygon fill="#000000" stroke="#000000" points="288.4604,-662.589 291.8848,-672.6151 295.4602,-662.6418 288.4604,-662.589"/>
</g>
<!-- 38511 -->
<g id="node50" class="node">
<title>38511</title>
<ellipse fill="none" stroke="#000000" cx="176.7032" cy="-611.6565" rx="32.4942" ry="18"/>
<text text-anchor="middle" x="176.7032" y="-607.9565" font-family="Times,serif" font-size="14.00" fill="#000000">38511</text>
</g>
<!-- 18365&#45;&gt;38511 -->
<g id="edge52" class="edge">
<title>18365&#45;&gt;38511</title>
<path fill="none" stroke="#000000" d="M265.1797,-579.7441C249.7279,-585.3173 230.2358,-592.3479 213.4825,-598.3906"/>
<polygon fill="#000000" stroke="#000000" points="212.2053,-595.1305 203.9861,-601.8159 214.5804,-601.7153 212.2053,-595.1305"/>
</g>
<!-- 63859 -->
<g id="node59" class="node">
<title>63859</title>
<ellipse fill="none" stroke="#000000" cx="344.3315" cy="-668.3893" rx="32.4942" ry="18"/>
<text text-anchor="middle" x="344.3315" y="-664.6893" font-family="Times,serif" font-size="14.00" fill="#000000">63859</text>
</g>
<!-- 18365&#45;&gt;63859 -->
<g id="edge53" class="edge">
<title>18365&#45;&gt;63859</title>
<path fill="none" stroke="#000000" d="M301.8976,-587.4523C309.8333,-602.5886 321.3921,-624.6354 330.4426,-641.898"/>
<polygon fill="#000000" stroke="#000000" points="327.4304,-643.6904 335.1736,-650.9218 333.63,-640.44 327.4304,-643.6904"/>
</g>
<!-- 20207 -->
<g id="node38" class="node">
<title>20207</title>
<ellipse fill="none" stroke="#000000" cx="395.05" cy="-18" rx="32.4942" ry="18"/>
<text text-anchor="middle" x="395.05" y="-14.3" font-family="Times,serif" font-size="14.00" fill="#000000">20207</text>
</g>
<!-- 23520 -->
<g id="node40" class="node">
<title>23520</title>
<ellipse fill="none" stroke="#000000" cx="144.6998" cy="-96.3007" rx="32.4942" ry="18"/>
<text text-anchor="middle" x="144.6998" y="-92.6007" font-family="Times,serif" font-size="14.00" fill="#000000">23520</text>
</g>
<!-- 27787&#45;&gt;7303 -->
<g id="edge54" class="edge">
<title>27787&#45;&gt;7303</title>
<path fill="none" stroke="#000000" d="M362.4985,-112.9802C356.4222,-96.2085 347.291,-71.0052 340.3314,-51.7956"/>
<polygon fill="#000000" stroke="#000000" points="343.6147,-50.5828 336.9176,-42.3731 337.0333,-52.9673 343.6147,-50.5828"/>
</g>
<!-- 27787&#45;&gt;20207 -->
<g id="edge55" class="edge">
<title>27787&#45;&gt;20207</title>
<path fill="none" stroke="#000000" d="M373.1625,-113.1281C377.3042,-95.1274 383.7486,-67.1186 388.5739,-46.1467"/>
<polygon fill="#000000" stroke="#000000" points="392.0306,-46.7322 390.862,-36.202 385.2088,-45.1625 392.0306,-46.7322"/>
</g>
<!-- 28022 -->
<g id="node43" class="node">
<title>28022</title>
<ellipse fill="none" stroke="#000000" cx="172.2407" cy="-49.4482" rx="32.4942" ry="18"/>
<text text-anchor="middle" x="172.2407" y="-45.7482" font-family="Times,serif" font-size="14.00" fill="#000000">28022</text>
</g>
<!-- 32787&#45;&gt;703 -->
<g id="edge56" class="edge">
<title>32787&#45;&gt;703</title>
<path fill="none" stroke="#000000" d="M145.2758,-325.4977C135.3764,-329.8435 123.9723,-334.8499 113.572,-339.4157"/>
<polygon fill="#000000" stroke="#000000" points="112.1245,-336.2286 104.3749,-343.4532 114.9384,-342.6382 112.1245,-336.2286"/>
</g>
<!-- 32787&#45;&gt;2764 -->
<g id="edge57" class="edge">
<title>32787&#45;&gt;2764</title>
<path fill="none" stroke="#000000" d="M170.3842,-332.3678C169.7407,-346.6015 168.8356,-366.6207 168.0987,-382.9186"/>
<polygon fill="#000000" stroke="#000000" points="164.5986,-382.8452 167.6433,-392.9931 171.5914,-383.1614 164.5986,-382.8452"/>
</g>
<!-- 32787&#45;&gt;2828 -->
<g id="edge58" class="edge">
<title>32787&#45;&gt;2828</title>
<path fill="none" stroke="#000000" d="M167.5098,-296.016C166.8987,-293.0272 166.253,-289.8688 165.6065,-286.7064"/>
<polygon fill="#000000" stroke="#000000" points="169.012,-285.8898 163.5799,-276.7935 162.1539,-287.2919 169.012,-285.8898"/>
</g>
<!-- 32787&#45;&gt;4637 -->
<g id="edge59" class="edge">
<title>32787&#45;&gt;4637</title>
<path fill="none" stroke="#000000" d="M140.2127,-308.6728C121.9583,-305.4691 98.738,-301.3939 79.4373,-298.0066"/>
<polygon fill="#000000" stroke="#000000" points="79.9169,-294.5374 69.4624,-296.256 78.7068,-301.432 79.9169,-294.5374"/>
</g>
<!-- 32787&#45;&gt;7474 -->
<g id="edge60" class="edge">
<title>32787&#45;&gt;7474</title>
<path fill="none" stroke="#000000" d="M151.9554,-299.184C138.23,-288.5419 119.6135,-274.1075 104.529,-262.4116"/>
<polygon fill="#000000" stroke="#000000" points="106.613,-259.5987 96.5656,-256.2372 102.3238,-265.1307 106.613,-259.5987"/>
</g>
<!-- 34779 -->
<g id="node46" class="node">
<title>34779</title>
<ellipse fill="none" stroke="#000000" cx="239.4447" cy="-521.0791" rx="32.4942" ry="18"/>
<text text-anchor="middle" x="239.4447" y="-517.3791" font-family="Times,serif" font-size="14.00" fill="#000000">34779</text>
</g>
<!-- 37254 -->
<g id="node47" class="node">
<title>37254</title>
<ellipse fill="none" stroke="#000000" cx="65.7046" cy="-437.2831" rx="32.4942" ry="18"/>
<text text-anchor="middle" x="65.7046" y="-433.5831" font-family="Times,serif" font-size="14.00" fill="#000000">37254</text>
</g>
<!-- 37642&#45;&gt;37254 -->
<g id="edge61" class="edge">
<title>37642&#45;&gt;37254</title>
<path fill="none" stroke="#000000" d="M154.4159,-384.2272C137.7961,-394.167 114.8468,-407.8924 96.4541,-418.8926"/>
<polygon fill="#000000" stroke="#000000" points="94.6244,-415.9086 87.8386,-424.0453 98.2173,-421.9162 94.6244,-415.9086"/>
</g>
<!-- 37662 -->
<g id="node49" class="node">
<title>37662</title>
<ellipse fill="none" stroke="#000000" cx="32.4971" cy="-377.6123" rx="32.4942" ry="18"/>
<text text-anchor="middle" x="32.4971" y="-373.9123" font-family="Times,serif" font-size="14.00" fill="#000000">37662</text>
</g>
<!-- 37642&#45;&gt;37662 -->
<g id="edge62" class="edge">
<title>37642&#45;&gt;37662</title>
<path fill="none" stroke="#000000" d="M143.8918,-372.4745C123.5344,-373.4134 97.1307,-374.6312 75.1392,-375.6455"/>
<polygon fill="#000000" stroke="#000000" points="74.8923,-372.1531 65.0643,-376.1102 75.2149,-379.1457 74.8923,-372.1531"/>
</g>
<!-- 49743 -->
<g id="node52" class="node">
<title>49743</title>
<ellipse fill="none" stroke="#000000" cx="555.384" cy="-531.1272" rx="32.4942" ry="18"/>
<text text-anchor="middle" x="555.384" y="-527.4272" font-family="Times,serif" font-size="14.00" fill="#000000">49743</text>
</g>
<!-- 43888&#45;&gt;49743 -->
<g id="edge63" class="edge">
<title>43888&#45;&gt;49743</title>
<path fill="none" stroke="#000000" d="M504.8032,-458.0387C514.1139,-471.4925 527.281,-490.5189 537.847,-505.7865"/>
<polygon fill="#000000" stroke="#000000" points="535.1499,-508.0397 543.7186,-514.2709 540.9059,-504.0562 535.1499,-508.0397"/>
</g>
<!-- 52468 -->
<g id="node53" class="node">
<title>52468</title>
<ellipse fill="none" stroke="#000000" cx="233.0523" cy="-33.446" rx="32.4942" ry="18"/>
<text text-anchor="middle" x="233.0523" y="-29.746" font-family="Times,serif" font-size="14.00" fill="#000000">52468</text>
</g>
<!-- 56651&#45;&gt;34779 -->
<g id="edge64" class="edge">
<title>56651&#45;&gt;34779</title>
<path fill="none" stroke="#000000" d="M293.2161,-468.2548C284.2034,-477.1088 272.834,-488.2779 262.8737,-498.0627"/>
<polygon fill="#000000" stroke="#000000" points="260.2749,-495.7094 255.594,-505.2142 265.1805,-500.703 260.2749,-495.7094"/>
</g>
<!-- 58682 -->
<g id="node55" class="node">
<title>58682</title>
<ellipse fill="none" stroke="#000000" cx="551.6801" cy="-71.6861" rx="32.4942" ry="18"/>
<text text-anchor="middle" x="551.6801" y="-67.9861" font-family="Times,serif" font-size="14.00" fill="#000000">58682</text>
</g>
<!-- 58689 -->
<g id="node56" class="node">
<title>58689</title>
<ellipse fill="none" stroke="#000000" cx="492.104" cy="-38.9637" rx="32.4942" ry="18"/>
<text text-anchor="middle" x="492.104" y="-35.2637" font-family="Times,serif" font-size="14.00" fill="#000000">58689</text>
</g>
<!-- 59203 -->
<g id="node57" class="node">
<title>59203</title>
<ellipse fill="none" stroke="#000000" cx="489.0364" cy="-592.8401" rx="32.4942" ry="18"/>
<text text-anchor="middle" x="489.0364" y="-589.1401" font-family="Times,serif" font-size="14.00" fill="#000000">59203</text>
</g>
<!-- 131758&#45;&gt;18351 -->
<g id="edge65" class="edge">
<title>131758&#45;&gt;18351</title>
<path fill="none" stroke="#000000" d="M221.3004,-222.8278C207.6851,-214.4403 190.2908,-203.7249 175.5272,-194.63"/>
<polygon fill="#000000" stroke="#000000" points="177.0819,-191.477 166.7321,-189.2119 173.4104,-197.4369 177.0819,-191.477"/>
</g>
<!-- 133957&#45;&gt;59203 -->
<g id="edge66" class="edge">
<title>133957&#45;&gt;59203</title>
<path fill="none" stroke="#000000" d="M453.3388,-501.5477C460.1568,-518.9838 470.5704,-545.6154 478.3936,-565.6223"/>
<polygon fill="#000000" stroke="#000000" points="475.2057,-567.0806 482.1072,-575.1193 481.725,-564.5313 475.2057,-567.0806"/>
</g>
<!-- 135437&#45;&gt;58682 -->
<g id="edge67" class="edge">
<title>135437&#45;&gt;58682</title>
<path fill="none" stroke="#000000" d="M489.567,-136.391C500.9351,-124.5485 516.4478,-108.3886 529.1262,-95.1811"/>
<polygon fill="#000000" stroke="#000000" points="531.8106,-97.4388 536.2108,-87.8009 526.7607,-92.5912 531.8106,-97.4388"/>
</g>
<!-- 135437&#45;&gt;58689 -->
<g id="edge68" class="edge">
<title>135437&#45;&gt;58689</title>
<path fill="none" stroke="#000000" d="M476.7075,-134.7682C479.6381,-116.5323 484.2078,-88.0974 487.6086,-66.9364"/>
<polygon fill="#000000" stroke="#000000" points="491.0875,-67.3468 489.2186,-56.9181 484.1761,-66.2361 491.0875,-67.3468"/>
</g>
<!-- 204008&#45;&gt;3209 -->
<g id="edge69" class="edge">
<title>204008&#45;&gt;3209</title>
<path fill="none" stroke="#000000" d="M386.6569,-501.5305C389.6698,-517.6895 394.1131,-541.5196 397.5755,-560.0888"/>
<polygon fill="#000000" stroke="#000000" points="394.1588,-560.8595 399.4325,-570.0485 401.0402,-559.5763 394.1588,-560.8595"/>
</g>
<!-- 265636&#45;&gt;23520 -->
<g id="edge70" class="edge">
<title>265636&#45;&gt;23520</title>
<path fill="none" stroke="#000000" d="M225.7767,-133.3593C211.7249,-126.9365 194.3856,-119.011 179.3531,-112.14"/>
<polygon fill="#000000" stroke="#000000" points="180.4155,-108.7774 169.8655,-107.8034 177.5055,-115.1438 180.4155,-108.7774"/>
</g>
<!-- 265636&#45;&gt;28022 -->
<g id="edge71" class="edge">
<title>265636&#45;&gt;28022</title>
<path fill="none" stroke="#000000" d="M238.7414,-128.9313C226.0396,-113.7498 207.1676,-91.1937 192.7691,-73.9843"/>
<polygon fill="#000000" stroke="#000000" points="195.2081,-71.445 186.1068,-66.0212 189.8393,-75.9368 195.2081,-71.445"/>
</g>
<!-- 265636&#45;&gt;52468 -->
<g id="edge72" class="edge">
<title>265636&#45;&gt;52468</title>
<path fill="none" stroke="#000000" d="M249.6005,-127.6615C246.4674,-109.8237 241.6272,-82.2667 237.9894,-61.5552"/>
<polygon fill="#000000" stroke="#000000" points="241.3894,-60.68 236.2121,-51.4362 234.4949,-61.891 241.3894,-60.68"/>
</g>
</g>
</svg>
