<?xml version="1.0" encoding="UTF-8" standalone="no"?>
<!DOCTYPE svg PUBLIC "-//W3C//DTD SVG 1.1//EN"
 "http://www.w3.org/Graphics/SVG/1.1/DTD/svg11.dtd">
<!-- Generated by graphviz version 2.40.1 (20161225.0304)
 -->
<!-- Title: %3 Pages: 1 -->
<svg width="480pt" height="416pt"
 viewBox="0.00 0.00 480.24 416.32" xmlns="http://www.w3.org/2000/svg" xmlns:xlink="http://www.w3.org/1999/xlink">
<g id="graph0" class="graph" transform="scale(1 1) rotate(0) translate(4 412.3237)">
<title>%3</title>
<polygon fill="#ffffff" stroke="transparent" points="-4,4 -4,-412.3237 476.2385,-412.3237 476.2385,4 -4,4"/>
<!-- 174 -->
<g id="node1" class="node">
<title>174</title>
<ellipse fill="none" stroke="#000000" cx="43.7784" cy="-75.0842" rx="27" ry="18"/>
<text text-anchor="middle" x="43.7784" y="-71.3842" font-family="Times,serif" font-size="14.00" fill="#000000">174</text>
</g>
<!-- 209 -->
<g id="node2" class="node">
<title>209</title>
<ellipse fill="none" stroke="#000000" cx="178.4772" cy="-83.7242" rx="27" ry="18"/>
<text text-anchor="middle" x="178.4772" y="-80.0242" font-family="Times,serif" font-size="14.00" fill="#000000">209</text>
</g>
<!-- 701 -->
<g id="node3" class="node">
<title>701</title>
<ellipse fill="none" stroke="#000000" cx="117.4711" cy="-18" rx="27" ry="18"/>
<text text-anchor="middle" x="117.4711" y="-14.3" font-family="Times,serif" font-size="14.00" fill="#000000">701</text>
</g>
<!-- 1239 -->
<g id="node4" class="node">
<title>1239</title>
<ellipse fill="none" stroke="#000000" cx="92.7968" cy="-205.4809" rx="28.6953" ry="18"/>
<text text-anchor="middle" x="92.7968" y="-201.7809" font-family="Times,serif" font-size="14.00" fill="#000000">1239</text>
</g>
<!-- 1273 -->
<g id="node5" class="node">
<title>1273</title>
<ellipse fill="none" stroke="#000000" cx="168.1156" cy="-144.605" rx="28.6953" ry="18"/>
<text text-anchor="middle" x="168.1156" y="-140.905" font-family="Times,serif" font-size="14.00" fill="#000000">1273</text>
</g>
<!-- 1299 -->
<g id="node6" class="node">
<title>1299</title>
<ellipse fill="none" stroke="#000000" cx="66.2338" cy="-111.1885" rx="28.6953" ry="18"/>
<text text-anchor="middle" x="66.2338" y="-107.4885" font-family="Times,serif" font-size="14.00" fill="#000000">1299</text>
</g>
<!-- 2497 -->
<g id="node7" class="node">
<title>2497</title>
<ellipse fill="none" stroke="#000000" cx="65.7994" cy="-45.0403" rx="28.6953" ry="18"/>
<text text-anchor="middle" x="65.7994" y="-41.3403" font-family="Times,serif" font-size="14.00" fill="#000000">2497</text>
</g>
<!-- 2914 -->
<g id="node8" class="node">
<title>2914</title>
<ellipse fill="none" stroke="#000000" cx="203.0255" cy="-56.8057" rx="28.6953" ry="18"/>
<text text-anchor="middle" x="203.0255" y="-53.1057" font-family="Times,serif" font-size="14.00" fill="#000000">2914</text>
</g>
<!-- 3257 -->
<g id="node9" class="node">
<title>3257</title>
<ellipse fill="none" stroke="#000000" cx="98.661" cy="-48.8431" rx="28.6953" ry="18"/>
<text text-anchor="middle" x="98.661" y="-45.1431" font-family="Times,serif" font-size="14.00" fill="#000000">3257</text>
</g>
<!-- 3320 -->
<g id="node10" class="node">
<title>3320</title>
<ellipse fill="none" stroke="#000000" cx="145.279" cy="-40.7353" rx="28.6953" ry="18"/>
<text text-anchor="middle" x="145.279" y="-37.0353" font-family="Times,serif" font-size="14.00" fill="#000000">3320</text>
</g>
<!-- 3356 -->
<g id="node11" class="node">
<title>3356</title>
<ellipse fill="none" stroke="#000000" cx="124.0051" cy="-115.8" rx="28.6953" ry="18"/>
<text text-anchor="middle" x="124.0051" y="-112.1" font-family="Times,serif" font-size="14.00" fill="#000000">3356</text>
</g>
<!-- 3356&#45;&gt;174 -->
<g id="edge1" class="edge">
<title>3356&#45;&gt;174</title>
<path fill="none" stroke="#000000" d="M101.6575,-104.4584C93.2612,-100.1972 83.5636,-95.2756 74.5356,-90.6938"/>
<polygon fill="#000000" stroke="#000000" points="75.9539,-87.4887 65.4525,-86.084 72.7859,-93.7308 75.9539,-87.4887"/>
</g>
<!-- 3356&#45;&gt;209 -->
<g id="edge2" class="edge">
<title>3356&#45;&gt;209</title>
<path fill="none" stroke="#000000" d="M144.9097,-103.4904C146.3948,-102.6159 147.9066,-101.7257 149.4258,-100.8311"/>
<polygon fill="#000000" stroke="#000000" points="151.2366,-103.8266 158.0776,-95.7365 147.6846,-97.7947 151.2366,-103.8266"/>
</g>
<!-- 3356&#45;&gt;701 -->
<g id="edge3" class="edge">
<title>3356&#45;&gt;701</title>
<path fill="none" stroke="#000000" d="M122.7761,-97.4046C121.8118,-82.9706 120.453,-62.6326 119.352,-46.1536"/>
<polygon fill="#000000" stroke="#000000" points="122.8314,-45.7269 118.6725,-35.9825 115.847,-46.1936 122.8314,-45.7269"/>
</g>
<!-- 3356&#45;&gt;1239 -->
<g id="edge4" class="edge">
<title>3356&#45;&gt;1239</title>
<path fill="none" stroke="#000000" d="M117.8394,-133.5181C113.394,-146.2924 107.3116,-163.771 102.2544,-178.3034"/>
<polygon fill="#000000" stroke="#000000" points="98.9309,-177.2048 98.9498,-187.7996 105.542,-179.5055 98.9309,-177.2048"/>
</g>
<!-- 3356&#45;&gt;1273 -->
<g id="edge5" class="edge">
<title>3356&#45;&gt;1273</title>
<path fill="none" stroke="#000000" d="M143.9954,-128.8541C144.0809,-128.9099 144.1664,-128.9657 144.252,-129.0216"/>
<polygon fill="#000000" stroke="#000000" points="137.8227,-129.0033 148.1093,-131.5405 141.6501,-123.1423 137.8227,-129.0033"/>
</g>
<!-- 3356&#45;&gt;1299 -->
<g id="edge6" class="edge">
<title>3356&#45;&gt;1299</title>
<path fill="none" stroke="#000000" d="M95.458,-113.5213C95.3443,-113.5122 95.2305,-113.5032 95.1168,-113.4941"/>
<polygon fill="#000000" stroke="#000000" points="105.0234,-110.7763 94.7757,-113.4668 104.4646,-117.7541 105.0234,-110.7763"/>
</g>
<!-- 3356&#45;&gt;2497 -->
<g id="edge7" class="edge">
<title>3356&#45;&gt;2497</title>
<path fill="none" stroke="#000000" d="M110.7974,-99.7436C103.281,-90.606 93.7241,-78.9878 85.3527,-68.811"/>
<polygon fill="#000000" stroke="#000000" points="88.0107,-66.5327 78.9549,-61.0332 82.6046,-70.9796 88.0107,-66.5327"/>
</g>
<!-- 3356&#45;&gt;2914 -->
<g id="edge8" class="edge">
<title>3356&#45;&gt;2914</title>
<path fill="none" stroke="#000000" d="M142.7319,-101.8192C152.7697,-94.3252 165.3095,-84.9634 176.3495,-76.7212"/>
<polygon fill="#000000" stroke="#000000" points="178.5139,-79.4732 184.4332,-70.6862 174.3261,-73.864 178.5139,-79.4732"/>
</g>
<!-- 3356&#45;&gt;3257 -->
<g id="edge9" class="edge">
<title>3356&#45;&gt;3257</title>
<path fill="none" stroke="#000000" d="M117.3463,-98.2079C114.7765,-91.4188 111.7772,-83.495 108.9434,-76.0083"/>
<polygon fill="#000000" stroke="#000000" points="112.1769,-74.6636 105.3634,-66.5502 105.6301,-77.1417 112.1769,-74.6636"/>
</g>
<!-- 3356&#45;&gt;3320 -->
<g id="edge10" class="edge">
<title>3356&#45;&gt;3320</title>
<path fill="none" stroke="#000000" d="M129.0468,-98.0108C131.5454,-89.1942 134.62,-78.3456 137.4188,-68.4701"/>
<polygon fill="#000000" stroke="#000000" points="140.8405,-69.2325 140.1999,-58.6571 134.1057,-67.3238 140.8405,-69.2325"/>
</g>
<!-- 3491 -->
<g id="node12" class="node">
<title>3491</title>
<ellipse fill="none" stroke="#000000" cx="28.5975" cy="-115.3433" rx="28.6953" ry="18"/>
<text text-anchor="middle" x="28.5975" y="-111.6433" font-family="Times,serif" font-size="14.00" fill="#000000">3491</text>
</g>
<!-- 3356&#45;&gt;3491 -->
<g id="edge11" class="edge">
<title>3356&#45;&gt;3491</title>
<path fill="none" stroke="#000000" d="M95.3797,-115.663C86.6061,-115.621 76.8017,-115.5741 67.4652,-115.5294"/>
<polygon fill="#000000" stroke="#000000" points="67.2194,-112.0282 57.2027,-115.4802 67.1858,-119.0282 67.2194,-112.0282"/>
</g>
<!-- 3549 -->
<g id="node13" class="node">
<title>3549</title>
<ellipse fill="none" stroke="#000000" cx="205.128" cy="-105.3413" rx="28.6953" ry="18"/>
<text text-anchor="middle" x="205.128" y="-101.6413" font-family="Times,serif" font-size="14.00" fill="#000000">3549</text>
</g>
<!-- 3356&#45;&gt;3549 -->
<g id="edge12" class="edge">
<title>3356&#45;&gt;3549</title>
<path fill="none" stroke="#000000" d="M152.378,-112.1421C157.0984,-111.5335 162.0616,-110.8937 166.9774,-110.2599"/>
<polygon fill="#000000" stroke="#000000" points="167.4378,-113.7296 176.9082,-108.9796 166.5427,-106.787 167.4378,-113.7296"/>
</g>
<!-- 5511 -->
<g id="node15" class="node">
<title>5511</title>
<ellipse fill="none" stroke="#000000" cx="128.4704" cy="-187.2613" rx="28.6953" ry="18"/>
<text text-anchor="middle" x="128.4704" y="-183.5613" font-family="Times,serif" font-size="14.00" fill="#000000">5511</text>
</g>
<!-- 3356&#45;&gt;5511 -->
<g id="edge13" class="edge">
<title>3356&#45;&gt;5511</title>
<path fill="none" stroke="#000000" d="M125.1319,-133.8327C125.6042,-141.3915 126.1649,-150.3641 126.6906,-158.7771"/>
<polygon fill="#000000" stroke="#000000" points="123.2116,-159.2236 127.3285,-168.9858 130.1979,-158.787 123.2116,-159.2236"/>
</g>
<!-- 6453 -->
<g id="node17" class="node">
<title>6453</title>
<ellipse fill="none" stroke="#000000" cx="175.4507" cy="-28.8102" rx="28.6953" ry="18"/>
<text text-anchor="middle" x="175.4507" y="-25.1102" font-family="Times,serif" font-size="14.00" fill="#000000">6453</text>
</g>
<!-- 3356&#45;&gt;6453 -->
<g id="edge14" class="edge">
<title>3356&#45;&gt;6453</title>
<path fill="none" stroke="#000000" d="M134.1691,-98.6136C141.5676,-86.1035 151.7168,-68.9421 160.1003,-54.7663"/>
<polygon fill="#000000" stroke="#000000" points="163.2299,-56.35 165.3078,-45.9609 157.2047,-52.7867 163.2299,-56.35"/>
</g>
<!-- 6461 -->
<g id="node18" class="node">
<title>6461</title>
<ellipse fill="none" stroke="#000000" cx="53.9599" cy="-189.1418" rx="28.6953" ry="18"/>
<text text-anchor="middle" x="53.9599" y="-185.4418" font-family="Times,serif" font-size="14.00" fill="#000000">6461</text>
</g>
<!-- 3356&#45;&gt;6461 -->
<g id="edge15" class="edge">
<title>3356&#45;&gt;6461</title>
<path fill="none" stroke="#000000" d="M109.1503,-131.3539C99.4922,-141.4666 86.7301,-154.8294 75.911,-166.1577"/>
<polygon fill="#000000" stroke="#000000" points="73.1689,-163.9612 68.7933,-173.6103 78.2311,-168.7959 73.1689,-163.9612"/>
</g>
<!-- 6762 -->
<g id="node19" class="node">
<title>6762</title>
<ellipse fill="none" stroke="#000000" cx="35.4374" cy="-154.5547" rx="28.6953" ry="18"/>
<text text-anchor="middle" x="35.4374" y="-150.8547" font-family="Times,serif" font-size="14.00" fill="#000000">6762</text>
</g>
<!-- 3356&#45;&gt;6762 -->
<g id="edge16" class="edge">
<title>3356&#45;&gt;6762</title>
<path fill="none" stroke="#000000" d="M100.2706,-126.1856C90.463,-130.4771 78.9274,-135.5247 68.3266,-140.1633"/>
<polygon fill="#000000" stroke="#000000" points="66.6886,-137.0596 58.9303,-144.2749 69.4947,-143.4726 66.6886,-137.0596"/>
</g>
<!-- 7018 -->
<g id="node20" class="node">
<title>7018</title>
<ellipse fill="none" stroke="#000000" cx="84.3834" cy="-166.474" rx="28.6953" ry="18"/>
<text text-anchor="middle" x="84.3834" y="-162.774" font-family="Times,serif" font-size="14.00" fill="#000000">7018</text>
</g>
<!-- 3356&#45;&gt;7018 -->
<g id="edge17" class="edge">
<title>3356&#45;&gt;7018</title>
<path fill="none" stroke="#000000" d="M111.2505,-132.1125C108.7055,-135.3675 105.9817,-138.851 103.2807,-142.3055"/>
<polygon fill="#000000" stroke="#000000" points="100.5166,-140.1584 97.1142,-150.1921 106.031,-144.4702 100.5166,-140.1584"/>
</g>
<!-- 3597 -->
<g id="node14" class="node">
<title>3597</title>
<ellipse fill="none" stroke="#000000" cx="443.6411" cy="-290.7482" rx="28.6953" ry="18"/>
<text text-anchor="middle" x="443.6411" y="-287.0482" font-family="Times,serif" font-size="14.00" fill="#000000">3597</text>
</g>
<!-- 5692 -->
<g id="node16" class="node">
<title>5692</title>
<ellipse fill="none" stroke="#000000" cx="352.0833" cy="-293.146" rx="28.6953" ry="18"/>
<text text-anchor="middle" x="352.0833" y="-289.446" font-family="Times,serif" font-size="14.00" fill="#000000">5692</text>
</g>
<!-- 5692&#45;&gt;3597 -->
<g id="edge18" class="edge">
<title>5692&#45;&gt;3597</title>
<path fill="none" stroke="#000000" d="M381.0528,-292.3873C388.5568,-292.1908 396.7606,-291.976 404.6853,-291.7684"/>
<polygon fill="#000000" stroke="#000000" points="404.9552,-295.2626 414.8601,-291.5019 404.7719,-288.265 404.9552,-295.2626"/>
</g>
<!-- 10834 -->
<g id="node21" class="node">
<title>10834</title>
<ellipse fill="none" stroke="#000000" cx="259.6408" cy="-254.2266" rx="32.4942" ry="18"/>
<text text-anchor="middle" x="259.6408" y="-250.5266" font-family="Times,serif" font-size="14.00" fill="#000000">10834</text>
</g>
<!-- 5692&#45;&gt;10834 -->
<g id="edge19" class="edge">
<title>5692&#45;&gt;10834</title>
<path fill="none" stroke="#000000" d="M328.2771,-283.1233C318.1813,-278.8728 306.2031,-273.8299 295.1018,-269.1561"/>
<polygon fill="#000000" stroke="#000000" points="296.2157,-265.8275 285.6411,-265.173 293.4995,-272.2791 296.2157,-265.8275"/>
</g>
<!-- 11008 -->
<g id="node22" class="node">
<title>11008</title>
<ellipse fill="none" stroke="#000000" cx="298.1279" cy="-322.1421" rx="32.4942" ry="18"/>
<text text-anchor="middle" x="298.1279" y="-318.4421" font-family="Times,serif" font-size="14.00" fill="#000000">11008</text>
</g>
<!-- 5692&#45;&gt;11008 -->
<g id="edge20" class="edge">
<title>5692&#45;&gt;11008</title>
<path fill="none" stroke="#000000" d="M330.1376,-304.9398C330.0501,-304.9869 329.9625,-305.0339 329.8748,-305.081"/>
<polygon fill="#000000" stroke="#000000" points="328.7883,-301.6915 321.6366,-309.5083 332.102,-307.8575 328.7883,-301.6915"/>
</g>
<!-- 27865 -->
<g id="node25" class="node">
<title>27865</title>
<ellipse fill="none" stroke="#000000" cx="348.491" cy="-390.3237" rx="32.4942" ry="18"/>
<text text-anchor="middle" x="348.491" y="-386.6237" font-family="Times,serif" font-size="14.00" fill="#000000">27865</text>
</g>
<!-- 5692&#45;&gt;27865 -->
<g id="edge21" class="edge">
<title>5692&#45;&gt;27865</title>
<path fill="none" stroke="#000000" d="M351.4076,-311.4244C350.8808,-325.6763 350.1398,-345.7211 349.5366,-362.0399"/>
<polygon fill="#000000" stroke="#000000" points="346.0356,-362.0047 349.1637,-372.1272 353.0308,-362.2634 346.0356,-362.0047"/>
</g>
<!-- 28065 -->
<g id="node26" class="node">
<title>28065</title>
<ellipse fill="none" stroke="#000000" cx="418.2129" cy="-220.1869" rx="32.4942" ry="18"/>
<text text-anchor="middle" x="418.2129" y="-216.4869" font-family="Times,serif" font-size="14.00" fill="#000000">28065</text>
</g>
<!-- 5692&#45;&gt;28065 -->
<g id="edge22" class="edge">
<title>5692&#45;&gt;28065</title>
<path fill="none" stroke="#000000" d="M366.4325,-277.315C375.2359,-267.6023 386.6786,-254.9779 396.5677,-244.0676"/>
<polygon fill="#000000" stroke="#000000" points="399.3114,-246.2521 403.4339,-236.4922 394.1248,-241.5511 399.3114,-246.2521"/>
</g>
<!-- 52317 -->
<g id="node27" class="node">
<title>52317</title>
<ellipse fill="none" stroke="#000000" cx="420.3121" cy="-351.0286" rx="32.4942" ry="18"/>
<text text-anchor="middle" x="420.3121" y="-347.3286" font-family="Times,serif" font-size="14.00" fill="#000000">52317</text>
</g>
<!-- 5692&#45;&gt;52317 -->
<g id="edge23" class="edge">
<title>5692&#45;&gt;52317</title>
<path fill="none" stroke="#000000" d="M369.3003,-307.7522C376.9589,-314.2494 386.1374,-322.0361 394.5846,-329.2024"/>
<polygon fill="#000000" stroke="#000000" points="392.496,-332.0203 402.3858,-335.8206 397.0245,-326.6824 392.496,-332.0203"/>
</g>
<!-- 52375 -->
<g id="node28" class="node">
<title>52375</title>
<ellipse fill="none" stroke="#000000" cx="326.1681" cy="-356.7946" rx="32.4942" ry="18"/>
<text text-anchor="middle" x="326.1681" y="-353.0946" font-family="Times,serif" font-size="14.00" fill="#000000">52375</text>
</g>
<!-- 5692&#45;&gt;52375 -->
<g id="edge24" class="edge">
<title>5692&#45;&gt;52375</title>
<path fill="none" stroke="#000000" d="M344.8645,-310.8757C342.5056,-316.6691 339.8288,-323.2434 337.2529,-329.57"/>
<polygon fill="#000000" stroke="#000000" points="333.8777,-328.5784 333.3482,-339.16 340.3609,-331.2181 333.8777,-328.5784"/>
</g>
<!-- 52376 -->
<g id="node29" class="node">
<title>52376</title>
<ellipse fill="none" stroke="#000000" cx="384.5448" cy="-215.8636" rx="32.4942" ry="18"/>
<text text-anchor="middle" x="384.5448" y="-212.1636" font-family="Times,serif" font-size="14.00" fill="#000000">52376</text>
</g>
<!-- 5692&#45;&gt;52376 -->
<g id="edge25" class="edge">
<title>5692&#45;&gt;52376</title>
<path fill="none" stroke="#000000" d="M359.4493,-275.6094C363.4881,-265.9942 368.5832,-253.8641 373.1256,-243.0499"/>
<polygon fill="#000000" stroke="#000000" points="376.4498,-244.1735 377.0956,-233.5983 369.996,-241.4626 376.4498,-244.1735"/>
</g>
<!-- 52380 -->
<g id="node30" class="node">
<title>52380</title>
<ellipse fill="none" stroke="#000000" cx="432.4507" cy="-253.9643" rx="32.4942" ry="18"/>
<text text-anchor="middle" x="432.4507" y="-250.2643" font-family="Times,serif" font-size="14.00" fill="#000000">52380</text>
</g>
<!-- 5692&#45;&gt;52380 -->
<g id="edge26" class="edge">
<title>5692&#45;&gt;52380</title>
<path fill="none" stroke="#000000" d="M374.8984,-282.0229C382.3031,-278.4128 390.6822,-274.3278 398.7092,-270.4144"/>
<polygon fill="#000000" stroke="#000000" points="400.436,-273.4663 407.8909,-265.938 397.3684,-267.1743 400.436,-273.4663"/>
</g>
<!-- 52413 -->
<g id="node31" class="node">
<title>52413</title>
<ellipse fill="none" stroke="#000000" cx="384.9496" cy="-372.0236" rx="32.4942" ry="18"/>
<text text-anchor="middle" x="384.9496" y="-368.3236" font-family="Times,serif" font-size="14.00" fill="#000000">52413</text>
</g>
<!-- 5692&#45;&gt;52413 -->
<g id="edge27" class="edge">
<title>5692&#45;&gt;52413</title>
<path fill="none" stroke="#000000" d="M359.3774,-310.6515C363.5607,-320.6911 368.9025,-333.5113 373.621,-344.8354"/>
<polygon fill="#000000" stroke="#000000" points="370.4852,-346.4097 377.5622,-354.2942 376.9467,-343.7173 370.4852,-346.4097"/>
</g>
<!-- 52431 -->
<g id="node32" class="node">
<title>52431</title>
<ellipse fill="none" stroke="#000000" cx="413.975" cy="-313.897" rx="32.4942" ry="18"/>
<text text-anchor="middle" x="413.975" y="-310.197" font-family="Times,serif" font-size="14.00" fill="#000000">52431</text>
</g>
<!-- 5692&#45;&gt;52431 -->
<g id="edge28" class="edge">
<title>5692&#45;&gt;52431</title>
<path fill="none" stroke="#000000" d="M377.6144,-301.706C377.7018,-301.7353 377.7893,-301.7647 377.8768,-301.794"/>
<polygon fill="#000000" stroke="#000000" points="375.4991,-304.6883 386.093,-304.5488 377.7244,-298.0513 375.4991,-304.6883"/>
</g>
<!-- 262230 -->
<g id="node33" class="node">
<title>262230</title>
<ellipse fill="none" stroke="#000000" cx="352.3462" cy="-233.7863" rx="37.0935" ry="18"/>
<text text-anchor="middle" x="352.3462" y="-230.0863" font-family="Times,serif" font-size="14.00" fill="#000000">262230</text>
</g>
<!-- 5692&#45;&gt;262230 -->
<g id="edge29" class="edge">
<title>5692&#45;&gt;262230</title>
<path fill="none" stroke="#000000" d="M352.1636,-275.0136C352.182,-270.8711 352.2019,-266.373 352.2216,-261.9213"/>
<polygon fill="#000000" stroke="#000000" points="355.722,-261.8231 352.2664,-251.8077 348.722,-261.792 355.722,-261.8231"/>
</g>
<!-- 264608 -->
<g id="node34" class="node">
<title>264608</title>
<ellipse fill="none" stroke="#000000" cx="296.4099" cy="-377.2979" rx="37.0935" ry="18"/>
<text text-anchor="middle" x="296.4099" y="-373.5979" font-family="Times,serif" font-size="14.00" fill="#000000">264608</text>
</g>
<!-- 5692&#45;&gt;264608 -->
<g id="edge30" class="edge">
<title>5692&#45;&gt;264608</title>
<path fill="none" stroke="#000000" d="M341.0841,-309.7717C333.1815,-321.7166 322.3791,-338.0448 313.3763,-351.6528"/>
<polygon fill="#000000" stroke="#000000" points="310.3672,-349.8577 307.7686,-360.129 316.2053,-353.7201 310.3672,-349.8577"/>
</g>
<!-- 12956 -->
<g id="node23" class="node">
<title>12956</title>
<ellipse fill="none" stroke="#000000" cx="200.3801" cy="-188.8785" rx="32.4942" ry="18"/>
<text text-anchor="middle" x="200.3801" y="-185.1785" font-family="Times,serif" font-size="14.00" fill="#000000">12956</text>
</g>
<!-- 10834&#45;&gt;12956 -->
<g id="edge31" class="edge">
<title>10834&#45;&gt;12956</title>
<path fill="none" stroke="#000000" d="M244.9921,-238.0731C238.0643,-230.4336 229.6537,-221.159 222.0107,-212.7309"/>
<polygon fill="#000000" stroke="#000000" points="224.5823,-210.3565 215.2719,-205.3 219.3969,-215.0589 224.5823,-210.3565"/>
</g>
<!-- 22927 -->
<g id="node24" class="node">
<title>22927</title>
<ellipse fill="none" stroke="#000000" cx="200.3969" cy="-331.8018" rx="32.4942" ry="18"/>
<text text-anchor="middle" x="200.3969" y="-328.1018" font-family="Times,serif" font-size="14.00" fill="#000000">22927</text>
</g>
<!-- 10834&#45;&gt;22927 -->
<g id="edge32" class="edge">
<title>10834&#45;&gt;22927</title>
<path fill="none" stroke="#000000" d="M246.7858,-271.0593C238.7894,-281.5298 228.3625,-295.183 219.42,-306.8925"/>
<polygon fill="#000000" stroke="#000000" points="216.5147,-304.9302 213.2269,-315.002 222.078,-309.1788 216.5147,-304.9302"/>
</g>
<!-- 12956&#45;&gt;3356 -->
<g id="edge33" class="edge">
<title>12956&#45;&gt;3356</title>
<path fill="none" stroke="#000000" d="M183.8079,-173.0215C173.0832,-162.7598 158.9671,-149.2529 147.1427,-137.9389"/>
<polygon fill="#000000" stroke="#000000" points="149.4071,-135.2614 139.7621,-130.8769 144.5677,-140.3192 149.4071,-135.2614"/>
</g>
</g>
</svg>
