<?xml version="1.0" encoding="UTF-8" standalone="no"?>
<!DOCTYPE svg PUBLIC "-//W3C//DTD SVG 1.1//EN"
 "http://www.w3.org/Graphics/SVG/1.1/DTD/svg11.dtd">
<!-- Generated by graphviz version 2.40.1 (20161225.0304)
 -->
<!-- Title: %3 Pages: 1 -->
<svg width="1633pt" height="332pt"
 viewBox="0.00 0.00 1633.05 332.00" xmlns="http://www.w3.org/2000/svg" xmlns:xlink="http://www.w3.org/1999/xlink">
<g id="graph0" class="graph" transform="scale(1 1) rotate(0) translate(4 328)">
<title>%3</title>
<polygon fill="#ffffff" stroke="transparent" points="-4,4 -4,-328 1629.0467,-328 1629.0467,4 -4,4"/>
<!-- 174 -->
<g id="node1" class="node">
<title>174</title>
<ellipse fill="none" stroke="#000000" cx="27" cy="-18" rx="27" ry="18"/>
<text text-anchor="middle" x="27" y="-14.3" font-family="Times,serif" font-size="14.00" fill="#000000">174</text>
</g>
<!-- 209 -->
<g id="node2" class="node">
<title>209</title>
<ellipse fill="none" stroke="#000000" cx="99" cy="-18" rx="27" ry="18"/>
<text text-anchor="middle" x="99" y="-14.3" font-family="Times,serif" font-size="14.00" fill="#000000">209</text>
</g>
<!-- 701 -->
<g id="node3" class="node">
<title>701</title>
<ellipse fill="none" stroke="#000000" cx="171" cy="-18" rx="27" ry="18"/>
<text text-anchor="middle" x="171" y="-14.3" font-family="Times,serif" font-size="14.00" fill="#000000">701</text>
</g>
<!-- 1239 -->
<g id="node4" class="node">
<title>1239</title>
<ellipse fill="none" stroke="#000000" cx="245" cy="-18" rx="28.6953" ry="18"/>
<text text-anchor="middle" x="245" y="-14.3" font-family="Times,serif" font-size="14.00" fill="#000000">1239</text>
</g>
<!-- 1273 -->
<g id="node5" class="node">
<title>1273</title>
<ellipse fill="none" stroke="#000000" cx="320" cy="-18" rx="28.6953" ry="18"/>
<text text-anchor="middle" x="320" y="-14.3" font-family="Times,serif" font-size="14.00" fill="#000000">1273</text>
</g>
<!-- 1299 -->
<g id="node6" class="node">
<title>1299</title>
<ellipse fill="none" stroke="#000000" cx="395" cy="-18" rx="28.6953" ry="18"/>
<text text-anchor="middle" x="395" y="-14.3" font-family="Times,serif" font-size="14.00" fill="#000000">1299</text>
</g>
<!-- 2497 -->
<g id="node7" class="node">
<title>2497</title>
<ellipse fill="none" stroke="#000000" cx="470" cy="-18" rx="28.6953" ry="18"/>
<text text-anchor="middle" x="470" y="-14.3" font-family="Times,serif" font-size="14.00" fill="#000000">2497</text>
</g>
<!-- 2914 -->
<g id="node8" class="node">
<title>2914</title>
<ellipse fill="none" stroke="#000000" cx="545" cy="-18" rx="28.6953" ry="18"/>
<text text-anchor="middle" x="545" y="-14.3" font-family="Times,serif" font-size="14.00" fill="#000000">2914</text>
</g>
<!-- 3257 -->
<g id="node9" class="node">
<title>3257</title>
<ellipse fill="none" stroke="#000000" cx="620" cy="-18" rx="28.6953" ry="18"/>
<text text-anchor="middle" x="620" y="-14.3" font-family="Times,serif" font-size="14.00" fill="#000000">3257</text>
</g>
<!-- 3320 -->
<g id="node10" class="node">
<title>3320</title>
<ellipse fill="none" stroke="#000000" cx="695" cy="-18" rx="28.6953" ry="18"/>
<text text-anchor="middle" x="695" y="-14.3" font-family="Times,serif" font-size="14.00" fill="#000000">3320</text>
</g>
<!-- 3356 -->
<g id="node11" class="node">
<title>3356</title>
<ellipse fill="none" stroke="#000000" cx="620" cy="-90" rx="28.6953" ry="18"/>
<text text-anchor="middle" x="620" y="-86.3" font-family="Times,serif" font-size="14.00" fill="#000000">3356</text>
</g>
<!-- 3356&#45;&gt;174 -->
<g id="edge1" class="edge">
<title>3356&#45;&gt;174</title>
<path fill="none" stroke="#000000" d="M591.1847,-88.5994C491.8053,-83.5524 163.9533,-65.0456 63,-36 60.8721,-35.3878 58.7194,-34.6513 56.5807,-33.8308"/>
<polygon fill="#000000" stroke="#000000" points="57.9779,-30.6218 47.4135,-29.8195 55.1717,-37.0347 57.9779,-30.6218"/>
</g>
<!-- 3356&#45;&gt;209 -->
<g id="edge2" class="edge">
<title>3356&#45;&gt;209</title>
<path fill="none" stroke="#000000" d="M591.5083,-88.148C501.1305,-82.0668 221.7344,-61.6246 135,-36 133.0901,-35.4357 131.1593,-34.774 129.2359,-34.0436"/>
<polygon fill="#000000" stroke="#000000" points="130.3782,-30.7239 119.8116,-29.951 127.5899,-37.1446 130.3782,-30.7239"/>
</g>
<!-- 3356&#45;&gt;701 -->
<g id="edge3" class="edge">
<title>3356&#45;&gt;701</title>
<path fill="none" stroke="#000000" d="M591.5315,-87.5212C510.4553,-80.2656 279.5204,-58.1816 207,-36 205.0956,-35.4175 203.169,-34.7416 201.2489,-34.0003"/>
<polygon fill="#000000" stroke="#000000" points="202.3976,-30.6826 191.8332,-29.8789 199.5906,-37.0952 202.3976,-30.6826"/>
</g>
<!-- 3356&#45;&gt;1239 -->
<g id="edge4" class="edge">
<title>3356&#45;&gt;1239</title>
<path fill="none" stroke="#000000" d="M591.3073,-88.2664C532.1962,-84.0801 393.0758,-71.0427 282,-36 280.1095,-35.4036 278.1942,-34.725 276.2815,-33.989"/>
<polygon fill="#000000" stroke="#000000" points="277.4382,-30.6766 266.8685,-29.9459 274.6755,-37.1084 277.4382,-30.6766"/>
</g>
<!-- 3356&#45;&gt;1273 -->
<g id="edge5" class="edge">
<title>3356&#45;&gt;1273</title>
<path fill="none" stroke="#000000" d="M591.751,-86.5632C542.9151,-80.1042 439.9693,-64.2008 357,-36 355.1232,-35.3621 353.2184,-34.6509 351.314,-33.89"/>
<polygon fill="#000000" stroke="#000000" points="352.4878,-30.5832 341.9235,-29.778 349.6799,-36.9953 352.4878,-30.5832"/>
</g>
<!-- 3356&#45;&gt;1299 -->
<g id="edge6" class="edge">
<title>3356&#45;&gt;1299</title>
<path fill="none" stroke="#000000" d="M593.0598,-83.8212C556.1226,-74.9998 487.9619,-57.4639 432,-36 430.1492,-35.2901 428.2648,-34.5226 426.376,-33.7184"/>
<polygon fill="#000000" stroke="#000000" points="427.5822,-30.4225 417.0287,-29.4871 424.6954,-36.7996 427.5822,-30.4225"/>
</g>
<!-- 3356&#45;&gt;2497 -->
<g id="edge7" class="edge">
<title>3356&#45;&gt;2497</title>
<path fill="none" stroke="#000000" d="M597.0366,-79.084C574.1892,-68.2095 538.1404,-51.0151 507,-36 505.4075,-35.2321 503.777,-34.4445 502.1309,-33.6481"/>
<polygon fill="#000000" stroke="#000000" points="503.211,-30.282 492.686,-29.0674 500.1564,-36.5804 503.211,-30.282"/>
</g>
<!-- 3356&#45;&gt;2914 -->
<g id="edge8" class="edge">
<title>3356&#45;&gt;2914</title>
<path fill="none" stroke="#000000" d="M604.0944,-74.7307C593.6537,-64.7075 579.8251,-51.4321 568.1702,-40.2434"/>
<polygon fill="#000000" stroke="#000000" points="570.5204,-37.6478 560.8826,-33.2473 565.6727,-42.6976 570.5204,-37.6478"/>
</g>
<!-- 3356&#45;&gt;3257 -->
<g id="edge9" class="edge">
<title>3356&#45;&gt;3257</title>
<path fill="none" stroke="#000000" d="M620,-71.8314C620,-64.131 620,-54.9743 620,-46.4166"/>
<polygon fill="#000000" stroke="#000000" points="623.5001,-46.4132 620,-36.4133 616.5001,-46.4133 623.5001,-46.4132"/>
</g>
<!-- 3356&#45;&gt;3320 -->
<g id="edge10" class="edge">
<title>3356&#45;&gt;3320</title>
<path fill="none" stroke="#000000" d="M635.9056,-74.7307C646.3463,-64.7075 660.1749,-51.4321 671.8298,-40.2434"/>
<polygon fill="#000000" stroke="#000000" points="674.3273,-42.6976 679.1174,-33.2473 669.4796,-37.6478 674.3273,-42.6976"/>
</g>
<!-- 3491 -->
<g id="node12" class="node">
<title>3491</title>
<ellipse fill="none" stroke="#000000" cx="770" cy="-18" rx="28.6953" ry="18"/>
<text text-anchor="middle" x="770" y="-14.3" font-family="Times,serif" font-size="14.00" fill="#000000">3491</text>
</g>
<!-- 3356&#45;&gt;3491 -->
<g id="edge11" class="edge">
<title>3356&#45;&gt;3491</title>
<path fill="none" stroke="#000000" d="M642.9634,-79.084C665.8108,-68.2095 701.8596,-51.0151 733,-36 734.5925,-35.2321 736.223,-34.4445 737.8691,-33.6481"/>
<polygon fill="#000000" stroke="#000000" points="739.8436,-36.5804 747.314,-29.0674 736.789,-30.282 739.8436,-36.5804"/>
</g>
<!-- 3549 -->
<g id="node13" class="node">
<title>3549</title>
<ellipse fill="none" stroke="#000000" cx="845" cy="-18" rx="28.6953" ry="18"/>
<text text-anchor="middle" x="845" y="-14.3" font-family="Times,serif" font-size="14.00" fill="#000000">3549</text>
</g>
<!-- 3356&#45;&gt;3549 -->
<g id="edge12" class="edge">
<title>3356&#45;&gt;3549</title>
<path fill="none" stroke="#000000" d="M646.9402,-83.8212C683.8774,-74.9998 752.0381,-57.4639 808,-36 809.8508,-35.2901 811.7352,-34.5226 813.624,-33.7184"/>
<polygon fill="#000000" stroke="#000000" points="815.3046,-36.7996 822.9713,-29.4871 812.4178,-30.4225 815.3046,-36.7996"/>
</g>
<!-- 5511 -->
<g id="node15" class="node">
<title>5511</title>
<ellipse fill="none" stroke="#000000" cx="920" cy="-18" rx="28.6953" ry="18"/>
<text text-anchor="middle" x="920" y="-14.3" font-family="Times,serif" font-size="14.00" fill="#000000">5511</text>
</g>
<!-- 3356&#45;&gt;5511 -->
<g id="edge13" class="edge">
<title>3356&#45;&gt;5511</title>
<path fill="none" stroke="#000000" d="M648.249,-86.5632C697.0849,-80.1042 800.0307,-64.2008 883,-36 884.8768,-35.3621 886.7816,-34.6509 888.686,-33.89"/>
<polygon fill="#000000" stroke="#000000" points="890.3201,-36.9953 898.0765,-29.778 887.5122,-30.5832 890.3201,-36.9953"/>
</g>
<!-- 6453 -->
<g id="node17" class="node">
<title>6453</title>
<ellipse fill="none" stroke="#000000" cx="995" cy="-18" rx="28.6953" ry="18"/>
<text text-anchor="middle" x="995" y="-14.3" font-family="Times,serif" font-size="14.00" fill="#000000">6453</text>
</g>
<!-- 3356&#45;&gt;6453 -->
<g id="edge14" class="edge">
<title>3356&#45;&gt;6453</title>
<path fill="none" stroke="#000000" d="M648.6927,-88.2664C707.8038,-84.0801 846.9242,-71.0427 958,-36 959.8905,-35.4036 961.8058,-34.725 963.7185,-33.989"/>
<polygon fill="#000000" stroke="#000000" points="965.3245,-37.1084 973.1315,-29.9459 962.5618,-30.6766 965.3245,-37.1084"/>
</g>
<!-- 6461 -->
<g id="node18" class="node">
<title>6461</title>
<ellipse fill="none" stroke="#000000" cx="1070" cy="-18" rx="28.6953" ry="18"/>
<text text-anchor="middle" x="1070" y="-14.3" font-family="Times,serif" font-size="14.00" fill="#000000">6461</text>
</g>
<!-- 3356&#45;&gt;6461 -->
<g id="edge15" class="edge">
<title>3356&#45;&gt;6461</title>
<path fill="none" stroke="#000000" d="M648.7004,-89.4071C716.8328,-87.3251 893.0881,-77.9643 1033,-36 1034.8987,-35.4305 1036.8206,-34.773 1038.7382,-34.0532"/>
<polygon fill="#000000" stroke="#000000" points="1040.3256,-37.1818 1048.1649,-30.0547 1037.5921,-30.7375 1040.3256,-37.1818"/>
</g>
<!-- 6762 -->
<g id="node19" class="node">
<title>6762</title>
<ellipse fill="none" stroke="#000000" cx="1145" cy="-18" rx="28.6953" ry="18"/>
<text text-anchor="middle" x="1145" y="-14.3" font-family="Times,serif" font-size="14.00" fill="#000000">6762</text>
</g>
<!-- 3356&#45;&gt;6762 -->
<g id="edge16" class="edge">
<title>3356&#45;&gt;6762</title>
<path fill="none" stroke="#000000" d="M648.6563,-88.1192C739.558,-81.9514 1020.5883,-61.277 1108,-36 1109.9557,-35.4345 1111.9346,-34.7717 1113.9072,-34.0405"/>
<polygon fill="#000000" stroke="#000000" points="1115.7369,-37.0668 1123.5819,-29.9459 1113.0085,-30.6203 1115.7369,-37.0668"/>
</g>
<!-- 7018 -->
<g id="node20" class="node">
<title>7018</title>
<ellipse fill="none" stroke="#000000" cx="1220" cy="-18" rx="28.6953" ry="18"/>
<text text-anchor="middle" x="1220" y="-14.3" font-family="Times,serif" font-size="14.00" fill="#000000">7018</text>
</g>
<!-- 3356&#45;&gt;7018 -->
<g id="edge17" class="edge">
<title>3356&#45;&gt;7018</title>
<path fill="none" stroke="#000000" d="M648.7666,-88.5956C748.7588,-83.5034 1080.6784,-64.7816 1183,-36 1184.9598,-35.4487 1186.9418,-34.7971 1188.9168,-34.0743"/>
<polygon fill="#000000" stroke="#000000" points="1190.7372,-37.1057 1198.598,-30.0024 1188.0232,-30.6533 1190.7372,-37.1057"/>
</g>
<!-- 3597 -->
<g id="node14" class="node">
<title>3597</title>
<ellipse fill="none" stroke="#000000" cx="582" cy="-234" rx="28.6953" ry="18"/>
<text text-anchor="middle" x="582" y="-230.3" font-family="Times,serif" font-size="14.00" fill="#000000">3597</text>
</g>
<!-- 5692 -->
<g id="node16" class="node">
<title>5692</title>
<ellipse fill="none" stroke="#000000" cx="1076" cy="-306" rx="28.6953" ry="18"/>
<text text-anchor="middle" x="1076" y="-302.3" font-family="Times,serif" font-size="14.00" fill="#000000">5692</text>
</g>
<!-- 5692&#45;&gt;3597 -->
<g id="edge18" class="edge">
<title>5692&#45;&gt;3597</title>
<path fill="none" stroke="#000000" d="M1047.4155,-303.8332C960.6364,-297.0637 701.2092,-275.3629 620,-252 617.834,-251.3769 615.6377,-250.6422 613.45,-249.832"/>
<polygon fill="#000000" stroke="#000000" points="614.6104,-246.5239 604.0335,-245.9077 611.9176,-252.9852 614.6104,-246.5239"/>
</g>
<!-- 10834 -->
<g id="node21" class="node">
<title>10834</title>
<ellipse fill="none" stroke="#000000" cx="661" cy="-234" rx="32.4942" ry="18"/>
<text text-anchor="middle" x="661" y="-230.3" font-family="Times,serif" font-size="14.00" fill="#000000">10834</text>
</g>
<!-- 5692&#45;&gt;10834 -->
<g id="edge19" class="edge">
<title>5692&#45;&gt;10834</title>
<path fill="none" stroke="#000000" d="M1047.4009,-304.4071C984.206,-300.3384 828.3407,-287.2744 703,-252 700.5277,-251.3042 698.009,-250.4966 695.4952,-249.6164"/>
<polygon fill="#000000" stroke="#000000" points="696.5223,-246.2617 685.9321,-245.946 694.0139,-252.7969 696.5223,-246.2617"/>
</g>
<!-- 11008 -->
<g id="node22" class="node">
<title>11008</title>
<ellipse fill="none" stroke="#000000" cx="744" cy="-234" rx="32.4942" ry="18"/>
<text text-anchor="middle" x="744" y="-230.3" font-family="Times,serif" font-size="14.00" fill="#000000">11008</text>
</g>
<!-- 5692&#45;&gt;11008 -->
<g id="edge20" class="edge">
<title>5692&#45;&gt;11008</title>
<path fill="none" stroke="#000000" d="M1047.5102,-302.8151C994.964,-296.4771 879.605,-280.3918 786,-252 783.5422,-251.2545 781.0344,-250.4097 778.5284,-249.5026"/>
<polygon fill="#000000" stroke="#000000" points="779.5706,-246.1522 768.9825,-245.7737 777.0236,-252.6724 779.5706,-246.1522"/>
</g>
<!-- 27865 -->
<g id="node25" class="node">
<title>27865</title>
<ellipse fill="none" stroke="#000000" cx="827" cy="-234" rx="32.4942" ry="18"/>
<text text-anchor="middle" x="827" y="-230.3" font-family="Times,serif" font-size="14.00" fill="#000000">27865</text>
</g>
<!-- 5692&#45;&gt;27865 -->
<g id="edge21" class="edge">
<title>5692&#45;&gt;27865</title>
<path fill="none" stroke="#000000" d="M1048.8227,-300.2764C1008.889,-291.5606 932.2444,-273.6654 869,-252 866.5703,-251.1677 864.0834,-250.258 861.5926,-249.3038"/>
<polygon fill="#000000" stroke="#000000" points="862.6632,-245.9618 852.0797,-245.4727 860.0482,-252.455 862.6632,-245.9618"/>
</g>
<!-- 28065 -->
<g id="node26" class="node">
<title>28065</title>
<ellipse fill="none" stroke="#000000" cx="910" cy="-234" rx="32.4942" ry="18"/>
<text text-anchor="middle" x="910" y="-230.3" font-family="Times,serif" font-size="14.00" fill="#000000">28065</text>
</g>
<!-- 5692&#45;&gt;28065 -->
<g id="edge22" class="edge">
<title>5692&#45;&gt;28065</title>
<path fill="none" stroke="#000000" d="M1052.2162,-295.6842C1024.1868,-283.5268 977.3574,-263.2153 945.141,-249.2419"/>
<polygon fill="#000000" stroke="#000000" points="946.2158,-245.8931 935.6489,-245.1248 943.4304,-252.315 946.2158,-245.8931"/>
</g>
<!-- 52317 -->
<g id="node27" class="node">
<title>52317</title>
<ellipse fill="none" stroke="#000000" cx="993" cy="-234" rx="32.4942" ry="18"/>
<text text-anchor="middle" x="993" y="-230.3" font-family="Times,serif" font-size="14.00" fill="#000000">52317</text>
</g>
<!-- 5692&#45;&gt;52317 -->
<g id="edge23" class="edge">
<title>5692&#45;&gt;52317</title>
<path fill="none" stroke="#000000" d="M1059.2037,-291.4297C1047.514,-281.2892 1031.7126,-267.5821 1018.479,-256.1023"/>
<polygon fill="#000000" stroke="#000000" points="1020.4781,-253.2031 1010.6307,-249.2941 1015.8912,-258.4908 1020.4781,-253.2031"/>
</g>
<!-- 52375 -->
<g id="node28" class="node">
<title>52375</title>
<ellipse fill="none" stroke="#000000" cx="1076" cy="-234" rx="32.4942" ry="18"/>
<text text-anchor="middle" x="1076" y="-230.3" font-family="Times,serif" font-size="14.00" fill="#000000">52375</text>
</g>
<!-- 5692&#45;&gt;52375 -->
<g id="edge24" class="edge">
<title>5692&#45;&gt;52375</title>
<path fill="none" stroke="#000000" d="M1076,-287.8314C1076,-280.131 1076,-270.9743 1076,-262.4166"/>
<polygon fill="#000000" stroke="#000000" points="1079.5001,-262.4132 1076,-252.4133 1072.5001,-262.4133 1079.5001,-262.4132"/>
</g>
<!-- 52376 -->
<g id="node29" class="node">
<title>52376</title>
<ellipse fill="none" stroke="#000000" cx="1159" cy="-234" rx="32.4942" ry="18"/>
<text text-anchor="middle" x="1159" y="-230.3" font-family="Times,serif" font-size="14.00" fill="#000000">52376</text>
</g>
<!-- 5692&#45;&gt;52376 -->
<g id="edge25" class="edge">
<title>5692&#45;&gt;52376</title>
<path fill="none" stroke="#000000" d="M1092.7963,-291.4297C1104.486,-281.2892 1120.2874,-267.5821 1133.521,-256.1023"/>
<polygon fill="#000000" stroke="#000000" points="1136.1088,-258.4908 1141.3693,-249.2941 1131.5219,-253.2031 1136.1088,-258.4908"/>
</g>
<!-- 52380 -->
<g id="node30" class="node">
<title>52380</title>
<ellipse fill="none" stroke="#000000" cx="1242" cy="-234" rx="32.4942" ry="18"/>
<text text-anchor="middle" x="1242" y="-230.3" font-family="Times,serif" font-size="14.00" fill="#000000">52380</text>
</g>
<!-- 5692&#45;&gt;52380 -->
<g id="edge26" class="edge">
<title>5692&#45;&gt;52380</title>
<path fill="none" stroke="#000000" d="M1099.7838,-295.6842C1127.8132,-283.5268 1174.6426,-263.2153 1206.859,-249.2419"/>
<polygon fill="#000000" stroke="#000000" points="1208.5696,-252.315 1216.3511,-245.1248 1205.7842,-245.8931 1208.5696,-252.315"/>
</g>
<!-- 52413 -->
<g id="node31" class="node">
<title>52413</title>
<ellipse fill="none" stroke="#000000" cx="1325" cy="-234" rx="32.4942" ry="18"/>
<text text-anchor="middle" x="1325" y="-230.3" font-family="Times,serif" font-size="14.00" fill="#000000">52413</text>
</g>
<!-- 5692&#45;&gt;52413 -->
<g id="edge27" class="edge">
<title>5692&#45;&gt;52413</title>
<path fill="none" stroke="#000000" d="M1103.1773,-300.2764C1143.111,-291.5606 1219.7556,-273.6654 1283,-252 1285.4297,-251.1677 1287.9166,-250.258 1290.4074,-249.3038"/>
<polygon fill="#000000" stroke="#000000" points="1291.9518,-252.455 1299.9203,-245.4727 1289.3368,-245.9618 1291.9518,-252.455"/>
</g>
<!-- 52431 -->
<g id="node32" class="node">
<title>52431</title>
<ellipse fill="none" stroke="#000000" cx="1408" cy="-234" rx="32.4942" ry="18"/>
<text text-anchor="middle" x="1408" y="-230.3" font-family="Times,serif" font-size="14.00" fill="#000000">52431</text>
</g>
<!-- 5692&#45;&gt;52431 -->
<g id="edge28" class="edge">
<title>5692&#45;&gt;52431</title>
<path fill="none" stroke="#000000" d="M1104.4898,-302.8151C1157.036,-296.4771 1272.395,-280.3918 1366,-252 1368.4578,-251.2545 1370.9656,-250.4097 1373.4716,-249.5026"/>
<polygon fill="#000000" stroke="#000000" points="1374.9764,-252.6724 1383.0175,-245.7737 1372.4294,-246.1522 1374.9764,-252.6724"/>
</g>
<!-- 262230 -->
<g id="node33" class="node">
<title>262230</title>
<ellipse fill="none" stroke="#000000" cx="1496" cy="-234" rx="37.0935" ry="18"/>
<text text-anchor="middle" x="1496" y="-230.3" font-family="Times,serif" font-size="14.00" fill="#000000">262230</text>
</g>
<!-- 5692&#45;&gt;262230 -->
<g id="edge29" class="edge">
<title>5692&#45;&gt;262230</title>
<path fill="none" stroke="#000000" d="M1104.5,-304.0413C1167.4973,-299.243 1322.9929,-284.8146 1449,-252 1452.1286,-251.1853 1455.3346,-250.23 1458.5303,-249.1919"/>
<polygon fill="#000000" stroke="#000000" points="1459.7111,-252.4869 1467.9989,-245.8866 1457.404,-245.878 1459.7111,-252.4869"/>
</g>
<!-- 264608 -->
<g id="node34" class="node">
<title>264608</title>
<ellipse fill="none" stroke="#000000" cx="1588" cy="-234" rx="37.0935" ry="18"/>
<text text-anchor="middle" x="1588" y="-230.3" font-family="Times,serif" font-size="14.00" fill="#000000">264608</text>
</g>
<!-- 5692&#45;&gt;264608 -->
<g id="edge30" class="edge">
<title>5692&#45;&gt;264608</title>
<path fill="none" stroke="#000000" d="M1104.8256,-305.2303C1178.6272,-302.71 1379.9921,-292.3639 1542,-252 1544.8085,-251.3003 1547.6759,-250.4722 1550.538,-249.5618"/>
<polygon fill="#000000" stroke="#000000" points="1551.8601,-252.8076 1560.1547,-246.216 1549.5599,-246.1963 1551.8601,-252.8076"/>
</g>
<!-- 12956 -->
<g id="node23" class="node">
<title>12956</title>
<ellipse fill="none" stroke="#000000" cx="620" cy="-162" rx="32.4942" ry="18"/>
<text text-anchor="middle" x="620" y="-158.3" font-family="Times,serif" font-size="14.00" fill="#000000">12956</text>
</g>
<!-- 10834&#45;&gt;12956 -->
<g id="edge31" class="edge">
<title>10834&#45;&gt;12956</title>
<path fill="none" stroke="#000000" d="M651.075,-216.5708C646.19,-207.9922 640.2017,-197.4762 634.7903,-187.9732"/>
<polygon fill="#000000" stroke="#000000" points="637.8234,-186.2266 629.8336,-179.2687 631.7405,-189.6905 637.8234,-186.2266"/>
</g>
<!-- 22927 -->
<g id="node24" class="node">
<title>22927</title>
<ellipse fill="none" stroke="#000000" cx="703" cy="-162" rx="32.4942" ry="18"/>
<text text-anchor="middle" x="703" y="-158.3" font-family="Times,serif" font-size="14.00" fill="#000000">22927</text>
</g>
<!-- 10834&#45;&gt;22927 -->
<g id="edge32" class="edge">
<title>10834&#45;&gt;22927</title>
<path fill="none" stroke="#000000" d="M671.167,-216.5708C676.1712,-207.9922 682.3055,-197.4762 687.849,-187.9732"/>
<polygon fill="#000000" stroke="#000000" points="690.9111,-189.6701 692.9266,-179.2687 684.8646,-186.1429 690.9111,-189.6701"/>
</g>
<!-- 12956&#45;&gt;3356 -->
<g id="edge33" class="edge">
<title>12956&#45;&gt;3356</title>
<path fill="none" stroke="#000000" d="M620,-143.8314C620,-136.131 620,-126.9743 620,-118.4166"/>
<polygon fill="#000000" stroke="#000000" points="623.5001,-118.4132 620,-108.4133 616.5001,-118.4133 623.5001,-118.4132"/>
</g>
</g>
</svg>
