<?xml version="1.0" encoding="UTF-8" standalone="no"?>
<!DOCTYPE svg PUBLIC "-//W3C//DTD SVG 1.1//EN"
 "http://www.w3.org/Graphics/SVG/1.1/DTD/svg11.dtd">
<!-- Generated by graphviz version 2.40.1 (20161225.0304)
 -->
<!-- Title: %3 Pages: 1 -->
<svg width="449pt" height="404pt"
 viewBox="0.00 0.00 448.98 404.00" xmlns="http://www.w3.org/2000/svg" xmlns:xlink="http://www.w3.org/1999/xlink">
<g id="graph0" class="graph" transform="scale(1 1) rotate(0) translate(4 400)">
<title>%3</title>
<polygon fill="#ffffff" stroke="transparent" points="-4,4 -4,-400 444.9802,-400 444.9802,4 -4,4"/>
<!-- 174 -->
<g id="node1" class="node">
<title>174</title>
<ellipse fill="none" stroke="#000000" cx="332.3279" cy="-249.0521" rx="27" ry="18"/>
<text text-anchor="middle" x="332.3279" y="-245.3521" font-family="Times,serif" font-size="14.00" fill="#000000">174</text>
</g>
<!-- 209 -->
<g id="node2" class="node">
<title>209</title>
<ellipse fill="none" stroke="#000000" cx="326.0689" cy="-278.4984" rx="27" ry="18"/>
<text text-anchor="middle" x="326.0689" y="-274.7984" font-family="Times,serif" font-size="14.00" fill="#000000">209</text>
</g>
<!-- 701 -->
<g id="node3" class="node">
<title>701</title>
<ellipse fill="none" stroke="#000000" cx="313.8244" cy="-306" rx="27" ry="18"/>
<text text-anchor="middle" x="313.8244" y="-302.3" font-family="Times,serif" font-size="14.00" fill="#000000">701</text>
</g>
<!-- 1239 -->
<g id="node4" class="node">
<title>1239</title>
<ellipse fill="none" stroke="#000000" cx="296.1296" cy="-330.3548" rx="28.6953" ry="18"/>
<text text-anchor="middle" x="296.1296" y="-326.6548" font-family="Times,serif" font-size="14.00" fill="#000000">1239</text>
</g>
<!-- 1273 -->
<g id="node5" class="node">
<title>1273</title>
<ellipse fill="none" stroke="#000000" cx="273.7578" cy="-350.4984" rx="28.6953" ry="18"/>
<text text-anchor="middle" x="273.7578" y="-346.7984" font-family="Times,serif" font-size="14.00" fill="#000000">1273</text>
</g>
<!-- 1299 -->
<g id="node6" class="node">
<title>1299</title>
<ellipse fill="none" stroke="#000000" cx="247.6868" cy="-365.5505" rx="28.6953" ry="18"/>
<text text-anchor="middle" x="247.6868" y="-361.8505" font-family="Times,serif" font-size="14.00" fill="#000000">1299</text>
</g>
<!-- 2497 -->
<g id="node7" class="node">
<title>2497</title>
<ellipse fill="none" stroke="#000000" cx="219.056" cy="-374.8533" rx="28.6953" ry="18"/>
<text text-anchor="middle" x="219.056" y="-371.1533" font-family="Times,serif" font-size="14.00" fill="#000000">2497</text>
</g>
<!-- 2914 -->
<g id="node8" class="node">
<title>2914</title>
<ellipse fill="none" stroke="#000000" cx="189.1167" cy="-378" rx="28.6953" ry="18"/>
<text text-anchor="middle" x="189.1167" y="-374.3" font-family="Times,serif" font-size="14.00" fill="#000000">2914</text>
</g>
<!-- 3257 -->
<g id="node9" class="node">
<title>3257</title>
<ellipse fill="none" stroke="#000000" cx="159.1775" cy="-374.8533" rx="28.6953" ry="18"/>
<text text-anchor="middle" x="159.1775" y="-371.1533" font-family="Times,serif" font-size="14.00" fill="#000000">3257</text>
</g>
<!-- 3320 -->
<g id="node10" class="node">
<title>3320</title>
<ellipse fill="none" stroke="#000000" cx="130.5467" cy="-365.5505" rx="28.6953" ry="18"/>
<text text-anchor="middle" x="130.5467" y="-361.8505" font-family="Times,serif" font-size="14.00" fill="#000000">3320</text>
</g>
<!-- 3356 -->
<g id="node11" class="node">
<title>3356</title>
<ellipse fill="none" stroke="#000000" cx="174.1471" cy="-304.4266" rx="28.6953" ry="18"/>
<text text-anchor="middle" x="174.1471" y="-300.7266" font-family="Times,serif" font-size="14.00" fill="#000000">3356</text>
</g>
<!-- 3356&#45;&gt;174 -->
<g id="edge1" class="edge">
<title>3356&#45;&gt;174</title>
<path fill="none" stroke="#000000" d="M199.2113,-295.6524C226.1352,-286.2271 269.0593,-271.2006 298.8566,-260.7694"/>
<polygon fill="#000000" stroke="#000000" points="300.1345,-264.0304 308.4164,-257.4228 297.8215,-257.4236 300.1345,-264.0304"/>
</g>
<!-- 3356&#45;&gt;209 -->
<g id="edge2" class="edge">
<title>3356&#45;&gt;209</title>
<path fill="none" stroke="#000000" d="M202.0119,-299.671C226.6649,-295.4635 262.7999,-289.2964 289.7194,-284.7021"/>
<polygon fill="#000000" stroke="#000000" points="290.6354,-288.0965 299.904,-282.964 289.4577,-281.1963 290.6354,-288.0965"/>
</g>
<!-- 3356&#45;&gt;701 -->
<g id="edge3" class="edge">
<title>3356&#45;&gt;701</title>
<path fill="none" stroke="#000000" d="M202.7499,-304.7488C224.0676,-304.9889 253.3713,-305.319 276.5275,-305.5799"/>
<polygon fill="#000000" stroke="#000000" points="276.6447,-309.0813 286.6835,-305.6943 276.7236,-302.0818 276.6447,-309.0813"/>
</g>
<!-- 3356&#45;&gt;1239 -->
<g id="edge4" class="edge">
<title>3356&#45;&gt;1239</title>
<path fill="none" stroke="#000000" d="M201.5224,-310.2454C218.4729,-313.8484 240.4611,-318.5221 258.973,-322.4569"/>
<polygon fill="#000000" stroke="#000000" points="258.3365,-325.8998 268.8457,-324.5554 259.792,-319.0527 258.3365,-325.8998"/>
</g>
<!-- 3356&#45;&gt;1273 -->
<g id="edge5" class="edge">
<title>3356&#45;&gt;1273</title>
<path fill="none" stroke="#000000" d="M197.2502,-315.1122C210.3566,-321.1742 226.9657,-328.8562 241.3571,-335.5125"/>
<polygon fill="#000000" stroke="#000000" points="239.8895,-338.6899 250.435,-339.7112 242.8281,-332.3365 239.8895,-338.6899"/>
</g>
<!-- 3356&#45;&gt;1299 -->
<g id="edge6" class="edge">
<title>3356&#45;&gt;1299</title>
<path fill="none" stroke="#000000" d="M191.575,-318.9121C200.825,-326.6005 212.3581,-336.1864 222.5584,-344.6646"/>
<polygon fill="#000000" stroke="#000000" points="220.4564,-347.4686 230.384,-351.169 224.9308,-342.0853 220.4564,-347.4686"/>
</g>
<!-- 3356&#45;&gt;2497 -->
<g id="edge7" class="edge">
<title>3356&#45;&gt;2497</title>
<path fill="none" stroke="#000000" d="M185.0183,-321.4749C190.3691,-329.8661 196.9283,-340.1523 202.8556,-349.4476"/>
<polygon fill="#000000" stroke="#000000" points="199.9572,-351.4121 208.2849,-357.9619 205.8594,-347.6485 199.9572,-351.4121"/>
</g>
<!-- 3356&#45;&gt;2914 -->
<g id="edge8" class="edge">
<title>3356&#45;&gt;2914</title>
<path fill="none" stroke="#000000" d="M177.8475,-322.6133C179.5334,-330.8992 181.5669,-340.8936 183.4397,-350.0985"/>
<polygon fill="#000000" stroke="#000000" points="180.0353,-350.9212 185.4589,-360.0225 186.8948,-349.5254 180.0353,-350.9212"/>
</g>
<!-- 3356&#45;&gt;3257 -->
<g id="edge9" class="edge">
<title>3356&#45;&gt;3257</title>
<path fill="none" stroke="#000000" d="M170.292,-322.5632C168.7327,-329.8993 166.8961,-338.54 165.1698,-346.6613"/>
<polygon fill="#000000" stroke="#000000" points="161.7272,-346.0241 163.0715,-356.5333 168.5742,-347.4796 161.7272,-346.0241"/>
</g>
<!-- 3356&#45;&gt;3320 -->
<g id="edge10" class="edge">
<title>3356&#45;&gt;3320</title>
<path fill="none" stroke="#000000" d="M162.2331,-321.129C158.0035,-327.0585 153.1441,-333.871 148.5215,-340.3514"/>
<polygon fill="#000000" stroke="#000000" points="145.4041,-338.6948 142.4463,-348.8684 151.1028,-342.7598 145.4041,-338.6948"/>
</g>
<!-- 3491 -->
<g id="node12" class="node">
<title>3491</title>
<ellipse fill="none" stroke="#000000" cx="104.4757" cy="-350.4984" rx="28.6953" ry="18"/>
<text text-anchor="middle" x="104.4757" y="-346.7984" font-family="Times,serif" font-size="14.00" fill="#000000">3491</text>
</g>
<!-- 3356&#45;&gt;3491 -->
<g id="edge11" class="edge">
<title>3356&#45;&gt;3491</title>
<path fill="none" stroke="#000000" d="M154.3684,-317.5057C147.8059,-321.8454 140.3605,-326.7688 133.261,-331.4635"/>
<polygon fill="#000000" stroke="#000000" points="130.9564,-328.7914 124.5457,-337.2267 134.8175,-334.6302 130.9564,-328.7914"/>
</g>
<!-- 3549 -->
<g id="node13" class="node">
<title>3549</title>
<ellipse fill="none" stroke="#000000" cx="82.1039" cy="-330.3548" rx="28.6953" ry="18"/>
<text text-anchor="middle" x="82.1039" y="-326.6548" font-family="Times,serif" font-size="14.00" fill="#000000">3549</text>
</g>
<!-- 3356&#45;&gt;3549 -->
<g id="edge12" class="edge">
<title>3356&#45;&gt;3549</title>
<path fill="none" stroke="#000000" d="M148.0174,-311.7872C138.6899,-314.4148 128.0124,-317.4226 118.0063,-320.2413"/>
<polygon fill="#000000" stroke="#000000" points="116.9753,-316.8954 108.2989,-322.9758 118.8733,-323.6332 116.9753,-316.8954"/>
</g>
<!-- 5511 -->
<g id="node15" class="node">
<title>5511</title>
<ellipse fill="none" stroke="#000000" cx="64.4091" cy="-306" rx="28.6953" ry="18"/>
<text text-anchor="middle" x="64.4091" y="-302.3" font-family="Times,serif" font-size="14.00" fill="#000000">5511</text>
</g>
<!-- 3356&#45;&gt;5511 -->
<g id="edge13" class="edge">
<title>3356&#45;&gt;5511</title>
<path fill="none" stroke="#000000" d="M145.3147,-304.84C132.4613,-305.0243 117.1264,-305.2442 103.2807,-305.4427"/>
<polygon fill="#000000" stroke="#000000" points="102.9977,-301.9463 93.0489,-305.5894 103.0981,-308.9456 102.9977,-301.9463"/>
</g>
<!-- 6453 -->
<g id="node17" class="node">
<title>6453</title>
<ellipse fill="none" stroke="#000000" cx="52.1646" cy="-278.4984" rx="28.6953" ry="18"/>
<text text-anchor="middle" x="52.1646" y="-274.7984" font-family="Times,serif" font-size="14.00" fill="#000000">6453</text>
</g>
<!-- 3356&#45;&gt;6453 -->
<g id="edge14" class="edge">
<title>3356&#45;&gt;6453</title>
<path fill="none" stroke="#000000" d="M146.7718,-298.6078C129.8213,-295.0049 107.8331,-290.3311 89.3212,-286.3963"/>
<polygon fill="#000000" stroke="#000000" points="89.9577,-282.9535 79.4485,-284.2978 88.5023,-289.8005 89.9577,-282.9535"/>
</g>
<!-- 6461 -->
<g id="node18" class="node">
<title>6461</title>
<ellipse fill="none" stroke="#000000" cx="45.9056" cy="-249.0521" rx="28.6953" ry="18"/>
<text text-anchor="middle" x="45.9056" y="-245.3521" font-family="Times,serif" font-size="14.00" fill="#000000">6461</text>
</g>
<!-- 3356&#45;&gt;6461 -->
<g id="edge15" class="edge">
<title>3356&#45;&gt;6461</title>
<path fill="none" stroke="#000000" d="M150.3264,-294.1409C130.2615,-285.4769 101.3426,-272.9897 79.0235,-263.3524"/>
<polygon fill="#000000" stroke="#000000" points="80.1669,-260.0338 69.5987,-259.2828 77.3919,-266.4603 80.1669,-260.0338"/>
</g>
<!-- 6762 -->
<g id="node19" class="node">
<title>6762</title>
<ellipse fill="none" stroke="#000000" cx="45.9056" cy="-218.9479" rx="28.6953" ry="18"/>
<text text-anchor="middle" x="45.9056" y="-215.2479" font-family="Times,serif" font-size="14.00" fill="#000000">6762</text>
</g>
<!-- 3356&#45;&gt;6762 -->
<g id="edge16" class="edge">
<title>3356&#45;&gt;6762</title>
<path fill="none" stroke="#000000" d="M154.3904,-291.2579C132.9899,-276.9935 98.6574,-254.1094 74.3537,-237.9099"/>
<polygon fill="#000000" stroke="#000000" points="76.1582,-234.9064 65.896,-232.2724 72.2758,-240.7311 76.1582,-234.9064"/>
</g>
<!-- 7018 -->
<g id="node20" class="node">
<title>7018</title>
<ellipse fill="none" stroke="#000000" cx="52.1646" cy="-189.5016" rx="28.6953" ry="18"/>
<text text-anchor="middle" x="52.1646" y="-185.8016" font-family="Times,serif" font-size="14.00" fill="#000000">7018</text>
</g>
<!-- 3356&#45;&gt;7018 -->
<g id="edge17" class="edge">
<title>3356&#45;&gt;7018</title>
<path fill="none" stroke="#000000" d="M158.2,-289.4022C137.1052,-269.5278 99.7676,-234.3505 75.4988,-211.4857"/>
<polygon fill="#000000" stroke="#000000" points="77.7942,-208.8396 68.1156,-204.5297 72.994,-213.9346 77.7942,-208.8396"/>
</g>
<!-- 3597 -->
<g id="node14" class="node">
<title>3597</title>
<ellipse fill="none" stroke="#000000" cx="28.5975" cy="-89.4678" rx="28.6953" ry="18"/>
<text text-anchor="middle" x="28.5975" y="-85.7678" font-family="Times,serif" font-size="14.00" fill="#000000">3597</text>
</g>
<!-- 5692 -->
<g id="node16" class="node">
<title>5692</title>
<ellipse fill="none" stroke="#000000" cx="233.6152" cy="-97.0479" rx="28.6953" ry="18"/>
<text text-anchor="middle" x="233.6152" y="-93.3479" font-family="Times,serif" font-size="14.00" fill="#000000">5692</text>
</g>
<!-- 5692&#45;&gt;3597 -->
<g id="edge18" class="edge">
<title>5692&#45;&gt;3597</title>
<path fill="none" stroke="#000000" d="M204.676,-95.9779C168.8076,-94.6517 107.54,-92.3865 67.5632,-90.9085"/>
<polygon fill="#000000" stroke="#000000" points="67.512,-87.4043 57.3894,-90.5323 67.2533,-94.3995 67.512,-87.4043"/>
</g>
<!-- 10834 -->
<g id="node21" class="node">
<title>10834</title>
<ellipse fill="none" stroke="#000000" cx="204.0864" cy="-163.5734" rx="32.4942" ry="18"/>
<text text-anchor="middle" x="204.0864" y="-159.8734" font-family="Times,serif" font-size="14.00" fill="#000000">10834</text>
</g>
<!-- 5692&#45;&gt;10834 -->
<g id="edge19" class="edge">
<title>5692&#45;&gt;10834</title>
<path fill="none" stroke="#000000" d="M225.8568,-114.5267C222.8291,-121.3478 219.2897,-129.3218 215.9553,-136.8338"/>
<polygon fill="#000000" stroke="#000000" points="212.7535,-135.4203 211.8954,-145.9803 219.1515,-138.2602 212.7535,-135.4203"/>
</g>
<!-- 11008 -->
<g id="node22" class="node">
<title>11008</title>
<ellipse fill="none" stroke="#000000" cx="62.1551" cy="-59.2523" rx="32.4942" ry="18"/>
<text text-anchor="middle" x="62.1551" y="-55.5523" font-family="Times,serif" font-size="14.00" fill="#000000">11008</text>
</g>
<!-- 5692&#45;&gt;11008 -->
<g id="edge20" class="edge">
<title>5692&#45;&gt;11008</title>
<path fill="none" stroke="#000000" d="M206.4468,-91.059C178.4139,-84.8797 134.3788,-75.1728 102.3231,-68.1067"/>
<polygon fill="#000000" stroke="#000000" points="102.8908,-64.6479 92.3718,-65.9131 101.3839,-71.4838 102.8908,-64.6479"/>
</g>
<!-- 27865 -->
<g id="node25" class="node">
<title>27865</title>
<ellipse fill="none" stroke="#000000" cx="101.2616" cy="-36.6742" rx="32.4942" ry="18"/>
<text text-anchor="middle" x="101.2616" y="-32.9742" font-family="Times,serif" font-size="14.00" fill="#000000">27865</text>
</g>
<!-- 5692&#45;&gt;27865 -->
<g id="edge21" class="edge">
<title>5692&#45;&gt;27865</title>
<path fill="none" stroke="#000000" d="M210.2577,-86.3932C189.6467,-76.9914 159.3243,-63.1597 135.8912,-52.4706"/>
<polygon fill="#000000" stroke="#000000" points="137.192,-49.2171 126.6412,-48.2512 134.2868,-55.5858 137.192,-49.2171"/>
</g>
<!-- 28065 -->
<g id="node26" class="node">
<title>28065</title>
<ellipse fill="none" stroke="#000000" cx="144.2078" cy="-22.7201" rx="32.4942" ry="18"/>
<text text-anchor="middle" x="144.2078" y="-19.0201" font-family="Times,serif" font-size="14.00" fill="#000000">28065</text>
</g>
<!-- 5692&#45;&gt;28065 -->
<g id="edge22" class="edge">
<title>5692&#45;&gt;28065</title>
<path fill="none" stroke="#000000" d="M215.9512,-82.3631C202.8977,-71.5112 184.9172,-56.5634 170.2225,-44.3471"/>
<polygon fill="#000000" stroke="#000000" points="172.3762,-41.5861 162.449,-37.8847 167.9013,-46.9689 172.3762,-41.5861"/>
</g>
<!-- 52317 -->
<g id="node27" class="node">
<title>52317</title>
<ellipse fill="none" stroke="#000000" cx="189.1167" cy="-18" rx="32.4942" ry="18"/>
<text text-anchor="middle" x="189.1167" y="-14.3" font-family="Times,serif" font-size="14.00" fill="#000000">52317</text>
</g>
<!-- 5692&#45;&gt;52317 -->
<g id="edge23" class="edge">
<title>5692&#45;&gt;52317</title>
<path fill="none" stroke="#000000" d="M223.9597,-79.8957C218.1106,-69.5052 210.53,-56.0389 203.934,-44.3216"/>
<polygon fill="#000000" stroke="#000000" points="206.8625,-42.3889 198.9071,-35.3917 200.7626,-45.8228 206.8625,-42.3889"/>
</g>
<!-- 52375 -->
<g id="node28" class="node">
<title>52375</title>
<ellipse fill="none" stroke="#000000" cx="234.0257" cy="-22.7201" rx="32.4942" ry="18"/>
<text text-anchor="middle" x="234.0257" y="-19.0201" font-family="Times,serif" font-size="14.00" fill="#000000">52375</text>
</g>
<!-- 5692&#45;&gt;52375 -->
<g id="edge24" class="edge">
<title>5692&#45;&gt;52375</title>
<path fill="none" stroke="#000000" d="M233.7167,-78.6747C233.7629,-70.3039 233.8186,-60.207 233.87,-50.9077"/>
<polygon fill="#000000" stroke="#000000" points="237.37,-50.9011 233.9254,-40.8819 230.3701,-50.8624 237.37,-50.9011"/>
</g>
<!-- 52376 -->
<g id="node29" class="node">
<title>52376</title>
<ellipse fill="none" stroke="#000000" cx="276.9719" cy="-36.6742" rx="32.4942" ry="18"/>
<text text-anchor="middle" x="276.9719" y="-32.9742" font-family="Times,serif" font-size="14.00" fill="#000000">52376</text>
</g>
<!-- 5692&#45;&gt;52376 -->
<g id="edge25" class="edge">
<title>5692&#45;&gt;52376</title>
<path fill="none" stroke="#000000" d="M245.4626,-80.5505C249.5996,-74.7898 254.3425,-68.1853 258.8712,-61.8791"/>
<polygon fill="#000000" stroke="#000000" points="261.8467,-63.736 264.837,-53.5719 256.1609,-59.6528 261.8467,-63.736"/>
</g>
<!-- 52380 -->
<g id="node30" class="node">
<title>52380</title>
<ellipse fill="none" stroke="#000000" cx="316.0784" cy="-59.2523" rx="32.4942" ry="18"/>
<text text-anchor="middle" x="316.0784" y="-55.5523" font-family="Times,serif" font-size="14.00" fill="#000000">52380</text>
</g>
<!-- 5692&#45;&gt;52380 -->
<g id="edge26" class="edge">
<title>5692&#45;&gt;52380</title>
<path fill="none" stroke="#000000" d="M257.0252,-86.3183C264.7057,-82.7981 273.4077,-78.8097 281.7254,-74.9974"/>
<polygon fill="#000000" stroke="#000000" points="283.2457,-78.1508 290.8781,-70.8024 280.3291,-71.7873 283.2457,-78.1508"/>
</g>
<!-- 52413 -->
<g id="node31" class="node">
<title>52413</title>
<ellipse fill="none" stroke="#000000" cx="349.636" cy="-89.4678" rx="32.4942" ry="18"/>
<text text-anchor="middle" x="349.636" y="-85.7678" font-family="Times,serif" font-size="14.00" fill="#000000">52413</text>
</g>
<!-- 5692&#45;&gt;52413 -->
<g id="edge27" class="edge">
<title>5692&#45;&gt;52413</title>
<path fill="none" stroke="#000000" d="M262.2945,-95.1741C275.8159,-94.2907 292.2224,-93.2188 307.1488,-92.2436"/>
<polygon fill="#000000" stroke="#000000" points="307.4419,-95.732 317.1924,-91.5875 306.9855,-88.7469 307.4419,-95.732"/>
</g>
<!-- 52431 -->
<g id="node32" class="node">
<title>52431</title>
<ellipse fill="none" stroke="#000000" cx="376.1782" cy="-126" rx="32.4942" ry="18"/>
<text text-anchor="middle" x="376.1782" y="-122.3" font-family="Times,serif" font-size="14.00" fill="#000000">52431</text>
</g>
<!-- 5692&#45;&gt;52431 -->
<g id="edge28" class="edge">
<title>5692&#45;&gt;52431</title>
<path fill="none" stroke="#000000" d="M261.1028,-102.6301C282.2715,-106.9291 311.8534,-112.9367 335.7231,-117.7842"/>
<polygon fill="#000000" stroke="#000000" points="335.0655,-121.2221 345.5621,-119.7824 336.4587,-114.3621 335.0655,-121.2221"/>
</g>
<!-- 262230 -->
<g id="node33" class="node">
<title>262230</title>
<ellipse fill="none" stroke="#000000" cx="394.545" cy="-167.2523" rx="37.0935" ry="18"/>
<text text-anchor="middle" x="394.545" y="-163.5523" font-family="Times,serif" font-size="14.00" fill="#000000">262230</text>
</g>
<!-- 5692&#45;&gt;262230 -->
<g id="edge29" class="edge">
<title>5692&#45;&gt;262230</title>
<path fill="none" stroke="#000000" d="M257.3609,-107.4068C283.7115,-118.902 326.5738,-137.6004 357.3785,-151.0387"/>
<polygon fill="#000000" stroke="#000000" points="356.3549,-154.4107 366.9202,-155.2012 359.1539,-147.9946 356.3549,-154.4107"/>
</g>
<!-- 264608 -->
<g id="node34" class="node">
<title>264608</title>
<ellipse fill="none" stroke="#000000" cx="403.9335" cy="-211.4219" rx="37.0935" ry="18"/>
<text text-anchor="middle" x="403.9335" y="-207.7219" font-family="Times,serif" font-size="14.00" fill="#000000">264608</text>
</g>
<!-- 5692&#45;&gt;264608 -->
<g id="edge30" class="edge">
<title>5692&#45;&gt;264608</title>
<path fill="none" stroke="#000000" d="M253.4862,-110.3919C283.0937,-130.2742 339.0144,-167.8267 373.7099,-191.1258"/>
<polygon fill="#000000" stroke="#000000" points="371.7914,-194.0534 382.0445,-196.7227 375.6939,-188.2421 371.7914,-194.0534"/>
</g>
<!-- 12956 -->
<g id="node23" class="node">
<title>12956</title>
<ellipse fill="none" stroke="#000000" cx="189.1167" cy="-234" rx="32.4942" ry="18"/>
<text text-anchor="middle" x="189.1167" y="-230.3" font-family="Times,serif" font-size="14.00" fill="#000000">12956</text>
</g>
<!-- 10834&#45;&gt;12956 -->
<g id="edge31" class="edge">
<title>10834&#45;&gt;12956</title>
<path fill="none" stroke="#000000" d="M200.2313,-181.71C198.672,-189.046 196.8354,-197.6867 195.1091,-205.8081"/>
<polygon fill="#000000" stroke="#000000" points="191.6664,-205.1709 193.0108,-215.6801 198.5135,-206.6263 191.6664,-205.1709"/>
</g>
<!-- 22927 -->
<g id="node24" class="node">
<title>22927</title>
<ellipse fill="none" stroke="#000000" cx="64.4091" cy="-162" rx="32.4942" ry="18"/>
<text text-anchor="middle" x="64.4091" y="-158.3" font-family="Times,serif" font-size="14.00" fill="#000000">22927</text>
</g>
<!-- 10834&#45;&gt;22927 -->
<g id="edge32" class="edge">
<title>10834&#45;&gt;22927</title>
<path fill="none" stroke="#000000" d="M171.3383,-163.2045C152.162,-162.9885 127.7298,-162.7133 107.0618,-162.4805"/>
<polygon fill="#000000" stroke="#000000" points="106.9909,-158.9795 96.952,-162.3666 106.9119,-165.9791 106.9909,-158.9795"/>
</g>
<!-- 12956&#45;&gt;3356 -->
<g id="edge33" class="edge">
<title>12956&#45;&gt;3356</title>
<path fill="none" stroke="#000000" d="M185.2617,-252.1366C183.7024,-259.4726 181.8657,-268.1134 180.1395,-276.2347"/>
<polygon fill="#000000" stroke="#000000" points="176.6968,-275.5975 178.0411,-286.1067 183.5438,-277.0529 176.6968,-275.5975"/>
</g>
</g>
</svg>
