<?xml version="1.0" encoding="UTF-8" standalone="no"?>
<!DOCTYPE svg PUBLIC "-//W3C//DTD SVG 1.1//EN"
 "http://www.w3.org/Graphics/SVG/1.1/DTD/svg11.dtd">
<!-- Generated by graphviz version 2.40.1 (20161225.0304)
 -->
<!-- Title: %3 Pages: 1 -->
<svg width="724pt" height="268pt"
 viewBox="0.00 0.00 723.74 268.35" xmlns="http://www.w3.org/2000/svg" xmlns:xlink="http://www.w3.org/1999/xlink">
<g id="graph0" class="graph" transform="scale(1 1) rotate(0) translate(4 264.3457)">
<title>%3</title>
<polygon fill="#ffffff" stroke="transparent" points="-4,4 -4,-264.3457 719.7398,-264.3457 719.7398,4 -4,4"/>
<!-- 174 -->
<g id="node1" class="node">
<title>174</title>
<ellipse fill="none" stroke="#000000" cx="640.2025" cy="-141.8566" rx="27" ry="18"/>
<text text-anchor="middle" x="640.2025" y="-138.1566" font-family="Times,serif" font-size="14.00" fill="#000000">174</text>
</g>
<!-- 209 -->
<g id="node2" class="node">
<title>209</title>
<ellipse fill="none" stroke="#000000" cx="504.2258" cy="-140.743" rx="27" ry="18"/>
<text text-anchor="middle" x="504.2258" y="-137.043" font-family="Times,serif" font-size="14.00" fill="#000000">209</text>
</g>
<!-- 701 -->
<g id="node3" class="node">
<title>701</title>
<ellipse fill="none" stroke="#000000" cx="610.3378" cy="-184.9415" rx="27" ry="18"/>
<text text-anchor="middle" x="610.3378" y="-181.2415" font-family="Times,serif" font-size="14.00" fill="#000000">701</text>
</g>
<!-- 1239 -->
<g id="node4" class="node">
<title>1239</title>
<ellipse fill="none" stroke="#000000" cx="687.1423" cy="-141.3449" rx="28.6953" ry="18"/>
<text text-anchor="middle" x="687.1423" y="-137.6449" font-family="Times,serif" font-size="14.00" fill="#000000">1239</text>
</g>
<!-- 1273 -->
<g id="node5" class="node">
<title>1273</title>
<ellipse fill="none" stroke="#000000" cx="607.917" cy="-232.2313" rx="28.6953" ry="18"/>
<text text-anchor="middle" x="607.917" y="-228.5313" font-family="Times,serif" font-size="14.00" fill="#000000">1273</text>
</g>
<!-- 1299 -->
<g id="node6" class="node">
<title>1299</title>
<ellipse fill="none" stroke="#000000" cx="554.2971" cy="-180.1092" rx="28.6953" ry="18"/>
<text text-anchor="middle" x="554.2971" y="-176.4092" font-family="Times,serif" font-size="14.00" fill="#000000">1299</text>
</g>
<!-- 2497 -->
<g id="node7" class="node">
<title>2497</title>
<ellipse fill="none" stroke="#000000" cx="661.2753" cy="-196.068" rx="28.6953" ry="18"/>
<text text-anchor="middle" x="661.2753" y="-192.368" font-family="Times,serif" font-size="14.00" fill="#000000">2497</text>
</g>
<!-- 2914 -->
<g id="node8" class="node">
<title>2914</title>
<ellipse fill="none" stroke="#000000" cx="551.2896" cy="-230.4926" rx="28.6953" ry="18"/>
<text text-anchor="middle" x="551.2896" y="-226.7926" font-family="Times,serif" font-size="14.00" fill="#000000">2914</text>
</g>
<!-- 3257 -->
<g id="node9" class="node">
<title>3257</title>
<ellipse fill="none" stroke="#000000" cx="577.2406" cy="-62.4481" rx="28.6953" ry="18"/>
<text text-anchor="middle" x="577.2406" y="-58.7481" font-family="Times,serif" font-size="14.00" fill="#000000">3257</text>
</g>
<!-- 3320 -->
<g id="node10" class="node">
<title>3320</title>
<ellipse fill="none" stroke="#000000" cx="483.9089" cy="-89.4622" rx="28.6953" ry="18"/>
<text text-anchor="middle" x="483.9089" y="-85.7622" font-family="Times,serif" font-size="14.00" fill="#000000">3320</text>
</g>
<!-- 3356 -->
<g id="node11" class="node">
<title>3356</title>
<ellipse fill="none" stroke="#000000" cx="574.5952" cy="-126.8426" rx="28.6953" ry="18"/>
<text text-anchor="middle" x="574.5952" y="-123.1426" font-family="Times,serif" font-size="14.00" fill="#000000">3356</text>
</g>
<!-- 3356&#45;&gt;174 -->
<g id="edge1" class="edge">
<title>3356&#45;&gt;174</title>
<path fill="none" stroke="#000000" d="M601.659,-133.036C602.5856,-133.248 603.5184,-133.4615 604.4545,-133.6757"/>
<polygon fill="#000000" stroke="#000000" points="603.9382,-137.148 614.467,-135.9671 605.4998,-130.3244 603.9382,-137.148"/>
</g>
<!-- 3356&#45;&gt;209 -->
<g id="edge2" class="edge">
<title>3356&#45;&gt;209</title>
<path fill="none" stroke="#000000" d="M547.1871,-132.2566C544.9295,-132.7026 542.627,-133.1574 540.3192,-133.6133"/>
<polygon fill="#000000" stroke="#000000" points="539.4234,-130.2225 530.2913,-135.5941 540.78,-137.0898 539.4234,-130.2225"/>
</g>
<!-- 3356&#45;&gt;701 -->
<g id="edge3" class="edge">
<title>3356&#45;&gt;701</title>
<path fill="none" stroke="#000000" d="M584.9335,-143.6472C587.9449,-148.5422 591.3056,-154.0051 594.5713,-159.3133"/>
<polygon fill="#000000" stroke="#000000" points="591.678,-161.29 599.8989,-167.9734 597.6401,-157.6221 591.678,-161.29"/>
</g>
<!-- 3356&#45;&gt;1239 -->
<g id="edge4" class="edge">
<title>3356&#45;&gt;1239</title>
<path fill="none" stroke="#000000" d="M602.7053,-130.4647C616.6711,-132.2643 633.7551,-134.4656 648.8933,-136.4163"/>
<polygon fill="#000000" stroke="#000000" points="648.6352,-139.9119 659.0006,-137.7186 649.5299,-132.9693 648.6352,-139.9119"/>
</g>
<!-- 3356&#45;&gt;1273 -->
<g id="edge5" class="edge">
<title>3356&#45;&gt;1273</title>
<path fill="none" stroke="#000000" d="M580.2478,-144.7203C585.4418,-161.1476 593.2193,-185.7462 599.2071,-204.684"/>
<polygon fill="#000000" stroke="#000000" points="595.8848,-205.7863 602.2367,-214.2659 602.5591,-203.6759 595.8848,-205.7863"/>
</g>
<!-- 3356&#45;&gt;1299 -->
<g id="edge6" class="edge">
<title>3356&#45;&gt;1299</title>
<path fill="none" stroke="#000000" d="M567.8362,-144.5796C566.8199,-147.2466 565.7524,-150.0481 564.6813,-152.8588"/>
<polygon fill="#000000" stroke="#000000" points="561.3861,-151.6772 561.0958,-162.268 567.9273,-154.1698 561.3861,-151.6772"/>
</g>
<!-- 3356&#45;&gt;2497 -->
<g id="edge7" class="edge">
<title>3356&#45;&gt;2497</title>
<path fill="none" stroke="#000000" d="M592.5554,-141.1861C604.8749,-151.0249 621.4188,-164.2374 635.1869,-175.233"/>
<polygon fill="#000000" stroke="#000000" points="633.34,-178.2373 643.3381,-181.7429 637.7084,-172.7675 633.34,-178.2373"/>
</g>
<!-- 3356&#45;&gt;2914 -->
<g id="edge8" class="edge">
<title>3356&#45;&gt;2914</title>
<path fill="none" stroke="#000000" d="M570.5357,-144.897C566.9432,-160.8745 561.6452,-184.4368 557.5169,-202.7973"/>
<polygon fill="#000000" stroke="#000000" points="554.0817,-202.1208 555.3026,-212.6451 560.9112,-203.6565 554.0817,-202.1208"/>
</g>
<!-- 3356&#45;&gt;3257 -->
<g id="edge9" class="edge">
<title>3356&#45;&gt;3257</title>
<path fill="none" stroke="#000000" d="M575.3462,-108.5619C575.5715,-103.0774 575.8243,-96.9257 576.0699,-90.9465"/>
<polygon fill="#000000" stroke="#000000" points="579.5834,-90.6868 576.4969,-80.5515 572.5893,-90.3994 579.5834,-90.6868"/>
</g>
<!-- 3356&#45;&gt;3320 -->
<g id="edge10" class="edge">
<title>3356&#45;&gt;3320</title>
<path fill="none" stroke="#000000" d="M550.293,-116.8253C540.1482,-112.6437 528.198,-107.7179 517.2529,-103.2064"/>
<polygon fill="#000000" stroke="#000000" points="518.543,-99.9525 507.9638,-99.3775 515.8754,-106.4243 518.543,-99.9525"/>
</g>
<!-- 3491 -->
<g id="node12" class="node">
<title>3491</title>
<ellipse fill="none" stroke="#000000" cx="533.698" cy="-26.4739" rx="28.6953" ry="18"/>
<text text-anchor="middle" x="533.698" y="-22.7739" font-family="Times,serif" font-size="14.00" fill="#000000">3491</text>
</g>
<!-- 3356&#45;&gt;3491 -->
<g id="edge11" class="edge">
<title>3356&#45;&gt;3491</title>
<path fill="none" stroke="#000000" d="M567.4715,-109.3597C561.1766,-93.9109 551.8977,-71.139 544.6578,-53.3712"/>
<polygon fill="#000000" stroke="#000000" points="547.8921,-52.0332 540.8773,-44.0932 541.4096,-54.6747 547.8921,-52.0332"/>
</g>
<!-- 3549 -->
<g id="node13" class="node">
<title>3549</title>
<ellipse fill="none" stroke="#000000" cx="526.7666" cy="-76.1585" rx="28.6953" ry="18"/>
<text text-anchor="middle" x="526.7666" y="-72.4585" font-family="Times,serif" font-size="14.00" fill="#000000">3549</text>
</g>
<!-- 3356&#45;&gt;3549 -->
<g id="edge12" class="edge">
<title>3356&#45;&gt;3549</title>
<path fill="none" stroke="#000000" d="M559.9852,-111.3603C556.4362,-107.5994 552.5633,-103.4952 548.7559,-99.4605"/>
<polygon fill="#000000" stroke="#000000" points="551.0261,-96.7666 541.6172,-91.8957 545.935,-101.5709 551.0261,-96.7666"/>
</g>
<!-- 5511 -->
<g id="node15" class="node">
<title>5511</title>
<ellipse fill="none" stroke="#000000" cx="675.5495" cy="-86.1718" rx="28.6953" ry="18"/>
<text text-anchor="middle" x="675.5495" y="-82.4718" font-family="Times,serif" font-size="14.00" fill="#000000">5511</text>
</g>
<!-- 3356&#45;&gt;5511 -->
<g id="edge13" class="edge">
<title>3356&#45;&gt;5511</title>
<path fill="none" stroke="#000000" d="M598.7763,-117.1009C611.6678,-111.9073 627.7342,-105.4348 641.8328,-99.755"/>
<polygon fill="#000000" stroke="#000000" points="643.2481,-102.9582 651.2158,-95.9749 640.6323,-96.4653 643.2481,-102.9582"/>
</g>
<!-- 6453 -->
<g id="node17" class="node">
<title>6453</title>
<ellipse fill="none" stroke="#000000" cx="625.1401" cy="-89.5368" rx="28.6953" ry="18"/>
<text text-anchor="middle" x="625.1401" y="-85.8368" font-family="Times,serif" font-size="14.00" fill="#000000">6453</text>
</g>
<!-- 3356&#45;&gt;6453 -->
<g id="edge14" class="edge">
<title>3356&#45;&gt;6453</title>
<path fill="none" stroke="#000000" d="M593.4163,-112.9513C595.0161,-111.7705 596.653,-110.5624 598.2987,-109.3477"/>
<polygon fill="#000000" stroke="#000000" points="600.5042,-112.07 606.4716,-103.3155 596.3473,-106.4379 600.5042,-112.07"/>
</g>
<!-- 6461 -->
<g id="node18" class="node">
<title>6461</title>
<ellipse fill="none" stroke="#000000" cx="644.1059" cy="-41.4702" rx="28.6953" ry="18"/>
<text text-anchor="middle" x="644.1059" y="-37.7702" font-family="Times,serif" font-size="14.00" fill="#000000">6461</text>
</g>
<!-- 3356&#45;&gt;6461 -->
<g id="edge15" class="edge">
<title>3356&#45;&gt;6461</title>
<path fill="none" stroke="#000000" d="M587.6697,-110.7847C597.9924,-98.1063 612.5638,-80.2099 624.3145,-65.7778"/>
<polygon fill="#000000" stroke="#000000" points="627.254,-67.7109 630.8537,-57.7463 621.8257,-63.2911 627.254,-67.7109"/>
</g>
<!-- 6762 -->
<g id="node19" class="node">
<title>6762</title>
<ellipse fill="none" stroke="#000000" cx="595.0124" cy="-18" rx="28.6953" ry="18"/>
<text text-anchor="middle" x="595.0124" y="-14.3" font-family="Times,serif" font-size="14.00" fill="#000000">6762</text>
</g>
<!-- 3356&#45;&gt;6762 -->
<g id="edge16" class="edge">
<title>3356&#45;&gt;6762</title>
<path fill="none" stroke="#000000" d="M577.9667,-108.8694C581.1734,-91.7749 586.0457,-65.8007 589.7612,-45.994"/>
<polygon fill="#000000" stroke="#000000" points="593.2321,-46.4737 591.6359,-35.9998 586.3521,-45.1831 593.2321,-46.4737"/>
</g>
<!-- 7018 -->
<g id="node20" class="node">
<title>7018</title>
<ellipse fill="none" stroke="#000000" cx="503.1523" cy="-195.1204" rx="28.6953" ry="18"/>
<text text-anchor="middle" x="503.1523" y="-191.4204" font-family="Times,serif" font-size="14.00" fill="#000000">7018</text>
</g>
<!-- 3356&#45;&gt;7018 -->
<g id="edge17" class="edge">
<title>3356&#45;&gt;7018</title>
<path fill="none" stroke="#000000" d="M558.7397,-141.9956C549.2128,-151.1005 536.9216,-162.8472 526.3204,-172.9787"/>
<polygon fill="#000000" stroke="#000000" points="523.7747,-170.5703 518.9635,-180.0097 528.6111,-175.6308 523.7747,-170.5703"/>
</g>
<!-- 3597 -->
<g id="node14" class="node">
<title>3597</title>
<ellipse fill="none" stroke="#000000" cx="202.7984" cy="-98.0692" rx="28.6953" ry="18"/>
<text text-anchor="middle" x="202.7984" y="-94.3692" font-family="Times,serif" font-size="14.00" fill="#000000">3597</text>
</g>
<!-- 5692 -->
<g id="node16" class="node">
<title>5692</title>
<ellipse fill="none" stroke="#000000" cx="134.9867" cy="-123.3592" rx="28.6953" ry="18"/>
<text text-anchor="middle" x="134.9867" y="-119.6592" font-family="Times,serif" font-size="14.00" fill="#000000">5692</text>
</g>
<!-- 5692&#45;&gt;3597 -->
<g id="edge18" class="edge">
<title>5692&#45;&gt;3597</title>
<path fill="none" stroke="#000000" d="M159.8522,-114.0857C162.6163,-113.0549 165.4669,-111.9918 168.3229,-110.9266"/>
<polygon fill="#000000" stroke="#000000" points="169.7893,-114.1153 177.9359,-107.3415 167.3432,-107.5566 169.7893,-114.1153"/>
</g>
<!-- 10834 -->
<g id="node21" class="node">
<title>10834</title>
<ellipse fill="none" stroke="#000000" cx="279.5392" cy="-158.8932" rx="32.4942" ry="18"/>
<text text-anchor="middle" x="279.5392" y="-155.1932" font-family="Times,serif" font-size="14.00" fill="#000000">10834</text>
</g>
<!-- 5692&#45;&gt;10834 -->
<g id="edge19" class="edge">
<title>5692&#45;&gt;10834</title>
<path fill="none" stroke="#000000" d="M161.8372,-129.9596C183.7241,-135.3398 214.9573,-143.0176 239.7502,-149.1122"/>
<polygon fill="#000000" stroke="#000000" points="239.0434,-152.5426 249.5899,-151.531 240.7145,-145.745 239.0434,-152.5426"/>
</g>
<!-- 11008 -->
<g id="node22" class="node">
<title>11008</title>
<ellipse fill="none" stroke="#000000" cx="104.5559" cy="-56.1276" rx="32.4942" ry="18"/>
<text text-anchor="middle" x="104.5559" y="-52.4276" font-family="Times,serif" font-size="14.00" fill="#000000">11008</text>
</g>
<!-- 5692&#45;&gt;11008 -->
<g id="edge20" class="edge">
<title>5692&#45;&gt;11008</title>
<path fill="none" stroke="#000000" d="M127.15,-106.0454C123.945,-98.9644 120.1635,-90.61 116.6205,-82.7823"/>
<polygon fill="#000000" stroke="#000000" points="119.784,-81.2834 112.4718,-73.6164 113.4068,-84.1699 119.784,-81.2834"/>
</g>
<!-- 27865 -->
<g id="node25" class="node">
<title>27865</title>
<ellipse fill="none" stroke="#000000" cx="180.2348" cy="-52.3423" rx="32.4942" ry="18"/>
<text text-anchor="middle" x="180.2348" y="-48.6423" font-family="Times,serif" font-size="14.00" fill="#000000">27865</text>
</g>
<!-- 5692&#45;&gt;27865 -->
<g id="edge21" class="edge">
<title>5692&#45;&gt;27865</title>
<path fill="none" stroke="#000000" d="M145.7099,-106.5292C151.0967,-98.0745 157.7419,-87.6449 163.7591,-78.2008"/>
<polygon fill="#000000" stroke="#000000" points="166.8526,-79.8592 169.2743,-69.5448 160.949,-76.0977 166.8526,-79.8592"/>
</g>
<!-- 28065 -->
<g id="node26" class="node">
<title>28065</title>
<ellipse fill="none" stroke="#000000" cx="138.1609" cy="-23.0921" rx="32.4942" ry="18"/>
<text text-anchor="middle" x="138.1609" y="-19.3921" font-family="Times,serif" font-size="14.00" fill="#000000">28065</text>
</g>
<!-- 5692&#45;&gt;28065 -->
<g id="edge22" class="edge">
<title>5692&#45;&gt;28065</title>
<path fill="none" stroke="#000000" d="M135.5689,-104.9686C136.0432,-89.9867 136.7209,-68.5797 137.2644,-51.4121"/>
<polygon fill="#000000" stroke="#000000" points="140.7641,-51.4718 137.5824,-41.366 133.7676,-51.2502 140.7641,-51.4718"/>
</g>
<!-- 52317 -->
<g id="node27" class="node">
<title>52317</title>
<ellipse fill="none" stroke="#000000" cx="148.7229" cy="-175.3772" rx="32.4942" ry="18"/>
<text text-anchor="middle" x="148.7229" y="-171.6772" font-family="Times,serif" font-size="14.00" fill="#000000">52317</text>
</g>
<!-- 5692&#45;&gt;52317 -->
<g id="edge23" class="edge">
<title>5692&#45;&gt;52317</title>
<path fill="none" stroke="#000000" d="M139.7139,-141.2608C140.2475,-143.2813 140.8002,-145.3743 141.3573,-147.4839"/>
<polygon fill="#000000" stroke="#000000" points="138.0031,-148.491 143.9404,-157.266 144.7712,-146.7038 138.0031,-148.491"/>
</g>
<!-- 52375 -->
<g id="node28" class="node">
<title>52375</title>
<ellipse fill="none" stroke="#000000" cx="85.6988" cy="-202.0917" rx="32.4942" ry="18"/>
<text text-anchor="middle" x="85.6988" y="-198.3917" font-family="Times,serif" font-size="14.00" fill="#000000">52375</text>
</g>
<!-- 5692&#45;&gt;52375 -->
<g id="edge24" class="edge">
<title>5692&#45;&gt;52375</title>
<path fill="none" stroke="#000000" d="M124.292,-140.443C117.704,-150.9666 109.133,-164.6579 101.7421,-176.4641"/>
<polygon fill="#000000" stroke="#000000" points="98.7122,-174.708 96.3726,-185.0413 104.6455,-178.4223 98.7122,-174.708"/>
</g>
<!-- 52376 -->
<g id="node29" class="node">
<title>52376</title>
<ellipse fill="none" stroke="#000000" cx="197.8894" cy="-159.9474" rx="32.4942" ry="18"/>
<text text-anchor="middle" x="197.8894" y="-156.2474" font-family="Times,serif" font-size="14.00" fill="#000000">52376</text>
</g>
<!-- 5692&#45;&gt;52376 -->
<g id="edge25" class="edge">
<title>5692&#45;&gt;52376</title>
<path fill="none" stroke="#000000" d="M156.2827,-135.7463C159.5395,-137.6406 162.959,-139.6296 166.3794,-141.6192"/>
<polygon fill="#000000" stroke="#000000" points="164.9206,-144.8196 175.3245,-146.8222 168.4402,-138.7688 164.9206,-144.8196"/>
</g>
<!-- 52380 -->
<g id="node30" class="node">
<title>52380</title>
<ellipse fill="none" stroke="#000000" cx="140.3165" cy="-221.7912" rx="32.4942" ry="18"/>
<text text-anchor="middle" x="140.3165" y="-218.0912" font-family="Times,serif" font-size="14.00" fill="#000000">52380</text>
</g>
<!-- 5692&#45;&gt;52380 -->
<g id="edge26" class="edge">
<title>5692&#45;&gt;52380</title>
<path fill="none" stroke="#000000" d="M135.9643,-141.4131C136.7482,-155.8911 137.8631,-176.4809 138.7682,-193.1965"/>
<polygon fill="#000000" stroke="#000000" points="135.2914,-193.7223 139.3271,-203.5184 142.2812,-193.3437 135.2914,-193.7223"/>
</g>
<!-- 52413 -->
<g id="node31" class="node">
<title>52413</title>
<ellipse fill="none" stroke="#000000" cx="32.4971" cy="-114.0762" rx="32.4942" ry="18"/>
<text text-anchor="middle" x="32.4971" y="-110.3762" font-family="Times,serif" font-size="14.00" fill="#000000">52413</text>
</g>
<!-- 5692&#45;&gt;52413 -->
<g id="edge27" class="edge">
<title>5692&#45;&gt;52413</title>
<path fill="none" stroke="#000000" d="M106.4377,-120.7733C96.6526,-119.8871 85.4841,-118.8755 74.8436,-117.9117"/>
<polygon fill="#000000" stroke="#000000" points="75.1411,-114.4244 64.8661,-117.008 74.5096,-121.3959 75.1411,-114.4244"/>
</g>
<!-- 52431 -->
<g id="node32" class="node">
<title>52431</title>
<ellipse fill="none" stroke="#000000" cx="49.1746" cy="-167.7501" rx="32.4942" ry="18"/>
<text text-anchor="middle" x="49.1746" y="-164.0501" font-family="Times,serif" font-size="14.00" fill="#000000">52431</text>
</g>
<!-- 5692&#45;&gt;52431 -->
<g id="edge28" class="edge">
<title>5692&#45;&gt;52431</title>
<path fill="none" stroke="#000000" d="M112.888,-134.7909C103.535,-139.6293 92.4414,-145.368 82.1536,-150.69"/>
<polygon fill="#000000" stroke="#000000" points="80.2789,-147.7191 73.0051,-155.4225 83.4952,-153.9365 80.2789,-147.7191"/>
</g>
<!-- 262230 -->
<g id="node33" class="node">
<title>262230</title>
<ellipse fill="none" stroke="#000000" cx="82.0945" cy="-115.7516" rx="37.0935" ry="18"/>
<text text-anchor="middle" x="82.0945" y="-112.0516" font-family="Times,serif" font-size="14.00" fill="#000000">262230</text>
</g>
<!-- 5692&#45;&gt;262230 -->
<g id="edge29" class="edge">
<title>5692&#45;&gt;262230</title>
<path fill="none" stroke="#000000" d="M106.9918,-119.3327C106.9423,-119.3255 106.8927,-119.3184 106.8432,-119.3113"/>
<polygon fill="#000000" stroke="#000000" points="117.093,-117.2549 106.6946,-119.2899 116.0925,-124.1836 117.093,-117.2549"/>
</g>
<!-- 264608 -->
<g id="node34" class="node">
<title>264608</title>
<ellipse fill="none" stroke="#000000" cx="55.0716" cy="-58.5399" rx="37.0935" ry="18"/>
<text text-anchor="middle" x="55.0716" y="-54.8399" font-family="Times,serif" font-size="14.00" fill="#000000">264608</text>
</g>
<!-- 5692&#45;&gt;264608 -->
<g id="edge30" class="edge">
<title>5692&#45;&gt;264608</title>
<path fill="none" stroke="#000000" d="M117.251,-108.9737C106.9643,-100.6301 93.7965,-89.9498 82.229,-80.5673"/>
<polygon fill="#000000" stroke="#000000" points="84.1242,-77.598 74.1529,-74.0168 79.7146,-83.0345 84.1242,-77.598"/>
</g>
<!-- 12956 -->
<g id="node23" class="node">
<title>12956</title>
<ellipse fill="none" stroke="#000000" cx="419.1198" cy="-145.0286" rx="32.4942" ry="18"/>
<text text-anchor="middle" x="419.1198" y="-141.3286" font-family="Times,serif" font-size="14.00" fill="#000000">12956</text>
</g>
<!-- 10834&#45;&gt;12956 -->
<g id="edge31" class="edge">
<title>10834&#45;&gt;12956</title>
<path fill="none" stroke="#000000" d="M311.5618,-155.7124C330.8408,-153.7974 355.6221,-151.3359 376.5379,-149.2583"/>
<polygon fill="#000000" stroke="#000000" points="377.1578,-152.714 386.7628,-148.2427 376.4658,-145.7483 377.1578,-152.714"/>
</g>
<!-- 22927 -->
<g id="node24" class="node">
<title>22927</title>
<ellipse fill="none" stroke="#000000" cx="270.0624" cy="-242.3457" rx="32.4942" ry="18"/>
<text text-anchor="middle" x="270.0624" y="-238.6457" font-family="Times,serif" font-size="14.00" fill="#000000">22927</text>
</g>
<!-- 10834&#45;&gt;22927 -->
<g id="edge32" class="edge">
<title>10834&#45;&gt;22927</title>
<path fill="none" stroke="#000000" d="M277.4829,-177.0011C276.2534,-187.8276 274.6648,-201.817 273.2731,-214.0725"/>
<polygon fill="#000000" stroke="#000000" points="269.7655,-213.942 272.1147,-224.2731 276.7208,-214.7319 269.7655,-213.942"/>
</g>
<!-- 12956&#45;&gt;3356 -->
<g id="edge33" class="edge">
<title>12956&#45;&gt;3356</title>
<path fill="none" stroke="#000000" d="M450.9577,-141.3045C475.7415,-138.4056 510.2225,-134.3723 536.4759,-131.3014"/>
<polygon fill="#000000" stroke="#000000" points="536.9282,-134.7724 546.4539,-130.1343 536.1149,-127.8199 536.9282,-134.7724"/>
</g>
</g>
</svg>
