<?xml version="1.0" encoding="UTF-8" standalone="no"?>
<!DOCTYPE svg PUBLIC "-//W3C//DTD SVG 1.1//EN"
 "http://www.w3.org/Graphics/SVG/1.1/DTD/svg11.dtd">
<!-- Generated by graphviz version 2.40.1 (20161225.0304)
 -->
<!-- Title: %3 Pages: 1 -->
<svg width="2150pt" height="1928pt"
 viewBox="0.00 0.00 2150.00 1928.00" xmlns="http://www.w3.org/2000/svg" xmlns:xlink="http://www.w3.org/1999/xlink">
<g id="graph0" class="graph" transform="scale(1 1) rotate(0) translate(4 1924)">
<title>%3</title>
<polygon fill="#ffffff" stroke="transparent" points="-4,4 -4,-1924 2146,-1924 2146,4 -4,4"/>
<!-- 174 -->
<g id="node1" class="node">
<title>174</title>
<ellipse fill="none" stroke="#000000" cx="857.3979" cy="-17.7214" rx="27" ry="18"/>
<text text-anchor="middle" x="857.3979" y="-14.0214" font-family="Times,serif" font-size="14.00" fill="#000000">174</text>
</g>
<!-- 209 -->
<g id="node2" class="node">
<title>209</title>
<ellipse fill="none" stroke="#000000" cx="964.605" cy="-131.5651" rx="27" ry="18"/>
<text text-anchor="middle" x="964.605" y="-127.8651" font-family="Times,serif" font-size="14.00" fill="#000000">209</text>
</g>
<!-- 174&#45;&gt;209 -->
<g id="edge1" class="edge">
<title>174&#45;&gt;209</title>
<path fill="none" stroke="#000000" d="M871.8563,-33.0748C890.1595,-52.5111 921.8512,-86.1646 943.0226,-108.6466"/>
<polygon fill="#000000" stroke="#000000" points="940.6295,-111.2107 950.0333,-116.0913 945.7256,-106.4117 940.6295,-111.2107"/>
</g>
<!-- 1299 -->
<g id="node8" class="node">
<title>1299</title>
<ellipse fill="none" stroke="#000000" cx="1022.4581" cy="-253.7425" rx="28.6953" ry="18"/>
<text text-anchor="middle" x="1022.4581" y="-250.0425" font-family="Times,serif" font-size="14.00" fill="#000000">1299</text>
</g>
<!-- 209&#45;&gt;1299 -->
<g id="edge2" class="edge">
<title>209&#45;&gt;1299</title>
<path fill="none" stroke="#000000" d="M972.7713,-148.811C982.4073,-169.161 998.5397,-203.2303 1009.7993,-227.009"/>
<polygon fill="#000000" stroke="#000000" points="1006.7031,-228.6486 1014.1461,-236.1887 1013.0297,-225.6528 1006.7031,-228.6486"/>
</g>
<!-- 701 -->
<g id="node3" class="node">
<title>701</title>
<ellipse fill="none" stroke="#000000" cx="1189.0463" cy="-763.4976" rx="27" ry="18"/>
<text text-anchor="middle" x="1189.0463" y="-759.7976" font-family="Times,serif" font-size="14.00" fill="#000000">701</text>
</g>
<!-- 703 -->
<g id="node4" class="node">
<title>703</title>
<ellipse fill="none" stroke="#000000" cx="1091.3751" cy="-801.7539" rx="27" ry="18"/>
<text text-anchor="middle" x="1091.3751" y="-798.0539" font-family="Times,serif" font-size="14.00" fill="#000000">703</text>
</g>
<!-- 701&#45;&gt;703 -->
<g id="edge3" class="edge">
<title>701&#45;&gt;703</title>
<path fill="none" stroke="#000000" d="M1165.4029,-772.7583C1153.0458,-777.5984 1137.7254,-783.5992 1124.2334,-788.8838"/>
<polygon fill="#000000" stroke="#000000" points="1122.8356,-785.6723 1114.8009,-792.5784 1125.3886,-792.1902 1122.8356,-785.6723"/>
</g>
<!-- 7018 -->
<g id="node36" class="node">
<title>7018</title>
<ellipse fill="none" stroke="#000000" cx="1269.7454" cy="-899.8596" rx="28.6953" ry="18"/>
<text text-anchor="middle" x="1269.7454" y="-896.1596" font-family="Times,serif" font-size="14.00" fill="#000000">7018</text>
</g>
<!-- 701&#45;&gt;7018 -->
<g id="edge4" class="edge">
<title>701&#45;&gt;7018</title>
<path fill="none" stroke="#000000" d="M1199.1038,-780.4922C1212.9973,-803.9689 1238.1827,-846.5262 1254.425,-873.9718"/>
<polygon fill="#000000" stroke="#000000" points="1251.4561,-875.8274 1259.5612,-882.6508 1257.4803,-872.2623 1251.4561,-875.8274"/>
</g>
<!-- 2516 -->
<g id="node10" class="node">
<title>2516</title>
<ellipse fill="none" stroke="#000000" cx="970.2888" cy="-977.7878" rx="28.6953" ry="18"/>
<text text-anchor="middle" x="970.2888" y="-974.0878" font-family="Times,serif" font-size="14.00" fill="#000000">2516</text>
</g>
<!-- 703&#45;&gt;2516 -->
<g id="edge5" class="edge">
<title>703&#45;&gt;2516</title>
<path fill="none" stroke="#000000" d="M1079.9836,-818.3147C1058.7086,-849.2442 1012.8193,-915.9574 987.6604,-952.5332"/>
<polygon fill="#000000" stroke="#000000" points="984.5219,-950.9201 981.7383,-961.1427 990.2893,-954.8872 984.5219,-950.9201"/>
</g>
<!-- 9498 -->
<g id="node43" class="node">
<title>9498</title>
<ellipse fill="none" stroke="#000000" cx="1186.943" cy="-634.7976" rx="28.6953" ry="18"/>
<text text-anchor="middle" x="1186.943" y="-631.0976" font-family="Times,serif" font-size="14.00" fill="#000000">9498</text>
</g>
<!-- 703&#45;&gt;9498 -->
<g id="edge6" class="edge">
<title>703&#45;&gt;9498</title>
<path fill="none" stroke="#000000" d="M1101.0646,-784.8264C1117.8075,-755.5767 1152.257,-695.3939 1172.0582,-660.8012"/>
<polygon fill="#000000" stroke="#000000" points="1175.2976,-662.1873 1177.2279,-651.7698 1169.2225,-658.7098 1175.2976,-662.1873"/>
</g>
<!-- 1221 -->
<g id="node5" class="node">
<title>1221</title>
<ellipse fill="none" stroke="#000000" cx="729.0616" cy="-1580.3617" rx="28.6953" ry="18"/>
<text text-anchor="middle" x="729.0616" y="-1576.6617" font-family="Times,serif" font-size="14.00" fill="#000000">1221</text>
</g>
<!-- 1239 -->
<g id="node6" class="node">
<title>1239</title>
<ellipse fill="none" stroke="#000000" cx="1501.5513" cy="-1371.7433" rx="28.6953" ry="18"/>
<text text-anchor="middle" x="1501.5513" y="-1368.0433" font-family="Times,serif" font-size="14.00" fill="#000000">1239</text>
</g>
<!-- 5511 -->
<g id="node27" class="node">
<title>5511</title>
<ellipse fill="none" stroke="#000000" cx="1497.188" cy="-1486.501" rx="28.6953" ry="18"/>
<text text-anchor="middle" x="1497.188" y="-1482.801" font-family="Times,serif" font-size="14.00" fill="#000000">5511</text>
</g>
<!-- 1239&#45;&gt;5511 -->
<g id="edge7" class="edge">
<title>1239&#45;&gt;5511</title>
<path fill="none" stroke="#000000" d="M1500.86,-1389.927C1500.161,-1408.3094 1499.0712,-1436.9726 1498.2601,-1458.3036"/>
<polygon fill="#000000" stroke="#000000" points="1494.7587,-1458.2765 1497.8761,-1468.4023 1501.7537,-1458.5426 1494.7587,-1458.2765"/>
</g>
<!-- 17676 -->
<g id="node52" class="node">
<title>17676</title>
<ellipse fill="none" stroke="#000000" cx="1576.3412" cy="-1496.2177" rx="32.4942" ry="18"/>
<text text-anchor="middle" x="1576.3412" y="-1492.5177" font-family="Times,serif" font-size="14.00" fill="#000000">17676</text>
</g>
<!-- 1239&#45;&gt;17676 -->
<g id="edge8" class="edge">
<title>1239&#45;&gt;17676</title>
<path fill="none" stroke="#000000" d="M1511.7937,-1388.7899C1524.4225,-1409.8083 1546.0152,-1445.7455 1560.7179,-1470.2156"/>
<polygon fill="#000000" stroke="#000000" points="1557.832,-1472.2084 1565.9825,-1478.9775 1563.8323,-1468.6032 1557.832,-1472.2084"/>
</g>
<!-- 1273 -->
<g id="node7" class="node">
<title>1273</title>
<ellipse fill="none" stroke="#000000" cx="1423.0322" cy="-1202.4029" rx="28.6953" ry="18"/>
<text text-anchor="middle" x="1423.0322" y="-1198.7029" font-family="Times,serif" font-size="14.00" fill="#000000">1273</text>
</g>
<!-- 1273&#45;&gt;1239 -->
<g id="edge9" class="edge">
<title>1273&#45;&gt;1239</title>
<path fill="none" stroke="#000000" d="M1431.1393,-1219.8874C1444.8925,-1249.5484 1472.8806,-1309.9098 1489.1226,-1344.9385"/>
<polygon fill="#000000" stroke="#000000" points="1485.9887,-1346.5002 1493.3706,-1354.1001 1492.3393,-1343.5556 1485.9887,-1346.5002"/>
</g>
<!-- 6461 -->
<g id="node30" class="node">
<title>6461</title>
<ellipse fill="none" stroke="#000000" cx="1076.7482" cy="-426.3571" rx="28.6953" ry="18"/>
<text text-anchor="middle" x="1076.7482" y="-422.6571" font-family="Times,serif" font-size="14.00" fill="#000000">6461</text>
</g>
<!-- 1299&#45;&gt;6461 -->
<g id="edge10" class="edge">
<title>1299&#45;&gt;6461</title>
<path fill="none" stroke="#000000" d="M1028.0636,-271.5652C1037.5569,-301.7488 1056.8595,-363.1214 1068.098,-398.8539"/>
<polygon fill="#000000" stroke="#000000" points="1064.8341,-400.1422 1071.1732,-408.6314 1071.5116,-398.042 1064.8341,-400.1422"/>
</g>
<!-- 2497 -->
<g id="node9" class="node">
<title>2497</title>
<ellipse fill="none" stroke="#000000" cx="1117.8063" cy="-580.944" rx="28.6953" ry="18"/>
<text text-anchor="middle" x="1117.8063" y="-577.244" font-family="Times,serif" font-size="14.00" fill="#000000">2497</text>
</g>
<!-- 2497&#45;&gt;701 -->
<g id="edge11" class="edge">
<title>2497&#45;&gt;701</title>
<path fill="none" stroke="#000000" d="M1124.6371,-598.448C1137.137,-630.4791 1163.7645,-698.7126 1178.5691,-736.6495"/>
<polygon fill="#000000" stroke="#000000" points="1175.3402,-738.0032 1182.2362,-746.0465 1181.8613,-735.4583 1175.3402,-738.0032"/>
</g>
<!-- 32787 -->
<g id="node59" class="node">
<title>32787</title>
<ellipse fill="none" stroke="#000000" cx="855.6659" cy="-1147.9626" rx="32.4942" ry="18"/>
<text text-anchor="middle" x="855.6659" y="-1144.2626" font-family="Times,serif" font-size="14.00" fill="#000000">32787</text>
</g>
<!-- 2516&#45;&gt;32787 -->
<g id="edge12" class="edge">
<title>2516&#45;&gt;32787</title>
<path fill="none" stroke="#000000" d="M959.0896,-994.4147C938.9403,-1024.3294 896.4676,-1087.3864 872.6961,-1122.6787"/>
<polygon fill="#000000" stroke="#000000" points="869.764,-1120.7667 867.0804,-1131.0161 875.5699,-1124.6773 869.764,-1120.7667"/>
</g>
<!-- 2686 -->
<g id="node11" class="node">
<title>2686</title>
<ellipse fill="none" stroke="#000000" cx="318.7776" cy="-638.9091" rx="28.6953" ry="18"/>
<text text-anchor="middle" x="318.7776" y="-635.2091" font-family="Times,serif" font-size="14.00" fill="#000000">2686</text>
</g>
<!-- 3741 -->
<g id="node22" class="node">
<title>3741</title>
<ellipse fill="none" stroke="#000000" cx="155.3773" cy="-610.789" rx="28.6953" ry="18"/>
<text text-anchor="middle" x="155.3773" y="-607.089" font-family="Times,serif" font-size="14.00" fill="#000000">3741</text>
</g>
<!-- 2686&#45;&gt;3741 -->
<g id="edge13" class="edge">
<title>2686&#45;&gt;3741</title>
<path fill="none" stroke="#000000" d="M291.0589,-634.139C264.1807,-629.5134 223.1935,-622.4598 193.3012,-617.3155"/>
<polygon fill="#000000" stroke="#000000" points="193.6807,-613.8294 183.2319,-615.5826 192.4934,-620.728 193.6807,-613.8294"/>
</g>
<!-- 2687 -->
<g id="node12" class="node">
<title>2687</title>
<ellipse fill="none" stroke="#000000" cx="450.944" cy="-676.6125" rx="28.6953" ry="18"/>
<text text-anchor="middle" x="450.944" y="-672.9125" font-family="Times,serif" font-size="14.00" fill="#000000">2687</text>
</g>
<!-- 2687&#45;&gt;2686 -->
<g id="edge14" class="edge">
<title>2687&#45;&gt;2686</title>
<path fill="none" stroke="#000000" d="M424.8321,-669.1636C404.7389,-663.4315 376.7483,-655.4466 354.568,-649.1192"/>
<polygon fill="#000000" stroke="#000000" points="355.4117,-645.7203 344.8351,-646.3426 353.4913,-652.4517 355.4117,-645.7203"/>
</g>
<!-- 9505 -->
<g id="node44" class="node">
<title>9505</title>
<ellipse fill="none" stroke="#000000" cx="336.7843" cy="-707.5454" rx="28.6953" ry="18"/>
<text text-anchor="middle" x="336.7843" y="-703.8454" font-family="Times,serif" font-size="14.00" fill="#000000">9505</text>
</g>
<!-- 2687&#45;&gt;9505 -->
<g id="edge15" class="edge">
<title>2687&#45;&gt;9505</title>
<path fill="none" stroke="#000000" d="M424.4665,-683.7869C409.1936,-687.9253 389.7706,-693.1882 373.089,-697.7083"/>
<polygon fill="#000000" stroke="#000000" points="371.8548,-694.4164 363.1182,-700.41 373.6855,-701.1728 371.8548,-694.4164"/>
</g>
<!-- 2764 -->
<g id="node13" class="node">
<title>2764</title>
<ellipse fill="none" stroke="#000000" cx="751.081" cy="-1292.7823" rx="28.6953" ry="18"/>
<text text-anchor="middle" x="751.081" y="-1289.0823" font-family="Times,serif" font-size="14.00" fill="#000000">2764</text>
</g>
<!-- 7545 -->
<g id="node39" class="node">
<title>7545</title>
<ellipse fill="none" stroke="#000000" cx="606.3418" cy="-1417.3817" rx="28.6953" ry="18"/>
<text text-anchor="middle" x="606.3418" y="-1413.6817" font-family="Times,serif" font-size="14.00" fill="#000000">7545</text>
</g>
<!-- 2764&#45;&gt;7545 -->
<g id="edge16" class="edge">
<title>2764&#45;&gt;7545</title>
<path fill="none" stroke="#000000" d="M734.1943,-1307.3193C708.8376,-1329.1477 660.7703,-1370.5267 631.3414,-1395.8607"/>
<polygon fill="#000000" stroke="#000000" points="628.8648,-1393.3744 623.5696,-1402.5511 633.4317,-1398.6795 628.8648,-1393.3744"/>
</g>
<!-- 38333 -->
<g id="node61" class="node">
<title>38333</title>
<ellipse fill="none" stroke="#000000" cx="713.3287" cy="-1447.106" rx="32.4942" ry="18"/>
<text text-anchor="middle" x="713.3287" y="-1443.406" font-family="Times,serif" font-size="14.00" fill="#000000">38333</text>
</g>
<!-- 2764&#45;&gt;38333 -->
<g id="edge17" class="edge">
<title>2764&#45;&gt;38333</title>
<path fill="none" stroke="#000000" d="M746.6764,-1310.7873C740.1407,-1337.5037 727.8205,-1387.8662 720.1233,-1419.3311"/>
<polygon fill="#000000" stroke="#000000" points="716.6817,-1418.6705 717.7052,-1429.2158 723.4812,-1420.3339 716.6817,-1418.6705"/>
</g>
<!-- 38561 -->
<g id="node62" class="node">
<title>38561</title>
<ellipse fill="none" stroke="#000000" cx="814.7241" cy="-1403.8376" rx="32.4942" ry="18"/>
<text text-anchor="middle" x="814.7241" y="-1400.1376" font-family="Times,serif" font-size="14.00" fill="#000000">38561</text>
</g>
<!-- 2764&#45;&gt;38561 -->
<g id="edge18" class="edge">
<title>2764&#45;&gt;38561</title>
<path fill="none" stroke="#000000" d="M761.0252,-1310.1347C771.4403,-1328.3088 787.9157,-1357.0577 799.8726,-1377.9222"/>
<polygon fill="#000000" stroke="#000000" points="796.8408,-1379.6711 804.8497,-1386.6071 802.9142,-1376.1905 796.8408,-1379.6711"/>
</g>
<!-- 2828 -->
<g id="node14" class="node">
<title>2828</title>
<ellipse fill="none" stroke="#000000" cx="1256.4795" cy="-349.5013" rx="28.6953" ry="18"/>
<text text-anchor="middle" x="1256.4795" y="-345.8013" font-family="Times,serif" font-size="14.00" fill="#000000">2828</text>
</g>
<!-- 2914 -->
<g id="node15" class="node">
<title>2914</title>
<ellipse fill="none" stroke="#000000" cx="841.6954" cy="-453.9208" rx="28.6953" ry="18"/>
<text text-anchor="middle" x="841.6954" y="-450.2208" font-family="Times,serif" font-size="14.00" fill="#000000">2914</text>
</g>
<!-- 6453 -->
<g id="node29" class="node">
<title>6453</title>
<ellipse fill="none" stroke="#000000" cx="774.9431" cy="-328.9451" rx="28.6953" ry="18"/>
<text text-anchor="middle" x="774.9431" y="-325.2451" font-family="Times,serif" font-size="14.00" fill="#000000">6453</text>
</g>
<!-- 2914&#45;&gt;6453 -->
<g id="edge19" class="edge">
<title>2914&#45;&gt;6453</title>
<path fill="none" stroke="#000000" d="M832.5537,-436.8055C821.3318,-415.7955 802.1796,-379.9382 789.0611,-355.3773"/>
<polygon fill="#000000" stroke="#000000" points="791.9871,-353.4264 784.1885,-346.2547 785.8127,-356.7244 791.9871,-353.4264"/>
</g>
<!-- 3257 -->
<g id="node16" class="node">
<title>3257</title>
<ellipse fill="none" stroke="#000000" cx="723.2847" cy="-170.5053" rx="28.6953" ry="18"/>
<text text-anchor="middle" x="723.2847" y="-166.8053" font-family="Times,serif" font-size="14.00" fill="#000000">3257</text>
</g>
<!-- 3491 -->
<g id="node19" class="node">
<title>3491</title>
<ellipse fill="none" stroke="#000000" cx="742.7761" cy="-48.0062" rx="28.6953" ry="18"/>
<text text-anchor="middle" x="742.7761" y="-44.3062" font-family="Times,serif" font-size="14.00" fill="#000000">3491</text>
</g>
<!-- 3257&#45;&gt;3491 -->
<g id="edge20" class="edge">
<title>3257&#45;&gt;3491</title>
<path fill="none" stroke="#000000" d="M726.1608,-152.4301C729.3565,-132.3457 734.5573,-99.6593 738.2894,-76.2042"/>
<polygon fill="#000000" stroke="#000000" points="741.7733,-76.5813 739.8883,-66.1556 734.8603,-75.4813 741.7733,-76.5813"/>
</g>
<!-- 3320 -->
<g id="node17" class="node">
<title>3320</title>
<ellipse fill="none" stroke="#000000" cx="1356.3849" cy="-1064.291" rx="28.6953" ry="18"/>
<text text-anchor="middle" x="1356.3849" y="-1060.591" font-family="Times,serif" font-size="14.00" fill="#000000">3320</text>
</g>
<!-- 3320&#45;&gt;1273 -->
<g id="edge21" class="edge">
<title>3320&#45;&gt;1273</title>
<path fill="none" stroke="#000000" d="M1364.8258,-1081.783C1376.2936,-1105.5475 1396.8956,-1148.2406 1410.2609,-1175.9373"/>
<polygon fill="#000000" stroke="#000000" points="1407.1615,-1177.5678 1414.6598,-1185.0529 1413.4659,-1174.5256 1407.1615,-1177.5678"/>
</g>
<!-- 3356 -->
<g id="node18" class="node">
<title>3356</title>
<ellipse fill="none" stroke="#000000" cx="1254.1801" cy="-775.0174" rx="28.6953" ry="18"/>
<text text-anchor="middle" x="1254.1801" y="-771.3174" font-family="Times,serif" font-size="14.00" fill="#000000">3356</text>
</g>
<!-- 3549 -->
<g id="node20" class="node">
<title>3549</title>
<ellipse fill="none" stroke="#000000" cx="1030.7541" cy="-725.4711" rx="28.6953" ry="18"/>
<text text-anchor="middle" x="1030.7541" y="-721.7711" font-family="Times,serif" font-size="14.00" fill="#000000">3549</text>
</g>
<!-- 3356&#45;&gt;3549 -->
<g id="edge22" class="edge">
<title>3356&#45;&gt;3549</title>
<path fill="none" stroke="#000000" d="M1226.7837,-768.9421C1186.893,-760.096 1112.71,-743.6454 1067.9251,-733.714"/>
<polygon fill="#000000" stroke="#000000" points="1068.5454,-730.2666 1058.0248,-731.5185 1067.0298,-737.1006 1068.5454,-730.2666"/>
</g>
<!-- 3491&#45;&gt;174 -->
<g id="edge23" class="edge">
<title>3491&#45;&gt;174</title>
<path fill="none" stroke="#000000" d="M769.3607,-40.9822C785.0241,-36.8437 805.0348,-31.5565 822.0191,-27.069"/>
<polygon fill="#000000" stroke="#000000" points="823.3631,-30.3341 832.1373,-24.3956 821.5749,-23.5663 823.3631,-30.3341"/>
</g>
<!-- 6762 -->
<g id="node32" class="node">
<title>6762</title>
<ellipse fill="none" stroke="#000000" cx="943.976" cy="-607.2144" rx="28.6953" ry="18"/>
<text text-anchor="middle" x="943.976" y="-603.5144" font-family="Times,serif" font-size="14.00" fill="#000000">6762</text>
</g>
<!-- 3549&#45;&gt;6762 -->
<g id="edge24" class="edge">
<title>3549&#45;&gt;6762</title>
<path fill="none" stroke="#000000" d="M1018.688,-709.028C1004.0695,-689.1067 979.2936,-655.3435 962.3097,-632.1987"/>
<polygon fill="#000000" stroke="#000000" points="964.9574,-629.8907 956.2194,-623.8991 959.3138,-634.032 964.9574,-629.8907"/>
</g>
<!-- 30070 -->
<g id="node58" class="node">
<title>30070</title>
<ellipse fill="none" stroke="#000000" cx="832.2022" cy="-729.1934" rx="32.4942" ry="18"/>
<text text-anchor="middle" x="832.2022" y="-725.4934" font-family="Times,serif" font-size="14.00" fill="#000000">30070</text>
</g>
<!-- 3549&#45;&gt;30070 -->
<g id="edge25" class="edge">
<title>3549&#45;&gt;30070</title>
<path fill="none" stroke="#000000" d="M1001.8829,-726.0123C968.5553,-726.6371 913.4177,-727.6708 875.0765,-728.3896"/>
<polygon fill="#000000" stroke="#000000" points="874.6724,-724.8965 864.7398,-728.5834 874.8036,-731.8953 874.6724,-724.8965"/>
</g>
<!-- 3597 -->
<g id="node21" class="node">
<title>3597</title>
<ellipse fill="none" stroke="#000000" cx="1929.2265" cy="-971.8249" rx="28.6953" ry="18"/>
<text text-anchor="middle" x="1929.2265" y="-968.1249" font-family="Times,serif" font-size="14.00" fill="#000000">3597</text>
</g>
<!-- 37179 -->
<g id="node60" class="node">
<title>37179</title>
<ellipse fill="none" stroke="#000000" cx="32.9695" cy="-590.9235" rx="32.4942" ry="18"/>
<text text-anchor="middle" x="32.9695" y="-587.2235" font-family="Times,serif" font-size="14.00" fill="#000000">37179</text>
</g>
<!-- 3741&#45;&gt;37179 -->
<g id="edge26" class="edge">
<title>3741&#45;&gt;37179</title>
<path fill="none" stroke="#000000" d="M127.6011,-606.2812C111.9163,-603.7358 92.0065,-600.5046 74.4998,-597.6634"/>
<polygon fill="#000000" stroke="#000000" points="74.9515,-594.191 64.5199,-596.0438 73.8301,-601.1006 74.9515,-594.191"/>
</g>
<!-- 4635 -->
<g id="node23" class="node">
<title>4635</title>
<ellipse fill="none" stroke="#000000" cx="575.8925" cy="-1533.894" rx="28.6953" ry="18"/>
<text text-anchor="middle" x="575.8925" y="-1530.194" font-family="Times,serif" font-size="14.00" fill="#000000">4635</text>
</g>
<!-- 4637 -->
<g id="node24" class="node">
<title>4637</title>
<ellipse fill="none" stroke="#000000" cx="1234.8975" cy="-470.8556" rx="28.6953" ry="18"/>
<text text-anchor="middle" x="1234.8975" y="-467.1556" font-family="Times,serif" font-size="14.00" fill="#000000">4637</text>
</g>
<!-- 4637&#45;&gt;2828 -->
<g id="edge27" class="edge">
<title>4637&#45;&gt;2828</title>
<path fill="none" stroke="#000000" d="M1238.082,-452.9494C1241.6205,-433.0526 1247.3792,-400.6717 1251.5116,-377.4357"/>
<polygon fill="#000000" stroke="#000000" points="1254.9768,-377.9394 1253.2819,-367.481 1248.085,-376.7136 1254.9768,-377.9394"/>
</g>
<!-- 4739 -->
<g id="node25" class="node">
<title>4739</title>
<ellipse fill="none" stroke="#000000" cx="485.6819" cy="-1509.6784" rx="28.6953" ry="18"/>
<text text-anchor="middle" x="485.6819" y="-1505.9784" font-family="Times,serif" font-size="14.00" fill="#000000">4739</text>
</g>
<!-- 38880 -->
<g id="node63" class="node">
<title>38880</title>
<ellipse fill="none" stroke="#000000" cx="342.3866" cy="-1627.4871" rx="32.4942" ry="18"/>
<text text-anchor="middle" x="342.3866" y="-1623.7871" font-family="Times,serif" font-size="14.00" fill="#000000">38880</text>
</g>
<!-- 4739&#45;&gt;38880 -->
<g id="edge28" class="edge">
<title>4739&#45;&gt;38880</title>
<path fill="none" stroke="#000000" d="M468.1111,-1524.124C443.2158,-1544.5914 397.4954,-1582.18 368.5866,-1605.9471"/>
<polygon fill="#000000" stroke="#000000" points="366.0551,-1603.4973 360.5533,-1612.5516 370.5006,-1608.9045 366.0551,-1603.4973"/>
</g>
<!-- 4755 -->
<g id="node26" class="node">
<title>4755</title>
<ellipse fill="none" stroke="#000000" cx="1388.2575" cy="-381.6022" rx="28.6953" ry="18"/>
<text text-anchor="middle" x="1388.2575" y="-377.9022" font-family="Times,serif" font-size="14.00" fill="#000000">4755</text>
</g>
<!-- 9583 -->
<g id="node45" class="node">
<title>9583</title>
<ellipse fill="none" stroke="#000000" cx="1463.1614" cy="-250.6982" rx="28.6953" ry="18"/>
<text text-anchor="middle" x="1463.1614" y="-246.9982" font-family="Times,serif" font-size="14.00" fill="#000000">9583</text>
</g>
<!-- 4755&#45;&gt;9583 -->
<g id="edge29" class="edge">
<title>4755&#45;&gt;9583</title>
<path fill="none" stroke="#000000" d="M1398.0499,-364.4888C1410.8351,-342.1451 1433.3367,-302.8206 1448.2484,-276.7606"/>
<polygon fill="#000000" stroke="#000000" points="1451.438,-278.2336 1453.3667,-267.8158 1445.3623,-274.757 1451.438,-278.2336"/>
</g>
<!-- 5692 -->
<g id="node28" class="node">
<title>5692</title>
<ellipse fill="none" stroke="#000000" cx="1930.6632" cy="-880.1155" rx="28.6953" ry="18"/>
<text text-anchor="middle" x="1930.6632" y="-876.4155" font-family="Times,serif" font-size="14.00" fill="#000000">5692</text>
</g>
<!-- 5692&#45;&gt;3597 -->
<g id="edge30" class="edge">
<title>5692&#45;&gt;3597</title>
<path fill="none" stroke="#000000" d="M1930.3794,-898.2344C1930.1767,-911.172 1929.9001,-928.8282 1929.6686,-943.6032"/>
<polygon fill="#000000" stroke="#000000" points="1926.1669,-943.6901 1929.5097,-953.7437 1933.166,-943.7998 1926.1669,-943.6901"/>
</g>
<!-- 10834 -->
<g id="node48" class="node">
<title>10834</title>
<ellipse fill="none" stroke="#000000" cx="1699.1307" cy="-854.3777" rx="32.4942" ry="18"/>
<text text-anchor="middle" x="1699.1307" y="-850.6777" font-family="Times,serif" font-size="14.00" fill="#000000">10834</text>
</g>
<!-- 5692&#45;&gt;10834 -->
<g id="edge31" class="edge">
<title>5692&#45;&gt;10834</title>
<path fill="none" stroke="#000000" d="M1902.2728,-876.9596C1861.9703,-872.4794 1787.8896,-864.2444 1741.1946,-859.0536"/>
<polygon fill="#000000" stroke="#000000" points="1741.4219,-855.5574 1731.0964,-857.9311 1740.6484,-862.5146 1741.4219,-855.5574"/>
</g>
<!-- 11008 -->
<g id="node49" class="node">
<title>11008</title>
<ellipse fill="none" stroke="#000000" cx="2079.4025" cy="-972.2798" rx="32.4942" ry="18"/>
<text text-anchor="middle" x="2079.4025" y="-968.5798" font-family="Times,serif" font-size="14.00" fill="#000000">11008</text>
</g>
<!-- 5692&#45;&gt;11008 -->
<g id="edge32" class="edge">
<title>5692&#45;&gt;11008</title>
<path fill="none" stroke="#000000" d="M1951.3448,-892.9306C1976.6637,-908.6191 2019.7593,-935.3226 2048.8888,-953.3724"/>
<polygon fill="#000000" stroke="#000000" points="2047.1016,-956.3824 2057.4455,-958.6744 2050.7886,-950.4321 2047.1016,-956.3824"/>
</g>
<!-- 27865 -->
<g id="node56" class="node">
<title>27865</title>
<ellipse fill="none" stroke="#000000" cx="1998.4997" cy="-1010.1904" rx="32.4942" ry="18"/>
<text text-anchor="middle" x="1998.4997" y="-1006.4904" font-family="Times,serif" font-size="14.00" fill="#000000">27865</text>
</g>
<!-- 5692&#45;&gt;27865 -->
<g id="edge33" class="edge">
<title>5692&#45;&gt;27865</title>
<path fill="none" stroke="#000000" d="M1939.6714,-897.3885C1951.1763,-919.4488 1971.2029,-957.8494 1984.6529,-983.6395"/>
<polygon fill="#000000" stroke="#000000" points="1981.7267,-985.5978 1989.4543,-992.846 1987.9334,-982.3609 1981.7267,-985.5978"/>
</g>
<!-- 28065 -->
<g id="node57" class="node">
<title>28065</title>
<ellipse fill="none" stroke="#000000" cx="1921.1322" cy="-1018.849" rx="32.4942" ry="18"/>
<text text-anchor="middle" x="1921.1322" y="-1015.149" font-family="Times,serif" font-size="14.00" fill="#000000">28065</text>
</g>
<!-- 5692&#45;&gt;28065 -->
<g id="edge34" class="edge">
<title>5692&#45;&gt;28065</title>
<path fill="none" stroke="#000000" d="M1929.4172,-898.2525C1927.8047,-921.7249 1924.9773,-962.8793 1923.0799,-990.4977"/>
<polygon fill="#000000" stroke="#000000" points="1919.5722,-990.4911 1922.3785,-1000.7075 1926.5558,-990.971 1919.5722,-990.4911"/>
</g>
<!-- 52317 -->
<g id="node64" class="node">
<title>52317</title>
<ellipse fill="none" stroke="#000000" cx="2065.7355" cy="-782.3629" rx="32.4942" ry="18"/>
<text text-anchor="middle" x="2065.7355" y="-778.6629" font-family="Times,serif" font-size="14.00" fill="#000000">52317</text>
</g>
<!-- 5692&#45;&gt;52317 -->
<g id="edge35" class="edge">
<title>5692&#45;&gt;52317</title>
<path fill="none" stroke="#000000" d="M1949.4444,-866.5235C1972.3378,-849.9554 2011.2355,-821.8049 2037.6828,-802.6648"/>
<polygon fill="#000000" stroke="#000000" points="2039.7469,-805.4915 2045.796,-796.7932 2035.6429,-799.8207 2039.7469,-805.4915"/>
</g>
<!-- 52375 -->
<g id="node65" class="node">
<title>52375</title>
<ellipse fill="none" stroke="#000000" cx="2022.4194" cy="-836.0273" rx="32.4942" ry="18"/>
<text text-anchor="middle" x="2022.4194" y="-832.3273" font-family="Times,serif" font-size="14.00" fill="#000000">52375</text>
</g>
<!-- 5692&#45;&gt;52375 -->
<g id="edge36" class="edge">
<title>5692&#45;&gt;52375</title>
<path fill="none" stroke="#000000" d="M1953.8172,-868.9902C1964.2693,-863.9681 1976.8265,-857.9344 1988.3246,-852.4096"/>
<polygon fill="#000000" stroke="#000000" points="1990.1668,-855.4076 1997.6644,-847.9219 1987.1351,-849.0982 1990.1668,-855.4076"/>
</g>
<!-- 52376 -->
<g id="node66" class="node">
<title>52376</title>
<ellipse fill="none" stroke="#000000" cx="1967.048" cy="-735.6536" rx="32.4942" ry="18"/>
<text text-anchor="middle" x="1967.048" y="-731.9536" font-family="Times,serif" font-size="14.00" fill="#000000">52376</text>
</g>
<!-- 5692&#45;&gt;52376 -->
<g id="edge37" class="edge">
<title>5692&#45;&gt;52376</title>
<path fill="none" stroke="#000000" d="M1935.1978,-862.1114C1941.4075,-837.4565 1952.6202,-792.9375 1959.9485,-763.8411"/>
<polygon fill="#000000" stroke="#000000" points="1963.4078,-764.4366 1962.4562,-753.8846 1956.6198,-762.7269 1963.4078,-764.4366"/>
</g>
<!-- 52380 -->
<g id="node67" class="node">
<title>52380</title>
<ellipse fill="none" stroke="#000000" cx="1866.8756" cy="-759.6143" rx="32.4942" ry="18"/>
<text text-anchor="middle" x="1866.8756" y="-755.9143" font-family="Times,serif" font-size="14.00" fill="#000000">52380</text>
</g>
<!-- 5692&#45;&gt;52380 -->
<g id="edge38" class="edge">
<title>5692&#45;&gt;52380</title>
<path fill="none" stroke="#000000" d="M1921.524,-862.8506C1910.927,-842.8317 1893.3367,-809.602 1880.9819,-786.2624"/>
<polygon fill="#000000" stroke="#000000" points="1883.9772,-784.4397 1876.2053,-777.239 1877.7905,-787.7146 1883.9772,-784.4397"/>
</g>
<!-- 52413 -->
<g id="node68" class="node">
<title>52413</title>
<ellipse fill="none" stroke="#000000" cx="2079.2197" cy="-927.9971" rx="32.4942" ry="18"/>
<text text-anchor="middle" x="2079.2197" y="-924.2971" font-family="Times,serif" font-size="14.00" fill="#000000">52413</text>
</g>
<!-- 5692&#45;&gt;52413 -->
<g id="edge39" class="edge">
<title>5692&#45;&gt;52413</title>
<path fill="none" stroke="#000000" d="M1956.201,-888.3467C1979.5932,-895.8862 2014.5323,-907.1475 2041.2047,-915.7444"/>
<polygon fill="#000000" stroke="#000000" points="2040.3895,-919.1589 2050.9811,-918.8954 2042.5369,-912.4964 2040.3895,-919.1589"/>
</g>
<!-- 52431 -->
<g id="node69" class="node">
<title>52431</title>
<ellipse fill="none" stroke="#000000" cx="1953.2219" cy="-781.902" rx="32.4942" ry="18"/>
<text text-anchor="middle" x="1953.2219" y="-778.202" font-family="Times,serif" font-size="14.00" fill="#000000">52431</text>
</g>
<!-- 5692&#45;&gt;52431 -->
<g id="edge40" class="edge">
<title>5692&#45;&gt;52431</title>
<path fill="none" stroke="#000000" d="M1934.8008,-862.1017C1938.1716,-847.4265 1942.9878,-826.458 1946.8503,-809.642"/>
<polygon fill="#000000" stroke="#000000" points="1950.283,-810.3314 1949.1105,-799.8017 1943.4607,-808.7643 1950.283,-810.3314"/>
</g>
<!-- 262230 -->
<g id="node70" class="node">
<title>262230</title>
<ellipse fill="none" stroke="#000000" cx="1985.2502" cy="-925.4303" rx="37.0935" ry="18"/>
<text text-anchor="middle" x="1985.2502" y="-921.7303" font-family="Times,serif" font-size="14.00" fill="#000000">262230</text>
</g>
<!-- 5692&#45;&gt;262230 -->
<g id="edge41" class="edge">
<title>5692&#45;&gt;262230</title>
<path fill="none" stroke="#000000" d="M1948.2354,-894.7029C1951.4612,-897.3807 1954.8953,-900.2316 1958.3218,-903.076"/>
<polygon fill="#000000" stroke="#000000" points="1956.2716,-905.9229 1966.2014,-909.6172 1960.7427,-900.5368 1956.2716,-905.9229"/>
</g>
<!-- 264608 -->
<g id="node71" class="node">
<title>264608</title>
<ellipse fill="none" stroke="#000000" cx="2105.2038" cy="-850.3742" rx="37.0935" ry="18"/>
<text text-anchor="middle" x="2105.2038" y="-846.6742" font-family="Times,serif" font-size="14.00" fill="#000000">264608</text>
</g>
<!-- 5692&#45;&gt;264608 -->
<g id="edge42" class="edge">
<title>5692&#45;&gt;264608</title>
<path fill="none" stroke="#000000" d="M1958.3197,-875.4029C1985.6419,-870.7473 2027.897,-863.5471 2060.0844,-858.0625"/>
<polygon fill="#000000" stroke="#000000" points="2060.8794,-861.4775 2070.1494,-856.3474 2059.7035,-854.577 2060.8794,-861.4775"/>
</g>
<!-- 6453&#45;&gt;3257 -->
<g id="edge43" class="edge">
<title>6453&#45;&gt;3257</title>
<path fill="none" stroke="#000000" d="M769.1176,-311.078C760.1651,-283.6201 742.9516,-230.8248 732.3566,-198.3295"/>
<polygon fill="#000000" stroke="#000000" points="735.5957,-196.9726 729.1682,-188.5502 728.9405,-199.1426 735.5957,-196.9726"/>
</g>
<!-- 6461&#45;&gt;2497 -->
<g id="edge44" class="edge">
<title>6461&#45;&gt;2497</title>
<path fill="none" stroke="#000000" d="M1081.5384,-444.3927C1088.6464,-471.1548 1102.0454,-521.6032 1110.4167,-553.1216"/>
<polygon fill="#000000" stroke="#000000" points="1107.0968,-554.2568 1113.0465,-563.0232 1113.8622,-552.4598 1107.0968,-554.2568"/>
</g>
<!-- 6695 -->
<g id="node31" class="node">
<title>6695</title>
<ellipse fill="none" stroke="#000000" cx="238.2979" cy="-1699.5139" rx="28.6953" ry="18"/>
<text text-anchor="middle" x="238.2979" y="-1695.8139" font-family="Times,serif" font-size="14.00" fill="#000000">6695</text>
</g>
<!-- 6762&#45;&gt;2914 -->
<g id="edge45" class="edge">
<title>6762&#45;&gt;2914</title>
<path fill="none" stroke="#000000" d="M932.8355,-590.5175C914.9285,-563.6794 879.626,-510.7696 858.6007,-479.2578"/>
<polygon fill="#000000" stroke="#000000" points="861.2838,-476.973 852.8221,-470.5972 855.4609,-480.8581 861.2838,-476.973"/>
</g>
<!-- 6904 -->
<g id="node33" class="node">
<title>6904</title>
<ellipse fill="none" stroke="#000000" cx="622.4636" cy="-699.0687" rx="28.6953" ry="18"/>
<text text-anchor="middle" x="622.4636" y="-695.3687" font-family="Times,serif" font-size="14.00" fill="#000000">6904</text>
</g>
<!-- 6904&#45;&gt;2687 -->
<g id="edge46" class="edge">
<title>6904&#45;&gt;2687</title>
<path fill="none" stroke="#000000" d="M594.1406,-695.3605C565.5029,-691.6111 521.051,-685.7913 489.2736,-681.6308"/>
<polygon fill="#000000" stroke="#000000" points="489.3937,-678.1168 479.024,-680.2889 488.4849,-685.0575 489.3937,-678.1168"/>
</g>
<!-- 6939 -->
<g id="node34" class="node">
<title>6939</title>
<ellipse fill="none" stroke="#000000" cx="1654.2532" cy="-1650.4062" rx="28.6953" ry="18"/>
<text text-anchor="middle" x="1654.2532" y="-1646.7062" font-family="Times,serif" font-size="14.00" fill="#000000">6939</text>
</g>
<!-- 12266 -->
<g id="node50" class="node">
<title>12266</title>
<ellipse fill="none" stroke="#000000" cx="1712.1632" cy="-1767.3545" rx="32.4942" ry="18"/>
<text text-anchor="middle" x="1712.1632" y="-1763.6545" font-family="Times,serif" font-size="14.00" fill="#000000">12266</text>
</g>
<!-- 6939&#45;&gt;12266 -->
<g id="edge47" class="edge">
<title>6939&#45;&gt;12266</title>
<path fill="none" stroke="#000000" d="M1662.798,-1667.6623C1672.3232,-1686.8982 1687.8441,-1718.2424 1698.9396,-1740.6496"/>
<polygon fill="#000000" stroke="#000000" points="1695.8194,-1742.2358 1703.3935,-1749.6442 1702.0924,-1739.1295 1695.8194,-1742.2358"/>
</g>
<!-- 7016 -->
<g id="node35" class="node">
<title>7016</title>
<ellipse fill="none" stroke="#000000" cx="683.7356" cy="-799.4248" rx="28.6953" ry="18"/>
<text text-anchor="middle" x="683.7356" y="-795.7248" font-family="Times,serif" font-size="14.00" fill="#000000">7016</text>
</g>
<!-- 7922 -->
<g id="node40" class="node">
<title>7922</title>
<ellipse fill="none" stroke="#000000" cx="575.4033" cy="-844.0235" rx="28.6953" ry="18"/>
<text text-anchor="middle" x="575.4033" y="-840.3235" font-family="Times,serif" font-size="14.00" fill="#000000">7922</text>
</g>
<!-- 7016&#45;&gt;7922 -->
<g id="edge48" class="edge">
<title>7016&#45;&gt;7922</title>
<path fill="none" stroke="#000000" d="M659.6931,-809.3227C644.686,-815.5009 625.1553,-823.5414 608.6734,-830.3268"/>
<polygon fill="#000000" stroke="#000000" points="607.2932,-827.1099 599.3786,-834.1533 609.958,-833.5828 607.2932,-827.1099"/>
</g>
<!-- 7018&#45;&gt;3320 -->
<g id="edge49" class="edge">
<title>7018&#45;&gt;3320</title>
<path fill="none" stroke="#000000" d="M1278.8536,-917.1458C1294.0634,-946.0123 1324.7217,-1004.198 1342.5912,-1038.1122"/>
<polygon fill="#000000" stroke="#000000" points="1339.5107,-1039.7741 1347.2687,-1046.9896 1345.7036,-1036.511 1339.5107,-1039.7741"/>
</g>
<!-- 7473 -->
<g id="node37" class="node">
<title>7473</title>
<ellipse fill="none" stroke="#000000" cx="1155.0228" cy="-509.0107" rx="28.6953" ry="18"/>
<text text-anchor="middle" x="1155.0228" y="-505.3107" font-family="Times,serif" font-size="14.00" fill="#000000">7473</text>
</g>
<!-- 7474 -->
<g id="node38" class="node">
<title>7474</title>
<ellipse fill="none" stroke="#000000" cx="866.6572" cy="-1254.4201" rx="28.6953" ry="18"/>
<text text-anchor="middle" x="866.6572" y="-1250.7201" font-family="Times,serif" font-size="14.00" fill="#000000">7474</text>
</g>
<!-- 7545&#45;&gt;4635 -->
<g id="edge50" class="edge">
<title>7545&#45;&gt;4635</title>
<path fill="none" stroke="#000000" d="M601.6508,-1435.3314C596.6967,-1454.2879 588.824,-1484.4126 583.0849,-1506.3727"/>
<polygon fill="#000000" stroke="#000000" points="579.6811,-1505.555 580.5388,-1516.1151 586.4537,-1507.325 579.6811,-1505.555"/>
</g>
<!-- 7545&#45;&gt;4739 -->
<g id="edge51" class="edge">
<title>7545&#45;&gt;4739</title>
<path fill="none" stroke="#000000" d="M588.0162,-1431.3996C567.818,-1446.8498 535.1498,-1471.8388 512.1678,-1489.4185"/>
<polygon fill="#000000" stroke="#000000" points="509.9963,-1486.6729 504.18,-1495.5286 514.2492,-1492.2328 509.9963,-1486.6729"/>
</g>
<!-- 9942 -->
<g id="node46" class="node">
<title>9942</title>
<ellipse fill="none" stroke="#000000" cx="504.9915" cy="-1460.6663" rx="28.6953" ry="18"/>
<text text-anchor="middle" x="504.9915" y="-1456.9663" font-family="Times,serif" font-size="14.00" fill="#000000">9942</text>
</g>
<!-- 7545&#45;&gt;9942 -->
<g id="edge52" class="edge">
<title>7545&#45;&gt;9942</title>
<path fill="none" stroke="#000000" d="M582.5796,-1427.53C569.4592,-1433.1335 552.948,-1440.1851 538.5331,-1446.3414"/>
<polygon fill="#000000" stroke="#000000" points="536.7777,-1443.2852 528.9559,-1450.4316 539.527,-1449.7227 536.7777,-1443.2852"/>
</g>
<!-- 9002 -->
<g id="node41" class="node">
<title>9002</title>
<ellipse fill="none" stroke="#000000" cx="321.4525" cy="-1753.6179" rx="28.6953" ry="18"/>
<text text-anchor="middle" x="321.4525" y="-1749.9179" font-family="Times,serif" font-size="14.00" fill="#000000">9002</text>
</g>
<!-- 9443 -->
<g id="node42" class="node">
<title>9443</title>
<ellipse fill="none" stroke="#000000" cx="216.8068" cy="-1644.1621" rx="28.6953" ry="18"/>
<text text-anchor="middle" x="216.8068" y="-1640.4621" font-family="Times,serif" font-size="14.00" fill="#000000">9443</text>
</g>
<!-- 9498&#45;&gt;4637 -->
<g id="edge53" class="edge">
<title>9498&#45;&gt;4637</title>
<path fill="none" stroke="#000000" d="M1192.1663,-616.9408C1200.526,-588.3616 1216.9717,-532.1385 1226.8441,-498.3878"/>
<polygon fill="#000000" stroke="#000000" points="1230.2324,-499.2708 1229.6807,-488.6903 1223.5139,-497.3055 1230.2324,-499.2708"/>
</g>
<!-- 9498&#45;&gt;7473 -->
<g id="edge54" class="edge">
<title>9498&#45;&gt;7473</title>
<path fill="none" stroke="#000000" d="M1182.3696,-616.7754C1177.0601,-595.8523 1168.2424,-561.1047 1162.0587,-536.7368"/>
<polygon fill="#000000" stroke="#000000" points="1165.4399,-535.8313 1159.5877,-526.9995 1158.655,-537.5532 1165.4399,-535.8313"/>
</g>
<!-- 10026 -->
<g id="node47" class="node">
<title>10026</title>
<ellipse fill="none" stroke="#000000" cx="1312.7567" cy="-497.2133" rx="32.4942" ry="18"/>
<text text-anchor="middle" x="1312.7567" y="-493.5133" font-family="Times,serif" font-size="14.00" fill="#000000">10026</text>
</g>
<!-- 9498&#45;&gt;10026 -->
<g id="edge55" class="edge">
<title>9498&#45;&gt;10026</title>
<path fill="none" stroke="#000000" d="M1201.3755,-619.0149C1223.3229,-595.0142 1265.2445,-549.1705 1290.9295,-521.0825"/>
<polygon fill="#000000" stroke="#000000" points="1293.5479,-523.4056 1297.7134,-513.664 1288.3821,-518.6818 1293.5479,-523.4056"/>
</g>
<!-- 10026&#45;&gt;4755 -->
<g id="edge56" class="edge">
<title>10026&#45;&gt;4755</title>
<path fill="none" stroke="#000000" d="M1323.8971,-480.1545C1336.5153,-460.8328 1357.2038,-429.1533 1371.7102,-406.9403"/>
<polygon fill="#000000" stroke="#000000" points="1374.7794,-408.6416 1377.3169,-398.3551 1368.9185,-404.8141 1374.7794,-408.6416"/>
</g>
<!-- 12956 -->
<g id="node51" class="node">
<title>12956</title>
<ellipse fill="none" stroke="#000000" cx="1493.552" cy="-820.7412" rx="32.4942" ry="18"/>
<text text-anchor="middle" x="1493.552" y="-817.0412" font-family="Times,serif" font-size="14.00" fill="#000000">12956</text>
</g>
<!-- 10834&#45;&gt;12956 -->
<g id="edge57" class="edge">
<title>10834&#45;&gt;12956</title>
<path fill="none" stroke="#000000" d="M1667.9077,-849.269C1632.3347,-843.4486 1574.0594,-833.9137 1534.7775,-827.4865"/>
<polygon fill="#000000" stroke="#000000" points="1535.1653,-824.0035 1524.7313,-825.8428 1534.0349,-830.9116 1535.1653,-824.0035"/>
</g>
<!-- 22927 -->
<g id="node55" class="node">
<title>22927</title>
<ellipse fill="none" stroke="#000000" cx="1744.4262" cy="-975.6258" rx="32.4942" ry="18"/>
<text text-anchor="middle" x="1744.4262" y="-971.9258" font-family="Times,serif" font-size="14.00" fill="#000000">22927</text>
</g>
<!-- 10834&#45;&gt;22927 -->
<g id="edge58" class="edge">
<title>10834&#45;&gt;22927</title>
<path fill="none" stroke="#000000" d="M1705.717,-872.0082C1713.1977,-892.0327 1725.4952,-924.9508 1734.2203,-948.3064"/>
<polygon fill="#000000" stroke="#000000" points="1731.0536,-949.8312 1737.8319,-957.974 1737.6109,-947.3815 1731.0536,-949.8312"/>
</g>
<!-- 20454 -->
<g id="node54" class="node">
<title>20454</title>
<ellipse fill="none" stroke="#000000" cx="1779.0055" cy="-1902.3996" rx="32.4942" ry="18"/>
<text text-anchor="middle" x="1779.0055" y="-1898.6996" font-family="Times,serif" font-size="14.00" fill="#000000">20454</text>
</g>
<!-- 12266&#45;&gt;20454 -->
<g id="edge59" class="edge">
<title>12266&#45;&gt;20454</title>
<path fill="none" stroke="#000000" d="M1720.7648,-1784.7328C1732.1328,-1807.7002 1752.2777,-1848.3999 1765.6381,-1875.3928"/>
<polygon fill="#000000" stroke="#000000" points="1762.6518,-1877.2495 1770.2246,-1884.6591 1768.9254,-1874.1443 1762.6518,-1877.2495"/>
</g>
<!-- 12956&#45;&gt;3356 -->
<g id="edge60" class="edge">
<title>12956&#45;&gt;3356</title>
<path fill="none" stroke="#000000" d="M1462.7483,-814.8573C1418.9867,-806.4981 1338.9059,-791.2014 1291.7255,-782.1892"/>
<polygon fill="#000000" stroke="#000000" points="1292.3777,-778.7506 1281.8986,-780.3121 1291.0643,-785.6263 1292.3777,-778.7506"/>
</g>
<!-- 17676&#45;&gt;6939 -->
<g id="edge61" class="edge">
<title>17676&#45;&gt;6939</title>
<path fill="none" stroke="#000000" d="M1585.1272,-1513.6054C1598.688,-1540.4423 1624.8163,-1592.1505 1640.7777,-1623.7382"/>
<polygon fill="#000000" stroke="#000000" points="1637.7458,-1625.4987 1645.3797,-1632.8455 1643.9935,-1622.3417 1637.7458,-1625.4987"/>
</g>
<!-- 18540 -->
<g id="node53" class="node">
<title>18540</title>
<ellipse fill="none" stroke="#000000" cx="711.7462" cy="-653.9379" rx="32.4942" ry="18"/>
<text text-anchor="middle" x="711.7462" y="-650.2379" font-family="Times,serif" font-size="14.00" fill="#000000">18540</text>
</g>
<!-- 30070&#45;&gt;6904 -->
<g id="edge62" class="edge">
<title>30070&#45;&gt;6904</title>
<path fill="none" stroke="#000000" d="M800.3474,-724.6181C762.8177,-719.2278 700.5208,-710.28 660.4951,-704.5312"/>
<polygon fill="#000000" stroke="#000000" points="660.9758,-701.0644 650.5798,-703.107 659.9806,-707.9933 660.9758,-701.0644"/>
</g>
<!-- 30070&#45;&gt;7016 -->
<g id="edge63" class="edge">
<title>30070&#45;&gt;7016</title>
<path fill="none" stroke="#000000" d="M807.3522,-740.9486C782.2459,-752.825 743.3471,-771.2259 715.9011,-784.2091"/>
<polygon fill="#000000" stroke="#000000" points="714.2551,-781.1158 706.7122,-788.5559 717.2484,-787.4435 714.2551,-781.1158"/>
</g>
<!-- 30070&#45;&gt;18540 -->
<g id="edge64" class="edge">
<title>30070&#45;&gt;18540</title>
<path fill="none" stroke="#000000" d="M810.3885,-715.5652C791.2867,-703.6313 763.3369,-686.1695 742.0616,-672.8777"/>
<polygon fill="#000000" stroke="#000000" points="743.733,-669.7949 733.3976,-667.4647 740.024,-675.7316 743.733,-669.7949"/>
</g>
<!-- 32787&#45;&gt;2764 -->
<g id="edge65" class="edge">
<title>32787&#45;&gt;2764</title>
<path fill="none" stroke="#000000" d="M843.464,-1164.8587C825.1221,-1190.2568 790.3346,-1238.4275 769.0762,-1267.8641"/>
<polygon fill="#000000" stroke="#000000" points="766.2224,-1265.8377 763.2051,-1275.9939 771.8973,-1269.936 766.2224,-1265.8377"/>
</g>
<!-- 32787&#45;&gt;7474 -->
<g id="edge66" class="edge">
<title>32787&#45;&gt;7474</title>
<path fill="none" stroke="#000000" d="M857.5304,-1166.0217C859.2279,-1182.4626 861.7619,-1207.0062 863.7295,-1226.063"/>
<polygon fill="#000000" stroke="#000000" points="860.275,-1226.6848 864.7835,-1236.2725 867.2379,-1225.9659 860.275,-1226.6848"/>
</g>
<!-- 38333&#45;&gt;1221 -->
<g id="edge67" class="edge">
<title>38333&#45;&gt;1221</title>
<path fill="none" stroke="#000000" d="M715.4505,-1465.0775C718.0896,-1487.4305 722.6255,-1525.8488 725.7302,-1552.1446"/>
<polygon fill="#000000" stroke="#000000" points="722.2747,-1552.7288 726.9232,-1562.2494 729.2265,-1551.908 722.2747,-1552.7288"/>
</g>
<!-- 38880&#45;&gt;6695 -->
<g id="edge68" class="edge">
<title>38880&#45;&gt;6695</title>
<path fill="none" stroke="#000000" d="M321.8221,-1641.7173C305.9799,-1652.6797 283.9042,-1667.9555 266.4267,-1680.0495"/>
<polygon fill="#000000" stroke="#000000" points="263.9952,-1677.4757 257.7636,-1686.0441 267.9785,-1683.232 263.9952,-1677.4757"/>
</g>
<!-- 38880&#45;&gt;9002 -->
<g id="edge69" class="edge">
<title>38880&#45;&gt;9002</title>
<path fill="none" stroke="#000000" d="M339.3873,-1645.5586C335.9207,-1666.4452 330.1739,-1701.0706 326.1212,-1725.4881"/>
<polygon fill="#000000" stroke="#000000" points="322.6309,-1725.1418 324.4463,-1735.58 329.5365,-1726.288 322.6309,-1725.1418"/>
</g>
<!-- 38880&#45;&gt;9443 -->
<g id="edge70" class="edge">
<title>38880&#45;&gt;9443</title>
<path fill="none" stroke="#000000" d="M310.6975,-1631.6949C293.812,-1633.937 272.9119,-1636.7122 255.1203,-1639.0747"/>
<polygon fill="#000000" stroke="#000000" points="254.5101,-1635.6249 245.0578,-1640.4108 255.4316,-1642.564 254.5101,-1635.6249"/>
</g>
</g>
</svg>
