<?xml version="1.0" encoding="UTF-8" standalone="no"?>
<!DOCTYPE svg PUBLIC "-//W3C//DTD SVG 1.1//EN"
 "http://www.w3.org/Graphics/SVG/1.1/DTD/svg11.dtd">
<!-- Generated by graphviz version 2.40.1 (20161225.0304)
 -->
<!-- Title: %3 Pages: 1 -->
<svg width="793pt" height="432pt"
 viewBox="0.00 0.00 792.87 432.10" xmlns="http://www.w3.org/2000/svg" xmlns:xlink="http://www.w3.org/1999/xlink">
<g id="graph0" class="graph" transform="scale(1 1) rotate(0) translate(4 428.0992)">
<title>%3</title>
<polygon fill="#ffffff" stroke="transparent" points="-4,4 -4,-428.0992 788.8699,-428.0992 788.8699,4 -4,4"/>
<!-- 174 -->
<g id="node1" class="node">
<title>174</title>
<ellipse fill="none" stroke="#000000" cx="345.8652" cy="-242.4874" rx="27" ry="18"/>
<text text-anchor="middle" x="345.8652" y="-238.7874" font-family="Times,serif" font-size="14.00" fill="#000000">174</text>
</g>
<!-- 209 -->
<g id="node2" class="node">
<title>209</title>
<ellipse fill="none" stroke="#000000" cx="375.9755" cy="-247.0657" rx="27" ry="18"/>
<text text-anchor="middle" x="375.9755" y="-243.3657" font-family="Times,serif" font-size="14.00" fill="#000000">209</text>
</g>
<!-- 174&#45;&gt;209 -->
<g id="edge1" class="edge">
<title>174&#45;&gt;209</title>
<path fill="none" stroke="#000000" d="M372.2834,-246.5043C372.3537,-246.515 372.4233,-246.5256 372.492,-246.536"/>
<polygon fill="#000000" stroke="#000000" points="362.2818,-248.5199 372.6958,-246.567 363.337,-241.5994 362.2818,-248.5199"/>
</g>
<!-- 1299 -->
<g id="node8" class="node">
<title>1299</title>
<ellipse fill="none" stroke="#000000" cx="407.2836" cy="-250.5106" rx="28.6953" ry="18"/>
<text text-anchor="middle" x="407.2836" y="-246.8106" font-family="Times,serif" font-size="14.00" fill="#000000">1299</text>
</g>
<!-- 209&#45;&gt;1299 -->
<g id="edge2" class="edge">
<title>209&#45;&gt;1299</title>
<path fill="none" stroke="#000000" d="M402.664,-250.0023C402.7509,-250.0119 402.837,-250.0213 402.9221,-250.0307"/>
<polygon fill="#000000" stroke="#000000" points="392.8504,-252.4402 403.1745,-250.0585 393.6185,-245.4822 392.8504,-252.4402"/>
</g>
<!-- 701 -->
<g id="node3" class="node">
<title>701</title>
<ellipse fill="none" stroke="#000000" cx="510.1335" cy="-258.4955" rx="27" ry="18"/>
<text text-anchor="middle" x="510.1335" y="-254.7955" font-family="Times,serif" font-size="14.00" fill="#000000">701</text>
</g>
<!-- 703 -->
<g id="node4" class="node">
<title>703</title>
<ellipse fill="none" stroke="#000000" cx="538.5602" cy="-290.6132" rx="27" ry="18"/>
<text text-anchor="middle" x="538.5602" y="-286.9132" font-family="Times,serif" font-size="14.00" fill="#000000">703</text>
</g>
<!-- 701&#45;&gt;703 -->
<g id="edge3" class="edge">
<title>701&#45;&gt;703</title>
<path fill="none" stroke="#000000" d="M524.0137,-274.178C524.1265,-274.3054 524.2393,-274.4328 524.352,-274.5603"/>
<polygon fill="#000000" stroke="#000000" points="515.4409,-269.7737 524.6903,-274.9425 520.6831,-265.1338 515.4409,-269.7737"/>
</g>
<!-- 7018 -->
<g id="node36" class="node">
<title>7018</title>
<ellipse fill="none" stroke="#000000" cx="510.5648" cy="-222.7928" rx="28.6953" ry="18"/>
<text text-anchor="middle" x="510.5648" y="-219.0928" font-family="Times,serif" font-size="14.00" fill="#000000">7018</text>
</g>
<!-- 701&#45;&gt;7018 -->
<g id="edge4" class="edge">
<title>701&#45;&gt;7018</title>
<path fill="none" stroke="#000000" d="M510.3542,-240.2258C510.355,-240.1572 510.3558,-240.0886 510.3567,-240.02"/>
<polygon fill="#000000" stroke="#000000" points="513.7333,-249.8574 510.3591,-239.8142 506.7338,-249.7695 513.7333,-249.8574"/>
</g>
<!-- 2516 -->
<g id="node10" class="node">
<title>2516</title>
<ellipse fill="none" stroke="#000000" cx="576.5073" cy="-297.9099" rx="28.6953" ry="18"/>
<text text-anchor="middle" x="576.5073" y="-294.2099" font-family="Times,serif" font-size="14.00" fill="#000000">2516</text>
</g>
<!-- 703&#45;&gt;2516 -->
<g id="edge5" class="edge">
<title>703&#45;&gt;2516</title>
<path fill="none" stroke="#000000" d="M564.9157,-295.681C564.9663,-295.6907 565.0168,-295.7004 565.0672,-295.7101"/>
<polygon fill="#000000" stroke="#000000" points="554.7353,-297.2827 565.2182,-295.7392 556.0607,-290.4086 554.7353,-297.2827"/>
</g>
<!-- 9498 -->
<g id="node43" class="node">
<title>9498</title>
<ellipse fill="none" stroke="#000000" cx="531.6098" cy="-326.1581" rx="28.6953" ry="18"/>
<text text-anchor="middle" x="531.6098" y="-322.4581" font-family="Times,serif" font-size="14.00" fill="#000000">9498</text>
</g>
<!-- 703&#45;&gt;9498 -->
<g id="edge6" class="edge">
<title>703&#45;&gt;9498</title>
<path fill="none" stroke="#000000" d="M535.0036,-308.8022C534.9902,-308.8705 534.9768,-308.9388 534.9635,-309.0071"/>
<polygon fill="#000000" stroke="#000000" points="533.4113,-298.7248 534.9234,-309.212 540.2813,-300.0708 533.4113,-298.7248"/>
</g>
<!-- 1221 -->
<g id="node5" class="node">
<title>1221</title>
<ellipse fill="none" stroke="#000000" cx="679.4412" cy="-359.0161" rx="28.6953" ry="18"/>
<text text-anchor="middle" x="679.4412" y="-355.3161" font-family="Times,serif" font-size="14.00" fill="#000000">1221</text>
</g>
<!-- 1239 -->
<g id="node6" class="node">
<title>1239</title>
<ellipse fill="none" stroke="#000000" cx="505.4257" cy="-123.3572" rx="28.6953" ry="18"/>
<text text-anchor="middle" x="505.4257" y="-119.6572" font-family="Times,serif" font-size="14.00" fill="#000000">1239</text>
</g>
<!-- 5511 -->
<g id="node27" class="node">
<title>5511</title>
<ellipse fill="none" stroke="#000000" cx="485.4509" cy="-114.2053" rx="28.6953" ry="18"/>
<text text-anchor="middle" x="485.4509" y="-110.5053" font-family="Times,serif" font-size="14.00" fill="#000000">5511</text>
</g>
<!-- 1239&#45;&gt;5511 -->
<g id="edge7" class="edge">
<title>1239&#45;&gt;5511</title>
<path fill="none" stroke="#000000" d="M485.5082,-114.2315C485.4988,-114.2272 485.4905,-114.2234 485.4833,-114.2201"/>
<polygon fill="#000000" stroke="#000000" points="496.0294,-115.2232 485.4654,-114.2119 493.093,-121.5902 496.0294,-115.2232"/>
</g>
<!-- 17676 -->
<g id="node52" class="node">
<title>17676</title>
<ellipse fill="none" stroke="#000000" cx="512.9765" cy="-92.9978" rx="32.4942" ry="18"/>
<text text-anchor="middle" x="512.9765" y="-89.2978" font-family="Times,serif" font-size="14.00" fill="#000000">17676</text>
</g>
<!-- 1239&#45;&gt;17676 -->
<g id="edge8" class="edge">
<title>1239&#45;&gt;17676</title>
<path fill="none" stroke="#000000" d="M509.9053,-105.3461C509.918,-105.2951 509.9307,-105.244 509.9434,-105.1931"/>
<polygon fill="#000000" stroke="#000000" points="510.9596,-115.5912 509.9814,-105.0402 504.1664,-113.8984 510.9596,-115.5912"/>
</g>
<!-- 1273 -->
<g id="node7" class="node">
<title>1273</title>
<ellipse fill="none" stroke="#000000" cx="507.1514" cy="-156.2305" rx="28.6953" ry="18"/>
<text text-anchor="middle" x="507.1514" y="-152.5305" font-family="Times,serif" font-size="14.00" fill="#000000">1273</text>
</g>
<!-- 1273&#45;&gt;1239 -->
<g id="edge9" class="edge">
<title>1273&#45;&gt;1239</title>
<path fill="none" stroke="#000000" d="M506.1877,-137.8716C506.1846,-137.8128 506.1815,-137.754 506.1784,-137.6952"/>
<polygon fill="#000000" stroke="#000000" points="510.194,-147.3199 506.1692,-137.519 503.2036,-147.6907 510.194,-147.3199"/>
</g>
<!-- 6461 -->
<g id="node30" class="node">
<title>6461</title>
<ellipse fill="none" stroke="#000000" cx="440.1107" cy="-253.6688" rx="28.6953" ry="18"/>
<text text-anchor="middle" x="440.1107" y="-249.9688" font-family="Times,serif" font-size="14.00" fill="#000000">6461</text>
</g>
<!-- 1299&#45;&gt;6461 -->
<g id="edge10" class="edge">
<title>1299&#45;&gt;6461</title>
<path fill="none" stroke="#000000" d="M435.8191,-253.2559C435.9006,-253.2637 435.9811,-253.2715 436.0608,-253.2791"/>
<polygon fill="#000000" stroke="#000000" points="426.0063,-255.8243 436.2969,-253.3018 426.6793,-248.8565 426.0063,-255.8243"/>
</g>
<!-- 2497 -->
<g id="node9" class="node">
<title>2497</title>
<ellipse fill="none" stroke="#000000" cx="474.3644" cy="-256.3128" rx="28.6953" ry="18"/>
<text text-anchor="middle" x="474.3644" y="-252.6128" font-family="Times,serif" font-size="14.00" fill="#000000">2497</text>
</g>
<!-- 2497&#45;&gt;701 -->
<g id="edge11" class="edge">
<title>2497&#45;&gt;701</title>
<path fill="none" stroke="#000000" d="M502.8951,-258.0538C502.9615,-258.0579 503.0276,-258.0619 503.0934,-258.0659"/>
<polygon fill="#000000" stroke="#000000" points="493.0935,-260.9576 503.2897,-258.0779 493.5232,-253.9705 493.0935,-260.9576"/>
</g>
<!-- 32787 -->
<g id="node59" class="node">
<title>32787</title>
<ellipse fill="none" stroke="#000000" cx="615.8606" cy="-303.5654" rx="32.4942" ry="18"/>
<text text-anchor="middle" x="615.8606" y="-299.8654" font-family="Times,serif" font-size="14.00" fill="#000000">32787</text>
</g>
<!-- 2516&#45;&gt;32787 -->
<g id="edge12" class="edge">
<title>2516&#45;&gt;32787</title>
<path fill="none" stroke="#000000" d="M604.6888,-301.9599C604.7381,-301.967 604.7873,-301.9741 604.8364,-301.9811"/>
<polygon fill="#000000" stroke="#000000" points="594.5852,-304.0384 604.9834,-302.0022 595.585,-297.1095 594.5852,-304.0384"/>
</g>
<!-- 2686 -->
<g id="node11" class="node">
<title>2686</title>
<ellipse fill="none" stroke="#000000" cx="63.4166" cy="-106.6999" rx="28.6953" ry="18"/>
<text text-anchor="middle" x="63.4166" y="-102.9999" font-family="Times,serif" font-size="14.00" fill="#000000">2686</text>
</g>
<!-- 3741 -->
<g id="node22" class="node">
<title>3741</title>
<ellipse fill="none" stroke="#000000" cx="47.0299" cy="-85.1045" rx="28.6953" ry="18"/>
<text text-anchor="middle" x="47.0299" y="-81.4045" font-family="Times,serif" font-size="14.00" fill="#000000">3741</text>
</g>
<!-- 2686&#45;&gt;3741 -->
<g id="edge13" class="edge">
<title>2686&#45;&gt;3741</title>
<path fill="none" stroke="#000000" d="M50.8306,-90.1132C50.7962,-90.0679 50.7619,-90.0228 50.7279,-89.9779"/>
<polygon fill="#000000" stroke="#000000" points="59.4618,-95.6946 50.6261,-89.8437 53.8846,-99.9276 59.4618,-95.6946"/>
</g>
<!-- 2687 -->
<g id="node12" class="node">
<title>2687</title>
<ellipse fill="none" stroke="#000000" cx="78.9424" cy="-132.3681" rx="28.6953" ry="18"/>
<text text-anchor="middle" x="78.9424" y="-128.6681" font-family="Times,serif" font-size="14.00" fill="#000000">2687</text>
</g>
<!-- 2687&#45;&gt;2686 -->
<g id="edge14" class="edge">
<title>2687&#45;&gt;2686</title>
<path fill="none" stroke="#000000" d="M68.6729,-115.39C68.6278,-115.3154 68.5828,-115.2411 68.5379,-115.1669"/>
<polygon fill="#000000" stroke="#000000" points="76.5762,-121.6901 68.4038,-114.9451 70.5862,-125.3143 76.5762,-121.6901"/>
</g>
<!-- 9505 -->
<g id="node44" class="node">
<title>9505</title>
<ellipse fill="none" stroke="#000000" cx="57.433" cy="-138.7937" rx="28.6953" ry="18"/>
<text text-anchor="middle" x="57.433" y="-135.0937" font-family="Times,serif" font-size="14.00" fill="#000000">9505</text>
</g>
<!-- 2687&#45;&gt;9505 -->
<g id="edge15" class="edge">
<title>2687&#45;&gt;9505</title>
<path fill="none" stroke="#000000" d="M57.4947,-138.7753C57.4845,-138.7783 57.4756,-138.781 57.4679,-138.7833"/>
<polygon fill="#000000" stroke="#000000" points="66.0181,-132.5372 57.4486,-138.7891 68.0464,-139.2457 66.0181,-132.5372"/>
</g>
<!-- 2764 -->
<g id="node13" class="node">
<title>2764</title>
<ellipse fill="none" stroke="#000000" cx="655.4329" cy="-310.2707" rx="28.6953" ry="18"/>
<text text-anchor="middle" x="655.4329" y="-306.5707" font-family="Times,serif" font-size="14.00" fill="#000000">2764</text>
</g>
<!-- 7545 -->
<g id="node39" class="node">
<title>7545</title>
<ellipse fill="none" stroke="#000000" cx="690.1595" cy="-292.8036" rx="28.6953" ry="18"/>
<text text-anchor="middle" x="690.1595" y="-289.1036" font-family="Times,serif" font-size="14.00" fill="#000000">7545</text>
</g>
<!-- 2764&#45;&gt;7545 -->
<g id="edge16" class="edge">
<title>2764&#45;&gt;7545</title>
<path fill="none" stroke="#000000" d="M678.0138,-298.9127C678.0656,-298.8867 678.1174,-298.8606 678.169,-298.8346"/>
<polygon fill="#000000" stroke="#000000" points="670.9635,-306.3804 678.3239,-298.7568 667.8159,-300.1265 670.9635,-306.3804"/>
</g>
<!-- 38333 -->
<g id="node61" class="node">
<title>38333</title>
<ellipse fill="none" stroke="#000000" cx="669.2484" cy="-337.348" rx="32.4942" ry="18"/>
<text text-anchor="middle" x="669.2484" y="-333.648" font-family="Times,serif" font-size="14.00" fill="#000000">38333</text>
</g>
<!-- 2764&#45;&gt;38333 -->
<g id="edge17" class="edge">
<title>2764&#45;&gt;38333</title>
<path fill="none" stroke="#000000" d="M664.2607,-327.5725C664.303,-327.6554 664.3452,-327.7381 664.3873,-327.8206"/>
<polygon fill="#000000" stroke="#000000" points="656.8486,-320.7509 664.5132,-328.0674 663.0842,-317.5681 656.8486,-320.7509"/>
</g>
<!-- 38561 -->
<g id="node62" class="node">
<title>38561</title>
<ellipse fill="none" stroke="#000000" cx="643.4017" cy="-328.7622" rx="32.4942" ry="18"/>
<text text-anchor="middle" x="643.4017" y="-325.0622" font-family="Times,serif" font-size="14.00" fill="#000000">38561</text>
</g>
<!-- 2764&#45;&gt;38561 -->
<g id="edge18" class="edge">
<title>2764&#45;&gt;38561</title>
<path fill="none" stroke="#000000" d="M644.512,-327.0557C644.4261,-327.1878 644.3443,-327.3135 644.267,-327.4324"/>
<polygon fill="#000000" stroke="#000000" points="646.2194,-318.014 643.6991,-328.3051 652.0869,-321.8319 646.2194,-318.014"/>
</g>
<!-- 2828 -->
<g id="node14" class="node">
<title>2828</title>
<ellipse fill="none" stroke="#000000" cx="482.4432" cy="-343.5379" rx="28.6953" ry="18"/>
<text text-anchor="middle" x="482.4432" y="-339.8379" font-family="Times,serif" font-size="14.00" fill="#000000">2828</text>
</g>
<!-- 2914 -->
<g id="node15" class="node">
<title>2914</title>
<ellipse fill="none" stroke="#000000" cx="222.233" cy="-216.7373" rx="28.6953" ry="18"/>
<text text-anchor="middle" x="222.233" y="-213.0373" font-family="Times,serif" font-size="14.00" fill="#000000">2914</text>
</g>
<!-- 6453 -->
<g id="node29" class="node">
<title>6453</title>
<ellipse fill="none" stroke="#000000" cx="254.5642" cy="-221.3413" rx="28.6953" ry="18"/>
<text text-anchor="middle" x="254.5642" y="-217.6413" font-family="Times,serif" font-size="14.00" fill="#000000">6453</text>
</g>
<!-- 2914&#45;&gt;6453 -->
<g id="edge19" class="edge">
<title>2914&#45;&gt;6453</title>
<path fill="none" stroke="#000000" d="M250.3375,-220.7394C250.4177,-220.7508 250.4971,-220.7621 250.5755,-220.7733"/>
<polygon fill="#000000" stroke="#000000" points="240.4131,-222.858 250.808,-220.8064 241.4026,-215.9279 240.4131,-222.858"/>
</g>
<!-- 3257 -->
<g id="node16" class="node">
<title>3257</title>
<ellipse fill="none" stroke="#000000" cx="285.5861" cy="-227.9913" rx="28.6953" ry="18"/>
<text text-anchor="middle" x="285.5861" y="-224.2913" font-family="Times,serif" font-size="14.00" fill="#000000">3257</text>
</g>
<!-- 3491 -->
<g id="node19" class="node">
<title>3491</title>
<ellipse fill="none" stroke="#000000" cx="316.0181" cy="-235.0208" rx="28.6953" ry="18"/>
<text text-anchor="middle" x="316.0181" y="-231.3208" font-family="Times,serif" font-size="14.00" fill="#000000">3491</text>
</g>
<!-- 3257&#45;&gt;3491 -->
<g id="edge20" class="edge">
<title>3257&#45;&gt;3491</title>
<path fill="none" stroke="#000000" d="M312.7614,-234.2685C312.8239,-234.283 312.8857,-234.2973 312.9468,-234.3114"/>
<polygon fill="#000000" stroke="#000000" points="302.595,-235.5086 313.1277,-234.3532 304.1733,-228.6881 302.595,-235.5086"/>
</g>
<!-- 3320 -->
<g id="node17" class="node">
<title>3320</title>
<ellipse fill="none" stroke="#000000" cx="509.1459" cy="-188.656" rx="28.6953" ry="18"/>
<text text-anchor="middle" x="509.1459" y="-184.956" font-family="Times,serif" font-size="14.00" fill="#000000">3320</text>
</g>
<!-- 3320&#45;&gt;1273 -->
<g id="edge21" class="edge">
<title>3320&#45;&gt;1273</title>
<path fill="none" stroke="#000000" d="M508.032,-170.5472C508.0285,-170.4891 508.0249,-170.4311 508.0213,-170.3732"/>
<polygon fill="#000000" stroke="#000000" points="512.1233,-179.9638 508.0106,-170.1994 505.1365,-180.3973 512.1233,-179.9638"/>
</g>
<!-- 3356 -->
<g id="node18" class="node">
<title>3356</title>
<ellipse fill="none" stroke="#000000" cx="141.6055" cy="-249.5948" rx="28.6953" ry="18"/>
<text text-anchor="middle" x="141.6055" y="-245.8948" font-family="Times,serif" font-size="14.00" fill="#000000">3356</text>
</g>
<!-- 3549 -->
<g id="node20" class="node">
<title>3549</title>
<ellipse fill="none" stroke="#000000" cx="153.1783" cy="-213.6025" rx="28.6953" ry="18"/>
<text text-anchor="middle" x="153.1783" y="-209.9025" font-family="Times,serif" font-size="14.00" fill="#000000">3549</text>
</g>
<!-- 3356&#45;&gt;3549 -->
<g id="edge22" class="edge">
<title>3356&#45;&gt;3549</title>
<path fill="none" stroke="#000000" d="M147.3919,-231.5986C147.4145,-231.5284 147.4371,-231.4581 147.4597,-231.3878"/>
<polygon fill="#000000" stroke="#000000" points="147.7955,-241.7696 147.5275,-231.1769 141.1313,-239.6247 147.7955,-241.7696"/>
</g>
<!-- 3491&#45;&gt;174 -->
<g id="edge23" class="edge">
<title>3491&#45;&gt;174</title>
<path fill="none" stroke="#000000" d="M342.6711,-241.6884C342.7324,-241.7037 342.793,-241.7189 342.8529,-241.7339"/>
<polygon fill="#000000" stroke="#000000" points="332.4783,-242.7427 343.0304,-241.7783 334.18,-235.9519 332.4783,-242.7427"/>
</g>
<!-- 6762 -->
<g id="node32" class="node">
<title>6762</title>
<ellipse fill="none" stroke="#000000" cx="188.5767" cy="-213.6405" rx="28.6953" ry="18"/>
<text text-anchor="middle" x="188.5767" y="-209.9405" font-family="Times,serif" font-size="14.00" fill="#000000">6762</text>
</g>
<!-- 3549&#45;&gt;6762 -->
<g id="edge24" class="edge">
<title>3549&#45;&gt;6762</title>
<path fill="none" stroke="#000000" d="M182.0841,-213.6336C182.1441,-213.6336 182.2039,-213.6337 182.2635,-213.6338"/>
<polygon fill="#000000" stroke="#000000" points="172.4353,-217.1176 182.4411,-213.634 172.4468,-210.1176 172.4353,-217.1176"/>
</g>
<!-- 30070 -->
<g id="node58" class="node">
<title>30070</title>
<ellipse fill="none" stroke="#000000" cx="131.7829" cy="-179.6118" rx="32.4942" ry="18"/>
<text text-anchor="middle" x="131.7829" y="-175.9118" font-family="Times,serif" font-size="14.00" fill="#000000">30070</text>
</g>
<!-- 3549&#45;&gt;30070 -->
<g id="edge25" class="edge">
<title>3549&#45;&gt;30070</title>
<path fill="none" stroke="#000000" d="M142.4806,-196.6071C142.4388,-196.5408 142.397,-196.4744 142.3552,-196.408"/>
<polygon fill="#000000" stroke="#000000" points="150.5212,-202.8074 142.2299,-196.2088 144.5966,-206.5377 150.5212,-202.8074"/>
</g>
<!-- 3597 -->
<g id="node21" class="node">
<title>3597</title>
<ellipse fill="none" stroke="#000000" cx="133.1438" cy="-361.4704" rx="28.6953" ry="18"/>
<text text-anchor="middle" x="133.1438" y="-357.7704" font-family="Times,serif" font-size="14.00" fill="#000000">3597</text>
</g>
<!-- 37179 -->
<g id="node60" class="node">
<title>37179</title>
<ellipse fill="none" stroke="#000000" cx="32.4971" cy="-67.2106" rx="32.4942" ry="18"/>
<text text-anchor="middle" x="32.4971" y="-63.5106" font-family="Times,serif" font-size="14.00" fill="#000000">37179</text>
</g>
<!-- 3741&#45;&gt;37179 -->
<g id="edge26" class="edge">
<title>3741&#45;&gt;37179</title>
<path fill="none" stroke="#000000" d="M33.8383,-68.862C33.7345,-68.7342 33.6357,-68.6126 33.5423,-68.4975"/>
<polygon fill="#000000" stroke="#000000" points="41.878,-73.2089 32.8564,-67.653 36.4442,-77.6222 41.878,-73.2089"/>
</g>
<!-- 4635 -->
<g id="node23" class="node">
<title>4635</title>
<ellipse fill="none" stroke="#000000" cx="693.7292" cy="-310.9414" rx="28.6953" ry="18"/>
<text text-anchor="middle" x="693.7292" y="-307.2414" font-family="Times,serif" font-size="14.00" fill="#000000">4635</text>
</g>
<!-- 4637 -->
<g id="node24" class="node">
<title>4637</title>
<ellipse fill="none" stroke="#000000" cx="503.3748" cy="-332.155" rx="28.6953" ry="18"/>
<text text-anchor="middle" x="503.3748" y="-328.455" font-family="Times,serif" font-size="14.00" fill="#000000">4637</text>
</g>
<!-- 4637&#45;&gt;2828 -->
<g id="edge27" class="edge">
<title>4637&#45;&gt;2828</title>
<path fill="none" stroke="#000000" d="M482.5033,-343.5053C482.4934,-343.5106 482.4847,-343.5154 482.4772,-343.5194"/>
<polygon fill="#000000" stroke="#000000" points="489.5684,-335.6512 482.4584,-343.5297 492.9296,-341.8047 489.5684,-335.6512"/>
</g>
<!-- 4739 -->
<g id="node25" class="node">
<title>4739</title>
<ellipse fill="none" stroke="#000000" cx="711.7776" cy="-266.5092" rx="28.6953" ry="18"/>
<text text-anchor="middle" x="711.7776" y="-262.8092" font-family="Times,serif" font-size="14.00" fill="#000000">4739</text>
</g>
<!-- 38880 -->
<g id="node63" class="node">
<title>38880</title>
<ellipse fill="none" stroke="#000000" cx="731.961" cy="-242.0574" rx="32.4942" ry="18"/>
<text text-anchor="middle" x="731.961" y="-238.3574" font-family="Times,serif" font-size="14.00" fill="#000000">38880</text>
</g>
<!-- 4739&#45;&gt;38880 -->
<g id="edge28" class="edge">
<title>4739&#45;&gt;38880</title>
<path fill="none" stroke="#000000" d="M725.1278,-250.3356C725.1865,-250.2646 725.245,-250.1937 725.3033,-250.1231"/>
<polygon fill="#000000" stroke="#000000" points="721.81,-259.8532 725.4777,-249.9118 716.411,-255.3962 721.81,-259.8532"/>
</g>
<!-- 4755 -->
<g id="node26" class="node">
<title>4755</title>
<ellipse fill="none" stroke="#000000" cx="549.633" cy="-382.7572" rx="28.6953" ry="18"/>
<text text-anchor="middle" x="549.633" y="-379.0572" font-family="Times,serif" font-size="14.00" fill="#000000">4755</text>
</g>
<!-- 9583 -->
<g id="node45" class="node">
<title>9583</title>
<ellipse fill="none" stroke="#000000" cx="553.4087" cy="-406.0992" rx="28.6953" ry="18"/>
<text text-anchor="middle" x="553.4087" y="-402.3992" font-family="Times,serif" font-size="14.00" fill="#000000">9583</text>
</g>
<!-- 4755&#45;&gt;9583 -->
<g id="edge29" class="edge">
<title>4755&#45;&gt;9583</title>
<path fill="none" stroke="#000000" d="M552.533,-400.6854C552.5409,-400.7344 552.5488,-400.7832 552.5567,-400.8317"/>
<polygon fill="#000000" stroke="#000000" points="547.5225,-391.6658 552.5801,-400.9767 554.4327,-390.5441 547.5225,-391.6658"/>
</g>
<!-- 5692 -->
<g id="node28" class="node">
<title>5692</title>
<ellipse fill="none" stroke="#000000" cx="103.7575" cy="-369.7868" rx="28.6953" ry="18"/>
<text text-anchor="middle" x="103.7575" y="-366.0868" font-family="Times,serif" font-size="14.00" fill="#000000">5692</text>
</g>
<!-- 5692&#45;&gt;3597 -->
<g id="edge30" class="edge">
<title>5692&#45;&gt;3597</title>
<path fill="none" stroke="#000000" d="M129.9989,-362.3604C130.0593,-362.3433 130.119,-362.3264 130.178,-362.3097"/>
<polygon fill="#000000" stroke="#000000" points="121.6849,-368.3552 130.3527,-362.2603 119.7759,-361.6195 121.6849,-368.3552"/>
</g>
<!-- 10834 -->
<g id="node48" class="node">
<title>10834</title>
<ellipse fill="none" stroke="#000000" cx="121.3222" cy="-325.376" rx="32.4942" ry="18"/>
<text text-anchor="middle" x="121.3222" y="-321.676" font-family="Times,serif" font-size="14.00" fill="#000000">10834</text>
</g>
<!-- 5692&#45;&gt;10834 -->
<g id="edge31" class="edge">
<title>5692&#45;&gt;10834</title>
<path fill="none" stroke="#000000" d="M110.6995,-352.2345C110.7367,-352.1405 110.7739,-352.0465 110.8111,-351.9523"/>
<polygon fill="#000000" stroke="#000000" points="113.8923,-353.6783 114.3155,-343.0919 107.3829,-351.1037 113.8923,-353.6783"/>
</g>
<!-- 11008 -->
<g id="node49" class="node">
<title>11008</title>
<ellipse fill="none" stroke="#000000" cx="118.7839" cy="-380.4703" rx="32.4942" ry="18"/>
<text text-anchor="middle" x="118.7839" y="-376.7703" font-family="Times,serif" font-size="14.00" fill="#000000">11008</text>
</g>
<!-- 5692&#45;&gt;11008 -->
<g id="edge32" class="edge">
<title>5692&#45;&gt;11008</title>
<path fill="none" stroke="#000000" d="M118.6151,-380.3503C118.6427,-380.3699 118.667,-380.3872 118.6879,-380.4021"/>
<polygon fill="#000000" stroke="#000000" points="108.5575,-377.4922 118.7408,-380.4397 112.6183,-371.7851 108.5575,-377.4922"/>
</g>
<!-- 27865 -->
<g id="node56" class="node">
<title>27865</title>
<ellipse fill="none" stroke="#000000" cx="105.8288" cy="-401.6509" rx="32.4942" ry="18"/>
<text text-anchor="middle" x="105.8288" y="-397.9509" font-family="Times,serif" font-size="14.00" fill="#000000">27865</text>
</g>
<!-- 5692&#45;&gt;27865 -->
<g id="edge33" class="edge">
<title>5692&#45;&gt;27865</title>
<path fill="none" stroke="#000000" d="M104.9384,-387.9527C104.942,-388.0086 104.9456,-388.0645 104.9492,-388.1203"/>
<polygon fill="#000000" stroke="#000000" points="100.8132,-378.5377 104.9601,-388.2877 107.7985,-378.0797 100.8132,-378.5377"/>
</g>
<!-- 28065 -->
<g id="node57" class="node">
<title>28065</title>
<ellipse fill="none" stroke="#000000" cx="123.1601" cy="-399.364" rx="32.4942" ry="18"/>
<text text-anchor="middle" x="123.1601" y="-395.664" font-family="Times,serif" font-size="14.00" fill="#000000">28065</text>
</g>
<!-- 5692&#45;&gt;28065 -->
<g id="edge34" class="edge">
<title>5692&#45;&gt;28065</title>
<path fill="none" stroke="#000000" d="M114.8191,-386.649C114.8531,-386.7008 114.8871,-386.7527 114.9211,-386.8045"/>
<polygon fill="#000000" stroke="#000000" points="106.6087,-380.5182 115.023,-386.9599 112.4623,-376.6769 106.6087,-380.5182"/>
</g>
<!-- 52317 -->
<g id="node64" class="node">
<title>52317</title>
<ellipse fill="none" stroke="#000000" cx="90.4803" cy="-400.1416" rx="32.4942" ry="18"/>
<text text-anchor="middle" x="90.4803" y="-396.4416" font-family="Times,serif" font-size="14.00" fill="#000000">52317</text>
</g>
<!-- 5692&#45;&gt;52317 -->
<g id="edge35" class="edge">
<title>5692&#45;&gt;52317</title>
<path fill="none" stroke="#000000" d="M96.0341,-387.4443C96.0113,-387.4965 95.9885,-387.5486 95.9657,-387.6007"/>
<polygon fill="#000000" stroke="#000000" points="96.7015,-377.1906 95.8974,-387.7568 103.1152,-379.9982 96.7015,-377.1906"/>
</g>
<!-- 52375 -->
<g id="node65" class="node">
<title>52375</title>
<ellipse fill="none" stroke="#000000" cx="77.3378" cy="-348.7625" rx="32.4942" ry="18"/>
<text text-anchor="middle" x="77.3378" y="-345.0625" font-family="Times,serif" font-size="14.00" fill="#000000">52375</text>
</g>
<!-- 5692&#45;&gt;52375 -->
<g id="edge36" class="edge">
<title>5692&#45;&gt;52375</title>
<path fill="none" stroke="#000000" d="M85.9886,-355.6467C85.9139,-355.5872 85.8395,-355.528 85.7652,-355.4689"/>
<polygon fill="#000000" stroke="#000000" points="95.5487,-358.7815 85.5433,-355.2923 91.189,-364.2594 95.5487,-358.7815"/>
</g>
<!-- 52376 -->
<g id="node66" class="node">
<title>52376</title>
<ellipse fill="none" stroke="#000000" cx="85.1328" cy="-368.4089" rx="32.4942" ry="18"/>
<text text-anchor="middle" x="85.1328" y="-364.7089" font-family="Times,serif" font-size="14.00" fill="#000000">52376</text>
</g>
<!-- 5692&#45;&gt;52376 -->
<g id="edge37" class="edge">
<title>5692&#45;&gt;52376</title>
<path fill="none" stroke="#000000" d="M85.1862,-368.4129C85.1774,-368.4122 85.1697,-368.4117 85.163,-368.4112"/>
<polygon fill="#000000" stroke="#000000" points="95.3967,-365.7122 85.1463,-368.4099 94.8417,-372.6932 95.3967,-365.7122"/>
</g>
<!-- 52380 -->
<g id="node67" class="node">
<title>52380</title>
<ellipse fill="none" stroke="#000000" cx="137.3734" cy="-381.1964" rx="32.4942" ry="18"/>
<text text-anchor="middle" x="137.3734" y="-377.4964" font-family="Times,serif" font-size="14.00" fill="#000000">52380</text>
</g>
<!-- 5692&#45;&gt;52380 -->
<g id="edge38" class="edge">
<title>5692&#45;&gt;52380</title>
<path fill="none" stroke="#000000" d="M129.2359,-378.4345C129.3092,-378.4593 129.3822,-378.4841 129.4548,-378.5087"/>
<polygon fill="#000000" stroke="#000000" points="119.0762,-378.6798 129.6718,-378.5824 121.3281,-372.051 119.0762,-378.6798"/>
</g>
<!-- 52413 -->
<g id="node68" class="node">
<title>52413</title>
<ellipse fill="none" stroke="#000000" cx="99.0298" cy="-342.0243" rx="32.4942" ry="18"/>
<text text-anchor="middle" x="99.0298" y="-338.3243" font-family="Times,serif" font-size="14.00" fill="#000000">52413</text>
</g>
<!-- 5692&#45;&gt;52413 -->
<g id="edge39" class="edge">
<title>5692&#45;&gt;52413</title>
<path fill="none" stroke="#000000" d="M100.6833,-351.7343C100.6692,-351.6514 100.6552,-351.5688 100.6411,-351.4864"/>
<polygon fill="#000000" stroke="#000000" points="105.7316,-360.5093 100.5992,-351.2399 98.8309,-361.6868 105.7316,-360.5093"/>
</g>
<!-- 52431 -->
<g id="node69" class="node">
<title>52431</title>
<ellipse fill="none" stroke="#000000" cx="68.5529" cy="-369.3555" rx="32.4942" ry="18"/>
<text text-anchor="middle" x="68.5529" y="-365.6555" font-family="Times,serif" font-size="14.00" fill="#000000">52431</text>
</g>
<!-- 5692&#45;&gt;52431 -->
<g id="edge40" class="edge">
<title>5692&#45;&gt;52431</title>
<path fill="none" stroke="#000000" d="M75.01,-369.4346C74.9502,-369.4339 74.8907,-369.4332 74.8316,-369.4325"/>
<polygon fill="#000000" stroke="#000000" points="84.699,-366.0586 74.6549,-369.4303 84.6093,-373.0581 84.699,-366.0586"/>
</g>
<!-- 262230 -->
<g id="node70" class="node">
<title>262230</title>
<ellipse fill="none" stroke="#000000" cx="75.2307" cy="-388.6366" rx="37.0935" ry="18"/>
<text text-anchor="middle" x="75.2307" y="-384.9366" font-family="Times,serif" font-size="14.00" fill="#000000">262230</text>
</g>
<!-- 5692&#45;&gt;262230 -->
<g id="edge41" class="edge">
<title>5692&#45;&gt;262230</title>
<path fill="none" stroke="#000000" d="M83.9447,-382.8786C83.8686,-382.9289 83.7928,-382.979 83.7173,-383.0289"/>
<polygon fill="#000000" stroke="#000000" points="89.905,-374.7433 83.4914,-383.1781 93.7653,-380.5839 89.905,-374.7433"/>
</g>
<!-- 264608 -->
<g id="node71" class="node">
<title>264608</title>
<ellipse fill="none" stroke="#000000" cx="116.3704" cy="-352.478" rx="37.0935" ry="18"/>
<text text-anchor="middle" x="116.3704" y="-348.778" font-family="Times,serif" font-size="14.00" fill="#000000">264608</text>
</g>
<!-- 5692&#45;&gt;264608 -->
<g id="edge42" class="edge">
<title>5692&#45;&gt;264608</title>
<path fill="none" stroke="#000000" d="M115.8284,-353.2217C115.9146,-353.1034 115.9916,-352.9977 116.0586,-352.9058"/>
<polygon fill="#000000" stroke="#000000" points="113.167,-362.8166 116.2287,-352.6724 107.5092,-358.6932 113.167,-362.8166"/>
</g>
<!-- 6453&#45;&gt;3257 -->
<g id="edge43" class="edge">
<title>6453&#45;&gt;3257</title>
<path fill="none" stroke="#000000" d="M281.7822,-227.1759C281.8547,-227.1914 281.9264,-227.2068 281.9972,-227.222"/>
<polygon fill="#000000" stroke="#000000" points="271.6943,-228.5895 282.2072,-227.267 273.1641,-221.745 271.6943,-228.5895"/>
</g>
<!-- 6461&#45;&gt;2497 -->
<g id="edge44" class="edge">
<title>6461&#45;&gt;2497</title>
<path fill="none" stroke="#000000" d="M468.7081,-255.8762C468.7609,-255.8803 468.8135,-255.8843 468.8657,-255.8884"/>
<polygon fill="#000000" stroke="#000000" points="458.7799,-258.6145 469.0217,-255.9004 459.3228,-251.6353 458.7799,-258.6145"/>
</g>
<!-- 6695 -->
<g id="node31" class="node">
<title>6695</title>
<ellipse fill="none" stroke="#000000" cx="716.8942" cy="-224.4495" rx="28.6953" ry="18"/>
<text text-anchor="middle" x="716.8942" y="-220.7495" font-family="Times,serif" font-size="14.00" fill="#000000">6695</text>
</g>
<!-- 6762&#45;&gt;2914 -->
<g id="edge45" class="edge">
<title>6762&#45;&gt;2914</title>
<path fill="none" stroke="#000000" d="M216.9742,-216.2534C217.0235,-216.258 217.0726,-216.2625 217.1214,-216.267"/>
<polygon fill="#000000" stroke="#000000" points="206.9861,-218.8432 217.2669,-216.2803 207.6318,-211.8726 206.9861,-218.8432"/>
</g>
<!-- 6904 -->
<g id="node33" class="node">
<title>6904</title>
<ellipse fill="none" stroke="#000000" cx="103.9495" cy="-154.7921" rx="28.6953" ry="18"/>
<text text-anchor="middle" x="103.9495" y="-151.0921" font-family="Times,serif" font-size="14.00" fill="#000000">6904</text>
</g>
<!-- 6904&#45;&gt;2687 -->
<g id="edge46" class="edge">
<title>6904&#45;&gt;2687</title>
<path fill="none" stroke="#000000" d="M87.4086,-139.9599C87.336,-139.8947 87.2635,-139.8297 87.1913,-139.7649"/>
<polygon fill="#000000" stroke="#000000" points="96.7582,-143.6423 86.9752,-139.5712 92.0841,-148.8545 96.7582,-143.6423"/>
</g>
<!-- 6939 -->
<g id="node34" class="node">
<title>6939</title>
<ellipse fill="none" stroke="#000000" cx="517.2656" cy="-65.8868" rx="28.6953" ry="18"/>
<text text-anchor="middle" x="517.2656" y="-62.1868" font-family="Times,serif" font-size="14.00" fill="#000000">6939</text>
</g>
<!-- 12266 -->
<g id="node50" class="node">
<title>12266</title>
<ellipse fill="none" stroke="#000000" cx="522.4267" cy="-40.3526" rx="32.4942" ry="18"/>
<text text-anchor="middle" x="522.4267" y="-36.6526" font-family="Times,serif" font-size="14.00" fill="#000000">12266</text>
</g>
<!-- 6939&#45;&gt;12266 -->
<g id="edge47" class="edge">
<title>6939&#45;&gt;12266</title>
<path fill="none" stroke="#000000" d="M520.9062,-47.8756C520.9195,-47.8096 520.9328,-47.7438 520.946,-47.6782"/>
<polygon fill="#000000" stroke="#000000" points="522.4311,-57.979 520.9857,-47.4823 515.5698,-56.5893 522.4311,-57.979"/>
</g>
<!-- 7016 -->
<g id="node35" class="node">
<title>7016</title>
<ellipse fill="none" stroke="#000000" cx="144.8434" cy="-157.3553" rx="28.6953" ry="18"/>
<text text-anchor="middle" x="144.8434" y="-153.6553" font-family="Times,serif" font-size="14.00" fill="#000000">7016</text>
</g>
<!-- 7922 -->
<g id="node40" class="node">
<title>7922</title>
<ellipse fill="none" stroke="#000000" cx="154.2406" cy="-137.484" rx="28.6953" ry="18"/>
<text text-anchor="middle" x="154.2406" y="-133.784" font-family="Times,serif" font-size="14.00" fill="#000000">7922</text>
</g>
<!-- 7016&#45;&gt;7922 -->
<g id="edge48" class="edge">
<title>7016&#45;&gt;7922</title>
<path fill="none" stroke="#000000" d="M153.0883,-139.9206C153.1322,-139.8277 153.1752,-139.737 153.217,-139.6484"/>
<polygon fill="#000000" stroke="#000000" points="152.2266,-149.9268 153.3396,-139.3893 145.8983,-146.9328 152.2266,-149.9268"/>
</g>
<!-- 7018&#45;&gt;3320 -->
<g id="edge49" class="edge">
<title>7018&#45;&gt;3320</title>
<path fill="none" stroke="#000000" d="M509.8055,-204.5252C509.8028,-204.4617 509.8002,-204.3984 509.7976,-204.335"/>
<polygon fill="#000000" stroke="#000000" points="513.707,-213.9893 509.7897,-204.145 506.713,-214.2835 513.707,-213.9893"/>
</g>
<!-- 7473 -->
<g id="node37" class="node">
<title>7473</title>
<ellipse fill="none" stroke="#000000" cx="522.8863" cy="-343.9509" rx="28.6953" ry="18"/>
<text text-anchor="middle" x="522.8863" y="-340.2509" font-family="Times,serif" font-size="14.00" fill="#000000">7473</text>
</g>
<!-- 7474 -->
<g id="node38" class="node">
<title>7474</title>
<ellipse fill="none" stroke="#000000" cx="613.3626" cy="-283.1747" rx="28.6953" ry="18"/>
<text text-anchor="middle" x="613.3626" y="-279.4747" font-family="Times,serif" font-size="14.00" fill="#000000">7474</text>
</g>
<!-- 7545&#45;&gt;4635 -->
<g id="edge50" class="edge">
<title>7545&#45;&gt;4635</title>
<path fill="none" stroke="#000000" d="M693.6891,-310.7377C693.6956,-310.7709 693.7014,-310.8002 693.7064,-310.8255"/>
<polygon fill="#000000" stroke="#000000" points="688.3413,-301.7575 693.7189,-310.8893 695.2097,-300.3971 688.3413,-301.7575"/>
</g>
<!-- 7545&#45;&gt;4739 -->
<g id="edge51" class="edge">
<title>7545&#45;&gt;4739</title>
<path fill="none" stroke="#000000" d="M703.4813,-276.6001C703.5161,-276.5578 703.5508,-276.5156 703.5855,-276.4734"/>
<polygon fill="#000000" stroke="#000000" points="700.0405,-286.2964 703.6894,-276.347 694.6324,-281.8493 700.0405,-286.2964"/>
</g>
<!-- 9942 -->
<g id="node46" class="node">
<title>9942</title>
<ellipse fill="none" stroke="#000000" cx="713.5484" cy="-304.3796" rx="28.6953" ry="18"/>
<text text-anchor="middle" x="713.5484" y="-300.6796" font-family="Times,serif" font-size="14.00" fill="#000000">9942</text>
</g>
<!-- 7545&#45;&gt;9942 -->
<g id="edge52" class="edge">
<title>7545&#45;&gt;9942</title>
<path fill="none" stroke="#000000" d="M712.9703,-304.0935C713.0634,-304.1396 713.1461,-304.1805 713.2178,-304.216"/>
<polygon fill="#000000" stroke="#000000" points="702.8827,-303.0042 713.3991,-304.3057 705.9897,-296.7302 702.8827,-303.0042"/>
</g>
<!-- 9002 -->
<g id="node41" class="node">
<title>9002</title>
<ellipse fill="none" stroke="#000000" cx="756.2725" cy="-245.8308" rx="28.6953" ry="18"/>
<text text-anchor="middle" x="756.2725" y="-242.1308" font-family="Times,serif" font-size="14.00" fill="#000000">9002</text>
</g>
<!-- 9443 -->
<g id="node42" class="node">
<title>9443</title>
<ellipse fill="none" stroke="#000000" cx="741.1573" cy="-217.9521" rx="28.6953" ry="18"/>
<text text-anchor="middle" x="741.1573" y="-214.2521" font-family="Times,serif" font-size="14.00" fill="#000000">9443</text>
</g>
<!-- 9498&#45;&gt;4637 -->
<g id="edge53" class="edge">
<title>9498&#45;&gt;4637</title>
<path fill="none" stroke="#000000" d="M504.0727,-332.0068C503.9603,-332.0307 503.8604,-332.0519 503.7739,-332.0702"/>
<polygon fill="#000000" stroke="#000000" points="512.6086,-326.6119 503.5551,-332.1167 514.0654,-333.4593 512.6086,-326.6119"/>
</g>
<!-- 9498&#45;&gt;7473 -->
<g id="edge54" class="edge">
<title>9498&#45;&gt;7473</title>
<path fill="none" stroke="#000000" d="M523.1019,-343.5111C523.0672,-343.5819 523.0363,-343.6448 523.0096,-343.6994"/>
<polygon fill="#000000" stroke="#000000" points="524.205,-333.3157 522.942,-343.8373 530.4907,-336.3998 524.205,-333.3157"/>
</g>
<!-- 10026 -->
<g id="node47" class="node">
<title>10026</title>
<ellipse fill="none" stroke="#000000" cx="543.709" cy="-355.1611" rx="32.4942" ry="18"/>
<text text-anchor="middle" x="543.709" y="-351.4611" font-family="Times,serif" font-size="14.00" fill="#000000">10026</text>
</g>
<!-- 9498&#45;&gt;10026 -->
<g id="edge55" class="edge">
<title>9498&#45;&gt;10026</title>
<path fill="none" stroke="#000000" d="M538.9271,-343.6984C538.947,-343.7461 538.9669,-343.7938 538.9868,-343.8414"/>
<polygon fill="#000000" stroke="#000000" points="531.9618,-336.1034 539.0463,-343.9841 538.4226,-333.4056 531.9618,-336.1034"/>
</g>
<!-- 10026&#45;&gt;4755 -->
<g id="edge56" class="edge">
<title>10026&#45;&gt;4755</title>
<path fill="none" stroke="#000000" d="M547.5611,-373.1054C547.5788,-373.1878 547.5964,-373.2699 547.614,-373.3518"/>
<polygon fill="#000000" stroke="#000000" points="542.1425,-364.5552 547.6666,-373.5969 548.9866,-363.0838 542.1425,-364.5552"/>
</g>
<!-- 12956 -->
<g id="node51" class="node">
<title>12956</title>
<ellipse fill="none" stroke="#000000" cx="130.7691" cy="-285.6062" rx="32.4942" ry="18"/>
<text text-anchor="middle" x="130.7691" y="-281.9062" font-family="Times,serif" font-size="14.00" fill="#000000">12956</text>
</g>
<!-- 10834&#45;&gt;12956 -->
<g id="edge57" class="edge">
<title>10834&#45;&gt;12956</title>
<path fill="none" stroke="#000000" d="M125.6034,-307.3529C125.6375,-307.209 125.6718,-307.065 125.706,-306.9209"/>
<polygon fill="#000000" stroke="#000000" points="127.5197,-314.4289 126.4258,-303.8906 120.7092,-312.8109 127.5197,-314.4289"/>
</g>
<!-- 22927 -->
<g id="node55" class="node">
<title>22927</title>
<ellipse fill="none" stroke="#000000" cx="143.0425" cy="-317.6133" rx="32.4942" ry="18"/>
<text text-anchor="middle" x="143.0425" y="-313.9133" font-family="Times,serif" font-size="14.00" fill="#000000">22927</text>
</g>
<!-- 10834&#45;&gt;22927 -->
<g id="edge58" class="edge">
<title>10834&#45;&gt;22927</title>
<path fill="none" stroke="#000000" d="M142.9802,-317.6356C142.9905,-317.6319 142.9995,-317.6287 143.0073,-317.6259"/>
<polygon fill="#000000" stroke="#000000" points="134.7964,-324.3131 143.0268,-317.6189 132.4182,-317.7195 134.7964,-324.3131"/>
</g>
<!-- 20454 -->
<g id="node54" class="node">
<title>20454</title>
<ellipse fill="none" stroke="#000000" cx="527.41" cy="-18" rx="32.4942" ry="18"/>
<text text-anchor="middle" x="527.41" y="-14.3" font-family="Times,serif" font-size="14.00" fill="#000000">20454</text>
</g>
<!-- 12266&#45;&gt;20454 -->
<g id="edge59" class="edge">
<title>12266&#45;&gt;20454</title>
<path fill="none" stroke="#000000" d="M526.4492,-22.3098C526.4669,-22.2304 526.4844,-22.1517 526.5018,-22.0738"/>
<polygon fill="#000000" stroke="#000000" points="527.7902,-32.3658 526.5533,-21.8425 520.9579,-30.8403 527.7902,-32.3658"/>
</g>
<!-- 12956&#45;&gt;3356 -->
<g id="edge60" class="edge">
<title>12956&#45;&gt;3356</title>
<path fill="none" stroke="#000000" d="M136.1873,-267.6005C136.2085,-267.5302 136.2296,-267.4598 136.2508,-267.3895"/>
<polygon fill="#000000" stroke="#000000" points="136.7811,-277.7642 136.3143,-267.1785 130.0779,-275.7449 136.7811,-277.7642"/>
</g>
<!-- 17676&#45;&gt;6939 -->
<g id="edge61" class="edge">
<title>17676&#45;&gt;6939</title>
<path fill="none" stroke="#000000" d="M515.8135,-75.0654C515.826,-74.9866 515.8384,-74.908 515.8508,-74.8297"/>
<polygon fill="#000000" stroke="#000000" points="517.7787,-85.0208 515.8879,-74.5955 510.8646,-83.9245 517.7787,-85.0208"/>
</g>
<!-- 18540 -->
<g id="node53" class="node">
<title>18540</title>
<ellipse fill="none" stroke="#000000" cx="116.4304" cy="-191.7906" rx="32.4942" ry="18"/>
<text text-anchor="middle" x="116.4304" y="-188.0906" font-family="Times,serif" font-size="14.00" fill="#000000">18540</text>
</g>
<!-- 30070&#45;&gt;6904 -->
<g id="edge62" class="edge">
<title>30070&#45;&gt;6904</title>
<path fill="none" stroke="#000000" d="M114.631,-164.3171C114.5862,-164.2772 114.5415,-164.2373 114.4969,-164.1975"/>
<polygon fill="#000000" stroke="#000000" points="124.1581,-168.1227 114.3631,-164.0782 119.498,-173.3482 124.1581,-168.1227"/>
</g>
<!-- 30070&#45;&gt;7016 -->
<g id="edge63" class="edge">
<title>30070&#45;&gt;7016</title>
<path fill="none" stroke="#000000" d="M142.0736,-162.0753C142.1242,-161.9891 142.1743,-161.9037 142.224,-161.8191"/>
<polygon fill="#000000" stroke="#000000" points="140.3274,-171.9649 142.3715,-161.5678 134.2898,-168.4209 140.3274,-171.9649"/>
</g>
<!-- 30070&#45;&gt;18540 -->
<g id="edge64" class="edge">
<title>30070&#45;&gt;18540</title>
<path fill="none" stroke="#000000" d="M116.6028,-191.6538C116.5747,-191.6761 116.5499,-191.6958 116.5284,-191.7128"/>
<polygon fill="#000000" stroke="#000000" points="122.1348,-182.7923 116.4744,-191.7557 126.489,-188.2785 122.1348,-182.7923"/>
</g>
<!-- 32787&#45;&gt;2764 -->
<g id="edge65" class="edge">
<title>32787&#45;&gt;2764</title>
<path fill="none" stroke="#000000" d="M647.0406,-308.8487C647.1172,-308.8617 647.1935,-308.8746 647.2695,-308.8875"/>
<polygon fill="#000000" stroke="#000000" points="637.0507,-310.7025 647.4962,-308.9259 638.2227,-303.8008 637.0507,-310.7025"/>
</g>
<!-- 32787&#45;&gt;7474 -->
<g id="edge66" class="edge">
<title>32787&#45;&gt;7474</title>
<path fill="none" stroke="#000000" d="M613.63,-285.3568C613.6197,-285.273 613.6097,-285.1912 613.5999,-285.1114"/>
<polygon fill="#000000" stroke="#000000" points="618.2651,-294.377 613.5713,-284.8781 611.317,-295.2308 618.2651,-294.377"/>
</g>
<!-- 38333&#45;&gt;1221 -->
<g id="edge67" class="edge">
<title>38333&#45;&gt;1221</title>
<path fill="none" stroke="#000000" d="M677.4759,-354.8383C677.5122,-354.9152 677.548,-354.9915 677.5835,-355.067"/>
<polygon fill="#000000" stroke="#000000" points="670.2628,-347.7326 677.689,-355.2912 676.5973,-344.7514 670.2628,-347.7326"/>
</g>
<!-- 38880&#45;&gt;6695 -->
<g id="edge68" class="edge">
<title>38880&#45;&gt;6695</title>
<path fill="none" stroke="#000000" d="M717.8827,-225.6048C717.7276,-225.4234 717.5882,-225.2605 717.4664,-225.1182"/>
<polygon fill="#000000" stroke="#000000" points="726.3174,-230.0778 717.1557,-224.7551 720.9985,-234.6294 726.3174,-230.0778"/>
</g>
<!-- 38880&#45;&gt;9002 -->
<g id="edge69" class="edge">
<title>38880&#45;&gt;9002</title>
<path fill="none" stroke="#000000" d="M756.2027,-245.82C756.2142,-245.8218 756.2243,-245.8233 756.233,-245.8247"/>
<polygon fill="#000000" stroke="#000000" points="745.8225,-247.7149 756.2548,-245.8281 746.9228,-240.7974 745.8225,-247.7149"/>
</g>
<!-- 38880&#45;&gt;9443 -->
<g id="edge70" class="edge">
<title>38880&#45;&gt;9443</title>
<path fill="none" stroke="#000000" d="M738.7411,-224.2855C738.7627,-224.229 738.7841,-224.1728 738.8055,-224.1168"/>
<polygon fill="#000000" stroke="#000000" points="738.5715,-234.5418 738.8693,-223.9494 732.031,-232.0441 738.5715,-234.5418"/>
</g>
</g>
</svg>
