<?xml version="1.0" encoding="UTF-8" standalone="no"?>
<!DOCTYPE svg PUBLIC "-//W3C//DTD SVG 1.1//EN"
 "http://www.w3.org/Graphics/SVG/1.1/DTD/svg11.dtd">
<!-- Generated by graphviz version 2.40.1 (20161225.0304)
 -->
<!-- Title: %3 Pages: 1 -->
<svg width="1781pt" height="1560pt"
 viewBox="0.00 0.00 1781.00 1559.53" xmlns="http://www.w3.org/2000/svg" xmlns:xlink="http://www.w3.org/1999/xlink">
<g id="graph0" class="graph" transform="scale(1 1) rotate(0) translate(4 1555.528)">
<title>%3</title>
<polygon fill="#ffffff" stroke="transparent" points="-4,4 -4,-1555.528 1776.9963,-1555.528 1776.9963,4 -4,4"/>
<!-- 174 -->
<g id="node1" class="node">
<title>174</title>
<ellipse fill="none" stroke="#000000" cx="854.2099" cy="-810" rx="27" ry="18"/>
<text text-anchor="middle" x="854.2099" y="-806.3" font-family="Times,serif" font-size="14.00" fill="#000000">174</text>
</g>
<!-- 209 -->
<g id="node2" class="node">
<title>209</title>
<ellipse fill="none" stroke="#000000" cx="869.1796" cy="-880.4266" rx="27" ry="18"/>
<text text-anchor="middle" x="869.1796" y="-876.7266" font-family="Times,serif" font-size="14.00" fill="#000000">209</text>
</g>
<!-- 174&#45;&gt;209 -->
<g id="edge1" class="edge">
<title>174&#45;&gt;209</title>
<path fill="none" stroke="#000000" d="M858.065,-828.1366C859.6487,-835.5873 861.5184,-844.3837 863.268,-852.615"/>
<polygon fill="#000000" stroke="#000000" points="859.8867,-853.5415 865.3894,-862.5953 866.7337,-852.0861 859.8867,-853.5415"/>
</g>
<!-- 1299 -->
<g id="node8" class="node">
<title>1299</title>
<ellipse fill="none" stroke="#000000" cx="884.1492" cy="-950.8533" rx="28.6953" ry="18"/>
<text text-anchor="middle" x="884.1492" y="-947.1533" font-family="Times,serif" font-size="14.00" fill="#000000">1299</text>
</g>
<!-- 209&#45;&gt;1299 -->
<g id="edge2" class="edge">
<title>209&#45;&gt;1299</title>
<path fill="none" stroke="#000000" d="M873.0346,-898.5632C874.594,-905.8993 876.4306,-914.54 878.1569,-922.6613"/>
<polygon fill="#000000" stroke="#000000" points="874.7525,-923.4796 880.2552,-932.5333 881.5995,-922.0241 874.7525,-923.4796"/>
</g>
<!-- 701 -->
<g id="node3" class="node">
<title>701</title>
<ellipse fill="none" stroke="#000000" cx="929.0582" cy="-1162.1331" rx="27" ry="18"/>
<text text-anchor="middle" x="929.0582" y="-1158.4331" font-family="Times,serif" font-size="14.00" fill="#000000">701</text>
</g>
<!-- 703 -->
<g id="node4" class="node">
<title>703</title>
<ellipse fill="none" stroke="#000000" cx="1029.9202" cy="-1204.6516" rx="27" ry="18"/>
<text text-anchor="middle" x="1029.9202" y="-1200.9516" font-family="Times,serif" font-size="14.00" fill="#000000">703</text>
</g>
<!-- 701&#45;&gt;703 -->
<g id="edge3" class="edge">
<title>701&#45;&gt;703</title>
<path fill="none" stroke="#000000" d="M951.9453,-1171.7812C965.3906,-1177.4491 982.6038,-1184.7053 997.4354,-1190.9576"/>
<polygon fill="#000000" stroke="#000000" points="996.2002,-1194.2352 1006.7745,-1194.8945 998.9193,-1187.7849 996.2002,-1194.2352"/>
</g>
<!-- 7018 -->
<g id="node36" class="node">
<title>7018</title>
<ellipse fill="none" stroke="#000000" cx="504.7146" cy="-1063.9232" rx="28.6953" ry="18"/>
<text text-anchor="middle" x="504.7146" y="-1060.2232" font-family="Times,serif" font-size="14.00" fill="#000000">7018</text>
</g>
<!-- 701&#45;&gt;7018 -->
<g id="edge4" class="edge">
<title>701&#45;&gt;7018</title>
<path fill="none" stroke="#000000" d="M903.4692,-1156.2108C831.3101,-1139.5104 625.98,-1091.9889 541.6048,-1072.4611"/>
<polygon fill="#000000" stroke="#000000" points="542.2286,-1069.013 531.6969,-1070.168 540.6502,-1075.8327 542.2286,-1069.013"/>
</g>
<!-- 2516 -->
<g id="node10" class="node">
<title>2516</title>
<ellipse fill="none" stroke="#000000" cx="1191.4518" cy="-1184.545" rx="28.6953" ry="18"/>
<text text-anchor="middle" x="1191.4518" y="-1180.845" font-family="Times,serif" font-size="14.00" fill="#000000">2516</text>
</g>
<!-- 703&#45;&gt;2516 -->
<g id="edge5" class="edge">
<title>703&#45;&gt;2516</title>
<path fill="none" stroke="#000000" d="M1056.5938,-1201.3314C1082.9657,-1198.0488 1123.5775,-1192.9936 1153.3455,-1189.2883"/>
<polygon fill="#000000" stroke="#000000" points="1153.8904,-1192.7475 1163.3814,-1188.039 1153.0257,-1185.8012 1153.8904,-1192.7475"/>
</g>
<!-- 9498 -->
<g id="node43" class="node">
<title>9498</title>
<ellipse fill="none" stroke="#000000" cx="649.2147" cy="-1270.4269" rx="28.6953" ry="18"/>
<text text-anchor="middle" x="649.2147" y="-1266.7269" font-family="Times,serif" font-size="14.00" fill="#000000">9498</text>
</g>
<!-- 703&#45;&gt;9498 -->
<g id="edge6" class="edge">
<title>703&#45;&gt;9498</title>
<path fill="none" stroke="#000000" d="M1003.7527,-1209.1726C937.7292,-1220.5797 764.1649,-1250.5667 687.0603,-1263.8882"/>
<polygon fill="#000000" stroke="#000000" points="686.1,-1260.5022 676.8419,-1265.6537 687.2918,-1267.4 686.1,-1260.5022"/>
</g>
<!-- 1221 -->
<g id="node5" class="node">
<title>1221</title>
<ellipse fill="none" stroke="#000000" cx="1176.3454" cy="-1533.528" rx="28.6953" ry="18"/>
<text text-anchor="middle" x="1176.3454" y="-1529.828" font-family="Times,serif" font-size="14.00" fill="#000000">1221</text>
</g>
<!-- 1239 -->
<g id="node6" class="node">
<title>1239</title>
<ellipse fill="none" stroke="#000000" cx="329.9669" cy="-1190.8848" rx="28.6953" ry="18"/>
<text text-anchor="middle" x="329.9669" y="-1187.1848" font-family="Times,serif" font-size="14.00" fill="#000000">1239</text>
</g>
<!-- 5511 -->
<g id="node27" class="node">
<title>5511</title>
<ellipse fill="none" stroke="#000000" cx="319.1457" cy="-1291.774" rx="28.6953" ry="18"/>
<text text-anchor="middle" x="319.1457" y="-1288.074" font-family="Times,serif" font-size="14.00" fill="#000000">5511</text>
</g>
<!-- 1239&#45;&gt;5511 -->
<g id="edge7" class="edge">
<title>1239&#45;&gt;5511</title>
<path fill="none" stroke="#000000" d="M328.0323,-1208.9218C326.4112,-1224.0354 324.0683,-1245.8797 322.195,-1263.3442"/>
<polygon fill="#000000" stroke="#000000" points="318.6866,-1263.2368 321.1,-1273.5531 325.6466,-1263.9834 318.6866,-1263.2368"/>
</g>
<!-- 17676 -->
<g id="node52" class="node">
<title>17676</title>
<ellipse fill="none" stroke="#000000" cx="230.6717" cy="-1170" rx="32.4942" ry="18"/>
<text text-anchor="middle" x="230.6717" y="-1166.3" font-family="Times,serif" font-size="14.00" fill="#000000">17676</text>
</g>
<!-- 1239&#45;&gt;17676 -->
<g id="edge8" class="edge">
<title>1239&#45;&gt;17676</title>
<path fill="none" stroke="#000000" d="M302.8341,-1185.178C293.0869,-1183.1278 281.8708,-1180.7687 271.2312,-1178.5309"/>
<polygon fill="#000000" stroke="#000000" points="271.78,-1175.0698 261.2737,-1176.4366 270.3392,-1181.92 271.78,-1175.0698"/>
</g>
<!-- 1273 -->
<g id="node7" class="node">
<title>1273</title>
<ellipse fill="none" stroke="#000000" cx="388.2162" cy="-1148.5643" rx="28.6953" ry="18"/>
<text text-anchor="middle" x="388.2162" y="-1144.8643" font-family="Times,serif" font-size="14.00" fill="#000000">1273</text>
</g>
<!-- 1273&#45;&gt;1239 -->
<g id="edge9" class="edge">
<title>1273&#45;&gt;1239</title>
<path fill="none" stroke="#000000" d="M369.4651,-1162.1877C365.5947,-1164.9998 361.4432,-1168.016 357.3382,-1170.9984"/>
<polygon fill="#000000" stroke="#000000" points="355.1157,-1168.2869 349.0828,-1176.9964 359.2302,-1173.9501 355.1157,-1168.2869"/>
</g>
<!-- 6461 -->
<g id="node30" class="node">
<title>6461</title>
<ellipse fill="none" stroke="#000000" cx="899.1189" cy="-1021.2799" rx="28.6953" ry="18"/>
<text text-anchor="middle" x="899.1189" y="-1017.5799" font-family="Times,serif" font-size="14.00" fill="#000000">6461</text>
</g>
<!-- 1299&#45;&gt;6461 -->
<g id="edge10" class="edge">
<title>1299&#45;&gt;6461</title>
<path fill="none" stroke="#000000" d="M888.0043,-968.9899C889.5636,-976.3259 891.4002,-984.9666 893.1265,-993.088"/>
<polygon fill="#000000" stroke="#000000" points="889.7221,-993.9062 895.2249,-1002.96 896.5692,-992.4508 889.7221,-993.9062"/>
</g>
<!-- 2497 -->
<g id="node9" class="node">
<title>2497</title>
<ellipse fill="none" stroke="#000000" cx="914.0885" cy="-1091.7065" rx="28.6953" ry="18"/>
<text text-anchor="middle" x="914.0885" y="-1088.0065" font-family="Times,serif" font-size="14.00" fill="#000000">2497</text>
</g>
<!-- 2497&#45;&gt;701 -->
<g id="edge11" class="edge">
<title>2497&#45;&gt;701</title>
<path fill="none" stroke="#000000" d="M917.9436,-1109.8431C919.5273,-1117.2938 921.397,-1126.0902 923.1466,-1134.3215"/>
<polygon fill="#000000" stroke="#000000" points="919.7653,-1135.248 925.268,-1144.3018 926.6123,-1133.7926 919.7653,-1135.248"/>
</g>
<!-- 32787 -->
<g id="node59" class="node">
<title>32787</title>
<ellipse fill="none" stroke="#000000" cx="1239.6292" cy="-1238.0514" rx="32.4942" ry="18"/>
<text text-anchor="middle" x="1239.6292" y="-1234.3514" font-family="Times,serif" font-size="14.00" fill="#000000">32787</text>
</g>
<!-- 2516&#45;&gt;32787 -->
<g id="edge12" class="edge">
<title>2516&#45;&gt;32787</title>
<path fill="none" stroke="#000000" d="M1205.646,-1200.3093C1209.5579,-1204.6539 1213.8911,-1209.4664 1218.1174,-1214.1601"/>
<polygon fill="#000000" stroke="#000000" points="1215.7431,-1216.7539 1225.0354,-1221.8434 1220.9451,-1212.07 1215.7431,-1216.7539"/>
</g>
<!-- 2686 -->
<g id="node11" class="node">
<title>2686</title>
<ellipse fill="none" stroke="#000000" cx="169.4493" cy="-1032.4922" rx="28.6953" ry="18"/>
<text text-anchor="middle" x="169.4493" y="-1028.7922" font-family="Times,serif" font-size="14.00" fill="#000000">2686</text>
</g>
<!-- 3741 -->
<g id="node22" class="node">
<title>3741</title>
<ellipse fill="none" stroke="#000000" cx="100.9732" cy="-1054.7415" rx="28.6953" ry="18"/>
<text text-anchor="middle" x="100.9732" y="-1051.0415" font-family="Times,serif" font-size="14.00" fill="#000000">3741</text>
</g>
<!-- 2686&#45;&gt;3741 -->
<g id="edge13" class="edge">
<title>2686&#45;&gt;3741</title>
<path fill="none" stroke="#000000" d="M143.9513,-1040.777C141.4892,-1041.577 138.9625,-1042.398 136.4268,-1043.2219"/>
<polygon fill="#000000" stroke="#000000" points="135.1498,-1039.9566 126.7208,-1046.3755 137.313,-1046.614 135.1498,-1039.9566"/>
</g>
<!-- 2687 -->
<g id="node12" class="node">
<title>2687</title>
<ellipse fill="none" stroke="#000000" cx="220.3703" cy="-944.7268" rx="28.6953" ry="18"/>
<text text-anchor="middle" x="220.3703" y="-941.0268" font-family="Times,serif" font-size="14.00" fill="#000000">2687</text>
</g>
<!-- 2687&#45;&gt;2686 -->
<g id="edge14" class="edge">
<title>2687&#45;&gt;2686</title>
<path fill="none" stroke="#000000" d="M210.5522,-961.6488C203.2029,-974.3158 193.0145,-991.8761 184.6203,-1006.3441"/>
<polygon fill="#000000" stroke="#000000" points="181.4021,-1004.9166 179.4109,-1015.3227 187.4568,-1008.4295 181.4021,-1004.9166"/>
</g>
<!-- 9505 -->
<g id="node44" class="node">
<title>9505</title>
<ellipse fill="none" stroke="#000000" cx="138.1542" cy="-885.2605" rx="28.6953" ry="18"/>
<text text-anchor="middle" x="138.1542" y="-881.5605" font-family="Times,serif" font-size="14.00" fill="#000000">9505</text>
</g>
<!-- 2687&#45;&gt;9505 -->
<g id="edge15" class="edge">
<title>2687&#45;&gt;9505</title>
<path fill="none" stroke="#000000" d="M201.3016,-930.9345C190.6136,-923.204 177.1035,-913.4322 165.3249,-904.9129"/>
<polygon fill="#000000" stroke="#000000" points="167.2734,-902.0026 157.1195,-898.9779 163.1709,-907.6745 167.2734,-902.0026"/>
</g>
<!-- 2764 -->
<g id="node13" class="node">
<title>2764</title>
<ellipse fill="none" stroke="#000000" cx="1335.7678" cy="-1243.5966" rx="28.6953" ry="18"/>
<text text-anchor="middle" x="1335.7678" y="-1239.8966" font-family="Times,serif" font-size="14.00" fill="#000000">2764</text>
</g>
<!-- 7545 -->
<g id="node39" class="node">
<title>7545</title>
<ellipse fill="none" stroke="#000000" cx="1477.7482" cy="-1170" rx="28.6953" ry="18"/>
<text text-anchor="middle" x="1477.7482" y="-1166.3" font-family="Times,serif" font-size="14.00" fill="#000000">7545</text>
</g>
<!-- 2764&#45;&gt;7545 -->
<g id="edge16" class="edge">
<title>2764&#45;&gt;7545</title>
<path fill="none" stroke="#000000" d="M1357.9522,-1232.0972C1381.6728,-1219.8014 1419.484,-1200.2017 1446.2753,-1186.3142"/>
<polygon fill="#000000" stroke="#000000" points="1447.9836,-1189.3711 1455.251,-1181.6616 1444.7621,-1183.1564 1447.9836,-1189.3711"/>
</g>
<!-- 38333 -->
<g id="node61" class="node">
<title>38333</title>
<ellipse fill="none" stroke="#000000" cx="1147.0603" cy="-1467.7527" rx="32.4942" ry="18"/>
<text text-anchor="middle" x="1147.0603" y="-1464.0527" font-family="Times,serif" font-size="14.00" fill="#000000">38333</text>
</g>
<!-- 2764&#45;&gt;38333 -->
<g id="edge17" class="edge">
<title>2764&#45;&gt;38333</title>
<path fill="none" stroke="#000000" d="M1322.1964,-1259.7174C1289.51,-1298.5439 1206.2636,-1397.4282 1167.4987,-1443.475"/>
<polygon fill="#000000" stroke="#000000" points="1164.7806,-1441.2691 1161.0179,-1451.1733 1170.1357,-1445.7773 1164.7806,-1441.2691"/>
</g>
<!-- 38561 -->
<g id="node62" class="node">
<title>38561</title>
<ellipse fill="none" stroke="#000000" cx="1003.9064" cy="-1514.2663" rx="32.4942" ry="18"/>
<text text-anchor="middle" x="1003.9064" y="-1510.5663" font-family="Times,serif" font-size="14.00" fill="#000000">38561</text>
</g>
<!-- 2764&#45;&gt;38561 -->
<g id="edge18" class="edge">
<title>2764&#45;&gt;38561</title>
<path fill="none" stroke="#000000" d="M1317.9255,-1258.149C1262.796,-1303.1132 1094.9885,-1439.9787 1030.0011,-1492.9832"/>
<polygon fill="#000000" stroke="#000000" points="1027.7809,-1490.2774 1022.2437,-1499.3102 1032.2052,-1495.702 1027.7809,-1490.2774"/>
</g>
<!-- 2828 -->
<g id="node14" class="node">
<title>2828</title>
<ellipse fill="none" stroke="#000000" cx="719.4832" cy="-1443.8396" rx="28.6953" ry="18"/>
<text text-anchor="middle" x="719.4832" y="-1440.1396" font-family="Times,serif" font-size="14.00" fill="#000000">2828</text>
</g>
<!-- 2914 -->
<g id="node15" class="node">
<title>2914</title>
<ellipse fill="none" stroke="#000000" cx="794.3314" cy="-528.2935" rx="28.6953" ry="18"/>
<text text-anchor="middle" x="794.3314" y="-524.5935" font-family="Times,serif" font-size="14.00" fill="#000000">2914</text>
</g>
<!-- 6453 -->
<g id="node29" class="node">
<title>6453</title>
<ellipse fill="none" stroke="#000000" cx="809.301" cy="-598.7201" rx="28.6953" ry="18"/>
<text text-anchor="middle" x="809.301" y="-595.0201" font-family="Times,serif" font-size="14.00" fill="#000000">6453</text>
</g>
<!-- 2914&#45;&gt;6453 -->
<g id="edge19" class="edge">
<title>2914&#45;&gt;6453</title>
<path fill="none" stroke="#000000" d="M798.1864,-546.4301C799.7458,-553.7661 801.5824,-562.4068 803.3086,-570.5282"/>
<polygon fill="#000000" stroke="#000000" points="799.9043,-571.3464 805.407,-580.4002 806.7513,-569.891 799.9043,-571.3464"/>
</g>
<!-- 3257 -->
<g id="node16" class="node">
<title>3257</title>
<ellipse fill="none" stroke="#000000" cx="824.2707" cy="-669.1467" rx="28.6953" ry="18"/>
<text text-anchor="middle" x="824.2707" y="-665.4467" font-family="Times,serif" font-size="14.00" fill="#000000">3257</text>
</g>
<!-- 3491 -->
<g id="node19" class="node">
<title>3491</title>
<ellipse fill="none" stroke="#000000" cx="839.2403" cy="-739.5734" rx="28.6953" ry="18"/>
<text text-anchor="middle" x="839.2403" y="-735.8734" font-family="Times,serif" font-size="14.00" fill="#000000">3491</text>
</g>
<!-- 3257&#45;&gt;3491 -->
<g id="edge20" class="edge">
<title>3257&#45;&gt;3491</title>
<path fill="none" stroke="#000000" d="M828.1257,-687.2834C829.685,-694.6194 831.5217,-703.2601 833.2479,-711.3815"/>
<polygon fill="#000000" stroke="#000000" points="829.8436,-712.1997 835.3463,-721.2535 836.6906,-710.7443 829.8436,-712.1997"/>
</g>
<!-- 3320 -->
<g id="node17" class="node">
<title>3320</title>
<ellipse fill="none" stroke="#000000" cx="446.4654" cy="-1106.2438" rx="28.6953" ry="18"/>
<text text-anchor="middle" x="446.4654" y="-1102.5438" font-family="Times,serif" font-size="14.00" fill="#000000">3320</text>
</g>
<!-- 3320&#45;&gt;1273 -->
<g id="edge21" class="edge">
<title>3320&#45;&gt;1273</title>
<path fill="none" stroke="#000000" d="M427.7143,-1119.8672C423.8439,-1122.6792 419.6924,-1125.6955 415.5874,-1128.6779"/>
<polygon fill="#000000" stroke="#000000" points="413.3649,-1125.9664 407.332,-1134.6758 417.4794,-1131.6295 413.3649,-1125.9664"/>
</g>
<!-- 3356 -->
<g id="node18" class="node">
<title>3356</title>
<ellipse fill="none" stroke="#000000" cx="958.9974" cy="-317.0136" rx="28.6953" ry="18"/>
<text text-anchor="middle" x="958.9974" y="-313.3136" font-family="Times,serif" font-size="14.00" fill="#000000">3356</text>
</g>
<!-- 3549 -->
<g id="node20" class="node">
<title>3549</title>
<ellipse fill="none" stroke="#000000" cx="764.3921" cy="-387.4402" rx="28.6953" ry="18"/>
<text text-anchor="middle" x="764.3921" y="-383.7402" font-family="Times,serif" font-size="14.00" fill="#000000">3549</text>
</g>
<!-- 3356&#45;&gt;3549 -->
<g id="edge22" class="edge">
<title>3356&#45;&gt;3549</title>
<path fill="none" stroke="#000000" d="M933.9546,-326.0765C899.6531,-338.49 837.9047,-360.8364 799.1435,-374.8639"/>
<polygon fill="#000000" stroke="#000000" points="797.551,-371.718 789.3388,-378.4121 799.9331,-378.3002 797.551,-371.718"/>
</g>
<!-- 3491&#45;&gt;174 -->
<g id="edge23" class="edge">
<title>3491&#45;&gt;174</title>
<path fill="none" stroke="#000000" d="M843.0954,-757.71C844.679,-765.1606 846.5488,-773.9571 848.2984,-782.1884"/>
<polygon fill="#000000" stroke="#000000" points="844.9171,-783.1149 850.4198,-792.1687 851.7641,-781.6595 844.9171,-783.1149"/>
</g>
<!-- 6762 -->
<g id="node32" class="node">
<title>6762</title>
<ellipse fill="none" stroke="#000000" cx="779.3617" cy="-457.8669" rx="28.6953" ry="18"/>
<text text-anchor="middle" x="779.3617" y="-454.1669" font-family="Times,serif" font-size="14.00" fill="#000000">6762</text>
</g>
<!-- 3549&#45;&gt;6762 -->
<g id="edge24" class="edge">
<title>3549&#45;&gt;6762</title>
<path fill="none" stroke="#000000" d="M768.2472,-405.5768C769.8065,-412.9129 771.6431,-421.5536 773.3694,-429.675"/>
<polygon fill="#000000" stroke="#000000" points="769.965,-430.4932 775.4677,-439.5469 776.812,-429.0377 769.965,-430.4932"/>
</g>
<!-- 30070 -->
<g id="node58" class="node">
<title>30070</title>
<ellipse fill="none" stroke="#000000" cx="350.2099" cy="-810" rx="32.4942" ry="18"/>
<text text-anchor="middle" x="350.2099" y="-806.3" font-family="Times,serif" font-size="14.00" fill="#000000">30070</text>
</g>
<!-- 3549&#45;&gt;30070 -->
<g id="edge25" class="edge">
<title>3549&#45;&gt;30070</title>
<path fill="none" stroke="#000000" d="M749.1599,-402.9805C686.5118,-466.8958 448.4875,-709.7346 373.1914,-786.5537"/>
<polygon fill="#000000" stroke="#000000" points="370.5235,-784.2755 366.0231,-793.867 375.5226,-789.1754 370.5235,-784.2755"/>
</g>
<!-- 3597 -->
<g id="node21" class="node">
<title>3597</title>
<ellipse fill="none" stroke="#000000" cx="265.6392" cy="-280.0486" rx="28.6953" ry="18"/>
<text text-anchor="middle" x="265.6392" y="-276.3486" font-family="Times,serif" font-size="14.00" fill="#000000">3597</text>
</g>
<!-- 37179 -->
<g id="node60" class="node">
<title>37179</title>
<ellipse fill="none" stroke="#000000" cx="32.4971" cy="-1076.9907" rx="32.4942" ry="18"/>
<text text-anchor="middle" x="32.4971" y="-1073.2907" font-family="Times,serif" font-size="14.00" fill="#000000">37179</text>
</g>
<!-- 3741&#45;&gt;37179 -->
<g id="edge26" class="edge">
<title>3741&#45;&gt;37179</title>
<path fill="none" stroke="#000000" d="M75.4752,-1063.0262C73.8021,-1063.5699 72.0992,-1064.1232 70.3839,-1064.6805"/>
<polygon fill="#000000" stroke="#000000" points="68.9755,-1061.4579 60.5465,-1067.8769 71.1387,-1068.1153 68.9755,-1061.4579"/>
</g>
<!-- 4635 -->
<g id="node23" class="node">
<title>4635</title>
<ellipse fill="none" stroke="#000000" cx="1641.8713" cy="-892.7865" rx="28.6953" ry="18"/>
<text text-anchor="middle" x="1641.8713" y="-889.0865" font-family="Times,serif" font-size="14.00" fill="#000000">4635</text>
</g>
<!-- 4637 -->
<g id="node24" class="node">
<title>4637</title>
<ellipse fill="none" stroke="#000000" cx="734.4528" cy="-1373.413" rx="28.6953" ry="18"/>
<text text-anchor="middle" x="734.4528" y="-1369.713" font-family="Times,serif" font-size="14.00" fill="#000000">4637</text>
</g>
<!-- 4637&#45;&gt;2828 -->
<g id="edge27" class="edge">
<title>4637&#45;&gt;2828</title>
<path fill="none" stroke="#000000" d="M730.5978,-1391.5496C729.0384,-1398.8856 727.2018,-1407.5264 725.4755,-1415.6477"/>
<polygon fill="#000000" stroke="#000000" points="722.0329,-1415.0105 723.3772,-1425.5197 728.8799,-1416.466 722.0329,-1415.0105"/>
</g>
<!-- 4739 -->
<g id="node25" class="node">
<title>4739</title>
<ellipse fill="none" stroke="#000000" cx="1540.1021" cy="-1206" rx="28.6953" ry="18"/>
<text text-anchor="middle" x="1540.1021" y="-1202.3" font-family="Times,serif" font-size="14.00" fill="#000000">4739</text>
</g>
<!-- 38880 -->
<g id="node63" class="node">
<title>38880</title>
<ellipse fill="none" stroke="#000000" cx="1602.4559" cy="-1242" rx="32.4942" ry="18"/>
<text text-anchor="middle" x="1602.4559" y="-1238.3" font-family="Times,serif" font-size="14.00" fill="#000000">38880</text>
</g>
<!-- 4739&#45;&gt;38880 -->
<g id="edge28" class="edge">
<title>4739&#45;&gt;38880</title>
<path fill="none" stroke="#000000" d="M1561.2122,-1218.188C1564.3655,-1220.0085 1567.6727,-1221.9179 1570.9843,-1223.8299"/>
<polygon fill="#000000" stroke="#000000" points="1569.2477,-1226.8687 1579.658,-1228.8376 1572.7477,-1220.8065 1569.2477,-1226.8687"/>
</g>
<!-- 4755 -->
<g id="node26" class="node">
<title>4755</title>
<ellipse fill="none" stroke="#000000" cx="473.3251" cy="-1334.243" rx="28.6953" ry="18"/>
<text text-anchor="middle" x="473.3251" y="-1330.543" font-family="Times,serif" font-size="14.00" fill="#000000">4755</text>
</g>
<!-- 9583 -->
<g id="node45" class="node">
<title>9583</title>
<ellipse fill="none" stroke="#000000" cx="431.0046" cy="-1392.4922" rx="28.6953" ry="18"/>
<text text-anchor="middle" x="431.0046" y="-1388.7922" font-family="Times,serif" font-size="14.00" fill="#000000">9583</text>
</g>
<!-- 4755&#45;&gt;9583 -->
<g id="edge29" class="edge">
<title>4755&#45;&gt;9583</title>
<path fill="none" stroke="#000000" d="M461.3109,-1350.7791C457.4361,-1356.1123 453.0546,-1362.1429 448.852,-1367.9274"/>
<polygon fill="#000000" stroke="#000000" points="445.9486,-1365.969 442.9023,-1376.1164 451.6118,-1370.0835 445.9486,-1365.969"/>
</g>
<!-- 5692 -->
<g id="node28" class="node">
<title>5692</title>
<ellipse fill="none" stroke="#000000" cx="1076.7022" cy="-125.2393" rx="28.6953" ry="18"/>
<text text-anchor="middle" x="1076.7022" y="-121.5393" font-family="Times,serif" font-size="14.00" fill="#000000">5692</text>
</g>
<!-- 5692&#45;&gt;3597 -->
<g id="edge30" class="edge">
<title>5692&#45;&gt;3597</title>
<path fill="none" stroke="#000000" d="M1049.2519,-130.4788C928.2972,-153.5657 442.7224,-246.2483 303.2649,-272.8669"/>
<polygon fill="#000000" stroke="#000000" points="302.2491,-269.4975 293.0827,-274.8104 303.5616,-276.3734 302.2491,-269.4975"/>
</g>
<!-- 10834 -->
<g id="node48" class="node">
<title>10834</title>
<ellipse fill="none" stroke="#000000" cx="988.9367" cy="-176.1604" rx="32.4942" ry="18"/>
<text text-anchor="middle" x="988.9367" y="-172.4604" font-family="Times,serif" font-size="14.00" fill="#000000">10834</text>
</g>
<!-- 5692&#45;&gt;10834 -->
<g id="edge31" class="edge">
<title>5692&#45;&gt;10834</title>
<path fill="none" stroke="#000000" d="M1055.4566,-137.5659C1044.9687,-143.6509 1032.1052,-151.1142 1020.4944,-157.8508"/>
<polygon fill="#000000" stroke="#000000" points="1018.4138,-155.0114 1011.5207,-163.0573 1021.9268,-161.0661 1018.4138,-155.0114"/>
</g>
<!-- 11008 -->
<g id="node49" class="node">
<title>11008</title>
<ellipse fill="none" stroke="#000000" cx="388.684" cy="-169.2585" rx="32.4942" ry="18"/>
<text text-anchor="middle" x="388.684" y="-165.5585" font-family="Times,serif" font-size="14.00" fill="#000000">11008</text>
</g>
<!-- 5692&#45;&gt;11008 -->
<g id="edge32" class="edge">
<title>5692&#45;&gt;11008</title>
<path fill="none" stroke="#000000" d="M1048.0148,-127.0747C940.2863,-133.9672 559.5184,-158.3286 431.2343,-166.5362"/>
<polygon fill="#000000" stroke="#000000" points="430.7816,-163.0579 421.0255,-167.1893 431.2286,-170.0436 430.7816,-163.0579"/>
</g>
<!-- 27865 -->
<g id="node56" class="node">
<title>27865</title>
<ellipse fill="none" stroke="#000000" cx="532.0745" cy="-86.472" rx="32.4942" ry="18"/>
<text text-anchor="middle" x="532.0745" y="-82.772" font-family="Times,serif" font-size="14.00" fill="#000000">27865</text>
</g>
<!-- 5692&#45;&gt;27865 -->
<g id="edge33" class="edge">
<title>5692&#45;&gt;27865</title>
<path fill="none" stroke="#000000" d="M1048.1875,-123.2096C958.3774,-116.8168 681.0213,-97.0742 574.4172,-89.486"/>
<polygon fill="#000000" stroke="#000000" points="574.5721,-85.9883 564.3488,-88.7693 574.075,-92.9706 574.5721,-85.9883"/>
</g>
<!-- 28065 -->
<g id="node57" class="node">
<title>28065</title>
<ellipse fill="none" stroke="#000000" cx="689.5439" cy="-35.3071" rx="32.4942" ry="18"/>
<text text-anchor="middle" x="689.5439" y="-31.6071" font-family="Times,serif" font-size="14.00" fill="#000000">28065</text>
</g>
<!-- 5692&#45;&gt;28065 -->
<g id="edge34" class="edge">
<title>5692&#45;&gt;28065</title>
<path fill="none" stroke="#000000" d="M1049.7853,-118.9869C982.909,-103.4523 808.9048,-63.0332 729.7721,-44.6516"/>
<polygon fill="#000000" stroke="#000000" points="730.238,-41.1667 719.7054,-42.3132 728.6541,-47.9852 730.238,-41.1667"/>
</g>
<!-- 52317 -->
<g id="node64" class="node">
<title>52317</title>
<ellipse fill="none" stroke="#000000" cx="854.2099" cy="-18" rx="32.4942" ry="18"/>
<text text-anchor="middle" x="854.2099" y="-14.3" font-family="Times,serif" font-size="14.00" fill="#000000">52317</text>
</g>
<!-- 5692&#45;&gt;52317 -->
<g id="edge35" class="edge">
<title>5692&#45;&gt;52317</title>
<path fill="none" stroke="#000000" d="M1053.7296,-114.1667C1014.3407,-95.1816 933.7451,-56.3353 887.9584,-34.2664"/>
<polygon fill="#000000" stroke="#000000" points="889.2716,-31.0141 878.7437,-29.825 886.2322,-37.3199 889.2716,-31.0141"/>
</g>
<!-- 52375 -->
<g id="node65" class="node">
<title>52375</title>
<ellipse fill="none" stroke="#000000" cx="1018.876" cy="-35.3071" rx="32.4942" ry="18"/>
<text text-anchor="middle" x="1018.876" y="-31.6071" font-family="Times,serif" font-size="14.00" fill="#000000">52375</text>
</g>
<!-- 5692&#45;&gt;52375 -->
<g id="edge36" class="edge">
<title>5692&#45;&gt;52375</title>
<path fill="none" stroke="#000000" d="M1065.8255,-108.3237C1057.238,-94.9682 1045.116,-76.1159 1035.3405,-60.913"/>
<polygon fill="#000000" stroke="#000000" points="1038.2529,-58.9709 1029.9005,-52.4526 1032.365,-62.7568 1038.2529,-58.9709"/>
</g>
<!-- 52376 -->
<g id="node66" class="node">
<title>52376</title>
<ellipse fill="none" stroke="#000000" cx="1176.3454" cy="-86.472" rx="32.4942" ry="18"/>
<text text-anchor="middle" x="1176.3454" y="-82.772" font-family="Times,serif" font-size="14.00" fill="#000000">52376</text>
</g>
<!-- 5692&#45;&gt;52376 -->
<g id="edge37" class="edge">
<title>5692&#45;&gt;52376</title>
<path fill="none" stroke="#000000" d="M1101.0776,-115.7558C1112.7394,-111.2186 1126.9438,-105.6922 1139.8579,-100.6679"/>
<polygon fill="#000000" stroke="#000000" points="1141.368,-103.836 1149.4184,-96.9482 1138.8299,-97.3123 1141.368,-103.836"/>
</g>
<!-- 52380 -->
<g id="node67" class="node">
<title>52380</title>
<ellipse fill="none" stroke="#000000" cx="1319.7359" cy="-169.2585" rx="32.4942" ry="18"/>
<text text-anchor="middle" x="1319.7359" y="-165.5585" font-family="Times,serif" font-size="14.00" fill="#000000">52380</text>
</g>
<!-- 5692&#45;&gt;52380 -->
<g id="edge38" class="edge">
<title>5692&#45;&gt;52380</title>
<path fill="none" stroke="#000000" d="M1104.5812,-130.2889C1147.3008,-138.0264 1229.1963,-152.8597 1278.704,-161.8267"/>
<polygon fill="#000000" stroke="#000000" points="1278.2874,-165.3081 1288.7511,-163.6465 1279.535,-158.4202 1278.2874,-165.3081"/>
</g>
<!-- 52413 -->
<g id="node68" class="node">
<title>52413</title>
<ellipse fill="none" stroke="#000000" cx="1442.7806" cy="-280.0486" rx="32.4942" ry="18"/>
<text text-anchor="middle" x="1442.7806" y="-276.3486" font-family="Times,serif" font-size="14.00" fill="#000000">52413</text>
</g>
<!-- 5692&#45;&gt;52413 -->
<g id="edge39" class="edge">
<title>5692&#45;&gt;52413</title>
<path fill="none" stroke="#000000" d="M1100.7216,-135.3968C1163.5937,-161.9845 1333.2451,-233.7276 1407.3439,-265.0629"/>
<polygon fill="#000000" stroke="#000000" points="1406.1548,-268.3601 1416.7284,-269.0314 1408.8813,-261.9129 1406.1548,-268.3601"/>
</g>
<!-- 52431 -->
<g id="node69" class="node">
<title>52431</title>
<ellipse fill="none" stroke="#000000" cx="1540.1021" cy="-414" rx="32.4942" ry="18"/>
<text text-anchor="middle" x="1540.1021" y="-410.3" font-family="Times,serif" font-size="14.00" fill="#000000">52431</text>
</g>
<!-- 5692&#45;&gt;52431 -->
<g id="edge40" class="edge">
<title>5692&#45;&gt;52431</title>
<path fill="none" stroke="#000000" d="M1097.2118,-138.0196C1170.8866,-183.9289 1422.4113,-340.6628 1509.8519,-395.15"/>
<polygon fill="#000000" stroke="#000000" points="1508.1654,-398.2231 1518.5036,-400.5412 1511.8675,-392.2821 1508.1654,-398.2231"/>
</g>
<!-- 262230 -->
<g id="node70" class="node">
<title>262230</title>
<ellipse fill="none" stroke="#000000" cx="1607.4467" cy="-565.2585" rx="37.0935" ry="18"/>
<text text-anchor="middle" x="1607.4467" y="-561.5585" font-family="Times,serif" font-size="14.00" fill="#000000">262230</text>
</g>
<!-- 5692&#45;&gt;262230 -->
<g id="edge41" class="edge">
<title>5692&#45;&gt;262230</title>
<path fill="none" stroke="#000000" d="M1094.0593,-139.6294C1171.5775,-203.8967 1486.4241,-464.9235 1580.6682,-543.0575"/>
<polygon fill="#000000" stroke="#000000" points="1578.6536,-545.9338 1588.5859,-549.6218 1583.1214,-540.5449 1578.6536,-545.9338"/>
</g>
<!-- 264608 -->
<g id="node71" class="node">
<title>264608</title>
<ellipse fill="none" stroke="#000000" cx="1641.8713" cy="-727.2135" rx="37.0935" ry="18"/>
<text text-anchor="middle" x="1641.8713" y="-723.5135" font-family="Times,serif" font-size="14.00" fill="#000000">264608</text>
</g>
<!-- 5692&#45;&gt;264608 -->
<g id="edge42" class="edge">
<title>5692&#45;&gt;264608</title>
<path fill="none" stroke="#000000" d="M1091.5286,-141.0312C1168.8531,-223.3913 1525.8968,-603.6865 1619.4043,-703.2834"/>
<polygon fill="#000000" stroke="#000000" points="1617.0143,-705.8512 1626.4106,-710.746 1622.1176,-701.0599 1617.0143,-705.8512"/>
</g>
<!-- 6453&#45;&gt;3257 -->
<g id="edge43" class="edge">
<title>6453&#45;&gt;3257</title>
<path fill="none" stroke="#000000" d="M813.1561,-616.8567C814.7154,-624.1927 816.552,-632.8335 818.2783,-640.9548"/>
<polygon fill="#000000" stroke="#000000" points="814.8739,-641.7731 820.3766,-650.8268 821.721,-640.3176 814.8739,-641.7731"/>
</g>
<!-- 6461&#45;&gt;2497 -->
<g id="edge44" class="edge">
<title>6461&#45;&gt;2497</title>
<path fill="none" stroke="#000000" d="M902.9739,-1039.4165C904.5332,-1046.7525 906.3699,-1055.3932 908.0961,-1063.5146"/>
<polygon fill="#000000" stroke="#000000" points="904.6918,-1064.3328 910.1945,-1073.3866 911.5388,-1062.8774 904.6918,-1064.3328"/>
</g>
<!-- 6695 -->
<g id="node31" class="node">
<title>6695</title>
<ellipse fill="none" stroke="#000000" cx="1744.3988" cy="-1099.2399" rx="28.6953" ry="18"/>
<text text-anchor="middle" x="1744.3988" y="-1095.5399" font-family="Times,serif" font-size="14.00" fill="#000000">6695</text>
</g>
<!-- 6762&#45;&gt;2914 -->
<g id="edge45" class="edge">
<title>6762&#45;&gt;2914</title>
<path fill="none" stroke="#000000" d="M783.2168,-476.0035C784.7761,-483.3395 786.6128,-491.9802 788.339,-500.1016"/>
<polygon fill="#000000" stroke="#000000" points="784.9346,-500.9198 790.4374,-509.9736 791.7817,-499.4644 784.9346,-500.9198"/>
</g>
<!-- 6904 -->
<g id="node33" class="node">
<title>6904</title>
<ellipse fill="none" stroke="#000000" cx="290.7969" cy="-929.7571" rx="28.6953" ry="18"/>
<text text-anchor="middle" x="290.7969" y="-926.0571" font-family="Times,serif" font-size="14.00" fill="#000000">6904</text>
</g>
<!-- 6904&#45;&gt;2687 -->
<g id="edge46" class="edge">
<title>6904&#45;&gt;2687</title>
<path fill="none" stroke="#000000" d="M263.3665,-935.5877C261.614,-935.9602 259.8344,-936.3384 258.0464,-936.7185"/>
<polygon fill="#000000" stroke="#000000" points="256.8955,-933.3848 247.8417,-938.8875 258.3509,-940.2319 256.8955,-933.3848"/>
</g>
<!-- 6939 -->
<g id="node34" class="node">
<title>6939</title>
<ellipse fill="none" stroke="#000000" cx="168.3178" cy="-1206" rx="28.6953" ry="18"/>
<text text-anchor="middle" x="168.3178" y="-1202.3" font-family="Times,serif" font-size="14.00" fill="#000000">6939</text>
</g>
<!-- 12266 -->
<g id="node50" class="node">
<title>12266</title>
<ellipse fill="none" stroke="#000000" cx="105.964" cy="-1242" rx="32.4942" ry="18"/>
<text text-anchor="middle" x="105.964" y="-1238.3" font-family="Times,serif" font-size="14.00" fill="#000000">12266</text>
</g>
<!-- 6939&#45;&gt;12266 -->
<g id="edge47" class="edge">
<title>6939&#45;&gt;12266</title>
<path fill="none" stroke="#000000" d="M147.2077,-1218.188C144.0544,-1220.0085 140.7472,-1221.9179 137.4356,-1223.8299"/>
<polygon fill="#000000" stroke="#000000" points="135.6722,-1220.8065 128.7619,-1228.8376 139.1722,-1226.8687 135.6722,-1220.8065"/>
</g>
<!-- 7016 -->
<g id="node35" class="node">
<title>7016</title>
<ellipse fill="none" stroke="#000000" cx="281.3653" cy="-749.7916" rx="28.6953" ry="18"/>
<text text-anchor="middle" x="281.3653" y="-746.0916" font-family="Times,serif" font-size="14.00" fill="#000000">7016</text>
</g>
<!-- 7922 -->
<g id="node40" class="node">
<title>7922</title>
<ellipse fill="none" stroke="#000000" cx="209.7598" cy="-742.2656" rx="28.6953" ry="18"/>
<text text-anchor="middle" x="209.7598" y="-738.5656" font-family="Times,serif" font-size="14.00" fill="#000000">7922</text>
</g>
<!-- 7016&#45;&gt;7922 -->
<g id="edge48" class="edge">
<title>7016&#45;&gt;7922</title>
<path fill="none" stroke="#000000" d="M253.0649,-746.8171C251.5501,-746.6579 250.0165,-746.4967 248.4757,-746.3348"/>
<polygon fill="#000000" stroke="#000000" points="248.6349,-742.8323 238.3238,-745.2678 247.9032,-749.794 248.6349,-742.8323"/>
</g>
<!-- 7018&#45;&gt;3320 -->
<g id="edge49" class="edge">
<title>7018&#45;&gt;3320</title>
<path fill="none" stroke="#000000" d="M485.9636,-1077.5467C482.0932,-1080.3587 477.9416,-1083.375 473.8367,-1086.3574"/>
<polygon fill="#000000" stroke="#000000" points="471.6141,-1083.6458 465.5812,-1092.3553 475.7287,-1089.309 471.6141,-1083.6458"/>
</g>
<!-- 7473 -->
<g id="node37" class="node">
<title>7473</title>
<ellipse fill="none" stroke="#000000" cx="619.9296" cy="-1336.2022" rx="28.6953" ry="18"/>
<text text-anchor="middle" x="619.9296" y="-1332.5022" font-family="Times,serif" font-size="14.00" fill="#000000">7473</text>
</g>
<!-- 7474 -->
<g id="node38" class="node">
<title>7474</title>
<ellipse fill="none" stroke="#000000" cx="854.2099" cy="-1458" rx="28.6953" ry="18"/>
<text text-anchor="middle" x="854.2099" y="-1454.3" font-family="Times,serif" font-size="14.00" fill="#000000">7474</text>
</g>
<!-- 7545&#45;&gt;4635 -->
<g id="edge50" class="edge">
<title>7545&#45;&gt;4635</title>
<path fill="none" stroke="#000000" d="M1487.7678,-1153.0764C1515.5229,-1106.1964 1593.5341,-974.4308 1626.6733,-918.4568"/>
<polygon fill="#000000" stroke="#000000" points="1629.6915,-920.229 1631.7743,-909.8409 1623.668,-916.6628 1629.6915,-920.229"/>
</g>
<!-- 7545&#45;&gt;4739 -->
<g id="edge51" class="edge">
<title>7545&#45;&gt;4739</title>
<path fill="none" stroke="#000000" d="M1498.8584,-1182.188C1502.5151,-1184.2992 1506.3788,-1186.5299 1510.2164,-1188.7455"/>
<polygon fill="#000000" stroke="#000000" points="1508.6034,-1191.8556 1519.0136,-1193.8246 1512.1034,-1185.7935 1508.6034,-1191.8556"/>
</g>
<!-- 9942 -->
<g id="node46" class="node">
<title>9942</title>
<ellipse fill="none" stroke="#000000" cx="1319.7359" cy="-1450.7415" rx="28.6953" ry="18"/>
<text text-anchor="middle" x="1319.7359" y="-1447.0415" font-family="Times,serif" font-size="14.00" fill="#000000">9942</text>
</g>
<!-- 7545&#45;&gt;9942 -->
<g id="edge52" class="edge">
<title>7545&#45;&gt;9942</title>
<path fill="none" stroke="#000000" d="M1468.1017,-1187.139C1441.38,-1234.6156 1366.2733,-1368.0581 1334.368,-1424.7445"/>
<polygon fill="#000000" stroke="#000000" points="1331.3117,-1423.0388 1329.4569,-1433.47 1337.4119,-1426.4722 1331.3117,-1423.0388"/>
</g>
<!-- 9002 -->
<g id="node41" class="node">
<title>9002</title>
<ellipse fill="none" stroke="#000000" cx="1664.8097" cy="-1278" rx="28.6953" ry="18"/>
<text text-anchor="middle" x="1664.8097" y="-1274.3" font-family="Times,serif" font-size="14.00" fill="#000000">9002</text>
</g>
<!-- 9443 -->
<g id="node42" class="node">
<title>9443</title>
<ellipse fill="none" stroke="#000000" cx="1549.7935" cy="-1436.3062" rx="28.6953" ry="18"/>
<text text-anchor="middle" x="1549.7935" y="-1432.6062" font-family="Times,serif" font-size="14.00" fill="#000000">9443</text>
</g>
<!-- 9498&#45;&gt;4637 -->
<g id="edge53" class="edge">
<title>9498&#45;&gt;4637</title>
<path fill="none" stroke="#000000" d="M662.5331,-1286.5185C676.5448,-1303.4476 698.746,-1330.2714 714.777,-1349.6404"/>
<polygon fill="#000000" stroke="#000000" points="712.1555,-1351.9624 721.2279,-1357.4344 717.5481,-1347.4991 712.1555,-1351.9624"/>
</g>
<!-- 9498&#45;&gt;7473 -->
<g id="edge54" class="edge">
<title>9498&#45;&gt;7473</title>
<path fill="none" stroke="#000000" d="M641.3668,-1288.0535C638.4781,-1294.5416 635.1361,-1302.048 631.963,-1309.1749"/>
<polygon fill="#000000" stroke="#000000" points="628.6692,-1307.9679 627.7992,-1318.527 635.064,-1310.8151 628.6692,-1307.9679"/>
</g>
<!-- 10026 -->
<g id="node47" class="node">
<title>10026</title>
<ellipse fill="none" stroke="#000000" cx="515.6456" cy="-1275.9938" rx="32.4942" ry="18"/>
<text text-anchor="middle" x="515.6456" y="-1272.2938" font-family="Times,serif" font-size="14.00" fill="#000000">10026</text>
</g>
<!-- 9498&#45;&gt;10026 -->
<g id="edge55" class="edge">
<title>9498&#45;&gt;10026</title>
<path fill="none" stroke="#000000" d="M620.5608,-1271.6211C602.5446,-1272.372 578.9609,-1273.3549 558.7176,-1274.1986"/>
<polygon fill="#000000" stroke="#000000" points="558.3289,-1270.7117 548.4833,-1274.6252 558.6205,-1277.7056 558.3289,-1270.7117"/>
</g>
<!-- 10026&#45;&gt;4755 -->
<g id="edge56" class="edge">
<title>10026&#45;&gt;4755</title>
<path fill="none" stroke="#000000" d="M503.4048,-1292.8419C499.6881,-1297.9575 495.522,-1303.6916 491.5025,-1309.224"/>
<polygon fill="#000000" stroke="#000000" points="488.4386,-1307.4865 485.3923,-1317.6339 494.1018,-1311.601 488.4386,-1307.4865"/>
</g>
<!-- 12956 -->
<g id="node51" class="node">
<title>12956</title>
<ellipse fill="none" stroke="#000000" cx="973.9671" cy="-246.587" rx="32.4942" ry="18"/>
<text text-anchor="middle" x="973.9671" y="-242.887" font-family="Times,serif" font-size="14.00" fill="#000000">12956</text>
</g>
<!-- 10834&#45;&gt;12956 -->
<g id="edge57" class="edge">
<title>10834&#45;&gt;12956</title>
<path fill="none" stroke="#000000" d="M985.0817,-194.297C983.5223,-201.633 981.6857,-210.2737 979.9595,-218.3951"/>
<polygon fill="#000000" stroke="#000000" points="976.5168,-217.7579 977.8611,-228.2671 983.3638,-219.2133 976.5168,-217.7579"/>
</g>
<!-- 22927 -->
<g id="node55" class="node">
<title>22927</title>
<ellipse fill="none" stroke="#000000" cx="230.6717" cy="-450" rx="32.4942" ry="18"/>
<text text-anchor="middle" x="230.6717" y="-446.3" font-family="Times,serif" font-size="14.00" fill="#000000">22927</text>
</g>
<!-- 10834&#45;&gt;22927 -->
<g id="edge58" class="edge">
<title>10834&#45;&gt;22927</title>
<path fill="none" stroke="#000000" d="M961.5017,-186.0682C846.0907,-227.7477 399.8887,-388.889 267.7467,-436.6107"/>
<polygon fill="#000000" stroke="#000000" points="266.2864,-433.4168 258.0698,-440.1054 268.6641,-440.0006 266.2864,-433.4168"/>
</g>
<!-- 20454 -->
<g id="node54" class="node">
<title>20454</title>
<ellipse fill="none" stroke="#000000" cx="43.6102" cy="-1278" rx="32.4942" ry="18"/>
<text text-anchor="middle" x="43.6102" y="-1274.3" font-family="Times,serif" font-size="14.00" fill="#000000">20454</text>
</g>
<!-- 12266&#45;&gt;20454 -->
<g id="edge59" class="edge">
<title>12266&#45;&gt;20454</title>
<path fill="none" stroke="#000000" d="M83.4528,-1254.9968C80.7493,-1256.5577 77.9514,-1258.1731 75.1496,-1259.7907"/>
<polygon fill="#000000" stroke="#000000" points="73.208,-1256.8702 66.2977,-1264.9013 76.708,-1262.9324 73.208,-1256.8702"/>
</g>
<!-- 12956&#45;&gt;3356 -->
<g id="edge60" class="edge">
<title>12956&#45;&gt;3356</title>
<path fill="none" stroke="#000000" d="M970.112,-264.7236C968.5527,-272.0596 966.7161,-280.7003 964.9898,-288.8217"/>
<polygon fill="#000000" stroke="#000000" points="961.5471,-288.1845 962.8915,-298.6937 968.3942,-289.6399 961.5471,-288.1845"/>
</g>
<!-- 17676&#45;&gt;6939 -->
<g id="edge61" class="edge">
<title>17676&#45;&gt;6939</title>
<path fill="none" stroke="#000000" d="M208.1605,-1182.9968C205.0667,-1184.783 201.8493,-1186.6406 198.6439,-1188.4912"/>
<polygon fill="#000000" stroke="#000000" points="196.6649,-1185.5923 189.7547,-1193.6234 200.1649,-1191.6545 196.6649,-1185.5923"/>
</g>
<!-- 18540 -->
<g id="node53" class="node">
<title>18540</title>
<ellipse fill="none" stroke="#000000" cx="306.4014" cy="-632.0062" rx="32.4942" ry="18"/>
<text text-anchor="middle" x="306.4014" y="-628.3062" font-family="Times,serif" font-size="14.00" fill="#000000">18540</text>
</g>
<!-- 30070&#45;&gt;6904 -->
<g id="edge62" class="edge">
<title>30070&#45;&gt;6904</title>
<path fill="none" stroke="#000000" d="M341.5708,-827.4137C331.7145,-847.2807 315.4835,-879.9971 304.0301,-903.0834"/>
<polygon fill="#000000" stroke="#000000" points="300.7555,-901.8087 299.4465,-912.3224 307.0262,-904.9197 300.7555,-901.8087"/>
</g>
<!-- 30070&#45;&gt;7016 -->
<g id="edge63" class="edge">
<title>30070&#45;&gt;7016</title>
<path fill="none" stroke="#000000" d="M332.4807,-794.4948C324.4281,-787.4523 314.7672,-779.0033 306.0228,-771.3559"/>
<polygon fill="#000000" stroke="#000000" points="308.1539,-768.57 298.3224,-764.6215 303.5457,-773.8393 308.1539,-768.57"/>
</g>
<!-- 30070&#45;&gt;18540 -->
<g id="edge64" class="edge">
<title>30070&#45;&gt;18540</title>
<path fill="none" stroke="#000000" d="M345.7683,-791.9535C338.1261,-760.9034 322.4364,-697.1563 313.3414,-660.2032"/>
<polygon fill="#000000" stroke="#000000" points="316.6434,-658.9742 310.8548,-650.1005 309.8462,-660.6472 316.6434,-658.9742"/>
</g>
<!-- 32787&#45;&gt;2764 -->
<g id="edge65" class="edge">
<title>32787&#45;&gt;2764</title>
<path fill="none" stroke="#000000" d="M1272.1773,-1239.9288C1280.1441,-1240.3883 1288.7481,-1240.8846 1296.9752,-1241.3591"/>
<polygon fill="#000000" stroke="#000000" points="1296.9333,-1244.8624 1307.1183,-1241.9441 1297.3365,-1237.874 1296.9333,-1244.8624"/>
</g>
<!-- 32787&#45;&gt;7474 -->
<g id="edge66" class="edge">
<title>32787&#45;&gt;7474</title>
<path fill="none" stroke="#000000" d="M1216.9584,-1250.9891C1151.0379,-1288.6081 959.3693,-1397.9883 884.5912,-1440.6622"/>
<polygon fill="#000000" stroke="#000000" points="882.6074,-1437.7645 875.6569,-1445.7608 886.0769,-1443.8442 882.6074,-1437.7645"/>
</g>
<!-- 38333&#45;&gt;1221 -->
<g id="edge67" class="edge">
<title>38333&#45;&gt;1221</title>
<path fill="none" stroke="#000000" d="M1154.9082,-1485.3793C1157.7969,-1491.8674 1161.1389,-1499.3738 1164.312,-1506.5007"/>
<polygon fill="#000000" stroke="#000000" points="1161.211,-1508.1409 1168.4759,-1515.8528 1167.6058,-1505.2937 1161.211,-1508.1409"/>
</g>
<!-- 38880&#45;&gt;6695 -->
<g id="edge68" class="edge">
<title>38880&#45;&gt;6695</title>
<path fill="none" stroke="#000000" d="M1618.1886,-1226.1767C1643.3673,-1200.8531 1692.8211,-1151.1146 1721.7851,-1121.9838"/>
<polygon fill="#000000" stroke="#000000" points="1724.4583,-1124.2592 1729.0271,-1114.7001 1719.4944,-1119.3237 1724.4583,-1124.2592"/>
</g>
<!-- 38880&#45;&gt;9002 -->
<g id="edge69" class="edge">
<title>38880&#45;&gt;9002</title>
<path fill="none" stroke="#000000" d="M1624.9671,-1254.9968C1628.0608,-1256.783 1631.2782,-1258.6406 1634.4837,-1260.4912"/>
<polygon fill="#000000" stroke="#000000" points="1632.9626,-1263.6545 1643.3729,-1265.6234 1636.4626,-1257.5923 1632.9626,-1263.6545"/>
</g>
<!-- 38880&#45;&gt;9443 -->
<g id="edge70" class="edge">
<title>38880&#45;&gt;9443</title>
<path fill="none" stroke="#000000" d="M1597.5959,-1259.9316C1588.3669,-1293.9835 1568.249,-1368.2116 1557.2839,-1408.6691"/>
<polygon fill="#000000" stroke="#000000" points="1553.8796,-1407.8506 1554.6417,-1418.418 1560.6358,-1409.6818 1553.8796,-1407.8506"/>
</g>
</g>
</svg>
