<?xml version="1.0" encoding="UTF-8" standalone="no"?>
<!DOCTYPE svg PUBLIC "-//W3C//DTD SVG 1.1//EN"
 "http://www.w3.org/Graphics/SVG/1.1/DTD/svg11.dtd">
<!-- Generated by graphviz version 2.40.1 (20161225.0304)
 -->
<!-- Title: %3 Pages: 1 -->
<svg width="26100pt" height="12277pt"
 viewBox="0.00 0.00 26099.67 12277.22" xmlns="http://www.w3.org/2000/svg" xmlns:xlink="http://www.w3.org/1999/xlink">
<g id="graph0" class="graph" transform="scale(1 1) rotate(0) translate(4 12273.2215)">
<title>%3</title>
<polygon fill="#ffffff" stroke="transparent" points="-4,4 -4,-12273.2215 26095.6725,-12273.2215 26095.6725,4 -4,4"/>
<!-- 174 -->
<g id="node1" class="node">
<title>174</title>
<ellipse fill="none" stroke="#000000" cx="11879.4567" cy="-6693.4383" rx="27" ry="18"/>
<text text-anchor="middle" x="11879.4567" y="-6689.7383" font-family="Times,serif" font-size="14.00" fill="#000000">174</text>
</g>
<!-- 209 -->
<g id="node2" class="node">
<title>209</title>
<ellipse fill="none" stroke="#000000" cx="12005.4567" cy="-6693.4383" rx="27" ry="18"/>
<text text-anchor="middle" x="12005.4567" y="-6689.7383" font-family="Times,serif" font-size="14.00" fill="#000000">209</text>
</g>
<!-- 174&#45;&gt;209 -->
<g id="edge1" class="edge">
<title>174&#45;&gt;209</title>
<path fill="none" stroke="#000000" d="M11906.4868,-6693.4383C11924.3848,-6693.4383 11948.1076,-6693.4383 11967.8406,-6693.4383"/>
<polygon fill="#000000" stroke="#000000" points="11968.0365,-6696.9384 11978.0365,-6693.4383 11968.0364,-6689.9384 11968.0365,-6696.9384"/>
</g>
<!-- 1299 -->
<g id="node8" class="node">
<title>1299</title>
<ellipse fill="none" stroke="#000000" cx="12133.0541" cy="-6693.4383" rx="28.6953" ry="18"/>
<text text-anchor="middle" x="12133.0541" y="-6689.7383" font-family="Times,serif" font-size="14.00" fill="#000000">1299</text>
</g>
<!-- 209&#45;&gt;1299 -->
<g id="edge2" class="edge">
<title>209&#45;&gt;1299</title>
<path fill="none" stroke="#000000" d="M12032.5168,-6693.4383C12050.458,-6693.4383 12074.2791,-6693.4383 12094.2307,-6693.4383"/>
<polygon fill="#000000" stroke="#000000" points="12094.2597,-6696.9384 12104.2597,-6693.4383 12094.2597,-6689.9384 12094.2597,-6696.9384"/>
</g>
<!-- 701 -->
<g id="node3" class="node">
<title>701</title>
<ellipse fill="none" stroke="#000000" cx="23121.023" cy="-6693.4383" rx="27" ry="18"/>
<text text-anchor="middle" x="23121.023" y="-6689.7383" font-family="Times,serif" font-size="14.00" fill="#000000">701</text>
</g>
<!-- 703 -->
<g id="node4" class="node">
<title>703</title>
<ellipse fill="none" stroke="#000000" cx="23121.023" cy="-1329.4475" rx="27" ry="18"/>
<text text-anchor="middle" x="23121.023" y="-1325.7475" font-family="Times,serif" font-size="14.00" fill="#000000">703</text>
</g>
<!-- 701&#45;&gt;703 -->
<g id="edge3" class="edge">
<title>701&#45;&gt;703</title>
<path fill="none" stroke="#000000" d="M23121.023,-6675.3257C23121.023,-6350.542 23121.023,-1761.9825 23121.023,-1357.8352"/>
<polygon fill="#000000" stroke="#000000" points="23124.5231,-1357.5893 23121.023,-1347.5893 23117.5231,-1357.5893 23124.5231,-1357.5893"/>
</g>
<!-- 7018 -->
<g id="node36" class="node">
<title>7018</title>
<ellipse fill="none" stroke="#000000" cx="23121.023" cy="-11323.4591" rx="28.6953" ry="18"/>
<text text-anchor="middle" x="23121.023" y="-11319.7591" font-family="Times,serif" font-size="14.00" fill="#000000">7018</text>
</g>
<!-- 701&#45;&gt;7018 -->
<g id="edge4" class="edge">
<title>701&#45;&gt;7018</title>
<path fill="none" stroke="#000000" d="M23121.023,-6711.6115C23121.023,-7011.3246 23121.023,-10922.4563 23121.023,-11295.0091"/>
<polygon fill="#000000" stroke="#000000" points="23117.5231,-11295.217 23121.023,-11305.2171 23124.5231,-11295.2171 23117.5231,-11295.217"/>
</g>
<!-- 2516 -->
<g id="node10" class="node">
<title>2516</title>
<ellipse fill="none" stroke="#000000" cx="22993.4255" cy="-1329.4475" rx="28.6953" ry="18"/>
<text text-anchor="middle" x="22993.4255" y="-1325.7475" font-family="Times,serif" font-size="14.00" fill="#000000">2516</text>
</g>
<!-- 703&#45;&gt;2516 -->
<g id="edge5" class="edge">
<title>703&#45;&gt;2516</title>
<path fill="none" stroke="#000000" d="M23093.9629,-1329.4475C23076.0217,-1329.4475 23052.2006,-1329.4475 23032.249,-1329.4475"/>
<polygon fill="#000000" stroke="#000000" points="23032.22,-1325.9476 23022.22,-1329.4475 23032.22,-1332.9476 23032.22,-1325.9476"/>
</g>
<!-- 9498 -->
<g id="node43" class="node">
<title>9498</title>
<ellipse fill="none" stroke="#000000" cx="25803.0184" cy="-1329.4475" rx="28.6953" ry="18"/>
<text text-anchor="middle" x="25803.0184" y="-1325.7475" font-family="Times,serif" font-size="14.00" fill="#000000">9498</text>
</g>
<!-- 703&#45;&gt;9498 -->
<g id="edge6" class="edge">
<title>703&#45;&gt;9498</title>
<path fill="none" stroke="#000000" d="M23148.4413,-1329.4475C23409.5912,-1329.4475 25454.9925,-1329.4475 25763.9764,-1329.4475"/>
<polygon fill="#000000" stroke="#000000" points="25764.2297,-1332.9476 25774.2296,-1329.4475 25764.2296,-1325.9476 25764.2297,-1332.9476"/>
</g>
<!-- 1221 -->
<g id="node5" class="node">
<title>1221</title>
<ellipse fill="none" stroke="#000000" cx="20094.3555" cy="-3306.653" rx="28.6953" ry="18"/>
<text text-anchor="middle" x="20094.3555" y="-3302.953" font-family="Times,serif" font-size="14.00" fill="#000000">1221</text>
</g>
<!-- 1239 -->
<g id="node6" class="node">
<title>1239</title>
<ellipse fill="none" stroke="#000000" cx="23121.023" cy="-12251.2215" rx="28.6953" ry="18"/>
<text text-anchor="middle" x="23121.023" y="-12247.5215" font-family="Times,serif" font-size="14.00" fill="#000000">1239</text>
</g>
<!-- 5511 -->
<g id="node27" class="node">
<title>5511</title>
<ellipse fill="none" stroke="#000000" cx="23455.7093" cy="-12251.2215" rx="28.6953" ry="18"/>
<text text-anchor="middle" x="23455.7093" y="-12247.5215" font-family="Times,serif" font-size="14.00" fill="#000000">5511</text>
</g>
<!-- 1239&#45;&gt;5511 -->
<g id="edge7" class="edge">
<title>1239&#45;&gt;5511</title>
<path fill="none" stroke="#000000" d="M23149.8478,-12251.2215C23209.9006,-12251.2215 23348.473,-12251.2215 23416.5391,-12251.2215"/>
<polygon fill="#000000" stroke="#000000" points="23416.8351,-12254.7216 23426.8351,-12251.2215 23416.8351,-12247.7216 23416.8351,-12254.7216"/>
</g>
<!-- 17676 -->
<g id="node52" class="node">
<title>17676</title>
<ellipse fill="none" stroke="#000000" cx="22987.9284" cy="-12251.2215" rx="32.4942" ry="18"/>
<text text-anchor="middle" x="22987.9284" y="-12247.5215" font-family="Times,serif" font-size="14.00" fill="#000000">17676</text>
</g>
<!-- 1239&#45;&gt;17676 -->
<g id="edge8" class="edge">
<title>1239&#45;&gt;17676</title>
<path fill="none" stroke="#000000" d="M23092.1435,-12251.2215C23074.1745,-12251.2215 23050.7422,-12251.2215 23030.6489,-12251.2215"/>
<polygon fill="#000000" stroke="#000000" points="23030.4924,-12247.7216 23020.4923,-12251.2215 23030.4923,-12254.7216 23030.4924,-12247.7216"/>
</g>
<!-- 1273 -->
<g id="node7" class="node">
<title>1273</title>
<ellipse fill="none" stroke="#000000" cx="23121.023" cy="-11581.8489" rx="28.6953" ry="18"/>
<text text-anchor="middle" x="23121.023" y="-11578.1489" font-family="Times,serif" font-size="14.00" fill="#000000">1273</text>
</g>
<!-- 1273&#45;&gt;1239 -->
<g id="edge9" class="edge">
<title>1273&#45;&gt;1239</title>
<path fill="none" stroke="#000000" d="M23121.023,-11600.1002C23121.023,-11692.5681 23121.023,-12109.3611 23121.023,-12222.6971"/>
<polygon fill="#000000" stroke="#000000" points="23117.5231,-12222.9865 23121.023,-12232.9865 23124.5231,-12222.9866 23117.5231,-12222.9865"/>
</g>
<!-- 6461 -->
<g id="node30" class="node">
<title>6461</title>
<ellipse fill="none" stroke="#000000" cx="12262.2491" cy="-6693.4383" rx="28.6953" ry="18"/>
<text text-anchor="middle" x="12262.2491" y="-6689.7383" font-family="Times,serif" font-size="14.00" fill="#000000">6461</text>
</g>
<!-- 1299&#45;&gt;6461 -->
<g id="edge10" class="edge">
<title>1299&#45;&gt;6461</title>
<path fill="none" stroke="#000000" d="M12161.7267,-6693.4383C12179.7488,-6693.4383 12203.2411,-6693.4383 12222.9828,-6693.4383"/>
<polygon fill="#000000" stroke="#000000" points="12223.21,-6696.9384 12233.2099,-6693.4383 12223.2099,-6689.9384 12223.21,-6696.9384"/>
</g>
<!-- 2497 -->
<g id="node9" class="node">
<title>2497</title>
<ellipse fill="none" stroke="#000000" cx="12391.444" cy="-6693.4383" rx="28.6953" ry="18"/>
<text text-anchor="middle" x="12391.444" y="-6689.7383" font-family="Times,serif" font-size="14.00" fill="#000000">2497</text>
</g>
<!-- 2497&#45;&gt;701 -->
<g id="edge11" class="edge">
<title>2497&#45;&gt;701</title>
<path fill="none" stroke="#000000" d="M12420.349,-6693.4383C13009.577,-6693.4383 22416.9476,-6693.4383 23083.7891,-6693.4383"/>
<polygon fill="#000000" stroke="#000000" points="23083.8247,-6696.9384 23093.8247,-6693.4383 23083.8247,-6689.9384 23083.8247,-6696.9384"/>
</g>
<!-- 32787 -->
<g id="node59" class="node">
<title>32787</title>
<ellipse fill="none" stroke="#000000" cx="20374.4302" cy="-1329.4475" rx="32.4942" ry="18"/>
<text text-anchor="middle" x="20374.4302" y="-1325.7475" font-family="Times,serif" font-size="14.00" fill="#000000">32787</text>
</g>
<!-- 2516&#45;&gt;32787 -->
<g id="edge12" class="edge">
<title>2516&#45;&gt;32787</title>
<path fill="none" stroke="#000000" d="M22964.4609,-1329.4475C22701.7577,-1329.4475 20733.4192,-1329.4475 20417.2325,-1329.4475"/>
<polygon fill="#000000" stroke="#000000" points="20417.1031,-1325.9476 20407.1031,-1329.4475 20417.1031,-1332.9476 20417.1031,-1325.9476"/>
</g>
<!-- 2686 -->
<g id="node11" class="node">
<title>2686</title>
<ellipse fill="none" stroke="#000000" cx="1115.8187" cy="-7484.3397" rx="28.6953" ry="18"/>
<text text-anchor="middle" x="1115.8187" y="-7480.6397" font-family="Times,serif" font-size="14.00" fill="#000000">2686</text>
</g>
<!-- 3741 -->
<g id="node22" class="node">
<title>3741</title>
<ellipse fill="none" stroke="#000000" cx="1062.0146" cy="-7366.8815" rx="28.6953" ry="18"/>
<text text-anchor="middle" x="1062.0146" y="-7363.1815" font-family="Times,serif" font-size="14.00" fill="#000000">3741</text>
</g>
<!-- 2686&#45;&gt;3741 -->
<g id="edge13" class="edge">
<title>2686&#45;&gt;3741</title>
<path fill="none" stroke="#000000" d="M1107.8797,-7467.0084C1099.0185,-7447.6636 1084.5722,-7416.1265 1074.2608,-7393.6158"/>
<polygon fill="#000000" stroke="#000000" points="1077.3328,-7391.9179 1069.9861,-7384.284 1070.9687,-7394.8331 1077.3328,-7391.9179"/>
</g>
<!-- 2687 -->
<g id="node12" class="node">
<title>2687</title>
<ellipse fill="none" stroke="#000000" cx="1169.6229" cy="-7601.798" rx="28.6953" ry="18"/>
<text text-anchor="middle" x="1169.6229" y="-7598.098" font-family="Times,serif" font-size="14.00" fill="#000000">2687</text>
</g>
<!-- 2687&#45;&gt;2686 -->
<g id="edge14" class="edge">
<title>2687&#45;&gt;2686</title>
<path fill="none" stroke="#000000" d="M1161.6839,-7584.4666C1152.8226,-7565.1219 1138.3764,-7533.5847 1128.0649,-7511.074"/>
<polygon fill="#000000" stroke="#000000" points="1131.137,-7509.3762 1123.7903,-7501.7422 1124.7729,-7512.2914 1131.137,-7509.3762"/>
</g>
<!-- 9505 -->
<g id="node44" class="node">
<title>9505</title>
<ellipse fill="none" stroke="#000000" cx="1278.8552" cy="-7840.2599" rx="28.6953" ry="18"/>
<text text-anchor="middle" x="1278.8552" y="-7836.5599" font-family="Times,serif" font-size="14.00" fill="#000000">9505</text>
</g>
<!-- 2687&#45;&gt;9505 -->
<g id="edge15" class="edge">
<title>2687&#45;&gt;9505</title>
<path fill="none" stroke="#000000" d="M1177.655,-7619.3327C1196.5534,-7660.5893 1243.9346,-7764.0257 1266.515,-7813.3203"/>
<polygon fill="#000000" stroke="#000000" points="1263.4647,-7815.0656 1270.8113,-7822.6995 1269.8288,-7812.1503 1263.4647,-7815.0656"/>
</g>
<!-- 2764 -->
<g id="node13" class="node">
<title>2764</title>
<ellipse fill="none" stroke="#000000" cx="20374.4302" cy="-2640.895" rx="28.6953" ry="18"/>
<text text-anchor="middle" x="20374.4302" y="-2637.195" font-family="Times,serif" font-size="14.00" fill="#000000">2764</text>
</g>
<!-- 7545 -->
<g id="node39" class="node">
<title>7545</title>
<ellipse fill="none" stroke="#000000" cx="20970.3672" cy="-2372.0468" rx="28.6953" ry="18"/>
<text text-anchor="middle" x="20970.3672" y="-2368.3468" font-family="Times,serif" font-size="14.00" fill="#000000">7545</text>
</g>
<!-- 2764&#45;&gt;7545 -->
<g id="edge16" class="edge">
<title>2764&#45;&gt;7545</title>
<path fill="none" stroke="#000000" d="M20397.7916,-2630.3559C20490.1329,-2588.6975 20829.8706,-2435.4298 20937.4614,-2386.8918"/>
<polygon fill="#000000" stroke="#000000" points="20939.1685,-2389.9614 20946.8445,-2382.6588 20936.2898,-2383.5807 20939.1685,-2389.9614"/>
</g>
<!-- 38333 -->
<g id="node61" class="node">
<title>38333</title>
<ellipse fill="none" stroke="#000000" cx="20145.9655" cy="-3183.9722" rx="32.4942" ry="18"/>
<text text-anchor="middle" x="20145.9655" y="-3180.2722" font-family="Times,serif" font-size="14.00" fill="#000000">38333</text>
</g>
<!-- 2764&#45;&gt;38333 -->
<g id="edge17" class="edge">
<title>2764&#45;&gt;38333</title>
<path fill="none" stroke="#000000" d="M20367.0875,-2658.3491C20333.8924,-2737.2561 20197.7192,-3060.9499 20157.3165,-3156.9901"/>
<polygon fill="#000000" stroke="#000000" points="20154.0472,-3155.7354 20153.3956,-3166.3102 20160.4995,-3158.4498 20154.0472,-3155.7354"/>
</g>
<!-- 38561 -->
<g id="node62" class="node">
<title>38561</title>
<ellipse fill="none" stroke="#000000" cx="19778.4931" cy="-2372.0468" rx="32.4942" ry="18"/>
<text text-anchor="middle" x="19778.4931" y="-2368.3468" font-family="Times,serif" font-size="14.00" fill="#000000">38561</text>
</g>
<!-- 2764&#45;&gt;38561 -->
<g id="edge18" class="edge">
<title>2764&#45;&gt;38561</title>
<path fill="none" stroke="#000000" d="M20351.0687,-2630.3559C20259.2611,-2588.9382 19922.9084,-2437.1977 19813.2876,-2387.7438"/>
<polygon fill="#000000" stroke="#000000" points="19814.5493,-2384.4734 19803.9947,-2383.5515 19811.6707,-2390.8542 19814.5493,-2384.4734"/>
</g>
<!-- 2828 -->
<g id="node14" class="node">
<title>2828</title>
<ellipse fill="none" stroke="#000000" cx="25676.3313" cy="-1028.1081" rx="28.6953" ry="18"/>
<text text-anchor="middle" x="25676.3313" y="-1024.4081" font-family="Times,serif" font-size="14.00" fill="#000000">2828</text>
</g>
<!-- 2914 -->
<g id="node15" class="node">
<title>2914</title>
<ellipse fill="none" stroke="#000000" cx="3065.3956" cy="-6693.4383" rx="28.6953" ry="18"/>
<text text-anchor="middle" x="3065.3956" y="-6689.7383" font-family="Times,serif" font-size="14.00" fill="#000000">2914</text>
</g>
<!-- 6453 -->
<g id="node29" class="node">
<title>6453</title>
<ellipse fill="none" stroke="#000000" cx="3194.5905" cy="-6693.4383" rx="28.6953" ry="18"/>
<text text-anchor="middle" x="3194.5905" y="-6689.7383" font-family="Times,serif" font-size="14.00" fill="#000000">6453</text>
</g>
<!-- 2914&#45;&gt;6453 -->
<g id="edge19" class="edge">
<title>2914&#45;&gt;6453</title>
<path fill="none" stroke="#000000" d="M3094.0681,-6693.4383C3112.0902,-6693.4383 3135.5825,-6693.4383 3155.3242,-6693.4383"/>
<polygon fill="#000000" stroke="#000000" points="3155.5514,-6696.9384 3165.5513,-6693.4383 3155.5513,-6689.9384 3155.5514,-6696.9384"/>
</g>
<!-- 3257 -->
<g id="node16" class="node">
<title>3257</title>
<ellipse fill="none" stroke="#000000" cx="3323.7854" cy="-6693.4383" rx="28.6953" ry="18"/>
<text text-anchor="middle" x="3323.7854" y="-6689.7383" font-family="Times,serif" font-size="14.00" fill="#000000">3257</text>
</g>
<!-- 3491 -->
<g id="node19" class="node">
<title>3491</title>
<ellipse fill="none" stroke="#000000" cx="3452.9803" cy="-6693.4383" rx="28.6953" ry="18"/>
<text text-anchor="middle" x="3452.9803" y="-6689.7383" font-family="Times,serif" font-size="14.00" fill="#000000">3491</text>
</g>
<!-- 3257&#45;&gt;3491 -->
<g id="edge20" class="edge">
<title>3257&#45;&gt;3491</title>
<path fill="none" stroke="#000000" d="M3352.4579,-6693.4383C3370.4801,-6693.4383 3393.9723,-6693.4383 3413.714,-6693.4383"/>
<polygon fill="#000000" stroke="#000000" points="3413.9412,-6696.9384 3423.9412,-6693.4383 3413.9412,-6689.9384 3413.9412,-6696.9384"/>
</g>
<!-- 3320 -->
<g id="node17" class="node">
<title>3320</title>
<ellipse fill="none" stroke="#000000" cx="23121.023" cy="-11452.654" rx="28.6953" ry="18"/>
<text text-anchor="middle" x="23121.023" y="-11448.954" font-family="Times,serif" font-size="14.00" fill="#000000">3320</text>
</g>
<!-- 3320&#45;&gt;1273 -->
<g id="edge21" class="edge">
<title>3320&#45;&gt;1273</title>
<path fill="none" stroke="#000000" d="M23121.023,-11470.8904C23121.023,-11492.4354 23121.023,-11528.5228 23121.023,-11553.6713"/>
<polygon fill="#000000" stroke="#000000" points="23117.5231,-11553.7052 23121.023,-11563.7052 23124.5231,-11553.7052 23117.5231,-11553.7052"/>
</g>
<!-- 3356 -->
<g id="node18" class="node">
<title>3356</title>
<ellipse fill="none" stroke="#000000" cx="571.6954" cy="-6320.8629" rx="28.6953" ry="18"/>
<text text-anchor="middle" x="571.6954" y="-6317.1629" font-family="Times,serif" font-size="14.00" fill="#000000">3356</text>
</g>
<!-- 3549 -->
<g id="node20" class="node">
<title>3549</title>
<ellipse fill="none" stroke="#000000" cx="571.6954" cy="-6693.4383" rx="28.6953" ry="18"/>
<text text-anchor="middle" x="571.6954" y="-6689.7383" font-family="Times,serif" font-size="14.00" fill="#000000">3549</text>
</g>
<!-- 3356&#45;&gt;3549 -->
<g id="edge22" class="edge">
<title>3356&#45;&gt;3549</title>
<path fill="none" stroke="#000000" d="M571.6954,-6339.0852C571.6954,-6399.2565 571.6954,-6591.9157 571.6954,-6664.9787"/>
<polygon fill="#000000" stroke="#000000" points="568.1955,-6665.251 571.6954,-6675.2511 575.1955,-6665.2511 568.1955,-6665.251"/>
</g>
<!-- 3491&#45;&gt;174 -->
<g id="edge23" class="edge">
<title>3491&#45;&gt;174</title>
<path fill="none" stroke="#000000" d="M3481.8401,-6693.4383C3997.5013,-6693.4383 11257.5495,-6693.4383 11842.1215,-6693.4383"/>
<polygon fill="#000000" stroke="#000000" points="11842.1327,-6696.9384 11852.1327,-6693.4383 11842.1327,-6689.9384 11842.1327,-6696.9384"/>
</g>
<!-- 6762 -->
<g id="node32" class="node">
<title>6762</title>
<ellipse fill="none" stroke="#000000" cx="2936.2006" cy="-6693.4383" rx="28.6953" ry="18"/>
<text text-anchor="middle" x="2936.2006" y="-6689.7383" font-family="Times,serif" font-size="14.00" fill="#000000">6762</text>
</g>
<!-- 3549&#45;&gt;6762 -->
<g id="edge24" class="edge">
<title>3549&#45;&gt;6762</title>
<path fill="none" stroke="#000000" d="M600.3163,-6693.4383C846.9122,-6693.4383 2610.6567,-6693.4383 2896.9733,-6693.4383"/>
<polygon fill="#000000" stroke="#000000" points="2897.2789,-6696.9384 2907.2789,-6693.4383 2897.2789,-6689.9384 2897.2789,-6696.9384"/>
</g>
<!-- 30070 -->
<g id="node58" class="node">
<title>30070</title>
<ellipse fill="none" stroke="#000000" cx="571.6954" cy="-7875.6909" rx="32.4942" ry="18"/>
<text text-anchor="middle" x="571.6954" y="-7871.9909" font-family="Times,serif" font-size="14.00" fill="#000000">30070</text>
</g>
<!-- 3549&#45;&gt;30070 -->
<g id="edge25" class="edge">
<title>3549&#45;&gt;30070</title>
<path fill="none" stroke="#000000" d="M571.6954,-6711.5356C571.6954,-6845.4354 571.6954,-7681.6729 571.6954,-7847.2289"/>
<polygon fill="#000000" stroke="#000000" points="568.1955,-7847.5619 571.6954,-7857.5619 575.1955,-7847.562 568.1955,-7847.5619"/>
</g>
<!-- 3597 -->
<g id="node21" class="node">
<title>3597</title>
<ellipse fill="none" stroke="#000000" cx="722.1828" cy="-5310.0501" rx="28.6953" ry="18"/>
<text text-anchor="middle" x="722.1828" y="-5306.3501" font-family="Times,serif" font-size="14.00" fill="#000000">3597</text>
</g>
<!-- 37179 -->
<g id="node60" class="node">
<title>37179</title>
<ellipse fill="none" stroke="#000000" cx="1006.5864" cy="-7245.8778" rx="32.4942" ry="18"/>
<text text-anchor="middle" x="1006.5864" y="-7242.1778" font-family="Times,serif" font-size="14.00" fill="#000000">37179</text>
</g>
<!-- 3741&#45;&gt;37179 -->
<g id="edge26" class="edge">
<title>3741&#45;&gt;37179</title>
<path fill="none" stroke="#000000" d="M1054.0731,-7349.5446C1044.9057,-7329.5315 1029.7155,-7296.3703 1018.9874,-7272.9501"/>
<polygon fill="#000000" stroke="#000000" points="1022.0401,-7271.21 1014.6934,-7263.5761 1015.676,-7274.1252 1022.0401,-7271.21"/>
</g>
<!-- 4635 -->
<g id="node23" class="node">
<title>4635</title>
<ellipse fill="none" stroke="#000000" cx="20672.132" cy="-2238.2154" rx="28.6953" ry="18"/>
<text text-anchor="middle" x="20672.132" y="-2234.5154" font-family="Times,serif" font-size="14.00" fill="#000000">4635</text>
</g>
<!-- 4637 -->
<g id="node24" class="node">
<title>4637</title>
<ellipse fill="none" stroke="#000000" cx="25726.4016" cy="-1147.2059" rx="28.6953" ry="18"/>
<text text-anchor="middle" x="25726.4016" y="-1143.5059" font-family="Times,serif" font-size="14.00" fill="#000000">4637</text>
</g>
<!-- 4637&#45;&gt;2828 -->
<g id="edge27" class="edge">
<title>4637&#45;&gt;2828</title>
<path fill="none" stroke="#000000" d="M25719.0135,-1129.6326C25710.7672,-1110.0178 25697.3235,-1078.0405 25687.7276,-1055.2155"/>
<polygon fill="#000000" stroke="#000000" points="25690.8517,-1053.6155 25683.7496,-1045.7535 25684.3988,-1056.3284 25690.8517,-1053.6155"/>
</g>
<!-- 4739 -->
<g id="node25" class="node">
<title>4739</title>
<ellipse fill="none" stroke="#000000" cx="21088.1328" cy="-2318.9186" rx="28.6953" ry="18"/>
<text text-anchor="middle" x="21088.1328" y="-2315.2186" font-family="Times,serif" font-size="14.00" fill="#000000">4739</text>
</g>
<!-- 38880 -->
<g id="node63" class="node">
<title>38880</title>
<ellipse fill="none" stroke="#000000" cx="21327.2185" cy="-2211.0586" rx="32.4942" ry="18"/>
<text text-anchor="middle" x="21327.2185" y="-2207.3586" font-family="Times,serif" font-size="14.00" fill="#000000">38880</text>
</g>
<!-- 4739&#45;&gt;38880 -->
<g id="edge28" class="edge">
<title>4739&#45;&gt;38880</title>
<path fill="none" stroke="#000000" d="M21111.4926,-2308.3802C21153.7928,-2289.2971 21243.2599,-2248.9353 21292.653,-2226.6524"/>
<polygon fill="#000000" stroke="#000000" points="21294.2953,-2229.7512 21301.9714,-2222.4485 21291.4167,-2223.3704 21294.2953,-2229.7512"/>
</g>
<!-- 4755 -->
<g id="node26" class="node">
<title>4755</title>
<ellipse fill="none" stroke="#000000" cx="25699.8551" cy="-1574.8329" rx="28.6953" ry="18"/>
<text text-anchor="middle" x="25699.8551" y="-1571.1329" font-family="Times,serif" font-size="14.00" fill="#000000">4755</text>
</g>
<!-- 9583 -->
<g id="node45" class="node">
<title>9583</title>
<ellipse fill="none" stroke="#000000" cx="25649.7848" cy="-1693.9308" rx="28.6953" ry="18"/>
<text text-anchor="middle" x="25649.7848" y="-1690.2308" font-family="Times,serif" font-size="14.00" fill="#000000">9583</text>
</g>
<!-- 4755&#45;&gt;9583 -->
<g id="edge29" class="edge">
<title>4755&#45;&gt;9583</title>
<path fill="none" stroke="#000000" d="M25692.467,-1592.4062C25684.2207,-1612.021 25670.777,-1643.9984 25661.1811,-1666.8233"/>
<polygon fill="#000000" stroke="#000000" points="25657.8523,-1665.7104 25657.2031,-1676.2854 25664.3052,-1668.4234 25657.8523,-1665.7104"/>
</g>
<!-- 5692 -->
<g id="node28" class="node">
<title>5692</title>
<ellipse fill="none" stroke="#000000" cx="976.534" cy="-5378.0911" rx="28.6953" ry="18"/>
<text text-anchor="middle" x="976.534" y="-5374.3911" font-family="Times,serif" font-size="14.00" fill="#000000">5692</text>
</g>
<!-- 5692&#45;&gt;3597 -->
<g id="edge30" class="edge">
<title>5692&#45;&gt;3597</title>
<path fill="none" stroke="#000000" d="M949.7947,-5370.9381C903.8781,-5358.655 810.0038,-5333.5429 758.3129,-5319.7151"/>
<polygon fill="#000000" stroke="#000000" points="759.1287,-5316.3104 748.5638,-5317.1072 757.3197,-5323.0726 759.1287,-5316.3104"/>
</g>
<!-- 10834 -->
<g id="node48" class="node">
<title>10834</title>
<ellipse fill="none" stroke="#000000" cx="571.6954" cy="-5378.0911" rx="32.4942" ry="18"/>
<text text-anchor="middle" x="571.6954" y="-5374.3911" font-family="Times,serif" font-size="14.00" fill="#000000">10834</text>
</g>
<!-- 5692&#45;&gt;10834 -->
<g id="edge31" class="edge">
<title>5692&#45;&gt;10834</title>
<path fill="none" stroke="#000000" d="M947.7436,-5378.0911C877.4974,-5378.0911 697.032,-5378.0911 614.2938,-5378.0911"/>
<polygon fill="#000000" stroke="#000000" points="614.2303,-5374.5912 604.2303,-5378.0911 614.2302,-5381.5912 614.2303,-5374.5912"/>
</g>
<!-- 11008 -->
<g id="node49" class="node">
<title>11008</title>
<ellipse fill="none" stroke="#000000" cx="786.9418" cy="-5195.3921" rx="32.4942" ry="18"/>
<text text-anchor="middle" x="786.9418" y="-5191.6921" font-family="Times,serif" font-size="14.00" fill="#000000">11008</text>
</g>
<!-- 5692&#45;&gt;11008 -->
<g id="edge32" class="edge">
<title>5692&#45;&gt;11008</title>
<path fill="none" stroke="#000000" d="M960.6956,-5362.8285C927.3217,-5330.668 849.6265,-5255.7978 810.437,-5218.0331"/>
<polygon fill="#000000" stroke="#000000" points="812.7665,-5215.4173 803.137,-5210.9986 807.9092,-5220.4578 812.7665,-5215.4173"/>
</g>
<!-- 27865 -->
<g id="node56" class="node">
<title>27865</title>
<ellipse fill="none" stroke="#000000" cx="902.8594" cy="-5125.3142" rx="32.4942" ry="18"/>
<text text-anchor="middle" x="902.8594" y="-5121.6142" font-family="Times,serif" font-size="14.00" fill="#000000">27865</text>
</g>
<!-- 5692&#45;&gt;27865 -->
<g id="edge33" class="edge">
<title>5692&#45;&gt;27865</title>
<path fill="none" stroke="#000000" d="M971.3534,-5360.3163C958.7023,-5316.9104 926.1584,-5205.2525 910.9356,-5153.0233"/>
<polygon fill="#000000" stroke="#000000" points="914.2914,-5152.0288 908.133,-5143.4076 907.5711,-5153.9876 914.2914,-5152.0288"/>
</g>
<!-- 28065 -->
<g id="node57" class="node">
<title>28065</title>
<ellipse fill="none" stroke="#000000" cx="1038.2764" cy="-5122.1379" rx="32.4942" ry="18"/>
<text text-anchor="middle" x="1038.2764" y="-5118.4379" font-family="Times,serif" font-size="14.00" fill="#000000">28065</text>
</g>
<!-- 5692&#45;&gt;28065 -->
<g id="edge34" class="edge">
<title>5692&#45;&gt;28065</title>
<path fill="none" stroke="#000000" d="M980.8756,-5360.093C991.4814,-5316.1268 1018.7694,-5203.0042 1031.5212,-5150.1415"/>
<polygon fill="#000000" stroke="#000000" points="1034.9969,-5150.6581 1033.9396,-5140.1162 1028.1921,-5149.0166 1034.9969,-5150.6581"/>
</g>
<!-- 52317 -->
<g id="node64" class="node">
<title>52317</title>
<ellipse fill="none" stroke="#000000" cx="1157.3521" cy="-5186.7042" rx="32.4942" ry="18"/>
<text text-anchor="middle" x="1157.3521" y="-5183.0042" font-family="Times,serif" font-size="14.00" fill="#000000">52317</text>
</g>
<!-- 5692&#45;&gt;52317 -->
<g id="edge35" class="edge">
<title>5692&#45;&gt;52317</title>
<path fill="none" stroke="#000000" d="M991.3311,-5362.4291C1023.0396,-5328.8673 1097.6904,-5249.8531 1135.1276,-5210.2277"/>
<polygon fill="#000000" stroke="#000000" points="1137.7717,-5212.5255 1142.0951,-5202.8529 1132.6835,-5207.7182 1137.7717,-5212.5255"/>
</g>
<!-- 52375 -->
<g id="node65" class="node">
<title>52375</title>
<ellipse fill="none" stroke="#000000" cx="1228.5712" cy="-5301.9242" rx="32.4942" ry="18"/>
<text text-anchor="middle" x="1228.5712" y="-5298.2242" font-family="Times,serif" font-size="14.00" fill="#000000">52375</text>
</g>
<!-- 5692&#45;&gt;52375 -->
<g id="edge36" class="edge">
<title>5692&#45;&gt;52375</title>
<path fill="none" stroke="#000000" d="M1002.5572,-5370.2268C1047.1275,-5356.7574 1138.2735,-5329.2127 1190.1699,-5313.5293"/>
<polygon fill="#000000" stroke="#000000" points="1191.4404,-5316.8018 1200.0004,-5310.5585 1189.4154,-5310.101 1191.4404,-5316.8018"/>
</g>
<!-- 52376 -->
<g id="node66" class="node">
<title>52376</title>
<ellipse fill="none" stroke="#000000" cx="1233.0844" cy="-5437.3032" rx="32.4942" ry="18"/>
<text text-anchor="middle" x="1233.0844" y="-5433.6032" font-family="Times,serif" font-size="14.00" fill="#000000">52376</text>
</g>
<!-- 5692&#45;&gt;52376 -->
<g id="edge37" class="edge">
<title>5692&#45;&gt;52376</title>
<path fill="none" stroke="#000000" d="M1003.5045,-5384.3159C1048.7327,-5394.7546 1140.0922,-5415.8405 1192.907,-5428.0302"/>
<polygon fill="#000000" stroke="#000000" points="1192.4,-5431.5051 1202.931,-5430.3438 1193.9743,-5424.6844 1192.4,-5431.5051"/>
</g>
<!-- 52380 -->
<g id="node67" class="node">
<title>52380</title>
<ellipse fill="none" stroke="#000000" cx="1169.697" cy="-5557.0106" rx="32.4942" ry="18"/>
<text text-anchor="middle" x="1169.697" y="-5553.3106" font-family="Times,serif" font-size="14.00" fill="#000000">52380</text>
</g>
<!-- 5692&#45;&gt;52380 -->
<g id="edge38" class="edge">
<title>5692&#45;&gt;52380</title>
<path fill="none" stroke="#000000" d="M992.6708,-5393.038C1026.5883,-5424.4544 1105.4362,-5497.4883 1145.4591,-5534.56"/>
<polygon fill="#000000" stroke="#000000" points="1143.2064,-5537.2442 1152.9212,-5541.4719 1147.9632,-5532.1087 1143.2064,-5537.2442"/>
</g>
<!-- 52413 -->
<g id="node68" class="node">
<title>52413</title>
<ellipse fill="none" stroke="#000000" cx="1055.1858" cy="-5629.364" rx="32.4942" ry="18"/>
<text text-anchor="middle" x="1055.1858" y="-5625.664" font-family="Times,serif" font-size="14.00" fill="#000000">52413</text>
</g>
<!-- 5692&#45;&gt;52413 -->
<g id="edge39" class="edge">
<title>5692&#45;&gt;52413</title>
<path fill="none" stroke="#000000" d="M982.0647,-5395.7601C995.5705,-5438.9078 1030.3129,-5549.9013 1046.5641,-5601.8197"/>
<polygon fill="#000000" stroke="#000000" points="1043.2285,-5602.8803 1049.556,-5611.3781 1049.9089,-5600.7892 1043.2285,-5602.8803"/>
</g>
<!-- 52431 -->
<g id="node69" class="node">
<title>52431</title>
<ellipse fill="none" stroke="#000000" cx="919.858" cy="-5635.2136" rx="32.4942" ry="18"/>
<text text-anchor="middle" x="919.858" y="-5631.5136" font-family="Times,serif" font-size="14.00" fill="#000000">52431</text>
</g>
<!-- 5692&#45;&gt;52431 -->
<g id="edge40" class="edge">
<title>5692&#45;&gt;52431</title>
<path fill="none" stroke="#000000" d="M972.5487,-5396.1715C962.8132,-5440.3385 937.7643,-5553.978 926.0589,-5607.0821"/>
<polygon fill="#000000" stroke="#000000" points="922.5736,-5606.6342 923.8389,-5617.1532 929.4095,-5608.1411 922.5736,-5606.6342"/>
</g>
<!-- 262230 -->
<g id="node70" class="node">
<title>262230</title>
<ellipse fill="none" stroke="#000000" cx="796.189" cy="-5569.9238" rx="37.0935" ry="18"/>
<text text-anchor="middle" x="796.189" y="-5566.2238" font-family="Times,serif" font-size="14.00" fill="#000000">262230</text>
</g>
<!-- 5692&#45;&gt;262230 -->
<g id="edge41" class="edge">
<title>5692&#45;&gt;262230</title>
<path fill="none" stroke="#000000" d="M961.7756,-5393.7896C930.229,-5427.3457 856.0656,-5506.2331 818.6353,-5546.0477"/>
<polygon fill="#000000" stroke="#000000" points="815.9621,-5543.7814 811.6626,-5553.4646 821.0622,-5548.5761 815.9621,-5543.7814"/>
</g>
<!-- 264608 -->
<g id="node71" class="node">
<title>264608</title>
<ellipse fill="none" stroke="#000000" cx="722.1828" cy="-5446.1322" rx="37.0935" ry="18"/>
<text text-anchor="middle" x="722.1828" y="-5442.4322" font-family="Times,serif" font-size="14.00" fill="#000000">264608</text>
</g>
<!-- 5692&#45;&gt;264608 -->
<g id="edge42" class="edge">
<title>5692&#45;&gt;264608</title>
<path fill="none" stroke="#000000" d="M949.7947,-5385.2441C905.6996,-5397.0399 817.3764,-5420.6671 764.6582,-5434.7697"/>
<polygon fill="#000000" stroke="#000000" points="763.6861,-5431.4066 754.9303,-5437.372 765.4951,-5438.1688 763.6861,-5431.4066"/>
</g>
<!-- 6453&#45;&gt;3257 -->
<g id="edge43" class="edge">
<title>6453&#45;&gt;3257</title>
<path fill="none" stroke="#000000" d="M3223.263,-6693.4383C3241.2851,-6693.4383 3264.7774,-6693.4383 3284.5191,-6693.4383"/>
<polygon fill="#000000" stroke="#000000" points="3284.7463,-6696.9384 3294.7463,-6693.4383 3284.7462,-6689.9384 3284.7463,-6696.9384"/>
</g>
<!-- 6461&#45;&gt;2497 -->
<g id="edge44" class="edge">
<title>6461&#45;&gt;2497</title>
<path fill="none" stroke="#000000" d="M12290.9216,-6693.4383C12308.9437,-6693.4383 12332.436,-6693.4383 12352.1777,-6693.4383"/>
<polygon fill="#000000" stroke="#000000" points="12352.4049,-6696.9384 12362.4049,-6693.4383 12352.4048,-6689.9384 12352.4049,-6696.9384"/>
</g>
<!-- 6695 -->
<g id="node31" class="node">
<title>6695</title>
<ellipse fill="none" stroke="#000000" cx="21219.1593" cy="-2133.3581" rx="28.6953" ry="18"/>
<text text-anchor="middle" x="21219.1593" y="-2129.6581" font-family="Times,serif" font-size="14.00" fill="#000000">6695</text>
</g>
<!-- 6762&#45;&gt;2914 -->
<g id="edge45" class="edge">
<title>6762&#45;&gt;2914</title>
<path fill="none" stroke="#000000" d="M2964.8732,-6693.4383C2982.8953,-6693.4383 3006.3875,-6693.4383 3026.1292,-6693.4383"/>
<polygon fill="#000000" stroke="#000000" points="3026.3564,-6696.9384 3036.3564,-6693.4383 3026.3564,-6689.9384 3026.3564,-6696.9384"/>
</g>
<!-- 6904 -->
<g id="node33" class="node">
<title>6904</title>
<ellipse fill="none" stroke="#000000" cx="692.6991" cy="-7820.2627" rx="28.6953" ry="18"/>
<text text-anchor="middle" x="692.6991" y="-7816.5627" font-family="Times,serif" font-size="14.00" fill="#000000">6904</text>
</g>
<!-- 6904&#45;&gt;2687 -->
<g id="edge46" class="edge">
<title>6904&#45;&gt;2687</title>
<path fill="none" stroke="#000000" d="M716.025,-7809.5778C794.1557,-7773.7884 1046.7912,-7658.0635 1137.1296,-7616.6822"/>
<polygon fill="#000000" stroke="#000000" points="1138.708,-7619.809 1146.3419,-7612.4623 1135.7927,-7613.4449 1138.708,-7619.809"/>
</g>
<!-- 6939 -->
<g id="node34" class="node">
<title>6939</title>
<ellipse fill="none" stroke="#000000" cx="22854.8338" cy="-12251.2215" rx="28.6953" ry="18"/>
<text text-anchor="middle" x="22854.8338" y="-12247.5215" font-family="Times,serif" font-size="14.00" fill="#000000">6939</text>
</g>
<!-- 12266 -->
<g id="node50" class="node">
<title>12266</title>
<ellipse fill="none" stroke="#000000" cx="22721.7393" cy="-12251.2215" rx="32.4942" ry="18"/>
<text text-anchor="middle" x="22721.7393" y="-12247.5215" font-family="Times,serif" font-size="14.00" fill="#000000">12266</text>
</g>
<!-- 6939&#45;&gt;12266 -->
<g id="edge47" class="edge">
<title>6939&#45;&gt;12266</title>
<path fill="none" stroke="#000000" d="M22825.9543,-12251.2215C22807.9853,-12251.2215 22784.5531,-12251.2215 22764.4597,-12251.2215"/>
<polygon fill="#000000" stroke="#000000" points="22764.3032,-12247.7216 22754.3032,-12251.2215 22764.3032,-12254.7216 22764.3032,-12247.7216"/>
</g>
<!-- 7016 -->
<g id="node35" class="node">
<title>7016</title>
<ellipse fill="none" stroke="#000000" cx="373.4627" cy="-8365.5822" rx="28.6953" ry="18"/>
<text text-anchor="middle" x="373.4627" y="-8361.8822" font-family="Times,serif" font-size="14.00" fill="#000000">7016</text>
</g>
<!-- 7922 -->
<g id="node40" class="node">
<title>7922</title>
<ellipse fill="none" stroke="#000000" cx="325.0016" cy="-8485.3438" rx="28.6953" ry="18"/>
<text text-anchor="middle" x="325.0016" y="-8481.6438" font-family="Times,serif" font-size="14.00" fill="#000000">7922</text>
</g>
<!-- 7016&#45;&gt;7922 -->
<g id="edge48" class="edge">
<title>7016&#45;&gt;7922</title>
<path fill="none" stroke="#000000" d="M366.3121,-8383.2534C358.3309,-8402.9775 345.3192,-8435.1331 336.0317,-8458.0853"/>
<polygon fill="#000000" stroke="#000000" points="332.6882,-8457.0174 332.1816,-8467.6001 339.1771,-8459.6431 332.6882,-8457.0174"/>
</g>
<!-- 7018&#45;&gt;3320 -->
<g id="edge49" class="edge">
<title>7018&#45;&gt;3320</title>
<path fill="none" stroke="#000000" d="M23121.023,-11341.6955C23121.023,-11363.2405 23121.023,-11399.3278 23121.023,-11424.4764"/>
<polygon fill="#000000" stroke="#000000" points="23117.5231,-11424.5103 23121.023,-11434.5103 23124.5231,-11424.5103 23117.5231,-11424.5103"/>
</g>
<!-- 7473 -->
<g id="node37" class="node">
<title>7473</title>
<ellipse fill="none" stroke="#000000" cx="26063.0751" cy="-1295.2962" rx="28.6953" ry="18"/>
<text text-anchor="middle" x="26063.0751" y="-1291.5962" font-family="Times,serif" font-size="14.00" fill="#000000">7473</text>
</g>
<!-- 7474 -->
<g id="node38" class="node">
<title>7474</title>
<ellipse fill="none" stroke="#000000" cx="20374.4302" cy="-18" rx="28.6953" ry="18"/>
<text text-anchor="middle" x="20374.4302" y="-14.3" font-family="Times,serif" font-size="14.00" fill="#000000">7474</text>
</g>
<!-- 7545&#45;&gt;4635 -->
<g id="edge50" class="edge">
<title>7545&#45;&gt;4635</title>
<path fill="none" stroke="#000000" d="M20946.9652,-2361.5453C20894.1546,-2337.8468 20765.6126,-2280.1643 20704.9081,-2252.9235"/>
<polygon fill="#000000" stroke="#000000" points="20705.9818,-2249.5691 20695.4253,-2248.6682 20703.1159,-2255.9556 20705.9818,-2249.5691"/>
</g>
<!-- 7545&#45;&gt;4739 -->
<g id="edge51" class="edge">
<title>7545&#45;&gt;4739</title>
<path fill="none" stroke="#000000" d="M20993.6339,-2361.5504C21011.2613,-2353.5981 21035.7099,-2342.5685 21055.3227,-2333.7204"/>
<polygon fill="#000000" stroke="#000000" points="21056.8353,-2336.8778 21064.5113,-2329.5751 21053.9567,-2330.497 21056.8353,-2336.8778"/>
</g>
<!-- 9942 -->
<g id="node46" class="node">
<title>9942</title>
<ellipse fill="none" stroke="#000000" cx="20873.331" cy="-2684.1991" rx="28.6953" ry="18"/>
<text text-anchor="middle" x="20873.331" y="-2680.4991" font-family="Times,serif" font-size="14.00" fill="#000000">9942</text>
</g>
<!-- 7545&#45;&gt;9942 -->
<g id="edge52" class="edge">
<title>7545&#45;&gt;9942</title>
<path fill="none" stroke="#000000" d="M20964.8721,-2389.7239C20948.7313,-2441.6466 20901.3761,-2593.9818 20881.874,-2656.7174"/>
<polygon fill="#000000" stroke="#000000" points="20878.5124,-2655.7408 20878.8861,-2666.329 20885.1969,-2657.8188 20878.5124,-2655.7408"/>
</g>
<!-- 9002 -->
<g id="node41" class="node">
<title>9002</title>
<ellipse fill="none" stroke="#000000" cx="21448.5387" cy="-2156.3268" rx="28.6953" ry="18"/>
<text text-anchor="middle" x="21448.5387" y="-2152.6268" font-family="Times,serif" font-size="14.00" fill="#000000">9002</text>
</g>
<!-- 9443 -->
<g id="node42" class="node">
<title>9443</title>
<ellipse fill="none" stroke="#000000" cx="21313.9576" cy="-2343.4909" rx="28.6953" ry="18"/>
<text text-anchor="middle" x="21313.9576" y="-2339.7909" font-family="Times,serif" font-size="14.00" fill="#000000">9443</text>
</g>
<!-- 9498&#45;&gt;4637 -->
<g id="edge53" class="edge">
<title>9498&#45;&gt;4637</title>
<path fill="none" stroke="#000000" d="M25795.6721,-1311.9734C25782.2288,-1279.9971 25753.5915,-1211.8801 25737.6696,-1174.0081"/>
<polygon fill="#000000" stroke="#000000" points="25740.8278,-1172.4891 25733.7257,-1164.6271 25734.3748,-1175.202 25740.8278,-1172.4891"/>
</g>
<!-- 9498&#45;&gt;7473 -->
<g id="edge54" class="edge">
<title>9498&#45;&gt;7473</title>
<path fill="none" stroke="#000000" d="M25831.3441,-1325.7277C25878.2417,-1319.569 25972.0665,-1307.2477 26024.8095,-1300.3213"/>
<polygon fill="#000000" stroke="#000000" points="26025.3252,-1303.7838 26034.7843,-1299.0114 26024.4137,-1296.8433 26025.3252,-1303.7838"/>
</g>
<!-- 10026 -->
<g id="node47" class="node">
<title>10026</title>
<ellipse fill="none" stroke="#000000" cx="25751.4367" cy="-1452.1402" rx="32.4942" ry="18"/>
<text text-anchor="middle" x="25751.4367" y="-1448.4402" font-family="Times,serif" font-size="14.00" fill="#000000">10026</text>
</g>
<!-- 9498&#45;&gt;10026 -->
<g id="edge55" class="edge">
<title>9498&#45;&gt;10026</title>
<path fill="none" stroke="#000000" d="M25795.628,-1347.0264C25787.048,-1367.4348 25772.799,-1401.3277 25762.8064,-1425.0962"/>
<polygon fill="#000000" stroke="#000000" points="25759.4626,-1424.019 25758.8134,-1434.594 25765.9155,-1426.732 25759.4626,-1424.019"/>
</g>
<!-- 10026&#45;&gt;4755 -->
<g id="edge56" class="edge">
<title>10026&#45;&gt;4755</title>
<path fill="none" stroke="#000000" d="M25744.0464,-1469.7191C25735.4664,-1490.1275 25721.2174,-1524.0204 25711.2248,-1547.7889"/>
<polygon fill="#000000" stroke="#000000" points="25707.8809,-1546.7117 25707.2318,-1557.2867 25714.3339,-1549.4247 25707.8809,-1546.7117"/>
</g>
<!-- 12956 -->
<g id="node51" class="node">
<title>12956</title>
<ellipse fill="none" stroke="#000000" cx="571.6954" cy="-6187.7683" rx="32.4942" ry="18"/>
<text text-anchor="middle" x="571.6954" y="-6184.0683" font-family="Times,serif" font-size="14.00" fill="#000000">12956</text>
</g>
<!-- 10834&#45;&gt;12956 -->
<g id="edge57" class="edge">
<title>10834&#45;&gt;12956</title>
<path fill="none" stroke="#000000" d="M571.6954,-5396.1376C571.6954,-5500.8847 571.6954,-6030.5229 571.6954,-6159.4472"/>
<polygon fill="#000000" stroke="#000000" points="568.1955,-6159.6783 571.6954,-6169.6783 575.1955,-6159.6783 568.1955,-6159.6783"/>
</g>
<!-- 22927 -->
<g id="node55" class="node">
<title>22927</title>
<ellipse fill="none" stroke="#000000" cx="166.8568" cy="-5378.0911" rx="32.4942" ry="18"/>
<text text-anchor="middle" x="166.8568" y="-5374.3911" font-family="Times,serif" font-size="14.00" fill="#000000">22927</text>
</g>
<!-- 10834&#45;&gt;22927 -->
<g id="edge58" class="edge">
<title>10834&#45;&gt;22927</title>
<path fill="none" stroke="#000000" d="M538.9087,-5378.0911C466.1281,-5378.0911 291.1018,-5378.0911 209.757,-5378.0911"/>
<polygon fill="#000000" stroke="#000000" points="209.3847,-5374.5912 199.3847,-5378.0911 209.3846,-5381.5912 209.3847,-5374.5912"/>
</g>
<!-- 20454 -->
<g id="node54" class="node">
<title>20454</title>
<ellipse fill="none" stroke="#000000" cx="22584.745" cy="-12251.2215" rx="32.4942" ry="18"/>
<text text-anchor="middle" x="22584.745" y="-12247.5215" font-family="Times,serif" font-size="14.00" fill="#000000">20454</text>
</g>
<!-- 12266&#45;&gt;20454 -->
<g id="edge59" class="edge">
<title>12266&#45;&gt;20454</title>
<path fill="none" stroke="#000000" d="M22688.9257,-12251.2215C22670.4561,-12251.2215 22647.1842,-12251.2215 22627.3227,-12251.2215"/>
<polygon fill="#000000" stroke="#000000" points="22627.2909,-12247.7216 22617.2908,-12251.2215 22627.2908,-12254.7216 22627.2909,-12247.7216"/>
</g>
<!-- 12956&#45;&gt;3356 -->
<g id="edge60" class="edge">
<title>12956&#45;&gt;3356</title>
<path fill="none" stroke="#000000" d="M571.6954,-6205.9955C571.6954,-6228.3965 571.6954,-6266.6464 571.6954,-6292.8052"/>
<polygon fill="#000000" stroke="#000000" points="568.1955,-6292.8558 571.6954,-6302.8559 575.1955,-6292.8559 568.1955,-6292.8558"/>
</g>
<!-- 17676&#45;&gt;6939 -->
<g id="edge61" class="edge">
<title>17676&#45;&gt;6939</title>
<path fill="none" stroke="#000000" d="M22955.3698,-12251.2215C22936.7129,-12251.2215 22913.184,-12251.2215 22893.5796,-12251.2215"/>
<polygon fill="#000000" stroke="#000000" points="22893.4409,-12247.7216 22883.4409,-12251.2215 22893.4409,-12254.7216 22893.4409,-12247.7216"/>
</g>
<!-- 18540 -->
<g id="node53" class="node">
<title>18540</title>
<ellipse fill="none" stroke="#000000" cx="32.4971" cy="-7628.7001" rx="32.4942" ry="18"/>
<text text-anchor="middle" x="32.4971" y="-7625.0001" font-family="Times,serif" font-size="14.00" fill="#000000">18540</text>
</g>
<!-- 30070&#45;&gt;6904 -->
<g id="edge62" class="edge">
<title>30070&#45;&gt;6904</title>
<path fill="none" stroke="#000000" d="M596.7675,-7864.2061C615.0902,-7855.813 640.1067,-7844.3537 659.9992,-7835.2416"/>
<polygon fill="#000000" stroke="#000000" points="661.6672,-7838.3273 669.3011,-7830.9806 658.752,-7831.9632 661.6672,-7838.3273"/>
</g>
<!-- 30070&#45;&gt;7016 -->
<g id="edge63" class="edge">
<title>30070&#45;&gt;7016</title>
<path fill="none" stroke="#000000" d="M564.5231,-7893.4158C534.6807,-7967.1652 420.2375,-8249.9879 384.3157,-8338.7613"/>
<polygon fill="#000000" stroke="#000000" points="381.0283,-8337.5547 380.5217,-8348.1374 387.5172,-8340.1804 381.0283,-8337.5547"/>
</g>
<!-- 30070&#45;&gt;18540 -->
<g id="edge64" class="edge">
<title>30070&#45;&gt;18540</title>
<path fill="none" stroke="#000000" d="M546.412,-7864.1093C458.6726,-7823.9185 167.2232,-7690.4141 66.8315,-7644.4276"/>
<polygon fill="#000000" stroke="#000000" points="68.275,-7641.2392 57.7258,-7640.2566 65.3598,-7647.6033 68.275,-7641.2392"/>
</g>
<!-- 32787&#45;&gt;2764 -->
<g id="edge65" class="edge">
<title>32787&#45;&gt;2764</title>
<path fill="none" stroke="#000000" d="M20374.4302,-1347.4875C20374.4302,-1490.1718 20374.4302,-2435.6562 20374.4302,-2612.4467"/>
<polygon fill="#000000" stroke="#000000" points="20370.9303,-2612.5258 20374.4302,-2622.5259 20377.9303,-2612.5259 20370.9303,-2612.5258"/>
</g>
<!-- 32787&#45;&gt;7474 -->
<g id="edge66" class="edge">
<title>32787&#45;&gt;7474</title>
<path fill="none" stroke="#000000" d="M20374.4302,-1311.4076C20374.4302,-1168.7233 20374.4302,-223.2388 20374.4302,-46.4483"/>
<polygon fill="#000000" stroke="#000000" points="20377.9303,-46.3692 20374.4302,-36.3692 20370.9303,-46.3692 20377.9303,-46.3692"/>
</g>
<!-- 38333&#45;&gt;1221 -->
<g id="edge67" class="edge">
<title>38333&#45;&gt;1221</title>
<path fill="none" stroke="#000000" d="M20138.571,-3201.5494C20129.9863,-3221.9558 20115.7295,-3255.8453 20105.7314,-3279.6115"/>
<polygon fill="#000000" stroke="#000000" points="20102.3878,-3278.5336 20101.7362,-3289.1084 20108.8401,-3281.2481 20102.3878,-3278.5336"/>
</g>
<!-- 38880&#45;&gt;6695 -->
<g id="edge68" class="edge">
<title>38880&#45;&gt;6695</title>
<path fill="none" stroke="#000000" d="M21307.1467,-2196.6258C21289.9977,-2184.2948 21265.1733,-2166.4448 21246.2619,-2152.8464"/>
<polygon fill="#000000" stroke="#000000" points="21248.2001,-2149.9292 21238.0378,-2146.9328 21244.1134,-2155.6125 21248.2001,-2149.9292"/>
</g>
<!-- 38880&#45;&gt;9002 -->
<g id="edge69" class="edge">
<title>38880&#45;&gt;9002</title>
<path fill="none" stroke="#000000" d="M21352.6512,-2199.585C21371.0423,-2191.2881 21396.0447,-2180.0087 21415.9076,-2171.0478"/>
<polygon fill="#000000" stroke="#000000" points="21417.5181,-2174.1611 21425.1941,-2166.8584 21414.6395,-2167.7803 21417.5181,-2174.1611"/>
</g>
<!-- 38880&#45;&gt;9443 -->
<g id="edge70" class="edge">
<title>38880&#45;&gt;9443</title>
<path fill="none" stroke="#000000" d="M21325.4025,-2229.1951C21323.183,-2251.3601 21319.402,-2289.1194 21316.7969,-2315.1355"/>
<polygon fill="#000000" stroke="#000000" points="21313.3081,-2314.8495 21315.7943,-2325.1485 21320.2733,-2315.547 21313.3081,-2314.8495"/>
</g>
</g>
</svg>
