<?xml version="1.0" encoding="UTF-8" standalone="no"?>
<!DOCTYPE svg PUBLIC "-//W3C//DTD SVG 1.1//EN"
 "http://www.w3.org/Graphics/SVG/1.1/DTD/svg11.dtd">
<!-- Generated by graphviz version 2.40.1 (20161225.0304)
 -->
<!-- Title: %3 Pages: 1 -->
<svg width="1884pt" height="1740pt"
 viewBox="0.00 0.00 1884.08 1739.82" xmlns="http://www.w3.org/2000/svg" xmlns:xlink="http://www.w3.org/1999/xlink">
<g id="graph0" class="graph" transform="scale(1 1) rotate(0) translate(4 1735.8238)">
<title>%3</title>
<polygon fill="#ffffff" stroke="transparent" points="-4,4 -4,-1735.8238 1880.0838,-1735.8238 1880.0838,4 -4,4"/>
<!-- 174 -->
<g id="node1" class="node">
<title>174</title>
<ellipse fill="none" stroke="#000000" cx="915.3947" cy="-767.5083" rx="27" ry="18"/>
<text text-anchor="middle" x="915.3947" y="-763.8083" font-family="Times,serif" font-size="14.00" fill="#000000">174</text>
</g>
<!-- 209 -->
<g id="node2" class="node">
<title>209</title>
<ellipse fill="none" stroke="#000000" cx="974.8599" cy="-820.3642" rx="27" ry="18"/>
<text text-anchor="middle" x="974.8599" y="-816.6642" font-family="Times,serif" font-size="14.00" fill="#000000">209</text>
</g>
<!-- 174&#45;&gt;209 -->
<g id="edge1" class="edge">
<title>174&#45;&gt;209</title>
<path fill="none" stroke="#000000" d="M931.6438,-781.9514C937.5435,-787.1954 944.3417,-793.238 950.7739,-798.9553"/>
<polygon fill="#000000" stroke="#000000" points="948.8309,-801.911 958.6304,-805.9385 953.4814,-796.679 948.8309,-801.911"/>
</g>
<!-- 1299 -->
<g id="node8" class="node">
<title>1299</title>
<ellipse fill="none" stroke="#000000" cx="1034.6151" cy="-873.9731" rx="28.6953" ry="18"/>
<text text-anchor="middle" x="1034.6151" y="-870.2731" font-family="Times,serif" font-size="14.00" fill="#000000">1299</text>
</g>
<!-- 209&#45;&gt;1299 -->
<g id="edge2" class="edge">
<title>209&#45;&gt;1299</title>
<path fill="none" stroke="#000000" d="M991.1883,-835.013C997.0195,-840.2445 1003.7243,-846.2597 1010.0935,-851.9737"/>
<polygon fill="#000000" stroke="#000000" points="1008.1097,-854.896 1017.8905,-858.9687 1012.7842,-849.6856 1008.1097,-854.896"/>
</g>
<!-- 701 -->
<g id="node3" class="node">
<title>701</title>
<ellipse fill="none" stroke="#000000" cx="1230.9814" cy="-1031.9277" rx="27" ry="18"/>
<text text-anchor="middle" x="1230.9814" y="-1028.2277" font-family="Times,serif" font-size="14.00" fill="#000000">701</text>
</g>
<!-- 703 -->
<g id="node4" class="node">
<title>703</title>
<ellipse fill="none" stroke="#000000" cx="1240.9682" cy="-1124.3216" rx="27" ry="18"/>
<text text-anchor="middle" x="1240.9682" y="-1120.6216" font-family="Times,serif" font-size="14.00" fill="#000000">703</text>
</g>
<!-- 701&#45;&gt;703 -->
<g id="edge3" class="edge">
<title>701&#45;&gt;703</title>
<path fill="none" stroke="#000000" d="M1232.9544,-1050.1818C1234.3633,-1063.216 1236.286,-1081.004 1237.895,-1095.8892"/>
<polygon fill="#000000" stroke="#000000" points="1234.4448,-1096.5395 1238.9992,-1106.1054 1241.4042,-1095.7872 1234.4448,-1096.5395"/>
</g>
<!-- 7018 -->
<g id="node36" class="node">
<title>7018</title>
<ellipse fill="none" stroke="#000000" cx="1300.2258" cy="-971.317" rx="28.6953" ry="18"/>
<text text-anchor="middle" x="1300.2258" y="-967.617" font-family="Times,serif" font-size="14.00" fill="#000000">7018</text>
</g>
<!-- 701&#45;&gt;7018 -->
<g id="edge4" class="edge">
<title>701&#45;&gt;7018</title>
<path fill="none" stroke="#000000" d="M1247.3913,-1017.5638C1255.8899,-1010.1249 1266.4351,-1000.8945 1275.8642,-992.6411"/>
<polygon fill="#000000" stroke="#000000" points="1278.2333,-995.2189 1283.4526,-985.9988 1273.6228,-989.9516 1278.2333,-995.2189"/>
</g>
<!-- 2516 -->
<g id="node10" class="node">
<title>2516</title>
<ellipse fill="none" stroke="#000000" cx="1190.2265" cy="-1202.5979" rx="28.6953" ry="18"/>
<text text-anchor="middle" x="1190.2265" y="-1198.8979" font-family="Times,serif" font-size="14.00" fill="#000000">2516</text>
</g>
<!-- 703&#45;&gt;2516 -->
<g id="edge5" class="edge">
<title>703&#45;&gt;2516</title>
<path fill="none" stroke="#000000" d="M1230.2072,-1140.922C1223.3916,-1151.4359 1214.4422,-1165.2416 1206.7389,-1177.1252"/>
<polygon fill="#000000" stroke="#000000" points="1203.6495,-1175.4565 1201.1469,-1185.7516 1209.5233,-1179.2642 1203.6495,-1175.4565"/>
</g>
<!-- 9498 -->
<g id="node43" class="node">
<title>9498</title>
<ellipse fill="none" stroke="#000000" cx="1328.2334" cy="-1141.5311" rx="28.6953" ry="18"/>
<text text-anchor="middle" x="1328.2334" y="-1137.8311" font-family="Times,serif" font-size="14.00" fill="#000000">9498</text>
</g>
<!-- 703&#45;&gt;9498 -->
<g id="edge6" class="edge">
<title>703&#45;&gt;9498</title>
<path fill="none" stroke="#000000" d="M1267.1507,-1129.485C1274.6342,-1130.9608 1282.9377,-1132.5983 1290.9494,-1134.1783"/>
<polygon fill="#000000" stroke="#000000" points="1290.3696,-1137.6313 1300.8579,-1136.1323 1291.724,-1130.7636 1290.3696,-1137.6313"/>
</g>
<!-- 1221 -->
<g id="node5" class="node">
<title>1221</title>
<ellipse fill="none" stroke="#000000" cx="977.5301" cy="-1395.8287" rx="28.6953" ry="18"/>
<text text-anchor="middle" x="977.5301" y="-1392.1287" font-family="Times,serif" font-size="14.00" fill="#000000">1221</text>
</g>
<!-- 1239 -->
<g id="node6" class="node">
<title>1239</title>
<ellipse fill="none" stroke="#000000" cx="1529.9435" cy="-845.0577" rx="28.6953" ry="18"/>
<text text-anchor="middle" x="1529.9435" y="-841.3577" font-family="Times,serif" font-size="14.00" fill="#000000">1239</text>
</g>
<!-- 5511 -->
<g id="node27" class="node">
<title>5511</title>
<ellipse fill="none" stroke="#000000" cx="1533.9404" cy="-765.93" rx="28.6953" ry="18"/>
<text text-anchor="middle" x="1533.9404" y="-762.23" font-family="Times,serif" font-size="14.00" fill="#000000">5511</text>
</g>
<!-- 1239&#45;&gt;5511 -->
<g id="edge7" class="edge">
<title>1239&#45;&gt;5511</title>
<path fill="none" stroke="#000000" d="M1530.8705,-826.7053C1531.3548,-817.1179 1531.9582,-805.171 1532.5017,-794.413"/>
<polygon fill="#000000" stroke="#000000" points="1536.0094,-794.3467 1533.0184,-784.1828 1529.0183,-793.9935 1536.0094,-794.3467"/>
</g>
<!-- 17676 -->
<g id="node52" class="node">
<title>17676</title>
<ellipse fill="none" stroke="#000000" cx="1614.8028" cy="-841.882" rx="32.4942" ry="18"/>
<text text-anchor="middle" x="1614.8028" y="-838.182" font-family="Times,serif" font-size="14.00" fill="#000000">17676</text>
</g>
<!-- 1239&#45;&gt;17676 -->
<g id="edge8" class="edge">
<title>1239&#45;&gt;17676</title>
<path fill="none" stroke="#000000" d="M1558.6729,-843.9826C1563.065,-843.8182 1567.6764,-843.6456 1572.2892,-843.473"/>
<polygon fill="#000000" stroke="#000000" points="1572.4427,-846.9698 1582.3048,-843.0982 1572.1809,-839.9747 1572.4427,-846.9698"/>
</g>
<!-- 1273 -->
<g id="node7" class="node">
<title>1273</title>
<ellipse fill="none" stroke="#000000" cx="1451.7931" cy="-881.4418" rx="28.6953" ry="18"/>
<text text-anchor="middle" x="1451.7931" y="-877.7418" font-family="Times,serif" font-size="14.00" fill="#000000">1273</text>
</g>
<!-- 1273&#45;&gt;1239 -->
<g id="edge9" class="edge">
<title>1273&#45;&gt;1239</title>
<path fill="none" stroke="#000000" d="M1474.8181,-870.7222C1481.9882,-867.384 1490.031,-863.6396 1497.7099,-860.0645"/>
<polygon fill="#000000" stroke="#000000" points="1499.2246,-863.2202 1506.813,-855.8265 1496.2701,-856.8742 1499.2246,-863.2202"/>
</g>
<!-- 6461 -->
<g id="node30" class="node">
<title>6461</title>
<ellipse fill="none" stroke="#000000" cx="1095.6207" cy="-928.0717" rx="28.6953" ry="18"/>
<text text-anchor="middle" x="1095.6207" y="-924.3717" font-family="Times,serif" font-size="14.00" fill="#000000">6461</text>
</g>
<!-- 1299&#45;&gt;6461 -->
<g id="edge10" class="edge">
<title>1299&#45;&gt;6461</title>
<path fill="none" stroke="#000000" d="M1051.2851,-888.7558C1057.4721,-894.2423 1064.6224,-900.583 1071.3501,-906.549"/>
<polygon fill="#000000" stroke="#000000" points="1069.1666,-909.2907 1078.9708,-913.3069 1073.811,-904.0534 1069.1666,-909.2907"/>
</g>
<!-- 2497 -->
<g id="node9" class="node">
<title>2497</title>
<ellipse fill="none" stroke="#000000" cx="1159.5183" cy="-981.9775" rx="28.6953" ry="18"/>
<text text-anchor="middle" x="1159.5183" y="-978.2775" font-family="Times,serif" font-size="14.00" fill="#000000">2497</text>
</g>
<!-- 2497&#45;&gt;701 -->
<g id="edge11" class="edge">
<title>2497&#45;&gt;701</title>
<path fill="none" stroke="#000000" d="M1178.6691,-995.3632C1186.4018,-1000.7681 1195.4656,-1007.1034 1203.8562,-1012.9682"/>
<polygon fill="#000000" stroke="#000000" points="1202.0709,-1015.9905 1212.2724,-1018.8508 1206.0812,-1010.2531 1202.0709,-1015.9905"/>
</g>
<!-- 32787 -->
<g id="node59" class="node">
<title>32787</title>
<ellipse fill="none" stroke="#000000" cx="1162.6872" cy="-1289.2468" rx="32.4942" ry="18"/>
<text text-anchor="middle" x="1162.6872" y="-1285.5468" font-family="Times,serif" font-size="14.00" fill="#000000">32787</text>
</g>
<!-- 2516&#45;&gt;32787 -->
<g id="edge12" class="edge">
<title>2516&#45;&gt;32787</title>
<path fill="none" stroke="#000000" d="M1184.5203,-1220.5516C1180.754,-1232.402 1175.7449,-1248.1625 1171.4747,-1261.5982"/>
<polygon fill="#000000" stroke="#000000" points="1168.0795,-1260.7257 1168.3861,-1271.3161 1174.7507,-1262.846 1168.0795,-1260.7257"/>
</g>
<!-- 2686 -->
<g id="node11" class="node">
<title>2686</title>
<ellipse fill="none" stroke="#000000" cx="181.7487" cy="-524.6444" rx="28.6953" ry="18"/>
<text text-anchor="middle" x="181.7487" y="-520.9444" font-family="Times,serif" font-size="14.00" fill="#000000">2686</text>
</g>
<!-- 3741 -->
<g id="node22" class="node">
<title>3741</title>
<ellipse fill="none" stroke="#000000" cx="104.9796" cy="-544.7608" rx="28.6953" ry="18"/>
<text text-anchor="middle" x="104.9796" y="-541.0608" font-family="Times,serif" font-size="14.00" fill="#000000">3741</text>
</g>
<!-- 2686&#45;&gt;3741 -->
<g id="edge13" class="edge">
<title>2686&#45;&gt;3741</title>
<path fill="none" stroke="#000000" d="M155.3292,-531.5674C150.8659,-532.7369 146.1628,-533.9693 141.4966,-535.192"/>
<polygon fill="#000000" stroke="#000000" points="140.2341,-531.9046 131.4479,-537.8252 142.0085,-538.676 140.2341,-531.9046"/>
</g>
<!-- 2687 -->
<g id="node12" class="node">
<title>2687</title>
<ellipse fill="none" stroke="#000000" cx="263.5877" cy="-533.6846" rx="28.6953" ry="18"/>
<text text-anchor="middle" x="263.5877" y="-529.9846" font-family="Times,serif" font-size="14.00" fill="#000000">2687</text>
</g>
<!-- 2687&#45;&gt;2686 -->
<g id="edge14" class="edge">
<title>2687&#45;&gt;2686</title>
<path fill="none" stroke="#000000" d="M234.9644,-530.5228C230.1476,-529.9907 225.0802,-529.431 220.0651,-528.877"/>
<polygon fill="#000000" stroke="#000000" points="220.2655,-525.3779 209.9417,-527.7587 219.4969,-532.3356 220.2655,-525.3779"/>
</g>
<!-- 9505 -->
<g id="node44" class="node">
<title>9505</title>
<ellipse fill="none" stroke="#000000" cx="234.1981" cy="-610.1919" rx="28.6953" ry="18"/>
<text text-anchor="middle" x="234.1981" y="-606.4919" font-family="Times,serif" font-size="14.00" fill="#000000">9505</text>
</g>
<!-- 2687&#45;&gt;9505 -->
<g id="edge15" class="edge">
<title>2687&#45;&gt;9505</title>
<path fill="none" stroke="#000000" d="M256.7712,-551.4292C253.1732,-560.7957 248.6805,-572.4913 244.6526,-582.9768"/>
<polygon fill="#000000" stroke="#000000" points="241.2963,-581.9535 240.9776,-592.5435 247.8308,-584.4637 241.2963,-581.9535"/>
</g>
<!-- 2764 -->
<g id="node13" class="node">
<title>2764</title>
<ellipse fill="none" stroke="#000000" cx="1135.4175" cy="-1377.6044" rx="28.6953" ry="18"/>
<text text-anchor="middle" x="1135.4175" y="-1373.9044" font-family="Times,serif" font-size="14.00" fill="#000000">2764</text>
</g>
<!-- 7545 -->
<g id="node39" class="node">
<title>7545</title>
<ellipse fill="none" stroke="#000000" cx="1143.148" cy="-1470.3604" rx="28.6953" ry="18"/>
<text text-anchor="middle" x="1143.148" y="-1466.6604" font-family="Times,serif" font-size="14.00" fill="#000000">7545</text>
</g>
<!-- 2764&#45;&gt;7545 -->
<g id="edge16" class="edge">
<title>2764&#45;&gt;7545</title>
<path fill="none" stroke="#000000" d="M1136.9448,-1395.93C1138.0354,-1409.0153 1139.5237,-1426.873 1140.7691,-1441.8166"/>
<polygon fill="#000000" stroke="#000000" points="1137.3054,-1442.3981 1141.6239,-1452.0728 1144.2812,-1441.8167 1137.3054,-1442.3981"/>
</g>
<!-- 38333 -->
<g id="node61" class="node">
<title>38333</title>
<ellipse fill="none" stroke="#000000" cx="1054.5289" cy="-1374.2924" rx="32.4942" ry="18"/>
<text text-anchor="middle" x="1054.5289" y="-1370.5924" font-family="Times,serif" font-size="14.00" fill="#000000">38333</text>
</g>
<!-- 2764&#45;&gt;38333 -->
<g id="edge17" class="edge">
<title>2764&#45;&gt;38333</title>
<path fill="none" stroke="#000000" d="M1106.6715,-1376.4274C1103.5921,-1376.3013 1100.4138,-1376.1711 1097.2167,-1376.0402"/>
<polygon fill="#000000" stroke="#000000" points="1097.1746,-1372.5357 1087.0397,-1375.6235 1096.8881,-1379.5298 1097.1746,-1372.5357"/>
</g>
<!-- 38561 -->
<g id="node62" class="node">
<title>38561</title>
<ellipse fill="none" stroke="#000000" cx="1201.6611" cy="-1405.0673" rx="32.4942" ry="18"/>
<text text-anchor="middle" x="1201.6611" y="-1401.3673" font-family="Times,serif" font-size="14.00" fill="#000000">38561</text>
</g>
<!-- 2764&#45;&gt;38561 -->
<g id="edge18" class="edge">
<title>2764&#45;&gt;38561</title>
<path fill="none" stroke="#000000" d="M1159.333,-1387.5191C1161.5218,-1388.4266 1163.7689,-1389.3582 1166.0318,-1390.2963"/>
<polygon fill="#000000" stroke="#000000" points="1164.7353,-1393.5476 1175.3133,-1394.1442 1167.4161,-1387.0813 1164.7353,-1393.5476"/>
</g>
<!-- 2828 -->
<g id="node14" class="node">
<title>2828</title>
<ellipse fill="none" stroke="#000000" cx="1446.6212" cy="-1259.9919" rx="28.6953" ry="18"/>
<text text-anchor="middle" x="1446.6212" y="-1256.2919" font-family="Times,serif" font-size="14.00" fill="#000000">2828</text>
</g>
<!-- 2914 -->
<g id="node15" class="node">
<title>2914</title>
<ellipse fill="none" stroke="#000000" cx="669.4834" cy="-560.6896" rx="28.6953" ry="18"/>
<text text-anchor="middle" x="669.4834" y="-556.9896" font-family="Times,serif" font-size="14.00" fill="#000000">2914</text>
</g>
<!-- 6453 -->
<g id="node29" class="node">
<title>6453</title>
<ellipse fill="none" stroke="#000000" cx="733.3288" cy="-612.3773" rx="28.6953" ry="18"/>
<text text-anchor="middle" x="733.3288" y="-608.6773" font-family="Times,serif" font-size="14.00" fill="#000000">6453</text>
</g>
<!-- 2914&#45;&gt;6453 -->
<g id="edge19" class="edge">
<title>2914&#45;&gt;6453</title>
<path fill="none" stroke="#000000" d="M687.2679,-575.0875C693.6327,-580.2403 700.9371,-586.1538 707.8255,-591.7305"/>
<polygon fill="#000000" stroke="#000000" points="705.6651,-594.4847 715.6397,-598.0566 710.0697,-589.0441 705.6651,-594.4847"/>
</g>
<!-- 3257 -->
<g id="node16" class="node">
<title>3257</title>
<ellipse fill="none" stroke="#000000" cx="795.0387" cy="-663.8617" rx="28.6953" ry="18"/>
<text text-anchor="middle" x="795.0387" y="-660.1617" font-family="Times,serif" font-size="14.00" fill="#000000">3257</text>
</g>
<!-- 3491 -->
<g id="node19" class="node">
<title>3491</title>
<ellipse fill="none" stroke="#000000" cx="855.49" cy="-715.5395" rx="28.6953" ry="18"/>
<text text-anchor="middle" x="855.49" y="-711.8395" font-family="Times,serif" font-size="14.00" fill="#000000">3491</text>
</g>
<!-- 3257&#45;&gt;3491 -->
<g id="edge20" class="edge">
<title>3257&#45;&gt;3491</title>
<path fill="none" stroke="#000000" d="M812.1999,-678.5323C817.9922,-683.4839 824.5771,-689.1131 830.8324,-694.4606"/>
<polygon fill="#000000" stroke="#000000" points="828.6197,-697.1736 838.4951,-701.0112 833.1682,-691.8528 828.6197,-697.1736"/>
</g>
<!-- 3320 -->
<g id="node17" class="node">
<title>3320</title>
<ellipse fill="none" stroke="#000000" cx="1374.1203" cy="-920.8254" rx="28.6953" ry="18"/>
<text text-anchor="middle" x="1374.1203" y="-917.1254" font-family="Times,serif" font-size="14.00" fill="#000000">3320</text>
</g>
<!-- 3320&#45;&gt;1273 -->
<g id="edge21" class="edge">
<title>3320&#45;&gt;1273</title>
<path fill="none" stroke="#000000" d="M1396.5865,-909.4341C1403.9932,-905.6785 1412.3722,-901.43 1420.3235,-897.3983"/>
<polygon fill="#000000" stroke="#000000" points="1422.0412,-900.4516 1429.3774,-892.8076 1418.8755,-894.2083 1422.0412,-900.4516"/>
</g>
<!-- 3356 -->
<g id="node18" class="node">
<title>3356</title>
<ellipse fill="none" stroke="#000000" cx="531.3634" cy="-372.8301" rx="28.6953" ry="18"/>
<text text-anchor="middle" x="531.3634" y="-369.1301" font-family="Times,serif" font-size="14.00" fill="#000000">3356</text>
</g>
<!-- 3549 -->
<g id="node20" class="node">
<title>3549</title>
<ellipse fill="none" stroke="#000000" cx="522.5912" cy="-459.7507" rx="28.6953" ry="18"/>
<text text-anchor="middle" x="522.5912" y="-456.0507" font-family="Times,serif" font-size="14.00" fill="#000000">3549</text>
</g>
<!-- 3356&#45;&gt;3549 -->
<g id="edge22" class="edge">
<title>3356&#45;&gt;3549</title>
<path fill="none" stroke="#000000" d="M529.5458,-390.8401C528.3578,-402.6111 526.7818,-418.228 525.4304,-431.6183"/>
<polygon fill="#000000" stroke="#000000" points="521.9284,-431.4628 524.4065,-441.7638 528.893,-432.1658 521.9284,-431.4628"/>
</g>
<!-- 3491&#45;&gt;174 -->
<g id="edge23" class="edge">
<title>3491&#45;&gt;174</title>
<path fill="none" stroke="#000000" d="M872.496,-730.2927C878.2359,-735.2722 884.7613,-740.9331 890.96,-746.3107"/>
<polygon fill="#000000" stroke="#000000" points="888.7062,-748.9889 898.5534,-752.8982 893.2933,-743.7013 888.7062,-748.9889"/>
</g>
<!-- 6762 -->
<g id="node32" class="node">
<title>6762</title>
<ellipse fill="none" stroke="#000000" cx="601.0475" cy="-509.1749" rx="28.6953" ry="18"/>
<text text-anchor="middle" x="601.0475" y="-505.4749" font-family="Times,serif" font-size="14.00" fill="#000000">6762</text>
</g>
<!-- 3549&#45;&gt;6762 -->
<g id="edge24" class="edge">
<title>3549&#45;&gt;6762</title>
<path fill="none" stroke="#000000" d="M543.2047,-472.7363C552.0337,-478.2983 562.5005,-484.8919 572.0872,-490.9311"/>
<polygon fill="#000000" stroke="#000000" points="570.2451,-493.9072 580.5717,-496.276 573.9762,-487.9844 570.2451,-493.9072"/>
</g>
<!-- 30070 -->
<g id="node58" class="node">
<title>30070</title>
<ellipse fill="none" stroke="#000000" cx="434.7497" cy="-496.1049" rx="32.4942" ry="18"/>
<text text-anchor="middle" x="434.7497" y="-492.4049" font-family="Times,serif" font-size="14.00" fill="#000000">30070</text>
</g>
<!-- 3549&#45;&gt;30070 -->
<g id="edge25" class="edge">
<title>3549&#45;&gt;30070</title>
<path fill="none" stroke="#000000" d="M498.5881,-469.6847C489.8256,-473.3111 479.7211,-477.493 470.1736,-481.4444"/>
<polygon fill="#000000" stroke="#000000" points="468.7836,-478.2317 460.8821,-485.2898 471.4605,-484.6996 468.7836,-478.2317"/>
</g>
<!-- 3597 -->
<g id="node21" class="node">
<title>3597</title>
<ellipse fill="none" stroke="#000000" cx="457.376" cy="-102.7273" rx="28.6953" ry="18"/>
<text text-anchor="middle" x="457.376" y="-99.0273" font-family="Times,serif" font-size="14.00" fill="#000000">3597</text>
</g>
<!-- 37179 -->
<g id="node60" class="node">
<title>37179</title>
<ellipse fill="none" stroke="#000000" cx="32.4971" cy="-567.8776" rx="32.4942" ry="18"/>
<text text-anchor="middle" x="32.4971" y="-564.1776" font-family="Times,serif" font-size="14.00" fill="#000000">37179</text>
</g>
<!-- 3741&#45;&gt;37179 -->
<g id="edge26" class="edge">
<title>3741&#45;&gt;37179</title>
<path fill="none" stroke="#000000" d="M79.2209,-552.976C76.4743,-553.852 73.6398,-554.756 70.7883,-555.6654"/>
<polygon fill="#000000" stroke="#000000" points="69.5948,-552.3723 61.1311,-558.7454 71.7218,-559.0414 69.5948,-552.3723"/>
</g>
<!-- 4635 -->
<g id="node23" class="node">
<title>4635</title>
<ellipse fill="none" stroke="#000000" cx="1219.6541" cy="-1504.2091" rx="28.6953" ry="18"/>
<text text-anchor="middle" x="1219.6541" y="-1500.5091" font-family="Times,serif" font-size="14.00" fill="#000000">4635</text>
</g>
<!-- 4637 -->
<g id="node24" class="node">
<title>4637</title>
<ellipse fill="none" stroke="#000000" cx="1385.01" cy="-1204.9186" rx="28.6953" ry="18"/>
<text text-anchor="middle" x="1385.01" y="-1201.2186" font-family="Times,serif" font-size="14.00" fill="#000000">4637</text>
</g>
<!-- 4637&#45;&gt;2828 -->
<g id="edge27" class="edge">
<title>4637&#45;&gt;2828</title>
<path fill="none" stroke="#000000" d="M1401.5207,-1219.6772C1407.8743,-1225.3566 1415.2704,-1231.9678 1422.2129,-1238.1737"/>
<polygon fill="#000000" stroke="#000000" points="1420.2768,-1241.1375 1430.065,-1245.1925 1424.9419,-1235.9186 1420.2768,-1241.1375"/>
</g>
<!-- 4739 -->
<g id="node25" class="node">
<title>4739</title>
<ellipse fill="none" stroke="#000000" cx="1142.7241" cy="-1555.4047" rx="28.6953" ry="18"/>
<text text-anchor="middle" x="1142.7241" y="-1551.7047" font-family="Times,serif" font-size="14.00" fill="#000000">4739</text>
</g>
<!-- 38880 -->
<g id="node63" class="node">
<title>38880</title>
<ellipse fill="none" stroke="#000000" cx="1140.0126" cy="-1637.7623" rx="32.4942" ry="18"/>
<text text-anchor="middle" x="1140.0126" y="-1634.0623" font-family="Times,serif" font-size="14.00" fill="#000000">38880</text>
</g>
<!-- 4739&#45;&gt;38880 -->
<g id="edge28" class="edge">
<title>4739&#45;&gt;38880</title>
<path fill="none" stroke="#000000" d="M1142.1223,-1573.6825C1141.7783,-1584.1318 1141.3393,-1597.4658 1140.951,-1609.2618"/>
<polygon fill="#000000" stroke="#000000" points="1137.4438,-1609.4258 1140.6127,-1619.5356 1144.44,-1609.6562 1137.4438,-1609.4258"/>
</g>
<!-- 4755 -->
<g id="node26" class="node">
<title>4755</title>
<ellipse fill="none" stroke="#000000" cx="1495.4073" cy="-1151.873" rx="28.6953" ry="18"/>
<text text-anchor="middle" x="1495.4073" y="-1148.173" font-family="Times,serif" font-size="14.00" fill="#000000">4755</text>
</g>
<!-- 9583 -->
<g id="node45" class="node">
<title>9583</title>
<ellipse fill="none" stroke="#000000" cx="1571.0283" cy="-1183.3132" rx="28.6953" ry="18"/>
<text text-anchor="middle" x="1571.0283" y="-1179.6132" font-family="Times,serif" font-size="14.00" fill="#000000">9583</text>
</g>
<!-- 4755&#45;&gt;9583 -->
<g id="edge29" class="edge">
<title>4755&#45;&gt;9583</title>
<path fill="none" stroke="#000000" d="M1519.3343,-1161.8209C1525.1271,-1164.2293 1531.4249,-1166.8477 1537.5675,-1169.4015"/>
<polygon fill="#000000" stroke="#000000" points="1536.4201,-1172.7149 1546.9975,-1173.3221 1539.1074,-1166.2512 1536.4201,-1172.7149"/>
</g>
<!-- 5692 -->
<g id="node28" class="node">
<title>5692</title>
<ellipse fill="none" stroke="#000000" cx="523.8585" cy="-100.2623" rx="28.6953" ry="18"/>
<text text-anchor="middle" x="523.8585" y="-96.5623" font-family="Times,serif" font-size="14.00" fill="#000000">5692</text>
</g>
<!-- 5692&#45;&gt;3597 -->
<g id="edge30" class="edge">
<title>5692&#45;&gt;3597</title>
<path fill="none" stroke="#000000" d="M495.2781,-101.322C495.1814,-101.3256 495.0845,-101.3292 494.9876,-101.3328"/>
<polygon fill="#000000" stroke="#000000" points="495.7957,-97.8003 485.9323,-101.6685 496.0551,-104.7955 495.7957,-97.8003"/>
</g>
<!-- 10834 -->
<g id="node48" class="node">
<title>10834</title>
<ellipse fill="none" stroke="#000000" cx="546.0827" cy="-201.8452" rx="32.4942" ry="18"/>
<text text-anchor="middle" x="546.0827" y="-198.1452" font-family="Times,serif" font-size="14.00" fill="#000000">10834</text>
</g>
<!-- 5692&#45;&gt;10834 -->
<g id="edge31" class="edge">
<title>5692&#45;&gt;10834</title>
<path fill="none" stroke="#000000" d="M527.8318,-118.4233C531.2133,-133.8798 536.1244,-156.3278 540.0006,-174.045"/>
<polygon fill="#000000" stroke="#000000" points="536.5874,-174.8206 542.1438,-183.8415 543.4256,-173.3245 536.5874,-174.8206"/>
</g>
<!-- 11008 -->
<g id="node49" class="node">
<title>11008</title>
<ellipse fill="none" stroke="#000000" cx="611.9648" cy="-74.9404" rx="32.4942" ry="18"/>
<text text-anchor="middle" x="611.9648" y="-71.2404" font-family="Times,serif" font-size="14.00" fill="#000000">11008</text>
</g>
<!-- 5692&#45;&gt;11008 -->
<g id="edge32" class="edge">
<title>5692&#45;&gt;11008</title>
<path fill="none" stroke="#000000" d="M550.2933,-92.6649C557.5639,-90.5753 565.601,-88.2655 573.4045,-86.0227"/>
<polygon fill="#000000" stroke="#000000" points="574.4447,-89.3655 583.0888,-83.2394 572.5111,-82.6379 574.4447,-89.3655"/>
</g>
<!-- 27865 -->
<g id="node56" class="node">
<title>27865</title>
<ellipse fill="none" stroke="#000000" cx="526.0178" cy="-18" rx="32.4942" ry="18"/>
<text text-anchor="middle" x="526.0178" y="-14.3" font-family="Times,serif" font-size="14.00" fill="#000000">27865</text>
</g>
<!-- 5692&#45;&gt;27865 -->
<g id="edge33" class="edge">
<title>5692&#45;&gt;27865</title>
<path fill="none" stroke="#000000" d="M524.3378,-82.0057C524.6117,-71.5684 524.9613,-58.2499 525.2706,-46.4675"/>
<polygon fill="#000000" stroke="#000000" points="528.7762,-46.2941 525.5399,-36.2056 521.7787,-46.1103 528.7762,-46.2941"/>
</g>
<!-- 28065 -->
<g id="node57" class="node">
<title>28065</title>
<ellipse fill="none" stroke="#000000" cx="457.1442" cy="-44.424" rx="32.4942" ry="18"/>
<text text-anchor="middle" x="457.1442" y="-40.724" font-family="Times,serif" font-size="14.00" fill="#000000">28065</text>
</g>
<!-- 5692&#45;&gt;28065 -->
<g id="edge34" class="edge">
<title>5692&#45;&gt;28065</title>
<path fill="none" stroke="#000000" d="M506.3301,-85.5915C499.299,-79.7066 491.0464,-72.7993 483.331,-66.3417"/>
<polygon fill="#000000" stroke="#000000" points="485.168,-63.315 475.2531,-59.5807 480.6751,-68.683 485.168,-63.315"/>
</g>
<!-- 52317 -->
<g id="node64" class="node">
<title>52317</title>
<ellipse fill="none" stroke="#000000" cx="569.8981" cy="-135.0895" rx="32.4942" ry="18"/>
<text text-anchor="middle" x="569.8981" y="-131.3895" font-family="Times,serif" font-size="14.00" fill="#000000">52317</text>
</g>
<!-- 5692&#45;&gt;52317 -->
<g id="edge35" class="edge">
<title>5692&#45;&gt;52317</title>
<path fill="none" stroke="#000000" d="M542.3193,-114.2272C542.4037,-114.2911 542.4883,-114.355 542.5729,-114.419"/>
<polygon fill="#000000" stroke="#000000" points="540.4428,-117.1963 550.5295,-120.4379 544.6659,-111.6136 540.4428,-117.1963"/>
</g>
<!-- 52375 -->
<g id="node65" class="node">
<title>52375</title>
<ellipse fill="none" stroke="#000000" cx="591.6348" cy="-44.8974" rx="32.4942" ry="18"/>
<text text-anchor="middle" x="591.6348" y="-41.1974" font-family="Times,serif" font-size="14.00" fill="#000000">52375</text>
</g>
<!-- 5692&#45;&gt;52375 -->
<g id="edge36" class="edge">
<title>5692&#45;&gt;52375</title>
<path fill="none" stroke="#000000" d="M541.666,-85.7158C548.885,-79.8188 557.3715,-72.8864 565.2811,-66.4251"/>
<polygon fill="#000000" stroke="#000000" points="567.7074,-68.9625 573.2377,-59.9256 563.279,-63.5414 567.7074,-68.9625"/>
</g>
<!-- 52376 -->
<g id="node66" class="node">
<title>52376</title>
<ellipse fill="none" stroke="#000000" cx="428.855" cy="-79.4769" rx="32.4942" ry="18"/>
<text text-anchor="middle" x="428.855" y="-75.7769" font-family="Times,serif" font-size="14.00" fill="#000000">52376</text>
</g>
<!-- 5692&#45;&gt;52376 -->
<g id="edge37" class="edge">
<title>5692&#45;&gt;52376</title>
<path fill="none" stroke="#000000" d="M496.6343,-94.3061C488.0173,-92.4208 478.3044,-90.2957 468.9801,-88.2557"/>
<polygon fill="#000000" stroke="#000000" points="469.6021,-84.8091 459.085,-86.0908 468.1059,-91.6473 469.6021,-84.8091"/>
</g>
<!-- 52380 -->
<g id="node67" class="node">
<title>52380</title>
<ellipse fill="none" stroke="#000000" cx="487.2142" cy="-154.3882" rx="32.4942" ry="18"/>
<text text-anchor="middle" x="487.2142" y="-150.6882" font-family="Times,serif" font-size="14.00" fill="#000000">52380</text>
</g>
<!-- 5692&#45;&gt;52380 -->
<g id="edge38" class="edge">
<title>5692&#45;&gt;52380</title>
<path fill="none" stroke="#000000" d="M512.4649,-117.0914C509.9385,-120.8231 507.206,-124.8592 504.5035,-128.8509"/>
<polygon fill="#000000" stroke="#000000" points="501.435,-127.1402 498.727,-137.3831 507.2315,-131.0646 501.435,-127.1402"/>
</g>
<!-- 52413 -->
<g id="node68" class="node">
<title>52413</title>
<ellipse fill="none" stroke="#000000" cx="606.1806" cy="-111.6925" rx="32.4942" ry="18"/>
<text text-anchor="middle" x="606.1806" y="-107.9925" font-family="Times,serif" font-size="14.00" fill="#000000">52413</text>
</g>
<!-- 5692&#45;&gt;52413 -->
<g id="edge39" class="edge">
<title>5692&#45;&gt;52413</title>
<path fill="none" stroke="#000000" d="M552.1891,-104.1959C556.1061,-104.7398 560.1953,-105.3076 564.2941,-105.8767"/>
<polygon fill="#000000" stroke="#000000" points="564.0234,-109.3726 574.4098,-107.2812 564.9862,-102.4391 564.0234,-109.3726"/>
</g>
<!-- 52431 -->
<g id="node69" class="node">
<title>52431</title>
<ellipse fill="none" stroke="#000000" cx="562.5249" cy="-23.394" rx="32.4942" ry="18"/>
<text text-anchor="middle" x="562.5249" y="-19.694" font-family="Times,serif" font-size="14.00" fill="#000000">52431</text>
</g>
<!-- 5692&#45;&gt;52431 -->
<g id="edge40" class="edge">
<title>5692&#45;&gt;52431</title>
<path fill="none" stroke="#000000" d="M532.6325,-82.8197C537.5268,-73.0899 543.7235,-60.771 549.2042,-49.8753"/>
<polygon fill="#000000" stroke="#000000" points="552.4186,-51.2739 553.7856,-40.7676 546.1651,-48.1282 552.4186,-51.2739"/>
</g>
<!-- 262230 -->
<g id="node70" class="node">
<title>262230</title>
<ellipse fill="none" stroke="#000000" cx="441.7493" cy="-139.3717" rx="37.0935" ry="18"/>
<text text-anchor="middle" x="441.7493" y="-135.6717" font-family="Times,serif" font-size="14.00" fill="#000000">262230</text>
</g>
<!-- 5692&#45;&gt;262230 -->
<g id="edge41" class="edge">
<title>5692&#45;&gt;262230</title>
<path fill="none" stroke="#000000" d="M500.9865,-111.1565C493.6878,-114.6329 485.4283,-118.567 477.4439,-122.3701"/>
<polygon fill="#000000" stroke="#000000" points="475.7945,-119.2789 468.2714,-126.739 478.8047,-125.5986 475.7945,-119.2789"/>
</g>
<!-- 264608 -->
<g id="node71" class="node">
<title>264608</title>
<ellipse fill="none" stroke="#000000" cx="489.1485" cy="-23.6871" rx="37.0935" ry="18"/>
<text text-anchor="middle" x="489.1485" y="-19.9871" font-family="Times,serif" font-size="14.00" fill="#000000">264608</text>
</g>
<!-- 5692&#45;&gt;264608 -->
<g id="edge42" class="edge">
<title>5692&#45;&gt;264608</title>
<path fill="none" stroke="#000000" d="M515.9823,-82.8862C511.6944,-73.4266 506.293,-61.5102 501.4622,-50.8528"/>
<polygon fill="#000000" stroke="#000000" points="504.5508,-49.1889 497.2345,-41.5259 498.1752,-52.0789 504.5508,-49.1889"/>
</g>
<!-- 6453&#45;&gt;3257 -->
<g id="edge43" class="edge">
<title>6453&#45;&gt;3257</title>
<path fill="none" stroke="#000000" d="M750.8473,-626.993C756.7602,-631.9261 763.4822,-637.5342 769.8677,-642.8617"/>
<polygon fill="#000000" stroke="#000000" points="767.7692,-645.669 777.6899,-649.3877 772.2535,-640.294 767.7692,-645.669"/>
</g>
<!-- 6461&#45;&gt;2497 -->
<g id="edge44" class="edge">
<title>6461&#45;&gt;2497</title>
<path fill="none" stroke="#000000" d="M1112.7441,-942.5175C1119.4767,-948.1973 1127.338,-954.8294 1134.6731,-961.0174"/>
<polygon fill="#000000" stroke="#000000" points="1132.4474,-963.7189 1142.3477,-967.4919 1136.9611,-958.3685 1132.4474,-963.7189"/>
</g>
<!-- 6695 -->
<g id="node31" class="node">
<title>6695</title>
<ellipse fill="none" stroke="#000000" cx="1210.7521" cy="-1685.9734" rx="28.6953" ry="18"/>
<text text-anchor="middle" x="1210.7521" y="-1682.2734" font-family="Times,serif" font-size="14.00" fill="#000000">6695</text>
</g>
<!-- 6762&#45;&gt;2914 -->
<g id="edge45" class="edge">
<title>6762&#45;&gt;2914</title>
<path fill="none" stroke="#000000" d="M619.7479,-523.2515C626.8393,-528.5895 635.0589,-534.7767 642.7483,-540.5649"/>
<polygon fill="#000000" stroke="#000000" points="640.7112,-543.4123 650.8056,-546.63 644.921,-537.8196 640.7112,-543.4123"/>
</g>
<!-- 6904 -->
<g id="node33" class="node">
<title>6904</title>
<ellipse fill="none" stroke="#000000" cx="345.0452" cy="-502.7653" rx="28.6953" ry="18"/>
<text text-anchor="middle" x="345.0452" y="-499.0653" font-family="Times,serif" font-size="14.00" fill="#000000">6904</text>
</g>
<!-- 6904&#45;&gt;2687 -->
<g id="edge46" class="edge">
<title>6904&#45;&gt;2687</title>
<path fill="none" stroke="#000000" d="M320.1626,-512.2101C313.1357,-514.8774 305.3633,-517.8276 297.8873,-520.6653"/>
<polygon fill="#000000" stroke="#000000" points="296.4249,-517.4767 288.3178,-524.2976 298.9091,-524.0211 296.4249,-517.4767"/>
</g>
<!-- 6939 -->
<g id="node34" class="node">
<title>6939</title>
<ellipse fill="none" stroke="#000000" cx="1692.543" cy="-821.8577" rx="28.6953" ry="18"/>
<text text-anchor="middle" x="1692.543" y="-818.1577" font-family="Times,serif" font-size="14.00" fill="#000000">6939</text>
</g>
<!-- 12266 -->
<g id="node50" class="node">
<title>12266</title>
<ellipse fill="none" stroke="#000000" cx="1768.2131" cy="-805.2691" rx="32.4942" ry="18"/>
<text text-anchor="middle" x="1768.2131" y="-801.5691" font-family="Times,serif" font-size="14.00" fill="#000000">12266</text>
</g>
<!-- 6939&#45;&gt;12266 -->
<g id="edge47" class="edge">
<title>6939&#45;&gt;12266</title>
<path fill="none" stroke="#000000" d="M1719.8616,-815.8688C1722.5088,-815.2885 1725.2306,-814.6918 1727.9693,-814.0915"/>
<polygon fill="#000000" stroke="#000000" points="1728.839,-817.484 1737.8576,-811.9237 1727.34,-810.6464 1728.839,-817.484"/>
</g>
<!-- 7016 -->
<g id="node35" class="node">
<title>7016</title>
<ellipse fill="none" stroke="#000000" cx="410.2911" cy="-572.3284" rx="28.6953" ry="18"/>
<text text-anchor="middle" x="410.2911" y="-568.6284" font-family="Times,serif" font-size="14.00" fill="#000000">7016</text>
</g>
<!-- 7922 -->
<g id="node40" class="node">
<title>7922</title>
<ellipse fill="none" stroke="#000000" cx="382.6156" cy="-645.7806" rx="28.6953" ry="18"/>
<text text-anchor="middle" x="382.6156" y="-642.0806" font-family="Times,serif" font-size="14.00" fill="#000000">7922</text>
</g>
<!-- 7016&#45;&gt;7922 -->
<g id="edge48" class="edge">
<title>7016&#45;&gt;7922</title>
<path fill="none" stroke="#000000" d="M403.5917,-590.1091C400.3622,-598.6803 396.4184,-609.1473 392.8257,-618.6826"/>
<polygon fill="#000000" stroke="#000000" points="389.5041,-617.5717 389.2534,-628.1636 396.0546,-620.0399 389.5041,-617.5717"/>
</g>
<!-- 7018&#45;&gt;3320 -->
<g id="edge49" class="edge">
<title>7018&#45;&gt;3320</title>
<path fill="none" stroke="#000000" d="M1319.6407,-958.0509C1327.7226,-952.5287 1337.2614,-946.0109 1346.0803,-939.985"/>
<polygon fill="#000000" stroke="#000000" points="1348.2965,-942.7097 1354.5785,-934.1782 1344.3473,-936.9301 1348.2965,-942.7097"/>
</g>
<!-- 7473 -->
<g id="node37" class="node">
<title>7473</title>
<ellipse fill="none" stroke="#000000" cx="1318.2673" cy="-1200.2724" rx="28.6953" ry="18"/>
<text text-anchor="middle" x="1318.2673" y="-1196.5724" font-family="Times,serif" font-size="14.00" fill="#000000">7473</text>
</g>
<!-- 7474 -->
<g id="node38" class="node">
<title>7474</title>
<ellipse fill="none" stroke="#000000" cx="1227.8618" cy="-1316.554" rx="28.6953" ry="18"/>
<text text-anchor="middle" x="1227.8618" y="-1312.854" font-family="Times,serif" font-size="14.00" fill="#000000">7474</text>
</g>
<!-- 7545&#45;&gt;4635 -->
<g id="edge50" class="edge">
<title>7545&#45;&gt;4635</title>
<path fill="none" stroke="#000000" d="M1166.9357,-1480.8848C1173.1836,-1483.6491 1180.0353,-1486.6805 1186.6713,-1489.6165"/>
<polygon fill="#000000" stroke="#000000" points="1185.5829,-1492.9621 1196.144,-1493.8075 1188.4152,-1486.5607 1185.5829,-1492.9621"/>
</g>
<!-- 7545&#45;&gt;4739 -->
<g id="edge51" class="edge">
<title>7545&#45;&gt;4739</title>
<path fill="none" stroke="#000000" d="M1143.0581,-1488.3961C1143.0019,-1499.6713 1142.9283,-1514.431 1142.8645,-1527.2274"/>
<polygon fill="#000000" stroke="#000000" points="1139.3638,-1527.3776 1142.8138,-1537.395 1146.3638,-1527.4126 1139.3638,-1527.3776"/>
</g>
<!-- 9942 -->
<g id="node46" class="node">
<title>9942</title>
<ellipse fill="none" stroke="#000000" cx="1067.2672" cy="-1493.7317" rx="28.6953" ry="18"/>
<text text-anchor="middle" x="1067.2672" y="-1490.0317" font-family="Times,serif" font-size="14.00" fill="#000000">9942</text>
</g>
<!-- 7545&#45;&gt;9942 -->
<g id="edge52" class="edge">
<title>7545&#45;&gt;9942</title>
<path fill="none" stroke="#000000" d="M1117.4582,-1478.2728C1112.8121,-1479.7039 1107.8913,-1481.2195 1103.0188,-1482.7202"/>
<polygon fill="#000000" stroke="#000000" points="1101.7154,-1479.4593 1093.1887,-1485.7479 1103.7759,-1486.1492 1101.7154,-1479.4593"/>
</g>
<!-- 9002 -->
<g id="node41" class="node">
<title>9002</title>
<ellipse fill="none" stroke="#000000" cx="1133.9552" cy="-1713.8238" rx="28.6953" ry="18"/>
<text text-anchor="middle" x="1133.9552" y="-1710.1238" font-family="Times,serif" font-size="14.00" fill="#000000">9002</text>
</g>
<!-- 9443 -->
<g id="node42" class="node">
<title>9443</title>
<ellipse fill="none" stroke="#000000" cx="1063.3916" cy="-1675.9008" rx="28.6953" ry="18"/>
<text text-anchor="middle" x="1063.3916" y="-1672.2008" font-family="Times,serif" font-size="14.00" fill="#000000">9443</text>
</g>
<!-- 9498&#45;&gt;4637 -->
<g id="edge53" class="edge">
<title>9498&#45;&gt;4637</title>
<path fill="none" stroke="#000000" d="M1342.5605,-1157.5264C1349.065,-1164.7882 1356.8871,-1173.521 1364.0349,-1181.5011"/>
<polygon fill="#000000" stroke="#000000" points="1361.6051,-1184.0343 1370.8842,-1189.1479 1366.8193,-1179.3639 1361.6051,-1184.0343"/>
</g>
<!-- 9498&#45;&gt;7473 -->
<g id="edge54" class="edge">
<title>9498&#45;&gt;7473</title>
<path fill="none" stroke="#000000" d="M1325.1891,-1159.4746C1324.5254,-1163.3863 1323.8074,-1167.6184 1323.0937,-1171.8252"/>
<polygon fill="#000000" stroke="#000000" points="1319.5838,-1171.5888 1321.3617,-1182.0334 1326.4852,-1172.7597 1319.5838,-1171.5888"/>
</g>
<!-- 10026 -->
<g id="node47" class="node">
<title>10026</title>
<ellipse fill="none" stroke="#000000" cx="1411.6184" cy="-1129.0801" rx="32.4942" ry="18"/>
<text text-anchor="middle" x="1411.6184" y="-1125.3801" font-family="Times,serif" font-size="14.00" fill="#000000">10026</text>
</g>
<!-- 9498&#45;&gt;10026 -->
<g id="edge55" class="edge">
<title>9498&#45;&gt;10026</title>
<path fill="none" stroke="#000000" d="M1356.4638,-1137.3157C1360.8342,-1136.6631 1365.4256,-1135.9776 1370.0156,-1135.2922"/>
<polygon fill="#000000" stroke="#000000" points="1370.6018,-1138.7435 1379.9752,-1133.805 1369.568,-1131.8203 1370.6018,-1138.7435"/>
</g>
<!-- 10026&#45;&gt;4755 -->
<g id="edge56" class="edge">
<title>10026&#45;&gt;4755</title>
<path fill="none" stroke="#000000" d="M1440.9237,-1137.0519C1446.7888,-1138.6474 1453.0168,-1140.3416 1459.0859,-1141.9925"/>
<polygon fill="#000000" stroke="#000000" points="1458.4896,-1145.4575 1469.0577,-1144.7051 1460.3271,-1138.7029 1458.4896,-1145.4575"/>
</g>
<!-- 12956 -->
<g id="node51" class="node">
<title>12956</title>
<ellipse fill="none" stroke="#000000" cx="534.5037" cy="-288.5321" rx="32.4942" ry="18"/>
<text text-anchor="middle" x="534.5037" y="-284.8321" font-family="Times,serif" font-size="14.00" fill="#000000">12956</text>
</g>
<!-- 10834&#45;&gt;12956 -->
<g id="edge57" class="edge">
<title>10834&#45;&gt;12956</title>
<path fill="none" stroke="#000000" d="M543.6835,-219.8068C542.1259,-231.4679 540.0628,-246.9135 538.287,-260.208"/>
<polygon fill="#000000" stroke="#000000" points="534.7945,-259.9199 536.9396,-270.2953 541.7329,-260.8467 534.7945,-259.9199"/>
</g>
<!-- 22927 -->
<g id="node55" class="node">
<title>22927</title>
<ellipse fill="none" stroke="#000000" cx="630.2106" cy="-212.8607" rx="32.4942" ry="18"/>
<text text-anchor="middle" x="630.2106" y="-209.1607" font-family="Times,serif" font-size="14.00" fill="#000000">22927</text>
</g>
<!-- 10834&#45;&gt;22927 -->
<g id="edge58" class="edge">
<title>10834&#45;&gt;22927</title>
<path fill="none" stroke="#000000" d="M577.8878,-206.0097C581.238,-206.4484 584.6806,-206.8991 588.1235,-207.3499"/>
<polygon fill="#000000" stroke="#000000" points="587.9906,-210.8623 598.3604,-208.6903 588.8995,-203.9216 587.9906,-210.8623"/>
</g>
<!-- 20454 -->
<g id="node54" class="node">
<title>20454</title>
<ellipse fill="none" stroke="#000000" cx="1843.5866" cy="-798.0918" rx="32.4942" ry="18"/>
<text text-anchor="middle" x="1843.5866" y="-794.3918" font-family="Times,serif" font-size="14.00" fill="#000000">20454</text>
</g>
<!-- 12266&#45;&gt;20454 -->
<g id="edge59" class="edge">
<title>12266&#45;&gt;20454</title>
<path fill="none" stroke="#000000" d="M1800.6157,-802.1836C1800.7254,-802.1732 1800.8352,-802.1627 1800.945,-802.1523"/>
<polygon fill="#000000" stroke="#000000" points="1801.5882,-805.6069 1811.2114,-801.1747 1800.9246,-798.6385 1801.5882,-805.6069"/>
</g>
<!-- 12956&#45;&gt;3356 -->
<g id="edge60" class="edge">
<title>12956&#45;&gt;3356</title>
<path fill="none" stroke="#000000" d="M533.8223,-306.8235C533.4149,-317.7596 532.8885,-331.8907 532.4273,-344.2704"/>
<polygon fill="#000000" stroke="#000000" points="528.9183,-344.451 532.0435,-354.5744 535.9134,-344.7116 528.9183,-344.451"/>
</g>
<!-- 17676&#45;&gt;6939 -->
<g id="edge61" class="edge">
<title>17676&#45;&gt;6939</title>
<path fill="none" stroke="#000000" d="M1644.6368,-834.1974C1648.3674,-833.2364 1652.2155,-832.2452 1656.0332,-831.2619"/>
<polygon fill="#000000" stroke="#000000" points="1657.155,-834.5872 1665.9659,-828.7034 1655.4089,-827.8085 1657.155,-834.5872"/>
</g>
<!-- 18540 -->
<g id="node53" class="node">
<title>18540</title>
<ellipse fill="none" stroke="#000000" cx="464.773" cy="-552.6988" rx="32.4942" ry="18"/>
<text text-anchor="middle" x="464.773" y="-548.9988" font-family="Times,serif" font-size="14.00" fill="#000000">18540</text>
</g>
<!-- 30070&#45;&gt;6904 -->
<g id="edge62" class="edge">
<title>30070&#45;&gt;6904</title>
<path fill="none" stroke="#000000" d="M402.3643,-498.5095C396.3202,-498.9583 389.9479,-499.4314 383.7363,-499.8926"/>
<polygon fill="#000000" stroke="#000000" points="383.2341,-496.4201 373.5207,-500.6511 383.7524,-503.4009 383.2341,-496.4201"/>
</g>
<!-- 30070&#45;&gt;7016 -->
<g id="edge63" class="edge">
<title>30070&#45;&gt;7016</title>
<path fill="none" stroke="#000000" d="M428.9534,-514.1688C426.008,-523.3479 422.3667,-534.6958 419.0847,-544.924"/>
<polygon fill="#000000" stroke="#000000" points="415.6843,-544.0659 415.9615,-554.6571 422.3496,-546.2047 415.6843,-544.0659"/>
</g>
<!-- 30070&#45;&gt;18540 -->
<g id="edge64" class="edge">
<title>30070&#45;&gt;18540</title>
<path fill="none" stroke="#000000" d="M443.9209,-513.3925C446.0344,-517.3765 448.331,-521.7055 450.6018,-525.9861"/>
<polygon fill="#000000" stroke="#000000" points="447.6726,-527.9329 455.4509,-535.1266 453.8563,-524.6524 447.6726,-527.9329"/>
</g>
<!-- 32787&#45;&gt;2764 -->
<g id="edge65" class="edge">
<title>32787&#45;&gt;2764</title>
<path fill="none" stroke="#000000" d="M1157.1688,-1307.1273C1153.3617,-1319.4629 1148.2272,-1336.0993 1143.9028,-1350.1108"/>
<polygon fill="#000000" stroke="#000000" points="1140.5325,-1349.163 1140.9278,-1359.7505 1147.2212,-1351.2274 1140.5325,-1349.163"/>
</g>
<!-- 32787&#45;&gt;7474 -->
<g id="edge66" class="edge">
<title>32787&#45;&gt;7474</title>
<path fill="none" stroke="#000000" d="M1188.8207,-1300.1963C1190.68,-1300.9753 1192.5684,-1301.7666 1194.4605,-1302.5593"/>
<polygon fill="#000000" stroke="#000000" points="1193.2576,-1305.8501 1203.8333,-1306.4864 1195.9627,-1299.3939 1193.2576,-1305.8501"/>
</g>
<!-- 38333&#45;&gt;1221 -->
<g id="edge67" class="edge">
<title>38333&#45;&gt;1221</title>
<path fill="none" stroke="#000000" d="M1025.419,-1382.4343C1021.5528,-1383.5157 1017.5522,-1384.6346 1013.5862,-1385.7439"/>
<polygon fill="#000000" stroke="#000000" points="1012.5834,-1382.39 1003.8958,-1388.4543 1014.469,-1389.1313 1012.5834,-1382.39"/>
</g>
<!-- 38880&#45;&gt;6695 -->
<g id="edge68" class="edge">
<title>38880&#45;&gt;6695</title>
<path fill="none" stroke="#000000" d="M1160.8542,-1651.9664C1167.7672,-1656.6779 1175.5764,-1662.0001 1182.9292,-1667.0113"/>
<polygon fill="#000000" stroke="#000000" points="1181.0356,-1669.9562 1191.2701,-1672.6958 1184.9778,-1664.1718 1181.0356,-1669.9562"/>
</g>
<!-- 38880&#45;&gt;9002 -->
<g id="edge69" class="edge">
<title>38880&#45;&gt;9002</title>
<path fill="none" stroke="#000000" d="M1138.5771,-1655.7878C1137.8731,-1664.6274 1137.0086,-1675.4829 1136.2185,-1685.4044"/>
<polygon fill="#000000" stroke="#000000" points="1132.7064,-1685.4177 1135.4014,-1695.6641 1139.6843,-1685.9735 1132.7064,-1685.4177"/>
</g>
<!-- 38880&#45;&gt;9443 -->
<g id="edge70" class="edge">
<title>38880&#45;&gt;9443</title>
<path fill="none" stroke="#000000" d="M1115.7693,-1649.8295C1109.1983,-1653.1003 1101.9862,-1656.6901 1095.0713,-1660.132"/>
<polygon fill="#000000" stroke="#000000" points="1093.307,-1657.1006 1085.9143,-1664.69 1096.4263,-1663.3672 1093.307,-1657.1006"/>
</g>
</g>
</svg>
