<?xml version="1.0" encoding="UTF-8" standalone="no"?>
<!DOCTYPE svg PUBLIC "-//W3C//DTD SVG 1.1//EN"
 "http://www.w3.org/Graphics/SVG/1.1/DTD/svg11.dtd">
<!-- Generated by graphviz version 2.40.1 (20161225.0304)
 -->
<!-- Title: %3 Pages: 1 -->
<svg width="1524pt" height="1124pt"
 viewBox="0.00 0.00 1524.05 1124.00" xmlns="http://www.w3.org/2000/svg" xmlns:xlink="http://www.w3.org/1999/xlink">
<g id="graph0" class="graph" transform="scale(1 1) rotate(0) translate(4 1120)">
<title>%3</title>
<polygon fill="#ffffff" stroke="transparent" points="-4,4 -4,-1120 1520.0467,-1120 1520.0467,4 -4,4"/>
<!-- 174 -->
<g id="node1" class="node">
<title>174</title>
<ellipse fill="none" stroke="#000000" cx="277" cy="-378" rx="27" ry="18"/>
<text text-anchor="middle" x="277" y="-374.3" font-family="Times,serif" font-size="14.00" fill="#000000">174</text>
</g>
<!-- 209 -->
<g id="node2" class="node">
<title>209</title>
<ellipse fill="none" stroke="#000000" cx="213" cy="-306" rx="27" ry="18"/>
<text text-anchor="middle" x="213" y="-302.3" font-family="Times,serif" font-size="14.00" fill="#000000">209</text>
</g>
<!-- 174&#45;&gt;209 -->
<g id="edge1" class="edge">
<title>174&#45;&gt;209</title>
<path fill="none" stroke="#000000" d="M263.113,-362.3771C254.4747,-352.659 243.2107,-339.987 233.5503,-329.1191"/>
<polygon fill="#000000" stroke="#000000" points="236.1196,-326.7413 226.8599,-321.5924 230.8877,-331.3918 236.1196,-326.7413"/>
</g>
<!-- 1299 -->
<g id="node8" class="node">
<title>1299</title>
<ellipse fill="none" stroke="#000000" cx="138" cy="-234" rx="28.6953" ry="18"/>
<text text-anchor="middle" x="138" y="-230.3" font-family="Times,serif" font-size="14.00" fill="#000000">1299</text>
</g>
<!-- 209&#45;&gt;1299 -->
<g id="edge2" class="edge">
<title>209&#45;&gt;1299</title>
<path fill="none" stroke="#000000" d="M197.46,-291.0816C186.9714,-281.0125 172.9441,-267.5463 161.148,-256.2221"/>
<polygon fill="#000000" stroke="#000000" points="163.4159,-253.5475 153.7782,-249.147 158.5682,-258.5973 163.4159,-253.5475"/>
</g>
<!-- 2828 -->
<g id="node14" class="node">
<title>2828</title>
<ellipse fill="none" stroke="#000000" cx="213" cy="-234" rx="28.6953" ry="18"/>
<text text-anchor="middle" x="213" y="-230.3" font-family="Times,serif" font-size="14.00" fill="#000000">2828</text>
</g>
<!-- 209&#45;&gt;2828 -->
<g id="edge3" class="edge">
<title>209&#45;&gt;2828</title>
<path fill="none" stroke="#000000" d="M213,-287.8314C213,-280.131 213,-270.9743 213,-262.4166"/>
<polygon fill="#000000" stroke="#000000" points="216.5001,-262.4132 213,-252.4133 209.5001,-262.4133 216.5001,-262.4132"/>
</g>
<!-- 701 -->
<g id="node3" class="node">
<title>701</title>
<ellipse fill="none" stroke="#000000" cx="27" cy="-18" rx="27" ry="18"/>
<text text-anchor="middle" x="27" y="-14.3" font-family="Times,serif" font-size="14.00" fill="#000000">701</text>
</g>
<!-- 703 -->
<g id="node4" class="node">
<title>703</title>
<ellipse fill="none" stroke="#000000" cx="352" cy="-378" rx="27" ry="18"/>
<text text-anchor="middle" x="352" y="-374.3" font-family="Times,serif" font-size="14.00" fill="#000000">703</text>
</g>
<!-- 9498 -->
<g id="node44" class="node">
<title>9498</title>
<ellipse fill="none" stroke="#000000" cx="312" cy="-306" rx="28.6953" ry="18"/>
<text text-anchor="middle" x="312" y="-302.3" font-family="Times,serif" font-size="14.00" fill="#000000">9498</text>
</g>
<!-- 703&#45;&gt;9498 -->
<g id="edge4" class="edge">
<title>703&#45;&gt;9498</title>
<path fill="none" stroke="#000000" d="M342.5206,-360.937C337.7585,-352.3654 331.8841,-341.7914 326.5647,-332.2165"/>
<polygon fill="#000000" stroke="#000000" points="329.6053,-330.4825 321.6893,-323.4407 323.4862,-333.882 329.6053,-330.4825"/>
</g>
<!-- 1221 -->
<g id="node5" class="node">
<title>1221</title>
<ellipse fill="none" stroke="#000000" cx="671" cy="-234" rx="28.6953" ry="18"/>
<text text-anchor="middle" x="671" y="-230.3" font-family="Times,serif" font-size="14.00" fill="#000000">1221</text>
</g>
<!-- 1239 -->
<g id="node6" class="node">
<title>1239</title>
<ellipse fill="none" stroke="#000000" cx="101" cy="-18" rx="28.6953" ry="18"/>
<text text-anchor="middle" x="101" y="-14.3" font-family="Times,serif" font-size="14.00" fill="#000000">1239</text>
</g>
<!-- 1273 -->
<g id="node7" class="node">
<title>1273</title>
<ellipse fill="none" stroke="#000000" cx="176" cy="-18" rx="28.6953" ry="18"/>
<text text-anchor="middle" x="176" y="-14.3" font-family="Times,serif" font-size="14.00" fill="#000000">1273</text>
</g>
<!-- 5511 -->
<g id="node28" class="node">
<title>5511</title>
<ellipse fill="none" stroke="#000000" cx="101" cy="-162" rx="28.6953" ry="18"/>
<text text-anchor="middle" x="101" y="-158.3" font-family="Times,serif" font-size="14.00" fill="#000000">5511</text>
</g>
<!-- 1299&#45;&gt;5511 -->
<g id="edge5" class="edge">
<title>1299&#45;&gt;5511</title>
<path fill="none" stroke="#000000" d="M129.0433,-216.5708C124.6803,-208.0807 119.3422,-197.6929 114.4985,-188.2674"/>
<polygon fill="#000000" stroke="#000000" points="117.5579,-186.5633 109.8742,-179.2687 111.3319,-189.7628 117.5579,-186.5633"/>
</g>
<!-- 6461 -->
<g id="node31" class="node">
<title>6461</title>
<ellipse fill="none" stroke="#000000" cx="176" cy="-162" rx="28.6953" ry="18"/>
<text text-anchor="middle" x="176" y="-158.3" font-family="Times,serif" font-size="14.00" fill="#000000">6461</text>
</g>
<!-- 1299&#45;&gt;6461 -->
<g id="edge6" class="edge">
<title>1299&#45;&gt;6461</title>
<path fill="none" stroke="#000000" d="M147.1987,-216.5708C151.6797,-208.0807 157.1621,-197.6929 162.1366,-188.2674"/>
<polygon fill="#000000" stroke="#000000" points="165.3137,-189.7462 166.886,-179.2687 159.123,-186.4789 165.3137,-189.7462"/>
</g>
<!-- 2497 -->
<g id="node9" class="node">
<title>2497</title>
<ellipse fill="none" stroke="#000000" cx="176" cy="-90" rx="28.6953" ry="18"/>
<text text-anchor="middle" x="176" y="-86.3" font-family="Times,serif" font-size="14.00" fill="#000000">2497</text>
</g>
<!-- 2497&#45;&gt;701 -->
<g id="edge7" class="edge">
<title>2497&#45;&gt;701</title>
<path fill="none" stroke="#000000" d="M153.0012,-79.1568C130.127,-68.3376 94.0584,-51.1841 63,-36 61.258,-35.1483 59.4706,-34.2698 57.6681,-33.3802"/>
<polygon fill="#000000" stroke="#000000" points="59.1843,-30.2254 48.671,-28.9137 56.0717,-36.4953 59.1843,-30.2254"/>
</g>
<!-- 2497&#45;&gt;1239 -->
<g id="edge8" class="edge">
<title>2497&#45;&gt;1239</title>
<path fill="none" stroke="#000000" d="M160.0944,-74.7307C149.6537,-64.7075 135.8251,-51.4321 124.1702,-40.2434"/>
<polygon fill="#000000" stroke="#000000" points="126.5204,-37.6478 116.8826,-33.2473 121.6727,-42.6976 126.5204,-37.6478"/>
</g>
<!-- 2497&#45;&gt;1273 -->
<g id="edge9" class="edge">
<title>2497&#45;&gt;1273</title>
<path fill="none" stroke="#000000" d="M176,-71.8314C176,-64.131 176,-54.9743 176,-46.4166"/>
<polygon fill="#000000" stroke="#000000" points="179.5001,-46.4132 176,-36.4133 172.5001,-46.4133 179.5001,-46.4132"/>
</g>
<!-- 3320 -->
<g id="node17" class="node">
<title>3320</title>
<ellipse fill="none" stroke="#000000" cx="251" cy="-18" rx="28.6953" ry="18"/>
<text text-anchor="middle" x="251" y="-14.3" font-family="Times,serif" font-size="14.00" fill="#000000">3320</text>
</g>
<!-- 2497&#45;&gt;3320 -->
<g id="edge10" class="edge">
<title>2497&#45;&gt;3320</title>
<path fill="none" stroke="#000000" d="M191.9056,-74.7307C202.3463,-64.7075 216.1749,-51.4321 227.8298,-40.2434"/>
<polygon fill="#000000" stroke="#000000" points="230.3273,-42.6976 235.1174,-33.2473 225.4796,-37.6478 230.3273,-42.6976"/>
</g>
<!-- 7018 -->
<g id="node37" class="node">
<title>7018</title>
<ellipse fill="none" stroke="#000000" cx="326" cy="-18" rx="28.6953" ry="18"/>
<text text-anchor="middle" x="326" y="-14.3" font-family="Times,serif" font-size="14.00" fill="#000000">7018</text>
</g>
<!-- 2497&#45;&gt;7018 -->
<g id="edge11" class="edge">
<title>2497&#45;&gt;7018</title>
<path fill="none" stroke="#000000" d="M198.9634,-79.084C221.8108,-68.2095 257.8596,-51.0151 289,-36 290.5925,-35.2321 292.223,-34.4445 293.8691,-33.6481"/>
<polygon fill="#000000" stroke="#000000" points="295.8436,-36.5804 303.314,-29.0674 292.789,-30.282 295.8436,-36.5804"/>
</g>
<!-- 2516 -->
<g id="node10" class="node">
<title>2516</title>
<ellipse fill="none" stroke="#000000" cx="483" cy="-522" rx="28.6953" ry="18"/>
<text text-anchor="middle" x="483" y="-518.3" font-family="Times,serif" font-size="14.00" fill="#000000">2516</text>
</g>
<!-- 32787 -->
<g id="node60" class="node">
<title>32787</title>
<ellipse fill="none" stroke="#000000" cx="483" cy="-450" rx="32.4942" ry="18"/>
<text text-anchor="middle" x="483" y="-446.3" font-family="Times,serif" font-size="14.00" fill="#000000">32787</text>
</g>
<!-- 2516&#45;&gt;32787 -->
<g id="edge12" class="edge">
<title>2516&#45;&gt;32787</title>
<path fill="none" stroke="#000000" d="M483,-503.8314C483,-496.131 483,-486.9743 483,-478.4166"/>
<polygon fill="#000000" stroke="#000000" points="486.5001,-478.4132 483,-468.4133 479.5001,-478.4133 486.5001,-478.4132"/>
</g>
<!-- 2686 -->
<g id="node11" class="node">
<title>2686</title>
<ellipse fill="none" stroke="#000000" cx="560" cy="-522" rx="28.6953" ry="18"/>
<text text-anchor="middle" x="560" y="-518.3" font-family="Times,serif" font-size="14.00" fill="#000000">2686</text>
</g>
<!-- 3741 -->
<g id="node22" class="node">
<title>3741</title>
<ellipse fill="none" stroke="#000000" cx="562" cy="-450" rx="28.6953" ry="18"/>
<text text-anchor="middle" x="562" y="-446.3" font-family="Times,serif" font-size="14.00" fill="#000000">3741</text>
</g>
<!-- 2686&#45;&gt;3741 -->
<g id="edge13" class="edge">
<title>2686&#45;&gt;3741</title>
<path fill="none" stroke="#000000" d="M560.5047,-503.8314C560.7186,-496.131 560.9729,-486.9743 561.2106,-478.4166"/>
<polygon fill="#000000" stroke="#000000" points="564.7094,-478.5066 561.4885,-468.4133 557.7121,-478.3122 564.7094,-478.5066"/>
</g>
<!-- 2687 -->
<g id="node12" class="node">
<title>2687</title>
<ellipse fill="none" stroke="#000000" cx="521" cy="-594" rx="28.6953" ry="18"/>
<text text-anchor="middle" x="521" y="-590.3" font-family="Times,serif" font-size="14.00" fill="#000000">2687</text>
</g>
<!-- 2687&#45;&gt;2516 -->
<g id="edge14" class="edge">
<title>2687&#45;&gt;2516</title>
<path fill="none" stroke="#000000" d="M511.8013,-576.5708C507.3203,-568.0807 501.8379,-557.6929 496.8634,-548.2674"/>
<polygon fill="#000000" stroke="#000000" points="499.877,-546.4789 492.114,-539.2687 493.6863,-549.7462 499.877,-546.4789"/>
</g>
<!-- 2687&#45;&gt;2686 -->
<g id="edge15" class="edge">
<title>2687&#45;&gt;2686</title>
<path fill="none" stroke="#000000" d="M530.2425,-576.937C534.8376,-568.4537 540.495,-558.0092 545.6388,-548.513"/>
<polygon fill="#000000" stroke="#000000" points="548.8676,-549.9006 550.553,-539.4407 542.7126,-546.5666 548.8676,-549.9006"/>
</g>
<!-- 9505 -->
<g id="node45" class="node">
<title>9505</title>
<ellipse fill="none" stroke="#000000" cx="636" cy="-522" rx="28.6953" ry="18"/>
<text text-anchor="middle" x="636" y="-518.3" font-family="Times,serif" font-size="14.00" fill="#000000">9505</text>
</g>
<!-- 2687&#45;&gt;9505 -->
<g id="edge16" class="edge">
<title>2687&#45;&gt;9505</title>
<path fill="none" stroke="#000000" d="M541.295,-581.2936C559.4937,-569.8996 586.4062,-553.05 606.8958,-540.2217"/>
<polygon fill="#000000" stroke="#000000" points="608.9026,-543.0948 615.5211,-534.8216 605.1879,-537.1617 608.9026,-543.0948"/>
</g>
<!-- 2764 -->
<g id="node13" class="node">
<title>2764</title>
<ellipse fill="none" stroke="#000000" cx="446" cy="-378" rx="28.6953" ry="18"/>
<text text-anchor="middle" x="446" y="-374.3" font-family="Times,serif" font-size="14.00" fill="#000000">2764</text>
</g>
<!-- 7545 -->
<g id="node40" class="node">
<title>7545</title>
<ellipse fill="none" stroke="#000000" cx="446" cy="-306" rx="28.6953" ry="18"/>
<text text-anchor="middle" x="446" y="-302.3" font-family="Times,serif" font-size="14.00" fill="#000000">7545</text>
</g>
<!-- 2764&#45;&gt;7545 -->
<g id="edge17" class="edge">
<title>2764&#45;&gt;7545</title>
<path fill="none" stroke="#000000" d="M446,-359.8314C446,-352.131 446,-342.9743 446,-334.4166"/>
<polygon fill="#000000" stroke="#000000" points="449.5001,-334.4132 446,-324.4133 442.5001,-334.4133 449.5001,-334.4132"/>
</g>
<!-- 38333 -->
<g id="node62" class="node">
<title>38333</title>
<ellipse fill="none" stroke="#000000" cx="525" cy="-306" rx="32.4942" ry="18"/>
<text text-anchor="middle" x="525" y="-302.3" font-family="Times,serif" font-size="14.00" fill="#000000">38333</text>
</g>
<!-- 2764&#45;&gt;38333 -->
<g id="edge18" class="edge">
<title>2764&#45;&gt;38333</title>
<path fill="none" stroke="#000000" d="M462.3689,-363.0816C473.3426,-353.0801 487.9941,-339.7269 500.3669,-328.4504"/>
<polygon fill="#000000" stroke="#000000" points="503.0737,-330.719 508.107,-321.3961 498.3585,-325.5453 503.0737,-330.719"/>
</g>
<!-- 38561 -->
<g id="node63" class="node">
<title>38561</title>
<ellipse fill="none" stroke="#000000" cx="608" cy="-306" rx="32.4942" ry="18"/>
<text text-anchor="middle" x="608" y="-302.3" font-family="Times,serif" font-size="14.00" fill="#000000">38561</text>
</g>
<!-- 2764&#45;&gt;38561 -->
<g id="edge19" class="edge">
<title>2764&#45;&gt;38561</title>
<path fill="none" stroke="#000000" d="M468.6216,-366.7955C473.3537,-364.5078 478.3256,-362.1454 483,-360 491.6285,-356.0398 538.6492,-335.7862 572.4814,-321.2472"/>
<polygon fill="#000000" stroke="#000000" points="574.2589,-324.293 582.0653,-317.1298 571.4957,-317.8614 574.2589,-324.293"/>
</g>
<!-- 2914 -->
<g id="node15" class="node">
<title>2914</title>
<ellipse fill="none" stroke="#000000" cx="437" cy="-666" rx="28.6953" ry="18"/>
<text text-anchor="middle" x="437" y="-662.3" font-family="Times,serif" font-size="14.00" fill="#000000">2914</text>
</g>
<!-- 6453 -->
<g id="node30" class="node">
<title>6453</title>
<ellipse fill="none" stroke="#000000" cx="427" cy="-594" rx="28.6953" ry="18"/>
<text text-anchor="middle" x="427" y="-590.3" font-family="Times,serif" font-size="14.00" fill="#000000">6453</text>
</g>
<!-- 2914&#45;&gt;6453 -->
<g id="edge20" class="edge">
<title>2914&#45;&gt;6453</title>
<path fill="none" stroke="#000000" d="M434.4766,-647.8314C433.4071,-640.131 432.1353,-630.9743 430.9468,-622.4166"/>
<polygon fill="#000000" stroke="#000000" points="434.3999,-621.8367 429.5574,-612.4133 427.4664,-622.7997 434.3999,-621.8367"/>
</g>
<!-- 3257 -->
<g id="node16" class="node">
<title>3257</title>
<ellipse fill="none" stroke="#000000" cx="369" cy="-522" rx="28.6953" ry="18"/>
<text text-anchor="middle" x="369" y="-518.3" font-family="Times,serif" font-size="14.00" fill="#000000">3257</text>
</g>
<!-- 3491 -->
<g id="node19" class="node">
<title>3491</title>
<ellipse fill="none" stroke="#000000" cx="329" cy="-450" rx="28.6953" ry="18"/>
<text text-anchor="middle" x="329" y="-446.3" font-family="Times,serif" font-size="14.00" fill="#000000">3491</text>
</g>
<!-- 3257&#45;&gt;3491 -->
<g id="edge21" class="edge">
<title>3257&#45;&gt;3491</title>
<path fill="none" stroke="#000000" d="M359.5206,-504.937C354.7585,-496.3654 348.8841,-485.7914 343.5647,-476.2165"/>
<polygon fill="#000000" stroke="#000000" points="346.6053,-474.4825 338.6893,-467.4407 340.4862,-477.882 346.6053,-474.4825"/>
</g>
<!-- 3356 -->
<g id="node18" class="node">
<title>3356</title>
<ellipse fill="none" stroke="#000000" cx="511" cy="-882" rx="28.6953" ry="18"/>
<text text-anchor="middle" x="511" y="-878.3" font-family="Times,serif" font-size="14.00" fill="#000000">3356</text>
</g>
<!-- 3549 -->
<g id="node20" class="node">
<title>3549</title>
<ellipse fill="none" stroke="#000000" cx="511" cy="-810" rx="28.6953" ry="18"/>
<text text-anchor="middle" x="511" y="-806.3" font-family="Times,serif" font-size="14.00" fill="#000000">3549</text>
</g>
<!-- 3356&#45;&gt;3549 -->
<g id="edge22" class="edge">
<title>3356&#45;&gt;3549</title>
<path fill="none" stroke="#000000" d="M511,-863.8314C511,-856.131 511,-846.9743 511,-838.4166"/>
<polygon fill="#000000" stroke="#000000" points="514.5001,-838.4132 511,-828.4133 507.5001,-838.4133 514.5001,-838.4132"/>
</g>
<!-- 3491&#45;&gt;174 -->
<g id="edge23" class="edge">
<title>3491&#45;&gt;174</title>
<path fill="none" stroke="#000000" d="M316.9395,-433.3008C310.442,-424.3043 302.2956,-413.0247 295.0577,-403.0029"/>
<polygon fill="#000000" stroke="#000000" points="297.6875,-400.6662 288.9951,-394.6087 292.0127,-404.7647 297.6875,-400.6662"/>
</g>
<!-- 6762 -->
<g id="node33" class="node">
<title>6762</title>
<ellipse fill="none" stroke="#000000" cx="472" cy="-738" rx="28.6953" ry="18"/>
<text text-anchor="middle" x="472" y="-734.3" font-family="Times,serif" font-size="14.00" fill="#000000">6762</text>
</g>
<!-- 3549&#45;&gt;6762 -->
<g id="edge24" class="edge">
<title>3549&#45;&gt;6762</title>
<path fill="none" stroke="#000000" d="M501.7575,-792.937C497.1624,-784.4537 491.505,-774.0092 486.3612,-764.513"/>
<polygon fill="#000000" stroke="#000000" points="489.2874,-762.5666 481.447,-755.4407 483.1324,-765.9006 489.2874,-762.5666"/>
</g>
<!-- 30070 -->
<g id="node59" class="node">
<title>30070</title>
<ellipse fill="none" stroke="#000000" cx="573" cy="-738" rx="32.4942" ry="18"/>
<text text-anchor="middle" x="573" y="-734.3" font-family="Times,serif" font-size="14.00" fill="#000000">30070</text>
</g>
<!-- 3549&#45;&gt;30070 -->
<g id="edge25" class="edge">
<title>3549&#45;&gt;30070</title>
<path fill="none" stroke="#000000" d="M524.7598,-794.0209C532.8336,-784.6449 543.1949,-772.6123 552.2442,-762.1035"/>
<polygon fill="#000000" stroke="#000000" points="554.9757,-764.2952 558.8488,-754.4336 549.6713,-759.7275 554.9757,-764.2952"/>
</g>
<!-- 3597 -->
<g id="node21" class="node">
<title>3597</title>
<ellipse fill="none" stroke="#000000" cx="473" cy="-1026" rx="28.6953" ry="18"/>
<text text-anchor="middle" x="473" y="-1022.3" font-family="Times,serif" font-size="14.00" fill="#000000">3597</text>
</g>
<!-- 37179 -->
<g id="node61" class="node">
<title>37179</title>
<ellipse fill="none" stroke="#000000" cx="675" cy="-378" rx="32.4942" ry="18"/>
<text text-anchor="middle" x="675" y="-374.3" font-family="Times,serif" font-size="14.00" fill="#000000">37179</text>
</g>
<!-- 3741&#45;&gt;37179 -->
<g id="edge26" class="edge">
<title>3741&#45;&gt;37179</title>
<path fill="none" stroke="#000000" d="M582.2021,-437.1278C599.5982,-426.0436 624.9556,-409.8867 644.7689,-397.2623"/>
<polygon fill="#000000" stroke="#000000" points="646.881,-400.0667 653.4338,-391.7413 643.1194,-394.1632 646.881,-400.0667"/>
</g>
<!-- 4635 -->
<g id="node23" class="node">
<title>4635</title>
<ellipse fill="none" stroke="#000000" cx="371" cy="-234" rx="28.6953" ry="18"/>
<text text-anchor="middle" x="371" y="-230.3" font-family="Times,serif" font-size="14.00" fill="#000000">4635</text>
</g>
<!-- 4637 -->
<g id="node24" class="node">
<title>4637</title>
<ellipse fill="none" stroke="#000000" cx="521" cy="-378" rx="28.6953" ry="18"/>
<text text-anchor="middle" x="521" y="-374.3" font-family="Times,serif" font-size="14.00" fill="#000000">4637</text>
</g>
<!-- 4739 -->
<g id="node25" class="node">
<title>4739</title>
<ellipse fill="none" stroke="#000000" cx="446" cy="-234" rx="28.6953" ry="18"/>
<text text-anchor="middle" x="446" y="-230.3" font-family="Times,serif" font-size="14.00" fill="#000000">4739</text>
</g>
<!-- 38880 -->
<g id="node64" class="node">
<title>38880</title>
<ellipse fill="none" stroke="#000000" cx="445" cy="-162" rx="32.4942" ry="18"/>
<text text-anchor="middle" x="445" y="-158.3" font-family="Times,serif" font-size="14.00" fill="#000000">38880</text>
</g>
<!-- 4739&#45;&gt;38880 -->
<g id="edge27" class="edge">
<title>4739&#45;&gt;38880</title>
<path fill="none" stroke="#000000" d="M445.7477,-215.8314C445.6407,-208.131 445.5135,-198.9743 445.3947,-190.4166"/>
<polygon fill="#000000" stroke="#000000" points="448.8944,-190.3637 445.2557,-180.4133 441.8951,-190.4609 448.8944,-190.3637"/>
</g>
<!-- 4755 -->
<g id="node26" class="node">
<title>4755</title>
<ellipse fill="none" stroke="#000000" cx="292" cy="-162" rx="28.6953" ry="18"/>
<text text-anchor="middle" x="292" y="-158.3" font-family="Times,serif" font-size="14.00" fill="#000000">4755</text>
</g>
<!-- 9583 -->
<g id="node46" class="node">
<title>9583</title>
<ellipse fill="none" stroke="#000000" cx="292" cy="-90" rx="28.6953" ry="18"/>
<text text-anchor="middle" x="292" y="-86.3" font-family="Times,serif" font-size="14.00" fill="#000000">9583</text>
</g>
<!-- 4755&#45;&gt;9583 -->
<g id="edge28" class="edge">
<title>4755&#45;&gt;9583</title>
<path fill="none" stroke="#000000" d="M292,-143.8314C292,-136.131 292,-126.9743 292,-118.4166"/>
<polygon fill="#000000" stroke="#000000" points="295.5001,-118.4132 292,-108.4133 288.5001,-118.4133 295.5001,-118.4132"/>
</g>
<!-- 4826 -->
<g id="node27" class="node">
<title>4826</title>
<ellipse fill="none" stroke="#000000" cx="518" cy="-18" rx="28.6953" ry="18"/>
<text text-anchor="middle" x="518" y="-14.3" font-family="Times,serif" font-size="14.00" fill="#000000">4826</text>
</g>
<!-- 5692 -->
<g id="node29" class="node">
<title>5692</title>
<ellipse fill="none" stroke="#000000" cx="967" cy="-1098" rx="28.6953" ry="18"/>
<text text-anchor="middle" x="967" y="-1094.3" font-family="Times,serif" font-size="14.00" fill="#000000">5692</text>
</g>
<!-- 5692&#45;&gt;3597 -->
<g id="edge29" class="edge">
<title>5692&#45;&gt;3597</title>
<path fill="none" stroke="#000000" d="M938.4155,-1095.8332C851.6364,-1089.0637 592.2092,-1067.3629 511,-1044 508.834,-1043.3769 506.6377,-1042.6422 504.45,-1041.832"/>
<polygon fill="#000000" stroke="#000000" points="505.6104,-1038.5239 495.0335,-1037.9077 502.9176,-1044.9852 505.6104,-1038.5239"/>
</g>
<!-- 10834 -->
<g id="node49" class="node">
<title>10834</title>
<ellipse fill="none" stroke="#000000" cx="552" cy="-1026" rx="32.4942" ry="18"/>
<text text-anchor="middle" x="552" y="-1022.3" font-family="Times,serif" font-size="14.00" fill="#000000">10834</text>
</g>
<!-- 5692&#45;&gt;10834 -->
<g id="edge30" class="edge">
<title>5692&#45;&gt;10834</title>
<path fill="none" stroke="#000000" d="M938.4009,-1096.4071C875.206,-1092.3384 719.3407,-1079.2744 594,-1044 591.5277,-1043.3042 589.009,-1042.4966 586.4952,-1041.6164"/>
<polygon fill="#000000" stroke="#000000" points="587.5223,-1038.2617 576.9321,-1037.946 585.0139,-1044.7969 587.5223,-1038.2617"/>
</g>
<!-- 11008 -->
<g id="node50" class="node">
<title>11008</title>
<ellipse fill="none" stroke="#000000" cx="635" cy="-1026" rx="32.4942" ry="18"/>
<text text-anchor="middle" x="635" y="-1022.3" font-family="Times,serif" font-size="14.00" fill="#000000">11008</text>
</g>
<!-- 5692&#45;&gt;11008 -->
<g id="edge31" class="edge">
<title>5692&#45;&gt;11008</title>
<path fill="none" stroke="#000000" d="M938.5102,-1094.8151C885.964,-1088.4771 770.605,-1072.3918 677,-1044 674.5422,-1043.2545 672.0344,-1042.4097 669.5284,-1041.5026"/>
<polygon fill="#000000" stroke="#000000" points="670.5706,-1038.1522 659.9825,-1037.7737 668.0236,-1044.6724 670.5706,-1038.1522"/>
</g>
<!-- 27865 -->
<g id="node57" class="node">
<title>27865</title>
<ellipse fill="none" stroke="#000000" cx="718" cy="-1026" rx="32.4942" ry="18"/>
<text text-anchor="middle" x="718" y="-1022.3" font-family="Times,serif" font-size="14.00" fill="#000000">27865</text>
</g>
<!-- 5692&#45;&gt;27865 -->
<g id="edge32" class="edge">
<title>5692&#45;&gt;27865</title>
<path fill="none" stroke="#000000" d="M939.8227,-1092.2764C899.889,-1083.5606 823.2444,-1065.6654 760,-1044 757.5703,-1043.1677 755.0834,-1042.258 752.5926,-1041.3038"/>
<polygon fill="#000000" stroke="#000000" points="753.6632,-1037.9618 743.0797,-1037.4727 751.0482,-1044.455 753.6632,-1037.9618"/>
</g>
<!-- 28065 -->
<g id="node58" class="node">
<title>28065</title>
<ellipse fill="none" stroke="#000000" cx="801" cy="-1026" rx="32.4942" ry="18"/>
<text text-anchor="middle" x="801" y="-1022.3" font-family="Times,serif" font-size="14.00" fill="#000000">28065</text>
</g>
<!-- 5692&#45;&gt;28065 -->
<g id="edge33" class="edge">
<title>5692&#45;&gt;28065</title>
<path fill="none" stroke="#000000" d="M943.2162,-1087.6842C915.1868,-1075.5268 868.3574,-1055.2153 836.141,-1041.2419"/>
<polygon fill="#000000" stroke="#000000" points="837.2158,-1037.8931 826.6489,-1037.1248 834.4304,-1044.315 837.2158,-1037.8931"/>
</g>
<!-- 52317 -->
<g id="node65" class="node">
<title>52317</title>
<ellipse fill="none" stroke="#000000" cx="884" cy="-1026" rx="32.4942" ry="18"/>
<text text-anchor="middle" x="884" y="-1022.3" font-family="Times,serif" font-size="14.00" fill="#000000">52317</text>
</g>
<!-- 5692&#45;&gt;52317 -->
<g id="edge34" class="edge">
<title>5692&#45;&gt;52317</title>
<path fill="none" stroke="#000000" d="M950.2037,-1083.4297C938.514,-1073.2892 922.7126,-1059.5821 909.479,-1048.1023"/>
<polygon fill="#000000" stroke="#000000" points="911.4781,-1045.2031 901.6307,-1041.2941 906.8912,-1050.4908 911.4781,-1045.2031"/>
</g>
<!-- 52375 -->
<g id="node66" class="node">
<title>52375</title>
<ellipse fill="none" stroke="#000000" cx="967" cy="-1026" rx="32.4942" ry="18"/>
<text text-anchor="middle" x="967" y="-1022.3" font-family="Times,serif" font-size="14.00" fill="#000000">52375</text>
</g>
<!-- 5692&#45;&gt;52375 -->
<g id="edge35" class="edge">
<title>5692&#45;&gt;52375</title>
<path fill="none" stroke="#000000" d="M967,-1079.8314C967,-1072.131 967,-1062.9743 967,-1054.4166"/>
<polygon fill="#000000" stroke="#000000" points="970.5001,-1054.4132 967,-1044.4133 963.5001,-1054.4133 970.5001,-1054.4132"/>
</g>
<!-- 52376 -->
<g id="node67" class="node">
<title>52376</title>
<ellipse fill="none" stroke="#000000" cx="1050" cy="-1026" rx="32.4942" ry="18"/>
<text text-anchor="middle" x="1050" y="-1022.3" font-family="Times,serif" font-size="14.00" fill="#000000">52376</text>
</g>
<!-- 5692&#45;&gt;52376 -->
<g id="edge36" class="edge">
<title>5692&#45;&gt;52376</title>
<path fill="none" stroke="#000000" d="M983.7963,-1083.4297C995.486,-1073.2892 1011.2874,-1059.5821 1024.521,-1048.1023"/>
<polygon fill="#000000" stroke="#000000" points="1027.1088,-1050.4908 1032.3693,-1041.2941 1022.5219,-1045.2031 1027.1088,-1050.4908"/>
</g>
<!-- 52380 -->
<g id="node68" class="node">
<title>52380</title>
<ellipse fill="none" stroke="#000000" cx="1133" cy="-1026" rx="32.4942" ry="18"/>
<text text-anchor="middle" x="1133" y="-1022.3" font-family="Times,serif" font-size="14.00" fill="#000000">52380</text>
</g>
<!-- 5692&#45;&gt;52380 -->
<g id="edge37" class="edge">
<title>5692&#45;&gt;52380</title>
<path fill="none" stroke="#000000" d="M990.7838,-1087.6842C1018.8132,-1075.5268 1065.6426,-1055.2153 1097.859,-1041.2419"/>
<polygon fill="#000000" stroke="#000000" points="1099.5696,-1044.315 1107.3511,-1037.1248 1096.7842,-1037.8931 1099.5696,-1044.315"/>
</g>
<!-- 52413 -->
<g id="node69" class="node">
<title>52413</title>
<ellipse fill="none" stroke="#000000" cx="1216" cy="-1026" rx="32.4942" ry="18"/>
<text text-anchor="middle" x="1216" y="-1022.3" font-family="Times,serif" font-size="14.00" fill="#000000">52413</text>
</g>
<!-- 5692&#45;&gt;52413 -->
<g id="edge38" class="edge">
<title>5692&#45;&gt;52413</title>
<path fill="none" stroke="#000000" d="M994.1773,-1092.2764C1034.111,-1083.5606 1110.7556,-1065.6654 1174,-1044 1176.4297,-1043.1677 1178.9166,-1042.258 1181.4074,-1041.3038"/>
<polygon fill="#000000" stroke="#000000" points="1182.9518,-1044.455 1190.9203,-1037.4727 1180.3368,-1037.9618 1182.9518,-1044.455"/>
</g>
<!-- 52431 -->
<g id="node70" class="node">
<title>52431</title>
<ellipse fill="none" stroke="#000000" cx="1299" cy="-1026" rx="32.4942" ry="18"/>
<text text-anchor="middle" x="1299" y="-1022.3" font-family="Times,serif" font-size="14.00" fill="#000000">52431</text>
</g>
<!-- 5692&#45;&gt;52431 -->
<g id="edge39" class="edge">
<title>5692&#45;&gt;52431</title>
<path fill="none" stroke="#000000" d="M995.4898,-1094.8151C1048.036,-1088.4771 1163.395,-1072.3918 1257,-1044 1259.4578,-1043.2545 1261.9656,-1042.4097 1264.4716,-1041.5026"/>
<polygon fill="#000000" stroke="#000000" points="1265.9764,-1044.6724 1274.0175,-1037.7737 1263.4294,-1038.1522 1265.9764,-1044.6724"/>
</g>
<!-- 262230 -->
<g id="node71" class="node">
<title>262230</title>
<ellipse fill="none" stroke="#000000" cx="1387" cy="-1026" rx="37.0935" ry="18"/>
<text text-anchor="middle" x="1387" y="-1022.3" font-family="Times,serif" font-size="14.00" fill="#000000">262230</text>
</g>
<!-- 5692&#45;&gt;262230 -->
<g id="edge40" class="edge">
<title>5692&#45;&gt;262230</title>
<path fill="none" stroke="#000000" d="M995.5,-1096.0413C1058.4973,-1091.243 1213.9929,-1076.8146 1340,-1044 1343.1286,-1043.1853 1346.3346,-1042.23 1349.5303,-1041.1919"/>
<polygon fill="#000000" stroke="#000000" points="1350.7111,-1044.4869 1358.9989,-1037.8866 1348.404,-1037.878 1350.7111,-1044.4869"/>
</g>
<!-- 264608 -->
<g id="node72" class="node">
<title>264608</title>
<ellipse fill="none" stroke="#000000" cx="1479" cy="-1026" rx="37.0935" ry="18"/>
<text text-anchor="middle" x="1479" y="-1022.3" font-family="Times,serif" font-size="14.00" fill="#000000">264608</text>
</g>
<!-- 5692&#45;&gt;264608 -->
<g id="edge41" class="edge">
<title>5692&#45;&gt;264608</title>
<path fill="none" stroke="#000000" d="M995.8256,-1097.2303C1069.6272,-1094.71 1270.9921,-1084.3639 1433,-1044 1435.8085,-1043.3003 1438.6759,-1042.4722 1441.538,-1041.5618"/>
<polygon fill="#000000" stroke="#000000" points="1442.8601,-1044.8076 1451.1547,-1038.216 1440.5599,-1038.1963 1442.8601,-1044.8076"/>
</g>
<!-- 6453&#45;&gt;3257 -->
<g id="edge42" class="edge">
<title>6453&#45;&gt;3257</title>
<path fill="none" stroke="#000000" d="M413.8389,-577.6621C406.3491,-568.3644 396.826,-556.5426 388.4842,-546.1873"/>
<polygon fill="#000000" stroke="#000000" points="391.108,-543.8652 382.109,-538.2733 385.6567,-548.2565 391.108,-543.8652"/>
</g>
<!-- 6461&#45;&gt;2497 -->
<g id="edge43" class="edge">
<title>6461&#45;&gt;2497</title>
<path fill="none" stroke="#000000" d="M176,-143.8314C176,-136.131 176,-126.9743 176,-118.4166"/>
<polygon fill="#000000" stroke="#000000" points="179.5001,-118.4132 176,-108.4133 172.5001,-118.4133 179.5001,-118.4132"/>
</g>
<!-- 6695 -->
<g id="node32" class="node">
<title>6695</title>
<ellipse fill="none" stroke="#000000" cx="368" cy="-90" rx="28.6953" ry="18"/>
<text text-anchor="middle" x="368" y="-86.3" font-family="Times,serif" font-size="14.00" fill="#000000">6695</text>
</g>
<!-- 6762&#45;&gt;2914 -->
<g id="edge44" class="edge">
<title>6762&#45;&gt;2914</title>
<path fill="none" stroke="#000000" d="M463.5275,-720.5708C459.4003,-712.0807 454.3507,-701.6929 449.7689,-692.2674"/>
<polygon fill="#000000" stroke="#000000" points="452.9143,-690.7322 445.3945,-683.2687 446.6187,-693.7926 452.9143,-690.7322"/>
</g>
<!-- 6904 -->
<g id="node34" class="node">
<title>6904</title>
<ellipse fill="none" stroke="#000000" cx="521" cy="-666" rx="28.6953" ry="18"/>
<text text-anchor="middle" x="521" y="-662.3" font-family="Times,serif" font-size="14.00" fill="#000000">6904</text>
</g>
<!-- 6904&#45;&gt;2687 -->
<g id="edge45" class="edge">
<title>6904&#45;&gt;2687</title>
<path fill="none" stroke="#000000" d="M521,-647.8314C521,-640.131 521,-630.9743 521,-622.4166"/>
<polygon fill="#000000" stroke="#000000" points="524.5001,-622.4132 521,-612.4133 517.5001,-622.4133 524.5001,-622.4132"/>
</g>
<!-- 6939 -->
<g id="node35" class="node">
<title>6939</title>
<ellipse fill="none" stroke="#000000" cx="521" cy="-234" rx="28.6953" ry="18"/>
<text text-anchor="middle" x="521" y="-230.3" font-family="Times,serif" font-size="14.00" fill="#000000">6939</text>
</g>
<!-- 12266 -->
<g id="node52" class="node">
<title>12266</title>
<ellipse fill="none" stroke="#000000" cx="563" cy="-162" rx="32.4942" ry="18"/>
<text text-anchor="middle" x="563" y="-158.3" font-family="Times,serif" font-size="14.00" fill="#000000">12266</text>
</g>
<!-- 6939&#45;&gt;12266 -->
<g id="edge46" class="edge">
<title>6939&#45;&gt;12266</title>
<path fill="none" stroke="#000000" d="M530.9534,-216.937C535.9535,-208.3654 542.1217,-197.7914 547.707,-188.2165"/>
<polygon fill="#000000" stroke="#000000" points="550.8107,-189.842 552.8263,-179.4407 544.7643,-186.3149 550.8107,-189.842"/>
</g>
<!-- 7016 -->
<g id="node36" class="node">
<title>7016</title>
<ellipse fill="none" stroke="#000000" cx="596" cy="-666" rx="28.6953" ry="18"/>
<text text-anchor="middle" x="596" y="-662.3" font-family="Times,serif" font-size="14.00" fill="#000000">7016</text>
</g>
<!-- 7922 -->
<g id="node41" class="node">
<title>7922</title>
<ellipse fill="none" stroke="#000000" cx="596" cy="-594" rx="28.6953" ry="18"/>
<text text-anchor="middle" x="596" y="-590.3" font-family="Times,serif" font-size="14.00" fill="#000000">7922</text>
</g>
<!-- 7016&#45;&gt;7922 -->
<g id="edge47" class="edge">
<title>7016&#45;&gt;7922</title>
<path fill="none" stroke="#000000" d="M596,-647.8314C596,-640.131 596,-630.9743 596,-622.4166"/>
<polygon fill="#000000" stroke="#000000" points="599.5001,-622.4132 596,-612.4133 592.5001,-622.4133 599.5001,-622.4132"/>
</g>
<!-- 7473 -->
<g id="node38" class="node">
<title>7473</title>
<ellipse fill="none" stroke="#000000" cx="637" cy="-450" rx="28.6953" ry="18"/>
<text text-anchor="middle" x="637" y="-446.3" font-family="Times,serif" font-size="14.00" fill="#000000">7473</text>
</g>
<!-- 7474 -->
<g id="node39" class="node">
<title>7474</title>
<ellipse fill="none" stroke="#000000" cx="596" cy="-378" rx="28.6953" ry="18"/>
<text text-anchor="middle" x="596" y="-374.3" font-family="Times,serif" font-size="14.00" fill="#000000">7474</text>
</g>
<!-- 7545&#45;&gt;4635 -->
<g id="edge48" class="edge">
<title>7545&#45;&gt;4635</title>
<path fill="none" stroke="#000000" d="M430.0944,-290.7307C419.6537,-280.7075 405.8251,-267.4321 394.1702,-256.2434"/>
<polygon fill="#000000" stroke="#000000" points="396.5204,-253.6478 386.8826,-249.2473 391.6727,-258.6976 396.5204,-253.6478"/>
</g>
<!-- 7545&#45;&gt;4739 -->
<g id="edge49" class="edge">
<title>7545&#45;&gt;4739</title>
<path fill="none" stroke="#000000" d="M446,-287.8314C446,-280.131 446,-270.9743 446,-262.4166"/>
<polygon fill="#000000" stroke="#000000" points="449.5001,-262.4132 446,-252.4133 442.5001,-262.4133 449.5001,-262.4132"/>
</g>
<!-- 7545&#45;&gt;6939 -->
<g id="edge50" class="edge">
<title>7545&#45;&gt;6939</title>
<path fill="none" stroke="#000000" d="M461.9056,-290.7307C472.3463,-280.7075 486.1749,-267.4321 497.8298,-256.2434"/>
<polygon fill="#000000" stroke="#000000" points="500.3273,-258.6976 505.1174,-249.2473 495.4796,-253.6478 500.3273,-258.6976"/>
</g>
<!-- 9942 -->
<g id="node47" class="node">
<title>9942</title>
<ellipse fill="none" stroke="#000000" cx="596" cy="-234" rx="28.6953" ry="18"/>
<text text-anchor="middle" x="596" y="-230.3" font-family="Times,serif" font-size="14.00" fill="#000000">9942</text>
</g>
<!-- 7545&#45;&gt;9942 -->
<g id="edge51" class="edge">
<title>7545&#45;&gt;9942</title>
<path fill="none" stroke="#000000" d="M468.9634,-295.084C491.8108,-284.2095 527.8596,-267.0151 559,-252 560.5925,-251.2321 562.223,-250.4445 563.8691,-249.6481"/>
<polygon fill="#000000" stroke="#000000" points="565.8436,-252.5804 573.314,-245.0674 562.789,-246.282 565.8436,-252.5804"/>
</g>
<!-- 9002 -->
<g id="node42" class="node">
<title>9002</title>
<ellipse fill="none" stroke="#000000" cx="443" cy="-90" rx="28.6953" ry="18"/>
<text text-anchor="middle" x="443" y="-86.3" font-family="Times,serif" font-size="14.00" fill="#000000">9002</text>
</g>
<!-- 9443 -->
<g id="node43" class="node">
<title>9443</title>
<ellipse fill="none" stroke="#000000" cx="518" cy="-90" rx="28.6953" ry="18"/>
<text text-anchor="middle" x="518" y="-86.3" font-family="Times,serif" font-size="14.00" fill="#000000">9443</text>
</g>
<!-- 9443&#45;&gt;4826 -->
<g id="edge52" class="edge">
<title>9443&#45;&gt;4826</title>
<path fill="none" stroke="#000000" d="M518,-71.8314C518,-64.131 518,-54.9743 518,-46.4166"/>
<polygon fill="#000000" stroke="#000000" points="521.5001,-46.4132 518,-36.4133 514.5001,-46.4133 521.5001,-46.4132"/>
</g>
<!-- 10026 -->
<g id="node48" class="node">
<title>10026</title>
<ellipse fill="none" stroke="#000000" cx="292" cy="-234" rx="32.4942" ry="18"/>
<text text-anchor="middle" x="292" y="-230.3" font-family="Times,serif" font-size="14.00" fill="#000000">10026</text>
</g>
<!-- 9498&#45;&gt;10026 -->
<g id="edge53" class="edge">
<title>9498&#45;&gt;10026</title>
<path fill="none" stroke="#000000" d="M307.0562,-288.2022C304.8206,-280.1541 302.1274,-270.4588 299.6407,-261.5067"/>
<polygon fill="#000000" stroke="#000000" points="303.0051,-260.541 296.9563,-251.8425 296.2605,-262.4145 303.0051,-260.541"/>
</g>
<!-- 9505&#45;&gt;7473 -->
<g id="edge54" class="edge">
<title>9505&#45;&gt;7473</title>
<path fill="none" stroke="#000000" d="M636.2523,-503.8314C636.3593,-496.131 636.4865,-486.9743 636.6053,-478.4166"/>
<polygon fill="#000000" stroke="#000000" points="640.1049,-478.4609 636.7443,-468.4133 633.1056,-478.3637 640.1049,-478.4609"/>
</g>
<!-- 10026&#45;&gt;4755 -->
<g id="edge55" class="edge">
<title>10026&#45;&gt;4755</title>
<path fill="none" stroke="#000000" d="M292,-215.8314C292,-208.131 292,-198.9743 292,-190.4166"/>
<polygon fill="#000000" stroke="#000000" points="295.5001,-190.4132 292,-180.4133 288.5001,-190.4133 295.5001,-190.4132"/>
</g>
<!-- 12956 -->
<g id="node53" class="node">
<title>12956</title>
<ellipse fill="none" stroke="#000000" cx="511" cy="-954" rx="32.4942" ry="18"/>
<text text-anchor="middle" x="511" y="-950.3" font-family="Times,serif" font-size="14.00" fill="#000000">12956</text>
</g>
<!-- 10834&#45;&gt;12956 -->
<g id="edge56" class="edge">
<title>10834&#45;&gt;12956</title>
<path fill="none" stroke="#000000" d="M542.075,-1008.5708C537.19,-999.9922 531.2017,-989.4762 525.7903,-979.9732"/>
<polygon fill="#000000" stroke="#000000" points="528.8234,-978.2266 520.8336,-971.2687 522.7405,-981.6905 528.8234,-978.2266"/>
</g>
<!-- 22927 -->
<g id="node56" class="node">
<title>22927</title>
<ellipse fill="none" stroke="#000000" cx="594" cy="-954" rx="32.4942" ry="18"/>
<text text-anchor="middle" x="594" y="-950.3" font-family="Times,serif" font-size="14.00" fill="#000000">22927</text>
</g>
<!-- 10834&#45;&gt;22927 -->
<g id="edge57" class="edge">
<title>10834&#45;&gt;22927</title>
<path fill="none" stroke="#000000" d="M562.167,-1008.5708C567.1712,-999.9922 573.3055,-989.4762 578.849,-979.9732"/>
<polygon fill="#000000" stroke="#000000" points="581.9111,-981.6701 583.9266,-971.2687 575.8646,-978.1429 581.9111,-981.6701"/>
</g>
<!-- 12189 -->
<g id="node51" class="node">
<title>12189</title>
<ellipse fill="none" stroke="#000000" cx="597" cy="-18" rx="32.4942" ry="18"/>
<text text-anchor="middle" x="597" y="-14.3" font-family="Times,serif" font-size="14.00" fill="#000000">12189</text>
</g>
<!-- 20454 -->
<g id="node55" class="node">
<title>20454</title>
<ellipse fill="none" stroke="#000000" cx="597" cy="-90" rx="32.4942" ry="18"/>
<text text-anchor="middle" x="597" y="-86.3" font-family="Times,serif" font-size="14.00" fill="#000000">20454</text>
</g>
<!-- 12266&#45;&gt;20454 -->
<g id="edge58" class="edge">
<title>12266&#45;&gt;20454</title>
<path fill="none" stroke="#000000" d="M571.2305,-144.5708C575.1688,-136.2309 579.9717,-126.0598 584.3593,-116.7686"/>
<polygon fill="#000000" stroke="#000000" points="587.6223,-118.0553 588.7275,-107.5182 581.2925,-115.0662 587.6223,-118.0553"/>
</g>
<!-- 12956&#45;&gt;3356 -->
<g id="edge59" class="edge">
<title>12956&#45;&gt;3356</title>
<path fill="none" stroke="#000000" d="M511,-935.8314C511,-928.131 511,-918.9743 511,-910.4166"/>
<polygon fill="#000000" stroke="#000000" points="514.5001,-910.4132 511,-900.4133 507.5001,-910.4133 514.5001,-910.4132"/>
</g>
<!-- 18540 -->
<g id="node54" class="node">
<title>18540</title>
<ellipse fill="none" stroke="#000000" cx="675" cy="-666" rx="32.4942" ry="18"/>
<text text-anchor="middle" x="675" y="-662.3" font-family="Times,serif" font-size="14.00" fill="#000000">18540</text>
</g>
<!-- 20454&#45;&gt;12189 -->
<g id="edge60" class="edge">
<title>20454&#45;&gt;12189</title>
<path fill="none" stroke="#000000" d="M597,-71.8314C597,-64.131 597,-54.9743 597,-46.4166"/>
<polygon fill="#000000" stroke="#000000" points="600.5001,-46.4132 597,-36.4133 593.5001,-46.4133 600.5001,-46.4132"/>
</g>
<!-- 30070&#45;&gt;6904 -->
<g id="edge61" class="edge">
<title>30070&#45;&gt;6904</title>
<path fill="none" stroke="#000000" d="M560.6767,-720.937C554.1726,-711.9313 546.0722,-700.7154 538.8895,-690.7701"/>
<polygon fill="#000000" stroke="#000000" points="541.5692,-688.5025 532.8769,-682.4449 535.8944,-692.601 541.5692,-688.5025"/>
</g>
<!-- 30070&#45;&gt;7016 -->
<g id="edge62" class="edge">
<title>30070&#45;&gt;7016</title>
<path fill="none" stroke="#000000" d="M578.6854,-720.2022C581.2563,-712.1541 584.3534,-702.4588 587.2132,-693.5067"/>
<polygon fill="#000000" stroke="#000000" points="590.5913,-694.4334 590.3003,-683.8425 583.9232,-692.3033 590.5913,-694.4334"/>
</g>
<!-- 30070&#45;&gt;18540 -->
<g id="edge63" class="edge">
<title>30070&#45;&gt;18540</title>
<path fill="none" stroke="#000000" d="M593.1519,-723.7751C608.3796,-713.0262 629.4844,-698.1287 646.449,-686.1536"/>
<polygon fill="#000000" stroke="#000000" points="648.7387,-688.8216 654.8899,-680.1953 644.7018,-683.1028 648.7387,-688.8216"/>
</g>
<!-- 32787&#45;&gt;703 -->
<g id="edge64" class="edge">
<title>32787&#45;&gt;703</title>
<path fill="none" stroke="#000000" d="M459.8814,-437.2936C438.2233,-425.3899 405.7312,-407.5317 382.0667,-394.5252"/>
<polygon fill="#000000" stroke="#000000" points="383.6049,-391.3768 373.1554,-389.6274 380.2332,-397.5113 383.6049,-391.3768"/>
</g>
<!-- 32787&#45;&gt;2764 -->
<g id="edge65" class="edge">
<title>32787&#45;&gt;2764</title>
<path fill="none" stroke="#000000" d="M474.0433,-432.5708C469.6803,-424.0807 464.3422,-413.6929 459.4985,-404.2674"/>
<polygon fill="#000000" stroke="#000000" points="462.5579,-402.5633 454.8742,-395.2687 456.3319,-405.7628 462.5579,-402.5633"/>
</g>
<!-- 32787&#45;&gt;4637 -->
<g id="edge66" class="edge">
<title>32787&#45;&gt;4637</title>
<path fill="none" stroke="#000000" d="M492.1987,-432.5708C496.6797,-424.0807 502.1621,-413.6929 507.1366,-404.2674"/>
<polygon fill="#000000" stroke="#000000" points="510.3137,-405.7462 511.886,-395.2687 504.123,-402.4789 510.3137,-405.7462"/>
</g>
<!-- 32787&#45;&gt;7474 -->
<g id="edge67" class="edge">
<title>32787&#45;&gt;7474</title>
<path fill="none" stroke="#000000" d="M504.5204,-436.2879C522.2901,-424.9656 547.6704,-408.7941 567.1915,-396.3558"/>
<polygon fill="#000000" stroke="#000000" points="569.1472,-399.2599 575.7,-390.9345 565.3857,-393.3564 569.1472,-399.2599"/>
</g>
<!-- 38333&#45;&gt;1221 -->
<g id="edge68" class="edge">
<title>38333&#45;&gt;1221</title>
<path fill="none" stroke="#000000" d="M549.4371,-293.9488C574.1263,-281.7733 612.3789,-262.909 639.3689,-249.5989"/>
<polygon fill="#000000" stroke="#000000" points="640.9845,-252.7047 648.4052,-245.1427 637.8884,-246.4266 640.9845,-252.7047"/>
</g>
<!-- 38880&#45;&gt;6695 -->
<g id="edge69" class="edge">
<title>38880&#45;&gt;6695</title>
<path fill="none" stroke="#000000" d="M428.2921,-146.3771C417.5523,-136.3346 403.4389,-123.1377 391.5673,-112.0369"/>
<polygon fill="#000000" stroke="#000000" points="393.8423,-109.3725 384.1476,-105.099 389.0614,-114.4855 393.8423,-109.3725"/>
</g>
<!-- 38880&#45;&gt;9002 -->
<g id="edge70" class="edge">
<title>38880&#45;&gt;9002</title>
<path fill="none" stroke="#000000" d="M444.4953,-143.8314C444.2814,-136.131 444.0271,-126.9743 443.7894,-118.4166"/>
<polygon fill="#000000" stroke="#000000" points="447.2879,-118.3122 443.5115,-108.4133 440.2906,-118.5066 447.2879,-118.3122"/>
</g>
<!-- 38880&#45;&gt;9443 -->
<g id="edge71" class="edge">
<title>38880&#45;&gt;9443</title>
<path fill="none" stroke="#000000" d="M461.2011,-146.0209C471.1667,-136.1918 484.0924,-123.4431 495.0952,-112.591"/>
<polygon fill="#000000" stroke="#000000" points="497.6833,-114.9543 502.3453,-105.4403 492.7678,-109.9706 497.6833,-114.9543"/>
</g>
</g>
</svg>
