<?xml version="1.0" encoding="UTF-8" standalone="no"?>
<!DOCTYPE svg PUBLIC "-//W3C//DTD SVG 1.1//EN"
 "http://www.w3.org/Graphics/SVG/1.1/DTD/svg11.dtd">
<!-- Generated by graphviz version 2.40.1 (20161225.0304)
 -->
<!-- Title: %3 Pages: 1 -->
<svg width="1327pt" height="1547pt"
 viewBox="0.00 0.00 1327.22 1546.95" xmlns="http://www.w3.org/2000/svg" xmlns:xlink="http://www.w3.org/1999/xlink">
<g id="graph0" class="graph" transform="scale(1 1) rotate(0) translate(4 1542.949)">
<title>%3</title>
<polygon fill="#ffffff" stroke="transparent" points="-4,4 -4,-1542.949 1323.2168,-1542.949 1323.2168,4 -4,4"/>
<!-- 174 -->
<g id="node1" class="node">
<title>174</title>
<ellipse fill="none" stroke="#000000" cx="883.2366" cy="-720.3816" rx="27" ry="18"/>
<text text-anchor="middle" x="883.2366" y="-716.6816" font-family="Times,serif" font-size="14.00" fill="#000000">174</text>
</g>
<!-- 209 -->
<g id="node2" class="node">
<title>209</title>
<ellipse fill="none" stroke="#000000" cx="941.4858" cy="-762.7022" rx="27" ry="18"/>
<text text-anchor="middle" x="941.4858" y="-759.0022" font-family="Times,serif" font-size="14.00" fill="#000000">209</text>
</g>
<!-- 174&#45;&gt;209 -->
<g id="edge1" class="edge">
<title>174&#45;&gt;209</title>
<path fill="none" stroke="#000000" d="M901.667,-733.7721C905.8104,-736.7825 910.2891,-740.0364 914.6961,-743.2383"/>
<polygon fill="#000000" stroke="#000000" points="912.8279,-746.2072 922.9753,-749.2535 916.9424,-740.5441 912.8279,-746.2072"/>
</g>
<!-- 1299 -->
<g id="node8" class="node">
<title>1299</title>
<ellipse fill="none" stroke="#000000" cx="1017.5305" cy="-778.0637" rx="28.6953" ry="18"/>
<text text-anchor="middle" x="1017.5305" y="-774.3637" font-family="Times,serif" font-size="14.00" fill="#000000">1299</text>
</g>
<!-- 209&#45;&gt;1299 -->
<g id="edge2" class="edge">
<title>209&#45;&gt;1299</title>
<path fill="none" stroke="#000000" d="M967.6561,-767.9887C971.7644,-768.8187 976.0778,-769.69 980.3765,-770.5584"/>
<polygon fill="#000000" stroke="#000000" points="979.7812,-774.0087 990.2763,-772.5582 981.1673,-767.1473 979.7812,-774.0087"/>
</g>
<!-- 2828 -->
<g id="node14" class="node">
<title>2828</title>
<ellipse fill="none" stroke="#000000" cx="849.9779" cy="-924.45" rx="28.6953" ry="18"/>
<text text-anchor="middle" x="849.9779" y="-920.75" font-family="Times,serif" font-size="14.00" fill="#000000">2828</text>
</g>
<!-- 209&#45;&gt;2828 -->
<g id="edge3" class="edge">
<title>209&#45;&gt;2828</title>
<path fill="none" stroke="#000000" d="M931.8658,-779.7063C915.8433,-808.0275 883.5893,-865.039 864.6948,-898.4367"/>
<polygon fill="#000000" stroke="#000000" points="861.6222,-896.7598 859.7444,-907.1869 867.7148,-900.2066 861.6222,-896.7598"/>
</g>
<!-- 701 -->
<g id="node3" class="node">
<title>701</title>
<ellipse fill="none" stroke="#000000" cx="1263.7315" cy="-746.6572" rx="27" ry="18"/>
<text text-anchor="middle" x="1263.7315" y="-742.9572" font-family="Times,serif" font-size="14.00" fill="#000000">701</text>
</g>
<!-- 703 -->
<g id="node4" class="node">
<title>703</title>
<ellipse fill="none" stroke="#000000" cx="852.6825" cy="-1225.1733" rx="27" ry="18"/>
<text text-anchor="middle" x="852.6825" y="-1221.4733" font-family="Times,serif" font-size="14.00" fill="#000000">703</text>
</g>
<!-- 9498 -->
<g id="node44" class="node">
<title>9498</title>
<ellipse fill="none" stroke="#000000" cx="868.704" cy="-1295.3681" rx="28.6953" ry="18"/>
<text text-anchor="middle" x="868.704" y="-1291.6681" font-family="Times,serif" font-size="14.00" fill="#000000">9498</text>
</g>
<!-- 703&#45;&gt;9498 -->
<g id="edge4" class="edge">
<title>703&#45;&gt;9498</title>
<path fill="none" stroke="#000000" d="M856.8084,-1243.2502C858.4773,-1250.5621 860.443,-1259.1744 862.2905,-1267.269"/>
<polygon fill="#000000" stroke="#000000" points="858.8988,-1268.1381 864.5363,-1277.1085 865.7233,-1266.5804 858.8988,-1268.1381"/>
</g>
<!-- 1221 -->
<g id="node5" class="node">
<title>1221</title>
<ellipse fill="none" stroke="#000000" cx="28.5975" cy="-999.6362" rx="28.6953" ry="18"/>
<text text-anchor="middle" x="28.5975" y="-995.9362" font-family="Times,serif" font-size="14.00" fill="#000000">1221</text>
</g>
<!-- 1239 -->
<g id="node6" class="node">
<title>1239</title>
<ellipse fill="none" stroke="#000000" cx="1227.447" cy="-843.337" rx="28.6953" ry="18"/>
<text text-anchor="middle" x="1227.447" y="-839.637" font-family="Times,serif" font-size="14.00" fill="#000000">1239</text>
</g>
<!-- 1273 -->
<g id="node7" class="node">
<title>1273</title>
<ellipse fill="none" stroke="#000000" cx="1174.4827" cy="-931.9843" rx="28.6953" ry="18"/>
<text text-anchor="middle" x="1174.4827" y="-928.2843" font-family="Times,serif" font-size="14.00" fill="#000000">1273</text>
</g>
<!-- 5511 -->
<g id="node28" class="node">
<title>5511</title>
<ellipse fill="none" stroke="#000000" cx="1138.7498" cy="-632.1442" rx="28.6953" ry="18"/>
<text text-anchor="middle" x="1138.7498" y="-628.4442" font-family="Times,serif" font-size="14.00" fill="#000000">5511</text>
</g>
<!-- 1299&#45;&gt;5511 -->
<g id="edge5" class="edge">
<title>1299&#45;&gt;5511</title>
<path fill="none" stroke="#000000" d="M1030.9662,-761.8903C1052.2646,-736.252 1093.9021,-686.1302 1118.7283,-656.2454"/>
<polygon fill="#000000" stroke="#000000" points="1121.5561,-658.3187 1125.2539,-648.3901 1116.1716,-653.8457 1121.5561,-658.3187"/>
</g>
<!-- 6461 -->
<g id="node31" class="node">
<title>6461</title>
<ellipse fill="none" stroke="#000000" cx="1057.9842" cy="-847.3432" rx="28.6953" ry="18"/>
<text text-anchor="middle" x="1057.9842" y="-843.6432" font-family="Times,serif" font-size="14.00" fill="#000000">6461</text>
</g>
<!-- 1299&#45;&gt;6461 -->
<g id="edge6" class="edge">
<title>1299&#45;&gt;6461</title>
<path fill="none" stroke="#000000" d="M1027.5303,-795.189C1032.1842,-803.1591 1037.8183,-812.8079 1042.9687,-821.6282"/>
<polygon fill="#000000" stroke="#000000" points="1040.0345,-823.5443 1048.0995,-830.415 1046.0794,-820.0145 1040.0345,-823.5443"/>
</g>
<!-- 2497 -->
<g id="node9" class="node">
<title>2497</title>
<ellipse fill="none" stroke="#000000" cx="1116.2335" cy="-889.6638" rx="28.6953" ry="18"/>
<text text-anchor="middle" x="1116.2335" y="-885.9638" font-family="Times,serif" font-size="14.00" fill="#000000">2497</text>
</g>
<!-- 2497&#45;&gt;701 -->
<g id="edge7" class="edge">
<title>2497&#45;&gt;701</title>
<path fill="none" stroke="#000000" d="M1132.0183,-874.3596C1158.0788,-849.0927 1210.2255,-798.5339 1240.5017,-769.1797"/>
<polygon fill="#000000" stroke="#000000" points="1243.3169,-771.3252 1248.0601,-761.8514 1238.4442,-766.2995 1243.3169,-771.3252"/>
</g>
<!-- 2497&#45;&gt;1239 -->
<g id="edge8" class="edge">
<title>2497&#45;&gt;1239</title>
<path fill="none" stroke="#000000" d="M1140.0916,-879.7255C1155.8163,-873.1753 1176.6351,-864.5031 1194.0042,-857.2678"/>
<polygon fill="#000000" stroke="#000000" points="1195.3593,-860.495 1203.2446,-853.4187 1192.6676,-854.0332 1195.3593,-860.495"/>
</g>
<!-- 2497&#45;&gt;1273 -->
<g id="edge9" class="edge">
<title>2497&#45;&gt;1273</title>
<path fill="none" stroke="#000000" d="M1134.9845,-903.2872C1138.8549,-906.0992 1143.0065,-909.1155 1147.1114,-912.0979"/>
<polygon fill="#000000" stroke="#000000" points="1145.2194,-915.0495 1155.3669,-918.0959 1149.3339,-909.3864 1145.2194,-915.0495"/>
</g>
<!-- 3320 -->
<g id="node17" class="node">
<title>3320</title>
<ellipse fill="none" stroke="#000000" cx="1106.541" cy="-1009.7498" rx="28.6953" ry="18"/>
<text text-anchor="middle" x="1106.541" y="-1006.0498" font-family="Times,serif" font-size="14.00" fill="#000000">3320</text>
</g>
<!-- 2497&#45;&gt;3320 -->
<g id="edge10" class="edge">
<title>2497&#45;&gt;3320</title>
<path fill="none" stroke="#000000" d="M1114.7824,-907.6419C1113.205,-927.1854 1110.6632,-958.6777 1108.819,-981.5257"/>
<polygon fill="#000000" stroke="#000000" points="1105.3179,-981.3997 1108.002,-991.6488 1112.2952,-981.9629 1105.3179,-981.3997"/>
</g>
<!-- 7018 -->
<g id="node37" class="node">
<title>7018</title>
<ellipse fill="none" stroke="#000000" cx="1025.8056" cy="-1074.1342" rx="28.6953" ry="18"/>
<text text-anchor="middle" x="1025.8056" y="-1070.4342" font-family="Times,serif" font-size="14.00" fill="#000000">7018</text>
</g>
<!-- 2497&#45;&gt;7018 -->
<g id="edge11" class="edge">
<title>2497&#45;&gt;7018</title>
<path fill="none" stroke="#000000" d="M1107.7262,-907.0183C1091.8379,-939.4301 1057.5676,-1009.3406 1038.7787,-1047.6693"/>
<polygon fill="#000000" stroke="#000000" points="1035.615,-1046.1716 1034.3561,-1056.6914 1041.9005,-1049.2528 1035.615,-1046.1716"/>
</g>
<!-- 2516 -->
<g id="node10" class="node">
<title>2516</title>
<ellipse fill="none" stroke="#000000" cx="394.25" cy="-987.4631" rx="28.6953" ry="18"/>
<text text-anchor="middle" x="394.25" y="-983.7631" font-family="Times,serif" font-size="14.00" fill="#000000">2516</text>
</g>
<!-- 32787 -->
<g id="node60" class="node">
<title>32787</title>
<ellipse fill="none" stroke="#000000" cx="349.3588" cy="-1043.7549" rx="32.4942" ry="18"/>
<text text-anchor="middle" x="349.3588" y="-1040.0549" font-family="Times,serif" font-size="14.00" fill="#000000">32787</text>
</g>
<!-- 2516&#45;&gt;32787 -->
<g id="edge12" class="edge">
<title>2516&#45;&gt;32787</title>
<path fill="none" stroke="#000000" d="M381.2656,-1003.745C377.4591,-1008.5182 373.2082,-1013.8487 369.0819,-1019.0229"/>
<polygon fill="#000000" stroke="#000000" points="366.2805,-1016.9222 362.782,-1026.9227 371.7534,-1021.2866 366.2805,-1016.9222"/>
</g>
<!-- 2686 -->
<g id="node11" class="node">
<title>2686</title>
<ellipse fill="none" stroke="#000000" cx="212.5884" cy="-503.4273" rx="28.6953" ry="18"/>
<text text-anchor="middle" x="212.5884" y="-499.7273" font-family="Times,serif" font-size="14.00" fill="#000000">2686</text>
</g>
<!-- 3741 -->
<g id="node22" class="node">
<title>3741</title>
<ellipse fill="none" stroke="#000000" cx="141.7455" cy="-490.5712" rx="28.6953" ry="18"/>
<text text-anchor="middle" x="141.7455" y="-486.8712" font-family="Times,serif" font-size="14.00" fill="#000000">3741</text>
</g>
<!-- 2686&#45;&gt;3741 -->
<g id="edge13" class="edge">
<title>2686&#45;&gt;3741</title>
<path fill="none" stroke="#000000" d="M184.9958,-498.42C183.233,-498.1001 181.4429,-497.7753 179.6443,-497.4489"/>
<polygon fill="#000000" stroke="#000000" points="179.8436,-493.9279 169.3793,-495.586 178.5936,-500.8154 179.8436,-493.9279"/>
</g>
<!-- 2687 -->
<g id="node12" class="node">
<title>2687</title>
<ellipse fill="none" stroke="#000000" cx="383.162" cy="-877.6495" rx="28.6953" ry="18"/>
<text text-anchor="middle" x="383.162" y="-873.9495" font-family="Times,serif" font-size="14.00" fill="#000000">2687</text>
</g>
<!-- 2687&#45;&gt;2516 -->
<g id="edge14" class="edge">
<title>2687&#45;&gt;2516</title>
<path fill="none" stroke="#000000" d="M384.993,-895.783C386.7344,-913.03 389.3805,-939.236 391.3982,-959.2193"/>
<polygon fill="#000000" stroke="#000000" points="387.9294,-959.7049 392.4164,-969.3027 394.894,-959.0016 387.9294,-959.7049"/>
</g>
<!-- 2687&#45;&gt;2686 -->
<g id="edge15" class="edge">
<title>2687&#45;&gt;2686</title>
<path fill="none" stroke="#000000" d="M375.1637,-860.102C347.7994,-800.0672 257.7981,-602.6131 224.8303,-530.285"/>
<polygon fill="#000000" stroke="#000000" points="227.9018,-528.5846 220.5694,-520.9369 221.5323,-531.4879 227.9018,-528.5846"/>
</g>
<!-- 9505 -->
<g id="node45" class="node">
<title>9505</title>
<ellipse fill="none" stroke="#000000" cx="236.6265" cy="-416.3271" rx="28.6953" ry="18"/>
<text text-anchor="middle" x="236.6265" y="-412.6271" font-family="Times,serif" font-size="14.00" fill="#000000">9505</text>
</g>
<!-- 2687&#45;&gt;9505 -->
<g id="edge16" class="edge">
<title>2687&#45;&gt;9505</title>
<path fill="none" stroke="#000000" d="M377.5075,-859.8478C355.1145,-789.3505 272.5516,-529.4263 245.3682,-443.8477"/>
<polygon fill="#000000" stroke="#000000" points="248.6275,-442.5469 242.2643,-434.0758 241.9559,-444.6661 248.6275,-442.5469"/>
</g>
<!-- 2764 -->
<g id="node13" class="node">
<title>2764</title>
<ellipse fill="none" stroke="#000000" cx="351.5077" cy="-1134.2235" rx="28.6953" ry="18"/>
<text text-anchor="middle" x="351.5077" y="-1130.5235" font-family="Times,serif" font-size="14.00" fill="#000000">2764</text>
</g>
<!-- 7545 -->
<g id="node40" class="node">
<title>7545</title>
<ellipse fill="none" stroke="#000000" cx="425.5109" cy="-1255.48" rx="28.6953" ry="18"/>
<text text-anchor="middle" x="425.5109" y="-1251.78" font-family="Times,serif" font-size="14.00" fill="#000000">7545</text>
</g>
<!-- 2764&#45;&gt;7545 -->
<g id="edge17" class="edge">
<title>2764&#45;&gt;7545</title>
<path fill="none" stroke="#000000" d="M361.7975,-1151.0837C374.209,-1171.4204 395.2065,-1205.8253 409.6843,-1229.5477"/>
<polygon fill="#000000" stroke="#000000" points="406.8728,-1231.6595 415.0699,-1238.3721 412.8479,-1228.0129 406.8728,-1231.6595"/>
</g>
<!-- 38333 -->
<g id="node62" class="node">
<title>38333</title>
<ellipse fill="none" stroke="#000000" cx="90.4058" cy="-962.7075" rx="32.4942" ry="18"/>
<text text-anchor="middle" x="90.4058" y="-959.0075" font-family="Times,serif" font-size="14.00" fill="#000000">38333</text>
</g>
<!-- 2764&#45;&gt;38333 -->
<g id="edge18" class="edge">
<title>2764&#45;&gt;38333</title>
<path fill="none" stroke="#000000" d="M331.453,-1121.0497C285.7536,-1091.0301 173.7011,-1017.4236 120.0186,-982.1599"/>
<polygon fill="#000000" stroke="#000000" points="121.8969,-979.2062 111.6172,-976.6411 118.0536,-985.0568 121.8969,-979.2062"/>
</g>
<!-- 38561 -->
<g id="node63" class="node">
<title>38561</title>
<ellipse fill="none" stroke="#000000" cx="34.3998" cy="-846.4099" rx="32.4942" ry="18"/>
<text text-anchor="middle" x="34.3998" y="-842.7099" font-family="Times,serif" font-size="14.00" fill="#000000">38561</text>
</g>
<!-- 2764&#45;&gt;38561 -->
<g id="edge19" class="edge">
<title>2764&#45;&gt;38561</title>
<path fill="none" stroke="#000000" d="M334.905,-1119.1546C282.706,-1071.7777 121.6952,-925.641 59.3843,-869.0863"/>
<polygon fill="#000000" stroke="#000000" points="61.3642,-866.1567 51.6071,-862.0276 56.6597,-871.3401 61.3642,-866.1567"/>
</g>
<!-- 2914 -->
<g id="node15" class="node">
<title>2914</title>
<ellipse fill="none" stroke="#000000" cx="650.2397" cy="-551.0995" rx="28.6953" ry="18"/>
<text text-anchor="middle" x="650.2397" y="-547.3995" font-family="Times,serif" font-size="14.00" fill="#000000">2914</text>
</g>
<!-- 6453 -->
<g id="node30" class="node">
<title>6453</title>
<ellipse fill="none" stroke="#000000" cx="708.4889" cy="-593.42" rx="28.6953" ry="18"/>
<text text-anchor="middle" x="708.4889" y="-589.72" font-family="Times,serif" font-size="14.00" fill="#000000">6453</text>
</g>
<!-- 2914&#45;&gt;6453 -->
<g id="edge20" class="edge">
<title>2914&#45;&gt;6453</title>
<path fill="none" stroke="#000000" d="M668.9907,-564.7229C672.8611,-567.5349 677.0127,-570.5512 681.1176,-573.5336"/>
<polygon fill="#000000" stroke="#000000" points="679.2256,-576.4852 689.3731,-579.5315 683.3402,-570.8221 679.2256,-576.4852"/>
</g>
<!-- 3257 -->
<g id="node16" class="node">
<title>3257</title>
<ellipse fill="none" stroke="#000000" cx="766.7381" cy="-635.7405" rx="28.6953" ry="18"/>
<text text-anchor="middle" x="766.7381" y="-632.0405" font-family="Times,serif" font-size="14.00" fill="#000000">3257</text>
</g>
<!-- 3491 -->
<g id="node19" class="node">
<title>3491</title>
<ellipse fill="none" stroke="#000000" cx="824.9874" cy="-678.0611" rx="28.6953" ry="18"/>
<text text-anchor="middle" x="824.9874" y="-674.3611" font-family="Times,serif" font-size="14.00" fill="#000000">3491</text>
</g>
<!-- 3257&#45;&gt;3491 -->
<g id="edge21" class="edge">
<title>3257&#45;&gt;3491</title>
<path fill="none" stroke="#000000" d="M785.4892,-649.364C789.3596,-652.176 793.5111,-655.1923 797.6161,-658.1747"/>
<polygon fill="#000000" stroke="#000000" points="795.7241,-661.1263 805.8715,-664.1726 799.8386,-655.4632 795.7241,-661.1263"/>
</g>
<!-- 3356 -->
<g id="node18" class="node">
<title>3356</title>
<ellipse fill="none" stroke="#000000" cx="821.6801" cy="-328.596" rx="28.6953" ry="18"/>
<text text-anchor="middle" x="821.6801" y="-324.896" font-family="Times,serif" font-size="14.00" fill="#000000">3356</text>
</g>
<!-- 3549 -->
<g id="node20" class="node">
<title>3549</title>
<ellipse fill="none" stroke="#000000" cx="533.7412" cy="-466.4584" rx="28.6953" ry="18"/>
<text text-anchor="middle" x="533.7412" y="-462.7584" font-family="Times,serif" font-size="14.00" fill="#000000">3549</text>
</g>
<!-- 3356&#45;&gt;3549 -->
<g id="edge22" class="edge">
<title>3356&#45;&gt;3549</title>
<path fill="none" stroke="#000000" d="M798.6036,-339.6448C747.4062,-364.1577 624.2256,-423.1354 565.681,-451.1659"/>
<polygon fill="#000000" stroke="#000000" points="564.036,-448.073 556.528,-455.5483 567.0589,-454.3866 564.036,-448.073"/>
</g>
<!-- 3491&#45;&gt;174 -->
<g id="edge23" class="edge">
<title>3491&#45;&gt;174</title>
<path fill="none" stroke="#000000" d="M843.7384,-691.6845C847.8728,-694.6883 852.328,-697.9252 856.7045,-701.1049"/>
<polygon fill="#000000" stroke="#000000" points="854.7711,-704.0265 864.9186,-707.0728 858.8856,-698.3633 854.7711,-704.0265"/>
</g>
<!-- 6762 -->
<g id="node33" class="node">
<title>6762</title>
<ellipse fill="none" stroke="#000000" cx="591.9905" cy="-508.7789" rx="28.6953" ry="18"/>
<text text-anchor="middle" x="591.9905" y="-505.0789" font-family="Times,serif" font-size="14.00" fill="#000000">6762</text>
</g>
<!-- 3549&#45;&gt;6762 -->
<g id="edge24" class="edge">
<title>3549&#45;&gt;6762</title>
<path fill="none" stroke="#000000" d="M552.4923,-480.0818C556.3627,-482.8938 560.5142,-485.9101 564.6192,-488.8925"/>
<polygon fill="#000000" stroke="#000000" points="562.7272,-491.8441 572.8746,-494.8905 566.8417,-486.181 562.7272,-491.8441"/>
</g>
<!-- 30070 -->
<g id="node59" class="node">
<title>30070</title>
<ellipse fill="none" stroke="#000000" cx="461.2557" cy="-741.135" rx="32.4942" ry="18"/>
<text text-anchor="middle" x="461.2557" y="-737.435" font-family="Times,serif" font-size="14.00" fill="#000000">30070</text>
</g>
<!-- 3549&#45;&gt;30070 -->
<g id="edge25" class="edge">
<title>3549&#45;&gt;30070</title>
<path fill="none" stroke="#000000" d="M528.9853,-484.4807C516.6465,-531.237 483.5379,-656.6987 468.6667,-713.0514"/>
<polygon fill="#000000" stroke="#000000" points="465.1967,-712.4843 466.0291,-723.0463 471.965,-714.2704 465.1967,-712.4843"/>
</g>
<!-- 3597 -->
<g id="node21" class="node">
<title>3597</title>
<ellipse fill="none" stroke="#000000" cx="435.5406" cy="-86.197" rx="28.6953" ry="18"/>
<text text-anchor="middle" x="435.5406" y="-82.497" font-family="Times,serif" font-size="14.00" fill="#000000">3597</text>
</g>
<!-- 37179 -->
<g id="node61" class="node">
<title>37179</title>
<ellipse fill="none" stroke="#000000" cx="70.9025" cy="-477.7151" rx="32.4942" ry="18"/>
<text text-anchor="middle" x="70.9025" y="-474.0151" font-family="Times,serif" font-size="14.00" fill="#000000">37179</text>
</g>
<!-- 3741&#45;&gt;37179 -->
<g id="edge26" class="edge">
<title>3741&#45;&gt;37179</title>
<path fill="none" stroke="#000000" d="M114.1529,-485.5639C113.3953,-485.4264 112.6327,-485.288 111.8665,-485.149"/>
<polygon fill="#000000" stroke="#000000" points="112.2914,-481.669 101.8271,-483.3271 111.0415,-488.5565 112.2914,-481.669"/>
</g>
<!-- 4635 -->
<g id="node23" class="node">
<title>4635</title>
<ellipse fill="none" stroke="#000000" cx="744.0219" cy="-1384.6225" rx="28.6953" ry="18"/>
<text text-anchor="middle" x="744.0219" y="-1380.9225" font-family="Times,serif" font-size="14.00" fill="#000000">4635</text>
</g>
<!-- 4637 -->
<g id="node24" class="node">
<title>4637</title>
<ellipse fill="none" stroke="#000000" cx="70.9025" cy="-709.1249" rx="28.6953" ry="18"/>
<text text-anchor="middle" x="70.9025" y="-705.4249" font-family="Times,serif" font-size="14.00" fill="#000000">4637</text>
</g>
<!-- 4739 -->
<g id="node25" class="node">
<title>4739</title>
<ellipse fill="none" stroke="#000000" cx="463.7474" cy="-1346.6568" rx="28.6953" ry="18"/>
<text text-anchor="middle" x="463.7474" y="-1342.9568" font-family="Times,serif" font-size="14.00" fill="#000000">4739</text>
</g>
<!-- 38880 -->
<g id="node64" class="node">
<title>38880</title>
<ellipse fill="none" stroke="#000000" cx="441.4982" cy="-1415.1328" rx="32.4942" ry="18"/>
<text text-anchor="middle" x="441.4982" y="-1411.4328" font-family="Times,serif" font-size="14.00" fill="#000000">38880</text>
</g>
<!-- 4739&#45;&gt;38880 -->
<g id="edge27" class="edge">
<title>4739&#45;&gt;38880</title>
<path fill="none" stroke="#000000" d="M457.9017,-1364.648C455.6458,-1371.5912 453.0128,-1379.6948 450.525,-1387.3513"/>
<polygon fill="#000000" stroke="#000000" points="447.1437,-1386.4318 447.3822,-1397.024 453.8011,-1388.595 447.1437,-1386.4318"/>
</g>
<!-- 4755 -->
<g id="node26" class="node">
<title>4755</title>
<ellipse fill="none" stroke="#000000" cx="900.747" cy="-1435.7577" rx="28.6953" ry="18"/>
<text text-anchor="middle" x="900.747" y="-1432.0577" font-family="Times,serif" font-size="14.00" fill="#000000">4755</text>
</g>
<!-- 9583 -->
<g id="node46" class="node">
<title>9583</title>
<ellipse fill="none" stroke="#000000" cx="916.7685" cy="-1505.9525" rx="28.6953" ry="18"/>
<text text-anchor="middle" x="916.7685" y="-1502.2525" font-family="Times,serif" font-size="14.00" fill="#000000">9583</text>
</g>
<!-- 4755&#45;&gt;9583 -->
<g id="edge28" class="edge">
<title>4755&#45;&gt;9583</title>
<path fill="none" stroke="#000000" d="M904.8729,-1453.8346C906.5418,-1461.1465 908.5075,-1469.7588 910.3551,-1477.8534"/>
<polygon fill="#000000" stroke="#000000" points="906.9633,-1478.7225 912.6009,-1487.6929 913.7878,-1477.1648 906.9633,-1478.7225"/>
</g>
<!-- 4826 -->
<g id="node27" class="node">
<title>4826</title>
<ellipse fill="none" stroke="#000000" cx="230.8293" cy="-1481.0603" rx="28.6953" ry="18"/>
<text text-anchor="middle" x="230.8293" y="-1477.3603" font-family="Times,serif" font-size="14.00" fill="#000000">4826</text>
</g>
<!-- 5692 -->
<g id="node29" class="node">
<title>5692</title>
<ellipse fill="none" stroke="#000000" cx="947.3187" cy="-149.5999" rx="28.6953" ry="18"/>
<text text-anchor="middle" x="947.3187" y="-145.8999" font-family="Times,serif" font-size="14.00" fill="#000000">5692</text>
</g>
<!-- 5692&#45;&gt;3597 -->
<g id="edge29" class="edge">
<title>5692&#45;&gt;3597</title>
<path fill="none" stroke="#000000" d="M919.0743,-146.1007C832.7429,-135.4054 572.2662,-103.1356 473.7997,-90.9368"/>
<polygon fill="#000000" stroke="#000000" points="474.0521,-87.4414 463.6977,-89.6853 473.1915,-94.3883 474.0521,-87.4414"/>
</g>
<!-- 10834 -->
<g id="node49" class="node">
<title>10834</title>
<ellipse fill="none" stroke="#000000" cx="878.2757" cy="-196.184" rx="32.4942" ry="18"/>
<text text-anchor="middle" x="878.2757" y="-192.484" font-family="Times,serif" font-size="14.00" fill="#000000">10834</text>
</g>
<!-- 5692&#45;&gt;10834 -->
<g id="edge30" class="edge">
<title>5692&#45;&gt;10834</title>
<path fill="none" stroke="#000000" d="M927.7184,-162.8244C921.4393,-167.061 914.3446,-171.8479 907.5304,-176.4455"/>
<polygon fill="#000000" stroke="#000000" points="905.4634,-173.6179 899.1314,-182.1124 909.3786,-179.4207 905.4634,-173.6179"/>
</g>
<!-- 11008 -->
<g id="node50" class="node">
<title>11008</title>
<ellipse fill="none" stroke="#000000" cx="530.4951" cy="-45.6115" rx="32.4942" ry="18"/>
<text text-anchor="middle" x="530.4951" y="-41.9115" font-family="Times,serif" font-size="14.00" fill="#000000">11008</text>
</g>
<!-- 5692&#45;&gt;11008 -->
<g id="edge31" class="edge">
<title>5692&#45;&gt;11008</title>
<path fill="none" stroke="#000000" d="M920.6104,-142.9367C849.3729,-125.1645 654.5438,-76.5589 570.2424,-55.5275"/>
<polygon fill="#000000" stroke="#000000" points="570.8377,-52.0688 560.2878,-53.0441 569.1432,-58.8607 570.8377,-52.0688"/>
</g>
<!-- 27865 -->
<g id="node57" class="node">
<title>27865</title>
<ellipse fill="none" stroke="#000000" cx="631.1705" cy="-22.6329" rx="32.4942" ry="18"/>
<text text-anchor="middle" x="631.1705" y="-18.9329" font-family="Times,serif" font-size="14.00" fill="#000000">27865</text>
</g>
<!-- 5692&#45;&gt;27865 -->
<g id="edge32" class="edge">
<title>5692&#45;&gt;27865</title>
<path fill="none" stroke="#000000" d="M923.036,-139.8478C867.7491,-117.6442 732.2563,-63.2296 667.1917,-37.0993"/>
<polygon fill="#000000" stroke="#000000" points="668.3327,-33.7858 657.7487,-33.3069 665.7239,-40.2816 668.3327,-33.7858"/>
</g>
<!-- 28065 -->
<g id="node58" class="node">
<title>28065</title>
<ellipse fill="none" stroke="#000000" cx="734.331" cy="-18" rx="32.4942" ry="18"/>
<text text-anchor="middle" x="734.331" y="-14.3" font-family="Times,serif" font-size="14.00" fill="#000000">28065</text>
</g>
<!-- 5692&#45;&gt;28065 -->
<g id="edge33" class="edge">
<title>5692&#45;&gt;28065</title>
<path fill="none" stroke="#000000" d="M926.8966,-136.9815C889.2969,-113.7496 808.9411,-64.0997 764.8469,-36.855"/>
<polygon fill="#000000" stroke="#000000" points="766.6225,-33.8379 756.2756,-31.559 762.943,-39.7929 766.6225,-33.8379"/>
</g>
<!-- 52317 -->
<g id="node65" class="node">
<title>52317</title>
<ellipse fill="none" stroke="#000000" cx="836.661" cy="-31.8615" rx="32.4942" ry="18"/>
<text text-anchor="middle" x="836.661" y="-28.1615" font-family="Times,serif" font-size="14.00" fill="#000000">52317</text>
</g>
<!-- 5692&#45;&gt;52317 -->
<g id="edge34" class="edge">
<title>5692&#45;&gt;52317</title>
<path fill="none" stroke="#000000" d="M932.3949,-133.7211C913.4201,-113.5322 880.5049,-78.5109 858.6524,-55.2601"/>
<polygon fill="#000000" stroke="#000000" points="861.1007,-52.7545 851.7017,-47.8647 855.9999,-57.5485 861.1007,-52.7545"/>
</g>
<!-- 52375 -->
<g id="node66" class="node">
<title>52375</title>
<ellipse fill="none" stroke="#000000" cx="934.8713" cy="-63.772" rx="32.4942" ry="18"/>
<text text-anchor="middle" x="934.8713" y="-60.072" font-family="Times,serif" font-size="14.00" fill="#000000">52375</text>
</g>
<!-- 5692&#45;&gt;52375 -->
<g id="edge35" class="edge">
<title>5692&#45;&gt;52375</title>
<path fill="none" stroke="#000000" d="M944.6789,-131.398C943.0287,-120.0189 940.8684,-105.1232 938.9955,-92.209"/>
<polygon fill="#000000" stroke="#000000" points="942.4064,-91.3417 937.5073,-81.9477 935.4789,-92.3465 942.4064,-91.3417"/>
</g>
<!-- 52376 -->
<g id="node67" class="node">
<title>52376</title>
<ellipse fill="none" stroke="#000000" cx="1025.8056" cy="-112.7058" rx="32.4942" ry="18"/>
<text text-anchor="middle" x="1025.8056" y="-109.0058" font-family="Times,serif" font-size="14.00" fill="#000000">52376</text>
</g>
<!-- 5692&#45;&gt;52376 -->
<g id="edge36" class="edge">
<title>5692&#45;&gt;52376</title>
<path fill="none" stroke="#000000" d="M970.4429,-138.73C977.0334,-135.632 984.3581,-132.1889 991.4648,-128.8482"/>
<polygon fill="#000000" stroke="#000000" points="993.3704,-131.82 1000.9314,-124.3983 990.3924,-125.485 993.3704,-131.82"/>
</g>
<!-- 52380 -->
<g id="node68" class="node">
<title>52380</title>
<ellipse fill="none" stroke="#000000" cx="1106.541" cy="-177.0902" rx="32.4942" ry="18"/>
<text text-anchor="middle" x="1106.541" y="-173.3902" font-family="Times,serif" font-size="14.00" fill="#000000">52380</text>
</g>
<!-- 5692&#45;&gt;52380 -->
<g id="edge37" class="edge">
<title>5692&#45;&gt;52380</title>
<path fill="none" stroke="#000000" d="M975.0531,-154.3883C999.97,-158.6903 1036.8954,-165.0656 1065.2774,-169.9659"/>
<polygon fill="#000000" stroke="#000000" points="1064.8596,-173.4454 1075.3093,-171.6979 1066.0506,-166.5475 1064.8596,-173.4454"/>
</g>
<!-- 52413 -->
<g id="node69" class="node">
<title>52413</title>
<ellipse fill="none" stroke="#000000" cx="1174.4827" cy="-254.8557" rx="32.4942" ry="18"/>
<text text-anchor="middle" x="1174.4827" y="-251.1557" font-family="Times,serif" font-size="14.00" fill="#000000">52413</text>
</g>
<!-- 5692&#45;&gt;52413 -->
<g id="edge38" class="edge">
<title>5692&#45;&gt;52413</title>
<path fill="none" stroke="#000000" d="M970.3505,-160.2716C1010.4505,-178.8518 1093.2805,-217.2309 1140.168,-238.9561"/>
<polygon fill="#000000" stroke="#000000" points="1138.7765,-242.1687 1149.3213,-243.1972 1141.7194,-235.8174 1138.7765,-242.1687"/>
</g>
<!-- 52431 -->
<g id="node70" class="node">
<title>52431</title>
<ellipse fill="none" stroke="#000000" cx="1227.447" cy="-343.503" rx="32.4942" ry="18"/>
<text text-anchor="middle" x="1227.447" y="-339.803" font-family="Times,serif" font-size="14.00" fill="#000000">52431</text>
</g>
<!-- 5692&#45;&gt;52431 -->
<g id="edge39" class="edge">
<title>5692&#45;&gt;52431</title>
<path fill="none" stroke="#000000" d="M966.5731,-162.9276C1014.8966,-196.3769 1141.5135,-284.0203 1198.6916,-323.5987"/>
<polygon fill="#000000" stroke="#000000" points="1196.7139,-326.4864 1206.9283,-329.3001 1200.698,-320.7307 1196.7139,-326.4864"/>
</g>
<!-- 262230 -->
<g id="node71" class="node">
<title>262230</title>
<ellipse fill="none" stroke="#000000" cx="1263.7315" cy="-440.1828" rx="37.0935" ry="18"/>
<text text-anchor="middle" x="1263.7315" y="-436.4828" font-family="Times,serif" font-size="14.00" fill="#000000">262230</text>
</g>
<!-- 5692&#45;&gt;262230 -->
<g id="edge40" class="edge">
<title>5692&#45;&gt;262230</title>
<path fill="none" stroke="#000000" d="M963.8849,-164.8137C1015.9539,-212.6321 1176.531,-360.1007 1238.7457,-417.2366"/>
<polygon fill="#000000" stroke="#000000" points="1236.4397,-419.8709 1246.1725,-424.0571 1241.1746,-414.7152 1236.4397,-419.8709"/>
</g>
<!-- 264608 -->
<g id="node72" class="node">
<title>264608</title>
<ellipse fill="none" stroke="#000000" cx="1282.1701" cy="-541.7878" rx="37.0935" ry="18"/>
<text text-anchor="middle" x="1282.1701" y="-538.0878" font-family="Times,serif" font-size="14.00" fill="#000000">264608</text>
</g>
<!-- 5692&#45;&gt;264608 -->
<g id="edge41" class="edge">
<title>5692&#45;&gt;264608</title>
<path fill="none" stroke="#000000" d="M960.86,-165.4598C1012.5802,-226.0361 1197.9114,-443.1015 1260.9806,-516.97"/>
<polygon fill="#000000" stroke="#000000" points="1258.5581,-519.5229 1267.7131,-524.8553 1263.8816,-514.9776 1258.5581,-519.5229"/>
</g>
<!-- 6453&#45;&gt;3257 -->
<g id="edge42" class="edge">
<title>6453&#45;&gt;3257</title>
<path fill="none" stroke="#000000" d="M727.24,-607.0434C731.1104,-609.8555 735.2619,-612.8717 739.3668,-615.8541"/>
<polygon fill="#000000" stroke="#000000" points="737.4749,-618.8058 747.6223,-621.8521 741.5894,-613.1426 737.4749,-618.8058"/>
</g>
<!-- 6461&#45;&gt;2497 -->
<g id="edge43" class="edge">
<title>6461&#45;&gt;2497</title>
<path fill="none" stroke="#000000" d="M1076.7353,-860.9667C1080.6057,-863.7787 1084.7572,-866.795 1088.8622,-869.7774"/>
<polygon fill="#000000" stroke="#000000" points="1086.9702,-872.729 1097.1176,-875.7753 1091.0847,-867.0659 1086.9702,-872.729"/>
</g>
<!-- 6695 -->
<g id="node32" class="node">
<title>6695</title>
<ellipse fill="none" stroke="#000000" cx="582.8466" cy="-1520.949" rx="28.6953" ry="18"/>
<text text-anchor="middle" x="582.8466" y="-1517.249" font-family="Times,serif" font-size="14.00" fill="#000000">6695</text>
</g>
<!-- 6762&#45;&gt;2914 -->
<g id="edge44" class="edge">
<title>6762&#45;&gt;2914</title>
<path fill="none" stroke="#000000" d="M610.7415,-522.4024C614.6119,-525.2144 618.7635,-528.2307 622.8684,-531.2131"/>
<polygon fill="#000000" stroke="#000000" points="620.9764,-534.1647 631.1239,-537.211 625.0909,-528.5015 620.9764,-534.1647"/>
</g>
<!-- 6904 -->
<g id="node34" class="node">
<title>6904</title>
<ellipse fill="none" stroke="#000000" cx="437.3832" cy="-830.2779" rx="28.6953" ry="18"/>
<text text-anchor="middle" x="437.3832" y="-826.5779" font-family="Times,serif" font-size="14.00" fill="#000000">6904</text>
</g>
<!-- 6904&#45;&gt;2687 -->
<g id="edge45" class="edge">
<title>6904&#45;&gt;2687</title>
<path fill="none" stroke="#000000" d="M420.5245,-845.0069C416.4831,-848.5378 412.0853,-852.38 407.7726,-856.1479"/>
<polygon fill="#000000" stroke="#000000" points="405.425,-853.5513 400.197,-862.7665 410.0306,-858.8228 405.425,-853.5513"/>
</g>
<!-- 6939 -->
<g id="node35" class="node">
<title>6939</title>
<ellipse fill="none" stroke="#000000" cx="214.685" cy="-1212.6305" rx="28.6953" ry="18"/>
<text text-anchor="middle" x="214.685" y="-1208.9305" font-family="Times,serif" font-size="14.00" fill="#000000">6939</text>
</g>
<!-- 12266 -->
<g id="node52" class="node">
<title>12266</title>
<ellipse fill="none" stroke="#000000" cx="169.7937" cy="-1268.9224" rx="32.4942" ry="18"/>
<text text-anchor="middle" x="169.7937" y="-1265.2224" font-family="Times,serif" font-size="14.00" fill="#000000">12266</text>
</g>
<!-- 6939&#45;&gt;12266 -->
<g id="edge46" class="edge">
<title>6939&#45;&gt;12266</title>
<path fill="none" stroke="#000000" d="M201.7006,-1228.9125C197.894,-1233.6857 193.6432,-1239.0162 189.5169,-1244.1904"/>
<polygon fill="#000000" stroke="#000000" points="186.7155,-1242.0896 183.217,-1252.0902 192.1883,-1246.4541 186.7155,-1242.0896"/>
</g>
<!-- 7016 -->
<g id="node36" class="node">
<title>7016</title>
<ellipse fill="none" stroke="#000000" cx="399.4473" cy="-408.7763" rx="28.6953" ry="18"/>
<text text-anchor="middle" x="399.4473" y="-405.0763" font-family="Times,serif" font-size="14.00" fill="#000000">7016</text>
</g>
<!-- 7922 -->
<g id="node41" class="node">
<title>7922</title>
<ellipse fill="none" stroke="#000000" cx="337.639" cy="-371.8475" rx="28.6953" ry="18"/>
<text text-anchor="middle" x="337.639" y="-368.1475" font-family="Times,serif" font-size="14.00" fill="#000000">7922</text>
</g>
<!-- 7016&#45;&gt;7922 -->
<g id="edge47" class="edge">
<title>7016&#45;&gt;7922</title>
<path fill="none" stroke="#000000" d="M378.5219,-396.2739C374.8971,-394.1082 371.0672,-391.8199 367.2632,-389.5472"/>
<polygon fill="#000000" stroke="#000000" points="368.9226,-386.4615 358.543,-384.337 365.3323,-392.4706 368.9226,-386.4615"/>
</g>
<!-- 7473 -->
<g id="node38" class="node">
<title>7473</title>
<ellipse fill="none" stroke="#000000" cx="169.2176" cy="-391.0281" rx="28.6953" ry="18"/>
<text text-anchor="middle" x="169.2176" y="-387.3281" font-family="Times,serif" font-size="14.00" fill="#000000">7473</text>
</g>
<!-- 7474 -->
<g id="node39" class="node">
<title>7474</title>
<ellipse fill="none" stroke="#000000" cx="60.4889" cy="-593.42" rx="28.6953" ry="18"/>
<text text-anchor="middle" x="60.4889" y="-589.72" font-family="Times,serif" font-size="14.00" fill="#000000">7474</text>
</g>
<!-- 7545&#45;&gt;4635 -->
<g id="edge48" class="edge">
<title>7545&#45;&gt;4635</title>
<path fill="none" stroke="#000000" d="M449.7124,-1265.2927C506.0514,-1288.1357 646.0684,-1344.9066 710.5461,-1371.0495"/>
<polygon fill="#000000" stroke="#000000" points="709.2748,-1374.3108 719.8572,-1374.8248 711.9051,-1367.8237 709.2748,-1374.3108"/>
</g>
<!-- 7545&#45;&gt;4739 -->
<g id="edge49" class="edge">
<title>7545&#45;&gt;4739</title>
<path fill="none" stroke="#000000" d="M432.8833,-1273.0598C438.4375,-1286.304 446.1511,-1304.6975 452.4774,-1319.7828"/>
<polygon fill="#000000" stroke="#000000" points="449.3026,-1321.2626 456.3977,-1329.1309 455.7579,-1318.5554 449.3026,-1321.2626"/>
</g>
<!-- 7545&#45;&gt;6939 -->
<g id="edge50" class="edge">
<title>7545&#45;&gt;6939</title>
<path fill="none" stroke="#000000" d="M397.9491,-1249.8782C360.5982,-1242.2868 293.7841,-1228.7071 251.9766,-1220.2099"/>
<polygon fill="#000000" stroke="#000000" points="252.4162,-1216.7278 241.9195,-1218.1658 251.022,-1223.5875 252.4162,-1216.7278"/>
</g>
<!-- 9942 -->
<g id="node47" class="node">
<title>9942</title>
<ellipse fill="none" stroke="#000000" cx="112.0563" cy="-1114.5075" rx="28.6953" ry="18"/>
<text text-anchor="middle" x="112.0563" y="-1110.8075" font-family="Times,serif" font-size="14.00" fill="#000000">9942</text>
</g>
<!-- 7545&#45;&gt;9942 -->
<g id="edge51" class="edge">
<title>7545&#45;&gt;9942</title>
<path fill="none" stroke="#000000" d="M402.2069,-1244.9993C347.0105,-1220.1754 208.1802,-1157.7381 144.6765,-1129.178"/>
<polygon fill="#000000" stroke="#000000" points="146.0694,-1125.9668 135.5137,-1125.0572 143.1982,-1132.3509 146.0694,-1125.9668"/>
</g>
<!-- 9002 -->
<g id="node42" class="node">
<title>9002</title>
<ellipse fill="none" stroke="#000000" cx="419.249" cy="-1483.6089" rx="28.6953" ry="18"/>
<text text-anchor="middle" x="419.249" y="-1479.9089" font-family="Times,serif" font-size="14.00" fill="#000000">9002</text>
</g>
<!-- 9443 -->
<g id="node43" class="node">
<title>9443</title>
<ellipse fill="none" stroke="#000000" cx="264.9478" cy="-1417.6574" rx="28.6953" ry="18"/>
<text text-anchor="middle" x="264.9478" y="-1413.9574" font-family="Times,serif" font-size="14.00" fill="#000000">9443</text>
</g>
<!-- 9443&#45;&gt;4826 -->
<g id="edge52" class="edge">
<title>9443&#45;&gt;4826</title>
<path fill="none" stroke="#000000" d="M255.6248,-1434.9825C252.3151,-1441.1331 248.5124,-1448.1996 244.8951,-1454.9216"/>
<polygon fill="#000000" stroke="#000000" points="241.7977,-1453.2916 240.1411,-1463.7561 247.9619,-1456.6087 241.7977,-1453.2916"/>
</g>
<!-- 10026 -->
<g id="node48" class="node">
<title>10026</title>
<ellipse fill="none" stroke="#000000" cx="884.7255" cy="-1365.5629" rx="32.4942" ry="18"/>
<text text-anchor="middle" x="884.7255" y="-1361.8629" font-family="Times,serif" font-size="14.00" fill="#000000">10026</text>
</g>
<!-- 9498&#45;&gt;10026 -->
<g id="edge53" class="edge">
<title>9498&#45;&gt;10026</title>
<path fill="none" stroke="#000000" d="M872.8299,-1313.445C874.4988,-1320.7569 876.4645,-1329.3692 878.312,-1337.4638"/>
<polygon fill="#000000" stroke="#000000" points="874.9203,-1338.3329 880.5578,-1347.3033 881.7448,-1336.7752 874.9203,-1338.3329"/>
</g>
<!-- 9505&#45;&gt;7473 -->
<g id="edge54" class="edge">
<title>9505&#45;&gt;7473</title>
<path fill="none" stroke="#000000" d="M211.9087,-407.0503C209.161,-406.0191 206.3274,-404.9556 203.4884,-403.8901"/>
<polygon fill="#000000" stroke="#000000" points="204.5246,-400.5407 193.9325,-400.3037 202.065,-407.0944 204.5246,-400.5407"/>
</g>
<!-- 10026&#45;&gt;4755 -->
<g id="edge55" class="edge">
<title>10026&#45;&gt;4755</title>
<path fill="none" stroke="#000000" d="M888.8514,-1383.6398C890.5203,-1390.9517 892.486,-1399.564 894.3336,-1407.6586"/>
<polygon fill="#000000" stroke="#000000" points="890.9418,-1408.5277 896.5794,-1417.4981 897.7663,-1406.97 890.9418,-1408.5277"/>
</g>
<!-- 12956 -->
<g id="node53" class="node">
<title>12956</title>
<ellipse fill="none" stroke="#000000" cx="849.9779" cy="-262.39" rx="32.4942" ry="18"/>
<text text-anchor="middle" x="849.9779" y="-258.69" font-family="Times,serif" font-size="14.00" fill="#000000">12956</text>
</g>
<!-- 10834&#45;&gt;12956 -->
<g id="edge56" class="edge">
<title>10834&#45;&gt;12956</title>
<path fill="none" stroke="#000000" d="M870.6924,-213.926C867.9011,-220.4566 864.6717,-228.0121 861.6056,-235.1857"/>
<polygon fill="#000000" stroke="#000000" points="858.2941,-234.0281 857.5821,-244.599 864.7308,-236.7794 858.2941,-234.0281"/>
</g>
<!-- 22927 -->
<g id="node56" class="node">
<title>22927</title>
<ellipse fill="none" stroke="#000000" cx="394.25" cy="-199.3769" rx="32.4942" ry="18"/>
<text text-anchor="middle" x="394.25" y="-195.6769" font-family="Times,serif" font-size="14.00" fill="#000000">22927</text>
</g>
<!-- 10834&#45;&gt;22927 -->
<g id="edge57" class="edge">
<title>10834&#45;&gt;22927</title>
<path fill="none" stroke="#000000" d="M845.7658,-196.3985C760.8778,-196.9584 532.5342,-198.4647 437.0949,-199.0943"/>
<polygon fill="#000000" stroke="#000000" points="436.9131,-195.5953 426.9364,-199.1613 436.9593,-202.5952 436.9131,-195.5953"/>
</g>
<!-- 12189 -->
<g id="node51" class="node">
<title>12189</title>
<ellipse fill="none" stroke="#000000" cx="80.0112" cy="-1381.5061" rx="32.4942" ry="18"/>
<text text-anchor="middle" x="80.0112" y="-1377.8061" font-family="Times,serif" font-size="14.00" fill="#000000">12189</text>
</g>
<!-- 20454 -->
<g id="node55" class="node">
<title>20454</title>
<ellipse fill="none" stroke="#000000" cx="124.9025" cy="-1325.2143" rx="32.4942" ry="18"/>
<text text-anchor="middle" x="124.9025" y="-1321.5143" font-family="Times,serif" font-size="14.00" fill="#000000">20454</text>
</g>
<!-- 12266&#45;&gt;20454 -->
<g id="edge58" class="edge">
<title>12266&#45;&gt;20454</title>
<path fill="none" stroke="#000000" d="M156.5677,-1285.5074C152.7658,-1290.2747 148.5368,-1295.5777 144.4394,-1300.7157"/>
<polygon fill="#000000" stroke="#000000" points="141.6876,-1298.5528 138.1891,-1308.5533 147.1605,-1302.9172 141.6876,-1298.5528"/>
</g>
<!-- 12956&#45;&gt;3356 -->
<g id="edge59" class="edge">
<title>12956&#45;&gt;3356</title>
<path fill="none" stroke="#000000" d="M842.3946,-280.132C839.6033,-286.6626 836.3739,-294.2181 833.3078,-301.3917"/>
<polygon fill="#000000" stroke="#000000" points="829.9963,-300.2341 829.2843,-310.805 836.433,-302.9854 829.9963,-300.2341"/>
</g>
<!-- 18540 -->
<g id="node54" class="node">
<title>18540</title>
<ellipse fill="none" stroke="#000000" cx="437.3832" cy="-356.5621" rx="32.4942" ry="18"/>
<text text-anchor="middle" x="437.3832" y="-352.8621" font-family="Times,serif" font-size="14.00" fill="#000000">18540</text>
</g>
<!-- 20454&#45;&gt;12189 -->
<g id="edge60" class="edge">
<title>20454&#45;&gt;12189</title>
<path fill="none" stroke="#000000" d="M111.6764,-1341.7992C107.8745,-1346.5666 103.6456,-1351.8696 99.5481,-1357.0076"/>
<polygon fill="#000000" stroke="#000000" points="96.7964,-1354.8446 93.2978,-1364.8452 102.2692,-1359.2091 96.7964,-1354.8446"/>
</g>
<!-- 30070&#45;&gt;6904 -->
<g id="edge61" class="edge">
<title>30070&#45;&gt;6904</title>
<path fill="none" stroke="#000000" d="M456.4247,-759.1744C453.0919,-771.6196 448.597,-788.4039 444.8114,-802.54"/>
<polygon fill="#000000" stroke="#000000" points="441.413,-801.7003 442.2069,-812.2654 448.1747,-803.5112 441.413,-801.7003"/>
</g>
<!-- 30070&#45;&gt;7016 -->
<g id="edge62" class="edge">
<title>30070&#45;&gt;7016</title>
<path fill="none" stroke="#000000" d="M457.8445,-722.7925C447.5841,-667.6198 416.9562,-502.9257 404.6506,-436.7555"/>
<polygon fill="#000000" stroke="#000000" points="408.0419,-435.8478 402.7725,-426.6563 401.1599,-437.1277 408.0419,-435.8478"/>
</g>
<!-- 30070&#45;&gt;18540 -->
<g id="edge63" class="edge">
<title>30070&#45;&gt;18540</title>
<path fill="none" stroke="#000000" d="M460.1363,-723.1021C456.3143,-661.533 443.7619,-459.3206 439.1249,-384.6202"/>
<polygon fill="#000000" stroke="#000000" points="442.6131,-384.3199 438.5002,-374.556 435.6265,-384.7536 442.6131,-384.3199"/>
</g>
<!-- 32787&#45;&gt;703 -->
<g id="edge64" class="edge">
<title>32787&#45;&gt;703</title>
<path fill="none" stroke="#000000" d="M376.7771,-1053.6376C462.5795,-1084.5643 725.79,-1179.4361 819.2944,-1213.1389"/>
<polygon fill="#000000" stroke="#000000" points="818.2284,-1216.475 828.8228,-1216.5733 820.6021,-1209.8897 818.2284,-1216.475"/>
</g>
<!-- 32787&#45;&gt;2764 -->
<g id="edge65" class="edge">
<title>32787&#45;&gt;2764</title>
<path fill="none" stroke="#000000" d="M349.7936,-1062.0626C350.0907,-1074.5703 350.4904,-1091.3964 350.8291,-1105.6545"/>
<polygon fill="#000000" stroke="#000000" points="347.3369,-1106.029 351.0735,-1115.943 354.3349,-1105.8627 347.3369,-1106.029"/>
</g>
<!-- 32787&#45;&gt;4637 -->
<g id="edge66" class="edge">
<title>32787&#45;&gt;4637</title>
<path fill="none" stroke="#000000" d="M335.5501,-1027.1606C290.0746,-972.5111 144.8487,-797.9885 91.131,-733.434"/>
<polygon fill="#000000" stroke="#000000" points="93.553,-730.8728 84.4662,-725.4248 88.1723,-735.3503 93.553,-730.8728"/>
</g>
<!-- 32787&#45;&gt;7474 -->
<g id="edge67" class="edge">
<title>32787&#45;&gt;7474</title>
<path fill="none" stroke="#000000" d="M338.3875,-1026.6512C294.2832,-957.8946 129.7542,-701.4014 76.9288,-619.0491"/>
<polygon fill="#000000" stroke="#000000" points="79.8164,-617.0682 71.4712,-610.5408 73.9244,-620.8477 79.8164,-617.0682"/>
</g>
<!-- 38333&#45;&gt;1221 -->
<g id="edge68" class="edge">
<title>38333&#45;&gt;1221</title>
<path fill="none" stroke="#000000" d="M68.0916,-976.0396C64.8585,-977.9713 61.4891,-979.9844 58.1411,-981.9847"/>
<polygon fill="#000000" stroke="#000000" points="56.2261,-979.0517 49.4368,-987.1853 59.8164,-985.0609 56.2261,-979.0517"/>
</g>
<!-- 38880&#45;&gt;6695 -->
<g id="edge69" class="edge">
<title>38880&#45;&gt;6695</title>
<path fill="none" stroke="#000000" d="M460.8557,-1429.6242C485.5231,-1448.0908 528.2863,-1480.1041 556.068,-1500.902"/>
<polygon fill="#000000" stroke="#000000" points="554.0695,-1503.778 564.1723,-1506.9691 558.2645,-1498.1743 554.0695,-1503.778"/>
</g>
<!-- 38880&#45;&gt;9002 -->
<g id="edge70" class="edge">
<title>38880&#45;&gt;9002</title>
<path fill="none" stroke="#000000" d="M435.6525,-1433.1241C433.3965,-1440.0673 430.7635,-1448.1708 428.2758,-1455.8274"/>
<polygon fill="#000000" stroke="#000000" points="424.8945,-1454.9079 425.1329,-1465.5 431.5519,-1457.071 424.8945,-1454.9079"/>
</g>
<!-- 38880&#45;&gt;9443 -->
<g id="edge71" class="edge">
<title>38880&#45;&gt;9443</title>
<path fill="none" stroke="#000000" d="M408.7042,-1415.6018C379.049,-1416.0258 335.3453,-1416.6508 303.9171,-1417.1002"/>
<polygon fill="#000000" stroke="#000000" points="303.7163,-1413.6026 293.7674,-1417.2453 303.8165,-1420.6019 303.7163,-1413.6026"/>
</g>
</g>
</svg>
