<?xml version="1.0" encoding="UTF-8" standalone="no"?>
<!DOCTYPE svg PUBLIC "-//W3C//DTD SVG 1.1//EN"
 "http://www.w3.org/Graphics/SVG/1.1/DTD/svg11.dtd">
<!-- Generated by graphviz version 2.40.1 (20161225.0304)
 -->
<!-- Title: %3 Pages: 1 -->
<svg width="3155pt" height="3711pt"
 viewBox="0.00 0.00 3155.00 3711.00" xmlns="http://www.w3.org/2000/svg" xmlns:xlink="http://www.w3.org/1999/xlink">
<g id="graph0" class="graph" transform="scale(1 1) rotate(0) translate(4 3707)">
<title>%3</title>
<polygon fill="#ffffff" stroke="transparent" points="-4,4 -4,-3707 3151,-3707 3151,4 -4,4"/>
<!-- 174 -->
<g id="node1" class="node">
<title>174</title>
<ellipse fill="none" stroke="#000000" cx="2294.4112" cy="-925.5814" rx="27" ry="18"/>
<text text-anchor="middle" x="2294.4112" y="-921.8814" font-family="Times,serif" font-size="14.00" fill="#000000">174</text>
</g>
<!-- 209 -->
<g id="node2" class="node">
<title>209</title>
<ellipse fill="none" stroke="#000000" cx="2336.6844" cy="-733.4518" rx="27" ry="18"/>
<text text-anchor="middle" x="2336.6844" y="-729.7518" font-family="Times,serif" font-size="14.00" fill="#000000">209</text>
</g>
<!-- 174&#45;&gt;209 -->
<g id="edge1" class="edge">
<title>174&#45;&gt;209</title>
<path fill="none" stroke="#000000" d="M2298.3882,-907.5063C2305.803,-873.8061 2321.782,-801.1826 2330.5749,-761.219"/>
<polygon fill="#000000" stroke="#000000" points="2334.0181,-761.8574 2332.7488,-751.3389 2327.1816,-760.3531 2334.0181,-761.8574"/>
</g>
<!-- 1299 -->
<g id="node8" class="node">
<title>1299</title>
<ellipse fill="none" stroke="#000000" cx="2387.1351" cy="-562.8871" rx="28.6953" ry="18"/>
<text text-anchor="middle" x="2387.1351" y="-559.1871" font-family="Times,serif" font-size="14.00" fill="#000000">1299</text>
</g>
<!-- 209&#45;&gt;1299 -->
<g id="edge2" class="edge">
<title>209&#45;&gt;1299</title>
<path fill="none" stroke="#000000" d="M2341.9881,-715.5208C2350.8071,-685.7056 2368.545,-625.7369 2378.9692,-590.4948"/>
<polygon fill="#000000" stroke="#000000" points="2382.3465,-591.4159 2381.8267,-580.8338 2375.634,-589.4304 2382.3465,-591.4159"/>
</g>
<!-- 2828 -->
<g id="node14" class="node">
<title>2828</title>
<ellipse fill="none" stroke="#000000" cx="2267.4537" cy="-640.3083" rx="28.6953" ry="18"/>
<text text-anchor="middle" x="2267.4537" y="-636.6083" font-family="Times,serif" font-size="14.00" fill="#000000">2828</text>
</g>
<!-- 209&#45;&gt;2828 -->
<g id="edge3" class="edge">
<title>209&#45;&gt;2828</title>
<path fill="none" stroke="#000000" d="M2324.6253,-717.2274C2313.8706,-702.758 2297.9707,-681.3661 2285.6669,-664.8124"/>
<polygon fill="#000000" stroke="#000000" points="2288.3813,-662.5972 2279.6068,-656.6592 2282.7632,-666.773 2288.3813,-662.5972"/>
</g>
<!-- 701 -->
<g id="node3" class="node">
<title>701</title>
<ellipse fill="none" stroke="#000000" cx="2550.1656" cy="-21.9831" rx="27" ry="18"/>
<text text-anchor="middle" x="2550.1656" y="-18.2831" font-family="Times,serif" font-size="14.00" fill="#000000">701</text>
</g>
<!-- 703 -->
<g id="node4" class="node">
<title>703</title>
<ellipse fill="none" stroke="#000000" cx="1168.9785" cy="-2963.6852" rx="27" ry="18"/>
<text text-anchor="middle" x="1168.9785" y="-2959.9852" font-family="Times,serif" font-size="14.00" fill="#000000">703</text>
</g>
<!-- 9498 -->
<g id="node44" class="node">
<title>9498</title>
<ellipse fill="none" stroke="#000000" cx="1233.2413" cy="-3103.2861" rx="28.6953" ry="18"/>
<text text-anchor="middle" x="1233.2413" y="-3099.5861" font-family="Times,serif" font-size="14.00" fill="#000000">9498</text>
</g>
<!-- 703&#45;&gt;9498 -->
<g id="edge4" class="edge">
<title>703&#45;&gt;9498</title>
<path fill="none" stroke="#000000" d="M1176.9875,-2981.0835C1188.0032,-3005.0133 1207.9329,-3048.3075 1220.8722,-3076.4161"/>
<polygon fill="#000000" stroke="#000000" points="1217.7705,-3078.0483 1225.1314,-3085.6685 1224.1291,-3075.1212 1217.7705,-3078.0483"/>
</g>
<!-- 1221 -->
<g id="node5" class="node">
<title>1221</title>
<ellipse fill="none" stroke="#000000" cx="890.8166" cy="-3241.9697" rx="28.6953" ry="18"/>
<text text-anchor="middle" x="890.8166" y="-3238.2697" font-family="Times,serif" font-size="14.00" fill="#000000">1221</text>
</g>
<!-- 1239 -->
<g id="node6" class="node">
<title>1239</title>
<ellipse fill="none" stroke="#000000" cx="2405.4267" cy="-71.2315" rx="28.6953" ry="18"/>
<text text-anchor="middle" x="2405.4267" y="-67.5315" font-family="Times,serif" font-size="14.00" fill="#000000">1239</text>
</g>
<!-- 1273 -->
<g id="node7" class="node">
<title>1273</title>
<ellipse fill="none" stroke="#000000" cx="2614.8761" cy="-67.7766" rx="28.6953" ry="18"/>
<text text-anchor="middle" x="2614.8761" y="-64.0766" font-family="Times,serif" font-size="14.00" fill="#000000">1273</text>
</g>
<!-- 5511 -->
<g id="node28" class="node">
<title>5511</title>
<ellipse fill="none" stroke="#000000" cx="2345.5639" cy="-433.9482" rx="28.6953" ry="18"/>
<text text-anchor="middle" x="2345.5639" y="-430.2482" font-family="Times,serif" font-size="14.00" fill="#000000">5511</text>
</g>
<!-- 1299&#45;&gt;5511 -->
<g id="edge5" class="edge">
<title>1299&#45;&gt;5511</title>
<path fill="none" stroke="#000000" d="M2381.442,-545.2291C2374.4843,-523.6487 2362.6314,-486.8854 2354.4648,-461.5557"/>
<polygon fill="#000000" stroke="#000000" points="2357.7215,-460.2503 2351.3217,-451.8067 2351.0592,-462.3983 2357.7215,-460.2503"/>
</g>
<!-- 6461 -->
<g id="node31" class="node">
<title>6461</title>
<ellipse fill="none" stroke="#000000" cx="2451.1746" cy="-358.2383" rx="28.6953" ry="18"/>
<text text-anchor="middle" x="2451.1746" y="-354.5383" font-family="Times,serif" font-size="14.00" fill="#000000">6461</text>
</g>
<!-- 1299&#45;&gt;6461 -->
<g id="edge6" class="edge">
<title>1299&#45;&gt;6461</title>
<path fill="none" stroke="#000000" d="M2392.7062,-545.0839C2403.895,-509.3282 2429.1667,-428.5683 2442.5243,-385.8818"/>
<polygon fill="#000000" stroke="#000000" points="2445.9246,-386.735 2445.5708,-376.1461 2439.2441,-384.6445 2445.9246,-386.735"/>
</g>
<!-- 2497 -->
<g id="node9" class="node">
<title>2497</title>
<ellipse fill="none" stroke="#000000" cx="2501.5495" cy="-174.4899" rx="28.6953" ry="18"/>
<text text-anchor="middle" x="2501.5495" y="-170.7899" font-family="Times,serif" font-size="14.00" fill="#000000">2497</text>
</g>
<!-- 2497&#45;&gt;701 -->
<g id="edge7" class="edge">
<title>2497&#45;&gt;701</title>
<path fill="none" stroke="#000000" d="M2507.2216,-156.6969C2515.638,-130.295 2531.5035,-80.5254 2541.4157,-49.4311"/>
<polygon fill="#000000" stroke="#000000" points="2544.8271,-50.2534 2544.5297,-39.6627 2538.1577,-48.1273 2544.8271,-50.2534"/>
</g>
<!-- 2497&#45;&gt;1239 -->
<g id="edge8" class="edge">
<title>2497&#45;&gt;1239</title>
<path fill="none" stroke="#000000" d="M2486.9505,-158.8071C2471.001,-141.6736 2445.2908,-114.0548 2427.01,-94.417"/>
<polygon fill="#000000" stroke="#000000" points="2429.5385,-91.9965 2420.163,-87.0618 2424.4149,-96.766 2429.5385,-91.9965"/>
</g>
<!-- 2497&#45;&gt;1273 -->
<g id="edge9" class="edge">
<title>2497&#45;&gt;1273</title>
<path fill="none" stroke="#000000" d="M2517.7865,-159.2005C2537.0577,-141.0538 2569.3463,-110.6495 2591.3525,-89.9275"/>
<polygon fill="#000000" stroke="#000000" points="2593.7884,-92.4413 2598.6693,-83.0377 2588.9896,-87.345 2593.7884,-92.4413"/>
</g>
<!-- 3320 -->
<g id="node17" class="node">
<title>3320</title>
<ellipse fill="none" stroke="#000000" cx="2641.5463" cy="-135.0599" rx="28.6953" ry="18"/>
<text text-anchor="middle" x="2641.5463" y="-131.3599" font-family="Times,serif" font-size="14.00" fill="#000000">3320</text>
</g>
<!-- 2497&#45;&gt;3320 -->
<g id="edge10" class="edge">
<title>2497&#45;&gt;3320</title>
<path fill="none" stroke="#000000" d="M2527.8819,-167.0734C2549.7824,-160.9051 2581.178,-152.0626 2605.4261,-145.2331"/>
<polygon fill="#000000" stroke="#000000" points="2606.6554,-148.5231 2615.332,-142.4431 2604.7576,-141.7853 2606.6554,-148.5231"/>
</g>
<!-- 7018 -->
<g id="node37" class="node">
<title>7018</title>
<ellipse fill="none" stroke="#000000" cx="2471.2968" cy="-17.5694" rx="28.6953" ry="18"/>
<text text-anchor="middle" x="2471.2968" y="-13.8694" font-family="Times,serif" font-size="14.00" fill="#000000">7018</text>
</g>
<!-- 2497&#45;&gt;7018 -->
<g id="edge11" class="edge">
<title>2497&#45;&gt;7018</title>
<path fill="none" stroke="#000000" d="M2498.0792,-156.4891C2492.8641,-129.4386 2482.9589,-78.0602 2476.7657,-45.9366"/>
<polygon fill="#000000" stroke="#000000" points="2480.1497,-45.0002 2474.8199,-35.8436 2473.2763,-46.3254 2480.1497,-45.0002"/>
</g>
<!-- 2516 -->
<g id="node10" class="node">
<title>2516</title>
<ellipse fill="none" stroke="#000000" cx="1239.9902" cy="-2610.3403" rx="28.6953" ry="18"/>
<text text-anchor="middle" x="1239.9902" y="-2606.6403" font-family="Times,serif" font-size="14.00" fill="#000000">2516</text>
</g>
<!-- 32787 -->
<g id="node60" class="node">
<title>32787</title>
<ellipse fill="none" stroke="#000000" cx="1083.6238" cy="-2792.8498" rx="32.4942" ry="18"/>
<text text-anchor="middle" x="1083.6238" y="-2789.1498" font-family="Times,serif" font-size="14.00" fill="#000000">32787</text>
</g>
<!-- 2516&#45;&gt;32787 -->
<g id="edge12" class="edge">
<title>2516&#45;&gt;32787</title>
<path fill="none" stroke="#000000" d="M1226.3872,-2626.2176C1199.0322,-2658.1461 1137.2023,-2730.3135 1104.6198,-2768.3435"/>
<polygon fill="#000000" stroke="#000000" points="1101.605,-2766.4829 1097.7566,-2776.3541 1106.9208,-2771.0373 1101.605,-2766.4829"/>
</g>
<!-- 2686 -->
<g id="node11" class="node">
<title>2686</title>
<ellipse fill="none" stroke="#000000" cx="1256.2385" cy="-2350.5017" rx="28.6953" ry="18"/>
<text text-anchor="middle" x="1256.2385" y="-2346.8017" font-family="Times,serif" font-size="14.00" fill="#000000">2686</text>
</g>
<!-- 3741 -->
<g id="node22" class="node">
<title>3741</title>
<ellipse fill="none" stroke="#000000" cx="1119.793" cy="-2247.6348" rx="28.6953" ry="18"/>
<text text-anchor="middle" x="1119.793" y="-2243.9348" font-family="Times,serif" font-size="14.00" fill="#000000">3741</text>
</g>
<!-- 2686&#45;&gt;3741 -->
<g id="edge13" class="edge">
<title>2686&#45;&gt;3741</title>
<path fill="none" stroke="#000000" d="M1237.8368,-2336.6286C1214.3384,-2318.913 1173.5011,-2288.1256 1146.5586,-2267.8135"/>
<polygon fill="#000000" stroke="#000000" points="1148.4309,-2264.8418 1138.3388,-2261.6166 1144.2169,-2270.4314 1148.4309,-2264.8418"/>
</g>
<!-- 2687 -->
<g id="node12" class="node">
<title>2687</title>
<ellipse fill="none" stroke="#000000" cx="1395.351" cy="-2421.6411" rx="28.6953" ry="18"/>
<text text-anchor="middle" x="1395.351" y="-2417.9411" font-family="Times,serif" font-size="14.00" fill="#000000">2687</text>
</g>
<!-- 2687&#45;&gt;2516 -->
<g id="edge14" class="edge">
<title>2687&#45;&gt;2516</title>
<path fill="none" stroke="#000000" d="M1382.105,-2437.7295C1354.7021,-2471.0126 1291.6706,-2547.57 1259.5611,-2586.5697"/>
<polygon fill="#000000" stroke="#000000" points="1256.8568,-2584.3479 1253.2026,-2594.2926 1262.2608,-2588.7972 1256.8568,-2584.3479"/>
</g>
<!-- 2687&#45;&gt;2686 -->
<g id="edge15" class="edge">
<title>2687&#45;&gt;2686</title>
<path fill="none" stroke="#000000" d="M1373.0001,-2410.2113C1349.8796,-2398.3879 1313.5836,-2379.8269 1287.5976,-2366.5382"/>
<polygon fill="#000000" stroke="#000000" points="1289.0308,-2363.34 1278.5338,-2361.9031 1285.8437,-2369.5724 1289.0308,-2363.34"/>
</g>
<!-- 9505 -->
<g id="node45" class="node">
<title>9505</title>
<ellipse fill="none" stroke="#000000" cx="1351.2156" cy="-2297.0465" rx="28.6953" ry="18"/>
<text text-anchor="middle" x="1351.2156" y="-2293.3465" font-family="Times,serif" font-size="14.00" fill="#000000">9505</text>
</g>
<!-- 2687&#45;&gt;9505 -->
<g id="edge16" class="edge">
<title>2687&#45;&gt;9505</title>
<path fill="none" stroke="#000000" d="M1389.1211,-2404.054C1381.8025,-2383.3936 1369.5719,-2348.8666 1360.9875,-2324.6329"/>
<polygon fill="#000000" stroke="#000000" points="1364.1949,-2323.205 1357.5567,-2314.9476 1357.5967,-2325.5424 1364.1949,-2323.205"/>
</g>
<!-- 2764 -->
<g id="node13" class="node">
<title>2764</title>
<ellipse fill="none" stroke="#000000" cx="901.0175" cy="-2941.7806" rx="28.6953" ry="18"/>
<text text-anchor="middle" x="901.0175" y="-2938.0806" font-family="Times,serif" font-size="14.00" fill="#000000">2764</text>
</g>
<!-- 7545 -->
<g id="node40" class="node">
<title>7545</title>
<ellipse fill="none" stroke="#000000" cx="701.1247" cy="-3066.1679" rx="28.6953" ry="18"/>
<text text-anchor="middle" x="701.1247" y="-3062.4679" font-family="Times,serif" font-size="14.00" fill="#000000">7545</text>
</g>
<!-- 2764&#45;&gt;7545 -->
<g id="edge17" class="edge">
<title>2764&#45;&gt;7545</title>
<path fill="none" stroke="#000000" d="M880.3784,-2954.6238C844.6747,-2976.8411 771.2867,-3022.5082 730.3521,-3047.9806"/>
<polygon fill="#000000" stroke="#000000" points="728.2928,-3045.1397 721.6516,-3053.3947 731.9912,-3051.0829 728.2928,-3045.1397"/>
</g>
<!-- 38333 -->
<g id="node62" class="node">
<title>38333</title>
<ellipse fill="none" stroke="#000000" cx="891.8615" cy="-3110.3975" rx="32.4942" ry="18"/>
<text text-anchor="middle" x="891.8615" y="-3106.6975" font-family="Times,serif" font-size="14.00" fill="#000000">38333</text>
</g>
<!-- 2764&#45;&gt;38333 -->
<g id="edge18" class="edge">
<title>2764&#45;&gt;38333</title>
<path fill="none" stroke="#000000" d="M900.0377,-2959.8256C898.4448,-2989.16 895.2819,-3047.4073 893.391,-3082.2303"/>
<polygon fill="#000000" stroke="#000000" points="889.8956,-3082.0523 892.8482,-3092.2274 896.8853,-3082.4319 889.8956,-3082.0523"/>
</g>
<!-- 38561 -->
<g id="node63" class="node">
<title>38561</title>
<ellipse fill="none" stroke="#000000" cx="773.153" cy="-2885.555" rx="32.4942" ry="18"/>
<text text-anchor="middle" x="773.153" y="-2881.855" font-family="Times,serif" font-size="14.00" fill="#000000">38561</text>
</g>
<!-- 2764&#45;&gt;38561 -->
<g id="edge19" class="edge">
<title>2764&#45;&gt;38561</title>
<path fill="none" stroke="#000000" d="M877.5652,-2931.468C858.0963,-2922.907 830.1195,-2910.6047 808.0249,-2900.8891"/>
<polygon fill="#000000" stroke="#000000" points="809.2121,-2897.5878 798.6491,-2896.7663 806.3943,-2903.9956 809.2121,-2897.5878"/>
</g>
<!-- 2914 -->
<g id="node15" class="node">
<title>2914</title>
<ellipse fill="none" stroke="#000000" cx="2125.6929" cy="-1670.7465" rx="28.6953" ry="18"/>
<text text-anchor="middle" x="2125.6929" y="-1667.0465" font-family="Times,serif" font-size="14.00" fill="#000000">2914</text>
</g>
<!-- 6453 -->
<g id="node30" class="node">
<title>6453</title>
<ellipse fill="none" stroke="#000000" cx="2164.6146" cy="-1496.6389" rx="28.6953" ry="18"/>
<text text-anchor="middle" x="2164.6146" y="-1492.9389" font-family="Times,serif" font-size="14.00" fill="#000000">6453</text>
</g>
<!-- 2914&#45;&gt;6453 -->
<g id="edge20" class="edge">
<title>2914&#45;&gt;6453</title>
<path fill="none" stroke="#000000" d="M2129.7116,-1652.7697C2136.5175,-1622.3249 2150.356,-1560.4216 2158.4131,-1524.38"/>
<polygon fill="#000000" stroke="#000000" points="2161.8517,-1525.0406 2160.6178,-1514.5179 2155.0203,-1523.5134 2161.8517,-1525.0406"/>
</g>
<!-- 3257 -->
<g id="node16" class="node">
<title>3257</title>
<ellipse fill="none" stroke="#000000" cx="2212.2091" cy="-1284.9881" rx="28.6953" ry="18"/>
<text text-anchor="middle" x="2212.2091" y="-1281.2881" font-family="Times,serif" font-size="14.00" fill="#000000">3257</text>
</g>
<!-- 3491 -->
<g id="node19" class="node">
<title>3491</title>
<ellipse fill="none" stroke="#000000" cx="2252.038" cy="-1110.0606" rx="28.6953" ry="18"/>
<text text-anchor="middle" x="2252.038" y="-1106.3606" font-family="Times,serif" font-size="14.00" fill="#000000">3491</text>
</g>
<!-- 3257&#45;&gt;3491 -->
<g id="edge21" class="edge">
<title>3257&#45;&gt;3491</title>
<path fill="none" stroke="#000000" d="M2216.3214,-1266.9267C2223.286,-1236.3385 2237.447,-1174.1436 2245.6919,-1137.9324"/>
<polygon fill="#000000" stroke="#000000" points="2249.1405,-1138.5513 2247.948,-1128.0238 2242.3152,-1136.9972 2249.1405,-1138.5513"/>
</g>
<!-- 3356 -->
<g id="node18" class="node">
<title>3356</title>
<ellipse fill="none" stroke="#000000" cx="2247.4984" cy="-2151.6788" rx="28.6953" ry="18"/>
<text text-anchor="middle" x="2247.4984" y="-2147.9788" font-family="Times,serif" font-size="14.00" fill="#000000">3356</text>
</g>
<!-- 3549 -->
<g id="node20" class="node">
<title>3549</title>
<ellipse fill="none" stroke="#000000" cx="2018.6531" cy="-2078.5837" rx="28.6953" ry="18"/>
<text text-anchor="middle" x="2018.6531" y="-2074.8837" font-family="Times,serif" font-size="14.00" fill="#000000">3549</text>
</g>
<!-- 3356&#45;&gt;3549 -->
<g id="edge22" class="edge">
<title>3356&#45;&gt;3549</title>
<path fill="none" stroke="#000000" d="M2221.6917,-2143.436C2180.6358,-2130.3224 2100.3608,-2104.6819 2053.9951,-2089.8723"/>
<polygon fill="#000000" stroke="#000000" points="2054.9562,-2086.5051 2044.3654,-2086.7965 2052.8263,-2093.1732 2054.9562,-2086.5051"/>
</g>
<!-- 3491&#45;&gt;174 -->
<g id="edge23" class="edge">
<title>3491&#45;&gt;174</title>
<path fill="none" stroke="#000000" d="M2256.1781,-1092.0361C2263.6017,-1059.7159 2279.2223,-991.7089 2288.0267,-953.3776"/>
<polygon fill="#000000" stroke="#000000" points="2291.4892,-953.9372 2290.3167,-943.4075 2284.6669,-952.3701 2291.4892,-953.9372"/>
</g>
<!-- 6762 -->
<g id="node33" class="node">
<title>6762</title>
<ellipse fill="none" stroke="#000000" cx="2077.4588" cy="-1888.9967" rx="28.6953" ry="18"/>
<text text-anchor="middle" x="2077.4588" y="-1885.2967" font-family="Times,serif" font-size="14.00" fill="#000000">6762</text>
</g>
<!-- 3549&#45;&gt;6762 -->
<g id="edge24" class="edge">
<title>3549&#45;&gt;6762</title>
<path fill="none" stroke="#000000" d="M2024.1854,-2060.7478C2034.4739,-2027.5782 2056.6152,-1956.1957 2068.8664,-1916.6981"/>
<polygon fill="#000000" stroke="#000000" points="2072.2786,-1917.5113 2071.8983,-1906.9233 2065.5929,-1915.4375 2072.2786,-1917.5113"/>
</g>
<!-- 30070 -->
<g id="node59" class="node">
<title>30070</title>
<ellipse fill="none" stroke="#000000" cx="1810.353" cy="-2172.8861" rx="32.4942" ry="18"/>
<text text-anchor="middle" x="1810.353" y="-2169.1861" font-family="Times,serif" font-size="14.00" fill="#000000">30070</text>
</g>
<!-- 3549&#45;&gt;30070 -->
<g id="edge25" class="edge">
<title>3549&#45;&gt;30070</title>
<path fill="none" stroke="#000000" d="M1995.1633,-2089.2181C1958.4652,-2105.8322 1887.3409,-2138.0318 1844.8279,-2157.2785"/>
<polygon fill="#000000" stroke="#000000" points="1843.3667,-2154.098 1835.7003,-2161.4108 1846.2537,-2160.4749 1843.3667,-2154.098"/>
</g>
<!-- 3597 -->
<g id="node21" class="node">
<title>3597</title>
<ellipse fill="none" stroke="#000000" cx="2969.326" cy="-2564.7671" rx="28.6953" ry="18"/>
<text text-anchor="middle" x="2969.326" y="-2561.0671" font-family="Times,serif" font-size="14.00" fill="#000000">3597</text>
</g>
<!-- 37179 -->
<g id="node61" class="node">
<title>37179</title>
<ellipse fill="none" stroke="#000000" cx="1015.6071" cy="-2161.9252" rx="32.4942" ry="18"/>
<text text-anchor="middle" x="1015.6071" y="-2158.2252" font-family="Times,serif" font-size="14.00" fill="#000000">37179</text>
</g>
<!-- 3741&#45;&gt;37179 -->
<g id="edge26" class="edge">
<title>3741&#45;&gt;37179</title>
<path fill="none" stroke="#000000" d="M1102.1192,-2233.0953C1085.6327,-2219.5325 1060.8209,-2199.1208 1041.9906,-2183.6299"/>
<polygon fill="#000000" stroke="#000000" points="1044.0165,-2180.7643 1034.0703,-2177.1141 1039.5693,-2186.1702 1044.0165,-2180.7643"/>
</g>
<!-- 4635 -->
<g id="node23" class="node">
<title>4635</title>
<ellipse fill="none" stroke="#000000" cx="586.8298" cy="-3054.6239" rx="28.6953" ry="18"/>
<text text-anchor="middle" x="586.8298" y="-3050.9239" font-family="Times,serif" font-size="14.00" fill="#000000">4635</text>
</g>
<!-- 4637 -->
<g id="node24" class="node">
<title>4637</title>
<ellipse fill="none" stroke="#000000" cx="1014.8541" cy="-2694.1249" rx="28.6953" ry="18"/>
<text text-anchor="middle" x="1014.8541" y="-2690.4249" font-family="Times,serif" font-size="14.00" fill="#000000">4637</text>
</g>
<!-- 4739 -->
<g id="node25" class="node">
<title>4739</title>
<ellipse fill="none" stroke="#000000" cx="610.2617" cy="-3231.5279" rx="28.6953" ry="18"/>
<text text-anchor="middle" x="610.2617" y="-3227.8279" font-family="Times,serif" font-size="14.00" fill="#000000">4739</text>
</g>
<!-- 38880 -->
<g id="node64" class="node">
<title>38880</title>
<ellipse fill="none" stroke="#000000" cx="500.8896" cy="-3411.33" rx="32.4942" ry="18"/>
<text text-anchor="middle" x="500.8896" y="-3407.63" font-family="Times,serif" font-size="14.00" fill="#000000">38880</text>
</g>
<!-- 4739&#45;&gt;38880 -->
<g id="edge27" class="edge">
<title>4739&#45;&gt;38880</title>
<path fill="none" stroke="#000000" d="M599.9722,-3248.4433C580.8044,-3279.9542 539.5169,-3347.8287 516.7548,-3385.2483"/>
<polygon fill="#000000" stroke="#000000" points="513.5985,-3383.7025 511.3917,-3394.0649 519.579,-3387.3404 513.5985,-3383.7025"/>
</g>
<!-- 4755 -->
<g id="node26" class="node">
<title>4755</title>
<ellipse fill="none" stroke="#000000" cx="1353.4758" cy="-3409.78" rx="28.6953" ry="18"/>
<text text-anchor="middle" x="1353.4758" y="-3406.08" font-family="Times,serif" font-size="14.00" fill="#000000">4755</text>
</g>
<!-- 9583 -->
<g id="node46" class="node">
<title>9583</title>
<ellipse fill="none" stroke="#000000" cx="1404.0859" cy="-3554.526" rx="28.6953" ry="18"/>
<text text-anchor="middle" x="1404.0859" y="-3550.826" font-family="Times,serif" font-size="14.00" fill="#000000">9583</text>
</g>
<!-- 4755&#45;&gt;9583 -->
<g id="edge28" class="edge">
<title>4755&#45;&gt;9583</title>
<path fill="none" stroke="#000000" d="M1359.6816,-3427.5287C1368.3705,-3452.3794 1384.2422,-3497.7727 1394.4686,-3527.0204"/>
<polygon fill="#000000" stroke="#000000" points="1391.2249,-3528.3477 1397.8293,-3536.6321 1397.8326,-3526.0373 1391.2249,-3528.3477"/>
</g>
<!-- 4826 -->
<g id="node27" class="node">
<title>4826</title>
<ellipse fill="none" stroke="#000000" cx="333.3262" cy="-3685.223" rx="28.6953" ry="18"/>
<text text-anchor="middle" x="333.3262" y="-3681.523" font-family="Times,serif" font-size="14.00" fill="#000000">4826</text>
</g>
<!-- 5692 -->
<g id="node29" class="node">
<title>5692</title>
<ellipse fill="none" stroke="#000000" cx="2924.6073" cy="-2391.8957" rx="28.6953" ry="18"/>
<text text-anchor="middle" x="2924.6073" y="-2388.1957" font-family="Times,serif" font-size="14.00" fill="#000000">5692</text>
</g>
<!-- 5692&#45;&gt;3597 -->
<g id="edge29" class="edge">
<title>5692&#45;&gt;3597</title>
<path fill="none" stroke="#000000" d="M2929.2246,-2409.7449C2937.0238,-2439.8949 2952.8612,-2501.1182 2962.1286,-2536.9436"/>
<polygon fill="#000000" stroke="#000000" points="2958.774,-2537.9513 2964.6669,-2546.756 2965.5509,-2536.1981 2958.774,-2537.9513"/>
</g>
<!-- 10834 -->
<g id="node49" class="node">
<title>10834</title>
<ellipse fill="none" stroke="#000000" cx="2701.5721" cy="-2314.0025" rx="32.4942" ry="18"/>
<text text-anchor="middle" x="2701.5721" y="-2310.3025" font-family="Times,serif" font-size="14.00" fill="#000000">10834</text>
</g>
<!-- 5692&#45;&gt;10834 -->
<g id="edge30" class="edge">
<title>5692&#45;&gt;10834</title>
<path fill="none" stroke="#000000" d="M2899.4559,-2383.1118C2860.1853,-2369.3968 2784.0975,-2342.8238 2738.5677,-2326.9229"/>
<polygon fill="#000000" stroke="#000000" points="2739.6604,-2323.5973 2729.0656,-2323.6044 2737.3524,-2330.2058 2739.6604,-2323.5973"/>
</g>
<!-- 11008 -->
<g id="node50" class="node">
<title>11008</title>
<ellipse fill="none" stroke="#000000" cx="3035.5243" cy="-2261.7709" rx="32.4942" ry="18"/>
<text text-anchor="middle" x="3035.5243" y="-2258.0709" font-family="Times,serif" font-size="14.00" fill="#000000">11008</text>
</g>
<!-- 5692&#45;&gt;11008 -->
<g id="edge31" class="edge">
<title>5692&#45;&gt;11008</title>
<path fill="none" stroke="#000000" d="M2938.2079,-2375.9398C2957.3953,-2353.4298 2992.5642,-2312.1706 3014.9555,-2285.9016"/>
<polygon fill="#000000" stroke="#000000" points="3017.6391,-2288.1487 3021.4625,-2278.2678 3012.3118,-2283.6078 3017.6391,-2288.1487"/>
</g>
<!-- 27865 -->
<g id="node57" class="node">
<title>27865</title>
<ellipse fill="none" stroke="#000000" cx="3010.4395" cy="-2430.8899" rx="32.4942" ry="18"/>
<text text-anchor="middle" x="3010.4395" y="-2427.1899" font-family="Times,serif" font-size="14.00" fill="#000000">27865</text>
</g>
<!-- 5692&#45;&gt;27865 -->
<g id="edge32" class="edge">
<title>5692&#45;&gt;27865</title>
<path fill="none" stroke="#000000" d="M2948.0613,-2402.551C2956.6979,-2406.4747 2966.6686,-2411.0045 2976.0691,-2415.2752"/>
<polygon fill="#000000" stroke="#000000" points="2974.6569,-2418.4778 2985.2091,-2419.4276 2977.5523,-2412.1047 2974.6569,-2418.4778"/>
</g>
<!-- 28065 -->
<g id="node58" class="node">
<title>28065</title>
<ellipse fill="none" stroke="#000000" cx="3062.5725" cy="-2507.3732" rx="32.4942" ry="18"/>
<text text-anchor="middle" x="3062.5725" y="-2503.6732" font-family="Times,serif" font-size="14.00" fill="#000000">28065</text>
</g>
<!-- 5692&#45;&gt;28065 -->
<g id="edge33" class="edge">
<title>5692&#45;&gt;28065</title>
<path fill="none" stroke="#000000" d="M2941.8017,-2406.2875C2965.6013,-2426.2078 3008.782,-2462.3503 3036.5445,-2485.5877"/>
<polygon fill="#000000" stroke="#000000" points="3034.367,-2488.3293 3044.2819,-2492.0638 3038.86,-2482.9614 3034.367,-2488.3293"/>
</g>
<!-- 52317 -->
<g id="node65" class="node">
<title>52317</title>
<ellipse fill="none" stroke="#000000" cx="2973.5423" cy="-2496.8667" rx="32.4942" ry="18"/>
<text text-anchor="middle" x="2973.5423" y="-2493.1667" font-family="Times,serif" font-size="14.00" fill="#000000">52317</text>
</g>
<!-- 5692&#45;&gt;52317 -->
<g id="edge34" class="edge">
<title>5692&#45;&gt;52317</title>
<path fill="none" stroke="#000000" d="M2932.6879,-2409.2295C2940.3979,-2425.7683 2952.1255,-2450.9253 2961.041,-2470.0501"/>
<polygon fill="#000000" stroke="#000000" points="2957.8886,-2471.5715 2965.2861,-2479.1562 2964.2331,-2468.6138 2957.8886,-2471.5715"/>
</g>
<!-- 52375 -->
<g id="node66" class="node">
<title>52375</title>
<ellipse fill="none" stroke="#000000" cx="3088.8199" cy="-2324.2448" rx="32.4942" ry="18"/>
<text text-anchor="middle" x="3088.8199" y="-2320.5448" font-family="Times,serif" font-size="14.00" fill="#000000">52375</text>
</g>
<!-- 5692&#45;&gt;52375 -->
<g id="edge35" class="edge">
<title>5692&#45;&gt;52375</title>
<path fill="none" stroke="#000000" d="M2948.8374,-2381.9136C2976.4079,-2370.5553 3021.6929,-2351.8992 3053.2642,-2338.8928"/>
<polygon fill="#000000" stroke="#000000" points="3054.6742,-2342.0973 3062.5871,-2335.052 3052.0078,-2335.625 3054.6742,-2342.0973"/>
</g>
<!-- 52376 -->
<g id="node67" class="node">
<title>52376</title>
<ellipse fill="none" stroke="#000000" cx="3011.6693" cy="-2310.2194" rx="32.4942" ry="18"/>
<text text-anchor="middle" x="3011.6693" y="-2306.5194" font-family="Times,serif" font-size="14.00" fill="#000000">52376</text>
</g>
<!-- 5692&#45;&gt;52376 -->
<g id="edge36" class="edge">
<title>5692&#45;&gt;52376</title>
<path fill="none" stroke="#000000" d="M2940.5758,-2376.915C2953.702,-2364.6008 2972.5082,-2346.958 2987.4815,-2332.9109"/>
<polygon fill="#000000" stroke="#000000" points="2990.0135,-2335.3347 2994.9119,-2325.9402 2985.2241,-2330.2295 2990.0135,-2335.3347"/>
</g>
<!-- 52380 -->
<g id="node68" class="node">
<title>52380</title>
<ellipse fill="none" stroke="#000000" cx="2892.6554" cy="-2535.8556" rx="32.4942" ry="18"/>
<text text-anchor="middle" x="2892.6554" y="-2532.1556" font-family="Times,serif" font-size="14.00" fill="#000000">52380</text>
</g>
<!-- 5692&#45;&gt;52380 -->
<g id="edge37" class="edge">
<title>5692&#45;&gt;52380</title>
<path fill="none" stroke="#000000" d="M2920.6252,-2409.8372C2915.172,-2434.4065 2905.3254,-2478.7708 2898.8899,-2507.766"/>
<polygon fill="#000000" stroke="#000000" points="2895.4377,-2507.1671 2896.6877,-2517.688 2902.2714,-2508.6839 2895.4377,-2507.1671"/>
</g>
<!-- 52413 -->
<g id="node69" class="node">
<title>52413</title>
<ellipse fill="none" stroke="#000000" cx="2829.7892" cy="-2463.6996" rx="32.4942" ry="18"/>
<text text-anchor="middle" x="2829.7892" y="-2459.9996" font-family="Times,serif" font-size="14.00" fill="#000000">52413</text>
</g>
<!-- 5692&#45;&gt;52413 -->
<g id="edge38" class="edge">
<title>5692&#45;&gt;52413</title>
<path fill="none" stroke="#000000" d="M2906.3254,-2405.7402C2892.4312,-2416.262 2873.0874,-2430.9107 2857.3234,-2442.8484"/>
<polygon fill="#000000" stroke="#000000" points="2854.8504,-2440.3308 2848.9913,-2449.1582 2859.0764,-2445.9113 2854.8504,-2440.3308"/>
</g>
<!-- 52431 -->
<g id="node70" class="node">
<title>52431</title>
<ellipse fill="none" stroke="#000000" cx="3100.1034" cy="-2457.5263" rx="32.4942" ry="18"/>
<text text-anchor="middle" x="3100.1034" y="-2453.8263" font-family="Times,serif" font-size="14.00" fill="#000000">52431</text>
</g>
<!-- 5692&#45;&gt;52431 -->
<g id="edge39" class="edge">
<title>5692&#45;&gt;52431</title>
<path fill="none" stroke="#000000" d="M2949.3794,-2401.1598C2979.1336,-2412.287 3029.3061,-2431.0501 3063.5234,-2443.8465"/>
<polygon fill="#000000" stroke="#000000" points="3062.5626,-2447.2238 3073.1551,-2447.4484 3065.0146,-2440.6673 3062.5626,-2447.2238"/>
</g>
<!-- 262230 -->
<g id="node71" class="node">
<title>262230</title>
<ellipse fill="none" stroke="#000000" cx="2950.0927" cy="-2240.1384" rx="37.0935" ry="18"/>
<text text-anchor="middle" x="2950.0927" y="-2236.4384" font-family="Times,serif" font-size="14.00" fill="#000000">262230</text>
</g>
<!-- 5692&#45;&gt;262230 -->
<g id="edge40" class="edge">
<title>5692&#45;&gt;262230</title>
<path fill="none" stroke="#000000" d="M2927.6309,-2373.8912C2932.0185,-2347.7646 2940.1909,-2299.1002 2945.3751,-2268.2303"/>
<polygon fill="#000000" stroke="#000000" points="2948.8685,-2268.561 2947.073,-2258.1195 2941.9651,-2267.4017 2948.8685,-2268.561"/>
</g>
<!-- 264608 -->
<g id="node72" class="node">
<title>264608</title>
<ellipse fill="none" stroke="#000000" cx="3110.379" cy="-2380.452" rx="37.0935" ry="18"/>
<text text-anchor="middle" x="3110.379" y="-2376.752" font-family="Times,serif" font-size="14.00" fill="#000000">264608</text>
</g>
<!-- 5692&#45;&gt;264608 -->
<g id="edge41" class="edge">
<title>5692&#45;&gt;264608</title>
<path fill="none" stroke="#000000" d="M2953.227,-2390.1327C2982.466,-2388.3315 3028.3692,-2385.5039 3063.0309,-2383.3687"/>
<polygon fill="#000000" stroke="#000000" points="3063.6303,-2386.8385 3073.3962,-2382.7302 3063.1999,-2379.8517 3063.6303,-2386.8385"/>
</g>
<!-- 6453&#45;&gt;3257 -->
<g id="edge42" class="edge">
<title>6453&#45;&gt;3257</title>
<path fill="none" stroke="#000000" d="M2168.6725,-1478.5937C2176.997,-1441.5747 2196.0545,-1356.827 2205.9646,-1312.7569"/>
<polygon fill="#000000" stroke="#000000" points="2209.3822,-1313.5119 2208.1614,-1302.9877 2202.5527,-1311.9761 2209.3822,-1313.5119"/>
</g>
<!-- 6461&#45;&gt;2497 -->
<g id="edge43" class="edge">
<title>6461&#45;&gt;2497</title>
<path fill="none" stroke="#000000" d="M2456.0965,-340.2852C2464.922,-308.093 2483.4924,-240.3554 2493.9593,-202.176"/>
<polygon fill="#000000" stroke="#000000" points="2497.4133,-202.8149 2496.6818,-192.2453 2490.6624,-200.9641 2497.4133,-202.8149"/>
</g>
<!-- 6695 -->
<g id="node32" class="node">
<title>6695</title>
<ellipse fill="none" stroke="#000000" cx="376.3133" cy="-3471.5088" rx="28.6953" ry="18"/>
<text text-anchor="middle" x="376.3133" y="-3467.8088" font-family="Times,serif" font-size="14.00" fill="#000000">6695</text>
</g>
<!-- 6762&#45;&gt;2914 -->
<g id="edge44" class="edge">
<title>6762&#45;&gt;2914</title>
<path fill="none" stroke="#000000" d="M2081.406,-1871.1364C2089.7971,-1833.168 2109.462,-1744.1882 2119.5244,-1698.6578"/>
<polygon fill="#000000" stroke="#000000" points="2122.9507,-1699.3733 2121.6912,-1688.8536 2116.1156,-1697.8626 2122.9507,-1699.3733"/>
</g>
<!-- 6904 -->
<g id="node34" class="node">
<title>6904</title>
<ellipse fill="none" stroke="#000000" cx="1596.8394" cy="-2302.589" rx="28.6953" ry="18"/>
<text text-anchor="middle" x="1596.8394" y="-2298.889" font-family="Times,serif" font-size="14.00" fill="#000000">6904</text>
</g>
<!-- 6904&#45;&gt;2687 -->
<g id="edge45" class="edge">
<title>6904&#45;&gt;2687</title>
<path fill="none" stroke="#000000" d="M1575.6574,-2315.1047C1539.5869,-2336.4174 1466.1566,-2379.8047 1425.0026,-2404.121"/>
<polygon fill="#000000" stroke="#000000" points="1423.0781,-2401.1928 1416.2491,-2409.2931 1426.6391,-2407.2194 1423.0781,-2401.1928"/>
</g>
<!-- 6939 -->
<g id="node35" class="node">
<title>6939</title>
<ellipse fill="none" stroke="#000000" cx="537.9067" cy="-3103.1437" rx="28.6953" ry="18"/>
<text text-anchor="middle" x="537.9067" y="-3099.4437" font-family="Times,serif" font-size="14.00" fill="#000000">6939</text>
</g>
<!-- 12266 -->
<g id="node52" class="node">
<title>12266</title>
<ellipse fill="none" stroke="#000000" cx="350.0908" cy="-3132.5408" rx="32.4942" ry="18"/>
<text text-anchor="middle" x="350.0908" y="-3128.8408" font-family="Times,serif" font-size="14.00" fill="#000000">12266</text>
</g>
<!-- 6939&#45;&gt;12266 -->
<g id="edge46" class="edge">
<title>6939&#45;&gt;12266</title>
<path fill="none" stroke="#000000" d="M509.7888,-3107.5448C478.4942,-3112.443 427.6104,-3120.4074 391.7027,-3126.0277"/>
<polygon fill="#000000" stroke="#000000" points="390.8786,-3122.614 381.5402,-3127.6183 391.9612,-3129.5298 390.8786,-3122.614"/>
</g>
<!-- 7016 -->
<g id="node36" class="node">
<title>7016</title>
<ellipse fill="none" stroke="#000000" cx="1751.1265" cy="-2035.8791" rx="28.6953" ry="18"/>
<text text-anchor="middle" x="1751.1265" y="-2032.1791" font-family="Times,serif" font-size="14.00" fill="#000000">7016</text>
</g>
<!-- 7922 -->
<g id="node41" class="node">
<title>7922</title>
<ellipse fill="none" stroke="#000000" cx="1701.4918" cy="-1909.8586" rx="28.6953" ry="18"/>
<text text-anchor="middle" x="1701.4918" y="-1906.1586" font-family="Times,serif" font-size="14.00" fill="#000000">7922</text>
</g>
<!-- 7016&#45;&gt;7922 -->
<g id="edge47" class="edge">
<title>7016&#45;&gt;7922</title>
<path fill="none" stroke="#000000" d="M1744.225,-2018.3565C1735.9373,-1997.3143 1721.9418,-1961.7803 1712.236,-1937.1377"/>
<polygon fill="#000000" stroke="#000000" points="1715.4159,-1935.6604 1708.4947,-1927.6387 1708.9029,-1938.2256 1715.4159,-1935.6604"/>
</g>
<!-- 7473 -->
<g id="node38" class="node">
<title>7473</title>
<ellipse fill="none" stroke="#000000" cx="1296.6242" cy="-2162.1774" rx="28.6953" ry="18"/>
<text text-anchor="middle" x="1296.6242" y="-2158.4774" font-family="Times,serif" font-size="14.00" fill="#000000">7473</text>
</g>
<!-- 7474 -->
<g id="node39" class="node">
<title>7474</title>
<ellipse fill="none" stroke="#000000" cx="960.5634" cy="-2774.233" rx="28.6953" ry="18"/>
<text text-anchor="middle" x="960.5634" y="-2770.533" font-family="Times,serif" font-size="14.00" fill="#000000">7474</text>
</g>
<!-- 7545&#45;&gt;4635 -->
<g id="edge48" class="edge">
<title>7545&#45;&gt;4635</title>
<path fill="none" stroke="#000000" d="M672.8721,-3063.3143C658.585,-3061.8713 641.0282,-3060.0981 625.5079,-3058.5305"/>
<polygon fill="#000000" stroke="#000000" points="625.4547,-3055.0074 615.1536,-3057.4847 624.7512,-3061.9719 625.4547,-3055.0074"/>
</g>
<!-- 7545&#45;&gt;4739 -->
<g id="edge49" class="edge">
<title>7545&#45;&gt;4739</title>
<path fill="none" stroke="#000000" d="M691.743,-3083.2415C675.8278,-3112.2053 643.4397,-3171.1479 624.6443,-3205.3532"/>
<polygon fill="#000000" stroke="#000000" points="621.4768,-3203.8499 619.7285,-3214.2995 627.6117,-3207.2209 621.4768,-3203.8499"/>
</g>
<!-- 7545&#45;&gt;6939 -->
<g id="edge50" class="edge">
<title>7545&#45;&gt;6939</title>
<path fill="none" stroke="#000000" d="M674.1726,-3072.2737C647.0023,-3078.4289 604.873,-3087.973 574.6523,-3094.8193"/>
<polygon fill="#000000" stroke="#000000" points="573.8784,-3091.4058 564.8989,-3097.0289 575.4251,-3098.2328 573.8784,-3091.4058"/>
</g>
<!-- 9942 -->
<g id="node47" class="node">
<title>9942</title>
<ellipse fill="none" stroke="#000000" cx="591.9711" cy="-2981.4961" rx="28.6953" ry="18"/>
<text text-anchor="middle" x="591.9711" y="-2977.7961" font-family="Times,serif" font-size="14.00" fill="#000000">9942</text>
</g>
<!-- 7545&#45;&gt;9942 -->
<g id="edge51" class="edge">
<title>7545&#45;&gt;9942</title>
<path fill="none" stroke="#000000" d="M683.1002,-3052.1861C665.4039,-3038.4588 638.2186,-3017.3709 618.1427,-3001.7978"/>
<polygon fill="#000000" stroke="#000000" points="620.069,-2998.8625 610.0223,-2995.4987 615.7786,-3004.3935 620.069,-2998.8625"/>
</g>
<!-- 9002 -->
<g id="node42" class="node">
<title>9002</title>
<ellipse fill="none" stroke="#000000" cx="503.6962" cy="-3547.9011" rx="28.6953" ry="18"/>
<text text-anchor="middle" x="503.6962" y="-3544.2011" font-family="Times,serif" font-size="14.00" fill="#000000">9002</text>
</g>
<!-- 9443 -->
<g id="node43" class="node">
<title>9443</title>
<ellipse fill="none" stroke="#000000" cx="417.8463" cy="-3547.1184" rx="28.6953" ry="18"/>
<text text-anchor="middle" x="417.8463" y="-3543.4184" font-family="Times,serif" font-size="14.00" fill="#000000">9443</text>
</g>
<!-- 9443&#45;&gt;4826 -->
<g id="edge52" class="edge">
<title>9443&#45;&gt;4826</title>
<path fill="none" stroke="#000000" d="M407.4825,-3564.0527C392.9083,-3587.8667 366.2339,-3631.4523 349.1641,-3659.3441"/>
<polygon fill="#000000" stroke="#000000" points="346.0096,-3657.7936 343.7748,-3668.1501 351.9802,-3661.4477 346.0096,-3657.7936"/>
</g>
<!-- 10026 -->
<g id="node48" class="node">
<title>10026</title>
<ellipse fill="none" stroke="#000000" cx="1302.5949" cy="-3271.8388" rx="32.4942" ry="18"/>
<text text-anchor="middle" x="1302.5949" y="-3268.1388" font-family="Times,serif" font-size="14.00" fill="#000000">10026</text>
</g>
<!-- 9498&#45;&gt;10026 -->
<g id="edge53" class="edge">
<title>9498&#45;&gt;10026</title>
<path fill="none" stroke="#000000" d="M1240.5323,-3121.0056C1252.6555,-3150.4691 1277.0395,-3209.7303 1291.3694,-3244.5568"/>
<polygon fill="#000000" stroke="#000000" points="1288.2557,-3246.1878 1295.2976,-3254.1037 1294.7291,-3243.5242 1288.2557,-3246.1878"/>
</g>
<!-- 9505&#45;&gt;7473 -->
<g id="edge54" class="edge">
<title>9505&#45;&gt;7473</title>
<path fill="none" stroke="#000000" d="M1344.0787,-2279.4147C1334.8015,-2256.4952 1318.5047,-2216.2336 1307.6364,-2189.3833"/>
<polygon fill="#000000" stroke="#000000" points="1310.7592,-2187.7697 1303.7628,-2179.8135 1304.2706,-2190.3961 1310.7592,-2187.7697"/>
</g>
<!-- 10026&#45;&gt;4755 -->
<g id="edge55" class="edge">
<title>10026&#45;&gt;4755</title>
<path fill="none" stroke="#000000" d="M1309.1426,-3289.5898C1317.8438,-3313.1793 1333.3,-3355.0822 1343.4685,-3382.6497"/>
<polygon fill="#000000" stroke="#000000" points="1340.2088,-3383.9263 1346.9533,-3392.0971 1346.7763,-3381.5038 1340.2088,-3383.9263"/>
</g>
<!-- 12956 -->
<g id="node53" class="node">
<title>12956</title>
<ellipse fill="none" stroke="#000000" cx="2461.0445" cy="-2225.1477" rx="32.4942" ry="18"/>
<text text-anchor="middle" x="2461.0445" y="-2221.4477" font-family="Times,serif" font-size="14.00" fill="#000000">12956</text>
</g>
<!-- 10834&#45;&gt;12956 -->
<g id="edge56" class="edge">
<title>10834&#45;&gt;12956</title>
<path fill="none" stroke="#000000" d="M2674.4481,-2303.9824C2631.2303,-2288.0171 2546.6652,-2256.7774 2497.9674,-2238.7876"/>
<polygon fill="#000000" stroke="#000000" points="2499.0317,-2235.4497 2488.4384,-2235.2675 2496.606,-2242.016 2499.0317,-2235.4497"/>
</g>
<!-- 22927 -->
<g id="node56" class="node">
<title>22927</title>
<ellipse fill="none" stroke="#000000" cx="2629.9637" cy="-2422.2705" rx="32.4942" ry="18"/>
<text text-anchor="middle" x="2629.9637" y="-2418.5705" font-family="Times,serif" font-size="14.00" fill="#000000">22927</text>
</g>
<!-- 10834&#45;&gt;22927 -->
<g id="edge57" class="edge">
<title>10834&#45;&gt;22927</title>
<path fill="none" stroke="#000000" d="M2690.3833,-2330.9194C2678.7332,-2348.5337 2660.3439,-2376.3373 2646.9105,-2396.6479"/>
<polygon fill="#000000" stroke="#000000" points="2643.9076,-2394.8436 2641.3103,-2405.1151 2649.7461,-2398.7052 2643.9076,-2394.8436"/>
</g>
<!-- 12189 -->
<g id="node51" class="node">
<title>12189</title>
<ellipse fill="none" stroke="#000000" cx="32.7627" cy="-3191.674" rx="32.4942" ry="18"/>
<text text-anchor="middle" x="32.7627" y="-3187.974" font-family="Times,serif" font-size="14.00" fill="#000000">12189</text>
</g>
<!-- 20454 -->
<g id="node55" class="node">
<title>20454</title>
<ellipse fill="none" stroke="#000000" cx="194.5527" cy="-3159.4053" rx="32.4942" ry="18"/>
<text text-anchor="middle" x="194.5527" y="-3155.7053" font-family="Times,serif" font-size="14.00" fill="#000000">20454</text>
</g>
<!-- 12266&#45;&gt;20454 -->
<g id="edge58" class="edge">
<title>12266&#45;&gt;20454</title>
<path fill="none" stroke="#000000" d="M318.9892,-3137.9127C295.0406,-3142.0491 261.7226,-3147.8037 235.5891,-3152.3175"/>
<polygon fill="#000000" stroke="#000000" points="234.8588,-3148.8917 225.6004,-3154.0427 236.0502,-3155.7896 234.8588,-3148.8917"/>
</g>
<!-- 12956&#45;&gt;3356 -->
<g id="edge59" class="edge">
<title>12956&#45;&gt;3356</title>
<path fill="none" stroke="#000000" d="M2433.1271,-2215.5429C2394.4013,-2202.2196 2324.4067,-2178.1386 2282.3156,-2163.6574"/>
<polygon fill="#000000" stroke="#000000" points="2283.3557,-2160.314 2272.761,-2160.3702 2281.0783,-2166.9332 2283.3557,-2160.314"/>
</g>
<!-- 18540 -->
<g id="node54" class="node">
<title>18540</title>
<ellipse fill="none" stroke="#000000" cx="1877.6913" cy="-2277.1378" rx="32.4942" ry="18"/>
<text text-anchor="middle" x="1877.6913" y="-2273.4378" font-family="Times,serif" font-size="14.00" fill="#000000">18540</text>
</g>
<!-- 20454&#45;&gt;12189 -->
<g id="edge60" class="edge">
<title>20454&#45;&gt;12189</title>
<path fill="none" stroke="#000000" d="M163.7404,-3165.5507C138.1006,-3170.6645 101.3942,-3177.9856 73.3598,-3183.577"/>
<polygon fill="#000000" stroke="#000000" points="72.5825,-3180.163 63.4602,-3185.5514 73.9517,-3187.0278 72.5825,-3180.163"/>
</g>
<!-- 30070&#45;&gt;6904 -->
<g id="edge61" class="edge">
<title>30070&#45;&gt;6904</title>
<path fill="none" stroke="#000000" d="M1788.3075,-2186.278C1749.6128,-2209.7839 1669.4792,-2258.4626 1626.1611,-2284.777"/>
<polygon fill="#000000" stroke="#000000" points="1624.234,-2281.8524 1617.5045,-2290.0356 1627.8683,-2287.8351 1624.234,-2281.8524"/>
</g>
<!-- 30070&#45;&gt;7016 -->
<g id="edge62" class="edge">
<title>30070&#45;&gt;7016</title>
<path fill="none" stroke="#000000" d="M1802.7314,-2155.2553C1792.603,-2131.8255 1774.6116,-2090.2065 1762.7751,-2062.8256"/>
<polygon fill="#000000" stroke="#000000" points="1765.8995,-2061.2325 1758.7188,-2053.4422 1759.4742,-2064.0101 1765.8995,-2061.2325"/>
</g>
<!-- 30070&#45;&gt;18540 -->
<g id="edge63" class="edge">
<title>30070&#45;&gt;18540</title>
<path fill="none" stroke="#000000" d="M1821.4726,-2190.1011C1832.2435,-2206.7764 1848.7125,-2232.2734 1861.0458,-2251.3676"/>
<polygon fill="#000000" stroke="#000000" points="1858.1894,-2253.3962 1866.5552,-2259.8972 1864.0695,-2249.5981 1858.1894,-2253.3962"/>
</g>
<!-- 32787&#45;&gt;703 -->
<g id="edge64" class="edge">
<title>32787&#45;&gt;703</title>
<path fill="none" stroke="#000000" d="M1092.4368,-2810.4888C1107.465,-2840.5675 1138.1292,-2901.941 1155.7426,-2937.1939"/>
<polygon fill="#000000" stroke="#000000" points="1152.7401,-2939.0154 1160.3406,-2946.3966 1159.002,-2935.8867 1152.7401,-2939.0154"/>
</g>
<!-- 32787&#45;&gt;2764 -->
<g id="edge65" class="edge">
<title>32787&#45;&gt;2764</title>
<path fill="none" stroke="#000000" d="M1065.1096,-2807.9497C1032.2341,-2834.7624 963.6301,-2890.7148 926.3874,-2921.0893"/>
<polygon fill="#000000" stroke="#000000" points="924.0419,-2918.4858 918.5046,-2927.5185 928.4662,-2923.9104 924.0419,-2918.4858"/>
</g>
<!-- 32787&#45;&gt;4637 -->
<g id="edge66" class="edge">
<title>32787&#45;&gt;4637</title>
<path fill="none" stroke="#000000" d="M1071.6451,-2775.6532C1060.8309,-2760.1286 1044.7796,-2737.0855 1032.4978,-2719.4539"/>
<polygon fill="#000000" stroke="#000000" points="1035.0542,-2717.0004 1026.4665,-2710.7954 1029.3104,-2721.0015 1035.0542,-2717.0004"/>
</g>
<!-- 32787&#45;&gt;7474 -->
<g id="edge67" class="edge">
<title>32787&#45;&gt;7474</title>
<path fill="none" stroke="#000000" d="M1052.2521,-2788.1038C1035.976,-2785.6416 1015.9596,-2782.6134 998.7858,-2780.0154"/>
<polygon fill="#000000" stroke="#000000" points="998.93,-2776.4974 988.519,-2778.4622 997.8829,-2783.4187 998.93,-2776.4974"/>
</g>
<!-- 38333&#45;&gt;1221 -->
<g id="edge68" class="edge">
<title>38333&#45;&gt;1221</title>
<path fill="none" stroke="#000000" d="M891.7184,-3128.4162C891.5443,-3150.3394 891.2482,-3187.6182 891.0431,-3213.4531"/>
<polygon fill="#000000" stroke="#000000" points="887.5409,-3213.7189 890.9613,-3223.7464 894.5407,-3213.7746 887.5409,-3213.7189"/>
</g>
<!-- 38880&#45;&gt;6695 -->
<g id="edge69" class="edge">
<title>38880&#45;&gt;6695</title>
<path fill="none" stroke="#000000" d="M476.2773,-3423.2194C456.846,-3432.606 429.5792,-3445.7777 408.4305,-3455.9939"/>
<polygon fill="#000000" stroke="#000000" points="406.6762,-3452.9544 399.1942,-3460.4557 409.7211,-3459.2575 406.6762,-3452.9544"/>
</g>
<!-- 38880&#45;&gt;9002 -->
<g id="edge70" class="edge">
<title>38880&#45;&gt;9002</title>
<path fill="none" stroke="#000000" d="M501.2623,-3429.4656C501.7362,-3452.5256 502.5596,-3492.5912 503.116,-3519.6656"/>
<polygon fill="#000000" stroke="#000000" points="499.6172,-3519.7646 503.322,-3529.6905 506.6157,-3519.6207 499.6172,-3519.7646"/>
</g>
<!-- 38880&#45;&gt;9443 -->
<g id="edge71" class="edge">
<title>38880&#45;&gt;9443</title>
<path fill="none" stroke="#000000" d="M490.3721,-3428.5277C476.0207,-3451.9944 450.1883,-3494.2342 433.5417,-3521.4539"/>
<polygon fill="#000000" stroke="#000000" points="430.5098,-3519.7031 428.2784,-3530.0603 436.4816,-3523.3553 430.5098,-3519.7031"/>
</g>
</g>
</svg>
