<?xml version="1.0" encoding="UTF-8" standalone="no"?>
<!DOCTYPE svg PUBLIC "-//W3C//DTD SVG 1.1//EN"
 "http://www.w3.org/Graphics/SVG/1.1/DTD/svg11.dtd">
<!-- Generated by graphviz version 2.40.1 (20161225.0304)
 -->
<!-- Title: %3 Pages: 1 -->
<svg width="68573pt" height="37110pt"
 viewBox="0.00 0.00 68573.21 37110.32" xmlns="http://www.w3.org/2000/svg" xmlns:xlink="http://www.w3.org/1999/xlink">
<g id="graph0" class="graph" transform="scale(1 1) rotate(0) translate(4 37106.3172)">
<title>%3</title>
<polygon fill="#ffffff" stroke="transparent" points="-4,4 -4,-37106.3172 68569.2142,-37106.3172 68569.2142,4 -4,4"/>
<!-- 174 -->
<g id="node1" class="node">
<title>174</title>
<ellipse fill="none" stroke="#000000" cx="37695.0425" cy="-15408.7513" rx="27" ry="18"/>
<text text-anchor="middle" x="37695.0425" y="-15405.0513" font-family="Times,serif" font-size="14.00" fill="#000000">174</text>
</g>
<!-- 209 -->
<g id="node2" class="node">
<title>209</title>
<ellipse fill="none" stroke="#000000" cx="68019.8395" cy="-15408.7513" rx="27" ry="18"/>
<text text-anchor="middle" x="68019.8395" y="-15405.0513" font-family="Times,serif" font-size="14.00" fill="#000000">209</text>
</g>
<!-- 174&#45;&gt;209 -->
<g id="edge1" class="edge">
<title>174&#45;&gt;209</title>
<path fill="none" stroke="#000000" d="M37722.0614,-15408.7513C38716.0964,-15408.7513 66812.8884,-15408.7513 67982.287,-15408.7513"/>
<polygon fill="#000000" stroke="#000000" points="67982.6362,-15412.2514 67992.6362,-15408.7513 67982.6361,-15405.2514 67982.6362,-15412.2514"/>
</g>
<!-- 1299 -->
<g id="node8" class="node">
<title>1299</title>
<ellipse fill="none" stroke="#000000" cx="68019.8395" cy="-14764.3742" rx="28.6953" ry="18"/>
<text text-anchor="middle" x="68019.8395" y="-14760.6742" font-family="Times,serif" font-size="14.00" fill="#000000">1299</text>
</g>
<!-- 209&#45;&gt;1299 -->
<g id="edge2" class="edge">
<title>209&#45;&gt;1299</title>
<path fill="none" stroke="#000000" d="M68019.8395,-15390.5044C68019.8395,-15300.4088 68019.8395,-14902.9399 68019.8395,-14792.772"/>
<polygon fill="#000000" stroke="#000000" points="68023.3396,-14792.462 68019.8395,-14782.462 68016.3396,-14792.462 68023.3396,-14792.462"/>
</g>
<!-- 2828 -->
<g id="node14" class="node">
<title>2828</title>
<ellipse fill="none" stroke="#000000" cx="68019.8395" cy="-16053.1285" rx="28.6953" ry="18"/>
<text text-anchor="middle" x="68019.8395" y="-16049.4285" font-family="Times,serif" font-size="14.00" fill="#000000">2828</text>
</g>
<!-- 209&#45;&gt;2828 -->
<g id="edge3" class="edge">
<title>209&#45;&gt;2828</title>
<path fill="none" stroke="#000000" d="M68019.8395,-15426.9983C68019.8395,-15517.0939 68019.8395,-15914.5628 68019.8395,-16024.7307"/>
<polygon fill="#000000" stroke="#000000" points="68016.3396,-16025.0406 68019.8395,-16035.0406 68023.3396,-16025.0407 68016.3396,-16025.0406"/>
</g>
<!-- 701 -->
<g id="node3" class="node">
<title>701</title>
<ellipse fill="none" stroke="#000000" cx="68302.6224" cy="-14688.8235" rx="27" ry="18"/>
<text text-anchor="middle" x="68302.6224" y="-14685.1235" font-family="Times,serif" font-size="14.00" fill="#000000">701</text>
</g>
<!-- 703 -->
<g id="node4" class="node">
<title>703</title>
<ellipse fill="none" stroke="#000000" cx="11814.5651" cy="-26468.3538" rx="27" ry="18"/>
<text text-anchor="middle" x="11814.5651" y="-26464.6538" font-family="Times,serif" font-size="14.00" fill="#000000">703</text>
</g>
<!-- 9498 -->
<g id="node44" class="node">
<title>9498</title>
<ellipse fill="none" stroke="#000000" cx="11833.0259" cy="-26594.6087" rx="28.6953" ry="18"/>
<text text-anchor="middle" x="11833.0259" y="-26590.9087" font-family="Times,serif" font-size="14.00" fill="#000000">9498</text>
</g>
<!-- 703&#45;&gt;9498 -->
<g id="edge4" class="edge">
<title>703&#45;&gt;9498</title>
<path fill="none" stroke="#000000" d="M11817.2101,-26486.443C11820.2671,-26507.3502 11825.335,-26542.0097 11828.9088,-26566.4513"/>
<polygon fill="#000000" stroke="#000000" points="11825.4758,-26567.1647 11830.3858,-26576.553 11832.4021,-26566.1518 11825.4758,-26567.1647"/>
</g>
<!-- 1221 -->
<g id="node5" class="node">
<title>1221</title>
<ellipse fill="none" stroke="#000000" cx="9225.5052" cy="-23509.4871" rx="28.6953" ry="18"/>
<text text-anchor="middle" x="9225.5052" y="-23505.7871" font-family="Times,serif" font-size="14.00" fill="#000000">1221</text>
</g>
<!-- 1239 -->
<g id="node6" class="node">
<title>1239</title>
<ellipse fill="none" stroke="#000000" cx="68445.9779" cy="-14641.0658" rx="28.6953" ry="18"/>
<text text-anchor="middle" x="68445.9779" y="-14637.3658" font-family="Times,serif" font-size="14.00" fill="#000000">1239</text>
</g>
<!-- 1273 -->
<g id="node7" class="node">
<title>1273</title>
<ellipse fill="none" stroke="#000000" cx="68536.6167" cy="-14763.5754" rx="28.6953" ry="18"/>
<text text-anchor="middle" x="68536.6167" y="-14759.8754" font-family="Times,serif" font-size="14.00" fill="#000000">1273</text>
</g>
<!-- 5511 -->
<g id="node28" class="node">
<title>5511</title>
<ellipse fill="none" stroke="#000000" cx="67696.8522" cy="-14764.3742" rx="28.6953" ry="18"/>
<text text-anchor="middle" x="67696.8522" y="-14760.6742" font-family="Times,serif" font-size="14.00" fill="#000000">5511</text>
</g>
<!-- 1299&#45;&gt;5511 -->
<g id="edge5" class="edge">
<title>1299&#45;&gt;5511</title>
<path fill="none" stroke="#000000" d="M67991.1765,-14764.3742C67933.1163,-14764.3742 67801.5612,-14764.3742 67735.7982,-14764.3742"/>
<polygon fill="#000000" stroke="#000000" points="67735.4509,-14760.8743 67725.4509,-14764.3742 67735.4509,-14767.8743 67735.4509,-14760.8743"/>
</g>
<!-- 6461 -->
<g id="node31" class="node">
<title>6461</title>
<ellipse fill="none" stroke="#000000" cx="68149.0344" cy="-14764.3742" rx="28.6953" ry="18"/>
<text text-anchor="middle" x="68149.0344" y="-14760.6742" font-family="Times,serif" font-size="14.00" fill="#000000">6461</text>
</g>
<!-- 1299&#45;&gt;6461 -->
<g id="edge6" class="edge">
<title>1299&#45;&gt;6461</title>
<path fill="none" stroke="#000000" d="M68048.512,-14764.3742C68066.5341,-14764.3742 68090.0264,-14764.3742 68109.7681,-14764.3742"/>
<polygon fill="#000000" stroke="#000000" points="68109.9953,-14767.8743 68119.9953,-14764.3742 68109.9952,-14760.8743 68109.9953,-14767.8743"/>
</g>
<!-- 2497 -->
<g id="node9" class="node">
<title>2497</title>
<ellipse fill="none" stroke="#000000" cx="68407.4243" cy="-14764.3742" rx="28.6953" ry="18"/>
<text text-anchor="middle" x="68407.4243" y="-14760.6742" font-family="Times,serif" font-size="14.00" fill="#000000">2497</text>
</g>
<!-- 2497&#45;&gt;701 -->
<g id="edge7" class="edge">
<title>2497&#45;&gt;701</title>
<path fill="none" stroke="#000000" d="M68388.202,-14750.517C68371.7484,-14738.6558 68347.8809,-14721.4499 68329.5292,-14708.2204"/>
<polygon fill="#000000" stroke="#000000" points="68331.1786,-14705.0948 68321.0199,-14702.0861 68327.0851,-14710.7732 68331.1786,-14705.0948"/>
</g>
<!-- 2497&#45;&gt;1239 -->
<g id="edge8" class="edge">
<title>2497&#45;&gt;1239</title>
<path fill="none" stroke="#000000" d="M68412.948,-14746.7071C68419.3245,-14726.3128 68429.8902,-14692.52 68437.3522,-14668.6538"/>
<polygon fill="#000000" stroke="#000000" points="68440.6953,-14669.69 68440.339,-14659.1011 68434.0142,-14667.601 68440.6953,-14669.69"/>
</g>
<!-- 2497&#45;&gt;1273 -->
<g id="edge9" class="edge">
<title>2497&#45;&gt;1273</title>
<path fill="none" stroke="#000000" d="M68436.0962,-14764.1969C68454.118,-14764.0855 68477.6098,-14763.9402 68497.3511,-14763.8182"/>
<polygon fill="#000000" stroke="#000000" points="68497.6,-14767.3168 68507.5781,-14763.755 68497.5566,-14760.317 68497.6,-14767.3168"/>
</g>
<!-- 3320 -->
<g id="node17" class="node">
<title>3320</title>
<ellipse fill="none" stroke="#000000" cx="68447.4996" cy="-14887.1964" rx="28.6953" ry="18"/>
<text text-anchor="middle" x="68447.4996" y="-14883.4964" font-family="Times,serif" font-size="14.00" fill="#000000">3320</text>
</g>
<!-- 2497&#45;&gt;3320 -->
<g id="edge10" class="edge">
<title>2497&#45;&gt;3320</title>
<path fill="none" stroke="#000000" d="M68413.2516,-14782.2336C68419.8701,-14802.5181 68430.7503,-14835.8635 68438.4699,-14859.5223"/>
<polygon fill="#000000" stroke="#000000" points="68435.2359,-14860.8944 68441.6652,-14869.3154 68441.8906,-14858.723 68435.2359,-14860.8944"/>
</g>
<!-- 7018 -->
<g id="node37" class="node">
<title>7018</title>
<ellipse fill="none" stroke="#000000" cx="68302.6224" cy="-14839.9248" rx="28.6953" ry="18"/>
<text text-anchor="middle" x="68302.6224" y="-14836.2248" font-family="Times,serif" font-size="14.00" fill="#000000">7018</text>
</g>
<!-- 2497&#45;&gt;7018 -->
<g id="edge11" class="edge">
<title>2497&#45;&gt;7018</title>
<path fill="none" stroke="#000000" d="M68388.202,-14778.2313C68371.9515,-14789.9461 68348.4691,-14806.8744 68330.2114,-14820.0362"/>
<polygon fill="#000000" stroke="#000000" points="68327.788,-14817.4685 68321.7228,-14826.1555 68331.8815,-14823.1468 68327.788,-14817.4685"/>
</g>
<!-- 2516 -->
<g id="node10" class="node">
<title>2516</title>
<ellipse fill="none" stroke="#000000" cx="14035.8324" cy="-27629.8514" rx="28.6953" ry="18"/>
<text text-anchor="middle" x="14035.8324" y="-27626.1514" font-family="Times,serif" font-size="14.00" fill="#000000">2516</text>
</g>
<!-- 32787 -->
<g id="node60" class="node">
<title>32787</title>
<ellipse fill="none" stroke="#000000" cx="11588.0057" cy="-24918.892" rx="32.4942" ry="18"/>
<text text-anchor="middle" x="11588.0057" y="-24915.192" font-family="Times,serif" font-size="14.00" fill="#000000">32787</text>
</g>
<!-- 2516&#45;&gt;32787 -->
<g id="edge12" class="edge">
<title>2516&#45;&gt;32787</title>
<path fill="none" stroke="#000000" d="M14021.4572,-27613.931C13832.4044,-27404.5557 11838.4729,-25196.2835 11609.4123,-24942.5998"/>
<polygon fill="#000000" stroke="#000000" points="11611.8787,-24940.1087 11602.5792,-24935.0322 11606.6832,-24944.7999 11611.8787,-24940.1087"/>
</g>
<!-- 2686 -->
<g id="node11" class="node">
<title>2686</title>
<ellipse fill="none" stroke="#000000" cx="17684.3118" cy="-28123.6837" rx="28.6953" ry="18"/>
<text text-anchor="middle" x="17684.3118" y="-28119.9837" font-family="Times,serif" font-size="14.00" fill="#000000">2686</text>
</g>
<!-- 3741 -->
<g id="node22" class="node">
<title>3741</title>
<ellipse fill="none" stroke="#000000" cx="17812.7079" cy="-28138.0284" rx="28.6953" ry="18"/>
<text text-anchor="middle" x="17812.7079" y="-28134.3284" font-family="Times,serif" font-size="14.00" fill="#000000">3741</text>
</g>
<!-- 2686&#45;&gt;3741 -->
<g id="edge13" class="edge">
<title>2686&#45;&gt;3741</title>
<path fill="none" stroke="#000000" d="M17712.4889,-28126.8317C17730.5931,-28128.8544 17754.3481,-28131.5083 17774.1864,-28133.7247"/>
<polygon fill="#000000" stroke="#000000" points="17773.8261,-28137.2061 17784.1529,-28134.8382 17774.6034,-28130.2494 17773.8261,-28137.2061"/>
</g>
<!-- 2687 -->
<g id="node12" class="node">
<title>2687</title>
<ellipse fill="none" stroke="#000000" cx="14122.4147" cy="-27725.7411" rx="28.6953" ry="18"/>
<text text-anchor="middle" x="14122.4147" y="-27722.0411" font-family="Times,serif" font-size="14.00" fill="#000000">2687</text>
</g>
<!-- 2687&#45;&gt;2516 -->
<g id="edge14" class="edge">
<title>2687&#45;&gt;2516</title>
<path fill="none" stroke="#000000" d="M14108.1174,-27709.9069C14094.2057,-27694.4997 14072.9011,-27670.9049 14057.02,-27653.3166"/>
<polygon fill="#000000" stroke="#000000" points="14059.4504,-27650.7857 14050.1509,-27645.7092 14054.2549,-27655.4769 14059.4504,-27650.7857"/>
</g>
<!-- 2687&#45;&gt;2686 -->
<g id="edge15" class="edge">
<title>2687&#45;&gt;2686</title>
<path fill="none" stroke="#000000" d="M14150.8259,-27728.9153C14464.9103,-27764.0054 17284.2921,-28078.9927 17646.1403,-28119.4191"/>
<polygon fill="#000000" stroke="#000000" points="17645.7973,-28122.9025 17656.1241,-28120.5345 17646.5746,-28115.9458 17645.7973,-28122.9025"/>
</g>
<!-- 9505 -->
<g id="node45" class="node">
<title>9505</title>
<ellipse fill="none" stroke="#000000" cx="14089.2073" cy="-31378.1449" rx="28.6953" ry="18"/>
<text text-anchor="middle" x="14089.2073" y="-31374.4449" font-family="Times,serif" font-size="14.00" fill="#000000">9505</text>
</g>
<!-- 2687&#45;&gt;9505 -->
<g id="edge16" class="edge">
<title>2687&#45;&gt;9505</title>
<path fill="none" stroke="#000000" d="M14122.2479,-27744.0935C14119.8527,-28007.5355 14092.4313,-31023.5482 14089.4667,-31349.6138"/>
<polygon fill="#000000" stroke="#000000" points="14085.9628,-31350.0378 14089.3716,-31360.0692 14092.9625,-31350.1015 14085.9628,-31350.0378"/>
</g>
<!-- 2764 -->
<g id="node13" class="node">
<title>2764</title>
<ellipse fill="none" stroke="#000000" cx="9896.8583" cy="-24224.3163" rx="28.6953" ry="18"/>
<text text-anchor="middle" x="9896.8583" y="-24220.6163" font-family="Times,serif" font-size="14.00" fill="#000000">2764</text>
</g>
<!-- 7545 -->
<g id="node40" class="node">
<title>7545</title>
<ellipse fill="none" stroke="#000000" cx="9910.6765" cy="-25136.3755" rx="28.6953" ry="18"/>
<text text-anchor="middle" x="9910.6765" y="-25132.6755" font-family="Times,serif" font-size="14.00" fill="#000000">7545</text>
</g>
<!-- 2764&#45;&gt;7545 -->
<g id="edge17" class="edge">
<title>2764&#45;&gt;7545</title>
<path fill="none" stroke="#000000" d="M9897.1343,-24242.5351C9898.8565,-24356.2023 9908.1217,-24967.7497 9910.2434,-25107.7924"/>
<polygon fill="#000000" stroke="#000000" points="9906.7486,-25108.1676 9910.3998,-25118.1133 9913.7478,-25108.0614 9906.7486,-25108.1676"/>
</g>
<!-- 38333 -->
<g id="node62" class="node">
<title>38333</title>
<ellipse fill="none" stroke="#000000" cx="9316.6208" cy="-23606.5032" rx="32.4942" ry="18"/>
<text text-anchor="middle" x="9316.6208" y="-23602.8032" font-family="Times,serif" font-size="14.00" fill="#000000">38333</text>
</g>
<!-- 2764&#45;&gt;38333 -->
<g id="edge18" class="edge">
<title>2764&#45;&gt;38333</title>
<path fill="none" stroke="#000000" d="M9882.2251,-24208.7355C9803.849,-24125.2839 9433.7462,-23731.2136 9338.8398,-23630.1612"/>
<polygon fill="#000000" stroke="#000000" points="9341.1432,-23627.5012 9331.746,-23622.608 9336.0407,-23632.2934 9341.1432,-23627.5012"/>
</g>
<!-- 38561 -->
<g id="node63" class="node">
<title>38561</title>
<ellipse fill="none" stroke="#000000" cx="10547.7401" cy="-23585.2579" rx="32.4942" ry="18"/>
<text text-anchor="middle" x="10547.7401" y="-23581.5579" font-family="Times,serif" font-size="14.00" fill="#000000">38561</text>
</g>
<!-- 2764&#45;&gt;38561 -->
<g id="edge19" class="edge">
<title>2764&#45;&gt;38561</title>
<path fill="none" stroke="#000000" d="M9912.3056,-24209.1496C9998.511,-24124.5102 10419.9835,-23710.6939 10524.3352,-23608.2377"/>
<polygon fill="#000000" stroke="#000000" points="10526.8798,-23610.6443 10531.5634,-23601.1408 10521.9757,-23605.6493 10526.8798,-23610.6443"/>
</g>
<!-- 2914 -->
<g id="node15" class="node">
<title>2914</title>
<ellipse fill="none" stroke="#000000" cx="37179.8602" cy="-15408.7513" rx="28.6953" ry="18"/>
<text text-anchor="middle" x="37179.8602" y="-15405.0513" font-family="Times,serif" font-size="14.00" fill="#000000">2914</text>
</g>
<!-- 6453 -->
<g id="node30" class="node">
<title>6453</title>
<ellipse fill="none" stroke="#000000" cx="37309.0552" cy="-15408.7513" rx="28.6953" ry="18"/>
<text text-anchor="middle" x="37309.0552" y="-15405.0513" font-family="Times,serif" font-size="14.00" fill="#000000">6453</text>
</g>
<!-- 2914&#45;&gt;6453 -->
<g id="edge20" class="edge">
<title>2914&#45;&gt;6453</title>
<path fill="none" stroke="#000000" d="M37208.5328,-15408.7513C37226.5549,-15408.7513 37250.0471,-15408.7513 37269.7888,-15408.7513"/>
<polygon fill="#000000" stroke="#000000" points="37270.0161,-15412.2514 37280.016,-15408.7513 37270.016,-15405.2514 37270.0161,-15412.2514"/>
</g>
<!-- 3257 -->
<g id="node16" class="node">
<title>3257</title>
<ellipse fill="none" stroke="#000000" cx="37438.2501" cy="-15408.7513" rx="28.6953" ry="18"/>
<text text-anchor="middle" x="37438.2501" y="-15405.0513" font-family="Times,serif" font-size="14.00" fill="#000000">3257</text>
</g>
<!-- 3491 -->
<g id="node19" class="node">
<title>3491</title>
<ellipse fill="none" stroke="#000000" cx="37567.445" cy="-15408.7513" rx="28.6953" ry="18"/>
<text text-anchor="middle" x="37567.445" y="-15405.0513" font-family="Times,serif" font-size="14.00" fill="#000000">3491</text>
</g>
<!-- 3257&#45;&gt;3491 -->
<g id="edge21" class="edge">
<title>3257&#45;&gt;3491</title>
<path fill="none" stroke="#000000" d="M37466.9226,-15408.7513C37484.9447,-15408.7513 37508.437,-15408.7513 37528.1787,-15408.7513"/>
<polygon fill="#000000" stroke="#000000" points="37528.4059,-15412.2514 37538.4059,-15408.7513 37528.4058,-15405.2514 37528.4059,-15412.2514"/>
</g>
<!-- 3356 -->
<g id="node18" class="node">
<title>3356</title>
<ellipse fill="none" stroke="#000000" cx="7047.2581" cy="-1216.725" rx="28.6953" ry="18"/>
<text text-anchor="middle" x="7047.2581" y="-1213.025" font-family="Times,serif" font-size="14.00" fill="#000000">3356</text>
</g>
<!-- 3549 -->
<g id="node20" class="node">
<title>3549</title>
<ellipse fill="none" stroke="#000000" cx="7047.2581" cy="-15408.7513" rx="28.6953" ry="18"/>
<text text-anchor="middle" x="7047.2581" y="-15405.0513" font-family="Times,serif" font-size="14.00" fill="#000000">3549</text>
</g>
<!-- 3356&#45;&gt;3549 -->
<g id="edge22" class="edge">
<title>3356&#45;&gt;3549</title>
<path fill="none" stroke="#000000" d="M7047.2581,-1234.8064C7047.2581,-1784.6713 7047.2581,-14696.7017 7047.2581,-15380.5821"/>
<polygon fill="#000000" stroke="#000000" points="7043.7582,-15380.5875 7047.2581,-15390.5876 7050.7582,-15380.5876 7043.7582,-15380.5875"/>
</g>
<!-- 3491&#45;&gt;174 -->
<g id="edge23" class="edge">
<title>3491&#45;&gt;174</title>
<path fill="none" stroke="#000000" d="M37596.0804,-15408.7513C37614.267,-15408.7513 37637.9975,-15408.7513 37657.6615,-15408.7513"/>
<polygon fill="#000000" stroke="#000000" points="37657.8139,-15412.2514 37667.8139,-15408.7513 37657.8139,-15405.2514 37657.8139,-15412.2514"/>
</g>
<!-- 6762 -->
<g id="node33" class="node">
<title>6762</title>
<ellipse fill="none" stroke="#000000" cx="37050.6653" cy="-15408.7513" rx="28.6953" ry="18"/>
<text text-anchor="middle" x="37050.6653" y="-15405.0513" font-family="Times,serif" font-size="14.00" fill="#000000">6762</text>
</g>
<!-- 3549&#45;&gt;6762 -->
<g id="edge24" class="edge">
<title>3549&#45;&gt;6762</title>
<path fill="none" stroke="#000000" d="M7075.8946,-15408.7513C8092.2531,-15408.7513 35830.2723,-15408.7513 37011.807,-15408.7513"/>
<polygon fill="#000000" stroke="#000000" points="37011.9093,-15412.2514 37021.9093,-15408.7513 37011.9092,-15405.2514 37011.9093,-15412.2514"/>
</g>
<!-- 30070 -->
<g id="node59" class="node">
<title>30070</title>
<ellipse fill="none" stroke="#000000" cx="7047.2581" cy="-30410.4549" rx="32.4942" ry="18"/>
<text text-anchor="middle" x="7047.2581" y="-30406.7549" font-family="Times,serif" font-size="14.00" fill="#000000">30070</text>
</g>
<!-- 3549&#45;&gt;30070 -->
<g id="edge25" class="edge">
<title>3549&#45;&gt;30070</title>
<path fill="none" stroke="#000000" d="M7047.2581,-15426.9815C7047.2581,-15995.4603 7047.2581,-29674.0323 7047.2581,-30381.9837"/>
<polygon fill="#000000" stroke="#000000" points="7043.7582,-30382.1034 7047.2581,-30392.1034 7050.7582,-30382.1034 7043.7582,-30382.1034"/>
</g>
<!-- 3597 -->
<g id="node21" class="node">
<title>3597</title>
<ellipse fill="none" stroke="#000000" cx="7197.7455" cy="-205.9121" rx="28.6953" ry="18"/>
<text text-anchor="middle" x="7197.7455" y="-202.2121" font-family="Times,serif" font-size="14.00" fill="#000000">3597</text>
</g>
<!-- 37179 -->
<g id="node61" class="node">
<title>37179</title>
<ellipse fill="none" stroke="#000000" cx="17944.9796" cy="-28152.8061" rx="32.4942" ry="18"/>
<text text-anchor="middle" x="17944.9796" y="-28149.1061" font-family="Times,serif" font-size="14.00" fill="#000000">37179</text>
</g>
<!-- 3741&#45;&gt;37179 -->
<g id="edge26" class="edge">
<title>3741&#45;&gt;37179</title>
<path fill="none" stroke="#000000" d="M17841.0835,-28141.1986C17859.054,-28143.2063 17882.618,-28145.8389 17902.7612,-28148.0893"/>
<polygon fill="#000000" stroke="#000000" points="17902.6084,-28151.594 17912.9353,-28149.226 17903.3857,-28144.6373 17902.6084,-28151.594"/>
</g>
<!-- 4635 -->
<g id="node23" class="node">
<title>4635</title>
<ellipse fill="none" stroke="#000000" cx="10120.649" cy="-24731.5024" rx="28.6953" ry="18"/>
<text text-anchor="middle" x="10120.649" y="-24727.8024" font-family="Times,serif" font-size="14.00" fill="#000000">4635</text>
</g>
<!-- 4637 -->
<g id="node24" class="node">
<title>4637</title>
<ellipse fill="none" stroke="#000000" cx="12876.3713" cy="-23621.7687" rx="28.6953" ry="18"/>
<text text-anchor="middle" x="12876.3713" y="-23618.0687" font-family="Times,serif" font-size="14.00" fill="#000000">4637</text>
</g>
<!-- 4739 -->
<g id="node25" class="node">
<title>4739</title>
<ellipse fill="none" stroke="#000000" cx="10016.4588" cy="-25210.5471" rx="28.6953" ry="18"/>
<text text-anchor="middle" x="10016.4588" y="-25206.8471" font-family="Times,serif" font-size="14.00" fill="#000000">4739</text>
</g>
<!-- 38880 -->
<g id="node64" class="node">
<title>38880</title>
<ellipse fill="none" stroke="#000000" cx="10336.9986" cy="-25435.3009" rx="32.4942" ry="18"/>
<text text-anchor="middle" x="10336.9986" y="-25431.6009" font-family="Times,serif" font-size="14.00" fill="#000000">38880</text>
</g>
<!-- 4739&#45;&gt;38880 -->
<g id="edge27" class="edge">
<title>4739&#45;&gt;38880</title>
<path fill="none" stroke="#000000" d="M10036.0274,-25224.2681C10090.4219,-25262.408 10243.6488,-25369.8465 10307.9845,-25414.957"/>
<polygon fill="#000000" stroke="#000000" points="10306.2559,-25418.0195 10316.4531,-25420.8949 10310.2747,-25412.2881 10306.2559,-25418.0195"/>
</g>
<!-- 4755 -->
<g id="node26" class="node">
<title>4755</title>
<ellipse fill="none" stroke="#000000" cx="11871.5381" cy="-26857.9972" rx="28.6953" ry="18"/>
<text text-anchor="middle" x="11871.5381" y="-26854.2972" font-family="Times,serif" font-size="14.00" fill="#000000">4755</text>
</g>
<!-- 9583 -->
<g id="node46" class="node">
<title>9583</title>
<ellipse fill="none" stroke="#000000" cx="11890.23" cy="-26985.8328" rx="28.6953" ry="18"/>
<text text-anchor="middle" x="11890.23" y="-26982.1328" font-family="Times,serif" font-size="14.00" fill="#000000">9583</text>
</g>
<!-- 4755&#45;&gt;9583 -->
<g id="edge28" class="edge">
<title>4755&#45;&gt;9583</title>
<path fill="none" stroke="#000000" d="M11874.1765,-26876.0418C11877.2937,-26897.3601 11882.5148,-26933.0677 11886.1532,-26957.9516"/>
<polygon fill="#000000" stroke="#000000" points="11882.6949,-26958.4916 11887.605,-26967.88 11889.6212,-26957.4788 11882.6949,-26958.4916"/>
</g>
<!-- 4826 -->
<g id="node27" class="node">
<title>4826</title>
<ellipse fill="none" stroke="#000000" cx="10105.5898" cy="-25558.7746" rx="28.6953" ry="18"/>
<text text-anchor="middle" x="10105.5898" y="-25555.0746" font-family="Times,serif" font-size="14.00" fill="#000000">4826</text>
</g>
<!-- 5692 -->
<g id="node29" class="node">
<title>5692</title>
<ellipse fill="none" stroke="#000000" cx="7452.0968" cy="-273.9532" rx="28.6953" ry="18"/>
<text text-anchor="middle" x="7452.0968" y="-270.2532" font-family="Times,serif" font-size="14.00" fill="#000000">5692</text>
</g>
<!-- 5692&#45;&gt;3597 -->
<g id="edge29" class="edge">
<title>5692&#45;&gt;3597</title>
<path fill="none" stroke="#000000" d="M7425.3575,-266.8002C7379.4408,-254.5171 7285.5666,-229.405 7233.8756,-215.5772"/>
<polygon fill="#000000" stroke="#000000" points="7234.6914,-212.1724 7224.1265,-212.9693 7232.8824,-218.9347 7234.6914,-212.1724"/>
</g>
<!-- 10834 -->
<g id="node49" class="node">
<title>10834</title>
<ellipse fill="none" stroke="#000000" cx="7047.2581" cy="-273.9532" rx="32.4942" ry="18"/>
<text text-anchor="middle" x="7047.2581" y="-270.2532" font-family="Times,serif" font-size="14.00" fill="#000000">10834</text>
</g>
<!-- 5692&#45;&gt;10834 -->
<g id="edge30" class="edge">
<title>5692&#45;&gt;10834</title>
<path fill="none" stroke="#000000" d="M7423.3063,-273.9532C7353.0601,-273.9532 7172.5947,-273.9532 7089.8565,-273.9532"/>
<polygon fill="#000000" stroke="#000000" points="7089.793,-270.4533 7079.793,-273.9532 7089.793,-277.4533 7089.793,-270.4533"/>
</g>
<!-- 11008 -->
<g id="node50" class="node">
<title>11008</title>
<ellipse fill="none" stroke="#000000" cx="7262.5045" cy="-91.2542" rx="32.4942" ry="18"/>
<text text-anchor="middle" x="7262.5045" y="-87.5542" font-family="Times,serif" font-size="14.00" fill="#000000">11008</text>
</g>
<!-- 5692&#45;&gt;11008 -->
<g id="edge31" class="edge">
<title>5692&#45;&gt;11008</title>
<path fill="none" stroke="#000000" d="M7436.2583,-258.6906C7402.8844,-226.5301 7325.1892,-151.6598 7285.9997,-113.8951"/>
<polygon fill="#000000" stroke="#000000" points="7288.3292,-111.2793 7278.6997,-106.8606 7283.4719,-116.3199 7288.3292,-111.2793"/>
</g>
<!-- 27865 -->
<g id="node57" class="node">
<title>27865</title>
<ellipse fill="none" stroke="#000000" cx="7378.4222" cy="-21.1762" rx="32.4942" ry="18"/>
<text text-anchor="middle" x="7378.4222" y="-17.4762" font-family="Times,serif" font-size="14.00" fill="#000000">27865</text>
</g>
<!-- 5692&#45;&gt;27865 -->
<g id="edge32" class="edge">
<title>5692&#45;&gt;27865</title>
<path fill="none" stroke="#000000" d="M7446.9161,-256.1784C7434.265,-212.7725 7401.7211,-101.1146 7386.4983,-48.8853"/>
<polygon fill="#000000" stroke="#000000" points="7389.8541,-47.8908 7383.6957,-39.2697 7383.1338,-49.8496 7389.8541,-47.8908"/>
</g>
<!-- 28065 -->
<g id="node58" class="node">
<title>28065</title>
<ellipse fill="none" stroke="#000000" cx="7513.8391" cy="-18" rx="32.4942" ry="18"/>
<text text-anchor="middle" x="7513.8391" y="-14.3" font-family="Times,serif" font-size="14.00" fill="#000000">28065</text>
</g>
<!-- 5692&#45;&gt;28065 -->
<g id="edge33" class="edge">
<title>5692&#45;&gt;28065</title>
<path fill="none" stroke="#000000" d="M7456.4384,-255.955C7467.0441,-211.9888 7494.3321,-98.8662 7507.0839,-46.0036"/>
<polygon fill="#000000" stroke="#000000" points="7510.5596,-46.5202 7509.5023,-35.9782 7503.7548,-44.8786 7510.5596,-46.5202"/>
</g>
<!-- 52317 -->
<g id="node65" class="node">
<title>52317</title>
<ellipse fill="none" stroke="#000000" cx="7632.9148" cy="-82.5662" rx="32.4942" ry="18"/>
<text text-anchor="middle" x="7632.9148" y="-78.8662" font-family="Times,serif" font-size="14.00" fill="#000000">52317</text>
</g>
<!-- 5692&#45;&gt;52317 -->
<g id="edge34" class="edge">
<title>5692&#45;&gt;52317</title>
<path fill="none" stroke="#000000" d="M7466.8939,-258.2912C7498.6023,-224.7293 7573.2532,-145.7151 7610.6903,-106.0897"/>
<polygon fill="#000000" stroke="#000000" points="7613.3344,-108.3875 7617.6579,-98.715 7608.2462,-103.5803 7613.3344,-108.3875"/>
</g>
<!-- 52375 -->
<g id="node66" class="node">
<title>52375</title>
<ellipse fill="none" stroke="#000000" cx="7704.1339" cy="-197.7863" rx="32.4942" ry="18"/>
<text text-anchor="middle" x="7704.1339" y="-194.0863" font-family="Times,serif" font-size="14.00" fill="#000000">52375</text>
</g>
<!-- 5692&#45;&gt;52375 -->
<g id="edge35" class="edge">
<title>5692&#45;&gt;52375</title>
<path fill="none" stroke="#000000" d="M7478.1199,-266.0889C7522.6902,-252.6195 7613.8362,-225.0747 7665.7326,-209.3914"/>
<polygon fill="#000000" stroke="#000000" points="7667.0032,-212.6638 7675.5631,-206.4205 7664.9781,-205.9631 7667.0032,-212.6638"/>
</g>
<!-- 52376 -->
<g id="node67" class="node">
<title>52376</title>
<ellipse fill="none" stroke="#000000" cx="7708.6471" cy="-333.1652" rx="32.4942" ry="18"/>
<text text-anchor="middle" x="7708.6471" y="-329.4652" font-family="Times,serif" font-size="14.00" fill="#000000">52376</text>
</g>
<!-- 5692&#45;&gt;52376 -->
<g id="edge36" class="edge">
<title>5692&#45;&gt;52376</title>
<path fill="none" stroke="#000000" d="M7479.0672,-280.178C7524.2954,-290.6167 7615.6549,-311.7026 7668.4697,-323.8923"/>
<polygon fill="#000000" stroke="#000000" points="7667.9627,-327.3672 7678.4937,-326.2058 7669.537,-320.5465 7667.9627,-327.3672"/>
</g>
<!-- 52380 -->
<g id="node68" class="node">
<title>52380</title>
<ellipse fill="none" stroke="#000000" cx="7645.2597" cy="-452.8727" rx="32.4942" ry="18"/>
<text text-anchor="middle" x="7645.2597" y="-449.1727" font-family="Times,serif" font-size="14.00" fill="#000000">52380</text>
</g>
<!-- 5692&#45;&gt;52380 -->
<g id="edge37" class="edge">
<title>5692&#45;&gt;52380</title>
<path fill="none" stroke="#000000" d="M7468.2335,-288.9C7502.151,-320.3165 7580.9989,-393.3503 7621.0219,-430.4221"/>
<polygon fill="#000000" stroke="#000000" points="7618.7691,-433.1062 7628.484,-437.3339 7623.526,-427.9707 7618.7691,-433.1062"/>
</g>
<!-- 52413 -->
<g id="node69" class="node">
<title>52413</title>
<ellipse fill="none" stroke="#000000" cx="7530.7485" cy="-525.226" rx="32.4942" ry="18"/>
<text text-anchor="middle" x="7530.7485" y="-521.526" font-family="Times,serif" font-size="14.00" fill="#000000">52413</text>
</g>
<!-- 5692&#45;&gt;52413 -->
<g id="edge38" class="edge">
<title>5692&#45;&gt;52413</title>
<path fill="none" stroke="#000000" d="M7457.6274,-291.6222C7471.1332,-334.7698 7505.8756,-445.7633 7522.1268,-497.6818"/>
<polygon fill="#000000" stroke="#000000" points="7518.7912,-498.7423 7525.1187,-507.2402 7525.4716,-496.6512 7518.7912,-498.7423"/>
</g>
<!-- 52431 -->
<g id="node70" class="node">
<title>52431</title>
<ellipse fill="none" stroke="#000000" cx="7395.4207" cy="-531.0756" rx="32.4942" ry="18"/>
<text text-anchor="middle" x="7395.4207" y="-527.3756" font-family="Times,serif" font-size="14.00" fill="#000000">52431</text>
</g>
<!-- 5692&#45;&gt;52431 -->
<g id="edge39" class="edge">
<title>5692&#45;&gt;52431</title>
<path fill="none" stroke="#000000" d="M7448.1114,-292.0335C7438.3759,-336.2006 7413.327,-449.84 7401.6216,-502.9441"/>
<polygon fill="#000000" stroke="#000000" points="7398.1363,-502.4963 7399.4016,-513.0153 7404.9722,-504.0031 7398.1363,-502.4963"/>
</g>
<!-- 262230 -->
<g id="node71" class="node">
<title>262230</title>
<ellipse fill="none" stroke="#000000" cx="7271.7517" cy="-465.7859" rx="37.0935" ry="18"/>
<text text-anchor="middle" x="7271.7517" y="-462.0859" font-family="Times,serif" font-size="14.00" fill="#000000">262230</text>
</g>
<!-- 5692&#45;&gt;262230 -->
<g id="edge40" class="edge">
<title>5692&#45;&gt;262230</title>
<path fill="none" stroke="#000000" d="M7437.3384,-289.6516C7405.7917,-323.2077 7331.6284,-402.0952 7294.1981,-441.9097"/>
<polygon fill="#000000" stroke="#000000" points="7291.5248,-439.6434 7287.2253,-449.3267 7296.6249,-444.4381 7291.5248,-439.6434"/>
</g>
<!-- 264608 -->
<g id="node72" class="node">
<title>264608</title>
<ellipse fill="none" stroke="#000000" cx="7197.7455" cy="-341.9942" rx="37.0935" ry="18"/>
<text text-anchor="middle" x="7197.7455" y="-338.2942" font-family="Times,serif" font-size="14.00" fill="#000000">264608</text>
</g>
<!-- 5692&#45;&gt;264608 -->
<g id="edge41" class="edge">
<title>5692&#45;&gt;264608</title>
<path fill="none" stroke="#000000" d="M7425.3575,-281.1062C7381.2623,-292.902 7292.9391,-316.5292 7240.2209,-330.6317"/>
<polygon fill="#000000" stroke="#000000" points="7239.2488,-327.2686 7230.493,-333.234 7241.0578,-334.0308 7239.2488,-327.2686"/>
</g>
<!-- 6453&#45;&gt;3257 -->
<g id="edge42" class="edge">
<title>6453&#45;&gt;3257</title>
<path fill="none" stroke="#000000" d="M37337.7277,-15408.7513C37355.7498,-15408.7513 37379.2421,-15408.7513 37398.9838,-15408.7513"/>
<polygon fill="#000000" stroke="#000000" points="37399.211,-15412.2514 37409.2109,-15408.7513 37399.2109,-15405.2514 37399.211,-15412.2514"/>
</g>
<!-- 6461&#45;&gt;2497 -->
<g id="edge43" class="edge">
<title>6461&#45;&gt;2497</title>
<path fill="none" stroke="#000000" d="M68177.6739,-14764.3742C68224.1405,-14764.3742 68316.0236,-14764.3742 68368.4177,-14764.3742"/>
<polygon fill="#000000" stroke="#000000" points="68368.6565,-14767.8743 68378.6565,-14764.3742 68368.6565,-14760.8743 68368.6565,-14767.8743"/>
</g>
<!-- 6695 -->
<g id="node32" class="node">
<title>6695</title>
<ellipse fill="none" stroke="#000000" cx="10365.0497" cy="-25239.6091" rx="28.6953" ry="18"/>
<text text-anchor="middle" x="10365.0497" y="-25235.9091" font-family="Times,serif" font-size="14.00" fill="#000000">6695</text>
</g>
<!-- 6762&#45;&gt;2914 -->
<g id="edge44" class="edge">
<title>6762&#45;&gt;2914</title>
<path fill="none" stroke="#000000" d="M37079.3378,-15408.7513C37097.36,-15408.7513 37120.8522,-15408.7513 37140.5939,-15408.7513"/>
<polygon fill="#000000" stroke="#000000" points="37140.8211,-15412.2514 37150.8211,-15408.7513 37140.8211,-15405.2514 37140.8211,-15412.2514"/>
</g>
<!-- 6904 -->
<g id="node34" class="node">
<title>6904</title>
<ellipse fill="none" stroke="#000000" cx="7171.6952" cy="-30363.2365" rx="28.6953" ry="18"/>
<text text-anchor="middle" x="7171.6952" y="-30359.5365" font-family="Times,serif" font-size="14.00" fill="#000000">6904</text>
</g>
<!-- 6904&#45;&gt;2687 -->
<g id="edge45" class="edge">
<title>6904&#45;&gt;2687</title>
<path fill="none" stroke="#000000" d="M7196.5194,-30353.8167C7629.2402,-30189.618 13580.256,-27931.4667 14087.9418,-27738.8221"/>
<polygon fill="#000000" stroke="#000000" points="14089.54,-27741.9592 14097.6478,-27735.1391 14087.0565,-27735.4145 14089.54,-27741.9592"/>
</g>
<!-- 6939 -->
<g id="node35" class="node">
<title>6939</title>
<ellipse fill="none" stroke="#000000" cx="9677.5589" cy="-25228.3092" rx="28.6953" ry="18"/>
<text text-anchor="middle" x="9677.5589" y="-25224.6092" font-family="Times,serif" font-size="14.00" fill="#000000">6939</text>
</g>
<!-- 12266 -->
<g id="node52" class="node">
<title>12266</title>
<ellipse fill="none" stroke="#000000" cx="9553.7446" cy="-25277.1374" rx="32.4942" ry="18"/>
<text text-anchor="middle" x="9553.7446" y="-25273.4374" font-family="Times,serif" font-size="14.00" fill="#000000">12266</text>
</g>
<!-- 6939&#45;&gt;12266 -->
<g id="edge46" class="edge">
<title>6939&#45;&gt;12266</title>
<path fill="none" stroke="#000000" d="M9653.0972,-25237.9561C9635.0489,-25245.0737 9610.1992,-25254.8736 9589.8673,-25262.8918"/>
<polygon fill="#000000" stroke="#000000" points="9588.3174,-25259.7407 9580.2988,-25266.6654 9590.8856,-25266.2526 9588.3174,-25259.7407"/>
</g>
<!-- 7016 -->
<g id="node36" class="node">
<title>7016</title>
<ellipse fill="none" stroke="#000000" cx="3540.9352" cy="-36970.3772" rx="28.6953" ry="18"/>
<text text-anchor="middle" x="3540.9352" y="-36966.6772" font-family="Times,serif" font-size="14.00" fill="#000000">7016</text>
</g>
<!-- 7922 -->
<g id="node41" class="node">
<title>7922</title>
<ellipse fill="none" stroke="#000000" cx="3480.0335" cy="-37084.3172" rx="28.6953" ry="18"/>
<text text-anchor="middle" x="3480.0335" y="-37080.6172" font-family="Times,serif" font-size="14.00" fill="#000000">7922</text>
</g>
<!-- 7016&#45;&gt;7922 -->
<g id="edge47" class="edge">
<title>7016&#45;&gt;7922</title>
<path fill="none" stroke="#000000" d="M3531.6856,-36987.6822C3521.6564,-37006.4457 3505.5359,-37036.6052 3493.9711,-37058.2417"/>
<polygon fill="#000000" stroke="#000000" points="3490.798,-37056.7535 3489.1707,-37067.2226 3496.9714,-37060.0533 3490.798,-37056.7535"/>
</g>
<!-- 7473 -->
<g id="node38" class="node">
<title>7473</title>
<ellipse fill="none" stroke="#000000" cx="14088.0327" cy="-31507.3345" rx="28.6953" ry="18"/>
<text text-anchor="middle" x="14088.0327" y="-31503.6345" font-family="Times,serif" font-size="14.00" fill="#000000">7473</text>
</g>
<!-- 7474 -->
<g id="node39" class="node">
<title>7474</title>
<ellipse fill="none" stroke="#000000" cx="13360.6956" cy="-25366.0893" rx="28.6953" ry="18"/>
<text text-anchor="middle" x="13360.6956" y="-25362.3893" font-family="Times,serif" font-size="14.00" fill="#000000">7474</text>
</g>
<!-- 7545&#45;&gt;4635 -->
<g id="edge48" class="edge">
<title>7545&#45;&gt;4635</title>
<path fill="none" stroke="#000000" d="M9919.5646,-25119.2372C9952.4261,-25055.873 10067.2002,-24834.5635 10106.9632,-24757.8917"/>
<polygon fill="#000000" stroke="#000000" points="10110.1444,-24759.36 10111.6412,-24748.8714 10103.9303,-24756.1373 10110.1444,-24759.36"/>
</g>
<!-- 7545&#45;&gt;4739 -->
<g id="edge49" class="edge">
<title>7545&#45;&gt;4739</title>
<path fill="none" stroke="#000000" d="M9930.0786,-25149.9797C9946.5556,-25161.5329 9970.3988,-25178.2511 9988.8626,-25191.1975"/>
<polygon fill="#000000" stroke="#000000" points="9986.9824,-25194.1538 9997.1797,-25197.0291 9991.0012,-25188.4223 9986.9824,-25194.1538"/>
</g>
<!-- 7545&#45;&gt;6939 -->
<g id="edge50" class="edge">
<title>7545&#45;&gt;6939</title>
<path fill="none" stroke="#000000" d="M9886.1694,-25146.0402C9844.3704,-25162.5243 9759.2097,-25196.1089 9711.6388,-25214.8692"/>
<polygon fill="#000000" stroke="#000000" points="9710.1061,-25211.7113 9702.0874,-25218.636 9712.6742,-25218.2232 9710.1061,-25211.7113"/>
</g>
<!-- 9942 -->
<g id="node47" class="node">
<title>9942</title>
<ellipse fill="none" stroke="#000000" cx="9688.535" cy="-24738.0491" rx="28.6953" ry="18"/>
<text text-anchor="middle" x="9688.535" y="-24734.3491" font-family="Times,serif" font-size="14.00" fill="#000000">9942</text>
</g>
<!-- 7545&#45;&gt;9942 -->
<g id="edge51" class="edge">
<title>7545&#45;&gt;9942</title>
<path fill="none" stroke="#000000" d="M9901.1313,-25119.2599C9866.1697,-25056.5694 9744.966,-24839.2366 9702.9836,-24763.9572"/>
<polygon fill="#000000" stroke="#000000" points="9705.9721,-24762.1299 9698.0446,-24755.1009 9699.8585,-24765.5394 9705.9721,-24762.1299"/>
</g>
<!-- 9002 -->
<g id="node42" class="node">
<title>9002</title>
<ellipse fill="none" stroke="#000000" cx="10515.17" cy="-25520.9577" rx="28.6953" ry="18"/>
<text text-anchor="middle" x="10515.17" y="-25517.2577" font-family="Times,serif" font-size="14.00" fill="#000000">9002</text>
</g>
<!-- 9443 -->
<g id="node43" class="node">
<title>9443</title>
<ellipse fill="none" stroke="#000000" cx="10219.574" cy="-25497.9556" rx="28.6953" ry="18"/>
<text text-anchor="middle" x="10219.574" y="-25494.2556" font-family="Times,serif" font-size="14.00" fill="#000000">9443</text>
</g>
<!-- 9443&#45;&gt;4826 -->
<g id="edge52" class="edge">
<title>9443&#45;&gt;4826</title>
<path fill="none" stroke="#000000" d="M10197.5967,-25509.6821C10180.2511,-25518.9373 10155.8404,-25531.9622 10136.5213,-25542.2704"/>
<polygon fill="#000000" stroke="#000000" points="10134.6747,-25539.2886 10127.4997,-25547.0841 10137.97,-25545.4644 10134.6747,-25539.2886"/>
</g>
<!-- 10026 -->
<g id="node48" class="node">
<title>10026</title>
<ellipse fill="none" stroke="#000000" cx="11852.282" cy="-26726.303" rx="32.4942" ry="18"/>
<text text-anchor="middle" x="11852.282" y="-26722.603" font-family="Times,serif" font-size="14.00" fill="#000000">10026</text>
</g>
<!-- 9498&#45;&gt;10026 -->
<g id="edge53" class="edge">
<title>9498&#45;&gt;10026</title>
<path fill="none" stroke="#000000" d="M11835.663,-26612.6441C11838.8859,-26634.6856 11844.3762,-26672.2345 11848.159,-26698.1056"/>
<polygon fill="#000000" stroke="#000000" points="11844.7049,-26698.6744 11849.615,-26708.0628 11851.6313,-26697.6616 11844.7049,-26698.6744"/>
</g>
<!-- 9505&#45;&gt;7473 -->
<g id="edge54" class="edge">
<title>9505&#45;&gt;7473</title>
<path fill="none" stroke="#000000" d="M14089.0415,-31396.3806C14088.8456,-31417.9247 14088.5175,-31454.0106 14088.2889,-31479.1581"/>
<polygon fill="#000000" stroke="#000000" points="14084.7888,-31479.1601 14088.1977,-31489.1916 14091.7885,-31479.2238 14084.7888,-31479.1601"/>
</g>
<!-- 10026&#45;&gt;4755 -->
<g id="edge55" class="edge">
<title>10026&#45;&gt;4755</title>
<path fill="none" stroke="#000000" d="M11854.9191,-26744.3383C11858.142,-26766.3799 11863.6323,-26803.9287 11867.4151,-26829.7998"/>
<polygon fill="#000000" stroke="#000000" points="11863.961,-26830.3686 11868.871,-26839.757 11870.8873,-26829.3558 11863.961,-26830.3686"/>
</g>
<!-- 12956 -->
<g id="node53" class="node">
<title>12956</title>
<ellipse fill="none" stroke="#000000" cx="7047.2581" cy="-1083.6304" rx="32.4942" ry="18"/>
<text text-anchor="middle" x="7047.2581" y="-1079.9304" font-family="Times,serif" font-size="14.00" fill="#000000">12956</text>
</g>
<!-- 10834&#45;&gt;12956 -->
<g id="edge56" class="edge">
<title>10834&#45;&gt;12956</title>
<path fill="none" stroke="#000000" d="M7047.2581,-291.9997C7047.2581,-396.7467 7047.2581,-926.385 7047.2581,-1055.3092"/>
<polygon fill="#000000" stroke="#000000" points="7043.7582,-1055.5403 7047.2581,-1065.5404 7050.7582,-1055.5404 7043.7582,-1055.5403"/>
</g>
<!-- 22927 -->
<g id="node56" class="node">
<title>22927</title>
<ellipse fill="none" stroke="#000000" cx="6642.4195" cy="-273.9532" rx="32.4942" ry="18"/>
<text text-anchor="middle" x="6642.4195" y="-270.2532" font-family="Times,serif" font-size="14.00" fill="#000000">22927</text>
</g>
<!-- 10834&#45;&gt;22927 -->
<g id="edge57" class="edge">
<title>10834&#45;&gt;22927</title>
<path fill="none" stroke="#000000" d="M7014.4714,-273.9532C6941.6908,-273.9532 6766.6645,-273.9532 6685.3198,-273.9532"/>
<polygon fill="#000000" stroke="#000000" points="6684.9474,-270.4533 6674.9474,-273.9532 6684.9474,-277.4533 6684.9474,-270.4533"/>
</g>
<!-- 12189 -->
<g id="node51" class="node">
<title>12189</title>
<ellipse fill="none" stroke="#000000" cx="9298.8606" cy="-25377.6551" rx="32.4942" ry="18"/>
<text text-anchor="middle" x="9298.8606" y="-25373.9551" font-family="Times,serif" font-size="14.00" fill="#000000">12189</text>
</g>
<!-- 20454 -->
<g id="node55" class="node">
<title>20454</title>
<ellipse fill="none" stroke="#000000" cx="9426.3026" cy="-25327.3963" rx="32.4942" ry="18"/>
<text text-anchor="middle" x="9426.3026" y="-25323.6963" font-family="Times,serif" font-size="14.00" fill="#000000">20454</text>
</g>
<!-- 12266&#45;&gt;20454 -->
<g id="edge58" class="edge">
<title>12266&#45;&gt;20454</title>
<path fill="none" stroke="#000000" d="M9527.0286,-25287.6733C9508.2517,-25295.0783 9482.9144,-25305.0705 9462.3498,-25313.1805"/>
<polygon fill="#000000" stroke="#000000" points="9461.0021,-25309.9495 9452.9834,-25316.8742 9463.5702,-25316.4615 9461.0021,-25309.9495"/>
</g>
<!-- 12956&#45;&gt;3356 -->
<g id="edge59" class="edge">
<title>12956&#45;&gt;3356</title>
<path fill="none" stroke="#000000" d="M7047.2581,-1101.8575C7047.2581,-1124.2586 7047.2581,-1162.5085 7047.2581,-1188.6673"/>
<polygon fill="#000000" stroke="#000000" points="7043.7582,-1188.7179 7047.2581,-1198.7179 7050.7582,-1188.718 7043.7582,-1188.7179"/>
</g>
<!-- 18540 -->
<g id="node54" class="node">
<title>18540</title>
<ellipse fill="none" stroke="#000000" cx="32.4971" cy="-27748.6586" rx="32.4942" ry="18"/>
<text text-anchor="middle" x="32.4971" y="-27744.9586" font-family="Times,serif" font-size="14.00" fill="#000000">18540</text>
</g>
<!-- 20454&#45;&gt;12189 -->
<g id="edge60" class="edge">
<title>20454&#45;&gt;12189</title>
<path fill="none" stroke="#000000" d="M9399.5866,-25337.9322C9380.8097,-25345.3371 9355.4724,-25355.3293 9334.9078,-25363.4393"/>
<polygon fill="#000000" stroke="#000000" points="9333.5601,-25360.2084 9325.5414,-25367.1331 9336.1282,-25366.7203 9333.5601,-25360.2084"/>
</g>
<!-- 30070&#45;&gt;6904 -->
<g id="edge61" class="edge">
<title>30070&#45;&gt;6904</title>
<path fill="none" stroke="#000000" d="M7074.2591,-30400.2092C7092.7262,-30393.2018 7117.3652,-30383.8524 7137.2454,-30376.3086"/>
<polygon fill="#000000" stroke="#000000" points="7138.7538,-30379.4799 7146.8616,-30372.6598 7136.2703,-30372.9352 7138.7538,-30379.4799"/>
</g>
<!-- 30070&#45;&gt;7016 -->
<g id="edge62" class="edge">
<title>30070&#45;&gt;7016</title>
<path fill="none" stroke="#000000" d="M7037.9625,-30427.846C6847.3833,-30784.3975 3787.7929,-36508.5353 3554.9454,-36944.1657"/>
<polygon fill="#000000" stroke="#000000" points="3551.7413,-36942.7356 3550.114,-36953.2048 3557.9147,-36946.0354 3551.7413,-36942.7356"/>
</g>
<!-- 30070&#45;&gt;18540 -->
<g id="edge63" class="edge">
<title>30070&#45;&gt;18540</title>
<path fill="none" stroke="#000000" d="M7020.445,-30400.2805C6570.1849,-30229.4264 593.5575,-27961.5565 69.1815,-27762.5787"/>
<polygon fill="#000000" stroke="#000000" points="70.0576,-27759.1677 59.4664,-27758.8922 67.5742,-27765.7124 70.0576,-27759.1677"/>
</g>
<!-- 32787&#45;&gt;703 -->
<g id="edge64" class="edge">
<title>32787&#45;&gt;703</title>
<path fill="none" stroke="#000000" d="M11590.668,-24937.0999C11613.8996,-25095.9833 11782.0092,-26245.7006 11810.4753,-26440.3829"/>
<polygon fill="#000000" stroke="#000000" points="11807.0281,-26440.999 11811.9381,-26450.3874 11813.9544,-26439.9862 11807.0281,-26440.999"/>
</g>
<!-- 32787&#45;&gt;2764 -->
<g id="edge65" class="edge">
<title>32787&#45;&gt;2764</title>
<path fill="none" stroke="#000000" d="M11561.7812,-24908.1213C11367.1106,-24828.1676 10148.4287,-24327.6395 9930.269,-24238.0385"/>
<polygon fill="#000000" stroke="#000000" points="9931.5064,-24234.7631 9920.9265,-24234.2014 9928.847,-24241.2383 9931.5064,-24234.7631"/>
</g>
<!-- 32787&#45;&gt;4637 -->
<g id="edge66" class="edge">
<title>32787&#45;&gt;4637</title>
<path fill="none" stroke="#000000" d="M11603.8306,-24902.9596C11738.5997,-24767.2743 12692.5841,-23806.8052 12853.3851,-23644.9111"/>
<polygon fill="#000000" stroke="#000000" points="12856.2792,-23646.964 12860.843,-23637.4025 12851.3126,-23642.031 12856.2792,-23646.964"/>
</g>
<!-- 32787&#45;&gt;7474 -->
<g id="edge67" class="edge">
<title>32787&#45;&gt;7474</title>
<path fill="none" stroke="#000000" d="M11617.6616,-24926.3733C11827.9297,-24979.4178 13091.883,-25298.2758 13324.0647,-25356.8484"/>
<polygon fill="#000000" stroke="#000000" points="13323.4791,-25360.3102 13334.0314,-25359.3627 13325.1914,-25353.5229 13323.4791,-25360.3102"/>
</g>
<!-- 38333&#45;&gt;1221 -->
<g id="edge68" class="edge">
<title>38333&#45;&gt;1221</title>
<path fill="none" stroke="#000000" d="M9301.5749,-23590.483C9286.8471,-23574.8015 9264.2459,-23550.7367 9247.5025,-23532.909"/>
<polygon fill="#000000" stroke="#000000" points="9249.6683,-23530.1025 9240.2711,-23525.2093 9244.5658,-23534.8947 9249.6683,-23530.1025"/>
</g>
<!-- 38880&#45;&gt;6695 -->
<g id="edge69" class="edge">
<title>38880&#45;&gt;6695</title>
<path fill="none" stroke="#000000" d="M10339.5873,-25417.2414C10344.4928,-25383.0195 10355.1737,-25308.5066 10361.0226,-25267.7033"/>
<polygon fill="#000000" stroke="#000000" points="10364.5128,-25268.0204 10362.4673,-25257.6249 10357.5837,-25267.027 10364.5128,-25268.0204"/>
</g>
<!-- 38880&#45;&gt;9002 -->
<g id="edge70" class="edge">
<title>38880&#45;&gt;9002</title>
<path fill="none" stroke="#000000" d="M10361.7726,-25447.2111C10393.4118,-25462.4218 10448.2249,-25488.7735 10483.0441,-25505.513"/>
<polygon fill="#000000" stroke="#000000" points="10481.7697,-25508.7837 10492.2988,-25509.9622 10484.8027,-25502.4749 10481.7697,-25508.7837"/>
</g>
<!-- 38880&#45;&gt;9443 -->
<g id="edge71" class="edge">
<title>38880&#45;&gt;9443</title>
<path fill="none" stroke="#000000" d="M10313.5182,-25447.8294C10295.3758,-25457.5097 10270.1112,-25470.9903 10250.3512,-25481.5337"/>
<polygon fill="#000000" stroke="#000000" points="10248.6023,-25478.4997 10241.4273,-25486.2953 10251.8976,-25484.6756 10248.6023,-25478.4997"/>
</g>
</g>
</svg>
