<?xml version="1.0" encoding="UTF-8" standalone="no"?>
<!DOCTYPE svg PUBLIC "-//W3C//DTD SVG 1.1//EN"
 "http://www.w3.org/Graphics/SVG/1.1/DTD/svg11.dtd">
<!-- Generated by graphviz version 2.40.1 (20161225.0304)
 -->
<!-- Title: %3 Pages: 1 -->
<svg width="1822pt" height="980pt"
 viewBox="0.00 0.00 1822.05 980.00" xmlns="http://www.w3.org/2000/svg" xmlns:xlink="http://www.w3.org/1999/xlink">
<g id="graph0" class="graph" transform="scale(1 1) rotate(0) translate(4 976)">
<title>%3</title>
<polygon fill="#ffffff" stroke="transparent" points="-4,4 -4,-976 1818.0467,-976 1818.0467,4 -4,4"/>
<!-- 174 -->
<g id="node1" class="node">
<title>174</title>
<ellipse fill="none" stroke="#000000" cx="550" cy="-234" rx="27" ry="18"/>
<text text-anchor="middle" x="550" y="-230.3" font-family="Times,serif" font-size="14.00" fill="#000000">174</text>
</g>
<!-- 209 -->
<g id="node2" class="node">
<title>209</title>
<ellipse fill="none" stroke="#000000" cx="459" cy="-162" rx="27" ry="18"/>
<text text-anchor="middle" x="459" y="-158.3" font-family="Times,serif" font-size="14.00" fill="#000000">209</text>
</g>
<!-- 174&#45;&gt;209 -->
<g id="edge1" class="edge">
<title>174&#45;&gt;209</title>
<path fill="none" stroke="#000000" d="M532.4543,-220.1177C518.8581,-209.3602 499.8247,-194.3009 484.5396,-182.2072"/>
<polygon fill="#000000" stroke="#000000" points="486.5058,-179.2998 476.4919,-175.8397 482.1624,-184.7893 486.5058,-179.2998"/>
</g>
<!-- 1299 -->
<g id="node8" class="node">
<title>1299</title>
<ellipse fill="none" stroke="#000000" cx="326" cy="-90" rx="28.6953" ry="18"/>
<text text-anchor="middle" x="326" y="-86.3" font-family="Times,serif" font-size="14.00" fill="#000000">1299</text>
</g>
<!-- 209&#45;&gt;1299 -->
<g id="edge2" class="edge">
<title>209&#45;&gt;1299</title>
<path fill="none" stroke="#000000" d="M437.9258,-150.5914C416.1028,-138.7774 381.7777,-120.1954 356.8903,-106.7226"/>
<polygon fill="#000000" stroke="#000000" points="358.3202,-103.5167 347.8598,-101.8339 354.9876,-109.6726 358.3202,-103.5167"/>
</g>
<!-- 2828 -->
<g id="node14" class="node">
<title>2828</title>
<ellipse fill="none" stroke="#000000" cx="459" cy="-90" rx="28.6953" ry="18"/>
<text text-anchor="middle" x="459" y="-86.3" font-family="Times,serif" font-size="14.00" fill="#000000">2828</text>
</g>
<!-- 209&#45;&gt;2828 -->
<g id="edge3" class="edge">
<title>209&#45;&gt;2828</title>
<path fill="none" stroke="#000000" d="M459,-143.8314C459,-136.131 459,-126.9743 459,-118.4166"/>
<polygon fill="#000000" stroke="#000000" points="462.5001,-118.4132 459,-108.4133 455.5001,-118.4133 462.5001,-118.4132"/>
</g>
<!-- 701 -->
<g id="node3" class="node">
<title>701</title>
<ellipse fill="none" stroke="#000000" cx="27" cy="-18" rx="27" ry="18"/>
<text text-anchor="middle" x="27" y="-14.3" font-family="Times,serif" font-size="14.00" fill="#000000">701</text>
</g>
<!-- 703 -->
<g id="node4" class="node">
<title>703</title>
<ellipse fill="none" stroke="#000000" cx="652" cy="-234" rx="27" ry="18"/>
<text text-anchor="middle" x="652" y="-230.3" font-family="Times,serif" font-size="14.00" fill="#000000">703</text>
</g>
<!-- 9498 -->
<g id="node40" class="node">
<title>9498</title>
<ellipse fill="none" stroke="#000000" cx="612" cy="-162" rx="28.6953" ry="18"/>
<text text-anchor="middle" x="612" y="-158.3" font-family="Times,serif" font-size="14.00" fill="#000000">9498</text>
</g>
<!-- 703&#45;&gt;9498 -->
<g id="edge4" class="edge">
<title>703&#45;&gt;9498</title>
<path fill="none" stroke="#000000" d="M642.5206,-216.937C637.7585,-208.3654 631.8841,-197.7914 626.5647,-188.2165"/>
<polygon fill="#000000" stroke="#000000" points="629.6053,-186.4825 621.6893,-179.4407 623.4862,-189.882 629.6053,-186.4825"/>
</g>
<!-- 1221 -->
<g id="node5" class="node">
<title>1221</title>
<ellipse fill="none" stroke="#000000" cx="971" cy="-90" rx="28.6953" ry="18"/>
<text text-anchor="middle" x="971" y="-86.3" font-family="Times,serif" font-size="14.00" fill="#000000">1221</text>
</g>
<!-- 1239 -->
<g id="node6" class="node">
<title>1239</title>
<ellipse fill="none" stroke="#000000" cx="101" cy="-18" rx="28.6953" ry="18"/>
<text text-anchor="middle" x="101" y="-14.3" font-family="Times,serif" font-size="14.00" fill="#000000">1239</text>
</g>
<!-- 1273 -->
<g id="node7" class="node">
<title>1273</title>
<ellipse fill="none" stroke="#000000" cx="176" cy="-18" rx="28.6953" ry="18"/>
<text text-anchor="middle" x="176" y="-14.3" font-family="Times,serif" font-size="14.00" fill="#000000">1273</text>
</g>
<!-- 1299&#45;&gt;701 -->
<g id="edge5" class="edge">
<title>1299&#45;&gt;701</title>
<path fill="none" stroke="#000000" d="M297.7183,-86.6585C248.833,-80.3435 145.8148,-64.6513 63,-36 61.118,-35.3489 59.2088,-34.6196 57.3018,-33.8377"/>
<polygon fill="#000000" stroke="#000000" points="58.4765,-30.5281 47.9217,-29.6074 55.5986,-36.9091 58.4765,-30.5281"/>
</g>
<!-- 1299&#45;&gt;1239 -->
<g id="edge6" class="edge">
<title>1299&#45;&gt;1239</title>
<path fill="none" stroke="#000000" d="M299.0598,-83.8212C262.1226,-74.9998 193.9619,-57.4639 138,-36 136.1492,-35.2901 134.2648,-34.5226 132.376,-33.7184"/>
<polygon fill="#000000" stroke="#000000" points="133.5822,-30.4225 123.0287,-29.4871 130.6954,-36.7996 133.5822,-30.4225"/>
</g>
<!-- 1299&#45;&gt;1273 -->
<g id="edge7" class="edge">
<title>1299&#45;&gt;1273</title>
<path fill="none" stroke="#000000" d="M303.0366,-79.084C280.1892,-68.2095 244.1404,-51.0151 213,-36 211.4075,-35.2321 209.777,-34.4445 208.1309,-33.6481"/>
<polygon fill="#000000" stroke="#000000" points="209.211,-30.282 198.686,-29.0674 206.1564,-36.5804 209.211,-30.282"/>
</g>
<!-- 2497 -->
<g id="node9" class="node">
<title>2497</title>
<ellipse fill="none" stroke="#000000" cx="251" cy="-18" rx="28.6953" ry="18"/>
<text text-anchor="middle" x="251" y="-14.3" font-family="Times,serif" font-size="14.00" fill="#000000">2497</text>
</g>
<!-- 1299&#45;&gt;2497 -->
<g id="edge8" class="edge">
<title>1299&#45;&gt;2497</title>
<path fill="none" stroke="#000000" d="M310.0944,-74.7307C299.6537,-64.7075 285.8251,-51.4321 274.1702,-40.2434"/>
<polygon fill="#000000" stroke="#000000" points="276.5204,-37.6478 266.8826,-33.2473 271.6727,-42.6976 276.5204,-37.6478"/>
</g>
<!-- 3320 -->
<g id="node17" class="node">
<title>3320</title>
<ellipse fill="none" stroke="#000000" cx="326" cy="-18" rx="28.6953" ry="18"/>
<text text-anchor="middle" x="326" y="-14.3" font-family="Times,serif" font-size="14.00" fill="#000000">3320</text>
</g>
<!-- 1299&#45;&gt;3320 -->
<g id="edge9" class="edge">
<title>1299&#45;&gt;3320</title>
<path fill="none" stroke="#000000" d="M326,-71.8314C326,-64.131 326,-54.9743 326,-46.4166"/>
<polygon fill="#000000" stroke="#000000" points="329.5001,-46.4132 326,-36.4133 322.5001,-46.4133 329.5001,-46.4132"/>
</g>
<!-- 5511 -->
<g id="node27" class="node">
<title>5511</title>
<ellipse fill="none" stroke="#000000" cx="401" cy="-18" rx="28.6953" ry="18"/>
<text text-anchor="middle" x="401" y="-14.3" font-family="Times,serif" font-size="14.00" fill="#000000">5511</text>
</g>
<!-- 1299&#45;&gt;5511 -->
<g id="edge10" class="edge">
<title>1299&#45;&gt;5511</title>
<path fill="none" stroke="#000000" d="M341.9056,-74.7307C352.3463,-64.7075 366.1749,-51.4321 377.8298,-40.2434"/>
<polygon fill="#000000" stroke="#000000" points="380.3273,-42.6976 385.1174,-33.2473 375.4796,-37.6478 380.3273,-42.6976"/>
</g>
<!-- 6461 -->
<g id="node30" class="node">
<title>6461</title>
<ellipse fill="none" stroke="#000000" cx="476" cy="-18" rx="28.6953" ry="18"/>
<text text-anchor="middle" x="476" y="-14.3" font-family="Times,serif" font-size="14.00" fill="#000000">6461</text>
</g>
<!-- 1299&#45;&gt;6461 -->
<g id="edge11" class="edge">
<title>1299&#45;&gt;6461</title>
<path fill="none" stroke="#000000" d="M348.9634,-79.084C371.8108,-68.2095 407.8596,-51.0151 439,-36 440.5925,-35.2321 442.223,-34.4445 443.8691,-33.6481"/>
<polygon fill="#000000" stroke="#000000" points="445.8436,-36.5804 453.314,-29.0674 442.789,-30.282 445.8436,-36.5804"/>
</g>
<!-- 7018 -->
<g id="node35" class="node">
<title>7018</title>
<ellipse fill="none" stroke="#000000" cx="551" cy="-18" rx="28.6953" ry="18"/>
<text text-anchor="middle" x="551" y="-14.3" font-family="Times,serif" font-size="14.00" fill="#000000">7018</text>
</g>
<!-- 1299&#45;&gt;7018 -->
<g id="edge12" class="edge">
<title>1299&#45;&gt;7018</title>
<path fill="none" stroke="#000000" d="M352.9402,-83.8212C389.8774,-74.9998 458.0381,-57.4639 514,-36 515.8508,-35.2901 517.7352,-34.5226 519.624,-33.7184"/>
<polygon fill="#000000" stroke="#000000" points="521.3046,-36.7996 528.9713,-29.4871 518.4178,-30.4225 521.3046,-36.7996"/>
</g>
<!-- 2516 -->
<g id="node10" class="node">
<title>2516</title>
<ellipse fill="none" stroke="#000000" cx="783" cy="-378" rx="28.6953" ry="18"/>
<text text-anchor="middle" x="783" y="-374.3" font-family="Times,serif" font-size="14.00" fill="#000000">2516</text>
</g>
<!-- 32787 -->
<g id="node53" class="node">
<title>32787</title>
<ellipse fill="none" stroke="#000000" cx="783" cy="-306" rx="32.4942" ry="18"/>
<text text-anchor="middle" x="783" y="-302.3" font-family="Times,serif" font-size="14.00" fill="#000000">32787</text>
</g>
<!-- 2516&#45;&gt;32787 -->
<g id="edge13" class="edge">
<title>2516&#45;&gt;32787</title>
<path fill="none" stroke="#000000" d="M783,-359.8314C783,-352.131 783,-342.9743 783,-334.4166"/>
<polygon fill="#000000" stroke="#000000" points="786.5001,-334.4132 783,-324.4133 779.5001,-334.4133 786.5001,-334.4132"/>
</g>
<!-- 2686 -->
<g id="node11" class="node">
<title>2686</title>
<ellipse fill="none" stroke="#000000" cx="860" cy="-378" rx="28.6953" ry="18"/>
<text text-anchor="middle" x="860" y="-374.3" font-family="Times,serif" font-size="14.00" fill="#000000">2686</text>
</g>
<!-- 3741 -->
<g id="node22" class="node">
<title>3741</title>
<ellipse fill="none" stroke="#000000" cx="862" cy="-306" rx="28.6953" ry="18"/>
<text text-anchor="middle" x="862" y="-302.3" font-family="Times,serif" font-size="14.00" fill="#000000">3741</text>
</g>
<!-- 2686&#45;&gt;3741 -->
<g id="edge14" class="edge">
<title>2686&#45;&gt;3741</title>
<path fill="none" stroke="#000000" d="M860.5047,-359.8314C860.7186,-352.131 860.9729,-342.9743 861.2106,-334.4166"/>
<polygon fill="#000000" stroke="#000000" points="864.7094,-334.5066 861.4885,-324.4133 857.7121,-334.3122 864.7094,-334.5066"/>
</g>
<!-- 2687 -->
<g id="node12" class="node">
<title>2687</title>
<ellipse fill="none" stroke="#000000" cx="821" cy="-450" rx="28.6953" ry="18"/>
<text text-anchor="middle" x="821" y="-446.3" font-family="Times,serif" font-size="14.00" fill="#000000">2687</text>
</g>
<!-- 2687&#45;&gt;2516 -->
<g id="edge15" class="edge">
<title>2687&#45;&gt;2516</title>
<path fill="none" stroke="#000000" d="M811.8013,-432.5708C807.3203,-424.0807 801.8379,-413.6929 796.8634,-404.2674"/>
<polygon fill="#000000" stroke="#000000" points="799.877,-402.4789 792.114,-395.2687 793.6863,-405.7462 799.877,-402.4789"/>
</g>
<!-- 2687&#45;&gt;2686 -->
<g id="edge16" class="edge">
<title>2687&#45;&gt;2686</title>
<path fill="none" stroke="#000000" d="M830.2425,-432.937C834.8376,-424.4537 840.495,-414.0092 845.6388,-404.513"/>
<polygon fill="#000000" stroke="#000000" points="848.8676,-405.9006 850.553,-395.4407 842.7126,-402.5666 848.8676,-405.9006"/>
</g>
<!-- 9505 -->
<g id="node41" class="node">
<title>9505</title>
<ellipse fill="none" stroke="#000000" cx="936" cy="-378" rx="28.6953" ry="18"/>
<text text-anchor="middle" x="936" y="-374.3" font-family="Times,serif" font-size="14.00" fill="#000000">9505</text>
</g>
<!-- 2687&#45;&gt;9505 -->
<g id="edge17" class="edge">
<title>2687&#45;&gt;9505</title>
<path fill="none" stroke="#000000" d="M841.295,-437.2936C859.4937,-425.8996 886.4062,-409.05 906.8958,-396.2217"/>
<polygon fill="#000000" stroke="#000000" points="908.9026,-399.0948 915.5211,-390.8216 905.1879,-393.1617 908.9026,-399.0948"/>
</g>
<!-- 2764 -->
<g id="node13" class="node">
<title>2764</title>
<ellipse fill="none" stroke="#000000" cx="746" cy="-234" rx="28.6953" ry="18"/>
<text text-anchor="middle" x="746" y="-230.3" font-family="Times,serif" font-size="14.00" fill="#000000">2764</text>
</g>
<!-- 7545 -->
<g id="node38" class="node">
<title>7545</title>
<ellipse fill="none" stroke="#000000" cx="746" cy="-162" rx="28.6953" ry="18"/>
<text text-anchor="middle" x="746" y="-158.3" font-family="Times,serif" font-size="14.00" fill="#000000">7545</text>
</g>
<!-- 2764&#45;&gt;7545 -->
<g id="edge18" class="edge">
<title>2764&#45;&gt;7545</title>
<path fill="none" stroke="#000000" d="M746,-215.8314C746,-208.131 746,-198.9743 746,-190.4166"/>
<polygon fill="#000000" stroke="#000000" points="749.5001,-190.4132 746,-180.4133 742.5001,-190.4133 749.5001,-190.4132"/>
</g>
<!-- 38333 -->
<g id="node55" class="node">
<title>38333</title>
<ellipse fill="none" stroke="#000000" cx="825" cy="-162" rx="32.4942" ry="18"/>
<text text-anchor="middle" x="825" y="-158.3" font-family="Times,serif" font-size="14.00" fill="#000000">38333</text>
</g>
<!-- 2764&#45;&gt;38333 -->
<g id="edge19" class="edge">
<title>2764&#45;&gt;38333</title>
<path fill="none" stroke="#000000" d="M762.3689,-219.0816C773.3426,-209.0801 787.9941,-195.7269 800.3669,-184.4504"/>
<polygon fill="#000000" stroke="#000000" points="803.0737,-186.719 808.107,-177.3961 798.3585,-181.5453 803.0737,-186.719"/>
</g>
<!-- 38561 -->
<g id="node56" class="node">
<title>38561</title>
<ellipse fill="none" stroke="#000000" cx="908" cy="-162" rx="32.4942" ry="18"/>
<text text-anchor="middle" x="908" y="-158.3" font-family="Times,serif" font-size="14.00" fill="#000000">38561</text>
</g>
<!-- 2764&#45;&gt;38561 -->
<g id="edge20" class="edge">
<title>2764&#45;&gt;38561</title>
<path fill="none" stroke="#000000" d="M768.6216,-222.7955C773.3537,-220.5078 778.3256,-218.1454 783,-216 791.6285,-212.0398 838.6492,-191.7862 872.4814,-177.2472"/>
<polygon fill="#000000" stroke="#000000" points="874.2589,-180.293 882.0653,-173.1298 871.4957,-173.8614 874.2589,-180.293"/>
</g>
<!-- 2914 -->
<g id="node15" class="node">
<title>2914</title>
<ellipse fill="none" stroke="#000000" cx="735" cy="-522" rx="28.6953" ry="18"/>
<text text-anchor="middle" x="735" y="-518.3" font-family="Times,serif" font-size="14.00" fill="#000000">2914</text>
</g>
<!-- 6453 -->
<g id="node29" class="node">
<title>6453</title>
<ellipse fill="none" stroke="#000000" cx="723" cy="-450" rx="28.6953" ry="18"/>
<text text-anchor="middle" x="723" y="-446.3" font-family="Times,serif" font-size="14.00" fill="#000000">6453</text>
</g>
<!-- 2914&#45;&gt;6453 -->
<g id="edge21" class="edge">
<title>2914&#45;&gt;6453</title>
<path fill="none" stroke="#000000" d="M731.9719,-503.8314C730.6687,-496.0125 729.1154,-486.6923 727.6703,-478.0221"/>
<polygon fill="#000000" stroke="#000000" points="731.082,-477.2019 725.9856,-467.9134 724.1773,-478.3528 731.082,-477.2019"/>
</g>
<!-- 3257 -->
<g id="node16" class="node">
<title>3257</title>
<ellipse fill="none" stroke="#000000" cx="662" cy="-378" rx="28.6953" ry="18"/>
<text text-anchor="middle" x="662" y="-374.3" font-family="Times,serif" font-size="14.00" fill="#000000">3257</text>
</g>
<!-- 3491 -->
<g id="node19" class="node">
<title>3491</title>
<ellipse fill="none" stroke="#000000" cx="616" cy="-306" rx="28.6953" ry="18"/>
<text text-anchor="middle" x="616" y="-302.3" font-family="Times,serif" font-size="14.00" fill="#000000">3491</text>
</g>
<!-- 3257&#45;&gt;3491 -->
<g id="edge22" class="edge">
<title>3257&#45;&gt;3491</title>
<path fill="none" stroke="#000000" d="M651.0986,-360.937C645.4845,-352.1496 638.5259,-341.2579 632.2888,-331.4956"/>
<polygon fill="#000000" stroke="#000000" points="635.1565,-329.4831 626.8231,-322.9405 629.2576,-333.2519 635.1565,-329.4831"/>
</g>
<!-- 3356 -->
<g id="node18" class="node">
<title>3356</title>
<ellipse fill="none" stroke="#000000" cx="809" cy="-738" rx="28.6953" ry="18"/>
<text text-anchor="middle" x="809" y="-734.3" font-family="Times,serif" font-size="14.00" fill="#000000">3356</text>
</g>
<!-- 3549 -->
<g id="node20" class="node">
<title>3549</title>
<ellipse fill="none" stroke="#000000" cx="809" cy="-666" rx="28.6953" ry="18"/>
<text text-anchor="middle" x="809" y="-662.3" font-family="Times,serif" font-size="14.00" fill="#000000">3549</text>
</g>
<!-- 3356&#45;&gt;3549 -->
<g id="edge23" class="edge">
<title>3356&#45;&gt;3549</title>
<path fill="none" stroke="#000000" d="M809,-719.8314C809,-712.131 809,-702.9743 809,-694.4166"/>
<polygon fill="#000000" stroke="#000000" points="812.5001,-694.4132 809,-684.4133 805.5001,-694.4133 812.5001,-694.4132"/>
</g>
<!-- 3491&#45;&gt;174 -->
<g id="edge24" class="edge">
<title>3491&#45;&gt;174</title>
<path fill="none" stroke="#000000" d="M601.679,-290.3771C592.7708,-280.659 581.1548,-267.987 571.1925,-257.1191"/>
<polygon fill="#000000" stroke="#000000" points="573.6304,-254.599 564.2931,-249.5924 568.4703,-259.3291 573.6304,-254.599"/>
</g>
<!-- 6762 -->
<g id="node31" class="node">
<title>6762</title>
<ellipse fill="none" stroke="#000000" cx="770" cy="-594" rx="28.6953" ry="18"/>
<text text-anchor="middle" x="770" y="-590.3" font-family="Times,serif" font-size="14.00" fill="#000000">6762</text>
</g>
<!-- 3549&#45;&gt;6762 -->
<g id="edge25" class="edge">
<title>3549&#45;&gt;6762</title>
<path fill="none" stroke="#000000" d="M799.7575,-648.937C795.1624,-640.4537 789.505,-630.0092 784.3612,-620.513"/>
<polygon fill="#000000" stroke="#000000" points="787.2874,-618.5666 779.447,-611.4407 781.1324,-621.9006 787.2874,-618.5666"/>
</g>
<!-- 30070 -->
<g id="node52" class="node">
<title>30070</title>
<ellipse fill="none" stroke="#000000" cx="872" cy="-594" rx="32.4942" ry="18"/>
<text text-anchor="middle" x="872" y="-590.3" font-family="Times,serif" font-size="14.00" fill="#000000">30070</text>
</g>
<!-- 3549&#45;&gt;30070 -->
<g id="edge26" class="edge">
<title>3549&#45;&gt;30070</title>
<path fill="none" stroke="#000000" d="M822.9817,-650.0209C831.1857,-640.6449 841.7142,-628.6123 850.9094,-618.1035"/>
<polygon fill="#000000" stroke="#000000" points="853.6695,-620.2642 857.6206,-610.4336 848.4015,-615.6547 853.6695,-620.2642"/>
</g>
<!-- 3597 -->
<g id="node21" class="node">
<title>3597</title>
<ellipse fill="none" stroke="#000000" cx="771" cy="-882" rx="28.6953" ry="18"/>
<text text-anchor="middle" x="771" y="-878.3" font-family="Times,serif" font-size="14.00" fill="#000000">3597</text>
</g>
<!-- 37179 -->
<g id="node54" class="node">
<title>37179</title>
<ellipse fill="none" stroke="#000000" cx="975" cy="-234" rx="32.4942" ry="18"/>
<text text-anchor="middle" x="975" y="-230.3" font-family="Times,serif" font-size="14.00" fill="#000000">37179</text>
</g>
<!-- 3741&#45;&gt;37179 -->
<g id="edge27" class="edge">
<title>3741&#45;&gt;37179</title>
<path fill="none" stroke="#000000" d="M882.2021,-293.1278C899.5982,-282.0436 924.9556,-265.8867 944.7689,-253.2623"/>
<polygon fill="#000000" stroke="#000000" points="946.881,-256.0667 953.4338,-247.7413 943.1194,-250.1632 946.881,-256.0667"/>
</g>
<!-- 4635 -->
<g id="node23" class="node">
<title>4635</title>
<ellipse fill="none" stroke="#000000" cx="671" cy="-90" rx="28.6953" ry="18"/>
<text text-anchor="middle" x="671" y="-86.3" font-family="Times,serif" font-size="14.00" fill="#000000">4635</text>
</g>
<!-- 4637 -->
<g id="node24" class="node">
<title>4637</title>
<ellipse fill="none" stroke="#000000" cx="821" cy="-234" rx="28.6953" ry="18"/>
<text text-anchor="middle" x="821" y="-230.3" font-family="Times,serif" font-size="14.00" fill="#000000">4637</text>
</g>
<!-- 4739 -->
<g id="node25" class="node">
<title>4739</title>
<ellipse fill="none" stroke="#000000" cx="746" cy="-90" rx="28.6953" ry="18"/>
<text text-anchor="middle" x="746" y="-86.3" font-family="Times,serif" font-size="14.00" fill="#000000">4739</text>
</g>
<!-- 38880 -->
<g id="node57" class="node">
<title>38880</title>
<ellipse fill="none" stroke="#000000" cx="742" cy="-18" rx="32.4942" ry="18"/>
<text text-anchor="middle" x="742" y="-14.3" font-family="Times,serif" font-size="14.00" fill="#000000">38880</text>
</g>
<!-- 4739&#45;&gt;38880 -->
<g id="edge28" class="edge">
<title>4739&#45;&gt;38880</title>
<path fill="none" stroke="#000000" d="M744.9906,-71.8314C744.5628,-64.131 744.0541,-54.9743 743.5787,-46.4166"/>
<polygon fill="#000000" stroke="#000000" points="747.0724,-46.2037 743.023,-36.4133 740.0831,-46.592 747.0724,-46.2037"/>
</g>
<!-- 4755 -->
<g id="node26" class="node">
<title>4755</title>
<ellipse fill="none" stroke="#000000" cx="626" cy="-18" rx="28.6953" ry="18"/>
<text text-anchor="middle" x="626" y="-14.3" font-family="Times,serif" font-size="14.00" fill="#000000">4755</text>
</g>
<!-- 5692 -->
<g id="node28" class="node">
<title>5692</title>
<ellipse fill="none" stroke="#000000" cx="1265" cy="-954" rx="28.6953" ry="18"/>
<text text-anchor="middle" x="1265" y="-950.3" font-family="Times,serif" font-size="14.00" fill="#000000">5692</text>
</g>
<!-- 5692&#45;&gt;3597 -->
<g id="edge29" class="edge">
<title>5692&#45;&gt;3597</title>
<path fill="none" stroke="#000000" d="M1236.4155,-951.8332C1149.6364,-945.0637 890.2092,-923.3629 809,-900 806.834,-899.3769 804.6377,-898.6422 802.45,-897.832"/>
<polygon fill="#000000" stroke="#000000" points="803.6104,-894.5239 793.0335,-893.9077 800.9176,-900.9852 803.6104,-894.5239"/>
</g>
<!-- 10834 -->
<g id="node44" class="node">
<title>10834</title>
<ellipse fill="none" stroke="#000000" cx="850" cy="-882" rx="32.4942" ry="18"/>
<text text-anchor="middle" x="850" y="-878.3" font-family="Times,serif" font-size="14.00" fill="#000000">10834</text>
</g>
<!-- 5692&#45;&gt;10834 -->
<g id="edge30" class="edge">
<title>5692&#45;&gt;10834</title>
<path fill="none" stroke="#000000" d="M1236.4009,-952.4071C1173.206,-948.3384 1017.3407,-935.2744 892,-900 889.5277,-899.3042 887.009,-898.4966 884.4952,-897.6164"/>
<polygon fill="#000000" stroke="#000000" points="885.5223,-894.2617 874.9321,-893.946 883.0139,-900.7969 885.5223,-894.2617"/>
</g>
<!-- 11008 -->
<g id="node45" class="node">
<title>11008</title>
<ellipse fill="none" stroke="#000000" cx="933" cy="-882" rx="32.4942" ry="18"/>
<text text-anchor="middle" x="933" y="-878.3" font-family="Times,serif" font-size="14.00" fill="#000000">11008</text>
</g>
<!-- 5692&#45;&gt;11008 -->
<g id="edge31" class="edge">
<title>5692&#45;&gt;11008</title>
<path fill="none" stroke="#000000" d="M1236.5102,-950.8151C1183.964,-944.4771 1068.605,-928.3918 975,-900 972.5422,-899.2545 970.0344,-898.4097 967.5284,-897.5026"/>
<polygon fill="#000000" stroke="#000000" points="968.5706,-894.1522 957.9825,-893.7737 966.0236,-900.6724 968.5706,-894.1522"/>
</g>
<!-- 27865 -->
<g id="node50" class="node">
<title>27865</title>
<ellipse fill="none" stroke="#000000" cx="1016" cy="-882" rx="32.4942" ry="18"/>
<text text-anchor="middle" x="1016" y="-878.3" font-family="Times,serif" font-size="14.00" fill="#000000">27865</text>
</g>
<!-- 5692&#45;&gt;27865 -->
<g id="edge32" class="edge">
<title>5692&#45;&gt;27865</title>
<path fill="none" stroke="#000000" d="M1237.8227,-948.2764C1197.889,-939.5606 1121.2444,-921.6654 1058,-900 1055.5703,-899.1677 1053.0834,-898.258 1050.5926,-897.3038"/>
<polygon fill="#000000" stroke="#000000" points="1051.6632,-893.9618 1041.0797,-893.4727 1049.0482,-900.455 1051.6632,-893.9618"/>
</g>
<!-- 28065 -->
<g id="node51" class="node">
<title>28065</title>
<ellipse fill="none" stroke="#000000" cx="1099" cy="-882" rx="32.4942" ry="18"/>
<text text-anchor="middle" x="1099" y="-878.3" font-family="Times,serif" font-size="14.00" fill="#000000">28065</text>
</g>
<!-- 5692&#45;&gt;28065 -->
<g id="edge33" class="edge">
<title>5692&#45;&gt;28065</title>
<path fill="none" stroke="#000000" d="M1241.2162,-943.6842C1213.1868,-931.5268 1166.3574,-911.2153 1134.141,-897.2419"/>
<polygon fill="#000000" stroke="#000000" points="1135.2158,-893.8931 1124.6489,-893.1248 1132.4304,-900.315 1135.2158,-893.8931"/>
</g>
<!-- 52317 -->
<g id="node58" class="node">
<title>52317</title>
<ellipse fill="none" stroke="#000000" cx="1182" cy="-882" rx="32.4942" ry="18"/>
<text text-anchor="middle" x="1182" y="-878.3" font-family="Times,serif" font-size="14.00" fill="#000000">52317</text>
</g>
<!-- 5692&#45;&gt;52317 -->
<g id="edge34" class="edge">
<title>5692&#45;&gt;52317</title>
<path fill="none" stroke="#000000" d="M1248.2037,-939.4297C1236.514,-929.2892 1220.7126,-915.5821 1207.479,-904.1023"/>
<polygon fill="#000000" stroke="#000000" points="1209.4781,-901.2031 1199.6307,-897.2941 1204.8912,-906.4908 1209.4781,-901.2031"/>
</g>
<!-- 52375 -->
<g id="node59" class="node">
<title>52375</title>
<ellipse fill="none" stroke="#000000" cx="1265" cy="-882" rx="32.4942" ry="18"/>
<text text-anchor="middle" x="1265" y="-878.3" font-family="Times,serif" font-size="14.00" fill="#000000">52375</text>
</g>
<!-- 5692&#45;&gt;52375 -->
<g id="edge35" class="edge">
<title>5692&#45;&gt;52375</title>
<path fill="none" stroke="#000000" d="M1265,-935.8314C1265,-928.131 1265,-918.9743 1265,-910.4166"/>
<polygon fill="#000000" stroke="#000000" points="1268.5001,-910.4132 1265,-900.4133 1261.5001,-910.4133 1268.5001,-910.4132"/>
</g>
<!-- 52376 -->
<g id="node60" class="node">
<title>52376</title>
<ellipse fill="none" stroke="#000000" cx="1348" cy="-882" rx="32.4942" ry="18"/>
<text text-anchor="middle" x="1348" y="-878.3" font-family="Times,serif" font-size="14.00" fill="#000000">52376</text>
</g>
<!-- 5692&#45;&gt;52376 -->
<g id="edge36" class="edge">
<title>5692&#45;&gt;52376</title>
<path fill="none" stroke="#000000" d="M1281.7963,-939.4297C1293.486,-929.2892 1309.2874,-915.5821 1322.521,-904.1023"/>
<polygon fill="#000000" stroke="#000000" points="1325.1088,-906.4908 1330.3693,-897.2941 1320.5219,-901.2031 1325.1088,-906.4908"/>
</g>
<!-- 52380 -->
<g id="node61" class="node">
<title>52380</title>
<ellipse fill="none" stroke="#000000" cx="1431" cy="-882" rx="32.4942" ry="18"/>
<text text-anchor="middle" x="1431" y="-878.3" font-family="Times,serif" font-size="14.00" fill="#000000">52380</text>
</g>
<!-- 5692&#45;&gt;52380 -->
<g id="edge37" class="edge">
<title>5692&#45;&gt;52380</title>
<path fill="none" stroke="#000000" d="M1288.7838,-943.6842C1316.8132,-931.5268 1363.6426,-911.2153 1395.859,-897.2419"/>
<polygon fill="#000000" stroke="#000000" points="1397.5696,-900.315 1405.3511,-893.1248 1394.7842,-893.8931 1397.5696,-900.315"/>
</g>
<!-- 52413 -->
<g id="node62" class="node">
<title>52413</title>
<ellipse fill="none" stroke="#000000" cx="1514" cy="-882" rx="32.4942" ry="18"/>
<text text-anchor="middle" x="1514" y="-878.3" font-family="Times,serif" font-size="14.00" fill="#000000">52413</text>
</g>
<!-- 5692&#45;&gt;52413 -->
<g id="edge38" class="edge">
<title>5692&#45;&gt;52413</title>
<path fill="none" stroke="#000000" d="M1292.1773,-948.2764C1332.111,-939.5606 1408.7556,-921.6654 1472,-900 1474.4297,-899.1677 1476.9166,-898.258 1479.4074,-897.3038"/>
<polygon fill="#000000" stroke="#000000" points="1480.9518,-900.455 1488.9203,-893.4727 1478.3368,-893.9618 1480.9518,-900.455"/>
</g>
<!-- 52431 -->
<g id="node63" class="node">
<title>52431</title>
<ellipse fill="none" stroke="#000000" cx="1597" cy="-882" rx="32.4942" ry="18"/>
<text text-anchor="middle" x="1597" y="-878.3" font-family="Times,serif" font-size="14.00" fill="#000000">52431</text>
</g>
<!-- 5692&#45;&gt;52431 -->
<g id="edge39" class="edge">
<title>5692&#45;&gt;52431</title>
<path fill="none" stroke="#000000" d="M1293.4898,-950.8151C1346.036,-944.4771 1461.395,-928.3918 1555,-900 1557.4578,-899.2545 1559.9656,-898.4097 1562.4716,-897.5026"/>
<polygon fill="#000000" stroke="#000000" points="1563.9764,-900.6724 1572.0175,-893.7737 1561.4294,-894.1522 1563.9764,-900.6724"/>
</g>
<!-- 262230 -->
<g id="node64" class="node">
<title>262230</title>
<ellipse fill="none" stroke="#000000" cx="1685" cy="-882" rx="37.0935" ry="18"/>
<text text-anchor="middle" x="1685" y="-878.3" font-family="Times,serif" font-size="14.00" fill="#000000">262230</text>
</g>
<!-- 5692&#45;&gt;262230 -->
<g id="edge40" class="edge">
<title>5692&#45;&gt;262230</title>
<path fill="none" stroke="#000000" d="M1293.5,-952.0413C1356.4973,-947.243 1511.9929,-932.8146 1638,-900 1641.1286,-899.1853 1644.3346,-898.23 1647.5303,-897.1919"/>
<polygon fill="#000000" stroke="#000000" points="1648.7111,-900.4869 1656.9989,-893.8866 1646.404,-893.878 1648.7111,-900.4869"/>
</g>
<!-- 264608 -->
<g id="node65" class="node">
<title>264608</title>
<ellipse fill="none" stroke="#000000" cx="1777" cy="-882" rx="37.0935" ry="18"/>
<text text-anchor="middle" x="1777" y="-878.3" font-family="Times,serif" font-size="14.00" fill="#000000">264608</text>
</g>
<!-- 5692&#45;&gt;264608 -->
<g id="edge41" class="edge">
<title>5692&#45;&gt;264608</title>
<path fill="none" stroke="#000000" d="M1293.8256,-953.2303C1367.6272,-950.71 1568.9921,-940.3639 1731,-900 1733.8085,-899.3003 1736.6759,-898.4722 1739.538,-897.5618"/>
<polygon fill="#000000" stroke="#000000" points="1740.8601,-900.8076 1749.1547,-894.216 1738.5599,-894.1963 1740.8601,-900.8076"/>
</g>
<!-- 6453&#45;&gt;3257 -->
<g id="edge42" class="edge">
<title>6453&#45;&gt;3257</title>
<path fill="none" stroke="#000000" d="M709.4621,-434.0209C701.4067,-424.5128 691.0367,-412.2728 682.0456,-401.6604"/>
<polygon fill="#000000" stroke="#000000" points="684.6347,-399.3019 675.5,-393.9345 679.2938,-403.8268 684.6347,-399.3019"/>
</g>
<!-- 6762&#45;&gt;2914 -->
<g id="edge43" class="edge">
<title>6762&#45;&gt;2914</title>
<path fill="none" stroke="#000000" d="M761.5275,-576.5708C757.4003,-568.0807 752.3507,-557.6929 747.7689,-548.2674"/>
<polygon fill="#000000" stroke="#000000" points="750.9143,-546.7322 743.3945,-539.2687 744.6187,-549.7926 750.9143,-546.7322"/>
</g>
<!-- 6904 -->
<g id="node32" class="node">
<title>6904</title>
<ellipse fill="none" stroke="#000000" cx="821" cy="-522" rx="28.6953" ry="18"/>
<text text-anchor="middle" x="821" y="-518.3" font-family="Times,serif" font-size="14.00" fill="#000000">6904</text>
</g>
<!-- 6904&#45;&gt;2687 -->
<g id="edge44" class="edge">
<title>6904&#45;&gt;2687</title>
<path fill="none" stroke="#000000" d="M821,-503.8314C821,-496.131 821,-486.9743 821,-478.4166"/>
<polygon fill="#000000" stroke="#000000" points="824.5001,-478.4132 821,-468.4133 817.5001,-478.4133 824.5001,-478.4132"/>
</g>
<!-- 6939 -->
<g id="node33" class="node">
<title>6939</title>
<ellipse fill="none" stroke="#000000" cx="821" cy="-90" rx="28.6953" ry="18"/>
<text text-anchor="middle" x="821" y="-86.3" font-family="Times,serif" font-size="14.00" fill="#000000">6939</text>
</g>
<!-- 12266 -->
<g id="node46" class="node">
<title>12266</title>
<ellipse fill="none" stroke="#000000" cx="825" cy="-18" rx="32.4942" ry="18"/>
<text text-anchor="middle" x="825" y="-14.3" font-family="Times,serif" font-size="14.00" fill="#000000">12266</text>
</g>
<!-- 6939&#45;&gt;12266 -->
<g id="edge45" class="edge">
<title>6939&#45;&gt;12266</title>
<path fill="none" stroke="#000000" d="M822.0094,-71.8314C822.4372,-64.131 822.9459,-54.9743 823.4213,-46.4166"/>
<polygon fill="#000000" stroke="#000000" points="826.9169,-46.592 823.977,-36.4133 819.9276,-46.2037 826.9169,-46.592"/>
</g>
<!-- 7016 -->
<g id="node34" class="node">
<title>7016</title>
<ellipse fill="none" stroke="#000000" cx="896" cy="-522" rx="28.6953" ry="18"/>
<text text-anchor="middle" x="896" y="-518.3" font-family="Times,serif" font-size="14.00" fill="#000000">7016</text>
</g>
<!-- 7922 -->
<g id="node39" class="node">
<title>7922</title>
<ellipse fill="none" stroke="#000000" cx="896" cy="-450" rx="28.6953" ry="18"/>
<text text-anchor="middle" x="896" y="-446.3" font-family="Times,serif" font-size="14.00" fill="#000000">7922</text>
</g>
<!-- 7016&#45;&gt;7922 -->
<g id="edge46" class="edge">
<title>7016&#45;&gt;7922</title>
<path fill="none" stroke="#000000" d="M896,-503.8314C896,-496.131 896,-486.9743 896,-478.4166"/>
<polygon fill="#000000" stroke="#000000" points="899.5001,-478.4132 896,-468.4133 892.5001,-478.4133 899.5001,-478.4132"/>
</g>
<!-- 7473 -->
<g id="node36" class="node">
<title>7473</title>
<ellipse fill="none" stroke="#000000" cx="937" cy="-306" rx="28.6953" ry="18"/>
<text text-anchor="middle" x="937" y="-302.3" font-family="Times,serif" font-size="14.00" fill="#000000">7473</text>
</g>
<!-- 7474 -->
<g id="node37" class="node">
<title>7474</title>
<ellipse fill="none" stroke="#000000" cx="896" cy="-234" rx="28.6953" ry="18"/>
<text text-anchor="middle" x="896" y="-230.3" font-family="Times,serif" font-size="14.00" fill="#000000">7474</text>
</g>
<!-- 7545&#45;&gt;4635 -->
<g id="edge47" class="edge">
<title>7545&#45;&gt;4635</title>
<path fill="none" stroke="#000000" d="M730.0944,-146.7307C719.6537,-136.7075 705.8251,-123.4321 694.1702,-112.2434"/>
<polygon fill="#000000" stroke="#000000" points="696.5204,-109.6478 686.8826,-105.2473 691.6727,-114.6976 696.5204,-109.6478"/>
</g>
<!-- 7545&#45;&gt;4739 -->
<g id="edge48" class="edge">
<title>7545&#45;&gt;4739</title>
<path fill="none" stroke="#000000" d="M746,-143.8314C746,-136.131 746,-126.9743 746,-118.4166"/>
<polygon fill="#000000" stroke="#000000" points="749.5001,-118.4132 746,-108.4133 742.5001,-118.4133 749.5001,-118.4132"/>
</g>
<!-- 7545&#45;&gt;6939 -->
<g id="edge49" class="edge">
<title>7545&#45;&gt;6939</title>
<path fill="none" stroke="#000000" d="M761.9056,-146.7307C772.3463,-136.7075 786.1749,-123.4321 797.8298,-112.2434"/>
<polygon fill="#000000" stroke="#000000" points="800.3273,-114.6976 805.1174,-105.2473 795.4796,-109.6478 800.3273,-114.6976"/>
</g>
<!-- 9942 -->
<g id="node42" class="node">
<title>9942</title>
<ellipse fill="none" stroke="#000000" cx="896" cy="-90" rx="28.6953" ry="18"/>
<text text-anchor="middle" x="896" y="-86.3" font-family="Times,serif" font-size="14.00" fill="#000000">9942</text>
</g>
<!-- 7545&#45;&gt;9942 -->
<g id="edge50" class="edge">
<title>7545&#45;&gt;9942</title>
<path fill="none" stroke="#000000" d="M768.9634,-151.084C791.8108,-140.2095 827.8596,-123.0151 859,-108 860.5925,-107.2321 862.223,-106.4445 863.8691,-105.6481"/>
<polygon fill="#000000" stroke="#000000" points="865.8436,-108.5804 873.314,-101.0674 862.789,-102.282 865.8436,-108.5804"/>
</g>
<!-- 10026 -->
<g id="node43" class="node">
<title>10026</title>
<ellipse fill="none" stroke="#000000" cx="592" cy="-90" rx="32.4942" ry="18"/>
<text text-anchor="middle" x="592" y="-86.3" font-family="Times,serif" font-size="14.00" fill="#000000">10026</text>
</g>
<!-- 9498&#45;&gt;10026 -->
<g id="edge51" class="edge">
<title>9498&#45;&gt;10026</title>
<path fill="none" stroke="#000000" d="M607.0562,-144.2022C604.8206,-136.1541 602.1274,-126.4588 599.6407,-117.5067"/>
<polygon fill="#000000" stroke="#000000" points="603.0051,-116.541 596.9563,-107.8425 596.2605,-118.4145 603.0051,-116.541"/>
</g>
<!-- 9505&#45;&gt;7473 -->
<g id="edge52" class="edge">
<title>9505&#45;&gt;7473</title>
<path fill="none" stroke="#000000" d="M936.2523,-359.8314C936.3593,-352.131 936.4865,-342.9743 936.6053,-334.4166"/>
<polygon fill="#000000" stroke="#000000" points="940.1049,-334.4609 936.7443,-324.4133 933.1056,-334.3637 940.1049,-334.4609"/>
</g>
<!-- 10026&#45;&gt;4755 -->
<g id="edge53" class="edge">
<title>10026&#45;&gt;4755</title>
<path fill="none" stroke="#000000" d="M600.2305,-72.5708C604.1979,-64.1691 609.0429,-53.9091 613.4567,-44.5623"/>
<polygon fill="#000000" stroke="#000000" points="616.7401,-45.8057 617.8453,-35.2687 610.4104,-42.8166 616.7401,-45.8057"/>
</g>
<!-- 12956 -->
<g id="node47" class="node">
<title>12956</title>
<ellipse fill="none" stroke="#000000" cx="809" cy="-810" rx="32.4942" ry="18"/>
<text text-anchor="middle" x="809" y="-806.3" font-family="Times,serif" font-size="14.00" fill="#000000">12956</text>
</g>
<!-- 10834&#45;&gt;12956 -->
<g id="edge54" class="edge">
<title>10834&#45;&gt;12956</title>
<path fill="none" stroke="#000000" d="M840.075,-864.5708C835.19,-855.9922 829.2017,-845.4762 823.7903,-835.9732"/>
<polygon fill="#000000" stroke="#000000" points="826.8234,-834.2266 818.8336,-827.2687 820.7405,-837.6905 826.8234,-834.2266"/>
</g>
<!-- 22927 -->
<g id="node49" class="node">
<title>22927</title>
<ellipse fill="none" stroke="#000000" cx="892" cy="-810" rx="32.4942" ry="18"/>
<text text-anchor="middle" x="892" y="-806.3" font-family="Times,serif" font-size="14.00" fill="#000000">22927</text>
</g>
<!-- 10834&#45;&gt;22927 -->
<g id="edge55" class="edge">
<title>10834&#45;&gt;22927</title>
<path fill="none" stroke="#000000" d="M860.167,-864.5708C865.1712,-855.9922 871.3055,-845.4762 876.849,-835.9732"/>
<polygon fill="#000000" stroke="#000000" points="879.9111,-837.6701 881.9266,-827.2687 873.8646,-834.1429 879.9111,-837.6701"/>
</g>
<!-- 12956&#45;&gt;3356 -->
<g id="edge56" class="edge">
<title>12956&#45;&gt;3356</title>
<path fill="none" stroke="#000000" d="M809,-791.8314C809,-784.131 809,-774.9743 809,-766.4166"/>
<polygon fill="#000000" stroke="#000000" points="812.5001,-766.4132 809,-756.4133 805.5001,-766.4133 812.5001,-766.4132"/>
</g>
<!-- 18540 -->
<g id="node48" class="node">
<title>18540</title>
<ellipse fill="none" stroke="#000000" cx="975" cy="-522" rx="32.4942" ry="18"/>
<text text-anchor="middle" x="975" y="-518.3" font-family="Times,serif" font-size="14.00" fill="#000000">18540</text>
</g>
<!-- 30070&#45;&gt;6904 -->
<g id="edge57" class="edge">
<title>30070&#45;&gt;6904</title>
<path fill="none" stroke="#000000" d="M859.9137,-576.937C853.5347,-567.9313 845.5901,-556.7154 838.5455,-546.7701"/>
<polygon fill="#000000" stroke="#000000" points="841.2848,-544.5821 832.6485,-538.4449 835.5726,-548.6283 841.2848,-544.5821"/>
</g>
<!-- 30070&#45;&gt;7016 -->
<g id="edge58" class="edge">
<title>30070&#45;&gt;7016</title>
<path fill="none" stroke="#000000" d="M877.9326,-576.2022C880.6153,-568.1541 883.8471,-558.4588 886.8311,-549.5067"/>
<polygon fill="#000000" stroke="#000000" points="890.2105,-550.4362 890.0525,-539.8425 883.5697,-548.2226 890.2105,-550.4362"/>
</g>
<!-- 30070&#45;&gt;18540 -->
<g id="edge59" class="edge">
<title>30070&#45;&gt;18540</title>
<path fill="none" stroke="#000000" d="M892.3495,-579.7751C907.7264,-569.0262 929.0382,-554.1287 946.1691,-542.1536"/>
<polygon fill="#000000" stroke="#000000" points="948.502,-544.7933 954.6928,-536.1953 944.4915,-539.056 948.502,-544.7933"/>
</g>
<!-- 32787&#45;&gt;703 -->
<g id="edge60" class="edge">
<title>32787&#45;&gt;703</title>
<path fill="none" stroke="#000000" d="M759.8814,-293.2936C738.2233,-281.3899 705.7312,-263.5317 682.0667,-250.5252"/>
<polygon fill="#000000" stroke="#000000" points="683.6049,-247.3768 673.1554,-245.6274 680.2332,-253.5113 683.6049,-247.3768"/>
</g>
<!-- 32787&#45;&gt;2764 -->
<g id="edge61" class="edge">
<title>32787&#45;&gt;2764</title>
<path fill="none" stroke="#000000" d="M774.0433,-288.5708C769.6803,-280.0807 764.3422,-269.6929 759.4985,-260.2674"/>
<polygon fill="#000000" stroke="#000000" points="762.5579,-258.5633 754.8742,-251.2687 756.3319,-261.7628 762.5579,-258.5633"/>
</g>
<!-- 32787&#45;&gt;4637 -->
<g id="edge62" class="edge">
<title>32787&#45;&gt;4637</title>
<path fill="none" stroke="#000000" d="M792.1987,-288.5708C796.6797,-280.0807 802.1621,-269.6929 807.1366,-260.2674"/>
<polygon fill="#000000" stroke="#000000" points="810.3137,-261.7462 811.886,-251.2687 804.123,-258.4789 810.3137,-261.7462"/>
</g>
<!-- 32787&#45;&gt;7474 -->
<g id="edge63" class="edge">
<title>32787&#45;&gt;7474</title>
<path fill="none" stroke="#000000" d="M804.5204,-292.2879C822.2901,-280.9656 847.6704,-264.7941 867.1915,-252.3558"/>
<polygon fill="#000000" stroke="#000000" points="869.1472,-255.2599 875.7,-246.9345 865.3857,-249.3564 869.1472,-255.2599"/>
</g>
<!-- 38333&#45;&gt;1221 -->
<g id="edge64" class="edge">
<title>38333&#45;&gt;1221</title>
<path fill="none" stroke="#000000" d="M849.4371,-149.9488C874.1263,-137.7733 912.3789,-118.909 939.3689,-105.5989"/>
<polygon fill="#000000" stroke="#000000" points="940.9845,-108.7047 948.4052,-101.1427 937.8884,-102.4266 940.9845,-108.7047"/>
</g>
</g>
</svg>
