<?xml version="1.0" encoding="UTF-8" standalone="no"?>
<!DOCTYPE svg PUBLIC "-//W3C//DTD SVG 1.1//EN"
 "http://www.w3.org/Graphics/SVG/1.1/DTD/svg11.dtd">
<!-- Generated by graphviz version 2.40.1 (20161225.0304)
 -->
<!-- Title: %3 Pages: 1 -->
<svg width="1168pt" height="1112pt"
 viewBox="0.00 0.00 1167.53 1112.18" xmlns="http://www.w3.org/2000/svg" xmlns:xlink="http://www.w3.org/1999/xlink">
<g id="graph0" class="graph" transform="scale(1 1) rotate(0) translate(4 1108.1813)">
<title>%3</title>
<polygon fill="#ffffff" stroke="transparent" points="-4,4 -4,-1108.1813 1163.5339,-1108.1813 1163.5339,4 -4,4"/>
<!-- 174 -->
<g id="node1" class="node">
<title>174</title>
<ellipse fill="none" stroke="#000000" cx="967.9419" cy="-260.6721" rx="27" ry="18"/>
<text text-anchor="middle" x="967.9419" y="-256.9721" font-family="Times,serif" font-size="14.00" fill="#000000">174</text>
</g>
<!-- 209 -->
<g id="node2" class="node">
<title>209</title>
<ellipse fill="none" stroke="#000000" cx="1018.5136" cy="-193.1928" rx="27" ry="18"/>
<text text-anchor="middle" x="1018.5136" y="-189.4928" font-family="Times,serif" font-size="14.00" fill="#000000">209</text>
</g>
<!-- 174&#45;&gt;209 -->
<g id="edge1" class="edge">
<title>174&#45;&gt;209</title>
<path fill="none" stroke="#000000" d="M980.1839,-244.3373C986.2094,-236.2973 993.5957,-226.4416 1000.2705,-217.5352"/>
<polygon fill="#000000" stroke="#000000" points="1003.188,-219.4784 1006.3844,-209.3772 997.5864,-215.2804 1003.188,-219.4784"/>
</g>
<!-- 1299 -->
<g id="node8" class="node">
<title>1299</title>
<ellipse fill="none" stroke="#000000" cx="1039.0053" cy="-101.0407" rx="28.6953" ry="18"/>
<text text-anchor="middle" x="1039.0053" y="-97.3407" font-family="Times,serif" font-size="14.00" fill="#000000">1299</text>
</g>
<!-- 209&#45;&gt;1299 -->
<g id="edge2" class="edge">
<title>209&#45;&gt;1299</title>
<path fill="none" stroke="#000000" d="M1022.5621,-174.9865C1025.4999,-161.7749 1029.5267,-143.6665 1032.8599,-128.6766"/>
<polygon fill="#000000" stroke="#000000" points="1036.2807,-129.4169 1035.0349,-118.8956 1029.4476,-127.8974 1036.2807,-129.4169"/>
</g>
<!-- 2828 -->
<g id="node14" class="node">
<title>2828</title>
<ellipse fill="none" stroke="#000000" cx="1094.1549" cy="-235.0532" rx="28.6953" ry="18"/>
<text text-anchor="middle" x="1094.1549" y="-231.3532" font-family="Times,serif" font-size="14.00" fill="#000000">2828</text>
</g>
<!-- 209&#45;&gt;2828 -->
<g id="edge3" class="edge">
<title>209&#45;&gt;2828</title>
<path fill="none" stroke="#000000" d="M1039.5839,-204.8533C1047.0795,-209.0014 1055.6752,-213.7583 1063.7933,-218.2509"/>
<polygon fill="#000000" stroke="#000000" points="1062.2277,-221.3847 1072.672,-223.1644 1065.6172,-215.26 1062.2277,-221.3847"/>
</g>
<!-- 701 -->
<g id="node3" class="node">
<title>701</title>
<ellipse fill="none" stroke="#000000" cx="1039.3422" cy="-18" rx="27" ry="18"/>
<text text-anchor="middle" x="1039.3422" y="-14.3" font-family="Times,serif" font-size="14.00" fill="#000000">701</text>
</g>
<!-- 703 -->
<g id="node4" class="node">
<title>703</title>
<ellipse fill="none" stroke="#000000" cx="252.962" cy="-742.1176" rx="27" ry="18"/>
<text text-anchor="middle" x="252.962" y="-738.4176" font-family="Times,serif" font-size="14.00" fill="#000000">703</text>
</g>
<!-- 9498 -->
<g id="node40" class="node">
<title>9498</title>
<ellipse fill="none" stroke="#000000" cx="187.1363" cy="-686.3839" rx="28.6953" ry="18"/>
<text text-anchor="middle" x="187.1363" y="-682.6839" font-family="Times,serif" font-size="14.00" fill="#000000">9498</text>
</g>
<!-- 703&#45;&gt;9498 -->
<g id="edge4" class="edge">
<title>703&#45;&gt;9498</title>
<path fill="none" stroke="#000000" d="M236.0103,-727.7648C228.6964,-721.5722 219.995,-714.2049 211.9753,-707.4147"/>
<polygon fill="#000000" stroke="#000000" points="214.1529,-704.6724 204.2594,-700.8818 209.6296,-710.0147 214.1529,-704.6724"/>
</g>
<!-- 1221 -->
<g id="node5" class="node">
<title>1221</title>
<ellipse fill="none" stroke="#000000" cx="323.793" cy="-1054.5273" rx="28.6953" ry="18"/>
<text text-anchor="middle" x="323.793" y="-1050.8273" font-family="Times,serif" font-size="14.00" fill="#000000">1221</text>
</g>
<!-- 1239 -->
<g id="node6" class="node">
<title>1239</title>
<ellipse fill="none" stroke="#000000" cx="968.1962" cy="-103.7731" rx="28.6953" ry="18"/>
<text text-anchor="middle" x="968.1962" y="-100.0731" font-family="Times,serif" font-size="14.00" fill="#000000">1239</text>
</g>
<!-- 1273 -->
<g id="node7" class="node">
<title>1273</title>
<ellipse fill="none" stroke="#000000" cx="960.3943" cy="-58.7958" rx="28.6953" ry="18"/>
<text text-anchor="middle" x="960.3943" y="-55.0958" font-family="Times,serif" font-size="14.00" fill="#000000">1273</text>
</g>
<!-- 1299&#45;&gt;701 -->
<g id="edge5" class="edge">
<title>1299&#45;&gt;701</title>
<path fill="none" stroke="#000000" d="M1039.0784,-83.0221C1039.1218,-72.3229 1039.1778,-58.5193 1039.227,-46.3845"/>
<polygon fill="#000000" stroke="#000000" points="1042.7274,-46.2843 1039.2681,-36.2702 1035.7274,-46.2559 1042.7274,-46.2843"/>
</g>
<!-- 1299&#45;&gt;1239 -->
<g id="edge6" class="edge">
<title>1299&#45;&gt;1239</title>
<path fill="none" stroke="#000000" d="M1010.2045,-102.1521C1009.0941,-102.1949 1007.9748,-102.2381 1006.851,-102.2815"/>
<polygon fill="#000000" stroke="#000000" points="1006.5994,-98.7885 996.7419,-102.6716 1006.8694,-105.7833 1006.5994,-98.7885"/>
</g>
<!-- 1299&#45;&gt;1273 -->
<g id="edge7" class="edge">
<title>1299&#45;&gt;1273</title>
<path fill="none" stroke="#000000" d="M1017.1077,-89.2731C1009.1006,-84.9702 999.8857,-80.0182 991.2433,-75.3738"/>
<polygon fill="#000000" stroke="#000000" points="992.6399,-72.151 982.1744,-70.5003 989.3262,-78.317 992.6399,-72.151"/>
</g>
<!-- 2497 -->
<g id="node9" class="node">
<title>2497</title>
<ellipse fill="none" stroke="#000000" cx="993.3255" cy="-27.2269" rx="28.6953" ry="18"/>
<text text-anchor="middle" x="993.3255" y="-23.5269" font-family="Times,serif" font-size="14.00" fill="#000000">2497</text>
</g>
<!-- 1299&#45;&gt;2497 -->
<g id="edge8" class="edge">
<title>1299&#45;&gt;2497</title>
<path fill="none" stroke="#000000" d="M1028.4106,-83.9208C1022.6621,-74.6319 1015.4443,-62.9687 1009.0523,-52.6397"/>
<polygon fill="#000000" stroke="#000000" points="1011.9438,-50.6611 1003.7053,-43.9995 1005.9914,-54.3447 1011.9438,-50.6611"/>
</g>
<!-- 3320 -->
<g id="node17" class="node">
<title>3320</title>
<ellipse fill="none" stroke="#000000" cx="1085.466" cy="-33.2001" rx="28.6953" ry="18"/>
<text text-anchor="middle" x="1085.466" y="-29.5001" font-family="Times,serif" font-size="14.00" fill="#000000">3320</text>
</g>
<!-- 1299&#45;&gt;3320 -->
<g id="edge9" class="edge">
<title>1299&#45;&gt;3320</title>
<path fill="none" stroke="#000000" d="M1050.4899,-84.2711C1055.8912,-76.3844 1062.442,-66.819 1068.4074,-58.1085"/>
<polygon fill="#000000" stroke="#000000" points="1071.3507,-60.0051 1074.1134,-49.7768 1065.5752,-56.0497 1071.3507,-60.0051"/>
</g>
<!-- 5511 -->
<g id="node27" class="node">
<title>5511</title>
<ellipse fill="none" stroke="#000000" cx="1130.9365" cy="-113.2164" rx="28.6953" ry="18"/>
<text text-anchor="middle" x="1130.9365" y="-109.5164" font-family="Times,serif" font-size="14.00" fill="#000000">5511</text>
</g>
<!-- 1299&#45;&gt;5511 -->
<g id="edge10" class="edge">
<title>1299&#45;&gt;5511</title>
<path fill="none" stroke="#000000" d="M1067.0872,-104.76C1075.1207,-105.824 1084.0177,-107.0023 1092.5556,-108.1331"/>
<polygon fill="#000000" stroke="#000000" points="1092.3367,-111.6346 1102.7097,-109.4779 1093.2559,-104.6952 1092.3367,-111.6346"/>
</g>
<!-- 6461 -->
<g id="node30" class="node">
<title>6461</title>
<ellipse fill="none" stroke="#000000" cx="1118.5764" cy="-67.4662" rx="28.6953" ry="18"/>
<text text-anchor="middle" x="1118.5764" y="-63.7662" font-family="Times,serif" font-size="14.00" fill="#000000">6461</text>
</g>
<!-- 1299&#45;&gt;6461 -->
<g id="edge11" class="edge">
<title>1299&#45;&gt;6461</title>
<path fill="none" stroke="#000000" d="M1062.8792,-90.9673C1069.9605,-87.9794 1077.8469,-84.6518 1085.4055,-81.4624"/>
<polygon fill="#000000" stroke="#000000" points="1086.8665,-84.6449 1094.7193,-77.5326 1084.1452,-78.1955 1086.8665,-84.6449"/>
</g>
<!-- 7018 -->
<g id="node35" class="node">
<title>7018</title>
<ellipse fill="none" stroke="#000000" cx="1095.8108" cy="-140.6332" rx="28.6953" ry="18"/>
<text text-anchor="middle" x="1095.8108" y="-136.9332" font-family="Times,serif" font-size="14.00" fill="#000000">7018</text>
</g>
<!-- 1299&#45;&gt;7018 -->
<g id="edge12" class="edge">
<title>1299&#45;&gt;7018</title>
<path fill="none" stroke="#000000" d="M1058.237,-114.4449C1061.4758,-116.7023 1064.8929,-119.0839 1068.293,-121.4537"/>
<polygon fill="#000000" stroke="#000000" points="1066.3936,-124.3961 1076.5988,-127.2428 1070.3962,-118.6533 1066.3936,-124.3961"/>
</g>
<!-- 2516 -->
<g id="node10" class="node">
<title>2516</title>
<ellipse fill="none" stroke="#000000" cx="408.0767" cy="-778.8718" rx="28.6953" ry="18"/>
<text text-anchor="middle" x="408.0767" y="-775.1718" font-family="Times,serif" font-size="14.00" fill="#000000">2516</text>
</g>
<!-- 32787 -->
<g id="node53" class="node">
<title>32787</title>
<ellipse fill="none" stroke="#000000" cx="322.1491" cy="-814.8411" rx="32.4942" ry="18"/>
<text text-anchor="middle" x="322.1491" y="-811.1411" font-family="Times,serif" font-size="14.00" fill="#000000">32787</text>
</g>
<!-- 2516&#45;&gt;32787 -->
<g id="edge13" class="edge">
<title>2516&#45;&gt;32787</title>
<path fill="none" stroke="#000000" d="M384.1411,-788.8913C375.9722,-792.3108 366.6533,-796.2117 357.7665,-799.9317"/>
<polygon fill="#000000" stroke="#000000" points="356.2408,-796.776 348.3679,-803.866 358.9438,-803.2331 356.2408,-796.776"/>
</g>
<!-- 2686 -->
<g id="node11" class="node">
<title>2686</title>
<ellipse fill="none" stroke="#000000" cx="438.7846" cy="-651.0695" rx="28.6953" ry="18"/>
<text text-anchor="middle" x="438.7846" y="-647.3695" font-family="Times,serif" font-size="14.00" fill="#000000">2686</text>
</g>
<!-- 3741 -->
<g id="node22" class="node">
<title>3741</title>
<ellipse fill="none" stroke="#000000" cx="406.2079" cy="-567.4569" rx="28.6953" ry="18"/>
<text text-anchor="middle" x="406.2079" y="-563.7569" font-family="Times,serif" font-size="14.00" fill="#000000">3741</text>
</g>
<!-- 2686&#45;&gt;3741 -->
<g id="edge14" class="edge">
<title>2686&#45;&gt;3741</title>
<path fill="none" stroke="#000000" d="M431.8759,-633.3374C427.5137,-622.1412 421.7899,-607.4503 416.8546,-594.783"/>
<polygon fill="#000000" stroke="#000000" points="419.9983,-593.2106 413.1066,-585.1634 413.4758,-595.7518 419.9983,-593.2106"/>
</g>
<!-- 2687 -->
<g id="node12" class="node">
<title>2687</title>
<ellipse fill="none" stroke="#000000" cx="481.7816" cy="-729.5469" rx="28.6953" ry="18"/>
<text text-anchor="middle" x="481.7816" y="-725.8469" font-family="Times,serif" font-size="14.00" fill="#000000">2687</text>
</g>
<!-- 2687&#45;&gt;2516 -->
<g id="edge15" class="edge">
<title>2687&#45;&gt;2516</title>
<path fill="none" stroke="#000000" d="M462.0301,-742.7651C454.0988,-748.0729 444.8097,-754.2893 436.196,-760.0538"/>
<polygon fill="#000000" stroke="#000000" points="434.2469,-757.1467 427.8828,-765.6172 438.1401,-762.9642 434.2469,-757.1467"/>
</g>
<!-- 2687&#45;&gt;2686 -->
<g id="edge16" class="edge">
<title>2687&#45;&gt;2686</title>
<path fill="none" stroke="#000000" d="M472.4519,-712.5185C466.8001,-702.203 459.4753,-688.8339 453.1019,-677.2012"/>
<polygon fill="#000000" stroke="#000000" points="456.1191,-675.4239 448.2446,-668.3357 449.9801,-678.7875 456.1191,-675.4239"/>
</g>
<!-- 9505 -->
<g id="node41" class="node">
<title>9505</title>
<ellipse fill="none" stroke="#000000" cx="491.7696" cy="-660.9511" rx="28.6953" ry="18"/>
<text text-anchor="middle" x="491.7696" y="-657.2511" font-family="Times,serif" font-size="14.00" fill="#000000">9505</text>
</g>
<!-- 2687&#45;&gt;9505 -->
<g id="edge17" class="edge">
<title>2687&#45;&gt;9505</title>
<path fill="none" stroke="#000000" d="M484.4059,-711.5242C485.4072,-704.6471 486.574,-696.6335 487.6797,-689.0399"/>
<polygon fill="#000000" stroke="#000000" points="491.1508,-689.4917 489.1282,-679.0917 484.2238,-688.483 491.1508,-689.4917"/>
</g>
<!-- 2764 -->
<g id="node13" class="node">
<title>2764</title>
<ellipse fill="none" stroke="#000000" cx="272.4771" cy="-895.7978" rx="28.6953" ry="18"/>
<text text-anchor="middle" x="272.4771" y="-892.0978" font-family="Times,serif" font-size="14.00" fill="#000000">2764</text>
</g>
<!-- 7545 -->
<g id="node38" class="node">
<title>7545</title>
<ellipse fill="none" stroke="#000000" cx="196.1645" cy="-945.7796" rx="28.6953" ry="18"/>
<text text-anchor="middle" x="196.1645" y="-942.0796" font-family="Times,serif" font-size="14.00" fill="#000000">7545</text>
</g>
<!-- 2764&#45;&gt;7545 -->
<g id="edge18" class="edge">
<title>2764&#45;&gt;7545</title>
<path fill="none" stroke="#000000" d="M252.4269,-908.9299C243.9267,-914.4972 233.8658,-921.0867 224.6192,-927.1429"/>
<polygon fill="#000000" stroke="#000000" points="222.5286,-924.3282 216.0808,-932.7352 226.3639,-930.184 222.5286,-924.3282"/>
</g>
<!-- 38333 -->
<g id="node55" class="node">
<title>38333</title>
<ellipse fill="none" stroke="#000000" cx="311.4115" cy="-970.1128" rx="32.4942" ry="18"/>
<text text-anchor="middle" x="311.4115" y="-966.4128" font-family="Times,serif" font-size="14.00" fill="#000000">38333</text>
</g>
<!-- 2764&#45;&gt;38333 -->
<g id="edge19" class="edge">
<title>2764&#45;&gt;38333</title>
<path fill="none" stroke="#000000" d="M281.5073,-913.0339C286.2887,-922.1602 292.2626,-933.5628 297.6113,-943.7719"/>
<polygon fill="#000000" stroke="#000000" points="294.5543,-945.479 302.2954,-952.7127 300.7549,-942.2304 294.5543,-945.479"/>
</g>
<!-- 38561 -->
<g id="node56" class="node">
<title>38561</title>
<ellipse fill="none" stroke="#000000" cx="214.0314" cy="-858.8545" rx="32.4942" ry="18"/>
<text text-anchor="middle" x="214.0314" y="-855.1545" font-family="Times,serif" font-size="14.00" fill="#000000">38561</text>
</g>
<!-- 2764&#45;&gt;38561 -->
<g id="edge20" class="edge">
<title>2764&#45;&gt;38561</title>
<path fill="none" stroke="#000000" d="M252.0356,-882.8768C249.5668,-881.3163 247.0057,-879.6974 244.4325,-878.0709"/>
<polygon fill="#000000" stroke="#000000" points="246.0759,-874.9691 235.7529,-872.5845 242.3357,-880.8862 246.0759,-874.9691"/>
</g>
<!-- 2914 -->
<g id="node15" class="node">
<title>2914</title>
<ellipse fill="none" stroke="#000000" cx="833.3911" cy="-557.5868" rx="28.6953" ry="18"/>
<text text-anchor="middle" x="833.3911" y="-553.8868" font-family="Times,serif" font-size="14.00" fill="#000000">2914</text>
</g>
<!-- 6453 -->
<g id="node29" class="node">
<title>6453</title>
<ellipse fill="none" stroke="#000000" cx="866.7393" cy="-480.7853" rx="28.6953" ry="18"/>
<text text-anchor="middle" x="866.7393" y="-477.0853" font-family="Times,serif" font-size="14.00" fill="#000000">6453</text>
</g>
<!-- 2914&#45;&gt;6453 -->
<g id="edge21" class="edge">
<title>2914&#45;&gt;6453</title>
<path fill="none" stroke="#000000" d="M840.9583,-540.1594C845.1074,-530.604 850.3417,-518.5493 855.0081,-507.8024"/>
<polygon fill="#000000" stroke="#000000" points="858.3141,-508.9762 859.0866,-498.4096 851.8932,-506.1882 858.3141,-508.9762"/>
</g>
<!-- 3257 -->
<g id="node16" class="node">
<title>3257</title>
<ellipse fill="none" stroke="#000000" cx="899.445" cy="-406.1288" rx="28.6953" ry="18"/>
<text text-anchor="middle" x="899.445" y="-402.4288" font-family="Times,serif" font-size="14.00" fill="#000000">3257</text>
</g>
<!-- 3491 -->
<g id="node19" class="node">
<title>3491</title>
<ellipse fill="none" stroke="#000000" cx="931.598" cy="-332.5392" rx="28.6953" ry="18"/>
<text text-anchor="middle" x="931.598" y="-328.8392" font-family="Times,serif" font-size="14.00" fill="#000000">3491</text>
</g>
<!-- 3257&#45;&gt;3491 -->
<g id="edge22" class="edge">
<title>3257&#45;&gt;3491</title>
<path fill="none" stroke="#000000" d="M907.0648,-388.6891C910.8811,-379.9548 915.586,-369.1863 919.8516,-359.4236"/>
<polygon fill="#000000" stroke="#000000" points="923.1249,-360.6736 923.9214,-350.1087 916.7104,-357.8709 923.1249,-360.6736"/>
</g>
<!-- 3356 -->
<g id="node18" class="node">
<title>3356</title>
<ellipse fill="none" stroke="#000000" cx="825.3412" cy="-787.8365" rx="28.6953" ry="18"/>
<text text-anchor="middle" x="825.3412" y="-784.1365" font-family="Times,serif" font-size="14.00" fill="#000000">3356</text>
</g>
<!-- 3549 -->
<g id="node20" class="node">
<title>3549</title>
<ellipse fill="none" stroke="#000000" cx="762.1007" cy="-722.8423" rx="28.6953" ry="18"/>
<text text-anchor="middle" x="762.1007" y="-719.1423" font-family="Times,serif" font-size="14.00" fill="#000000">3549</text>
</g>
<!-- 3356&#45;&gt;3549 -->
<g id="edge23" class="edge">
<title>3356&#45;&gt;3549</title>
<path fill="none" stroke="#000000" d="M810.3541,-772.4338C802.67,-764.5367 793.154,-754.7567 784.6087,-745.9745"/>
<polygon fill="#000000" stroke="#000000" points="786.9018,-743.3123 777.4196,-738.586 781.8848,-748.1939 786.9018,-743.3123"/>
</g>
<!-- 3491&#45;&gt;174 -->
<g id="edge24" class="edge">
<title>3491&#45;&gt;174</title>
<path fill="none" stroke="#000000" d="M940.3958,-315.1422C944.6815,-306.6677 949.925,-296.2991 954.6828,-286.891"/>
<polygon fill="#000000" stroke="#000000" points="957.8355,-288.4123 959.2251,-277.9089 951.5889,-285.2532 957.8355,-288.4123"/>
</g>
<!-- 6762 -->
<g id="node31" class="node">
<title>6762</title>
<ellipse fill="none" stroke="#000000" cx="799.2534" cy="-637.8162" rx="28.6953" ry="18"/>
<text text-anchor="middle" x="799.2534" y="-634.1162" font-family="Times,serif" font-size="14.00" fill="#000000">6762</text>
</g>
<!-- 3549&#45;&gt;6762 -->
<g id="edge25" class="edge">
<title>3549&#45;&gt;6762</title>
<path fill="none" stroke="#000000" d="M769.7988,-705.2249C774.8799,-693.5964 781.6376,-678.1311 787.3984,-664.947"/>
<polygon fill="#000000" stroke="#000000" points="790.7683,-665.976 791.5652,-655.4111 784.3539,-663.1731 790.7683,-665.976"/>
</g>
<!-- 30070 -->
<g id="node52" class="node">
<title>30070</title>
<ellipse fill="none" stroke="#000000" cx="666.7577" cy="-737.2996" rx="32.4942" ry="18"/>
<text text-anchor="middle" x="666.7577" y="-733.5996" font-family="Times,serif" font-size="14.00" fill="#000000">30070</text>
</g>
<!-- 3549&#45;&gt;30070 -->
<g id="edge26" class="edge">
<title>3549&#45;&gt;30070</title>
<path fill="none" stroke="#000000" d="M734.2672,-727.0628C726.1291,-728.2968 717.0521,-729.6732 708.2599,-731.0064"/>
<polygon fill="#000000" stroke="#000000" points="707.5049,-727.5808 698.1427,-732.5405 708.5544,-734.5017 707.5049,-727.5808"/>
</g>
<!-- 3597 -->
<g id="node21" class="node">
<title>3597</title>
<ellipse fill="none" stroke="#000000" cx="1037.7568" cy="-929.3596" rx="28.6953" ry="18"/>
<text text-anchor="middle" x="1037.7568" y="-925.6596" font-family="Times,serif" font-size="14.00" fill="#000000">3597</text>
</g>
<!-- 37179 -->
<g id="node54" class="node">
<title>37179</title>
<ellipse fill="none" stroke="#000000" cx="373.8876" cy="-491.8752" rx="32.4942" ry="18"/>
<text text-anchor="middle" x="373.8876" y="-488.1752" font-family="Times,serif" font-size="14.00" fill="#000000">37179</text>
</g>
<!-- 3741&#45;&gt;37179 -->
<g id="edge27" class="edge">
<title>3741&#45;&gt;37179</title>
<path fill="none" stroke="#000000" d="M398.7117,-549.927C394.7831,-540.7399 389.8846,-529.2846 385.4796,-518.9833"/>
<polygon fill="#000000" stroke="#000000" points="388.605,-517.3904 381.4551,-509.5719 382.1688,-520.1427 388.605,-517.3904"/>
</g>
<!-- 4635 -->
<g id="node23" class="node">
<title>4635</title>
<ellipse fill="none" stroke="#000000" cx="224.2766" cy="-1027.1648" rx="28.6953" ry="18"/>
<text text-anchor="middle" x="224.2766" y="-1023.4648" font-family="Times,serif" font-size="14.00" fill="#000000">4635</text>
</g>
<!-- 4637 -->
<g id="node24" class="node">
<title>4637</title>
<ellipse fill="none" stroke="#000000" cx="360.9614" cy="-866.189" rx="28.6953" ry="18"/>
<text text-anchor="middle" x="360.9614" y="-862.489" font-family="Times,serif" font-size="14.00" fill="#000000">4637</text>
</g>
<!-- 4739 -->
<g id="node25" class="node">
<title>4739</title>
<ellipse fill="none" stroke="#000000" cx="126.9456" cy="-989.0078" rx="28.6953" ry="18"/>
<text text-anchor="middle" x="126.9456" y="-985.3078" font-family="Times,serif" font-size="14.00" fill="#000000">4739</text>
</g>
<!-- 38880 -->
<g id="node57" class="node">
<title>38880</title>
<ellipse fill="none" stroke="#000000" cx="72.2525" cy="-1048.9266" rx="32.4942" ry="18"/>
<text text-anchor="middle" x="72.2525" y="-1045.2266" font-family="Times,serif" font-size="14.00" fill="#000000">38880</text>
</g>
<!-- 4739&#45;&gt;38880 -->
<g id="edge28" class="edge">
<title>4739&#45;&gt;38880</title>
<path fill="none" stroke="#000000" d="M112.5756,-1004.7507C106.9341,-1010.9313 100.3333,-1018.1627 94.1251,-1024.9642"/>
<polygon fill="#000000" stroke="#000000" points="91.255,-1022.9169 87.0983,-1032.6623 96.4251,-1027.6361 91.255,-1022.9169"/>
</g>
<!-- 4755 -->
<g id="node26" class="node">
<title>4755</title>
<ellipse fill="none" stroke="#000000" cx="55.0244" cy="-595.6114" rx="28.6953" ry="18"/>
<text text-anchor="middle" x="55.0244" y="-591.9114" font-family="Times,serif" font-size="14.00" fill="#000000">4755</text>
</g>
<!-- 5692 -->
<g id="node28" class="node">
<title>5692</title>
<ellipse fill="none" stroke="#000000" cx="1014.748" cy="-992.6775" rx="28.6953" ry="18"/>
<text text-anchor="middle" x="1014.748" y="-988.9775" font-family="Times,serif" font-size="14.00" fill="#000000">5692</text>
</g>
<!-- 5692&#45;&gt;3597 -->
<g id="edge29" class="edge">
<title>5692&#45;&gt;3597</title>
<path fill="none" stroke="#000000" d="M1021.1572,-975.0399C1023.2166,-969.3727 1025.549,-962.9543 1027.8008,-956.7576"/>
<polygon fill="#000000" stroke="#000000" points="1031.0962,-957.9366 1031.2221,-947.3425 1024.5171,-955.5458 1031.0962,-957.9366"/>
</g>
<!-- 10834 -->
<g id="node44" class="node">
<title>10834</title>
<ellipse fill="none" stroke="#000000" cx="954.6164" cy="-906.0898" rx="32.4942" ry="18"/>
<text text-anchor="middle" x="954.6164" y="-902.3898" font-family="Times,serif" font-size="14.00" fill="#000000">10834</text>
</g>
<!-- 5692&#45;&gt;10834 -->
<g id="edge30" class="edge">
<title>5692&#45;&gt;10834</title>
<path fill="none" stroke="#000000" d="M1003.154,-975.9825C994.3927,-963.3665 982.2147,-945.8305 972.2489,-931.48"/>
<polygon fill="#000000" stroke="#000000" points="974.9588,-929.2462 966.38,-923.029 969.2093,-933.2391 974.9588,-929.2462"/>
</g>
<!-- 11008 -->
<g id="node45" class="node">
<title>11008</title>
<ellipse fill="none" stroke="#000000" cx="1076.2912" cy="-929.6931" rx="32.4942" ry="18"/>
<text text-anchor="middle" x="1076.2912" y="-925.9931" font-family="Times,serif" font-size="14.00" fill="#000000">11008</text>
</g>
<!-- 5692&#45;&gt;11008 -->
<g id="edge31" class="edge">
<title>5692&#45;&gt;11008</title>
<path fill="none" stroke="#000000" d="M1029.9609,-977.1083C1036.902,-970.0047 1045.2763,-961.4343 1052.9853,-953.5448"/>
<polygon fill="#000000" stroke="#000000" points="1055.9093,-955.5603 1060.3948,-945.9618 1050.9026,-950.6682 1055.9093,-955.5603"/>
</g>
<!-- 27865 -->
<g id="node50" class="node">
<title>27865</title>
<ellipse fill="none" stroke="#000000" cx="1101.9099" cy="-960.0103" rx="32.4942" ry="18"/>
<text text-anchor="middle" x="1101.9099" y="-956.3103" font-family="Times,serif" font-size="14.00" fill="#000000">27865</text>
</g>
<!-- 5692&#45;&gt;27865 -->
<g id="edge32" class="edge">
<title>5692&#45;&gt;27865</title>
<path fill="none" stroke="#000000" d="M1039.492,-983.4038C1047.5369,-980.3886 1056.6422,-976.9761 1065.3618,-973.7081"/>
<polygon fill="#000000" stroke="#000000" points="1066.8298,-976.8957 1074.9654,-970.1088 1064.3731,-970.3409 1066.8298,-976.8957"/>
</g>
<!-- 28065 -->
<g id="node51" class="node">
<title>28065</title>
<ellipse fill="none" stroke="#000000" cx="939.0275" cy="-1010.2828" rx="32.4942" ry="18"/>
<text text-anchor="middle" x="939.0275" y="-1006.5828" font-family="Times,serif" font-size="14.00" fill="#000000">28065</text>
</g>
<!-- 5692&#45;&gt;28065 -->
<g id="edge33" class="edge">
<title>5692&#45;&gt;28065</title>
<path fill="none" stroke="#000000" d="M987.8386,-998.934C985.0091,-999.5919 982.0904,-1000.2705 979.1534,-1000.9533"/>
<polygon fill="#000000" stroke="#000000" points="978.1483,-997.5936 969.2007,-1003.2674 979.7336,-1004.4117 978.1483,-997.5936"/>
</g>
<!-- 52317 -->
<g id="node58" class="node">
<title>52317</title>
<ellipse fill="none" stroke="#000000" cx="983.5674" cy="-1086.1813" rx="32.4942" ry="18"/>
<text text-anchor="middle" x="983.5674" y="-1082.4813" font-family="Times,serif" font-size="14.00" fill="#000000">52317</text>
</g>
<!-- 5692&#45;&gt;52317 -->
<g id="edge34" class="edge">
<title>5692&#45;&gt;52317</title>
<path fill="none" stroke="#000000" d="M1008.7361,-1010.7059C1004.2068,-1024.2882 997.9166,-1043.1511 992.7577,-1058.6214"/>
<polygon fill="#000000" stroke="#000000" points="989.4041,-1057.6145 989.5609,-1068.2081 996.0446,-1059.8289 989.4041,-1057.6145"/>
</g>
<!-- 52375 -->
<g id="node59" class="node">
<title>52375</title>
<ellipse fill="none" stroke="#000000" cx="1094.5196" cy="-1030.1278" rx="32.4942" ry="18"/>
<text text-anchor="middle" x="1094.5196" y="-1026.4278" font-family="Times,serif" font-size="14.00" fill="#000000">52375</text>
</g>
<!-- 5692&#45;&gt;52375 -->
<g id="edge35" class="edge">
<title>5692&#45;&gt;52375</title>
<path fill="none" stroke="#000000" d="M1037.8213,-1003.5096C1044.8874,-1006.827 1052.8153,-1010.5489 1060.4523,-1014.1342"/>
<polygon fill="#000000" stroke="#000000" points="1059.0066,-1017.322 1069.5461,-1018.4035 1061.9814,-1010.9855 1059.0066,-1017.322"/>
</g>
<!-- 52376 -->
<g id="node60" class="node">
<title>52376</title>
<ellipse fill="none" stroke="#000000" cx="942.5389" cy="-1052.1286" rx="32.4942" ry="18"/>
<text text-anchor="middle" x="942.5389" y="-1048.4286" font-family="Times,serif" font-size="14.00" fill="#000000">52376</text>
</g>
<!-- 5692&#45;&gt;52376 -->
<g id="edge36" class="edge">
<title>5692&#45;&gt;52376</title>
<path fill="none" stroke="#000000" d="M997.2682,-1007.0689C988.7456,-1014.0858 978.3162,-1022.6724 968.8565,-1030.4608"/>
<polygon fill="#000000" stroke="#000000" points="966.3608,-1027.982 960.8653,-1037.0401 970.8101,-1033.386 966.3608,-1027.982"/>
</g>
<!-- 52380 -->
<g id="node61" class="node">
<title>52380</title>
<ellipse fill="none" stroke="#000000" cx="990.1941" cy="-1050.4037" rx="32.4942" ry="18"/>
<text text-anchor="middle" x="990.1941" y="-1046.7037" font-family="Times,serif" font-size="14.00" fill="#000000">52380</text>
</g>
<!-- 5692&#45;&gt;52380 -->
<g id="edge37" class="edge">
<title>5692&#45;&gt;52380</title>
<path fill="none" stroke="#000000" d="M1007.2476,-1010.3109C1005.4865,-1014.4513 1003.57,-1018.957 1001.6786,-1023.4035"/>
<polygon fill="#000000" stroke="#000000" points="998.342,-1022.3061 997.6486,-1032.8782 1004.7835,-1025.046 998.342,-1022.3061"/>
</g>
<!-- 52413 -->
<g id="node62" class="node">
<title>52413</title>
<ellipse fill="none" stroke="#000000" cx="1033.5015" cy="-1079.8242" rx="32.4942" ry="18"/>
<text text-anchor="middle" x="1033.5015" y="-1076.1242" font-family="Times,serif" font-size="14.00" fill="#000000">52413</text>
</g>
<!-- 5692&#45;&gt;52413 -->
<g id="edge38" class="edge">
<title>5692&#45;&gt;52413</title>
<path fill="none" stroke="#000000" d="M1018.6338,-1010.7343C1021.1734,-1022.536 1024.5428,-1038.1934 1027.4318,-1051.6186"/>
<polygon fill="#000000" stroke="#000000" points="1024.0952,-1052.7506 1029.6208,-1061.7904 1030.9386,-1051.2779 1024.0952,-1052.7506"/>
</g>
<!-- 52431 -->
<g id="node63" class="node">
<title>52431</title>
<ellipse fill="none" stroke="#000000" cx="967.9026" cy="-968.8884" rx="32.4942" ry="18"/>
<text text-anchor="middle" x="967.9026" y="-965.1884" font-family="Times,serif" font-size="14.00" fill="#000000">52431</text>
</g>
<!-- 5692&#45;&gt;52431 -->
<g id="edge39" class="edge">
<title>5692&#45;&gt;52431</title>
<path fill="none" stroke="#000000" d="M992.4229,-981.3403C992.3286,-981.2924 992.2343,-981.2445 992.14,-981.1967"/>
<polygon fill="#000000" stroke="#000000" points="1002.359,-982.4617 991.8571,-981.053 999.1883,-988.7033 1002.359,-982.4617"/>
</g>
<!-- 262230 -->
<g id="node64" class="node">
<title>262230</title>
<ellipse fill="none" stroke="#000000" cx="1065.9373" cy="-1057.6701" rx="37.0935" ry="18"/>
<text text-anchor="middle" x="1065.9373" y="-1053.9701" font-family="Times,serif" font-size="14.00" fill="#000000">262230</text>
</g>
<!-- 5692&#45;&gt;262230 -->
<g id="edge40" class="edge">
<title>5692&#45;&gt;262230</title>
<path fill="none" stroke="#000000" d="M1027.6652,-1009.0779C1033.2927,-1016.2227 1040.0139,-1024.7564 1046.2423,-1032.6642"/>
<polygon fill="#000000" stroke="#000000" points="1043.5509,-1034.9037 1052.4879,-1040.594 1049.05,-1030.5725 1043.5509,-1034.9037"/>
</g>
<!-- 264608 -->
<g id="node65" class="node">
<title>264608</title>
<ellipse fill="none" stroke="#000000" cx="1089.7648" cy="-993.5434" rx="37.0935" ry="18"/>
<text text-anchor="middle" x="1089.7648" y="-989.8434" font-family="Times,serif" font-size="14.00" fill="#000000">264608</text>
</g>
<!-- 5692&#45;&gt;264608 -->
<g id="edge41" class="edge">
<title>5692&#45;&gt;264608</title>
<path fill="none" stroke="#000000" d="M1043.5369,-993.0098C1043.6299,-993.0109 1043.7229,-993.0119 1043.816,-993.013"/>
<polygon fill="#000000" stroke="#000000" points="1042.5738,-996.4988 1052.6135,-993.1146 1042.6546,-989.4993 1042.5738,-996.4988"/>
</g>
<!-- 6453&#45;&gt;3257 -->
<g id="edge42" class="edge">
<title>6453&#45;&gt;3257</title>
<path fill="none" stroke="#000000" d="M874.4901,-463.0927C878.441,-454.0741 883.3284,-442.9178 887.7279,-432.8753"/>
<polygon fill="#000000" stroke="#000000" points="890.943,-434.2584 891.7499,-423.6943 884.5313,-431.4495 890.943,-434.2584"/>
</g>
<!-- 6762&#45;&gt;2914 -->
<g id="edge43" class="edge">
<title>6762&#45;&gt;2914</title>
<path fill="none" stroke="#000000" d="M806.6607,-620.4077C811.1036,-609.9663 816.8485,-596.4646 821.8733,-584.6556"/>
<polygon fill="#000000" stroke="#000000" points="825.1855,-585.8105 825.8803,-575.2385 818.7443,-583.0698 825.1855,-585.8105"/>
</g>
<!-- 6904 -->
<g id="node32" class="node">
<title>6904</title>
<ellipse fill="none" stroke="#000000" cx="573.0499" cy="-739.3865" rx="28.6953" ry="18"/>
<text text-anchor="middle" x="573.0499" y="-735.6865" font-family="Times,serif" font-size="14.00" fill="#000000">6904</text>
</g>
<!-- 6904&#45;&gt;2687 -->
<g id="edge44" class="edge">
<title>6904&#45;&gt;2687</title>
<path fill="none" stroke="#000000" d="M544.6724,-736.3271C536.9458,-735.4941 528.4452,-734.5777 520.2596,-733.6952"/>
<polygon fill="#000000" stroke="#000000" points="520.4592,-730.1965 510.1416,-732.6044 519.7088,-737.1562 520.4592,-730.1965"/>
</g>
<!-- 6939 -->
<g id="node33" class="node">
<title>6939</title>
<ellipse fill="none" stroke="#000000" cx="114.6673" cy="-909.8362" rx="28.6953" ry="18"/>
<text text-anchor="middle" x="114.6673" y="-906.1362" font-family="Times,serif" font-size="14.00" fill="#000000">6939</text>
</g>
<!-- 12266 -->
<g id="node46" class="node">
<title>12266</title>
<ellipse fill="none" stroke="#000000" cx="32.4971" cy="-903.2294" rx="32.4942" ry="18"/>
<text text-anchor="middle" x="32.4971" y="-899.5294" font-family="Times,serif" font-size="14.00" fill="#000000">12266</text>
</g>
<!-- 6939&#45;&gt;12266 -->
<g id="edge45" class="edge">
<title>6939&#45;&gt;12266</title>
<path fill="none" stroke="#000000" d="M85.9282,-907.5254C82.2894,-907.2329 78.5081,-906.9288 74.714,-906.6238"/>
<polygon fill="#000000" stroke="#000000" points="74.9781,-903.1338 64.7297,-905.821 74.417,-910.1113 74.9781,-903.1338"/>
</g>
<!-- 7016 -->
<g id="node34" class="node">
<title>7016</title>
<ellipse fill="none" stroke="#000000" cx="663.9372" cy="-805.6474" rx="28.6953" ry="18"/>
<text text-anchor="middle" x="663.9372" y="-801.9474" font-family="Times,serif" font-size="14.00" fill="#000000">7016</text>
</g>
<!-- 7922 -->
<g id="node39" class="node">
<title>7922</title>
<ellipse fill="none" stroke="#000000" cx="655.1743" cy="-880.5876" rx="28.6953" ry="18"/>
<text text-anchor="middle" x="655.1743" y="-876.8876" font-family="Times,serif" font-size="14.00" fill="#000000">7922</text>
</g>
<!-- 7016&#45;&gt;7922 -->
<g id="edge46" class="edge">
<title>7016&#45;&gt;7922</title>
<path fill="none" stroke="#000000" d="M661.816,-823.7883C660.8042,-832.4411 659.571,-842.9875 658.4431,-852.6331"/>
<polygon fill="#000000" stroke="#000000" points="654.9612,-852.2749 657.276,-862.6137 661.9139,-853.0879 654.9612,-852.2749"/>
</g>
<!-- 7473 -->
<g id="node36" class="node">
<title>7473</title>
<ellipse fill="none" stroke="#000000" cx="481.2902" cy="-577.5065" rx="28.6953" ry="18"/>
<text text-anchor="middle" x="481.2902" y="-573.8065" font-family="Times,serif" font-size="14.00" fill="#000000">7473</text>
</g>
<!-- 7474 -->
<g id="node37" class="node">
<title>7474</title>
<ellipse fill="none" stroke="#000000" cx="294.2546" cy="-769.9821" rx="28.6953" ry="18"/>
<text text-anchor="middle" x="294.2546" y="-766.2821" font-family="Times,serif" font-size="14.00" fill="#000000">7474</text>
</g>
<!-- 7545&#45;&gt;4635 -->
<g id="edge47" class="edge">
<title>7545&#45;&gt;4635</title>
<path fill="none" stroke="#000000" d="M202.2644,-963.439C205.9482,-974.1039 210.7192,-987.916 214.8773,-999.9537"/>
<polygon fill="#000000" stroke="#000000" points="211.6154,-1001.2306 218.1886,-1009.5399 218.2318,-998.9451 211.6154,-1001.2306"/>
</g>
<!-- 7545&#45;&gt;4739 -->
<g id="edge48" class="edge">
<title>7545&#45;&gt;4739</title>
<path fill="none" stroke="#000000" d="M175.7709,-958.5157C169.6296,-962.351 162.7655,-966.6378 156.169,-970.7574"/>
<polygon fill="#000000" stroke="#000000" points="154.0605,-967.9476 147.4326,-976.2134 157.7684,-973.8849 154.0605,-967.9476"/>
</g>
<!-- 7545&#45;&gt;6939 -->
<g id="edge49" class="edge">
<title>7545&#45;&gt;6939</title>
<path fill="none" stroke="#000000" d="M172.5921,-935.3833C164.7363,-931.9186 155.8379,-927.994 147.4144,-924.2789"/>
<polygon fill="#000000" stroke="#000000" points="148.7487,-921.0422 138.1867,-920.2092 145.9239,-927.4469 148.7487,-921.0422"/>
</g>
<!-- 9942 -->
<g id="node42" class="node">
<title>9942</title>
<ellipse fill="none" stroke="#000000" cx="179.0455" cy="-1021.3958" rx="28.6953" ry="18"/>
<text text-anchor="middle" x="179.0455" y="-1017.6958" font-family="Times,serif" font-size="14.00" fill="#000000">9942</text>
</g>
<!-- 7545&#45;&gt;9942 -->
<g id="edge50" class="edge">
<title>7545&#45;&gt;9942</title>
<path fill="none" stroke="#000000" d="M192.1075,-963.6996C190.0968,-972.581 187.6228,-983.5092 185.3706,-993.4572"/>
<polygon fill="#000000" stroke="#000000" points="181.9272,-992.8164 183.1327,-1003.3424 188.7544,-994.3621 181.9272,-992.8164"/>
</g>
<!-- 10026 -->
<g id="node43" class="node">
<title>10026</title>
<ellipse fill="none" stroke="#000000" cx="120.6442" cy="-638.4297" rx="32.4942" ry="18"/>
<text text-anchor="middle" x="120.6442" y="-634.7297" font-family="Times,serif" font-size="14.00" fill="#000000">10026</text>
</g>
<!-- 9498&#45;&gt;10026 -->
<g id="edge51" class="edge">
<title>9498&#45;&gt;10026</title>
<path fill="none" stroke="#000000" d="M168.2602,-672.7704C162.3474,-668.5061 155.6838,-663.7003 149.2559,-659.0645"/>
<polygon fill="#000000" stroke="#000000" points="150.8874,-655.9258 140.7293,-652.9151 146.7927,-661.6034 150.8874,-655.9258"/>
</g>
<!-- 9505&#45;&gt;7473 -->
<g id="edge52" class="edge">
<title>9505&#45;&gt;7473</title>
<path fill="none" stroke="#000000" d="M489.4958,-642.8449C488.1363,-632.0195 486.3796,-618.0314 484.8406,-605.777"/>
<polygon fill="#000000" stroke="#000000" points="488.2785,-605.0633 483.5597,-595.5774 481.3331,-605.9356 488.2785,-605.0633"/>
</g>
<!-- 10026&#45;&gt;4755 -->
<g id="edge53" class="edge">
<title>10026&#45;&gt;4755</title>
<path fill="none" stroke="#000000" d="M99.5205,-624.646C94.5281,-621.3884 89.1205,-617.8598 83.8519,-614.422"/>
<polygon fill="#000000" stroke="#000000" points="85.5019,-611.3194 75.2144,-608.7858 81.6765,-617.1817 85.5019,-611.3194"/>
</g>
<!-- 12956 -->
<g id="node47" class="node">
<title>12956</title>
<ellipse fill="none" stroke="#000000" cx="884.8667" cy="-851.3666" rx="32.4942" ry="18"/>
<text text-anchor="middle" x="884.8667" y="-847.6666" font-family="Times,serif" font-size="14.00" fill="#000000">12956</text>
</g>
<!-- 10834&#45;&gt;12956 -->
<g id="edge54" class="edge">
<title>10834&#45;&gt;12956</title>
<path fill="none" stroke="#000000" d="M935.557,-891.1365C928.2525,-885.4056 919.7737,-878.7535 911.8651,-872.5487"/>
<polygon fill="#000000" stroke="#000000" points="913.9311,-869.7209 903.903,-866.3019 909.6102,-875.2282 913.9311,-869.7209"/>
</g>
<!-- 22927 -->
<g id="node49" class="node">
<title>22927</title>
<ellipse fill="none" stroke="#000000" cx="1005.6893" cy="-839.4189" rx="32.4942" ry="18"/>
<text text-anchor="middle" x="1005.6893" y="-835.7189" font-family="Times,serif" font-size="14.00" fill="#000000">22927</text>
</g>
<!-- 10834&#45;&gt;22927 -->
<g id="edge55" class="edge">
<title>10834&#45;&gt;22927</title>
<path fill="none" stroke="#000000" d="M967.5043,-889.2659C973.3553,-881.6279 980.3916,-872.4428 986.8213,-864.0493"/>
<polygon fill="#000000" stroke="#000000" points="989.6798,-866.0733 992.9825,-856.0064 984.1228,-861.8165 989.6798,-866.0733"/>
</g>
<!-- 12956&#45;&gt;3356 -->
<g id="edge56" class="edge">
<title>12956&#45;&gt;3356</title>
<path fill="none" stroke="#000000" d="M869.8459,-835.3353C863.0265,-828.0572 854.8258,-819.3047 847.3319,-811.3067"/>
<polygon fill="#000000" stroke="#000000" points="849.5424,-808.5469 840.151,-803.6427 844.4343,-813.3331 849.5424,-808.5469"/>
</g>
<!-- 18540 -->
<g id="node48" class="node">
<title>18540</title>
<ellipse fill="none" stroke="#000000" cx="665.9787" cy="-672.4845" rx="32.4942" ry="18"/>
<text text-anchor="middle" x="665.9787" y="-668.7845" font-family="Times,serif" font-size="14.00" fill="#000000">18540</text>
</g>
<!-- 30070&#45;&gt;6904 -->
<g id="edge57" class="edge">
<title>30070&#45;&gt;6904</title>
<path fill="none" stroke="#000000" d="M634.2462,-738.0236C627.0604,-738.1836 619.3764,-738.3548 611.9654,-738.5198"/>
<polygon fill="#000000" stroke="#000000" points="611.6698,-735.0254 601.7503,-738.7473 611.8258,-742.0237 611.6698,-735.0254"/>
</g>
<!-- 30070&#45;&gt;7016 -->
<g id="edge58" class="edge">
<title>30070&#45;&gt;7016</title>
<path fill="none" stroke="#000000" d="M666.0018,-755.6155C665.73,-762.2042 665.4164,-769.8033 665.117,-777.0575"/>
<polygon fill="#000000" stroke="#000000" points="661.6105,-777.145 664.6952,-787.2808 668.6046,-777.4337 661.6105,-777.145"/>
</g>
<!-- 30070&#45;&gt;18540 -->
<g id="edge59" class="edge">
<title>30070&#45;&gt;18540</title>
<path fill="none" stroke="#000000" d="M666.5407,-719.245C666.4726,-713.5818 666.3957,-707.186 666.3212,-700.9838"/>
<polygon fill="#000000" stroke="#000000" points="669.8199,-700.8498 666.1999,-690.8926 662.8204,-700.934 669.8199,-700.8498"/>
</g>
<!-- 32787&#45;&gt;703 -->
<g id="edge60" class="edge">
<title>32787&#45;&gt;703</title>
<path fill="none" stroke="#000000" d="M306.7943,-798.7014C297.44,-788.869 285.3339,-776.1441 274.9718,-765.2523"/>
<polygon fill="#000000" stroke="#000000" points="277.2276,-762.5456 267.7991,-757.713 272.1561,-767.3705 277.2276,-762.5456"/>
</g>
<!-- 32787&#45;&gt;2764 -->
<g id="edge61" class="edge">
<title>32787&#45;&gt;2764</title>
<path fill="none" stroke="#000000" d="M311.615,-832.01C304.786,-843.14 295.7687,-857.8366 288.1109,-870.3175"/>
<polygon fill="#000000" stroke="#000000" points="285.0723,-868.5774 282.8258,-878.9313 291.0387,-872.2382 285.0723,-868.5774"/>
</g>
<!-- 32787&#45;&gt;4637 -->
<g id="edge62" class="edge">
<title>32787&#45;&gt;4637</title>
<path fill="none" stroke="#000000" d="M334.8577,-831.6544C337.2758,-834.8534 339.852,-838.2617 342.4084,-841.6437"/>
<polygon fill="#000000" stroke="#000000" points="339.7989,-843.9959 348.621,-849.8628 345.3831,-839.7749 339.7989,-843.9959"/>
</g>
<!-- 32787&#45;&gt;7474 -->
<g id="edge63" class="edge">
<title>32787&#45;&gt;7474</title>
<path fill="none" stroke="#000000" d="M311.4441,-797.6258C311.0293,-796.9586 310.6104,-796.285 310.1891,-795.6074"/>
<polygon fill="#000000" stroke="#000000" points="312.9539,-793.4255 304.701,-786.7817 307.0094,-797.122 312.9539,-793.4255"/>
</g>
<!-- 38333&#45;&gt;1221 -->
<g id="edge64" class="edge">
<title>38333&#45;&gt;1221</title>
<path fill="none" stroke="#000000" d="M314.0981,-988.4295C315.7317,-999.5671 317.8507,-1014.014 319.6908,-1026.5596"/>
<polygon fill="#000000" stroke="#000000" points="316.2399,-1027.1502 321.1542,-1036.5364 323.1658,-1026.1343 316.2399,-1027.1502"/>
</g>
</g>
</svg>
