<?xml version="1.0" encoding="UTF-8" standalone="no"?>
<!DOCTYPE svg PUBLIC "-//W3C//DTD SVG 1.1//EN"
 "http://www.w3.org/Graphics/SVG/1.1/DTD/svg11.dtd">
<!-- Generated by graphviz version 2.40.1 (20161225.0304)
 -->
<!-- Title: %3 Pages: 1 -->
<svg width="824pt" height="562pt"
 viewBox="0.00 0.00 824.45 562.40" xmlns="http://www.w3.org/2000/svg" xmlns:xlink="http://www.w3.org/1999/xlink">
<g id="graph0" class="graph" transform="scale(1 1) rotate(0) translate(4 558.3951)">
<title>%3</title>
<polygon fill="#ffffff" stroke="transparent" points="-4,4 -4,-558.3951 820.4542,-558.3951 820.4542,4 -4,4"/>
<!-- 174 -->
<g id="node1" class="node">
<title>174</title>
<ellipse fill="none" stroke="#000000" cx="173.0968" cy="-71.4337" rx="27" ry="18"/>
<text text-anchor="middle" x="173.0968" y="-67.7337" font-family="Times,serif" font-size="14.00" fill="#000000">174</text>
</g>
<!-- 209 -->
<g id="node2" class="node">
<title>209</title>
<ellipse fill="none" stroke="#000000" cx="130.5586" cy="-55.1206" rx="27" ry="18"/>
<text text-anchor="middle" x="130.5586" y="-51.4206" font-family="Times,serif" font-size="14.00" fill="#000000">209</text>
</g>
<!-- 174&#45;&gt;209 -->
<g id="edge1" class="edge">
<title>174&#45;&gt;209</title>
<path fill="none" stroke="#000000" d="M149.3403,-62.3233C149.2642,-62.2941 149.1881,-62.2649 149.1121,-62.2357"/>
<polygon fill="#000000" stroke="#000000" points="159.4755,-62.4636 148.8841,-62.1483 156.9672,-68.9996 159.4755,-62.4636"/>
</g>
<!-- 1299 -->
<g id="node8" class="node">
<title>1299</title>
<ellipse fill="none" stroke="#000000" cx="72.0099" cy="-70.1673" rx="28.6953" ry="18"/>
<text text-anchor="middle" x="72.0099" y="-66.4673" font-family="Times,serif" font-size="14.00" fill="#000000">1299</text>
</g>
<!-- 209&#45;&gt;1299 -->
<g id="edge2" class="edge">
<title>209&#45;&gt;1299</title>
<path fill="none" stroke="#000000" d="M105.0486,-61.6765C104.9176,-61.7102 104.7866,-61.7438 104.6554,-61.7776"/>
<polygon fill="#000000" stroke="#000000" points="107.5417,-57.4219 98.7276,-63.301 109.2841,-64.2016 107.5417,-57.4219"/>
</g>
<!-- 2828 -->
<g id="node14" class="node">
<title>2828</title>
<ellipse fill="none" stroke="#000000" cx="147.3689" cy="-18" rx="28.6953" ry="18"/>
<text text-anchor="middle" x="147.3689" y="-14.3" font-family="Times,serif" font-size="14.00" fill="#000000">2828</text>
</g>
<!-- 209&#45;&gt;2828 -->
<g id="edge3" class="edge">
<title>209&#45;&gt;2828</title>
<path fill="none" stroke="#000000" d="M138.3732,-37.8644C138.4161,-37.7697 138.459,-37.675 138.5019,-37.5802"/>
<polygon fill="#000000" stroke="#000000" points="138.4665,-46.1421 139.4037,-35.5887 132.0899,-43.2543 138.4665,-46.1421"/>
</g>
<!-- 701 -->
<g id="node3" class="node">
<title>701</title>
<ellipse fill="none" stroke="#000000" cx="96.6974" cy="-49.3772" rx="27" ry="18"/>
<text text-anchor="middle" x="96.6974" y="-45.6772" font-family="Times,serif" font-size="14.00" fill="#000000">701</text>
</g>
<!-- 703 -->
<g id="node4" class="node">
<title>703</title>
<ellipse fill="none" stroke="#000000" cx="606.5128" cy="-312.6352" rx="27" ry="18"/>
<text text-anchor="middle" x="606.5128" y="-308.9352" font-family="Times,serif" font-size="14.00" fill="#000000">703</text>
</g>
<!-- 9498 -->
<g id="node40" class="node">
<title>9498</title>
<ellipse fill="none" stroke="#000000" cx="618.6" cy="-359.2424" rx="28.6953" ry="18"/>
<text text-anchor="middle" x="618.6" y="-355.5424" font-family="Times,serif" font-size="14.00" fill="#000000">9498</text>
</g>
<!-- 703&#45;&gt;9498 -->
<g id="edge4" class="edge">
<title>703&#45;&gt;9498</title>
<path fill="none" stroke="#000000" d="M611.1514,-330.5215C611.208,-330.7397 611.2648,-330.9586 611.3217,-331.178"/>
<polygon fill="#000000" stroke="#000000" points="608.0154,-332.3717 613.9138,-341.1728 614.7913,-330.6144 608.0154,-332.3717"/>
</g>
<!-- 1221 -->
<g id="node5" class="node">
<title>1221</title>
<ellipse fill="none" stroke="#000000" cx="656.2311" cy="-146.1309" rx="28.6953" ry="18"/>
<text text-anchor="middle" x="656.2311" y="-142.4309" font-family="Times,serif" font-size="14.00" fill="#000000">1221</text>
</g>
<!-- 1239 -->
<g id="node6" class="node">
<title>1239</title>
<ellipse fill="none" stroke="#000000" cx="75.1309" cy="-21.0409" rx="28.6953" ry="18"/>
<text text-anchor="middle" x="75.1309" y="-17.3409" font-family="Times,serif" font-size="14.00" fill="#000000">1239</text>
</g>
<!-- 1273 -->
<g id="node7" class="node">
<title>1273</title>
<ellipse fill="none" stroke="#000000" cx="51.6652" cy="-37.0363" rx="28.6953" ry="18"/>
<text text-anchor="middle" x="51.6652" y="-33.3363" font-family="Times,serif" font-size="14.00" fill="#000000">1273</text>
</g>
<!-- 1299&#45;&gt;701 -->
<g id="edge5" class="edge">
<title>1299&#45;&gt;701</title>
<path fill="none" stroke="#000000" d="M89.1562,-55.7279C89.222,-55.6725 89.2876,-55.6172 89.353,-55.5621"/>
<polygon fill="#000000" stroke="#000000" points="84.1535,-64.5179 89.5484,-55.3975 79.6435,-59.1629 84.1535,-64.5179"/>
</g>
<!-- 1299&#45;&gt;1239 -->
<g id="edge6" class="edge">
<title>1299&#45;&gt;1239</title>
<path fill="none" stroke="#000000" d="M73.1543,-52.1534C73.2137,-51.2189 73.2739,-50.2708 73.3346,-49.315"/>
<polygon fill="#000000" stroke="#000000" points="76.8454,-49.2545 73.9866,-39.0526 69.8595,-48.8106 76.8454,-49.2545"/>
</g>
<!-- 1299&#45;&gt;1273 -->
<g id="edge7" class="edge">
<title>1299&#45;&gt;1273</title>
<path fill="none" stroke="#000000" d="M61.5992,-53.2136C61.5601,-53.1499 61.521,-53.0862 61.4819,-53.0225"/>
<polygon fill="#000000" stroke="#000000" points="69.5824,-59.5216 61.3646,-52.8316 63.6168,-63.1861 69.5824,-59.5216"/>
</g>
<!-- 2497 -->
<g id="node9" class="node">
<title>2497</title>
<ellipse fill="none" stroke="#000000" cx="28.5975" cy="-54.6164" rx="28.6953" ry="18"/>
<text text-anchor="middle" x="28.5975" y="-50.9164" font-family="Times,serif" font-size="14.00" fill="#000000">2497</text>
</g>
<!-- 1299&#45;&gt;2497 -->
<g id="edge8" class="edge">
<title>1299&#45;&gt;2497</title>
<path fill="none" stroke="#000000" d="M47.0082,-61.2114C46.9328,-61.1844 46.8575,-61.1574 46.7822,-61.1304"/>
<polygon fill="#000000" stroke="#000000" points="57.1523,-61.1296 46.5566,-61.0496 54.7898,-67.7197 57.1523,-61.1296"/>
</g>
<!-- 3320 -->
<g id="node17" class="node">
<title>3320</title>
<ellipse fill="none" stroke="#000000" cx="63.302" cy="-111.2701" rx="28.6953" ry="18"/>
<text text-anchor="middle" x="63.302" y="-107.5701" font-family="Times,serif" font-size="14.00" fill="#000000">3320</text>
</g>
<!-- 1299&#45;&gt;3320 -->
<g id="edge9" class="edge">
<title>1299&#45;&gt;3320</title>
<path fill="none" stroke="#000000" d="M68.1651,-88.3152C68.1435,-88.4174 68.1218,-88.5196 68.1002,-88.6219"/>
<polygon fill="#000000" stroke="#000000" points="65.7709,-82.7297 67.1222,-93.2381 72.6189,-84.1807 65.7709,-82.7297"/>
</g>
<!-- 5511 -->
<g id="node27" class="node">
<title>5511</title>
<ellipse fill="none" stroke="#000000" cx="96.5573" cy="-99.3472" rx="28.6953" ry="18"/>
<text text-anchor="middle" x="96.5573" y="-95.6472" font-family="Times,serif" font-size="14.00" fill="#000000">5511</text>
</g>
<!-- 1299&#45;&gt;5511 -->
<g id="edge10" class="edge">
<title>1299&#45;&gt;5511</title>
<path fill="none" stroke="#000000" d="M85.4328,-86.1233C85.4775,-86.1765 85.5223,-86.2297 85.567,-86.2829"/>
<polygon fill="#000000" stroke="#000000" points="76.5832,-81.0425 85.7011,-86.4423 81.9407,-76.5351 76.5832,-81.0425"/>
</g>
<!-- 6461 -->
<g id="node30" class="node">
<title>6461</title>
<ellipse fill="none" stroke="#000000" cx="29.798" cy="-104.6259" rx="28.6953" ry="18"/>
<text text-anchor="middle" x="29.798" y="-100.9259" font-family="Times,serif" font-size="14.00" fill="#000000">6461</text>
</g>
<!-- 1299&#45;&gt;6461 -->
<g id="edge11" class="edge">
<title>1299&#45;&gt;6461</title>
<path fill="none" stroke="#000000" d="M54.3528,-84.5812C54.2116,-84.6964 54.0702,-84.8119 53.9286,-84.9275"/>
<polygon fill="#000000" stroke="#000000" points="53.0533,-81.1239 47.52,-90.159 57.48,-86.5465 53.0533,-81.1239"/>
</g>
<!-- 7018 -->
<g id="node35" class="node">
<title>7018</title>
<ellipse fill="none" stroke="#000000" cx="43.8437" cy="-81.9262" rx="28.6953" ry="18"/>
<text text-anchor="middle" x="43.8437" y="-78.2262" font-family="Times,serif" font-size="14.00" fill="#000000">7018</text>
</g>
<!-- 1299&#45;&gt;7018 -->
<g id="edge12" class="edge">
<title>1299&#45;&gt;7018</title>
<path fill="none" stroke="#000000" d="M47.7601,-80.2912C47.686,-80.3221 47.6128,-80.3527 47.5404,-80.3829"/>
<polygon fill="#000000" stroke="#000000" points="55.2048,-73.3874 47.3257,-80.4725 57.9034,-79.8473 55.2048,-73.3874"/>
</g>
<!-- 2516 -->
<g id="node10" class="node">
<title>2516</title>
<ellipse fill="none" stroke="#000000" cx="537.7142" cy="-267.703" rx="28.6953" ry="18"/>
<text text-anchor="middle" x="537.7142" y="-264.003" font-family="Times,serif" font-size="14.00" fill="#000000">2516</text>
</g>
<!-- 32787 -->
<g id="node53" class="node">
<title>32787</title>
<ellipse fill="none" stroke="#000000" cx="596.305" cy="-258.9949" rx="32.4942" ry="18"/>
<text text-anchor="middle" x="596.305" y="-255.2949" font-family="Times,serif" font-size="14.00" fill="#000000">32787</text>
</g>
<!-- 2516&#45;&gt;32787 -->
<g id="edge13" class="edge">
<title>2516&#45;&gt;32787</title>
<path fill="none" stroke="#000000" d="M565.6368,-263.553C565.6958,-263.5442 565.7547,-263.5354 565.8137,-263.5267"/>
<polygon fill="#000000" stroke="#000000" points="556.6154,-268.4373 565.9906,-263.5004 555.583,-261.5133 556.6154,-268.4373"/>
</g>
<!-- 2686 -->
<g id="node11" class="node">
<title>2686</title>
<ellipse fill="none" stroke="#000000" cx="476.8178" cy="-316.5776" rx="28.6953" ry="18"/>
<text text-anchor="middle" x="476.8178" y="-312.8776" font-family="Times,serif" font-size="14.00" fill="#000000">2686</text>
</g>
<!-- 3741 -->
<g id="node22" class="node">
<title>3741</title>
<ellipse fill="none" stroke="#000000" cx="475.7844" cy="-356.8968" rx="28.6953" ry="18"/>
<text text-anchor="middle" x="475.7844" y="-353.1968" font-family="Times,serif" font-size="14.00" fill="#000000">3741</text>
</g>
<!-- 2686&#45;&gt;3741 -->
<g id="edge14" class="edge">
<title>2686&#45;&gt;3741</title>
<path fill="none" stroke="#000000" d="M476.3494,-334.8497C476.3473,-334.9331 476.3452,-335.0165 476.343,-335.0999"/>
<polygon fill="#000000" stroke="#000000" points="473.0043,-328.7734 476.2467,-338.8599 480.002,-328.953 473.0043,-328.7734"/>
</g>
<!-- 2687 -->
<g id="node12" class="node">
<title>2687</title>
<ellipse fill="none" stroke="#000000" cx="479.5463" cy="-271.9631" rx="28.6953" ry="18"/>
<text text-anchor="middle" x="479.5463" y="-268.2631" font-family="Times,serif" font-size="14.00" fill="#000000">2687</text>
</g>
<!-- 2687&#45;&gt;2516 -->
<g id="edge15" class="edge">
<title>2687&#45;&gt;2516</title>
<path fill="none" stroke="#000000" d="M508.2894,-269.858C508.4039,-269.8496 508.5184,-269.8413 508.6329,-269.8329"/>
<polygon fill="#000000" stroke="#000000" points="499.2597,-274.0315 508.9764,-269.8077 498.7465,-267.0502 499.2597,-274.0315"/>
</g>
<!-- 2687&#45;&gt;2686 -->
<g id="edge16" class="edge">
<title>2687&#45;&gt;2686</title>
<path fill="none" stroke="#000000" d="M478.4365,-290.1096C478.4313,-290.194 478.4262,-290.2785 478.421,-290.3631"/>
<polygon fill="#000000" stroke="#000000" points="475.0525,-288.1074 477.9355,-298.3025 482.0395,-288.5348 475.0525,-288.1074"/>
</g>
<!-- 9505 -->
<g id="node41" class="node">
<title>9505</title>
<ellipse fill="none" stroke="#000000" cx="482.4891" cy="-230.9121" rx="28.6953" ry="18"/>
<text text-anchor="middle" x="482.4891" y="-227.2121" font-family="Times,serif" font-size="14.00" fill="#000000">9505</text>
</g>
<!-- 2687&#45;&gt;9505 -->
<g id="edge17" class="edge">
<title>2687&#45;&gt;9505</title>
<path fill="none" stroke="#000000" d="M480.8456,-253.838C480.8529,-253.736 480.8603,-253.6339 480.8676,-253.5317"/>
<polygon fill="#000000" stroke="#000000" points="483.9739,-259.1461 481.1981,-248.9214 476.9918,-258.6455 483.9739,-259.1461"/>
</g>
<!-- 2764 -->
<g id="node13" class="node">
<title>2764</title>
<ellipse fill="none" stroke="#000000" cx="652.755" cy="-230.4952" rx="28.6953" ry="18"/>
<text text-anchor="middle" x="652.755" y="-226.7952" font-family="Times,serif" font-size="14.00" fill="#000000">2764</text>
</g>
<!-- 7545 -->
<g id="node38" class="node">
<title>7545</title>
<ellipse fill="none" stroke="#000000" cx="712.3168" cy="-229.4657" rx="28.6953" ry="18"/>
<text text-anchor="middle" x="712.3168" y="-225.7657" font-family="Times,serif" font-size="14.00" fill="#000000">7545</text>
</g>
<!-- 2764&#45;&gt;7545 -->
<g id="edge18" class="edge">
<title>2764&#45;&gt;7545</title>
<path fill="none" stroke="#000000" d="M681.4891,-229.9986C681.5784,-229.997 681.6676,-229.9955 681.7569,-229.9939"/>
<polygon fill="#000000" stroke="#000000" points="673.6939,-233.6344 683.6317,-229.9615 673.5726,-226.6354 673.6939,-233.6344"/>
</g>
<!-- 38333 -->
<g id="node55" class="node">
<title>38333</title>
<ellipse fill="none" stroke="#000000" cx="655.5994" cy="-184.3812" rx="32.4942" ry="18"/>
<text text-anchor="middle" x="655.5994" y="-180.6812" font-family="Times,serif" font-size="14.00" fill="#000000">38333</text>
</g>
<!-- 2764&#45;&gt;38333 -->
<g id="edge19" class="edge">
<title>2764&#45;&gt;38333</title>
<path fill="none" stroke="#000000" d="M653.8792,-212.2698C653.8854,-212.1691 653.8916,-212.0682 653.8979,-211.9673"/>
<polygon fill="#000000" stroke="#000000" points="657.361,-212.6709 654.4834,-202.4744 650.3743,-212.2399 657.361,-212.6709"/>
</g>
<!-- 38561 -->
<g id="node56" class="node">
<title>38561</title>
<ellipse fill="none" stroke="#000000" cx="648.6192" cy="-262.2354" rx="32.4942" ry="18"/>
<text text-anchor="middle" x="648.6192" y="-258.5354" font-family="Times,serif" font-size="14.00" fill="#000000">38561</text>
</g>
<!-- 2764&#45;&gt;38561 -->
<g id="edge20" class="edge">
<title>2764&#45;&gt;38561</title>
<path fill="none" stroke="#000000" d="M650.3972,-248.5905C650.3899,-248.6462 650.3827,-248.7018 650.3754,-248.7574"/>
<polygon fill="#000000" stroke="#000000" points="648.1803,-238.5539 650.3537,-248.9241 655.1217,-239.462 648.1803,-238.5539"/>
</g>
<!-- 2914 -->
<g id="node15" class="node">
<title>2914</title>
<ellipse fill="none" stroke="#000000" cx="264.2415" cy="-212.75" rx="28.6953" ry="18"/>
<text text-anchor="middle" x="264.2415" y="-209.05" font-family="Times,serif" font-size="14.00" fill="#000000">2914</text>
</g>
<!-- 6453 -->
<g id="node29" class="node">
<title>6453</title>
<ellipse fill="none" stroke="#000000" cx="245.2943" cy="-173.9506" rx="28.6953" ry="18"/>
<text text-anchor="middle" x="245.2943" y="-170.2506" font-family="Times,serif" font-size="14.00" fill="#000000">6453</text>
</g>
<!-- 2914&#45;&gt;6453 -->
<g id="edge21" class="edge">
<title>2914&#45;&gt;6453</title>
<path fill="none" stroke="#000000" d="M255.6549,-195.1667C255.5766,-195.0063 255.4981,-194.8457 255.4197,-194.685"/>
<polygon fill="#000000" stroke="#000000" points="261.3037,-198.7576 253.7704,-191.3076 255.0136,-201.8293 261.3037,-198.7576"/>
</g>
<!-- 3257 -->
<g id="node16" class="node">
<title>3257</title>
<ellipse fill="none" stroke="#000000" cx="225.416" cy="-136.672" rx="28.6953" ry="18"/>
<text text-anchor="middle" x="225.416" y="-132.972" font-family="Times,serif" font-size="14.00" fill="#000000">3257</text>
</g>
<!-- 3491 -->
<g id="node19" class="node">
<title>3491</title>
<ellipse fill="none" stroke="#000000" cx="204.2997" cy="-99.8821" rx="28.6953" ry="18"/>
<text text-anchor="middle" x="204.2997" y="-96.1821" font-family="Times,serif" font-size="14.00" fill="#000000">3491</text>
</g>
<!-- 3257&#45;&gt;3491 -->
<g id="edge22" class="edge">
<title>3257&#45;&gt;3491</title>
<path fill="none" stroke="#000000" d="M215.5996,-119.5695C215.535,-119.4569 215.4704,-119.3443 215.4057,-119.2316"/>
<polygon fill="#000000" stroke="#000000" points="222.0603,-123.7943 214.0466,-116.8636 215.9892,-127.279 222.0603,-123.7943"/>
</g>
<!-- 3356 -->
<g id="node18" class="node">
<title>3356</title>
<ellipse fill="none" stroke="#000000" cx="277.7924" cy="-337.3737" rx="28.6953" ry="18"/>
<text text-anchor="middle" x="277.7924" y="-333.6737" font-family="Times,serif" font-size="14.00" fill="#000000">3356</text>
</g>
<!-- 3549 -->
<g id="node20" class="node">
<title>3549</title>
<ellipse fill="none" stroke="#000000" cx="312.5704" cy="-289.5518" rx="28.6953" ry="18"/>
<text text-anchor="middle" x="312.5704" y="-285.8518" font-family="Times,serif" font-size="14.00" fill="#000000">3549</text>
</g>
<!-- 3356&#45;&gt;3549 -->
<g id="edge23" class="edge">
<title>3356&#45;&gt;3549</title>
<path fill="none" stroke="#000000" d="M289.761,-320.9161C291.274,-318.8358 292.8477,-316.6718 294.4298,-314.4963"/>
<polygon fill="#000000" stroke="#000000" points="297.4107,-316.3482 300.4617,-306.2021 291.7495,-312.231 297.4107,-316.3482"/>
</g>
<!-- 3491&#45;&gt;174 -->
<g id="edge24" class="edge">
<title>3491&#45;&gt;174</title>
<path fill="none" stroke="#000000" d="M187.9672,-84.9914C187.9082,-84.9376 187.8492,-84.8839 187.7903,-84.8301"/>
<polygon fill="#000000" stroke="#000000" points="197.3628,-88.8209 187.6135,-84.6689 192.6457,-93.9944 197.3628,-88.8209"/>
</g>
<!-- 6762 -->
<g id="node31" class="node">
<title>6762</title>
<ellipse fill="none" stroke="#000000" cx="285.624" cy="-251.794" rx="28.6953" ry="18"/>
<text text-anchor="middle" x="285.624" y="-248.094" font-family="Times,serif" font-size="14.00" fill="#000000">6762</text>
</g>
<!-- 3549&#45;&gt;6762 -->
<g id="edge25" class="edge">
<title>3549&#45;&gt;6762</title>
<path fill="none" stroke="#000000" d="M300.6729,-272.8808C300.6094,-272.7919 300.5459,-272.7029 300.4824,-272.6139"/>
<polygon fill="#000000" stroke="#000000" points="306.2728,-274.7022 297.6147,-268.5956 300.5749,-278.7686 306.2728,-274.7022"/>
</g>
<!-- 30070 -->
<g id="node52" class="node">
<title>30070</title>
<ellipse fill="none" stroke="#000000" cx="365.4086" cy="-262.3665" rx="32.4942" ry="18"/>
<text text-anchor="middle" x="365.4086" y="-258.6665" font-family="Times,serif" font-size="14.00" fill="#000000">30070</text>
</g>
<!-- 3549&#45;&gt;30070 -->
<g id="edge26" class="edge">
<title>3549&#45;&gt;30070</title>
<path fill="none" stroke="#000000" d="M334.9786,-278.0228C335.1122,-277.9541 335.2459,-277.8852 335.3798,-277.8164"/>
<polygon fill="#000000" stroke="#000000" points="334.1506,-282.385 341.4414,-274.6977 330.948,-276.1605 334.1506,-282.385"/>
</g>
<!-- 3597 -->
<g id="node21" class="node">
<title>3597</title>
<ellipse fill="none" stroke="#000000" cx="137.2094" cy="-457.8386" rx="28.6953" ry="18"/>
<text text-anchor="middle" x="137.2094" y="-454.1386" font-family="Times,serif" font-size="14.00" fill="#000000">3597</text>
</g>
<!-- 37179 -->
<g id="node54" class="node">
<title>37179</title>
<ellipse fill="none" stroke="#000000" cx="474.7832" cy="-390.3451" rx="32.4942" ry="18"/>
<text text-anchor="middle" x="474.7832" y="-386.6451" font-family="Times,serif" font-size="14.00" fill="#000000">37179</text>
</g>
<!-- 3741&#45;&gt;37179 -->
<g id="edge27" class="edge">
<title>3741&#45;&gt;37179</title>
<path fill="none" stroke="#000000" d="M475.2369,-375.1868C475.2351,-375.2478 475.2333,-375.3088 475.2314,-375.3697"/>
<polygon fill="#000000" stroke="#000000" points="472.032,-365.4504 475.226,-375.5525 479.0289,-365.6635 472.032,-365.4504"/>
</g>
<!-- 4635 -->
<g id="node23" class="node">
<title>4635</title>
<ellipse fill="none" stroke="#000000" cx="724.3562" cy="-266.2284" rx="28.6953" ry="18"/>
<text text-anchor="middle" x="724.3562" y="-262.5284" font-family="Times,serif" font-size="14.00" fill="#000000">4635</text>
</g>
<!-- 4637 -->
<g id="node24" class="node">
<title>4637</title>
<ellipse fill="none" stroke="#000000" cx="600.5669" cy="-222.0401" rx="28.6953" ry="18"/>
<text text-anchor="middle" x="600.5669" y="-218.3401" font-family="Times,serif" font-size="14.00" fill="#000000">4637</text>
</g>
<!-- 4739 -->
<g id="node25" class="node">
<title>4739</title>
<ellipse fill="none" stroke="#000000" cx="742.0291" cy="-193.8562" rx="28.6953" ry="18"/>
<text text-anchor="middle" x="742.0291" y="-190.1562" font-family="Times,serif" font-size="14.00" fill="#000000">4739</text>
</g>
<!-- 38880 -->
<g id="node57" class="node">
<title>38880</title>
<ellipse fill="none" stroke="#000000" cx="770.2298" cy="-167.0883" rx="32.4942" ry="18"/>
<text text-anchor="middle" x="770.2298" y="-163.3883" font-family="Times,serif" font-size="14.00" fill="#000000">38880</text>
</g>
<!-- 4739&#45;&gt;38880 -->
<g id="edge28" class="edge">
<title>4739&#45;&gt;38880</title>
<path fill="none" stroke="#000000" d="M758.1065,-178.5957C758.156,-178.5487 758.2054,-178.5018 758.2548,-178.4549"/>
<polygon fill="#000000" stroke="#000000" points="753.5588,-187.7392 758.4029,-178.3143 748.7386,-182.6613 753.5588,-187.7392"/>
</g>
<!-- 4755 -->
<g id="node26" class="node">
<title>4755</title>
<ellipse fill="none" stroke="#000000" cx="635.9374" cy="-433.9776" rx="28.6953" ry="18"/>
<text text-anchor="middle" x="635.9374" y="-430.2776" font-family="Times,serif" font-size="14.00" fill="#000000">4755</text>
</g>
<!-- 5692 -->
<g id="node28" class="node">
<title>5692</title>
<ellipse fill="none" stroke="#000000" cx="154.1824" cy="-486.4491" rx="28.6953" ry="18"/>
<text text-anchor="middle" x="154.1824" y="-482.7491" font-family="Times,serif" font-size="14.00" fill="#000000">5692</text>
</g>
<!-- 5692&#45;&gt;3597 -->
<g id="edge29" class="edge">
<title>5692&#45;&gt;3597</title>
<path fill="none" stroke="#000000" d="M144.113,-469.4756C144.0844,-469.4274 144.0559,-469.3794 144.0274,-469.3313"/>
<polygon fill="#000000" stroke="#000000" points="152.0575,-476.0018 143.9419,-469.1873 146.0366,-479.5754 152.0575,-476.0018"/>
</g>
<!-- 10834 -->
<g id="node44" class="node">
<title>10834</title>
<ellipse fill="none" stroke="#000000" cx="197.8284" cy="-427.2548" rx="32.4942" ry="18"/>
<text text-anchor="middle" x="197.8284" y="-423.5548" font-family="Times,serif" font-size="14.00" fill="#000000">10834</text>
</g>
<!-- 5692&#45;&gt;10834 -->
<g id="edge30" class="edge">
<title>5692&#45;&gt;10834</title>
<path fill="none" stroke="#000000" d="M166.3402,-469.9602C170.3398,-464.5359 174.8821,-458.3755 179.2473,-452.4552"/>
<polygon fill="#000000" stroke="#000000" points="182.3149,-454.1924 185.4325,-444.0666 176.6809,-450.0382 182.3149,-454.1924"/>
</g>
<!-- 11008 -->
<g id="node45" class="node">
<title>11008</title>
<ellipse fill="none" stroke="#000000" cx="166.2713" cy="-534.8098" rx="32.4942" ry="18"/>
<text text-anchor="middle" x="166.2713" y="-531.1098" font-family="Times,serif" font-size="14.00" fill="#000000">11008</text>
</g>
<!-- 5692&#45;&gt;11008 -->
<g id="edge31" class="edge">
<title>5692&#45;&gt;11008</title>
<path fill="none" stroke="#000000" d="M158.6838,-504.4569C158.9071,-505.3498 159.1333,-506.2548 159.3612,-507.1664"/>
<polygon fill="#000000" stroke="#000000" points="155.9856,-508.0954 161.8063,-516.9481 162.7766,-506.3978 155.9856,-508.0954"/>
</g>
<!-- 27865 -->
<g id="node50" class="node">
<title>27865</title>
<ellipse fill="none" stroke="#000000" cx="112.1614" cy="-522.4553" rx="32.4942" ry="18"/>
<text text-anchor="middle" x="112.1614" y="-518.7553" font-family="Times,serif" font-size="14.00" fill="#000000">27865</text>
</g>
<!-- 5692&#45;&gt;27865 -->
<g id="edge32" class="edge">
<title>5692&#45;&gt;27865</title>
<path fill="none" stroke="#000000" d="M137.0909,-501.0942C136.9432,-501.2208 136.7952,-501.3476 136.647,-501.4746"/>
<polygon fill="#000000" stroke="#000000" points="135.2375,-498.0732 129.9212,-507.2377 139.7922,-503.3887 135.2375,-498.0732"/>
</g>
<!-- 28065 -->
<g id="node51" class="node">
<title>28065</title>
<ellipse fill="none" stroke="#000000" cx="137.8279" cy="-536.3951" rx="32.4942" ry="18"/>
<text text-anchor="middle" x="137.8279" y="-532.6951" font-family="Times,serif" font-size="14.00" fill="#000000">28065</text>
</g>
<!-- 5692&#45;&gt;28065 -->
<g id="edge33" class="edge">
<title>5692&#45;&gt;28065</title>
<path fill="none" stroke="#000000" d="M148.3704,-504.1989C147.8998,-505.6359 147.4179,-507.1078 146.9315,-508.5932"/>
<polygon fill="#000000" stroke="#000000" points="143.5172,-507.773 143.7315,-518.3657 150.1697,-509.9514 143.5172,-507.773"/>
</g>
<!-- 52317 -->
<g id="node58" class="node">
<title>52317</title>
<ellipse fill="none" stroke="#000000" cx="120.266" cy="-496.7975" rx="32.4942" ry="18"/>
<text text-anchor="middle" x="120.266" y="-493.0975" font-family="Times,serif" font-size="14.00" fill="#000000">52317</text>
</g>
<!-- 5692&#45;&gt;52317 -->
<g id="edge34" class="edge">
<title>5692&#45;&gt;52317</title>
<path fill="none" stroke="#000000" d="M128.1323,-494.3974C128.0612,-494.4191 127.9903,-494.4407 127.9198,-494.4622"/>
<polygon fill="#000000" stroke="#000000" points="136.2514,-488.2573 127.7091,-494.5265 138.2965,-494.9527 136.2514,-488.2573"/>
</g>
<!-- 52375 -->
<g id="node59" class="node">
<title>52375</title>
<ellipse fill="none" stroke="#000000" cx="99.9923" cy="-481.0889" rx="32.4942" ry="18"/>
<text text-anchor="middle" x="99.9923" y="-477.3889" font-family="Times,serif" font-size="14.00" fill="#000000">52375</text>
</g>
<!-- 5692&#45;&gt;52375 -->
<g id="edge35" class="edge">
<title>5692&#45;&gt;52375</title>
<path fill="none" stroke="#000000" d="M125.8177,-483.6434C125.7665,-483.6384 125.7153,-483.6333 125.6641,-483.6282"/>
<polygon fill="#000000" stroke="#000000" points="135.8085,-481.1202 125.5105,-483.613 135.1154,-488.0862 135.8085,-481.1202"/>
</g>
<!-- 52376 -->
<g id="node60" class="node">
<title>52376</title>
<ellipse fill="none" stroke="#000000" cx="160.4777" cy="-442.7038" rx="32.4942" ry="18"/>
<text text-anchor="middle" x="160.4777" y="-439.0038" font-family="Times,serif" font-size="14.00" fill="#000000">52376</text>
</g>
<!-- 5692&#45;&gt;52376 -->
<g id="edge36" class="edge">
<title>5692&#45;&gt;52376</title>
<path fill="none" stroke="#000000" d="M156.7793,-468.4037C156.8022,-468.2448 156.8251,-468.0857 156.848,-467.9263"/>
<polygon fill="#000000" stroke="#000000" points="159.9266,-471.1044 157.8868,-460.7078 152.998,-470.1072 159.9266,-471.1044"/>
</g>
<!-- 52380 -->
<g id="node61" class="node">
<title>52380</title>
<ellipse fill="none" stroke="#000000" cx="113.3236" cy="-451.8749" rx="32.4942" ry="18"/>
<text text-anchor="middle" x="113.3236" y="-448.1749" font-family="Times,serif" font-size="14.00" fill="#000000">52380</text>
</g>
<!-- 5692&#45;&gt;52380 -->
<g id="edge37" class="edge">
<title>5692&#45;&gt;52380</title>
<path fill="none" stroke="#000000" d="M137.0913,-471.9869C136.9711,-471.8851 136.8506,-471.7832 136.7301,-471.6812"/>
<polygon fill="#000000" stroke="#000000" points="141.1618,-470.8463 131.2672,-467.0585 136.6401,-476.19 141.1618,-470.8463"/>
</g>
<!-- 52413 -->
<g id="node62" class="node">
<title>52413</title>
<ellipse fill="none" stroke="#000000" cx="173.5153" cy="-503.5293" rx="32.4942" ry="18"/>
<text text-anchor="middle" x="173.5153" y="-499.8293" font-family="Times,serif" font-size="14.00" fill="#000000">52413</text>
</g>
<!-- 5692&#45;&gt;52413 -->
<g id="edge38" class="edge">
<title>5692&#45;&gt;52413</title>
<path fill="none" stroke="#000000" d="M170.8272,-501.1543C170.878,-501.1992 170.9282,-501.2437 170.9779,-501.2876"/>
<polygon fill="#000000" stroke="#000000" points="161.3119,-497.4185 171.1253,-501.4178 165.9478,-492.1717 161.3119,-497.4185"/>
</g>
<!-- 52431 -->
<g id="node63" class="node">
<title>52431</title>
<ellipse fill="none" stroke="#000000" cx="194.7449" cy="-524.3208" rx="32.4942" ry="18"/>
<text text-anchor="middle" x="194.7449" y="-520.6208" font-family="Times,serif" font-size="14.00" fill="#000000">52431</text>
</g>
<!-- 5692&#45;&gt;52431 -->
<g id="edge39" class="edge">
<title>5692&#45;&gt;52431</title>
<path fill="none" stroke="#000000" d="M170.2138,-501.417C170.3743,-501.5669 170.5352,-501.7172 170.6965,-501.8677"/>
<polygon fill="#000000" stroke="#000000" points="168.3327,-504.4492 178.0307,-508.7154 173.1099,-499.3326 168.3327,-504.4492"/>
</g>
<!-- 262230 -->
<g id="node64" class="node">
<title>262230</title>
<ellipse fill="none" stroke="#000000" cx="204.1095" cy="-490.5132" rx="37.0935" ry="18"/>
<text text-anchor="middle" x="204.1095" y="-486.8132" font-family="Times,serif" font-size="14.00" fill="#000000">262230</text>
</g>
<!-- 5692&#45;&gt;262230 -->
<g id="edge40" class="edge">
<title>5692&#45;&gt;262230</title>
<path fill="none" stroke="#000000" d="M182.6461,-488.7661C182.6899,-488.7697 182.7337,-488.7732 182.7775,-488.7768"/>
<polygon fill="#000000" stroke="#000000" points="172.6553,-491.4577 182.9087,-488.7875 173.2281,-484.4807 172.6553,-491.4577"/>
</g>
<!-- 264608 -->
<g id="node65" class="node">
<title>264608</title>
<ellipse fill="none" stroke="#000000" cx="186.458" cy="-465.9576" rx="37.0935" ry="18"/>
<text text-anchor="middle" x="186.458" y="-462.2576" font-family="Times,serif" font-size="14.00" fill="#000000">264608</text>
</g>
<!-- 5692&#45;&gt;264608 -->
<g id="edge41" class="edge">
<title>5692&#45;&gt;264608</title>
<path fill="none" stroke="#000000" d="M174.4398,-473.5879C174.4904,-473.5557 174.5411,-473.5236 174.5916,-473.4915"/>
<polygon fill="#000000" stroke="#000000" points="168.1768,-481.7129 174.743,-473.3954 164.4231,-475.8028 168.1768,-481.7129"/>
</g>
<!-- 6453&#45;&gt;3257 -->
<g id="edge42" class="edge">
<title>6453&#45;&gt;3257</title>
<path fill="none" stroke="#000000" d="M236.0535,-156.6209C235.9926,-156.5068 235.9318,-156.3927 235.8709,-156.2785"/>
<polygon fill="#000000" stroke="#000000" points="242.3852,-161.0561 234.5914,-153.8791 236.2085,-164.3499 242.3852,-161.0561"/>
</g>
<!-- 6762&#45;&gt;2914 -->
<g id="edge43" class="edge">
<title>6762&#45;&gt;2914</title>
<path fill="none" stroke="#000000" d="M276.1831,-234.5551C276.1327,-234.4632 276.0823,-234.3712 276.0319,-234.2791"/>
<polygon fill="#000000" stroke="#000000" points="281.6297,-237.2136 273.7564,-230.124 275.49,-240.5761 281.6297,-237.2136"/>
</g>
<!-- 6904 -->
<g id="node32" class="node">
<title>6904</title>
<ellipse fill="none" stroke="#000000" cx="422.3594" cy="-267.3362" rx="28.6953" ry="18"/>
<text text-anchor="middle" x="422.3594" y="-263.6362" font-family="Times,serif" font-size="14.00" fill="#000000">6904</text>
</g>
<!-- 6904&#45;&gt;2687 -->
<g id="edge44" class="edge">
<title>6904&#45;&gt;2687</title>
<path fill="none" stroke="#000000" d="M450.9528,-269.6496C451.0087,-269.6542 451.0645,-269.6587 451.1204,-269.6632"/>
<polygon fill="#000000" stroke="#000000" points="441.0363,-272.3534 451.2879,-269.6768 441.6046,-265.3762 441.0363,-272.3534"/>
</g>
<!-- 6939 -->
<g id="node33" class="node">
<title>6939</title>
<ellipse fill="none" stroke="#000000" cx="755.092" cy="-245.8802" rx="28.6953" ry="18"/>
<text text-anchor="middle" x="755.092" y="-242.1802" font-family="Times,serif" font-size="14.00" fill="#000000">6939</text>
</g>
<!-- 12266 -->
<g id="node46" class="node">
<title>12266</title>
<ellipse fill="none" stroke="#000000" cx="783.957" cy="-268.4407" rx="32.4942" ry="18"/>
<text text-anchor="middle" x="783.957" y="-264.7407" font-family="Times,serif" font-size="14.00" fill="#000000">12266</text>
</g>
<!-- 6939&#45;&gt;12266 -->
<g id="edge45" class="edge">
<title>6939&#45;&gt;12266</title>
<path fill="none" stroke="#000000" d="M773.2087,-260.04C773.2541,-260.0754 773.2993,-260.1108 773.3445,-260.1461"/>
<polygon fill="#000000" stroke="#000000" points="763.4436,-256.8497 773.48,-260.252 767.7559,-251.3336 763.4436,-256.8497"/>
</g>
<!-- 7016 -->
<g id="node34" class="node">
<title>7016</title>
<ellipse fill="none" stroke="#000000" cx="376.0664" cy="-218.5709" rx="28.6953" ry="18"/>
<text text-anchor="middle" x="376.0664" y="-214.8709" font-family="Times,serif" font-size="14.00" fill="#000000">7016</text>
</g>
<!-- 7922 -->
<g id="node39" class="node">
<title>7922</title>
<ellipse fill="none" stroke="#000000" cx="380.2883" cy="-181.6187" rx="28.6953" ry="18"/>
<text text-anchor="middle" x="380.2883" y="-177.9187" font-family="Times,serif" font-size="14.00" fill="#000000">7922</text>
</g>
<!-- 7016&#45;&gt;7922 -->
<g id="edge46" class="edge">
<title>7016&#45;&gt;7922</title>
<path fill="none" stroke="#000000" d="M378.1279,-200.5278C378.1447,-200.3812 378.1614,-200.2346 378.1781,-200.088"/>
<polygon fill="#000000" stroke="#000000" points="380.5686,-209.9817 378.2284,-199.6483 373.6139,-209.1857 380.5686,-209.9817"/>
</g>
<!-- 7473 -->
<g id="node36" class="node">
<title>7473</title>
<ellipse fill="none" stroke="#000000" cx="485.1" cy="-194.6693" rx="28.6953" ry="18"/>
<text text-anchor="middle" x="485.1" y="-190.9693" font-family="Times,serif" font-size="14.00" fill="#000000">7473</text>
</g>
<!-- 7474 -->
<g id="node37" class="node">
<title>7474</title>
<ellipse fill="none" stroke="#000000" cx="569.9328" cy="-236.7928" rx="28.6953" ry="18"/>
<text text-anchor="middle" x="569.9328" y="-233.0928" font-family="Times,serif" font-size="14.00" fill="#000000">7474</text>
</g>
<!-- 7545&#45;&gt;4635 -->
<g id="edge47" class="edge">
<title>7545&#45;&gt;4635</title>
<path fill="none" stroke="#000000" d="M718.1954,-247.4163C718.2431,-247.5621 718.2909,-247.7079 718.3387,-247.8538"/>
<polygon fill="#000000" stroke="#000000" points="712.042,-239.8776 718.4819,-248.2913 718.6944,-237.698 712.042,-239.8776"/>
</g>
<!-- 7545&#45;&gt;4739 -->
<g id="edge48" class="edge">
<title>7545&#45;&gt;4739</title>
<path fill="none" stroke="#000000" d="M725.782,-213.328C725.8895,-213.1992 725.9971,-213.0703 726.1047,-212.9412"/>
<polygon fill="#000000" stroke="#000000" points="724.6493,-220.1485 728.3687,-210.2279 719.2746,-215.6638 724.6493,-220.1485"/>
</g>
<!-- 7545&#45;&gt;6939 -->
<g id="edge49" class="edge">
<title>7545&#45;&gt;6939</title>
<path fill="none" stroke="#000000" d="M737.1993,-239.0141C737.2728,-239.0423 737.3463,-239.0705 737.4197,-239.0987"/>
<polygon fill="#000000" stroke="#000000" points="727.0483,-238.8655 737.6397,-239.1831 729.5581,-232.33 727.0483,-238.8655"/>
</g>
<!-- 9942 -->
<g id="node42" class="node">
<title>9942</title>
<ellipse fill="none" stroke="#000000" cx="693.4535" cy="-256.9014" rx="28.6953" ry="18"/>
<text text-anchor="middle" x="693.4535" y="-253.2014" font-family="Times,serif" font-size="14.00" fill="#000000">9942</text>
</g>
<!-- 7545&#45;&gt;9942 -->
<g id="edge50" class="edge">
<title>7545&#45;&gt;9942</title>
<path fill="none" stroke="#000000" d="M700.9088,-246.0581C700.8777,-246.1033 700.8467,-246.1483 700.8157,-246.1934"/>
<polygon fill="#000000" stroke="#000000" points="703.5066,-236.1032 700.7229,-246.3284 709.2756,-240.071 703.5066,-236.1032"/>
</g>
<!-- 10026 -->
<g id="node43" class="node">
<title>10026</title>
<ellipse fill="none" stroke="#000000" cx="630.372" cy="-399.6644" rx="32.4942" ry="18"/>
<text text-anchor="middle" x="630.372" y="-395.9644" font-family="Times,serif" font-size="14.00" fill="#000000">10026</text>
</g>
<!-- 9498&#45;&gt;10026 -->
<g id="edge51" class="edge">
<title>9498&#45;&gt;10026</title>
<path fill="none" stroke="#000000" d="M623.7976,-377.0898C623.8254,-377.1849 623.8531,-377.2802 623.8809,-377.3755"/>
<polygon fill="#000000" stroke="#000000" points="618.977,-373.0548 625.1336,-381.6773 625.6978,-371.0974 618.977,-373.0548"/>
</g>
<!-- 9505&#45;&gt;7473 -->
<g id="edge52" class="edge">
<title>9505&#45;&gt;7473</title>
<path fill="none" stroke="#000000" d="M483.7946,-212.7907C483.7997,-212.7199 483.8048,-212.6491 483.8099,-212.5783"/>
<polygon fill="#000000" stroke="#000000" points="486.5932,-222.5932 483.8252,-212.366 479.6113,-222.0871 486.5932,-222.5932"/>
</g>
<!-- 10026&#45;&gt;4755 -->
<g id="edge53" class="edge">
<title>10026&#45;&gt;4755</title>
<path fill="none" stroke="#000000" d="M633.2851,-417.625C633.2956,-417.6898 633.3061,-417.7547 633.3167,-417.8195"/>
<polygon fill="#000000" stroke="#000000" points="628.288,-408.7047 633.3482,-418.0139 635.1978,-407.581 628.288,-408.7047"/>
</g>
<!-- 12956 -->
<g id="node47" class="node">
<title>12956</title>
<ellipse fill="none" stroke="#000000" cx="240.675" cy="-382.8562" rx="32.4942" ry="18"/>
<text text-anchor="middle" x="240.675" y="-379.1562" font-family="Times,serif" font-size="14.00" fill="#000000">12956</text>
</g>
<!-- 10834&#45;&gt;12956 -->
<g id="edge54" class="edge">
<title>10834&#45;&gt;12956</title>
<path fill="none" stroke="#000000" d="M213.297,-411.2259C214.8551,-409.6114 216.4588,-407.9496 218.0715,-406.2785"/>
<polygon fill="#000000" stroke="#000000" points="220.6595,-408.637 225.0852,-399.0107 215.6224,-403.776 220.6595,-408.637"/>
</g>
<!-- 22927 -->
<g id="node49" class="node">
<title>22927</title>
<ellipse fill="none" stroke="#000000" cx="191.0774" cy="-392.6893" rx="32.4942" ry="18"/>
<text text-anchor="middle" x="191.0774" y="-388.9893" font-family="Times,serif" font-size="14.00" fill="#000000">22927</text>
</g>
<!-- 10834&#45;&gt;22927 -->
<g id="edge55" class="edge">
<title>10834&#45;&gt;22927</title>
<path fill="none" stroke="#000000" d="M194.2947,-409.1622C194.282,-409.0969 194.2692,-409.0316 194.2565,-408.9663"/>
<polygon fill="#000000" stroke="#000000" points="199.5743,-417.9127 194.2182,-408.7704 192.704,-419.2574 199.5743,-417.9127"/>
</g>
<!-- 12956&#45;&gt;3356 -->
<g id="edge56" class="edge">
<title>12956&#45;&gt;3356</title>
<path fill="none" stroke="#000000" d="M254.0752,-366.436C255.3523,-364.8711 256.6647,-363.2629 257.9857,-361.6442"/>
<polygon fill="#000000" stroke="#000000" points="260.9253,-363.5779 264.5363,-353.6174 255.502,-359.152 260.9253,-363.5779"/>
</g>
<!-- 18540 -->
<g id="node48" class="node">
<title>18540</title>
<ellipse fill="none" stroke="#000000" cx="342.7912" cy="-242.3562" rx="32.4942" ry="18"/>
<text text-anchor="middle" x="342.7912" y="-238.6562" font-family="Times,serif" font-size="14.00" fill="#000000">18540</text>
</g>
<!-- 30070&#45;&gt;6904 -->
<g id="edge57" class="edge">
<title>30070&#45;&gt;6904</title>
<path fill="none" stroke="#000000" d="M397.5456,-265.1708C397.5961,-265.1752 397.6465,-265.1796 397.6969,-265.184"/>
<polygon fill="#000000" stroke="#000000" points="387.5796,-267.8087 397.8482,-265.1972 388.1924,-260.8351 387.5796,-267.8087"/>
</g>
<!-- 30070&#45;&gt;7016 -->
<g id="edge58" class="edge">
<title>30070&#45;&gt;7016</title>
<path fill="none" stroke="#000000" d="M369.8051,-244.3003C369.8438,-244.1412 369.8826,-243.9819 369.9214,-243.8224"/>
<polygon fill="#000000" stroke="#000000" points="372.7162,-247.1396 371.68,-236.5956 365.9147,-245.4844 372.7162,-247.1396"/>
</g>
<!-- 30070&#45;&gt;18540 -->
<g id="edge59" class="edge">
<title>30070&#45;&gt;18540</title>
<path fill="none" stroke="#000000" d="M348.0369,-246.9972C347.9895,-246.9553 347.9422,-246.9135 347.8952,-246.8718"/>
<polygon fill="#000000" stroke="#000000" points="357.5654,-250.7537 347.7547,-246.7475 352.9258,-255.9974 357.5654,-250.7537"/>
</g>
<!-- 32787&#45;&gt;703 -->
<g id="edge60" class="edge">
<title>32787&#45;&gt;703</title>
<path fill="none" stroke="#000000" d="M599.7609,-277.155C600.2098,-279.5143 600.6779,-281.9738 601.1489,-284.4488"/>
<polygon fill="#000000" stroke="#000000" points="597.7526,-285.3244 603.0604,-294.4938 604.6292,-284.0157 597.7526,-285.3244"/>
</g>
<!-- 32787&#45;&gt;2764 -->
<g id="edge61" class="edge">
<title>32787&#45;&gt;2764</title>
<path fill="none" stroke="#000000" d="M620.5725,-246.743C620.7742,-246.6412 620.9762,-246.5392 621.1784,-246.4371"/>
<polygon fill="#000000" stroke="#000000" points="622.943,-249.4671 630.2924,-241.8358 619.7882,-243.2183 622.943,-249.4671"/>
</g>
<!-- 32787&#45;&gt;4637 -->
<g id="edge62" class="edge">
<title>32787&#45;&gt;4637</title>
<path fill="none" stroke="#000000" d="M598.386,-240.9505C598.4029,-240.8039 598.4198,-240.6573 598.4367,-240.5107"/>
<polygon fill="#000000" stroke="#000000" points="600.8167,-250.4068 598.4875,-240.0709 593.8628,-249.6034 600.8167,-250.4068"/>
</g>
<!-- 32787&#45;&gt;7474 -->
<g id="edge63" class="edge">
<title>32787&#45;&gt;7474</title>
<path fill="none" stroke="#000000" d="M578.2771,-243.8177C578.2047,-243.7567 578.1324,-243.6959 578.0605,-243.6353"/>
<polygon fill="#000000" stroke="#000000" points="587.7507,-247.2179 577.8453,-243.4542 583.2416,-252.5735 587.7507,-247.2179"/>
</g>
<!-- 38333&#45;&gt;1221 -->
<g id="edge64" class="edge">
<title>38333&#45;&gt;1221</title>
<path fill="none" stroke="#000000" d="M655.9005,-166.1523C655.903,-165.9983 655.9056,-165.8443 655.9081,-165.6903"/>
<polygon fill="#000000" stroke="#000000" points="659.2647,-174.3606 655.931,-164.3039 652.2656,-174.2445 659.2647,-174.3606"/>
</g>
</g>
</svg>
