<?xml version="1.0" encoding="UTF-8" standalone="no"?>
<!DOCTYPE svg PUBLIC "-//W3C//DTD SVG 1.1//EN"
 "http://www.w3.org/Graphics/SVG/1.1/DTD/svg11.dtd">
<!-- Generated by graphviz version 2.40.1 (20161225.0304)
 -->
<!-- Title: %3 Pages: 1 -->
<svg width="1327pt" height="1476pt"
 viewBox="0.00 0.00 1327.22 1475.60" xmlns="http://www.w3.org/2000/svg" xmlns:xlink="http://www.w3.org/1999/xlink">
<g id="graph0" class="graph" transform="scale(1 1) rotate(0) translate(4 1471.6006)">
<title>%3</title>
<polygon fill="#ffffff" stroke="transparent" points="-4,4 -4,-1471.6006 1323.2168,-1471.6006 1323.2168,4 -4,4"/>
<!-- 174 -->
<g id="node1" class="node">
<title>174</title>
<ellipse fill="none" stroke="#000000" cx="857.7584" cy="-749.5437" rx="27" ry="18"/>
<text text-anchor="middle" x="857.7584" y="-745.8437" font-family="Times,serif" font-size="14.00" fill="#000000">174</text>
</g>
<!-- 209 -->
<g id="node2" class="node">
<title>209</title>
<ellipse fill="none" stroke="#000000" cx="907.5149" cy="-801.5849" rx="27" ry="18"/>
<text text-anchor="middle" x="907.5149" y="-797.8849" font-family="Times,serif" font-size="14.00" fill="#000000">209</text>
</g>
<!-- 174&#45;&gt;209 -->
<g id="edge1" class="edge">
<title>174&#45;&gt;209</title>
<path fill="none" stroke="#000000" d="M872.4179,-764.8763C876.6318,-769.2837 881.3191,-774.1862 885.8606,-778.9363"/>
<polygon fill="#000000" stroke="#000000" points="883.3479,-781.3728 892.7883,-786.1821 888.4074,-776.5354 883.3479,-781.3728"/>
</g>
<!-- 1299 -->
<g id="node8" class="node">
<title>1299</title>
<ellipse fill="none" stroke="#000000" cx="979.5946" cy="-830.2779" rx="28.6953" ry="18"/>
<text text-anchor="middle" x="979.5946" y="-826.5779" font-family="Times,serif" font-size="14.00" fill="#000000">1299</text>
</g>
<!-- 209&#45;&gt;1299 -->
<g id="edge2" class="edge">
<title>209&#45;&gt;1299</title>
<path fill="none" stroke="#000000" d="M930.7182,-810.8215C935.4831,-812.7183 940.5924,-814.7522 945.6467,-816.7642"/>
<polygon fill="#000000" stroke="#000000" points="944.6079,-820.1177 955.1933,-820.5644 947.1969,-813.6141 944.6079,-820.1177"/>
</g>
<!-- 2828 -->
<g id="node14" class="node">
<title>2828</title>
<ellipse fill="none" stroke="#000000" cx="724.6402" cy="-953.0575" rx="28.6953" ry="18"/>
<text text-anchor="middle" x="724.6402" y="-949.3575" font-family="Times,serif" font-size="14.00" fill="#000000">2828</text>
</g>
<!-- 209&#45;&gt;2828 -->
<g id="edge3" class="edge">
<title>209&#45;&gt;2828</title>
<path fill="none" stroke="#000000" d="M890.3105,-815.8351C857.9895,-842.6062 788.054,-900.5328 750.2067,-931.8811"/>
<polygon fill="#000000" stroke="#000000" points="747.669,-929.4384 742.2003,-938.5127 752.1342,-934.8293 747.669,-929.4384"/>
</g>
<!-- 701 -->
<g id="node3" class="node">
<title>701</title>
<ellipse fill="none" stroke="#000000" cx="1138.7498" cy="-632.1442" rx="27" ry="18"/>
<text text-anchor="middle" x="1138.7498" y="-628.4442" font-family="Times,serif" font-size="14.00" fill="#000000">701</text>
</g>
<!-- 703 -->
<g id="node4" class="node">
<title>703</title>
<ellipse fill="none" stroke="#000000" cx="621.5058" cy="-1235.5555" rx="27" ry="18"/>
<text text-anchor="middle" x="621.5058" y="-1231.8555" font-family="Times,serif" font-size="14.00" fill="#000000">703</text>
</g>
<!-- 9498 -->
<g id="node40" class="node">
<title>9498</title>
<ellipse fill="none" stroke="#000000" cx="611.841" cy="-1306.9038" rx="28.6953" ry="18"/>
<text text-anchor="middle" x="611.841" y="-1303.2038" font-family="Times,serif" font-size="14.00" fill="#000000">9498</text>
</g>
<!-- 703&#45;&gt;9498 -->
<g id="edge4" class="edge">
<title>703&#45;&gt;9498</title>
<path fill="none" stroke="#000000" d="M619.0669,-1253.5597C618.0333,-1261.1904 616.8041,-1270.2641 615.6554,-1278.7444"/>
<polygon fill="#000000" stroke="#000000" points="612.1867,-1278.2779 614.3126,-1288.6572 619.1234,-1279.2176 612.1867,-1278.2779"/>
</g>
<!-- 1221 -->
<g id="node5" class="node">
<title>1221</title>
<ellipse fill="none" stroke="#000000" cx="28.5975" cy="-999.6362" rx="28.6953" ry="18"/>
<text text-anchor="middle" x="28.5975" y="-995.9362" font-family="Times,serif" font-size="14.00" fill="#000000">1221</text>
</g>
<!-- 1239 -->
<g id="node6" class="node">
<title>1239</title>
<ellipse fill="none" stroke="#000000" cx="1124.9209" cy="-708.3479" rx="28.6953" ry="18"/>
<text text-anchor="middle" x="1124.9209" y="-704.6479" font-family="Times,serif" font-size="14.00" fill="#000000">1239</text>
</g>
<!-- 1273 -->
<g id="node7" class="node">
<title>1273</title>
<ellipse fill="none" stroke="#000000" cx="1097.7075" cy="-780.8578" rx="28.6953" ry="18"/>
<text text-anchor="middle" x="1097.7075" y="-777.1578" font-family="Times,serif" font-size="14.00" fill="#000000">1273</text>
</g>
<!-- 1299&#45;&gt;701 -->
<g id="edge5" class="edge">
<title>1299&#45;&gt;701</title>
<path fill="none" stroke="#000000" d="M992.619,-814.0638C1020.6788,-779.1319 1086.9443,-696.6373 1119.7172,-655.8381"/>
<polygon fill="#000000" stroke="#000000" points="1122.4565,-658.0167 1125.9903,-648.0286 1116.9991,-653.633 1122.4565,-658.0167"/>
</g>
<!-- 1299&#45;&gt;1239 -->
<g id="edge6" class="edge">
<title>1299&#45;&gt;1239</title>
<path fill="none" stroke="#000000" d="M996.8361,-815.8122C1022.4019,-794.3623 1070.503,-754.005 1099.931,-729.3146"/>
<polygon fill="#000000" stroke="#000000" points="1102.2906,-731.9037 1107.7018,-722.7949 1097.7914,-726.5411 1102.2906,-731.9037"/>
</g>
<!-- 1299&#45;&gt;1273 -->
<g id="edge7" class="edge">
<title>1299&#45;&gt;1273</title>
<path fill="none" stroke="#000000" d="M1003.4965,-820.277C1021.0268,-812.9421 1045.0548,-802.8884 1064.4569,-794.7703"/>
<polygon fill="#000000" stroke="#000000" points="1065.9671,-797.9325 1073.8411,-790.8438 1063.2651,-791.475 1065.9671,-797.9325"/>
</g>
<!-- 2497 -->
<g id="node9" class="node">
<title>2497</title>
<ellipse fill="none" stroke="#000000" cx="1057.9842" cy="-847.3432" rx="28.6953" ry="18"/>
<text text-anchor="middle" x="1057.9842" y="-843.6432" font-family="Times,serif" font-size="14.00" fill="#000000">2497</text>
</g>
<!-- 1299&#45;&gt;2497 -->
<g id="edge8" class="edge">
<title>1299&#45;&gt;2497</title>
<path fill="none" stroke="#000000" d="M1007.0115,-836.2466C1011.4528,-837.2134 1016.1166,-838.2287 1020.7439,-839.2361"/>
<polygon fill="#000000" stroke="#000000" points="1020.1995,-842.6995 1030.7152,-841.4068 1021.6886,-835.8597 1020.1995,-842.6995"/>
</g>
<!-- 3320 -->
<g id="node17" class="node">
<title>3320</title>
<ellipse fill="none" stroke="#000000" cx="1007.028" cy="-905.6674" rx="28.6953" ry="18"/>
<text text-anchor="middle" x="1007.028" y="-901.9674" font-family="Times,serif" font-size="14.00" fill="#000000">3320</text>
</g>
<!-- 1299&#45;&gt;3320 -->
<g id="edge9" class="edge">
<title>1299&#45;&gt;3320</title>
<path fill="none" stroke="#000000" d="M986.096,-848.1442C989.3758,-857.1575 993.425,-868.2852 997.0854,-878.3443"/>
<polygon fill="#000000" stroke="#000000" points="993.8647,-879.7291 1000.5733,-887.9294 1000.4427,-877.3354 993.8647,-879.7291"/>
</g>
<!-- 5511 -->
<g id="node27" class="node">
<title>5511</title>
<ellipse fill="none" stroke="#000000" cx="946.4764" cy="-953.9557" rx="28.6953" ry="18"/>
<text text-anchor="middle" x="946.4764" y="-950.2557" font-family="Times,serif" font-size="14.00" fill="#000000">5511</text>
</g>
<!-- 1299&#45;&gt;5511 -->
<g id="edge10" class="edge">
<title>1299&#45;&gt;5511</title>
<path fill="none" stroke="#000000" d="M974.779,-848.2617C969.3094,-868.6875 960.318,-902.2652 953.9385,-926.0888"/>
<polygon fill="#000000" stroke="#000000" points="950.5037,-925.3851 951.2979,-935.9501 957.2655,-927.1958 950.5037,-925.3851"/>
</g>
<!-- 6461 -->
<g id="node30" class="node">
<title>6461</title>
<ellipse fill="none" stroke="#000000" cx="878.2757" cy="-990.656" rx="28.6953" ry="18"/>
<text text-anchor="middle" x="878.2757" y="-986.956" font-family="Times,serif" font-size="14.00" fill="#000000">6461</text>
</g>
<!-- 1299&#45;&gt;6461 -->
<g id="edge11" class="edge">
<title>1299&#45;&gt;6461</title>
<path fill="none" stroke="#000000" d="M968.9432,-847.1381C951.2028,-875.2195 915.4908,-931.7482 894.5705,-964.863"/>
<polygon fill="#000000" stroke="#000000" points="891.4714,-963.2155 889.0894,-973.5391 897.3894,-966.9542 891.4714,-963.2155"/>
</g>
<!-- 7018 -->
<g id="node35" class="node">
<title>7018</title>
<ellipse fill="none" stroke="#000000" cx="804.618" cy="-1014.5889" rx="28.6953" ry="18"/>
<text text-anchor="middle" x="804.618" y="-1010.8889" font-family="Times,serif" font-size="14.00" fill="#000000">7018</text>
</g>
<!-- 1299&#45;&gt;7018 -->
<g id="edge12" class="edge">
<title>1299&#45;&gt;7018</title>
<path fill="none" stroke="#000000" d="M964.6762,-845.9922C933.8135,-878.5013 862.8235,-953.2783 826.6599,-991.371"/>
<polygon fill="#000000" stroke="#000000" points="823.8453,-989.2523 819.4986,-998.9144 828.922,-994.0718 823.8453,-989.2523"/>
</g>
<!-- 2516 -->
<g id="node10" class="node">
<title>2516</title>
<ellipse fill="none" stroke="#000000" cx="328.9409" cy="-925.0211" rx="28.6953" ry="18"/>
<text text-anchor="middle" x="328.9409" y="-921.3211" font-family="Times,serif" font-size="14.00" fill="#000000">2516</text>
</g>
<!-- 32787 -->
<g id="node53" class="node">
<title>32787</title>
<ellipse fill="none" stroke="#000000" cx="274.7197" cy="-972.3927" rx="32.4942" ry="18"/>
<text text-anchor="middle" x="274.7197" y="-968.6927" font-family="Times,serif" font-size="14.00" fill="#000000">32787</text>
</g>
<!-- 2516&#45;&gt;32787 -->
<g id="edge13" class="edge">
<title>2516&#45;&gt;32787</title>
<path fill="none" stroke="#000000" d="M312.0822,-939.7501C308.2176,-943.1265 304.0272,-946.7876 299.8968,-950.3962"/>
<polygon fill="#000000" stroke="#000000" points="297.3577,-947.9669 292.1297,-957.1821 301.9633,-953.2384 297.3577,-947.9669"/>
</g>
<!-- 2686 -->
<g id="node11" class="node">
<title>2686</title>
<ellipse fill="none" stroke="#000000" cx="212.5884" cy="-503.4273" rx="28.6953" ry="18"/>
<text text-anchor="middle" x="212.5884" y="-499.7273" font-family="Times,serif" font-size="14.00" fill="#000000">2686</text>
</g>
<!-- 3741 -->
<g id="node22" class="node">
<title>3741</title>
<ellipse fill="none" stroke="#000000" cx="141.7455" cy="-490.5712" rx="28.6953" ry="18"/>
<text text-anchor="middle" x="141.7455" y="-486.8712" font-family="Times,serif" font-size="14.00" fill="#000000">3741</text>
</g>
<!-- 2686&#45;&gt;3741 -->
<g id="edge14" class="edge">
<title>2686&#45;&gt;3741</title>
<path fill="none" stroke="#000000" d="M184.9958,-498.42C183.233,-498.1001 181.4429,-497.7753 179.6443,-497.4489"/>
<polygon fill="#000000" stroke="#000000" points="179.8436,-493.9279 169.3793,-495.586 178.5936,-500.8154 179.8436,-493.9279"/>
</g>
<!-- 2687 -->
<g id="node12" class="node">
<title>2687</title>
<ellipse fill="none" stroke="#000000" cx="337.639" cy="-814.9925" rx="28.6953" ry="18"/>
<text text-anchor="middle" x="337.639" y="-811.2925" font-family="Times,serif" font-size="14.00" fill="#000000">2687</text>
</g>
<!-- 2687&#45;&gt;2516 -->
<g id="edge15" class="edge">
<title>2687&#45;&gt;2516</title>
<path fill="none" stroke="#000000" d="M336.2027,-833.1615C334.8366,-850.4423 332.7609,-876.6995 331.178,-896.7221"/>
<polygon fill="#000000" stroke="#000000" points="327.6784,-896.5804 330.3793,-906.8251 334.6566,-897.1321 327.6784,-896.5804"/>
</g>
<!-- 2687&#45;&gt;2686 -->
<g id="edge16" class="edge">
<title>2687&#45;&gt;2686</title>
<path fill="none" stroke="#000000" d="M330.5575,-797.3487C309.7568,-745.5237 248.7302,-593.475 223.5978,-530.8574"/>
<polygon fill="#000000" stroke="#000000" points="226.7203,-529.2405 219.7473,-521.2638 220.224,-531.8479 226.7203,-529.2405"/>
</g>
<!-- 9505 -->
<g id="node41" class="node">
<title>9505</title>
<ellipse fill="none" stroke="#000000" cx="236.6265" cy="-416.3271" rx="28.6953" ry="18"/>
<text text-anchor="middle" x="236.6265" y="-412.6271" font-family="Times,serif" font-size="14.00" fill="#000000">9505</text>
</g>
<!-- 2687&#45;&gt;9505 -->
<g id="edge17" class="edge">
<title>2687&#45;&gt;9505</title>
<path fill="none" stroke="#000000" d="M333.1025,-797.0882C317.08,-733.8523 263.0706,-520.6938 243.6533,-444.0596"/>
<polygon fill="#000000" stroke="#000000" points="246.9996,-443.0161 241.1506,-434.1821 240.214,-444.7354 246.9996,-443.0161"/>
</g>
<!-- 2764 -->
<g id="node13" class="node">
<title>2764</title>
<ellipse fill="none" stroke="#000000" cx="260.6803" cy="-1061.7911" rx="28.6953" ry="18"/>
<text text-anchor="middle" x="260.6803" y="-1058.0911" font-family="Times,serif" font-size="14.00" fill="#000000">2764</text>
</g>
<!-- 7545 -->
<g id="node38" class="node">
<title>7545</title>
<ellipse fill="none" stroke="#000000" cx="311.8431" cy="-1194.3127" rx="28.6953" ry="18"/>
<text text-anchor="middle" x="311.8431" y="-1190.6127" font-family="Times,serif" font-size="14.00" fill="#000000">7545</text>
</g>
<!-- 2764&#45;&gt;7545 -->
<g id="edge18" class="edge">
<title>2764&#45;&gt;7545</title>
<path fill="none" stroke="#000000" d="M267.4743,-1079.3889C276.1514,-1101.8642 291.2556,-1140.9872 301.3997,-1167.2624"/>
<polygon fill="#000000" stroke="#000000" points="298.1542,-1168.5738 305.021,-1176.6421 304.6844,-1166.0526 298.1542,-1168.5738"/>
</g>
<!-- 38333 -->
<g id="node55" class="node">
<title>38333</title>
<ellipse fill="none" stroke="#000000" cx="90.4058" cy="-962.7075" rx="32.4942" ry="18"/>
<text text-anchor="middle" x="90.4058" y="-959.0075" font-family="Times,serif" font-size="14.00" fill="#000000">38333</text>
</g>
<!-- 2764&#45;&gt;38333 -->
<g id="edge19" class="edge">
<title>2764&#45;&gt;38333</title>
<path fill="none" stroke="#000000" d="M239.4592,-1049.4424C209.8341,-1032.2034 155.8765,-1000.8052 121.651,-980.8892"/>
<polygon fill="#000000" stroke="#000000" points="123.3833,-977.8479 112.9798,-975.8434 119.8627,-983.8981 123.3833,-977.8479"/>
</g>
<!-- 38561 -->
<g id="node56" class="node">
<title>38561</title>
<ellipse fill="none" stroke="#000000" cx="34.3998" cy="-846.4099" rx="32.4942" ry="18"/>
<text text-anchor="middle" x="34.3998" y="-842.7099" font-family="Times,serif" font-size="14.00" fill="#000000">38561</text>
</g>
<!-- 2764&#45;&gt;38561 -->
<g id="edge20" class="edge">
<title>2764&#45;&gt;38561</title>
<path fill="none" stroke="#000000" d="M244.7687,-1046.6459C205.684,-1009.4438 104.7802,-913.4002 58.3844,-869.2392"/>
<polygon fill="#000000" stroke="#000000" points="60.5585,-866.4766 50.902,-862.1172 55.7323,-871.5469 60.5585,-866.4766"/>
</g>
<!-- 2914 -->
<g id="node15" class="node">
<title>2914</title>
<ellipse fill="none" stroke="#000000" cx="658.7324" cy="-541.3788" rx="28.6953" ry="18"/>
<text text-anchor="middle" x="658.7324" y="-537.6788" font-family="Times,serif" font-size="14.00" fill="#000000">2914</text>
</g>
<!-- 6453 -->
<g id="node29" class="node">
<title>6453</title>
<ellipse fill="none" stroke="#000000" cx="708.4889" cy="-593.42" rx="28.6953" ry="18"/>
<text text-anchor="middle" x="708.4889" y="-589.72" font-family="Times,serif" font-size="14.00" fill="#000000">6453</text>
</g>
<!-- 2914&#45;&gt;6453 -->
<g id="edge21" class="edge">
<title>2914&#45;&gt;6453</title>
<path fill="none" stroke="#000000" d="M673.661,-556.9929C677.6954,-561.2125 682.1477,-565.8692 686.4821,-570.4027"/>
<polygon fill="#000000" stroke="#000000" points="684.1304,-573.0077 693.5708,-577.8169 689.19,-568.1702 684.1304,-573.0077"/>
</g>
<!-- 3257 -->
<g id="node16" class="node">
<title>3257</title>
<ellipse fill="none" stroke="#000000" cx="758.2454" cy="-645.4612" rx="28.6953" ry="18"/>
<text text-anchor="middle" x="758.2454" y="-641.7612" font-family="Times,serif" font-size="14.00" fill="#000000">3257</text>
</g>
<!-- 3491 -->
<g id="node19" class="node">
<title>3491</title>
<ellipse fill="none" stroke="#000000" cx="808.0019" cy="-697.5025" rx="28.6953" ry="18"/>
<text text-anchor="middle" x="808.0019" y="-693.8025" font-family="Times,serif" font-size="14.00" fill="#000000">3491</text>
</g>
<!-- 3257&#45;&gt;3491 -->
<g id="edge22" class="edge">
<title>3257&#45;&gt;3491</title>
<path fill="none" stroke="#000000" d="M773.174,-661.0753C777.2084,-665.2949 781.6607,-669.9517 785.9951,-674.4852"/>
<polygon fill="#000000" stroke="#000000" points="783.6434,-677.0902 793.0839,-681.8994 788.703,-672.2527 783.6434,-677.0902"/>
</g>
<!-- 3356 -->
<g id="node18" class="node">
<title>3356</title>
<ellipse fill="none" stroke="#000000" cx="821.6801" cy="-328.596" rx="28.6953" ry="18"/>
<text text-anchor="middle" x="821.6801" y="-324.896" font-family="Times,serif" font-size="14.00" fill="#000000">3356</text>
</g>
<!-- 3549 -->
<g id="node20" class="node">
<title>3549</title>
<ellipse fill="none" stroke="#000000" cx="559.2194" cy="-437.2963" rx="28.6953" ry="18"/>
<text text-anchor="middle" x="559.2194" y="-433.5963" font-family="Times,serif" font-size="14.00" fill="#000000">3549</text>
</g>
<!-- 3356&#45;&gt;3549 -->
<g id="edge23" class="edge">
<title>3356&#45;&gt;3549</title>
<path fill="none" stroke="#000000" d="M797.4589,-338.6274C750.3887,-358.1219 646.4859,-401.1541 592.7975,-423.3897"/>
<polygon fill="#000000" stroke="#000000" points="591.2818,-420.229 583.3821,-427.2891 593.9603,-426.6963 591.2818,-420.229"/>
</g>
<!-- 3491&#45;&gt;174 -->
<g id="edge24" class="edge">
<title>3491&#45;&gt;174</title>
<path fill="none" stroke="#000000" d="M822.9305,-713.1166C827.0382,-717.4129 831.5792,-722.1624 835.988,-726.7736"/>
<polygon fill="#000000" stroke="#000000" points="833.7424,-729.4895 843.1828,-734.2988 838.8019,-724.6521 833.7424,-729.4895"/>
</g>
<!-- 6762 -->
<g id="node31" class="node">
<title>6762</title>
<ellipse fill="none" stroke="#000000" cx="608.9759" cy="-489.3375" rx="28.6953" ry="18"/>
<text text-anchor="middle" x="608.9759" y="-485.6375" font-family="Times,serif" font-size="14.00" fill="#000000">6762</text>
</g>
<!-- 3549&#45;&gt;6762 -->
<g id="edge25" class="edge">
<title>3549&#45;&gt;6762</title>
<path fill="none" stroke="#000000" d="M574.148,-452.9104C578.1823,-457.13 582.6346,-461.7868 586.9691,-466.3202"/>
<polygon fill="#000000" stroke="#000000" points="584.6174,-468.9252 594.0578,-473.7345 589.677,-464.0878 584.6174,-468.9252"/>
</g>
<!-- 30070 -->
<g id="node52" class="node">
<title>30070</title>
<ellipse fill="none" stroke="#000000" cx="438.8533" cy="-694.616" rx="32.4942" ry="18"/>
<text text-anchor="middle" x="438.8533" y="-690.916" font-family="Times,serif" font-size="14.00" fill="#000000">30070</text>
</g>
<!-- 3549&#45;&gt;30070 -->
<g id="edge26" class="edge">
<title>3549&#45;&gt;30070</title>
<path fill="none" stroke="#000000" d="M551.1349,-454.5793C530.5419,-498.6032 475.9999,-615.2035 451.3091,-667.9879"/>
<polygon fill="#000000" stroke="#000000" points="448.1278,-666.5283 447.061,-677.0693 454.4684,-669.4943 448.1278,-666.5283"/>
</g>
<!-- 3597 -->
<g id="node21" class="node">
<title>3597</title>
<ellipse fill="none" stroke="#000000" cx="435.5406" cy="-86.197" rx="28.6953" ry="18"/>
<text text-anchor="middle" x="435.5406" y="-82.497" font-family="Times,serif" font-size="14.00" fill="#000000">3597</text>
</g>
<!-- 37179 -->
<g id="node54" class="node">
<title>37179</title>
<ellipse fill="none" stroke="#000000" cx="70.9025" cy="-477.7151" rx="32.4942" ry="18"/>
<text text-anchor="middle" x="70.9025" y="-474.0151" font-family="Times,serif" font-size="14.00" fill="#000000">37179</text>
</g>
<!-- 3741&#45;&gt;37179 -->
<g id="edge27" class="edge">
<title>3741&#45;&gt;37179</title>
<path fill="none" stroke="#000000" d="M114.1529,-485.5639C113.3953,-485.4264 112.6327,-485.288 111.8665,-485.149"/>
<polygon fill="#000000" stroke="#000000" points="112.2914,-481.669 101.8271,-483.3271 111.0415,-488.5565 112.2914,-481.669"/>
</g>
<!-- 4635 -->
<g id="node23" class="node">
<title>4635</title>
<ellipse fill="none" stroke="#000000" cx="463.7474" cy="-1346.6568" rx="28.6953" ry="18"/>
<text text-anchor="middle" x="463.7474" y="-1342.9568" font-family="Times,serif" font-size="14.00" fill="#000000">4635</text>
</g>
<!-- 4637 -->
<g id="node24" class="node">
<title>4637</title>
<ellipse fill="none" stroke="#000000" cx="70.9025" cy="-709.1249" rx="28.6953" ry="18"/>
<text text-anchor="middle" x="70.9025" y="-705.4249" font-family="Times,serif" font-size="14.00" fill="#000000">4637</text>
</g>
<!-- 4739 -->
<g id="node25" class="node">
<title>4739</title>
<ellipse fill="none" stroke="#000000" cx="333.1849" cy="-1290.8517" rx="28.6953" ry="18"/>
<text text-anchor="middle" x="333.1849" y="-1287.1517" font-family="Times,serif" font-size="14.00" fill="#000000">4739</text>
</g>
<!-- 38880 -->
<g id="node57" class="node">
<title>38880</title>
<ellipse fill="none" stroke="#000000" cx="299.0664" cy="-1354.2545" rx="32.4942" ry="18"/>
<text text-anchor="middle" x="299.0664" y="-1350.5545" font-family="Times,serif" font-size="14.00" fill="#000000">38880</text>
</g>
<!-- 4739&#45;&gt;38880 -->
<g id="edge28" class="edge">
<title>4739&#45;&gt;38880</title>
<path fill="none" stroke="#000000" d="M323.8619,-1308.1768C320.5521,-1314.3273 316.7495,-1321.3938 313.1322,-1328.1159"/>
<polygon fill="#000000" stroke="#000000" points="310.0348,-1326.4859 308.3782,-1336.9504 316.199,-1329.803 310.0348,-1326.4859"/>
</g>
<!-- 4755 -->
<g id="node26" class="node">
<title>4755</title>
<ellipse fill="none" stroke="#000000" cx="592.5114" cy="-1449.6006" rx="28.6953" ry="18"/>
<text text-anchor="middle" x="592.5114" y="-1445.9006" font-family="Times,serif" font-size="14.00" fill="#000000">4755</text>
</g>
<!-- 5692 -->
<g id="node28" class="node">
<title>5692</title>
<ellipse fill="none" stroke="#000000" cx="947.3187" cy="-149.5999" rx="28.6953" ry="18"/>
<text text-anchor="middle" x="947.3187" y="-145.8999" font-family="Times,serif" font-size="14.00" fill="#000000">5692</text>
</g>
<!-- 5692&#45;&gt;3597 -->
<g id="edge29" class="edge">
<title>5692&#45;&gt;3597</title>
<path fill="none" stroke="#000000" d="M919.0743,-146.1007C832.7429,-135.4054 572.2662,-103.1356 473.7997,-90.9368"/>
<polygon fill="#000000" stroke="#000000" points="474.0521,-87.4414 463.6977,-89.6853 473.1915,-94.3883 474.0521,-87.4414"/>
</g>
<!-- 10834 -->
<g id="node44" class="node">
<title>10834</title>
<ellipse fill="none" stroke="#000000" cx="878.2757" cy="-196.184" rx="32.4942" ry="18"/>
<text text-anchor="middle" x="878.2757" y="-192.484" font-family="Times,serif" font-size="14.00" fill="#000000">10834</text>
</g>
<!-- 5692&#45;&gt;10834 -->
<g id="edge30" class="edge">
<title>5692&#45;&gt;10834</title>
<path fill="none" stroke="#000000" d="M927.7184,-162.8244C921.4393,-167.061 914.3446,-171.8479 907.5304,-176.4455"/>
<polygon fill="#000000" stroke="#000000" points="905.4634,-173.6179 899.1314,-182.1124 909.3786,-179.4207 905.4634,-173.6179"/>
</g>
<!-- 11008 -->
<g id="node45" class="node">
<title>11008</title>
<ellipse fill="none" stroke="#000000" cx="530.4951" cy="-45.6115" rx="32.4942" ry="18"/>
<text text-anchor="middle" x="530.4951" y="-41.9115" font-family="Times,serif" font-size="14.00" fill="#000000">11008</text>
</g>
<!-- 5692&#45;&gt;11008 -->
<g id="edge31" class="edge">
<title>5692&#45;&gt;11008</title>
<path fill="none" stroke="#000000" d="M920.6104,-142.9367C849.3729,-125.1645 654.5438,-76.5589 570.2424,-55.5275"/>
<polygon fill="#000000" stroke="#000000" points="570.8377,-52.0688 560.2878,-53.0441 569.1432,-58.8607 570.8377,-52.0688"/>
</g>
<!-- 27865 -->
<g id="node50" class="node">
<title>27865</title>
<ellipse fill="none" stroke="#000000" cx="631.1705" cy="-22.6329" rx="32.4942" ry="18"/>
<text text-anchor="middle" x="631.1705" y="-18.9329" font-family="Times,serif" font-size="14.00" fill="#000000">27865</text>
</g>
<!-- 5692&#45;&gt;27865 -->
<g id="edge32" class="edge">
<title>5692&#45;&gt;27865</title>
<path fill="none" stroke="#000000" d="M923.036,-139.8478C867.7491,-117.6442 732.2563,-63.2296 667.1917,-37.0993"/>
<polygon fill="#000000" stroke="#000000" points="668.3327,-33.7858 657.7487,-33.3069 665.7239,-40.2816 668.3327,-33.7858"/>
</g>
<!-- 28065 -->
<g id="node51" class="node">
<title>28065</title>
<ellipse fill="none" stroke="#000000" cx="734.331" cy="-18" rx="32.4942" ry="18"/>
<text text-anchor="middle" x="734.331" y="-14.3" font-family="Times,serif" font-size="14.00" fill="#000000">28065</text>
</g>
<!-- 5692&#45;&gt;28065 -->
<g id="edge33" class="edge">
<title>5692&#45;&gt;28065</title>
<path fill="none" stroke="#000000" d="M926.8966,-136.9815C889.2969,-113.7496 808.9411,-64.0997 764.8469,-36.855"/>
<polygon fill="#000000" stroke="#000000" points="766.6225,-33.8379 756.2756,-31.559 762.943,-39.7929 766.6225,-33.8379"/>
</g>
<!-- 52317 -->
<g id="node58" class="node">
<title>52317</title>
<ellipse fill="none" stroke="#000000" cx="836.661" cy="-31.8615" rx="32.4942" ry="18"/>
<text text-anchor="middle" x="836.661" y="-28.1615" font-family="Times,serif" font-size="14.00" fill="#000000">52317</text>
</g>
<!-- 5692&#45;&gt;52317 -->
<g id="edge34" class="edge">
<title>5692&#45;&gt;52317</title>
<path fill="none" stroke="#000000" d="M932.3949,-133.7211C913.4201,-113.5322 880.5049,-78.5109 858.6524,-55.2601"/>
<polygon fill="#000000" stroke="#000000" points="861.1007,-52.7545 851.7017,-47.8647 855.9999,-57.5485 861.1007,-52.7545"/>
</g>
<!-- 52375 -->
<g id="node59" class="node">
<title>52375</title>
<ellipse fill="none" stroke="#000000" cx="934.8713" cy="-63.772" rx="32.4942" ry="18"/>
<text text-anchor="middle" x="934.8713" y="-60.072" font-family="Times,serif" font-size="14.00" fill="#000000">52375</text>
</g>
<!-- 5692&#45;&gt;52375 -->
<g id="edge35" class="edge">
<title>5692&#45;&gt;52375</title>
<path fill="none" stroke="#000000" d="M944.6789,-131.398C943.0287,-120.0189 940.8684,-105.1232 938.9955,-92.209"/>
<polygon fill="#000000" stroke="#000000" points="942.4064,-91.3417 937.5073,-81.9477 935.4789,-92.3465 942.4064,-91.3417"/>
</g>
<!-- 52376 -->
<g id="node60" class="node">
<title>52376</title>
<ellipse fill="none" stroke="#000000" cx="1025.8056" cy="-112.7058" rx="32.4942" ry="18"/>
<text text-anchor="middle" x="1025.8056" y="-109.0058" font-family="Times,serif" font-size="14.00" fill="#000000">52376</text>
</g>
<!-- 5692&#45;&gt;52376 -->
<g id="edge36" class="edge">
<title>5692&#45;&gt;52376</title>
<path fill="none" stroke="#000000" d="M970.4429,-138.73C977.0334,-135.632 984.3581,-132.1889 991.4648,-128.8482"/>
<polygon fill="#000000" stroke="#000000" points="993.3704,-131.82 1000.9314,-124.3983 990.3924,-125.485 993.3704,-131.82"/>
</g>
<!-- 52380 -->
<g id="node61" class="node">
<title>52380</title>
<ellipse fill="none" stroke="#000000" cx="1106.541" cy="-177.0902" rx="32.4942" ry="18"/>
<text text-anchor="middle" x="1106.541" y="-173.3902" font-family="Times,serif" font-size="14.00" fill="#000000">52380</text>
</g>
<!-- 5692&#45;&gt;52380 -->
<g id="edge37" class="edge">
<title>5692&#45;&gt;52380</title>
<path fill="none" stroke="#000000" d="M975.0531,-154.3883C999.97,-158.6903 1036.8954,-165.0656 1065.2774,-169.9659"/>
<polygon fill="#000000" stroke="#000000" points="1064.8596,-173.4454 1075.3093,-171.6979 1066.0506,-166.5475 1064.8596,-173.4454"/>
</g>
<!-- 52413 -->
<g id="node62" class="node">
<title>52413</title>
<ellipse fill="none" stroke="#000000" cx="1174.4827" cy="-254.8557" rx="32.4942" ry="18"/>
<text text-anchor="middle" x="1174.4827" y="-251.1557" font-family="Times,serif" font-size="14.00" fill="#000000">52413</text>
</g>
<!-- 5692&#45;&gt;52413 -->
<g id="edge38" class="edge">
<title>5692&#45;&gt;52413</title>
<path fill="none" stroke="#000000" d="M970.3505,-160.2716C1010.4505,-178.8518 1093.2805,-217.2309 1140.168,-238.9561"/>
<polygon fill="#000000" stroke="#000000" points="1138.7765,-242.1687 1149.3213,-243.1972 1141.7194,-235.8174 1138.7765,-242.1687"/>
</g>
<!-- 52431 -->
<g id="node63" class="node">
<title>52431</title>
<ellipse fill="none" stroke="#000000" cx="1227.447" cy="-343.503" rx="32.4942" ry="18"/>
<text text-anchor="middle" x="1227.447" y="-339.803" font-family="Times,serif" font-size="14.00" fill="#000000">52431</text>
</g>
<!-- 5692&#45;&gt;52431 -->
<g id="edge39" class="edge">
<title>5692&#45;&gt;52431</title>
<path fill="none" stroke="#000000" d="M966.5731,-162.9276C1014.8966,-196.3769 1141.5135,-284.0203 1198.6916,-323.5987"/>
<polygon fill="#000000" stroke="#000000" points="1196.7139,-326.4864 1206.9283,-329.3001 1200.698,-320.7307 1196.7139,-326.4864"/>
</g>
<!-- 262230 -->
<g id="node64" class="node">
<title>262230</title>
<ellipse fill="none" stroke="#000000" cx="1263.7315" cy="-440.1828" rx="37.0935" ry="18"/>
<text text-anchor="middle" x="1263.7315" y="-436.4828" font-family="Times,serif" font-size="14.00" fill="#000000">262230</text>
</g>
<!-- 5692&#45;&gt;262230 -->
<g id="edge40" class="edge">
<title>5692&#45;&gt;262230</title>
<path fill="none" stroke="#000000" d="M963.8849,-164.8137C1015.9539,-212.6321 1176.531,-360.1007 1238.7457,-417.2366"/>
<polygon fill="#000000" stroke="#000000" points="1236.4397,-419.8709 1246.1725,-424.0571 1241.1746,-414.7152 1236.4397,-419.8709"/>
</g>
<!-- 264608 -->
<g id="node65" class="node">
<title>264608</title>
<ellipse fill="none" stroke="#000000" cx="1282.1701" cy="-541.7878" rx="37.0935" ry="18"/>
<text text-anchor="middle" x="1282.1701" y="-538.0878" font-family="Times,serif" font-size="14.00" fill="#000000">264608</text>
</g>
<!-- 5692&#45;&gt;264608 -->
<g id="edge41" class="edge">
<title>5692&#45;&gt;264608</title>
<path fill="none" stroke="#000000" d="M960.86,-165.4598C1012.5802,-226.0361 1197.9114,-443.1015 1260.9806,-516.97"/>
<polygon fill="#000000" stroke="#000000" points="1258.5581,-519.5229 1267.7131,-524.8553 1263.8816,-514.9776 1258.5581,-519.5229"/>
</g>
<!-- 6453&#45;&gt;3257 -->
<g id="edge42" class="edge">
<title>6453&#45;&gt;3257</title>
<path fill="none" stroke="#000000" d="M723.4175,-609.0341C727.4519,-613.2537 731.9042,-617.9104 736.2386,-622.4439"/>
<polygon fill="#000000" stroke="#000000" points="733.8869,-625.0489 743.3274,-629.8582 738.9465,-620.2115 733.8869,-625.0489"/>
</g>
<!-- 6762&#45;&gt;2914 -->
<g id="edge43" class="edge">
<title>6762&#45;&gt;2914</title>
<path fill="none" stroke="#000000" d="M623.9045,-504.9516C627.9388,-509.1712 632.3911,-513.828 636.7256,-518.3615"/>
<polygon fill="#000000" stroke="#000000" points="634.3739,-520.9665 643.8143,-525.7757 639.4335,-516.129 634.3739,-520.9665"/>
</g>
<!-- 6904 -->
<g id="node32" class="node">
<title>6904</title>
<ellipse fill="none" stroke="#000000" cx="399.4473" cy="-778.0637" rx="28.6953" ry="18"/>
<text text-anchor="middle" x="399.4473" y="-774.3637" font-family="Times,serif" font-size="14.00" fill="#000000">6904</text>
</g>
<!-- 6904&#45;&gt;2687 -->
<g id="edge44" class="edge">
<title>6904&#45;&gt;2687</title>
<path fill="none" stroke="#000000" d="M378.5219,-790.5661C374.8971,-792.7318 371.0672,-795.0201 367.2632,-797.2929"/>
<polygon fill="#000000" stroke="#000000" points="365.3323,-794.3694 358.543,-802.503 368.9226,-800.3785 365.3323,-794.3694"/>
</g>
<!-- 6939 -->
<g id="node33" class="node">
<title>6939</title>
<ellipse fill="none" stroke="#000000" cx="214.685" cy="-1212.6305" rx="28.6953" ry="18"/>
<text text-anchor="middle" x="214.685" y="-1208.9305" font-family="Times,serif" font-size="14.00" fill="#000000">6939</text>
</g>
<!-- 12266 -->
<g id="node46" class="node">
<title>12266</title>
<ellipse fill="none" stroke="#000000" cx="169.7937" cy="-1268.9224" rx="32.4942" ry="18"/>
<text text-anchor="middle" x="169.7937" y="-1265.2224" font-family="Times,serif" font-size="14.00" fill="#000000">12266</text>
</g>
<!-- 6939&#45;&gt;12266 -->
<g id="edge45" class="edge">
<title>6939&#45;&gt;12266</title>
<path fill="none" stroke="#000000" d="M201.7006,-1228.9125C197.894,-1233.6857 193.6432,-1239.0162 189.5169,-1244.1904"/>
<polygon fill="#000000" stroke="#000000" points="186.7155,-1242.0896 183.217,-1252.0902 192.1883,-1246.4541 186.7155,-1242.0896"/>
</g>
<!-- 7016 -->
<g id="node34" class="node">
<title>7016</title>
<ellipse fill="none" stroke="#000000" cx="399.4473" cy="-408.7763" rx="28.6953" ry="18"/>
<text text-anchor="middle" x="399.4473" y="-405.0763" font-family="Times,serif" font-size="14.00" fill="#000000">7016</text>
</g>
<!-- 7922 -->
<g id="node39" class="node">
<title>7922</title>
<ellipse fill="none" stroke="#000000" cx="337.639" cy="-371.8475" rx="28.6953" ry="18"/>
<text text-anchor="middle" x="337.639" y="-368.1475" font-family="Times,serif" font-size="14.00" fill="#000000">7922</text>
</g>
<!-- 7016&#45;&gt;7922 -->
<g id="edge46" class="edge">
<title>7016&#45;&gt;7922</title>
<path fill="none" stroke="#000000" d="M378.5219,-396.2739C374.8971,-394.1082 371.0672,-391.8199 367.2632,-389.5472"/>
<polygon fill="#000000" stroke="#000000" points="368.9226,-386.4615 358.543,-384.337 365.3323,-392.4706 368.9226,-386.4615"/>
</g>
<!-- 7473 -->
<g id="node36" class="node">
<title>7473</title>
<ellipse fill="none" stroke="#000000" cx="169.2176" cy="-391.0281" rx="28.6953" ry="18"/>
<text text-anchor="middle" x="169.2176" y="-387.3281" font-family="Times,serif" font-size="14.00" fill="#000000">7473</text>
</g>
<!-- 7474 -->
<g id="node37" class="node">
<title>7474</title>
<ellipse fill="none" stroke="#000000" cx="60.4889" cy="-593.42" rx="28.6953" ry="18"/>
<text text-anchor="middle" x="60.4889" y="-589.72" font-family="Times,serif" font-size="14.00" fill="#000000">7474</text>
</g>
<!-- 7545&#45;&gt;4635 -->
<g id="edge47" class="edge">
<title>7545&#45;&gt;4635</title>
<path fill="none" stroke="#000000" d="M327.2444,-1209.7587C354.0846,-1236.6765 409.5523,-1292.3047 440.8901,-1323.7333"/>
<polygon fill="#000000" stroke="#000000" points="438.766,-1326.56 448.3053,-1331.17 443.7229,-1321.6173 438.766,-1326.56"/>
</g>
<!-- 7545&#45;&gt;4739 -->
<g id="edge48" class="edge">
<title>7545&#45;&gt;4739</title>
<path fill="none" stroke="#000000" d="M315.8573,-1212.471C318.9873,-1226.6293 323.3895,-1246.5423 326.9733,-1262.7538"/>
<polygon fill="#000000" stroke="#000000" points="323.6125,-1263.7661 329.1887,-1272.7749 330.4475,-1262.2551 323.6125,-1263.7661"/>
</g>
<!-- 7545&#45;&gt;6939 -->
<g id="edge49" class="edge">
<title>7545&#45;&gt;6939</title>
<path fill="none" stroke="#000000" d="M284.2614,-1199.5129C274.3129,-1201.3885 262.9096,-1203.5385 252.2527,-1205.5477"/>
<polygon fill="#000000" stroke="#000000" points="251.5141,-1202.1252 242.3357,-1207.4174 252.811,-1209.004 251.5141,-1202.1252"/>
</g>
<!-- 9942 -->
<g id="node42" class="node">
<title>9942</title>
<ellipse fill="none" stroke="#000000" cx="112.0563" cy="-1114.5075" rx="28.6953" ry="18"/>
<text text-anchor="middle" x="112.0563" y="-1110.8075" font-family="Times,serif" font-size="14.00" fill="#000000">9942</text>
</g>
<!-- 7545&#45;&gt;9942 -->
<g id="edge50" class="edge">
<title>7545&#45;&gt;9942</title>
<path fill="none" stroke="#000000" d="M287.3453,-1184.5271C251.8253,-1170.3385 185.899,-1144.0041 145.8017,-1127.9872"/>
<polygon fill="#000000" stroke="#000000" points="147.0265,-1124.7076 136.4417,-1124.2483 144.4298,-1131.2081 147.0265,-1124.7076"/>
</g>
<!-- 10026 -->
<g id="node43" class="node">
<title>10026</title>
<ellipse fill="none" stroke="#000000" cx="602.1762" cy="-1378.2522" rx="32.4942" ry="18"/>
<text text-anchor="middle" x="602.1762" y="-1374.5522" font-family="Times,serif" font-size="14.00" fill="#000000">10026</text>
</g>
<!-- 9498&#45;&gt;10026 -->
<g id="edge51" class="edge">
<title>9498&#45;&gt;10026</title>
<path fill="none" stroke="#000000" d="M609.4021,-1324.908C608.3685,-1332.5388 607.1393,-1341.6125 605.9906,-1350.0928"/>
<polygon fill="#000000" stroke="#000000" points="602.5219,-1349.6263 604.6478,-1360.0056 609.4586,-1350.5659 602.5219,-1349.6263"/>
</g>
<!-- 9505&#45;&gt;7473 -->
<g id="edge52" class="edge">
<title>9505&#45;&gt;7473</title>
<path fill="none" stroke="#000000" d="M211.9087,-407.0503C209.161,-406.0191 206.3274,-404.9556 203.4884,-403.8901"/>
<polygon fill="#000000" stroke="#000000" points="204.5246,-400.5407 193.9325,-400.3037 202.065,-407.0944 204.5246,-400.5407"/>
</g>
<!-- 10026&#45;&gt;4755 -->
<g id="edge53" class="edge">
<title>10026&#45;&gt;4755</title>
<path fill="none" stroke="#000000" d="M599.7373,-1396.2564C598.7037,-1403.8871 597.4746,-1412.9609 596.3258,-1421.4411"/>
<polygon fill="#000000" stroke="#000000" points="592.8571,-1420.9746 594.983,-1431.354 599.7938,-1421.9143 592.8571,-1420.9746"/>
</g>
<!-- 12956 -->
<g id="node47" class="node">
<title>12956</title>
<ellipse fill="none" stroke="#000000" cx="849.9779" cy="-262.39" rx="32.4942" ry="18"/>
<text text-anchor="middle" x="849.9779" y="-258.69" font-family="Times,serif" font-size="14.00" fill="#000000">12956</text>
</g>
<!-- 10834&#45;&gt;12956 -->
<g id="edge54" class="edge">
<title>10834&#45;&gt;12956</title>
<path fill="none" stroke="#000000" d="M870.6924,-213.926C867.9011,-220.4566 864.6717,-228.0121 861.6056,-235.1857"/>
<polygon fill="#000000" stroke="#000000" points="858.2941,-234.0281 857.5821,-244.599 864.7308,-236.7794 858.2941,-234.0281"/>
</g>
<!-- 22927 -->
<g id="node49" class="node">
<title>22927</title>
<ellipse fill="none" stroke="#000000" cx="394.25" cy="-199.3769" rx="32.4942" ry="18"/>
<text text-anchor="middle" x="394.25" y="-195.6769" font-family="Times,serif" font-size="14.00" fill="#000000">22927</text>
</g>
<!-- 10834&#45;&gt;22927 -->
<g id="edge55" class="edge">
<title>10834&#45;&gt;22927</title>
<path fill="none" stroke="#000000" d="M845.7658,-196.3985C760.8778,-196.9584 532.5342,-198.4647 437.0949,-199.0943"/>
<polygon fill="#000000" stroke="#000000" points="436.9131,-195.5953 426.9364,-199.1613 436.9593,-202.5952 436.9131,-195.5953"/>
</g>
<!-- 12956&#45;&gt;3356 -->
<g id="edge56" class="edge">
<title>12956&#45;&gt;3356</title>
<path fill="none" stroke="#000000" d="M842.3946,-280.132C839.6033,-286.6626 836.3739,-294.2181 833.3078,-301.3917"/>
<polygon fill="#000000" stroke="#000000" points="829.9963,-300.2341 829.2843,-310.805 836.433,-302.9854 829.9963,-300.2341"/>
</g>
<!-- 18540 -->
<g id="node48" class="node">
<title>18540</title>
<ellipse fill="none" stroke="#000000" cx="437.3832" cy="-356.5621" rx="32.4942" ry="18"/>
<text text-anchor="middle" x="437.3832" y="-352.8621" font-family="Times,serif" font-size="14.00" fill="#000000">18540</text>
</g>
<!-- 30070&#45;&gt;6904 -->
<g id="edge57" class="edge">
<title>30070&#45;&gt;6904</title>
<path fill="none" stroke="#000000" d="M430.4963,-712.3131C425.1313,-723.6742 418.0638,-738.6406 412.0272,-751.4241"/>
<polygon fill="#000000" stroke="#000000" points="408.7624,-750.1412 407.6572,-760.6783 415.0921,-753.1303 408.7624,-750.1412"/>
</g>
<!-- 30070&#45;&gt;7016 -->
<g id="edge58" class="edge">
<title>30070&#45;&gt;7016</title>
<path fill="none" stroke="#000000" d="M436.3283,-676.3006C429.6278,-627.6972 411.3616,-495.1992 403.3273,-436.9204"/>
<polygon fill="#000000" stroke="#000000" points="406.7843,-436.3674 401.9513,-426.9391 399.8498,-437.3234 406.7843,-436.3674"/>
</g>
<!-- 30070&#45;&gt;18540 -->
<g id="edge59" class="edge">
<title>30070&#45;&gt;18540</title>
<path fill="none" stroke="#000000" d="M438.7742,-676.4407C438.5324,-620.8388 437.8013,-452.7194 437.5075,-385.1418"/>
<polygon fill="#000000" stroke="#000000" points="441.0062,-384.8118 437.4626,-374.8272 434.0062,-384.8423 441.0062,-384.8118"/>
</g>
<!-- 32787&#45;&gt;703 -->
<g id="edge60" class="edge">
<title>32787&#45;&gt;703</title>
<path fill="none" stroke="#000000" d="M294.3581,-987.2955C353.1849,-1031.9369 528.0304,-1164.6205 594.9997,-1215.441"/>
<polygon fill="#000000" stroke="#000000" points="593.2656,-1218.5187 603.3474,-1221.7758 597.4972,-1212.9425 593.2656,-1218.5187"/>
</g>
<!-- 32787&#45;&gt;2764 -->
<g id="edge61" class="edge">
<title>32787&#45;&gt;2764</title>
<path fill="none" stroke="#000000" d="M271.8787,-990.4838C269.9376,-1002.8435 267.3265,-1019.4706 265.1138,-1033.56"/>
<polygon fill="#000000" stroke="#000000" points="261.6111,-1033.3049 263.5172,-1043.7269 268.5263,-1034.391 261.6111,-1033.3049"/>
</g>
<!-- 32787&#45;&gt;4637 -->
<g id="edge62" class="edge">
<title>32787&#45;&gt;4637</title>
<path fill="none" stroke="#000000" d="M261.66,-955.5236C226.7046,-910.3722 130.8919,-786.6122 89.9072,-733.6729"/>
<polygon fill="#000000" stroke="#000000" points="92.4813,-731.2804 83.592,-725.5157 86.9462,-735.5656 92.4813,-731.2804"/>
</g>
<!-- 32787&#45;&gt;7474 -->
<g id="edge63" class="edge">
<title>32787&#45;&gt;7474</title>
<path fill="none" stroke="#000000" d="M264.958,-955.1243C230.8027,-894.7038 116.5145,-692.5288 75.3908,-619.7813"/>
<polygon fill="#000000" stroke="#000000" points="78.276,-617.7728 70.308,-610.7899 72.1822,-621.2176 78.276,-617.7728"/>
</g>
<!-- 38333&#45;&gt;1221 -->
<g id="edge64" class="edge">
<title>38333&#45;&gt;1221</title>
<path fill="none" stroke="#000000" d="M68.0916,-976.0396C64.8585,-977.9713 61.4891,-979.9844 58.1411,-981.9847"/>
<polygon fill="#000000" stroke="#000000" points="56.2261,-979.0517 49.4368,-987.1853 59.8164,-985.0609 56.2261,-979.0517"/>
</g>
</g>
</svg>
