<?xml version="1.0" encoding="UTF-8" standalone="no"?>
<!DOCTYPE svg PUBLIC "-//W3C//DTD SVG 1.1//EN"
 "http://www.w3.org/Graphics/SVG/1.1/DTD/svg11.dtd">
<!-- Generated by graphviz version 2.40.1 (20161225.0304)
 -->
<!-- Title: %3 Pages: 1 -->
<svg width="12097pt" height="8049pt"
 viewBox="0.00 0.00 12096.62 8048.82" xmlns="http://www.w3.org/2000/svg" xmlns:xlink="http://www.w3.org/1999/xlink">
<g id="graph0" class="graph" transform="scale(1 1) rotate(0) translate(4 8044.8159)">
<title>%3</title>
<polygon fill="#ffffff" stroke="transparent" points="-4,4 -4,-8044.8159 12092.6178,-8044.8159 12092.6178,4 -4,4"/>
<!-- 174 -->
<g id="node1" class="node">
<title>174</title>
<ellipse fill="none" stroke="#000000" cx="27" cy="-3966.871" rx="27" ry="18"/>
<text text-anchor="middle" x="27" y="-3963.171" font-family="Times,serif" font-size="14.00" fill="#000000">174</text>
</g>
<!-- 209 -->
<g id="node2" class="node">
<title>209</title>
<ellipse fill="none" stroke="#000000" cx="4894.3782" cy="-1490.3167" rx="27" ry="18"/>
<text text-anchor="middle" x="4894.3782" y="-1486.6167" font-family="Times,serif" font-size="14.00" fill="#000000">209</text>
</g>
<!-- 701 -->
<g id="node3" class="node">
<title>701</title>
<ellipse fill="none" stroke="#000000" cx="5974.8983" cy="-532.9154" rx="27" ry="18"/>
<text text-anchor="middle" x="5974.8983" y="-529.2154" font-family="Times,serif" font-size="14.00" fill="#000000">701</text>
</g>
<!-- 1239 -->
<g id="node4" class="node">
<title>1239</title>
<ellipse fill="none" stroke="#000000" cx="7325.8324" cy="-19.4395" rx="28.6953" ry="18"/>
<text text-anchor="middle" x="7325.8324" y="-15.7395" font-family="Times,serif" font-size="14.00" fill="#000000">1239</text>
</g>
<!-- 1273 -->
<g id="node5" class="node">
<title>1273</title>
<ellipse fill="none" stroke="#000000" cx="8772.6298" cy="-18" rx="28.6953" ry="18"/>
<text text-anchor="middle" x="8772.6298" y="-14.3" font-family="Times,serif" font-size="14.00" fill="#000000">1273</text>
</g>
<!-- 1299 -->
<g id="node6" class="node">
<title>1299</title>
<ellipse fill="none" stroke="#000000" cx="10125.9511" cy="-529.6113" rx="28.6953" ry="18"/>
<text text-anchor="middle" x="10125.9511" y="-525.9113" font-family="Times,serif" font-size="14.00" fill="#000000">1299</text>
</g>
<!-- 2497 -->
<g id="node7" class="node">
<title>2497</title>
<ellipse fill="none" stroke="#000000" cx="11209.9682" cy="-1487.8032" rx="28.6953" ry="18"/>
<text text-anchor="middle" x="11209.9682" y="-1484.1032" font-family="Times,serif" font-size="14.00" fill="#000000">2497</text>
</g>
<!-- 2516 -->
<g id="node8" class="node">
<title>2516</title>
<ellipse fill="none" stroke="#000000" cx="3303.694" cy="-5445.4875" rx="28.6953" ry="18"/>
<text text-anchor="middle" x="3303.694" y="-5441.7875" font-family="Times,serif" font-size="14.00" fill="#000000">2516</text>
</g>
<!-- 32787 -->
<g id="node39" class="node">
<title>32787</title>
<ellipse fill="none" stroke="#000000" cx="3295.1545" cy="-5312.6672" rx="32.4942" ry="18"/>
<text text-anchor="middle" x="3295.1545" y="-5308.9672" font-family="Times,serif" font-size="14.00" fill="#000000">32787</text>
</g>
<!-- 2516&#45;&gt;32787 -->
<g id="edge1" class="edge">
<title>2516&#45;&gt;32787</title>
<path fill="none" stroke="#000000" d="M3302.5245,-5427.2979C3301.0953,-5405.0679 3298.6605,-5367.198 3296.9829,-5341.1057"/>
<polygon fill="#000000" stroke="#000000" points="3300.4718,-5340.8181 3296.3373,-5331.0633 3293.4862,-5341.2673 3300.4718,-5340.8181"/>
</g>
<!-- 2686 -->
<g id="node9" class="node">
<title>2686</title>
<ellipse fill="none" stroke="#000000" cx="3430.8882" cy="-5634.2141" rx="28.6953" ry="18"/>
<text text-anchor="middle" x="3430.8882" y="-5630.5141" font-family="Times,serif" font-size="14.00" fill="#000000">2686</text>
</g>
<!-- 3741 -->
<g id="node19" class="node">
<title>3741</title>
<ellipse fill="none" stroke="#000000" cx="3546.3093" cy="-5692.2599" rx="28.6953" ry="18"/>
<text text-anchor="middle" x="3546.3093" y="-5688.5599" font-family="Times,serif" font-size="14.00" fill="#000000">3741</text>
</g>
<!-- 2686&#45;&gt;3741 -->
<g id="edge2" class="edge">
<title>2686&#45;&gt;3741</title>
<path fill="none" stroke="#000000" d="M3453.4166,-5645.5437C3470.8941,-5654.3333 3495.3332,-5666.6238 3514.7575,-5676.3924"/>
<polygon fill="#000000" stroke="#000000" points="3513.3313,-5679.5928 3523.8378,-5680.9589 3516.4764,-5673.3391 3513.3313,-5679.5928"/>
</g>
<!-- 2687 -->
<g id="node10" class="node">
<title>2687</title>
<ellipse fill="none" stroke="#000000" cx="3311.9833" cy="-5574.4162" rx="28.6953" ry="18"/>
<text text-anchor="middle" x="3311.9833" y="-5570.7162" font-family="Times,serif" font-size="14.00" fill="#000000">2687</text>
</g>
<!-- 2687&#45;&gt;2516 -->
<g id="edge3" class="edge">
<title>2687&#45;&gt;2516</title>
<path fill="none" stroke="#000000" d="M3310.8132,-5556.2174C3309.4309,-5534.7168 3307.1155,-5498.7038 3305.5019,-5473.6071"/>
<polygon fill="#000000" stroke="#000000" points="3308.9926,-5473.3486 3304.8581,-5463.5938 3302.0071,-5473.7978 3308.9926,-5473.3486"/>
</g>
<!-- 2687&#45;&gt;2686 -->
<g id="edge4" class="edge">
<title>2687&#45;&gt;2686</title>
<path fill="none" stroke="#000000" d="M3334.3484,-5585.6638C3352.6667,-5594.8761 3378.8062,-5608.0218 3399.2665,-5618.3114"/>
<polygon fill="#000000" stroke="#000000" points="3397.7127,-5621.4476 3408.2191,-5622.8137 3400.8578,-5615.1939 3397.7127,-5621.4476"/>
</g>
<!-- 9505 -->
<g id="node30" class="node">
<title>9505</title>
<ellipse fill="none" stroke="#000000" cx="3201.715" cy="-5648.9485" rx="28.6953" ry="18"/>
<text text-anchor="middle" x="3201.715" y="-5645.2485" font-family="Times,serif" font-size="14.00" fill="#000000">9505</text>
</g>
<!-- 2687&#45;&gt;9505 -->
<g id="edge5" class="edge">
<title>2687&#45;&gt;9505</title>
<path fill="none" stroke="#000000" d="M3292.2695,-5587.7411C3274.8642,-5599.5056 3249.2918,-5616.7905 3229.7574,-5629.9941"/>
<polygon fill="#000000" stroke="#000000" points="3227.583,-5627.2392 3221.2581,-5635.739 3231.503,-5633.0387 3227.583,-5627.2392"/>
</g>
<!-- 2828 -->
<g id="node11" class="node">
<title>2828</title>
<ellipse fill="none" stroke="#000000" cx="6132.6553" cy="-8022.8159" rx="28.6953" ry="18"/>
<text text-anchor="middle" x="6132.6553" y="-8019.1159" font-family="Times,serif" font-size="14.00" fill="#000000">2828</text>
</g>
<!-- 2914 -->
<g id="node12" class="node">
<title>2914</title>
<ellipse fill="none" stroke="#000000" cx="4814.6652" cy="-6341.7535" rx="28.6953" ry="18"/>
<text text-anchor="middle" x="4814.6652" y="-6338.0535" font-family="Times,serif" font-size="14.00" fill="#000000">2914</text>
</g>
<!-- 6453 -->
<g id="node22" class="node">
<title>6453</title>
<ellipse fill="none" stroke="#000000" cx="4894.3782" cy="-6443.4253" rx="28.6953" ry="18"/>
<text text-anchor="middle" x="4894.3782" y="-6439.7253" font-family="Times,serif" font-size="14.00" fill="#000000">6453</text>
</g>
<!-- 2914&#45;&gt;6453 -->
<g id="edge6" class="edge">
<title>2914&#45;&gt;6453</title>
<path fill="none" stroke="#000000" d="M4827.4724,-6358.0888C4840.4302,-6374.6161 4860.6102,-6400.3552 4875.421,-6419.246"/>
<polygon fill="#000000" stroke="#000000" points="4872.6783,-6421.4203 4881.6027,-6427.1305 4878.187,-6417.1013 4872.6783,-6421.4203"/>
</g>
<!-- 3257 -->
<g id="node13" class="node">
<title>3257</title>
<ellipse fill="none" stroke="#000000" cx="8053.1593" cy="-3966.871" rx="28.6953" ry="18"/>
<text text-anchor="middle" x="8053.1593" y="-3963.171" font-family="Times,serif" font-size="14.00" fill="#000000">3257</text>
</g>
<!-- 3257&#45;&gt;174 -->
<g id="edge7" class="edge">
<title>3257&#45;&gt;174</title>
<path fill="none" stroke="#000000" d="M8024.4942,-3966.871C7524.0692,-3966.871 632.3407,-3966.871 64.2021,-3966.871"/>
<polygon fill="#000000" stroke="#000000" points="64.0914,-3963.3711 54.0914,-3966.871 64.0914,-3970.3711 64.0914,-3963.3711"/>
</g>
<!-- 3257&#45;&gt;209 -->
<g id="edge8" class="edge">
<title>3257&#45;&gt;209</title>
<path fill="none" stroke="#000000" d="M8035.004,-3952.6368C7792.9562,-3762.866 5207.4363,-1735.7612 4920.2545,-1510.6043"/>
<polygon fill="#000000" stroke="#000000" points="4922.1032,-1507.6062 4912.074,-1504.1906 4917.7841,-1513.115 4922.1032,-1507.6062"/>
</g>
<!-- 3257&#45;&gt;701 -->
<g id="edge9" class="edge">
<title>3257&#45;&gt;701</title>
<path fill="none" stroke="#000000" d="M8042.9575,-3950.0142C7894.5219,-3704.7509 6173.4718,-861.0227 5990.603,-558.8647"/>
<polygon fill="#000000" stroke="#000000" points="5993.366,-556.6701 5985.1939,-549.9271 5987.3773,-560.2945 5993.366,-556.6701"/>
</g>
<!-- 3257&#45;&gt;1239 -->
<g id="edge10" class="edge">
<title>3257&#45;&gt;1239</title>
<path fill="none" stroke="#000000" d="M8049.8361,-3948.835C7999.4879,-3675.5791 7393.066,-384.3374 7330.9588,-47.2623"/>
<polygon fill="#000000" stroke="#000000" points="7334.3837,-46.5345 7329.1295,-37.3342 7327.4996,-47.8029 7334.3837,-46.5345"/>
</g>
<!-- 3257&#45;&gt;1273 -->
<g id="edge11" class="edge">
<title>3257&#45;&gt;1273</title>
<path fill="none" stroke="#000000" d="M8056.4466,-3948.8284C8106.2511,-3675.4729 8706.1224,-383.031 8767.5587,-45.833"/>
<polygon fill="#000000" stroke="#000000" points="8771.019,-46.3667 8769.3682,-35.9013 8764.1324,-45.1119 8771.019,-46.3667"/>
</g>
<!-- 3257&#45;&gt;1299 -->
<g id="edge12" class="edge">
<title>3257&#45;&gt;1299</title>
<path fill="none" stroke="#000000" d="M8063.3344,-3949.998C8211.3793,-3704.4987 9927.9002,-858.0343 10110.2877,-555.5856"/>
<polygon fill="#000000" stroke="#000000" points="10113.5157,-557.0102 10115.6826,-546.6394 10107.5213,-553.3954 10113.5157,-557.0102"/>
</g>
<!-- 3257&#45;&gt;2497 -->
<g id="edge13" class="edge">
<title>3257&#45;&gt;2497</title>
<path fill="none" stroke="#000000" d="M8071.3033,-3952.6224C8313.0762,-3762.7561 10894.4614,-1735.5732 11183.6656,-1508.4588"/>
<polygon fill="#000000" stroke="#000000" points="11186.2079,-1510.9126 11191.911,-1501.9837 11181.8845,-1505.4073 11186.2079,-1510.9126"/>
</g>
<!-- 3320 -->
<g id="node14" class="node">
<title>3320</title>
<ellipse fill="none" stroke="#000000" cx="11883.842" cy="-2768.084" rx="28.6953" ry="18"/>
<text text-anchor="middle" x="11883.842" y="-2764.384" font-family="Times,serif" font-size="14.00" fill="#000000">3320</text>
</g>
<!-- 3257&#45;&gt;3320 -->
<g id="edge14" class="edge">
<title>3257&#45;&gt;3320</title>
<path fill="none" stroke="#000000" d="M8078.8903,-3958.8186C8392.8815,-3860.5572 11481.317,-2894.0515 11848.2663,-2779.2171"/>
<polygon fill="#000000" stroke="#000000" points="11849.3562,-2782.5435 11857.8545,-2776.2166 11847.2655,-2775.863 11849.3562,-2782.5435"/>
</g>
<!-- 3491 -->
<g id="node16" class="node">
<title>3491</title>
<ellipse fill="none" stroke="#000000" cx="12060.0203" cy="-4204.1153" rx="28.6953" ry="18"/>
<text text-anchor="middle" x="12060.0203" y="-4200.4153" font-family="Times,serif" font-size="14.00" fill="#000000">3491</text>
</g>
<!-- 3257&#45;&gt;3491 -->
<g id="edge15" class="edge">
<title>3257&#45;&gt;3491</title>
<path fill="none" stroke="#000000" d="M8081.7093,-3968.5614C8418.5829,-3988.5075 11630.305,-4178.6721 12021.1288,-4201.8125"/>
<polygon fill="#000000" stroke="#000000" points="12021.1719,-4205.3211 12031.3613,-4202.4184 12021.5857,-4198.3334 12021.1719,-4205.3211"/>
</g>
<!-- 5511 -->
<g id="node20" class="node">
<title>5511</title>
<ellipse fill="none" stroke="#000000" cx="11715.6136" cy="-5609.323" rx="28.6953" ry="18"/>
<text text-anchor="middle" x="11715.6136" y="-5605.623" font-family="Times,serif" font-size="14.00" fill="#000000">5511</text>
</g>
<!-- 3257&#45;&gt;5511 -->
<g id="edge16" class="edge">
<title>3257&#45;&gt;5511</title>
<path fill="none" stroke="#000000" d="M8076.547,-3977.3594C8370.2608,-4109.0773 11337.4861,-5439.7492 11682.8694,-5594.6387"/>
<polygon fill="#000000" stroke="#000000" points="11681.5417,-5597.879 11692.0984,-5598.7775 11684.4061,-5591.4919 11681.5417,-5597.879"/>
</g>
<!-- 6461 -->
<g id="node23" class="node">
<title>6461</title>
<ellipse fill="none" stroke="#000000" cx="10895.3683" cy="-6801.1378" rx="28.6953" ry="18"/>
<text text-anchor="middle" x="10895.3683" y="-6797.4378" font-family="Times,serif" font-size="14.00" fill="#000000">6461</text>
</g>
<!-- 3257&#45;&gt;6461 -->
<g id="edge17" class="edge">
<title>3257&#45;&gt;6461</title>
<path fill="none" stroke="#000000" d="M8068.4512,-3982.1201C8279.9236,-4193.0016 10617.6224,-6524.168 10872.8044,-6778.637"/>
<polygon fill="#000000" stroke="#000000" points="10870.508,-6781.2898 10880.0604,-6785.8726 10875.4508,-6776.3331 10870.508,-6781.2898"/>
</g>
<!-- 7018 -->
<g id="node27" class="node">
<title>7018</title>
<ellipse fill="none" stroke="#000000" cx="9705.8535" cy="-7624.7149" rx="28.6953" ry="18"/>
<text text-anchor="middle" x="9705.8535" y="-7621.0149" font-family="Times,serif" font-size="14.00" fill="#000000">7018</text>
</g>
<!-- 3257&#45;&gt;7018 -->
<g id="edge18" class="edge">
<title>3257&#45;&gt;7018</title>
<path fill="none" stroke="#000000" d="M8061.0828,-3984.4077C8177.9558,-4243.0783 9550.5825,-7281.0597 9693.7939,-7598.0239"/>
<polygon fill="#000000" stroke="#000000" points="9690.7141,-7599.708 9698.0211,-7607.3799 9697.0932,-7596.8258 9690.7141,-7599.708"/>
</g>
<!-- 3356 -->
<g id="node15" class="node">
<title>3356</title>
<ellipse fill="none" stroke="#000000" cx="3678.0599" cy="-4682.6499" rx="28.6953" ry="18"/>
<text text-anchor="middle" x="3678.0599" y="-4678.9499" font-family="Times,serif" font-size="14.00" fill="#000000">3356</text>
</g>
<!-- 3549 -->
<g id="node17" class="node">
<title>3549</title>
<ellipse fill="none" stroke="#000000" cx="3576.388" cy="-4762.3629" rx="28.6953" ry="18"/>
<text text-anchor="middle" x="3576.388" y="-4758.6629" font-family="Times,serif" font-size="14.00" fill="#000000">3549</text>
</g>
<!-- 3356&#45;&gt;3549 -->
<g id="edge19" class="edge">
<title>3356&#45;&gt;3549</title>
<path fill="none" stroke="#000000" d="M3659.883,-4696.901C3643.9792,-4709.3699 3620.68,-4727.637 3602.7324,-4741.7083"/>
<polygon fill="#000000" stroke="#000000" points="3600.1177,-4739.3108 3594.4075,-4748.2352 3604.4367,-4744.8195 3600.1177,-4739.3108"/>
</g>
<!-- 6762 -->
<g id="node24" class="node">
<title>6762</title>
<ellipse fill="none" stroke="#000000" cx="4734.9522" cy="-6240.0816" rx="28.6953" ry="18"/>
<text text-anchor="middle" x="4734.9522" y="-6236.3816" font-family="Times,serif" font-size="14.00" fill="#000000">6762</text>
</g>
<!-- 3549&#45;&gt;6762 -->
<g id="edge20" class="edge">
<title>3549&#45;&gt;6762</title>
<path fill="none" stroke="#000000" d="M3589.3992,-4778.9583C3706.3157,-4928.0823 4574.9879,-6036.0513 4715.7182,-6215.5491"/>
<polygon fill="#000000" stroke="#000000" points="4713.1158,-6217.9026 4722.0402,-6223.6127 4718.6246,-6213.5835 4713.1158,-6217.9026"/>
</g>
<!-- 30070 -->
<g id="node38" class="node">
<title>30070</title>
<ellipse fill="none" stroke="#000000" cx="2837.5287" cy="-5341.645" rx="32.4942" ry="18"/>
<text text-anchor="middle" x="2837.5287" y="-5337.945" font-family="Times,serif" font-size="14.00" fill="#000000">30070</text>
</g>
<!-- 3549&#45;&gt;30070 -->
<g id="edge21" class="edge">
<title>3549&#45;&gt;30070</title>
<path fill="none" stroke="#000000" d="M3558.124,-4776.6823C3458.7312,-4854.6084 2983.0921,-5227.52 2864.4068,-5320.5719"/>
<polygon fill="#000000" stroke="#000000" points="2862.1985,-5317.8557 2856.4884,-5326.7801 2866.5176,-5323.3645 2862.1985,-5317.8557"/>
</g>
<!-- 3597 -->
<g id="node18" class="node">
<title>3597</title>
<ellipse fill="none" stroke="#000000" cx="4566.3844" cy="-4177.4088" rx="28.6953" ry="18"/>
<text text-anchor="middle" x="4566.3844" y="-4173.7088" font-family="Times,serif" font-size="14.00" fill="#000000">3597</text>
</g>
<!-- 5692 -->
<g id="node21" class="node">
<title>5692</title>
<ellipse fill="none" stroke="#000000" cx="4669.7727" cy="-4419.5555" rx="28.6953" ry="18"/>
<text text-anchor="middle" x="4669.7727" y="-4415.8555" font-family="Times,serif" font-size="14.00" fill="#000000">5692</text>
</g>
<!-- 5692&#45;&gt;3597 -->
<g id="edge22" class="edge">
<title>5692&#45;&gt;3597</title>
<path fill="none" stroke="#000000" d="M4662.3372,-4402.1409C4644.497,-4360.357 4599.1655,-4254.1857 4577.8245,-4204.2027"/>
<polygon fill="#000000" stroke="#000000" points="4581.0371,-4202.8134 4573.8914,-4194.9909 4574.5993,-4205.5621 4581.0371,-4202.8134"/>
</g>
<!-- 10834 -->
<g id="node31" class="node">
<title>10834</title>
<ellipse fill="none" stroke="#000000" cx="4419.9881" cy="-4100.9617" rx="32.4942" ry="18"/>
<text text-anchor="middle" x="4419.9881" y="-4097.2617" font-family="Times,serif" font-size="14.00" fill="#000000">10834</text>
</g>
<!-- 5692&#45;&gt;10834 -->
<g id="edge23" class="edge">
<title>5692&#45;&gt;10834</title>
<path fill="none" stroke="#000000" d="M4657.0424,-4403.3183C4616.2137,-4351.2424 4488.3652,-4188.1749 4439.3658,-4125.6774"/>
<polygon fill="#000000" stroke="#000000" points="4441.9167,-4123.2583 4432.9923,-4117.5482 4436.4079,-4127.5774 4441.9167,-4123.2583"/>
</g>
<!-- 11008 -->
<g id="node32" class="node">
<title>11008</title>
<ellipse fill="none" stroke="#000000" cx="4696.5723" cy="-4157.6281" rx="32.4942" ry="18"/>
<text text-anchor="middle" x="4696.5723" y="-4153.9281" font-family="Times,serif" font-size="14.00" fill="#000000">11008</text>
</g>
<!-- 5692&#45;&gt;11008 -->
<g id="edge24" class="edge">
<title>5692&#45;&gt;11008</title>
<path fill="none" stroke="#000000" d="M4671.6147,-4401.5521C4676.195,-4356.7862 4688.1277,-4240.1617 4693.6679,-4186.015"/>
<polygon fill="#000000" stroke="#000000" points="4697.1813,-4186.0618 4694.7174,-4175.7575 4690.2176,-4185.3492 4697.1813,-4186.0618"/>
</g>
<!-- 27865 -->
<g id="node36" class="node">
<title>27865</title>
<ellipse fill="none" stroke="#000000" cx="4823.2422" cy="-4205.6133" rx="32.4942" ry="18"/>
<text text-anchor="middle" x="4823.2422" y="-4201.9133" font-family="Times,serif" font-size="14.00" fill="#000000">27865</text>
</g>
<!-- 5692&#45;&gt;27865 -->
<g id="edge25" class="edge">
<title>5692&#45;&gt;27865</title>
<path fill="none" stroke="#000000" d="M4681.5603,-4403.123C4708.2761,-4365.8803 4773.5717,-4274.8558 4805.3214,-4230.5955"/>
<polygon fill="#000000" stroke="#000000" points="4808.2178,-4232.5625 4811.2027,-4222.3968 4802.5299,-4228.4823 4808.2178,-4232.5625"/>
</g>
<!-- 28065 -->
<g id="node37" class="node">
<title>28065</title>
<ellipse fill="none" stroke="#000000" cx="4909.2937" cy="-4310.2219" rx="32.4942" ry="18"/>
<text text-anchor="middle" x="4909.2937" y="-4306.5219" font-family="Times,serif" font-size="14.00" fill="#000000">28065</text>
</g>
<!-- 5692&#45;&gt;28065 -->
<g id="edge26" class="edge">
<title>5692&#45;&gt;28065</title>
<path fill="none" stroke="#000000" d="M4693.1751,-4408.873C4735.5522,-4389.5293 4825.1823,-4348.6161 4874.6652,-4326.0287"/>
<polygon fill="#000000" stroke="#000000" points="4876.3569,-4329.104 4884.0006,-4321.7674 4873.4501,-4322.736 4876.3569,-4329.104"/>
</g>
<!-- 52317 -->
<g id="node40" class="node">
<title>52317</title>
<ellipse fill="none" stroke="#000000" cx="4931.9518" cy="-4443.7676" rx="32.4942" ry="18"/>
<text text-anchor="middle" x="4931.9518" y="-4440.0676" font-family="Times,serif" font-size="14.00" fill="#000000">52317</text>
</g>
<!-- 5692&#45;&gt;52317 -->
<g id="edge27" class="edge">
<title>5692&#45;&gt;52317</title>
<path fill="none" stroke="#000000" d="M4698.0795,-4422.1696C4744.1333,-4426.4226 4835.5432,-4434.8643 4889.4338,-4439.8411"/>
<polygon fill="#000000" stroke="#000000" points="4889.4075,-4443.3534 4899.687,-4440.7879 4890.0513,-4436.3831 4889.4075,-4443.3534"/>
</g>
<!-- 52375 -->
<g id="node41" class="node">
<title>52375</title>
<ellipse fill="none" stroke="#000000" cx="4885.2197" cy="-4570.9051" rx="32.4942" ry="18"/>
<text text-anchor="middle" x="4885.2197" y="-4567.2051" font-family="Times,serif" font-size="14.00" fill="#000000">52375</text>
</g>
<!-- 5692&#45;&gt;52375 -->
<g id="edge28" class="edge">
<title>5692&#45;&gt;52375</title>
<path fill="none" stroke="#000000" d="M4688.8922,-4432.9867C4726.8355,-4459.6415 4811.8349,-4519.3529 4856.5186,-4550.7428"/>
<polygon fill="#000000" stroke="#000000" points="4854.6972,-4553.7406 4864.8919,-4556.6249 4858.7211,-4548.0126 4854.6972,-4553.7406"/>
</g>
<!-- 52376 -->
<g id="node42" class="node">
<title>52376</title>
<ellipse fill="none" stroke="#000000" cx="4781.4659" cy="-4657.9853" rx="32.4942" ry="18"/>
<text text-anchor="middle" x="4781.4659" y="-4654.2853" font-family="Times,serif" font-size="14.00" fill="#000000">52376</text>
</g>
<!-- 5692&#45;&gt;52376 -->
<g id="edge29" class="edge">
<title>5692&#45;&gt;52376</title>
<path fill="none" stroke="#000000" d="M4677.9857,-4437.0878C4697.3503,-4478.4249 4745.9609,-4582.1934 4768.9919,-4631.3572"/>
<polygon fill="#000000" stroke="#000000" points="4765.8291,-4632.8564 4773.2408,-4640.4273 4772.168,-4629.8869 4765.8291,-4632.8564"/>
</g>
<!-- 52380 -->
<g id="node43" class="node">
<title>52380</title>
<ellipse fill="none" stroke="#000000" cx="4648.1504" cy="-4681.9609" rx="32.4942" ry="18"/>
<text text-anchor="middle" x="4648.1504" y="-4678.2609" font-family="Times,serif" font-size="14.00" fill="#000000">52380</text>
</g>
<!-- 5692&#45;&gt;52380 -->
<g id="edge30" class="edge">
<title>5692&#45;&gt;52380</title>
<path fill="none" stroke="#000000" d="M4668.2865,-4437.5917C4664.591,-4482.4393 4654.9636,-4599.2767 4650.4938,-4653.5223"/>
<polygon fill="#000000" stroke="#000000" points="4646.9802,-4653.5448 4649.647,-4663.7985 4653.9565,-4654.1197 4646.9802,-4653.5448"/>
</g>
<!-- 52413 -->
<g id="node44" class="node">
<title>52413</title>
<ellipse fill="none" stroke="#000000" cx="4520.5577" cy="-4636.4864" rx="32.4942" ry="18"/>
<text text-anchor="middle" x="4520.5577" y="-4632.7864" font-family="Times,serif" font-size="14.00" fill="#000000">52413</text>
</g>
<!-- 5692&#45;&gt;52413 -->
<g id="edge31" class="edge">
<title>5692&#45;&gt;52413</title>
<path fill="none" stroke="#000000" d="M4658.3118,-4436.2175C4632.3367,-4473.9804 4568.8512,-4566.2766 4537.9817,-4611.1552"/>
<polygon fill="#000000" stroke="#000000" points="4535.047,-4609.2458 4532.2635,-4619.4685 4540.8144,-4613.2129 4535.047,-4609.2458"/>
</g>
<!-- 52431 -->
<g id="node45" class="node">
<title>52431</title>
<ellipse fill="none" stroke="#000000" cx="4432.4573" cy="-4533.5974" rx="32.4942" ry="18"/>
<text text-anchor="middle" x="4432.4573" y="-4529.8974" font-family="Times,serif" font-size="14.00" fill="#000000">52431</text>
</g>
<!-- 5692&#45;&gt;52431 -->
<g id="edge32" class="edge">
<title>5692&#45;&gt;52431</title>
<path fill="none" stroke="#000000" d="M4647.0179,-4430.4903C4605.1448,-4450.6124 4515.6804,-4493.6045 4466.5337,-4517.222"/>
<polygon fill="#000000" stroke="#000000" points="4464.7652,-4514.1886 4457.2679,-4521.6747 4467.7972,-4520.4979 4464.7652,-4514.1886"/>
</g>
<!-- 262230 -->
<g id="node46" class="node">
<title>262230</title>
<ellipse fill="none" stroke="#000000" cx="4407.5345" cy="-4395.9906" rx="37.0935" ry="18"/>
<text text-anchor="middle" x="4407.5345" y="-4392.2906" font-family="Times,serif" font-size="14.00" fill="#000000">262230</text>
</g>
<!-- 5692&#45;&gt;262230 -->
<g id="edge33" class="edge">
<title>5692&#45;&gt;262230</title>
<path fill="none" stroke="#000000" d="M4641.4594,-4417.0112C4596.5436,-4412.9751 4508.4948,-4405.0629 4454.1618,-4400.1805"/>
<polygon fill="#000000" stroke="#000000" points="4454.3705,-4396.6853 4444.0973,-4399.2762 4453.7439,-4403.6572 4454.3705,-4396.6853"/>
</g>
<!-- 264608 -->
<g id="node47" class="node">
<title>264608</title>
<ellipse fill="none" stroke="#000000" cx="4459.2926" cy="-4261.3712" rx="37.0935" ry="18"/>
<text text-anchor="middle" x="4459.2926" y="-4257.6712" font-family="Times,serif" font-size="14.00" fill="#000000">264608</text>
</g>
<!-- 5692&#45;&gt;264608 -->
<g id="edge34" class="edge">
<title>5692&#45;&gt;264608</title>
<path fill="none" stroke="#000000" d="M4651.094,-4405.5177C4614.1198,-4377.73 4531.4079,-4315.5688 4487.6661,-4282.695"/>
<polygon fill="#000000" stroke="#000000" points="4489.5592,-4279.7396 4479.4624,-4276.5296 4485.3537,-4285.3354 4489.5592,-4279.7396"/>
</g>
<!-- 6453&#45;&gt;2828 -->
<g id="edge35" class="edge">
<title>6453&#45;&gt;2828</title>
<path fill="none" stroke="#000000" d="M4907.0372,-6459.5716C5027.3217,-6612.9913 5967.4583,-7812.1114 6113.5921,-7998.5013"/>
<polygon fill="#000000" stroke="#000000" points="6111.0199,-8000.8931 6119.9443,-8006.6033 6116.5286,-7996.5741 6111.0199,-8000.8931"/>
</g>
<!-- 6453&#45;&gt;3257 -->
<g id="edge36" class="edge">
<title>6453&#45;&gt;3257</title>
<path fill="none" stroke="#000000" d="M4912.5335,-6429.1911C5154.4574,-6239.5174 7737.4554,-4214.3899 8026.8403,-3987.5057"/>
<polygon fill="#000000" stroke="#000000" points="8029.3806,-3989.9615 8035.0908,-3981.0371 8025.0616,-3984.4527 8029.3806,-3989.9615"/>
</g>
<!-- 6762&#45;&gt;2914 -->
<g id="edge37" class="edge">
<title>6762&#45;&gt;2914</title>
<path fill="none" stroke="#000000" d="M4747.7595,-6256.4169C4760.7172,-6272.9443 4780.8972,-6298.6833 4795.708,-6317.5741"/>
<polygon fill="#000000" stroke="#000000" points="4792.9653,-6319.7485 4801.8897,-6325.4586 4798.4741,-6315.4295 4792.9653,-6319.7485"/>
</g>
<!-- 6904 -->
<g id="node25" class="node">
<title>6904</title>
<ellipse fill="none" stroke="#000000" cx="2957.0176" cy="-5400.2672" rx="28.6953" ry="18"/>
<text text-anchor="middle" x="2957.0176" y="-5396.5672" font-family="Times,serif" font-size="14.00" fill="#000000">6904</text>
</g>
<!-- 6904&#45;&gt;2687 -->
<g id="edge38" class="edge">
<title>6904&#45;&gt;2687</title>
<path fill="none" stroke="#000000" d="M2979.7623,-5411.4259C3040.9962,-5441.4678 3209.4615,-5524.1182 3280.1272,-5558.7874"/>
<polygon fill="#000000" stroke="#000000" points="3278.9087,-5562.0881 3289.4281,-5563.3505 3281.9919,-5555.8036 3278.9087,-5562.0881"/>
</g>
<!-- 7016 -->
<g id="node26" class="node">
<title>7016</title>
<ellipse fill="none" stroke="#000000" cx="2457.5932" cy="-5464.4317" rx="28.6953" ry="18"/>
<text text-anchor="middle" x="2457.5932" y="-5460.7317" font-family="Times,serif" font-size="14.00" fill="#000000">7016</text>
</g>
<!-- 7922 -->
<g id="node29" class="node">
<title>7922</title>
<ellipse fill="none" stroke="#000000" cx="2334.6588" cy="-5504.1614" rx="28.6953" ry="18"/>
<text text-anchor="middle" x="2334.6588" y="-5500.4614" font-family="Times,serif" font-size="14.00" fill="#000000">7922</text>
</g>
<!-- 7016&#45;&gt;7922 -->
<g id="edge39" class="edge">
<title>7016&#45;&gt;7922</title>
<path fill="none" stroke="#000000" d="M2432.1211,-5472.6637C2414.1923,-5478.4579 2389.9551,-5486.2909 2370.1363,-5492.6959"/>
<polygon fill="#000000" stroke="#000000" points="2368.9603,-5489.3976 2360.5212,-5495.8032 2371.113,-5496.0584 2368.9603,-5489.3976"/>
</g>
<!-- 7473 -->
<g id="node28" class="node">
<title>7473</title>
<ellipse fill="none" stroke="#000000" cx="3094.6774" cy="-5721.297" rx="28.6953" ry="18"/>
<text text-anchor="middle" x="3094.6774" y="-5717.597" font-family="Times,serif" font-size="14.00" fill="#000000">7473</text>
</g>
<!-- 9505&#45;&gt;7473 -->
<g id="edge40" class="edge">
<title>9505&#45;&gt;7473</title>
<path fill="none" stroke="#000000" d="M3182.0826,-5662.2183C3165.4101,-5673.4876 3141.2839,-5689.7948 3122.601,-5702.4229"/>
<polygon fill="#000000" stroke="#000000" points="3120.5103,-5699.6115 3114.1853,-5708.1113 3124.4303,-5705.411 3120.5103,-5699.6115"/>
</g>
<!-- 12956 -->
<g id="node33" class="node">
<title>12956</title>
<ellipse fill="none" stroke="#000000" cx="3782.8006" cy="-4600.5308" rx="32.4942" ry="18"/>
<text text-anchor="middle" x="3782.8006" y="-4596.8308" font-family="Times,serif" font-size="14.00" fill="#000000">12956</text>
</g>
<!-- 10834&#45;&gt;12956 -->
<g id="edge41" class="edge">
<title>10834&#45;&gt;12956</title>
<path fill="none" stroke="#000000" d="M4400.9184,-4115.9128C4309.5887,-4187.5173 3916.9198,-4495.3785 3809.8544,-4579.3201"/>
<polygon fill="#000000" stroke="#000000" points="3807.5062,-4576.7136 3801.796,-4585.638 3811.8252,-4582.2224 3807.5062,-4576.7136"/>
</g>
<!-- 22927 -->
<g id="node35" class="node">
<title>22927</title>
<ellipse fill="none" stroke="#000000" cx="4170.2036" cy="-3782.368" rx="32.4942" ry="18"/>
<text text-anchor="middle" x="4170.2036" y="-3778.668" font-family="Times,serif" font-size="14.00" fill="#000000">22927</text>
</g>
<!-- 10834&#45;&gt;22927 -->
<g id="edge42" class="edge">
<title>10834&#45;&gt;22927</title>
<path fill="none" stroke="#000000" d="M4406.9103,-4084.2813C4365.6855,-4031.7001 4238.3,-3869.2232 4189.4992,-3806.9791"/>
<polygon fill="#000000" stroke="#000000" points="4192.0763,-3804.5934 4183.1519,-3798.8833 4186.5676,-3808.9124 4192.0763,-3804.5934"/>
</g>
<!-- 12956&#45;&gt;3356 -->
<g id="edge43" class="edge">
<title>12956&#45;&gt;3356</title>
<path fill="none" stroke="#000000" d="M3763.5896,-4615.5927C3746.8936,-4628.6827 3722.5593,-4647.7613 3704.112,-4662.2245"/>
<polygon fill="#000000" stroke="#000000" points="3701.8091,-4659.5824 3696.099,-4668.5068 3706.1282,-4665.0912 3701.8091,-4659.5824"/>
</g>
<!-- 18540 -->
<g id="node34" class="node">
<title>18540</title>
<ellipse fill="none" stroke="#000000" cx="2738.4911" cy="-4888.4592" rx="32.4942" ry="18"/>
<text text-anchor="middle" x="2738.4911" y="-4884.7592" font-family="Times,serif" font-size="14.00" fill="#000000">18540</text>
</g>
<!-- 30070&#45;&gt;6904 -->
<g id="edge44" class="edge">
<title>30070&#45;&gt;6904</title>
<path fill="none" stroke="#000000" d="M2861.9974,-5353.6495C2880.1869,-5362.5734 2905.1731,-5374.8318 2924.9584,-5384.5387"/>
<polygon fill="#000000" stroke="#000000" points="2923.6814,-5387.8107 2934.2008,-5389.0731 2926.7646,-5381.5263 2923.6814,-5387.8107"/>
</g>
<!-- 30070&#45;&gt;7016 -->
<g id="edge45" class="edge">
<title>30070&#45;&gt;7016</title>
<path fill="none" stroke="#000000" d="M2809.2821,-5350.7736C2741.283,-5372.7494 2568.5636,-5428.5685 2493.4234,-5452.8522"/>
<polygon fill="#000000" stroke="#000000" points="2491.9285,-5449.657 2483.4894,-5456.0626 2494.0812,-5456.3178 2491.9285,-5449.657"/>
</g>
<!-- 30070&#45;&gt;18540 -->
<g id="edge46" class="edge">
<title>30070&#45;&gt;18540</title>
<path fill="none" stroke="#000000" d="M2833.5851,-5323.5999C2818.3359,-5253.8208 2763.1605,-5001.3441 2744.618,-4916.4954"/>
<polygon fill="#000000" stroke="#000000" points="2748.0002,-4915.578 2742.4459,-4906.5558 2741.1616,-4917.0725 2748.0002,-4915.578"/>
</g>
</g>
</svg>
