<?xml version="1.0" encoding="UTF-8" standalone="no"?>
<!DOCTYPE svg PUBLIC "-//W3C//DTD SVG 1.1//EN"
 "http://www.w3.org/Graphics/SVG/1.1/DTD/svg11.dtd">
<!-- Generated by graphviz version 2.40.1 (20161225.0304)
 -->
<!-- Title: %3 Pages: 1 -->
<svg width="1955pt" height="692pt"
 viewBox="0.00 0.00 1955.05 692.00" xmlns="http://www.w3.org/2000/svg" xmlns:xlink="http://www.w3.org/1999/xlink">
<g id="graph0" class="graph" transform="scale(1 1) rotate(0) translate(4 688)">
<title>%3</title>
<polygon fill="#ffffff" stroke="transparent" points="-4,4 -4,-688 1951.0467,-688 1951.0467,4 -4,4"/>
<!-- 174 -->
<g id="node1" class="node">
<title>174</title>
<ellipse fill="none" stroke="#000000" cx="27" cy="-18" rx="27" ry="18"/>
<text text-anchor="middle" x="27" y="-14.3" font-family="Times,serif" font-size="14.00" fill="#000000">174</text>
</g>
<!-- 209 -->
<g id="node2" class="node">
<title>209</title>
<ellipse fill="none" stroke="#000000" cx="99" cy="-18" rx="27" ry="18"/>
<text text-anchor="middle" x="99" y="-14.3" font-family="Times,serif" font-size="14.00" fill="#000000">209</text>
</g>
<!-- 701 -->
<g id="node3" class="node">
<title>701</title>
<ellipse fill="none" stroke="#000000" cx="171" cy="-18" rx="27" ry="18"/>
<text text-anchor="middle" x="171" y="-14.3" font-family="Times,serif" font-size="14.00" fill="#000000">701</text>
</g>
<!-- 1239 -->
<g id="node4" class="node">
<title>1239</title>
<ellipse fill="none" stroke="#000000" cx="245" cy="-18" rx="28.6953" ry="18"/>
<text text-anchor="middle" x="245" y="-14.3" font-family="Times,serif" font-size="14.00" fill="#000000">1239</text>
</g>
<!-- 1273 -->
<g id="node5" class="node">
<title>1273</title>
<ellipse fill="none" stroke="#000000" cx="320" cy="-18" rx="28.6953" ry="18"/>
<text text-anchor="middle" x="320" y="-14.3" font-family="Times,serif" font-size="14.00" fill="#000000">1273</text>
</g>
<!-- 1299 -->
<g id="node6" class="node">
<title>1299</title>
<ellipse fill="none" stroke="#000000" cx="395" cy="-18" rx="28.6953" ry="18"/>
<text text-anchor="middle" x="395" y="-14.3" font-family="Times,serif" font-size="14.00" fill="#000000">1299</text>
</g>
<!-- 2497 -->
<g id="node7" class="node">
<title>2497</title>
<ellipse fill="none" stroke="#000000" cx="470" cy="-18" rx="28.6953" ry="18"/>
<text text-anchor="middle" x="470" y="-14.3" font-family="Times,serif" font-size="14.00" fill="#000000">2497</text>
</g>
<!-- 2516 -->
<g id="node8" class="node">
<title>2516</title>
<ellipse fill="none" stroke="#000000" cx="924" cy="-90" rx="28.6953" ry="18"/>
<text text-anchor="middle" x="924" y="-86.3" font-family="Times,serif" font-size="14.00" fill="#000000">2516</text>
</g>
<!-- 32787 -->
<g id="node39" class="node">
<title>32787</title>
<ellipse fill="none" stroke="#000000" cx="924" cy="-18" rx="32.4942" ry="18"/>
<text text-anchor="middle" x="924" y="-14.3" font-family="Times,serif" font-size="14.00" fill="#000000">32787</text>
</g>
<!-- 2516&#45;&gt;32787 -->
<g id="edge1" class="edge">
<title>2516&#45;&gt;32787</title>
<path fill="none" stroke="#000000" d="M924,-71.8314C924,-64.131 924,-54.9743 924,-46.4166"/>
<polygon fill="#000000" stroke="#000000" points="927.5001,-46.4132 924,-36.4133 920.5001,-46.4133 927.5001,-46.4132"/>
</g>
<!-- 2686 -->
<g id="node9" class="node">
<title>2686</title>
<ellipse fill="none" stroke="#000000" cx="1001" cy="-90" rx="28.6953" ry="18"/>
<text text-anchor="middle" x="1001" y="-86.3" font-family="Times,serif" font-size="14.00" fill="#000000">2686</text>
</g>
<!-- 3741 -->
<g id="node19" class="node">
<title>3741</title>
<ellipse fill="none" stroke="#000000" cx="1003" cy="-18" rx="28.6953" ry="18"/>
<text text-anchor="middle" x="1003" y="-14.3" font-family="Times,serif" font-size="14.00" fill="#000000">3741</text>
</g>
<!-- 2686&#45;&gt;3741 -->
<g id="edge2" class="edge">
<title>2686&#45;&gt;3741</title>
<path fill="none" stroke="#000000" d="M1001.5047,-71.8314C1001.7186,-64.131 1001.9729,-54.9743 1002.2106,-46.4166"/>
<polygon fill="#000000" stroke="#000000" points="1005.7094,-46.5066 1002.4885,-36.4133 998.7121,-46.3122 1005.7094,-46.5066"/>
</g>
<!-- 2687 -->
<g id="node10" class="node">
<title>2687</title>
<ellipse fill="none" stroke="#000000" cx="962" cy="-162" rx="28.6953" ry="18"/>
<text text-anchor="middle" x="962" y="-158.3" font-family="Times,serif" font-size="14.00" fill="#000000">2687</text>
</g>
<!-- 2687&#45;&gt;2516 -->
<g id="edge3" class="edge">
<title>2687&#45;&gt;2516</title>
<path fill="none" stroke="#000000" d="M952.8013,-144.5708C948.3203,-136.0807 942.8379,-125.6929 937.8634,-116.2674"/>
<polygon fill="#000000" stroke="#000000" points="940.877,-114.4789 933.114,-107.2687 934.6863,-117.7462 940.877,-114.4789"/>
</g>
<!-- 2687&#45;&gt;2686 -->
<g id="edge4" class="edge">
<title>2687&#45;&gt;2686</title>
<path fill="none" stroke="#000000" d="M971.2425,-144.937C975.8376,-136.4537 981.495,-126.0092 986.6388,-116.513"/>
<polygon fill="#000000" stroke="#000000" points="989.8676,-117.9006 991.553,-107.4407 983.7126,-114.5666 989.8676,-117.9006"/>
</g>
<!-- 9505 -->
<g id="node30" class="node">
<title>9505</title>
<ellipse fill="none" stroke="#000000" cx="1077" cy="-90" rx="28.6953" ry="18"/>
<text text-anchor="middle" x="1077" y="-86.3" font-family="Times,serif" font-size="14.00" fill="#000000">9505</text>
</g>
<!-- 2687&#45;&gt;9505 -->
<g id="edge5" class="edge">
<title>2687&#45;&gt;9505</title>
<path fill="none" stroke="#000000" d="M982.295,-149.2936C1000.4937,-137.8996 1027.4062,-121.05 1047.8958,-108.2217"/>
<polygon fill="#000000" stroke="#000000" points="1049.9026,-111.0948 1056.5211,-102.8216 1046.1879,-105.1617 1049.9026,-111.0948"/>
</g>
<!-- 2828 -->
<g id="node11" class="node">
<title>2828</title>
<ellipse fill="none" stroke="#000000" cx="395" cy="-90" rx="28.6953" ry="18"/>
<text text-anchor="middle" x="395" y="-86.3" font-family="Times,serif" font-size="14.00" fill="#000000">2828</text>
</g>
<!-- 2914 -->
<g id="node12" class="node">
<title>2914</title>
<ellipse fill="none" stroke="#000000" cx="868" cy="-234" rx="28.6953" ry="18"/>
<text text-anchor="middle" x="868" y="-230.3" font-family="Times,serif" font-size="14.00" fill="#000000">2914</text>
</g>
<!-- 6453 -->
<g id="node22" class="node">
<title>6453</title>
<ellipse fill="none" stroke="#000000" cx="470" cy="-162" rx="28.6953" ry="18"/>
<text text-anchor="middle" x="470" y="-158.3" font-family="Times,serif" font-size="14.00" fill="#000000">6453</text>
</g>
<!-- 2914&#45;&gt;6453 -->
<g id="edge6" class="edge">
<title>2914&#45;&gt;6453</title>
<path fill="none" stroke="#000000" d="M840.3294,-228.9943C770.4837,-216.3589 586.9689,-183.1602 507.5372,-168.7907"/>
<polygon fill="#000000" stroke="#000000" points="507.9508,-165.3087 497.4874,-166.9726 506.7046,-172.1969 507.9508,-165.3087"/>
</g>
<!-- 3257 -->
<g id="node13" class="node">
<title>3257</title>
<ellipse fill="none" stroke="#000000" cx="470" cy="-90" rx="28.6953" ry="18"/>
<text text-anchor="middle" x="470" y="-86.3" font-family="Times,serif" font-size="14.00" fill="#000000">3257</text>
</g>
<!-- 3257&#45;&gt;174 -->
<g id="edge7" class="edge">
<title>3257&#45;&gt;174</title>
<path fill="none" stroke="#000000" d="M448.5965,-78.003C443.6089,-75.6587 438.2252,-73.4736 433,-72 273.982,-27.153 221.7719,-81.7105 63,-36 60.8722,-35.3874 58.7196,-34.6507 56.5809,-33.8299"/>
<polygon fill="#000000" stroke="#000000" points="57.9782,-30.621 47.4138,-29.8181 55.1717,-37.0338 57.9782,-30.621"/>
</g>
<!-- 3257&#45;&gt;209 -->
<g id="edge8" class="edge">
<title>3257&#45;&gt;209</title>
<path fill="none" stroke="#000000" d="M448.1761,-77.9077C443.3015,-75.6281 438.0707,-73.4938 433,-72 305.0305,-34.2994 262.7627,-74.3955 135,-36 133.0928,-35.4268 131.164,-34.7582 129.2422,-34.0224"/>
<polygon fill="#000000" stroke="#000000" points="130.3876,-30.7037 119.8221,-29.9157 127.5901,-37.1205 130.3876,-30.7037"/>
</g>
<!-- 3257&#45;&gt;701 -->
<g id="edge9" class="edge">
<title>3257&#45;&gt;701</title>
<path fill="none" stroke="#000000" d="M448.132,-78.0524C443.2601,-75.7638 438.0416,-73.5893 433,-72 335.9948,-41.4209 303.8376,-67.1058 207,-36 205.1039,-35.3909 203.1838,-34.6944 201.2686,-33.9374"/>
<polygon fill="#000000" stroke="#000000" points="202.427,-30.6226 191.8662,-29.7738 199.5926,-37.0231 202.427,-30.6226"/>
</g>
<!-- 3257&#45;&gt;1239 -->
<g id="edge10" class="edge">
<title>3257&#45;&gt;1239</title>
<path fill="none" stroke="#000000" d="M448.0348,-78.3413C443.169,-76.0347 437.9775,-73.7798 433,-72 368.0363,-48.7704 346.9637,-59.2296 282,-36 280.1334,-35.3326 278.2368,-34.5983 276.3385,-33.8196"/>
<polygon fill="#000000" stroke="#000000" points="277.5252,-30.5171 266.9652,-29.6587 274.685,-36.915 277.5252,-30.5171"/>
</g>
<!-- 3257&#45;&gt;1273 -->
<g id="edge11" class="edge">
<title>3257&#45;&gt;1273</title>
<path fill="none" stroke="#000000" d="M447.3199,-78.9203C442.5919,-76.6236 437.6366,-74.2259 433,-72 399.3059,-55.8245 390.6941,-52.1755 357,-36 355.4062,-35.2348 353.7747,-34.4494 352.1277,-33.6547"/>
<polygon fill="#000000" stroke="#000000" points="353.2058,-30.2881 342.6801,-29.0797 350.1549,-36.5882 353.2058,-30.2881"/>
</g>
<!-- 3257&#45;&gt;1299 -->
<g id="edge12" class="edge">
<title>3257&#45;&gt;1299</title>
<path fill="none" stroke="#000000" d="M454.0944,-74.7307C443.6537,-64.7075 429.8251,-51.4321 418.1702,-40.2434"/>
<polygon fill="#000000" stroke="#000000" points="420.5204,-37.6478 410.8826,-33.2473 415.6727,-42.6976 420.5204,-37.6478"/>
</g>
<!-- 3257&#45;&gt;2497 -->
<g id="edge13" class="edge">
<title>3257&#45;&gt;2497</title>
<path fill="none" stroke="#000000" d="M470,-71.8314C470,-64.131 470,-54.9743 470,-46.4166"/>
<polygon fill="#000000" stroke="#000000" points="473.5001,-46.4132 470,-36.4133 466.5001,-46.4133 473.5001,-46.4132"/>
</g>
<!-- 3320 -->
<g id="node14" class="node">
<title>3320</title>
<ellipse fill="none" stroke="#000000" cx="545" cy="-18" rx="28.6953" ry="18"/>
<text text-anchor="middle" x="545" y="-14.3" font-family="Times,serif" font-size="14.00" fill="#000000">3320</text>
</g>
<!-- 3257&#45;&gt;3320 -->
<g id="edge14" class="edge">
<title>3257&#45;&gt;3320</title>
<path fill="none" stroke="#000000" d="M485.9056,-74.7307C496.3463,-64.7075 510.1749,-51.4321 521.8298,-40.2434"/>
<polygon fill="#000000" stroke="#000000" points="524.3273,-42.6976 529.1174,-33.2473 519.4796,-37.6478 524.3273,-42.6976"/>
</g>
<!-- 3491 -->
<g id="node16" class="node">
<title>3491</title>
<ellipse fill="none" stroke="#000000" cx="620" cy="-18" rx="28.6953" ry="18"/>
<text text-anchor="middle" x="620" y="-14.3" font-family="Times,serif" font-size="14.00" fill="#000000">3491</text>
</g>
<!-- 3257&#45;&gt;3491 -->
<g id="edge15" class="edge">
<title>3257&#45;&gt;3491</title>
<path fill="none" stroke="#000000" d="M492.9634,-79.084C515.8108,-68.2095 551.8596,-51.0151 583,-36 584.5925,-35.2321 586.223,-34.4445 587.8691,-33.6481"/>
<polygon fill="#000000" stroke="#000000" points="589.8436,-36.5804 597.314,-29.0674 586.789,-30.282 589.8436,-36.5804"/>
</g>
<!-- 5511 -->
<g id="node20" class="node">
<title>5511</title>
<ellipse fill="none" stroke="#000000" cx="695" cy="-18" rx="28.6953" ry="18"/>
<text text-anchor="middle" x="695" y="-14.3" font-family="Times,serif" font-size="14.00" fill="#000000">5511</text>
</g>
<!-- 3257&#45;&gt;5511 -->
<g id="edge16" class="edge">
<title>3257&#45;&gt;5511</title>
<path fill="none" stroke="#000000" d="M496.9402,-83.8212C533.8774,-74.9998 602.0381,-57.4639 658,-36 659.8508,-35.2901 661.7352,-34.5226 663.624,-33.7184"/>
<polygon fill="#000000" stroke="#000000" points="665.3046,-36.7996 672.9713,-29.4871 662.4178,-30.4225 665.3046,-36.7996"/>
</g>
<!-- 6461 -->
<g id="node23" class="node">
<title>6461</title>
<ellipse fill="none" stroke="#000000" cx="770" cy="-18" rx="28.6953" ry="18"/>
<text text-anchor="middle" x="770" y="-14.3" font-family="Times,serif" font-size="14.00" fill="#000000">6461</text>
</g>
<!-- 3257&#45;&gt;6461 -->
<g id="edge17" class="edge">
<title>3257&#45;&gt;6461</title>
<path fill="none" stroke="#000000" d="M498.249,-86.5632C547.0849,-80.1042 650.0307,-64.2008 733,-36 734.8768,-35.3621 736.7816,-34.6509 738.686,-33.89"/>
<polygon fill="#000000" stroke="#000000" points="740.3201,-36.9953 748.0765,-29.778 737.5122,-30.5832 740.3201,-36.9953"/>
</g>
<!-- 7018 -->
<g id="node27" class="node">
<title>7018</title>
<ellipse fill="none" stroke="#000000" cx="845" cy="-18" rx="28.6953" ry="18"/>
<text text-anchor="middle" x="845" y="-14.3" font-family="Times,serif" font-size="14.00" fill="#000000">7018</text>
</g>
<!-- 3257&#45;&gt;7018 -->
<g id="edge18" class="edge">
<title>3257&#45;&gt;7018</title>
<path fill="none" stroke="#000000" d="M498.6927,-88.2664C557.8038,-84.0801 696.9242,-71.0427 808,-36 809.8905,-35.4036 811.8058,-34.725 813.7185,-33.989"/>
<polygon fill="#000000" stroke="#000000" points="815.3245,-37.1084 823.1315,-29.9459 812.5618,-30.6766 815.3245,-37.1084"/>
</g>
<!-- 3356 -->
<g id="node15" class="node">
<title>3356</title>
<ellipse fill="none" stroke="#000000" cx="942" cy="-450" rx="28.6953" ry="18"/>
<text text-anchor="middle" x="942" y="-446.3" font-family="Times,serif" font-size="14.00" fill="#000000">3356</text>
</g>
<!-- 3549 -->
<g id="node17" class="node">
<title>3549</title>
<ellipse fill="none" stroke="#000000" cx="942" cy="-378" rx="28.6953" ry="18"/>
<text text-anchor="middle" x="942" y="-374.3" font-family="Times,serif" font-size="14.00" fill="#000000">3549</text>
</g>
<!-- 3356&#45;&gt;3549 -->
<g id="edge19" class="edge">
<title>3356&#45;&gt;3549</title>
<path fill="none" stroke="#000000" d="M942,-431.8314C942,-424.131 942,-414.9743 942,-406.4166"/>
<polygon fill="#000000" stroke="#000000" points="945.5001,-406.4132 942,-396.4133 938.5001,-406.4133 945.5001,-406.4132"/>
</g>
<!-- 6762 -->
<g id="node24" class="node">
<title>6762</title>
<ellipse fill="none" stroke="#000000" cx="903" cy="-306" rx="28.6953" ry="18"/>
<text text-anchor="middle" x="903" y="-302.3" font-family="Times,serif" font-size="14.00" fill="#000000">6762</text>
</g>
<!-- 3549&#45;&gt;6762 -->
<g id="edge20" class="edge">
<title>3549&#45;&gt;6762</title>
<path fill="none" stroke="#000000" d="M932.7575,-360.937C928.1624,-352.4537 922.505,-342.0092 917.3612,-332.513"/>
<polygon fill="#000000" stroke="#000000" points="920.2874,-330.5666 912.447,-323.4407 914.1324,-333.9006 920.2874,-330.5666"/>
</g>
<!-- 30070 -->
<g id="node38" class="node">
<title>30070</title>
<ellipse fill="none" stroke="#000000" cx="1009" cy="-306" rx="32.4942" ry="18"/>
<text text-anchor="middle" x="1009" y="-302.3" font-family="Times,serif" font-size="14.00" fill="#000000">30070</text>
</g>
<!-- 3549&#45;&gt;30070 -->
<g id="edge21" class="edge">
<title>3549&#45;&gt;30070</title>
<path fill="none" stroke="#000000" d="M956.538,-362.3771C965.4573,-352.7921 977.0506,-340.3337 987.0698,-329.5667"/>
<polygon fill="#000000" stroke="#000000" points="989.7764,-331.796 994.0265,-322.091 984.6519,-327.0274 989.7764,-331.796"/>
</g>
<!-- 3597 -->
<g id="node18" class="node">
<title>3597</title>
<ellipse fill="none" stroke="#000000" cx="904" cy="-594" rx="28.6953" ry="18"/>
<text text-anchor="middle" x="904" y="-590.3" font-family="Times,serif" font-size="14.00" fill="#000000">3597</text>
</g>
<!-- 5692 -->
<g id="node21" class="node">
<title>5692</title>
<ellipse fill="none" stroke="#000000" cx="1398" cy="-666" rx="28.6953" ry="18"/>
<text text-anchor="middle" x="1398" y="-662.3" font-family="Times,serif" font-size="14.00" fill="#000000">5692</text>
</g>
<!-- 5692&#45;&gt;3597 -->
<g id="edge22" class="edge">
<title>5692&#45;&gt;3597</title>
<path fill="none" stroke="#000000" d="M1369.4155,-663.8332C1282.6364,-657.0637 1023.2092,-635.3629 942,-612 939.834,-611.3769 937.6377,-610.6422 935.45,-609.832"/>
<polygon fill="#000000" stroke="#000000" points="936.6104,-606.5239 926.0335,-605.9077 933.9176,-612.9852 936.6104,-606.5239"/>
</g>
<!-- 10834 -->
<g id="node31" class="node">
<title>10834</title>
<ellipse fill="none" stroke="#000000" cx="983" cy="-594" rx="32.4942" ry="18"/>
<text text-anchor="middle" x="983" y="-590.3" font-family="Times,serif" font-size="14.00" fill="#000000">10834</text>
</g>
<!-- 5692&#45;&gt;10834 -->
<g id="edge23" class="edge">
<title>5692&#45;&gt;10834</title>
<path fill="none" stroke="#000000" d="M1369.4009,-664.4071C1306.206,-660.3384 1150.3407,-647.2744 1025,-612 1022.5277,-611.3042 1020.009,-610.4966 1017.4952,-609.6164"/>
<polygon fill="#000000" stroke="#000000" points="1018.5223,-606.2617 1007.9321,-605.946 1016.0139,-612.7969 1018.5223,-606.2617"/>
</g>
<!-- 11008 -->
<g id="node32" class="node">
<title>11008</title>
<ellipse fill="none" stroke="#000000" cx="1066" cy="-594" rx="32.4942" ry="18"/>
<text text-anchor="middle" x="1066" y="-590.3" font-family="Times,serif" font-size="14.00" fill="#000000">11008</text>
</g>
<!-- 5692&#45;&gt;11008 -->
<g id="edge24" class="edge">
<title>5692&#45;&gt;11008</title>
<path fill="none" stroke="#000000" d="M1369.5102,-662.8151C1316.964,-656.4771 1201.605,-640.3918 1108,-612 1105.5422,-611.2545 1103.0344,-610.4097 1100.5284,-609.5026"/>
<polygon fill="#000000" stroke="#000000" points="1101.5706,-606.1522 1090.9825,-605.7737 1099.0236,-612.6724 1101.5706,-606.1522"/>
</g>
<!-- 27865 -->
<g id="node36" class="node">
<title>27865</title>
<ellipse fill="none" stroke="#000000" cx="1149" cy="-594" rx="32.4942" ry="18"/>
<text text-anchor="middle" x="1149" y="-590.3" font-family="Times,serif" font-size="14.00" fill="#000000">27865</text>
</g>
<!-- 5692&#45;&gt;27865 -->
<g id="edge25" class="edge">
<title>5692&#45;&gt;27865</title>
<path fill="none" stroke="#000000" d="M1370.8227,-660.2764C1330.889,-651.5606 1254.2444,-633.6654 1191,-612 1188.5703,-611.1677 1186.0834,-610.258 1183.5926,-609.3038"/>
<polygon fill="#000000" stroke="#000000" points="1184.6632,-605.9618 1174.0797,-605.4727 1182.0482,-612.455 1184.6632,-605.9618"/>
</g>
<!-- 28065 -->
<g id="node37" class="node">
<title>28065</title>
<ellipse fill="none" stroke="#000000" cx="1232" cy="-594" rx="32.4942" ry="18"/>
<text text-anchor="middle" x="1232" y="-590.3" font-family="Times,serif" font-size="14.00" fill="#000000">28065</text>
</g>
<!-- 5692&#45;&gt;28065 -->
<g id="edge26" class="edge">
<title>5692&#45;&gt;28065</title>
<path fill="none" stroke="#000000" d="M1374.2162,-655.6842C1346.1868,-643.5268 1299.3574,-623.2153 1267.141,-609.2419"/>
<polygon fill="#000000" stroke="#000000" points="1268.2158,-605.8931 1257.6489,-605.1248 1265.4304,-612.315 1268.2158,-605.8931"/>
</g>
<!-- 52317 -->
<g id="node40" class="node">
<title>52317</title>
<ellipse fill="none" stroke="#000000" cx="1315" cy="-594" rx="32.4942" ry="18"/>
<text text-anchor="middle" x="1315" y="-590.3" font-family="Times,serif" font-size="14.00" fill="#000000">52317</text>
</g>
<!-- 5692&#45;&gt;52317 -->
<g id="edge27" class="edge">
<title>5692&#45;&gt;52317</title>
<path fill="none" stroke="#000000" d="M1381.2037,-651.4297C1369.514,-641.2892 1353.7126,-627.5821 1340.479,-616.1023"/>
<polygon fill="#000000" stroke="#000000" points="1342.4781,-613.2031 1332.6307,-609.2941 1337.8912,-618.4908 1342.4781,-613.2031"/>
</g>
<!-- 52375 -->
<g id="node41" class="node">
<title>52375</title>
<ellipse fill="none" stroke="#000000" cx="1398" cy="-594" rx="32.4942" ry="18"/>
<text text-anchor="middle" x="1398" y="-590.3" font-family="Times,serif" font-size="14.00" fill="#000000">52375</text>
</g>
<!-- 5692&#45;&gt;52375 -->
<g id="edge28" class="edge">
<title>5692&#45;&gt;52375</title>
<path fill="none" stroke="#000000" d="M1398,-647.8314C1398,-640.131 1398,-630.9743 1398,-622.4166"/>
<polygon fill="#000000" stroke="#000000" points="1401.5001,-622.4132 1398,-612.4133 1394.5001,-622.4133 1401.5001,-622.4132"/>
</g>
<!-- 52376 -->
<g id="node42" class="node">
<title>52376</title>
<ellipse fill="none" stroke="#000000" cx="1481" cy="-594" rx="32.4942" ry="18"/>
<text text-anchor="middle" x="1481" y="-590.3" font-family="Times,serif" font-size="14.00" fill="#000000">52376</text>
</g>
<!-- 5692&#45;&gt;52376 -->
<g id="edge29" class="edge">
<title>5692&#45;&gt;52376</title>
<path fill="none" stroke="#000000" d="M1414.7963,-651.4297C1426.486,-641.2892 1442.2874,-627.5821 1455.521,-616.1023"/>
<polygon fill="#000000" stroke="#000000" points="1458.1088,-618.4908 1463.3693,-609.2941 1453.5219,-613.2031 1458.1088,-618.4908"/>
</g>
<!-- 52380 -->
<g id="node43" class="node">
<title>52380</title>
<ellipse fill="none" stroke="#000000" cx="1564" cy="-594" rx="32.4942" ry="18"/>
<text text-anchor="middle" x="1564" y="-590.3" font-family="Times,serif" font-size="14.00" fill="#000000">52380</text>
</g>
<!-- 5692&#45;&gt;52380 -->
<g id="edge30" class="edge">
<title>5692&#45;&gt;52380</title>
<path fill="none" stroke="#000000" d="M1421.7838,-655.6842C1449.8132,-643.5268 1496.6426,-623.2153 1528.859,-609.2419"/>
<polygon fill="#000000" stroke="#000000" points="1530.5696,-612.315 1538.3511,-605.1248 1527.7842,-605.8931 1530.5696,-612.315"/>
</g>
<!-- 52413 -->
<g id="node44" class="node">
<title>52413</title>
<ellipse fill="none" stroke="#000000" cx="1647" cy="-594" rx="32.4942" ry="18"/>
<text text-anchor="middle" x="1647" y="-590.3" font-family="Times,serif" font-size="14.00" fill="#000000">52413</text>
</g>
<!-- 5692&#45;&gt;52413 -->
<g id="edge31" class="edge">
<title>5692&#45;&gt;52413</title>
<path fill="none" stroke="#000000" d="M1425.1773,-660.2764C1465.111,-651.5606 1541.7556,-633.6654 1605,-612 1607.4297,-611.1677 1609.9166,-610.258 1612.4074,-609.3038"/>
<polygon fill="#000000" stroke="#000000" points="1613.9518,-612.455 1621.9203,-605.4727 1611.3368,-605.9618 1613.9518,-612.455"/>
</g>
<!-- 52431 -->
<g id="node45" class="node">
<title>52431</title>
<ellipse fill="none" stroke="#000000" cx="1730" cy="-594" rx="32.4942" ry="18"/>
<text text-anchor="middle" x="1730" y="-590.3" font-family="Times,serif" font-size="14.00" fill="#000000">52431</text>
</g>
<!-- 5692&#45;&gt;52431 -->
<g id="edge32" class="edge">
<title>5692&#45;&gt;52431</title>
<path fill="none" stroke="#000000" d="M1426.4898,-662.8151C1479.036,-656.4771 1594.395,-640.3918 1688,-612 1690.4578,-611.2545 1692.9656,-610.4097 1695.4716,-609.5026"/>
<polygon fill="#000000" stroke="#000000" points="1696.9764,-612.6724 1705.0175,-605.7737 1694.4294,-606.1522 1696.9764,-612.6724"/>
</g>
<!-- 262230 -->
<g id="node46" class="node">
<title>262230</title>
<ellipse fill="none" stroke="#000000" cx="1818" cy="-594" rx="37.0935" ry="18"/>
<text text-anchor="middle" x="1818" y="-590.3" font-family="Times,serif" font-size="14.00" fill="#000000">262230</text>
</g>
<!-- 5692&#45;&gt;262230 -->
<g id="edge33" class="edge">
<title>5692&#45;&gt;262230</title>
<path fill="none" stroke="#000000" d="M1426.5,-664.0413C1489.4973,-659.243 1644.9929,-644.8146 1771,-612 1774.1286,-611.1853 1777.3346,-610.23 1780.5303,-609.1919"/>
<polygon fill="#000000" stroke="#000000" points="1781.7111,-612.4869 1789.9989,-605.8866 1779.404,-605.878 1781.7111,-612.4869"/>
</g>
<!-- 264608 -->
<g id="node47" class="node">
<title>264608</title>
<ellipse fill="none" stroke="#000000" cx="1910" cy="-594" rx="37.0935" ry="18"/>
<text text-anchor="middle" x="1910" y="-590.3" font-family="Times,serif" font-size="14.00" fill="#000000">264608</text>
</g>
<!-- 5692&#45;&gt;264608 -->
<g id="edge34" class="edge">
<title>5692&#45;&gt;264608</title>
<path fill="none" stroke="#000000" d="M1426.8256,-665.2303C1500.6272,-662.71 1701.9921,-652.3639 1864,-612 1866.8085,-611.3003 1869.6759,-610.4722 1872.538,-609.5618"/>
<polygon fill="#000000" stroke="#000000" points="1873.8601,-612.8076 1882.1547,-606.216 1871.5599,-606.1963 1873.8601,-612.8076"/>
</g>
<!-- 6453&#45;&gt;2828 -->
<g id="edge35" class="edge">
<title>6453&#45;&gt;2828</title>
<path fill="none" stroke="#000000" d="M454.0944,-146.7307C443.6537,-136.7075 429.8251,-123.4321 418.1702,-112.2434"/>
<polygon fill="#000000" stroke="#000000" points="420.5204,-109.6478 410.8826,-105.2473 415.6727,-114.6976 420.5204,-109.6478"/>
</g>
<!-- 6453&#45;&gt;3257 -->
<g id="edge36" class="edge">
<title>6453&#45;&gt;3257</title>
<path fill="none" stroke="#000000" d="M470,-143.8314C470,-136.131 470,-126.9743 470,-118.4166"/>
<polygon fill="#000000" stroke="#000000" points="473.5001,-118.4132 470,-108.4133 466.5001,-118.4133 473.5001,-118.4132"/>
</g>
<!-- 6762&#45;&gt;2914 -->
<g id="edge37" class="edge">
<title>6762&#45;&gt;2914</title>
<path fill="none" stroke="#000000" d="M894.5275,-288.5708C890.4003,-280.0807 885.3507,-269.6929 880.7689,-260.2674"/>
<polygon fill="#000000" stroke="#000000" points="883.9143,-258.7322 876.3945,-251.2687 877.6187,-261.7926 883.9143,-258.7322"/>
</g>
<!-- 6904 -->
<g id="node25" class="node">
<title>6904</title>
<ellipse fill="none" stroke="#000000" cx="962" cy="-234" rx="28.6953" ry="18"/>
<text text-anchor="middle" x="962" y="-230.3" font-family="Times,serif" font-size="14.00" fill="#000000">6904</text>
</g>
<!-- 6904&#45;&gt;2687 -->
<g id="edge38" class="edge">
<title>6904&#45;&gt;2687</title>
<path fill="none" stroke="#000000" d="M962,-215.8314C962,-208.131 962,-198.9743 962,-190.4166"/>
<polygon fill="#000000" stroke="#000000" points="965.5001,-190.4132 962,-180.4133 958.5001,-190.4133 965.5001,-190.4132"/>
</g>
<!-- 7016 -->
<g id="node26" class="node">
<title>7016</title>
<ellipse fill="none" stroke="#000000" cx="1037" cy="-234" rx="28.6953" ry="18"/>
<text text-anchor="middle" x="1037" y="-230.3" font-family="Times,serif" font-size="14.00" fill="#000000">7016</text>
</g>
<!-- 7922 -->
<g id="node29" class="node">
<title>7922</title>
<ellipse fill="none" stroke="#000000" cx="1037" cy="-162" rx="28.6953" ry="18"/>
<text text-anchor="middle" x="1037" y="-158.3" font-family="Times,serif" font-size="14.00" fill="#000000">7922</text>
</g>
<!-- 7016&#45;&gt;7922 -->
<g id="edge39" class="edge">
<title>7016&#45;&gt;7922</title>
<path fill="none" stroke="#000000" d="M1037,-215.8314C1037,-208.131 1037,-198.9743 1037,-190.4166"/>
<polygon fill="#000000" stroke="#000000" points="1040.5001,-190.4132 1037,-180.4133 1033.5001,-190.4133 1040.5001,-190.4132"/>
</g>
<!-- 7473 -->
<g id="node28" class="node">
<title>7473</title>
<ellipse fill="none" stroke="#000000" cx="1078" cy="-18" rx="28.6953" ry="18"/>
<text text-anchor="middle" x="1078" y="-14.3" font-family="Times,serif" font-size="14.00" fill="#000000">7473</text>
</g>
<!-- 9505&#45;&gt;7473 -->
<g id="edge40" class="edge">
<title>9505&#45;&gt;7473</title>
<path fill="none" stroke="#000000" d="M1077.2523,-71.8314C1077.3593,-64.131 1077.4865,-54.9743 1077.6053,-46.4166"/>
<polygon fill="#000000" stroke="#000000" points="1081.1049,-46.4609 1077.7443,-36.4133 1074.1056,-46.3637 1081.1049,-46.4609"/>
</g>
<!-- 12956 -->
<g id="node33" class="node">
<title>12956</title>
<ellipse fill="none" stroke="#000000" cx="942" cy="-522" rx="32.4942" ry="18"/>
<text text-anchor="middle" x="942" y="-518.3" font-family="Times,serif" font-size="14.00" fill="#000000">12956</text>
</g>
<!-- 10834&#45;&gt;12956 -->
<g id="edge41" class="edge">
<title>10834&#45;&gt;12956</title>
<path fill="none" stroke="#000000" d="M973.075,-576.5708C968.19,-567.9922 962.2017,-557.4762 956.7903,-547.9732"/>
<polygon fill="#000000" stroke="#000000" points="959.8234,-546.2266 951.8336,-539.2687 953.7405,-549.6905 959.8234,-546.2266"/>
</g>
<!-- 22927 -->
<g id="node35" class="node">
<title>22927</title>
<ellipse fill="none" stroke="#000000" cx="1025" cy="-522" rx="32.4942" ry="18"/>
<text text-anchor="middle" x="1025" y="-518.3" font-family="Times,serif" font-size="14.00" fill="#000000">22927</text>
</g>
<!-- 10834&#45;&gt;22927 -->
<g id="edge42" class="edge">
<title>10834&#45;&gt;22927</title>
<path fill="none" stroke="#000000" d="M993.167,-576.5708C998.1712,-567.9922 1004.3055,-557.4762 1009.849,-547.9732"/>
<polygon fill="#000000" stroke="#000000" points="1012.9111,-549.6701 1014.9266,-539.2687 1006.8646,-546.1429 1012.9111,-549.6701"/>
</g>
<!-- 12956&#45;&gt;3356 -->
<g id="edge43" class="edge">
<title>12956&#45;&gt;3356</title>
<path fill="none" stroke="#000000" d="M942,-503.8314C942,-496.131 942,-486.9743 942,-478.4166"/>
<polygon fill="#000000" stroke="#000000" points="945.5001,-478.4132 942,-468.4133 938.5001,-478.4133 945.5001,-478.4132"/>
</g>
<!-- 18540 -->
<g id="node34" class="node">
<title>18540</title>
<ellipse fill="none" stroke="#000000" cx="1116" cy="-234" rx="32.4942" ry="18"/>
<text text-anchor="middle" x="1116" y="-230.3" font-family="Times,serif" font-size="14.00" fill="#000000">18540</text>
</g>
<!-- 30070&#45;&gt;6904 -->
<g id="edge44" class="edge">
<title>30070&#45;&gt;6904</title>
<path fill="none" stroke="#000000" d="M997.8617,-288.937C992.1255,-280.1496 985.0156,-269.2579 978.6429,-259.4956"/>
<polygon fill="#000000" stroke="#000000" points="981.4555,-257.4011 973.0584,-250.9405 975.5938,-261.2275 981.4555,-257.4011"/>
</g>
<!-- 30070&#45;&gt;7016 -->
<g id="edge45" class="edge">
<title>30070&#45;&gt;7016</title>
<path fill="none" stroke="#000000" d="M1015.9214,-288.2022C1019.1086,-280.0064 1022.9602,-270.1024 1026.4943,-261.0145"/>
<polygon fill="#000000" stroke="#000000" points="1029.7958,-262.1817 1030.1583,-251.593 1023.2717,-259.6445 1029.7958,-262.1817"/>
</g>
<!-- 30070&#45;&gt;18540 -->
<g id="edge46" class="edge">
<title>30070&#45;&gt;18540</title>
<path fill="none" stroke="#000000" d="M1029.8847,-291.9468C1046.0871,-281.0442 1068.7431,-265.799 1086.7502,-253.6821"/>
<polygon fill="#000000" stroke="#000000" points="1088.8254,-256.5044 1095.168,-248.0178 1084.9174,-250.6968 1088.8254,-256.5044"/>
</g>
</g>
</svg>
