<?xml version="1.0" encoding="UTF-8" standalone="no"?>
<!DOCTYPE svg PUBLIC "-//W3C//DTD SVG 1.1//EN"
 "http://www.w3.org/Graphics/SVG/1.1/DTD/svg11.dtd">
<!-- Generated by graphviz version 2.40.1 (20161225.0304)
 -->
<!-- Title: %3 Pages: 1 -->
<svg width="1615pt" height="1724pt"
 viewBox="0.00 0.00 1615.00 1724.00" xmlns="http://www.w3.org/2000/svg" xmlns:xlink="http://www.w3.org/1999/xlink">
<g id="graph0" class="graph" transform="scale(1 1) rotate(0) translate(4 1720)">
<title>%3</title>
<polygon fill="#ffffff" stroke="transparent" points="-4,4 -4,-1720 1611,-1720 1611,4 -4,4"/>
<!-- 174 -->
<g id="node1" class="node">
<title>174</title>
<ellipse fill="none" stroke="#000000" cx="1385.7895" cy="-22.8424" rx="27" ry="18"/>
<text text-anchor="middle" x="1385.7895" y="-19.1424" font-family="Times,serif" font-size="14.00" fill="#000000">174</text>
</g>
<!-- 209 -->
<g id="node2" class="node">
<title>209</title>
<ellipse fill="none" stroke="#000000" cx="1451.4979" cy="-17.9634" rx="27" ry="18"/>
<text text-anchor="middle" x="1451.4979" y="-14.2634" font-family="Times,serif" font-size="14.00" fill="#000000">209</text>
</g>
<!-- 701 -->
<g id="node3" class="node">
<title>701</title>
<ellipse fill="none" stroke="#000000" cx="1464.2481" cy="-83.9118" rx="27" ry="18"/>
<text text-anchor="middle" x="1464.2481" y="-80.2118" font-family="Times,serif" font-size="14.00" fill="#000000">701</text>
</g>
<!-- 1239 -->
<g id="node4" class="node">
<title>1239</title>
<ellipse fill="none" stroke="#000000" cx="1542.2141" cy="-62.7134" rx="28.6953" ry="18"/>
<text text-anchor="middle" x="1542.2141" y="-59.0134" font-family="Times,serif" font-size="14.00" fill="#000000">1239</text>
</g>
<!-- 1273 -->
<g id="node5" class="node">
<title>1273</title>
<ellipse fill="none" stroke="#000000" cx="1528.4994" cy="-271.3413" rx="28.6953" ry="18"/>
<text text-anchor="middle" x="1528.4994" y="-267.6413" font-family="Times,serif" font-size="14.00" fill="#000000">1273</text>
</g>
<!-- 1299 -->
<g id="node6" class="node">
<title>1299</title>
<ellipse fill="none" stroke="#000000" cx="1297.6658" cy="-159.0761" rx="28.6953" ry="18"/>
<text text-anchor="middle" x="1297.6658" y="-155.3761" font-family="Times,serif" font-size="14.00" fill="#000000">1299</text>
</g>
<!-- 2497 -->
<g id="node7" class="node">
<title>2497</title>
<ellipse fill="none" stroke="#000000" cx="1299.2048" cy="-88.0962" rx="28.6953" ry="18"/>
<text text-anchor="middle" x="1299.2048" y="-84.3962" font-family="Times,serif" font-size="14.00" fill="#000000">2497</text>
</g>
<!-- 2516 -->
<g id="node8" class="node">
<title>2516</title>
<ellipse fill="none" stroke="#000000" cx="163.9497" cy="-595.9429" rx="28.6953" ry="18"/>
<text text-anchor="middle" x="163.9497" y="-592.2429" font-family="Times,serif" font-size="14.00" fill="#000000">2516</text>
</g>
<!-- 32787 -->
<g id="node39" class="node">
<title>32787</title>
<ellipse fill="none" stroke="#000000" cx="32.1954" cy="-569.0484" rx="32.4942" ry="18"/>
<text text-anchor="middle" x="32.1954" y="-565.3484" font-family="Times,serif" font-size="14.00" fill="#000000">32787</text>
</g>
<!-- 2516&#45;&gt;32787 -->
<g id="edge1" class="edge">
<title>2516&#45;&gt;32787</title>
<path fill="none" stroke="#000000" d="M136.6501,-590.3704C118.2541,-586.6152 93.6612,-581.5952 72.9594,-577.3694"/>
<polygon fill="#000000" stroke="#000000" points="73.6515,-573.9386 63.1535,-575.3677 72.2515,-580.7971 73.6515,-573.9386"/>
</g>
<!-- 2686 -->
<g id="node9" class="node">
<title>2686</title>
<ellipse fill="none" stroke="#000000" cx="180.6312" cy="-702.2476" rx="28.6953" ry="18"/>
<text text-anchor="middle" x="180.6312" y="-698.5476" font-family="Times,serif" font-size="14.00" fill="#000000">2686</text>
</g>
<!-- 3741 -->
<g id="node19" class="node">
<title>3741</title>
<ellipse fill="none" stroke="#000000" cx="61.9318" cy="-750.8201" rx="28.6953" ry="18"/>
<text text-anchor="middle" x="61.9318" y="-747.1201" font-family="Times,serif" font-size="14.00" fill="#000000">3741</text>
</g>
<!-- 2686&#45;&gt;3741 -->
<g id="edge2" class="edge">
<title>2686&#45;&gt;3741</title>
<path fill="none" stroke="#000000" d="M156.6106,-712.0769C138.9932,-719.2861 114.8459,-729.1673 95.3474,-737.1462"/>
<polygon fill="#000000" stroke="#000000" points="93.8462,-733.9787 85.9167,-741.0053 96.4973,-740.4573 93.8462,-733.9787"/>
</g>
<!-- 2687 -->
<g id="node10" class="node">
<title>2687</title>
<ellipse fill="none" stroke="#000000" cx="326.9818" cy="-628.773" rx="28.6953" ry="18"/>
<text text-anchor="middle" x="326.9818" y="-625.073" font-family="Times,serif" font-size="14.00" fill="#000000">2687</text>
</g>
<!-- 2687&#45;&gt;2516 -->
<g id="edge3" class="edge">
<title>2687&#45;&gt;2516</title>
<path fill="none" stroke="#000000" d="M299.6939,-623.278C272.7731,-617.8569 231.4112,-609.5278 201.4188,-603.4882"/>
<polygon fill="#000000" stroke="#000000" points="201.8208,-599.9989 191.3266,-601.4559 200.4389,-606.8612 201.8208,-599.9989"/>
</g>
<!-- 2687&#45;&gt;2686 -->
<g id="edge4" class="edge">
<title>2687&#45;&gt;2686</title>
<path fill="none" stroke="#000000" d="M304.4352,-640.0924C279.9056,-652.4074 240.4882,-672.1967 212.7322,-686.1314"/>
<polygon fill="#000000" stroke="#000000" points="210.811,-683.1795 203.4445,-690.7943 213.9518,-689.4354 210.811,-683.1795"/>
</g>
<!-- 9505 -->
<g id="node30" class="node">
<title>9505</title>
<ellipse fill="none" stroke="#000000" cx="218.662" cy="-504.7844" rx="28.6953" ry="18"/>
<text text-anchor="middle" x="218.662" y="-501.0844" font-family="Times,serif" font-size="14.00" fill="#000000">9505</text>
</g>
<!-- 2687&#45;&gt;9505 -->
<g id="edge5" class="edge">
<title>2687&#45;&gt;9505</title>
<path fill="none" stroke="#000000" d="M313.0426,-612.8175C294.3562,-591.428 261.0356,-553.2875 239.3993,-528.5214"/>
<polygon fill="#000000" stroke="#000000" points="241.7627,-525.9068 232.5476,-520.6786 236.491,-530.5123 241.7627,-525.9068"/>
</g>
<!-- 2828 -->
<g id="node11" class="node">
<title>2828</title>
<ellipse fill="none" stroke="#000000" cx="1344.7857" cy="-439.3853" rx="28.6953" ry="18"/>
<text text-anchor="middle" x="1344.7857" y="-435.6853" font-family="Times,serif" font-size="14.00" fill="#000000">2828</text>
</g>
<!-- 2914 -->
<g id="node12" class="node">
<title>2914</title>
<ellipse fill="none" stroke="#000000" cx="1141.8002" cy="-466.8182" rx="28.6953" ry="18"/>
<text text-anchor="middle" x="1141.8002" y="-463.1182" font-family="Times,serif" font-size="14.00" fill="#000000">2914</text>
</g>
<!-- 6453 -->
<g id="node22" class="node">
<title>6453</title>
<ellipse fill="none" stroke="#000000" cx="1293.1661" cy="-323.5603" rx="28.6953" ry="18"/>
<text text-anchor="middle" x="1293.1661" y="-319.8603" font-family="Times,serif" font-size="14.00" fill="#000000">6453</text>
</g>
<!-- 2914&#45;&gt;6453 -->
<g id="edge6" class="edge">
<title>2914&#45;&gt;6453</title>
<path fill="none" stroke="#000000" d="M1157.7129,-451.7578C1184.4428,-426.4597 1238.4824,-375.3148 1269.619,-345.8461"/>
<polygon fill="#000000" stroke="#000000" points="1272.1539,-348.2659 1277.011,-338.85 1267.3422,-343.1819 1272.1539,-348.2659"/>
</g>
<!-- 3257 -->
<g id="node13" class="node">
<title>3257</title>
<ellipse fill="none" stroke="#000000" cx="1422.7589" cy="-183.6522" rx="28.6953" ry="18"/>
<text text-anchor="middle" x="1422.7589" y="-179.9522" font-family="Times,serif" font-size="14.00" fill="#000000">3257</text>
</g>
<!-- 3257&#45;&gt;174 -->
<g id="edge7" class="edge">
<title>3257&#45;&gt;174</title>
<path fill="none" stroke="#000000" d="M1418.6612,-165.8283C1412.2489,-137.936 1399.7917,-83.7493 1392.1893,-50.6806"/>
<polygon fill="#000000" stroke="#000000" points="1395.557,-49.7077 1389.9054,-40.7461 1388.735,-51.2761 1395.557,-49.7077"/>
</g>
<!-- 3257&#45;&gt;209 -->
<g id="edge8" class="edge">
<title>3257&#45;&gt;209</title>
<path fill="none" stroke="#000000" d="M1425.8892,-165.6052C1430.8775,-136.846 1440.6701,-80.3886 1446.5947,-46.2312"/>
<polygon fill="#000000" stroke="#000000" points="1450.1109,-46.4392 1448.3714,-35.9881 1443.2138,-45.2428 1450.1109,-46.4392"/>
</g>
<!-- 3257&#45;&gt;701 -->
<g id="edge9" class="edge">
<title>3257&#45;&gt;701</title>
<path fill="none" stroke="#000000" d="M1430.1763,-165.8206C1436.4892,-150.6445 1445.6575,-128.6037 1452.8938,-111.2078"/>
<polygon fill="#000000" stroke="#000000" points="1456.2857,-112.1664 1456.8949,-101.5891 1449.8226,-109.4778 1456.2857,-112.1664"/>
</g>
<!-- 3257&#45;&gt;1239 -->
<g id="edge10" class="edge">
<title>3257&#45;&gt;1239</title>
<path fill="none" stroke="#000000" d="M1437.888,-168.3352C1458.5085,-147.4586 1495.6064,-109.9 1519.5547,-85.6542"/>
<polygon fill="#000000" stroke="#000000" points="1522.2934,-87.8622 1526.8306,-78.288 1517.3131,-82.943 1522.2934,-87.8622"/>
</g>
<!-- 3257&#45;&gt;1273 -->
<g id="edge11" class="edge">
<title>3257&#45;&gt;1273</title>
<path fill="none" stroke="#000000" d="M1440.2198,-198.1323C1457.3628,-212.3488 1483.698,-234.1882 1503.1462,-250.3163"/>
<polygon fill="#000000" stroke="#000000" points="1501.0808,-253.1504 1511.0125,-256.8398 1505.5492,-247.7621 1501.0808,-253.1504"/>
</g>
<!-- 3257&#45;&gt;1299 -->
<g id="edge12" class="edge">
<title>3257&#45;&gt;1299</title>
<path fill="none" stroke="#000000" d="M1395.3067,-178.2589C1377.6272,-174.7855 1354.4167,-170.2255 1335.0616,-166.423"/>
<polygon fill="#000000" stroke="#000000" points="1335.5411,-162.9503 1325.054,-164.4568 1334.1916,-169.819 1335.5411,-162.9503"/>
</g>
<!-- 3257&#45;&gt;2497 -->
<g id="edge13" class="edge">
<title>3257&#45;&gt;2497</title>
<path fill="none" stroke="#000000" d="M1404.528,-169.5526C1383.6319,-153.3916 1349.2111,-126.7707 1325.4363,-108.3834"/>
<polygon fill="#000000" stroke="#000000" points="1327.562,-105.6028 1317.5104,-102.2536 1323.2795,-111.1401 1327.562,-105.6028"/>
</g>
<!-- 3320 -->
<g id="node14" class="node">
<title>3320</title>
<ellipse fill="none" stroke="#000000" cx="1448.135" cy="-296.5134" rx="28.6953" ry="18"/>
<text text-anchor="middle" x="1448.135" y="-292.8134" font-family="Times,serif" font-size="14.00" fill="#000000">3320</text>
</g>
<!-- 3257&#45;&gt;3320 -->
<g id="edge14" class="edge">
<title>3257&#45;&gt;3320</title>
<path fill="none" stroke="#000000" d="M1426.7798,-201.5354C1430.8207,-219.5077 1437.1084,-247.4723 1441.8163,-268.411"/>
<polygon fill="#000000" stroke="#000000" points="1438.4403,-269.3515 1444.0488,-278.3401 1445.2698,-267.8159 1438.4403,-269.3515"/>
</g>
<!-- 3491 -->
<g id="node16" class="node">
<title>3491</title>
<ellipse fill="none" stroke="#000000" cx="1367.2998" cy="-77.2801" rx="28.6953" ry="18"/>
<text text-anchor="middle" x="1367.2998" y="-73.5801" font-family="Times,serif" font-size="14.00" fill="#000000">3491</text>
</g>
<!-- 3257&#45;&gt;3491 -->
<g id="edge15" class="edge">
<title>3257&#45;&gt;3491</title>
<path fill="none" stroke="#000000" d="M1413.6009,-166.087C1404.7174,-149.0482 1391.1275,-122.9823 1380.9652,-103.4907"/>
<polygon fill="#000000" stroke="#000000" points="1384.014,-101.7676 1376.2873,-94.5185 1377.8069,-105.0038 1384.014,-101.7676"/>
</g>
<!-- 5511 -->
<g id="node20" class="node">
<title>5511</title>
<ellipse fill="none" stroke="#000000" cx="1568.8313" cy="-220.2771" rx="28.6953" ry="18"/>
<text text-anchor="middle" x="1568.8313" y="-216.5771" font-family="Times,serif" font-size="14.00" fill="#000000">5511</text>
</g>
<!-- 3257&#45;&gt;5511 -->
<g id="edge16" class="edge">
<title>3257&#45;&gt;5511</title>
<path fill="none" stroke="#000000" d="M1449.5508,-190.3698C1472.8184,-196.2037 1506.7231,-204.7047 1532.4433,-211.1535"/>
<polygon fill="#000000" stroke="#000000" points="1531.6582,-214.5649 1542.2092,-213.6021 1533.3607,-207.7751 1531.6582,-214.5649"/>
</g>
<!-- 6461 -->
<g id="node23" class="node">
<title>6461</title>
<ellipse fill="none" stroke="#000000" cx="1578.6889" cy="-162.2136" rx="28.6953" ry="18"/>
<text text-anchor="middle" x="1578.6889" y="-158.5136" font-family="Times,serif" font-size="14.00" fill="#000000">6461</text>
</g>
<!-- 3257&#45;&gt;6461 -->
<g id="edge17" class="edge">
<title>3257&#45;&gt;6461</title>
<path fill="none" stroke="#000000" d="M1450.9966,-179.7699C1476.0551,-176.3246 1512.876,-171.2621 1540.5474,-167.4576"/>
<polygon fill="#000000" stroke="#000000" points="1541.2312,-170.8966 1550.6612,-166.0671 1540.2777,-163.9619 1541.2312,-170.8966"/>
</g>
<!-- 7018 -->
<g id="node27" class="node">
<title>7018</title>
<ellipse fill="none" stroke="#000000" cx="1565.3823" cy="-107.6302" rx="28.6953" ry="18"/>
<text text-anchor="middle" x="1565.3823" y="-103.9302" font-family="Times,serif" font-size="14.00" fill="#000000">7018</text>
</g>
<!-- 3257&#45;&gt;7018 -->
<g id="edge18" class="edge">
<title>3257&#45;&gt;7018</title>
<path fill="none" stroke="#000000" d="M1444.7312,-171.9404C1468.6362,-159.1984 1507.0497,-138.723 1534.0988,-124.3052"/>
<polygon fill="#000000" stroke="#000000" points="1535.9717,-127.2731 1543.15,-119.4806 1532.679,-121.0958 1535.9717,-127.2731"/>
</g>
<!-- 3356 -->
<g id="node15" class="node">
<title>3356</title>
<ellipse fill="none" stroke="#000000" cx="918.7713" cy="-937.8633" rx="28.6953" ry="18"/>
<text text-anchor="middle" x="918.7713" y="-934.1633" font-family="Times,serif" font-size="14.00" fill="#000000">3356</text>
</g>
<!-- 3549 -->
<g id="node17" class="node">
<title>3549</title>
<ellipse fill="none" stroke="#000000" cx="862.9691" cy="-742.311" rx="28.6953" ry="18"/>
<text text-anchor="middle" x="862.9691" y="-738.611" font-family="Times,serif" font-size="14.00" fill="#000000">3549</text>
</g>
<!-- 3356&#45;&gt;3549 -->
<g id="edge19" class="edge">
<title>3356&#45;&gt;3549</title>
<path fill="none" stroke="#000000" d="M913.6216,-919.8167C903.8175,-885.4594 882.4167,-810.4629 870.8178,-769.816"/>
<polygon fill="#000000" stroke="#000000" points="874.1355,-768.6872 868.0258,-760.0315 867.4042,-770.6081 874.1355,-768.6872"/>
</g>
<!-- 6762 -->
<g id="node24" class="node">
<title>6762</title>
<ellipse fill="none" stroke="#000000" cx="1008.0868" cy="-600.0783" rx="28.6953" ry="18"/>
<text text-anchor="middle" x="1008.0868" y="-596.3783" font-family="Times,serif" font-size="14.00" fill="#000000">6762</text>
</g>
<!-- 3549&#45;&gt;6762 -->
<g id="edge20" class="edge">
<title>3549&#45;&gt;6762</title>
<path fill="none" stroke="#000000" d="M878.4992,-727.0896C904.0048,-702.0911 954.9078,-652.2001 984.7623,-622.9392"/>
<polygon fill="#000000" stroke="#000000" points="987.5366,-625.1208 992.2284,-615.6215 982.6368,-620.1216 987.5366,-625.1208"/>
</g>
<!-- 30070 -->
<g id="node38" class="node">
<title>30070</title>
<ellipse fill="none" stroke="#000000" cx="692.4941" cy="-697.9156" rx="32.4942" ry="18"/>
<text text-anchor="middle" x="692.4941" y="-694.2156" font-family="Times,serif" font-size="14.00" fill="#000000">30070</text>
</g>
<!-- 3549&#45;&gt;30070 -->
<g id="edge21" class="edge">
<title>3549&#45;&gt;30070</title>
<path fill="none" stroke="#000000" d="M836.3324,-735.3742C808.363,-728.0904 764.0776,-716.5575 732.0301,-708.2116"/>
<polygon fill="#000000" stroke="#000000" points="732.6506,-704.7565 722.0913,-705.6233 730.8864,-711.5306 732.6506,-704.7565"/>
</g>
<!-- 3597 -->
<g id="node18" class="node">
<title>3597</title>
<ellipse fill="none" stroke="#000000" cx="946.3773" cy="-1485.4377" rx="28.6953" ry="18"/>
<text text-anchor="middle" x="946.3773" y="-1481.7377" font-family="Times,serif" font-size="14.00" fill="#000000">3597</text>
</g>
<!-- 5692 -->
<g id="node21" class="node">
<title>5692</title>
<ellipse fill="none" stroke="#000000" cx="1059.4914" cy="-1520.8433" rx="28.6953" ry="18"/>
<text text-anchor="middle" x="1059.4914" y="-1517.1433" font-family="Times,serif" font-size="14.00" fill="#000000">5692</text>
</g>
<!-- 5692&#45;&gt;3597 -->
<g id="edge22" class="edge">
<title>5692&#45;&gt;3597</title>
<path fill="none" stroke="#000000" d="M1033.824,-1512.8092C1018.6019,-1508.0446 999.0733,-1501.9319 982.3336,-1496.6923"/>
<polygon fill="#000000" stroke="#000000" points="982.9235,-1493.2095 972.3346,-1493.5625 980.8325,-1499.8899 982.9235,-1493.2095"/>
</g>
<!-- 10834 -->
<g id="node31" class="node">
<title>10834</title>
<ellipse fill="none" stroke="#000000" cx="1030.1549" cy="-1327.8795" rx="32.4942" ry="18"/>
<text text-anchor="middle" x="1030.1549" y="-1324.1795" font-family="Times,serif" font-size="14.00" fill="#000000">10834</text>
</g>
<!-- 5692&#45;&gt;10834 -->
<g id="edge23" class="edge">
<title>5692&#45;&gt;10834</title>
<path fill="none" stroke="#000000" d="M1056.7315,-1502.6897C1051.5857,-1468.8432 1040.4968,-1395.9044 1034.3947,-1355.7673"/>
<polygon fill="#000000" stroke="#000000" points="1037.8494,-1355.2045 1032.8861,-1345.8442 1030.929,-1356.2567 1037.8494,-1355.2045"/>
</g>
<!-- 11008 -->
<g id="node32" class="node">
<title>11008</title>
<ellipse fill="none" stroke="#000000" cx="1132.6724" cy="-1579.464" rx="32.4942" ry="18"/>
<text text-anchor="middle" x="1132.6724" y="-1575.764" font-family="Times,serif" font-size="14.00" fill="#000000">11008</text>
</g>
<!-- 5692&#45;&gt;11008 -->
<g id="edge24" class="edge">
<title>5692&#45;&gt;11008</title>
<path fill="none" stroke="#000000" d="M1077.2065,-1535.0337C1085.931,-1542.0225 1096.6272,-1550.5905 1106.2908,-1558.3313"/>
<polygon fill="#000000" stroke="#000000" points="1104.1064,-1561.066 1114.0993,-1564.5863 1108.4827,-1555.6027 1104.1064,-1561.066"/>
</g>
<!-- 27865 -->
<g id="node36" class="node">
<title>27865</title>
<ellipse fill="none" stroke="#000000" cx="1218.0285" cy="-1602.3265" rx="32.4942" ry="18"/>
<text text-anchor="middle" x="1218.0285" y="-1598.6265" font-family="Times,serif" font-size="14.00" fill="#000000">27865</text>
</g>
<!-- 5692&#45;&gt;27865 -->
<g id="edge25" class="edge">
<title>5692&#45;&gt;27865</title>
<path fill="none" stroke="#000000" d="M1081.8696,-1532.345C1108.7106,-1546.1404 1153.9445,-1569.3893 1184.8522,-1585.2749"/>
<polygon fill="#000000" stroke="#000000" points="1183.4541,-1588.4915 1193.9481,-1589.9499 1186.654,-1582.2657 1183.4541,-1588.4915"/>
</g>
<!-- 28065 -->
<g id="node37" class="node">
<title>28065</title>
<ellipse fill="none" stroke="#000000" cx="1209.3088" cy="-1484.5638" rx="32.4942" ry="18"/>
<text text-anchor="middle" x="1209.3088" y="-1480.8638" font-family="Times,serif" font-size="14.00" fill="#000000">28065</text>
</g>
<!-- 5692&#45;&gt;28065 -->
<g id="edge26" class="edge">
<title>5692&#45;&gt;28065</title>
<path fill="none" stroke="#000000" d="M1086.2757,-1514.3572C1109.3838,-1508.7614 1143.0874,-1500.5998 1169.3784,-1494.2333"/>
<polygon fill="#000000" stroke="#000000" points="1170.5189,-1497.5584 1179.4142,-1491.803 1168.8713,-1490.755 1170.5189,-1497.5584"/>
</g>
<!-- 52317 -->
<g id="node40" class="node">
<title>52317</title>
<ellipse fill="none" stroke="#000000" cx="1150.5497" cy="-1426.0075" rx="32.4942" ry="18"/>
<text text-anchor="middle" x="1150.5497" y="-1422.3075" font-family="Times,serif" font-size="14.00" fill="#000000">52317</text>
</g>
<!-- 5692&#45;&gt;52317 -->
<g id="edge27" class="edge">
<title>5692&#45;&gt;52317</title>
<path fill="none" stroke="#000000" d="M1074.5278,-1505.1831C1089.0711,-1490.0365 1111.2966,-1466.8889 1127.9661,-1449.5279"/>
<polygon fill="#000000" stroke="#000000" points="1130.7852,-1451.6454 1135.1866,-1442.008 1125.7359,-1446.7972 1130.7852,-1451.6454"/>
</g>
<!-- 52375 -->
<g id="node41" class="node">
<title>52375</title>
<ellipse fill="none" stroke="#000000" cx="924.8107" cy="-1553.8237" rx="32.4942" ry="18"/>
<text text-anchor="middle" x="924.8107" y="-1550.1237" font-family="Times,serif" font-size="14.00" fill="#000000">52375</text>
</g>
<!-- 5692&#45;&gt;52375 -->
<g id="edge28" class="edge">
<title>5692&#45;&gt;52375</title>
<path fill="none" stroke="#000000" d="M1032.5604,-1527.4381C1013.2098,-1532.1766 986.795,-1538.6451 964.9625,-1543.9914"/>
<polygon fill="#000000" stroke="#000000" points="963.8611,-1540.6576 954.9806,-1546.4358 965.5261,-1547.4567 963.8611,-1540.6576"/>
</g>
<!-- 52376 -->
<g id="node42" class="node">
<title>52376</title>
<ellipse fill="none" stroke="#000000" cx="1060.8657" cy="-1641.5197" rx="32.4942" ry="18"/>
<text text-anchor="middle" x="1060.8657" y="-1637.8197" font-family="Times,serif" font-size="14.00" fill="#000000">52376</text>
</g>
<!-- 5692&#45;&gt;52376 -->
<g id="edge29" class="edge">
<title>5692&#45;&gt;52376</title>
<path fill="none" stroke="#000000" d="M1059.6971,-1538.9098C1059.9208,-1558.5494 1060.2812,-1590.1965 1060.5427,-1613.1568"/>
<polygon fill="#000000" stroke="#000000" points="1057.0448,-1613.3702 1060.6585,-1623.3297 1064.0443,-1613.2905 1057.0448,-1613.3702"/>
</g>
<!-- 52380 -->
<g id="node43" class="node">
<title>52380</title>
<ellipse fill="none" stroke="#000000" cx="945.195" cy="-1614.1336" rx="32.4942" ry="18"/>
<text text-anchor="middle" x="945.195" y="-1610.4336" font-family="Times,serif" font-size="14.00" fill="#000000">52380</text>
</g>
<!-- 5692&#45;&gt;52380 -->
<g id="edge30" class="edge">
<title>5692&#45;&gt;52380</title>
<path fill="none" stroke="#000000" d="M1041.6326,-1535.4199C1022.8152,-1550.7789 992.9828,-1575.1285 971.4791,-1592.6802"/>
<polygon fill="#000000" stroke="#000000" points="969.2196,-1590.0065 963.6857,-1599.0412 973.6459,-1595.4294 969.2196,-1590.0065"/>
</g>
<!-- 52413 -->
<g id="node44" class="node">
<title>52413</title>
<ellipse fill="none" stroke="#000000" cx="1151.8986" cy="-1667.6817" rx="32.4942" ry="18"/>
<text text-anchor="middle" x="1151.8986" y="-1663.9817" font-family="Times,serif" font-size="14.00" fill="#000000">52413</text>
</g>
<!-- 5692&#45;&gt;52413 -->
<g id="edge31" class="edge">
<title>5692&#45;&gt;52413</title>
<path fill="none" stroke="#000000" d="M1070.0916,-1537.6875C1086.1597,-1563.2202 1116.8041,-1611.9152 1135.6847,-1641.9172"/>
<polygon fill="#000000" stroke="#000000" points="1132.8488,-1643.9823 1141.1373,-1650.5816 1138.7733,-1640.2539 1132.8488,-1643.9823"/>
</g>
<!-- 52431 -->
<g id="node45" class="node">
<title>52431</title>
<ellipse fill="none" stroke="#000000" cx="986.9976" cy="-1662.9142" rx="32.4942" ry="18"/>
<text text-anchor="middle" x="986.9976" y="-1659.2142" font-family="Times,serif" font-size="14.00" fill="#000000">52431</text>
</g>
<!-- 5692&#45;&gt;52431 -->
<g id="edge32" class="edge">
<title>5692&#45;&gt;52431</title>
<path fill="none" stroke="#000000" d="M1050.6022,-1538.264C1038.1018,-1562.7619 1015.2229,-1607.5993 1000.5819,-1636.2921"/>
<polygon fill="#000000" stroke="#000000" points="997.3871,-1634.8528 995.9595,-1645.3511 1003.6222,-1638.0345 997.3871,-1634.8528"/>
</g>
<!-- 262230 -->
<g id="node46" class="node">
<title>262230</title>
<ellipse fill="none" stroke="#000000" cx="1069.4953" cy="-1698.2994" rx="37.0935" ry="18"/>
<text text-anchor="middle" x="1069.4953" y="-1694.5994" font-family="Times,serif" font-size="14.00" fill="#000000">262230</text>
</g>
<!-- 5692&#45;&gt;262230 -->
<g id="edge33" class="edge">
<title>5692&#45;&gt;262230</title>
<path fill="none" stroke="#000000" d="M1060.5056,-1538.8353C1062.2508,-1569.7916 1065.8336,-1633.3461 1067.9105,-1670.1876"/>
<polygon fill="#000000" stroke="#000000" points="1064.4209,-1670.4726 1068.4783,-1680.2598 1071.4098,-1670.0786 1064.4209,-1670.4726"/>
</g>
<!-- 264608 -->
<g id="node47" class="node">
<title>264608</title>
<ellipse fill="none" stroke="#000000" cx="1229.2858" cy="-1549.0045" rx="37.0935" ry="18"/>
<text text-anchor="middle" x="1229.2858" y="-1545.3045" font-family="Times,serif" font-size="14.00" fill="#000000">264608</text>
</g>
<!-- 5692&#45;&gt;264608 -->
<g id="edge34" class="edge">
<title>5692&#45;&gt;264608</title>
<path fill="none" stroke="#000000" d="M1087.1497,-1525.4305C1113.3221,-1529.7714 1153.0797,-1536.3653 1183.8977,-1541.4767"/>
<polygon fill="#000000" stroke="#000000" points="1183.5358,-1544.9644 1193.9738,-1543.1478 1184.6812,-1538.0587 1183.5358,-1544.9644"/>
</g>
<!-- 6453&#45;&gt;2828 -->
<g id="edge35" class="edge">
<title>6453&#45;&gt;2828</title>
<path fill="none" stroke="#000000" d="M1300.8941,-340.9005C1309.371,-359.9211 1323.0775,-390.6761 1332.9191,-412.7589"/>
<polygon fill="#000000" stroke="#000000" points="1329.7372,-414.2174 1337.0049,-421.9266 1336.131,-411.3679 1329.7372,-414.2174"/>
</g>
<!-- 6453&#45;&gt;3257 -->
<g id="edge36" class="edge">
<title>6453&#45;&gt;3257</title>
<path fill="none" stroke="#000000" d="M1307.7801,-307.783C1330.5305,-283.2218 1374.5468,-235.7019 1401.0277,-207.1132"/>
<polygon fill="#000000" stroke="#000000" points="1403.7717,-209.3013 1407.9994,-199.5865 1398.6362,-204.5445 1403.7717,-209.3013"/>
</g>
<!-- 6762&#45;&gt;2914 -->
<g id="edge37" class="edge">
<title>6762&#45;&gt;2914</title>
<path fill="none" stroke="#000000" d="M1023.4254,-584.7917C1046.8763,-561.4203 1091.7845,-516.6644 1119.0413,-489.4999"/>
<polygon fill="#000000" stroke="#000000" points="1121.6162,-491.8752 1126.2286,-482.337 1116.6748,-486.917 1121.6162,-491.8752"/>
</g>
<!-- 6904 -->
<g id="node25" class="node">
<title>6904</title>
<ellipse fill="none" stroke="#000000" cx="487.9242" cy="-659.9126" rx="28.6953" ry="18"/>
<text text-anchor="middle" x="487.9242" y="-656.2126" font-family="Times,serif" font-size="14.00" fill="#000000">6904</text>
</g>
<!-- 6904&#45;&gt;2687 -->
<g id="edge38" class="edge">
<title>6904&#45;&gt;2687</title>
<path fill="none" stroke="#000000" d="M460.2572,-654.5595C433.807,-649.4419 393.7298,-641.6876 364.4306,-636.0187"/>
<polygon fill="#000000" stroke="#000000" points="365.0394,-632.5717 354.5566,-634.1083 363.7096,-639.4442 365.0394,-632.5717"/>
</g>
<!-- 7016 -->
<g id="node26" class="node">
<title>7016</title>
<ellipse fill="none" stroke="#000000" cx="622.0931" cy="-555.251" rx="28.6953" ry="18"/>
<text text-anchor="middle" x="622.0931" y="-551.551" font-family="Times,serif" font-size="14.00" fill="#000000">7016</text>
</g>
<!-- 7922 -->
<g id="node29" class="node">
<title>7922</title>
<ellipse fill="none" stroke="#000000" cx="571.2335" cy="-445.2619" rx="28.6953" ry="18"/>
<text text-anchor="middle" x="571.2335" y="-441.5619" font-family="Times,serif" font-size="14.00" fill="#000000">7922</text>
</g>
<!-- 7016&#45;&gt;7922 -->
<g id="edge39" class="edge">
<title>7016&#45;&gt;7922</title>
<path fill="none" stroke="#000000" d="M613.9216,-537.5794C605.7283,-519.8604 593.0092,-492.354 583.5839,-471.9709"/>
<polygon fill="#000000" stroke="#000000" points="586.7586,-470.4973 579.3847,-462.8897 580.405,-473.4353 586.7586,-470.4973"/>
</g>
<!-- 7473 -->
<g id="node28" class="node">
<title>7473</title>
<ellipse fill="none" stroke="#000000" cx="127.6041" cy="-413.8039" rx="28.6953" ry="18"/>
<text text-anchor="middle" x="127.6041" y="-410.1039" font-family="Times,serif" font-size="14.00" fill="#000000">7473</text>
</g>
<!-- 9505&#45;&gt;7473 -->
<g id="edge40" class="edge">
<title>9505&#45;&gt;7473</title>
<path fill="none" stroke="#000000" d="M203.2152,-489.3508C188.6947,-474.8425 166.785,-452.9515 150.2824,-436.4629"/>
<polygon fill="#000000" stroke="#000000" points="152.6745,-433.9053 143.1266,-429.3132 147.7269,-438.8572 152.6745,-433.9053"/>
</g>
<!-- 12956 -->
<g id="node33" class="node">
<title>12956</title>
<ellipse fill="none" stroke="#000000" cx="969.3383" cy="-1122.1874" rx="32.4942" ry="18"/>
<text text-anchor="middle" x="969.3383" y="-1118.4874" font-family="Times,serif" font-size="14.00" fill="#000000">12956</text>
</g>
<!-- 10834&#45;&gt;12956 -->
<g id="edge41" class="edge">
<title>10834&#45;&gt;12956</title>
<path fill="none" stroke="#000000" d="M1024.8642,-1309.9855C1014.2385,-1274.0476 990.2386,-1192.876 977.5533,-1149.9719"/>
<polygon fill="#000000" stroke="#000000" points="980.8518,-1148.7837 974.66,-1140.1865 974.1391,-1150.7685 980.8518,-1148.7837"/>
</g>
<!-- 22927 -->
<g id="node35" class="node">
<title>22927</title>
<ellipse fill="none" stroke="#000000" cx="1138.5228" cy="-1248.1034" rx="32.4942" ry="18"/>
<text text-anchor="middle" x="1138.5228" y="-1244.4034" font-family="Times,serif" font-size="14.00" fill="#000000">22927</text>
</g>
<!-- 10834&#45;&gt;22927 -->
<g id="edge42" class="edge">
<title>10834&#45;&gt;22927</title>
<path fill="none" stroke="#000000" d="M1049.7795,-1313.4326C1066.7052,-1300.9726 1091.3525,-1282.8282 1110.3794,-1268.8214"/>
<polygon fill="#000000" stroke="#000000" points="1112.6998,-1271.4594 1118.678,-1262.7123 1108.5498,-1265.8222 1112.6998,-1271.4594"/>
</g>
<!-- 12956&#45;&gt;3356 -->
<g id="edge43" class="edge">
<title>12956&#45;&gt;3356</title>
<path fill="none" stroke="#000000" d="M964.3976,-1104.178C955.5385,-1071.8851 936.8973,-1003.9352 926.3905,-965.6362"/>
<polygon fill="#000000" stroke="#000000" points="929.6786,-964.3921 923.6576,-955.6744 922.928,-966.2441 929.6786,-964.3921"/>
</g>
<!-- 18540 -->
<g id="node34" class="node">
<title>18540</title>
<ellipse fill="none" stroke="#000000" cx="588.8858" cy="-786.5336" rx="32.4942" ry="18"/>
<text text-anchor="middle" x="588.8858" y="-782.8336" font-family="Times,serif" font-size="14.00" fill="#000000">18540</text>
</g>
<!-- 30070&#45;&gt;6904 -->
<g id="edge44" class="edge">
<title>30070&#45;&gt;6904</title>
<path fill="none" stroke="#000000" d="M661.4244,-692.1437C624.9999,-685.3772 564.6559,-674.1671 525.597,-666.9111"/>
<polygon fill="#000000" stroke="#000000" points="526.1391,-663.452 515.668,-665.0666 524.8605,-670.3342 526.1391,-663.452"/>
</g>
<!-- 30070&#45;&gt;7016 -->
<g id="edge45" class="edge">
<title>30070&#45;&gt;7016</title>
<path fill="none" stroke="#000000" d="M683.8616,-680.4221C671.6561,-655.6881 649.2618,-610.3071 635.0542,-581.5161"/>
<polygon fill="#000000" stroke="#000000" points="638.1403,-579.8607 630.5764,-572.442 631.863,-582.9584 638.1403,-579.8607"/>
</g>
<!-- 30070&#45;&gt;18540 -->
<g id="edge46" class="edge">
<title>30070&#45;&gt;18540</title>
<path fill="none" stroke="#000000" d="M674.4469,-713.3516C657.8817,-727.5202 633.1598,-748.6653 614.5435,-764.5881"/>
<polygon fill="#000000" stroke="#000000" points="612.0506,-762.1147 606.7261,-771.2744 616.6006,-767.4343 612.0506,-762.1147"/>
</g>
</g>
</svg>
