<?xml version="1.0" encoding="UTF-8" standalone="no"?>
<!DOCTYPE svg PUBLIC "-//W3C//DTD SVG 1.1//EN"
 "http://www.w3.org/Graphics/SVG/1.1/DTD/svg11.dtd">
<!-- Generated by graphviz version 2.40.1 (20161225.0304)
 -->
<!-- Title: %3 Pages: 1 -->
<svg width="908pt" height="763pt"
 viewBox="0.00 0.00 907.79 763.08" xmlns="http://www.w3.org/2000/svg" xmlns:xlink="http://www.w3.org/1999/xlink">
<g id="graph0" class="graph" transform="scale(1 1) rotate(0) translate(4 759.0759)">
<title>%3</title>
<polygon fill="#ffffff" stroke="transparent" points="-4,4 -4,-759.0759 903.7856,-759.0759 903.7856,4 -4,4"/>
<!-- 174 -->
<g id="node1" class="node">
<title>174</title>
<ellipse fill="none" stroke="#000000" cx="872.7856" cy="-434.9552" rx="27" ry="18"/>
<text text-anchor="middle" x="872.7856" y="-431.2552" font-family="Times,serif" font-size="14.00" fill="#000000">174</text>
</g>
<!-- 209 -->
<g id="node2" class="node">
<title>209</title>
<ellipse fill="none" stroke="#000000" cx="838.3152" cy="-515.2808" rx="27" ry="18"/>
<text text-anchor="middle" x="838.3152" y="-511.5808" font-family="Times,serif" font-size="14.00" fill="#000000">209</text>
</g>
<!-- 701 -->
<g id="node3" class="node">
<title>701</title>
<ellipse fill="none" stroke="#000000" cx="788.381" cy="-587.0233" rx="27" ry="18"/>
<text text-anchor="middle" x="788.381" y="-583.3233" font-family="Times,serif" font-size="14.00" fill="#000000">701</text>
</g>
<!-- 1239 -->
<g id="node4" class="node">
<title>1239</title>
<ellipse fill="none" stroke="#000000" cx="725.0272" cy="-647.2455" rx="28.6953" ry="18"/>
<text text-anchor="middle" x="725.0272" y="-643.5455" font-family="Times,serif" font-size="14.00" fill="#000000">1239</text>
</g>
<!-- 1273 -->
<g id="node5" class="node">
<title>1273</title>
<ellipse fill="none" stroke="#000000" cx="650.8477" cy="-693.4819" rx="28.6953" ry="18"/>
<text text-anchor="middle" x="650.8477" y="-689.7819" font-family="Times,serif" font-size="14.00" fill="#000000">1273</text>
</g>
<!-- 1299 -->
<g id="node6" class="node">
<title>1299</title>
<ellipse fill="none" stroke="#000000" cx="568.8794" cy="-723.8397" rx="28.6953" ry="18"/>
<text text-anchor="middle" x="568.8794" y="-720.1397" font-family="Times,serif" font-size="14.00" fill="#000000">1299</text>
</g>
<!-- 2497 -->
<g id="node7" class="node">
<title>2497</title>
<ellipse fill="none" stroke="#000000" cx="482.4779" cy="-737.0759" rx="28.6953" ry="18"/>
<text text-anchor="middle" x="482.4779" y="-733.3759" font-family="Times,serif" font-size="14.00" fill="#000000">2497</text>
</g>
<!-- 2516 -->
<g id="node8" class="node">
<title>2516</title>
<ellipse fill="none" stroke="#000000" cx="129.7727" cy="-447.5985" rx="28.6953" ry="18"/>
<text text-anchor="middle" x="129.7727" y="-443.8985" font-family="Times,serif" font-size="14.00" fill="#000000">2516</text>
</g>
<!-- 32787 -->
<g id="node39" class="node">
<title>32787</title>
<ellipse fill="none" stroke="#000000" cx="63.6077" cy="-475.9921" rx="32.4942" ry="18"/>
<text text-anchor="middle" x="63.6077" y="-472.2921" font-family="Times,serif" font-size="14.00" fill="#000000">32787</text>
</g>
<!-- 2516&#45;&gt;32787 -->
<g id="edge1" class="edge">
<title>2516&#45;&gt;32787</title>
<path fill="none" stroke="#000000" d="M105.8856,-457.8492C103.5536,-458.85 101.1554,-459.8791 98.7425,-460.9145"/>
<polygon fill="#000000" stroke="#000000" points="97.2824,-457.7324 89.4731,-464.8924 100.0429,-464.1651 97.2824,-457.7324"/>
</g>
<!-- 2686 -->
<g id="node9" class="node">
<title>2686</title>
<ellipse fill="none" stroke="#000000" cx="107.9667" cy="-378.0978" rx="28.6953" ry="18"/>
<text text-anchor="middle" x="107.9667" y="-374.3978" font-family="Times,serif" font-size="14.00" fill="#000000">2686</text>
</g>
<!-- 3741 -->
<g id="node19" class="node">
<title>3741</title>
<ellipse fill="none" stroke="#000000" cx="37.4405" cy="-392.5913" rx="28.6953" ry="18"/>
<text text-anchor="middle" x="37.4405" y="-388.8913" font-family="Times,serif" font-size="14.00" fill="#000000">3741</text>
</g>
<!-- 2686&#45;&gt;3741 -->
<g id="edge2" class="edge">
<title>2686&#45;&gt;3741</title>
<path fill="none" stroke="#000000" d="M80.4975,-383.7429C78.7425,-384.1035 76.9604,-384.4698 75.1698,-384.8377"/>
<polygon fill="#000000" stroke="#000000" points="74.0415,-381.4964 64.9508,-386.9378 75.4507,-388.3531 74.0415,-381.4964"/>
</g>
<!-- 2687 -->
<g id="node10" class="node">
<title>2687</title>
<ellipse fill="none" stroke="#000000" cx="178.4928" cy="-363.6043" rx="28.6953" ry="18"/>
<text text-anchor="middle" x="178.4928" y="-359.9043" font-family="Times,serif" font-size="14.00" fill="#000000">2687</text>
</g>
<!-- 2687&#45;&gt;2516 -->
<g id="edge3" class="edge">
<title>2687&#45;&gt;2516</title>
<path fill="none" stroke="#000000" d="M168.6336,-380.6018C161.7657,-392.442 152.4802,-408.4505 144.7079,-421.8499"/>
<polygon fill="#000000" stroke="#000000" points="141.6072,-420.22 139.6172,-430.6263 147.6623,-423.7322 141.6072,-420.22"/>
</g>
<!-- 2687&#45;&gt;2686 -->
<g id="edge4" class="edge">
<title>2687&#45;&gt;2686</title>
<path fill="none" stroke="#000000" d="M151.0236,-369.2494C149.2687,-369.61 147.4866,-369.9763 145.696,-370.3442"/>
<polygon fill="#000000" stroke="#000000" points="144.5677,-367.0029 135.4769,-372.4443 145.9768,-373.8596 144.5677,-367.0029"/>
</g>
<!-- 9505 -->
<g id="node30" class="node">
<title>9505</title>
<ellipse fill="none" stroke="#000000" cx="100.5975" cy="-305.6304" rx="28.6953" ry="18"/>
<text text-anchor="middle" x="100.5975" y="-301.9304" font-family="Times,serif" font-size="14.00" fill="#000000">9505</text>
</g>
<!-- 2687&#45;&gt;9505 -->
<g id="edge5" class="edge">
<title>2687&#45;&gt;9505</title>
<path fill="none" stroke="#000000" d="M159.6365,-349.5704C149.9728,-342.3782 138.0366,-333.4946 127.4313,-325.6015"/>
<polygon fill="#000000" stroke="#000000" points="129.3919,-322.6978 119.2801,-319.535 125.2125,-328.3132 129.3919,-322.6978"/>
</g>
<!-- 2828 -->
<g id="node11" class="node">
<title>2828</title>
<ellipse fill="none" stroke="#000000" cx="818.7504" cy="-342.0509" rx="28.6953" ry="18"/>
<text text-anchor="middle" x="818.7504" y="-338.3509" font-family="Times,serif" font-size="14.00" fill="#000000">2828</text>
</g>
<!-- 2914 -->
<g id="node12" class="node">
<title>2914</title>
<ellipse fill="none" stroke="#000000" cx="514.7384" cy="-514.735" rx="28.6953" ry="18"/>
<text text-anchor="middle" x="514.7384" y="-511.035" font-family="Times,serif" font-size="14.00" fill="#000000">2914</text>
</g>
<!-- 6453 -->
<g id="node22" class="node">
<title>6453</title>
<ellipse fill="none" stroke="#000000" cx="532.7854" cy="-584.4366" rx="28.6953" ry="18"/>
<text text-anchor="middle" x="532.7854" y="-580.7366" font-family="Times,serif" font-size="14.00" fill="#000000">6453</text>
</g>
<!-- 2914&#45;&gt;6453 -->
<g id="edge6" class="edge">
<title>2914&#45;&gt;6453</title>
<path fill="none" stroke="#000000" d="M519.386,-532.6849C521.2658,-539.9454 523.48,-548.4972 525.5612,-556.5349"/>
<polygon fill="#000000" stroke="#000000" points="522.196,-557.5018 528.0909,-566.3053 528.9725,-555.7472 522.196,-557.5018"/>
</g>
<!-- 3257 -->
<g id="node13" class="node">
<title>3257</title>
<ellipse fill="none" stroke="#000000" cx="515.1115" cy="-661.479" rx="28.6953" ry="18"/>
<text text-anchor="middle" x="515.1115" y="-657.779" font-family="Times,serif" font-size="14.00" fill="#000000">3257</text>
</g>
<!-- 3257&#45;&gt;174 -->
<g id="edge7" class="edge">
<title>3257&#45;&gt;174</title>
<path fill="none" stroke="#000000" d="M535.3664,-648.651C595.7573,-610.404 774.6965,-497.0774 844.4741,-452.8856"/>
<polygon fill="#000000" stroke="#000000" points="846.6163,-455.6718 853.1919,-447.3644 842.871,-449.758 846.6163,-455.6718"/>
</g>
<!-- 3257&#45;&gt;209 -->
<g id="edge8" class="edge">
<title>3257&#45;&gt;209</title>
<path fill="none" stroke="#000000" d="M538.3555,-650.9647C595.2149,-625.2449 741.4029,-559.1181 806.3722,-529.7299"/>
<polygon fill="#000000" stroke="#000000" points="808.0439,-532.8152 815.7126,-525.5049 805.1589,-526.4374 808.0439,-532.8152"/>
</g>
<!-- 3257&#45;&gt;701 -->
<g id="edge9" class="edge">
<title>3257&#45;&gt;701</title>
<path fill="none" stroke="#000000" d="M541.8112,-654.2043C591.4986,-640.6663 698.1251,-611.6146 753.4575,-596.5386"/>
<polygon fill="#000000" stroke="#000000" points="754.4388,-599.8989 763.167,-593.8931 752.5986,-593.1451 754.4388,-599.8989"/>
</g>
<!-- 3257&#45;&gt;1239 -->
<g id="edge10" class="edge">
<title>3257&#45;&gt;1239</title>
<path fill="none" stroke="#000000" d="M543.8592,-659.5297C580.7354,-657.0293 644.843,-652.6824 686.0759,-649.8866"/>
<polygon fill="#000000" stroke="#000000" points="686.5504,-653.3626 696.2906,-649.194 686.0767,-646.3786 686.5504,-653.3626"/>
</g>
<!-- 3257&#45;&gt;1273 -->
<g id="edge11" class="edge">
<title>3257&#45;&gt;1273</title>
<path fill="none" stroke="#000000" d="M541.9286,-667.8017C562.4305,-672.6355 590.9382,-679.3569 613.6461,-684.7108"/>
<polygon fill="#000000" stroke="#000000" points="613.0854,-688.1745 623.6217,-687.0628 614.6918,-681.3613 613.0854,-688.1745"/>
</g>
<!-- 3257&#45;&gt;1299 -->
<g id="edge12" class="edge">
<title>3257&#45;&gt;1299</title>
<path fill="none" stroke="#000000" d="M528.958,-677.5384C534.8077,-684.3229 541.744,-692.3677 548.1802,-699.8325"/>
<polygon fill="#000000" stroke="#000000" points="545.712,-702.3298 554.8928,-707.6179 551.0136,-697.7588 545.712,-702.3298"/>
</g>
<!-- 3257&#45;&gt;2497 -->
<g id="edge13" class="edge">
<title>3257&#45;&gt;2497</title>
<path fill="none" stroke="#000000" d="M507.5426,-679.0124C503.5474,-688.2675 498.5588,-699.8239 494.0863,-710.1846"/>
<polygon fill="#000000" stroke="#000000" points="490.7556,-709.0692 490.0057,-719.6375 497.1824,-711.8436 490.7556,-709.0692"/>
</g>
<!-- 3320 -->
<g id="node14" class="node">
<title>3320</title>
<ellipse fill="none" stroke="#000000" cx="395.1807" cy="-732.6487" rx="28.6953" ry="18"/>
<text text-anchor="middle" x="395.1807" y="-728.9487" font-family="Times,serif" font-size="14.00" fill="#000000">3320</text>
</g>
<!-- 3257&#45;&gt;3320 -->
<g id="edge14" class="edge">
<title>3257&#45;&gt;3320</title>
<path fill="none" stroke="#000000" d="M494.2211,-673.8758C475.0776,-685.236 446.5235,-702.1806 424.9866,-714.9611"/>
<polygon fill="#000000" stroke="#000000" points="423.0476,-712.0418 416.234,-720.1551 426.62,-718.0617 423.0476,-712.0418"/>
</g>
<!-- 3491 -->
<g id="node16" class="node">
<title>3491</title>
<ellipse fill="none" stroke="#000000" cx="310.5616" cy="-710.7393" rx="28.6953" ry="18"/>
<text text-anchor="middle" x="310.5616" y="-707.0393" font-family="Times,serif" font-size="14.00" fill="#000000">3491</text>
</g>
<!-- 3257&#45;&gt;3491 -->
<g id="edge15" class="edge">
<title>3257&#45;&gt;3491</title>
<path fill="none" stroke="#000000" d="M488.3701,-667.9189C452.231,-676.622 387.6629,-692.1715 347.0788,-701.9451"/>
<polygon fill="#000000" stroke="#000000" points="346.2121,-698.5537 337.3095,-704.2978 347.851,-705.3591 346.2121,-698.5537"/>
</g>
<!-- 5511 -->
<g id="node20" class="node">
<title>5511</title>
<ellipse fill="none" stroke="#000000" cx="232.085" cy="-672.2447" rx="28.6953" ry="18"/>
<text text-anchor="middle" x="232.085" y="-668.5447" font-family="Times,serif" font-size="14.00" fill="#000000">5511</text>
</g>
<!-- 3257&#45;&gt;5511 -->
<g id="edge16" class="edge">
<title>3257&#45;&gt;5511</title>
<path fill="none" stroke="#000000" d="M486.4158,-662.5705C435.3481,-664.513 328.6578,-668.5713 271.0229,-670.7636"/>
<polygon fill="#000000" stroke="#000000" points="270.7163,-667.2726 260.8566,-671.1503 270.9824,-674.2675 270.7163,-667.2726"/>
</g>
<!-- 6461 -->
<g id="node23" class="node">
<title>6461</title>
<ellipse fill="none" stroke="#000000" cx="162.9638" cy="-618.7408" rx="28.6953" ry="18"/>
<text text-anchor="middle" x="162.9638" y="-615.0408" font-family="Times,serif" font-size="14.00" fill="#000000">6461</text>
</g>
<!-- 3257&#45;&gt;6461 -->
<g id="edge17" class="edge">
<title>3257&#45;&gt;6461</title>
<path fill="none" stroke="#000000" d="M486.889,-658.0538C424.1719,-650.4421 273.1299,-632.1111 201.6733,-623.4388"/>
<polygon fill="#000000" stroke="#000000" points="201.6695,-619.9127 191.3206,-622.1823 200.8261,-626.8617 201.6695,-619.9127"/>
</g>
<!-- 7018 -->
<g id="node27" class="node">
<title>7018</title>
<ellipse fill="none" stroke="#000000" cx="106.0277" cy="-552.4182" rx="28.6953" ry="18"/>
<text text-anchor="middle" x="106.0277" y="-548.7182" font-family="Times,serif" font-size="14.00" fill="#000000">7018</text>
</g>
<!-- 3257&#45;&gt;7018 -->
<g id="edge18" class="edge">
<title>3257&#45;&gt;7018</title>
<path fill="none" stroke="#000000" d="M488.5855,-654.4072C417.6131,-635.4861 223.2777,-583.6768 142.2498,-562.0749"/>
<polygon fill="#000000" stroke="#000000" points="143.0576,-558.6681 132.4934,-559.4739 141.2543,-565.4319 143.0576,-558.6681"/>
</g>
<!-- 3356 -->
<g id="node15" class="node">
<title>3356</title>
<ellipse fill="none" stroke="#000000" cx="460.5975" cy="-305.6304" rx="28.6953" ry="18"/>
<text text-anchor="middle" x="460.5975" y="-301.9304" font-family="Times,serif" font-size="14.00" fill="#000000">3356</text>
</g>
<!-- 3549 -->
<g id="node17" class="node">
<title>3549</title>
<ellipse fill="none" stroke="#000000" cx="442.5505" cy="-375.3319" rx="28.6953" ry="18"/>
<text text-anchor="middle" x="442.5505" y="-371.6319" font-family="Times,serif" font-size="14.00" fill="#000000">3549</text>
</g>
<!-- 3356&#45;&gt;3549 -->
<g id="edge19" class="edge">
<title>3356&#45;&gt;3549</title>
<path fill="none" stroke="#000000" d="M455.9499,-323.5802C454.07,-330.8407 451.8558,-339.3925 449.7747,-347.4302"/>
<polygon fill="#000000" stroke="#000000" points="446.3633,-346.6425 447.245,-357.2006 453.1399,-348.3971 446.3633,-346.6425"/>
</g>
<!-- 6762 -->
<g id="node24" class="node">
<title>6762</title>
<ellipse fill="none" stroke="#000000" cx="496.6914" cy="-445.0335" rx="28.6953" ry="18"/>
<text text-anchor="middle" x="496.6914" y="-441.3335" font-family="Times,serif" font-size="14.00" fill="#000000">6762</text>
</g>
<!-- 3549&#45;&gt;6762 -->
<g id="edge20" class="edge">
<title>3549&#45;&gt;6762</title>
<path fill="none" stroke="#000000" d="M455.3811,-391.8502C462.0563,-400.4439 470.3463,-411.1165 477.7443,-420.6407"/>
<polygon fill="#000000" stroke="#000000" points="475.0544,-422.8833 483.9529,-428.6337 480.5826,-418.5892 475.0544,-422.8833"/>
</g>
<!-- 30070 -->
<g id="node38" class="node">
<title>30070</title>
<ellipse fill="none" stroke="#000000" cx="316.5975" cy="-305.6304" rx="32.4942" ry="18"/>
<text text-anchor="middle" x="316.5975" y="-301.9304" font-family="Times,serif" font-size="14.00" fill="#000000">30070</text>
</g>
<!-- 3549&#45;&gt;30070 -->
<g id="edge21" class="edge">
<title>3549&#45;&gt;30070</title>
<path fill="none" stroke="#000000" d="M420.8984,-363.3498C400.9929,-352.3342 371.2256,-335.8612 348.5805,-323.3296"/>
<polygon fill="#000000" stroke="#000000" points="350.1149,-320.1785 339.6706,-318.3988 346.7255,-326.3032 350.1149,-320.1785"/>
</g>
<!-- 3597 -->
<g id="node18" class="node">
<title>3597</title>
<ellipse fill="none" stroke="#000000" cx="262.175" cy="-96.89" rx="28.6953" ry="18"/>
<text text-anchor="middle" x="262.175" y="-93.19" font-family="Times,serif" font-size="14.00" fill="#000000">3597</text>
</g>
<!-- 5692 -->
<g id="node21" class="node">
<title>5692</title>
<ellipse fill="none" stroke="#000000" cx="535.6154" cy="-103.0759" rx="28.6953" ry="18"/>
<text text-anchor="middle" x="535.6154" y="-99.3759" font-family="Times,serif" font-size="14.00" fill="#000000">5692</text>
</g>
<!-- 5692&#45;&gt;3597 -->
<g id="edge22" class="edge">
<title>5692&#45;&gt;3597</title>
<path fill="none" stroke="#000000" d="M506.8693,-102.4256C457.5325,-101.3095 356.6932,-99.0283 301.1044,-97.7707"/>
<polygon fill="#000000" stroke="#000000" points="301.0229,-94.2681 290.9462,-97.5409 300.8645,-101.2663 301.0229,-94.2681"/>
</g>
<!-- 10834 -->
<g id="node31" class="node">
<title>10834</title>
<ellipse fill="none" stroke="#000000" cx="496.6914" cy="-166.2272" rx="32.4942" ry="18"/>
<text text-anchor="middle" x="496.6914" y="-162.5272" font-family="Times,serif" font-size="14.00" fill="#000000">10834</text>
</g>
<!-- 5692&#45;&gt;10834 -->
<g id="edge23" class="edge">
<title>5692&#45;&gt;10834</title>
<path fill="none" stroke="#000000" d="M525.1845,-119.9993C521.4069,-126.1281 517.0461,-133.2033 512.8897,-139.9467"/>
<polygon fill="#000000" stroke="#000000" points="509.6901,-138.4674 507.4226,-148.8168 515.6491,-142.1403 509.6901,-138.4674"/>
</g>
<!-- 11008 -->
<g id="node32" class="node">
<title>11008</title>
<ellipse fill="none" stroke="#000000" cx="308.2558" cy="-61.2208" rx="32.4942" ry="18"/>
<text text-anchor="middle" x="308.2558" y="-57.5208" font-family="Times,serif" font-size="14.00" fill="#000000">11008</text>
</g>
<!-- 5692&#45;&gt;11008 -->
<g id="edge24" class="edge">
<title>5692&#45;&gt;11008</title>
<path fill="none" stroke="#000000" d="M507.7367,-97.9436C468.0503,-90.6377 395.0095,-77.1915 349.1791,-68.7545"/>
<polygon fill="#000000" stroke="#000000" points="349.7422,-65.2994 339.2737,-66.931 348.4748,-72.1837 349.7422,-65.2994"/>
</g>
<!-- 27865 -->
<g id="node36" class="node">
<title>27865</title>
<ellipse fill="none" stroke="#000000" cx="360.5735" cy="-35.5577" rx="32.4942" ry="18"/>
<text text-anchor="middle" x="360.5735" y="-31.8577" font-family="Times,serif" font-size="14.00" fill="#000000">27865</text>
</g>
<!-- 5692&#45;&gt;27865 -->
<g id="edge25" class="edge">
<title>5692&#45;&gt;27865</title>
<path fill="none" stroke="#000000" d="M510.9074,-93.5454C481.2302,-82.0981 431.1876,-62.7954 397.0588,-49.631"/>
<polygon fill="#000000" stroke="#000000" points="398.0417,-46.2589 387.4521,-45.9255 395.5225,-52.7899 398.0417,-46.2589"/>
</g>
<!-- 28065 -->
<g id="node37" class="node">
<title>28065</title>
<ellipse fill="none" stroke="#000000" cx="416.9863" cy="-20.9515" rx="32.4942" ry="18"/>
<text text-anchor="middle" x="416.9863" y="-17.2515" font-family="Times,serif" font-size="14.00" fill="#000000">28065</text>
</g>
<!-- 5692&#45;&gt;28065 -->
<g id="edge26" class="edge">
<title>5692&#45;&gt;28065</title>
<path fill="none" stroke="#000000" d="M516.2916,-89.6984C497.1646,-76.4572 467.6529,-56.0269 445.7669,-40.8757"/>
<polygon fill="#000000" stroke="#000000" points="447.7107,-37.9645 437.4965,-35.1503 443.7263,-43.72 447.7107,-37.9645"/>
</g>
<!-- 52317 -->
<g id="node40" class="node">
<title>52317</title>
<ellipse fill="none" stroke="#000000" cx="475.1844" cy="-18" rx="32.4942" ry="18"/>
<text text-anchor="middle" x="475.1844" y="-14.3" font-family="Times,serif" font-size="14.00" fill="#000000">52317</text>
</g>
<!-- 5692&#45;&gt;52317 -->
<g id="edge27" class="edge">
<title>5692&#45;&gt;52317</title>
<path fill="none" stroke="#000000" d="M523.6762,-86.2676C514.9027,-73.9162 502.8363,-56.9288 492.9351,-42.9898"/>
<polygon fill="#000000" stroke="#000000" points="495.7432,-40.8991 487.0988,-34.7733 490.0364,-44.9528 495.7432,-40.8991"/>
</g>
<!-- 52375 -->
<g id="node41" class="node">
<title>52375</title>
<ellipse fill="none" stroke="#000000" cx="532.7854" cy="-26.8241" rx="32.4942" ry="18"/>
<text text-anchor="middle" x="532.7854" y="-23.1241" font-family="Times,serif" font-size="14.00" fill="#000000">52375</text>
</g>
<!-- 5692&#45;&gt;52375 -->
<g id="edge28" class="edge">
<title>5692&#45;&gt;52375</title>
<path fill="none" stroke="#000000" d="M534.9447,-85.0053C534.6158,-76.1435 534.2119,-65.261 533.8428,-55.3147"/>
<polygon fill="#000000" stroke="#000000" points="537.3296,-54.8926 533.4611,-45.0293 530.3344,-55.1522 537.3296,-54.8926"/>
</g>
<!-- 52376 -->
<g id="node42" class="node">
<title>52376</title>
<ellipse fill="none" stroke="#000000" cx="587.431" cy="-47.0626" rx="32.4942" ry="18"/>
<text text-anchor="middle" x="587.431" y="-43.3626" font-family="Times,serif" font-size="14.00" fill="#000000">52376</text>
</g>
<!-- 5692&#45;&gt;52376 -->
<g id="edge29" class="edge">
<title>5692&#45;&gt;52376</title>
<path fill="none" stroke="#000000" d="M550.0489,-87.4731C554.8251,-82.3099 560.2534,-76.442 565.4638,-70.8094"/>
<polygon fill="#000000" stroke="#000000" points="568.131,-73.0803 572.3524,-63.3628 562.9924,-68.3268 568.131,-73.0803"/>
</g>
<!-- 52380 -->
<g id="node43" class="node">
<title>52380</title>
<ellipse fill="none" stroke="#000000" cx="636.884" cy="-77.8869" rx="32.4942" ry="18"/>
<text text-anchor="middle" x="636.884" y="-74.1869" font-family="Times,serif" font-size="14.00" fill="#000000">52380</text>
</g>
<!-- 5692&#45;&gt;52380 -->
<g id="edge30" class="edge">
<title>5692&#45;&gt;52380</title>
<path fill="none" stroke="#000000" d="M562.2225,-96.4578C572.8285,-93.8197 585.2655,-90.7262 596.9137,-87.8289"/>
<polygon fill="#000000" stroke="#000000" points="598.0217,-91.16 606.8812,-85.3497 596.332,-84.367 598.0217,-91.16"/>
</g>
<!-- 52413 -->
<g id="node44" class="node">
<title>52413</title>
<ellipse fill="none" stroke="#000000" cx="679.1198" cy="-118.0351" rx="32.4942" ry="18"/>
<text text-anchor="middle" x="679.1198" y="-114.3351" font-family="Times,serif" font-size="14.00" fill="#000000">52413</text>
</g>
<!-- 5692&#45;&gt;52413 -->
<g id="edge31" class="edge">
<title>5692&#45;&gt;52413</title>
<path fill="none" stroke="#000000" d="M563.9672,-106.0313C584.8152,-108.2046 613.4932,-111.194 637.014,-113.6459"/>
<polygon fill="#000000" stroke="#000000" points="636.7661,-117.1389 647.0751,-114.6947 637.4919,-110.1766 636.7661,-117.1389"/>
</g>
<!-- 52431 -->
<g id="node45" class="node">
<title>52431</title>
<ellipse fill="none" stroke="#000000" cx="712.4093" cy="-165.8634" rx="32.4942" ry="18"/>
<text text-anchor="middle" x="712.4093" y="-162.1634" font-family="Times,serif" font-size="14.00" fill="#000000">52431</text>
</g>
<!-- 5692&#45;&gt;52431 -->
<g id="edge32" class="edge">
<title>5692&#45;&gt;52431</title>
<path fill="none" stroke="#000000" d="M560.5707,-111.9386C590.4583,-122.5531 640.7965,-140.4304 675.2596,-152.6698"/>
<polygon fill="#000000" stroke="#000000" points="674.3716,-156.0686 684.9664,-156.1172 676.7143,-149.4723 674.3716,-156.0686"/>
</g>
<!-- 262230 -->
<g id="node46" class="node">
<title>262230</title>
<ellipse fill="none" stroke="#000000" cx="735.3896" cy="-219.4138" rx="37.0935" ry="18"/>
<text text-anchor="middle" x="735.3896" y="-215.7138" font-family="Times,serif" font-size="14.00" fill="#000000">262230</text>
</g>
<!-- 5692&#45;&gt;262230 -->
<g id="edge33" class="edge">
<title>5692&#45;&gt;262230</title>
<path fill="none" stroke="#000000" d="M556.6172,-115.3062C591.4494,-135.5907 661.4195,-176.3375 702.7385,-200.3995"/>
<polygon fill="#000000" stroke="#000000" points="701.1913,-203.5487 711.5942,-205.5566 704.714,-197.4997 701.1913,-203.5487"/>
</g>
<!-- 264608 -->
<g id="node47" class="node">
<title>264608</title>
<ellipse fill="none" stroke="#000000" cx="747.1198" cy="-276.4939" rx="37.0935" ry="18"/>
<text text-anchor="middle" x="747.1198" y="-272.7939" font-family="Times,serif" font-size="14.00" fill="#000000">264608</text>
</g>
<!-- 5692&#45;&gt;264608 -->
<g id="edge34" class="edge">
<title>5692&#45;&gt;264608</title>
<path fill="none" stroke="#000000" d="M553.2844,-117.5631C590.3133,-147.9241 676.2501,-218.3859 720.1929,-254.4158"/>
<polygon fill="#000000" stroke="#000000" points="718.1893,-257.2991 728.1415,-260.933 722.6277,-251.886 718.1893,-257.2991"/>
</g>
<!-- 6453&#45;&gt;2828 -->
<g id="edge35" class="edge">
<title>6453&#45;&gt;2828</title>
<path fill="none" stroke="#000000" d="M550.2433,-569.6391C599.018,-528.2974 736.8664,-411.4563 793.7379,-363.2517"/>
<polygon fill="#000000" stroke="#000000" points="796.1556,-365.7906 801.521,-356.6547 791.6295,-360.4507 796.1556,-365.7906"/>
</g>
<!-- 6453&#45;&gt;3257 -->
<g id="edge36" class="edge">
<title>6453&#45;&gt;3257</title>
<path fill="none" stroke="#000000" d="M528.6862,-602.3053C526.5601,-611.5734 523.9144,-623.106 521.525,-633.5219"/>
<polygon fill="#000000" stroke="#000000" points="518.0743,-632.9108 519.2496,-643.4403 524.8971,-634.4761 518.0743,-632.9108"/>
</g>
<!-- 6762&#45;&gt;2914 -->
<g id="edge37" class="edge">
<title>6762&#45;&gt;2914</title>
<path fill="none" stroke="#000000" d="M501.339,-462.9833C503.2188,-470.2438 505.4331,-478.7956 507.5142,-486.8334"/>
<polygon fill="#000000" stroke="#000000" points="504.149,-487.8002 510.0439,-496.6037 510.9256,-486.0456 504.149,-487.8002"/>
</g>
<!-- 6904 -->
<g id="node25" class="node">
<title>6904</title>
<ellipse fill="none" stroke="#000000" cx="249.019" cy="-349.1108" rx="28.6953" ry="18"/>
<text text-anchor="middle" x="249.019" y="-345.4108" font-family="Times,serif" font-size="14.00" fill="#000000">6904</text>
</g>
<!-- 6904&#45;&gt;2687 -->
<g id="edge38" class="edge">
<title>6904&#45;&gt;2687</title>
<path fill="none" stroke="#000000" d="M221.5498,-354.7559C219.7948,-355.1166 218.0128,-355.4828 216.2222,-355.8508"/>
<polygon fill="#000000" stroke="#000000" points="215.0938,-352.5094 206.0031,-357.9508 216.503,-359.3661 215.0938,-352.5094"/>
</g>
<!-- 7016 -->
<g id="node26" class="node">
<title>7016</title>
<ellipse fill="none" stroke="#000000" cx="249.019" cy="-262.1499" rx="28.6953" ry="18"/>
<text text-anchor="middle" x="249.019" y="-258.4499" font-family="Times,serif" font-size="14.00" fill="#000000">7016</text>
</g>
<!-- 7922 -->
<g id="node29" class="node">
<title>7922</title>
<ellipse fill="none" stroke="#000000" cx="178.4928" cy="-247.6564" rx="28.6953" ry="18"/>
<text text-anchor="middle" x="178.4928" y="-243.9564" font-family="Times,serif" font-size="14.00" fill="#000000">7922</text>
</g>
<!-- 7016&#45;&gt;7922 -->
<g id="edge39" class="edge">
<title>7016&#45;&gt;7922</title>
<path fill="none" stroke="#000000" d="M221.5498,-256.5048C219.7948,-256.1442 218.0128,-255.7779 216.2222,-255.41"/>
<polygon fill="#000000" stroke="#000000" points="216.503,-251.8946 206.0031,-253.3099 215.0938,-258.7513 216.503,-251.8946"/>
</g>
<!-- 7473 -->
<g id="node28" class="node">
<title>7473</title>
<ellipse fill="none" stroke="#000000" cx="28.5975" cy="-305.6304" rx="28.6953" ry="18"/>
<text text-anchor="middle" x="28.5975" y="-301.9304" font-family="Times,serif" font-size="14.00" fill="#000000">7473</text>
</g>
<!-- 9505&#45;&gt;7473 -->
<g id="edge40" class="edge">
<title>9505&#45;&gt;7473</title>
<path fill="none" stroke="#000000" d="M71.7272,-305.6304C70.4068,-305.6304 69.073,-305.6304 67.7335,-305.6304"/>
<polygon fill="#000000" stroke="#000000" points="67.4743,-302.1305 57.4742,-305.6304 67.4742,-309.1305 67.4743,-302.1305"/>
</g>
<!-- 12956 -->
<g id="node33" class="node">
<title>12956</title>
<ellipse fill="none" stroke="#000000" cx="478.6444" cy="-235.9288" rx="32.4942" ry="18"/>
<text text-anchor="middle" x="478.6444" y="-232.2288" font-family="Times,serif" font-size="14.00" fill="#000000">12956</text>
</g>
<!-- 10834&#45;&gt;12956 -->
<g id="edge41" class="edge">
<title>10834&#45;&gt;12956</title>
<path fill="none" stroke="#000000" d="M492.0439,-184.1771C490.164,-191.4376 487.9498,-199.9894 485.8687,-208.0271"/>
<polygon fill="#000000" stroke="#000000" points="482.4573,-207.2394 483.339,-217.7975 489.2338,-208.994 482.4573,-207.2394"/>
</g>
<!-- 22927 -->
<g id="node35" class="node">
<title>22927</title>
<ellipse fill="none" stroke="#000000" cx="283.3126" cy="-182.2364" rx="32.4942" ry="18"/>
<text text-anchor="middle" x="283.3126" y="-178.5364" font-family="Times,serif" font-size="14.00" fill="#000000">22927</text>
</g>
<!-- 10834&#45;&gt;22927 -->
<g id="edge42" class="edge">
<title>10834&#45;&gt;22927</title>
<path fill="none" stroke="#000000" d="M464.2838,-168.6587C427.2825,-171.4348 366.6171,-175.9863 325.8422,-179.0455"/>
<polygon fill="#000000" stroke="#000000" points="325.385,-175.5699 315.6749,-179.8084 325.9088,-182.5503 325.385,-175.5699"/>
</g>
<!-- 12956&#45;&gt;3356 -->
<g id="edge43" class="edge">
<title>12956&#45;&gt;3356</title>
<path fill="none" stroke="#000000" d="M473.9969,-253.8787C472.117,-261.1392 469.9028,-269.6909 467.8217,-277.7287"/>
<polygon fill="#000000" stroke="#000000" points="464.4103,-276.941 465.292,-287.499 471.1869,-278.6956 464.4103,-276.941"/>
</g>
<!-- 18540 -->
<g id="node34" class="node">
<title>18540</title>
<ellipse fill="none" stroke="#000000" cx="262.1026" cy="-220.4495" rx="32.4942" ry="18"/>
<text text-anchor="middle" x="262.1026" y="-216.7495" font-family="Times,serif" font-size="14.00" fill="#000000">18540</text>
</g>
<!-- 30070&#45;&gt;6904 -->
<g id="edge44" class="edge">
<title>30070&#45;&gt;6904</title>
<path fill="none" stroke="#000000" d="M295.2152,-319.3878C289.6034,-322.9985 283.4614,-326.9503 277.5406,-330.7598"/>
<polygon fill="#000000" stroke="#000000" points="275.6277,-327.8287 269.1118,-336.183 279.4153,-333.7155 275.6277,-327.8287"/>
</g>
<!-- 30070&#45;&gt;7016 -->
<g id="edge45" class="edge">
<title>30070&#45;&gt;7016</title>
<path fill="none" stroke="#000000" d="M295.2152,-291.8729C289.6034,-288.2622 283.4614,-284.3104 277.5406,-280.5009"/>
<polygon fill="#000000" stroke="#000000" points="279.4153,-277.5452 269.1118,-275.0777 275.6277,-283.432 279.4153,-277.5452"/>
</g>
<!-- 30070&#45;&gt;18540 -->
<g id="edge46" class="edge">
<title>30070&#45;&gt;18540</title>
<path fill="none" stroke="#000000" d="M305.5696,-288.3927C297.8139,-276.2697 287.3016,-259.838 278.5578,-246.1706"/>
<polygon fill="#000000" stroke="#000000" points="281.4514,-244.1989 273.114,-237.6615 275.5549,-247.9713 281.4514,-244.1989"/>
</g>
</g>
</svg>
