<?xml version="1.0" encoding="UTF-8" standalone="no"?>
<!DOCTYPE svg PUBLIC "-//W3C//DTD SVG 1.1//EN"
 "http://www.w3.org/Graphics/SVG/1.1/DTD/svg11.dtd">
<!-- Generated by graphviz version 2.40.1 (20161225.0304)
 -->
<!-- Title: %3 Pages: 1 -->
<svg width="852pt" height="829pt"
 viewBox="0.00 0.00 851.96 828.67" xmlns="http://www.w3.org/2000/svg" xmlns:xlink="http://www.w3.org/1999/xlink">
<g id="graph0" class="graph" transform="scale(1 1) rotate(0) translate(4 824.6734)">
<title>%3</title>
<polygon fill="#ffffff" stroke="transparent" points="-4,4 -4,-824.6734 847.9614,-824.6734 847.9614,4 -4,4"/>
<!-- 174 -->
<g id="node1" class="node">
<title>174</title>
<ellipse fill="none" stroke="#000000" cx="673.4419" cy="-107.5066" rx="27" ry="18"/>
<text text-anchor="middle" x="673.4419" y="-103.8066" font-family="Times,serif" font-size="14.00" fill="#000000">174</text>
</g>
<!-- 209 -->
<g id="node2" class="node">
<title>209</title>
<ellipse fill="none" stroke="#000000" cx="816.9614" cy="-149.3239" rx="27" ry="18"/>
<text text-anchor="middle" x="816.9614" y="-145.6239" font-family="Times,serif" font-size="14.00" fill="#000000">209</text>
</g>
<!-- 701 -->
<g id="node3" class="node">
<title>701</title>
<ellipse fill="none" stroke="#000000" cx="736.5809" cy="-81.7392" rx="27" ry="18"/>
<text text-anchor="middle" x="736.5809" y="-78.0392" font-family="Times,serif" font-size="14.00" fill="#000000">701</text>
</g>
<!-- 1239 -->
<g id="node4" class="node">
<title>1239</title>
<ellipse fill="none" stroke="#000000" cx="742.1879" cy="-250.7557" rx="28.6953" ry="18"/>
<text text-anchor="middle" x="742.1879" y="-247.0557" font-family="Times,serif" font-size="14.00" fill="#000000">1239</text>
</g>
<!-- 1273 -->
<g id="node5" class="node">
<title>1273</title>
<ellipse fill="none" stroke="#000000" cx="792.6359" cy="-121.1765" rx="28.6953" ry="18"/>
<text text-anchor="middle" x="792.6359" y="-117.4765" font-family="Times,serif" font-size="14.00" fill="#000000">1273</text>
</g>
<!-- 1299 -->
<g id="node6" class="node">
<title>1299</title>
<ellipse fill="none" stroke="#000000" cx="680.2207" cy="-148.9024" rx="28.6953" ry="18"/>
<text text-anchor="middle" x="680.2207" y="-145.2024" font-family="Times,serif" font-size="14.00" fill="#000000">1299</text>
</g>
<!-- 2497 -->
<g id="node7" class="node">
<title>2497</title>
<ellipse fill="none" stroke="#000000" cx="700.5036" cy="-81.0484" rx="28.6953" ry="18"/>
<text text-anchor="middle" x="700.5036" y="-77.3484" font-family="Times,serif" font-size="14.00" fill="#000000">2497</text>
</g>
<!-- 2516 -->
<g id="node8" class="node">
<title>2516</title>
<ellipse fill="none" stroke="#000000" cx="134.3702" cy="-133.4646" rx="28.6953" ry="18"/>
<text text-anchor="middle" x="134.3702" y="-129.7646" font-family="Times,serif" font-size="14.00" fill="#000000">2516</text>
</g>
<!-- 32787 -->
<g id="node39" class="node">
<title>32787</title>
<ellipse fill="none" stroke="#000000" cx="71.4849" cy="-81.8555" rx="32.4942" ry="18"/>
<text text-anchor="middle" x="71.4849" y="-78.1555" font-family="Times,serif" font-size="14.00" fill="#000000">32787</text>
</g>
<!-- 2516&#45;&gt;32787 -->
<g id="edge1" class="edge">
<title>2516&#45;&gt;32787</title>
<path fill="none" stroke="#000000" d="M116.8531,-119.0886C110.9248,-114.2233 104.1688,-108.6787 97.7143,-103.3816"/>
<polygon fill="#000000" stroke="#000000" points="99.7353,-100.5124 89.7848,-96.874 95.2945,-105.9235 99.7353,-100.5124"/>
</g>
<!-- 2686 -->
<g id="node9" class="node">
<title>2686</title>
<ellipse fill="none" stroke="#000000" cx="111.8961" cy="-213.3478" rx="28.6953" ry="18"/>
<text text-anchor="middle" x="111.8961" y="-209.6478" font-family="Times,serif" font-size="14.00" fill="#000000">2686</text>
</g>
<!-- 3741 -->
<g id="node19" class="node">
<title>3741</title>
<ellipse fill="none" stroke="#000000" cx="28.5975" cy="-214.3208" rx="28.6953" ry="18"/>
<text text-anchor="middle" x="28.5975" y="-210.6208" font-family="Times,serif" font-size="14.00" fill="#000000">3741</text>
</g>
<!-- 2686&#45;&gt;3741 -->
<g id="edge2" class="edge">
<title>2686&#45;&gt;3741</title>
<path fill="none" stroke="#000000" d="M83.2294,-213.6827C78.1248,-213.7423 72.731,-213.8053 67.3997,-213.8676"/>
<polygon fill="#000000" stroke="#000000" points="67.2754,-210.3687 57.317,-213.9853 67.3572,-217.3682 67.2754,-210.3687"/>
</g>
<!-- 2687 -->
<g id="node10" class="node">
<title>2687</title>
<ellipse fill="none" stroke="#000000" cx="195.3257" cy="-181.9319" rx="28.6953" ry="18"/>
<text text-anchor="middle" x="195.3257" y="-178.2319" font-family="Times,serif" font-size="14.00" fill="#000000">2687</text>
</g>
<!-- 2687&#45;&gt;2516 -->
<g id="edge3" class="edge">
<title>2687&#45;&gt;2516</title>
<path fill="none" stroke="#000000" d="M177.3667,-167.6522C172.0815,-163.4498 166.1883,-158.764 160.5013,-154.2421"/>
<polygon fill="#000000" stroke="#000000" points="162.417,-151.2938 152.4114,-147.8096 158.0604,-156.7729 162.417,-151.2938"/>
</g>
<!-- 2687&#45;&gt;2686 -->
<g id="edge4" class="edge">
<title>2687&#45;&gt;2686</title>
<path fill="none" stroke="#000000" d="M170.7453,-191.1878C163.0067,-194.1018 154.3159,-197.3744 146.037,-200.4919"/>
<polygon fill="#000000" stroke="#000000" points="144.7142,-197.25 136.5891,-204.0495 147.181,-203.8009 144.7142,-197.25"/>
</g>
<!-- 9505 -->
<g id="node30" class="node">
<title>9505</title>
<ellipse fill="none" stroke="#000000" cx="210.481" cy="-97.803" rx="28.6953" ry="18"/>
<text text-anchor="middle" x="210.481" y="-94.103" font-family="Times,serif" font-size="14.00" fill="#000000">9505</text>
</g>
<!-- 2687&#45;&gt;9505 -->
<g id="edge5" class="edge">
<title>2687&#45;&gt;9505</title>
<path fill="none" stroke="#000000" d="M198.6142,-163.6772C200.6138,-152.5773 203.2075,-138.1792 205.4598,-125.676"/>
<polygon fill="#000000" stroke="#000000" points="208.9226,-126.1952 207.251,-115.733 202.0335,-124.9541 208.9226,-126.1952"/>
</g>
<!-- 2828 -->
<g id="node11" class="node">
<title>2828</title>
<ellipse fill="none" stroke="#000000" cx="580.4891" cy="-143.7444" rx="28.6953" ry="18"/>
<text text-anchor="middle" x="580.4891" y="-140.0444" font-family="Times,serif" font-size="14.00" fill="#000000">2828</text>
</g>
<!-- 2914 -->
<g id="node12" class="node">
<title>2914</title>
<ellipse fill="none" stroke="#000000" cx="568.4288" cy="-264.7618" rx="28.6953" ry="18"/>
<text text-anchor="middle" x="568.4288" y="-261.0618" font-family="Times,serif" font-size="14.00" fill="#000000">2914</text>
</g>
<!-- 6453 -->
<g id="node22" class="node">
<title>6453</title>
<ellipse fill="none" stroke="#000000" cx="636.0629" cy="-208.7669" rx="28.6953" ry="18"/>
<text text-anchor="middle" x="636.0629" y="-205.0669" font-family="Times,serif" font-size="14.00" fill="#000000">6453</text>
</g>
<!-- 2914&#45;&gt;6453 -->
<g id="edge6" class="edge">
<title>2914&#45;&gt;6453</title>
<path fill="none" stroke="#000000" d="M585.8463,-250.3417C593.3611,-244.1201 602.3015,-236.7183 610.5416,-229.8962"/>
<polygon fill="#000000" stroke="#000000" points="612.9987,-232.4058 618.4694,-223.3327 608.5347,-227.0139 612.9987,-232.4058"/>
</g>
<!-- 3257 -->
<g id="node13" class="node">
<title>3257</title>
<ellipse fill="none" stroke="#000000" cx="732.4014" cy="-168.8135" rx="28.6953" ry="18"/>
<text text-anchor="middle" x="732.4014" y="-165.1135" font-family="Times,serif" font-size="14.00" fill="#000000">3257</text>
</g>
<!-- 3257&#45;&gt;174 -->
<g id="edge7" class="edge">
<title>3257&#45;&gt;174</title>
<path fill="none" stroke="#000000" d="M717.5234,-153.3432C710.7689,-146.3197 702.6461,-137.8736 695.2235,-130.1554"/>
<polygon fill="#000000" stroke="#000000" points="697.5653,-127.5412 688.1109,-122.7596 692.5199,-132.3935 697.5653,-127.5412"/>
</g>
<!-- 3257&#45;&gt;209 -->
<g id="edge8" class="edge">
<title>3257&#45;&gt;209</title>
<path fill="none" stroke="#000000" d="M759.6221,-162.5396C766.5134,-160.9513 774.0187,-159.2214 781.26,-157.5525"/>
<polygon fill="#000000" stroke="#000000" points="782.2716,-160.9111 791.23,-155.2545 780.6994,-154.09 782.2716,-160.9111"/>
</g>
<!-- 3257&#45;&gt;701 -->
<g id="edge9" class="edge">
<title>3257&#45;&gt;701</title>
<path fill="none" stroke="#000000" d="M733.2674,-150.7716C733.8334,-138.9798 734.5843,-123.3354 735.2282,-109.9213"/>
<polygon fill="#000000" stroke="#000000" points="738.7324,-109.9143 735.716,-99.758 731.7405,-109.5786 738.7324,-109.9143"/>
</g>
<!-- 3257&#45;&gt;1239 -->
<g id="edge10" class="edge">
<title>3257&#45;&gt;1239</title>
<path fill="none" stroke="#000000" d="M734.5733,-186.9991C735.815,-197.3957 737.3995,-210.6625 738.8012,-222.3989"/>
<polygon fill="#000000" stroke="#000000" points="735.3607,-223.1066 740.022,-232.6209 742.3114,-222.2764 735.3607,-223.1066"/>
</g>
<!-- 3257&#45;&gt;1273 -->
<g id="edge11" class="edge">
<title>3257&#45;&gt;1273</title>
<path fill="none" stroke="#000000" d="M750.4737,-154.5208C755.4768,-150.5641 761.0108,-146.1875 766.3785,-141.9424"/>
<polygon fill="#000000" stroke="#000000" points="768.9039,-144.4075 774.5763,-135.4591 764.5617,-138.917 768.9039,-144.4075"/>
</g>
<!-- 3257&#45;&gt;1299 -->
<g id="edge12" class="edge">
<title>3257&#45;&gt;1299</title>
<path fill="none" stroke="#000000" d="M707.839,-159.441C707.72,-159.3956 707.601,-159.3502 707.482,-159.3048"/>
<polygon fill="#000000" stroke="#000000" points="715.5719,-158.6457 704.9811,-158.3505 713.0762,-165.1858 715.5719,-158.6457"/>
</g>
<!-- 3257&#45;&gt;2497 -->
<g id="edge13" class="edge">
<title>3257&#45;&gt;2497</title>
<path fill="none" stroke="#000000" d="M725.9464,-151.0529C721.4931,-138.8001 715.4873,-122.2752 710.429,-108.3576"/>
<polygon fill="#000000" stroke="#000000" points="713.6544,-106.9855 706.949,-98.7826 707.0754,-109.3767 713.6544,-106.9855"/>
</g>
<!-- 3320 -->
<g id="node14" class="node">
<title>3320</title>
<ellipse fill="none" stroke="#000000" cx="813.0867" cy="-186.6008" rx="28.6953" ry="18"/>
<text text-anchor="middle" x="813.0867" y="-182.9008" font-family="Times,serif" font-size="14.00" fill="#000000">3320</text>
</g>
<!-- 3257&#45;&gt;3320 -->
<g id="edge14" class="edge">
<title>3257&#45;&gt;3320</title>
<path fill="none" stroke="#000000" d="M759.7178,-174.8354C765.0324,-176.0071 770.685,-177.2532 776.248,-178.4796"/>
<polygon fill="#000000" stroke="#000000" points="775.5534,-181.9104 786.0724,-180.6454 777.0604,-175.0745 775.5534,-181.9104"/>
</g>
<!-- 3491 -->
<g id="node16" class="node">
<title>3491</title>
<ellipse fill="none" stroke="#000000" cx="772.6468" cy="-90.212" rx="28.6953" ry="18"/>
<text text-anchor="middle" x="772.6468" y="-86.512" font-family="Times,serif" font-size="14.00" fill="#000000">3491</text>
</g>
<!-- 3257&#45;&gt;3491 -->
<g id="edge15" class="edge">
<title>3257&#45;&gt;3491</title>
<path fill="none" stroke="#000000" d="M741.3331,-151.3693C746.5436,-141.193 753.2218,-128.1501 759.0715,-116.7253"/>
<polygon fill="#000000" stroke="#000000" points="762.2978,-118.1037 763.74,-107.6075 756.067,-114.9134 762.2978,-118.1037"/>
</g>
<!-- 5511 -->
<g id="node20" class="node">
<title>5511</title>
<ellipse fill="none" stroke="#000000" cx="710.4664" cy="-225.4402" rx="28.6953" ry="18"/>
<text text-anchor="middle" x="710.4664" y="-221.7402" font-family="Times,serif" font-size="14.00" fill="#000000">5511</text>
</g>
<!-- 3257&#45;&gt;5511 -->
<g id="edge16" class="edge">
<title>3257&#45;&gt;5511</title>
<path fill="none" stroke="#000000" d="M725.5812,-186.4201C724.1507,-190.1132 722.6097,-194.0913 721.078,-198.0455"/>
<polygon fill="#000000" stroke="#000000" points="717.7063,-197.0603 717.3578,-207.6494 724.2337,-199.5888 717.7063,-197.0603"/>
</g>
<!-- 6461 -->
<g id="node23" class="node">
<title>6461</title>
<ellipse fill="none" stroke="#000000" cx="778.6644" cy="-245.7274" rx="28.6953" ry="18"/>
<text text-anchor="middle" x="778.6644" y="-242.0274" font-family="Times,serif" font-size="14.00" fill="#000000">6461</text>
</g>
<!-- 3257&#45;&gt;6461 -->
<g id="edge17" class="edge">
<title>3257&#45;&gt;6461</title>
<path fill="none" stroke="#000000" d="M742.6686,-185.8832C748.718,-195.9405 756.4886,-208.8594 763.2607,-220.1183"/>
<polygon fill="#000000" stroke="#000000" points="760.2722,-221.9402 768.4258,-228.7054 766.2707,-218.3321 760.2722,-221.9402"/>
</g>
<!-- 7018 -->
<g id="node27" class="node">
<title>7018</title>
<ellipse fill="none" stroke="#000000" cx="805.5983" cy="-221.3882" rx="28.6953" ry="18"/>
<text text-anchor="middle" x="805.5983" y="-217.6882" font-family="Times,serif" font-size="14.00" fill="#000000">7018</text>
</g>
<!-- 3257&#45;&gt;7018 -->
<g id="edge18" class="edge">
<title>3257&#45;&gt;7018</title>
<path fill="none" stroke="#000000" d="M751.2514,-182.3528C759.469,-188.2552 769.2618,-195.289 778.2563,-201.7494"/>
<polygon fill="#000000" stroke="#000000" points="776.3939,-204.721 786.5578,-207.712 780.4776,-199.0355 776.3939,-204.721"/>
</g>
<!-- 3356 -->
<g id="node15" class="node">
<title>3356</title>
<ellipse fill="none" stroke="#000000" cx="418.7595" cy="-441.7594" rx="28.6953" ry="18"/>
<text text-anchor="middle" x="418.7595" y="-438.0594" font-family="Times,serif" font-size="14.00" fill="#000000">3356</text>
</g>
<!-- 3549 -->
<g id="node17" class="node">
<title>3549</title>
<ellipse fill="none" stroke="#000000" cx="414.7554" cy="-348.8723" rx="28.6953" ry="18"/>
<text text-anchor="middle" x="414.7554" y="-345.1723" font-family="Times,serif" font-size="14.00" fill="#000000">3549</text>
</g>
<!-- 3356&#45;&gt;3549 -->
<g id="edge19" class="edge">
<title>3356&#45;&gt;3549</title>
<path fill="none" stroke="#000000" d="M417.9684,-423.4079C417.3999,-410.2189 416.6226,-392.1887 415.975,-377.1653"/>
<polygon fill="#000000" stroke="#000000" points="419.4587,-376.7096 415.5312,-366.8696 412.4652,-377.0111 419.4587,-376.7096"/>
</g>
<!-- 6762 -->
<g id="node24" class="node">
<title>6762</title>
<ellipse fill="none" stroke="#000000" cx="493.1944" cy="-306.1907" rx="28.6953" ry="18"/>
<text text-anchor="middle" x="493.1944" y="-302.4907" font-family="Times,serif" font-size="14.00" fill="#000000">6762</text>
</g>
<!-- 3549&#45;&gt;6762 -->
<g id="edge20" class="edge">
<title>3549&#45;&gt;6762</title>
<path fill="none" stroke="#000000" d="M436.605,-336.9831C444.5946,-332.6357 453.7894,-327.6324 462.4129,-322.9401"/>
<polygon fill="#000000" stroke="#000000" points="464.351,-325.8701 471.4619,-318.0161 461.0052,-319.7215 464.351,-325.8701"/>
</g>
<!-- 30070 -->
<g id="node38" class="node">
<title>30070</title>
<ellipse fill="none" stroke="#000000" cx="334.1527" cy="-294.4683" rx="32.4942" ry="18"/>
<text text-anchor="middle" x="334.1527" y="-290.7683" font-family="Times,serif" font-size="14.00" fill="#000000">30070</text>
</g>
<!-- 3549&#45;&gt;30070 -->
<g id="edge21" class="edge">
<title>3549&#45;&gt;30070</title>
<path fill="none" stroke="#000000" d="M395.2438,-335.7026C385.7072,-329.2657 374.0318,-321.3853 363.452,-314.2443"/>
<polygon fill="#000000" stroke="#000000" points="365.1403,-311.1612 354.8936,-308.4676 361.2241,-316.9632 365.1403,-311.1612"/>
</g>
<!-- 3597 -->
<g id="node18" class="node">
<title>3597</title>
<ellipse fill="none" stroke="#000000" cx="314.9768" cy="-767.5295" rx="28.6953" ry="18"/>
<text text-anchor="middle" x="314.9768" y="-763.8295" font-family="Times,serif" font-size="14.00" fill="#000000">3597</text>
</g>
<!-- 5692 -->
<g id="node21" class="node">
<title>5692</title>
<ellipse fill="none" stroke="#000000" cx="393.7372" cy="-716.4888" rx="28.6953" ry="18"/>
<text text-anchor="middle" x="393.7372" y="-712.7888" font-family="Times,serif" font-size="14.00" fill="#000000">5692</text>
</g>
<!-- 5692&#45;&gt;3597 -->
<g id="edge22" class="edge">
<title>5692&#45;&gt;3597</title>
<path fill="none" stroke="#000000" d="M373.4544,-729.6331C364.2889,-735.5728 353.3023,-742.6927 343.3389,-749.1495"/>
<polygon fill="#000000" stroke="#000000" points="341.4067,-746.2309 334.9182,-754.6065 345.2135,-752.1053 341.4067,-746.2309"/>
</g>
<!-- 10834 -->
<g id="node31" class="node">
<title>10834</title>
<ellipse fill="none" stroke="#000000" cx="424.1249" cy="-617.4016" rx="32.4942" ry="18"/>
<text text-anchor="middle" x="424.1249" y="-613.7016" font-family="Times,serif" font-size="14.00" fill="#000000">10834</text>
</g>
<!-- 5692&#45;&gt;10834 -->
<g id="edge23" class="edge">
<title>5692&#45;&gt;10834</title>
<path fill="none" stroke="#000000" d="M399.1699,-698.774C403.7221,-683.9303 410.3015,-662.4763 415.5618,-645.3237"/>
<polygon fill="#000000" stroke="#000000" points="419.0509,-645.8839 418.6367,-635.2972 412.3585,-643.8315 419.0509,-645.8839"/>
</g>
<!-- 11008 -->
<g id="node32" class="node">
<title>11008</title>
<ellipse fill="none" stroke="#000000" cx="449.404" cy="-719.2081" rx="32.4942" ry="18"/>
<text text-anchor="middle" x="449.404" y="-715.5081" font-family="Times,serif" font-size="14.00" fill="#000000">11008</text>
</g>
<!-- 5692&#45;&gt;11008 -->
<g id="edge24" class="edge">
<title>5692&#45;&gt;11008</title>
<path fill="none" stroke="#000000" d="M422.5489,-717.8963C422.602,-717.8989 422.655,-717.9015 422.7081,-717.904"/>
<polygon fill="#000000" stroke="#000000" points="412.7062,-720.9138 422.8672,-717.9118 413.052,-713.9221 412.7062,-720.9138"/>
</g>
<!-- 27865 -->
<g id="node36" class="node">
<title>27865</title>
<ellipse fill="none" stroke="#000000" cx="372.385" cy="-663.4462" rx="32.4942" ry="18"/>
<text text-anchor="middle" x="372.385" y="-659.7462" font-family="Times,serif" font-size="14.00" fill="#000000">27865</text>
</g>
<!-- 5692&#45;&gt;27865 -->
<g id="edge25" class="edge">
<title>5692&#45;&gt;27865</title>
<path fill="none" stroke="#000000" d="M386.6272,-698.8264C385.5581,-696.1706 384.4351,-693.3809 383.3085,-690.582"/>
<polygon fill="#000000" stroke="#000000" points="386.5179,-689.182 379.5367,-681.2124 380.0243,-691.796 386.5179,-689.182"/>
</g>
<!-- 28065 -->
<g id="node37" class="node">
<title>28065</title>
<ellipse fill="none" stroke="#000000" cx="422.1505" cy="-793.2099" rx="32.4942" ry="18"/>
<text text-anchor="middle" x="422.1505" y="-789.5099" font-family="Times,serif" font-size="14.00" fill="#000000">28065</text>
</g>
<!-- 5692&#45;&gt;28065 -->
<g id="edge26" class="edge">
<title>5692&#45;&gt;28065</title>
<path fill="none" stroke="#000000" d="M400.3272,-734.283C403.8057,-743.6757 408.1492,-755.404 412.0433,-765.9187"/>
<polygon fill="#000000" stroke="#000000" points="408.8411,-767.3502 415.5962,-775.5122 415.4054,-764.9191 408.8411,-767.3502"/>
</g>
<!-- 52317 -->
<g id="node40" class="node">
<title>52317</title>
<ellipse fill="none" stroke="#000000" cx="299.6181" cy="-701.3129" rx="32.4942" ry="18"/>
<text text-anchor="middle" x="299.6181" y="-697.6129" font-family="Times,serif" font-size="14.00" fill="#000000">52317</text>
</g>
<!-- 5692&#45;&gt;52317 -->
<g id="edge27" class="edge">
<title>5692&#45;&gt;52317</title>
<path fill="none" stroke="#000000" d="M366.0074,-712.0176C358.2203,-710.762 349.5785,-709.3686 341.1741,-708.0135"/>
<polygon fill="#000000" stroke="#000000" points="341.5434,-704.5279 331.1138,-706.3913 340.4291,-711.4386 341.5434,-704.5279"/>
</g>
<!-- 52375 -->
<g id="node41" class="node">
<title>52375</title>
<ellipse fill="none" stroke="#000000" cx="385.6038" cy="-802.6734" rx="32.4942" ry="18"/>
<text text-anchor="middle" x="385.6038" y="-798.9734" font-family="Times,serif" font-size="14.00" fill="#000000">52375</text>
</g>
<!-- 5692&#45;&gt;52375 -->
<g id="edge28" class="edge">
<title>5692&#45;&gt;52375</title>
<path fill="none" stroke="#000000" d="M392.0123,-734.7664C390.9339,-746.1928 389.5224,-761.1503 388.2986,-774.1183"/>
<polygon fill="#000000" stroke="#000000" points="384.7813,-774.1376 387.3262,-784.4222 391.7503,-774.7953 384.7813,-774.1376"/>
</g>
<!-- 52376 -->
<g id="node42" class="node">
<title>52376</title>
<ellipse fill="none" stroke="#000000" cx="351.3491" cy="-785.8511" rx="32.4942" ry="18"/>
<text text-anchor="middle" x="351.3491" y="-782.1511" font-family="Times,serif" font-size="14.00" fill="#000000">52376</text>
</g>
<!-- 5692&#45;&gt;52376 -->
<g id="edge29" class="edge">
<title>5692&#45;&gt;52376</title>
<path fill="none" stroke="#000000" d="M383.2592,-733.6346C378.4556,-741.4951 372.6552,-750.9865 367.3246,-759.7094"/>
<polygon fill="#000000" stroke="#000000" points="364.229,-758.0629 362.0009,-768.4208 370.202,-761.7131 364.229,-758.0629"/>
</g>
<!-- 52380 -->
<g id="node43" class="node">
<title>52380</title>
<ellipse fill="none" stroke="#000000" cx="320.1847" cy="-731.3093" rx="32.4942" ry="18"/>
<text text-anchor="middle" x="320.1847" y="-727.6093" font-family="Times,serif" font-size="14.00" fill="#000000">52380</text>
</g>
<!-- 5692&#45;&gt;52380 -->
<g id="edge30" class="edge">
<title>5692&#45;&gt;52380</title>
<path fill="none" stroke="#000000" d="M366.3489,-722.0074C364.608,-722.3582 362.8369,-722.7151 361.0529,-723.0746"/>
<polygon fill="#000000" stroke="#000000" points="359.9233,-719.7317 350.8117,-725.1381 361.306,-726.5938 359.9233,-719.7317"/>
</g>
<!-- 52413 -->
<g id="node44" class="node">
<title>52413</title>
<ellipse fill="none" stroke="#000000" cx="458.3428" cy="-782.3302" rx="32.4942" ry="18"/>
<text text-anchor="middle" x="458.3428" y="-778.6302" font-family="Times,serif" font-size="14.00" fill="#000000">52413</text>
</g>
<!-- 5692&#45;&gt;52413 -->
<g id="edge31" class="edge">
<title>5692&#45;&gt;52413</title>
<path fill="none" stroke="#000000" d="M409.0478,-732.0923C416.977,-740.1732 426.8158,-750.2002 435.6132,-759.1658"/>
<polygon fill="#000000" stroke="#000000" points="433.1913,-761.6949 442.6933,-766.3814 438.1877,-756.7923 433.1913,-761.6949"/>
</g>
<!-- 52431 -->
<g id="node45" class="node">
<title>52431</title>
<ellipse fill="none" stroke="#000000" cx="484.5602" cy="-748.8204" rx="32.4942" ry="18"/>
<text text-anchor="middle" x="484.5602" y="-745.1204" font-family="Times,serif" font-size="14.00" fill="#000000">52431</text>
</g>
<!-- 5692&#45;&gt;52431 -->
<g id="edge32" class="edge">
<title>5692&#45;&gt;52431</title>
<path fill="none" stroke="#000000" d="M419.0364,-725.495C427.8405,-728.6291 437.9084,-732.2131 447.4672,-735.6159"/>
<polygon fill="#000000" stroke="#000000" points="446.5751,-739.0134 457.1698,-739.0699 448.9227,-732.4188 446.5751,-739.0134"/>
</g>
<!-- 262230 -->
<g id="node46" class="node">
<title>262230</title>
<ellipse fill="none" stroke="#000000" cx="328.2473" cy="-670.8128" rx="37.0935" ry="18"/>
<text text-anchor="middle" x="328.2473" y="-667.1128" font-family="Times,serif" font-size="14.00" fill="#000000">262230</text>
</g>
<!-- 5692&#45;&gt;262230 -->
<g id="edge33" class="edge">
<title>5692&#45;&gt;262230</title>
<path fill="none" stroke="#000000" d="M374.4422,-703.0316C369.2921,-699.4396 363.6046,-695.4728 358.0324,-691.5865"/>
<polygon fill="#000000" stroke="#000000" points="359.6691,-688.4608 349.4647,-685.6109 355.6646,-694.2023 359.6691,-688.4608"/>
</g>
<!-- 264608 -->
<g id="node47" class="node">
<title>264608</title>
<ellipse fill="none" stroke="#000000" cx="475.0838" cy="-696.9594" rx="37.0935" ry="18"/>
<text text-anchor="middle" x="475.0838" y="-693.2594" font-family="Times,serif" font-size="14.00" fill="#000000">264608</text>
</g>
<!-- 5692&#45;&gt;264608 -->
<g id="edge34" class="edge">
<title>5692&#45;&gt;264608</title>
<path fill="none" stroke="#000000" d="M420.8244,-709.9858C424.3601,-709.137 428.0506,-708.251 431.7706,-707.3579"/>
<polygon fill="#000000" stroke="#000000" points="432.6942,-710.7357 441.6008,-704.9979 431.06,-703.9291 432.6942,-710.7357"/>
</g>
<!-- 6453&#45;&gt;2828 -->
<g id="edge35" class="edge">
<title>6453&#45;&gt;2828</title>
<path fill="none" stroke="#000000" d="M622.3256,-192.6939C615.7976,-185.056 607.8657,-175.7756 600.6709,-167.3575"/>
<polygon fill="#000000" stroke="#000000" points="603.2262,-164.9603 594.0684,-159.6325 597.905,-169.5083 603.2262,-164.9603"/>
</g>
<!-- 6453&#45;&gt;3257 -->
<g id="edge36" class="edge">
<title>6453&#45;&gt;3257</title>
<path fill="none" stroke="#000000" d="M660.3732,-198.6849C672.0997,-193.8217 686.3502,-187.9118 699.0706,-182.6364"/>
<polygon fill="#000000" stroke="#000000" points="700.5363,-185.8176 708.4326,-178.7538 697.8547,-179.3516 700.5363,-185.8176"/>
</g>
<!-- 6762&#45;&gt;2914 -->
<g id="edge37" class="edge">
<title>6762&#45;&gt;2914</title>
<path fill="none" stroke="#000000" d="M514.9553,-294.2077C522.1295,-290.2572 530.2454,-285.788 537.9472,-281.5469"/>
<polygon fill="#000000" stroke="#000000" points="539.6454,-284.6074 546.7168,-276.7178 536.2688,-278.4756 539.6454,-284.6074"/>
</g>
<!-- 6904 -->
<g id="node25" class="node">
<title>6904</title>
<ellipse fill="none" stroke="#000000" cx="270.4843" cy="-229.9434" rx="28.6953" ry="18"/>
<text text-anchor="middle" x="270.4843" y="-226.2434" font-family="Times,serif" font-size="14.00" fill="#000000">6904</text>
</g>
<!-- 6904&#45;&gt;2687 -->
<g id="edge38" class="edge">
<title>6904&#45;&gt;2687</title>
<path fill="none" stroke="#000000" d="M250.3432,-217.0772C242.2555,-211.9108 232.7832,-205.8598 223.9996,-200.2489"/>
<polygon fill="#000000" stroke="#000000" points="225.8339,-197.2675 215.5224,-194.8336 222.0655,-203.1666 225.8339,-197.2675"/>
</g>
<!-- 7016 -->
<g id="node26" class="node">
<title>7016</title>
<ellipse fill="none" stroke="#000000" cx="257.3892" cy="-329.9079" rx="28.6953" ry="18"/>
<text text-anchor="middle" x="257.3892" y="-326.2079" font-family="Times,serif" font-size="14.00" fill="#000000">7016</text>
</g>
<!-- 7922 -->
<g id="node29" class="node">
<title>7922</title>
<ellipse fill="none" stroke="#000000" cx="183.1236" cy="-361.7193" rx="28.6953" ry="18"/>
<text text-anchor="middle" x="183.1236" y="-358.0193" font-family="Times,serif" font-size="14.00" fill="#000000">7922</text>
</g>
<!-- 7016&#45;&gt;7922 -->
<g id="edge39" class="edge">
<title>7016&#45;&gt;7922</title>
<path fill="none" stroke="#000000" d="M233.4823,-340.1483C228.0494,-342.4755 222.1821,-344.9887 216.4379,-347.4492"/>
<polygon fill="#000000" stroke="#000000" points="214.7998,-344.3433 206.9857,-351.4981 217.556,-350.7778 214.7998,-344.3433"/>
</g>
<!-- 7473 -->
<g id="node28" class="node">
<title>7473</title>
<ellipse fill="none" stroke="#000000" cx="190.466" cy="-18" rx="28.6953" ry="18"/>
<text text-anchor="middle" x="190.466" y="-14.3" font-family="Times,serif" font-size="14.00" fill="#000000">7473</text>
</g>
<!-- 9505&#45;&gt;7473 -->
<g id="edge40" class="edge">
<title>9505&#45;&gt;7473</title>
<path fill="none" stroke="#000000" d="M205.9393,-79.6944C203.4314,-69.6952 200.263,-57.062 197.4473,-45.8355"/>
<polygon fill="#000000" stroke="#000000" points="200.8174,-44.885 194.9898,-36.0369 194.0277,-46.5879 200.8174,-44.885"/>
</g>
<!-- 12956 -->
<g id="node33" class="node">
<title>12956</title>
<ellipse fill="none" stroke="#000000" cx="417.0968" cy="-528.8997" rx="32.4942" ry="18"/>
<text text-anchor="middle" x="417.0968" y="-525.1997" font-family="Times,serif" font-size="14.00" fill="#000000">12956</text>
</g>
<!-- 10834&#45;&gt;12956 -->
<g id="edge41" class="edge">
<title>10834&#45;&gt;12956</title>
<path fill="none" stroke="#000000" d="M422.6686,-599.064C421.7105,-586.9989 420.4373,-570.9657 419.3498,-557.2715"/>
<polygon fill="#000000" stroke="#000000" points="422.8078,-556.6026 418.5271,-546.9111 415.8298,-557.1568 422.8078,-556.6026"/>
</g>
<!-- 22927 -->
<g id="node35" class="node">
<title>22927</title>
<ellipse fill="none" stroke="#000000" cx="509.2337" cy="-614.3244" rx="32.4942" ry="18"/>
<text text-anchor="middle" x="509.2337" y="-610.6244" font-family="Times,serif" font-size="14.00" fill="#000000">22927</text>
</g>
<!-- 10834&#45;&gt;22927 -->
<g id="edge42" class="edge">
<title>10834&#45;&gt;22927</title>
<path fill="none" stroke="#000000" d="M456.7867,-616.2207C460.0681,-616.102 463.4326,-615.9804 466.7961,-615.8588"/>
<polygon fill="#000000" stroke="#000000" points="466.9327,-619.3562 476.7997,-615.4971 466.6797,-612.3608 466.9327,-619.3562"/>
</g>
<!-- 12956&#45;&gt;3356 -->
<g id="edge43" class="edge">
<title>12956&#45;&gt;3356</title>
<path fill="none" stroke="#000000" d="M417.4413,-510.8442C417.6665,-499.0434 417.9652,-483.3871 418.2213,-469.9629"/>
<polygon fill="#000000" stroke="#000000" points="421.7239,-469.8568 418.4154,-459.7918 414.7252,-469.7231 421.7239,-469.8568"/>
</g>
<!-- 18540 -->
<g id="node34" class="node">
<title>18540</title>
<ellipse fill="none" stroke="#000000" cx="307.4735" cy="-342.2064" rx="32.4942" ry="18"/>
<text text-anchor="middle" x="307.4735" y="-338.5064" font-family="Times,serif" font-size="14.00" fill="#000000">18540</text>
</g>
<!-- 30070&#45;&gt;6904 -->
<g id="edge44" class="edge">
<title>30070&#45;&gt;6904</title>
<path fill="none" stroke="#000000" d="M318.4145,-278.5183C310.6676,-270.6672 301.1949,-261.0671 292.7225,-252.4807"/>
<polygon fill="#000000" stroke="#000000" points="295.1182,-249.9255 285.6031,-245.2656 290.1355,-254.8421 295.1182,-249.9255"/>
</g>
<!-- 30070&#45;&gt;7016 -->
<g id="edge45" class="edge">
<title>30070&#45;&gt;7016</title>
<path fill="none" stroke="#000000" d="M309.0175,-306.0725C302.8481,-308.9208 296.1582,-312.0093 289.7033,-314.9894"/>
<polygon fill="#000000" stroke="#000000" points="288.1142,-311.868 280.5021,-319.2373 291.0483,-318.2234 288.1142,-311.868"/>
</g>
<!-- 30070&#45;&gt;18540 -->
<g id="edge46" class="edge">
<title>30070&#45;&gt;18540</title>
<path fill="none" stroke="#000000" d="M324.5209,-311.7028C323.7746,-313.0382 323.0115,-314.4036 322.242,-315.7806"/>
<polygon fill="#000000" stroke="#000000" points="319.0041,-314.4 317.1808,-324.8368 325.1146,-317.815 319.0041,-314.4"/>
</g>
</g>
</svg>
