<?xml version="1.0" encoding="UTF-8" standalone="no"?>
<!DOCTYPE svg PUBLIC "-//W3C//DTD SVG 1.1//EN"
 "http://www.w3.org/Graphics/SVG/1.1/DTD/svg11.dtd">
<!-- Generated by graphviz version 2.40.1 (20161225.0304)
 -->
<!-- Title: %3 Pages: 1 -->
<svg width="1080pt" height="116pt"
 viewBox="0.00 0.00 1079.64 116.00" xmlns="http://www.w3.org/2000/svg" xmlns:xlink="http://www.w3.org/1999/xlink">
<g id="graph0" class="graph" transform="scale(1 1) rotate(0) translate(4 112)">
<title>%3</title>
<polygon fill="#ffffff" stroke="transparent" points="-4,4 -4,-112 1075.6442,-112 1075.6442,4 -4,4"/>
<!-- 3597 -->
<g id="node1" class="node">
<title>3597</title>
<ellipse fill="none" stroke="#000000" cx="28.5975" cy="-18" rx="28.6953" ry="18"/>
<text text-anchor="middle" x="28.5975" y="-14.3" font-family="Times,serif" font-size="14.00" fill="#000000">3597</text>
</g>
<!-- 5692 -->
<g id="node2" class="node">
<title>5692</title>
<ellipse fill="none" stroke="#000000" cx="522.5975" cy="-90" rx="28.6953" ry="18"/>
<text text-anchor="middle" x="522.5975" y="-86.3" font-family="Times,serif" font-size="14.00" fill="#000000">5692</text>
</g>
<!-- 5692&#45;&gt;3597 -->
<g id="edge1" class="edge">
<title>5692&#45;&gt;3597</title>
<path fill="none" stroke="#000000" d="M494.0129,-87.8332C407.2338,-81.0637 147.8067,-59.3629 66.5975,-36 64.4315,-35.3769 62.2352,-34.6422 60.0474,-33.832"/>
<polygon fill="#000000" stroke="#000000" points="61.2078,-30.5239 50.6309,-29.9077 58.515,-36.9852 61.2078,-30.5239"/>
</g>
<!-- 10834 -->
<g id="node3" class="node">
<title>10834</title>
<ellipse fill="none" stroke="#000000" cx="107.5975" cy="-18" rx="32.4942" ry="18"/>
<text text-anchor="middle" x="107.5975" y="-14.3" font-family="Times,serif" font-size="14.00" fill="#000000">10834</text>
</g>
<!-- 5692&#45;&gt;10834 -->
<g id="edge2" class="edge">
<title>5692&#45;&gt;10834</title>
<path fill="none" stroke="#000000" d="M493.9984,-88.4071C430.8035,-84.3384 274.9382,-71.2744 149.5975,-36 147.1252,-35.3042 144.6065,-34.4966 142.0926,-33.6164"/>
<polygon fill="#000000" stroke="#000000" points="143.1197,-30.2617 132.5296,-29.946 140.6114,-36.7969 143.1197,-30.2617"/>
</g>
<!-- 11008 -->
<g id="node4" class="node">
<title>11008</title>
<ellipse fill="none" stroke="#000000" cx="190.5975" cy="-18" rx="32.4942" ry="18"/>
<text text-anchor="middle" x="190.5975" y="-14.3" font-family="Times,serif" font-size="14.00" fill="#000000">11008</text>
</g>
<!-- 5692&#45;&gt;11008 -->
<g id="edge3" class="edge">
<title>5692&#45;&gt;11008</title>
<path fill="none" stroke="#000000" d="M494.1076,-86.8151C441.5615,-80.4771 326.2025,-64.3918 232.5975,-36 230.1397,-35.2545 227.6318,-34.4097 225.1259,-33.5026"/>
<polygon fill="#000000" stroke="#000000" points="226.168,-30.1522 215.5799,-29.7737 223.621,-36.6724 226.168,-30.1522"/>
</g>
<!-- 27865 -->
<g id="node5" class="node">
<title>27865</title>
<ellipse fill="none" stroke="#000000" cx="273.5975" cy="-18" rx="32.4942" ry="18"/>
<text text-anchor="middle" x="273.5975" y="-14.3" font-family="Times,serif" font-size="14.00" fill="#000000">27865</text>
</g>
<!-- 5692&#45;&gt;27865 -->
<g id="edge4" class="edge">
<title>5692&#45;&gt;27865</title>
<path fill="none" stroke="#000000" d="M495.4202,-84.2764C455.4864,-75.5606 378.8418,-57.6654 315.5975,-36 313.1677,-35.1677 310.6808,-34.258 308.1901,-33.3038"/>
<polygon fill="#000000" stroke="#000000" points="309.2607,-29.9618 298.6771,-29.4727 306.6457,-36.455 309.2607,-29.9618"/>
</g>
<!-- 28065 -->
<g id="node6" class="node">
<title>28065</title>
<ellipse fill="none" stroke="#000000" cx="356.5975" cy="-18" rx="32.4942" ry="18"/>
<text text-anchor="middle" x="356.5975" y="-14.3" font-family="Times,serif" font-size="14.00" fill="#000000">28065</text>
</g>
<!-- 5692&#45;&gt;28065 -->
<g id="edge5" class="edge">
<title>5692&#45;&gt;28065</title>
<path fill="none" stroke="#000000" d="M498.8137,-79.6842C470.7843,-67.5268 423.9549,-47.2153 391.7384,-33.2419"/>
<polygon fill="#000000" stroke="#000000" points="392.8133,-29.8931 382.2463,-29.1248 390.0278,-36.315 392.8133,-29.8931"/>
</g>
<!-- 52317 -->
<g id="node7" class="node">
<title>52317</title>
<ellipse fill="none" stroke="#000000" cx="439.5975" cy="-18" rx="32.4942" ry="18"/>
<text text-anchor="middle" x="439.5975" y="-14.3" font-family="Times,serif" font-size="14.00" fill="#000000">52317</text>
</g>
<!-- 5692&#45;&gt;52317 -->
<g id="edge6" class="edge">
<title>5692&#45;&gt;52317</title>
<path fill="none" stroke="#000000" d="M505.8012,-75.4297C494.1114,-65.2892 478.3101,-51.5821 465.0765,-40.1023"/>
<polygon fill="#000000" stroke="#000000" points="467.0756,-37.2031 457.2282,-33.2941 462.4886,-42.4908 467.0756,-37.2031"/>
</g>
<!-- 52375 -->
<g id="node8" class="node">
<title>52375</title>
<ellipse fill="none" stroke="#000000" cx="522.5975" cy="-18" rx="32.4942" ry="18"/>
<text text-anchor="middle" x="522.5975" y="-14.3" font-family="Times,serif" font-size="14.00" fill="#000000">52375</text>
</g>
<!-- 5692&#45;&gt;52375 -->
<g id="edge7" class="edge">
<title>5692&#45;&gt;52375</title>
<path fill="none" stroke="#000000" d="M522.5975,-71.8314C522.5975,-64.131 522.5975,-54.9743 522.5975,-46.4166"/>
<polygon fill="#000000" stroke="#000000" points="526.0976,-46.4132 522.5975,-36.4133 519.0976,-46.4133 526.0976,-46.4132"/>
</g>
<!-- 52376 -->
<g id="node9" class="node">
<title>52376</title>
<ellipse fill="none" stroke="#000000" cx="605.5975" cy="-18" rx="32.4942" ry="18"/>
<text text-anchor="middle" x="605.5975" y="-14.3" font-family="Times,serif" font-size="14.00" fill="#000000">52376</text>
</g>
<!-- 5692&#45;&gt;52376 -->
<g id="edge8" class="edge">
<title>5692&#45;&gt;52376</title>
<path fill="none" stroke="#000000" d="M539.3938,-75.4297C551.0835,-65.2892 566.8848,-51.5821 580.1185,-40.1023"/>
<polygon fill="#000000" stroke="#000000" points="582.7063,-42.4908 587.9667,-33.2941 578.1193,-37.2031 582.7063,-42.4908"/>
</g>
<!-- 52380 -->
<g id="node10" class="node">
<title>52380</title>
<ellipse fill="none" stroke="#000000" cx="688.5975" cy="-18" rx="32.4942" ry="18"/>
<text text-anchor="middle" x="688.5975" y="-14.3" font-family="Times,serif" font-size="14.00" fill="#000000">52380</text>
</g>
<!-- 5692&#45;&gt;52380 -->
<g id="edge9" class="edge">
<title>5692&#45;&gt;52380</title>
<path fill="none" stroke="#000000" d="M546.3812,-79.6842C574.4107,-67.5268 621.24,-47.2153 653.4565,-33.2419"/>
<polygon fill="#000000" stroke="#000000" points="655.1671,-36.315 662.9486,-29.1248 652.3816,-29.8931 655.1671,-36.315"/>
</g>
<!-- 52413 -->
<g id="node11" class="node">
<title>52413</title>
<ellipse fill="none" stroke="#000000" cx="771.5975" cy="-18" rx="32.4942" ry="18"/>
<text text-anchor="middle" x="771.5975" y="-14.3" font-family="Times,serif" font-size="14.00" fill="#000000">52413</text>
</g>
<!-- 5692&#45;&gt;52413 -->
<g id="edge10" class="edge">
<title>5692&#45;&gt;52413</title>
<path fill="none" stroke="#000000" d="M549.7748,-84.2764C589.7085,-75.5606 666.3531,-57.6654 729.5975,-36 732.0272,-35.1677 734.5141,-34.258 737.0048,-33.3038"/>
<polygon fill="#000000" stroke="#000000" points="738.5493,-36.455 746.5178,-29.4727 735.9342,-29.9618 738.5493,-36.455"/>
</g>
<!-- 52431 -->
<g id="node12" class="node">
<title>52431</title>
<ellipse fill="none" stroke="#000000" cx="854.5975" cy="-18" rx="32.4942" ry="18"/>
<text text-anchor="middle" x="854.5975" y="-14.3" font-family="Times,serif" font-size="14.00" fill="#000000">52431</text>
</g>
<!-- 5692&#45;&gt;52431 -->
<g id="edge11" class="edge">
<title>5692&#45;&gt;52431</title>
<path fill="none" stroke="#000000" d="M551.0873,-86.8151C603.6335,-80.4771 718.9924,-64.3918 812.5975,-36 815.0552,-35.2545 817.5631,-34.4097 820.069,-33.5026"/>
<polygon fill="#000000" stroke="#000000" points="821.5739,-36.6724 829.615,-29.7737 819.0269,-30.1522 821.5739,-36.6724"/>
</g>
<!-- 262230 -->
<g id="node13" class="node">
<title>262230</title>
<ellipse fill="none" stroke="#000000" cx="942.5975" cy="-18" rx="37.0935" ry="18"/>
<text text-anchor="middle" x="942.5975" y="-14.3" font-family="Times,serif" font-size="14.00" fill="#000000">262230</text>
</g>
<!-- 5692&#45;&gt;262230 -->
<g id="edge12" class="edge">
<title>5692&#45;&gt;262230</title>
<path fill="none" stroke="#000000" d="M551.0975,-88.0413C614.0947,-83.243 769.5904,-68.8146 895.5975,-36 898.726,-35.1853 901.9321,-34.23 905.1278,-33.1919"/>
<polygon fill="#000000" stroke="#000000" points="906.3086,-36.4869 914.5963,-29.8866 904.0015,-29.878 906.3086,-36.4869"/>
</g>
<!-- 264608 -->
<g id="node14" class="node">
<title>264608</title>
<ellipse fill="none" stroke="#000000" cx="1034.5975" cy="-18" rx="37.0935" ry="18"/>
<text text-anchor="middle" x="1034.5975" y="-14.3" font-family="Times,serif" font-size="14.00" fill="#000000">264608</text>
</g>
<!-- 5692&#45;&gt;264608 -->
<g id="edge13" class="edge">
<title>5692&#45;&gt;264608</title>
<path fill="none" stroke="#000000" d="M551.4231,-89.2303C625.2246,-86.71 826.5895,-76.3639 988.5975,-36 991.4059,-35.3003 994.2734,-34.4722 997.1355,-33.5618"/>
<polygon fill="#000000" stroke="#000000" points="998.4576,-36.8076 1006.7522,-30.216 996.1574,-30.1963 998.4576,-36.8076"/>
</g>
</g>
</svg>
