<?xml version="1.0" encoding="UTF-8" standalone="no"?>
<!DOCTYPE svg PUBLIC "-//W3C//DTD SVG 1.1//EN"
 "http://www.w3.org/Graphics/SVG/1.1/DTD/svg11.dtd">
<!-- Generated by graphviz version 2.40.1 (20161225.0304)
 -->
<!-- Title: %3 Pages: 1 -->
<svg width="620pt" height="584pt"
 viewBox="0.00 0.00 619.99 583.86" xmlns="http://www.w3.org/2000/svg" xmlns:xlink="http://www.w3.org/1999/xlink">
<g id="graph0" class="graph" transform="scale(1 1) rotate(0) translate(4 579.8583)">
<title>%3</title>
<polygon fill="#ffffff" stroke="transparent" points="-4,4 -4,-579.8583 615.9873,-579.8583 615.9873,4 -4,4"/>
<!-- 3597 -->
<g id="node1" class="node">
<title>3597</title>
<ellipse fill="none" stroke="#000000" cx="339.3106" cy="-18" rx="28.6953" ry="18"/>
<text text-anchor="middle" x="339.3106" y="-14.3" font-family="Times,serif" font-size="14.00" fill="#000000">3597</text>
</g>
<!-- 5692 -->
<g id="node2" class="node">
<title>5692</title>
<ellipse fill="none" stroke="#000000" cx="316.9076" cy="-295.2601" rx="28.6953" ry="18"/>
<text text-anchor="middle" x="316.9076" y="-291.5601" font-family="Times,serif" font-size="14.00" fill="#000000">5692</text>
</g>
<!-- 5692&#45;&gt;3597 -->
<g id="edge1" class="edge">
<title>5692&#45;&gt;3597</title>
<path fill="none" stroke="#000000" d="M318.3775,-277.0683C322.191,-229.8722 332.4238,-103.2304 337.0201,-46.3477"/>
<polygon fill="#000000" stroke="#000000" points="340.5184,-46.5082 337.8353,-36.2588 333.5411,-45.9444 340.5184,-46.5082"/>
</g>
<!-- 10834 -->
<g id="node3" class="node">
<title>10834</title>
<ellipse fill="none" stroke="#000000" cx="228.4027" cy="-96.4565" rx="32.4942" ry="18"/>
<text text-anchor="middle" x="228.4027" y="-92.7565" font-family="Times,serif" font-size="14.00" fill="#000000">10834</text>
</g>
<!-- 5692&#45;&gt;10834 -->
<g id="edge2" class="edge">
<title>5692&#45;&gt;10834</title>
<path fill="none" stroke="#000000" d="M309.0534,-277.6176C293.5046,-242.6912 258.7199,-164.5563 240.3282,-123.2441"/>
<polygon fill="#000000" stroke="#000000" points="243.5039,-121.7716 236.2394,-114.0595 237.109,-124.6186 243.5039,-121.7716"/>
</g>
<!-- 11008 -->
<g id="node4" class="node">
<title>11008</title>
<ellipse fill="none" stroke="#000000" cx="459.1988" cy="-98.0975" rx="32.4942" ry="18"/>
<text text-anchor="middle" x="459.1988" y="-94.3975" font-family="Times,serif" font-size="14.00" fill="#000000">11008</text>
</g>
<!-- 5692&#45;&gt;11008 -->
<g id="edge3" class="edge">
<title>5692&#45;&gt;11008</title>
<path fill="none" stroke="#000000" d="M328.7945,-278.7893C353.6855,-244.2996 411.4256,-164.2934 441.0106,-123.2997"/>
<polygon fill="#000000" stroke="#000000" points="444.0301,-125.0965 447.0441,-114.9394 438.3539,-121 444.0301,-125.0965"/>
</g>
<!-- 27865 -->
<g id="node5" class="node">
<title>27865</title>
<ellipse fill="none" stroke="#000000" cx="579.4902" cy="-193.8641" rx="32.4942" ry="18"/>
<text text-anchor="middle" x="579.4902" y="-190.1641" font-family="Times,serif" font-size="14.00" fill="#000000">27865</text>
</g>
<!-- 5692&#45;&gt;27865 -->
<g id="edge4" class="edge">
<title>5692&#45;&gt;27865</title>
<path fill="none" stroke="#000000" d="M341.6107,-285.721C388.1235,-267.7602 488.8882,-228.85 543.1458,-207.8985"/>
<polygon fill="#000000" stroke="#000000" points="544.6442,-211.0718 552.7121,-204.2045 542.1226,-204.5418 544.6442,-211.0718"/>
</g>
<!-- 28065 -->
<g id="node6" class="node">
<title>28065</title>
<ellipse fill="none" stroke="#000000" cx="578.8632" cy="-383.9791" rx="32.4942" ry="18"/>
<text text-anchor="middle" x="578.8632" y="-380.2791" font-family="Times,serif" font-size="14.00" fill="#000000">28065</text>
</g>
<!-- 5692&#45;&gt;28065 -->
<g id="edge5" class="edge">
<title>5692&#45;&gt;28065</title>
<path fill="none" stroke="#000000" d="M342.5019,-303.9284C388.9202,-319.6493 487.1778,-352.9272 541.2428,-371.2379"/>
<polygon fill="#000000" stroke="#000000" points="540.2069,-374.5823 550.8012,-374.4751 542.4524,-367.9522 540.2069,-374.5823"/>
</g>
<!-- 52317 -->
<g id="node7" class="node">
<title>52317</title>
<ellipse fill="none" stroke="#000000" cx="465.0376" cy="-290.6243" rx="32.4942" ry="18"/>
<text text-anchor="middle" x="465.0376" y="-286.9243" font-family="Times,serif" font-size="14.00" fill="#000000">52317</text>
</g>
<!-- 5692&#45;&gt;52317 -->
<g id="edge6" class="edge">
<title>5692&#45;&gt;52317</title>
<path fill="none" stroke="#000000" d="M345.8202,-294.3553C367.5534,-293.6751 397.6742,-292.7325 422.2015,-291.9649"/>
<polygon fill="#000000" stroke="#000000" points="422.4444,-295.4591 432.33,-291.6479 422.2254,-288.4625 422.4444,-295.4591"/>
</g>
<!-- 52375 -->
<g id="node8" class="node">
<title>52375</title>
<ellipse fill="none" stroke="#000000" cx="483.3182" cy="-511.4289" rx="32.4942" ry="18"/>
<text text-anchor="middle" x="483.3182" y="-507.7289" font-family="Times,serif" font-size="14.00" fill="#000000">52375</text>
</g>
<!-- 5692&#45;&gt;52375 -->
<g id="edge7" class="edge">
<title>5692&#45;&gt;52375</title>
<path fill="none" stroke="#000000" d="M329.4154,-311.5079C358.3168,-349.051 429.8829,-442.0159 464.2721,-486.6878"/>
<polygon fill="#000000" stroke="#000000" points="461.563,-488.9065 470.4365,-494.6954 467.1098,-484.6364 461.563,-488.9065"/>
</g>
<!-- 52376 -->
<g id="node9" class="node">
<title>52376</title>
<ellipse fill="none" stroke="#000000" cx="347.7594" cy="-497.7105" rx="32.4942" ry="18"/>
<text text-anchor="middle" x="347.7594" y="-494.0105" font-family="Times,serif" font-size="14.00" fill="#000000">52376</text>
</g>
<!-- 5692&#45;&gt;52376 -->
<g id="edge8" class="edge">
<title>5692&#45;&gt;52376</title>
<path fill="none" stroke="#000000" d="M319.6455,-313.2262C325.0291,-348.554 337.0283,-427.2929 343.4722,-469.5774"/>
<polygon fill="#000000" stroke="#000000" points="340.0167,-470.1351 344.9833,-479.4936 346.9368,-469.0804 340.0167,-470.1351"/>
</g>
<!-- 52380 -->
<g id="node10" class="node">
<title>52380</title>
<ellipse fill="none" stroke="#000000" cx="32.4971" cy="-317.9167" rx="32.4942" ry="18"/>
<text text-anchor="middle" x="32.4971" y="-314.2167" font-family="Times,serif" font-size="14.00" fill="#000000">52380</text>
</g>
<!-- 5692&#45;&gt;52380 -->
<g id="edge9" class="edge">
<title>5692&#45;&gt;52380</title>
<path fill="none" stroke="#000000" d="M288.335,-297.5363C238.1042,-301.5377 133.7439,-309.8512 75.0177,-314.5294"/>
<polygon fill="#000000" stroke="#000000" points="74.6453,-311.0479 64.9548,-315.3311 75.2012,-318.0258 74.6453,-311.0479"/>
</g>
<!-- 52413 -->
<g id="node11" class="node">
<title>52413</title>
<ellipse fill="none" stroke="#000000" cx="122.4602" cy="-453.8263" rx="32.4942" ry="18"/>
<text text-anchor="middle" x="122.4602" y="-450.1263" font-family="Times,serif" font-size="14.00" fill="#000000">52413</text>
</g>
<!-- 5692&#45;&gt;52413 -->
<g id="edge10" class="edge">
<title>5692&#45;&gt;52413</title>
<path fill="none" stroke="#000000" d="M299.3087,-309.6115C264.9366,-337.6409 188.7337,-399.7822 148.5027,-432.5894"/>
<polygon fill="#000000" stroke="#000000" points="146.2633,-429.8993 140.7254,-438.9316 150.6872,-435.3242 146.2633,-429.8993"/>
</g>
<!-- 52431 -->
<g id="node12" class="node">
<title>52431</title>
<ellipse fill="none" stroke="#000000" cx="226.9507" cy="-557.8583" rx="32.4942" ry="18"/>
<text text-anchor="middle" x="226.9507" y="-554.1583" font-family="Times,serif" font-size="14.00" fill="#000000">52431</text>
</g>
<!-- 5692&#45;&gt;52431 -->
<g id="edge11" class="edge">
<title>5692&#45;&gt;52431</title>
<path fill="none" stroke="#000000" d="M310.8656,-312.8977C295.5071,-357.7314 254.8817,-476.3234 236.3748,-530.3479"/>
<polygon fill="#000000" stroke="#000000" points="233.0146,-529.3571 233.0849,-539.9517 239.6368,-531.6257 233.0146,-529.3571"/>
</g>
<!-- 262230 -->
<g id="node13" class="node">
<title>262230</title>
<ellipse fill="none" stroke="#000000" cx="168.3738" cy="-278.2208" rx="37.0935" ry="18"/>
<text text-anchor="middle" x="168.3738" y="-274.5208" font-family="Times,serif" font-size="14.00" fill="#000000">262230</text>
</g>
<!-- 5692&#45;&gt;262230 -->
<g id="edge12" class="edge">
<title>5692&#45;&gt;262230</title>
<path fill="none" stroke="#000000" d="M288.6199,-292.0151C267.7033,-289.6156 238.7646,-286.2958 214.5181,-283.5143"/>
<polygon fill="#000000" stroke="#000000" points="214.7849,-280.0221 204.4511,-282.3595 213.9871,-286.9765 214.7849,-280.0221"/>
</g>
<!-- 264608 -->
<g id="node14" class="node">
<title>264608</title>
<ellipse fill="none" stroke="#000000" cx="87.4246" cy="-134.5002" rx="37.0935" ry="18"/>
<text text-anchor="middle" x="87.4246" y="-130.8002" font-family="Times,serif" font-size="14.00" fill="#000000">264608</text>
</g>
<!-- 5692&#45;&gt;264608 -->
<g id="edge13" class="edge">
<title>5692&#45;&gt;264608</title>
<path fill="none" stroke="#000000" d="M297.7367,-281.8303C257.6795,-253.769 164.8718,-188.7543 117.0663,-155.2651"/>
<polygon fill="#000000" stroke="#000000" points="118.885,-152.2658 108.6866,-149.3948 114.8687,-157.999 118.885,-152.2658"/>
</g>
</g>
</svg>
