<?xml version="1.0" encoding="UTF-8" standalone="no"?>
<!DOCTYPE svg PUBLIC "-//W3C//DTD SVG 1.1//EN"
 "http://www.w3.org/Graphics/SVG/1.1/DTD/svg11.dtd">
<!-- Generated by graphviz version 2.40.1 (20161225.0304)
 -->
<!-- Title: %3 Pages: 1 -->
<svg width="287pt" height="274pt"
 viewBox="0.00 0.00 287.00 274.00" xmlns="http://www.w3.org/2000/svg" xmlns:xlink="http://www.w3.org/1999/xlink">
<g id="graph0" class="graph" transform="scale(1 1) rotate(0) translate(4 270)">
<title>%3</title>
<polygon fill="#ffffff" stroke="transparent" points="-4,4 -4,-270 283,-270 283,4 -4,4"/>
<!-- 3597 -->
<g id="node1" class="node">
<title>3597</title>
<ellipse fill="none" stroke="#000000" cx="36.2324" cy="-106.5478" rx="28.6953" ry="18"/>
<text text-anchor="middle" x="36.2324" y="-102.8478" font-family="Times,serif" font-size="14.00" fill="#000000">3597</text>
</g>
<!-- 5692 -->
<g id="node2" class="node">
<title>5692</title>
<ellipse fill="none" stroke="#000000" cx="138.0012" cy="-131.7212" rx="28.6953" ry="18"/>
<text text-anchor="middle" x="138.0012" y="-128.0212" font-family="Times,serif" font-size="14.00" fill="#000000">5692</text>
</g>
<!-- 5692&#45;&gt;3597 -->
<g id="edge1" class="edge">
<title>5692&#45;&gt;3597</title>
<path fill="none" stroke="#000000" d="M111.2626,-125.1072C99.5525,-122.2106 85.6212,-118.7646 72.9604,-115.6328"/>
<polygon fill="#000000" stroke="#000000" points="73.6936,-112.2087 63.1457,-113.2051 72.0127,-119.0039 73.6936,-112.2087"/>
</g>
<!-- 10834 -->
<g id="node3" class="node">
<title>10834</title>
<ellipse fill="none" stroke="#000000" cx="122.7225" cy="-17.9322" rx="32.4942" ry="18"/>
<text text-anchor="middle" x="122.7225" y="-14.2322" font-family="Times,serif" font-size="14.00" fill="#000000">10834</text>
</g>
<!-- 5692&#45;&gt;10834 -->
<g id="edge2" class="edge">
<title>5692&#45;&gt;10834</title>
<path fill="none" stroke="#000000" d="M135.5802,-113.691C133.1472,-95.571 129.3615,-67.3765 126.5269,-46.2656"/>
<polygon fill="#000000" stroke="#000000" points="129.9825,-45.7001 125.1827,-36.2548 123.0447,-46.6317 129.9825,-45.7001"/>
</g>
<!-- 11008 -->
<g id="node4" class="node">
<title>11008</title>
<ellipse fill="none" stroke="#000000" cx="55.6296" cy="-203.546" rx="32.4942" ry="18"/>
<text text-anchor="middle" x="55.6296" y="-199.846" font-family="Times,serif" font-size="14.00" fill="#000000">11008</text>
</g>
<!-- 5692&#45;&gt;11008 -->
<g id="edge3" class="edge">
<title>5692&#45;&gt;11008</title>
<path fill="none" stroke="#000000" d="M120.9337,-146.6034C109.3826,-156.6755 93.9235,-170.1552 80.946,-181.4711"/>
<polygon fill="#000000" stroke="#000000" points="78.4804,-178.9773 73.2435,-188.1874 83.0809,-184.2533 78.4804,-178.9773"/>
</g>
<!-- 27865 -->
<g id="node5" class="node">
<title>27865</title>
<ellipse fill="none" stroke="#000000" cx="192.002" cy="-228.4579" rx="32.4942" ry="18"/>
<text text-anchor="middle" x="192.002" y="-224.7579" font-family="Times,serif" font-size="14.00" fill="#000000">27865</text>
</g>
<!-- 5692&#45;&gt;27865 -->
<g id="edge4" class="edge">
<title>5692&#45;&gt;27865</title>
<path fill="none" stroke="#000000" d="M147.6554,-149.0158C155.8976,-163.7808 167.8796,-185.2452 177.3115,-202.1416"/>
<polygon fill="#000000" stroke="#000000" points="174.3189,-203.9613 182.2492,-210.9869 180.431,-200.5493 174.3189,-203.9613"/>
</g>
<!-- 28065 -->
<g id="node6" class="node">
<title>28065</title>
<ellipse fill="none" stroke="#000000" cx="135.0357" cy="-175.7514" rx="32.4942" ry="18"/>
<text text-anchor="middle" x="135.0357" y="-172.0514" font-family="Times,serif" font-size="14.00" fill="#000000">28065</text>
</g>
<!-- 5692&#45;&gt;28065 -->
<g id="edge5" class="edge">
<title>5692&#45;&gt;28065</title>
<path fill="none" stroke="#000000" d="M136.7779,-149.8842C136.7671,-150.0441 136.7563,-150.2043 136.7455,-150.3647"/>
<polygon fill="#000000" stroke="#000000" points="133.4362,-147.4175 136.2562,-157.6302 140.4204,-147.888 133.4362,-147.4175"/>
</g>
<!-- 52317 -->
<g id="node7" class="node">
<title>52317</title>
<ellipse fill="none" stroke="#000000" cx="51.5407" cy="-62.3399" rx="32.4942" ry="18"/>
<text text-anchor="middle" x="51.5407" y="-58.6399" font-family="Times,serif" font-size="14.00" fill="#000000">52317</text>
</g>
<!-- 5692&#45;&gt;52317 -->
<g id="edge6" class="edge">
<title>5692&#45;&gt;52317</title>
<path fill="none" stroke="#000000" d="M120.0865,-117.3454C107.962,-107.6159 91.7355,-94.5948 78.1138,-83.6639"/>
<polygon fill="#000000" stroke="#000000" points="80.0188,-80.705 70.0289,-77.1761 75.6377,-86.1645 80.0188,-80.705"/>
</g>
<!-- 52375 -->
<g id="node8" class="node">
<title>52375</title>
<ellipse fill="none" stroke="#000000" cx="246.3484" cy="-132.3361" rx="32.4942" ry="18"/>
<text text-anchor="middle" x="246.3484" y="-128.6361" font-family="Times,serif" font-size="14.00" fill="#000000">52375</text>
</g>
<!-- 5692&#45;&gt;52375 -->
<g id="edge7" class="edge">
<title>5692&#45;&gt;52375</title>
<path fill="none" stroke="#000000" d="M166.7518,-131.8844C178.0168,-131.9483 191.1785,-132.023 203.5182,-132.0931"/>
<polygon fill="#000000" stroke="#000000" points="203.6108,-135.5935 213.6305,-132.1505 203.6506,-128.5937 203.6108,-135.5935"/>
</g>
<!-- 52376 -->
<g id="node9" class="node">
<title>52376</title>
<ellipse fill="none" stroke="#000000" cx="131.9964" cy="-87.548" rx="32.4942" ry="18"/>
<text text-anchor="middle" x="131.9964" y="-83.848" font-family="Times,serif" font-size="14.00" fill="#000000">52376</text>
</g>
<!-- 5692&#45;&gt;52376 -->
<g id="edge8" class="edge">
<title>5692&#45;&gt;52376</title>
<path fill="none" stroke="#000000" d="M135.5588,-113.7543C135.5474,-113.6707 135.5361,-113.587 135.5247,-113.5032"/>
<polygon fill="#000000" stroke="#000000" points="139.2713,-115.0798 134.4561,-105.6424 132.3351,-116.0227 139.2713,-115.0798"/>
</g>
<!-- 52380 -->
<g id="node10" class="node">
<title>52380</title>
<ellipse fill="none" stroke="#000000" cx="235.529" cy="-82.3679" rx="32.4942" ry="18"/>
<text text-anchor="middle" x="235.529" y="-78.6679" font-family="Times,serif" font-size="14.00" fill="#000000">52380</text>
</g>
<!-- 5692&#45;&gt;52380 -->
<g id="edge9" class="edge">
<title>5692&#45;&gt;52380</title>
<path fill="none" stroke="#000000" d="M160.6211,-120.2745C172.9656,-114.0277 188.4835,-106.175 202.1892,-99.2393"/>
<polygon fill="#000000" stroke="#000000" points="203.9847,-102.2533 211.327,-94.6151 200.824,-96.0075 203.9847,-102.2533"/>
</g>
<!-- 52413 -->
<g id="node11" class="node">
<title>52413</title>
<ellipse fill="none" stroke="#000000" cx="195.7483" cy="-36.9098" rx="32.4942" ry="18"/>
<text text-anchor="middle" x="195.7483" y="-33.2098" font-family="Times,serif" font-size="14.00" fill="#000000">52413</text>
</g>
<!-- 5692&#45;&gt;52413 -->
<g id="edge10" class="edge">
<title>5692&#45;&gt;52413</title>
<path fill="none" stroke="#000000" d="M148.3252,-114.7709C157.1392,-100.2997 169.9524,-79.2625 180.0387,-62.7024"/>
<polygon fill="#000000" stroke="#000000" points="183.1063,-64.3943 185.3189,-54.0331 177.1279,-60.753 183.1063,-64.3943"/>
</g>
<!-- 52431 -->
<g id="node12" class="node">
<title>52431</title>
<ellipse fill="none" stroke="#000000" cx="32.2999" cy="-158.5661" rx="32.4942" ry="18"/>
<text text-anchor="middle" x="32.2999" y="-154.8661" font-family="Times,serif" font-size="14.00" fill="#000000">52431</text>
</g>
<!-- 5692&#45;&gt;52431 -->
<g id="edge11" class="edge">
<title>5692&#45;&gt;52431</title>
<path fill="none" stroke="#000000" d="M111.3283,-138.4953C99.3393,-141.5402 84.9459,-145.1957 71.7468,-148.5478"/>
<polygon fill="#000000" stroke="#000000" points="70.7764,-145.1831 61.9457,-151.037 72.4995,-151.9677 70.7764,-145.1831"/>
</g>
<!-- 262230 -->
<g id="node13" class="node">
<title>262230</title>
<ellipse fill="none" stroke="#000000" cx="238.8915" cy="-183.8332" rx="37.0935" ry="18"/>
<text text-anchor="middle" x="238.8915" y="-180.1332" font-family="Times,serif" font-size="14.00" fill="#000000">262230</text>
</g>
<!-- 5692&#45;&gt;262230 -->
<g id="edge12" class="edge">
<title>5692&#45;&gt;262230</title>
<path fill="none" stroke="#000000" d="M160.392,-143.2866C173.2498,-149.9279 189.6731,-158.4109 204.171,-165.8993"/>
<polygon fill="#000000" stroke="#000000" points="202.8723,-169.1678 213.3633,-170.6474 206.0848,-162.9485 202.8723,-169.1678"/>
</g>
<!-- 264608 -->
<g id="node14" class="node">
<title>264608</title>
<ellipse fill="none" stroke="#000000" cx="113.7643" cy="-248.4272" rx="37.0935" ry="18"/>
<text text-anchor="middle" x="113.7643" y="-244.7272" font-family="Times,serif" font-size="14.00" fill="#000000">264608</text>
</g>
<!-- 5692&#45;&gt;264608 -->
<g id="edge13" class="edge">
<title>5692&#45;&gt;264608</title>
<path fill="none" stroke="#000000" d="M134.2673,-149.7008C130.3646,-168.493 124.1864,-198.2424 119.6312,-220.177"/>
<polygon fill="#000000" stroke="#000000" points="116.149,-219.7321 117.5424,-230.2349 123.0027,-221.1555 116.149,-219.7321"/>
</g>
</g>
</svg>
