<?xml version="1.0" encoding="UTF-8" standalone="no"?>
<!DOCTYPE svg PUBLIC "-//W3C//DTD SVG 1.1//EN"
 "http://www.w3.org/Graphics/SVG/1.1/DTD/svg11.dtd">
<!-- Generated by graphviz version 2.40.1 (20161225.0304)
 -->
<!-- Title: %3 Pages: 1 -->
<svg width="1155pt" height="1137pt"
 viewBox="0.00 0.00 1155.26 1136.87" xmlns="http://www.w3.org/2000/svg" xmlns:xlink="http://www.w3.org/1999/xlink">
<g id="graph0" class="graph" transform="scale(1 1) rotate(0) translate(4 1132.8707)">
<title>%3</title>
<polygon fill="#ffffff" stroke="transparent" points="-4,4 -4,-1132.8707 1151.2617,-1132.8707 1151.2617,4 -4,4"/>
<!-- 174 -->
<g id="node1" class="node">
<title>174</title>
<ellipse fill="none" stroke="#000000" cx="797.097" cy="-739.085" rx="27" ry="18"/>
<text text-anchor="middle" x="797.097" y="-735.385" font-family="Times,serif" font-size="14.00" fill="#000000">174</text>
</g>
<!-- 209 -->
<g id="node2" class="node">
<title>209</title>
<ellipse fill="none" stroke="#000000" cx="966.867" cy="-555.6493" rx="27" ry="18"/>
<text text-anchor="middle" x="966.867" y="-551.9493" font-family="Times,serif" font-size="14.00" fill="#000000">209</text>
</g>
<!-- 174&#45;&gt;209 -->
<g id="edge1" class="edge">
<title>174&#45;&gt;209</title>
<path fill="none" stroke="#000000" d="M811.2795,-723.7609C841.114,-691.5248 910.5028,-616.5505 945.6514,-578.5726"/>
<polygon fill="#000000" stroke="#000000" points="948.3818,-580.7754 952.6055,-571.0588 943.2443,-576.0207 948.3818,-580.7754"/>
</g>
<!-- 701 -->
<g id="node3" class="node">
<title>701</title>
<ellipse fill="none" stroke="#000000" cx="953.9146" cy="-622.8529" rx="27" ry="18"/>
<text text-anchor="middle" x="953.9146" y="-619.1529" font-family="Times,serif" font-size="14.00" fill="#000000">701</text>
</g>
<!-- 174&#45;&gt;701 -->
<g id="edge2" class="edge">
<title>174&#45;&gt;701</title>
<path fill="none" stroke="#000000" d="M815.3929,-725.5242C843.0132,-705.0522 895.5048,-666.1458 927.3413,-642.5488"/>
<polygon fill="#000000" stroke="#000000" points="929.7855,-645.0938 935.7352,-636.3273 925.6173,-639.4701 929.7855,-645.0938"/>
</g>
<!-- 1239 -->
<g id="node5" class="node">
<title>1239</title>
<ellipse fill="none" stroke="#000000" cx="928.4779" cy="-686.3907" rx="28.6953" ry="18"/>
<text text-anchor="middle" x="928.4779" y="-682.6907" font-family="Times,serif" font-size="14.00" fill="#000000">1239</text>
</g>
<!-- 174&#45;&gt;1239 -->
<g id="edge3" class="edge">
<title>174&#45;&gt;1239</title>
<path fill="none" stroke="#000000" d="M820.2828,-729.7856C840.9092,-721.5128 871.3337,-709.3101 894.6707,-699.9501"/>
<polygon fill="#000000" stroke="#000000" points="896.2108,-703.1035 904.1892,-696.1324 893.6049,-696.6066 896.2108,-703.1035"/>
</g>
<!-- 1273 -->
<g id="node6" class="node">
<title>1273</title>
<ellipse fill="none" stroke="#000000" cx="891.4762" cy="-743.9664" rx="28.6953" ry="18"/>
<text text-anchor="middle" x="891.4762" y="-740.2664" font-family="Times,serif" font-size="14.00" fill="#000000">1273</text>
</g>
<!-- 174&#45;&gt;1273 -->
<g id="edge4" class="edge">
<title>174&#45;&gt;1273</title>
<path fill="none" stroke="#000000" d="M824.1423,-740.4838C833.0227,-740.9431 843.0748,-741.463 852.652,-741.9584"/>
<polygon fill="#000000" stroke="#000000" points="852.6125,-745.4609 862.78,-742.4822 852.9741,-738.4702 852.6125,-745.4609"/>
</g>
<!-- 1299 -->
<g id="node7" class="node">
<title>1299</title>
<ellipse fill="none" stroke="#000000" cx="844.247" cy="-793.499" rx="28.6953" ry="18"/>
<text text-anchor="middle" x="844.247" y="-789.799" font-family="Times,serif" font-size="14.00" fill="#000000">1299</text>
</g>
<!-- 174&#45;&gt;1299 -->
<g id="edge5" class="edge">
<title>174&#45;&gt;1299</title>
<path fill="none" stroke="#000000" d="M810.7347,-754.8238C814.8042,-759.5202 819.3572,-764.7746 823.7635,-769.8598"/>
<polygon fill="#000000" stroke="#000000" points="821.2828,-772.3416 830.4766,-777.6071 826.573,-767.7575 821.2828,-772.3416"/>
</g>
<!-- 2828 -->
<g id="node13" class="node">
<title>2828</title>
<ellipse fill="none" stroke="#000000" cx="788.4971" cy="-833.1983" rx="28.6953" ry="18"/>
<text text-anchor="middle" x="788.4971" y="-829.4983" font-family="Times,serif" font-size="14.00" fill="#000000">2828</text>
</g>
<!-- 174&#45;&gt;2828 -->
<g id="edge6" class="edge">
<title>174&#45;&gt;2828</title>
<path fill="none" stroke="#000000" d="M795.4389,-757.231C794.2016,-770.7716 792.4878,-789.5265 791.0726,-805.013"/>
<polygon fill="#000000" stroke="#000000" points="787.5748,-804.831 790.1502,-815.108 794.5457,-805.468 787.5748,-804.831"/>
</g>
<!-- 5511 -->
<g id="node23" class="node">
<title>5511</title>
<ellipse fill="none" stroke="#000000" cx="726.2416" cy="-861.6294" rx="28.6953" ry="18"/>
<text text-anchor="middle" x="726.2416" y="-857.9294" font-family="Times,serif" font-size="14.00" fill="#000000">5511</text>
</g>
<!-- 174&#45;&gt;5511 -->
<g id="edge7" class="edge">
<title>174&#45;&gt;5511</title>
<path fill="none" stroke="#000000" d="M787.2449,-756.1243C775.3613,-776.677 755.257,-811.4473 741.3949,-835.4217"/>
<polygon fill="#000000" stroke="#000000" points="738.2141,-833.9308 736.2385,-844.3398 744.274,-837.4347 738.2141,-833.9308"/>
</g>
<!-- 6461 -->
<g id="node26" class="node">
<title>6461</title>
<ellipse fill="none" stroke="#000000" cx="659.7305" cy="-877.7649" rx="28.6953" ry="18"/>
<text text-anchor="middle" x="659.7305" y="-874.0649" font-family="Times,serif" font-size="14.00" fill="#000000">6461</text>
</g>
<!-- 174&#45;&gt;6461 -->
<g id="edge8" class="edge">
<title>174&#45;&gt;6461</title>
<path fill="none" stroke="#000000" d="M782.1349,-754.1902C758.0065,-778.5493 710.3619,-826.6494 682.1581,-855.1228"/>
<polygon fill="#000000" stroke="#000000" points="679.6442,-852.6872 675.0935,-862.255 684.6175,-857.6134 679.6442,-852.6872"/>
</g>
<!-- 7018 -->
<g id="node30" class="node">
<title>7018</title>
<ellipse fill="none" stroke="#000000" cx="591.3676" cy="-881.0214" rx="28.6953" ry="18"/>
<text text-anchor="middle" x="591.3676" y="-877.3214" font-family="Times,serif" font-size="14.00" fill="#000000">7018</text>
</g>
<!-- 174&#45;&gt;7018 -->
<g id="edge9" class="edge">
<title>174&#45;&gt;7018</title>
<path fill="none" stroke="#000000" d="M778.1112,-752.1836C741.7073,-777.2994 661.9352,-832.3356 619.3918,-861.687"/>
<polygon fill="#000000" stroke="#000000" points="617.1512,-858.9807 610.9076,-867.5404 621.1263,-864.7425 617.1512,-858.9807"/>
</g>
<!-- 703 -->
<g id="node4" class="node">
<title>703</title>
<ellipse fill="none" stroke="#000000" cx="369.2181" cy="-1045.3772" rx="27" ry="18"/>
<text text-anchor="middle" x="369.2181" y="-1041.6772" font-family="Times,serif" font-size="14.00" fill="#000000">703</text>
</g>
<!-- 9498 -->
<g id="node35" class="node">
<title>9498</title>
<ellipse fill="none" stroke="#000000" cx="339.3082" cy="-1110.8707" rx="28.6953" ry="18"/>
<text text-anchor="middle" x="339.3082" y="-1107.1707" font-family="Times,serif" font-size="14.00" fill="#000000">9498</text>
</g>
<!-- 703&#45;&gt;9498 -->
<g id="edge10" class="edge">
<title>703&#45;&gt;9498</title>
<path fill="none" stroke="#000000" d="M361.2028,-1062.9282C358.2524,-1069.3886 354.8391,-1076.8628 351.5983,-1083.9591"/>
<polygon fill="#000000" stroke="#000000" points="348.3161,-1082.7209 347.3456,-1093.2712 354.6835,-1085.6288 348.3161,-1082.7209"/>
</g>
<!-- 2497 -->
<g id="node8" class="node">
<title>2497</title>
<ellipse fill="none" stroke="#000000" cx="540.5985" cy="-801.3109" rx="28.6953" ry="18"/>
<text text-anchor="middle" x="540.5985" y="-797.6109" font-family="Times,serif" font-size="14.00" fill="#000000">2497</text>
</g>
<!-- 3320 -->
<g id="node16" class="node">
<title>3320</title>
<ellipse fill="none" stroke="#000000" cx="523.6239" cy="-871.2813" rx="28.6953" ry="18"/>
<text text-anchor="middle" x="523.6239" y="-867.5813" font-family="Times,serif" font-size="14.00" fill="#000000">3320</text>
</g>
<!-- 2497&#45;&gt;3320 -->
<g id="edge11" class="edge">
<title>2497&#45;&gt;3320</title>
<path fill="none" stroke="#000000" d="M536.2272,-819.33C534.459,-826.6185 532.3763,-835.2033 530.4189,-843.272"/>
<polygon fill="#000000" stroke="#000000" points="526.9958,-842.5368 528.0395,-853.0801 533.7985,-844.1871 526.9958,-842.5368"/>
</g>
<!-- 2516 -->
<g id="node9" class="node">
<title>2516</title>
<ellipse fill="none" stroke="#000000" cx="268.9222" cy="-788.4738" rx="28.6953" ry="18"/>
<text text-anchor="middle" x="268.9222" y="-784.7738" font-family="Times,serif" font-size="14.00" fill="#000000">2516</text>
</g>
<!-- 32787 -->
<g id="node45" class="node">
<title>32787</title>
<ellipse fill="none" stroke="#000000" cx="212.3264" cy="-832.9813" rx="32.4942" ry="18"/>
<text text-anchor="middle" x="212.3264" y="-829.2813" font-family="Times,serif" font-size="14.00" fill="#000000">32787</text>
</g>
<!-- 2516&#45;&gt;32787 -->
<g id="edge12" class="edge">
<title>2516&#45;&gt;32787</title>
<path fill="none" stroke="#000000" d="M251.0149,-802.5563C247.2462,-805.52 243.1919,-808.7083 239.1766,-811.866"/>
<polygon fill="#000000" stroke="#000000" points="236.7903,-809.2899 231.0933,-818.2228 241.1175,-814.7923 236.7903,-809.2899"/>
</g>
<!-- 2686 -->
<g id="node10" class="node">
<title>2686</title>
<ellipse fill="none" stroke="#000000" cx="176.4971" cy="-521.4291" rx="28.6953" ry="18"/>
<text text-anchor="middle" x="176.4971" y="-517.7291" font-family="Times,serif" font-size="14.00" fill="#000000">2686</text>
</g>
<!-- 3741 -->
<g id="node21" class="node">
<title>3741</title>
<ellipse fill="none" stroke="#000000" cx="104.4971" cy="-521.4291" rx="28.6953" ry="18"/>
<text text-anchor="middle" x="104.4971" y="-517.7291" font-family="Times,serif" font-size="14.00" fill="#000000">3741</text>
</g>
<!-- 2686&#45;&gt;3741 -->
<g id="edge13" class="edge">
<title>2686&#45;&gt;3741</title>
<path fill="none" stroke="#000000" d="M147.6268,-521.4291C146.3064,-521.4291 144.9727,-521.4291 143.6331,-521.4291"/>
<polygon fill="#000000" stroke="#000000" points="143.3739,-517.9292 133.3739,-521.4291 143.3739,-524.9292 143.3739,-517.9292"/>
</g>
<!-- 2687 -->
<g id="node11" class="node">
<title>2687</title>
<ellipse fill="none" stroke="#000000" cx="288.5164" cy="-686.3907" rx="28.6953" ry="18"/>
<text text-anchor="middle" x="288.5164" y="-682.6907" font-family="Times,serif" font-size="14.00" fill="#000000">2687</text>
</g>
<!-- 2687&#45;&gt;2516 -->
<g id="edge14" class="edge">
<title>2687&#45;&gt;2516</title>
<path fill="none" stroke="#000000" d="M285.0133,-704.6411C282.0319,-720.1737 277.702,-742.7322 274.2845,-760.5367"/>
<polygon fill="#000000" stroke="#000000" points="270.8427,-759.9009 272.3949,-770.3814 277.7173,-761.2205 270.8427,-759.9009"/>
</g>
<!-- 2687&#45;&gt;2686 -->
<g id="edge15" class="edge">
<title>2687&#45;&gt;2686</title>
<path fill="none" stroke="#000000" d="M277.1589,-669.6655C257.45,-640.6418 216.8087,-580.7926 193.6476,-546.6852"/>
<polygon fill="#000000" stroke="#000000" points="196.398,-544.5053 187.8846,-538.1986 190.607,-548.4377 196.398,-544.5053"/>
</g>
<!-- 9505 -->
<g id="node36" class="node">
<title>9505</title>
<ellipse fill="none" stroke="#000000" cx="184.3039" cy="-439.6726" rx="28.6953" ry="18"/>
<text text-anchor="middle" x="184.3039" y="-435.9726" font-family="Times,serif" font-size="14.00" fill="#000000">9505</text>
</g>
<!-- 2687&#45;&gt;9505 -->
<g id="edge16" class="edge">
<title>2687&#45;&gt;9505</title>
<path fill="none" stroke="#000000" d="M281.0217,-668.6473C262.9954,-625.9711 217.1238,-517.3722 195.6786,-466.6016"/>
<polygon fill="#000000" stroke="#000000" points="198.846,-465.1052 191.7307,-457.2552 192.3977,-467.829 198.846,-465.1052"/>
</g>
<!-- 2764 -->
<g id="node12" class="node">
<title>2764</title>
<ellipse fill="none" stroke="#000000" cx="191.6263" cy="-918.9146" rx="28.6953" ry="18"/>
<text text-anchor="middle" x="191.6263" y="-915.2146" font-family="Times,serif" font-size="14.00" fill="#000000">2764</text>
</g>
<!-- 7545 -->
<g id="node33" class="node">
<title>7545</title>
<ellipse fill="none" stroke="#000000" cx="232.6202" cy="-1049.2744" rx="28.6953" ry="18"/>
<text text-anchor="middle" x="232.6202" y="-1045.5744" font-family="Times,serif" font-size="14.00" fill="#000000">7545</text>
</g>
<!-- 2764&#45;&gt;7545 -->
<g id="edge17" class="edge">
<title>2764&#45;&gt;7545</title>
<path fill="none" stroke="#000000" d="M197.2404,-936.7673C204.1015,-958.5854 215.7898,-995.7538 223.8429,-1021.3627"/>
<polygon fill="#000000" stroke="#000000" points="220.6037,-1022.7295 226.9424,-1031.219 227.2813,-1020.6296 220.6037,-1022.7295"/>
</g>
<!-- 38333 -->
<g id="node47" class="node">
<title>38333</title>
<ellipse fill="none" stroke="#000000" cx="139.5175" cy="-968.6003" rx="32.4942" ry="18"/>
<text text-anchor="middle" x="139.5175" y="-964.9003" font-family="Times,serif" font-size="14.00" fill="#000000">38333</text>
</g>
<!-- 2764&#45;&gt;38333 -->
<g id="edge18" class="edge">
<title>2764&#45;&gt;38333</title>
<path fill="none" stroke="#000000" d="M175.7088,-934.092C171.8179,-937.802 167.5696,-941.8527 163.3963,-945.8319"/>
<polygon fill="#000000" stroke="#000000" points="160.8808,-943.3944 156.0587,-952.8283 165.7114,-948.4605 160.8808,-943.3944"/>
</g>
<!-- 38561 -->
<g id="node48" class="node">
<title>38561</title>
<ellipse fill="none" stroke="#000000" cx="63.3648" cy="-871.7644" rx="32.4942" ry="18"/>
<text text-anchor="middle" x="63.3648" y="-868.0644" font-family="Times,serif" font-size="14.00" fill="#000000">38561</text>
</g>
<!-- 2764&#45;&gt;38561 -->
<g id="edge19" class="edge">
<title>2764&#45;&gt;38561</title>
<path fill="none" stroke="#000000" d="M166.8962,-909.8236C147.958,-902.8617 121.5354,-893.1485 100.1238,-885.2774"/>
<polygon fill="#000000" stroke="#000000" points="101.2771,-881.9724 90.6835,-881.807 98.8618,-888.5425 101.2771,-881.9724"/>
</g>
<!-- 2914 -->
<g id="node14" class="node">
<title>2914</title>
<ellipse fill="none" stroke="#000000" cx="608.4971" cy="-521.4291" rx="28.6953" ry="18"/>
<text text-anchor="middle" x="608.4971" y="-517.7291" font-family="Times,serif" font-size="14.00" fill="#000000">2914</text>
</g>
<!-- 6453 -->
<g id="node25" class="node">
<title>6453</title>
<ellipse fill="none" stroke="#000000" cx="650.2612" cy="-580.0786" rx="28.6953" ry="18"/>
<text text-anchor="middle" x="650.2612" y="-576.3786" font-family="Times,serif" font-size="14.00" fill="#000000">6453</text>
</g>
<!-- 2914&#45;&gt;6453 -->
<g id="edge20" class="edge">
<title>2914&#45;&gt;6453</title>
<path fill="none" stroke="#000000" d="M620.3533,-538.0788C624.1772,-543.4487 628.501,-549.5207 632.6485,-555.345"/>
<polygon fill="#000000" stroke="#000000" points="629.8683,-557.4747 638.5199,-563.5903 635.5703,-553.4143 629.8683,-557.4747"/>
</g>
<!-- 3257 -->
<g id="node15" class="node">
<title>3257</title>
<ellipse fill="none" stroke="#000000" cx="692.0253" cy="-638.7281" rx="28.6953" ry="18"/>
<text text-anchor="middle" x="692.0253" y="-635.0281" font-family="Times,serif" font-size="14.00" fill="#000000">3257</text>
</g>
<!-- 3491 -->
<g id="node18" class="node">
<title>3491</title>
<ellipse fill="none" stroke="#000000" cx="733.7894" cy="-697.3775" rx="28.6953" ry="18"/>
<text text-anchor="middle" x="733.7894" y="-693.6775" font-family="Times,serif" font-size="14.00" fill="#000000">3491</text>
</g>
<!-- 3257&#45;&gt;3491 -->
<g id="edge21" class="edge">
<title>3257&#45;&gt;3491</title>
<path fill="none" stroke="#000000" d="M703.8815,-655.3778C707.7054,-660.7476 712.0292,-666.8197 716.1767,-672.6439"/>
<polygon fill="#000000" stroke="#000000" points="713.3965,-674.7736 722.0481,-680.8892 719.0985,-670.7132 713.3965,-674.7736"/>
</g>
<!-- 3356 -->
<g id="node17" class="node">
<title>3356</title>
<ellipse fill="none" stroke="#000000" cx="679.1438" cy="-317.309" rx="28.6953" ry="18"/>
<text text-anchor="middle" x="679.1438" y="-313.609" font-family="Times,serif" font-size="14.00" fill="#000000">3356</text>
</g>
<!-- 3549 -->
<g id="node19" class="node">
<title>3549</title>
<ellipse fill="none" stroke="#000000" cx="524.9689" cy="-404.1302" rx="28.6953" ry="18"/>
<text text-anchor="middle" x="524.9689" y="-400.4302" font-family="Times,serif" font-size="14.00" fill="#000000">3549</text>
</g>
<!-- 3356&#45;&gt;3549 -->
<g id="edge22" class="edge">
<title>3356&#45;&gt;3549</title>
<path fill="none" stroke="#000000" d="M657.7064,-329.3811C631.1623,-344.329 585.7684,-369.8919 555.5682,-386.8987"/>
<polygon fill="#000000" stroke="#000000" points="553.7172,-383.9242 546.7212,-391.8807 557.152,-390.0235 553.7172,-383.9242"/>
</g>
<!-- 3491&#45;&gt;174 -->
<g id="edge23" class="edge">
<title>3491&#45;&gt;174</title>
<path fill="none" stroke="#000000" d="M753.8203,-710.574C758.7401,-713.8152 764.0949,-717.343 769.3078,-720.7773"/>
<polygon fill="#000000" stroke="#000000" points="767.5686,-723.8227 777.8448,-726.4015 771.4196,-717.9773 767.5686,-723.8227"/>
</g>
<!-- 3491&#45;&gt;2497 -->
<g id="edge24" class="edge">
<title>3491&#45;&gt;2497</title>
<path fill="none" stroke="#000000" d="M712.0035,-709.098C677.6535,-727.5777 610.7831,-763.5528 571.4891,-784.6923"/>
<polygon fill="#000000" stroke="#000000" points="569.7495,-781.6537 562.6012,-789.4738 573.066,-787.8183 569.7495,-781.6537"/>
</g>
<!-- 6762 -->
<g id="node27" class="node">
<title>6762</title>
<ellipse fill="none" stroke="#000000" cx="566.733" cy="-462.7797" rx="28.6953" ry="18"/>
<text text-anchor="middle" x="566.733" y="-459.0797" font-family="Times,serif" font-size="14.00" fill="#000000">6762</text>
</g>
<!-- 3549&#45;&gt;6762 -->
<g id="edge25" class="edge">
<title>3549&#45;&gt;6762</title>
<path fill="none" stroke="#000000" d="M536.8251,-420.7799C540.649,-426.1498 544.9729,-432.2218 549.1203,-438.0461"/>
<polygon fill="#000000" stroke="#000000" points="546.3401,-440.1758 554.9917,-446.2913 552.0421,-436.1153 546.3401,-440.1758"/>
</g>
<!-- 30070 -->
<g id="node44" class="node">
<title>30070</title>
<ellipse fill="none" stroke="#000000" cx="401.2466" cy="-582.2834" rx="32.4942" ry="18"/>
<text text-anchor="middle" x="401.2466" y="-578.5834" font-family="Times,serif" font-size="14.00" fill="#000000">30070</text>
</g>
<!-- 3549&#45;&gt;30070 -->
<g id="edge26" class="edge">
<title>3549&#45;&gt;30070</title>
<path fill="none" stroke="#000000" d="M513.3294,-420.8904C491.4991,-452.3249 444.3052,-520.2815 418.6707,-557.1937"/>
<polygon fill="#000000" stroke="#000000" points="415.7747,-555.2278 412.9453,-565.4379 421.5242,-559.2207 415.7747,-555.2278"/>
</g>
<!-- 3597 -->
<g id="node20" class="node">
<title>3597</title>
<ellipse fill="none" stroke="#000000" cx="316.1484" cy="-110.8829" rx="28.6953" ry="18"/>
<text text-anchor="middle" x="316.1484" y="-107.1829" font-family="Times,serif" font-size="14.00" fill="#000000">3597</text>
</g>
<!-- 37179 -->
<g id="node46" class="node">
<title>37179</title>
<ellipse fill="none" stroke="#000000" cx="32.4971" cy="-521.4291" rx="32.4942" ry="18"/>
<text text-anchor="middle" x="32.4971" y="-517.7291" font-family="Times,serif" font-size="14.00" fill="#000000">37179</text>
</g>
<!-- 3741&#45;&gt;37179 -->
<g id="edge27" class="edge">
<title>3741&#45;&gt;37179</title>
<path fill="none" stroke="#000000" d="M75.6268,-521.4291C75.5192,-521.4291 75.4116,-521.4291 75.3038,-521.4291"/>
<polygon fill="#000000" stroke="#000000" points="75.1594,-517.9292 65.1593,-521.4291 75.1593,-524.9292 75.1594,-517.9292"/>
</g>
<!-- 4637 -->
<g id="node22" class="node">
<title>4637</title>
<ellipse fill="none" stroke="#000000" cx="73.7572" cy="-735.5067" rx="28.6953" ry="18"/>
<text text-anchor="middle" x="73.7572" y="-731.8067" font-family="Times,serif" font-size="14.00" fill="#000000">4637</text>
</g>
<!-- 5692 -->
<g id="node24" class="node">
<title>5692</title>
<ellipse fill="none" stroke="#000000" cx="787.9564" cy="-128.4681" rx="28.6953" ry="18"/>
<text text-anchor="middle" x="787.9564" y="-124.7681" font-family="Times,serif" font-size="14.00" fill="#000000">5692</text>
</g>
<!-- 5692&#45;&gt;3597 -->
<g id="edge28" class="edge">
<title>5692&#45;&gt;3597</title>
<path fill="none" stroke="#000000" d="M759.1529,-127.3946C677.9523,-124.368 447.1192,-115.7644 354.9019,-112.3273"/>
<polygon fill="#000000" stroke="#000000" points="354.9975,-108.8285 344.874,-111.9535 354.7367,-115.8236 354.9975,-108.8285"/>
</g>
<!-- 10834 -->
<g id="node37" class="node">
<title>10834</title>
<ellipse fill="none" stroke="#000000" cx="726.2416" cy="-181.2288" rx="32.4942" ry="18"/>
<text text-anchor="middle" x="726.2416" y="-177.5288" font-family="Times,serif" font-size="14.00" fill="#000000">10834</text>
</g>
<!-- 5692&#45;&gt;10834 -->
<g id="edge29" class="edge">
<title>5692&#45;&gt;10834</title>
<path fill="none" stroke="#000000" d="M770.7654,-143.1649C764.9474,-148.1388 758.3171,-153.8071 751.9828,-159.2224"/>
<polygon fill="#000000" stroke="#000000" points="749.5275,-156.7167 744.2009,-165.8752 754.0762,-162.0374 749.5275,-156.7167"/>
</g>
<!-- 11008 -->
<g id="node38" class="node">
<title>11008</title>
<ellipse fill="none" stroke="#000000" cx="399.1279" cy="-62.9746" rx="32.4942" ry="18"/>
<text text-anchor="middle" x="399.1279" y="-59.2746" font-family="Times,serif" font-size="14.00" fill="#000000">11008</text>
</g>
<!-- 5692&#45;&gt;11008 -->
<g id="edge30" class="edge">
<title>5692&#45;&gt;11008</title>
<path fill="none" stroke="#000000" d="M760.3045,-123.8105C692.9738,-112.4694 520.2134,-83.37 440.5284,-69.948"/>
<polygon fill="#000000" stroke="#000000" points="440.8186,-66.4477 430.3761,-68.238 439.6559,-73.3504 440.8186,-66.4477"/>
</g>
<!-- 27865 -->
<g id="node42" class="node">
<title>27865</title>
<ellipse fill="none" stroke="#000000" cx="489.6746" cy="-31.6361" rx="32.4942" ry="18"/>
<text text-anchor="middle" x="489.6746" y="-27.9361" font-family="Times,serif" font-size="14.00" fill="#000000">27865</text>
</g>
<!-- 5692&#45;&gt;27865 -->
<g id="edge31" class="edge">
<title>5692&#45;&gt;27865</title>
<path fill="none" stroke="#000000" d="M762.5251,-120.2123C710.0772,-103.186 589.6499,-64.0913 527.8267,-44.0215"/>
<polygon fill="#000000" stroke="#000000" points="528.6604,-40.6124 518.0683,-40.8536 526.499,-47.2704 528.6604,-40.6124"/>
</g>
<!-- 28065 -->
<g id="node43" class="node">
<title>28065</title>
<ellipse fill="none" stroke="#000000" cx="584.5158" cy="-18" rx="32.4942" ry="18"/>
<text text-anchor="middle" x="584.5158" y="-14.3" font-family="Times,serif" font-size="14.00" fill="#000000">28065</text>
</g>
<!-- 5692&#45;&gt;28065 -->
<g id="edge32" class="edge">
<title>5692&#45;&gt;28065</title>
<path fill="none" stroke="#000000" d="M766.1847,-116.6461C730.3531,-97.1896 658.7669,-58.3183 616.9506,-35.6121"/>
<polygon fill="#000000" stroke="#000000" points="618.4602,-32.4491 608.002,-30.753 615.1199,-38.6007 618.4602,-32.4491"/>
</g>
<!-- 52317 -->
<g id="node49" class="node">
<title>52317</title>
<ellipse fill="none" stroke="#000000" cx="680.2238" cy="-22.5591" rx="32.4942" ry="18"/>
<text text-anchor="middle" x="680.2238" y="-18.8591" font-family="Times,serif" font-size="14.00" fill="#000000">52317</text>
</g>
<!-- 5692&#45;&gt;52317 -->
<g id="edge33" class="edge">
<title>5692&#45;&gt;52317</title>
<path fill="none" stroke="#000000" d="M772.5209,-113.2939C754.4883,-95.5665 724.4658,-66.0523 703.5775,-45.5176"/>
<polygon fill="#000000" stroke="#000000" points="705.9191,-42.9115 696.3343,-38.3969 701.0118,-47.9033 705.9191,-42.9115"/>
</g>
<!-- 52375 -->
<g id="node50" class="node">
<title>52375</title>
<ellipse fill="none" stroke="#000000" cx="773.3394" cy="-45.1487" rx="32.4942" ry="18"/>
<text text-anchor="middle" x="773.3394" y="-41.4487" font-family="Times,serif" font-size="14.00" fill="#000000">52375</text>
</g>
<!-- 5692&#45;&gt;52375 -->
<g id="edge34" class="edge">
<title>5692&#45;&gt;52375</title>
<path fill="none" stroke="#000000" d="M784.7847,-110.3891C782.8884,-99.5799 780.4381,-85.6128 778.2915,-73.3768"/>
<polygon fill="#000000" stroke="#000000" points="781.6802,-72.4373 776.5049,-63.1925 774.7855,-73.6469 781.6802,-72.4373"/>
</g>
<!-- 52376 -->
<g id="node51" class="node">
<title>52376</title>
<ellipse fill="none" stroke="#000000" cx="860.4971" cy="-84.9523" rx="32.4942" ry="18"/>
<text text-anchor="middle" x="860.4971" y="-81.2523" font-family="Times,serif" font-size="14.00" fill="#000000">52376</text>
</g>
<!-- 5692&#45;&gt;52376 -->
<g id="edge35" class="edge">
<title>5692&#45;&gt;52376</title>
<path fill="none" stroke="#000000" d="M808.9382,-115.8815C815.4109,-111.9987 822.6787,-107.6389 829.6704,-103.4447"/>
<polygon fill="#000000" stroke="#000000" points="831.5233,-106.4147 838.2982,-98.269 827.9223,-100.4119 831.5233,-106.4147"/>
</g>
<!-- 52380 -->
<g id="node52" class="node">
<title>52380</title>
<ellipse fill="none" stroke="#000000" cx="938.5469" cy="-140.5314" rx="32.4942" ry="18"/>
<text text-anchor="middle" x="938.5469" y="-136.8314" font-family="Times,serif" font-size="14.00" fill="#000000">52380</text>
</g>
<!-- 5692&#45;&gt;52380 -->
<g id="edge36" class="edge">
<title>5692&#45;&gt;52380</title>
<path fill="none" stroke="#000000" d="M816.6358,-130.7655C839.1367,-132.568 870.7943,-135.1039 896.21,-137.1399"/>
<polygon fill="#000000" stroke="#000000" points="896.0719,-140.64 906.3194,-137.9497 896.6309,-133.6623 896.0719,-140.64"/>
</g>
<!-- 52413 -->
<g id="node53" class="node">
<title>52413</title>
<ellipse fill="none" stroke="#000000" cx="1004.6679" cy="-209.877" rx="32.4942" ry="18"/>
<text text-anchor="middle" x="1004.6679" y="-206.177" font-family="Times,serif" font-size="14.00" fill="#000000">52413</text>
</g>
<!-- 5692&#45;&gt;52413 -->
<g id="edge37" class="edge">
<title>5692&#45;&gt;52413</title>
<path fill="none" stroke="#000000" d="M812.816,-137.8068C850.9561,-152.1343 924.1159,-179.6172 968.2445,-196.1944"/>
<polygon fill="#000000" stroke="#000000" points="967.1389,-199.5178 977.731,-199.758 969.6006,-192.9649 967.1389,-199.5178"/>
</g>
<!-- 52431 -->
<g id="node54" class="node">
<title>52431</title>
<ellipse fill="none" stroke="#000000" cx="1056.4702" cy="-290.483" rx="32.4942" ry="18"/>
<text text-anchor="middle" x="1056.4702" y="-286.783" font-family="Times,serif" font-size="14.00" fill="#000000">52431</text>
</g>
<!-- 5692&#45;&gt;52431 -->
<g id="edge38" class="edge">
<title>5692&#45;&gt;52431</title>
<path fill="none" stroke="#000000" d="M809.0262,-141.1812C856.2225,-169.6583 970.599,-238.6704 1025.739,-271.9405"/>
<polygon fill="#000000" stroke="#000000" points="1024.005,-274.982 1034.3753,-277.1515 1027.6214,-268.9885 1024.005,-274.982"/>
</g>
<!-- 262230 -->
<g id="node55" class="node">
<title>262230</title>
<ellipse fill="none" stroke="#000000" cx="1092.0816" cy="-379.4359" rx="37.0935" ry="18"/>
<text text-anchor="middle" x="1092.0816" y="-375.7359" font-family="Times,serif" font-size="14.00" fill="#000000">262230</text>
</g>
<!-- 5692&#45;&gt;262230 -->
<g id="edge39" class="edge">
<title>5692&#45;&gt;262230</title>
<path fill="none" stroke="#000000" d="M805.622,-143.046C856.5959,-185.1102 1004.1784,-306.8971 1065.193,-357.2472"/>
<polygon fill="#000000" stroke="#000000" points="1063.2682,-360.1966 1073.2088,-363.8619 1067.7236,-354.7975 1063.2682,-360.1966"/>
</g>
<!-- 264608 -->
<g id="node56" class="node">
<title>264608</title>
<ellipse fill="none" stroke="#000000" cx="1110.215" cy="-473.5209" rx="37.0935" ry="18"/>
<text text-anchor="middle" x="1110.215" y="-469.8209" font-family="Times,serif" font-size="14.00" fill="#000000">264608</text>
</g>
<!-- 5692&#45;&gt;264608 -->
<g id="edge40" class="edge">
<title>5692&#45;&gt;264608</title>
<path fill="none" stroke="#000000" d="M802.6406,-144.1909C853.9921,-199.1747 1025.7578,-383.0898 1087.7013,-449.4148"/>
<polygon fill="#000000" stroke="#000000" points="1085.312,-451.9843 1094.6955,-456.9037 1090.4279,-447.2064 1085.312,-451.9843"/>
</g>
<!-- 6453&#45;&gt;3257 -->
<g id="edge41" class="edge">
<title>6453&#45;&gt;3257</title>
<path fill="none" stroke="#000000" d="M662.1174,-596.7283C665.9413,-602.0982 670.2651,-608.1702 674.4126,-613.9945"/>
<polygon fill="#000000" stroke="#000000" points="671.6324,-616.1242 680.284,-622.2397 677.3344,-612.0637 671.6324,-616.1242"/>
</g>
<!-- 6762&#45;&gt;2914 -->
<g id="edge42" class="edge">
<title>6762&#45;&gt;2914</title>
<path fill="none" stroke="#000000" d="M578.5892,-479.4294C582.4131,-484.7992 586.737,-490.8713 590.8844,-496.6955"/>
<polygon fill="#000000" stroke="#000000" points="588.1042,-498.8252 596.7558,-504.9408 593.8062,-494.7648 588.1042,-498.8252"/>
</g>
<!-- 6904 -->
<g id="node28" class="node">
<title>6904</title>
<ellipse fill="none" stroke="#000000" cx="352.5125" cy="-653.3984" rx="28.6953" ry="18"/>
<text text-anchor="middle" x="352.5125" y="-649.6984" font-family="Times,serif" font-size="14.00" fill="#000000">6904</text>
</g>
<!-- 6904&#45;&gt;2687 -->
<g id="edge43" class="edge">
<title>6904&#45;&gt;2687</title>
<path fill="none" stroke="#000000" d="M330.1298,-664.9375C326.8362,-666.6354 323.3928,-668.4106 319.958,-670.1814"/>
<polygon fill="#000000" stroke="#000000" points="318.2792,-667.1091 310.9946,-674.8023 321.4868,-673.3309 318.2792,-667.1091"/>
</g>
<!-- 7016 -->
<g id="node29" class="node">
<title>7016</title>
<ellipse fill="none" stroke="#000000" cx="341.1272" cy="-414.3904" rx="28.6953" ry="18"/>
<text text-anchor="middle" x="341.1272" y="-410.6904" font-family="Times,serif" font-size="14.00" fill="#000000">7016</text>
</g>
<!-- 7922 -->
<g id="node34" class="node">
<title>7922</title>
<ellipse fill="none" stroke="#000000" cx="274.2847" cy="-387.6307" rx="28.6953" ry="18"/>
<text text-anchor="middle" x="274.2847" y="-383.9307" font-family="Times,serif" font-size="14.00" fill="#000000">7922</text>
</g>
<!-- 7016&#45;&gt;7922 -->
<g id="edge44" class="edge">
<title>7016&#45;&gt;7922</title>
<path fill="none" stroke="#000000" d="M316.9955,-404.7295C314.0974,-403.5693 311.098,-402.3685 308.0945,-401.1661"/>
<polygon fill="#000000" stroke="#000000" points="309.1899,-397.8346 298.6054,-397.3672 306.5883,-404.3332 309.1899,-397.8346"/>
</g>
<!-- 7473 -->
<g id="node31" class="node">
<title>7473</title>
<ellipse fill="none" stroke="#000000" cx="113.6051" cy="-426.0465" rx="28.6953" ry="18"/>
<text text-anchor="middle" x="113.6051" y="-422.3465" font-family="Times,serif" font-size="14.00" fill="#000000">7473</text>
</g>
<!-- 7474 -->
<g id="node32" class="node">
<title>7474</title>
<ellipse fill="none" stroke="#000000" cx="42.9062" cy="-630.4379" rx="28.6953" ry="18"/>
<text text-anchor="middle" x="42.9062" y="-626.7379" font-family="Times,serif" font-size="14.00" fill="#000000">7474</text>
</g>
<!-- 9505&#45;&gt;7473 -->
<g id="edge45" class="edge">
<title>9505&#45;&gt;7473</title>
<path fill="none" stroke="#000000" d="M156.7675,-434.3654C155.0082,-434.0263 153.2218,-433.682 151.4268,-433.3361"/>
<polygon fill="#000000" stroke="#000000" points="151.6644,-429.8175 141.1827,-431.3617 150.3396,-436.691 151.6644,-429.8175"/>
</g>
<!-- 12956 -->
<g id="node39" class="node">
<title>12956</title>
<ellipse fill="none" stroke="#000000" cx="702.6927" cy="-249.2689" rx="32.4942" ry="18"/>
<text text-anchor="middle" x="702.6927" y="-245.5689" font-family="Times,serif" font-size="14.00" fill="#000000">12956</text>
</g>
<!-- 10834&#45;&gt;12956 -->
<g id="edge46" class="edge">
<title>10834&#45;&gt;12956</title>
<path fill="none" stroke="#000000" d="M720.0544,-199.1056C717.6666,-206.0045 714.8798,-214.0565 712.2467,-221.6643"/>
<polygon fill="#000000" stroke="#000000" points="708.8836,-220.6806 708.9203,-231.2753 715.4986,-222.9701 708.8836,-220.6806"/>
</g>
<!-- 22927 -->
<g id="node41" class="node">
<title>22927</title>
<ellipse fill="none" stroke="#000000" cx="295.844" cy="-223.315" rx="32.4942" ry="18"/>
<text text-anchor="middle" x="295.844" y="-219.615" font-family="Times,serif" font-size="14.00" fill="#000000">22927</text>
</g>
<!-- 10834&#45;&gt;22927 -->
<g id="edge47" class="edge">
<title>10834&#45;&gt;22927</title>
<path fill="none" stroke="#000000" d="M693.8918,-184.3921C617.1354,-191.8977 424.0276,-210.7807 338.1516,-219.178"/>
<polygon fill="#000000" stroke="#000000" points="337.5939,-215.7157 327.9821,-220.1724 338.2752,-222.6825 337.5939,-215.7157"/>
</g>
<!-- 12956&#45;&gt;3356 -->
<g id="edge48" class="edge">
<title>12956&#45;&gt;3356</title>
<path fill="none" stroke="#000000" d="M696.5055,-267.1456C694.1178,-274.0446 691.3309,-282.0965 688.6978,-289.7043"/>
<polygon fill="#000000" stroke="#000000" points="685.3347,-288.7206 685.3714,-299.3154 691.9497,-291.0101 685.3347,-288.7206"/>
</g>
<!-- 18540 -->
<g id="node40" class="node">
<title>18540</title>
<ellipse fill="none" stroke="#000000" cx="366.2161" cy="-365.7246" rx="32.4942" ry="18"/>
<text text-anchor="middle" x="366.2161" y="-362.0246" font-family="Times,serif" font-size="14.00" fill="#000000">18540</text>
</g>
<!-- 30070&#45;&gt;6904 -->
<g id="edge49" class="edge">
<title>30070&#45;&gt;6904</title>
<path fill="none" stroke="#000000" d="M389.6973,-599.1366C383.7495,-607.816 376.3773,-618.5739 369.7695,-628.2162"/>
<polygon fill="#000000" stroke="#000000" points="366.7447,-626.4386 363.9789,-636.6661 372.519,-630.3957 366.7447,-626.4386"/>
</g>
<!-- 30070&#45;&gt;7016 -->
<g id="edge50" class="edge">
<title>30070&#45;&gt;7016</title>
<path fill="none" stroke="#000000" d="M394.8128,-564.3159C384.2535,-534.8275 363.187,-475.996 350.8154,-441.4464"/>
<polygon fill="#000000" stroke="#000000" points="354.0908,-440.211 347.4244,-431.9763 347.5005,-442.5709 354.0908,-440.211"/>
</g>
<!-- 30070&#45;&gt;18540 -->
<g id="edge51" class="edge">
<title>30070&#45;&gt;18540</title>
<path fill="none" stroke="#000000" d="M398.3202,-564.1922C392.2156,-526.4537 378.0854,-439.1006 370.7773,-393.9219"/>
<polygon fill="#000000" stroke="#000000" points="374.2109,-393.2293 369.1588,-383.9166 367.3007,-394.3472 374.2109,-393.2293"/>
</g>
<!-- 32787&#45;&gt;703 -->
<g id="edge52" class="edge">
<title>32787&#45;&gt;703</title>
<path fill="none" stroke="#000000" d="M224.6374,-849.6476C252.2006,-886.962 318.9789,-977.3647 351.2149,-1021.005"/>
<polygon fill="#000000" stroke="#000000" points="348.4229,-1023.116 357.1797,-1029.0799 354.0534,-1018.9569 348.4229,-1023.116"/>
</g>
<!-- 32787&#45;&gt;2764 -->
<g id="edge53" class="edge">
<title>32787&#45;&gt;2764</title>
<path fill="none" stroke="#000000" d="M207.9364,-851.2055C205.1458,-862.7903 201.4783,-878.0154 198.328,-891.0937"/>
<polygon fill="#000000" stroke="#000000" points="194.8782,-890.4697 195.9389,-901.0113 201.6836,-892.1091 194.8782,-890.4697"/>
</g>
<!-- 32787&#45;&gt;4637 -->
<g id="edge54" class="edge">
<title>32787&#45;&gt;4637</title>
<path fill="none" stroke="#000000" d="M192.1772,-818.8076C168.2001,-801.9413 128.0479,-773.6968 101.2361,-754.8364"/>
<polygon fill="#000000" stroke="#000000" points="103.23,-751.9598 93.0372,-749.0689 99.2025,-757.6851 103.23,-751.9598"/>
</g>
<!-- 32787&#45;&gt;7474 -->
<g id="edge55" class="edge">
<title>32787&#45;&gt;7474</title>
<path fill="none" stroke="#000000" d="M198.462,-816.4063C168.4559,-780.5338 97.4076,-695.5949 62.6905,-654.0902"/>
<polygon fill="#000000" stroke="#000000" points="65.3551,-651.8206 56.2544,-646.3958 59.9858,-656.3118 65.3551,-651.8206"/>
</g>
</g>
</svg>
