<?xml version="1.0" encoding="UTF-8" standalone="no"?>
<!DOCTYPE svg PUBLIC "-//W3C//DTD SVG 1.1//EN"
 "http://www.w3.org/Graphics/SVG/1.1/DTD/svg11.dtd">
<!-- Generated by graphviz version 2.40.1 (20161225.0304)
 -->
<!-- Title: %3 Pages: 1 -->
<svg width="21301pt" height="23884pt"
 viewBox="0.00 0.00 21301.36 23884.45" xmlns="http://www.w3.org/2000/svg" xmlns:xlink="http://www.w3.org/1999/xlink">
<g id="graph0" class="graph" transform="scale(1 1) rotate(0) translate(4 23880.4482)">
<title>%3</title>
<polygon fill="#ffffff" stroke="transparent" points="-4,4 -4,-23880.4482 21297.3562,-23880.4482 21297.3562,4 -4,4"/>
<!-- 174 -->
<g id="node1" class="node">
<title>174</title>
<ellipse fill="none" stroke="#000000" cx="10604.7887" cy="-13319.552" rx="27" ry="18"/>
<text text-anchor="middle" x="10604.7887" y="-13315.852" font-family="Times,serif" font-size="14.00" fill="#000000">174</text>
</g>
<!-- 209 -->
<g id="node2" class="node">
<title>209</title>
<ellipse fill="none" stroke="#000000" cx="21266.3562" cy="-13319.552" rx="27" ry="18"/>
<text text-anchor="middle" x="21266.3562" y="-13315.852" font-family="Times,serif" font-size="14.00" fill="#000000">209</text>
</g>
<!-- 174&#45;&gt;209 -->
<g id="edge1" class="edge">
<title>174&#45;&gt;209</title>
<path fill="none" stroke="#000000" d="M10632.1512,-13319.552C11204.202,-13319.552 20561.1099,-13319.552 21228.8128,-13319.552"/>
<polygon fill="#000000" stroke="#000000" points="21229.2899,-13323.0521 21239.2899,-13319.552 21229.2898,-13316.0521 21229.2899,-13323.0521"/>
</g>
<!-- 701 -->
<g id="node3" class="node">
<title>701</title>
<ellipse fill="none" stroke="#000000" cx="20293.6878" cy="-17768.6256" rx="27" ry="18"/>
<text text-anchor="middle" x="20293.6878" y="-17764.9256" font-family="Times,serif" font-size="14.00" fill="#000000">701</text>
</g>
<!-- 174&#45;&gt;701 -->
<g id="edge2" class="edge">
<title>174&#45;&gt;701</title>
<path fill="none" stroke="#000000" d="M10627.2723,-13329.8763C11123.5972,-13557.7851 19676.6627,-17485.2921 20262.1713,-17754.1535"/>
<polygon fill="#000000" stroke="#000000" points="20260.777,-17757.3645 20271.3253,-17758.3569 20263.6981,-17751.0032 20260.777,-17757.3645"/>
</g>
<!-- 1239 -->
<g id="node5" class="node">
<title>1239</title>
<ellipse fill="none" stroke="#000000" cx="17551.9464" cy="-21406.9509" rx="28.6953" ry="18"/>
<text text-anchor="middle" x="17551.9464" y="-21403.2509" font-family="Times,serif" font-size="14.00" fill="#000000">1239</text>
</g>
<!-- 174&#45;&gt;1239 -->
<g id="edge3" class="edge">
<title>174&#45;&gt;1239</title>
<path fill="none" stroke="#000000" d="M10618.2505,-13335.2232C10945.3934,-13716.0602 17129.1751,-20914.79 17531.4226,-21383.0586"/>
<polygon fill="#000000" stroke="#000000" points="17529.0054,-21385.616 17538.1764,-21390.9209 17534.3153,-21381.0547 17529.0054,-21385.616"/>
</g>
<!-- 1273 -->
<g id="node6" class="node">
<title>1273</title>
<ellipse fill="none" stroke="#000000" cx="13540.2042" cy="-23569.0572" rx="28.6953" ry="18"/>
<text text-anchor="middle" x="13540.2042" y="-23565.3572" font-family="Times,serif" font-size="14.00" fill="#000000">1273</text>
</g>
<!-- 174&#45;&gt;1273 -->
<g id="edge4" class="edge">
<title>174&#45;&gt;1273</title>
<path fill="none" stroke="#000000" d="M10609.9522,-13337.5812C10742.1284,-13799.097 13369.0418,-22971.4142 13532.2656,-23541.3381"/>
<polygon fill="#000000" stroke="#000000" points="13528.9727,-23542.553 13535.0908,-23551.2028 13535.7022,-23540.6256 13528.9727,-23542.553"/>
</g>
<!-- 1299 -->
<g id="node7" class="node">
<title>1299</title>
<ellipse fill="none" stroke="#000000" cx="8992.1243" cy="-23858.4482" rx="28.6953" ry="18"/>
<text text-anchor="middle" x="8992.1243" y="-23854.7482" font-family="Times,serif" font-size="14.00" fill="#000000">1299</text>
</g>
<!-- 174&#45;&gt;1299 -->
<g id="edge5" class="edge">
<title>174&#45;&gt;1299</title>
<path fill="none" stroke="#000000" d="M10602.008,-13337.7243C10530.0649,-13807.8783 9085.4811,-23248.3537 8996.4206,-23830.3711"/>
<polygon fill="#000000" stroke="#000000" points="8992.9334,-23830.0217 8994.8805,-23840.4361 8999.8529,-23831.0806 8992.9334,-23830.0217"/>
</g>
<!-- 2828 -->
<g id="node13" class="node">
<title>2828</title>
<ellipse fill="none" stroke="#000000" cx="4738.6986" cy="-22222.2486" rx="28.6953" ry="18"/>
<text text-anchor="middle" x="4738.6986" y="-22218.5486" font-family="Times,serif" font-size="14.00" fill="#000000">2828</text>
</g>
<!-- 174&#45;&gt;2828 -->
<g id="edge6" class="edge">
<title>174&#45;&gt;2828</title>
<path fill="none" stroke="#000000" d="M10593.8471,-13336.1576C10322.3977,-13748.1239 5088.1651,-21691.8794 4755.2867,-22197.0738"/>
<polygon fill="#000000" stroke="#000000" points="4752.2904,-22195.2599 4749.7108,-22205.5359 4758.1356,-22199.1114 4752.2904,-22195.2599"/>
</g>
<!-- 5511 -->
<g id="node23" class="node">
<title>5511</title>
<ellipse fill="none" stroke="#000000" cx="1557.0824" cy="-18959.4129" rx="28.6953" ry="18"/>
<text text-anchor="middle" x="1557.0824" y="-18955.7129" font-family="Times,serif" font-size="14.00" fill="#000000">5511</text>
</g>
<!-- 174&#45;&gt;5511 -->
<g id="edge7" class="edge">
<title>174&#45;&gt;5511</title>
<path fill="none" stroke="#000000" d="M10584.8643,-13331.9718C10132.6818,-13613.8384 2130.1061,-18602.2203 1586.1455,-18941.2966"/>
<polygon fill="#000000" stroke="#000000" points="1584.2814,-18938.3342 1577.6466,-18946.5943 1587.9844,-18944.2746 1584.2814,-18938.3342"/>
</g>
<!-- 6461 -->
<g id="node26" class="node">
<title>6461</title>
<ellipse fill="none" stroke="#000000" cx="28.5975" cy="-14666.1028" rx="28.6953" ry="18"/>
<text text-anchor="middle" x="28.5975" y="-14662.4028" font-family="Times,serif" font-size="14.00" fill="#000000">6461</text>
</g>
<!-- 174&#45;&gt;6461 -->
<g id="edge8" class="edge">
<title>174&#45;&gt;6461</title>
<path fill="none" stroke="#000000" d="M10578.0878,-13322.9515C10015.3116,-13394.6036 738.0112,-14575.7809 66.8793,-14661.2288"/>
<polygon fill="#000000" stroke="#000000" points="66.2402,-14657.7818 56.7624,-14662.5168 67.1244,-14664.7257 66.2402,-14657.7818"/>
</g>
<!-- 7018 -->
<g id="node30" class="node">
<title>7018</title>
<ellipse fill="none" stroke="#000000" cx="432.5174" cy="-10126.7606" rx="28.6953" ry="18"/>
<text text-anchor="middle" x="432.5174" y="-10123.0606" font-family="Times,serif" font-size="14.00" fill="#000000">7018</text>
</g>
<!-- 174&#45;&gt;7018 -->
<g id="edge9" class="edge">
<title>174&#45;&gt;7018</title>
<path fill="none" stroke="#000000" d="M10579.9482,-13311.7552C10046.7483,-13144.3987 1102.005,-10336.8941 467.9228,-10137.8734"/>
<polygon fill="#000000" stroke="#000000" points="468.9694,-10134.5336 458.3802,-10134.8782 466.8731,-10141.2123 468.9694,-10134.5336"/>
</g>
<!-- 703 -->
<g id="node4" class="node">
<title>703</title>
<ellipse fill="none" stroke="#000000" cx="17261.7661" cy="-1745.5893" rx="27" ry="18"/>
<text text-anchor="middle" x="17261.7661" y="-1741.8893" font-family="Times,serif" font-size="14.00" fill="#000000">703</text>
</g>
<!-- 9498 -->
<g id="node35" class="node">
<title>9498</title>
<ellipse fill="none" stroke="#000000" cx="17265.5337" cy="-1618.0475" rx="28.6953" ry="18"/>
<text text-anchor="middle" x="17265.5337" y="-1614.3475" font-family="Times,serif" font-size="14.00" fill="#000000">9498</text>
</g>
<!-- 703&#45;&gt;9498 -->
<g id="edge10" class="edge">
<title>703&#45;&gt;9498</title>
<path fill="none" stroke="#000000" d="M17262.2979,-1727.5862C17262.9199,-1706.5315 17263.9574,-1671.4087 17264.6897,-1646.6192"/>
<polygon fill="#000000" stroke="#000000" points="17268.1955,-1646.471 17264.9924,-1636.372 17261.1985,-1646.2643 17268.1955,-1646.471"/>
</g>
<!-- 2497 -->
<g id="node8" class="node">
<title>2497</title>
<ellipse fill="none" stroke="#000000" cx="7014.4668" cy="-1982.8972" rx="28.6953" ry="18"/>
<text text-anchor="middle" x="7014.4668" y="-1979.1972" font-family="Times,serif" font-size="14.00" fill="#000000">2497</text>
</g>
<!-- 3320 -->
<g id="node16" class="node">
<title>3320</title>
<ellipse fill="none" stroke="#000000" cx="6886.7643" cy="-1963.317" rx="28.6953" ry="18"/>
<text text-anchor="middle" x="6886.7643" y="-1959.617" font-family="Times,serif" font-size="14.00" fill="#000000">3320</text>
</g>
<!-- 2497&#45;&gt;3320 -->
<g id="edge11" class="edge">
<title>2497&#45;&gt;3320</title>
<path fill="none" stroke="#000000" d="M6986.442,-1978.6003C6968.3105,-1975.8202 6944.4805,-1972.1664 6924.6672,-1969.1285"/>
<polygon fill="#000000" stroke="#000000" points="6925.1387,-1965.66 6914.7238,-1967.6039 6924.0778,-1972.5791 6925.1387,-1965.66"/>
</g>
<!-- 2516 -->
<g id="node9" class="node">
<title>2516</title>
<ellipse fill="none" stroke="#000000" cx="16915.4241" cy="-1536.4946" rx="28.6953" ry="18"/>
<text text-anchor="middle" x="16915.4241" y="-1532.7946" font-family="Times,serif" font-size="14.00" fill="#000000">2516</text>
</g>
<!-- 32787 -->
<g id="node45" class="node">
<title>32787</title>
<ellipse fill="none" stroke="#000000" cx="17255.6986" cy="-1950.9911" rx="32.4942" ry="18"/>
<text text-anchor="middle" x="17255.6986" y="-1947.2911" font-family="Times,serif" font-size="14.00" fill="#000000">32787</text>
</g>
<!-- 2516&#45;&gt;32787 -->
<g id="edge12" class="edge">
<title>2516&#45;&gt;32787</title>
<path fill="none" stroke="#000000" d="M16928.5547,-1552.4894C16980.5363,-1615.8094 17172.1452,-1849.2127 17235.3346,-1926.1853"/>
<polygon fill="#000000" stroke="#000000" points="17233.0026,-1928.8607 17242.053,-1934.369 17238.413,-1924.4191 17233.0026,-1928.8607"/>
</g>
<!-- 2686 -->
<g id="node10" class="node">
<title>2686</title>
<ellipse fill="none" stroke="#000000" cx="16368.0068" cy="-1389.9152" rx="28.6953" ry="18"/>
<text text-anchor="middle" x="16368.0068" y="-1386.2152" font-family="Times,serif" font-size="14.00" fill="#000000">2686</text>
</g>
<!-- 3741 -->
<g id="node21" class="node">
<title>3741</title>
<ellipse fill="none" stroke="#000000" cx="16239.4579" cy="-1377.011" rx="28.6953" ry="18"/>
<text text-anchor="middle" x="16239.4579" y="-1373.311" font-family="Times,serif" font-size="14.00" fill="#000000">3741</text>
</g>
<!-- 2686&#45;&gt;3741 -->
<g id="edge13" class="edge">
<title>2686&#45;&gt;3741</title>
<path fill="none" stroke="#000000" d="M16339.4776,-1387.0513C16321.4202,-1385.2387 16297.8437,-1382.872 16278.1163,-1380.8917"/>
<polygon fill="#000000" stroke="#000000" points="16278.2069,-1377.3832 16267.9073,-1379.8668 16277.5077,-1384.3482 16278.2069,-1377.3832"/>
</g>
<!-- 2687 -->
<g id="node11" class="node">
<title>2687</title>
<ellipse fill="none" stroke="#000000" cx="16833.4484" cy="-1436.6381" rx="28.6953" ry="18"/>
<text text-anchor="middle" x="16833.4484" y="-1432.9381" font-family="Times,serif" font-size="14.00" fill="#000000">2687</text>
</g>
<!-- 2687&#45;&gt;2516 -->
<g id="edge14" class="edge">
<title>2687&#45;&gt;2516</title>
<path fill="none" stroke="#000000" d="M16846.6192,-1452.6818C16859.9448,-1468.914 16880.6976,-1494.1935 16895.9288,-1512.747"/>
<polygon fill="#000000" stroke="#000000" points="16893.2356,-1514.9824 16902.2859,-1520.4907 16898.646,-1510.5408 16893.2356,-1514.9824"/>
</g>
<!-- 2687&#45;&gt;2686 -->
<g id="edge15" class="edge">
<title>2687&#45;&gt;2686</title>
<path fill="none" stroke="#000000" d="M16805.0336,-1433.7857C16725.0099,-1425.7526 16497.672,-1402.9315 16406.5145,-1393.7808"/>
<polygon fill="#000000" stroke="#000000" points="16406.6443,-1390.2763 16396.3447,-1392.7599 16405.9451,-1397.2413 16406.6443,-1390.2763"/>
</g>
<!-- 9505 -->
<g id="node36" class="node">
<title>9505</title>
<ellipse fill="none" stroke="#000000" cx="16945.2359" cy="-912.1406" rx="28.6953" ry="18"/>
<text text-anchor="middle" x="16945.2359" y="-908.4406" font-family="Times,serif" font-size="14.00" fill="#000000">9505</text>
</g>
<!-- 2687&#45;&gt;9505 -->
<g id="edge16" class="edge">
<title>2687&#45;&gt;9505</title>
<path fill="none" stroke="#000000" d="M16837.2964,-1418.5837C16853.8577,-1340.8792 16919.1337,-1034.6099 16939.2812,-940.0798"/>
<polygon fill="#000000" stroke="#000000" points="16942.7426,-940.629 16941.4041,-930.1191 16935.8964,-939.1698 16942.7426,-940.629"/>
</g>
<!-- 2764 -->
<g id="node12" class="node">
<title>2764</title>
<ellipse fill="none" stroke="#000000" cx="17504.4911" cy="-2056.1112" rx="28.6953" ry="18"/>
<text text-anchor="middle" x="17504.4911" y="-2052.4112" font-family="Times,serif" font-size="14.00" fill="#000000">2764</text>
</g>
<!-- 7545 -->
<g id="node33" class="node">
<title>7545</title>
<ellipse fill="none" stroke="#000000" cx="17487.4074" cy="-1924.1176" rx="28.6953" ry="18"/>
<text text-anchor="middle" x="17487.4074" y="-1920.4176" font-family="Times,serif" font-size="14.00" fill="#000000">7545</text>
</g>
<!-- 2764&#45;&gt;7545 -->
<g id="edge17" class="edge">
<title>2764&#45;&gt;7545</title>
<path fill="none" stroke="#000000" d="M17502.1515,-2038.0348C17499.2922,-2015.9432 17494.4213,-1978.3089 17491.0652,-1952.3791"/>
<polygon fill="#000000" stroke="#000000" points="17494.5283,-1951.8672 17489.7735,-1942.3992 17487.5862,-1952.7658 17494.5283,-1951.8672"/>
</g>
<!-- 38333 -->
<g id="node47" class="node">
<title>38333</title>
<ellipse fill="none" stroke="#000000" cx="17627.837" cy="-2106.1108" rx="32.4942" ry="18"/>
<text text-anchor="middle" x="17627.837" y="-2102.4108" font-family="Times,serif" font-size="14.00" fill="#000000">38333</text>
</g>
<!-- 2764&#45;&gt;38333 -->
<g id="edge18" class="edge">
<title>2764&#45;&gt;38333</title>
<path fill="none" stroke="#000000" d="M17528.5662,-2065.8703C17546.6024,-2073.1814 17571.5759,-2083.3047 17591.9619,-2091.5684"/>
<polygon fill="#000000" stroke="#000000" points="17590.6742,-2094.823 17601.2566,-2095.3361 17593.3039,-2088.3357 17590.6742,-2094.823"/>
</g>
<!-- 38561 -->
<g id="node48" class="node">
<title>38561</title>
<ellipse fill="none" stroke="#000000" cx="17397.9391" cy="-2135.8661" rx="32.4942" ry="18"/>
<text text-anchor="middle" x="17397.9391" y="-2132.1661" font-family="Times,serif" font-size="14.00" fill="#000000">38561</text>
</g>
<!-- 2764&#45;&gt;38561 -->
<g id="edge19" class="edge">
<title>2764&#45;&gt;38561</title>
<path fill="none" stroke="#000000" d="M17485.9312,-2070.0034C17469.2069,-2082.5216 17444.3984,-2101.091 17425.3827,-2115.3244"/>
<polygon fill="#000000" stroke="#000000" points="17423.2747,-2112.5303 17417.3663,-2121.3248 17427.4693,-2118.1344 17423.2747,-2112.5303"/>
</g>
<!-- 2914 -->
<g id="node14" class="node">
<title>2914</title>
<ellipse fill="none" stroke="#000000" cx="12603.719" cy="-2839.8802" rx="28.6953" ry="18"/>
<text text-anchor="middle" x="12603.719" y="-2836.1802" font-family="Times,serif" font-size="14.00" fill="#000000">2914</text>
</g>
<!-- 6453 -->
<g id="node25" class="node">
<title>6453</title>
<ellipse fill="none" stroke="#000000" cx="12476.0164" cy="-2820.2999" rx="28.6953" ry="18"/>
<text text-anchor="middle" x="12476.0164" y="-2816.5999" font-family="Times,serif" font-size="14.00" fill="#000000">6453</text>
</g>
<!-- 2914&#45;&gt;6453 -->
<g id="edge20" class="edge">
<title>2914&#45;&gt;6453</title>
<path fill="none" stroke="#000000" d="M12575.6941,-2835.5832C12557.5627,-2832.8032 12533.7327,-2829.1494 12513.9194,-2826.1115"/>
<polygon fill="#000000" stroke="#000000" points="12514.3909,-2822.6429 12503.9759,-2824.5869 12513.3299,-2829.5621 12514.3909,-2822.6429"/>
</g>
<!-- 3257 -->
<g id="node15" class="node">
<title>3257</title>
<ellipse fill="none" stroke="#000000" cx="12348.3139" cy="-2800.7197" rx="28.6953" ry="18"/>
<text text-anchor="middle" x="12348.3139" y="-2797.0197" font-family="Times,serif" font-size="14.00" fill="#000000">3257</text>
</g>
<!-- 3491 -->
<g id="node18" class="node">
<title>3491</title>
<ellipse fill="none" stroke="#000000" cx="12220.6113" cy="-2781.1394" rx="28.6953" ry="18"/>
<text text-anchor="middle" x="12220.6113" y="-2777.4394" font-family="Times,serif" font-size="14.00" fill="#000000">3491</text>
</g>
<!-- 3257&#45;&gt;3491 -->
<g id="edge21" class="edge">
<title>3257&#45;&gt;3491</title>
<path fill="none" stroke="#000000" d="M12320.289,-2796.4227C12302.1576,-2793.6427 12278.3275,-2789.9889 12258.5143,-2786.951"/>
<polygon fill="#000000" stroke="#000000" points="12258.9858,-2783.4825 12248.5708,-2785.4264 12257.9248,-2790.4016 12258.9858,-2783.4825"/>
</g>
<!-- 3356 -->
<g id="node17" class="node">
<title>3356</title>
<ellipse fill="none" stroke="#000000" cx="17484.2876" cy="-5335.3032" rx="28.6953" ry="18"/>
<text text-anchor="middle" x="17484.2876" y="-5331.6032" font-family="Times,serif" font-size="14.00" fill="#000000">3356</text>
</g>
<!-- 3549 -->
<g id="node19" class="node">
<title>3549</title>
<ellipse fill="none" stroke="#000000" cx="17746.0122" cy="-3628.3323" rx="28.6953" ry="18"/>
<text text-anchor="middle" x="17746.0122" y="-3624.6323" font-family="Times,serif" font-size="14.00" fill="#000000">3549</text>
</g>
<!-- 3356&#45;&gt;3549 -->
<g id="edge22" class="edge">
<title>3356&#45;&gt;3549</title>
<path fill="none" stroke="#000000" d="M17487.0498,-5317.2881C17512.7585,-5149.6157 17709.9673,-3863.4173 17741.7068,-3656.4121"/>
<polygon fill="#000000" stroke="#000000" points="17745.1936,-3656.7646 17743.2497,-3646.3496 17738.2744,-3655.7036 17745.1936,-3656.7646"/>
</g>
<!-- 3491&#45;&gt;174 -->
<g id="edge23" class="edge">
<title>3491&#45;&gt;174</title>
<path fill="none" stroke="#000000" d="M12217.8251,-2799.311C12145.7412,-3269.4433 10698.3284,-12709.4855 10609.0935,-13291.4762"/>
<polygon fill="#000000" stroke="#000000" points="10605.6064,-13291.1257 10607.5504,-13301.5407 10612.5256,-13292.1867 10605.6064,-13291.1257"/>
</g>
<!-- 3491&#45;&gt;2497 -->
<g id="edge24" class="edge">
<title>3491&#45;&gt;2497</title>
<path fill="none" stroke="#000000" d="M12192.6008,-2776.8447C11804.2862,-2717.3056 7502.0722,-2057.6603 7052.4083,-1988.7147"/>
<polygon fill="#000000" stroke="#000000" points="7052.9217,-1985.2526 7042.5067,-1987.1965 7051.8607,-1992.1717 7052.9217,-1985.2526"/>
</g>
<!-- 6762 -->
<g id="node27" class="node">
<title>6762</title>
<ellipse fill="none" stroke="#000000" cx="12731.4215" cy="-2859.4604" rx="28.6953" ry="18"/>
<text text-anchor="middle" x="12731.4215" y="-2855.7604" font-family="Times,serif" font-size="14.00" fill="#000000">6762</text>
</g>
<!-- 3549&#45;&gt;6762 -->
<g id="edge25" class="edge">
<title>3549&#45;&gt;6762</title>
<path fill="none" stroke="#000000" d="M17718.1188,-3624.0555C17338.6829,-3565.8777 13208.7633,-2932.6498 12769.2374,-2865.2586"/>
<polygon fill="#000000" stroke="#000000" points="12769.6771,-2861.7852 12759.2622,-2863.7291 12768.6162,-2868.7043 12769.6771,-2861.7852"/>
</g>
<!-- 30070 -->
<g id="node44" class="node">
<title>30070</title>
<ellipse fill="none" stroke="#000000" cx="18130.4481" cy="-1121.0369" rx="32.4942" ry="18"/>
<text text-anchor="middle" x="18130.4481" y="-1117.3369" font-family="Times,serif" font-size="14.00" fill="#000000">30070</text>
</g>
<!-- 3549&#45;&gt;30070 -->
<g id="edge26" class="edge">
<title>3549&#45;&gt;30070</title>
<path fill="none" stroke="#000000" d="M17748.778,-3610.2937C17781.065,-3399.7173 18085.8963,-1411.6045 18126.0828,-1149.5073"/>
<polygon fill="#000000" stroke="#000000" points="18129.5931,-1149.707 18127.6491,-1139.2921 18122.6739,-1148.6461 18129.5931,-1149.707"/>
</g>
<!-- 3597 -->
<g id="node20" class="node">
<title>3597</title>
<ellipse fill="none" stroke="#000000" cx="17182.3439" cy="-6311.6326" rx="28.6953" ry="18"/>
<text text-anchor="middle" x="17182.3439" y="-6307.9326" font-family="Times,serif" font-size="14.00" fill="#000000">3597</text>
</g>
<!-- 37179 -->
<g id="node46" class="node">
<title>37179</title>
<ellipse fill="none" stroke="#000000" cx="16107.0289" cy="-1363.7172" rx="32.4942" ry="18"/>
<text text-anchor="middle" x="16107.0289" y="-1360.0172" font-family="Times,serif" font-size="14.00" fill="#000000">37179</text>
</g>
<!-- 3741&#45;&gt;37179 -->
<g id="edge27" class="edge">
<title>3741&#45;&gt;37179</title>
<path fill="none" stroke="#000000" d="M16211.0486,-1374.1591C16193.0568,-1372.353 16169.4646,-1369.9848 16149.2975,-1367.9603"/>
<polygon fill="#000000" stroke="#000000" points="16149.411,-1364.4542 16139.1114,-1366.9378 16148.7117,-1371.4192 16149.411,-1364.4542"/>
</g>
<!-- 4637 -->
<g id="node22" class="node">
<title>4637</title>
<ellipse fill="none" stroke="#000000" cx="17117.5897" cy="-2183.0986" rx="28.6953" ry="18"/>
<text text-anchor="middle" x="17117.5897" y="-2179.3986" font-family="Times,serif" font-size="14.00" fill="#000000">4637</text>
</g>
<!-- 5692 -->
<g id="node24" class="node">
<title>5692</title>
<ellipse fill="none" stroke="#000000" cx="16941.2428" cy="-6205.8291" rx="28.6953" ry="18"/>
<text text-anchor="middle" x="16941.2428" y="-6202.1291" font-family="Times,serif" font-size="14.00" fill="#000000">5692</text>
</g>
<!-- 5692&#45;&gt;3597 -->
<g id="edge28" class="edge">
<title>5692&#45;&gt;3597</title>
<path fill="none" stroke="#000000" d="M16964.7996,-6216.1666C17008.0117,-6235.1296 17100.0352,-6275.5127 17149.4119,-6297.1809"/>
<polygon fill="#000000" stroke="#000000" points="17148.128,-6300.4396 17158.6916,-6301.2531 17150.9409,-6294.0297 17148.128,-6300.4396"/>
</g>
<!-- 10834 -->
<g id="node37" class="node">
<title>10834</title>
<ellipse fill="none" stroke="#000000" cx="17341.405" cy="-6267.1848" rx="32.4942" ry="18"/>
<text text-anchor="middle" x="17341.405" y="-6263.4848" font-family="Times,serif" font-size="14.00" fill="#000000">10834</text>
</g>
<!-- 5692&#45;&gt;10834 -->
<g id="edge29" class="edge">
<title>5692&#45;&gt;10834</title>
<path fill="none" stroke="#000000" d="M16969.0637,-6210.0948C17038.2424,-6220.7018 17218.3269,-6248.3136 17300.0245,-6260.84"/>
<polygon fill="#000000" stroke="#000000" points="17299.5359,-6264.3059 17309.9508,-6262.362 17300.5968,-6257.3868 17299.5359,-6264.3059"/>
</g>
<!-- 11008 -->
<g id="node38" class="node">
<title>11008</title>
<ellipse fill="none" stroke="#000000" cx="17100.9559" cy="-6415.1515" rx="32.4942" ry="18"/>
<text text-anchor="middle" x="17100.9559" y="-6411.4515" font-family="Times,serif" font-size="14.00" fill="#000000">11008</text>
</g>
<!-- 5692&#45;&gt;11008 -->
<g id="edge30" class="edge">
<title>5692&#45;&gt;11008</title>
<path fill="none" stroke="#000000" d="M16953.7752,-6222.2543C16981.6963,-6258.848 17049.1462,-6347.2488 17082.1427,-6390.4946"/>
<polygon fill="#000000" stroke="#000000" points="17079.4122,-6392.6859 17088.2607,-6398.513 17084.9773,-6388.4397 17079.4122,-6392.6859"/>
</g>
<!-- 27865 -->
<g id="node42" class="node">
<title>27865</title>
<ellipse fill="none" stroke="#000000" cx="16975.7566" cy="-6466.852" rx="32.4942" ry="18"/>
<text text-anchor="middle" x="16975.7566" y="-6463.152" font-family="Times,serif" font-size="14.00" fill="#000000">27865</text>
</g>
<!-- 5692&#45;&gt;27865 -->
<g id="edge31" class="edge">
<title>5692&#45;&gt;27865</title>
<path fill="none" stroke="#000000" d="M16943.6151,-6223.7703C16949.5138,-6268.3816 16964.8812,-6384.6035 16972.0161,-6438.5632"/>
<polygon fill="#000000" stroke="#000000" points="16968.587,-6439.3304 16973.3677,-6448.7853 16975.5266,-6438.4127 16968.587,-6439.3304"/>
</g>
<!-- 28065 -->
<g id="node43" class="node">
<title>28065</title>
<ellipse fill="none" stroke="#000000" cx="16841.4225" cy="-6449.4683" rx="32.4942" ry="18"/>
<text text-anchor="middle" x="16841.4225" y="-6445.7683" font-family="Times,serif" font-size="14.00" fill="#000000">28065</text>
</g>
<!-- 5692&#45;&gt;28065 -->
<g id="edge32" class="edge">
<title>5692&#45;&gt;28065</title>
<path fill="none" stroke="#000000" d="M16934.064,-6223.351C16916.8394,-6265.3924 16873.0723,-6372.2181 16852.4678,-6422.5093"/>
<polygon fill="#000000" stroke="#000000" points="16849.223,-6421.1973 16848.6704,-6431.7778 16855.7004,-6423.8512 16849.223,-6421.1973"/>
</g>
<!-- 52317 -->
<g id="node49" class="node">
<title>52317</title>
<ellipse fill="none" stroke="#000000" cx="16733.5076" cy="-6367.6013" rx="32.4942" ry="18"/>
<text text-anchor="middle" x="16733.5076" y="-6363.9013" font-family="Times,serif" font-size="14.00" fill="#000000">52317</text>
</g>
<!-- 5692&#45;&gt;52317 -->
<g id="edge33" class="edge">
<title>5692&#45;&gt;52317</title>
<path fill="none" stroke="#000000" d="M16923.1711,-6219.9023C16886.6167,-6248.3688 16803.7237,-6312.921 16760.6446,-6346.4686"/>
<polygon fill="#000000" stroke="#000000" points="16758.3245,-6343.8392 16752.5852,-6352.7448 16762.6255,-6349.3621 16758.3245,-6343.8392"/>
</g>
<!-- 52375 -->
<g id="node50" class="node">
<title>52375</title>
<ellipse fill="none" stroke="#000000" cx="16680.5734" cy="-6242.9185" rx="32.4942" ry="18"/>
<text text-anchor="middle" x="16680.5734" y="-6239.2185" font-family="Times,serif" font-size="14.00" fill="#000000">52375</text>
</g>
<!-- 5692&#45;&gt;52375 -->
<g id="edge34" class="edge">
<title>5692&#45;&gt;52375</title>
<path fill="none" stroke="#000000" d="M16913.3466,-6209.7983C16867.5421,-6216.3156 16776.1379,-6229.3211 16722.5065,-6236.952"/>
<polygon fill="#000000" stroke="#000000" points="16721.7158,-6233.5292 16712.3086,-6238.403 16722.7019,-6240.4594 16721.7158,-6233.5292"/>
</g>
<!-- 52376 -->
<g id="node51" class="node">
<title>52376</title>
<ellipse fill="none" stroke="#000000" cx="16696.6299" cy="-6108.4193" rx="32.4942" ry="18"/>
<text text-anchor="middle" x="16696.6299" y="-6104.7193" font-family="Times,serif" font-size="14.00" fill="#000000">52376</text>
</g>
<!-- 5692&#45;&gt;52376 -->
<g id="edge35" class="edge">
<title>5692&#45;&gt;52376</title>
<path fill="none" stroke="#000000" d="M16916.8941,-6196.133C16873.617,-6178.8991 16783.1174,-6142.8604 16732.6294,-6122.755"/>
<polygon fill="#000000" stroke="#000000" points="16733.6765,-6119.4048 16723.0911,-6118.9567 16731.0867,-6125.9081 16733.6765,-6119.4048"/>
</g>
<!-- 52380 -->
<g id="node52" class="node">
<title>52380</title>
<ellipse fill="none" stroke="#000000" cx="16777.4274" cy="-5999.7014" rx="32.4942" ry="18"/>
<text text-anchor="middle" x="16777.4274" y="-5996.0014" font-family="Times,serif" font-size="14.00" fill="#000000">52380</text>
</g>
<!-- 5692&#45;&gt;52380 -->
<g id="edge36" class="edge">
<title>5692&#45;&gt;52380</title>
<path fill="none" stroke="#000000" d="M16928.3885,-6189.6546C16899.821,-6153.7084 16830.9093,-6066.9973 16796.9752,-6024.2982"/>
<polygon fill="#000000" stroke="#000000" points="16799.6389,-6022.0245 16790.677,-6016.3733 16794.1587,-6026.3797 16799.6389,-6022.0245"/>
</g>
<!-- 52413 -->
<g id="node53" class="node">
<title>52413</title>
<ellipse fill="none" stroke="#000000" cx="16901.5815" cy="-5945.5387" rx="32.4942" ry="18"/>
<text text-anchor="middle" x="16901.5815" y="-5941.8387" font-family="Times,serif" font-size="14.00" fill="#000000">52413</text>
</g>
<!-- 5692&#45;&gt;52413 -->
<g id="edge37" class="edge">
<title>5692&#45;&gt;52413</title>
<path fill="none" stroke="#000000" d="M16938.4539,-6187.526C16931.6246,-6142.7065 16914.0272,-6027.2177 16905.8614,-5973.6273"/>
<polygon fill="#000000" stroke="#000000" points="16909.2811,-5972.8346 16904.3146,-5963.476 16902.361,-5973.8891 16909.2811,-5972.8346"/>
</g>
<!-- 52431 -->
<g id="node54" class="node">
<title>52431</title>
<ellipse fill="none" stroke="#000000" cx="17036.2326" cy="-5960.2663" rx="32.4942" ry="18"/>
<text text-anchor="middle" x="17036.2326" y="-5956.5663" font-family="Times,serif" font-size="14.00" fill="#000000">52431</text>
</g>
<!-- 5692&#45;&gt;52431 -->
<g id="edge38" class="edge">
<title>5692&#45;&gt;52431</title>
<path fill="none" stroke="#000000" d="M16948.0742,-6188.1688C16964.4653,-6145.7955 17006.1144,-6038.1264 17025.7218,-5987.4382"/>
<polygon fill="#000000" stroke="#000000" points="17028.9919,-5988.6858 17029.3354,-5978.0965 17022.4633,-5986.1603 17028.9919,-5988.6858"/>
</g>
<!-- 262230 -->
<g id="node55" class="node">
<title>262230</title>
<ellipse fill="none" stroke="#000000" cx="17148.578" cy="-6043.5447" rx="37.0935" ry="18"/>
<text text-anchor="middle" x="17148.578" y="-6039.8447" font-family="Times,serif" font-size="14.00" fill="#000000">262230</text>
</g>
<!-- 5692&#45;&gt;262230 -->
<g id="edge39" class="edge">
<title>5692&#45;&gt;262230</title>
<path fill="none" stroke="#000000" d="M16959.2798,-6191.7113C16995.579,-6163.2993 17077.6605,-6099.0529 17120.8372,-6065.2579"/>
<polygon fill="#000000" stroke="#000000" points="17123.2113,-6067.8443 17128.9287,-6058.9245 17118.8967,-6062.332 17123.2113,-6067.8443"/>
</g>
<!-- 264608 -->
<g id="node56" class="node">
<title>264608</title>
<ellipse fill="none" stroke="#000000" cx="17202.968" cy="-6177.1224" rx="37.0935" ry="18"/>
<text text-anchor="middle" x="17202.968" y="-6173.4224" font-family="Times,serif" font-size="14.00" fill="#000000">264608</text>
</g>
<!-- 5692&#45;&gt;264608 -->
<g id="edge40" class="edge">
<title>5692&#45;&gt;264608</title>
<path fill="none" stroke="#000000" d="M16969.5007,-6202.7297C17014.3287,-6197.8129 17102.2052,-6188.1743 17156.432,-6182.2266"/>
<polygon fill="#000000" stroke="#000000" points="17156.918,-6185.6944 17166.4767,-6181.1249 17156.1547,-6178.7361 17156.918,-6185.6944"/>
</g>
<!-- 6453&#45;&gt;3257 -->
<g id="edge41" class="edge">
<title>6453&#45;&gt;3257</title>
<path fill="none" stroke="#000000" d="M12447.9916,-2816.003C12429.8601,-2813.2229 12406.0301,-2809.5691 12386.2168,-2806.5312"/>
<polygon fill="#000000" stroke="#000000" points="12386.6883,-2803.0627 12376.2734,-2805.0066 12385.6274,-2809.9818 12386.6883,-2803.0627"/>
</g>
<!-- 6762&#45;&gt;2914 -->
<g id="edge42" class="edge">
<title>6762&#45;&gt;2914</title>
<path fill="none" stroke="#000000" d="M12703.3967,-2855.1634C12685.2652,-2852.3834 12661.4352,-2848.7296 12641.6219,-2845.6917"/>
<polygon fill="#000000" stroke="#000000" points="12642.0934,-2842.2232 12631.6785,-2844.1671 12641.0325,-2849.1423 12642.0934,-2842.2232"/>
</g>
<!-- 6904 -->
<g id="node28" class="node">
<title>6904</title>
<ellipse fill="none" stroke="#000000" cx="18001.1271" cy="-1152.5049" rx="28.6953" ry="18"/>
<text text-anchor="middle" x="18001.1271" y="-1148.8049" font-family="Times,serif" font-size="14.00" fill="#000000">6904</text>
</g>
<!-- 6904&#45;&gt;2687 -->
<g id="edge43" class="edge">
<title>6904&#45;&gt;2687</title>
<path fill="none" stroke="#000000" d="M17974.2641,-1159.0415C17820.0724,-1196.5612 17048.2178,-1384.3779 16870.1421,-1427.7093"/>
<polygon fill="#000000" stroke="#000000" points="16869.1055,-1424.3594 16860.2166,-1430.1245 16870.7606,-1431.1609 16869.1055,-1424.3594"/>
</g>
<!-- 7016 -->
<g id="node29" class="node">
<title>7016</title>
<ellipse fill="none" stroke="#000000" cx="18809.4352" cy="-124.759" rx="28.6953" ry="18"/>
<text text-anchor="middle" x="18809.4352" y="-121.059" font-family="Times,serif" font-size="14.00" fill="#000000">7016</text>
</g>
<!-- 7922 -->
<g id="node34" class="node">
<title>7922</title>
<ellipse fill="none" stroke="#000000" cx="18882.194" cy="-18" rx="28.6953" ry="18"/>
<text text-anchor="middle" x="18882.194" y="-14.3" font-family="Times,serif" font-size="14.00" fill="#000000">7922</text>
</g>
<!-- 7016&#45;&gt;7922 -->
<g id="edge44" class="edge">
<title>7016&#45;&gt;7922</title>
<path fill="none" stroke="#000000" d="M18820.8038,-108.0779C18832.7107,-90.6069 18851.5458,-62.9701 18865.2153,-42.9129"/>
<polygon fill="#000000" stroke="#000000" points="18868.1657,-44.7985 18870.9053,-34.564 18862.3813,-40.8563 18868.1657,-44.7985"/>
</g>
<!-- 7473 -->
<g id="node31" class="node">
<title>7473</title>
<ellipse fill="none" stroke="#000000" cx="16972.1667" cy="-785.7837" rx="28.6953" ry="18"/>
<text text-anchor="middle" x="16972.1667" y="-782.0837" font-family="Times,serif" font-size="14.00" fill="#000000">7473</text>
</g>
<!-- 7474 -->
<g id="node32" class="node">
<title>7474</title>
<ellipse fill="none" stroke="#000000" cx="16989.3454" cy="-1906.2254" rx="28.6953" ry="18"/>
<text text-anchor="middle" x="16989.3454" y="-1902.5254" font-family="Times,serif" font-size="14.00" fill="#000000">7474</text>
</g>
<!-- 9505&#45;&gt;7473 -->
<g id="edge45" class="edge">
<title>9505&#45;&gt;7473</title>
<path fill="none" stroke="#000000" d="M16949.0944,-894.0367C16953.574,-873.0189 16961.0134,-838.1138 16966.2306,-813.6355"/>
<polygon fill="#000000" stroke="#000000" points="16969.6538,-814.3639 16968.3153,-803.854 16962.8076,-812.9047 16969.6538,-814.3639"/>
</g>
<!-- 12956 -->
<g id="node39" class="node">
<title>12956</title>
<ellipse fill="none" stroke="#000000" cx="17464.1163" cy="-5466.8604" rx="32.4942" ry="18"/>
<text text-anchor="middle" x="17464.1163" y="-5463.1604" font-family="Times,serif" font-size="14.00" fill="#000000">12956</text>
</g>
<!-- 10834&#45;&gt;12956 -->
<g id="edge46" class="edge">
<title>10834&#45;&gt;12956</title>
<path fill="none" stroke="#000000" d="M17344.1986,-6248.9652C17360.1963,-6144.6276 17440.1595,-5623.1066 17459.7694,-5495.2111"/>
<polygon fill="#000000" stroke="#000000" points="17463.271,-5495.4665 17461.3271,-5485.0515 17456.3519,-5494.4055 17463.271,-5495.4665"/>
</g>
<!-- 22927 -->
<g id="node41" class="node">
<title>22927</title>
<ellipse fill="none" stroke="#000000" cx="17741.5672" cy="-6328.5404" rx="32.4942" ry="18"/>
<text text-anchor="middle" x="17741.5672" y="-6324.8404" font-family="Times,serif" font-size="14.00" fill="#000000">22927</text>
</g>
<!-- 10834&#45;&gt;22927 -->
<g id="edge47" class="edge">
<title>10834&#45;&gt;22927</title>
<path fill="none" stroke="#000000" d="M17372.8051,-6271.9992C17444.307,-6282.9624 17619.2733,-6309.7895 17699.7818,-6322.1336"/>
<polygon fill="#000000" stroke="#000000" points="17699.6217,-6325.6499 17710.0367,-6323.7059 17700.6827,-6318.7307 17699.6217,-6325.6499"/>
</g>
<!-- 12956&#45;&gt;3356 -->
<g id="edge48" class="edge">
<title>12956&#45;&gt;3356</title>
<path fill="none" stroke="#000000" d="M17466.8787,-5448.8438C17470.2548,-5426.8252 17476.006,-5389.3154 17479.9686,-5363.4713"/>
<polygon fill="#000000" stroke="#000000" points="17483.4377,-5363.9394 17481.4938,-5353.5244 17476.5185,-5362.8784 17483.4377,-5363.9394"/>
</g>
<!-- 18540 -->
<g id="node40" class="node">
<title>18540</title>
<ellipse fill="none" stroke="#000000" cx="19218.0018" cy="-1777.3577" rx="32.4942" ry="18"/>
<text text-anchor="middle" x="19218.0018" y="-1773.6577" font-family="Times,serif" font-size="14.00" fill="#000000">18540</text>
</g>
<!-- 30070&#45;&gt;6904 -->
<g id="edge49" class="edge">
<title>30070&#45;&gt;6904</title>
<path fill="none" stroke="#000000" d="M18100.4542,-1128.3354C18081.7737,-1132.881 18057.6125,-1138.7601 18037.7972,-1143.5818"/>
<polygon fill="#000000" stroke="#000000" points="18036.7722,-1140.2291 18027.8832,-1145.9942 18038.4273,-1147.0306 18036.7722,-1140.2291"/>
</g>
<!-- 30070&#45;&gt;7016 -->
<g id="edge50" class="edge">
<title>30070&#45;&gt;7016</title>
<path fill="none" stroke="#000000" d="M18141.9483,-1104.1627C18222.0084,-986.6906 18695.8088,-291.4831 18792.2912,-149.9145"/>
<polygon fill="#000000" stroke="#000000" points="18795.3529,-151.6368 18798.0924,-141.4022 18789.5685,-147.6946 18795.3529,-151.6368"/>
</g>
<!-- 30070&#45;&gt;18540 -->
<g id="edge51" class="edge">
<title>30070&#45;&gt;18540</title>
<path fill="none" stroke="#000000" d="M18152.6652,-1134.4446C18290.3002,-1217.505 19025.9996,-1661.4875 19186.8981,-1758.5871"/>
<polygon fill="#000000" stroke="#000000" points="19185.4498,-1761.801 19195.82,-1763.9713 19189.0667,-1755.8078 19185.4498,-1761.801"/>
</g>
<!-- 32787&#45;&gt;703 -->
<g id="edge52" class="edge">
<title>32787&#45;&gt;703</title>
<path fill="none" stroke="#000000" d="M17256.237,-1932.763C17257.2985,-1896.8297 17259.6676,-1816.6297 17260.9325,-1773.8083"/>
<polygon fill="#000000" stroke="#000000" points="17264.432,-1773.8755 17261.2289,-1763.7765 17257.435,-1773.6687 17264.432,-1773.8755"/>
</g>
<!-- 32787&#45;&gt;2764 -->
<g id="edge53" class="edge">
<title>32787&#45;&gt;2764</title>
<path fill="none" stroke="#000000" d="M17281.8535,-1962.0421C17327.3515,-1981.2659 17420.9885,-2020.8296 17471.1045,-2042.0046"/>
<polygon fill="#000000" stroke="#000000" points="17469.9465,-2045.3149 17480.5203,-2045.983 17472.671,-2038.8668 17469.9465,-2045.3149"/>
</g>
<!-- 32787&#45;&gt;4637 -->
<g id="edge54" class="edge">
<title>32787&#45;&gt;4637</title>
<path fill="none" stroke="#000000" d="M17245.318,-1968.4368C17221.2053,-2008.9608 17161.3094,-2109.6227 17132.9474,-2157.2882"/>
<polygon fill="#000000" stroke="#000000" points="17129.8211,-2155.6977 17127.7154,-2166.0812 17135.8368,-2159.2771 17129.8211,-2155.6977"/>
</g>
<!-- 32787&#45;&gt;7474 -->
<g id="edge55" class="edge">
<title>32787&#45;&gt;7474</title>
<path fill="none" stroke="#000000" d="M17224.3612,-1945.7242C17175.2422,-1937.4688 17080.2773,-1921.5082 17027.3393,-1912.611"/>
<polygon fill="#000000" stroke="#000000" points="17027.7799,-1909.136 17017.3381,-1910.9301 17026.6197,-1916.0392 17027.7799,-1909.136"/>
</g>
</g>
</svg>
