<?xml version="1.0" encoding="UTF-8" standalone="no"?>
<!DOCTYPE svg PUBLIC "-//W3C//DTD SVG 1.1//EN"
 "http://www.w3.org/Graphics/SVG/1.1/DTD/svg11.dtd">
<!-- Generated by graphviz version 2.40.1 (20161225.0304)
 -->
<!-- Title: %3 Pages: 1 -->
<svg width="1926pt" height="836pt"
 viewBox="0.00 0.00 1926.05 836.00" xmlns="http://www.w3.org/2000/svg" xmlns:xlink="http://www.w3.org/1999/xlink">
<g id="graph0" class="graph" transform="scale(1 1) rotate(0) translate(4 832)">
<title>%3</title>
<polygon fill="#ffffff" stroke="transparent" points="-4,4 -4,-832 1922.0467,-832 1922.0467,4 -4,4"/>
<!-- 174 -->
<g id="node1" class="node">
<title>174</title>
<ellipse fill="none" stroke="#000000" cx="361" cy="-90" rx="27" ry="18"/>
<text text-anchor="middle" x="361" y="-86.3" font-family="Times,serif" font-size="14.00" fill="#000000">174</text>
</g>
<!-- 209 -->
<g id="node2" class="node">
<title>209</title>
<ellipse fill="none" stroke="#000000" cx="27" cy="-18" rx="27" ry="18"/>
<text text-anchor="middle" x="27" y="-14.3" font-family="Times,serif" font-size="14.00" fill="#000000">209</text>
</g>
<!-- 174&#45;&gt;209 -->
<g id="edge1" class="edge">
<title>174&#45;&gt;209</title>
<path fill="none" stroke="#000000" d="M334.0585,-87.703C281.0121,-82.6213 159.7777,-68.2275 63,-36 61.1105,-35.3708 59.1956,-34.6586 57.2842,-33.8897"/>
<polygon fill="#000000" stroke="#000000" points="58.4502,-30.5772 47.8923,-29.6941 55.5951,-36.9685 58.4502,-30.5772"/>
</g>
<!-- 701 -->
<g id="node3" class="node">
<title>701</title>
<ellipse fill="none" stroke="#000000" cx="99" cy="-18" rx="27" ry="18"/>
<text text-anchor="middle" x="99" y="-14.3" font-family="Times,serif" font-size="14.00" fill="#000000">701</text>
</g>
<!-- 174&#45;&gt;701 -->
<g id="edge2" class="edge">
<title>174&#45;&gt;701</title>
<path fill="none" stroke="#000000" d="M334.6739,-85.7336C291.9239,-78.36 205.1286,-61.527 135,-36 133.1286,-35.3188 131.2277,-34.5662 129.3271,-33.7665"/>
<polygon fill="#000000" stroke="#000000" points="130.514,-30.4608 119.9639,-29.4885 127.605,-36.8278 130.514,-30.4608"/>
</g>
<!-- 1239 -->
<g id="node5" class="node">
<title>1239</title>
<ellipse fill="none" stroke="#000000" cx="173" cy="-18" rx="28.6953" ry="18"/>
<text text-anchor="middle" x="173" y="-14.3" font-family="Times,serif" font-size="14.00" fill="#000000">1239</text>
</g>
<!-- 174&#45;&gt;1239 -->
<g id="edge3" class="edge">
<title>174&#45;&gt;1239</title>
<path fill="none" stroke="#000000" d="M336.6281,-82.1979C306.516,-72.3503 253.8852,-54.4567 210,-36 208.3703,-35.3146 206.7098,-34.5935 205.0398,-33.8499"/>
<polygon fill="#000000" stroke="#000000" points="206.0633,-30.4668 195.5184,-29.4392 203.1209,-36.8184 206.0633,-30.4668"/>
</g>
<!-- 1273 -->
<g id="node6" class="node">
<title>1273</title>
<ellipse fill="none" stroke="#000000" cx="248" cy="-18" rx="28.6953" ry="18"/>
<text text-anchor="middle" x="248" y="-14.3" font-family="Times,serif" font-size="14.00" fill="#000000">1273</text>
</g>
<!-- 174&#45;&gt;1273 -->
<g id="edge4" class="edge">
<title>174&#45;&gt;1273</title>
<path fill="none" stroke="#000000" d="M341.3169,-77.4586C323.4704,-66.0873 296.9436,-49.1853 276.7292,-36.3053"/>
<polygon fill="#000000" stroke="#000000" points="278.5328,-33.3044 268.2184,-30.8825 274.7712,-39.2079 278.5328,-33.3044"/>
</g>
<!-- 1299 -->
<g id="node7" class="node">
<title>1299</title>
<ellipse fill="none" stroke="#000000" cx="323" cy="-18" rx="28.6953" ry="18"/>
<text text-anchor="middle" x="323" y="-14.3" font-family="Times,serif" font-size="14.00" fill="#000000">1299</text>
</g>
<!-- 174&#45;&gt;1299 -->
<g id="edge5" class="edge">
<title>174&#45;&gt;1299</title>
<path fill="none" stroke="#000000" d="M351.9945,-72.937C347.5172,-64.4537 342.0048,-54.0092 336.993,-44.513"/>
<polygon fill="#000000" stroke="#000000" points="339.9678,-42.6509 332.2048,-35.4407 333.7771,-45.9182 339.9678,-42.6509"/>
</g>
<!-- 2828 -->
<g id="node13" class="node">
<title>2828</title>
<ellipse fill="none" stroke="#000000" cx="398" cy="-18" rx="28.6953" ry="18"/>
<text text-anchor="middle" x="398" y="-14.3" font-family="Times,serif" font-size="14.00" fill="#000000">2828</text>
</g>
<!-- 174&#45;&gt;2828 -->
<g id="edge6" class="edge">
<title>174&#45;&gt;2828</title>
<path fill="none" stroke="#000000" d="M369.7685,-72.937C374.1279,-64.4537 379.4953,-54.0092 384.3753,-44.513"/>
<polygon fill="#000000" stroke="#000000" points="387.5797,-45.9348 389.0374,-35.4407 381.3537,-42.7352 387.5797,-45.9348"/>
</g>
<!-- 5511 -->
<g id="node23" class="node">
<title>5511</title>
<ellipse fill="none" stroke="#000000" cx="473" cy="-18" rx="28.6953" ry="18"/>
<text text-anchor="middle" x="473" y="-14.3" font-family="Times,serif" font-size="14.00" fill="#000000">5511</text>
</g>
<!-- 174&#45;&gt;5511 -->
<g id="edge7" class="edge">
<title>174&#45;&gt;5511</title>
<path fill="none" stroke="#000000" d="M380.5089,-77.4586C398.1975,-66.0873 424.4895,-49.1853 444.525,-36.3053"/>
<polygon fill="#000000" stroke="#000000" points="446.4414,-39.2343 452.9605,-30.8825 442.656,-33.346 446.4414,-39.2343"/>
</g>
<!-- 6461 -->
<g id="node26" class="node">
<title>6461</title>
<ellipse fill="none" stroke="#000000" cx="548" cy="-18" rx="28.6953" ry="18"/>
<text text-anchor="middle" x="548" y="-14.3" font-family="Times,serif" font-size="14.00" fill="#000000">6461</text>
</g>
<!-- 174&#45;&gt;6461 -->
<g id="edge8" class="edge">
<title>174&#45;&gt;6461</title>
<path fill="none" stroke="#000000" d="M385.4689,-82.0906C415.4197,-72.2041 467.5193,-54.3407 511,-36 512.629,-35.3129 514.2889,-34.5904 515.9584,-33.8457"/>
<polygon fill="#000000" stroke="#000000" points="517.8785,-36.8134 525.4784,-29.4315 514.9339,-30.4629 517.8785,-36.8134"/>
</g>
<!-- 7018 -->
<g id="node30" class="node">
<title>7018</title>
<ellipse fill="none" stroke="#000000" cx="623" cy="-18" rx="28.6953" ry="18"/>
<text text-anchor="middle" x="623" y="-14.3" font-family="Times,serif" font-size="14.00" fill="#000000">7018</text>
</g>
<!-- 174&#45;&gt;7018 -->
<g id="edge9" class="edge">
<title>174&#45;&gt;7018</title>
<path fill="none" stroke="#000000" d="M387.5227,-85.5682C430.1587,-78.0174 516.2294,-61.0076 586,-36 587.8661,-35.3312 589.7623,-34.5958 591.6603,-33.8162"/>
<polygon fill="#000000" stroke="#000000" points="593.3147,-36.9112 601.0328,-29.653 590.473,-30.5139 593.3147,-36.9112"/>
</g>
<!-- 703 -->
<g id="node4" class="node">
<title>703</title>
<ellipse fill="none" stroke="#000000" cx="773" cy="-90" rx="27" ry="18"/>
<text text-anchor="middle" x="773" y="-86.3" font-family="Times,serif" font-size="14.00" fill="#000000">703</text>
</g>
<!-- 9498 -->
<g id="node35" class="node">
<title>9498</title>
<ellipse fill="none" stroke="#000000" cx="773" cy="-18" rx="28.6953" ry="18"/>
<text text-anchor="middle" x="773" y="-14.3" font-family="Times,serif" font-size="14.00" fill="#000000">9498</text>
</g>
<!-- 703&#45;&gt;9498 -->
<g id="edge10" class="edge">
<title>703&#45;&gt;9498</title>
<path fill="none" stroke="#000000" d="M773,-71.8314C773,-64.131 773,-54.9743 773,-46.4166"/>
<polygon fill="#000000" stroke="#000000" points="776.5001,-46.4132 773,-36.4133 769.5001,-46.4133 776.5001,-46.4132"/>
</g>
<!-- 2497 -->
<g id="node8" class="node">
<title>2497</title>
<ellipse fill="none" stroke="#000000" cx="698" cy="-90" rx="28.6953" ry="18"/>
<text text-anchor="middle" x="698" y="-86.3" font-family="Times,serif" font-size="14.00" fill="#000000">2497</text>
</g>
<!-- 3320 -->
<g id="node16" class="node">
<title>3320</title>
<ellipse fill="none" stroke="#000000" cx="698" cy="-18" rx="28.6953" ry="18"/>
<text text-anchor="middle" x="698" y="-14.3" font-family="Times,serif" font-size="14.00" fill="#000000">3320</text>
</g>
<!-- 2497&#45;&gt;3320 -->
<g id="edge11" class="edge">
<title>2497&#45;&gt;3320</title>
<path fill="none" stroke="#000000" d="M698,-71.8314C698,-64.131 698,-54.9743 698,-46.4166"/>
<polygon fill="#000000" stroke="#000000" points="701.5001,-46.4132 698,-36.4133 694.5001,-46.4133 701.5001,-46.4132"/>
</g>
<!-- 2516 -->
<g id="node9" class="node">
<title>2516</title>
<ellipse fill="none" stroke="#000000" cx="885" cy="-234" rx="28.6953" ry="18"/>
<text text-anchor="middle" x="885" y="-230.3" font-family="Times,serif" font-size="14.00" fill="#000000">2516</text>
</g>
<!-- 32787 -->
<g id="node45" class="node">
<title>32787</title>
<ellipse fill="none" stroke="#000000" cx="885" cy="-162" rx="32.4942" ry="18"/>
<text text-anchor="middle" x="885" y="-158.3" font-family="Times,serif" font-size="14.00" fill="#000000">32787</text>
</g>
<!-- 2516&#45;&gt;32787 -->
<g id="edge12" class="edge">
<title>2516&#45;&gt;32787</title>
<path fill="none" stroke="#000000" d="M885,-215.8314C885,-208.131 885,-198.9743 885,-190.4166"/>
<polygon fill="#000000" stroke="#000000" points="888.5001,-190.4132 885,-180.4133 881.5001,-190.4133 888.5001,-190.4132"/>
</g>
<!-- 2686 -->
<g id="node10" class="node">
<title>2686</title>
<ellipse fill="none" stroke="#000000" cx="962" cy="-234" rx="28.6953" ry="18"/>
<text text-anchor="middle" x="962" y="-230.3" font-family="Times,serif" font-size="14.00" fill="#000000">2686</text>
</g>
<!-- 3741 -->
<g id="node21" class="node">
<title>3741</title>
<ellipse fill="none" stroke="#000000" cx="964" cy="-162" rx="28.6953" ry="18"/>
<text text-anchor="middle" x="964" y="-158.3" font-family="Times,serif" font-size="14.00" fill="#000000">3741</text>
</g>
<!-- 2686&#45;&gt;3741 -->
<g id="edge13" class="edge">
<title>2686&#45;&gt;3741</title>
<path fill="none" stroke="#000000" d="M962.5047,-215.8314C962.7186,-208.131 962.9729,-198.9743 963.2106,-190.4166"/>
<polygon fill="#000000" stroke="#000000" points="966.7094,-190.5066 963.4885,-180.4133 959.7121,-190.3122 966.7094,-190.5066"/>
</g>
<!-- 2687 -->
<g id="node11" class="node">
<title>2687</title>
<ellipse fill="none" stroke="#000000" cx="923" cy="-306" rx="28.6953" ry="18"/>
<text text-anchor="middle" x="923" y="-302.3" font-family="Times,serif" font-size="14.00" fill="#000000">2687</text>
</g>
<!-- 2687&#45;&gt;2516 -->
<g id="edge14" class="edge">
<title>2687&#45;&gt;2516</title>
<path fill="none" stroke="#000000" d="M913.8013,-288.5708C909.3203,-280.0807 903.8379,-269.6929 898.8634,-260.2674"/>
<polygon fill="#000000" stroke="#000000" points="901.877,-258.4789 894.114,-251.2687 895.6863,-261.7462 901.877,-258.4789"/>
</g>
<!-- 2687&#45;&gt;2686 -->
<g id="edge15" class="edge">
<title>2687&#45;&gt;2686</title>
<path fill="none" stroke="#000000" d="M932.2425,-288.937C936.8376,-280.4537 942.495,-270.0092 947.6388,-260.513"/>
<polygon fill="#000000" stroke="#000000" points="950.8676,-261.9006 952.553,-251.4407 944.7126,-258.5666 950.8676,-261.9006"/>
</g>
<!-- 9505 -->
<g id="node36" class="node">
<title>9505</title>
<ellipse fill="none" stroke="#000000" cx="1038" cy="-234" rx="28.6953" ry="18"/>
<text text-anchor="middle" x="1038" y="-230.3" font-family="Times,serif" font-size="14.00" fill="#000000">9505</text>
</g>
<!-- 2687&#45;&gt;9505 -->
<g id="edge16" class="edge">
<title>2687&#45;&gt;9505</title>
<path fill="none" stroke="#000000" d="M943.295,-293.2936C961.4937,-281.8996 988.4062,-265.05 1008.8958,-252.2217"/>
<polygon fill="#000000" stroke="#000000" points="1010.9026,-255.0948 1017.5211,-246.8216 1007.1879,-249.1617 1010.9026,-255.0948"/>
</g>
<!-- 2764 -->
<g id="node12" class="node">
<title>2764</title>
<ellipse fill="none" stroke="#000000" cx="848" cy="-90" rx="28.6953" ry="18"/>
<text text-anchor="middle" x="848" y="-86.3" font-family="Times,serif" font-size="14.00" fill="#000000">2764</text>
</g>
<!-- 7545 -->
<g id="node33" class="node">
<title>7545</title>
<ellipse fill="none" stroke="#000000" cx="848" cy="-18" rx="28.6953" ry="18"/>
<text text-anchor="middle" x="848" y="-14.3" font-family="Times,serif" font-size="14.00" fill="#000000">7545</text>
</g>
<!-- 2764&#45;&gt;7545 -->
<g id="edge17" class="edge">
<title>2764&#45;&gt;7545</title>
<path fill="none" stroke="#000000" d="M848,-71.8314C848,-64.131 848,-54.9743 848,-46.4166"/>
<polygon fill="#000000" stroke="#000000" points="851.5001,-46.4132 848,-36.4133 844.5001,-46.4133 851.5001,-46.4132"/>
</g>
<!-- 38333 -->
<g id="node47" class="node">
<title>38333</title>
<ellipse fill="none" stroke="#000000" cx="927" cy="-18" rx="32.4942" ry="18"/>
<text text-anchor="middle" x="927" y="-14.3" font-family="Times,serif" font-size="14.00" fill="#000000">38333</text>
</g>
<!-- 2764&#45;&gt;38333 -->
<g id="edge18" class="edge">
<title>2764&#45;&gt;38333</title>
<path fill="none" stroke="#000000" d="M864.3689,-75.0816C875.3426,-65.0801 889.9941,-51.7269 902.3669,-40.4504"/>
<polygon fill="#000000" stroke="#000000" points="905.0737,-42.719 910.107,-33.3961 900.3585,-37.5453 905.0737,-42.719"/>
</g>
<!-- 38561 -->
<g id="node48" class="node">
<title>38561</title>
<ellipse fill="none" stroke="#000000" cx="1010" cy="-18" rx="32.4942" ry="18"/>
<text text-anchor="middle" x="1010" y="-14.3" font-family="Times,serif" font-size="14.00" fill="#000000">38561</text>
</g>
<!-- 2764&#45;&gt;38561 -->
<g id="edge19" class="edge">
<title>2764&#45;&gt;38561</title>
<path fill="none" stroke="#000000" d="M870.6216,-78.7955C875.3537,-76.5078 880.3256,-74.1454 885,-72 893.6285,-68.0398 940.6492,-47.7862 974.4814,-33.2472"/>
<polygon fill="#000000" stroke="#000000" points="976.2589,-36.293 984.0653,-29.1298 973.4957,-29.8614 976.2589,-36.293"/>
</g>
<!-- 2914 -->
<g id="node14" class="node">
<title>2914</title>
<ellipse fill="none" stroke="#000000" cx="839" cy="-378" rx="28.6953" ry="18"/>
<text text-anchor="middle" x="839" y="-374.3" font-family="Times,serif" font-size="14.00" fill="#000000">2914</text>
</g>
<!-- 6453 -->
<g id="node25" class="node">
<title>6453</title>
<ellipse fill="none" stroke="#000000" cx="830" cy="-306" rx="28.6953" ry="18"/>
<text text-anchor="middle" x="830" y="-302.3" font-family="Times,serif" font-size="14.00" fill="#000000">6453</text>
</g>
<!-- 2914&#45;&gt;6453 -->
<g id="edge20" class="edge">
<title>2914&#45;&gt;6453</title>
<path fill="none" stroke="#000000" d="M836.7289,-359.8314C835.7664,-352.131 834.6218,-342.9743 833.5521,-334.4166"/>
<polygon fill="#000000" stroke="#000000" points="837.0151,-333.9019 832.3017,-324.4133 830.0691,-334.7702 837.0151,-333.9019"/>
</g>
<!-- 3257 -->
<g id="node15" class="node">
<title>3257</title>
<ellipse fill="none" stroke="#000000" cx="773" cy="-234" rx="28.6953" ry="18"/>
<text text-anchor="middle" x="773" y="-230.3" font-family="Times,serif" font-size="14.00" fill="#000000">3257</text>
</g>
<!-- 3491 -->
<g id="node18" class="node">
<title>3491</title>
<ellipse fill="none" stroke="#000000" cx="698" cy="-162" rx="28.6953" ry="18"/>
<text text-anchor="middle" x="698" y="-158.3" font-family="Times,serif" font-size="14.00" fill="#000000">3491</text>
</g>
<!-- 3257&#45;&gt;3491 -->
<g id="edge21" class="edge">
<title>3257&#45;&gt;3491</title>
<path fill="none" stroke="#000000" d="M757.0944,-218.7307C746.6537,-208.7075 732.8251,-195.4321 721.1702,-184.2434"/>
<polygon fill="#000000" stroke="#000000" points="723.5204,-181.6478 713.8826,-177.2473 718.6727,-186.6976 723.5204,-181.6478"/>
</g>
<!-- 3356 -->
<g id="node17" class="node">
<title>3356</title>
<ellipse fill="none" stroke="#000000" cx="913" cy="-594" rx="28.6953" ry="18"/>
<text text-anchor="middle" x="913" y="-590.3" font-family="Times,serif" font-size="14.00" fill="#000000">3356</text>
</g>
<!-- 3549 -->
<g id="node19" class="node">
<title>3549</title>
<ellipse fill="none" stroke="#000000" cx="913" cy="-522" rx="28.6953" ry="18"/>
<text text-anchor="middle" x="913" y="-518.3" font-family="Times,serif" font-size="14.00" fill="#000000">3549</text>
</g>
<!-- 3356&#45;&gt;3549 -->
<g id="edge22" class="edge">
<title>3356&#45;&gt;3549</title>
<path fill="none" stroke="#000000" d="M913,-575.8314C913,-568.131 913,-558.9743 913,-550.4166"/>
<polygon fill="#000000" stroke="#000000" points="916.5001,-550.4132 913,-540.4133 909.5001,-550.4133 916.5001,-550.4132"/>
</g>
<!-- 3491&#45;&gt;174 -->
<g id="edge23" class="edge">
<title>3491&#45;&gt;174</title>
<path fill="none" stroke="#000000" d="M670.7073,-156.1689C610.1953,-143.2405 464.7755,-112.1716 396.956,-97.682"/>
<polygon fill="#000000" stroke="#000000" points="397.6576,-94.253 387.147,-95.5863 396.195,-101.0985 397.6576,-94.253"/>
</g>
<!-- 3491&#45;&gt;2497 -->
<g id="edge24" class="edge">
<title>3491&#45;&gt;2497</title>
<path fill="none" stroke="#000000" d="M698,-143.8314C698,-136.131 698,-126.9743 698,-118.4166"/>
<polygon fill="#000000" stroke="#000000" points="701.5001,-118.4132 698,-108.4133 694.5001,-118.4133 701.5001,-118.4132"/>
</g>
<!-- 6762 -->
<g id="node27" class="node">
<title>6762</title>
<ellipse fill="none" stroke="#000000" cx="874" cy="-450" rx="28.6953" ry="18"/>
<text text-anchor="middle" x="874" y="-446.3" font-family="Times,serif" font-size="14.00" fill="#000000">6762</text>
</g>
<!-- 3549&#45;&gt;6762 -->
<g id="edge25" class="edge">
<title>3549&#45;&gt;6762</title>
<path fill="none" stroke="#000000" d="M903.7575,-504.937C899.1624,-496.4537 893.505,-486.0092 888.3612,-476.513"/>
<polygon fill="#000000" stroke="#000000" points="891.2874,-474.5666 883.447,-467.4407 885.1324,-477.9006 891.2874,-474.5666"/>
</g>
<!-- 30070 -->
<g id="node44" class="node">
<title>30070</title>
<ellipse fill="none" stroke="#000000" cx="975" cy="-450" rx="32.4942" ry="18"/>
<text text-anchor="middle" x="975" y="-446.3" font-family="Times,serif" font-size="14.00" fill="#000000">30070</text>
</g>
<!-- 3549&#45;&gt;30070 -->
<g id="edge26" class="edge">
<title>3549&#45;&gt;30070</title>
<path fill="none" stroke="#000000" d="M926.7598,-506.0209C934.8336,-496.6449 945.1949,-484.6123 954.2442,-474.1035"/>
<polygon fill="#000000" stroke="#000000" points="956.9757,-476.2952 960.8488,-466.4336 951.6713,-471.7275 956.9757,-476.2952"/>
</g>
<!-- 3597 -->
<g id="node20" class="node">
<title>3597</title>
<ellipse fill="none" stroke="#000000" cx="875" cy="-738" rx="28.6953" ry="18"/>
<text text-anchor="middle" x="875" y="-734.3" font-family="Times,serif" font-size="14.00" fill="#000000">3597</text>
</g>
<!-- 37179 -->
<g id="node46" class="node">
<title>37179</title>
<ellipse fill="none" stroke="#000000" cx="1077" cy="-90" rx="32.4942" ry="18"/>
<text text-anchor="middle" x="1077" y="-86.3" font-family="Times,serif" font-size="14.00" fill="#000000">37179</text>
</g>
<!-- 3741&#45;&gt;37179 -->
<g id="edge27" class="edge">
<title>3741&#45;&gt;37179</title>
<path fill="none" stroke="#000000" d="M984.2021,-149.1278C1001.5982,-138.0436 1026.9556,-121.8867 1046.7689,-109.2623"/>
<polygon fill="#000000" stroke="#000000" points="1048.881,-112.0667 1055.4338,-103.7413 1045.1194,-106.1632 1048.881,-112.0667"/>
</g>
<!-- 4637 -->
<g id="node22" class="node">
<title>4637</title>
<ellipse fill="none" stroke="#000000" cx="923" cy="-90" rx="28.6953" ry="18"/>
<text text-anchor="middle" x="923" y="-86.3" font-family="Times,serif" font-size="14.00" fill="#000000">4637</text>
</g>
<!-- 5692 -->
<g id="node24" class="node">
<title>5692</title>
<ellipse fill="none" stroke="#000000" cx="1369" cy="-810" rx="28.6953" ry="18"/>
<text text-anchor="middle" x="1369" y="-806.3" font-family="Times,serif" font-size="14.00" fill="#000000">5692</text>
</g>
<!-- 5692&#45;&gt;3597 -->
<g id="edge28" class="edge">
<title>5692&#45;&gt;3597</title>
<path fill="none" stroke="#000000" d="M1340.4155,-807.8332C1253.6364,-801.0637 994.2092,-779.3629 913,-756 910.834,-755.3769 908.6377,-754.6422 906.45,-753.832"/>
<polygon fill="#000000" stroke="#000000" points="907.6104,-750.5239 897.0335,-749.9077 904.9176,-756.9852 907.6104,-750.5239"/>
</g>
<!-- 10834 -->
<g id="node37" class="node">
<title>10834</title>
<ellipse fill="none" stroke="#000000" cx="954" cy="-738" rx="32.4942" ry="18"/>
<text text-anchor="middle" x="954" y="-734.3" font-family="Times,serif" font-size="14.00" fill="#000000">10834</text>
</g>
<!-- 5692&#45;&gt;10834 -->
<g id="edge29" class="edge">
<title>5692&#45;&gt;10834</title>
<path fill="none" stroke="#000000" d="M1340.4009,-808.4071C1277.206,-804.3384 1121.3407,-791.2744 996,-756 993.5277,-755.3042 991.009,-754.4966 988.4952,-753.6164"/>
<polygon fill="#000000" stroke="#000000" points="989.5223,-750.2617 978.9321,-749.946 987.0139,-756.7969 989.5223,-750.2617"/>
</g>
<!-- 11008 -->
<g id="node38" class="node">
<title>11008</title>
<ellipse fill="none" stroke="#000000" cx="1037" cy="-738" rx="32.4942" ry="18"/>
<text text-anchor="middle" x="1037" y="-734.3" font-family="Times,serif" font-size="14.00" fill="#000000">11008</text>
</g>
<!-- 5692&#45;&gt;11008 -->
<g id="edge30" class="edge">
<title>5692&#45;&gt;11008</title>
<path fill="none" stroke="#000000" d="M1340.5102,-806.8151C1287.964,-800.4771 1172.605,-784.3918 1079,-756 1076.5422,-755.2545 1074.0344,-754.4097 1071.5284,-753.5026"/>
<polygon fill="#000000" stroke="#000000" points="1072.5706,-750.1522 1061.9825,-749.7737 1070.0236,-756.6724 1072.5706,-750.1522"/>
</g>
<!-- 27865 -->
<g id="node42" class="node">
<title>27865</title>
<ellipse fill="none" stroke="#000000" cx="1120" cy="-738" rx="32.4942" ry="18"/>
<text text-anchor="middle" x="1120" y="-734.3" font-family="Times,serif" font-size="14.00" fill="#000000">27865</text>
</g>
<!-- 5692&#45;&gt;27865 -->
<g id="edge31" class="edge">
<title>5692&#45;&gt;27865</title>
<path fill="none" stroke="#000000" d="M1341.8227,-804.2764C1301.889,-795.5606 1225.2444,-777.6654 1162,-756 1159.5703,-755.1677 1157.0834,-754.258 1154.5926,-753.3038"/>
<polygon fill="#000000" stroke="#000000" points="1155.6632,-749.9618 1145.0797,-749.4727 1153.0482,-756.455 1155.6632,-749.9618"/>
</g>
<!-- 28065 -->
<g id="node43" class="node">
<title>28065</title>
<ellipse fill="none" stroke="#000000" cx="1203" cy="-738" rx="32.4942" ry="18"/>
<text text-anchor="middle" x="1203" y="-734.3" font-family="Times,serif" font-size="14.00" fill="#000000">28065</text>
</g>
<!-- 5692&#45;&gt;28065 -->
<g id="edge32" class="edge">
<title>5692&#45;&gt;28065</title>
<path fill="none" stroke="#000000" d="M1345.2162,-799.6842C1317.1868,-787.5268 1270.3574,-767.2153 1238.141,-753.2419"/>
<polygon fill="#000000" stroke="#000000" points="1239.2158,-749.8931 1228.6489,-749.1248 1236.4304,-756.315 1239.2158,-749.8931"/>
</g>
<!-- 52317 -->
<g id="node49" class="node">
<title>52317</title>
<ellipse fill="none" stroke="#000000" cx="1286" cy="-738" rx="32.4942" ry="18"/>
<text text-anchor="middle" x="1286" y="-734.3" font-family="Times,serif" font-size="14.00" fill="#000000">52317</text>
</g>
<!-- 5692&#45;&gt;52317 -->
<g id="edge33" class="edge">
<title>5692&#45;&gt;52317</title>
<path fill="none" stroke="#000000" d="M1352.2037,-795.4297C1340.514,-785.2892 1324.7126,-771.5821 1311.479,-760.1023"/>
<polygon fill="#000000" stroke="#000000" points="1313.4781,-757.2031 1303.6307,-753.2941 1308.8912,-762.4908 1313.4781,-757.2031"/>
</g>
<!-- 52375 -->
<g id="node50" class="node">
<title>52375</title>
<ellipse fill="none" stroke="#000000" cx="1369" cy="-738" rx="32.4942" ry="18"/>
<text text-anchor="middle" x="1369" y="-734.3" font-family="Times,serif" font-size="14.00" fill="#000000">52375</text>
</g>
<!-- 5692&#45;&gt;52375 -->
<g id="edge34" class="edge">
<title>5692&#45;&gt;52375</title>
<path fill="none" stroke="#000000" d="M1369,-791.8314C1369,-784.131 1369,-774.9743 1369,-766.4166"/>
<polygon fill="#000000" stroke="#000000" points="1372.5001,-766.4132 1369,-756.4133 1365.5001,-766.4133 1372.5001,-766.4132"/>
</g>
<!-- 52376 -->
<g id="node51" class="node">
<title>52376</title>
<ellipse fill="none" stroke="#000000" cx="1452" cy="-738" rx="32.4942" ry="18"/>
<text text-anchor="middle" x="1452" y="-734.3" font-family="Times,serif" font-size="14.00" fill="#000000">52376</text>
</g>
<!-- 5692&#45;&gt;52376 -->
<g id="edge35" class="edge">
<title>5692&#45;&gt;52376</title>
<path fill="none" stroke="#000000" d="M1385.7963,-795.4297C1397.486,-785.2892 1413.2874,-771.5821 1426.521,-760.1023"/>
<polygon fill="#000000" stroke="#000000" points="1429.1088,-762.4908 1434.3693,-753.2941 1424.5219,-757.2031 1429.1088,-762.4908"/>
</g>
<!-- 52380 -->
<g id="node52" class="node">
<title>52380</title>
<ellipse fill="none" stroke="#000000" cx="1535" cy="-738" rx="32.4942" ry="18"/>
<text text-anchor="middle" x="1535" y="-734.3" font-family="Times,serif" font-size="14.00" fill="#000000">52380</text>
</g>
<!-- 5692&#45;&gt;52380 -->
<g id="edge36" class="edge">
<title>5692&#45;&gt;52380</title>
<path fill="none" stroke="#000000" d="M1392.7838,-799.6842C1420.8132,-787.5268 1467.6426,-767.2153 1499.859,-753.2419"/>
<polygon fill="#000000" stroke="#000000" points="1501.5696,-756.315 1509.3511,-749.1248 1498.7842,-749.8931 1501.5696,-756.315"/>
</g>
<!-- 52413 -->
<g id="node53" class="node">
<title>52413</title>
<ellipse fill="none" stroke="#000000" cx="1618" cy="-738" rx="32.4942" ry="18"/>
<text text-anchor="middle" x="1618" y="-734.3" font-family="Times,serif" font-size="14.00" fill="#000000">52413</text>
</g>
<!-- 5692&#45;&gt;52413 -->
<g id="edge37" class="edge">
<title>5692&#45;&gt;52413</title>
<path fill="none" stroke="#000000" d="M1396.1773,-804.2764C1436.111,-795.5606 1512.7556,-777.6654 1576,-756 1578.4297,-755.1677 1580.9166,-754.258 1583.4074,-753.3038"/>
<polygon fill="#000000" stroke="#000000" points="1584.9518,-756.455 1592.9203,-749.4727 1582.3368,-749.9618 1584.9518,-756.455"/>
</g>
<!-- 52431 -->
<g id="node54" class="node">
<title>52431</title>
<ellipse fill="none" stroke="#000000" cx="1701" cy="-738" rx="32.4942" ry="18"/>
<text text-anchor="middle" x="1701" y="-734.3" font-family="Times,serif" font-size="14.00" fill="#000000">52431</text>
</g>
<!-- 5692&#45;&gt;52431 -->
<g id="edge38" class="edge">
<title>5692&#45;&gt;52431</title>
<path fill="none" stroke="#000000" d="M1397.4898,-806.8151C1450.036,-800.4771 1565.395,-784.3918 1659,-756 1661.4578,-755.2545 1663.9656,-754.4097 1666.4716,-753.5026"/>
<polygon fill="#000000" stroke="#000000" points="1667.9764,-756.6724 1676.0175,-749.7737 1665.4294,-750.1522 1667.9764,-756.6724"/>
</g>
<!-- 262230 -->
<g id="node55" class="node">
<title>262230</title>
<ellipse fill="none" stroke="#000000" cx="1789" cy="-738" rx="37.0935" ry="18"/>
<text text-anchor="middle" x="1789" y="-734.3" font-family="Times,serif" font-size="14.00" fill="#000000">262230</text>
</g>
<!-- 5692&#45;&gt;262230 -->
<g id="edge39" class="edge">
<title>5692&#45;&gt;262230</title>
<path fill="none" stroke="#000000" d="M1397.5,-808.0413C1460.4973,-803.243 1615.9929,-788.8146 1742,-756 1745.1286,-755.1853 1748.3346,-754.23 1751.5303,-753.1919"/>
<polygon fill="#000000" stroke="#000000" points="1752.7111,-756.4869 1760.9989,-749.8866 1750.404,-749.878 1752.7111,-756.4869"/>
</g>
<!-- 264608 -->
<g id="node56" class="node">
<title>264608</title>
<ellipse fill="none" stroke="#000000" cx="1881" cy="-738" rx="37.0935" ry="18"/>
<text text-anchor="middle" x="1881" y="-734.3" font-family="Times,serif" font-size="14.00" fill="#000000">264608</text>
</g>
<!-- 5692&#45;&gt;264608 -->
<g id="edge40" class="edge">
<title>5692&#45;&gt;264608</title>
<path fill="none" stroke="#000000" d="M1397.8256,-809.2303C1471.6272,-806.71 1672.9921,-796.3639 1835,-756 1837.8085,-755.3003 1840.6759,-754.4722 1843.538,-753.5618"/>
<polygon fill="#000000" stroke="#000000" points="1844.8601,-756.8076 1853.1547,-750.216 1842.5599,-750.1963 1844.8601,-756.8076"/>
</g>
<!-- 6453&#45;&gt;3257 -->
<g id="edge41" class="edge">
<title>6453&#45;&gt;3257</title>
<path fill="none" stroke="#000000" d="M817.0658,-289.6621C809.7051,-280.3644 800.3462,-268.5426 792.1483,-258.1873"/>
<polygon fill="#000000" stroke="#000000" points="794.8342,-255.9413 785.883,-250.2733 789.3459,-260.2862 794.8342,-255.9413"/>
</g>
<!-- 6762&#45;&gt;2914 -->
<g id="edge42" class="edge">
<title>6762&#45;&gt;2914</title>
<path fill="none" stroke="#000000" d="M865.5275,-432.5708C861.4003,-424.0807 856.3507,-413.6929 851.7689,-404.2674"/>
<polygon fill="#000000" stroke="#000000" points="854.9143,-402.7322 847.3945,-395.2687 848.6187,-405.7926 854.9143,-402.7322"/>
</g>
<!-- 6904 -->
<g id="node28" class="node">
<title>6904</title>
<ellipse fill="none" stroke="#000000" cx="923" cy="-378" rx="28.6953" ry="18"/>
<text text-anchor="middle" x="923" y="-374.3" font-family="Times,serif" font-size="14.00" fill="#000000">6904</text>
</g>
<!-- 6904&#45;&gt;2687 -->
<g id="edge43" class="edge">
<title>6904&#45;&gt;2687</title>
<path fill="none" stroke="#000000" d="M923,-359.8314C923,-352.131 923,-342.9743 923,-334.4166"/>
<polygon fill="#000000" stroke="#000000" points="926.5001,-334.4132 923,-324.4133 919.5001,-334.4133 926.5001,-334.4132"/>
</g>
<!-- 7016 -->
<g id="node29" class="node">
<title>7016</title>
<ellipse fill="none" stroke="#000000" cx="998" cy="-378" rx="28.6953" ry="18"/>
<text text-anchor="middle" x="998" y="-374.3" font-family="Times,serif" font-size="14.00" fill="#000000">7016</text>
</g>
<!-- 7922 -->
<g id="node34" class="node">
<title>7922</title>
<ellipse fill="none" stroke="#000000" cx="998" cy="-306" rx="28.6953" ry="18"/>
<text text-anchor="middle" x="998" y="-302.3" font-family="Times,serif" font-size="14.00" fill="#000000">7922</text>
</g>
<!-- 7016&#45;&gt;7922 -->
<g id="edge44" class="edge">
<title>7016&#45;&gt;7922</title>
<path fill="none" stroke="#000000" d="M998,-359.8314C998,-352.131 998,-342.9743 998,-334.4166"/>
<polygon fill="#000000" stroke="#000000" points="1001.5001,-334.4132 998,-324.4133 994.5001,-334.4133 1001.5001,-334.4132"/>
</g>
<!-- 7473 -->
<g id="node31" class="node">
<title>7473</title>
<ellipse fill="none" stroke="#000000" cx="1039" cy="-162" rx="28.6953" ry="18"/>
<text text-anchor="middle" x="1039" y="-158.3" font-family="Times,serif" font-size="14.00" fill="#000000">7473</text>
</g>
<!-- 7474 -->
<g id="node32" class="node">
<title>7474</title>
<ellipse fill="none" stroke="#000000" cx="998" cy="-90" rx="28.6953" ry="18"/>
<text text-anchor="middle" x="998" y="-86.3" font-family="Times,serif" font-size="14.00" fill="#000000">7474</text>
</g>
<!-- 9505&#45;&gt;7473 -->
<g id="edge45" class="edge">
<title>9505&#45;&gt;7473</title>
<path fill="none" stroke="#000000" d="M1038.2523,-215.8314C1038.3593,-208.131 1038.4865,-198.9743 1038.6053,-190.4166"/>
<polygon fill="#000000" stroke="#000000" points="1042.1049,-190.4609 1038.7443,-180.4133 1035.1056,-190.3637 1042.1049,-190.4609"/>
</g>
<!-- 12956 -->
<g id="node39" class="node">
<title>12956</title>
<ellipse fill="none" stroke="#000000" cx="913" cy="-666" rx="32.4942" ry="18"/>
<text text-anchor="middle" x="913" y="-662.3" font-family="Times,serif" font-size="14.00" fill="#000000">12956</text>
</g>
<!-- 10834&#45;&gt;12956 -->
<g id="edge46" class="edge">
<title>10834&#45;&gt;12956</title>
<path fill="none" stroke="#000000" d="M944.075,-720.5708C939.19,-711.9922 933.2017,-701.4762 927.7903,-691.9732"/>
<polygon fill="#000000" stroke="#000000" points="930.8234,-690.2266 922.8336,-683.2687 924.7405,-693.6905 930.8234,-690.2266"/>
</g>
<!-- 22927 -->
<g id="node41" class="node">
<title>22927</title>
<ellipse fill="none" stroke="#000000" cx="996" cy="-666" rx="32.4942" ry="18"/>
<text text-anchor="middle" x="996" y="-662.3" font-family="Times,serif" font-size="14.00" fill="#000000">22927</text>
</g>
<!-- 10834&#45;&gt;22927 -->
<g id="edge47" class="edge">
<title>10834&#45;&gt;22927</title>
<path fill="none" stroke="#000000" d="M964.167,-720.5708C969.1712,-711.9922 975.3055,-701.4762 980.849,-691.9732"/>
<polygon fill="#000000" stroke="#000000" points="983.9111,-693.6701 985.9266,-683.2687 977.8646,-690.1429 983.9111,-693.6701"/>
</g>
<!-- 12956&#45;&gt;3356 -->
<g id="edge48" class="edge">
<title>12956&#45;&gt;3356</title>
<path fill="none" stroke="#000000" d="M913,-647.8314C913,-640.131 913,-630.9743 913,-622.4166"/>
<polygon fill="#000000" stroke="#000000" points="916.5001,-622.4132 913,-612.4133 909.5001,-622.4133 916.5001,-622.4132"/>
</g>
<!-- 18540 -->
<g id="node40" class="node">
<title>18540</title>
<ellipse fill="none" stroke="#000000" cx="1077" cy="-378" rx="32.4942" ry="18"/>
<text text-anchor="middle" x="1077" y="-374.3" font-family="Times,serif" font-size="14.00" fill="#000000">18540</text>
</g>
<!-- 30070&#45;&gt;6904 -->
<g id="edge49" class="edge">
<title>30070&#45;&gt;6904</title>
<path fill="none" stroke="#000000" d="M962.6767,-432.937C956.1726,-423.9313 948.0722,-412.7154 940.8895,-402.7701"/>
<polygon fill="#000000" stroke="#000000" points="943.5692,-400.5025 934.8769,-394.4449 937.8944,-404.601 943.5692,-400.5025"/>
</g>
<!-- 30070&#45;&gt;7016 -->
<g id="edge50" class="edge">
<title>30070&#45;&gt;7016</title>
<path fill="none" stroke="#000000" d="M980.6854,-432.2022C983.2563,-424.1541 986.3534,-414.4588 989.2132,-405.5067"/>
<polygon fill="#000000" stroke="#000000" points="992.5913,-406.4334 992.3003,-395.8425 985.9232,-404.3033 992.5913,-406.4334"/>
</g>
<!-- 30070&#45;&gt;18540 -->
<g id="edge51" class="edge">
<title>30070&#45;&gt;18540</title>
<path fill="none" stroke="#000000" d="M995.1519,-435.7751C1010.3796,-425.0262 1031.4844,-410.1287 1048.449,-398.1536"/>
<polygon fill="#000000" stroke="#000000" points="1050.7387,-400.8216 1056.8899,-392.1953 1046.7018,-395.1028 1050.7387,-400.8216"/>
</g>
<!-- 32787&#45;&gt;703 -->
<g id="edge52" class="edge">
<title>32787&#45;&gt;703</title>
<path fill="none" stroke="#000000" d="M863.67,-148.2879C845.9475,-136.8948 820.5872,-120.5918 801.1914,-108.1231"/>
<polygon fill="#000000" stroke="#000000" points="803.0529,-105.1589 792.7485,-102.6954 799.2676,-111.0472 803.0529,-105.1589"/>
</g>
<!-- 32787&#45;&gt;2764 -->
<g id="edge53" class="edge">
<title>32787&#45;&gt;2764</title>
<path fill="none" stroke="#000000" d="M876.0433,-144.5708C871.6803,-136.0807 866.3422,-125.6929 861.4985,-116.2674"/>
<polygon fill="#000000" stroke="#000000" points="864.5579,-114.5633 856.8742,-107.2687 858.3319,-117.7628 864.5579,-114.5633"/>
</g>
<!-- 32787&#45;&gt;4637 -->
<g id="edge54" class="edge">
<title>32787&#45;&gt;4637</title>
<path fill="none" stroke="#000000" d="M894.1987,-144.5708C898.6797,-136.0807 904.1621,-125.6929 909.1366,-116.2674"/>
<polygon fill="#000000" stroke="#000000" points="912.3137,-117.7462 913.886,-107.2687 906.123,-114.4789 912.3137,-117.7462"/>
</g>
<!-- 32787&#45;&gt;7474 -->
<g id="edge55" class="edge">
<title>32787&#45;&gt;7474</title>
<path fill="none" stroke="#000000" d="M906.5204,-148.2879C924.2901,-136.9656 949.6704,-120.7941 969.1915,-108.3558"/>
<polygon fill="#000000" stroke="#000000" points="971.1472,-111.2599 977.7,-102.9345 967.3857,-105.3564 971.1472,-111.2599"/>
</g>
</g>
</svg>
