<?xml version="1.0" encoding="UTF-8" standalone="no"?>
<!DOCTYPE svg PUBLIC "-//W3C//DTD SVG 1.1//EN"
 "http://www.w3.org/Graphics/SVG/1.1/DTD/svg11.dtd">
<!-- Generated by graphviz version 2.40.1 (20161225.0304)
 -->
<!-- Title: %3 Pages: 1 -->
<svg width="1950pt" height="1923pt"
 viewBox="0.00 0.00 1950.00 1923.00" xmlns="http://www.w3.org/2000/svg" xmlns:xlink="http://www.w3.org/1999/xlink">
<g id="graph0" class="graph" transform="scale(1 1) rotate(0) translate(4 1919)">
<title>%3</title>
<polygon fill="#ffffff" stroke="transparent" points="-4,4 -4,-1919 1946,-1919 1946,4 -4,4"/>
<!-- 174 -->
<g id="node1" class="node">
<title>174</title>
<ellipse fill="none" stroke="#000000" cx="1736.399" cy="-153.8053" rx="27" ry="18"/>
<text text-anchor="middle" x="1736.399" y="-150.1053" font-family="Times,serif" font-size="14.00" fill="#000000">174</text>
</g>
<!-- 209 -->
<g id="node2" class="node">
<title>209</title>
<ellipse fill="none" stroke="#000000" cx="1855.9823" cy="-139.6555" rx="27" ry="18"/>
<text text-anchor="middle" x="1855.9823" y="-135.9555" font-family="Times,serif" font-size="14.00" fill="#000000">209</text>
</g>
<!-- 174&#45;&gt;209 -->
<g id="edge1" class="edge">
<title>174&#45;&gt;209</title>
<path fill="none" stroke="#000000" d="M1763.2358,-150.6298C1779.776,-148.6727 1801.2092,-146.1366 1819.3043,-143.9955"/>
<polygon fill="#000000" stroke="#000000" points="1819.7156,-147.4713 1829.235,-142.8204 1818.893,-140.5198 1819.7156,-147.4713"/>
</g>
<!-- 701 -->
<g id="node3" class="node">
<title>701</title>
<ellipse fill="none" stroke="#000000" cx="1843.558" cy="-197.3481" rx="27" ry="18"/>
<text text-anchor="middle" x="1843.558" y="-193.6481" font-family="Times,serif" font-size="14.00" fill="#000000">701</text>
</g>
<!-- 174&#45;&gt;701 -->
<g id="edge2" class="edge">
<title>174&#45;&gt;701</title>
<path fill="none" stroke="#000000" d="M1759.6509,-163.2535C1774.6762,-169.3588 1794.4459,-177.392 1811.0213,-184.1272"/>
<polygon fill="#000000" stroke="#000000" points="1809.7695,-187.3964 1820.3515,-187.9184 1812.4047,-180.9113 1809.7695,-187.3964"/>
</g>
<!-- 1239 -->
<g id="node5" class="node">
<title>1239</title>
<ellipse fill="none" stroke="#000000" cx="1626.6358" cy="-150.0345" rx="28.6953" ry="18"/>
<text text-anchor="middle" x="1626.6358" y="-146.3345" font-family="Times,serif" font-size="14.00" fill="#000000">1239</text>
</g>
<!-- 174&#45;&gt;1239 -->
<g id="edge3" class="edge">
<title>174&#45;&gt;1239</title>
<path fill="none" stroke="#000000" d="M1709.2665,-152.8732C1696.0865,-152.4204 1680.0091,-151.8681 1665.551,-151.3714"/>
<polygon fill="#000000" stroke="#000000" points="1665.4883,-147.8673 1655.374,-151.0218 1665.2479,-154.8632 1665.4883,-147.8673"/>
</g>
<!-- 1273 -->
<g id="node6" class="node">
<title>1273</title>
<ellipse fill="none" stroke="#000000" cx="1638.9684" cy="-88.0711" rx="28.6953" ry="18"/>
<text text-anchor="middle" x="1638.9684" y="-84.3711" font-family="Times,serif" font-size="14.00" fill="#000000">1273</text>
</g>
<!-- 174&#45;&gt;1273 -->
<g id="edge4" class="edge">
<title>174&#45;&gt;1273</title>
<path fill="none" stroke="#000000" d="M1717.1498,-140.8184C1702.8314,-131.158 1683.0729,-117.8275 1667.002,-106.9848"/>
<polygon fill="#000000" stroke="#000000" points="1668.7583,-103.9476 1658.511,-101.2561 1664.8433,-109.7505 1668.7583,-103.9476"/>
</g>
<!-- 1299 -->
<g id="node7" class="node">
<title>1299</title>
<ellipse fill="none" stroke="#000000" cx="1809.0676" cy="-41.7282" rx="28.6953" ry="18"/>
<text text-anchor="middle" x="1809.0676" y="-38.0282" font-family="Times,serif" font-size="14.00" fill="#000000">1299</text>
</g>
<!-- 174&#45;&gt;1299 -->
<g id="edge5" class="edge">
<title>174&#45;&gt;1299</title>
<path fill="none" stroke="#000000" d="M1747.1215,-137.268C1759.0742,-118.8332 1778.5507,-88.7946 1792.4739,-67.3207"/>
<polygon fill="#000000" stroke="#000000" points="1795.5593,-68.9956 1798.0629,-58.7008 1789.6858,-65.1873 1795.5593,-68.9956"/>
</g>
<!-- 2828 -->
<g id="node13" class="node">
<title>2828</title>
<ellipse fill="none" stroke="#000000" cx="1845.8928" cy="-93.2782" rx="28.6953" ry="18"/>
<text text-anchor="middle" x="1845.8928" y="-89.5782" font-family="Times,serif" font-size="14.00" fill="#000000">2828</text>
</g>
<!-- 174&#45;&gt;2828 -->
<g id="edge6" class="edge">
<title>174&#45;&gt;2828</title>
<path fill="none" stroke="#000000" d="M1757.2517,-142.2782C1773.7065,-133.1821 1796.8963,-120.363 1815.4297,-110.1179"/>
<polygon fill="#000000" stroke="#000000" points="1817.311,-113.0771 1824.3696,-105.176 1813.9245,-106.9508 1817.311,-113.0771"/>
</g>
<!-- 5511 -->
<g id="node23" class="node">
<title>5511</title>
<ellipse fill="none" stroke="#000000" cx="1670.848" cy="-39.2601" rx="28.6953" ry="18"/>
<text text-anchor="middle" x="1670.848" y="-35.5601" font-family="Times,serif" font-size="14.00" fill="#000000">5511</text>
</g>
<!-- 174&#45;&gt;5511 -->
<g id="edge7" class="edge">
<title>174&#45;&gt;5511</title>
<path fill="none" stroke="#000000" d="M1726.7267,-136.9038C1715.8824,-117.9542 1698.1726,-87.0077 1685.5991,-65.0365"/>
<polygon fill="#000000" stroke="#000000" points="1688.5646,-63.1718 1680.5599,-56.231 1682.4891,-66.6487 1688.5646,-63.1718"/>
</g>
<!-- 6461 -->
<g id="node26" class="node">
<title>6461</title>
<ellipse fill="none" stroke="#000000" cx="1740.2552" cy="-69.1117" rx="28.6953" ry="18"/>
<text text-anchor="middle" x="1740.2552" y="-65.4117" font-family="Times,serif" font-size="14.00" fill="#000000">6461</text>
</g>
<!-- 174&#45;&gt;6461 -->
<g id="edge8" class="edge">
<title>174&#45;&gt;6461</title>
<path fill="none" stroke="#000000" d="M1737.2357,-135.4281C1737.7445,-124.2537 1738.4045,-109.759 1738.9776,-97.1719"/>
<polygon fill="#000000" stroke="#000000" points="1742.4748,-97.311 1739.4334,-87.1622 1735.4821,-96.9926 1742.4748,-97.311"/>
</g>
<!-- 7018 -->
<g id="node30" class="node">
<title>7018</title>
<ellipse fill="none" stroke="#000000" cx="1741.7482" cy="-18.4888" rx="28.6953" ry="18"/>
<text text-anchor="middle" x="1741.7482" y="-14.7888" font-family="Times,serif" font-size="14.00" fill="#000000">7018</text>
</g>
<!-- 174&#45;&gt;7018 -->
<g id="edge9" class="edge">
<title>174&#45;&gt;7018</title>
<path fill="none" stroke="#000000" d="M1737.1204,-135.5559C1738.0177,-112.8572 1739.5599,-73.8448 1740.6155,-47.1424"/>
<polygon fill="#000000" stroke="#000000" points="1744.1233,-47.0117 1741.0211,-36.8812 1737.1287,-46.7352 1744.1233,-47.0117"/>
</g>
<!-- 703 -->
<g id="node4" class="node">
<title>703</title>
<ellipse fill="none" stroke="#000000" cx="189.1312" cy="-759.5909" rx="27" ry="18"/>
<text text-anchor="middle" x="189.1312" y="-755.8909" font-family="Times,serif" font-size="14.00" fill="#000000">703</text>
</g>
<!-- 9498 -->
<g id="node35" class="node">
<title>9498</title>
<ellipse fill="none" stroke="#000000" cx="84.6559" cy="-812.0353" rx="28.6953" ry="18"/>
<text text-anchor="middle" x="84.6559" y="-808.3353" font-family="Times,serif" font-size="14.00" fill="#000000">9498</text>
</g>
<!-- 703&#45;&gt;9498 -->
<g id="edge10" class="edge">
<title>703&#45;&gt;9498</title>
<path fill="none" stroke="#000000" d="M167.4839,-770.4574C152.7948,-777.831 133.1231,-787.7057 116.6368,-795.9815"/>
<polygon fill="#000000" stroke="#000000" points="114.7266,-793.0241 107.3597,-800.6384 117.8671,-799.2801 114.7266,-793.0241"/>
</g>
<!-- 2497 -->
<g id="node8" class="node">
<title>2497</title>
<ellipse fill="none" stroke="#000000" cx="1798.0464" cy="-366.4717" rx="28.6953" ry="18"/>
<text text-anchor="middle" x="1798.0464" y="-362.7717" font-family="Times,serif" font-size="14.00" fill="#000000">2497</text>
</g>
<!-- 3320 -->
<g id="node16" class="node">
<title>3320</title>
<ellipse fill="none" stroke="#000000" cx="1913.1901" cy="-396.2843" rx="28.6953" ry="18"/>
<text text-anchor="middle" x="1913.1901" y="-392.5843" font-family="Times,serif" font-size="14.00" fill="#000000">3320</text>
</g>
<!-- 2497&#45;&gt;3320 -->
<g id="edge11" class="edge">
<title>2497&#45;&gt;3320</title>
<path fill="none" stroke="#000000" d="M1824.7521,-373.3862C1840.1567,-377.3747 1859.7471,-382.447 1876.5725,-386.8034"/>
<polygon fill="#000000" stroke="#000000" points="1876.0711,-390.2889 1886.6292,-389.4072 1877.8257,-383.5124 1876.0711,-390.2889"/>
</g>
<!-- 2516 -->
<g id="node9" class="node">
<title>2516</title>
<ellipse fill="none" stroke="#000000" cx="477.0253" cy="-745.04" rx="28.6953" ry="18"/>
<text text-anchor="middle" x="477.0253" y="-741.34" font-family="Times,serif" font-size="14.00" fill="#000000">2516</text>
</g>
<!-- 32787 -->
<g id="node45" class="node">
<title>32787</title>
<ellipse fill="none" stroke="#000000" cx="311.1552" cy="-693.3602" rx="32.4942" ry="18"/>
<text text-anchor="middle" x="311.1552" y="-689.6602" font-family="Times,serif" font-size="14.00" fill="#000000">32787</text>
</g>
<!-- 2516&#45;&gt;32787 -->
<g id="edge12" class="edge">
<title>2516&#45;&gt;32787</title>
<path fill="none" stroke="#000000" d="M451.1081,-736.965C423.812,-728.4604 380.5446,-714.9797 349.3409,-705.2576"/>
<polygon fill="#000000" stroke="#000000" points="350.2578,-701.8774 339.6693,-702.2443 348.1755,-708.5606 350.2578,-701.8774"/>
</g>
<!-- 2686 -->
<g id="node10" class="node">
<title>2686</title>
<ellipse fill="none" stroke="#000000" cx="627.2984" cy="-658.5796" rx="28.6953" ry="18"/>
<text text-anchor="middle" x="627.2984" y="-654.8796" font-family="Times,serif" font-size="14.00" fill="#000000">2686</text>
</g>
<!-- 3741 -->
<g id="node21" class="node">
<title>3741</title>
<ellipse fill="none" stroke="#000000" cx="610.3043" cy="-533.8589" rx="28.6953" ry="18"/>
<text text-anchor="middle" x="610.3043" y="-530.1589" font-family="Times,serif" font-size="14.00" fill="#000000">3741</text>
</g>
<!-- 2686&#45;&gt;3741 -->
<g id="edge13" class="edge">
<title>2686&#45;&gt;3741</title>
<path fill="none" stroke="#000000" d="M624.8273,-640.4441C622.0207,-619.8461 617.4069,-585.9853 614.1334,-561.9608"/>
<polygon fill="#000000" stroke="#000000" points="617.5965,-561.4521 612.7784,-552.0163 610.6606,-562.3973 617.5965,-561.4521"/>
</g>
<!-- 2687 -->
<g id="node11" class="node">
<title>2687</title>
<ellipse fill="none" stroke="#000000" cx="643.9847" cy="-797.923" rx="28.6953" ry="18"/>
<text text-anchor="middle" x="643.9847" y="-794.223" font-family="Times,serif" font-size="14.00" fill="#000000">2687</text>
</g>
<!-- 2687&#45;&gt;2516 -->
<g id="edge14" class="edge">
<title>2687&#45;&gt;2516</title>
<path fill="none" stroke="#000000" d="M618.2632,-789.7759C589.9523,-780.8087 544.2581,-766.3354 512.5424,-756.2898"/>
<polygon fill="#000000" stroke="#000000" points="513.3661,-752.8793 502.776,-753.1963 511.2524,-759.5526 513.3661,-752.8793"/>
</g>
<!-- 2687&#45;&gt;2686 -->
<g id="edge15" class="edge">
<title>2687&#45;&gt;2686</title>
<path fill="none" stroke="#000000" d="M641.8032,-779.7062C638.9801,-756.1307 634.0302,-714.7953 630.7084,-687.0555"/>
<polygon fill="#000000" stroke="#000000" points="634.1446,-686.3137 629.4804,-676.8008 627.1943,-687.146 634.1446,-686.3137"/>
</g>
<!-- 9505 -->
<g id="node36" class="node">
<title>9505</title>
<ellipse fill="none" stroke="#000000" cx="549.4102" cy="-880.2774" rx="28.6953" ry="18"/>
<text text-anchor="middle" x="549.4102" y="-876.5774" font-family="Times,serif" font-size="14.00" fill="#000000">9505</text>
</g>
<!-- 2687&#45;&gt;9505 -->
<g id="edge16" class="edge">
<title>2687&#45;&gt;9505</title>
<path fill="none" stroke="#000000" d="M627.0766,-812.6463C612.283,-825.5284 590.6103,-844.4008 573.9156,-858.9384"/>
<polygon fill="#000000" stroke="#000000" points="571.4148,-856.475 566.1718,-865.6816 576.0118,-861.754 571.4148,-856.475"/>
</g>
<!-- 2764 -->
<g id="node12" class="node">
<title>2764</title>
<ellipse fill="none" stroke="#000000" cx="157.0154" cy="-632.3531" rx="28.6953" ry="18"/>
<text text-anchor="middle" x="157.0154" y="-628.6531" font-family="Times,serif" font-size="14.00" fill="#000000">2764</text>
</g>
<!-- 7545 -->
<g id="node33" class="node">
<title>7545</title>
<ellipse fill="none" stroke="#000000" cx="44.6681" cy="-584.809" rx="28.6953" ry="18"/>
<text text-anchor="middle" x="44.6681" y="-581.109" font-family="Times,serif" font-size="14.00" fill="#000000">7545</text>
</g>
<!-- 2764&#45;&gt;7545 -->
<g id="edge17" class="edge">
<title>2764&#45;&gt;7545</title>
<path fill="none" stroke="#000000" d="M133.1895,-622.2702C117.1028,-615.4625 95.6471,-606.3827 77.888,-598.8673"/>
<polygon fill="#000000" stroke="#000000" points="79.0331,-595.5514 68.4597,-594.8773 76.305,-601.9979 79.0331,-595.5514"/>
</g>
<!-- 38333 -->
<g id="node47" class="node">
<title>38333</title>
<ellipse fill="none" stroke="#000000" cx="32.4629" cy="-648.1569" rx="32.4942" ry="18"/>
<text text-anchor="middle" x="32.4629" y="-644.4569" font-family="Times,serif" font-size="14.00" fill="#000000">38333</text>
</g>
<!-- 2764&#45;&gt;38333 -->
<g id="edge18" class="edge">
<title>2764&#45;&gt;38333</title>
<path fill="none" stroke="#000000" d="M128.7526,-635.9392C112.793,-637.9642 92.5343,-640.5348 74.7209,-642.795"/>
<polygon fill="#000000" stroke="#000000" points="74.046,-639.3525 64.5661,-644.0835 74.9272,-646.2968 74.046,-639.3525"/>
</g>
<!-- 38561 -->
<g id="node48" class="node">
<title>38561</title>
<ellipse fill="none" stroke="#000000" cx="82.1972" cy="-531.4985" rx="32.4942" ry="18"/>
<text text-anchor="middle" x="82.1972" y="-527.7985" font-family="Times,serif" font-size="14.00" fill="#000000">38561</text>
</g>
<!-- 2764&#45;&gt;38561 -->
<g id="edge19" class="edge">
<title>2764&#45;&gt;38561</title>
<path fill="none" stroke="#000000" d="M144.6607,-615.699C132.6934,-599.5671 114.395,-574.901 100.6917,-556.429"/>
<polygon fill="#000000" stroke="#000000" points="103.3393,-554.1233 94.5703,-548.1773 97.7173,-558.294 103.3393,-554.1233"/>
</g>
<!-- 2914 -->
<g id="node14" class="node">
<title>2914</title>
<ellipse fill="none" stroke="#000000" cx="1361.2344" cy="-747.5321" rx="28.6953" ry="18"/>
<text text-anchor="middle" x="1361.2344" y="-743.8321" font-family="Times,serif" font-size="14.00" fill="#000000">2914</text>
</g>
<!-- 6453 -->
<g id="node25" class="node">
<title>6453</title>
<ellipse fill="none" stroke="#000000" cx="1471.1329" cy="-606.0142" rx="28.6953" ry="18"/>
<text text-anchor="middle" x="1471.1329" y="-602.3142" font-family="Times,serif" font-size="14.00" fill="#000000">6453</text>
</g>
<!-- 2914&#45;&gt;6453 -->
<g id="edge20" class="edge">
<title>2914&#45;&gt;6453</title>
<path fill="none" stroke="#000000" d="M1373.8412,-731.2982C1393.033,-706.5846 1429.71,-659.355 1452.1395,-630.4723"/>
<polygon fill="#000000" stroke="#000000" points="1454.9655,-632.5396 1458.3346,-622.4947 1449.4368,-628.2461 1454.9655,-632.5396"/>
</g>
<!-- 3257 -->
<g id="node15" class="node">
<title>3257</title>
<ellipse fill="none" stroke="#000000" cx="1575.3776" cy="-464.582" rx="28.6953" ry="18"/>
<text text-anchor="middle" x="1575.3776" y="-460.882" font-family="Times,serif" font-size="14.00" fill="#000000">3257</text>
</g>
<!-- 3491 -->
<g id="node18" class="node">
<title>3491</title>
<ellipse fill="none" stroke="#000000" cx="1676.2019" cy="-324.0767" rx="28.6953" ry="18"/>
<text text-anchor="middle" x="1676.2019" y="-320.3767" font-family="Times,serif" font-size="14.00" fill="#000000">3491</text>
</g>
<!-- 3257&#45;&gt;3491 -->
<g id="edge21" class="edge">
<title>3257&#45;&gt;3491</title>
<path fill="none" stroke="#000000" d="M1587.3394,-447.9125C1604.9248,-423.4061 1637.8786,-377.4827 1658.3381,-348.9711"/>
<polygon fill="#000000" stroke="#000000" points="1661.2691,-350.8898 1664.2557,-340.7246 1655.5819,-346.8087 1661.2691,-350.8898"/>
</g>
<!-- 3356 -->
<g id="node17" class="node">
<title>3356</title>
<ellipse fill="none" stroke="#000000" cx="1168.3582" cy="-1180.3577" rx="28.6953" ry="18"/>
<text text-anchor="middle" x="1168.3582" y="-1176.6577" font-family="Times,serif" font-size="14.00" fill="#000000">3356</text>
</g>
<!-- 3549 -->
<g id="node19" class="node">
<title>3549</title>
<ellipse fill="none" stroke="#000000" cx="1134.8773" cy="-1007.9781" rx="28.6953" ry="18"/>
<text text-anchor="middle" x="1134.8773" y="-1004.2781" font-family="Times,serif" font-size="14.00" fill="#000000">3549</text>
</g>
<!-- 3356&#45;&gt;3549 -->
<g id="edge22" class="edge">
<title>3356&#45;&gt;3549</title>
<path fill="none" stroke="#000000" d="M1164.8384,-1162.2359C1158.9958,-1132.1544 1147.2542,-1071.7017 1140.3317,-1036.0605"/>
<polygon fill="#000000" stroke="#000000" points="1143.6924,-1035.0063 1138.3499,-1025.8571 1136.8208,-1036.341 1143.6924,-1035.0063"/>
</g>
<!-- 3491&#45;&gt;174 -->
<g id="edge23" class="edge">
<title>3491&#45;&gt;174</title>
<path fill="none" stroke="#000000" d="M1682.4173,-306.496C1692.9161,-276.7994 1714.2352,-216.4969 1726.7103,-181.2104"/>
<polygon fill="#000000" stroke="#000000" points="1730.0938,-182.1403 1730.1272,-171.5455 1723.4941,-179.807 1730.0938,-182.1403"/>
</g>
<!-- 3491&#45;&gt;2497 -->
<g id="edge24" class="edge">
<title>3491&#45;&gt;2497</title>
<path fill="none" stroke="#000000" d="M1701.4482,-332.861C1719.3373,-339.0854 1743.5631,-347.5146 1763.2784,-354.3744"/>
<polygon fill="#000000" stroke="#000000" points="1762.2377,-357.718 1772.8325,-357.6987 1764.5381,-351.1068 1762.2377,-357.718"/>
</g>
<!-- 6762 -->
<g id="node27" class="node">
<title>6762</title>
<ellipse fill="none" stroke="#000000" cx="1253.2653" cy="-877.6111" rx="28.6953" ry="18"/>
<text text-anchor="middle" x="1253.2653" y="-873.9111" font-family="Times,serif" font-size="14.00" fill="#000000">6762</text>
</g>
<!-- 3549&#45;&gt;6762 -->
<g id="edge25" class="edge">
<title>3549&#45;&gt;6762</title>
<path fill="none" stroke="#000000" d="M1149.1577,-992.2528C1169.7791,-969.5448 1208.0424,-927.4098 1231.9954,-901.0331"/>
<polygon fill="#000000" stroke="#000000" points="1234.8025,-903.1481 1238.9343,-893.3921 1229.6204,-898.4422 1234.8025,-903.1481"/>
</g>
<!-- 30070 -->
<g id="node44" class="node">
<title>30070</title>
<ellipse fill="none" stroke="#000000" cx="971.1504" cy="-944.5093" rx="32.4942" ry="18"/>
<text text-anchor="middle" x="971.1504" y="-940.8093" font-family="Times,serif" font-size="14.00" fill="#000000">30070</text>
</g>
<!-- 3549&#45;&gt;30070 -->
<g id="edge26" class="edge">
<title>3549&#45;&gt;30070</title>
<path fill="none" stroke="#000000" d="M1110.3658,-998.4762C1083.1581,-987.9291 1038.9653,-970.7977 1007.6775,-958.669"/>
<polygon fill="#000000" stroke="#000000" points="1008.5994,-955.2727 998.0104,-954.9215 1006.0693,-961.7994 1008.5994,-955.2727"/>
</g>
<!-- 3597 -->
<g id="node20" class="node">
<title>3597</title>
<ellipse fill="none" stroke="#000000" cx="1254.1246" cy="-1888.5508" rx="28.6953" ry="18"/>
<text text-anchor="middle" x="1254.1246" y="-1884.8508" font-family="Times,serif" font-size="14.00" fill="#000000">3597</text>
</g>
<!-- 37179 -->
<g id="node46" class="node">
<title>37179</title>
<ellipse fill="none" stroke="#000000" cx="589.6289" cy="-410.5014" rx="32.4942" ry="18"/>
<text text-anchor="middle" x="589.6289" y="-406.8014" font-family="Times,serif" font-size="14.00" fill="#000000">37179</text>
</g>
<!-- 3741&#45;&gt;37179 -->
<g id="edge27" class="edge">
<title>3741&#45;&gt;37179</title>
<path fill="none" stroke="#000000" d="M607.2979,-515.9217C603.8986,-495.6401 598.3204,-462.3581 594.3411,-438.6164"/>
<polygon fill="#000000" stroke="#000000" points="597.7438,-437.7442 592.6389,-428.4603 590.8401,-438.9013 597.7438,-437.7442"/>
</g>
<!-- 4637 -->
<g id="node22" class="node">
<title>4637</title>
<ellipse fill="none" stroke="#000000" cx="229.704" cy="-607.511" rx="28.6953" ry="18"/>
<text text-anchor="middle" x="229.704" y="-603.811" font-family="Times,serif" font-size="14.00" fill="#000000">4637</text>
</g>
<!-- 5692 -->
<g id="node24" class="node">
<title>5692</title>
<ellipse fill="none" stroke="#000000" cx="1220.5956" cy="-1759.9258" rx="28.6953" ry="18"/>
<text text-anchor="middle" x="1220.5956" y="-1756.2258" font-family="Times,serif" font-size="14.00" fill="#000000">5692</text>
</g>
<!-- 5692&#45;&gt;3597 -->
<g id="edge28" class="edge">
<title>5692&#45;&gt;3597</title>
<path fill="none" stroke="#000000" d="M1225.2577,-1777.8105C1230.8561,-1799.2876 1240.3103,-1835.556 1246.8667,-1860.708"/>
<polygon fill="#000000" stroke="#000000" points="1243.4847,-1861.6095 1249.394,-1870.4033 1250.2583,-1859.8438 1243.4847,-1861.6095"/>
</g>
<!-- 10834 -->
<g id="node37" class="node">
<title>10834</title>
<ellipse fill="none" stroke="#000000" cx="1218.3538" cy="-1557.654" rx="32.4942" ry="18"/>
<text text-anchor="middle" x="1218.3538" y="-1553.954" font-family="Times,serif" font-size="14.00" fill="#000000">10834</text>
</g>
<!-- 5692&#45;&gt;10834 -->
<g id="edge29" class="edge">
<title>5692&#45;&gt;10834</title>
<path fill="none" stroke="#000000" d="M1220.3927,-1741.6188C1220.0001,-1706.1923 1219.134,-1628.0484 1218.667,-1585.9083"/>
<polygon fill="#000000" stroke="#000000" points="1222.1654,-1585.7345 1218.5546,-1575.7739 1215.1658,-1585.8121 1222.1654,-1585.7345"/>
</g>
<!-- 11008 -->
<g id="node38" class="node">
<title>11008</title>
<ellipse fill="none" stroke="#000000" cx="1101.7463" cy="-1801.3799" rx="32.4942" ry="18"/>
<text text-anchor="middle" x="1101.7463" y="-1797.6799" font-family="Times,serif" font-size="14.00" fill="#000000">11008</text>
</g>
<!-- 5692&#45;&gt;11008 -->
<g id="edge30" class="edge">
<title>5692&#45;&gt;11008</title>
<path fill="none" stroke="#000000" d="M1195.3907,-1768.7171C1178.9874,-1774.4386 1157.3069,-1782.0006 1138.9382,-1788.4075"/>
<polygon fill="#000000" stroke="#000000" points="1137.6945,-1785.1345 1129.405,-1791.7327 1139.9999,-1791.744 1137.6945,-1785.1345"/>
</g>
<!-- 27865 -->
<g id="node42" class="node">
<title>27865</title>
<ellipse fill="none" stroke="#000000" cx="1337.041" cy="-1719.0281" rx="32.4942" ry="18"/>
<text text-anchor="middle" x="1337.041" y="-1715.3281" font-family="Times,serif" font-size="14.00" fill="#000000">27865</text>
</g>
<!-- 5692&#45;&gt;27865 -->
<g id="edge31" class="edge">
<title>5692&#45;&gt;27865</title>
<path fill="none" stroke="#000000" d="M1245.5761,-1751.1522C1261.364,-1745.6072 1282.0561,-1738.3398 1299.7652,-1732.12"/>
<polygon fill="#000000" stroke="#000000" points="1300.9713,-1735.4061 1309.2465,-1728.79 1298.6517,-1728.8016 1300.9713,-1735.4061"/>
</g>
<!-- 28065 -->
<g id="node43" class="node">
<title>28065</title>
<ellipse fill="none" stroke="#000000" cx="1324.2796" cy="-1873.577" rx="32.4942" ry="18"/>
<text text-anchor="middle" x="1324.2796" y="-1869.877" font-family="Times,serif" font-size="14.00" fill="#000000">28065</text>
</g>
<!-- 5692&#45;&gt;28065 -->
<g id="edge32" class="edge">
<title>5692&#45;&gt;28065</title>
<path fill="none" stroke="#000000" d="M1235.0124,-1775.7285C1252.5332,-1794.9336 1282.2658,-1827.5243 1302.5633,-1849.7731"/>
<polygon fill="#000000" stroke="#000000" points="1299.9884,-1852.1438 1309.3138,-1857.1725 1305.1598,-1847.426 1299.9884,-1852.1438"/>
</g>
<!-- 52317 -->
<g id="node49" class="node">
<title>52317</title>
<ellipse fill="none" stroke="#000000" cx="1175.0164" cy="-1850.8262" rx="32.4942" ry="18"/>
<text text-anchor="middle" x="1175.0164" y="-1847.1262" font-family="Times,serif" font-size="14.00" fill="#000000">52317</text>
</g>
<!-- 5692&#45;&gt;52317 -->
<g id="edge33" class="edge">
<title>5692&#45;&gt;52317</title>
<path fill="none" stroke="#000000" d="M1211.8075,-1777.4523C1205.1867,-1790.6564 1195.9918,-1808.9941 1188.4507,-1824.0337"/>
<polygon fill="#000000" stroke="#000000" points="1185.1312,-1822.8455 1183.7776,-1833.3535 1191.3886,-1825.9831 1185.1312,-1822.8455"/>
</g>
<!-- 52375 -->
<g id="node50" class="node">
<title>52375</title>
<ellipse fill="none" stroke="#000000" cx="1249.8089" cy="-1829.6816" rx="32.4942" ry="18"/>
<text text-anchor="middle" x="1249.8089" y="-1825.9816" font-family="Times,serif" font-size="14.00" fill="#000000">52375</text>
</g>
<!-- 5692&#45;&gt;52375 -->
<g id="edge34" class="edge">
<title>5692&#45;&gt;52375</title>
<path fill="none" stroke="#000000" d="M1227.9674,-1777.5281C1231.1261,-1785.0705 1234.8886,-1794.0549 1238.3935,-1802.4238"/>
<polygon fill="#000000" stroke="#000000" points="1235.2466,-1803.9705 1242.3379,-1811.8423 1241.7033,-1801.2664 1235.2466,-1803.9705"/>
</g>
<!-- 52376 -->
<g id="node51" class="node">
<title>52376</title>
<ellipse fill="none" stroke="#000000" cx="1130.1061" cy="-1691.5562" rx="32.4942" ry="18"/>
<text text-anchor="middle" x="1130.1061" y="-1687.8562" font-family="Times,serif" font-size="14.00" fill="#000000">52376</text>
</g>
<!-- 5692&#45;&gt;52376 -->
<g id="edge35" class="edge">
<title>5692&#45;&gt;52376</title>
<path fill="none" stroke="#000000" d="M1202.2837,-1746.0902C1189.4189,-1736.3702 1171.9865,-1723.1991 1157.4766,-1712.2361"/>
<polygon fill="#000000" stroke="#000000" points="1159.4163,-1709.315 1149.3277,-1706.0792 1155.1965,-1714.9001 1159.4163,-1709.315"/>
</g>
<!-- 52380 -->
<g id="node52" class="node">
<title>52380</title>
<ellipse fill="none" stroke="#000000" cx="1096.8446" cy="-1851.2589" rx="32.4942" ry="18"/>
<text text-anchor="middle" x="1096.8446" y="-1847.5589" font-family="Times,serif" font-size="14.00" fill="#000000">52380</text>
</g>
<!-- 5692&#45;&gt;52380 -->
<g id="edge36" class="edge">
<title>5692&#45;&gt;52380</title>
<path fill="none" stroke="#000000" d="M1201.8005,-1773.7973C1181.3258,-1788.9085 1148.3572,-1813.2405 1124.8352,-1830.6007"/>
<polygon fill="#000000" stroke="#000000" points="1122.6048,-1827.8968 1116.6372,-1836.6511 1126.7616,-1833.5289 1122.6048,-1827.8968"/>
</g>
<!-- 52413 -->
<g id="node53" class="node">
<title>52413</title>
<ellipse fill="none" stroke="#000000" cx="1175.9283" cy="-1896.5239" rx="32.4942" ry="18"/>
<text text-anchor="middle" x="1175.9283" y="-1892.8239" font-family="Times,serif" font-size="14.00" fill="#000000">52413</text>
</g>
<!-- 5692&#45;&gt;52413 -->
<g id="edge37" class="edge">
<title>5692&#45;&gt;52413</title>
<path fill="none" stroke="#000000" d="M1214.7561,-1777.7836C1207.1654,-1800.9969 1193.8312,-1841.7746 1184.9386,-1868.9691"/>
<polygon fill="#000000" stroke="#000000" points="1181.5506,-1868.0691 1181.7692,-1878.6617 1188.2039,-1870.2448 1181.5506,-1868.0691"/>
</g>
<!-- 52431 -->
<g id="node54" class="node">
<title>52431</title>
<ellipse fill="none" stroke="#000000" cx="1098.7357" cy="-1754.624" rx="32.4942" ry="18"/>
<text text-anchor="middle" x="1098.7357" y="-1750.924" font-family="Times,serif" font-size="14.00" fill="#000000">52431</text>
</g>
<!-- 5692&#45;&gt;52431 -->
<g id="edge38" class="edge">
<title>5692&#45;&gt;52431</title>
<path fill="none" stroke="#000000" d="M1192.0249,-1758.6828C1176.9946,-1758.0288 1158.2634,-1757.2139 1141.5374,-1756.4862"/>
<polygon fill="#000000" stroke="#000000" points="1141.576,-1752.9847 1131.4333,-1756.0466 1141.2716,-1759.978 1141.576,-1752.9847"/>
</g>
<!-- 262230 -->
<g id="node55" class="node">
<title>262230</title>
<ellipse fill="none" stroke="#000000" cx="1355.1256" cy="-1777.8674" rx="37.0935" ry="18"/>
<text text-anchor="middle" x="1355.1256" y="-1774.1674" font-family="Times,serif" font-size="14.00" fill="#000000">262230</text>
</g>
<!-- 5692&#45;&gt;262230 -->
<g id="edge39" class="edge">
<title>5692&#45;&gt;262230</title>
<path fill="none" stroke="#000000" d="M1248.7975,-1763.6869C1266.2501,-1766.0145 1289.0717,-1769.0581 1309.0957,-1771.7286"/>
<polygon fill="#000000" stroke="#000000" points="1308.8937,-1775.2326 1319.2687,-1773.0854 1309.8192,-1768.2941 1308.8937,-1775.2326"/>
</g>
<!-- 264608 -->
<g id="node56" class="node">
<title>264608</title>
<ellipse fill="none" stroke="#000000" cx="1338.3333" cy="-1827.4599" rx="37.0935" ry="18"/>
<text text-anchor="middle" x="1338.3333" y="-1823.7599" font-family="Times,serif" font-size="14.00" fill="#000000">264608</text>
</g>
<!-- 5692&#45;&gt;264608 -->
<g id="edge40" class="edge">
<title>5692&#45;&gt;264608</title>
<path fill="none" stroke="#000000" d="M1241.917,-1772.1557C1259.6165,-1782.3081 1285.088,-1796.9185 1305.4059,-1808.5728"/>
<polygon fill="#000000" stroke="#000000" points="1303.9163,-1811.7533 1314.3321,-1813.6929 1307.3992,-1805.6812 1303.9163,-1811.7533"/>
</g>
<!-- 6453&#45;&gt;3257 -->
<g id="edge41" class="edge">
<title>6453&#45;&gt;3257</title>
<path fill="none" stroke="#000000" d="M1483.2951,-589.5133C1501.4988,-564.8157 1535.9543,-518.0688 1557.1673,-489.2885"/>
<polygon fill="#000000" stroke="#000000" points="1560.1771,-491.1041 1563.2929,-480.9778 1554.5423,-486.9509 1560.1771,-491.1041"/>
</g>
<!-- 6762&#45;&gt;2914 -->
<g id="edge42" class="edge">
<title>6762&#45;&gt;2914</title>
<path fill="none" stroke="#000000" d="M1266.7213,-861.3995C1285.4926,-838.7842 1319.6703,-797.6077 1341.3747,-771.4587"/>
<polygon fill="#000000" stroke="#000000" points="1344.2543,-773.4695 1347.948,-763.5393 1338.8679,-768.9987 1344.2543,-773.4695"/>
</g>
<!-- 6904 -->
<g id="node28" class="node">
<title>6904</title>
<ellipse fill="none" stroke="#000000" cx="804.036" cy="-868.5992" rx="28.6953" ry="18"/>
<text text-anchor="middle" x="804.036" y="-864.8992" font-family="Times,serif" font-size="14.00" fill="#000000">6904</text>
</g>
<!-- 6904&#45;&gt;2687 -->
<g id="edge43" class="edge">
<title>6904&#45;&gt;2687</title>
<path fill="none" stroke="#000000" d="M780.4199,-858.1706C753.0362,-846.0784 707.7228,-826.0688 676.8957,-812.456"/>
<polygon fill="#000000" stroke="#000000" points="677.9986,-809.117 667.437,-808.2791 675.1709,-815.5204 677.9986,-809.117"/>
</g>
<!-- 7016 -->
<g id="node29" class="node">
<title>7016</title>
<ellipse fill="none" stroke="#000000" cx="896.9578" cy="-1044.2084" rx="28.6953" ry="18"/>
<text text-anchor="middle" x="896.9578" y="-1040.5084" font-family="Times,serif" font-size="14.00" fill="#000000">7016</text>
</g>
<!-- 7922 -->
<g id="node34" class="node">
<title>7922</title>
<ellipse fill="none" stroke="#000000" cx="828.2182" cy="-1131.5879" rx="28.6953" ry="18"/>
<text text-anchor="middle" x="828.2182" y="-1127.8879" font-family="Times,serif" font-size="14.00" fill="#000000">7922</text>
</g>
<!-- 7016&#45;&gt;7922 -->
<g id="edge44" class="edge">
<title>7016&#45;&gt;7922</title>
<path fill="none" stroke="#000000" d="M884.0284,-1060.6438C873.7551,-1073.7029 859.2266,-1092.171 847.5683,-1106.9907"/>
<polygon fill="#000000" stroke="#000000" points="844.5217,-1105.2026 841.0896,-1115.2262 850.0234,-1109.5307 844.5217,-1105.2026"/>
</g>
<!-- 7473 -->
<g id="node31" class="node">
<title>7473</title>
<ellipse fill="none" stroke="#000000" cx="464.3266" cy="-957.4409" rx="28.6953" ry="18"/>
<text text-anchor="middle" x="464.3266" y="-953.7409" font-family="Times,serif" font-size="14.00" fill="#000000">7473</text>
</g>
<!-- 7474 -->
<g id="node32" class="node">
<title>7474</title>
<ellipse fill="none" stroke="#000000" cx="296.0596" cy="-573.9971" rx="28.6953" ry="18"/>
<text text-anchor="middle" x="296.0596" y="-570.2971" font-family="Times,serif" font-size="14.00" fill="#000000">7474</text>
</g>
<!-- 9505&#45;&gt;7473 -->
<g id="edge45" class="edge">
<title>9505&#45;&gt;7473</title>
<path fill="none" stroke="#000000" d="M533.0052,-895.1553C520.2929,-906.6842 502.497,-922.8236 488.2057,-935.7846"/>
<polygon fill="#000000" stroke="#000000" points="485.7373,-933.2981 480.6812,-942.6087 490.4399,-938.4834 485.7373,-933.2981"/>
</g>
<!-- 12956 -->
<g id="node39" class="node">
<title>12956</title>
<ellipse fill="none" stroke="#000000" cx="1194.679" cy="-1368.3719" rx="32.4942" ry="18"/>
<text text-anchor="middle" x="1194.679" y="-1364.6719" font-family="Times,serif" font-size="14.00" fill="#000000">12956</text>
</g>
<!-- 10834&#45;&gt;12956 -->
<g id="edge46" class="edge">
<title>10834&#45;&gt;12956</title>
<path fill="none" stroke="#000000" d="M1216.0838,-1539.5048C1211.9386,-1506.3638 1203.1184,-1435.8456 1198.1923,-1396.461"/>
<polygon fill="#000000" stroke="#000000" points="1201.6563,-1395.9544 1196.9421,-1386.4661 1194.7104,-1396.8232 1201.6563,-1395.9544"/>
</g>
<!-- 22927 -->
<g id="node41" class="node">
<title>22927</title>
<ellipse fill="none" stroke="#000000" cx="1336.2336" cy="-1538.2433" rx="32.4942" ry="18"/>
<text text-anchor="middle" x="1336.2336" y="-1534.5433" font-family="Times,serif" font-size="14.00" fill="#000000">22927</text>
</g>
<!-- 10834&#45;&gt;22927 -->
<g id="edge47" class="edge">
<title>10834&#45;&gt;22927</title>
<path fill="none" stroke="#000000" d="M1249.634,-1552.5032C1263.4887,-1550.2218 1279.9805,-1547.5062 1294.8363,-1545.06"/>
<polygon fill="#000000" stroke="#000000" points="1295.5089,-1548.4965 1304.8073,-1543.4181 1294.3715,-1541.5895 1295.5089,-1548.4965"/>
</g>
<!-- 12956&#45;&gt;3356 -->
<g id="edge48" class="edge">
<title>12956&#45;&gt;3356</title>
<path fill="none" stroke="#000000" d="M1192.1552,-1350.3443C1187.5468,-1317.4253 1177.7408,-1247.3794 1172.2641,-1208.2587"/>
<polygon fill="#000000" stroke="#000000" points="1175.727,-1207.7489 1170.8743,-1198.3307 1168.7946,-1208.7194 1175.727,-1207.7489"/>
</g>
<!-- 18540 -->
<g id="node40" class="node">
<title>18540</title>
<ellipse fill="none" stroke="#000000" cx="1006.0045" cy="-836.7587" rx="32.4942" ry="18"/>
<text text-anchor="middle" x="1006.0045" y="-833.0587" font-family="Times,serif" font-size="14.00" fill="#000000">18540</text>
</g>
<!-- 30070&#45;&gt;6904 -->
<g id="edge49" class="edge">
<title>30070&#45;&gt;6904</title>
<path fill="none" stroke="#000000" d="M945.7694,-932.9801C916.5593,-919.7118 868.519,-897.8899 836.5828,-883.3832"/>
<polygon fill="#000000" stroke="#000000" points="837.7795,-880.0827 827.2272,-879.1336 834.8844,-886.456 837.7795,-880.0827"/>
</g>
<!-- 30070&#45;&gt;7016 -->
<g id="edge50" class="edge">
<title>30070&#45;&gt;7016</title>
<path fill="none" stroke="#000000" d="M958.5647,-961.4218C946.698,-977.3681 928.7745,-1001.4534 915.3147,-1019.5405"/>
<polygon fill="#000000" stroke="#000000" points="912.274,-1017.7639 909.1118,-1027.8759 917.8897,-1021.943 912.274,-1017.7639"/>
</g>
<!-- 30070&#45;&gt;18540 -->
<g id="edge51" class="edge">
<title>30070&#45;&gt;18540</title>
<path fill="none" stroke="#000000" d="M976.9059,-926.7164C982.4052,-909.7155 990.7743,-883.8427 997.1277,-864.2012"/>
<polygon fill="#000000" stroke="#000000" points="1000.4929,-865.1698 1000.2405,-854.578 993.8327,-863.0154 1000.4929,-865.1698"/>
</g>
<!-- 32787&#45;&gt;703 -->
<g id="edge52" class="edge">
<title>32787&#45;&gt;703</title>
<path fill="none" stroke="#000000" d="M287.9162,-705.9736C268.4001,-716.5663 240.3828,-731.7732 219.167,-743.2884"/>
<polygon fill="#000000" stroke="#000000" points="217.3639,-740.2847 210.2447,-748.1312 220.7032,-746.4369 217.3639,-740.2847"/>
</g>
<!-- 32787&#45;&gt;2764 -->
<g id="edge53" class="edge">
<title>32787&#45;&gt;2764</title>
<path fill="none" stroke="#000000" d="M284.6576,-682.8727C258.7865,-672.6331 219.303,-657.0059 191.1045,-645.8452"/>
<polygon fill="#000000" stroke="#000000" points="192.2281,-642.5258 181.6418,-642.1 189.6519,-649.0345 192.2281,-642.5258"/>
</g>
<!-- 32787&#45;&gt;4637 -->
<g id="edge54" class="edge">
<title>32787&#45;&gt;4637</title>
<path fill="none" stroke="#000000" d="M295.8349,-677.2126C283.2773,-663.977 265.3541,-645.086 251.3339,-630.3087"/>
<polygon fill="#000000" stroke="#000000" points="253.8289,-627.8534 244.407,-623.0079 248.7508,-632.6714 253.8289,-627.8534"/>
</g>
<!-- 32787&#45;&gt;7474 -->
<g id="edge55" class="edge">
<title>32787&#45;&gt;7474</title>
<path fill="none" stroke="#000000" d="M308.8625,-675.2315C306.4131,-655.8639 302.498,-624.9061 299.6414,-602.3188"/>
<polygon fill="#000000" stroke="#000000" points="303.101,-601.7782 298.3739,-592.2964 296.1563,-602.6565 303.101,-601.7782"/>
</g>
</g>
</svg>
