<?xml version="1.0" encoding="UTF-8" standalone="no"?>
<!DOCTYPE svg PUBLIC "-//W3C//DTD SVG 1.1//EN"
 "http://www.w3.org/Graphics/SVG/1.1/DTD/svg11.dtd">
<!-- Generated by graphviz version 2.40.1 (20161225.0304)
 -->
<!-- Title: %3 Pages: 1 -->
<svg width="1131pt" height="900pt"
 viewBox="0.00 0.00 1130.66 900.04" xmlns="http://www.w3.org/2000/svg" xmlns:xlink="http://www.w3.org/1999/xlink">
<g id="graph0" class="graph" transform="scale(1 1) rotate(0) translate(4 896.0417)">
<title>%3</title>
<polygon fill="#ffffff" stroke="transparent" points="-4,4 -4,-896.0417 1126.656,-896.0417 1126.656,4 -4,4"/>
<!-- 174 -->
<g id="node1" class="node">
<title>174</title>
<ellipse fill="none" stroke="#000000" cx="1007.0659" cy="-111.8124" rx="27" ry="18"/>
<text text-anchor="middle" x="1007.0659" y="-108.1124" font-family="Times,serif" font-size="14.00" fill="#000000">174</text>
</g>
<!-- 209 -->
<g id="node2" class="node">
<title>209</title>
<ellipse fill="none" stroke="#000000" cx="1087.4167" cy="-72.5965" rx="27" ry="18"/>
<text text-anchor="middle" x="1087.4167" y="-68.8965" font-family="Times,serif" font-size="14.00" fill="#000000">209</text>
</g>
<!-- 174&#45;&gt;209 -->
<g id="edge1" class="edge">
<title>174&#45;&gt;209</title>
<path fill="none" stroke="#000000" d="M1029.0221,-101.0965C1037.4368,-96.9897 1047.2042,-92.2226 1056.3148,-87.7761"/>
<polygon fill="#000000" stroke="#000000" points="1058.0354,-90.831 1065.487,-83.2995 1054.9651,-84.5402 1058.0354,-90.831"/>
</g>
<!-- 701 -->
<g id="node3" class="node">
<title>701</title>
<ellipse fill="none" stroke="#000000" cx="969.3867" cy="-30.5442" rx="27" ry="18"/>
<text text-anchor="middle" x="969.3867" y="-26.8442" font-family="Times,serif" font-size="14.00" fill="#000000">701</text>
</g>
<!-- 174&#45;&gt;701 -->
<g id="edge2" class="edge">
<title>174&#45;&gt;701</title>
<path fill="none" stroke="#000000" d="M999.0751,-94.5775C994.0296,-83.6952 987.4093,-69.4162 981.701,-57.1041"/>
<polygon fill="#000000" stroke="#000000" points="984.7476,-55.3544 977.366,-47.7542 978.397,-58.2988 984.7476,-55.3544"/>
</g>
<!-- 1239 -->
<g id="node5" class="node">
<title>1239</title>
<ellipse fill="none" stroke="#000000" cx="1077.3302" cy="-114.4908" rx="28.6953" ry="18"/>
<text text-anchor="middle" x="1077.3302" y="-110.7908" font-family="Times,serif" font-size="14.00" fill="#000000">1239</text>
</g>
<!-- 174&#45;&gt;1239 -->
<g id="edge3" class="edge">
<title>174&#45;&gt;1239</title>
<path fill="none" stroke="#000000" d="M1034.031,-112.8403C1035.5306,-112.8974 1037.0513,-112.9554 1038.5812,-113.0137"/>
<polygon fill="#000000" stroke="#000000" points="1038.5616,-116.5154 1048.6877,-113.399 1038.8283,-109.5205 1038.5616,-116.5154"/>
</g>
<!-- 1273 -->
<g id="node6" class="node">
<title>1273</title>
<ellipse fill="none" stroke="#000000" cx="945.2639" cy="-107.6088" rx="28.6953" ry="18"/>
<text text-anchor="middle" x="945.2639" y="-103.9088" font-family="Times,serif" font-size="14.00" fill="#000000">1273</text>
</g>
<!-- 174&#45;&gt;1273 -->
<g id="edge4" class="edge">
<title>174&#45;&gt;1273</title>
<path fill="none" stroke="#000000" d="M980.1385,-109.9809C980.0083,-109.972 979.8781,-109.9632 979.7478,-109.9543"/>
<polygon fill="#000000" stroke="#000000" points="984.0728,-106.7406 973.8583,-109.5537 983.5977,-113.7244 984.0728,-106.7406"/>
</g>
<!-- 1299 -->
<g id="node7" class="node">
<title>1299</title>
<ellipse fill="none" stroke="#000000" cx="940.272" cy="-61.3024" rx="28.6953" ry="18"/>
<text text-anchor="middle" x="940.272" y="-57.6024" font-family="Times,serif" font-size="14.00" fill="#000000">1299</text>
</g>
<!-- 174&#45;&gt;1299 -->
<g id="edge5" class="edge">
<title>174&#45;&gt;1299</title>
<path fill="none" stroke="#000000" d="M989.1664,-98.2766C982.3894,-93.1518 974.5184,-87.1998 967.0981,-81.5884"/>
<polygon fill="#000000" stroke="#000000" points="968.774,-78.4677 958.6867,-75.2277 964.5518,-84.0511 968.774,-78.4677"/>
</g>
<!-- 2828 -->
<g id="node13" class="node">
<title>2828</title>
<ellipse fill="none" stroke="#000000" cx="1093.6157" cy="-150.0867" rx="28.6953" ry="18"/>
<text text-anchor="middle" x="1093.6157" y="-146.3867" font-family="Times,serif" font-size="14.00" fill="#000000">2828</text>
</g>
<!-- 174&#45;&gt;2828 -->
<g id="edge6" class="edge">
<title>174&#45;&gt;2828</title>
<path fill="none" stroke="#000000" d="M1029.8059,-121.8685C1039.3156,-126.074 1050.5478,-131.0411 1060.9169,-135.6265"/>
<polygon fill="#000000" stroke="#000000" points="1059.5615,-138.8541 1070.1228,-139.6976 1062.3927,-132.4521 1059.5615,-138.8541"/>
</g>
<!-- 5511 -->
<g id="node23" class="node">
<title>5511</title>
<ellipse fill="none" stroke="#000000" cx="1045.7768" cy="-171.2692" rx="28.6953" ry="18"/>
<text text-anchor="middle" x="1045.7768" y="-167.5692" font-family="Times,serif" font-size="14.00" fill="#000000">5511</text>
</g>
<!-- 174&#45;&gt;5511 -->
<g id="edge7" class="edge">
<title>174&#45;&gt;5511</title>
<path fill="none" stroke="#000000" d="M1017.8491,-128.3744C1021.3964,-133.8228 1025.425,-140.0105 1029.2967,-145.9571"/>
<polygon fill="#000000" stroke="#000000" points="1026.3931,-147.9122 1034.7825,-154.3829 1032.2594,-144.0928 1026.3931,-147.9122"/>
</g>
<!-- 6461 -->
<g id="node26" class="node">
<title>6461</title>
<ellipse fill="none" stroke="#000000" cx="1011.364" cy="-25.2537" rx="28.6953" ry="18"/>
<text text-anchor="middle" x="1011.364" y="-21.5537" font-family="Times,serif" font-size="14.00" fill="#000000">6461</text>
</g>
<!-- 174&#45;&gt;6461 -->
<g id="edge8" class="edge">
<title>174&#45;&gt;6461</title>
<path fill="none" stroke="#000000" d="M1007.9774,-93.4555C1008.5569,-81.7864 1009.3184,-66.4506 1009.9725,-53.2771"/>
<polygon fill="#000000" stroke="#000000" points="1013.4682,-53.4486 1010.4685,-43.2873 1006.4768,-53.1014 1013.4682,-53.4486"/>
</g>
<!-- 7018 -->
<g id="node30" class="node">
<title>7018</title>
<ellipse fill="none" stroke="#000000" cx="1051.7784" cy="-40.8402" rx="28.6953" ry="18"/>
<text text-anchor="middle" x="1051.7784" y="-37.1402" font-family="Times,serif" font-size="14.00" fill="#000000">7018</text>
</g>
<!-- 174&#45;&gt;7018 -->
<g id="edge9" class="edge">
<title>174&#45;&gt;7018</title>
<path fill="none" stroke="#000000" d="M1017.6622,-94.993C1022.9852,-86.5437 1029.5518,-76.1207 1035.4978,-66.6825"/>
<polygon fill="#000000" stroke="#000000" points="1038.5786,-68.3585 1040.9477,-58.0319 1032.6559,-64.6272 1038.5786,-68.3585"/>
</g>
<!-- 703 -->
<g id="node4" class="node">
<title>703</title>
<ellipse fill="none" stroke="#000000" cx="108.8582" cy="-215.2314" rx="27" ry="18"/>
<text text-anchor="middle" x="108.8582" y="-211.5314" font-family="Times,serif" font-size="14.00" fill="#000000">703</text>
</g>
<!-- 9498 -->
<g id="node35" class="node">
<title>9498</title>
<ellipse fill="none" stroke="#000000" cx="28.5975" cy="-228.1755" rx="28.6953" ry="18"/>
<text text-anchor="middle" x="28.5975" y="-224.4755" font-family="Times,serif" font-size="14.00" fill="#000000">9498</text>
</g>
<!-- 703&#45;&gt;9498 -->
<g id="edge10" class="edge">
<title>703&#45;&gt;9498</title>
<path fill="none" stroke="#000000" d="M82.5778,-219.4698C77.4518,-220.2965 71.982,-221.1786 66.565,-222.0523"/>
<polygon fill="#000000" stroke="#000000" points="65.6321,-218.6574 56.317,-223.705 66.7467,-225.5681 65.6321,-218.6574"/>
</g>
<!-- 2497 -->
<g id="node8" class="node">
<title>2497</title>
<ellipse fill="none" stroke="#000000" cx="1019.4444" cy="-267.3994" rx="28.6953" ry="18"/>
<text text-anchor="middle" x="1019.4444" y="-263.6994" font-family="Times,serif" font-size="14.00" fill="#000000">2497</text>
</g>
<!-- 3320 -->
<g id="node16" class="node">
<title>3320</title>
<ellipse fill="none" stroke="#000000" cx="1094.0585" cy="-309.5691" rx="28.6953" ry="18"/>
<text text-anchor="middle" x="1094.0585" y="-305.8691" font-family="Times,serif" font-size="14.00" fill="#000000">3320</text>
</g>
<!-- 2497&#45;&gt;3320 -->
<g id="edge11" class="edge">
<title>2497&#45;&gt;3320</title>
<path fill="none" stroke="#000000" d="M1041.0259,-279.5966C1047.9862,-283.5304 1055.8405,-287.9694 1063.3295,-292.202"/>
<polygon fill="#000000" stroke="#000000" points="1062.0976,-295.526 1072.5255,-297.3993 1065.5418,-289.432 1062.0976,-295.526"/>
</g>
<!-- 2516 -->
<g id="node9" class="node">
<title>2516</title>
<ellipse fill="none" stroke="#000000" cx="274.6286" cy="-237.2245" rx="28.6953" ry="18"/>
<text text-anchor="middle" x="274.6286" y="-233.5245" font-family="Times,serif" font-size="14.00" fill="#000000">2516</text>
</g>
<!-- 32787 -->
<g id="node45" class="node">
<title>32787</title>
<ellipse fill="none" stroke="#000000" cx="203.0956" cy="-185.5012" rx="32.4942" ry="18"/>
<text text-anchor="middle" x="203.0956" y="-181.8012" font-family="Times,serif" font-size="14.00" fill="#000000">32787</text>
</g>
<!-- 2516&#45;&gt;32787 -->
<g id="edge12" class="edge">
<title>2516&#45;&gt;32787</title>
<path fill="none" stroke="#000000" d="M255.8341,-223.6348C248.3378,-218.2145 239.5467,-211.8579 231.3144,-205.9054"/>
<polygon fill="#000000" stroke="#000000" points="233.1699,-202.9279 223.0156,-199.9047 229.0683,-208.6004 233.1699,-202.9279"/>
</g>
<!-- 2686 -->
<g id="node10" class="node">
<title>2686</title>
<ellipse fill="none" stroke="#000000" cx="278.8862" cy="-357.0866" rx="28.6953" ry="18"/>
<text text-anchor="middle" x="278.8862" y="-353.3866" font-family="Times,serif" font-size="14.00" fill="#000000">2686</text>
</g>
<!-- 3741 -->
<g id="node21" class="node">
<title>3741</title>
<ellipse fill="none" stroke="#000000" cx="209.1435" cy="-410.6904" rx="28.6953" ry="18"/>
<text text-anchor="middle" x="209.1435" y="-406.9904" font-family="Times,serif" font-size="14.00" fill="#000000">3741</text>
</g>
<!-- 2686&#45;&gt;3741 -->
<g id="edge13" class="edge">
<title>2686&#45;&gt;3741</title>
<path fill="none" stroke="#000000" d="M260.5621,-371.1704C252.9344,-377.033 243.9315,-383.9526 235.6081,-390.3499"/>
<polygon fill="#000000" stroke="#000000" points="233.3832,-387.6456 227.5873,-396.5146 237.6489,-393.1957 233.3832,-387.6456"/>
</g>
<!-- 2687 -->
<g id="node11" class="node">
<title>2687</title>
<ellipse fill="none" stroke="#000000" cx="340.4198" cy="-294.7397" rx="28.6953" ry="18"/>
<text text-anchor="middle" x="340.4198" y="-291.0397" font-family="Times,serif" font-size="14.00" fill="#000000">2687</text>
</g>
<!-- 2687&#45;&gt;2516 -->
<g id="edge14" class="edge">
<title>2687&#45;&gt;2516</title>
<path fill="none" stroke="#000000" d="M323.4769,-279.9281C316.1668,-273.5376 307.47,-265.9348 299.4545,-258.9276"/>
<polygon fill="#000000" stroke="#000000" points="301.575,-256.1325 291.7427,-252.1858 296.9678,-261.4026 301.575,-256.1325"/>
</g>
<!-- 2687&#45;&gt;2686 -->
<g id="edge15" class="edge">
<title>2687&#45;&gt;2686</title>
<path fill="none" stroke="#000000" d="M325.2092,-310.1513C318.1625,-317.2912 309.6383,-325.9281 301.8332,-333.8363"/>
<polygon fill="#000000" stroke="#000000" points="298.8826,-331.8433 294.3492,-341.4193 303.8648,-336.7605 298.8826,-331.8433"/>
</g>
<!-- 9505 -->
<g id="node36" class="node">
<title>9505</title>
<ellipse fill="none" stroke="#000000" cx="376.3981" cy="-223.7227" rx="28.6953" ry="18"/>
<text text-anchor="middle" x="376.3981" y="-220.0227" font-family="Times,serif" font-size="14.00" fill="#000000">9505</text>
</g>
<!-- 2687&#45;&gt;9505 -->
<g id="edge16" class="edge">
<title>2687&#45;&gt;9505</title>
<path fill="none" stroke="#000000" d="M349.1291,-277.5485C353.2657,-269.3833 358.3038,-259.4387 362.9186,-250.3296"/>
<polygon fill="#000000" stroke="#000000" points="366.1219,-251.7513 367.519,-241.249 359.8775,-248.5878 366.1219,-251.7513"/>
</g>
<!-- 2764 -->
<g id="node12" class="node">
<title>2764</title>
<ellipse fill="none" stroke="#000000" cx="192.898" cy="-93.9108" rx="28.6953" ry="18"/>
<text text-anchor="middle" x="192.898" y="-90.2108" font-family="Times,serif" font-size="14.00" fill="#000000">2764</text>
</g>
<!-- 7545 -->
<g id="node33" class="node">
<title>7545</title>
<ellipse fill="none" stroke="#000000" cx="111.004" cy="-61.8719" rx="28.6953" ry="18"/>
<text text-anchor="middle" x="111.004" y="-58.1719" font-family="Times,serif" font-size="14.00" fill="#000000">7545</text>
</g>
<!-- 2764&#45;&gt;7545 -->
<g id="edge17" class="edge">
<title>2764&#45;&gt;7545</title>
<path fill="none" stroke="#000000" d="M168.3271,-84.2981C160.9582,-81.4152 152.7421,-78.2008 144.884,-75.1266"/>
<polygon fill="#000000" stroke="#000000" points="146.1454,-71.8618 135.5576,-71.4778 143.5951,-78.3807 146.1454,-71.8618"/>
</g>
<!-- 38333 -->
<g id="node47" class="node">
<title>38333</title>
<ellipse fill="none" stroke="#000000" cx="232.2808" cy="-23.1493" rx="32.4942" ry="18"/>
<text text-anchor="middle" x="232.2808" y="-19.4493" font-family="Times,serif" font-size="14.00" fill="#000000">38333</text>
</g>
<!-- 2764&#45;&gt;38333 -->
<g id="edge18" class="edge">
<title>2764&#45;&gt;38333</title>
<path fill="none" stroke="#000000" d="M202.4315,-76.7814C207.0071,-68.56 212.5905,-58.528 217.6852,-49.3741"/>
<polygon fill="#000000" stroke="#000000" points="220.7566,-51.0525 222.5615,-40.6125 214.6401,-47.6483 220.7566,-51.0525"/>
</g>
<!-- 38561 -->
<g id="node48" class="node">
<title>38561</title>
<ellipse fill="none" stroke="#000000" cx="165.9672" cy="-18" rx="32.4942" ry="18"/>
<text text-anchor="middle" x="165.9672" y="-14.3" font-family="Times,serif" font-size="14.00" fill="#000000">38561</text>
</g>
<!-- 2764&#45;&gt;38561 -->
<g id="edge19" class="edge">
<title>2764&#45;&gt;38561</title>
<path fill="none" stroke="#000000" d="M186.6518,-76.3045C183.3783,-67.0774 179.2967,-55.5723 175.6261,-45.2261"/>
<polygon fill="#000000" stroke="#000000" points="178.9149,-44.028 172.2727,-35.7737 172.3178,-46.3685 178.9149,-44.028"/>
</g>
<!-- 2914 -->
<g id="node14" class="node">
<title>2914</title>
<ellipse fill="none" stroke="#000000" cx="736.3603" cy="-322.7955" rx="28.6953" ry="18"/>
<text text-anchor="middle" x="736.3603" y="-319.0955" font-family="Times,serif" font-size="14.00" fill="#000000">2914</text>
</g>
<!-- 6453 -->
<g id="node25" class="node">
<title>6453</title>
<ellipse fill="none" stroke="#000000" cx="807.5303" cy="-278.7583" rx="28.6953" ry="18"/>
<text text-anchor="middle" x="807.5303" y="-275.0583" font-family="Times,serif" font-size="14.00" fill="#000000">6453</text>
</g>
<!-- 2914&#45;&gt;6453 -->
<g id="edge20" class="edge">
<title>2914&#45;&gt;6453</title>
<path fill="none" stroke="#000000" d="M756.9456,-310.0581C763.5269,-305.9859 770.9461,-301.3952 778.0333,-297.0099"/>
<polygon fill="#000000" stroke="#000000" points="780.0826,-299.8578 786.7447,-291.6196 776.3993,-293.9051 780.0826,-299.8578"/>
</g>
<!-- 3257 -->
<g id="node15" class="node">
<title>3257</title>
<ellipse fill="none" stroke="#000000" cx="880.487" cy="-237.6584" rx="28.6953" ry="18"/>
<text text-anchor="middle" x="880.487" y="-233.9584" font-family="Times,serif" font-size="14.00" fill="#000000">3257</text>
</g>
<!-- 3491 -->
<g id="node18" class="node">
<title>3491</title>
<ellipse fill="none" stroke="#000000" cx="959.6681" cy="-199.0261" rx="28.6953" ry="18"/>
<text text-anchor="middle" x="959.6681" y="-195.3261" font-family="Times,serif" font-size="14.00" fill="#000000">3491</text>
</g>
<!-- 3257&#45;&gt;3491 -->
<g id="edge21" class="edge">
<title>3257&#45;&gt;3491</title>
<path fill="none" stroke="#000000" d="M903.3894,-226.4843C910.94,-222.8004 919.4817,-218.6329 927.5874,-214.6782"/>
<polygon fill="#000000" stroke="#000000" points="929.3645,-217.7056 936.8171,-210.175 926.295,-211.4144 929.3645,-217.7056"/>
</g>
<!-- 3356 -->
<g id="node17" class="node">
<title>3356</title>
<ellipse fill="none" stroke="#000000" cx="607.7083" cy="-513.7279" rx="28.6953" ry="18"/>
<text text-anchor="middle" x="607.7083" y="-510.0279" font-family="Times,serif" font-size="14.00" fill="#000000">3356</text>
</g>
<!-- 3549 -->
<g id="node19" class="node">
<title>3549</title>
<ellipse fill="none" stroke="#000000" cx="591.398" cy="-421.2116" rx="28.6953" ry="18"/>
<text text-anchor="middle" x="591.398" y="-417.5116" font-family="Times,serif" font-size="14.00" fill="#000000">3549</text>
</g>
<!-- 3356&#45;&gt;3549 -->
<g id="edge22" class="edge">
<title>3356&#45;&gt;3549</title>
<path fill="none" stroke="#000000" d="M604.4859,-495.4497C602.17,-482.3134 599.004,-464.3551 596.366,-449.3917"/>
<polygon fill="#000000" stroke="#000000" points="599.7413,-448.3775 594.5582,-439.1371 592.8476,-449.5929 599.7413,-448.3775"/>
</g>
<!-- 3491&#45;&gt;174 -->
<g id="edge23" class="edge">
<title>3491&#45;&gt;174</title>
<path fill="none" stroke="#000000" d="M969.0324,-181.7955C975.8487,-169.2531 985.1994,-152.0476 992.9233,-137.8353"/>
<polygon fill="#000000" stroke="#000000" points="996.0212,-139.4648 997.7211,-129.0072 989.8708,-136.1222 996.0212,-139.4648"/>
</g>
<!-- 3491&#45;&gt;2497 -->
<g id="edge24" class="edge">
<title>3491&#45;&gt;2497</title>
<path fill="none" stroke="#000000" d="M973.5322,-214.8842C981.0768,-223.5137 990.5553,-234.3555 998.9381,-243.9439"/>
<polygon fill="#000000" stroke="#000000" points="996.4385,-246.4025 1005.6555,-251.6273 1001.7085,-241.7951 996.4385,-246.4025"/>
</g>
<!-- 6762 -->
<g id="node27" class="node">
<title>6762</title>
<ellipse fill="none" stroke="#000000" cx="665.0107" cy="-370.0359" rx="28.6953" ry="18"/>
<text text-anchor="middle" x="665.0107" y="-366.3359" font-family="Times,serif" font-size="14.00" fill="#000000">6762</text>
</g>
<!-- 3549&#45;&gt;6762 -->
<g id="edge25" class="edge">
<title>3549&#45;&gt;6762</title>
<path fill="none" stroke="#000000" d="M610.7388,-407.7658C618.9383,-402.0655 628.6432,-395.3187 637.5627,-389.1178"/>
<polygon fill="#000000" stroke="#000000" points="639.586,-391.9739 645.799,-383.3919 635.5903,-386.2263 639.586,-391.9739"/>
</g>
<!-- 30070 -->
<g id="node44" class="node">
<title>30070</title>
<ellipse fill="none" stroke="#000000" cx="503.9033" cy="-370.9016" rx="32.4942" ry="18"/>
<text text-anchor="middle" x="503.9033" y="-367.2016" font-family="Times,serif" font-size="14.00" fill="#000000">30070</text>
</g>
<!-- 3549&#45;&gt;30070 -->
<g id="edge26" class="edge">
<title>3549&#45;&gt;30070</title>
<path fill="none" stroke="#000000" d="M570.218,-409.033C559.8422,-403.0669 547.1342,-395.7597 535.6289,-389.1441"/>
<polygon fill="#000000" stroke="#000000" points="537.141,-385.9762 526.7273,-384.0255 533.6517,-392.0445 537.141,-385.9762"/>
</g>
<!-- 3597 -->
<g id="node20" class="node">
<title>3597</title>
<ellipse fill="none" stroke="#000000" cx="581.3231" cy="-820.9497" rx="28.6953" ry="18"/>
<text text-anchor="middle" x="581.3231" y="-817.2497" font-family="Times,serif" font-size="14.00" fill="#000000">3597</text>
</g>
<!-- 37179 -->
<g id="node46" class="node">
<title>37179</title>
<ellipse fill="none" stroke="#000000" cx="138.1082" cy="-454.4869" rx="32.4942" ry="18"/>
<text text-anchor="middle" x="138.1082" y="-450.7869" font-family="Times,serif" font-size="14.00" fill="#000000">37179</text>
</g>
<!-- 3741&#45;&gt;37179 -->
<g id="edge27" class="edge">
<title>3741&#45;&gt;37179</title>
<path fill="none" stroke="#000000" d="M188.5972,-423.3582C182.3996,-427.1792 175.4577,-431.4592 168.752,-435.5936"/>
<polygon fill="#000000" stroke="#000000" points="166.5217,-432.8568 159.8464,-441.0843 170.1955,-438.8154 166.5217,-432.8568"/>
</g>
<!-- 4637 -->
<g id="node22" class="node">
<title>4637</title>
<ellipse fill="none" stroke="#000000" cx="147.2368" cy="-156.536" rx="28.6953" ry="18"/>
<text text-anchor="middle" x="147.2368" y="-152.836" font-family="Times,serif" font-size="14.00" fill="#000000">4637</text>
</g>
<!-- 5692 -->
<g id="node24" class="node">
<title>5692</title>
<ellipse fill="none" stroke="#000000" cx="643.3411" cy="-789.7216" rx="28.6953" ry="18"/>
<text text-anchor="middle" x="643.3411" y="-786.0216" font-family="Times,serif" font-size="14.00" fill="#000000">5692</text>
</g>
<!-- 5692&#45;&gt;3597 -->
<g id="edge28" class="edge">
<title>5692&#45;&gt;3597</title>
<path fill="none" stroke="#000000" d="M620.9512,-800.9956C618.349,-802.3059 615.6589,-803.6605 612.9623,-805.0183"/>
<polygon fill="#000000" stroke="#000000" points="611.246,-801.9638 603.8885,-809.5873 614.3942,-808.2159 611.246,-801.9638"/>
</g>
<!-- 10834 -->
<g id="node37" class="node">
<title>10834</title>
<ellipse fill="none" stroke="#000000" cx="613.9748" cy="-690.6553" rx="32.4942" ry="18"/>
<text text-anchor="middle" x="613.9748" y="-686.9553" font-family="Times,serif" font-size="14.00" fill="#000000">10834</text>
</g>
<!-- 5692&#45;&gt;10834 -->
<g id="edge29" class="edge">
<title>5692&#45;&gt;10834</title>
<path fill="none" stroke="#000000" d="M638.091,-772.0105C633.6918,-757.1699 627.3335,-735.7204 622.25,-718.5714"/>
<polygon fill="#000000" stroke="#000000" points="625.4763,-717.1399 619.2785,-708.547 618.765,-719.1294 625.4763,-717.1399"/>
</g>
<!-- 11008 -->
<g id="node38" class="node">
<title>11008</title>
<ellipse fill="none" stroke="#000000" cx="691.9023" cy="-867.1638" rx="32.4942" ry="18"/>
<text text-anchor="middle" x="691.9023" y="-863.4638" font-family="Times,serif" font-size="14.00" fill="#000000">11008</text>
</g>
<!-- 5692&#45;&gt;11008 -->
<g id="edge30" class="edge">
<title>5692&#45;&gt;11008</title>
<path fill="none" stroke="#000000" d="M653.8782,-806.5254C660.2614,-816.7048 668.534,-829.8976 675.7323,-841.3768"/>
<polygon fill="#000000" stroke="#000000" points="672.9403,-843.5126 681.2181,-850.1253 678.8708,-839.7938 672.9403,-843.5126"/>
</g>
<!-- 27865 -->
<g id="node42" class="node">
<title>27865</title>
<ellipse fill="none" stroke="#000000" cx="568.7366" cy="-854.1747" rx="32.4942" ry="18"/>
<text text-anchor="middle" x="568.7366" y="-850.4747" font-family="Times,serif" font-size="14.00" fill="#000000">27865</text>
</g>
<!-- 5692&#45;&gt;27865 -->
<g id="edge31" class="edge">
<title>5692&#45;&gt;27865</title>
<path fill="none" stroke="#000000" d="M626.4122,-804.347C616.8883,-812.5749 604.8085,-823.011 594.1676,-832.2041"/>
<polygon fill="#000000" stroke="#000000" points="591.656,-829.7486 586.377,-838.9346 596.2322,-835.0456 591.656,-829.7486"/>
</g>
<!-- 28065 -->
<g id="node43" class="node">
<title>28065</title>
<ellipse fill="none" stroke="#000000" cx="590.1493" cy="-762.1526" rx="32.4942" ry="18"/>
<text text-anchor="middle" x="590.1493" y="-758.4526" font-family="Times,serif" font-size="14.00" fill="#000000">28065</text>
</g>
<!-- 5692&#45;&gt;28065 -->
<g id="edge32" class="edge">
<title>5692&#45;&gt;28065</title>
<path fill="none" stroke="#000000" d="M621.0912,-778.1896C620.9489,-778.1158 620.8063,-778.042 620.6637,-777.968"/>
<polygon fill="#000000" stroke="#000000" points="624.6858,-776.1105 614.1969,-774.6163 621.4647,-782.3254 624.6858,-776.1105"/>
</g>
<!-- 52317 -->
<g id="node49" class="node">
<title>52317</title>
<ellipse fill="none" stroke="#000000" cx="732.6509" cy="-778.5149" rx="32.4942" ry="18"/>
<text text-anchor="middle" x="732.6509" y="-774.8149" font-family="Times,serif" font-size="14.00" fill="#000000">52317</text>
</g>
<!-- 5692&#45;&gt;52317 -->
<g id="edge33" class="edge">
<title>5692&#45;&gt;52317</title>
<path fill="none" stroke="#000000" d="M671.5993,-786.1757C677.703,-785.4098 684.2812,-784.5844 690.7806,-783.7688"/>
<polygon fill="#000000" stroke="#000000" points="691.3628,-787.2233 700.8492,-782.5054 690.4912,-780.2778 691.3628,-787.2233"/>
</g>
<!-- 52375 -->
<g id="node50" class="node">
<title>52375</title>
<ellipse fill="none" stroke="#000000" cx="714.8414" cy="-745.4796" rx="32.4942" ry="18"/>
<text text-anchor="middle" x="714.8414" y="-741.7796" font-family="Times,serif" font-size="14.00" fill="#000000">52375</text>
</g>
<!-- 5692&#45;&gt;52375 -->
<g id="edge34" class="edge">
<title>5692&#45;&gt;52375</title>
<path fill="none" stroke="#000000" d="M664.022,-776.925C670.4018,-772.9773 677.5654,-768.5447 684.4568,-764.2806"/>
<polygon fill="#000000" stroke="#000000" points="686.2988,-767.2567 692.9609,-759.0185 682.6155,-761.3041 686.2988,-767.2567"/>
</g>
<!-- 52376 -->
<g id="node51" class="node">
<title>52376</title>
<ellipse fill="none" stroke="#000000" cx="551.7585" cy="-795.6856" rx="32.4942" ry="18"/>
<text text-anchor="middle" x="551.7585" y="-791.9856" font-family="Times,serif" font-size="14.00" fill="#000000">52376</text>
</g>
<!-- 5692&#45;&gt;52376 -->
<g id="edge35" class="edge">
<title>5692&#45;&gt;52376</title>
<path fill="none" stroke="#000000" d="M614.8658,-791.5759C608.3039,-792.0033 601.1857,-792.4668 594.1736,-792.9235"/>
<polygon fill="#000000" stroke="#000000" points="593.8045,-789.44 584.0531,-793.5825 594.2595,-796.4252 593.8045,-789.44"/>
</g>
<!-- 52380 -->
<g id="node52" class="node">
<title>52380</title>
<ellipse fill="none" stroke="#000000" cx="733.0215" cy="-819.7445" rx="32.4942" ry="18"/>
<text text-anchor="middle" x="733.0215" y="-816.0445" font-family="Times,serif" font-size="14.00" fill="#000000">52380</text>
</g>
<!-- 5692&#45;&gt;52380 -->
<g id="edge36" class="edge">
<title>5692&#45;&gt;52380</title>
<path fill="none" stroke="#000000" d="M668.8,-798.2446C677.0903,-801.02 686.4752,-804.1619 695.4594,-807.1696"/>
<polygon fill="#000000" stroke="#000000" points="694.3866,-810.5013 704.9804,-810.357 696.6088,-803.8634 694.3866,-810.5013"/>
</g>
<!-- 52413 -->
<g id="node53" class="node">
<title>52413</title>
<ellipse fill="none" stroke="#000000" cx="648.672" cy="-874.0417" rx="32.4942" ry="18"/>
<text text-anchor="middle" x="648.672" y="-870.3417" font-family="Times,serif" font-size="14.00" fill="#000000">52413</text>
</g>
<!-- 5692&#45;&gt;52413 -->
<g id="edge37" class="edge">
<title>5692&#45;&gt;52413</title>
<path fill="none" stroke="#000000" d="M644.4979,-808.0178C645.1894,-818.9568 646.0831,-833.0916 646.866,-845.4746"/>
<polygon fill="#000000" stroke="#000000" points="643.3935,-846.022 647.5176,-855.7812 650.3795,-845.5803 643.3935,-846.022"/>
</g>
<!-- 52431 -->
<g id="node54" class="node">
<title>52431</title>
<ellipse fill="none" stroke="#000000" cx="610.6142" cy="-870.7609" rx="32.4942" ry="18"/>
<text text-anchor="middle" x="610.6142" y="-867.0609" font-family="Times,serif" font-size="14.00" fill="#000000">52431</text>
</g>
<!-- 5692&#45;&gt;52431 -->
<g id="edge38" class="edge">
<title>5692&#45;&gt;52431</title>
<path fill="none" stroke="#000000" d="M636.2399,-807.3059C631.9807,-817.8527 626.4731,-831.4906 621.656,-843.4188"/>
<polygon fill="#000000" stroke="#000000" points="618.3139,-842.348 617.8146,-852.931 624.8046,-844.9692 618.3139,-842.348"/>
</g>
<!-- 262230 -->
<g id="node55" class="node">
<title>262230</title>
<ellipse fill="none" stroke="#000000" cx="694.408" cy="-828.4422" rx="37.0935" ry="18"/>
<text text-anchor="middle" x="694.408" y="-824.7422" font-family="Times,serif" font-size="14.00" fill="#000000">262230</text>
</g>
<!-- 5692&#45;&gt;262230 -->
<g id="edge39" class="edge">
<title>5692&#45;&gt;262230</title>
<path fill="none" stroke="#000000" d="M661.7774,-803.7006C663.1523,-804.7431 664.5571,-805.8082 665.9738,-806.8825"/>
<polygon fill="#000000" stroke="#000000" points="664.0135,-809.7884 674.0966,-813.0414 668.2429,-804.2105 664.0135,-809.7884"/>
</g>
<!-- 264608 -->
<g id="node56" class="node">
<title>264608</title>
<ellipse fill="none" stroke="#000000" cx="675.0501" cy="-736.1869" rx="37.0935" ry="18"/>
<text text-anchor="middle" x="675.0501" y="-732.4869" font-family="Times,serif" font-size="14.00" fill="#000000">264608</text>
</g>
<!-- 5692&#45;&gt;264608 -->
<g id="edge40" class="edge">
<title>5692&#45;&gt;264608</title>
<path fill="none" stroke="#000000" d="M653.3741,-772.7829C655.3586,-769.4324 657.4844,-765.8434 659.6006,-762.2706"/>
<polygon fill="#000000" stroke="#000000" points="662.6703,-763.9558 664.7551,-753.5681 656.6475,-760.3884 662.6703,-763.9558"/>
</g>
<!-- 6453&#45;&gt;3257 -->
<g id="edge41" class="edge">
<title>6453&#45;&gt;3257</title>
<path fill="none" stroke="#000000" d="M829.0251,-266.6493C835.7043,-262.8866 843.1946,-258.6669 850.3492,-254.6364"/>
<polygon fill="#000000" stroke="#000000" points="852.1511,-257.6385 859.1458,-249.6809 848.7153,-251.5397 852.1511,-257.6385"/>
</g>
<!-- 6762&#45;&gt;2914 -->
<g id="edge42" class="edge">
<title>6762&#45;&gt;2914</title>
<path fill="none" stroke="#000000" d="M684.8855,-356.8768C692.0757,-352.1162 700.3389,-346.6452 708.1103,-341.4998"/>
<polygon fill="#000000" stroke="#000000" points="710.1862,-344.323 716.592,-335.884 706.3217,-338.4864 710.1862,-344.323"/>
</g>
<!-- 6904 -->
<g id="node28" class="node">
<title>6904</title>
<ellipse fill="none" stroke="#000000" cx="424.2594" cy="-329.0207" rx="28.6953" ry="18"/>
<text text-anchor="middle" x="424.2594" y="-325.3207" font-family="Times,serif" font-size="14.00" fill="#000000">6904</text>
</g>
<!-- 6904&#45;&gt;2687 -->
<g id="edge43" class="edge">
<title>6904&#45;&gt;2687</title>
<path fill="none" stroke="#000000" d="M400.0095,-319.1052C391.9278,-315.8007 382.7737,-312.0577 374.1081,-308.5145"/>
<polygon fill="#000000" stroke="#000000" points="375.196,-305.178 364.6152,-304.6329 372.5466,-311.6573 375.196,-305.178"/>
</g>
<!-- 7016 -->
<g id="node29" class="node">
<title>7016</title>
<ellipse fill="none" stroke="#000000" cx="449.8052" cy="-433.7107" rx="28.6953" ry="18"/>
<text text-anchor="middle" x="449.8052" y="-430.0107" font-family="Times,serif" font-size="14.00" fill="#000000">7016</text>
</g>
<!-- 7922 -->
<g id="node34" class="node">
<title>7922</title>
<ellipse fill="none" stroke="#000000" cx="394.1496" cy="-489.4619" rx="28.6953" ry="18"/>
<text text-anchor="middle" x="394.1496" y="-485.7619" font-family="Times,serif" font-size="14.00" fill="#000000">7922</text>
</g>
<!-- 7016&#45;&gt;7922 -->
<g id="edge44" class="edge">
<title>7016&#45;&gt;7922</title>
<path fill="none" stroke="#000000" d="M434.302,-449.2405C428.8743,-454.6775 422.6627,-460.8998 416.7736,-466.7991"/>
<polygon fill="#000000" stroke="#000000" points="414.1577,-464.4654 409.5697,-474.0153 419.1117,-469.4109 414.1577,-464.4654"/>
</g>
<!-- 7473 -->
<g id="node31" class="node">
<title>7473</title>
<ellipse fill="none" stroke="#000000" cx="401.2611" cy="-146.8911" rx="28.6953" ry="18"/>
<text text-anchor="middle" x="401.2611" y="-143.1911" font-family="Times,serif" font-size="14.00" fill="#000000">7473</text>
</g>
<!-- 7474 -->
<g id="node32" class="node">
<title>7474</title>
<ellipse fill="none" stroke="#000000" cx="157.54" cy="-241.1551" rx="28.6953" ry="18"/>
<text text-anchor="middle" x="157.54" y="-237.4551" font-family="Times,serif" font-size="14.00" fill="#000000">7474</text>
</g>
<!-- 9505&#45;&gt;7473 -->
<g id="edge45" class="edge">
<title>9505&#45;&gt;7473</title>
<path fill="none" stroke="#000000" d="M382.1647,-205.9029C385.2086,-196.4966 389.0093,-184.7515 392.4168,-174.2216"/>
<polygon fill="#000000" stroke="#000000" points="395.7769,-175.2061 395.5258,-164.6143 389.1169,-173.0509 395.7769,-175.2061"/>
</g>
<!-- 12956 -->
<g id="node39" class="node">
<title>12956</title>
<ellipse fill="none" stroke="#000000" cx="617.0317" cy="-601.3117" rx="32.4942" ry="18"/>
<text text-anchor="middle" x="617.0317" y="-597.6117" font-family="Times,serif" font-size="14.00" fill="#000000">12956</text>
</g>
<!-- 10834&#45;&gt;12956 -->
<g id="edge46" class="edge">
<title>10834&#45;&gt;12956</title>
<path fill="none" stroke="#000000" d="M614.5934,-672.5753C615.0161,-660.2231 615.5846,-643.6062 616.0664,-629.5255"/>
<polygon fill="#000000" stroke="#000000" points="619.5699,-629.4787 616.414,-619.3648 612.574,-629.2392 619.5699,-629.4787"/>
</g>
<!-- 22927 -->
<g id="node41" class="node">
<title>22927</title>
<ellipse fill="none" stroke="#000000" cx="530.1786" cy="-692.9725" rx="32.4942" ry="18"/>
<text text-anchor="middle" x="530.1786" y="-689.2725" font-family="Times,serif" font-size="14.00" fill="#000000">22927</text>
</g>
<!-- 10834&#45;&gt;22927 -->
<g id="edge47" class="edge">
<title>10834&#45;&gt;22927</title>
<path fill="none" stroke="#000000" d="M581.3371,-691.5578C578.5885,-691.6338 575.7838,-691.7114 572.9739,-691.7891"/>
<polygon fill="#000000" stroke="#000000" points="572.7645,-688.2934 562.8651,-692.0686 572.9581,-695.2908 572.7645,-688.2934"/>
</g>
<!-- 12956&#45;&gt;3356 -->
<g id="edge48" class="edge">
<title>12956&#45;&gt;3356</title>
<path fill="none" stroke="#000000" d="M615.0999,-583.1643C613.8373,-571.3035 612.1622,-555.5675 610.7259,-542.0749"/>
<polygon fill="#000000" stroke="#000000" points="614.1766,-541.4254 609.6376,-531.8521 607.2159,-542.1664 614.1766,-541.4254"/>
</g>
<!-- 18540 -->
<g id="node40" class="node">
<title>18540</title>
<ellipse fill="none" stroke="#000000" cx="505.531" cy="-412.9447" rx="32.4942" ry="18"/>
<text text-anchor="middle" x="505.531" y="-409.2447" font-family="Times,serif" font-size="14.00" fill="#000000">18540</text>
</g>
<!-- 30070&#45;&gt;6904 -->
<g id="edge49" class="edge">
<title>30070&#45;&gt;6904</title>
<path fill="none" stroke="#000000" d="M480.0075,-358.336C472.2175,-354.2395 463.4539,-349.6312 455.2223,-345.3026"/>
<polygon fill="#000000" stroke="#000000" points="456.7148,-342.1331 446.2349,-340.5766 453.4568,-348.3287 456.7148,-342.1331"/>
</g>
<!-- 30070&#45;&gt;7016 -->
<g id="edge50" class="edge">
<title>30070&#45;&gt;7016</title>
<path fill="none" stroke="#000000" d="M489.6897,-387.404C483.8043,-394.2371 476.8635,-402.2955 470.4359,-409.7581"/>
<polygon fill="#000000" stroke="#000000" points="467.611,-407.6747 463.7369,-417.5358 472.9149,-412.243 467.611,-407.6747"/>
</g>
<!-- 30070&#45;&gt;18540 -->
<g id="edge51" class="edge">
<title>30070&#45;&gt;18540</title>
<path fill="none" stroke="#000000" d="M504.603,-388.9757C504.6078,-389.0981 504.6125,-389.2206 504.6173,-389.3433"/>
<polygon fill="#000000" stroke="#000000" points="500.9474,-385.0288 504.8318,-394.8859 507.9422,-384.7579 500.9474,-385.0288"/>
</g>
<!-- 32787&#45;&gt;703 -->
<g id="edge52" class="edge">
<title>32787&#45;&gt;703</title>
<path fill="none" stroke="#000000" d="M174.8213,-194.4212C164.7965,-197.5839 153.4093,-201.1763 142.9511,-204.4757"/>
<polygon fill="#000000" stroke="#000000" points="141.7674,-201.1791 133.2837,-207.5256 143.8735,-207.8547 141.7674,-201.1791"/>
</g>
<!-- 32787&#45;&gt;2764 -->
<g id="edge53" class="edge">
<title>32787&#45;&gt;2764</title>
<path fill="none" stroke="#000000" d="M201.0809,-167.4059C199.6423,-154.485 197.679,-136.8517 196.0361,-122.0959"/>
<polygon fill="#000000" stroke="#000000" points="199.4936,-121.5198 194.9085,-111.9685 192.5366,-122.2944 199.4936,-121.5198"/>
</g>
<!-- 32787&#45;&gt;4637 -->
<g id="edge54" class="edge">
<title>32787&#45;&gt;4637</title>
<path fill="none" stroke="#000000" d="M179.0823,-173.0492C178.8827,-172.9457 178.6828,-172.8421 178.4827,-172.7383"/>
<polygon fill="#000000" stroke="#000000" points="179.9528,-169.5581 169.4642,-168.0618 176.7304,-175.7723 179.9528,-169.5581"/>
</g>
<!-- 32787&#45;&gt;7474 -->
<g id="edge55" class="edge">
<title>32787&#45;&gt;7474</title>
<path fill="none" stroke="#000000" d="M189.6738,-201.8982C185.7468,-206.6957 181.3707,-212.0418 177.1434,-217.2062"/>
<polygon fill="#000000" stroke="#000000" points="174.3347,-215.1119 170.7089,-225.067 179.7514,-219.5458 174.3347,-215.1119"/>
</g>
</g>
</svg>
