<?xml version="1.0" encoding="UTF-8" standalone="no"?>
<!DOCTYPE svg PUBLIC "-//W3C//DTD SVG 1.1//EN"
 "http://www.w3.org/Graphics/SVG/1.1/DTD/svg11.dtd">
<!-- Generated by graphviz version 2.40.1 (20161225.0304)
 -->
<!-- Title: %3 Pages: 1 -->
<svg width="714pt" height="513pt"
 viewBox="0.00 0.00 713.56 513.30" xmlns="http://www.w3.org/2000/svg" xmlns:xlink="http://www.w3.org/1999/xlink">
<g id="graph0" class="graph" transform="scale(1 1) rotate(0) translate(4 509.3018)">
<title>%3</title>
<polygon fill="#ffffff" stroke="transparent" points="-4,4 -4,-509.3018 709.5607,-509.3018 709.5607,4 -4,4"/>
<!-- 174 -->
<g id="node1" class="node">
<title>174</title>
<ellipse fill="none" stroke="#000000" cx="27.8467" cy="-89.0459" rx="27" ry="18"/>
<text text-anchor="middle" x="27.8467" y="-85.3459" font-family="Times,serif" font-size="14.00" fill="#000000">174</text>
</g>
<!-- 209 -->
<g id="node2" class="node">
<title>209</title>
<ellipse fill="none" stroke="#000000" cx="61.8478" cy="-109.4949" rx="27" ry="18"/>
<text text-anchor="middle" x="61.8478" y="-105.7949" font-family="Times,serif" font-size="14.00" fill="#000000">209</text>
</g>
<!-- 701 -->
<g id="node3" class="node">
<title>701</title>
<ellipse fill="none" stroke="#000000" cx="37.7525" cy="-53.2606" rx="27" ry="18"/>
<text text-anchor="middle" x="37.7525" y="-49.5606" font-family="Times,serif" font-size="14.00" fill="#000000">701</text>
</g>
<!-- 1239 -->
<g id="node4" class="node">
<title>1239</title>
<ellipse fill="none" stroke="#000000" cx="69.2902" cy="-38.9118" rx="28.6953" ry="18"/>
<text text-anchor="middle" x="69.2902" y="-35.2118" font-family="Times,serif" font-size="14.00" fill="#000000">1239</text>
</g>
<!-- 1273 -->
<g id="node5" class="node">
<title>1273</title>
<ellipse fill="none" stroke="#000000" cx="141.0286" cy="-137.7442" rx="28.6953" ry="18"/>
<text text-anchor="middle" x="141.0286" y="-134.0442" font-family="Times,serif" font-size="14.00" fill="#000000">1273</text>
</g>
<!-- 1299 -->
<g id="node6" class="node">
<title>1299</title>
<ellipse fill="none" stroke="#000000" cx="63.6687" cy="-159.3308" rx="28.6953" ry="18"/>
<text text-anchor="middle" x="63.6687" y="-155.6308" font-family="Times,serif" font-size="14.00" fill="#000000">1299</text>
</g>
<!-- 2497 -->
<g id="node7" class="node">
<title>2497</title>
<ellipse fill="none" stroke="#000000" cx="102.4559" cy="-158.74" rx="28.6953" ry="18"/>
<text text-anchor="middle" x="102.4559" y="-155.04" font-family="Times,serif" font-size="14.00" fill="#000000">2497</text>
</g>
<!-- 2687 -->
<g id="node8" class="node">
<title>2687</title>
<ellipse fill="none" stroke="#000000" cx="294.733" cy="-433.4928" rx="28.6953" ry="18"/>
<text text-anchor="middle" x="294.733" y="-429.7928" font-family="Times,serif" font-size="14.00" fill="#000000">2687</text>
</g>
<!-- 2828 -->
<g id="node9" class="node">
<title>2828</title>
<ellipse fill="none" stroke="#000000" cx="137.1137" cy="-371.0148" rx="28.6953" ry="18"/>
<text text-anchor="middle" x="137.1137" y="-367.3148" font-family="Times,serif" font-size="14.00" fill="#000000">2828</text>
</g>
<!-- 5511 -->
<g id="node17" class="node">
<title>5511</title>
<ellipse fill="none" stroke="#000000" cx="87.7071" cy="-393.8423" rx="28.6953" ry="18"/>
<text text-anchor="middle" x="87.7071" y="-390.1423" font-family="Times,serif" font-size="14.00" fill="#000000">5511</text>
</g>
<!-- 2828&#45;&gt;5511 -->
<g id="edge1" class="edge">
<title>2828&#45;&gt;5511</title>
<path fill="none" stroke="#000000" d="M113.8571,-381.7601C113.732,-381.8179 113.6068,-381.8758 113.4816,-381.9336"/>
<polygon fill="#000000" stroke="#000000" points="118.4606,-375.7774 110.8508,-383.1491 121.3968,-382.1319 118.4606,-375.7774"/>
</g>
<!-- 2914 -->
<g id="node10" class="node">
<title>2914</title>
<ellipse fill="none" stroke="#000000" cx="100.5996" cy="-98.9218" rx="28.6953" ry="18"/>
<text text-anchor="middle" x="100.5996" y="-95.2218" font-family="Times,serif" font-size="14.00" fill="#000000">2914</text>
</g>
<!-- 2914&#45;&gt;174 -->
<g id="edge2" class="edge">
<title>2914&#45;&gt;174</title>
<path fill="none" stroke="#000000" d="M72.2631,-95.0752C69.6797,-94.7245 67.0393,-94.3661 64.3978,-94.0075"/>
<polygon fill="#000000" stroke="#000000" points="64.7011,-90.5167 54.3212,-92.6397 63.7595,-97.4531 64.7011,-90.5167"/>
</g>
<!-- 2914&#45;&gt;209 -->
<g id="edge3" class="edge">
<title>2914&#45;&gt;209</title>
<path fill="none" stroke="#000000" d="M74.1091,-106.1495C74.0559,-106.164 74.0028,-106.1785 73.9497,-106.193"/>
<polygon fill="#000000" stroke="#000000" points="82.5156,-100.223 73.7908,-106.2363 84.3613,-106.9763 82.5156,-100.223"/>
</g>
<!-- 2914&#45;&gt;701 -->
<g id="edge4" class="edge">
<title>2914&#45;&gt;701</title>
<path fill="none" stroke="#000000" d="M81.7434,-85.2219C76.3019,-81.2684 70.2584,-76.8775 64.437,-72.648"/>
<polygon fill="#000000" stroke="#000000" points="66.3103,-69.6829 56.1629,-66.6365 62.1958,-75.346 66.3103,-69.6829"/>
</g>
<!-- 2914&#45;&gt;1239 -->
<g id="edge5" class="edge">
<title>2914&#45;&gt;1239</title>
<path fill="none" stroke="#000000" d="M91.5436,-81.5644C88.8594,-76.4197 85.8584,-70.6677 82.9507,-65.0945"/>
<polygon fill="#000000" stroke="#000000" points="85.9464,-63.2698 78.2177,-56.0229 79.7403,-66.5078 85.9464,-63.2698"/>
</g>
<!-- 2914&#45;&gt;1273 -->
<g id="edge6" class="edge">
<title>2914&#45;&gt;1273</title>
<path fill="none" stroke="#000000" d="M116.5782,-114.2654C117.0196,-114.6893 117.4639,-115.1159 117.9101,-115.5444"/>
<polygon fill="#000000" stroke="#000000" points="115.5288,-118.1102 125.166,-122.512 120.3773,-113.0611 115.5288,-118.1102"/>
</g>
<!-- 2914&#45;&gt;1299 -->
<g id="edge7" class="edge">
<title>2914&#45;&gt;1299</title>
<path fill="none" stroke="#000000" d="M90.3123,-115.749C86.9281,-121.2846 83.0847,-127.5715 79.391,-133.6133"/>
<polygon fill="#000000" stroke="#000000" points="76.3873,-131.8165 74.1575,-142.174 82.3597,-135.4677 76.3873,-131.8165"/>
</g>
<!-- 2914&#45;&gt;2497 -->
<g id="edge8" class="edge">
<title>2914&#45;&gt;2497</title>
<path fill="none" stroke="#000000" d="M101.1666,-117.1942C101.2962,-121.3688 101.4368,-125.9016 101.576,-130.3876"/>
<polygon fill="#000000" stroke="#000000" points="98.0837,-130.6928 101.8923,-140.5794 105.0804,-130.4756 98.0837,-130.6928"/>
</g>
<!-- 3257 -->
<g id="node11" class="node">
<title>3257</title>
<ellipse fill="none" stroke="#000000" cx="28.5975" cy="-132.678" rx="28.6953" ry="18"/>
<text text-anchor="middle" x="28.5975" y="-128.978" font-family="Times,serif" font-size="14.00" fill="#000000">3257</text>
</g>
<!-- 2914&#45;&gt;3257 -->
<g id="edge9" class="edge">
<title>2914&#45;&gt;3257</title>
<path fill="none" stroke="#000000" d="M77.4213,-109.7883C72.1541,-112.2577 66.4655,-114.9246 60.8965,-117.5355"/>
<polygon fill="#000000" stroke="#000000" points="59.3009,-114.4179 51.7323,-121.8319 62.2724,-120.756 59.3009,-114.4179"/>
</g>
<!-- 3320 -->
<g id="node12" class="node">
<title>3320</title>
<ellipse fill="none" stroke="#000000" cx="110.2429" cy="-59.7385" rx="28.6953" ry="18"/>
<text text-anchor="middle" x="110.2429" y="-56.0385" font-family="Times,serif" font-size="14.00" fill="#000000">3320</text>
</g>
<!-- 2914&#45;&gt;3320 -->
<g id="edge10" class="edge">
<title>2914&#45;&gt;3320</title>
<path fill="none" stroke="#000000" d="M105.0825,-80.7067C105.112,-80.5868 105.1415,-80.4668 105.1711,-80.3467"/>
<polygon fill="#000000" stroke="#000000" points="106.8003,-88.3716 105.7917,-77.8248 100.0031,-86.6985 106.8003,-88.3716"/>
</g>
<!-- 3491 -->
<g id="node14" class="node">
<title>3491</title>
<ellipse fill="none" stroke="#000000" cx="161.5008" cy="-105.1189" rx="28.6953" ry="18"/>
<text text-anchor="middle" x="161.5008" y="-101.4189" font-family="Times,serif" font-size="14.00" fill="#000000">3491</text>
</g>
<!-- 2914&#45;&gt;3491 -->
<g id="edge11" class="edge">
<title>2914&#45;&gt;3491</title>
<path fill="none" stroke="#000000" d="M128.9107,-101.8026C128.9961,-101.8113 129.0816,-101.82 129.167,-101.8287"/>
<polygon fill="#000000" stroke="#000000" points="122.7142,-104.6899 133.0172,-102.2205 123.423,-97.7259 122.7142,-104.6899"/>
</g>
<!-- 6453 -->
<g id="node19" class="node">
<title>6453</title>
<ellipse fill="none" stroke="#000000" cx="142.8383" cy="-34.8224" rx="28.6953" ry="18"/>
<text text-anchor="middle" x="142.8383" y="-31.1224" font-family="Times,serif" font-size="14.00" fill="#000000">6453</text>
</g>
<!-- 2914&#45;&gt;6453 -->
<g id="edge12" class="edge">
<title>2914&#45;&gt;6453</title>
<path fill="none" stroke="#000000" d="M111.6973,-82.0804C116.0282,-75.508 121.0911,-67.8248 125.8606,-60.5868"/>
<polygon fill="#000000" stroke="#000000" points="129.0882,-62.0498 131.668,-51.7738 123.2431,-58.1981 129.0882,-62.0498"/>
</g>
<!-- 6461 -->
<g id="node20" class="node">
<title>6461</title>
<ellipse fill="none" stroke="#000000" cx="165.7808" cy="-67.9761" rx="28.6953" ry="18"/>
<text text-anchor="middle" x="165.7808" y="-64.2761" font-family="Times,serif" font-size="14.00" fill="#000000">6461</text>
</g>
<!-- 2914&#45;&gt;6461 -->
<g id="edge13" class="edge">
<title>2914&#45;&gt;6461</title>
<path fill="none" stroke="#000000" d="M123.7636,-87.9243C126.9333,-86.4194 130.2333,-84.8528 133.5286,-83.2883"/>
<polygon fill="#000000" stroke="#000000" points="135.1589,-86.3887 142.6914,-78.9381 132.1567,-80.0652 135.1589,-86.3887"/>
</g>
<!-- 7018 -->
<g id="node24" class="node">
<title>7018</title>
<ellipse fill="none" stroke="#000000" cx="100.5241" cy="-18" rx="28.6953" ry="18"/>
<text text-anchor="middle" x="100.5241" y="-14.3" font-family="Times,serif" font-size="14.00" fill="#000000">7018</text>
</g>
<!-- 2914&#45;&gt;7018 -->
<g id="edge14" class="edge">
<title>2914&#45;&gt;7018</title>
<path fill="none" stroke="#000000" d="M100.5824,-80.5594C100.573,-70.4527 100.5611,-57.6925 100.5505,-46.3363"/>
<polygon fill="#000000" stroke="#000000" points="104.0503,-46.0077 100.5409,-36.011 97.0503,-46.0143 104.0503,-46.0077"/>
</g>
<!-- 3356 -->
<g id="node13" class="node">
<title>3356</title>
<ellipse fill="none" stroke="#000000" cx="315.9302" cy="-244.7917" rx="28.6953" ry="18"/>
<text text-anchor="middle" x="315.9302" y="-241.0917" font-family="Times,serif" font-size="14.00" fill="#000000">3356</text>
</g>
<!-- 3549 -->
<g id="node15" class="node">
<title>3549</title>
<ellipse fill="none" stroke="#000000" cx="228.2423" cy="-263.64" rx="28.6953" ry="18"/>
<text text-anchor="middle" x="228.2423" y="-259.94" font-family="Times,serif" font-size="14.00" fill="#000000">3549</text>
</g>
<!-- 3356&#45;&gt;3549 -->
<g id="edge15" class="edge">
<title>3356&#45;&gt;3549</title>
<path fill="none" stroke="#000000" d="M288.6659,-250.6521C281.3249,-252.23 273.2567,-253.9643 265.4731,-255.6373"/>
<polygon fill="#000000" stroke="#000000" points="264.5309,-252.2598 255.4898,-257.7832 266.002,-259.1035 264.5309,-252.2598"/>
</g>
<!-- 6762 -->
<g id="node21" class="node">
<title>6762</title>
<ellipse fill="none" stroke="#000000" cx="167.4471" cy="-186.679" rx="28.6953" ry="18"/>
<text text-anchor="middle" x="167.4471" y="-182.979" font-family="Times,serif" font-size="14.00" fill="#000000">6762</text>
</g>
<!-- 3549&#45;&gt;6762 -->
<g id="edge16" class="edge">
<title>3549&#45;&gt;6762</title>
<path fill="none" stroke="#000000" d="M215.3492,-247.3185C207.0471,-236.8089 196.1024,-222.954 186.7707,-211.1408"/>
<polygon fill="#000000" stroke="#000000" points="189.2668,-208.6544 180.3216,-202.9769 183.7739,-212.9935 189.2668,-208.6544"/>
</g>
<!-- 30070 -->
<g id="node33" class="node">
<title>30070</title>
<ellipse fill="none" stroke="#000000" cx="206.0304" cy="-357.1482" rx="32.4942" ry="18"/>
<text text-anchor="middle" x="206.0304" y="-353.4482" font-family="Times,serif" font-size="14.00" fill="#000000">30070</text>
</g>
<!-- 3549&#45;&gt;30070 -->
<g id="edge17" class="edge">
<title>3549&#45;&gt;30070</title>
<path fill="none" stroke="#000000" d="M223.9596,-281.6693C220.7639,-295.1228 216.3375,-313.7572 212.6825,-329.1441"/>
<polygon fill="#000000" stroke="#000000" points="209.2059,-328.6361 210.2999,-339.1743 216.0164,-330.2539 209.2059,-328.6361"/>
</g>
<!-- 3597 -->
<g id="node16" class="node">
<title>3597</title>
<ellipse fill="none" stroke="#000000" cx="532.3228" cy="-145.6062" rx="28.6953" ry="18"/>
<text text-anchor="middle" x="532.3228" y="-141.9062" font-family="Times,serif" font-size="14.00" fill="#000000">3597</text>
</g>
<!-- 5692 -->
<g id="node18" class="node">
<title>5692</title>
<ellipse fill="none" stroke="#000000" cx="591.7459" cy="-167.4249" rx="28.6953" ry="18"/>
<text text-anchor="middle" x="591.7459" y="-163.7249" font-family="Times,serif" font-size="14.00" fill="#000000">5692</text>
</g>
<!-- 5692&#45;&gt;3597 -->
<g id="edge18" class="edge">
<title>5692&#45;&gt;3597</title>
<path fill="none" stroke="#000000" d="M566.8895,-158.2982C566.7901,-158.2617 566.6906,-158.2252 566.5911,-158.1887"/>
<polygon fill="#000000" stroke="#000000" points="567.8643,-154.9277 557.2707,-154.7664 565.4515,-161.4988 567.8643,-154.9277"/>
</g>
<!-- 10834 -->
<g id="node26" class="node">
<title>10834</title>
<ellipse fill="none" stroke="#000000" cx="487.9904" cy="-193.7563" rx="32.4942" ry="18"/>
<text text-anchor="middle" x="487.9904" y="-190.0563" font-family="Times,serif" font-size="14.00" fill="#000000">10834</text>
</g>
<!-- 5692&#45;&gt;10834 -->
<g id="edge19" class="edge">
<title>5692&#45;&gt;10834</title>
<path fill="none" stroke="#000000" d="M565.0263,-174.2059C553.5609,-177.1156 539.9323,-180.5743 527.3488,-183.7678"/>
<polygon fill="#000000" stroke="#000000" points="526.3743,-180.4041 517.5425,-186.2565 528.0962,-187.189 526.3743,-180.4041"/>
</g>
<!-- 11008 -->
<g id="node27" class="node">
<title>11008</title>
<ellipse fill="none" stroke="#000000" cx="554.7055" cy="-109.1135" rx="32.4942" ry="18"/>
<text text-anchor="middle" x="554.7055" y="-105.4135" font-family="Times,serif" font-size="14.00" fill="#000000">11008</text>
</g>
<!-- 5692&#45;&gt;11008 -->
<g id="edge20" class="edge">
<title>5692&#45;&gt;11008</title>
<path fill="none" stroke="#000000" d="M581.0323,-150.5588C577.9115,-145.6459 574.4287,-140.1631 571.0445,-134.8354"/>
<polygon fill="#000000" stroke="#000000" points="573.8396,-132.708 565.5234,-126.1437 567.9309,-136.4613 573.8396,-132.708"/>
</g>
<!-- 27865 -->
<g id="node31" class="node">
<title>27865</title>
<ellipse fill="none" stroke="#000000" cx="632.2139" cy="-108.3178" rx="32.4942" ry="18"/>
<text text-anchor="middle" x="632.2139" y="-104.6178" font-family="Times,serif" font-size="14.00" fill="#000000">27865</text>
</g>
<!-- 5692&#45;&gt;27865 -->
<g id="edge21" class="edge">
<title>5692&#45;&gt;27865</title>
<path fill="none" stroke="#000000" d="M603.2342,-150.6453C606.7918,-145.449 610.7962,-139.6002 614.667,-133.9466"/>
<polygon fill="#000000" stroke="#000000" points="617.795,-135.5733 620.5564,-125.3447 612.019,-131.6187 617.795,-135.5733"/>
</g>
<!-- 28065 -->
<g id="node32" class="node">
<title>28065</title>
<ellipse fill="none" stroke="#000000" cx="595.7523" cy="-88.7241" rx="32.4942" ry="18"/>
<text text-anchor="middle" x="595.7523" y="-85.0241" font-family="Times,serif" font-size="14.00" fill="#000000">28065</text>
</g>
<!-- 5692&#45;&gt;28065 -->
<g id="edge22" class="edge">
<title>5692&#45;&gt;28065</title>
<path fill="none" stroke="#000000" d="M592.6751,-149.1715C593.1606,-139.6358 593.7655,-127.7534 594.3102,-117.0535"/>
<polygon fill="#000000" stroke="#000000" points="597.8151,-117.0435 594.8281,-106.8785 590.8242,-116.6876 597.8151,-117.0435"/>
</g>
<!-- 52317 -->
<g id="node34" class="node">
<title>52317</title>
<ellipse fill="none" stroke="#000000" cx="567.5767" cy="-230.8309" rx="32.4942" ry="18"/>
<text text-anchor="middle" x="567.5767" y="-227.1309" font-family="Times,serif" font-size="14.00" fill="#000000">52317</text>
</g>
<!-- 5692&#45;&gt;52317 -->
<g id="edge23" class="edge">
<title>5692&#45;&gt;52317</title>
<path fill="none" stroke="#000000" d="M585.0134,-185.087C582.8502,-190.7621 580.4002,-197.1895 578.0349,-203.3947"/>
<polygon fill="#000000" stroke="#000000" points="574.7325,-202.2321 574.441,-212.8229 581.2734,-204.7254 574.7325,-202.2321"/>
</g>
<!-- 52375 -->
<g id="node35" class="node">
<title>52375</title>
<ellipse fill="none" stroke="#000000" cx="608.1017" cy="-234.3443" rx="32.4942" ry="18"/>
<text text-anchor="middle" x="608.1017" y="-230.6443" font-family="Times,serif" font-size="14.00" fill="#000000">52375</text>
</g>
<!-- 5692&#45;&gt;52375 -->
<g id="edge24" class="edge">
<title>5692&#45;&gt;52375</title>
<path fill="none" stroke="#000000" d="M596.129,-185.3581C597.7057,-191.809 599.5242,-199.2494 601.2601,-206.3519"/>
<polygon fill="#000000" stroke="#000000" points="597.9323,-207.4785 603.7066,-216.3616 604.7322,-205.8165 597.9323,-207.4785"/>
</g>
<!-- 52376 -->
<g id="node36" class="node">
<title>52376</title>
<ellipse fill="none" stroke="#000000" cx="648.5556" cy="-221.3166" rx="32.4942" ry="18"/>
<text text-anchor="middle" x="648.5556" y="-217.6166" font-family="Times,serif" font-size="14.00" fill="#000000">52376</text>
</g>
<!-- 5692&#45;&gt;52376 -->
<g id="edge25" class="edge">
<title>5692&#45;&gt;52376</title>
<path fill="none" stroke="#000000" d="M607.5706,-182.4368C612.8071,-187.4043 618.7586,-193.0501 624.4712,-198.4693"/>
<polygon fill="#000000" stroke="#000000" points="622.36,-201.2908 632.0237,-205.6339 627.1776,-196.2123 622.36,-201.2908"/>
</g>
<!-- 52380 -->
<g id="node37" class="node">
<title>52380</title>
<ellipse fill="none" stroke="#000000" cx="550.645" cy="-193.4222" rx="32.4942" ry="18"/>
<text text-anchor="middle" x="550.645" y="-189.7222" font-family="Times,serif" font-size="14.00" fill="#000000">52380</text>
</g>
<!-- 5692&#45;&gt;52380 -->
<g id="edge26" class="edge">
<title>5692&#45;&gt;52380</title>
<path fill="none" stroke="#000000" d="M571.1954,-180.4235C571.1152,-180.4743 571.0349,-180.5251 570.9546,-180.5759"/>
<polygon fill="#000000" stroke="#000000" points="577.2941,-172.4228 570.7138,-180.7282 581.0372,-178.339 577.2941,-172.4228"/>
</g>
<!-- 52413 -->
<g id="node38" class="node">
<title>52413</title>
<ellipse fill="none" stroke="#000000" cx="595.5276" cy="-128.7401" rx="32.4942" ry="18"/>
<text text-anchor="middle" x="595.5276" y="-125.0401" font-family="Times,serif" font-size="14.00" fill="#000000">52413</text>
</g>
<!-- 5692&#45;&gt;52413 -->
<g id="edge27" class="edge">
<title>5692&#45;&gt;52413</title>
<path fill="none" stroke="#000000" d="M593.5039,-149.4415C593.5135,-149.3429 593.5232,-149.2442 593.5328,-149.1454"/>
<polygon fill="#000000" stroke="#000000" points="596.2458,-157.3632 593.7357,-147.07 589.279,-156.6819 596.2458,-157.3632"/>
</g>
<!-- 52431 -->
<g id="node39" class="node">
<title>52431</title>
<ellipse fill="none" stroke="#000000" cx="629.3421" cy="-186.4466" rx="32.4942" ry="18"/>
<text text-anchor="middle" x="629.3421" y="-182.7466" font-family="Times,serif" font-size="14.00" fill="#000000">52431</text>
</g>
<!-- 5692&#45;&gt;52431 -->
<g id="edge28" class="edge">
<title>5692&#45;&gt;52431</title>
<path fill="none" stroke="#000000" d="M614.0503,-178.7097C614.1135,-178.7417 614.1767,-178.7737 614.2398,-178.8057"/>
<polygon fill="#000000" stroke="#000000" points="603.9246,-177.5075 614.4291,-178.9014 607.0866,-171.2611 603.9246,-177.5075"/>
</g>
<!-- 262230 -->
<g id="node40" class="node">
<title>262230</title>
<ellipse fill="none" stroke="#000000" cx="668.514" cy="-176.9863" rx="37.0935" ry="18"/>
<text text-anchor="middle" x="668.514" y="-173.2863" font-family="Times,serif" font-size="14.00" fill="#000000">262230</text>
</g>
<!-- 5692&#45;&gt;262230 -->
<g id="edge29" class="edge">
<title>5692&#45;&gt;262230</title>
<path fill="none" stroke="#000000" d="M619.8956,-170.9309C620.6659,-171.0269 621.4421,-171.1235 622.2228,-171.2208"/>
<polygon fill="#000000" stroke="#000000" points="622.1623,-174.7402 632.5182,-172.5031 623.0275,-167.7939 622.1623,-174.7402"/>
</g>
<!-- 264608 -->
<g id="node41" class="node">
<title>264608</title>
<ellipse fill="none" stroke="#000000" cx="658.5285" cy="-138.1586" rx="37.0935" ry="18"/>
<text text-anchor="middle" x="658.5285" y="-134.4586" font-family="Times,serif" font-size="14.00" fill="#000000">264608</text>
</g>
<!-- 5692&#45;&gt;264608 -->
<g id="edge30" class="edge">
<title>5692&#45;&gt;264608</title>
<path fill="none" stroke="#000000" d="M615.479,-157.0243C617.3348,-156.211 619.2341,-155.3787 621.1512,-154.5385"/>
<polygon fill="#000000" stroke="#000000" points="623.0115,-157.5447 630.7657,-150.3252 620.2017,-151.1333 623.0115,-157.5447"/>
</g>
<!-- 6762&#45;&gt;2914 -->
<g id="edge31" class="edge">
<title>6762&#45;&gt;2914</title>
<path fill="none" stroke="#000000" d="M154.8736,-170.1725C144.883,-157.057 130.7545,-138.509 119.4171,-123.6253"/>
<polygon fill="#000000" stroke="#000000" points="121.9606,-121.1883 113.1167,-115.3542 116.3921,-125.4301 121.9606,-121.1883"/>
</g>
<!-- 6904 -->
<g id="node22" class="node">
<title>6904</title>
<ellipse fill="none" stroke="#000000" cx="258.0878" cy="-394.8335" rx="28.6953" ry="18"/>
<text text-anchor="middle" x="258.0878" y="-391.1335" font-family="Times,serif" font-size="14.00" fill="#000000">6904</text>
</g>
<!-- 6904&#45;&gt;2687 -->
<g id="edge32" class="edge">
<title>6904&#45;&gt;2687</title>
<path fill="none" stroke="#000000" d="M272.9928,-410.5577C273.1365,-410.7093 273.2804,-410.8611 273.4246,-411.0133"/>
<polygon fill="#000000" stroke="#000000" points="270.5403,-413.0581 279.96,-417.9079 275.6207,-408.2424 270.5403,-413.0581"/>
</g>
<!-- 7016 -->
<g id="node23" class="node">
<title>7016</title>
<ellipse fill="none" stroke="#000000" cx="200.6606" cy="-432.3008" rx="28.6953" ry="18"/>
<text text-anchor="middle" x="200.6606" y="-428.6008" font-family="Times,serif" font-size="14.00" fill="#000000">7016</text>
</g>
<!-- 7922 -->
<g id="node25" class="node">
<title>7922</title>
<ellipse fill="none" stroke="#000000" cx="191.9141" cy="-487.3018" rx="28.6953" ry="18"/>
<text text-anchor="middle" x="191.9141" y="-483.6018" font-family="Times,serif" font-size="14.00" fill="#000000">7922</text>
</g>
<!-- 7016&#45;&gt;7922 -->
<g id="edge33" class="edge">
<title>7016&#45;&gt;7922</title>
<path fill="none" stroke="#000000" d="M197.7967,-450.3102C197.3483,-453.1299 196.8758,-456.1012 196.4015,-459.0838"/>
<polygon fill="#000000" stroke="#000000" points="192.9285,-458.6381 194.8144,-469.0637 199.8416,-459.7375 192.9285,-458.6381"/>
</g>
<!-- 12956 -->
<g id="node28" class="node">
<title>12956</title>
<ellipse fill="none" stroke="#000000" cx="401.0719" cy="-222.898" rx="32.4942" ry="18"/>
<text text-anchor="middle" x="401.0719" y="-219.198" font-family="Times,serif" font-size="14.00" fill="#000000">12956</text>
</g>
<!-- 10834&#45;&gt;12956 -->
<g id="edge34" class="edge">
<title>10834&#45;&gt;12956</title>
<path fill="none" stroke="#000000" d="M460.0104,-203.1373C453.1867,-205.4251 445.7773,-207.9093 438.589,-210.3194"/>
<polygon fill="#000000" stroke="#000000" points="437.3681,-207.0372 428.9995,-213.5345 439.5934,-213.6741 437.3681,-207.0372"/>
</g>
<!-- 22927 -->
<g id="node30" class="node">
<title>22927</title>
<ellipse fill="none" stroke="#000000" cx="447.555" cy="-167.0967" rx="32.4942" ry="18"/>
<text text-anchor="middle" x="447.555" y="-163.3967" font-family="Times,serif" font-size="14.00" fill="#000000">22927</text>
</g>
<!-- 10834&#45;&gt;22927 -->
<g id="edge35" class="edge">
<title>10834&#45;&gt;22927</title>
<path fill="none" stroke="#000000" d="M466.8253,-179.8018C466.7489,-179.7514 466.6725,-179.7011 466.5961,-179.6507"/>
<polygon fill="#000000" stroke="#000000" points="476.6434,-182.0834 466.367,-179.4996 472.7892,-187.928 476.6434,-182.0834"/>
</g>
<!-- 12956&#45;&gt;3356 -->
<g id="edge36" class="edge">
<title>12956&#45;&gt;3356</title>
<path fill="none" stroke="#000000" d="M371.2934,-230.5553C365.1254,-232.1414 358.5623,-233.8291 352.192,-235.4672"/>
<polygon fill="#000000" stroke="#000000" points="351.2379,-232.0986 342.4247,-237.9788 352.9813,-238.878 351.2379,-232.0986"/>
</g>
<!-- 18540 -->
<g id="node29" class="node">
<title>18540</title>
<ellipse fill="none" stroke="#000000" cx="179.6895" cy="-389.951" rx="32.4942" ry="18"/>
<text text-anchor="middle" x="179.6895" y="-386.251" font-family="Times,serif" font-size="14.00" fill="#000000">18540</text>
</g>
<!-- 30070&#45;&gt;2828 -->
<g id="edge37" class="edge">
<title>30070&#45;&gt;2828</title>
<path fill="none" stroke="#000000" d="M175.2004,-363.3515C174.9764,-363.3965 174.7522,-363.4416 174.5278,-363.4868"/>
<polygon fill="#000000" stroke="#000000" points="173.5604,-360.1112 164.4473,-365.5151 174.9413,-366.9737 173.5604,-360.1112"/>
</g>
<!-- 30070&#45;&gt;6904 -->
<g id="edge38" class="edge">
<title>30070&#45;&gt;6904</title>
<path fill="none" stroke="#000000" d="M226.0083,-371.6106C227.6426,-372.7937 229.3107,-374.0012 230.9846,-375.213"/>
<polygon fill="#000000" stroke="#000000" points="229.1228,-378.1861 239.2755,-381.2149 233.2276,-372.5159 229.1228,-378.1861"/>
</g>
<!-- 30070&#45;&gt;7016 -->
<g id="edge39" class="edge">
<title>30070&#45;&gt;7016</title>
<path fill="none" stroke="#000000" d="M204.7305,-375.3406C204.1105,-384.0179 203.3548,-394.5942 202.6637,-404.2671"/>
<polygon fill="#000000" stroke="#000000" points="199.1702,-404.052 201.9485,-414.276 206.1524,-404.5509 199.1702,-404.052"/>
</g>
<!-- 30070&#45;&gt;18540 -->
<g id="edge40" class="edge">
<title>30070&#45;&gt;18540</title>
<path fill="none" stroke="#000000" d="M192.5513,-373.934C192.5006,-373.9971 192.45,-374.0601 192.3994,-374.1231"/>
<polygon fill="#000000" stroke="#000000" points="195.781,-364.3221 192.2476,-374.3122 201.2397,-368.706 195.781,-364.3221"/>
</g>
</g>
</svg>
