<?xml version="1.0" encoding="UTF-8" standalone="no"?>
<!DOCTYPE svg PUBLIC "-//W3C//DTD SVG 1.1//EN"
 "http://www.w3.org/Graphics/SVG/1.1/DTD/svg11.dtd">
<!-- Generated by graphviz version 2.40.1 (20161225.0304)
 -->
<!-- Title: %3 Pages: 1 -->
<svg width="964pt" height="1393pt"
 viewBox="0.00 0.00 964.00 1393.00" xmlns="http://www.w3.org/2000/svg" xmlns:xlink="http://www.w3.org/1999/xlink">
<g id="graph0" class="graph" transform="scale(1 1) rotate(0) translate(4 1389)">
<title>%3</title>
<polygon fill="#ffffff" stroke="transparent" points="-4,4 -4,-1389 960,-1389 960,4 -4,4"/>
<!-- 174 -->
<g id="node1" class="node">
<title>174</title>
<ellipse fill="none" stroke="#000000" cx="183.4889" cy="-273.9211" rx="27" ry="18"/>
<text text-anchor="middle" x="183.4889" y="-270.2211" font-family="Times,serif" font-size="14.00" fill="#000000">174</text>
</g>
<!-- 209 -->
<g id="node2" class="node">
<title>209</title>
<ellipse fill="none" stroke="#000000" cx="37.5578" cy="-190.7057" rx="27" ry="18"/>
<text text-anchor="middle" x="37.5578" y="-187.0057" font-family="Times,serif" font-size="14.00" fill="#000000">209</text>
</g>
<!-- 701 -->
<g id="node3" class="node">
<title>701</title>
<ellipse fill="none" stroke="#000000" cx="255.7546" cy="-68.9897" rx="27" ry="18"/>
<text text-anchor="middle" x="255.7546" y="-65.2897" font-family="Times,serif" font-size="14.00" fill="#000000">701</text>
</g>
<!-- 1239 -->
<g id="node4" class="node">
<title>1239</title>
<ellipse fill="none" stroke="#000000" cx="51.9687" cy="-235.0149" rx="28.6953" ry="18"/>
<text text-anchor="middle" x="51.9687" y="-231.3149" font-family="Times,serif" font-size="14.00" fill="#000000">1239</text>
</g>
<!-- 1273 -->
<g id="node5" class="node">
<title>1273</title>
<ellipse fill="none" stroke="#000000" cx="117.1702" cy="-277.9626" rx="28.6953" ry="18"/>
<text text-anchor="middle" x="117.1702" y="-274.2626" font-family="Times,serif" font-size="14.00" fill="#000000">1273</text>
</g>
<!-- 1299 -->
<g id="node6" class="node">
<title>1299</title>
<ellipse fill="none" stroke="#000000" cx="143.764" cy="-64.9346" rx="28.6953" ry="18"/>
<text text-anchor="middle" x="143.764" y="-61.2346" font-family="Times,serif" font-size="14.00" fill="#000000">1299</text>
</g>
<!-- 2497 -->
<g id="node7" class="node">
<title>2497</title>
<ellipse fill="none" stroke="#000000" cx="99.0882" cy="-110.0322" rx="28.6953" ry="18"/>
<text text-anchor="middle" x="99.0882" y="-106.3322" font-family="Times,serif" font-size="14.00" fill="#000000">2497</text>
</g>
<!-- 2687 -->
<g id="node8" class="node">
<title>2687</title>
<ellipse fill="none" stroke="#000000" cx="920.056" cy="-214.9755" rx="28.6953" ry="18"/>
<text text-anchor="middle" x="920.056" y="-211.2755" font-family="Times,serif" font-size="14.00" fill="#000000">2687</text>
</g>
<!-- 2828 -->
<g id="node9" class="node">
<title>2828</title>
<ellipse fill="none" stroke="#000000" cx="749.0132" cy="-198.6612" rx="28.6953" ry="18"/>
<text text-anchor="middle" x="749.0132" y="-194.9612" font-family="Times,serif" font-size="14.00" fill="#000000">2828</text>
</g>
<!-- 5511 -->
<g id="node17" class="node">
<title>5511</title>
<ellipse fill="none" stroke="#000000" cx="823.2478" cy="-92.6524" rx="28.6953" ry="18"/>
<text text-anchor="middle" x="823.2478" y="-88.9524" font-family="Times,serif" font-size="14.00" fill="#000000">5511</text>
</g>
<!-- 2828&#45;&gt;5511 -->
<g id="edge1" class="edge">
<title>2828&#45;&gt;5511</title>
<path fill="none" stroke="#000000" d="M760.6124,-182.0974C772.6897,-164.8506 791.7534,-137.6271 805.6795,-117.7404"/>
<polygon fill="#000000" stroke="#000000" points="808.6159,-119.6487 811.4851,-109.4498 802.882,-115.6334 808.6159,-119.6487"/>
</g>
<!-- 2914 -->
<g id="node10" class="node">
<title>2914</title>
<ellipse fill="none" stroke="#000000" cx="166.8128" cy="-160.1263" rx="28.6953" ry="18"/>
<text text-anchor="middle" x="166.8128" y="-156.4263" font-family="Times,serif" font-size="14.00" fill="#000000">2914</text>
</g>
<!-- 2914&#45;&gt;174 -->
<g id="edge2" class="edge">
<title>2914&#45;&gt;174</title>
<path fill="none" stroke="#000000" d="M169.4552,-178.1574C172.1264,-196.3856 176.2916,-224.8084 179.3914,-245.9603"/>
<polygon fill="#000000" stroke="#000000" points="175.9458,-246.5876 180.8589,-255.9744 182.8718,-245.5725 175.9458,-246.5876"/>
</g>
<!-- 2914&#45;&gt;209 -->
<g id="edge3" class="edge">
<title>2914&#45;&gt;209</title>
<path fill="none" stroke="#000000" d="M140.0311,-166.4624C120.7131,-171.0327 94.4294,-177.2509 73.3182,-182.2454"/>
<polygon fill="#000000" stroke="#000000" points="72.3488,-178.8781 63.4232,-184.5864 73.9604,-185.69 72.3488,-178.8781"/>
</g>
<!-- 2914&#45;&gt;701 -->
<g id="edge4" class="edge">
<title>2914&#45;&gt;701</title>
<path fill="none" stroke="#000000" d="M181.9006,-144.6662C196.1696,-130.045 217.7439,-107.9384 233.8958,-91.3879"/>
<polygon fill="#000000" stroke="#000000" points="236.4101,-93.8228 240.8897,-84.2215 231.4004,-88.9337 236.4101,-93.8228"/>
</g>
<!-- 2914&#45;&gt;1239 -->
<g id="edge5" class="edge">
<title>2914&#45;&gt;1239</title>
<path fill="none" stroke="#000000" d="M146.8085,-173.1709C128.4769,-185.1247 101.1339,-202.9548 80.5104,-216.4031"/>
<polygon fill="#000000" stroke="#000000" points="78.5938,-213.4745 72.1291,-221.8685 82.4173,-219.338 78.5938,-213.4745"/>
</g>
<!-- 2914&#45;&gt;1273 -->
<g id="edge6" class="edge">
<title>2914&#45;&gt;1273</title>
<path fill="none" stroke="#000000" d="M159.3808,-177.7676C151.2285,-197.1185 138.0469,-228.4075 128.5823,-250.8738"/>
<polygon fill="#000000" stroke="#000000" points="125.31,-249.6262 124.653,-260.2007 131.7609,-252.3439 125.31,-249.6262"/>
</g>
<!-- 2914&#45;&gt;1299 -->
<g id="edge7" class="edge">
<title>2914&#45;&gt;1299</title>
<path fill="none" stroke="#000000" d="M162.4775,-142.2215C159.0972,-128.2608 154.3429,-108.6257 150.4724,-92.6404"/>
<polygon fill="#000000" stroke="#000000" points="153.835,-91.6546 148.0799,-82.7592 147.0315,-93.302 153.835,-91.6546"/>
</g>
<!-- 2914&#45;&gt;2497 -->
<g id="edge8" class="edge">
<title>2914&#45;&gt;2497</title>
<path fill="none" stroke="#000000" d="M147.9477,-146.1723C141.1962,-141.1784 133.448,-135.4472 126.141,-130.0424"/>
<polygon fill="#000000" stroke="#000000" points="127.9732,-127.0442 117.8521,-123.9114 123.8104,-132.672 127.9732,-127.0442"/>
</g>
<!-- 3257 -->
<g id="node11" class="node">
<title>3257</title>
<ellipse fill="none" stroke="#000000" cx="143.7042" cy="-17.8714" rx="28.6953" ry="18"/>
<text text-anchor="middle" x="143.7042" y="-14.1714" font-family="Times,serif" font-size="14.00" fill="#000000">3257</text>
</g>
<!-- 2914&#45;&gt;3257 -->
<g id="edge9" class="edge">
<title>2914&#45;&gt;3257</title>
<path fill="none" stroke="#000000" d="M163.8861,-142.1096C159.9661,-117.9786 152.9681,-74.899 148.3306,-46.3511"/>
<polygon fill="#000000" stroke="#000000" points="151.7384,-45.5005 146.6802,-36.1911 144.829,-46.623 151.7384,-45.5005"/>
</g>
<!-- 3320 -->
<g id="node12" class="node">
<title>3320</title>
<ellipse fill="none" stroke="#000000" cx="209.0391" cy="-24.9834" rx="28.6953" ry="18"/>
<text text-anchor="middle" x="209.0391" y="-21.2834" font-family="Times,serif" font-size="14.00" fill="#000000">3320</text>
</g>
<!-- 2914&#45;&gt;3320 -->
<g id="edge10" class="edge">
<title>2914&#45;&gt;3320</title>
<path fill="none" stroke="#000000" d="M172.3331,-142.4587C179.509,-119.4927 192.1146,-79.1494 200.5211,-52.2446"/>
<polygon fill="#000000" stroke="#000000" points="203.8757,-53.2441 203.5174,-42.6553 197.1942,-51.1564 203.8757,-53.2441"/>
</g>
<!-- 3491 -->
<g id="node14" class="node">
<title>3491</title>
<ellipse fill="none" stroke="#000000" cx="282.4771" cy="-128.0238" rx="28.6953" ry="18"/>
<text text-anchor="middle" x="282.4771" y="-124.3238" font-family="Times,serif" font-size="14.00" fill="#000000">3491</text>
</g>
<!-- 2914&#45;&gt;3491 -->
<g id="edge11" class="edge">
<title>2914&#45;&gt;3491</title>
<path fill="none" stroke="#000000" d="M193.0588,-152.8417C208.771,-148.4808 228.9701,-142.8746 246.1938,-138.0942"/>
<polygon fill="#000000" stroke="#000000" points="247.2349,-141.4376 255.9345,-135.3906 245.3627,-134.6926 247.2349,-141.4376"/>
</g>
<!-- 6453 -->
<g id="node19" class="node">
<title>6453</title>
<ellipse fill="none" stroke="#000000" cx="33.8098" cy="-94.2415" rx="28.6953" ry="18"/>
<text text-anchor="middle" x="33.8098" y="-90.5415" font-family="Times,serif" font-size="14.00" fill="#000000">6453</text>
</g>
<!-- 2914&#45;&gt;6453 -->
<g id="edge12" class="edge">
<title>2914&#45;&gt;6453</title>
<path fill="none" stroke="#000000" d="M144.2506,-148.9498C122.6592,-138.2542 89.8823,-122.0178 65.6395,-110.0088"/>
<polygon fill="#000000" stroke="#000000" points="66.9971,-106.7754 56.4826,-105.4728 63.8898,-113.048 66.9971,-106.7754"/>
</g>
<!-- 6461 -->
<g id="node20" class="node">
<title>6461</title>
<ellipse fill="none" stroke="#000000" cx="78.4405" cy="-46.825" rx="28.6953" ry="18"/>
<text text-anchor="middle" x="78.4405" y="-43.125" font-family="Times,serif" font-size="14.00" fill="#000000">6461</text>
</g>
<!-- 2914&#45;&gt;6461 -->
<g id="edge13" class="edge">
<title>2914&#45;&gt;6461</title>
<path fill="none" stroke="#000000" d="M154.1512,-143.893C139.2547,-124.7943 114.3838,-92.9076 97.2357,-70.9222"/>
<polygon fill="#000000" stroke="#000000" points="99.9886,-68.7607 91.0786,-63.0282 94.4691,-73.0659 99.9886,-68.7607"/>
</g>
<!-- 7018 -->
<g id="node24" class="node">
<title>7018</title>
<ellipse fill="none" stroke="#000000" cx="28.6804" cy="-143.4881" rx="28.6953" ry="18"/>
<text text-anchor="middle" x="28.6804" y="-139.7881" font-family="Times,serif" font-size="14.00" fill="#000000">7018</text>
</g>
<!-- 2914&#45;&gt;7018 -->
<g id="edge14" class="edge">
<title>2914&#45;&gt;7018</title>
<path fill="none" stroke="#000000" d="M138.5263,-156.7192C117.8551,-154.2293 89.591,-150.8249 66.9099,-148.0929"/>
<polygon fill="#000000" stroke="#000000" points="67.2758,-144.6118 56.929,-146.8907 66.4387,-151.5615 67.2758,-144.6118"/>
</g>
<!-- 3356 -->
<g id="node13" class="node">
<title>3356</title>
<ellipse fill="none" stroke="#000000" cx="523.8783" cy="-608.7923" rx="28.6953" ry="18"/>
<text text-anchor="middle" x="523.8783" y="-605.0923" font-family="Times,serif" font-size="14.00" fill="#000000">3356</text>
</g>
<!-- 3549 -->
<g id="node15" class="node">
<title>3549</title>
<ellipse fill="none" stroke="#000000" cx="494.4357" cy="-410.2596" rx="28.6953" ry="18"/>
<text text-anchor="middle" x="494.4357" y="-406.5596" font-family="Times,serif" font-size="14.00" fill="#000000">3549</text>
</g>
<!-- 3356&#45;&gt;3549 -->
<g id="edge15" class="edge">
<title>3356&#45;&gt;3549</title>
<path fill="none" stroke="#000000" d="M521.2136,-590.8237C516.0699,-556.14 504.7397,-479.7399 498.5949,-438.3057"/>
<polygon fill="#000000" stroke="#000000" points="502.0448,-437.709 497.1156,-428.3307 495.1206,-438.736 502.0448,-437.709"/>
</g>
<!-- 6762 -->
<g id="node21" class="node">
<title>6762</title>
<ellipse fill="none" stroke="#000000" cx="331.6228" cy="-286.2287" rx="28.6953" ry="18"/>
<text text-anchor="middle" x="331.6228" y="-282.5287" font-family="Times,serif" font-size="14.00" fill="#000000">6762</text>
</g>
<!-- 3549&#45;&gt;6762 -->
<g id="edge16" class="edge">
<title>3549&#45;&gt;6762</title>
<path fill="none" stroke="#000000" d="M476.0755,-396.2728C447.3711,-374.4058 391.7205,-332.0111 358.4993,-306.7032"/>
<polygon fill="#000000" stroke="#000000" points="360.2414,-303.6305 350.1657,-300.3547 355.9995,-309.1988 360.2414,-303.6305"/>
</g>
<!-- 30070 -->
<g id="node33" class="node">
<title>30070</title>
<ellipse fill="none" stroke="#000000" cx="663.7509" cy="-321.0184" rx="32.4942" ry="18"/>
<text text-anchor="middle" x="663.7509" y="-317.3184" font-family="Times,serif" font-size="14.00" fill="#000000">30070</text>
</g>
<!-- 3549&#45;&gt;30070 -->
<g id="edge17" class="edge">
<title>3549&#45;&gt;30070</title>
<path fill="none" stroke="#000000" d="M516.5707,-398.5929C545.7396,-383.2188 597.2827,-356.0519 630.9774,-338.2924"/>
<polygon fill="#000000" stroke="#000000" points="632.7598,-341.3094 639.9743,-333.5504 629.4959,-335.1169 632.7598,-341.3094"/>
</g>
<!-- 3597 -->
<g id="node16" class="node">
<title>3597</title>
<ellipse fill="none" stroke="#000000" cx="638.2484" cy="-1318.3802" rx="28.6953" ry="18"/>
<text text-anchor="middle" x="638.2484" y="-1314.6802" font-family="Times,serif" font-size="14.00" fill="#000000">3597</text>
</g>
<!-- 5692 -->
<g id="node18" class="node">
<title>5692</title>
<ellipse fill="none" stroke="#000000" cx="600.6524" cy="-1222.4965" rx="28.6953" ry="18"/>
<text text-anchor="middle" x="600.6524" y="-1218.7965" font-family="Times,serif" font-size="14.00" fill="#000000">5692</text>
</g>
<!-- 5692&#45;&gt;3597 -->
<g id="edge18" class="edge">
<title>5692&#45;&gt;3597</title>
<path fill="none" stroke="#000000" d="M607.5481,-1240.083C613.1306,-1254.3205 621.0922,-1274.6255 627.5087,-1290.9899"/>
<polygon fill="#000000" stroke="#000000" points="624.3602,-1292.5482 631.2691,-1300.5804 630.8771,-1289.9928 624.3602,-1292.5482"/>
</g>
<!-- 10834 -->
<g id="node26" class="node">
<title>10834</title>
<ellipse fill="none" stroke="#000000" cx="585.6797" cy="-1016.0222" rx="32.4942" ry="18"/>
<text text-anchor="middle" x="585.6797" y="-1012.3222" font-family="Times,serif" font-size="14.00" fill="#000000">10834</text>
</g>
<!-- 5692&#45;&gt;10834 -->
<g id="edge19" class="edge">
<title>5692&#45;&gt;10834</title>
<path fill="none" stroke="#000000" d="M599.3237,-1204.1733C596.6977,-1167.9613 590.8287,-1087.0271 587.7132,-1044.0639"/>
<polygon fill="#000000" stroke="#000000" points="591.1982,-1043.7302 586.984,-1034.0095 584.2166,-1044.2365 591.1982,-1043.7302"/>
</g>
<!-- 11008 -->
<g id="node27" class="node">
<title>11008</title>
<ellipse fill="none" stroke="#000000" cx="732.7731" cy="-1219.6254" rx="32.4942" ry="18"/>
<text text-anchor="middle" x="732.7731" y="-1215.9254" font-family="Times,serif" font-size="14.00" fill="#000000">11008</text>
</g>
<!-- 5692&#45;&gt;11008 -->
<g id="edge20" class="edge">
<title>5692&#45;&gt;11008</title>
<path fill="none" stroke="#000000" d="M629.3207,-1221.8735C647.0289,-1221.4887 670.0821,-1220.9877 689.9311,-1220.5564"/>
<polygon fill="#000000" stroke="#000000" points="690.0519,-1224.0547 699.9735,-1220.3381 689.8998,-1217.0563 690.0519,-1224.0547"/>
</g>
<!-- 27865 -->
<g id="node31" class="node">
<title>27865</title>
<ellipse fill="none" stroke="#000000" cx="495.6361" cy="-1327.1873" rx="32.4942" ry="18"/>
<text text-anchor="middle" x="495.6361" y="-1323.4873" font-family="Times,serif" font-size="14.00" fill="#000000">27865</text>
</g>
<!-- 5692&#45;&gt;27865 -->
<g id="edge21" class="edge">
<title>5692&#45;&gt;27865</title>
<path fill="none" stroke="#000000" d="M585.1569,-1237.944C567.6522,-1255.3944 538.9815,-1283.9762 518.8123,-1304.083"/>
<polygon fill="#000000" stroke="#000000" points="516.1505,-1301.7944 511.5394,-1311.3332 521.0926,-1306.7519 516.1505,-1301.7944"/>
</g>
<!-- 28065 -->
<g id="node32" class="node">
<title>28065</title>
<ellipse fill="none" stroke="#000000" cx="568.7053" cy="-1322.5816" rx="32.4942" ry="18"/>
<text text-anchor="middle" x="568.7053" y="-1318.8816" font-family="Times,serif" font-size="14.00" fill="#000000">28065</text>
</g>
<!-- 5692&#45;&gt;28065 -->
<g id="edge22" class="edge">
<title>5692&#45;&gt;28065</title>
<path fill="none" stroke="#000000" d="M594.9409,-1240.3897C590.0799,-1255.6183 583.0202,-1277.7353 577.4482,-1295.1914"/>
<polygon fill="#000000" stroke="#000000" points="574.074,-1294.2526 574.3673,-1304.8433 580.7425,-1296.3812 574.074,-1294.2526"/>
</g>
<!-- 52317 -->
<g id="node34" class="node">
<title>52317</title>
<ellipse fill="none" stroke="#000000" cx="573.4281" cy="-1367.4657" rx="32.4942" ry="18"/>
<text text-anchor="middle" x="573.4281" y="-1363.7657" font-family="Times,serif" font-size="14.00" fill="#000000">52317</text>
</g>
<!-- 5692&#45;&gt;52317 -->
<g id="edge23" class="edge">
<title>5692&#45;&gt;52317</title>
<path fill="none" stroke="#000000" d="M597.2595,-1240.5638C592.6132,-1265.3053 584.2235,-1309.9806 578.7402,-1339.1791"/>
<polygon fill="#000000" stroke="#000000" points="575.2697,-1338.6965 576.8638,-1349.1707 582.1494,-1339.9885 575.2697,-1338.6965"/>
</g>
<!-- 52375 -->
<g id="node35" class="node">
<title>52375</title>
<ellipse fill="none" stroke="#000000" cx="646.4844" cy="-1363.2113" rx="32.4942" ry="18"/>
<text text-anchor="middle" x="646.4844" y="-1359.5113" font-family="Times,serif" font-size="14.00" fill="#000000">52375</text>
</g>
<!-- 5692&#45;&gt;52375 -->
<g id="edge24" class="edge">
<title>5692&#45;&gt;52375</title>
<path fill="none" stroke="#000000" d="M606.4571,-1240.3181C614.2659,-1264.293 628.2335,-1307.1769 637.43,-1335.4123"/>
<polygon fill="#000000" stroke="#000000" points="634.1572,-1336.6655 640.5821,-1345.0899 640.813,-1334.4976 634.1572,-1336.6655"/>
</g>
<!-- 52376 -->
<g id="node36" class="node">
<title>52376</title>
<ellipse fill="none" stroke="#000000" cx="497.0496" cy="-1159.4674" rx="32.4942" ry="18"/>
<text text-anchor="middle" x="497.0496" y="-1155.7674" font-family="Times,serif" font-size="14.00" fill="#000000">52376</text>
</g>
<!-- 5692&#45;&gt;52376 -->
<g id="edge25" class="edge">
<title>5692&#45;&gt;52376</title>
<path fill="none" stroke="#000000" d="M579.6869,-1209.7416C564.8201,-1200.6971 544.6257,-1188.4113 527.9217,-1178.2491"/>
<polygon fill="#000000" stroke="#000000" points="529.4191,-1175.0633 519.0568,-1172.8559 525.7809,-1181.0435 529.4191,-1175.0633"/>
</g>
<!-- 52380 -->
<g id="node37" class="node">
<title>52380</title>
<ellipse fill="none" stroke="#000000" cx="706.9461" cy="-1158.836" rx="32.4942" ry="18"/>
<text text-anchor="middle" x="706.9461" y="-1155.136" font-family="Times,serif" font-size="14.00" fill="#000000">52380</text>
</g>
<!-- 5692&#45;&gt;52380 -->
<g id="edge26" class="edge">
<title>5692&#45;&gt;52380</title>
<path fill="none" stroke="#000000" d="M621.3993,-1210.071C636.9368,-1200.7654 658.4486,-1187.8817 676.0131,-1177.3621"/>
<polygon fill="#000000" stroke="#000000" points="678.0051,-1180.2488 684.7858,-1172.108 674.4084,-1174.2435 678.0051,-1180.2488"/>
</g>
<!-- 52413 -->
<g id="node38" class="node">
<title>52413</title>
<ellipse fill="none" stroke="#000000" cx="707.4655" cy="-1318.5839" rx="32.4942" ry="18"/>
<text text-anchor="middle" x="707.4655" y="-1314.8839" font-family="Times,serif" font-size="14.00" fill="#000000">52413</text>
</g>
<!-- 5692&#45;&gt;52413 -->
<g id="edge27" class="edge">
<title>5692&#45;&gt;52413</title>
<path fill="none" stroke="#000000" d="M617.342,-1237.5101C634.8498,-1253.2599 662.5611,-1278.1885 682.6363,-1296.2479"/>
<polygon fill="#000000" stroke="#000000" points="680.4102,-1298.9531 690.1855,-1303.039 685.0917,-1293.7489 680.4102,-1298.9531"/>
</g>
<!-- 52431 -->
<g id="node39" class="node">
<title>52431</title>
<ellipse fill="none" stroke="#000000" cx="470.7914" cy="-1225.9022" rx="32.4942" ry="18"/>
<text text-anchor="middle" x="470.7914" y="-1222.2022" font-family="Times,serif" font-size="14.00" fill="#000000">52431</text>
</g>
<!-- 5692&#45;&gt;52431 -->
<g id="edge28" class="edge">
<title>5692&#45;&gt;52431</title>
<path fill="none" stroke="#000000" d="M571.8321,-1223.2523C554.8092,-1223.6988 532.9312,-1224.2726 513.8886,-1224.772"/>
<polygon fill="#000000" stroke="#000000" points="513.5547,-1221.2794 503.65,-1225.0405 513.7383,-1228.277 513.5547,-1221.2794"/>
</g>
<!-- 262230 -->
<g id="node40" class="node">
<title>262230</title>
<ellipse fill="none" stroke="#000000" cx="734.479" cy="-1274.5805" rx="37.0935" ry="18"/>
<text text-anchor="middle" x="734.479" y="-1270.8805" font-family="Times,serif" font-size="14.00" fill="#000000">262230</text>
</g>
<!-- 5692&#45;&gt;262230 -->
<g id="edge29" class="edge">
<title>5692&#45;&gt;262230</title>
<path fill="none" stroke="#000000" d="M625.1983,-1232.0495C645.0061,-1239.7585 673.2283,-1250.7423 696.0302,-1259.6166"/>
<polygon fill="#000000" stroke="#000000" points="694.8418,-1262.9098 705.4303,-1263.275 697.3807,-1256.3864 694.8418,-1262.9098"/>
</g>
<!-- 264608 -->
<g id="node41" class="node">
<title>264608</title>
<ellipse fill="none" stroke="#000000" cx="473.46" cy="-1283.0961" rx="37.0935" ry="18"/>
<text text-anchor="middle" x="473.46" y="-1279.3961" font-family="Times,serif" font-size="14.00" fill="#000000">264608</text>
</g>
<!-- 5692&#45;&gt;264608 -->
<g id="edge30" class="edge">
<title>5692&#45;&gt;264608</title>
<path fill="none" stroke="#000000" d="M577.6188,-1233.4706C558.6613,-1242.5028 531.4505,-1255.4671 509.5952,-1265.8798"/>
<polygon fill="#000000" stroke="#000000" points="507.8108,-1262.853 500.2885,-1270.3139 510.8217,-1269.1724 507.8108,-1262.853"/>
</g>
<!-- 6762&#45;&gt;2914 -->
<g id="edge31" class="edge">
<title>6762&#45;&gt;2914</title>
<path fill="none" stroke="#000000" d="M313.3555,-272.2517C284.1506,-249.9059 226.818,-206.0386 193.1736,-180.296"/>
<polygon fill="#000000" stroke="#000000" points="195.2306,-177.4629 185.1619,-174.1659 190.977,-183.0223 195.2306,-177.4629"/>
</g>
<!-- 6904 -->
<g id="node22" class="node">
<title>6904</title>
<ellipse fill="none" stroke="#000000" cx="801.4714" cy="-267.2277" rx="28.6953" ry="18"/>
<text text-anchor="middle" x="801.4714" y="-263.5277" font-family="Times,serif" font-size="14.00" fill="#000000">6904</text>
</g>
<!-- 6904&#45;&gt;2687 -->
<g id="edge32" class="edge">
<title>6904&#45;&gt;2687</title>
<path fill="none" stroke="#000000" d="M824.8999,-256.9044C842.6499,-249.0832 867.2685,-238.2354 887.0178,-229.5333"/>
<polygon fill="#000000" stroke="#000000" points="888.5305,-232.6914 896.2703,-225.4563 885.7079,-226.2857 888.5305,-232.6914"/>
</g>
<!-- 7016 -->
<g id="node23" class="node">
<title>7016</title>
<ellipse fill="none" stroke="#000000" cx="801.9809" cy="-359.2641" rx="28.6953" ry="18"/>
<text text-anchor="middle" x="801.9809" y="-355.5641" font-family="Times,serif" font-size="14.00" fill="#000000">7016</text>
</g>
<!-- 7922 -->
<g id="node25" class="node">
<title>7922</title>
<ellipse fill="none" stroke="#000000" cx="927.0755" cy="-376.5587" rx="28.6953" ry="18"/>
<text text-anchor="middle" x="927.0755" y="-372.8587" font-family="Times,serif" font-size="14.00" fill="#000000">7922</text>
</g>
<!-- 7016&#45;&gt;7922 -->
<g id="edge33" class="edge">
<title>7016&#45;&gt;7922</title>
<path fill="none" stroke="#000000" d="M830.0546,-363.1454C847.4376,-365.5486 869.9868,-368.6661 888.971,-371.2907"/>
<polygon fill="#000000" stroke="#000000" points="888.7104,-374.7879 899.0955,-372.6904 889.6691,-367.8538 888.7104,-374.7879"/>
</g>
<!-- 12956 -->
<g id="node28" class="node">
<title>12956</title>
<ellipse fill="none" stroke="#000000" cx="554.1136" cy="-810.093" rx="32.4942" ry="18"/>
<text text-anchor="middle" x="554.1136" y="-806.393" font-family="Times,serif" font-size="14.00" fill="#000000">12956</text>
</g>
<!-- 10834&#45;&gt;12956 -->
<g id="edge34" class="edge">
<title>10834&#45;&gt;12956</title>
<path fill="none" stroke="#000000" d="M582.8784,-997.7474C577.3423,-961.631 564.969,-880.9105 558.4007,-838.0607"/>
<polygon fill="#000000" stroke="#000000" points="561.8384,-837.3871 556.8636,-828.0329 554.9192,-838.4478 561.8384,-837.3871"/>
</g>
<!-- 22927 -->
<g id="node30" class="node">
<title>22927</title>
<ellipse fill="none" stroke="#000000" cx="701.5592" cy="-974.1385" rx="32.4942" ry="18"/>
<text text-anchor="middle" x="701.5592" y="-970.4385" font-family="Times,serif" font-size="14.00" fill="#000000">22927</text>
</g>
<!-- 10834&#45;&gt;22927 -->
<g id="edge35" class="edge">
<title>10834&#45;&gt;22927</title>
<path fill="none" stroke="#000000" d="M613.1415,-1006.0963C628.583,-1000.5151 648.0621,-993.4746 664.8043,-987.4232"/>
<polygon fill="#000000" stroke="#000000" points="666.0796,-990.684 674.2945,-983.9931 663.7002,-984.1008 666.0796,-990.684"/>
</g>
<!-- 12956&#45;&gt;3356 -->
<g id="edge36" class="edge">
<title>12956&#45;&gt;3356</title>
<path fill="none" stroke="#000000" d="M551.3771,-791.8739C546.0816,-756.6176 534.4008,-678.8488 528.1017,-636.911"/>
<polygon fill="#000000" stroke="#000000" points="531.5335,-636.1944 526.5869,-626.8253 524.6111,-637.2342 531.5335,-636.1944"/>
</g>
<!-- 18540 -->
<g id="node29" class="node">
<title>18540</title>
<ellipse fill="none" stroke="#000000" cx="665.4553" cy="-197.3129" rx="32.4942" ry="18"/>
<text text-anchor="middle" x="665.4553" y="-193.6129" font-family="Times,serif" font-size="14.00" fill="#000000">18540</text>
</g>
<!-- 30070&#45;&gt;2828 -->
<g id="edge37" class="edge">
<title>30070&#45;&gt;2828</title>
<path fill="none" stroke="#000000" d="M675.6063,-304.0052C690.1142,-283.1853 714.8042,-247.7534 731.502,-223.791"/>
<polygon fill="#000000" stroke="#000000" points="734.4129,-225.7355 737.2585,-215.53 728.6697,-221.7335 734.4129,-225.7355"/>
</g>
<!-- 30070&#45;&gt;6904 -->
<g id="edge38" class="edge">
<title>30070&#45;&gt;6904</title>
<path fill="none" stroke="#000000" d="M690.6318,-310.5193C712.6479,-301.9203 743.9221,-289.7053 767.6398,-280.4416"/>
<polygon fill="#000000" stroke="#000000" points="768.9274,-283.6963 776.9688,-276.7979 766.3807,-277.176 768.9274,-283.6963"/>
</g>
<!-- 30070&#45;&gt;7016 -->
<g id="edge39" class="edge">
<title>30070&#45;&gt;7016</title>
<path fill="none" stroke="#000000" d="M693.066,-329.1293C714.2332,-334.9859 742.9557,-342.9329 765.5904,-349.1955"/>
<polygon fill="#000000" stroke="#000000" points="764.9415,-352.6474 775.5128,-351.9409 766.8082,-345.9009 764.9415,-352.6474"/>
</g>
<!-- 30070&#45;&gt;18540 -->
<g id="edge40" class="edge">
<title>30070&#45;&gt;18540</title>
<path fill="none" stroke="#000000" d="M664.0024,-302.7652C664.2819,-282.4829 664.7366,-249.4747 665.063,-225.7886"/>
<polygon fill="#000000" stroke="#000000" points="668.5646,-225.6882 665.2028,-215.6409 661.5653,-225.5917 668.5646,-225.6882"/>
</g>
</g>
</svg>
