<?xml version="1.0" encoding="UTF-8" standalone="no"?>
<!DOCTYPE svg PUBLIC "-//W3C//DTD SVG 1.1//EN"
 "http://www.w3.org/Graphics/SVG/1.1/DTD/svg11.dtd">
<!-- Generated by graphviz version 2.40.1 (20161225.0304)
 -->
<!-- Title: %3 Pages: 1 -->
<svg width="1802pt" height="548pt"
 viewBox="0.00 0.00 1802.05 548.00" xmlns="http://www.w3.org/2000/svg" xmlns:xlink="http://www.w3.org/1999/xlink">
<g id="graph0" class="graph" transform="scale(1 1) rotate(0) translate(4 544)">
<title>%3</title>
<polygon fill="#ffffff" stroke="transparent" points="-4,4 -4,-544 1798.0467,-544 1798.0467,4 -4,4"/>
<!-- 174 -->
<g id="node1" class="node">
<title>174</title>
<ellipse fill="none" stroke="#000000" cx="27" cy="-18" rx="27" ry="18"/>
<text text-anchor="middle" x="27" y="-14.3" font-family="Times,serif" font-size="14.00" fill="#000000">174</text>
</g>
<!-- 209 -->
<g id="node2" class="node">
<title>209</title>
<ellipse fill="none" stroke="#000000" cx="99" cy="-18" rx="27" ry="18"/>
<text text-anchor="middle" x="99" y="-14.3" font-family="Times,serif" font-size="14.00" fill="#000000">209</text>
</g>
<!-- 701 -->
<g id="node3" class="node">
<title>701</title>
<ellipse fill="none" stroke="#000000" cx="171" cy="-18" rx="27" ry="18"/>
<text text-anchor="middle" x="171" y="-14.3" font-family="Times,serif" font-size="14.00" fill="#000000">701</text>
</g>
<!-- 1239 -->
<g id="node4" class="node">
<title>1239</title>
<ellipse fill="none" stroke="#000000" cx="245" cy="-18" rx="28.6953" ry="18"/>
<text text-anchor="middle" x="245" y="-14.3" font-family="Times,serif" font-size="14.00" fill="#000000">1239</text>
</g>
<!-- 1273 -->
<g id="node5" class="node">
<title>1273</title>
<ellipse fill="none" stroke="#000000" cx="320" cy="-18" rx="28.6953" ry="18"/>
<text text-anchor="middle" x="320" y="-14.3" font-family="Times,serif" font-size="14.00" fill="#000000">1273</text>
</g>
<!-- 1299 -->
<g id="node6" class="node">
<title>1299</title>
<ellipse fill="none" stroke="#000000" cx="395" cy="-18" rx="28.6953" ry="18"/>
<text text-anchor="middle" x="395" y="-14.3" font-family="Times,serif" font-size="14.00" fill="#000000">1299</text>
</g>
<!-- 2497 -->
<g id="node7" class="node">
<title>2497</title>
<ellipse fill="none" stroke="#000000" cx="470" cy="-18" rx="28.6953" ry="18"/>
<text text-anchor="middle" x="470" y="-14.3" font-family="Times,serif" font-size="14.00" fill="#000000">2497</text>
</g>
<!-- 2687 -->
<g id="node8" class="node">
<title>2687</title>
<ellipse fill="none" stroke="#000000" cx="1070" cy="-18" rx="28.6953" ry="18"/>
<text text-anchor="middle" x="1070" y="-14.3" font-family="Times,serif" font-size="14.00" fill="#000000">2687</text>
</g>
<!-- 2828 -->
<g id="node9" class="node">
<title>2828</title>
<ellipse fill="none" stroke="#000000" cx="995" cy="-90" rx="28.6953" ry="18"/>
<text text-anchor="middle" x="995" y="-86.3" font-family="Times,serif" font-size="14.00" fill="#000000">2828</text>
</g>
<!-- 5511 -->
<g id="node17" class="node">
<title>5511</title>
<ellipse fill="none" stroke="#000000" cx="995" cy="-18" rx="28.6953" ry="18"/>
<text text-anchor="middle" x="995" y="-14.3" font-family="Times,serif" font-size="14.00" fill="#000000">5511</text>
</g>
<!-- 2828&#45;&gt;5511 -->
<g id="edge1" class="edge">
<title>2828&#45;&gt;5511</title>
<path fill="none" stroke="#000000" d="M995,-71.8314C995,-64.131 995,-54.9743 995,-46.4166"/>
<polygon fill="#000000" stroke="#000000" points="998.5001,-46.4132 995,-36.4133 991.5001,-46.4133 998.5001,-46.4132"/>
</g>
<!-- 2914 -->
<g id="node10" class="node">
<title>2914</title>
<ellipse fill="none" stroke="#000000" cx="508" cy="-90" rx="28.6953" ry="18"/>
<text text-anchor="middle" x="508" y="-86.3" font-family="Times,serif" font-size="14.00" fill="#000000">2914</text>
</g>
<!-- 2914&#45;&gt;174 -->
<g id="edge2" class="edge">
<title>2914&#45;&gt;174</title>
<path fill="none" stroke="#000000" d="M479.48,-87.8213C394.138,-81.1002 141.81,-59.7071 63,-36 61.0929,-35.4263 59.1643,-34.7573 57.2425,-34.0212"/>
<polygon fill="#000000" stroke="#000000" points="58.3881,-30.7025 47.8227,-29.9137 55.5902,-37.1191 58.3881,-30.7025"/>
</g>
<!-- 2914&#45;&gt;209 -->
<g id="edge3" class="edge">
<title>2914&#45;&gt;209</title>
<path fill="none" stroke="#000000" d="M479.2387,-88.9524C415.7205,-85.9711 259.2505,-74.9409 135,-36 133.0996,-35.4044 131.1762,-34.7184 129.2585,-33.9693"/>
<polygon fill="#000000" stroke="#000000" points="130.4119,-30.653 119.8493,-29.8271 127.5914,-37.0597 130.4119,-30.653"/>
</g>
<!-- 2914&#45;&gt;701 -->
<g id="edge4" class="edge">
<title>2914&#45;&gt;701</title>
<path fill="none" stroke="#000000" d="M479.5317,-87.6253C425.3135,-82.5102 303.9938,-68.2052 207,-36 205.11,-35.3724 203.1946,-34.6615 201.2829,-33.8936"/>
<polygon fill="#000000" stroke="#000000" points="202.4483,-30.581 191.8901,-29.7006 199.5948,-36.973 202.4483,-30.581"/>
</g>
<!-- 2914&#45;&gt;1239 -->
<g id="edge5" class="edge">
<title>2914&#45;&gt;1239</title>
<path fill="none" stroke="#000000" d="M480.3053,-85.3991C437.1269,-77.7798 351.5067,-60.8736 282,-36 280.1336,-35.3321 278.2371,-34.5975 276.3389,-33.8185"/>
<polygon fill="#000000" stroke="#000000" points="277.5258,-30.516 266.9658,-29.6568 274.6851,-36.9137 277.5258,-30.516"/>
</g>
<!-- 2914&#45;&gt;1273 -->
<g id="edge6" class="edge">
<title>2914&#45;&gt;1273</title>
<path fill="none" stroke="#000000" d="M482.293,-81.7609C451.979,-71.8269 400.2436,-54.1869 357,-36 355.3703,-35.3146 353.7098,-34.5935 352.0398,-33.8499"/>
<polygon fill="#000000" stroke="#000000" points="353.0633,-30.4668 342.5184,-29.4392 350.1209,-36.8184 353.0633,-30.4668"/>
</g>
<!-- 2914&#45;&gt;1299 -->
<g id="edge7" class="edge">
<title>2914&#45;&gt;1299</title>
<path fill="none" stroke="#000000" d="M487.7979,-77.1278C470.0715,-65.8332 444.0786,-49.2713 424.1085,-36.547"/>
<polygon fill="#000000" stroke="#000000" points="425.7226,-33.4254 415.4082,-31.0035 421.961,-39.3288 425.7226,-33.4254"/>
</g>
<!-- 2914&#45;&gt;2497 -->
<g id="edge8" class="edge">
<title>2914&#45;&gt;2497</title>
<path fill="none" stroke="#000000" d="M498.8013,-72.5708C494.3203,-64.0807 488.8379,-53.6929 483.8634,-44.2674"/>
<polygon fill="#000000" stroke="#000000" points="486.877,-42.4789 479.114,-35.2687 480.6863,-45.7462 486.877,-42.4789"/>
</g>
<!-- 3257 -->
<g id="node11" class="node">
<title>3257</title>
<ellipse fill="none" stroke="#000000" cx="545" cy="-18" rx="28.6953" ry="18"/>
<text text-anchor="middle" x="545" y="-14.3" font-family="Times,serif" font-size="14.00" fill="#000000">3257</text>
</g>
<!-- 2914&#45;&gt;3257 -->
<g id="edge9" class="edge">
<title>2914&#45;&gt;3257</title>
<path fill="none" stroke="#000000" d="M516.9567,-72.5708C521.3197,-64.0807 526.6578,-53.6929 531.5015,-44.2674"/>
<polygon fill="#000000" stroke="#000000" points="534.6681,-45.7628 536.1258,-35.2687 528.4421,-42.5633 534.6681,-45.7628"/>
</g>
<!-- 3320 -->
<g id="node12" class="node">
<title>3320</title>
<ellipse fill="none" stroke="#000000" cx="620" cy="-18" rx="28.6953" ry="18"/>
<text text-anchor="middle" x="620" y="-14.3" font-family="Times,serif" font-size="14.00" fill="#000000">3320</text>
</g>
<!-- 2914&#45;&gt;3320 -->
<g id="edge10" class="edge">
<title>2914&#45;&gt;3320</title>
<path fill="none" stroke="#000000" d="M528.0234,-77.1278C545.5929,-65.8332 571.3557,-49.2713 591.1491,-36.547"/>
<polygon fill="#000000" stroke="#000000" points="593.2532,-39.3552 599.7724,-31.0035 589.4679,-33.467 593.2532,-39.3552"/>
</g>
<!-- 3491 -->
<g id="node14" class="node">
<title>3491</title>
<ellipse fill="none" stroke="#000000" cx="695" cy="-18" rx="28.6953" ry="18"/>
<text text-anchor="middle" x="695" y="-14.3" font-family="Times,serif" font-size="14.00" fill="#000000">3491</text>
</g>
<!-- 2914&#45;&gt;3491 -->
<g id="edge11" class="edge">
<title>2914&#45;&gt;3491</title>
<path fill="none" stroke="#000000" d="M533.532,-81.7394C563.6408,-71.785 615.0293,-54.1255 658,-36 659.629,-35.3129 661.2889,-34.5904 662.9584,-33.8457"/>
<polygon fill="#000000" stroke="#000000" points="664.8785,-36.8134 672.4784,-29.4315 661.9339,-30.4629 664.8785,-36.8134"/>
</g>
<!-- 6453 -->
<g id="node19" class="node">
<title>6453</title>
<ellipse fill="none" stroke="#000000" cx="770" cy="-18" rx="28.6953" ry="18"/>
<text text-anchor="middle" x="770" y="-14.3" font-family="Times,serif" font-size="14.00" fill="#000000">6453</text>
</g>
<!-- 2914&#45;&gt;6453 -->
<g id="edge12" class="edge">
<title>2914&#45;&gt;6453</title>
<path fill="none" stroke="#000000" d="M535.9244,-85.3193C579.0228,-77.6477 663.9858,-60.7365 733,-36 734.8661,-35.3312 736.7623,-34.5958 738.6603,-33.8162"/>
<polygon fill="#000000" stroke="#000000" points="740.3147,-36.9112 748.0328,-29.653 737.473,-30.5139 740.3147,-36.9112"/>
</g>
<!-- 6461 -->
<g id="node20" class="node">
<title>6461</title>
<ellipse fill="none" stroke="#000000" cx="845" cy="-18" rx="28.6953" ry="18"/>
<text text-anchor="middle" x="845" y="-14.3" font-family="Times,serif" font-size="14.00" fill="#000000">6461</text>
</g>
<!-- 2914&#45;&gt;6461 -->
<g id="edge13" class="edge">
<title>2914&#45;&gt;6461</title>
<path fill="none" stroke="#000000" d="M536.3416,-87.5143C590.3255,-82.2118 711.1545,-67.6037 808,-36 809.8845,-35.385 811.7952,-34.6919 813.7043,-33.9447"/>
<polygon fill="#000000" stroke="#000000" points="815.323,-37.0579 823.1074,-29.8708 812.5401,-30.6348 815.323,-37.0579"/>
</g>
<!-- 7018 -->
<g id="node24" class="node">
<title>7018</title>
<ellipse fill="none" stroke="#000000" cx="920" cy="-18" rx="28.6953" ry="18"/>
<text text-anchor="middle" x="920" y="-14.3" font-family="Times,serif" font-size="14.00" fill="#000000">7018</text>
</g>
<!-- 2914&#45;&gt;7018 -->
<g id="edge14" class="edge">
<title>2914&#45;&gt;7018</title>
<path fill="none" stroke="#000000" d="M536.884,-88.8748C600.68,-85.7386 757.8715,-74.4187 883,-36 884.895,-35.4182 886.8139,-34.751 888.7293,-34.0238"/>
<polygon fill="#000000" stroke="#000000" points="890.3253,-37.1482 898.1498,-30.0048 887.5784,-30.7096 890.3253,-37.1482"/>
</g>
<!-- 3356 -->
<g id="node13" class="node">
<title>3356</title>
<ellipse fill="none" stroke="#000000" cx="789" cy="-306" rx="28.6953" ry="18"/>
<text text-anchor="middle" x="789" y="-302.3" font-family="Times,serif" font-size="14.00" fill="#000000">3356</text>
</g>
<!-- 3549 -->
<g id="node15" class="node">
<title>3549</title>
<ellipse fill="none" stroke="#000000" cx="789" cy="-234" rx="28.6953" ry="18"/>
<text text-anchor="middle" x="789" y="-230.3" font-family="Times,serif" font-size="14.00" fill="#000000">3549</text>
</g>
<!-- 3356&#45;&gt;3549 -->
<g id="edge15" class="edge">
<title>3356&#45;&gt;3549</title>
<path fill="none" stroke="#000000" d="M789,-287.8314C789,-280.131 789,-270.9743 789,-262.4166"/>
<polygon fill="#000000" stroke="#000000" points="792.5001,-262.4132 789,-252.4133 785.5001,-262.4133 792.5001,-262.4132"/>
</g>
<!-- 6762 -->
<g id="node21" class="node">
<title>6762</title>
<ellipse fill="none" stroke="#000000" cx="750" cy="-162" rx="28.6953" ry="18"/>
<text text-anchor="middle" x="750" y="-158.3" font-family="Times,serif" font-size="14.00" fill="#000000">6762</text>
</g>
<!-- 3549&#45;&gt;6762 -->
<g id="edge16" class="edge">
<title>3549&#45;&gt;6762</title>
<path fill="none" stroke="#000000" d="M779.7575,-216.937C775.1624,-208.4537 769.505,-198.0092 764.3612,-188.513"/>
<polygon fill="#000000" stroke="#000000" points="767.2874,-186.5666 759.447,-179.4407 761.1324,-189.9006 767.2874,-186.5666"/>
</g>
<!-- 30070 -->
<g id="node33" class="node">
<title>30070</title>
<ellipse fill="none" stroke="#000000" cx="1070" cy="-162" rx="32.4942" ry="18"/>
<text text-anchor="middle" x="1070" y="-158.3" font-family="Times,serif" font-size="14.00" fill="#000000">30070</text>
</g>
<!-- 3549&#45;&gt;30070 -->
<g id="edge17" class="edge">
<title>3549&#45;&gt;30070</title>
<path fill="none" stroke="#000000" d="M815.6891,-227.1615C865.3162,-214.4457 972.0229,-187.1044 1030.1969,-172.1987"/>
<polygon fill="#000000" stroke="#000000" points="1031.3094,-175.5268 1040.1277,-169.6541 1029.5719,-168.7458 1031.3094,-175.5268"/>
</g>
<!-- 3597 -->
<g id="node16" class="node">
<title>3597</title>
<ellipse fill="none" stroke="#000000" cx="751" cy="-450" rx="28.6953" ry="18"/>
<text text-anchor="middle" x="751" y="-446.3" font-family="Times,serif" font-size="14.00" fill="#000000">3597</text>
</g>
<!-- 5692 -->
<g id="node18" class="node">
<title>5692</title>
<ellipse fill="none" stroke="#000000" cx="1245" cy="-522" rx="28.6953" ry="18"/>
<text text-anchor="middle" x="1245" y="-518.3" font-family="Times,serif" font-size="14.00" fill="#000000">5692</text>
</g>
<!-- 5692&#45;&gt;3597 -->
<g id="edge18" class="edge">
<title>5692&#45;&gt;3597</title>
<path fill="none" stroke="#000000" d="M1216.4155,-519.8332C1129.6364,-513.0637 870.2092,-491.3629 789,-468 786.834,-467.3769 784.6377,-466.6422 782.45,-465.832"/>
<polygon fill="#000000" stroke="#000000" points="783.6104,-462.5239 773.0335,-461.9077 780.9176,-468.9852 783.6104,-462.5239"/>
</g>
<!-- 10834 -->
<g id="node26" class="node">
<title>10834</title>
<ellipse fill="none" stroke="#000000" cx="830" cy="-450" rx="32.4942" ry="18"/>
<text text-anchor="middle" x="830" y="-446.3" font-family="Times,serif" font-size="14.00" fill="#000000">10834</text>
</g>
<!-- 5692&#45;&gt;10834 -->
<g id="edge19" class="edge">
<title>5692&#45;&gt;10834</title>
<path fill="none" stroke="#000000" d="M1216.4009,-520.4071C1153.206,-516.3384 997.3407,-503.2744 872,-468 869.5277,-467.3042 867.009,-466.4966 864.4952,-465.6164"/>
<polygon fill="#000000" stroke="#000000" points="865.5223,-462.2617 854.9321,-461.946 863.0139,-468.7969 865.5223,-462.2617"/>
</g>
<!-- 11008 -->
<g id="node27" class="node">
<title>11008</title>
<ellipse fill="none" stroke="#000000" cx="913" cy="-450" rx="32.4942" ry="18"/>
<text text-anchor="middle" x="913" y="-446.3" font-family="Times,serif" font-size="14.00" fill="#000000">11008</text>
</g>
<!-- 5692&#45;&gt;11008 -->
<g id="edge20" class="edge">
<title>5692&#45;&gt;11008</title>
<path fill="none" stroke="#000000" d="M1216.5102,-518.8151C1163.964,-512.4771 1048.605,-496.3918 955,-468 952.5422,-467.2545 950.0344,-466.4097 947.5284,-465.5026"/>
<polygon fill="#000000" stroke="#000000" points="948.5706,-462.1522 937.9825,-461.7737 946.0236,-468.6724 948.5706,-462.1522"/>
</g>
<!-- 27865 -->
<g id="node31" class="node">
<title>27865</title>
<ellipse fill="none" stroke="#000000" cx="996" cy="-450" rx="32.4942" ry="18"/>
<text text-anchor="middle" x="996" y="-446.3" font-family="Times,serif" font-size="14.00" fill="#000000">27865</text>
</g>
<!-- 5692&#45;&gt;27865 -->
<g id="edge21" class="edge">
<title>5692&#45;&gt;27865</title>
<path fill="none" stroke="#000000" d="M1217.8227,-516.2764C1177.889,-507.5606 1101.2444,-489.6654 1038,-468 1035.5703,-467.1677 1033.0834,-466.258 1030.5926,-465.3038"/>
<polygon fill="#000000" stroke="#000000" points="1031.6632,-461.9618 1021.0797,-461.4727 1029.0482,-468.455 1031.6632,-461.9618"/>
</g>
<!-- 28065 -->
<g id="node32" class="node">
<title>28065</title>
<ellipse fill="none" stroke="#000000" cx="1079" cy="-450" rx="32.4942" ry="18"/>
<text text-anchor="middle" x="1079" y="-446.3" font-family="Times,serif" font-size="14.00" fill="#000000">28065</text>
</g>
<!-- 5692&#45;&gt;28065 -->
<g id="edge22" class="edge">
<title>5692&#45;&gt;28065</title>
<path fill="none" stroke="#000000" d="M1221.2162,-511.6842C1193.1868,-499.5268 1146.3574,-479.2153 1114.141,-465.2419"/>
<polygon fill="#000000" stroke="#000000" points="1115.2158,-461.8931 1104.6489,-461.1248 1112.4304,-468.315 1115.2158,-461.8931"/>
</g>
<!-- 52317 -->
<g id="node34" class="node">
<title>52317</title>
<ellipse fill="none" stroke="#000000" cx="1162" cy="-450" rx="32.4942" ry="18"/>
<text text-anchor="middle" x="1162" y="-446.3" font-family="Times,serif" font-size="14.00" fill="#000000">52317</text>
</g>
<!-- 5692&#45;&gt;52317 -->
<g id="edge23" class="edge">
<title>5692&#45;&gt;52317</title>
<path fill="none" stroke="#000000" d="M1228.2037,-507.4297C1216.514,-497.2892 1200.7126,-483.5821 1187.479,-472.1023"/>
<polygon fill="#000000" stroke="#000000" points="1189.4781,-469.2031 1179.6307,-465.2941 1184.8912,-474.4908 1189.4781,-469.2031"/>
</g>
<!-- 52375 -->
<g id="node35" class="node">
<title>52375</title>
<ellipse fill="none" stroke="#000000" cx="1245" cy="-450" rx="32.4942" ry="18"/>
<text text-anchor="middle" x="1245" y="-446.3" font-family="Times,serif" font-size="14.00" fill="#000000">52375</text>
</g>
<!-- 5692&#45;&gt;52375 -->
<g id="edge24" class="edge">
<title>5692&#45;&gt;52375</title>
<path fill="none" stroke="#000000" d="M1245,-503.8314C1245,-496.131 1245,-486.9743 1245,-478.4166"/>
<polygon fill="#000000" stroke="#000000" points="1248.5001,-478.4132 1245,-468.4133 1241.5001,-478.4133 1248.5001,-478.4132"/>
</g>
<!-- 52376 -->
<g id="node36" class="node">
<title>52376</title>
<ellipse fill="none" stroke="#000000" cx="1328" cy="-450" rx="32.4942" ry="18"/>
<text text-anchor="middle" x="1328" y="-446.3" font-family="Times,serif" font-size="14.00" fill="#000000">52376</text>
</g>
<!-- 5692&#45;&gt;52376 -->
<g id="edge25" class="edge">
<title>5692&#45;&gt;52376</title>
<path fill="none" stroke="#000000" d="M1261.7963,-507.4297C1273.486,-497.2892 1289.2874,-483.5821 1302.521,-472.1023"/>
<polygon fill="#000000" stroke="#000000" points="1305.1088,-474.4908 1310.3693,-465.2941 1300.5219,-469.2031 1305.1088,-474.4908"/>
</g>
<!-- 52380 -->
<g id="node37" class="node">
<title>52380</title>
<ellipse fill="none" stroke="#000000" cx="1411" cy="-450" rx="32.4942" ry="18"/>
<text text-anchor="middle" x="1411" y="-446.3" font-family="Times,serif" font-size="14.00" fill="#000000">52380</text>
</g>
<!-- 5692&#45;&gt;52380 -->
<g id="edge26" class="edge">
<title>5692&#45;&gt;52380</title>
<path fill="none" stroke="#000000" d="M1268.7838,-511.6842C1296.8132,-499.5268 1343.6426,-479.2153 1375.859,-465.2419"/>
<polygon fill="#000000" stroke="#000000" points="1377.5696,-468.315 1385.3511,-461.1248 1374.7842,-461.8931 1377.5696,-468.315"/>
</g>
<!-- 52413 -->
<g id="node38" class="node">
<title>52413</title>
<ellipse fill="none" stroke="#000000" cx="1494" cy="-450" rx="32.4942" ry="18"/>
<text text-anchor="middle" x="1494" y="-446.3" font-family="Times,serif" font-size="14.00" fill="#000000">52413</text>
</g>
<!-- 5692&#45;&gt;52413 -->
<g id="edge27" class="edge">
<title>5692&#45;&gt;52413</title>
<path fill="none" stroke="#000000" d="M1272.1773,-516.2764C1312.111,-507.5606 1388.7556,-489.6654 1452,-468 1454.4297,-467.1677 1456.9166,-466.258 1459.4074,-465.3038"/>
<polygon fill="#000000" stroke="#000000" points="1460.9518,-468.455 1468.9203,-461.4727 1458.3368,-461.9618 1460.9518,-468.455"/>
</g>
<!-- 52431 -->
<g id="node39" class="node">
<title>52431</title>
<ellipse fill="none" stroke="#000000" cx="1577" cy="-450" rx="32.4942" ry="18"/>
<text text-anchor="middle" x="1577" y="-446.3" font-family="Times,serif" font-size="14.00" fill="#000000">52431</text>
</g>
<!-- 5692&#45;&gt;52431 -->
<g id="edge28" class="edge">
<title>5692&#45;&gt;52431</title>
<path fill="none" stroke="#000000" d="M1273.4898,-518.8151C1326.036,-512.4771 1441.395,-496.3918 1535,-468 1537.4578,-467.2545 1539.9656,-466.4097 1542.4716,-465.5026"/>
<polygon fill="#000000" stroke="#000000" points="1543.9764,-468.6724 1552.0175,-461.7737 1541.4294,-462.1522 1543.9764,-468.6724"/>
</g>
<!-- 262230 -->
<g id="node40" class="node">
<title>262230</title>
<ellipse fill="none" stroke="#000000" cx="1665" cy="-450" rx="37.0935" ry="18"/>
<text text-anchor="middle" x="1665" y="-446.3" font-family="Times,serif" font-size="14.00" fill="#000000">262230</text>
</g>
<!-- 5692&#45;&gt;262230 -->
<g id="edge29" class="edge">
<title>5692&#45;&gt;262230</title>
<path fill="none" stroke="#000000" d="M1273.5,-520.0413C1336.4973,-515.243 1491.9929,-500.8146 1618,-468 1621.1286,-467.1853 1624.3346,-466.23 1627.5303,-465.1919"/>
<polygon fill="#000000" stroke="#000000" points="1628.7111,-468.4869 1636.9989,-461.8866 1626.404,-461.878 1628.7111,-468.4869"/>
</g>
<!-- 264608 -->
<g id="node41" class="node">
<title>264608</title>
<ellipse fill="none" stroke="#000000" cx="1757" cy="-450" rx="37.0935" ry="18"/>
<text text-anchor="middle" x="1757" y="-446.3" font-family="Times,serif" font-size="14.00" fill="#000000">264608</text>
</g>
<!-- 5692&#45;&gt;264608 -->
<g id="edge30" class="edge">
<title>5692&#45;&gt;264608</title>
<path fill="none" stroke="#000000" d="M1273.8256,-521.2303C1347.6272,-518.71 1548.9921,-508.3639 1711,-468 1713.8085,-467.3003 1716.6759,-466.4722 1719.538,-465.5618"/>
<polygon fill="#000000" stroke="#000000" points="1720.8601,-468.8076 1729.1547,-462.216 1718.5599,-462.1963 1720.8601,-468.8076"/>
</g>
<!-- 6762&#45;&gt;2914 -->
<g id="edge31" class="edge">
<title>6762&#45;&gt;2914</title>
<path fill="none" stroke="#000000" d="M724.1018,-154.2947C680.6398,-141.3639 592.9555,-115.276 543.6867,-100.6175"/>
<polygon fill="#000000" stroke="#000000" points="544.6607,-97.2558 534.0778,-97.7587 542.6645,-103.9651 544.6607,-97.2558"/>
</g>
<!-- 6904 -->
<g id="node22" class="node">
<title>6904</title>
<ellipse fill="none" stroke="#000000" cx="1070" cy="-90" rx="28.6953" ry="18"/>
<text text-anchor="middle" x="1070" y="-86.3" font-family="Times,serif" font-size="14.00" fill="#000000">6904</text>
</g>
<!-- 6904&#45;&gt;2687 -->
<g id="edge32" class="edge">
<title>6904&#45;&gt;2687</title>
<path fill="none" stroke="#000000" d="M1070,-71.8314C1070,-64.131 1070,-54.9743 1070,-46.4166"/>
<polygon fill="#000000" stroke="#000000" points="1073.5001,-46.4132 1070,-36.4133 1066.5001,-46.4133 1073.5001,-46.4132"/>
</g>
<!-- 7016 -->
<g id="node23" class="node">
<title>7016</title>
<ellipse fill="none" stroke="#000000" cx="1145" cy="-90" rx="28.6953" ry="18"/>
<text text-anchor="middle" x="1145" y="-86.3" font-family="Times,serif" font-size="14.00" fill="#000000">7016</text>
</g>
<!-- 7922 -->
<g id="node25" class="node">
<title>7922</title>
<ellipse fill="none" stroke="#000000" cx="1145" cy="-18" rx="28.6953" ry="18"/>
<text text-anchor="middle" x="1145" y="-14.3" font-family="Times,serif" font-size="14.00" fill="#000000">7922</text>
</g>
<!-- 7016&#45;&gt;7922 -->
<g id="edge33" class="edge">
<title>7016&#45;&gt;7922</title>
<path fill="none" stroke="#000000" d="M1145,-71.8314C1145,-64.131 1145,-54.9743 1145,-46.4166"/>
<polygon fill="#000000" stroke="#000000" points="1148.5001,-46.4132 1145,-36.4133 1141.5001,-46.4133 1148.5001,-46.4132"/>
</g>
<!-- 12956 -->
<g id="node28" class="node">
<title>12956</title>
<ellipse fill="none" stroke="#000000" cx="789" cy="-378" rx="32.4942" ry="18"/>
<text text-anchor="middle" x="789" y="-374.3" font-family="Times,serif" font-size="14.00" fill="#000000">12956</text>
</g>
<!-- 10834&#45;&gt;12956 -->
<g id="edge34" class="edge">
<title>10834&#45;&gt;12956</title>
<path fill="none" stroke="#000000" d="M820.075,-432.5708C815.19,-423.9922 809.2017,-413.4762 803.7903,-403.9732"/>
<polygon fill="#000000" stroke="#000000" points="806.8234,-402.2266 798.8336,-395.2687 800.7405,-405.6905 806.8234,-402.2266"/>
</g>
<!-- 22927 -->
<g id="node30" class="node">
<title>22927</title>
<ellipse fill="none" stroke="#000000" cx="872" cy="-378" rx="32.4942" ry="18"/>
<text text-anchor="middle" x="872" y="-374.3" font-family="Times,serif" font-size="14.00" fill="#000000">22927</text>
</g>
<!-- 10834&#45;&gt;22927 -->
<g id="edge35" class="edge">
<title>10834&#45;&gt;22927</title>
<path fill="none" stroke="#000000" d="M840.167,-432.5708C845.1712,-423.9922 851.3055,-413.4762 856.849,-403.9732"/>
<polygon fill="#000000" stroke="#000000" points="859.9111,-405.6701 861.9266,-395.2687 853.8646,-402.1429 859.9111,-405.6701"/>
</g>
<!-- 12956&#45;&gt;3356 -->
<g id="edge36" class="edge">
<title>12956&#45;&gt;3356</title>
<path fill="none" stroke="#000000" d="M789,-359.8314C789,-352.131 789,-342.9743 789,-334.4166"/>
<polygon fill="#000000" stroke="#000000" points="792.5001,-334.4132 789,-324.4133 785.5001,-334.4133 792.5001,-334.4132"/>
</g>
<!-- 18540 -->
<g id="node29" class="node">
<title>18540</title>
<ellipse fill="none" stroke="#000000" cx="1224" cy="-90" rx="32.4942" ry="18"/>
<text text-anchor="middle" x="1224" y="-86.3" font-family="Times,serif" font-size="14.00" fill="#000000">18540</text>
</g>
<!-- 30070&#45;&gt;2828 -->
<g id="edge37" class="edge">
<title>30070&#45;&gt;2828</title>
<path fill="none" stroke="#000000" d="M1053.7261,-146.3771C1043.2652,-136.3346 1029.5184,-123.1377 1017.9551,-112.0369"/>
<polygon fill="#000000" stroke="#000000" points="1020.3659,-109.4995 1010.7282,-105.099 1015.5182,-114.5493 1020.3659,-109.4995"/>
</g>
<!-- 30070&#45;&gt;6904 -->
<g id="edge38" class="edge">
<title>30070&#45;&gt;6904</title>
<path fill="none" stroke="#000000" d="M1070,-143.8314C1070,-136.131 1070,-126.9743 1070,-118.4166"/>
<polygon fill="#000000" stroke="#000000" points="1073.5001,-118.4132 1070,-108.4133 1066.5001,-118.4133 1073.5001,-118.4132"/>
</g>
<!-- 30070&#45;&gt;7016 -->
<g id="edge39" class="edge">
<title>30070&#45;&gt;7016</title>
<path fill="none" stroke="#000000" d="M1086.2739,-146.3771C1096.7348,-136.3346 1110.4816,-123.1377 1122.0449,-112.0369"/>
<polygon fill="#000000" stroke="#000000" points="1124.4818,-114.5493 1129.2718,-105.099 1119.6341,-109.4995 1124.4818,-114.5493"/>
</g>
<!-- 30070&#45;&gt;18540 -->
<g id="edge40" class="edge">
<title>30070&#45;&gt;18540</title>
<path fill="none" stroke="#000000" d="M1095.0855,-150.2717C1120.8143,-138.2427 1161.018,-119.4461 1189.6837,-106.044"/>
<polygon fill="#000000" stroke="#000000" points="1191.3488,-109.1292 1198.9252,-101.7233 1188.384,-102.788 1191.3488,-109.1292"/>
</g>
</g>
</svg>
