<?xml version="1.0" encoding="UTF-8" standalone="no"?>
<!DOCTYPE svg PUBLIC "-//W3C//DTD SVG 1.1//EN"
 "http://www.w3.org/Graphics/SVG/1.1/DTD/svg11.dtd">
<!-- Generated by graphviz version 2.40.1 (20161225.0304)
 -->
<!-- Title: %3 Pages: 1 -->
<svg width="5873pt" height="4171pt"
 viewBox="0.00 0.00 5873.13 4171.03" xmlns="http://www.w3.org/2000/svg" xmlns:xlink="http://www.w3.org/1999/xlink">
<g id="graph0" class="graph" transform="scale(1 1) rotate(0) translate(4 4167.0253)">
<title>%3</title>
<polygon fill="#ffffff" stroke="transparent" points="-4,4 -4,-4167.0253 5869.1317,-4167.0253 5869.1317,4 -4,4"/>
<!-- 174 -->
<g id="node1" class="node">
<title>174</title>
<ellipse fill="none" stroke="#000000" cx="27" cy="-1953.6657" rx="27" ry="18"/>
<text text-anchor="middle" x="27" y="-1949.9657" font-family="Times,serif" font-size="14.00" fill="#000000">174</text>
</g>
<!-- 209 -->
<g id="node2" class="node">
<title>209</title>
<ellipse fill="none" stroke="#000000" cx="2347.8749" cy="-799.4613" rx="27" ry="18"/>
<text text-anchor="middle" x="2347.8749" y="-795.7613" font-family="Times,serif" font-size="14.00" fill="#000000">209</text>
</g>
<!-- 701 -->
<g id="node3" class="node">
<title>701</title>
<ellipse fill="none" stroke="#000000" cx="2819.51" cy="-346.39" rx="27" ry="18"/>
<text text-anchor="middle" x="2819.51" y="-342.69" font-family="Times,serif" font-size="14.00" fill="#000000">701</text>
</g>
<!-- 1239 -->
<g id="node4" class="node">
<title>1239</title>
<ellipse fill="none" stroke="#000000" cx="3416.3294" cy="-75.1302" rx="28.6953" ry="18"/>
<text text-anchor="middle" x="3416.3294" y="-71.4302" font-family="Times,serif" font-size="14.00" fill="#000000">1239</text>
</g>
<!-- 1273 -->
<g id="node5" class="node">
<title>1273</title>
<ellipse fill="none" stroke="#000000" cx="4070.9883" cy="-18" rx="28.6953" ry="18"/>
<text text-anchor="middle" x="4070.9883" y="-14.3" font-family="Times,serif" font-size="14.00" fill="#000000">1273</text>
</g>
<!-- 1299 -->
<g id="node6" class="node">
<title>1299</title>
<ellipse fill="none" stroke="#000000" cx="4707.2295" cy="-182.4363" rx="28.6953" ry="18"/>
<text text-anchor="middle" x="4707.2295" y="-178.7363" font-family="Times,serif" font-size="14.00" fill="#000000">1299</text>
</g>
<!-- 2497 -->
<g id="node7" class="node">
<title>2497</title>
<ellipse fill="none" stroke="#000000" cx="5252.2255" cy="-549.6169" rx="28.6953" ry="18"/>
<text text-anchor="middle" x="5252.2255" y="-545.9169" font-family="Times,serif" font-size="14.00" fill="#000000">2497</text>
</g>
<!-- 2687 -->
<g id="node8" class="node">
<title>2687</title>
<ellipse fill="none" stroke="#000000" cx="3109.4576" cy="-3960.1183" rx="28.6953" ry="18"/>
<text text-anchor="middle" x="3109.4576" y="-3956.4183" font-family="Times,serif" font-size="14.00" fill="#000000">2687</text>
</g>
<!-- 2828 -->
<g id="node9" class="node">
<title>2828</title>
<ellipse fill="none" stroke="#000000" cx="2863.4469" cy="-3768.6375" rx="28.6953" ry="18"/>
<text text-anchor="middle" x="2863.4469" y="-3764.9375" font-family="Times,serif" font-size="14.00" fill="#000000">2828</text>
</g>
<!-- 5511 -->
<g id="node17" class="node">
<title>5511</title>
<ellipse fill="none" stroke="#000000" cx="2872.7832" cy="-3639.7803" rx="28.6953" ry="18"/>
<text text-anchor="middle" x="2872.7832" y="-3636.0803" font-family="Times,serif" font-size="14.00" fill="#000000">5511</text>
</g>
<!-- 2828&#45;&gt;5511 -->
<g id="edge1" class="edge">
<title>2828&#45;&gt;5511</title>
<path fill="none" stroke="#000000" d="M2864.7648,-3750.4487C2866.3217,-3728.96 2868.9296,-3692.967 2870.7469,-3667.8843"/>
<polygon fill="#000000" stroke="#000000" points="2874.2401,-3668.1034 2871.472,-3657.8766 2867.2584,-3667.5975 2874.2401,-3668.1034"/>
</g>
<!-- 2914 -->
<g id="node10" class="node">
<title>2914</title>
<ellipse fill="none" stroke="#000000" cx="3910.086" cy="-1953.6657" rx="28.6953" ry="18"/>
<text text-anchor="middle" x="3910.086" y="-1949.9657" font-family="Times,serif" font-size="14.00" fill="#000000">2914</text>
</g>
<!-- 2914&#45;&gt;174 -->
<g id="edge2" class="edge">
<title>2914&#45;&gt;174</title>
<path fill="none" stroke="#000000" d="M3881.3362,-1953.6657C3549.0306,-1953.6657 440.942,-1953.6657 64.3103,-1953.6657"/>
<polygon fill="#000000" stroke="#000000" points="64.2107,-1950.1658 54.2107,-1953.6657 64.2107,-1957.1658 64.2107,-1950.1658"/>
</g>
<!-- 2914&#45;&gt;209 -->
<g id="edge3" class="edge">
<title>2914&#45;&gt;209</title>
<path fill="none" stroke="#000000" d="M3891.4533,-1939.8994C3729.6466,-1820.3521 2564.0574,-959.1829 2374.0338,-818.7882"/>
<polygon fill="#000000" stroke="#000000" points="2376.0934,-815.9583 2365.9707,-812.831 2371.9338,-821.5884 2376.0934,-815.9583"/>
</g>
<!-- 2914&#45;&gt;701 -->
<g id="edge4" class="edge">
<title>2914&#45;&gt;701</title>
<path fill="none" stroke="#000000" d="M3898.7573,-1936.9696C3792.1157,-1779.8028 2965.6775,-561.8097 2836.4742,-371.3916"/>
<polygon fill="#000000" stroke="#000000" points="2839.2045,-369.1819 2830.6935,-362.8721 2833.412,-373.1122 2839.2045,-369.1819"/>
</g>
<!-- 2914&#45;&gt;1239 -->
<g id="edge5" class="edge">
<title>2914&#45;&gt;1239</title>
<path fill="none" stroke="#000000" d="M3905.3575,-1935.6756C3858.676,-1758.0725 3480.8751,-320.6994 3423.5955,-102.7748"/>
<polygon fill="#000000" stroke="#000000" points="3426.9692,-101.8417 3421.0421,-93.06 3420.1992,-103.6212 3426.9692,-101.8417"/>
</g>
<!-- 2914&#45;&gt;1273 -->
<g id="edge6" class="edge">
<title>2914&#45;&gt;1273</title>
<path fill="none" stroke="#000000" d="M3911.6014,-1935.4352C3926.7007,-1753.7893 4049.9394,-271.2204 4068.6194,-46.4983"/>
<polygon fill="#000000" stroke="#000000" points="4072.1345,-46.4605 4069.475,-36.2049 4065.1586,-45.8806 4072.1345,-46.4605"/>
</g>
<!-- 2914&#45;&gt;1299 -->
<g id="edge7" class="edge">
<title>2914&#45;&gt;1299</title>
<path fill="none" stroke="#000000" d="M3917.9756,-1936.1353C3994.3793,-1766.3685 4601.9661,-416.3287 4695.2328,-209.0928"/>
<polygon fill="#000000" stroke="#000000" points="4698.4843,-210.3962 4699.3967,-199.8407 4692.1009,-207.5233 4698.4843,-210.3962"/>
</g>
<!-- 2914&#45;&gt;2497 -->
<g id="edge8" class="edge">
<title>2914&#45;&gt;2497</title>
<path fill="none" stroke="#000000" d="M3925.1589,-1937.8976C4060.6681,-1796.1378 5067.9138,-742.4304 5230.1859,-572.6731"/>
<polygon fill="#000000" stroke="#000000" points="5232.8877,-574.9119 5237.2676,-565.2648 5227.8276,-570.075 5232.8877,-574.9119"/>
</g>
<!-- 3257 -->
<g id="node11" class="node">
<title>3257</title>
<ellipse fill="none" stroke="#000000" cx="5643.5931" cy="-1077.5124" rx="28.6953" ry="18"/>
<text text-anchor="middle" x="5643.5931" y="-1073.8124" font-family="Times,serif" font-size="14.00" fill="#000000">3257</text>
</g>
<!-- 2914&#45;&gt;3257 -->
<g id="edge9" class="edge">
<title>2914&#45;&gt;3257</title>
<path fill="none" stroke="#000000" d="M3932.638,-1942.2675C4118.3869,-1848.3858 5394.3102,-1203.5055 5612.031,-1093.4646"/>
<polygon fill="#000000" stroke="#000000" points="5613.6864,-1096.5496 5621.0324,-1088.915 5610.5287,-1090.3022 5613.6864,-1096.5496"/>
</g>
<!-- 3320 -->
<g id="node12" class="node">
<title>3320</title>
<ellipse fill="none" stroke="#000000" cx="5836.5343" cy="-1705.697" rx="28.6953" ry="18"/>
<text text-anchor="middle" x="5836.5343" y="-1701.997" font-family="Times,serif" font-size="14.00" fill="#000000">3320</text>
</g>
<!-- 2914&#45;&gt;3320 -->
<g id="edge10" class="edge">
<title>2914&#45;&gt;3320</title>
<path fill="none" stroke="#000000" d="M3938.4363,-1950.0165C4155.2154,-1922.1132 5548.6185,-1742.7569 5798.2692,-1710.6224"/>
<polygon fill="#000000" stroke="#000000" points="5798.8407,-1714.0778 5808.312,-1709.3297 5797.9469,-1707.1351 5798.8407,-1714.0778"/>
</g>
<!-- 3491 -->
<g id="node14" class="node">
<title>3491</title>
<ellipse fill="none" stroke="#000000" cx="5808.964" cy="-2362.2654" rx="28.6953" ry="18"/>
<text text-anchor="middle" x="5808.964" y="-2358.5654" font-family="Times,serif" font-size="14.00" fill="#000000">3491</text>
</g>
<!-- 2914&#45;&gt;3491 -->
<g id="edge11" class="edge">
<title>2914&#45;&gt;3491</title>
<path fill="none" stroke="#000000" d="M3937.294,-1959.5203C4148.7307,-2005.0172 5527.5111,-2301.7025 5771.9485,-2354.3004"/>
<polygon fill="#000000" stroke="#000000" points="5771.26,-2357.7323 5781.7725,-2356.4143 5772.7326,-2350.8889 5771.26,-2357.7323"/>
</g>
<!-- 6453 -->
<g id="node19" class="node">
<title>6453</title>
<ellipse fill="none" stroke="#000000" cx="5564.0382" cy="-2972.0633" rx="28.6953" ry="18"/>
<text text-anchor="middle" x="5564.0382" y="-2968.3633" font-family="Times,serif" font-size="14.00" fill="#000000">6453</text>
</g>
<!-- 2914&#45;&gt;6453 -->
<g id="edge12" class="edge">
<title>2914&#45;&gt;6453</title>
<path fill="none" stroke="#000000" d="M3930.6987,-1966.3577C4104.8953,-2073.6168 5329.4096,-2827.5941 5534.8303,-2954.0789"/>
<polygon fill="#000000" stroke="#000000" points="5533.2217,-2957.1987 5543.5721,-2959.4616 5536.892,-2951.2381 5533.2217,-2957.1987"/>
</g>
<!-- 6461 -->
<g id="node20" class="node">
<title>6461</title>
<ellipse fill="none" stroke="#000000" cx="5129.7923" cy="-3465.2901" rx="28.6953" ry="18"/>
<text text-anchor="middle" x="5129.7923" y="-3461.5901" font-family="Times,serif" font-size="14.00" fill="#000000">6461</text>
</g>
<!-- 2914&#45;&gt;6461 -->
<g id="edge13" class="edge">
<title>2914&#45;&gt;6461</title>
<path fill="none" stroke="#000000" d="M3923.1626,-1969.8721C4043.9264,-2119.5387 4963.7121,-3259.4612 5110.1639,-3440.9639"/>
<polygon fill="#000000" stroke="#000000" points="5107.5435,-3443.29 5116.5469,-3448.8747 5112.9912,-3438.8943 5107.5435,-3443.29"/>
</g>
<!-- 7018 -->
<g id="node24" class="node">
<title>7018</title>
<ellipse fill="none" stroke="#000000" cx="4555.9323" cy="-3785.4883" rx="28.6953" ry="18"/>
<text text-anchor="middle" x="4555.9323" y="-3781.7883" font-family="Times,serif" font-size="14.00" fill="#000000">7018</text>
</g>
<!-- 2914&#45;&gt;7018 -->
<g id="edge14" class="edge">
<title>2914&#45;&gt;7018</title>
<path fill="none" stroke="#000000" d="M3916.3742,-1971.5011C3977.8564,-2145.8838 4471.0757,-3544.8084 4546.3205,-3758.2262"/>
<polygon fill="#000000" stroke="#000000" points="4543.0513,-3759.4801 4549.6773,-3767.7473 4549.653,-3757.1524 4543.0513,-3759.4801"/>
</g>
<!-- 3356 -->
<g id="node13" class="node">
<title>3356</title>
<ellipse fill="none" stroke="#000000" cx="2219.1477" cy="-3042.3456" rx="28.6953" ry="18"/>
<text text-anchor="middle" x="2219.1477" y="-3038.6456" font-family="Times,serif" font-size="14.00" fill="#000000">3356</text>
</g>
<!-- 3549 -->
<g id="node15" class="node">
<title>3549</title>
<ellipse fill="none" stroke="#000000" cx="2295.9196" cy="-3146.2561" rx="28.6953" ry="18"/>
<text text-anchor="middle" x="2295.9196" y="-3142.5561" font-family="Times,serif" font-size="14.00" fill="#000000">3549</text>
</g>
<!-- 3356&#45;&gt;3549 -->
<g id="edge15" class="edge">
<title>3356&#45;&gt;3549</title>
<path fill="none" stroke="#000000" d="M2231.4824,-3059.0406C2243.9621,-3075.9319 2263.3976,-3102.2377 2277.6619,-3121.5444"/>
<polygon fill="#000000" stroke="#000000" points="2274.8581,-3123.6394 2283.6155,-3129.6025 2280.4882,-3119.4798 2274.8581,-3123.6394"/>
</g>
<!-- 6762 -->
<g id="node21" class="node">
<title>6762</title>
<ellipse fill="none" stroke="#000000" cx="3806.1755" cy="-2030.4377" rx="28.6953" ry="18"/>
<text text-anchor="middle" x="3806.1755" y="-2026.7377" font-family="Times,serif" font-size="14.00" fill="#000000">6762</text>
</g>
<!-- 3549&#45;&gt;6762 -->
<g id="edge16" class="edge">
<title>3549&#45;&gt;6762</title>
<path fill="none" stroke="#000000" d="M2314.47,-3132.5506C2472.4408,-3015.8374 3590.6072,-2189.7055 3779.1981,-2050.3693"/>
<polygon fill="#000000" stroke="#000000" points="3781.5053,-2053.0164 3787.4684,-2044.259 3777.3456,-2047.3863 3781.5053,-2053.0164"/>
</g>
<!-- 30070 -->
<g id="node33" class="node">
<title>30070</title>
<ellipse fill="none" stroke="#000000" cx="2853.8289" cy="-3901.3841" rx="32.4942" ry="18"/>
<text text-anchor="middle" x="2853.8289" y="-3897.6841" font-family="Times,serif" font-size="14.00" fill="#000000">30070</text>
</g>
<!-- 3549&#45;&gt;30070 -->
<g id="edge17" class="edge">
<title>3549&#45;&gt;30070</title>
<path fill="none" stroke="#000000" d="M2308.0912,-3162.7303C2379.9149,-3259.9433 2748.2046,-3758.422 2835.334,-3876.3514"/>
<polygon fill="#000000" stroke="#000000" points="2832.5806,-3878.5146 2841.338,-3884.4777 2838.2107,-3874.355 2832.5806,-3878.5146"/>
</g>
<!-- 3597 -->
<g id="node16" class="node">
<title>3597</title>
<ellipse fill="none" stroke="#000000" cx="1739.5248" cy="-2139.9317" rx="28.6953" ry="18"/>
<text text-anchor="middle" x="1739.5248" y="-2136.2317" font-family="Times,serif" font-size="14.00" fill="#000000">3597</text>
</g>
<!-- 5692 -->
<g id="node18" class="node">
<title>5692</title>
<ellipse fill="none" stroke="#000000" cx="1984.5299" cy="-2043.5126" rx="28.6953" ry="18"/>
<text text-anchor="middle" x="1984.5299" y="-2039.8126" font-family="Times,serif" font-size="14.00" fill="#000000">5692</text>
</g>
<!-- 5692&#45;&gt;3597 -->
<g id="edge18" class="edge">
<title>5692&#45;&gt;3597</title>
<path fill="none" stroke="#000000" d="M1960.1421,-2053.1101C1916.1147,-2070.4366 1823.2918,-2106.9661 1773.2291,-2126.6677"/>
<polygon fill="#000000" stroke="#000000" points="1771.8375,-2123.454 1763.8139,-2130.3729 1774.401,-2129.9677 1771.8375,-2123.454"/>
</g>
<!-- 10834 -->
<g id="node26" class="node">
<title>10834</title>
<ellipse fill="none" stroke="#000000" cx="1658.9212" cy="-2284.0812" rx="32.4942" ry="18"/>
<text text-anchor="middle" x="1658.9212" y="-2280.3812" font-family="Times,serif" font-size="14.00" fill="#000000">10834</text>
</g>
<!-- 5692&#45;&gt;10834 -->
<g id="edge19" class="edge">
<title>5692&#45;&gt;10834</title>
<path fill="none" stroke="#000000" d="M1965.6164,-2057.4864C1910.8002,-2097.9861 1751.6334,-2215.5829 1686.8474,-2263.4485"/>
<polygon fill="#000000" stroke="#000000" points="1684.673,-2260.7034 1678.7099,-2269.4608 1688.8326,-2266.3334 1684.673,-2260.7034"/>
</g>
<!-- 11008 -->
<g id="node27" class="node">
<title>11008</title>
<ellipse fill="none" stroke="#000000" cx="1723.4764" cy="-2009.2312" rx="32.4942" ry="18"/>
<text text-anchor="middle" x="1723.4764" y="-2005.5312" font-family="Times,serif" font-size="14.00" fill="#000000">11008</text>
</g>
<!-- 5692&#45;&gt;11008 -->
<g id="edge20" class="edge">
<title>5692&#45;&gt;11008</title>
<path fill="none" stroke="#000000" d="M1956.3445,-2039.8113C1910.3649,-2033.7733 1818.98,-2021.7727 1765.3788,-2014.7338"/>
<polygon fill="#000000" stroke="#000000" points="1765.5576,-2011.2273 1755.187,-2013.3954 1764.6461,-2018.1677 1765.5576,-2011.2273"/>
</g>
<!-- 27865 -->
<g id="node31" class="node">
<title>27865</title>
<ellipse fill="none" stroke="#000000" cx="1775.0654" cy="-1883.9858" rx="32.4942" ry="18"/>
<text text-anchor="middle" x="1775.0654" y="-1880.2858" font-family="Times,serif" font-size="14.00" fill="#000000">27865</text>
</g>
<!-- 5692&#45;&gt;27865 -->
<g id="edge21" class="edge">
<title>5692&#45;&gt;27865</title>
<path fill="none" stroke="#000000" d="M1966.3077,-2029.6347C1929.449,-2001.5634 1845.866,-1937.9071 1802.4283,-1904.8252"/>
<polygon fill="#000000" stroke="#000000" points="1804.3779,-1901.9106 1794.3017,-1898.6361 1800.1367,-1907.4794 1804.3779,-1901.9106"/>
</g>
<!-- 28065 -->
<g id="node32" class="node">
<title>28065</title>
<ellipse fill="none" stroke="#000000" cx="1882.0928" cy="-1800.962" rx="32.4942" ry="18"/>
<text text-anchor="middle" x="1882.0928" y="-1797.262" font-family="Times,serif" font-size="14.00" fill="#000000">28065</text>
</g>
<!-- 5692&#45;&gt;28065 -->
<g id="edge22" class="edge">
<title>5692&#45;&gt;28065</title>
<path fill="none" stroke="#000000" d="M1977.1628,-2026.0689C1959.4867,-1984.2154 1914.5723,-1877.867 1893.4276,-1827.8005"/>
<polygon fill="#000000" stroke="#000000" points="1896.6456,-1826.4239 1889.5307,-1818.5735 1890.1971,-1829.1473 1896.6456,-1826.4239"/>
</g>
<!-- 52317 -->
<g id="node34" class="node">
<title>52317</title>
<ellipse fill="none" stroke="#000000" cx="2016.232" cy="-1782.1333" rx="32.4942" ry="18"/>
<text text-anchor="middle" x="2016.232" y="-1778.4333" font-family="Times,serif" font-size="14.00" fill="#000000">52317</text>
</g>
<!-- 5692&#45;&gt;52317 -->
<g id="edge23" class="edge">
<title>5692&#45;&gt;52317</title>
<path fill="none" stroke="#000000" d="M1986.7089,-2025.5469C1992.1271,-1980.8747 2006.2426,-1864.4941 2012.7962,-1810.4608"/>
<polygon fill="#000000" stroke="#000000" points="2016.3081,-1810.5734 2014.0377,-1800.2247 2009.359,-1809.7305 2016.3081,-1810.5734"/>
</g>
<!-- 52375 -->
<g id="node35" class="node">
<title>52375</title>
<ellipse fill="none" stroke="#000000" cx="2141.9806" cy="-1832.4832" rx="32.4942" ry="18"/>
<text text-anchor="middle" x="2141.9806" y="-1828.7832" font-family="Times,serif" font-size="14.00" fill="#000000">52375</text>
</g>
<!-- 5692&#45;&gt;52375 -->
<g id="edge24" class="edge">
<title>5692&#45;&gt;52375</title>
<path fill="none" stroke="#000000" d="M1996.8848,-2026.9535C2024.4103,-1990.0613 2090.9047,-1900.9396 2123.4339,-1857.3411"/>
<polygon fill="#000000" stroke="#000000" points="2126.2904,-1859.3654 2129.4652,-1849.2574 2120.6799,-1855.1793 2126.2904,-1859.3654"/>
</g>
<!-- 52376 -->
<g id="node36" class="node">
<title>52376</title>
<ellipse fill="none" stroke="#000000" cx="2226.0572" cy="-1938.6856" rx="32.4942" ry="18"/>
<text text-anchor="middle" x="2226.0572" y="-1934.9856" font-family="Times,serif" font-size="14.00" fill="#000000">52376</text>
</g>
<!-- 5692&#45;&gt;52376 -->
<g id="edge25" class="edge">
<title>5692&#45;&gt;52376</title>
<path fill="none" stroke="#000000" d="M2008.1283,-2033.2705C2050.7491,-2014.7723 2140.7708,-1975.7014 2190.748,-1954.0104"/>
<polygon fill="#000000" stroke="#000000" points="2192.4038,-1957.1073 2200.1836,-1949.9152 2189.6168,-1950.686 2192.4038,-1957.1073"/>
</g>
<!-- 52380 -->
<g id="node37" class="node">
<title>52380</title>
<ellipse fill="none" stroke="#000000" cx="2246.2094" cy="-2072.6323" rx="32.4942" ry="18"/>
<text text-anchor="middle" x="2246.2094" y="-2068.9323" font-family="Times,serif" font-size="14.00" fill="#000000">52380</text>
</g>
<!-- 5692&#45;&gt;52380 -->
<g id="edge26" class="edge">
<title>5692&#45;&gt;52380</title>
<path fill="none" stroke="#000000" d="M2012.7828,-2046.6566C2058.7488,-2051.7717 2149.9845,-2061.9244 2203.7723,-2067.9099"/>
<polygon fill="#000000" stroke="#000000" points="2203.6803,-2071.4212 2214.0061,-2069.0487 2204.4546,-2064.4641 2203.6803,-2071.4212"/>
</g>
<!-- 52413 -->
<g id="node38" class="node">
<title>52413</title>
<ellipse fill="none" stroke="#000000" cx="2197.1036" cy="-2198.872" rx="32.4942" ry="18"/>
<text text-anchor="middle" x="2197.1036" y="-2195.172" font-family="Times,serif" font-size="14.00" fill="#000000">52413</text>
</g>
<!-- 5692&#45;&gt;52413 -->
<g id="edge27" class="edge">
<title>5692&#45;&gt;52413</title>
<path fill="none" stroke="#000000" d="M2003.3944,-2057.2997C2040.9269,-2084.7303 2125.1245,-2146.2661 2169.121,-2178.4209"/>
<polygon fill="#000000" stroke="#000000" points="2167.2197,-2181.3665 2177.3585,-2184.4413 2171.3501,-2175.7149 2167.2197,-2181.3665"/>
</g>
<!-- 52431 -->
<g id="node39" class="node">
<title>52431</title>
<ellipse fill="none" stroke="#000000" cx="2091.7365" cy="-2283.9931" rx="32.4942" ry="18"/>
<text text-anchor="middle" x="2091.7365" y="-2280.2931" font-family="Times,serif" font-size="14.00" fill="#000000">52431</text>
</g>
<!-- 5692&#45;&gt;52431 -->
<g id="edge28" class="edge">
<title>5692&#45;&gt;52431</title>
<path fill="none" stroke="#000000" d="M1992.413,-2061.1957C2010.9997,-2102.8884 2057.6578,-2207.5494 2079.7636,-2257.136"/>
<polygon fill="#000000" stroke="#000000" points="2076.5733,-2258.5757 2083.8418,-2266.2841 2082.9667,-2255.7254 2076.5733,-2258.5757"/>
</g>
<!-- 262230 -->
<g id="node40" class="node">
<title>262230</title>
<ellipse fill="none" stroke="#000000" cx="1953.4731" cy="-2304.9693" rx="37.0935" ry="18"/>
<text text-anchor="middle" x="1953.4731" y="-2301.2693" font-family="Times,serif" font-size="14.00" fill="#000000">262230</text>
</g>
<!-- 5692&#45;&gt;262230 -->
<g id="edge29" class="edge">
<title>5692&#45;&gt;262230</title>
<path fill="none" stroke="#000000" d="M1982.3952,-2061.4836C1977.0873,-2106.1691 1963.2591,-2222.5841 1956.8389,-2276.6335"/>
<polygon fill="#000000" stroke="#000000" points="1953.3267,-2276.5295 1955.6227,-2286.8726 1960.2779,-2277.3552 1953.3267,-2276.5295"/>
</g>
<!-- 264608 -->
<g id="node41" class="node">
<title>264608</title>
<ellipse fill="none" stroke="#000000" cx="1820.3893" cy="-2249.3815" rx="37.0935" ry="18"/>
<text text-anchor="middle" x="1820.3893" y="-2245.6815" font-family="Times,serif" font-size="14.00" fill="#000000">264608</text>
</g>
<!-- 5692&#45;&gt;264608 -->
<g id="edge30" class="edge">
<title>5692&#45;&gt;264608</title>
<path fill="none" stroke="#000000" d="M1971.65,-2059.6668C1943.0967,-2095.479 1874.319,-2181.7417 1840.229,-2224.4981"/>
<polygon fill="#000000" stroke="#000000" points="1837.3932,-2222.4405 1833.8957,-2232.4414 1842.8665,-2226.8044 1837.3932,-2222.4405"/>
</g>
<!-- 6762&#45;&gt;2914 -->
<g id="edge31" class="edge">
<title>6762&#45;&gt;2914</title>
<path fill="none" stroke="#000000" d="M3824.7526,-2016.7124C3840.9063,-2004.7776 3864.5251,-1987.3274 3882.8212,-1973.8097"/>
<polygon fill="#000000" stroke="#000000" points="3885.3563,-1976.2885 3891.3194,-1967.531 3881.1966,-1970.6584 3885.3563,-1976.2885"/>
</g>
<!-- 6904 -->
<g id="node22" class="node">
<title>6904</title>
<ellipse fill="none" stroke="#000000" cx="2983.5436" cy="-3931.1878" rx="28.6953" ry="18"/>
<text text-anchor="middle" x="2983.5436" y="-3927.4878" font-family="Times,serif" font-size="14.00" fill="#000000">6904</text>
</g>
<!-- 6904&#45;&gt;2687 -->
<g id="edge32" class="edge">
<title>6904&#45;&gt;2687</title>
<path fill="none" stroke="#000000" d="M3010.5553,-3937.3941C3028.6465,-3941.5508 3052.6932,-3947.0759 3072.5453,-3951.6372"/>
<polygon fill="#000000" stroke="#000000" points="3071.9607,-3955.094 3082.4906,-3953.9222 3073.5283,-3948.2717 3071.9607,-3955.094"/>
</g>
<!-- 7016 -->
<g id="node23" class="node">
<title>7016</title>
<ellipse fill="none" stroke="#000000" cx="2804.5405" cy="-4025.0159" rx="28.6953" ry="18"/>
<text text-anchor="middle" x="2804.5405" y="-4021.3159" font-family="Times,serif" font-size="14.00" fill="#000000">7016</text>
</g>
<!-- 7922 -->
<g id="node25" class="node">
<title>7922</title>
<ellipse fill="none" stroke="#000000" cx="2756.6962" cy="-4145.0253" rx="28.6953" ry="18"/>
<text text-anchor="middle" x="2756.6962" y="-4141.3253" font-family="Times,serif" font-size="14.00" fill="#000000">7922</text>
</g>
<!-- 7016&#45;&gt;7922 -->
<g id="edge33" class="edge">
<title>7016&#45;&gt;7922</title>
<path fill="none" stroke="#000000" d="M2797.4809,-4042.7237C2789.6012,-4062.4886 2776.7552,-4094.7107 2767.5859,-4117.7103"/>
<polygon fill="#000000" stroke="#000000" points="2764.2369,-4116.6596 2763.7848,-4127.2448 2770.7392,-4119.2519 2764.2369,-4116.6596"/>
</g>
<!-- 12956 -->
<g id="node28" class="node">
<title>12956</title>
<ellipse fill="none" stroke="#000000" cx="2140.0584" cy="-2935.2986" rx="32.4942" ry="18"/>
<text text-anchor="middle" x="2140.0584" y="-2931.5986" font-family="Times,serif" font-size="14.00" fill="#000000">12956</text>
</g>
<!-- 10834&#45;&gt;12956 -->
<g id="edge34" class="edge">
<title>10834&#45;&gt;12956</title>
<path fill="none" stroke="#000000" d="M1671.298,-2300.8332C1736.7507,-2389.4232 2042.5193,-2803.2798 2121.4352,-2910.0922"/>
<polygon fill="#000000" stroke="#000000" points="2118.7851,-2912.3953 2127.5426,-2918.3584 2124.4152,-2908.2357 2118.7851,-2912.3953"/>
</g>
<!-- 22927 -->
<g id="node30" class="node">
<title>22927</title>
<ellipse fill="none" stroke="#000000" cx="1333.3125" cy="-2524.6499" rx="32.4942" ry="18"/>
<text text-anchor="middle" x="1333.3125" y="-2520.9499" font-family="Times,serif" font-size="14.00" fill="#000000">22927</text>
</g>
<!-- 10834&#45;&gt;22927 -->
<g id="edge35" class="edge">
<title>10834&#45;&gt;22927</title>
<path fill="none" stroke="#000000" d="M1639.043,-2298.7677C1583.279,-2339.9677 1425.2599,-2456.7165 1361.001,-2504.1928"/>
<polygon fill="#000000" stroke="#000000" points="1358.8935,-2501.3982 1352.9304,-2510.1556 1363.0532,-2507.0282 1358.8935,-2501.3982"/>
</g>
<!-- 12956&#45;&gt;3356 -->
<g id="edge36" class="edge">
<title>12956&#45;&gt;3356</title>
<path fill="none" stroke="#000000" d="M2152.4161,-2952.0247C2165.4171,-2969.6214 2186.0167,-2997.5029 2200.8913,-3017.6356"/>
<polygon fill="#000000" stroke="#000000" points="2198.1194,-3019.7739 2206.8768,-3025.737 2203.7494,-3015.6142 2198.1194,-3019.7739"/>
</g>
<!-- 18540 -->
<g id="node29" class="node">
<title>18540</title>
<ellipse fill="none" stroke="#000000" cx="2661.1571" cy="-3857.1151" rx="32.4942" ry="18"/>
<text text-anchor="middle" x="2661.1571" y="-3853.4151" font-family="Times,serif" font-size="14.00" fill="#000000">18540</text>
</g>
<!-- 30070&#45;&gt;2828 -->
<g id="edge37" class="edge">
<title>30070&#45;&gt;2828</title>
<path fill="none" stroke="#000000" d="M2855.146,-3883.2046C2856.7558,-3860.9869 2859.4981,-3823.138 2861.3876,-3797.0602"/>
<polygon fill="#000000" stroke="#000000" points="2864.8829,-3797.2502 2862.1148,-3787.0234 2857.9012,-3796.7443 2864.8829,-3797.2502"/>
</g>
<!-- 30070&#45;&gt;6904 -->
<g id="edge38" class="edge">
<title>30070&#45;&gt;6904</title>
<path fill="none" stroke="#000000" d="M2883.914,-3908.2965C2902.5239,-3912.5724 2926.5567,-3918.0943 2946.3556,-3922.6433"/>
<polygon fill="#000000" stroke="#000000" points="2945.7422,-3926.0935 2956.272,-3924.9218 2947.3098,-3919.2713 2945.7422,-3926.0935"/>
</g>
<!-- 30070&#45;&gt;7016 -->
<g id="edge39" class="edge">
<title>30070&#45;&gt;7016</title>
<path fill="none" stroke="#000000" d="M2846.767,-3919.0975C2838.5685,-3939.6621 2824.953,-3973.8144 2815.4047,-3997.7648"/>
<polygon fill="#000000" stroke="#000000" points="2812.0413,-3996.7501 2811.5892,-4007.3353 2818.5437,-3999.3424 2812.0413,-3996.7501"/>
</g>
<!-- 30070&#45;&gt;18540 -->
<g id="edge40" class="edge">
<title>30070&#45;&gt;18540</title>
<path fill="none" stroke="#000000" d="M2823.7239,-3894.467C2790.7348,-3886.8873 2737.6625,-3874.6933 2701.1857,-3866.3122"/>
<polygon fill="#000000" stroke="#000000" points="2701.8978,-3862.8847 2691.368,-3864.0564 2700.3303,-3869.7069 2701.8978,-3862.8847"/>
</g>
</g>
</svg>
