<?xml version="1.0" encoding="UTF-8" standalone="no"?>
<!DOCTYPE svg PUBLIC "-//W3C//DTD SVG 1.1//EN"
 "http://www.w3.org/Graphics/SVG/1.1/DTD/svg11.dtd">
<!-- Generated by graphviz version 2.40.1 (20161225.0304)
 -->
<!-- Title: %3 Pages: 1 -->
<svg width="586pt" height="711pt"
 viewBox="0.00 0.00 585.87 711.40" xmlns="http://www.w3.org/2000/svg" xmlns:xlink="http://www.w3.org/1999/xlink">
<g id="graph0" class="graph" transform="scale(1 1) rotate(0) translate(4 707.4004)">
<title>%3</title>
<polygon fill="#ffffff" stroke="transparent" points="-4,4 -4,-707.4004 581.8667,-707.4004 581.8667,4 -4,4"/>
<!-- 174 -->
<g id="node1" class="node">
<title>174</title>
<ellipse fill="none" stroke="#000000" cx="45.3419" cy="-130.0931" rx="27" ry="18"/>
<text text-anchor="middle" x="45.3419" y="-126.3931" font-family="Times,serif" font-size="14.00" fill="#000000">174</text>
</g>
<!-- 209 -->
<g id="node2" class="node">
<title>209</title>
<ellipse fill="none" stroke="#000000" cx="176.1217" cy="-102.0569" rx="27" ry="18"/>
<text text-anchor="middle" x="176.1217" y="-98.3569" font-family="Times,serif" font-size="14.00" fill="#000000">209</text>
</g>
<!-- 701 -->
<g id="node3" class="node">
<title>701</title>
<ellipse fill="none" stroke="#000000" cx="104.9797" cy="-87.5387" rx="27" ry="18"/>
<text text-anchor="middle" x="104.9797" y="-83.8387" font-family="Times,serif" font-size="14.00" fill="#000000">701</text>
</g>
<!-- 1239 -->
<g id="node4" class="node">
<title>1239</title>
<ellipse fill="none" stroke="#000000" cx="100.6926" cy="-263.3335" rx="28.6953" ry="18"/>
<text text-anchor="middle" x="100.6926" y="-259.6335" font-family="Times,serif" font-size="14.00" fill="#000000">1239</text>
</g>
<!-- 1273 -->
<g id="node5" class="node">
<title>1273</title>
<ellipse fill="none" stroke="#000000" cx="172.4235" cy="-135.615" rx="28.6953" ry="18"/>
<text text-anchor="middle" x="172.4235" y="-131.915" font-family="Times,serif" font-size="14.00" fill="#000000">1273</text>
</g>
<!-- 1299 -->
<g id="node6" class="node">
<title>1299</title>
<ellipse fill="none" stroke="#000000" cx="61.4802" cy="-171.2391" rx="28.6953" ry="18"/>
<text text-anchor="middle" x="61.4802" y="-167.5391" font-family="Times,serif" font-size="14.00" fill="#000000">1299</text>
</g>
<!-- 2497 -->
<g id="node7" class="node">
<title>2497</title>
<ellipse fill="none" stroke="#000000" cx="74.9163" cy="-105.4148" rx="28.6953" ry="18"/>
<text text-anchor="middle" x="74.9163" y="-101.7148" font-family="Times,serif" font-size="14.00" fill="#000000">2497</text>
</g>
<!-- 2687 -->
<g id="node8" class="node">
<title>2687</title>
<ellipse fill="none" stroke="#000000" cx="528.9559" cy="-95.8075" rx="28.6953" ry="18"/>
<text text-anchor="middle" x="528.9559" y="-92.1075" font-family="Times,serif" font-size="14.00" fill="#000000">2687</text>
</g>
<!-- 2828 -->
<g id="node9" class="node">
<title>2828</title>
<ellipse fill="none" stroke="#000000" cx="410.6755" cy="-95.1558" rx="28.6953" ry="18"/>
<text text-anchor="middle" x="410.6755" y="-91.4558" font-family="Times,serif" font-size="14.00" fill="#000000">2828</text>
</g>
<!-- 5511 -->
<g id="node17" class="node">
<title>5511</title>
<ellipse fill="none" stroke="#000000" cx="443.9292" cy="-18" rx="28.6953" ry="18"/>
<text text-anchor="middle" x="443.9292" y="-14.3" font-family="Times,serif" font-size="14.00" fill="#000000">5511</text>
</g>
<!-- 2828&#45;&gt;5511 -->
<g id="edge1" class="edge">
<title>2828&#45;&gt;5511</title>
<path fill="none" stroke="#000000" d="M418.2213,-77.648C422.388,-67.9804 427.6522,-55.7663 432.3302,-44.9122"/>
<polygon fill="#000000" stroke="#000000" points="435.6695,-46.0073 436.4133,-35.4386 429.2411,-43.2366 435.6695,-46.0073"/>
</g>
<!-- 2914 -->
<g id="node10" class="node">
<title>2914</title>
<ellipse fill="none" stroke="#000000" cx="122.1886" cy="-175.3298" rx="28.6953" ry="18"/>
<text text-anchor="middle" x="122.1886" y="-171.6298" font-family="Times,serif" font-size="14.00" fill="#000000">2914</text>
</g>
<!-- 2914&#45;&gt;174 -->
<g id="edge2" class="edge">
<title>2914&#45;&gt;174</title>
<path fill="none" stroke="#000000" d="M101.1899,-162.9687C93.0103,-158.1537 83.4941,-152.5518 74.6594,-147.3512"/>
<polygon fill="#000000" stroke="#000000" points="76.1773,-144.1834 65.784,-142.1266 72.6262,-150.2158 76.1773,-144.1834"/>
</g>
<!-- 2914&#45;&gt;209 -->
<g id="edge3" class="edge">
<title>2914&#45;&gt;209</title>
<path fill="none" stroke="#000000" d="M134.4269,-158.7031C141.4406,-149.1743 150.3717,-137.0406 158.1674,-126.4494"/>
<polygon fill="#000000" stroke="#000000" points="161.0085,-128.4938 164.1177,-118.3655 155.371,-124.3443 161.0085,-128.4938"/>
</g>
<!-- 2914&#45;&gt;701 -->
<g id="edge4" class="edge">
<title>2914&#45;&gt;701</title>
<path fill="none" stroke="#000000" d="M118.6229,-157.1394C116.2537,-145.0528 113.0975,-128.9515 110.4176,-115.2798"/>
<polygon fill="#000000" stroke="#000000" points="113.8403,-114.5453 108.482,-105.4054 106.971,-115.8919 113.8403,-114.5453"/>
</g>
<!-- 2914&#45;&gt;1239 -->
<g id="edge5" class="edge">
<title>2914&#45;&gt;1239</title>
<path fill="none" stroke="#000000" d="M117.8386,-193.1387C114.8862,-205.2255 110.9212,-221.4581 107.5477,-235.2688"/>
<polygon fill="#000000" stroke="#000000" points="104.0828,-234.7041 105.1099,-245.2491 110.8829,-236.3652 104.0828,-234.7041"/>
</g>
<!-- 2914&#45;&gt;1273 -->
<g id="edge6" class="edge">
<title>2914&#45;&gt;1273</title>
<path fill="none" stroke="#000000" d="M140.041,-161.216C142.0644,-159.6163 144.1567,-157.9622 146.2587,-156.3004"/>
<polygon fill="#000000" stroke="#000000" points="148.6158,-158.8986 154.2898,-149.9512 144.2745,-153.4074 148.6158,-158.8986"/>
</g>
<!-- 2914&#45;&gt;1299 -->
<g id="edge7" class="edge">
<title>2914&#45;&gt;1299</title>
<path fill="none" stroke="#000000" d="M93.6121,-173.4043C93.4583,-173.3939 93.3045,-173.3835 93.1506,-173.3732"/>
<polygon fill="#000000" stroke="#000000" points="100.1308,-170.3358 89.918,-173.1553 99.66,-177.32 100.1308,-170.3358"/>
</g>
<!-- 2914&#45;&gt;2497 -->
<g id="edge8" class="edge">
<title>2914&#45;&gt;2497</title>
<path fill="none" stroke="#000000" d="M110.9857,-158.7609C105.3579,-150.4375 98.4155,-140.1697 92.129,-130.8722"/>
<polygon fill="#000000" stroke="#000000" points="94.8679,-128.6741 86.3672,-122.3504 89.069,-132.595 94.8679,-128.6741"/>
</g>
<!-- 3257 -->
<g id="node11" class="node">
<title>3257</title>
<ellipse fill="none" stroke="#000000" cx="140.0329" cy="-85.9693" rx="28.6953" ry="18"/>
<text text-anchor="middle" x="140.0329" y="-82.2693" font-family="Times,serif" font-size="14.00" fill="#000000">3257</text>
</g>
<!-- 2914&#45;&gt;3257 -->
<g id="edge9" class="edge">
<title>2914&#45;&gt;3257</title>
<path fill="none" stroke="#000000" d="M125.7997,-157.2464C128.2667,-144.8919 131.5856,-128.2718 134.3979,-114.1884"/>
<polygon fill="#000000" stroke="#000000" points="137.9012,-114.5176 136.4272,-104.0258 131.0367,-113.1468 137.9012,-114.5176"/>
</g>
<!-- 3320 -->
<g id="node12" class="node">
<title>3320</title>
<ellipse fill="none" stroke="#000000" cx="28.5975" cy="-184.4448" rx="28.6953" ry="18"/>
<text text-anchor="middle" x="28.5975" y="-180.7448" font-family="Times,serif" font-size="14.00" fill="#000000">3320</text>
</g>
<!-- 2914&#45;&gt;3320 -->
<g id="edge10" class="edge">
<title>2914&#45;&gt;3320</title>
<path fill="none" stroke="#000000" d="M93.8542,-178.0894C85.5015,-178.9028 76.2143,-179.8073 67.3273,-180.6729"/>
<polygon fill="#000000" stroke="#000000" points="66.7722,-177.2103 57.1586,-181.6632 67.4508,-184.1773 66.7722,-177.2103"/>
</g>
<!-- 3491 -->
<g id="node14" class="node">
<title>3491</title>
<ellipse fill="none" stroke="#000000" cx="172.5699" cy="-187.374" rx="28.6953" ry="18"/>
<text text-anchor="middle" x="172.5699" y="-183.674" font-family="Times,serif" font-size="14.00" fill="#000000">3491</text>
</g>
<!-- 2914&#45;&gt;3491 -->
<g id="edge11" class="edge">
<title>2914&#45;&gt;3491</title>
<path fill="none" stroke="#000000" d="M149.1491,-181.775C149.1959,-181.7862 149.2427,-181.7974 149.2895,-181.8086"/>
<polygon fill="#000000" stroke="#000000" points="138.888,-182.9158 149.4298,-181.8421 140.5193,-176.1076 138.888,-182.9158"/>
</g>
<!-- 6453 -->
<g id="node19" class="node">
<title>6453</title>
<ellipse fill="none" stroke="#000000" cx="43.9493" cy="-229.9392" rx="28.6953" ry="18"/>
<text text-anchor="middle" x="43.9493" y="-226.2392" font-family="Times,serif" font-size="14.00" fill="#000000">6453</text>
</g>
<!-- 2914&#45;&gt;6453 -->
<g id="edge12" class="edge">
<title>2914&#45;&gt;6453</title>
<path fill="none" stroke="#000000" d="M102.8485,-188.8288C93.4447,-195.3925 81.9714,-203.4006 71.6578,-210.5993"/>
<polygon fill="#000000" stroke="#000000" points="69.5349,-207.8127 63.338,-216.4063 73.5414,-213.5528 69.5349,-207.8127"/>
</g>
<!-- 6461 -->
<g id="node20" class="node">
<title>6461</title>
<ellipse fill="none" stroke="#000000" cx="78.1273" cy="-237.9934" rx="28.6953" ry="18"/>
<text text-anchor="middle" x="78.1273" y="-234.2934" font-family="Times,serif" font-size="14.00" fill="#000000">6461</text>
</g>
<!-- 2914&#45;&gt;6461 -->
<g id="edge13" class="edge">
<title>2914&#45;&gt;6461</title>
<path fill="none" stroke="#000000" d="M110.612,-191.7939C106.0942,-198.2191 100.8129,-205.7302 95.8375,-212.8061"/>
<polygon fill="#000000" stroke="#000000" points="92.6684,-211.2282 89.7796,-221.4217 98.3946,-215.2546 92.6684,-211.2282"/>
</g>
<!-- 7018 -->
<g id="node24" class="node">
<title>7018</title>
<ellipse fill="none" stroke="#000000" cx="138.2985" cy="-243.4217" rx="28.6953" ry="18"/>
<text text-anchor="middle" x="138.2985" y="-239.7217" font-family="Times,serif" font-size="14.00" fill="#000000">7018</text>
</g>
<!-- 2914&#45;&gt;7018 -->
<g id="edge14" class="edge">
<title>2914&#45;&gt;7018</title>
<path fill="none" stroke="#000000" d="M126.4213,-193.2202C128.0364,-200.0468 129.9184,-208.0015 131.7017,-215.5393"/>
<polygon fill="#000000" stroke="#000000" points="128.3297,-216.4889 134.0381,-225.4144 135.1417,-214.8772 128.3297,-216.4889"/>
</g>
<!-- 3356 -->
<g id="node13" class="node">
<title>3356</title>
<ellipse fill="none" stroke="#000000" cx="327.6307" cy="-335.5765" rx="28.6953" ry="18"/>
<text text-anchor="middle" x="327.6307" y="-331.8765" font-family="Times,serif" font-size="14.00" fill="#000000">3356</text>
</g>
<!-- 3549 -->
<g id="node15" class="node">
<title>3549</title>
<ellipse fill="none" stroke="#000000" cx="310.5469" cy="-245.3615" rx="28.6953" ry="18"/>
<text text-anchor="middle" x="310.5469" y="-241.6615" font-family="Times,serif" font-size="14.00" fill="#000000">3549</text>
</g>
<!-- 3356&#45;&gt;3549 -->
<g id="edge15" class="edge">
<title>3356&#45;&gt;3549</title>
<path fill="none" stroke="#000000" d="M324.1735,-317.3201C321.7728,-304.6424 318.5295,-287.5154 315.8093,-273.151"/>
<polygon fill="#000000" stroke="#000000" points="319.2402,-272.457 313.9406,-263.2828 312.3624,-273.7595 319.2402,-272.457"/>
</g>
<!-- 6762 -->
<g id="node21" class="node">
<title>6762</title>
<ellipse fill="none" stroke="#000000" cx="221.323" cy="-218.1538" rx="28.6953" ry="18"/>
<text text-anchor="middle" x="221.323" y="-214.4538" font-family="Times,serif" font-size="14.00" fill="#000000">6762</text>
</g>
<!-- 3549&#45;&gt;6762 -->
<g id="edge16" class="edge">
<title>3549&#45;&gt;6762</title>
<path fill="none" stroke="#000000" d="M284.7397,-237.4919C276.0465,-234.8411 266.1873,-231.8346 256.8776,-228.9957"/>
<polygon fill="#000000" stroke="#000000" points="257.6583,-225.5748 247.0722,-226.0057 255.6165,-232.2704 257.6583,-225.5748"/>
</g>
<!-- 30070 -->
<g id="node33" class="node">
<title>30070</title>
<ellipse fill="none" stroke="#000000" cx="386.7569" cy="-186.0409" rx="32.4942" ry="18"/>
<text text-anchor="middle" x="386.7569" y="-182.3409" font-family="Times,serif" font-size="14.00" fill="#000000">30070</text>
</g>
<!-- 3549&#45;&gt;30070 -->
<g id="edge17" class="edge">
<title>3549&#45;&gt;30070</title>
<path fill="none" stroke="#000000" d="M328.6076,-231.3033C337.9157,-224.0581 349.4545,-215.0765 359.7935,-207.0288"/>
<polygon fill="#000000" stroke="#000000" points="362.021,-209.7303 367.7623,-200.8259 357.7213,-204.2064 362.021,-209.7303"/>
</g>
<!-- 3597 -->
<g id="node16" class="node">
<title>3597</title>
<ellipse fill="none" stroke="#000000" cx="473.117" cy="-569.3582" rx="28.6953" ry="18"/>
<text text-anchor="middle" x="473.117" y="-565.6582" font-family="Times,serif" font-size="14.00" fill="#000000">3597</text>
</g>
<!-- 5692 -->
<g id="node18" class="node">
<title>5692</title>
<ellipse fill="none" stroke="#000000" cx="386.1615" cy="-603.0463" rx="28.6953" ry="18"/>
<text text-anchor="middle" x="386.1615" y="-599.3463" font-family="Times,serif" font-size="14.00" fill="#000000">5692</text>
</g>
<!-- 5692&#45;&gt;3597 -->
<g id="edge18" class="edge">
<title>5692&#45;&gt;3597</title>
<path fill="none" stroke="#000000" d="M410.8469,-593.4828C419.6416,-590.0756 429.7067,-586.1762 439.1436,-582.5202"/>
<polygon fill="#000000" stroke="#000000" points="440.6106,-585.7053 448.6709,-578.8291 438.0818,-579.1781 440.6106,-585.7053"/>
</g>
<!-- 10834 -->
<g id="node26" class="node">
<title>10834</title>
<ellipse fill="none" stroke="#000000" cx="381.1057" cy="-499.8575" rx="32.4942" ry="18"/>
<text text-anchor="middle" x="381.1057" y="-496.1575" font-family="Times,serif" font-size="14.00" fill="#000000">10834</text>
</g>
<!-- 5692&#45;&gt;10834 -->
<g id="edge19" class="edge">
<title>5692&#45;&gt;10834</title>
<path fill="none" stroke="#000000" d="M385.2577,-584.5982C384.492,-568.9707 383.3816,-546.3075 382.5017,-528.3498"/>
<polygon fill="#000000" stroke="#000000" points="385.987,-527.9626 382.0018,-518.1459 378.9954,-528.3052 385.987,-527.9626"/>
</g>
<!-- 11008 -->
<g id="node27" class="node">
<title>11008</title>
<ellipse fill="none" stroke="#000000" cx="481.7286" cy="-629.0916" rx="32.4942" ry="18"/>
<text text-anchor="middle" x="481.7286" y="-625.3916" font-family="Times,serif" font-size="14.00" fill="#000000">11008</text>
</g>
<!-- 5692&#45;&gt;11008 -->
<g id="edge20" class="edge">
<title>5692&#45;&gt;11008</title>
<path fill="none" stroke="#000000" d="M412.5286,-610.2323C421.8104,-612.7619 432.4515,-615.6619 442.5605,-618.417"/>
<polygon fill="#000000" stroke="#000000" points="441.8537,-621.8519 452.4221,-621.1046 443.6943,-615.0983 441.8537,-621.8519"/>
</g>
<!-- 27865 -->
<g id="node31" class="node">
<title>27865</title>
<ellipse fill="none" stroke="#000000" cx="380.486" cy="-675.3644" rx="32.4942" ry="18"/>
<text text-anchor="middle" x="380.486" y="-671.6644" font-family="Times,serif" font-size="14.00" fill="#000000">27865</text>
</g>
<!-- 5692&#45;&gt;27865 -->
<g id="edge21" class="edge">
<title>5692&#45;&gt;27865</title>
<path fill="none" stroke="#000000" d="M384.7294,-621.2952C384.113,-629.1487 383.3783,-638.5101 382.6949,-647.2185"/>
<polygon fill="#000000" stroke="#000000" points="379.1913,-647.1287 381.8981,-657.3719 386.1698,-647.6764 379.1913,-647.1287"/>
</g>
<!-- 28065 -->
<g id="node32" class="node">
<title>28065</title>
<ellipse fill="none" stroke="#000000" cx="455.9234" cy="-604.8215" rx="32.4942" ry="18"/>
<text text-anchor="middle" x="455.9234" y="-601.1215" font-family="Times,serif" font-size="14.00" fill="#000000">28065</text>
</g>
<!-- 5692&#45;&gt;28065 -->
<g id="edge22" class="edge">
<title>5692&#45;&gt;28065</title>
<path fill="none" stroke="#000000" d="M414.9391,-603.7786C415.0236,-603.7808 415.1081,-603.7829 415.1926,-603.7851"/>
<polygon fill="#000000" stroke="#000000" points="413.044,-607.2314 423.1299,-603.987 413.2222,-600.2337 413.044,-607.2314"/>
</g>
<!-- 52317 -->
<g id="node34" class="node">
<title>52317</title>
<ellipse fill="none" stroke="#000000" cx="317.3589" cy="-656.7661" rx="32.4942" ry="18"/>
<text text-anchor="middle" x="317.3589" y="-653.0661" font-family="Times,serif" font-size="14.00" fill="#000000">52317</text>
</g>
<!-- 5692&#45;&gt;52317 -->
<g id="edge23" class="edge">
<title>5692&#45;&gt;52317</title>
<path fill="none" stroke="#000000" d="M368.0844,-617.1606C360.8743,-622.7901 352.4186,-629.3921 344.5006,-635.5743"/>
<polygon fill="#000000" stroke="#000000" points="342.2466,-632.8937 336.5185,-641.8066 346.5545,-638.4111 342.2466,-632.8937"/>
</g>
<!-- 52375 -->
<g id="node35" class="node">
<title>52375</title>
<ellipse fill="none" stroke="#000000" cx="448.9145" cy="-661.1636" rx="32.4942" ry="18"/>
<text text-anchor="middle" x="448.9145" y="-657.4636" font-family="Times,serif" font-size="14.00" fill="#000000">52375</text>
</g>
<!-- 5692&#45;&gt;52375 -->
<g id="edge24" class="edge">
<title>5692&#45;&gt;52375</title>
<path fill="none" stroke="#000000" d="M402.322,-618.013C409.0425,-624.2371 416.9919,-631.5992 424.4038,-638.4636"/>
<polygon fill="#000000" stroke="#000000" points="422.4369,-641.4124 432.152,-645.6394 427.1933,-636.2766 422.4369,-641.4124"/>
</g>
<!-- 52376 -->
<g id="node36" class="node">
<title>52376</title>
<ellipse fill="none" stroke="#000000" cx="422.8686" cy="-556.7215" rx="32.4942" ry="18"/>
<text text-anchor="middle" x="422.8686" y="-553.0215" font-family="Times,serif" font-size="14.00" fill="#000000">52376</text>
</g>
<!-- 5692&#45;&gt;52376 -->
<g id="edge25" class="edge">
<title>5692&#45;&gt;52376</title>
<path fill="none" stroke="#000000" d="M398.9999,-586.8441C400.4109,-585.0634 401.8699,-583.2222 403.3389,-581.3682"/>
<polygon fill="#000000" stroke="#000000" points="406.2593,-583.3182 409.7267,-573.3068 400.7729,-578.9709 406.2593,-583.3182"/>
</g>
<!-- 52380 -->
<g id="node37" class="node">
<title>52380</title>
<ellipse fill="none" stroke="#000000" cx="335.649" cy="-566.0095" rx="32.4942" ry="18"/>
<text text-anchor="middle" x="335.649" y="-562.3095" font-family="Times,serif" font-size="14.00" fill="#000000">52380</text>
</g>
<!-- 5692&#45;&gt;52380 -->
<g id="edge26" class="edge">
<title>5692&#45;&gt;52380</title>
<path fill="none" stroke="#000000" d="M367.3525,-589.2552C366.1254,-588.3554 364.8764,-587.4396 363.6184,-586.5172"/>
<polygon fill="#000000" stroke="#000000" points="365.4527,-583.5221 355.3186,-580.4316 361.3135,-589.1673 365.4527,-583.5221"/>
</g>
<!-- 52413 -->
<g id="node38" class="node">
<title>52413</title>
<ellipse fill="none" stroke="#000000" cx="416.6743" cy="-685.4004" rx="32.4942" ry="18"/>
<text text-anchor="middle" x="416.6743" y="-681.7004" font-family="Times,serif" font-size="14.00" fill="#000000">52413</text>
</g>
<!-- 5692&#45;&gt;52413 -->
<g id="edge27" class="edge">
<title>5692&#45;&gt;52413</title>
<path fill="none" stroke="#000000" d="M392.7824,-620.9159C396.7808,-631.7078 401.9592,-645.6844 406.4724,-657.8653"/>
<polygon fill="#000000" stroke="#000000" points="403.3101,-659.4046 410.0664,-667.5657 409.8741,-656.9726 403.3101,-659.4046"/>
</g>
<!-- 52431 -->
<g id="node39" class="node">
<title>52431</title>
<ellipse fill="none" stroke="#000000" cx="307.0051" cy="-592.6975" rx="32.4942" ry="18"/>
<text text-anchor="middle" x="307.0051" y="-588.9975" font-family="Times,serif" font-size="14.00" fill="#000000">52431</text>
</g>
<!-- 5692&#45;&gt;52431 -->
<g id="edge28" class="edge">
<title>5692&#45;&gt;52431</title>
<path fill="none" stroke="#000000" d="M358.0311,-599.3686C355.0177,-598.9746 351.9074,-598.568 348.7788,-598.1589"/>
<polygon fill="#000000" stroke="#000000" points="349.1891,-594.6829 338.8197,-596.8569 348.2816,-601.6238 349.1891,-594.6829"/>
</g>
<!-- 262230 -->
<g id="node40" class="node">
<title>262230</title>
<ellipse fill="none" stroke="#000000" cx="295.5282" cy="-627.0348" rx="37.0935" ry="18"/>
<text text-anchor="middle" x="295.5282" y="-623.3348" font-family="Times,serif" font-size="14.00" fill="#000000">262230</text>
</g>
<!-- 5692&#45;&gt;262230 -->
<g id="edge29" class="edge">
<title>5692&#45;&gt;262230</title>
<path fill="none" stroke="#000000" d="M359.4588,-610.1139C352.7098,-611.9002 345.2943,-613.8629 337.9787,-615.7992"/>
<polygon fill="#000000" stroke="#000000" points="336.9085,-612.4619 328.1369,-618.4041 338.6996,-619.2288 336.9085,-612.4619"/>
</g>
<!-- 264608 -->
<g id="node41" class="node">
<title>264608</title>
<ellipse fill="none" stroke="#000000" cx="344.5466" cy="-683.6369" rx="37.0935" ry="18"/>
<text text-anchor="middle" x="344.5466" y="-679.9369" font-family="Times,serif" font-size="14.00" fill="#000000">264608</text>
</g>
<!-- 5692&#45;&gt;264608 -->
<g id="edge30" class="edge">
<title>5692&#45;&gt;264608</title>
<path fill="none" stroke="#000000" d="M377.1317,-620.5333C371.6616,-631.1266 364.5722,-644.8557 358.4036,-656.8016"/>
<polygon fill="#000000" stroke="#000000" points="355.1808,-655.4146 353.7025,-665.9058 361.4006,-658.6263 355.1808,-655.4146"/>
</g>
<!-- 6762&#45;&gt;2914 -->
<g id="edge31" class="edge">
<title>6762&#45;&gt;2914</title>
<path fill="none" stroke="#000000" d="M197.5778,-207.8964C184.9187,-202.4279 169.1419,-195.6127 155.2974,-189.6321"/>
<polygon fill="#000000" stroke="#000000" points="156.6517,-186.4046 146.0836,-185.652 153.8757,-192.8307 156.6517,-186.4046"/>
</g>
<!-- 6904 -->
<g id="node22" class="node">
<title>6904</title>
<ellipse fill="none" stroke="#000000" cx="458.891" cy="-146.5075" rx="28.6953" ry="18"/>
<text text-anchor="middle" x="458.891" y="-142.8075" font-family="Times,serif" font-size="14.00" fill="#000000">6904</text>
</g>
<!-- 6904&#45;&gt;2687 -->
<g id="edge32" class="edge">
<title>6904&#45;&gt;2687</title>
<path fill="none" stroke="#000000" d="M477.6672,-132.9208C485.1282,-127.5219 493.8532,-121.2083 501.9693,-115.3354"/>
<polygon fill="#000000" stroke="#000000" points="504.0784,-118.1295 510.128,-109.4316 499.9747,-112.4585 504.0784,-118.1295"/>
</g>
<!-- 7016 -->
<g id="node23" class="node">
<title>7016</title>
<ellipse fill="none" stroke="#000000" cx="463.8815" cy="-210.8251" rx="28.6953" ry="18"/>
<text text-anchor="middle" x="463.8815" y="-207.1251" font-family="Times,serif" font-size="14.00" fill="#000000">7016</text>
</g>
<!-- 7922 -->
<g id="node25" class="node">
<title>7922</title>
<ellipse fill="none" stroke="#000000" cx="549.2692" cy="-194.6757" rx="28.6953" ry="18"/>
<text text-anchor="middle" x="549.2692" y="-190.9757" font-family="Times,serif" font-size="14.00" fill="#000000">7922</text>
</g>
<!-- 7016&#45;&gt;7922 -->
<g id="edge33" class="edge">
<title>7016&#45;&gt;7922</title>
<path fill="none" stroke="#000000" d="M491.3687,-205.6264C497.9199,-204.3874 505.0206,-203.0444 511.931,-201.7374"/>
<polygon fill="#000000" stroke="#000000" points="512.6581,-205.1621 521.8335,-199.8646 511.3572,-198.284 512.6581,-205.1621"/>
</g>
<!-- 12956 -->
<g id="node28" class="node">
<title>12956</title>
<ellipse fill="none" stroke="#000000" cx="346.7139" cy="-419.7023" rx="32.4942" ry="18"/>
<text text-anchor="middle" x="346.7139" y="-416.0023" font-family="Times,serif" font-size="14.00" fill="#000000">12956</text>
</g>
<!-- 10834&#45;&gt;12956 -->
<g id="edge34" class="edge">
<title>10834&#45;&gt;12956</title>
<path fill="none" stroke="#000000" d="M373.4731,-482.0685C369.0205,-471.691 363.3136,-458.3903 358.3147,-446.7397"/>
<polygon fill="#000000" stroke="#000000" points="361.4847,-445.2513 354.3252,-437.4416 355.0519,-448.0115 361.4847,-445.2513"/>
</g>
<!-- 22927 -->
<g id="node30" class="node">
<title>22927</title>
<ellipse fill="none" stroke="#000000" cx="465.046" cy="-468.7007" rx="32.4942" ry="18"/>
<text text-anchor="middle" x="465.046" y="-465.0007" font-family="Times,serif" font-size="14.00" fill="#000000">22927</text>
</g>
<!-- 10834&#45;&gt;22927 -->
<g id="edge35" class="edge">
<title>10834&#45;&gt;22927</title>
<path fill="none" stroke="#000000" d="M408.127,-489.8278C414.5027,-487.4612 421.4079,-484.8982 428.1369,-482.4005"/>
<polygon fill="#000000" stroke="#000000" points="429.6305,-485.5795 437.7875,-478.8184 427.1946,-479.017 429.6305,-485.5795"/>
</g>
<!-- 12956&#45;&gt;3356 -->
<g id="edge36" class="edge">
<title>12956&#45;&gt;3356</title>
<path fill="none" stroke="#000000" d="M342.5731,-401.4483C340.0553,-390.3487 336.7893,-375.9512 333.9532,-363.4485"/>
<polygon fill="#000000" stroke="#000000" points="337.3234,-362.4838 331.6978,-353.5059 330.4968,-364.0324 337.3234,-362.4838"/>
</g>
<!-- 18540 -->
<g id="node29" class="node">
<title>18540</title>
<ellipse fill="none" stroke="#000000" cx="367.4146" cy="-122.9736" rx="32.4942" ry="18"/>
<text text-anchor="middle" x="367.4146" y="-119.2736" font-family="Times,serif" font-size="14.00" fill="#000000">18540</text>
</g>
<!-- 30070&#45;&gt;2828 -->
<g id="edge37" class="edge">
<title>30070&#45;&gt;2828</title>
<path fill="none" stroke="#000000" d="M391.4824,-168.0849C394.8567,-155.2635 399.4616,-137.766 403.3151,-123.1239"/>
<polygon fill="#000000" stroke="#000000" points="406.7994,-123.636 405.9598,-113.0745 400.0299,-121.8544 406.7994,-123.636"/>
</g>
<!-- 30070&#45;&gt;6904 -->
<g id="edge38" class="edge">
<title>30070&#45;&gt;6904</title>
<path fill="none" stroke="#000000" d="M409.9777,-173.3146C415.844,-170.0995 422.232,-166.5986 428.3973,-163.2197"/>
<polygon fill="#000000" stroke="#000000" points="430.097,-166.2794 437.1842,-158.404 426.7327,-160.1408 430.097,-166.2794"/>
</g>
<!-- 30070&#45;&gt;7016 -->
<g id="edge39" class="edge">
<title>30070&#45;&gt;7016</title>
<path fill="none" stroke="#000000" d="M415.0373,-195.1289C419.4116,-196.5346 423.9764,-198.0015 428.4831,-199.4497"/>
<polygon fill="#000000" stroke="#000000" points="427.5686,-202.832 438.1599,-202.5594 429.7102,-196.1677 427.5686,-202.832"/>
</g>
<!-- 30070&#45;&gt;18540 -->
<g id="edge40" class="edge">
<title>30070&#45;&gt;18540</title>
<path fill="none" stroke="#000000" d="M381.2659,-168.137C379.6059,-162.7246 377.7425,-156.6487 375.9336,-150.7508"/>
<polygon fill="#000000" stroke="#000000" points="379.2648,-149.6755 372.9865,-141.1413 372.5725,-151.728 379.2648,-149.6755"/>
</g>
</g>
</svg>
