<?xml version="1.0" encoding="UTF-8" standalone="no"?>
<!DOCTYPE svg PUBLIC "-//W3C//DTD SVG 1.1//EN"
 "http://www.w3.org/Graphics/SVG/1.1/DTD/svg11.dtd">
<!-- Generated by graphviz version 2.40.1 (20161225.0304)
 -->
<!-- Title: %3 Pages: 1 -->
<svg width="1547pt" height="1511pt"
 viewBox="0.00 0.00 1546.59 1510.71" xmlns="http://www.w3.org/2000/svg" xmlns:xlink="http://www.w3.org/1999/xlink">
<g id="graph0" class="graph" transform="scale(1 1) rotate(0) translate(4 1506.7104)">
<title>%3</title>
<polygon fill="#ffffff" stroke="transparent" points="-4,4 -4,-1506.7104 1542.5929,-1506.7104 1542.5929,4 -4,4"/>
<!-- 174 -->
<g id="node1" class="node">
<title>174</title>
<ellipse fill="none" stroke="#000000" cx="688.6572" cy="-697.4813" rx="27" ry="18"/>
<text text-anchor="middle" x="688.6572" y="-693.7813" font-family="Times,serif" font-size="14.00" fill="#000000">174</text>
</g>
<!-- 209 -->
<g id="node2" class="node">
<title>209</title>
<ellipse fill="none" stroke="#000000" cx="636.7475" cy="-638.6701" rx="27" ry="18"/>
<text text-anchor="middle" x="636.7475" y="-634.9701" font-family="Times,serif" font-size="14.00" fill="#000000">209</text>
</g>
<!-- 174&#45;&gt;209 -->
<g id="edge1" class="edge">
<title>174&#45;&gt;209</title>
<path fill="none" stroke="#000000" d="M674.7464,-681.7209C669.5096,-675.7879 663.4323,-668.9026 657.6944,-662.4019"/>
<polygon fill="#000000" stroke="#000000" points="659.9383,-659.6551 650.6968,-654.4739 654.6902,-664.2873 659.9383,-659.6551"/>
</g>
<!-- 1299 -->
<g id="node7" class="node">
<title>1299</title>
<ellipse fill="none" stroke="#000000" cx="584.0289" cy="-579.7541" rx="28.6953" ry="18"/>
<text text-anchor="middle" x="584.0289" y="-576.0541" font-family="Times,serif" font-size="14.00" fill="#000000">1299</text>
</g>
<!-- 209&#45;&gt;1299 -->
<g id="edge2" class="edge">
<title>209&#45;&gt;1299</title>
<path fill="none" stroke="#000000" d="M622.8963,-623.1906C617.4584,-617.1135 611.096,-610.0031 605.1118,-603.3154"/>
<polygon fill="#000000" stroke="#000000" points="607.6153,-600.8644 598.3388,-595.7462 602.3988,-605.5322 607.6153,-600.8644"/>
</g>
<!-- 701 -->
<g id="node3" class="node">
<title>701</title>
<ellipse fill="none" stroke="#000000" cx="428.379" cy="-385.7928" rx="27" ry="18"/>
<text text-anchor="middle" x="428.379" y="-382.0928" font-family="Times,serif" font-size="14.00" fill="#000000">701</text>
</g>
<!-- 703 -->
<g id="node4" class="node">
<title>703</title>
<ellipse fill="none" stroke="#000000" cx="334.9052" cy="-375.2205" rx="27" ry="18"/>
<text text-anchor="middle" x="334.9052" y="-371.5205" font-family="Times,serif" font-size="14.00" fill="#000000">703</text>
</g>
<!-- 701&#45;&gt;703 -->
<g id="edge3" class="edge">
<title>701&#45;&gt;703</title>
<path fill="none" stroke="#000000" d="M401.5932,-382.7632C392.304,-381.7125 381.7204,-380.5155 371.7636,-379.3893"/>
<polygon fill="#000000" stroke="#000000" points="372.025,-375.8966 361.695,-378.2505 371.2382,-382.8523 372.025,-375.8966"/>
</g>
<!-- 7018 -->
<g id="node32" class="node">
<title>7018</title>
<ellipse fill="none" stroke="#000000" cx="492.0522" cy="-320.1848" rx="28.6953" ry="18"/>
<text text-anchor="middle" x="492.0522" y="-316.4848" font-family="Times,serif" font-size="14.00" fill="#000000">7018</text>
</g>
<!-- 701&#45;&gt;7018 -->
<g id="edge4" class="edge">
<title>701&#45;&gt;7018</title>
<path fill="none" stroke="#000000" d="M443.147,-370.5761C451.0685,-362.4138 460.9918,-352.189 469.8257,-343.0866"/>
<polygon fill="#000000" stroke="#000000" points="472.4693,-345.3882 476.9222,-335.7745 467.446,-340.5131 472.4693,-345.3882"/>
</g>
<!-- 2516 -->
<g id="node9" class="node">
<title>2516</title>
<ellipse fill="none" stroke="#000000" cx="268.3283" cy="-435.1086" rx="28.6953" ry="18"/>
<text text-anchor="middle" x="268.3283" y="-431.4086" font-family="Times,serif" font-size="14.00" fill="#000000">2516</text>
</g>
<!-- 703&#45;&gt;2516 -->
<g id="edge5" class="edge">
<title>703&#45;&gt;2516</title>
<path fill="none" stroke="#000000" d="M318.7888,-389.7177C310.8119,-396.8932 301.0233,-405.6984 292.1974,-413.6376"/>
<polygon fill="#000000" stroke="#000000" points="289.8528,-411.0389 284.7588,-420.3288 294.5342,-416.2432 289.8528,-411.0389"/>
</g>
<!-- 9498 -->
<g id="node37" class="node">
<title>9498</title>
<ellipse fill="none" stroke="#000000" cx="293.2445" cy="-298.1876" rx="28.6953" ry="18"/>
<text text-anchor="middle" x="293.2445" y="-294.4876" font-family="Times,serif" font-size="14.00" fill="#000000">9498</text>
</g>
<!-- 703&#45;&gt;9498 -->
<g id="edge6" class="edge">
<title>703&#45;&gt;9498</title>
<path fill="none" stroke="#000000" d="M325.6594,-358.1244C320.2657,-348.1512 313.3526,-335.3686 307.2972,-324.1717"/>
<polygon fill="#000000" stroke="#000000" points="310.3002,-322.3669 302.4645,-315.2359 304.143,-325.6969 310.3002,-322.3669"/>
</g>
<!-- 1239 -->
<g id="node5" class="node">
<title>1239</title>
<ellipse fill="none" stroke="#000000" cx="625.1331" cy="-99.7904" rx="28.6953" ry="18"/>
<text text-anchor="middle" x="625.1331" y="-96.0904" font-family="Times,serif" font-size="14.00" fill="#000000">1239</text>
</g>
<!-- 5511 -->
<g id="node24" class="node">
<title>5511</title>
<ellipse fill="none" stroke="#000000" cx="696.985" cy="-65.1214" rx="28.6953" ry="18"/>
<text text-anchor="middle" x="696.985" y="-61.4214" font-family="Times,serif" font-size="14.00" fill="#000000">5511</text>
</g>
<!-- 1239&#45;&gt;5511 -->
<g id="edge7" class="edge">
<title>1239&#45;&gt;5511</title>
<path fill="none" stroke="#000000" d="M647.8675,-88.8209C653.2406,-86.2284 659.0708,-83.4152 664.7748,-80.663"/>
<polygon fill="#000000" stroke="#000000" points="666.6665,-83.6365 674.1519,-76.1385 663.6245,-77.332 666.6665,-83.6365"/>
</g>
<!-- 17676 -->
<g id="node45" class="node">
<title>17676</title>
<ellipse fill="none" stroke="#000000" cx="614.3066" cy="-18" rx="32.4942" ry="18"/>
<text text-anchor="middle" x="614.3066" y="-14.3" font-family="Times,serif" font-size="14.00" fill="#000000">17676</text>
</g>
<!-- 1239&#45;&gt;17676 -->
<g id="edge8" class="edge">
<title>1239&#45;&gt;17676</title>
<path fill="none" stroke="#000000" d="M622.7303,-81.6385C621.3567,-71.2611 619.6039,-58.019 618.0532,-46.3042"/>
<polygon fill="#000000" stroke="#000000" points="621.4847,-45.5554 616.7027,-36.1012 614.5452,-46.474 621.4847,-45.5554"/>
</g>
<!-- 1273 -->
<g id="node6" class="node">
<title>1273</title>
<ellipse fill="none" stroke="#000000" cx="589.6938" cy="-176.1864" rx="28.6953" ry="18"/>
<text text-anchor="middle" x="589.6938" y="-172.4864" font-family="Times,serif" font-size="14.00" fill="#000000">1273</text>
</g>
<!-- 1273&#45;&gt;1239 -->
<g id="edge9" class="edge">
<title>1273&#45;&gt;1239</title>
<path fill="none" stroke="#000000" d="M597.7356,-158.8509C602.1448,-149.346 607.7073,-137.355 612.6663,-126.6648"/>
<polygon fill="#000000" stroke="#000000" points="615.9673,-127.866 617.0005,-117.3217 609.6173,-124.9203 615.9673,-127.866"/>
</g>
<!-- 6461 -->
<g id="node27" class="node">
<title>6461</title>
<ellipse fill="none" stroke="#000000" cx="530.9018" cy="-519.5692" rx="28.6953" ry="18"/>
<text text-anchor="middle" x="530.9018" y="-515.8692" font-family="Times,serif" font-size="14.00" fill="#000000">6461</text>
</g>
<!-- 1299&#45;&gt;6461 -->
<g id="edge10" class="edge">
<title>1299&#45;&gt;6461</title>
<path fill="none" stroke="#000000" d="M570.0704,-563.9412C564.502,-557.6331 557.9715,-550.2351 551.8566,-543.3078"/>
<polygon fill="#000000" stroke="#000000" points="554.1933,-540.6662 544.9515,-535.4854 548.9454,-545.2987 554.1933,-540.6662"/>
</g>
<!-- 2497 -->
<g id="node8" class="node">
<title>2497</title>
<ellipse fill="none" stroke="#000000" cx="477.6136" cy="-456.6526" rx="28.6953" ry="18"/>
<text text-anchor="middle" x="477.6136" y="-452.9526" font-family="Times,serif" font-size="14.00" fill="#000000">2497</text>
</g>
<!-- 2497&#45;&gt;701 -->
<g id="edge11" class="edge">
<title>2497&#45;&gt;701</title>
<path fill="none" stroke="#000000" d="M465.9457,-439.8598C459.9368,-431.2116 452.4888,-420.4923 445.8133,-410.8846"/>
<polygon fill="#000000" stroke="#000000" points="448.5435,-408.6802 439.9632,-402.465 442.7949,-412.6744 448.5435,-408.6802"/>
</g>
<!-- 32787 -->
<g id="node51" class="node">
<title>32787</title>
<ellipse fill="none" stroke="#000000" cx="191.0211" cy="-478.1367" rx="32.4942" ry="18"/>
<text text-anchor="middle" x="191.0211" y="-474.4367" font-family="Times,serif" font-size="14.00" fill="#000000">32787</text>
</g>
<!-- 2516&#45;&gt;32787 -->
<g id="edge12" class="edge">
<title>2516&#45;&gt;32787</title>
<path fill="none" stroke="#000000" d="M246.7939,-447.0943C239.3929,-451.2136 230.9426,-455.917 222.8968,-460.3952"/>
<polygon fill="#000000" stroke="#000000" points="221.0976,-457.3909 214.0621,-465.3125 224.502,-463.5073 221.0976,-457.3909"/>
</g>
<!-- 2686 -->
<g id="node10" class="node">
<title>2686</title>
<ellipse fill="none" stroke="#000000" cx="1350.71" cy="-891.6163" rx="28.6953" ry="18"/>
<text text-anchor="middle" x="1350.71" y="-887.9163" font-family="Times,serif" font-size="14.00" fill="#000000">2686</text>
</g>
<!-- 3741 -->
<g id="node21" class="node">
<title>3741</title>
<ellipse fill="none" stroke="#000000" cx="1429.3105" cy="-875.7096" rx="28.6953" ry="18"/>
<text text-anchor="middle" x="1429.3105" y="-872.0096" font-family="Times,serif" font-size="14.00" fill="#000000">3741</text>
</g>
<!-- 2686&#45;&gt;3741 -->
<g id="edge13" class="edge">
<title>2686&#45;&gt;3741</title>
<path fill="none" stroke="#000000" d="M1378.2007,-886.0529C1382.6539,-885.1517 1387.3302,-884.2053 1391.97,-883.2664"/>
<polygon fill="#000000" stroke="#000000" points="1392.8611,-886.6571 1401.9681,-881.243 1391.4725,-879.7961 1392.8611,-886.6571"/>
</g>
<!-- 2687 -->
<g id="node11" class="node">
<title>2687</title>
<ellipse fill="none" stroke="#000000" cx="1286.9123" cy="-942.943" rx="28.6953" ry="18"/>
<text text-anchor="middle" x="1286.9123" y="-939.243" font-family="Times,serif" font-size="14.00" fill="#000000">2687</text>
</g>
<!-- 2687&#45;&gt;2686 -->
<g id="edge14" class="edge">
<title>2687&#45;&gt;2686</title>
<path fill="none" stroke="#000000" d="M1304.6835,-928.6457C1311.0435,-923.5289 1318.3425,-917.6567 1325.2258,-912.1189"/>
<polygon fill="#000000" stroke="#000000" points="1327.4366,-914.8324 1333.0341,-905.837 1323.0487,-909.3784 1327.4366,-914.8324"/>
</g>
<!-- 9505 -->
<g id="node38" class="node">
<title>9505</title>
<ellipse fill="none" stroke="#000000" cx="1353.4063" cy="-991.4715" rx="28.6953" ry="18"/>
<text text-anchor="middle" x="1353.4063" y="-987.7715" font-family="Times,serif" font-size="14.00" fill="#000000">9505</text>
</g>
<!-- 2687&#45;&gt;9505 -->
<g id="edge15" class="edge">
<title>2687&#45;&gt;9505</title>
<path fill="none" stroke="#000000" d="M1305.789,-956.7196C1312.1602,-961.3694 1319.4033,-966.6556 1326.2839,-971.6772"/>
<polygon fill="#000000" stroke="#000000" points="1324.5717,-974.7605 1334.7126,-977.8286 1328.6983,-969.1062 1324.5717,-974.7605"/>
</g>
<!-- 2764 -->
<g id="node12" class="node">
<title>2764</title>
<ellipse fill="none" stroke="#000000" cx="115.3686" cy="-524.9743" rx="28.6953" ry="18"/>
<text text-anchor="middle" x="115.3686" y="-521.2743" font-family="Times,serif" font-size="14.00" fill="#000000">2764</text>
</g>
<!-- 7545 -->
<g id="node35" class="node">
<title>7545</title>
<ellipse fill="none" stroke="#000000" cx="110.3993" cy="-603.2562" rx="28.6953" ry="18"/>
<text text-anchor="middle" x="110.3993" y="-599.5562" font-family="Times,serif" font-size="14.00" fill="#000000">7545</text>
</g>
<!-- 2764&#45;&gt;7545 -->
<g id="edge16" class="edge">
<title>2764&#45;&gt;7545</title>
<path fill="none" stroke="#000000" d="M114.2161,-543.1305C113.614,-552.6155 112.8637,-564.4347 112.1881,-575.0776"/>
<polygon fill="#000000" stroke="#000000" points="108.6863,-574.9968 111.5456,-585.1985 115.6722,-575.4403 108.6863,-574.9968"/>
</g>
<!-- 38333 -->
<g id="node53" class="node">
<title>38333</title>
<ellipse fill="none" stroke="#000000" cx="44.9498" cy="-565.5788" rx="32.4942" ry="18"/>
<text text-anchor="middle" x="44.9498" y="-561.8788" font-family="Times,serif" font-size="14.00" fill="#000000">38333</text>
</g>
<!-- 2764&#45;&gt;38333 -->
<g id="edge17" class="edge">
<title>2764&#45;&gt;38333</title>
<path fill="none" stroke="#000000" d="M94.2407,-537.157C88.5791,-540.4216 82.3359,-544.0215 76.2504,-547.5305"/>
<polygon fill="#000000" stroke="#000000" points="74.4481,-544.5295 67.5334,-552.5568 77.9448,-550.5936 74.4481,-544.5295"/>
</g>
<!-- 38561 -->
<g id="node54" class="node">
<title>38561</title>
<ellipse fill="none" stroke="#000000" cx="32.4971" cy="-495.0682" rx="32.4942" ry="18"/>
<text text-anchor="middle" x="32.4971" y="-491.3682" font-family="Times,serif" font-size="14.00" fill="#000000">38561</text>
</g>
<!-- 2764&#45;&gt;38561 -->
<g id="edge18" class="edge">
<title>2764&#45;&gt;38561</title>
<path fill="none" stroke="#000000" d="M90.5044,-516.0015C83.8834,-513.6121 76.5864,-510.9789 69.4674,-508.4098"/>
<polygon fill="#000000" stroke="#000000" points="70.5444,-505.0776 59.9501,-504.9752 68.1682,-511.6619 70.5444,-505.0776"/>
</g>
<!-- 2828 -->
<g id="node13" class="node">
<title>2828</title>
<ellipse fill="none" stroke="#000000" cx="346.9213" cy="-138.0213" rx="28.6953" ry="18"/>
<text text-anchor="middle" x="346.9213" y="-134.3213" font-family="Times,serif" font-size="14.00" fill="#000000">2828</text>
</g>
<!-- 2914 -->
<g id="node14" class="node">
<title>2914</title>
<ellipse fill="none" stroke="#000000" cx="906.366" cy="-928.5942" rx="28.6953" ry="18"/>
<text text-anchor="middle" x="906.366" y="-924.8942" font-family="Times,serif" font-size="14.00" fill="#000000">2914</text>
</g>
<!-- 6453 -->
<g id="node26" class="node">
<title>6453</title>
<ellipse fill="none" stroke="#000000" cx="849.9085" cy="-870.3293" rx="28.6953" ry="18"/>
<text text-anchor="middle" x="849.9085" y="-866.6293" font-family="Times,serif" font-size="14.00" fill="#000000">6453</text>
</g>
<!-- 2914&#45;&gt;6453 -->
<g id="edge19" class="edge">
<title>2914&#45;&gt;6453</title>
<path fill="none" stroke="#000000" d="M891.2364,-912.9803C885.4142,-906.9718 878.6369,-899.9774 872.275,-893.4119"/>
<polygon fill="#000000" stroke="#000000" points="874.5522,-890.7324 865.0798,-885.9863 869.5251,-895.6035 874.5522,-890.7324"/>
</g>
<!-- 3257 -->
<g id="node15" class="node">
<title>3257</title>
<ellipse fill="none" stroke="#000000" cx="794.9105" cy="-812.952" rx="28.6953" ry="18"/>
<text text-anchor="middle" x="794.9105" y="-809.252" font-family="Times,serif" font-size="14.00" fill="#000000">3257</text>
</g>
<!-- 3491 -->
<g id="node18" class="node">
<title>3491</title>
<ellipse fill="none" stroke="#000000" cx="741.1489" cy="-755.5851" rx="28.6953" ry="18"/>
<text text-anchor="middle" x="741.1489" y="-751.8851" font-family="Times,serif" font-size="14.00" fill="#000000">3491</text>
</g>
<!-- 3257&#45;&gt;3491 -->
<g id="edge20" class="edge">
<title>3257&#45;&gt;3491</title>
<path fill="none" stroke="#000000" d="M780.2199,-797.2762C774.8861,-791.5848 768.74,-785.0264 762.9247,-778.8212"/>
<polygon fill="#000000" stroke="#000000" points="765.2137,-776.1452 755.8217,-771.2419 760.106,-780.9319 765.2137,-776.1452"/>
</g>
<!-- 3320 -->
<g id="node16" class="node">
<title>3320</title>
<ellipse fill="none" stroke="#000000" cx="546.5401" cy="-250.2831" rx="28.6953" ry="18"/>
<text text-anchor="middle" x="546.5401" y="-246.5831" font-family="Times,serif" font-size="14.00" fill="#000000">3320</text>
</g>
<!-- 3320&#45;&gt;1273 -->
<g id="edge21" class="edge">
<title>3320&#45;&gt;1273</title>
<path fill="none" stroke="#000000" d="M556.5489,-233.0976C561.8865,-223.9327 568.5651,-212.4653 574.5259,-202.2303"/>
<polygon fill="#000000" stroke="#000000" points="577.731,-203.6815 579.7393,-193.2787 571.6821,-200.1586 577.731,-203.6815"/>
</g>
<!-- 3356 -->
<g id="node17" class="node">
<title>3356</title>
<ellipse fill="none" stroke="#000000" cx="1012.8555" cy="-1131.7981" rx="28.6953" ry="18"/>
<text text-anchor="middle" x="1012.8555" y="-1128.0981" font-family="Times,serif" font-size="14.00" fill="#000000">3356</text>
</g>
<!-- 3549 -->
<g id="node19" class="node">
<title>3549</title>
<ellipse fill="none" stroke="#000000" cx="1035.6751" cy="-1045.2881" rx="28.6953" ry="18"/>
<text text-anchor="middle" x="1035.6751" y="-1041.5881" font-family="Times,serif" font-size="14.00" fill="#000000">3549</text>
</g>
<!-- 3356&#45;&gt;3549 -->
<g id="edge22" class="edge">
<title>3356&#45;&gt;3549</title>
<path fill="none" stroke="#000000" d="M1017.5838,-1113.8732C1020.7047,-1102.0418 1024.8553,-1086.3065 1028.3937,-1072.8924"/>
<polygon fill="#000000" stroke="#000000" points="1031.7866,-1073.7521 1030.953,-1063.1901 1025.0181,-1071.9666 1031.7866,-1073.7521"/>
</g>
<!-- 3491&#45;&gt;174 -->
<g id="edge23" class="edge">
<title>3491&#45;&gt;174</title>
<path fill="none" stroke="#000000" d="M726.8053,-739.708C721.5121,-733.8489 715.3995,-727.0827 709.6396,-720.707"/>
<polygon fill="#000000" stroke="#000000" points="711.9214,-718.0116 702.6206,-712.9376 706.7271,-722.7042 711.9214,-718.0116"/>
</g>
<!-- 6762 -->
<g id="node28" class="node">
<title>6762</title>
<ellipse fill="none" stroke="#000000" cx="966.7694" cy="-987.2633" rx="28.6953" ry="18"/>
<text text-anchor="middle" x="966.7694" y="-983.5633" font-family="Times,serif" font-size="14.00" fill="#000000">6762</text>
</g>
<!-- 3549&#45;&gt;6762 -->
<g id="edge24" class="edge">
<title>3549&#45;&gt;6762</title>
<path fill="none" stroke="#000000" d="M1018.2873,-1030.646C1010.2288,-1023.8601 1000.504,-1015.6709 991.6844,-1008.244"/>
<polygon fill="#000000" stroke="#000000" points="993.8166,-1005.4638 983.9129,-1001.6998 989.3077,-1010.8183 993.8166,-1005.4638"/>
</g>
<!-- 30070 -->
<g id="node50" class="node">
<title>30070</title>
<ellipse fill="none" stroke="#000000" cx="1122.9851" cy="-1011.683" rx="32.4942" ry="18"/>
<text text-anchor="middle" x="1122.9851" y="-1007.983" font-family="Times,serif" font-size="14.00" fill="#000000">30070</text>
</g>
<!-- 3549&#45;&gt;30070 -->
<g id="edge25" class="edge">
<title>3549&#45;&gt;30070</title>
<path fill="none" stroke="#000000" d="M1060.4611,-1035.7481C1068.6064,-1032.6131 1077.8368,-1029.0603 1086.6565,-1025.6657"/>
<polygon fill="#000000" stroke="#000000" points="1087.9195,-1028.9299 1095.9949,-1022.0714 1085.4051,-1022.3971 1087.9195,-1028.9299"/>
</g>
<!-- 3597 -->
<g id="node20" class="node">
<title>3597</title>
<ellipse fill="none" stroke="#000000" cx="913.5063" cy="-1378.8626" rx="28.6953" ry="18"/>
<text text-anchor="middle" x="913.5063" y="-1375.1626" font-family="Times,serif" font-size="14.00" fill="#000000">3597</text>
</g>
<!-- 37179 -->
<g id="node52" class="node">
<title>37179</title>
<ellipse fill="none" stroke="#000000" cx="1506.0958" cy="-870.9187" rx="32.4942" ry="18"/>
<text text-anchor="middle" x="1506.0958" y="-867.2187" font-family="Times,serif" font-size="14.00" fill="#000000">37179</text>
</g>
<!-- 3741&#45;&gt;37179 -->
<g id="edge26" class="edge">
<title>3741&#45;&gt;37179</title>
<path fill="none" stroke="#000000" d="M1457.9025,-873.9256C1459.6613,-873.8159 1461.4496,-873.7043 1463.2511,-873.5919"/>
<polygon fill="#000000" stroke="#000000" points="1463.8389,-877.0622 1473.6015,-872.9461 1463.4029,-870.0757 1463.8389,-877.0622"/>
</g>
<!-- 4637 -->
<g id="node22" class="node">
<title>4637</title>
<ellipse fill="none" stroke="#000000" cx="340.0715" cy="-221.1035" rx="28.6953" ry="18"/>
<text text-anchor="middle" x="340.0715" y="-217.4035" font-family="Times,serif" font-size="14.00" fill="#000000">4637</text>
</g>
<!-- 4637&#45;&gt;2828 -->
<g id="edge27" class="edge">
<title>4637&#45;&gt;2828</title>
<path fill="none" stroke="#000000" d="M341.5578,-203.0759C342.4464,-192.2976 343.5947,-178.3702 344.6006,-166.169"/>
<polygon fill="#000000" stroke="#000000" points="348.1043,-166.2675 345.4379,-156.0137 341.128,-165.6923 348.1043,-166.2675"/>
</g>
<!-- 4755 -->
<g id="node23" class="node">
<title>4755</title>
<ellipse fill="none" stroke="#000000" cx="135.4937" cy="-237.2463" rx="28.6953" ry="18"/>
<text text-anchor="middle" x="135.4937" y="-233.5463" font-family="Times,serif" font-size="14.00" fill="#000000">4755</text>
</g>
<!-- 9583 -->
<g id="node39" class="node">
<title>9583</title>
<ellipse fill="none" stroke="#000000" cx="61.4131" cy="-206.8049" rx="28.6953" ry="18"/>
<text text-anchor="middle" x="61.4131" y="-203.1049" font-family="Times,serif" font-size="14.00" fill="#000000">9583</text>
</g>
<!-- 4755&#45;&gt;9583 -->
<g id="edge28" class="edge">
<title>4755&#45;&gt;9583</title>
<path fill="none" stroke="#000000" d="M111.237,-227.2786C106.0678,-225.1545 100.52,-222.8748 95.0707,-220.6355"/>
<polygon fill="#000000" stroke="#000000" points="96.0512,-217.2545 85.4714,-216.6909 93.3906,-223.7292 96.0512,-217.2545"/>
</g>
<!-- 5692 -->
<g id="node25" class="node">
<title>5692</title>
<ellipse fill="none" stroke="#000000" cx="973.1669" cy="-1403.8296" rx="28.6953" ry="18"/>
<text text-anchor="middle" x="973.1669" y="-1400.1296" font-family="Times,serif" font-size="14.00" fill="#000000">5692</text>
</g>
<!-- 5692&#45;&gt;3597 -->
<g id="edge29" class="edge">
<title>5692&#45;&gt;3597</title>
<path fill="none" stroke="#000000" d="M949.2444,-1393.8184C948.3934,-1393.4623 947.5357,-1393.1034 946.6743,-1392.7429"/>
<polygon fill="#000000" stroke="#000000" points="948.0101,-1389.5078 937.4341,-1388.876 945.3078,-1395.9652 948.0101,-1389.5078"/>
</g>
<!-- 10834 -->
<g id="node41" class="node">
<title>10834</title>
<ellipse fill="none" stroke="#000000" cx="1006.3676" cy="-1304.8064" rx="32.4942" ry="18"/>
<text text-anchor="middle" x="1006.3676" y="-1301.1064" font-family="Times,serif" font-size="14.00" fill="#000000">10834</text>
</g>
<!-- 5692&#45;&gt;10834 -->
<g id="edge30" class="edge">
<title>5692&#45;&gt;10834</title>
<path fill="none" stroke="#000000" d="M979.1025,-1386.1262C984.123,-1371.1522 991.4005,-1349.4468 997.1742,-1332.2264"/>
<polygon fill="#000000" stroke="#000000" points="1000.5109,-1333.2843 1000.3714,-1322.6903 993.874,-1331.059 1000.5109,-1333.2843"/>
</g>
<!-- 11008 -->
<g id="node42" class="node">
<title>11008</title>
<ellipse fill="none" stroke="#000000" cx="911.5796" cy="-1472.1838" rx="32.4942" ry="18"/>
<text text-anchor="middle" x="911.5796" y="-1468.4838" font-family="Times,serif" font-size="14.00" fill="#000000">11008</text>
</g>
<!-- 5692&#45;&gt;11008 -->
<g id="edge31" class="edge">
<title>5692&#45;&gt;11008</title>
<path fill="none" stroke="#000000" d="M958.8827,-1419.6832C951.2207,-1428.1871 941.6225,-1438.8399 933.078,-1448.3233"/>
<polygon fill="#000000" stroke="#000000" points="930.3075,-1446.1693 926.214,-1455.9414 935.508,-1450.855 930.3075,-1446.1693"/>
</g>
<!-- 27865 -->
<g id="node48" class="node">
<title>27865</title>
<ellipse fill="none" stroke="#000000" cx="1036.0649" cy="-1381.5673" rx="32.4942" ry="18"/>
<text text-anchor="middle" x="1036.0649" y="-1377.8673" font-family="Times,serif" font-size="14.00" fill="#000000">27865</text>
</g>
<!-- 5692&#45;&gt;27865 -->
<g id="edge32" class="edge">
<title>5692&#45;&gt;27865</title>
<path fill="none" stroke="#000000" d="M998.3875,-1394.9029C998.49,-1394.8666 998.5927,-1394.8303 998.6954,-1394.794"/>
<polygon fill="#000000" stroke="#000000" points="1000.1034,-1398.0084 1008.3625,-1391.3724 997.7677,-1391.4096 1000.1034,-1398.0084"/>
</g>
<!-- 28065 -->
<g id="node49" class="node">
<title>28065</title>
<ellipse fill="none" stroke="#000000" cx="1061.789" cy="-1412.344" rx="32.4942" ry="18"/>
<text text-anchor="middle" x="1061.789" y="-1408.644" font-family="Times,serif" font-size="14.00" fill="#000000">28065</text>
</g>
<!-- 5692&#45;&gt;28065 -->
<g id="edge33" class="edge">
<title>5692&#45;&gt;28065</title>
<path fill="none" stroke="#000000" d="M1001.6953,-1406.5705C1007.4004,-1407.1186 1013.507,-1407.7053 1019.5617,-1408.287"/>
<polygon fill="#000000" stroke="#000000" points="1019.3331,-1411.781 1029.6221,-1409.2535 1020.0027,-1404.8131 1019.3331,-1411.781"/>
</g>
<!-- 52317 -->
<g id="node55" class="node">
<title>52317</title>
<ellipse fill="none" stroke="#000000" cx="1024.6053" cy="-1473.8784" rx="32.4942" ry="18"/>
<text text-anchor="middle" x="1024.6053" y="-1470.1784" font-family="Times,serif" font-size="14.00" fill="#000000">52317</text>
</g>
<!-- 5692&#45;&gt;52317 -->
<g id="edge34" class="edge">
<title>5692&#45;&gt;52317</title>
<path fill="none" stroke="#000000" d="M985.3571,-1420.4302C991.544,-1428.8555 999.1911,-1439.2693 1006.087,-1448.6601"/>
<polygon fill="#000000" stroke="#000000" points="1003.4054,-1450.9217 1012.1453,-1456.9104 1009.0475,-1446.7785 1003.4054,-1450.9217"/>
</g>
<!-- 52375 -->
<g id="node56" class="node">
<title>52375</title>
<ellipse fill="none" stroke="#000000" cx="961.0476" cy="-1347.2146" rx="32.4942" ry="18"/>
<text text-anchor="middle" x="961.0476" y="-1343.5146" font-family="Times,serif" font-size="14.00" fill="#000000">52375</text>
</g>
<!-- 5692&#45;&gt;52375 -->
<g id="edge35" class="edge">
<title>5692&#45;&gt;52375</title>
<path fill="none" stroke="#000000" d="M969.3323,-1385.9162C968.6028,-1382.5087 967.8234,-1378.8677 967.0454,-1375.2331"/>
<polygon fill="#000000" stroke="#000000" points="970.4146,-1374.2516 964.8989,-1365.2057 963.5697,-1375.7169 970.4146,-1374.2516"/>
</g>
<!-- 52376 -->
<g id="node57" class="node">
<title>52376</title>
<ellipse fill="none" stroke="#000000" cx="896.5164" cy="-1351.6501" rx="32.4942" ry="18"/>
<text text-anchor="middle" x="896.5164" y="-1347.9501" font-family="Times,serif" font-size="14.00" fill="#000000">52376</text>
</g>
<!-- 5692&#45;&gt;52376 -->
<g id="edge36" class="edge">
<title>5692&#45;&gt;52376</title>
<path fill="none" stroke="#000000" d="M953.4275,-1390.3921C945.0238,-1384.6713 935.0471,-1377.8797 925.8121,-1371.593"/>
<polygon fill="#000000" stroke="#000000" points="927.4967,-1368.5058 917.2607,-1365.7717 923.5576,-1374.2923 927.4967,-1368.5058"/>
</g>
<!-- 52380 -->
<g id="node58" class="node">
<title>52380</title>
<ellipse fill="none" stroke="#000000" cx="951.6293" cy="-1484.1882" rx="32.4942" ry="18"/>
<text text-anchor="middle" x="951.6293" y="-1480.4882" font-family="Times,serif" font-size="14.00" fill="#000000">52380</text>
</g>
<!-- 5692&#45;&gt;52380 -->
<g id="edge37" class="edge">
<title>5692&#45;&gt;52380</title>
<path fill="none" stroke="#000000" d="M968.387,-1421.6638C965.6733,-1431.7886 962.2157,-1444.6892 959.1469,-1456.1394"/>
<polygon fill="#000000" stroke="#000000" points="955.6785,-1455.5608 956.4703,-1466.126 962.4399,-1457.373 955.6785,-1455.5608"/>
</g>
<!-- 52413 -->
<g id="node59" class="node">
<title>52413</title>
<ellipse fill="none" stroke="#000000" cx="1049.5313" cy="-1447.205" rx="32.4942" ry="18"/>
<text text-anchor="middle" x="1049.5313" y="-1443.505" font-family="Times,serif" font-size="14.00" fill="#000000">52413</text>
</g>
<!-- 5692&#45;&gt;52413 -->
<g id="edge38" class="edge">
<title>5692&#45;&gt;52413</title>
<path fill="none" stroke="#000000" d="M994.4386,-1415.912C1001.7494,-1420.0646 1010.0967,-1424.8059 1018.0444,-1429.3202"/>
<polygon fill="#000000" stroke="#000000" points="1016.3475,-1432.3815 1026.7714,-1434.2772 1019.8048,-1426.2949 1016.3475,-1432.3815"/>
</g>
<!-- 52431 -->
<g id="node60" class="node">
<title>52431</title>
<ellipse fill="none" stroke="#000000" cx="875.0686" cy="-1409.3454" rx="32.4942" ry="18"/>
<text text-anchor="middle" x="875.0686" y="-1405.6454" font-family="Times,serif" font-size="14.00" fill="#000000">52431</text>
</g>
<!-- 5692&#45;&gt;52431 -->
<g id="edge39" class="edge">
<title>5692&#45;&gt;52431</title>
<path fill="none" stroke="#000000" d="M944.5291,-1405.4398C936.1469,-1405.9111 926.7967,-1406.4369 917.7415,-1406.946"/>
<polygon fill="#000000" stroke="#000000" points="917.4982,-1403.4541 907.7105,-1407.51 917.8912,-1410.443 917.4982,-1403.4541"/>
</g>
<!-- 262230 -->
<g id="node61" class="node">
<title>262230</title>
<ellipse fill="none" stroke="#000000" cx="904.1984" cy="-1436.781" rx="37.0935" ry="18"/>
<text text-anchor="middle" x="904.1984" y="-1433.081" font-family="Times,serif" font-size="14.00" fill="#000000">262230</text>
</g>
<!-- 5692&#45;&gt;262230 -->
<g id="edge40" class="edge">
<title>5692&#45;&gt;262230</title>
<path fill="none" stroke="#000000" d="M950.2014,-1414.8019C946.8706,-1416.3933 943.3778,-1418.062 939.8687,-1419.7386"/>
<polygon fill="#000000" stroke="#000000" points="938.1557,-1416.678 930.6415,-1424.1471 941.1734,-1422.9942 938.1557,-1416.678"/>
</g>
<!-- 264608 -->
<g id="node62" class="node">
<title>264608</title>
<ellipse fill="none" stroke="#000000" cx="989.1093" cy="-1484.7104" rx="37.0935" ry="18"/>
<text text-anchor="middle" x="989.1093" y="-1481.0104" font-family="Times,serif" font-size="14.00" fill="#000000">264608</text>
</g>
<!-- 5692&#45;&gt;264608 -->
<g id="edge41" class="edge">
<title>5692&#45;&gt;264608</title>
<path fill="none" stroke="#000000" d="M976.705,-1421.7796C978.7137,-1431.9703 981.273,-1444.9547 983.5447,-1456.4794"/>
<polygon fill="#000000" stroke="#000000" points="980.158,-1457.3965 985.5259,-1466.5308 987.0259,-1456.0427 980.158,-1457.3965"/>
</g>
<!-- 6453&#45;&gt;3257 -->
<g id="edge42" class="edge">
<title>6453&#45;&gt;3257</title>
<path fill="none" stroke="#000000" d="M834.8801,-854.6507C829.4236,-848.9582 823.1361,-842.3987 817.1871,-836.1923"/>
<polygon fill="#000000" stroke="#000000" points="819.3674,-833.4089 809.9208,-828.6117 814.3139,-838.2528 819.3674,-833.4089"/>
</g>
<!-- 6461&#45;&gt;2497 -->
<g id="edge43" class="edge">
<title>6461&#45;&gt;2497</title>
<path fill="none" stroke="#000000" d="M517.1787,-503.3666C511.2907,-496.4147 504.2918,-488.1512 497.8295,-480.5212"/>
<polygon fill="#000000" stroke="#000000" points="500.2395,-477.9513 491.1057,-472.5825 494.8979,-482.4754 500.2395,-477.9513"/>
</g>
<!-- 6762&#45;&gt;2914 -->
<g id="edge44" class="edge">
<title>6762&#45;&gt;2914</title>
<path fill="none" stroke="#000000" d="M951.214,-972.1546C944.6424,-965.7717 936.8501,-958.2031 929.6196,-951.1802"/>
<polygon fill="#000000" stroke="#000000" points="931.6905,-948.3124 922.0786,-943.8557 926.8133,-953.3337 931.6905,-948.3124"/>
</g>
<!-- 6904 -->
<g id="node29" class="node">
<title>6904</title>
<ellipse fill="none" stroke="#000000" cx="1203.8582" cy="-966.1282" rx="28.6953" ry="18"/>
<text text-anchor="middle" x="1203.8582" y="-962.4282" font-family="Times,serif" font-size="14.00" fill="#000000">6904</text>
</g>
<!-- 6904&#45;&gt;2687 -->
<g id="edge45" class="edge">
<title>6904&#45;&gt;2687</title>
<path fill="none" stroke="#000000" d="M1230.137,-958.7922C1236.6508,-956.9739 1243.7458,-954.9933 1250.644,-953.0676"/>
<polygon fill="#000000" stroke="#000000" points="1251.8287,-956.3708 1260.5193,-950.3108 1249.9465,-949.6285 1251.8287,-956.3708"/>
</g>
<!-- 6939 -->
<g id="node30" class="node">
<title>6939</title>
<ellipse fill="none" stroke="#000000" cx="200.8108" cy="-156.3249" rx="28.6953" ry="18"/>
<text text-anchor="middle" x="200.8108" y="-152.6249" font-family="Times,serif" font-size="14.00" fill="#000000">6939</text>
</g>
<!-- 12266 -->
<g id="node43" class="node">
<title>12266</title>
<ellipse fill="none" stroke="#000000" cx="170.6828" cy="-81.7403" rx="32.4942" ry="18"/>
<text text-anchor="middle" x="170.6828" y="-78.0403" font-family="Times,serif" font-size="14.00" fill="#000000">12266</text>
</g>
<!-- 6939&#45;&gt;12266 -->
<g id="edge46" class="edge">
<title>6939&#45;&gt;12266</title>
<path fill="none" stroke="#000000" d="M193.6709,-138.6494C190.095,-129.797 185.6863,-118.8829 181.6894,-108.9882"/>
<polygon fill="#000000" stroke="#000000" points="184.8666,-107.5086 177.8759,-99.5474 178.3761,-110.1304 184.8666,-107.5086"/>
</g>
<!-- 7016 -->
<g id="node31" class="node">
<title>7016</title>
<ellipse fill="none" stroke="#000000" cx="1180.3497" cy="-1056.4682" rx="28.6953" ry="18"/>
<text text-anchor="middle" x="1180.3497" y="-1052.7682" font-family="Times,serif" font-size="14.00" fill="#000000">7016</text>
</g>
<!-- 7922 -->
<g id="node36" class="node">
<title>7922</title>
<ellipse fill="none" stroke="#000000" cx="1253.2426" cy="-1089.0786" rx="28.6953" ry="18"/>
<text text-anchor="middle" x="1253.2426" y="-1085.3786" font-family="Times,serif" font-size="14.00" fill="#000000">7922</text>
</g>
<!-- 7016&#45;&gt;7922 -->
<g id="edge47" class="edge">
<title>7016&#45;&gt;7922</title>
<path fill="none" stroke="#000000" d="M1203.8147,-1066.9659C1209.1472,-1069.3515 1214.906,-1071.9278 1220.544,-1074.4501"/>
<polygon fill="#000000" stroke="#000000" points="1219.2641,-1077.7117 1229.8216,-1078.6006 1222.1227,-1071.322 1219.2641,-1077.7117"/>
</g>
<!-- 7018&#45;&gt;3320 -->
<g id="edge48" class="edge">
<title>7018&#45;&gt;3320</title>
<path fill="none" stroke="#000000" d="M504.6898,-303.9722C511.4008,-295.3627 519.7907,-284.5995 527.2929,-274.9751"/>
<polygon fill="#000000" stroke="#000000" points="530.2052,-276.9319 533.5927,-266.8932 524.6843,-272.6284 530.2052,-276.9319"/>
</g>
<!-- 7473 -->
<g id="node33" class="node">
<title>7473</title>
<ellipse fill="none" stroke="#000000" cx="292.2332" cy="-247.9028" rx="28.6953" ry="18"/>
<text text-anchor="middle" x="292.2332" y="-244.2028" font-family="Times,serif" font-size="14.00" fill="#000000">7473</text>
</g>
<!-- 7474 -->
<g id="node34" class="node">
<title>7474</title>
<ellipse fill="none" stroke="#000000" cx="130.2217" cy="-433.9849" rx="28.6953" ry="18"/>
<text text-anchor="middle" x="130.2217" y="-430.2849" font-family="Times,serif" font-size="14.00" fill="#000000">7474</text>
</g>
<!-- 9498&#45;&gt;4637 -->
<g id="edge49" class="edge">
<title>9498&#45;&gt;4637</title>
<path fill="none" stroke="#000000" d="M303.6369,-281.0801C309.7601,-271.0005 317.6254,-258.0531 324.48,-246.7693"/>
<polygon fill="#000000" stroke="#000000" points="327.5075,-248.5269 329.7081,-238.1631 321.5248,-244.8926 327.5075,-248.5269"/>
</g>
<!-- 9498&#45;&gt;7473 -->
<g id="edge50" class="edge">
<title>9498&#45;&gt;7473</title>
<path fill="none" stroke="#000000" d="M292.8794,-280.0336C292.8568,-278.9083 292.8337,-277.7628 292.8105,-276.607"/>
<polygon fill="#000000" stroke="#000000" points="296.3016,-276.1266 292.6012,-266.199 289.303,-276.2674 296.3016,-276.1266"/>
</g>
<!-- 10026 -->
<g id="node40" class="node">
<title>10026</title>
<ellipse fill="none" stroke="#000000" cx="216.1006" cy="-242.675" rx="32.4942" ry="18"/>
<text text-anchor="middle" x="216.1006" y="-238.975" font-family="Times,serif" font-size="14.00" fill="#000000">10026</text>
</g>
<!-- 9498&#45;&gt;10026 -->
<g id="edge51" class="edge">
<title>9498&#45;&gt;10026</title>
<path fill="none" stroke="#000000" d="M274.1752,-284.4653C265.2028,-278.0088 254.3197,-270.1774 244.411,-263.0471"/>
<polygon fill="#000000" stroke="#000000" points="246.1879,-260.0137 236.0266,-257.0137 242.0992,-265.6956 246.1879,-260.0137"/>
</g>
<!-- 10026&#45;&gt;4755 -->
<g id="edge52" class="edge">
<title>10026&#45;&gt;4755</title>
<path fill="none" stroke="#000000" d="M183.7792,-240.4982C180.6393,-240.2867 177.4321,-240.0707 174.2379,-239.8556"/>
<polygon fill="#000000" stroke="#000000" points="174.3913,-236.3581 164.1787,-239.1781 173.9209,-243.3423 174.3913,-236.3581"/>
</g>
<!-- 10026&#45;&gt;6939 -->
<g id="edge53" class="edge">
<title>10026&#45;&gt;6939</title>
<path fill="none" stroke="#000000" d="M212.858,-224.3624C210.7968,-212.7214 208.0878,-197.4225 205.7609,-184.2808"/>
<polygon fill="#000000" stroke="#000000" points="209.1863,-183.5516 203.9962,-174.3151 202.2935,-184.7722 209.1863,-183.5516"/>
</g>
<!-- 12956 -->
<g id="node44" class="node">
<title>12956</title>
<ellipse fill="none" stroke="#000000" cx="1000.3465" cy="-1216.5003" rx="32.4942" ry="18"/>
<text text-anchor="middle" x="1000.3465" y="-1212.8003" font-family="Times,serif" font-size="14.00" fill="#000000">12956</text>
</g>
<!-- 10834&#45;&gt;12956 -->
<g id="edge54" class="edge">
<title>10834&#45;&gt;12956</title>
<path fill="none" stroke="#000000" d="M1005.12,-1286.5093C1004.3047,-1274.5506 1003.2229,-1258.6848 1002.2953,-1245.0811"/>
<polygon fill="#000000" stroke="#000000" points="1005.7647,-1244.5126 1001.5925,-1234.7739 998.781,-1244.9889 1005.7647,-1244.5126"/>
</g>
<!-- 22927 -->
<g id="node47" class="node">
<title>22927</title>
<ellipse fill="none" stroke="#000000" cx="1091.7789" cy="-1304.2877" rx="32.4942" ry="18"/>
<text text-anchor="middle" x="1091.7789" y="-1300.5877" font-family="Times,serif" font-size="14.00" fill="#000000">22927</text>
</g>
<!-- 10834&#45;&gt;22927 -->
<g id="edge55" class="edge">
<title>10834&#45;&gt;22927</title>
<path fill="none" stroke="#000000" d="M1039.1456,-1304.6073C1042.4387,-1304.5873 1045.8151,-1304.5668 1049.1906,-1304.5463"/>
<polygon fill="#000000" stroke="#000000" points="1049.2512,-1308.0461 1059.2297,-1304.4854 1049.2086,-1301.0462 1049.2512,-1308.0461"/>
</g>
<!-- 12956&#45;&gt;3356 -->
<g id="edge56" class="edge">
<title>12956&#45;&gt;3356</title>
<path fill="none" stroke="#000000" d="M1002.9994,-1198.5371C1004.6578,-1187.3072 1006.8288,-1172.607 1008.711,-1159.8621"/>
<polygon fill="#000000" stroke="#000000" points="1012.2079,-1160.1394 1010.2065,-1149.7354 1005.283,-1159.1167 1012.2079,-1160.1394"/>
</g>
<!-- 18540 -->
<g id="node46" class="node">
<title>18540</title>
<ellipse fill="none" stroke="#000000" cx="1116.9102" cy="-942.0686" rx="32.4942" ry="18"/>
<text text-anchor="middle" x="1116.9102" y="-938.3686" font-family="Times,serif" font-size="14.00" fill="#000000">18540</text>
</g>
<!-- 30070&#45;&gt;6904 -->
<g id="edge57" class="edge">
<title>30070&#45;&gt;6904</title>
<path fill="none" stroke="#000000" d="M1145.9438,-998.7507C1154.5596,-993.8975 1164.4864,-988.3058 1173.6605,-983.1382"/>
<polygon fill="#000000" stroke="#000000" points="1175.5122,-986.1123 1182.5072,-978.1549 1172.0766,-980.0133 1175.5122,-986.1123"/>
</g>
<!-- 30070&#45;&gt;7016 -->
<g id="edge58" class="edge">
<title>30070&#45;&gt;7016</title>
<path fill="none" stroke="#000000" d="M1142.0867,-1026.5959C1145.9571,-1029.6175 1150.0904,-1032.8444 1154.1565,-1036.0189"/>
<polygon fill="#000000" stroke="#000000" points="1152.2664,-1038.9836 1162.3025,-1042.3786 1156.574,-1033.4659 1152.2664,-1038.9836"/>
</g>
<!-- 30070&#45;&gt;18540 -->
<g id="edge59" class="edge">
<title>30070&#45;&gt;18540</title>
<path fill="none" stroke="#000000" d="M1121.389,-993.3927C1120.78,-986.4134 1120.0703,-978.2808 1119.3978,-970.5745"/>
<polygon fill="#000000" stroke="#000000" points="1122.8729,-970.1364 1118.5168,-960.4785 1115.8994,-970.745 1122.8729,-970.1364"/>
</g>
<!-- 32787&#45;&gt;2764 -->
<g id="edge60" class="edge">
<title>32787&#45;&gt;2764</title>
<path fill="none" stroke="#000000" d="M169.1393,-491.6841C161.448,-496.4459 152.6801,-501.8742 144.4883,-506.9459"/>
<polygon fill="#000000" stroke="#000000" points="142.5637,-504.021 135.9037,-512.2608 146.2485,-509.9726 142.5637,-504.021"/>
</g>
<!-- 32787&#45;&gt;7474 -->
<g id="edge61" class="edge">
<title>32787&#45;&gt;7474</title>
<path fill="none" stroke="#000000" d="M171.1131,-463.6798C166.6975,-460.4732 161.9453,-457.0222 157.298,-453.6474"/>
<polygon fill="#000000" stroke="#000000" points="159.2895,-450.7681 149.1414,-447.7241 155.1763,-456.4322 159.2895,-450.7681"/>
</g>
</g>
</svg>
