<?xml version="1.0" encoding="UTF-8" standalone="no"?>
<!DOCTYPE svg PUBLIC "-//W3C//DTD SVG 1.1//EN"
 "http://www.w3.org/Graphics/SVG/1.1/DTD/svg11.dtd">
<!-- Generated by graphviz version 2.40.1 (20161225.0304)
 -->
<!-- Title: %3 Pages: 1 -->
<svg width="1958pt" height="1910pt"
 viewBox="0.00 0.00 1958.00 1910.00" xmlns="http://www.w3.org/2000/svg" xmlns:xlink="http://www.w3.org/1999/xlink">
<g id="graph0" class="graph" transform="scale(1 1) rotate(0) translate(4 1906)">
<title>%3</title>
<polygon fill="#ffffff" stroke="transparent" points="-4,4 -4,-1906 1954,-1906 1954,4 -4,4"/>
<!-- 174 -->
<g id="node1" class="node">
<title>174</title>
<ellipse fill="none" stroke="#000000" cx="1116.5339" cy="-988.3115" rx="27" ry="18"/>
<text text-anchor="middle" x="1116.5339" y="-984.6115" font-family="Times,serif" font-size="14.00" fill="#000000">174</text>
</g>
<!-- 209 -->
<g id="node2" class="node">
<title>209</title>
<ellipse fill="none" stroke="#000000" cx="1050.84" cy="-889.2008" rx="27" ry="18"/>
<text text-anchor="middle" x="1050.84" y="-885.5008" font-family="Times,serif" font-size="14.00" fill="#000000">209</text>
</g>
<!-- 174&#45;&gt;209 -->
<g id="edge1" class="edge">
<title>174&#45;&gt;209</title>
<path fill="none" stroke="#000000" d="M1105.3899,-971.4987C1095.0404,-955.8847 1079.4879,-932.421 1067.634,-914.5374"/>
<polygon fill="#000000" stroke="#000000" points="1070.2618,-912.1668 1061.8195,-905.7652 1064.4271,-916.0342 1070.2618,-912.1668"/>
</g>
<!-- 1299 -->
<g id="node7" class="node">
<title>1299</title>
<ellipse fill="none" stroke="#000000" cx="972.6836" cy="-794.2553" rx="28.6953" ry="18"/>
<text text-anchor="middle" x="972.6836" y="-790.5553" font-family="Times,serif" font-size="14.00" fill="#000000">1299</text>
</g>
<!-- 209&#45;&gt;1299 -->
<g id="edge2" class="edge">
<title>209&#45;&gt;1299</title>
<path fill="none" stroke="#000000" d="M1037.5818,-873.0946C1025.2309,-858.0905 1006.6515,-835.52 992.5327,-818.3683"/>
<polygon fill="#000000" stroke="#000000" points="995.0645,-815.9368 986.0068,-810.4405 989.66,-820.3856 995.0645,-815.9368"/>
</g>
<!-- 701 -->
<g id="node3" class="node">
<title>701</title>
<ellipse fill="none" stroke="#000000" cx="713.6233" cy="-508.9276" rx="27" ry="18"/>
<text text-anchor="middle" x="713.6233" y="-505.2276" font-family="Times,serif" font-size="14.00" fill="#000000">701</text>
</g>
<!-- 703 -->
<g id="node4" class="node">
<title>703</title>
<ellipse fill="none" stroke="#000000" cx="574.057" cy="-475.1639" rx="27" ry="18"/>
<text text-anchor="middle" x="574.057" y="-471.4639" font-family="Times,serif" font-size="14.00" fill="#000000">703</text>
</g>
<!-- 701&#45;&gt;703 -->
<g id="edge3" class="edge">
<title>701&#45;&gt;703</title>
<path fill="none" stroke="#000000" d="M688.0247,-502.7348C665.9902,-497.4043 633.9714,-489.6583 609.4785,-483.733"/>
<polygon fill="#000000" stroke="#000000" points="610.036,-480.267 599.4934,-481.3174 608.39,-487.0707 610.036,-480.267"/>
</g>
<!-- 7018 -->
<g id="node32" class="node">
<title>7018</title>
<ellipse fill="none" stroke="#000000" cx="822.2247" cy="-451.1948" rx="28.6953" ry="18"/>
<text text-anchor="middle" x="822.2247" y="-447.4948" font-family="Times,serif" font-size="14.00" fill="#000000">7018</text>
</g>
<!-- 701&#45;&gt;7018 -->
<g id="edge4" class="edge">
<title>701&#45;&gt;7018</title>
<path fill="none" stroke="#000000" d="M734.8205,-497.6591C750.9056,-489.1082 773.2576,-477.2259 791.331,-467.618"/>
<polygon fill="#000000" stroke="#000000" points="793.1494,-470.6152 800.3364,-462.8307 789.8636,-464.4343 793.1494,-470.6152"/>
</g>
<!-- 2516 -->
<g id="node9" class="node">
<title>2516</title>
<ellipse fill="none" stroke="#000000" cx="418.3348" cy="-456.7181" rx="28.6953" ry="18"/>
<text text-anchor="middle" x="418.3348" y="-453.0181" font-family="Times,serif" font-size="14.00" fill="#000000">2516</text>
</g>
<!-- 703&#45;&gt;2516 -->
<g id="edge5" class="edge">
<title>703&#45;&gt;2516</title>
<path fill="none" stroke="#000000" d="M547.2874,-471.9929C522.3813,-469.0427 484.9877,-464.6133 456.8712,-461.2828"/>
<polygon fill="#000000" stroke="#000000" points="456.9372,-457.7663 446.5949,-460.0656 456.1137,-464.7177 456.9372,-457.7663"/>
</g>
<!-- 9498 -->
<g id="node37" class="node">
<title>9498</title>
<ellipse fill="none" stroke="#000000" cx="497.1709" cy="-375.1837" rx="28.6953" ry="18"/>
<text text-anchor="middle" x="497.1709" y="-371.4837" font-family="Times,serif" font-size="14.00" fill="#000000">9498</text>
</g>
<!-- 703&#45;&gt;9498 -->
<g id="edge6" class="edge">
<title>703&#45;&gt;9498</title>
<path fill="none" stroke="#000000" d="M561.704,-459.1003C549.3354,-443.0166 530.1445,-418.0614 515.9021,-399.5411"/>
<polygon fill="#000000" stroke="#000000" points="518.6193,-397.333 509.7488,-391.5395 513.0704,-401.6002 518.6193,-397.333"/>
</g>
<!-- 1239 -->
<g id="node5" class="node">
<title>1239</title>
<ellipse fill="none" stroke="#000000" cx="1162.2775" cy="-283.9665" rx="28.6953" ry="18"/>
<text text-anchor="middle" x="1162.2775" y="-280.2665" font-family="Times,serif" font-size="14.00" fill="#000000">1239</text>
</g>
<!-- 5511 -->
<g id="node24" class="node">
<title>5511</title>
<ellipse fill="none" stroke="#000000" cx="1269.4724" cy="-278.0669" rx="28.6953" ry="18"/>
<text text-anchor="middle" x="1269.4724" y="-274.3669" font-family="Times,serif" font-size="14.00" fill="#000000">5511</text>
</g>
<!-- 1239&#45;&gt;5511 -->
<g id="edge7" class="edge">
<title>1239&#45;&gt;5511</title>
<path fill="none" stroke="#000000" d="M1191.0038,-282.3855C1203.1396,-281.7176 1217.4613,-280.9294 1230.5253,-280.2104"/>
<polygon fill="#000000" stroke="#000000" points="1230.8743,-283.6966 1240.6668,-279.6523 1230.4896,-276.7072 1230.8743,-283.6966"/>
</g>
<!-- 17676 -->
<g id="node45" class="node">
<title>17676</title>
<ellipse fill="none" stroke="#000000" cx="1231.5834" cy="-197.8844" rx="32.4942" ry="18"/>
<text text-anchor="middle" x="1231.5834" y="-194.1844" font-family="Times,serif" font-size="14.00" fill="#000000">17676</text>
</g>
<!-- 1239&#45;&gt;17676 -->
<g id="edge8" class="edge">
<title>1239&#45;&gt;17676</title>
<path fill="none" stroke="#000000" d="M1175.3134,-267.7752C1185.5403,-255.0728 1199.9494,-237.1758 1211.6261,-222.6726"/>
<polygon fill="#000000" stroke="#000000" points="1214.5882,-224.5746 1218.1332,-214.5904 1209.1357,-220.1847 1214.5882,-224.5746"/>
</g>
<!-- 1273 -->
<g id="node6" class="node">
<title>1273</title>
<ellipse fill="none" stroke="#000000" cx="1053.7869" cy="-338.4836" rx="28.6953" ry="18"/>
<text text-anchor="middle" x="1053.7869" y="-334.7836" font-family="Times,serif" font-size="14.00" fill="#000000">1273</text>
</g>
<!-- 1273&#45;&gt;1239 -->
<g id="edge9" class="edge">
<title>1273&#45;&gt;1239</title>
<path fill="none" stroke="#000000" d="M1076.2662,-327.1877C1091.9766,-319.2931 1113.1756,-308.6405 1130.5964,-299.8865"/>
<polygon fill="#000000" stroke="#000000" points="1132.4632,-302.8655 1139.827,-295.248 1129.3202,-296.6108 1132.4632,-302.8655"/>
</g>
<!-- 6461 -->
<g id="node27" class="node">
<title>6461</title>
<ellipse fill="none" stroke="#000000" cx="887.8645" cy="-702.6725" rx="28.6953" ry="18"/>
<text text-anchor="middle" x="887.8645" y="-698.9725" font-family="Times,serif" font-size="14.00" fill="#000000">6461</text>
</g>
<!-- 1299&#45;&gt;6461 -->
<g id="edge10" class="edge">
<title>1299&#45;&gt;6461</title>
<path fill="none" stroke="#000000" d="M957.9092,-778.3028C944.5305,-763.8572 924.6528,-742.3944 909.4869,-726.0192"/>
<polygon fill="#000000" stroke="#000000" points="911.8324,-723.4008 902.4695,-718.4422 906.6966,-728.1573 911.8324,-723.4008"/>
</g>
<!-- 2497 -->
<g id="node8" class="node">
<title>2497</title>
<ellipse fill="none" stroke="#000000" cx="792.7591" cy="-603.2461" rx="28.6953" ry="18"/>
<text text-anchor="middle" x="792.7591" y="-599.5461" font-family="Times,serif" font-size="14.00" fill="#000000">2497</text>
</g>
<!-- 2497&#45;&gt;701 -->
<g id="edge11" class="edge">
<title>2497&#45;&gt;701</title>
<path fill="none" stroke="#000000" d="M779.3348,-587.2462C766.7533,-572.2509 747.7886,-549.6477 733.4617,-532.5722"/>
<polygon fill="#000000" stroke="#000000" points="735.9582,-530.1023 726.8494,-524.6912 730.5957,-534.6016 735.9582,-530.1023"/>
</g>
<!-- 32787 -->
<g id="node51" class="node">
<title>32787</title>
<ellipse fill="none" stroke="#000000" cx="290.6669" cy="-456.9468" rx="32.4942" ry="18"/>
<text text-anchor="middle" x="290.6669" y="-453.2468" font-family="Times,serif" font-size="14.00" fill="#000000">32787</text>
</g>
<!-- 2516&#45;&gt;32787 -->
<g id="edge12" class="edge">
<title>2516&#45;&gt;32787</title>
<path fill="none" stroke="#000000" d="M389.6836,-456.7694C373.1365,-456.799 352.0025,-456.8369 333.5123,-456.87"/>
<polygon fill="#000000" stroke="#000000" points="333.2664,-453.3703 323.2727,-456.8883 333.279,-460.3703 333.2664,-453.3703"/>
</g>
<!-- 2686 -->
<g id="node10" class="node">
<title>2686</title>
<ellipse fill="none" stroke="#000000" cx="1688.2087" cy="-1805.6983" rx="28.6953" ry="18"/>
<text text-anchor="middle" x="1688.2087" y="-1801.9983" font-family="Times,serif" font-size="14.00" fill="#000000">2686</text>
</g>
<!-- 3741 -->
<g id="node21" class="node">
<title>3741</title>
<ellipse fill="none" stroke="#000000" cx="1807.1592" cy="-1817.3314" rx="28.6953" ry="18"/>
<text text-anchor="middle" x="1807.1592" y="-1813.6314" font-family="Times,serif" font-size="14.00" fill="#000000">3741</text>
</g>
<!-- 2686&#45;&gt;3741 -->
<g id="edge13" class="edge">
<title>2686&#45;&gt;3741</title>
<path fill="none" stroke="#000000" d="M1716.7003,-1808.4847C1732.2959,-1810.01 1751.8348,-1811.9208 1768.7589,-1813.576"/>
<polygon fill="#000000" stroke="#000000" points="1768.6068,-1817.0777 1778.9,-1814.5678 1769.2882,-1810.1109 1768.6068,-1817.0777"/>
</g>
<!-- 2687 -->
<g id="node11" class="node">
<title>2687</title>
<ellipse fill="none" stroke="#000000" cx="1567.917" cy="-1806.2519" rx="28.6953" ry="18"/>
<text text-anchor="middle" x="1567.917" y="-1802.5519" font-family="Times,serif" font-size="14.00" fill="#000000">2687</text>
</g>
<!-- 2687&#45;&gt;2686 -->
<g id="edge14" class="edge">
<title>2687&#45;&gt;2686</title>
<path fill="none" stroke="#000000" d="M1596.7299,-1806.1193C1612.3862,-1806.0473 1631.9723,-1805.9571 1649.0003,-1805.8788"/>
<polygon fill="#000000" stroke="#000000" points="1649.2303,-1809.3778 1659.214,-1805.8318 1649.198,-1802.3779 1649.2303,-1809.3778"/>
</g>
<!-- 9505 -->
<g id="node38" class="node">
<title>9505</title>
<ellipse fill="none" stroke="#000000" cx="1633.858" cy="-1884.4445" rx="28.6953" ry="18"/>
<text text-anchor="middle" x="1633.858" y="-1880.7445" font-family="Times,serif" font-size="14.00" fill="#000000">9505</text>
</g>
<!-- 2687&#45;&gt;9505 -->
<g id="edge15" class="edge">
<title>2687&#45;&gt;9505</title>
<path fill="none" stroke="#000000" d="M1581.58,-1822.4535C1590.9255,-1833.5353 1603.4664,-1848.4062 1613.9225,-1860.8051"/>
<polygon fill="#000000" stroke="#000000" points="1611.3157,-1863.1431 1620.4381,-1868.5312 1616.6669,-1858.6303 1611.3157,-1863.1431"/>
</g>
<!-- 2764 -->
<g id="node12" class="node">
<title>2764</title>
<ellipse fill="none" stroke="#000000" cx="131.9201" cy="-457.5482" rx="28.6953" ry="18"/>
<text text-anchor="middle" x="131.9201" y="-453.8482" font-family="Times,serif" font-size="14.00" fill="#000000">2764</text>
</g>
<!-- 7545 -->
<g id="node35" class="node">
<title>7545</title>
<ellipse fill="none" stroke="#000000" cx="28.3597" cy="-452.2447" rx="28.6953" ry="18"/>
<text text-anchor="middle" x="28.3597" y="-448.5447" font-family="Times,serif" font-size="14.00" fill="#000000">7545</text>
</g>
<!-- 2764&#45;&gt;7545 -->
<g id="edge16" class="edge">
<title>2764&#45;&gt;7545</title>
<path fill="none" stroke="#000000" d="M103.3476,-456.0849C92.2343,-455.5158 79.3227,-454.8546 67.3775,-454.2428"/>
<polygon fill="#000000" stroke="#000000" points="67.3644,-450.7377 57.1984,-453.7216 67.0063,-457.7285 67.3644,-450.7377"/>
</g>
<!-- 38333 -->
<g id="node53" class="node">
<title>38333</title>
<ellipse fill="none" stroke="#000000" cx="45.1041" cy="-522.9797" rx="32.4942" ry="18"/>
<text text-anchor="middle" x="45.1041" y="-519.2797" font-family="Times,serif" font-size="14.00" fill="#000000">38333</text>
</g>
<!-- 2764&#45;&gt;38333 -->
<g id="edge17" class="edge">
<title>2764&#45;&gt;38333</title>
<path fill="none" stroke="#000000" d="M113.5087,-471.4245C101.668,-480.3486 86.0631,-492.1097 72.7482,-502.1449"/>
<polygon fill="#000000" stroke="#000000" points="70.2709,-499.6292 64.3916,-508.4431 74.4841,-505.2193 70.2709,-499.6292"/>
</g>
<!-- 38561 -->
<g id="node54" class="node">
<title>38561</title>
<ellipse fill="none" stroke="#000000" cx="49.365" cy="-383.9434" rx="32.4942" ry="18"/>
<text text-anchor="middle" x="49.365" y="-380.2434" font-family="Times,serif" font-size="14.00" fill="#000000">38561</text>
</g>
<!-- 2764&#45;&gt;38561 -->
<g id="edge18" class="edge">
<title>2764&#45;&gt;38561</title>
<path fill="none" stroke="#000000" d="M115.2139,-442.6531C103.5087,-432.217 87.659,-418.0857 74.4428,-406.3023"/>
<polygon fill="#000000" stroke="#000000" points="76.4081,-403.3654 66.6147,-399.3229 71.7496,-408.5903 76.4081,-403.3654"/>
</g>
<!-- 2828 -->
<g id="node13" class="node">
<title>2828</title>
<ellipse fill="none" stroke="#000000" cx="408.8814" cy="-593.6154" rx="28.6953" ry="18"/>
<text text-anchor="middle" x="408.8814" y="-589.9154" font-family="Times,serif" font-size="14.00" fill="#000000">2828</text>
</g>
<!-- 2914 -->
<g id="node14" class="node">
<title>2914</title>
<ellipse fill="none" stroke="#000000" cx="1183.4716" cy="-1453.5095" rx="28.6953" ry="18"/>
<text text-anchor="middle" x="1183.4716" y="-1449.8095" font-family="Times,serif" font-size="14.00" fill="#000000">2914</text>
</g>
<!-- 6453 -->
<g id="node26" class="node">
<title>6453</title>
<ellipse fill="none" stroke="#000000" cx="1198.6875" cy="-1332.8116" rx="28.6953" ry="18"/>
<text text-anchor="middle" x="1198.6875" y="-1329.1116" font-family="Times,serif" font-size="14.00" fill="#000000">6453</text>
</g>
<!-- 2914&#45;&gt;6453 -->
<g id="edge19" class="edge">
<title>2914&#45;&gt;6453</title>
<path fill="none" stroke="#000000" d="M1185.7496,-1435.4398C1188.2259,-1415.7967 1192.2162,-1384.1439 1195.1113,-1361.1796"/>
<polygon fill="#000000" stroke="#000000" points="1198.6156,-1361.3641 1196.3939,-1351.0048 1191.6706,-1360.4885 1198.6156,-1361.3641"/>
</g>
<!-- 3257 -->
<g id="node15" class="node">
<title>3257</title>
<ellipse fill="none" stroke="#000000" cx="1194.5136" cy="-1212.4765" rx="28.6953" ry="18"/>
<text text-anchor="middle" x="1194.5136" y="-1208.7765" font-family="Times,serif" font-size="14.00" fill="#000000">3257</text>
</g>
<!-- 3491 -->
<g id="node18" class="node">
<title>3491</title>
<ellipse fill="none" stroke="#000000" cx="1166.3603" cy="-1096.1744" rx="28.6953" ry="18"/>
<text text-anchor="middle" x="1166.3603" y="-1092.4744" font-family="Times,serif" font-size="14.00" fill="#000000">3491</text>
</g>
<!-- 3257&#45;&gt;3491 -->
<g id="edge20" class="edge">
<title>3257&#45;&gt;3491</title>
<path fill="none" stroke="#000000" d="M1190.1763,-1194.5592C1185.6224,-1175.7469 1178.4012,-1145.9158 1173.1031,-1124.0292"/>
<polygon fill="#000000" stroke="#000000" points="1176.5034,-1123.1995 1170.7489,-1114.3037 1169.6999,-1124.8465 1176.5034,-1123.1995"/>
</g>
<!-- 3320 -->
<g id="node16" class="node">
<title>3320</title>
<ellipse fill="none" stroke="#000000" cx="943.6568" cy="-392.585" rx="28.6953" ry="18"/>
<text text-anchor="middle" x="943.6568" y="-388.885" font-family="Times,serif" font-size="14.00" fill="#000000">3320</text>
</g>
<!-- 3320&#45;&gt;1273 -->
<g id="edge21" class="edge">
<title>3320&#45;&gt;1273</title>
<path fill="none" stroke="#000000" d="M966.2091,-381.5063C982.1381,-373.6811 1003.7225,-363.0778 1021.477,-354.3559"/>
<polygon fill="#000000" stroke="#000000" points="1023.4542,-357.2842 1030.8864,-349.7335 1020.3677,-351.0013 1023.4542,-357.2842"/>
</g>
<!-- 3356 -->
<g id="node17" class="node">
<title>3356</title>
<ellipse fill="none" stroke="#000000" cx="980.6371" cy="-1709.3166" rx="28.6953" ry="18"/>
<text text-anchor="middle" x="980.6371" y="-1705.6166" font-family="Times,serif" font-size="14.00" fill="#000000">3356</text>
</g>
<!-- 3549 -->
<g id="node19" class="node">
<title>3549</title>
<ellipse fill="none" stroke="#000000" cx="1133.7683" cy="-1696.6774" rx="28.6953" ry="18"/>
<text text-anchor="middle" x="1133.7683" y="-1692.9774" font-family="Times,serif" font-size="14.00" fill="#000000">3549</text>
</g>
<!-- 3356&#45;&gt;3549 -->
<g id="edge22" class="edge">
<title>3356&#45;&gt;3549</title>
<path fill="none" stroke="#000000" d="M1009.081,-1706.9689C1033.2862,-1704.971 1068.282,-1702.0825 1095.041,-1699.8739"/>
<polygon fill="#000000" stroke="#000000" points="1095.5391,-1703.3447 1105.2173,-1699.0339 1094.9633,-1696.3685 1095.5391,-1703.3447"/>
</g>
<!-- 3491&#45;&gt;174 -->
<g id="edge23" class="edge">
<title>3491&#45;&gt;174</title>
<path fill="none" stroke="#000000" d="M1158.3548,-1078.8443C1150.3642,-1061.5465 1137.9799,-1034.7372 1128.7589,-1014.7759"/>
<polygon fill="#000000" stroke="#000000" points="1131.8906,-1013.2089 1124.5195,-1005.5985 1125.5358,-1016.1445 1131.8906,-1013.2089"/>
</g>
<!-- 6762 -->
<g id="node28" class="node">
<title>6762</title>
<ellipse fill="none" stroke="#000000" cx="1160.9593" cy="-1575.5887" rx="28.6953" ry="18"/>
<text text-anchor="middle" x="1160.9593" y="-1571.8887" font-family="Times,serif" font-size="14.00" fill="#000000">6762</text>
</g>
<!-- 3549&#45;&gt;6762 -->
<g id="edge24" class="edge">
<title>3549&#45;&gt;6762</title>
<path fill="none" stroke="#000000" d="M1137.7804,-1678.8103C1142.2386,-1658.9571 1149.4939,-1626.6471 1154.7002,-1603.462"/>
<polygon fill="#000000" stroke="#000000" points="1158.1546,-1604.0529 1156.9307,-1593.529 1151.3247,-1602.5192 1158.1546,-1604.0529"/>
</g>
<!-- 30070 -->
<g id="node50" class="node">
<title>30070</title>
<ellipse fill="none" stroke="#000000" cx="1303.4332" cy="-1725.8319" rx="32.4942" ry="18"/>
<text text-anchor="middle" x="1303.4332" y="-1722.1319" font-family="Times,serif" font-size="14.00" fill="#000000">30070</text>
</g>
<!-- 3549&#45;&gt;30070 -->
<g id="edge25" class="edge">
<title>3549&#45;&gt;30070</title>
<path fill="none" stroke="#000000" d="M1161.4055,-1701.4264C1188.7391,-1706.1233 1230.9012,-1713.3683 1262.1952,-1718.7457"/>
<polygon fill="#000000" stroke="#000000" points="1261.9059,-1722.2472 1272.3542,-1720.4914 1263.0914,-1715.3483 1261.9059,-1722.2472"/>
</g>
<!-- 3597 -->
<g id="node20" class="node">
<title>3597</title>
<ellipse fill="none" stroke="#000000" cx="496.8461" cy="-1529.2357" rx="28.6953" ry="18"/>
<text text-anchor="middle" x="496.8461" y="-1525.5357" font-family="Times,serif" font-size="14.00" fill="#000000">3597</text>
</g>
<!-- 37179 -->
<g id="node52" class="node">
<title>37179</title>
<ellipse fill="none" stroke="#000000" cx="1917.269" cy="-1827.0704" rx="32.4942" ry="18"/>
<text text-anchor="middle" x="1917.269" y="-1823.3704" font-family="Times,serif" font-size="14.00" fill="#000000">37179</text>
</g>
<!-- 3741&#45;&gt;37179 -->
<g id="edge26" class="edge">
<title>3741&#45;&gt;37179</title>
<path fill="none" stroke="#000000" d="M1835.5152,-1819.8395C1847.4816,-1820.8979 1861.6685,-1822.1527 1874.837,-1823.3174"/>
<polygon fill="#000000" stroke="#000000" points="1874.8482,-1826.832 1885.1177,-1824.2267 1875.465,-1819.8592 1874.8482,-1826.832"/>
</g>
<!-- 4637 -->
<g id="node22" class="node">
<title>4637</title>
<ellipse fill="none" stroke="#000000" cx="498.8461" cy="-520.0313" rx="28.6953" ry="18"/>
<text text-anchor="middle" x="498.8461" y="-516.3313" font-family="Times,serif" font-size="14.00" fill="#000000">4637</text>
</g>
<!-- 4637&#45;&gt;2828 -->
<g id="edge27" class="edge">
<title>4637&#45;&gt;2828</title>
<path fill="none" stroke="#000000" d="M481.072,-534.5692C467.7643,-545.4538 449.3676,-560.5008 434.4763,-572.6807"/>
<polygon fill="#000000" stroke="#000000" points="432.1432,-570.0673 426.6186,-579.1077 436.5751,-575.4857 432.1432,-570.0673"/>
</g>
<!-- 4755 -->
<g id="node23" class="node">
<title>4755</title>
<ellipse fill="none" stroke="#000000" cx="424.9675" cy="-133.8081" rx="28.6953" ry="18"/>
<text text-anchor="middle" x="424.9675" y="-130.1081" font-family="Times,serif" font-size="14.00" fill="#000000">4755</text>
</g>
<!-- 9583 -->
<g id="node39" class="node">
<title>9583</title>
<ellipse fill="none" stroke="#000000" cx="377.2004" cy="-35.1751" rx="28.6953" ry="18"/>
<text text-anchor="middle" x="377.2004" y="-31.4751" font-family="Times,serif" font-size="14.00" fill="#000000">9583</text>
</g>
<!-- 4755&#45;&gt;9583 -->
<g id="edge28" class="edge">
<title>4755&#45;&gt;9583</title>
<path fill="none" stroke="#000000" d="M416.4277,-116.1745C409.0917,-101.0266 398.4064,-78.9628 390.0398,-61.6869"/>
<polygon fill="#000000" stroke="#000000" points="393.175,-60.1306 385.6662,-52.656 386.8749,-63.1817 393.175,-60.1306"/>
</g>
<!-- 5692 -->
<g id="node25" class="node">
<title>5692</title>
<ellipse fill="none" stroke="#000000" cx="507.3463" cy="-1676.0845" rx="28.6953" ry="18"/>
<text text-anchor="middle" x="507.3463" y="-1672.3845" font-family="Times,serif" font-size="14.00" fill="#000000">5692</text>
</g>
<!-- 5692&#45;&gt;3597 -->
<g id="edge29" class="edge">
<title>5692&#45;&gt;3597</title>
<path fill="none" stroke="#000000" d="M506.0587,-1658.0779C504.2639,-1632.9763 500.9918,-1587.2153 498.8693,-1557.5306"/>
<polygon fill="#000000" stroke="#000000" points="502.3486,-1557.1144 498.1442,-1547.3895 495.3664,-1557.6137 502.3486,-1557.1144"/>
</g>
<!-- 10834 -->
<g id="node41" class="node">
<title>10834</title>
<ellipse fill="none" stroke="#000000" cx="662.7059" cy="-1699.4274" rx="32.4942" ry="18"/>
<text text-anchor="middle" x="662.7059" y="-1695.7274" font-family="Times,serif" font-size="14.00" fill="#000000">10834</text>
</g>
<!-- 5692&#45;&gt;10834 -->
<g id="edge30" class="edge">
<title>5692&#45;&gt;10834</title>
<path fill="none" stroke="#000000" d="M535.4807,-1680.3117C559.4395,-1683.9115 594.1905,-1689.1329 621.3215,-1693.2093"/>
<polygon fill="#000000" stroke="#000000" points="620.8991,-1696.6851 631.3082,-1694.7098 621.9392,-1689.7628 620.8991,-1696.6851"/>
</g>
<!-- 11008 -->
<g id="node42" class="node">
<title>11008</title>
<ellipse fill="none" stroke="#000000" cx="392.7342" cy="-1727.5691" rx="32.4942" ry="18"/>
<text text-anchor="middle" x="392.7342" y="-1723.8691" font-family="Times,serif" font-size="14.00" fill="#000000">11008</text>
</g>
<!-- 5692&#45;&gt;11008 -->
<g id="edge31" class="edge">
<title>5692&#45;&gt;11008</title>
<path fill="none" stroke="#000000" d="M483.8762,-1686.6274C467.5916,-1693.9426 445.6274,-1703.8091 427.3413,-1712.0233"/>
<polygon fill="#000000" stroke="#000000" points="425.8514,-1708.8556 418.1637,-1716.146 428.7198,-1715.241 425.8514,-1708.8556"/>
</g>
<!-- 27865 -->
<g id="node48" class="node">
<title>27865</title>
<ellipse fill="none" stroke="#000000" cx="545.5597" cy="-1605.7285" rx="32.4942" ry="18"/>
<text text-anchor="middle" x="545.5597" y="-1602.0285" font-family="Times,serif" font-size="14.00" fill="#000000">27865</text>
</g>
<!-- 5692&#45;&gt;27865 -->
<g id="edge32" class="edge">
<title>5692&#45;&gt;27865</title>
<path fill="none" stroke="#000000" d="M516.7923,-1658.6931C521.1229,-1650.72 526.3519,-1641.0926 531.1576,-1632.2447"/>
<polygon fill="#000000" stroke="#000000" points="534.2596,-1633.8665 535.9569,-1623.4085 528.1084,-1630.5255 534.2596,-1633.8665"/>
</g>
<!-- 28065 -->
<g id="node49" class="node">
<title>28065</title>
<ellipse fill="none" stroke="#000000" cx="437.8091" cy="-1773.7802" rx="32.4942" ry="18"/>
<text text-anchor="middle" x="437.8091" y="-1770.0802" font-family="Times,serif" font-size="14.00" fill="#000000">28065</text>
</g>
<!-- 5692&#45;&gt;28065 -->
<g id="edge33" class="edge">
<title>5692&#45;&gt;28065</title>
<path fill="none" stroke="#000000" d="M495.5502,-1692.6572C484.628,-1708.0023 468.2311,-1731.039 455.698,-1748.6472"/>
<polygon fill="#000000" stroke="#000000" points="452.8441,-1746.6211 449.8967,-1756.7977 458.547,-1750.6803 452.8441,-1746.6211"/>
</g>
<!-- 52317 -->
<g id="node55" class="node">
<title>52317</title>
<ellipse fill="none" stroke="#000000" cx="519.2572" cy="-1796.6425" rx="32.4942" ry="18"/>
<text text-anchor="middle" x="519.2572" y="-1792.9425" font-family="Times,serif" font-size="14.00" fill="#000000">52317</text>
</g>
<!-- 5692&#45;&gt;52317 -->
<g id="edge34" class="edge">
<title>5692&#45;&gt;52317</title>
<path fill="none" stroke="#000000" d="M509.1295,-1694.1332C511.0679,-1713.7535 514.1915,-1745.3696 516.4577,-1768.3074"/>
<polygon fill="#000000" stroke="#000000" points="512.9955,-1768.8629 517.4618,-1778.4703 519.9616,-1768.1746 512.9955,-1768.8629"/>
</g>
<!-- 52375 -->
<g id="node56" class="node">
<title>52375</title>
<ellipse fill="none" stroke="#000000" cx="385.0763" cy="-1681.0408" rx="32.4942" ry="18"/>
<text text-anchor="middle" x="385.0763" y="-1677.3408" font-family="Times,serif" font-size="14.00" fill="#000000">52375</text>
</g>
<!-- 5692&#45;&gt;52375 -->
<g id="edge35" class="edge">
<title>5692&#45;&gt;52375</title>
<path fill="none" stroke="#000000" d="M478.6794,-1677.2465C463.5986,-1677.8578 444.8044,-1678.6197 428.0221,-1679.3"/>
<polygon fill="#000000" stroke="#000000" points="427.7339,-1675.8087 417.8839,-1679.7109 428.0175,-1682.8029 427.7339,-1675.8087"/>
</g>
<!-- 52376 -->
<g id="node57" class="node">
<title>52376</title>
<ellipse fill="none" stroke="#000000" cx="623.3571" cy="-1642.068" rx="32.4942" ry="18"/>
<text text-anchor="middle" x="623.3571" y="-1638.368" font-family="Times,serif" font-size="14.00" fill="#000000">52376</text>
</g>
<!-- 5692&#45;&gt;52376 -->
<g id="edge36" class="edge">
<title>5692&#45;&gt;52376</title>
<path fill="none" stroke="#000000" d="M533.3814,-1668.4505C548.571,-1663.9966 568.0143,-1658.2955 584.9375,-1653.3333"/>
<polygon fill="#000000" stroke="#000000" points="585.948,-1656.6844 594.5592,-1650.512 583.9784,-1649.9672 585.948,-1656.6844"/>
</g>
<!-- 52380 -->
<g id="node58" class="node">
<title>52380</title>
<ellipse fill="none" stroke="#000000" cx="374.9173" cy="-1624.996" rx="32.4942" ry="18"/>
<text text-anchor="middle" x="374.9173" y="-1621.296" font-family="Times,serif" font-size="14.00" fill="#000000">52380</text>
</g>
<!-- 5692&#45;&gt;52380 -->
<g id="edge37" class="edge">
<title>5692&#45;&gt;52380</title>
<path fill="none" stroke="#000000" d="M482.7478,-1666.5948C462.5892,-1658.8181 433.7765,-1647.7027 411.0053,-1638.918"/>
<polygon fill="#000000" stroke="#000000" points="412.2486,-1635.6463 401.659,-1635.3124 409.729,-1642.1771 412.2486,-1635.6463"/>
</g>
<!-- 52413 -->
<g id="node59" class="node">
<title>52413</title>
<ellipse fill="none" stroke="#000000" cx="596.3796" cy="-1756.2123" rx="32.4942" ry="18"/>
<text text-anchor="middle" x="596.3796" y="-1752.5123" font-family="Times,serif" font-size="14.00" fill="#000000">52413</text>
</g>
<!-- 5692&#45;&gt;52413 -->
<g id="edge38" class="edge">
<title>5692&#45;&gt;52413</title>
<path fill="none" stroke="#000000" d="M524.0928,-1691.1559C537.4761,-1703.2006 556.435,-1720.2631 571.5791,-1733.8924"/>
<polygon fill="#000000" stroke="#000000" points="569.3265,-1736.5739 579.1009,-1740.6619 574.0092,-1731.3707 569.3265,-1736.5739"/>
</g>
<!-- 52431 -->
<g id="node60" class="node">
<title>52431</title>
<ellipse fill="none" stroke="#000000" cx="457.6214" cy="-1626.6091" rx="32.4942" ry="18"/>
<text text-anchor="middle" x="457.6214" y="-1622.9091" font-family="Times,serif" font-size="14.00" fill="#000000">52431</text>
</g>
<!-- 5692&#45;&gt;52431 -->
<g id="edge39" class="edge">
<title>5692&#45;&gt;52431</title>
<path fill="none" stroke="#000000" d="M491.8856,-1660.7013C488.3415,-1657.175 484.4985,-1653.3513 480.7107,-1649.5825"/>
<polygon fill="#000000" stroke="#000000" points="483.1452,-1647.0674 473.5877,-1642.4952 478.2079,-1652.0296 483.1452,-1647.0674"/>
</g>
<!-- 262230 -->
<g id="node61" class="node">
<title>262230</title>
<ellipse fill="none" stroke="#000000" cx="494.8065" cy="-1720.7272" rx="37.0935" ry="18"/>
<text text-anchor="middle" x="494.8065" y="-1717.0272" font-family="Times,serif" font-size="14.00" fill="#000000">262230</text>
</g>
<!-- 5692&#45;&gt;262230 -->
<g id="edge40" class="edge">
<title>5692&#45;&gt;262230</title>
<path fill="none" stroke="#000000" d="M502.3181,-1693.9851C502.2926,-1694.0761 502.267,-1694.1672 502.2414,-1694.2583"/>
<polygon fill="#000000" stroke="#000000" points="499.1705,-1692.2486 499.8358,-1702.8225 505.9097,-1694.1416 499.1705,-1692.2486"/>
</g>
<!-- 264608 -->
<g id="node62" class="node">
<title>264608</title>
<ellipse fill="none" stroke="#000000" cx="407.2833" cy="-1569.3058" rx="37.0935" ry="18"/>
<text text-anchor="middle" x="407.2833" y="-1565.6058" font-family="Times,serif" font-size="14.00" fill="#000000">264608</text>
</g>
<!-- 5692&#45;&gt;264608 -->
<g id="edge41" class="edge">
<title>5692&#45;&gt;264608</title>
<path fill="none" stroke="#000000" d="M492.5816,-1660.3289C475.999,-1642.6333 448.8997,-1613.7153 429.7004,-1593.2274"/>
<polygon fill="#000000" stroke="#000000" points="432.1591,-1590.7325 422.7673,-1585.8289 427.0513,-1595.519 432.1591,-1590.7325"/>
</g>
<!-- 6453&#45;&gt;3257 -->
<g id="edge42" class="edge">
<title>6453&#45;&gt;3257</title>
<path fill="none" stroke="#000000" d="M1198.0626,-1314.7963C1197.3833,-1295.2122 1196.2887,-1263.6546 1195.4946,-1240.7592"/>
<polygon fill="#000000" stroke="#000000" points="1198.9874,-1240.4877 1195.1427,-1230.6151 1191.9916,-1240.7304 1198.9874,-1240.4877"/>
</g>
<!-- 6461&#45;&gt;2497 -->
<g id="edge43" class="edge">
<title>6461&#45;&gt;2497</title>
<path fill="none" stroke="#000000" d="M873.0042,-687.1371C857.3706,-670.7931 832.5994,-644.8965 814.7125,-626.197"/>
<polygon fill="#000000" stroke="#000000" points="816.9565,-623.4794 807.515,-618.6724 811.8981,-628.3181 816.9565,-623.4794"/>
</g>
<!-- 6762&#45;&gt;2914 -->
<g id="edge44" class="edge">
<title>6762&#45;&gt;2914</title>
<path fill="none" stroke="#000000" d="M1164.2811,-1557.5755C1167.9721,-1537.5598 1173.979,-1504.9855 1178.2895,-1481.6108"/>
<polygon fill="#000000" stroke="#000000" points="1181.7646,-1482.0655 1180.1362,-1471.5966 1174.8807,-1480.796 1181.7646,-1482.0655"/>
</g>
<!-- 6904 -->
<g id="node29" class="node">
<title>6904</title>
<ellipse fill="none" stroke="#000000" cx="1421.878" cy="-1775.0352" rx="28.6953" ry="18"/>
<text text-anchor="middle" x="1421.878" y="-1771.3352" font-family="Times,serif" font-size="14.00" fill="#000000">6904</text>
</g>
<!-- 6904&#45;&gt;2687 -->
<g id="edge45" class="edge">
<title>6904&#45;&gt;2687</title>
<path fill="none" stroke="#000000" d="M1449.0046,-1780.8336C1471.9141,-1785.7307 1504.9593,-1792.7943 1530.4028,-1798.233"/>
<polygon fill="#000000" stroke="#000000" points="1529.9294,-1801.7108 1540.4402,-1800.3786 1531.3927,-1794.8655 1529.9294,-1801.7108"/>
</g>
<!-- 6939 -->
<g id="node30" class="node">
<title>6939</title>
<ellipse fill="none" stroke="#000000" cx="529.3774" cy="-125.9431" rx="28.6953" ry="18"/>
<text text-anchor="middle" x="529.3774" y="-122.2431" font-family="Times,serif" font-size="14.00" fill="#000000">6939</text>
</g>
<!-- 12266 -->
<g id="node43" class="node">
<title>12266</title>
<ellipse fill="none" stroke="#000000" cx="556.3672" cy="-17.8645" rx="32.4942" ry="18"/>
<text text-anchor="middle" x="556.3672" y="-14.1645" font-family="Times,serif" font-size="14.00" fill="#000000">12266</text>
</g>
<!-- 6939&#45;&gt;12266 -->
<g id="edge46" class="edge">
<title>6939&#45;&gt;12266</title>
<path fill="none" stroke="#000000" d="M533.8342,-108.0961C538.0732,-91.1216 544.514,-65.3297 549.4255,-45.662"/>
<polygon fill="#000000" stroke="#000000" points="552.8766,-46.2881 551.9037,-35.738 546.0851,-44.592 552.8766,-46.2881"/>
</g>
<!-- 7016 -->
<g id="node31" class="node">
<title>7016</title>
<ellipse fill="none" stroke="#000000" cx="1410.2376" cy="-1698.1715" rx="28.6953" ry="18"/>
<text text-anchor="middle" x="1410.2376" y="-1694.4715" font-family="Times,serif" font-size="14.00" fill="#000000">7016</text>
</g>
<!-- 7922 -->
<g id="node36" class="node">
<title>7922</title>
<ellipse fill="none" stroke="#000000" cx="1516.4911" cy="-1653.5673" rx="28.6953" ry="18"/>
<text text-anchor="middle" x="1516.4911" y="-1649.8673" font-family="Times,serif" font-size="14.00" fill="#000000">7922</text>
</g>
<!-- 7016&#45;&gt;7922 -->
<g id="edge47" class="edge">
<title>7016&#45;&gt;7922</title>
<path fill="none" stroke="#000000" d="M1434.083,-1688.1615C1448.4731,-1682.1206 1467.0313,-1674.33 1482.8921,-1667.6718"/>
<polygon fill="#000000" stroke="#000000" points="1484.492,-1670.7962 1492.3577,-1663.6983 1481.7825,-1664.3418 1484.492,-1670.7962"/>
</g>
<!-- 7018&#45;&gt;3320 -->
<g id="edge48" class="edge">
<title>7018&#45;&gt;3320</title>
<path fill="none" stroke="#000000" d="M845.0651,-440.1708C863.8919,-431.084 890.8082,-418.0927 911.7616,-407.9794"/>
<polygon fill="#000000" stroke="#000000" points="913.4343,-411.0585 920.9188,-403.5597 910.3915,-404.7544 913.4343,-411.0585"/>
</g>
<!-- 7473 -->
<g id="node33" class="node">
<title>7473</title>
<ellipse fill="none" stroke="#000000" cx="418.2764" cy="-314.1388" rx="28.6953" ry="18"/>
<text text-anchor="middle" x="418.2764" y="-310.4388" font-family="Times,serif" font-size="14.00" fill="#000000">7473</text>
</g>
<!-- 7474 -->
<g id="node34" class="node">
<title>7474</title>
<ellipse fill="none" stroke="#000000" cx="198.5899" cy="-377.1116" rx="28.6953" ry="18"/>
<text text-anchor="middle" x="198.5899" y="-373.4116" font-family="Times,serif" font-size="14.00" fill="#000000">7474</text>
</g>
<!-- 9498&#45;&gt;4637 -->
<g id="edge49" class="edge">
<title>9498&#45;&gt;4637</title>
<path fill="none" stroke="#000000" d="M497.3797,-393.2359C497.6644,-417.8482 498.1773,-462.2033 498.5148,-491.3837"/>
<polygon fill="#000000" stroke="#000000" points="495.0192,-491.7928 498.6347,-501.7516 502.0187,-491.7118 495.0192,-491.7928"/>
</g>
<!-- 9498&#45;&gt;7473 -->
<g id="edge50" class="edge">
<title>9498&#45;&gt;7473</title>
<path fill="none" stroke="#000000" d="M478.8726,-361.0253C468.716,-353.1666 455.9036,-343.253 444.6791,-334.568"/>
<polygon fill="#000000" stroke="#000000" points="446.5262,-331.5718 436.4754,-328.2204 442.2425,-337.1081 446.5262,-331.5718"/>
</g>
<!-- 10026 -->
<g id="node40" class="node">
<title>10026</title>
<ellipse fill="none" stroke="#000000" cx="489.3254" cy="-247.4417" rx="32.4942" ry="18"/>
<text text-anchor="middle" x="489.3254" y="-243.7417" font-family="Times,serif" font-size="14.00" fill="#000000">10026</text>
</g>
<!-- 9498&#45;&gt;10026 -->
<g id="edge51" class="edge">
<title>9498&#45;&gt;10026</title>
<path fill="none" stroke="#000000" d="M496.0635,-357.1523C494.7684,-336.0646 492.6078,-300.8867 491.083,-276.0583"/>
<polygon fill="#000000" stroke="#000000" points="494.5592,-275.5616 490.4526,-265.795 487.5723,-275.9908 494.5592,-275.5616"/>
</g>
<!-- 10026&#45;&gt;4755 -->
<g id="edge52" class="edge">
<title>10026&#45;&gt;4755</title>
<path fill="none" stroke="#000000" d="M479.5508,-230.1832C468.9525,-211.4703 451.9171,-181.3918 439.696,-159.8135"/>
<polygon fill="#000000" stroke="#000000" points="442.5968,-157.8332 434.6232,-150.8567 436.5059,-161.283 442.5968,-157.8332"/>
</g>
<!-- 10026&#45;&gt;6939 -->
<g id="edge53" class="edge">
<title>10026&#45;&gt;6939</title>
<path fill="none" stroke="#000000" d="M495.2352,-229.5142C501.8316,-209.504 512.5854,-176.8821 520.2613,-153.597"/>
<polygon fill="#000000" stroke="#000000" points="523.6366,-154.5373 523.4434,-143.9442 516.9885,-152.3457 523.6366,-154.5373"/>
</g>
<!-- 12956 -->
<g id="node44" class="node">
<title>12956</title>
<ellipse fill="none" stroke="#000000" cx="837.8078" cy="-1706.4859" rx="32.4942" ry="18"/>
<text text-anchor="middle" x="837.8078" y="-1702.7859" font-family="Times,serif" font-size="14.00" fill="#000000">12956</text>
</g>
<!-- 10834&#45;&gt;12956 -->
<g id="edge54" class="edge">
<title>10834&#45;&gt;12956</title>
<path fill="none" stroke="#000000" d="M695.2308,-1700.7385C723.3988,-1701.874 764.3461,-1703.5246 795.1398,-1704.7659"/>
<polygon fill="#000000" stroke="#000000" points="795.0275,-1708.2641 805.1604,-1705.1698 795.3095,-1701.2698 795.0275,-1708.2641"/>
</g>
<!-- 22927 -->
<g id="node47" class="node">
<title>22927</title>
<ellipse fill="none" stroke="#000000" cx="714.0542" cy="-1813.8746" rx="32.4942" ry="18"/>
<text text-anchor="middle" x="714.0542" y="-1810.1746" font-family="Times,serif" font-size="14.00" fill="#000000">22927</text>
</g>
<!-- 10834&#45;&gt;22927 -->
<g id="edge55" class="edge">
<title>10834&#45;&gt;22927</title>
<path fill="none" stroke="#000000" d="M670.729,-1717.3098C679.0945,-1735.955 692.3056,-1765.4005 701.9417,-1786.8779"/>
<polygon fill="#000000" stroke="#000000" points="698.8004,-1788.4268 706.0873,-1796.1178 705.1871,-1785.5613 698.8004,-1788.4268"/>
</g>
<!-- 12956&#45;&gt;3356 -->
<g id="edge56" class="edge">
<title>12956&#45;&gt;3356</title>
<path fill="none" stroke="#000000" d="M870.5757,-1707.1353C891.7634,-1707.5552 919.4457,-1708.1039 941.747,-1708.5458"/>
<polygon fill="#000000" stroke="#000000" points="941.8231,-1712.0479 951.8905,-1708.7469 941.9619,-1705.0493 941.8231,-1712.0479"/>
</g>
<!-- 18540 -->
<g id="node46" class="node">
<title>18540</title>
<ellipse fill="none" stroke="#000000" cx="1366.6173" cy="-1640.4983" rx="32.4942" ry="18"/>
<text text-anchor="middle" x="1366.6173" y="-1636.7983" font-family="Times,serif" font-size="14.00" fill="#000000">18540</text>
</g>
<!-- 30070&#45;&gt;6904 -->
<g id="edge57" class="edge">
<title>30070&#45;&gt;6904</title>
<path fill="none" stroke="#000000" d="M1329.72,-1736.7517C1347.0151,-1743.9363 1369.8051,-1753.4035 1388.3945,-1761.1257"/>
<polygon fill="#000000" stroke="#000000" points="1387.1037,-1764.3794 1397.6813,-1764.9836 1389.7891,-1757.915 1387.1037,-1764.3794"/>
</g>
<!-- 30070&#45;&gt;7016 -->
<g id="edge58" class="edge">
<title>30070&#45;&gt;7016</title>
<path fill="none" stroke="#000000" d="M1332.9007,-1718.2003C1345.5951,-1714.9127 1360.5646,-1711.0359 1373.9353,-1707.5731"/>
<polygon fill="#000000" stroke="#000000" points="1374.9809,-1710.9179 1383.784,-1705.0225 1373.2259,-1704.1415 1374.9809,-1710.9179"/>
</g>
<!-- 30070&#45;&gt;18540 -->
<g id="edge59" class="edge">
<title>30070&#45;&gt;18540</title>
<path fill="none" stroke="#000000" d="M1315.9164,-1708.9727C1325.0895,-1696.5838 1337.7057,-1679.545 1348.0579,-1665.5637"/>
<polygon fill="#000000" stroke="#000000" points="1351.0222,-1667.442 1354.1601,-1657.3224 1345.3965,-1663.2764 1351.0222,-1667.442"/>
</g>
<!-- 32787&#45;&gt;2764 -->
<g id="edge60" class="edge">
<title>32787&#45;&gt;2764</title>
<path fill="none" stroke="#000000" d="M258.159,-457.0699C232.8538,-457.1658 197.6473,-457.2992 170.8415,-457.4007"/>
<polygon fill="#000000" stroke="#000000" points="170.6402,-453.9013 160.6536,-457.4393 170.6668,-460.9013 170.6402,-453.9013"/>
</g>
<!-- 32787&#45;&gt;7474 -->
<g id="edge61" class="edge">
<title>32787&#45;&gt;7474</title>
<path fill="none" stroke="#000000" d="M272.9135,-441.5537C258.851,-429.3609 239.04,-412.1838 223.4075,-398.6297"/>
<polygon fill="#000000" stroke="#000000" points="225.5145,-395.8241 215.6662,-391.9175 220.9289,-401.113 225.5145,-395.8241"/>
</g>
</g>
</svg>
