<?xml version="1.0" encoding="UTF-8" standalone="no"?>
<!DOCTYPE svg PUBLIC "-//W3C//DTD SVG 1.1//EN"
 "http://www.w3.org/Graphics/SVG/1.1/DTD/svg11.dtd">
<!-- Generated by graphviz version 2.40.1 (20161225.0304)
 -->
<!-- Title: %3 Pages: 1 -->
<svg width="9261pt" height="3860pt"
 viewBox="0.00 0.00 9260.52 3859.96" xmlns="http://www.w3.org/2000/svg" xmlns:xlink="http://www.w3.org/1999/xlink">
<g id="graph0" class="graph" transform="scale(1 1) rotate(0) translate(4 3855.962)">
<title>%3</title>
<polygon fill="#ffffff" stroke="transparent" points="-4,4 -4,-3855.962 9256.5245,-3855.962 9256.5245,4 -4,4"/>
<!-- 174 -->
<g id="node1" class="node">
<title>174</title>
<ellipse fill="none" stroke="#000000" cx="4339.3552" cy="-2042.0565" rx="27" ry="18"/>
<text text-anchor="middle" x="4339.3552" y="-2038.3565" font-family="Times,serif" font-size="14.00" fill="#000000">174</text>
</g>
<!-- 209 -->
<g id="node2" class="node">
<title>209</title>
<ellipse fill="none" stroke="#000000" cx="4465.3552" cy="-2042.0565" rx="27" ry="18"/>
<text text-anchor="middle" x="4465.3552" y="-2038.3565" font-family="Times,serif" font-size="14.00" fill="#000000">209</text>
</g>
<!-- 174&#45;&gt;209 -->
<g id="edge1" class="edge">
<title>174&#45;&gt;209</title>
<path fill="none" stroke="#000000" d="M4366.3853,-2042.0565C4384.2833,-2042.0565 4408.0061,-2042.0565 4427.7391,-2042.0565"/>
<polygon fill="#000000" stroke="#000000" points="4427.9349,-2045.5564 4437.935,-2042.0565 4427.935,-2038.5564 4427.9349,-2045.5564"/>
</g>
<!-- 1299 -->
<g id="node7" class="node">
<title>1299</title>
<ellipse fill="none" stroke="#000000" cx="4592.9526" cy="-2042.0565" rx="28.6953" ry="18"/>
<text text-anchor="middle" x="4592.9526" y="-2038.3565" font-family="Times,serif" font-size="14.00" fill="#000000">1299</text>
</g>
<!-- 209&#45;&gt;1299 -->
<g id="edge2" class="edge">
<title>209&#45;&gt;1299</title>
<path fill="none" stroke="#000000" d="M4492.4153,-2042.0565C4510.3565,-2042.0565 4534.1776,-2042.0565 4554.1292,-2042.0565"/>
<polygon fill="#000000" stroke="#000000" points="4554.1582,-2045.5566 4564.1582,-2042.0565 4554.1582,-2038.5566 4554.1582,-2045.5566"/>
</g>
<!-- 701 -->
<g id="node3" class="node">
<title>701</title>
<ellipse fill="none" stroke="#000000" cx="8040.82" cy="-2042.0565" rx="27" ry="18"/>
<text text-anchor="middle" x="8040.82" y="-2038.3565" font-family="Times,serif" font-size="14.00" fill="#000000">701</text>
</g>
<!-- 703 -->
<g id="node4" class="node">
<title>703</title>
<ellipse fill="none" stroke="#000000" cx="8040.82" cy="-448.1164" rx="27" ry="18"/>
<text text-anchor="middle" x="8040.82" y="-444.4164" font-family="Times,serif" font-size="14.00" fill="#000000">703</text>
</g>
<!-- 701&#45;&gt;703 -->
<g id="edge3" class="edge">
<title>701&#45;&gt;703</title>
<path fill="none" stroke="#000000" d="M8040.82,-2023.8812C8040.82,-1862.4272 8040.82,-675.1353 8040.82,-476.3212"/>
<polygon fill="#000000" stroke="#000000" points="8044.3201,-476.1186 8040.82,-466.1187 8037.3201,-476.1187 8044.3201,-476.1186"/>
</g>
<!-- 7018 -->
<g id="node32" class="node">
<title>7018</title>
<ellipse fill="none" stroke="#000000" cx="8040.82" cy="-3305.2099" rx="28.6953" ry="18"/>
<text text-anchor="middle" x="8040.82" y="-3301.5099" font-family="Times,serif" font-size="14.00" fill="#000000">7018</text>
</g>
<!-- 701&#45;&gt;7018 -->
<g id="edge4" class="edge">
<title>701&#45;&gt;7018</title>
<path fill="none" stroke="#000000" d="M8040.82,-2060.3997C8040.82,-2200.8898 8040.82,-3105.5024 8040.82,-3277.1245"/>
<polygon fill="#000000" stroke="#000000" points="8037.3201,-3277.1403 8040.82,-3287.1403 8044.3201,-3277.1404 8037.3201,-3277.1403"/>
</g>
<!-- 2516 -->
<g id="node9" class="node">
<title>2516</title>
<ellipse fill="none" stroke="#000000" cx="7715.5305" cy="-448.1164" rx="28.6953" ry="18"/>
<text text-anchor="middle" x="7715.5305" y="-444.4164" font-family="Times,serif" font-size="14.00" fill="#000000">2516</text>
</g>
<!-- 703&#45;&gt;2516 -->
<g id="edge5" class="edge">
<title>703&#45;&gt;2516</title>
<path fill="none" stroke="#000000" d="M8013.6455,-448.1164C7955.9589,-448.1164 7821.0936,-448.1164 7754.3527,-448.1164"/>
<polygon fill="#000000" stroke="#000000" points="7754.2484,-444.6165 7744.2484,-448.1164 7754.2484,-451.6165 7754.2484,-444.6165"/>
</g>
<!-- 9498 -->
<g id="node37" class="node">
<title>9498</title>
<ellipse fill="none" stroke="#000000" cx="8837.79" cy="-448.1164" rx="28.6953" ry="18"/>
<text text-anchor="middle" x="8837.79" y="-444.4164" font-family="Times,serif" font-size="14.00" fill="#000000">9498</text>
</g>
<!-- 703&#45;&gt;9498 -->
<g id="edge6" class="edge">
<title>703&#45;&gt;9498</title>
<path fill="none" stroke="#000000" d="M8068.2535,-448.1164C8187.2284,-448.1164 8658.8411,-448.1164 8798.577,-448.1164"/>
<polygon fill="#000000" stroke="#000000" points="8798.8105,-451.6165 8808.8104,-448.1164 8798.8104,-444.6165 8798.8105,-451.6165"/>
</g>
<!-- 1239 -->
<g id="node5" class="node">
<title>1239</title>
<ellipse fill="none" stroke="#000000" cx="8040.82" cy="-3829.7889" rx="28.6953" ry="18"/>
<text text-anchor="middle" x="8040.82" y="-3826.0889" font-family="Times,serif" font-size="14.00" fill="#000000">1239</text>
</g>
<!-- 5511 -->
<g id="node24" class="node">
<title>5511</title>
<ellipse fill="none" stroke="#000000" cx="8173.9146" cy="-3829.7889" rx="28.6953" ry="18"/>
<text text-anchor="middle" x="8173.9146" y="-3826.0889" font-family="Times,serif" font-size="14.00" fill="#000000">5511</text>
</g>
<!-- 1239&#45;&gt;5511 -->
<g id="edge7" class="edge">
<title>1239&#45;&gt;5511</title>
<path fill="none" stroke="#000000" d="M8069.6995,-3829.7889C8088.7974,-3829.7889 8114.0666,-3829.7889 8134.9394,-3829.7889"/>
<polygon fill="#000000" stroke="#000000" points="8135.0914,-3833.289 8145.0914,-3829.7889 8135.0914,-3826.289 8135.0914,-3833.289"/>
</g>
<!-- 17676 -->
<g id="node45" class="node">
<title>17676</title>
<ellipse fill="none" stroke="#000000" cx="7907.7254" cy="-3829.7889" rx="32.4942" ry="18"/>
<text text-anchor="middle" x="7907.7254" y="-3826.0889" font-family="Times,serif" font-size="14.00" fill="#000000">17676</text>
</g>
<!-- 1239&#45;&gt;17676 -->
<g id="edge8" class="edge">
<title>1239&#45;&gt;17676</title>
<path fill="none" stroke="#000000" d="M8011.9405,-3829.7889C7993.9715,-3829.7889 7970.5392,-3829.7889 7950.4459,-3829.7889"/>
<polygon fill="#000000" stroke="#000000" points="7950.2894,-3826.289 7940.2893,-3829.7889 7950.2893,-3833.289 7950.2894,-3826.289"/>
</g>
<!-- 1273 -->
<g id="node6" class="node">
<title>1273</title>
<ellipse fill="none" stroke="#000000" cx="8040.82" cy="-3563.5997" rx="28.6953" ry="18"/>
<text text-anchor="middle" x="8040.82" y="-3559.8997" font-family="Times,serif" font-size="14.00" fill="#000000">1273</text>
</g>
<!-- 1273&#45;&gt;1239 -->
<g id="edge9" class="edge">
<title>1273&#45;&gt;1239</title>
<path fill="none" stroke="#000000" d="M8040.82,-3581.896C8040.82,-3627.5954 8040.82,-3746.9826 8040.82,-3801.6805"/>
<polygon fill="#000000" stroke="#000000" points="8037.3201,-3801.7165 8040.82,-3811.7166 8044.3201,-3801.7166 8037.3201,-3801.7165"/>
</g>
<!-- 6461 -->
<g id="node27" class="node">
<title>6461</title>
<ellipse fill="none" stroke="#000000" cx="4722.1476" cy="-2042.0565" rx="28.6953" ry="18"/>
<text text-anchor="middle" x="4722.1476" y="-2038.3565" font-family="Times,serif" font-size="14.00" fill="#000000">6461</text>
</g>
<!-- 1299&#45;&gt;6461 -->
<g id="edge10" class="edge">
<title>1299&#45;&gt;6461</title>
<path fill="none" stroke="#000000" d="M4621.6252,-2042.0565C4639.6473,-2042.0565 4663.1396,-2042.0565 4682.8813,-2042.0565"/>
<polygon fill="#000000" stroke="#000000" points="4683.1084,-2045.5564 4693.1084,-2042.0565 4683.1085,-2038.5564 4683.1084,-2045.5564"/>
</g>
<!-- 2497 -->
<g id="node8" class="node">
<title>2497</title>
<ellipse fill="none" stroke="#000000" cx="4851.3425" cy="-2042.0565" rx="28.6953" ry="18"/>
<text text-anchor="middle" x="4851.3425" y="-2038.3565" font-family="Times,serif" font-size="14.00" fill="#000000">2497</text>
</g>
<!-- 2497&#45;&gt;701 -->
<g id="edge11" class="edge">
<title>2497&#45;&gt;701</title>
<path fill="none" stroke="#000000" d="M4880.3832,-2042.0565C5177.8634,-2042.0565 7667.4466,-2042.0565 8003.3725,-2042.0565"/>
<polygon fill="#000000" stroke="#000000" points="8003.5484,-2045.5566 8013.5484,-2042.0565 8003.5483,-2038.5566 8003.5484,-2045.5566"/>
</g>
<!-- 32787 -->
<g id="node51" class="node">
<title>32787</title>
<ellipse fill="none" stroke="#000000" cx="7179.2525" cy="-448.1164" rx="32.4942" ry="18"/>
<text text-anchor="middle" x="7179.2525" y="-444.4164" font-family="Times,serif" font-size="14.00" fill="#000000">32787</text>
</g>
<!-- 2516&#45;&gt;32787 -->
<g id="edge12" class="edge">
<title>2516&#45;&gt;32787</title>
<path fill="none" stroke="#000000" d="M7686.6979,-448.1164C7597.831,-448.1164 7327.7812,-448.1164 7222.2045,-448.1164"/>
<polygon fill="#000000" stroke="#000000" points="7221.9229,-444.6165 7211.9229,-448.1164 7221.9228,-451.6165 7221.9229,-444.6165"/>
</g>
<!-- 2686 -->
<g id="node10" class="node">
<title>2686</title>
<ellipse fill="none" stroke="#000000" cx="1115.8187" cy="-2832.9579" rx="28.6953" ry="18"/>
<text text-anchor="middle" x="1115.8187" y="-2829.2579" font-family="Times,serif" font-size="14.00" fill="#000000">2686</text>
</g>
<!-- 3741 -->
<g id="node21" class="node">
<title>3741</title>
<ellipse fill="none" stroke="#000000" cx="1062.0146" cy="-2715.4997" rx="28.6953" ry="18"/>
<text text-anchor="middle" x="1062.0146" y="-2711.7997" font-family="Times,serif" font-size="14.00" fill="#000000">3741</text>
</g>
<!-- 2686&#45;&gt;3741 -->
<g id="edge13" class="edge">
<title>2686&#45;&gt;3741</title>
<path fill="none" stroke="#000000" d="M1107.8797,-2815.6265C1099.0185,-2796.2818 1084.5722,-2764.7447 1074.2608,-2742.2339"/>
<polygon fill="#000000" stroke="#000000" points="1077.3328,-2740.5361 1069.9861,-2732.9021 1070.9687,-2743.4513 1077.3328,-2740.5361"/>
</g>
<!-- 2687 -->
<g id="node11" class="node">
<title>2687</title>
<ellipse fill="none" stroke="#000000" cx="1169.6229" cy="-2950.4162" rx="28.6953" ry="18"/>
<text text-anchor="middle" x="1169.6229" y="-2946.7162" font-family="Times,serif" font-size="14.00" fill="#000000">2687</text>
</g>
<!-- 2687&#45;&gt;2686 -->
<g id="edge14" class="edge">
<title>2687&#45;&gt;2686</title>
<path fill="none" stroke="#000000" d="M1161.6839,-2933.0848C1152.8226,-2913.7401 1138.3764,-2882.2029 1128.0649,-2859.6922"/>
<polygon fill="#000000" stroke="#000000" points="1131.137,-2857.9943 1123.7903,-2850.3604 1124.7729,-2860.9096 1131.137,-2857.9943"/>
</g>
<!-- 9505 -->
<g id="node38" class="node">
<title>9505</title>
<ellipse fill="none" stroke="#000000" cx="1278.8552" cy="-3188.8781" rx="28.6953" ry="18"/>
<text text-anchor="middle" x="1278.8552" y="-3185.1781" font-family="Times,serif" font-size="14.00" fill="#000000">9505</text>
</g>
<!-- 2687&#45;&gt;9505 -->
<g id="edge15" class="edge">
<title>2687&#45;&gt;9505</title>
<path fill="none" stroke="#000000" d="M1177.655,-2967.9508C1196.5534,-3009.2074 1243.9346,-3112.6439 1266.515,-3161.9384"/>
<polygon fill="#000000" stroke="#000000" points="1263.4647,-3163.6838 1270.8113,-3171.3177 1269.8288,-3160.7685 1263.4647,-3163.6838"/>
</g>
<!-- 2764 -->
<g id="node12" class="node">
<title>2764</title>
<ellipse fill="none" stroke="#000000" cx="7179.2525" cy="-718.2053" rx="28.6953" ry="18"/>
<text text-anchor="middle" x="7179.2525" y="-714.5053" font-family="Times,serif" font-size="14.00" fill="#000000">2764</text>
</g>
<!-- 7545 -->
<g id="node35" class="node">
<title>7545</title>
<ellipse fill="none" stroke="#000000" cx="7294.1895" cy="-651.0959" rx="28.6953" ry="18"/>
<text text-anchor="middle" x="7294.1895" y="-647.3959" font-family="Times,serif" font-size="14.00" fill="#000000">7545</text>
</g>
<!-- 2764&#45;&gt;7545 -->
<g id="edge16" class="edge">
<title>2764&#45;&gt;7545</title>
<path fill="none" stroke="#000000" d="M7200.3337,-705.8964C7218.2054,-695.4615 7244.0526,-680.3698 7264.0995,-668.6648"/>
<polygon fill="#000000" stroke="#000000" points="7265.9817,-671.6188 7272.8527,-663.554 7262.4521,-665.5738 7265.9817,-671.6188"/>
</g>
<!-- 38333 -->
<g id="node53" class="node">
<title>38333</title>
<ellipse fill="none" stroke="#000000" cx="7181.2023" cy="-851.2855" rx="32.4942" ry="18"/>
<text text-anchor="middle" x="7181.2023" y="-847.5855" font-family="Times,serif" font-size="14.00" fill="#000000">38333</text>
</g>
<!-- 2764&#45;&gt;38333 -->
<g id="edge17" class="edge">
<title>2764&#45;&gt;38333</title>
<path fill="none" stroke="#000000" d="M7179.5195,-736.4305C7179.8477,-758.8291 7180.408,-797.0749 7180.7913,-823.2309"/>
<polygon fill="#000000" stroke="#000000" points="7177.2923,-823.3328 7180.9385,-833.2805 7184.2915,-823.2302 7177.2923,-823.3328"/>
</g>
<!-- 38561 -->
<g id="node54" class="node">
<title>38561</title>
<ellipse fill="none" stroke="#000000" cx="7064.3156" cy="-651.0959" rx="32.4942" ry="18"/>
<text text-anchor="middle" x="7064.3156" y="-647.3959" font-family="Times,serif" font-size="14.00" fill="#000000">38561</text>
</g>
<!-- 2764&#45;&gt;38561 -->
<g id="edge18" class="edge">
<title>2764&#45;&gt;38561</title>
<path fill="none" stroke="#000000" d="M7158.1713,-705.8964C7140.6369,-695.6584 7115.425,-680.9376 7095.5463,-669.3309"/>
<polygon fill="#000000" stroke="#000000" points="7097.2355,-666.2643 7086.8349,-664.2445 7093.7059,-672.3093 7097.2355,-666.2643"/>
</g>
<!-- 2828 -->
<g id="node13" class="node">
<title>2828</title>
<ellipse fill="none" stroke="#000000" cx="8664.0499" cy="-18" rx="28.6953" ry="18"/>
<text text-anchor="middle" x="8664.0499" y="-14.3" font-family="Times,serif" font-size="14.00" fill="#000000">2828</text>
</g>
<!-- 2914 -->
<g id="node14" class="node">
<title>2914</title>
<ellipse fill="none" stroke="#000000" cx="3065.3956" cy="-2042.0565" rx="28.6953" ry="18"/>
<text text-anchor="middle" x="3065.3956" y="-2038.3565" font-family="Times,serif" font-size="14.00" fill="#000000">2914</text>
</g>
<!-- 6453 -->
<g id="node26" class="node">
<title>6453</title>
<ellipse fill="none" stroke="#000000" cx="3194.5905" cy="-2042.0565" rx="28.6953" ry="18"/>
<text text-anchor="middle" x="3194.5905" y="-2038.3565" font-family="Times,serif" font-size="14.00" fill="#000000">6453</text>
</g>
<!-- 2914&#45;&gt;6453 -->
<g id="edge19" class="edge">
<title>2914&#45;&gt;6453</title>
<path fill="none" stroke="#000000" d="M3094.0681,-2042.0565C3112.0902,-2042.0565 3135.5825,-2042.0565 3155.3242,-2042.0565"/>
<polygon fill="#000000" stroke="#000000" points="3155.5514,-2045.5566 3165.5513,-2042.0565 3155.5513,-2038.5566 3155.5514,-2045.5566"/>
</g>
<!-- 3257 -->
<g id="node15" class="node">
<title>3257</title>
<ellipse fill="none" stroke="#000000" cx="3323.7854" cy="-2042.0565" rx="28.6953" ry="18"/>
<text text-anchor="middle" x="3323.7854" y="-2038.3565" font-family="Times,serif" font-size="14.00" fill="#000000">3257</text>
</g>
<!-- 3491 -->
<g id="node18" class="node">
<title>3491</title>
<ellipse fill="none" stroke="#000000" cx="3452.9803" cy="-2042.0565" rx="28.6953" ry="18"/>
<text text-anchor="middle" x="3452.9803" y="-2038.3565" font-family="Times,serif" font-size="14.00" fill="#000000">3491</text>
</g>
<!-- 3257&#45;&gt;3491 -->
<g id="edge20" class="edge">
<title>3257&#45;&gt;3491</title>
<path fill="none" stroke="#000000" d="M3352.4579,-2042.0565C3370.4801,-2042.0565 3393.9723,-2042.0565 3413.714,-2042.0565"/>
<polygon fill="#000000" stroke="#000000" points="3413.9412,-2045.5564 3423.9412,-2042.0565 3413.9412,-2038.5564 3413.9412,-2045.5564"/>
</g>
<!-- 3320 -->
<g id="node16" class="node">
<title>3320</title>
<ellipse fill="none" stroke="#000000" cx="8040.82" cy="-3434.4048" rx="28.6953" ry="18"/>
<text text-anchor="middle" x="8040.82" y="-3430.7048" font-family="Times,serif" font-size="14.00" fill="#000000">3320</text>
</g>
<!-- 3320&#45;&gt;1273 -->
<g id="edge21" class="edge">
<title>3320&#45;&gt;1273</title>
<path fill="none" stroke="#000000" d="M8040.82,-3452.6413C8040.82,-3474.1862 8040.82,-3510.2736 8040.82,-3535.4221"/>
<polygon fill="#000000" stroke="#000000" points="8037.3201,-3535.456 8040.82,-3545.456 8044.3201,-3535.4561 8037.3201,-3535.456"/>
</g>
<!-- 3356 -->
<g id="node17" class="node">
<title>3356</title>
<ellipse fill="none" stroke="#000000" cx="571.6954" cy="-1669.4811" rx="28.6953" ry="18"/>
<text text-anchor="middle" x="571.6954" y="-1665.7811" font-family="Times,serif" font-size="14.00" fill="#000000">3356</text>
</g>
<!-- 3549 -->
<g id="node19" class="node">
<title>3549</title>
<ellipse fill="none" stroke="#000000" cx="571.6954" cy="-2042.0565" rx="28.6953" ry="18"/>
<text text-anchor="middle" x="571.6954" y="-2038.3565" font-family="Times,serif" font-size="14.00" fill="#000000">3549</text>
</g>
<!-- 3356&#45;&gt;3549 -->
<g id="edge22" class="edge">
<title>3356&#45;&gt;3549</title>
<path fill="none" stroke="#000000" d="M571.6954,-1687.7034C571.6954,-1747.8746 571.6954,-1940.5339 571.6954,-2013.5968"/>
<polygon fill="#000000" stroke="#000000" points="568.1955,-2013.8692 571.6954,-2023.8692 575.1955,-2013.8693 568.1955,-2013.8692"/>
</g>
<!-- 3491&#45;&gt;174 -->
<g id="edge23" class="edge">
<title>3491&#45;&gt;174</title>
<path fill="none" stroke="#000000" d="M3481.9677,-2042.0565C3613.5344,-2042.0565 4154.4574,-2042.0565 4302.0208,-2042.0565"/>
<polygon fill="#000000" stroke="#000000" points="4302.3476,-2045.5566 4312.3476,-2042.0565 4302.3475,-2038.5566 4302.3476,-2045.5566"/>
</g>
<!-- 6762 -->
<g id="node28" class="node">
<title>6762</title>
<ellipse fill="none" stroke="#000000" cx="2936.2006" cy="-2042.0565" rx="28.6953" ry="18"/>
<text text-anchor="middle" x="2936.2006" y="-2038.3565" font-family="Times,serif" font-size="14.00" fill="#000000">6762</text>
</g>
<!-- 3549&#45;&gt;6762 -->
<g id="edge24" class="edge">
<title>3549&#45;&gt;6762</title>
<path fill="none" stroke="#000000" d="M600.3163,-2042.0565C846.9122,-2042.0565 2610.6567,-2042.0565 2896.9733,-2042.0565"/>
<polygon fill="#000000" stroke="#000000" points="2897.2789,-2045.5566 2907.2789,-2042.0565 2897.2789,-2038.5566 2897.2789,-2045.5566"/>
</g>
<!-- 30070 -->
<g id="node50" class="node">
<title>30070</title>
<ellipse fill="none" stroke="#000000" cx="571.6954" cy="-3224.3091" rx="32.4942" ry="18"/>
<text text-anchor="middle" x="571.6954" y="-3220.6091" font-family="Times,serif" font-size="14.00" fill="#000000">30070</text>
</g>
<!-- 3549&#45;&gt;30070 -->
<g id="edge25" class="edge">
<title>3549&#45;&gt;30070</title>
<path fill="none" stroke="#000000" d="M571.6954,-2060.1537C571.6954,-2194.0535 571.6954,-3030.291 571.6954,-3195.847"/>
<polygon fill="#000000" stroke="#000000" points="568.1955,-3196.1801 571.6954,-3206.1801 575.1955,-3196.1801 568.1955,-3196.1801"/>
</g>
<!-- 3597 -->
<g id="node20" class="node">
<title>3597</title>
<ellipse fill="none" stroke="#000000" cx="722.1828" cy="-658.6682" rx="28.6953" ry="18"/>
<text text-anchor="middle" x="722.1828" y="-654.9682" font-family="Times,serif" font-size="14.00" fill="#000000">3597</text>
</g>
<!-- 37179 -->
<g id="node52" class="node">
<title>37179</title>
<ellipse fill="none" stroke="#000000" cx="1006.5864" cy="-2594.496" rx="32.4942" ry="18"/>
<text text-anchor="middle" x="1006.5864" y="-2590.796" font-family="Times,serif" font-size="14.00" fill="#000000">37179</text>
</g>
<!-- 3741&#45;&gt;37179 -->
<g id="edge26" class="edge">
<title>3741&#45;&gt;37179</title>
<path fill="none" stroke="#000000" d="M1054.0731,-2698.1628C1044.9057,-2678.1497 1029.7155,-2644.9885 1018.9874,-2621.5683"/>
<polygon fill="#000000" stroke="#000000" points="1022.0401,-2619.8282 1014.6934,-2612.1942 1015.676,-2622.7434 1022.0401,-2619.8282"/>
</g>
<!-- 4637 -->
<g id="node22" class="node">
<title>4637</title>
<ellipse fill="none" stroke="#000000" cx="8712.4381" cy="-137.7911" rx="28.6953" ry="18"/>
<text text-anchor="middle" x="8712.4381" y="-134.0911" font-family="Times,serif" font-size="14.00" fill="#000000">4637</text>
</g>
<!-- 4637&#45;&gt;2828 -->
<g id="edge27" class="edge">
<title>4637&#45;&gt;2828</title>
<path fill="none" stroke="#000000" d="M8705.2982,-120.1156C8697.329,-100.3866 8684.3369,-68.2231 8675.0634,-45.2652"/>
<polygon fill="#000000" stroke="#000000" points="8678.2097,-43.7094 8671.2191,-35.7481 8671.7192,-46.3311 8678.2097,-43.7094"/>
</g>
<!-- 4755 -->
<g id="node23" class="node">
<title>4755</title>
<ellipse fill="none" stroke="#000000" cx="8815.2668" cy="-869.6465" rx="28.6953" ry="18"/>
<text text-anchor="middle" x="8815.2668" y="-865.9465" font-family="Times,serif" font-size="14.00" fill="#000000">4755</text>
</g>
<!-- 9583 -->
<g id="node39" class="node">
<title>9583</title>
<ellipse fill="none" stroke="#000000" cx="8935.0579" cy="-918.0347" rx="28.6953" ry="18"/>
<text text-anchor="middle" x="8935.0579" y="-914.3347" font-family="Times,serif" font-size="14.00" fill="#000000">9583</text>
</g>
<!-- 4755&#45;&gt;9583 -->
<g id="edge28" class="edge">
<title>4755&#45;&gt;9583</title>
<path fill="none" stroke="#000000" d="M8839.5083,-879.4386C8857.2877,-886.6204 8881.6571,-896.4641 8901.3349,-904.4127"/>
<polygon fill="#000000" stroke="#000000" points="8900.2694,-907.757 8910.8524,-908.2572 8902.8912,-901.2665 8900.2694,-907.757"/>
</g>
<!-- 5692 -->
<g id="node25" class="node">
<title>5692</title>
<ellipse fill="none" stroke="#000000" cx="976.534" cy="-726.7093" rx="28.6953" ry="18"/>
<text text-anchor="middle" x="976.534" y="-723.0093" font-family="Times,serif" font-size="14.00" fill="#000000">5692</text>
</g>
<!-- 5692&#45;&gt;3597 -->
<g id="edge29" class="edge">
<title>5692&#45;&gt;3597</title>
<path fill="none" stroke="#000000" d="M949.7947,-719.5563C903.8781,-707.2732 810.0038,-682.1611 758.3129,-668.3333"/>
<polygon fill="#000000" stroke="#000000" points="759.1287,-664.9285 748.5638,-665.7254 757.3197,-671.6908 759.1287,-664.9285"/>
</g>
<!-- 10834 -->
<g id="node41" class="node">
<title>10834</title>
<ellipse fill="none" stroke="#000000" cx="571.6954" cy="-726.7093" rx="32.4942" ry="18"/>
<text text-anchor="middle" x="571.6954" y="-723.0093" font-family="Times,serif" font-size="14.00" fill="#000000">10834</text>
</g>
<!-- 5692&#45;&gt;10834 -->
<g id="edge30" class="edge">
<title>5692&#45;&gt;10834</title>
<path fill="none" stroke="#000000" d="M947.7436,-726.7093C877.4974,-726.7093 697.032,-726.7093 614.2938,-726.7093"/>
<polygon fill="#000000" stroke="#000000" points="614.2303,-723.2094 604.2303,-726.7093 614.2302,-730.2094 614.2303,-723.2094"/>
</g>
<!-- 11008 -->
<g id="node42" class="node">
<title>11008</title>
<ellipse fill="none" stroke="#000000" cx="786.9418" cy="-544.0103" rx="32.4942" ry="18"/>
<text text-anchor="middle" x="786.9418" y="-540.3103" font-family="Times,serif" font-size="14.00" fill="#000000">11008</text>
</g>
<!-- 5692&#45;&gt;11008 -->
<g id="edge31" class="edge">
<title>5692&#45;&gt;11008</title>
<path fill="none" stroke="#000000" d="M960.6956,-711.4467C927.3217,-679.2862 849.6265,-604.4159 810.437,-566.6513"/>
<polygon fill="#000000" stroke="#000000" points="812.7665,-564.0354 803.137,-559.6167 807.9092,-569.076 812.7665,-564.0354"/>
</g>
<!-- 27865 -->
<g id="node48" class="node">
<title>27865</title>
<ellipse fill="none" stroke="#000000" cx="902.8594" cy="-473.9323" rx="32.4942" ry="18"/>
<text text-anchor="middle" x="902.8594" y="-470.2323" font-family="Times,serif" font-size="14.00" fill="#000000">27865</text>
</g>
<!-- 5692&#45;&gt;27865 -->
<g id="edge32" class="edge">
<title>5692&#45;&gt;27865</title>
<path fill="none" stroke="#000000" d="M971.3534,-708.9345C958.7023,-665.5286 926.1584,-553.8707 910.9356,-501.6414"/>
<polygon fill="#000000" stroke="#000000" points="914.2914,-500.647 908.133,-492.0258 907.5711,-502.6057 914.2914,-500.647"/>
</g>
<!-- 28065 -->
<g id="node49" class="node">
<title>28065</title>
<ellipse fill="none" stroke="#000000" cx="1038.2764" cy="-470.7561" rx="32.4942" ry="18"/>
<text text-anchor="middle" x="1038.2764" y="-467.0561" font-family="Times,serif" font-size="14.00" fill="#000000">28065</text>
</g>
<!-- 5692&#45;&gt;28065 -->
<g id="edge33" class="edge">
<title>5692&#45;&gt;28065</title>
<path fill="none" stroke="#000000" d="M980.8756,-708.7112C991.4814,-664.745 1018.7694,-551.6223 1031.5212,-498.7597"/>
<polygon fill="#000000" stroke="#000000" points="1034.9969,-499.2763 1033.9396,-488.7344 1028.1921,-497.6348 1034.9969,-499.2763"/>
</g>
<!-- 52317 -->
<g id="node55" class="node">
<title>52317</title>
<ellipse fill="none" stroke="#000000" cx="1157.3521" cy="-535.3223" rx="32.4942" ry="18"/>
<text text-anchor="middle" x="1157.3521" y="-531.6223" font-family="Times,serif" font-size="14.00" fill="#000000">52317</text>
</g>
<!-- 5692&#45;&gt;52317 -->
<g id="edge34" class="edge">
<title>5692&#45;&gt;52317</title>
<path fill="none" stroke="#000000" d="M991.3311,-711.0473C1023.0396,-677.4855 1097.6904,-598.4712 1135.1276,-558.8458"/>
<polygon fill="#000000" stroke="#000000" points="1137.7717,-561.1437 1142.0951,-551.4711 1132.6835,-556.3364 1137.7717,-561.1437"/>
</g>
<!-- 52375 -->
<g id="node56" class="node">
<title>52375</title>
<ellipse fill="none" stroke="#000000" cx="1228.5712" cy="-650.5424" rx="32.4942" ry="18"/>
<text text-anchor="middle" x="1228.5712" y="-646.8424" font-family="Times,serif" font-size="14.00" fill="#000000">52375</text>
</g>
<!-- 5692&#45;&gt;52375 -->
<g id="edge35" class="edge">
<title>5692&#45;&gt;52375</title>
<path fill="none" stroke="#000000" d="M1002.5572,-718.845C1047.1275,-705.3756 1138.2735,-677.8308 1190.1699,-662.1475"/>
<polygon fill="#000000" stroke="#000000" points="1191.4404,-665.4199 1200.0004,-659.1767 1189.4154,-658.7192 1191.4404,-665.4199"/>
</g>
<!-- 52376 -->
<g id="node57" class="node">
<title>52376</title>
<ellipse fill="none" stroke="#000000" cx="1233.0844" cy="-785.9214" rx="32.4942" ry="18"/>
<text text-anchor="middle" x="1233.0844" y="-782.2214" font-family="Times,serif" font-size="14.00" fill="#000000">52376</text>
</g>
<!-- 5692&#45;&gt;52376 -->
<g id="edge36" class="edge">
<title>5692&#45;&gt;52376</title>
<path fill="none" stroke="#000000" d="M1003.5045,-732.9341C1048.7327,-743.3728 1140.0922,-764.4587 1192.907,-776.6484"/>
<polygon fill="#000000" stroke="#000000" points="1192.4,-780.1233 1202.931,-778.9619 1193.9743,-773.3026 1192.4,-780.1233"/>
</g>
<!-- 52380 -->
<g id="node58" class="node">
<title>52380</title>
<ellipse fill="none" stroke="#000000" cx="1169.697" cy="-905.6288" rx="32.4942" ry="18"/>
<text text-anchor="middle" x="1169.697" y="-901.9288" font-family="Times,serif" font-size="14.00" fill="#000000">52380</text>
</g>
<!-- 5692&#45;&gt;52380 -->
<g id="edge37" class="edge">
<title>5692&#45;&gt;52380</title>
<path fill="none" stroke="#000000" d="M992.6708,-741.6561C1026.5883,-773.0726 1105.4362,-846.1065 1145.4591,-883.1782"/>
<polygon fill="#000000" stroke="#000000" points="1143.2064,-885.8623 1152.9212,-890.09 1147.9632,-880.7269 1143.2064,-885.8623"/>
</g>
<!-- 52413 -->
<g id="node59" class="node">
<title>52413</title>
<ellipse fill="none" stroke="#000000" cx="1055.1858" cy="-977.9821" rx="32.4942" ry="18"/>
<text text-anchor="middle" x="1055.1858" y="-974.2821" font-family="Times,serif" font-size="14.00" fill="#000000">52413</text>
</g>
<!-- 5692&#45;&gt;52413 -->
<g id="edge38" class="edge">
<title>5692&#45;&gt;52413</title>
<path fill="none" stroke="#000000" d="M982.0647,-744.3783C995.5705,-787.5259 1030.3129,-898.5194 1046.5641,-950.4379"/>
<polygon fill="#000000" stroke="#000000" points="1043.2285,-951.4985 1049.556,-959.9963 1049.9089,-949.4074 1043.2285,-951.4985"/>
</g>
<!-- 52431 -->
<g id="node60" class="node">
<title>52431</title>
<ellipse fill="none" stroke="#000000" cx="919.858" cy="-983.8318" rx="32.4942" ry="18"/>
<text text-anchor="middle" x="919.858" y="-980.1318" font-family="Times,serif" font-size="14.00" fill="#000000">52431</text>
</g>
<!-- 5692&#45;&gt;52431 -->
<g id="edge39" class="edge">
<title>5692&#45;&gt;52431</title>
<path fill="none" stroke="#000000" d="M972.5487,-744.7896C962.8132,-788.9567 937.7643,-902.5961 926.0589,-955.7003"/>
<polygon fill="#000000" stroke="#000000" points="922.5736,-955.2524 923.8389,-965.7714 929.4095,-956.7592 922.5736,-955.2524"/>
</g>
<!-- 262230 -->
<g id="node61" class="node">
<title>262230</title>
<ellipse fill="none" stroke="#000000" cx="796.189" cy="-918.542" rx="37.0935" ry="18"/>
<text text-anchor="middle" x="796.189" y="-914.842" font-family="Times,serif" font-size="14.00" fill="#000000">262230</text>
</g>
<!-- 5692&#45;&gt;262230 -->
<g id="edge40" class="edge">
<title>5692&#45;&gt;262230</title>
<path fill="none" stroke="#000000" d="M961.7756,-742.4078C930.229,-775.9639 856.0656,-854.8513 818.6353,-894.6658"/>
<polygon fill="#000000" stroke="#000000" points="815.9621,-892.3995 811.6626,-902.0828 821.0622,-897.1942 815.9621,-892.3995"/>
</g>
<!-- 264608 -->
<g id="node62" class="node">
<title>264608</title>
<ellipse fill="none" stroke="#000000" cx="722.1828" cy="-794.7504" rx="37.0935" ry="18"/>
<text text-anchor="middle" x="722.1828" y="-791.0504" font-family="Times,serif" font-size="14.00" fill="#000000">264608</text>
</g>
<!-- 5692&#45;&gt;264608 -->
<g id="edge41" class="edge">
<title>5692&#45;&gt;264608</title>
<path fill="none" stroke="#000000" d="M949.7947,-733.8623C905.6996,-745.6581 817.3764,-769.2853 764.6582,-783.3878"/>
<polygon fill="#000000" stroke="#000000" points="763.6861,-780.0247 754.9303,-785.9901 765.4951,-786.787 763.6861,-780.0247"/>
</g>
<!-- 6453&#45;&gt;3257 -->
<g id="edge42" class="edge">
<title>6453&#45;&gt;3257</title>
<path fill="none" stroke="#000000" d="M3223.263,-2042.0565C3241.2851,-2042.0565 3264.7774,-2042.0565 3284.5191,-2042.0565"/>
<polygon fill="#000000" stroke="#000000" points="3284.7462,-2045.5564 3294.7463,-2042.0565 3284.7463,-2038.5564 3284.7462,-2045.5564"/>
</g>
<!-- 6461&#45;&gt;2497 -->
<g id="edge43" class="edge">
<title>6461&#45;&gt;2497</title>
<path fill="none" stroke="#000000" d="M4750.8201,-2042.0565C4768.8422,-2042.0565 4792.3345,-2042.0565 4812.0762,-2042.0565"/>
<polygon fill="#000000" stroke="#000000" points="4812.3033,-2045.5564 4822.3034,-2042.0565 4812.3034,-2038.5564 4812.3033,-2045.5564"/>
</g>
<!-- 6762&#45;&gt;2914 -->
<g id="edge44" class="edge">
<title>6762&#45;&gt;2914</title>
<path fill="none" stroke="#000000" d="M2964.8732,-2042.0565C2982.8953,-2042.0565 3006.3875,-2042.0565 3026.1292,-2042.0565"/>
<polygon fill="#000000" stroke="#000000" points="3026.3564,-2045.5566 3036.3564,-2042.0565 3026.3564,-2038.5566 3026.3564,-2045.5566"/>
</g>
<!-- 6904 -->
<g id="node29" class="node">
<title>6904</title>
<ellipse fill="none" stroke="#000000" cx="692.6991" cy="-3168.8809" rx="28.6953" ry="18"/>
<text text-anchor="middle" x="692.6991" y="-3165.1809" font-family="Times,serif" font-size="14.00" fill="#000000">6904</text>
</g>
<!-- 6904&#45;&gt;2687 -->
<g id="edge45" class="edge">
<title>6904&#45;&gt;2687</title>
<path fill="none" stroke="#000000" d="M716.025,-3158.196C794.1557,-3122.4066 1046.7912,-3006.6817 1137.1296,-2965.3004"/>
<polygon fill="#000000" stroke="#000000" points="1138.708,-2968.4272 1146.3419,-2961.0805 1135.7927,-2962.0631 1138.708,-2968.4272"/>
</g>
<!-- 6939 -->
<g id="node30" class="node">
<title>6939</title>
<ellipse fill="none" stroke="#000000" cx="8564.837" cy="-768.4886" rx="28.6953" ry="18"/>
<text text-anchor="middle" x="8564.837" y="-764.7886" font-family="Times,serif" font-size="14.00" fill="#000000">6939</text>
</g>
<!-- 12266 -->
<g id="node43" class="node">
<title>12266</title>
<ellipse fill="none" stroke="#000000" cx="8441.4301" cy="-718.64" rx="32.4942" ry="18"/>
<text text-anchor="middle" x="8441.4301" y="-714.94" font-family="Times,serif" font-size="14.00" fill="#000000">12266</text>
</g>
<!-- 6939&#45;&gt;12266 -->
<g id="edge46" class="edge">
<title>6939&#45;&gt;12266</title>
<path fill="none" stroke="#000000" d="M8540.75,-758.759C8522.7049,-751.4699 8497.719,-741.3772 8477.3229,-733.1384"/>
<polygon fill="#000000" stroke="#000000" points="8478.6066,-729.8822 8468.0236,-729.3821 8475.9848,-736.3727 8478.6066,-729.8822"/>
</g>
<!-- 7016 -->
<g id="node31" class="node">
<title>7016</title>
<ellipse fill="none" stroke="#000000" cx="373.4627" cy="-3714.2004" rx="28.6953" ry="18"/>
<text text-anchor="middle" x="373.4627" y="-3710.5004" font-family="Times,serif" font-size="14.00" fill="#000000">7016</text>
</g>
<!-- 7922 -->
<g id="node36" class="node">
<title>7922</title>
<ellipse fill="none" stroke="#000000" cx="325.0016" cy="-3833.962" rx="28.6953" ry="18"/>
<text text-anchor="middle" x="325.0016" y="-3830.262" font-family="Times,serif" font-size="14.00" fill="#000000">7922</text>
</g>
<!-- 7016&#45;&gt;7922 -->
<g id="edge47" class="edge">
<title>7016&#45;&gt;7922</title>
<path fill="none" stroke="#000000" d="M366.3121,-3731.8716C358.3309,-3751.5957 345.3192,-3783.7513 336.0317,-3806.7035"/>
<polygon fill="#000000" stroke="#000000" points="332.6882,-3805.6355 332.1816,-3816.2183 339.1771,-3808.2613 332.6882,-3805.6355"/>
</g>
<!-- 7018&#45;&gt;3320 -->
<g id="edge48" class="edge">
<title>7018&#45;&gt;3320</title>
<path fill="none" stroke="#000000" d="M8040.82,-3323.4463C8040.82,-3344.9913 8040.82,-3381.0786 8040.82,-3406.2272"/>
<polygon fill="#000000" stroke="#000000" points="8037.3201,-3406.2611 8040.82,-3416.2611 8044.3201,-3406.2611 8037.3201,-3406.2611"/>
</g>
<!-- 7473 -->
<g id="node33" class="node">
<title>7473</title>
<ellipse fill="none" stroke="#000000" cx="9223.927" cy="-346.5009" rx="28.6953" ry="18"/>
<text text-anchor="middle" x="9223.927" y="-342.8009" font-family="Times,serif" font-size="14.00" fill="#000000">7473</text>
</g>
<!-- 7474 -->
<g id="node34" class="node">
<title>7474</title>
<ellipse fill="none" stroke="#000000" cx="7179.2525" cy="-178.0276" rx="28.6953" ry="18"/>
<text text-anchor="middle" x="7179.2525" y="-174.3276" font-family="Times,serif" font-size="14.00" fill="#000000">7474</text>
</g>
<!-- 9498&#45;&gt;4637 -->
<g id="edge49" class="edge">
<title>9498&#45;&gt;4637</title>
<path fill="none" stroke="#000000" d="M8830.6914,-430.5429C8809.8406,-378.9241 8748.6669,-227.4805 8723.474,-165.112"/>
<polygon fill="#000000" stroke="#000000" points="8726.6049,-163.5179 8719.6142,-155.5566 8720.1144,-166.1397 8726.6049,-163.5179"/>
</g>
<!-- 9498&#45;&gt;7473 -->
<g id="edge50" class="edge">
<title>9498&#45;&gt;7473</title>
<path fill="none" stroke="#000000" d="M8864.3308,-441.132C8931.9224,-423.3446 9110.6384,-376.3139 9187.7093,-356.0319"/>
<polygon fill="#000000" stroke="#000000" points="9188.6764,-359.3967 9197.4564,-353.4669 9186.8949,-352.6272 9188.6764,-359.3967"/>
</g>
<!-- 10026 -->
<g id="node40" class="node">
<title>10026</title>
<ellipse fill="none" stroke="#000000" cx="8688.244" cy="-818.3373" rx="32.4942" ry="18"/>
<text text-anchor="middle" x="8688.244" y="-814.6373" font-family="Times,serif" font-size="14.00" fill="#000000">10026</text>
</g>
<!-- 9498&#45;&gt;10026 -->
<g id="edge51" class="edge">
<title>9498&#45;&gt;10026</title>
<path fill="none" stroke="#000000" d="M8830.5771,-465.973C8806.3931,-525.8437 8728.0793,-719.7198 8699.1309,-791.3854"/>
<polygon fill="#000000" stroke="#000000" points="8695.8847,-790.0769 8695.3845,-800.66 8702.3752,-792.6987 8695.8847,-790.0769"/>
</g>
<!-- 10026&#45;&gt;4755 -->
<g id="edge52" class="edge">
<title>10026&#45;&gt;4755</title>
<path fill="none" stroke="#000000" d="M8714.5632,-828.9686C8734.0103,-836.824 8760.6404,-847.5809 8781.6316,-856.0601"/>
<polygon fill="#000000" stroke="#000000" points="8780.5466,-859.3965 8791.1296,-859.8966 8783.1683,-852.906 8780.5466,-859.3965"/>
</g>
<!-- 10026&#45;&gt;6939 -->
<g id="edge53" class="edge">
<title>10026&#45;&gt;6939</title>
<path fill="none" stroke="#000000" d="M8661.7701,-807.6435C8643.2678,-800.1697 8618.4098,-790.1287 8598.4994,-782.0861"/>
<polygon fill="#000000" stroke="#000000" points="8599.7553,-778.8187 8589.1722,-778.3185 8597.1335,-785.3092 8599.7553,-778.8187"/>
</g>
<!-- 12956 -->
<g id="node44" class="node">
<title>12956</title>
<ellipse fill="none" stroke="#000000" cx="571.6954" cy="-1536.3865" rx="32.4942" ry="18"/>
<text text-anchor="middle" x="571.6954" y="-1532.6865" font-family="Times,serif" font-size="14.00" fill="#000000">12956</text>
</g>
<!-- 10834&#45;&gt;12956 -->
<g id="edge54" class="edge">
<title>10834&#45;&gt;12956</title>
<path fill="none" stroke="#000000" d="M571.6954,-744.7558C571.6954,-849.5028 571.6954,-1379.1411 571.6954,-1508.0653"/>
<polygon fill="#000000" stroke="#000000" points="568.1955,-1508.2964 571.6954,-1518.2965 575.1955,-1508.2965 568.1955,-1508.2964"/>
</g>
<!-- 22927 -->
<g id="node47" class="node">
<title>22927</title>
<ellipse fill="none" stroke="#000000" cx="166.8568" cy="-726.7093" rx="32.4942" ry="18"/>
<text text-anchor="middle" x="166.8568" y="-723.0093" font-family="Times,serif" font-size="14.00" fill="#000000">22927</text>
</g>
<!-- 10834&#45;&gt;22927 -->
<g id="edge55" class="edge">
<title>10834&#45;&gt;22927</title>
<path fill="none" stroke="#000000" d="M538.9087,-726.7093C466.1281,-726.7093 291.1018,-726.7093 209.757,-726.7093"/>
<polygon fill="#000000" stroke="#000000" points="209.3847,-723.2094 199.3847,-726.7093 209.3846,-730.2094 209.3847,-723.2094"/>
</g>
<!-- 12956&#45;&gt;3356 -->
<g id="edge56" class="edge">
<title>12956&#45;&gt;3356</title>
<path fill="none" stroke="#000000" d="M571.6954,-1554.6137C571.6954,-1577.0147 571.6954,-1615.2646 571.6954,-1641.4234"/>
<polygon fill="#000000" stroke="#000000" points="568.1955,-1641.474 571.6954,-1651.474 575.1955,-1641.4741 568.1955,-1641.474"/>
</g>
<!-- 18540 -->
<g id="node46" class="node">
<title>18540</title>
<ellipse fill="none" stroke="#000000" cx="32.4971" cy="-2977.3182" rx="32.4942" ry="18"/>
<text text-anchor="middle" x="32.4971" y="-2973.6182" font-family="Times,serif" font-size="14.00" fill="#000000">18540</text>
</g>
<!-- 30070&#45;&gt;6904 -->
<g id="edge57" class="edge">
<title>30070&#45;&gt;6904</title>
<path fill="none" stroke="#000000" d="M596.7675,-3212.8243C615.0902,-3204.4312 640.1067,-3192.9719 659.9992,-3183.8597"/>
<polygon fill="#000000" stroke="#000000" points="661.6672,-3186.9454 669.3011,-3179.5988 658.752,-3180.5814 661.6672,-3186.9454"/>
</g>
<!-- 30070&#45;&gt;7016 -->
<g id="edge58" class="edge">
<title>30070&#45;&gt;7016</title>
<path fill="none" stroke="#000000" d="M564.5231,-3242.034C534.6807,-3315.7834 420.2375,-3598.6061 384.3157,-3687.3795"/>
<polygon fill="#000000" stroke="#000000" points="381.0283,-3686.1729 380.5217,-3696.7556 387.5172,-3688.7986 381.0283,-3686.1729"/>
</g>
<!-- 30070&#45;&gt;18540 -->
<g id="edge59" class="edge">
<title>30070&#45;&gt;18540</title>
<path fill="none" stroke="#000000" d="M546.412,-3212.7275C458.6726,-3172.5367 167.2232,-3039.0323 66.8315,-2993.0458"/>
<polygon fill="#000000" stroke="#000000" points="68.275,-2989.8574 57.7258,-2988.8748 65.3598,-2996.2215 68.275,-2989.8574"/>
</g>
<!-- 32787&#45;&gt;2764 -->
<g id="edge60" class="edge">
<title>32787&#45;&gt;2764</title>
<path fill="none" stroke="#000000" d="M7179.2525,-466.2571C7179.2525,-512.3847 7179.2525,-634.424 7179.2525,-689.9643"/>
<polygon fill="#000000" stroke="#000000" points="7175.7526,-690.1435 7179.2525,-700.1435 7182.7526,-690.1436 7175.7526,-690.1435"/>
</g>
<!-- 32787&#45;&gt;7474 -->
<g id="edge61" class="edge">
<title>32787&#45;&gt;7474</title>
<path fill="none" stroke="#000000" d="M7179.2525,-429.9758C7179.2525,-383.8482 7179.2525,-261.8089 7179.2525,-206.2686"/>
<polygon fill="#000000" stroke="#000000" points="7182.7526,-206.0893 7179.2525,-196.0893 7175.7526,-206.0894 7182.7526,-206.0893"/>
</g>
</g>
</svg>
