<?xml version="1.0" encoding="UTF-8" standalone="no"?>
<!DOCTYPE svg PUBLIC "-//W3C//DTD SVG 1.1//EN"
 "http://www.w3.org/Graphics/SVG/1.1/DTD/svg11.dtd">
<!-- Generated by graphviz version 2.40.1 (20161225.0304)
 -->
<!-- Title: %3 Pages: 1 -->
<svg width="821pt" height="478pt"
 viewBox="0.00 0.00 820.87 477.87" xmlns="http://www.w3.org/2000/svg" xmlns:xlink="http://www.w3.org/1999/xlink">
<g id="graph0" class="graph" transform="scale(1 1) rotate(0) translate(4 473.8726)">
<title>%3</title>
<polygon fill="#ffffff" stroke="transparent" points="-4,4 -4,-473.8726 816.8687,-473.8726 816.8687,4 -4,4"/>
<!-- 174 -->
<g id="node1" class="node">
<title>174</title>
<ellipse fill="none" stroke="#000000" cx="423.8968" cy="-269.8104" rx="27" ry="18"/>
<text text-anchor="middle" x="423.8968" y="-266.1104" font-family="Times,serif" font-size="14.00" fill="#000000">174</text>
</g>
<!-- 209 -->
<g id="node2" class="node">
<title>209</title>
<ellipse fill="none" stroke="#000000" cx="458.9912" cy="-266.4883" rx="27" ry="18"/>
<text text-anchor="middle" x="458.9912" y="-262.7883" font-family="Times,serif" font-size="14.00" fill="#000000">209</text>
</g>
<!-- 174&#45;&gt;209 -->
<g id="edge1" class="edge">
<title>174&#45;&gt;209</title>
<path fill="none" stroke="#000000" d="M450.8516,-267.2588C450.9253,-267.2518 450.9986,-267.2449 451.0716,-267.238"/>
<polygon fill="#000000" stroke="#000000" points="441.6654,-271.6483 451.2896,-267.2174 441.0028,-264.6795 441.6654,-271.6483"/>
</g>
<!-- 1299 -->
<g id="node7" class="node">
<title>1299</title>
<ellipse fill="none" stroke="#000000" cx="494.939" cy="-264.7874" rx="28.6953" ry="18"/>
<text text-anchor="middle" x="494.939" y="-261.0874" font-family="Times,serif" font-size="14.00" fill="#000000">1299</text>
</g>
<!-- 209&#45;&gt;1299 -->
<g id="edge2" class="edge">
<title>209&#45;&gt;1299</title>
<path fill="none" stroke="#000000" d="M486.237,-265.1992C486.3154,-265.1954 486.3934,-265.1918 486.4711,-265.1881"/>
<polygon fill="#000000" stroke="#000000" points="476.8811,-269.1499 486.7031,-265.1771 476.5474,-262.1577 476.8811,-269.1499"/>
</g>
<!-- 701 -->
<g id="node3" class="node">
<title>701</title>
<ellipse fill="none" stroke="#000000" cx="608.1015" cy="-281.6138" rx="27" ry="18"/>
<text text-anchor="middle" x="608.1015" y="-277.9138" font-family="Times,serif" font-size="14.00" fill="#000000">701</text>
</g>
<!-- 703 -->
<g id="node4" class="node">
<title>703</title>
<ellipse fill="none" stroke="#000000" cx="652.3563" cy="-260.3717" rx="27" ry="18"/>
<text text-anchor="middle" x="652.3563" y="-256.6717" font-family="Times,serif" font-size="14.00" fill="#000000">703</text>
</g>
<!-- 701&#45;&gt;703 -->
<g id="edge3" class="edge">
<title>701&#45;&gt;703</title>
<path fill="none" stroke="#000000" d="M630.2289,-270.9928C630.2721,-270.972 630.3153,-270.9513 630.3585,-270.9305"/>
<polygon fill="#000000" stroke="#000000" points="622.9882,-278.3551 630.4882,-270.8683 619.9563,-272.044 622.9882,-278.3551"/>
</g>
<!-- 7018 -->
<g id="node32" class="node">
<title>7018</title>
<ellipse fill="none" stroke="#000000" cx="594.399" cy="-320.327" rx="28.6953" ry="18"/>
<text text-anchor="middle" x="594.399" y="-316.627" font-family="Times,serif" font-size="14.00" fill="#000000">7018</text>
</g>
<!-- 701&#45;&gt;7018 -->
<g id="edge4" class="edge">
<title>701&#45;&gt;7018</title>
<path fill="none" stroke="#000000" d="M601.8917,-299.1581C601.8421,-299.2981 601.7925,-299.4383 601.7429,-299.5786"/>
<polygon fill="#000000" stroke="#000000" points="600.7362,-291.9336 600.6988,-302.5284 607.3351,-294.2694 600.7362,-291.9336"/>
</g>
<!-- 2516 -->
<g id="node9" class="node">
<title>2516</title>
<ellipse fill="none" stroke="#000000" cx="675.4111" cy="-291.8891" rx="28.6953" ry="18"/>
<text text-anchor="middle" x="675.4111" y="-288.1891" font-family="Times,serif" font-size="14.00" fill="#000000">2516</text>
</g>
<!-- 703&#45;&gt;2516 -->
<g id="edge5" class="edge">
<title>703&#45;&gt;2516</title>
<path fill="none" stroke="#000000" d="M664.4238,-276.8688C664.4674,-276.9284 664.511,-276.988 664.5546,-277.0475"/>
<polygon fill="#000000" stroke="#000000" points="655.9541,-271.2211 664.6852,-277.2261 661.6045,-267.0871 655.9541,-271.2211"/>
</g>
<!-- 9498 -->
<g id="node37" class="node">
<title>9498</title>
<ellipse fill="none" stroke="#000000" cx="680.069" cy="-218.345" rx="28.6953" ry="18"/>
<text text-anchor="middle" x="680.069" y="-214.645" font-family="Times,serif" font-size="14.00" fill="#000000">9498</text>
</g>
<!-- 703&#45;&gt;9498 -->
<g id="edge6" class="edge">
<title>703&#45;&gt;9498</title>
<path fill="none" stroke="#000000" d="M663.3091,-243.7616C663.3677,-243.6727 663.4264,-243.5837 663.4852,-243.4946"/>
<polygon fill="#000000" stroke="#000000" points="666.4311,-245.3849 669.0142,-235.1098 660.5872,-241.5314 666.4311,-245.3849"/>
</g>
<!-- 1239 -->
<g id="node5" class="node">
<title>1239</title>
<ellipse fill="none" stroke="#000000" cx="563.5075" cy="-426.8599" rx="28.6953" ry="18"/>
<text text-anchor="middle" x="563.5075" y="-423.1599" font-family="Times,serif" font-size="14.00" fill="#000000">1239</text>
</g>
<!-- 5511 -->
<g id="node24" class="node">
<title>5511</title>
<ellipse fill="none" stroke="#000000" cx="576.0247" cy="-451.8726" rx="28.6953" ry="18"/>
<text text-anchor="middle" x="576.0247" y="-448.1726" font-family="Times,serif" font-size="14.00" fill="#000000">5511</text>
</g>
<!-- 1239&#45;&gt;5511 -->
<g id="edge7" class="edge">
<title>1239&#45;&gt;5511</title>
<path fill="none" stroke="#000000" d="M572.2011,-444.232C572.2345,-444.2987 572.2678,-444.3652 572.3009,-444.4315"/>
<polygon fill="#000000" stroke="#000000" points="564.7921,-437.2535 572.4,-444.6295 571.0524,-434.1191 564.7921,-437.2535"/>
</g>
<!-- 17676 -->
<g id="node45" class="node">
<title>17676</title>
<ellipse fill="none" stroke="#000000" cx="543.8587" cy="-446.2154" rx="32.4942" ry="18"/>
<text text-anchor="middle" x="543.8587" y="-442.5154" font-family="Times,serif" font-size="14.00" fill="#000000">17676</text>
</g>
<!-- 1239&#45;&gt;17676 -->
<g id="edge8" class="edge">
<title>1239&#45;&gt;17676</title>
<path fill="none" stroke="#000000" d="M548.0257,-442.1106C547.9496,-442.1855 547.8742,-442.2598 547.7995,-442.3334"/>
<polygon fill="#000000" stroke="#000000" points="552.246,-433.0396 547.5776,-442.552 557.1591,-438.0271 552.246,-433.0396"/>
</g>
<!-- 1273 -->
<g id="node6" class="node">
<title>1273</title>
<ellipse fill="none" stroke="#000000" cx="571.5873" cy="-392.2271" rx="28.6953" ry="18"/>
<text text-anchor="middle" x="571.5873" y="-388.5271" font-family="Times,serif" font-size="14.00" fill="#000000">1273</text>
</g>
<!-- 1273&#45;&gt;1239 -->
<g id="edge9" class="edge">
<title>1273&#45;&gt;1239</title>
<path fill="none" stroke="#000000" d="M567.3581,-410.3549C567.3428,-410.4204 567.3275,-410.4858 567.3123,-410.5513"/>
<polygon fill="#000000" stroke="#000000" points="566.1338,-400.2123 567.2665,-410.7475 572.9508,-401.8054 566.1338,-400.2123"/>
</g>
<!-- 6461 -->
<g id="node27" class="node">
<title>6461</title>
<ellipse fill="none" stroke="#000000" cx="531.7347" cy="-265.898" rx="28.6953" ry="18"/>
<text text-anchor="middle" x="531.7347" y="-262.198" font-family="Times,serif" font-size="14.00" fill="#000000">6461</text>
</g>
<!-- 1299&#45;&gt;6461 -->
<g id="edge10" class="edge">
<title>1299&#45;&gt;6461</title>
<path fill="none" stroke="#000000" d="M523.5685,-265.6515C523.6428,-265.6537 523.7167,-265.656 523.7902,-265.6582"/>
<polygon fill="#000000" stroke="#000000" points="513.9073,-268.8571 524.0099,-265.6648 514.1216,-261.8603 513.9073,-268.8571"/>
</g>
<!-- 2497 -->
<g id="node8" class="node">
<title>2497</title>
<ellipse fill="none" stroke="#000000" cx="569.35" cy="-271.2786" rx="28.6953" ry="18"/>
<text text-anchor="middle" x="569.35" y="-267.5786" font-family="Times,serif" font-size="14.00" fill="#000000">2497</text>
</g>
<!-- 2497&#45;&gt;701 -->
<g id="edge11" class="edge">
<title>2497&#45;&gt;701</title>
<path fill="none" stroke="#000000" d="M595.8403,-278.3437C595.8935,-278.3579 595.9467,-278.3721 595.9997,-278.3862"/>
<polygon fill="#000000" stroke="#000000" points="585.5926,-279.229 596.1586,-278.4286 587.3996,-272.4653 585.5926,-279.229"/>
</g>
<!-- 32787 -->
<g id="node51" class="node">
<title>32787</title>
<ellipse fill="none" stroke="#000000" cx="694.0078" cy="-324.5243" rx="32.4942" ry="18"/>
<text text-anchor="middle" x="694.0078" y="-320.8243" font-family="Times,serif" font-size="14.00" fill="#000000">32787</text>
</g>
<!-- 2516&#45;&gt;32787 -->
<g id="edge12" class="edge">
<title>2516&#45;&gt;32787</title>
<path fill="none" stroke="#000000" d="M685.1451,-308.9713C685.1803,-309.033 685.2154,-309.0947 685.2506,-309.1563"/>
<polygon fill="#000000" stroke="#000000" points="677.3615,-302.3859 685.3559,-309.3412 683.4438,-298.9186 677.3615,-302.3859"/>
</g>
<!-- 2686 -->
<g id="node10" class="node">
<title>2686</title>
<ellipse fill="none" stroke="#000000" cx="257.332" cy="-57.4899" rx="28.6953" ry="18"/>
<text text-anchor="middle" x="257.332" y="-53.7899" font-family="Times,serif" font-size="14.00" fill="#000000">2686</text>
</g>
<!-- 3741 -->
<g id="node21" class="node">
<title>3741</title>
<ellipse fill="none" stroke="#000000" cx="277.5986" cy="-33.9401" rx="28.6953" ry="18"/>
<text text-anchor="middle" x="277.5986" y="-30.2401" font-family="Times,serif" font-size="14.00" fill="#000000">3741</text>
</g>
<!-- 2686&#45;&gt;3741 -->
<g id="edge13" class="edge">
<title>2686&#45;&gt;3741</title>
<path fill="none" stroke="#000000" d="M270.9626,-41.6512C271.0198,-41.5846 271.077,-41.5182 271.1339,-41.4521"/>
<polygon fill="#000000" stroke="#000000" points="267.4331,-51.1183 271.3041,-41.2542 262.1267,-46.5513 267.4331,-51.1183"/>
</g>
<!-- 2687 -->
<g id="node11" class="node">
<title>2687</title>
<ellipse fill="none" stroke="#000000" cx="234.2919" cy="-83.7661" rx="28.6953" ry="18"/>
<text text-anchor="middle" x="234.2919" y="-80.0661" font-family="Times,serif" font-size="14.00" fill="#000000">2687</text>
</g>
<!-- 2687&#45;&gt;2686 -->
<g id="edge14" class="edge">
<title>2687&#45;&gt;2686</title>
<path fill="none" stroke="#000000" d="M248.2259,-67.8749C248.2638,-67.8317 248.3017,-67.7885 248.3395,-67.7454"/>
<polygon fill="#000000" stroke="#000000" points="244.4902,-77.4446 248.4529,-67.616 239.2259,-72.8282 244.4902,-77.4446"/>
</g>
<!-- 9505 -->
<g id="node38" class="node">
<title>9505</title>
<ellipse fill="none" stroke="#000000" cx="218.6209" cy="-61.3514" rx="28.6953" ry="18"/>
<text text-anchor="middle" x="218.6209" y="-57.6514" font-family="Times,serif" font-size="14.00" fill="#000000">9505</text>
</g>
<!-- 2687&#45;&gt;9505 -->
<g id="edge15" class="edge">
<title>2687&#45;&gt;9505</title>
<path fill="none" stroke="#000000" d="M222.5753,-67.0076C222.5399,-66.9569 222.5046,-66.9064 222.4695,-66.8562"/>
<polygon fill="#000000" stroke="#000000" points="230.9656,-72.8964 222.3645,-66.706 225.2279,-76.9089 230.9656,-72.8964"/>
</g>
<!-- 2764 -->
<g id="node12" class="node">
<title>2764</title>
<ellipse fill="none" stroke="#000000" cx="691.3783" cy="-361.0672" rx="28.6953" ry="18"/>
<text text-anchor="middle" x="691.3783" y="-357.3672" font-family="Times,serif" font-size="14.00" fill="#000000">2764</text>
</g>
<!-- 7545 -->
<g id="node35" class="node">
<title>7545</title>
<ellipse fill="none" stroke="#000000" cx="665.0067" cy="-369.2516" rx="28.6953" ry="18"/>
<text text-anchor="middle" x="665.0067" y="-365.5516" font-family="Times,serif" font-size="14.00" fill="#000000">7545</text>
</g>
<!-- 2764&#45;&gt;7545 -->
<g id="edge16" class="edge">
<title>2764&#45;&gt;7545</title>
<path fill="none" stroke="#000000" d="M665.6585,-369.0492C665.5535,-369.0818 665.4603,-369.1108 665.3794,-369.1359"/>
<polygon fill="#000000" stroke="#000000" points="673.6873,-362.8892 665.1751,-369.1993 675.7645,-369.5748 673.6873,-362.8892"/>
</g>
<!-- 38333 -->
<g id="node53" class="node">
<title>38333</title>
<ellipse fill="none" stroke="#000000" cx="689.9037" cy="-390.1388" rx="32.4942" ry="18"/>
<text text-anchor="middle" x="689.9037" y="-386.4388" font-family="Times,serif" font-size="14.00" fill="#000000">38333</text>
</g>
<!-- 2764&#45;&gt;38333 -->
<g id="edge17" class="edge">
<title>2764&#45;&gt;38333</title>
<path fill="none" stroke="#000000" d="M690.4528,-379.3136C690.4505,-379.3592 690.4482,-379.4048 690.4459,-379.4503"/>
<polygon fill="#000000" stroke="#000000" points="687.4569,-369.4198 690.4389,-379.5867 694.4479,-369.7793 687.4569,-369.4198"/>
</g>
<!-- 38561 -->
<g id="node54" class="node">
<title>38561</title>
<ellipse fill="none" stroke="#000000" cx="717.5488" cy="-376.5661" rx="32.4942" ry="18"/>
<text text-anchor="middle" x="717.5488" y="-372.8661" font-family="Times,serif" font-size="14.00" fill="#000000">38561</text>
</g>
<!-- 2764&#45;&gt;38561 -->
<g id="edge18" class="edge">
<title>2764&#45;&gt;38561</title>
<path fill="none" stroke="#000000" d="M712.2528,-373.4296C712.3014,-373.4584 712.3497,-373.487 712.3979,-373.5156"/>
<polygon fill="#000000" stroke="#000000" points="702.1519,-371.5138 712.5415,-373.6006 705.7209,-365.4902 702.1519,-371.5138"/>
</g>
<!-- 2828 -->
<g id="node13" class="node">
<title>2828</title>
<ellipse fill="none" stroke="#000000" cx="643.6509" cy="-167.938" rx="28.6953" ry="18"/>
<text text-anchor="middle" x="643.6509" y="-164.238" font-family="Times,serif" font-size="14.00" fill="#000000">2828</text>
</g>
<!-- 2914 -->
<g id="node14" class="node">
<title>2914</title>
<ellipse fill="none" stroke="#000000" cx="285.0677" cy="-245.401" rx="28.6953" ry="18"/>
<text text-anchor="middle" x="285.0677" y="-241.701" font-family="Times,serif" font-size="14.00" fill="#000000">2914</text>
</g>
<!-- 6453 -->
<g id="node26" class="node">
<title>6453</title>
<ellipse fill="none" stroke="#000000" cx="320.2261" cy="-258.6068" rx="28.6953" ry="18"/>
<text text-anchor="middle" x="320.2261" y="-254.9068" font-family="Times,serif" font-size="14.00" fill="#000000">6453</text>
</g>
<!-- 2914&#45;&gt;6453 -->
<g id="edge19" class="edge">
<title>2914&#45;&gt;6453</title>
<path fill="none" stroke="#000000" d="M309.8676,-254.716C309.9131,-254.7331 309.9585,-254.7501 310.0037,-254.7671"/>
<polygon fill="#000000" stroke="#000000" points="299.5453,-254.574 310.1394,-254.8181 302.0098,-248.0207 299.5453,-254.574"/>
</g>
<!-- 3257 -->
<g id="node15" class="node">
<title>3257</title>
<ellipse fill="none" stroke="#000000" cx="355.1651" cy="-268.411" rx="28.6953" ry="18"/>
<text text-anchor="middle" x="355.1651" y="-264.711" font-family="Times,serif" font-size="14.00" fill="#000000">3257</text>
</g>
<!-- 3491 -->
<g id="node18" class="node">
<title>3491</title>
<ellipse fill="none" stroke="#000000" cx="389.6293" cy="-270.9335" rx="28.6953" ry="18"/>
<text text-anchor="middle" x="389.6293" y="-267.2335" font-family="Times,serif" font-size="14.00" fill="#000000">3491</text>
</g>
<!-- 3257&#45;&gt;3491 -->
<g id="edge20" class="edge">
<title>3257&#45;&gt;3491</title>
<path fill="none" stroke="#000000" d="M383.6261,-270.4941C383.6819,-270.4982 383.7374,-270.5023 383.7927,-270.5063"/>
<polygon fill="#000000" stroke="#000000" points="373.7268,-273.2735 383.9576,-270.5184 374.2417,-266.2921 373.7268,-273.2735"/>
</g>
<!-- 3320 -->
<g id="node16" class="node">
<title>3320</title>
<ellipse fill="none" stroke="#000000" cx="581.5426" cy="-357.7189" rx="28.6953" ry="18"/>
<text text-anchor="middle" x="581.5426" y="-354.0189" font-family="Times,serif" font-size="14.00" fill="#000000">3320</text>
</g>
<!-- 3320&#45;&gt;1273 -->
<g id="edge21" class="edge">
<title>3320&#45;&gt;1273</title>
<path fill="none" stroke="#000000" d="M576.3317,-375.7815C576.3129,-375.8467 576.2941,-375.9119 576.2753,-375.9771"/>
<polygon fill="#000000" stroke="#000000" points="575.6314,-365.5929 576.2189,-376.1726 582.3572,-367.5357 575.6314,-365.5929"/>
</g>
<!-- 3356 -->
<g id="node17" class="node">
<title>3356</title>
<ellipse fill="none" stroke="#000000" cx="184.551" cy="-242.1771" rx="28.6953" ry="18"/>
<text text-anchor="middle" x="184.551" y="-238.4771" font-family="Times,serif" font-size="14.00" fill="#000000">3356</text>
</g>
<!-- 3549 -->
<g id="node19" class="node">
<title>3549</title>
<ellipse fill="none" stroke="#000000" cx="213.7686" cy="-209.5065" rx="28.6953" ry="18"/>
<text text-anchor="middle" x="213.7686" y="-205.8065" font-family="Times,serif" font-size="14.00" fill="#000000">3549</text>
</g>
<!-- 3356&#45;&gt;3549 -->
<g id="edge22" class="edge">
<title>3356&#45;&gt;3549</title>
<path fill="none" stroke="#000000" d="M198.8175,-226.2247C198.9333,-226.0951 199.0493,-225.9655 199.1652,-225.8358"/>
<polygon fill="#000000" stroke="#000000" points="195.4551,-235.2349 199.5129,-225.447 190.237,-230.5681 195.4551,-235.2349"/>
</g>
<!-- 3491&#45;&gt;174 -->
<g id="edge23" class="edge">
<title>3491&#45;&gt;174</title>
<path fill="none" stroke="#000000" d="M418.2382,-269.9959C418.2911,-269.9942 418.3436,-269.9924 418.3959,-269.9907"/>
<polygon fill="#000000" stroke="#000000" points="408.6741,-273.8175 418.5519,-269.9856 408.4405,-266.8212 408.6741,-273.8175"/>
</g>
<!-- 6762 -->
<g id="node28" class="node">
<title>6762</title>
<ellipse fill="none" stroke="#000000" cx="250.402" cy="-228.6747" rx="28.6953" ry="18"/>
<text text-anchor="middle" x="250.402" y="-224.9747" font-family="Times,serif" font-size="14.00" fill="#000000">6762</text>
</g>
<!-- 3549&#45;&gt;6762 -->
<g id="edge24" class="edge">
<title>3549&#45;&gt;6762</title>
<path fill="none" stroke="#000000" d="M235.9235,-221.0989C235.9838,-221.1305 236.044,-221.162 236.1041,-221.1934"/>
<polygon fill="#000000" stroke="#000000" points="225.7999,-219.7503 236.2844,-221.2878 229.047,-213.5477 225.7999,-219.7503"/>
</g>
<!-- 30070 -->
<g id="node50" class="node">
<title>30070</title>
<ellipse fill="none" stroke="#000000" cx="210.6057" cy="-162.0111" rx="32.4942" ry="18"/>
<text text-anchor="middle" x="210.6057" y="-158.3111" font-family="Times,serif" font-size="14.00" fill="#000000">30070</text>
</g>
<!-- 3549&#45;&gt;30070 -->
<g id="edge25" class="edge">
<title>3549&#45;&gt;30070</title>
<path fill="none" stroke="#000000" d="M212.5548,-191.2794C212.5319,-190.936 212.5089,-190.5911 212.4859,-190.2448"/>
<polygon fill="#000000" stroke="#000000" points="215.9679,-189.8564 211.811,-180.111 208.9833,-190.3215 215.9679,-189.8564"/>
</g>
<!-- 3597 -->
<g id="node20" class="node">
<title>3597</title>
<ellipse fill="none" stroke="#000000" cx="105.9934" cy="-337.0712" rx="28.6953" ry="18"/>
<text text-anchor="middle" x="105.9934" y="-333.3712" font-family="Times,serif" font-size="14.00" fill="#000000">3597</text>
</g>
<!-- 37179 -->
<g id="node52" class="node">
<title>37179</title>
<ellipse fill="none" stroke="#000000" cx="299.1872" cy="-18" rx="32.4942" ry="18"/>
<text text-anchor="middle" x="299.1872" y="-14.3" font-family="Times,serif" font-size="14.00" fill="#000000">37179</text>
</g>
<!-- 3741&#45;&gt;37179 -->
<g id="edge26" class="edge">
<title>3741&#45;&gt;37179</title>
<path fill="none" stroke="#000000" d="M296.1854,-20.2164C296.2421,-20.1745 296.2983,-20.1331 296.3538,-20.0921"/>
<polygon fill="#000000" stroke="#000000" points="290.5523,-28.7284 296.5184,-19.9706 286.393,-23.0964 290.5523,-28.7284"/>
</g>
<!-- 4637 -->
<g id="node22" class="node">
<title>4637</title>
<ellipse fill="none" stroke="#000000" cx="660.8987" cy="-191.3414" rx="28.6953" ry="18"/>
<text text-anchor="middle" x="660.8987" y="-187.6414" font-family="Times,serif" font-size="14.00" fill="#000000">4637</text>
</g>
<!-- 4637&#45;&gt;2828 -->
<g id="edge27" class="edge">
<title>4637&#45;&gt;2828</title>
<path fill="none" stroke="#000000" d="M648.7325,-174.8332C648.688,-174.7727 648.6435,-174.7124 648.5992,-174.6523"/>
<polygon fill="#000000" stroke="#000000" points="657.2192,-180.4465 648.4669,-174.4727 651.5836,-184.6007 657.2192,-180.4465"/>
</g>
<!-- 4755 -->
<g id="node23" class="node">
<title>4755</title>
<ellipse fill="none" stroke="#000000" cx="726.3926" cy="-155.3543" rx="28.6953" ry="18"/>
<text text-anchor="middle" x="726.3926" y="-151.6543" font-family="Times,serif" font-size="14.00" fill="#000000">4755</text>
</g>
<!-- 9583 -->
<g id="node39" class="node">
<title>9583</title>
<ellipse fill="none" stroke="#000000" cx="735.8144" cy="-127.036" rx="28.6953" ry="18"/>
<text text-anchor="middle" x="735.8144" y="-123.336" font-family="Times,serif" font-size="14.00" fill="#000000">9583</text>
</g>
<!-- 4755&#45;&gt;9583 -->
<g id="edge28" class="edge">
<title>4755&#45;&gt;9583</title>
<path fill="none" stroke="#000000" d="M732.3061,-137.5807C732.3209,-137.5362 732.3356,-137.4918 732.3504,-137.4475"/>
<polygon fill="#000000" stroke="#000000" points="732.5539,-147.9102 732.3946,-137.3146 725.9116,-145.6969 732.5539,-147.9102"/>
</g>
<!-- 5692 -->
<g id="node25" class="node">
<title>5692</title>
<ellipse fill="none" stroke="#000000" cx="75.7928" cy="-343.7508" rx="28.6953" ry="18"/>
<text text-anchor="middle" x="75.7928" y="-340.0508" font-family="Times,serif" font-size="14.00" fill="#000000">5692</text>
</g>
<!-- 5692&#45;&gt;3597 -->
<g id="edge29" class="edge">
<title>5692&#45;&gt;3597</title>
<path fill="none" stroke="#000000" d="M103.2064,-337.6876C103.2603,-337.6757 103.3136,-337.6639 103.3662,-337.6523"/>
<polygon fill="#000000" stroke="#000000" points="94.5154,-343.1997 103.522,-337.6178 93.0003,-336.3648 94.5154,-343.1997"/>
</g>
<!-- 10834 -->
<g id="node41" class="node">
<title>10834</title>
<ellipse fill="none" stroke="#000000" cx="122.6662" cy="-310.0424" rx="32.4942" ry="18"/>
<text text-anchor="middle" x="122.6662" y="-306.3424" font-family="Times,serif" font-size="14.00" fill="#000000">10834</text>
</g>
<!-- 5692&#45;&gt;10834 -->
<g id="edge30" class="edge">
<title>5692&#45;&gt;10834</title>
<path fill="none" stroke="#000000" d="M94.8581,-330.0403C95.0165,-329.9264 95.1752,-329.8123 95.3341,-329.698"/>
<polygon fill="#000000" stroke="#000000" points="96.4745,-333.189 102.5497,-324.509 92.3875,-327.5059 96.4745,-333.189"/>
</g>
<!-- 11008 -->
<g id="node42" class="node">
<title>11008</title>
<ellipse fill="none" stroke="#000000" cx="55.7523" cy="-337.9854" rx="32.4942" ry="18"/>
<text text-anchor="middle" x="55.7523" y="-334.2854" font-family="Times,serif" font-size="14.00" fill="#000000">11008</text>
</g>
<!-- 5692&#45;&gt;11008 -->
<g id="edge31" class="edge">
<title>5692&#45;&gt;11008</title>
<path fill="none" stroke="#000000" d="M55.8097,-338.0019C55.8003,-337.9992 55.7919,-337.9968 55.7848,-337.9948"/>
<polygon fill="#000000" stroke="#000000" points="66.3602,-337.4285 55.7668,-337.9896 64.398,-344.1571 66.3602,-337.4285"/>
</g>
<!-- 27865 -->
<g id="node48" class="node">
<title>27865</title>
<ellipse fill="none" stroke="#000000" cx="42.0256" cy="-371.7962" rx="32.4942" ry="18"/>
<text text-anchor="middle" x="42.0256" y="-368.0962" font-family="Times,serif" font-size="14.00" fill="#000000">27865</text>
</g>
<!-- 5692&#45;&gt;27865 -->
<g id="edge32" class="edge">
<title>5692&#45;&gt;27865</title>
<path fill="none" stroke="#000000" d="M58.5136,-358.1021C58.4487,-358.156 58.3838,-358.2099 58.3189,-358.2638"/>
<polygon fill="#000000" stroke="#000000" points="63.5812,-349.342 58.1243,-358.4254 68.0546,-354.7276 63.5812,-349.342"/>
</g>
<!-- 28065 -->
<g id="node49" class="node">
<title>28065</title>
<ellipse fill="none" stroke="#000000" cx="34.2318" cy="-352.3571" rx="32.4942" ry="18"/>
<text text-anchor="middle" x="34.2318" y="-348.6571" font-family="Times,serif" font-size="14.00" fill="#000000">28065</text>
</g>
<!-- 5692&#45;&gt;28065 -->
<g id="edge33" class="edge">
<title>5692&#45;&gt;28065</title>
<path fill="none" stroke="#000000" d="M48.3024,-349.4434C48.2421,-349.4559 48.1818,-349.4684 48.1216,-349.4808"/>
<polygon fill="#000000" stroke="#000000" points="57.0223,-344.0588 47.9412,-349.5182 58.4448,-350.9135 57.0223,-344.0588"/>
</g>
<!-- 52317 -->
<g id="node55" class="node">
<title>52317</title>
<ellipse fill="none" stroke="#000000" cx="64.7656" cy="-370.4688" rx="32.4942" ry="18"/>
<text text-anchor="middle" x="64.7656" y="-366.7688" font-family="Times,serif" font-size="14.00" fill="#000000">52317</text>
</g>
<!-- 5692&#45;&gt;52317 -->
<g id="edge34" class="edge">
<title>5692&#45;&gt;52317</title>
<path fill="none" stroke="#000000" d="M68.4989,-361.4233C68.4669,-361.5009 68.435,-361.5783 68.4031,-361.6555"/>
<polygon fill="#000000" stroke="#000000" points="68.89,-351.3063 68.3078,-361.8864 75.3608,-353.9786 68.89,-351.3063"/>
</g>
<!-- 52375 -->
<g id="node56" class="node">
<title>52375</title>
<ellipse fill="none" stroke="#000000" cx="109.3735" cy="-361.8225" rx="32.4942" ry="18"/>
<text text-anchor="middle" x="109.3735" y="-358.1225" font-family="Times,serif" font-size="14.00" fill="#000000">52375</text>
</g>
<!-- 5692&#45;&gt;52375 -->
<g id="edge35" class="edge">
<title>5692&#45;&gt;52375</title>
<path fill="none" stroke="#000000" d="M97.6286,-355.5019C97.6787,-355.5288 97.7288,-355.5558 97.7788,-355.5827"/>
<polygon fill="#000000" stroke="#000000" points="87.4622,-354.0035 97.9285,-355.6632 90.7816,-347.8389 87.4622,-354.0035"/>
</g>
<!-- 52376 -->
<g id="node57" class="node">
<title>52376</title>
<ellipse fill="none" stroke="#000000" cx="75.1836" cy="-389.1286" rx="32.4942" ry="18"/>
<text text-anchor="middle" x="75.1836" y="-385.4286" font-family="Times,serif" font-size="14.00" fill="#000000">52376</text>
</g>
<!-- 5692&#45;&gt;52376 -->
<g id="edge36" class="edge">
<title>5692&#45;&gt;52376</title>
<path fill="none" stroke="#000000" d="M75.5486,-361.9462C75.5473,-362.0387 75.5461,-362.1312 75.5448,-362.2239"/>
<polygon fill="#000000" stroke="#000000" points="72.0626,-360.883 75.428,-370.9291 79.062,-360.977 72.0626,-360.883"/>
</g>
<!-- 52380 -->
<g id="node58" class="node">
<title>52380</title>
<ellipse fill="none" stroke="#000000" cx="93.9843" cy="-377.0236" rx="32.4942" ry="18"/>
<text text-anchor="middle" x="93.9843" y="-373.3236" font-family="Times,serif" font-size="14.00" fill="#000000">52380</text>
</g>
<!-- 5692&#45;&gt;52380 -->
<g id="edge37" class="edge">
<title>5692&#45;&gt;52380</title>
<path fill="none" stroke="#000000" d="M85.1017,-360.7771C85.1367,-360.8411 85.1716,-360.905 85.2066,-360.9689"/>
<polygon fill="#000000" stroke="#000000" points="77.4407,-354.0658 85.3114,-361.1607 83.5831,-350.7061 77.4407,-354.0658"/>
</g>
<!-- 52413 -->
<g id="node59" class="node">
<title>52413</title>
<ellipse fill="none" stroke="#000000" cx="95.3936" cy="-317.9271" rx="32.4942" ry="18"/>
<text text-anchor="middle" x="95.3936" y="-314.2271" font-family="Times,serif" font-size="14.00" fill="#000000">52413</text>
</g>
<!-- 5692&#45;&gt;52413 -->
<g id="edge38" class="edge">
<title>5692&#45;&gt;52413</title>
<path fill="none" stroke="#000000" d="M88.3173,-327.25C88.3773,-327.171 88.4372,-327.0921 88.4969,-327.0134"/>
<polygon fill="#000000" stroke="#000000" points="85.4165,-336.8606 88.6756,-326.778 79.8402,-332.6275 85.4165,-336.8606"/>
</g>
<!-- 52431 -->
<g id="node60" class="node">
<title>52431</title>
<ellipse fill="none" stroke="#000000" cx="56.5202" cy="-306.9762" rx="32.4942" ry="18"/>
<text text-anchor="middle" x="56.5202" y="-303.2762" font-family="Times,serif" font-size="14.00" fill="#000000">52431</text>
</g>
<!-- 5692&#45;&gt;52431 -->
<g id="edge39" class="edge">
<title>5692&#45;&gt;52431</title>
<path fill="none" stroke="#000000" d="M66.8336,-326.6554C66.7844,-326.5616 66.7352,-326.4678 66.686,-326.3739"/>
<polygon fill="#000000" stroke="#000000" points="73.3943,-331.6336 65.6521,-324.401 67.1941,-334.8831 73.3943,-331.6336"/>
</g>
<!-- 262230 -->
<g id="node61" class="node">
<title>262230</title>
<ellipse fill="none" stroke="#000000" cx="75.8595" cy="-309.3849" rx="37.0935" ry="18"/>
<text text-anchor="middle" x="75.8595" y="-305.6849" font-family="Times,serif" font-size="14.00" fill="#000000">262230</text>
</g>
<!-- 5692&#45;&gt;262230 -->
<g id="edge40" class="edge">
<title>5692&#45;&gt;262230</title>
<path fill="none" stroke="#000000" d="M75.8285,-325.3605C75.8286,-325.2967 75.8288,-325.2329 75.8289,-325.1691"/>
<polygon fill="#000000" stroke="#000000" points="79.3046,-334.9864 75.8293,-324.9778 72.3047,-334.9692 79.3046,-334.9864"/>
</g>
<!-- 264608 -->
<g id="node62" class="node">
<title>264608</title>
<ellipse fill="none" stroke="#000000" cx="37.0467" cy="-325.4785" rx="37.0935" ry="18"/>
<text text-anchor="middle" x="37.0467" y="-321.7785" font-family="Times,serif" font-size="14.00" fill="#000000">264608</text>
</g>
<!-- 5692&#45;&gt;264608 -->
<g id="edge41" class="edge">
<title>5692&#45;&gt;264608</title>
<path fill="none" stroke="#000000" d="M52.8062,-332.9105C52.7411,-332.8798 52.6759,-332.8491 52.6109,-332.8184"/>
<polygon fill="#000000" stroke="#000000" points="62.9548,-333.8287 52.4159,-332.7264 59.9672,-340.1603 62.9548,-333.8287"/>
</g>
<!-- 6453&#45;&gt;3257 -->
<g id="edge42" class="edge">
<title>6453&#45;&gt;3257</title>
<path fill="none" stroke="#000000" d="M346.3485,-265.937C346.4275,-265.9591 346.5062,-265.9812 346.5845,-266.0032"/>
<polygon fill="#000000" stroke="#000000" points="336.2436,-266.734 346.8186,-266.0689 338.137,-259.9942 336.2436,-266.734"/>
</g>
<!-- 6461&#45;&gt;2497 -->
<g id="edge43" class="edge">
<title>6461&#45;&gt;2497</title>
<path fill="none" stroke="#000000" d="M559.8581,-269.9209C559.9431,-269.933 560.0278,-269.9451 560.1122,-269.9572"/>
<polygon fill="#000000" stroke="#000000" points="549.9681,-272.0386 560.3641,-269.9932 550.9616,-265.1091 549.9681,-272.0386"/>
</g>
<!-- 6762&#45;&gt;2914 -->
<g id="edge44" class="edge">
<title>6762&#45;&gt;2914</title>
<path fill="none" stroke="#000000" d="M273.3315,-239.7382C273.3819,-239.7625 273.4322,-239.7868 273.4824,-239.811"/>
<polygon fill="#000000" stroke="#000000" points="263.1037,-238.6871 273.6328,-239.8836 266.148,-232.3821 263.1037,-238.6871"/>
</g>
<!-- 6904 -->
<g id="node29" class="node">
<title>6904</title>
<ellipse fill="none" stroke="#000000" cx="222.0825" cy="-121.3657" rx="28.6953" ry="18"/>
<text text-anchor="middle" x="222.0825" y="-117.6657" font-family="Times,serif" font-size="14.00" fill="#000000">6904</text>
</g>
<!-- 6904&#45;&gt;2687 -->
<g id="edge45" class="edge">
<title>6904&#45;&gt;2687</title>
<path fill="none" stroke="#000000" d="M227.9011,-103.4469C227.9503,-103.2955 227.9994,-103.1441 228.0486,-102.9927"/>
<polygon fill="#000000" stroke="#000000" points="228.7311,-112.2222 228.4911,-101.6299 222.0733,-110.0599 228.7311,-112.2222"/>
</g>
<!-- 6939 -->
<g id="node30" class="node">
<title>6939</title>
<ellipse fill="none" stroke="#000000" cx="751.3158" cy="-189.1172" rx="28.6953" ry="18"/>
<text text-anchor="middle" x="751.3158" y="-185.4172" font-family="Times,serif" font-size="14.00" fill="#000000">6939</text>
</g>
<!-- 12266 -->
<g id="node43" class="node">
<title>12266</title>
<ellipse fill="none" stroke="#000000" cx="780.3716" cy="-187.6023" rx="32.4942" ry="18"/>
<text text-anchor="middle" x="780.3716" y="-183.9023" font-family="Times,serif" font-size="14.00" fill="#000000">12266</text>
</g>
<!-- 6939&#45;&gt;12266 -->
<g id="edge46" class="edge">
<title>6939&#45;&gt;12266</title>
<path fill="none" stroke="#000000" d="M780.0453,-187.6193C780.0985,-187.6165 780.1455,-187.6141 780.186,-187.612"/>
<polygon fill="#000000" stroke="#000000" points="770.4873,-191.6318 780.2882,-187.6067 770.1163,-184.6413 770.4873,-191.6318"/>
</g>
<!-- 7016 -->
<g id="node31" class="node">
<title>7016</title>
<ellipse fill="none" stroke="#000000" cx="180.9505" cy="-147.4242" rx="28.6953" ry="18"/>
<text text-anchor="middle" x="180.9505" y="-143.7242" font-family="Times,serif" font-size="14.00" fill="#000000">7016</text>
</g>
<!-- 7922 -->
<g id="node36" class="node">
<title>7922</title>
<ellipse fill="none" stroke="#000000" cx="156.3741" cy="-132.7787" rx="28.6953" ry="18"/>
<text text-anchor="middle" x="156.3741" y="-129.0787" font-family="Times,serif" font-size="14.00" fill="#000000">7922</text>
</g>
<!-- 7016&#45;&gt;7922 -->
<g id="edge47" class="edge">
<title>7016&#45;&gt;7922</title>
<path fill="none" stroke="#000000" d="M159.7914,-134.8151C159.7268,-134.7766 159.6629,-134.7385 159.5997,-134.7009"/>
<polygon fill="#000000" stroke="#000000" points="169.7958,-136.7037 159.4123,-134.5892 166.2109,-142.7174 169.7958,-136.7037"/>
</g>
<!-- 7018&#45;&gt;3320 -->
<g id="edge48" class="edge">
<title>7018&#45;&gt;3320</title>
<path fill="none" stroke="#000000" d="M588.272,-338.1468C588.2203,-338.2973 588.1685,-338.4479 588.1167,-338.5985"/>
<polygon fill="#000000" stroke="#000000" points="587.5928,-329.3589 587.6508,-339.9537 594.2125,-331.6352 587.5928,-329.3589"/>
</g>
<!-- 7473 -->
<g id="node33" class="node">
<title>7473</title>
<ellipse fill="none" stroke="#000000" cx="701.5662" cy="-230.0255" rx="28.6953" ry="18"/>
<text text-anchor="middle" x="701.5662" y="-226.3255" font-family="Times,serif" font-size="14.00" fill="#000000">7473</text>
</g>
<!-- 7474 -->
<g id="node34" class="node">
<title>7474</title>
<ellipse fill="none" stroke="#000000" cx="721.8666" cy="-323.0571" rx="28.6953" ry="18"/>
<text text-anchor="middle" x="721.8666" y="-319.3571" font-family="Times,serif" font-size="14.00" fill="#000000">7474</text>
</g>
<!-- 9498&#45;&gt;4637 -->
<g id="edge49" class="edge">
<title>9498&#45;&gt;4637</title>
<path fill="none" stroke="#000000" d="M668.2557,-201.7045C668.2248,-201.661 668.1941,-201.6177 668.1633,-201.5744"/>
<polygon fill="#000000" stroke="#000000" points="676.7169,-207.5729 668.0711,-201.4445 671.0082,-211.6268 676.7169,-207.5729"/>
</g>
<!-- 9498&#45;&gt;7473 -->
<g id="edge50" class="edge">
<title>9498&#45;&gt;7473</title>
<path fill="none" stroke="#000000" d="M701.5045,-229.992C701.5147,-229.9975 701.5236,-230.0024 701.5313,-230.0066"/>
<polygon fill="#000000" stroke="#000000" points="691.0791,-228.2963 701.5506,-230.017 694.4377,-222.1418 691.0791,-228.2963"/>
</g>
<!-- 10026 -->
<g id="node40" class="node">
<title>10026</title>
<ellipse fill="none" stroke="#000000" cx="716.5531" cy="-189.5185" rx="32.4942" ry="18"/>
<text text-anchor="middle" x="716.5531" y="-185.8185" font-family="Times,serif" font-size="14.00" fill="#000000">10026</text>
</g>
<!-- 9498&#45;&gt;10026 -->
<g id="edge51" class="edge">
<title>9498&#45;&gt;10026</title>
<path fill="none" stroke="#000000" d="M698.3111,-203.9317C698.3823,-203.8754 698.4536,-203.8191 698.5249,-203.7628"/>
<polygon fill="#000000" stroke="#000000" points="693.0617,-212.5414 698.7386,-203.5939 688.7211,-207.0483 693.0617,-212.5414"/>
</g>
<!-- 10026&#45;&gt;4755 -->
<g id="edge52" class="edge">
<title>10026&#45;&gt;4755</title>
<path fill="none" stroke="#000000" d="M721.7034,-171.6359C721.722,-171.5713 721.7406,-171.5068 721.7592,-171.4422"/>
<polygon fill="#000000" stroke="#000000" points="722.4071,-181.8281 721.8149,-171.2487 715.6804,-179.8883 722.4071,-181.8281"/>
</g>
<!-- 10026&#45;&gt;6939 -->
<g id="edge53" class="edge">
<title>10026&#45;&gt;6939</title>
<path fill="none" stroke="#000000" d="M749.4468,-189.1388C749.5945,-189.1371 749.7345,-189.1355 749.8664,-189.134"/>
<polygon fill="#000000" stroke="#000000" points="740.8658,-192.7391 750.8244,-189.1229 740.7843,-185.7396 740.8658,-192.7391"/>
</g>
<!-- 12956 -->
<g id="node44" class="node">
<title>12956</title>
<ellipse fill="none" stroke="#000000" cx="154.7809" cy="-274.3912" rx="32.4942" ry="18"/>
<text text-anchor="middle" x="154.7809" y="-270.6912" font-family="Times,serif" font-size="14.00" fill="#000000">12956</text>
</g>
<!-- 10834&#45;&gt;12956 -->
<g id="edge54" class="edge">
<title>10834&#45;&gt;12956</title>
<path fill="none" stroke="#000000" d="M137.2202,-293.8858C137.3363,-293.7568 137.4526,-293.6277 137.569,-293.4986"/>
<polygon fill="#000000" stroke="#000000" points="135.9235,-300.5546 140.016,-290.782 130.7225,-295.8695 135.9235,-300.5546"/>
</g>
<!-- 22927 -->
<g id="node47" class="node">
<title>22927</title>
<ellipse fill="none" stroke="#000000" cx="149.928" cy="-318.2521" rx="32.4942" ry="18"/>
<text text-anchor="middle" x="149.928" y="-314.5521" font-family="Times,serif" font-size="14.00" fill="#000000">22927</text>
</g>
<!-- 10834&#45;&gt;22927 -->
<g id="edge55" class="edge">
<title>10834&#45;&gt;22927</title>
<path fill="none" stroke="#000000" d="M149.8498,-318.2285C149.8627,-318.2324 149.874,-318.2358 149.8838,-318.2388"/>
<polygon fill="#000000" stroke="#000000" points="139.3124,-318.6868 149.9083,-318.2461 141.3503,-311.983 139.3124,-318.6868"/>
</g>
<!-- 12956&#45;&gt;3356 -->
<g id="edge56" class="edge">
<title>12956&#45;&gt;3356</title>
<path fill="none" stroke="#000000" d="M169.666,-258.2841C169.7241,-258.2212 169.7823,-258.1583 169.8404,-258.0954"/>
<polygon fill="#000000" stroke="#000000" points="165.7974,-267.6277 170.0148,-257.9067 160.6558,-262.876 165.7974,-267.6277"/>
</g>
<!-- 18540 -->
<g id="node46" class="node">
<title>18540</title>
<ellipse fill="none" stroke="#000000" cx="235.4946" cy="-156.9143" rx="32.4942" ry="18"/>
<text text-anchor="middle" x="235.4946" y="-153.2143" font-family="Times,serif" font-size="14.00" fill="#000000">18540</text>
</g>
<!-- 30070&#45;&gt;6904 -->
<g id="edge57" class="edge">
<title>30070&#45;&gt;6904</title>
<path fill="none" stroke="#000000" d="M215.673,-144.0651C215.7015,-143.9641 215.7301,-143.863 215.7586,-143.7618"/>
<polygon fill="#000000" stroke="#000000" points="217.6983,-149.7719 217.0475,-139.197 210.9617,-147.8696 217.6983,-149.7719"/>
</g>
<!-- 30070&#45;&gt;7016 -->
<g id="edge58" class="edge">
<title>30070&#45;&gt;7016</title>
<path fill="none" stroke="#000000" d="M186.1161,-149.965C186.068,-149.9414 186.0203,-149.9179 185.9727,-149.8945"/>
<polygon fill="#000000" stroke="#000000" points="196.3508,-151.1012 185.8309,-149.8248 193.2587,-157.3829 196.3508,-151.1012"/>
</g>
<!-- 30070&#45;&gt;18540 -->
<g id="edge59" class="edge">
<title>30070&#45;&gt;18540</title>
<path fill="none" stroke="#000000" d="M235.4232,-156.9289C235.435,-156.9265 235.4453,-156.9244 235.4542,-156.9225"/>
<polygon fill="#000000" stroke="#000000" points="226.3934,-162.3882 235.4766,-156.918 224.9646,-155.5299 226.3934,-162.3882"/>
</g>
<!-- 32787&#45;&gt;2764 -->
<g id="edge60" class="edge">
<title>32787&#45;&gt;2764</title>
<path fill="none" stroke="#000000" d="M692.693,-342.7957C692.6879,-342.8671 692.6827,-342.9385 692.6776,-343.0099"/>
<polygon fill="#000000" stroke="#000000" points="689.8933,-332.997 692.6622,-343.2239 696.8752,-333.5024 689.8933,-332.997"/>
</g>
<!-- 32787&#45;&gt;7474 -->
<g id="edge61" class="edge">
<title>32787&#45;&gt;7474</title>
<path fill="none" stroke="#000000" d="M721.7867,-323.0613C721.7999,-323.0606 721.8115,-323.06 721.8214,-323.0595"/>
<polygon fill="#000000" stroke="#000000" points="712.0575,-327.117 721.8464,-323.0582 711.6629,-320.1266 712.0575,-327.117"/>
</g>
</g>
</svg>
