<?xml version="1.0" encoding="UTF-8" standalone="no"?>
<!DOCTYPE svg PUBLIC "-//W3C//DTD SVG 1.1//EN"
 "http://www.w3.org/Graphics/SVG/1.1/DTD/svg11.dtd">
<!-- Generated by graphviz version 2.40.1 (20161225.0304)
 -->
<!-- Title: %3 Pages: 1 -->
<svg width="1460pt" height="1484pt"
 viewBox="0.00 0.00 1459.64 1484.00" xmlns="http://www.w3.org/2000/svg" xmlns:xlink="http://www.w3.org/1999/xlink">
<g id="graph0" class="graph" transform="scale(1 1) rotate(0) translate(4 1480)">
<title>%3</title>
<polygon fill="#ffffff" stroke="transparent" points="-4,4 -4,-1480 1455.6442,-1480 1455.6442,4 -4,4"/>
<!-- 174 -->
<g id="node1" class="node">
<title>174</title>
<ellipse fill="none" stroke="#000000" cx="371.5975" cy="-738" rx="27" ry="18"/>
<text text-anchor="middle" x="371.5975" y="-734.3" font-family="Times,serif" font-size="14.00" fill="#000000">174</text>
</g>
<!-- 209 -->
<g id="node2" class="node">
<title>209</title>
<ellipse fill="none" stroke="#000000" cx="371.5975" cy="-666" rx="27" ry="18"/>
<text text-anchor="middle" x="371.5975" y="-662.3" font-family="Times,serif" font-size="14.00" fill="#000000">209</text>
</g>
<!-- 174&#45;&gt;209 -->
<g id="edge1" class="edge">
<title>174&#45;&gt;209</title>
<path fill="none" stroke="#000000" d="M371.5975,-719.8314C371.5975,-712.131 371.5975,-702.9743 371.5975,-694.4166"/>
<polygon fill="#000000" stroke="#000000" points="375.0976,-694.4132 371.5975,-684.4133 368.0976,-694.4133 375.0976,-694.4132"/>
</g>
<!-- 1299 -->
<g id="node7" class="node">
<title>1299</title>
<ellipse fill="none" stroke="#000000" cx="371.5975" cy="-594" rx="28.6953" ry="18"/>
<text text-anchor="middle" x="371.5975" y="-590.3" font-family="Times,serif" font-size="14.00" fill="#000000">1299</text>
</g>
<!-- 209&#45;&gt;1299 -->
<g id="edge2" class="edge">
<title>209&#45;&gt;1299</title>
<path fill="none" stroke="#000000" d="M371.5975,-647.8314C371.5975,-640.131 371.5975,-630.9743 371.5975,-622.4166"/>
<polygon fill="#000000" stroke="#000000" points="375.0976,-622.4132 371.5975,-612.4133 368.0976,-622.4133 375.0976,-622.4132"/>
</g>
<!-- 701 -->
<g id="node3" class="node">
<title>701</title>
<ellipse fill="none" stroke="#000000" cx="371.5975" cy="-378" rx="27" ry="18"/>
<text text-anchor="middle" x="371.5975" y="-374.3" font-family="Times,serif" font-size="14.00" fill="#000000">701</text>
</g>
<!-- 703 -->
<g id="node4" class="node">
<title>703</title>
<ellipse fill="none" stroke="#000000" cx="334.5975" cy="-306" rx="27" ry="18"/>
<text text-anchor="middle" x="334.5975" y="-302.3" font-family="Times,serif" font-size="14.00" fill="#000000">703</text>
</g>
<!-- 701&#45;&gt;703 -->
<g id="edge3" class="edge">
<title>701&#45;&gt;703</title>
<path fill="none" stroke="#000000" d="M362.829,-360.937C358.4695,-352.4537 353.1022,-342.0092 348.2222,-332.513"/>
<polygon fill="#000000" stroke="#000000" points="351.2438,-330.7352 343.56,-323.4407 345.0178,-333.9348 351.2438,-330.7352"/>
</g>
<!-- 7018 -->
<g id="node32" class="node">
<title>7018</title>
<ellipse fill="none" stroke="#000000" cx="429.5975" cy="-306" rx="28.6953" ry="18"/>
<text text-anchor="middle" x="429.5975" y="-302.3" font-family="Times,serif" font-size="14.00" fill="#000000">7018</text>
</g>
<!-- 701&#45;&gt;7018 -->
<g id="edge4" class="edge">
<title>701&#45;&gt;7018</title>
<path fill="none" stroke="#000000" d="M384.4695,-362.0209C392.001,-352.6714 401.6605,-340.6804 410.1088,-330.1928"/>
<polygon fill="#000000" stroke="#000000" points="413.0131,-332.1667 416.5608,-322.1834 407.5618,-327.7753 413.0131,-332.1667"/>
</g>
<!-- 2516 -->
<g id="node9" class="node">
<title>2516</title>
<ellipse fill="none" stroke="#000000" cx="220.5975" cy="-234" rx="28.6953" ry="18"/>
<text text-anchor="middle" x="220.5975" y="-230.3" font-family="Times,serif" font-size="14.00" fill="#000000">2516</text>
</g>
<!-- 703&#45;&gt;2516 -->
<g id="edge5" class="edge">
<title>703&#45;&gt;2516</title>
<path fill="none" stroke="#000000" d="M314.7402,-293.4586C296.7357,-282.0873 269.9742,-265.1853 249.5809,-252.3053"/>
<polygon fill="#000000" stroke="#000000" points="251.3187,-249.2633 240.9948,-246.8825 247.5807,-255.1817 251.3187,-249.2633"/>
</g>
<!-- 9498 -->
<g id="node37" class="node">
<title>9498</title>
<ellipse fill="none" stroke="#000000" cx="334.5975" cy="-234" rx="28.6953" ry="18"/>
<text text-anchor="middle" x="334.5975" y="-230.3" font-family="Times,serif" font-size="14.00" fill="#000000">9498</text>
</g>
<!-- 703&#45;&gt;9498 -->
<g id="edge6" class="edge">
<title>703&#45;&gt;9498</title>
<path fill="none" stroke="#000000" d="M334.5975,-287.8314C334.5975,-280.131 334.5975,-270.9743 334.5975,-262.4166"/>
<polygon fill="#000000" stroke="#000000" points="338.0976,-262.4132 334.5975,-252.4133 331.0976,-262.4133 338.0976,-262.4132"/>
</g>
<!-- 1239 -->
<g id="node5" class="node">
<title>1239</title>
<ellipse fill="none" stroke="#000000" cx="492.5975" cy="-90" rx="28.6953" ry="18"/>
<text text-anchor="middle" x="492.5975" y="-86.3" font-family="Times,serif" font-size="14.00" fill="#000000">1239</text>
</g>
<!-- 5511 -->
<g id="node24" class="node">
<title>5511</title>
<ellipse fill="none" stroke="#000000" cx="492.5975" cy="-18" rx="28.6953" ry="18"/>
<text text-anchor="middle" x="492.5975" y="-14.3" font-family="Times,serif" font-size="14.00" fill="#000000">5511</text>
</g>
<!-- 1239&#45;&gt;5511 -->
<g id="edge7" class="edge">
<title>1239&#45;&gt;5511</title>
<path fill="none" stroke="#000000" d="M492.5975,-71.8314C492.5975,-64.131 492.5975,-54.9743 492.5975,-46.4166"/>
<polygon fill="#000000" stroke="#000000" points="496.0976,-46.4132 492.5975,-36.4133 489.0976,-46.4133 496.0976,-46.4132"/>
</g>
<!-- 17676 -->
<g id="node45" class="node">
<title>17676</title>
<ellipse fill="none" stroke="#000000" cx="571.5975" cy="-18" rx="32.4942" ry="18"/>
<text text-anchor="middle" x="571.5975" y="-14.3" font-family="Times,serif" font-size="14.00" fill="#000000">17676</text>
</g>
<!-- 1239&#45;&gt;17676 -->
<g id="edge8" class="edge">
<title>1239&#45;&gt;17676</title>
<path fill="none" stroke="#000000" d="M508.9663,-75.0816C519.9401,-65.0801 534.5916,-51.7269 546.9644,-40.4504"/>
<polygon fill="#000000" stroke="#000000" points="549.6712,-42.719 554.7045,-33.3961 544.9559,-37.5453 549.6712,-42.719"/>
</g>
<!-- 1273 -->
<g id="node6" class="node">
<title>1273</title>
<ellipse fill="none" stroke="#000000" cx="492.5975" cy="-162" rx="28.6953" ry="18"/>
<text text-anchor="middle" x="492.5975" y="-158.3" font-family="Times,serif" font-size="14.00" fill="#000000">1273</text>
</g>
<!-- 1273&#45;&gt;1239 -->
<g id="edge9" class="edge">
<title>1273&#45;&gt;1239</title>
<path fill="none" stroke="#000000" d="M492.5975,-143.8314C492.5975,-136.131 492.5975,-126.9743 492.5975,-118.4166"/>
<polygon fill="#000000" stroke="#000000" points="496.0976,-118.4132 492.5975,-108.4133 489.0976,-118.4133 496.0976,-118.4132"/>
</g>
<!-- 6461 -->
<g id="node27" class="node">
<title>6461</title>
<ellipse fill="none" stroke="#000000" cx="371.5975" cy="-522" rx="28.6953" ry="18"/>
<text text-anchor="middle" x="371.5975" y="-518.3" font-family="Times,serif" font-size="14.00" fill="#000000">6461</text>
</g>
<!-- 1299&#45;&gt;6461 -->
<g id="edge10" class="edge">
<title>1299&#45;&gt;6461</title>
<path fill="none" stroke="#000000" d="M371.5975,-575.8314C371.5975,-568.131 371.5975,-558.9743 371.5975,-550.4166"/>
<polygon fill="#000000" stroke="#000000" points="375.0976,-550.4132 371.5975,-540.4133 368.0976,-550.4133 375.0976,-550.4132"/>
</g>
<!-- 2497 -->
<g id="node8" class="node">
<title>2497</title>
<ellipse fill="none" stroke="#000000" cx="371.5975" cy="-450" rx="28.6953" ry="18"/>
<text text-anchor="middle" x="371.5975" y="-446.3" font-family="Times,serif" font-size="14.00" fill="#000000">2497</text>
</g>
<!-- 2497&#45;&gt;701 -->
<g id="edge11" class="edge">
<title>2497&#45;&gt;701</title>
<path fill="none" stroke="#000000" d="M371.5975,-431.8314C371.5975,-424.131 371.5975,-414.9743 371.5975,-406.4166"/>
<polygon fill="#000000" stroke="#000000" points="375.0976,-406.4132 371.5975,-396.4133 368.0976,-406.4133 375.0976,-406.4132"/>
</g>
<!-- 32787 -->
<g id="node51" class="node">
<title>32787</title>
<ellipse fill="none" stroke="#000000" cx="180.5975" cy="-162" rx="32.4942" ry="18"/>
<text text-anchor="middle" x="180.5975" y="-158.3" font-family="Times,serif" font-size="14.00" fill="#000000">32787</text>
</g>
<!-- 2516&#45;&gt;32787 -->
<g id="edge12" class="edge">
<title>2516&#45;&gt;32787</title>
<path fill="none" stroke="#000000" d="M211.118,-216.937C206.356,-208.3654 200.4816,-197.7914 195.1622,-188.2165"/>
<polygon fill="#000000" stroke="#000000" points="198.2028,-186.4825 190.2867,-179.4407 192.0837,-189.882 198.2028,-186.4825"/>
</g>
<!-- 2686 -->
<g id="node10" class="node">
<title>2686</title>
<ellipse fill="none" stroke="#000000" cx="447.5975" cy="-882" rx="28.6953" ry="18"/>
<text text-anchor="middle" x="447.5975" y="-878.3" font-family="Times,serif" font-size="14.00" fill="#000000">2686</text>
</g>
<!-- 3741 -->
<g id="node21" class="node">
<title>3741</title>
<ellipse fill="none" stroke="#000000" cx="447.5975" cy="-810" rx="28.6953" ry="18"/>
<text text-anchor="middle" x="447.5975" y="-806.3" font-family="Times,serif" font-size="14.00" fill="#000000">3741</text>
</g>
<!-- 2686&#45;&gt;3741 -->
<g id="edge13" class="edge">
<title>2686&#45;&gt;3741</title>
<path fill="none" stroke="#000000" d="M447.5975,-863.8314C447.5975,-856.131 447.5975,-846.9743 447.5975,-838.4166"/>
<polygon fill="#000000" stroke="#000000" points="451.0976,-838.4132 447.5975,-828.4133 444.0976,-838.4133 451.0976,-838.4132"/>
</g>
<!-- 2687 -->
<g id="node11" class="node">
<title>2687</title>
<ellipse fill="none" stroke="#000000" cx="447.5975" cy="-954" rx="28.6953" ry="18"/>
<text text-anchor="middle" x="447.5975" y="-950.3" font-family="Times,serif" font-size="14.00" fill="#000000">2687</text>
</g>
<!-- 2687&#45;&gt;2686 -->
<g id="edge14" class="edge">
<title>2687&#45;&gt;2686</title>
<path fill="none" stroke="#000000" d="M447.5975,-935.8314C447.5975,-928.131 447.5975,-918.9743 447.5975,-910.4166"/>
<polygon fill="#000000" stroke="#000000" points="451.0976,-910.4132 447.5975,-900.4133 444.0976,-910.4133 451.0976,-910.4132"/>
</g>
<!-- 9505 -->
<g id="node38" class="node">
<title>9505</title>
<ellipse fill="none" stroke="#000000" cx="522.5975" cy="-882" rx="28.6953" ry="18"/>
<text text-anchor="middle" x="522.5975" y="-878.3" font-family="Times,serif" font-size="14.00" fill="#000000">9505</text>
</g>
<!-- 2687&#45;&gt;9505 -->
<g id="edge15" class="edge">
<title>2687&#45;&gt;9505</title>
<path fill="none" stroke="#000000" d="M463.503,-938.7307C473.9438,-928.7075 487.7723,-915.4321 499.4272,-904.2434"/>
<polygon fill="#000000" stroke="#000000" points="501.9248,-906.6976 506.7148,-897.2473 497.077,-901.6478 501.9248,-906.6976"/>
</g>
<!-- 2764 -->
<g id="node12" class="node">
<title>2764</title>
<ellipse fill="none" stroke="#000000" cx="107.5975" cy="-90" rx="28.6953" ry="18"/>
<text text-anchor="middle" x="107.5975" y="-86.3" font-family="Times,serif" font-size="14.00" fill="#000000">2764</text>
</g>
<!-- 7545 -->
<g id="node35" class="node">
<title>7545</title>
<ellipse fill="none" stroke="#000000" cx="28.5975" cy="-18" rx="28.6953" ry="18"/>
<text text-anchor="middle" x="28.5975" y="-14.3" font-family="Times,serif" font-size="14.00" fill="#000000">7545</text>
</g>
<!-- 2764&#45;&gt;7545 -->
<g id="edge16" class="edge">
<title>2764&#45;&gt;7545</title>
<path fill="none" stroke="#000000" d="M91.2286,-75.0816C80.0006,-64.8484 64.9226,-51.1064 52.3744,-39.6701"/>
<polygon fill="#000000" stroke="#000000" points="54.6939,-37.0486 44.9453,-32.8993 49.9787,-42.2222 54.6939,-37.0486"/>
</g>
<!-- 38333 -->
<g id="node53" class="node">
<title>38333</title>
<ellipse fill="none" stroke="#000000" cx="107.5975" cy="-18" rx="32.4942" ry="18"/>
<text text-anchor="middle" x="107.5975" y="-14.3" font-family="Times,serif" font-size="14.00" fill="#000000">38333</text>
</g>
<!-- 2764&#45;&gt;38333 -->
<g id="edge17" class="edge">
<title>2764&#45;&gt;38333</title>
<path fill="none" stroke="#000000" d="M107.5975,-71.8314C107.5975,-64.131 107.5975,-54.9743 107.5975,-46.4166"/>
<polygon fill="#000000" stroke="#000000" points="111.0976,-46.4132 107.5975,-36.4133 104.0976,-46.4133 111.0976,-46.4132"/>
</g>
<!-- 38561 -->
<g id="node54" class="node">
<title>38561</title>
<ellipse fill="none" stroke="#000000" cx="190.5975" cy="-18" rx="32.4942" ry="18"/>
<text text-anchor="middle" x="190.5975" y="-14.3" font-family="Times,serif" font-size="14.00" fill="#000000">38561</text>
</g>
<!-- 2764&#45;&gt;38561 -->
<g id="edge18" class="edge">
<title>2764&#45;&gt;38561</title>
<path fill="none" stroke="#000000" d="M124.3938,-75.4297C136.0835,-65.2892 151.8848,-51.5821 165.1185,-40.1023"/>
<polygon fill="#000000" stroke="#000000" points="167.7063,-42.4908 172.9667,-33.2941 163.1193,-37.2031 167.7063,-42.4908"/>
</g>
<!-- 2828 -->
<g id="node13" class="node">
<title>2828</title>
<ellipse fill="none" stroke="#000000" cx="259.5975" cy="-90" rx="28.6953" ry="18"/>
<text text-anchor="middle" x="259.5975" y="-86.3" font-family="Times,serif" font-size="14.00" fill="#000000">2828</text>
</g>
<!-- 2914 -->
<g id="node14" class="node">
<title>2914</title>
<ellipse fill="none" stroke="#000000" cx="372.5975" cy="-1026" rx="28.6953" ry="18"/>
<text text-anchor="middle" x="372.5975" y="-1022.3" font-family="Times,serif" font-size="14.00" fill="#000000">2914</text>
</g>
<!-- 6453 -->
<g id="node26" class="node">
<title>6453</title>
<ellipse fill="none" stroke="#000000" cx="372.5975" cy="-954" rx="28.6953" ry="18"/>
<text text-anchor="middle" x="372.5975" y="-950.3" font-family="Times,serif" font-size="14.00" fill="#000000">6453</text>
</g>
<!-- 2914&#45;&gt;6453 -->
<g id="edge19" class="edge">
<title>2914&#45;&gt;6453</title>
<path fill="none" stroke="#000000" d="M372.5975,-1007.8314C372.5975,-1000.131 372.5975,-990.9743 372.5975,-982.4166"/>
<polygon fill="#000000" stroke="#000000" points="376.0976,-982.4132 372.5975,-972.4133 369.0976,-982.4133 376.0976,-982.4132"/>
</g>
<!-- 3257 -->
<g id="node15" class="node">
<title>3257</title>
<ellipse fill="none" stroke="#000000" cx="372.5975" cy="-882" rx="28.6953" ry="18"/>
<text text-anchor="middle" x="372.5975" y="-878.3" font-family="Times,serif" font-size="14.00" fill="#000000">3257</text>
</g>
<!-- 3491 -->
<g id="node18" class="node">
<title>3491</title>
<ellipse fill="none" stroke="#000000" cx="372.5975" cy="-810" rx="28.6953" ry="18"/>
<text text-anchor="middle" x="372.5975" y="-806.3" font-family="Times,serif" font-size="14.00" fill="#000000">3491</text>
</g>
<!-- 3257&#45;&gt;3491 -->
<g id="edge20" class="edge">
<title>3257&#45;&gt;3491</title>
<path fill="none" stroke="#000000" d="M372.5975,-863.8314C372.5975,-856.131 372.5975,-846.9743 372.5975,-838.4166"/>
<polygon fill="#000000" stroke="#000000" points="376.0976,-838.4132 372.5975,-828.4133 369.0976,-838.4133 376.0976,-838.4132"/>
</g>
<!-- 3320 -->
<g id="node16" class="node">
<title>3320</title>
<ellipse fill="none" stroke="#000000" cx="450.5975" cy="-234" rx="28.6953" ry="18"/>
<text text-anchor="middle" x="450.5975" y="-230.3" font-family="Times,serif" font-size="14.00" fill="#000000">3320</text>
</g>
<!-- 3320&#45;&gt;1273 -->
<g id="edge21" class="edge">
<title>3320&#45;&gt;1273</title>
<path fill="none" stroke="#000000" d="M460.5509,-216.937C465.6245,-208.2393 471.9008,-197.4799 477.5505,-187.7948"/>
<polygon fill="#000000" stroke="#000000" points="480.7,-189.3419 482.7155,-178.9405 474.6535,-185.8148 480.7,-189.3419"/>
</g>
<!-- 3356 -->
<g id="node17" class="node">
<title>3356</title>
<ellipse fill="none" stroke="#000000" cx="446.5975" cy="-1242" rx="28.6953" ry="18"/>
<text text-anchor="middle" x="446.5975" y="-1238.3" font-family="Times,serif" font-size="14.00" fill="#000000">3356</text>
</g>
<!-- 3549 -->
<g id="node19" class="node">
<title>3549</title>
<ellipse fill="none" stroke="#000000" cx="446.5975" cy="-1170" rx="28.6953" ry="18"/>
<text text-anchor="middle" x="446.5975" y="-1166.3" font-family="Times,serif" font-size="14.00" fill="#000000">3549</text>
</g>
<!-- 3356&#45;&gt;3549 -->
<g id="edge22" class="edge">
<title>3356&#45;&gt;3549</title>
<path fill="none" stroke="#000000" d="M446.5975,-1223.8314C446.5975,-1216.131 446.5975,-1206.9743 446.5975,-1198.4166"/>
<polygon fill="#000000" stroke="#000000" points="450.0976,-1198.4132 446.5975,-1188.4133 443.0976,-1198.4133 450.0976,-1198.4132"/>
</g>
<!-- 3491&#45;&gt;174 -->
<g id="edge23" class="edge">
<title>3491&#45;&gt;174</title>
<path fill="none" stroke="#000000" d="M372.3451,-791.8314C372.2382,-784.131 372.111,-774.9743 371.9921,-766.4166"/>
<polygon fill="#000000" stroke="#000000" points="375.4918,-766.3637 371.8532,-756.4133 368.4925,-766.4609 375.4918,-766.3637"/>
</g>
<!-- 6762 -->
<g id="node28" class="node">
<title>6762</title>
<ellipse fill="none" stroke="#000000" cx="407.5975" cy="-1098" rx="28.6953" ry="18"/>
<text text-anchor="middle" x="407.5975" y="-1094.3" font-family="Times,serif" font-size="14.00" fill="#000000">6762</text>
</g>
<!-- 3549&#45;&gt;6762 -->
<g id="edge24" class="edge">
<title>3549&#45;&gt;6762</title>
<path fill="none" stroke="#000000" d="M437.355,-1152.937C432.7599,-1144.4537 427.1024,-1134.0092 421.9587,-1124.513"/>
<polygon fill="#000000" stroke="#000000" points="424.8849,-1122.5666 417.0445,-1115.4407 418.7299,-1125.9006 424.8849,-1122.5666"/>
</g>
<!-- 30070 -->
<g id="node50" class="node">
<title>30070</title>
<ellipse fill="none" stroke="#000000" cx="504.5975" cy="-1098" rx="32.4942" ry="18"/>
<text text-anchor="middle" x="504.5975" y="-1094.3" font-family="Times,serif" font-size="14.00" fill="#000000">30070</text>
</g>
<!-- 3549&#45;&gt;30070 -->
<g id="edge25" class="edge">
<title>3549&#45;&gt;30070</title>
<path fill="none" stroke="#000000" d="M459.7586,-1153.6621C467.1429,-1144.4953 476.5036,-1132.8751 484.7601,-1122.6257"/>
<polygon fill="#000000" stroke="#000000" points="487.5383,-1124.7561 491.0859,-1114.7729 482.087,-1120.3648 487.5383,-1124.7561"/>
</g>
<!-- 3597 -->
<g id="node20" class="node">
<title>3597</title>
<ellipse fill="none" stroke="#000000" cx="408.5975" cy="-1386" rx="28.6953" ry="18"/>
<text text-anchor="middle" x="408.5975" y="-1382.3" font-family="Times,serif" font-size="14.00" fill="#000000">3597</text>
</g>
<!-- 37179 -->
<g id="node52" class="node">
<title>37179</title>
<ellipse fill="none" stroke="#000000" cx="448.5975" cy="-738" rx="32.4942" ry="18"/>
<text text-anchor="middle" x="448.5975" y="-734.3" font-family="Times,serif" font-size="14.00" fill="#000000">37179</text>
</g>
<!-- 3741&#45;&gt;37179 -->
<g id="edge26" class="edge">
<title>3741&#45;&gt;37179</title>
<path fill="none" stroke="#000000" d="M447.8498,-791.8314C447.9568,-784.131 448.0839,-774.9743 448.2028,-766.4166"/>
<polygon fill="#000000" stroke="#000000" points="451.7024,-766.4609 448.3417,-756.4133 444.7031,-766.3637 451.7024,-766.4609"/>
</g>
<!-- 4637 -->
<g id="node22" class="node">
<title>4637</title>
<ellipse fill="none" stroke="#000000" cx="259.5975" cy="-162" rx="28.6953" ry="18"/>
<text text-anchor="middle" x="259.5975" y="-158.3" font-family="Times,serif" font-size="14.00" fill="#000000">4637</text>
</g>
<!-- 4637&#45;&gt;2828 -->
<g id="edge27" class="edge">
<title>4637&#45;&gt;2828</title>
<path fill="none" stroke="#000000" d="M259.5975,-143.8314C259.5975,-136.131 259.5975,-126.9743 259.5975,-118.4166"/>
<polygon fill="#000000" stroke="#000000" points="263.0976,-118.4132 259.5975,-108.4133 256.0976,-118.4133 263.0976,-118.4132"/>
</g>
<!-- 4755 -->
<g id="node23" class="node">
<title>4755</title>
<ellipse fill="none" stroke="#000000" cx="336.5975" cy="-90" rx="28.6953" ry="18"/>
<text text-anchor="middle" x="336.5975" y="-86.3" font-family="Times,serif" font-size="14.00" fill="#000000">4755</text>
</g>
<!-- 9583 -->
<g id="node39" class="node">
<title>9583</title>
<ellipse fill="none" stroke="#000000" cx="334.5975" cy="-18" rx="28.6953" ry="18"/>
<text text-anchor="middle" x="334.5975" y="-14.3" font-family="Times,serif" font-size="14.00" fill="#000000">9583</text>
</g>
<!-- 4755&#45;&gt;9583 -->
<g id="edge28" class="edge">
<title>4755&#45;&gt;9583</title>
<path fill="none" stroke="#000000" d="M336.0928,-71.8314C335.8789,-64.131 335.6245,-54.9743 335.3868,-46.4166"/>
<polygon fill="#000000" stroke="#000000" points="338.8854,-46.3122 335.1089,-36.4133 331.8881,-46.5066 338.8854,-46.3122"/>
</g>
<!-- 5692 -->
<g id="node25" class="node">
<title>5692</title>
<ellipse fill="none" stroke="#000000" cx="902.5975" cy="-1458" rx="28.6953" ry="18"/>
<text text-anchor="middle" x="902.5975" y="-1454.3" font-family="Times,serif" font-size="14.00" fill="#000000">5692</text>
</g>
<!-- 5692&#45;&gt;3597 -->
<g id="edge29" class="edge">
<title>5692&#45;&gt;3597</title>
<path fill="none" stroke="#000000" d="M874.0129,-1455.8332C787.2338,-1449.0637 527.8067,-1427.3629 446.5975,-1404 444.4315,-1403.3769 442.2352,-1402.6422 440.0474,-1401.832"/>
<polygon fill="#000000" stroke="#000000" points="441.2078,-1398.5239 430.6309,-1397.9077 438.515,-1404.9852 441.2078,-1398.5239"/>
</g>
<!-- 10834 -->
<g id="node41" class="node">
<title>10834</title>
<ellipse fill="none" stroke="#000000" cx="487.5975" cy="-1386" rx="32.4942" ry="18"/>
<text text-anchor="middle" x="487.5975" y="-1382.3" font-family="Times,serif" font-size="14.00" fill="#000000">10834</text>
</g>
<!-- 5692&#45;&gt;10834 -->
<g id="edge30" class="edge">
<title>5692&#45;&gt;10834</title>
<path fill="none" stroke="#000000" d="M873.9984,-1456.4071C810.8035,-1452.3384 654.9382,-1439.2744 529.5975,-1404 527.1252,-1403.3042 524.6065,-1402.4966 522.0926,-1401.6164"/>
<polygon fill="#000000" stroke="#000000" points="523.1197,-1398.2617 512.5296,-1397.946 520.6114,-1404.7969 523.1197,-1398.2617"/>
</g>
<!-- 11008 -->
<g id="node42" class="node">
<title>11008</title>
<ellipse fill="none" stroke="#000000" cx="570.5975" cy="-1386" rx="32.4942" ry="18"/>
<text text-anchor="middle" x="570.5975" y="-1382.3" font-family="Times,serif" font-size="14.00" fill="#000000">11008</text>
</g>
<!-- 5692&#45;&gt;11008 -->
<g id="edge31" class="edge">
<title>5692&#45;&gt;11008</title>
<path fill="none" stroke="#000000" d="M874.1076,-1454.8151C821.5615,-1448.4771 706.2025,-1432.3918 612.5975,-1404 610.1397,-1403.2545 607.6318,-1402.4097 605.1259,-1401.5026"/>
<polygon fill="#000000" stroke="#000000" points="606.168,-1398.1522 595.5799,-1397.7737 603.621,-1404.6724 606.168,-1398.1522"/>
</g>
<!-- 27865 -->
<g id="node48" class="node">
<title>27865</title>
<ellipse fill="none" stroke="#000000" cx="653.5975" cy="-1386" rx="32.4942" ry="18"/>
<text text-anchor="middle" x="653.5975" y="-1382.3" font-family="Times,serif" font-size="14.00" fill="#000000">27865</text>
</g>
<!-- 5692&#45;&gt;27865 -->
<g id="edge32" class="edge">
<title>5692&#45;&gt;27865</title>
<path fill="none" stroke="#000000" d="M875.4202,-1452.2764C835.4864,-1443.5606 758.8418,-1425.6654 695.5975,-1404 693.1677,-1403.1677 690.6808,-1402.258 688.1901,-1401.3038"/>
<polygon fill="#000000" stroke="#000000" points="689.2607,-1397.9618 678.6771,-1397.4727 686.6457,-1404.455 689.2607,-1397.9618"/>
</g>
<!-- 28065 -->
<g id="node49" class="node">
<title>28065</title>
<ellipse fill="none" stroke="#000000" cx="736.5975" cy="-1386" rx="32.4942" ry="18"/>
<text text-anchor="middle" x="736.5975" y="-1382.3" font-family="Times,serif" font-size="14.00" fill="#000000">28065</text>
</g>
<!-- 5692&#45;&gt;28065 -->
<g id="edge33" class="edge">
<title>5692&#45;&gt;28065</title>
<path fill="none" stroke="#000000" d="M878.8137,-1447.6842C850.7843,-1435.5268 803.9549,-1415.2153 771.7384,-1401.2419"/>
<polygon fill="#000000" stroke="#000000" points="772.8133,-1397.8931 762.2463,-1397.1248 770.0278,-1404.315 772.8133,-1397.8931"/>
</g>
<!-- 52317 -->
<g id="node55" class="node">
<title>52317</title>
<ellipse fill="none" stroke="#000000" cx="819.5975" cy="-1386" rx="32.4942" ry="18"/>
<text text-anchor="middle" x="819.5975" y="-1382.3" font-family="Times,serif" font-size="14.00" fill="#000000">52317</text>
</g>
<!-- 5692&#45;&gt;52317 -->
<g id="edge34" class="edge">
<title>5692&#45;&gt;52317</title>
<path fill="none" stroke="#000000" d="M885.8012,-1443.4297C874.1114,-1433.2892 858.3101,-1419.5821 845.0765,-1408.1023"/>
<polygon fill="#000000" stroke="#000000" points="847.0756,-1405.2031 837.2282,-1401.2941 842.4886,-1410.4908 847.0756,-1405.2031"/>
</g>
<!-- 52375 -->
<g id="node56" class="node">
<title>52375</title>
<ellipse fill="none" stroke="#000000" cx="902.5975" cy="-1386" rx="32.4942" ry="18"/>
<text text-anchor="middle" x="902.5975" y="-1382.3" font-family="Times,serif" font-size="14.00" fill="#000000">52375</text>
</g>
<!-- 5692&#45;&gt;52375 -->
<g id="edge35" class="edge">
<title>5692&#45;&gt;52375</title>
<path fill="none" stroke="#000000" d="M902.5975,-1439.8314C902.5975,-1432.131 902.5975,-1422.9743 902.5975,-1414.4166"/>
<polygon fill="#000000" stroke="#000000" points="906.0976,-1414.4132 902.5975,-1404.4133 899.0976,-1414.4133 906.0976,-1414.4132"/>
</g>
<!-- 52376 -->
<g id="node57" class="node">
<title>52376</title>
<ellipse fill="none" stroke="#000000" cx="985.5975" cy="-1386" rx="32.4942" ry="18"/>
<text text-anchor="middle" x="985.5975" y="-1382.3" font-family="Times,serif" font-size="14.00" fill="#000000">52376</text>
</g>
<!-- 5692&#45;&gt;52376 -->
<g id="edge36" class="edge">
<title>5692&#45;&gt;52376</title>
<path fill="none" stroke="#000000" d="M919.3938,-1443.4297C931.0835,-1433.2892 946.8848,-1419.5821 960.1185,-1408.1023"/>
<polygon fill="#000000" stroke="#000000" points="962.7063,-1410.4908 967.9667,-1401.2941 958.1193,-1405.2031 962.7063,-1410.4908"/>
</g>
<!-- 52380 -->
<g id="node58" class="node">
<title>52380</title>
<ellipse fill="none" stroke="#000000" cx="1068.5975" cy="-1386" rx="32.4942" ry="18"/>
<text text-anchor="middle" x="1068.5975" y="-1382.3" font-family="Times,serif" font-size="14.00" fill="#000000">52380</text>
</g>
<!-- 5692&#45;&gt;52380 -->
<g id="edge37" class="edge">
<title>5692&#45;&gt;52380</title>
<path fill="none" stroke="#000000" d="M926.3812,-1447.6842C954.4107,-1435.5268 1001.24,-1415.2153 1033.4565,-1401.2419"/>
<polygon fill="#000000" stroke="#000000" points="1035.1671,-1404.315 1042.9486,-1397.1248 1032.3816,-1397.8931 1035.1671,-1404.315"/>
</g>
<!-- 52413 -->
<g id="node59" class="node">
<title>52413</title>
<ellipse fill="none" stroke="#000000" cx="1151.5975" cy="-1386" rx="32.4942" ry="18"/>
<text text-anchor="middle" x="1151.5975" y="-1382.3" font-family="Times,serif" font-size="14.00" fill="#000000">52413</text>
</g>
<!-- 5692&#45;&gt;52413 -->
<g id="edge38" class="edge">
<title>5692&#45;&gt;52413</title>
<path fill="none" stroke="#000000" d="M929.7748,-1452.2764C969.7085,-1443.5606 1046.3531,-1425.6654 1109.5975,-1404 1112.0272,-1403.1677 1114.5141,-1402.258 1117.0048,-1401.3038"/>
<polygon fill="#000000" stroke="#000000" points="1118.5493,-1404.455 1126.5178,-1397.4727 1115.9342,-1397.9618 1118.5493,-1404.455"/>
</g>
<!-- 52431 -->
<g id="node60" class="node">
<title>52431</title>
<ellipse fill="none" stroke="#000000" cx="1234.5975" cy="-1386" rx="32.4942" ry="18"/>
<text text-anchor="middle" x="1234.5975" y="-1382.3" font-family="Times,serif" font-size="14.00" fill="#000000">52431</text>
</g>
<!-- 5692&#45;&gt;52431 -->
<g id="edge39" class="edge">
<title>5692&#45;&gt;52431</title>
<path fill="none" stroke="#000000" d="M931.0873,-1454.8151C983.6335,-1448.4771 1098.9924,-1432.3918 1192.5975,-1404 1195.0552,-1403.2545 1197.5631,-1402.4097 1200.069,-1401.5026"/>
<polygon fill="#000000" stroke="#000000" points="1201.5739,-1404.6724 1209.615,-1397.7737 1199.0269,-1398.1522 1201.5739,-1404.6724"/>
</g>
<!-- 262230 -->
<g id="node61" class="node">
<title>262230</title>
<ellipse fill="none" stroke="#000000" cx="1322.5975" cy="-1386" rx="37.0935" ry="18"/>
<text text-anchor="middle" x="1322.5975" y="-1382.3" font-family="Times,serif" font-size="14.00" fill="#000000">262230</text>
</g>
<!-- 5692&#45;&gt;262230 -->
<g id="edge40" class="edge">
<title>5692&#45;&gt;262230</title>
<path fill="none" stroke="#000000" d="M931.0975,-1456.0413C994.0947,-1451.243 1149.5904,-1436.8146 1275.5975,-1404 1278.726,-1403.1853 1281.9321,-1402.23 1285.1278,-1401.1919"/>
<polygon fill="#000000" stroke="#000000" points="1286.3086,-1404.4869 1294.5963,-1397.8866 1284.0015,-1397.878 1286.3086,-1404.4869"/>
</g>
<!-- 264608 -->
<g id="node62" class="node">
<title>264608</title>
<ellipse fill="none" stroke="#000000" cx="1414.5975" cy="-1386" rx="37.0935" ry="18"/>
<text text-anchor="middle" x="1414.5975" y="-1382.3" font-family="Times,serif" font-size="14.00" fill="#000000">264608</text>
</g>
<!-- 5692&#45;&gt;264608 -->
<g id="edge41" class="edge">
<title>5692&#45;&gt;264608</title>
<path fill="none" stroke="#000000" d="M931.4231,-1457.2303C1005.2246,-1454.71 1206.5895,-1444.3639 1368.5975,-1404 1371.4059,-1403.3003 1374.2734,-1402.4722 1377.1355,-1401.5618"/>
<polygon fill="#000000" stroke="#000000" points="1378.4576,-1404.8076 1386.7522,-1398.216 1376.1574,-1398.1963 1378.4576,-1404.8076"/>
</g>
<!-- 6453&#45;&gt;3257 -->
<g id="edge42" class="edge">
<title>6453&#45;&gt;3257</title>
<path fill="none" stroke="#000000" d="M372.5975,-935.8314C372.5975,-928.131 372.5975,-918.9743 372.5975,-910.4166"/>
<polygon fill="#000000" stroke="#000000" points="376.0976,-910.4132 372.5975,-900.4133 369.0976,-910.4133 376.0976,-910.4132"/>
</g>
<!-- 6461&#45;&gt;2497 -->
<g id="edge43" class="edge">
<title>6461&#45;&gt;2497</title>
<path fill="none" stroke="#000000" d="M371.5975,-503.8314C371.5975,-496.131 371.5975,-486.9743 371.5975,-478.4166"/>
<polygon fill="#000000" stroke="#000000" points="375.0976,-478.4132 371.5975,-468.4133 368.0976,-478.4133 375.0976,-478.4132"/>
</g>
<!-- 6762&#45;&gt;2914 -->
<g id="edge44" class="edge">
<title>6762&#45;&gt;2914</title>
<path fill="none" stroke="#000000" d="M399.1249,-1080.5708C394.9978,-1072.0807 389.9482,-1061.6929 385.3663,-1052.2674"/>
<polygon fill="#000000" stroke="#000000" points="388.5117,-1050.7322 380.992,-1043.2687 382.2162,-1053.7926 388.5117,-1050.7322"/>
</g>
<!-- 6904 -->
<g id="node29" class="node">
<title>6904</title>
<ellipse fill="none" stroke="#000000" cx="447.5975" cy="-1026" rx="28.6953" ry="18"/>
<text text-anchor="middle" x="447.5975" y="-1022.3" font-family="Times,serif" font-size="14.00" fill="#000000">6904</text>
</g>
<!-- 6904&#45;&gt;2687 -->
<g id="edge45" class="edge">
<title>6904&#45;&gt;2687</title>
<path fill="none" stroke="#000000" d="M447.5975,-1007.8314C447.5975,-1000.131 447.5975,-990.9743 447.5975,-982.4166"/>
<polygon fill="#000000" stroke="#000000" points="451.0976,-982.4132 447.5975,-972.4133 444.0976,-982.4133 451.0976,-982.4132"/>
</g>
<!-- 6939 -->
<g id="node30" class="node">
<title>6939</title>
<ellipse fill="none" stroke="#000000" cx="413.5975" cy="-90" rx="28.6953" ry="18"/>
<text text-anchor="middle" x="413.5975" y="-86.3" font-family="Times,serif" font-size="14.00" fill="#000000">6939</text>
</g>
<!-- 12266 -->
<g id="node43" class="node">
<title>12266</title>
<ellipse fill="none" stroke="#000000" cx="413.5975" cy="-18" rx="32.4942" ry="18"/>
<text text-anchor="middle" x="413.5975" y="-14.3" font-family="Times,serif" font-size="14.00" fill="#000000">12266</text>
</g>
<!-- 6939&#45;&gt;12266 -->
<g id="edge46" class="edge">
<title>6939&#45;&gt;12266</title>
<path fill="none" stroke="#000000" d="M413.5975,-71.8314C413.5975,-64.131 413.5975,-54.9743 413.5975,-46.4166"/>
<polygon fill="#000000" stroke="#000000" points="417.0976,-46.4132 413.5975,-36.4133 410.0976,-46.4133 417.0976,-46.4132"/>
</g>
<!-- 7016 -->
<g id="node31" class="node">
<title>7016</title>
<ellipse fill="none" stroke="#000000" cx="522.5975" cy="-1026" rx="28.6953" ry="18"/>
<text text-anchor="middle" x="522.5975" y="-1022.3" font-family="Times,serif" font-size="14.00" fill="#000000">7016</text>
</g>
<!-- 7922 -->
<g id="node36" class="node">
<title>7922</title>
<ellipse fill="none" stroke="#000000" cx="522.5975" cy="-954" rx="28.6953" ry="18"/>
<text text-anchor="middle" x="522.5975" y="-950.3" font-family="Times,serif" font-size="14.00" fill="#000000">7922</text>
</g>
<!-- 7016&#45;&gt;7922 -->
<g id="edge47" class="edge">
<title>7016&#45;&gt;7922</title>
<path fill="none" stroke="#000000" d="M522.5975,-1007.8314C522.5975,-1000.131 522.5975,-990.9743 522.5975,-982.4166"/>
<polygon fill="#000000" stroke="#000000" points="526.0976,-982.4132 522.5975,-972.4133 519.0976,-982.4133 526.0976,-982.4132"/>
</g>
<!-- 7018&#45;&gt;3320 -->
<g id="edge48" class="edge">
<title>7018&#45;&gt;3320</title>
<path fill="none" stroke="#000000" d="M434.7885,-288.2022C437.1359,-280.1541 439.9636,-270.4588 442.5747,-261.5067"/>
<polygon fill="#000000" stroke="#000000" points="445.9533,-262.4226 445.3934,-251.8425 439.2333,-260.4625 445.9533,-262.4226"/>
</g>
<!-- 7473 -->
<g id="node33" class="node">
<title>7473</title>
<ellipse fill="none" stroke="#000000" cx="334.5975" cy="-162" rx="28.6953" ry="18"/>
<text text-anchor="middle" x="334.5975" y="-158.3" font-family="Times,serif" font-size="14.00" fill="#000000">7473</text>
</g>
<!-- 7474 -->
<g id="node34" class="node">
<title>7474</title>
<ellipse fill="none" stroke="#000000" cx="182.5975" cy="-90" rx="28.6953" ry="18"/>
<text text-anchor="middle" x="182.5975" y="-86.3" font-family="Times,serif" font-size="14.00" fill="#000000">7474</text>
</g>
<!-- 9498&#45;&gt;4637 -->
<g id="edge49" class="edge">
<title>9498&#45;&gt;4637</title>
<path fill="none" stroke="#000000" d="M318.6919,-218.7307C308.2512,-208.7075 294.4226,-195.4321 282.7677,-184.2434"/>
<polygon fill="#000000" stroke="#000000" points="285.1179,-181.6478 275.4801,-177.2473 280.2701,-186.6976 285.1179,-181.6478"/>
</g>
<!-- 9498&#45;&gt;7473 -->
<g id="edge50" class="edge">
<title>9498&#45;&gt;7473</title>
<path fill="none" stroke="#000000" d="M334.5975,-215.8314C334.5975,-208.131 334.5975,-198.9743 334.5975,-190.4166"/>
<polygon fill="#000000" stroke="#000000" points="338.0976,-190.4132 334.5975,-180.4133 331.0976,-190.4133 338.0976,-190.4132"/>
</g>
<!-- 10026 -->
<g id="node40" class="node">
<title>10026</title>
<ellipse fill="none" stroke="#000000" cx="413.5975" cy="-162" rx="32.4942" ry="18"/>
<text text-anchor="middle" x="413.5975" y="-158.3" font-family="Times,serif" font-size="14.00" fill="#000000">10026</text>
</g>
<!-- 9498&#45;&gt;10026 -->
<g id="edge51" class="edge">
<title>9498&#45;&gt;10026</title>
<path fill="none" stroke="#000000" d="M350.9663,-219.0816C361.9401,-209.0801 376.5916,-195.7269 388.9644,-184.4504"/>
<polygon fill="#000000" stroke="#000000" points="391.6712,-186.719 396.7045,-177.3961 386.9559,-181.5453 391.6712,-186.719"/>
</g>
<!-- 10026&#45;&gt;4755 -->
<g id="edge52" class="edge">
<title>10026&#45;&gt;4755</title>
<path fill="none" stroke="#000000" d="M396.8896,-146.3771C386.1497,-136.3346 372.0364,-123.1377 360.1647,-112.0369"/>
<polygon fill="#000000" stroke="#000000" points="362.4398,-109.3725 352.745,-105.099 357.6588,-114.4855 362.4398,-109.3725"/>
</g>
<!-- 10026&#45;&gt;6939 -->
<g id="edge53" class="edge">
<title>10026&#45;&gt;6939</title>
<path fill="none" stroke="#000000" d="M413.5975,-143.8314C413.5975,-136.131 413.5975,-126.9743 413.5975,-118.4166"/>
<polygon fill="#000000" stroke="#000000" points="417.0976,-118.4132 413.5975,-108.4133 410.0976,-118.4133 417.0976,-118.4132"/>
</g>
<!-- 12956 -->
<g id="node44" class="node">
<title>12956</title>
<ellipse fill="none" stroke="#000000" cx="446.5975" cy="-1314" rx="32.4942" ry="18"/>
<text text-anchor="middle" x="446.5975" y="-1310.3" font-family="Times,serif" font-size="14.00" fill="#000000">12956</text>
</g>
<!-- 10834&#45;&gt;12956 -->
<g id="edge54" class="edge">
<title>10834&#45;&gt;12956</title>
<path fill="none" stroke="#000000" d="M477.6725,-1368.5708C472.7875,-1359.9922 466.7992,-1349.4762 461.3877,-1339.9732"/>
<polygon fill="#000000" stroke="#000000" points="464.4209,-1338.2266 456.431,-1331.2687 458.338,-1341.6905 464.4209,-1338.2266"/>
</g>
<!-- 22927 -->
<g id="node47" class="node">
<title>22927</title>
<ellipse fill="none" stroke="#000000" cx="529.5975" cy="-1314" rx="32.4942" ry="18"/>
<text text-anchor="middle" x="529.5975" y="-1310.3" font-family="Times,serif" font-size="14.00" fill="#000000">22927</text>
</g>
<!-- 10834&#45;&gt;22927 -->
<g id="edge55" class="edge">
<title>10834&#45;&gt;22927</title>
<path fill="none" stroke="#000000" d="M497.7645,-1368.5708C502.7687,-1359.9922 508.903,-1349.4762 514.4464,-1339.9732"/>
<polygon fill="#000000" stroke="#000000" points="517.5085,-1341.6701 519.5241,-1331.2687 511.4621,-1338.1429 517.5085,-1341.6701"/>
</g>
<!-- 12956&#45;&gt;3356 -->
<g id="edge56" class="edge">
<title>12956&#45;&gt;3356</title>
<path fill="none" stroke="#000000" d="M446.5975,-1295.8314C446.5975,-1288.131 446.5975,-1278.9743 446.5975,-1270.4166"/>
<polygon fill="#000000" stroke="#000000" points="450.0976,-1270.4132 446.5975,-1260.4133 443.0976,-1270.4133 450.0976,-1270.4132"/>
</g>
<!-- 18540 -->
<g id="node46" class="node">
<title>18540</title>
<ellipse fill="none" stroke="#000000" cx="601.5975" cy="-1026" rx="32.4942" ry="18"/>
<text text-anchor="middle" x="601.5975" y="-1022.3" font-family="Times,serif" font-size="14.00" fill="#000000">18540</text>
</g>
<!-- 30070&#45;&gt;6904 -->
<g id="edge57" class="edge">
<title>30070&#45;&gt;6904</title>
<path fill="none" stroke="#000000" d="M491.3772,-1081.3008C484.0074,-1071.9915 474.7021,-1060.2374 466.5674,-1049.9621"/>
<polygon fill="#000000" stroke="#000000" points="469.3051,-1047.7814 460.3539,-1042.1134 463.8168,-1052.1263 469.3051,-1047.7814"/>
</g>
<!-- 30070&#45;&gt;7016 -->
<g id="edge58" class="edge">
<title>30070&#45;&gt;7016</title>
<path fill="none" stroke="#000000" d="M509.1396,-1079.8314C511.1158,-1071.9266 513.4757,-1062.4872 515.6633,-1053.7365"/>
<polygon fill="#000000" stroke="#000000" points="519.0892,-1054.4637 518.1191,-1043.9134 512.2982,-1052.7659 519.0892,-1054.4637"/>
</g>
<!-- 30070&#45;&gt;18540 -->
<g id="edge59" class="edge">
<title>30070&#45;&gt;18540</title>
<path fill="none" stroke="#000000" d="M524.2269,-1083.4297C538.4264,-1072.8899 557.8169,-1058.4969 573.6336,-1046.7567"/>
<polygon fill="#000000" stroke="#000000" points="576.0536,-1049.3192 581.9973,-1040.5486 571.8815,-1043.6984 576.0536,-1049.3192"/>
</g>
<!-- 32787&#45;&gt;2764 -->
<g id="edge60" class="edge">
<title>32787&#45;&gt;2764</title>
<path fill="none" stroke="#000000" d="M164.3964,-146.0209C154.4308,-136.1918 141.505,-123.4431 130.5023,-112.591"/>
<polygon fill="#000000" stroke="#000000" points="132.8296,-109.9706 123.2522,-105.4403 127.9141,-114.9543 132.8296,-109.9706"/>
</g>
<!-- 32787&#45;&gt;7474 -->
<g id="edge61" class="edge">
<title>32787&#45;&gt;7474</title>
<path fill="none" stroke="#000000" d="M181.1021,-143.8314C181.316,-136.131 181.5704,-126.9743 181.8081,-118.4166"/>
<polygon fill="#000000" stroke="#000000" points="185.3069,-118.5066 182.086,-108.4133 178.3096,-118.3122 185.3069,-118.5066"/>
</g>
</g>
</svg>
