<?xml version="1.0" encoding="UTF-8" standalone="no"?>
<!DOCTYPE svg PUBLIC "-//W3C//DTD SVG 1.1//EN"
 "http://www.w3.org/Graphics/SVG/1.1/DTD/svg11.dtd">
<!-- Generated by graphviz version 2.40.1 (20161225.0304)
 -->
<!-- Title: %3 Pages: 1 -->
<svg width="385pt" height="385pt"
 viewBox="0.00 0.00 384.99 384.86" xmlns="http://www.w3.org/2000/svg" xmlns:xlink="http://www.w3.org/1999/xlink">
<g id="graph0" class="graph" transform="scale(1 1) rotate(0) translate(4 380.8558)">
<title>%3</title>
<polygon fill="#ffffff" stroke="transparent" points="-4,4 -4,-380.8558 380.9936,-380.8558 380.9936,4 -4,4"/>
<!-- 174 -->
<g id="node1" class="node">
<title>174</title>
<ellipse fill="none" stroke="#000000" cx="39.5796" cy="-90.6925" rx="27" ry="18"/>
<text text-anchor="middle" x="39.5796" y="-86.9925" font-family="Times,serif" font-size="14.00" fill="#000000">174</text>
</g>
<!-- 209 -->
<g id="node2" class="node">
<title>209</title>
<ellipse fill="none" stroke="#000000" cx="203.256" cy="-104.6725" rx="27" ry="18"/>
<text text-anchor="middle" x="203.256" y="-100.9725" font-family="Times,serif" font-size="14.00" fill="#000000">209</text>
</g>
<!-- 701 -->
<g id="node3" class="node">
<title>701</title>
<ellipse fill="none" stroke="#000000" cx="99.7582" cy="-18.4658" rx="27" ry="18"/>
<text text-anchor="middle" x="99.7582" y="-14.7658" font-family="Times,serif" font-size="14.00" fill="#000000">701</text>
</g>
<!-- 1239 -->
<g id="node4" class="node">
<title>1239</title>
<ellipse fill="none" stroke="#000000" cx="72.5346" cy="-182.072" rx="28.6953" ry="18"/>
<text text-anchor="middle" x="72.5346" y="-178.372" font-family="Times,serif" font-size="14.00" fill="#000000">1239</text>
</g>
<!-- 1273 -->
<g id="node5" class="node">
<title>1273</title>
<ellipse fill="none" stroke="#000000" cx="171.5222" cy="-135.0962" rx="28.6953" ry="18"/>
<text text-anchor="middle" x="171.5222" y="-131.3962" font-family="Times,serif" font-size="14.00" fill="#000000">1273</text>
</g>
<!-- 1299 -->
<g id="node6" class="node">
<title>1299</title>
<ellipse fill="none" stroke="#000000" cx="68.8642" cy="-131.3629" rx="28.6953" ry="18"/>
<text text-anchor="middle" x="68.8642" y="-127.6629" font-family="Times,serif" font-size="14.00" fill="#000000">1299</text>
</g>
<!-- 2914 -->
<g id="node7" class="node">
<title>2914</title>
<ellipse fill="none" stroke="#000000" cx="49.8215" cy="-57.2969" rx="28.6953" ry="18"/>
<text text-anchor="middle" x="49.8215" y="-53.5969" font-family="Times,serif" font-size="14.00" fill="#000000">2914</text>
</g>
<!-- 3257 -->
<g id="node8" class="node">
<title>3257</title>
<ellipse fill="none" stroke="#000000" cx="213.9756" cy="-70.2574" rx="28.6953" ry="18"/>
<text text-anchor="middle" x="213.9756" y="-66.5574" font-family="Times,serif" font-size="14.00" fill="#000000">3257</text>
</g>
<!-- 3320 -->
<g id="node9" class="node">
<title>3320</title>
<ellipse fill="none" stroke="#000000" cx="80.8685" cy="-53.3865" rx="28.6953" ry="18"/>
<text text-anchor="middle" x="80.8685" y="-49.6865" font-family="Times,serif" font-size="14.00" fill="#000000">3320</text>
</g>
<!-- 3356 -->
<g id="node10" class="node">
<title>3356</title>
<ellipse fill="none" stroke="#000000" cx="158.2546" cy="-18" rx="28.6953" ry="18"/>
<text text-anchor="middle" x="158.2546" y="-14.3" font-family="Times,serif" font-size="14.00" fill="#000000">3356</text>
</g>
<!-- 3491 -->
<g id="node11" class="node">
<title>3491</title>
<ellipse fill="none" stroke="#000000" cx="125.9939" cy="-38.179" rx="28.6953" ry="18"/>
<text text-anchor="middle" x="125.9939" y="-34.479" font-family="Times,serif" font-size="14.00" fill="#000000">3491</text>
</g>
<!-- 3549 -->
<g id="node12" class="node">
<title>3549</title>
<ellipse fill="none" stroke="#000000" cx="28.5975" cy="-125.2023" rx="28.6953" ry="18"/>
<text text-anchor="middle" x="28.5975" y="-121.5023" font-family="Times,serif" font-size="14.00" fill="#000000">3549</text>
</g>
<!-- 3597 -->
<g id="node13" class="node">
<title>3597</title>
<ellipse fill="none" stroke="#000000" cx="347.4751" cy="-275.5226" rx="28.6953" ry="18"/>
<text text-anchor="middle" x="347.4751" y="-271.8226" font-family="Times,serif" font-size="14.00" fill="#000000">3597</text>
</g>
<!-- 5692 -->
<g id="node14" class="node">
<title>5692</title>
<ellipse fill="none" stroke="#000000" cx="250.7709" cy="-271.3884" rx="28.6953" ry="18"/>
<text text-anchor="middle" x="250.7709" y="-267.6884" font-family="Times,serif" font-size="14.00" fill="#000000">5692</text>
</g>
<!-- 5692&#45;&gt;3597 -->
<g id="edge1" class="edge">
<title>5692&#45;&gt;3597</title>
<path fill="none" stroke="#000000" d="M279.5235,-272.6176C288.6003,-273.0057 298.7864,-273.4411 308.4549,-273.8545"/>
<polygon fill="#000000" stroke="#000000" points="308.5259,-277.3606 318.6663,-274.291 308.8249,-270.367 308.5259,-277.3606"/>
</g>
<!-- 10834 -->
<g id="node19" class="node">
<title>10834</title>
<ellipse fill="none" stroke="#000000" cx="176.8829" cy="-204.9607" rx="32.4942" ry="18"/>
<text text-anchor="middle" x="176.8829" y="-201.2607" font-family="Times,serif" font-size="14.00" fill="#000000">10834</text>
</g>
<!-- 5692&#45;&gt;10834 -->
<g id="edge2" class="edge">
<title>5692&#45;&gt;10834</title>
<path fill="none" stroke="#000000" d="M234.0046,-256.3149C224.5043,-247.7739 212.4361,-236.9242 201.8424,-227.4001"/>
<polygon fill="#000000" stroke="#000000" points="203.8722,-224.5184 194.0956,-220.4355 199.1922,-229.724 203.8722,-224.5184"/>
</g>
<!-- 11008 -->
<g id="node20" class="node">
<title>11008</title>
<ellipse fill="none" stroke="#000000" cx="179.3879" cy="-334.2535" rx="32.4942" ry="18"/>
<text text-anchor="middle" x="179.3879" y="-330.5535" font-family="Times,serif" font-size="14.00" fill="#000000">11008</text>
</g>
<!-- 5692&#45;&gt;11008 -->
<g id="edge3" class="edge">
<title>5692&#45;&gt;11008</title>
<path fill="none" stroke="#000000" d="M233.8541,-286.2866C225.1575,-293.9454 214.3819,-303.4352 204.7165,-311.9472"/>
<polygon fill="#000000" stroke="#000000" points="202.1201,-309.57 196.9287,-318.8058 206.7465,-314.8232 202.1201,-309.57"/>
</g>
<!-- 27865 -->
<g id="node23" class="node">
<title>27865</title>
<ellipse fill="none" stroke="#000000" cx="272.9054" cy="-356.0537" rx="32.4942" ry="18"/>
<text text-anchor="middle" x="272.9054" y="-352.3537" font-family="Times,serif" font-size="14.00" fill="#000000">27865</text>
</g>
<!-- 5692&#45;&gt;27865 -->
<g id="edge4" class="edge">
<title>5692&#45;&gt;27865</title>
<path fill="none" stroke="#000000" d="M255.4651,-289.3437C258.429,-300.681 262.3181,-315.5568 265.6714,-328.3835"/>
<polygon fill="#000000" stroke="#000000" points="262.3024,-329.3347 268.218,-338.1243 269.0748,-327.5641 262.3024,-329.3347"/>
</g>
<!-- 28065 -->
<g id="node24" class="node">
<title>28065</title>
<ellipse fill="none" stroke="#000000" cx="303.2273" cy="-337.8864" rx="32.4942" ry="18"/>
<text text-anchor="middle" x="303.2273" y="-334.1864" font-family="Times,serif" font-size="14.00" fill="#000000">28065</text>
</g>
<!-- 5692&#45;&gt;28065 -->
<g id="edge5" class="edge">
<title>5692&#45;&gt;28065</title>
<path fill="none" stroke="#000000" d="M263.7377,-287.8261C269.7449,-295.4414 277.0116,-304.6533 283.6653,-313.0881"/>
<polygon fill="#000000" stroke="#000000" points="281.104,-315.4923 290.0453,-321.1759 286.5999,-311.1569 281.104,-315.4923"/>
</g>
<!-- 52317 -->
<g id="node25" class="node">
<title>52317</title>
<ellipse fill="none" stroke="#000000" cx="208.3947" cy="-358.8558" rx="32.4942" ry="18"/>
<text text-anchor="middle" x="208.3947" y="-355.1558" font-family="Times,serif" font-size="14.00" fill="#000000">52317</text>
</g>
<!-- 5692&#45;&gt;52317 -->
<g id="edge6" class="edge">
<title>5692&#45;&gt;52317</title>
<path fill="none" stroke="#000000" d="M242.3987,-288.6692C236.4017,-301.0473 228.2107,-317.9542 221.3706,-332.0727"/>
<polygon fill="#000000" stroke="#000000" points="218.1048,-330.7861 216.8945,-341.3116 224.4044,-333.8382 218.1048,-330.7861"/>
</g>
<!-- 52375 -->
<g id="node26" class="node">
<title>52375</title>
<ellipse fill="none" stroke="#000000" cx="318.7205" cy="-202.2024" rx="32.4942" ry="18"/>
<text text-anchor="middle" x="318.7205" y="-198.5024" font-family="Times,serif" font-size="14.00" fill="#000000">52375</text>
</g>
<!-- 5692&#45;&gt;52375 -->
<g id="edge7" class="edge">
<title>5692&#45;&gt;52375</title>
<path fill="none" stroke="#000000" d="M265.8511,-256.0338C274.575,-247.1512 285.736,-235.7872 295.5531,-225.7914"/>
<polygon fill="#000000" stroke="#000000" points="298.2257,-228.0651 302.7357,-218.4781 293.2315,-223.1602 298.2257,-228.0651"/>
</g>
<!-- 52376 -->
<g id="node27" class="node">
<title>52376</title>
<ellipse fill="none" stroke="#000000" cx="327.9068" cy="-311.9754" rx="32.4942" ry="18"/>
<text text-anchor="middle" x="327.9068" y="-308.2754" font-family="Times,serif" font-size="14.00" fill="#000000">52376</text>
</g>
<!-- 5692&#45;&gt;52376 -->
<g id="edge8" class="edge">
<title>5692&#45;&gt;52376</title>
<path fill="none" stroke="#000000" d="M273.0818,-283.1279C279.9645,-286.7494 287.6928,-290.8158 295.1273,-294.7277"/>
<polygon fill="#000000" stroke="#000000" points="293.8222,-297.9958 304.3017,-299.555 297.0818,-291.801 293.8222,-297.9958"/>
</g>
<!-- 52380 -->
<g id="node28" class="node">
<title>52380</title>
<ellipse fill="none" stroke="#000000" cx="195.5826" cy="-301.8826" rx="32.4942" ry="18"/>
<text text-anchor="middle" x="195.5826" y="-298.1826" font-family="Times,serif" font-size="14.00" fill="#000000">52380</text>
</g>
<!-- 5692&#45;&gt;52380 -->
<g id="edge9" class="edge">
<title>5692&#45;&gt;52380</title>
<path fill="none" stroke="#000000" d="M229.2756,-283.2656C228.8519,-283.4997 228.4262,-283.7349 227.9988,-283.9711"/>
<polygon fill="#000000" stroke="#000000" points="225.9974,-281.0781 218.9374,-288.9779 229.3828,-287.205 225.9974,-281.0781"/>
</g>
<!-- 52413 -->
<g id="node29" class="node">
<title>52413</title>
<ellipse fill="none" stroke="#000000" cx="278.6991" cy="-216.5597" rx="32.4942" ry="18"/>
<text text-anchor="middle" x="278.6991" y="-212.8597" font-family="Times,serif" font-size="14.00" fill="#000000">52413</text>
</g>
<!-- 5692&#45;&gt;52413 -->
<g id="edge10" class="edge">
<title>5692&#45;&gt;52413</title>
<path fill="none" stroke="#000000" d="M259.6076,-254.0403C261.3904,-250.5402 263.3027,-246.7859 265.2035,-243.0544"/>
<polygon fill="#000000" stroke="#000000" points="268.4039,-244.4824 269.8241,-233.9832 262.1665,-241.3052 268.4039,-244.4824"/>
</g>
<!-- 52431 -->
<g id="node30" class="node">
<title>52431</title>
<ellipse fill="none" stroke="#000000" cx="344.4964" cy="-230.7642" rx="32.4942" ry="18"/>
<text text-anchor="middle" x="344.4964" y="-227.0642" font-family="Times,serif" font-size="14.00" fill="#000000">52431</text>
</g>
<!-- 5692&#45;&gt;52431 -->
<g id="edge11" class="edge">
<title>5692&#45;&gt;52431</title>
<path fill="none" stroke="#000000" d="M274.4218,-261.1372C285.0135,-256.5464 297.7215,-251.0382 309.39,-245.9807"/>
<polygon fill="#000000" stroke="#000000" points="311.0945,-249.0566 318.8778,-241.8683 308.3106,-242.6339 311.0945,-249.0566"/>
</g>
<!-- 262230 -->
<g id="node31" class="node">
<title>262230</title>
<ellipse fill="none" stroke="#000000" cx="240.2248" cy="-349.2043" rx="37.0935" ry="18"/>
<text text-anchor="middle" x="240.2248" y="-345.5043" font-family="Times,serif" font-size="14.00" fill="#000000">262230</text>
</g>
<!-- 5692&#45;&gt;262230 -->
<g id="edge12" class="edge">
<title>5692&#45;&gt;262230</title>
<path fill="none" stroke="#000000" d="M248.3249,-289.4365C247.0562,-298.7977 245.4775,-310.4461 244.0517,-320.9666"/>
<polygon fill="#000000" stroke="#000000" points="240.5688,-320.605 242.694,-330.9845 247.5054,-321.5452 240.5688,-320.605"/>
</g>
<!-- 264608 -->
<g id="node32" class="node">
<title>264608</title>
<ellipse fill="none" stroke="#000000" cx="306.9624" cy="-261.3059" rx="37.0935" ry="18"/>
<text text-anchor="middle" x="306.9624" y="-257.6059" font-family="Times,serif" font-size="14.00" fill="#000000">264608</text>
</g>
<!-- 5692&#45;&gt;264608 -->
<g id="edge13" class="edge">
<title>5692&#45;&gt;264608</title>
<path fill="none" stroke="#000000" d="M278.5374,-266.4062C278.5927,-266.3963 278.648,-266.3864 278.7033,-266.3765"/>
<polygon fill="#000000" stroke="#000000" points="269.6462,-271.5627 278.8692,-266.3467 268.4065,-264.6727 269.6462,-271.5627"/>
</g>
<!-- 6453 -->
<g id="node15" class="node">
<title>6453</title>
<ellipse fill="none" stroke="#000000" cx="110.1903" cy="-170.402" rx="28.6953" ry="18"/>
<text text-anchor="middle" x="110.1903" y="-166.702" font-family="Times,serif" font-size="14.00" fill="#000000">6453</text>
</g>
<!-- 6461 -->
<g id="node16" class="node">
<title>6461</title>
<ellipse fill="none" stroke="#000000" cx="167.0993" cy="-66.6413" rx="28.6953" ry="18"/>
<text text-anchor="middle" x="167.0993" y="-62.9413" font-family="Times,serif" font-size="14.00" fill="#000000">6461</text>
</g>
<!-- 6762 -->
<g id="node17" class="node">
<title>6762</title>
<ellipse fill="none" stroke="#000000" cx="194.841" cy="-37.1389" rx="28.6953" ry="18"/>
<text text-anchor="middle" x="194.841" y="-33.4389" font-family="Times,serif" font-size="14.00" fill="#000000">6762</text>
</g>
<!-- 7018 -->
<g id="node18" class="node">
<title>7018</title>
<ellipse fill="none" stroke="#000000" cx="41.2082" cy="-164.0502" rx="28.6953" ry="18"/>
<text text-anchor="middle" x="41.2082" y="-160.3502" font-family="Times,serif" font-size="14.00" fill="#000000">7018</text>
</g>
<!-- 12956 -->
<g id="node21" class="node">
<title>12956</title>
<ellipse fill="none" stroke="#000000" cx="125.3393" cy="-110.8688" rx="32.4942" ry="18"/>
<text text-anchor="middle" x="125.3393" y="-107.1688" font-family="Times,serif" font-size="14.00" fill="#000000">12956</text>
</g>
<!-- 10834&#45;&gt;12956 -->
<g id="edge14" class="edge">
<title>10834&#45;&gt;12956</title>
<path fill="none" stroke="#000000" d="M167.429,-187.7028C159.7033,-173.5996 148.654,-153.4294 139.8149,-137.2938"/>
<polygon fill="#000000" stroke="#000000" points="142.7818,-135.4247 134.9078,-128.3359 136.6426,-138.7878 142.7818,-135.4247"/>
</g>
<!-- 22927 -->
<g id="node22" class="node">
<title>22927</title>
<ellipse fill="none" stroke="#000000" cx="103.2331" cy="-269.9658" rx="32.4942" ry="18"/>
<text text-anchor="middle" x="103.2331" y="-266.2658" font-family="Times,serif" font-size="14.00" fill="#000000">22927</text>
</g>
<!-- 10834&#45;&gt;22927 -->
<g id="edge15" class="edge">
<title>10834&#45;&gt;22927</title>
<path fill="none" stroke="#000000" d="M159.4289,-220.366C150.0733,-228.6235 138.3858,-238.9392 128.0961,-248.0211"/>
<polygon fill="#000000" stroke="#000000" points="125.7431,-245.4296 120.5618,-254.6711 130.3753,-250.6778 125.7431,-245.4296"/>
</g>
<!-- 12956&#45;&gt;174 -->
<g id="edge16" class="edge">
<title>12956&#45;&gt;174</title>
<path fill="none" stroke="#000000" d="M95.3447,-103.8121C88.8783,-102.2908 81.9809,-100.6681 75.32,-99.101"/>
<polygon fill="#000000" stroke="#000000" points="75.6792,-95.59 65.1434,-96.7068 74.0761,-102.404 75.6792,-95.59"/>
</g>
<!-- 12956&#45;&gt;209 -->
<g id="edge17" class="edge">
<title>12956&#45;&gt;209</title>
<path fill="none" stroke="#000000" d="M157.9315,-108.2769C160.5587,-108.068 163.2256,-107.8559 165.8827,-107.6446"/>
<polygon fill="#000000" stroke="#000000" points="166.2861,-111.1237 175.9772,-106.8419 165.7312,-104.1457 166.2861,-111.1237"/>
</g>
<!-- 12956&#45;&gt;701 -->
<g id="edge18" class="edge">
<title>12956&#45;&gt;701</title>
<path fill="none" stroke="#000000" d="M120.407,-93.0526C116.7265,-79.7581 111.6287,-61.344 107.4193,-46.1389"/>
<polygon fill="#000000" stroke="#000000" points="110.7167,-44.931 104.6754,-36.2274 103.9704,-46.7987 110.7167,-44.931"/>
</g>
<!-- 12956&#45;&gt;1239 -->
<g id="edge19" class="edge">
<title>12956&#45;&gt;1239</title>
<path fill="none" stroke="#000000" d="M112.8253,-127.743C106.3149,-136.5218 98.2295,-147.4244 91.0141,-157.1538"/>
<polygon fill="#000000" stroke="#000000" points="88.1043,-155.2018 84.9588,-165.319 93.7269,-159.3716 88.1043,-155.2018"/>
</g>
<!-- 12956&#45;&gt;1273 -->
<g id="edge20" class="edge">
<title>12956&#45;&gt;1273</title>
<path fill="none" stroke="#000000" d="M148.9719,-123.2664C149.0607,-123.3129 149.1495,-123.3595 149.2382,-123.4061"/>
<polygon fill="#000000" stroke="#000000" points="139.022,-121.9979 149.5044,-123.5457 142.2751,-115.7988 139.022,-121.9979"/>
</g>
<!-- 12956&#45;&gt;1299 -->
<g id="edge21" class="edge">
<title>12956&#45;&gt;1299</title>
<path fill="none" stroke="#000000" d="M98.0943,-120.7557C98.0026,-120.7889 97.9109,-120.8222 97.8192,-120.8555"/>
<polygon fill="#000000" stroke="#000000" points="101.9054,-115.6491 93.6992,-122.3506 104.2934,-122.2293 101.9054,-115.6491"/>
</g>
<!-- 12956&#45;&gt;2914 -->
<g id="edge22" class="edge">
<title>12956&#45;&gt;2914</title>
<path fill="none" stroke="#000000" d="M105.1019,-96.5125C96.4718,-90.3904 86.2725,-83.1551 76.9995,-76.5768"/>
<polygon fill="#000000" stroke="#000000" points="78.9966,-73.7024 68.8153,-70.7711 74.9464,-79.4117 78.9966,-73.7024"/>
</g>
<!-- 12956&#45;&gt;3257 -->
<g id="edge23" class="edge">
<title>12956&#45;&gt;3257</title>
<path fill="none" stroke="#000000" d="M150.5018,-99.3398C160.0431,-94.9682 171.0512,-89.9245 181.1931,-85.2777"/>
<polygon fill="#000000" stroke="#000000" points="182.9418,-88.3264 190.5751,-80.979 180.026,-81.9626 182.9418,-88.3264"/>
</g>
<!-- 12956&#45;&gt;3320 -->
<g id="edge24" class="edge">
<title>12956&#45;&gt;3320</title>
<path fill="none" stroke="#000000" d="M112.4765,-94.2425C108.478,-89.0741 103.9845,-83.2659 99.668,-77.6865"/>
<polygon fill="#000000" stroke="#000000" points="102.4362,-75.5446 93.5488,-69.7769 96.8996,-79.8279 102.4362,-75.5446"/>
</g>
<!-- 12956&#45;&gt;3356 -->
<g id="edge25" class="edge">
<title>12956&#45;&gt;3356</title>
<path fill="none" stroke="#000000" d="M131.6857,-92.9628C136.4669,-79.4728 143.1071,-60.7379 148.5529,-45.3727"/>
<polygon fill="#000000" stroke="#000000" points="151.8859,-46.4458 151.9277,-35.8511 145.288,-44.1073 151.8859,-46.4458"/>
</g>
<!-- 12956&#45;&gt;3491 -->
<g id="edge26" class="edge">
<title>12956&#45;&gt;3491</title>
<path fill="none" stroke="#000000" d="M125.5045,-92.5261C125.5756,-84.6323 125.6603,-75.2228 125.7391,-66.4696"/>
<polygon fill="#000000" stroke="#000000" points="129.2408,-66.2952 125.8311,-56.264 122.241,-66.2321 129.2408,-66.2952"/>
</g>
<!-- 12956&#45;&gt;3549 -->
<g id="edge27" class="edge">
<title>12956&#45;&gt;3549</title>
<path fill="none" stroke="#000000" d="M93.93,-115.5225C85.1913,-116.8172 75.6069,-118.2373 66.5364,-119.5812"/>
<polygon fill="#000000" stroke="#000000" points="65.9653,-116.1275 56.5863,-121.0554 66.9913,-123.0519 65.9653,-116.1275"/>
</g>
<!-- 12956&#45;&gt;6453 -->
<g id="edge28" class="edge">
<title>12956&#45;&gt;6453</title>
<path fill="none" stroke="#000000" d="M120.7941,-128.7307C119.6856,-133.0869 118.4735,-137.8503 117.2777,-142.5498"/>
<polygon fill="#000000" stroke="#000000" points="113.8065,-141.9984 114.7323,-152.5527 120.5903,-143.7247 113.8065,-141.9984"/>
</g>
<!-- 12956&#45;&gt;6461 -->
<g id="edge29" class="edge">
<title>12956&#45;&gt;6461</title>
<path fill="none" stroke="#000000" d="M140.4156,-94.9017C142.0101,-93.213 143.6537,-91.4723 145.3049,-89.7236"/>
<polygon fill="#000000" stroke="#000000" points="148.1438,-91.8149 152.4644,-82.141 143.0541,-87.0092 148.1438,-91.8149"/>
</g>
<!-- 12956&#45;&gt;6762 -->
<g id="edge30" class="edge">
<title>12956&#45;&gt;6762</title>
<path fill="none" stroke="#000000" d="M140.4201,-94.8705C149.957,-84.7535 162.4408,-71.5102 173.0459,-60.26"/>
<polygon fill="#000000" stroke="#000000" points="175.7158,-62.5301 180.0284,-52.8527 170.6222,-57.7286 175.7158,-62.5301"/>
</g>
<!-- 12956&#45;&gt;7018 -->
<g id="edge31" class="edge">
<title>12956&#45;&gt;7018</title>
<path fill="none" stroke="#000000" d="M103.6734,-124.5643C93.4546,-131.0239 81.1166,-138.8231 70.1141,-145.778"/>
<polygon fill="#000000" stroke="#000000" points="68.2254,-142.8312 61.6428,-151.133 71.9657,-148.7482 68.2254,-142.8312"/>
</g>
</g>
</svg>
