<?xml version="1.0" encoding="UTF-8" standalone="no"?>
<!DOCTYPE svg PUBLIC "-//W3C//DTD SVG 1.1//EN"
 "http://www.w3.org/Graphics/SVG/1.1/DTD/svg11.dtd">
<!-- Generated by graphviz version 2.40.1 (20161225.0304)
 -->
<!-- Title: %3 Pages: 1 -->
<svg width="1595pt" height="260pt"
 viewBox="0.00 0.00 1595.05 260.00" xmlns="http://www.w3.org/2000/svg" xmlns:xlink="http://www.w3.org/1999/xlink">
<g id="graph0" class="graph" transform="scale(1 1) rotate(0) translate(4 256)">
<title>%3</title>
<polygon fill="#ffffff" stroke="transparent" points="-4,4 -4,-256 1591.0467,-256 1591.0467,4 -4,4"/>
<!-- 174 -->
<g id="node1" class="node">
<title>174</title>
<ellipse fill="none" stroke="#000000" cx="27" cy="-18" rx="27" ry="18"/>
<text text-anchor="middle" x="27" y="-14.3" font-family="Times,serif" font-size="14.00" fill="#000000">174</text>
</g>
<!-- 209 -->
<g id="node2" class="node">
<title>209</title>
<ellipse fill="none" stroke="#000000" cx="99" cy="-18" rx="27" ry="18"/>
<text text-anchor="middle" x="99" y="-14.3" font-family="Times,serif" font-size="14.00" fill="#000000">209</text>
</g>
<!-- 701 -->
<g id="node3" class="node">
<title>701</title>
<ellipse fill="none" stroke="#000000" cx="171" cy="-18" rx="27" ry="18"/>
<text text-anchor="middle" x="171" y="-14.3" font-family="Times,serif" font-size="14.00" fill="#000000">701</text>
</g>
<!-- 1239 -->
<g id="node4" class="node">
<title>1239</title>
<ellipse fill="none" stroke="#000000" cx="245" cy="-18" rx="28.6953" ry="18"/>
<text text-anchor="middle" x="245" y="-14.3" font-family="Times,serif" font-size="14.00" fill="#000000">1239</text>
</g>
<!-- 1273 -->
<g id="node5" class="node">
<title>1273</title>
<ellipse fill="none" stroke="#000000" cx="320" cy="-18" rx="28.6953" ry="18"/>
<text text-anchor="middle" x="320" y="-14.3" font-family="Times,serif" font-size="14.00" fill="#000000">1273</text>
</g>
<!-- 1299 -->
<g id="node6" class="node">
<title>1299</title>
<ellipse fill="none" stroke="#000000" cx="395" cy="-18" rx="28.6953" ry="18"/>
<text text-anchor="middle" x="395" y="-14.3" font-family="Times,serif" font-size="14.00" fill="#000000">1299</text>
</g>
<!-- 2914 -->
<g id="node7" class="node">
<title>2914</title>
<ellipse fill="none" stroke="#000000" cx="470" cy="-18" rx="28.6953" ry="18"/>
<text text-anchor="middle" x="470" y="-14.3" font-family="Times,serif" font-size="14.00" fill="#000000">2914</text>
</g>
<!-- 3257 -->
<g id="node8" class="node">
<title>3257</title>
<ellipse fill="none" stroke="#000000" cx="545" cy="-18" rx="28.6953" ry="18"/>
<text text-anchor="middle" x="545" y="-14.3" font-family="Times,serif" font-size="14.00" fill="#000000">3257</text>
</g>
<!-- 3320 -->
<g id="node9" class="node">
<title>3320</title>
<ellipse fill="none" stroke="#000000" cx="620" cy="-18" rx="28.6953" ry="18"/>
<text text-anchor="middle" x="620" y="-14.3" font-family="Times,serif" font-size="14.00" fill="#000000">3320</text>
</g>
<!-- 3356 -->
<g id="node10" class="node">
<title>3356</title>
<ellipse fill="none" stroke="#000000" cx="695" cy="-18" rx="28.6953" ry="18"/>
<text text-anchor="middle" x="695" y="-14.3" font-family="Times,serif" font-size="14.00" fill="#000000">3356</text>
</g>
<!-- 3491 -->
<g id="node11" class="node">
<title>3491</title>
<ellipse fill="none" stroke="#000000" cx="770" cy="-18" rx="28.6953" ry="18"/>
<text text-anchor="middle" x="770" y="-14.3" font-family="Times,serif" font-size="14.00" fill="#000000">3491</text>
</g>
<!-- 3549 -->
<g id="node12" class="node">
<title>3549</title>
<ellipse fill="none" stroke="#000000" cx="845" cy="-18" rx="28.6953" ry="18"/>
<text text-anchor="middle" x="845" y="-14.3" font-family="Times,serif" font-size="14.00" fill="#000000">3549</text>
</g>
<!-- 3597 -->
<g id="node13" class="node">
<title>3597</title>
<ellipse fill="none" stroke="#000000" cx="544" cy="-162" rx="28.6953" ry="18"/>
<text text-anchor="middle" x="544" y="-158.3" font-family="Times,serif" font-size="14.00" fill="#000000">3597</text>
</g>
<!-- 5692 -->
<g id="node14" class="node">
<title>5692</title>
<ellipse fill="none" stroke="#000000" cx="1038" cy="-234" rx="28.6953" ry="18"/>
<text text-anchor="middle" x="1038" y="-230.3" font-family="Times,serif" font-size="14.00" fill="#000000">5692</text>
</g>
<!-- 5692&#45;&gt;3597 -->
<g id="edge1" class="edge">
<title>5692&#45;&gt;3597</title>
<path fill="none" stroke="#000000" d="M1009.4155,-231.8332C922.6364,-225.0637 663.2092,-203.3629 582,-180 579.834,-179.3769 577.6377,-178.6422 575.45,-177.832"/>
<polygon fill="#000000" stroke="#000000" points="576.6104,-174.5239 566.0335,-173.9077 573.9176,-180.9852 576.6104,-174.5239"/>
</g>
<!-- 10834 -->
<g id="node19" class="node">
<title>10834</title>
<ellipse fill="none" stroke="#000000" cx="623" cy="-162" rx="32.4942" ry="18"/>
<text text-anchor="middle" x="623" y="-158.3" font-family="Times,serif" font-size="14.00" fill="#000000">10834</text>
</g>
<!-- 5692&#45;&gt;10834 -->
<g id="edge2" class="edge">
<title>5692&#45;&gt;10834</title>
<path fill="none" stroke="#000000" d="M1009.4009,-232.4071C946.206,-228.3384 790.3407,-215.2744 665,-180 662.5277,-179.3042 660.009,-178.4966 657.4952,-177.6164"/>
<polygon fill="#000000" stroke="#000000" points="658.5223,-174.2617 647.9321,-173.946 656.0139,-180.7969 658.5223,-174.2617"/>
</g>
<!-- 11008 -->
<g id="node20" class="node">
<title>11008</title>
<ellipse fill="none" stroke="#000000" cx="706" cy="-162" rx="32.4942" ry="18"/>
<text text-anchor="middle" x="706" y="-158.3" font-family="Times,serif" font-size="14.00" fill="#000000">11008</text>
</g>
<!-- 5692&#45;&gt;11008 -->
<g id="edge3" class="edge">
<title>5692&#45;&gt;11008</title>
<path fill="none" stroke="#000000" d="M1009.5102,-230.8151C956.964,-224.4771 841.605,-208.3918 748,-180 745.5422,-179.2545 743.0344,-178.4097 740.5284,-177.5026"/>
<polygon fill="#000000" stroke="#000000" points="741.5706,-174.1522 730.9825,-173.7737 739.0236,-180.6724 741.5706,-174.1522"/>
</g>
<!-- 27865 -->
<g id="node23" class="node">
<title>27865</title>
<ellipse fill="none" stroke="#000000" cx="789" cy="-162" rx="32.4942" ry="18"/>
<text text-anchor="middle" x="789" y="-158.3" font-family="Times,serif" font-size="14.00" fill="#000000">27865</text>
</g>
<!-- 5692&#45;&gt;27865 -->
<g id="edge4" class="edge">
<title>5692&#45;&gt;27865</title>
<path fill="none" stroke="#000000" d="M1010.8227,-228.2764C970.889,-219.5606 894.2444,-201.6654 831,-180 828.5703,-179.1677 826.0834,-178.258 823.5926,-177.3038"/>
<polygon fill="#000000" stroke="#000000" points="824.6632,-173.9618 814.0797,-173.4727 822.0482,-180.455 824.6632,-173.9618"/>
</g>
<!-- 28065 -->
<g id="node24" class="node">
<title>28065</title>
<ellipse fill="none" stroke="#000000" cx="872" cy="-162" rx="32.4942" ry="18"/>
<text text-anchor="middle" x="872" y="-158.3" font-family="Times,serif" font-size="14.00" fill="#000000">28065</text>
</g>
<!-- 5692&#45;&gt;28065 -->
<g id="edge5" class="edge">
<title>5692&#45;&gt;28065</title>
<path fill="none" stroke="#000000" d="M1014.2162,-223.6842C986.1868,-211.5268 939.3574,-191.2153 907.141,-177.2419"/>
<polygon fill="#000000" stroke="#000000" points="908.2158,-173.8931 897.6489,-173.1248 905.4304,-180.315 908.2158,-173.8931"/>
</g>
<!-- 52317 -->
<g id="node25" class="node">
<title>52317</title>
<ellipse fill="none" stroke="#000000" cx="955" cy="-162" rx="32.4942" ry="18"/>
<text text-anchor="middle" x="955" y="-158.3" font-family="Times,serif" font-size="14.00" fill="#000000">52317</text>
</g>
<!-- 5692&#45;&gt;52317 -->
<g id="edge6" class="edge">
<title>5692&#45;&gt;52317</title>
<path fill="none" stroke="#000000" d="M1021.2037,-219.4297C1009.514,-209.2892 993.7126,-195.5821 980.479,-184.1023"/>
<polygon fill="#000000" stroke="#000000" points="982.4781,-181.2031 972.6307,-177.2941 977.8912,-186.4908 982.4781,-181.2031"/>
</g>
<!-- 52375 -->
<g id="node26" class="node">
<title>52375</title>
<ellipse fill="none" stroke="#000000" cx="1038" cy="-162" rx="32.4942" ry="18"/>
<text text-anchor="middle" x="1038" y="-158.3" font-family="Times,serif" font-size="14.00" fill="#000000">52375</text>
</g>
<!-- 5692&#45;&gt;52375 -->
<g id="edge7" class="edge">
<title>5692&#45;&gt;52375</title>
<path fill="none" stroke="#000000" d="M1038,-215.8314C1038,-208.131 1038,-198.9743 1038,-190.4166"/>
<polygon fill="#000000" stroke="#000000" points="1041.5001,-190.4132 1038,-180.4133 1034.5001,-190.4133 1041.5001,-190.4132"/>
</g>
<!-- 52376 -->
<g id="node27" class="node">
<title>52376</title>
<ellipse fill="none" stroke="#000000" cx="1121" cy="-162" rx="32.4942" ry="18"/>
<text text-anchor="middle" x="1121" y="-158.3" font-family="Times,serif" font-size="14.00" fill="#000000">52376</text>
</g>
<!-- 5692&#45;&gt;52376 -->
<g id="edge8" class="edge">
<title>5692&#45;&gt;52376</title>
<path fill="none" stroke="#000000" d="M1054.7963,-219.4297C1066.486,-209.2892 1082.2874,-195.5821 1095.521,-184.1023"/>
<polygon fill="#000000" stroke="#000000" points="1098.1088,-186.4908 1103.3693,-177.2941 1093.5219,-181.2031 1098.1088,-186.4908"/>
</g>
<!-- 52380 -->
<g id="node28" class="node">
<title>52380</title>
<ellipse fill="none" stroke="#000000" cx="1204" cy="-162" rx="32.4942" ry="18"/>
<text text-anchor="middle" x="1204" y="-158.3" font-family="Times,serif" font-size="14.00" fill="#000000">52380</text>
</g>
<!-- 5692&#45;&gt;52380 -->
<g id="edge9" class="edge">
<title>5692&#45;&gt;52380</title>
<path fill="none" stroke="#000000" d="M1061.7838,-223.6842C1089.8132,-211.5268 1136.6426,-191.2153 1168.859,-177.2419"/>
<polygon fill="#000000" stroke="#000000" points="1170.5696,-180.315 1178.3511,-173.1248 1167.7842,-173.8931 1170.5696,-180.315"/>
</g>
<!-- 52413 -->
<g id="node29" class="node">
<title>52413</title>
<ellipse fill="none" stroke="#000000" cx="1287" cy="-162" rx="32.4942" ry="18"/>
<text text-anchor="middle" x="1287" y="-158.3" font-family="Times,serif" font-size="14.00" fill="#000000">52413</text>
</g>
<!-- 5692&#45;&gt;52413 -->
<g id="edge10" class="edge">
<title>5692&#45;&gt;52413</title>
<path fill="none" stroke="#000000" d="M1065.1773,-228.2764C1105.111,-219.5606 1181.7556,-201.6654 1245,-180 1247.4297,-179.1677 1249.9166,-178.258 1252.4074,-177.3038"/>
<polygon fill="#000000" stroke="#000000" points="1253.9518,-180.455 1261.9203,-173.4727 1251.3368,-173.9618 1253.9518,-180.455"/>
</g>
<!-- 52431 -->
<g id="node30" class="node">
<title>52431</title>
<ellipse fill="none" stroke="#000000" cx="1370" cy="-162" rx="32.4942" ry="18"/>
<text text-anchor="middle" x="1370" y="-158.3" font-family="Times,serif" font-size="14.00" fill="#000000">52431</text>
</g>
<!-- 5692&#45;&gt;52431 -->
<g id="edge11" class="edge">
<title>5692&#45;&gt;52431</title>
<path fill="none" stroke="#000000" d="M1066.4898,-230.8151C1119.036,-224.4771 1234.395,-208.3918 1328,-180 1330.4578,-179.2545 1332.9656,-178.4097 1335.4716,-177.5026"/>
<polygon fill="#000000" stroke="#000000" points="1336.9764,-180.6724 1345.0175,-173.7737 1334.4294,-174.1522 1336.9764,-180.6724"/>
</g>
<!-- 262230 -->
<g id="node31" class="node">
<title>262230</title>
<ellipse fill="none" stroke="#000000" cx="1458" cy="-162" rx="37.0935" ry="18"/>
<text text-anchor="middle" x="1458" y="-158.3" font-family="Times,serif" font-size="14.00" fill="#000000">262230</text>
</g>
<!-- 5692&#45;&gt;262230 -->
<g id="edge12" class="edge">
<title>5692&#45;&gt;262230</title>
<path fill="none" stroke="#000000" d="M1066.5,-232.0413C1129.4973,-227.243 1284.9929,-212.8146 1411,-180 1414.1286,-179.1853 1417.3346,-178.23 1420.5303,-177.1919"/>
<polygon fill="#000000" stroke="#000000" points="1421.7111,-180.4869 1429.9989,-173.8866 1419.404,-173.878 1421.7111,-180.4869"/>
</g>
<!-- 264608 -->
<g id="node32" class="node">
<title>264608</title>
<ellipse fill="none" stroke="#000000" cx="1550" cy="-162" rx="37.0935" ry="18"/>
<text text-anchor="middle" x="1550" y="-158.3" font-family="Times,serif" font-size="14.00" fill="#000000">264608</text>
</g>
<!-- 5692&#45;&gt;264608 -->
<g id="edge13" class="edge">
<title>5692&#45;&gt;264608</title>
<path fill="none" stroke="#000000" d="M1066.8256,-233.2303C1140.6272,-230.71 1341.9921,-220.3639 1504,-180 1506.8085,-179.3003 1509.6759,-178.4722 1512.538,-177.5618"/>
<polygon fill="#000000" stroke="#000000" points="1513.8601,-180.8076 1522.1547,-174.216 1511.5599,-174.1963 1513.8601,-180.8076"/>
</g>
<!-- 6453 -->
<g id="node15" class="node">
<title>6453</title>
<ellipse fill="none" stroke="#000000" cx="920" cy="-18" rx="28.6953" ry="18"/>
<text text-anchor="middle" x="920" y="-14.3" font-family="Times,serif" font-size="14.00" fill="#000000">6453</text>
</g>
<!-- 6461 -->
<g id="node16" class="node">
<title>6461</title>
<ellipse fill="none" stroke="#000000" cx="995" cy="-18" rx="28.6953" ry="18"/>
<text text-anchor="middle" x="995" y="-14.3" font-family="Times,serif" font-size="14.00" fill="#000000">6461</text>
</g>
<!-- 6762 -->
<g id="node17" class="node">
<title>6762</title>
<ellipse fill="none" stroke="#000000" cx="1070" cy="-18" rx="28.6953" ry="18"/>
<text text-anchor="middle" x="1070" y="-14.3" font-family="Times,serif" font-size="14.00" fill="#000000">6762</text>
</g>
<!-- 7018 -->
<g id="node18" class="node">
<title>7018</title>
<ellipse fill="none" stroke="#000000" cx="1145" cy="-18" rx="28.6953" ry="18"/>
<text text-anchor="middle" x="1145" y="-14.3" font-family="Times,serif" font-size="14.00" fill="#000000">7018</text>
</g>
<!-- 12956 -->
<g id="node21" class="node">
<title>12956</title>
<ellipse fill="none" stroke="#000000" cx="582" cy="-90" rx="32.4942" ry="18"/>
<text text-anchor="middle" x="582" y="-86.3" font-family="Times,serif" font-size="14.00" fill="#000000">12956</text>
</g>
<!-- 10834&#45;&gt;12956 -->
<g id="edge14" class="edge">
<title>10834&#45;&gt;12956</title>
<path fill="none" stroke="#000000" d="M613.075,-144.5708C608.19,-135.9922 602.2017,-125.4762 596.7903,-115.9732"/>
<polygon fill="#000000" stroke="#000000" points="599.8234,-114.2266 591.8336,-107.2687 593.7405,-117.6905 599.8234,-114.2266"/>
</g>
<!-- 22927 -->
<g id="node22" class="node">
<title>22927</title>
<ellipse fill="none" stroke="#000000" cx="665" cy="-90" rx="32.4942" ry="18"/>
<text text-anchor="middle" x="665" y="-86.3" font-family="Times,serif" font-size="14.00" fill="#000000">22927</text>
</g>
<!-- 10834&#45;&gt;22927 -->
<g id="edge15" class="edge">
<title>10834&#45;&gt;22927</title>
<path fill="none" stroke="#000000" d="M633.167,-144.5708C638.1712,-135.9922 644.3055,-125.4762 649.849,-115.9732"/>
<polygon fill="#000000" stroke="#000000" points="652.9111,-117.6701 654.9266,-107.2687 646.8646,-114.1429 652.9111,-117.6701"/>
</g>
<!-- 12956&#45;&gt;174 -->
<g id="edge16" class="edge">
<title>12956&#45;&gt;174</title>
<path fill="none" stroke="#000000" d="M549.445,-88.1445C450.6154,-82.271 155.1886,-62.875 63,-36 60.8743,-35.3803 58.7232,-34.6382 56.5856,-33.8136"/>
<polygon fill="#000000" stroke="#000000" points="57.9848,-30.6054 47.4212,-29.7928 55.1724,-37.0156 57.9848,-30.6054"/>
</g>
<!-- 12956&#45;&gt;209 -->
<g id="edge17" class="edge">
<title>12956&#45;&gt;209</title>
<path fill="none" stroke="#000000" d="M549.6038,-87.535C460.4714,-80.5235 213.0426,-59.4535 135,-36 133.0928,-35.4268 131.164,-34.7582 129.2422,-34.0224"/>
<polygon fill="#000000" stroke="#000000" points="130.3876,-30.7037 119.8221,-29.9157 127.5901,-37.1205 130.3876,-30.7037"/>
</g>
<!-- 12956&#45;&gt;701 -->
<g id="edge18" class="edge">
<title>12956&#45;&gt;701</title>
<path fill="none" stroke="#000000" d="M549.3759,-88.8013C483.309,-85.6187 329.5639,-74.3614 207,-36 205.0994,-35.4051 203.1758,-34.7196 201.2579,-33.971"/>
<polygon fill="#000000" stroke="#000000" points="202.4111,-30.6546 191.8484,-29.8299 199.5914,-37.0616 202.4111,-30.6546"/>
</g>
<!-- 12956&#45;&gt;1239 -->
<g id="edge19" class="edge">
<title>12956&#45;&gt;1239</title>
<path fill="none" stroke="#000000" d="M549.7641,-87.1271C494.0384,-81.5196 376.5816,-66.8649 282,-36 280.1155,-35.385 278.2048,-34.6919 276.2957,-33.9447"/>
<polygon fill="#000000" stroke="#000000" points="277.4599,-30.6348 266.8926,-29.8708 274.677,-37.0579 277.4599,-30.6348"/>
</g>
<!-- 12956&#45;&gt;1273 -->
<g id="edge20" class="edge">
<title>12956&#45;&gt;1273</title>
<path fill="none" stroke="#000000" d="M550.812,-84.735C506.7969,-76.8089 424.3125,-60.1266 357,-36 355.1339,-35.3312 353.2377,-34.5958 351.3397,-33.8162"/>
<polygon fill="#000000" stroke="#000000" points="352.527,-30.5139 341.9672,-29.653 349.6853,-36.9112 352.527,-30.5139"/>
</g>
<!-- 12956&#45;&gt;1299 -->
<g id="edge21" class="edge">
<title>12956&#45;&gt;1299</title>
<path fill="none" stroke="#000000" d="M553.7323,-80.8331C523.3168,-70.7365 473.6956,-53.5877 432,-36 430.371,-35.3129 428.7111,-34.5904 427.0416,-33.8457"/>
<polygon fill="#000000" stroke="#000000" points="428.0661,-30.4629 417.5216,-29.4315 425.1215,-36.8134 428.0661,-30.4629"/>
</g>
<!-- 12956&#45;&gt;2914 -->
<g id="edge22" class="edge">
<title>12956&#45;&gt;2914</title>
<path fill="none" stroke="#000000" d="M560.67,-76.2879C543.0576,-64.9656 517.9019,-48.7941 498.5535,-36.3558"/>
<polygon fill="#000000" stroke="#000000" points="500.4248,-33.398 490.1203,-30.9345 496.6395,-39.2863 500.4248,-33.398"/>
</g>
<!-- 12956&#45;&gt;3257 -->
<g id="edge23" class="edge">
<title>12956&#45;&gt;3257</title>
<path fill="none" stroke="#000000" d="M573.0433,-72.5708C568.6803,-64.0807 563.3422,-53.6929 558.4985,-44.2674"/>
<polygon fill="#000000" stroke="#000000" points="561.5579,-42.5633 553.8742,-35.2687 555.3319,-45.7628 561.5579,-42.5633"/>
</g>
<!-- 12956&#45;&gt;3320 -->
<g id="edge24" class="edge">
<title>12956&#45;&gt;3320</title>
<path fill="none" stroke="#000000" d="M591.1987,-72.5708C595.6797,-64.0807 601.1621,-53.6929 606.1366,-44.2674"/>
<polygon fill="#000000" stroke="#000000" points="609.3137,-45.7462 610.886,-35.2687 603.123,-42.4789 609.3137,-45.7462"/>
</g>
<!-- 12956&#45;&gt;3356 -->
<g id="edge25" class="edge">
<title>12956&#45;&gt;3356</title>
<path fill="none" stroke="#000000" d="M603.5204,-76.2879C621.2901,-64.9656 646.6704,-48.7941 666.1915,-36.3558"/>
<polygon fill="#000000" stroke="#000000" points="668.1472,-39.2599 674.7,-30.9345 664.3857,-33.3564 668.1472,-39.2599"/>
</g>
<!-- 12956&#45;&gt;3491 -->
<g id="edge26" class="edge">
<title>12956&#45;&gt;3491</title>
<path fill="none" stroke="#000000" d="M607.6233,-78.6051C612.999,-76.3312 618.6582,-74.0225 624,-72 671.7128,-53.9348 685.7334,-55.2023 733,-36 734.638,-35.3346 736.3051,-34.6295 737.9804,-33.8988"/>
<polygon fill="#000000" stroke="#000000" points="739.8851,-36.8761 747.5189,-29.5293 736.9697,-30.5121 739.8851,-36.8761"/>
</g>
<!-- 12956&#45;&gt;3549 -->
<g id="edge27" class="edge">
<title>12956&#45;&gt;3549</title>
<path fill="none" stroke="#000000" d="M606.9943,-78.265C612.514,-75.9632 618.3901,-73.7295 624,-72 703.6299,-47.4503 728.9807,-62.4491 808,-36 809.8798,-35.3708 811.7868,-34.6665 813.6931,-33.9108"/>
<polygon fill="#000000" stroke="#000000" points="815.3213,-37.0191 823.0884,-29.8133 812.523,-30.6028 815.3213,-37.0191"/>
</g>
<!-- 12956&#45;&gt;6453 -->
<g id="edge28" class="edge">
<title>12956&#45;&gt;6453</title>
<path fill="none" stroke="#000000" d="M606.9253,-78.0297C612.4493,-75.7425 618.3445,-73.5743 624,-72 735.9606,-40.8329 771.8176,-69.8386 883,-36 884.8964,-35.4228 886.8164,-34.7593 888.7327,-34.0349"/>
<polygon fill="#000000" stroke="#000000" points="890.3254,-37.1608 898.1556,-30.0236 887.5836,-30.7201 890.3254,-37.1608"/>
</g>
<!-- 12956&#45;&gt;6461 -->
<g id="edge29" class="edge">
<title>12956&#45;&gt;6461</title>
<path fill="none" stroke="#000000" d="M606.4424,-78.0827C612.0964,-75.7344 618.1675,-73.5274 624,-72 768.4335,-34.1753 814.5134,-77.2717 958,-36 959.9565,-35.4372 961.936,-34.7767 963.9091,-34.0471"/>
<polygon fill="#000000" stroke="#000000" points="965.737,-37.0743 973.585,-29.9569 963.0114,-30.6267 965.737,-37.0743"/>
</g>
<!-- 12956&#45;&gt;6762 -->
<g id="edge30" class="edge">
<title>12956&#45;&gt;6762</title>
<path fill="none" stroke="#000000" d="M606.4207,-77.998C612.0758,-75.654 618.1529,-73.4703 624,-72 800.9716,-27.5005 857.1445,-84.7236 1033,-36 1034.962,-35.4564 1036.9457,-34.8108 1038.9219,-34.0925"/>
<polygon fill="#000000" stroke="#000000" points="1040.7372,-37.1267 1048.6065,-30.0327 1038.0309,-30.671 1040.7372,-37.1267"/>
</g>
<!-- 12956&#45;&gt;7018 -->
<g id="edge31" class="edge">
<title>12956&#45;&gt;7018</title>
<path fill="none" stroke="#000000" d="M606.4061,-77.9392C612.062,-75.5982 618.143,-73.4306 624,-72 833.5449,-20.8169 899.7405,-92.1852 1108,-36 1109.9656,-35.4697 1111.9521,-34.8344 1113.9305,-34.124"/>
<polygon fill="#000000" stroke="#000000" points="1115.7369,-37.1631 1123.6208,-30.0853 1113.044,-30.7018 1115.7369,-37.1631"/>
</g>
</g>
</svg>
