<?xml version="1.0" encoding="UTF-8" standalone="no"?>
<!DOCTYPE svg PUBLIC "-//W3C//DTD SVG 1.1//EN"
 "http://www.w3.org/Graphics/SVG/1.1/DTD/svg11.dtd">
<!-- Generated by graphviz version 2.40.1 (20161225.0304)
 -->
<!-- Title: %3 Pages: 1 -->
<svg width="2487pt" height="1650pt"
 viewBox="0.00 0.00 2487.07 1650.17" xmlns="http://www.w3.org/2000/svg" xmlns:xlink="http://www.w3.org/1999/xlink">
<g id="graph0" class="graph" transform="scale(1 1) rotate(0) translate(4 1646.1704)">
<title>%3</title>
<polygon fill="#ffffff" stroke="transparent" points="-4,4 -4,-1646.1704 2483.0703,-1646.1704 2483.0703,4 -4,4"/>
<!-- 174 -->
<g id="node1" class="node">
<title>174</title>
<ellipse fill="none" stroke="#000000" cx="27" cy="-819.8188" rx="27" ry="18"/>
<text text-anchor="middle" x="27" y="-816.1188" font-family="Times,serif" font-size="14.00" fill="#000000">174</text>
</g>
<!-- 209 -->
<g id="node2" class="node">
<title>209</title>
<ellipse fill="none" stroke="#000000" cx="955.368" cy="-388.9109" rx="27" ry="18"/>
<text text-anchor="middle" x="955.368" y="-385.2109" font-family="Times,serif" font-size="14.00" fill="#000000">209</text>
</g>
<!-- 701 -->
<g id="node3" class="node">
<title>701</title>
<ellipse fill="none" stroke="#000000" cx="1104.0475" cy="-213.6733" rx="27" ry="18"/>
<text text-anchor="middle" x="1104.0475" y="-209.9733" font-family="Times,serif" font-size="14.00" fill="#000000">701</text>
</g>
<!-- 1239 -->
<g id="node4" class="node">
<title>1239</title>
<ellipse fill="none" stroke="#000000" cx="1297.4188" cy="-86.5881" rx="28.6953" ry="18"/>
<text text-anchor="middle" x="1297.4188" y="-82.8881" font-family="Times,serif" font-size="14.00" fill="#000000">1239</text>
</g>
<!-- 1273 -->
<g id="node5" class="node">
<title>1273</title>
<ellipse fill="none" stroke="#000000" cx="1520.4193" cy="-19.1491" rx="28.6953" ry="18"/>
<text text-anchor="middle" x="1520.4193" y="-15.4491" font-family="Times,serif" font-size="14.00" fill="#000000">1273</text>
</g>
<!-- 1299 -->
<g id="node6" class="node">
<title>1299</title>
<ellipse fill="none" stroke="#000000" cx="1753.3912" cy="-18" rx="28.6953" ry="18"/>
<text text-anchor="middle" x="1753.3912" y="-14.3" font-family="Times,serif" font-size="14.00" fill="#000000">1299</text>
</g>
<!-- 2914 -->
<g id="node7" class="node">
<title>2914</title>
<ellipse fill="none" stroke="#000000" cx="1977.0461" cy="-83.2359" rx="28.6953" ry="18"/>
<text text-anchor="middle" x="1977.0461" y="-79.5359" font-family="Times,serif" font-size="14.00" fill="#000000">2914</text>
</g>
<!-- 3257 -->
<g id="node8" class="node">
<title>3257</title>
<ellipse fill="none" stroke="#000000" cx="2172.8669" cy="-209.4558" rx="28.6953" ry="18"/>
<text text-anchor="middle" x="2172.8669" y="-205.7558" font-family="Times,serif" font-size="14.00" fill="#000000">3257</text>
</g>
<!-- 3320 -->
<g id="node9" class="node">
<title>3320</title>
<ellipse fill="none" stroke="#000000" cx="2324.641" cy="-386.2094" rx="28.6953" ry="18"/>
<text text-anchor="middle" x="2324.641" y="-382.5094" font-family="Times,serif" font-size="14.00" fill="#000000">3320</text>
</g>
<!-- 3356 -->
<g id="node10" class="node">
<title>3356</title>
<ellipse fill="none" stroke="#000000" cx="2419.8026" cy="-598.8629" rx="28.6953" ry="18"/>
<text text-anchor="middle" x="2419.8026" y="-595.1629" font-family="Times,serif" font-size="14.00" fill="#000000">3356</text>
</g>
<!-- 3491 -->
<g id="node11" class="node">
<title>3491</title>
<ellipse fill="none" stroke="#000000" cx="2450.4729" cy="-829.81" rx="28.6953" ry="18"/>
<text text-anchor="middle" x="2450.4729" y="-826.11" font-family="Times,serif" font-size="14.00" fill="#000000">3491</text>
</g>
<!-- 3549 -->
<g id="node12" class="node">
<title>3549</title>
<ellipse fill="none" stroke="#000000" cx="2414.1126" cy="-1059.9299" rx="28.6953" ry="18"/>
<text text-anchor="middle" x="2414.1126" y="-1056.2299" font-family="Times,serif" font-size="14.00" fill="#000000">3549</text>
</g>
<!-- 3597 -->
<g id="node13" class="node">
<title>3597</title>
<ellipse fill="none" stroke="#000000" cx="817.6741" cy="-1159.5321" rx="28.6953" ry="18"/>
<text text-anchor="middle" x="817.6741" y="-1155.8321" font-family="Times,serif" font-size="14.00" fill="#000000">3597</text>
</g>
<!-- 5692 -->
<g id="node14" class="node">
<title>5692</title>
<ellipse fill="none" stroke="#000000" cx="739.9141" cy="-907.9819" rx="28.6953" ry="18"/>
<text text-anchor="middle" x="739.9141" y="-904.2819" font-family="Times,serif" font-size="14.00" fill="#000000">5692</text>
</g>
<!-- 5692&#45;&gt;3597 -->
<g id="edge1" class="edge">
<title>5692&#45;&gt;3597</title>
<path fill="none" stroke="#000000" d="M745.382,-925.6704C758.7392,-968.8803 793.1065,-1080.057 809.1664,-1132.0103"/>
<polygon fill="#000000" stroke="#000000" points="805.9149,-1133.3429 812.2122,-1141.8631 812.6026,-1131.2755 805.9149,-1133.3429"/>
</g>
<!-- 10834 -->
<g id="node19" class="node">
<title>10834</title>
<ellipse fill="none" stroke="#000000" cx="955.368" cy="-1250.7266" rx="32.4942" ry="18"/>
<text text-anchor="middle" x="955.368" y="-1247.0266" font-family="Times,serif" font-size="14.00" fill="#000000">10834</text>
</g>
<!-- 5692&#45;&gt;10834 -->
<g id="edge2" class="edge">
<title>5692&#45;&gt;10834</title>
<path fill="none" stroke="#000000" d="M750.5984,-924.9787C785.632,-980.7101 897.1774,-1158.1568 939.1705,-1224.9596"/>
<polygon fill="#000000" stroke="#000000" points="936.3339,-1227.0237 944.6191,-1233.6272 942.2602,-1223.2983 936.3339,-1227.0237"/>
</g>
<!-- 11008 -->
<g id="node20" class="node">
<title>11008</title>
<ellipse fill="none" stroke="#000000" cx="686.1378" cy="-1165.7264" rx="32.4942" ry="18"/>
<text text-anchor="middle" x="686.1378" y="-1162.0264" font-family="Times,serif" font-size="14.00" fill="#000000">11008</text>
</g>
<!-- 5692&#45;&gt;11008 -->
<g id="edge3" class="edge">
<title>5692&#45;&gt;11008</title>
<path fill="none" stroke="#000000" d="M736.1326,-926.106C726.8952,-970.3799 703.1279,-1084.2943 692.0214,-1137.5269"/>
<polygon fill="#000000" stroke="#000000" points="688.5313,-1137.1183 689.9151,-1147.6224 695.3838,-1138.548 688.5313,-1137.1183"/>
</g>
<!-- 27865 -->
<g id="node23" class="node">
<title>27865</title>
<ellipse fill="none" stroke="#000000" cx="565.1173" cy="-1104.8835" rx="32.4942" ry="18"/>
<text text-anchor="middle" x="565.1173" y="-1101.1835" font-family="Times,serif" font-size="14.00" fill="#000000">27865</text>
</g>
<!-- 5692&#45;&gt;27865 -->
<g id="edge4" class="edge">
<title>5692&#45;&gt;27865</title>
<path fill="none" stroke="#000000" d="M725.9052,-923.7623C695.3734,-958.1551 622.6715,-1040.0509 586.4237,-1080.8827"/>
<polygon fill="#000000" stroke="#000000" points="583.7049,-1078.6732 579.6835,-1088.4752 588.9398,-1083.3204 583.7049,-1078.6732"/>
</g>
<!-- 28065 -->
<g id="node24" class="node">
<title>28065</title>
<ellipse fill="none" stroke="#000000" cx="490.3598" cy="-991.9271" rx="32.4942" ry="18"/>
<text text-anchor="middle" x="490.3598" y="-988.2271" font-family="Times,serif" font-size="14.00" fill="#000000">28065</text>
</g>
<!-- 5692&#45;&gt;28065 -->
<g id="edge5" class="edge">
<title>5692&#45;&gt;28065</title>
<path fill="none" stroke="#000000" d="M714.6121,-916.493C670.5839,-931.3032 579.6656,-961.8863 528.1415,-979.218"/>
<polygon fill="#000000" stroke="#000000" points="526.7498,-975.9934 518.3876,-982.4991 528.9816,-982.6281 526.7498,-975.9934"/>
</g>
<!-- 52317 -->
<g id="node25" class="node">
<title>52317</title>
<ellipse fill="none" stroke="#000000" cx="481.6511" cy="-856.7532" rx="32.4942" ry="18"/>
<text text-anchor="middle" x="481.6511" y="-853.0532" font-family="Times,serif" font-size="14.00" fill="#000000">52317</text>
</g>
<!-- 5692&#45;&gt;52317 -->
<g id="edge6" class="edge">
<title>5692&#45;&gt;52317</title>
<path fill="none" stroke="#000000" d="M712.2754,-902.4995C666.6498,-893.4493 575.3582,-875.3408 522.3432,-864.8248"/>
<polygon fill="#000000" stroke="#000000" points="522.7654,-861.3404 512.2755,-862.8278 521.4034,-868.2067 522.7654,-861.3404"/>
</g>
<!-- 52375 -->
<g id="node26" class="node">
<title>52375</title>
<ellipse fill="none" stroke="#000000" cx="541.2962" cy="-735.1378" rx="32.4942" ry="18"/>
<text text-anchor="middle" x="541.2962" y="-731.4378" font-family="Times,serif" font-size="14.00" fill="#000000">52375</text>
</g>
<!-- 5692&#45;&gt;52375 -->
<g id="edge7" class="edge">
<title>5692&#45;&gt;52375</title>
<path fill="none" stroke="#000000" d="M722.98,-893.2453C687.9767,-862.7842 607.5008,-792.7513 566.4194,-757.0009"/>
<polygon fill="#000000" stroke="#000000" points="568.5948,-754.2543 558.7535,-750.3298 563.9995,-759.5348 568.5948,-754.2543"/>
</g>
<!-- 52376 -->
<g id="node27" class="node">
<title>52376</title>
<ellipse fill="none" stroke="#000000" cx="653.5089" cy="-659.2686" rx="32.4942" ry="18"/>
<text text-anchor="middle" x="653.5089" y="-655.5686" font-family="Times,serif" font-size="14.00" fill="#000000">52376</text>
</g>
<!-- 5692&#45;&gt;52376 -->
<g id="edge8" class="edge">
<title>5692&#45;&gt;52376</title>
<path fill="none" stroke="#000000" d="M733.7,-890.095C718.7851,-847.1633 680.8791,-738.0525 663.0513,-686.736"/>
<polygon fill="#000000" stroke="#000000" points="666.2546,-685.291 659.6666,-676.9934 659.6422,-687.5882 666.2546,-685.291"/>
</g>
<!-- 52380 -->
<g id="node28" class="node">
<title>52380</title>
<ellipse fill="none" stroke="#000000" cx="788.5902" cy="-649.2257" rx="32.4942" ry="18"/>
<text text-anchor="middle" x="788.5902" y="-645.5257" font-family="Times,serif" font-size="14.00" fill="#000000">52380</text>
</g>
<!-- 5692&#45;&gt;52380 -->
<g id="edge9" class="edge">
<title>5692&#45;&gt;52380</title>
<path fill="none" stroke="#000000" d="M743.3369,-889.7867C751.6982,-845.339 773.2114,-730.9775 783.2646,-677.5359"/>
<polygon fill="#000000" stroke="#000000" points="786.7621,-677.8755 785.1712,-667.4008 779.8827,-676.5814 786.7621,-677.8755"/>
</g>
<!-- 52413 -->
<g id="node29" class="node">
<title>52413</title>
<ellipse fill="none" stroke="#000000" cx="910.7886" cy="-707.6671" rx="32.4942" ry="18"/>
<text text-anchor="middle" x="910.7886" y="-703.9671" font-family="Times,serif" font-size="14.00" fill="#000000">52413</text>
</g>
<!-- 5692&#45;&gt;52413 -->
<g id="edge10" class="edge">
<title>5692&#45;&gt;52413</title>
<path fill="none" stroke="#000000" d="M753.6086,-891.9279C783.5295,-856.8519 854.8797,-773.2086 890.224,-731.7747"/>
<polygon fill="#000000" stroke="#000000" points="892.9628,-733.9571 896.7899,-724.0776 887.6372,-729.4142 892.9628,-733.9571"/>
</g>
<!-- 52431 -->
<g id="node30" class="node">
<title>52431</title>
<ellipse fill="none" stroke="#000000" cx="987.762" cy="-819.1252" rx="32.4942" ry="18"/>
<text text-anchor="middle" x="987.762" y="-815.4252" font-family="Times,serif" font-size="14.00" fill="#000000">52431</text>
</g>
<!-- 5692&#45;&gt;52431 -->
<g id="edge11" class="edge">
<title>5692&#45;&gt;52431</title>
<path fill="none" stroke="#000000" d="M765.043,-898.9728C808.8855,-883.2547 899.5436,-850.7526 950.6428,-832.4329"/>
<polygon fill="#000000" stroke="#000000" points="952.0775,-835.6368 960.3096,-828.9672 949.7151,-829.0474 952.0775,-835.6368"/>
</g>
<!-- 262230 -->
<g id="node31" class="node">
<title>262230</title>
<ellipse fill="none" stroke="#000000" cx="998.3027" cy="-958.5729" rx="37.0935" ry="18"/>
<text text-anchor="middle" x="998.3027" y="-954.8729" font-family="Times,serif" font-size="14.00" fill="#000000">262230</text>
</g>
<!-- 5692&#45;&gt;262230 -->
<g id="edge12" class="edge">
<title>5692&#45;&gt;262230</title>
<path fill="none" stroke="#000000" d="M767.5662,-913.396C812.2083,-922.1367 900.5477,-939.433 954.0302,-949.9046"/>
<polygon fill="#000000" stroke="#000000" points="953.4294,-953.3534 963.9156,-951.8401 954.7744,-946.4838 953.4294,-953.3534"/>
</g>
<!-- 264608 -->
<g id="node32" class="node">
<title>264608</title>
<ellipse fill="none" stroke="#000000" cx="932.884" cy="-1087.1096" rx="37.0935" ry="18"/>
<text text-anchor="middle" x="932.884" y="-1083.4096" font-family="Times,serif" font-size="14.00" fill="#000000">264608</text>
</g>
<!-- 5692&#45;&gt;264608 -->
<g id="edge13" class="edge">
<title>5692&#45;&gt;264608</title>
<path fill="none" stroke="#000000" d="M756.0347,-922.9461C789.7484,-954.2415 867.8988,-1026.786 908.0662,-1064.072"/>
<polygon fill="#000000" stroke="#000000" points="905.8585,-1066.7983 915.5688,-1071.0365 910.6209,-1061.6679 905.8585,-1066.7983"/>
</g>
<!-- 6453 -->
<g id="node15" class="node">
<title>6453</title>
<ellipse fill="none" stroke="#000000" cx="2313.7322" cy="-1270.1703" rx="28.6953" ry="18"/>
<text text-anchor="middle" x="2313.7322" y="-1266.4703" font-family="Times,serif" font-size="14.00" fill="#000000">6453</text>
</g>
<!-- 6461 -->
<g id="node16" class="node">
<title>6461</title>
<ellipse fill="none" stroke="#000000" cx="2157.6425" cy="-1443.1247" rx="28.6953" ry="18"/>
<text text-anchor="middle" x="2157.6425" y="-1439.4247" font-family="Times,serif" font-size="14.00" fill="#000000">6461</text>
</g>
<!-- 6762 -->
<g id="node17" class="node">
<title>6762</title>
<ellipse fill="none" stroke="#000000" cx="1958.7665" cy="-1564.4737" rx="28.6953" ry="18"/>
<text text-anchor="middle" x="1958.7665" y="-1560.7737" font-family="Times,serif" font-size="14.00" fill="#000000">6762</text>
</g>
<!-- 7018 -->
<g id="node18" class="node">
<title>7018</title>
<ellipse fill="none" stroke="#000000" cx="1733.5698" cy="-1624.1704" rx="28.6953" ry="18"/>
<text text-anchor="middle" x="1733.5698" y="-1620.4704" font-family="Times,serif" font-size="14.00" fill="#000000">7018</text>
</g>
<!-- 12956 -->
<g id="node21" class="node">
<title>12956</title>
<ellipse fill="none" stroke="#000000" cx="1640.8573" cy="-819.8188" rx="32.4942" ry="18"/>
<text text-anchor="middle" x="1640.8573" y="-816.1188" font-family="Times,serif" font-size="14.00" fill="#000000">12956</text>
</g>
<!-- 10834&#45;&gt;12956 -->
<g id="edge14" class="edge">
<title>10834&#45;&gt;12956</title>
<path fill="none" stroke="#000000" d="M977.0155,-1237.1187C1076.9467,-1174.3005 1493.7483,-912.2934 1610.4,-838.9646"/>
<polygon fill="#000000" stroke="#000000" points="1612.6011,-841.7151 1619.2046,-833.4299 1608.8757,-835.7888 1612.6011,-841.7151"/>
</g>
<!-- 22927 -->
<g id="node22" class="node">
<title>22927</title>
<ellipse fill="none" stroke="#000000" cx="1170.8219" cy="-1593.4712" rx="32.4942" ry="18"/>
<text text-anchor="middle" x="1170.8219" y="-1589.7712" font-family="Times,serif" font-size="14.00" fill="#000000">22927</text>
</g>
<!-- 10834&#45;&gt;22927 -->
<g id="edge15" class="edge">
<title>10834&#45;&gt;22927</title>
<path fill="none" stroke="#000000" d="M966.3486,-1268.1945C1001.7295,-1324.4787 1112.87,-1501.2813 1154.6928,-1567.8131"/>
<polygon fill="#000000" stroke="#000000" points="1151.8339,-1569.8417 1160.1191,-1576.4452 1157.7602,-1566.1163 1151.8339,-1569.8417"/>
</g>
<!-- 12956&#45;&gt;174 -->
<g id="edge16" class="edge">
<title>12956&#45;&gt;174</title>
<path fill="none" stroke="#000000" d="M1608.2552,-819.8188C1402.2862,-819.8188 283.1856,-819.8188 64.1841,-819.8188"/>
<polygon fill="#000000" stroke="#000000" points="64.1565,-816.3189 54.1565,-819.8188 64.1564,-823.3189 64.1565,-816.3189"/>
</g>
<!-- 12956&#45;&gt;209 -->
<g id="edge17" class="edge">
<title>12956&#45;&gt;209</title>
<path fill="none" stroke="#000000" d="M1619.2098,-806.2108C1518.6138,-742.9749 1096.9179,-477.8911 983.5374,-406.6187"/>
<polygon fill="#000000" stroke="#000000" points="985.3458,-403.6213 975.0168,-401.2625 981.6203,-409.5477 985.3458,-403.6213"/>
</g>
<!-- 12956&#45;&gt;701 -->
<g id="edge18" class="edge">
<title>12956&#45;&gt;701</title>
<path fill="none" stroke="#000000" d="M1626.4989,-803.6058C1552.3039,-719.8275 1212.4325,-336.0576 1124.7397,-237.0382"/>
<polygon fill="#000000" stroke="#000000" points="1127.2035,-234.5411 1117.9534,-229.3753 1121.9631,-239.182 1127.2035,-234.5411"/>
</g>
<!-- 12956&#45;&gt;1239 -->
<g id="edge19" class="edge">
<title>12956&#45;&gt;1239</title>
<path fill="none" stroke="#000000" d="M1632.5379,-802.0572C1586.7046,-704.2044 1365.0623,-231.0049 1309.8803,-113.1931"/>
<polygon fill="#000000" stroke="#000000" points="1313.0399,-111.6872 1305.6286,-104.116 1306.7008,-114.6564 1313.0399,-111.6872"/>
</g>
<!-- 12956&#45;&gt;1273 -->
<g id="edge20" class="edge">
<title>12956&#45;&gt;1273</title>
<path fill="none" stroke="#000000" d="M1638.1155,-801.5913C1622.4141,-697.2087 1543.9322,-175.4628 1524.6857,-47.5121"/>
<polygon fill="#000000" stroke="#000000" points="1528.1054,-46.7162 1523.1568,-37.3481 1521.1833,-47.7575 1528.1054,-46.7162"/>
</g>
<!-- 12956&#45;&gt;1299 -->
<g id="edge21" class="edge">
<title>12956&#45;&gt;1299</title>
<path fill="none" stroke="#000000" d="M1643.4192,-801.5651C1658.0901,-697.0327 1731.4213,-174.538 1749.4048,-46.4037"/>
<polygon fill="#000000" stroke="#000000" points="1752.9094,-46.6145 1750.8333,-36.2251 1745.9773,-45.6416 1752.9094,-46.6145"/>
</g>
<!-- 12956&#45;&gt;2914 -->
<g id="edge22" class="edge">
<title>12956&#45;&gt;2914</title>
<path fill="none" stroke="#000000" d="M1648.836,-802.3375C1693.3289,-704.8546 1910.7321,-228.5286 1964.8357,-109.9886"/>
<polygon fill="#000000" stroke="#000000" points="1968.1738,-111.1043 1969.1419,-100.5538 1961.8057,-108.1978 1968.1738,-111.1043"/>
</g>
<!-- 12956&#45;&gt;3257 -->
<g id="edge23" class="edge">
<title>12956&#45;&gt;3257</title>
<path fill="none" stroke="#000000" d="M1655.0873,-803.493C1728.6189,-719.1318 2065.451,-332.6916 2152.3596,-232.9833"/>
<polygon fill="#000000" stroke="#000000" points="2155.1531,-235.1051 2159.0853,-225.267 2149.8762,-230.5057 2155.1531,-235.1051"/>
</g>
<!-- 12956&#45;&gt;3320 -->
<g id="edge24" class="edge">
<title>12956&#45;&gt;3320</title>
<path fill="none" stroke="#000000" d="M1662.4509,-806.1255C1762.5756,-742.6333 2181.5918,-476.9216 2295.7898,-404.5049"/>
<polygon fill="#000000" stroke="#000000" points="2297.8139,-407.3658 2304.3846,-399.0546 2294.0651,-401.4542 2297.8139,-407.3658"/>
</g>
<!-- 12956&#45;&gt;3356 -->
<g id="edge25" class="edge">
<title>12956&#45;&gt;3356</title>
<path fill="none" stroke="#000000" d="M1669.9712,-811.5603C1790.5636,-777.353 2250.7844,-646.8067 2383.6753,-609.1108"/>
<polygon fill="#000000" stroke="#000000" points="2384.718,-612.4532 2393.3833,-606.357 2382.8077,-605.7189 2384.718,-612.4532"/>
</g>
<!-- 12956&#45;&gt;3491 -->
<g id="edge26" class="edge">
<title>12956&#45;&gt;3491</title>
<path fill="none" stroke="#000000" d="M1673.5979,-820.2228C1802.1891,-821.8097 2272.3794,-827.6122 2411.4663,-829.3287"/>
<polygon fill="#000000" stroke="#000000" points="2411.6083,-832.8306 2421.6508,-829.4544 2411.6948,-825.8311 2411.6083,-832.8306"/>
</g>
<!-- 12956&#45;&gt;3549 -->
<g id="edge27" class="edge">
<title>12956&#45;&gt;3549</title>
<path fill="none" stroke="#000000" d="M1669.2949,-828.6492C1788.3957,-865.6324 2247.0058,-1008.04 2378.6151,-1048.9073"/>
<polygon fill="#000000" stroke="#000000" points="2377.6355,-1052.2679 2388.2236,-1051.8909 2379.7114,-1045.5827 2377.6355,-1052.2679"/>
</g>
<!-- 12956&#45;&gt;6453 -->
<g id="edge28" class="edge">
<title>12956&#45;&gt;6453</title>
<path fill="none" stroke="#000000" d="M1661.733,-833.7907C1759.6778,-899.3447 2173.5898,-1176.3737 2285.6538,-1251.3776"/>
<polygon fill="#000000" stroke="#000000" points="2283.8247,-1254.3649 2294.0819,-1257.0185 2287.7182,-1248.5476 2283.8247,-1254.3649"/>
</g>
<!-- 12956&#45;&gt;6461 -->
<g id="edge29" class="edge">
<title>12956&#45;&gt;6461</title>
<path fill="none" stroke="#000000" d="M1654.6801,-836.4907C1726.1074,-922.6408 2053.3005,-1317.2756 2137.7221,-1419.0983"/>
<polygon fill="#000000" stroke="#000000" points="2135.1783,-1421.5138 2144.2553,-1426.9781 2140.567,-1417.046 2135.1783,-1421.5138"/>
</g>
<!-- 12956&#45;&gt;6762 -->
<g id="edge30" class="edge">
<title>12956&#45;&gt;6762</title>
<path fill="none" stroke="#000000" d="M1648.4022,-837.4916C1690.4758,-936.0427 1896.0581,-1417.5888 1947.22,-1537.4279"/>
<polygon fill="#000000" stroke="#000000" points="1944.1467,-1539.1433 1951.2921,-1546.966 1950.5846,-1536.3948 1944.1467,-1539.1433"/>
</g>
<!-- 12956&#45;&gt;7018 -->
<g id="edge31" class="edge">
<title>12956&#45;&gt;7018</title>
<path fill="none" stroke="#000000" d="M1642.9679,-838.13C1655.0548,-942.9926 1715.4697,-1467.1379 1730.2855,-1595.677"/>
<polygon fill="#000000" stroke="#000000" points="1726.8403,-1596.3543 1731.4625,-1605.8877 1733.7943,-1595.5527 1726.8403,-1596.3543"/>
</g>
</g>
</svg>
