<?xml version="1.0" encoding="UTF-8" standalone="no"?>
<!DOCTYPE svg PUBLIC "-//W3C//DTD SVG 1.1//EN"
 "http://www.w3.org/Graphics/SVG/1.1/DTD/svg11.dtd">
<!-- Generated by graphviz version 2.40.1 (20161225.0304)
 -->
<!-- Title: %3 Pages: 1 -->
<svg width="810pt" height="1036pt"
 viewBox="0.00 0.00 810.00 1036.00" xmlns="http://www.w3.org/2000/svg" xmlns:xlink="http://www.w3.org/1999/xlink">
<g id="graph0" class="graph" transform="scale(1 1) rotate(0) translate(4 1032)">
<title>%3</title>
<polygon fill="#ffffff" stroke="transparent" points="-4,4 -4,-1032 806,-1032 806,4 -4,4"/>
<!-- 174 -->
<g id="node1" class="node">
<title>174</title>
<ellipse fill="none" stroke="#000000" cx="62.0309" cy="-262.078" rx="27" ry="18"/>
<text text-anchor="middle" x="62.0309" y="-258.378" font-family="Times,serif" font-size="14.00" fill="#000000">174</text>
</g>
<!-- 209 -->
<g id="node2" class="node">
<title>209</title>
<ellipse fill="none" stroke="#000000" cx="244.0191" cy="-18.0518" rx="27" ry="18"/>
<text text-anchor="middle" x="244.0191" y="-14.3518" font-family="Times,serif" font-size="14.00" fill="#000000">209</text>
</g>
<!-- 701 -->
<g id="node3" class="node">
<title>701</title>
<ellipse fill="none" stroke="#000000" cx="142.8305" cy="-112.4638" rx="27" ry="18"/>
<text text-anchor="middle" x="142.8305" y="-108.7638" font-family="Times,serif" font-size="14.00" fill="#000000">701</text>
</g>
<!-- 1239 -->
<g id="node4" class="node">
<title>1239</title>
<ellipse fill="none" stroke="#000000" cx="121.2368" cy="-370.7803" rx="28.6953" ry="18"/>
<text text-anchor="middle" x="121.2368" y="-367.0803" font-family="Times,serif" font-size="14.00" fill="#000000">1239</text>
</g>
<!-- 1273 -->
<g id="node5" class="node">
<title>1273</title>
<ellipse fill="none" stroke="#000000" cx="144.9431" cy="-46.3467" rx="28.6953" ry="18"/>
<text text-anchor="middle" x="144.9431" y="-42.6467" font-family="Times,serif" font-size="14.00" fill="#000000">1273</text>
</g>
<!-- 1299 -->
<g id="node6" class="node">
<title>1299</title>
<ellipse fill="none" stroke="#000000" cx="77.8091" cy="-96.806" rx="28.6953" ry="18"/>
<text text-anchor="middle" x="77.8091" y="-93.106" font-family="Times,serif" font-size="14.00" fill="#000000">1299</text>
</g>
<!-- 2914 -->
<g id="node7" class="node">
<title>2914</title>
<ellipse fill="none" stroke="#000000" cx="28.997" cy="-212.2636" rx="28.6953" ry="18"/>
<text text-anchor="middle" x="28.997" y="-208.5636" font-family="Times,serif" font-size="14.00" fill="#000000">2914</text>
</g>
<!-- 3257 -->
<g id="node8" class="node">
<title>3257</title>
<ellipse fill="none" stroke="#000000" cx="55.2874" cy="-156.1916" rx="28.6953" ry="18"/>
<text text-anchor="middle" x="55.2874" y="-152.4916" font-family="Times,serif" font-size="14.00" fill="#000000">3257</text>
</g>
<!-- 3320 -->
<g id="node9" class="node">
<title>3320</title>
<ellipse fill="none" stroke="#000000" cx="365.9868" cy="-310.2088" rx="28.6953" ry="18"/>
<text text-anchor="middle" x="365.9868" y="-306.5088" font-family="Times,serif" font-size="14.00" fill="#000000">3320</text>
</g>
<!-- 3356 -->
<g id="node10" class="node">
<title>3356</title>
<ellipse fill="none" stroke="#000000" cx="370.4555" cy="-100.0525" rx="28.6953" ry="18"/>
<text text-anchor="middle" x="370.4555" y="-96.3525" font-family="Times,serif" font-size="14.00" fill="#000000">3356</text>
</g>
<!-- 3491 -->
<g id="node11" class="node">
<title>3491</title>
<ellipse fill="none" stroke="#000000" cx="298.8728" cy="-69.9085" rx="28.6953" ry="18"/>
<text text-anchor="middle" x="298.8728" y="-66.2085" font-family="Times,serif" font-size="14.00" fill="#000000">3491</text>
</g>
<!-- 3549 -->
<g id="node12" class="node">
<title>3549</title>
<ellipse fill="none" stroke="#000000" cx="61.4675" cy="-325.4214" rx="28.6953" ry="18"/>
<text text-anchor="middle" x="61.4675" y="-321.7214" font-family="Times,serif" font-size="14.00" fill="#000000">3549</text>
</g>
<!-- 3597 -->
<g id="node13" class="node">
<title>3597</title>
<ellipse fill="none" stroke="#000000" cx="720.0707" cy="-910.9127" rx="28.6953" ry="18"/>
<text text-anchor="middle" x="720.0707" y="-907.2127" font-family="Times,serif" font-size="14.00" fill="#000000">3597</text>
</g>
<!-- 5692 -->
<g id="node14" class="node">
<title>5692</title>
<ellipse fill="none" stroke="#000000" cx="562.6969" cy="-805.1449" rx="28.6953" ry="18"/>
<text text-anchor="middle" x="562.6969" y="-801.4449" font-family="Times,serif" font-size="14.00" fill="#000000">5692</text>
</g>
<!-- 5692&#45;&gt;3597 -->
<g id="edge1" class="edge">
<title>5692&#45;&gt;3597</title>
<path fill="none" stroke="#000000" d="M582.3102,-818.3266C609.8756,-836.8528 660.2343,-870.6978 691.8305,-891.933"/>
<polygon fill="#000000" stroke="#000000" points="689.9582,-894.8917 700.2102,-897.5649 693.8628,-889.0818 689.9582,-894.8917"/>
</g>
<!-- 10834 -->
<g id="node19" class="node">
<title>10834</title>
<ellipse fill="none" stroke="#000000" cx="390.8803" cy="-538.1939" rx="32.4942" ry="18"/>
<text text-anchor="middle" x="390.8803" y="-534.4939" font-family="Times,serif" font-size="14.00" fill="#000000">10834</text>
</g>
<!-- 5692&#45;&gt;10834 -->
<g id="edge2" class="edge">
<title>5692&#45;&gt;10834</title>
<path fill="none" stroke="#000000" d="M551.949,-788.4459C522.85,-743.2348 442.3792,-618.2077 407.4344,-563.914"/>
<polygon fill="#000000" stroke="#000000" points="410.2007,-561.745 401.8454,-555.2304 404.3145,-565.5336 410.2007,-561.745"/>
</g>
<!-- 11008 -->
<g id="node20" class="node">
<title>11008</title>
<ellipse fill="none" stroke="#000000" cx="426.4157" cy="-914.4703" rx="32.4942" ry="18"/>
<text text-anchor="middle" x="426.4157" y="-910.7703" font-family="Times,serif" font-size="14.00" fill="#000000">11008</text>
</g>
<!-- 5692&#45;&gt;11008 -->
<g id="edge3" class="edge">
<title>5692&#45;&gt;11008</title>
<path fill="none" stroke="#000000" d="M544.8805,-819.4373C521.4725,-838.2154 480.1626,-871.3543 453.0376,-893.1141"/>
<polygon fill="#000000" stroke="#000000" points="450.7207,-890.4858 445.1105,-899.4733 455.1009,-895.946 450.7207,-890.4858"/>
</g>
<!-- 27865 -->
<g id="node23" class="node">
<title>27865</title>
<ellipse fill="none" stroke="#000000" cx="661.0288" cy="-675.7525" rx="32.4942" ry="18"/>
<text text-anchor="middle" x="661.0288" y="-672.0525" font-family="Times,serif" font-size="14.00" fill="#000000">27865</text>
</g>
<!-- 5692&#45;&gt;27865 -->
<g id="edge4" class="edge">
<title>5692&#45;&gt;27865</title>
<path fill="none" stroke="#000000" d="M575.1507,-788.7573C592.0514,-766.5181 622.3986,-726.585 642.1197,-700.6346"/>
<polygon fill="#000000" stroke="#000000" points="645.1016,-702.4953 648.3656,-692.4158 639.5283,-698.2599 645.1016,-702.4953"/>
</g>
<!-- 28065 -->
<g id="node24" class="node">
<title>28065</title>
<ellipse fill="none" stroke="#000000" cx="609.3867" cy="-1010.4156" rx="32.4942" ry="18"/>
<text text-anchor="middle" x="609.3867" y="-1006.7156" font-family="Times,serif" font-size="14.00" fill="#000000">28065</text>
</g>
<!-- 5692&#45;&gt;28065 -->
<g id="edge5" class="edge">
<title>5692&#45;&gt;28065</title>
<path fill="none" stroke="#000000" d="M566.7586,-823.0023C574.9162,-858.8665 593.3412,-939.8718 603.0799,-982.688"/>
<polygon fill="#000000" stroke="#000000" points="599.6703,-983.4787 605.3011,-992.4534 606.496,-981.9261 599.6703,-983.4787"/>
</g>
<!-- 52317 -->
<g id="node25" class="node">
<title>52317</title>
<ellipse fill="none" stroke="#000000" cx="447.5455" cy="-976.6839" rx="32.4942" ry="18"/>
<text text-anchor="middle" x="447.5455" y="-972.9839" font-family="Times,serif" font-size="14.00" fill="#000000">52317</text>
</g>
<!-- 5692&#45;&gt;52317 -->
<g id="edge6" class="edge">
<title>5692&#45;&gt;52317</title>
<path fill="none" stroke="#000000" d="M551.4461,-821.9051C531.2038,-852.0596 488.5353,-915.6221 464.6542,-951.1973"/>
<polygon fill="#000000" stroke="#000000" points="461.6802,-949.348 459.0127,-959.6015 467.4922,-953.2495 461.6802,-949.348"/>
</g>
<!-- 52375 -->
<g id="node26" class="node">
<title>52375</title>
<ellipse fill="none" stroke="#000000" cx="730.6973" cy="-725.8078" rx="32.4942" ry="18"/>
<text text-anchor="middle" x="730.6973" y="-722.1078" font-family="Times,serif" font-size="14.00" fill="#000000">52375</text>
</g>
<!-- 5692&#45;&gt;52375 -->
<g id="edge7" class="edge">
<title>5692&#45;&gt;52375</title>
<path fill="none" stroke="#000000" d="M585.7044,-794.2798C614.3314,-780.7609 663.4637,-757.5585 696.5038,-741.9555"/>
<polygon fill="#000000" stroke="#000000" points="698.2347,-745.0088 705.7825,-737.5737 695.2455,-738.6791 698.2347,-745.0088"/>
</g>
<!-- 52376 -->
<g id="node27" class="node">
<title>52376</title>
<ellipse fill="none" stroke="#000000" cx="690.2119" cy="-970.4332" rx="32.4942" ry="18"/>
<text text-anchor="middle" x="690.2119" y="-966.7332" font-family="Times,serif" font-size="14.00" fill="#000000">52376</text>
</g>
<!-- 5692&#45;&gt;52376 -->
<g id="edge8" class="edge">
<title>5692&#45;&gt;52376</title>
<path fill="none" stroke="#000000" d="M575.3897,-821.5977C597.8061,-850.6544 644.5265,-911.2146 670.9401,-945.4527"/>
<polygon fill="#000000" stroke="#000000" points="668.3113,-947.7751 677.1907,-953.5549 673.8537,-943.4993 668.3113,-947.7751"/>
</g>
<!-- 52380 -->
<g id="node28" class="node">
<title>52380</title>
<ellipse fill="none" stroke="#000000" cx="411.8863" cy="-834.4271" rx="32.4942" ry="18"/>
<text text-anchor="middle" x="411.8863" y="-830.7271" font-family="Times,serif" font-size="14.00" fill="#000000">52380</text>
</g>
<!-- 5692&#45;&gt;52380 -->
<g id="edge9" class="edge">
<title>5692&#45;&gt;52380</title>
<path fill="none" stroke="#000000" d="M535.0359,-810.5157C511.9895,-814.9905 478.8351,-821.428 452.7314,-826.4964"/>
<polygon fill="#000000" stroke="#000000" points="451.8986,-823.0926 442.7491,-828.4346 453.2329,-829.9643 451.8986,-823.0926"/>
</g>
<!-- 52413 -->
<g id="node29" class="node">
<title>52413</title>
<ellipse fill="none" stroke="#000000" cx="753.8496" cy="-794.1302" rx="32.4942" ry="18"/>
<text text-anchor="middle" x="753.8496" y="-790.4302" font-family="Times,serif" font-size="14.00" fill="#000000">52413</text>
</g>
<!-- 5692&#45;&gt;52413 -->
<g id="edge10" class="edge">
<title>5692&#45;&gt;52413</title>
<path fill="none" stroke="#000000" d="M591.3144,-803.4959C623.0702,-801.6661 674.6447,-798.6942 711.1717,-796.5894"/>
<polygon fill="#000000" stroke="#000000" points="711.7332,-800.063 721.5152,-795.9934 711.3304,-793.0746 711.7332,-800.063"/>
</g>
<!-- 52431 -->
<g id="node30" class="node">
<title>52431</title>
<ellipse fill="none" stroke="#000000" cx="609.6197" cy="-932.0716" rx="32.4942" ry="18"/>
<text text-anchor="middle" x="609.6197" y="-928.3716" font-family="Times,serif" font-size="14.00" fill="#000000">52431</text>
</g>
<!-- 5692&#45;&gt;52431 -->
<g id="edge11" class="edge">
<title>5692&#45;&gt;52431</title>
<path fill="none" stroke="#000000" d="M569.2213,-822.7935C577.0562,-843.987 590.2871,-879.7766 599.4626,-904.5964"/>
<polygon fill="#000000" stroke="#000000" points="596.249,-905.9978 602.9994,-914.1637 602.8147,-903.5705 596.249,-905.9978"/>
</g>
<!-- 262230 -->
<g id="node31" class="node">
<title>262230</title>
<ellipse fill="none" stroke="#000000" cx="764.9387" cy="-863.3732" rx="37.0935" ry="18"/>
<text text-anchor="middle" x="764.9387" y="-859.6732" font-family="Times,serif" font-size="14.00" fill="#000000">262230</text>
</g>
<!-- 5692&#45;&gt;262230 -->
<g id="edge12" class="edge">
<title>5692&#45;&gt;262230</title>
<path fill="none" stroke="#000000" d="M588.7225,-812.638C622.7514,-822.4354 682.7727,-839.7164 723.1937,-851.3542"/>
<polygon fill="#000000" stroke="#000000" points="722.4421,-854.7799 733.0202,-854.1834 724.3789,-848.0532 722.4421,-854.7799"/>
</g>
<!-- 264608 -->
<g id="node32" class="node">
<title>264608</title>
<ellipse fill="none" stroke="#000000" cx="529.4149" cy="-953.9119" rx="37.0935" ry="18"/>
<text text-anchor="middle" x="529.4149" y="-950.2119" font-family="Times,serif" font-size="14.00" fill="#000000">264608</text>
</g>
<!-- 5692&#45;&gt;264608 -->
<g id="edge13" class="edge">
<title>5692&#45;&gt;264608</title>
<path fill="none" stroke="#000000" d="M558.6823,-823.0897C552.96,-848.6676 542.4056,-895.8448 535.6576,-926.0074"/>
<polygon fill="#000000" stroke="#000000" points="532.2114,-925.3805 533.4437,-935.9035 539.0426,-926.9088 532.2114,-925.3805"/>
</g>
<!-- 6453 -->
<g id="node15" class="node">
<title>6453</title>
<ellipse fill="none" stroke="#000000" cx="406.9461" cy="-224.8018" rx="28.6953" ry="18"/>
<text text-anchor="middle" x="406.9461" y="-221.1018" font-family="Times,serif" font-size="14.00" fill="#000000">6453</text>
</g>
<!-- 6461 -->
<g id="node16" class="node">
<title>6461</title>
<ellipse fill="none" stroke="#000000" cx="397.7279" cy="-151.7036" rx="28.6953" ry="18"/>
<text text-anchor="middle" x="397.7279" y="-148.0036" font-family="Times,serif" font-size="14.00" fill="#000000">6461</text>
</g>
<!-- 6762 -->
<g id="node17" class="node">
<title>6762</title>
<ellipse fill="none" stroke="#000000" cx="217.2172" cy="-66.4808" rx="28.6953" ry="18"/>
<text text-anchor="middle" x="217.2172" y="-62.7808" font-family="Times,serif" font-size="14.00" fill="#000000">6762</text>
</g>
<!-- 7018 -->
<g id="node18" class="node">
<title>7018</title>
<ellipse fill="none" stroke="#000000" cx="213.3867" cy="-386.6257" rx="28.6953" ry="18"/>
<text text-anchor="middle" x="213.3867" y="-382.9257" font-family="Times,serif" font-size="14.00" fill="#000000">7018</text>
</g>
<!-- 12956 -->
<g id="node21" class="node">
<title>12956</title>
<ellipse fill="none" stroke="#000000" cx="222.9885" cy="-230.5575" rx="32.4942" ry="18"/>
<text text-anchor="middle" x="222.9885" y="-226.8575" font-family="Times,serif" font-size="14.00" fill="#000000">12956</text>
</g>
<!-- 10834&#45;&gt;12956 -->
<g id="edge14" class="edge">
<title>10834&#45;&gt;12956</title>
<path fill="none" stroke="#000000" d="M381.3726,-520.7725C353.3225,-469.3748 270.7868,-318.1407 237.325,-256.827"/>
<polygon fill="#000000" stroke="#000000" points="240.2547,-254.8889 232.3918,-247.7877 234.1101,-258.2423 240.2547,-254.8889"/>
</g>
<!-- 22927 -->
<g id="node22" class="node">
<title>22927</title>
<ellipse fill="none" stroke="#000000" cx="265.3441" cy="-645.6088" rx="32.4942" ry="18"/>
<text text-anchor="middle" x="265.3441" y="-641.9088" font-family="Times,serif" font-size="14.00" fill="#000000">22927</text>
</g>
<!-- 10834&#45;&gt;22927 -->
<g id="edge15" class="edge">
<title>10834&#45;&gt;22927</title>
<path fill="none" stroke="#000000" d="M373.1602,-553.356C351.7861,-571.6447 315.6821,-602.537 291.1996,-623.4855"/>
<polygon fill="#000000" stroke="#000000" points="288.7031,-621.0152 283.3804,-630.176 293.2541,-626.3339 288.7031,-621.0152"/>
</g>
<!-- 12956&#45;&gt;174 -->
<g id="edge16" class="edge">
<title>12956&#45;&gt;174</title>
<path fill="none" stroke="#000000" d="M192.3347,-236.5604C165.4458,-241.8261 126.3229,-249.4876 97.9682,-255.0403"/>
<polygon fill="#000000" stroke="#000000" points="97.1925,-251.6257 88.0516,-256.9823 98.5378,-258.4952 97.1925,-251.6257"/>
</g>
<!-- 12956&#45;&gt;209 -->
<g id="edge17" class="edge">
<title>12956&#45;&gt;209</title>
<path fill="none" stroke="#000000" d="M224.7815,-212.4394C228.4522,-175.3492 236.8453,-90.5396 241.2321,-46.2134"/>
<polygon fill="#000000" stroke="#000000" points="244.7286,-46.4202 242.2306,-36.124 237.7627,-45.7307 244.7286,-46.4202"/>
</g>
<!-- 12956&#45;&gt;701 -->
<g id="edge18" class="edge">
<title>12956&#45;&gt;701</title>
<path fill="none" stroke="#000000" d="M211.5038,-213.6375C197.9751,-193.7061 175.3764,-160.4123 159.8203,-137.4942"/>
<polygon fill="#000000" stroke="#000000" points="162.5475,-135.28 154.0355,-128.9716 156.7557,-139.2113 162.5475,-135.28"/>
</g>
<!-- 12956&#45;&gt;1239 -->
<g id="edge19" class="edge">
<title>12956&#45;&gt;1239</title>
<path fill="none" stroke="#000000" d="M210.7148,-247.4716C192.8954,-272.0284 159.7488,-317.7073 139.185,-346.0461"/>
<polygon fill="#000000" stroke="#000000" points="136.2783,-344.0923 133.238,-354.2416 141.9439,-348.2035 136.2783,-344.0923"/>
</g>
<!-- 12956&#45;&gt;1273 -->
<g id="edge20" class="edge">
<title>12956&#45;&gt;1273</title>
<path fill="none" stroke="#000000" d="M215.5052,-212.8946C201.8112,-180.5727 172.64,-111.7197 156.4212,-73.4385"/>
<polygon fill="#000000" stroke="#000000" points="159.5276,-71.7984 152.4038,-63.9561 153.0822,-74.5292 159.5276,-71.7984"/>
</g>
<!-- 12956&#45;&gt;1299 -->
<g id="edge21" class="edge">
<title>12956&#45;&gt;1299</title>
<path fill="none" stroke="#000000" d="M206.0504,-214.9527C180.2333,-191.1678 130.9446,-145.7588 101.5629,-118.69"/>
<polygon fill="#000000" stroke="#000000" points="103.9201,-116.1027 94.194,-111.9011 99.1771,-121.251 103.9201,-116.1027"/>
</g>
<!-- 12956&#45;&gt;2914 -->
<g id="edge22" class="edge">
<title>12956&#45;&gt;2914</title>
<path fill="none" stroke="#000000" d="M190.5187,-227.4955C156.65,-224.3016 103.5718,-219.2962 67.5849,-215.9025"/>
<polygon fill="#000000" stroke="#000000" points="67.7468,-212.4023 57.4623,-214.9479 67.0895,-219.3714 67.7468,-212.4023"/>
</g>
<!-- 12956&#45;&gt;3257 -->
<g id="edge23" class="edge">
<title>12956&#45;&gt;3257</title>
<path fill="none" stroke="#000000" d="M197.5183,-219.2629C168.2888,-206.3013 120.2697,-185.0076 88.2212,-170.7959"/>
<polygon fill="#000000" stroke="#000000" points="89.3867,-167.484 78.8263,-166.6298 86.549,-173.8831 89.3867,-167.484"/>
</g>
<!-- 12956&#45;&gt;3320 -->
<g id="edge24" class="edge">
<title>12956&#45;&gt;3320</title>
<path fill="none" stroke="#000000" d="M245.9636,-243.3548C270.258,-256.887 308.7043,-278.3019 335.516,-293.2363"/>
<polygon fill="#000000" stroke="#000000" points="334.0328,-296.4164 344.4721,-298.2249 337.4391,-290.3011 334.0328,-296.4164"/>
</g>
<!-- 12956&#45;&gt;3356 -->
<g id="edge25" class="edge">
<title>12956&#45;&gt;3356</title>
<path fill="none" stroke="#000000" d="M240.484,-215.0743C266.5658,-191.9926 315.7615,-148.4554 345.5775,-122.069"/>
<polygon fill="#000000" stroke="#000000" points="348.2688,-124.361 353.4379,-115.1127 343.6297,-119.1189 348.2688,-124.361"/>
</g>
<!-- 12956&#45;&gt;3491 -->
<g id="edge26" class="edge">
<title>12956&#45;&gt;3491</title>
<path fill="none" stroke="#000000" d="M231.2539,-213.0594C244.5394,-184.9335 270.7311,-129.485 286.3303,-96.4612"/>
<polygon fill="#000000" stroke="#000000" points="289.5111,-97.9219 290.6175,-87.385 283.1817,-94.9321 289.5111,-97.9219"/>
</g>
<!-- 12956&#45;&gt;3549 -->
<g id="edge27" class="edge">
<title>12956&#45;&gt;3549</title>
<path fill="none" stroke="#000000" d="M200.5297,-243.7479C172.0487,-260.4753 122.8535,-289.3684 91.2591,-307.9243"/>
<polygon fill="#000000" stroke="#000000" points="89.3044,-305.0133 82.4541,-313.0956 92.8495,-311.0493 89.3044,-305.0133"/>
</g>
<!-- 12956&#45;&gt;6453 -->
<g id="edge28" class="edge">
<title>12956&#45;&gt;6453</title>
<path fill="none" stroke="#000000" d="M255.453,-229.5417C286.8185,-228.5604 334.3653,-227.0727 367.8083,-226.0264"/>
<polygon fill="#000000" stroke="#000000" points="368.2468,-229.5145 378.1324,-225.7034 368.0278,-222.5179 368.2468,-229.5145"/>
</g>
<!-- 12956&#45;&gt;6461 -->
<g id="edge29" class="edge">
<title>12956&#45;&gt;6461</title>
<path fill="none" stroke="#000000" d="M248.3971,-219.0914C279.1531,-205.2123 331.0143,-181.8092 364.8063,-166.56"/>
<polygon fill="#000000" stroke="#000000" points="366.5723,-169.603 374.2475,-162.2995 363.6929,-163.2226 366.5723,-169.603"/>
</g>
<!-- 12956&#45;&gt;6762 -->
<g id="edge30" class="edge">
<title>12956&#45;&gt;6762</title>
<path fill="none" stroke="#000000" d="M222.3488,-212.3715C221.3478,-183.9126 219.4031,-128.625 218.2163,-94.8845"/>
<polygon fill="#000000" stroke="#000000" points="221.7092,-94.619 217.8598,-84.7483 214.7136,-94.8652 221.7092,-94.619"/>
</g>
<!-- 12956&#45;&gt;7018 -->
<g id="edge31" class="edge">
<title>12956&#45;&gt;7018</title>
<path fill="none" stroke="#000000" d="M221.8682,-248.7659C220.206,-275.7844 217.0725,-326.7162 215.1148,-358.5367"/>
<polygon fill="#000000" stroke="#000000" points="211.6206,-358.3371 214.4998,-368.5332 218.6074,-358.767 211.6206,-358.3371"/>
</g>
</g>
</svg>
