<?xml version="1.0" encoding="UTF-8" standalone="no"?>
<!DOCTYPE svg PUBLIC "-//W3C//DTD SVG 1.1//EN"
 "http://www.w3.org/Graphics/SVG/1.1/DTD/svg11.dtd">
<!-- Generated by graphviz version 2.40.1 (20161225.0304)
 -->
<!-- Title: %3 Pages: 1 -->
<svg width="484pt" height="350pt"
 viewBox="0.00 0.00 484.29 350.38" xmlns="http://www.w3.org/2000/svg" xmlns:xlink="http://www.w3.org/1999/xlink">
<g id="graph0" class="graph" transform="scale(1 1) rotate(0) translate(4 346.3793)">
<title>%3</title>
<polygon fill="#ffffff" stroke="transparent" points="-4,4 -4,-346.3793 480.2905,-346.3793 480.2905,4 -4,4"/>
<!-- 174 -->
<g id="node1" class="node">
<title>174</title>
<ellipse fill="none" stroke="#000000" cx="449.2905" cy="-177.6652" rx="27" ry="18"/>
<text text-anchor="middle" x="449.2905" y="-173.9652" font-family="Times,serif" font-size="14.00" fill="#000000">174</text>
</g>
<!-- 209 -->
<g id="node2" class="node">
<title>209</title>
<ellipse fill="none" stroke="#000000" cx="429.6786" cy="-220.0557" rx="27" ry="18"/>
<text text-anchor="middle" x="429.6786" y="-216.3557" font-family="Times,serif" font-size="14.00" fill="#000000">209</text>
</g>
<!-- 701 -->
<g id="node3" class="node">
<title>701</title>
<ellipse fill="none" stroke="#000000" cx="401.4125" cy="-257.2391" rx="27" ry="18"/>
<text text-anchor="middle" x="401.4125" y="-253.5391" font-family="Times,serif" font-size="14.00" fill="#000000">701</text>
</g>
<!-- 1239 -->
<g id="node4" class="node">
<title>1239</title>
<ellipse fill="none" stroke="#000000" cx="365.8139" cy="-287.4769" rx="28.6953" ry="18"/>
<text text-anchor="middle" x="365.8139" y="-283.7769" font-family="Times,serif" font-size="14.00" fill="#000000">1239</text>
</g>
<!-- 1273 -->
<g id="node5" class="node">
<title>1273</title>
<ellipse fill="none" stroke="#000000" cx="324.5473" cy="-309.355" rx="28.6953" ry="18"/>
<text text-anchor="middle" x="324.5473" y="-305.655" font-family="Times,serif" font-size="14.00" fill="#000000">1273</text>
</g>
<!-- 1299 -->
<g id="node6" class="node">
<title>1299</title>
<ellipse fill="none" stroke="#000000" cx="279.5424" cy="-321.8506" rx="28.6953" ry="18"/>
<text text-anchor="middle" x="279.5424" y="-318.1506" font-family="Times,serif" font-size="14.00" fill="#000000">1299</text>
</g>
<!-- 2914 -->
<g id="node7" class="node">
<title>2914</title>
<ellipse fill="none" stroke="#000000" cx="232.9035" cy="-324.3793" rx="28.6953" ry="18"/>
<text text-anchor="middle" x="232.9035" y="-320.6793" font-family="Times,serif" font-size="14.00" fill="#000000">2914</text>
</g>
<!-- 3257 -->
<g id="node8" class="node">
<title>3257</title>
<ellipse fill="none" stroke="#000000" cx="186.8113" cy="-316.8228" rx="28.6953" ry="18"/>
<text text-anchor="middle" x="186.8113" y="-313.1228" font-family="Times,serif" font-size="14.00" fill="#000000">3257</text>
</g>
<!-- 3320 -->
<g id="node9" class="node">
<title>3320</title>
<ellipse fill="none" stroke="#000000" cx="143.4212" cy="-299.5346" rx="28.6953" ry="18"/>
<text text-anchor="middle" x="143.4212" y="-295.8346" font-family="Times,serif" font-size="14.00" fill="#000000">3320</text>
</g>
<!-- 3356 -->
<g id="node10" class="node">
<title>3356</title>
<ellipse fill="none" stroke="#000000" cx="104.762" cy="-273.323" rx="28.6953" ry="18"/>
<text text-anchor="middle" x="104.762" y="-269.623" font-family="Times,serif" font-size="14.00" fill="#000000">3356</text>
</g>
<!-- 3491 -->
<g id="node11" class="node">
<title>3491</title>
<ellipse fill="none" stroke="#000000" cx="72.6414" cy="-239.4137" rx="28.6953" ry="18"/>
<text text-anchor="middle" x="72.6414" y="-235.7137" font-family="Times,serif" font-size="14.00" fill="#000000">3491</text>
</g>
<!-- 3549 -->
<g id="node12" class="node">
<title>3549</title>
<ellipse fill="none" stroke="#000000" cx="48.5612" cy="-199.3921" rx="28.6953" ry="18"/>
<text text-anchor="middle" x="48.5612" y="-195.6921" font-family="Times,serif" font-size="14.00" fill="#000000">3549</text>
</g>
<!-- 3597 -->
<g id="node13" class="node">
<title>3597</title>
<ellipse fill="none" stroke="#000000" cx="316.1754" cy="-116.4806" rx="28.6953" ry="18"/>
<text text-anchor="middle" x="316.1754" y="-112.7806" font-family="Times,serif" font-size="14.00" fill="#000000">3597</text>
</g>
<!-- 5692 -->
<g id="node14" class="node">
<title>5692</title>
<ellipse fill="none" stroke="#000000" cx="244.5975" cy="-108.696" rx="28.6953" ry="18"/>
<text text-anchor="middle" x="244.5975" y="-104.996" font-family="Times,serif" font-size="14.00" fill="#000000">5692</text>
</g>
<!-- 5692&#45;&gt;3597 -->
<g id="edge1" class="edge">
<title>5692&#45;&gt;3597</title>
<path fill="none" stroke="#000000" d="M272.887,-111.7727C274.4012,-111.9374 275.9342,-112.1041 277.4744,-112.2716"/>
<polygon fill="#000000" stroke="#000000" points="277.3025,-115.7735 287.6223,-113.3753 278.0594,-108.8145 277.3025,-115.7735"/>
</g>
<!-- 10834 -->
<g id="node19" class="node">
<title>10834</title>
<ellipse fill="none" stroke="#000000" cx="210.8721" cy="-172.3089" rx="32.4942" ry="18"/>
<text text-anchor="middle" x="210.8721" y="-168.6089" font-family="Times,serif" font-size="14.00" fill="#000000">10834</text>
</g>
<!-- 5692&#45;&gt;10834 -->
<g id="edge2" class="edge">
<title>5692&#45;&gt;10834</title>
<path fill="none" stroke="#000000" d="M235.3818,-126.0785C232.1102,-132.2494 228.3514,-139.3394 224.7758,-146.0837"/>
<polygon fill="#000000" stroke="#000000" points="221.6684,-144.4729 220.0765,-154.9474 227.853,-147.7518 221.6684,-144.4729"/>
</g>
<!-- 11008 -->
<g id="node20" class="node">
<title>11008</title>
<ellipse fill="none" stroke="#000000" cx="197.9857" cy="-53.8204" rx="32.4942" ry="18"/>
<text text-anchor="middle" x="197.9857" y="-50.1204" font-family="Times,serif" font-size="14.00" fill="#000000">11008</text>
</g>
<!-- 5692&#45;&gt;11008 -->
<g id="edge3" class="edge">
<title>5692&#45;&gt;11008</title>
<path fill="none" stroke="#000000" d="M230.8645,-92.5283C227.0797,-88.0726 222.8873,-83.1369 218.7984,-78.3231"/>
<polygon fill="#000000" stroke="#000000" points="221.2466,-75.7989 212.1051,-70.4431 215.9115,-80.3306 221.2466,-75.7989"/>
</g>
<!-- 27865 -->
<g id="node23" class="node">
<title>27865</title>
<ellipse fill="none" stroke="#000000" cx="210.8721" cy="-45.0832" rx="32.4942" ry="18"/>
<text text-anchor="middle" x="210.8721" y="-41.3832" font-family="Times,serif" font-size="14.00" fill="#000000">27865</text>
</g>
<!-- 5692&#45;&gt;27865 -->
<g id="edge4" class="edge">
<title>5692&#45;&gt;27865</title>
<path fill="none" stroke="#000000" d="M235.3818,-91.3136C232.1102,-85.1426 228.3514,-78.0527 224.7758,-71.3084"/>
<polygon fill="#000000" stroke="#000000" points="227.853,-69.6403 220.0765,-62.4447 221.6684,-72.9192 227.853,-69.6403"/>
</g>
<!-- 28065 -->
<g id="node24" class="node">
<title>28065</title>
<ellipse fill="none" stroke="#000000" cx="225.3354" cy="-39.3204" rx="32.4942" ry="18"/>
<text text-anchor="middle" x="225.3354" y="-35.6204" font-family="Times,serif" font-size="14.00" fill="#000000">28065</text>
</g>
<!-- 5692&#45;&gt;28065 -->
<g id="edge5" class="edge">
<title>5692&#45;&gt;28065</title>
<path fill="none" stroke="#000000" d="M239.637,-90.8301C237.6306,-83.6036 235.2673,-75.0918 233.0461,-67.0916"/>
<polygon fill="#000000" stroke="#000000" points="236.3938,-66.0661 230.346,-57.367 229.6489,-67.9388 236.3938,-66.0661"/>
</g>
<!-- 52317 -->
<g id="node25" class="node">
<title>52317</title>
<ellipse fill="none" stroke="#000000" cx="240.6995" cy="-36.8016" rx="32.4942" ry="18"/>
<text text-anchor="middle" x="240.6995" y="-33.1016" font-family="Times,serif" font-size="14.00" fill="#000000">52317</text>
</g>
<!-- 5692&#45;&gt;52317 -->
<g id="edge6" class="edge">
<title>5692&#45;&gt;52317</title>
<path fill="none" stroke="#000000" d="M243.6138,-90.5541C243.1969,-82.8649 242.7012,-73.7218 242.2379,-65.1766"/>
<polygon fill="#000000" stroke="#000000" points="245.7327,-64.9837 241.6963,-55.1879 238.743,-65.3628 245.7327,-64.9837"/>
</g>
<!-- 52375 -->
<g id="node26" class="node">
<title>52375</title>
<ellipse fill="none" stroke="#000000" cx="256.2458" cy="-37.6445" rx="32.4942" ry="18"/>
<text text-anchor="middle" x="256.2458" y="-33.9445" font-family="Times,serif" font-size="14.00" fill="#000000">52375</text>
</g>
<!-- 5692&#45;&gt;52375 -->
<g id="edge7" class="edge">
<title>5692&#45;&gt;52375</title>
<path fill="none" stroke="#000000" d="M247.5368,-90.7667C248.7826,-83.1678 250.264,-74.1318 251.6485,-65.6868"/>
<polygon fill="#000000" stroke="#000000" points="255.1028,-66.2498 253.2668,-55.8152 248.195,-65.1172 255.1028,-66.2498"/>
</g>
<!-- 52376 -->
<g id="node27" class="node">
<title>52376</title>
<ellipse fill="none" stroke="#000000" cx="271.2474" cy="-41.8097" rx="32.4942" ry="18"/>
<text text-anchor="middle" x="271.2474" y="-38.1097" font-family="Times,serif" font-size="14.00" fill="#000000">52376</text>
</g>
<!-- 5692&#45;&gt;52376 -->
<g id="edge8" class="edge">
<title>5692&#45;&gt;52376</title>
<path fill="none" stroke="#000000" d="M251.5994,-91.1225C254.3016,-84.3405 257.4554,-76.4251 260.4352,-68.9463"/>
<polygon fill="#000000" stroke="#000000" points="263.7497,-70.0835 264.1997,-59.4982 257.2468,-67.4924 263.7497,-70.0835"/>
</g>
<!-- 52380 -->
<g id="node28" class="node">
<title>52380</title>
<ellipse fill="none" stroke="#000000" cx="285.0029" cy="-49.1024" rx="32.4942" ry="18"/>
<text text-anchor="middle" x="285.0029" y="-45.4024" font-family="Times,serif" font-size="14.00" fill="#000000">52380</text>
</g>
<!-- 5692&#45;&gt;52380 -->
<g id="edge9" class="edge">
<title>5692&#45;&gt;52380</title>
<path fill="none" stroke="#000000" d="M255.8526,-92.0959C259.5552,-86.635 263.7603,-80.433 267.8014,-74.4728"/>
<polygon fill="#000000" stroke="#000000" points="270.8124,-76.2687 273.5274,-66.0276 265.0185,-72.3404 270.8124,-76.2687"/>
</g>
<!-- 52413 -->
<g id="node29" class="node">
<title>52413</title>
<ellipse fill="none" stroke="#000000" cx="296.8691" cy="-59.1817" rx="32.4942" ry="18"/>
<text text-anchor="middle" x="296.8691" y="-55.4817" font-family="Times,serif" font-size="14.00" fill="#000000">52413</text>
</g>
<!-- 5692&#45;&gt;52413 -->
<g id="edge10" class="edge">
<title>5692&#45;&gt;52413</title>
<path fill="none" stroke="#000000" d="M260.5647,-93.5711C264.4678,-89.8739 268.7293,-85.8371 272.9157,-81.8716"/>
<polygon fill="#000000" stroke="#000000" points="275.4232,-84.3174 280.2762,-74.8994 270.6093,-79.2354 275.4232,-84.3174"/>
</g>
<!-- 52431 -->
<g id="node30" class="node">
<title>52431</title>
<ellipse fill="none" stroke="#000000" cx="306.2912" cy="-71.5762" rx="32.4942" ry="18"/>
<text text-anchor="middle" x="306.2912" y="-67.8762" font-family="Times,serif" font-size="14.00" fill="#000000">52431</text>
</g>
<!-- 5692&#45;&gt;52431 -->
<g id="edge11" class="edge">
<title>5692&#45;&gt;52431</title>
<path fill="none" stroke="#000000" d="M265.4841,-96.1289C268.6783,-94.2071 272.0321,-92.1892 275.3868,-90.1707"/>
<polygon fill="#000000" stroke="#000000" points="277.3958,-93.0467 284.1599,-84.8921 273.7869,-87.0487 277.3958,-93.0467"/>
</g>
<!-- 262230 -->
<g id="node31" class="node">
<title>262230</title>
<ellipse fill="none" stroke="#000000" cx="312.8285" cy="-85.7063" rx="37.0935" ry="18"/>
<text text-anchor="middle" x="312.8285" y="-82.0063" font-family="Times,serif" font-size="14.00" fill="#000000">262230</text>
</g>
<!-- 5692&#45;&gt;262230 -->
<g id="edge12" class="edge">
<title>5692&#45;&gt;262230</title>
<path fill="none" stroke="#000000" d="M270.0042,-100.1355C270.8661,-99.8451 271.7361,-99.552 272.6115,-99.257"/>
<polygon fill="#000000" stroke="#000000" points="273.7348,-102.5719 282.0938,-96.0621 271.4997,-95.9384 273.7348,-102.5719"/>
</g>
<!-- 264608 -->
<g id="node32" class="node">
<title>264608</title>
<ellipse fill="none" stroke="#000000" cx="316.1754" cy="-100.9115" rx="37.0935" ry="18"/>
<text text-anchor="middle" x="316.1754" y="-97.2115" font-family="Times,serif" font-size="14.00" fill="#000000">264608</text>
</g>
<!-- 5692&#45;&gt;264608 -->
<g id="edge13" class="edge">
<title>5692&#45;&gt;264608</title>
<path fill="none" stroke="#000000" d="M272.887,-105.6194C273.0335,-105.6034 273.1802,-105.5875 273.3271,-105.5715"/>
<polygon fill="#000000" stroke="#000000" points="270.45,-109.4052 280.0129,-104.8444 269.6931,-102.4462 270.45,-109.4052"/>
</g>
<!-- 6453 -->
<g id="node15" class="node">
<title>6453</title>
<ellipse fill="none" stroke="#000000" cx="33.6474" cy="-155.1297" rx="28.6953" ry="18"/>
<text text-anchor="middle" x="33.6474" y="-151.4297" font-family="Times,serif" font-size="14.00" fill="#000000">6453</text>
</g>
<!-- 6461 -->
<g id="node16" class="node">
<title>6461</title>
<ellipse fill="none" stroke="#000000" cx="28.5975" cy="-108.696" rx="28.6953" ry="18"/>
<text text-anchor="middle" x="28.5975" y="-104.996" font-family="Times,serif" font-size="14.00" fill="#000000">6461</text>
</g>
<!-- 6762 -->
<g id="node17" class="node">
<title>6762</title>
<ellipse fill="none" stroke="#000000" cx="33.6474" cy="-62.2624" rx="28.6953" ry="18"/>
<text text-anchor="middle" x="33.6474" y="-58.5624" font-family="Times,serif" font-size="14.00" fill="#000000">6762</text>
</g>
<!-- 7018 -->
<g id="node18" class="node">
<title>7018</title>
<ellipse fill="none" stroke="#000000" cx="48.5612" cy="-18" rx="28.6953" ry="18"/>
<text text-anchor="middle" x="48.5612" y="-14.3" font-family="Times,serif" font-size="14.00" fill="#000000">7018</text>
</g>
<!-- 12956 -->
<g id="node21" class="node">
<title>12956</title>
<ellipse fill="none" stroke="#000000" cx="191.2976" cy="-242.4687" rx="32.4942" ry="18"/>
<text text-anchor="middle" x="191.2976" y="-238.7687" font-family="Times,serif" font-size="14.00" fill="#000000">12956</text>
</g>
<!-- 10834&#45;&gt;12956 -->
<g id="edge14" class="edge">
<title>10834&#45;&gt;12956</title>
<path fill="none" stroke="#000000" d="M205.8311,-190.3768C203.7922,-197.685 201.3905,-206.293 199.1333,-214.3836"/>
<polygon fill="#000000" stroke="#000000" points="195.7056,-213.6454 196.3894,-224.2182 202.4481,-215.5266 195.7056,-213.6454"/>
</g>
<!-- 22927 -->
<g id="node22" class="node">
<title>22927</title>
<ellipse fill="none" stroke="#000000" cx="129.9601" cy="-21.551" rx="32.4942" ry="18"/>
<text text-anchor="middle" x="129.9601" y="-17.851" font-family="Times,serif" font-size="14.00" fill="#000000">22927</text>
</g>
<!-- 10834&#45;&gt;22927 -->
<g id="edge15" class="edge">
<title>10834&#45;&gt;22927</title>
<path fill="none" stroke="#000000" d="M201.5904,-155.0151C187.5212,-128.8009 160.6889,-78.806 144.157,-48.0032"/>
<polygon fill="#000000" stroke="#000000" points="147.1956,-46.2635 139.3827,-39.1075 141.0278,-49.5738 147.1956,-46.2635"/>
</g>
<!-- 12956&#45;&gt;174 -->
<g id="edge16" class="edge">
<title>12956&#45;&gt;174</title>
<path fill="none" stroke="#000000" d="M221.1447,-234.9716C269.0438,-222.9401 362.8705,-199.3725 414.0096,-186.5272"/>
<polygon fill="#000000" stroke="#000000" points="415.0962,-189.863 423.9423,-184.0322 413.3909,-183.0739 415.0962,-189.863"/>
</g>
<!-- 12956&#45;&gt;209 -->
<g id="edge17" class="edge">
<title>12956&#45;&gt;209</title>
<path fill="none" stroke="#000000" d="M223.4467,-239.446C267.424,-235.3111 346.162,-227.9081 392.5846,-223.5433"/>
<polygon fill="#000000" stroke="#000000" points="393.1845,-227.0025 402.8129,-222.5816 392.5291,-220.0332 393.1845,-227.0025"/>
</g>
<!-- 12956&#45;&gt;701 -->
<g id="edge18" class="edge">
<title>12956&#45;&gt;701</title>
<path fill="none" stroke="#000000" d="M223.6676,-244.7442C261.6038,-247.411 324.3424,-251.8213 364.2385,-254.6259"/>
<polygon fill="#000000" stroke="#000000" points="364.132,-258.127 374.3528,-255.3369 364.6229,-251.1442 364.132,-258.127"/>
</g>
<!-- 12956&#45;&gt;1239 -->
<g id="edge19" class="edge">
<title>12956&#45;&gt;1239</title>
<path fill="none" stroke="#000000" d="M220.9019,-250.1037C250.8246,-257.8209 297.1197,-269.7605 329.3012,-278.0602"/>
<polygon fill="#000000" stroke="#000000" points="328.6579,-281.5087 339.2152,-280.617 330.4061,-274.7305 328.6579,-281.5087"/>
</g>
<!-- 12956&#45;&gt;1273 -->
<g id="edge20" class="edge">
<title>12956&#45;&gt;1273</title>
<path fill="none" stroke="#000000" d="M215.4281,-254.5813C237.1447,-265.4822 269.1992,-281.5724 292.9524,-293.4956"/>
<polygon fill="#000000" stroke="#000000" points="291.4217,-296.6434 301.9292,-298.0016 294.5621,-290.3873 291.4217,-296.6434"/>
</g>
<!-- 12956&#45;&gt;1299 -->
<g id="edge21" class="edge">
<title>12956&#45;&gt;1299</title>
<path fill="none" stroke="#000000" d="M208.7319,-258.152C222.0394,-270.123 240.5351,-286.761 255.2864,-300.0308"/>
<polygon fill="#000000" stroke="#000000" points="253.2643,-302.9195 263.0396,-307.0053 257.9458,-297.7153 253.2643,-302.9195"/>
</g>
<!-- 12956&#45;&gt;2914 -->
<g id="edge22" class="edge">
<title>12956&#45;&gt;2914</title>
<path fill="none" stroke="#000000" d="M200.1211,-259.8398C205.7476,-270.9168 213.1476,-285.4853 219.4928,-297.9774"/>
<polygon fill="#000000" stroke="#000000" points="216.4434,-299.7025 224.0926,-307.0332 222.6844,-296.5323 216.4434,-299.7025"/>
</g>
<!-- 12956&#45;&gt;3257 -->
<g id="edge23" class="edge">
<title>12956&#45;&gt;3257</title>
<path fill="none" stroke="#000000" d="M190.2116,-260.4678C189.7029,-268.8991 189.0848,-279.1426 188.5159,-288.5718"/>
<polygon fill="#000000" stroke="#000000" points="185.0116,-288.5391 187.9029,-298.7318 191.9989,-288.9608 185.0116,-288.5391"/>
</g>
<!-- 12956&#45;&gt;3320 -->
<g id="edge24" class="edge">
<title>12956&#45;&gt;3320</title>
<path fill="none" stroke="#000000" d="M177.4498,-258.9745C173.145,-264.1055 168.3074,-269.8717 163.6604,-275.4107"/>
<polygon fill="#000000" stroke="#000000" points="160.8186,-273.3524 157.0726,-283.263 166.1812,-277.8516 160.8186,-273.3524"/>
</g>
<!-- 12956&#45;&gt;3356 -->
<g id="edge25" class="edge">
<title>12956&#45;&gt;3356</title>
<path fill="none" stroke="#000000" d="M163.9172,-252.2312C156.1726,-254.9926 147.6393,-258.0351 139.522,-260.9293"/>
<polygon fill="#000000" stroke="#000000" points="138.1516,-257.702 129.9079,-264.3572 140.5026,-264.2955 138.1516,-257.702"/>
</g>
<!-- 12956&#45;&gt;3491 -->
<g id="edge26" class="edge">
<title>12956&#45;&gt;3491</title>
<path fill="none" stroke="#000000" d="M158.5601,-241.6258C143.9576,-241.2498 126.6453,-240.8041 111.4007,-240.4116"/>
<polygon fill="#000000" stroke="#000000" points="111.3227,-236.9085 101.2359,-240.1499 111.1425,-243.9062 111.3227,-236.9085"/>
</g>
<!-- 12956&#45;&gt;3549 -->
<g id="edge27" class="edge">
<title>12956&#45;&gt;3549</title>
<path fill="none" stroke="#000000" d="M162.7558,-233.855C140.2609,-227.0663 108.7583,-217.5591 84.5375,-210.2494"/>
<polygon fill="#000000" stroke="#000000" points="85.2352,-206.8041 74.6504,-207.2656 83.2127,-213.5056 85.2352,-206.8041"/>
</g>
<!-- 12956&#45;&gt;6453 -->
<g id="edge28" class="edge">
<title>12956&#45;&gt;6453</title>
<path fill="none" stroke="#000000" d="M168.0357,-229.5815C140.558,-214.3587 94.7523,-188.9821 64.3748,-172.1528"/>
<polygon fill="#000000" stroke="#000000" points="65.9235,-169.0096 55.48,-167.225 62.5312,-175.1327 65.9235,-169.0096"/>
</g>
<!-- 12956&#45;&gt;6461 -->
<g id="edge29" class="edge">
<title>12956&#45;&gt;6461</title>
<path fill="none" stroke="#000000" d="M172.9501,-227.3833C143.837,-203.4465 86.986,-156.7033 53.9827,-129.5679"/>
<polygon fill="#000000" stroke="#000000" points="56.0844,-126.7648 46.1372,-123.1173 51.6387,-132.1718 56.0844,-126.7648"/>
</g>
<!-- 12956&#45;&gt;6762 -->
<g id="edge30" class="edge">
<title>12956&#45;&gt;6762</title>
<path fill="none" stroke="#000000" d="M177.0291,-226.1588C149.0543,-194.1814 86.9029,-123.1376 54.386,-85.9683"/>
<polygon fill="#000000" stroke="#000000" points="56.763,-83.3696 47.5444,-78.1477 51.4945,-87.9787 56.763,-83.3696"/>
</g>
<!-- 12956&#45;&gt;7018 -->
<g id="edge31" class="edge">
<title>12956&#45;&gt;7018</title>
<path fill="none" stroke="#000000" d="M180.3343,-225.2277C155.3646,-185.9601 94.1587,-89.7071 64.7945,-43.5287"/>
<polygon fill="#000000" stroke="#000000" points="67.6858,-41.5528 59.3664,-34.9924 61.7789,-45.309 67.6858,-41.5528"/>
</g>
</g>
</svg>
